
<svg xmlns="http://www.w3.org/2000/svg" version="1.1" xmlns:xlink="http://www.w3.org/1999/xlink" preserveAspectRatio="none" x="0px" y="0px" width="100px" height="100px" viewBox="0 0 100 100">
<defs>
<g id="Layer1_0_FILL">
<path fill="#000000" stroke="none" d="
M 34.8 51
Q 34.85 51.5 35.1 52 35.35 52.55 35.7 52.7 35.2 51.45 34.8 51
M 36.1 53.75
Q 36.15 53.8 36.45 54.1 36.65 54.35 36.8 54.4 36.8 54 36.05 53.25 36 53.7 36.1 53.75
M 35.05 41.7
Q 34.9 41.85 34.9 42.15
L 35 42.7
Q 35 42.95 35.15 42.95 35.3 43 35.4 42.75
L 35.4 42.5
Q 35.35 42.05 35.05 41.7
M 46.25 18.45
Q 45.95 18.4 45.8 18.35 45.45 18.2 44.7 18.2
L 44.35 18.2
Q 43.25 18.25 42.7 18.15
L 42.6 18.2 42.5 18.2
Q 42.35 18.1 42.05 18.2 41.6 18 41.15 18.2
L 39.75 18.3
Q 39.45 18.3 39.2 18.45 38.45 18.65 38.05 18.5
L 37.95 18.55 36.25 19.1
Q 35.45 19.4 35.1 19.65 34.55 19.9 34.3 20 32.75 20.65 31.6 21.4 31 21.8 30.75 21.85 30.35 21.9 29.9 22.35
L 29.8 22.4 29.6 22.6
Q 29.55 22.6 29.4 22.75 29.1 22.9 28.8 23.35 28.7 23.35 28.6 23.5
L 28.35 23.7
Q 28 23.7 27.85 23.85 27.4 24.3 27.3 24.7
L 25.6 27.25
Q 25.5 27.4 24.55 29 24.15 29.5 23.85 30.3 23.65 30.4 23.65 30.65 23.15 31.6 22.5 33.35
L 22.2 34.4
Q 21.9 34.7 21.9 35.05
L 21.65 35.85
Q 21.4 36.9 21.35 36.95 21.1 37.3 21.1 37.95 20.75 38.7 20.7 39.35 20.4 41.15 20.4 41.25 20.25 41.9 20.35 42.8 20.5 45.2 20.45 45.75 20.45 46.4 20.65 46.85 20.65 47.3 20.8 47.65
L 20.95 49.15
Q 20.95 49.7 21.1 49.95
L 21.35 51.05
Q 21.55 51.45 21.45 52 21.4 52.25 21.4 54.25 21.3 54.5 21.4 54.8 21.35 55.2 21.45 55.95 21.45 56.65 21.55 58
L 21.65 58.35 21.65 58.9 21.85 59.5
Q 21.85 60.3 22.2 61.35 22.2 61.85 22.55 62.65 22.65 63.15 22.95 63.85 23.1 64.2 23.45 64.95
L 23.65 65.3
Q 23.95 66.45 24.5 67.45 24.85 68.3 26.05 70 27.3 71.95 27.4 72.15 27.5 72.4 27.6 72.45 27.7 72.55 28.5 73.6 28.7 74.05 29.2 74.25 29.7 74.55 29.9 74.75 30.05 74.95 30.95 75.45 31 75.6 31.25 75.85
L 31.6 76.1
Q 31.9 76.6 32.45 76.65 33.4 77.45 34.3 77.75 34.7 77.9 35.6 78.4 36.45 78.9 36.9 79.05
L 37 79.1
Q 38.1 79.6 38.4 79.65 38.45 79.7 38.85 79.85 39.25 80.05 40.15 80.25 40.5 80.45 41 80.55
L 42.75 81
Q 43.15 81.15 43.6 81.15 45.05 81.65 46.45 81.7
L 46.6 81.75 49.45 81.95
Q 49.9 82 52.15 81.85 53.2 81.85 53.95 81.6 54.45 81.6 55.35 81.35 55.85 81.35 55.95 81.25
L 56.2 81.2
Q 58.6 80.65 59.55 80.35 61.4 79.8 61.9 79.5
L 63.9 78.65
Q 64.05 78.65 64.1 78.55 64.25 78.7 64.25 78.45 64.45 78.45 64.45 78.3 65.2 77.95 65.4 77.85 65.6 77.85 65.65 77.65 66.05 77.4 66.1 77.3
L 66.3 77.2 67.2 76.45
Q 67.85 76.05 67.95 75.95 68.45 75.7 69.05 75.1
L 69.4 74.85
Q 70.8 73.75 72 72.4 72.174609375 72.2119140625 72.35 71.95 72.24296875 71.96328125 72.15 71.95 71.8 71.25 72.5 71.45 72.619921875 71.4765625 72.75 71.5 73.196875 70.954296875 73.75 70.2 74.1 69.85 74.35 69.35
L 74.6 68.9 74.7 68.8
Q 74.8 68.75 74.9 68.5
L 75 68.35 75.05 68.25
Q 75.15 68.2 75.15 68.05
L 75.25 67.95
Q 75.35 67.9 75.45 67.5 75.55 67.4 75.6 67.15 75.7 67.05 76.55 65.15
L 76.8 64.6
Q 77.1 64.35 77.15 63.95 78 62.2 78.2 61.4 78.35 61.2 78.35 60.9 78.55 60.6 78.7 59.9 79.15 58.6 79.3 57.35
L 79.35 57.15 79.55 54.85
Q 79.6 54.5 79.55 54.05 79.65 53.15 79.65 51.3 79.65 50.15 79.55 49.6
L 79.55 49.5 79.5 48.9 79.45 48.8
Q 79.45 48 79.25 47.4 79.35 47.15 79.2 47
L 79 46.2
Q 78.8 45.35 78.75 44.95 78.75 44.6 78.65 44.45
L 78.55 44.1
Q 78.2 43.05 78.05 42.5
L 78 42.35
Q 77.8 41.65 77.35 40.75 76.8 39.75 76.55 39.25
L 76.5 39.15 76.45 38.95 76.35 38.8 76.35 38.7 76.25 38.6
Q 76.25 38.45 76.15 38.4
L 75.95 38.15
Q 76 38.05 75.9 37.95
L 75.8 37.85 75.75 37.75 75.6 37.6 75.35 36.9
Q 74.4 35.55 74 34.85
L 73.7 34.55
Q 73.7 34.4 73.5 34.3 73.45 34.05 73.15 33.85 72.45 32.85 71.4 31.9
L 70.85 31.35
Q 69.7 30.2 68.65 29.55
L 68.3 29.3 68.25 29.3
Q 68.25 29.2 68.1 29.2 68.05 29.1 67.9 29.1
L 67.75 28.95
Q 67.6 28.8 67.3 28.65 66.95 28.45 66.8 28.35 66.6 28.2 64.55 27.25
L 62.4 26.1
Q 61.9 25.8 61.6 25.8
L 61.45 25.7 61.25 25.6 61.05 25.55
Q 60.55 25.25 59.95 25.15 59.6 24.95 59.05 24.95
L 58.85 24.9
Q 58.8 24.8 58.5 24.8
L 58.3 24.7
Q 57.7 24.5 57.3 24.5
L 57.05 24.45
Q 56.95 24.35 56.7 24.35 55.05 24 53.95 24.05
L 53.75 24
Q 52.1 23.9 51.25 23.95 51 23.95 50.9 24.05 49.85 24.1 48.4 24.75
L 48.35 24.8
Q 47.45 25.2 47.05 25.5
L 46.1 26.1
Q 45 26.65 43.6 27.7 43.4 27.7 43.3 27.9
L 43.2 27.95 43.15 28 43.05 28.05
Q 42.344140625 28.5794921875 42.15 28.8
L 42.65 29.25
Q 42.15 30.25 41.5 29.65
L 41.85 29.15 41.75 29.2 41.6 29.35 41.6 29.4 41.5 29.45 41.5 29.5 41.4 29.55
Q 40.8455078125 30.25234375 40.65 30.45 41.2041015625 30.37890625 41.95 30.85 41.3865234375 31.4134765625 40.5 30.65 39.87578125 31.411328125 38.8 32.3
L 38.35 32.9 38.25 33
Q 37.95 33.25 37.25 34.2
L 36.6 35.25
Q 36.25 35.7 36.1 36.4
L 35.8 37
Q 35.55 38.1 35.55 38.25 35.4 38.55 35.45 39.25
L 35.45 39.7
Q 35.45 40.55 35.55 40.7
L 35.55 40.8 35.7 42.25
Q 35.7 42.55 35.8 42.65
L 35.7 43.1
Q 35.65 43.3 35.65 44.15
L 35.55 44.25
Q 35.25 44.25 35.25 44.55 35.35 45.1 35.25 45.6 35.2 46.45 35.65 47.65
L 35.65 48.2
Q 35.6 48.2 35.25 48 35.15 47.8 35.2 47.6 35.25 47.25 35.1 46.75 34.9 46.15 34.9 45.95
L 34.85 45.8
Q 34.65 45.7 34.65 45.2
L 34.65 44.45
Q 34.65 44.25 34.5 44.25 34.35 44.35 34.35 44.75 34.35 46.6 34.45 47.15 34.55 47.5 34.55 48.2 34.75 48.6 34.8 49.5
L 34.9 49.65
Q 35.1 49.7 35.1 50.05 35 50.4 35.15 50.55 35.35 50.8 35.45 51.4 35.55 51.75 35.65 51.8 36 52.1 36.55 53 36.95 53.75 37.85 54.35
L 37.9 54.45 38 54.9
Q 37.55 55.05 37.3 54.7 37.1 54.4 36.85 54.4 37.15 55 37.2 55 37.55 55.05 37.75 55.45 38 55.6 38.05 55.75
L 38.3 56 39.4 56.8
Q 39.75 57.15 39.95 57.15
L 41.2 58.3
Q 41.5 58.6 41.7 58.65 42.25 59.25 43.85 60.1 44.75 60.75 46.15 61.1
L 47.05 61.4
Q 47.45 61.5 47.6 61.45
L 47.65 61.5 47.7 61.45
Q 47.95 61.55 49.05 61.65 49.85 61.65 50 61.55
L 50.75 61.55
Q 51 61.6 51.55 61.6 51.1 62.05 50.3 62.5 50.05 62.65 50 62.75 49.25 62.8 48.9 62.85 47.15 62.55 46.25 62.3 45.55 62.05 45.15 62.1 45.1 62.05 44.45 61.9
L 42.7 61.35
Q 41.85 60.75 40.5 60.2 40.35 59.9 39.5 59.45
L 39.4 59.35
Q 39.1 59.2 37.85 58.05
L 36.35 56.25
Q 35.95 55.6 35.8 55.5 35.65 54.95 35.35 54.8 35.3 54.4 34.9 53.8 34.5 52.9 34.25 52.45 34 52.05 33.9 51.35 33.9 50.95 33.85 50.7 33.8 50.35 33.5 50.2
L 33.45 50.1
Q 33.427734375 50.03671875 33.4 49.95 33.15 49.212890625 33.15 48.75
L 33.15 47.6
Q 33 45.35 33 45.3
L 33 44.95
Q 32.9 43.55 32.8 42.8
L 32.8 41.45
Q 32.9 39.9 32.9 39.15
L 32.9 38.95 33.15 37.5
Q 33.4 36.85 33.35 36.5
L 33.75 35
Q 33.95 34.6 33.9 34.3 34 34.25 34.15 33.95
L 34.55 32.7
Q 34.65 32.05 35.4 31.5
L 36.85 30.7
Q 37.1 30.6 37.1 30.4 37.2 30.1 36.9 30.2 36.75 30.35 36.3 30.45 35.9 30.55 35.7 30.65 35.55 30.8 35.35 30.7
L 35.4 30.2
Q 35.7 29.65 35.75 29.35
L 35.85 29.1
Q 36 28.9 36.1 28.45 36.25 28.4 36.25 28.2 36.85 26.7 37.55 25.9 37.75 25.6 37.75 25.45
L 37.95 25.25 38.1 24.95
Q 38.55 24.5 38.75 24.1
L 38.85 23.95
Q 39.1 23.75 39.45 23.3 39.6470703125 23.0701171875 39.95 22.7 39.8583984375 22.7541015625 39.75 22.8 39.45 21.75 40.25 22.05 40.4037109375 22.0884765625 40.45 22.15 41.1525390625 21.55234375 42.25 20.85 42.35 20.85 42.4 20.75 42.65 20.75 42.7 20.6
L 42.95 20.4 43.15 20.3
Q 44.65 19.65 44.95 19.65 45.4 19.65 45.7 19.5
L 47.75 19.45 48.25 19.35
Q 48.5 19.25 48.25 19.1 48.15 18.85 47.7 18.85 47.6 18.65 47.15 18.65 46.9 18.45 46.25 18.45
M 41.45 19.15
Q 40.55 18.75 41.7 19.05 41.8 18.45 41.9 18.45 41.95 18.4 42.2 19 42 19.45 41.45 19.15
M 51.3 32.65
Q 51.7 33 51.2 33.35 51.15 33.4 50.45 33.75 50.1 33.35 50.55 33.2 51.2 32.95 51.3 32.65
M 51.6 36.05
Q 51.4 35 51.8 36.05 51.75 37.1 51.6 36.05
M 46.8 29.95
Q 46 29.45 47.15 29.55 47.65 30.35 46.8 29.95
M 49.6 34.1
Q 49.9 33.95 50 33.85 50.15 34.1 50 34.3 49.75 34.55 49.6 34.4 49.4 34.15 49.6 34.1
M 49.35 49.1
Q 49.75 49.05 49.95 48.85 50.4 49.3 49.7 49.5 49.05 49.75 48.8 49.25 48.95 49.15 49.35 49.1
M 40.8 41.1
Q 40.85 40.9 41.15 40.55 41.3 40.75 41.15 41.05 40.85 41.35 40.8 41.55 40.55 41.35 40.8 41.1
M 53.5 47.4
Q 53.35 46.35 53.65 47.35 53.65 48.45 53.5 47.4
M 68.1 38.5
Q 67.4 37.95 68.3 38.15 68.7 39.2 68.1 38.5
M 74.35 47.95
Q 73.65 47.25 74.6 47.5 75 48.65 74.35 47.95
M 75.75 48.8
Q 75.6 48.35 75.75 48.5 76.05 49.1 76.3 49.2 77.1 49.95 76.1 49.5 75.2 49.15 75.75 48.8
M 71.55 46.75
Q 71.4 45.7 71.75 46.7 71.75 47.75 71.55 46.75
M 30.5 35.15
Q 30.7 35.4 30.5 35.8 30.1 36.25 29.95 36.5 29.8 36.35 29.9 36.1 29.95 35.95 30.1 35.7 29.9 35.45 29.6 35.75 29.2 35.2 29.75 35.2 30.45 35.2 30.5 35.15
M 38.5 36.75
Q 38.7 36.6 39.05 36.45 39.25 36.75 39 36.9 38.6 37.1 38.45 37.2 38.2 36.85 38.5 36.75
M 29.1 33.6
L 29.3 33.65
Q 29.25 33.75 29.15 33.75
L 29.1 33.6
M 27.15 42.55
Q 27.6 43.3 26.8 42.9 25.9 42.45 27.15 42.55
M 28.8 43.55
Q 28 43.1 29.2 43.2 29.65 44 28.8 43.55
M 40.1 43.15
Q 40.2 42.95 40.45 42.6 40.6 42.8 40.45 43.1 40.2 43.45 40.1 43.6 39.95 43.4 40.1 43.15
M 30.55 45.45
L 30.8 45.7
Q 30.3 46.7 30.2 45.25 30.05 43.2 30.55 45.45
M 33.1 52.5
Q 33.2 52.3 33.45 51.95 33.55 52.1 33.45 52.45 33.2 52.8 33.1 53 32.9 52.8 33.1 52.5
M 32.75 54.55
L 32.6 54.4 32.75 54.35 32.75 54.55
M 30.85 57.5
Q 30.75 56.45 31 57.5 31 58.55 30.85 57.5
M 33.3 56.15
Q 33.3 57.25 33.15 56.15 33 55.15 33.3 56.15
M 25.9 53.45
Q 25.25 52.8 26.2 53 26.6 54.1 25.9 53.45
M 23.8 51.65
Q 23.55 52 23.25 51.45 22.9 50.7 23.4 50.45 23.75 50.65 23.7 51.05 23.6 51.5 23.8 51.65
M 23.8 55.1
Q 24.15 54.9 24.35 55.15 24.45 55.3 24.65 55.7 24.3 55.9 24.15 55.6 23.95 55.2 23.8 55.1
M 23.95 59.3
Q 23.15 58.85 24.3 58.9 24.8 59.7 23.95 59.3
M 28.4 61
Q 28.5 60.85 28.75 60.45 28.9 60.65 28.75 60.95 28.55 61.35 28.4 61.5 28.2 61.35 28.4 61
M 28.45 66.9
Q 28.35 65.85 28.65 66.9 28.65 67.95 28.45 66.9
M 28.25 63.8
Q 27.95 64.7 28.15 64.8 27.9 64.95 27.75 64.65 27.5 64.3 27.25 64.15 27.65 64 27.75 63.9 27.95 63.8 27.7 63.6 28.4 63.2 28.25 63.8
M 23.1 61.95
Q 23.15 62.1 23.4 62.5 23.05 62.7 22.9 62.4 22.75 62 22.55 61.9 22.9 61.65 23.1 61.95
M 27.3 69.95
Q 26.7 69.35 27.55 69.55 28 70.6 27.3 69.95
M 40.4 67.25
Q 40.4 66.55 40.2 66.5 40.75 66.1 40.75 66.65 40.75 67.35 40.8 67.4 40.4 67.8 40.4 67.25
M 33.3 63
Q 33.75 63.85 32.95 63.4 32.1 62.95 33.3 63
M 33.35 70.05
Q 33.45 70.25 33.65 70.6 33.3 70.8 33.15 70.5 32.95 70.15 32.85 70 33.15 69.75 33.35 70.05
M 31.35 72.1
Q 30.65 71.45 31.6 71.65 32 72.75 31.35 72.1
M 33.8 72.85
Q 33.9 72.6 34.15 72.3 34.3 72.45 34.15 72.8 33.85 73.1 33.8 73.3 33.6 73.15 33.8 72.85
M 77.95 57.05
Q 78.3 56.9 78.4 56.8 78.65 57 78.4 57.25 78.2 57.5 78 57.35 77.8 57.1 77.95 57.05
M 61.05 72.55
Q 61.15 72.4 61.4 72.05 61.6 72.25 61.4 72.55 61.15 72.9 61.05 73.1 60.85 72.9 61.05 72.55
M 66.05 67.9
Q 65.9 66.85 66.2 67.9 66.2 68.95 66.05 67.9
M 73.5 67.05
Q 73.35 66.05 73.65 67.05 73.7 68.1 73.5 67.05
M 71.15 68.15
Q 71.15 69.25 71 68.2 70.85 67.15 71.15 68.15
M 55.1 53.75
Q 55 52.7 55.3 53.7 55.3 54.8 55.1 53.75
M 48.5 50.6
Q 47.7 50.1 48.9 50.2 49.4 51 48.5 50.6
M 42.55 53.3
Q 42.85 53.15 42.85 53.05 43.1 53.3 42.9 53.5 42.7 53.8 42.5 53.6 42.35 53.35 42.55 53.3
M 54.9 69.55
Q 54.8 68.45 55.05 69.5 55.1 70.55 54.9 69.55
M 58.1 79.85
Q 58.75 79.5 59.3 80 58.65 80.35 58.1 79.85
M 58.05 79.4
Q 57.2 79.75 57.2 78.95 57.15 77.9 57.05 77.8 57.55 77.55 57.6 78.3 57.6 79.25 58.05 79.4
M 48 79.4
Q 47.15 78.95 48.35 79.05 48.85 79.9 48 79.4
M 48 76.4
Q 48.35 76.25 48.45 76.15 48.65 76.35 48.45 76.6 48.25 76.8 48.05 76.65 47.8 76.45 48 76.4
M 49.75 74.95
Q 49.1 75.4 48.5 74.9 49.15 74.5 49.75 74.95 Z"/>
</g>
</defs>

<g transform="matrix( 1, 0, 0, 1, 0,0) ">
<use xlink:href="#Layer1_0_FILL"/>
</g>
</svg>
