
<svg xmlns="http://www.w3.org/2000/svg" version="1.1" xmlns:xlink="http://www.w3.org/1999/xlink" preserveAspectRatio="none" x="0px" y="0px" width="100px" height="100px" viewBox="0 0 100 100">
<defs>
<g id="Layer1_0_FILL">
<path fill="#000000" stroke="none" d="
M 56.8 29
L 56.2 29.45 55.4 29.55
Q 54.95 29.45 54.5 29.25 54.5 29.3 54.5 29.4 55 29.65 54.4 29.4 54.35 29.45 54.3 29.55 55 29.6 54.4 29.75
L 53.65 29.55
Q 53.4 29.5 53.2 29.5
L 52.55 29.3 51.5 29.5 51.05 30 50.25 29.55 50.5 30.25
Q 50.35 30.65 50.1 30.3 50 30.2 49.8 30.05
L 49.75 30 49.6 29.5
Q 50.1 29.45 49.8 29.3 49.7 29.25 49.65 29.25 49.6 29.65 49.2 29.55
L 47 29.5 46.3 29.65 46.8 29 46.05 29.4
Q 45.55 29.3 46 29.7
L 46 29.8 45 30.15
Q 45.55 30.55 44.8 30.65 44.45 30.6 44.65 30.3 44.1 30.35 44.25 30.65
L 43.75 30.9 43.3 30.5 42.65 30.8
Q 42.25 30.95 42.5 30.55
L 41.3 30.5 41.65 31.1 41.15 31.65 40.55 31.5
Q 40.15 31.8 39.9 31.8 39.3142578125 31.848828125 39.3 31.4
L 39.95 31.25 39.8 31.3 40.25 31.4 41 30.8 39 31.15 38.55 30.9 38.2 31.05 38.75 31.3 38.25 31.65 37.75 31.5 37.8 32.1 36.8 32.5 37.2 32.75 36.25 33.5 34.75 33.85 34.95 33.25
Q 34.7 33.2 34.35 32.95
L 34.45 32.9
Q 34.5 32.8 34.55 32.7
L 34.5 32.5 33.75 33.05 33.25 33.05
Q 33.2126953125 33.16171875 33.15 33.25 33.2083984375 33.4083984375 33.25 33.45 33.1400390625 33.544140625 33.05 33.55
L 33.2 34.15
Q 33.4609375 34.079296875 33.3 34.2 33.260546875 34.221484375 33.2 34.25
L 33.25 34.35 32.85 34.45
Q 32.6568359375 34.5931640625 32.55 34.7 32.505078125 34.7421875 32.45 34.75
L 32.4 34.95
Q 32.8 35.55 32.4 35.35 32.3 35.45 32.2 35.6
L 32.4 34.95 31.75 35.05
Q 31 35.35 31.5 35.25
L 31.15 35.9
Q 31.225 35.85 31.35 35.75 31.6 36.35 31.15 35.95
L 31 36.25 30.5 36.6 30.25 37.35
Q 30.45 37.85 29.95 37.55 29.8 37.5 29.7 37.5 30.15 38.1 29.65 37.7 29.46640625 37.539453125 29.45 37.45
L 28.95 37.45
Q 28.45 37.8 29.2 37.95 29.25 37.95 29.35 38
L 28.4 39.1 28.1 39.5
Q 28 39.25 28.35 39.05 28.3826171875 39.0826171875 28.4 39.1 28.3013671875 38.6955078125 28.25 38.4 28.26953125 38.479296875 28.35 38.6 28.6 38.4 28.6 38.3 28.6400390625 38.180078125 28.85 38.1 28.65 37.95 28.5 37.75
L 28.35 37.25 28.15 37.75 27.6 38.8 26.85 38.6 26.5 39.5 25.5 40.35 26.5 40 26.75 40.55 26.1 41.1 25.5 40.85
Q 26 40.45 25.45 40.5 25.2 40.6 24.95 40.5
L 24.75 41.1
Q 25.5 40.7 25.1 41.25
L 26 41.3 25.75 42 25.1 42.35 24.45 42.6
Q 24.3544921875 42.3451171875 24.6 42.25
L 24.25 42.3 23.45 42.6 23.85 43 23.5 43.75 23.35 44.85 24 44.75 24.1 45.3
Q 23.85 45.55 24.25 45.6
L 24.1 45.65
Q 23.5 45.5 23.65 45.35 23.75 45.35 23.85 45.25
L 23.1 45.55
Q 23.05 45.65 23 45.8
L 22.35 46.2
Q 23.25 46 22.85 46.35 22.75 46.4 22.7 46.5
L 23.25 46.75 22.5 47.1 22.15 46.95
Q 21.6 47 22.35 47.25 22.65 47.25 22.6 47.45
L 22.5 47.5 21.5 47.75 22.35 48.2
Q 22.2 47.85 22.7 47.75 22.75 47.8 22.85 47.85
L 22.55 48.45 22.5 49.5 22.4 50.05
Q 22.5166015625 49.71796875 23 50 23.05 50 23.1 50.05 23.5 50.6 23.75 50.05
L 24.1 50.45 23.85 50.85 23.1 50.45 22.1 50.55
Q 22 50.9 22.15 51.2
L 21.95 51.2 22.35 51.55
Q 23.05 52 22.35 51.75 22.3 51.8 22.25 51.85
L 21.6 51.75
Q 21.25 51.6 21.25 52.1 21.25 52.15 21.25 52.25 20.8 51.95 20.5 52.25 21 52.1 20.85 52.45
L 21.1 53.05 20.75 53.6
Q 20.55 53.9 20.4 53.6 20.35 53.5 20.35 53.45 19.85 53.75 20.35 53.8 20.45 53.9 20.6 54
L 20.25 54.5
Q 20.9 54.75 20.65 55.05 20.5 55.2 20.2 55.05
L 20.25 56.35 20.7 57
Q 20.95 56.85 21.3 57.15 21.35 57.15 21.35 57.2
L 21.3 58.4 21.85 58.6
Q 21.35 58.75 21.7 58.95 21.75 58.9 21.75 59.05
L 22.25 58.95 22.25 59.8 22.75 60.45
Q 22.25 60.5 22.85 60.85 23.55 61 23 61.45
L 23.5 61.6
Q 23.3 61.95 23.7 62.25
L 24.7 62.95
Q 25.15 62.85 25.05 63 25.05 63.1 25 63.2
L 25.25 63.75 25.85 64.6 26.75 65.35 28.25 66.2 29.5 67.2 30.35 67.45 32.45 68.55 34.15 68.95 34.75 69.35 36 69.45 36.3 69.6
Q 36.14140625 69.4609375 36.05 69.4 36.25 69.2 36.55 69.45 36.7 69.55 37.05 69.85 36.9951171875 69.8830078125 36.95 69.9
L 37.05 69.95 38.2 69.85 39.9 70.35
Q 40.1 70 39.95 70.45
L 40 70.45 41.4 70.7 41.8 70.6 42.55 70.85 43.45 70.5
Q 42.8 70.65 43.2 70.3 43.3 70.25 43.4 70.2
L 43.45 70.5 44.8 69.85 44.9 70.1
Q 44.55 70.2 44.65 70.5
L 44.8 70.35
Q 45.5 70.5 44.7 70.85
L 47.45 70.45 48.05 70.8 48.5 70.6
Q 48 71.35 48.75 70.9 48.85 70.8 48.9 70.7
L 49.15 71.05
Q 49.05 70.3 49.9 70.25
L 50.2 70.1 51.2 70.45
Q 51.75 70.4 52 70.85
L 52.2 70.55 53 70.35 52.85 70.9 53.75 69.95 54.8 70
Q 54.25 70.75 55.3 70.25 55.35 70.25 55.4 70.25
L 54.5 70.85 55.6 70.4
Q 56.4 70.35 55.5 70.7 55.65 71.25 56 71
L 56 70.7 57.2 70.45 56.75 70.1 57.5 69.85 58.5 70.25 59.3 70
Q 59.7 70.45 59.75 69.95
L 59.7 70.6 60.8 70.6
Q 61.15 70.3 60.5 70.5 61.15 69.95 60.5 69.95
L 61.4 69.6 61.4 70.2 61.9 70.2 62.4 69.95 63.25 69.35
Q 63.25 69.1 63.45 69.5 63.5 69.55 63.5 69.65
L 64.3 69.5 65.4 68.85 65.8 68.2 67.5 67.75 67.85 67.35
Q 67.6 67.6359375 67.6 67.35 67.6 67.25 67.65 67.2
L 68.15 67.2
Q 68.1 66.9 68.05 66.8 68 66.7 67.9 66.7
L 68.4 66.65 69.4 67.2
Q 69.15 66.45 70 66.75 69.95 66.65 69.9 66.6 69.75 66.5 69.65 66.45 69.95 66.4 70.25 66.35
L 70.8 65.7 71.4 65.25 71.4 64.95
Q 71.3 64.95 71.3 65 71.25 64.85 71.3 64.7 70.35 64.8 71.2 64.5 71.5 64.35 71.45 64.55 71.4 64.65 71.3 64.7
L 71.4 64.95
Q 71.605859375 65.1146484375 71.6 65.15
L 72.55 64.85 73.05 64.35 73.25 63.85
Q 72.95 63.75 73.05 63.4 73.25 63 72.8 63.25 72.8 63.1 72.75 63.05 72.55 62.85 72.95 62.8
L 73.8 62.8 75.05 61.75 74.8 60.95 75.55 60.95 75.55 60.25 76.15 59.85 76.15 59.25 76.9 58.75 77.05 57.95 77.4 57.25 77.15 56.5
Q 77.35 56.45 77.4 56.5
L 77.5 56.2 77.9 55.8 77.9 55.75
Q 77.95 55.65 77.95 55.6
L 77.9 55.6
Q 77.85 55.55 77.8 55.5 78.45 55.35 78.3 54.95 78.3 54.9 78.3 54.85
L 78.25 54.55 78.5 53.85
Q 78.5 53.4 79.05 53.6
L 78.9 53.25
Q 79.5 53 79.15 52.8 79.05 52.75 79 52.75
L 79.55 52.25
Q 79.75 52.3 79.95 52.05 80.25 51.6 79.9 51.55
L 80.15 51.25
Q 80.2826171875 50.984765625 80.2 50.85 80.019140625 51.3203125 79.5 51
L 79.1 51.3 79.05 50 79.8 49.7 79.85 49.5 80.15 48.7
Q 80.4 48.75 80.45 48.55
L 80.4 48.5
Q 80.65 48.2 80.1 48.05
L 80.3 48.1 79.9 47.6
Q 80.15 47.15 79.55 47.05 79.55 46.65 79.9 46.75
L 79.9 45.35
Q 79.25 45.5 80 44.9
L 79.3 44.25 78.65 42.85 78.25 42.5
Q 77.5 43 77.8 42.3
L 77.9 42.35 78.4 41.85 77.9 41.35 77.35 41.65
Q 76.65 41.55 77.55 41.2
L 77.8 40.55 77.3 40 76.05 41 75.55 40.6 76.05 40.3 76.55 40.3 75.9 39.8 75.75 39.35
Q 75.2 38.95 75.75 38.8
L 75.05 38
Q 75.4 37.9 75.25 37.7 75.25 37.65 75.15 37.75 75.25 37 75 37.45
L 74 37.3 73.25 36.55 73.55 36
Q 73.4 35.9 73.3 35.75 73.25 35.65 73.25 35.5 72.85 36.55 72.65 35.8 72.35 36.5 72.35 35.95 72.35 35.85 72.3 35.75
L 71.8 35.25 71.25 34.25 70.65 34
Q 70.6 33.95 70.55 33.95
L 69.55 33.55 68.65 32.8
Q 68.9 32.85 68.95 32.8 68.95 32.75 68.65 32.75 68.5 32.7 68.4 32.7
L 67.65 32.25
Q 67.1 32.9 67.25 32.05 67.3 31.6 67.05 31.9 67.1755859375 31.6802734375 67.3 31.75
L 67.15 31.5 66.3 31.8 65.8 31.15
Q 65.4 31.65 65.3 31.15
L 64.65 31 64.05 31.15 63 30.75
Q 63.45 30.75 62.75 30.65 63.4 30.55 63 30.15 62.5 30.9 62.5 29.8
L 61.65 30
Q 61.35 30.35 61.05 30 60.7 30.25 60.6 29.85 61 29.9 61 29.55
L 60 29.3 59.55 29.5
Q 59.98125 29.2919921875 59.65 29.15 59.6 29.15 59.25 29.25
L 59 28.55
Q 58.55 29 59.2 29.15
L 59 29.4 58.25 29.5 58.25 28.9 57.65 28.5 57.25 28.9 56.35 29.05 56.8 29
M 59.45 29.4
Q 59.45 29.45 59.5 29.55 58.65 29.65 59.45 29.4
M 53.65 33.95
Q 54.2 33.2 54 34.35 53.15 34.75 53.65 33.95
M 51.2 32.3
Q 51.4 32.65 51.1 32.8 50.9 32.85 50.5 33.05 50.35 32.7 50.65 32.55 51.05 32.45 51.2 32.3
M 57.7 34.75
Q 57.55 34.85 57.15 35 57 34.65 57.3 34.5 57.7 34.35 57.85 34.25 58 34.6 57.7 34.75
M 59.25 36.55
Q 59.95 35.95 59.65 36.85 58.5 37.15 59.25 36.55
M 42.65 36.2
Q 43.4 35.65 43.1 36.5 41.95 36.8 42.65 36.2
M 49.95 30.65
Q 50.3 31.3 49.75 31.85 49.4 31.2 49.95 30.65
M 47.75 37.55
Q 47.6 37.3 47.9 37.2 48.3 37 48.45 36.75 48.55 37.15 48.65 37.25 48.75 37.45 48.95 37.25 49.3 38 48.7 37.75 47.85 37.4 47.75 37.55
M 48.95 42.85
Q 48.1 43.2 48.6 42.45 49.15 41.65 48.95 42.85
M 45.6 37.65
Q 46.65 37.65 45.6 37.85 44.55 37.75 45.6 37.65
M 41.95 42.15
Q 41.75 42.25 41.35 42.4 41.2 42.05 41.5 41.9 41.9 41.75 42.05 41.65 42.25 42 41.95 42.15
M 54.7 41.15
Q 53.65 41.05 54.7 41 55.75 41 54.7 41.15
M 51.95 38.6
Q 51.75 38.75 51.45 38.55 51.1 38.3 50.95 38.15 51.15 38 51.45 38.2 51.6 38.3 51.95 38.6
M 55.8 43.4
Q 56.8 43.35 55.8 43.55 54.7 43.45 55.8 43.4
M 59.45 43.75
Q 59.6 43.85 59.95 44.15 59.75 44.3 59.45 44.1 59.1 43.8 58.95 43.7 59.15 43.5 59.45 43.75
M 72.4 36.7
L 72.4 36.75 71.5 36.3 72.15 36.35
Q 72.2 36.4 72.3 36.55 72.35 36.6 72.4 36.7
M 61.9 34.55
Q 61.45 34.4 61.3 34.6 60.9 34.3 61.55 34.05 62.3 33.8 62.5 34.3 62.3 34.65 61.9 34.55
M 70 38.9
Q 69.15 39.25 69.65 38.5 70.2 37.7 70 38.9
M 69.1 40.85
Q 68.25 41.25 68.75 40.45 69.3 39.7 69.1 40.85
M 66.7 41.95
L 66.45 42.2
Q 65.5 41.6 66.95 41.65 69 41.7 66.7 41.95
M 61.95 45.05
Q 61.1 45.45 61.6 44.65 62.15 43.9 61.95 45.05
M 68 45.85
Q 68.5 45.1 68.3 46.25 67.45 46.65 68 45.85
M 76.95 42.5
L 77 42.5
Q 77.65 42.4 77.05 42.8 76.973828125 42.825390625 76.9 42.85 76.9302734375 42.9802734375 76.95 43
L 76.9 43
Q 76.9455078125 43.0564453125 77 43.1 76.725 43.1916015625 76.45 43.2
L 76.35 42.9
Q 76.331640625 42.9197265625 76.3 42.9 75.9 42.5 75.7 42.3 75.85 42.2 76.1 42.3 76.2 42.35 76.45 42.55 76.7 42.35 76.45 42.05 77.05 41.7 77 42.25 76.9791015625 42.396484375 76.95 42.5
M 33.95 33.2
Q 33.9740234375 33.25 34 33.25 34.2 33.6 33.8 33.55 33.75 33.5 33.75 33.3 34.0853515625 33.6353515625 33.95 33.2
M 36.05 35.25
Q 36.75 34.65 36.45 35.5 35.3 35.8 36.05 35.25
M 25.85 43.15
Q 26.6 42.55 26.3 43.45 25.15 43.75 25.85 43.15
M 39.15 42.3
Q 39.35 42.45 39.65 42.7 39.45 42.85 39.15 42.65 38.85 42.35 38.7 42.25 38.85 42.1 39.15 42.3
M 32.15 42.65
Q 32 42.9 31.65 43.25 31.9 43.8 31.55 43.4 31.25 42.75 31.9 42.5 32.3 42.3 32.15 42.65
M 31.1 55.75
Q 31.65 55 31.4 56.15 30.55 56.55 31.1 55.75
M 35.55 56.75
Q 35.9 57.4 35.4 57.95 35 57.3 35.55 56.75
M 34.15 56.1
Q 34.25 56.45 34.35 56.55 34.1 56.75 33.85 56.5 33.65 56.3 33.85 56.1 34.1 55.9 34.15 56.1
M 29.6 65.75
Q 29.9 66.45 29.35 66.95 29.05 66.25 29.6 65.75
M 40.2 63.85
Q 39.15 63.75 40.2 63.7 41.3 63.7 40.2 63.85
M 31.75 64.95
Q 31.95 65.45 31.2 65.45 30.25 65.35 30.05 65.75 29.8 64.9 30.6 64.95 31.65 65.05 31.75 64.95
M 74.55 50.8
Q 74.65 51 74.8 51.35 74.45 51.55 74.35 51.25 74.2 50.85 74.1 50.7 74.45 50.5 74.55 50.8
M 68.5 52.1
Q 68.3 52.25 68 52.05 67.7 51.75 67.55 51.65 67.75 51.5 68 51.7 68.2 51.8 68.5 52.1
M 70.5 53
Q 70.3 53.15 70 52.95 69.7 52.65 69.5 52.55 69.7 52.35 70 52.6 70.2 52.7 70.5 53
M 61.15 60.3
Q 61.15 60.7 61.3 60.9 60.8 61.3 60.65 60.6 60.5 59.9 61.05 59.7 61.15 59.9 61.15 60.3
M 62.4 64.6
Q 63.45 64.55 62.4 64.75 61.35 64.65 62.4 64.6
M 57.65 53.05
Q 57.75 53.4 57.85 53.45 57.6 53.65 57.4 53.45 57.15 53.2 57.35 53 57.6 52.85 57.65 53.05
M 59.7 59.3
Q 60.25 58.55 60.05 59.7 59.2 60.1 59.7 59.3
M 44.6 49.9
Q 43.9 49.8 43.85 49.85 43.5 49.4 44 49.5 44.7 49.55 44.8 49.35 45.15 49.95 44.6 49.9
M 55.9 65.55
Q 56.95 65.55 55.9 65.75 54.85 65.6 55.9 65.55
M 40.15 39.95
Q 40.85 39.35 40.55 40.25 39.4 40.55 40.15 39.95 Z"/>
</g>
</defs>

<g transform="matrix( 1, 0, 0, 1, 0,0) ">
<use xlink:href="#Layer1_0_FILL"/>
</g>
</svg>
