
<svg xmlns="http://www.w3.org/2000/svg" version="1.1" xmlns:xlink="http://www.w3.org/1999/xlink" preserveAspectRatio="none" x="0px" y="0px" width="100px" height="100px" viewBox="0 0 100 100">
<defs>
<g id="Layer1_0_FILL">
<path fill="#000000" stroke="none" d="
M 45.3 33.05
L 43.4 36.45 30.35 32.8
Q 28.6 44.8 28.35 47.2 28.3 48 28.85 49.3 29.35 50.55 29.75 50.6 33.8 50.65 34.15 53.7 34.2 54.15 34.15 56.45 34.15 57.03828125 34.2 57.5 34.2537109375 57.5095703125 34.35 57.5 34.9 57.5 34.35 57.6 34.2578125 57.5908203125 34.2 57.55 34.28203125 58.4208984375 34.5 58.95
L 34.45 61.3
Q 34.8541015625 61.3044921875 34.45 61.4
L 34.4 63.15 34.85 63
Q 36.2794921875 65.23515625 37.85 66.65 38.1 66.5203125 38.1 66.3 38.15 66.35 38.2 66.6 38.2 66.75 38.25 66.9 38.18515625 66.8837890625 38.1 66.85 39.45859375 68.0322265625 40.9 68.6 44.25 69.9 49.65 68.75 49.85 68.75 50.15 68.55 50.45 68.35 50.6 68.3 57.6 67.3 58.9 65.95 60.25 64.55 61.25 57.35
L 66.15 65.85
Q 66.55 65.6 67.4 65.1 68.15 64.6 68.35 64.15 68.53671875 63.7765625 69.4 61.65 69.363671875 61.6896484375 69.25 61.7 68.75 61.65 68.75 61.45 68.75 61.35 69.3 61.5 69.41875 61.535546875 69.45 61.55 70.256640625 59.7359375 71.55 56.65
L 71.6 56.7 69.25 45.7 69.05 35 62.25 30.75 61.2 33.45 61.35 33.45
Q 61.85 33.4 61.35 33.5 61.2642578125 33.4921875 61.2 33.45
L 59.1 39 55.4 31.2 49 37.35 45.3 33.05
M 54.05 32.95
Q 54 32.75 54.15 32.7 54.35 32.6 54.4 32.55 54.5 32.75 54.35 32.8 54.25 32.85 54.05 32.95
M 54.1 35
Q 53.7 35.2 53.95 34.8 54.25 34.4 54.1 35
M 55.3 36.7
Q 55.15 36.45 55.4 36.5 55.75 36.55 55.8 36.45 55.95 36.75 55.7 36.7 55.35 36.65 55.3 36.7
M 40.9 36.9
Q 41.2 36.5 41.1 37.1 40.65 37.3 40.9 36.9
M 44.9 36.95
Q 45.25 36.8 45.35 37.05 45.25 37.25 45.05 37.2 44.85 37.1 44.75 37.2 44.55 37.05 44.9 36.95
M 48.95 39.15
Q 49.25 38.75 49.15 39.35 48.7 39.55 48.95 39.15
M 48.9 39.65
Q 49.15 39.3 49.05 39.85 48.6 40.05 48.9 39.65
M 50.45 39.85
Q 50.5 40 50.55 40.05 50.4 40.15 50.3 40.05 50.2 39.95 50.3 39.85 50.4 39.75 50.45 39.85
M 47.35 41.05
Q 46.85 40.75 47.6 40.75 48.65 40.8 47.5 40.9
L 47.35 41.05
M 48.15 42.85
Q 48.4 42.5 48.3 43.05 47.85 43.25 48.15 42.85
M 48.5 40.15
Q 48.8 39.75 48.7 40.35 48.25 40.55 48.5 40.15
M 43.95 38.35
Q 43.35 38.5 43.75 38.2 44.1 37.9 43.95 38.35
M 42.65 37.4
Q 42.6 37.25 42.75 37.15 42.95 37.1 43 37.05 43.1 37.2 42.95 37.3 42.85 37.35 42.65 37.4
M 41.45 40.5
Q 40.9 40.45 41.45 40.45 41.95 40.45 41.45 40.5
M 42 41.7
Q 41.45 41.65 42 41.65 42.5 41.6 42 41.7
M 44.9 42.25
Q 45.2 41.9 45.1 42.45 44.65 42.65 44.9 42.25
M 43.85 41.8
Q 43.9 41.85 44.1 42 44 42.1 43.85 42 43.65 41.85 43.55 41.8 43.65 41.7 43.85 41.8
M 42.9 46.5
Q 42.95 46.65 43 46.7 42.9 46.8 42.8 46.7 42.65 46.55 42.75 46.45 42.9 46.4 42.9 46.5
M 48.15 45.8
Q 48.25 45.85 48.4 46 48.3 46.1 48.15 46 48 45.85 47.9 45.8 48 45.7 48.15 45.8
M 48.9 46.25
Q 49 46.15 49.15 46.25 49.25 46.3 49.4 46.45 49.3 46.55 49.15 46.45 49 46.3 48.9 46.25
M 48.35 44.7
Q 48.25 44.25 48.65 44.3 49.15 44.35 49.2 44.3 49.35 44.55 48.95 44.55 48.45 44.5 48.35 44.7
M 47.7 48.9
Q 47.75 49.1 47.8 49.1 47.7 49.2 47.55 49.1 47.45 49 47.55 48.85 47.7 48.8 47.7 48.9
M 47.9 47.85
Q 48.3 47.55 48.15 48 47.55 48.15 47.9 47.85
M 52.65 41.45
Q 52.5 41.5 52.3 41.4 52.1 41.2 52 41.1 52.1 41.05 52.2 41.1 52.25 41.1 52.4 41.2 52.5 41.1 52.4 40.95 52.7 40.8 52.65 41.05 52.6 41.4 52.65 41.45
M 53.9 45.05
Q 54.25 44.9 54.1 44.7 54.35 44.6 54.35 45.15 54.3 45.7 53.9 45.45 53.65 45.15 53.9 45.05
M 53.5 43.75
Q 52.95 43.7 53.5 43.65 54.05 43.65 53.5 43.75
M 51.45 45.35
Q 51.5 45.45 51.55 45.65 51.4 45.75 51.35 45.6 51.25 45.4 51.2 45.3 51.4 45.2 51.45 45.35
M 51.65 46.55
Q 51.7 46.6 51.9 46.75 51.75 46.85 51.65 46.75 51.45 46.6 51.4 46.55 51.5 46.45 51.65 46.55
M 53.7 49.3
Q 54.25 49.3 53.7 49.4 53.2 49.35 53.7 49.3
M 55.2 47.6
L 54.95 47.85
Q 54.5 47.55 54.85 47.25
L 55.2 47.6
M 60.4 48.05
L 60.1 48.15
Q 59.9 48.05 60.1 47.8 60.3 47.35 60.1 47.9 60.4 48 60.4 48.05
M 58.7 47.05
Q 58.55 47.45 58.35 46.75 58.9 46.65 58.7 47.05
M 63.2 33.8
Q 63 33.65 62.9 33.6 63 33.5 63.2 33.6 63.25 33.65 63.45 33.8 63.35 33.9 63.2 33.8
M 64.45 34.25
Q 64 34.45 64.25 34.05 64.55 33.7 64.45 34.25
M 67.5 34.65
Q 67.75 34.3 67.65 34.85 67.2 35.05 67.5 34.65
M 68.75 38.25
Q 68.65 38.35 68.5 38.25 68.35 38.1 68.25 38.05 68.35 37.95 68.5 38.05 68.6 38.1 68.75 38.25
M 67.75 37.8
Q 67.65 37.9 67.5 37.8 67.35 37.65 67.25 37.6 67.35 37.5 67.5 37.6 67.6 37.65 67.75 37.8
M 62.35 38.5
Q 62.25 38.6 62.15 38.5 62 38.35 62.1 38.25 62.25 38.2 62.25 38.3 62.3 38.45 62.35 38.5
M 63.3 41.45
Q 63.6 41.05 63.5 41.65 63.05 41.85 63.3 41.45
M 64.1 42.25
Q 63.85 42.45 63.8 42.1 63.7 41.75 64 41.65 64.05 41.75 64.05 41.95 64.05 42.15 64.1 42.25
M 64.65 44.2
Q 64.15 44.15 64.65 44.1 65.2 44.1 64.65 44.2
M 61.4 44.7
Q 60.85 44.6 61.4 44.6 61.9 44.6 61.4 44.7
M 61.15 48.25
Q 61.2 48.45 61.25 48.5 61.15 48.6 61.05 48.45 60.9 48.35 61 48.25 61.15 48.15 61.15 48.25
M 61.85 47.6
Q 61.65 47.35 61.8 47.25 62.05 47.15 62.2 47 62.25 47.1 62.1 47.3 62.05 47.4 61.85 47.6
M 64.05 47.6
Q 64.45 47.3 64.3 47.75 63.7 47.9 64.05 47.6
M 63.65 47.2
Q 63.75 47.25 63.9 47.4 63.8 47.5 63.65 47.4 63.5 47.25 63.4 47.2 63.5 47.1 63.65 47.2
M 67.9 46.05
Q 68.15 45.65 68.05 46.25 67.6 46.45 67.9 46.05
M 39.6 36.3
Q 39.5 36.3 39.3 36.4 39.25 36.25 39.4 36.15 39.6 36.1 39.65 36.05 39.75 36.2 39.6 36.3
M 30.55 36.15
Q 30.6 36.6 30.65 36.65 30.45 36.8 30.4 36.5 30.3 36.05 30.25 36 30.55 35.85 30.55 36.15
M 30.55 37
L 30.65 37
Q 30.4 37.15 30.3 37.25 29.85 37.65 30.15 37.15 30.4 36.7 30.55 37
M 29.55 47.85
Q 29.8 47.5 29.7 48.05 29.25 48.25 29.55 47.85
M 30.1 41.25
Q 30 41.4 29.8 41.55 29.95 41.85 29.75 41.65 29.6 41.3 29.95 41.2 30.15 41.1 30.1 41.25
M 39.8 39
Q 39.85 39.05 40.05 39.2 39.95 39.3 39.8 39.2 39.6 39.05 39.55 39 39.65 38.9 39.8 39
M 38.55 38.55
Q 38.7 38.9 38.4 38.8 38 38.6 37.95 38.7 37.85 38.55 38 38.5 38.2 38.4 38.3 38.3 38.35 38.5 38.4 38.55 38.45 38.65 38.55 38.55
M 36.85 38.75
Q 37.4 38.75 36.85 38.85 36.3 38.8 36.85 38.75
M 38.35 41.15
Q 38.65 40.75 38.55 41.35 38.1 41.55 38.35 41.15
M 34.3 40.05
Q 33.75 40.2 34.1 39.9 34.45 39.6 34.3 40.05
M 32.25 37.65
Q 31.65 37.8 32.05 37.55 32.4 37.25 32.25 37.65
M 31.85 43.1
Q 32.35 42.95 32.55 43.05 32.85 43.25 33.1 43.75 33.2 44.05 33.45 44.65 32.85 44.85 32.55 44.95 32 45.1 31.8 45 31.55 44.9 31.35 44.35 31.15 43.75 31 43.45 31.3 43.4 31.85 43.1
M 35 41
Q 34.9 41.05 34.7 41.15 34.65 40.95 34.8 40.9 35 40.8 35.05 40.75 35.15 40.95 35 41
M 33.85 41.3
Q 33.75 41.35 33.6 41.25 33.45 41.1 33.35 41.05 33.45 41 33.6 41.1 33.7 41.15 33.85 41.3
M 31.2 48.25
Q 31.05 48.35 30.95 48.25 30.85 48.15 30.95 48.05 31.05 47.95 31.1 48.05 31.15 48.2 31.2 48.25
M 36.35 44.9
Q 36 44.85 35.95 44.9 35.8 44.65 36.05 44.7 36.4 44.75 36.45 44.65 36.6 44.95 36.35 44.9
M 35.35 38
Q 35.75 37.75 35.6 38.15 35 38.3 35.35 38
M 34.15 51.85
Q 34.7 51.85 34.15 51.95 33.6 51.9 34.15 51.85
M 39 64.05
Q 39.15 63.95 39.15 64.05 39.2 64.25 39.25 64.3 39.15 64.4 39.05 64.25 38.9 64.15 39 64.05
M 39.5 65.65
Q 39.8 65.25 39.7 65.85 39.25 66.05 39.5 65.65
M 68.5 52
Q 67.95 52.15 68.3 51.85 68.65 51.55 68.5 52
M 64.45 51.65
Q 64.35 51.05 64.7 51.35 65.05 51.6 64.45 51.65
M 63.8 51.5
Q 64.3 51.45 63.8 51.6 63.3 51.5 63.8 51.5
M 63.2 51.95
Q 62.8 52.15 63.05 51.75 63.35 51.35 63.2 51.95
M 62.4 50.3
Q 62.95 50.15 62.8 50.6 62.65 50.95 62.4 50.3
M 62.9 55.2
Q 62.6 55.3 62.5 55.4 62.1 55.8 62.4 55.3 62.6 54.9 62.75 55.15 63 55.1 62.9 55.2
M 64.05 53.2
Q 64.55 53.2 64.05 53.3 63.5 53.25 64.05 53.2
M 63.25 54.5
Q 63.65 54.2 63.5 54.65 62.85 54.8 63.25 54.5
M 67.1 60.3
Q 67.15 60.35 67.35 60.5 67.25 60.6 67.1 60.5 66.95 60.35 66.85 60.25 66.95 60.2 67.1 60.3
M 66.95 62.6
L 66.75 62.9 66.45 62.65 66.7 62.4 66.95 62.6
M 54.6 50.05
Q 54.15 50.3 54.4 49.85 54.7 49.5 54.6 50.05
M 53.3 51.75
Q 53.85 51.75 53.3 51.85 52.8 51.8 53.3 51.75
M 51.35 52.15
Q 51.75 52 51.6 52.4 51.5 52.6 51.4 52.9 51.35 53.35 51.3 52.85 51.3 52.3 51.35 52.15
M 51.1 52.05
Q 50.55 52 51.1 51.95 51.6 51.95 51.1 52.05
M 52.55 51.6
Q 52.65 51.95 52.8 52 52.6 52.2 52.45 51.9 52.4 51.9 52.3 51.5 52.5 51.35 52.55 51.6
M 52.25 51.3
Q 52.15 51.35 52.05 51.25 51.95 51.15 52 51.05 52.15 50.95 52.15 51.05 52.2 51.25 52.25 51.3
M 53.75 53.1
Q 54.25 53.1 53.75 53.2 53.2 53.15 53.75 53.1
M 52.25 56.05
Q 51.65 56.2 52 55.95 52.4 55.6 52.25 56.05
M 54.35 59.95
Q 54.5 60.25 54.1 60.15
L 54.05 60
Q 54.05 59.9 53.95 59.8 54.25 59.65 54.35 59.95
M 54.35 60.5
Q 54.2 60.65 54.1 60.5 54 60.35 54.1 60.25 54.25 60.2 54.25 60.3 54.3 60.45 54.35 60.5
M 58.6 56.1
Q 58.5 56.2 58.4 56.05 58.25 55.95 58.35 55.85 58.5 55.75 58.5 55.85 58.55 56.05 58.6 56.1
M 59.05 57.65
Q 58.6 57.85 58.85 57.45 59.15 57.05 59.05 57.65
M 57.6 58.7
Q 57.4 58.65 57.15 58.75 56.8 58.9 56.65 58.95 56.6 58.7 57 58.55 57.45 58.4 57.45 58.1 57.5 58.15 57.55 58.4 57.55 58.55 57.6 58.7
M 57.85 60.75
Q 57.9 60.8 57.8 61.15 57.25 61.25 57.65 60.85 57.75 60.7 57.85 60.75
M 49.15 55.55
Q 48.9 55.7 48.95 55.45 49 55.15 48.9 55.1 49.2 54.9 49.15 55.15 49.1 55.55 49.15 55.55
M 48.1 49.85
Q 47.95 50 47.95 49.95 47.5 49.65 48.2 49.7 49.2 49.75 48.1 49.85
M 45.3 52.4
Q 44.8 52.35 45.3 52.3 45.85 52.3 45.3 52.4
M 44.15 49.85
Q 43.7 50.05 43.95 49.65 44.25 49.25 44.15 49.85
M 44.75 50.45
Q 44.5 50.65 44.45 50.3 44.35 49.95 44.65 49.85 44.7 49.95 44.7 50.15 44.7 50.35 44.75 50.45
M 41.65 50.35
Q 41.3 50.25 41.1 50.5 41.05 50.4 41.1 50.25 41.15 50.05 41.1 50 41.3 50.05 41.65 50.1 41.95 50.15 42.2 50.3 42.05 50.5 41.65 50.35
M 42.05 52.8
Q 42.55 52.8 42.05 52.9 41.5 52.8 42.05 52.8
M 44.7 61.4
Q 45.2 61.4 44.7 61.5 44.15 61.45 44.7 61.4
M 48.95 60.05
Q 49.3 59.75 49.15 60.2 48.6 60.35 48.95 60.05
M 43.55 63.4
Q 43.25 63.5 43.15 63.6 42.75 64 43.05 63.5 43.25 63.1 43.4 63.35 43.65 63.3 43.55 63.4
M 43.9 62.7
Q 44.3 62.4 44.15 62.85 43.5 63 43.9 62.7
M 42.85 67.5
Q 42.9 67.65 42.95 67.7 42.85 67.8 42.7 67.7 42.6 67.55 42.7 67.45 42.85 67.35 42.85 67.5
M 58.25 64.1
Q 57.95 64.4 57.9 63.8 58.5 63.75 58.25 64.1 Z"/>
</g>
</defs>

<g transform="matrix( 1, 0, 0, 1, 0,0) ">
<use xlink:href="#Layer1_0_FILL"/>
</g>
</svg>
