
<svg xmlns="http://www.w3.org/2000/svg" version="1.1" xmlns:xlink="http://www.w3.org/1999/xlink" preserveAspectRatio="none" x="0px" y="0px" width="100px" height="100px" viewBox="0 0 100 100">
<defs>
<g id="Layer1_0_FILL">
<path fill="#000000" stroke="none" d="
M 36.8 77.7
Q 36.9 77.5 36.65 77.4
L 36.3 77.3
Q 36 77.2 35.85 77.5 35.7 77.75 35.6 77.8
L 34.85 78.25
Q 34.75 78.25 34.65 78.45 34.6 78.75 34.4 78.8
L 34.4 78.9 34.3 79.2
Q 34.75 79.5 35.05 79.25
L 35.2 79.15 35.4 79.1 35.9 78.8 36.1 78.75
Q 36.2 78.7 36.3 78.5
L 36.4 78.35
Q 36.7 78.25 36.8 77.7
M 24.4 29.05
Q 24.35 29.25 24.2 29.3 24.1 29.5 23.95 29.5 23.75 30.05 23.9 30.45
L 23.9 30.7 24 30.9
Q 24.3 31 24.85 30.95
L 24.95 30.9
Q 25 30.85 24.9 30.75 24.65 30.65 24.7 30.55 24.8 30.15 25 30.1 25.05 29.9 24.9 29.65 24.6 29.3 25 29 24.8 28.6 24.5 28.7
L 24.4 29.05
M 64.4 26.7
Q 64.35 26.5 64.1 26.4
L 63.9 26.45
Q 63.7 26.55 63.75 26.75
L 64.15 27.55 64.3 27.6
Q 64.5 27.6 64.6 27.45 64.7 27.3 64.6 27.1
L 64.4 26.7
M 67.55 27
Q 67.05 26.65 66.9 26.4
L 66.85 26.35 66.7 26.4 66.45 26.7
Q 66.3 26.85 66.45 27.05
L 66.65 27.35
Q 66.95 27.7 67.35 27.5 67.7 27.35 67.55 27
M 68.9 26.3
Q 68.65 26.3 68.5 26.45
L 68.45 26.6
Q 68.45 26.9 68.85 26.9 69.2 26.9 69.25 26.7 69.3 26.55 69.15 26.4 69.05 26.25 68.9 26.3
M 73.65 26.05
Q 73.75 25.8 73.65 25.5 73.55 25.2 73.3 25.1
L 72.65 24.75
Q 72.1 24.55 72.05 24.9 71.9 25.4 71.55 25.65 71.15 25.9 71.3 26.35
L 71.4 26.75
Q 71.5 27.05 71.85 27.05
L 72.2 27
Q 73.1 27 73.35 27.35 73.35 27.4 73.55 27.4
L 73.65 27.4 73.65 27.25
Q 73.35 27.1 73.4 26.65
L 73.65 26.05
M 41.85 20
Q 41.8 19.75 41.9 19.45 41.9 19.1 41.55 19.25 41.3 19.4 41.05 19.3 40.95 19.25 40.7 19.35 40.1044921875 19.35 39.8 19.55 39.79765625 19.7259765625 39.75 20 39.5619140625 20.0884765625 39.45 20.1 39.47734375 20.2033203125 39.55 20.3 39.7 20.5 39.8 20.55
L 40 20.5
Q 40.2 20.5 40.7 20.35 40.6 20.75 40.75 21.5 40.7 21.65 40.95 21.65 41.6 21.65 42.35 20.9 42.5 20.8 42.3 20.6 42.15 20.45 42.1 20.45 41.85 20.35 41.85 20
M 77.8 23.1
L 77.6 22.9
Q 77.1 22.8 76.9 22.55
L 76.8 22.4 76.7 22.35 76.55 22.3
Q 76.4 22.45 76.45 22.6 76.5 22.7 76.65 22.9
L 76.75 23.05
Q 76.85 23.15 76.85 23.35
L 76.95 23.55 77.3 23.8
Q 77.5 24 77.75 23.9 78 23.65 78 23.55 78 23.35 77.9 23.25
L 77.8 23.1
M 74.4 24
L 74.15 24.4
Q 74.05 24.7 74.4 25 74.95 24.85 75 24.9 75.5 25.1 75.6 24.85 75.65 24.5 75.7 24.35 76.05 23.7 75.25 23.7 75.15 23.95 74.85 23.95 74.45 23.95 74.4 24
M 65.3 21.95
Q 65.2 22.05 65.05 21.9 64.8 21.75 64.45 22 63.85 22.5 63.6 22.5 63.35 22.6 63.6 22.85 63.65 22.95 64 23.05 64.4 23.15 64.55 23.35 64.55 23.4 64.65 23.65 64.7 23.8 64.65 23.95
L 64.75 24.1
Q 64.75 24.15 64.9 24.25 65 24.35 64.95 24.45 64.9 24.65 65.1 24.95 65.25 25.1 65.45 25.05 65.55 25 65.55 24.85 65.45 24.3 66 23.9
L 66.1 23.55
Q 66.45 23.25 66.45 23.15 66.5 22.8 66.8 22.65 66.9 22.6 66.9 22.5 66.7 21.95 66.35 21.9 66 21.85 65.85 21.85 65.5 21.8 65.3 21.95
M 62.65 19.1
Q 62.6 19 62.3 18.9 62.05 18.8 61.9 18.75 61.7 18.65 61.5 18.8 61.35 18.9 61.1 18.75 60.8 18.65 60.65 18.7 60.55 18.75 59.8 18.75 59.35 18.5 59.05 18.85
L 59 18.95
Q 58.55 19.3 58.1 19.05
L 57.85 18.8
Q 57.7 18.65 57.55 18.8
L 57.4 18.95
Q 57.15 19.15 56.9 18.9 56.65 18.7 56.55 18.7 56.5 18.7 56.3 18.95
L 56.1 19.15
Q 55.9 19.55 56.1 20.1 56.15 20.45 56.75 20.55 56.7 21.35 55.8 21.35
L 55.75 21.35 55.55 21.4
Q 55.35 21.6 55.3 21.3
L 55.2 21.2 54.95 21
Q 54.8 21 54.7 20.8
L 54.35 20.55 54.25 20.4 54.25 20.35
Q 54.1 20.2 54.15 19.9 54.2 19.5 54.2 19.45
L 54.1 19.25
Q 54 19.05 54.2 19 54.35 18.95 54.25 18.75 54.2 18.45 54.8 18.2
L 55.8 17.75
Q 56.15 17.6 55.85 17.3
L 55.75 17.15
Q 55.6 17 55.35 17.05
L 55.2 17.1
Q 55.05 17.25 55.05 17.1
L 54.95 16.9
Q 54.5 16.6 54.35 16.85 54.2 17.25 54.05 17.35
L 53.9 17.45 53.7 17.5 53.45 17.8
Q 53.15 17.75 53.1 17.6
L 53 17.55 53.05 17.5 53.15 17.1
Q 53.2 16.85 53.35 16.75
L 53.5 16.65
Q 53.36640625 16.6453125 53.25 16.5 53.05 16.3 53.2 16.1
L 53.25 16.05
Q 53.1298828125 16.1 53.05 16.1 52.95 16.2 52.9 16.4 52.85 16.65 52.75 16.7
L 52.55 16.8
Q 52.3 16.95 52.4 17.3
L 52.5 17.35 52.5 17.45 52.6 17.75 52.7 17.9 52.25 17.9 52.1 17.85 51.95 17.85 52 17.7 51.6 17.6 51.45 18.1
Q 51.35 18.2 51.3 18.25 51.2 18.3 51.35 18.45 51.6 18.7 51.6 18.75 51.6 18.8 51.35 18.95 51.1 19.1 50.95 19.1 50.45 19.25 50.4 19.65 50.35 19.8 50.2 20.2 50.2 20.3 49.8 20.65 49.35 20.95 49.2 20.95
L 48.75 20.85
Q 48.2 20.85 48.1 21.2 48.1 21.35 47.7 21.5 47.1 21.7 47 22
L 46.95 22.15
Q 46.85 22.45 46.5 22.4
L 46.3 22.35 46.35 22.2 46.25 22.05 46.15 21.85
Q 45.9 21.8 45.6 21.55 45.25 21.25 45.15 21.2
L 45 21.15 44.9 20.95 44.8 20.8
Q 44.3 20.5 44.3 20.95 44.4 21.1 44.45 21.45 44.5 21.8 44.7 21.95
L 44.7 22 44.6 22 44.55 22.25
Q 44.35 22.6 44.3 22.6 44.2 22.65 43.85 22.5 43.6 22.35 43.4 22.55 42.95 22.9 42.85 23.1 42.65 23.35 42.6 23.5 42.45 23.75 42.55 23.95
L 42.05 24.25
Q 41.8 24.4 41.8 24.05
L 41.85 23.8
Q 42 23.15 41.25 22.65 40.85 22.95 40.55 22.85 40.35 22.8 40.25 23.05 39.95 23.35 39.65 23.35 39.3 23.4 39 23.65 38.45 23.55 38 23.85 37.684375 24.075390625 37.35 23.95 37.5025390625 24.080859375 37.7 24.25 37.5 24.4 37.2 24.2 37.0609375 24.1005859375 36.95 24 36.7412109375 23.9875 36.5 23.8
L 35.75 23.5
Q 35.75 23.3 35.55 23.2
L 35.55 23.15
Q 35.6 23.1 35.5 22.9
L 35.4 22.7 35.25 22.55
Q 35.15 22.3 35.7 22.15 35.85 22.05 36.2 22 36.3 22 36.45 21.95 36.6 21.95 36.6 21.75 36.5 21.5 36.25 21.5 36 21.4 35.6 21.4 35.25 21.5 35.1 21.55 34.8 21.85 34.75 21.85
L 34.3 21.85 34.15 21.7 34.15 21.8 33.95 21.9 33.8 22 33.5 21.9 33.45 22.05 33.2 21.95
Q 32.95 22.1 32.65 22.05 32.45 22.05 32.2 22.2 31.7 21.95 31.1 22.45
L 31.05 22.55
Q 30.4 23.1 30.5 24.05
L 30.6 24.2
Q 30.85 24.65 30.3 25.2 30.25 25.25 30.1 25.65
L 30.15 25.7 30.05 26.05
Q 29.9 26.35 29.55 26.2
L 29.2 25.95
Q 28.7 26.15 28.5 26.3
L 28.35 26.25 28.15 26.35 27.85 26.4
Q 27.7 26.45 27.8 26.65 27.85 26.7 27.8 26.85
L 27.65 26.85 27.35 26.65
Q 27.1 26.55 27.2 26.4 27.35 26.2 27.35 26.1
L 27.25 25.85
Q 27.2 25.75 27.3 25.55 27.35 25.35 27.3 25.3
L 27.3 25.15
Q 27.15 24.95 26.9 25.05 26.7 25.25 26.75 25.55
L 26.75 25.6 26.7 25.65 26.55 25.75 26.5 25.9
Q 26.35 26.25 25.95 26.4 25.7 26.55 25.6 26.95 25.6 27.35 25.5 27.45
L 25.55 27.55 25.7 27.6
Q 26 27.55 26.15 27.2 26.35 26.85 26.65 27.15 26.9080078125 27.4080078125 27.25 27.55 27.65 27.4 27.8 27.3 28 27.65 27.7 27.8
L 27.65 27.8
Q 27.753515625 28.1 27.85 28.1
L 28.45 27.95 28.65 27.8
Q 28.85 27.6 29.1 27.65 29.4 27.7 29.45 28 29.55 28.5 29.45 28.75
L 29.4 28.9
Q 29.55 28.95 29.45 29.2 29.55 29.25 29.55 29.45
L 29.65 29.65 29.75 29.8 30 29.8
Q 30.15 29.65 30.5 29.75 30.65 30 30.55 30.6 30.55 30.7 30.5 30.95
L 30.6 31.4
Q 30.65 31.5 30.5 31.65 30.4 31.75 30.45 31.85
L 30.45 31.95 30.3 32.55
Q 30.15 32.65 30.15 32.75 30.1 33.05 29.8 32.85 29.15 32.4 28.7 32.45 28.35 32.55 28.35 32.15 28.25 31.75 28.55 31.55
L 29.2 30.95
Q 29.4 30.75 29.15 30.5 28.8 30.1 28.2 30.1 27.9 30.1 27.8 30 27.6 29.75 27.4 29.7 27.25 29.65 27.15 29.8 27.05 30 27 30
L 26.8 30.05
Q 26.5 30.1 26.6 30.4 26.6 30.9 26.45 31.2 26.25 30.8 25.7 30.7 25.6 31.2 25.45 31.25 25.25 31.4 25.25 31.8 25.25 32.25 25.6 32.75 25.8 33.1 26.1 33.05 26.35 33 26.5 33.15 26.6 33.2 26.45 33.45
L 26.5 33.7 26.7 34.2
Q 26.75 34.4 26.55 34.55 26.35 34.65 26.15 34.5 25.9 34.15 25.65 34.05
L 25.7 33.95
Q 25.5 33.65 24.9 33.65 24.7 33.7 24.6 34.05
L 24.55 34
Q 24.4 33.9 24.35 33.65 24.25 33.35 24.15 33.25
L 24.3 32.65
Q 24.05 32.25 24.25 31.55 24.3 31.4 24.05 31.3
L 23.85 31.4 23.8 31.65
Q 23.9 31.85 23.7 31.9
L 23.65 32.15
Q 23.55 32.2 23.5 32.4 23.45 32.55 23.35 32.6
L 23.2 32.7
Q 22.9 32.8 22.95 33 22.95 33.25 23.2 33.1 23.8 33.05 23.6 33.65 23.45 34.05 23.5 34.15
L 23.5 34.25 23.65 34.3 23.6 34.45 23.75 34.45 23.5 35.25
Q 23.4 35.4 23.05 35.45 22.7 35.5 22.85 35.85
L 23.15 36.5 23.1 36.6
Q 23 37.05 22.5 37 22.3 36.95 22.1 37.15 21.95 37.4 21.95 37.65
L 21.9 38.15
Q 21.85 38.5 22.2 38.65 22.5 38.75 22.4 39.1 21.95 39.3 21.7 39.4 21.6 39.45 21.35 39.95 21.2 40.1 21.45 40.35
L 21.3 41.1
Q 21.4 41.7 20.8 42.05 20.75 42 20.65 42.05
L 20.6 42.3
Q 20.5 42.35 20.45 42.45 20.4 42.6 20.35 42.6 20.35 42.7 20.4 42.85 20.4 42.95 20.2 43 20.05 43.15 19.9 43.6
L 19.8 43.75
Q 19.75 43.8 19.65 43.95
L 19.65 44 19.55 44.15 19.5 44.2 19.55 44.25 19.4 44.25 19.3 44.65
Q 19.2 44.7 19.15 44.95 19.1 45.15 19 45.2 18.85 45.35 18.9 45.45
L 18.85 45.6
Q 18.85 45.8 19 46.2 19.1 46.6 18.8 46.8
L 18.8 46.95
Q 19 47.45 19.05 47.45 19.2 47.7 19.6 47.6 19.7 47.6 19.9 47.8 20.1 48.15 20.5 47.85
L 20.65 47.75
Q 20.8 47.75 20.95 47.95 21.1 48.15 21.3 48.05 21.55 48.15 21.7 47.95
L 21.9 47.6
Q 22.05 47.45 22.2 47.6
L 22.45 47.85 22.8 48.65
Q 22.6 49.1 22.3 49.3
L 22.25 49.45
Q 22.05 49.6 22 50.15
L 21.9 50.15 21.9 50.25 21.85 50.3 21.85 50.4
Q 21.65 50.3 21.6 50.2
L 21.4 50
Q 21.2 49.8 20.95 49.95 20.85 50 20.6 50.45
L 20.5 50.4 20.3 50.5 20.15 50.9
Q 20 51.1 19.75 50.9
L 19.7 50.9
Q 19.55 50.9 19.35 51.1 19.2 51.3 19 51.25
L 19 51.45 19.05 51.75
Q 19.15 51.85 19.05 52.2 19.2 52.35 19.15 52.5 19.1 52.55 18.95 52.7 19.1 52.85 19.25 52.8 19.4 52.75 19.95 52.85 20.15 52.65 20.2 52.95
L 20.3 53.1 20.55 53.3
Q 20.6 53.45 20.95 53.55
L 20.9 53.65
Q 21.05 53.9 20.85 53.9
L 20.65 54
Q 20.2 54.45 20.4 54.9
L 20.4 55.45
Q 20.55 55.5 20.45 55.7 20.65 55.85 20.75 56.2 21.3 57 21.3 57.05 21.85 57.2 22.1 56.8
L 22.6 56.05
Q 23.4 56.25 23.4 57
L 23.25 57.05
Q 22.9 57.15 22.85 57.3 22.85 57.45 22.75 57.65 22.7041015625 57.8337890625 22.75 58
L 22.75 58
Q 22.65 58.2 22.75 58.3 22.75 58.45 22.95 58.6
L 23.05 58.8 23.15 58.95
Q 23.1 59.25 22.75 59.4 22.3 59.6 22.25 59.9 22.15 60.1 22.05 60.1
L 21.85 60.35 21.8 60.35
Q 21.75 60.4 21.8 60.45 21.9 60.7 21.7 60.9 21.4 61.2 21.5 61.45
L 21.45 61.6
Q 21.4 61.9 21.2 61.95 21 62.15 21.1 62.35 21.15 62.4 21.45 62.7
L 21.6 62.7
Q 21.95 63.05 21.6 63.25 20.6 64.35 22.1 64.7
L 22.25 64.7
Q 22.5 64.85 22.4 65.15
L 22.6 65.45
Q 22.85 66.1 23.25 66.35
L 23.35 66.5 23.55 66.9
Q 23.75 67.1 24.15 67.1 24.4 67.05 24.5 66.8 24.65 66.5 25 66.55
L 25.1 66.7
Q 25.1 66.95 25.2 67 25.2 67.2 25.4 67.2
L 25.5 67.25 25.55 67.25 25.75 67.2 25.75 67.15
Q 25.95 67.25 25.85 67.4
L 25.9 67.65 25.85 67.9
Q 25.5 67.85 25.3 68.15 25.15 68.3 24.9 68.55
L 24.7 68.65 24.45 68.55
Q 24.1 68.25 23.9 68.45 23.8 68.55 23.6 68.85
L 23.5 69.1
Q 23.6 69.2 23.6 69.4
L 23.7 69.6 23.8 69.75 23.85 69.75 23.95 69.8 24.15 70.1 24.25 70.3 24.45 70.6 24.55 70.8 24.5 70.9 24.6 71.05 24.7 71.25 24.8 71.25 24.85 71.3
Q 25.1 71.15 25.25 71.4 25.35 71.5 25.6 71.35
L 25.75 71.25
Q 25.95 70.75 26.55 71.1
L 26.75 71
Q 26.9 70.95 26.8 70.75 26.5 70.6 26.5 70.25 26.45 70 26.4 69.9 26.35 69.7 26.05 69.7 25.8 69.75 25.75 69.6 25.75 69.45 25.7 69.35
L 25.75 69.2
Q 25.85 69.05 26.55 69.05
L 26.65 69.2
Q 26.75 69.25 26.95 69.3 27.15 69.35 27.2 69.5 27.8 70 28.05 70.05
L 28.3 70.25
Q 28.7 70.65 29.25 70.45 29.35 70.35 29.65 70.35
L 29.8 69.85
Q 30.5 69.95 30.65 69.9 31.15 69.7 31.2 70.2
L 31.25 70.5
Q 31.3 70.7 31.5 70.7
L 31.8 70.7 32.05 69.8 33.15 70.15
Q 33.95 70.35 34.7 71 34.75 71.3 34.45 71.45
L 34.45 71.4
Q 34.1 71.3 34 71.35
L 33.85 71.4 33.4 71.3 33.25 71.4 32.95 71.55 32.9 71.8
Q 33.05 71.95 32.8 72
L 32.7 72.2
Q 32.3 73.05 32.15 73.2 31.75 73.7 31.05 73.75 30.85 73.95 30.9 74.25 31 74.4 30.95 74.65 31.05 74.85 31.2 74.75 31.65 74.45 32.2 75 32.25 75.3 32.7 75.45 33 76 33.55 75.55 33.95 75.15 34.4 75.5 34.65 75.65 34.9 75.4
L 34.95 75.35
Q 35.55 74.75 36.15 74.9
L 36.3 74.8 36.65 74.1
Q 36.75 73.95 37 73.95 37.1 74.15 37.3 74.15 37.6 74.15 37.75 73.9 38 73.65 37.7 73.5 37.5 73.35 37.55 73.15
L 38.1 72.8
Q 38.2 72.75 38.55 72.4 38.75 72.2 38.85 72.4 38.95 72.9 38.85 73.05
L 38.75 73.15
Q 38.7 73.35 38.9 73.5 39.05 73.65 39.2 73.55
L 39.55 73.35
Q 39.8 73.25 39.9 73.3
L 39.9 73.85
Q 39.8 74.1 40.05 74.25 40.25 74.45 40.45 74.95 40.55 75.15 40.55 75.6 40.95 76.25 40.15 76.6
L 39.95 76.7 39.85 76.8
Q 39.9 76.95 39.8 77.25 39.75 77.5 39.85 77.65 39.9 77.75 40.3 77.9 40.55 78.05 40.55 78.3 40.55 78.55 40.35 78.6 39.9 78.8 39.65 78.85 39.25 79 38.85 78.85 38.65 78.8 38.65 79.05
L 38.6 79.3 38.7 79.5 38.85 79.65
Q 38.95 79.95 39.2 79.9
L 39.4 79.8 39.5 79.85
Q 39.7 79.8 39.8 79.95 39.85 80.1 39.75 80.2
L 39.7 80.2
Q 39.65 80.25 39.7 80.3
L 39.65 80.45 39.75 80.6 40 80.8
Q 40.1 80.95 40.3 80.9
L 40.4 80.95
Q 40.5 80.9 40.55 80.95
L 40.65 81.15 40.6 81.4
Q 40.7 81.6 41.1 81.65
L 41.2 81.85
Q 41.3 81.95 41.5 81.9
L 41.65 81.85 41.85 81.75 42 81.65 42.2 81.55
Q 42.25 81.5 42.2 81.45
L 42 81.25 42.05 81
Q 41.9 80.75 42.3 80.65
L 42.45 80.55 42.65 80.5
Q 42.65 80.2 42.45 80.2 42.05 80.25 41.8 79.9
L 41.65 79.65
Q 41.65 79.55 41.5 79.45 41.35 79.35 41.35 79.3
L 41.6 79.1
Q 42.15 78.65 42 78.15
L 42.1 77.9
Q 42.2 77.8 42.3 77.9 42.35 78.1 42.55 78.25
L 42.9 78.5
Q 42.9 78.85 43.1 78.9 43.4 78.9 43.45 78.65
L 43.55 78.5
Q 43.7 78.25 44 78.3
L 44.35 78.4
Q 44.9 78.45 44.85 77.9
L 44.8 77.7
Q 44.8 77.4 45.25 77.4
L 45.45 77.45
Q 45.6 77.45 45.7 77.35 45.75 77.2 45.7 77.05 45.3 76.55 45.2 76.5 44.95 76.4 45.15 76.2 45.35 76 45.5 76.1 45.75 76.35 45.95 76.25 46.15 76.5 46.4 76.4
L 46.65 76.4
Q 47.6 76.25 47.45 75.4
L 47.4 75.05
Q 47.3 74.7 47.4 74.5 47.5 74.75 47.7 75.3 47.9 75.55 47.7 75.9
L 47.45 76.35
Q 47.45 76.55 47.6 76.55
L 48 76.45
Q 48 76.6 47.75 76.7
L 47.3 76.9
Q 47.2 76.5 46.95 76.6 46.5 76.95 45.9 76.5
L 45.75 76.5 45.7 76.7
Q 45.75 76.8 45.9 77 46 77.2 45.95 77.35 46.25 77.2 46.6 77.2 46.9 77.2 46.8 77.45
L 46.95 77.5 47.05 77.7
Q 47 78 47.45 78.25 47.8 78.4 48.15 78.2 48.45 78.1 48.6 78.35 48.8 78.6 49 78.5
L 49.1 78.45
Q 49.45 78.45 49.5 78.75 49.6 79.1 49.35 79.2 49.15 79.3 49.1 79.5 49.9 79.7 50.65 80.25
L 50.9 80
Q 51.2 79.75 51.55 79.95
L 51.75 80.1 51.7 80.35
Q 51.8 80.6 51.6 80.75
L 51.5 81.1 51.9 81.25 51.85 81.35
Q 51.9 81.35 52.1 81.7 52.2 81.9 52.6 81.85 52.3 81.75 52.2 81.3 52.35 81.25 52.5 81.5 52.65 81.55 52.7 81.45
L 52.8 81.25
Q 52.75 81.05 52.9 80.95
L 53.05 80.9
Q 53.2 80.75 53.25 80.7 53.4 80.6 53.5 80.9
L 53.6 81.05
Q 53.85 81.15 53.8 81.35
L 53.85 81.8
Q 53.85 81.85 54.1 81.95
L 54.1 82 54.35 82.1
Q 54.55 81.85 54.75 82.05
L 54.85 82.1 54.9 82.15 54.9 82.25
Q 55.3 82.55 55.5 82.4 55.95 81.9 56.1 82.55 56.15 82.95 56.45 82.65 56.55 82.4 56.7 82.35
L 56.75 82.1 56.65 81.95
Q 56.55 81.8 56.65 81.5 56.9 80.85 56.1 80.7
L 56 80.65 55.8 80.75
Q 55.5 80.7 55.35 80.45 55.15 80.25 55 80.25 54.8 80.3 54.7 80.2 54.6 80.05 54.5 79.95 54.65 79.55 54.6 79.45 54.55 79.25 54.7 79 54.9 78.75 54.8 78.2 54.7 77.8 54.9 77.55
L 55 77.25 55.6 76.8
Q 56 76.6 56.1 75.95 56.2 75.55 55.7 75.65 55.35 75.9 55.15 75.85 55.1 75.7 55.15 75.55 55.25 75.35 55.25 75.25
L 55.65 75
Q 55.75 74.8 56.1 74.8 56.5 74.85 56.3 74.45 56.2 74.15 56.45 74
L 56.6 73.85
Q 56.75 73.75 56.85 73.85 57.05 74 57.45 74.25 57.65 74.55 57.35 74.6 56.9 74.65 56.85 75.05 56.6 75.45 57.05 76.2 57.2 76.35 57.35 76.3 57.8 76.1 57.75 75.85 57.65 75.55 58 75.65
L 58.3 75.75 58.6 76.4
Q 58.75 76.55 58.8 76.45 59.35 75.85 59.55 75.45 59.75 75 59.55 74.75 59.4 74.5 59.5 74.15
L 59.55 74.05
Q 59.6 74 60 73.5 60.15 73.15 60.45 72.95
L 60.6 73
Q 61.15 72.5 61.55 73.15 61.65 73.35 61.85 73.35 62.05 73.55 62.05 73.7
L 62.2 73.7
Q 62.55 73.2 62.5 72.8
L 62.6 72.75 62.65 72.85 63.05 72.85 63.2 72.8
Q 63.85 72.8 64.2 73.05 64.75 73.4 65 73.3
L 65.3 73.4
Q 65.75 73.4 66.05 72.8
L 66.1 72.65 66.25 72.6 66.3 72.55
Q 66.35 72.5 66.3 72.45
L 66.2 72.3 66.1 72.1 66.1 72.05 66.15 72 66.3 71.9 66.55 71.15
Q 66.4 71 66.6 70.9
L 66.8 70.8
Q 66.9 70.7 66.8 70.15
L 66.7 70 66.55 69.55 66.45 69.35 66.35 69.2
Q 66.4 69 66.7 69.05
L 66.85 68.95
Q 67 68.85 67.05 68.8 67.15 68.7 67.35 68.8 67.65 69.05 68.2 69.05
L 68.35 68.95 68.4 68.85
Q 68.5 68.25 68.95 68.05
L 69 67.8 69.2 67.7 69.35 67.6
Q 69.55 67.6 69.45 67.45 69.2 66.75 70 66.9 70.55 67 70.4 66.55
L 70.3 66.4
Q 70.2 66.2 70.4 66.15
L 70.55 66.05 70.6 65.95
Q 70.75 65.8 70.85 66 71 66.15 71.15 66.1 71.45 65.85 71.8 66.2 72.05 66.4 72.25 66.2 72.4 66 72.2 65.75 72 65.45 71.6 65.3
L 70.95 65
Q 70.75 64.8 70.8 64.7 70.9 64.55 71.1 64.65 71.45 64.65 71.55 64.8 71.8 65.1 72.6 65.1 72.7 65.1 72.9 65.1 73.05 65.1 73.15 65.15 73.4 65.35 73.5 65.25 73.55 65.2 73.65 64.95 73.75 64.6 73.85 64.55
L 73.95 64.2
Q 73.9 64 74 63.95
L 74.2 63.85 74.35 63.9
Q 74.45 64.05 74.8 64.3
L 74.9 64.45
Q 75.15 64.6 75.5 64.5 75.55 64.4 75.85 64.2 76.05 64.05 76 63.8 75.9 63.5 76.15 63.35 76.3 63.3 76.65 63.2
L 76.8 63.1
Q 76.9 63.05 77.25 62.7 77.5 62.45 77.9 62.55 78.2 62.65 78.1 62.1 77.85 61.2 78.05 60.85
L 78.1 60.75
Q 78.2 60.7 78.3 60.55
L 78.5 60.45 78.65 60.35 78.7 60.25
Q 79 59.95 78.85 59.75 78.7 59.55 78.25 59.55 77.8 59.6 77.35 60.25
L 77.25 60.5
Q 77.4 60.75 77.15 60.9 76.9 60.8 76.7 60.95
L 76.5 61.1 76.3 61.2 76 61.25 75.9 61.05 76 60.7
Q 76.15 60.45 76.2 60.35 76.3 60.15 76.2 59.95 76 59.75 76 59.7 76.05 59.6 76.25 59.4 76.25 59.15 76.1 59.1 75.7 58.9 75.4 59 75.2 59.1 75 58.8 74.95 58.65 75 58.5 74.75 58.4 74.6 58.15 74.4 57.9 74.3 57.75 74.15 57.6 74.35 57.5 74.65 57.45 74.85 56.95
L 74.45 56.85
Q 74.2 56.8 74.2 56.5
L 74.1 56.35
Q 73.9 56.25 73.85 56.1
L 73.45 56 73.4 55.9
Q 73.35 55.7 73.7 55.35 73.85 55.2 73.85 55.45
L 73.95 55.7
Q 74.05 55.8 74.3 55.8 74.45 55.75 74.45 55.6
L 74.45 55.4
Q 74.4 55.05 74.8 54.95 75.1 54.85 74.9 54.65 74.65 54.3 74.85 53.7 75.05 53.35 74.9 53.05
L 75.05 53
Q 75.55 52.6 75.8 52.85 76 53.05 75.85 53.2 75.65 53.35 75.55 53.45 75.35 53.85 75.45 54.95 75.5 55.2 75.75 55.25 76.15 55.3 76.2 55.35 76.45 55.45 76.45 55.5
L 76.5 55.8
Q 76.6 55.9 76.6 56.1 76.7 56.5 77.1 56.35 77.25 56.25 77.5 55.95
L 78.4 55.5
Q 78.8 54.95 78.9 54.9 79.25 54.7 79 54.45 78.8 54.25 78.8 53.95 78.85 53.65 78.85 53.45 78.85 53.25 78.75 53.2
L 78.65 53
Q 78.55 52.85 78.75 52.75
L 79.15 52.35
Q 79.25 52.3 79.35 52.15 79.5 52 79.6 52.1 79.7 52.15 79.8 52.25
L 79.75 52.35 79.85 52.55
Q 80.25 52.7 80.4 52.45 80.45 52.4 80.5 51.95 80.55 51.65 80.25 51.4 79.9 51.15 79.7 51
L 79.55 50.95
Q 79.45 50.8 79.25 50.9 78.45 50.95 78.6 50.15
L 78.65 50 78.8 49.95
Q 79 49.8 78.9 49.55
L 78.9 49.5 78.95 49.45 79 49.3
Q 79.25 48.85 79.2 48.7 79.1 48.55 78.55 48.45 77.4 48.35 76.85 47.7
L 76.85 47.75
Q 76.7 47.25 77.1 47.3
L 77.6 47.4
Q 77.75 47.45 77.9 47.3
L 78.1 47.15 78.7 46.95 78.9 47.25
Q 79.1 47.45 79.25 47.45 79.5 47.55 79.5 47.25
L 79.25 46.8 79.3 46.65 79.2 46.5 78.9 46.4
Q 78.6 46.35 78.55 46.2
L 78.45 46 78.5 45.75
Q 78.45 45.7 78.5 45.5 78.55 45.35 78.35 45.3
L 78.25 45.15 78.2 45.1
Q 78.75 44.65 78.95 44.65 79.15 44.5 79.5 44.75 80.2 45.1 80.4 44.75 80.95 44.1 80.45 43.75 80.3 43.65 80.25 43.75 80.15 43.9 80.1 43.9
L 79.9 44 79.75 44.05
Q 79.55 44.25 79.45 44 79.2 43.4 79.1 43.1 79.1 42.8623046875 79.2 42.45 79.1646484375 42.2853515625 79.3 42.15 79.3244140625 42.1353515625 79.35 42.1 79.43515625 41.8255859375 79.4 41.65
L 79.15 41.55
Q 79.2 41.5 79.15 41.45
L 79.05 41.3
Q 78.95 40.95 79.2 40.8
L 79.3 40.3
Q 79.4 40.15 79.25 40 79.3 39.8 79.55 39.8
L 79.8 39.75 79.95 39.75 80.05 39.8 80.1 39.7 80.1 39.65 80.25 39.75
Q 80.45 39.65 80.45 39.35 80.5 39 80.65 38.9
L 80.65 38.75
Q 80.75 38.55 80.6 38.5
L 80.7 38.4
Q 80.75 38.25 80.6 38 80.45 37.8 80.5 37.65 80.75 37.1 80.15 36.3
L 80.05 36.15
Q 79.75 35.95 79.75 35.75
L 79.65 35.6 79.65 35.5
Q 79.6 35.35 79.5 35.45 79.25 35.2 79.45 35
L 79.6 34.65 79.65 34.4 79.65 34.45 79.7 34.4
Q 79.8 34.35 79.7 34.25
L 79.75 34.15
Q 79.85 33.8 79.75 33.6 79.4 33.35 79.35 33 79.25 32.45 78.7 32.8
L 78.4 33.05
Q 77.95 33.3 77.85 33.05 77.85 32.75 77.75 32.6 77.6701171875 32.5201171875 77.65 32.55 77.6814453125 32.2814453125 77.35 31.95
L 77.45 31.7
Q 77.75 31.8 77.9 31.95 78.2 32.25 78.75 32.35
L 78.95 32.05
Q 79.15 31.8 78.95 31.6
L 79.1 31.1 79 31.05 78.85 31 78.65 31.1 78.5 30.95
Q 78.45 30.85 78.65 30.75
L 78.9 30.75
Q 79.1 30.65 79.1 30.55
L 79 30.4
Q 78.55 30.2 78.6 29.75
L 78.35 29.5 78.4 29.4 78.25 29.35 78.3 29.25 78.2 29.05 78.05 29.05
Q 77.75 28.45 76.65 28.45
L 76.6 28.4 76.6 28.35 76.45 28.3
Q 76.5 28.15 76.25 27.4 75.85 27.05 75.8 27.05 75.5 26.85 75.2 27
L 74.85 27.2
Q 74.45 27.1 74.3 27.3
L 74.2 27.75 74 28.1 74.2 28.9
Q 74.4 29.25 74.2 29.8
L 73.85 29.8
Q 73.05 29.95 73.15 30.65 73.2 31 73.25 31.75 73.35 31.95 73.2 32.05 73.05 32.15 72.8 32.05 72.65 31.95 72.5 32.1
L 72.25 32.5
Q 72.15 32.65 72.15 32.7 72.15 32.75 72.35 32.9
L 72.55 33.2
Q 72.65 33.35 72.8 33.65
L 72.75 34.35
Q 72.75 34.6 72.95 34.75 72.7 35.15 72.7 35.2 72.65 35.45 72.4 35.55
L 71.85 35.6
Q 71.6 35.6 71.55 35.55 71.5 35.55 71.45 35.3 71.3 34.75 70.8 34.6 70.2 34.5 70 34.6 69.65 34.35 69.6 34.2 69.55 34.05 69.8 33.8 70.05 33.5 70.5 33.6 70.4 33.15 70.5 32.9 70.6 32.4 70.35 31.7
L 70.25 31.4
Q 70.05 31 69.7 31.1
L 68.8 30.55 68.7 30.3 68.75 30.05
Q 68.65 29.65 68.35 29.65 67.85 29.75 67.6 29.35 67.5 29.25 67.25 29.3
L 66.85 29.35 65.95 29.2
Q 65.65 29.2 65.5 29.35 65.1 29.25 64.95 29.35 64.65 29.55 64.15 29.35 64.05 29.1 63.6 29.1 63.3 29.1 62.6 28.75
L 62.5 28.7
Q 62.423046875 28.7072265625 62.3 28.65 62.2 28.734375 62.2 28.85 62.1 29.05 61.9 29.1 61.6 29.25 61.55 28.95 61.45 28.55 61.15 28.35 61 28.25 61.05 28.05
L 61.15 27.7
Q 61.2 27.4 60.8 27.15 60.8 27.35 60.75 27.45
L 60.55 27.8 60.35 27.85
Q 59.95 27.9 59.85 27.65 59.75 27.35 59.6 27.25 59.35 27.15 59.45 26.8 59.7 26.5 59.75 26.3 59.75 25.95 59.5 26.05
L 59.2 26.1
Q 59 26.2 58.95 26.15 58.9 26.1 58.8 25.85 58.8 25.7 58.7 25.65 57.65 25.2 57.35 25.25 57.15 24.9 56.75 25 56.7 25 55.95 24.85 55.7 24.75 55.7 24.65 55.6908203125 24.613671875 55.65 24.55 54.9779296875 24.8451171875 55.3 24.25 55.175390625 24.175390625 55.1 24.1 54.85 23.95 54.7 23.85 54.45 23.7 54.25 23.7 54.05 23.75 54 23.6 53.9 23.45 53.85 23.35 53.7 23.1 53.95 22.95
L 54.25 22.7
Q 54.4 22.55 54.4 22.35
L 54.6 22.3 54.8 22.45
Q 55.3 22.95 56 22.65 56.1 22.15 56.35 21.95
L 56.5 21.85
Q 57.1 22.05 57.2 21.7
L 57.3 21.65 57 21.7
Q 57.3 21.5 57.65 21.55
L 57.35 21.6 57.45 21.6
Q 57.95 21.75 58.9 21.9 59.1 22.4 59.75 22.55
L 60.3 22.6
Q 60.65 22.6 60.75 22.55 60.85 22.5 60.95 22.15 61.05 21.6 61.45 21.4 61.55 21.4 62.05 21.3 62.3 21.2 62.2 21.05 62 20.55 62.3 20.05
L 62.6 19.45
Q 62.7 19.2 62.65 19.1
M 41.2 23.3
L 41.15 23.5 41.05 23.1
Q 41.2 23.1 41.2 23.3
M 45 22.2
Q 45.7 21.6 45.4 22.5 44.25 22.8 45 22.2
M 52.7 27.3
Q 54.75 27.35 52.45 27.6
L 52.2 27.85
Q 51.25 27.25 52.7 27.3
M 54.5 26.1
Q 55.05 25.35 54.85 26.5 54 26.9 54.5 26.1
M 53.75 31.5
Q 54.25 30.75 54.05 31.9 53.2 32.3 53.75 31.5
M 60.3 36.45
Q 60.4 36.65 60.55 37 60.2 37.2 60.1 36.9 59.95 36.5 59.85 36.35 60.2 36.15 60.3 36.45
M 45.2 29.4
Q 45.35 29.5 45.7 29.8 45.5 29.95 45.2 29.75 44.85 29.45 44.7 29.35 44.9 29.15 45.2 29.4
M 41.55 29.05
Q 42.55 29 41.55 29.2 40.45 29.1 41.55 29.05
M 47.35 30.3
Q 47.9 29.55 47.7 30.7 46.85 31.1 47.35 30.3
M 43.6 39.1
Q 43.35 39.3 43.15 39.1 42.9 38.85 43.1 38.65 43.35 38.5 43.4 38.7 43.5 39.05 43.6 39.1
M 47.05 46.55
Q 46.55 46.95 46.4 46.25 46.25 45.55 46.8 45.35 46.9 45.55 46.9 45.95 46.9 46.35 47.05 46.55
M 45.45 44.95
Q 46 44.2 45.8 45.35 44.95 45.75 45.45 44.95
M 56.25 38.65
Q 56.05 38.8 55.75 38.6 55.45 38.3 55.25 38.2 55.45 38 55.75 38.25 55.95 38.35 56.25 38.65
M 54.9 38.1
L 54.8 38 54.8 37.95 54.95 37.9 55 37.9 54.9 38.1
M 53.75 37.35
Q 53.95 37.45 54.25 37.75 54.05 37.9 53.75 37.7 53.45 37.4 53.3 37.3 53.5 37.15 53.75 37.35
M 65.25 35.8
Q 65.85 35.55 65.6 35.15 66.1 34.9 66.05 36.05 65.95 37.15 65.2 36.6 64.7 36.05 65.25 35.8
M 67.3 41.4
Q 66.4 40.8 67.05 40.2
L 67.8 40.9 67.3 41.4
M 62.3 49.45
Q 62.25 49.4 62 48.65 62.45 48.35 62.55 48.85 62.7 49.5 63 49.6 62.6 50 62.3 49.45
M 61.95 48.2
Q 61.7 48.35 61.5 48.15 61.3 47.9 61.45 47.7 61.7 47.55 61.75 47.75 61.85 48.1 61.95 48.2
M 66.2 45.4
Q 66.75 44.65 66.55 45.8 65.7 46.2 66.2 45.4
M 66.25 39
Q 66.5 39.65 65.8 40.5 65.3 39.85 66.25 39
M 78.15 41.75
Q 78.15 41.8 77.55 42 77.15 41.75 77.5 41.25 77.95 40.4 77.55 41.5 78.15 41.65 78.15 41.75
M 74.75 39.75
Q 74.45 40.55 74.05 39.2 75.1 39 74.75 39.75
M 31.35 23.3
Q 32.4 23.3 31.35 23.5 30.3 23.4 31.35 23.3
M 34.4 22.9
Q 34.5 23.1 34.7 22.9 35.05 23.65 34.45 23.4 33.6 23.05 33.5 23.2 33.35 22.95 33.65 22.85 34.05 22.65 34.2 22.4 34.3 22.8 34.4 22.9
M 40.45 26.8
Q 39.4 26.7 40.45 26.65 41.5 26.65 40.45 26.8
M 34.7 28.5
Q 33.85 28.85 34.35 28.1 34.9 27.3 34.7 28.5
M 30.35 35.55
Q 29.65 35.45 29.6 35.5 29.25 35.05 29.75 35.15 30.45 35.2 30.55 35 30.9 35.6 30.35 35.55
M 21.3 42.4
Q 21.65 43.05 21.15 43.6 20.75 42.95 21.3 42.4
M 22.3 55.45
Q 21.95 55.15 21.8 55.05 22 54.85 22.3 55.1 22.45 55.2 22.8 55.5 22.55 55.65 22.3 55.45
M 26.4 60.55
Q 27.45 60.55 26.4 60.7 25.35 60.6 26.4 60.55
M 26.2 64.05
Q 25.65 63.9 25.4 63.9 24.9 63.85 24.55 64.05 24.45 64.15 24.3 64 24.1 63.85 23.6 63.75 23.1 63.6 22.9 63.5
L 22.7 63.45 22.65 63.45 22.7 63.4 23.1 62.8
Q 23.35 62.4 23.8 62.4
L 23.95 62.55 24 62.65 24.15 62.75 24.25 62.8
Q 24.5 62.95 25.05 62.95 25.5 62.7 26.35 62.85
L 26.3 63.2
Q 26.25 63.4 26.35 63.55
L 26.2 64.05
M 25.6 65.45
Q 26.65 65.4 25.6 65.6 24.55 65.5 25.6 65.45
M 26.45 68.25
Q 25.4 68.15 26.45 68.1 27.45 68.05 26.45 68.25
M 36.15 74
Q 35.9 74.2 35.7 73.95 35.45 73.7 35.65 73.55 35.9 73.35 35.95 73.55 36.05 73.9 36.15 74
M 65.85 66.1
Q 65.95 66.45 66.05 66.55 65.8 66.75 65.6 66.5 65.4 66.25 65.55 66.05 65.85 65.9 65.85 66.1
M 59.6 49.75
Q 58.55 49.6 59.6 49.55 60.65 49.5 59.6 49.75
M 48.15 50.25
Q 49.2 50.2 48.15 50.4 47.1 50.3 48.15 50.25
M 41.65 51.2
Q 42.7 51.2 41.65 51.4 40.6 51.25 41.65 51.2
M 45.35 70.9
Q 46.1 70.3 45.8 71.2 44.6 71.5 45.35 70.9
M 46.9 68.3
Q 47.95 68.25 46.9 68.5 45.85 68.35 46.9 68.3
M 44.65 72.25
Q 44.05 72.5 43.9 72.7 43.1 73.45 43.65 72.5 44.1 71.65 44.35 72.2 44.85 72.1 44.65 72.25
M 55.4 65.65
Q 56.1 65.05 55.8 65.95 54.65 66.25 55.4 65.65
M 25.95 49.35
Q 27.05 49.35 25.95 49.5 24.9 49.4 25.95 49.35
M 69.8 18.05
Q 69.55 18.3 69.25 18.3 69.25 18.7 69.3 18.75 69.5 19.15 69.35 19.65
L 69.2 20.1
Q 69 20.1 69 20.35
L 68.95 20.35 68.7 20.6
Q 68.6 20.6 68.6 20.4 68.6 20.2 68.45 20.15
L 68.05 20
Q 67.65 19.75 67.2 19.75 66.9 19.75 66.9 19.9 66.85 20.15 67.15 20.25
L 67.3 20.25
Q 67.7 20.35 67.55 20.6
L 67.4 20.9
Q 67.3 21.05 67.4 21.45 67.5 21.6 67.85 21.6 68.25 21.6 68.35 22
L 68.45 22.2
Q 68.55 22.8 68.45 23.05 68.35 23.2 68.35 23.95 68.35 24.15 68.5 24.2 68.65 24.25 68.95 24.45 69.2 24.55 69.45 24.45
L 69.85 24.4
Q 70.25 24.3 70.25 24.05 70.25 23.6 69.95 23.4 69.7 23.3 69.65 23.2 69.25 23 69.45 22.75 69.5 22.55 69.85 22.65
L 70.6 22.55
Q 71.05 22.5 71.15 22.15 71.25 21.85 70.9 21.55 70.45 21.15 69.7 21
L 69.65 20.7 69.7 20.45
Q 69.7 20.4 69.7 20.15 69.7 20 69.8 19.95 70 19.8 70.35 20.1 70.6 20.25 70.75 20 70.85 19.7 71.15 19.7
L 71.3 19.6
Q 71.35 19.35 71.7 18.75
L 71.6 18.6 71.5 18.4 71.4 18.4 71.4 18.25 71.25 18.2
Q 70.8 17.85 70.8 17.7 70.8 17.5 70.55 17.6
L 70.35 17.7 70.2 17.75 70 17.85
Q 69.85 17.9 69.95 18.1
L 69.8 18.05
M 67.3 17.35
L 67.85 17.5
Q 68.2 17.4 68.25 17.2
L 68.15 17.05 67.6 16.9
Q 67.45 17 67.15 16.9 66.85 16.85 66.8 17.05
L 67.05 17.15
Q 67.25 17.2 67.3 17.35 Z"/>
</g>
</defs>

<g transform="matrix( 1, 0, 0, 1, 0,0) ">
<use xlink:href="#Layer1_0_FILL"/>
</g>
</svg>
