
<svg xmlns="http://www.w3.org/2000/svg" version="1.1" xmlns:xlink="http://www.w3.org/1999/xlink" preserveAspectRatio="none" x="0px" y="0px" width="100px" height="100px" viewBox="0 0 100 100">
<defs>
<g id="Layer1_0_FILL">
<path fill="#000000" stroke="none" d="
M 34.9 20.6
Q 34.4 21.25 34.9 21.8
L 35.2 21.9
Q 36.2 22 36.85 21.1 37.45 20.5 37.35 19.8 37.6 20.15 38.15 20.1
L 38.25 20.05 38.25 20.15 38.35 20.25 38.45 20.25 38.8 20 39 20.1 39.25 20.1
Q 39.85 19.9 39.8 19.55
L 39.7 19.45 39.7 19.35 39.15 18.7 38.8 18.85
Q 37.55 19.05 37.15 19.5 36.6 19.4 36 19.9 35.2 20.55 34.9 20.6
M 65.5 20.8
Q 64.75 21.15 64.6 21.4 64.25 21.9 64.9 22.5
L 64.7 22.6
Q 64.55 22.5 64.45 22.6 64.35 22.65 64.5 22.8 64.7 23.05 64.6 23.2 64.6 23.4 64.4 23.55 64.15 23.6 64 23.85
L 63.7 23.9 63.95 24.75
Q 62.15 23.8 60.35 23.15
L 60.3 23.05
Q 60.25 22.9 60.35 22.9
L 60.95 23.2 61.15 23.15
Q 61.25 23.4 61.6 23.45 62.15 23.2 62.05 22.8 62.7 22.85 62.65 22.3 62.35 21.6 62.35 21.5 61.75 21.3 61.65 20.85 61.6 20.8 61.35 20.3 61.2 20 60.85 20.6
L 60.2 20.9
Q 59.6 20.7 59.6 21 59.7 21.35 59.4 21.8 59.15 22.3 59.15 22.5 59.2 23 58.85 22.5 58.8 22 58.65 21.85 58.5 21.6 58 21.8
L 57.5 22.3 57.35 22.3
Q 55.35 21.6 53.35 21.35
L 53.65 21.2 55.35 20.75 55.95 20.8 55.75 20.5
Q 56.05 20.15 56.25 20 56.6 19.85 56.9 20.35
L 57.3 20.2
Q 57.5 20.75 57.85 20.95 58.05 20.65 58.25 20.55 58.5 20.35 58.9 20.65
L 58.15 19.05
Q 57.6 19.2 57.45 19.4
L 57.4 19.55 56.25 19.05
Q 56.15 18.85 56.35 18.45 56.8 18.6 56.85 18.25 56.85 18.05 56.6 17.95 56.45 17.85 56.2 17.7
L 55.75 18.3
Q 55.4 18.7 55.4 18.75
L 55.3 19.05
Q 55.3 18.7 55 18.6
L 55.1 18.6
Q 55.35 18.35 55.35 18.1
L 55.3 17.85 55.15 17.55
Q 54.75 17.6 54.55 17.9 54.4 17.25 53.85 17.25 53 17.3 52.85 17.15
L 52.1 17.65
Q 52 17.7 51.5 17.3 51.1 17.05 50.9 17.7 50.8 17.95 50.95 18.05 51.25 18.15 51.4 18.2 52 18.3 52.25 18.4 52.75 18.55 53.05 18.9
L 53.15 18.85
Q 53.35 18.65 53.35 18.3
L 54.4 18.15 54.45 18.4
Q 54.55 18.6 54.75 18.6 54.1 18.95 53.7 19.8 54.1 20.4 53.7 21 53.2 21.05 53.1 21.3
L 52.05 21.15
Q 51.95 20.75 51.8 20.6
L 51.6 20.95 51.45 21.1
Q 49.35 20.95 48.35 20.95 48.35 20.5 48.4 20.25
L 48.2 20
Q 48.15 20 47.7 19.7 47.45 19.5 47.15 19.5 47.2 18.35 46.9 18
L 47 17.85
Q 47.1 18.2 47.7 18.35 48.3 18.45 48.4 18.75 48.85 18.85 49.45 18.25 49.6 17.8 49.2 17.65 47.95 17.65 47.45 17.4
L 47.35 17.3 47.1 17.65
Q 47 17.6 46.5 17.65 46.2 17.65 46.05 17.5 45.9 17.75 46 17.95 46.1 18.35 46.65 18.4 46.9 19 46.65 19.25 46.65 19.45 47.05 19.55 46.35 19.8 46.5 20.5 46.3 20.4 46.1 20.45
L 46.1 19.65
Q 46 19.35 45.95 18.65 45.9 17.95 45.5 17.65 45.2 17.55 44.5 17.8
L 44.45 17.7
Q 44.2 17.5 43.4 17.45
L 42.15 17.65
Q 41.75 17.55 41.45 17.85 41.15 17.8 41 17.9
L 40.45 18.1 39.4 18.65 39.95 18.7 39.9 18.75
Q 39.95 19.05 40.2 19.25
L 40.5 19.4
Q 40.95 19.35 41.15 19.05 41.25 19.55 41.45 19.6
L 41.6 19.3 41.75 19.3 41.85 19 42.15 19.1
Q 42.45 18.9 42.55 18.6
L 42.9 18.75
Q 43.55 18.7 43.65 18.65
L 43.9 19.15 43.9 19.25
Q 43.35 19.55 43.6 20.35
L 42.95 20.8 43.8 20.8
Q 44.45 21.1 45.9 21
L 46.2 21.05
Q 41.3 21.5 36.7 23.45 32.1 25.4 28.4 28.75
L 28.6 28.45
Q 28.85 27.7 28.15 27.35 27.8 27.25 27.6 27.5
L 27.55 27.55
Q 27.25 27.55 26.55 27.75
L 26.4 27.85
Q 26.45 28 26.45 28.5 26.4 28.9 26.6 29.05
L 25.95 29.3
Q 26.45 28.9 26 28.45 25.55 28.45 25.4 28.9 24.4 29.8 24.1 31.05
L 23.8 31.6 23.7 31.6 23.75 31.7
Q 23.55 31.75 23.35 32.05
L 23.1 32.55
Q 22.85 32.75 22.8 33.35 22.6 33.5 22.65 34 22.75 34.45 22.35 34.5 22.05 34.5 22 34.75
L 22 35.15
Q 21.75 35.35 21.7 35.7 21.6 36.15 21.55 36.3 21.45 36.45 21.3 36.6 21.1 36.75 21.15 37 20.55 38.05 20.6 38.5
L 20.75 39.5
Q 17.5 47.35 18.8 55.8
L 18.3 55.4
Q 18.05 55.8 18.3 56.95
L 18.3 57.25
Q 18.25 57.45 18.6 58.05
L 18.5 58.25
Q 18.75 59.15 18.85 59.25
L 19.05 59.75
Q 18.95 60 19.15 60.6
L 19.55 62.05 19.8 62.35
Q 20.1 63.15 20.7 64.2 20.85 64.75 21.15 65.15
L 21.5 65.65
Q 21.8 66.45 22.05 66.65
L 22.25 66.75
Q 22.7 67.75 22.95 68.05 23.1 68.55 23.8 69.3 24.15 70.05 24.35 70.25
L 24.4 70.25
Q 24.45 70.6 24.85 70.95 25 71.25 25.2 71.35
L 25.3 71.55 26.55 73.05
Q 26.6 73.45 27 73.7 27.1 74.15 27.55 74.1 30.45 77.15 34.35 79.4 43.4 84.65 53.7 83.3 63.8 82 71.1 74.9 71.25 74.85 71.65 74.4 71.85 74.45 71.85 74.2 74.55 71.4 76.4 68.15 79.5 62.8 80.3 56.55 80.95 52.45 80.4 48.4 80.55 47.9 80.35 47 80.5 46.7 80.4 46.2 80.35 45.5 80.4 45.4
L 80.2 44.35
Q 80.4 42.85 80.1 42.15
L 79.85 41.3
Q 79.95 40.95 79.7 40.75
L 78.4 36.85
Q 78.4 36.4 77.9 35.65 78 35.25 77.7 35.1 77.45 35.05 77.15 34.9 77.1 34.75 77.25 34.5 77.3 34.2 77.15 34.05 77.15 33.6 76.7 33.05
L 76.55 32.5
Q 76.45 32.15 76.2 32.05 76.25 31.7 75.9 31.65
L 75.15 31.7
Q 74.55 31.75 73.75 31.3 73.75 31.2 73.6 30.8 73.45 30.55 73.6 30.35 73.95 30.55 74.15 30.95 74.45 31.55 74.7 31.25 74.85 31.05 74.7 30.95 74.6 30.9 74.3 30.75
L 73.75 29.2 73.85 29 73.75 28.7
Q 73.45 28.3 73.5 28
L 73.35 27.8 73.05 27.9 72.95 28.05 72.7 27.7 72.65 27.3 72.7 27.2 72.6 26.9
Q 72.2 26.95 72 26.5 71.55 26.35 71.2 26.7 71.65 26.05 71 25.7
L 70.7 25.5
Q 70.25 24.95 70.15 24.85 69.8 24.55 69.35 24.85 69.55 24.2 69.15 23.9 68.6 23.8 68.55 23.8 68.1 24 68 23.95 67.9 24 67.9 23.65 67.85 23.3 67.55 23.25
L 66.9 23.2
Q 67.3 23.5 67.25 23.95 67.2 24.2 67.05 24.65
L 67.1 24.65 67.3 25 67 25.25
Q 67.05 25.3 67.3 25.6 67.55 25.9 67.8 25.75
L 68.3 25.85 68.25 25.9
Q 68 25.7 67.6 26.1
L 67.15 26.6 66.6 26.3 65.95 25.45 65.7 25.7 64.6 25.1 64.7 25.05
Q 64.85 25 65.05 24.4 65.25 23.95 65.8 24.1 65.9 24.1 65.95 23.9 66 23.75 65.9 23.55
L 66.05 23.4 66.3 24
Q 66.8 23.8 66.75 23.6 66.8 23.45 66.55 23.15
L 66.55 23.1
Q 66.65 23.05 67.1 23.05 67.45 23 67.6 22.75 67.7 22.5 67.45 22.35 67.1 22.15 67.15 22.05 66.85 21.85 66.4 21.3 66 20.8 65.5 20.8
M 58.15 29.2
Q 59.05 29.6 58.1 29.4 57.05 29.2 58.15 29.2
M 59.9 26.9
Q 61.1 26.85 60.3 27.25 59.35 27.65 59.9 26.9
M 48.9 29.35
Q 50.05 29.3 49.2 29.7 48.3 30.15 48.9 29.35
M 41.05 44
Q 41.95 44.4 41 44.25 39.9 43.95 41.05 44
M 52.2 46.45
Q 51.15 46.25 52.25 46.4 53.25 46.65 52.2 46.45
M 58.8 47.05
Q 59.8 47.5 58.7 47.2 57.7 47 58.8 47.05
M 75.35 34.8
Q 75.55 34.65 75.65 34.5
L 75.75 34.55 75.95 34.55 75.95 34.75 76 34.8 75.9 35
Q 75.55 35.1 75.85 35.45
L 75.85 35.6 75.35 34.8
M 69.95 27.1
Q 70 26.8 69.95 26.7 70.2 26.5 70.35 26.8 70.55 27.1 70.25 27.15 70.05 27.35 69.95 27.1
M 61.25 26.15
Q 61.9 26.1 62.1 25.9 63.1 25.4 62.3 26.15 61.65 26.9 61.55 26.25 61 26.2 61.25 26.15
M 77.95 37.5
Q 78.95 37.9 77.9 37.6 76.9 37.45 77.95 37.5
M 75.9 42.15
Q 74.9 41.9 75.9 42 76.95 42.4 75.9 42.15
M 78.4 48.5
Q 78.25 48.35 78.05 47.95 78.3 47.85 78.5 48.15 78.8 48.55 78.9 48.65 78.65 48.8 78.4 48.5
M 19.7 46.15
Q 19.75 45.75 19.6 45.65 19.95 45.5 20.1 45.8 20.25 46.1 20 46.25 19.75 46.3 19.7 46.15
M 39.2 26.55
Q 39.2 26.2 39.15 26.1 39.45 26 39.6 26.25 39.65 26.55 39.45 26.7 39.15 26.8 39.2 26.55
M 24.9 32.15
L 25 32.2 25.1 32.2 24.7 32.75
Q 24.7 32.55 24.9 32.15
M 21 46.95
Q 21 46.9 21.7 46.9 22 47.2 21.55 47.6 20.85 48.3 21.55 47.3 21 47.05 21 46.95
M 33.25 46
Q 34.2 45.9 33.5 46.45 32.75 47.1 33.25 46
M 38.35 44.9
Q 38.6 44.8 38.8 45.1 38.9 45.35 38.65 45.5 38.4 45.6 38.4 45.35 38.35 45 38.35 44.9
M 38.3 43.55
Q 38.3 43.65 38.4 44.4 37.85 44.65 37.95 44.1 38 43.45 37.7 43.25 38.2 43 38.3 43.55
M 32.65 51.35
Q 32.95 52.1 31.8 52.65 31.75 51.95 32.65 51.35
M 31.45 50.05
Q 32.1 50.85 31.3 51.35
L 30.8 50.4 31.45 50.05
M 31.25 55.55
Q 31.6 54.5 32.2 55.25 32.55 55.9 31.95 56 31.3 56.05 31.45 56.55 30.9 56.7 31.25 55.55
M 36.9 56.7
Q 36.85 56.45 36.8 56.1 37.2 56 37.2 56.3 37.2 56.75 37.3 56.85 36.9 57 36.9 56.7
M 24.3 50.45
Q 23.2 50.4 23.8 49.7 24.3 49.05 24.3 50.45
M 32.55 63.6
Q 32.8 63.5 33.1 63.85 33.4 64.35 33.6 64.6 33.45 64.6 33.2 64.5 33.1 64.35 32.95 64.1 32.6 64.25 32.8 64.6 32.1 64.85 32.35 64.25 32.6 63.65 32.55 63.6
M 38.2 69.35
Q 39.05 69.2 38.45 69.85 37.7 70.4 38.2 69.35
M 39.8 68.15
Q 39.1 68.7 39.55 67.65 40.5 67.5 39.8 68.15
M 38.25 78
Q 38.2 77.65 38.15 77.55 38.35 77.45 38.55 77.75 38.7 78 38.5 78.15 38.2 78.25 38.25 78
M 73.4 53.1
Q 72.3 52.85 73.45 53 74.45 53.3 73.4 53.1
M 77.2 61.55
Q 77.5 61.4 77.65 61.7 77.8 61.95 77.55 62.1 77.25 62.2 77.25 62.05 77.3 61.65 77.2 61.55
M 76.1 61.05
Q 75.9 60.35 76.55 59.9 76.75 60.65 76.1 61.05
M 66.25 65.5
Q 66.55 66.05 66.05 65.8 65.4 65.6 65.25 65.8 65.1 65.1 65.6 65.3 66.25 65.55 66.25 65.5
M 66.15 73.45
Q 66.35 73.45 66.8 73.4 66.85 73.75 66.5 73.85 66.1 73.85 65.95 73.9 65.85 73.5 66.15 73.45
M 68.45 73.5
Q 68.75 73.45 69 73.7 69.2 74.05 69.35 74.2 69.15 74.3 68.95 74.05 68.75 73.8 68.45 73.5
M 52.3 50.9
Q 52.4 50.55 52.3 50.35 52.9 50.05 52.85 50.85 52.75 51.5 52.25 51.6 52.2 51.3 52.3 50.9
M 53.45 52.3
Q 52.7 52.85 53.15 51.8 54.15 51.65 53.45 52.3
M 53.75 58.9
Q 53.8 58.55 53.75 58.45 53.95 58.3 54.15 58.55 54.3 58.85 54 59.05 53.8 59.05 53.75 58.9
M 43.45 57.55
Q 43.3 57.35 43.1 57 43.3 56.85 43.55 57.2 43.75 57.5 43.85 57.65 43.65 57.7 43.45 57.55
M 41.75 56.1
Q 41.6 55.95 41.3 55.65 41.55 55.5 41.85 55.75 42.05 56.15 42.25 56.25 41.95 56.45 41.75 56.1
M 49.3 66.85
Q 49.5 66.8 49.8 67 50 67.45 50.1 67.55 49.85 67.7 49.65 67.4 49.55 67.25 49.3 66.85
M 47.55 65.45
Q 48.5 65.3 47.8 65.95 47.1 66.5 47.55 65.45
M 41.85 67.5
Q 39.9 66.9 42.2 67.25
L 42.45 67.1
Q 43.25 67.95 41.85 67.5
M 41.75 62.7
Q 42.65 62.5 41.95 63.2 41.3 63.75 41.75 62.7
M 59.8 71.45
Q 59.05 72.1 59.55 71 60.5 70.9 59.8 71.45
M 53.1 68.7
Q 52.1 68.45 53.1 68.5 54.15 68.9 53.1 68.7
M 53.5 71.25
Q 52.5 70.95 53.5 71.1 54.55 71.5 53.5 71.25
M 58.45 75.95
Q 59.25 76.5 59.35 76.45 59.4 76.7 59.1 76.7 58.65 76.85 58.45 77 58.45 76.6 58.4 76.5 58.35 76.25 58.15 76.4 58 75.6 58.45 75.95
M 56.4 74.95
Q 56.2 75.1 55.95 74.8 55.8 74.65 55.55 74.35 55.75 74.25 56 74.5 56.3 74.75 56.4 74.95
M 52.75 78.35
Q 52 78.95 52.5 77.9 53.4 77.75 52.75 78.35
M 54.9 80.15
Q 55.1 80.1 55.55 80.05 55.6 80.4 55.25 80.55 54.9 80.45 54.65 80.6 54.5 80.2 54.9 80.15
M 55.45 82.45
Q 55.2 81.8 55.95 81.35 56.15 82.1 55.45 82.45
M 44.9 75.65
Q 45.25 75.9 45.5 75.7 45.85 76.15 45.1 76.2 44.4 76.25 44.3 75.75 44.55 75.45 44.9 75.65
M 49.05 76.5
Q 49.15 76.5 49.55 76.4 49.65 76.85 49.3 76.85 48.95 76.9 48.75 77 48.65 76.6 49.05 76.5
M 61.45 76.85
Q 60.45 76.6 61.5 76.7 62.55 77 61.45 76.85
M 63.9 79.05
Q 63.05 79.4 63.6 78.65 64.75 78.65 63.9 79.05
M 67.35 76.1
Q 66.5 76.45 67 75.65 68.2 75.7 67.35 76.1
M 48 74.35
Q 47.1 74.8 47.7 74 48.8 74.05 48 74.35 Z"/>
</g>
</defs>

<g transform="matrix( 1, 0, 0, 1, 0,0) ">
<use xlink:href="#Layer1_0_FILL"/>
</g>
</svg>
