
<svg xmlns="http://www.w3.org/2000/svg" version="1.1" xmlns:xlink="http://www.w3.org/1999/xlink" preserveAspectRatio="none" x="0px" y="0px" width="100px" height="100px" viewBox="0 0 100 100">
<defs>
<g id="Layer1_0_FILL">
<path fill="#000000" stroke="none" d="
M 62.3 53.55
Q 62.25 53.7 62.25 53.85 62.35 54.55 62.3 55.35 62.3 55.65 62 55.5 61.9 56.6 62 57.1
L 61.75 57.5
Q 61.85 57.6 61.6 58.5 61.35 59.55 61.15 60.5 61 61.2 60.85 61.75 60.75 62 60.85 62.25 60.85 62.35 60.95 62.4 61.8 61.95 61.85 60.75 61.85 60.5 61.9 60.3 62 60.05 62.05 59.8 62.15 59.1 62.4 58.2 62.55 57.55 62 57.5 62.6 57.45 62.25 57.35 62.2 57.3 62.2 57.25 62.15 57.15 62.15 57.1 62.7 57.25 62.5 56.55 62.45 56.5 62.4 56.45 62.4 56.3 62.45 56.25 62.45 56.2 62.5 56.2 62.8427734375 55.8572265625 62.35 55.75 62.5033203125 55.7658203125 62.55 55.3 62.55 55.2744140625 62.5 55.2
L 62.55 55.25
Q 62.6 55.05 62.65 54.9 62.7 54.8 62.65 54.75 62.55 54.6 62.45 54.5 62.45 54.2 62.4 53.85 62.4 53.65 62.35 53.4 62.35 53.45 62.3 53.55
M 62 58.2
L 62 58 62.25 58 62.25 58.2 62 58.2
M 61.2 61.75
Q 60.8 61.75 61.25 61.25
L 61.3 61.4
Q 61.4 61.5 61.2 61.75
M 46.45 23.45
Q 44.3 23.65 42.25 24.3 41.1 24.7 40.45 25.55 39.7 26.7 38.3 27.3 37.35 27.65 36.7 28.3 36.3 28.8 36 29.4 36.25 31.5 36.3 33.7 36.5 40.55 37.05 47.45 38.1857421875 49.0328125 39.15 50.7 39.1779296875 50.6701171875 39.2 50.65 39.9 50.45 39.3 50.8 39.2630859375 50.819921875 39.2 50.8 42.228125 55.9630859375 43.65 61.8 44.5 65.25 44.75 69 44.9 71.2 45.1 73.4 45.15 74.3 45 75.1 45.9 77 47.95 76.85 49.15 76.75 49.95 75.95 50.25 75.7 50.4 75.45 50.45 75.4 50.45 75.35 51.15 75.55 50.7 75.3 50.55 75.15 50.9 75
L 50.75 74.85 51.5 75 51.5 74.3
Q 50.9173828125 73.862890625 51.65 74.15 51.676953125 74.18984375 51.7 74.2 51.7326171875 74.1673828125 51.75 74.1
L 51.8 74.1
Q 51.25 73.9 51.7 74 51.75 74.05 51.8 74.1
L 51.8 74.1
Q 51.87890625 74.112109375 52 74.1 51.95 73.6 52.5 73.85 52.55 73.85 52.65 73.75 52.15 73.5 53 73.25
L 52.75 73.1
Q 52.85 72.85 52.85 72.8 52.6 72.4 53 72.6
L 53.05 72.6 53.9 72.7 54.5 72.45
Q 54.1 72.65 54.3 72.9 54.5 73.1 54.65 73 54.65 72.8 54.95 72.6 55 72.55 55 72.45 55.45 72.6 55.3 72.25 55.1 71.9 55.65 71.8 55.7 71.8 55.75 71.85
L 56.45 71.45
Q 57.05 70.35 57.55 69.2 57.6 69.05 57.6 68.95 57.7 68.65 57.75 68.35 57.55 68.05 57.8 67.95 57.85 67.9 58 67.95 57.65 68.35 58 68.2 58.05 68.15 58.15 68.15
L 58.9 65.95
Q 59 65.45 59.25 64.7 59.45 64 59.65 63.35 59.8 62.85 59.7 62.6 59.95 62 60.1 61.5 60.25 61.05 60.3 60.9 60.45 60.45 60.3 59.6 60.25 59.5 60.2 59.45 60.6 57.55 60.6 55.3 60.6 54.9 60.25 55.05
L 60.45 54.55 59.9 54.75
Q 59.8 55.5 59.6 55.05 59.55 54.9 59.4 54.8 59.6 55.05 59.4 55.3 59.3 55.35 59.4 55.55
L 59.45 55.6
Q 60.15 55.5 60.15 55.15
L 60.3 55.2
Q 60.5 55.5 60.2 55.5 59.7 55.5 60 55.75 60.45 55.3 60.1 55.75 60.1 55.8 60 55.75 59.6 56.15 59.9 56 60.2 55.75 59.9 56.1
L 59.9 56.5
Q 59.5 56.15 59.65 56.4 59.85 56.9 59.5 56.55
L 59.7 57.3
Q 60 57.3 59.9 57.55 59.9 57.65 59.75 57.75 60.1 57.85 60.15 58.25
L 59.75 58.35
Q 59.8 58.1 59.3 58.1 59.2572265625 58.1 59.15 57.85 59.27265625 57.8193359375 59.4 57.75 59.55 57.6 59.5 57.3 59.35 57.25 59.25 57.25
L 59.15 57.25
Q 59.1 57.15 59.2 57.05 58.8 56.95 59.35 56.8
L 59.2 56.75
Q 59.5 56.3 59.3 56.15 59.2 56.1 59.15 56 58.75 55.45 59.15 55.2 59.4 55 59.2 54.9
L 59.4 54.8
Q 59.68828125 54.6763671875 59.4 54.45 59.5392578125 54.512890625 59.7 54.55 59.8 54.6 59.9 54.75 59.791796875 54.425390625 59.8 54.2 59.505859375 53.9412109375 59.7 53.65 59.7 53.7 59.45 53.35 59.3 53.4 59.7 52.9 59.75 52.8 59.8 52.75 59.95 52.65 59.75 52.1
L 59.1 51.75 59.15 50.85
Q 59.2 50.7 59.3 50.65 59.35 50.55 59.45 50.55
L 59 49.3
Q 59.3 49.2 59.3 49.15 59.2 49.05 59.05 49
L 59.25 48.05
Q 59.2 47.8 59.15 47.3 59.1 47.7 59.1 47.35
L 58.9 47.05
Q 59.55 47.05 59.05 46.75
L 59.2 46.5
Q 59.5 46.4 59.4 45.95 59.4 45.9 59.3 45.5 59.2 45.05 59.4 45 59.4 45.1 59.4 45.2 59.7 45.35 59.8 45.1 59.95 44.8 59.4 44.85 59.05 44.9 59.45 44.65 59.5 44.65 59.5 44.6 59.45 44.45 59.4 44.3 59.4 44.2 59.3 44.1
L 59.9 44.1
Q 59.45 44.25 59.9 44.6 59.95 44.6 60 44.7 60.4095703125 44.3314453125 60.45 44.15
L 60.45 44.25
Q 60.85 44.35 61.05 44 61.1 43.9 61.2 43.85 61.2 43.4 61.05 43 60.9 42.7 61.4 42.8 61.6 42.65 61.45 42.5 61.35 42.4 61.25 42.35 61.35 42.35 61.5 42.35 61.6 42.3 61.7 42.25 61.6 41.75 61.85 41.55 61.9 41.5 62 41.5
L 62.55 41.3
Q 61.6 41.1 62.5 41.05 62.75 41.2 62.75 40.7
L 62.8 40.75
Q 62.75 40.95 63 41.4
L 63.05 41.35
Q 63 40.7 63.5 41.25 63.55 41.3 63.6 41.4
L 63.75 40.6
Q 63.5 39.6 63.05 38.9 62.8 38.55 62.6 38.6
L 62.45 38.45 62.25 38.05
Q 62.2 38.05 62.2 38 62.1 37.95 62 37.95
L 62 38 61.8 37.6
Q 61.85 37.5 61.9 37.4
L 61.65 37 61.3 36.85
Q 61.45 36.9 61.55 36.85
L 61.5 36.75 61.25 36.1 61 35.8
Q 61.7 35.4 62.95 34.35
L 63 34.45 63.3 33.55
Q 63.65 33.3 63.45 33.35 63.25 33.4 63.05 33.5
L 63.65 32.85
Q 63.95 32.55 63.6 32.45 63.35 32.45 63.2 32.5
L 63.25 32.55
Q 63.05 32.55 63.05 32.35
L 63.4 32.2
Q 63.05 31.75 63.8 31.95 64.1 32.05 63.75 31.9 63.65 31.95 63.7 31.7 63.8 31.1 63.5 31.5
L 63.5 31.4 63.8 31.15
Q 63.7 31.1 63.55 31 63.75 30.85 63.3 30.05 63.3 30 63.2 30
L 63.4 29.4
Q 63 29.6 63 28.75 63 28.2 62.95 27.5
L 62.95 27.45
Q 62.85 27.3 62.75 27.25 62.85 27.25 62.95 27.2 62.95 27.15 62.95 27.05 62.6 26.9 62.8 26.75 62.85 26.75 62.8 26.55 62.65 26.4 62.7 26.25 62.7 26.1 62.7 26
L 62.4 25.5
Q 61.75 24.7 60.9 24.25 60.3 23.95 59.95 23.4 59.4 23.3 59.05 22.9
L 58.2 22.9 56.5 22.15
Q 56.25 21.65 55.8 21.5 55.45 21.95 54.9 21.55 54 20.95 53.35 20.05 53.2 19.85 53 19.75
L 52.75 19.25 52.15 19
Q 51.4 19.3 51.3 20.15 51.1 22.45 50.6 24.75 50.5 25.35 50.15 25.8 50.1 25.9 49.95 25.9 49.5 25.6 49.8 24.8 49 23.4 47.4 23.4 46.85 23.55 46.45 23.45
M 54.55 23.75
Q 54.25 23 54.7 23.85 55.15 24.75 55.2 25.1 54.9 25.55 54.75 24.85 54.65 24.45 54.55 23.75
M 51.5 24.55
Q 52.2 24.35 51.6 24.7 51 25.05 51.5 24.55
M 56.9 27.65
Q 56.85 27.65 56.8 27.65 57.4 27.2 56.9 27.65
M 57.65 29.05
L 57.55 28.8 57.75 28.8 57.65 29.05
M 56.5 28.5
Q 55.95 28.2 56.5 28.4 56.5 28.45 56.5 28.5
M 56.9 28.65
L 56.8 28.4 57.05 28.4 56.9 28.65
M 57.2 30.4
Q 57.1 30.35 57.05 30.3 57.6 30.2 57.2 30.4
M 53.2 26.85
Q 52.6 27.2 53.15 26.75 53.8 26.55 53.2 26.85
M 54.8 31.55
Q 54.15 31.85 54.75 31.45 55.35 31.2 54.8 31.55
M 56.45 37.05
L 56.65 37.05 56.55 37.25 56.45 37.05
M 59.5 35.35
Q 59.4 35.35 59.05 35.15 59.15 34.9 59.4 35.05 59.7 35.2 59.85 35.25 59.85 35.5 59.5 35.35
M 49.45 44.3
Q 48.8 44.6 49.35 44.15 50.1 43.95 49.45 44.3
M 45.9 46.95
Q 45.3 47.3 45.85 46.85 46.55 46.65 45.9 46.95
M 59.7 43.2
L 60.2 43.2 60.2 43.4 59.7 43.4 59.7 43.2
M 59 43.2
L 59 43.25
Q 59.5 43.4 59.15 43.35 59.15 43.3 58.85 43.25
L 59 43.2
M 59.75 41.6
Q 59.1 41.95 59.65 41.45 60.35 41.3 59.75 41.6
M 58.25 46.05
L 58.25 46.25 58.05 46.25 58.05 46.05 58.25 46.05
M 58 45.95
Q 58 45.8 58 45.7 58.55 45.75 58 45.95
M 57.45 46
L 57.5 46
Q 57.45 46.7 57.45 46
M 57.15 47.55
Q 57.1 47.8 57.1 47.5 57.127734375 47.3341796875 57.2 47.35 57.184765625 47.4228515625 57.15 47.55
M 57.5 47.85
Q 57.5 47.8 57.7 47.6
L 57.8 47.3
Q 58 47.15 58.25 47.5
L 58.3 47.9
Q 58.25 47.75 58.15 47.85 58.05 48 58.05 48.2 57.2 48.4 57.75 48.3 58.25 48.6 57.3 48.5 57.15 48.45 57 48.45 57.25 48.1 56.95 48.05
L 57.2 48.05
Q 57.3 48 57.4 48
L 57.5 47.85
M 57.5 49.15
L 57.5 49.25
Q 57.05 49.2 57.5 49.15
M 57.5 49
L 57.5 48.8 57.75 48.8 57.75 49 57.5 49
M 58.75 47.6
L 59 47.6 59 48 58.75 48 58.75 47.6
M 61.1 27.5
L 61.15 27.2
Q 61.95 27.5 61.1 27.85 59.8 28.3 61.1 27.5
M 62.35 29
Q 62.15 28.7 62 28.7 62.05 28.4 62.3 28.55 62.55 28.65 62.5 28.95 62.4 29.15 62.35 29
M 61.2 34.75
Q 61.55 35.35 61.15 35.05
L 61.2 34.75
M 60.95 35.7
Q 60.9 35.75 60.75 35.5 61.35 35.2 60.95 35.7
M 62.95 30.95
Q 62.75 31.7 62.55 30.85 63.15 30.25 62.95 30.95
M 63.05 40.45
Q 62.95 40.35 63 40.25 63.4 40.35 63.15 40.55
L 63.25 40.5
Q 63.4 41 63.05 40.45
M 60.9 43.75
L 60.8 44
Q 60.2 43.6 60.65 43.4 60.8 43.3 61 43.7
L 60.9 43.75
M 39.15 30.25
Q 38.5 30.55 39.05 30.05 39.75 29.9 39.15 30.25
M 38.95 27.45
Q 38.75 28.2 38.6 27.3 39.15 26.65 38.95 27.45
M 58.25 49.7
L 58.75 50
Q 58.55 50.2 58.55 50.3
L 57.65 50
Q 57.95 49.85 58.2 49.6
L 58.25 49.7
M 58.55 51.5
Q 58.6 51.55 58.7 51.6
L 58.4 51.85
Q 58.4 52 58 51.65
L 58 51.8
Q 58.75 52.45 57.95 51.9
L 57.9 51.95
Q 57.65 51.1 58.15 51.05 58.2 51 58.25 51 58.4 51.45 58.55 51.5
M 57.75 50.55
Q 57.55 50.95 57.7 50.55 57.7 50.5 57.75 50.55
M 57.55 52.1
Q 57.75 52.15 58 52.25
L 58.5 52.75 57.3 52.25
Q 57.1 51.95 57.55 52.1
M 57.75 51.1
Q 57.45 51.25 57.25 51.25 57.25 51.2 57.2 51.1
L 57.45 51.05
Q 57.75 50.7 57.75 51.1
M 57.85 54.75
L 57.75 55 57.65 54.75 57.85 54.75
M 58.9 54.1
Q 58.85 54.05 58.8 54.1 58.9869140625 53.6794921875 59.05 54.15 58.988671875 54.1443359375 58.9 54.1
M 58.7 53.5
L 58.9 53.5 58.9 53.7 58.7 53.7 58.7 53.5
M 53.65 56.15
Q 53.45 55.85 53.3 55.85 53.4 55.55 53.6 55.7 53.85 55.85 53.85 56.1 53.7 56.3 53.65 56.15
M 58.9 56.8
L 58.75 57 58.65 56.8 58.9 56.8
M 58.95 57.4
L 58.9 57.5
Q 58.86328125 57.903515625 59.15 57.85
L 58.75 58.1
Q 59.1 58.1 59.4 58.5 59.45 58.55 59.5 58.65 59.6 58.55 59.7 58.55
L 59.6 58.65
Q 59.4166015625 58.879296875 59.5 58.95
L 59.05 58.6
Q 59.1 58.85 59.15 59 58.7 59 58.75 58.7 58.8 58.5 58.55 58.15 58.45 58.1 58.4 58
L 58.9 57.5
Q 58.4 57.45 58.95 57.4
M 57.9 60.4
Q 57.65 60.4 57.7 60.25 58.6 60.4 57.9 60.4
M 58.2 61.35
Q 58.15 61.25 58.05 61.25 58.45 60.8 58.45 61.25 58.45 61.85 58.2 61.35
M 59.7 59.5
Q 59.75 59.7 59.55 59.9 59.3 60.3 59.65 60.5 59.9 60.85 59.7 60.7 59.35 60.95 59.15 60.8 59.05 60.8 59 60.85
L 59.4 61
Q 59.355078125 61.0064453125 59.3 61 59.6580078125 61.2236328125 59.5 61.5
L 59.5 61.55 59 61.7
Q 58.9 61.75 58.7 61.65
L 58.75 61.75
Q 59.4341796875 61.75 59.2 62.25
L 59.25 62.3
Q 58.65 62.5 59 62.6 59.1 62.6 59.25 62.6
L 59 63.5
Q 58.9 63.55 58.45 63.4 58.1 63.25 58.45 63.3 59.1 63.5 58.85 63.1
L 58.8 63.25
Q 58.2 63.25 58.45 62.9 58.5 62.85 58.5 62.8 58.1 62.4 58.45 62.6 58.7 62.6 58.7 62.25 58.3 61.85 58.7 61.1 58.45 60.7 58.75 60.5 58.7 60.2 58.4 59.85 58.8 59.75 58.3 59.55
L 58.5 59.25
Q 58.05 59.6 58.25 59 58.35 58.7 58.5 59.25
L 58.75 59.85
Q 59.1 59.6 58.75 59.2 58.7 59.2 58.65 59.25 58.8 58.7 59 59.2 59 59.25 59.05 59.35 59.3 59.15 59.5 59.25
L 59.55 59
Q 59.805859375 59.2986328125 60 59 60.28125 59.084375 59.75 59.35 59.7 59.4 59.7 59.5
M 48.15 50.05
Q 48.3 49.5 48.7 50.1 49 50.75 48.8 51.05 48.65 50.9 48.5 50.55 48.35 50.15 48.15 50.05
M 49.4 50.75
Q 49.75 50.15 49.75 51.05 49.75 51.85 49.4 50.75
M 47.95 60.25
Q 47.75 60.25 47.5 60 47.5 59.85 47.8 59.9 48.1 60.15 48.2 60.2 48.2 60.35 47.95 60.25
M 46.35 60
Q 46.2 60 45.85 59.75 45.95 59.55 46.2 59.7 46.5 59.85 46.65 59.9 46.65 60.15 46.35 60
M 50.05 65.3
Q 50.35 64.65 50.4 65.55 50.4 66.4 50.05 65.3
M 43.95 62.45
Q 44.1 62.15 44.3 62.45 44.55 62.75 44.65 62.9 44.55 63.15 44.35 62.9 44.2 62.75 43.95 62.45
M 46.45 71.35
Q 46.2 70.7 46.15 70.65 46.25 70.45 46.6 70.6 47 70.85 47.2 70.9 47.2 71.05 47 71.05 46.85 71.05 46.65 70.95 46.55 71.2 46.85 71.4 46.65 71.85 46.45 71.35
M 58.55 64.6
Q 59.1 64.45 58.75 64.85 59.15 65.3 58.85 65.2
L 58.5 64.95
Q 58.25 64.65 58.55 64.6
M 58.8 64.35
Q 58.2 64.7 58.7 64.25 59.45 64.05 58.8 64.35
M 55.95 64.9
Q 56 64.65 56.3 64.8 56.6 64.95 56.75 65 56.75 65.25 56.45 65.1 56.3 65.05 55.95 64.9
M 58.35 66.45
L 58.25 66.7 58.15 66.45 58.35 66.45
M 58.4 66.05
Q 58.6 66.5 58.25 66.2 58.15 66.15 58.05 66.1 58.2 65.7 58.4 66.05
M 58.3 65.35
Q 58.55 65.45 58.35 65.6 58.3 65.65 58.2 65.6 57.7 65 58.3 65.35
M 54.6 66.85
Q 54.55 66.8 54.55 66.7 55.2 67.3 54.6 66.85
M 54.75 64.9
Q 54.7 65.7 54.4 64.65 54.7 64 54.75 64.9
M 52.2 70.7
Q 52.2 71.55 51.8 70.45 52.2 69.85 52.2 70.7
M 52.75 69.1
Q 51.55 69.6 52.8 68.75
L 52.85 68.45
Q 53.7 68.75 52.75 69.1
M 52.05 72.45
Q 52.45 71.9 52.5 72.7 52.45 73.6 52.05 72.45
M 51.9 73.45
L 52.1 73.35
Q 52.15 73.4 52.25 73.45 52.0609375 73.402734375 52.2 73.7 52.158984375 73.6443359375 51.9 73.45
M 57.15 68.1
L 57.4 68.1 57.4 68.35 57.15 68.35 57.15 68.1 Z"/>
</g>
</defs>

<g transform="matrix( 1, 0, 0, 1, 0,0) ">
<use xlink:href="#Layer1_0_FILL"/>
</g>
</svg>
