
<svg xmlns="http://www.w3.org/2000/svg" version="1.1" xmlns:xlink="http://www.w3.org/1999/xlink" preserveAspectRatio="none" x="0px" y="0px" width="100px" height="100px" viewBox="0 0 100 100">
<defs>
<g id="Layer1_0_FILL">
<path fill="#000000" stroke="none" d="
M 41.25 23.9
Q 40.9 24 40.75 24.2 40.4 24.25 39.9 24.55
L 39.8 24.65 39.45 24.85
Q 39.3 24.85 39.25 24.95 39.15 24.95 38.5 25.35 37.4 25.85 36.65 26.55
L 36.6 26.65
Q 36.2 26.75 36 27.05 35.6 27.25 35.15 27.7 35.05 27.7 34.85 27.9
L 34.8 27.9 34.5 28.2
Q 33.4 29.1 32.7 29.9
L 32.65 30
Q 32.6 30 32.2 30.4 31.75 30.8 31.45 31.35 31.25 31.45 31.05 31.75 30.35 32.55 30.05 33
L 29.5 33.7 29.45 33.8
Q 28.6 34.8 28.1 35.8 27.65 36.45 27.6 36.7 27.45 36.75 27.45 36.95 27 37.6 26.95 37.85 26.45 38.55 26.2 39.55 26.1 39.6 26 39.8
L 25.4 41.6
Q 25.05 42.9 25.05 43.25
L 25.05 43.35 24.95 43.55 24.95 43.65 24.85 43.85 24.6 44.95
Q 24.35 46.55 24.4 46.9 24.25 47.25 24.3 47.35 23.7 48.6 23.55 49.15
L 23.45 49.4
Q 23.3 49.6 23.2 50.1 23.05 50.35 23.1 50.8 22.95 51 22.95 51.5
L 22.95 53.25
Q 22.65 54.55 22.65 55.1 22.65 56.3 22.4 57.05 22.3 57.3 22.45 57.4 22.75 57.6 22.85 58.1 22.95 58.3 23.1 58.3 23.55 58.3 23.45 58.7
L 23.45 59.15
Q 23.5 60 23.35 60.4 23.35 61.65 23.4 61.9 23.6 62.75 23.6 63.15 23.55 63.7 24 64.9 24 65.4 24.15 65.5 24.3 65.65 24.3 65.85 24.3 66.3 24.5 66.4 24.65 66.45 24.75 66.3 24.85 66.1 24.9 66.1
L 25.15 66.45 25.25 66.55 25.25 66.8
Q 24.95 66.95 24.95 67.7 24.8 67.75 24.95 67.85
L 25.05 67.95
Q 25.25 68.15 25.35 67.95 25.5 67.55 25.85 67.9 25.9 67.95 26.05 68.2 26.2 68.45 26.15 68.8 26.1 69.25 26.1 69.45 26.05 69.55 25.9 69.55 25.65 69.55 25.8 69.8 25.9 70 26.05 69.95 26.25 69.9 26.75 70.3 26.85 70.55 27 70.5 27.15 70.45 27.35 70.65 27.55 70.9 27.6 70.9
L 27.6 71
Q 27.6 71.2 27.8 71.3 27.9 71.3 28.05 71.05
L 28.2 70.85 28.4 70.85 28.6 71.2
Q 28.6 71.5 28.75 71.2 28.95 71.2 28.95 71 29.15 70.9 29.15 70.55 29.25 70.25 29.75 70 29.75 69.8 29.9 70.1 29.9 70.3 29.8 70.4 29.65 70.6 29.9 70.75 29.9 70.95 30.05 71.1
L 30.2 71.4
Q 30.25 71.65 30.5 71.5 30.65 71.5 30.65 71.3 30.7 71.2 30.85 71.2 31.35 71.7 31.4 72.1 31.3 72.1 31.15 72 31 71.9 30.9 71.95 30.85 72.05 31 72.95 31.1 73.45 31.1 73.55 31.05 73.7 31.2 73.75 31.3 73.8 31.45 73.75
L 31.6 73.7
Q 31.8 74.1 32.15 74.05 32.3 74 32.65 74.25 32.65 74.55 32.9 74.65 33.2 74.75 33.35 74.85
L 33.45 74.95
Q 33.7 75.1 33.8 75.05 33.85 75 33.95 74.75 34.05 74.25 33.95 74 33.85 73.7 33.35 73.5
L 33.25 73.4
Q 33.25 73.1 33.45 73.1 35.1 74 35.8 74.15
L 35.9 74.2
Q 36.05 74.35 36.3 74.35 36.4 74.45 36.5 74.4 36.65 74.55 36.85 74.55 37.35 74.6 37.8 74.85
L 39.85 75.85
Q 39.9 76.1 40.55 76.35 40.75 76.4 40.7 76.5 40.6 76.6 40.6 76.65 40.35 76.6 39.95 76.65 39.55 76.65 39.35 76.4
L 39.3 76.4
Q 39.15 76.45 38.8 76.45 38.45 76.45 38.3 76.55 38.25 76.55 38.05 76.5 37.9 76.45 37.85 76.55 37.65 76.9 37.7 76.95 37.75 77.1 38.1 77.1 38.35 77.1 38.4 76.95 38.45 76.85 38.7 76.85 38.8 77.25 39.05 77.2 39.75 77.2 39.9 77
L 40.1 77.1
Q 40.25 77.5 40.9 77.4
L 41.25 77.4
Q 41.35 77.5 41.35 77.45 41.6 77.35 42 77.3
L 42.7 77.3
Q 43.05 77.1 43.25 77.1
L 44.4 77.35 44.5 77.4 44.8 77.5
Q 45.75 77.65 46.2 77.75 47.75 78.1 48.85 78.1 48.9 78.15 49.3 78.15
L 50.95 78.2
Q 51.55 78.2 51.85 78.1 52.15 78.1 52.25 78 52.6 78.15 52.8 78 53 78 53.1 77.85
L 53.2 77.8 53.35 77.8 53.45 77.85
Q 54.05 77.75 54.45 77.65 54.45 77.6 54.5 77.5 55.3 77.3 55.15 77.5 55.2 77.5 55.25 77.5 57.45 76.8 58.45 76.2
L 58.7 76.1
Q 60.1 75.1 60.9 74.75
L 61.1 74.65 61.1 74.6 61.2 74.65 61.65 74.95
Q 62 75.5 62.7 75.4 62.8 75.5 63 75.5 63.3 75.5 63.45 75.65 63.6 75.8 64 75.8
L 65.85 75.8
Q 66.5 75.75 66.85 75.8 67.8 75.35 68.15 75
L 68.9 74.05
Q 69.55 73.05 70 72.6 70.15 72.35 70.15 72.15
L 70.45 72
Q 70.8 71.85 71 71.8 71.3 71.7 71.55 71.85 72.05 72.1 72.5 71.6 72.6 71.4 72.9 71.1 73.55 70 73.75 69.3 74.15 68 74.2 67.9 74.45 67.1 75 65.5
L 75.45 63.6
Q 75.75 62.4 75.7 61.3 75.7 60.65 75.85 60.05
L 75.9 60.05
Q 76.1 60.05 76.55 59.7 77 59.45 77 59.15 77.1 58.05 77.2 57.9
L 77.25 56.5
Q 77.3 55.95 77.3 54.8
L 77.25 54.45 77.25 54 77.5 52.75 77.5 51.25
Q 77.5 50.95 77.4 50.9 77.1 50.65 77.1 50.05
L 77.1 49.25
Q 77.1 48.7 77 48.6
L 77.05 48.3 77.2 48.25
Q 77.2 47.5 77 47.35 77 46.95 76.95 46.9
L 76.85 46.8
Q 76.85 46.05 76.65 45.6 76.45 45 76.1 43.6
L 75.6 40.55
Q 75.45 40 75.1 38.95
L 74.95 38.8
Q 74.55 37.55 74.5 37.5 74.2 37.15 74 36.6 73.9 36.3 73.7 35.7 73.4 34.95 73.05 34.7 72.85 34.6 72.85 34.45 72.85 34.2 72.5 33.85 72.4 33.75 72.35 33.8 72.25 33.8 72.25 33.95 72.25 34.15 72.6 34.75 72.9 35.25 72.85 35.45
L 73 35.8 73.2 36.05
Q 73.45 36.75 73.6 36.9 73.75 37 73.65 37.1 73.55 37.3 73.75 37.85 73.9 38.1 73.85 38.4
L 73.8 38.6 73.8 38.9
Q 73.85 39.15 73.9 39.35
L 73.9 39.4
Q 74.15 40.55 74.3 41.1 74.4 41.35 74.15 41.35 74.05 41.05 73.8 40.5 73.6 40 73.55 39.6 73.55 39.5 73.55 39.45
L 73.5 39.45
Q 73.25 39.45 73.1 39.45
L 73.1 39.5
Q 73.05 39.6 72.95 39.6 72.9 39.6 72.85 39.55 72.35 38.7 72.25 38.1 72.2 37.9 71.95 38.05
L 71.85 38.2
Q 71.6 38.45 71.5 38.45 71.4 38.45 71.2 38.15 70.95 37.8 71.1 37.6 71.1 37.55 71 37.3 70.9 37 70.95 36.9 71.05 36.55 70.65 36.2
L 70.45 35.75
Q 70.1 35.35 70.4 34.85 70.55 34.4 70.45 34.3 69.9 34.7 69.4 34.3 69.45 34 69.5 33.95 69.5 33.9 69.75 33.85 69.95 33.85 69.95 33.8 69.95 33.65 69.8 33.65 69.55 33.6 69.25 33.75 68.95 33.95 69.1 34.3
L 69.2 34.5 69.3 34.8
Q 69.3 35.1 69.1 35.15 68.8 35.2 68.8 35.65 68.65 35.65 68.35 35.35
L 68.3 35.1
Q 68.05 34.7 68.45 34.3 68.65 34.15 68.6 34.1 68.6 34.05 68.35 33.9 68.35 33.4 68.25 33.25 67.95 33 67.75 33.05 67.55 33.1 67.35 33.5 67.05 33.2 66.8 33.25
L 66.5 33.1
Q 66.3 32.8 65.9 32.9 65.9 33.15 66.05 33.3 66.25 33.45 66.25 33.8 66 33.85 65.85 33.6
L 65.55 33.2
Q 65.4 32.95 65.15 33.1 64.7 33.25 64.5 33.35
L 64.5 33
Q 64.55 32.7 64.25 32.7 64 32.7 64.1 32.95 64.15 33.25 63.85 33.25
L 63.85 33.15
Q 63.85 32.9 63.7 33
L 63.45 33.15
Q 62.95 33.4 62.9 32.9 62.9 32.55 62.7 32.5
L 62.7 32.4
Q 62.7 32.25 62.6 32.2 62.65 32 62.9 32 63.1 31.95 63.2 31.6 63.2 31.45 63 31.45 62.6 31.45 62.4 31.95
L 62.35 32.3
Q 61.9 32.5 61.75 32.7 61.65 32.8 61.5 32.65 61.5 32.55 61.15 32.4 60.75 32.25 60.9 31.9 61 31.55 60.75 31.35 60.65 31.25 60.55 31.3
L 60.5 31.45
Q 60.45 31.65 60.45 31.75 60.4 32 60.5 32.1 60.2 32.05 60.15 32.2
L 60.05 32.2 59.85 31.9
Q 59.9 31.65 59.5 31.5
L 59.6 31.45
Q 59.9 31.35 59.95 31.25 59.95 31.15 59.85 31.1
L 59.45 30.85
Q 59.25 30.65 59.1 30.75 58.85 31 58.7 30.65 58.65 30.55 58.4 30.4 58.35 30.35 58.3 30.35 58.25 30.35 58.25 30.45 58.2 30.55 58.05 30.55 57.85 30.45 57.4 30.55 57.3 30.45 57.35 30.4 57.55 30.25 57.55 30.2 57.55 30.15 57.35 30.05
L 57.2 29.9
Q 56.95 29.7 57.05 29.1 56.55 29 55.65 29.15
L 55.55 29.15
Q 55.4 28.85 55.05 28.85 54.9 28.85 54.8 28.8 54.8 28.9 54.55 29.1 53.8 29.7 54.1 28.8 54.55 28.7 54.7 28.7
L 54.7 28.65
Q 54.7 28.6 54.8 28.45 54.95 28.3 54.9 28.2
L 54.9 28
Q 54.95 27.95 55.1 27.85 55.2 27.75 55.1 27.6
L 55.1 27.55
Q 55.4 27.3 55.7 27.55 55.9 27.4 56 27.3 56.8 26.55 56.25 27.5 56.05 27.9 55.85 27.95
L 56.25 28.2
Q 56.3 28.4 56.65 28.4 57.15 28.4 57.35 28.65 57.5 28.85 58.45 29.2 59.05 29.45 58.95 28.75
L 58.9 28.4
Q 58.9 28.2 58.7 28.2
L 58.15 28.1 57.95 27.9 57.95 27.5 57.85 27.45
Q 57.85 27.25 58.05 27.25
L 58.15 27.35 58.3 27.4 58.7 27.45
Q 58.95 27.5 59.05 27.4 59.3 27.15 59.55 27.35
L 60.05 27.55
Q 60.5 27.75 60.35 28.3 60.25 28.35 60.4 28.5 60.5 28.7 60.55 28.75 60.6 28.75 60.8 28.65 61.05 28.55 61.05 28.45 61.1 28.35 60.9 28.1
L 60.8 28
Q 60.8 27.75 60.9 27.25 61.1 27.1 60.9 26.95 61.15 26.4 61.2 26.4
L 61.2 26.3 61.3 26.1 61.55 26.1 61.85 26.3
Q 61.85 26.5 61.95 26.55
L 62.65 26.9
Q 63.3 27.05 64.1 27.85 64.4 28.15 64.85 28.25 64.95 28.3 65 28.2 65.05 28.15 65 28.05 64.65 27.55 64.45 27.5 64.15 27.4 64.05 27.25 63.85 26.75 63.3 26.75 62.95 26.75 63.05 26.35 63.1 26.25 63.2 26.1 63.15 26.05 62.9 25.9 62.85 25.8 62.6 25.8 62.45 25.55 62.35 25.5 62.3 25.45 61.95 25.5
L 61.85 25.45
Q 62 25.3 61.9 25.15 61.3 24.55 60.5 24.4 60.3 24.4 60.15 24.3 59.6 23.75 58.9 23.6
L 58.75 23.45
Q 57.85 23.1 56.75 22.85 56.6 22.85 56.3 22.8 55.85 22.95 55.3 22.65
L 55.2 22.55
Q 54.65 22.4 53.45 22.3
L 53 22.25
Q 52.65 22 51.75 22 51.55 21.8 51.4 21.9 51.15 22 50.7 21.9
L 50.05 21.75
Q 49.55 21.75 48.55 21.85 48.15 21.85 48 22
L 45.95 22.25
Q 45.7 22.25 45.5 22.4
L 44.5 22.65
Q 43.9 22.7 43.25 23.05 43 23.05 42.85 23.25 42.2 23.35 42.1 23.5 41.5 23.7 41.25 23.9
M 53 31.7
Q 51.95 31.75 53 31.5 54.05 31.65 53 31.7
M 44.5 34.35
Q 43.8 34.95 44.1 34.05 45.25 33.75 44.5 34.35
M 58.25 48.8
Q 57.2 48.8 58.25 48.6 59.3 48.75 58.25 48.8
M 68.45 36.2
L 68.35 36.4 68.2 36.15 68.45 36.2
M 34.05 33.9
Q 33.95 33.55 33.85 33.45 34.1 33.25 34.3 33.5 34.5 33.75 34.35 33.95 34.05 34.1 34.05 33.9
M 38.45 52.3
Q 38.2 52.45 38.15 52.25 38.05 51.9 37.95 51.8 38.2 51.65 38.4 51.85 38.6 52.1 38.45 52.3
M 40.3 50.45
Q 39.25 50.5 40.3 50.25 41.35 50.4 40.3 50.45
M 37.35 51.15
Q 37.2 50.5 36.9 50.4 37.3 50 37.6 50.55 37.65 50.6 37.9 51.35 37.45 51.65 37.35 51.15
M 36.35 55.4
L 36.35 55.2 36.45 55.25 36.35 55.4
M 33.7 54.6
Q 33.15 55.35 33.35 54.2 34.2 53.8 33.7 54.6
M 33.65 61
Q 33.4 60.35 34.1 59.5 34.6 60.15 33.65 61
M 32.1 59.1
L 32.6 58.6
Q 33.5 59.2 32.85 59.8
L 32.1 59.1
M 25.15 60.25
Q 25.45 59.45 25.85 60.8 24.8 61 25.15 60.25
M 39.6 63.55
Q 39.5 63.35 39.35 63 39.7 62.8 39.8 63.1 39.95 63.5 40.05 63.65 39.7 63.85 39.6 63.55
M 33.85 63.95
Q 33.95 62.85 34.7 63.4 35.2 63.95 34.65 64.2 34.05 64.45 34.3 64.85 33.8 65.1 33.85 63.95
M 37.15 72.1
Q 37.25 71.4 37.2 71.35 37.45 71.2 37.85 71.45 38.25 71.85 38.45 72.05 38.3 72.15 38.05 72.05 37.95 72 37.7 71.8 37.45 72 37.7 72.3 37.1 72.65 37.15 72.1
M 73.95 50.65
Q 72.85 50.65 73.95 50.5 75 50.6 73.95 50.65
M 70.3 64.5
Q 70.65 64.95 70.15 64.85 69.45 64.8 69.35 65 69 64.4 69.55 64.45 70.25 64.55 70.3 64.5
M 65.2 71.5
Q 66.05 71.15 65.55 71.9 65 72.7 65.2 71.5
M 53 54.05
Q 53 53.65 52.85 53.45 53.35 53.05 53.5 53.75 53.65 54.45 53.1 54.65 53 54.45 53 54.05
M 54.45 55.05
Q 53.9 55.8 54.1 54.65 54.95 54.25 54.45 55.05
M 51.75 49.75
Q 50.7 49.8 51.75 49.6 52.8 49.7 51.75 49.75
M 56.5 61.3
Q 56.4 60.95 56.3 60.9 56.55 60.7 56.75 60.9 57 61.15 56.8 61.35 56.55 61.5 56.5 61.3
M 58.65 57.35
Q 58.55 57.15 58.75 57.15
L 58.9 57.2 58.8 57.6 58.65 57.35
M 44.15 61.75
Q 43.95 61.65 43.65 61.35 43.85 61.2 44.15 61.4 44.45 61.7 44.65 61.8 44.45 62 44.15 61.75
M 45.65 62.25
Q 45.85 62.1 46.15 62.3 46.45 62.6 46.6 62.7 46.4 62.85 46.15 62.65 45.95 62.55 45.65 62.25
M 45.4 73.9
Q 44.85 74.65 45.05 73.5 45.9 73.1 45.4 73.9
M 47.2 72.7
Q 45.15 72.65 47.45 72.4
L 47.7 72.15
Q 48.65 72.75 47.2 72.7
M 46.15 68.5
Q 45.65 69.25 45.85 68.1 46.7 67.7 46.15 68.5
M 54.2 70.2
Q 54.4 70.05 54.7 70.25 55.05 70.55 55.2 70.65 55 70.85 54.7 70.6 54.55 70.5 54.2 70.2
M 52.2 69.3
Q 53.05 68.9 52.55 69.7 52 70.45 52.2 69.3
M 58.35 70.95
Q 57.35 71 58.35 70.8 59.45 70.9 58.35 70.95
M 59.45 73.2
Q 60.5 73.3 59.45 73.35 58.4 73.35 59.45 73.2
M 44.5 75.85
Q 43.95 76.65 44.15 75.45 45 75.1 44.5 75.85 Z"/>
</g>
</defs>

<g transform="matrix( 1, 0, 0, 1, 0,0) ">
<use xlink:href="#Layer1_0_FILL"/>
</g>
</svg>
