
<svg xmlns="http://www.w3.org/2000/svg" version="1.1" xmlns:xlink="http://www.w3.org/1999/xlink" preserveAspectRatio="none" x="0px" y="0px" width="100px" height="100px" viewBox="0 0 100 100">
<defs>
<g id="Layer1_0_FILL">
<path fill="#000000" stroke="none" d="
M 87.35 42.05
Q 87.15 41.35 87.3 40.55 83.35 39.2 81.95 37.7 80 35.5 81.4 31.65
L 80.85 27.55 79 22.95 78.7 19.15
Q 75.8 18.6 74.55 18 72.35 17.05 72.3 14.3
L 70.1 12.2 70.1 12.3
Q 66.0177734375 11.819921875 63.35 11.5 63.7654296875 11.7115234375 63.05 11.95 62.1732421875 12.2421875 63 11.5 61.9939453125 11.3806640625 61.2 11.3 55.95 10.7 52.35 10.6 45.462109375 10.50625 41.8 12.25
L 41.85 12.25
Q 42.7 12.1 42.1 13.05 41.35703125 12.625390625 41.55 12.4 41.444140625 12.4484375 41.35 12.5 39.9 13.3 37.2 13.6 33.05 14.05 32.75 14.1 27.6 15.1 27.05 20.6 23.5 23.95 21.8 25.55 18.75 28.5 19.15 29.75 20.25 33.5 16.85 35.95 13 38.75 12.95 40.9
L 17.9 46.9 12.6 50.7 20.9 65.9 20.65 72.45 22.75 74.7 24.8 75.35 27.1 78.95 29.3 81.1 31.3 81.25 31.25 81.3 31.45 85.35
Q 35.103515625 85.35 34.35 88.25 34.65 88.2765625 34.65 88.6 34.8 89 34.8 89.2 34.55 89.2 34.4 88.9 34.4 88.678515625 34.3 88.35 34.1775390625 88.8509765625 33.9 89.45 37 89.5 37.6 87.4 37.65 87.4 37.85 83.2
L 38 83.3 38 83.25
Q 39.6 83.95 42.75 85.4 45.6 86.7 47.65 87.25 50.2744140625 87.9431640625 51.85 88.3
L 51.95 88.3
Q 52.55 88.45 52.8 88.35 53.8248046875 88.30546875 53.05 88.6 53.671875 88.758203125 53.95 88.8 57.6 89.5 58.55 88.45 60.5103515625 86.235546875 62.75 85.7 62.7548828125 85.596484375 63.15 85.3 63.5466796875 85.4802734375 63.65 85.6 64.1095703125 85.5732421875 64.55 85.6 66.15 85.65 70.7 87.35 71.25 83.65 76.05 78.55 80.6 73.7 80.75 69.9 80.3 69.2 80.5 68.4
L 78.95 68.15 76.65 68.15 78.75 52.95 80.7 53 81.35 51.15 83.1 50.85 85.5 46.55 87.35 42.05
M 81.9 43.4
Q 81 43.45 81.7 42.9 82.8 43.4 81.9 43.4
M 67.4 14.6
L 67.5 15.25 66.85 15.35 66.75 14.7 67.4 14.6
M 62 13.35
Q 62.7 14 62.45 14.3 62.3 14.5 61.65 13.5 61.05 12.7 62 13.35
M 69 17.8
Q 69.25 18.55 68.4 18.8 67.55 19.1 69 17.8
M 43.65 22.6
Q 43.9 22.6 43.95 22.9 43.95 23.25 43.7 23.3 43.4 23.2 43.5 23.05 43.65 22.75 43.65 22.6
M 59.55 16.4
L 59.3 14.15 61.4 16.2 60.45 16.6 59.55 16.4
M 51.45 29.85
Q 50.5 29.9 51.35 29.35 52.4 29.85 51.45 29.85
M 59.75 32.95
Q 58.95 32.35 59.9 32.8 60.65 33.6 59.75 32.95
M 47.7 46.45
Q 46.85 45.85 47.8 46.35 48.55 47.05 47.7 46.45
M 73.05 32.65
Q 72.15 32.95 73.05 32.1 73.95 32.35 73.05 32.65
M 71.65 35.6
Q 71.8 35.25 71.8 35.15 72.1 35.1 72.1 35.4 72.15 35.75 71.9 35.8 71.6 35.8 71.65 35.6
M 77.35 32.75
Q 78.05 32.9 78.4 33 78.15 33.5 77.3 33.15 76.45 32.85 76.05 33.35 76.1 33.2 76.3 32.8 76.5 32.5 76.55 32.25 76.8 32.55 77.35 32.75
M 70.2 25.3
Q 70.45 25.25 70.55 25.55 70.55 25.9 70.3 25.95 69.95 25.9 70.05 25.7 70.2 25.4 70.2 25.3
M 64 31.25
Q 64.6 31.4 64.9 31.35 65.95 31.25 64.95 31.65 64.1 32.1 64.2 31.5 63.75 31.25 64 31.25
M 62.45 31.4
Q 63.6 31.9 62.6 31.85 61.65 31.9 62.45 31.4
M 74.8 48.35
Q 74 47.75 74.9 48.25 75.7 48.95 74.8 48.35
M 78.25 49.45
Q 78.6 49.25 79.2 48.9 79.8 48.25 79.25 49.1 78.65 49.9 78.35 50.1 77.6 49.85 78.25 49.45
M 75.8 45.75
Q 74.95 45.15 75.9 45.6 76.65 46.35 75.8 45.75
M 38.4 17.95
Q 38.4 17.75 38.95 17.4 39.9 17.9 38.8 18.1 38.45 18.1 38.4 17.95
M 18.85 34.7
Q 18.85 34.65 19.45 34.85 19.65 35.3 19.05 35.5 18.15 35.85 19.15 35.25 18.75 34.8 18.85 34.7
M 26.45 41.7
L 27.15 41.6
Q 27.5 42.65 26.65 42.7
L 26.45 41.7
M 20.25 38.4
Q 21 37.9 20.45 39.2 19.55 38.7 20.25 38.4
M 24.65 47.6
Q 24.1 47.5 24.9 46.65 25.6 45.85 25.85 46.7 25.95 47.45 25.3 47.35 24.7 47.15 24.65 47.6
M 26.5 44.15
Q 26.7 43.5 27.75 43.3 27.75 44.1 26.5 44.15
M 35.45 40.05
Q 35.6 39.7 35.55 39.55 35.85 39.6 35.85 39.9 35.85 40.2 35.65 40.25 35.35 40.25 35.45 40.05
M 35.6 37.8
Q 36.15 37.75 36.05 38.4
L 35.8 39.2
Q 35.25 39.15 35.5 38.7 35.75 38.1 35.6 37.8
M 38.35 39.8
Q 39.1 40.55 38.25 39.95 37.4 39.35 38.35 39.8
M 30.5 38.65
Q 31.35 38.85 30.5 39.15 29.55 39.4 30.5 38.65
M 35.55 52.9
Q 35.6 53.35 35.7 53.5 35.4 53.5 35.35 53.15 35.25 53 35.2 52.55 35.45 52.55 35.55 52.9
M 34.35 51.2
Q 34.25 51.05 34.2 50.6 34.4 50.6 34.55 50.95 34.6 51.35 34.7 51.6 34.45 51.6 34.35 51.2
M 30.4 61.65
L 30.75 61.6
Q 31.1 62.7 30 61.75 28.4 60.45 30.4 61.65
M 31.75 57.8
Q 30.9 58.05 31.75 57.25 32.65 57.5 31.75 57.8
M 30.05 49.6
Q 29.95 50.05 29.9 50.2 29.55 50.15 29.6 49.85 29.7 49.6 29.75 49.25 30.2 49.35 30.05 49.6
M 22.9 54.55
Q 23.2 54.55 23.4 55 23.45 55.55 23.5 55.85 23.35 55.8 23.2 55.6 23.1 55.5 23.05 55.2 22.7 55.2 22.75 55.55 22.05 55.5 22.45 55.05 22.95 54.6 22.9 54.55
M 27.85 61.6
Q 26.95 61.85 27.8 61.05 28.75 61.25 27.85 61.6
M 25.9 62
Q 26.75 62.3 25.9 62.55 25 62.85 25.9 62
M 22.6 69.55
Q 22.9 69.6 22.9 69.9 22.95 70.2 22.7 70.25 22.4 70.25 22.5 70.05 22.65 69.7 22.6 69.55
M 29.65 70.45
Q 29.9 70.85 30.1 70.8 30.2 71.25 29.55 71.05 28.8 70.8 28.95 70.3 29.35 70.1 29.65 70.45
M 39.95 67.1
Q 40.75 67.85 39.85 67.2 39.05 66.65 39.95 67.1
M 37.05 64.05
Q 37.3 64.1 37.4 64.4 37.5 64.9 37.55 65 37.3 65.1 37.2 64.7 37.15 64.5 37.05 64.05
M 36.05 62.15
Q 36.95 62.35 36.05 62.65 35.2 62.9 36.05 62.15
M 33.05 72.9
Q 33.2 72.9 33.65 73.05 33.55 73.35 33.2 73.35 32.8 73.2 32.6 73.15 32.7 72.8 33.05 72.9
M 32.9 70.5
Q 32 70.55 32.8 70 33.9 70.5 32.9 70.5
M 40.05 74
Q 40.05 73.85 39.9 73.4 40.2 73.4 40.3 73.75 40.45 74.15 40.45 74.35 40.2 74.3 40.05 74
M 39.25 69.8
Q 38.45 69.15 39.35 69.7 40.1 70.4 39.25 69.8
M 37.65 78.6
Q 37.6 79 37.25 78.95 36.9 78.8 36.65 78.8 36.7 78.4 37.05 78.45 37.25 78.6 37.65 78.6
M 35.7 75.45
Q 36.65 75.7 35.75 76 34.85 76.25 35.7 75.45
M 33.8 82.75
Q 34.1 82.75 34.2 83.05 34.15 83.35 33.9 83.45 33.6 83.4 33.7 83.2 33.85 82.9 33.8 82.75
M 32.2 82.7
Q 32.35 82.45 32.3 82.25 32.65 82.25 32.7 82.6 32.7 82.9 32.4 83 32.1 82.95 32.2 82.7
M 36.65 80.85
Q 36.8 80.15 37.5 80.05 37.4 80.8 36.65 80.85
M 71.05 58.55
Q 71 58.35 70.9 57.9 71.2 57.95 71.25 58.25 71.4 58.7 71.4 58.85 71.15 58.9 71.05 58.55
M 71.3 51.6
Q 72.05 52.35 71.2 51.75 70.35 51.1 71.3 51.6
M 64.65 60.8
Q 63.75 60.15 64.75 60.7 65.5 61.4 64.65 60.8
M 66.9 72.65
Q 66.05 72.9 66.9 72.15 67.85 72.4 66.9 72.65
M 64.05 69.15
Q 64.2 68.4 64.85 68.3 64.8 69.05 64.05 69.15
M 64.75 70.55
Q 64.9 70.15 64.85 70.05 65.2 70.05 65.25 70.4 65.25 70.7 65 70.7 64.65 70.7 64.75 70.55
M 73.9 65.45
Q 73.6 66.25 73 65.7 72.25 65 72.1 65 72.25 64.55 72.85 65 73.55 65.65 73.9 65.45
M 75.2 64.95
Q 75.05 65.65 74.25 65.75 74.45 65 75.2 64.95
M 53.5 49.55
Q 54.3 50.3 53.4 49.7 52.6 49.05 53.5 49.55
M 46.55 52.3
Q 45.7 52.5 46.55 51.75 47.45 51.95 46.55 52.3
M 46 50.6
Q 46.25 50.25 46.3 50.05 46.95 50.05 46.6 50.7 46.3 51.3 45.75 51.15 45.75 50.9 46 50.6
M 44.35 58.45
Q 44.45 58.15 44.4 58.05 44.75 58.05 44.8 58.35 44.85 58.7 44.55 58.7 44.25 58.65 44.35 58.45
M 44.95 72.4
Q 44.05 72.7 44.95 71.9 45.8 72.1 44.95 72.4
M 52.65 69
Q 53.15 69.5 53.25 69.5 53.25 70.1 52.9 69.65 52.4 69.2 52.2 69.3 52.3 68.6 52.65 69
M 52.3 78.35
Q 52.25 78.1 52.15 77.7 52.45 77.7 52.5 78.05 52.55 78.5 52.6 78.65 52.4 78.7 52.3 78.35
M 58.05 82.35
Q 58.3 82.25 58.85 82.2 58.95 81.6 58.95 82.15 58.8 82.8 58.15 82.6 57.7 82.55 58.05 82.35
M 50.2 77.2
Q 49.8 77.05 49.65 77.05 49.65 76.65 50 76.75 50.2 76.75 50.65 76.9 50.55 77.25 50.2 77.2
M 49.95 79.1
Q 51 79.55 50.1 79.6 49.15 79.6 49.95 79.1
M 44.4 78.05
Q 43.55 77.4 44.5 77.9 45.25 78.6 44.4 78.05
M 42 76.05
Q 42.45 76.85 42.6 76.75 42.55 77.05 42.25 76.95 41.85 76.9 41.6 77 41.75 76.6 41.75 76.45 41.75 76.25 41.5 76.3 41.65 75.45 42 76.05
M 50.4 85.8
Q 49.5 85.85 50.25 85.35 51.35 85.8 50.4 85.8
M 45.65 80.5
Q 46.7 80.95 45.8 81 44.85 80.95 45.65 80.5 Z"/>
</g>
</defs>

<g transform="matrix( 1, 0, 0, 1, 0,0) ">
<use xlink:href="#Layer1_0_FILL"/>
</g>
</svg>
