
<svg xmlns="http://www.w3.org/2000/svg" version="1.1" xmlns:xlink="http://www.w3.org/1999/xlink" preserveAspectRatio="none" x="0px" y="0px" width="100px" height="100px" viewBox="0 0 100 100">
<defs>
<g id="Layer1_0_FILL">
<path fill="#000000" stroke="none" d="
M 48.5 19.4
Q 44.3 20.6 42.15 20.85 32.1 22.05 28.55 24.4 24.35 27.2 22 35.45 21.05 38.9 20.6 44.2 20.35 47.2 19.9 53.15
L 20.15 72.1 21.95 74.65 26.5 72.35 37.1 78.95 39.2 81.15 43.5 76.8 43.55 76.85 43.55 76.8
Q 42.95 75.95 42.65 75.35
L 43.4 74.8 43.55 76.8 63.55 76.8 63.55 72.85 73.5 72.45 73.65 78.9 78.1 72.45 80.05 72.6 79.65 51.35 74.05 44.05
Q 74.05 43.15 73.75 42.3
L 75.9 33.7
Q 74.6 32 74 31.15 72.85 29.65 72.25 28.55 70.95 26.05 69.15 25.8 67.55 25.55 65.25 27.05 64.25 23.7 61.3 21.85 59.5 20.7 55.2 19.35 52.35 18.5 48.5 19.4 Z"/>
</g>
</defs>

<g transform="matrix( 1, 0, 0, 1, 0,0) ">
<use xlink:href="#Layer1_0_FILL"/>
</g>
</svg>
