
<svg xmlns="http://www.w3.org/2000/svg" version="1.1" xmlns:xlink="http://www.w3.org/1999/xlink" preserveAspectRatio="none" x="0px" y="0px" width="100px" height="100px" viewBox="0 0 100 100">
<defs>
<g id="Layer1_0_FILL">
<path fill="#000000" stroke="none" d="
M 85.6 64.3
Q 86.1 63.1 85.75 60.9 85.4 58.6 85.7 57.6 86.5 54.9 86.5 51.15 86.4 46.85 86.4 44.7 86.35 36.9 80.25 29.55 78.95 27.95 78.4 27.1 77.55 25.7 77.3 24.3 77.1 23.3 75.95 21.55 75.75 21.25 75.3 20.9 74.8 20.55 74.5 20.3
L 72.65 20.65
Q 72.810546875 20.789453125 72.7 20.9 72.45 21.15 72.4 21.3 72.15 21.2 72.2 20.9 72.2283203125 20.815234375 72.25 20.75
L 70.35 21.15 64.85 18.7
Q 64.35 17.9 64.1 15.85 63.85 13.95 63.05 12.95
L 60 11.65
Q 59.45 11.4 57.95 12 57.3142578125 12.2689453125 56.75 12.2 57.1376953125 12.397265625 56.45 12.55 55.8662109375 12.0005859375 56.05 12 55.9109375 11.89296875 55.75 11.75 55 7.75 50.55 6.65 48.8 7.4 48.5 7.55 47.3 8.25 46.25 9.55 45.9 9.9 45.85 11.95 45.75 14 44.7 14.85 43.35 15.15 41.5 14.75 39.5 14.25 38.5 14.1 34.75 13.55 33.05 13.55 30 13.55 27.6 14.75 26.7 15.2 25.55 16.1 24.35 17.15 23.65 17.65 22.95 18.15 21 18.05 19.2 17.95 18.4 18.8 18.2 19 17.1 20 16.4 24.35 15.5 27.25 13.45 33.5 13.4 39.25 13.4 43.95 14.85 49 15.75 52.2 17.55 58.5 19.05 64 19.8 67.95 25.1 70.25 26.3 71.45 27.55 72.65 29.55 77.6 34.05 76.45 37.8 78.05 39.95 81.95 40.15 82.25 40.25 82.45 40.55 82.6 40.75 82.7 41.1 82.9 41.95 83.15 43.45 82.4 44.95 81.65 45.85 82 47.2 82.9 47.6 85.35 48.05 88.15 48.65 88.95 50.05 88.45 49.75 86.95 49.4 85.25 50.05 84.8 50.35 84.8 50.95 84.85 51.45 84.75 51.7 84.2 51.85 82.65 51.95 81.85 52.1 80.45 52.35 79.5 52.8 78.3 53.05 77.95 53.7 77.15 54.8 77.4 55.7 78.55 56.2 80.8 56.75 83.5 57.15 84.3
L 60.2 85.25 62.2 93.4
Q 62.9 92.65 63.05 91.7 63.05 91.45 63 90.15 62.85 86.9 64.55 84.65 65.823828125 82.9517578125 68.3 81.65 68.1904296875 81.558203125 68 81.3 68.9 80.5 68.75 81.35 68.7458984375 81.42265625 68.75 81.45 68.98828125 81.364453125 69.25 81.25 70.35 80.8 72.25 80.75 74.4 80.75 75.2 80.55 76.75 78.05 77 77.4 77.3 76.65 77.3 74.9 77.35 72 77.45 71.25 77.75 69.2 78.75 67.85 81.85 67 82.7 66.55 83.6 66.1 85.6 64.3
M 84.7 45.6
Q 85.65 45.65 84.5 46.1 83.75 45.65 84.7 45.6
M 60.9 23.15
Q 61.05 22.9 61.25 23.1 61.7 23.3 61.95 23.3 61.65 23.6 61.6 23.75 61.5 23.95 61.8 24 61.35 24.7 61.25 24.1 61.1 23.15 60.9 23.15
M 66.7 23.4
Q 66.55 23.25 66.2 23 66.4 22.7 66.65 22.85 67 23.15 67.15 23.2 67 23.55 66.7 23.4
M 67.9 21.25
Q 67.5 21.9 66.75 21.7 67.15 21.05 67.9 21.25
M 48.15 12.85
Q 47.85 12.9 47.35 12.75 47.05 13.25 47.15 12.75 47.55 12.15 48.1 12.55 48.5 12.8 48.15 12.85
M 52.05 18.15
Q 52.25 18.15 52.25 18.55 52.2 18.8 52.15 19.15 51.95 19.1 51.95 18.75 52.05 18.3 52.05 18.15
M 53.35 20.4
Q 53.55 20.1 53.8 20.3 54.2 20.55 54.35 20.6 54.2 21 53.85 20.75 53.7 20.7 53.35 20.4
M 59.65 21.4
Q 60.25 22.25 59.45 21.55 59 20.6 59.65 21.4
M 54.75 18.1
Q 55.6 18.35 54.7 18.6 53.85 17.8 54.75 18.1
M 59.25 18.15
Q 60.1 18.5 59.25 18.7 58.35 17.85 59.25 18.15
M 57.15 27.05
Q 56.35 26.55 57.25 26.55 58.25 26.55 57.15 27.05
M 60.25 33.2
Q 59.7 32.2 60.35 33.1 60.95 33.95 60.25 33.2
M 48.45 26.55
Q 48.65 26 48.85 26.55 49.15 27.15 49.4 27.1 49.05 27.7 48.8 27.25 48.55 26.6 48.45 26.55
M 49.15 46.75
Q 48.8 47 48.7 47.25 48.1 47.05 48.6 46.55 49.15 46.05 49.6 46.4 49.5 46.55 49.15 46.75
M 49.2 45
Q 50.1 45.05 49.05 45.55 48.2 45.05 49.2 45
M 41.85 45.2
Q 42.45 46.1 41.7 45.35 41.25 44.4 41.85 45.2
M 60.05 47.85
Q 60.05 48.1 60 48.5 59.8 48.4 59.75 48 59.85 47.6 59.85 47.45 60.1 47.5 60.05 47.85
M 53.25 39.9
Q 53.1 40.15 53.1 40.3 52.75 40.2 52.85 39.95 52.9 39.55 53.15 39.65 53.45 39.75 53.25 39.9
M 77.45 36.5
Q 77.2 36.35 77.3 36.05 77.35 35.8 77.55 35.8 77.85 35.9 77.75 36.1 77.5 36.35 77.45 36.5
M 71.35 32.8
Q 71.95 33.3 71.65 33.75 71.25 33.8 71.15 33.4 71 32.95 70.75 32.9 70.8 32.4 71.35 32.8
M 67 26.65
Q 66.15 26.15 67.15 26.15 68.05 26.2 67 26.65
M 68.15 29.65
Q 68.35 29.35 68.7 29.5 69 29.75 69.2 29.8 68.95 30.15 68.65 30 68.5 29.9 68.15 29.65
M 62.4 26.6
Q 62.4 26.8 62.3 27.25 62.05 27.15 62.1 26.8 62.1 26.4 62.1 26.15 62.4 26.25 62.4 26.6
M 62.05 36.35
Q 62.1 36.5 62.05 36.95 61.75 36.9 61.8 36.55 61.85 36.05 61.85 35.9 62.15 35.95 62.05 36.35
M 68 32.25
Q 68.9 32.5 67.95 32.75 67.1 31.95 68 32.25
M 61.8 30.85
Q 62.4 31.75 61.65 30.95 61.2 30 61.8 30.85
M 69.75 42.85
Q 68.95 42.4 69.9 42.35 70.8 42.4 69.75 42.85
M 67.55 41.45
L 67.15 41.35
Q 67.2 40.2 67.95 41.5 69 43.25 67.55 41.45
M 62.35 39.15
Q 61.55 38.65 62.5 38.65 63.45 38.7 62.35 39.15
M 64.85 45.1
Q 64 44.65 64.95 44.65 65.9 44.7 64.85 45.1
M 72 42.05
Q 73 42.05 71.9 42.55 71.15 42.05 72 42.05
M 28.5 24.45
Q 28.05 23.6 27.65 23.7 28.2 23 28.6 23.7 29.05 24.65 29.2 24.65 28.9 25.1 28.5 24.45
M 26.2 23.75
Q 26.65 23.1 27.4 23.3 26.95 23.9 26.2 23.75
M 36.4 19.6
Q 35.6 19.05 36.55 19.15 37.5 19.2 36.4 19.6
M 37.05 23.95
Q 37.4 23.25 38.15 23.4 37.8 24.05 37.05 23.95
M 37.7 22.25
Q 37.35 22.2 37.45 21.85 37.5 21.55 37.75 21.65 38.1 21.7 37.9 21.9 37.65 22.1 37.7 22.25
M 19.7 27.5
Q 19.35 27.4 19.4 27.1 19.45 26.85 19.75 26.85 20.05 26.95 19.9 27.15 19.65 27.35 19.7 27.5
M 18.75 28.8
L 18.4 28.75
Q 18.4 27.6 19.1 28.85 20.15 30.55 18.75 28.8
M 19.4 41.75
Q 20 42.5 19.3 41.8 18.8 40.85 19.4 41.75
M 18.3 37.35
Q 17.9 37.45 17.2 37.6 16.5 38.05 17.25 37.4 18.05 36.85 18.4 36.8 19.1 37.2 18.3 37.35
M 34.7 31.15
Q 34.25 30.25 34.85 31.05 35.45 32 34.7 31.15
M 21.9 26.85
Q 21 26 21.85 26.35 22.75 26.65 21.9 26.85
M 28 31.75
Q 27.7 31.65 27.8 31.35 27.85 30.9 27.8 30.7 28.1 30.75 28.05 31.15 28.05 31.3 28 31.75
M 21.15 39.55
Q 21.8 40.4 21 39.6 20.55 38.7 21.15 39.55
M 25.7 37.55
Q 26.3 38.4 25.6 37.65 25.1 36.7 25.7 37.55
M 25.85 59.25
Q 25.35 58.9 25.05 58.85 24 58.6 25.1 58.55 26.05 58.45 25.75 58.95 26.05 59.3 25.85 59.25
M 27.35 59.6
Q 26.45 58.8 27.35 59.05 28.3 59.4 27.35 59.6
M 37.25 65.15
Q 36.3 64.35 37.25 64.65 38.15 64.9 37.25 65.15
M 30.4 58.95
Q 31 59.8 30.25 59.05 29.75 58.1 30.4 58.95
M 20 52.65
Q 19.75 52.95 19.75 53.05 19.45 52.95 19.55 52.65 19.65 52.3 19.85 52.4 20.15 52.5 20 52.65
M 17.7 55
Q 18.7 55 17.6 55.45 16.8 54.95 17.7 55
M 72.25 50.6
Q 72 50.45 72 50.05 72.05 49.45 72.15 49.15 72.3 49.25 72.4 49.5 72.4 49.65 72.35 49.95 72.65 50.05 72.75 49.65 73.4 50 72.9 50.25 72.25 50.55 72.25 50.6
M 64.25 52.45
Q 64.6 52.6 64.4 52.85 64.3 53.05 64.05 53.35 63.75 53.2 63.9 52.95 64.15 52.55 64.25 52.45
M 64.05 61.45
Q 64.05 60.3 64.9 60.55
L 64.75 61.55 64.05 61.45
M 64 59.65
Q 64.25 58.9 65.45 59.25 65.1 59.8 64 59.65
M 67.85 57.45
Q 66.85 57.95 66.95 57 67.15 56.3 67.65 56.65 68.15 57 68.35 56.6 68.85 56.85 67.85 57.45
M 69.55 65.9
Q 70.3 66.65 69.5 66.8 68.65 66.9 69.55 65.9
M 70.1 72.15
Q 69.85 72.45 69.8 72.55 69.5 72.45 69.6 72.2 69.7 71.8 70 71.9 70.2 72 70.1 72.15
M 69.15 70.3
Q 69.1 69.9 69.75 69.9 70.7 69.8 69.6 70.05 69.75 70.65 69.65 70.75
L 69.15 70.3
M 72.75 72.7
Q 72.45 72.7 71.95 72.55 72.2 72 72.5 72.1 72.95 72.4 73.35 72.5 73.2 72.75 72.75 72.7
M 60.4 50
Q 60.4 50.2 60.35 50.65 60.1 50.55 60.1 50.2 60.2 49.8 60.2 49.55 60.45 49.65 60.4 50
M 53.05 59.4
Q 53.6 60.25 52.85 59.5 52.45 58.55 53.05 59.4
M 55.1 60.95
Q 55.6 61.1 55.2 61.5 54.75 61.95 54.85 62.25 54.3 62.15 54.55 61.6 54.6 61.55 55.1 60.95
M 55.25 60.2
Q 55.35 59.95 55.6 59.9 55.85 60.1 55.7 60.25 55.5 60.5 55.45 60.65 55.2 60.5 55.25 60.2
M 46.2 50.15
Q 46.85 51.05 46.05 50.25 45.6 49.35 46.2 50.15
M 42.55 73.65
Q 42.3 73.95 42.25 74.1 42 73.95 42.05 73.65 42.15 73.4 42.45 73.35 42.7 73.55 42.55 73.65
M 60.1 62.65
Q 61.05 62.7 59.95 63.2 59.2 62.7 60.1 62.65
M 58.45 82.1
Q 58 82.65 56.95 82.55 57.2 81.75 58.45 82.1
M 45.7 80.15
Q 45.7 80.35 45.05 80.5 44.3 79.7 45.35 79.85 45.7 80 45.7 80.15
M 74.45 75.8
Q 74.3 75.8 74.25 75.4 74.35 74.95 74.35 74.75 74.55 74.85 74.6 75.2 74.55 75.4 74.45 75.8
M 74.35 76.9
Q 73.45 76.05 74.35 76.3 75.25 76.65 74.35 76.9
M 67.45 80.2
Q 67 79.25 67.6 80.1 68.2 80.95 67.45 80.2
M 68.1 76.45
Q 68.85 77.2 68 77.4 67.2 77.55 68.1 76.45
M 66.3 79.15
Q 67.3 79.15 66.2 79.65 65.35 79.1 66.3 79.15 Z"/>
</g>
</defs>

<g transform="matrix( 1, 0, 0, 1, 0,0) ">
<use xlink:href="#Layer1_0_FILL"/>
</g>
</svg>
