
<svg xmlns="http://www.w3.org/2000/svg" version="1.1" xmlns:xlink="http://www.w3.org/1999/xlink" preserveAspectRatio="none" x="0px" y="0px" width="100px" height="100px" viewBox="0 0 100 100">
<defs>
<g id="Layer1_0_FILL">
<path fill="#000000" stroke="none" d="
M 53.45 79.4
Q 53.55 79.1 53.35 79.05 53.05 79 52.95 79.3 52.75 79.7 53.25 80
L 53.45 79.4
M 72.2 70.85
Q 72.35 71 72.45 70.95 72.8 70.85 72.85 70.7 73.3 70 72.65 69.45 72.25 69.9 72.1 70.55 72.05 70.7 72.2 70.85
M 71.75 68.75
Q 71.3 68.75 71.3 69.25 71.4 69.55 71.6 69.55 72.05 69.55 72 69.05 72 68.75 71.75 68.75
M 74.6 69.25
Q 74.75 68.9 74.4 68.75 74.252734375 68.6580078125 74.1 68.55 73.928515625 68.4935546875 73.75 68.4 73.227734375 68.2107421875 72.65 68.15
L 72.5 68.2 72.5 68.4 73.75 69.45 73.8 69.5 74 69.55
Q 74.0517578125 69.562890625 74.1 69.55 74.42578125 69.5982421875 74.6 69.25
M 75.15 65.4
Q 75.4 65.3 75.35 65.15 75.35 64.7 75 64.8 74.75 64.8 74.75 65.05 74.75 65.4 75.15 65.4
M 76.4 66.05
Q 76.5 65.6 76 65.5 75.8 65.45 75.55 65.7 75.3 65.9 75.3 66.15 75.3 66.6 75.8 66.6 76 66.65 76.2 66.45 76.4 66.3 76.4 66.05
M 77.4 60.1
Q 77.3 59.6 77.05 59.7
L 76.95 59.9
Q 77.05 60.3 77.3 60.3
L 77.4 60.1
M 30.6 74.8
Q 30.7 74.5 30.4 74.4 29.9 74.05 29.5 74.5 29.1 75 28.6 75.05 28.25 75.1 28.35 75.5 28.4 75.6 28.8 76.65 29.05 77.35 29 77.85 29 78.1 29.3 78.2 30.2 78.4 30.7 78.05 31.05 78.15 31.1 77.95 31.15 77.8 31.05 77.45 30.85 76.85 30.6 76.35 30.1 75.4 30.6 74.9
L 30.6 74.8
M 39.75 78.55
Q 39.8 78.35 39.55 78.1 39.15 77.55 38.8 77.9 38.65 78.05 38.75 78.25 38.8 78.35 38.95 78.5
L 39.05 78.75 39.15 78.85
Q 39.4 79.1 39.55 79 39.75 78.95 39.75 78.55
M 36.95 78.75
Q 36.65 79.05 36.7 79.2 36.8 79.95 37 80.6 37.05 80.75 37.25 80.85 37.45 80.95 37.6 80.85 37.85 80.65 37.8 80.45 37.6 80 38.05 79.6 38.35 79.2 38.2 78.95 37.8 78.45 37.3 78.4 37.2 78.4 36.95 78.75
M 20.15 73.85
Q 19.9 73.85 19.75 74.1 19.6 74.35 19.7 74.55 19.75 74.8 20.15 75.1 20.3 75.2 20.5 75.15 20.75 75.05 20.8 74.85 20.9 74.55 20.65 74.25 20.45 73.95 20.15 73.85
M 18.05 70.15
Q 18.05 69.8 17.75 69.8 17.45 69.8 17.45 70.2
L 17.45 70.85
Q 17.45 71.25 17.55 71.35 17.75 71.45 17.75 71.4 18.015234375 70.86953125 18.05 70.3 18.05 70.225390625 18.05 70.15
M 17.35 66.55
Q 17.65 66.3 17.6 65.95 17.6 65.55 17.25 65.55 16.95 65.5 16.95 65.9
L 16.95 66.4 16.9 66.35
Q 16.9 66.45 16.95 66.5
L 17.05 66.7 17.35 66.55
M 16 59.65
Q 15.8 59.55 15.8 59.75
L 15.9 59.95 16.1 59.85 16 59.65
M 18 54.05
Q 18.05 53.8 17.8 53.7 17.2 53.5 16.95 54.1 17.7 54.25 17.75 54.25
L 18 54.05
M 16.35 55.55
Q 16.25 55.15 15.95 55.2 15.75 55.2 15.75 55.45 15.75 55.8 16.15 55.8 16.35 55.7 16.35 55.55
M 16 54.15
Q 16.25 54.95 16.9 54.1
L 16.45 53.75
Q 16.1 53.65 16 53.8 15.9 54 16 54.15
M 16.35 52.15
L 16.25 52
Q 15.9 51.95 16 52.3
L 16.1 52.45
Q 16.35 52.45 16.35 52.15
M 25.1 71.8
L 25.1 74.15
Q 25.4626953125 73.85546875 25.65 73.2 25.85 72.5 25.7 72 25.6 71.75 25.45 71.7 25.275 71.65625 25.1 71.8
M 20.65 68.75
L 20.75 68.6 20.65 68.45 20.45 68.55
Q 20.45 68.75 20.65 68.75
M 22.15 68.95
L 21.95 69
Q 21.85 69.25 22.1 69.25
L 22.25 69.1 22.15 68.95
M 22.9 70.3
Q 22.8 69.875 22.8 69.45 22.3 69.75 22.25 69.9 22.208984375 69.98203125 22.25 70.3 22.28203125 70.3693359375 22.3 70.45 22.35 70.6 22.45 71 22.5 71.15 22.85 71.25 22.95 71.35 23.05 71.25
L 23.15 71.05
Q 22.9859375 70.675 22.9 70.3
M 26.85 67.05
Q 26.7 66.9 26.6 67.15
L 26.75 67.3 26.9 67.2 26.85 67.05
M 23.3 39
Q 23.3 38.7 22.9 38.6 22.45 38.55 22.35 39.1 22.35 39.4 22.55 39.45 22.75 39.55 23 39.4 23.25 39.25 23.3 39
M 25.4 32.85
L 25.55 33
Q 25.6 33.05 25.65 33.05 25.7 33.05 25.7 32.95 25.8 32.9 25.65 32.75
L 25.4 32.85
M 26.2 33.05
Q 25.6 33.65 25.75 33.95 25.9 34.2 25.75 34.35 25.7 34.4 25.45 34.5 25.2 34.65 25.35 34.95 25.45 35.2 25.7 35.05 26.4 34.8 26.45 34.5 26.5 34.15 26.8 33.85 27.2 33.6 27.4 33.4 27.25 33.3 26.9 33.25 26.55 33.25 26.4 33.05 26.4 33 26.2 33.05
M 25.75 31.75
L 25.65 31.55
Q 25.45 31.45 25.45 31.6 25.4 31.65 25.55 31.8 25.65 32 25.75 31.75
M 27.7 31.1
Q 27.45 31.1 27.35 31.35 27.35 31.6 27.5 31.65 27.8 31.75 27.9 31.3 27.9 31.1 27.7 31.1
M 21.65 35.4
Q 21.65 35.65 22 35.65 22.25 35.55 22.25 35.4 22.25 35.15 21.95 35.05 21.65 35.15 21.65 35.4
M 20.7 31.65
Q 20.6 31.85 20.85 31.85
L 21 31.75 20.9 31.55 20.7 31.65
M 24.5 33.55
Q 24.5 33.25 24.2 33.3
L 23.95 33.55
Q 23.95 33.85 24.25 33.85 24.5 33.9 24.5 33.55
M 23.9 28.9
Q 23.5 29 23.4 29.2 23.35 29.35 23.55 29.65
L 23.75 29.8
Q 24 30 24.15 29.85
L 24.3 29.55 24.3 29.3
Q 24.1 28.9 23.9 28.9
M 24.9 28.25
Q 25.25 28.25 25.25 27.85 25.15 27.65 25 27.65 24.6 27.75 24.65 28.05 24.65 28.25 24.9 28.25
M 21.8 29.75
Q 21.65 29.9 21.9 30 22.1 30 22.2 29.85
L 22.1 29.7
Q 21.9 29.5 21.8 29.75
M 23.9 27.65
Q 23.9 27.4 23.7 27.4 23.35 27.2 23 27.4 22.7 27.55 22.65 27.95 22.65 28 22.8 28.15
L 23.7 27.9
Q 23.9 27.9 23.9 27.65
M 26.5 29.25
L 26.3 29.3
Q 25.9 29.2 25.8 29.6
L 25.55 30
Q 25.4 29.85 25.35 29.9 24.65 30.4 24.2 30.35 24 30.3 23.9 30.55 23.8 30.75 23.9 31 24 31.3 24.5 31.15
L 24.8 30.95
Q 25.4 31.1 26 30.75
L 26.35 30.9
Q 26.85 31 27.1 30.6 27.2 30.3 27.15 30.2 27.15 30.1 26.75 29.75 26.75 29.4 26.5 29.25
M 34.05 30.5
Q 33.7 30.5 33.7 30.85 33.7 31.1 33.85 31.1 34.2 31.15 34.3 30.8 34.35 30.6 34.05 30.5
M 32.55 29.8
Q 32.35 30.1 32.7 30.2 33.15 30.3 33.35 30.05 34.3 28.9 34.9 28.5 35.2 28.35 35 28.05 34.25 27.2 33.05 27.25
L 32.85 27.4 33 27.55
Q 33.35 27.65 33.15 27.9 32.6 28.5 31.95 28.15
L 31.2 27.55 31.25 28.75
Q 31.35 29.4 31.85 29.15 32.5 28.95 33.1 29.3
L 32.55 29.8
M 30.4 27.35
Q 30.6 27.55 31.2 27.55 30.85 27.1 31.4 26.2 31 26.45 30.65 26.3
L 30.05 25.9 29.6 25.7
Q 29.3 25.6 29.25 25.9 29.15 26.15 29.2 26.45 29.25 26.65 29.4 27 29.55 27.55 29.95 27.25 30.1 27.15 30.4 27.35
M 32.3 26.15
L 32.15 26
Q 31.95 26 31.95 26.25
L 32 26.55 32.15 26.7
Q 32.35 26.7 32.4 26.4
L 32.3 26.15
M 32.8 25.45
Q 32.7 25.25 32.55 25.3
L 32.45 25.5
Q 32.55 25.95 32.8 26.1 33 25.9 32.8 25.45
M 15.6 47.8
Q 16.05 47.65 15.95 47.1
L 15.75 46.7 15.55 46.55
Q 15.3 46.7 15.3 46.75 15.2 46.9 15.2 47.2 15.2 47.9 15.6 47.8
M 17.6 47.1
L 17.4 47.2
Q 17.35 47.2 17.2 47.45 17.1 47.6 16.85 47.5 16.55 47.4 16.5 47.45 16.45 47.5 16.45 47.75
L 16.4 49.1
Q 16.45 49.6 15.9 49.5 15.5 49.4 15.5 49.8
L 15.45 50.8
Q 15.5 51.15 16.05 51.15 16.35 51.1 16.35 50.7 16.35 50.4 16.4 50.35 16.45 50.3 16.75 50.35 17.5 50.35 17.4 49.7 17.15 48.75 17.15 48.65 17.15 48.15 17.4 48 17.6 48.35 17.8 48.05 18.15 47.55 17.6 47.1
M 19.85 41.55
L 19.95 41.45 19.95 41.35
Q 19.7 41 18.9 40.75
L 18.75 40.7
Q 18.75 40.8 18.7 40.8 18.6 40.95 18.7 41.05 19.05 41.45 19.85 41.55
M 17.3 40.3
Q 17.25 40.65 17.6 40.75 17.8 40.8 17.95 40.65 18.1 40.5 18.1 40.3 18.05 40.05 17.65 40.05 17.3 40.15 17.3 40.3
M 18 35.65
Q 18 35.9 18.2 36.05 18.3 36.1 18.4 36 18.5 35.9 18.5 35.8 18.5 35.55 18.25 35.45 18 35.45 18 35.65
M 19.5 33.9
L 19.3 33.75
Q 19.05 33.9 19.15 34.15
L 19.35 34.25
Q 19.6 34.15 19.5 33.9
M 38.2 20.3
Q 38.1 20.55 38.3 20.55
L 38.5 20.45 38.4 20.25 38.2 20.3
M 34.4 22
L 34.2 22.1
Q 34.1 22.35 34.3 22.5 34.5 22.6 34.6 22.4 34.7 22.05 34.4 22
M 31.15 24.15
Q 31.1 24.35 31.4 24.35
L 31.75 24.25 31.8 24.05
Q 31.7 23.8 31.4 23.9 31.15 24.05 31.15 24.15
M 30.8 23.2
Q 31.1 23.2 31.1 22.9 31.1 22.7 30.9 22.7 30.6 22.8 30.6 23 30.6 23.3 30.8 23.2
M 29.7 23.95
Q 29.85 24 29.95 23.7
L 29.8 23.5
Q 29.75 23.45 29.6 23.5 29.5 23.6 29.5 23.75 29.5 23.95 29.7 23.95
M 30.2 24.55
Q 30.05 24.5 30 24.6 29.85 25.15 30.25 25.45 30.4 25.55 30.5 25.45
L 30.65 25.3
Q 30.65 24.8 30.2 24.55
M 28.85 24.3
Q 28.6 24.2 28.55 24.35
L 28.6 24.55 29.05 24.95
Q 29.2 25.05 29.3 24.75
L 29.25 24.55 28.85 24.3
M 79.1 49.15
Q 79.2 48.9 79 48.85 78.85 48.85 78.75 49.05 78.7 49.25 78.85 49.35 79.1 49.35 79.1 49.15
M 69.95 31.2
L 69.85 31.1
Q 69.8 31.05 69.65 31.15 69.6 31.35 69.8 31.35
L 69.95 31.2
M 64.35 26.5
Q 63.9 26.85 63.9 27.3 64.25 27.7 64.65 27.3
L 64.9 27.25
Q 65.3 26.85 65 26.55 64.7 26.25 64.35 26.5
M 64.75 25.65
Q 64.85 25.65 64.85 25.6 64.85 25.55 64.8 25.5
L 64.65 25.35 64.65 25.55 64.75 25.65
M 66.2 26.1
Q 65.9 26.7 66.3 27.2 66.65 27.55 66.75 27.5 67.1 27.5 67.3 27.1 67.75 26.2 67.35 25.35 66.5 25.15 66.2 26.1
M 68.6 26.4
Q 68.35 26.4 68.35 26.65
L 68.5 26.95
Q 68.6 27.05 68.7 26.9 68.8 26.8 68.8 26.65 68.8 26.45 68.6 26.4
M 71.05 28.4
L 71.05 28.15
Q 71.05 27.75 70.9 27.6
L 70.75 27.45 70.55 27.55
Q 70.25 28.05 70.3 28.35 70.4 28.9 70.7 29.05 70.95 29.2 71.05 28.4
M 73.1 28.95
L 73.2 28.75
Q 73.15 28.65 73 28.7
L 72.9 28.9 73.1 28.95
M 72.25 27.7
Q 72.5 27.7 72.5 27.5 72.5 27.25 72.35 27.2 72.1 27.2 72.1 27.45 72.1 27.65 72.25 27.7
M 77.9 30.2
L 78.15 30.1
Q 78.4 29.95 78.3 29.65 78.3 29.45 78 29.35 77.75 29.35 77.65 29.6
L 77.55 29.85
Q 77.5 30 77.6 30.1 77.7 30.25 77.9 30.2
M 76.15 27.2
Q 76.3 27.25 76.4 27.05 76.4 26.8 76.1 26.7 75.85 26.7 75.85 26.9 75.85 27.2 76.15 27.2
M 53.95 17.9
L 54.05 18.1
Q 54.25 18.15 54.45 17.95 54.65 17.8 54.65 17.65
L 54.55 17.55
Q 54.45 17.45 54.2 17.6 54 17.7 53.95 17.9
M 40.55 22.3
Q 40.65 22.3 40.75 22.05 40.75 21.7 40.45 21.65 40.2 21.65 40.2 21.85 40.3 22.25 40.55 22.3
M 44.8 21.2
Q 44.8 21.55 45.1 21.45
L 45.2 21.3
Q 45.2 20.95 44.95 20.95 44.7 21.05 44.8 21.2
M 45 19.6
L 44.85 19.75
Q 44.85 20 45.05 20 45.2 20 45.2 19.75 45.2 19.55 45 19.6
M 68.25 24.6
Q 67.85 24.55 67.7 24.7 67.55 24.8 67.35 25.3 68.2 25.3 68.35 25.1 68.5 25.05 68.5 24.8 68.5 24.6 68.25 24.6
M 65.6 22.25
Q 64.65 23.05 64.4 24.3 64.3 25.05 64.65 25.3 64.7 25.1 65.05 24.6 65.4 24.2 65.45 23.85 65.55 23 66.15 22.65 66.35 22.55 66.15 22.35 66 22.1 65.75 22.2
L 65.6 22.25
M 62.25 23.5
Q 62.25 23.7 62.4 23.75 62.6 23.75 62.65 23.55 62.65 23.3 62.5 23.3 62.35 23.2 62.25 23.5
M 84.65 48.1
Q 84.45 48 84.45 48.2
L 84.55 48.35 84.7 48.25
Q 84.85 48.1 84.65 48.1
M 81.95 43.95
L 81.9 43.85 81.45 43.9 81.3 43.85
Q 80.95 43.85 80.9 44.05 80.8 44.45 81.05 44.6 81.25 44.7 81.45 44.5
L 81.95 44.15
Q 82.05 44.05 81.95 43.95
M 84.3 45.95
L 84.2 45.75
Q 83.95 45.15 84 45.05 84.05 44.9 84.25 44.8 84.5 44.7 84.55 44.6
L 84.6 44.35
Q 83.65 44.05 83 44.8 82.4 45.45 82.65 46.45
L 82.95 46.6 84 46.45
Q 84.3 46.4 84.3 45.95
M 83.95 37.65
L 83.85 38.05 83.85 38.35
Q 83.85 38.7 84.05 38.75 84.3 38.9 84.6 38.65 84.8 38.45 84.7 38.25 84.7 38.15 84.4 37.6 84.2 37.4 83.95 37.65
M 61.45 78.45
Q 61.1 78.45 61.1 78.7
L 61.35 79.2
Q 61.5 79.35 61.7 79.25 61.9 79.05 61.85 78.9 61.8 78.8 61.45 78.45
M 60.3 78.5
L 59.5 78.7
Q 59 79.45 59.4 79.95
L 59.6 80.05
Q 59.9 80.1 59.8 79.85 59.5 79.1 60.35 78.85
L 60.45 78.8 60.5 78.6
Q 60.35 78.45 60.3 78.5
M 57.25 19.65
L 57.25 19.2
Q 56.95 19.2 56.8 19.3 56.4 19.55 56.45 19.7 56.55 19.9 56.75 19.8
L 57.25 19.65
M 81 34
L 81.2 33.9
Q 81.45 32.65 82.05 32.05 82.25 31.85 82 31.6 81.6 31.3 81.3 31.45
L 79.9 32.2
Q 77.95 33.15 76.5 32.95 75.95 32.95 75.45 32.6 74.95 32.2 75.15 31.8 75.3 31.5 75.2 30.75 75.2 30.25 74.65 30.25
L 74.15 30.3
Q 73.2 30.55 72.75 30.7 71.95 30.95 71.45 31.4 71.1 31.7 70.15 32 69.2 32.3 68.85 32.7
L 68.05 33.45
Q 67.5 33.4 67.35 33.35 67.25 33.25 67.1 32.75 67.8 32.65 67.9 32.5 68 32.4 67.9 31.8 67.85 31.4 68.2 31.25 69.3 30.8 69.9 29.75 70.1 29.5 69.9 29.3
L 68.75 27.9
Q 68.6 28.05 68.6 28.3 68.6 28.6 68.55 28.65 68.5 28.85 68.25 28.85 68 28.85 67.95 28.9 67.5 29.3 67.35 29.5 67.05 29.85 67.1 30.3 67.15 30.65 66.6 30.75 66.25 30.45 66.45 30.1 66.85 29.55 66.7 29 66.45 28.3 66.35 28.25 66.2 28.2 65.55 28.55
L 65.15 28.8 65.15 28.4
Q 65.1 28.05 65.05 27.95 64.95 27.85 64.6 27.8
L 64.2 27.8
Q 63.75 27.8 63.65 27.3
L 63.45 27
Q 63.35 26.65 63.1 26.6 62.7 26.5 63 26.3 63.05 26.25 63.45 25.6 63.9 24.7 64.05 23.8 64.2 23.55 64.3 23.4 64.4 23.15 64.25 23.05 64.05 22.85 63.8 23.05 63.6 23.3 63.45 23.35
L 62.75 24.05
Q 62.1 24.7 61.9 24.7 61.65 24.7 60.95 24.15 60.8 24.1 60.8 23.85 60.8 23.65 61.05 23.65 62.05 23.65 61.95 22.6 62.05 22.35 62.3 21.5 62.5 20.8 62.75 20.45 62.85 20.3 62.7 20.1 62.6 19.9 62.4 19.9 61.5 19.9 61.15 20.3 60.75 20.85 60.2 20.6 60 20.5 59.95 20.2 60 19.85 60 19.7 60.3 19.4 60.85 18.8 61 18.75 61.5 18.25 61.7 18.05 61.55 17.85 61.45 17.75 61.2 17.75 60.9 17.7 60.55 17.95 60.25 18.25 60.05 18.35 59.55 18.9 59.15 18.9 58.75 18.95 58.2 19.2 57.3 19.6 57.25 19.65 56.95 20.1 57 21.05
L 56.55 21.15 56.5 21.15
Q 56.4 20.9 56.05 20.9
L 56 20.9
Q 55.9 20.65 55.55 20.65
L 55.35 20.65
Q 55.15 20.4 54.8 20.4 54.7 20.15 54.3 20.15 54.2 19.9 53.85 19.9 53.55 19.7 53.45 19.75 53.4 19.8 53.3 20.15
L 53.3 20.35
Q 53.15 20.5 53.05 20.9 52.7 21.15 52.35 21.65 52.15 21.7 52.1 21.9
L 51.85 22.1 51.6 22.15 51.55 21.8
Q 51.3 21.35 50.9 21.4 50.55 21.45 50.45 21.9
L 50.4 22.6 50.1 22.9
Q 49.7 22.85 49.5 22.85 49.1 22.9 48.9 23.1 48.65 23.1 48.25 23.4 47.9 23.65 47.6 23.35 47.35 23.2 47.25 23.1 47.1 22.9 47.15 22.65
L 49.3 22.35
Q 49.8 22.35 49.6 21.8 49.6 21.5 49.25 21.6
L 49.15 21.6
Q 48.75 21.65 48.7 21.55 48.65 21.5 48.8 21.05 48.9 20.7 48.6 20.7 48.3 20.85 48.15 20.9 47.85 21 47.65 20.85 47.4 20.65 47.4 20.35 47.4 19.85 47.4 19.8
L 47.3 19.6
Q 47 19.7 47 19.9 46.9 20.4 46.95 20.65 47 21.45 46.35 22.2 46.1 22.45 45.7 22.4 44.8 22.3 44.65 22.9
L 44.45 23
Q 44.25 23 44.25 22.75
L 44.2 22.4
Q 44.65 21.5 44 21.15 43.8 21.05 43.8 20.65
L 43.7 20.5
Q 43.45 20.6 42.7 20.65 42.1 20.7 41.75 20.9 41.55 20.8 41.45 20.9 41.45 21 41.4 21.2 41.15 21.55 41.65 21.45
L 42 21.35 42.25 21.4
Q 42.3 21.75 41.9 22.15 41.8 22.3 41.85 22.6 41.9 22.95 41.75 23.05
L 41.5 22.95
Q 41 22.55 40.6 22.65 40.35 22.75 40.3 23.05 40.3 23.2 40.25 23.5 40.25 23.75 40 23.7
L 39.85 23.55
Q 39.85 23.2 39.65 22.4 39.5 21.7 39.55 21.25 39.65 20.8 39.2 20.7 38.9 20.7 38.95 21.35 38.95 21.75 38.75 21.9 38.55 22.1 38.2 21.95
L 38 21.8
Q 37.1 21.05 36.35 21.75 36.2 21.85 36 21.8 35.65 21.7 35.6 21.7 35.4 21.75 35.3 21.95 35.2 22.1 35.3 22.3 35.4 22.45 35.6 22.7 35.6 22.9 35.25 23.15 34.85 23.55 34.8 23.7 34.6 24 34.9 24.4
L 34.95 24.6
Q 34.9 24.85 34.6 25.05 34.35 25.25 34.2 25.15 33.9 25.05 33.9 24.45
L 33.9 23.8
Q 33.9 23.05 33.4 22.6 32.8 21.95 32.15 22.4 31.95 22.6 32.1 22.85 32.25 23.1 32.4 22.95 32.75 22.6 33.15 23.15
L 33.25 23.85
Q 33.35 24.2 33.2 24.3 32.8 24.65 33.2 25.25 33.55 25.85 33.6 26.1 33.65 26.75 34.6 26.95
L 34.75 26.85
Q 34.85 26.8 34.75 26.7
L 34.55 26.6
Q 34.25 26.4 34.25 26.25 34.25 25.95 34.65 25.85 35.05 25.85 35.8 25.7 36.45 25.65 36.9 25.95
L 37 26
Q 37.45 26.15 37.65 25.65 37.85 25.25 37.8 25.05 37.8 24.85 37.45 24.5
L 37.25 24.3
Q 37.1 24.1 37.25 23.85 37.55 23.55 37.8 23.75
L 39.55 25.05
Q 39.85 25.2 39.75 25.55
L 39.55 26.25
Q 39.5 26.2 39.25 25.75 38.9 25.05 38.55 25.2 38.35 25.3 38.3 25.5 38.25 25.65 38.2 25.9 38.05 26.1 38.35 26.3 38.4 26.35 38.75 26.5 38.95 26.65 39.05 26.8
L 38.75 27
Q 38.2 27.35 38.05 27.3 37.9 27.25 37.5 26.7 37.1 26.15 36.45 26.55
L 36.25 26.8
Q 36.25 26.95 36.5 27.05
L 37.1 27.2
Q 36.35 27.7 36.85 28.5 37 28.75 37.35 28.8 37.55 28.8 37.9 28.8
L 37.85 29 37.85 29.5
Q 37.7 29.6 37.25 29.75 36.8 29.85 36.65 30.1 36.5 30.3 36.4 30.35 36.25 30.5 36.1 30.35 36 30.25 36.05 30.1 36.15 29.9 36.15 29.8 36.35 29.35 36.3 29.1 36.3 28.9 36.15 28.9
L 35.95 28.95
Q 35.65 29.5 35.4 29.55 34.85 29.85 34.7 30.35 34.6 30.65 35.05 31.1 35.2 31.5 34.85 31.7 34.3 31.95 34.2 32.1 34.15 32.2 34.25 32.7
L 34.4 33.45 34.15 33.7
Q 33.9 33.55 33.4 33.05 33 32.55 32.6 32.45 32.55 32.45 32.55 32.3 32.5 32.2 32.55 32.15 33.05 31.65 32.4 31.4 32.2 31.35 32.3 31 32.45 30.5 31.85 30.1 31.65 29.95 31.45 30.25 30.95 30.1 30.9 30 30.8 29.9 30.85 29.45 30.95 28.8 30.4 28.5 30 28.3 29.45 28.3 28.8 28.15 28.75 27.55
L 28.75 26.95
Q 28.75 26.7 28.4 25.65 28.2 25.35 28 25.5 27.75 25.65 27.4 25.65 27 25.6 26.8 25.6 26.4 25.7 26.25 25.75 25.9 25.8 25.65 25.7 25.5 25.6 25.3 25.75 25.15 25.85 25.1 26.05 24.85 26.6 25.35 26.95 26 27.4 26.25 28.3 26.45 28.85 27.05 28.95 27.2 29 28 29
L 29 29.1
Q 29.3 29.1 29.3 29.4 29.3 29.55 29.1 29.65
L 28.3 30 28.15 30.15
Q 28.1 30.2 28.1 30.25 28.1 30.35 28.2 30.35 28.75 30.25 28.75 31.05 28.75 31.45 28.85 31.55 28.95 31.65 29.45 31.8
L 29.6 32.25
Q 29.7 32.8 29.15 32.7 29.05 32.7 28.75 32.5 28.5 32.35 28.3 32.45
L 28.4 33.2
Q 28.35 33.45 27.9 33.7
L 27.8 34.15 27.55 34.75
Q 27.45 35.15 27.05 35.15 26.7 35.15 26.55 35.4
L 26.05 35.95 26 36.15
Q 25.8 36.3 25.8 36.65
L 25.3 36.65 25.2 36.6
Q 24.85 36.45 24.8 36.5 24.75 36.55 24.65 36.9 24.55 37.35 24.25 37.05 23.95 36.75 23.55 37 23.15 37.25 22.8 37.8 22.6 38.05 22.75 38.2 22.9 38.35 23.2 38.35
L 23.45 38.3
Q 23.9 38.05 24.35 38.6 24.8 39.15 24.8 39.55 24.8 40.1 24.45 39.75 24.15 39.65 24.05 39.6
L 22.1 40.1
Q 21.95 39.8 21.65 39.85 21.45 39.95 21.6 40.35 21.8 40.75 22.1 40.85
L 22.35 41.3
Q 22.35 41.65 22.15 41.75 21.95 41.8 21.75 41.55
L 21.35 40.85
Q 21.25 40.6 21.05 40.7 20.9 40.8 20.9 41 21.05 41.8 21.85 42.3
L 22.2 42.9
Q 22.25 43.05 22.2 43.15 22.1 43.25 22 43.2 21.4 43.1 21.3 43.15 21.2 43.3 21.25 43.35 21.3 43.45 21.65 43.55 21.9 43.55 21.9 43.7 21.9 43.95 21.65 44.1
L 21.4 44.1
Q 20.4 43.9 20.15 43.55
L 20.35 43
Q 20.6 42.5 20.55 42.2 20.4 42.05 20.1 42 19.7 41.95 19.65 41.95 19.3 41.9 19.2 42.25
L 19.15 42.75
Q 18.85 42.75 18.8 42.65 18.5 42.3 18.1 42.75 17.9 42.95 17.9 43.3 18.15 43.55 18.45 43.55 18.75 43.55 18.95 43.8
L 18.9 43.8
Q 18.6 44 18.7 44.5
L 18.9 45.3
Q 18.9 45.6 18.65 45.75 18.35 45.8 18.25 45.8 18 45.8 17.8 45.7 17.65 45.5 17.6 45.45 17.65 45.35 17.85 45.25 18.15 45.15 18.2 45.05 18.3 44.95 18.2 44.7 18.1 44.35 17.95 44.35
L 17.05 43.9
Q 17 43.85 16.9 43.9 16.8 43.95 16.75 44
L 16.3 44.65
Q 16.05 45.05 16 45.35 15.85 45.65 16.2 45.55
L 16.5 45.4
Q 16.9 45.25 16.9 45.65 16.9 45.8 16.85 46.1 16.9 46.25 17.1 46.25 17.2 46.25 17.4 46.2
L 18.15 46.3
Q 18.25 46.45 18.45 46.7 18.6 46.95 18.45 47.25 18.35 47.5 18.7 47.6 18.95 47.65 19.1 47.45
L 19.35 47.15 19.45 47.15 19.55 47.35 19.35 47.75 18.7 48.3
Q 18.35 48.65 18.9 48.9
L 19.1 48.95 19.2 49.45 19.15 49.7 18.8 49.6
Q 18.45 49.55 18.35 49.6 18.3 49.65 18.35 50 18.35 50.35 18.15 50.5 17.45 51.05 17.4 51.15 16.8 51.55 16.7 51.95 16.65 52.15 16.9 52.35 17.1 52.55 17.1 52.65 17.15 53.4 18.15 53.4 18.3 53.65 18.4 53.35 18.45 53.1 18.25 52.95 17.95 52.7 17.9 52.6
L 17.95 51.15
Q 18.55 51.15 18.65 51.4 18.65 51.9 18.8 51.95 19.15 52.1 19.15 52.5
L 19.2 53.1
Q 19.2 53.3 19.45 53.3 19.9 53.3 20.1 53.15 20.25 53.05 20.45 52.6 20.5 52.45 20.4 52.15 20.3 51.85 20.45 51.65
L 21.6 51.65 21.85 51.85
Q 21.4 52.2 20.9 53.3 20.8 53.6 21 53.75 21.15 53.85 21.45 53.65
L 21.85 53.4 21.8 54.3
Q 21.8 54.85 22.15 55.2 22.2 55.2 22.05 55.5
L 21.85 56.05
Q 21.5 56.15 21.35 56.1 21.25 56.1 21.15 55.85 21.2 55.3 21 55.05 20.65 55.5 20.2 55.4 19.45 55.25 19.35 55.4 19.2 55.5 19.4 56.3 19.3 56.5 19.05 56.55 18.7 56.65 18.65 56.8
L 18.45 56.85
Q 18.25 56.9 18.2 57.2 18.1 57.5 17.95 57.55 17.85 56.55 17.85 56.45 17.9 56.2 18.35 55.5
L 18.35 55.35
Q 18.45 55.15 18.3 55.05
L 18.05 55
Q 17.75 55 17.5 55.25 17.35 55.35 17.05 55.65 16.6 56.05 16.85 56.6 17.05 57 17 57.1 17 57.2 16.7 57.55 16.35 57.9 16.75 58.05 17.2 58.35 17.2 58.85 17.2 59.3 17.65 59.5
L 17.7 60
Q 17.65 60.45 18.1 60.7 18.3 60.85 18.15 61.1 17.95 61.5 18.15 61.65 18.25 61.7 18.4 61.65
L 18.6 61.5 18.85 61.45 19 61.9
Q 19.1 62.05 19.15 62.55 19.15 62.95 19.35 63.15
L 20.3 64.1 20.45 64.3
Q 20.85 64.65 20.8 65.1 20.75 65.5 20.85 65.65 20.95 65.8 21.35 65.9 21.8 66 21.85 66.3 22.1 67.15 22.9 66.95 23.15 66.9 23.25 67 23.3 67 23.4 67.3 23.9 68.85 24.2 69.2 24.55 69.1 24.75 68.75
L 25.1 68.15
Q 25.55 67.6 25.15 67.2 25 67.05 25.1 66.8 25.25 66.55 25.3 66.4 26.25 66.4 26.4 66.35 26.6 66.35 27.4 66.05
L 28 66.9
Q 27.9 67.05 27.6 67.15 27.1 67.45 27.4 67.85
L 27.85 68.4
Q 28.1 68.8 27.6 68.8 27.35 68.8 27.3 68.9 27.2 69.15 27.3 69.4 27.4 69.7 27.6 69.8
L 28 70.05 26.55 70.1
Q 26.45 69.8 26.05 69.6
L 26.5 69.1 26.55 68.85 26.3 68.6 26.4 68.15
Q 26.45 67.9 26.2 67.8 26 67.7 25.85 68
L 25.8 68.35 25.3 68.85 25.1 68.95
Q 24.891796875 69.2416015625 25.1 69.3 25.1416015625 69.3416015625 25.2 69.35
L 25.55 69.35
Q 25.6 69.8 25.3 70.55 25.25 71.3 25.95 71.3
L 26.55 71.35
Q 26.95 71.35 27.25 71.75 27.5 72.35 27.25 72.75 27.066796875 73.0064453125 27.05 73.2 27.0615234375 73.61484375 27.6 73.9 27.85 74 27.9 73.8
L 27.85 73.45
Q 27.75 72.8 27.9 72.55 28.05 72.3 28.75 72.05 29.15 72.4 29.95 73.05 30.35 73.55 30.85 73.55 31.3 73.5 31.8 74
L 32.4 74.75
Q 32.35 75.5 31.55 75.65 31.2 75.75 31.25 75.9 31.25 76.15 31.4 76.4 31.55 76.6 31.7 76.55
L 33.7 76.4 33.65 75.5 33.9 75.25 34.65 75.25
Q 35 75.5 35.3 76.3
L 35.6 76.8
Q 35.95 77.15 36.35 76.75 36.45 76.65 36.55 76.25 36.65 75.95 36.85 75.85 37.1 75.9 37.5 76.05 37.9 76.25 38.15 76.25 38.55 76.25 38.85 76.85 39.1 77.4 39.4 77.45 39.65 77.5 40.1 77.05
L 40.15 76.95
Q 40.16328125 76.61796875 40.6 76.45 41 76.25 40.85 76.6 40.807421875 76.6708984375 40.75 76.75
L 41.05 76.75
Q 41.05 76.85 40.8 77.8 40.7 78.35 41.1 78.4 41.6 78.6 41.5 79.2
L 41.4 79.55
Q 41.3 79.9 41.8 79.9 42.5 79.9 42.5 79.25 42.5 78.85 42.7 78.35 42.95 77.8 43.05 77.5 43.15 77.3 43.35 77.25 43.55 77.2 43.75 77.4 44 77.6 43.8 77.95 43.6 78.3 43.65 78.4 43.7 78.55 44 78.65
L 44.1 78.7
Q 45.6 79 46.35 81.05
L 46.5 81.75
Q 46.5 82.05 46.7 82.05 46.9 82.1 47.6 82.35 48.2 82.55 48.55 82.5
L 48.75 81.75
Q 49.05 81.1 48.55 80.65 48.15 80.35 48.2 80 48.35 78.8 48.5 78.2
L 48.75 78 49.05 78.15
Q 49.15 78.25 49.15 78.5 49.35 79 49.7 78.8
L 50.4 78.3
Q 51.05 77.65 51.7 77.45 52.05 77.35 52.05 77.15 52.3 76.3 53.3 76.15 53.4 76.15 53.45 76 53.5 75.8 53.4 75.75
L 52.9 75.4
Q 52.1 75.35 52.1 75 52.05 74.75 52.4 74.65 52.8 74.5 52.85 74.45 53.05 74.1 53.5 74 53.75 73.95 54.25 73.85 54.5 73.75 54.6 73.85 54.75 74 55.1 74.3 55.4 74.6 55.45 74.85 55.7 75.8 56.1 76.25 56.25 76.4 56.15 76.65 56.05 76.9 55.85 76.9
L 55.1 76.85
Q 54.85 76.8 54.85 77.15 55 78.05 55.75 78.4 56.35 78.8 56.3 79.4 56.25 80.25 57.05 80.35 57.75 80.5 57.85 80.95 57.95 81.05 58.1 81
L 58.2 80.85
Q 58.3 80.55 58 80.05 57.8 79.7 57.85 79.55 57.9 79.45 58.3 79.2
L 58.5 79.1
Q 58.7 78.95 58.45 78.85 58.3 78.7 58.1 78.7 57.15 78.85 57 78.8 56.9 78.8 56.7 78.45 56.5 78.15 56.25 78.15
L 56.1 78.1
Q 55.8 77.85 56.05 77.6
L 56.7 77.05
Q 56.95 76.65 56.8 76.35 56.55 75.9 56.6 75.7 56.65 75.5 57.1 74.85 57.3 74.4 57.5 74.25
L 57.75 74.5
Q 57.8 74.9 57.6 75.7 57.5001953125 75.974609375 57.55 76.05 57.61484375 76.125 57.65 76.15 57.784765625 76.180078125 57.95 76.15 58.45 76.05 58.45 76.55 58.55 77.45 58.75 77.7
L 58.85 77.95 58.85 78.05
Q 58.9 78.5 58.95 78.6 59.05 78.65 59.5 78.7
L 59.5 77.45 59.7 77.15
Q 60.25 76.8 59.95 76.4
L 59.85 76.2
Q 59.65 75.6 60.2 75.5 60.95 75.2 61.1 76.05 61.25 76.5 61.55 76.5
L 62.05 76.5
Q 62.3 76.55 62.4 76.8 62.5 77.05 62.35 77.25 62.25 77.35 62 77.6 61.75 77.75 61.7 77.95 61.45 78.1 61.45 78.45
L 61.7 78.45
Q 62.35 78.3 62.4 78.3 63 78.15 63.3 78.45 63.9 79.05 64.7 78.4
L 65 78.15 65.05 77.95
Q 64.9 77.8 64.85 77.8 64.2 77.75 64.15 77.65 64.1033203125 77.6033203125 64.1 77.45 64.1291015625 77.41484375 64.15 77.35 64.1673828125 77.22734375 64.25 77 64.35 76.4 64.45 76.05 64.45 75.95 64.55 75.9 64.7 75.85 64.8 75.9 65.1 76.2 65.3 75.9
L 66.45 74.85
Q 66.25 74.45 65.85 74.55
L 65.1 74.7
Q 64.85 74.8 64.7 74.5 64 72.95 62.6 72.7 62.3 72.65 62.2 72.15 62.2 71.7 62.55 71.5 62.95 71.3 63.5 71.3 63.85 71.35 63.95 71.4 64.1 71.5 64.15 71.85 64.3 72.55 65 72.55 65.75 72.55 66.35 72.35 66.65 72.3 66.85 72.45 67.05 72.65 67 72.95 67 73.15 66.85 73.6 66.8 74 67.15 74.1 67.4 74.2 67.6 73.85 67.85 73.4 67.95 73.3 68.4 73 68.2 72.45 68.05 72.05 68.55 72.15 68.95 72.2 68.85 71.85 68.7 71.4 69 71.2 69.1 71.15 69.45 70.85 69.75 70.6 70 70.55 70.15 70.4 70.1 70.4
L 69.85 70.15
Q 69.5 70 69.15 70.2 68.8482421875 70.329296875 68.4 70.35 68.45703125 70.4791015625 68.35 70.8 67.2 71.1 67.95 70.5 68.103125 70.36875 68.2 70.3 68.05 70.2296875 68.05 70.15
L 68.2 69.95
Q 68.4 69.9 68.75 69.75 69 69.6 68.95 69.2 69.15 69.05 69.4 68.7 69.66640625 68.478125 69.9 68.5 69.6626953125 68.2259765625 70.25 68 70.5689453125 67.89375 70.8 67.9 70.794921875 67.8876953125 70.8 67.85 70.9 67.4 71.3 67.4
L 71.5 67.4
Q 72 67.3 72.1 67.25 72.2 67.15 72.25 66.7 72.3 66.1 72.75 65.9
L 73.05 65.7
Q 73.15 65.5 73 65.35 72.4 64.85 72.05 65.55 72.05 65.6 72.05 65.75 72 65.9 71.85 65.85
L 71.6 65.05
Q 71.35 64.2 72.05 63.1 72.2 62.85 72.5 62.85 72.85 62.9 72.95 63.2
L 73 63.4 73.05 63.8
Q 73.1 64.05 73.3 64.15 73.5 64.25 73.65 64.05 73.6990234375 63.99609375 73.75 63.95 74.218359375 63.51953125 74.85 63.7
L 75.2 63.7
Q 75.55 63.65 75.75 63.4 75.95 63.15 75.85 62.85 75.65 62 75.35 61.75 74.5 60.9 74.25 60.75 74.05 60.65 73.8 60.35 73.7716796875 60.3123046875 73.75 60.25 73.495703125 59.945703125 73.45 59.9 73.4 59.85 73.55 59.7
L 73.65 59.65 74.35 60.05 74.5 59.75
Q 74.5 59.7 74.4 59.35 74.35 59.05 74.5 58.95 74.8 58.75 75.3 58.65 75.5 58.55 75.9 58.55 76.45 58.5 76.65 57.85 76.8 57.2 76.6 56.65 76.25 55.7 76.85 55.2 77.1 54.95 76.75 54.65
L 76.45 54.45
Q 76.05 54.2 76.15 54 76.2 53.85 76.55 53.85 77.5 53.75 77.8 54.25 78.05 54.75 78.8 55.25 79.45 56.05 80.3 55.65
L 80.75 55.55
Q 81.5 55.35 81.35 54.65 80.95 53.25 80.55 52.85
L 79.6 51.7
Q 79.1 51.1 79.1 50.6
L 79.1 50.25
Q 79.05 50.15 78.8 50.1
L 78.1 49.85
Q 77.8 49.55 77.8 49.5 77.5 48.6 77.9 48.1
L 78.5 47.5
Q 78.9 47.1 79.1 47.05 79.4 47 79.75 47.5
L 80 47.55
Q 80.7 46.6 80.55 46.3
L 79.55 45.55 79.3 45.5
Q 78.65 45.35 78.3 44.8 78 44.35 77.3 44.6 76.75 44.8 76.5 45.1 75.95 45.85 74.75 45.75 74.45 45.75 74.1 45.5 73.85 45.25 73.25 45.25 73.25 44.9 73 44.75
L 72.75 44.25
Q 73.05 44.1 73.4 43.7 73.85 43.3 74.05 43.15 74.2 43.05 74.3 43.15
L 74.4 43.35 74.35 43.6
Q 74.25 44.4 75.05 44.45 75.35 44.5 75.55 44.25 75.75 44 75.7 43.65 75.5 42.8 75.55 42.35 75.55 42.1 75.25 42.2
L 74.9 42.2
Q 75.1 41.35 75.45 41 75.9 40.6 75.95 40.3 76.05 39.65 77 39.2 76.6 38.45 75.65 38.6
L 74.5 38.95 74 39.05
Q 73.75 39.05 73.65 38.75 73.55 38.55 73.7 38.3
L 74.1 38.05
Q 74.4 37.85 74.4 37.7 74.4 37.6 74.05 37.35 73.85 37.25 73.75 36.9 74 36.75 73.75 36.65 73.9 36.3 74.25 36.15
L 74.35 36.5
Q 75.8 36.95 76.35 36.7 77.1 36.35 77.3 36.15 77.65 35.9 77.95 35.9
L 78.55 36
Q 78.6 36 78.8 35.9 78.95 35.8 79.1 35.9
L 78.55 36.85
Q 78.4 37.25 78.45 37.6 78.55 38.05 78.95 38.05 79.25 38 79.4 37.8 79.6 37.6 79.55 37.4 79.45 37 79.4 36.45
L 79.4 35.45
Q 79.25 34.25 79.3 34.15 79.4 33.95 79.7 33.65 80.05 33.3 80.1 33.1 80.2 32.75 80.45 32.85 80.65 32.95 80.75 33.2
L 81 34
M 38.8 32.7
L 39 32.75 38.8 32.75 38.8 32.7
M 30.65 72.25
Q 31.4 72.55 30.95 72.7 30.75 72.75 30.4 72.65 29.95 72.5 29.95 72.25 29.95 71.95 30.65 72.25
M 40.35 63
Q 40.1 62.8 40.3 62.6 40.55 62.45 40.6 62.65 40.7 62.95 40.8 63.05 40.55 63.25 40.35 63
M 61 60.4
Q 61.05 60.75 61.2 60.85 60.95 61.05 60.7 60.8 60.5 60.55 60.65 60.35 60.95 60.2 61 60.4
M 66.4 68.7
Q 66.25 68.8 65.85 68.95 65.7 68.6 66 68.45 66.4 68.3 66.55 68.2 66.7 68.55 66.4 68.7
M 62.35 67.9
Q 62.9 67.15 62.7 68.3 61.85 68.7 62.35 67.9
M 53.95 56.95
Q 53.6 56.35 54.15 55.75 54.5 56.4 53.95 56.95
M 54.95 56.95
Q 55.15 56.75 55.45 56.95 55.6 57.1 55.95 57.35 55.7 57.55 55.45 57.35 55.1 57.05 54.95 56.95
M 59.55 60.95
Q 59.6 61.3 59.75 61.4 59.5 61.55 59.25 61.35 59.05 61.1 59.25 60.9 59.5 60.75 59.55 60.95
M 41.95 67.4
Q 41.6 67.7 41.45 67.1 41.3 66.3 41.15 66.2 41.75 65.9 41.8 66.5 41.85 67.3 41.95 67.4
M 42 68.15
Q 41.45 68.45 41.25 68.65 40.45 69.4 41 68.4 41.45 67.55 41.75 68.15 42.2 68 42 68.15
M 45.15 69.45
Q 44 69.75 44.75 69.2 45.45 68.6 45.15 69.45
M 48.85 73.9
Q 49.55 73.3 49.25 74.2 48.1 74.5 48.85 73.9
M 59.2 67
Q 59.05 66.65 59.35 66.5 59.75 66.4 59.9 66.25 60.1 66.6 59.8 66.75 59.6 66.8 59.2 67
M 58.45 65.8
Q 58.1 65.15 58.65 64.6 59 65.25 58.45 65.8
M 54.3 71.6
Q 55.35 71.6 54.3 71.8 53.25 71.7 54.3 71.6
M 51.35 70.15
Q 52.1 69.6 51.8 70.45 50.65 70.75 51.35 70.15
M 56.6 71.15
Q 57 70.95 57.15 70.7 57.25 71.1 57.35 71.2 57.45 71.4 57.65 71.2 58 71.95 57.4 71.7 56.55 71.35 56.45 71.5 56.3 71.25 56.6 71.15
M 60.15 72.15
Q 60.3 72.25 60.65 72.55 60.45 72.7 60.15 72.5 59.8 72.25 59.65 72.1 59.85 71.95 60.15 72.15
M 50.75 75.6
Q 50.95 75.95 50.65 76.1 50.45 76.2 50.05 76.35 49.9 76 50.2 75.85 50.6 75.7 50.75 75.6
M 47.4 76.2
Q 47.55 76.05 47.85 76.25 48.05 76.4 48.35 76.65 48.15 76.8 47.85 76.6 47.55 76.3 47.4 76.2
M 63.4 74.95
Q 64.45 74.95 63.4 75.1 62.35 75 63.4 74.95 Z"/>
</g>
</defs>

<g transform="matrix( 1, 0, 0, 1, 0,0) ">
<use xlink:href="#Layer1_0_FILL"/>
</g>
</svg>
