
<svg xmlns="http://www.w3.org/2000/svg" version="1.1" xmlns:xlink="http://www.w3.org/1999/xlink" preserveAspectRatio="none" x="0px" y="0px" width="100px" height="100px" viewBox="0 0 100 100">
<defs>
<g id="Layer1_0_FILL">
<path fill="#000000" stroke="none" d="
M 81.05 52.5
Q 81.14140625 52.043359375 81.05 51.6 80.148828125 51.055078125 81 51.35 80.9703125 51.2138671875 80.9 51.05
L 80.9 51
Q 80.85 50.85 81 50.7
L 80.95 50.45 80.95 50.25 80.8 49.05
Q 80.65 48.95 80.55 48.6 80.65 48.35 80.5 48.15 80.2 47.7 80.2 47.2
L 80.15 46.95
Q 80.1 46.65 79.7 46.05
L 79.45 45.8
Q 78.85 45.6 78.6 45.4
L 78.25 45.35
Q 78.1 45.35 78 45.55 77.8 45.8 77.25 45.95 76.45 46.15 75.95 46.05 75.8 45.95 75.6 46.15
L 75.35 46.4 75.1 46.5
Q 74.95 46.85 74.45 47.45
L 74.35 47.7 74.35 47.95
Q 74.45 48.25 74.1 48.5
L 73.9 48.7 73.05 48.6 72.8 48.65
Q 72.4 48.8 71.9 48.7
L 71.45 48.8 71.35 48.75
Q 71.2 49 71.4 49.2
L 72.3 50 72.2 50.2
Q 72.2 50.5 72 50.6
L 71.9 50.7 71.55 50.4
Q 71.4 50.3 71.2 50.4
L 71 50.5
Q 70.75 50.5 70.65 50.2
L 70.55 50.1 70.3 50.1 69.8 50.45
Q 69.6 50.75 69.15 50.8
L 68.9 50.95 68.65 51.05
Q 68.2 51.25 67.85 51.05
L 67.65 50.95
Q 67.55 50.85 66.85 50.6 66.75 50.55 66.5 50.65
L 66.15 50.75 65.1 50.55
Q 64.8 50.45 64.65 50.2
L 64.45 49.9
Q 64.25 49.65 63.8 49.55 63.7 49.5 63.3 49.65
L 62.45 50
Q 62.35 50.1 61.8 50.2
L 61.7 50.1 61.6 49.95
Q 61.45 49.45 61 49.05 60.4 48.55 60.2 48.5
L 59.95 48.3
Q 59.05 47.8 58.65 47.35
L 58.45 47.25 57.9 46.9
Q 57.55 46.6 57.05 46.45
L 56.95 46.45
Q 56.75 46.25 56.4 46.15
L 55.7 45.9
Q 55.15 45.6 54.45 45.85 53.95 45.95 53.75 46.1 53.55 46.2 53.65 46.35
L 53.75 46.5
Q 53.55 46.8 53.25 46.8 53.05 46.85 53.05 47.05
L 53.05 47.2
Q 53.1 47.5 52.85 47.75 52.55 48.1 52.4 48.45
L 52.1 48.8
Q 51.8 48.6 51.55 48.7 51.15 48.35 50.75 48.5
L 50.1 48.65
Q 49.45 48 48.45 47.9
L 48.3 47.9
Q 47.6 47.9 47.25 47.7
L 46.65 47.65
Q 46.4 47.6 46.1 47.65 45.6 47.85 45.3 47.85 44.65 47.95 44.25 48.1
L 43.85 48.1 43.2 47.5
Q 42.8 47.2 42.8 46.75 42.8 46.6 42.65 46.5 42.35 46.4 42.45 46.15 42.5 46.05 42.35 45.1 42.35 44.95 42.1 44.55
L 42 44.3
Q 42.1 44.1 41.9 44.1 41.45 44 41.3 43.7
L 41.2 43.6 40.95 43.5
Q 40.6 43.5 40.55 43.25
L 40.35 43.05
Q 39.65 42.65 39.3 42.8 39.05 42.8 39.2 42.65
L 39.25 42.4
Q 39.25 42.2 39.05 42.2
L 38.85 42.3
Q 38.6 42.55 38.5 42.45 38.4 42.4 38.25 42.45
L 38.05 42.6
Q 37.8 42.75 37.8 42.45
L 37.8 42.05
Q 37.7 41.7 37.35 41.8
L 37.3 41.8 37.2 41.85 36.9 42.05
Q 36.55 42.3 36.15 42.15
L 36.1 42.05
Q 36.1 41.75 36.3 41.7 36.5037109375 41.6490234375 36.6 41.55 36.1310546875 41.332421875 36.7 41.5
L 36.75 41.45
Q 36.85 41.15 37.45 40.55 37.5 40.4 37.95 40.2 38.3 40.55 38.9 40.55 39.05 40.55 39.05 40.4
L 39 40.3
Q 38.95 40.05 39.25 39.9
L 39.35 39.8 39.55 39.9
Q 39.85 40.1 40 40.05
L 40.15 40.05
Q 40.4 40.05 40.45 40.25 40.45 40.4 40.5 40.65
L 40.7 40.75
Q 41.15 40.85 41.45 40.7 41.75 40.55 42 40.6 42.25 40.7 42.85 40.7 43.45 40.6 43.85 40.65 44.15 40.7 44.75 40.7 45.45 40.8 45.8 40.75
L 46.1 40.8
Q 46.75 40.9 47.25 40.75
L 47.45 40.65 47.45 40.55 47.4 40.5 47.25 40.45 46.7 40.55
Q 46.5 40.65 46.25 40.55 45.5 40.45 45.35 40.35
L 45.25 40.1 45.35 39.95 45.65 39.85
Q 45.85 39.8 45.85 39.75 45.9 39.75 45.8 39.5
L 45.8 39.4 45.9 39.4
Q 46.1 39.6 46.1 39.8 46.1 39.9 46.3 40
L 47.55 40.15 47.65 40.25
Q 47.7 40.4 47.95 40.5 48.15 40.65 48.2 40.75
L 48.4 40.85 48.75 40.85 48.8 40.8 48.75 40.75
Q 48.7 40.65 48.3 40.45 48.1 40.35 48.1 40.15 48.1 40 48 40
L 46.7 39.75
Q 46.45 39.65 46.45 39.6 46.45 39.45 46.7 39.45
L 46.9 39.3 47.05 39 47.35 38.85
Q 47.55 38.95 47.95 38.95 48.25 39.1 48.45 38.95 48.55 38.9 48.9 39 49.05 39.05 49.15 38.95 49.3 38.75 49.05 38.6
L 48.95 38.5
Q 48.7 38.4 48.9 38.2
L 49.1 37.65
Q 49.2 37.7 49.45 37.55 49.85 37.7 49.9 37.75
L 49.85 38 49.7 38.2
Q 49.65 38.35 49.8 38.5
L 50.05 38.55
Q 50.2 38.5 50.65 38.6 50.9 38.6 50.75 38.85
L 50.75 39.15 50.95 39.55
Q 51.1 39.7 51.3 39.6
L 51.6 39.55 52.35 39.55
Q 52.6 39.55 52.75 39.8 52.8 39.95 53 39.85
L 53.15 39.7
Q 53.3 39.65 53.55 39.75 53.4 40.1 53.7 40.2
L 53.9 40.3 54 40.25
Q 54.2 40.2 54.55 39.95 54.85 39.75 55.1 39.8 55.6 39.9 55.75 40.15 55.85 40.4 55.75 41.15
L 55.75 41.45 55.7 41.5 55.6 41.55 55.4 41.25 55.4 41.2
Q 55.55 41.2 55.45 41.1
L 54.9 40.6 54.8 40.6 54.75 40.55
Q 54.25 40.15 53.9 40.3
L 53.85 40.65 53.75 40.75
Q 52.85 40.75 52.55 40.35
L 52.4 40.2
Q 52.2 40.15 52.2 40.3
L 52.15 40.6 52 40.55
Q 51.95 40.5 51.85 40.55 51.75 40.55 51.85 40.75
L 52.15 41.05
Q 52.15 41.2 52.1 41.15 51.8 41 51.55 41 51.4 41.05 51 40.95
L 50.5 40.8 50.45 40.85 50.45 40.95
Q 50.7 41.3 51.05 41.3 51.5 41.35 52.35 41.6
L 52.95 41.7
Q 53.2 41.7 53.4 41.55
L 53.5 41.45
Q 53.65 41.45 53.65 41.5 53.7 41.85 54.05 41.85 54.5 41.9 55.3 42 55.45 42.15 55.65 42.1
L 55.85 42.1
Q 56.15 42.35 56.55 42.25
L 56.75 42.25
Q 57 42.5 57.65 42.7
L 57.75 42.6
Q 57.45 42.15 57.75 41.9
L 58.05 41.95 58.2 42.1 58.25 42.2 58.7 42.25
Q 58.75 42.3 58.75 42.15
L 58.85 42.05
Q 59.05 42.2 59.15 42.45 59.25 42.6 59.45 42.55 59.8 42.55 59.6 42.35 59.4 42.05 59.5 41.8
L 59.7 41.8
Q 59.85 41.9 60.15 42 60.4 42.15 60.45 42.35
L 60.55 42.45
Q 60.85 42.55 61.45 43.15
L 61.95 43.65 62 43.75 61.95 43.8 61.3 43.75 61.2 43.85
Q 61.1 43.95 61.25 43.95 61.55 43.95 61.95 44.15
L 63.3 44.75
Q 63.55 44.8 63.85 45.1
L 63.95 45.25
Q 64.2 45.5 64.3 45.5
L 64.8 45.5 65.3 46
Q 65.9 46.5 66.1 46.55 66.25 46.6 66.45 46.9 66.65 47.4 67.3 47.55 68.1 47.65 68.35 47.8 68.5 47.95 68.6 47.7 68.75 47.3 69.15 47.4
L 69.2 47.4
Q 69.4 47.4 69.3 47.2
L 69.2 46.95
Q 69.1 46.7 69.35 46.7 69.75 46.7 69.9 46.55
L 70.05 46.55
Q 70.3 46.7 70.85 46.85
L 71 46.95 71.1 47.05
Q 71.1734375 47.1234375 71.15 47.2 71.2583984375 47.2330078125 71.45 47.3 71.4724609375 47.3146484375 71.5 47.3
L 71.7 46.95 71.8 46.85
Q 72.15 46.55 72.25 46.05 72.3 45.9 72.5 45.85
L 72.7 45.75
Q 73.05 45.25 73.05 44.9
L 73.1 44.2
Q 73 43.95 73.15 43.75 73.4 43.45 73.2 43.1 73.1 42.85 73.2 42.4 73.35 41.9 73.2 41.55 73.35 41.4 73.35 41.2 73.35 40.75 73.5 40.3
L 73.5 40.1
Q 73.6 39.35 73.75 39 73.8 38.9 73.75 38.75
L 73.65 38.25
Q 73.6 38.2 73.7 38.1
L 73.85 38.15 73.9 38.2 74.55 39.45
Q 75.45 41 75.7 41.3
L 76.1 41.9 76.15 42.05
Q 76.3 42.2 76.5 42.55 76.75 42.8 77.15 42.6
L 77.15 42.15
Q 77 41.95 77 41.8
L 77 41.35 76.95 41.15
Q 77 40.8 76.95 40.5
L 76.7 40.25 76.7 39.85 76.55 39.7 76.55 39.5
Q 76.4 39.3 76.45 39.2
L 76.3 39.05 76.3 38.85 76.2 38.75 76.05 38.2
Q 75.9 38 75.9 37.85
L 75.8 37.75 75.8 37.55 75.7 37.45 75.65 37.2 75.55 37.1
Q 75.4 36.9 75.45 36.8
L 75.4 36.55 75.3 36.45 75.3 36.25
Q 75.3 36.05 75.15 35.9
L 75.05 35.8 75.05 35.6
Q 74.9 35.4 74.9 35.25
L 74.8 35.15 74.65 34.85 74.55 34.5 74.55 34.3 74.5 34.05 74.5 33.4 74.35 33.3 74.35 33.1 74.2 32.55 74.1 32.4 74.1 32.2 74 32.1 73.95 31.9
Q 73.95 31.8 73.8 31.65 73.6 31.5 73.6 31.35 73.45 31.15 73.5 31
L 73.15 30.7
Q 72.9 30.45 72.9 30.25
L 72.65 30.05
Q 72.65 29.85 72.45 29.85
L 72.4 29.75 71.8 29.2 71.8 29.15 71.85 29.1 71.5 28.8 71.4 28.75 71.4 28.65
Q 70.95 28.35 70.9 28.05 70.85 27.9 70.6 27.7 70.35 27.5 70.3 27.3 70.35 27 70.1 26.75 69.6 26.25 68.25 25.2 67 24.25 66.4 23.55 66.25 23.4 65.7 23.3
L 65.45 23.1
Q 65.25 23 65.1 23
L 65 22.9
Q 64.9 22.95 64.8 22.8 64.65 22.7 64.55 22.7
L 64.4 22.6
Q 64.2 22.5 64.1 22.5
L 63.95 22.4
Q 63.85 22.4 63.7 22.25 63.55 22.1 63.4 22.1 63.2 22 63.05 22
L 62.95 21.9
Q 62.75 21.8 62.6 21.8 62.4 21.7 62.3 21.7
L 62.15 21.6
Q 61.95 21.5 61.85 21.5
L 61.7 21.4 61.5 21.45 61.25 21.2
Q 61.05 21.1 60.9 21.1 60.75 21.15 60.65 20.95 60.45 20.8 60.35 20.8
L 60.15 20.85 60 20.75
Q 59.45 20.4 59.2 20.45 58.95 20.2 58.75 20.25
L 58.55 20.05
Q 58.45 20.05 58.25 19.9 58.1 19.75 57.95 19.85
L 57.85 19.7 57.35 19.5 56.75 19.15 56.65 19.15 56.5 19 56.45 19.05 56.4 19.05 56.15 18.9 56.15 18.95 56.05 18.8 56 18.9 55.85 18.85 55.7 18.75 55.6 18.6 55.55 18.65 55.5 18.65 55.3 18.5 55.05 18.4 54.8 18.35 54.8 18.3 54.7 18.2 54.65 18.25 54.6 18.25 54.4 18.1 54.15 18.05 54 18 54 18.05 53.9 17.9 53.85 18 53.7 17.9 53.6 17.9 53.55 17.85 53.35 17.85 53.2 17.75 53.15 17.8 53.1 17.75 53 17.7 52.8 17.65 52.75 17.65 52.6 17.6 52.45 17.6 52.25 17.55 52 17.55 51.85 17.5 51.65 17.5 51.6 17.55 51.55 17.5 51.4 17.5
Q 51.25 17.4 50.9 17.35 50.5 17.35 50.4 17.3
L 50.2 17.35
Q 49.65 17.25 49.4 17.25 48.9 17.2 48.55 17.3 47.6 17.15 46.55 17.4 45.3 17.4 44.6 17.7 44.4 17.85 44.25 17.85
L 43.8 17.85
Q 43.6 17.9 42.85 18.25
L 42.6 18.25
Q 42.25 18.4 42.05 18.4
L 41.95 18.5 41.75 18.55 41.5 18.55
Q 41.4 18.55 41.3 18.65 41.2 18.8 41.1 18.8
L 40.95 18.9
Q 40.8 19.05 40.65 19
L 40.55 19.15
Q 39.85 19.35 39.2 20.05 38.5 20.95 38.15 21.35
L 38.1 21.3
Q 37.8 21.2 37.45 21.45 37 21.75 36.9 21.75 36.65 22 36.5 22 36.3 22.15 36.15 22.15 35.9 22.35 35.7 22.35 35.5 22.45 35.5 22.6
L 35.4 22.7
Q 35.35 22.95 35.05 23.2 34.75 23.55 34.65 23.7
L 34.65 23.75 34.6 23.75 34.6 23.85 34.5 24 34.4 24.25 34.3 24.4 34.3 24.45 34.15 24.35 34.05 24.45 34.15 24.55 34.15 24.6 34.05 24.65 33.95 24.8 33.95 25
Q 34.2 25.35 34 25.65
L 33.9 25.8 33.9 26 33.8 26.1 33.8 26.35 33.95 26.45 34 26.8 33.95 26.9 33.45 27.45 33.5 27.55 33.45 27.7 33.45 27.9 33.5 28 33.45 28.15 33.45 28.35
Q 33.5 28.4 33.45 28.4
L 33.35 28.45 33.15 28.7
Q 33.1 28.9 33.3 29.25
L 33.4 29.35 33.4 29.55
Q 33.45 29.7 33.35 29.9
L 33.35 30.1 33.25 30.25 33.25 30.7 33.15 30.8 33.15 31 33.4 31.25 33.3 31.55 33.2 31.7
Q 33.2 31.85 33 32.15
L 33.35 32.45 33.35 32.9 33.25 33 33.25 33.25
Q 33.3 33.35 33.2 33.55
L 33.2 33.8 32.55 34.5
Q 32.4 34.55 32.25 34.75 32.05 34.95 31.9 34.95
L 31.7 35.2
Q 31.4 35.3 31.4 35.55
L 31.4 35.75 31.5 35.85
Q 31.5 35.9 31.7 36.25 31.8 36.5 31.7 36.65 31.65 36.75 31.35 37.6 31.2 38.15 30.85 38.45
L 30.9 38.65 30.9 39.3 30.8 39.45
Q 30.85 39.55 30.7 39.8 30.2 40.8 28.9 41.55 28.8 41.95 28.5 42
L 28.3 42.2 28.3 42.45
Q 28.15 42.6 28 42.55 27.75 42.65 27.75 42.8
L 27.8 43
Q 27.5 44.7 28 46.25 28.25 46.9 28.15 47.8 27.95 49.65 28.7 50.4 28.8 50.5 29.05 51.15
L 29.25 51.8
Q 29.25 52.1 29.15 52.25
L 28.8 52.55
Q 28.55 52.65 28.25 52.95 27.95 53.1 27.6 53
L 27.05 52.9
Q 26.85 52.95 26.75 52.75
L 26.6 52.5 26.95 52.2
Q 27.1 52.05 27 51.85 26.8 51.55 26.55 51.6 26.3 51.4 25.85 51.4
L 25.65 51.45
Q 25.5521484375 51.384765625 25.45 51.3 24.8005859375 51.2044921875 24.85 51.65 24.3 51.7 24.9 50.65 25.180078125 50.230078125 25.4 50.2 25.4505859375 50.0736328125 25.5 49.95
L 26.05 48.65
Q 26.2 48.25 26.45 48 26.6228515625 47.8271484375 26.7 47.7 26.471484375 47.848828125 26.05 47.95 26.15 47.3 27.15 46.85 27.1669921875 46.9404296875 27.15 47
L 27.5 46.45
Q 27.8 44.05 27.2 42.95
L 27.1 42.6 27.1 42.4 27.05 42.15 27.15 41.85 27.15 41.6 26.95 41.4 27 41.4 27.05 41.3
Q 26.85 40.95 26.9 40.75
L 26.75 40.65 26.75 40.4
Q 26.5 40.2 26.5 40
L 26.5 39.75
Q 26.5 39.55 26.3 39.55
L 26.05 39.55
Q 25.95 39.25 25.8 39.15
L 25.35 39.15 25.05 39.3
Q 24.75 39.4 24.75 39.65 24.6 40.05 24.2 40.2
L 24.1 40.35 24 40.65 23.8 40.9 23.7 41.25 23.6 41.35 23.6 41.55
Q 23.45 41.95 23.4 42
L 23.4 42.25
Q 23.45 42.35 23.35 42.6
L 23.35 42.8
Q 23.2 43.1 23.45 43.35
L 23.5 43.55 23.4 43.7 23.4 43.9 23.3 44.25 23.3 44.45 23.2 44.6 23.2 45 23.1 45.15 23.15 45.35
Q 23.05 45.75 22.95 45.8
L 22.95 46.45 22.85 46.6 22.85 46.8 22.75 46.95 22.75 47.15
Q 22.8 47.25 22.7 47.5
L 22.6 47.6 22.15 47.6 21.9 47.65 21.8 47.55
Q 21.45 47.5 21.15 47.55
L 20.9 47.55 20.8 47.7 20.35 47.7 20.15 47.95
Q 19.95 47.95 19.95 48.2
L 19.75 48.4
Q 19.75 48.5 19.65 48.65 19.55 48.75 19.55 48.85
L 19.35 49.1 19.35 49.3 19.25 49.45 19.25 49.85 19.15 50.2
Q 19.2 50.35 19.05 50.55
L 19.05 50.75
Q 19.15 51.1 19.55 51.4 19.55 51.6 19.3 51.8 19.1 52.05 19.05 52.2
L 18.95 52.55 18.95 52.75
Q 19.1 53.05 18.75 53.65
L 18.9 54.2 18.9 54.45 18.95 54.65 18.95 54.85 19.05 55 19.05 55.2 19.2 55.3 19.2 55.5 19.1 55.85 19 55.95 19 56.4 19.05 56.65 19.15 56.75 19.05 56.85 19.25 57.05 19.05 57.3 19.2 57.4 18.95 57.65 19 57.85 19 58.1 19.05 58.45 18.9 58.85 18.95 59.75 18.9 59.75
Q 18.75 59.85 18.75 59.95
L 18.75 60.2 18.8 60.4 18.8 60.65
Q 18.7 61.15 18.85 61.5
L 18.85 61.75 19.25 63.4 19.25 63.6 19.4 63.7 19.4 63.95
Q 19.4 64.05 19.5 64.25
L 19.65 64.35 19.65 64.6 19.8 64.9 19.9 65 20 65.35 20.15 65.65
Q 20.15 65.8 20.25 66
L 20.4 66.1
Q 20.4 66.3 20.6 66.3
L 20.5 66.4 20.75 66.65 20.65 66.75 20.85 66.95 20.75 67.05 21 67.3 20.9 67.4 21.05 67.55
Q 20.95 67.8 21.25 68.15 21.25 68.3 21.4 68.5
L 21.5 68.6 21.5 68.8 21.65 68.9 21.75 69.25
Q 21.75 69.45 22 69.65
L 22.1 69.75
Q 22.25 70.2 22.85 70.85
L 22.95 70.95
Q 22.95 71.1 23.15 71.25 23.3 71.4 23.3 71.5
L 23.55 71.7
Q 23.7 71.85 24 72.3 24.3 72.75 24.5 72.9 26.1 74.25 27.3 75.45 27.95 76.1 28.65 76.3
L 29 76.65 29.1 76.55 30.45 77.55 30.7 77.7
Q 31 77.85 31.75 78.5 31.95 78.45 32.1 78.6
L 32.4 78.7 32.85 79 35.75 80.45 36.15 80.6 36.4 80.8
Q 36.6 80.75 36.75 80.9
L 36.7 80.9 36.95 81.1 37.05 81 37.35 81.1
Q 37.4 81.3 37.65 81.3
L 37.95 81.4 38.1 81.5 38.45 81.6 38.65 81.6 38.75 81.7
Q 38.9 81.65 39.1 81.8 39.25 81.75 39.45 81.85 39.55 81.85 39.8 81.95
L 40 81.95 40.1 82.05 40.35 82.05
Q 40.5 82.05 40.9 82.15
L 41 82.25
Q 41.65 82.5 42.6 82.6
L 43 82.6 43.15 82.7 43.35 82.7 43.55 82.65 43.7 82.75 44.15 82.75 44.45 82.85 44.7 82.85 44.9 82.8 45.15 82.8 46.55 82.65 46.8 82.6 47 82.6
Q 47.55 82.6 47.8 82.45
L 48 82.45
Q 48.9 82.4 50.4 81.9
L 50.55 81.85 50.65 81.85 50.65 81.8 50.8 81.8 50.95 81.75 51.15 81.65 51.2 81.6 51.35 81.6 51.45 81.55 51.5 81.6 51.55 81.55 51.6 81.55 51.7 81.6 51.8 81.5 51.85 81.5 52.1 81.4 52.35 81.35 52.45 81.3 52.6 81.2
Q 52.65 81.25 52.7 81.2
L 52.9 81.2 53.05 81.1 53.25 81.1 53.45 81.05 53.6 80.95 53.8 80.95 53.9 80.85 54.1 80.8 54.35 80.8 54.65 80.65 54.75 80.55 55 80.55 55.1 80.45 55.3 80.4 55.55 80.4 55.65 80.3 55.85 80.3 55.95 80.15 56.2 80.15 56.3 80.05 56.5 80.05 56.6 79.9 56.85 79.9 56.95 79.8 57.25 79.65 57.4 79.55 57.6 79.55 57.7 79.4 57.95 79.4 58.15 79.15 58.35 79.15 58.45 79.05
Q 58.6 79.05 58.8 78.9
L 58.9 78.8 59.1 78.8 59.3 78.55 59.65 78.45
Q 59.85 78.45 60.1 78.2 60.2 78.2 60.4 77.95 60.55 77.75 60.7 77.7
L 60.95 77.5
Q 61.3 77.3 61.8 76.8 62.45 76.2 62.65 76.05
L 62.85 75.85 62.9 75.85 62.9 75.8 63.05 75.85 63.15 75.7 63.4 75.7
Q 63.55 75.7 63.65 75.55 63.8 75.35 63.9 75.35 64.2 75.45 64.55 75.1
L 64.7 75
Q 64.8 75 64.95 74.8 65.05 74.65 65.2 74.6 65.3 74.6 65.45 74.5 65.55 74.4 65.65 74.4
L 65.65 74.35 65.95 74.25 66.2 74
Q 66.35 74 66.6 73.75
L 66.85 73.55
Q 66.95 73.55 67.15 73.4
L 67.45 73.05
Q 67.5 72.75 67.8 72.7
L 68.05 72.45 68.1 72.35
Q 68 72.2 68.2 72 68.7 71.5 68.9 71
L 69 70.9
Q 69 70.8 69.15 70.6 69.3 70.45 69.3 70.3
L 69.3 70.1
Q 69.65 69.5 69.7 69.2
L 69.9 68.95 70 68.95 70.05 68.85 70 68.6
Q 70 68.5 69.85 68.35 69.65 68.25 69.65 68.1 69.65 68.05 69.55 67.95
L 69.65 67.85 69.65 67.65 69.5 67.55 69.4 67.45 69.4 67.2
Q 69.5 66.6 69.35 66.1 69.5 65.65 69.5 65.2
L 69.65 65.05 69.9 65.1
Q 70.3 65.3 70.85 65.1 71.1 65 71.15 64.85
L 71.75 63.95 72 63.65 71.95 63.6
Q 72.35 62.55 72.6 62.25
L 72.85 61.85
Q 72.95 61.55 73.4 61.3 73.55 61.25 73.55 61.05 73.55 60.8 73.75 60.5 74 60.2 73.9 59.9
L 74.3 59.45 74.2 59.1 74.35 58.2
Q 74.65 57.8 75.15 58
L 75.6 58.25 76.15 58.15 76.15 58.1 76.2 58.25
Q 76.4 58.4 76.65 58.3 76.8 58.25 77.05 58.1
L 77.15 57.95
Q 77.3 57.95 77.35 57.75
L 77.55 57.75
Q 78.45 57.6 79 57.05
L 79.15 56.85 79.2 56.8
Q 79.45 56.7 79.6 56.85
L 79.75 56.95 79.95 56.75
Q 79.9 56.55 80.05 56.45 80.3 56.4 80.5 56
L 80.9 55.35 80.9 55.3 80.95 54.7
Q 81.05 54.35 80.85 54.2 80.55 53.9 80.55 53.5
L 81.2 52.8 81.05 52.5
M 59.4 29.4
Q 58.45 29.65 59.15 28.95 60.35 29.25 59.4 29.4
M 56.85 31
Q 55.85 30.55 56.9 30.85 57.75 31.45 56.85 31
M 48.05 29.4
Q 47.15 29.65 47.85 28.95 49.05 29.25 48.05 29.4
M 53.65 48.45
Q 54.45 49.05 53.55 48.6 52.6 48.1 53.65 48.45
M 69.7 27.8
Q 70.6 27.85 69.8 28.3 69 28.75 69.7 27.8
M 61.55 28.5
Q 62.55 28.2 61.65 28.8 60.85 29.35 60.9 28.75 60.4 28.6 60.65 28.55 61.3 28.65 61.55 28.5
M 68.95 31.45
Q 69.05 31.1 69 30.95 69.3 30.9 69.35 31.2 69.5 31.55 69.2 31.6 68.95 31.65 68.95 31.45
M 62.9 41.75
Q 62.75 41.75 62.7 41.65
L 62.65 41.45 63.1 41.6 63.05 41.65
Q 63.05 41.75 62.9 41.75
M 39 24.15
Q 39.1 23.8 39.05 23.65 39.35 23.6 39.45 23.9 39.5 24.25 39.3 24.35 38.9 24.35 39 24.15
M 29.1 42.35
Q 28.25 42.75 28.95 41.8 29.9 41.85 29.1 42.35
M 25.6 45.6
L 26.3 45.35
Q 26.8 46.3 25.9 46.55
L 25.6 45.6
M 34.15 42.3
Q 34.2 41.95 34.15 41.8 34.45 41.85 34.5 42.05 34.6 42.4 34.35 42.5 34.1 42.55 34.15 42.3
M 34.4 40.55
Q 34.45 40.6 34.3 41.4 33.75 41.5 33.95 41 34.1 40.3 33.9 40.1 34.45 39.9 34.4 40.55
M 36.15 54.65
Q 36.35 54.65 36.55 54.9 36.65 55.35 36.75 55.5 36.5 55.55 36.4 55.2 36.25 55.1 36.15 54.65
M 30.55 52.65
Q 30.5 53.15 30.55 53.3 30.1 53.3 30.2 53 30.15 52.8 30.2 52.4 30.6 52.35 30.55 52.65
M 34.75 52.9
Q 35 52.9 35.2 53.2 35.3 53.65 35.45 53.75 35.15 53.9 35 53.55 34.9 53.35 34.75 52.9
M 33.7 60.4
Q 32.9 60.85 33.55 59.95 34.5 60 33.7 60.4
M 24 59.45
Q 24.45 58.85 24.4 58.8 24.65 58.8 24.95 59.15 25.1 59.7 25.2 60 25.05 60 24.85 59.8 24.75 59.7 24.65 59.4 24.3 59.5 24.4 59.85 23.7 59.9 24 59.45
M 28.75 66.15
Q 27.95 66.6 28.65 65.65 29.55 65.75 28.75 66.15
M 25 68.65
L 25.05 68.6 25.5 68.6 25.6 68.5 26.85 69.65
Q 27.3 70 27.6 70.1
L 29.15 70.65 29.85 70.7 30.15 70.75 30.35 70.7 30.65 70.8
Q 31 70.85 31.3 71.1 31.4 71.2 31.6 71.2
L 31.75 71.3
Q 32 71.55 32.2 71.5 33.05 72.25 33.35 72.4 33.95 72.75 34.15 73.3 34.15 73.4041015625 34.15 73.5 34.2568359375 73.5466796875 34.35 73.5 34.524609375 73.89296875 34.05 73.85 34.028125 73.9126953125 34 73.95
L 33.95 74.15
Q 33.85 74.4 34 74.6
L 33.35 75.3
Q 33.2 75.25 33.05 75.3
L 32.8 75.2 32.45 75.3 32.35 75.35
Q 32.35 74.95 32 74.65 31.9 74.55 31.35 74.25
L 30.8 74.05 30.6 74 30.45 73.85 30.35 73.7 30.35 73.65 30 73.45 29.95 73.45 29.3 73.05 29.1 72.85 29.05 72.6
Q 28.95 72.3 28.75 72.3 28.4 72.2 28.3 72.05 27.95 71.55 27.6 71.35
L 27.25 71.05
Q 27 70.8 26.85 70.75 26.55 70.65 26.6 70.35
L 26.15 69.55
Q 25.9 69 25.35 68.85
L 25 68.7 25 68.65
M 26.75 74.15
Q 26.8 73.8 26.75 73.65 27.05 73.6 27.1 73.95 27.2 74.2 26.95 74.35 26.7 74.3 26.75 74.15
M 38.75 64.45
Q 37.9 64.9 38.65 63.95 39.6 64 38.75 64.45
M 40.25 66.25
Q 40.15 66.05 40 65.65 40.25 65.65 40.4 65.95 40.6 66.35 40.7 66.55 40.4 66.65 40.25 66.25
M 32.65 64.6
Q 30.85 63.65 33 64.45
L 33.35 64.4
Q 33.9 65.35 32.65 64.6
M 37.1 72.75
Q 36.2 72.9 36.85 72.25 38.05 72.55 37.1 72.75
M 30.45 64.85
Q 29.65 65.25 30.35 64.35 31.3 64.4 30.45 64.85
M 37.6 75.05
Q 37.8 75.05 38.25 75.05 38.15 75.45 37.85 75.45 37.45 75.4 37.25 75.4 37.3 75 37.6 75.05
M 80.25 55.25
Q 79.3 55.5 79.95 54.85 81.15 55.1 80.25 55.25
M 72.5 54.15
Q 72.4 53.95 72.25 53.55 72.5 53.5 72.65 53.85 72.8 54.25 72.85 54.4 72.65 54.5 72.5 54.15
M 66.65 61.1
L 66.6 61.1
Q 66.4 60.8 66.55 60.6 66.75 60.4 66.9 60.55
L 66.65 61.1
M 66.55 57.55
Q 65.55 57.05 66.65 57.4 67.5 58 66.55 57.55
M 68.4 67.1
Q 68.45 66.7 68.4 66.6 68.75 66.5 68.85 66.85 68.95 67.15 68.65 67.25 68.35 67.25 68.4 67.1
M 67.45 65.85
Q 67.45 65.15 68.15 64.85 68.2 65.6 67.45 65.85
M 47.3 52.4
Q 46.45 52.75 47.1 51.85 48.05 51.9 47.3 52.4
M 46.45 50.8
Q 46.65 50.45 46.55 50.25 47.2 50.05 47.05 50.8 46.8 51.45 46.25 51.4 46.25 51.15 46.45 50.8
M 46.15 58.9
Q 46.25 58.5 46.15 58.4 46.5 58.35 46.55 58.6 46.7 58.95 46.4 59 46.15 59.05 46.15 58.9
M 43.35 68.25
Q 42.4 67.8 43.4 68.15 44.3 68.75 43.35 68.25
M 43.15 70.9
Q 42.2 70.4 43.25 70.75 44.15 71.35 43.15 70.9
M 49.25 72.45
Q 48.4 72.9 49.15 71.9 50.05 72 49.25 72.45
M 56.25 67.7
Q 56.8 68.1 56.9 68.1 57 68.65 56.6 68.3 56 68 55.8 68.1 55.8 67.4 56.25 67.7
M 57.55 77
Q 57.45 76.75 57.3 76.4 57.55 76.35 57.7 76.7 57.85 77.05 57.9 77.25 57.75 77.25 57.55 77
M 55 75.85
Q 55.2 75.8 55.65 75.85 55.6 76.2 55.3 76.25 54.85 76.2 54.7 76.2 54.7 75.8 55 75.85
M 55.6 78.6
Q 54.65 78.8 55.4 78.15 56.5 78.4 55.6 78.6
M 51.6 80.75
Q 50.7 80.9 51.4 80.3 52.5 80.55 51.6 80.75
M 49.65 78.1
Q 48.75 77.6 49.75 77.95 50.65 78.5 49.65 78.1
M 46.95 76.6
Q 47.55 77.3 47.7 77.2 47.75 77.45 47.45 77.4 46.95 77.45 46.75 77.55 46.85 77.15 46.8 77 46.8 76.8 46.55 76.85 46.6 76.05 46.95 76.6
M 44.5 74.3
Q 44.75 74.25 44.95 74.55 45.1 74.95 45.15 75.15 44.95 75.2 44.75 74.9 44.65 74.75 44.5 74.3
M 42.85 80.3
Q 42.45 80.15 42.25 80.25 42.25 79.85 42.55 79.8 42.75 79.85 43.2 79.9 43.15 80.25 42.85 80.3
M 40.7 77.15
Q 41.65 77.15 40.85 77.65 40 78.05 40.7 77.15
M 42.55 82.25
Q 42.55 81.55 43.3 81.3 43.3 82 42.55 82.25 Z"/>
</g>
</defs>

<g transform="matrix( 1, 0, 0, 1, 0,0) ">
<use xlink:href="#Layer1_0_FILL"/>
</g>
</svg>
