
<svg xmlns="http://www.w3.org/2000/svg" version="1.1" xmlns:xlink="http://www.w3.org/1999/xlink" preserveAspectRatio="none" x="0px" y="0px" width="100px" height="100px" viewBox="0 0 100 100">
<defs>
<g id="Layer1_0_FILL">
<path fill="#000000" stroke="none" d="
M 81.4 49.3
L 81.25 49.3 80.95 49.15 80.95 49 80.65 48.7 80.45 48.55 80.15 48.25
Q 80.15 47.8 80 47.6
L 79.7 47.3 79.55 47.25 79.55 47.15
Q 79.45 47.1 79.35 46.65 79.2 46.6 79.2 46.35
L 79.05 46.2
Q 78.4 45.75 77.95 45.1 77.6 45.1 77.5 44.95
L 77.2 44.65 77.05 44.45 76.85 44.3 76.4 43.85
Q 76.25 43.8 76.25 43.55
L 76.5 43.35 76.55 43
Q 76.55 42.85 76.4 42.75
L 76.25 42.6 76.5 42.6
Q 76.55 41.85 76.4 41.5 76.3 41.4 76.1 40.85
L 75.95 40.7 75.6 40.25 75.3 39.95
Q 74.85 39.4 74.7 39.3 74.6 39.15 74.6 38.9 74.6 38.65 74.55 38.55
L 73.25 37.25 73.25 37.1 73.1 37.1 72.95 36.95 72.95 36.65 73.05 36.6
Q 73.05 36.05 73.45 35.85
L 73.6 35.7
Q 73.65 35.65 73.85 35.65 74 35.65 74.05 35.55
L 74.2 35.55 74.35 35.4 74.55 35.4
Q 74.65 35.25 75 35.25 75 35.2 75.45 35.1 75.7 35 75.45 34.6 75.25 34.5 75.15 34.6
L 75 34.6
Q 74.8 34.85 74.55 34.6 74.4 34.45 74.55 34.3
L 74.55 34.15 74.7 34
Q 75.15 33.3 75.2 33.1 75.3 33.15 75.3 33.5
L 75.8 33.5 75.8 33.05 75.6 32.9
Q 75.4 32.8 75.65 32.65
L 75.95 32.6
Q 75.95 32.4 75.8 32.25
L 75.8 32.1 76.1 31.95 76.1 31
Q 75.75 30.85 76.1 30.4
L 76.25 30.25 76.25 30.1
Q 75.65 29.75 75 30.05
L 74.7 30.2 74.5 30.1
Q 74.4 30.05 74.4 29.8
L 74.55 29.6
Q 74.7 29.5 75 29.2
L 75.2 29
Q 75.25 28.95 75.2 28.9 75.2 28.8 75.15 28.8
L 74.85 28.7 74.4 28.8 74.05 28.8
Q 73.65 28.55 73 28.85
L 72.5 29 72.35 29.3 71.85 29.55
Q 71.15 29.75 70.75 29.4
L 70.55 29.25
Q 70.4 29.15 70.3 28.9 70.15 28.6 69.7 28.65
L 69.55 28.65 69.4 28.4
Q 69.15 28.15 69.1 27.95
L 68.6 26.35
Q 68.55 26.25 67.7 25.1 67.55 24.85 67.2 25 66.75 25.2 66.4 24.75
L 66.25 24.6 65.9 24.1
Q 65.45 23.55 64.85 23.75
L 64.7 23.75 64.5 23.7
Q 64 23.15 63.6 23
L 63.15 22.75 62.65 22.25 62.6 22.05 62.1 21.45
Q 62 21.35 61.95 21.4 61.6 21.5 61.3 21.35 60.75 21.2 60.45 21.6
L 60.25 21.7
Q 60.15 21.8 60 21.7
L 59.9 21.6 59.5 21.3
Q 59.35 21.25 59.2 21.35 59 21.5 58.9 21.5 58.65 21.6 58.75 21.8 58.95 22.15 58.75 22.8
L 58.45 23.25 58 23.55
Q 57.75 23.7 57.6 23.55 57.35 23.4 57.25 23.5
L 57.05 23.65
Q 56.65 23.9 56.3 23.7
L 55.9 23.65 55.65 23.5
Q 55.35 23.5 54.95 23.65
L 54.2 23.85 53.95 24 53.65 24.25
Q 53.6 24.3 53.45 24.25 53.35 24.2 53.35 24.1
L 53.4 23.6
Q 53.4 23.4 53.2 23.4 52.85 23.3 52.75 23.15
L 52.45 23.05
Q 52.2 23 52 22.8
L 51.65 22.6
Q 51.45 22.55 50.9 22.1 50.7 22.1 50.6 21.95
L 50.15 21.8
Q 49.9 21.55 49.5 21.45 49.4 21.3 49.05 21.3
L 48.9 21.2
Q 48.4 21.1 48.15 20.9 47.9 20.8 47.8 20.8 47.6 20.7 47.4 20.8
L 47.2 20.75
Q 47.05 20.6 46.65 20.5
L 46 20.35
Q 45.8 20.25 45.75 20.05 45.3 20.05 45.05 20.15 44.8 20.3 44.55 20.05
L 44.45 19.95
Q 44.35 19.8 43.35 19.25
L 42.35 19.05
Q 41.85 18.9 41.45 19.1 41.25 19.15 41.1 19 40.55 18.55 40.4 18.5 39.98203125 18.41640625 39.5 18.1 39.3396484375 18.2015625 39.15 18.05 38.90234375 17.8376953125 38.75 17.7 38.6111328125 17.7 38.45 17.7 37.75 17.8 37.25 17.6
L 37 17.55
Q 36.65 17.55 36.5 17.9 36.3 18.05 36.4 18.3
L 36.5 18.4
Q 36.8 18.7 36.6 19.05
L 36.45 20 36.3 20.1 36.1 20
Q 36 19.7 36 19.55 35.95 19.25 36.15 19.05
L 36.2 18.9
Q 36.2 17.9 35.95 17.55
L 35.9 17.4 34.95 17.4 34.95 17.1 33.25 17.1
Q 33.1 17.25 32.9 17.25
L 30.25 17.25
Q 29.95 17.3 29.8 17.4 29.75 17.35 29.65 17.4
L 29.5 17.4
Q 29.15 17.45 29 17.55
L 28.85 17.55
Q 28.6 17.6 28.5 17.75
L 28.4 17.75 28.4 17.7 28.05 17.75
Q 28 17.85 28.05 17.9
L 27.9 17.9
Q 27.9 17.6 27.75 17.9
L 27.6 17.9 27.6 18.05
Q 27.1 17.95 26.75 18.3
L 26.3 18.6 26.05 18.65
Q 26.05 19 25.65 19.2
L 24.4 20.15
Q 24 20.6 23.85 20.95
L 23.75 21.15
Q 23.4 21.45 23.3 22.05 23.25 22.5 22.9 22.9
L 22.45 22.75
Q 21.8 22.9 21.5 23.6
L 21.45 23.9
Q 21.35 24.2 21.15 24 20.9 23.8 20.4 23.8
L 20.4 24.15 20.35 24.4
Q 20.25 24.6 20.25 24.9
L 20.25 25.35
Q 20.25 25.7 19.95 25.85
L 19.95 26
Q 19.95 26.3 19.65 26.35
L 19.45 26.5
Q 19.45 26.7 19.35 26.75
L 19 26.95
Q 18.8 27.1 18.65 27.35 18.5 27.6 18.5 27.85 18.6 28.1 18.5 28.3 18.5 28.6 18.4 28.7 18.2 28.95 18.2 29.35 18.25 29.7 18.05 30.4
L 17.6 31 17.6 31.3
Q 17.6 31.5 17.45 31.65 17.4 31.95 17.25 32.6 17.3 32.7 17.15 32.95
L 16.95 33.2 16.8 33.2 16.8 34.15 16.65 34.15 16.65 34.3 16.8 34.3 16.8 34.75
Q 16.8 34.95 16.65 35.1 16.65 35.35 16.5 35.4 16.5 35.75 16.6 35.9 16.65 36.1 16.6 36.3
L 16.45 36.8 16.35 36.95
Q 16.35 37.35 16.5 37.45 16.5 38.25 16.6 38.5
L 16.65 38.8
Q 16.6 39 16.5 39.4 16.4 39.75 16.2 39.95
L 15.85 39.95 15.55 40.25
Q 15.55 40.55 15.25 40.55 15.25 40.95 15.05 41.15
L 15 41.25 14.95 41.25
Q 14.85 41.35 14.75 41.65
L 14.45 41.95 14.45 42.45 14.75 42.75
Q 14.85 42.9 14.85 43.5 14.7 44.15 15.35 44.35
L 15.4 44.2 15.4 44.3
Q 15.45 44.45 15.7 44.45
L 15.75 44.5
Q 15.7 44.5 15.7 44.65
L 15.85 44.8 15.85 45.9 15.8 46.15
Q 15.15 46.7 15 46.7 14.9 46.7 14.8 46.9
L 14.6 47.15
Q 14.6 47.4 14.45 47.45
L 14.4 47.75
Q 14.4 47.9 14.55 47.9 14.65 47.95 15.05 47.8 15.45 47.7 15.55 48.1
L 15.55 48.55
Q 15.8 48.85 15.55 49.15
L 15.7 49.5
Q 16.05 49.5 16.15 49.75
L 16.15 49.8 16.2 49.95 16.35 50.1 16.35 50.25 16.2 50.4 16.2 51.35
Q 15.8 51.55 15.85 51.95 15.9 52.55 15.85 52.65 15.45 53.35 16.15 53.8 16.75 54.2 16.65 54.95
L 16.8 54.95
Q 17.05 54.8 17.2 55.05
L 17.35 55.2 17.6 55.3
Q 17.9 55.75 18.5 55.75
L 19.25 55.75 19.4 55.9 19.4 56.05
Q 19.35 56.3 19.55 56.35
L 19.65 56.35
Q 20.05 56.45 20.2 56.8 20.35 57.2 20.1 57.55
L 20 57.65
Q 19.9 57.85 20.05 58.1 20.35 58.4 20.55 58.4 20.9 59.2 20.85 59.8 20.9 59.85 21.05 60.25
L 20.85 60.25 20.85 60.6 21.2 60.75
Q 21.5 60.9 21.5 61.2
L 21.5 61.6
Q 21.5 61.85 21.65 62.15 21.6 62.2 21.35 62.95
L 21.05 63.25 21.05 63.55
Q 21.2 63.7 21.2 64.05
L 21.2 64.2
Q 21.4 64.35 21.5 64.8 21.5 65.15 21.6 65.25 21.85 65.6 21.8 65.95
L 21.85 66.25
Q 21.8791015625 66.3666015625 21.85 66.5 22.2306640625 66.2962890625 22 66.95 21.6521484375 67.0369140625 21.45 67.05
L 21.15 67.45
Q 20.85 67.85 20.85 68.25
L 21.05 68.4 21.35 68.7 21.3 68.7
Q 21.25 68.95 21.35 69.05 21.45 69.1 21.55 69.35 21.6 69.55 21.75 69.6
L 21.9 70.1 21.85 70.2
Q 21.8 70.25 21.75 70.2
L 21.4 70.05
Q 21.25 69.9 21.25 70.15 21.2 70.25 21.2 70.75
L 21.4 70.85 21.55 70.8 21.55 70.8
Q 20.7658203125 70.25234375 22.15 70.3 24.15 70.4 21.9 70.6 21.7830078125 70.740234375 21.7 70.8 21.8552734375 70.8421875 21.95 71 22.1 71.15 22.2 71.1 22.55 71 22.6 71.3 22.6 71.5 22.75 71.55 22.9 71.4 23.05 71.55
L 23.2 71.7 23.55 71.7
Q 24 71.65 23.75 71.2
L 23.6 71.1
Q 23.1 70.4 23.35 69.75
L 23.35 69.65 23.55 69.5 23.7 69.75
Q 23.7 69.9 23.85 69.95 23.95 70.25 24.15 70.25
L 24.35 70.2
Q 24.5 70.1 24.4 70
L 24.2 69.75
Q 24.1 69.6 24.3 69.5 24.65 69.7 24.95 69.5
L 25.7 68.9 25.9 69.05
Q 25.9 69.3 26.05 69.35
L 25.95 69.4
Q 25.95 70.3 25.05 70.6 24.2 70.8 24.45 71.85
L 24.45 72 24.3 72.15 24.3 72.8
Q 24.45 72.95 24.3 73.1
L 24.3 73.25
Q 24.1 73.8 24.45 74.05
L 24.8 74.05
Q 24.85 74.15 25.05 74.15 25.2 74.15 25.25 74.2
L 25.25 74.35
Q 25.35 74.45 25.4 74.65 25.55 74.8 25.7 74.65 26.2 74.5 26.65 74.65 27.15 74.75 27.3 75.45 27.45 75.6 27.6 75.45
L 27.75 75.3
Q 28 75.1 28.2 75.3
L 28.35 75.4
Q 28.3775390625 75.3173828125 28.4 75.25 29.15 74.95 28.85 75.65 28.81328125 75.748046875 28.75 75.85
L 28.8 75.95 28.85 75.95
Q 29.35 75.65 29.55 75.4 29.65 75.3 29.8 75.4
L 29.95 75.65 29.95 76.25
Q 29.95 76.4 30.1 76.55
L 30.25 76.7
Q 30.45 76.7 30.6 76.55 30.95 76.25 31.55 76.45
L 31.8 76.7
Q 31.95 76.85 31.95 76.9
L 32 77.4
Q 32 77.65 32.25 77.75 32.5 77.95 32.7 77.8 32.85 77.65 32.95 77.8
L 33.15 77.9
Q 33.4 78.05 33.7 78
L 33.9 77.95
Q 34.25 77.85 34.15 77.55
L 34 77
Q 34 76.7 34.3 76.7
L 34.4 76.75
Q 34.9 76.65 35.25 76.8 35.35 76.85 35.65 76.85 35.95 76.85 36.15 77.05 36.4 77.3 36.75 77.35 36.95 77.45 37 77.65
L 37 77.8 37.15 77.9
Q 37.2 78 37.15 78.1
L 37.15 78.25
Q 37.6 78.5 37.7 78.1 37.75 77.95 37.85 77.9 38.05 77.85 38.1 77.8
L 38.25 77.8 39 77.5 39 77.3
Q 39.15 77.05 39.2 77
L 39.35 76.85
Q 39.55 76.85 39.8 77.1
L 40.1 77.5 40.65 77.9
Q 40.85 77.95 41.1 77.8
L 41.5 77.8
Q 41.75 77.8 41.8 78
L 41.85 78.15
Q 41.95 78.5 42.25 78.4
L 42.7 78.3 42.85 78.35 42.95 78.65
Q 42.95 78.85 43.1 79
L 43.3 79.05 43.4 78.95 43.4 78.65
Q 43.4 78.45 43.6 78.55 43.8 78.65 44.2 79.05
L 44.2 79.2
Q 44.1 79.55 44.25 79.8 44.4 80 44.15 80.25 44 80.4 44.15 80.65
L 44.5 81.25
Q 44.65 81.45 45.1 81.5
L 45.4 81.55 45.95 81.55
Q 46.15 81.55 46.2 81.7
L 46.2 81.85 46.35 82.2
Q 46.5 82.55 46.75 82.35
L 47.1 82.15 47.35 82.1
Q 48 82.25 48.4 82 48.5 81.7 48.7 81.7
L 49.1 81.65
Q 49.5 81.6 49.85 81.85 50.35 82.2 50.3 82.65
L 50.35 82.7
Q 50.6 82.95 50.8 82.85 51.15 82.7 51.55 82.95 51.55 82.6 51.7 82.5
L 51.85 82.35
Q 51.8 82.15 52.2 81.5
L 52.35 81.4 53.4 81.25 53.4 81.05 53.6 80.85
Q 53.65 80.85 53.75 80.45
L 53.9 80.45 53.9 80.15 54.2 79.9
Q 54.35 79.85 54.5 79.9 54.9 80.15 55 80.15
L 55.15 79.85 55.35 79.65
Q 55.5 79.4 55.9 79.2
L 56.05 79.2
Q 56.15 79.05 56.5 79.05 56.85 79.05 57 78.8
L 57.1 78.65
Q 57.3 78.5 57.45 78.65
L 57.65 78.9 57.85 78.95 58.35 79.3
Q 58.6 79.4 59.05 79.2
L 59.5 79.2 59.65 79.05 59.75 79
Q 59.95 78.95 60 79.1 60 79.3 60.15 79.35
L 60.15 79.5 60.45 79.5
Q 60.95 79.5 61.35 79.9 61.5 80 61.7 80.3
L 62.15 80.3
Q 62.35 80.3 62.5 80.15
L 63.1 80
Q 63.45 80.35 63.5 80.55
L 63.6 80.9 64.35 80.9 64.35 80.3 64.9 80.3
Q 65.25 80.3 65.3 80 65.4 79.85 65.55 79.85 65.85 79.85 66 79.5
L 66.1 79.35 66.4 79.35
Q 66.65 79.35 66.7 79.5
L 67 79.5 67.05 79.65 67.5 79.65 67.5 79.35 67.35 79.35 67.35 79.2 67.5 79.2 67.5 78.9
Q 67.7 78.85 67.8 78.6
L 67.95 78.6
Q 68.1 78.75 68.3 78.6 68.45 78.7 68.6 78.6
L 68.9 78.75
Q 69.25 78.65 69.45 79 69.55 79.15 69.8 79 70.05 78.9 70.15 79
L 70.3 79.1
Q 70.5 79.2 70.6 78.95
L 70.55 78.6
Q 70.5 78.45 70.55 78.25
L 70.6 78 70.65 77.95
Q 70.45 77.5 70.6 77.2
L 70.55 77.15 70.95 77.15 70.95 76.85
Q 70.95 76.65 71.1 76.55
L 71.1 76
Q 71.1 75.85 71.3 75.65
L 71.7 75.45
Q 71.830078125 75.36328125 72.15 75.3 72.1080078125 75.17265625 72.2 75.05 72.5 74.9 72.5 75.1 72.526953125 75.1947265625 72.55 75.25 72.7162109375 75.2337890625 72.8 75.15 72.95 74.85 72.8 74.65 72.6 74.4 72.95 74.2
L 73.1 74.2 73.15 74.05
Q 74.35 74.25 75 73.7 75.45 73.05 74.7 72.65 74.5 72.3 74.7 72
L 74.85 71.85 74.85 71.7 75.1 71.1 75.1 71
Q 75.35 70.65 75.45 70.15
L 75.55 70.1
Q 75.75 69.1 76.4 68.75 76.8 68.55 76.55 68.25
L 76.7 66.85 76.7 66.55
Q 76.85 66.35 76.8 65.9 76.8 65.5 76.9 65.3
L 76.95 65 76.9 64.9 76.9 64.8 76.8 64.8 76.75 64.75 76.9 64.65 77.05 64.5
Q 77.15 64.4 77.2 64.2 78 63.85 78.15 63.55
L 78.15 63.4
Q 78.1 63.35 78.05 63.2 78.05 63.1 78.1 63.1 78.5 63.05 78.55 62.7 78.55 62.35 78.6 62.15
L 78.65 61.75
Q 78.7 61.5 78.45 61.4
L 78.2 61.15 78 60.55
Q 78 60.3 78.15 60.3 78.4 60.2 78.55 60.35 78.8 60.45 79 60.3
L 79.25 60.25 79.2 60.05
Q 79.05 59.85 79.15 59.6 79.35 59.15 79.05 58.7 79.05 58.2 79.25 57.95
L 79.35 57.65 79 56.7
Q 78.85 56.2 79 55.7
L 79.35 54.7
Q 79.5 54.45 79.4 54.1
L 79.2 53.25
Q 79.05 52.5 79.05 52.4 78.95 52 79 51.8
L 79.1 51.2 79.05 51.05 79.1 50.1 79.25 49.95
Q 79.4 49.8 79.4 49.6
L 79.4 49
Q 79.5 48.95 79.4 48.85
L 79.4 48.75 79.45 48.65
Q 79.6 48.65 79.6 48.7
L 79.75 49.1
Q 80.15 49.65 80.15 50.15 80.25 50.5 80.5 50.55
L 80.4 50.65
Q 80.45 51.15 80.7 51.6 80.75 51.75 81.05 52 81.35 52.2 81.35 52.4 81.35 52.75 81.75 53.7 82.05 54.5 81.95 55 82.4 55.6 82.4 56.85 82.3 58.25 83.4 58.95 83.8 59.2 83.4 59.4 82.85 59.75 82.8 60.1 82.8 60.55 82.55 61.45 82.7 61.9 83.2 62.25 83.45 62.45 84.05 62.75 84.2 62.8 84.5 62.65
L 84.75 62.4 84.8 62.2
Q 84.8 61.9 84.95 61.8
L 85.1 61.7 85.2 61.6 85.3 61.4 85.35 61.1 85.25 60.7
Q 85.25 60.65 85 60.4 84.8 60.2 85 59.95
L 85.15 59.85 85.3 59.7 85.45 59.4
Q 85.6 58.9 85.5 58.7
L 85.5 58.3 85.4 57.95
Q 85.25 57.8 85.25 57.6
L 85.35 57.45 85.45 57.15
Q 85.55 56.65 85.45 56.1
L 85.3 55.6 85.05 55.35
Q 85.1 55.25 85.1 55.2
L 85 54.95
Q 84.95 54.9 84.95 54.45 85.05 54.3 84.95 54.05
L 84.9 53.75
Q 84.85 53.4 84.75 53.25 84.55 53.05 84.65 52.7
L 84.65 52.5 84.5 51.7 84.3 51.1
Q 84.2482421875 51.0482421875 84.25 50.95 84.22578125 50.99140625 84.2 51 83.8369140625 50.773046875 84.1 50.35
L 83.85 50.05 83.45 49.75
Q 82.6 49.2 82.05 49.3
L 81.75 49.45 81.75 49.5 81.7 49.5
Q 81.5 49.4 81.4 49.3
M 44.7 21.1
Q 44.75 21.45 44.9 21.55 44.65 21.75 44.4 21.5 44.2 21.25 44.35 21.05 44.65 20.9 44.7 21.1
M 43.25 21.65
Q 43.3 22 43.45 22.1 43.2 22.25 42.95 22.05 42.75 21.8 42.95 21.6 43.2 21.45 43.25 21.65
M 60.15 25.15
Q 60.25 25.5 60.35 25.6 60.1 25.75 59.9 25.5 59.7 25.3 59.85 25.1 60.1 24.95 60.15 25.15
M 54.3 29.2
Q 53.85 29.05 53.7 29.25 53.3 28.95 53.95 28.7 54.7 28.45 54.9 28.95 54.7 29.3 54.3 29.2
M 51.65 31.2
Q 52.35 30.6 52.05 31.5 50.9 31.8 51.65 31.2
M 59.35 36.3
Q 61.4 36.35 59.1 36.6
L 58.85 36.85
Q 57.9 36.25 59.35 36.3
M 46.4 29
Q 45.55 29.4 46.05 28.6 46.6 27.85 46.4 29
M 49.55 29.65
Q 49.4 29.3 49.7 29.15 50.1 29 50.25 28.9 50.4 29.25 50.1 29.4 49.95 29.5 49.55 29.65
M 42.35 25.3
Q 42.7 25.95 42.15 26.5 41.8 25.85 42.35 25.3
M 43.5 27.45
Q 43.3 27.5 42.9 27.7 42.75 27.35 43.05 27.2 43.45 27.1 43.6 26.95 43.8 27.3 43.5 27.45
M 41.35 31.9
Q 41.7 32.65 41.1 32.4 40.25 32.05 40.15 32.2 40 31.95 40.3 31.85 40.7 31.65 40.85 31.4 40.95 31.8 41.05 31.9 41.15 32.1 41.35 31.9
M 43.85 32.85
Q 44 32.95 44.35 33.25 44.15 33.4 43.85 33.2 43.5 32.95 43.35 32.8 43.55 32.65 43.85 32.85
M 47.1 35.65
Q 48.15 35.65 47.1 35.8 46.05 35.7 47.1 35.65
M 48.2 38.05
Q 49.2 38 48.2 38.2 47.1 38.1 48.2 38.05
M 50.05 47.7
Q 50.15 48.05 50.25 48.1 50 48.3 49.8 48.1 49.55 47.85 49.75 47.65 50 47.5 50.05 47.7
M 60.7 40.9
Q 59.85 41.3 60.4 40.5 60.9 39.75 60.7 40.9
M 52.35 38.8
Q 52.15 38.95 51.85 38.75 51.5 38.45 51.35 38.35 51.55 38.15 51.85 38.4 52 38.5 52.35 38.8
M 54.35 39.7
Q 53.5 40.1 54 39.3 54.55 38.55 54.35 39.7
M 60.4 46.7
Q 60.1 46.4 59.95 46.3 60.15 46.15 60.4 46.35 60.6 46.45 60.9 46.75 60.7 46.9 60.4 46.7
M 41 37.1
Q 41.55 36.3 41.35 37.5 40.5 37.85 41 37.1
M 61.15 35.1
Q 61.7 34.35 61.5 35.5 60.65 35.9 61.15 35.1
M 62.05 33.15
Q 62.6 32.35 62.4 33.55 61.55 33.9 62.05 33.15
M 68.85 36.7
Q 69.45 36.35 69.4 36.9 69.3 37.6 69.35 37.65 69.1 37.8 68.7 37.55 68.3 37.15 68.1 36.95 68.25 36.85 68.5 36.95 68.6 37 68.85 37.2 69.1 37 68.85 36.7
M 62.9 47.65
Q 62.7 47.8 62.4 47.6 62.1 47.3 61.9 47.2 62.1 47 62.4 47.25 62.6 47.35 62.9 47.65
M 67.2 46
Q 66.85 46.2 66.75 45.9 66.6 45.5 66.5 45.35 66.85 45.15 66.95 45.45 67.05 45.65 67.2 46
M 72.7 45.05
Q 72.6 46.15 71.85 45.6 71.35 45.05 71.9 44.8 72.5 44.55 72.25 44.15 72.75 43.9 72.7 45.05
M 24.3 23.35
Q 24.4 23.65 24.5 23.75 24.25 23.95 24.05 23.7 23.8 23.5 24 23.3 24.25 23.15 24.3 23.35
M 18.7 38.1
Q 17.55 38.4 18.25 37.8 19 37.2 18.7 38.1
M 31.1 36.9
Q 31.25 36.75 31.55 36.95 31.75 37.1 32.05 37.35 31.85 37.5 31.55 37.3 31.25 37 31.1 36.9
M 34.35 36.8
Q 34.15 36.9 33.75 37.05 33.6 36.7 33.9 36.55 34.3 36.4 34.45 36.3 34.65 36.65 34.35 36.8
M 32.95 34.9
Q 31.8 35.2 32.55 34.6 33.25 34 32.95 34.9
M 38 32.3
Q 39.05 32.3 38 32.5 36.95 32.4 38 32.3
M 35.05 30.85
Q 35.8 30.3 35.5 31.15 34.35 31.45 35.05 30.85
M 25.45 28.85
Q 25.9 28.7 25.7 28.85 25.15 29.15 24.95 29.35 24.15 30.1 24.7 29.1 25.15 28.25 25.45 28.85
M 28.85 30.15
Q 27.7 30.45 28.45 29.9 29.15 29.3 28.85 30.15
M 25.5 27.2
Q 25.55 28 25.65 28.1 25.3 28.4 25.15 27.8 25 27 24.85 26.9 25.45 26.6 25.5 27.2
M 24.55 37.3
Q 24.4 37.55 24.05 37.9 24.3 38.45 23.95 38.05 23.65 37.4 24.3 37.15 24.7 36.95 24.55 37.3
M 37 44.55
Q 36.3 44.45 36.25 44.5 35.9 44.05 36.4 44.15 37.1 44.2 37.2 44 37.55 44.6 37 44.55
M 32.6 58.35
Q 33.7 58.35 32.6 58.5 31.55 58.4 32.6 58.35
M 26.55 50.75
Q 26.65 51.1 26.75 51.2 26.5 51.4 26.25 51.15 26.05 50.95 26.25 50.75 26.5 50.55 26.55 50.75
M 27.8 52.6
Q 27.4 51.95 27.95 51.4 28.3 52.05 27.8 52.6
M 23.5 50.4
Q 24.05 49.65 23.8 50.8 22.95 51.2 23.5 50.4
M 21.75 61.6
Q 21.45 60.9 22 60.4 22.3 61.1 21.75 61.6
M 24.15 59.6
Q 24.35 60.1 23.6 60.1 22.65 60 22.45 60.4 22.2 59.55 23 59.6 24.05 59.7 24.15 59.6
M 28.95 64.1
Q 29.1 64.2 29.45 64.5 29.2 64.65 28.95 64.45 28.6 64.15 28.45 64.05 28.65 63.85 28.95 64.1
M 33.05 69.55
Q 34.1 69.55 33.05 69.7 32 69.6 33.05 69.55
M 33.1 77.1
Q 34.1 77.05 33.1 77.25 32.05 77.15 33.1 77.1
M 32.25 74.45
Q 33.3 74.4 32.25 74.6 31.2 74.5 32.25 74.45
M 74.45 49.9
L 73.95 50.4
Q 73.05 49.8 73.7 49.2
L 74.45 49.9
M 72.85 54.4
Q 73.4 53.65 73.2 54.8 72.35 55.2 72.85 54.4
M 68.4 56.75
Q 68.5 57.1 68.6 57.2 68.35 57.35 68.15 57.15 67.95 56.9 68.1 56.7 68.35 56.55 68.4 56.75
M 69.2 57.85
Q 69.35 58.5 69.65 58.6 69.25 59 68.95 58.45 68.9 58.4 68.65 57.65 69.1 57.35 69.2 57.85
M 66.25 58.55
Q 67.3 58.5 66.25 58.75 65.2 58.6 66.25 58.55
M 53.7 55.55
Q 53.2 55.95 53.05 55.25 52.9 54.55 53.45 54.35 53.55 54.55 53.55 54.95 53.55 55.35 53.7 55.55
M 54.8 59.4
Q 53.75 59.3 54.8 59.25 55.85 59.2 54.8 59.4
M 52.45 54.35
Q 51.6 54.75 52.1 53.95 52.65 53.2 52.45 54.35
M 44.2 58.5
L 44.25 58.6 44.2 58.65 44.15 58.65 44.05 58.6 44.2 58.5
M 48.3 60.2
Q 49.35 60.2 48.3 60.4 47.25 60.25 48.3 60.2
M 52.45 80.2
Q 51.25 80.5 52 79.9 52.75 79.3 52.45 80.2
M 53.55 77.5
Q 52.5 77.35 53.55 77.3 54.6 77.25 53.55 77.5
M 51 81.2
Q 51.5 81.1 51.3 81.25 50.7 81.5 50.55 81.7 49.75 82.45 50.3 81.5 50.75 80.65 51 81.2
M 62.45 74.95
Q 61.3 75.25 62.05 74.65 62.75 74.05 62.45 74.95
M 72.9 48
Q 73.15 48.65 72.45 49.5 71.95 48.85 72.9 48 Z"/>
</g>
</defs>

<g transform="matrix( 1, 0, 0, 1, 0,0) ">
<use xlink:href="#Layer1_0_FILL"/>
</g>
</svg>
