
<svg xmlns="http://www.w3.org/2000/svg" version="1.1" xmlns:xlink="http://www.w3.org/1999/xlink" preserveAspectRatio="none" x="0px" y="0px" width="100px" height="100px" viewBox="0 0 100 100">
<defs>
<g id="Layer1_0_FILL">
<path fill="#000000" stroke="none" d="
M 61.8 11.25
Q 61.45 10.3 61 10.05 55.8 7.2 49.9 6.9 44.25 6.6 38.9 8.55 33.05 10.2 30.4 11.75 25.65 14.45 25.65 20.1
L 25.85 22.25
Q 25.3 22.85 25.3 23.85
L 25.85 28.85 23.75 33 23.5 39.35 25.6 39.35 23.2 45.6 23.35 51.15
Q 23.497265625 51.1697265625 23.95 51.45 23.95 52.4 23.45 51.65 23.3919921875 51.56015625 23.35 51.5
L 23.65 63.05 23.35 67.35
Q 24.2 68.05 23.75 69
L 22.7 74 22.7 77.9 23.4 84.55 29.85 91
Q 30.35 89.45 30.6 88.7 31.05 87.35 30.8 86.6 29.85 83.55 30.7 81.5 31.5 79.45 34.3 78.1 34.6 79.05 34.4 79.9 34.45 83.2 35.7 85.65 37.05 88.35 40.1 90.45
L 40.4 86.5 43 86.55 42.85 93.15 45.15 91.2 53.6 91 60.05 93.2 60 91
Q 60.2 89.85 60.5 89
L 64.35 93.2 70.85 86.75 75.1 80.25
Q 76 77.65 76.4 76.3 77.15 73.95 77.2 72.35 77.3 66.5 77.25 57.85 77.15 48.2 77.1 43.35
L 77 27 74.9 25.75
Q 73.65 25 73.7 24.55 74 19.8 71.45 17.1 69.2 14.75 64.5 13.65
L 62.45 12.75
Q 62.4 12.65 61.8 11.25
M 63.6 15.85
Q 63.65 16.75 63.1 15.95 62.65 15.1 63.6 15.85
M 63.45 14.45
Q 62.85 15.3 63.25 14.35 63.6 13.45 63.45 14.45
M 69.85 21.05
Q 70.55 21.1 71 22.05 70.2 22.3 69.85 21.05
M 55.95 10.8
Q 56.05 11 55.7 11.2 55.3 11.4 55.15 11.45 55.1 11.25 55.35 11 55.6 11 55.95 10.8
M 56.95 10.4
Q 56.7 11.55 56.45 10.65 56.2 9.7 56.95 10.4
M 54.25 13.95
Q 54.4 14.15 54.6 14.7 53.95 14.8 53.9 14.45 53.9 13.9 53.8 13.55 54.05 13.5 54.25 13.95
M 55.05 16.75
Q 55 16.45 55.2 16.45 55.55 16.5 55.7 16.45 55.8 16.8 55.45 16.9 55.15 17 55.05 16.75
M 54.2 17.6
Q 54.25 17.6 54.15 18.25 53.8 18.55 53.5 17.95 52.9 17.2 53.7 18 54.1 17.55 54.2 17.6
M 51 19.85
Q 51.55 20.45 50.2 20.25 50.45 19.2 51 19.85
M 52.5 29.95
Q 52.05 29.15 53 29.85 53.05 30.75 52.5 29.95
M 54.1 34.75
Q 54.8 34.9 54.95 34.6 55.2 35.2 54.55 35.2 54.5 35.25 53.7 35.15 53.6 34.6 54.1 34.75
M 52.8 35
Q 53.1 35.05 53.25 35 53.3 35.3 53.05 35.4 52.7 35.45 52.6 35.25 52.55 34.95 52.8 35
M 49.3 27.3
Q 48.45 27.9 48.15 27.05
L 49.05 26.6 49.3 27.3
M 47.9 28.3
Q 47.05 28.5 46.7 27.2 47.4 27.3 47.9 28.3
M 44.1 27.15
Q 43.35 27.45 43.4 26.85 43.4 26.2 42.95 26.2 42.9 25.65 43.95 26.2 44.9 26.75 44.1 27.15
M 41.6 36.45
Q 41.8 36.3 42.2 36.2 42.25 36.45 41.95 36.6 41.55 36.75 41.35 36.9 41.3 36.6 41.6 36.45
M 41.9 31.55
Q 42.1 31.6 42.55 31.6 42.55 31.95 42.25 31.95 41.85 31.95 41.65 31.95 41.6 31.55 41.9 31.55
M 43.4 48.6
Q 42.9 47.8 43.9 48.5 43.9 49.4 43.4 48.6
M 44.9 47.75
Q 45.25 47.9 45.5 47.85 45.65 48.45 45 48.3 44.3 48.15 44.3 47.6 44.55 47.55 44.9 47.75
M 49.3 48.4
Q 49.7 47.4 49.45 48.45 48.95 49.35 49.3 48.4
M 53.5 37.7
Q 53.9 36.75 53.7 37.8 53.1 38.65 53.5 37.7
M 75.65 33.25
Q 75.3 34.3 74.95 33.3 74.8 33 74.95 32.85 75.1 32.75 75.65 33.25
M 66.8 48.05
Q 66.6 49.2 66.35 48.25 66.1 47.4 66.8 48.05
M 71.15 39
Q 71.5 39.05 71.65 39 71.75 39.3 71.4 39.35 71.1 39.45 70.95 39.2 70.95 38.9 71.15 39
M 60.75 15.45
Q 61.3 16.05 59.9 15.9 60.15 14.85 60.75 15.45
M 35.85 26.15
Q 35.85 26.4 35.45 26.7 34.95 26.85 34.65 27 34.6 26.8 34.8 26.6 34.9 26.5 35.2 26.4 35.1 26.05 34.75 26.2 34.65 25.5 35.15 25.75 35.75 26.15 35.85 26.15
M 34.65 35.45
Q 34.2 34.65 35.15 35.35 35.15 36.25 34.65 35.45
M 30.6 35
L 30.65 35.3
Q 29.8 35.95 30.4 34.6 31.3 32.8 30.6 35
M 28.65 30.85
Q 28.2 30 29.2 30.7 29.15 31.6 28.65 30.85
M 29.75 42.05
Q 29.8 42.3 29.5 42.5 29.1 42.65 28.95 42.8 28.8 42.5 29.2 42.35 29.3 42.25 29.75 42.05
M 24.8 45.55
Q 24.3 46.45 24.7 45.5 25.15 44.55 24.8 45.55
M 27.3 45.5
Q 27.7 44.6 27.45 45.55 26.9 46.5 27.3 45.5
M 30.9 40.75
Q 30.4 39.95 31.4 40.6 31.4 41.55 30.9 40.75
M 36.85 47.85
Q 37.2 47.9 37.3 47.85 37.35 48.15 37.15 48.25 36.75 48.35 36.7 48.15 36.65 47.8 36.85 47.85
M 39.75 38.3
Q 39.65 38.05 39.95 37.9 40.15 37.75 40.55 37.6 40.6 37.85 40.25 38.05 39.9 38.2 39.75 38.3
M 30.1 32.5
Q 29.6 31.7 30.6 32.35 30.6 33.3 30.1 32.5
M 28.5 58.4
Q 28.1 59 28.15 59.05 27.6 59.15 27.9 58.75 28.25 58.15 28.1 58 28.8 57.9 28.5 58.4
M 28.65 73
Q 28.65 73.9 28.15 73.1 27.7 72.25 28.65 73
M 30.25 70.45
Q 30.35 70.8 30 70.9 29.7 71 29.65 70.75 29.55 70.45 29.75 70.5 30.1 70.55 30.25 70.45
M 30.95 69.45
Q 31.65 69.4 31.95 70.1 31.25 70.2 30.95 69.45
M 39.2 68.15
Q 39.65 67.15 39.35 68.25 38.8 69.15 39.2 68.15
M 36.8 78.25
Q 35.95 78.1 36.3 77.4 36.8 76.5 36.75 76.35 37.35 76.4 37.05 77.05 36.55 77.9 36.8 78.25
M 37.6 79.4
Q 36.85 79.35 36.6 78.65 37.4 78.65 37.6 79.4
M 72.6 56.75
L 72.85 50.25 75 50.05 75.7 65.4 75.05 65.45
Q 75.0873046875 65.71015625 74.85 65.9 74.55 65.95 74.45 65.7 74.434765625 65.60859375 74.45 65.55
L 73.55 65.65 72.6 56.75
M 66.9 59.6
Q 66.65 58.65 67.35 59.35 67.15 60.5 66.9 59.6
M 65.2 57.1
Q 65.6 56.15 65.35 57.2 64.8 58.1 65.2 57.1
M 67.85 60.8
Q 67.8 61.45 67.95 61.65 68.25 62.75 67.65 61.85 67.1 61.05 67.7 61.05 67.8 60.55 67.85 60.8
M 65.6 69.65
Q 65.3 69.8 65.25 69.5 65.2 69.2 65.35 69.25 65.7 69.3 65.85 69.25 65.95 69.55 65.6 69.65
M 68.55 73.05
Q 68.7 73 69.15 73.15 69.45 73.3 69.75 73.25 69.5 73.55 69.45 74.15 69.45 74.85 69.45 75.25 68.9 75.05 69 74.25 69.15 73.3 68.55 73.05
M 69.05 69.8
Q 69.05 70.75 68.55 69.95 68.1 69.15 69.05 69.8
M 47.45 54.7
Q 47.9 53.75 47.65 54.8 47.05 55.65 47.45 54.7
M 42.9 73.9
Q 43.05 73.8 43.45 73.6 43.5 73.9 43.25 74.05 42.8 74.25 42.6 74.3 42.55 74.05 42.9 73.9
M 49.55 72.45
Q 50 71.5 49.7 72.55 49.15 73.45 49.55 72.45
M 56.4 75.6
Q 56.8 74.65 56.55 75.65 56.05 76.55 56.4 75.6
M 53.8 75.3
Q 53.25 76.2 53.65 75.2 54.05 74.25 53.8 75.3
M 54.1 79.6
Q 54.85 80 53.9 79.7 53 79.3 52.8 79.05 52.8 78.3 53.35 78.8 53.65 79.15 54.1 79.6
M 60.1 81.05
Q 59.85 80.1 60.5 80.75 60.3 81.85 60.1 81.05
M 56.35 85.5
Q 57 85.9 57.05 85.9 57.15 86.4 56.75 86.15 56.2 85.85 56 85.95 55.9 85.2 56.35 85.5
M 44.3 82.9
Q 44.35 83.25 44.1 83.35 43.8 83.45 43.7 83.15 43.65 82.9 43.85 82.95 44.2 83.05 44.3 82.9
M 42.55 81.35
Q 42.3 82.6 42.15 81.7 41.9 80.75 42.55 81.35
M 45.8 83
L 45.95 83.35
Q 45 83.95 45.7 82.7 46.6 80.85 45.8 83
M 71 76
Q 71.5 76.95 71.6 77.55 71.65 77.7 70.8 78.1
L 71 76
M 69.25 80.1
Q 69.95 80.15 69.45 80.75 69.35 80.8 69.1 80.7 68.9 80.65 68.7 80.75 68.6 80.1 69.25 80.1 Z"/>
</g>
</defs>

<g transform="matrix( 1, 0, 0, 1, 0,0) ">
<use xlink:href="#Layer1_0_FILL"/>
</g>
</svg>
