
<svg xmlns="http://www.w3.org/2000/svg" version="1.1" xmlns:xlink="http://www.w3.org/1999/xlink" preserveAspectRatio="none" x="0px" y="0px" width="100px" height="100px" viewBox="0 0 100 100">
<defs>
<g id="Layer1_0_FILL">
<path fill="#000000" stroke="none" d="
M 81.35 44.65
L 81.2 44.25
Q 81.05 44 80.95 43.95 80.85 43.95 80.45 44.1
L 80.05 42.95
Q 79.85 42.7 79.75 42.55 79.55 42.3 79.65 42.05 79.75 42 79.6 41.85 79.3 41.65 78.75 41.1 78.25 40.6 77.9 40.4 77.8 40.15 77.75 40.05 77.75 39.85 77.95 39.7 78.05 39.65 78.15 39.2 78.4 38.55 77.75 38.65
L 77.45 38.75
Q 77.3 38.75 77.2 38.6 77.1 38.45 77.15 38.35 77.5 37.9 77 37.6 76.75 37.5 76.85 37.2 77.1 36.6 76.8 35.9 76.8 35.85 76.75 35.2 76.75 34.75 76.4 34.55 76.3 34.5 76.3 34 76.3 33.4 76 33.05 75.75 32.8 76.1 32.45
L 77.45 31.2 77.45 30.95
Q 77.05 30.75 77 30.45 77 30.05 77.15 29.95 77.3 29.8 77.55 30 77.95 30.3 78.15 30.2
L 78.45 30
Q 78.55 29.8 78.35 29.7 77.5 29.2 77.2 29.25 76.85 29.3 76.75 28.9 76.7 28.45 76.05 28.25 75.95 28.15 75.85 28.25
L 75.8 28.45 76.05 28.85
Q 76.3 29.5 76.3 29.6
L 76.2 29.8
Q 76.2 29.85 76.05 29.85
L 74.95 29.2 74.55 28.8
Q 74.45 28.6 74.65 28.5 75.3 28.5 74.9 28.1 74.6 27.65 74.8 27.25 75.1 26.6 74.75 26.25 74.35 25.75 74.15 25.45 73.8 25 73.2 25.1
L 72.95 24.9
Q 72.7 24.7 72.8 24.4 73 24.05 73.3 24.15 73.6 24.25 73.6 24 73.6 23.7 73.85 23.55
L 74.35 23.05
Q 74.45 22.9 74.25 22.55 74.1 22.3 73.9 22.5 73.65 22.65 73.55 22.4 73.4 21.8 72.85 21.5 72.55 21.3 72.45 21.15
L 72.35 20.85
Q 72.3 20.7 72.15 20.7 71.95 20.75 71.95 20.9 71.9 21.05 71.9 21.25
L 71.9 22.2 71.45 22.65 71.45 22.9 71.2 23.1 71 23.35
Q 70.75 23.5 70.75 24.05
L 70.6 24.2
Q 70.7 25 70 25.25
L 69.6 25.65
Q 69.25 26.25 69 26.45 68.85 26.55 68.5 26.3 68.2 26.1 68 26.15 67.9 25.9 67.55 25.9 67.05 25.6 66.35 24.65 64.9 22.7 61.95 22 61.6 21.9 61.3 22.05 61.15 22.05 61.15 22.2 61.05 22.4 61.2 22.5
L 61.6 22.7
Q 62.45 23.05 62.9 23.95 63.4 25.05 63.55 25.65 63.75 26.2 64.05 26.35 64.05 26.9 63.55 26.75
L 62.95 26.55
Q 62.8 26.35 62.85 26.1 62.9 25.8 62.9 25.65 62.9 25.35 62.65 25.2 62.15 25 62 25.05 61.6 25.2 60.45 24.85 59.9 24.65 59.65 24.75 59.35 24.9 58.85 24.85 58.25 24.75 58.1 24.75 57.95 24.15 58 23.85 58.2 23.15 57.6 22.45
L 57.4 22.45
Q 57.35 22.45 56.55 22.6 55.4 22.7 55.1 22.4
L 55.3 22.2 55.35 22.2
Q 55.6 22 55.5 21.5 55.75 21.1 55.4 20.8 55.05 20.55 54.85 20.8 54.65 20.95 54.6 21.35 54.6 21.85 54.5 22 53.9 21.75 53.7 21.75 53.2 21.75 51.85 21.3
L 51.4 21.3
Q 51.3 21.1 51.2 21.15 51.05 21.25 50.95 21.25 50.7 21.15 50.7 20.8 51.1 20.6 50.7 20.35
L 50.2 20.35
Q 50.3 19.8 49.95 19.5 49.85 19.4 49.55 19.5 49.4 19.55 49.4 19.8
L 49.55 20.35
Q 49.05 20.65 48.75 20.6 48.45 20.55 47.95 20.1
L 47.45 20.1
Q 47.15 20.3 46.95 20.3 46.8267578125 20.3 46.65 20.2 46.4828125 20.2462890625 46.3 20.1 46.19921875 19.9740234375 46.2 19.85 45.81875 19.6517578125 45.3 19.8 45 19.9 44.6 19.75 44.15 19.6 43.9 19.55
L 43.8 19.25
Q 43.9 19.2 44.05 19.05 44.2 18.9 44.05 18.7 43.85 18.45 43.55 18.65
L 43.35 18.75
Q 43.1 19.1 43 19.25 42.75 19.5 42.45 19.55 40.9 19.95 40.1 19.9
L 40 19.6 39.85 19.9 39.05 19.9
Q 38.3 20 37.95 20.1 37.25 20.25 36.95 20.8
L 36.35 21.1
Q 35.1 21.4 34.55 21.7
L 34.55 21.75
Q 33.65 21.65 33.15 22.2 32.85 22.5 32.2 22.9 31.45 23.35 31.2 23.55 30.7 23.85 30.75 24.1 30.25 24.8 30 25.05 29.50546875 25.54453125 28.85 25.45 28.9134765625 26.0634765625 29 26.15 28.65 26.45 28.5 25.85 28.4693359375 25.686328125 28.45 25.55 28.387890625 25.6115234375 28.35 25.7
L 28.35 25.9
Q 27.9 25.9 27.5 26.2 27.3 26.4 27.15 26.4 25.9 26.5 25.7 27.3
L 25.65 27.4
Q 25.05 27.65 24.75 27.8 24.25 28 23.8 27.85 23.25 27.7 22.85 28.1 22.1 28.55 22.1 29.05 22.15 29.45 21.65 30.05
L 21.2 30.25
Q 20.85 30.25 20.7 30.5
L 20.5 30.7 20.5 30.95
Q 20.1 31 20 31.05 19.9 31.1 19.8 31.4 19.6 31.55 19.55 31.85 19.55 32 19.55 32.35 18.8 32.4 18.5 32.65 18.25 32.9 18.2 33.6
L 18.2 35.8
Q 17.65 36.5 18.45 37.4 18.4 37.8 18.1 38.05
L 17.7 38.55
Q 17.5 38.7 17 39 16.8 39.25 16.8 39.35 16.8 39.45 17 39.7
L 17.05 39.95
Q 16.9 40.25 16.55 40.4 16.1 40.55 16.05 40.65 16 40.75 16.1 41.1 16.1 41.45 16.3 41.6 16.35 41.8 16.1 42.25 15.6 42.65 15.7 43.35
L 15.9 44.1 15.85 45
Q 15.55 45.3 15.75 45.65
L 15.9 46.15
Q 15.9 46.2 15.85 46.85 15.8 47.3 15.9 47.55
L 15.65 48
Q 15.4 48.2 15.45 48.4
L 15.75 49.25
Q 16.1 49.55 16.1 50.4 16.1 51.2 15.9 51.75 15.85 52.15 15.5 52.35 14.75 52.75 15.25 53.5 15.8 54.35 15.5 55 15.4 55.25 15.55 55.65 16.2 57.15 16.55 60.35 16.8 61.25 16.95 61.5 18.4 63.75 18.2 65.6 18.1 66.9 19.05 68.4 19.3 68.75 19.6 68.75 20.2 68.7 20.65 69.3 21.05 69.85 21.8 70.25 22.55 70.65 22.8 71.3 23.15 71.95 23.95 72.45 24.6 72.85 25.05 73.45 25.35 73.85 26 74.6 26.55 75.3 26.8 75.85 27.1 76.4 27.6 76.4 28.45 76.4 28.85 76.85 29.1 77.05 30.2 77.5 30.55 77.65 31.15 77.85 31.7 78 32.05 78.3 32.5 78.6 32.7 78.1 33.2 77.1 33.85 77.1 34.6 77.05 35.95 76.6
L 35.8 77.1
Q 35.85 77.2 36.2 77.2 36.4 77.2 36.5 77.35 36.6 77.45 36.7 77.6 37 77.9 37.25 77.5
L 37.4 77.3
Q 37.5 77.15 37.65 77.2 37.8 77.3 37.8 77.6
L 37.7 78.65
Q 37.7 79.05 38.1 78.85 38.3 78.75 38.5 78.45
L 38.7 78.45
Q 39.2 78.5 39.4 79.35 39.7 80.6 40.8 81.3 41.05 81.45 41.25 81.25 41.45 81.05 41.4 80.85
L 41.1 80
Q 40.95 79.6 41.15 79.35 41.35 79.15 41.35 78.85 41.45 78.55 41.65 78.5 41.85 78.45 42.05 78.7 42.35 79 42.4 79.25 42.45 79.5 42.85 79.5 43.25 79.45 43.35 79.45 43.45 79.5 43.6 79.85
L 44.05 81.05
Q 44.05 81.35 44.4 81.45
L 45.05 81.65
Q 44.9 81 45.15 80.6 45.45 80.1 45.8 80.4 45.85 80.45 46.3 80.75 46.65 80.95 46.8 81.15 47.05 81.65 47.55 81.5 47.8 81.45 48.3 81.7 48.95 81.9 50.15 82.45 50.35 82.05 50.6 80.35 50.75 79.55 51.4 80
L 52.6 80.85
Q 52.7 80.95 52.8 80.85 52.9 80.75 52.8 80.65
L 51.95 79.6 51.65 79.1
Q 51.55 78.7 51.8 78.6 52.05 78.35 52.25 78.8
L 52.55 79.4
Q 52.8 79.75 53.1 79.65 53.361328125 79.555078125 53.6 79.6 53.629296875 79.5859375 53.65 79.55 54.1 78.7 54.35 79.25 54.5802734375 79.20390625 54.65 79.2
L 54.4 78.5
Q 54.2 78.15 54.4 77.9 54.55 77.6 54.95 77.55 55.1 77.55 55.35 77.5 55.65 77.5 55.75 77.3
L 56.3 77.45
Q 56.6 77.65 56.7 77.65 56.8 77.6 57.05 77.35
L 57.35 77.05 57.4 77.05
Q 57.85 76.8 58.1 76.35 58.55 76.35 59.15 77 59.5 77.15 59.75 77 60.7 76.4 61.5 76.7 61.8 76.75 62.05 76.7 62.45 76.55 62.7 76.75 63 76.95 63.35 76.9 63.65 76.8 63.8 76.95 63.85 77 64.6 77.3 65.05 77.55 65.25 77.95 65.3 78.1 65.5 78.2 65.7 78.35 65.9 78.25 66.3 78.1 66 77.45 65.85 77 66.25 76.8
L 66.75 76.45
Q 67.8 77.25 68.1 77.35 68.25 77.15 68.15 76.85 67.95 76.45 68.3 76.4 68.65 76.3 68.95 75.8 69.45 75.3 69.55 75.3 69.85 75.3 70.1 75.75 70.2 75.85 70.35 75.75 70.5 75.7 70.5 75.55
L 70.55 74.05 70.75 74.05
Q 70.85 74.2 71.05 74.5 71.2 74.75 71.1 75 71.05 75 71.2 75.15
L 71.45 75.05
Q 71.65 74.95 71.55 74.8 71.55 74.45 71.8 74.45 71.9 74.4 72.15 74.65
L 72.75 75.5
Q 72.85 75.65 73 76 73.3 76.1 73.5 75.65
L 73.85 75.6
Q 74.2 75.6 74.15 75.25 74.05 75.05 74.2 74.95 74.55 74.5 74.1 74.05
L 73.75 73.6
Q 73.45 73.3 73.8 73 74.15 72.75 74.35 72.75 74.55 72.8 74.9 73.1
L 75.55 73.9
Q 76.4 74.75 76.95 74.85 77.45 74.95 77.25 75.45 77.2 75.8 77.6 76 78.4 76.25 78.45 77
L 78.55 77.2
Q 78.95 77.85 79.2 77.55 79.3 77.45 79.25 77.3 79.2 77.15 79.2 77.05 79.1 76.8 79.15 76.7 79.4 76.15 78.75 75.6 77.95 75.1 77.65 74.45 77.45 74.1 77.5 74 77.5 73.9 77.85 73.5 78.15 73.15 77.75 72.95 77.3 72.85 77.15 72.7 77 72.5 77 72.2 77 71.9 77.2 71.9 77.55 71.85 77.6 71.7 77.6 71.65 77.5 71.3 77.35 70.6 77.45 70.4 78.1 70.5 79 71.1 79.25 71.35 79.4 71.1 78.7 70.3 78.2 70.1 77.4 69.8 77.9 69 78.05 68.65 78 68.6 77.85 68.4 77.65 67.85 77.45 67.35 77.25 67.1 76.3 65.65 75.6 65.05 76 65.05 75.95 64.85 76 63.85 75.6 63.45
L 75.4 62.2
Q 75.4 61.85 75.8 62 76 62.1 76.05 62 76.2 61.5 76.35 61.45 76.6 61.4 76.7 61.6 76.75 61.7 76.85 61.95
L 76.9 62.05
Q 77.15 62.3 77.4 62.15
L 77.95 61.75
Q 78.15 61.55 78.25 61.75 78.35 61.95 78.8 62.25 79.2 62.55 79.3 62.8 79.55 63.15 79.75 63.15 79.95 63.05 79.7 62.5 79.65 62.25 79.25 62.05 78.9 61.7 79.15 61.55 79.6 61.2 79.2 60.65 78.4 59.6 78.9 58.65
L 79.05 58.55 79.25 58.65
Q 79.25 59.1 79.95 59.6 80.25 59.75 80.25 59.7 80.45 59.55 80.85 59.45 81.25 59.3 81.4 59.2 81.7 58.95 82.15 58.8 82.65 58.7 82.75 58.25 82.9 57.85 82.5 57.5 82.45 57.45 81.65 56.4 81.5 56.05 81.7 56 82 55.9 82.15 55.55 82.3 55.05 82.35 55 82.45 54.9 82.35 54.65 82.2 54.2 82.1 53.95 81.9 53.55 81.45 53.5 81.25 53.5 81.35 53.15 81.45 52.65 81 52.45 80.5 52.15 80.4 51.8 80.35 51.7 80.45 51.6 80.5 51.5 80.6 51.55 80.8 51.7 81.1 51.55 81.4 51.35 81.55 51.4 81.75 51.5 81.65 51.15 81.5 50.55 82.1 50.55 82.55 50.5 82.4 50.05 82.3 49.9 82.45 49.75 82.6 49.65 82.85 49.85 83.1 50 83.1 50.3 83.1 50.35 83.05 50.9
L 83.75 50.65
Q 84 50.6 84.15 50.8
L 84.35 51.1
Q 84.75 51.3 84.85 51.15 84.95 51 84.75 50.7 84.65 50.45 84.45 50.4 83.25 49.75 82.6 48.15 82.3 47.3 82.45 46.85 82.7 46.45 82.2 46.35 81.75 46.3 81.85 45.95 82.15 45.55 82.3 45.3 82.4 45.2 82.35 45.05 82.3 44.9 82.15 44.85
L 81.7 44.85
Q 81.4 44.85 81.35 44.65
M 63.25 23.55
Q 63.05 23.35 63.2 23.15 63.45 23 63.5 23.2 63.6 23.55 63.7 23.65 63.45 23.8 63.25 23.55
M 45.7 23.35
Q 46.05 24 45.5 24.55 45.15 23.9 45.7 23.35
M 57.65 27.25
Q 57.2 27.1 57.05 27.3 56.65 27 57.3 26.75 58.05 26.5 58.25 27 58.05 27.35 57.65 27.25
M 53.45 27.45
Q 53.3 27.55 52.9 27.7 52.75 27.35 53.05 27.2 53.45 27.05 53.6 26.95 53.75 27.3 53.45 27.45
M 55 29.25
Q 55.7 28.65 55.4 29.55 54.25 29.85 55 29.25
M 51.55 36.1
Q 52.55 36.05 51.55 36.25 50.45 36.15 51.55 36.1
M 54.7 36.4
Q 54.9 36.2 55.2 36.45 55.35 36.55 55.7 36.85 55.5 37 55.2 36.8 54.85 36.5 54.7 36.4
M 49.75 27.05
Q 48.9 27.45 49.4 26.65 49.95 25.9 49.75 27.05
M 46.25 25.75
Q 46.1 25.4 46.4 25.25 46.8 25.15 46.95 25 47.15 25.35 46.85 25.5 46.65 25.55 46.25 25.75
M 46.7 30.85
Q 46.9 30.7 47.2 30.9 47.35 31 47.7 31.3 47.5 31.45 47.2 31.25 46.85 31 46.7 30.85
M 41.35 30.35
Q 42.4 30.35 41.35 30.55 40.3 30.45 41.35 30.35
M 44.45 30.45
Q 43.6 30.1 43.5 30.25 43.35 30 43.65 29.9 44.05 29.7 44.2 29.45 44.3 29.85 44.4 29.95 44.5 30.15 44.7 29.95 45.05 30.7 44.45 30.45
M 44.35 35.15
Q 44.9 34.35 44.7 35.55 43.85 35.9 44.35 35.15
M 50.45 33.85
Q 49.4 33.75 50.45 33.7 51.5 33.7 50.45 33.85
M 57.7 37.75
Q 56.85 38.15 57.35 37.35 57.9 36.6 57.7 37.75
M 53.4 45.75
Q 53.5 46.1 53.6 46.15 53.35 46.35 53.15 46.15 52.9 45.9 53.1 45.7 53.35 45.55 53.4 45.75
M 72.75 34.95
Q 72.65 35.65 72.7 35.7 72.45 35.85 72.05 35.6 71.65 35.2 71.45 35 71.6 34.9 71.85 35 71.95 35.05 72.2 35.25 72.45 35.05 72.2 34.75 72.8 34.4 72.75 34.95
M 65.75 31.6
Q 64.9 31.95 65.4 31.2 65.95 30.4 65.75 31.6
M 64.5 33.15
Q 65.05 32.4 64.85 33.55 64 33.95 64.5 33.15
M 62.7 34.35
Q 64.75 34.4 62.45 34.65
L 62.2 34.9
Q 61.25 34.3 62.7 34.35
M 64.05 38.95
Q 63.2 39.35 63.75 38.55 64.25 37.8 64.05 38.95
M 64.25 44.8
Q 64.05 44.95 63.75 44.75 63.45 44.45 63.3 44.35 63.5 44.2 63.75 44.4 63.95 44.5 64.25 44.8
M 65.75 45.65
Q 65.45 45.35 65.25 45.25 65.45 45.05 65.75 45.3 65.95 45.4 66.25 45.7 66.05 45.85 65.75 45.65
M 70.3 43.5
Q 70.4 43.7 70.55 44.05 70.2 44.25 70.1 43.95 69.95 43.55 69.85 43.4 70.2 43.2 70.3 43.5
M 75.25 42.85
Q 75.85 42.6 75.6 42.2 76.1 41.95 76.05 43.1 75.95 44.2 75.2 43.65 74.7 43.1 75.25 42.85
M 77.8 47.95
L 77.3 48.45
Q 76.4 47.85 77.05 47.25
L 77.8 47.95
M 76.25 46.05
Q 76.5 46.7 75.8 47.55 75.3 46.9 76.25 46.05
M 38.85 29.2
Q 37.7 29.5 38.4 28.9 39.15 28.35 38.85 29.2
M 32.2 28.2
Q 31.05 28.5 31.8 27.95 32.5 27.35 32.2 28.2
M 35.4 35.4
Q 35.2 35.55 34.9 35.35 34.6 35.05 34.45 34.95 34.6 34.8 34.9 35 35.1 35.15 35.4 35.4
M 35.9 32.65
Q 36.6 32.05 36.3 32.95 35.15 33.25 35.9 32.65
M 37.7 34.85
Q 37.5 34.95 37.1 35.1 36.95 34.75 37.25 34.6 37.65 34.45 37.8 34.35 38 34.7 37.7 34.85
M 28.05 27.15
Q 28.5 26.3 28.8 26.9 29.25 26.75 29.05 26.9 28.5 27.2 28.3 27.4 27.5 28.15 28.05 27.15
M 21.6 35.85
Q 22.35 35.25 22.05 36.15 20.9 36.45 21.6 35.85
M 27.9 35.35
Q 27.75 35.6 27.4 35.95 27.65 36.5 27.3 36.1 27 35.45 27.65 35.2 28.05 35 27.9 35.35
M 26.85 48.45
Q 27.4 47.7 27.15 48.85 26.3 49.25 26.85 48.45
M 29.9 48.8
Q 30 49.15 30.1 49.25 29.85 49.45 29.6 49.2 29.4 49 29.6 48.8 29.85 48.6 29.9 48.8
M 40.35 42.6
Q 39.65 42.5 39.6 42.55 39.25 42.1 39.75 42.2 40.45 42.25 40.55 42.05 40.9 42.65 40.35 42.6
M 35.95 56.55
Q 34.9 56.45 35.95 56.4 37.05 56.4 35.95 56.55
M 25.35 58.45
Q 25.65 59.15 25.1 59.65 24.8 58.95 25.35 58.45
M 26.95 58.15
Q 26 58.05 25.8 58.45 25.55 57.6 26.35 57.65 27.4 57.75 27.5 57.65 27.7 58.15 26.95 58.15
M 24.7 67.2
Q 24.45 67.4 24.2 67.2 24 67 24.2 66.75 24.45 66.6 24.5 66.8 24.55 67.15 24.7 67.2
M 25.25 68.65
Q 25 68.95 25 68.9 24.05 68.3 25.5 68.35 27.5 68.45 25.25 68.65
M 24.9 64.75
Q 25.65 64.15 25.35 65 24.15 65.3 24.9 64.75
M 36.4 67.75
Q 35.35 67.65 36.4 67.6 37.45 67.6 36.4 67.75
M 32.8 62.55
Q 32.55 62.7 32.3 62.5 31.95 62.2 31.8 62.1 32 61.9 32.3 62.15 32.45 62.25 32.8 62.55
M 31.75 73.3
Q 32.5 73 32.2 73.7 32.05 74.1 31.8 74.75 31.75 75.6 31.65 74.6 31.65 73.6 31.75 73.3
M 35.6 72.5
Q 36.65 72.45 35.6 72.65 34.55 72.55 35.6 72.5
M 36.45 75.15
Q 37.45 75.1 36.45 75.3 35.4 75.2 36.45 75.15
M 76.2 52.45
Q 76.75 51.7 76.55 52.85 75.7 53.25 76.2 52.45
M 71.75 54.8
Q 71.85 55.15 71.95 55.25 71.7 55.4 71.5 55.2 71.3 54.95 71.45 54.75 71.7 54.6 71.75 54.8
M 72.55 55.9
Q 72.7 56.55 73 56.65 72.6 57.05 72.3 56.5 72.25 56.45 72 55.7 72.45 55.4 72.55 55.9
M 69.6 56.6
Q 70.65 56.55 69.6 56.8 68.55 56.65 69.6 56.6
M 65.4 72.7
Q 66.1 72.1 65.8 73 64.65 73.3 65.4 72.7
M 75.55 73.1
Q 75.85 72.95 75.85 73.15 75.95 73.5 76.05 73.6 75.8 73.8 75.6 73.55 75.4 73.3 75.55 73.1
M 56.9 53
Q 56.9 53.4 57.05 53.6 56.55 54 56.4 53.3 56.25 52.6 56.8 52.4 56.9 52.6 56.9 53
M 51.65 58.25
Q 52.7 58.25 51.65 58.45 50.6 58.3 51.65 58.25
M 58.15 57.3
Q 59.2 57.25 58.15 57.45 57.1 57.35 58.15 57.3
M 55.45 52
Q 56 51.25 55.8 52.4 54.95 52.8 55.45 52
M 56.9 75.35
Q 57.95 75.3 56.9 75.55 55.85 75.4 56.9 75.35
M 31.3 49.45
Q 31.65 50.1 31.15 50.65 30.75 50 31.3 49.45 Z"/>
</g>
</defs>

<g transform="matrix( 1, 0, 0, 1, 0,0) ">
<use xlink:href="#Layer1_0_FILL"/>
</g>
</svg>
