
<svg xmlns="http://www.w3.org/2000/svg" version="1.1" xmlns:xlink="http://www.w3.org/1999/xlink" preserveAspectRatio="none" x="0px" y="0px" width="100px" height="100px" viewBox="0 0 100 100">
<defs>
<g id="Layer1_0_MEMBER_0_MEMBER_0_FILL">
<path fill="#000000" stroke="none" d="
M 81 55.8
Q 81.65 51.7 81.7 47.95 81.8 42.85 80.2 39 79.85 38.2 79.65 36.95 79.4 34.55 79.2 33.4 79.1 32.25 79 31.65 78.9 30.6 78.35 30 78.2 29.85 78.3 29.55 78.45 29.1 78.3 28.6 78.1 28 78 27.7 76.75 23.85 73.4 19.35 72.1 17.55 70.4 16.25 70.15 16.05 70 15.95 69.7 15.8 69.4 16 69.55 16.4 70.4 17.75 71.05 18.8 71.2 19.6 70.7 19.15 69.8 18.05 68.45 16.45 67.05 15.45 65.45 14.35 64.45 14.25 63.8 14.25 63.6 14.7 66.55 17.1 67.45 18.1 68.9 19.7 69.45 20.55 70.05 21.5 70.25 22.6
L 69.55 22.45
Q 69.3 22.95 69.05 22.4 68.75 22.05 67.7 21.65 66.7 21.3 66.4 20.75 66.35 20.6 66 20.6 64.9 20.9 64.15 19.5 63.55 18.35 61.55 15.45 61.1 14.75 61.15 14.45 61.4 14.2 61.9 14.45 62.4 14.7 62.65 14.4 62.65 13.9 62.25 13.9 60.5 14 58.35 12.5 56.6 11.3 54 11.55 50.25 12.05 47.6 13.35 43.8 15.35 41.85 16.25 35.95 19.1 32.5 23.5
L 29.75 27.1
Q 29.6 27.4 29.45 27.5 29.3 27.75 29 27.75 29.05 27.35 29.4 26.55 29.75 25.8 29.7 25.35 29.05 26 28.95 26.15 26.4 29.9 25 35 24.6 36.4 24.65 37.55 24.8 39.25 24.1 41.25 22.7 45.35 22.9 49.7
L 22.9 51.75
Q 22.5 51.5 22.25 50.95 21.95 50.25 21.8 50.1 21.6 51.2 21.8 52.6 21.9 53.45 22.25 55.05 22.6 56.85 22.55 57.35 22.05 57.35 21.75 56.65 21.55 56.25 20 53.65 18.95 51.85 18.55 50.45 18.15 51.05 18.35 52.15 20.35 60.55 25.1 65.7 25.2 65.8 25.6 65.8
L 26.15 64.6 26.85 64.6
Q 27.05 65.45 27.8 65.9 28.45 66.3 29 67 29.45 67.65 30.4 68.8 31.2 69.9 31.65 70.7 32.95 72.95 34.8 74.55 35.75 75.4 36.2 76.2 38.55 80 43.05 81.95 44.55 82.65 44.75 82.8 46.05 84.1 49.65 86.85
L 49.2 87.45
Q 50.3 87.95 50.35 87.95 54 88.7 56.05 88.45 60.95 87.95 63.4 87.45 65.9 87 67.05 85.25 66.5 85.2 65.8 85.45 65.15 85.8 64.35 85.65 64.85 84.85 64.85 84.75 65.1 84.2 65 83.7
L 66.85 82.6
Q 68.7 81.5 69.75 80.55 71.9 78.55 73.15 75.65 74.05 73.75 75.35 72.25 78.2 69 79.3 64.95 79.8 63 81 55.8
M 62.2 19.2
Q 62 19.55 61.4 19.35
L 57.55 18.1
Q 56.45 17.85 56.15 17.85 54.6 18 53.25 16.65 52.75 16.6 52.5 16.55 52.05 16.45 51.85 16.2 48.95 15.5 46.9 15.5 46.9 14.95 47.45 14.75 51.85 12.5 55.2 12.75 57 12.9 58.3 13.85 61.05 15.8 62.2 19.2
M 61.85 22.85
Q 61.6 23.5 60.9 23.15 60.35 22.8 59.7 22.05 58.75 20.9 58.5 20.65 59.85 21.05 60.25 21.35 60.75 21.65 61.85 22.85
M 48.05 16.8
Q 48.95 16.8 50.25 17.25 51.55 17.7 52.45 18.3 51.85 18.8 50.9 18.5 48.05 18.15 46.75 17.45 47.2 16.8 48.05 16.8
M 45.05 16.85
L 45.25 16.9 45.15 17 44.95 16.95 45.05 16.85
M 43.5 21.4
Q 41.75 22.7 40.55 24.15 39.35 25.75 36.35 29.35 37.3 24.15 42.65 20.1 43.25 19.65 43.75 19.6 44.1 19.55 45.85 19.65 43.85 21.2 43.5 21.4
M 48.4 20.7
Q 48.85 20.7 49.95 20.9 50.95 21.1 53.05 22.45 50.6 22.8 46.9 21.25 47.55 20.7 48.4 20.7
M 46.5 24.4
Q 47.15 24.15 48.75 24.45 48.8 25 48.1 25.7 46.45 27.35 44.9 30.1 44.05 31.75 42 33.7 41.6 33.05 41.9 32.35 43.4 28.35 45.15 25.75 45.9 24.6 46.5 24.4
M 53.75 19.5
L 53.8 19.55
Q 55.05 19.25 56.15 20.05 57.35 20.95 57.8 21.65 57.35 21.75 57.3 21.75
L 53.8 19.55 53.7 19.6 53.65 19.45 53.75 19.5
M 54.65 23.75
Q 54.8 23.8 55.1 24.3 54.5 24.35 54 23.7 54.5 23.65 54.65 23.75
M 53.15 31.55
Q 52 30.25 51.35 29.65 50.2 28.55 49 28.3 49.6 27.1 49.9 26.75 50.15 26.4 51.2 25.45 52.3 26 53.3 27.2 53.85 27.9 54.9 29.35 55.75 30.3 55.5 31.05 55.05 31.35 54.4 31.45 53.6 31.5 53.15 31.55
M 49.25 31.15
Q 48.3 30.95 47.75 30.9 48.55 29.65 49.15 29.65 49.8 29.65 50.75 30.9 50.15 31.2 49.25 31.15
M 61.45 31.95
L 61.45 32.1
Q 62 32.45 61.5 33.15
L 61.45 32.1 61.35 32.05 61.35 31.9 61.15 31.7 61.1 31.5
Q 61.3 31.2 61.3 31.6
L 61.35 31.9 61.45 31.95
M 22.65 57.8
L 22.6 57.45 22.85 57.7
Q 23.05 57.9 22.85 57.9 22.65 58.2 22.65 57.8
M 26.35 63.55
Q 25.8 63.3 25.5 62.6 26.05 62.55 26.2 62.85 26.3 63.05 26.35 63.55
M 24.4 63.25
L 24.4 63.5 24.2 63.25
Q 24.1 63.15 24.2 63.05 24.4 62.85 24.4 63.25
M 37.2 74.85
Q 37.5 75.05 38.25 76 37.3 75.8 36.95 75.6 36.3 75.25 36.05 74.45 36.95 74.65 37.2 74.85
M 77.25 59.7
Q 77.15 59.1 77.35 57.9
L 77.65 57.6
Q 77.8 58.65 77.75 58.95 77.7 59.2 77.25 59.7
M 77.2 59.85
L 77.15 60.2 77.1 60.4
Q 76.8 60.4 76.95 60.1
L 77.2 59.85
M 68.35 66.65
L 68.2 66.9 68.2 66.6 68.25 66.4
Q 68.5 66.3 68.35 66.65
M 67.75 67.65
Q 67.798828125 67.3087890625 68.05 67.15 67.8455078125 68.1044921875 67.7 68.25 67.7 67.85 67.75 67.65
M 67.35 68.7
L 67.55 68.5 67.5 68.75
Q 67.5 68.95 67.45 68.95 67.35 69 67.3 68.9 67.3 68.8 67.35 68.7
M 60 85.7
Q 59.05 86.15 58.2 85.95
L 56.25 85.35
Q 55.95 85.45 55.95 85.75 55.9 86.15 55.65 86.3 54.25 86.9 52.55 86.5 49.25 85.8 46.35 83 50.85 83 53.1 82.3 56.2 84.1 61.6 84.3 60.95 85.25 60 85.7
M 49.05 74.4
Q 49.6 74.2 50.05 74.45 50.3 74.65 50.7 75.05 49.75 75.3 49.05 74.4
M 53.2 16.6
L 53.25 16.65 53.3 16.6 53.2 16.6 Z"/>
</g>

<g id="Layer1_0_MEMBER_0_MEMBER_1_FILL">
<path fill="#000000" stroke="none" d="
M 22.45 36.15
Q 22.9 36.25 23.1 35.95 23.5 34.95 23.55 34.85 25.2 29.7 27.75 26.05 28.35 25.25 28.25 24.85 26.7 25.9 25 29.1 23.55 31.65 22.3 35.75
L 22.45 36.15 Z"/>
</g>

<g id="Layer1_0_MEMBER_0_MEMBER_2_FILL">
<path fill="#000000" stroke="none" d="
M 58.05 15.05
Q 58.35 15 58.1 14.85
L 57.9 15 58.05 15.05 Z"/>
</g>

<g id="Layer1_0_MEMBER_0_MEMBER_3_FILL">
<path fill="#000000" stroke="none" d="
M 53.65 16.55
L 53.8 16.5
Q 53.85 16.4 53.75 16.35 53.65 16.3 53.55 16.35
L 53.3 16.6 53.65 16.55 Z"/>
</g>
</defs>

<g transform="matrix( 1.36676025390625, 0, 0, 1.12493896484375, -17.8,-6) ">
<use xlink:href="#Layer1_0_MEMBER_0_MEMBER_0_FILL"/>
</g>

<g transform="matrix( 1.36676025390625, 0, 0, 1.12493896484375, -17.8,-6) ">
<use xlink:href="#Layer1_0_MEMBER_0_MEMBER_1_FILL"/>
</g>

<g transform="matrix( 1.36676025390625, 0, 0, 1.12493896484375, -17.8,-6) ">
<use xlink:href="#Layer1_0_MEMBER_0_MEMBER_2_FILL"/>
</g>

<g transform="matrix( 1.36676025390625, 0, 0, 1.12493896484375, -17.8,-6) ">
<use xlink:href="#Layer1_0_MEMBER_0_MEMBER_3_FILL"/>
</g>
</svg>
