
<svg xmlns="http://www.w3.org/2000/svg" version="1.1" xmlns:xlink="http://www.w3.org/1999/xlink" preserveAspectRatio="none" x="0px" y="0px" width="100px" height="100px" viewBox="0 0 100 100">
<defs>
<g id="Layer1_0_MEMBER_0_FILL">
<path fill="#000000" stroke="none" d="
M 28.4 19.85
L 28.4 19.8 28.35 19.8 28.4 19.85
M 84.1 51
Q 84.4 47.05 83.3 41 81.35 31 75.2 22.8 69.75 15.6 62.3 12.35 59.95 11.3 55.55 8.7 50.15 5.45 43.4 6.15 39.95 6.55 38.55 7.4
L 38.3 7.6 38.9 8.4
Q 38.5 8.75 37.95 9.75 37.45 10.65 37 11.05 34.65 13 32.9 13.4 30.15 14.05 27.55 15.5 24.726171875 17.0357421875 23.6 18.8 24.101953125 18.9048828125 24.8 18.3 26.2 17.1 28.15 16 29.3 15.45 31.65 14.5 32.3 14.25 32.55 14.5 32.5 14.75 32.25 15
L 31.8 15.4 28.9 18.55
Q 28.2771484375 19.26875 28.4 19.8 28.687890625 19.812109375 29.25 19.25 29.45 19.1 29.7 18.75 29.9744140625 18.4755859375 30.25 18.4 30.2298828125 18.9828125 29.85 19.6 29.3 20.3 29.05 20.65 26.25 24.85 25.9 29.05 25.55 32.45 24.25 34.75 21.95 38.95 20.1 40.55 19.7 40.9 19.4 41.8 19.15 42.45 18.8 43.85 18.5 44.65 17.95 46.35 17.45 47.75 16.5 48.5 16 48.9 16 50.05 16 50.6 15.85 54.35 15.75 56.95 15.9 58.65
L 16.5 63.6
Q 18.4 77 27.35 87.2 31.65 92.1 37.6 93.5 39.5 93.9 40.1 93.95 41.45 94.1 42.55 93.75 43.9 93.35 46.6 93.25 48.05 93.25 48.95 92.85 50.4 92.2 52.2 92.2 53.8212890625 92.2982421875 54.65 91.25 54.1912109375 91.21171875 53.5 91.35 52.65 91.55 52.25 91.6 52.2 91.05 52.65 90.75 55.1 88.95 57.65 86.05 59.1 84.45 60.7 84.5 61 84.5 61.6 84.3 62.066015625 84.16015625 62.4 84.5
L 64.35 83.1
Q 67.15 81.45 70.1 77.8 71.8 75.6 72.05 75.35 73.4 73.95 74.6 71.6 75 70.75 75.85 69.9 83.35 62.3 84.1 51
M 42.5 48.95
L 42.6 49.4 42.55 49.6
Q 42.35 49.5 42.35 49.35
L 42.5 48.95
M 35.65 30.1
Q 36.25 28.75 36.65 28.1 37.25 26.95 38.2 26.45 37.2 28.55 36.15 32.1 35.85 33.3 35.3 34.6 34.75 35.65 33.75 35.45
L 30.6 40.55
Q 30.4 39.55 30.4 39.3 30.4 39 30.7 38.15 31.4 35.8 31.9 34.65 32.7 32.75 33.9 31.4 33.95 31.85 33.8 32.9 33.65 33.75 33.85 34.35 35.35 30.65 35.65 30.1
M 24.6 47.45
Q 24.6 47.1 24.65 46.9 24.7 46.6 25 46.45 25.35 46.55 25.35 46.7 26.7 53.2 26.75 58.5 26.75 59.7240234375 25.95 60.05 25.6927734375 58.16953125 25.45 57.15 24.3 52.5 24.6 47.45
M 33.45 42
L 33.3 41.55
Q 33.85 39.15 34.7 37.05 35.1 38.5 34.8 39.55 34.55 40.6 33.45 42
M 24.75 57
Q 25.621484375 59.4767578125 25.95 60.1 25.95 60.6 26.4 61.85 26.8 62.9 26.7 63.55 26.25 63.9 25.8 63.8 25.35 63.7 25.3 63.25 24.95 61.25 24.8 60.2 24.55 58.4 24.75 57
M 53.3 61.15
L 53.7 61.15 57.75 63.35
Q 57 66.4 56.85 66.85 56.55 68 55.4 68.7 54.8 69.05 53.55 69.75 52.2 70.55 50.85 69.65 49.85 69 49.5 68.3 51 67.35 51.65 65.35
L 52.8 61.95
Q 53 61.3 53.3 61.15
M 43.35 54.4
Q 43.2 53.7 43.35 51.85 43.7 51.95 43.9 52.3 44 52.5 44.15 52.9 45.45 55.8 46.3 57.2 46.65 57.85 46.05 58.15 46.2 58.45 46.7 58.6 47.25 58.8 47.4 59 47.55 59.4 47.3 59.75 47.15 60 46.75 60.35
L 46.35 60.25
Q 45.55 59.55 45.15 59.2 44.5 58.5 44.7 57.65 43.55 55.15 43.35 54.4
M 41.25 67
Q 41.7880859375 67.5380859375 41.75 68.2 40.9939453125 67.7408203125 40.8 67.45 40.6 67.15 40.05 66 40.5 66.4 41.25 67
M 42.9 75.1
Q 42.8564453125 75.2306640625 42.7 75.4 42.287109375 75.3404296875 42.1 75.2
L 41.15 74.25
Q 41.65 73.95 42.15 74.2 42.45 74.3 42.95 74.65 43.05 74.85 42.9 75.1 Z"/>
</g>
</defs>

<g transform="matrix( 1.26715087890625, 0, 0, 0.9845123291015625, -12.8,1) ">
<use xlink:href="#Layer1_0_MEMBER_0_FILL"/>
</g>
</svg>
