
<svg xmlns="http://www.w3.org/2000/svg" version="1.1" xmlns:xlink="http://www.w3.org/1999/xlink" preserveAspectRatio="none" x="0px" y="0px" width="100px" height="100px" viewBox="0 0 100 100">
<defs>
<g id="Layer1_0_MEMBER_0_FILL">
<path fill="#000000" stroke="none" d="
M 82.6 48.75
Q 82.6 46.15 81.85 43.05 80.1 35.2 79.95 34.2 79.35 31 78.65 28.6 77.4 24.2 75.4 21.7 70.75 15.8 63.3 14.05 61.6 13.65 60.7 14 59.7 14.35 58.15 13.9 56.4 13.35 55.85 13.1 53.25 11.85 48.4 11.65 44.25 11.5 40.7 12.95 36.55 14.75 34.05 16.3 31.3 18.05 26.2 22.15 23.3 24.55 21.4 27.8 19.4 31.25 17.9 35.4 17.25 37.3 17.5 38.2
L 18.35 38.6
Q 18.55 40.95 18.1 42.6
L 17.75 43.9
Q 17.55 44.65 17.5 45.15 17.05 52.4 18.35 57 19.6 61.3 22.15 64.4 23.35 65.95 24.25 67.3 25.55 69.5 26.4 70.15 27.9 71.45 28.95 73.55 31.25 78.2 36.7 79.85
L 39.15 80.5
Q 40.65 82.95 43.55 84.7 45.3 85.7 49.3 87.25
L 48.4 87.75
Q 50.1 87.95 50.45 88.05 57.6 89.6 63.55 85 69.95 80 73.05 76.3 77.6 70.8 80.2 64.7 81.75 60.9 82.25 57.1 82.6 54.65 82.6 48.75
M 36.8 23.75
Q 36.85 24.15 36.45 24.5 36.1 24.9 36.1 25.1 36.45 25.1 36.2 25.3
L 36.05 25.15 36.1 25.1
Q 34.65 25.65 32.9 28.1 31.55 30.1 30.1 31.3 30 31.4 29.5 31.6 29.7 29.95 30.6 28.3 31.6 26.45 33.7 25.05 34.75 24.35 35.1 24.2 35.95 23.75 36.8 23.75
M 18.6 45.75
Q 18.65 45.9 18.7 46.55
L 19.25 50.55
Q 19.65 52.45 20.05 53.3 20.6 54.4 21.1 57.2
L 21.7 61.2
Q 21.75 61.4 21.55 61.95 20.6 61.05 19.75 58.8 18.9 56.5 18.5 54.7 17.85 51.9 17.95 50.2
L 17.95 45.1
Q 18.45 45.35 18.6 45.75
M 33.45 28.8
Q 34.25 27.05 35.8 26 34.95 28 34.65 28.35 34.35 28.7 33.45 28.8
M 27.95 60.1
Q 28.85 59.65 29.2 60.55 29.55 61.35 30.35 63.45 31.95 68.2 33.85 71.05 34.25 71.65 34.35 71.85 34.6 72.35 34.45 72.9 34 72.95 33.5 72.8 33 72.55 32.75 72.45 31.35 71.5 30.45 71.3 29.6 71.1 28.65 69.55 29 68.45 28.75 66.85 28.35 65 28.2 64.05 27.8 61.35 27.95 60.1
M 23.8 60.2
Q 24.05 59.95 24.55 60 25.15 60.1 25.35 59.95 25.4 60.35 25.95 61.8 26.35 62.95 26.25 63.7 25.9 64 25.6 63.85 25.25 63.55 25.05 63.45
L 25.1 63.5 25.05 63.5
Q 25.15 63.95 25.5 64.45 25.65 64.7 26.05 65.25 26.8 66.3 26.95 67.45 26.95 67.9 26.6 68.1 25.1 66.65 24.6 64.25 24.5 63.95 25.05 63.5
L 25 63.45 25.05 63.45 23.8 60.2
M 36.9 78.75
Q 36.8 78.75 35.95 78.3 32.15 76.35 30.5 73.05 32.7 73.55 35.5 74.95 35.95 75.2 36.4 75.75
L 37.8 77.9 37.95 78.6
Q 37.45 78.9 36.9 78.75 Z"/>
</g>
</defs>

<g transform="matrix( 1.329010009765625, 0, 0, 1.1275634765625, -15.9,-6.15) ">
<use xlink:href="#Layer1_0_MEMBER_0_FILL"/>
</g>
</svg>
