
<svg xmlns="http://www.w3.org/2000/svg" version="1.1" xmlns:xlink="http://www.w3.org/1999/xlink" preserveAspectRatio="none" x="0px" y="0px" width="100px" height="100px" viewBox="0 0 100 100">
<defs>
<g id="Layer1_0_MEMBER_0_MEMBER_0_FILL">
<path fill="#000000" stroke="none" d="
M 85.65 45.85
L 85.5 44.7
Q 84.7 40.25 82.95 37.55 82 36.15 82 34.65 82 30.4 79.6 26.25 77.65 23 77.35 22.55 75.75 19.9 73.65 18.55 71.25 17 69.9 16 67.5 14.05 63.25 13.6 58.65 13.15 55.35 15 51.8 16.95 50 18.6 48.75 19.7 47.5 19.8 45.15 20.15 42.75 21.35 41.55 21.95 41.3 22.15 40.6 22.65 40.4 23.5 40.4 23.55 39.85 24.1 40.9 24.15 42.1 23.2 43.15 23.2 43.3 23.25 43.95 23.35 44.4 23.85 42.1 25.8 40.15 26.35 39.2 26.65 34.45 27.9 34.25 27.7 34.35 27.45 34.45 27.2 34.45 27.05 33.9 27.05 33.8 27.15 30.05 29.9 28.2 31.25 24.9 33.7 22.8 35.6
L 21.55 37.05
Q 18.8 40.65 16.75 44.45 14.9 47.95 14.55 51.2 13.65 61.15 16.3 68.45 18.45 74.3 22.5 78 24.55 79.9 27.95 82.25 31.95 84.95 37.7 86.1 39.55 86.45 42 86.5 43.4 86.55 46.25 86.5 49.55 86.5 52.6 85.3
L 61.05 82.05
Q 61.15 82 61.25 81.65
L 60.55 81.35
Q 63.4 79.05 67.15 74.15 69 71.7 70.2 69.85 71 68.7 71.2 67.7 71.5 66.25 72.4 64.05 73.85 60.6 74.6 54.3 74.4 53.55 74.45 52.2 74.5 50.65 74.4 50.05 74.2 48.95 74.45 48.4 74.85 48.4 75.05 48.95
L 75.1 49.2
Q 75.2 50.25 75.3 52.25 75.45 54.05 75.95 55.3
L 76.35 55.1
Q 76.6 54.9 76.95 55.15 76.85 58.25 76.75 59.2 76.5 61.45 75.85 63.2 73.9 68.4 71.5 71.95 71.3 72.25 70.8 72.85 70.4 73.4 70.45 73.95 70.7 73.9 71.3 73.3 72.25 72.1 73.95 69.05 77.8 61.9 77.55 55.1 77.45 52.4 78.45 50.45 78.8 49.8 79.05 48.9 79.5 47.2 81 46.4 81.25 46.5 81.35 46.95 81.5 47.5 81.65 48.65 81.85 49.6 82.2 50.15 82.9 51.35 82.9 53.8 82.9 54.1 83.1 54.65 83.75 54.85 84.05 54.5 84.5 53.95 84.75 52.95 85.2 51.55 85.35 49.45 85.55 47.05 85.65 45.85
M 69.65 24.15
L 66.95 22.4
Q 68.35 22.35 68.7 22.6 69 22.8 69.65 24.15
M 44.45 22.25
Q 44.2 22.85 43.35 22.6 43.6 22.25 44.45 22.25
M 44.65 22.2
Q 44.95 21.8 45.55 21.75 45.9 21.75 46.8 21.85 46.1 22.2 44.65 22.2
M 47.4 42.35
Q 46.6 42.35 45.95 43.3 45.6 43.45 45.45 43.8 45.1 43.9 45 44.25 44.65 44.4 44.5 44.75 44.15 44.8 44 45.2 43.7 45.35 43.55 45.7 44 45.65 44.05 45.25 44.4 45.2 44.55 44.75 44.85 44.7 45 44.3 45.35 44.15 45.5 43.8 45.9 43.75 45.95 43.35 46.8 43.3 47.4 42.4 47.85 42.2 47.9 41.9
L 48.55 42.05
Q 48.65 42.35 48.15 42.85 43.8 48.1 40.15 55.6 39.35 57.15 39.85 58.8 40.1 59.85 40.1 59.95 39.9 62.15 41.35 65.75 41.5 66.05 41.5 66.4 41.25 66.9 40.7 66.6 37.7 65.05 37.35 61.1 36.75 54.35 38.4 49.3 38.85 47.8 40.8 45.55 41.4 45.8 41.05 46.35 40 48.4 38.95 52.2 37.65 56.65 37.95 59.75 38.55 59.25 38.7 58.45
L 39.2 55.9
Q 39.95 51.2 42.6 47.55 43.05 47 43.2 46.7 43.5 46.2 43.55 45.7 43.05 46 42.45 46.75 41.75 47.7 41.5 47.9 41.2 47.7 41.3 47.4 41.45 47.05 41.5 46.9
L 42 45.85
Q 43.15 43.3 45.35 42.4
L 47.05 41.6
Q 47.5 41.4 47.85 41.85 47.4 41.95 47.4 42.35
M 72.4 35
L 72.3 36.65 67.35 28.85
Q 67.55 28.55 67.75 28.6 67.9 28.6 68.15 28.8 70.05 30.35 71.25 31.75 72.55 33.3 72.4 35
M 36.65 52.25
Q 36.95 52.7 36.85 53.95 36.85 56.1 36.7 56.8 36.5 58 36.75 59.1 37 60.4 36.7 61.7 36.1 61.25 35.95 60.5 35.85 59.65 35.8 59.2 35.4 54.75 36.65 52.25
M 76.35 54
Q 75.95 53.25 76.4 52.3 76.65 53.35 76.35 54
M 69 56.5
Q 68.75 57.95 68.05 59 67.95 57.8 68.35 56.35 68.95 54.7 69.2 53.85 69.1 55.85 69 56.5 Z"/>
</g>

<g id="Layer1_0_MEMBER_0_MEMBER_1_FILL">
<path fill="#000000" stroke="none" d="
M 70.4 74.05
Q 70.1 74.05 69.65 74.5 67.85 76.75 65.5 78.7 65.45 78.75 65.2 79.25
L 65.55 79.2
Q 68.1 77.4 70.3 74.4 70.35 74.15 70.4 74.05 Z"/>
</g>

<g id="Layer1_0_MEMBER_0_MEMBER_2_FILL">
<path fill="#000000" stroke="none" d="
M 39.35 24.7
Q 39.4 24.7 39.65 24.2 37.15 24.95 34.65 26.65
L 34.5 26.95
Q 36.05 26.5 39.35 24.7 Z"/>
</g>

<g id="Layer1_0_MEMBER_0_MEMBER_3_FILL">
<path fill="#000000" stroke="none" d="
M 64.6 79.8
Q 63.65 79.75 63.25 80.65 64.2 80.55 64.6 79.8 Z"/>
</g>
</defs>

<g transform="matrix( 1.2138671875, 0, 0, 1.186920166015625, -10.15,-9.05) ">
<use xlink:href="#Layer1_0_MEMBER_0_MEMBER_0_FILL"/>
</g>

<g transform="matrix( 1.2138671875, 0, 0, 1.186920166015625, -10.15,-9.05) ">
<use xlink:href="#Layer1_0_MEMBER_0_MEMBER_1_FILL"/>
</g>

<g transform="matrix( 1.2138671875, 0, 0, 1.186920166015625, -10.15,-9.05) ">
<use xlink:href="#Layer1_0_MEMBER_0_MEMBER_2_FILL"/>
</g>

<g transform="matrix( 1.2138671875, 0, 0, 1.186920166015625, -10.15,-9.05) ">
<use xlink:href="#Layer1_0_MEMBER_0_MEMBER_3_FILL"/>
</g>
</svg>
