
<svg xmlns="http://www.w3.org/2000/svg" version="1.1" xmlns:xlink="http://www.w3.org/1999/xlink" preserveAspectRatio="none" x="0px" y="0px" width="100px" height="100px" viewBox="0 0 100 100">
<defs>
<g id="Layer1_0_MEMBER_0_MEMBER_0_FILL">
<path fill="#000000" stroke="none" d="
M 81.65 46.8
Q 82.3 47.5 82.6 48.7 83.15 51.45 83.15 52.5 83.15 53.15 83.85 53.1 84.1 51.75 83.85 49.85 82.85 43.1 79.75 38.45 78.6 36.65 78.4 35.4 77.25 28.85 71.9 23.1 67.75 18.65 62.45 14.25 59.4 11.8 56.4 11 55.9 10.85 49.75 9.05 47.5 8.4 46.2 8.45 39.65 8.6 34.7 11.3 27.7 15 22.75 22.15 20.1 26.05 19.15 27.5 16.95 30.8 16.55 32.6 16.85 33.9 16.85 34 16.85 34.45 16.65 35.4
L 16.3 38.25
Q 16.1 39.95 16.05 41.1 15.95 44.6 15.95 51.65 15.95 52.65 16.25 53.3 18.15 57.65 18.2 57.75 19.45 60.3 20.75 61.95 21.4 62.7 21.65 64.15 23.15 71.5 27.45 75.95
L 28.1 76.7
Q 31.7 80.65 35.35 82.9 37.85 84.45 40.8 85.3 45.45 86.65 51.25 85.8 55 85.25 57.3 85.8 59.75 84.65 62.15 84.65 62.15 85 61.65 85.4 61.25 85.75 61.3 86.15
L 64.05 85.55
Q 64.55 85.45 65.6 85.4 66.5 85.25 67.05 84.65 66.55 84.6 65.15 85 64 85.35 63.3 84.85 63.6 84.25 65 83.25 67.9 81.55 69.7 79.95 71.95 77.95 73.25 75.45 73.9 74.2 76.3 72.9 76.35 73.7 75.95 74.95 75.5 76.3 75.45 76.85
L 75.35 76.8 75.4 76.9 75.45 76.9
Q 75.9 77.35 75.8 77.85 74.55 83.5 70.15 86.7 69.4 87.25 67.7 88.15 66.9 88.65 66.85 88.85
L 67.25 88.9
Q 71.15 87.8 73.3 84.85 75.1 82.4 76.05 79.8 76.7 77.9 76.85 77.05 77.2 75.5 77.05 74.2 76.75 71.7 78.25 69.45 79.5 67.65 80.15 65.1 81.25 61.45 81.3 58.25 81.3 57.85 81.7 55.45 81.8 55.1 82.05 55.25
L 82.4 56.25
Q 82.75 54.4 82.35 51.6 81.8 48.5 81.65 46.8
M 24.05 65.65
L 24.1 65.8
Q 23.85 65.8 23.9 65.6
L 24.05 65.65
M 28.4 71.1
Q 28.85 72.4 29.85 73.75 30.25 74.25 31.75 75.95 33.5 77.95 33.75 78.35 33.9 78.65 34.9 79.5
L 37.35 81.8
Q 37.05 82.15 36.45 81.8 33.4 80.1 31.9 78.05 31.65 77.7 30.85 77.1 27.95 74.7 25.7 70.9 24.75 69.15 24.5 68.35 24.45 68.1 24.15 65.9 25 66.3 25.8 67.2 26.25 67.75 27.05 68.85 28 70.1 28.4 71.1
M 32.45 74.15
Q 32.35 74.05 32.35 73.6 36.45 75.15 38.45 77.8 39.95 79.65 41.65 80.45 42.2 80.7 44.1 81.9
L 44.6 82.4
Q 44.2 83.3 43.2 82.95 41.15 82.35 39.1 80.55 36.2 78.15 34.85 76.85 34.05 76.05 32.45 74.15
M 58 82.05
L 57.85 81.9 58.2 81.75 58.35 81.9 58 82.05
M 49.9 84.9
L 46.45 84.55
Q 46.95 83.7 47.7 83.8 48.75 84.05 48.8 84.05 49.5 84.3 49.9 84.9
M 46.65 81.35
L 46.8 81.45 46.6 81.5 46.45 81.4 46.65 81.35
M 67.05 79.35
Q 67.9 78.3 68.7 78.35 68.65 79 68.15 79.4 67.85 79.65 67.2 80.1 66.6 79.8 67.05 79.35
M 65.1 80.05
L 65.05 80.2 64.9 80.2
Q 64.9 79.95 65.1 80.05
M 64.55 81.35
Q 64.35 81.6 63.65 82 63.5 82.1 63.25 81.85 62.95 81.7 63.1 81.45 63.85 80.15 64.85 80.25 64.95 80.9 64.55 81.35
M 60.7 81.95
Q 61.1 81.05 61.95 81.2 61.75 82.15 60.7 81.95 Z"/>
</g>

<g id="Layer1_0_MEMBER_0_MEMBER_1_FILL">
<path fill="#000000" stroke="none" d="
M 60.8 91.45
Q 61.85 91.8 62.35 91.3
L 60.8 91.45 Z"/>
</g>

<g id="Layer1_0_MEMBER_0_MEMBER_2_FILL">
<path fill="#000000" stroke="none" d="
M 63.55 90.95
Q 63.05 90.75 62.55 91.2 62.75 91.2 63.1 91.25 63.4 91.2 63.55 90.95 Z"/>
</g>

<g id="Layer1_0_MEMBER_0_MEMBER_3_FILL">
<path fill="#000000" stroke="none" d="
M 66.75 88.9
Q 66.1 88.8 65.75 89.1 66.35 89.6 66.75 88.9 Z"/>
</g>

<g id="Layer1_0_MEMBER_0_MEMBER_4_FILL">
<path fill="#000000" stroke="none" d="
M 75.4 77.45
Q 75.4 77.35 75.4 76.9 75.05 77.2 74.95 77.75 75.3 77.7 75.4 77.45 Z"/>
</g>

<g id="Layer1_0_MEMBER_0_MEMBER_5_FILL">
<path fill="#000000" stroke="none" d="
M 16.85 60.7
Q 16.85 60.35 16.7 60.55 16.65 60.55 16.65 60.65 16.65 60.7 16.7 60.75
L 16.85 60.95 16.85 60.7 Z"/>
</g>

<g id="Layer1_0_MEMBER_0_MEMBER_6_FILL">
<path fill="#000000" stroke="none" d="
M 18.85 65.35
L 18.75 65.25 18.8 65.4
Q 19.1 65.6 18.85 65.35 Z"/>
</g>

<g id="Layer1_0_MEMBER_0_MEMBER_7_FILL">
<path fill="#000000" stroke="none" d="
M 69.1 83.9
Q 69.2 84 69.3 83.9
L 69.6 83.65 69.25 83.65
Q 68.85 83.65 69.1 83.9 Z"/>
</g>

<g id="Layer1_0_MEMBER_0_MEMBER_8_FILL">
<path fill="#000000" stroke="none" d="
M 20.8 68.2
Q 20.4 67.9 20.75 68.25 20.9 68.4 20.8 68.2 Z"/>
</g>
</defs>

<g transform="matrix( 1.27386474609375, 0, 0, 1.0420989990234375, -13.15,-1.85) ">
<use xlink:href="#Layer1_0_MEMBER_0_MEMBER_0_FILL"/>
</g>

<g transform="matrix( 1.27386474609375, 0, 0, 1.0420989990234375, -13.15,-1.85) ">
<use xlink:href="#Layer1_0_MEMBER_0_MEMBER_1_FILL"/>
</g>

<g transform="matrix( 1.27386474609375, 0, 0, 1.0420989990234375, -13.15,-1.85) ">
<use xlink:href="#Layer1_0_MEMBER_0_MEMBER_2_FILL"/>
</g>

<g transform="matrix( 1.27386474609375, 0, 0, 1.0420989990234375, -13.15,-1.85) ">
<use xlink:href="#Layer1_0_MEMBER_0_MEMBER_3_FILL"/>
</g>

<g transform="matrix( 1.27386474609375, 0, 0, 1.0420989990234375, -13.15,-1.85) ">
<use xlink:href="#Layer1_0_MEMBER_0_MEMBER_4_FILL"/>
</g>

<g transform="matrix( 1.27386474609375, 0, 0, 1.0420989990234375, -13.15,-1.85) ">
<use xlink:href="#Layer1_0_MEMBER_0_MEMBER_5_FILL"/>
</g>

<g transform="matrix( 1.27386474609375, 0, 0, 1.0420989990234375, -13.15,-1.85) ">
<use xlink:href="#Layer1_0_MEMBER_0_MEMBER_6_FILL"/>
</g>

<g transform="matrix( 1.27386474609375, 0, 0, 1.0420989990234375, -13.15,-1.85) ">
<use xlink:href="#Layer1_0_MEMBER_0_MEMBER_7_FILL"/>
</g>

<g transform="matrix( 1.27386474609375, 0, 0, 1.0420989990234375, -13.15,-1.85) ">
<use xlink:href="#Layer1_0_MEMBER_0_MEMBER_8_FILL"/>
</g>
</svg>
