
<svg xmlns="http://www.w3.org/2000/svg" version="1.1" xmlns:xlink="http://www.w3.org/1999/xlink" preserveAspectRatio="none" x="0px" y="0px" width="100px" height="100px" viewBox="0 0 100 100">
<defs>
<g id="Layer1_0_MEMBER_0_FILL">
<path fill="#000000" stroke="none" d="
M 83.75 47.8
Q 84.75 41.35 81.9 36.95 81.3 36.05 80.1 33.3 78.25 29.05 75.4 26.45 71.9 23.35 68.4 21.5 66.7 20.6 65.8 20.3 57.7 17.55 46.75 15.6 44.75 15.25 41.75 15.6 40.85 15.7 40.35 16 38.25 17.25 37.2 17.9 35.35 19.05 34.2 20.05 32.9 21.2 31.55 21.6 28.6 22.65 25.95 25.2 23.45 27.75 22 30 19.6 33.8 18.55 36.85 17.3 40.4 17.3 44.35 17.3 48.45 16.45 51.2 15.25 55.35 16.9 60.35 17 61.05 17.35 61.15 18 61.3 18.55 61.9 18.85 62.25 19.35 63 21.1 65.1 21.2 67.05 21.3 68.35 22.35 70.15 26.45 77.35 33.35 81.65 35.35 82.95 37.9 83.65 41.3 84.65 46.2 84.55 50.3 85 56.5 82.65 61.5 80.7 66.7 77.4 71.3 74.55 74.1 70.7 76.1 68 77 66.6 80.55 60.85 82.3 54.6 83.25 50.95 83.75 47.8
M 42.8 21.05
Q 42.4287109375 21.1427734375 42.3 20.75 43.6439453125 20.0048828125 45.4 20.2 48.2 20.6 53.5 22.1
L 58.1 23.45
Q 59 23.75 59.5 23.55 59.7 23.3 59.5 23 59.25 22.7 59.35 22.5 59.4 22.5 59.65 22.4 61.05 22.65 63.55 24.15 64 24.4 64 24.95 63.8 25.5 63.35 25.55 61.95 25.65 61.25 25.6 60 25.55 58.3 25.2 56.35 24.75 55.4 24.55 54.65 24.35 53.55 23.45 52.15 22.35 50.3 22.05
L 46.1 21.15
Q 43.9 20.75 42.8 21.05
M 74.05 27.8
Q 74.25 27.6 74.3 27.75 74.340234375 27.790234375 74.35 27.9
L 74.05 27.8
M 74.4 28
Q 74.9162109375 28.0708984375 75.25 28.5 75.3943359375 28.6923828125 75.7 29.35 74.427734375 29.288671875 74.4 28
M 68.15 25.4
Q 69.2 25.4 69.7 26.15 69.2 26.4 69 26.3 68.8 26.2 68.15 25.4
M 38.3 22
Q 38.6 21.75 39.35 21.85 39.15 22.15 38.85 22.15 38.7 22.15 38.3 22
M 35.6 23.95
Q 34.9 25.25 33.8 25 34.2 24 35.6 23.95 Z"/>
</g>
</defs>

<g transform="matrix( 1.27386474609375, 0, 0, 1.25286865234375, -13.15,-12.4) ">
<use xlink:href="#Layer1_0_MEMBER_0_FILL"/>
</g>
</svg>
