
<svg xmlns="http://www.w3.org/2000/svg" version="1.1" xmlns:xlink="http://www.w3.org/1999/xlink" preserveAspectRatio="none" x="0px" y="0px" width="100px" height="100px" viewBox="0 0 100 100">
<defs>
<g id="Layer1_0_FILL">
<path fill="#000000" stroke="none" d="
M 87.8 29.7
Q 87.15 27.45 86.15 25.35 83.1 19.45 77.8 15.85 77 14.75 75.9 14.05 74.4 12.4 72.8 11.25 71.05 10.65 69.2 10.3 66.45 9.8 63.55 9.3 60.2 8.6 57 7.9 54.1 7.1 51.15 6.5 48.75 6.15 46.15 6.05 43.35 6 40.95 6.75 38.5 7.65 35.9 8 32.75 8.65 30 10.65 24.45 14.55 20.85 20.5 19.6 22.6 18.2 24.5 17 26.3 15.8 28.1 13.05 32.7 10.6 37.5 8.95 40.4 7.85 43.75 7.25 45.6 6.95 47.55 6.65 49.55 6.6 51.55 6.1 58.85 8.4 65.45 9.55 68.95 11.55 71.95 14.45 76.65 18.25 80 22.1 83.45 26.4 86.15 31.4 89.7 36.8 91.5 42.3 93.15 48.05 92.6 50 92.45 51.9 92.3 54.3 92.2 56.75 91.75 60.1 91.05 63.25 89.85 66.35 88.75 69.3 87.45 75.05 84.85 78.95 79.95 80.6 77.7 82.2 74.8 82.45 74.2 82.85 73.6 86.4 69.1 89 63.9 91.65 58.3 92.85 52 93.2 49.5 93.15 46.8 93 39.9 89.65 33.95 88.5 31.95 87.8 29.7
M 82.15 34.95
Q 82.45 35.4 82.5 36
L 79.05 30.35 79.05 30.2
Q 79.45 30.65 80.15 31.4 81.25 33.15 82.15 34.95
M 85.2 36.1
L 83.7 31.5 83.55 30.3 85.2 36.1
M 85.35 31
L 87.7 33.95 88.2 38.6 85.35 31
M 86.1 28.2
L 87.25 31.75 83.6 28.1
Q 82.6 25.35 81.25 22.65 80.6 21.35 79.9 20.05 79.35 19.1 78.9 18.05 83.7 22.25 86.1 28.2
M 83.85 41.7
L 84.15 42.3 84.45 43.6 83.85 41.7
M 83.85 37.9
L 84.15 39.9 83.4 38 83.55 37.2 83.85 37.9
M 82.6 40.3
L 81.25 37.8
Q 81.5 38 81.65 38.25 82.2 39.2 82.6 40.3
M 82.6 44.3
L 82.35 46 82.15 44.8 82.45 43.6 82.6 44.3
M 86.95 46.45
L 87.35 48 86.85 49.65 86.95 46.45
M 88.1 48.35
L 88.7 45.05 88.6 52.6 88.1 48.35
M 86.3 45.75
L 86.1 43.4 86.1 43.15
Q 86.15 43.4 86.3 43.95
L 86.3 45.75
M 89.3 49.15
Q 89.55 45.75 89.3 42.35 89.25 39.3 89.3 36.2
L 91.9 42.35
Q 93.15 49.5 91.35 56.3 89.65 62.6 86.15 68.4 85.35 69.7 84.45 71 84.55 70.55 84.9 70.15 88.3 63.45 88.75 55.9 89 52.5 89.3 49.15
M 88.35 42.35
L 87.7 46.45 85.2 32.95
Q 87.65 37.4 88.35 42.35
M 86.95 51.55
L 86.95 50.8 87.35 49.2 86.95 51.55
M 86.95 53.4
Q 87.25 51.75 87.7 50.1
L 88.05 56.4 86 63.1
Q 86.2 58.15 86.95 53.4
M 81.45 54.75
L 81.85 53.1 81.35 57 81.45 54.75
M 82.6 53.1
L 82.45 52.25 82.45 50.7 82.6 53.1
M 83.7 54.4
L 83.7 55.1 83.1 57 83.7 54.4
M 85.3 52.15
L 84.8 54.4
Q 84.9 53.8 85.05 53.05 85.05 52.7 85.3 52.15
M 85.7 56.6
L 85.75 57.45
Q 84.25 64.35 80.6 70.5 79.25 73 77.55 75.25 76.85 76.2 75.9 77.15 78.65 73.5 80.7 69.35 82.7 65.45 84.1 61.5 84.95 59.1 85.7 56.6
M 82.05 56.85
L 82.05 57.95 81 60.3 82.05 56.85
M 84.45 58.75
L 84.1 59.45 84.95 55.65 84.45 58.75
M 81.95 68.75
Q 82.75 67.45 83.5 65.9 84.65 62.85 85.6 59.7
L 84.95 65.1 79.35 73.6
Q 80.55 71 81.95 68.75
M 86.55 65.4
L 83.8 71.45 87.7 59 86.55 65.4
M 81.5 71
Q 83.3 68.75 84.9 66.15 83.8 69.6 82.2 72.75 81.45 74.45 79.9 75.75 77.5 78.2 74.8 80.35 78 75.6 81.5 71
M 81.85 61.15
L 81.25 62.8 80.8 63.45 81.85 61.15
M 62.6 9.95
L 66.35 10.25 71.5 11.45 62.6 9.95
M 61.95 11.45
L 63.4 12.2 60.55 11.1 61.95 11.45
M 66.55 14.55
L 67.6 15.45 65.75 14.3 66.55 14.55
M 67 13.6
Q 66.95 13.6 66.95 13.5 67.6 13.45 68.2 13.5 69.15 13.6 70 13.7
L 74.9 16.65
Q 70.85 15.45 67 13.6
M 62.4 17.6
Q 62.6 17.5 63.05 17.6
L 65.2 19 62.4 17.7 62.4 17.6
M 62.9 13.7
L 64.55 14.75 60.2 13.35 62.9 13.7
M 61.8 21.2
L 62.4 21.7 59.8 21 61.8 21.2
M 69.2 21.2
L 70 21.3 70.7 21.9 69.2 21.2
M 77 17.05
Q 77.65 17.6 78 18.35
L 74.75 15.25 75.3 15.5
Q 76.3 16.2 77 17.05
M 77.9 23.2
Q 77.7 23.2 77.55 23.25 76.65 22.4 75.7 21.35
L 77.9 23.2
M 74.1 17.4
Q 79.05 18.95 80.4 24.5
L 74.1 17.4
M 71.5 16.8
L 75.3 19.8 70 16.65 71.5 16.8
M 65.9 10.75
L 71.9 12.05 75.5 14.45
Q 70.8 11.95 65.9 10.75
M 56.6 8.95
L 55.2 8.95 44.7 7.1
Q 48.45 6.75 51.7 7.45 54.1 8.15 56.6 8.95
M 54.7 10.75
L 57.4 10.9 60.65 12.4
Q 57.5 12.4 54.7 10.75
M 40.65 12.55
L 42.65 12.4
Q 41.4 13.25 40.15 13.85 39.2 14.3 38.25 14.55 35.35 15.45 32.5 16.75 35.95 13.5 40.65 12.55
M 41.9 13.6
L 44.2 12.4 51.25 12.9 41.9 13.6
M 42.6 23.2
L 43.05 22.75 48.1 21.6 42.6 23.2
M 43.05 20.85
L 44.7 20.6 40.95 22.15 43.05 20.85
M 49.2 19.3
Q 48.65 19.2 48.1 19
L 50.3 18.45 52.9 19
Q 51.55 19.8 49.2 19.3
M 48.1 23.8
L 48.25 23.7 49.1 23.6
Q 48.5 23.7 48.1 23.8
M 45.75 20.6
L 46.85 20.6
Q 46.05 20.75 45.55 20.75
L 45.75 20.6
M 57 15.45
Q 57.6 15.5 56.35 15.5 55.95 15.45 55.65 15.35
L 57 15.45
M 58.85 19.65
L 59.8 19.9 57.85 19.9
Q 58.35 19.7 58.85 19.65
M 56.3 21.35
L 56.55 21.3 57.85 21.55
Q 57 21.45 56.3 21.35
M 59.05 24.05
L 58.85 23.95
Q 59.05 23.8 59.6 23.85
L 59.05 24.05
M 40.95 8.05
L 52 9.1 38.15 9.6 40.95 8.05
M 52.5 24.75
L 54.3 24.9 48.75 25.6 52.5 24.75
M 53.65 33.05
L 53.05 33.4
Q 50.75 32.8 48.8 33.95 47 34.9 45.25 35.4 44.2 35.75 43.05 36.35 42.65 36.6 42.3 36.8
L 44.6 35.3
Q 48.65 33.15 53.15 32.95 53.3 33.05 53.65 33.05
M 50.75 35.5
L 52.1 35.55
Q 51.25 35.75 50.65 35.75
L 50.75 35.5
M 56.7 34.45
L 58.95 34.95 55.6 34.45 56.7 34.45
M 42.1 27.75
L 44.4 27.45
Q 43.05 27.7 42 27.85
L 42.1 27.75
M 40.65 25.8
L 41.7 25.45
Q 39 27.85 35.15 28.75
L 40.65 25.8
M 41.7 35.65
Q 41.7 35.5 42 35.3
L 42.3 35.2
Q 42.2 35.3 41.9 35.5
L 41.7 35.65
M 44.8 32.3
L 44.1 32.45 45.65 31.75 44.8 32.3
M 48.8 35.65
L 49.6 35.55 44.8 37.3 48.8 35.65
M 50.25 40
Q 50 40.1 49.75 40
L 50.65 39.8
Q 50.45 40 50.25 40
M 48.05 39.75
L 48.35 39.65
Q 47.95 40 47.4 40.15
L 48.05 39.75
M 43.35 39.2
L 43.55 39.05 46.45 38.1
Q 44.9 38.8 43.35 39.2
M 44.25 41.6
L 45.5 40.2 46.45 40 44.25 41.6
M 43.15 37.9
L 43.75 37.65
Q 43.3 37.9 42.9 38.15
L 43.15 37.9
M 43.3 47.75
Q 43.7 47.3 44.1 46.9
L 41.1 51.65
Q 41.7 49.4 43.3 47.75
M 42.75 47.3
L 45.25 44.95 48.05 43.05 42.75 47.3
M 41.15 44.3
Q 41.65 44.1 41.8 44.1
L 40.95 45.05 41.15 44.3
M 43.3 44.95
Q 44 44.3 44.9 43.5
L 40.95 47.75
Q 42 46.35 43.3 44.95
M 49.05 46
L 49.3 45.95
Q 48.95 46.2 48.45 46.55
L 48.25 46.7
Q 48.5 46.35 49.05 46
M 49.6 48.5
L 50.4 48.35 49.45 48.7 49.2 48.85
Q 49.2 48.7 49.6 48.5
M 46.6 48.95
L 49.3 47.55 45.85 50.45 46.6 48.95
M 56.75 40.8
L 58.35 41.5 57.85 41.7 56.75 40.8
M 59.8 42.2
L 60.4 42.3 61.05 43.4 59.8 42.2
M 54.7 43.25
L 55.35 43 56.05 43.35 54.7 43.25
M 52.5 46.35
L 52.75 46.35 53.55 46.45
Q 52.9 46.45 52.5 46.35
M 58.2 48
Q 58.55 48.35 58.95 48.8
L 60.2 51.3 57.3 47.9
Q 57.8 47.9 58.2 48
M 50.55 48.7
Q 50.75 48.7 51.15 48.6 50 48.95 48.95 49.55 48.5 49.9 48.05 50.15 48.95 48.6 50.55 48.7
M 71.95 27
Q 71.65 26.8 71.35 26.65 69.9 25.35 68.45 24.05
L 71.95 27
M 72.6 33.05
L 71.75 30.8 73.15 33.3 72.6 33.05
M 69.2 29.6
Q 69.3 29.7 69.45 29.75 69.35 29.75 69.3 29.7 69.2 29.7 69.2 29.6
M 68 28.8
L 69.3 30.1 70.2 31.6 68 28.8
M 65.75 26.9
L 65.75 26.8
Q 66.5 27.25 65.75 26.9
M 60.8 25.1
L 61.05 25.1 61.55 25.8
Q 61.05 25.45 60.8 25.1
M 64.9 27.95
L 65.4 28.45
Q 65 28.3 64.7 28.05
L 64.9 27.95
M 61.45 33.15
L 61.65 33.15 62.75 34.35
Q 61.95 33.75 61.45 33.15
M 66.25 41.5
L 66.25 42.7 64.55 39.55 66.25 41.5
M 70 39.8
L 70.55 41.95 69.05 38.6 70 39.8
M 61.95 41.05
L 63 41.95 65 44.9 61.95 41.05
M 64.15 48.35
L 64.4 49.05
Q 64.35 49.05 64.25 49.05 64.15 48.7 64.15 48.35
M 68.1 44.8
L 68.85 46.45 68.45 48.7 68.1 44.8
M 76.75 40.75
L 76.7 39.1 77.4 41.7 76.75 40.75
M 72.15 45.6
L 71.95 46.8 71.55 43.4 72.15 45.6
M 80.25 45.3
L 80.5 46.2 80.5 46.95 80.25 45.3
M 77.9 44.3
L 77.9 44.65
Q 77.65 44.2 77.35 43.4
L 77.9 44.3
M 79.45 48.2
L 79.3 49.05 78.85 46.45 79.45 48.2
M 70.8 46.45
L 71.35 47.9 71.35 49.65
Q 71.25 49.05 71.1 48.6 71.05 47.55 70.8 46.45
M 60.45 24.65
Q 60.45 24.75 60.55 24.75 59.8 24.85 60.45 24.65
M 35.65 11.95
L 36.7 10.9 43.85 10.05 35.65 11.95
M 35.65 11.2
L 34.8 12.2
Q 32.35 13.25 29.9 14.45 27.55 15.6 25.25 17
L 29.2 14.15 35.65 11.2
M 36.5 8.75
Q 37.7 8.5 39 8.25 37.3 10.25 34.8 10.9 32.75 11.45 30.75 12.4 26.4 14.65 22.75 18.85 25.65 14.15 30.25 11.25 33.05 9.35 36.5 8.75
M 24.15 21.55
L 25.15 20.85 23.3 22.75 24.15 21.55
M 23.2 22.05
Q 22.85 22.75 22.25 23.35 20.6 24.9 18.7 26.4
L 20.05 24.75 23.2 22.05
M 23.8 24.5
L 24.85 23.2 25.45 22.9 23.8 24.5
M 30 20.65
Q 29.85 20.85 29.65 20.65
L 32.05 19.55
Q 31.1 20.25 30 20.65
M 29.1 19.55
L 28.9 19.7 27.65 20.3
Q 28.4 19.9 29.1 19.55
M 28.35 23.2
L 28.65 22.6 31.3 20.95 28.35 23.2
M 27.45 22.25
L 28.05 21.45 29.1 20.95 27.45 22.25
M 25.35 20
L 28.4 17.25 33.05 14.55 25.35 20
M 27.7 17
Q 25.65 18.45 23.8 20.5 21.9 22.6 19.65 24.4
L 21.8 20.75
Q 26.4 16.3 32.2 14.15 33.05 13.7 33.9 13.45 30.55 14.8 27.7 17
M 33.15 17.85
L 34.95 16.9 37.15 16.3 33.15 17.85
M 32.05 22.4
Q 33.3 21.35 34.5 20.4 35.1 20 35.9 19.65
L 40 18.3 32.05 22.4
M 35.1 23.35
Q 34.8 23.85 34.4 24.05 33.3 25 32.1 25.85
L 35.1 23.35
M 32.65 23.45
L 33.6 22.85 31.5 24.5 32.65 23.45
M 35.05 24.65
L 37.85 22.5 41.35 21.2 35.05 24.65
M 31.95 21.6
Q 30.35 23 28.8 24.15 28.1 24.75 27.25 25.25
L 28.9 23.7 31.95 21.6
M 16.2 28.3
L 17.05 26.65 19.95 22.65 16.2 28.3
M 19.6 26.45
L 18.1 28.3 18.25 27.5 19.6 26.45
M 19.85 27.75
L 18.1 29.4 20.55 26.65 19.85 27.75
M 13.7 36.95
Q 13.85 36.1 14.25 35.15 14.65 34.2 15.35 33.15
L 14.75 34.2 13.7 36.95
M 14.25 31.85
Q 13.85 33.4 13.2 34.8 12.15 36.95 11.1 38.85
L 14.25 31.85
M 11.7 35.5
Q 12.25 34.45 12.8 33.6 10.85 37.15 9.85 40.8 8.95 43.65 8 46.55 7.6 47.75 7.25 49.05 7.45 45.6 8.8 42.05 10.05 38.8 11.7 35.5
M 17.45 37.05
L 18.65 34.9 18.5 35.9 17.45 37.05
M 18 34.45
Q 18.5 33.85 19.05 33.15
L 17.35 36.7
Q 17.25 35.3 18 34.45
M 16.2 35.3
L 17.15 31.05 18.95 29.25 16.2 35.3
M 17.15 34.25
Q 18.2 31.95 19.35 29.7 19.85 28.8 20.45 27.95
L 17.15 34.25
M 17.85 42.2
L 17.35 40.8 18.1 39.1 17.85 42.2
M 17.35 39.1
Q 17.25 38.8 17.35 38
L 18.25 37.05 17.35 39.1
M 13.5 40.8
Q 13.45 40 13.7 39.05 14.45 36.45 15.4 33.75
L 14.4 39.1 13.5 40.8
M 13 41.25
L 13 42.35 12.35 44.3 13 41.25
M 14.25 41.7
L 13.6 42.8 13.5 42.05 14.55 39.55 14.25 41.7
M 13.85 44.3
L 13.75 43.4 14.25 42.1 13.85 44.3
M 13.05 43.95
L 13.1 44.3 12.65 46.25
Q 12.9 45.05 13.05 43.95
M 13.3 45.25
L 13.45 46.25 13 48 13.3 45.25
M 15.4 47.15
L 15.25 45.65 16.45 42.35 15.4 47.15
M 18.9 48.6
L 19.05 49.2 18.95 52 18.9 48.6
M 18.7 45.75
L 18.5 45.15
Q 18.8 43.6 19.35 42.05 19.95 40.55 20.9 39.4 21.3 38.5 21.95 37.8
L 18.7 45.75
M 15.8 48.6
L 16 46.1 15.9 50.1 15.8 48.6
M 17.75 47.05
L 17.85 48.6 17.65 49.15 17.75 47.05
M 17.35 43.85
L 16.6 47.2 17 42.55 17.35 43.85
M 15.4 43.95
Q 15.25 44 15.15 44.1
L 16.6 38.8
Q 17.35 41.6 15.4 43.95
M 13.1 36.6
Q 13.05 39.65 12.45 42.65 11.8 46.1 11.65 49.65 11.55 51.45 11.55 53.3
L 12.5 61.35
Q 9.45 54.5 10.3 46.7 10.8 41.35 13.1 36.6
M 12.65 36.95
L 10.15 43.85 9.55 47.3
Q 9.55 43.4 11.2 39.9 11.8 38.35 12.65 36.95
M 35.5 27.1
Q 36.3 26.55 37.15 26.2
L 31.3 29.85
Q 33.35 28.4 35.5 27.1
M 38.65 29.6
L 40.05 29.15 35.5 31.75 38.65 29.6
M 31.3 36.25
L 33.85 34.6 29.9 39.05 31.3 36.25
M 30.65 33.65
L 33.9 31.4
Q 31.9 33.15 29.75 34.8
L 30.65 33.65
M 32.4 33.5
Q 32.684765625 33.3294921875 32.9 33.15
L 32.75 33.3 32.4 33.5
M 38.8 36.7
L 40.45 35.85 34.85 41 38.8 36.7
M 32.45 31.5
L 33.9 30.1 36.05 29.25 32.45 31.5
M 30.75 32
L 32.45 30.55 29.5 33.75 30.75 32
M 28.8 25.95
L 28.25 27.1 25.35 29.7
Q 27.15 27.85 28.8 25.95
M 26.85 26.75
Q 26.6 26.8 26.4 26.75
L 27.25 26.3
Q 27.05 26.55 26.85 26.75
M 28.25 28.9
L 28.65 28.3 29.85 27.6 28.25 28.9
M 26.9 30.65
L 28.25 29.7 26.05 32.9 26.9 30.65
M 21.5 26.4
L 21.9 25.45 23.5 24.15 21.5 26.4
M 24.3 29.95
L 25.15 29.25 21.3 33.5 24.3 29.95
M 24.7 25.5
Q 23.45 28.45 21.1 30.45 20.45 31 19.85 31.5
L 24.7 25.5
M 20.25 29.95
L 23.4 25.8 25.1 24.5 20.25 29.95
M 20.6 34.9
L 21.2 34.45 19.95 36.7 20.6 34.9
M 22.05 33.85
L 23.05 33.05 19.75 38.1 22.05 33.85
M 25.15 34
L 24.65 34.45 25.8 32 25.15 34
M 23.8 34.7
Q 24.45 33.4 25.25 32.2
L 23.5 35.5
Q 23.7 35.05 23.8 34.7
M 25.45 34.55
L 25.65 34 26 33.85
Q 25.8 34.1 25.45 34.55
M 24.4 26.65
L 25.65 24.9 28.05 22.9 24.4 26.65
M 27 32.1
L 29.2 29.05 30.75 28.2 27 32.1
M 21.55 32.55
L 24.4 28.4 26 27.15 21.55 32.55
M 29 38.45
L 26.85 43.15
Q 27.25 40.55 29 38.45
M 28.35 41.25
L 30.25 37.2 30.7 36.85 28.35 41.25
M 22.05 40.8
L 21.5 42.1 22.55 38.6
Q 22.35 39.75 22.05 40.8
M 23.9 40
L 24.8 38.25 28.65 33.95 23.9 40
M 23.4 46.45
L 23.2 45.15 25.25 42.2 23.4 46.45
M 23.45 47.2
L 24.25 45.25 23.7 48.5 23.45 47.2
M 22.25 47.3
Q 22.35 46.7 22.55 46.1 22.65 47.05 22.55 47.85 22.55 48.95 22.1 49.9 22.1 48.6 22.25 47.3
M 29.3 46.55
L 30.15 44.55 31.5 42.8 29.3 46.55
M 26.7 44.9
L 27 44.3 26.75 45.75 26.7 44.9
M 27.95 46.25
L 28.8 44.35 31.2 41.7 27.95 46.25
M 27.15 48.5
L 28.8 46 27.45 49.55 27.15 48.5
M 20.7 42.05
L 20.45 43.75 18.95 46.9 20.7 42.05
M 24 41.35
Q 24.65 40.2 25.9 39.65
L 23.15 43.85
Q 23.2 42.65 24 41.35
M 38.25 40
L 39.4 39.2 37.1 42.05 38.25 40
M 35.55 39.1
L 36.3 38.5 35.15 39.8 35.55 39.1
M 35.9 40.65
L 38.4 38.45 33.8 43.35 35.9 40.65
M 32.65 41.6
L 34 40.3 28.8 48.6 32.65 41.6
M 34.3 43.6
L 33.55 44.3 35.9 41.7 34.3 43.6
M 33.45 48
Q 33.55 47.9 33.6 47.75
L 32.5 52.5
Q 32.65 50.95 32.95 49.3 33.15 48.6 33.45 48
M 33.05 45.85
L 33.35 44.7 34.1 44.2 33.05 45.85
M 36.05 44.3
L 36.3 44
Q 35.9 44.65 35.35 45.4
L 36.05 44.3
M 36.3 48.1
L 37.45 46.9 35.8 49.9 36.3 48.1
M 40.25 48.25
L 40.35 47.5 41.15 46.6 40.25 48.25
M 39.05 45.15
L 37.25 46.35 41.5 41.85 39.05 45.15
M 36.7 45.25
L 38.4 44.1 35.25 48.2 36.7 45.25
M 37.85 43.65
L 38.5 42.7 40.55 41.7 37.85 43.65
M 34.3 40.55
Q 33.3 43 31.6 45.3 30.85 46.45 29.85 47.4
L 34.3 40.55
M 20.9 37.55
Q 22.05 35.75 23.3 34 21.95 36.5 20.55 38.85 19.75 40.15 18.9 41.4 19.85 39.45 20.9 37.55
M 29.6 48.5
L 30.85 47.05 28.7 51.05
Q 28.6 51.2 28.4 51.4 29 49.9 29.6 48.5
M 39.9 51.05
Q 40.45 49.9 39.9 51.2
L 39.9 51.05
M 37.45 52.35
Q 37.4 52.35 37.45 52.15 37.55 51.75 37.75 51.3
L 37.45 52.95
Q 37.4 52.7 37.45 52.35
M 36.45 52.1
Q 36.6 51.3 36.8 50.7 37.1 49.65 37.45 48.6
L 36.45 52.1
M 40.3 53.3
L 39.85 54.15
Q 40.15 52.7 40.55 51.2 40.95 50.25 41.6 49.4
L 40.3 53.3
M 36.15 51.2
Q 35.8 52.4 35.65 53.45 35.15 49.65 38.15 46.8 36.8 48.85 36.15 51.2
M 34.3 55.2
Q 33.85 52.25 35.05 49.75 35.15 49.2 35.55 48.7
L 34.3 55.2
M 31.2 51.45
L 31.25 52.75 30.75 54.95 31.2 51.45
M 30.75 49.9
L 31.2 49.65 30.35 51.65 30.75 49.9
M 35.15 56.75
L 35.25 56.6
Q 35.45 56.85 35.5 57.3
L 35.45 57.3
Q 35.35 57.2 35.15 56.75
M 31.95 60.65
Q 31.6 59.45 31.5 58.3 31.3 56.3 31.6 54.25
L 31.95 60.65
M 40.15 55.8
L 40.3 56.85
Q 40.25 56.75 40.25 56.6 40.15 56.25 40.15 55.8
M 38.35 59.7
L 37.95 59.1 37.65 57.7 38.35 59.7
M 28.65 51.9
L 30 50.7 28.8 53.8 28.4 52.6 28.65 51.9
M 30.25 49.55
L 29.1 50.7 31 47.3 30.25 49.55
M 30.25 55
L 30.15 53.1 30.75 51.2 30.25 55
M 29.6 52.75
L 29.6 53.45 29.3 54.25 29.6 52.75
M 28.05 54.25
Q 28.35 54.75 28.5 55.3 28.6 56.15 28.4 57 28.05 57.6 28.1 56 28.1 55.1 28.05 54.25
M 23.45 51.4
L 23.2 52.4 22.35 50.8 22.9 48.7 23.45 51.4
M 21.7 51.3
L 21.3 52.35 21.5 50.35 21.7 51.3
M 22.55 53.8
L 22.25 54.6 21.7 53.3 21.9 52.15 22.55 53.8
M 23.3 55.3
Q 23.3 55.35 23.3 55.55 22.9 56.65 23.3 55.3
M 24.95 53.45
Q 24.85 52.7 25.05 51.75
L 25.35 55.1
Q 25.05 54.4 24.95 53.45
M 23.15 58.05
L 24.1 59.45 24 61.8 23.15 58.05
M 26.9 56.15
L 26.85 56.4
Q 26.75 55.55 26.7 54.7
L 26.9 56.15
M 29.1 56.95
Q 29.35 57.3 29.6 57.7
L 30.45 61.5
Q 28.8 59.8 29.1 56.95
M 27.15 64.85
L 27.05 66.15
Q 24.45 64 24.65 60.3
L 27.15 64.85
M 28.25 67.45
L 27.7 66.85 27.7 66.7
Q 28.05 66.75 28.25 67.45
M 27.45 70.75
Q 27.45 70.85 27.45 70.9 26.75 69.95 27.45 70.75
M 33.6 62.35
L 33.55 62.25
Q 33.25 61.1 32.95 59.85
L 33.6 62.35
M 34.95 61.9
L 35.75 63.8 34.55 61.6
Q 34.7 61.7 34.95 61.9
M 38.25 68.6
L 39.85 69.25 40.85 69.95 38.25 68.6
M 30.35 72.5
L 34.1 74.2 35.05 75.35
Q 34 75.15 33.3 74.75 31.8 73.7 30.35 72.5
M 17.05 49.5
L 17 52.15 16.9 52.75 17.05 49.5
M 17.95 50.8
L 18.2 52.5 18.1 56.85 17.95 50.8
M 13.45 50.15
L 13.1 51.2 13.45 48.2 13.45 50.15
M 12.45 50.85
L 12.35 52.1 12.35 48.5 12.45 50.85
M 14.45 50.85
Q 14.75 51.65 15.05 52.5
L 15.6 58.65
Q 14 55.2 14 51.1 14 50.5 14 49.9
L 14 49.75
Q 14.3 50.1 14.45 50.85
M 13.05 54.7
L 14.4 58.05
Q 15.05 60.15 15.4 62.25 15.65 63.3 15.65 64.15 14.3 60.5 13.2 56.5 13.05 55.65 13.05 54.7
M 7.45 53.05
Q 7.35 51.75 7.6 50.35 8.1 46.45 9.55 42.8
L 8.95 51.05
Q 9.55 55.8 11.2 60.3 13.45 66.95 17.25 72.5 18.5 74.4 19.35 76.4 21.5 80.1 24.1 82.9 18 77.15 13.4 70.25 8.1 62.8 7.45 53.05
M 17.75 67.65
Q 16.2 66 16.2 63.9
L 17.75 67.65
M 16.05 66.95
L 16.2 67.9
Q 14.75 64.75 13.3 61.8
L 16.05 66.95
M 7.35 58.75
L 9.75 65.8
Q 12.35 71.45 16.2 75.95 17.6 77.7 19.15 79.25 16.05 76.35 13.4 73.1 10.05 68.85 8.5 63.3 7.85 61.1 7.35 58.75
M 30.55 83.55
L 35.15 86.15 36.2 86.9 30.55 83.55
M 28.35 77.7
L 28.65 77.85
Q 29 78.1 29 78.3
L 28.8 78.2
Q 28.4 77.85 28.35 77.7
M 22.05 79.95
Q 21.4 79.25 20.9 78.35
L 23.4 81.6 27.75 85.7
Q 24.45 83.45 22.05 79.95
M 29.85 81.75
L 30 81.85 30.7 82.45
Q 30.15 82 29.85 81.75
M 29.2 86.25
L 27.25 84.9 26.75 84.4
Q 27.966015625 85.345703125 29.2 86.25
M 27.05 85.7
L 26.9 85.7
Q 26.4 84.9 27.05 85.7
M 21.1 75.75
Q 24.55 81.25 29.35 84.85 33.55 88.3 38.65 89.7 37.75 89.6 36.8 89.4 31.7 87.85 27.4 84.55 22.2 80.3 19.2 74.05
L 21.1 75.75
M 34.3 87.6
Q 34.2 87.6 34 87.5 32.95 87 31.95 86.4
L 34.3 87.6
M 80.15 51.2
L 80.25 51.4 80.15 52.6
Q 80.15 51.8 80.15 51.2
M 76.3 51.65
L 76.35 52.35 75.8 55.8 76.3 51.65
M 80.55 54.25
L 80.25 55.3 80.55 53.1 80.55 54.25
M 79.05 52.1
L 79.45 54.5 78.5 56.5 79.05 52.1
M 78.2 51.4
L 77.4 54.05 77.7 47.85 78.2 51.4
M 74.9 51.2
L 75.05 51.9 74.9 53.3 74.9 51.2
M 71.8 51.9
L 71.9 52.5 71.5 54.7 71.8 51.9
M 74.1 59.25
L 73.95 60.5 73.15 62.5 74.1 59.25
M 79.55 58.3
L 79.1 59.5
Q 79.31875 58.9375 79.45 58.5 79.5255859375 58.4244140625 79.55 58.3
M 76.3 60.2
L 76.55 58.4 77.5 56.25 76.3 60.2
M 77.65 60.85
Q 78 59.2 78.6 57.55 79.05 56.25 79.7 54.95
L 79.45 56.3 77.65 60.85
M 71.9 55.3
L 71.75 57.55 70.55 60.4 71.9 55.3
M 64.35 57.1
Q 64.35 57 64.35 56.85
L 65 55.3
Q 64.65 56.25 64.35 57.1
M 63.55 59.6
L 63.65 59.55
Q 63.65 59.8 63.55 60.2
L 63.55 59.6
M 64.7 61.25
Q 64.8 61.45 64.7 61.6 63.7 65.9 59.9 67.7
L 64.7 61.25
M 63.4 56.4
L 61.95 59.35 63.3 55.55 63.4 56.4
M 66.3 57.95
L 66.25 59.45 65.3 61.9 66.3 57.95
M 66.95 56.3
L 66.85 56.05 66.95 55.45
Q 66.95 56 66.95 56.3
M 70.1 57.7
L 69.75 59.7 68.45 63.3 67.25 64.15 70.1 57.7
M 65.65 65.2
Q 65.6 65.3 65.35 65.4
L 68.55 59
Q 67.6 62.45 65.65 65.2
M 62.5 63.65
L 63.15 62.45 64.55 60.85 62.5 63.65
M 65 71.7
L 65.35 71.2 68.45 68.75 65 71.7
M 64.5 68.75
Q 63.75 69.25 63 69.8
L 63.7 68.95 67.5 65.1
Q 66.3 67.2 64.5 68.75
M 67.25 73.8
L 68.95 70.9 71.8 68.5 67.25 73.8
M 80.3 62.8
L 80.3 62.95 80.2 63.2
Q 80.273828125 63.0091796875 80.3 62.8
M 80.25 64.7
L 80.8 63.9 79.9 65.9 80.25 64.7
M 77.55 61.9
L 76.7 64.15 76.3 64.75 77.55 61.9
M 77.1 65.55
Q 77 65.7 76.85 65.9 77.35 64.85 77.8 63.9
L 77.1 65.55
M 79.05 62.45
L 78.4 63.65 79.3 61.15 79.05 62.45
M 79.7 63.75
L 79.05 65.7 78.2 66.75 79.7 63.75
M 75.4 62.35
L 74.9 64 73.75 65.9 75.4 62.35
M 75.1 64.85
Q 75.2 64.7 75.4 64.6 75.05 65.2 74.75 66
L 75.1 64.85
M 71.15 65.05
L 71.05 65.2 71.75 63.7 71.15 65.05
M 72.45 66.5
L 72.2 67.55 71.1 68.4 72.45 66.5
M 74.1 66.25
Q 73.7 67.3 73.2 68.05 72.35 69.7 71.1 71.1
L 71.1 71 74.1 66.25
M 74.4 69.1
L 74.5 68.95 75.05 68.4
Q 74.75 68.85 74.4 69.1
M 75.3 69.6
L 75.75 68.65 76.3 68.05 75.3 69.6
M 76.3 73.15
Q 76.3 73.1 76.3 72.9 76.85 72.3 76.3 73.15
M 77 68.3
L 76.05 69.9 78.3 67.2
Q 75.3 73.15 70 77.05 69.3 77.5 68.55 78.05
L 71.8 75.15 77 68.3
M 60 54.15
Q 60.2 54.25 60.2 54.35
L 59.8 55.7 59.8 54.25
Q 59.9 54.15 60 54.15
M 55.9 55.55
Q 56.05 55.1 56.15 54.7
L 56.55 55.35
Q 57 57.7 55 58.65 54.25 59.2 53.45 59.35 53.05 59.55 52.6 59.45 54.95 58.4 55.9 55.55
M 59.35 55.55
L 59.45 55.1
Q 59.5 55.65 59.6 56.4
L 59.35 55.55
M 55.5 52.5
Q 55.1 52.35 54.65 52.1
L 51.7 51.05 52.6 50.5
Q 54.9 50.8 56.25 52.85 55.9 52.7 55.5 52.5
M 50.85 49.5
Q 50.95 49.5 51.05 49.5
L 50.75 49.65
Q 50.75 49.55 50.85 49.5
M 53.05 52.6
L 53.05 52.95
Q 52.6 53.05 52.1 52.95
L 52.35 52.5 53.05 52.6
M 54.8 54.4
L 53.35 53.1
Q 53.7 53.1 54 53.05 54.25 53.2 54.4 53.4
L 54.8 54.4
M 50.85 55.9
Q 50.85 56 50.75 56.05 50.75 55.1 50.85 55.9
M 56.3 58.65
L 57.1 57 57.1 57.95 56.3 58.65
M 59.3 59.6
Q 59.35 59.2 59.45 58.75 59.9 57.1 60.65 55.45 60.65 55.55 60.65 55.8
L 59.3 59.6
M 51.5 55.8
L 51.5 55.65
Q 52.5 55.55 51.5 55.8
M 49.45 51.4
L 50.55 51.05 48.8 52.1 49.45 51.4
M 48.55 50.1
L 49.7 49.5 50.4 49.4 48.55 50.1
M 42.9 54.95
L 42.85 54.05 42.9 53.4 42.9 54.95
M 43.7 50.8
L 44.1 50.35 45.35 49.2 43.7 50.8
M 45.2 50.25
L 43.45 54.95 43.3 52 45.2 50.25
M 43.6 56.85
L 43.6 56.25
Q 43.7 56.85 43.7 57.1
L 43.6 56.85
M 44.25 56.05
L 44.1 56.25
Q 44 55.1 44.1 54
L 44.25 56.05
M 40.55 59.35
Q 40.55 59.209375 40.55 59 40.555078125 59.2599609375 40.65 59.45
L 40.55 59.35
M 43.7 60.15
L 44.3 60.75 44.8 61.45 43.7 60.15
M 43.05 57.9
L 42.2 56.3 42.5 53.55 43.05 57.9
M 48.95 63.4
L 47.55 63.05 47.2 62.85
Q 47.85 62.95 48.95 63.4
M 52.9 62.6
Q 52.5 62.6 52.3 62.6
L 53.95 62.25
Q 53.45 62.45 52.9 62.6
M 58.65 66.25
L 59.7 64.75 61.45 63.65 58.65 66.25
M 50.65 56.85
Q 50.65 56.95 50.55 57 50.25 56.15 50.65 56.85
M 51.7 79.95
L 54.15 80.2
Q 52.3 80.3 50.4 80.3
L 51.7 79.95
M 60 78.45
L 59.9 78.45
Q 60.2 78.05 60.65 77.75
L 62.6 77 60 78.45
M 46.8 90.55
Q 47.1 90.45 47.55 90.35
L 49.1 90.45 47.1 90.7 46.8 90.55
M 59.35 88.1
Q 58.2 89.15 58.9 88.3 59.05 88.2 59.35 88.1
M 59.6 89.15
L 59.8 89 70.4 84.4
Q 68.45 86.2 66.3 87 63 88.4 59.6 89.15
M 50.95 91.3
L 50.75 91.3
Q 52 91 53.35 90.8
L 50.95 91.3
M 52.1 87.45
L 53.3 86.8 57.85 86.3
Q 55 87.85 52.1 87.45
M 53.75 91.3
L 56.7 90.45 63.25 89.4
Q 60.15 90.8 57.1 91.15 55.45 91.3 53.75 91.3
M 58.05 86.9
L 59.7 85.95 64.4 84.3
Q 63 85.7 61.05 86.2 59.6 86.55 58.05 86.9
M 76.35 75.6
L 71.55 80.6 77.8 73.6 76.35 75.6
M 75.9 77.95
Q 74.75 79.6 73.2 80.8 71.25 82.35 69.05 83.55
L 75.9 77.95
M 73 76.2
L 73.15 75.95 75.5 73.8
Q 74.15 75.1 73 76.2
M 63.3 75.75
Q 63.75 75.1 64.5 74.4
L 67.6 72.15
Q 66.75 73.45 65.75 74.3 64.65 75.15 63.45 75.7 63.4 75.75 63.3 75.75
M 65.35 79.75
L 64.15 80.1 67.7 77.75 65.35 79.75
M 62.2 77.95
L 61.05 78.2 64.15 76.4 62.2 77.95
M 61.8 84.4
L 63.4 83.2 69.05 80.35
Q 66.15 83.55 61.8 84.4
M 66.75 83.15
L 69.75 81.25 65.4 84.3 66.75 83.15
M 66.05 85.45
L 70.8 83.2 64.9 86.2 66.05 85.45
M 69.15 80.9
L 70.4 79.4 73.2 77.25 69.15 80.9
M 60.8 87.35
L 62.4 86.75 60 87.75 60.8 87.35
M 78.85 79.25
Q 74.55 84.2 68.75 86.75
L 81.35 75.45
Q 80.25 77.4 78.85 79.25 Z"/>
</g>
</defs>

<g transform="matrix( 1, 0, 0, 1, 0,0) ">
<use xlink:href="#Layer1_0_FILL"/>
</g>
</svg>
