
<svg xmlns="http://www.w3.org/2000/svg" version="1.1" xmlns:xlink="http://www.w3.org/1999/xlink" preserveAspectRatio="none" x="0px" y="0px" width="100px" height="100px" viewBox="0 0 100 100">
<defs>
<g id="Layer1_0_MEMBER_0_FILL">
<path fill="#000000" stroke="none" d="
M 81.3 65.75
Q 81.75 62.1 81.95 60.25
L 82.2 57.4
Q 82.35 55.3 81.95 52.65 81.8 51.9 81.05 47.95 79.9 42.35 77.05 37.75 75.45 35.3 74.4 32.95 74.05 32.05 73.55 31.5 72 29.85 71.25 29.05 69.9 27.6 68.75 26.85 63.1 23.2 60.45 21.2
L 59.35 20.65
Q 57.7 19.9 56.9 19.5 55.4 18.75 54.5 18.15 52.25 16.7 48.3 15.6 47.7 15.5 47.65 15.05 48.75 14.25 50.1 14.7 50.85 14.95 51.85 15.5
L 54.6 16.95
Q 55.05 17.2 55.2 16.9 55.2 16.35 54.35 15.5 53.3 14.4 50.25 12.3 48.1 10.75 44.9 9.65 42.9 9 40.2 9.25 38.85 9.35 38.15 9.9 34.5 13.05 34.5 16.9
L 33.05 18.35 30.75 20.15
Q 27.75 19.85 25.7 23.1 23.05 27.1 21.95 30.55
L 19.05 39.95
Q 17.55 44.9 17.7 51.55 17.85 54.55 17.85 54.65 17.8 59.6 19.35 64.3 21.55 71.15 23.4 74.75 26.55 81.05 31.5 84 34.8 85.85 37.4 86.65 39 87.15 42.1 88.35 49.25 91 54.2 90.9 59.3 90.75 62.8 87.75 64.15 86.6 66.1 85.95 70.8 84.4 73.55 80.55
L 78.25 73.95
Q 80.95 70.1 81.3 65.75
M 41.2 11.1
Q 43.9 11.1 45.6 11.95 45.8 12.05 46.8 12.45 47.5 12.7 47.9 13.05 47.85 13.5 47.45 13.75 46.9 14.05 46.8 14.2 46.4 14.7 45.4 15.5 45.15 15.7 44.05 16.45 42.9 16.4 42.35 16.25 39.7 15.45 37.6 17 36.85 17.55 36.05 17.2 35.8 16.2 36.2 15.4 37.1 13.7 38.6 12.15 39.75 11.1 41.2 11.1 Z"/>
</g>
</defs>

<g transform="matrix( 1.34259033203125, 0, 0, 1.0604705810546875, -16.55,-2.8) ">
<use xlink:href="#Layer1_0_MEMBER_0_FILL"/>
</g>
</svg>
