
<svg xmlns="http://www.w3.org/2000/svg" version="1.1" xmlns:xlink="http://www.w3.org/1999/xlink" preserveAspectRatio="none" x="0px" y="0px" width="100px" height="100px" viewBox="0 0 100 100">
<defs>
<g id="Layer1_0_MEMBER_0_MEMBER_0_FILL">
<path fill="#000000" stroke="none" d="
M 83.5 39.05
L 82.25 37
Q 77.9 30.75 69.5 27.2 64.25 24.95 60.85 22.7 53.8 18 46.25 19.55 38.05 21.2 33.55 21.95 31.3 22.3 29.75 23.3 23.35 27.25 20.85 32.75 18.85 37.15 18.5 38 15.5 45.4 15.25 54.85 15.25 57.8 16 59.8 17.65 64 19.65 66.25 21.85 68.75 22.75 70.2 24.55 73.05 27.65 75.05 32.3 77.95 35.75 79.15 36.75 79.5 37.15 79.45 38.35 79.4 39.85 79.65 40.75 79.8 42.55 80.2 46.05 80.9 47.05 80.9 48.5 80.85 50.7 80.35 53.5 79.7 54.3 79.6 55 79.05 56.05 78.8
L 57.9 78.4
Q 59.6 78.1 61.1 77.45 64.65 76 67.6 73.45 69.2 72 69.35 71.85 70.25 70.9 70.6 69.85
L 69.75 69.8 69.7 69.85 69.65 69.85 69.6 70.25
Q 66.45 73.05 64.15 74.05 64.6 73.2 65.75 72.3 67.35 71 67.55 70.8 68.5 69.85 69.65 69.85
L 69.65 69.8 69.7 69.8
Q 69.85 69.45 70.7 69.35 75.3 65.65 79.9 59.75 81.05 58.3 81.75 56.45 82.6 54.25 83.7 49.75 84.45 46.85 84.65 44.35 84.85 41.55 83.5 39.05
M 58.35 33.15
Q 58.5 32.9 58.95 33.1 60.4 33.75 62.05 35.2 62.95 36 62.95 36.7
L 63 36.7 63.05 36.8 62.95 36.8 62.95 36.7
Q 62.7 36.8 62.55 36.7
L 59.45 35
Q 58.9 34.65 58.75 34.4 58.6 34.15 58.35 33.15
M 48.8 49.3
Q 48.6 48.95 49.1 48.75 48.9 48.35 48.15 47.8 47.4 47.3 47.3 46.8 47.65 46.15 48.3 46.5 49.85 47.25 49.55 48.75
L 50.9 50.65
Q 49.5 50.85 48.8 49.3
M 50.05 47.85
Q 50.35 47.35 50.7 47.7
L 53.75 50.95
Q 53 51.05 53 51 50.85 49.15 50.05 47.85
M 73.1 35.4
L 73.65 35.65
Q 73.75 35.75 73.85 36.1 73.2 36.2 73.1 35.4
M 68.65 39.7
L 68.7 40 68.45 39.8 68.4 39.6
Q 68.65 39.35 68.65 39.7
M 69.25 40.7
Q 70.7 42.15 70.7 44.5
L 70.55 50.55
Q 70.25 50.05 70.2 49.55 70.25 49 70.25 48.75
L 70.25 45.15
Q 70.25 43.2 69.5 41.95 69.25 41.45 69.25 40.7
M 75.05 38.85
Q 75 38.65 75.05 38.25 77.15 40.1 78.35 43.55 78.95 45.15 78.1 46.55 77.65 47.4 77.1 48.85 77.05 46.9 76.25 44.85 76 44.1 76 43.5 76.15 41.35 75.05 38.85
M 78.3 48.8
Q 78.35 48.45 78.4 48.25 78.5 47.9 78.75 47.65 79.05 49 78.75 51.05 78.05 54.55 76.75 57.65 76.3 58.6 76.1 58.9 75.65 59.5 74.95 59.7 74.25 59 74.6 57.8 74.95 57 75.15 56.75 76.95 54.2 78.3 48.8
M 75.8 49.1
Q 76.1 49.15 76.2 49.45 76.25 49.5 76.3 50.05 76.4 52.5 75.55 53.75
L 75.6 49.65
Q 75.6 49.2 75.8 49.1
M 32.75 43.3
Q 32.65 44.8 32.1 46.05 32 46.35 30.7 50.3 30.5 51.1 30 51.3 29.85 48.45 29.9 48.05 29.9 46.25 30.35 44.9 30.95 43.05 31.3 42.3 31.75 41.4 32.6 40.4 32.8 42.3 32.75 43.3
M 64.7 54.7
Q 64.8 53.3 64.95 52.95 65.05 52.6 65.6 51.75 66.1 51.85 66 52.25 65.95 53.1 65.7 53.6 65.45 54.1 64.7 54.7
M 64.75 55.55
Q 64.85 55.5 65.15 55.65 65.15 55.8 65 55.95 64.8 56.15 64.7 56.1 64.45 56.1 64.6 55.95 64.6 55.65 64.75 55.55 Z"/>
</g>
</defs>

<g transform="matrix( 1.24853515625, 0, 0, 1.4026336669921875, -11.9,-19.9) ">
<use xlink:href="#Layer1_0_MEMBER_0_MEMBER_0_FILL"/>
</g>
</svg>
