
<svg xmlns="http://www.w3.org/2000/svg" version="1.1" xmlns:xlink="http://www.w3.org/1999/xlink" preserveAspectRatio="none" x="0px" y="0px" width="100px" height="100px" viewBox="0 0 100 100">
<defs>
<g id="Layer1_0_FILL">
<path fill="#000000" stroke="none" d="
M 85.05 58.05
Q 86 55.05 85.65 52.05 85.35 49.8 84.5 47.55 82.9 43.4 79.65 40.05 79.15 32.6 74.25 27.15 73.95 22.9 71.6 19.6 70.6 18.25 69.15 17.1 67.05 15.45 64.75 14.55 63 13.75 61.3 13 60.05 12.4 58.75 11.9 55 10.65 50.95 10.3 46.25 9.85 41.65 10.85 38.5 11.65 35.7 13.35 33.05 15.05 31 17.45 29.65 18.95 28.25 20.45 25.75 23.2 23 25.45 21.35 26.85 19.75 28.3 18.05 29.95 16.65 31.85 15.35 33.7 14.3 35.7 12.8 38.65 12.2 41.75 11 48.15 11.85 54.35 11.85 54.45 11.85 54.6
L 13.05 58.4 13.05 57.6 13.2 58.1 13.4 59.4 13.05 58.4
Q 13.6 62.55 16.2 65.85 17.85 68 19.25 70.45 21.7 74.55 25.45 77.35 28.85 79.95 33.1 81.35 36.85 82.6 40.95 82.8 45 83.2 49.15 82.45 53.25 81.8 57.1 80.65 59.4 79.95 61.85 79.45 64 79.3 66.05 78.65 67.95 77.9 69.85 77.05 73.7 75.1 75.95 71.25 76.65 70.05 77.35 68.85 77.5 68.55 77.65 68.25 81.2 66.45 83.15 62.7 84.3 60.5 85.05 58.05
M 83.15 47.45
Q 85.2 52.1 84.15 57.15 83.2 61.6 80.05 64.9 79.2 65.7 78.35 66.45 79.3 63.9 79.65 60.9 79.9 59 80.3 57.1 81.9 49.55 79.7 42.15 80.2 42.7 80.65 43.3 82.1 45.25 83.15 47.45
M 64.45 22.1
L 65.05 22.45 66.3 23.9
Q 65.6 23.4 65.05 22.8 64.7 22.5 64.45 22.1
M 65.2 20.7
Q 63.95 19.85 62.8 18.95 60 16.9 56.95 15.05 60.75 14.8 64.4 15.9 67.6 18.15 68.95 21.7 69.25 22.4 69.45 23.15 67.25 22 65.2 20.7
M 70.15 24.3
L 70.15 24.2
Q 70.3 24.2 70.45 24.3
L 70.45 24.4
Q 70.3 24.4 70.15 24.3
L 70.15 24.35
Q 69.6 24 70.15 24.3
M 67.9 23.25
L 69.65 24.45 69.65 24.9 67.9 23.25
M 69.7 19.75
Q 69.3 19.05 68.85 18.4 72.25 21.5 73 25.9
L 70.95 24.15
Q 70.9 21.9 69.7 19.75
M 46.2 16.25
L 47 16.75 44.35 18.5 34.5 20.8
Q 36.9 18.8 39.6 17.35 41 16.6 42.7 16.4 44.45 16.3 46.2 16.25
M 48.35 17.95
L 46.8 18.15 47.9 17.5 48.35 17.95
M 49.9 16.6
L 49.85 16.7 49.2 17.25
Q 49.6 16.85 49.9 16.6
M 47 14.7
Q 48.05 14.95 49.1 15.2
L 43.55 14.75
Q 45.25 14.7 47 14.7
M 45.35 20.05
L 43.35 21.15 44.35 20.05 45.35 20.05
M 42.35 20.45
L 41.6 21.45 39.9 21.6 42.35 20.45
M 41.5 24.6
L 42.45 24.3 42.7 24.25
Q 42.1 24.85 41.3 25.5
L 41.5 24.6
M 48.15 20.45
L 49.3 20.75 47.85 21.05 48.15 20.45
M 46.6 21
L 46.45 21.65 45.3 21.55 46.6 21
M 49.2 21.9
L 50.35 21.85
Q 49.8 21.95 49.3 22.1 49.15 22.1 49.05 22.1
L 48.85 22.05
Q 48.95 21.95 49.2 21.9
M 50.25 13.05
Q 45.8 13.05 41.3 13.25 38.8 13.45 36.55 14.25 41.35 11.5 46.85 11.4 53.4 11.25 59.65 13.4 60.25 13.6 60.85 13.85
L 58.1 13.8
Q 55.75 13.7 53.4 13.65 51.8 13.35 50.25 13.05
M 54.85 17.9
L 55.35 18.25 50 17.8 51.85 16.85 54.85 17.9
M 54.6 15.35
L 54.15 15.35 54.95 15.25 55.1 15.3
Q 54.95 15.35 54.6 15.35
M 52.6 14.5
L 51.3 14.8 48.9 14 52.6 14.5
M 55.25 16.9
Q 55.05 16.7 54.85 16.6
L 59.45 17.9 61.1 19.45
Q 58 18.7 55.25 16.9
M 53.85 21.45
L 53.75 21.55 51.9 20.8
Q 52.9 21.1 53.85 21.45
M 55.05 20.4
L 52.55 19.2
Q 52.65 19.15 52.8 19.1 54.55 19.4 56.3 19.75
L 55.05 20.4
M 52.95 22.35
L 51.7 22.2 51.55 22.05
Q 52.2 22.15 52.95 22.35
M 60.6 23.75
L 56.6 21.35 58.3 20.8 60.6 23.75
M 59.6 29.2
L 59.2 28.6 62.65 30.15 63.05 30.7 59.6 29.2
M 55.15 26.65
L 53.25 25.05 55.3 25.85 56.45 26.85 55.15 26.65
M 50.8 24.95
L 50.8 25.6 47.45 24.35 50.8 24.95
M 51.7 28.9
L 51.75 28.05
Q 51.85 28.5 51.85 28.9
L 51.7 28.9
M 51.6 30.35
L 52.4 30.35 52.6 30.85 51.6 30.35
M 53.4 29.1
L 53.15 28.05 56.1 29.55 53.4 29.1
M 54.65 31.75
L 55.55 31.55 57.05 32.4 54.65 31.75
M 51.7 32.35
Q 53.95 32.8 55.55 34.5
L 56.3 35.35 55.65 37.15 51.7 32.35
M 59.15 31.8
L 59.35 31.85 59.75 32.95 59.4 32.7 59.45 32.75
Q 59.25 32.7 59.05 32.55
L 59.4 32.7
Q 59.15 32.2 59.15 31.8
M 59.25 33
L 58.9 32.85 59 33.25 58.45 32.5 58.9 32.85 58.85 32.75
Q 59.05 32.8 59.25 33
M 58.6 34.3
L 58.8 34.75 58 34.15
Q 58.3 34.2 58.6 34.3
M 59.55 35.6
L 59.5 35.5
Q 60.45 36.05 59.55 35.6
M 48.2 26.45
Q 48 26.45 47.9 26.35 47.65 25.95 47.55 25.5
L 50.45 26.5 48.2 26.45
M 46.15 25
L 46.35 26.45 44.9 26.55 45.4 24.75 46.15 25
M 50.45 28.8
L 48.4 28.5 50.65 28.1 50.45 28.8
M 44.1 24.8
L 43.6 26.7 41.8 26.85
Q 41.9 26.5 42.15 26.2 43 25.2 44.1 24.8
M 42.1 28
L 42.75 28.25 41.35 28.75 41.3 28.3 42.1 28
M 44.8 31.5
L 44.75 30.95 48 31 44.8 31.5
M 43.5 31.35
L 43.55 32 42.5 31.85 43.5 31.35
M 43.25 33.7
L 43.9 33.3 44.4 34.6 44 34.85 43.25 33.7
M 45.55 33.95
L 45.4 33.7 45.7 33.7 45.55 33.95
M 40.65 32.9
L 41.7 32.9 41.15 34.2 40.65 32.9
M 40.85 36.5
L 41.1 37 40.4 37.9 40.85 36.5
M 41.5 35.4
L 42.3 34.4 43.05 35.55 42.05 36.35 41.5 35.4
M 45 36.15
L 44.7 35.8
Q 45.3 36.35 45.9 36.9 46.4 37.45 46.95 38
L 45 36.15
M 49.3 33.2
L 49.55 33.6 49.3 34.6 48 33.8 49.3 33.2
M 48.05 32.6
L 46.75 33.15 45.65 32.65 48.6 32.15 48.05 32.6
M 46 34.9
L 46.8 34.45 48.85 35.85 48.2 37.5 46 34.9
M 50.2 35.3
L 50.4 34.75
Q 52.05 37.05 54.65 38.65
L 54.25 39.05 53.2 38.85 50.2 35.3
M 46.9 40.3
L 46.65 40.85 46 40.9 45.05 39.75 46.9 40.3
M 45.2 38.15
L 44.35 38.25 43.2 38 42.7 37.3 43.75 36.5 45.2 38.15
M 41.25 43.05
L 41.2 43.25 40.15 43.55
Q 40.7 43.2 41.25 43.05
M 41.5 40.65
L 42 41.2 41.85 41.6 40 42.25 39.95 41.65 41.5 40.65
M 42.35 43.1
L 42.6 42.45
Q 42.8 42.4 42.9 42.5 43.25 42.7 43.5 43.05
L 42.35 43.1
M 42.5 40.4
L 42.4 40.3
Q 42.55 40.15 42.75 40.05
L 42.5 40.4
M 43.9 40.6
L 44.45 41.05 43.35 41.25 43.9 40.6
M 44.9 43.05
Q 44.4 42.7 44.05 42.2
L 45.6 42 45.25 42.95
Q 45 43.05 44.9 43.05
M 42.3 45.85
L 41.85 45.6 41.95 44.45 44.25 44.25 42.3 45.85
M 41.75 48.2
L 42.15 47.55
Q 43.95 47.1 45.6 48 45.8 49.7 44.6 50.95
L 42.05 48.6 41.75 48.2
M 46.5 49.05
L 46.55 48.1
Q 49.9 48.1 52.75 49.7
L 46.55 52.4 45.5 51.7 46.5 49.05
M 48.8 45.45
L 45.85 45.15 45.5 44.55 48.8 45.45
M 48.4 44.3
L 46.15 43.45 46.65 42.75
Q 49.45 44.75 52.9 45.35
L 51.3 45.85 48.4 44.3
M 48.15 46.45
L 46.25 46.5
Q 46.7 46.4 47.15 46.3 47.65 46.35 48.15 46.45
M 56.1 40.6
L 56.25 41 54.9 40.7 54.45 40.4 56.1 40.6
M 56.6 42.25
L 56.7 42.85 55.85 42.15 56.6 42.25
M 57.7 43.1
L 57.55 42.4 58.6 42.5 57.7 43.1
M 59.05 39.55
L 56.5 38.45 57.25 36.55 59.05 39.55
M 52.7 41.3
L 53.3 41.5 52.2 41.45 52.7 41.3
M 53.2 42.9
Q 53.5 42.95 53.75 43.1 53.85 43.2 53.9 43.4
L 53.2 42.9
M 55.55 44.25
Q 55.35 43.85 55.3 43.5 55.3 43.55 55.5 43.65 55.65 43.85 55.7 44.1 55.7 44.15 55.55 44.25
M 54.25 46.05
Q 54.25 46.2 54.2 46.2 53.55 46.5 52.9 46.7
L 54.25 46.05
M 51.7 43.4
Q 52.45 43.6 53.1 44.1
L 50.85 43.6 47.45 42
Q 49.6 42.55 51.7 43.4
M 52.4 48.1
L 53 48.65 51.9 48.15 52.4 48.1
M 55.2 47.8
L 55.3 47.3 56.4 46.8 55.2 47.8
M 55.15 49.45
Q 55.15 49.3 55.35 49.15
L 55.75 49.4 55.3 49.75
Q 55.15 49.6 55.15 49.45
M 57.7 48.9
L 58 48.55 58.25 49.5
Q 58.2 49.5 58.2 49.4 57.8 49.35 57.65 49.05 57.6 49 57.7 48.9
M 58.7 47.85
L 58.55 47.8 58.75 48.4 58.35 48 58.55 47.8 58.5 47.75
Q 58.5 47.7 58.55 47.65 58.7 47.8 58.7 47.85
M 59.05 47.65
L 59.1 47.8
Q 58.95 47.75 58.7 47.5
L 59.05 47.65 58.85 47.2 59.1 46.75 59.9 47.6 59.5 48.15 59.05 47.65
M 51.55 38.6
L 49.1 38.15 49.75 36.6 51.55 38.6
M 70.9 25.45
L 73.05 27.55 72.9 30.4 70.85 26.25 70.9 25.45
M 73.1 34.1
L 73.65 34.65 74.1 35.5 72.95 34.75 73.1 34.1
M 75.7 35.15
Q 74.45 33.8 73.65 32.05 73.6 31.9 73.7 31.7
L 74.3 28.95
Q 77.7 33.25 78.35 38.75 77.1 36.75 75.7 35.15
M 71.85 31.7
L 71.15 31.2 70.9 30.35 71.85 31.7
M 69.6 26.55
L 69.6 27 68.7 25.45 69.6 26.55
M 68.6 27.5
L 69.25 29 69 30
Q 66.5 28.35 66.05 25.15
L 68.6 27.5
M 65.35 26.7
L 63.85 25.7 62.15 22.3
Q 63.4 23.6 64.45 25.05 65 25.8 65.35 26.7
M 61.9 26.4
L 62.25 27.2 60.55 25.7 61.9 26.4
M 60.9 33.15
L 63.05 35.05 62.95 35.5
Q 61.25 34.75 60.9 33.15
M 61.35 36.6
L 62 36.75 62.5 37.35 62.05 38.85 61.35 37.75 61.35 36.6
M 65 35.5
L 65.1 34.65 66.05 35.3
Q 65.95 35.55 65.8 35.75 65.65 35.85 65.4 35.9
L 65 35.5
M 70.2 39.25
L 69.9 41.9 69.15 39.45 69.9 38.85 70.2 39.25
M 61.65 43
L 62.1 43.25
Q 61.95 43.3 61.85 43.3 61.7 43.2 61.65 43
M 63.6 42.2
L 65 41.7
Q 64.35 42.1 63.7 42.4 63.65 42.35 63.6 42.2
M 63 44.1
L 63.15 44.15 63.65 44.5
Q 63.4 44.35 63.2 44.2
L 63.25 45.05 63 44.1
M 62.7 44.45
Q 62.8 44.3 62.8 44.2 62.9 44.6 62.95 45
L 62.7 44.45 62.75 45.6 62.35 46.1 62.25 45.4 62.7 44.45
M 60.9 44.75
L 61.15 45.4
Q 60.55 45.15 60 44.95
L 60.9 44.75
M 61 48.9
L 61.4 49.3 61.35 49.95 60.6 49.2 61 48.9
M 68.15 47.3
L 67.4 49.35
Q 67.1 46.45 65 44.4
L 65.9 42.75 68.15 47.3
M 69.75 46.85
Q 69.95 45.95 70.3 45.1
L 70.9 46.5 70.1 48.9
Q 69.55 47.9 69.75 46.85
M 72.55 39.35
L 73.25 40.45 73.4 41.1 72.55 39.35
M 74.4 39.85
Q 73.85 38.65 73.35 37.45 73.05 36.6 72.7 35.8
L 74.85 37.3 76.65 44.25
Q 75.45 42.05 74.4 39.85
M 71.05 41.9
L 71.15 44.15 70.75 43.35 71.05 41.9
M 27.95 23.35
L 27.35 23.55 28.65 21.7 27.95 23.35
M 29.65 22.9
L 29.15 23
Q 29.95 21.5 31.2 20.2 32.25 19.15 33.7 18.55 34.95 18 36.25 17.55 34.35 19.5 32.25 21.2 31.05 22.2 29.65 22.9
M 37.05 23.45
L 39.6 23.65 33.75 27.05 33.1 27.35 37.05 23.45
M 32.95 17.4
Q 35.8 15.5 39.15 14.75 40.3 14.55 41.45 14.4
L 32.95 17.4
M 17.1 32.8
Q 16.25 34.45 15.5 36.35 14.85 38 14.15 39.6 13.9 40.25 13.55 40.85 14.9876953125 34.380078125 19.4 29.75 18.1 31.20625 17.1 32.8
M 18.95 36.55
Q 19.1 35.25 20 33.9 20.9 32.7 21.8 31.5
L 18.95 36.55
M 18.15 42.25
L 19.4 38.2 21.3 38.65
Q 19.75 40.6 18.15 42.4
L 18.15 42.25
M 16.2 40.35
Q 16.4 39.6 17.05 39.1
L 17.05 42.4 16.65 44.8
Q 15.55 42.7 16.2 40.35
M 14.5 43.8
L 14.5 44 14.65 45.95
Q 14.45 45.15 14.4 44.3 14.4 44 14.5 43.8
M 12.95 43.75
Q 12.95 43.85 12.95 43.95 12.2 48.35 13.5 52.6 13.95 54.15 14.5 55.7
L 13.55 55.65
Q 11.9 49.85 12.95 43.75
M 13.9 47.4
L 14.9 49.05 14.65 52.7 13.9 47.4
M 18.95 48
L 17.8 46.6 17.85 45.6 18.95 48
M 39.9 26.5
L 38.65 26.4 40.05 25.15 39.9 26.5
M 39.2 29.05
L 39.2 29.25 37.3 29.75
Q 38.25 29.3 39.2 29.05
M 39.3 27.65
L 36.05 29.1 37.35 27.65 39.3 27.65
M 33.75 28.8
L 33 30.1 32.35 31.65 30.4 32.5 33.75 28.8
M 30.55 27.9
L 31.55 24.95 33.3 24.25 30.55 27.9
M 32.95 35.55
L 34.85 36.1 33.05 38.75 32.95 35.55
M 40.45 31.1
Q 40.45 31.2 40.3 31.3
L 40.3 30.65
Q 40.45 30.85 40.45 31.1
M 39.15 32.05
L 38.15 32.75 35.95 34.8 34.3 33.9 39.05 31.05 39.15 32.05
M 39.75 34.15
L 40.25 35.35 39.4 37.55 38.4 36.8 39.75 34.15
M 29.95 26.15
L 29.1 30 27.4 31.85 27.9 26.9 30.2 25.6 29.95 26.15
M 21 29.95
Q 21.65 29.25 22.35 28.6
L 17.3 35.05
Q 18.75 32.25 21 29.95
M 21.85 36.25
L 20.35 36.25 21.7 33.9 21.7 34.65 21.85 36.25
M 23.45 36.7
Q 23.35 36.7 23.25 36.65
L 23.65 33.35 24.1 35.4
Q 24.05 35.5 24 35.6 23.75 36.15 23.5 36.7
L 23.45 36.7
M 26.15 33.55
L 25.4 34 24.8 34.55 24.45 30.25 26.65 28.05 26.15 33.55
M 25.7 36.95
L 25.85 36.4 26.4 36.05 25.7 36.95
M 25.35 39.2
Q 25.35 39.25 25.4 39.3 24.85 40.3 25.35 39.2
M 29.9 42
Q 29.35 40.1 28.95 38.25
L 30.55 36.8
Q 29.7 40.25 30.8 43.6 30.85 43.65 30.85 43.75
L 30.4 43.55
Q 30.48125 43.671875 30.5 43.8
L 30.5 43.8 30.4 43.55
Q 30.1 42.75 29.9 42
M 22.15 37.75
L 21.7 37.55
Q 21.9 37.5 22.1 37.6 22.15 37.6 22.15 37.75
M 22.2 39.4
L 22.45 41.45 22.15 42 20.45 42.4 19.25 42.9 22.2 39.4
M 21.1 44.7
L 20.5 48.3 18.7 44.6 21.7 43.15 21.1 44.7
M 23.7 45.55
L 23.25 48.8 22.1 50.4 21.7 49.95 23.7 45.55
M 21.7 46.6
L 22 45.25 22.8 43.1 23.05 43.95 21.7 46.6
M 27.1 43.5
Q 27.1 43.55 27.15 43.6
L 27.6 45.8 26.9 44.9
Q 26.8 44.15 26.9 43.45
L 27.1 43.5
M 28.75 49.3
Q 28.9 49.35 29.1 49.45
L 29.15 49.65
Q 28.95 49.6 28.75 49.3
M 36.75 42.5
L 36.55 42.95 35.95 42.5 36.55 42.05 36.75 42.5
M 32.55 39.1
L 32.5 38.9
Q 32.6 39 32.7 39.3
L 32.55 39.1
M 31.35 38.1
L 31.55 38.55 31.55 37.95 31.8 38.95 31.55 38.55 31.9 40.95 31.5 41.85 31.35 38.1
M 31.95 43.2
L 32.25 42.45
Q 32.55 43.8 32.8 44.85
L 32.7 44.75
Q 32.55 44.7 32.45 44.7 32.4 44.65 32.35 44.6 32.43125 44.721875 32.45 44.85
L 32.45 44.85 32.35 44.6 32.7 44.75 31.95 43.2
M 33.8 43.05
L 33.35 41.1 34.3 42.25 33.8 43.05
M 34.65 41.05
L 33.6 39.7 35.9 36.55 34.65 41.05
M 34.35 45.05
L 34.55 44.45 34.65 45.5 34.35 45.05
M 32.2 44.9
L 32.55 45.05 32.6 45.1
Q 32.4 45.05 32.2 44.9
M 30.95 48.4
L 31.45 48.5 32.65 50 31.25 49.2 30.95 48.4
M 36.5 46.2
L 36.45 46.2 36.45 46.15 36.5 46.2
M 37.75 46.75
Q 37.7 46.65 37.75 46.55
L 38.55 45.95 39.2 47.1 38.5 47.4
Q 38.05 47.1 37.75 46.75
M 37.6 48.55
Q 38.25 48.65 37.5 48.6
L 37.6 48.55
M 37.8 49
L 37.7 49
Q 38.45 48.6 37.8 49
L 38.4 49 38.95 49.6 38.75 50.2 38.1 49.8 37.8 49
M 38.4 51.7
Q 38.4 51.75 38.4 51.8 37.55 50.85 38.4 51.7
M 36.15 55.15
L 35.45 53.7 35.3 53.2 37.15 55.2 36.15 55.15
M 39.85 54.75
L 39.4 54.2 41.45 55.15 40.95 55.4 39.85 54.75
M 34.75 57.85
L 34.45 57 34.45 56.8
Q 34.6 57.2 34.75 57.85
M 32.75 56.8
L 32.8 56.9
Q 32.15 56.2 32.75 56.8
M 33.15 60.2
L 32.3 61.6 28.9 58.05 29.9 57.4 30.7 57.75 33.15 60.2
M 36.6 58.8
L 37.3 58.55
Q 37.2 58.7 37.05 58.8 36.85 58.85 36.6 58.8
M 37.55 60.05
L 39.15 60.2 39.4 61.1 37.55 60.05
M 26.45 51.6
L 26.95 52.65 25.3 52.3 26.45 51.6
M 27.5 53.75
L 26.7 54.45 25.25 53.35 27.5 53.75
M 27.6 55.05
L 28.1 54.55 29 55.85 27.6 55.05
M 23.45 53.4
Q 23.45 53.6 23.35 53.7 23.25 53.85 23.1 53.85 22.95 53.85 22.85 53.7 22.75 53.6 22.75 53.4 22.75 53.2 22.85 53.05 22.95 52.95 23.1 52.95 23.25 52.95 23.35 53.05 23.45 53.2 23.45 53.4
M 22.5 54.8
L 23.05 54.85 23.05 55.85 22.5 54.8
M 22.95 59.4
L 24.2 60.7 25.2 62.6 25.1 63.2 22.95 59.4
M 26.2 57.1
L 26.85 57.65 26.6 58 26.2 57.1
M 27.5 56.8
L 26.4 55.85 28 56.45 27.5 56.8
M 28.05 58.95
Q 28.4 59.1 28.75 59.4
L 29.95 60.7 27.8 59.1
Q 27.95 58.95 28.05 58.95
M 27.95 62.9
L 29 64.45 27.55 62.75 27.95 62.9
M 30.3 62.15
L 28.9 62 28.05 60.75 30.3 62.15
M 25.45 67.3
L 25.75 67.7 25.95 68.15 25.45 67.3
M 30.05 67.1
Q 30.2 67.05 30.3 67.1 30.9 67.35 31.5 67.75
L 30.65 67.5 30.05 67.1
M 25.25 67.85
L 25.15 67.4 25.8 68.35 25.25 67.85 25.5 68.35
Q 22.7 68.2 20.5 66.7 18.2 65.2 17.6 62.75
L 24.2 66.4 25.25 67.85
M 28.55 69.2
Q 28.4 69.2 28.3 69.15 27.55 68.55 28.55 69.2
M 26.3 68.65
L 26.25 68.55
Q 26.8 68.75 26.3 68.65
M 26.2 69.6
L 26.65 70.1 24.7 69.4 26.2 69.6
M 28.7 71.5
L 28.75 71.55
Q 28.25 71.5 28.7 71.5
M 22.8 69.75
L 29.3 72
Q 30.8 72.55 32.25 73.45 34.1 74.55 36.15 75.4 38.05 76.1 40.05 76.85 40.35 76.95 40.7 77.1 34.9 76.35 29.45 73.85 25.85 72.2 22.8 69.75
M 37.35 63.9
L 38.1 65 37.15 65.6 36.1 63.1 37.35 63.9
M 38.45 67.55
L 39.45 66.65 40.45 67.8 39.2 68.65 38.45 67.55
M 33.25 62.95
L 34.6 62.45 35.5 64.7 33.25 62.95
M 35.35 66.3
Q 35.05 66 34.85 65.6
L 35.45 66.15
Q 35.35 66.25 35.35 66.3
M 34.35 66.55
L 32.8 66.55 32.7 64 34.35 66.55
M 31.65 63.25
L 31.4 65.15 29.85 63.3 31.65 63.25
M 34.1 69.95
Q 34.75 70.1 35.35 70.5 35.45 70.5 35.45 70.7
L 34.35 70.3 34.1 69.95
M 36.5 71.3
L 37.55 71.5 38.5 72.05 36.5 71.3
M 37.65 73.35
L 38.5 73.2 40.45 73.8 37.65 73.35
M 20 51.65
L 19.85 51.6 17.75 50.3 17.6 48.2 20.3 50.75
Q 20.2 51.2 20 51.65
M 18 51.8
L 19.15 52.4 20.05 52.7 18.2 52.75 18 51.8
M 16.35 53.65
L 15.7 54.3 15.85 52.4 16.35 53.65
M 20 55.45
L 19.35 55.15 18.8 54.75 18.5 53.9 19.95 53.85 20 55.45
M 13.5 58.15
Q 13.5 58.2 13.55 58.25
L 13.75 58.45 13.9 59.15 13.55 58.25 13.7 59.35 13.4 58.55 13.4 58.6
Q 13.35 58.5 13.3 58.35
L 13.4 58.55
Q 13.45 58.35 13.5 58.15
M 17.9 58.7
L 18.75 58.05 21.15 62.2 17.9 58.7
M 15.25 58.6
L 15.25 58.7
Q 14.85 58.15 15.25 58.6
M 17.7 56
L 16 55.8 17.1 54.75 17.7 56
M 17.25 57.8
L 16.7 56.95 17.9 57.2 17.25 57.8
M 15.95 58.7
L 15.85 57.45 16.7 58.6 16.35 59.45 15.95 58.7 16.1 59.45 15.75 58.2 15.95 58.7
M 17.3 60.6
L 17.4 59.65 20.9 63.05 17.3 60.6
M 27 76.8
Q 25.3 75.65 23.8 74.25 21.05 71.6 19.1 68.1
L 21.55 70.4
Q 25.35 73.3 29.95 75.4 30.4 75.55 30.85 75.75 34.6 76.9 38.5 77.6 42.25 78.45 46.15 78.85 48.4 79.25 50.7 79.7 52.35 79.85 54 80.05 51.05 81.2 48.15 81.55 44.05 82 40.1 81.65 37.7 81.2 35.4 80.6 33.3 80.1 31.35 79.15 29.05 78.2 27 76.8
M 76.3 51.85
Q 76.45 52.15 76.55 52.65
L 76.3 53.3 76.25 52 76.3 51.85
M 79.85 52.45
L 79.5 55.4
Q 79.3 53.75 79 52.15 78.35 48.9 79.5 45.6
L 79.85 52.45
M 76.7 55.25
Q 76.7 55.15 76.75 55.05 76.85 55.75 76.85 56.5 76.95 59.05 76.25 61.45 75.8 62.75 75.25 64 75.05 64.4 74.75 64.75
L 74.35 63.9
Q 75.8 61.05 76.15 58.1 76.35 56.65 76.7 55.25
M 72.5 51.35
L 72.95 54.05 72.8 54.85 71.5 56.05 71.15 53.3 72.5 51.35
M 73.45 50.9
L 73.25 50.1 73.5 49.35 73.45 50.9
M 72.15 57.15
L 71.55 58.75 71.55 57.6 72.15 57.15
M 72.85 61.35
L 73.3 60.8 73.2 61.9 72.85 61.35
M 72.15 60.35
L 73.25 57.45 73.3 58.9 72.15 60.35
M 78.15 57.35
L 78.35 59.45 77.85 60.65
Q 77.95 59.8 78.05 59 78.15078125 58.1814453125 78.15 57.35
M 66.3 55.4
Q 67.2 53.75 68.8 52.45 69.2 52.1 69.6 51.7
L 69.9 52.95 66.85 55.75 66.3 55.4
M 70.8 51.75
L 70.5 50.45 71.6 48.35 72.05 49.7 70.8 51.75
M 63.85 57.05
L 64.4 56.65 64.3 57.35 63.85 57.05
M 61.15 61.3
L 60.75 61.6 58.45 62.7 59.9 61.35 61.15 61.3
M 62.7 61.8
L 63.6 60.9 64.55 60.7 63.75 62.1 62.5 63.3 62.7 61.8
M 70.45 56.9
L 69.3 57.6 67.9 56.5 70.2 54.45 70.45 56.9
M 67 58.7
L 66.4 57.45 67.15 57 68.5 58.05 67 58.7
M 67.15 61.45
Q 67.35 60.75 67.3 60 67.3 59.9 67.3 59.85
L 69.4 58.9 70.4 59.85
Q 70.25 61.15 69.7 62.3 68.55 64.55 66.15 65.7 66.6 63.55 67.15 61.45
M 65.25 61.95
L 65.15 63.35
Q 64.1 64.25 62.9 64.5
L 63.05 64.4
Q 64.2 63.6 64.85 62.65 65.05 62.3 65.25 61.95
M 61.4 62.65
L 61.15 64.1 58.35 65 61.4 62.65
M 65.2 67.85
Q 65.2 67.8 65.25 67.8 65.95 67.3 66.65 66.9
L 64.85 68.9
Q 65 68.35 65.2 67.85
M 64.8 64.95
L 63.9 67 59.9 68.8 61.6 65.95 64.8 64.95
M 61.65 69.7
L 60.85 70.2 59.8 70.1 61.65 69.7
M 63.05 72.5
Q 64.05 72 65 71.4
L 67.05 71.35
Q 63.55 74.1 59.5 75.4
L 58.8 75.2
Q 59.7 74.3 60.95 73.65 62 73.05 63.05 72.5
M 67.45 69.25
L 69.8 68.75 68.55 70 66.5 70.25 67.45 69.25
M 70.5 70.85
L 69.9 71.75 67.25 73.45 69.45 71.05 70.5 70.85
M 68.35 68.3
Q 69.6 66.6 70.55 64.75 71.25 63.45 72.1 62.25
L 72.7 63.3 70.65 67.45 68.35 68.3
M 78.05 62.3
L 76.85 66.75 76.55 67.55 75.3 68.1 75.25 67
Q 76.55 64.45 78.05 62.3
M 73.35 67
L 74 66.55 72.65 68.9 73.35 67
M 75.15 69.45
L 75.75 69.3 74.75 70.9 75.15 69.45
M 71.65 68.4
L 71.2 69.5 70.65 69.65 71.65 68.4
M 73.95 69.95
L 72.55 72.6
Q 70.85 74.8 68.25 75.6 67.9 75.8 67.5 75.9
L 72.9 70.25 73.95 69.95
M 58.1 51.85
L 58.55 51.35 58.65 52.35 58.1 51.85
M 57.15 53.8
L 56.95 53.15 57.6 53.3
Q 57.35 53.55 57.15 53.8
M 59.8 50.7
L 59.7 49.9 60.75 51.05 59.8 50.7
M 51 52
L 53.1 50.8 52.75 51.35 51 52
M 52.05 55.15
L 51.65 55
Q 51.95 54.95 52.15 55.05
L 52.05 55.15
M 53.75 53.35
L 53.25 53.9 52.15 53.85 53.75 53.35
M 54.9 58.95
L 53.55 60.05 50 59.3 54.9 58.95
M 50.65 58.1
Q 52.45 57.5 54.35 57.25 55.1 57.05 55.9 57.2
L 55 57.65 50.65 58.1
M 58.55 59
L 59.1 58.1 59.95 57.85 58.55 59
M 55.85 59.25
L 56.15 58.75 56.65 58.7 55.85 59.25
M 57.15 61.4
L 58.2 61.4 57.6 61.95
Q 56.75 62.6 55.85 63.15 55.55 63.35 55.15 63.45
L 57.15 61.4
M 60.65 59.05
L 60.25 59.2 61.1 58.45 60.65 59.05
M 53.95 61.7
Q 54.8 61.6 55.7 61.55
L 53.05 63.6 48.6 63.45 48.1 62.4
Q 50.5 62.75 52.8 61.95 53.35 61.75 53.95 61.7
M 46.3 53.7
L 46.95 54.05 44.65 54.45 44.3 54 46.3 53.7
M 43.15 52
L 42.4 50.8 43.6 51.75 43.15 52
M 43.95 56.55
L 43.2 56.6 43 55.95 43.95 56.55
M 40.75 58.4
Q 41.2 58.4 41.6 58.65 41.65 58.6 41.65 58.8
L 40.75 58.4
M 42.95 61.2
L 42.95 61.35
Q 42.6 61.3 42.25 61.1
L 42.95 61.2
M 44 61.5
L 44.4 61.65 45.15 62.75 43.9 62.1 44 61.5
M 47 57.1
L 49.3 56.9 47.5 57.6 47 57.1
M 48.6 59.95
Q 49.3 60.2 50 60.6
L 47.25 60.3 46.95 59.55
Q 47.8 59.65 48.6 59.95
M 46.35 62.2
L 46.4 62.8 45.85 62.05 46.35 62.2
M 46.35 64.4
L 46.3 64.85 44.05 63.9 46.35 64.4
M 46.8 66.85
L 47.25 66.35 48.6 66.9 48.7 67.5 46.8 66.85
M 50.55 66.7
L 50.1 66.5
Q 50.45 66.55 50.65 66.65
L 50.55 66.7
M 41.5 65.75
L 41.2 66.75 40.15 65.5 41.5 65.75
M 42.05 67.55
L 42.6 66.45 44.6 68.55 44.3 68.9 43.6 69 42.05 67.55
M 40.7 69.1
L 41.3 68.6 41.95 69.2 40.7 69.1
M 41.3 70.2
Q 42.1 70.15 42.95 70.1
L 41.9 70.7 39.85 70.4
Q 40.55 70.3 41.3 70.2
M 41.5 72.55
L 41.35 72.4
Q 41.8 72 42.4 71.7 44.5 72.05 46.6 72.45
L 43.9 73.6 41.5 72.55
M 48.65 68.65
L 48.45 69.55 47.6 69.05 48.65 68.65
M 49.5 69.85
L 49.8 68.9 54.65 70.3
Q 52.6 70.45 50.55 70.6 50 70.3 49.55 69.95 49.5 69.95 49.5 69.85
M 47.35 68.1
L 46.65 68.3 46.35 67.7 47.35 68.1
M 47.85 71.05
L 46.4 71 44.75 69.85 45.85 69.5 47.85 71.05
M 46.2 73.9
L 47.5 72.95 49.85 74.1 46.2 73.9
M 48.3 72.2
L 49.25 72 51.75 73.45 51.35 73.6 48.3 72.2
M 60.2 66.15
L 60.2 66.2 58.6 68.6 52 67.15
Q 53.05 66.95 54.1 66.75 57.3 66.45 60.2 66.15
M 56.15 64.5
L 56.95 64.4 55.3 65.15 56.15 64.5
M 53.7 64.9
L 53.55 65 52.75 64.9
Q 53.3 64.85 53.7 64.9
M 55.2 71.6
L 53.85 71.5 56.05 71.05 55.2 71.6
M 55.3 73.85
L 54.4 73.4 60.65 71.9 59.65 72.85 55.3 73.85
M 57.25 71.5
L 57.95 70.9 59.05 71.05 57.25 71.5
M 50.95 67.7
L 57.85 69.5 50.2 68.05 50.95 67.7
M 53.5 78.35
Q 56.35 78 59.3 77.15 60 76.95 60.75 76.95
L 59.55 77.6
Q 56.65 79.2 53.35 78.8 52.55 78.7 51.75 78.65 52.6 78.5 53.5 78.35
M 54.6 75.1
L 52.25 75.75 49.95 75.35 54.6 75.1
M 47.85 75.8
L 49.35 76.2 46.2 76.3 46 76.2
Q 46.35 76.1 46.85 76.05 47.35 75.9 47.85 75.8
M 43.95 74.7
L 44.15 74.65 45.25 75.05 44.3 75.15
Q 44.05 74.95 43.95 74.7
M 65.05 76.15
L 64 76.15 67.3 74.55 65.05 76.15
M 64 78.15
Q 64.7 77.75 65.5 77.5 66.15 77.25 66.9 77.2
L 64 78.15 Z"/>
</g>
</defs>

<g transform="matrix( 1.16583251953125, 0, 0, 1.1898651123046875, -6.45,-6.35) ">
<use xlink:href="#Layer1_0_FILL"/>
</g>
</svg>
