
<svg xmlns="http://www.w3.org/2000/svg" version="1.1" xmlns:xlink="http://www.w3.org/1999/xlink" preserveAspectRatio="none" x="0px" y="0px" width="100px" height="100px" viewBox="0 0 100 100">
<defs>
<g id="Layer1_0_MEMBER_0_FILL">
<path fill="#000000" stroke="none" d="
M 74.55 42.8
Q 74.3 41.3 73.6 38.25 72.9 35.25 72.6 33.7 72.05 31 70.9 27.2 69.25 21.9 64.45 18.9 60.5 16.45 56.1 16.25 53.7 16.15 52.6 15.75 50.4 14.9 46.25 14.6 44.2 14.45 42.3 15.3 39 16.75 36.7 18.9 33.05 22.3 28.65 28.65 28.5 28.85 27.85 30.15
L 26.35 33.15
Q 24.6 36.55 24.5 40.25
L 24.4 51.5
Q 24.45 53.6 25.4 56.15 27.25 60.75 27.9 64.6 29.2 72.3 36.2 76.6 37.2 77.25 40.9 79.85 41.669140625 80.330859375 41.65 80.95 41.5267578125 80.95 41.1 80.95 40.75 80.95 40.5 81.2 42 82.65 44.7 83.25 46 83.5 47.2 84 49.1 84.7 49.7 84.85 56.4 86.7 61.25 82.85 63.4 81.1 67.6 77.4 68.65 76.45 69.35 75.45 73.55 69.25 74.85 62.3 75.1 60.95 75.25 58.75 75.45 55.75 75.5 55.15 75.9 50.25 74.55 42.8 Z"/>
</g>
</defs>

<g transform="matrix( 1.6920166015625, 0, 0, 1.22314453125, -34.05,-10.95) ">
<use xlink:href="#Layer1_0_MEMBER_0_FILL"/>
</g>
</svg>
