
<svg xmlns="http://www.w3.org/2000/svg" version="1.1" xmlns:xlink="http://www.w3.org/1999/xlink" preserveAspectRatio="none" x="0px" y="0px" width="100px" height="100px" viewBox="0 0 100 100">
<defs>
<g id="Layer1_0_FILL">
<path fill="#000000" stroke="none" d="
M 57.3 19.6
Q 52.2 20.05 47.8 22.85 43.25 21.65 38.75 23.4 35.45 24.8 33.05 27.35 29.4 31.15 27.05 36.05 26.1 38 25.3 39.8 23.4 44.05 22.95 48.65 22.7 51.2 22.65 53.75 22.6 55.8 22.65 57.9 22.75 62.35 24 66.55 25.65 71.9 28.7 76.7 32 82 37.15 85.65 39.5 87.35 42.3 88.15 45.2 88.95 48.15 88.75 51.2 88.15 53.85 86.5 58.1 83.75 61.55 80.35 62.8 79.15 64.5 78.4 66.25 77.55 67.95 76.55 68.8 76 69.5 75.25 70.55 74 71.55 72.7 73.7 68.45 73.3 63.7 73.2 62.7 73.1 61.7 74.6 59 75.25 55.95 75.7 53.65 76.4 51.4 77.4 48.15 77.5 44.9 77.55 42.05 76.95 39.3 76.35 36.65 74.95 34.1 73.85 32.15 72.9 30.2 72 28.4 71.05 26.7 69.35 23.65 66.05 21.7 62.1 19.3 57.3 19.6
M 45.9 23.4
Q 46.3 23.45 46.75 23.55
L 44.55 25.15
Q 39.15 25.2 34.8 28.3 32.1 30.2 29.7 32.65 32.35 28.3 36.65 25.6 40.85 22.9 45.9 23.4
M 47.85 23.8
L 49.75 24.45 46.5 25.25 45.8 25.2 47.85 23.8
M 59.4 24.55
Q 57.65 24.6 55.9 24.65
L 56.6 24.8 55.35 24.75 55.9 24.65
Q 53.55 24 51.3 23.65 50.05 23.7 48.85 23.2 53.75 20.4 59.25 20.55 62.7 20.7 65.75 22.55 69.4 24.65 71.15 28.6 71.45 29.25 71.7 30 68.95 27.35 65.45 25.95 62.5 24.75 59.4 24.55
M 55.75 25.1
Q 55.75 25.05 55.9 25.05
L 55.75 25
Q 56.5 25 55.9 25.05 56.05 25.1 56.05 25.15
L 55.9 25.15
Q 56.1 25.2 56.2 25.25
L 56.1 25.3
Q 55.85 25.25 55.75 25.15
L 55.9 25.15 55.75 25.1
M 56.45 25.5
L 55.9 25.55
Q 59.65 26.5 62.4 29.2 62.7 29.5 63.05 29.85 59.35 27.2 54.75 26.75
L 53.8 25.95 55.9 25.55 55.3 25.45 56.45 25.5
M 57.35 29.1
Q 56.7 28.65 56.2 28.1 57.2 28.25 58.25 28.45 61.35 29.45 63.7 31.35 65.75 32.95 66.7 35.6
L 66.3 35.2
Q 63.05 31.95 58.85 30 58.05 29.6 57.35 29.1
M 53.65 27.65
L 54.7 27.7 55.55 28.55
Q 55.3 28.5 54.95 28.4
L 53.65 27.65
M 51.3 25.25
L 51.95 25.6 50.45 26.2 48.7 25.65 51.3 25.25
M 52.35 26.6
L 51.6 26.65 52.85 26.2 53.4 26.65 52.35 26.6
M 51.8 30.45
L 50.95 30.3 51.45 30.15 51.8 30.45
M 53.1 28.8
L 50.85 28.85 49.35 27.95 53.1 28.8
M 53.45 30.85
L 52.8 30.05
Q 56 30.2 58.4 32.3 58.65 32.55 58.7 32.65 59.15 33.15 59.6 33.75
L 53.45 30.85
M 54.55 33.75
Q 54.85 34 55.15 34.25
L 46.9 31.6
Q 48.9 30.6 50.85 31.55 52.75 32.5 54.55 33.75
M 56.9 36.75
L 57.8 37.05 58.2 37.85 56.9 36.75
M 59.45 34.65
L 56.9 34.35 55.05 32.35 59.45 34.65
M 58.35 35.8
L 57.85 35.55 61.05 35.95 61.3 36.45 58.35 35.8
M 45.9 27.65
L 46.1 27.7
Q 45.3822265625 28.0828125 44.5 28.4 44.4283203125 28.60859375 44.2 28.7 44.1421875 28.7 44.1 28.7 44.22109375 28.5416015625 44.45 28.45
L 41.8 28.6
Q 42.45 28.1 43.15 27.85 44.4 27.6 45.7 27.6 45.8 27.6 45.9 27.65
M 45.65 26.65
L 46.2 26.3 48.95 26.95 45.65 26.65
M 47.3 29.9
Q 47 30 46.75 30.15 46.05 30.15 45.4 30.15
L 47.3 29.9
M 47.7 29
L 47.2 28.9 48.1 28.35 49.5 29 47.7 29
M 41.2 29.55
Q 41.9 29.45 42.65 29.35
L 39.7 30.8 40.35 30.05
Q 40.75 29.8 41.2 29.55
M 44.6 28.75
Q 45.15 28.85 44.5 28.8 44.55 28.75 44.6 28.75
M 43.05 26.35
L 42.95 26.45 36.55 28.1
Q 39.65 26.4 43.05 26.35
M 49 37.05
L 50.4 37.1 47.75 38.05 49 37.05
M 48.2 36
L 48.05 36.1 45.3 36.5 41.35 39.4
Q 41.65 38.85 42.05 38.4 44.7 35.85 48.2 36
M 48.4 34
Q 48.85 34.25 49.35 34.5
L 45.2 33.55 46.2 33.55
Q 47.35 33.4 48.4 34
M 47.45 34.95
Q 44.75 34.95 42.65 36.55 40.95 37.85 40 39.65
L 38.95 39.95 39.45 39 42.7 34.4 47.45 34.95
M 49.55 41.95
L 47.35 40.8 50.8 38.05 54.85 39.4 54.95 39.45
Q 54.8 39.6 54.6 39.75 52.8 40.65 51 41.5 50.3 41.75 49.55 41.95
M 47.9 38.8
L 48.6 38.45 46.5 40.45 46.35 40.4
Q 46.45 40 46.8 39.75 47.3 39.25 47.9 38.8
M 46.5 41.9
L 47.9 42.5 45.85 43.35 45.7 43.4
Q 46 42.7 46.5 41.9
M 43.2 39.55
L 42.55 39.45 43.9 38.45 43.2 39.55
M 41.4 40.75
L 42.55 40.8 40.35 44.85 39.35 45.15 40.25 42.7 41.4 40.75
M 43.2 43.3
L 44.5 41.15 43.15 44.8 42.65 44.7 43.2 43.3
M 44.6 45.95
L 45.4 46.15 44.65 46.45 44.6 45.95
M 41.55 48.6
L 42.75 46.9 42.65 47.75 41.55 48.6
M 45 47.4
Q 44.85 47.55 44.65 47.55
L 45.15 47.3
Q 45.1 47.4 45 47.4
M 44.1 48.65
L 45.2 48.5 46.1 51 44.7 51.4 44.2 50.5 44.1 48.65
M 50 44.15
L 49.15 45.25 47 45.6
Q 46.8435546875 45.5609375 46.8 45.55 47.2072265625 44.893359375 47.8 44.35 48.75 43.5 50 44.15
M 46.7 44.05
L 45.8 45.25 44.95 45 46.7 44.05
M 47.15 46.55
Q 47.55 46.55 47.85 46.75 48.15 46.95 48.15 47.2 48.15 47.45 47.85 47.65 47.55 47.85 47.15 47.85 46.75 47.85 46.45 47.65 46.15 47.45 46.15 47.2 46.15 46.95 46.45 46.75 46.75 46.55 47.15 46.55
M 46.25 48.6
L 47.25 48.6 46.75 50.15 46.25 48.6
M 50.1 48
L 49.3 48.55 48.5 48.2 48.85 47.4 50.1 48
M 48.1 49.1
L 48.55 49.3 47.8 50.25 47.6 50.7 48.1 49.1
M 57.05 38.3
L 56.95 38.4 56.15 37.45
Q 56.65 37.85 57.05 38.3
M 58 38.9
L 60.2 41.35
Q 59.75 40.9 59.35 40.5 58.65 39.7 58 38.9
M 55.3 37.65
L 54.5 37.3 54.25 36.95 55.3 37.65
M 50.95 42.95
L 50.75 42.7 51.2 42.7 50.95 42.95
M 54.1 41.2
L 55.65 40.15 56.35 41.25 54.1 41.2
M 50.65 44.55
L 51.3 45.1 51.4 45.2
Q 50.8 45.3 50.15 45.25
L 50.65 44.55
M 52.95 44.65
Q 52.25 44.05 51.6 43.45
L 52.55 42.45 56.95 42.3 58.6 48.15
Q 56.5 46.65 54.4 45.55 53.6 45.25 52.95 44.65
M 52.7 47.55
L 51.15 47.6 49.3 46.55 52.25 46.4 52.7 47.55
M 54.65 49.3
Q 54.3 48.8 53.95 48.1 53.55 47.4 53.3 46.65 54 47.35 54.6 48.2 55.8 49.75 56.9 51.45
L 55.25 50.95 54.65 49.3
M 59.65 48.95
L 58.5 43.7
Q 60.7 46.85 61.35 50.65
L 59.65 48.95
M 55.55 47.4
L 58.7 49.35 58.65 51.9 56.1 48.05 55.55 47.4
M 50.15 49.1
L 51.05 48.7 52.8 49.85 52.6 50.55 51.9 50.45 50.15 49.1
M 61.35 33.15
Q 63.3 34.25 64.6 36.15
L 62.2 35.3 59.65 32.25
Q 60.5 32.65 61.35 33.15
M 63.55 36.95
Q 63.25 36.75 63 36.55
L 64.6 37.15 65.45 37.6 65.7 38.25
Q 64.6 37.8 63.55 36.95
M 68.1 34.65
Q 67.15 33.55 66.2 32.5 65.5 31.6 64.85 30.75 62.3 27.3 58.3 25.45 63.3 25.65 67.65 27.9 70.4 29.45 71.7 32.05 72.85 34.45 73.1 37.2 73.4 40.35 73.45 43.6
L 72.85 42.65
Q 71.3 38.3 68.1 34.65
M 70.75 40.15
L 69.05 38.6 67.45 34.9 70.75 40.15
M 68.95 41.55
L 67.25 38.55 68.25 39.2 68.95 41.55
M 67.25 42
L 67.25 41.2 68 43.3 67.25 42
M 61.65 38.2
L 62.25 38.2 63 39.5 61.65 38.2
M 62.85 42.5
Q 62.2 41.9 61.65 41.25
L 59.8 38.4
Q 61 39.1 62.15 39.95 62.95 40.5 63.55 41.35 64.45 42.7 65.3 44.1 64 43.35 62.85 42.5
M 65.15 40.45
L 65.45 40.85 66.05 42.25
Q 65.6 41.35 65.15 40.45
M 63.95 44.25
L 64.95 44.95 65.4 45.4 65.15 46.1 63.95 44.25
M 64.95 48.45
L 65.2 48.1
Q 65.85 49.4 66.3 50.85 66.5 51.5 66.5 52.25
L 64.95 48.45
M 70.75 44.65
L 70.5 44.2 70.4 43.5 70.75 44.65
M 68.25 46.55
L 66.9 44.3 67.1 43.65 68.25 46.55
M 66.05 46.6
L 66.25 48.1 65.75 47.15 66.05 46.6
M 70.95 41.6
L 71.85 42.8 72.85 46.1 70.95 41.6
M 72.45 49.05
L 72.25 47.55
Q 72.4 48.25 72.5 49
L 72.45 49.05
M 76.15 39.85
Q 76.85 44.3 76 48.7 75.8 49.8 75.5 50.85
L 74.15 44.8
Q 74.3 41.95 74.25 39.1 74.2 36.45 73.9 33.85 75.6 36.55 76.15 39.85
M 38.75 29.7
L 38.9 29.6
Q 38.65 29.7 38.5 29.7
L 38.65 29.6
Q 38.9 29.5 39 29.5
L 38.9 29.6
Q 39.15 29.5 39.25 29.5
L 39.15 29.6
Q 38.9 29.7 38.75 29.7
M 38.75 30
L 38.9 29.9
Q 39.15 29.8 39.25 29.8
L 39.15 29.9
Q 39.35 29.85 39.45 29.85
L 39.4 29.9
Q 39.15 30 39 30
L 39.15 29.9
Q 38.9 30 38.75 30
M 38.9 29.35
L 37.05 30.2
Q 38.9 29.05 40.75 27.9
L 38.9 29.35
M 32.95 34.55
Q 31.8 35.75 30.6 36.85 30.35 37.1 30.1 37.35
L 33.15 33.95 33.55 33.6
Q 33.3 34.1 32.95 34.55
M 35.5 32.25
Q 35.95 31.8 36.55 31.45
L 34.6 33.5
Q 35 32.85 35.5 32.25
M 37.45 35.5
L 39.8 34.8 35 42.6
Q 35 41.95 35.1 41.35 35.4 39.8 35.9 38.35 36.15 37.65 36.45 37
L 37.45 35.5
M 38.05 31.4
Q 37.7 31.65 37.25 31.85
L 39.15 30.15
Q 38.65 30.8 38.05 31.4
M 37.4 28.75
Q 34.9 31.4 32.1 33.95 28.35 37.45 26.2 42.25
L 26.9 38.85
Q 28.8 34.15 32.85 31.15 34.95 29.6 37.4 28.75
M 28.15 41.35
Q 29.05 40.05 30.05 38.8 27.75 43.1 26.25 47.5
L 26.05 45
Q 27.05 42.95 28.15 41.35
M 23.65 48.6
L 24.35 45
Q 24.35 45.75 24.2 46.5 24 47.55 23.65 48.6
M 38.2 41.8
L 39.25 41.1 38.15 45.45 36.45 47.25 38.2 41.8
M 30.45 41.25
Q 30.7 40.6 31.2 40.05 29.6 44.9 29.15 49.85
L 29.1 48.6
Q 29 44.75 30.45 41.25
M 33.75 40.5
L 34.9 37.95 33.7 44 32.65 45.65 33.75 40.5
M 31.75 42.4
Q 32.4 41.25 33 40.05 32.3 42.85 31.7 45.7 31.3 47.6 31.05 49.5
L 30.85 47.55
Q 30.45 44.8 31.75 42.4
M 33.75 45.6
Q 33.95 46.7 33.7 47.95 33.35 49.6 33.05 51.25
L 32.6 48 33.75 45.6
M 39.05 46.15
L 40 45.85 39.05 49.65 39.05 46.15
M 37.55 47.2
Q 37.55 47.9 37.45 48.65 37.05 52.3 37.35 55.8
L 37 56.2 35.75 52.5
Q 35.8 50.2 36.85 48.3 37.2 47.75 37.55 47.2
M 34.85 48.25
L 36.25 44.15 35.05 49.5 34.85 48.25
M 38.45 53.45
L 38.15 54.2 38.2 51.65 38.45 53.45
M 31.55 52.45
L 31.8 50.75
Q 32.95 53.35 33.3 56.6 33.4 57.4 33.55 58.25
L 31.55 52.45
M 38.55 56.95
Q 38.5 56.55 38.65 56.15
L 39 59.95
Q 38.7 58.45 38.55 56.95
M 36.15 61.1
L 36.2 59.75 36.55 61.6 36.15 61.1
M 37.8 60.9
L 37.95 61.05
Q 38.05 61.15 38.15 61.25
L 38.5 61.55 39.3 63.7
Q 38.5 62.25 37.8 60.9
M 40.35 61.5
L 39.85 58.85 41.6 62.75 40.5 62 40.35 61.5
M 36.9 58.8
Q 36.8845703125 58.7845703125 36.85 58.75 36.7515625 57.9138671875 36.9 58.8
M 32.6 59.7
L 31.3 55.5 35.15 63.95
Q 34.5 63 33.9 62.05 33.2 60.9 32.6 59.7
M 27.4 52.65
L 27.05 51.55 27.65 46.4 27.4 52.65
M 23.55 53.85
L 24.2 50.2
Q 23.85 54.45 24.9 58.7 25.25 60.05 25.65 61.4 24.95 59.55 24.45 57.7 23.9 55.8 23.55 53.85
M 23.55 59.2
Q 23.5 58.7 23.5 58.25 24.85 62.6 27.85 66.35 29.95 69.05 32.65 71.6 35.6 74.4 39.25 76.05 40.8 76.8 42.3 77.75 45.4 79.75 49 80.95 53.15 82.4 57.45 81.4 58.2 81.15 59 80.9 58.75 81.2 58.5 81.5 56.5 83.85 53.9 85.4 50.75 87.35 46.85 87.7 41.8 87.9 37.85 84.85 34.7 82.35 32 79.5 30.7 78.1 29.65 76.55 27.2 72.55 25.65 68.2 24.1 63.8 23.55 59.2
M 27.8 59.55
Q 27.55 58.75 27.3 57.95
L 26.9 55.85
Q 28.4 59.65 30.35 63.15 31.25 64.8 32.25 66.4 33.75 68.95 35.7 70.9 35.3 70.8 35.1 70.55 33.55 69.1 32.25 67.5 29.3 63.95 27.8 59.55
M 26.35 56.7
Q 26.6 58.45 27.15 60.25 28.4 64 30.95 67.2 31.75 68.25 32.6 69.35
L 28.8 66.05
Q 26.4 62 25.5 57.2 24.8 53.75 25 50.35 25.95 53.35 26.35 56.7
M 37.35 64.4
L 37.4 63.75
Q 40 66.1 42.4 68.6 42.6 68.75 42.75 69 39.55 67.25 37.35 64.4
M 35.5 72.45
Q 36.05 72.9 36.5 73.45
L 31.95 70
Q 33.85 71 35.5 72.45
M 72.85 51.35
Q 73 51.85 73.05 52.35 73.35 54.6 73 56.6
L 72.85 51.35
M 71.3 53.55
L 71.05 53 71 47.65
Q 71.9 49.9 71.6 52.15 71.5 52.85 71.3 53.55
M 74.5 50.45
Q 74.6 51.9 74.55 53.35
L 74.2 47.65
Q 74.4 49.05 74.5 50.45
M 71.05 59.25
L 71 56.3
Q 71.2 56.8 71.2 57.35 71.2 58.3 71.05 59.25
M 67.95 50.35
L 67.75 51.4 67.45 50.6 67.3 48.85 67.95 50.35
M 67.45 55.3
L 67.8 54.35 67.75 57.15 67.45 55.3
M 69.1 55.4
L 69.1 51.5 69.35 56.2 69.1 55.4
M 64.1 54.55
L 63.75 53.85 63.65 50.75
Q 63.9 52.3 64.05 53.85 64.1 54.2 64.1 54.55
M 61.55 52.2
L 61.7 54.7 60.25 53.3 61.55 52.2
M 64.25 58.05
L 64.3 57.9
Q 64.5 58.3 64.65 58.9 64.45 58.75 64.4 58.6 64.25 58.35 64.25 58.05
M 62.8 57.9
L 63.05 58.4 61.85 60.7 62 60.1 62.8 57.9
M 63.4 59.95
L 63.35 61 60.05 65 60.45 64.05 63.4 59.95
M 65.95 56.6
L 65.85 56.75
Q 65.75 56.5 65.75 56.1
L 65.25 52.75 65.95 56.6
M 66.15 59.35
L 66.15 61.85
Q 66.05 61.95 66.05 62.05 65.9 61.15 65.85 60.2
L 66.15 59.35
M 69 64.7
Q 68.6 66 67.75 67.25 67.5 67.6 67.15 67.95
L 69.1 63.5 69 64.7
M 67.1 64.45
L 68.3 63.4 66.85 66.75 67.1 64.45
M 63.15 62.65
L 62.85 64.15 61.55 64.65 63.15 62.65
M 60.9 67.45
L 60.85 67.5 55.4 70
Q 56.35 68.85 57.95 68.25 59.4 67.7 60.9 67.45
M 62.5 65.2
L 61.95 66.1 59.4 66.8 60.35 65.85 62.5 65.2
M 63.35 68.7
L 63.3 68.85 62.15 71.05 59.9 71.9
Q 61.65 70.2 63.35 68.7
M 65.35 69.25
L 64.3 69.95 65.35 66.7 66 65.95 65.35 69.25
M 68.35 70.9
Q 68.85 69.65 69.45 68.45 70.1 67.2 70.85 66 71.6 64.85 72.3 63.65 72.6 68.5 70.5 72.75 69 75.7 65.9 76.9 64.9 77.25 63.95 77.65
L 65.5 75.9
Q 67.25 73.65 68.35 70.9
M 64.8 73.7
Q 65.7 71.55 67.75 70.15 66.35 74 63.6 76.9
L 62.6 77.85
Q 63.9 75.95 64.8 73.7
M 59.7 52.7
L 59.75 50.2 61.05 51.55 59.7 52.7
M 58 53.9
L 57.3 54.25 56.1 52.25 57.55 52.85 58 53.9
M 57.65 55.05
L 58.2 54.75 58.05 55.8 57.65 55.05
M 53.2 51.8
L 54.5 51.8 54.3 53.15 53.2 51.8
M 54.35 55.05
L 54.65 55.6 53.6 55.95
Q 50.8 57 48 57.2 47.1 57.15 46.25 57.15
L 46.6 54.25 49.25 54.45
Q 50.3 54.95 51.45 55.25 52.45 55.4 53.55 55.4 53.95 55.2 54.35 55.05
M 55 54.25
L 55.4 52.75 56.5 54.7 55.55 55.15 55 54.25
M 53.8 54.15
L 52.35 54.45 50.6 54.05 52.45 52.75
Q 53.1 53.45 53.8 54.15
M 57.25 60.8
L 57.65 60.2 57.4 62.95 57.25 60.8
M 58.65 60.8
L 58.55 58.95 58.75 57.45 58.65 60.8
M 59.7 60.7
Q 60.45 58.35 59.85 55.7 59.7 54.9 59.5 54.1
L 61.65 56.1
Q 61.65 59.45 59.9 62.15 59 63.5 58.1 64.9
L 59.7 60.7
M 57.4 57.8
L 56.9 58.85 55.9 55.95 56.85 55.5 57.4 57.8
M 55 56.35
L 56.2 60.3
Q 54.85 62.5 52.8 64.1 49.25 62.9 46.95 59.85
L 46.15 58.7 46.15 58.1
Q 50.75 58.35 55 56.35
M 49.35 49.7
L 50.55 50.45 48.8 50.55 49.35 49.7
M 48.05 53.45
L 46.85 53.2 47.2 52.5 48.05 53.45
M 49.6 53.45
L 48.35 52.45 48.05 51.8
Q 48.15 51.7 48.3 51.6 50.35 51.25 52 51.75
L 49.6 53.45
M 46.2 51.95
L 45.95 52.75 45.25 52.15 46.2 51.95
M 41.1 52.85
L 41.2 50.65 42.4 49.3
Q 42.5 49.85 42.6 50.45 42.75 51.2 42.85 52
L 41.1 52.85
M 41.05 53.9
L 43 52.95 43.55 56.55 41.1 55.05 41.05 53.9
M 43.95 52.6
L 44.35 52.45 45.75 53.75 45.3 57 44 53.05 43.95 52.6
M 41.25 56.3
L 43.75 57.7 45.9 65.1 43.55 63.9 41.8 58.7 41.25 56.3
M 45.95 67.15
L 46.6 67.15 46.9 67.75 45.95 67.15
M 48.35 66.05
L 47.8 65.85 46.4 62.85 46.15 60.25
Q 48.15 62.55 50.65 63.95 51.25 64.35 51.9 64.7
L 48.35 66.05
M 41 63.65
Q 41.8 64.1 42.5 64.7 42.8 64.9 43 65.25 43.15 65.5 43.3 65.8
L 42.5 65.6 41 63.65
M 42.9 67.65
L 42.55 66.95 44.9 69.1 42.9 67.65
M 44.85 66.1
L 44.35 65.45 45.85 66.15 44.85 66.1
M 43.8 67
Q 43.65 66.55 43.9 67.1
L 43.8 67
M 42 69.6
L 41.5 69.4 41.35 69.25
Q 41.6 69.35 42 69.6
M 42.85 73.65
L 43.4 73.65 46.6 75.4 42.85 73.65
M 49.55 69.85
L 49.4 69.9 48.8 69.5
Q 49.25 69.65 49.55 69.85
M 47.15 71.95
L 47.2 72
Q 45.9 71.95 47.15 71.95
M 48.2 68.35
L 48.05 68.3 47.65 67.35
Q 48 67.85 48.2 68.35
M 49.7 68.65
L 48.6 67.15 53.4 68.1
Q 52.45 68.35 51.55 68.65 51.1 68.65 50.65 68.65 50.15 68.65 49.7 68.65
M 56.3 62.2
L 55.85 65 53.95 64.55 56.3 62.2
M 55.55 65.85
L 54.75 67.25 50.15 66.55 51.15 66.2 53.05 65.2 55.55 65.85
M 59.45 69.2
L 58.75 69.95 54.3 71.25 59.45 69.2
M 57.85 72.45
L 57.2 72.5 59.1 71.55 58.45 72.3 57.85 72.45
M 58.3 73.65
Q 59.45 73.35 60.35 73.25
L 60.15 73.5
Q 59.1 73.7 58.15 73.75
L 58.3 73.65
M 50.4 74.05
L 53.05 74.05 51.6 74.8 50.4 74.05
M 56.4 77.9
Q 56 77.85 55.7 77.7
L 55.85 77.65
Q 57.85 77.05 59.6 76.1 60.7 75.55 61.8 75 62.85 74.35 63.85 73.65
L 61.3 78.15 56.4 77.9
M 59.2 79
Q 59.95 79 60.7 79.05
L 56.95 80.45
Q 53 81.35 49.25 80.05 48.3 79.7 47.35 79.4 49.05 79.35 50.7 79.05 52.5 78.85 54.25 78.35 56.7 79 59.2 79
M 51.25 76.9
L 51.05 76.9 50.25 76.6 50.7 76.65
Q 51.05 76.8 51.25 76.9
M 51.7 76.7
L 51.2 76.65 50.45 76.35 50.95 76.4 50.45 76.2 51.25 75.9 52.5 76.5 50.95 76.4 51.7 76.7
M 55.3 75.15
L 53.1 75.1 54.2 74.5 55.7 74.85 55.3 75.15
M 48.95 75.6
L 49.05 75.6 46.8 74.5 49.8 75.3 49.05 75.6
Q 49.45 75.85 48.95 75.6
M 45.35 76
L 44.55 75.95
Q 42.5 75.45 40.85 74.15 40.25 73.7 39.7 73.3 42.65 74.4 45.35 76 Z"/>
</g>
</defs>

<g transform="matrix( 1.578338623046875, 0, 0, 1.251495361328125, -28.4,-14.55) ">
<use xlink:href="#Layer1_0_FILL"/>
</g>
</svg>
