
<svg xmlns="http://www.w3.org/2000/svg" version="1.1" xmlns:xlink="http://www.w3.org/1999/xlink" preserveAspectRatio="none" x="0px" y="0px" width="100px" height="100px" viewBox="0 0 100 100">
<defs>
<g id="Layer1_0_FILL">
<path fill="#000000" stroke="none" d="
M 67.65 22.35
Q 66.1 21.7 64.65 21 63.6 20.45 62.65 19.8 58.3 17 53.2 17.05 49.3 17.05 45.8 18.7 42.05 20.45 38.6 23.05 36.25 24.9 33.75 26.6 31.35 28.2 29.15 30.05 28.45 30.65 27.85 31.3 24.65 34.8 22.7 39 21.7 41.1 21.3 43.35 20.9 45.7 20.85 48.15 20.75 52.85 21.65 57.55 22.1 60.1 23.9 62.2 24.7 63.15 25.3 64.25 25.9 65.4 26.4 66.7 27.35 69.3 29.3 71.05 30.4 72 31.65 72.8 32.75 73.5 34 74.05 38.4 75.7 43.25 76.45 45.05 76.75 46.9 77.05 51.95 77.3 56.45 75.15 58.75 74.15 60.9 72.75 61.9 72 63.15 71.55 65.25 70.75 67.3 69.75 69.7 68.55 71.6 66.6 74.7 63.5 76.35 59.35 78.05 55.1 78.15 50.35 78.15 49.45 78.35 48.65 78.6 47.55 79.05 46.45 80.9 42.25 80.2 37.75 79.6 33.95 76.7 31.25 74.85 29.8 73.75 27.8 71.65 23.95 67.65 22.35
M 61 23.45
L 60.85 23.35
Q 61.3 23.4 61.9 23.6
L 61 23.45
M 47.3 23.8
L 43.8 24.6 48.55 23.2 47.3 23.8
M 46.85 20.75
Q 44.15 21.55 41.45 22.35 45.65 19 50.95 18.1 55.5 17.5 59.7 19.35 60.95 19.8 62.2 20.4
L 55.55 19.6
Q 51 19.5 46.85 20.75
M 51.15 22.7
Q 51.9 22.9 50.85 22.85 51 22.75 51.15 22.7
M 51.45 22.6
L 51.25 22.6
Q 52.05 22.4 51.45 22.6
M 51.65 22.25
L 50.7 22.45 50.55 22.45
Q 50.75 22.3 51.1 22.2 46.25 22.15 42 24.35 39.7 25.6 37.3 26.65 42.35 22.6 48.8 22.1 51 21.65 53.3 21.65
L 51.1 22.2 51.65 22.25
M 52.95 23.6
L 52.8 23.6
Q 53.2 23.5 53.8 23.45
L 52.95 23.6
M 55.85 21.15
L 56.45 21.3 55.35 21.2 55.85 21.15 53.1 20.65 59.2 20.85 55.85 21.15
M 57.8 22.2
L 57.95 22.2
Q 58.2 22.3 58.35 22.4
L 58.25 22.4
Q 58.3 22.4015625 58.3 22.45
L 58.2 22.45
Q 58.45 22.55 58.6 22.65
L 58.5 22.65
Q 58.25 22.55 58.1 22.45
L 58.2 22.45 58.1 22.4
Q 58.15 22.4 58.25 22.4 57.95 22.3 57.8 22.2
M 57.75 21.95
L 58.2 21.95
Q 59.15 21.8 60.1 21.7 62.4 21.95 64.7 22.2
L 68.15 25.65
Q 64.8 23.9 61.25 22.75 59.75 22.2 58.2 21.95 58.5 22.1 58.65 22.2
L 58.45 22.2 57.75 21.95
M 57.9 22.65
L 58 22.65 58.7 22.95
Q 58.25 22.8 57.9 22.65
M 55.75 21.55
L 55.6 21.5
Q 56.2 21.25 55.75 21.55
M 52.25 29.5
L 52.55 29.45 52.95 29.6 52.25 29.5
M 53.65 29.5
L 53.05 29.45
Q 53.1 29.4 53.2 29.4 53.4 29.4 53.65 29.5
M 54.65 34
Q 54.55 33.9 54.5 33.85 55.15 33.85 54.65 34
M 52 33
L 51.25 33.25 50.5 32.9 52 33
M 52.15 35.6
L 53.25 35.5
Q 57.9 38.85 59.05 44.3 59.45 46.05 58.85 47.7 57.85 50.5 56.05 52.95 54.15 55.5 52.05 57.65
L 52 57.4
Q 51.95 57.35 51.85 57.3 51.6 56.95 51.35 57.5 51 58.2 50.85 58.95 46.65 62.9 40.75 61.6 37.55 57.25 36.45 52.05 38.7 45.1 44.15 40.25 47.35 37.45 51.35 35.9 51.45 35.9 51.55 36.1 51.6 36.15 51.6 36.2 52 36.45 52.15 36.1
L 52.15 35.6
M 57.85 33.25
L 56 32.85 56.7 32.6 57.85 33.25
M 56.3 34.3
L 56.3 34.35 56.25 34.3 56.3 34.3
M 56 35.45
L 56.8 35.5 58.5 39 56 35.45
M 55.75 36.5
L 56.05 36.85 54.45 35.4
Q 55.1 35.95 55.75 36.5
M 58.15 35.65
L 59.25 35.8
Q 59.95 36.9 60.5 38.15 60.85 38.85 61.05 39.7
L 58.15 35.65
M 46.45 28.55
L 47.05 28.7 45.9 28.8 46.45 28.55
M 50.05 33.65
L 46.05 36.05 41.85 37.9
Q 43.6 36.4 45.5 35.1 47.15 34.05 48.95 33.2
L 50.05 33.65
M 46.95 36.7
Q 47.55 36.45 48.25 36.3
L 42.6 40.5
Q 39.3 43.7 37.3 47.85 36.85 48.7 36.45 49.6 37.45 43.9 41.55 40.3 44.05 38.1 46.95 36.7
M 41 39.25
L 42.6 38.4 40.15 40.45 41 39.25
M 72.55 27.6
Q 71.9 27.25 71.35 26.85 69.95 25.9 68.7 24.85 67.75 24 66.9 23.1 70.2 24.75 72.55 27.6
M 71.25 28.25
Q 72.05 28.65 72.95 29.15
L 73.45 29.6 71.35 28.35 71.25 28.25
M 71.55 34.2
L 71.7 35.45 70.55 33.95 69.65 32.25 71.55 34.2
M 74.95 35.1
L 74.2 34.1 72.65 30 74.3 31.35 74.95 35.1
M 78.4 37.1
Q 77.85 35.25 77.1 33.5
L 76.05 31.6
Q 79.7 35.5 79.3 40.95 78.95 39 78.4 37.1
M 75.6 32.75
Q 76.15 34.4 76.65 36.1 77.25 38.15 77.1 40
L 76.05 37.1 75.6 32.75
M 67.45 26.75
Q 67.05 26.75 66.55 26.65
L 65.25 26.05 67.35 26.65 67.45 26.75
M 69.35 30.4
L 67.7 29.75 65.65 27.3
Q 68.55 28.1 70.35 30.65
L 70.45 30.8
Q 69.95 30.7 69.35 30.4
M 61.65 27.2
L 60.85 27.05 60.4 26.8 61.65 27.2
M 64.9 35.8
Q 64.75 35.25 64.65 34.7 65.3 35.2 65.7 35.9 66.3 36.95 66.65 38.15 65.3 37.35 64.9 35.8
M 70.65 39.55
L 70.65 39.4
Q 70.8 39.8 70.95 40.3
L 70.65 39.55
M 62.35 42.55
L 63.05 39.9
Q 65.55 43.5 65.65 47.9 65.7 49.6 64.85 51.3 64.25 52.45 63.45 53.55 63.6 51.9 63.6 50.25 63.65 48.55 63.5 46.9
L 62.35 42.55
M 62.25 38.85
L 62.05 40.2 61.5 37.95 62.25 38.85
M 62.5 37.25
L 62.4 37.85 60.8 36.15 62.5 37.25
M 63.75 39.65
L 63.2 38.9 63.35 37.9
Q 64.15 39.1 64.75 40.4 65.6 42.4 66.25 44.55
L 63.75 39.65
M 61.5 46.25
L 61.35 45.65 61.55 45.1 61.5 46.25
M 61.1 48.65
L 61.15 48.85 61.05 49.35
Q 61.05 48.9 61.1 48.65
M 62.15 46.95
Q 62.25 46.15 62.3 45.4 62.95 48.9 62.6 52.15 62.5 52.95 62.4 53.75
L 62.35 52.1
Q 61.75 49.5 62.15 46.95
M 61.45 42.6
L 60.95 44.25 59.15 38.25 61.45 42.6
M 74.95 37.75
Q 74.8 37.55 74.65 37.4
L 74.5 36.8 74.95 37.75
M 71.9 42.85
L 71.85 42.7
Q 72.1 42.25 71.9 42.85
M 76.3 44.7
L 75.9 43.4 75.75 39.85
Q 77 42.3 76.3 44.7
M 38.3 27.2
L 37.45 28 35.25 28.65 38.3 27.2
M 32 32.1
L 31 33.9 29.95 35.05 32 32.1
M 35.8 29.45
L 33.15 31.7 34.4 29.8 35.8 29.45
M 37 25.35
L 34.85 27.8 28.5 31.6
Q 32.25 27.65 37 25.35
M 30.65 31.9
L 32.25 30.5 26.4 39.15
Q 27.75 35.05 30.65 31.9
M 26.1 35.05
Q 27.15 33.6 28.7 32.45
L 29.7 31.8
Q 26.25 35.55 24.55 40.5 23.75 42.75 22.5 44.85 23 39.45 26.1 35.05
M 23.6 46
L 24.2 44.55 24.6 43.8 23.6 46
M 39.7 39.2
L 40.3 38.35 41.35 37.35 39.7 39.2
M 38.45 41.2
L 39.3 40.45
Q 39 40.95 38.6 41.35 38.55 41.3 38.45 41.2
M 37.6 38.4
Q 37 39.4 36.35 40.4 35.95 41.05 35.3 41.6 35 41.85 34.75 42.15 36.2 38.7 39.05 36.65
L 37.6 38.4
M 37.65 42.85
Q 38 42.4 38.4 42 37.5 43.7 36 45.4
L 36.05 45.25
Q 36.8 44 37.65 42.85
M 33.25 46.8
L 33.95 44.2 35.3 42.65 33.25 46.8
M 34.85 52.8
L 35.25 50.55 34.85 55.65 34.85 52.8
M 32.75 61.5
L 32.1 60.85
Q 31.95 60.35 32.65 61.1 33 61.6 32.75 61.5
M 39.6 61.45
L 38.15 61.15 36.3 59.8
Q 36 57.9 35.9 55.95 35.85 54.95 36 53.95 37.2 58 39.6 61.45
M 30.05 54.55
L 29.9 54.05
Q 30.05 54.4 30.25 54.8 30.3 54.9 30.4 55.1 30.2 54.8 30.05 54.55
M 22.95 52.8
L 23.65 49.55 23.4 54.65 22.95 52.8
M 24.8 57.5
L 24.55 57.1 24.3 53.6 24.8 57.5
M 23.6 56.9
L 23.7 57.35 23.05 55.65 23.6 56.9
M 26.2 61.1
L 25.8 60.65 25.75 60.1 26.2 61.1
M 26.75 65.4
L 28 66.55
Q 29.3 69.4 31.5 71.7 31.65 71.85 31.85 72.05 28.1 69.6 26.75 65.4
M 33.1 63.1
L 32.75 62.5 33.6 63.3
Q 33.35 63.2 33.1 63.1
M 31.95 67.35
L 31.65 66.9 32.35 67.5 31.95 67.35
M 32.75 68.5
L 33.45 68.65 34.55 69.65 33.25 69.15 32.75 68.5
M 38.3 70.7
L 38.15 70.55
Q 38.35 70.6 38.7 70.75
L 38.3 70.7
M 35.85 73.05
Q 36.7 73.55 37.55 74.15
L 35.7 73.7
Q 32.8 72.35 31.05 69.9 30.6 69.3 30.2 68.7 32.6 71.3 35.85 73.05
M 39.4 71.8
L 39.7 71.8 39.7 71.85
Q 39.55 71.85 39.4 71.8 39.75 71.95 39.95 72.1
L 39.8 72.05 39.9 72.1
Q 39.8 72.1 39.65 72.05 40 72.2 40.2 72.35
L 40.05 72.3 40.55 72.55 39.8 72.3 40.25 72.55 39.55 72.3 40 72.55 39.05 72.15 39.55 72.3 39.1 72.05 39.8 72.3 39.35 72.05 40.05 72.3 39.65 72.05 39.55 72
Q 39.65 72 39.8 72.05
L 39.4 71.8
M 37 71.3
L 39.35 72.4 34.55 70.7 37 71.3
M 39.9 74.9
L 40 74.9
Q 39.878515625 74.8595703125 39.8 74.75 39.8474609375 74.8 39.9 74.8 40.05 74.85 40.1 74.9
L 40 74.9
Q 40.6 75.15 39.9 74.9
M 40.4 74.8
L 39.9 74.55
Q 40.35 74.65 40.6 74.8
L 40.4 74.8
M 76.6 53.75
L 77.1 52 76.1 57 76.6 53.75
M 71 54.85
L 71.75 53.95 70.45 56.25 71 54.85
M 71.75 52.6
L 72.5 50.25 73.05 49.15
Q 72.4 50.85 71.75 52.6
M 74 60.2
L 74.5 58.5 74.8 58 74 60.2
M 73 59.1
L 73.65 58.2 72.7 59.9 73 59.1
M 61.4 50.95
L 61.45 55.3 58 57.65 59.7 55 61.4 50.95
M 62.1 61.75
L 64.45 59
Q 64.25 59.4 63.95 59.75 63.1 60.8 62.1 61.75
M 68.15 60.6
L 68.75 59.85 69.15 59.6 68.15 60.6
M 66.7 63.1
L 66.6 63.1
Q 67.15 62.45 67.85 61.85
L 66.7 63.1
M 68.55 64.95
L 66 67.7 63.8 68.75 68.55 64.95
M 62.9 67.05
L 64.3 66.1 64.05 66.6 62.9 67.05
M 61.45 70.4
L 61 70.9 58.4 71.7
Q 59.3 71.2 60.25 70.85 60.8 70.55 61.45 70.4
M 63.65 69.65
L 62.9 70.15 62.75 70.2
Q 62.8 70.1 62.95 69.9
L 63.65 69.65
M 67.2 69.1
Q 66.5830078125 69.387890625 66 69.7 68.749609375 68.1525390625 70.95 66 71.4 65.5 71.85 65.05 70.05 67.55 67.2 69.1
M 65.35 65.95
Q 66.1 64.25 67.65 63.15 68.9 62.3 69.95 61.25 71 60.25 72 59.2
L 66.85 65.1 65.35 65.95
M 68.75 66
L 71.05 62.85 72.85 60.9
Q 71.55 64.05 68.75 66
M 56.2 54.35
Q 57.5 52.7 58.7 50.95 57.5 54.45 55.1 57.05 53.95 58.35 52.65 59.55 52.15 59.95 51.65 60.35
L 51.2 60.5
Q 51.85 59.5 52.6 58.6 54.4 56.5 56.2 54.35
M 56.25 59.6
L 59.95 57.4 53.5 61.95 56.25 59.6
M 53.95 59.5
L 56.95 56.2
Q 59.1 53.25 59.95 49.7 60.1 49.2 60.2 48.7 60.15 51.15 59.1 53.45 58.25 55.2 56.95 56.7 55.6 58.2 53.95 59.5
M 50.1 60.8
L 49.6 60.95 50.3 60.4 50.1 60.8
M 49.15 62
L 46.45 63.35 45.25 63.55 49.15 62
M 43.3 63.5
L 41.8 63.05 41.5 62.6 45.35 62.6 43.3 63.5
M 40.85 71.9
L 40.9 71.9 41.05 71.95
Q 40.95625 71.9228515625 40.85 71.9
M 45.35 74.1
L 44.6 74.2 45.2 74.3 43.9 74.45 44.95 74.55 42.75 74.55 43.9 74.45 42.65 74.3 44.6 74.2 43.8 74.05 45.35 74.1
M 48.7 71.95
L 48.05 71.95 50.6 71.9 47.15 72.15 48.7 71.95
M 57.9 64.25
L 57.5 64.4 59.85 62.3 57.9 64.25
M 55.35 65.1
L 54.55 65.35 56.05 64.6 55.35 65.1
M 53.75 63.9
L 52.9 64.25 48.35 65.1 53.75 63.9
M 59.85 69.95
L 59.15 70.15
Q 61.2 69 63.3 67.85
L 59.85 69.95
M 53.35 60.75
L 51.1 61.95 50.25 62.3 53.35 60.75
M 43.35 75
L 43.9 74.95 43.25 74.9 43.8 74.85 43.15 74.8 44.5 74.8 43.8 74.85 44.4 74.9 43.9 74.95 44.5 75 43.35 75
M 50.95 75.95
L 44.8 75.85
Q 51.35 75.55 57.65 73.65 54.55 75.75 50.95 75.95 Z"/>
</g>
</defs>

<g transform="matrix( 1.4549407958984375, 0, 0, 1.44329833984375, -22.7,-18.55) ">
<use xlink:href="#Layer1_0_FILL"/>
</g>
</svg>
