
<svg xmlns="http://www.w3.org/2000/svg" version="1.1" xmlns:xlink="http://www.w3.org/1999/xlink" preserveAspectRatio="none" x="0px" y="0px" width="100px" height="100px" viewBox="0 0 100 100">
<defs>
<g id="Layer1_0_MEMBER_0_MEMBER_0_FILL">
<path fill="#000000" stroke="none" d="
M 33.9 78.1
L 34 78.05 33.95 78 33.9 78.1
M 82.1 31.3
Q 81.75 29.55 81.15 28.3 79.1 23.65 75.95 21
L 72.5 18.45
Q 69.45 16.25 65.8 16.25 63.3 16.2 61.75 14.5 60.45 13.1 58.4 12.3 57.65 11.95 56.35 11.05 55.15 10.15 54.55 9.7 53.45 8.9 52.55 8.55 50.1 7.55 46 7.55 42.35 7.55 39.15 9.45 37.6 10.35 36.75 11 35.2 12.15 33.6 12.7 31.7 13.3 30.2 14.85 28.75 16.3 27.7 17.7 25.5 20.6 20.75 28.65 19.45 30.95 18.7 33.95 18.35 35.6 17.6 37.65 17.15 39.15 17.25 40.1 17.3 40.1 17.6 39.8 17.85 39.6 18.1 39.7
L 18.1 40.65
Q 18 43.75 18.05 45.05 18.1 47.5 18.55 49.4 18.75 50.25 18.5 51.3 18.05 53.3 18.15 56.05 18.35 62.25 23.05 66.85 23.4 67.2 24.9 68.5 26.05 69.5 26.65 70.25 26.8 70.45 28 71.25 28.15 71.35 29.8 72.25 31.6 72.2 32.15 72.4 32.7 72.6 34.1 73.85 34.35 74.05 34.9 74.3 35.65 74.65 35.85 75.35 36.2 76.45 35.7 77.3 35.35 77.3 35.1 77 34.75 76.55 34.7 76.5 34.7 76.55 34.45 77.35 34.3 77.85 34 78.05 34.05 78.75 34.65 80.15 35.25 81.45 35.25 82.25
L 34.5 82.4
Q 35.35 84.1 37 85.5 38.6 86.85 39.15 88.6 39.65 90.2 41.45 90.85 42.5 91.35 43.25 91.45 49.6 92.65 55.4 92.5 58.3 92.45 60.65 90.55 61.9 89.55 64 87.15
L 66.65 87.05
Q 68.9 86.95 70.3 85.95 72.65 84.4 73.9 82.8 75.95 80.15 76.55 79.45 78.45 77.25 79.25 74.15 80.45 69.85 80.5 66.4 80.6 61.8 80.95 59.5 81.25 56 81.55 54.3 81.85 52.6 81.95 49.3 81.95 46.2 81.95 44.65 81.95 41.9 82.35 40 82.5 39.3 82.5 37.65 82.55 36.1 82.75 35.25 82.85 34.7 82.7 34.3 82.35 32.3 82.1 31.3
M 21.7 57.8
Q 21.3 59.1 21.8 60.85 22.1 61.8 22.75 63.7 21.3 62.7 20.6 60.6 19.85 58.15 19.6 56.75 19.3 54.6 19.8 52.7 21.05 53.5 21.6 54.65 22.1 55.8 22.2 58
L 21.7 57.8
M 23.1 57.4
Q 25.1 59.05 26.1 60.45 27.05 61.8 27.7 63.95 27.8 64.55 27.25 64.6
L 26.15 63.45
Q 23.85 60.95 23.1 57.4
M 29 67.45
Q 29 67.7 28.85 67.9 27.2 68.05 26.25 66.75 25.35 65.35 25.1 64.9 24.5 63.8 24.4 62.8 24.85 62.95 25.25 63.3 25.5 63.55 25.9 64 26.55 64.6 27.25 64.65 27.4 64.95 28.2 65.85 28.85 66.5 28.95 67.15 28.95 67.25 29 67.45
M 24.3 62.35
L 24.35 62.65 24.1 62.4
Q 23.9 62.2 24.1 62.2 24.3 61.9 24.3 62.35
M 29.95 70.1
L 30.35 70 30.45 70.15 30.3 70.3 29.95 70.1
M 30.8 64.3
Q 31.75 65.05 32.3 66.3 31.3 67 30.65 66.1 29.95 65.2 30.15 64.2 30.7 64.2 30.8 64.3
M 31.45 67.75
Q 31.25 67.55 31.35 67.4 31.5 67.1 31.7 67.2 32.3 67.2 32.65 67.7 32.1 68.25 31.45 67.75
M 37.25 73
Q 37.6 73.1 37.45 73.6 36.95 73.95 36.4 73.65 36.15 73.55 36.15 73.3 36.15 72.95 36.35 72.95 36.9 72.85 37.25 73
M 39.35 76.1
Q 39.6 75.75 39.95 75.85 41.2 76.1 41.4 77.4 40.1 77.8 39.4 76.75 39.15 76.4 39.35 76.1
M 40 75.05
Q 39.4 75.1 39.15 74.8 39.1 74.75 38.7 74.2 39.25 74.2 39.45 74.3 39.6 74.4 40 75.05
M 41.6 72.2
Q 41.1 72.1 41.35 71.7 41.35 71.65 41.5 71.65 41.65 71.6 41.75 71.65
L 42 72.05
Q 41.75 72.2 41.6 72.2
M 43.3 74.05
Q 43.35 74 43.45 74.1 43.55 74.2 43.7 74.45 43.55 74.6 43.5 74.55 43.25 74.45 43.25 74.3 43.2 74.15 43.3 74.05
M 50.9 82.65
Q 51.05 82.9 50.75 83.05 50.15 83.45 49.7 82.85
L 49.6 82.55
Q 50.1 82.35 50.15 82.35 50.7 82.25 50.9 82.65
M 43.65 77
Q 44 76.45 44.45 76.7
L 45.45 77.55 45.15 77.75
Q 44.95 77.9 44.85 77.85 43.95 77.75 43.65 77
M 40.9 78.9
Q 41.5 78.45 42.05 78.9 42.5 79.2 42.6 79.55 42.7 79.85 42.8 80.8
L 40.9 78.9
M 49.5 80.75
Q 48.95 81.2 48.65 80.95 48.4 80.65 48.1 79.3 48.9 79.6 49.5 80.75
M 46.3 82.45
Q 46.05 82.15 45.75 80.6 47.2 81.05 47.65 82.7 46.55 82.75 46.3 82.45 Z"/>
</g>

<g id="Layer1_0_MEMBER_0_MEMBER_1_FILL">
<path fill="#000000" stroke="none" d="
M 33.45 81.35
Q 33.4 80.5 32.6 80.05 32.65 80.9 33.45 81.35 Z"/>
</g>

<g id="Layer1_0_MEMBER_0_MEMBER_2_FILL">
<path fill="#000000" stroke="none" d="
M 34 77.5
Q 33.95 77.2 33.65 77.05 33.5 77.65 33.95 78 34 77.7 34 77.5 Z"/>
</g>

<g id="Layer1_0_MEMBER_0_MEMBER_3_FILL">
<path fill="#000000" stroke="none" d="
M 30.9 76.5
L 30.7 76.25 30.7 76.5
Q 30.7 77 30.9 76.7 31 76.6 30.9 76.5 Z"/>
</g>

<g id="Layer1_0_MEMBER_0_MEMBER_4_FILL">
<path fill="#000000" stroke="none" d="
M 32 79.1
Q 32 78.75 31.8 78.95 31.7 79.05 31.8 79.15
L 32 79.4 32 79.1 Z"/>
</g>

<g id="Layer1_0_MEMBER_0_MEMBER_5_FILL">
<path fill="#000000" stroke="none" d="
M 29.9 74.1
L 29.85 74.25 29.95 74.35 30 74.15 29.9 74.1 Z"/>
</g>
</defs>

<g transform="matrix( 1.3217010498046875, 0, 0, 1.019989013671875, -15.55,-0.75) ">
<use xlink:href="#Layer1_0_MEMBER_0_MEMBER_0_FILL"/>
</g>

<g transform="matrix( 1.3217010498046875, 0, 0, 1.019989013671875, -15.55,-0.75) ">
<use xlink:href="#Layer1_0_MEMBER_0_MEMBER_1_FILL"/>
</g>

<g transform="matrix( 1.3217010498046875, 0, 0, 1.019989013671875, -15.55,-0.75) ">
<use xlink:href="#Layer1_0_MEMBER_0_MEMBER_2_FILL"/>
</g>

<g transform="matrix( 1.3217010498046875, 0, 0, 1.019989013671875, -15.55,-0.75) ">
<use xlink:href="#Layer1_0_MEMBER_0_MEMBER_3_FILL"/>
</g>

<g transform="matrix( 1.3217010498046875, 0, 0, 1.019989013671875, -15.55,-0.75) ">
<use xlink:href="#Layer1_0_MEMBER_0_MEMBER_4_FILL"/>
</g>

<g transform="matrix( 1.3217010498046875, 0, 0, 1.019989013671875, -15.55,-0.75) ">
<use xlink:href="#Layer1_0_MEMBER_0_MEMBER_5_FILL"/>
</g>
</svg>
