
<svg xmlns="http://www.w3.org/2000/svg" version="1.1" xmlns:xlink="http://www.w3.org/1999/xlink" preserveAspectRatio="none" x="0px" y="0px" width="100px" height="100px" viewBox="0 0 100 100">
<defs>
<g id="Layer1_0_FILL">
<path fill="#363435" stroke="none" d="
M 42 62.5
L 42 63.25 42.3 62.6 42 62.5
M 50.75 55.95
Q 50.8 56.05 50.8 56.15 50.85 56.25 51.1 56.35
L 50.75 55.95
M 53.3 56.5
Q 53.35 56.65 53.35 56.75 53.35 56.8 53.55 56.85
L 53.3 56.5
M 70.15 62.15
L 70.3 62.35 70.4 61.9 70.05 61.7
Q 70.1 62.1 70.15 62.15
M 71.85 60.7
L 71.55 60.3 70.95 60.45 71.85 60.7
M 73.4 61.2
Q 73.05 62.05 72.05 61.5 71.05 60.95 70.6 62
L 73.85 62.9 73.95 62.45 73.95 62 73.4 61.2
M 75.8 60.5
Q 75.65 60.55 75.05 61.3 74.6 61.85 74.1 61.55
L 74.15 62.05 74.05 62.75 78.9 62.75
Q 78.6 62.35 79.35 61.55 80.1 60.75 80.35 60.8
L 80.35 60.6 80.1 60.2 75.8 60.5
M 19 63.2
L 18.7 63.85
Q 19.05 63.6 19.15 63.55 19.3 63.4 19 63.2
M 16.6 59.65
L 16.65 60.9 17.85 61.55 17.2 60.5
Q 17.75 60.05 19.25 60.3
L 16.6 59.65
M 40.4 62.5
Q 40.3 62.65 40.15 63.2 40.45 62.8 40.65 62.7 40.85 62.6 41.3 62.8
L 40.65 62.1
Q 40.5 62.35 40.4 62.5
M 12.1 42.55
L 11.65 43.2 12.55 43.55 12.4 42.95
Q 12.4 42.85 12.1 42.55
M 78.35 48
Q 78.25 47.75 78 47.6 78.2 48.25 78.5 48.45 78.55 48.45 79.15 48.65
L 79.15 48.15 78.6 47.65
Q 78.45 48.1 78.35 48
M 77.4 49.2
L 77.3 49.15 77.25 49.6 77.35 49.5 77.4 49.2
M 76.5 48.05
L 76.6 48.1
Q 76.75 48.7 77.35 48.7 78.2 48.65 78.25 48.65
L 77.8 47.7 76.5 47.8 76.5 48.05
M 76.85 43.6
L 77.05 43.95 77.05 43.7 76.85 43.6
M 78 43.5
L 78.25 43.85 78.25 43.6 78 43.5
M 78.75 45.3
L 79.1 45.25 78.85 44.85 78.75 45.3
M 79.95 43.5
L 79.75 43.35 79.95 43.7 79.95 43.5
M 80.6 44.75
L 80.75 44.1 80.55 44
Q 80.4 44.35 80.3 44.5 80.15 44.8 80.1 45.25
L 80.6 45.25 80.6 44.75
M 75.35 48.65
Q 75.25 48.15 75.15 48 75.05 47.85 74.75 47.65
L 74.75 48.6 75.35 48.65
M 75.65 49.3
L 75.4 49.15 75.2 49.55 75.65 49.5 75.65 49.3
M 75.4 48.2
Q 75.4 48.3 75.4 48.7 75.75 48.4 76.3 48.65
L 76.3 48.4 75.95 47.75 75.35 47.7
Q 75.35 48.05 75.4 48.2
M 74.5 48.15
Q 74.5 48.2 74.6 48.05
L 74.45 47.95
Q 74.5 48.1 74.5 48.15
M 73.5 49.45
Q 73.5 49.4 73.55 49.2
L 73.4 49.35
Q 73.45 49.5 73.5 49.45
M 71 48.9
L 71.25 49.25 71.25 49.05 71 48.9
M 71.7 49
Q 71.75 49.35 71.8 49.35 71.85 49.35 72.05 49.4
L 71.7 49
M 72.45 45.25
L 72.25 45.2 72.2 45.65 72.45 45.5 72.45 45.25
M 72.15 45.6
L 72.15 45.35 71.9 45.25 72.15 45.6
M 72.7 45.15
L 72.6 45.6 72.8 45.7 72.7 45.15
M 71 45.4
Q 71.05 45.5 71.3 45.7
L 71.4 45.25 70.8 44.95
Q 70.85 45.3 71 45.4
M 71.6 44.15
L 71.15 43.65 70.95 44.05 71.6 44.15
M 72.05 43.85
L 71.9 43.8 71.75 44.2 71.9 44.15
Q 71.95 44.15 72.05 43.85
M 75.35 45.25
L 75.55 45.6 75.55 45.4 75.35 45.25
M 73.7 45.65
Q 73.85 45.6 73.9 45.3
L 73.8 45.2 73.4 45.25 73.4 45.5
Q 73.65 45.65 73.7 45.65
M 74.65 45.15
L 74.45 45.3 75.1 45.65 74.65 45.15
M 74.6 44.15
L 74.6 44.65 74.75 44.25 74.6 44.15
M 73.55 44.35
L 73.45 43.85 73.2 44.2 73.2 44.45 73.55 44.35
M 75.1 44.7
L 75.05 44.15 74.95 44.6 75.1 44.7
M 75.3 44.05
L 75.3 44.75 75.5 44.35 75.3 44.05
M 70.2 48.75
L 70.15 49.2
Q 70.25 49.05 70.3 48.8
L 70.2 48.75
M 70.4 48.85
Q 70.45 49 70.45 49.05
L 70.55 48.9 70.4 48.85
M 68.75 49.05
Q 68.8 48.85 68.75 48.5
L 68.6 48.9
Q 68.7 49.25 68.75 49.05
M 69.55 48.65
L 69.1 48.7 69.7 49.2 69.55 48.65
M 67.05 44.5
Q 67.1 44.7 67.1 44.75 67.2 44.85 67.45 44.95
L 67.05 44.5
M 67.8 45.1
L 67.8 44.9 67.55 44.5
Q 67.55 44.85 67.6 44.9 67.65 44.95 67.8 45.1
M 66.35 44.4
Q 66.5 44.75 66.55 44.8 66.65 44.85 66.9 44.9
L 66.8 44.4 66.35 44.4
M 70.35 44.95
L 70.45 45.5 70.55 45.05 70.35 44.95
M 68.5 45.25
L 68.5 45 68.15 44.55 67.9 44.7 68.5 45.25
M 69.05 44.8
L 68.8 44.65
Q 68.7 45.1 68.85 45.05 69 45 69.05 44.8
M 69.25 44.65
L 69.15 44.85 69.15 45.3 69.2 45.35 69.45 45 69.25 44.65
M 70.85 43.75
L 70.4 43.55 70.05 43.6
Q 70.1 44.05 70.4 44.1 70.55 44.1 70.85 44
L 70.85 43.75
M 63.55 43.95
L 63.5 44.4 64 44.65 64 44.45 63.55 43.95
M 65.5 44.7
L 65.45 44.2 65.4 44.65 65.5 44.7
M 64.55 44.7
Q 64.95 44.75 65.05 44.25
L 64.85 44.15 64.05 44.25
Q 64.2 44.6 64.55 44.7
M 65.6 44.25
Q 65.65 44.7 65.75 44.75 65.85 44.8 66.05 44.75
L 65.6 44.25
M 70.15 47.5
L 70.05 47.45
Q 70.3 48.5 71.3 48.55 72.75 48.55 72.85 48.6
L 72.65 48.25 74.2 48.55 74.25 48.35 73.8 47.65
Q 73.3 48.5 71.85 47.5 70.4 46.55 70.15 47.5
M 60.15 43.95
L 60.2 43.25 69.95 44.05 69.95 43.55 69.75 43.45 61.5 42.45 53.35 42.5
Q 52.65 42.45 50.15 41.6 48.1 40.85 46.85 41.15
L 37.5 41.25 36.8 41.05 36.85 40.1 39.75 38.55 39.95 35.25 37.65 34.55
Q 37.1 34.8 36.6 35.05 33.35 35.8 31 36.15 25.3 37.05 23.5 35.55 23.65 37.35 25.65 38.1
L 25.6 38.3 23.9 39.5
Q 23.2 38.4 22.15 38.35 21.05 38.25 20.3 39.2 20.7 39.2 21.85 39.5 22.85 39.8 23.3 39.65 22.85 40.65 21.9 40.7 20.65 40.55 19.8 40.55
L 18.65 41.6 19 43.8 13.5 44.15 13.15 46.05 12.8 46.2
Q 12.65 45.3 12.55 45.1 12.4 44.75 11.9 44.15
L 11.35 45.75 12.55 46.9 12.35 47.1 11.45 47
Q 12.55 49.15 14.65 54 14.4 54.3 14.15 54.6 13.95 54.85 13.75 55.55 11.75 54.8 9.35 54.6
L 9.7 56.35
Q 11.25 57.95 16.1 58.9 21.75 59.95 23.1 60.65
L 26.15 63.3
Q 27 63.7 28.9 63.05
L 29.15 63.5
Q 29.15 63.6 29.15 64
L 30.85 63.3 31.1 62.85 30.2 62.7 29.1 62.95
Q 29.9 62.65 30.95 62.1 31.25 62.45 31.4 62.5 31.4 62.55 31.25 63.1 32.15 63.55 33.2 63.15 34.5 62.65 35.75 62.85
L 34 62.35 34.6 61.7 32.05 62.05 31.85 62 31.9 61.8
Q 32.5 61.25 32.75 61.1 33.15 60.85 33.8 60.85
L 32.9 60.5
Q 33.65 59.8 36.6 59.8 37.35 59.75 38.4 59.9 40.9 60.2 42 60.3 42.1 60.3 42.15 60.3 42.45 60.3 42.6 60.3
L 42.6 60.25
Q 42.75 60.2 42.9 60.2
L 42.9 60.15
Q 45.15 59.45 49.85 60.35 54.8 61.25 56.95 60.25
L 56.8 61.15
Q 58.65 61.35 61.25 61.15 62.7 61.05 65.35 60.8 65.3 61.05 65.25 61.1
L 65.05 61.15
Q 65.55 62.6 67.25 61.95 68.2 61.6 69.35 61.15 69.25 61.7 69.1 61.75 69.05 61.75 68.75 61.55 68.85 62.1 69.2 62.2 69.55 62.3 69.7 61.8
L 69.8 61.35 69.5 61.2 71 61.2 71 60.95 70.85 60.75
Q 70.9 60.55 70.9 60.2
L 64.3 58.35
Q 63.15 58.65 60.85 58.15 58.5 57.6 57.25 57.95 54.45 58.7 53.2 57.9 52.2 57.25 48 57.45 44.75 57.65 43.05 54
L 43.05 53.55
Q 43.65 51.85 44.7 51.75 45.15 51.7 46.6 52.3 49.05 53.3 49.7 48.9 51.6 48.65 56.5 48.8 60.7 48.95 63.15 48.35 63.95 48.15 65.6 48.3 67.1 48.4 67.35 48.3
L 67.7 48.95
Q 67.85 48.25 68.7 47.85 68.9 47.75 69.1 47.65
L 69.15 47.7 69.15 47.65
Q 69.6 47.45 70.05 47.45
L 68.2 46.75 68.2 47 68.35 47.1 68.35 47.35
Q 68.2 47.7 68.05 47.4 67.85 46.85 67.8 46.8
L 67.8 47.05 67.95 47.15 67.85 47.55
Q 67.8 47.2 67.8 47.05 67.75 46.9 67.75 46.3 66.9 47.05 65 45.65 63 44.2 62 44.9 62 44.85 62.1 43.95 61.6 44.45 61.1 44.25 60.2 43.95 60.15 43.95
M 84.05 58.8
Q 83.8 58.9 83.7 59.35 83.85 59.15 84.3 59.3 84.75 59.4 85.05 59.8 84.9 58.95 84.5 58.55 84.45 58.65 84.05 58.8
M 85.55 61.45
Q 84.55 61.7 84.35 61.85
L 84.3 62.3
Q 84.6 62.35 85.25 62.35 85.8 62.45 86 63.15
L 85.95 62.45
Q 86.3 62.7 86.45 63.35 86.55 63.8 86.7 64.95
L 86.7 65.45
Q 86.8 64.95 86.85 64.65 86.9 64.5 86.95 63.65 87.2 63.65 87.3 63.7 87.35 63.8 87.5 64.15 87.45 63.25 87.15 62.15 86.85 61.1 86.65 60.6 86.3 61.25 85.55 61.45
M 82.65 60.05
Q 81.7 60.3 81.15 60.7 80.5 61.1 79.9 62.05 79.75 62.3 79.45 62.25 79.2 62.25 79.05 62.6 79.9 62.65 81.6 62.9 83.05 63 84 62.4 84.15 62.25 84.3 61.4 84.45 60.75 84.9 60.9 84.85 60.55 84.75 60.1
L 82.65 60.05
M 85.65 58.4
L 85.3 57.75
Q 85.4 58.35 85.4 58.45 85.45 58.6 85.6 58.85
L 85.65 58.4
M 85.85 54.15
L 85.6 53.8
Q 85.5 54.25 85.65 56.35 85.8 58.5 86.05 59.8
L 86.1 60.3
Q 86.15 60.1 86.25 59.85 86.25 59.65 86.4 59.5 86.25 57.55 86.2 56.55 86.1 54.8 85.85 54.15
M 87.85 53.95
L 87.9 53.95 87.85 51.2 87.85 53.95
M 86.25 53.35
L 86.4 53.95
Q 86.35 53 86.25 52.4 86.25 52 86.05 51.35
L 86.25 53.35
M 87.15 50.8
Q 87.15 50.5 87 50.15 87.05 50.5 87.1 50.75 87.1 51 87.15 51.65
L 87.25 51.95
Q 87.2 50.9 87.15 50.8
M 86.7 49.75
L 86.4 50.1 86.75 50.25 86.85 49.8 86.7 49.75
M 87.7 44.95
Q 87.7 45.4 87.85 47.8 87.95 49.95 87.9 51.1
L 88.1 52.4 88.2 52.2
Q 88.1 49.45 88.05 48.15 88 45.85 87.7 44.95
M 86.7 43.95
L 87.15 45.15
Q 87.15 44.5 87 44.3 86.95 44.1 86.7 43.95
M 81.45 47.85
Q 81.5 48.25 84.3 48.05 87.15 47.85 87.7 50 87.6 49.2 87.45 48.6 87.3 47.95 87.15 47.55
L 81.45 47.85
M 84.55 48.9
L 84.5 49.4 84.6 49.25
Q 84.6 49.2 84.6 48.95
L 84.55 48.9
M 83 48.85
L 83.25 49.2 83.25 48.95 83 48.85
M 81.5 48.85
L 81.3 49.2 81.3 49.5
Q 81.4 49.4 81.5 49.35 81.6 49.2 81.5 48.85
M 81.25 48.25
L 81.2 47.5
Q 81 48.25 80.3 48.1 79.5 47.8 79.2 47.65
L 79.15 47.9
Q 79.4 48.75 80.1 48.6 80.55 48.55 81.25 48.25
M 81.45 44.7
L 81.15 44.8 81.55 45.25 81.45 44.7
M 83.25 44.85
L 83.4 45.2 83.45 45 83.25 44.85
M 85.45 46
L 85.5 46 85.45 45 85.2 44.9 84.75 44.9 85.45 46
M 84.15 45.05
L 84.45 45.25 84.45 45 84.25 44.65 84.15 45.05
M 85.05 43.4
Q 85.1 43.45 85.35 43.5
L 84.9 43.05
Q 84.95 43.35 85.05 43.4
M 81.5 43.3
L 81.3 43.15 81.5 43.5 81.5 43.3
M 81.95 43.25
L 81.75 43.15 81.95 43.5 81.95 43.25
M 90.35 43.1
L 90.05 43.2
Q 90.15 40.4 89.15 39.85 89.15 41.05 89 43.15 88.8 45.65 88.8 45.95
L 88.85 46
Q 88.9 45.55 89 45.3 89.1 45.1 89.1 44.4 89.15 44.45 89.7 44.65 90.05 44.75 90.2 45.2
L 90.3 44.8 90.35 43.1
M 90.65 38.9
L 90.6 38.15 90.25 37.75 90.4 40.25 90.45 40.25 90.5 40.3 90.65 38.9 Z"/>
</g>
</defs>

<g transform="matrix( 1, 0, 0, 1, 0,0) ">
<use xlink:href="#Layer1_0_FILL"/>
</g>
</svg>
