
<svg xmlns="http://www.w3.org/2000/svg" version="1.1" xmlns:xlink="http://www.w3.org/1999/xlink" preserveAspectRatio="none" x="0px" y="0px" width="100px" height="100px" viewBox="0 0 100 100">
<defs>
<g id="Layer1_0_FILL">
<path fill="#363435" stroke="none" d="
M 52.95 65.25
L 52.65 65.85 54.9 65.5 54.55 65.3
Q 54.05 65.6 53.6 65.6 53 65.65 52.95 65.25
M 50.95 63.4
L 50.65 63.25 50.4 63.6
Q 50.7 63.6 50.75 63.6 50.8 63.55 50.95 63.4
M 51.15 63.5
L 51.25 63.55
Q 51.25 63.2 51.2 63.2 51.15 63.15 50.9 62.85
L 51.15 63.5
M 58.25 65.5
L 57.5 64.85 57.55 65.4 57.25 65.2 57.95 66.1 58.2 65.7 58.25 65.5
M 44.65 66.45
L 44.55 66
Q 44.45 65.9 44.15 65.65
L 42.7 65.85 44.65 66.45
M 40.9 65.95
Q 41.05 65.7 41.15 65.55
L 40.05 65.75
Q 40.7 66.05 40.9 65.95
M 41.75 65.35
L 41.6 66.05 42.05 66.3 42.4 65.7 41.75 65.35
M 45.45 63.5
L 45.35 63.95
Q 45.55 63.85 45.75 63.65
L 45.45 63.5
M 43.85 63.4
L 43.4 63.15
Q 43.1 63.3 42.9 63.35 42.75 63.45 42.45 63.95
L 42.75 63.6 43.85 63.4
M 50 65.15
Q 50.1 65.45 50.1 65.55 50.1 65.6 50.35 65.85
L 50.4 65.65 50 65.15
M 48.05 65.15
Q 47.5 65.45 46.6 65.45 45.8 65.45 45.2 65.15
L 44.6 65.35
Q 44.7 65.55 44.8 66 45.1 66 46.65 65.75 47.65 65.6 48.7 66
L 49 65.65 48.05 65.15
M 47.35 63
L 47.6 63.9 47.8 64 48.1 63.4 47.35 63
M 48.5 59.25
Q 48.75 59.15 48.8 59.1 48.85 59.1 48.8 58.65
L 48.5 59.25
M 47.05 58.55
Q 46.6 58.35 46.15 58.75 46.65 58.8 47.25 59.05 47.95 59.35 48.4 59.45 48.3 58.75 47.85 58.15 47.45 58.7 47.05 58.55
M 50.55 58.05
L 49.9 57.95 51.1 58.85 50.55 58.05
M 45.1 59.25
L 44.65 59 43.75 59
Q 44 59.5 44.15 59.55 44.45 59.55 44.85 59.6
L 45.1 59.25
M 42.6 59.95
L 42.4 59.35 42.25 60 42.6 59.95
M 56.7 56.45
L 56.3 55.75 56 56.35 56.7 56.45
M 52 58.05
L 51.7 58.4
Q 52.85 58.7 55.7 58.5 58.35 58.3 60.45 59 60.25 58.25 59.8 57.8 59.25 57.3 58.85 56.85 58.65 57.1 56 57.05 53.55 57 53.25 57.95
L 52.75 57.2
Q 52.3 57.4 52.25 57.5 52.15 57.6 52 58.05
M 52.35 55.95
L 51.95 56.25 52.55 56.55 52.85 56.2 52.35 55.95
M 53.3 56.45
L 53.25 55.9 52.95 56.3 53.3 56.45
M 53.5 56.3
L 55.6 56.4 55.95 55.8 55.45 55.55 53.85 55.7 53.5 56.3
M 58.3 55.55
Q 57.9 55.75 57.25 55.5
L 57 55.85 58.1 56.45
Q 58.3 56.1 58.4 56.05 58.35 56 58.3 55.55
M 60.55 55.2
Q 60.7 55.4 60.7 55.45
L 60.85 55.35 60.55 55.2
M 57.4 51.5
L 56.8 51.7 57.85 51.95 57.9 51.75 57.4 51.5
M 58.4 51.75
Q 58.7 51.75 58.75 51.75 58.8 51.75 59 51.55
L 58.7 51.4 58.4 51.75
M 64.6 65.05
L 64.7 65.4
Q 64.75 65.35 65 65.55
L 65.05 65.3 64.6 65.05
M 62.05 65.25
L 61.75 65.05
Q 61.85 65.25 61.85 65.3
L 62.05 65.25
M 65.45 62.45
L 65.65 63.05 66.05 62.75 65.45 62.45
M 63.4 63.35
Q 63.45 63.35 63.65 63.25
L 63.3 63.1
Q 63.4 63.3 63.4 63.35
M 70 62.8
L 70 62.05 69.5 62.55 70 62.8
M 69.2 62.9
L 69.25 62.15 68.95 62.55 69.1 62.85 69.2 62.9
M 68.7 58.05
L 67.4 57.8
Q 67.5 58.05 67.7 58.2 67.95 58.4 68.5 58.7
L 68.7 58.05
M 62.3 57.75
Q 62.25 57.8 62.05 57.8
L 62.1 58.85 64.55 58.35 64.2 58.95 65 58.6 65.35 58.8 64.3 57.2
Q 63.5 57.9 62.55 57.05 62.35 57.4 62.3 57.75
M 61.65 57.85
L 61.3 58.45 60.9 57.2 60.6 59.1 60.8 59.15
Q 61 59 61 58.95 61.05 58.95 61.35 58.95
L 61.65 57.85
M 66.15 53.9
Q 66.35 53.8 66.75 53.9 66.7 53.25 66.65 53 66.55 52.55 66.3 52.15 65.05 52.7 61.2 52.25 57.85 51.8 56.45 53.25
L 56.35 52.85
Q 56.4 52.7 56.45 52.5 55.9 52.45 53.2 53.35 50.55 54.25 49.3 54.05
L 48.6 54.7
Q 49.75 54.95 51 54.35 52.75 53.6 53.15 53.55 54.15 53.45 55.45 54.2 56.95 55.05 57.9 55.1
L 61.35 54.85
Q 61.45 54.55 61.6 54.55 61.6 54.5 61.5 54.2 61.95 53.7 62.1 53.7 62.55 53.65 62.75 53.55
L 62.15 54.55
Q 62.6 54.5 64 54.05 64.4767578125 53.9048828125 64.8 53.9 64.9 54.1017578125 64.9 54.15
L 65.1 54.05 64.85 53.9
Q 65.284375 53.94609375 65.45 54.25 65.8 54.1 66.15 53.9
M 70.85 52.5
L 70.2 52.2 66.9 52.7 67.5 53.8
Q 67.6 53.15 67.65 53.1 67.7 53.05 68.1 52.85 68.05 53.2 68 53.35 68 53.4 68.2 53.9 68.35 53.55 68.35 53.5 68.3 53.35 68.25 52.95 69 52.9 70.2 52.95 70.2 53.4 70.15 53.6
L 70.3 54
Q 70.4 53.55 70.45 53.3 70.55 53.15 70.85 52.5
M 71.6 53.7
L 71.95 53.65 71.95 52.35 71.6 53.7
M 71 52.6
L 71.3 52.8 71.25 52.25 71 52.6
M 72.75 53.3
L 72.95 52.65 72.5 52.4 72.75 53.3
M 75.2 52.05
L 74.95 52.4 75.55 52.2 75.2 52.05
M 76.65 52.8
L 76.15 52.55 76.2 53.1 76.65 52.8
M 38.65 63.45
L 38.2 63.2 37.85 63.8 38.65 63.45
M 36.7 62.9
L 36.95 62.55 36.1 61.85 35.35 62.5 36.7 62.9
M 37.95 62.3
L 37.6 62.15 37.5 62.6
Q 37.75 62.45 37.95 62.3
M 26.55 58.8
Q 26.7 59.2 26.85 59.3 27.1 59.5 27.2 59.65 27.1 59.2 27.05 59.15 26.95 59.1 26.55 58.8
M 27.25 54.05
L 27.3 53.8 26.6 53.9 26.35 53.3 25.05 53.6
Q 25.7 54.75 26 55.4 26.5 56.55 26.15 58.3
L 26.45 58.45 26.6 58
Q 26.7 57.75 26.85 56.25 26.95 54.65 27.25 54.05
M 29.8 50.65
Q 30.1 50.2 30.1 49.9
L 27.5 50.3
Q 27.8 50.55 28.55 50.55 29.1 50.55 29.2 51.25 29.55 51.1 29.8 50.65
M 28.75 51.75
L 28.4 51.05 27.6 51.15
Q 27.85 51.6 28 51.6 28.3 51.65 28.75 51.75
M 36.2 57.3
L 36.3 57.55
Q 36.35 57.5 36.5 57.45
L 36.2 57.3
M 31.9 61.1
Q 32.35 60.25 32.4 59.6 32.25 59.85 31.75 60.55 31.3 61.2 30.9 61.9
L 31.05 62.7
Q 31.2 62.35 31.9 61.1
M 30.55 61.5
L 30.4 61.1
Q 29.9 61.8 28.65 61.85 27.5 61.9 26.85 63.25 26.35 62.85 26.3 62.75 26.3 62.45 26.25 61.95 25.2 62.35 24.85 62.35 24.1 62.35 23.55 61.5 23.55 62.5 24.5 63.7 25.65 64.95 26.1 65.45 26.4 65.25 27.1 64.1 27.8 62.95 27.95 62.35 28.55 62.9 29.1 62.75 29.9 62.4 30.45 62.15 30.55 61.6 30.55 61.5
M 35.05 58.2
Q 35.25 58.2 35.4 58.15 35.6 58 35.4 57.6
L 32.85 59.3 32.95 59.6 33.3 59.55 33.2 60 35.05 58.2
M 31.5 49.9
L 31.05 49.65 30.8 50.05 31.5 49.9
M 31.15 51.25
L 31.25 51.05 30.6 50.7 29.95 51.1 31.15 51.25
M 30.5 47.6
L 30.4 48.05
Q 30.6 48 30.8 47.75
L 30.5 47.6
M 31.5 47.35
L 31.3 48 31.65 47.95 31.5 47.35
M 35.2 39.85
L 35.05 40.3
Q 35.25 40.25 35.5 40
L 35.2 39.85
M 29.85 47.45
L 28.4 48.25
Q 29.2 48.35 29.6 48.35 29.9 48 29.9 47.95 29.9 47.9 29.85 47.45
M 25.8 48.85
Q 25.9 48.7 25.9 48.2
L 25.25 48.6 25.05 49.5 25.35 49.7 25.45 49.25
Q 25.8 48.9 25.8 48.85
M 27.95 44.2
Q 28.05 44 28.15 43.75
L 27.4 44.4
Q 27.85 44.3 27.95 44.2
M 24.8 49.1
L 24.6 48.5 24.15 49.55 24.8 49.1
M 19.15 44.05
L 19.5 44.75 19.5 45.5 19.95 44.5 19.15 44.05
M 71.45 45.95
L 71.45 45.2 71.35 45.65 71 45.7 71.45 45.95
M 64.2 43.85
L 64.2 44.6 64.5 44 64.2 43.85
M 65 44.05
L 65.25 43.9 65.05 43.3 65 44.05
M 63.55 38.9
Q 63.65 38.85 63.4 38.55
L 62.4 39.05 62.85 39.5
Q 62.95 39.35 63.25 39.25 63.35 39.05 63.55 38.9
M 67.3 38.6
L 66.85 39.1
Q 66.95 39.05 67.05 38.95
L 67.8 38.85 67.3 38.6
M 66.15 39
L 66.2 38.8 65.75 38.55 64.85 38.55
Q 64.8 38.9 64.9 39.05 65 39.4 65.1 39.7 65.35 39.5 65.55 39.25 65.8 39.05 66.15 39
M 68.85 38.9
L 68.4 38.65 67.85 38.65 68.05 39.25 68.75 39.35 68.85 38.9
M 70.05 39.05
L 69.65 38.55 69.35 38.95 69.45 39.45 70.05 39.05
M 70.8 36.1
L 70.35 36.4 70.8 36.9 71 36.75 70.8 36.1
M 70.05 36.25
L 69.2 36.25 68.9 36.65 68.75 37.3 69.95 36.7
Q 70.05 36.55 70.1 36.5
L 70.05 36.25
M 68.05 36.45
L 67.7 36.5
Q 67.9 36.7 67.95 36.65 67.95 36.6 68.05 36.45
M 66.7 36.75
L 66.9 36.85 67.75 36.25
Q 67.65 35.75 67.45 35.35 67.4 35.8 67.2 36 66.9 36.45 66.7 36.75
M 71.6 36.55
Q 71.7 36.75 71.7 36.8
L 71.9 36.7 71.6 36.55
M 52.5 42.95
Q 52.6 43.15 52.6 43.2
L 52.85 43.15 52.5 42.95
M 57.95 39.65
Q 58 39.55 58.15 39.05
L 56.65 39.3 56.35 39.9 57.4 39.95
Q 57.85 39.8 57.95 39.65
M 58.4 40
Q 59.25 40.1 60 39.95 60.8 39.8 61.5 39.85 61.7 39.4 61.7 39.25 61.7 39.2 61.6 38.65 60.55 39.35 58.65 39.1
L 58.4 40
M 42.85 48.8
L 42.85 49.35
Q 42.2 49.2 40.4 49.1 39 49.05 38.05 48.55
L 38.4 49.25 37.75 49.9
Q 37.65 49.6 37.65 49.55
L 37.85 49.45 38.05 48.8
Q 37.05 48.75 35.05 49.35 33.2 49.9 31.95 49.65
L 31.9 49.85 32.2 50
Q 32.75 50 33.2 49.95 34.1 49.95 34.05 50.5 34.5 50.55 34.55 50.55 34.7 50.5 34.45 50.2 35.05 49.85 38.45 50.55 38.55 49.95 38.55 49.9 38.6 49.85 38.9 49.5
L 39.15 49.85
Q 39.15 49.9 39.05 50.35
L 51.4 50.05 51 49.35
Q 51.35 49.25 51.55 49.4 51.7 49.5 52.25 50
L 52.2 48.95 54.9 48.85
Q 54.35 49.2 53.9 49.25 53.65 49.25 52.9 49.05
L 52.6 49.45
Q 53.85 50.35 56.35 50.05 57.75 49.85 60.1 49.35
L 75.55 49.4
Q 76.3 49.25 78.4 48.35 80.35 47.7 80.85 48.15 80.9 47.6 80.9 47.5
L 80.8 47.1 76.25 45.95 70.35 46.1 70.75 46.05
Q 70.45 45.5 70.25 45.5 69.9 45.5 69.5 45.4 69.5 45.8 69.45 45.9 69.5 45.95 69.65 46.25 69.25 46.2 68.3 45.75 67.35 45.25 66.7 45.2 64.4 44.9 61.05 45.35 57.45 45.9 55.95 46.1
L 56.3 45.5
Q 55.25 45.9 45.15 45.75 36.25 45.65 34.15 48
L 36.8 47.35 36.4 48.15
Q 40.7 48.9 42.85 48.8
M 47.5 38.25
L 47.25 38.6
Q 47.8 38.75 47.95 38.65 48.05 38.55 48.25 38.15
L 47.5 38.25
M 46.95 38.2
L 46.3 38.1 46.05 39
Q 46.55 38.85 46.7 38.7 46.8 38.6 46.95 38.2
M 48.75 38.15
L 48.5 38.5 49.1 38.3 48.75 38.15
M 43.65 33.9
Q 43.45 34.1 43.4 34.25
L 43.7 34.4 43.65 33.9
M 25.95 45.8
L 26.15 45.8
Q 26.5 45.75 31.7 45.35 30.45 45.35 28.9 45.35 27.25 45.45 25.95 45.8
M 24.2 41.1
L 23.85 40.65
Q 23.8 40.6 23.65 41.1
L 23.25 40.6 23.3 40.4
Q 23.9 40 24.65 39.65
L 22.7 40.05 22.35 40.65
Q 22.5 41.6 22.85 42.2 22.5 42.8 21.65 43.4 20.4 44.3 20.3 44.4 20.45 45.2 20.6 45.55 20.7 45.9 21.2 46.45
L 19.55 48.65 20.6 49.45 19.25 50.5 19.2 50.75
Q 19.65 51.4 20.65 52.1 21.95 53 22.4 53.5 23 52.35 24.6 52.05
L 27.5 51.6 27.6 51.4
Q 25.8 51.05 24.4 51.1 22.85 51.15 20.9 51.65
L 20.8 51.6
Q 21.15 51 21.6 50.9 21.95 50.8 22.7 51.05
L 22.75 50.85 22.1 50.5
Q 22.4 50.15 22.95 49.95 23.55 49.7 23.85 49.4
L 21.05 49.7
Q 21.95 48 23.4 48.35
L 23.15 47.2
Q 24.2 46.25 25.95 45.8
L 23 45.6
Q 22.6 45.8 22.15 46.45 21.8 46.95 21.25 47 21.55 46.5 21.55 46.45 21.55 46.2 21.6 45.65
L 21.85 46
Q 22.2 45.65 22.95 43.65 23.65 41.65 24.2 41.1
M 28.5 38.85
L 28.5 38.7
Q 26.2 38.95 24.65 39.65
L 28.5 38.85
M 48.9 43.35
Q 45.8 42.8 45.4 43 42.7 44.5 36.35 45 33.65 45.2 31.7 45.35 34 45.35 35.25 45.25
L 52.5 44.25 53.8 45.45
Q 55.3 45.65 58.5 44.8 61.5 44 62.95 44.45
L 64.1 43.55 64.05 43
Q 61.9 42.6 58.95 43.1 54.4 43.9 54.2 43.9 52.5 44 48.9 43.35
M 60.4 34.9
Q 55.9 34.55 53.45 34.5
L 53.65 33.6
Q 52.5 34.4 50.55 34.6 48.3 34.7 47.15 34.75
L 47.1 33.65
Q 46.7 33.95 46.6 34.05 46.6 34.35 46.45 34.85 45.3 34.5 44.55 34.55 44.1 34.55 42.75 34.65
L 43.05 34.05
Q 40 35.4 38.75 34.85 38.7 34.9 38.55 34.95 38.5 35 38.45 34.7 38 34.9 33.45 35.5 29.45 36 27.95 37.5
L 27.8 38.2 27.85 38.5 28.3 37.7 28.4 37.75 28.5 38.7
Q 29.05 38.65 29.65 38.6 34.45 38.6 36.45 38.45
L 36.6 38.55
Q 36.6 40.15 39.1 40 41.9 39.55 42.6 39.45 43.4 39.35 44.3 38.85 45.3 38.2 45.8 37.85 46.35 37.55 52.95 37.5 59.65 37.45 60.6 37.8
L 60.45 37.45
Q 60.35 37.45 60.2 37.35
L 60.5 36.75
Q 64 37.45 64.7 37.7
L 65.05 37.15 63.95 36.55 63.75 35.9
Q 65.6 35.7 67.6 34.65
L 67.3 34.5
Q 64.45 35.15 60.4 34.9 Z"/>
</g>
</defs>

<g transform="matrix( 1, 0, 0, 1, 0,0) ">
<use xlink:href="#Layer1_0_FILL"/>
</g>
</svg>
