
<svg xmlns="http://www.w3.org/2000/svg" version="1.1" xmlns:xlink="http://www.w3.org/1999/xlink" preserveAspectRatio="none" x="0px" y="0px" width="100px" height="100px" viewBox="0 0 100 100">
<defs>
<g id="Layer1_0_FILL">
<path fill="#363435" stroke="none" d="
M 15.2 67.85
Q 15.3 67.6 15.2 67.5 14.65 67.5 12.7 67.1 11.25 67 12 67.85 11.65 67.95 10.85 67.6 10.25 67.35 9.85 67.8 11.1 68.45 14.35 68.7 17.45 68.9 18.55 68.55 18 68.65 16.8 68.4 15.55 68.15 15 68.2 15.15 67.95 15.2 67.85
M 66.6 80.15
Q 66.9 80.3 67.2 80.4 67.15 80.15 66.85 80.15 66.7 80.15 66.6 80.15
M 30.25 73.35
Q 29.25 74.25 27.25 73.65 25.1 73.05 24.25 73.55 24.25 73.6 23.45 75.7 22.95 77 23.75 77.75 25.85 78.3 31.25 78.3 35.95 78.3 38.8 79.45 39.35 79.2 38.9 78.75 38.35 78.3 38.65 78.05 42.45 78.3 50.25 79.95 58.6 81.65 61.65 81.95 61.9 82.15 64.35 82.7 67.4 83.4 68.6 83.75 68.4 84.15 67.9 83.95 67.4 83.75 67.2 83.95 67.45 84.4 68.5 84.55 69.35 84.75 69.2 85.15 64.7 83.5 59.5 82.95 55.6 82.65 52 82.95 51.8 83.35 51.25 83.15 51.2 83.1 51.1 83.1 51.5 83 51.9 82.95 38.9 79.2 26.7 79.8 24.2 83 27.4 84.8 30.45 86.5 32.65 85.45 33.4 86.1 35 86 36.7 85.95 37.75 84.95 40.45 85.55 41.45 85.7 43.5 86 45.05 85.8 46.2 86.55 46.35 86.6 46.8 86.8 47.7 86.7 47.65 86.25 46.8 85.85 45.65 85.45 45.4 85.3 46.1 85.15 46.35 85 46.7 84.9 46.3 84.25 45.65 85.05 45 84.7 44.3 84.25 43.75 84.75 43.6 84.65 43.7 84.3 43.75 84 43.7 83.85 42.25 84.15 40.6 83.85 38.75 83.5 37.95 82.6 38.85 82.85 44.1 83.5 47.75 84 49.9 85.5 50.55 85 49.95 84.95 49.25 84.9 49.55 84.4 53.7 86.25 60.05 86.95 68.6 87.8 70.45 88.25 70.95 87.15 71.25 86.05 71.55 84.7 71.85 83.95 72.4 84.3 72.5 84.3 72.85 84.45 73.05 84 72 82.65 69.55 81.55 68.7 81.1 67.2 80.4 67.3 80.6 67.15 80.9 66.6 80.8 65.2 80.65 63.95 80.5 63.75 79.85 63.8 79.45 64.6 79.55 65.1 79.7 64.8 79.05 64.5 79.2 63.5 79 62.7 78.85 62.25 79.1 62.45 79.55 63.2 79.35 63.7 79.25 63.5 79.7 62.45 80 60.85 79.75 60.6 79.7 57.35 78.95 57.85 78.75 59.35 79.1 60.65 79.45 61.25 78.75 46.6 75.65 46.15 75.6 37.55 74.05 31.25 74.15 30.8 74.15 30.7 74 30.55 73.6 30.25 73.35
M 29.15 61.2
Q 26.7 60.75 26.65 60.1 26.45 60.05 20.7 59.35 17.45 58.95 15.65 60.4 15.55 61.3 16.5 60.9 17.45 60.6 17.1 60.05 17.5 59.9 17.85 60.05 18.15 60.1 18.55 60.05 18.55 60.65 18.05 60.4 17.45 60.25 17.3 60.35 18.3 61.65 21.4 62.15 24.85 62.65 26.1 63.5 26.4 63.5 26.55 63.1 26.7 62.5 27.2 62.65 27.5 62.6 27.45 62.9 27.4 63.4 27.45 63.6 29 63.5 31.85 63.75 35 64.15 36.45 64.05 36.15 64.75 36.3 65.15 37.25 64.7 38.55 65.25 39.8 65.6 41 64.95 41.2 65.5 40.75 65.6 43.55 65.2 49.5 66.85 56.05 68.7 59.1 68.65 59.35 68.8 59.8 69.35 60.15 69.85 60.4 69.95 62.45 69.4 64.8 69.85 67.4 70.25 68.5 70 68.95 70.95 68.15 71.15 69.35 71.65 70.95 71.8 73.25 71.95 73.8 72.05 73.15 71.4 71.5 71.05 69.5 70.8 69 70.6 69.45 70.35 69.75 70.15 70.25 69.85 70 68.95 69.75 69.05 69.75 69.25 69.75 69.4 69.75 69.7 69.35 69.85 68.75 69.6 68.2 69.4 67.7 69.5 67.7 69.4 68 69.15 68.15 69.05 68.2 68.85 66.85 68.05 63.7 67.4 58.5 66.6 56.5 66.2
L 55.1 65.6
Q 54.2 65.45 53.35 65.7 53.6 66 54.5 66.1 55.6 66.1 55.9 66.35 55.65 66.65 54.4 66.35 53.05 66.1 52.15 66.65
L 52.9 65.45
Q 52.3 65.05 52 64.95 51.35 64.7 50.75 64.95 50.8 65.3 51.3 65.45 51.85 65.35 51.9 65.7 51.55 65.75 50.85 65.45 50.3 65.2 49.5 65.55 50.45 64.2 46.05 63.65 41.7 63 41.2 64.25 40.85 64.45 40.65 63.75 40.45 63.2 39.95 63.6 40.05 63.65 40.2 63.8 40.35 63.95 40.4 64.05 40.15 64.2 39.8 64.05 39.35 63.95 39.1 64.05 39.45 63.1 40.95 63.25 42.7 63.4 42.9 63.15 41.65 62.4 37.35 62.45 33.55 62.5 32.25 61 31.6 61.7 29.15 61.2
M 32.15 58
Q 32.55 58.55 32.05 58.75 31.55 59.05 31.85 59.45 32.4 59.5 33.8 58.95 34.95 58.7 35.2 59.35 34.6 59.45 34.9 59.75 35.15 60 35.8 60.15 37.6 60.5 37.95 59.25 38.1 59.75 38 60.05 37.95 60.6 38 60.65 37.35 60.9 36.2 60.65 35.3 60.5 34.95 61.05 35.95 61.55 36.95 61.6 37.25 61.6 39.15 61.35 38.65 61.1 37.95 61.05 41 60.4 46.8 62.05 53.85 64.15 56.3 64.2 56.05 64.75 56.25 64.8 56.75 64.95 56.8 65.15 57.1 64.95 56.95 64.7 56.65 64.45 56.95 64.05 64.3 66.6 66.6 67.25 72.25 68.9 76.45 69.1 76.15 68.45 74.9 67.75 73.7 67 73.8 66.65 68 65.55 60.15 63.65 59.95 63.5 59.75 63.25 59.4 62.95 59.3 62.85 59.1 63.45 58.75 63.5 58.1 63.5 57.5 63.6 57.3 62.5 55 61.45 53.3 60.75 50.95 60.15 50.7 60.3 50.85 60.4 51.05 60.65 51.05 60.8 50 60.8 47.35 60 45.35 59.35 43.45 60 43.05 59.05 43.85 58.85 43.55 58.6 43.05 58.85 42.3 59.25 41.85 59 41.85 58.8 42 58.7 42.15 58.7 42.45 58.5 40.65 58.75 39.05 58.55 36.95 58.2 36 57.05 35.9 57.7 35.45 57.7 34.5 57.75 34.2 57.9 33.85 57.3 34.65 57.05 31.55 56.25 26.05 55.7 20.15 54.95 19.2 54.8 17.3 55.4 12.9 54.25 8.65 53.05 6.2 54
L 5.8 56.15
Q 8.8 56.85 15.3 57.25 21.35 57.8 23.5 58.45 23.85 58.8 24.75 58.2 25.5 57.55 26.05 57.9 29.55 60.1 32.15 58
M 51.75 60.6
Q 51.8 61.2 52.8 61.05 53.85 60.85 54.05 61.8 53.6 62.7 52.3 62.15 51.05 61.65 51.75 60.6
M 39.25 53.6
Q 39.6 53.6 40.35 54.05 40.95 54.45 41.45 54.4 40.45 52.8 37.2 52.7 33.65 52.5 32.6 51.55 30.85 51.85 28.4 51.45 26.05 51.05 25.15 51.3 25.35 52 26.2 52 26.65 52.05 27.7 52.1 27.5 52.55 26.8 52.45 25.65 52.1 25.4 52.3 25.9 52.85 27.25 53 28.9 53.1 29.3 53.35 28.9 53.65 26.8 53.4 24.8 53.15 23.8 54 25.15 54.4 30.2 54.25 34.2 54.15 35.9 55.4 36.2 55.45 36.2 55.05 35.2 54.3 37.05 54.4 39.35 54.45 39.25 53.6
M 49.2 47.45
Q 49.4 46.4 50.3 47 51.6 47.65 52.15 47.35 52.5 46.35 51.05 46.25 49.2 46.3 48.45 46.25 50.2 44.8 56.55 47.3 60.3 47.4 65.65 48.65 72.5 50.4 74.55 50.65 73.8 49.5 71.3 49.25 68.65 49 67.9 48.2 67.45 48.45 66.85 48.35 66.35 48.15 65.9 48.4 55.7 45.7 51.55 44.8 43.75 43.1 37.05 42.5 36.75 42.4 36.5 42.35 36.55 42.2 36.7 42.1 36.85 41.9 37 41.95 35.5 41.3 32.8 40.95 29.75 40.55 28 41.15 27.95 40.95 28.15 40.9 28.35 40.85 28.65 40.65 25.4 39.85 23.7 39.55 20.7 38.85 19.05 39 18.6 39 18.65 38.5 18.85 37.95 18.5 37.8 15.7 37.55 14.4 37.65 11.85 37.8 12.3 40 12.85 40.25 14.35 40.35 15.8 40.5 16.45 40.65 16.35 41.15 16.2 41.7 16.25 42.1 16.55 42.65 17.2 42.65 18.25 42.9 19.15 43.2 19.7 43.15 18.75 43.8 16.75 43.25 14.25 42.45 13.3 42.7 14.2 43.2 13.7 43.75 13.05 44.55 13.15 45.2 13.9 45.3 21.35 46.35 25.8 47.05 28.15 48.55 26.15 48.7 24.65 48.05 24.5 48.15 24.35 48.65 24.35 49.25 24 49.2 24.25 49.7 24.75 49.25 25.35 48.65 25.85 48.8 25.9 49.1 25.5 49.15 24.9 49.4 24.65 49.4 29.65 50.8 39.15 52.35 50.55 54.25 54.05 55.05 56.65 55.6 60.65 57 61.1 57.4 61.6 56.85 62.15 56.2 62.9 56.6 62.8 57.25 62.45 57.15 61.65 57.15 61.35 57.3 62.8 58 64.3 58.3 66.3 58.75 66.9 57.9 66.4 57.95 65.4 57.3 64.45 56.75 63.7 57 63.55 56.85 63.75 56.35 63.75 56 63.65 55.65 61.2 55.75 57.55 54.25 54.2 52.8 52.55 53.05 53.7 52.1 50.7 52.1 48.25 52.05 48.35 52.35 46.9 51.55 45.35 51.4 43.3 51.25 42.3 51.2
L 41.95 49.9
Q 42.75 49.95 44 50.1 45.1 50.2 46.45 50.2 43.05 49 41.25 48.6 38 47.7 35.9 48.35
L 35.55 47.1
Q 37.55 47.1 42.2 48.3 46.45 49.2 49.5 49 48.2 49.7 52.3 50.5 54.6 51 58.3 51.55 58.3 51.85 57.95 52 57.55 52.1 57.3 52.2 60.6 52.85 66.15 53.8 70.8 54.8 74.3 56.45 75.2 55.75 76.55 56.45 78.3 57.15 79.15 56.95 74.9 54.55 70.3 53.75 70.4 53.05 70.8 53.5 71.25 54.1 71.55 53.75 71.1 52.9 70 53.1 68.4 53.4 67.85 53.3 68.35 52.5 66.6 52 64.8 51.5 65.2 52.3 64.6 52.45 64.75 51.8 64.95 51.2 65.25 51.25 65.1 50.8 64.85 51.15 64.45 51.7 63.95 51.55 64 51.3 64.1 51.25 64.3 51.2 64.55 51.05 63.55 50.45 61.5 50.25 60.2 50.15 59.35 49.9
L 59.25 50
Q 59.153125 49.8546875 59.05 49.75 59.15625 49.8515625 59.35 49.9 59.65 49.6 58.9 49.35 58 49 57.8 49.7 57.45 49.7 56.75 48.85 56.2 48.3 55.45 48.6 55.45 48.1 56.05 48.3 56.7 48.55 57.05 48.15 56.45 47.6 55.1 47.9 53.85 48.2 53.4 47.1 53.7 48.2 52 47.85 49.45 47.3 49.2 47.45
M 48.5 44.85
Q 48.25 45.5 47.85 45.95 47.45 46.4 47.35 46.9 46 45.05 41.9 44.55 38 44.2 37.55 45.55 37.55 44.85 37.05 44.65
L 36.25 44.25
Q 34.35 44.55 31 43.55 29.05 43.1 25.1 41.6 26.9 42.15 31.65 42.65 35.7 43.1 37.2 43.95 39 43.4 42.9 44.3 46.95 45.3 48.5 44.85
M 64.75 21.55
Q 64.3 21.4 65.2 20.9
L 66 20.45
Q 62 18.05 55.7 16.15 56 16.25 56 16.55 54.85 16.1 53.7 15.95 52.4 15.85 52.05 16.3 51.75 15.25 49.65 14.9 47.55 14.55 48 15.6 47.4 15.35 45.35 14.65 44.1 14.15 43.6 13.7 42.75 14.6 41.5 13.95 39.6 13.05 39.1 13.05 39.25 13.35 39.9 13.35 40.35 13.35 40.15 13.85 39.45 13.8 36.7 13 34.5 12.35 33.3 12.9 35.5 14.55 39.4 16 40.75 16.5 46.2 18.3 50.8 19.85 53.8 19.4 52.3 18.55 48.7 17.7 45.5 16.95 44.3 15.95 47.7 16.8 48.9 17 50.8 17.4 47.75 15.85 51.2 17.2 54.1 18 55.45 18.35 60.3 20.2 63.4 21.4 64.75 21.55
M 85.05 81.15
Q 84.5 80.3 84.55 80.05 84.7 79.8 85.7 79.95 80.9 76.95 73.9 74.85 70 73.65 62.15 71.45 62.4 71.7 62.45 71.75 62.55 71.95 62.45 72.1 60.6 71.5 55.75 70.35 51.5 69.2 49 68.35 48.85 69.15 48.35 69.25 47.75 69.35 47.05 68.85 47.85 68.95 47.3 68.05 46.8 67.15 46.4 67.5 46.55 67.85 45.55 67.6 44.55 67.35 44 66.8 43.6 66.75 42.75 67.5 42 68.15 41.5 67.8 41.9 67.6 42 67.5 42.3 67.35 42.15 67 41.9 67.25 41.35 67 40.7 66.65 40.55 66.9 40.75 67.15 40.85 67.35 40.9 67.6 40.6 67.85 37.95 67.4 32 66.25 26.9 65.35 24.05 65.35 34.1 67.5 39.05 68.45 47.75 70.25 53.6 71.65 53.65 72.3 54.05 72.75 54.45 73.35 55.1 72.85 55.15 72.35 54.7 72.35 54.4 72.3 54.5 72 54.95 71.95 55.2 72.35 55.6 73 56.05 73.25 56.25 73.05 56.4 72.6 56.45 72.35 56.7 72.45 56.4 73.1 57.1 73.5 57.85 73.9 57.8 74.25 56.25 73.75 53.3 73.3 50.25 72.85 48.75 72.35 48.5 72.7 48.4 73.2 48.25 73.4 47.65 73.2 48 72.3 44.85 71.75 41.75 71.15 41 71.5 41.4 71.4 42.25 71.7 43.15 71.95 42.95 72.25 42 72.7 40.7 71.5 39.45 70.45 38.6 70.9 38.85 71.2 38.65 71.8 38.15 71.3 36.55 71.15 35.25 71 35.1 70.5 36.25 70.8 36.95 70.95 38.1 71.15 38.05 70.45 37.3 70.4 34.25 69.95 31.75 69.45 32.55 68.45 32.15 68.55 30.75 68.05 29.95 67.75 29.75 68.8 30.05 68.7 30.8 68.85 31.5 68.9 31.85 68.8 31.75 69.7 30.2 69.25 28.7 68.85 28.25 67.95 27.45 68.8 26.2 67.95 24.75 67 24.4 67 23.05 67.75 18 66.65 12.35 65.6 9.95 66.2 10.45 67.05 12.3 66.85 14.45 66.65 15.15 67.05 15.25 67.85 16.35 68.05 17.45 68.3 17.3 67.5
L 17.9 67.35
Q 19.3 67.35 18.75 68.3 19.15 68.35 19.8 67.9 20.3 67.5 21.1 68.05 20.85 68.35 20.85 68.55 20.85 68.8 21.15 68.95 21.5 68.65 21.7 69.35 23 68.15 25.85 68.65 26.9 68.85 29.65 69.75 29.25 69.7 28.55 69.95 27.65 70.25 27.5 69.45 26.95 70.15 27.35 70.4 27.95 70.65 28.35 71 30.6 70.9 35.45 72.35 40.3 73.85 42.65 73.65 43.75 74.7 47.05 75.05 50.55 75.35 51.65 75.6 53.35 75.85 54.95 76.15 55.4 76.2 59 77.35 61.05 78 61.65 77.25 64.7 79.6 68.2 78 67.7 77.75 67.9 77.15 68.15 76.5 67.6 76.2 66.65 75.9 64.05 75.6 61.7 75.05 61.5 73.85 61.9 73.9 66.65 75.35 69.75 76.25 71.75 76.25 73.8 77.8 78.45 79.05 83.8 80.5 85.05 81.15
M 82.15 67
Q 82.65 66.85 83.05 66.25 81.85 65.5 79.75 64.7 78.1 64 76.7 62.75 76.15 63.1 76.35 63.8 75.85 64.15 75.4 63.75 75.05 63.4 74.55 63.55 74.6 63.25 74.7 63.2 73.85 63.1 72.7 62.7 71.15 62.25 70.2 62.25 70.1 62.15 70.4 62.05 70.6 61.85 70.65 61.8 70.2 61.65 65.8 60.55 62.05 59.5 60.25 58.7 61.2 58.85 64.25 59.6 66.7 60.25 68.35 60.4 65.5 59.35 63.95 58.85 61.25 58.1 59.3 58.95 58.8 58.8 53.3 57.55 49.4 56.7 47.3 55.7 47.45 55.85 47.25 56.1 47 56.5 46.7 55.95 46.5 56 46.6 56.15 46.95 56.45 46.95 56.6 46.45 56.75 45 56.65 43.65 56.45 43.2 56.75 44 57.45 45.2 57.75 46.5 58.1 47.2 57.55 47.7 57.75 48.35 58.55 64.65 61.3 80.8 67.1 81.45 67.05 82.15 67
M 91.25 55.95
Q 91.45 55.45 91.15 54.95 87.7 54.4 86.05 54.3 82.9 54.15 81.55 55.7 83.95 56.65 86.3 57.15 89.2 57.65 91.3 57 91.05 56.5 91.25 55.95
M 81.75 43.7
Q 82 43.15 82.5 42.7 81.2 41.65 80.45 41.35 79.55 40.95 78.85 41.45 77.6 40.6 76.1 40.15 76.1 40.1 73.3 39.5 73.3 39.55 73.65 40.15 73.9 40.55 73.45 40.9 67.95 39.2 61.1 37.45 60.7 37.4 49.05 34.6 49.4 34.4 49.5 34.35 49.55 34.15 49.2 33.85 45.4 34.3 41.9 33.25 38.8 32.3 35.1 30 34.6 30 34.2 30.3 33.9 30.55 33.7 30.55 33.85 30.4 33.65 30 33.35 29.6 33.35 29.45 32.85 29.5 32.55 29.75 32.25 30.05 32.05 30.05 31.9 29.65 31.1 29.2 30.45 28.75 30.7 28.15 32.85 27.85 37.2 28.35 41.65 28.85 43.75 28.6
L 45.3 29.9
Q 45.75 29.9 45.8 29.5 45.85 29.15 46.15 29.25 46.7 30 46.8 30 47.1 30.25 47.65 30.05 47.95 29.8 50.05 30.45 51.85 30.95 52.9 31.35 56.5 31.45 65.3 34.45 74.15 37.45 78.25 37.55 79.25 35.4 76.3 34.55 75.6 34.3 73.85 33.9 72.3 33.55 71.75 33.1 71.95 33.35 72.05 33.5 72.15 33.65 72.05 33.8 70.4 33.15 67.85 32.5 65.65 31.8 63.75 30.5 64.35 29.9 64.3 29 64.2 27.95 64.35 27.65 59.55 25.05 51.6 23.5 41.45 21.55 38.5 20.55 38 20.85 38.35 21.3 38.65 21.7 38.15 21.95 38.25 21.15 37.35 20.45 36.5 19.85 35.65 19.9 36.25 19.25 35.5 18.8 34.65 18.3 34.95 17.7 33.95 17.6 32.55 16.95 32.4 17.15 32.15 17.8 32 18.2 31.5 18.25 31.75 18.55 32.65 18.45 33.35 18.25 33.2 18.75 31.4 18.7 30.7 20.2 29.95 21.7 30.85 23.2 32.9 23.3 35.95 24.35 38.55 25.3 40.55 26.4 36.65 25.6 31.8 25.65 32.55 26.1 31.75 26.85 31.25 26.5 29.5 26.15 28 26 27.85 25.35 29.4 25.8 31.6 25.9 24.3 24.05 23.95 24 19.6 23.15 16.5 23.75 16.8 24.7 18.25 24.8 19.6 24.95 19.7 23.9 20.05 24.15 21.45 24.35 22.25 24.6 22.25 25.5 23.2 24.45 24.75 24.8 26.55 25.45 27.4 25.45 27.15 26 27.5 26.6 27.9 27.1 27.35 27.55 27.75 28.1 29.3 28.05 30.5 27.95 30.3 29.1 25.55 28.4 23.2 27.8 19.3 26.85 16.6 25.2 17.45 25.85 16.2 25.65 14.95 25.45 14.45 24.7 13.85 26 10.6 25.35 7.4 24.75 6.75 26.4 8.25 25.55 11.3 26.8 14.6 28.1 15.95 27.55 15.75 27.2 14.95 27.3 14.35 27.4 14.45 26.8 18.1 28.15 22 29.35 26.45 30.7 29.4 31.25 29.7 30.95 29.75 30.3 31.9 31.75 34.9 32.65 38.15 33.6 39.8 33 40.2 33.95 43.3 34.8 46.85 35.45 47.75 35.65 49.75 36.1 53.45 37.05 53.35 37.05 53.2 37.05 50.05 37.15 52.85 37.3 52.8 37.95 52.4 37.75 51.8 37.45 51.55 37.65 53.65 39.5 56.5 40.25 58.9 40.8 62.45 40.65 62.2 41.2 62.4 42.1 57.45 41.15 54.9 40.15 54.35 40.25 54.1 40.25 53.6 40.15 53.65 39.5 53.15 40 52.3 39.8 51.75 39.65 51.3 40.35 51.05 39.9 50.6 40.05 49.7 40.35 49.2 40.25 49.7 39.25 49.2 39 48.25 38.85 47.75 38.6 48.45 38.35 49.5 38.05 50.35 37.8 51.05 38.35 51.45 38.25 51.2 37.95 50.95 37.75 50.55 37.9 50.5 37.55 50.6 37.2 50.75 36.75 50.6 36.5 50.25 36.55 50.2 36.8 50.15 36.95 50.35 36.95 50.3 37.5 49.65 37.4 48.7 37.15 48.45 37.4 48.65 36.75 48.9 36.65 48.4 36.4 45 36.25 42.25 36.15 41.1 34.85 40.1 35.2 39.55 35.15 38.8 35.15 38.6 34.4 38.35 34.55 38.5 34.65 38.55 34.7 38.6 34.8 37.2 35.2 32.85 34.05 28.35 32.9 26.55 33.35 25.9 33.35 25.75 32.65 26.15 32.85 27.9 32.6 27.15 32.3 27.15 32.25 27.1 31.95 27.1 31.5 26.45 31.5 25.25 31.35 24.1 31.35 23.35 31.85
L 23.75 32.2
Q 19.9 31.95 17.35 30.55 16.75 31.2 16.3 31.5 17.35 32.55 16.6 32.65 21.65 34.55 31.35 35.7 37.2 36.4 41 37 41.25 36.9 41.6 36.7 41.6 36.9 41.6 37.15 44.3 37.55 45.9 38 45.5 38.55 43.75 38.05 42 37.45 41.6 38.05 41.45 37.8 41.6 37.4 41.6 37.25 41.6 37.15 41.35 37 41 37 39.9 37.45 39.3 37.65 38.1 37.8 37.55 37 35.4 37.9 33.2 37.65 29.8 37.4 29.2 37.3 30.1 38.1 31.55 38.45 32.4 38.7 34.25 38.8 33.05 39.3 34.1 39.55 34.7 39.8 36.3 40.05 35.55 40.8 36.85 40.95 38 41.2 39.25 40.95 38.05 40.65 38.15 40.6 38.55 40.25 38.1 39.55 38.75 39.35 39.45 39.75 40.1 40.1 40.65 40 40.6 40.1 40.55 40.55 40.45 41.05 40.3 41.1 40.05 41.15 39.95 40.6 39.85 40.05 39.05 40.35 39.6 40.8 39.25 40.95 39.45 41.4 40.1 41.45 40.55 41.55 41.4 41.45 41.35 41.45 41.15 41.3 40.95 41.1 40.9 40.9 41.1 41.05 41.75 41.05 42.4 41.1 42.7 41.15 42.65 41.45 42.3 41.4 41.95 41.3 41.65 41.45 41.95 42.2 43.05 41.8 43.2 40.95 42.55 40.9 41.9 40.7 41.75 40.35 42.25 40.5 45.3 40.95 47.35 41.2 48.5 41.8 46.85 42.15 46.6 42.25 45.4 42.25 43.7 41.6 43.2 42.35 44.3 42.4 44.8 42.4 46 42.4 46.1 42.7 45.75 43.1 45.65 43.15 45.65 43.2 46.4 43.4 48.1 43.55 49.45 43.7 52.4 43.75 52.5 44.15 52.1 44.25 51.75 44.25 51.55 44.4 52.8 44.65 55.15 45.05 57.3 45.5 59.15 45.2 59.15 44.95 58.9 44.75 58.65 44.5 58.6 44.3 59.25 44.2 60.35 45.25 61.05 45.95 60.95 46.15 61.7 46 62.9 46.4 63.55 46.65 64.75 47.25 65.5 47.55 67.05 47.65 68.85 47.7 69.2 47.8 70.55 48.05 74.05 49.35 77.15 50.4 79.4 50.75 79.3 51.2 78 51.45 76.9 51.7 76.8 50.95 76.4 51.8 75.45 51.85 74.05 51.8 73.3 51.85 73.95 52.5 75.15 52.7 76 52.8 77.6 52.8 77.5 52.75 77.25 52.6 77.2 52.5 77 52.3 77.75 52.1 79.05 52.6 80.15 53.05 81.2 52.55 81.1 52.3 81.2 52.05 81.35 51.7 81.3 51.55 83.7 51.6 87.05 53.15 90.95 54.9 92.6 55.2 93.8 52.6 90.7 50.95 87.95 49.45 85.6 49.9 85.6 49.2 84.3 48.85 82.75 48.4 82.4 47.9 82.65 47.4 82.4 46.4 82.2 45.6 83.15 45.35 82.4 45.05 81.35 44.7
L 81.75 43.7
M 54.1 27.3
Q 56.455859375 27.601953125 58.65 28.35 61.4 29.25 62.8 30.55 61.35 30.5 58.2 29.25
L 55.15 28.15
Q 54.85 28.4 54.7 27.95 54.503125 27.359375 54.1 27.3
M 59.75 38.85
Q 59.85 39.05 60.15 39.2 60.65 39.4 60.85 39.8 59.4 39.55 57.05 39 54.3 38.3 53.4 38.2 53.4 37.7 54.05 37.75 54.75 37.95 54.95 37.8 54.95 37.55 54.75 37.45 56.75 38 59.15 38.7 59.4 38.75 59.75 38.85
M 68.1 41.1
Q 68.5 41.2 68.7 41.45 68.15 42.15 66.6 41.6 65.1 41.15 65.35 40.4 66 40.6 66.6 40.7 66.9 41.05 67.6 40.95 67.65 40.95 67.7 41.05 67.9 41.05 68.1 41.1
M 69.4 41.35
Q 69.7 41.4 70 41.45 71.5 41.7 75.5 43.1 76.25 43.35 76.95 43.55 77 43.55 77.05 43.65 77.6 44 77.8 44.3 76.15 45.45 72.75 44.5 68.85 43.45 66.95 43.95 66.4 43.95 66.85 43.5 67.2 42.95 66.9 42.65 64.55 42.35 62.45 42.1 63.95 41.05 67.1 42.2 70.55 43.5 71.8 43.1 71.35 42.65 70.45 42.45 69 42.25 68.85 42.2 68.9 41.65 69.4 41.35
M 25.6 32.3
L 25.6 32.25
Q 25.35 32.25 25.15 32.25 25.5 32 25.65 31.85 26.45 31.35 26.45 32.3 26.1 32.05 25.95 32.05 25.8 32.05 25.6 32.3 Z"/>
</g>
</defs>

<g transform="matrix( 1, 0, 0, 1, 0,0) ">
<use xlink:href="#Layer1_0_FILL"/>
</g>
</svg>
