
<svg xmlns="http://www.w3.org/2000/svg" version="1.1" xmlns:xlink="http://www.w3.org/1999/xlink" preserveAspectRatio="none" x="0px" y="0px" width="100px" height="100px" viewBox="0 0 100 100">
<defs>
<g id="Layer1_0_FILL">
<path fill="#363435" stroke="none" d="
M 57.3 65.7
Q 56.25 66.8 58.65 66.9
L 62.05 66.75 57.3 65.7
M 42.95 67.6
L 41.85 67.5 40.9 67.9 41.85 68.4
Q 42.35 68 42.95 67.6
M 47.65 67.15
L 49.2 67.25
Q 49.55 67.8 52.2 67.65 55.3 67.35 56.65 67.2
L 56.7 66.7 53.75 66.3
Q 52.7 66.7 50.75 66.55 48.85 66.5 47.65 67.15
M 47.6 67.65
L 45.65 66.85 44 67.8 47.6 68.3 47.6 67.65
M 72.3 65.1
Q 71.95 65.3 71.15 65.55 70.35 65.85 69.85 66.35
L 70.9 65.95
Q 71.2 66.4 71.8 66.4 73.15 66.35 74 66.3
L 74.5 65.35 72.3 65.1
M 64.45 65.6
L 66.15 66.8 67.15 66.55 67.15 66 64.45 65.6
M 63 65.85
L 63.35 66.95 64.45 66.1 63 65.85
M 30.95 74
L 28.2 73.75 22.2 74.6
Q 24.95 76.15 25.6 76.25
L 26.15 75.8
Q 25.95 75.7 25.75 75.2 27.55 74.55 28.1 74.7 28.45 74.8 28.6 75.45
L 30.2 75.6 30.95 74
M 35.15 67.75
L 34.4 68.8
Q 35.35 68.65 35.5 68.65 35.55 68.5 36.25 67.95
L 35.15 67.75
M 37.2 68.7
Q 39.05 68.6 39.3 68.35 39.65 67.7 40 67.35
L 37.2 68.7
M 37.05 72.9
Q 37 73.45 36.7 74.1 36.45 74.6 36.25 75.15 43.25 74.5 46.35 74.1 51.8 73.6 54.45 72.2
L 54.3 73.3
Q 73.35 72.9 81.25 71 62 69.85 51.45 72.85
L 52.55 71.95
Q 50.45 71.9 45.65 72.9 42.9 73.3 37.95 74.15 38.5 73.35 38.35 73.4 38.15 73.25 37.05 72.9
M 34.4 73.35
L 31.55 73.6
Q 32.3 74.7 32.9 74.6 33.45 74.4 33.45 75.4
L 34.8 74.95
Q 35.1 74.85 35.9 73.9
L 36.7 74.1 34.4 73.35
M 23 67.55
L 22.2 67.85 22.2 68.9 32.15 69.2 23 67.55
M 25.35 62.85
Q 25.85 63.7 25.85 64.65 28.45 63.55 44.65 62.6 58.85 61.85 61.2 59.6
L 54.1 58.5
Q 50.25 60.2 40.9 60.65 26.15 61.65 25.2 61.65 24.8 62.15 25.35 62.85
M 24.2 46.25
Q 21.9 46.25 20.2 46.1 18.8 48.65 18.8 50.2 18.8 51.7 20.2 52.2 55.512109375 51.7291015625 66.7 51.6 77.9294921875 51.5193359375 78.8 52.25 79.7265625 53.0310546875 79.3 51.65 78.9189453125 50.2666015625 78.95 50.25 79.1201171875 50.3439453125 79.1 50.1 79.1107421875 50.0662109375 79.1 50 79.075390625 49.935546875 79.05 49.85 78.34296875 47.903125 79.05 46.4 27.02421875 46.2642578125 24.2 46.25
M 26 37.45
L 25.85 38
Q 26.65 38 33.45 38 37.8 37.8 39.45 38.8
L 39.6 37.8 40.7 37.45 38.7 36.45 26 37.45
M 19.8 27.95
L 19.8 28.1
Q 28.85 28.15 35 29.1
L 35 28.6 31.95 27.4
Q 27.8 28.35 19.8 27.95
M 25.2 23.25
L 24.3 21.85 23.6 22.9 25.2 23.25
M 72.4 28.2
L 65.65 26.65
Q 62 28 53.2 27.75 39.2 27.65 38.35 27.65 37.95 28.1 38.5 28.8 38.9 29.65 38.9 30.6 41.45 29.7 56.7 29.95 70.15 30.2 72.4 28.2
M 64.1 37.65
L 66.8 37.75 66.95 37.25 65.2 36.4 64.1 37.65
M 79.45 34.65
L 80.85 32.85 22 33.7 19.8 35.05 71.55 34.55
Q 74 34.45 79.45 34.65
M 76.9 29.65
Q 77.2 29.2 76.5 28.6
L 75.65 30.4
Q 76.55 29.7 76.9 29.65
M 75.4 35.75
Q 73.95 36.65 72.4 36.65 71.15 36.65 68.1 35.85
L 67.95 37.4 77.3 37.7 78.05 36.5 75.4 35.75
M 79.45 36.55
L 78.5 36 77.9 37.4 79.45 37.65 79.45 36.55
M 57.65 36.35
L 49.7 36.45 49.75 38.1 62.7 37.95 57.65 36.35
M 45.5 36.15
Q 45.1 36.5 43.3 37.35
L 48.85 37.75
Q 48.1 37 47.65 36.75 47.05 36.6 45.5 36.15
M 57.5 22.75
L 56 22.4 53.05 22.85 57.35 23.7 57.5 23.25 57.5 22.75
M 58.1 22.3
Q 58.65 23.3 59.2 23.5 60.1 23.4 61.2 23.6
L 58.1 22.3
M 52.35 23.65
L 51.5 22.45 50.95 23.45 52.35 23.65
M 81.25 78.15
L 81.25 77.7 80.8 77.65 78.65 77.85 81.25 78.15
M 81.25 66.05
L 81.25 64.85
Q 76.8 65 75.55 64.5
L 75 65.45
Q 75.85 66.35 81.25 66.05 Z"/>
</g>
</defs>

<g transform="matrix( 1, 0, 0, 1, 0,0) ">
<use xlink:href="#Layer1_0_FILL"/>
</g>
</svg>
