
<svg xmlns="http://www.w3.org/2000/svg" version="1.1" xmlns:xlink="http://www.w3.org/1999/xlink" preserveAspectRatio="none" x="0px" y="0px" width="100px" height="100px" viewBox="0 0 100 100">
<defs>
<g id="Layer1_0_FILL">
<path fill="#363435" stroke="none" d="
M 42.1 52.9
Q 42.05 52.95 42 53.15 41.85 53.65 41.9 54
L 41.95 54.15
Q 42 54.1 42.1 53.9 42.2 53.4 42.15 53 42.15 52.85 42.1 52.9
M 46.75 52.05
Q 46.5 50.7 45.7 51.75 45.4 52.05 45.1 52.55
L 44.85 53
Q 44.35 53.1 43.75 52.9 43.3 52.75 42.9 53 42.65 53.05 42.5 53.2 42.25 53.45 42.55 54 43.1 54.8 43.9 54.55 44 54.5 44.55 54.25 44.95 54.05 45.25 54 45.65 53.95 46.25 53 46.55 52.5 46.75 52.05
M 59.95 54.05
Q 60 53.45 59.65 53.25 59.35 53.05 58.9 53.15 58.5 53.3 58.4 53.55 58.25 53.8 58.65 54.05 59 54.3 59.3 54.45 59.85 54.65 59.95 54.05
M 57.85 53.05
Q 57.8 53.45 57.9 53.95 58 54.15 58.05 54.2
L 58.1 54.05
Q 58.15 53.7 58 53.2 57.95 53 57.9 52.95 57.85 52.9 57.85 53.05
M 57.45 54.05
Q 57.75 53.5 57.5 53.25 57.35 53.1 57.1 53.05 56.7 52.8 56.25 52.95 55.65 53.15 55.15 53.05
L 54.9 52.6
Q 54.6 52.1 54.3 51.8 53.5 50.75 53.25 52.1 53.45 52.55 53.75 53.05 54.35 54 54.75 54.05 55.05 54.1 55.45 54.3 56 54.55 56.1 54.6 56.9 54.85 57.45 54.05
M 72.5 65.85
Q 72.55 65.55 72.4 65.1
L 72.35 64.85
Q 72.3 65.2 72.4 65.65 72.5 66.1 72.5 65.85
M 71.05 64.75
Q 71 64.7 71 64.85 70.95 65.25 71.05 65.75 71.15 65.95 71.2 66
L 71.25 65.85
Q 71.3 65.5 71.15 65 71.1 64.8 71.05 64.75
M 76.3 65.85
Q 76.3 65.3 75.95 65.05 75.65 64.85 75.25 65 74.8 65.1 74.7 65.35 74.6 65.65 75 65.85 75.35 66.1 75.6 66.25 76.2 66.45 76.3 65.85
M 68.8 58.35
Q 68.7 58.25 68.45 58.35 68.25 58.45 68.3 58.65 68.3 58.85 68.65 58.95 68.75 59.05 68.8 59.1 68.95 59.2 68.95 58.95 69 58.55 68.8 58.35
M 65.05 57.4
Q 64.9 57.25 64.7 57.35 64.5 57.45 64.55 57.65 64.55 57.85 64.85 58 65 58.1 65.05 58.15 65.2 58.2 65.2 58 65.25 57.55 65.05 57.4
M 61.7 54.05
Q 61.75 53.45 61.4 53.25 61.1 53.05 60.65 53.15 60.25 53.3 60.15 53.55 60 53.8 60.45 54.05 60.75 54.3 61.05 54.45 61.65 54.65 61.7 54.05
M 62.6 53.95
Q 62.55 53.9 62.55 54.05 62.5 54.45 62.6 54.9 62.7 55.1 62.75 55.15
L 62.75 55.05
Q 62.8 54.65 62.7 54.15 62.65 53.95 62.6 53.95
M 62.45 54.05
Q 62.45 53.6 62.35 53.45 62.25 53.35 62.1 53.45 61.9 53.55 61.95 53.7 61.95 53.85 62.1 54 62.15 54 62.2 54.05 62.3 54.1 62.3 54.15 62.45 54.2 62.45 54.05
M 69.9 55.35
Q 69.4 55.2 68.75 55.3 68.15 55.4 68 55.6 67.8 55.85 68.45 56 68.5 56 68.8 56.3 69.2 56.6 69.45 56.7 70.3 57.15 70.4 56 70.45 55.5 69.9 55.35
M 66.8 54.85
Q 66.7 54.75 66.7 55.05 66.8 56.4 67.05 56.55 67.25 56.7 67.4 56.05 67.5 55.8 67.55 55.55 67.55 55.25 67.5 55.05 67.35 54.6 66.85 55.05 66.9 55 66.85 54.95 66.85 54.9 66.8 54.85
M 67.2 53.9
Q 67.45 53.95 67.55 53.1 67.5 53.15 67.3 52.85
L 66.75 51.95
Q 65.9 50.8 65.8 52.1 65.85 51.8 66.05 52.25 66.4 52.9 66.6 53.25 66.95 53.85 67.2 53.9
M 67.8 52.8
Q 67.7 52.6 67.65 53.05 67.8 53.85 67.95 54.4 68.25 55.4 68.4 54.15 68.35 54.3 68.25 54.15 68.2 54 68 53.45 67.85 52.9 67.8 52.8
M 80.05 60.95
Q 80.05 60.55 79.9 60.1 79.9 59.85 79.85 59.85 79.75 59.8 79.75 59.95 79.75 60.35 79.9 60.85 79.9 61.05 79.95 61.05 80.05 61.1 80.05 60.95
M 77.2 59.3
Q 77 58.95 76.8 58.85 76.3 58.5 76.3 59.95 76.25 60.55 76.45 60.9 76.7 61.2 77 61.2 77.25 61.2 77.4 60.9 77.55 60.55 77.4 59.95 77.35 59.65 77.2 59.3
M 78.4 59.95
Q 78.45 59.6 78.3 59.4 78.2 59.25 78 59.3 77.8 59.35 77.8 59.5 77.8 59.75 78.1 59.95
L 78.25 60.1
Q 78.4 60.2 78.4 59.95
M 76.3 57
L 76.05 56.3
Q 75.85 55.7 75.85 56 75.9 56.8 76 57.25 76.15 58.25 76.3 57
M 76.7 56.25
Q 76.6 55.8 76.6 56 76.6 56.35 76.65 56.8 76.75 57.25 76.75 57 76.8 56.7 76.7 56.25
M 76.9 55.8
Q 76.85 55.8 76.85 56 76.8 56.4 77 56.95 77.05 57.15 77.1 57.2 77.15 57.25 77.2 57 77.2 56.6 77.05 56.05 77 55.85 76.9 55.8
M 77.45 57.15
Q 77.5 57.2 77.5 57 77.55 56.65 77.4 56.15 77.35 55.95 77.35 55.9 77.3 55.85 77.25 56 77.2 56.4 77.35 56.9 77.4 57.1 77.45 57.15
M 80.9 58.65
Q 80.6 58.1 80.4 57.85 79.7 56.85 79.6 58 79.6 57.9 79.85 58.3 80.2 59.05 80.3 59.2 81 60.45 81.15 58.95 81.15 59 80.9 58.65
M 73.4 59.75
Q 73.15 59.55 72.6 59.2 71.6 58.5 70.8 58.5 70.45 58.55 70.05 58.75 70.05 58.5 69.95 58.35 69.8 58.25 69.55 58.35 69.35 58.45 69.35 58.65 69.35 58.85 69.7 58.95 69.2 59.3 68.65 59.95 68 60.7 68.85 60.9 69.05 60.95 69.95 60.95 70.1 60.95 72 60.9 73.15 60.9 74.1 60.95 74.2 60.95 74.6 61.15 75.05 61.3 75.25 61.35 76.05 61.4 76 59.95 75.95 60 75.9 59.95
L 75.9 59.8
Q 75.89765625 59.90234375 75.85 59.95 75.1 60.6 74.2 60.2 73.9 60.1 73.4 59.75
M 70.9 56.2
Q 70.95 56.25 71 56 71.05 55.6 70.9 55.1 70.8 54.9 70.7 54.85
L 70.65 55.05
Q 70.6 55.45 70.75 55.95 70.85 56.2 70.9 56.2
M 71.9 57
Q 71.95 56.7 71.85 56.25 71.75 55.8 71.75 56 71.7 56.35 71.8 56.8 71.9 57.25 71.9 57
M 73.15 55.25
Q 73 54.8 73 55.05 73 55.35 73.05 55.8 73.15 56.25 73.15 56 73.2 55.7 73.15 55.25
M 72.8 55.1
Q 72.7 54.9 72.7 54.85 72.6 54.8 72.55 55.05 72.55 55.45 72.7 55.95 72.8 56.2 72.85 56.2 72.9 56.25 72.9 56 72.95 55.6 72.8 55.1
M 79.45 53.85
Q 79.5 54.3 79.5 54.05 79.55 53.75 79.45 53.3 79.35 52.85 79.35 53.05 79.3 53.4 79.45 53.85
M 79.85 54.05
Q 79.9 53.7 79.75 53.2 79.75 53 79.65 52.95 79.6 52.9 79.6 53.05 79.6 53.45 79.7 53.95 79.75 54.15 79.8 54.2 79.85 54.25 79.85 54.05
M 68.95 52.65
L 68.9 53.05
Q 68.65 53.45 68.6 53.7 68.55 53.95 68.6 53.95 68.7 54 68.85 53.75 69.05 53.5 69.2 53.05 69.15 51.45 69.05 52 69.05 52.15 68.95 52.65
M 76.7 54.05
Q 76.85 54.05 77.95 53.55 79.1 53.1 79.1 53.05 79 51.9 77.95 52.35 77.8 52.45 77.2 52.8 76.75 53.05 76.6 53.05 76.45 53.05 72.7 53.05 70.45 53 69.2 53.05 70.6 54.2 72.85 54.2 73.55 54.25 74.8 54.15 76.15 54.05 76.7 54.05
M 16.45 63.2
Q 16.25 63.1 16.1 63.25 15.9 63.4 15.95 63.85 16 64.05 16.1 64 16.2 63.95 16.3 63.85 16.6 63.7 16.6 63.5 16.65 63.3 16.45 63.2
M 17.15 62.75
Q 17.1 62.75 17.05 62.95 16.9 63.45 16.95 63.85 16.95 64 17.05 63.95
L 17.1 63.7
Q 17.2 63.25 17.2 62.85 17.2 62.7 17.15 62.75
M 9.55 54.1
Q 9.45 54.3 9.4 54 9.55 55.4 9.85 54.35 10 54 10.1 53.5
L 10.15 53
Q 10.15 52.55 10 52.75 9.95 52.85 9.8 53.4 9.6 53.95 9.55 54.1
M 8.75 52.4
Q 8.6 52.3 8.5 52.45 8.35 52.6 8.45 53 8.45 53.15 8.55 53.1 8.6 53.1 8.65 53 8.9 52.9 8.9 52.65 8.9 52.5 8.75 52.4
M 18.25 59.15
Q 18.15 59.6 18.2 59.9 18.25 60.15 18.3 59.7 18.4 59.25 18.4 58.9 18.35 58.7 18.25 59.15
M 17.8 60.05
Q 17.8 60 17.85 59.8 18 59.3 17.95 58.9 17.95 58.75 17.9 58.8 17.85 58.85 17.8 59.05 17.65 59.55 17.7 59.9 17.7 60.1 17.8 60.05
M 20.15 59.8
Q 20.1 59.8 20.1 60.05 19.95 60.5 19.95 60.9 19.95 61.05 20.05 61 20.1 61 20.1 60.8 20.25 60.3 20.25 59.9 20.25 59.75 20.15 59.8
M 17.05 59.3
Q 16.9 59.45 16.95 59.9 16.95 60.05 17.05 60 17.15 60 17.2 59.9 17.45 59.75 17.45 59.55 17.5 59.4 17.3 59.3 17.2 59.2 17.05 59.3
M 16.55 57.95
Q 16.5 57.7 16.45 58.15 16.3 58.6 16.35 58.9 16.4 59.15 16.45 58.7 16.55 58.25 16.55 57.95
M 15.6 57.95
Q 15.6 57.7 15.55 57.75 15.5 57.8 15.4 58 15.25 58.5 15.25 58.9 15.3 59.15 15.4 59.1
L 15.5 58.85
Q 15.65 58.35 15.6 57.95
M 16.9 57.95
Q 16.9 58.25 17.25 58.15 17.45 58.05 17.65 57.95 17.85 57.6 17.8 57.35 17.7 57.15 17.45 57.15 17.2 57.15 17.05 57.3 16.85 57.55 16.9 57.95
M 19.6 57.8
Q 19.4 58.05 19.1 58.6 18.85 58.95 18.85 58.9 19 60.4 19.7 59.15 19.8 59 20.15 58.25 20.4 57.85 20.4 57.95 20.3 56.8 19.6 57.8
M 15.1 57.95
Q 15.1 57.7 15 58.15 14.95 58.6 14.95 58.9 14.95 59.15 15.05 58.7 15.1 58.25 15.1 57.95
M 13.3 56
Q 13.2 56.55 13.15 56.95 13.15 57.3 13.25 57.4 13.3 57.55 13.35 57.4 13.45 57.25 13.45 56.9 13.45 56.5 13.45 55.95 13.4 55.45 13.3 56
M 14.85 56.5
Q 14.8 56.2 14.4 56 14.05 55.85 13.75 56.05 13.45 56.25 13.5 56.95 13.6 57.5 14.05 57.3 14.25 57.15 14.5 56.95 14.95 56.8 14.85 56.5
M 15.05 56.75
Q 15.1 56.3 15.1 55.95 15.1 55.75 15 56.2 14.95 56.65 14.95 56.95 14.95 57.2 15.05 56.75
M 12.55 55.05
Q 12.2 54.85 11.95 55.05 11.65 55.3 11.65 55.95 11.75 56.5 12.2 56.3 12.45 56.2 12.7 55.95 13.1 55.8 13 55.5 12.9 55.2 12.55 55.05
M 10.6 54.4
Q 10.3 54.6 10.35 55 10.4 55.5 10.8 55.3 11.05 55.2 11.25 55 11.6 54.7 11.5 54.5 11.4 54.3 11.1 54.3 10.8 54.25 10.6 54.4
M 11.5 49.5
Q 11.2 49.7 11.25 50.05 11.3 50.6 11.75 50.4 11.95 50.3 12.2 50.05 12.5 49.8 12.4 49.6 12.35 49.4 12.05 49.35 11.75 49.35 11.5 49.5
M 12.7 50.85
Q 12.8 50.4 12.75 50.05 12.75 49.85 12.65 50.3 12.55 50.75 12.6 51.05 12.6 51.3 12.7 50.85
M 15.55 51.65
Q 16.05 51.95 16.35 52.05 16.45 52.05 16.65 51.8 16.9 51.45 16.75 51.05 16.6 50.35 16.4 50.25 16.2 50.15 15.9 50.4 15.6 50.8 15.4 50.95 15.1 51.2 14.85 51.05 14.65 50.95 13.85 50.8 12.9 50.7 12.95 51.05 12.95 51.1 13 51.1
L 13 51.05
Q 13.6 50.6 14.65 51.15 14.75 51.2 15.55 51.65
M 20 52.3
L 19.95 51.9
Q 19.8 52 19.8 53 19.95 53.4 20 53.05 20.05 52.8 20 52.3
M 19.15 52.05
Q 18.85 51.85 18.4 51.9 17.9 52.05 17.7 52.1 17.3 52.2 17.1 52.05 16.6 51.55 17.1 52.1 17.5 52.5 18 52.85 19.55 54.05 19.8 53 19.55 52.25 19.15 52.05
M 40.4 63.35
Q 39.15 63.55 37.9 63.7 36.2 63.85 34.45 63.85 34 63.85 33.65 64.05 33.05 64.3 33.3 64.8 33.85 66 34.4 66.05 34.85 66.15 35.45 65.5 35.45 65.45 36 64.9 36.3 64.55 36.55 64.3 37.25 63.7 37.85 63.85
L 37.9 63.85
Q 39.75 64.2 42.45 63.95 44.05 63.85 47.35 63.45 48.75 63.3 50 63.3
L 50 63.35
Q 51.25 63.35 52.65 63.5 55.95 63.9 57.55 64 60.25 64.25 62.1 63.9
L 62.15 63.9
Q 62.75 63.75 63.45 64.35 63.7 64.6 64 64.95 64.55 65.5 64.55 65.55 65.15 66.2 65.6 66.1 66.15 66.05 66.7 64.85 66.95 64.35 66.35 64.1 66 63.9 65.55 63.9 63.8 63.9 62.1 63.75 60.85 63.6 59.6 63.4 56.95 62.95 53.4 61.95 51.85 61.5 50 61.65
L 50 61.6
Q 48.15 61.45 46.6 61.9 43.05 62.9 40.4 63.35
M 24.05 65
Q 23.7 65.25 23.7 65.8 23.8 66.4 24.4 66.2 24.65 66.05 25 65.8 25.4 65.6 25.3 65.3 25.2 65.05 24.75 64.95 24.35 64.8 24.05 65
M 27.6 65.05
Q 27.45 65.5 27.5 65.8 27.5 66.05 27.6 65.6 27.7 65.15 27.65 64.8
L 27.6 65.05
M 28.95 64.7
Q 28.9 64.75 28.85 64.95 28.7 65.45 28.75 65.8
L 28.8 65.95
Q 28.85 65.9 28.95 65.7 29.05 65.2 29 64.8 29 64.65 28.95 64.7
M 28.1 56.95
Q 28.1 57.2 28.2 56.75 28.3 56.3 28.25 55.95 28.25 55.75 28.15 56.2 28.05 56.65 28.1 56.95
M 21.7 59.35
Q 21.55 59.55 21.6 59.9 21.6 60.15 21.75 60.05
L 21.9 59.9
Q 22.2 59.7 22.2 59.45 22.2 59.3 22 59.25 21.8 59.2 21.7 59.35
M 22.6 59.9
Q 22.45 60.5 22.6 60.85 22.75 61.15 23 61.15 23.3 61.15 23.55 60.85 23.75 60.5 23.7 59.9 23.7 58.45 23.2 58.8 23 58.9 22.8 59.25 22.65 59.6 22.6 59.9
M 22.6 56.1
Q 22.45 56.6 22.5 56.95 22.5 57.15 22.55 57.1 22.6 57.05 22.65 56.85 22.8 56.35 22.75 55.95 22.7 55.8 22.65 55.85 22.65 55.9 22.6 56.1
M 23.95 56.25
L 23.7 56.95
Q 23.85 58.2 24 57.2 24.1 56.75 24.15 55.95 24.15 55.65 23.95 56.25
M 23.1 55.75
Q 23 55.8 22.95 56 22.8 56.55 22.8 56.95 22.85 57.2 22.9 57.15 22.95 57.1 23 56.9 23.2 56.35 23.15 55.95 23.15 55.75 23.1 55.75
M 23.4 55.95
Q 23.4 55.75 23.3 56.2 23.2 56.65 23.25 56.95 23.25 57.2 23.35 56.75 23.4 56.3 23.4 55.95
M 20.55 53.25
Q 20.45 53.7 20.5 54 20.5 54.25 20.55 53.8 20.7 53.35 20.65 53 20.65 52.8 20.55 53.25
M 20.35 52.9
Q 20.25 52.95 20.25 53.15 20.1 53.65 20.15 54 20.15 54.2 20.2 54.15 20.25 54.1 20.3 53.9 20.4 53.4 20.4 53 20.4 52.85 20.35 52.9
M 27 55
Q 27 54.75 26.85 55.2 26.8 55.65 26.85 55.95 26.85 56.2 26.95 55.75 27 55.3 27 55
M 27.45 55
Q 27.4 54.75 27.3 54.8 27.3 54.85 27.2 55.05 27.05 55.55 27.1 55.95 27.1 56.2 27.15 56.15 27.2 56.15 27.3 55.9 27.45 55.4 27.45 55
M 29.35 55
L 29.3 54.8
Q 29.2 54.85 29.1 55.05 28.95 55.55 29 55.95 29.05 56.2 29.1 56.15 29.15 56.15 29.25 55.9 29.4 55.4 29.35 55
M 31.55 58.3
Q 31.3 58.2 31.2 58.3 31 58.5 31.05 58.9 31.05 59.15 31.2 59.05 31.25 59 31.35 58.9 31.7 58.8 31.7 58.6 31.75 58.4 31.55 58.3
M 30.65 58.6
Q 30.65 58.4 30.45 58.3 30.2 58.2 30.05 58.3 29.95 58.45 29.95 58.7 29.55 58.5 29.2 58.45 28.4 58.45 27.4 59.15 26.85 59.5 26.6 59.7 26.1 60.05 25.8 60.15 24.9 60.55 24.15 59.9 24.10234375 59.85234375 24.1 59.75
L 24.1 59.9
Q 24.05 59.95 24 59.9 23.95 61.35 24.75 61.3 24.95 61.25 25.4 61.1 25.8 60.9 25.9 60.9 26.85 60.85 28 60.85 29.9 60.9 30.05 60.9 30.95 60.9 31.15 60.85 32 60.65 31.35 59.9 30.8 59.25 30.3 58.9 30.65 58.8 30.65 58.6
M 34.8 57.95
Q 34.8 58.15 34.95 58.1 35 58.05 35.15 57.95 35.45 57.8 35.45 57.6 35.5 57.4 35.3 57.3 35.1 57.2 34.95 57.35 34.75 57.5 34.8 57.95
M 32 55.55
Q 31.85 55.35 31.25 55.25 30.6 55.15 30.1 55.3 29.55 55.45 29.6 55.95 29.7 57.1 30.55 56.65 30.8 56.55 31.2 56.25 31.5 55.95 31.55 55.95 32.2 55.8 32 55.55
M 32.5 55
Q 32.45 55.2 32.45 55.5 32.5 55.75 32.6 56 32.75 56.65 32.95 56.5 33.2 56.35 33.3 55 33.3 54.7 33.2 54.8 33.15 54.85 33.15 54.9 33.1 54.95 33.15 55 32.65 54.55 32.5 55
M 20.9 53
Q 20.9 53.05 22.05 53.5 23.15 54 23.3 54 23.85 54 25.2 54.1 26.45 54.2 27.15 54.15 29.4 54.15 30.8 53 29.55 52.95 27.3 53 23.55 53 23.4 53 23.25 53 22.8 52.75 22.2 52.4 22.05 52.3 21 51.85 20.9 53
M 31.1 53
L 31.05 52.6
Q 30.95 52.1 30.95 51.95 30.85 51.4 30.8 53 30.95 53.45 31.15 53.7 31.3 53.95 31.4 53.9 31.45 53.9 31.4 53.65 31.35 53.4 31.1 53
M 32.2 52.75
Q 32.15 52.85 32 53.4 31.8 53.95 31.75 54.1 31.65 54.25 31.6 54.1 31.75 55.35 32.05 54.35 32.2 53.8 32.35 53 32.3 52.55 32.2 52.75
M 33.95 52.2
Q 34.15 51.75 34.2 52.05 34.1 50.75 33.25 51.9
L 32.7 52.8
Q 32.5 53.1 32.45 53.05 32.55 53.9 32.8 53.85 33.05 53.8 33.4 53.2 33.6 52.85 33.95 52.2
M 40.35 53.2
Q 40 53.4 40.05 54 40.15 54.6 40.7 54.4 41 54.25 41.35 54 41.75 53.75 41.6 53.5 41.5 53.25 41.1 53.1 40.65 53 40.35 53.2
M 38.6 53.2
Q 38.25 53.4 38.3 54 38.35 54.6 38.95 54.4 39.25 54.25 39.55 54 40 53.75 39.85 53.5 39.75 53.25 39.35 53.1 38.9 53 38.6 53.2
M 37.4 53.9
Q 37.35 53.9 37.3 54.1 37.2 54.6 37.25 55
L 37.25 55.1
Q 37.3 55.05 37.4 54.85 37.5 54.4 37.45 54 37.45 53.85 37.4 53.9
M 37.55 54
Q 37.55 54.15 37.7 54.1 37.7 54.05 37.8 54 37.85 53.95 37.9 53.95 38.05 53.8 38.05 53.65 38.1 53.5 37.9 53.4 37.75 53.3 37.65 53.4 37.55 53.55 37.55 54
M 31.7 37.5
Q 31.6 37.95 31.6 38.25 31.65 38.5 31.7 38.05 31.8 37.6 31.8 37.3 31.75 37.05 31.7 37.5
M 33.3 39.25
Q 33.3 39.4 33.35 39.35 33.4 39.35 33.45 39.1 33.55 38.65 33.55 38.25
L 33.5 38.15
Q 33.4 38.2 33.35 38.4 33.25 38.85 33.3 39.25
M 21.3 49.1
Q 21.3 48.85 21.2 49.3 21.15 49.75 21.15 50.05 21.15 50.3 21.25 49.85 21.3 49.4 21.3 49.1
M 20.35 48.95
Q 20.25 49 20.25 49.2 20.1 49.7 20.15 50.05 20.2 50.45 20.3 49.95 20.4 49.45 20.4 49.1 20.4 48.9 20.35 48.95
M 30.05 37.3
Q 30.1 37.5 30.25 37.15 30.3 37.1 30.35 37.05 30.5 36.6 30.45 36.3 30.4 36.05 30.2 36.5 30.05 36.85 30.05 37.15 30.05 37.25 30.05 37.3
M 27.2 36.3
Q 27.6 37.1 27.9 36.8 28.1 36.6 28.1 35.9 28.1 35.2 27.9 35.15 27.6 35.1 27.2 36.3
M 29.5 36.3
Q 29.45 36.1 29.35 36.15 29.3 36.2 29.15 36.4 28.9 36.8 28.9 37.15 28.95 37.25 28.95 37.3 28.95 37.45 29.1 37.4 29.15 37.35 29.3 37.15 29.6 36.65 29.5 36.3
M 24.9 34.85
Q 24.15 35.2 24 36.3 23.95 36.65 24.45 36.5 24.7 36.45 25.15 36.3 26.4 36.15 26.65 35.65 26.7 35.45 26.55 35.25 26.45 35.05 26.2 34.9 25.55 34.6 24.9 34.85
M 36.4 35.6
L 35.95 36.3
Q 36.2 37.5 36.6 36.55 36.8 36.05 36.95 35.3 36.85 34.95 36.4 35.6
M 35.75 35.3
Q 35.75 35.1 35.55 35.55 35.3 35.95 35.4 36.3 35.45 36.5 35.65 36.05 35.85 35.65 35.75 35.3
M 37.7 35.2
Q 37.6 35.2 37.5 35.45 37.25 35.9 37.3 36.3 37.35 36.45 37.4 36.4 37.55 36.4 37.65 36.2 37.95 35.7 37.85 35.3 37.85 35.15 37.7 35.2
M 32.8 36.5
Q 33.15 36.4 33.5 36.3 34.4 36.15 34.25 35.8 34.05 35.55 33.2 35.35 32.35 35.2 31.8 35.35 31.1 35.6 31.25 36.3 31.3 36.8 32.4 36.6 32.6 36.55 32.75 36.5 32.75 36.6 32.7 36.85 32.6 37.15 32.6 37.65 32.55 38.05 32.55 38.25 32.55 38.6 32.6 38.75 32.7 38.85 32.75 38.7 32.9 38.55 32.95 38.2 33 37.8 32.95 37.3 32.9 36.6 32.8 36.5
M 19.15 48.55
Q 18.8 47.7 18.55 47.7 18.15 47.7 18.1 49.1 18.15 48.65 18.65 49.25 18.85 49.55 19.2 50.05 19.65 50.55 19.55 49.95 19.5 49.35 19.15 48.55
M 19.9 46.55
L 19.95 46.55
Q 19.85 46.45 19.75 46.35 19.85 46.55 19.9 46.55
M 20.05 45.6
Q 20.05 45.7 19.95 46.2 19.95 46.5 19.95 46.55 20.05 46.7 20.2 46.65 20.35 46.55 20.7 46.05 21.05 45.55 21.25 45.5
L 21.3 45.5
Q 21.05 45.3 20.9 45.2 20.5 44.95 20.25 45.15 20.1 45.2 20.05 45.6
M 13.85 47.1
Q 13.85 46.9 13.75 47.35 13.65 47.75 13.7 48.1 13.7 48.3 13.8 47.9 13.9 47.45 13.85 47.1
M 14.6 47.1
L 14.45 46.75
Q 14.3 46.4 14.2 46.25 13.9 45.7 13.95 47.1 13.95 47.25 14.1 47.2
L 14.25 47.1
Q 14.65 47.95 15.2 48.05 15.35 48.05 15.65 48.05 15.95 48.05 16.15 48.1 16.3 48.15 17.4 48.75 17.75 48.9 17.8 48.8 17.8 48.65 17.3 48.1 17.05 47.85 16 47.55 14.8 47.25 14.6 47.1
M 10.35 48.5
Q 10.25 48.65 10.25 49.1 10.3 49.25 10.4 49.2 10.45 49.15 10.5 49.1 10.75 48.95 10.75 48.75 10.75 48.55 10.6 48.45 10.45 48.35 10.35 48.5
M 11.2 49.1
Q 11.2 48.85 11.05 49.3 11 49.75 11.05 50.05 11.05 50.3 11.1 49.85 11.2 49.4 11.2 49.1
M 11.8 45.15
Q 11.75 44.95 11.7 45 11.65 45.05 11.65 45.25 11.5 45.75 11.5 46.15 11.5 46.3 11.6 46.25 11.65 46.2 11.65 46 11.8 45.5 11.8 45.15
M 12.35 45.15
Q 12.3 44.9 12.25 44.95 12.2 45 12.15 45.2 11.95 45.75 12 46.15 12.05 46.35 12.1 46.3 12.15 46.3 12.25 46.1 12.4 45.55 12.35 45.15
M 13.1 46.15
Q 13.05 45.8 12.85 46.4 12.75 46.75 12.7 47.1 12.8 48.35 12.95 47.35 13 46.9 13.1 46.15
M 13.5 46.15
Q 13.5 45.9 13.45 46.35 13.3 46.8 13.35 47.1 13.4 47.35 13.45 46.9 13.55 46.45 13.5 46.15
M 10.65 42.4
Q 10.6 42.85 10.6 43.2 10.6 43.4 10.7 42.95 10.8 42.5 10.75 42.2
L 10.75 42.15
Q 10.75 42.05 10.7 42.15 10.7 42.2 10.65 42.4
M 11.6 41
Q 11.55 41.05 11.5 41.25 11.35 41.75 11.35 42.15
L 11.35 42.2
Q 11.35 42.4 11.45 42.4 11.5 42.35 11.55 42.15 11.7 41.6 11.65 41.2 11.65 41 11.6 41
M 12.4 39.65
Q 12.4 39.45 12.15 39.4 11.9 39.35 11.75 39.55 11.55 39.8 11.6 40.25 11.65 40.7 11.95 40.5 12.1 40.4 12.25 40.25 12.5 39.9 12.4 39.65
M 10.45 38.3
Q 10.3 38.85 10.35 39.25 10.35 39.5 10.45 39.45 10.45 39.4 10.55 39.2 10.7 38.65 10.65 38.25 10.65 38.05 10.6 38.05 10.55 38.1 10.45 38.3
M 16.1 41.35
Q 15.7 41.35 15.55 41.35 15.25 41.3 15.1 41.2 15.1 41.25 14.8 41.2 14.4 41.2 14.35 41.2 14.2 41.35 13.85 41.3 13.75 41.3 13.7 41.25 13.85 41 14.05 40.55 14.25 40.15 14.25 40.25 14.2 39.1 13.45 40.1 13.3 40.35 13 40.9 12.75 41.25 12.75 41.2 12.75 41.25 12.75 41.3 12.55 41.5 12.35 42.15
L 12.35 42.2
Q 12.2 42.85 12.45 43.1 12.6 43.2 12.75 43.2 13.35 43.2 14.1 43.5 14.55 43.75 15.4 44.25 16.3 44.75 16.6 44.95 17.3 45.2 17.7 45.15 17.9 45.1 18.1 45.35 18.25 45.5 18.55 45.85 18.8 46.2 18.95 46.25 19.1 46.35 19.2 46.15 19.35 45.8 19.4 44.45 19.45 43.85 19.45 43.6 19.5 43.25 19.55 43.2 19.8 43 20.35 43.55 20.65 43.9 21.3 44.7 21.85 45.4 22.2 45.35 22.7 45.35 23 44.15 23.1 43.8 22.95 43.45
L 22.9 43.2
Q 22.65 42.95 22.3 43.05 21.9 43.15 21.75 43.2 21.2 43.25 20.65 42.65 20.5 42.45 20.2 42.15
L 20.15 42.1
Q 19.8 41.65 19.7 41.55 19.15 40.95 18.75 41 18.25 41.05 17.8 42.15
L 17.8 42.2
Q 17.55 42.75 18.1 43 18.4 43.1 18.85 43.2 19.25 43.35 19.25 43.5 19.3 43.7 19.1 43.85 18.85 44 18.55 44.1 18.25 44.2 18.05 44.15 17.55 44.1 16.65 43.7 15.75 43.3 15.2 43.2 14.65 43.1 14.65 43.05
L 14.95 42.95
Q 15.95 42.75 16.3 42.2
L 16.3 42.15
Q 16.55 41.75 16.45 41.55 16.4 41.4 16.1 41.35
M 17.1 41.2
L 17.05 41.45
Q 16.9 41.8 16.95 42.15
L 16.95 42.2
Q 16.95 42.35 17.05 42.15 17.05 42.1 17.05 42 17.15 41.55 17.1 41.2
M 17.9 37.9
Q 17.9 37.75 17.75 37.65 17.6 37.55 17.5 37.65 17.35 37.85 17.35 38.25 17.35 38.4 17.5 38.35 17.55 38.35 17.65 38.25 17.85 38.1 17.9 37.9
M 8.4 46.35
Q 8.3 46.8 8.3 47.1 8.35 47.35 8.45 46.9 8.5 46.45 8.5 46.15 8.45 45.9 8.4 46.35
M 8.75 42.15
L 8.75 42.2
Q 8.75 42.35 8.85 42.3 8.9 42.25 9 42.2 9.05 42.2 9.05 42.15 9.25 42 9.25 41.85 9.25 41.65 9.1 41.55 8.95 41.45 8.85 41.6 8.7 41.75 8.75 42.15
M 15.1 36.7
Q 14.95 36.45 14.65 36.35 14.3 36.25 14.05 36.45 13.8 36.7 13.85 37.3 13.9 37.7 14.35 37.55 14.6 37.45 14.85 37.3 15.2 37 15.1 36.7
M 13.4 35.95
Q 13.4 35.75 13.2 35.65 13 35.55 12.85 35.7 12.65 35.85 12.7 36.3 12.7 36.5 12.85 36.45 12.9 36.4 13 36.3 13.35 36.15 13.4 35.95
M 78.8 49.35
Q 78.7 48.9 78.7 49.15 78.7 49.45 78.75 49.9 78.85 50.35 78.85 50.1 78.85 49.8 78.8 49.35
M 79.75 49.25
Q 79.75 49.05 79.65 49 79.6 48.95 79.6 49.15 79.6 49.5 79.7 50 79.8 50.5 79.85 50.1 79.9 49.75 79.75 49.25
M 80.05 46.6
L 80.1 46.6
Q 80.15 46.6 80.25 46.4 80.15 46.5 80.05 46.6
M 79.1 45.25
Q 78.95 45.35 78.7 45.55
L 78.75 45.55
Q 78.95 45.6 79.3 46.1 79.65 46.6 79.8 46.7 79.95 46.75 80.05 46.6 80.05 46.55 80.05 46.25 79.95 45.75 79.95 45.65 79.9 45.25 79.75 45.2 79.5 45 79.1 45.25
M 66.5 38.2
L 66.45 38.3
Q 66.45 38.7 66.55 39.15 66.6 39.4 66.65 39.4 66.7 39.45 66.7 39.3 66.75 38.9 66.65 38.45 66.6 38.25 66.5 38.2
M 68.3 37.55
Q 68.25 37.1 68.2 37.35 68.2 37.65 68.3 38.1 68.35 38.55 68.4 38.3 68.4 38 68.3 37.55
M 69.8 36.55
Q 69.6 36.1 69.55 36.35 69.5 36.65 69.65 37.1 69.7 37.15 69.75 37.2 69.9 37.55 69.95 37.35 69.95 37.3 69.95 37.2 69.95 36.9 69.8 36.55
M 70.65 36.2
Q 70.55 36.15 70.5 36.35 70.4 36.7 70.7 37.2 70.85 37.4 70.9 37.45 71.05 37.5 71.05 37.35 71.05 37.3 71.1 37.2 71.1 36.85 70.85 36.45 70.7 36.25 70.65 36.2
M 68.2 35.4
Q 67.65 35.25 66.8 35.4 65.95 35.6 65.75 35.85 65.6 36.2 66.5 36.35 66.85 36.45 67.2 36.55 67.1 36.65 67.05 37.35 67 37.85 67.05 38.25 67.1 38.6 67.25 38.75 67.3 38.9 67.4 38.8 67.45 38.65 67.45 38.3 67.45 38.1 67.4 37.7 67.4 37.2 67.3 36.9 67.25 36.65 67.25 36.55 67.4 36.6 67.6 36.65 68.7 36.85 68.75 36.35 68.9 35.65 68.2 35.4
M 64.05 36.35
L 63.6 35.65
Q 63.15 35 63.05 35.35 63.2 36.1 63.4 36.6 63.8 37.55 64.05 36.35
M 64.6 36.35
Q 64.7 36 64.45 35.6 64.25 35.15 64.25 35.35 64.15 35.7 64.35 36.1 64.55 36.55 64.6 36.35
M 62.7 36.35
Q 62.75 35.95 62.5 35.5 62.4 35.25 62.3 35.25 62.15 35.2 62.15 35.35 62.05 35.75 62.35 36.25 62.45 36.45 62.6 36.45 62.65 36.5 62.7 36.35
M 73.8 34.95
Q 73.55 35.1 73.45 35.3 73.3 35.5 73.35 35.7 73.6 36.2 74.85 36.35 75.3 36.5 75.55 36.55 76.05 36.7 76 36.35 75.85 35.25 75.1 34.9 74.45 34.65 73.8 34.95
M 72.1 36.85
Q 72.4 37.15 72.8 36.35 72.4 35.15 72.1 35.2 71.9 35.25 71.9 35.95 71.9 36.65 72.1 36.85
M 50 38.4
L 50 38.35
Q 47.85 38.45 45.4 39.2 44.3 39.55 42.7 40.15 40.9 40.85 40 41.2 39.55 41.4 38.95 41.05 38.75 40.95 38 40.35 37.95 40.35 37.9 40.35 37.35 39.9 36.95 39.85 36.45 39.75 36.05 40.25 35.95 40.35 35.75 41.25 35.6 42 35.5 42.15
L 35.45 42.2
Q 34.8 42.55 34.05 42.55 33.4 42.55 32.6 42.2 32.6 42.15 32.5 42.15 31.6 41.8 29.95 42.15 29.65 42.2 29.3 42.3 28.05 42.65 27.45 42.8 26.35 43.1 25.6 43.2 25.35 43.2 25.05 42.9 25.05 42.85 24.55 42.25 24.5 42.2 24.45 42.15 24.25 41.9 24.1 41.85 23.9 41.75 23.75 42.15
L 23.7 42.2
Q 23.65 42.5 23.7 42.95 23.7 43.2 23.7 43.7 23.75 44.15 23.7 44.45 23.65 44.85 23.4 45.15 23.35 45.25 23.35 45.05 23.4 44.95 23.4 44.55 23.6 43.6 23.55 43.2 23.4 41.8 23.2 43.75 22.95 46.05 22.9 46.15 22.7 46.5 22.35 46.35 22.15 46.25 21.65 45.8
L 21.6 45.8
Q 21.65 45.95 21.75 46.15 21.75 46.25 21.75 46.55 21.75 46.7 21.65 47.1 21.6 47.8 21.8 48.1 21.9 48.25 22.05 48.3 22 48.3 21.95 48.35 21.65 48.45 21.6 49.1 21.35 50.3 21.65 50.3 21.8 50.3 22 50.05 22.05 50.2 22.25 51.15 22.45 52 22.5 52.05
L 22.55 51.15
Q 22.6 50.15 22.65 50.05 22.8 49.8 23 49.9 23.2 49.95 23.5 50.25 23.7 50.4 24 50.75 24.35 51 24.6 51.05 25.35 51.15 26.4 50.95 27 50.85 28.35 50.5 29.65 50.2 30.35 50.1 31.4 49.9 32.2 50.05 32.3 50.1 32.6 50.6 32.85 51.1 32.95 51.05 33.05 51 33.15 50.7 33.2 50.6 33.35 50.1 33.6 49.2 33.85 49.1 34.1 48.95 34.5 49 34.65 49 35.2 49.15 36.2 49.4 36.8 49.1 37.25 48.85 37.7 48.85 37.8 48.85 37.9 48.9 38.15 48.95 38.45 49.05 38.95 49.2 39.25 49.2 39.65 49.25 40.05 49.1 40 49.1 40.15 49 40.2 48.9 40.3 48.9 40.65 48.9 40.6 50.05 40.45 52.05 39.2 51.75 38.9 51.65 38.15 51.3 38 51.25 37.9 51.2 37.55 51.05 37.4 51.05 37.25 51.05 36.65 51 36.2 50.9 35.95 51.05 35.45 51.3 34.9 52 34.25 52.7 34.55 53 34.95 53.45 35.4 53.4 35.65 53.4 36.05 53.2 35.75 53.4 35.45 53.9
L 34.7 55.05
Q 34.35 55.5 34.3 55.05 34.4 56.3 34.8 56.15 35.05 56.1 35.55 55.15 35.7 54.9 35.95 54.45 36.2 54 36.3 53.85 36.65 53.4 36.7 53.95 36.65 52.95 36.25 53.05 36.3 53 36.35 53 36.65 52.8 37.25 52.35 37.6 52.2 37.9 52.1 38.15 52.05 38.3 52.05 39.4 52.05 40.95 51.85 40.75 51.8 40.65 51.05 40.5 49.5 41.55 49.15 41.9 49 42.35 49.05 42.6 49.05 42.9 49.1 43.35 49.1 44.25 49.15 45.05 49.2 45.5 49.1 45.55 49.1 45.75 48.95 45.95 48.8 46.15 48.75 46.75 48.6 47.1 49.1 47.5 49.65 47 49.9 46.75 50.05 46.15 50.05 45.85 50.1 44.2 49.9 43 49.75 42.4 50.05 42.35 50.1 42.05 50.6 41.65 51.2 41.5 51.45 41.25 51.75 41.1 51.85 41.95 51.7 42.95 51.55 45.8 51.05 47.6 51.05 47.85 51.05 48.65 51.5 49 51.65 49.2 51.8 49.15 51.8 49.05 51.75 48.7 51.7 48.2 51.8 47.65 51.95 47.35 52.25 46.9 52.55 46.9 53 46.9 53.25 47.45 53.45 47.7 53.55 48.4 53.75 49 53.95 49.15 54.15 49.3 54.5 48.8 55 47.65 56 45.4 56 45.1 56 43.65 55.95 42.7 55.9 42.25 55.95 41.55 56.1 39.8 55.9 38.75 55.75 37.9 55.85 37.5 55.85 37.15 55.95 36.6 56 36.35 56.1 35.95 56.25 35.8 56.95 35.7 57.4 35.75 57.7 35.75 57.9 35.8 58.15 35.9 58.4 35.9 58.5 35.9 58.7 35.75 58.9 35.4 59.4 34.95 59.3 34.45 59 34.2 58.9 33.95 58.85 33.55 57.95 33.35 57.4 33.3 57.3 33.15 57 33.05 56.95 32.9 56.9 32.9 57.85 32.8 58.85 32.75 58.9 32.75 59.05 32.65 58.75 32.55 58.3 32.45 58.05 32.2 57.15 32 57.95 31.9 58.5 31.9 58.65 31.95 58.8 32.05 58.75
L 32.3 58.65
Q 32.45 58.7 32.45 58.9 32.45 59.3 32.15 60.1 31.95 60.55 31.9 60.6 31.85 60.8 31.85 60.9 32.1 61.45 32.6 61.3 32.9 61.25 33.55 60.9 35.15 60.25 37.4 60.15 37.6 60.15 37.9 60.15 39.05 60.15 41.5 60.25 44.05 60.3 45.6 60.1 47.85 59.85 49.65 58.9 49.8 58.8 50 58.75
L 50 58.8
Q 50.2 58.85 50.35 58.95 52.15 59.9 54.4 60.15 55.95 60.35 58.5 60.3 60.95 60.2 62.1 60.2 62.4 60.2 62.6 60.2 64.85 60.3 66.45 60.95 67.1 61.3 67.4 61.35 67.9 61.5 68.15 60.95 68.15 60.85 68.1 60.65 68.05 60.6 67.85 60.15 67.55 59.35 67.55 58.95 67.55 58.75 67.7 58.7
L 67.95 58.8
Q 68.05 58.85 68.1 58.7 68.1 58.55 68 58 67.8 57.2 67.55 58.1 67.45 58.35 67.35 58.8 67.25 59.1 67.25 58.95 67.2 58.9 67.1 57.9 67.1 56.95 66.95 57 66.85 57.05 66.7 57.35 66.65 57.45 66.45 58 66.05 58.9 65.8 58.95 65.55 59.05 65.05 59.35 64.6 59.45 64.25 58.95 64.1 58.75 64.1 58.55 64.1 58.45 64.2 58.2 64.25 57.95 64.25 57.75 64.3 57.45 64.2 57 64.05 56.3 63.65 56.15 63.4 56.05 62.85 56 62.5 55.9 62.1 55.9 61.25 55.8 60.2 55.95 58.45 56.15 57.75 56 57.3 55.95 56.35 56 54.9 56.05 54.6 56.05 52.35 56.05 51.2 55.05 50.7 54.55 50.85 54.2 51 54 51.6 53.8 52.3 53.6 52.55 53.5 53.1 53.3 53.1 53.05 53.1 52.6 52.65 52.3 52.35 52 51.8 51.85 51.3 51.75 50.95 51.8 50.85 51.85 50.8 51.85 51 51.7 51.35 51.55 52.15 51.1 52.4 51.1 54.2 51.1 57.05 51.6 58.05 51.75 58.9 51.9 58.75 51.8 58.5 51.5 58.35 51.25 57.95 50.65 57.65 50.15 57.6 50.1 57 49.8 55.8 49.95 54.15 50.15 53.85 50.1 53.25 50.1 53 49.95 52.5 49.7 52.9 49.15 53.25 48.65 53.85 48.8 54.05 48.85 54.25 49 54.45 49.15 54.5 49.15 54.95 49.25 55.75 49.2 56.65 49.15 57.1 49.15 57.4 49.1 57.65 49.1 58.1 49.05 58.45 49.2 59.5 49.55 59.35 51.1 59.25 51.85 59.05 51.9 60.6 52.1 61.7 52.1 61.85 52.1 62.1 52.15 62.4 52.25 62.75 52.4 63.35 52.85 63.65 53.05 63.7 53.05 63.75 53.1 63.35 53 63.3 54 63.35 53.45 63.7 53.9 63.8 54.05 64.05 54.5 64.3 54.95 64.45 55.2 64.95 56.15 65.2 56.2 65.6 56.35 65.7 55.1 65.65 55.55 65.3 55.1
L 64.55 53.95
Q 64.25 53.45 63.95 53.25 64.35 53.45 64.6 53.45 65.05 53.5 65.45 53.05 65.75 52.75 65.1 52.05 64.55 51.35 64.05 51.1 63.8 50.95 63.35 51.05 62.75 51.1 62.6 51.1 62.45 51.1 62.1 51.25 62 51.3 61.85 51.35 61.1 51.7 60.8 51.8 59.55 52.1 59.4 50.1 59.35 48.95 59.7 48.95 59.8 48.95 59.85 49.05 60 49.15 59.95 49.15 60.35 49.3 60.75 49.25 61.05 49.25 61.55 49.1 61.85 49 62.1 48.95 62.2 48.9 62.3 48.9 62.75 48.9 63.2 49.15 63.8 49.45 64.8 49.2 65.35 49.05 65.5 49.05 65.9 49 66.15 49.15 66.4 49.25 66.65 50.15 66.8 50.65 66.85 50.75 66.95 51.05 67.05 51.1 67.15 51.15 67.4 50.65 67.7 50.15 67.8 50.1 68.6 49.95 69.65 50.15 70.35 50.25 71.65 50.55 73 50.9 73.6 51 74.65 51.2 75.4 51.1 75.65 51.05 76 50.8 76.3 50.45 76.5 50.3 76.8 50 77 49.95 77.2 49.85 77.35 50.1 77.4 50.2 77.45 51.2
L 77.5 52.1
Q 77.55 52.05 77.75 51.2 77.95 50.25 78 50.1 78.2 50.35 78.35 50.35 78.65 50.35 78.4 49.15 78.35 48.5 78.05 48.4 78 48.35 77.95 48.35 78.1 48.3 78.2 48.15 78.4 47.85 78.35 47.15 78.25 46.75 78.25 46.6 78.25 46.3 78.25 46.2 78.35 46 78.4 45.85
L 78.35 45.85
Q 77.85 46.3 77.65 46.4 77.3 46.55 77.1 46.2 77.05 46.1 76.8 43.8 76.6 41.85 76.45 43.25 76.4 43.65 76.6 44.6 76.6 45 76.65 45.1 76.65 45.3 76.6 45.2 76.35 44.9 76.3 44.5 76.25 44.2 76.3 43.75 76.3 43.25 76.3 43 76.35 42.55 76.3 42.25
L 76.25 42.2
Q 76.1 41.8 75.9 41.9 75.75 41.95 75.55 42.2 75.5 42.25 75.45 42.3 74.95 42.9 74.95 42.95 74.65 43.25 74.4 43.25 73.65 43.15 72.55 42.85 71.95 42.7 70.7 42.35 70.35 42.25 70.05 42.2 68.4 41.85 67.5 42.2 67.4 42.2 67.4 42.25 66.6 42.6 65.95 42.6 65.2 42.6 64.55 42.25
L 64.5 42.2
Q 64.4 42.05 64.25 41.3 64.05 40.4 63.95 40.3 63.55 39.8 63.05 39.9 62.65 39.95 62.1 40.4 62.05 40.4 62 40.4 61.25 41 61.05 41.1 60.45 41.45 60 41.25 59.1 40.9 57.3 40.2 55.7 39.6 54.6 39.25 52.15 38.5 50 38.4
M 43.1 45.45
Q 43.25 45.5 43.25 45.7 43.25 45.9 43 46.15 42.85 46.25 42.85 46.3 42.7 46.35 42.7 46.15 42.65 45.75 42.8 45.6 42.9 45.45 43.1 45.45
M 43.4 45.75
Q 43.6 44.25 44.95 44.5 45.4 44.55 46.15 44.85 46.8 45.15 46.9 45.15 47.05 45.15 49 45.3 49.55 45.35 50 45.35
L 50 45.4
Q 50.45 45.4 51 45.35 52.95 45.2 53.1 45.2 53.2 45.2 53.85 44.9 54.6 44.6 55.05 44.55 56.4 44.3 56.6 45.8 56.55 45.8 56.5 46.15 56.35 47.15 56.25 47.15 54.65 47.3 51.5 46.3 50.55 46 50 45.85
L 50 45.8
Q 49.45 45.95 48.5 46.25 45.35 47.25 43.75 47.1 43.65 47.1 43.5 46.1 43.45 45.75 43.4 45.75
M 42.1 45.2
Q 42.2 45 42.25 44.95 42.3 44.9 42.35 45.15 42.4 45.55 42.2 46.1 42.15 46.3 42.1 46.3 42 46.35 42 46.15 41.95 45.7 42.1 45.2
M 47.95 48.95
L 48 48.95
Q 48.25 48.55 48.55 48.25 48.65 48.1 48.7 48.1
L 48.8 48.2
Q 49 48.3 49.15 48.45 49.65 49.05 49.3 50.05 49.2 50.2 48.35 50.3 47.45 50.35 47.45 50.05 47.4 49.75 47.8 49.2 47.9 49 47.95 48.95
M 50 48.15
Q 50.65 48.35 50.05 49.15 50.05 49.2 50 49.2
L 50 49.15
Q 49.95 49.15 49.95 49.1 49.35 48.3 50 48.1
L 50 48.15
M 50.85 48.5
Q 51 48.35 51.2 48.25
L 51.3 48.15
Q 51.35 48.15 51.45 48.3 51.75 48.6 52 49
L 52.05 49
Q 52.1 49.05 52.2 49.25 52.6 49.8 52.55 50.1 52.55 50.4 51.65 50.35 50.8 50.25 50.7 50.1 50.35 49.1 50.85 48.5
M 54.65 47.4
Q 54.75 47.8 54.75 48.15 54.75 48.4 54.65 47.95 54.55 47.5 54.6 47.15
L 54.65 47.4
M 58.6 46.2
Q 58.6 46 58.65 46.05 58.7 46.1 58.75 46.3 58.85 46.8 58.8 47.15
L 58.8 47.3
Q 58.75 47.25 58.7 47.05 58.55 46.55 58.6 46.2
M 59.4 45.8
Q 59.55 45.35 59.65 44.65
L 59.75 44.2
Q 59.8 43.95 59.85 44.55 59.85 44.85 59.85 45.2 60.3 45.3 61.1 45.75 61.75 46.15 62.1 46.2 62.15 46.2 62.2 46.2 63.1 46.2 63.45 46.3 64.2 46.5 63.35 47.15 63.05 47.45 62.35 47.35 62.25 47.3 62.1 47.3 61.95 47.25 61.75 47.25 61.35 47.15 61.1 47.15 61 47.15 60.55 47.25 60.1 47.35 59.85 47.35 59.2 47.3 59 46.65 59.1 46.9 59.4 45.8
M 56.75 45.75
Q 56.75 45.55 56.9 45.5 57.1 45.5 57.2 45.65 57.35 45.8 57.3 46.2 57.3 46.4 57.15 46.35 57.15 46.3 57 46.2 56.75 45.95 56.75 45.75
M 57.65 45.2
Q 57.7 44.95 57.75 45 57.8 45.05 57.9 45.25 58.05 45.75 58 46.2 58 46.4 57.9 46.35 57.85 46.35 57.8 46.15 57.6 45.6 57.65 45.2
M 58.1 46.2
Q 58.1 45.95 58.2 46.4 58.25 46.85 58.25 47.15 58.25 47.4 58.15 46.95 58.05 46.5 58.1 46.2
M 65.35 44.2
Q 65.3 45.45 65.1 44.45 65 44 64.95 43.25 65 42.9 65.2 43.5
L 65.35 44.2
M 64.05 46.2
Q 64.1 45.3 64.25 45.3 64.3 45.3 64.5 45.85
L 64.7 46.55
Q 64.8 46.75 64.8 46.3 64.85 47.25 64.7 47.7 64.6 48.1 64.4 47.95 64.25 47.8 64.15 47.3 64 46.8 64.05 46.2
M 65.05 47.45
Q 65 47.1 65 46.9 65 46.55 64.95 46.25 65.05 46.7 65.7 47.15 66.15 47.45 66.8 47.4 67.25 47.35 68 47.15 68.75 46.9 69.05 46.85 69.55 46.85 69.75 47.15 70.1 47.9 70.7 48.45 71.35 48.95 71.95 49.1 72.55 49.25 73.1 49.05 73.6 48.8 73.85 48.15 73.9 48 73.9 47.05 73.95 46.2 73.9 46.2 74 46.2 74.2 47.05 74.35 48.05 74.4 48.15 74.65 48.6 74.95 48.55 75.1 48.5 75.4 48.15 75.7 47.7 75.85 47.5 76.1 47.15 76.3 47.15 76.45 47.2 76.75 47.45 77.05 47.85 77.2 48.05 77.45 48.3 77.65 48.4 77.5 48.4 77.35 48.45 77.15 48.6 76.6 48.9 76.15 49.15 75.85 49.15 74.65 49.15 71.7 49.55 69.1 49.8 68.15 49.15 67.85 48.95 67.4 48.9 67.4 48.85 66.65 48.8 65.6 48.7 65.2 48.15 65.05 47.95 65.05 47.45
M 70.8 45.2
Q 70.7 46.4 70.35 46.3 70.1 46.25 69.65 45.45 69.4 45 69 44.2 68.709375 43.715625 68.65 44.1 68.7546875 43.2515625 69.05 43.35 69.35 43.4 69.8 44.1 70.25 44.9 70.45 45.15 70.75 45.6 70.8 45.2
M 74.75 44.85
Q 74.75 44.7 75 44.65 75.25 44.55 75.45 44.7 75.7 44.85 75.7 45.2 75.65 45.55 75.5 45.45 75.4 45.35 75.2 45.2 74.75 45.05 74.75 44.85
M 74.6 45.2
Q 74.5 46.4 73.55 45.95 73.3 45.8 72.9 45.5 72.55 45.2 72.5 45.2 71.75 45.1 71.95 44.9 72.1 44.7 72.75 44.6 73.45 44.5 74 44.6 74.65 44.75 74.6 45.2
M 73.5 46
Q 73.55 46 73.6 46.25 73.8 46.75 73.75 47.15 73.75 47.4 73.7 47.35 73.6 47.35 73.55 47.1 73.4 46.6 73.4 46.2 73.45 45.95 73.5 46
M 71.5 44.5
L 71.65 45.2
Q 71.55 46.4 71.4 45.45 71.3 44.95 71.25 44.2 71.3 43.85 71.5 44.5
M 72.7 46.6
Q 72.85 46.8 72.85 47.15 72.85 47.4 72.7 47.3 72.6 47.3 72.5 47.15 72.25 46.95 72.25 46.75 72.25 46.55 72.4 46.5 72.55 46.45 72.7 46.6
M 25 44.6
Q 25.25 44.65 25.25 44.8 25.25 45 24.8 45.15 24.6 45.3 24.5 45.4 24.35 45.5 24.3 45.15 24.3 44.8 24.55 44.65 24.75 44.5 25 44.6
M 28.35 45.15
L 28.5 44.45
Q 28.7 43.8 28.75 44.15 28.7 44.9 28.6 45.4 28.45 46.35 28.35 45.15
M 29.2 45.15
Q 29.25 45.55 29.55 45.1 29.75 44.85 30.2 44.05 30.65 43.35 30.95 43.3 31.2453125 43.2015625 31.35 44.05 31.290625 43.665625 31 44.15 30.6 44.95 30.35 45.4 29.9 46.2 29.65 46.25 29.3 46.35 29.2 45.15
M 25.4 45.15
Q 25.35 44.7 26 44.55 26.55 44.45 27.25 44.55 27.9 44.65 28.05 44.85 28.25 45.05 27.5 45.15 27.45 45.15 27.1 45.45 26.7 45.75 26.45 45.9 25.5 46.35 25.4 45.15
M 34.65 44.15
L 34.8 43.45
Q 35 42.85 35.05 43.2 35 43.95 34.9 44.4 34.7 45.4 34.65 44.15
M 38.6 58.05
L 38.55 57.95
Q 38.55 57.55 38.65 57.05 38.7 56.85 38.75 56.8 38.8 56.75 38.8 56.95 38.85 57.35 38.7 57.8 38.65 58 38.6 58.05
M 36.1 58.3
Q 36.25 58.2 36.45 58.3 36.65 58.4 36.65 58.6 36.65 58.8 36.3 58.9 36.2 59 36.1 59.05 36 59.15 35.95 58.9 35.9 58.5 36.1 58.3
M 37.9 58.1
L 37.95 58.1
Q 38.15 58.15 38.2 58.35 38.3 58.6 38.05 58.9 38 59 37.9 59.1 37.85 59.15 37.75 59.2 37.4 59.4 37.4 58.9 37.35 58.5 37.55 58.25 37.7 58.05 37.9 58.1
M 63.35 58.65
Q 63.35 58.45 63.55 58.35 63.75 58.25 63.9 58.35 64.1 58.55 64.05 58.95 64 59.2 63.9 59.1 63.8 59.05 63.7 58.95 63.35 58.85 63.35 58.65
M 61.25 56.85
Q 61.3 56.9 61.35 57.1 61.45 57.6 61.45 58
L 61.4 58.1
Q 61.35 58.05 61.3 57.85 61.15 57.4 61.2 57 61.2 56.8 61.25 56.85
M 62.1 58.15
Q 62.3 58.1 62.45 58.3 62.65 58.55 62.6 58.95 62.6 59.45 62.25 59.25 62.15 59.2 62.1 59.15 62 59.05 61.95 58.95 61.7 58.65 61.8 58.4 61.85 58.2 62.05 58.15
L 62.1 58.15
M 59.4 57.45
Q 59.55 57.6 59.55 58 59.5 58.2 59.35 58.15 59.25 58.1 59.15 58 58.9 57.75 58.9 57.55 58.95 57.4 59.1 57.35 59.25 57.3 59.4 57.45
M 57.75 57.1
Q 57.85 57.6 57.85 58 57.85 58.15 57.75 58.1 57.75 58.05 57.7 57.85 57.55 57.4 57.6 57 57.6 56.8 57.65 56.85 57.7 56.9 57.75 57.1
M 49.75 52
Q 49.65 52.2 49.65 52.25 49.55 52.25 49.5 52.05 49.5 51.65 49.65 51.1 49.75 50.9 49.8 50.85 49.85 50.8 49.85 51.05 49.95 51.45 49.75 52
M 50.5 52.1
Q 50.45 52.3 50.35 52.3 50.35 52.25 50.25 52.05 50.05 51.5 50.15 51.1 50.15 50.85 50.2 50.9 50.25 50.95 50.35 51.15 50.5 51.7 50.5 52.1
M 50 54.1
L 50 54.05
Q 49.75 54 49.55 53.9 49.35 53.75 49.35 53.55 49.4 53.3 49.8 53 49.9 52.9 50 52.9
L 50 52.95
Q 50.1 52.95 50.2 53.05 50.6 53.35 50.65 53.6 50.65 53.8 50.45 53.95 50.25 54.05 50 54.1
M 42.25 57.05
Q 42.3 56.85 42.35 56.8 42.4 56.75 42.4 56.95 42.45 57.35 42.3 57.8 42.25 58 42.25 58.05 42.15 58.1 42.15 57.95 42.15 57.55 42.25 57.05
M 41.1 57.5
Q 41.1 57.7 40.85 57.95 40.75 58.05 40.65 58.1 40.5 58.15 40.45 57.95 40.45 57.55 40.6 57.4 40.75 57.25 40.9 57.3 41.05 57.35 41.1 57.5
M 42.25 35.3
Q 42.25 35.25 42.6 35.75 43 36.25 43 36.3 43.95 36.85 45.45 36.75 46.45 36.65 47.55 36.3 47.5 36.3 47.6 36.15 47.9 35.8 48 35.7 48.6 34.9 48.3 34.3 47.8 33.3 44.95 34.05 43.95 34.35 43.1 34.75 42.25 35.15 42.25 35.3
M 40.55 35.65
Q 40.7 35.1 40.55 34.3 40.3 33.2 39.85 34.1 39.7 34.4 39.55 34.85 39.4 35.25 39.4 35.3 39.4 35.95 39.6 36.2 39.85 36.45 40.1 36.3 40.4 36.15 40.55 35.65
M 60.4 36.25
Q 60.6 36 60.6 35.35 60.6 35.3 60.45 34.9 60.3 34.45 60.15 34.15 59.7 33.25 59.45 34.35 59.3 35.15 59.45 35.7 59.6 36.2 59.9 36.35 60.15 36.5 60.4 36.25
M 52.45 36.35
Q 53.55 36.7 54.55 36.8 56.05 36.9 57 36.35 57 36.3 57.4 35.8 57.75 35.3 57.75 35.35 57.75 35.2 56.9 34.8 56.05 34.4 55.05 34.1 52.2 33.35 51.7 34.35 51.4 34.95 52 35.75 52.1 35.85 52.4 36.2 52.5 36.35 52.45 36.35
M 83.05 63.9
Q 83.1 63.5 82.95 63 82.9 62.8 82.85 62.8 82.8 62.75 82.8 62.9 82.8 63.3 82.9 63.75
L 82.95 64
Q 83.05 64.05 83.05 63.9
M 84.05 63.9
Q 84.1 63.45 83.9 63.3 83.75 63.15 83.55 63.25 83.35 63.35 83.4 63.55 83.4 63.75 83.7 63.9 83.8 64 83.9 64.05 84 64.1 84.05 63.9
M 86.85 57
Q 86.8 56.6 86.7 56.05 86.6 55.5 86.55 56 86.55 56.55 86.55 56.95 86.55 57.3 86.65 57.45 86.7 57.6 86.75 57.45 86.85 57.35 86.85 57
M 83.65 58.95
Q 83.7 58.65 83.55 58.2 83.5 57.75 83.45 58 83.45 58.3 83.55 58.75 83.6 59.2 83.65 58.95
M 81.8 59.95
Q 81.85 59.65 81.75 59.2 81.65 58.75 81.6 58.95 81.6 59.3 81.7 59.75 81.75 60.2 81.8 59.95
M 82.1 58.85
Q 82.05 58.8 82.05 58.95 82 59.35 82.15 59.85 82.2 60.05 82.2 60.1 82.3 60.15 82.3 59.95 82.35 59.6 82.2 59.1 82.15 58.9 82.1 58.85
M 83.05 59.95
Q 83.1 59.5 82.95 59.35 82.8 59.25 82.7 59.35 82.5 59.45 82.55 59.6 82.55 59.8 82.8 59.95 82.85 60.05 82.95 60.05 83.05 60.1 83.05 59.95
M 83.1 58
Q 83.15 57.6 82.95 57.35 82.8 57.2 82.55 57.2 82.3 57.2 82.2 57.4 82.15 57.65 82.35 58 82.55 58.1 82.75 58.2 83.1 58.3 83.1 58
M 85 58.2
Q 84.9 57.75 84.9 58 84.9 58.3 84.95 58.75 85.05 59.2 85.05 58.95 85.05 58.65 85 58.2
M 84.45 57.8
Q 84.4 57.75 84.4 58 84.35 58.4 84.5 58.9
L 84.6 59.15
Q 84.7 59.2 84.75 58.95 84.75 58.55 84.6 58.05 84.5 57.85 84.45 57.8
M 85.6 56.05
Q 85.2 56.25 85.15 56.55 85.05 56.85 85.5 57 85.75 57.2 85.95 57.35 86.4 57.55 86.5 57 86.55 56.3 86.25 56.1 85.95 55.9 85.6 56.05
M 85.05 57
Q 85.05 56.7 85 56.25 84.9 55.8 84.9 56 84.9 56.35 84.95 56.8 85.05 57.25 85.05 57
M 80.05 51.95
L 80 52.35
Q 79.95 52.85 80 53.1 80.05 53.45 80.2 53.05 80.2 52.05 80.05 51.95
M 82.3 52.15
Q 82.1 52.1 81.6 51.95 81.15 51.9 80.85 52.1 80.45 52.3 80.2 53.05 80.45 54.1 82 52.9 82.5 52.55 82.9 52.15 83.4 51.6 82.9 52.1 82.7 52.25 82.3 52.15
M 89.2 55.35
Q 89.6 55.55 89.65 55.05 89.7 54.65 89.4 54.45 89.2 54.3 88.9 54.35 88.6 54.35 88.5 54.55 88.4 54.75 88.75 55.05 88.95 55.25 89.2 55.35
M 90.2 53.45
Q 90.05 52.9 90 52.8 89.85 52.6 89.85 53.05
L 89.9 53.55
Q 90 54.05 90.15 54.4 90.45 55.45 90.6 54.05 90.55 54.35 90.45 54.15 90.4 54 90.2 53.45
M 88.05 55.1
Q 87.8 54.9 87.45 55.1 87.1 55.25 87 55.55 86.9 55.85 87.3 56 87.55 56.25 87.8 56.35 88.25 56.55 88.35 56 88.35 55.35 88.05 55.1
M 87 51.1
L 87 51.15
Q 87.05 51.15 87.05 51.1 87.1 50.75 86.15 50.85 85.35 51 85.15 51.1 84.9 51.25 84.6 51 84.4 50.85 84.1 50.45 83.8 50.2 83.6 50.3 83.4 50.4 83.25 51.1 83.1 51.5 83.35 51.85 83.55 52.1 83.65 52.1 83.95 52 84.45 51.7 85.25 51.25 85.35 51.2 86.4 50.65 87 51.1
M 87.25 50.1
Q 87.2 50.45 87.3 50.9 87.4 51.35 87.4 51.1 87.45 50.8 87.35 50.35 87.25 49.9 87.25 50.1
M 87.6 49.65
Q 87.5 49.85 87.8 50.1 88.05 50.35 88.25 50.45 88.7 50.65 88.75 50.1 88.8 49.75 88.5 49.55 88.25 49.4 87.95 49.4 87.65 49.45 87.6 49.65
M 91.45 53.15
Q 91.55 53.2 91.55 53.05 91.65 52.65 91.5 52.5 91.4 52.35 91.25 52.45 91.1 52.55 91.1 52.7 91.1 52.95 91.35 53.05 91.4 53.15 91.45 53.15
M 91.7 47.15
Q 91.7 46.85 91.6 46.4 91.55 45.95 91.5 46.2 91.5 46.5 91.55 46.95 91.65 47.4 91.7 47.15
M 88.95 49.35
Q 88.8 48.9 88.8 49.15 88.8 49.45 88.9 49.9 88.95 50.35 88.95 50.1 89 49.8 88.95 49.35
M 89.75 49.15
Q 89.75 48.7 89.65 48.55 89.55 48.4 89.4 48.5 89.25 48.6 89.25 48.8 89.25 49 89.5 49.15 89.55 49.2 89.6 49.25 89.7 49.3 89.75 49.15
M 86.3 48.15
Q 86.35 47.8 86.25 47.4 86.15 46.95 86.15 47.15 86.1 47.5 86.2 47.95 86.3 48.35 86.3 48.15
M 87.3 47.15
Q 87.25 46.8 87.15 46.45 86.95 45.85 86.9 46.2 87 46.95 87.05 47.4 87.2 48.4 87.3 47.15
M 87.85 45.25
Q 87.8 45.05 87.75 45 87.7 44.95 87.65 45.2 87.6 45.6 87.75 46.15 87.85 46.35 87.9 46.35 87.95 46.4 88 46.2 88.05 45.8 87.85 45.25
M 88.35 45.3
Q 88.35 45.1 88.3 45.05 88.25 45 88.2 45.2 88.2 45.55 88.35 46.05 88.35 46.25 88.4 46.3 88.5 46.35 88.5 46.2 88.5 45.8 88.35 45.3
M 86.55 46.4
Q 86.5 45.95 86.5 46.2 86.45 46.5 86.55 46.95 86.6 47.4 86.65 47.15 86.7 46.85 86.55 46.4
M 81.9 49.15
Q 81.85 47.75 81.45 47.75 81.2 47.75 80.85 48.6 80.5 49.4 80.45 50 80.35 50.6 80.8 50.1 81.15 49.6 81.35 49.3 81.85 48.7 81.9 49.15
M 82.7 48.15
Q 82.2 48.7 82.2 48.85 82.25 48.95 82.6 48.8 83.7 48.2 83.85 48.15 84.05 48.1 84.35 48.1 84.65 48.1 84.8 48.1 85.35 48 85.75 47.15
L 85.9 47.25
Q 86.05 47.3 86.05 47.15 86.1 45.75 85.8 46.3 85.7 46.45 85.55 46.8
L 85.4 47.15
Q 85.2 47.3 84 47.6 82.95 47.9 82.7 48.15
M 82.95 41.5
L 82.9 41.25
Q 82.85 41.6 82.95 42.05 82.95 42.15 82.95 42.2 83.05 42.4 83.05 42.25
L 83.05 42.2
Q 83.1 41.85 82.95 41.5
M 82.5 38.4
Q 82.65 38.45 82.65 38.3 82.65 37.9 82.5 37.7 82.4 37.6 82.25 37.7 82.1 37.8 82.1 37.95 82.15 38.15 82.35 38.3 82.45 38.4 82.5 38.4
M 90.95 42.2
Q 90.95 42.25 91 42.25 91.1 42.3 91.15 42.35 91.25 42.4 91.25 42.25
L 91.25 42.2
Q 91.3 41.8 91.15 41.65 91.05 41.5 90.9 41.6 90.75 41.7 90.75 41.9 90.75 42.05 90.95 42.2
M 89.4 43.25
Q 89.4 42.9 89.35 42.45 89.3 42.25 89.3 42.2 89.25 42.1 89.25 42.2
L 89.25 42.25
Q 89.2 42.55 89.3 43 89.4 43.45 89.4 43.25
M 87.25 41.35
Q 87.25 41.3 87.25 41.25 87.25 41.3 87 40.95 86.7 40.4 86.55 40.15 85.8 39.15 85.75 40.3 85.75 40.2 85.95 40.6 86.15 41.05 86.3 41.3 86.25 41.35 86.15 41.35 85.8 41.4 85.65 41.25 85.6 41.25 85.2 41.25 84.9 41.3 84.9 41.25 84.75 41.35 84.45 41.4 84.3 41.4 83.9 41.4 83.6 41.45 83.55 41.6 83.45 41.8 83.7 42.2
L 83.7 42.25
Q 84.05 42.8 85.05 43
L 85.35 43.1
Q 85.35 43.15 84.8 43.25 84.25 43.35 83.35 43.75 82.45 44.15 81.95 44.2 81.75 44.25 81.45 44.15 81.15 44.05 80.9 43.9 80.7 43.75 80.75 43.55 80.75 43.4 81.15 43.25 81.6 43.15 81.9 43.05 82.45 42.8 82.2 42.25
L 82.2 42.2
Q 81.75 41.1 81.25 41.05 80.85 41 80.3 41.6 80.2 41.7 79.85 42.15
L 79.8 42.2
Q 79.5 42.5 79.35 42.7 78.8 43.3 78.25 43.25 78.1 43.2 77.7 43.1 77.35 43 77.1 43.25
L 77.05 43.5
Q 76.9 43.85 77 44.2 77.3 45.4 77.8 45.4 78.15 45.45 78.7 44.75 79.35 43.95 79.65 43.6 80.2 43.05 80.45 43.25 80.5 43.3 80.55 43.65 80.55 43.9 80.6 44.5 80.65 45.85 80.8 46.2 80.9 46.4 81.05 46.3 81.2 46.25 81.45 45.9 81.75 45.55 81.9 45.4 82.1 45.15 82.3 45.2 82.7 45.25 83.4 45 83.7 44.8 84.6 44.3 85.45 43.8 85.9 43.55 86.65 43.25 87.25 43.25 87.4 43.25 87.55 43.15 87.8 42.9 87.65 42.25
L 87.65 42.2
Q 87.45 41.55 87.25 41.35
M 88.5 41.3
Q 88.45 41.1 88.4 41.05 88.35 41.05 88.35 41.25 88.3 41.65 88.45 42.2 88.5 42.4 88.55 42.45 88.65 42.45 88.65 42.25
L 88.65 42.2
Q 88.65 41.8 88.5 41.3
M 87.85 39.45
Q 87.6 39.5 87.6 39.7 87.5 39.95 87.75 40.3 87.9 40.45 88.05 40.55 88.35 40.75 88.4 40.3 88.45 39.85 88.25 39.6 88.1 39.4 87.85 39.45
M 89.65 39.3
Q 89.7 38.9 89.55 38.35 89.45 38.15 89.4 38.1 89.35 38.1 89.35 38.3 89.3 38.7 89.45 39.25 89.55 39.45 89.55 39.5 89.65 39.55 89.65 39.3
M 85.35 36.4
Q 85.05 36.5 84.9 36.75 84.8 37.05 85.15 37.35 85.4 37.5 85.65 37.6 86.1 37.75 86.15 37.35 86.2 36.75 85.95 36.5 85.7 36.3 85.35 36.4
M 86.8 35.7
Q 86.6 35.8 86.6 36 86.65 36.2 87 36.35 87.1 36.45 87.15 36.5 87.3 36.55 87.3 36.35 87.35 35.9 87.15 35.75 87 35.6 86.8 35.7 Z"/>
</g>
</defs>

<g transform="matrix( 1, 0, 0, 1, 0,0) ">
<use xlink:href="#Layer1_0_FILL"/>
</g>
</svg>
