
<svg xmlns="http://www.w3.org/2000/svg" version="1.1" xmlns:xlink="http://www.w3.org/1999/xlink" preserveAspectRatio="none" x="0px" y="0px" width="100px" height="100px" viewBox="0 0 100 100">
<defs>
<g id="Layer1_0_FILL">
<path fill="#363435" stroke="none" d="
M 54.2 61.9
L 54.05 62.25 54.4 62.3 54.2 61.9
M 51.55 64.8
L 52 65.3
Q 51.9 65.1 51.8 65
L 51.55 64.8
M 59.75 62.3
L 58.15 62.3 60.75 62.65 59.75 62.3
M 49.65 64.6
L 48 64.55 51.55 65.2 49.65 64.6
M 59.4 60.7
L 56.6 60.65
Q 57.05 61.25 59.05 61.3 61.9 61.4 62 61.4
L 59.4 60.7
M 52.4 49.8
L 52.2 49.65 52.2 49.8 52.4 49.8
M 53.5 49.75
Q 53.65 49.95 53.7 49.95 53.95 49.95 54.25 50
L 53.5 49.75
M 58.1 50.2
L 58.55 50.15 55.95 49.35
Q 56.2 49.75 57 49.95 57.9 50.15 58.1 50.2
M 66.7 62.3
L 66.3 62.25
Q 65.3 62.95 63.7 62.7 64.25 63.35 65.25 63.2 66.1 62.95 66.2 62.95
L 66.7 62.3
M 69.3 62.1
L 69.5 62.1 69.45 61.8 69.3 62.1
M 64.15 61.25
L 64.1 61.65 64.65 61.4 64.15 61.25
M 62.4 61.1
Q 62.65 61.4 62.95 61.45 63.45 61.5 63.85 61.6
L 62.4 61.1
M 62.3 49.75
Q 61.9 50 61.4 49.95 61.2 49.95 60.15 49.6 60.45 50.15 61.3 50.2 61.6 50.2 62.65 50.15
L 62.65 49.95 62.3 49.75
M 64.05 50
L 64.3 50
Q 64.35 50 64.55 49.8
L 64.3 49.75 64.05 50
M 63.7 50.15
L 63.7 50 63.25 49.75
Q 63.35 49.95 63.4 50 63.45 50 63.7 50.15
M 65.05 49.75
L 64.8 49.65
Q 64.9 49.8 64.95 49.8 65 49.8 65.05 49.75
M 67.1 49.6
L 66.6 49.55 66.4 49.8 67.1 49.6
M 75.35 60.85
L 75.15 60.85 74.95 61.1 75.35 60.85
M 74.6 60.7
L 74.45 61.05 74.85 60.9 74.6 60.7
M 74.15 61.05
L 74.15 61.1 74.45 61.05 74.15 61.05
M 72.95 61.1
L 72.55 61.05 72.15 61.3 72.75 61.45 72.95 61.1
M 74.5 53.75
L 74.6 53.9
Q 74.65 53.9 74.75 53.85
L 74.5 53.75
M 72.45 54.1
L 71.9 54.05 72.45 54.25 72.45 54.1
M 73.3 53.9
L 72.45 53.9 73.65 54.1 73.65 54.05 73.3 53.9
M 71.35 53.9
L 70.95 54.3 71.85 53.95 71.35 53.9
M 78.2 51.6
L 77.95 51.55 78.05 51.7
Q 78.05 51.6 78.2 51.6
M 19.7 58
L 19.35 57.75 19.15 58.4 19.3 58.4 19.7 58
M 16 56.8
Q 16.3 56.75 16.35 56.65 16.45 56.6 16.3 56.35
L 16 56.8
M 35.4 62.7
Q 28.45 62.95 24.3 62.05
L 24.75 61.45
Q 22.45 62.5 19.35 61.45 15.95 60.3 15.5 57.75
L 16 56.8 15.25 57.35 15.05 56.05 14.45 55.9
Q 14.4 55.9 14 56.4
L 13.95 56.15
Q 13.95 56.05 13.7 55.8
L 13.55 56.15 13.9 56.55
Q 13.3 57.15 12.75 57.15 12.8 57.95 13.15 58.6 13.55 59.35 13.65 59.9 23.5 66 45.6 62.4
L 50.6 62.7
Q 50.45 62.7 50.4 62.7 49.35 62.85 48 62.95
L 48 63.15
Q 51.1 62.95 55.9 63.4 61.2 63.95 63.4 63.05
L 63.45 62.95 63.4 62.85 63.35 62.5 61.45 62.45
Q 61.25 62.7 61.5 62.85 61.9 62.95 62.05 62.95 60.4 63.8 56.7 63.25 53.95 62.7 52.2 62.65 50.15 61.7 48.65 61.7
L 48.6 61.7 48 61.5 48 61.7
Q 46.8 61.7 46.05 61.8 41.05 62.5 35.4 62.7
M 39.75 64.55
Q 39.8 64.8 40.05 64.8 40.55 64.95 41 64.95
L 39.75 64.55
M 20.75 58
L 20.4 58 20.45 58.7
Q 21.05 58.8 26.95 60.35 31 61.45 33.85 61.3 42.85 60.75 47.3 60.55 49.85 60.5 52.2 60.5
L 52.2 60.45 56.45 60.95 56.5 60.65
Q 56.2 60.55 56 60.5 55.75 60.5 55.45 60.25 55.2 60.55 53.5 60.3 52.7 60.15 52.2 60.1 50.65 59.55 47.85 59.55 45 59.65 41.65 59.55 33.6 60.1 25.8 58.35 25.1 58.2 22.85 58.6 21.15 58.95 20.75 58
M 24.15 57.75
L 24.3 57.95
Q 24.4 57.9 24.55 57.95
L 25 58.2 25 58 24.15 57.75
M 24.7 38.1
L 24.8 38.2
Q 24.85 38.2 24.95 38.2
L 24.7 38.1
M 39 35.75
Q 38.25 36.2 36.5 36.4
L 36.85 36.55
Q 37.05 36.4 38.1 36.25 38.9 36.15 39.2 35.8
L 39 35.75
M 36.3 36.45
Q 34.6 36.6 32.25 36.55 27.1 36.35 25.55 37.75
L 25.2 37.9
Q 25.5 38 25.65 38 25.85 37.9 26.05 37.9
L 26.6 38
Q 26.65 38.1 26.6 38.5 26.95 38.75 27.2 38.85 27.65 38.9 28 38.95
L 27.6 39.45 28.4 39.7 28.4 39.45 28.3 39.15
Q 28.45 38.7 30.1 38 31.7 37.3 36.3 36.45
M 19.1 37.2
L 19.05 37.35
Q 19.45 37.9 20.75 38.1 22 38.2 22.55 38
L 23 37.8
Q 22.4 37.1 21.75 36.85
L 19.1 37.2
M 76.65 47.3
L 77.25 47.1 75.85 46.65 70.8 46.5
Q 71.25 47.3 73.6 47.25 76.45 47.25 76.65 47.3
M 79.35 44.4
Q 79.95 44.2 80.15 43.9
L 76.95 43.6
Q 76.95 43.65 76.8 43.75
L 76.8 43.95
Q 77.8 44.5 78.5 44.4 78.75 44.6 79.35 44.4
M 80.75 46.25
Q 80.55 46.15 80.2 45.9
L 80.15 46.45 81.2 46.65
Q 81.05 46.45 80.75 46.25
M 71.45 47.5
L 71.3 47.85 71.55 47.9 71.45 47.5
M 71.95 44.8
L 71.35 44.9 72.55 45.15 71.95 44.8
M 73.5 45.15
L 73.5 44.95 72.95 44.9 73.5 45.15
M 73.8 45.55
L 73.6 45.5
Q 73.9 45.75 76.6 45.95 79.85 46.25 79.9 46.25 79.2 45.65 78.15 45.4 76.5 45.1 76.3 45 75.85 45.2 75.6 45.2 75.4 45.15 74.85 44.9
L 74.85 45.1 75.05 45.2
Q 75.1 45.3 75.15 45.5 75.05 45.35 74.6 45.2 74.25 45.2 74.2 44.9 74.05 45.1 73.95 45.15 73.95 45.2 73.8 45.55
M 78.7 40.65
L 80.8 41.6 80.85 41.4 78.7 40.65
M 76.15 37.7
Q 76.3 37.75 76.75 37.9
L 76.75 37.7 75.85 37.3
Q 76.05 37.6 76.15 37.7
M 68.75 49.2
L 68.5 49.35
Q 68.65 49.45 68.65 49.4 68.7 49.35 68.75 49.2
M 69.4 44.9
L 69.9 45.15 69.9 44.95 69.4 44.9
M 78.85 34.8
L 79.8 35.75 80.35 35.25 78.85 34.8
M 58.7 45.2
L 59.2 45.5 59.2 45.3 58.7 45.2
M 52.2 42.35
Q 52.85 42.35 53.45 42.45 53 41.7 52.2 41.4
L 52.2 42.35
M 47.45 35
L 46.75 35.2
Q 47.15 35.4 47.65 35.2
L 48 35.1 47.45 35
M 43.1 35.55
Q 43.1 35.4 43.15 35.35
L 42.9 35.4
Q 43.05 35.55 43.1 35.55
M 44.9 35.1
L 44.7 35.45 45 35.55 44.9 35.1
M 40.7 35.55
L 40.55 35.85 41.1 35.6 40.7 35.55
M 85.3 52.3
L 82.25 52 86.7 53.1 85.3 52.3
M 85.25 54.9
L 84.85 54.8 84.95 55.2 85.25 54.9
M 85.85 54.45
Q 85.7 54.65 85.55 54.7
L 85.25 55.25 85.65 55.1
Q 85.8 55.3 85.85 55.25 86 54.9 86.05 54.85
L 85.85 54.45
M 26.65 39.35
L 26.75 39.05
Q 26.1892578125 38.93359375 25.55 38.95
L 26.65 39.35
M 81.4 54.1
L 81.4 53.9 66.95 55.45 52.2 55.45
Q 51.2 53.05 49.8 54.15 47.15 53.15 40.8 53.1 34.55 53.1 31.45 53.25
L 31.35 53.05
Q 32.4 52.5 33.95 52.5 35.55 52.5 36.35 52.5 35.8 52 39.3 51.8 43.15 51.6 43.75 51.55
L 52.2 49.15
Q 55.05 49.25 59.05 49.4 69.5 49.6 71.35 48.5
L 71.15 49
Q 71.65 48.8 72.65 48.65 73.85 48.6 74.25 48.4
L 74.6 48.45 74.6 48.3
Q 72.05 47.9 67.1 48.2 61.2 48.6 58.6 48.45
L 36.45 48.05
Q 54.2 46.95 56 47.05 58.35 47.05 59.75 47.65
L 70.3 46.95 70.35 46.75 68.7 46.3 57.05 46.65
Q 56.95 46.65 56.45 46.1 55.8 45.55 55.3 45.55
L 49.75 45.3
Q 49.25 45.15 48.8 45.15 48.4 45.15 48 45.2
L 48 45.3 47.15 45.3
Q 47.75 44.55 49.45 43.65 47.85 43.55 44.85 43.6 35.05 42.6 38.55 41.05 42.15 39.5 38.7 39.85 32.65 40.3 29.05 39.5
L 28.95 40.3
Q 28.3 40.35 27.3 40.15 26.75 40.05 25.5 39.65
L 25.55 38.95
Q 23.169140625 39.0078125 19.7 40.9 19.6 40.7 19.45 40.6
L 19.4 40.05
Q 18.8 40.05 18.4 40.25 18.2 40.45 17.7 40.9 18.1 41.5 19.35 41.9 18.9 42.35 18.15 42.4 17.75 42.45 16.85 42.45 17.05 43.35 17.15 44.9 17.3 46.7 17.2 47.5 17.7 48.1 17.85 48.2 18.1 48.4 18.85 48.5 18.6 49.2 18.5 49.4 18.35 49.75 17.95 49.95 17.5 50.2 15.35 49.75
L 15.05 50.2
Q 15.05 50.8 15.1 50.95 15.25 51.1 15.4 51.35
L 13.25 51.75
Q 13 52.2 13.2 52.85 13.25 52.85 13.8 53.9 15.45 53.1 17.65 54.45 20.15 56.2 21.3 56.8
L 23.25 57.35 30.95 57.8
Q 31.05 57.8 33.3 58.55 35.05 59 36.3 58.7 37.2 58.4 40 58.35 42.4 58.2 43.6 57.75 43.8 58 45 58.2 46.1 58.35 46.75 58.15 49.6 57.35 51.95 57.15 55.95 57.8 64.7 57.35 75.85 56.75 78 55.3 78.3 55.4 78.55 55.7 78.7 56 79 55.9 79.35 55.8 80.15 55.25 81.05 54.65 81.4 54.1
M 82.55 54.15
L 81.8 53.85 81.6 54.3 82.55 54.15
M 83.1 53.9
L 82.6 53.85 83.1 54.1 83.1 53.9
M 86.15 55.05
L 86.25 55.45 87.4 55.65
Q 87.2 55.1 86.4 54.6
L 86.35 54.85 86.15 55.05
M 87.05 54.5
Q 87.15 54.7 87.15 54.8 87.2 54.85 87.35 55
L 87.4 54.8 87.05 54.5
M 85.05 40.65
Q 84.35 39.7 81.15 38.75 79.45 38.3 77 37.6 77.4 38.2 80.85 39.45 83.15 40.15 85.05 40.65
M 85.25 43.8
Q 85.4 43.6 85.4 43.4
L 85.7 43.4
Q 84.55 42.4 82.2 42 81.4 42.55 79.85 42.4 78.95 42.25 77.25 41.9
L 77.15 42.6 85.25 43.8
M 81.05 36.4
L 81.2 36.45
Q 81.2 35.8 81.15 35.75 81.1 35.6 80.85 35.4
L 80.7 35.6
Q 80.7 35.75 80.7 35.85
L 80.55 36.15 81.05 36.4
M 81.5 36
Q 81.55 36.15 82.4 36.75 82.85 37 83 37.55
L 83.4 37.6 83.15 37.4
Q 83 36.75 82.55 36.4 82.2 36.2 81.5 36 Z"/>
</g>
</defs>

<g transform="matrix( 1, 0, 0, 1, 0,0) ">
<use xlink:href="#Layer1_0_FILL"/>
</g>
</svg>
