
<svg xmlns="http://www.w3.org/2000/svg" version="1.1" xmlns:xlink="http://www.w3.org/1999/xlink" preserveAspectRatio="none" x="0px" y="0px" width="100px" height="100px" viewBox="0 0 100 100">
<defs>
<g id="Layer1_0_FILL">
<path fill="#363435" stroke="none" d="
M 56.25 69.1
L 55.8 69.95
Q 56.1 70.4 56.2 70.8
L 56.9 70.95 56.95 70.45 57.35 70.05 56.25 69.1
M 57.55 68.4
L 58.1 68.55 57.8 68 57.55 68.4
M 53.1 65.4
L 52.4 65.25 53.05 65.65 53.1 65.4
M 53.45 65.25
L 54.15 65.65 54.15 65.4 53.45 65.25
M 60.5 64.9
L 59.8 64.75 59.1 64.85 60.5 65.15 60.5 64.9
M 44.85 64.3
L 44.75 65 44.9 65.05 44.85 64.3
M 44.7 65.45
L 44.85 65.8
Q 44.95 65.7 45.2 65.8
L 45.2 65.55 44.7 65.45
M 46.8 65.7
L 46.15 65.55 46.8 65.95 46.8 65.7
M 50.4 65.3
L 50.6 65.65
Q 50.7 65.55 50.95 65.65
L 51 65.4 50.4 65.3
M 50.05 65.45
L 49.55 65.35 49.7 65.7
Q 49.75 65.6 50 65.7
L 50.05 65.45
M 49.3 54.15
L 48.2 54.15 49.6 54.7 49.3 54.15
M 51.2 54.8
L 51.25 54.55 50.55 54.4 51.2 54.8
M 76.6 69.3
L 76.75 69.35 77.7 68.8 77.2 68.7 76.65 68.8 76.6 69.3
M 76.15 68.7
L 76.05 69.15
Q 76.35 68.95 76.45 68.8
L 76.15 68.7
M 77.95 68.4
L 77.75 68.6 78.4 69.2 78.65 68.55 77.95 68.4
M 79.55 68.5
L 79.2 68.4
Q 79.35 68.55 79.4 68.6 79.4 68.65 79.55 68.5
M 71.2 69.55
L 71.2 69.3 70.5 69.15 71.2 69.55
M 75.05 68.95
L 74.8 69.15 74.8 69.35 75.1 69.7
Q 75.1 69.35 75.2 69.25
L 75.05 68.95
M 73.7 69.85
L 73.85 69.9 73.95 69.15 73.4 69.05 73.7 69.35 73.7 69.85
M 64.45 70.45
L 64.4 71.2 65.65 71.2 65.65 71 64.45 70.45
M 60.85 64.9
Q 60.85 64.95 61.05 64.8
L 60.7 64.7
Q 60.85 64.85 60.85 64.9
M 64 59.85
L 64.65 60.25 64.7 60 64 59.85
M 61.55 53.45
Q 61.65 53.6 61.75 53.7 61.85 53.8 62.55 53.95
L 61.55 53.45
M 64.3 51.2
Q 64 50.65 63.65 50.5 63.05 50.3 62.85 50.15 62.5 50.6 61.5 50.4 60.25 50.1 59.8 50.2 60.05 50.45 60.4 50.5 60.5 50.5 60.4 51.05
L 63.1 50.95 62.85 51.6 64 51.15 64.3 51.2
M 68.55 51.9
Q 68 51.9 66.75 51.3 65.55 50.7 65 50.15
L 64.8 51.8
Q 66.25 52.15 66.75 52.2 68.05 52.35 68.55 51.9
M 78.75 60.55
L 78.4 60.45
Q 77.85 60.75 74.4 61.1 70.65 61.45 70.05 61.5
L 70 61.7
Q 71.35 62.55 74.6 62.05 77.75 61.6 78.75 60.55
M 80.4 60.2
L 79.65 60.5 80 60.55 79.7 61.25
Q 80.1 61.15 80.35 61 80.5 61 81 61.05 80.85 60.55 80.8 60.5 80.75 60.5 80.4 60.2
M 79.25 60.65
L 79.65 60.5 79.1 60.35 78.8 61.3 79.25 60.65
M 77.55 57.35
L 78 57.95 78.2 57.5 77.55 57.35
M 79.1 57.45
L 78.6 57.35
Q 78.7 57.5 78.7 57.6 78.75 57.6 79.1 57.7
L 79.1 57.45
M 79.1 57.45
Q 79.4 57.8 79.65 57.65 79.85 57.45 79.7 57.1
L 79.1 57.45
M 80.4 57
L 80.05 57.2 80 57.4 81.1 57.2 80.4 57
M 71.35 59.35
L 71.15 59.8 71.5 59.85 71.35 59.35
M 75.05 52.65
L 75.4 52.75 75.3 52.25 75.05 52.65
M 72 51.5
Q 72.55 52.1 73.3 52.4 73.65 52.55 74.85 52.85
L 74.9 52.4 72 51.5
M 71.55 52.1
L 71.95 51.75
Q 71.2 51.8 70.3 51.5 68.5 50.95 67.95 50.8 68.3 51.65 69.55 52.1 70.25 52.3 71.5 52.6
L 71.55 52.1
M 78.7 52.9
Q 78.8 53 79.3 53.15
L 79.3 52.9 78.45 52.5
Q 78.65 52.85 78.7 52.9
M 80.05 52.6
L 79.85 53.05 80.6 52.7 80.05 52.6
M 76.8 52.85
L 76.85 52.6 76.2 52.2 75.95 52.65 76.25 52.95 76.8 52.85
M 78.05 53.1
L 78.05 52.85 77.25 52.45 77 52.85 78.05 53.1
M 9.9 62.5
L 9.6 62.9 10.05 63 9.9 62.5
M 9.7 53.65
L 9.6 54.15 10.85 54.1 9.7 53.65
M 17.55 61.8
L 16.6 61.65 17.55 62.05 17.55 61.8
M 11.15 53.65
L 11.8 54.25 12.3 54.1 11.15 53.65
M 32.8 65.3
L 31.1 65.25 33.5 65.65 33.5 65.4 32.8 65.3
M 39 65.4
L 39.15 65.7
Q 39.2 65.65 39.5 65.75
L 39.5 65.5 39 65.4
M 36.45 65.75
L 35.6 65.35 35.2 65.75 36.45 65.75
M 36.7 63.65
L 37 64.25 37.8 63.9 37 63.25 36.75 63.45 36.7 63.65
M 37.85 51.3
L 36.8 51.3 38.7 51.7 37.85 51.3
M 37.55 46.55
L 38.2 46.95 38.25 46.7 37.55 46.55
M 40 38.4
L 39.25 38.45 40.25 38.95 40 38.4
M 37.95 38.9
L 38.35 38.5 37.9 38.15
Q 37.25 38.5 34.65 38.15 32.3 37.85 31.6 38.65
L 37.95 38.9
M 29.7 40.25
L 28.35 41 27.85 41.15 27.8 41.4 30.45 41.35 31 41.2
Q 30.75 40.55 30.65 40.5 30.3 40.4 29.7 40.25
M 27.65 37.95
Q 28.25 38.45 29.05 38.5 29.5 38.55 30.7 38.45 31 38.2 31 38.1 31.05 38.05 31.05 37.8
L 27.65 37.95
M 28.5 34.2
Q 28.3 34.7 28.4 34.8 28.55 34.9 29.5 35.6 29.25 34.9 28.5 34.2
M 27.7 34.55
L 27.25 34.5 26.8 35.6 27.05 35.65 27.7 34.55
M 39.05 34.3
L 40.1 34.5
Q 39.85 34 39.3 33.6
L 39.05 34.3
M 37.45 34.4
L 37.65 34.45 38.05 34.05 37 33.55 37.45 34.4
M 36.45 33.35
L 35.9 33.75 36.85 33.9 36.45 33.35
M 32.35 33.2
Q 33.25 33.45 34.65 33.75
L 35.65 33.7 31 32.45
Q 30.65 32.8 32.35 33.2
M 30.45 32.8
L 30.5 32.6
Q 29.65 32.2 29.2 31.65 28.9 31.05 28.6 30.8
L 27.1 31.05 27.05 31.3 27.85 32.15
Q 28 32.35 30.45 32.8
M 30.5 34.05
L 30.5 33.8 29.55 33.65 30.5 34.05
M 13.1 47.7
Q 13.3 47.85 13.35 47.9
L 13.6 47.75 13.1 47.7
M 11.65 48.6
L 10.85 48.05
Q 10.3 48.55 9.95 48.85 9.4 49.3 8.65 49.6
L 8.55 50.35
Q 9.15 50.65 18.95 52.05 15.55 53.25 12.7 53
L 14 53.95
Q 13.1 54.65 12.7 54.95 12.05 55.5 11.65 56.45 10.8 55.85 10.25 55.65 9.5 55.35 8.4 55.4
L 7.9 55.6
Q 7.75 56.6 7.75 56.65 7.7 56.8 7.4 57.2 7.75 57.65 7.8 57.7 7.85 57.75 8.25 57.85 8.35 58.25 8.15 58.3 7.5 58.35 7.45 58.4
L 12.5 60.25 12.5 60 10.1 58.4 10 57.65
Q 23.5 59.5 25.9 61.5
L 25.8 60.5
Q 27.85 60.85 29.05 61.7 30.25 62.55 30.15 63.65
L 31.6 63.9 31.2 63.1 33.85 63.3 34.2 62.9 33 62.7 32.85 62.15 36 62.2 35.4 61.4 35.45 61.4 35.45 61.45 47.45 62 47.5 61.75 47.4 61
Q 41.8935546875 60.243359375 37.2 59.7
L 37.2 59.5
Q 32.1490234375 59.1439453125 27.8 58.9
L 28.4 58.25 25.2 57 25.2 56.75 35.45 57.35 35.45 57.45 39.75 57.8 40.65 56.05
Q 41.65 56.25 43.8 57.35 45.5 58 45.65 56.2
L 48.9 56.2
Q 46.75 54.7 39.05 55.25 38.077734375 55.3228515625 37.2 55.3
L 37.2 55.3
Q 33.1869140625 55.151171875 31 54.25
L 31.5 54.15 30.55 53.95 30.5 54
Q 29.8865234375 53.72421875 29.45 53.35
L 29 53 35.45 53.3 35.45 53.4 47.15 54.15 46.4 53 41.65 52.4
Q 39.86015625 52.55234375 37.2 52.25
L 37.2 52
Q 34.14375 51.65859375 30.4 51.05 20.55 49.45 14.95 49.95
L 14.25 49.6
Q 15.85 48.25 18.1 48.5
L 17.65 48.2 17.75 47.75
Q 14.65 48 13.5 49.7
L 12.3 49.5 12.9 48.9
Q 11.85 48.7 11.65 48.6
M 11.25 39.85
L 10.5 39.95 10.65 40.7 12.75 41.05 13.8 40.5 11.25 39.85
M 15.15 38.3
L 14.7 38.2 14.2 38.4
Q 14.6 38.6 14.7 38.55 14.75 38.55 15.15 38.3
M 6.9 41.05
L 6.5 41.95
Q 6.75 41.75 6.95 41.6 7.05 41.5 6.9 41.05
M 7.7 40.7
L 7.2 40.85
Q 7.5 41 7.55 40.95 7.6 40.9 7.7 40.7
M 77.6 46.65
Q 77.3 46.95 77 46.9 76.85 46.85 76.15 46.55 76.7 47.3 77.85 47.45 78.45 47.5 79.8 47.4
L 77.6 46.65
M 71.2 47.9
L 71.85 48.3 71.9 48.05 71.2 47.9
M 72.05 48.1
L 72.7 48.5 72.75 48.25 72.05 48.1
M 74.35 42.5
L 73.65 42.35 72.75 42.4 74.3 42.75 74.35 42.5
M 75.6 42.55
L 75.35 42.95 75.9 43.1 75.6 42.55
M 74.9 42.4
L 74.8 42.85
Q 75.05 42.7 75.2 42.45
L 74.9 42.4
M 77 42.85
L 76.3 42.7 76.95 43.1 77 42.85
M 65.35 47.3
L 64.45 47.35 65.8 47.9 65.35 47.3
M 62.4 47.35
Q 62.5 47.3 62.35 46.85
L 61.9 47.5
Q 62.15 47.4 62.4 47.35
M 63.2 45.8
L 61.4 45.9
Q 61.85 46.35 62.5 46.2 63 46.1 63.2 45.8
M 60.8 46.25
Q 61.05 46.1 61.25 45.85
L 60.9 45.75 60.8 46.25
M 63.05 41.4
L 62.65 41.55 62.6 41.8 63.7 41.55 63.05 41.4
M 61.5 34.75
L 60.85 34.35 61.5 35 61.5 34.75
M 57.35 45.7
L 56.4 45.95 56.9 46.3 57.65 45.75 57.35 45.7
M 51.35 44.85
L 51.25 45.8 51.95 45.95
Q 51.65 45.3 51.35 44.85
M 45.75 43.6
L 45.8 43.35 45.1 43.2 45.75 43.6
M 48.6 43.5
L 49.3 44.15
Q 48.4 44.65 46.8 44.2 44.65 43.55 43.45 43.55 40.064453125 43.55 37.2 43.3
L 37.2 43.15
Q 27.7572265625 42.3798828125 22.9 40.1
L 23.45 38.2
Q 24.15 38.55 24.9 38.5 25.8 38.5 26.75 38.8
L 26.85 38.3
Q 27.15 38.15 27.4 37.9
L 26.9 37.85
Q 26.8 37.65 26.2 37.5 25.65 37.3 25.05 37.3 25.55 36.8 25.6 36.8 25.65 36.75 26.35 37 26.25 36.35 26.2 36.25 26.15 36.2 25.8 35.7 25.4 35.9 21.95 36.4 19.35 36.75 18.55 38.4
L 19.8 38.35 20.45 38.7
Q 20 40.65 20.1 39.35 19.85 40 20.05 40.2 20.15 40.25 20.9 40.45 20.3 40.9 20.1 40.9 19.8 40.7 19.45 40.45
L 19.2 40.45
Q 19.15 41.25 19.2 41.3 19.25 41.35 19.75 41.5 13.15 42.2 12.1 42.15 12.7 42.9 14.35 43.3 16 43.65 17.75 43.35
L 16.3 44.55
Q 14.15 44.25 13.1 43.55 13.15 44.4 13.1 44.5 13.05 44.65 12.15 44.85 11.65 46.05 11.6 46.2 11.55 46.65 11.45 47.4
L 12.15 47.75
Q 12.8 46.85 17.15 47.25 21.2 47.55 23.95 48.5 27.4673828125 49.7333984375 35.45 49.9
L 35.45 49.95
Q 43.35 50.1 45.8 50.65
L 45.15 50.25
Q 48.7 48.75 59.85 51.15
L 59.9 50.95
Q 58.3 49.6 54.55 49.4 50.15 49.35 48.3 49.3
L 37.2 47.35 37.2 47 35.9 46.85
Q 26.6 47.45 20.55 45.3 20.35 44.8 20.4 44.75 20.4 44.65 20.55 44.05
L 18.3 44.4
Q 18.75 43.9 18.8 43.8 18.9 43.7 19 43.1 20.95 43.35 21.65 43.25 22.1 43.2 23.65 42.9
L 29.25 44.3
Q 31.2998046875 44.3578125 35.45 44.65
L 35.45 44.8
Q 37.25 44.95 39.45 45.2 45.95 45.7 48.35 44.65
L 48.2 45.15
Q 48.25 45.2 48.6 45.45 48.85 45.1 48.85 45.05 48.85 45 48.9 44.55
L 49.75 44.75 49.3 45.35 50.15 45.55 50.15 44.1 48.6 43.5
M 44.5 39.15
L 43.7 38.75 43.65 39.2 44.5 39.15
M 42.45 38.45
L 41.05 38.4
Q 41.3 38.85 42 38.85 42.75 38.85 42.45 38.45
M 48.95 39.45
L 48.5 38.85
Q 48.05 39.25 47.9 39.45
L 48.95 39.45
M 48.6 36.45
Q 48.3 36.7 47.9 36.6 47.35 36.45 46.85 36.3
L 46.8 36.55
Q 47.35 37.2 48.35 37.35 49.75 37.6 50.25 37.8
L 50.85 37.45
Q 50.05 37.25 49.7 37.1 49 36.85 48.6 36.45
M 45.45 36.2
L 45 36.85 46.5 37.65
Q 46.4 36.95 45.45 36.2
M 45.05 34.7
L 44.65 33.85
Q 44.75 34.3 44.75 34.35 44.8 34.4 45.05 34.7
M 42.6 36.05
L 41.05 35.45
Q 41.15 35.9 41.55 35.95 41.85 36 42.6 36.05
M 54.45 34.15
L 54.4 34.6 54.95 34.5 55 34.25 54.45 34.15
M 81.3 68.65
L 81.65 68.75 81.75 68.25 81.25 67.9 80.05 68.6 79.7 68.55
Q 80.4 69.1 81.3 68.65
M 82.85 68.05
L 82.15 67.85 81.9 68.3 82.25 68.4 82 68.8
Q 82.45 68.6 82.5 68.6 82.55 68.55 82.85 68.05
M 84.25 67.85
L 83.75 67.75 83.15 68.1 84.25 68.1 84.25 67.85
M 85 67.8
L 84.5 67.65 84.65 68
Q 84.75 67.95 84.95 68.05
L 85 67.8
M 86.95 56.3
L 86.2 56.4
Q 86.5 56.75 86.7 56.75 86.85 56.75 87.4 56.65
L 87.45 56.45 86.95 56.3
M 84.75 56.8
L 84.4 56.7
Q 84.55 56.85 84.55 56.9 84.55 56.95 84.75 56.8
M 83.8 57.3
L 83.8 57.05 83.3 56.7 82.2 57.2 83.8 57.3
M 84.05 56.65
L 83.8 57.05 84.15 57.15 84.05 56.65
M 85.55 53.1
L 85.05 53 82.55 52.9 85.45 53.6 85.55 53.1
M 89.05 53.65
L 87.85 53.15 85.75 53.15 89.05 53.65
M 91.15 53.9
L 91.4 53.45 90.9 53.35 90.15 53.4 91.15 53.9 Z"/>
</g>
</defs>

<g transform="matrix( 1, 0, 0, 1, 0,0) ">
<use xlink:href="#Layer1_0_FILL"/>
</g>
</svg>
