
<svg xmlns="http://www.w3.org/2000/svg" version="1.1" xmlns:xlink="http://www.w3.org/1999/xlink" preserveAspectRatio="none" x="0px" y="0px" width="100px" height="100px" viewBox="0 0 100 100">
<defs>
<g id="Layer1_0_FILL">
<path fill="#363435" stroke="none" d="
M 49.4 62.65
Q 49.8 65.25 50.5 63.2 50.9 62.2 51.15 60.55 51 59.85 50.2 61.2
L 49.4 62.65
M 46.65 58.45
Q 46.7 59 46.95 58.9 47.2 58.8 47.5 58.35 48.15 57.25 48 56.4 47.9 55.9 47.7 56 47.45 56.05 47.15 56.45 46.5 57.65 46.65 58.45
M 42.8 56.4
Q 42.75 56 42.55 56.05 42.4 56.25 42.15 56.6 41.6 57.65 41.75 58.45 41.85 58.8 42.05 58.75 42.2 58.65 42.4 58.2 42.95 57.15 42.8 56.4
M 44.65 57.15
Q 43.95 58.35 43.75 58.65 43.35 59.1 43.25 58.6 43.65 61.35 45.05 59.2 45.7 58.1 46.25 56.4 46.1 55.45 45.65 55.85 45.3 56.05 44.65 57.15
M 52.3 60.3
Q 52.1 60.4 51.85 60.8 51.35 61.9 51.45 62.65 51.55 63 51.75 62.9 51.9 62.85 52.15 62.35 52.65 61.35 52.5 60.55 52.45 60.15 52.3 60.3
M 56.45 59.05
L 55.65 60.55
Q 56.05 63.15 56.75 61.1 57.1 60.1 57.4 58.45 57.25 57.7 56.45 59.05
M 72.35 66.5
Q 72.2 66.7 72 67.05 71.45 68.1 71.6 68.9 71.65 69.25 71.9 69.2 72.05 69.1 72.25 68.65 72.8 67.6 72.65 66.85 72.6 66.45 72.35 66.5
M 74.4 66.85
Q 74.3 66.35 73.9 67.3 73.6 68.15 73.7 68.9 73.8 69.35 74.1 68.5 74.5 67.55 74.4 66.85
M 62.6 66.85
Q 62.75 67.85 64.1 67.4 64.8 67.25 65.35 66.85 66.35 66.15 66.05 65.6 65.75 65.1 64.85 65.05 63.9 65.05 63.2 65.4 62.4 65.9 62.6 66.85
M 67.45 60.55
Q 67.6 61.55 68.95 61.2 69.6 60.95 70.25 60.55 71.15 59.85 70.9 59.35 70.65 58.9 69.7 58.8 68.75 58.75 68.1 59.15 67.3 59.6 67.45 60.55
M 62.65 60.85
Q 63.55 60.1 65.1 58.6 66.241015625 57.657421875 66.4 58.45 66.0955078125 56.7005859375 64.85 56.85 63.9 56.95 62.15 58.2 60.35 59.7 59.65 60.25 58.55 61.1 58.45 60.55 58.75 62.65 60.05 62.5 61 62.35 62.65 60.85
M 80.7 60.3
Q 80.55 60.4 80.3 60.8 79.8 61.9 79.95 62.65 80 63 80.15 62.9 80.35 62.85 80.6 62.35 81.1 61.35 81 60.55 80.9 60.15 80.7 60.3
M 76.1 60.55
Q 76.2 60.95 76.4 60.85 76.55 60.7 76.75 60.3 77.3 59.3 77.15 58.45 77.1 58.1 76.9 58.2 76.7 58.25 76.5 58.75 75.95 59.75 76.1 60.55
M 72.55 59.3
Q 71.8 59.6 71.95 60.55 72.05 61 72.6 60.85 72.95 60.8 73.35 60.55 74.75 60.25 74.8 59.85 74.85 59.45 74.05 59.2 73.2 59 72.55 59.3
M 28.1 71.45
Q 27.8 72.4 27.9 73.05 28 73.6 28.3 72.65 28.7 71.7 28.6 71 28.5 70.55 28.1 71.45
M 23.65 56.6
Q 25.5 56.7 29.05 56.95 35.3 57.25 39.7 56.4 43.15 55.7 39.4 54.9 36.2 54.25 33.8 54.25
L 17.85 54.25
Q 16.3 54.25 13.6 54.8 10 55.45 10.2 56.4 10.6 58.6 13.65 57.7 14.4 57.55 16.1 56.85 17.4 56.4 17.85 56.4 20.3 56.4 23.65 56.6
M 31.7 35.5
Q 31.6 35 31.25 35.95 30.9 36.9 31 37.6 31.1 38.1 31.45 37.15 31.8 36.2 31.7 35.5
M 7.75 43.9
Q 8.2 46.65 9.8 46.35 10.9 46.2 13.05 44.3 13.6 43.75 14.65 42.65 15.6 41.8 16.15 41.4 17.55 40.35 17.85 41.7 17.45 39.6 15.85 39.8 14.7 39.95 12.6 41.55 10.3 43.45 9.4 44 8 44.9 7.75 43.9
M 15.05 31.35
Q 14.9 31.55 14.5 31.55 14.15 31.65 14 31.35 16.25 37.6 24.5 35.65
L 24.45 35.75
Q 23.95 36.85 24.1 37.6 24.15 38 24.35 37.85 24.5 37.75 24.7 37.4 25.25 36.3 25.15 35.5 27.7 34.8 31.15 33.15 35 31.4 35.2 31.35 35.4 31.25 38.25 33.3 41.1 35.35 41.05 35.5 41.5 31 39.25 29.85 38.5 29.35 37.25 29.3 36 29.3 35.5 29.3 33.75 29.15 30.35 28.2 26.55 27.15 24.95 26.95 21.95 26.45 19.8 27.3 17.1 28.35 15.05 31.35
M 10.2 35.5
Q 10.25 35.8 10.7 35.75 10.9 35.65 11.25 35.5 12.3 35.25 12.35 34.8 12.35 34.4 11.75 34.25 11.05 34 10.6 34.25 10 34.65 10.2 35.5
M 66.7 45.95
Q 66.8 46.4 67.2 45.45 67.55 44.55 67.45 43.9 67.35 43.35 67 44.3 66.65 45.25 66.7 45.95
M 69.85 45.95
Q 69.95 46.35 70.15 46.25 70.3 46.1 70.5 45.7 71.05 44.7 70.9 43.9 70.85 43.5 70.65 43.6 70.45 43.65 70.25 44.15 69.75 45.15 69.85 45.95
M 70.8 40.3
Q 70.45 40.3 70.55 41.8 70.7 43.45 71.7 42.8 72 42.55 72.35 42.15
L 72.4 42.1 72.35 42.1
Q 71.9 41.4 71.6 41 71.05 40.2 70.8 40.3
M 66.4 41.8
Q 67.7 41.25 67.3 40.6 66.85 39.95 65.55 39.8 64.1 39.6 63.15 40.05 62.05 40.5 62.2 41.8 62.4 42.7 64.35 42.35 65.35 42.15 66.4 41.8
M 19.35 42
Q 19.25 41.95 19.2 41.8 19.15 41.7 19 41.85
L 18.95 41.9
Q 19.05 42 19.35 42
M 42.55 43.9
Q 46.05 44.9 47.9 45.3 51 45.95 53.95 45.95 54.35 45.95 56.45 46.65 58.95 47.5 60.35 47.75 65.55 48.9 66.05 45.95 66.15 45.45 63.55 44.6 61.2 43.9 60.5 43.9 56.7 43.9 52.55 43.2 50.05 42.8 45.45 41.8 40.8 40.75 38.4 40.35 34.35 39.65 30.7 39.65 30.3 39.65 28.3 40.2 25.75 40.85 24.4 41.25 20.5 42.15 19.35 42 20.35 43.9 21.85 44.35 23.15 44.7 25 44.05 25.35 43.9 28.1 42.65 30 41.8 31 41.8 34.05 41.8 37.2 42.4 39.1 42.8 42.55 43.9
M 41.45 33.45
Q 41.45 34.55 45.75 36.1 47.9 37 50.1 37.6 51.55 38.7 54.35 38 55.05 37.85 56.15 37.55 56.9 37.3 57 37.6 57.1 37.75 56.75 39.8 56.55 40.85 56.35 41.8 57.7 42.7 59.2 41.8 60.4 40.9 60.85 39.65 61 39.35 60.55 39.35 59.9 39.4 59.5 39.5 57.9 39.6 58.05 37.6 58.1 37.05 59.25 37.3 59.8 37.4 60.5 37.6 61.7 37.6 65.05 36.5 68.05 35.9 68.8 37.6 68.9 37.75 68.5 39.8 68.35 40.85 68.15 41.8 69.05 42 70.25 39.75 70.1 39.9 69.95 39.75 69.8 39.5 69.7 39.1 69.45 38 69.85 37.6 69.75 37.75 70.35 37.7 71.05 37.7 71.7 37.45 73.65 36.85 72.95 35.5 72.45 34.45 69.6 35 68.1 35.35 67.45 35.5 66.25 35.65 65.7 35.5 63.05 34.8 56.2 33.3 48.75 31.7 47.3 31.35 41.45 29.85 41.45 33.45
M 92.05 65.6
Q 92.1544921875 65.653125 92.3 65.75
L 92.3 65.65
Q 92.1546875 65.65 92.05 65.6
M 84.5 61.75
Q 84.5 61.35 83.75 61.25 83.05 61.2 82.55 61.5 81.9 61.9 82 62.65 82.05 63.15 82.7 63 82.75 62.9 83.4 62.65 84.55 62.2 84.5 61.75
M 86.85 60.55
Q 86.8 60.1 86.5 60.15 86.3 60.25 86 60.7 85.35 61.8 85.5 62.65 85.55 63.15 85.8 63.05 86.05 63 86.35 62.5 87 61.4 86.85 60.55
M 75.45 45.95
Q 74.7 45.15 74.4 45.85 74.1 46.4 74.3 47.45 74.5 48.45 74.75 48.3 75.15 48.05 75.45 45.95
M 76.65 35.95
Q 76.55 35 76.35 35.25 76.15 35.5 76.1 37.6 76.55 38.25 76.7 37.55 76.85 37 76.65 35.95
M 89.8 42.15
Q 88.85 38 88.6 37.6 87.1 35 82.65 36.6 81.05 37.15 79.35 38.15 78 38.95 77.15 39.65 77.55 39.35 77.5 40.5 77.5 41.55 77.25 42.35 76.9 43.25 76.6 42.4 76.25 41.3 76.1 37.6 75.15 36.9 74.7 37.05 73.9 37.2 75.05 39.65 75.85 41.3 75.65 41.4
L 74.7 40.75
Q 73.85 40.3 73.6 40.7 73.15 41.3 73.7 43.9 73.9 44.9 74.2 44.7 74.3 44.55 74.75 43.65 75 43.05 75.15 43.25 75.35 43.65 75.45 45.95 76.45 44.3 77.4 44.9 77.85 45.25 78.95 46.9 79.9 48.35 80.55 48.35 81.55 48.45 82.7 45.95 82.55 46 82.5 45.65 82.45 45.3 82.45 44.9 82.5 44.55 82.55 44.7 82.65 44.9 82.7 45.95 83.15 45.3 83.7 45.4 84.1 45.45 84.65 46.1 85 46.4 85.7 47.3 86.35 47.9 86.85 48.05 88.45 48.45 89 48.35 90.6 48.2 90.7 45.95
L 89.8 42.15
M 82.35 41.8
Q 82.4 39.65 83.25 39.2 83.95 38.8 84.85 39.65 85.7 40.5 85.9 41.7 86.15 43.05 85.15 43.9 85.3 43.75 84.9 43.2 84.55 42.65 83.9 42.1 82.4 40.75 82.35 41.8
M 81.1 40.45
Q 81.75 40.7 81.75 41.05 81.7 41.45 80.65 41.8 80.3 41.95 80.1 42 79.65 42.1 79.6 41.8 79.4 40.85 80 40.5 80.45 40.2 81.1 40.45
M 78.65 41.3
Q 78.3 42.25 78.2 41.8 78.1 41.05 78.4 40.15 78.8 39.2 78.9 39.65 79 40.35 78.65 41.3 Z"/>
</g>
</defs>

<g transform="matrix( 1, 0, 0, 1, 0,0) ">
<use xlink:href="#Layer1_0_FILL"/>
</g>
</svg>
