
<svg xmlns="http://www.w3.org/2000/svg" version="1.1" xmlns:xlink="http://www.w3.org/1999/xlink" preserveAspectRatio="none" x="0px" y="0px" width="100px" height="100px" viewBox="0 0 100 100">
<defs>
<g id="Layer1_0_FILL">
<path fill="#363435" stroke="none" d="
M 55.4 67.25
L 56.1 68.05 56.5 67.7 55.4 67.25
M 48.8 66.95
L 49.05 67.6 49.7 67.85
Q 49.45 67.45 49.4 67.4 49.35 67.3 48.8 66.95
M 47.35 62.8
Q 47.3 62.35 47.35 62.25 47.3 62.2 46.95 61.85
L 47.1 62.7 47.35 62.8
M 46.3 62.1
L 45.85 62.7 46.3 62.6
Q 46.3 62.55 46.3 62.1
M 48.65 62
Q 48.25 62.35 48.4 62.4 48.5 62.5 49.15 62.75
L 49.35 62.3 48.65 62
M 43.55 60
L 43.5 60.75
Q 43.7 60.45 43.8 60.4 43.75 60.3 43.55 60
M 44.5 60.1
L 44.25 60.8 44.8 60.75 44.5 60.1
M 42.45 60.1
Q 41.9 60.7 40.85 61.5 41.8 61.5 42.1 61.55 42.35 61.6 43.3 61.95 43.25 61.3 43.2 61.3 42.95 61.35 42.35 61.05
L 42.45 60.1
M 41.1 51.8
L 41.35 52.45 42 52.15 41.1 51.8
M 41.6 51.2
L 41.2 51.6 41.85 51.85 41.6 51.2
M 53.45 61.05
L 52.8 61.35
Q 53.25 61.4 53.45 61.45
L 53.9 61.25 53.45 61.05
M 53.7 53.95
L 53.3 54.3
Q 53.55 54.7 53.6 54.75 53.65 54.85 54.2 55.2
L 54.6 54.85 54.7 54.6 53.7 53.95
M 50.9 54.4
L 51.8 53.45
Q 51.75 53.05 51.7 52.8 51.65 52.65 51.25 52.2
L 49.65 52.35 49.9 53.75 49.15 53.7 48.2 52.8
Q 48 52.95 47.9 52.9
L 47.8 53.15 47.3 53.75 47.65 54.15 50.9 54.4
M 54.9 52.1
Q 55.35 52 55.65 51.95 55.8 51.9 56.25 51.35
L 55.35 51 54.75 51.25 54.7 52 54.9 52.1
M 54 52.5
Q 53.9 51.8 53.45 51.5 53.2 51.35 52 50.95 51.15 51.2 50.2 51
L 49.85 51.9 54 52.5
M 78.85 62.1
Q 78.5 62.2 77 61.9 75.65 61.65 74.95 62.1 73.8 61.9 73.15 62.15 76.15 63.15 78.95 63.15
L 79.5 62.35 78.85 62.1
M 66.1 64.3
Q 65.55 64.6 65.15 64.7
L 65.1 64.9 66.45 65.45 67.25 65.25 67.35 65.05 66.1 64.3
M 70.35 63.35
L 69.9 63.2
Q 70.25 63.45 70.55 63.5
L 71.3 63.5
Q 71.75 63.7 71.85 63.85 71.95 63.85 72.4 63.4
L 71.95 63.25
Q 71.35 63.25 70.35 63.35
M 64.9 61.45
L 64.2 60.65
Q 63.75 60.95 64.05 61.15 64.2 61.25 64.9 61.45
M 65.75 60
L 65.45 60.65 66.15 60.95 67.65 61 67.9 60.35 67.25 60.1 65.75 60
M 62.25 60.95
L 61.35 60.6 60.95 60.95 62.25 60.95
M 61.4 50.8
L 61.45 50.55 60.15 50.05
Q 59.85 50.25 59.75 50.4
L 60.1 50.8 61.4 50.8
M 61.8 50.45
Q 61.95 50.65 61.95 50.7
L 62.2 50.6 61.8 50.45
M 17.4 58.95
Q 17.45 59.55 17.45 59.65 17.5 59.75 17.9 60.2 17.75 59.55 17.75 59.5 17.7 59.35 17.4 58.95
M 40.3 62.3
L 40.25 63.1 41.2 62.7 41.7 62.65 40.85 62.3 40.3 62.3
M 27.35 63.15
L 26.45 62.8 26.25 63.2 27.35 63.15
M 26.05 63.15
L 26 62.6 25.3 62.35 25.05 63 25.4 63.4 25.65 63.5 26.05 63.15
M 26.8 60.6
Q 27.05 60.9 27.4 61.1 27.5 61.1 27.2 61.55
L 28.1 61.9 28.15 61.65
Q 27.9 61.25 27.7 61.05 27.5 60.9 26.8 60.6
M 25.7 59.4
L 25.45 60.05 26.1 60.35
Q 26 59.9 25.7 59.4
M 29.2 55.85
L 28.75 55.7 28.35 56.05 29.2 55.85
M 24.35 58.35
L 23.9 58.15 23.5 58.5
Q 23.9 58.5 24 58.5 24.05 58.5 24.35 58.35
M 23.6 57.75
Q 23.8 57.6 24.3 57.05 20.9 56.15 20.25 54.85 20.1 54.5 20.1 52 18.2 52.9 17.25 53.2 15.65 53.7 14.3 53.05
L 13 56.95 13.25 57.55
Q 15.75 59 18.6 58.5 20.25 58.25 23.15 57.35
L 22.7 57.95
Q 23.35 57.9 23.6 57.75
M 24.6 56.35
L 24.3 57.05 24.85 57 24.6 56.35
M 22.2 51.3
Q 21.95 51.45 21.6 51.55
L 20.85 52.05 20.85 52.8 21.65 52.1 22.7 52 22.2 51.3
M 39.7 60.55
L 39.75 59.8 39.35 60.15 38.9 59.95 38.8 60.2 39.7 60.55
M 40.2 59.95
Q 40.35 60.4 40.4 60.4 40.45 60.45 40.9 60.75
L 41 60.55 40.2 59.95
M 37.15 57.2
L 37.45 56.75
Q 37.5 56.8 38 57.05 38.7 56.45 37.95 55.2 37.9 55.75 37.5 55.7 36.7 55.6 36.5 55.65 36.7 56.6 37.15 57.2
M 27.6 57.3
L 26.7 56.95 27.5 57.5 27.6 57.3
M 34.85 57.85
L 33.95 57.5 30.85 56.8 30.8 57
Q 30.85 57.2 30.05 57.05 28.75 56.75 28.05 56.7
L 27.6 57.3 32 58.5
Q 31.2 58.9 29.95 58.8 29.3 58.7 27.65 58.35 27.35 58.95 27.25 59.15 27.05 59.45 26.5 59.95 26.85 60.3 29 59.85 31.55 59.35 32.4 59.45 32.45 60.65 33.75 60.9 34.5 61 36.2 60.95
L 36.6 60.6 34.2 59.4 34.65 60.35 33.4 59.6
Q 33.7 59.15 33.85 58.9 33.85 58.85 34.5 58.75
L 34.85 57.85
M 35 58.15
L 34.9 58.4 41.65 59.5 41.75 59.3 40.9 58.2 35 58.15
M 30.85 50.35
L 30.95 50.1 29.6 49.55 28.8 50.3 30.85 50.35
M 40.1 51.65
L 39.55 52.5 40.7 52.15 40.1 51.65
M 39.25 51.7
Q 39.3 51.5 38.85 50.9
L 31.65 49.6
Q 31.25 50.1 31.3 50.25 31.35 50.7 31.25 51.25 29.1 51.15 27.6 51.05 24.75 50.85 23.65 50.3
L 22.85 51.55
Q 23.5 52.35 30.5 52.05 37.75 51.75 38.8 52.45 39.05 52.05 39.25 51.7
M 29.7 36.2
Q 29.85 36.65 30.35 37.2
L 30.6 36.55 29.7 36.2
M 37.15 48.7
L 34.15 48.55
Q 34.7 49.35 35.75 49.5 36.4 49.65 37.8 49.7
L 37.9 49.5 37.15 48.7
M 39.95 47.5
L 39.8 47.95 39.25 48 40.4 48.4 40.45 48.2
Q 40.15 47.7 39.95 47.5
M 34.3 41.6
L 33.9 42 34.75 41.8 34.3 41.6
M 36.75 41.3
L 36.6 39.7 35 41.15 35.05 41.65 36.75 41.3
M 26.95 45.15
L 26.5 45 26.35 45.45
Q 26.65 45.35 26.95 45.15
M 27.9 46.05
L 28.35 44.95 27.35 46.1 27.9 46.05
M 29.6 43.65
Q 29.8 43.5 29.8 43.45 29.85 43.25 29.55 42.6
L 29.45 44.1 29.6 43.65
M 21.55 49
Q 21.05 49 20.9 49.05 20.75 49.2 20.4 49.3 20.5 48.75 20.6 48.45 20.6 48.4 20.2 47.9
L 18.4 49.8 18.65 51.15
Q 19.75 51.1 20.3 50.55 20.65 50.2 21.55 49
M 28.35 41.6
L 28 42
Q 27.95 41.95 27.45 42 27.3 42.45 27.3 43.25 27.3 43.7 26.7 44.55 27.7 44.45 28.15 43.55 28.5 42.75 28.35 41.6
M 39.65 35.25
L 39.25 35.6 39.6 36 39.85 36.1 40.35 35.5 39.65 35.25
M 38.7 35.1
L 38.1 35.9
Q 38.6 35.8 38.75 35.75 38.75 35.7 38.7 35.1
M 37.75 34.2
Q 37.2 34.7 36.65 34.9 36.15 35.05 35.7 35.45
L 36.3 35.95
Q 36.8 35.8 36.9 35.85 37.05 35.85 37.8 36.05 37.95 35 37.75 34.2
M 37.7 32.4
L 37 32.1 36.3 32.6 37.6 32.6 37.7 32.4
M 38.35 32.65
L 38.6 32 38.1 32.05 38.35 32.65
M 35.2 32.15
L 34.85 33.05
Q 35.45 32.9 35.6 32.7 35.7 32.65 35.95 32.2
L 35.55 32.35
Q 35.4 32.2 35.2 32.15
M 35.15 35.25
Q 35.2 35.25 35.35 35.05
L 34.8 35.1
Q 35.1 35.3 35.15 35.25
M 35.35 36.35
L 34.9 36.2
Q 35.05 36.4 35.05 36.45
L 35.35 36.35
M 14.3 44.55
L 14.35 43.8 13.95 44.15 14.05 44.45 14.3 44.55
M 17.9 42.6
L 18.15 44.55
Q 17.75 44.6 17.65 44.6 17.55 44.75 17.25 44.95
L 23.05 42.6
Q 23.35 42.45 23.4 42.35 23.5 42 23.75 41.55
L 22.2 41.5 22.15 40.95
Q 20.7 42.8 17.9 42.6
M 73.2 39.2
Q 73.2 37.95 73.05 37.6
L 72.3 38.85 73.2 39.2
M 71.8 38.15
Q 71.95 38.35 71.95 38.4
L 72.25 38.3 71.8 38.15
M 76.9 39.65
L 77.5 39.35 74.7 38 74.3 38.35 74.75 38.55
Q 75 39.15 76.9 39.65
M 66.35 38.6
Q 63.45 37.45 61.4 37.65 63.2 38.65 66.8 39.55 70.5 40.5 72.45 40.45
L 72.9 40.65 71.5 39.55
Q 69.3 39.8 66.35 38.6
M 67.75 45.05
L 66.7 45.15 66.2 45.75 68.7 47.25
Q 69.1 47.05 69.35 46.95
L 69.7 46.1 67.75 45.05
M 62.4 48.85
L 62 49.25 63.3 49.2 62.4 48.85
M 64.75 41
L 64.05 40.75 64.1 41.3 64.75 41
M 62.65 43.05
L 61.8 43.2
Q 62.1 43.9 62.7 44.3 63.2 44.6 64.65 45.1
L 65.05 44.75
Q 64.9 44.5 64.1 44.05 63.15 43.55 62.65 43.05
M 67.35 40.25
Q 66.55 40.3 66.2 40.3 65.6 40.35 65.15 40.65
L 64.7 40.5 67.3 42.3 70.2 42.15 70.6 41.8 67.35 40.25
M 66 41.75
L 66.8 42.35 66.85 42.1 66 41.75
M 69.45 38.25
L 70.25 37.5 69.8 37.35 66.85 37.4 69.45 38.25
M 65.25 37.1
L 64.8 36.9 64.4 37.25 65.25 37.1
M 59 48.3
L 57.95 48.4 57.55 48.75 59.55 49.55 59.5 49 59.9 48.65 59 48.3
M 60.45 37.5
L 59.75 37.25 59.8 37.8 60.45 37.5
M 44.3 47.65
L 43.8 48.25
Q 44.75 48.55 44.8 48.6 44.95 48.75 44.9 49.45
L 53.8 50.35 54.2 50
Q 53.15 49.6 52.85 49.2 52.4 48.55 52.25 48.45
L 44.3 47.65
M 47.1 37.9
Q 46.25 37.85 46.05 38.05 45.85 38.15 45.4 39.05 45.2 38.6 45.25 38.45 45.35 37.8 45.35 37.75
L 44.6 37.7 44.2 39.35
Q 41 38 39.85 38.65
L 39.25 38.95 39.4 39.8 42.15 40.1
Q 41.4 40.5 40.05 40.45 38.45 40.25 37.7 40.15
L 37.75 40.65 37.35 41.05
Q 39.55 41.6 43.95 42.1 48.35 42.55 50.25 43.05 50.9 42.25 51.05 42.15 51.25 42 52.3 41.8
L 50.6 40.85
Q 51.65 40.55 56.45 41.65 59.95 42.45 62.1 43.1 62.05 42.6 62.05 42.4 61.8 42.3 61.25 41.95
L 63.15 42.45 63.3 42 60.45 40.1
Q 59.45 40.35 57.2 39.7 53.7 38.7 53.55 38.65 53.35 38.85 53.2 38.9 53.25 38.95 53.25 39.3
L 47.1 37.9
M 82.55 58.65
L 82.95 58.3
Q 80.8 56.9 78 55.8 78.4 55.8 82.6 56.4 85.3 56.75 87 55.75 85.7 54.2 85.45 53.85 81.75 53.4 72.9 48.4
L 72.85 49.15
Q 72.1 48.75 70.9 48.7 69 48.6 68.7 48.55
L 68.35 50.2
Q 67.65 50.05 66.7 50 65.9 49.95 64.95 49.6
L 65.75 50.2
Q 65.25 50.75 65.15 50.9 65.1 51.05 65.15 51.75
L 74.75 53.5 74.65 53.7 74 53.45 74.05 54
Q 75.1 54.65 75.85 54.85 76.4 55.05 77.7 55.2
L 77.6 55.4
Q 75.5 55.95 71.5 54.5 66.6 52.8 64.75 52.65 64.7 52.25 64.85 52.25 65 52.2 64.8 51.9 64.45 51.45 62.65 51.4 60.7 51.35 59.65 50.6 59.3 50.7 58.25 51.2 57.5 51.55 56.7 51.5
L 56.45 52.2
Q 58.35 52.4 59.05 53.45
L 56.95 52.9 56.75 54.65
Q 58.35 54.55 62.1 55.1 65.75 55.65 65.8 55.9 66.2 55.85 66.25 55.85 66.25 55.5 66.3 55.3
L 67.5 55.55 66.95 55.6 66.55 55.95
Q 67.15 56.35 67.5 56.85 67.65 56.75 68.3 56.35 68.35 56.35 68.5 55.65
L 70.6 56.25 70.5 56.45 69.8 56.2 69.75 56.4
Q 71.45 57.5 75.7 58 78.05 58.3 82.55 58.65
M 86.05 62.1
L 86.15 61.9 84.7 61.05
Q 83.85 61.3 79.05 59.45 74.25 57.65 73.3 57.85 70.6 58.4 66.5 57.55 65.3 57.3 59.2 55.6
L 59.1 55.85
Q 59.45 56.45 59.75 56.45 59.95 56.5 60.7 56.45 59.95 57.45 59.1 57.8 58.2 58.2 56.75 58 56.45 57.45 55 56.5 53.3 55.5 52.7 55.1 52.45 55.15 51.35 55.8 50.55 56.25 49.7 56.25 48.55 56.2 45.95 55.15 43.8 54.35 42.75 54.8 42.2 54.7 42.2 55.05 42.2 55.3 41.6 55.1 41.8 55.6 42.7 56.3
L 40.6 55.75 40.95 56.15
Q 41.05 57.1 41.95 57.1 42.9 57 43.2 58.3
L 43.15 58.6
Q 43 58.55 42.8 58.65
L 42.7 58.9 43.05 59.3 43.8 59.3
Q 44.1 58.4 45.2 58.5 46.3 58.55 46.4 59.3 47.25 59.25 47.4 58.9
L 47.65 57.5 49.05 57.8
Q 48.85 57.95 48.45 58.05 48.85 58.6 49.1 58.65 49.35 58.7 50.2 58.75
L 49.9 57.6
Q 52.25 57.8 56.5 58.4 60.2 58.85 63 58.4 63.3 59.25 63.5 59.55 63.8 60.1 64.5 60.55 65.7 59.2 70.35 60.05 70.15 60.2 69.75 60.3
L 69.5 60.95 70.45 61.1
Q 71.15 60.85 78.5 61.8 85.5 62.7 86.05 62.1 Z"/>
</g>
</defs>

<g transform="matrix( 1, 0, 0, 1, 0,0) ">
<use xlink:href="#Layer1_0_FILL"/>
</g>
</svg>
