
<svg xmlns="http://www.w3.org/2000/svg" version="1.1" xmlns:xlink="http://www.w3.org/1999/xlink" preserveAspectRatio="none" x="0px" y="0px" width="100px" height="100px" viewBox="0 0 100 100">
<defs>
<g id="Layer1_0_FILL">
<path fill="#363435" stroke="none" d="
M 48.8 23.05
Q 48.1 23.1 47.75 23.1 47.7 23.7 47.45 25.15 47.35 26.4 48.2 26.8 47.9 26.95 47.75 27.5 47.65 28 47 28 46.9 28.65 47.1 30.45 47.1 32 46.3 32.15 46.3 32.35 46.5 32.8 46.65 33.15 46.25 33.35 46.11171875 33.01796875 46.05 32.7
L 46.05 32.65
Q 45.85 32.6 45.65 32.55 44.85 32.15 44.7 32.25 44.75 31.15 44.9 29.85 44.85 28.75 44.2 27.35 43.75 28.05 43.8 29.2 43.8 30.75 43.75 31.05 43.5 31.2 43.5 30.85 43.45 30.5 43.55 30.3 43.2 30.2 42.95 30.9 42.7 31.35 42.7 31.85 42.3 31.45 42.05 31.7 41.75 32 41.95 32.65 41.8 32.8 41.45 32.75 41.1 32.7 40.9 32.9 40.75 32.7 41 32.2 41.25 31.85 40.85 31.6 40.7 31.85 40.7 32.25 40.6 32.75 40.6 32.85 40.35 32.95 39.65 33 39.1 33.05 38.8 33.25 38.35 34.45 38.3 34.5 38.2 35.2 38.85 35.7 38.1 36.2 37.35 36.1 37.65 34.85 38.1 32.3 38.55 30 39.05 28.45 39 28.45 38.6 27.85 38.4 27.5 38.05 27.25 36.7 28.65 36.3 31.4 36 33.45 35.8 34.6
L 35.8 20.2
Q 35.65 18.85 35.45 17.7 35.25 18 34.8 18.15 34.35 18.3 34.15 18.6 34.05 19.9 34.45 22.6 34.85 25.25 34.75 26.6 34.45 26.05 34.4 24.9 34.4 23.8 33.95 23.2 33.75 23.5 33.4 23.35 33.05 23.2 32.85 23.3 32.85 24.8 32.9 27 32.95 29.6 33.2 30.95 33.6 32.4 33.6 32.9 33.6 33.75 32.15 33.75 31.7 33.05 31.2 33.35 30.75 33.55 30.6 33 30.65 33.6 29.8 33.6 29.75 33.6 29.3 33.5 29.2 33.55 29.4 33.6 29.45 33.6 31.55 33.9 32.75 34.1 33.5 34.55 33.3 34.75 33 34.55 32.7 34.4 32.6 34.5 32.75 35.15 33.05 35.2 33.25 35.2 33.65 35 33.8 35.5 33.75 35.8 33.7 36.2 33.25 36.5 31.8 36.1 31.5 36.05 30.45 35.85 30.2 36.4 31.5 36.4 31.95 36.45 32.8 36.55 33.85 36.9 34.05 38 33.7 38.4 33.3 38.9 32.2 38.65 32 38.5 31.95 37.85 32 37.35 31.65 37.4 31.75 37.9 31.75 38.1 31.75 38.45 31.45 38.75 30.95 38.45 29.15 38.55 27.7 38.65 27.2 37.65 26.75 38.45 25.25 38.2 23.9 38.05 23.5 38.2 23.6 38.2 23.8 38.45 24.2 38.85 23.9 38.9 22.75 38.65 22.65 38.6 21.85 38.55 21.75 39.1 22.15 38.95 22.9 39.2 23.7 39.4 24.05 39.4 24.45 40.45 24.15 42.1 23.85 43.8 24.15 44.6 24.4 44.75 25.25 44.8 26 44.85 26.4 45.2 26.35 45.35 26.6 45.65 26.85 46 26.7 46.1 26.35 45.5 25.6 45.95 24.85 46.35 24.55 45.7
L 23.75 46.45
Q 23.85 46.65 24.15 46.75 24.45 46.8 24.6 47.1 24.5 47.3 24.15 47.15 23.85 46.95 23.7 47.1 23.7 47.4 23.9 47.45 24.4 47.45 24.5 47.55 24.4 47.7 24.3 48 24.2 48.3 24.1 48.45 23.8 48.3 23.55 48.25 23.15 48.15 23.35 48.6 24.6 48.6 25.25 48.65 26.4 48.7 27.15 49.25 26.55 49.3 25.05 49.1 23.8 48.95 23 49.2 22.95 49.65 23.35 49.7 23.9 49.8 24.05 50 23.45 50 23.2 50.3 23.05 50.5 22.75 51.15 21.6 51 21.1 51.05 20.15 51.1 19.35 51.65 19.2 51.8 19.25 52.1 19.3 52.4 19 52.6
L 20.05 53.7
Q 22 53.1 24.6 53.3 25.6 53.4 29.1 53.9 28.6 54 28.5 54.75 28.45 55.35 27.65 55.2 27.9 55.5 28.7 55.65 29.2 55.8 29 56.4 27.95 56.6 25.9 56.4 23.9 56.2 22.85 56.4 22.7 56.55 22.85 56.95 23.1 57.3 22.95 57.5 24.25 57.95 24.4 58 25.35 58.15 25.55 57.45 26 57.55 27.25 58 28.2 58.3 29.1 58.4 29.05 58.4 29.2 58.8 29.3 59.05 29.5 59.2 28.75 61.5 28.55 66.3 28.4 69.85 27.95 72
L 28 72.05
Q 28 72.1 27.95 72.1 27.9 72.4 27.85 72.65 27.8 72.55 27.7 72.55 27.2 72.25 27.25 72.15 27.35 72.05 27.65 72.15 27.85 72.25 27.95 72.1 27.998828125 72.051171875 27.95 72 27.8 71.75 28 71 28.15 70.35 27.65 70.3 27.8 70.65 27.7 71.15 27.55 71.7 27.25 71.55 27 71.35 26.8 70.6 26.6 69.95 26.4 70 26.55 70.2 26.35 70.7 26.25 71.2 25.9 71.05 26 70.25 26.15 68.5 26.25 66.9 25.65 66.25 25.95 68.5 24.95 72.35 24.15 75.55 25.15 77.9 25.25 77.45 24.95 76.1 24.65 74.9 25 74.25 25.2 74.75 25.3 76.3 25.45 77.6 25.9 78.45 26.2 77.8 25.8 76.55 25.4 75.3 25.8 74.7 26.05 75 26.45 74.9 26.7 74.85 27.15 74.65 26.85 73.75 27.4 72.95 27.35 73.1 27.5 75.3 27.6 76.8 27.2 77.2 27.05 76.95 26.95 76 26.9 75.2 26.4 75.05 26.2 77.3 27.9 77.9 29.25 78.4 31.3 77.9 31.4 77.6 31.4 76.25 31.65 75 32.2 74.7 31.95 75.65 31.85 76.25 31.8 77.05 32.1 77.8 32.75 77.9 34.45 77.95 36.15 78 36.4 77.55 36.65 77.1 37.6 78 37.8 78.25 37.95 78.15 38.05 79.4 38.75 80.25 39.15 78.75 38.8 75.75 38.55 72.85 39 71.25 38.95 71.25 38.75 71.25 38.65 71.2 38.55 71.15 38.95 70.9 39.8 70.95 40.7 71 41.1 70.6 40.65 70.3 40.05 70.3 39.2 70.3 38.8 70.2 39.45 69.9 40.65 69.75 41.9 69.7 42.45 69.45 42.65 73.5 42.5 77.4 42.45 79.75 42.7 80.4 43.3 82 45.75 81 45.9 80.6 45.65 79.6 45.4517578125 78.757421875 45.85 78.2 45.4 78.795703125 45.4 78.25 45.4 77.9 45.55 77 45.8 77.65 46.05 77
L 46.05 73
Q 46 72.95 46 72.85 46 72.65 46.05 72.35
L 46.05 72.45
Q 46.731640625 72.348828125 47.2 72.7 47.25 73.7 47.35 76.9 47.3 79.55 47.6 81.15 48.35 81.6 49.2 80.6 49 79.35 48.95 78.75 48.8 77.65 49 76.9 49.1 77.05 49.4 77.3 49.6 77.5 49.75 77.4 49.3 76.5 49.25 75.1 49.2 73.3 49.05 72.75 49.3 72.75 49.85 72.65 50.4 72.65 50.75 73 50.85 74.3 50.7 78.9 50.6 82.6 51.3 84.85 51.5 84.6 51.85 84.5 52.25 84.4 52.4 84.15 52.4 82.9 52.55 77.4 52.75 73.2 52.35 70.6 52.5 70.7 52.65 70.6 52.9 70.55 53 70.65 53.05 71 53.05 72.95 53.1 74.65 53.4 75.25 53.4 75.05 53.4 73.3 53.35 72 53.7 71.75
L 54.05 77
Q 54.3 80.1 55.1 82.25 57.1 81.7 56.5 77.95 56.05 75.9 56 75.05 55.8 73.55 56.3 72.9 56 72.5 55.8 71.85 55.6 71.25 55.55 71.15 56.1 71.05 56.35 71.15 56.45 71.2 56.95 70.8 57 71 56.95 71.75 57 72.35 57.5 72.35 57.45 71.8 57.45 71.5 57.45 71.05 57.75 70.7 58.25 70.6 58.35 70.95 58.5 71.3 58.65 71.35 58.4 70.9 58.65 70.8 59.15 70.6 59.3 70.4 59.9 71 61.1 71.05 62.3 71.05 62.8 71.35 62.95 74 63.2 79.35 63.35 82.45 63.6 84.9
L 64.15 84.9 64.8 83.1
Q 63.75 69.6 63.9 69.25 65.9 68.6 67.9 69.05 68.25 69.4 68.2 69.85 68.15 70.1 67.95 70.6 68.4 71 68.65 71.2 69 71.5 69.25 71.5 69.5 70.85 70.75 69.2 71.7 68 71.7 66.9 71.55 66.85 71.15 66.85 70.9 66.85 70.85 66.5 72.1 66.2 72.85 65.3 73.75 64.2 72.3 63.35 72.2 63.35 71.9 63.5 71.65 63.6 71.5 63.55 71.2 63.15 71.2 62.6 71.15 62.5 71.15 61.7 71.85 61.35 72.2 61.3 72.8 61.3 72.95 61.9 73 61.3 73.05 61 72.95 60.45 72.6 60.1 73.2 59.6 74.45 59.55 75.65 59.6 76.25 59 77.25 59.75 76.8 60.65 77.55 60.3 78 58.5 78.35 56.75 77.95 55.55 77.45 55.45 77.45 56 77.45 56.75 77.4 56.8 77.2 55.95 77.6 54.1 78.05 52.1 77.9 51.1 77.15 50.2 76.3 50.25 77.05 49.8 77.05 49.35 76.9 48.8 76.9 48.4 76.7 48.25 76.7 48.45 76.65 48.6 76.6 48.65 76.95 46.9 77.1 46 77.45 44.4 76.65 43.15 76.45 43.05 76.35 43.25 76.3 43.35 76.2 43.65 76.2 42.35 76 40.3 75.85 38.05 75.8 37 75.25 36.6 74.65 36.8 74.1 37 74 37.7 73.75 37.2 73.3 36.85 72.85 36.4 72.35 36.25 72.2 36.55 71.85 36.7 71.45 36.9 71.3 37.05 71.1 36.55 70.7 36.25 70.35 36 69.9 36.05 70.2 34.15 70.1 33.2 69.9 31.6 68.15 31.5 67.75 32.45 68.1 33.75 68.25 34.45 68.8 35.9 67.75 35.4 67.1 36.7 66.75 37.35 66.45 38.8 65.9 39.05 65.45 39 65.05 38.95 64.45 39.35 64.2 38.5 64.7 37.5 65.45 37.7 65.6 37.75 66.1 37.85 66.4 37.6 66.7 36.6 66.4 36 66.1 35.5 65.05 35.15 64.65 34.55 64.8 32.95 64.9 31.45 64.3 30.9 64.1 30.7 63.6 30.6
L 63.6 27.4
Q 63.15 27.4 62.8 27.3 62.45 26.4 61.2 26.55 60.05 26.65 59.45 27.45 59.25 27.3 59.4 27 59.6 26.7 59.5 26.55 58.05 27.2 57.7 27.2 56.7 27.35 55.95 26.6 55.75 24.05 55.55 23.5 55 21.85 53.2 22 52.45 23.05 52.5 23.8 52.4 23.2 51.9 22.9 51.55 22.7 50.9 22.65 50.55 23.15 50.05 23.15 49.6 23.2 49.45 23.65 49.45 23.1 48.8 23.05
M 49.65 24.4
Q 49.75 24.2 50.2 23.85 50.2 23.95 50.15 24.2 50.15 24.45 50.35 24.6
L 49.85 25.05
Q 49.5 24.8 49.65 24.4
M 52.45 26.1
Q 52.5 26.5 52.35 27.15 52 27.2 52.1 26.5 52.25 25.7 52 25.45 52.45 25.45 52.45 26.1
M 51.3 27
Q 51.15 27.25 50.85 27.2 50.5 27.1 50.4 27.25 50.35 26.8 50.25 26.65 50 26.4 49.65 26.1 49.95 25.95 49.8 25.7 50 25.85 50.65 26.2 51.1 26.55 51.3 27
M 52.6 34.3
Q 52.6 34.85 52.65 34.85 52.3 35.05 52.3 34.65 52.3 34.15 52.2 34.1 52.6 33.95 52.6 34.3
M 53.8 35.9
Q 53.85 36.3 53.5 36.45 53.45 36.3 53.45 36.1 53.5 35.85 53.4 35.7 53.75 35.45 53.8 35.9
M 57.6 36.2
Q 57.9 36.25 58 36.2 58.2 36.5 57.8 36.6 57.35 36.65 57.25 36.3 57.35 36.05 57.6 36.2
M 57.3 34.75
Q 57.8 35.4 57.2 36 56.85 35.4 57.3 34.75
M 48.5 38.45
Q 48.35 38.1 48.65 37.9 48.9 38.25 49.15 38.1 49.35 38.35 49.4 38.8 49.35 39.3 49.55 39.55 49.35 39.4 48.6 39.3 48.05 39.25 48.05 38.8 48.15 38.75 48.25 38.85 48.35 38.9 48.5 39 48.7 38.85 48.5 38.45
M 48.65 39.5
Q 49.1 39.5 49.25 39.85 49.1 39.85 48.85 39.85 48.6 39.8 48.45 39.95 48.2 39.6 48.65 39.5
M 47 42.65
Q 46.9 42.3 46.8 42.05 48.4 42.8 47.5 43.45 47.35 43.3 47.4 43.15 47.35 43.05 47.55 42.8 47.1 42.9 47 42.65
M 50.15 42.95
Q 50 42.55 49.85 42.45 49.65 42.7 49.65 43.55 49.6 44 49.1 43.95 49.3 44.05 49.5 44.3 49.75 44.6 49.75 44.9 49.1 44.9 48.25 44.55 48.1 44.95 48.25 45.15 48 45.35 47.55 44.95 47.1 44.55 46.85 44.95 46.65 44.55 46.9 44.15 47.1 43.7 47.55 43.75 47.8 43.95 47.75 44.2 47.65 44.55 47.75 44.65 48.05 44.6 47.95 44.1 47.85 43.75 48.3 43.9 48.1 43.75 48.15 43.15 48.15 42.4 48.05 42.1 48.15 42.1 48.5 42.35 48.55 42.4 48.95 41.8 49.15 41.9 49.75 42.25 50.3 42.55 50.15 42.75 50.25 43.1 50.15 42.95
M 47.2 43.4
Q 47 43.9 46.65 43.5 46.25 43.05 46.8 42.95
L 47.2 43.4
M 56.1 38.65
Q 56.2 38.65 56.7 38.6 57.15 39.25 56.65 39.85 56.5 39.35 56.25 39.35 55.95 39.4 55.75 39.15 55.95 38.75 56.1 38.65
M 57.9 39.55
Q 57.45 39.8 57.35 39.55 57.35 39.1 57.25 38.95 57.55 38.75 57.65 39.05 57.7 39.45 57.9 39.55
M 59.5 43.05
Q 59.55 42.6 60.2 42.6 60.85 42.65 61.25 42.95 61.15 43.5 61.05 43.65 60.85 43.95 60.45 43.4 60.2 43.45 60.65 43.95 61.05 44.4 61.2 44.15 61.2 44.6 60.4 44.4 59.8 44.2 59.85 44.3 59.05 44.25 59.65 43.4 59.9 43 59.9 42.95 59.95 42.8 59.5 43.05
M 53.1 42.15
Q 53.65 42.15 53.7 42.8 53.75 43.4 53.5 43.8 53.4 43.5 53.25 42.95 53.15 42.3 53.1 42.15
M 52.9 48.15
Q 52.95 48.4 53.05 48.45 53.45 48.35 54.25 48.1 54.95 48 55.45 48.55
L 54.85 49.15
Q 54.7 49 54.6 48.75 54.55 48.5 54.4 48.35 54.25 48.45 54.2 48.7 54.05 48.95 53.95 49.1 53.75 49.1 53.3 48.8 52.95 48.55 52.7 48.75 52.5 48.65 52.7 48.45 52.9 48.3 52.75 48.1 52.85 48.05 52.9 48.15
M 57.1 43.35
Q 57.1 44.2 57.2 44.3 56.75 44.65 56.7 44.2 56.65 43.7 56.4 43.8 56.35 43.65 56.4 43.65 56.55 43.6 56.6 43.7 56.85 43.2 56.65 42.75 57.05 42.75 57.1 43.35
M 57.2 47.85
Q 57.05 48.1 57.2 48.65 57.25 49.25 56.95 49.5 56.5 49.25 56.45 48.8 56.45 48.3 56.3 48.15 56.45 47.8 56.7 47.9 57.05 48 57.2 47.85
M 59 49.25
L 59 49.35
Q 59.2 49.7 59.4 49.65 59.5 49.4 59.45 49 59.4 48.6 59.45 48.4 59.7 48.7 60.35 48.6 61 48.45 61.6 48.85 61.85 49.1 61.9 49.5 61.95 50.1 62.05 50.25 61.65 50 60.3 50 59.15 50 58.95 49.45 58.95 49.25 59 49.25
M 64.05 41.05
Q 64.1 40.9 64.2 40.6 64.3 40.3 64.35 40.1 65.2 40.35 65.55 40.5 66.1 40.65 65.95 41.3 65.75 41.25 65.05 41.35 64.5 41.45 64.05 41.05
M 64.7 43.9
Q 64.35 44 63.6 44
L 63.6 43.75
Q 63.85 43.45 64.35 43.4 65.15 43.4 65.55 43.3 65.5 43.8 64.7 43.9
M 68.35 47.35
Q 68.45 47.2 68.35 46.95 68.25 46.7 68.5 46.55 68.85 46.7 68.75 47.1 68.7 47.55 68.35 47.35
M 72.8 42.25
Q 70.95 41.95 72.15 39.05 72.2 39.05 72.55 39.65 72.75 40 73.15 40.2 72.65 40.6 72.8 41.25 72.9 42 72.8 42.25
M 75 43.55
Q 75.05 44.6 74.2 44.15 74.55 43.9 74.4 43.4 74.2 42.9 74.5 42.65 75.05 42.5 75 43.55
M 71.85 46.15
Q 72.05 46.35 72.45 46.4 72.2 46.85 71.9 46.65 71.55 46.5 71.85 46.15
M 74.75 49.05
Q 74.9 48.65 75.05 48.45 74.6 48.4 74.45 47.65 74.3 46.9 73.55 47.1
L 74.2 46.5
Q 74.45 46.85 74.9 46.9 75.4 46.95 75.6 47.15 75.45 47.75 75.6 48.7 75.8 49.8 75.75 50.25 75.55 50.15 75.1 50.25 74.75 50.3 74.5 50 74.55 49.55 74.75 49.05
M 72.5 54.1
Q 72.95 54.3 74.7 54.05 76.1 53.9 76.2 54.55 75.4 54.95 74.2 54.85 73 54.65 72.5 54.1
M 75.35 57.4
Q 74.95 57.4 74.35 57.25 75 56.75 75.15 56.5 75.45 56.05 75 55.5 75.9 54.85 76.3 55.5 76.6 56.1 76.3 57 75.9 57.4 75.35 57.4
M 72.15 60.25
Q 72.5 60.6 72.35 61 72.05 60.7 72 60.65 71.9 60.45 72.15 60.25
M 62.45 54.85
Q 62.55 55.25 62.1 55.2 61.4 55.15 61.35 55.25 61.25 54.85 61.7 54.85 62.35 54.9 62.45 54.85
M 62.5 53.95
Q 62.05 54.3 60.85 54.15 59.35 53.85 58.8 53.75 59.45 53.6 60.6 53.75 62 53.9 62.5 53.95
M 61.95 58.5
Q 61.6 58.85 61 58.65 60.35 58.35 60.1 58.45 59.9 58.7 60.2 58.8 60.7 58.9 60.75 59.1 60.35 59.3 59.7 59.1 59.05 58.9 58.7 59.15
L 58.75 58.8
Q 58.8 58.6 58.55 58.35 59.8 58.25 60.25 58.25 61.25 58.25 61.95 58.5
M 62.65 56.1
Q 62.4 56.25 62.5 56.5 61.85 56.6 60.55 56.45 59.1 56.35 58.5 56.35 58.4 56.2 58.6 55.9 58.75 55.65 58.55 55.45 59.25 55.55 60.6 55.55 61.9 55.55 62.65 56.1
M 67.8 56.25
Q 67.05 56.9 66.3 56.35 67.05 55.8 67.8 56.25
M 68.05 61.85
Q 68.4 61.5 68.3 60.95 68.15 60.4 68.45 60.1 68.85 60.3 69.35 60.3 70.05 60.3 70.3 60.35 70.35 60.9 70.25 61.2 70.1 61.65 69.6 62.05 69.1 62 68.05 61.85
M 67.2 61.55
Q 66.8 61.9 66.65 61.4 66.15 61.35 66 61.15 66.5 60.7 66.45 60.35 66.7 60.65 67.05 60.45 67.5 60.25 67.7 60.6 67.6 61.2 67.2 61.55
M 68.7 63.05
Q 68.85 63.1 69.1 63.1 69.35 63.1 69.5 63.15 69.35 63.5 68.95 63.4 68.5 63.4 68.7 63.05
M 62.8 63.3
Q 62.05 63.65 61.7 63.7 61.05 63.8 60.5 63.4 61.75 63.25 60.35 62.9 58.8 62.55 58.7 62.7 58.4 62.4 58.9 62.1 59.3 61.85 58.65 61.3 60.35 60.65 61.55 61 63.1 61.4 62.8 63.3
M 62.65 67.65
Q 62.85 68 62.4 68 61.95 68 61.85 68.1 62.5 68.3 62.65 68.5 62.85 68.75 62.75 69.35 62.45 69.6 61.9 69.75 61.45 69.85 61.3 70.35 61 70.05 59.9 69.45 59 68.95 58.75 68.25 59.25 68.05 60.2 68.15 61.1 68.25 61.55 68.05 60.1 67.85 59.6 67.6 58.65 67.1 58.75 65.95 58.95 66.05 59.7 66.05 60.05 66 61 65.9 62.7 65.9 62.8 67.15 62.6 67.55 62.25 67.4 61.9 67.25 61.75 67.3 61.55 67.65 62 67.7 62.45 67.75 62.65 67.65
M 68.2 69.05
Q 68.65 68.5 69.15 69
L 68.7 69.5 68.2 69.05
M 55.55 53.85
Q 55.4 53.95 55.55 54.1 55.45 54.25 55.2 54.1 55 54.15 55 54.1
L 55.2 54
Q 55.55 53.75 55.25 53.45 55.4 53.4 55.6 53.55 55.65 53.6 55.9 53.8 55.6 53.8 55.55 53.85
M 53.5 55.05
Q 53.8 54.9 53.85 55.2 53.9 55.65 54.1 55.7 53.8 55.9 53.65 55.6 53.55 55.2 53.5 55.05
M 55.35 55.15
Q 55.55 55.35 55.4 55.65 55.2 55.95 55.3 56.1 54.85 56.25 54.8 55.65 54.8 55 55.35 55.15
M 55.4 57.95
Q 55.6 57.95 55.65 58.4 55.3 58.6 55.15 58.5 55.1 58.4 55.2 58.15 55.3 57.9 55.4 57.95
M 55.15 61.15
Q 55.25 60.85 55.45 60.75 55.5 60.8 56.15 60.8 56.6 60.85 56.15 61.2
L 55.85 60.9
Q 55.7 61.05 55.75 61.45 55.9 61.9 55.8 62.1 56 62.4 56.1 62 56.25 61.65 56.15 61.5 56.4 61.3 56.45 61.7 56.5 62.25 56.55 62.3 56.2 62.3 56 62.6 55.85 62.75 55.6 63.2 55.45 62.65 55.35 62.4 55.1 61.95 54.75 61.6 55.05 61.45 55.15 61.15
M 57.4 55.95
Q 57.4 56.25 57.15 56.45 56.85 56 56.8 55.85 56.7 55.5 57.35 55.4 57.45 55.8 57.4 55.95
M 57.05 58
Q 57.25 58.3 57.5 58.2 57.5 58.35 57.2 58.6 57 58.85 56.7 58.95 56.4 58.5 57.05 58
M 55.95 58.1
Q 56.2 57.95 56.2 58.65 56.25 59.35 55.8 59.15 55.75 59 55.8 58.65 55.95 58.15 55.95 58.1
M 57.55 60.95
Q 57.8 61.1 58.15 61.75 57.9 61.9 57.65 62.25 57.4 62.6 57.75 62.35 58 62.5 57.6 62.7 57.15 62.85 57 62.75 56.85 62.6 57.15 62.1 57.35 61.7 56.8 61.25 57.25 60.7 57.55 60.95
M 48.35 53
Q 49.2 52.8 49.55 53.7 49.15 53.9 48.8 53.7 48.35 53.45 48.35 53
M 49.75 55.2
Q 49.55 55.4 49.1 55.45 48.6 55.5 48.35 55.65 48.3 55.5 48.55 55.25 48.7 55 48.55 54.9 49.05 54.65 49.75 55.2
M 50.45 57.9
Q 50.05 58 49.8 57.85
L 49.85 58.2
Q 49.85 58.5 49.65 58.6
L 49.05 57.95
Q 49.1 57.95 49.65 57.6 50.05 57.35 50.45 57.9
M 50.5 71.05
Q 50.4 71.3 50.45 71.4 49.25 71.75 49 70.75 49.9 70.25 50.65 70.65 50.65 70.75 50.5 71.05
M 59.4 63.25
Q 59.95 63.35 60.05 63.2 60.2 63.7 59.8 63.6
L 59.15 63.5
Q 59 63.2 59.4 63.25
M 55.75 67.95
Q 55.95 67.9 56.05 67.8
L 56.35 68.15
Q 56.2 68.25 56.05 68.5 56 68.75 55.8 68.9 55.7 68.8 55.65 68.5 55.55 68.2 55.4 68.1 55.5 67.95 55.75 67.95
M 58 66.35
Q 58.05 66.9 57.8 67.15 56.7 66.85 56.15 66.7 55.1 66.45 55.65 65.5 55.85 65.7 55.95 65.9
L 56.1 66.25
Q 56.4 65.65 57.1 65.5 57.8 65.4 58.4 65.95 58 65.9 58 66.35
M 52.3 67.9
Q 52.45 67.7 52.6 67.7 52.75 67.75 52.8 68.15 52.4 68.35 52.3 68.25 52.2 68.1 52.3 67.9
M 58.35 68.2
Q 58.75 68.5 58.75 68.85 58.6 69.15 58.2 69.1 57.85 69 57.65 69.25 57.45 68.8 57.4 68.6 57.35 68.2 57.55 67.9 57.8 68 58.35 68.2
M 43.15 37.75
Q 42.9 38.15 42.5 37.85 42.5 37.8 42.65 37.45 42.75 37.2 42.95 37.05 43.4 37.35 43.15 37.75
M 44.15 43.55
Q 44.45 43.25 44.75 43.5 44.65 43.6 44.75 43.75 44.8 44 44.8 44.05 44.55 43.9 44.15 44 43.7 44.2 43.5 44.1 44.1 43.55 44.15 43.55
M 42.3 46.8
Q 42.3 47.4 41.8 47.8 41.35 48.25 40.8 47.8 40.95 47.65 41.2 47.1 41.4 46.8 41.35 47.15 41.25 47.6 41.65 47.15 42.15 46.6 42.3 46.8
M 42.6 47.7
Q 42.8 47.55 42.9 47.5 43.05 47.45 43.25 47.7 43 47.9 42.95 48 42.75 48.1 42.6 48 42.8 47.8 42.6 47.7
M 44 47.8
Q 43.7 48.1 43.4 47.8 43.55 47.6 43.55 47.5 43.55 47.35 43.35 47.25 43.8 46.7 44.3 47.2 44.3 47.5 44 47.8
M 26.3 41.2
Q 26.15 42.1 26.35 42.55 26.05 42.7 25.6 42.6 25 42.5 24.8 42.5 24.55 42.05 24.5 41.25 24.5 40.4 24.3 40 24.65 39.95 24.75 40.6 24.8 41.35 24.85 41.55 25.25 41.2 25.35 40.4 25.35 39.8 26.2 39.75 26.45 40.25 26.3 41.2
M 29.4 41.35
Q 29.35 41.4 29.2 41.75 29.3 41.8 29.4 41.8 29.55 41.7 29.65 41.65 29.7 41.8 29.4 42.25 29.2 42.6 29.6 42.85 28.95 43.05 28.4 42.8 28.05 42.4 28.15 41.65 28.25 40.85 28 40.45 29.15 39.9 29.4 39.8 30.2 39.55 30.8 40 30.4 40.4 31.95 40.65 33.85 40.8 34.3 40.9 34.35 41.15 34.35 42.2 34.3 43 34.6 43.55 34.2 43.8 33.55 43.55 32.8 43.25 32.8 42.85 32.6 42.65 32.55 42.9 32.45 43.35 32.2 43.4 31.7 43.1 30.85 42.95 30.2 42.8 29.75 42.4 30.1 42.05 30 41.9 29.8 41.6 29.8 41.15 29.6 41.1 29.4 41.35
M 27.15 48.9
Q 27.25 48.75 27.5 48.9 28 48.5 28.6 48.5 29.4 48.45 29.65 49.3 28.45 49.9 27.15 48.9
M 38.9 39.25
Q 38.85 39.25 38.85 39.8 38.9 40.1 38.75 40.35 37.95 40.25 37.55 40.15 36.8 39.95 37.05 39.35 37.3 39.4 37.9 39.25 38.55 39.1 38.9 39.25
M 37.05 41.2
Q 37.2 41.35 37.1 41.5 37 41.35 36.75 41.5 36.5 41.55 36.35 41.35
L 36.8 40.9
Q 36.95 41.05 37.05 41.2
M 31.05 48.3
Q 31.8 47.85 32.55 48.65 32.1 49.15 31.65 49 31.2 48.85 31.05 48.3
M 32.7 48.85
Q 32.65 48.5 32.55 48.4 32.9 48 33.4 48.2 33.95 48.4 34.3 48 34.8 48.6 34.2 49.2 34.1 49.2 33.45 48.95 33 48.7 32.85 49.3 32.8 49.15 32.7 48.85
M 38.6 43.75
Q 38.85 44 39.15 43.8 39.5 43.65 39.85 43.65 39.8 44.5 38.3 44.35 38.9 44.05 38.55 43.8 38.4 43.75 38.35 43.75 38.35 43.7 38.6 43.75
M 36.75 43.5
Q 36.9 43.6 37.1 43.85 37.4 44.05 37.5 43.9 37.45 43.9 37.45 43.75 37.55 43.7 37.7 43.75 37.55 44 37.85 44.2 37.55 44.75 37.1 44.35 36.5 43.85 36.3 43.95 36.5 44.2 36.6 44.25 36.75 44.45 36.6 44.6 36.3 44.6 36.15 44.15 36.05 43.7 36.3 43.35 36.35 43.5 37.1 43.25 37.75 43.15 37.5 43.35 37.35 43.4 37.1 43.45 36.85 43.45 36.75 43.5
M 37.45 47.3
Q 37.7 47.25 37.8 47.45 37.55 47.75 37.65 48.25 37.75 48.8 37.6 49 37.45 48.95 36.7 48.9 36.15 48.85 36.2 48.6 36.3 48.6 36.75 48.6 37.05 48.65 37.25 48.45 36.95 48.1 36.55 48.2 36 48.35 35.9 48.3 36.2 48.05 36.45 47.85 36.7 47.75 37.25 47.8 36.8 47.65 36.75 47.15 36.75 46.7 37.15 46.9 37.1 47.05 37 47.1 36.95 47.2 37.1 47.35 37.15 47.45 37.45 47.3
M 39.35 47.05
Q 39.1 47.4 39.1 48.1 39.05 48.75 38.7 49.1 38.55 48.75 38.55 48.15 38.5 47.5 38.25 47 38.45 47.1 38.8 47 39.2 46.95 39.35 47.05
M 40.45 53.85
Q 40 53.8 40.1 53.35 40.25 53.5 40.95 53.6 41.45 53.65 41.2 54.05 41.1 53.9 40.45 53.85
M 37 53.65
Q 37.55 53.3 37.95 53.75 38 54.25 37.2 54.45 36.35 54.65 36.45 54.1 36.55 54.1 37 53.65
M 40 52.35
Q 39.8 52.1 40 51.8 40.2 51.95 40.65 51.85 41 51.75 41.25 52.05 41 52.5 40.95 52.6
L 40.55 52.9
Q 40.15 52.6 40 52.35
M 33.5 55.25
Q 33.2 55.1 32.75 54.7 32.65 55.1 32.75 55.3 32.55 55.6 32.25 55.15 32.05 54.8 32.5 54.7 32.35 54.5 32.15 54.65 32.3 54 33.25 54.2 34.15 54.45 34.3 55.05 33.9 55.4 33.5 55.25
M 30.7 59.45
Q 30.45 59.1 30.45 58.6 30.8 58.5 31.05 59 31.2 59.7 31.3 59.9 30.9 59.8 30.7 59.45
M 35.95 61.1
Q 35.9 61.25 35.8 61.35
L 35.8 61.1
Q 35.85 61.1 35.95 61.1
M 29.55 68.85
Q 29.1 69.6 29.5 70.4 28.75 70.45 28.7 69.5 28.65 68.95 28.65 67.9 29.35 67.75 29.85 68.3 30.3 68.85 30.1 69.55 29.85 69.7 29.8 69.4 29.75 68.95 29.55 68.85
M 38.1 67.45
Q 38.3 67.35 38.2 66.7 38.15 66.25 38.5 66.4 38.4 66.45 38.45 67.1 38.5 67.6 38.1 67.45
M 34.9 68
Q 35.05 67.95 35.15 67.9 35.2 67.95 35.15 68.1 35.15 68.25 35.25 68.35 35.2 68.4 35.05 68.4 34.9 68.4 34.8 68.5 34.75 68.45 34.75 68.25 34.75 68.1 34.65 68 34.7 68 34.9 68
M 29.3 75.65
Q 28.8 75.55 28.75 75.35 28.7 75.15 28.85 75.05 29.05 74.9 29.2 75 29.35 75.15 29.3 75.65
M 28.5 75.45
Q 27.9 75.25 28.2 74.8 28.55 74.3 28.5 75.45
M 43.1 51.85
Q 43.85 51.8 43.9 52.1 43.7 52.1 43.1 52.5 42.65 52.75 42.4 52.5 42.4 51.95 43.1 51.85
M 46.05 37.35
L 46.05 37.9
Q 45.8 37.95 45.6 37.95 44.6 37.9 45.1 37 45.4 37.4 46.05 37.35
M 46.35 42.2
Q 46.45 42.3 46.65 42.45
L 46.15 42.9
Q 46.1 42.8 46.1 42.55 46.1 42.25 46.05 42.15 46.15 42.05 46.35 42.2
M 44.95 47.9
Q 44.6 47.8 44.45 47.65 44.85 47.4 44.8 47.15 44.7 46.75 44.75 46.7 45 47 45.65 46.95 45.9 46.95 46.05 47.05
L 46.05 47.75
Q 45.95 47.8 45.85 47.85 45.55 47.9 45.4 48.25 45.2 47.9 44.95 47.9
M 46.05 43.9
L 46.05 44
Q 46 44.1 45.7 44.05 45.7 43.65 45.75 43.45 45.65 43.4 45.6 43.35 45.7 42.75 45.75 43.45 45.8 43.5 45.9 43.65 46 43.8 46.05 43.9
M 46.05 55.05
L 46.05 55
Q 46.075390625 55.034375 46.1 55.05
L 46.05 55.05
M 44.95 61
Q 45.05 60.75 45.2 60.35 45.75 60.55 46 61 46.046875 61.046875 46.05 61.15
L 46.05 61.05
Q 46.069921875 61.11484375 46.05 61.15
L 46.05 61.75
Q 46.046875 61.909375 46 62.05 45.85 61.8 45.55 61.2 45.4 60.95 45.2 61.6 44.85 61.4 44.95 61
M 46.05 58.05
L 46.05 57.3
Q 46.205078125 57.4234375 46.3 57.55 46.2705078125 57.903515625 46.05 58.05
M 46.05 67.75
L 46.05 67.15
Q 46.5515625 67.2443359375 47.1 67.45 47.05 68 46.3 67.8 46.169140625 67.769140625 46.05 67.75
M 40.05 76.95
Q 39.95 78.2 39.85 78.85 39.8 80 40.65 80.75 40.8 80.8 41.2 80.45 41.5 80.1 41.7 80.25 41.8 80.1 41.7 80.05 41.6 80 41.5 80.1 41.45 79.65 41.5 78.85 41.5 78.05 41.45 77.65 41.25 77.55 40.6 77.45 40.2 77.4 40.05 76.95
M 18.65 57.3
L 18 57.95
Q 18.65 58 19.55 58.05 19.7 58.05 21.1 58 20.6 57.55 19.75 57.7 18.9 57.8 18.65 57.3
M 22.5 73.15
Q 22.35 71.95 22.15 72.4 21.9 74.35 21.9 75.4 21.75 77.1 22.35 78.45 22.95 78.6 23.25 78.75 23.55 78.6 23.7 78.25 23.75 78 24.1 78.05 23.55 77.35 23.45 75.55 23.4 73.9 23.15 73.85 23.25 74.25 23.25 74.45 23.2 74.75 22.8 75.05 22.7 74.8 22.5 73.15
M 23.25 75.65
Q 23.05 75.95 23.25 76.15 22.85 76.25 22.8 75.8 22.8 75.25 23.1 75.05 23.45 75.25 23.25 75.65
M 26.95 67.75
Q 27 66.6 26.6 66.3 26.7 66.8 26.6 67.9 26.4 68.9 26.6 69.5 26.9 68.75 26.95 67.75
M 20.3 54.9
Q 20.9 55.05 21.25 55.1 21.85 55.1 21.8 54.65 20.95 55 19.55 54.1 19.15 54.65 19.1 54.85 18.95 55.2 19.5 55.35 19.35 55.45 19.05 55.35 18.75 55.35 18.55 55.6 18.9 56.25 19.4 55.8 20 55.1 20.3 54.9
M 26 54.45
Q 25.8 54.9 25.7 55 25.85 55.25 26.2 55.2 26.6 55.15 26.75 55.2 26.7 55 26.25 54.9 25.95 54.85 26.15 54.55 26.9 54.7 26.95 54.7 27.4 54.7 27.4 54.3 27.25 53.95 26.95 54.1 26.65 54.3 26.5 54 26.15 54.1 26 54.45
M 21.35 44.2
Q 21.45 44.4 21.45 44.7 21.35 45.05 21.5 45.25 21.85 45.1 21.75 44.55 21.6 44 21.35 44.2
M 22.4 40.85
Q 22.4 41.2 22.45 41.6 22.45 41.4 22.55 41.05 22.6 40.5 22.4 40.85
M 31.8 34.6
L 32.1 34.95
Q 32.15 34.9 32.35 34.85 32.5 34.85 32.55 34.8 32.2 34.5 32.15 34.5 31.95 34.4 31.8 34.6
M 46.25 28.9
Q 46.155078125 28.34609375 46.05 28.05
L 46.05 32.05
Q 46.198046875 31.6732421875 46.65 31.55 46.45 29.85 46.25 28.9
M 75.4 60.35
Q 75.45 60.45 75.4 60.6 75.7 60.75 75.6 60.4 75.55 59.95 75.85 59.8 75.65 59.7 75.45 59.9 75.35 60.05 75.1 60.3 75.35 60.35 75.4 60.35 Z"/>
</g>
</defs>

<g transform="matrix( 1, 0, 0, 1, 0,0) ">
<use xlink:href="#Layer1_0_FILL"/>
</g>
</svg>
