
<svg xmlns="http://www.w3.org/2000/svg" version="1.1" xmlns:xlink="http://www.w3.org/1999/xlink" preserveAspectRatio="none" x="0px" y="0px" width="100px" height="100px" viewBox="0 0 100 100">
<defs>
<g id="Layer1_0_FILL">
<path fill="#363435" stroke="none" d="
M 48.55 82.9
L 48.95 83.55
Q 49.1 83.15 48.9 83 48.65 82.95 48.55 82.9
M 56.75 61.9
L 56.85 62.4 57.05 61.95 56.75 61.9
M 40.6 66.4
L 40.55 66.85
Q 40.75 66.6 40.8 66.45
L 40.6 66.4
M 72.45 62.05
L 72.35 62.3 72.3 62.5 72.5 62.8
Q 72.5 62.45 72.55 62.35
L 72.45 62.05
M 61.1 61.95
L 61.25 62.5 61.5 62.05 61.1 61.95
M 34.55 64.7
L 34.5 65.4 34.7 65.45
Q 34.65 64.95 34.55 64.7
M 37.3 65.85
Q 37.2 66.2 37.25 66.3 37.3 66.3 37.55 66.4
L 37.3 65.85
M 28.95 56.1
L 28.8 56.35
Q 28.8 56.25 28.65 56.25 28.75 57.25 28.9 57.55 28.8 57.15 28.85 57.15 28.9 57.15 29.1 57.1
L 28.95 56.1
M 22.4 54.75
L 21.9 54.6 21.95 55.35 22.25 55.65 22.4 54.75
M 22.6 54.3
L 22.5 54.55 22.5 54.75 22.75 55.1 23 54.9 23.1 54.2 22.8 54.1 22.6 54.3
M 35.6 60.35
L 34.5 60.35 35.1 60.95 35.45 60.75
Q 35.7 60.65 35.8 60.4
L 35.6 60.35
M 31.7 40.85
Q 31.55 41.35 31.55 41.4 31.7 41.55 31.85 41.85
L 32.25 41.95 32.3 41.25 31.7 40.85
M 32.5 38.65
L 32.5 39.35 32.8 39.4
Q 32.75 39 32.75 38.9 32.7 38.9 32.5 38.65
M 37.25 38.35
L 37.65 38.65 37.65 38.4 37.25 38.35
M 23.75 41.1
L 23.75 41.55 23.95 41.15 23.75 41.1
M 21.7 41.8
L 20.9 42.1 22.4 42.7 22.7 42.5 21.7 41.8
M 22.65 38.65
L 22.55 39.1 22.75 39.15 22.65 38.65
M 21.9 39.9
L 21.7 39.85 21.35 40.75
Q 21.65 40.9 22.1 41.1 22.45 41.15 22.65 40.8 22.35 40.9 22.15 40.65 21.9 40.4 21.9 39.9
M 24.65 38.9
L 24.5 38.35
Q 24.3 38.7 23.4 38.95 22.6 39.2 22.3 40.25 22.6 40.15 23.4 40.15 24.2 40 24.65 38.9
M 28.1 40.25
Q 28.35 40.4 28.8 40.6 28.65 40.05 28.3 39.85 28.15 39.75 27.55 39.6 27.65 40 28.1 40.25
M 27.7 42.75
L 27.8 43.1
Q 27.85 43 28 43.1
L 28 42.85 27.7 42.75
M 25.65 41.05
L 25.95 41.15 25.8 40.15 25.65 41.05
M 29.75 39.15
L 29 38.75 28.6 38.9
Q 28.8 39.35 29.1 39.45 29.4 39.55 29.45 39.8
L 29.75 39.15
M 27.4 35.95
L 26.85 36.75 26.85 37 27.25 36.85
Q 27.4 36.3 27.4 35.95
M 20.3 32.65
Q 20.35 32.6 20.5 32.35
L 20.3 32.3 20.1 32.5
Q 20.25 32.65 20.3 32.65
M 25.2 35.4
L 24.25 36.6 24.3 37.6
Q 24.35 37.75 24.65 38.15 24.75 38.3 24.85 39.2 25.05 38.95 25.55 38 26.05 37.25 26.45 37.4
L 26.7 36.25
Q 26.4 36.2 26.1 35.9 25.75 35.55 25.2 35.4
M 22.4 30.8
Q 22.4 30.75 22.2 30.35
L 20.85 31.7 20.9 32.45 22.35 31.6
Q 22.35 31.35 22.4 30.8
M 29.5 28.95
L 28.05 29.8 27.9 30.75 28.2 30.85 28.2 31.3 28.35 30.4
Q 28.4 30.6 28.4 31.1
L 28.6 31.4
Q 28.9 30.4 29.1 30.15 29.25 30 29.8 29.5
L 30 29.35 29.5 28.95
M 26.7 30.7
L 26.4 30.4
Q 26.35 31.45 26.15 32.25
L 26.35 32.55 26.7 30.7
M 25.55 29.2
L 25.6 29 25.2 28.9 25.55 29.2
M 27.45 29.7
Q 27.05 30.15 27 30.35 26.9 30.6 26.75 31.7
L 26.85 31.7 27.1 31.5
Q 27.45 31.9 27.65 31.3 27.65 31.25 27.85 30
L 27.45 29.7
M 30.05 27.65
L 29.85 27.6 29.75 28.3 29.95 28.15 30.05 27.65
M 38.2 32.55
L 38.1 33
Q 38.25 32.85 38.4 32.55
L 38.2 32.55
M 34.6 27.3
L 34.55 27.8 34.85 27.85 34.6 27.3
M 33.15 27.7
Q 33.75 27.85 34 27.75 34.3 27.65 34.4 27
L 34.8 26.65 34.65 26.6
Q 34.65 26.55 34.65 26.1
L 33.85 25.9 31.75 26.15
Q 31.6 26.9 31.5 29.2
L 31.9 29.55 32.15 28.65 32.75 30 33.15 27.7
M 38 30.55
L 37.7 30.45 37.55 31.15 37.85 31.25
Q 37.9 30.95 38 30.55
M 39 30.55
L 38.7 30.45 38.75 31 39 30.55
M 38.55 30.7
L 38.2 30.6 38.15 31.3 38.25 31.35 38.55 30.7
M 36.15 26
L 35.85 25.95
Q 35.55 26.25 35.35 26.25 35.2 26.2 34.95 25.95
L 35 27.15
Q 35.55 26.95 35.65 26.85 35.9 26.65 36.15 26
M 38.05 26.95
Q 38.45 27.5 38.85 26.4
L 39.5 27.55 39.55 26.1 38.9 25.95
Q 38.65 26.1 37.5 26.05 36.65 26 36.2 27
L 36.75 26.85 36.7 27.1
Q 36.55 27.35 36.5 27.35 36.4 27.3 36.2 27.2
L 36.35 27.6
Q 36.4 27.65 36.6 27.8
L 36.8 27.15
Q 37.05 27.05 37.15 26.95 37.15 27.2 37.2 27.7
L 37.5 27.75
Q 37.75 26.5 38.05 26.95
M 19.25 41.05
Q 19.35 40.9 19.15 40.7
L 19 41.4
Q 19.1 41.25 19.25 41.05
M 19.15 38.5
L 17.9 37.25
Q 18 37.8 18.45 38.35
L 19.15 38.5
M 34.35 18.8
L 34.35 19.05 34.75 19.15 34.8 17.95
Q 34.4 18.65 34.35 18.8
M 31.15 18.05
Q 31 18.35 30.95 18.35 30.85 18.35 30.65 18.4
L 30.6 19.1 31.3 19.05 31.15 18.05
M 32.45 18.1
L 31.85 18.45 31.45 18.1 31.4 19.05 32.85 19.15
Q 32.8 18.65 32.75 18.45 32.65 18.35 32.45 18.1
M 34 18
Q 33.7 18.4 32.85 18.2
L 32.85 18.45 33.05 18.95
Q 33.4 18.9 33.55 18.85
L 33.95 18.95 34 18
M 36.1 18.25
Q 35.95 18.4 35.5 18.55 35.1 18.7 34.95 18.95
L 36.35 19.05 36.45 18.6 36.1 18.25
M 37.4 18.1
Q 37.25 18.4 37.1 18.45 37.05 18.45 36.6 18.4 36.75 18.85 36.85 18.9 36.9 18.9 37.25 18.8
L 37.95 18.95
Q 37.9 18.35 37.85 18.3 37.65 18.25 37.4 18.1
M 39.3 18.1
Q 39.15 18.45 39.1 18.55 39.05 18.7 39 18.25
L 38.65 18.9 40.45 19.1 39.3 18.1
M 28.7 18.9
Q 28.6 19.1 28.6 19.15
L 28.7 19.35 28.9 18.95 28.7 18.9
M 29.1 18.75
L 29 19.2 30.4 19.3 30.55 18.35 30.35 18.3 29.1 18.75
M 24.6 22.95
L 25 23.8
Q 24.95 22.9 25.25 20.45 26.1 19.3 27.8 19.4
L 27.95 18.45 25.5 19.05 24.6 22.95
M 74.95 38.55
L 74.9 39
Q 75.1 38.75 75.15 38.6
L 74.95 38.55
M 78.15 41
L 78.05 41.45 78.2 41.75 78.15 41
M 64.4 40.8
L 65 40.95 65.2 40.3 64.6 40.15 64.4 40.8
M 65 38.8
L 64.5 38.65
Q 64 39.05 63.6 38.95 63 38.7 62.75 38.75
L 62.55 39.15
Q 62.75 39.6 63.65 39.65 64.1 39.7 64.75 39.7
L 65 38.8
M 65.6 38.7
Q 65.5 38.95 65.5 39 65.45 39 65.25 39.1
L 65.8 40.65 66 38.8 65.6 38.7
M 66.35 39.1
L 66.25 39.55 66.45 39.85
Q 66.4 39.3 66.35 39.1
M 70.4 38.9
L 69.8 39
Q 70.15 39.95 70.6 38.95
L 70.4 38.9
M 68.55 39.4
L 68.75 39.45
Q 68.6 38.9 68.5 38.8 68.35 38.75 68.1 38.55 67.95 39.4 67.7 39.3 67.3 38.95 67 38.8
L 66.75 39.95
Q 66.9 39.85 67.7 39.9 68.3 39.9 68.55 39.4
M 61.7 25.7
L 61.2 25.55 61.25 26.8
Q 61.5 26.45 61.7 25.7
M 60.75 26.65
L 60.8 25.95 60.6 26.15 60.75 26.65
M 62.1 26
L 62.2 26.5 62.4 26.1 62.1 26
M 63.95 25.5
L 63.65 25.45 63.5 26.35 63.6 26.4
Q 63.75 25.9 63.9 25.75
L 63.95 25.5
M 67.4 26.35
Q 67.55 26.85 67.6 26.9 67.6 26.95 67.9 27.2
L 67.4 26.35
M 67.35 25.15
L 66.65 25.9 66.6 26.4 68.05 25.75 67.35 25.15
M 69.25 26.05
L 69.25 26.65 69.1 27 69.5 27.35 69.55 26.15 69.25 26.05
M 70.05 26
L 69.9 27.2 71.6 26.35
Q 70.75 26.5 70.05 26
M 76.25 36.45
L 76 37.1 76.4 36.95 76.25 36.45
M 75.55 36.3
L 75.5 37 75.8 37.05 75.8 36.85 75.55 36.3
M 72.3 26.8
Q 72.05 27.2 71.9 27.45
L 72.2 27.5 72.5 27.8 72.3 26.8
M 72.85 26.45
L 72.65 26.65 72.8 27.15 72.85 26.45
M 74 27.45
L 73.8 27.4 73.8 27.9
Q 73.9 27.75 74 27.45
M 74.85 26.7
L 74.7 27.65 74.9 27.7
Q 74.9 26.9 74.85 26.7
M 53.05 40
L 53 41.2 53.45 40.55 53.05 40
M 54.05 40.25
L 54.1 41.45 54.2 41.5
Q 54.2 40.65 54.05 40.25
M 56.45 40.5
Q 56.6 40.25 56.5 39.4 56.25 39.95 56.05 40 55.85 40.1 55.5 39.85
L 56.15 41.2
Q 56.2 40.95 56.45 40.5
M 57.45 40.2
L 57.3 39.8 57.25 40.55
Q 57.4 40.35 57.45 40.2
M 42.5 38.15
L 41.6 37.7 41.85 38.7 42.45 38.65 42.5 38.15
M 41 38.05
L 41.2 37.85 40.5 37.45 40.1 37.55
Q 40.4 38.5 41 38.05
M 50.15 40.6
Q 50.2 40.65 50.5 40.8
L 50.65 40.35
Q 50.4 40.15 50.15 39.75
L 50.15 40.25 49.95 39.95
Q 50.05 40.55 50.15 40.6
M 46.9 40.65
L 47.1 40.25 46.8 40.15 46.9 40.65
M 47.55 39.85
L 47.35 39.8 47.4 40.55 47.55 39.85
M 45.95 40.1
Q 46 39.95 45.85 39.45
L 45.7 40.85 45.8 40.9
Q 45.9 40.4 45.95 40.1
M 40.9 35.6
L 40.9 35.35 40.3 35.2 40.3 35.7 40.9 35.6
M 44.9 26.45
L 43.85 26.65
Q 44 26.95 44.35 27 44.85 27.05 44.95 27.15
L 45.05 26.95 44.9 26.45
M 41.05 27.4
L 41.4 27.75 41.4 27.5 41.05 27.4
M 48.8 26.9
L 48.6 26.85
Q 48.7 27 48.7 27.05
L 48.8 26.9
M 50.2 27.25
L 49.9 26.7
Q 49.95 27.1 49.95 27.15 49.95 27.2 50.15 27.45
L 50.2 27.25
M 55.1 27
L 55.15 25.8 54.6 26.85 54.95 26.7 55.1 27
M 51.8 26.65
L 51.6 27.35 52.15 27.95 52.25 28
Q 52.15 27.25 51.8 26.65
M 57.45 26.6
L 57.75 26.65 57.7 25.9 57.45 26.1 57.45 26.6
M 54.35 18.85
L 53.75 18.45 48.5 19.1 54.35 18.85
M 55.1 18.3
L 54.6 18.4 55.95 18.75 55.1 18.3
M 55.35 17.15
L 54.9 17.3 55.5 17.65 55.35 17.15
M 59.6 16.8
Q 59.4 16.8 59.25 16.65
L 58.05 17.1 59.95 17.55 59.75 17.25
Q 59.7 16.85 59.6 16.8
M 57.6 18.2
L 56 18.25 58.3 18.6 57.6 18.2
M 47.8 19.2
L 46.1 19.5 48.5 19.6 47.8 19.2
M 45.75 18.75
Q 45.85 18.8 46.2 18.8
L 45.55 18.4
Q 45.7 18.7 45.75 18.75
M 40.6 18.65
L 42.2 19 42.1 18.3
Q 41.45 19 40.9 18.45
L 40.6 18.65
M 42.6 18.65
Q 42.7 19.05 42.85 19.1 42.95 19.1 43.4 19.05
L 42.6 18.65
M 43.6 19.1
Q 43.7 19.05 43.9 18.95 44.05 18.85 43.9 18.5
L 43.6 19.1
M 49.8 17.75
L 49.45 18.15 50.85 18.25 49.8 17.75
M 48.95 17.75
L 48.55 18.4
Q 48.65 18.35 48.9 18.3 49.1 18.15 48.95 17.75
M 80.5 23.5
L 80.25 24.65
Q 80.45 24.5 80.55 24.25 80.6 24.1 80.8 23.55
L 80.5 23.5
M 74.5 24.7
L 74.15 24.35
Q 73.65 25.2 73 25.7 74.1 25.2 74.4 25.15
L 74.5 24.7
M 74.75 24.25
Q 74.85 24.4 74.85 24.45
L 74.95 24.3 74.75 24.25
M 73.8 18.25
L 73.3 18.35 73.85 19.2
Q 73.85 18.5 73.8 18.25
M 73.05 18.55
L 73 18.05 72.85 18.5 73.05 18.55
M 62.4 18.6
L 63.7 18.7 62.55 18.15 62.4 18.6
M 64.35 18.35
L 63.85 18.25
Q 63.95 18.6 64.1 18.8
L 64.2 18.8 64.35 18.35
M 63.7 16.75
Q 63.55 17.2 63.35 17.4
L 64.25 17.4 64.45 17.45
Q 64.3 16.9 63.7 16.75
M 62.1 18.55
L 61.4 18.15
Q 61.1 18.35 59.85 18.15 58.75 17.95 58.4 18.6
L 62.1 18.55
M 61.75 17
L 61.9 16.55 61.7 16.5
Q 61.6 16.95 61.45 17.2
L 62.95 17.55 62.95 17.3
Q 62.65 16.95 62.45 16.9 62.4 16.9 61.75 17
M 61.4 16.7
L 61.2 16.65 60.05 17.1 61.05 17.55 61.4 16.7
M 69.55 18.4
L 69.05 18.55 69.75 18.7 69.95 18.5 69.55 18.4
M 69.6 17.25
L 69.4 17.65 69.8 17.75 69.6 17.25
M 81.95 55.7
L 81.85 56.15 82.05 56.2 81.95 55.7
M 81.65 56.1
L 81.5 57
Q 81.7 56.75 81.75 56.7 81.75 56.65 81.65 56.1
M 81.2 57.45
L 81.25 55.3
Q 80.35 55.55 78.95 53.75 78.85 52.85 78.45 50.5 78.5 50.5 79.25 50.25 79.55 50.2 79.8 49.4 79.95 49 79.8 48.4 79.6 47.75 79.2 47.55
L 79.1 47.05
Q 79.45 46.6 80.35 45.65
L 80.4 44.95 80.25 44.15
Q 79.3 43.9 76.5 41.65 74 39.6 73.3 39.85 73.4 38.7 73.25 38.6
L 72.85 38.5
Q 72.2 39.6 70.9 40.55 69.8 41.35 68.8 41.65
L 65.6 41.1
Q 62.4 42.35 57.55 42.1 49.7 41.75 49.35 41.75 48.55 41.8 45.9 41.1 43.6 40.5 42.65 40.85 42.95 39.75 43.95 39.8 44.6 39.85 45.1 40.25
L 45.45 39.6
Q 43.35 39.35 41.7 39.1 38.5 38.7 38.45 38.4 38.25 38.5 37.95 38.85 37.75 39.05 37.4 39.1 37.85 40.5 39.45 40.8 38.45 41.55 37 41.35 35.7 41.15 34.65 40.35
L 34.45 40.8 34.6 41.05 34.55 42.25
Q 33.85 42.05 33.5 41.95 33 41.75 32.6 41.3
L 32.4 41.75
Q 32.95 43.15 33.8 43.5 33.75 44.1 33.85 44.75
L 29.35 44.15 29.4 43.65
Q 29.7 43.55 29.75 43.55 29.85 43.45 30 43.1 28.35 44.15 25.35 44.05 22.75 43.95 20.35 43.15
L 20.6 42
Q 20.35 41.95 20 41.8 19.85 41.75 19.4 41.7
L 19.95 42.8 19.2 42.4 18.8 44.45
Q 19.05 45.25 19.35 45.45 19.75 45.8 20 46.2
L 19.85 46.65
Q 19.85 46.7 19.5 46.8 19.15 51.2 20.3 52.1 21.1 52.7 23.75 53.6 24.25 53.95 26.25 56.75 27.85 59.1 29.7 59.4 29.55 59.05 29.5 58.95 29.45 58.9 29.45 58.4 28.55 58.2 27.4 57.15
L 27.25 56.4
Q 27.95 57.2 28.3 57.85
L 28.4 57.9
Q 28.45 57.35 28.45 57.1 28.45 57.05 28.35 56.65
L 28.25 56.4
Q 28.25 56.55 28.15 56.6
L 27.4 55.45
Q 28.2 54.35 29.65 56.1 31.35 58.15 32 58.05 33 57.9 35.55 58.9 38.05 59.9 39.65 59.65 43.75 59.1 52.65 60 61.1 60.9 65.2 60.05
L 70.55 61.35
Q 71.8 61.1 74.5 60.9 76.7 60.7 78.15 60.3
L 78.4 59.15
Q 78.1 58.3 78.4 58.05 78.95 57.65 79.1 56.9 79.3 57.15 79.25 57.15 79.25 57.35 79.25 57.7
L 81.2 57.45
M 81 47.5
Q 81.25 46.4 81.2 47.05
L 81.5 47.6 81.6 47.15 81.65 46.45 80.85 45.75 80.7 46.3
Q 80.55 46 80.35 45.9
L 80 47.5 81 47.5
M 81.9 45.75
Q 81.9 46 81.85 46.25 81.85 46.3 81.95 46.5 81.9 46.95 82 47.5
L 82.15 46.3 81.9 45.75 Z"/>
</g>
</defs>

<g transform="matrix( 1, 0, 0, 1, 0,0) ">
<use xlink:href="#Layer1_0_FILL"/>
</g>
</svg>
