
<svg xmlns="http://www.w3.org/2000/svg" version="1.1" xmlns:xlink="http://www.w3.org/1999/xlink" preserveAspectRatio="none" x="0px" y="0px" width="100px" height="100px" viewBox="0 0 100 100">
<defs>
<g id="Layer1_0_FILL">
<path fill="#363435" stroke="none" d="
M 58.65 28.85
Q 56.4 28.45 52.95 29.35 48.65 30.5 47.3 30.55
L 36.8 33.4 36 34.65 36.1 34.9
Q 37.5 33.95 40.6 33.15 44.2 32.25 45.05 33.25 45.05 32.8 47.6 32.4 49.9 32.05 50.75 32.05
L 58.05 31.15 68.15 32.75 68.05 32.4
Q 68.35 32.3 69.35 32.3 70.3 32.15 70.5 31.3
L 70.4 31.5 68.45 31.65
Q 67.3 31.3 63.6 30.2 60.4 29.25 58.65 28.85
M 68.7 35.65
Q 68.5701171875 35.67734375 68.4 35.7
L 76.05 39.1 68.7 35.65
M 60.7 34.7
Q 59.15 34.85 52.05 34.9 46.65 34.95 43.35 35.8
L 36.25 37.7
Q 35.55 37.8 34.8 37.6 33.95 37.3 33.9 36.75 33.35 36.9 31.8 36.7 30.3 36.5 29.55 36.9
L 29.05 38.25 28.95 39.45 29.05 40 30.35 40.2
Q 30 41.95 27.3 42.1 25.9 42.2 23.75 41.95 23.4 44 23.85 45.2 24.55 44.55 25.65 45.4 25.9 45.6 26.15 45.75 25.95 45.75 25.75 45.8 25.3 45.95 24.1 47.35 23 48.65 22.65 48.6
L 22.25 49.55
Q 22.6 50.1 22.75 50.85
L 21.4 49.9 21.3 50.55
Q 21.6 51 21.85 51.15 22.2 51.3 22.5 51.45
L 22.3 52.5
Q 23.9 51.7 26.9 53.45 30.05 55.3 31.5 58.25 31.5130859375 58.2828125 31.5 58.3 31.89296875 58.2078125 32.3 58.1
L 43.85 61.05
Q 52.3 61.8 54.7 61.9 60.75 62.1 64.95 61.1 68 60.4 68.2 60.3 69.95 59.5 70.95 57.2 70.45 57.3 70.25 55.85 70 54.1 69.9 54 70 52.65 70.7 52.1
L 70.8 51.7
Q 70.05 52 68.15 54.9 66.15 57.9 65.25 58.35
L 59.7 58.4
Q 56 58.8 55.3 58.8 52.65 58.8 50.75 57.75
L 50.75 57.5
Q 51.25 56.55 56.1 56.4 60.7 56.2 61.95 56.75 61.9 56.45 61.85 56.4 61.85 56.45 61.75 56.35 61.85 56.15 61.95 56 62.1 55.6 62.2 55.5
L 62.45 55.4 62.8 55.6 62.6 56.75 64.25 56.9 64.35 56.5 64.25 55.9
Q 64.2 55.4 64.15 55.4 64.1 55.4 63.85 55.4
L 67 54.2
Q 67.3 53.95 68.2 52.55 69.1 51.2 69.55 50.8
L 72.05 50.6 72.2 50.7 72.05 50.1
Q 71.6 51.05 69.95 49.85
L 69.65 48.65
Q 69.75 48.1 69.75 47.75 69.8 47.65 70 47.4
L 70 47.2
Q 69.1 47 67.6 47.45 66.15 47.9 65.35 47.6
L 65.5 45.95
Q 66.05 45.05 67.35 45.4 69.2 45.85 69.45 45.8 71.2 45.55 74.05 44.9 77.25 44.15 78.6 43.9
L 78.7 43.45 78.4 43.5 78.65 42.4
Q 77.55 41.15 75.95 41.6 75.05 41.85 73.15 42.5 72.35 42.65 70.95 40.9 69.5 39.1 68.65 39.1
L 56.25 37.7
Q 56.5 36.95 58.8 37.05 61.8 37.2 62.35 37.05 65.05 36.4 69.2 37.6 75.15 39.35 76.25 39.5
L 76.25 39.25 76.05 39.1
Q 65.7291015625 35.38359375 65.15 35.25 62.3 34.55 60.7 34.7
M 42.05 46.2
Q 43.4 46.15 46.3 47 49 47.75 50.25 47.55 52.5 46.95 53.7 46.85 55.9 46.75 57.1 48.45
L 52.75 48.6
Q 51.2 48.8 48.1 48.45 44.8 48.1 43.15 48.2
L 35 48.9
Q 34.7 48.95 34.2 48.45 33.7 48 33.4 48 33.15 48.05 32.3 48.95 31.6 49.65 31.2 49.4 30.6 49 28.75 47.1 28.1 46.55 27.6 46.25 29.9 45.75 30.35 45.75 32.35 45.6 33.4 46.5
L 34.1 47.5 42.05 46.2
M 39.65 62.7
Q 37.45 62.35 35.65 62
L 40.85 66.05 43.85 66.2 44.1 66.1 44.15 65.9 43.65 64.55
Q 43.7 64.55 45.95 64.25 47.35 64.05 48.3 65.1 47.7 66.15 46.1 65.55 44.65 65 44.2 66.2 46.1 65.45 49.85 66.35 53.55 67.3 54.95 66.6 55.55 66.35 56.75 67 57.9 67.55 58.1 67.35 59.1 66.05 61.5 66.2 64.05 66.6 64.75 66.6
L 65.8 67.4
Q 66.55 66.7 68.2 66.85 69.6 66.95 70.55 67.5
L 69.65 68.6 69.55 69 69.85 70.2
Q 69.95 67.85 71.2 67.5 72.75 67.55 73.3 67 73.7 66.6 74 65.75 74.2 65.25 74.55 64.2
L 74.6 63.95
Q 74.4 64.15 73.55 65.1 72.85 65.8 72.35 66.1
L 72.15 65.95
Q 72.35 65.5 72.65 64.85 72.95 64.2 73.1 63.15
L 73 63.1
Q 72.3 67.15 68.75 65.9 67.8 65.55 65.9 64.7 64.35 64.1 63.55 64.5 61.5 65.6 57.85 64.5 53.35 63.15 51.6 63.25 50.35 63.35 47.6 62.8 44.8 62.2 43.6 62.3 43.05 62.35 41.65 62.95 40.4 63.35 39.65 62.7
M 71.05 57.05
L 71.35 57.5 71.35 57.25 71.05 57.05
M 71.55 56.9
Q 71.6 57.15 71.6 57.2
L 71.75 57.3 71.8 57.05 71.55 56.9
M 73.3 49.75
L 73.25 50.45 73.85 50.4 73.3 49.75
M 72.9 49.95
L 72.75 50.6 73.1 50.6 73.15 50.15 72.9 49.95
M 27.25 54.55
Q 27.3 54.95 27.35 55 27.5 55.1 27.65 55.3
L 27.65 55.05 27.25 54.55
M 27.9 32.55
Q 27.9 32.8 28.2 34.45
L 28.6 35.05 28.65 34.8 27.9 32.55
M 37.4 35.8
Q 36.75 35.8 36.4 35.85
L 37.1 36.8
Q 37.15 36.4 37.25 36.3
L 37.55 35.9 37.4 35.8
M 37.65 35.7
L 37.7 36.25 38.45 36.25
Q 38.45 36 38.55 35.85 38.6 35.8 38.5 35.55
L 37.65 35.7
M 34.8 36.65
L 35 36.3 34.75 36.15 34.8 36.65
M 35 36.3
L 35.3 36.5 35.4 36.1 35.2 35.95 35 36.3
M 75.1 28.85
L 73.75 28.4 73.8 28.9 73.6 29.05
Q 73.95 29.35 74.4 29.3 75 29.2 75.5 29.35
L 75.1 28.85
M 71.4 28.45
L 71.15 28.5 71.15 29.25 71.45 29.5
Q 71.45 29.15 71.5 28.9 71.55 28.85 71.4 28.45
M 71 29.15
L 71.1 28.75 70.65 28.4 70.45 28.55
Q 70.6 28.95 70.65 29.05 70.85 29.1 71 29.15
M 72.65 28.95
L 72.6 28.55 71.85 28.55 71.85 29.5 72.55 29.25
Q 72.6 29 72.65 28.95
M 73.1 29.15
L 72.75 28.65 72.85 29.25 73.1 29.15
M 78.1 30.45
L 77.55 29.85 77.65 30.65 78.1 30.45
M 42.6 34.25
L 42.4 34.4 42.8 34.65 42.8 34.45 42.6 34.25
M 44.15 33.4
L 44 33.8 44.45 33.6 44.15 33.4
M 44.9 33.15
L 44.55 33.4 44.5 33.65 45 33.75 44.9 33.15 Z"/>
</g>
</defs>

<g transform="matrix( 1, 0, 0, 1, 0,0) ">
<use xlink:href="#Layer1_0_FILL"/>
</g>
</svg>
