
<svg xmlns="http://www.w3.org/2000/svg" version="1.1" xmlns:xlink="http://www.w3.org/1999/xlink" preserveAspectRatio="none" x="0px" y="0px" width="100px" height="100px" viewBox="0 0 100 100">
<defs>
<g id="Layer1_0_FILL">
<path fill="#363435" stroke="none" d="
M 76.9 74.45
L 77 74.25
Q 77 74.2 77 73.8
L 76.9 74.45
M 57.65 67.85
L 57.85 67.75 57.6 67.25 57.65 67.85
M 58 67.15
L 57.95 67.1 57.85 67.55
Q 57.95 67.5 57.95 67.45 57.975 67.425 58 67.35
L 58 67.15
M 56.9 67.15
L 56.8 67.85 57.1 67.75 57.1 67.8 57.1 67.75 57.45 67.7 57.45 67.55 57.35 67.5
Q 57.462890625 67.462890625 57.6 67.6
L 57.55 67 57.25 67.2 57.15 67.1 57.1 67.3 56.9 67.15
M 56.85 67.2
L 56.8 67.15 56.8 67.4
Q 56.85 67.3 56.85 67.2
M 59.2 57.5
L 59 57.5 59.4 57.95 59.45 57.7 59.2 57.5
M 76.3 70.35
Q 76.45 70.15 76.45 70.1 76.45 70.05 76.45 69.5
L 76.3 70.35
M 77.2 69.6
L 76.95 69.55 76.9 70.25 77.3 69.7 77.2 69.6
M 78.05 69
Q 77.85 69.65 77.4 69.55
L 77.5 70.15
Q 77.6 69.95 77.85 69.9 78.05 69.75 78.05 69
M 78.5 69.8
Q 78.5 69.75 78.5 69.05
L 78.25 69.75
Q 78.35 69.7 78.5 69.8
M 79.1 68.7
L 79.05 69.4 79.15 69.45 79.1 68.7
M 80.35 68.3
L 80.25 69.15
Q 80.3 69.1 80.45 69.15 80.4 68.75 80.35 68.3
M 80.95 69.2
L 80.85 69.1
Q 80.85 69.25 80.85 69.3
L 80.95 69.2
M 80.1 68.75
L 79.95 68.35 79.75 68.9 79.75 69.15 80.1 69 80.1 68.75
M 71.1 68.9
L 71.15 68.5 70.9 68.2 70.65 68.4 71.1 68.9
M 71.55 68.4
Q 71.35 68.9 71.3 68.9
L 71.65 69 71.55 68.4
M 71.9 68.5
L 71.7 68.8 72.3 69.15 71.9 68.5
M 73.1 69.1
L 73.1 69.6 73.35 69.35 73.1 69.1
M 72.85 69.55
L 72.95 69.15 72.65 68.85 72.35 68.75 72.35 69.3 72.85 69.55
M 73 68.95
L 72.95 69.4 73 69.3
Q 73 69.25 73.1 69.05
L 73 68.95
M 74.05 69.6
L 75.9 70.4
Q 75.95 70.3 76 70
L 75.9 69.45 74.05 69.35 74.05 69.6
M 73.85 69.65
L 73.85 69.45 73.7 69.2
Q 73.4 69.55 73.4 69.65
L 73.85 69.65
M 70.1 68.55
L 70.15 68.15 69.95 67.9 70.1 68.55
M 65.05 69.2
L 64.85 69.25 64.85 69.8
Q 64.95 69.6 65 69.5 65 69.35 65.05 69.2
M 65.2 68.15
L 65.1 68.55 65.4 68.35 65.3 68 65.2 68.15
M 64.2 67.85
Q 64.3 68 64.3 68.05
L 64.35 67.95 64.2 67.85
M 65.05 68
L 64.95 67.9 64.9 68.3 65.05 68
M 62.4 67.6
Q 62.45 67.75 62.45 67.8
L 62.5 67.7 62.4 67.6
M 67.45 60.95
L 67.45 61.5 67.65 61.45 67.45 60.95
M 66.9 60.65
L 67.1 61.1 67.1 60.85 66.9 60.65
M 65.95 57.6
Q 66 57.35 66 56.95
L 65.65 57.05 65.95 57.6
M 66.65 57.4
L 66.85 57.85 66.85 57.6 66.65 57.4
M 66.3 57.25
L 66.3 57.75 66.4 57.4 66.3 57.25
M 67 57.5
L 66.95 57.75
Q 67.05 57.8 67.15 57.85 67.2 57.85 67.25 57.6
L 67.15 57.5 67 57.5
M 64.95 59.5
L 64.85 59.35 62.7 58.05 59.45 57.45
Q 64.85 59.75 64.95 59.5
M 65.3 59.9
L 65.1 59.7 65.3 60.15 65.3 59.9
M 75.95 59.1
L 76.55 59.25 76.2 58.65 75.95 59.1
M 77.85 58.5
L 77.7 58.3 77.75 58.85 77.85 58.5
M 77.7 58.55
L 77.5 58.35 77.4 58.7
Q 77.5 58.7 77.6 58.65
L 77.7 58.55
M 77.05 58.6
L 76.95 58.7 77.3 59.1 77.05 58.6
M 79.55 57.85
L 79.65 57.9 79.8 57.6 79.55 56.85 79.55 57.85
M 79.25 57.25
L 79.25 58 79.4 58.15 79.45 57.25 79.3 57.05 79.25 57.25
M 79.45 56.25
L 79.35 56.65 79.55 56.35 79.45 56.25
M 80.55 57.15
L 80.45 57.05 80.15 57.25 80.15 57.5
Q 80.4 57.5 80.55 57.15
M 78.95 54.45
L 78.65 54.65 78.6 55.05 79.15 55.2 79.15 54.95 78.95 54.45
M 76.2 54.15
L 76.15 54.4 76.75 54.75
Q 76.65 54.95 76.6 55
L 76.45 54.95
Q 76.55 55.25 77 55.35 77.6 55.5 77.75 55.65
L 77.8 54.45
Q 77.65 54.55 77.65 54.6 77.65 54.65 77.6 55.25 77.05 53.75 76.2 54.15
M 76.45 55.4
L 76.45 55.2 76 54.95 76 54.3
Q 76 54.25 76 53.7 75.8 54.4 72.75 52.95 69.6 51.5 69.15 53.45
L 69.05 53.6 69.1 54.15
Q 69.9 53.1 72.85 53.8 75.6 54.5 76.45 55.4
M 4.55 53.6
L 4.75 53.95
Q 4.85 53.85 5.2 54
L 5.25 53.8 4.55 53.6
M 25.35 41.65
Q 25.95 41.5 25.75 41.1 25.65 41.15 25 41.4 24.65 41.55 24.35 41.8 25.05 41.7 25.35 41.65
M 25.65 35.2
L 25.25 35.85
Q 25.7 35.75 25.75 35.7
L 26.15 35.3 25.65 35.2
M 24.2 36.1
L 23.75 36.95 25.15 37.3 25.25 36.8 25.75 36.95 25.8 36.7 24.2 36.1
M 73 39.9
L 72.75 39.35 72.1 39.4 73 39.9
M 73.2 39.35
L 73 39.65 73.5 39.95 73.2 39.35
M 72 39.55
L 71.9 39.15 71.6 39.35 72 39.8 72 39.55
M 71.45 39.65
L 71.15 39.15 70.9 39.35 71.45 39.65
M 75 39.8
L 74.7 39.75 75.05 40.15 75.15 40 75 39.8
M 75.15 38.8
L 75.15 39.25 75.45 39.8
Q 75.4 39.2 75.35 39.15 75.2 38.85 75.15 38.8
M 75.1 38.95
L 74.9 38.7 74.05 38.75 75.05 39.65 75.1 38.95
M 75.8 39.15
Q 75.75 38.95 75.7 38.85
L 75.65 39.2
Q 75.55 38.95 75.5 38.9 75.55 39.35 75.65 39.45 75.7 39.6 75.85 39.5
L 75.95 39.6
Q 75.9 39.25 75.8 39.15
M 74.35 39.6
Q 74.4 39.95 74.4 40 74.45 40 74.6 40.15
L 74.35 39.6
M 74.05 39.5
L 73.55 39.45
Q 73.75 40.45 74.05 39.5
M 79.35 40.85
L 79.25 41
Q 79.35 41.15 79.35 41.1 79.35 40.95 79.35 40.85
M 80.65 41.25
L 80.8 41.45 80.75 40.85 80.65 41.25
M 79.95 41.15
L 80 41.05 79.9 40.95
Q 79.95 41.1 79.95 41.15
M 80.2 40.3
L 80.2 40.55
Q 80.35 40.5 80.35 40.45 80.35 40.25 80.4 40
L 80.2 40.3
M 80.65 40.35
Q 80.7 40.3 80.75 40.4
L 80.8 40.65 80.9 40.3 80.6 40 80.65 40.35
M 77.75 40.6
L 77.95 41.05 78 40.85 77.75 40.6
M 76.75 40.25
L 76.45 40.4 76.75 40.75 76.85 40.4 76.75 40.25
M 80 40.1
Q 79.9 40.25 79.85 40.2 79.8 40.15 79.7 40.05 79.75 40.45 79.8 40.5 79.85 40.6 80.15 40.7
L 80.15 40.5 80 40.1
M 79.35 40.1
L 79.2 39.95
Q 79 40.3 77.65 39.3 76.55 38.45 76.2 39.9 76.75 39.5 77.65 39.8 78.5 40.05 79.25 40.75
L 79.35 40.1
M 66.75 38.55
L 66.4 38.6 66.8 39.3 66.85 38.65 66.75 38.55
M 69.7 38.75
L 69.5 38.55 66.9 38.7 66.9 38.95
Q 67.3 39.95 68.25 39.65 69.6 39.25 69.7 39.25
L 69.7 38.75
M 48.05 39.05
L 40.65 37.3
Q 40.3 37.05 40 36.85 37.091015625 35.5068359375 35.45 35.55
L 25.95 37 25.75 37.9 35.1 36.95 40 38 40 38.05 46.9 40.35
Q 53.75 40.3 56.9 40.15 57.2 40.15 57.45 40.15
L 57.45 39.9
Q 57.4751953125 39.9181640625 57.5 39.9
L 57.5 40.15
Q 57.756640625 40.1111328125 58 40.05
L 58 39.75
Q 58.569921875 39.57734375 59.05 39.35 60.75 38.5 62.85 38.35 65.4 38.15 66.25 39.45
L 66.35 38.85 66.15 38.6 60.4 37.8
Q 58 38.5 56.8 38.8
L 56.8 39
Q 51.896875 39.3314453125 48.05 39.05
M 82.4 74.75
L 82.75 74.85 82.75 74.6 82.6 74.45 82.4 74.75
M 82.4 74.75
L 82.35 74.65
Q 82.35 74.8 82.35 74.85
L 82.4 74.75
M 91.95 64.1
L 91.85 64.75 91.95 64.6
Q 91.95 64.55 91.95 64.1
M 91.65 64.3
L 91.3 64.7 91.6 64.7 91.75 64.9 91.65 64.3
M 93.75 64.35
L 93.8 64.7
Q 93.85 64.6 93.9 64.75
L 93.9 64.55 93.75 64.35
M 81.1 68.15
L 81 68 80.75 68.25 80.75 68.5 81.1 68.15
M 90.55 69.05
L 90.5 68.5 90.45 68.9 90.55 69.05
M 90.05 69
L 90.3 69.3 90.25 68.7 90.05 69
M 89.9 69.3
L 90.05 69 89.95 68.9 89.9 69.3
M 84.15 73.45
L 83.7 73.95
Q 83.9 74.05 84.05 74 84.2 73.9 84.15 73.45
M 84.15 67
L 84.15 67.5
Q 84.2 67.3 84.3 67.15
L 84.15 67
M 84 66.35
L 83.9 66.2
Q 83.75 66.55 83.7 66.55 83.65 66.45 83.6 66.4
L 83.45 67
Q 83.55 67.2 83.8 66.85
L 83.9 66.75
Q 83.9 66.65 84 66.35
M 84.3 66.2
L 84.15 66.5
Q 84.2 66.9 84.3 66.75 84.35 66.6 84.3 66.2
M 84.95 66.4
L 84.85 65.8 84.8 66.25 84.95 66.4
M 83.25 66.55
L 82.65 67.1 82.7 67.7
Q 82.9 67.1 83.25 67.25 83.25 67 83.3 66.85 83.35 66.75 83.25 66.55
M 81.95 67.6
L 81.85 67.5
Q 81.95 67.75 82.15 67.95 82.3 68.05 82.4 68.6 82.5 67.85 82.5 66.95 82.35 67.6 81.95 67.6
M 81.7 67.8
L 81.55 67.65 81.6 68.15 81.7 67.8
M 88.7 65.3
L 88.95 65.05 88.75 64.85 88.7 65.3
M 88.25 65.05
L 88.15 65.7 88.4 65.2 88.25 65.05
M 87 65.65
L 86.9 66.05 87.05 65.75 87 65.65
M 90.9 64.25
L 90.15 63.9 89.95 64.7 90.05 65.3
Q 90.25 65.1 90.55 64.75 90.8 64.55 91.15 64.75
L 90.9 64.25
M 89.65 64.15
L 88.95 64.6 89 65.4
Q 89.15 65.15 89.4 65.1 89.55 65.05 89.65 65.15 89.75 64.7 89.75 64.65 89.7 64.45 89.65 64.15
M 82.7 55.8
L 82.9 56.25 82.9 56.05 82.7 55.8
M 85.8 54.25
L 85.7 54.65 85.85 54.8 85.8 54.25
M 88.9 53.2
L 88.75 53.55
Q 88.85 53.55 88.95 53.55
L 89 53.3 88.9 53.2
M 89.1 53.15
L 89.05 53.6 89.35 53.7 89.1 53.15
M 90.95 52.95
Q 90.9 53.4 90.95 53.4
L 91.2 53.45 90.95 52.95
M 90.35 53.25
L 90.15 53.05 89.5 53.3 89.4 53.45 90.3 53.5 90.35 53.25
M 90.6 53.1
L 90.5 52.95
Q 90.5986328125 53.1470703125 90.6 53.2
L 90.6 53.1
M 87.95 55.35
L 87.75 55.65
Q 87.8 56 87.9 55.85 88 55.7 87.95 55.35
M 87.9 54.05
L 87.9 53.8 87.7 53.6 86 54.45 85.85 54.6 87.9 54.05
M 88.4 53.4
L 87.9 53.6 88.55 53.8 88.55 53.55 88.4 53.4
M 86.95 52.55
Q 87 52.4 87.05 52.2
L 86.95 51.8
Q 86.65 52.35 84.75 52.6 83.05 52.85 82.85 54 82.7 53.7 82.7 53.95 82.7 54.85 82.7 55.35 82.85 55.3 83.3 55.65 83.55 55.85 83.55 55.25 84 56.2 84 55 84.2 55.05 84.7 55.2 85.15 55.2 85.55 54.7
L 85.65 54.85 85.65 54.6 83.55 54.55
Q 83.8 53.8 84.3 53.65 84.75 53.55 85.1 54.2
L 85.05 52.95
Q 85.25 53.55 86 53.45 86.7 53.3 86.95 52.55
M 90.5 51.7
L 90.3 52 90.7 52.15 90.7 51.9 90.5 51.7
M 90.3 52
L 90.1 51.75 90.3 52.25 90.3 52
M 89.7 52.3
L 89.35 51.95 89.3 50.9
Q 89.1 51.65 88.9 51.95 88.75 52.2 88.55 51.9 88.55 51.8 88.3 51.05
L 88.35 51.85 87.8 52.25
Q 87.9 51.65 87.95 51.6 87.95 51.55 88.2 51.65
L 88.2 51.2 87.6 51.5
Q 87.5 51.4 87.55 51.7 87.65 52.2 87.65 52.55
L 89.7 52.3
M 91.75 60.25
L 91.85 59.8 91.65 59.6 89.75 60.3 89.7 60.7 91.75 60.25
M 91.8 59.05
L 91.9 59.85 92 59.5 92.1 59.65 92.15 59.4 91.8 59.05
M 92.65 59.15
Q 92.65 59 92.45 58.8
L 92.75 59.6
Q 92.7 59.2 92.65 59.15
M 92.5 59.55
Q 92.45 59.2 92.4 59.1 92.4 59.05 92.3 58.8
L 92.25 59.5 92.5 59.55
M 93.5 58.4
L 92.95 58.75 92.9 59.25 93.55 58.95 93.5 58.4
M 93.65 58.3
L 93.55 58.75 93.65 58.7
Q 93.65 58.65 93.75 58.45
L 93.65 58.3
M 93.45 57.65
L 93.45 57.85 93.65 58.1 93.65 57.35 93.6 57.8 93.45 57.65
M 93.2 57.6
L 93.1 58 93.2 58.1 93.2 57.6
M 92.3 57.85
L 92 58 92.5 58.3 92.55 58.1 92.3 57.85
M 58.45 57.85
L 58.25 57.65 57.9 57.75
Q 57.7216796875 57.7294921875 57.5 57.7
L 57.5 58 57.5 58 57.5 58.05 57.85 58.05
Q 57.92265625 58.0845703125 58 58.1
L 58 58.05 58.4 58.1 58.45 57.85
M 58.8 57.8
L 58.6 57.55 58.45 57.85 58.8 58.05 58.8 57.8
M 92 58.25
L 91.8 58 89.1 59.05
Q 88.95 58.45 88.95 58.3 88.95 58.2 88.95 57.45
L 86.7 58.2
Q 86.05 59.25 84.65 60.3 83.4 61.15 82.45 61.45
L 81.85 61.05
Q 78.8 64.25 75.8 64.6 75.25 64.7 74.25 63.9 73.2 63.1 72.75 63.25 72.2 63.4 71.05 62.7 69.85 62 69.3 62 67.7 62.05 66.45 61.35 64.85 60.4 63.75 60.2
L 60.4 58.75
Q 59.4654296875 58.97421875 58 58.85
L 58 58.7
Q 57.7345703125 58.7 57.5 58.7
L 57.5 58.8 57.45 58.8 57.45 58.7
Q 51.9 58.55 48.75 58.75 43.9 59.1 42.75 59.05 41.2 59 40 58.75
L 40 58.7
Q 37.2099609375 58.269921875 35.5 57.25
L 34.1 56.9
Q 35.3 56.55 37.15 56.75 39.25 57 39.75 58
L 40.65 58.05 40 57.45 39.7 57.25 39.55 56.7
Q 39.7708984375 56.7234375 40 56.75 43.65 57.3 50.45 57.6 54.21328125 57.7771484375 56.8 57.95
L 56.8 58.1
Q 57.2 58.2 57.45 58.3
L 57.5 58.05
Q 57.44296875 58.021484375 57.35 58 57.41640625 57.99765625 57.45 58
L 57.45 57.7
Q 56.1 57.6 54.3 57.55 49.85 57.45 47.55 56.85 48.7 56 51.25 56.55 54.15 57.15 54.95 56.85 55.9533203125 56.4677734375 57.3 56.35 57.4083984375 56.3771484375 57.5 56.4 59.1 56.8 59.6 56.65 62.7 55.6 67.45 56.65 69.4 57.1 74.35 58.85
L 74.25 59.2
Q 74.85 59.4 75.15 59.45
L 74.7 59 74.75 58.8 75.25 58.85 75.15 59.2 75.8 59.4 75.7 58.6
Q 76 58.65 77 58.15 77.85 57.85 77.95 58.6 78.05 58.55 78.1 58.6
L 78.1 58.25
Q 78.45 57.35 79.15 57.65
L 79 57.2
Q 79.1 56.4 79.25 56.15 79.3 56.05 79.75 55.6 79.75 55.7 79.75 56.45 79.75 56.8 79.9 57.2 80.65 56.95 81.1 56.65
L 81 56.75 81 56.95
Q 81.2 56.85 81.35 56.85
L 81.15 56.6
Q 81.85 56.15 82 55.55 82.15 55.65 82.25 55.7 82.3 55.75 82.3 56.35 82.45 56.15 82.45 55.25 82.45 54.3 82.6 54
L 82.65 53.8 81.85 53.95 81.85 54.15 82.35 54.45 82.35 54.9 81.8 54.9 81.85 54.15
Q 80.95 53.55 79.9 54.7 78.75 56 78.25 55.9 78.3 55.6 78.5 55.2
L 78.5 54.95
Q 78.3 54.75 78.25 54.75 78.15 54.7 78.05 55
L 77.9 55.05
Q 77.95 55.45 78 55.5 78.05 55.55 78.2 55.6 77.65 57.05 75.35 56.95 74.9 56.9 72.3 56.35
L 72.35 55.7
Q 71.65 56.4 69.55 55.25 67.05 53.9 66 54 64.25 54.2 58.65 52.9 58.3220703125 52.813671875 58 52.75
L 58 52.55
Q 57.74609375 52.5224609375 57.5 52.5
L 57.5 52.65
Q 57.475 52.653515625 57.45 52.65
L 57.45 52.5
Q 48.65 52.15 43.15 53.05 43.05 52.6 43.05 52.55 43.15 52.4 43.15 52.05 41.7 51.7 40 51 38.7921875 50.659765625 37.5 50.25 32.35 48.6 29.55 47.95 29.9 48.7 32.85 49.7
L 28.85 48.75 29.5 48.15
Q 28.5 48.15 27.05 47.7 26.45 47.5 24.4 46.7
L 26.9 48.8
Q 25.35 48.35 21.4 46.8 17.9 45.4 15.25 44.8 16.15 45.85 18.8 46.7 21.8 47.7 22.55 48.25
L 18.95 47.9
Q 19.8 48.5 21.4 49.05 23.05 49.65 24 49.6
L 24.65 50
Q 24.35 49.65 24.2 49.55 24.05 49.45 23.35 49.2
L 23.2 48.65
Q 25 49.2 26.1 50.3 27.6 51.75 28.1 52.05 24.95 52.45 17.8 49.15 12 46.4 8.85 48.95
L 8.9 50.7 23.55 57.6 23 58
Q 21.6 56 16.35 56.05 13.6 56.05 10.25 56.45
L 4 54.75 3.1 58.7
Q 3.75 59.05 4.15 59.45 4.4 59.75 4.9 60.35
L 4.85 59.6
Q 8.35 58.75 13 59.45 17.5 60.1 19.9 61.7
L 24.6 65.75 27.85 65.55 40 68.65 40.3 68.75
Q 41.1 68.8 48.75 69.45 54 69.9 57.3 69.55 57.4 69.55 57.45 69.55
L 57.45 69.15
Q 57.4751953125 69.1666015625 57.5 69.15
L 57.5 69.55
Q 57.7591796875 69.4587890625 58 69.35
L 58 69
Q 59.2439453125 68.58515625 59.7 68.55 61.85 68.3 63.4 69.9
L 63.5 69.5 63.25 68.25
Q 63.1 68.6 63.1 68.65 63.1 68.75 63.05 69.3 62.9 68.8 62.9 68.7 62.95 68.45 63 67.95 62.85 67.65 62.6 68.1 62.3 68.7 62.05 68.65 59.8 68.15 58.7 68 57.7 67.85 56.8 67.95
L 56.8 68.1
Q 55.2486328125 68.2517578125 53.8 68.5
L 53.2 68.25 53.25 67.8 56.25 67.9
Q 56.35 67.8 56.5 67.5
L 56.55 67.25
Q 55.25 67.3 49.1 66.8 44 66.4 42.65 66.9
L 43.05 66.3
Q 41.3 65.85 40 65.55 38.3845703125 65.2806640625 37.3 65.1 33.1 64.35 30.15 63.15 33.15 62.35 39 63.65 39.5130859375 63.7607421875 40 63.85
L 40 63.9
Q 44 65.15 45.3 65.15 45.35 65.15 54 64.8 55.5109375 64.7205078125 56.8 64.75
L 56.8 64.9
Q 57.15 64.95 57.4 65.15
L 57.4 64.8 57.45 64.8 57.5 63.75 57.5 64.8
Q 57.7669921875 64.8205078125 58 64.85
L 58 64.25
Q 58.180859375 64.3 58.4 64.3 58.6 64.35 58.6 64.75
L 59.15 64.35 59.25 62.95
Q 59.35 62.95 59.55 62.95 59.75 63.05 59.85 63.6 59.7 63.55 59.55 63.8 59.45 64 59.4 64.1
L 59.3 64
Q 59.55 64.7 60.55 64.55 60.7 64.7 60.75 64.45 60.8 64.05 60.85 63.65 61 63.5 61.05 63.5 61.15 63.55 61.25 63.9
L 60.8 64.35 60.8 64.6
Q 61.2 64.95 61.6 64.65 61.95 64.3 62.3 64.5
L 62.15 64.6
Q 62.15 65.1 62.9 65.15 63.7 65.15 63.85 65.45
L 69.95 68.4
Q 69.8 67.55 68.85 66.95 68.1 66.5 67.55 66.5 64.6 66.35 61.5 62.9
L 61.5 62.65 62.7 62.65
Q 63.45 62.8 63.9 63.55
L 63.8 62.95
Q 67.3 66.15 71.45 67.35 76 68.7 79.15 67
L 89.5 61 89.5 60.75 88.75 60.95
Q 88.95 60.35 89.4 59.8 89.8 59.3 90.05 59.35
L 90 60.05
Q 90.3 59.2 90.85 58.8 91.4 58.4 91.9 58.65
L 92 58.25
M 58.65 63.05
L 58.65 63.3 58 63.3 58 63.1 58.65 63.05
M 95.35 57.45
L 95.35 57.25 95.2 57.05 95.25 57.4
Q 95.25 57.3 95.35 57.45
M 94.4 58.6
Q 94.15 58.2 94 57.7 93.9 58.1 93.8 58.25
L 93.8 58.5 94.25 58.5 94.4 58.6
M 81.15 40.85
L 81.4 40.35 81.25 40.2 80.95 40.1 81.15 40.85
M 82.4 40.7
L 82.35 41.1 82.6 40.9 82.4 40.7
M 81.6 40.1
L 81.5 40 81.45 40.4 81.6 40.1
M 81.85 40.1
L 81.65 39.9 81.65 40.6 81.85 40.1
M 82.25 39.75
L 82.15 39.9 82.05 40.3
Q 82.2 40.25 82.2 40.2 82.2 40 82.25 39.75
M 83.25 39.4
L 83.3 39.75
Q 83.35 39.65 83.4 39.8
L 83.45 39.6 83.25 39.4
M 83.55 40
L 83.7 39.4 83.5 39.2 83.55 40
M 84.1 38.85
L 84 38.95 83.9 39.4
Q 84.1 39.3 84.1 39.25
L 84.1 38.85
M 85 38.55
L 84.85 38.45 84.65 38.7
Q 84.65 39.2 84.65 39.5 84.65 39.6 84.7 40 84.7 39.35 84.8 39.15 84.95 38.6 85 38.55
M 85.45 38.6
L 85.4 38.05 85.35 38.5 85.45 38.6
M 86.4 38.15
L 86.3 37.55 86.15 38.1 86.4 38.15
M 89.6 35.95
L 89.5 35.85 89.45 36.25 89.6 35.95
M 89.4 36.2
L 89.3 36.1 89.2 36.5 89.4 36.2
M 91.05 35.55
L 90.95 35.4
Q 91 35.6 91 35.65
L 91.05 35.55
M 88.3 36.45
Q 88.3 36.6 88.3 36.65
L 88.35 36.55 88.3 36.45 Z"/>
</g>
</defs>

<g transform="matrix( 1, 0, 0, 1, 0,0) ">
<use xlink:href="#Layer1_0_FILL"/>
</g>
</svg>
