
<svg xmlns="http://www.w3.org/2000/svg" version="1.1" xmlns:xlink="http://www.w3.org/1999/xlink" preserveAspectRatio="none" x="0px" y="0px" width="100px" height="100px" viewBox="0 0 100 100">
<defs>
<g id="Layer1_0_FILL">
<path fill="#363435" stroke="none" d="
M 63.9 22.45
Q 65.2 19.6 65.4 18.6
L 64 18.2
Q 63.6 18.55 62.55 19 61.6 19.4 61.25 19.85 60.55 18.85 60.45 18.7 60.1 18.25 59.15 17.75
L 58.45 17.7
Q 58.2 17.9 57.85 18.45 57.6 18.75 56.75 18.8 57.1 19.45 57.1 21.3 56.75 20.95 56.3 20.8
L 56.45 20.6
Q 56.05 20.75 56.1 20.95
L 56.2 21.4 55.75 21.4
Q 55.35 20.85 55.35 20.65 55.2 20.25 55.4 19.8 55.05 20 54.65 21.45 54.05 23.35 54 23.5 54.85 23.5 56.55 23.3 56.5 23.75 56.95 24.4 56.7 26.55 56.3 27.5
L 56.05 27.4 55.8 27.8 56.05 27.75 56.25 27.65
Q 56.2 27.7 56.2 27.8
L 56.05 27.75 55.9 28.05 56 28
Q 55.85 28.2 55.65 28.25
L 55.9 28.4 56.35 28.45
Q 56.3 28.65 56.3 28.95
L 56.15 29.15 56.3 29.15
Q 56.3 29.5 56.3 29.95 56.25 30 56.2 30.05 56.25 30.05 56.3 30.05 56.3 30.65 56.4 31.45
L 56.15 31.7 56.4 31.75 56.45 31.75
Q 56.45 31.9 56.45 32.05
L 56.4 32.1 56.45 32.1
Q 56.45 32.2 56.5 32.35 56.25 32.4 56.2 32.4 56.15 32.45 55.85 32.6
L 56.3 32.65 56.5 32.5
Q 56.65 33.5 56.85 34.75 57.065625 36.02578125 57 37.2
L 56.85 36.9 56.95 37.45
Q 56.8509765625 38.9697265625 56.25 40.3 54.5974609375 38.5947265625 54.15 38.55
L 53.7 38.4
Q 53.64453125 37.9951171875 53.6 37.6 53.5455078125 36.9744140625 53.6 35.75
L 53.65 35.65 53.6 35.55
Q 53.678515625 34.6064453125 53.8 33.35 53.9 32.05 53.8 30.95
L 54.45 30.95 54.5 30.8
Q 54.5 30.6 54.45 30.5
L 54.05 30.4 53.8 30.85
Q 53.7 30 53.45 29.35 53 28.15 53.05 27.05 53 26.05 53.5 25.45
L 53.4 25.6 53.85 25.25
Q 53.45 24.95 54.05 24.25 53.55 24.45 53.4 24.85
L 53.4 24.9
Q 53.2 24.6 53.15 24.75
L 53.05 21.2
Q 53.4 21.05 53.9 20.9
L 52.85 20.5
Q 52.65 20.35 52.3 20.05 51.95 19.75 52.1 19.4 50.95 19.35 50.55 19.3 50.15 19.2 49.65 18.95 49.7 18.7 49.85 18.55 50.2 18.35 50.4 18.15
L 50.45 18.05
Q 49.7 17.85 49.05 17.85 48.6 17.85 47.55 17.95 47 17.6 46.8 17.6 46.4 17.45 45.7 17.4
L 45.55 17.2
Q 45.1 17.5 44.5 18.55
L 43.5 18.55
Q 43.75 18.05 44.4 17.5 45.35 16.7 45.5 16.5
L 44.15 16.35 41.85 16.9
Q 41.8 18.6 41.05 21.65 40.2 25.1 40.1 25.95 40.0556640625 26.127734375 39.5 26.9
L 39.3 26.7 39.25 27.2
Q 39.0478515625 27.520703125 38.95 27.75
L 35.45 27.7
Q 35.578125 27.293359375 35.75 27.05
L 36.7 27.15
Q 37.75 25.15 37.85 22.55 37.8 19.8 38 18.45
L 36.75 18.85
Q 37.35 18.15 37.45 18.05 37.65 17.55 36.8 17.2 35.95 17 34.65 17.3 33.25 17.65 32.6 17.6 32.9 18.45 32.55 20.1 32.15 22.2 32.15 22.45
L 31.05 24.25
Q 31.4 25.65 31.4 26.15 31.367578125 26.958203125 30.9 27.5 29.8599609375 27.134765625 28.35 26.15 25.95 24.4 25.05 24.25
L 24.25 22.85 22.8 23.7 22.45 25.8
Q 22.2 26.2 21.55 26.2 20.8 26.1 20.5 26.4 20.2 25.85 20.05 25.2 20.05 24.6 19.95 23.2
L 19.65 24.1
Q 20.05 25.85 20.1 26.55 20.3 27.65 20.5 29.3 20.55 29.9 21.15 29.8 22 29.7 22.15 29.85
L 22.15 30.15 21.15 30.25
Q 22.2 34.25 23.45 35.4 24 35.8 26.15 36.2 26.55 37.3 26.9 38.2
L 26.8 38.3 27 38.6
Q 27.55 39.95 27.7 40.2
L 26.65 39.65 26.8 39.15 26.8 38.9 26.55 38.35
Q 26.25 38.85 25.85 39.25 24.7 38.75 23.3 37.2 21.1 34.75 20.35 34.25
L 20.05 35.9
Q 20.3 36.35 20.6 37.75 20.9 38.95 21.15 39.55 20.4 40.05 20.3 40.1 20 40.4 19.55 41.4
L 19.5 42.3
Q 19.6 42.6 20.05 43.2 20.3 43.5 20.25 44.5 20.65 44.35 21.55 44.6 21.5 44.8 21.45 45.05
L 21.35 44.85
Q 21.45 45.3 21.6 45.35
L 21.95 45.25 21.95 45.75
Q 21.5 46.1 21.35 46.15 21.1 46.25 20.7 46 20.85 46.35 21.95 47.05 23.4 47.95 23.5 48.05 23.5 47.1 23.4 45.25 23.75 45.4 24.1 45.6 27.25 47.1 27.5 48.4
L 27.6 48.15
Q 27.55 47.9 27.55 47.55 28.9 48.4 32.3 48.7 32.5033203125 48.7130859375 32.7 48.75 32.7388671875 48.897265625 32.75 49.05
L 33 49.05
Q 31.95 49.85 30.6 50.2 29.65 50.4 29 50.6
L 29.2 50.3 28.95 50.35 28.8 50.65
Q 28.65 50.7 28.5 50.75 28.95 50 29.2 49.05
L 25.2 49.05
Q 25.021484375 48.877734375 24.9 48.65 24.8 48.55 24.6 48.85 24.4837890625 48.9662109375 24.45 49.05
L 23.7 49.05
Q 24 49.6 24.1 50.3
L 23.7 50.65
Q 23.65 50.6 23.6 50.6
L 23.55 50.8 23.4 50.85
Q 23.35 51 23.25 51.25
L 23.25 50.8
Q 22.65 51.6 22.45 50.8
L 22.2 51.05 22.45 52.3 22.55 51.8
Q 22.65 51.65 22.8 51.7 22.8 52.05 22.8 52.2
L 22.8 52.25
Q 22.15 53.65 21.7 54.6 20.45 57.05 20.25 56.5
L 20.25 57.85
Q 20.6 57 20.95 56.7 21.5 55.95 21.3 57.3 21.35 57.35 22 56.1 22.85 54.65 23.1 54.45
L 23.1 54 22.75 54.3
Q 23.65 52 24.25 52.15 24.25 52.25 24.25 52.3 24.25 52.4 24.2 52.55
L 24.2 52.7
Q 24.1 53.3 23.9 54.4 23.8 54.75 23.65 55.15
L 23.2 60.6
Q 23.2 60.7 23.2 60.9
L 23.15 60.95
Q 23.25 61.3 23.3 61.55
L 23.55 61.8 23.55 61.55
Q 23.8404296875 62.006640625 24.3 62.65 24.6 63.05 24.75 63.4
L 24.7 63.35 24.6 63.55 24.6 63.75 24.8 63.55
Q 25 64.15 24.55 64.3
L 25.35 64.55 25.3 62.9
Q 25.4 62.7 24.9 62.3 24.65 62.05 24.55 61.85 24.6 61.8 24.7 61.8 24.85 61.8 24.85 61.2
L 24.7 61.1
Q 24.6 61.25 24.55 61.4 24.65 60.9 24.75 60.05 24.95 59.15 25.3 58.5
L 24.7 58.6 24.75 57.05
Q 25.2 57.05 25.35 57.05
L 25.35 56.95
Q 25.3 56.9 25 56.95 24.85 56.95 24.8 56.9
L 25.8 56.3
Q 26.05 55.95 25.55 54.6 25.5 54.5 25.5 54.4 25.4 53.5 25.55 52.85
L 25.65 52.95 25.6 52.65
Q 25.65 52.65 25.65 52.6 25.7 52.45 25.75 52.35
L 25.75 52.4 25.75 52.5
Q 25.95 52.15 26 52.25 26.1 52.45 26.2 52.45 26.25 51.85 26.3 51.6
L 26.6 52 26.45 52.4
Q 26.65 52.15 27 52.25 27.2 52.2 27.3 51.9 27.5 51.8 27.6 51.7
L 27.8 51.55 30.15 51.55 37.8 49.75
Q 38.55 49.85 39 49.9 39.15 50.25 39.2 50.5 38.55 52 37.5 54.4 36.65 55.4 35.6 56.65
L 35.6 57.3
Q 35.25 57.35 34.85 57.45
L 34.9 57.85
Q 35.15 57.55 35.6 57.35
L 35.7 60.3
Q 35.4 60.65 35.15 61.05
L 35.05 60.9
Q 35.1 61.05 35.1 61.2
L 35.05 61.2
Q 31 63.7 27.85 65.4
L 27.55 64.95 27.35 65.4 27.5 65.5 27.65 65.5
Q 26.8 66 25.95 66.4 25.8 66.15 25.5 65.9
L 25.25 65.9 25.3 66.75
Q 23.75 67.5 22.5 68.05 22.1 68.2 21.7 68.35
L 21.8 68.95 22.5 68.6 22.5 68.9 22.55 69.1 21.95 69.65
Q 21.75 69.55 21.4 69.2 21 68.6 20.8 68 20.7 68.15 20.45 68.3 20.1 68.4 19.85 68.1 19 69.2 18.9 70
L 18.95 70.2
Q 19.65 70.6 20 70.8 20.65 71.05 21.05 70.5
L 20.9 71.1
Q 20.95 71 21.55 70.6
L 21.55 70.85
Q 22 70 22.85 69.7
L 22.65 70 23.15 69.75 23.2 69.8 23.45 69.8 23 69.65
Q 23.25 69.5 23.45 69.45 23.75 69.3 24.05 69.3 24.15 69.95 24.2 70
L 24.2 69.25
Q 24.75 69.1 25.45 69.05
L 25.6 69.2 26.35 69.15
Q 26.25 68.95 26.25 68.65
L 28.25 67.5 28.3 67.55 28.55 67.55 28.3 67.5 31.6 65.65
Q 32.1 65.6 33.5 64.15 34.1 63.5 34.55 63.15 34.5 64 34.65 65 34.9 66.4 35.05 67.45 34.95 67.3 34.8 67.1
L 34.65 67.8
Q 34.75 67.9 34.75 67.95
L 34.9 68.35
Q 34.7 68.5 34.65 68.5
L 34.6 68.9
Q 34.75 68.85 34.8 69
L 34.85 69.7
Q 35.05 69.45 35.3 69.3 35.35 69.75 35.3 69.95
L 34.95 77
Q 34.35 78.3 34.35 78.95 34.35 80.15 35.7 80.8
L 36.4 80.8
Q 35.9 80.45 36 79.9 36.25 79.3 36.3 79.05 36.5 78.5 36.3 77 36.2 75.75 36.75 75 37.8 73.65 37.1 71.5 36.6 69.75 36.55 68.9 36.65 68.9 36.7 68.9 37.9 69.15 38.5 69.2
L 38.6 69.2
Q 39 70 39.1 70.9 39.4 74.05 39.4 74.1
L 39.6 74.1 39.85 73.9 40.3 71.3 40.05 69.15
Q 40.75 69.1 41.7 69.05 42.05 69.05 42.35 69.05 44.05 75.5 44.15 78.75
L 44.8 78.65 44.7 78 45.2 77.95 45.85 78.95 46.6 78.9
Q 45.75 78.35 45.85 77.15 45.9 76.5 46.15 75.35
L 46 74.8
Q 46.15 74.65 46.35 74.6
L 45.95 74.65 45.9 74.4 46.15 74 45.8 74.05 45.8 73.9 45.75 73.7 44.85 69.9
Q 44.9 69.75 44.8 69.6 44.85 69.6 44.9 69.6
L 46.4 69.6 46.8 69.75 47.05 69.7
Q 46.9 69.65 46.9 69.6 46.95 69.55 47.4 69.6
L 47.2 69.55 49.5 69.5
Q 51.7 72.1 52.1 72.55 53.6 74.05 54.65 74.35 56 74.75 57.15 75.15
L 57 75.15 57.15 75.3 57.55 75.25
Q 57.65 75.25 57.75 75.3
L 57.65 75.3 57.55 75.4 57.7 75.55 57.85 75.35
Q 61.25 76.3 63.2 76.7
L 66.2 75.1 69 75.05
Q 69.05 75.95 69.05 76.1 69.1 76.15 69.15 76.95
L 69.6 76.5
Q 69.65 75.8 69.65 75.75 69.65 75.55 69.75 75.2
L 69.8 75.4 69.85 76.2
Q 70.35 74.95 71.3 74.8 71.7 74.8 72.7 75.1
L 74.1 73.75
Q 74.3 73.7 75.9 73.2 77.2 72.65 77.85 72.95 77.85 72.2 78.1 70.55 78.3 68.9 78.1 67.95 77.85 66.9 77.45 67.25 77.4 67.35 76.8 68.1
L 77.15 66.65
Q 76.1 66.9 73.95 67.05 72 67.3 70.45 68.7
L 70.6 69.75
Q 70 70.5 67.6 70.65 65.3 70.75 65.15 70.25 63.4 72.05 63.25 72.1 62.9 72.25 62.35 72 61.45 71.5 61.4 71.6
L 60.65 73.15
Q 58.9 73.5 58.45 72.8 57.85 71.7 56.35 71.7 54.75 71.5 54.1 70.8 51.15 67.45 46.45 66.4 46.45 66.3 46.45 66.2 46.4 65.4 47 65.25 47.1 65.25 46.6 64.6 46.35 64.15 46.25 63.95 46.2 64.4 46.25 65 46.3 65.5 46.35 66.35 46.25 66.3 46.15 66.3 45.55 66.2 43.4 66.3 43.55 65.6 43.05 64.75 42.25 63.3 42.25 62.75
L 41.65 61.45 41.65 58.95 41.75 59 42.05 58.85 41.65 58.85 41.65 58.8 41.7 58.75 46.7 56.95 46.75 57 46.85 57 46.85 57.05 46.6 57.05 46.85 57.15
Q 46.9 57.75 46.9 58.15
L 46.65 57.9 46.65 58.15 46.85 58.3 46.85 58.35
Q 46.75 58.35 46.65 58.3
L 46.8 58.4
Q 46.8 58.45 46.8 58.5 46.75 58.65 46.7 58.85
L 46.6 58.75 46.65 59.05
Q 46.35 60.25 46.3 61.7 46.25 62.4 46.25 63.6 46.65 63 46.85 62.25 47.15 62.25 47.3 62.2 47.45 62.15 47.1 62.1
L 46.9 62.2
Q 47.3 60.7 47.05 58.8 47.35 59.75 47.8 60.15 48.45 60.55 48.75 60.8
L 48.6 59.6
Q 47.95 59.5 47.75 59.45 47.35 59.25 47.15 58.6 47.15 58.45 47.1 58.3
L 47.55 57 48.05 57.1
Q 48.4 57.1 48.7 57.15
L 48.65 57.4 48.75 57.5 49 57.55 48.95 57.5
Q 49 57.45 49.05 57.45
L 49.05 57.75 49.15 57.6 49.1 57.45
Q 50.05 57.25 50.45 56.85 50.6 56.7 50.7 56.55 51.4 57.05 53 58.55 53.2 58.65 53.35 58.8
L 53.3 58.85
Q 53.2 58.95 53.1 59.15 52.75 59.6 52.35 60
L 52.35 59.8 52.1 59.5 51.95 59.65 52.1 60.25
Q 51.7 60.55 51.5 60.45
L 51.3 61.05
Q 52.25 60.4 53.95 59.35 55.1 60.3 55.15 60.1 55.4 60.2 55.65 60.5 55.6 60.95 55.6 61.5 55.65 61.6 55.9 61.7
L 55.9 61.75
Q 56 61.75 56.1 61.8 56.3 61.85 56.35 61.95 56.4 61.95 56.4 62.05 55.8 62.3 55.6 62.8 55.3 63.55 55.2 63.65 55.15 63.7 55.9 63.95 56.65 64.15 56.5 64.4 56.5 64.45 55.9 64.75 55.45 65 55.55 65.25
L 56.25 65.2 56.35 65.15
Q 56.4 65.15 56.65 65.1 56.35 65.45 56 66.7
L 56.55 66.55
Q 56.45 66.95 55.65 67.45
L 56.3 67.6
Q 56.4 67.5 56.45 67.5 56.45 67.45 56.8 67.4 56.95 67.5 56.95 67.55 57 67.55 57.3 67.6 57.3 67.45 57.45 67.45
L 58.1 67.45
Q 57.35 66.75 57.5 65.85 57.85 64.85 57.9 64.35 57.95 64.15 58.05 62 58.8 62.5 59.6 62.75 59.4 63.25 59.25 63.8
L 59.3 62.8 59.05 63.5 59.15 63.95 59.2 63.9
Q 59.1 64.25 58.9 64.75 59.75 63.55 60.5 62.95 61.9 63.05 62.6 63.2 62.65 63.2 63.85 64.75 64 64.9 64.1 65.05 63.85 65.35 63.65 65.6
L 63.7 66.95
Q 64.25 66.9 66.75 66.3 68.5 65.8 69.45 65.9 69.6 65.95 69.65 66.1 69.9 66.35 70.45 65.6 71.25 64.65 71.35 64.65 72 64.45 74.6 63.2 77 62.05 78.3 61.9
L 78.75 59.15 78.6 57.5
Q 78.45 57.7 77.85 58.95 77.4 59.75 77 60.05
L 77 58.85
Q 77.85 58.05 78 57.5
L 77.9 57.35
Q 77.85 56.45 77.7 56.05 77.65 55.8 77.45 55.2 77.5 53.95 77.45 53.4 77.5 52.6 77.35 51.75
L 77.2 51.8
Q 77.1 52.05 76.95 52.45 76.8 52.7 76.65 52.75 76.45 52.15 76.35 51.75 76.35 51.25 76.3 49.95 76 50.1 75.7 49.7 75.45 49.25 75.35 49.05
L 72.1 49.2
Q 72.2 49.15 72.15 49.05
L 72.85 49.05
Q 72.887109375 49.0248046875 72.9 49 72.967578125 48.848046875 73 48.4 74.5716796875 48.8 75.15 48.8 75.4134765625 48.7560546875 75.95 48.6 75.9521484375 48.84609375 75.95 49.05
L 76.4 49.05
Q 76.428125 48.8548828125 76.45 48.65 76.7533203125 48.75546875 76.95 49.05
L 77.05 49.05 77.1 48.45
Q 76.926171875 48.1021484375 76.7 47.8 76.7599609375 47.713671875 76.8 47.6 77.7 44.75 77.55 43.9
L 74.95 33.75
Q 74.5 32 75.05 28.95 75.6 25.7 75.45 24.45
L 76.35 23.35 75.1 21.45 73.2 21.05
Q 72.8 20.75 72.6 19.85 72.35 18.95 72 18.65 72.4 18.2 73 18.05 73.4 17.95 74.55 17.8
L 73.75 17.5
Q 72.35 17.95 71.8 18.15 70.95 18.4 69.55 18.65 69.1 18.75 69.4 19.55 69.75 20.6 69.65 20.8
L 69.4 20.8 69 19.55
Q 66 20.9 65.5 22.65 65.25 23.4 65.6 26.1 64.55 26.9 63.9 27.4
L 63.85 27.4 63.9 27.45
Q 63.25 27.9 62.95 28.15 62.75 28.3 62.7 28.35
L 62.75 28.2 62.95 28.15 62.8 27.9 63 26.35
Q 62.9 24.7 63.9 22.45
M 47 41.55
L 47.1 41.65 47.9 44.2
Q 46.1126953125 45.2376953125 44.8 45.95 44.1494140625 44.0125 44.7 42.4 46.15 41.65 46.8 40.55
L 47.05 41.4 47 41.55
M 42.4 40.45
Q 42.4568359375 40.740234375 42.5 41.05 42.6 41.5 42.7 41.9
L 42.6 41.9 42.55 41.9
Q 42.48828125 41.9 42.45 41.9 42.4673828125 42.0396484375 42.45 42.1
L 42.4 42.3 42.8 42.4
Q 43.15 43.55 43.65 44.5
L 43.3 46.3
Q 43.5388671875 46.4291015625 43.75 46.55 42.1203125 47.46484375 41.55 47.75 41 47.9 40.55 48.2 40.1 47.7 39.85 47.55 38.75 46.9 36.25 44.7 34.766015625 43.5708984375 33.6 43.2 33.5439453125 42.925 33.5 42.55
L 33.6 42.15 33.55 42
Q 33.50859375 42.1240234375 33.45 42.2 33.4228515625 41.544921875 33.5 40.6
L 34.85 39.55
Q 34.85 39.5236328125 34.7 39.15 36.912890625 39.12421875 37.7 38.8
L 37.7 39.85
Q 38.45 40.45 39.9 41.4
L 40 40.95 38.35 39.5 38.2 39.5
Q 38.25 38.9 38.4 38.35 40 40 41.75 40.35 42.1009765625 40.4357421875 42.4 40.45
M 56.2 41.1
Q 56.22421875 41.1671875 56.25 41.2 56.5666015625 41.61171875 56.75 41.75 56.778515625 41.8251953125 56.75 41.85
L 55.2 40.95 55 41.35
Q 55.55 42.2 56.15 42.6 56.3529296875 42.739453125 56.5 42.8
L 56.5 42.8 56.25 42.7 56.45 42.9
Q 56.1603515625 43.5283203125 56 43.9 55.47578125 43.920703125 54.95 44 54.873828125 43.6453125 54.75 43.3
L 54.85 43.5 54.85 43.25 54.7 43
Q 54.6302734375 42.77890625 54.55 42.5 55.1669921875 42.47109375 55.35 42.7
L 54.85 41.9
Q 54.85 41.35 54.9 41.3 54.95 41.25 55 41.05
L 54.75 40.5 54 40.3
Q 54.0013671875 40.19375 53.95 40.05 54.8916015625 40.3326171875 55.4 40.45 55.620703125 40.48671875 55.95 40.85 55.915625 40.98515625 55.85 41.1 56.0451171875 41.1 56.2 41.1
M 54.35 41.25
Q 54.370703125 41.49921875 54.35 41.65 54.2796875 41.4134765625 54.2 41.15
L 54.35 41.25
M 60.35 44.85
Q 60.42890625 44.5365234375 60.5 44.15 60.6580078125 44.3080078125 60.8 44.45
L 60.55 43.9
Q 60.601171875 43.804296875 60.6 43.65 60.9021484375 44.0955078125 61.25 44.4
L 61.2 45.05 61.35 45 61.45 44.6 61.35 44.5
Q 61.9 44.9 62.55 45.15 63.9 45.5 64.4 46
L 64.45 45.25 64.3 44.95 60.7 43.4
Q 60.988671875 42.171484375 61.5 40.45 61.523828125 40.6630859375 61.55 40.95
L 61.7 40.1 61.6 40
Q 62.336328125 36.848828125 61.8 34.85
L 62.15 34.95
Q 62.2 35 62.3 35.15
L 62.55 35.2
Q 62.75 34.1 62.45 32.25 62.45 31.45 62.8 30.75
L 62.9 31 63.15 31 63.3 30.8
Q 63 30.65 62.85 30.6 63.15 29.95 63.8 29.35
L 64.35 29.3 64.05 32.4
Q 65.05 34.1 65.8 37.35 66.65 40.8 67.25 42.1
L 66.3 42.05
Q 66.1 43.15 65.75 45.25
L 66.15 45.35 66.9 43 66.8 42.75
Q 67.35 42.9 67.9 43 67.279296875 44.6208984375 67.15 46.3
L 66.05 46.2 66.1 46.15
Q 66.0583984375 46.170703125 66 46.2
L 64.9 46.05
Q 64.7 46 64.4 46 63.26640625 45.7060546875 60.35 44.85
M 74.8 42.95
L 75.15 42.75
Q 75.65 43.45 75.75 43.7 75.95 44.15 74.9 44.65 75.8681640625 44.69609375 75.95 47.05 75.534765625 46.824609375 75.05 46.75 74.3921875 46.6560546875 73.1 47 73.1375 46.4505859375 73.15 45.75 73.45 43.15 74.8 42.95
M 38.35 30.1
Q 38.8 29.65 39.05 29.7 39.35 29.6 39.7 30.95 39.719921875 30.4716796875 40.05 30.3 40.2958984375 30.9375 40.55 31.7 40.2 31.85 40.1 31.85 39.95 31.85 39.45 31.95 39.5 32.05 40.4 32.65 40.7654296875 32.9341796875 40.75 33.3 40.5923828125 33.2361328125 40.4 33.15 38.6 32.1 38.5 30.55
L 38.35 30.1
M 28.5 39.25
L 28.4 38.65 30.7 39.8
Q 30.8845703125 40.6724609375 31.1 41.65 30.8349609375 41.602734375 30.55 41.55 29.35 41.15 28.5 39.25
M 40.3 61.45
L 39.95 61.5
Q 40.1 61.3 40.25 61.1 40.3 61.3 40.3 61.45
M 24.05 50.75
L 24.15 50.55
Q 24.2 50.65 24.2 50.75 24.1 50.75 24.05 50.75
M 23.6 51.6
L 23.65 51.45
Q 23.85 51.5 24.05 51.45 23.9 51.65 23.65 52
L 23.6 51.6
M 22.8 51.6
Q 22.95 51.5 23.05 51.75 22.95 51.95 22.85 52.15
L 22.8 51.6
M 23.25 52.25
L 23.25 52.15 23.5 51.75
Q 23.55 51.9 23.55 52 23.6 51.95 23.6 52.05 23.35 52.3 23.05 52.65
L 23.05 52.5 23.2 52.2 23.25 52.25
M 22.85 52.8
L 22.95 52.6 22.95 52.7 23 52.7
Q 22.9 52.75 22.85 52.8
M 40.45 62.05
Q 40.35 62.05 40.3 62.05 40.25 62.05 39.85 62 40.1 62 40.4 61.9 40.45 61.95 40.45 62.05
M 40.05 63.4
Q 40.25 62.6 39.8 62.2 40.35 62.2 40.5 62.2 40.9 63.95 41.45 65.8 41.6 66.3 41.7 66.75 41.7 66.85 41.65 66.95 41.5 67.35 41.4 67.35 41 66.7 40.35 66.5 40.05 66.45 39.8 66.4
L 39.65 64.8
Q 39.95 63.8 40.05 63.4
M 37 64
L 37.25 64.15 37.6 64.05 37.05 64
Q 37.35 63.9 37.75 63.8
L 37.95 63.95 37.5 64.4 36.95 64.3
Q 37.75 65.15 37.8 66.2 37.8 66.6 37.8 66.9 37.65 66.65 37.45 66.75
L 37.5 67.5 37.55 67.6
Q 37.55 67.65 37.55 67.7
L 37.15 67.55
Q 37.35 67.7 37.5 67.85 37.15 67.65 36.4 67.55 36.15 66.5 36 65.85 35.7 64.55 37 64
M 53.5 54.6
Q 54.15 54.75 54.55 54.35
L 54.7 55.85 56.6 56.55
Q 56.2 57.3 55.9 58.15 55.85 58.25 55.85 58.35 55.75 58.85 55.65 60.05 55.1 59.6 54.4 59.05 54.5 59 54.55 58.95 54.35 58.15 53.8 58.5 52.75 57.5 51.35 56.3 51.25 56.2 51.05 56.15
L 51.1 56.1 51.05 56.1
Q 50.95 56.05 50.85 56
L 50.95 56
Q 51 55.95 51.05 55.85
L 50.55 55.95
Q 50.35 55.85 50.1 55.85
L 51.05 55.5
Q 51.95 55.55 53.5 54.6
M 58.95 57.4
L 60.7 58.05 59.65 58.75
Q 59.9 59.35 60.65 58.9 59.6 60.85 58.15 60.95 58.2 60.7 58.25 60.5 58.25 60.4 58.35 60.25
L 58.3 60.25
Q 58.5 59.65 58.8 59.15
L 58.95 57.4
M 48.15 49.9
Q 48.45 50.1 49.05 51
L 48.95 50.3 49.3 50.45
Q 49.3 50.6 49.3 50.7 48.45 52.1 47.3 53.8 47.15 54.1 47.05 54.4 47 54.5 46.9 54.6 46.85 54.65 46.75 54.7 46.7 54.55 46.35 54.4 46.25 54.3 46.1 54.25
L 46.1 55.05
Q 44.95 55.6 43.7 56.3 42.75 56.2 41.65 56.35
L 41.65 56.2
Q 41.9 56.05 42.25 55.85
L 41.65 55.95 41.65 55.85 41.75 55.65
Q 42.05 55.65 42.3 55.65 42.35 55.65 42.45 55.6 42.9 55.55 43.25 55.25 43.65 54.95 43.5 54.8 43.35 54.7 43.55 54.4 43.9 53.7 44.85 52.5 45.45 51.8 45.75 51.2 46.5 52.7 46.2 53.15
L 46.7 53.6
Q 46.45 52.45 46.1 50.5 47 50.7 47.5 51.05
L 47.2 50.05
Q 47.7 49.55 48.15 49.9
M 49.45 51.55
Q 49.6 51.8 49.8 52 50.15 52.4 50.35 52.2 50.7 51.8 51.45 52.65 49.75 53.3 47.75 54.25 48.35 53.25 49.45 51.55
M 42.05 57.15
Q 42.0013671875 57.1515625 41.95 57.2
L 42 57.15 42.05 57.15
M 48.85 57.15
Q 49 57.15 49.05 57.15 49.4 57.1 49.65 57 49.45 57.15 49.05 57.3 49 57.3 48.9 57.35
L 48.85 57.15
M 60.45 48
Q 59.7591796875 47.889453125 59.15 47.5 59.767578125 46.6783203125 60.05 46.05 60.25 46.05 60.55 46.2 60.85 46.3 61.25 46.45
L 61.55 47.05 61.4 46.5
Q 61.5 46.55 61.7 46.65
L 62.1 47.15 62.1 46.95 61.95 46.7
Q 62.4 46.85 62.95 47.15 63.75 47 66.65 48.3 66.978515625 48.4361328125 67.3 48.55 67.34609375 48.8080078125 67.4 49.05
L 71.4 49.05
Q 71.05 49.45 70.4 49.55 69.6 49.75 68.7 49.35 67.5 48.8 65.65 49.35 64.4 49.7 63.6 49.85 63.75 49.5 63.8 49.15 63.8 49.1 63.8 49.05
L 63.55 49.05
Q 62.7603515625 48.4521484375 62.1 47.6
L 62.4 48.3 62.4 48.5
Q 62.05 48.35 60.45 48
M 66.1 48.85
Q 65.9 48.9833984375 65.85 49.05
L 66.15 49.05
Q 66.1302734375 48.9408203125 66.1 48.85
M 66.3 48.55
L 66.2 48.7 66.25 49.05 66.35 49.05 66.3 48.55
M 65.45 48.85
Q 65.45 48.96015625 65.45 49.05
L 65.5 49.05 65.45 48.85
M 63.45 47.7
L 63.45 47.9 64.95 49.05 65.05 49.05 64.6 48.1 63.45 47.7
M 66 48.7
L 66.2 48.35 65.55 48.6 66 48.7
M 62.3 47.05
L 62.5 47.5 62.5 47.25 62.3 47.05
M 60.25 47.35
L 60.4 47.75 60.4 47.5 60.25 47.35
M 51.05 52.75
L 50.85 52.35 50.6 52.35 50.3 52.7 50.4 52.9 51.05 52.75
M 46.2 53.6
Q 46.2 53.8 46.15 53.95
L 46.35 54.25 46.6 54.2 46.2 53.6
M 58.85 59.85
L 58.65 60.15 58.65 60.4 58.85 59.85
M 54.9 58.25
L 54.6 58.9
Q 55.05 58.5 55.85 58.05
L 54.9 58.25
M 54.95 56.5
L 55.25 56.35 54.8 56.35 54.95 56.5
M 55.4 56.2
L 55.25 56.15
Q 55.2 56.15 55 56.1
L 55.15 56.2 55.4 56.2
M 37.3 66.15
L 37.5 66.15 37.2 66 37.3 66.15
M 37.6 66.05
L 37.5 66.15 37.4 66.3 37.4 66.6 37.6 66.05
M 37.05 66.2
L 36.85 66.3 36.6 66.9 37.05 66.2
M 41 64.9
L 40.8 64.65
Q 40.8 64.95 40.85 65.25 40.95 65.35 41 64.9
M 40.3 65.1
L 40.3 65.4 40.45 64.85 40.3 65.1
M 39.8 65.55
L 39.9 65.1 39.75 65.3 39.8 65.55
M 40 31.35
L 39.45 31.55 39.4 31.6 39.85 31.65 40 31.35
M 65.05 45.65
L 65 46 65.15 45.8 65.05 45.65
M 65.8 45.5
Q 65.7 45.85 65.7 46.05
L 66.5 45.55 65.8 45.5
M 65 42.75
L 65.2 43.3 65.2 43.05 65 42.75
M 64.55 42.6
L 64.55 42.25 64.4 42.6
Q 64.5 42.6 64.55 42.6
M 64.05 42.55
L 63.9 41.8
Q 63.85 42.25 63.9 42.3
L 64.05 42.55
M 64.05 42.3
L 64.2 42.3 64.2 42 64.1 41.8 64.05 42.3
M 63.25 41.7
L 63.1 41.4 63.25 41.95 63.25 41.7
M 63.1 36.3
Q 62.9 36.25 62.85 36.2
L 62.6 36.25 63 36.45 63.1 36.3
M 63.55 32.45
L 63.65 32.25 63.15 32.3 63.55 32.45
M 63.85 33.55
L 64.05 33.25 63.4 33.45 63.85 33.55
M 55.85 42.45
L 55.7 42.7 56.2 43.15 55.85 42.45
M 40.1 40.55
L 40.1 41.35
Q 40.35 41.55 40.5 41.6
L 40.1 40.55
M 42.25 42.5
L 42.3 42 42.1 41.65 42.25 42.5
M 41.65 41.3
L 41.65 41.75
Q 41.7 41.75 41.75 42.05
L 41.75 41.8 41.65 41.3
M 41.4 41.2
L 40.65 41.25 40.55 41.2
Q 40.7 41.7 40.95 41.85 41.15 41.95 41.35 41.75
L 41.45 41.65 41.4 41.2
M 45.1 42.2
L 45.05 42.3 45.5 42.4 46 41.95 45.1 42.2
M 45.45 43.2
L 45.5 42.8 44.75 43.15
Q 44.95 43.15 45.1 43.25
L 45.45 43.2
M 46 73.45
L 45.75 73.7 46.45 73.85 46.45 73.45 46 73.45
M 45.8 73.9
L 46.15 74 46.35 74 45.8 73.9
M 53.65 61.1
L 53.8 61.55 55.7 62 55.6 61.5 53.85 60.95 53.65 61.1
M 53.1 58.65
L 52.9 58.75 53.05 58.9 53.3 58.85 53.1 58.65
M 77.95 72.85
L 77.85 72.95 77.9 73.8 78.1 73 77.95 72.85
M 25.6 69.7
L 25.65 69.65 25.6 69.2 25.6 69.7
M 25.65 52.6
Q 25.6984375 52.6484375 25.7 52.7 25.7005859375 52.5484375 25.75 52.4
L 25.65 52.6
M 32.6 17.6
L 32.7 17.45 32.6 17.25 31.9 17.55 32.6 17.6
M 54.05 30.4
L 54.15 30.25 53.7 30.15 54.05 30.4
M 68.65 76
Q 68.7 76.35 68.75 76.5
L 68.75 75.9 68.65 76
M 72.85 76.85
L 72.85 75.35
Q 72.8 75.45 72.65 76.35
L 72.85 76.85
M 73.1 77.65
Q 73.15 77.35 73.15 77.3 73.15 77.2 73.15 76.75 73.05 77.4 73.1 77.65
M 46.1 82.65
L 46.55 82.8 46.6 82.65 46.1 82.65
M 46.25 81.3
L 46.3 81.55
Q 46.25 81.4 46.1 81.35 45.95 81.25 45.5 81.3 45.75 81.5 45.9 81.85 46.05 82.25 45.75 82.3
L 46.4 82.5 47.2 82.35
Q 48 82.2 47.65 81.8 47.3 81.45 46.25 81.3
M 45.85 80.95
L 46.55 80.9 46.4 80.55 45.65 80.8 45.85 80.95
M 41.85 81.1
L 41.05 80.85 41.65 81.1 41.85 81.1
M 42.4 77.55
Q 42.7 77.6 42.75 77.6 42.8 77.65 43.15 77.7
L 42.3 76.85 42.4 77.55
M 40.55 80.4
L 40.8 80.4 40.35 80.25 40.55 80.4
M 42.65 77.7
Q 43.05 78.1 42.55 78.25 42.45 78.2 42.35 78.1 42.3 78.1 41.95 78.15 42.6 78.65 41.8 78.65 42.2 78.9 42.55 79.05 42.9 79.15 43.5 79.2 43.7 77.85 42.65 77.7
M 40.8 76.2
L 41.2 76.05 40.25 76.15 40.8 76.2
M 41 74.65
L 40.85 74.55 40.45 74.6 41 74.65
M 40.8 75.35
L 41 75.3 40.3 75.3 40.8 75.35
M 49.6 75.9
L 49.7 75.85 49.1 75.9
Q 49.55 75.95 49.6 75.9
M 49.35 77.2
L 49.1 77.2 48.45 77.5 48.55 77.55
Q 48.9 77.5 49.1 77.45
L 49.35 77.2
M 49 76.9
L 49.1 77 48.55 77.15
Q 48.8 77.15 49 77.15 49.15 77.15 49.4 77.05
L 49 76.9
M 48.9 76.45
Q 49 76.5 49.2 76.55 49.25 76.6 48.65 76.6
L 49.3 76.75 49.55 76.75 49.45 76.45 48.9 76.45
M 48.85 76.2
Q 49 76.25 49.1 76.3 49.25 76.35 49.6 76.4 49.6 76.35 49.55 76.15 49.55 76.05 48.95 76.05
L 48.85 76.2
M 49.85 75.3
L 49.4 75.35 49.2 75.4
Q 49.7 75.45 49.75 75.45 49.75 75.4 49.85 75.3
M 56.6 82.2
L 56.45 82.5 57.1 82.65 56.6 82.2
M 53.15 80.5
L 53.5 81.55 53.6 81.65 53.95 81.55 53.15 80.5
M 52.85 78.65
L 53.1 78.8 53.5 78.75 52.85 78.65
M 52.95 78.4
Q 52.85 78.35 52.7 78.35
L 53.2 78.5
Q 53.05 78.4 52.95 78.4
M 53.1 80
L 53.1 80.25 53.65 80.5 53.1 80
M 52.95 79.35
L 53.15 79.5 53.4 79.5 52.95 79.35
M 52.25 80.1
L 51.5 80.15 52.25 80.15 52.25 80.1
M 52.3 76
Q 52.2 75.9 52.15 75.8 52.05 75.75 51.75 75.75
L 52.3 76
M 51.25 76.95
L 51.1 77 51.7 77.15
Q 51.85 77.1 52.05 77.05
L 51.5 76.95 51.25 76.95
M 51.2 76.05
L 51.05 76.15 51.2 76.25 51.4 76.25 51.2 76.05
M 51.5 75.15
L 51.75 75.3 51.95 75.3 51.5 75.15
M 51.25 74.3
L 51.5 74.3 51.05 74.15 51.25 74.3
M 51.3 74.35
L 51.15 74.45 51.6 74.65 51.3 74.35
M 56.95 78.45
Q 57.15 78.7 56.45 79.2 55.85 79.6 55.2 79.8 55.4 79.85 55.5 80.05 55.6 80.4 55.25 80.6 56.25 81.4 57.05 81.5
L 57.25 81.5
Q 57.7 80.85 57.9 80.5 58.25 79.9 57.7 79.55
L 58.3 79.65
Q 58.2 79.6 57.8 79.05 57.4 78.55 56.95 78.45
M 57.15 77.6
L 56.95 77.85 57.4 78.05 57.15 77.6
M 57.55 75.85
L 57.8 75.85 57.4 75.7 57.55 75.85
M 57.45 76.55
L 57.5 76.45 57.1 76.5 57.2 76.6 57.45 76.55
M 57.8 76.05
Q 57.65 75.95 57.75 75.95
L 57.4 75.9 57.5 76.05 57.8 76.05
M 57.75 76.4
L 57.6 76.3 57 76.4 57.75 76.4
M 56.6 76.7
L 56.3 76.9
Q 57.45 76.8 57.5 76.65
L 56.6 76.7
M 57.3 75.45
L 57.25 75.35 56.75 75.45 57.3 75.45
M 57.95 72
L 57.55 71.85 57.75 72 57.95 72
M 57.65 71.7
L 57.4 71.75 57.5 71.8 57.95 71.7
Q 57.7 71.7 57.65 71.7
M 57.5 70.75
L 57.45 70.9 57.95 71.15 57.5 70.75
M 56.45 69.35
L 56.65 69.35 57.25 69.3
Q 57 69.9 56.3 70.35
L 56.8 70.55 57.3 70.4 57.65 70.45
Q 57.6 70.5 57.55 70.6
L 57.95 70.65
Q 58 70.1 58 69.8 58.05 69.15 57.1 68.9 57.1 69.05 56.85 69.15 56.5 69.3 56.45 69.35
M 56.45 68.15
Q 56.8 68.3 56.85 68.3 56.9 68.3 57.45 68.35
L 57 67.95 57.1 68.1 56.45 68.15
M 57.25 68.75
L 57.55 68.65 57 68.6 57.25 68.75
M 50.95 73.05
L 50.85 72.85 50.6 72.95 50.7 73.05 50.95 73.05
M 51.25 73.75
L 50.85 73.6 51.05 73.75 51.25 73.75
M 51.2 66.55
L 51.25 65.95 51.05 66.15 51.2 66.55
M 55.55 67.6
L 55.65 67.7 55.75 67.65
Q 55.7 67.65 55.55 67.6
M 59.45 66.65
L 59.55 65.7 59.1 66.55 59.2 66.95 59.45 66.65
M 58.45 63.65
L 58.45 64.05
Q 58.55 64.2 58.55 64.5
L 58.8 63.6 58.45 63.65
M 50.35 73
L 50.5 73.15 50.75 73.15 50.35 73
M 50.25 72.9
Q 50.5 72.85 50.55 72.85
L 50.6 72.8 50.15 72.85 50.25 72.9
M 50.4 72.65
L 50.6 72.8 50.8 72.8 50.4 72.65
M 46 73.05
L 46.15 73.2 46.65 73 46.05 72.9
Q 46.05 73 46 73.05
M 46.35 71.6
L 46.55 71.85 46.85 71.8
Q 46.85 71.75 46.6 71.7 47.1 71.6 47 71.45 47 71.35 46.3 71.25
L 46.35 71.6
M 46.95 72.15
L 46.9 72.15 46.25 72.2
Q 46.55 72.45 46.55 72.5 46.6 72.65 46.1 72.75
L 46.25 72.85 46.5 72.85 47.25 72.7
Q 46.55 72.5 46.95 72.15
M 46.9 72.15
L 46.95 72 46.35 71.9 46.3 72.05 46.45 72.15 46.9 72.15
M 47.05 70.5
Q 47 69.85 46.35 69.75
L 46.35 71.05
Q 46.55 71.1 46.65 71.15
L 47.05 71.2
Q 47.1 70.8 47.05 70.5
M 50.15 71.15
Q 50.1 71.15 49.75 71.1
L 50.25 71.3
Q 50.15 71.25 50.15 71.15
M 50.05 70.7
L 49.6 70.55 49.8 70.7 50.05 70.7
M 49.75 70.4
L 50.25 70.6
Q 50.05 70.45 50 70.4
L 49.75 70.4
M 49.35 69.8
Q 49.35 69.9 49.3 69.95 49.4 69.9 49.6 69.9 49.7 69.85 49.35 69.8
M 43.9 63.65
L 43.95 63.95 44.35 63.35 44.1 63.45 43.9 63.65
M 43.65 64.15
L 43.8 63.6 43.6 63.85 43.65 64.15
M 45.35 63.6
Q 45.5 63.45 45.55 63.35 45.6 63.2 45.65 62.9
L 45.5 63.3 45.35 63.6
M 45.4 63.1
L 45.25 63.3 45.25 63.55 45.5 63.3 45.4 63.1
M 45.15 63
L 44.7 63.2 44.5 63.8 45.15 63
M 49.35 65.4
L 49.5 65.1 49.45 64.65 49.35 65.4
M 50 67
L 49.75 67.2
Q 50.05 67.15 50.15 67.15 50.3 67.05 50.2 66.95
L 50 67
M 48.25 65.05
L 48.45 65.35 48.45 64.85 48.25 65.05
M 48.75 65.35
Q 48.75 65.25 48.8 65.1
L 48.65 65.25 48.65 65.5 48.75 65.35
M 49.05 65.6
L 49.05 65.1 48.85 65.2
Q 48.95 65.5 49 65.5
L 49.05 65.6
M 50 65.95
L 50.45 66.15 50.2 65.9 50 65.95
M 50.05 66.2
L 50.2 66.35 50.45 66.35 50.05 66.2
M 49.8 65.3
L 49.7 65.5 49.7 65.7 49.75 65.6
Q 49.75 65.5 49.8 65.3
M 50.35 65.4
L 50.55 65.35
Q 50.6 65.3 50.4 65.25
L 50.25 65.3 50.35 65.4
M 47.3 65.05
L 47.55 65.05 47.15 64.9 47.3 65.05
M 47.55 65.7
L 47.1 65.35 47.1 65.55 47.55 65.7
M 47.4 64.3
Q 47.35 64.25 47 64.25
L 47.5 64.5
Q 47.4 64.35 47.4 64.3
M 47.45 64.65
L 47.05 64.5 47.25 64.65 47.45 64.65
M 47.4 63.75
L 46.95 63.6 47.15 63.75 47.4 63.75
M 46.85 63.5
Q 47.2 63.55 47.4 63.5 47.55 63.45 47.2 63.4
L 46.85 63.5
M 46.15 62.65
L 45.9 62.8 45.75 63.05 45.85 63.15 46.15 62.65
M 47.35 63.1
L 46.9 62.95 47.1 63.1 47.35 63.1
M 47.25 62.3
L 47.15 62.6 46.9 62.5 47.05 62.65 47.1 62.65 47.05 62.85 47.3 62.75 47.3 62.65 47.25 62.3
M 47.9 61.9
L 47.7 62.55 48.15 61.75 47.9 61.9
M 47.6 62.3
L 47.5 62.2 47.3 62.4 47.35 62.65 47.6 62.3
M 50.3 64.3
L 50.45 64.4 50.7 64.4
Q 50.55 64.35 50.65 64.35
L 50.3 64.3
M 50.2 63.8
L 50.3 63.9 50.7 63.85 50.2 63.8
M 49.9 64.55
L 49.7 64.9 49.7 65.15 49.9 64.55
M 48.25 64
L 48.45 64.15 49 64 48.25 64
M 50.3 62.2
L 50 62.35
Q 50.4 62.4 50.55 62.3 50.7 62.25 50.3 62.2
M 50.15 62.05
L 50.3 62.2 50.65 62.05 50.15 62.05
M 49.55 61.05
L 49.3 61.65
Q 49.55 61.45 50.15 61.55 50.6 61.45 50.8 60.6
L 49.55 61.05
M 48.65 61.4
L 48.35 61.7 48.35 62 48.55 62.1 49.3 61.1 48.65 61.4
M 49 59.95
L 48.85 60.15 48.95 60.6
Q 49 60.6 49.05 60.7
L 49.05 60.4 49 59.95
M 48.9 59.3
Q 49.2 59.3 49.3 59.3 49.4 59.25 49.5 59.2
L 48.9 59.3
M 44.85 59.45
L 44.7 58.85
Q 44.7 59.1 44.7 59.25 44.7 59.35 44.85 59.45
M 42.35 61.25
L 42.2 60.9
Q 42.1 61.25 42.2 61.45 42.3 61.6 42.35 61.25
M 53.4 60.55
Q 53.45 60.9 53.45 60.95 53.45 61.1 53.65 61.15
L 53.4 60.55
M 52.75 60.2
Q 52.7 60.65 52.95 60.85 53.2 60.95 53.25 61
L 52.75 60.2
M 51.05 61.3
Q 51.2 61.25 50.85 61.2
L 50.55 61.3
Q 50.9 61.35 51.05 61.3
M 50.8 60.9
L 50.8 61.15 51.25 60.5
Q 51.1 60.55 51 60.55
L 50.8 60.9
M 50.8 58.5
L 50.7 58.6 50.1 57.95
Q 50.15 58.5 50.35 58.85 50.65 59.2 50.8 58.5
M 79.75 74.2
Q 79.75 74.05 79.65 73.85
L 79.4 74.4 79.5 74.55
Q 79.55 74.45 79.7 74.3 79.8 74.25 79.75 74.2
M 79.35 73.85
L 78.95 73.55 78.9 73.75 78.9 74.25 79.35 73.85
M 78.2 74.05
L 78.4 73.6 78.25 73.15 78.1 73.3 78.2 74.05
M 73.45 66
Q 73.55 65.65 73.6 65.6 73.65 65.55 73.7 64.9
L 73.3 65.55
Q 73.35 65.7 73.45 66
M 73.05 64.95
L 72.95 65.05 73 65.2
Q 73 65.05 73.05 64.95
M 65.55 70.05
L 65.5 69.55 65.45 70.15 65.55 70.05
M 62.45 65.05
Q 62.75 65.05 62.95 64.9
L 62.85 64.35 62.2 64.45
Q 62.15 64.95 62.45 65.05
M 78.6 61.1
Q 78.5 61.4 78.45 61.35 78.45 61.4 78.5 62 78.5 62.25 78.55 62.3 78.6 62.3 78.7 62.4
L 78.6 61.1
M 78.1 57.15
L 78 56.35 78 57.2 78.1 57.15
M 26.8 82.4
L 26.3 82.4 26.4 82.5
Q 26.65 82.45 26.8 82.4
M 28.6 82.7
Q 28.2 82.75 28.15 82.75 28.1 82.75 27.65 82.75 28 82.95 28.45 83.05 28.9 83.15 29.7 83.2 29.85 83.1 29.95 83.1 30.2 83.15 30.55 83.1
L 28.6 82.7
M 30.25 81.4
L 30.2 81.35 29.3 81.35
Q 29.509375 81.3546875 29.6 81.4 29.7 81.4 30.25 81.4
M 24.25 81.65
L 25.05 82.15 25.55 82.15
Q 24.85 81.75 24.25 81.65
M 21.15 77.4
L 21 77.65 21 77.9 21.15 77.4
M 21.8 77.35
L 21.8 77.75 21.9 77.1 21.8 77.35
M 22.2 77.1
Q 22.2 77.05 22.2 77
L 22.05 77.45
Q 22.2 77.2 22.2 77.1
M 25.05 74.95
L 24.85 75.6
Q 24.95 75.4 25.05 75.4 25.05 75.3 25.05 74.95
M 25.05 77.1
L 24.9 77.2 25 77.25
Q 25.15 77.25 25.25 77.2
L 25.05 77.1
M 26.9 80.25
L 27.05 80.35
Q 27.05 80.45 26.7 80.5 27.3 80.8 27.7 80.95 28.6 81.2 29.85 81.25 29.2 81.1 28.5 80.7 27.8 80.3 27 80.1
L 26.9 80.25
M 27.25 75.9
L 27.45 75.9 27.05 75.75 27.25 75.9
M 25.75 74.55
L 25.6 74.75 25.6 74.95 25.75 74.55
M 27.5 75.75
Q 27.4 75.7 27.35 75.6 27.25 75.6 26.9 75.65
L 27.5 75.75
M 26.75 74.5
L 27.05 74.75 27.45 74.7
Q 27.4 74.7 27.15 74.6 27.1 74.55 26.75 74.5
M 26.7 74.25
L 26.75 74.3
Q 26.95 74.25 27 74.25 27.05 74.25 27.1 74.2
L 26.7 74.25
M 28.55 75.4
L 28.05 75.75 28.85 76.05 29.2 75.9 28.55 75.4
M 28.8 75.2
L 28.55 75.15
Q 28.5 75.15 28.2 75.1
L 28.5 75.3 28.85 75.25 28.8 75.2
M 28.8 74.8
Q 28.7 74.75 28.7 74.65 28.65 74.65 28.3 74.6
L 28.8 74.8
M 28.85 74.95
Q 29 74.9 28.65 74.85
L 28.3 75
Q 28.65 75.05 28.85 74.95
M 30.1 74.85
L 30.2 74.95 30.3 74.9
Q 30.25 74.9 30.1 74.85
M 36.65 82.3
L 36.25 82.25 37.55 83.15 37.8 83.15
Q 37.65 83 37.45 82.65 37.25 82.45 36.9 82.4 36.75 82.35 36.65 82.3
M 35.45 80.85
L 35.65 81 36 80.9 35.45 80.85
M 38.7 82.5
L 39.2 82.5
Q 39.2 82.35 38.95 82.1 38.75 81.75 38.6 81.85 38.85 82.1 38.3 82.2
L 37.6 81.6 37 81.7
Q 37.5 81.8 37.6 81.9 37.75 82 37.15 82.05 37.55 82.15 37.75 82.3 37.95 82.45 38.3 82.6 38.65 82.55 38.7 82.5
M 38.1 82.65
L 38 82.7
Q 37.95 82.7 37.75 82.7 38.05 82.75 38.2 82.75 38.25 82.8 38.5 82.75
L 38.95 82.7
Q 38.65 82.65 38.1 82.65
M 31.95 82.85
L 32.35 82.8 30.1 82.55 31.2 82.85 31.95 82.85
M 31.4 82.3
Q 31.35 82.2 30.5 82.2 30.45 82.25 30.55 82.25 30.6 82.3 30.35 82.3 30.7 82.45 30.95 82.5 31.15 82.5 31.85 82.55 31.8 82.55 31.4 82.3
M 34.1 80.05
Q 34.25 80.2 34.2 80.25 34.1 80.35 33.45 80.4
L 33.55 80.5 34.2 80.4 35.35 80.95 34.1 80.05
M 34.2 79.85
Q 34.1 79.75 34 79.65 33.9 79.55 33.6 79.55
L 34.2 79.85
M 33.15 80.35
L 33.8 80.25
Q 33.2 80.1 32.85 80.1 32.85 80.15 32.95 80.15
L 32.75 80.2 33.15 80.35
M 30.65 75.9
L 30.7 75.35
Q 30.3 75.4 30.3 75.5 30.3 75.65 30.15 75.7
L 30.65 75.9
M 31.85 77.25
L 31.8 77.2 31.1 77.2 31.85 77.25
M 30.45 76.15
L 30.75 76 30.25 75.95 30.45 76.15
M 31.05 77.25
L 30.6 77.3 30.8 77.6
Q 28.65 76.6 29.4 76.1 28.85 76.1 28.75 76.1
L 28.35 76.05 28.1 76.05
Q 28.9 76.6 29.45 77.55
L 27.3 75.95 27.75 76.95
Q 29.65 77.95 30.7 78.55 32.65 79.75 32.05 79.9
L 33.3 79.9
Q 32.7 79.55 32.45 79.25 31.95 78.75 33.2 79 33.3 78.95 32.3 78.25 31.2 77.45 31.05 77.25
M 30.95 76.35
L 30.9 76.3 30.35 76.25
Q 30.55 76.3 30.6 76.35 30.65 76.35 30.95 76.35
M 30.8 77.05
Q 31 76.95 30.95 76.85 30.9 76.7 30.55 76.6
L 30.35 76.85 30.8 77.05
M 40.15 79.6
L 40.25 79.75 40.5 79.7 40.6 79.55 40.15 79.6
M 39.45 79.45
L 40.25 79.5 40 79.25
Q 39.75 79.05 39.35 79.15 40 79.3 39.45 79.45
M 39.8 77.65
L 40.4 77.7 40.5 77.65 39.8 77.65
M 39.25 77.8
Q 39.25 77.65 39.5 77.6 39.85 77.55 40.05 77.45
L 38.6 77.45
Q 39.35 77.95 38.5 78.15
L 38.7 78.35 39.95 78.15
Q 39.5 78.05 39.45 78.05 39.35 78 39.35 77.85 39.7 77.85 39.85 77.85 39.9 77.85 40.2 77.8
L 39.25 77.8
M 37.55 79.35
Q 37.4 79.2 36.85 79.1 36.7 79.8 37.7 80.6 38.85 81.6 40.85 81.65
L 40.4 81.35 40.9 81.35 42.05 81.5
Q 40.95 81 40.55 80.75 39.9 80.35 40.15 80.05
L 39.35 80.2
Q 39.15 80 39.2 79.85 39.3 79.75 39.7 79.65 38.8 79.45 39.05 79.25 39.2 79.05 40.25 78.65 39.7 78.7 39.65 78.7 39.55 78.65 39.2 78.55 39.5 78.55 39.6 78.55 39.65 78.55 39.7 78.4
L 38.55 78.45
Q 38.75 78.6 38.9 78.65 39 78.7 39.45 78.8 38.65 78.85 38.55 79 38.4 79.05 38.6 79.3 38.35 79.3 38.3 79.25 38.25 79.25 38 79.25
L 38 79.65
Q 37.7 79.55 37.55 79.35
M 37.65 74.95
L 37.8 75.1 38.1 75.05 37.65 74.95
M 40 76.3
L 39.8 76.4 40.5 76.55 41 76.5
Q 40.6 76.4 40.55 76.4
L 40.75 76.35 40 76.3
M 39.6 75.35
Q 39.7 75.2 39.6 75.1
L 40.6 75.15
Q 40.3 75 40.4 74.95 40.65 74.9 40.6 74.75 39.45 74.75 39.75 74.4 38.4 74.65 38.65 75.65 38.9 76.8 38.45 77.05
L 39 77.3 39.15 77.25
Q 39.65 77.2 39.75 77.15 39.9 77.15 40.05 77.05
L 39.25 77.1
Q 39.4 76.9 39.35 76.65 39.25 76.2 39.25 76.1 40.15 76.15 40.4 76.1 40.65 76.05 40.65 75.85
L 40.45 75.85 40.55 75.95 40 76.1 39.5 76.05
Q 39.55 75.95 40.1 75.75 40.45 75.6 40.3 75.5
L 40.05 75.5 39.7 75.6
Q 39.55 75.45 39.6 75.35
M 19.9 78.05
L 18.75 78.7 18.7 78.85 18.75 79.15 19.9 78.05
M 20.15 77.9
L 19.9 78.5 20.45 77.75 20.15 77.9
M 17.65 70.2
L 18.1 69.65 17.85 69.55 17.65 70.2
M 19.4 65.95
L 19.15 66.6 19.15 66.85 19.4 65.95
M 19.8 65.25
L 19.85 65.5 20 65.05 19.8 65.25
M 17.25 63.8
Q 17.3 63.85 17.3 64.1
L 17.35 64.55
Q 17.4 64.2 17.4 63.7
L 17.4 63.6
Q 17.4 63.55 17.35 63.4 17.3 63.7 17.25 63.8
M 17.4 63.05
Q 17.65 62.75 17.65 62.35 17.7 62.2 17.7 62.05
L 17.75 61.65 16.85 63.35 16.85 63.6
Q 17.05 63.4 17.4 63.05
M 17.85 63.75
L 18.5 62.8 18.3 62.25
Q 18.35 62.75 18.25 62.9 18.1 63.1 18.05 62.55 17.9 62.95 17.8 63.25 17.65 63.45 17.45 63.8 17.55 64.1 17.55 64.15
L 17.55 64.65
Q 17.75 64.6 18.05 64.35 18.35 63.95 18.3 63.85 18.05 64.25 17.85 63.75
M 17.85 59.45
L 17.95 60.3
Q 18.1 61 18.5 60.65 18.95 60.2 19.05 59.1
L 18.8 59.25
Q 18.95 59.15 19 59 19.15 58.8 19.05 58.4 18.85 58.7 18.5 58.9 18.05 59.05 17.95 58.75
L 17.85 59.45
M 17.65 59.65
L 17.65 59.15 17.45 59.65 17.65 59.65
M 19.75 58.1
L 19.65 58.25 19.7 58.6 19.7 58.8 19.6 58.45 19.4 58.7 19.5 59.35 19.15 60.3 19.75 59.25 19.85 59.2 19.8 59.1 20 58.8
Q 19.95 58.85 19.9 58.85 19.8 58.7 19.75 58.1
M 19.9 57.35
L 19.8 57.8 19.85 58.45
Q 20.05 57.7 20.05 57.4
L 20 57.5 19.9 57.35
M 18.6 55.3
L 18.65 55.2 18.7 54.2
Q 18.65 54.55 18.6 54.65 18.6 54.75 18.6 55.3
M 40 74.2
L 39.3 74.2
Q 39.55 74.25 39.6 74.25 39.95 74.2 40 74.2
M 37.6 71.1
L 37.45 71.15 38 71.2 38.2 71.2 37.6 71.1
M 32.9 69.65
L 32.9 69.9 33.05 69.4 32.9 69.65
M 31.75 70.65
Q 31.8 70.7 31.85 70.3 31.7 70.35 31.6 70.35 31.7 70.4 31.75 70.65
M 30.95 70.9
L 30.8 71.15 30.8 71.35 30.95 70.9
M 30.9 69.45
L 30.75 69.4 30.45 69.9 30.9 69.45
M 32.75 68.55
Q 32.65 68.2 32.5 68.15
L 32.65 69
Q 31.9 68.8 31.4 68.15
L 31.15 68.65 31.4 69.2 31.3 69.5
Q 31.2 69.5 31.15 69.45 31.1 69.45 31.05 69.85 31.65 69.9 32.05 69.85 32.8 69.8 33.05 68.8 32.9 68.8 32.75 68.55
M 33.8 68.5
Q 33.8 68.55 33.75 69.1
L 34.2 68.55 34 68.7 34 68
Q 33.8 68.4 33.8 68.5
M 33.2 68.95
L 33.4 69.2 33.4 68.65 33.2 68.95
M 34.55 67.25
Q 34.6 67.2 34.6 67.05
L 34.5 67.15 34.55 67.25
M 29.85 72.9
L 29.6 73 30.15 73.3 29.85 72.9
M 29.65 73.3
L 29.8 74 30.35 74.25
Q 30.2 74.05 30.4 73.75 30.45 73.45 29.65 73.3
M 28.3 74
L 28.4 74.05
Q 28.5 74.05 28.5 74 28.45 74 28.3 74
M 28.15 73.25
L 28.35 73.4 28.6 73.4 28.15 73.25
M 28.2 72.75
L 28.1 72.9 28.1 73.15 28.35 72.95 28.2 72.75
M 28.55 72.45
L 28.4 72.7 28.4 72.9 28.55 72.45
M 29.95 72.7
Q 29.9 72.65 29.55 72.6
L 30.05 72.85
Q 29.95 72.75 29.95 72.7
M 30.3 71.65
Q 30.3 71.55 30.35 71.2
L 30.1 71.85
Q 30.2 71.65 30.3 71.65
M 29.35 72
L 29.5 72.15 29.75 72.15 29.35 71.8 29.35 72
M 26.65 74
L 26.55 73.85 26.35 74.4 26.65 74
M 26.7 74.15
L 26.85 73.65 26.7 73.95 26.7 74.15
M 27 72.95
L 26.75 72.75 26.45 72.85 27 72.95
M 27.5 73.25
L 27.3 73.5 27.35 73.7 27.5 73.25
M 26.75 72.3
L 26.7 72.05 26.35 72.2 26.5 72.3 26.75 72.3
M 26.7 69.95
L 26.6 69.8
Q 26.6 69.75 26.6 69.35
L 26.55 69.95 26.7 70.2 26.7 69.95
M 25.75 70.3
L 25.7 70.05 25.6 69.9 25.5 70.1 25.75 70.3
M 25.9 69.35
L 25.75 69.55 25.85 70.2 25.9 70.35 26.2 69.95
Q 26.2 69.75 26.15 69.75
L 26.15 69.7 26.2 69.65 26.15 69.65
Q 26.15 69.55 26.15 69.35 26.05 69.45 25.95 69.7
L 25.9 69.35
M 29.5 69.8
L 29.5 70 29.65 69.55 29.5 69.8
M 28.05 70.2
L 28.05 69.95
Q 27.85 69.9 27.45 70.05 27.2 70 27 69.35 26.95 69.65 26.7 70.4
L 27 70.1 28.05 70.2
M 28.7 69.7
L 28.55 69.9 28.55 70.15 28.7 69.7
M 29 70.75
L 29 71.15 29.6 71.45 29.25 70.75 29 70.75
M 28.8 70.4
L 28.95 70.55 29.2 70.55 28.8 70.4
M 29.1 70.15
Q 29 70.1 28.7 70.1
L 29.25 70.35
Q 29.15 70.3 29.1 70.15
M 28.35 68.4
L 28.3 69.4 29.15 69.85 28.55 68.35 28.35 68.4
M 29.8 69.4
L 29.7 69.5 29.85 69.95 29.85 69.65 29.8 69.4
M 24.45 70.25
L 24.6 70.1 24.45 69.45 24.45 70.25
M 24.25 69.7
L 24.35 69.95
Q 24.3984375 69.95 24.4 70
L 24.4 69.6 24.25 69.7
M 25.25 69.8
L 25.05 70 25.1 70.25 25.25 69.8
M 25.05 70.2
L 25.05 70 25.05 69.85 24.9 70 24.95 70.25
Q 25 70.1 25.05 70.2
M 23.75 65.7
L 23 66.1
Q 22.85 66.35 22.85 66.45 22.85 66.5 22.8 66.85
L 23.75 65.7
M 20.35 65.05
L 20.4 65 20.35 64.3 20.35 65.05
M 22.1 66.1
Q 22.2 65.9 21.95 65.65 21.7 65.35 21.8 65.25
L 21.1 65.25 21.5 66.2
Q 21.55 66.2 21.6 66.2 21.45 66.5 21.35 66.8 21.25 67.1 21.15 67.8 22.65 67.5 22.8 66.4 22.6 66.65 22.45 66.7 22.35 66.65 22.25 66.65 22.25 66.6 22.2 66.5 22.3 66.4 22.35 66.25 22.4 66.15 22.3 65.8 22.2 66 22.1 66.1 21.85 66.4 21.8 66.2 21.9 66.2 21.95 66.2 22 66.15 22.1 66.1
M 21.2 64.6
Q 21 64.65 20.9 64.8 20.9 65 20.8 65
L 21.2 65.15 21.75 65 21.2 64.6
M 20.95 62.85
Q 21 62.85 21.4 62.9
L 20.7 62.75 20.95 62.85
M 20.65 63.3
L 20.75 63.35
Q 20.95 63.35 21.1 63.3
L 20.65 63.3
M 20.65 62.35
Q 20.65 62.45 20.6 62.5
L 21.15 62.65 20.65 62.35
M 23.8 63.5
L 23.6 64.15
Q 23.7 64.3 23.75 64.5
L 23.9 63.9 23.8 63.5
M 25.5 65.7
Q 25.45 65.6 25.45 65.5 25.4 65.5 24.95 65.4
L 24.7 65.65 25.05 65.75 25.5 65.7
M 25.55 65.35
L 25.7 65.25
Q 25.55 65.15 25.55 65.1
L 25.65 65
Q 25.45 65.05 24.9 65.15
L 25.1 65.35 25.55 65.35
M 26.3 66.1
Q 26.15 66 26.05 65.9 25.95 65.8 25.6 65.75
L 26.3 66.1
M 27.1 63.6
Q 27 63.5 27 63.45 26.95 63.4 26.6 63.4
L 27.1 63.6
M 26.9 64.85
Q 27.25 64.85 27.3 64.85 27.4 64.85 27.8 64.9
L 27.25 64.75 26.8 64.75 26.9 64.85
M 26.1 64.15
L 26.3 64.3
Q 26.85 64.3 27.05 64.3 27.1 64.35 27.45 64.25
L 27.3 64.15 26.1 64.15
M 26.15 63.8
L 26.2 63.85
Q 26.296875 63.8015625 26.35 63.8 26.2958984375 63.8 26.15 63.8
M 26.45 63.05
L 26.55 63.15 27.05 63.15 26.3 62.35 26.45 63.05
M 26.5 61.9
L 26.2 62.05 26.75 62.3 26.5 61.9
M 27.65 62.65
L 27.2 62.5 27.45 62.65 27.65 62.65
M 28.55 62.5
L 28.5 62.05 28.35 62.15
Q 28.45 62.35 28.45 62.4
L 28.55 62.5
M 28.1 62.7
L 28.3 62.25 28.1 62.45 28.1 62.7
M 27.15 61.05
L 27.35 61.2 27.55 61.2 27.15 61.05
M 25.55 61.35
Q 25.55 61.3 25.5 61.3
L 25.05 61.45 25.45 63.05 25.6 63.15
Q 26.5 62.95 26.25 62.25 26.1 61.8 25.55 61.35
M 26.45 59.85
L 26 59.9 26.6 59.95 26.45 59.85
M 26.2 60.05
L 26.45 60.2 26.65 60.2 26.2 60.05
M 26.2 59.4
L 26.25 59.55
Q 26.2 59.6 26 59.65
L 26.4 59.8 26.65 59.8 26.2 59.4
M 26.65 59.4
Q 26.65 59.3 26.65 59.2 26.6 59.1 26.25 59.05
L 26.15 59.15 26.4 59.4 26.65 59.4
M 27.75 57.75
L 27.45 57.6 27.3 58.3 27.75 58.25 27.75 57.75
M 26.35 58.55
L 26.2 58.65 26.65 58.85 26.35 58.55
M 26.3 57.3
L 26.4 57.4 27 57.3 26.35 57.15 26.3 57.3
M 27.1 58.05
L 27.1 58.25 27.25 57.6 27.1 58.05
M 26.5 57.55
L 26.35 57.5 26.35 57.4 25.6 57.3
Q 25.5 57.5 25.55 57.65 25.65 57.8 25.65 58 25.8 57.75 26.05 57.9 26.2 57.9 26.25 58
L 26.15 58.4 26.25 58.5
Q 26.9 58.3 26.55 57.9
L 26.4 57.9 26.35 57.55 26.4 57.6 26.45 57.6 26.45 57.8 27.1 58.05 27.1 57.55 26.6 57.4 26.5 57.55
M 26.8 57.1
L 26.8 56.2
Q 26.7 56.75 26.35 56.95
L 26.8 57.1
M 29.55 57.95
L 29.35 57.9 29.25 58.1 29.25 58.6 29.4 58.6 29.55 57.95
M 30.3 57.8
L 29.85 57.85 29.6 58.15
Q 29.65 58.4 29.65 58.45
L 29.8 58.15
Q 29.85 58.6 30 58.6 30.15 58.55 30.3 57.8
M 28.15 57.25
L 28.35 57.4 28.6 57.4 28.15 57.25
M 28.15 57.7
L 28.1 57.95 28.25 58.4 28.25 58.35 28.35 58.4 28.45 58.4 28.6 59.05
Q 28.85 58.25 29.2 58.65
L 29.2 57.85
Q 28.9 58.2 28.85 58.25 28.7 58.3 28.55 57.85
L 28.45 57.95 28.45 58.35 28.25 58.3 28.35 57.8
Q 28.25 57.75 28.15 57.7
M 28.7 55.85
L 28.2 55.9 28.7 56.05 28.7 55.85
M 25.05 61.8
L 25 61.35
Q 24.95 61.75 25 61.85
L 25.05 61.8
M 24.8 61.1
L 25.25 61.3
Q 25.45 61.25 25.55 61.2 25.6 61.2 26.1 61.2
L 26.65 61.6
Q 26.55 61.45 26.8 60.9 26.95 60.45 26.25 60.25 26.45 60.45 26.35 60.65 26.2 60.85 25.65 60.8
L 25.45 59.85 25 59.85 24.8 61.1
M 20.9 61.3
L 21.25 61.2
Q 21.15 61.2 21.05 61.1 20.9 61 20.45 60.95 20.55 61.15 20.55 61.25
L 20.9 61.3
M 20.65 60.7
L 20.75 60.8 21.1 60.65 20.65 60.7
M 20.7 60.5
L 20.8 60.5
Q 20.75 60.45 20.6 60.45
L 20.7 60.5
M 21.05 60.25
L 20.65 60.3 20.75 60.35 21.05 60.25
M 20.7 60.15
L 21.05 60.05 20.8 60
Q 20.75 60.05 20.6 60.05
L 20.7 60.15
M 20.7 59.1
L 21.15 59.3
Q 21 59.15 20.95 59.15 20.85 59.1 20.7 59.1
M 20.7 58
L 20.3 58.7
Q 20.45 58.5 20.55 58.4 20.65 58.25 20.7 58
M 21.1 58.45
L 20.75 58.55 20.85 58.65 21.3 58.65 21.1 58.45
M 25.25 57.45
L 25.25 57.65 25.45 57.2 25.25 57.45
M 25.05 57.7
L 25.05 57.85 25.25 57.2 25.05 57.7
M 24.75 57.75
L 24.85 57.65 24.9 57.9 25.05 57.2 24.9 57.65 24.95 57.1 24.75 57.75
M 25.2 57.8
L 25.05 57.85 24.9 57.9 24.85 57.9 25 58.05 25.4 57.95 25.2 57.8
M 23.85 53.65
L 23.55 53.55 23.3 54.05
Q 23.5 54.2 23.6 54.15 23.75 54 23.85 53.65
M 20.9 53.2
L 20.85 52.75 20.75 52.9 20.75 53.15 20.9 53.2
M 21.3 52.55
Q 21.45 52.25 21.35 51.9 21.15 52.55 21.05 52.05
L 20.95 52.85
Q 21.25 52.5 21.3 52.55
M 28.6 55
L 28.25 55.15 28.75 55.35 28.6 55
M 28.1 52.85
L 28.35 52.8 28.4 52.5 27.95 52.6 28.1 52.85
M 28.25 53.85
L 28.35 54.05 28.6 54.05 28.25 53.45 28.25 53.85
M 26.6 54.4
Q 26.75 54.7 26.85 55.15
L 26.85 53.6 26.2 53.7
Q 26.45 53.9 26.6 54.4
M 27.55 54.35
Q 27.7 54.25 27.8 54.2 27.85 54.15 27.6 54
L 27.45 54.2 27.55 54.35
M 26.45 52.55
L 26.4 52.25 26.35 52.85 26.5 52.7 26.45 52.6 26.55 52.7
Q 26.8 52.6 26.95 52.5
L 26.45 52.55
M 27.95 52.15
L 28.05 52.35 28.5 52.25 28.35 51.75
Q 28.25 51.8 27.95 52.15
M 33.5 61.35
L 33.8 61.25 33.6 60.95 33.5 61.1 33.5 61.35
M 31.3 61.25
L 31.05 61.8
Q 31.25 61.6 31.25 61.5
L 31.3 61.25
M 32.05 58.4
Q 32.2 58.2 32.2 58.25 32.25 58.2 32.2 58.7
L 32.5 57.5 32.25 57.6 32.05 58.1 32.05 58.4
M 32.7 57.55
L 32.5 57.75 32.55 58.25
Q 32.85 58.2 32.9 58.15 33.15 58.1 33.2 57.5
L 32.7 57.55
M 30.5 57.85
Q 30.45 58.05 30.4 58.15
L 30.3 58.55
Q 30.8 58.55 31.15 58.45 31.85 58.3 32.05 57.6
L 30.5 57.85
M 34 57.4
L 33.75 57.95
Q 34.15 58 34.35 58 34.65 57.9 34.8 57.2
L 34 57.4
M 33.7 58.45
L 33.7 57.4 33.5 57.45 33.2 58 33.7 58.45
M 20.65 49.05
L 20.2 49.05
Q 20.3 49.45 20.3 49.85 20.05 50.05 19.75 50.4 18.7 51.75 18.6 53.75
L 18.95 53.35
Q 18.8 54 18.75 54.8 18.85 54.55 18.95 54.35
L 18.8 54.95
Q 19.4 53.7 19.6 53.35 20.05 52.6 20.4 52.85
L 20.25 52
Q 20.45 51.75 20.55 51.8 20.7 51.85 20.8 52.35 21 51.35 21.3 51.55 21.5 51.65 21.85 52.7
L 21.85 52.1
Q 21.85 52 22 51.6 22 51.9 22 52 22.05 52 22.2 52.15
L 22.1 50.95
Q 21.9 51.15 21.85 51.3 21.85 51.4 21.75 51.95 21.65 51.1 21.55 51 21.4 50.85 21.15 51.1 21.15 50.85 21.25 50.8 21.25 50.75 21.2 50.5
L 20.8 50.6
Q 20.9 50.25 21.1 50.05 21.35 49.85 21.35 49.35 21 49.35 20.6 49.6 20.65 49.35 20.65 49.05
M 31.5 49.05
L 31.45 49.2 31.65 49.05 31.5 49.05
M 30.7 49.1
Q 30.75 49.1 30.7 49.05
L 30.45 49.05
Q 30.45 49.1 30.45 49.2 30.55 49.15 30.7 49.1
M 30.85 49.1
L 30.7 49.35 30.7 49.5
Q 30.6 49.5 30.4 49.45
L 30.35 49.45 30.35 49.5 30 49.65 29.65 50.4 30.4 49.7 30.4 49.5 30.85 49.85 31.05 49.85
Q 30.9 49.65 30.85 49.6
L 30.8 49.55 30.7 49.55 30.85 49.1
M 31.1 49.3
Q 31.15 49.2 31.15 49.05
L 31.05 49.05 30.85 49.6
Q 30.95 49.4 31.1 49.3
M 30.25 49.15
L 30.3 49.4 30.35 49.05 30.25 49.05 30.25 49.15
M 19.55 49.05
L 19.55 49.15
Q 19.6 49.1 19.6 49.05
L 19.55 49.05
M 21.35 48.95
Q 21.3177734375 48.9662109375 21.25 49.05
L 23 49.05 22 48.95
Q 21.9 48.7 21.9 48.5
L 21.75 48.95 21.35 48.95
M 23.75 47.45
L 23.65 47.65
Q 23.7 47.8 23.75 47.75 23.75 47.7 23.75 47.45
M 21.35 46.9
Q 21.35 47.05 21.35 47.15 21.35 47.2 21.45 47.05
L 21.35 46.9
M 25.3 46.75
L 25.3 46.5 24.9 46.1
Q 24.75 46.3 24.65 46.7
L 25.3 46.75
M 24.2 45.9
Q 24.05 46.3 23.95 46.1 23.75 45.8 23.7 45.65
L 23.7 46.3 23.65 46.75
Q 23.85 46.7 23.95 46.75 24 46.95 24.1 47.55 24.2 47.45 24.4 47.1 24.45 46.9 24.65 46.95
L 24.65 46.7 24.2 45.9
M 21.35 34.15
Q 21.4 34.5 21.4 34.65
L 21.6 35.1 21.6 34.8 21.35 34.15
M 21.1 30.5
L 20.85 30.2 21.1 30.75 21.1 30.5
M 20.1 46.85
L 20 46.95 20 47.25 20.35 47 20.1 46.85
M 18.65 40.75
L 18.5 41.9 18.75 42.45 18.65 40.75
M 19.15 37.85
L 19.25 39.3 19.6 39.45 19.75 39.6 19.8 39.2
Q 19.5 38.8 19.4 38.35 19.3 37.95 19 36.6 19 37.2 19.15 37.85
M 19.25 25.9
L 19 25.45 18.85 25.85 18.75 26.9 19.25 25.9
M 18.25 26.8
L 18.3 27.8 18.5 27.75 18.6 27.25 18.25 26.8
M 19.4 23.05
L 19.2 23.45 19.3 24.15 19.5 24.1 19.4 23.05
M 39.7 22.9
Q 39.15 23.05 39.1 23.05 39 23.05 38.75 23.25 39 23.35 39.15 23.45
L 39.7 22.9
M 39.7 23.7
Q 39.55 23.75 39.5 23.75 39.5 23.8 39.6 23.85
L 39.7 23.7
M 32.35 17.25
L 32.4 17.1 32.05 16.9 31.65 17.1 32.35 17.25
M 32.05 16.15
L 31.8 15.75 31.45 16.25 31.9 16.3 32.05 16.15
M 31.4 15.25
Q 31.25 15.45 31.2 15.45
L 31.3 15.6 31.8 15.25
Q 31.4 15.2 31.4 15.25
M 29.65 24.15
L 30 24.35
Q 30.75 24.2 30.9 24.2
L 29.65 24.15
M 29.45 23.9
L 29.5 24.55 29.65 24.1 29.45 23.9
M 28.9 23.8
Q 28.94765625 23.823828125 29 23.8
L 29.05 24.4 29 24.85 29.3 25.05 29.3 23.8
Q 29.4697265625 23.7767578125 29.7 23.7 29.4330078125 23.7333984375 29.3 23.75
L 29.3 23.65 29 23.5 29 23.75
Q 28.9681640625 23.786328125 28.9 23.8
M 27.8 22.2
Q 27.45 21.8 26.95 21.75 27 22.35 28.55 24.2
L 28.9 23.8 29 23.7 28.65 22.7
Q 28.6 23.15 28.55 23.65
L 28.25 23.55 28.4 22.65
Q 28.25 22.55 27.8 22.2
M 25.95 20.85
L 25.85 21.65 25.95 21.7 25.95 20.85
M 27.65 20.9
L 27.65 20.65 27.45 20.35 27.65 20.9
M 22.45 21.95
L 22.5 21.5
Q 21.9 21 21.35 19.65 21 18.8 20.6 17.05 20.7 18.9 21.35 20.45 21.8 21.55 22.45 21.95
M 77.2 48.25
L 77.2 48.8 77.25 48.45 77.2 48.25
M 78.45 44.05
L 78 44.05 78.3 44.35 78.45 44.05
M 79.3 45
L 79.35 44.3 78.95 43.05 79.2 45.4 79.3 45
M 78.7 43.5
Q 78.7 43.35 78.6 43.4 78.65 44.25 78.7 44.35 78.9244140625 44.6193359375 78.95 44.8 78.9013671875 44.095703125 78.95 43.95 78.9 43.65 78.75 43.3
L 78.7 43.5
M 79.55 41.6
Q 79.45 41.05 79.2 40.65 79.2 41.1 79.2 41.2
L 79.15 41.6 79.6 43.65
Q 79.6 43.3 79.6 43.05 79.6 42.9 79.7 42.8 79.65 42 79.55 41.6
M 78.6 38.45
L 78.6 37.95 78.1 37.1
Q 78.2 37.65 78.6 38.45
M 78.95 39.35
L 78.9 39.25 78.85 39.7
Q 78.9 39.6 78.95 39.35
M 77 34.05
L 76.8 33.55 76.55 33.55 76.2 34.15 76.9 34.2 77 34.05
M 79.2 27.85
L 79.4 27.85 79.6 27.55 79.2 27.85
M 76.8 30.35
L 77.2 30.55 77.35 30.35 76.8 30.35
M 76.7 29.75
L 76.35 29.65 76.25 30.1 77.45 30.1 77.5 29.7 76.7 29.75
M 78 28.95
Q 78 28.75 78.2 28.1 78.35 27.65 78.25 27 77.8 27 76.7 29.05
L 77.35 29.65 78.05 29.25
Q 77.65 29.15 77.2 29.05
L 77.15 28.7 78 28.95
M 77.95 25.45
L 77.9 25.55 78.65 25.55 77.95 25.45
M 56.5 36.7
L 56.35 36.7 56.75 37.3 56.5 36.7
M 56.3 33.5
L 55.75 33.55 56.1 33.8 56.3 33.5
M 55 36.05
Q 54.95 35.95 54.7 35.75 54.75 36.25 54.85 36.45 54.9 36.6 54.95 36.75
L 55.15 36.4 55 36.05
M 53.8 36
L 53.95 35.7 53.85 35.55 53.8 36
M 54.1 35.8
L 54 35.6
Q 54.05 35.75 54.1 35.85
L 54.1 35.8
M 54.35 35.85
L 54.3 36.3 54.5 36 54.35 35.85
M 55.9 26.75
L 55.8 26.65 55.65 27.25 56.15 27.25 56.3 26.95 55.9 26.75
M 54.55 23.85
L 54.35 23.65
Q 54.25 23.75 54.3 23.75 54.35 23.8 54.55 23.85
M 55.25 25.05
L 55.3 25.8 55.5 25.85 55.85 25.25
Q 55.6 25.15 55.25 25.05
M 55.55 23.7
L 55.1 23.65
Q 55.15 23.95 55.1 24 55 24.2 54.5 24.3 54.55 24.4 54.9 24.6 55.05 24.75 55.05 25
L 55.25 25.05 55.9 24.35
Q 55.55 24.2 55.65 24 55.9 23.8 56.05 23.65
L 55.55 23.7
M 54.6 20.8
L 54.7 20.65
Q 54.55 20.75 54.5 20.75
L 54.6 20.8
M 54.5 19.4
L 54.65 19.1 54.5 18.95 54.25 18.9 54.5 19.4
M 59.4 16.55
L 58.45 16.45 58.05 16.75 59.4 16.55
M 42.5 16.55
L 41.4 16.4
Q 41.45 16.55 41.5 16.65
L 41.7 16.65
Q 42.2 16.7 42.25 16.7
L 42.5 16.55
M 45.8 17.25
L 46.55 17.2 45.85 17.15 45.8 17.25
M 77.35 19.55
Q 76.6 20.2 76.4 20.95
L 76.85 21.05
Q 77.05 20.25 78 19.55 78.6 19.15 79.95 18.55 78.35 18.75 77.35 19.55
M 74.5 17
L 74.1 16.9 73.55 17 73.65 17.25 74.5 17
M 72.05 17
L 72.3 16.65 71.9 16.45 71 16.4 72.05 17
M 69 19.15
L 68.6 19.45 68.8 19.45 69 19.15
M 65.45 20
L 65.15 20.25 65.4 20.25 65.85 19.9
Q 65.55 19.95 65.45 20
M 60.9 17.3
L 60.85 17.8 60.75 17.95 61.15 18.05
Q 61.3 17.65 61.7 17.45 62 17.35 63.05 17 62.55 16.95 62 17.1
L 60.9 17.3
M 70.15 15.8
L 70.25 16.05 70.7 16.15 70.95 15.75 70.15 15.8 Z"/>
</g>
</defs>

<g transform="matrix( 1, 0, 0, 1, 0,0) ">
<use xlink:href="#Layer1_0_FILL"/>
</g>
</svg>
