
<svg xmlns="http://www.w3.org/2000/svg" version="1.1" xmlns:xlink="http://www.w3.org/1999/xlink" preserveAspectRatio="none" x="0px" y="0px" width="100px" height="100px" viewBox="0 0 100 100">
<defs>
<g id="Layer1_0_FILL">
<path fill="#363435" stroke="none" d="
M 56.55 69.9
L 56.8 70.1 56.6 69.45 56.55 69.9
M 48.4 70.5
L 48.5 69.35 47.75 70.4 48.4 70.5
M 48.8 70.55
L 49.8 70.1 50.15 67.9
Q 49.9 68.3470703125 49.8 68.4 49.7 68.38828125 49.55 67.9
L 48.65 69.9 48.65 70.15 48.8 70.55
M 42.8 71.1
Q 42.85 70.8759765625 42.85 70.65
L 42.45 71.35
Q 42.6 71.2142578125 42.65 71.3
L 42.8 71.1
M 42.25 70.45
L 42 71 42.4 71.05 42.25 70.45
M 41.65 70.7
Q 41.75 71.076953125 41.75 71.1 41.85 71.2365234375 42 71.45
L 42 71
Q 41.8 70.7865234375 41.65 70.7
M 42.55 68.9
L 42.2 69.4 42.1 70.05
Q 42.4 69.95859375 42.9 69.7 43.35 69.4431640625 43.5 68.75 43.1 69.331640625 43 69.35 42.7 69.5220703125 42.55 68.9
M 44.85 70.05
L 44.85 71.05
Q 45.15 70.8095703125 45.6 70.75 45.95 70.6404296875 46.15 69.85 46.2 70.101953125 46.15 70.6 46.5 70.6171875 46.6 70.4 46.7 70.1740234375 46.85 68.65 47 69.32890625 46.95 70.3 47.15 70.38828125 47.3 70.45
L 47.7 69.9 47.2 70 47.1 69.95 47.1 68.95
Q 47.3 69.1009765625 47.45 69 47.8 68.8671875 47.9 68.8
L 47.7 67.9
Q 46.9 68.57109375 46.3 69.1
L 46.25 68.95 46.1 69.1 46.1 69.25
Q 45.35 69.8201171875 44.85 70.05
M 43.45 71.15
Q 43.7 70.9537109375 43.75 70.15
L 43.95 70.1 43.95 71.3 44.05 71.4 44.35 70.1
Q 44.25 69.6740234375 44.2 69.6 44.2 69.573046875 44.3 68.85
L 43.75 68.4
Q 43.55 69.594140625 43 70.8 43.25 71.28828125 43.45 71.15
M 44.95 68.9
L 44.8 69.25
Q 44.75 69.3029296875 44.55 69.35
L 44.65 69.95
Q 44.95 69.6556640625 44.95 69.6 44.95 69.55 44.95 68.9
M 41.8 67.55
L 41.6 67.65
Q 42.4 68.50859375 44.05 67.95 45.7 67.2806640625 45.75 65.85 45.1 67.2029296875 43.65 67.25 42.1 67.1884765625 41.8 67.55
M 42.3 63
Q 42.2 62.6009765625 42.05 62.3 41.85 62.4845703125 41.8 62.55 41.75 62.626953125 41.6 63.15 41.95 63.0412109375 42.1 62.6
L 42.3 63
M 43.85 63
L 43.65 62.1 42.75 62.35 42.7 62.55 42.85 63.2 43.85 63
M 43.9 62.3
L 43.95 62.9 44.15 62.55 43.9 62.3
M 44.35 62.9
L 44.55 62.65 44.75 62.55 44.4 62.2 44.35 62.9
M 45.35 62.25
L 44.8 62.3
Q 44.85 62.456640625 45.2 63.15
L 45.55 62.4 45.35 62.25
M 45.6 62.7
L 45.85 62.45 45.55 62.15 45.6 62.7
M 46.25 62
L 46.05 62.1 46 62.8
Q 46.25 62.7546875 46.25 62.7 46.3 62.660546875 46.45 62.4
L 46.65 62.3 46.25 62
M 49.55 61.75
L 49.45 61.4
Q 49.1 61.80859375 48.3 61.9 47.55 62.0556640625 47.15 61.8
L 47.05 62.15
Q 47.6 62.2537109375 47.95 62.85
L 48.05 61.95 49.45 62.35
Q 49.45 61.873046875 49.55 61.75
M 50 61.85
Q 50.2 61.352734375 50.25 61.05
L 49.85 61.2 50 61.85
M 56.05 60.95
Q 55.95 61.07578125 55.8 61.35
L 56.15 61.35 56.3 61 56.1 60.3
Q 56.05 60.8740234375 56.05 60.95
M 54.7 61.2
L 54.8 61.55
Q 54.85 61.5365234375 54.95 61.7
L 55 61.45 54.7 61.2
M 54.1 61.7
L 54.3 61.35 54.1 60.75 54.1 61.7
M 53.7 60.65
L 53.45 61.2 53.7 61.15 53.9 60.8 53.7 60.65
M 55.3 60.25
L 55.05 60 54.85 60.05 55.3 60.45 55.3 60.25
M 51.7 61.25
L 51.45 60.8 50.4 61.4 50.6 61.6 50.45 62
Q 51.15 62.3970703125 51.35 61.7
L 51.7 61.25
M 72.75 70.95
L 72.5 70.75 72.35 71.4 72.75 70.95
M 70.8 71.15
L 70.8 71.35 71.65 71.5 71.5 70.9 71 71.25 70.8 71.15
M 69.1 71.45
Q 69.45 71.3931640625 69.5 71.3 69.5 71.1990234375 69.55 70.85
L 69.1 71.45
M 70 71.45
L 70.2 71.35 70.05 70.75 70 71.45
M 65.35 62.2
L 65.4 62.5 65.5 62.55 65.45 61.8 65.35 62.2
M 65.8 65
L 65.6 64.9 65.4 65
Q 65.55 65.251953125 65.6 65.25 65.65 65.1978515625 65.8 65
M 70.2 66.65
L 70.25 66.15
Q 71.05 66.3548828125 72.25 65.6 73.45 64.8498046875 74 63.75
L 73.85 63.65
Q 73 64.5923828125 71.25 64.4 69.35 64.15390625 68.55 64.8 66.65 66.4009765625 63.4 65.75 57.75 64.8078125 57.55 64.8
L 52.7 65.55
Q 51.2 65.4423828125 48.8 65.9 45.95 66.3875 45.7 67.25 46.6 67.465234375 48.65 66.9 50.15 66.5576171875 51.25 67.35 51.05 68.0873046875 50.85 68.3 50.65 68.56640625 50.25 68.5 50.3 69.051953125 50.25 69.3 50.15 69.65078125 50 70.05 51.1 69.990234375 51.4 69.9 51.45 69.8595703125 51.65 69.45 51.75 69.07109375 52.05 68.95
L 51.75 69.25 51.65 70.15
Q 52.05 69.98359375 52.65 69.85 53.1 69.6740234375 53.6 69.25
L 53.45 69.85
Q 53.75 69.8421875 53.8 69.8 53.8 69.74609375 54 69.1 54.05 69.401953125 54 69.85
L 54.35 69.6
Q 54.45 69.526953125 54.45 69.6 54.4 69.875 54.35 70.1
L 54.6 69.05 54.65 70.1
Q 54.95 69.9421875 55 69.9 55.05 69.8490234375 55.15 69.25 55.35 69.6517578125 55.45 69.8 55.65 70.0115234375 55.9 69.6
L 56.2 70.15
Q 56.25 69.2990234375 56.35 69.05 56.45 68.8970703125 56.7 69.05 56.95 69.1171875 56.95 69.25 56.9 69.525 56.85 69.9 57.15 69.6279296875 57.3 70 57.5 69.9392578125 57.6 69.75 57.8 69.3029296875 57.85 69.25
L 57.7 70.1
Q 57.9 69.9517578125 58 69.95 58.1 69.9134765625 58.15 69.25 58.25 69.3240234375 58.4 69.4
L 58.4 69.9
Q 59.25 69.8625 63.35 70.95 66.35 71.7384765625 67.35 70.55
L 67.3 71.2
Q 67.85 71.3904296875 68.9 70.85
L 68.85 71.25
Q 68.95 71.1248046875 69.05 70.9
L 68.95 70.8
Q 69.25 70.5845703125 69.7 70.35 71.4 69.16640625 72.25 69.3
L 72.1 67.95 70.2 66.65
M 67.2 61.95
L 67.15 62.45
Q 67.25 62.3123046875 67.35 62.1
L 67.2 61.95
M 67.85 62
L 67.7 62.6 67.8 62.7
Q 67.9 62.4392578125 67.9 62.4 67.95 62.390234375 67.85 62
M 68.85 62.8
L 69.15 62.75 69.05 61.7 68.85 62.8
M 68.6 60.85
L 68.3 60.65 68.25 61.1
Q 68.25 61.5990234375 68.3 61.85
L 68.6 60.85
M 19.8 54.85
L 20.1 54.6 19.5 53.8
Q 19.55 54.475 19.6 54.5 19.7 54.5875 19.8 54.85
M 39.8 67.15
Q 39.75 67.006640625 39.35 66.6 38.4 67.5537109375 36.6 67.05 35 66.7201171875 33.65 65.6 33.45 66.2142578125 33.8 66.45 34.25 66.7951171875 34.3 66.9 34.65 68.056640625 35.95 69.3 37.5 70.70859375 38.6 70.15
L 38.35 70.95
Q 39.6 70.5009765625 40.15 71.4
L 40.8 69.75 41.2 69.8 40.75 71.2
Q 40.9 71.301953125 40.95 71.3
L 41.15 71
Q 41.45 71.164453125 41.65 70.55 41.8 70.13359375 42.15 68.85
L 40.25 69.5
Q 40.15 68.973046875 40.15 68.65
L 39.95 68.55 39.7 68.1
Q 39.8 67.301953125 39.8 67.15
M 29.65 63.85
L 29.2 64.3
Q 29.4 65.1546875 30 65.75 30.75 66.4095703125 31 66.7
L 31.2 66.35 29.65 63.85
M 23.8 59.3
L 23.9 59.45 23.85 58.65 23.7 59.05 23.8 59.3
M 24.45 57.9
L 24.1 57.35 23.95 59.5
Q 24.2 59.2037109375 24.25 58.9 24.3 58.710546875 24.45 57.9
M 23.7 58.25
Q 23.9 57.75390625 23.9 57.7 23.95 57.40390625 23.8 57.1
L 23.7 58.25
M 23.5 56.6
L 23.25 57.1
Q 23.4 57.4267578125 23.45 57.8
L 23.55 57.85 23.5 56.6
M 35.95 61.3
Q 36.05 61.2123046875 36.15 60.95
L 36 60.85 35.95 61.3
M 33.8 60.5
L 33.75 59.95 33.6 60.35 33.8 60.5
M 34.55 60.7
L 34.8 61.1 34.9 60.95 34.6 60.2 34.55 60.7
M 31.3 59.2
Q 31.35 59.635546875 31.5 60.15
L 31.55 59.5 31.3 59.2
M 32.25 59.5
L 32.1 59.85 32.65 60.05 32.25 59.5
M 27.55 35.3
L 27.4 35.2 26.9 35.3 27.25 35.55 27.55 35.3
M 26.7 32.6
L 26.6 33.3 26.95 33.1 26.7 32.6
M 29.1 32.6
L 29 33 29.3 32.8 29.1 32.6
M 27.95 32.65
L 27.9 32.85
Q 28.2 32.8173828125 28.25 32.8
L 28.25 32.4 28.15 32.8 27.95 32.65
M 25 33.75
L 24.75 33.5 24.8 34.05 25 33.75
M 34.6 34.9
L 34.35 34.65 34.45 35.45 34.6 34.9
M 33.5 29.75
L 33 29.85 33.75 30.15 33.8 29.95 33.5 29.75
M 31.6 30.45
L 31.3 30.15
Q 30.85 30.406640625 29.4 30.3 28.25 30.2142578125 27.65 30.95
L 27.6 31.15 31.55 30.7 31.6 30.45
M 36.35 28.8
L 36.15 28.65 35.45 28.85
Q 35.8 29.55859375 36.35 28.8
M 35.15 30.05
L 35.15 29.85 34.9 29.6 33.85 30 34.6 30.4 35.15 30.05
M 35.7 30.3
L 35.7 30.1 35.4 29.55 35.15 29.85 35.7 30.3
M 35.95 29.5
L 35.7 30.1 36.8 30.7
Q 36.85 30.5009765625 36.85 30.45
L 36.95 29.6 36.65 29.3 35.95 29.5
M 37.1 28.95
L 36.95 29.35 36.95 29.6 37.4 29.9 37.9 29.8 37.95 28.85
Q 37.65 29.421875 37.5 29.45 37.35 29.4142578125 37.1 28.95
M 37.95 28.35
Q 37.7 28.621875 37.6 28.85 37.7 28.823828125 37.85 28.8 38 28.7787109375 37.95 28.35
M 19.9 41.75
L 19.6 41.95 19.4 42.55 19.65 43 20.1 43.4 20.25 43 19.9 41.75
M 79.8 47.65
Q 79.85 47.8509765625 79.85 47.95 79.9 47.994921875 80.2 48.25
L 79.8 47.65
M 78.6 46.9
L 78.55 47.6 79.2 47.85 79.3 47.45 78.6 46.9
M 75.25 45.4
Q 75.45 46.3326171875 75.9 46.55 76.25 46.656640625 76.25 47.2
L 78.45 47.55 78.45 47.3 77.85 46.55
Q 77.1 46.8970703125 76.5 46.45 76.1 46.20859375 75.25 45.4
M 72.25 45.45
L 71.9 45.2 71.3 45.2 72.2 45.65 72.25 45.45
M 75 45.2
Q 74.8 45.4421875 74.35 45.5 73.95 45.5115234375 73.6 45.35
L 75.4 46.8
Q 75.2 46.2125 75 45.2
M 63.5 27.65
L 63.45 28.35
Q 63.5 28.1240234375 63.6 28 63.6 27.976953125 63.5 27.65
M 68.75 30.4
L 68.55 30.5 69.25 31.1 68.75 30.4
M 74.1 28.6
L 73.25 27.65
Q 72.5 27.8171875 70.2 26.95 69.7 26.760546875 69.3 26.75 68.1 26.5529296875 67.4 27.35 67.65 28.3806640625 70.2 28.2 73.2 28.0404296875 74.1 28.6
M 44.75 40.2
L 44.5 39.95 44.1 40.1 43.95 40.75 44.6 40.8 44.75 40.2
M 50.35 40.75
L 50.2 41.35
Q 50.5 41.4134765625 50.75 40.7 50.95 40.084765625 51.3 40.3
L 51.25 39.55 50.9 39.4
Q 50.85 39.526953125 50.7 40.25 50.6 40.5779296875 50.35 40.75
M 45.6 40.35
L 45.75 40 45.4 39.7 45.1 39.9 45.6 40.35
M 46.05 40
Q 46.1 39.70078125 46.1 39.55
L 45.9 39.65 45.8 39.8 45.75 40 45.9 40.4 46.05 40
M 48.75 39.45
L 48.3 39.8 48.7 39.95 49 39.65 48.75 39.45
M 50.45 39.85
L 50.2 39.6
Q 49.95 40.3990234375 49.1 40.6 48.2 40.7884765625 47.9 40.95
L 47.85 41.2 47.9 41.95
Q 49.35 40.481640625 49.8 41.3
L 50.45 39.85
M 41.3 35.1
L 41.75 33.5 41.5 33.25
Q 41.1 34.110546875 40.15 34.35 39.15 34.6384765625 38.75 35.3
L 41.3 35.1
M 49.6 29.4
L 49 29.7 49.85 29.9 49.85 29.65 49.6 29.4
M 46 30.5
Q 45.95 29.851953125 45.8 29.4
L 45.3 29.45
Q 45.45 30.12578125 45.55 30.2 45.75 30.3365234375 46 30.5
M 52.55 24.65
Q 49 24.3673828125 46.5 24.25 44.7 24.2009765625 43.5 24.25 40.35 24.3826171875 33.55 25.95 27.1 27.4171875 23.65 27.35
L 23.4 27.95 24.6 30.2 24.7 30.25 24.85 29.85
Q 24.95 27.335546875 31 29.7 32.5 30.685546875 32.8 29.95
L 32.6 29.95 32.35 29.55 34.05 29.2 34.25 29.35 34.25 29.1 33.4 28.9 33.35 28.4
Q 34.65 27.8548828125 37.65 26.4 40.4 25.4306640625 42.2 26.45 42.05 26.8392578125 40.5 28 38.95 29.215234375 38.55 29.1 38.35 29.4978515625 38.25 30.15
L 38.05 30.75
Q 39.1 31.131640625 40.45 30.6 41.2 30.3595703125 42.75 29.55
L 50.1 28.15
Q 50.8 28.0279296875 53.3 28.45 55.6 28.8671875 55.7 28.7
L 55.95 27.4
Q 56.2 27.1326171875 59.95 27
L 60 26.75 59.65 26.45
Q 58.3 26.876953125 56.2 25.9 53.95 24.7537109375 52.8 24.65 52.65 24.598828125 52.55 24.65
M 68.5 62.5
L 68.75 62.7 69 61.65
Q 68.5 61.9078125 68.25 62.35
L 68.2 62.55
Q 68.45 62.5037109375 68.5 62.5
M 69 61.65
Q 69.15 61.5875 69.3 61.55 69.2 61.3873046875 69.1 61.25
L 69 61.65
M 81.4 47
L 81.5 46.3
Q 79.8 44.135546875 76.25 41.85 71.3 38.7115234375 70.95 38.4
L 70.95 38.2
Q 71.8 38.486328125 76.6 38.9 80.15 39.210546875 82.5 41.2
L 81.9 39.65 70.55 36.4
Q 69.45 37.2009765625 66.35 36.3 62.35 35.1220703125 61.75 35.15 60.35 35.09140625 56.8 34.15 53.5 33.23359375 51.7 33.45 50.65 33.5326171875 47.9 33.2 45.45 32.977734375 44.15 33.2 43.8 33.2578125 43.05 33.9 42.45 34.4009765625 41.8 34.25
L 41.55 34.75
Q 41.85 34.7837890625 47.55 34.25 51.3 33.8921875 53.5 34.85 52.2 36.085546875 49.7 35.65 46.7 35.075 45.65 35.4 43.6 36.1990234375 39 35.95 34.4 35.7546875 32.8 36.4
L 32.75 35.85
Q 33.1 35.4978515625 33.55 35.75
L 33.8 35.15
Q 33.15 35.0509765625 31.15 35.5 29.5 35.9154296875 28.35 35.2 27.85 36.1529296875 27.85 37.55
L 27.35 38.1 27.45 37.25
Q 26.5 38.3375 24.9 38.85 23.5 39.375 22.1 39.3 22.05 39.473046875 22.1 39.85 22.15 40.1779296875 22.05 40.7
L 22.55 40.65 21 42.15 20.8 42.45
Q 21.35 42.993359375 21.6 42.55 22 41.8134765625 22.35 41.7 22.35 42.235546875 22.45 42.2 22.65 42.001953125 22.75 42.1 22 43.1212890625 20.8 44.05 19.7 44.9845703125 18.75 45.3 18.75 45.40390625 18.55 47.2 18.5 47.990234375 18.3 48.6
L 18.55 48.9
Q 19 49.3634765625 20.05 48.85 21.4 48.0978515625 21.55 48.1 27 47.4171875 30.9 46.45 36.05 45.2662109375 44.9 46.25 56.1 47.476953125 59.4 47.4 62.1 47.261328125 66.15 47.95 71.8 48.88828125 72.85 50.85 67.6 47.823046875 60.5 49.05
L 58 48.7
Q 57.5 47.0353515625 46.05 47.65 45.2 47.6671875 40.85 47.7 37.75 47.7267578125 35.85 48.1
L 33.65 47.75
Q 31.6 49.4451171875 27.85 49.35 23.7 48.9412109375 21.95 49.1 21.75 49.1642578125 20.8 49.7 20.1 50.1490234375 19.45 49.8 20.4 51.41171875 24 49.85
L 23.95 50.3 24.15 50.4
Q 23 51.1595703125 20.7 51.25 18.45 51.331640625 17.8 50.7
L 17.55 51.05 17.5 51.7
Q 17.75 52.1537109375 17.8 52.35 17.85 52.5623046875 17.9 53.25
L 19.7 52.95
Q 20.05 53.2423828125 20.15 53.55 20.25 53.8529296875 20.2 54.65 21.75 55.1142578125 21.9 55.2 22.55 55.701953125 23.1 57.5 23.15 56.823046875 23.3 56.45
L 22.75 55.5 22.7 55
Q 23.3 55.1171875 25.6 56.35 27.7 57.540234375 29 57.65 29 58.3412109375 29.45 58.7 30 59.081640625 30.2 59.35 30.2 59.1912109375 30 58.4
L 30.55 58.65 30.3 59.2 30.95 59.7
Q 30.95 59.5662109375 30.75 58.8
L 31.3 59 31.5 59.15 37.4 60.45 36.6 59.8 36.6 59.55
Q 39.9 59.80859375 45.35 59.15 52.55 58.25390625 54.35 58.15
L 60.7 59.65 74.95 60.35
Q 74.45 61.3296875 71.75 61.25 70.2 61.2248046875 69.3 61.55 69.5 61.9490234375 69.75 62.8 69.8 61.8625 70.5 62.2 71.45 62.6259765625 71.7 62.35 72.45 61.7056640625 76.15 61.45 79.95 61.15078125 81.1 61.9 80.95 61.3451171875 80.4 61.1 79.95 60.95078125 79.45 61.05 79.55 60.1279296875 79.5 59.8 79.7 59.6912109375 79.7 59.75 79.8 59.9990234375 79.95 60.15
L 80.25 59.2
Q 76.25 58.71640625 75.3 58.5 72.4 57.8595703125 70.3 56.3
L 70.35 56.05 78.1 57.4 78.8 54.5
Q 76.2 52.7 74.25 51.3 74.7 51.10078125 75.75 51.3 76.75 51.485546875 77.2 51.25
L 77.3 50.85
Q 72.6 46.0740234375 66 44.2 60.95 42.82109375 55.45 43.2 52.75 43.3556640625 51.7 43.3 49.35 43.0806640625 48 42 47.75 42.0701171875 47.75 41.9 47.75 41.7740234375 47.8 40.9
L 47.7 40.85
Q 47.35 42.839453125 41.7 41.4 41.9 41.03359375 42.3 41 42.65 40.8662109375 42.8 40.55
L 42.95 40.7 43 40.45
Q 42.15 40.0923828125 39.1 41.15 36.25 42.219140625 35 41.35 35.05 42.0748046875 35.1 42.1 35.25 42.135546875 35.5 42.3
L 35.45 42.55
Q 35.2 42.5404296875 32.85 42.9 31.4 43.1443359375 30.25 42.45 31.2 41.781640625 32.45 41.65 33.65 41.576953125 34.75 41.95
L 34.8 41.7 33.05 41.3 33.1 41.1
Q 39.55 38.4962890625 48.8 38.75
L 51.5 39.55 51.4 39.9 51.9 39.8 51.65 39.6 52.1 39.7 52.15 40.2 52.4 39.95 52.2 39.7 54.1 40.35
Q 54.75 40.076953125 57.25 40.2 60.05 40.4375 60.25 41.15
L 60.4 41.05
Q 60.4 41 60.4 40.5
L 67.25 41.1 75.9 45
Q 76.65 45.173828125 78.75 45.3 80.6 45.6701171875 81.4 47 Z"/>
</g>
</defs>

<g transform="matrix( 1, 0, 0, 1, 0,0) ">
<use xlink:href="#Layer1_0_FILL"/>
</g>
</svg>
