
<svg xmlns="http://www.w3.org/2000/svg" version="1.1" xmlns:xlink="http://www.w3.org/1999/xlink" preserveAspectRatio="none" x="0px" y="0px" width="100px" height="100px" viewBox="0 0 100 100">
<defs>
<g id="Layer1_0_FILL">
<path fill="#000000" stroke="none" d="
M 71.9 53.4
Q 71.7 53.85 71.9 54.45 72 54.65 72.25 54.6 72.5 54.6 72.65 54.4 72.8 53.95 72.7 53.5 72.6 53.2 72.3 53.2 72.05 53.1 71.9 53.4
M 41.05 46.35
Q 41.25 46.75 41.75 46.5 42.25 46.25 42.05 45.85 41.8 45.3 41.25 45.55 40.8 45.8 41.05 46.35
M 83.9 51.75
L 83.9 51.7
Q 80.25 51.05 79.85 49.9 76.9 49.55 73.95 47.8 73.9 47.8 73.85 47.8
L 68.7 48.05
Q 68.25 48.05 67.95 49.25 65.55 49.75 62.7 48.35 57.85 48.75 56.9 48.75
L 54.9 50.05 52.1 50.05 49.2 49.25
Q 48.55 49.65 47.95 49.6 48.1 49.9 47.1 50.25 46.45 50.4 45.3 50.6 42.75 50.65 40.2 50.35
L 35.85 51 30.7 50.15 27.35 52 22.45 49.2 16.45 49.2
Q 16.25 49.2 16.1 49.35 16.05 49.55 16.3 49.5
L 21.35 50.25
Q 21.35 50.45 21.3 50.55 21.65 50.5 22 50.4
L 27.7 53.3
Q 28.65 51.7 30.55 52 32.4 52.25 33.25 51.85 34.1 51.4 35.15 51.9
L 40.1 51.2 44.9 51.95 47.85 51.2 52 53.4
Q 51.9 53.3 51.85 53.25 50.25 51.4 51.8 51.7
L 51.85 51.75
Q 54.15 52.15 57.45 51.8 58.5 50.15 59.4 49.65
L 62.45 49.65 67.2 51.4 69.95 50.4
Q 70.2 49.2 71.55 49.1 74.6 49.05 78.8 51.5
L 83.9 51.75 Z"/>
</g>
</defs>

<g transform="matrix( 1, 0, 0, 1, 0,0) ">
<use xlink:href="#Layer1_0_FILL"/>
</g>
</svg>
