
<svg xmlns="http://www.w3.org/2000/svg" version="1.1" xmlns:xlink="http://www.w3.org/1999/xlink" preserveAspectRatio="none" x="0px" y="0px" width="100px" height="100px" viewBox="0 0 100 100">
<defs>
<g id="Layer1_0_FILL">
<path fill="#000000" stroke="none" d="
M 42.25 64.65
Q 42.05 64.2 42.05 63.7 42 63.7 42 63.75 42 64.1 42.05 64.55
L 42.25 64.65
M 46.45 62.2
Q 46.35 62.2 46.35 62.25
L 46.3 62.3 46.45 62.5
Q 46.5 62.55 46.65 62.45 46.7 62.35 46.6 62.25
L 46.45 62.2
M 40.85 58.45
Q 40.75 58.35 40.65 58.35 40.55 58.25 40.55 58.35 40.45 58.4 40.55 58.5 40.6 58.55 40.7 58.6 40.75 58.7 40.85 58.6 40.9 58.5 40.85 58.45
M 66.3 38.1
L 66.25 38.2 66.25 38.25 66.35 38.15 66.3 38.1
M 66.6 37.75
Q 66.5 37.6 66.45 37.65 66.35 37.7 66.35 37.8 66.35 38.05 66.4 38.15 66.4 38.2 66.45 38.25 66.6 38.2 66.6 38.1
L 66.6 37.75
M 68.1 35.4
Q 68 35.45 68 35.5
L 68.2 35.55
Q 68.2 35.6 68.25 35.55
L 68.25 35.5 68.15 35.35
Q 68.1 35.3 68.1 35.4
M 54.55 46.6
Q 54.5 46.45 54.05 46.1 53.95 46.05 53.9 46.15 53.85 46.2 53.95 46.3 54.35 46.65 54.45 46.7 54.5 46.7 54.55 46.65 54.6 46.65 54.55 46.6
M 48.9 47.3
Q 49.1 47.3 48.95 47.1
L 48.9 46.95 48.75 46.9 48.65 47
Q 48.55 47.1 48.6 47.15 48.65 47.2 48.7 47.25 48.15 47.3 46.05 46.8 43.7 46.2 43.25 46.15 40.9 45.6 36.35 44.35
L 33.8 43.65
Q 30.95 42.05 23.1 39.95 38.75 48.2 46.3 52.75 46.1 52.75 46 52.9
L 47.9 53.9 48.05 53.8
Q 52.05 56.25 54 57.55 54.7 58.8 55.2 60.2 55.55 61.05 55.8 62
L 55.85 62.05
Q 55.75 61.1 55.55 60.2 55.3 59.1 54.9 58.05
L 58.45 60.45
Q 58.65 60.55 58.75 60.45 58.85 60.3 58.8 60.2
L 58.75 60.15 54.2 56.8
Q 53.7 55.95 52.9 55.05 52.85 54.9 52.7 55 52.6 55.1 52.7 55.25
L 53.2 56.05 49.2 53.25
Q 59.45 48.7 67.45 43.85 67.7447265625 43.7189453125 67.8 43.4 67.8765625 43.433203125 67.95 43.45
L 67.8 43.4
Q 67.832421875 43.244140625 67.8 43.05
L 76.65 48.2
Q 76.75 48.3 76.85 48.15 76.9 48.05 76.8 47.95
L 73.55 45.8
Q 73.95 45.85 74.85 45.7 75.15 45.65 75.85 45.65 76.5 45.55 76.8 45.35 77.05 45.15 76.8 45.1 76.4 44.9 75.8 44.95 75.05 45.05 74.75 45 74.1 45 73.75 45.1 73.15 45.15 72.85 45.35
L 69.3 43.15
Q 71.85 42.15 74.3 38.95
L 74.25 38.95
Q 73.15 40.15 71.45 41.35 69.75 42.45 68.95 42.95
L 66.65 41.5
Q 66.3 41.3 66.15 41.6 65.85 41.9 66.15 42.05
L 67.45 42.85 66.9 43.1
Q 66.43359375 42.7380859375 65.35 41.95
L 65.25 42 65.85 42.65
Q 65.4 42.7 64.8 42.75 65.7015625 42.9431640625 66.75 43.15
L 62.15 45.35
Q 58.55 47.35 56.3 48.45 52.25 50.55 49.65 50.75
L 47.45 52.05
Q 41.3 47.9 35.65 44.75
L 38.8 45.5
Q 40.15 45.85 43.95 46.95 47.35 47.75 48.9 47.3
M 42.6 42.85
Q 42.45 42.8 42.35 42.9 42.35 43 42.45 43.05 44.1 44.1 45 44.55 44.75 45.3 45 46.3
L 45.05 46.35
Q 45.1 46.4 45.1 46.35 45.05 45.7 45.05 45.2
L 45.1 44.65
Q 46.05 45.1 46.5 45.3 46.55 45.35 46.65 45.25 46.65 45.15 46.65 45.1 45.85 44.55 44.6 43.95 43.95 43.55 42.6 42.85
M 45.2 40.2
Q 45.1 40.35 45.25 40.45 45.4 40.55 45.55 40.4 45.6 40.3 45.45 40.15 45.3 40 45.2 40.2 Z"/>
</g>
</defs>

<g transform="matrix( 1, 0, 0, 1, 0,0) ">
<use xlink:href="#Layer1_0_FILL"/>
</g>
</svg>
