
<svg xmlns="http://www.w3.org/2000/svg" version="1.1" xmlns:xlink="http://www.w3.org/1999/xlink" preserveAspectRatio="none" x="0px" y="0px" width="100px" height="100px" viewBox="0 0 100 100">
<defs>
<g id="Layer1_0_FILL">
<path fill="#000000" stroke="none" d="
M 44.2 65.25
Q 44.25 65.15 44.2 65.15
L 44.05 65.2
Q 44 65.25 44.05 65.3
L 44.2 65.3
Q 44.25 65.3 44.2 65.25
M 43.75 62.4
Q 43.65 62.5 43.75 62.55
L 43.95 62.8
Q 44 62.85 44.05 62.75 44.15 62.7 44.05 62.65 43.9 62.5 43.85 62.45 43.8 62.4 43.75 62.4
M 43.9 62.4
L 43.9 62.3 43.85 62.35 43.9 62.4
M 47.25 50.05
Q 47.4 50.1 47.9 50.05 47.95 50.1 47.95 50 47.95 49.85 47.85 49.9 47.4 49.9 47.25 49.9 47.2 49.95 47.2 50 47.2 50.05 47.25 50.05
M 60.6 57.5
Q 60.65 57.45 60.6 57.35
L 60.25 57.15
Q 60.15 57.1 60.15 57.2
L 60.15 57.25
Q 60.25 57.35 60.5 57.5 60.6 57.55 60.6 57.5
M 64.9 50.6
L 64.95 50.7
Q 65.1828125 50.6365234375 65.4 50.6
L 64.9 50.6
M 66.15 52.7
L 66.25 52.75
Q 66.9 52.75 68.3 52.55 68.35 52.5 68.35 52.45 68.35 52.4 68.2 52.4 66.9 52.55 66.2 52.65
L 66.15 52.7
M 19.2 51.45
Q 19.05 51.45 18.95 51.45 18.55 51.5 18.55 51.55 19.1 51.6 19.9 51.7
L 20.1 51.7
Q 20.9 51.8 21.45 51.8
L 19.2 51.45
M 63.3 49.2
L 63.05 49.3 62.55 49.7
Q 62.45 50.05 62.25 50.4
L 62.25 50.35
Q 61.9 50.9 61.65 51.1 61.5 51.25 61.25 51.85 60.9 52.65 60.75 52.9 60.6 53.25 59.5 53.25 58.7 53.25 58.3 53.15
L 58.35 53.15
Q 57.85 53.1 57.25 52.4
L 57.2 52.35
Q 56.9 51.95 56.55 51.85 56 51.65 55.55 51.4
L 55.5 51.4
Q 55.05 51.2 54.5 50.9 53.6 50.45 51.95 50.25 52 50.65 51.8 51.3 51.65 51.65 51.7 51.8 52.3 52.3 51.6 53.2 51.3 53.6 51.2 54 51.10546875 54.5201171875 51 54.8 51.929296875 56.2005859375 51.55 57.05 51.1669921875 57.9578125 50.2 57.65 49.2392578125 57.340625 48.95 57.7 48.70234375 58.103125 47.85 58.2 47 58.25 46.6 57.85 46.45 57.8 46.3 57.9 45.8 58.05 45.25 58.05 45.15 58.15 45 58.25 44.9 58.3 44.55 58.3
L 44.5 58.3
Q 43.85 58.35 43.55 58 43.4 57.85 43.3 57.75 42.95 57.65 42.95 57.6 42.7 57.35 42.75 57.15 42.45 56.75 42.35 56.35 42.25 55.95 41.95 55.4 41.9 55.3 41.9 55.25 41.4 55.25 40.95 55.05 38.7 55.3 38.55 55.1
L 38.5 55.05
Q 38.3 54.6 38.05 53.95 37.85 53.45 37.55 53.3 37.05 53.05 36.55 52.5
L 36.5 52.45
Q 36.2 52.1 35.85 52.05 35.3 51.95 34.6 51.55 34.05 51.2 33.75 51.1 33.4736328125 50.9619140625 32.9 50.8
L 32.9 50.85
Q 32.725 50.8 32.55 50.8 30.8 50.65 29.25 50.7 26.9 50.8 24.75 50.7 23.75 50.7 22.8 50.85
L 22.6 50.85
Q 21.5849609375 51.0060546875 20.6 51.1 24.7814453125 51.160546875 26.3 51.55 27.1 51.7 28.25 51.75
L 28.45 51.8
Q 30.2 51.95 31.95 52.1 32.333203125 52.1478515625 32.9 52.2 33.3169921875 52.357421875 33.85 52.7
L 33.9 52.7
Q 34.4 53.05 34.8 53.15
L 34.85 53.2
Q 35.55 53.35 35.95 54.3
L 35.9 54.25
Q 36.15 54.8 36.4 55.05
L 36.45 55.1
Q 36.8 55.5 36.95 55.9 37.1 56.15 37.4 56.35 37.55 56.4 37.65 56.5
L 40 56 40.6 56.3
Q 40.55 56.4 40.55 56.55 40.4 56.95 40.6 57.15 41 57.5 41.4 57.85 41.7759765625 58.1919921875 41.95 58.55 40.973046875 59.0634765625 39.8 59.65
L 40.65 59.35
Q 41.1826171875 59.3056640625 42.2 59.2 42.246875 59.346875 42.35 59.45 42.65 59.75 42.95 60.1 43.05 60.15 43.25 60.05
L 43.3 60.05
Q 44.05 59.65 44.6 59.75 45 59.8 45.5 59.75
L 45.55 59.75
Q 45.6 59.5 46 59.4 46.2 59.3 46.6 59.35
L 46.65 59.35
Q 47 59.4 47.3 59.2 47.35 59.1 47.45 59.1 48.05 58.7 48.9 58.9 49.6 59.05 50.1 59.35 50.25 59.4 50.35 59.35
L 50.4 59.35
Q 50.9 59 51.4 58.95 51.75 58.9 52.1 58.75 52.35 58.6 52.55 58.2 52.75 57.65 52.65 57.15 52.55 56.35 52.6 56.05 52.6 56 52.65 55.95 52.7 55.7 52.65 55.3 52.6 54.7 52.65 54.05 52.80390625 53.29375 52.85 52.75 52.9380859375 52.2681640625 52.45 51.1 53.630859375 51.228515625 53.95 51.8 54.273046875 52.415625 54.6 52.8
L 54.65 52.85
Q 55 53.15 55.1 53.35 55.25 53.45 55.8 53.8 56.55 54.2 56.75 54.4 56.9 54.5 57.55 54.75 58.7 55.1 58.7 55.35
L 58.75 55.4
Q 58.8 55.45 59.15 55.7 59.5 55.95 60 55.8 60.8 55.5 61.2 55.45 61.55 55.4 61.8 55.35 61.85 55.3 61.9 55.3 62.25 55.25 62.75 55.2 63.5 55.15 63.9 55.35
L 63.95 55.4
Q 63.95 55.35 64.2 55.2
L 64.2 55.15
Q 65.05 54.55 65.8 55.05 65.9 55.1 65.95 55.05
L 66 55.05
Q 66.4 54.5 67.2 54.5 67.6 54.5 67.85 54.4 68 54.3 68.15 54.15 68.15 54.1 68.2 54.1 68.5 53.65 69.4 53.5 69.8 53.45 70.05 53.2 70.1814453125 53.0357421875 70.3 52.9 68.2615234375 53.26953125 66.3 53.6 64.3001953125 53.988671875 63.15 53.8
L 63.1 53.8
Q 62.76015625 54.005078125 62.55 53.9 62.2 53.85 60.95 54.15
L 62.05 53.4
Q 62.105078125 53.3947265625 62 53.3 61.9375 53.2126953125 61.8 52.8 61.666015625 52.43359375 63.3 49.2
M 41.65 59.05
L 41.7 59
Q 41.836328125 58.863671875 42 58.7 42.0677734375 58.821484375 42.1 58.95 42.114453125 59.037109375 42.15 59.1
L 41.65 59.05
M 57.05 49.4
Q 57.25 49.4 57.25 49.25 57.25 49.1 57.05 49.1 56.9 49.1 56.9 49.3 56.9 49.4 57.05 49.4
M 54.5 45.7
L 54.8 46.2
Q 53.95 46.35 53.55 46.5 53.45 46.5 53.45 46.6 53.45 46.65 53.5 46.7 54.35 46.65 55.6 46.35 56.25 46.3 57.55 46 57.7 45.95 57.7 45.85 57.6 45.75 57.55 45.8 55.8 46 54.9 46.2 54.65 45.5 53.95 44.95
L 53.9 44.95 53.9 45
Q 54.3 45.4 54.5 45.7
M 44.05 34.9
L 44.15 34.85
Q 44.25 34.85 44.2 34.75
L 44.2 34.7 44 34.7
Q 43.95 34.65 43.9 34.75
L 43.9 34.8
Q 43.9 34.95 44.05 34.9 Z"/>
</g>
</defs>

<g transform="matrix( 1, 0, 0, 1, 0,0) ">
<use xlink:href="#Layer1_0_FILL"/>
</g>
</svg>
