
<svg xmlns="http://www.w3.org/2000/svg" version="1.1" xmlns:xlink="http://www.w3.org/1999/xlink" preserveAspectRatio="none" x="0px" y="0px" width="100px" height="100px" viewBox="0 0 100 100">
<defs>
<g id="Layer1_0_FILL">
<path fill="#000000" stroke="none" d="
M 49.6 52
Q 49.571875 52.084765625 49.5 52.1 49.47890625 52.150390625 49.4 52.15 48.5904296875 52.2205078125 47.85 52.25 48.7087890625 52.287890625 49.5 52.4 49.63828125 52.3919921875 49.8 52.45 49.9291015625 52.4828125 50.1 52.6
L 50.15 52.65
Q 50.0162109375 52.4138671875 49.85 52.1 49.8427734375 52.03984375 49.85 51.95 49.856640625 51.905078125 49.9 51.85 50.144921875 51.5580078125 50.35 51.35 49.8693359375 51.6162109375 49.6 52
M 61.15 53.8
Q 60.8 53.8 60.85 54.15 60.85 54.5 61.2 54.5 61.55 54.45 61.5 54.1 61.5 53.75 61.15 53.8
M 32 45.5
Q 32 45.2 31.7 44.7
L 31.15 43.7
Q 31.05 43.5 30.85 43.65 30.7 43.75 30.8 43.95
L 31.3 44.95
Q 31.55 45.45 31.8 45.6 31.85 45.65 31.95 45.6 32 45.55 32 45.5
M 69.25 43.3
Q 69.2 43.25 68.9 43.15 68.5 43.05 68.55 43.5 68.6 43.9 68.95 43.8
L 69.25 43.6
Q 69.35 43.5 69.25 43.3
M 59.95 43.7
Q 59.75 43.85 59.95 44.05
L 60.9 45.2
Q 61.4 45.9 61.8 46.15 62 46.25 62.15 46.1 62.35 45.95 62.25 45.75 62 45.25 61.4 44.75
L 60.35 43.65
Q 60.15 43.5 59.95 43.7
M 50.35 45.35
Q 50.3724609375 45.4197265625 50.35 45.45 50.3107421875 45.5015625 50.25 45.5 48.32265625 46.3025390625 47.35 45.95 45.3115234375 45.6166015625 44.2 46.15 41.9654296875 48.6314453125 40.35 49.2
L 40.3 49.25 39 49.6
Q 38.9494140625 49.6140625 38.85 49.55 38.796484375 49.5580078125 38.75 49.5 38.6994140625 49.4189453125 38.7 49.3 38.776953125 47.9431640625 38.8 46.9 38.553515625 47.9423828125 38.25 48.95 37.589453125 51.03203125 36.8 51.15 36.209765625 52.25078125 35.7 52.6 35.1798828125 53.0287109375 34.75 52.8 33.81015625 54.4421875 32.8 55.65 33.1119140625 56.21328125 32.35 59.05 33.478515625 56.574609375 33.4 55.85 33.399609375 55.8240234375 33.4 55.75 33.4392578125 55.71796875 33.45 55.65 34.7107421875 54.4384765625 35.25 53.95
L 35.3 53.95
Q 36.6259765625 52.73671875 37.25 52.8 37.7267578125 52.7912109375 38.5 52.45 38.561328125 52.45 38.6 52.45 40.3744140625 52.5515625 40.95 53.45 42.3052734375 53.7142578125 43.4 54.5 43.8384765625 54.8044921875 44.2 55.15 44.0283203125 54.8572265625 43.8 54.45 43.4396484375 53.6869140625 43.2 53.4 43.1470703125 53.3353515625 43.15 53.25 43.146875 53.1654296875 43.2 53.1 43.259375 53.0248046875 43.35 53
L 44.15 52.8
Q 45.0140625 52.5658203125 45.8 52.4 44.8283203125 52.509765625 44.1 52.55
L 42.75 52.65 41.4 53.35
Q 41.355859375 53.4150390625 41.25 53.4 41.1880859375 53.3880859375 41.1 53.3 41.062109375 53.2619140625 41.05 53.15 40.959765625 52.88046875 39.5 52.1
L 39.5 52.1
Q 39.4265625 52.073046875 38.6 52 37.7724609375 51.928125 38.25 51.4 38.718359375 50.9310546875 39.75 50.5 40.844921875 50.0568359375 40.95 50.05 43.4826171875 50.0912109375 48.2 48.8 48.482421875 47.9541015625 51.1 46.3 51.1943359375 46.2845703125 51.25 46.3 51.362109375 46.3119140625 51.4 46.35 51.521484375 46.4728515625 51.95 47.2 52.6671875 47.284375 53.45 47.75 53.9716796875 47.3255859375 54.55 47.5 54.6359375 47.51953125 54.65 47.55 54.731640625 47.64140625 54.75 47.7 54.7583984375 47.78984375 54.7 47.85 54.331640625 48.7052734375 54.7 49.1
L 57.2 49.65
Q 59.5794921875 48.394921875 62.1 51.1 62.639453125 51.7408203125 64.4 51.6 64.52265625 51.590625 64.6 51.65 66.364453125 53.0400390625 68.65 55
L 64.75 50.05 62.65 50.05
Q 62.547265625 50.0490234375 62.45 49.95 62.426953125 49.928125 62.4 49.85 59.4546875 47.6765625 58.4 47.55 57.3857421875 47.41015625 55.05 46.15 52.7662109375 44.9048828125 51.5 44.95 50.9927734375 45.098828125 50.35 45.35
M 44.75 47.5
Q 45.05 46.6216796875 46.9 46.85 49.743359375 46.428125 47.6 48.4 43.6 49.65 42.85 49.45 43.1 48.6 44.75 47.5 Z"/>
</g>
</defs>

<g transform="matrix( 1, 0, 0, 1, 0,0) ">
<use xlink:href="#Layer1_0_FILL"/>
</g>
</svg>
