
<svg xmlns="http://www.w3.org/2000/svg" version="1.1" xmlns:xlink="http://www.w3.org/1999/xlink" preserveAspectRatio="none" x="0px" y="0px" width="100px" height="100px" viewBox="0 0 100 100">
<defs>
<g id="Layer1_0_FILL">
<path fill="#000000" stroke="none" d="
M 64.45 56.45
L 64.2 57.15 64.25 58.3 64.45 56.45
M 37.4 42.65
Q 37.35 42.55 37.25 42.5 36.5 42.55 37.25 42.8 37.5 42.9 37.4 42.65
M 43.6 46.25
L 43.55 44.75 43.3 43.75 43.6 46.25
M 46.9 38.55
Q 47.55 38.5 47.05 38.2 46.7 38.1 46.85 38.45 46.85 38.5 46.9 38.55
M 90 43.2
L 89.3 43.3 88.3 42.75 91 41.3 91.95 41.05 93.55 41.45 92.65 40.5 93.05 37.95 92.15 40.3 90.6 40.55 90.3 38.95 91.8 35.8 89.8 38.45 88.5 37.4 89.65 38.9 89.4 40.5 85 41.4 83.9 41.85 83.1 42 79.05 44.55 77.95 45.05
Q 77.45 44.8 76.55 44.6 74.8 44.6 72.85 44 72.6208984375 43.9427734375 72.4 43.9
L 68.6 43.6 66.6 44.75 64.65 43.95 63.05 42.85 57.4 46.35
Q 56.571875 46.3861328125 55.9 46.9 55.6 47.15 55.15 47.05 53.8 47.25 52.5 47.55 52.05 47.75 51.9 47.95 50.95 48.65 50.4 49.65
L 49.35 48.05 46.9 47.15 45.45 45.65 45.45 45.7 46.15 47.85 48.45 49.55 49.9 55.3 48.5 54.35 43.4 52.05 36.5 51.15 36 50.8
Q 35 50.9 33.95 50.35
L 33.55 50.3
Q 32.2 49.95 30.9 49.55 30.25 49.35 29.55 49.05 28.55 48.8 28 47.9 27.1 46.65 26.4 45.5
L 25.55 43.55 26.35 41.85
Q 27.8 38.75 27 35.5 26.8 34.65 26.6 33.95 26.2 32.8 25.6 31.6 25.5 31.65 25.6 32.5 25.8 34.9 25.9 37.25 25.95 38.1 25.9 38.85 25.75 40.45 24.4 41.35
L 23.55 43.25 24.3 45.55 25.4 47.15 26 47.4 26.4 48.3 26.05 48.25 19 46.7 16 45 3.3 43.65 11.25 45.25 11.95 45.6 15.3 46.7 18.15 48.1 18.8 48 26.8 49.75 27.2 49.7 27.75 50.05 29.55 50.55 25.85 52.1 25.2 53.7 25.55 57.45 26 58.35 26.55 60.35 27 57.65
Q 25.7015625 55.45 26.85 53.25
L 27.35 52.55 30.2 51.3 32.2 51.65 32.85 51.5 41.8 53 46 54.6 51.6 57.95 50.55 62.65 53.45 57.9 51.5 53 53.3 48.75 57.4 48.15 63.15 44.85
Q 63.5 45.25 64 45.35 65 45.75 66.15 46 67.1 46.15 67.95 45.5 68.55 45 69.3 44.8 69.45 44.8 69.55 44.65
L 71.55 44.85 77.55 46.15 76.1 48.6 78.5 46 79.95 45.9 80.35 45.45 80.6 44.55 81.5 44.5 82.1 44 83.3 43.85 84.55 42.9 94.1 47.35 94.65 47.35
Q 96.8 45.774609375 98.95 46.65 96.4072265625 45.02578125 94.2 45.75
L 93.6 45.7 90.85 43.95 90 43.2 Z"/>
</g>
</defs>

<g transform="matrix( 1, 0, 0, 1, 0,0) ">
<use xlink:href="#Layer1_0_FILL"/>
</g>
</svg>
