
<svg xmlns="http://www.w3.org/2000/svg" version="1.1" xmlns:xlink="http://www.w3.org/1999/xlink" preserveAspectRatio="none" x="0px" y="0px" width="100px" height="100px" viewBox="0 0 100 100">
<defs>
<g id="Layer1_0_FILL">
<path fill="#000000" stroke="none" d="
M 47.2 54.9
Q 47.3 55.05 47.5 54.95 47.65 54.9 47.6 54.75 47.5 54.55 47.35 54.65 47.15 54.75 47.2 54.9
M 57.35 50
Q 57.25 50 56.75 50.2 56.65 50.25 56.7 50.35 56.75 50.45 56.85 50.45 57.35 50.2 57.45 50.15 57.45 50.1 57.45 50.05 57.45 50 57.35 50
M 60.9 67.8
Q 60.85 67.7 60.8 67.7 60.65 67.7 60.6 67.8 60.5 67.85 60.55 67.9 60.55 68 60.65 68 60.75 68 60.85 67.9 60.95 67.9 60.9 67.8
M 69.05 60.45
Q 68.9328125 60.57890625 68.75 60.7
L 69.2 60.7 69.05 60.45
M 37.05 51.05
Q 37.1 51.3 37.2 51.6
L 37.25 51.6
Q 37.45 51.35 37.3 51.25 37.3 51.05 37.05 51.05
M 39.35 51.45
L 39.8 51.6
Q 39.85 51.55 39.85 51.5 39.9 51.4 39.85 51.4 39.7 51.3 39.4 51.3 39.3 51.25 39.3 51.35 39.3 51.4 39.35 51.45
M 78.95 43.7
L 78.7 43.6 78.8 43.75
Q 78.85 43.7 78.95 43.7
M 59.6 38.35
Q 59.45 38.7 59.2 39.25 60.15 38.2 61.35 36.9
L 60.6 37.55 60.55 37.6
Q 59.95 37.85 58.8 38.4 58.75 38.4 58.75 38.5
L 58.8 38.5 59.6 38.35
M 55.9 35.65
L 55.95 35.75 56 35.75 55.95 35.65 55.9 35.65
M 55.6 35.3
Q 55.6 35.4 55.65 35.45 55.9 35.6 56 35.6 56.05 35.65 56.1 35.55 56.15 35.45 56.05 35.4
L 55.75 35.25
Q 55.6 35.2 55.6 35.3
M 54.45 32.8
Q 54.45 32.9 54.5 32.9
L 54.65 32.8
Q 54.7 32.8 54.7 32.75 54.65 32.7 54.6 32.65
L 54.45 32.75
Q 54.4 32.75 54.45 32.8
M 79.7 43.55
L 79.55 43.35 79.5 43.6
Q 79.6 43.6 79.7 43.55
M 81.6 42.85
Q 83.3873046875 42.495703125 82 42.6 80.616796875 42.7556640625 74.25 44.55 74.35 44.35 74.45 44.15 76.3 40.3 77.55 37.05 77.7 37 77.75 36.9 77.9 36.7 77.8 36.45
L 77.75 36.35
Q 78.35703125 34.745703125 80.7 29.15 77.93984375 34.0494140625 76.7 35.3
L 75.15 34.2 70.85 33.15 74.95 35
Q 75.95 36 76.3 36.35
L 75.35 39
Q 73.5 43.35 73.05 44.95
L 72.8 45.1
Q 72.2 45.4 71.65 45.7 66.65 46.5 60 46
L 59.7 46 59.7 49.4
Q 59.1 49.95 58.55 50.3
L 57.6 50.7 57.55 50.7
Q 56.35 51.65 54.35 52.15 52.15 52.65 51.75 53.05 51.15 53.45 51.5 54.65 51.7 55.45 51.1 56.55
L 51.05 56.65
Q 50.6357421875 56.933203125 50.15 57.25 49.736328125 57.4568359375 49.1 57.85
L 47.05 58.55
Q 46.05 58.5 45.55 58.5 42.1 57.15 38.2 55.7 37.9 55.45 37.55 55.3 52.0697265625 51.6953125 39.25 54.25 37.074609375 54.5109375 35.9 54.55 34.35 54.15 32 54.25 31.88125 53.42890625 37.1 46.9 39.2732421875 45.740234375 41.2 43.8 39.3154296875 45.6169921875 36.85 46.2 32.1044921875 52.21953125 29.35 53.75 28.9 53.95 28.85 54.35
L 27.45 54.15
Q 25.60390625 54.2630859375 24 54.55 22.39609375 54.8369140625 20.1 54.75
L 15.55 55.65 20.3 55.2
Q 20.85 55.1 21.45 55.2 22.4 55.35 24.25 55.3 26.2 55.25 27 55.35 28.5 55.55 31.7 55.75 33.5 56.15 34.55 56.6
L 34.65 56.6
Q 37.4 56.6 39 57.15
L 39.05 57.15 39.1 57.1 52.55 62.2 52.6 62.2 52.6 62.25
Q 52.8 62.4 52.95 62.2 53 62.15 53 61.95
L 53 61.8 52.85 61.75
Q 50.8 60.75 47.65 59.4 49.697265625 59.053515625 52.1 58 52.2587890625 58.05546875 52.4 58.1
L 52.45 58.1
Q 52.5 58.05 52.45 58.05 52.3453125 57.99296875 52.25 57.95 53.613671875 57.331640625 55.1 56.5 58.4 57.25 62.8 53.8 63.45 54.15 63.55 56.3 64.65 56.45 66.6 57.05 67.380078125 57.6240234375 66.75 59 66.460546875 59.9650390625 65.5 60.55 65.6 61.7 65.85 62.45 65.9419921875 62.707421875 66 62.85
L 66 62.1
Q 67.8705078125 62.9578125 66.1 66 68.917578125 63.30625 66.5 61.1
L 67.65 59.05 67.65 57.25 67.05 56 64.8 55.15 64.2 52.5
Q 68.2 49.05 70.35 47.95 71.4 47.35 73.35 46.2
L 73.3 46.2
Q 73.4 46.15 73.5 46.15
L 73.75 46.15 73.75 45.9
Q 73.75 45.75 73.7 45.7 74 45.45 74.4 45.2 76.95 43.75 78.9 43.45
L 81.35 47.45 79.9 44.4 79.3 43.4 79.45 43.35
Q 79.5 43.35 79.55 43.35 79.8041015625 43.2513671875 81.6 42.85
M 68.45 47.8
L 69.25 47.5
Q 65.945703125 48.9779296875 63.3 50.15
L 63.2 50.25 62.95 51.2
Q 59.15 56.1 55.55 55.45 53.45 56.5 51.8 57.15
L 51.8 57.1 51.9 57.05
Q 52.3087890625 56.550390625 53 54.9 52.0607421875 54.0236328125 54.25 52.95 56.5025390625 51.9201171875 58.95 50.95
L 60.75 50.2
Q 60.75078125 48.560546875 60.6 46.85 60.98125 47.087109375 62.4 47.35 62.68125 47.51953125 62.2 49 62.4025390625 48.8556640625 61.7 51.25 63.0033203125 48.916796875 62.75 49.2 63.36640625 47.8365234375 63.55 47.35 64.9322265625 47.420703125 70.5 46.55 68.839453125 47.0798828125 67.35 47.25 66.4220703125 47.933984375 65.7 48.25 66.5078125 48.0857421875 68.45 47.8
M 73.95 44.7
Q 73.9 44.75 73.85 44.75 73.85 44.7 73.9 44.7
L 73.95 44.7
M 50.85 57.25
L 50.65 57.3
Q 50.7623046875 57.2546875 50.85 57.2
L 50.85 57.25
M 47.45 59.4
L 47.55 59.35 47.6 59.35 47.45 59.4 Z"/>
</g>
</defs>

<g transform="matrix( 1, 0, 0, 1, 0,0) ">
<use xlink:href="#Layer1_0_FILL"/>
</g>
</svg>
