
<svg xmlns="http://www.w3.org/2000/svg" version="1.1" xmlns:xlink="http://www.w3.org/1999/xlink" preserveAspectRatio="none" x="0px" y="0px" width="100px" height="100px" viewBox="0 0 100 100">
<defs>
<g id="Layer1_0_FILL">
<path fill="#000000" stroke="none" d="
M 42.2 61.35
Q 42.15 61.35 42.1 61.35
L 42.05 61.45 42.2 61.35
M 66.7 52.2
Q 66.6 51.95 66.15 52.05
L 65.8 52.2
Q 65.55 52.35 65.7 52.65 65.65 52.7 65.75 52.8 65.9 52.85 66.1 52.8
L 66.45 52.65
Q 66.8 52.5 66.7 52.2
M 69.4 50.25
L 69.45 50.3 69.5 50.3 69.4 50.25
M 72.15 50.95
L 72.05 50.9 72.1 50.95 72.15 50.95
M 60.65 41.4
Q 57.8 42.5 56.4 43.1 54.1 44.15 52.65 45.35 52.45 45.5 52.6 45.65 52.7 45.75 52.85 45.65 54.25 45.1 56.8 43.65 59.35 42.2 60.75 41.6
L 60.65 41.4
M 82.05 53.4
L 82.05 53.35
Q 81.2 53.1 79.6 52.6
L 79.6 52.55
Q 77.2 51.85 75.45 50.75
L 75.25 50.55 75.15 50.55
Q 74.05 50.6 73.45 50.35 73.35 50.25 73.05 49.55
L 72.95 49.15 72.6 49.25
Q 70.55 49.05 70.1 48.4 69.95 47.8 70 47.65
L 68.25 47.65
Q 68.007421875 46.876953125 66.95 45.25 67.0556640625 47.0541015625 66.85 47.7 65.994921875 46.4236328125 65.75 46.5
L 65.7 46.5
Q 65.65 46.5 65.6 46.5 65.25 46.35 65 46.3
L 64.9 46.3 63.3 47.9 60.2 47.4
Q 58.55 47.15 53.7 46.75 52.9 46.65 52.2 46.5
L 52.15 46.5
Q 52.1 46.5 51.95 46.5
L 49.25 46.2
Q 47.85 45.25 47.7 44.05 47.6 43.55 47.5 43
L 47.45 42.9 47.45 42.85
Q 47.4 42.45 47.35 42.2 47.301171875 42.2 47.3 42.25
L 47.3 42.2
Q 47.25 41.85 47.2 41.9 47.15 41.6 47.1 41.3 46.95 40.8 46.6 39.65 46.4 38.7 46.7 38.2
L 46.7 38.05
Q 46.7 37.95 46.65 38.1 46.6 38.05 46.55 38 46.45 37.95 46.45 38.05
L 46.45 38.1
Q 46.4 38.1 46.4 38.05 46 38.55 46.4 40.1 46.45 40.35 47 42.2 47.1 42.55 47.15 42.95
L 47.15 43.2
Q 47.15 43.3 47.2 43.3
L 47.4 44.8 47.25 44.8 46.7 44.55
Q 43.6 43.75 39.95 43.05 36.25 43.7 32.9 44.25
L 32.8 43.75
Q 32.9 43.35 33.1 42.95 33.2 42.7 33.1 42.65 33 42.45 32.7 42.55 32.55 42.6 32.3 42.85 31.8 43.2 30.7 44.15
L 30.7 44.2 30.45 44.35 30.45 44.3
Q 26.55 45 23.65 45.35 22.4541015625 45.315234375 18.35 42.05 20.3 44.6 21.75 45.5
L 14.3 46.45 23.9 46.45
Q 25.855078125 46.5607421875 26 46.55 26.19921875 46.5890625 27.5 47.1 28.8482421875 47.660546875 27.65 47 26.4990234375 46.39140625 26.3 46.3
L 29.55 46.05
Q 28.25 48.8 27.1 51.45
L 27.05 51.55 27.4 52.4
Q 26.9 53.85 27.05 54.2
L 15.5 56.8 22.3 56.1 22.35 56.1 25.85 55.6
Q 24.2974609375 59.1568359375 24.75 58.7 25.1974609375 58.292578125 25.65 61.1
L 25.65 64.3
Q 26.7427734375 60.6541015625 25.95 58.3
L 25.95 58.25
Q 25.95 58.15 25.95 58.1 26.25 57.15 26.85 55.5
L 29.45 55.1
Q 30 55.05 30 54.35 30 54.2 29.95 54.05
L 30.55 49.15
Q 30.6 49.1 30.65 49 31.05 48.45 31.45 48.1
L 31.5 48.05 31.5 48 32.4 45.75
Q 34.55 45.55 36.7 45.3
L 36.75 45.35 37.25 45.35
Q 38.5 45.15 39.7 44.85 40.05 44.8 40.35 44.8
L 40.55 44.85
Q 41.9 45.25 43.25 45.65
L 41.05 45.9 40.35 45.9
Q 39 46.5 38.05 46.95 36.65 47.65 35.3 48.75 36.2 49.3 35.7 49.8 34.65 50.8 34.9 51.05 35.45 50.3 36.4 50.1 36.45 49 37 48.55 37.5 48.1 38.8 47.5 40.1 46.9 41.4 46.65 42.95 46.65 44.5 46.65
L 46.1 46.7
Q 45.95 47.55 45.95 48 45.75 49.25 45.2 50.4
L 45.55 51 45.6 51.05
Q 45.9 51.85 46.55 53.1
L 46.6 53.2
Q 46.65 53.3 46.7 53.45 46.75 54 46.8 54.3 46.75 54.85 46.6 55.45 46.45 55.8 46.65 56.75 46.65 56.7 46.75 56.65
L 46.75 56.6 46.8 56.55
Q 46.95 56.2 47.15 55.8 47.25 55.95 47.4 56.2 47.55 56.4 47.7 56.6 48.45 57.6 49.65 58.7 50.1 59.15 50.95 59.85
L 52.4 59.85 53.1 61.6 52.75 59.25
Q 52.08671875 59.915234375 51.3 59.2
L 51.3 59.15
Q 50.85 58.8 50.4 58.4 49.1 57.2 48.45 56.3
L 48.4 56.25
Q 47.85 55.5 47.65 54.45 47.7 54.3 47.65 54.2 47.85 53.35 47.85 52.55 47.35 51.85 47.1 50.45 46.8 49 47.05 48.25 48.35 48.2 51.05 48
L 51.3 48.25 51.4 48.25
Q 58.8 49.3 65.35 49.65 66 49.7 66.25 49.35 66.7 49.65 67.15 49.95
L 68.2 50.25
Q 68.5 50.1 68.85 50.05 69.15 50.05 69.5 50.05 69.65 50.15 69.8 50.3
L 70 50.4
Q 71.1 50.5 72.2 50.7 72.4 50.85 72.4 51.3
L 72.45 51.5 72.6 51.55
Q 74.05 51.8 75.65 52.3
L 75.7 52.55 75.75 52.6
Q 75.85 52.7 75.95 52.7
L 76.05 52.7
Q 76.5064453125 54.2353515625 79 58.45 78.2572265625 54.7560546875 77.55 53.2 78.8826171875 53.654296875 84.4 54.5 82.116015625 53.4220703125 82.05 53.4
M 76.55 52.4
L 76.65 52.35 76.6 52.4 76.55 52.4 Z"/>
</g>
</defs>

<g transform="matrix( 1, 0, 0, 1, 0,0) ">
<use xlink:href="#Layer1_0_FILL"/>
</g>
</svg>
