
<svg xmlns="http://www.w3.org/2000/svg" version="1.1" xmlns:xlink="http://www.w3.org/1999/xlink" preserveAspectRatio="none" x="0px" y="0px" width="100px" height="100px" viewBox="0 0 100 100">
<defs>
<g id="Layer1_0_FILL">
<path fill="#000000" stroke="none" d="
M 54.1 71.2
Q 54.05 71.25 54.1 71.35 54.4 72.35 55.6 74.4 55.65 74.5 55.75 74.5 55.85 74.4 55.75 74.3 54.75 72.3 54.2 71.25 54.2 71.2 54.1 71.2
M 41.25 66.7
Q 41.35 66.7 41.4 66.6
L 41.6 65.95
Q 41.55 65.85 41.45 65.85 41.35 65.8 41.3 65.9 41.2 66.1 41.15 66.55 41.1 66.7 41.25 66.7
M 52.1 56.5
Q 52.35 56.4 52.2 56.1 52.1 55.85 51.85 55.95 51.6 56.05 51.7 56.3 51.85 56.6 52.1 56.5
M 37.35 64.7
Q 37.15 64.7 37 64.7
L 37.15 64.8 37.35 64.7
M 23 44
Q 23.15 44.05 23.2 43.95 23.4 43.55 23.4 43.45 23.45 43.35 23.35 43.25 23.2 43.2 23.15 43.35
L 22.9 43.8
Q 22.85 44 23 44
M 23.5 43.55
L 23.65 43.5 23.65 43.45 23.5 43.5 23.5 43.55
M 25.35 35.45
L 26.3 36.6 26.35 36.65
Q 26.75 37.55 27.55 39.3 27.6 39.35 27.7 39.35 27.75 39.3 27.7 39.25
L 27.4 37.95 27.45 38.05
Q 28.05 38.3 28.85 38.7 27.3 37.25 25.35 35.45
M 19.4 45.65
L 19.25 45.45
Q 19.25 45.4 19.15 45.4 19.1 45.45 19.05 45.5
L 19.15 45.7
Q 19.15 45.8 19.25 45.75 19.4 45.75 19.4 45.65
M 66.6 27.2
L 66.75 27.4
Q 66.8 27.45 66.9 27.4 67 27.4 67 27.35
L 66.95 27.05
Q 66.95 26.9 66.7 26.9
L 66.65 26.95
Q 66.5 27.05 66.6 27.2
M 68.55 25.5
Q 68.45 25.55 68.5 25.6
L 68.7 25.7
Q 68.8 25.75 68.8 25.7 68.8 25.65 68.75 25.65
L 68.55 25.5
M 71.15 36.3
Q 71.15 36.5 71.25 36.6 71.35 36.75 71.45 36.7 71.6 36.65 71.55 36.5 71.55 36.4 71.45 36.2 71.4 36.1 71.25 36.15 71.1 36.2 71.15 36.3
M 74.05 27.65
L 73.95 27.4
Q 73.9 27.55 73.9 27.7 73.75 28.2 73.5 28.7 73.55 28.75 73.6 28.7 73.85 28.2 74.05 27.7
L 74.05 27.65
M 53.95 48.95
Q 53.85 49.05 53.9 49.15 54.45 50.4 55.6 52.15 56.15 53.15 57.4 55.05 57.5 55.2 57.7 55.1 57.8 55 57.7 54.85 56.3 52.3 55.55 51.05 56.4 50.2 56.85 48.75
L 56.85 48.7
Q 56.8 48.65 56.75 48.7 56.35 49.55 56 50.15
L 55.45 50.85
Q 54.65 49.55 54.2 49 54.1 48.9 53.95 48.95
M 89.2 48.75
L 89.2 48.8
Q 89.15 49.6 88.6 49.5 88.4 49.5 88.2 49.65 87.9 49.75 87.6 49.9 87.25 50.05 86.6 50.1
L 86.6 50.2
Q 86.15 50.2 85.9 50.3
L 85.85 50.3
Q 85.45 50.55 84.75 50.2
L 84.65 50.15
Q 84.3 49.9 84.05 49.85
L 84 49.9
Q 83.65 49.8 83.35 49.6 83.2 49.5 82.8 49.5 82.75 49.55 82.65 49.55
L 81.65 51.15 81.25 51.25
Q 81.2 51.15 81.2 51.05 81 50.75 80.8 50.7 80.4 50.65 80.05 50.65 79.45 50.55 79 50.25 78.9 50.1 78.7 50.05
L 78.65 50.05
Q 78.35 50.05 77.95 49.95
L 77.9 49.95
Q 77.95 50.05 77.9 50.1 77.7 50.8 77.3 51 77.25 51.05 77.25 51.1
L 71.75 48.8 67.5 44.9
Q 65.5 43.9 63.55 42.7 62.75 42.25 62 41.75 60.9 40.75 60.3 39.95
L 60.2 40.2 60.2 40.1
Q 60.3 38.85 59.95 37.35
L 60 37.25 59.85 36.9 59.45 36.5 59.45 39.75 58.7 38.8
Q 58.8416015625 39.3525390625 58.85 40.15
L 57.45 37.65 56.85 37.5 56.85 42.1 57.35 41.8 57.9 42.1 58.15 42.6 67.25 46.1 72.05 50.4
Q 73.5 50.55 74.1 51.65 74.7 52.5 76.1 53.3 75.9 53.65 75.55 53.9 75.1 54.1 74.65 54.2 74.6 54.2 74.55 54.3
L 74.55 54.35
Q 74.45 54.8 74.15 55.15 74 55.35 73.9 55.65 73.9 55.85 74.05 56.25 74.25 56.7 74.5 57 75 57.5 75.05 57.75
L 75.1 57.8
Q 75.25 57.95 75.45 58.25 75.8 58.6 76.1 59.05
L 76.1 59.1
Q 76.45 59.65 76.5 60.2
L 76.5 60.25
Q 76.55 60.7 76.25 60.8 76.1 61.05 75.7 60.95 75.35 60.9 75.15 60.85 75.1 60.85 74.6 60.95 74 61 73.75 61 73.65 60.95 73.15 61.15 72.4 61.55 72.3 61.4 72.25 61.4 72.25 61.35 72.2 61.35 71.85 61.35 71.65 61.4 69.9 60.7 69.25 60.45 68.2 61.6
L 66.55 58.95 67.45 52.5 64.7 49.1 58.7 43.75 60.3 47.05 60.3 47.05 60.35 47.1 64.25 52 64.2 59 64.45 59.3 64.45 60.5 65.2 62.2 65.25 62.25 65.25 62.3 59.2 64 56.4 62.85 54.95 62.75 54.4 63 49.6 63.35
Q 49.45 63.45 49.35 63.55
L 44.85 65.15 41.3 63.2 40.95 62.4 38.35 62.85 36.1 62.55
Q 36.6703125 61.7794921875 38.3 61.25 37.6421875 59.9205078125 38.05 58.85 37.653125 58.2888671875 37.2 60.8 36.1001953125 60.72578125 35.75 61.35 33.6763671875 61.1455078125 33.95 59.85
L 35.1 56.4 38.65 52 41.65 50.8 41.75 50.55 42.4 50.1 42.5 48.45 42.55 48.35 45.65 44.85 49.85 45.45 51.35 43.45 52.65 42.3 48.65 43.95 45.6 42.6 45.5 42.65 44.45 42.65 44.4 42.7 41.65 45
Q 41.7 44.8 41.75 44.65 42.63359375 43.03515625 44.9 41.7 44.9837890625 41.934375 45.15 42.35 45.2 42.5 45.35 42.4 45.5 42.35 45.45 42.2 45.277734375 41.7693359375 45.15 41.5 46.5296875 40.7716796875 48.35 40.1
L 51.2 35.9 51.15 35.85
Q 48.55 38.55 46.9 38.1 45 40.4 41.35 41.7 41.35 41.75 41.3 41.8
L 39.05 46.4
Q 38.9 46.6 39.2 47
L 38.4 47.65 38.05 48.9 36.3 51.3 35.65 51.55 33.35 55.9 32.65 60.25 26.35 58.35
Q 20.9587890625 57.712890625 19.45 57.1
L 16.05 59.6
Q 9.7 57.2 7.8 56.5 8.7 55.65 10.6 53.2
L 10.6 53.15 11.05 52.6 10.75 52.3 10.2 52.85
Q 7.7 55.5 6.55 56.05
L 6.4 56.8 6.45 57.8 6.5 57.8
Q 7.9 57.65 9.5 58.35 10.3 58.65 15.8 61.15
L 20.45 58.55 27.65 60.05 29.2 60
Q 29.06640625 60.8611328125 28.8 60.95 28.45 61.05 27.7 61.3 27.1 61.55 26.9 61.6 26.75 61.8 26.15 62.05
L 26.15 62.1
Q 25.85 62.25 25.45 62.3
L 24.95 62.7
Q 24.7 63.15 24.65 63.25 24.45 63.8 24.25 64.3 24 64.75 23.8 65.05 23.7 65.2 23.5 65.65
L 23.55 65.7
Q 23.3 66.35 23.15 66.95
L 23.25 67
Q 23 67.5 22.9 67.85 22.85 68.2 22.9 68.6 22.9 68.8 22.95 69 23.05 68.75 23.4 68.5
L 23.45 68.5
Q 24.05 68.1 24.45 67.9 24.65 67.8 24.65 67.55
L 24.65 67.5
Q 24.75 66.65 25.4 66.3 25.75 66.05 25.75 65.8
L 25.85 65.75
Q 25.95 65.2 26.1 64.75
L 26.25 63.75
Q 26.45 63.65 26.5 63.6 26.55 63.6 26.6 63.55 26.6 63.4 27 63 27.5 62.35 28.3 62.25 28.75 62.25 29 62.35 29.05 62.3 29.1 62.3
L 29.1 62.4 29.15 62.4
Q 29.45 62.45 29.5 62.8 29.6 63.05 30.65 64.05 30.65 63.65 30.7 63.15 30.75 62.9 30.85 62.7
L 34.3 63.15 35.15 63.65
Q 35.3 63.5 35.5 63.35
L 39.3 63.85 34.1 68.75
Q 33.6 68.75 33.1 68.75 33.25 68.9 33.3 69.05
L 27.5 71.35
Q 27.2 71.45 27.3 71.55
L 27.3 71.6
Q 27.6 71.75 27.8 71.65
L 35.2 70.1 39.85 65.3 44.95 66.8 49.75 64.85 51.75 65 52.65 65.35 54.9 65.25 55.55 64.75 57.15 65.7 57.8 65.3 58.2 65.65 59.05 65.75 64.75 64.2 65.15 64.5
Q 66 64.3 66.8 64.15 67.1 64.1 67.4 64.05
L 67.4 64.15 67.75 64.25 68.35 64.3 68.45 63.8
Q 70.65 63.35 72.55 62.95 78.3 61.6 78.45 61.25 78.3 61.05 78 60.5 77.95 60.2 77.8 60.1 77.2 60.05 77.1 59.15 77.1 58.6 76.9 58.35 76.7 57.95 76.55 57.7 76.5 57.45 76.2 56.85
L 76.25 56.9
Q 76.15 56.45 76.1 56.05 76.15 55.75 76.15 55.5 76.2 55.1 76.1 54.75 76.05 54.3 76.4 53.8 76.55 53.65 76.7 53.55 76.85 53.65 77 53.7 79.15 54.7 79.3 57.35
L 86.8 57.6
Q 87.15 57.95 87.5 58.3 87.5 58.1 87.6 57.95
L 93.35 60.4
Q 93.6 60.55 93.6 60.4 93.65 60.35 93.65 60.3 93.55 60.05 93.3 59.95
L 87 55.8 80.3 55.95 78.1 51.95 78.1 51.9
Q 78.45 51.6 78.75 51.65 78.95 51.65 79.1 51.7 79.3 51.55 79.35 51.6 79.55 51.65 79.65 51.85 80.05 51.85 80.25 52.15 80.55 52.35 81 52.6 81.1 52.6 81.1 52.65 81.35 52.4 81.65 52.25 82.75 50.9 82.9 51
L 82.95 50.95
Q 83.3 51.15 83.75 51.45 84.1 51.75 84.3 51.65 84.8 51.55 85.35 51.7
L 85.35 51.65
Q 85.75 51.75 85.95 51.6 86.3 51.45 86.85 51.3 87.3 51.25 87.5 51.15 87.75 51.15 88.15 50.85 88.45 50.75 88.65 50.45 88.95 50.05 89.25 49.9 89.4 49.75 89.4 49.5
L 89.45 49.5
Q 89.6 49 89.75 48.65 89.75 48.55 89.65 48.5 89.6 48.6 89.4 48.65 89.3 48.65 89.2 48.75 Z"/>
</g>
</defs>

<g transform="matrix( 1, 0, 0, 1, 0,0) ">
<use xlink:href="#Layer1_0_FILL"/>
</g>
</svg>
