
<svg xmlns="http://www.w3.org/2000/svg" version="1.1" xmlns:xlink="http://www.w3.org/1999/xlink" preserveAspectRatio="none" x="0px" y="0px" width="100px" height="100px" viewBox="0 0 100 100">
<defs>
<g id="Layer1_0_FILL">
<path fill="#000000" stroke="none" d="
M 32 40.45
Q 32.2 40.4 32.45 40.3 32.65 40.25 32.55 40.05 32.45 39.85 32.3 39.9 32.15 40 31.95 40.05
L 32 40.45
M 40.7 46.95
Q 40.75 46.8 40.6 46.8 39.55 46.1 39.1 46 39 45.95 38.9 46.1 38.9 46.2 39 46.2 39.25 46.45 39.75 46.65
L 40.5 47.05
Q 40.6 47.1 40.7 46.95
M 81.35 47.05
Q 81.45 47.05 81.45 46.95
L 80.15 45.05 80.3 45
Q 80.65 44.9 80.6 44.55 80.55 44.2 80.2 44.25 78.8 44.5 77.35 45.25 76.5 45.7 74.85 46.8 75.45 45.35 75.25 43.9 74.55 46.1 74.35 47.15
L 74.35 47.2 74 47.4
Q 72.4 48.5 68.55 47.85 66.5 49.2 64.8 53.05
L 64.7 53.15
Q 57.6 51 51.6 49.85
L 52 49.6
Q 52.1 49.5 52 49.35 51.9 49.25 51.75 49.35
L 51.1 49.75 50 49.55
Q 49.5 49.5 48.85 50.35 48.55 50.75 47.05 52 44.8 52.55 41 54.05
L 37.15 52.95 36.75 50.5 35.75 50.3
Q 35.85 50.25 35.85 50.15 35.8 50.05 35.7 50.05 35.45 50.1 35.2 50.2
L 33.6 49.9
Q 27.6 48.3 27.25 48.2
L 27.15 48.3 25.65 47.6
Q 22.45 46.2 18.65 45.6 18.5 45.6 18.65 45.7 21.2 46.55 22.5 47 24.75 47.75 26.3 48.45
L 27.15 48.9
Q 27.95 48.75 34.1 51.45
L 30.15 51.8
Q 24.25 51.05 24.35 51.3
L 22.55 51.25 26.75 52
Q 26.85 52 26.95 52 28.6 52.1 30 52.55 32.3 52.45 33.7 52.65
L 33.8 52.65
Q 34.55 53.55 34.9 54.55 35.05 55 45.25 55.5 45.95 56.9 45.35 57.95 44.7 59 43.9 60.15 44.8 59.1 46.6 57.8 47 55.4 45.35 54.8 43.6 55 42.55 54.65 42.45 54.6 42.35 54.55
L 42.75 54.45
Q 42.8 54.4 42.9 54.3 45.1 53.8 47.95 53 48.85 51.8 50.25 50.8 54.9 51.55 61.6 53.35 69 55.4 72.7 56.35 72.95 56.4 73.1 56.15 73.2 55.85 72.9 55.8 68.75 54.35 65.7 53.5 67.75 50.45 69.2 49.65 73.9 48.95 75.9 47.3 77.85 45.6 79.8 45.15
L 81.35 47.05 Z"/>
</g>
</defs>

<g transform="matrix( 1, 0, 0, 1, 0,0) ">
<use xlink:href="#Layer1_0_FILL"/>
</g>
</svg>
