
<svg xmlns="http://www.w3.org/2000/svg" version="1.1" xmlns:xlink="http://www.w3.org/1999/xlink" preserveAspectRatio="none" x="0px" y="0px" width="100px" height="100px" viewBox="0 0 100 100">
<defs>
<g id="Layer1_0_FILL">
<path fill="#000000" stroke="none" d="
M 41.45 58.9
Q 41.2 58.35 40.65 58.6 40.2 58.85 40.45 59.4 40.65 59.8 41.15 59.55 41.65 59.3 41.45 58.9
M 34.9 55.2
Q 34.7 55.65 34.9 56.25 35 56.45 35.25 56.4 35.5 56.4 35.65 56.2 35.8 55.75 35.7 55.3 35.6 55 35.3 55 35.05 54.9 34.9 55.2
M 60.55 46.4
L 60.7 46.8
Q 60.95 47.1 61.2 46.95 61.5 46.8 61.4 46.45
L 61.2 46.1
Q 61.05 45.85 60.8 46 60.5 46.1 60.55 46.4
M 44 48.5
L 42.85 47.25 35.95 38.15 42.4 48.4
Q 40.1 48.35 38.35 48.55 38.1 48.5 37.45 48.6
L 37.4 48.6 37.35 48.65
Q 33.05 51.55 30.9 53.1 29.58203125 52.0833984375 25.1 50.6 28.2421875 52.4869140625 29 52.95
L 29 52.9
Q 29.7 53.35 30.1 53.7 29.33046875 54.19296875 28.5 55.35 27.6716796875 56.5056640625 25.75 56.9 27.385546875 57.0525390625 28.85 56.35 30 55.65 33 53.35 34.55 52.25 37.3 50.1
L 43.6 50.1 46.45 54.2 45.45 51.45 44.85 50.4
Q 45.35 50.55 45.85 50.55 46.4 50.7 46.9 50.95 47.35 51.2 47.6 50.65
L 47.25 50.25 45.8 50 44.55 49.45 45.7 48.55 48.3 48.05 50.35 48.35
Q 50.9951171875 48.3125 51.65 48.35
L 54.05 48.7 57.15 50.15 58.3 52.2 58.6 53.45 59.5 52.75
Q 59.68515625 52.778515625 59.9 52.85
L 59.95 52.8 60 52.65
Q 60.05 52.45 60.8 51.95 61.7 51.6 63.4 52.8
L 63.55 52.9 63.7 52.85
Q 64.5 52.4 64.7 52.35 65.35 52.55 66.15 53.25
L 66.2 53.3 66.3 53.3
Q 68.4 53.45 70.65 54.35
L 70.7 54.35
Q 71.4796875 54.5322265625 75.6 55.5 70.4806640625 53.4044921875 68.9 52.9 70.640625 52.00625 73.25 48.2 69.0833984375 51.672265625 67.9 52.45 67.85 52.45 67.85 52.5 66.2 51.9 64.9 51.2
L 64.7 51.1 64.6 51.25
Q 64.25 51.55 63.95 51.55 63.05 51.1 62.2 50.5
L 62.15 50.45 62.05 50.45
Q 60.6865234375 50.6380859375 59.5 50.6
L 58 49.1 54.45 47.25 48.2 46.65 44.9 47.75 44 48.5
M 68.35 52.9
Q 68.3 52.9 68.25 52.9 68.3 52.85 68.35 52.85
L 68.35 52.9 Z"/>
</g>
</defs>

<g transform="matrix( 1, 0, 0, 1, 0,0) ">
<use xlink:href="#Layer1_0_FILL"/>
</g>
</svg>
