
<svg xmlns="http://www.w3.org/2000/svg" version="1.1" xmlns:xlink="http://www.w3.org/1999/xlink" preserveAspectRatio="none" x="0px" y="0px" width="100px" height="100px" viewBox="0 0 100 100">
<defs>
<g id="Layer1_0_FILL">
<path fill="#000000" stroke="none" d="
M 49.6 51.55
Q 48.8 51.65 48.75 51.85
L 48.9 51.95
Q 48.95 52 49.45 51.9 49.6 51.9 50.05 51.65 50.55 51.4 49.6 51.55
M 34.15 49.95
Q 34.85 49.85 35.05 49.7 35.35 49.5 34.6 49.6 33.9 49.7 33.6 49.9 33.45 50.1 34.15 49.95
M 74.75 29.95
Q 75.35 29.9 76.6 29.55
L 79.05 28.95
Q 79.45 28.85 79.4 28.8 79.3 28.7 78.8 28.8
L 76.4 29.35
Q 75.2 29.65 74.7 29.85 74.6 29.9 74.6 29.95 74.65 29.95 74.75 29.95
M 52.9 43.4
L 52.9 43.45
Q 52.9630859375 43.4314453125 53 43.4 52.9640625 43.4189453125 52.9 43.4
M 48.5 43.5
Q 49.1986328125 43.6267578125 50 43.95 51.3615234375 43.9986328125 52.8 43.4 51.1560546875 43.5810546875 48.5 43.5
M 91.2 35.8
Q 91.3375 35.86640625 91.45 35.9 83.0037109375 38.501953125 79.2 37.2
L 72.1 35.85 65.85 38.8 57.1 35.95 45.45 35.5 44.3 34.8
Q 40.95 33 40.05 32.55 39.21328125 32.148046875 35.75 32.95
L 37.4 30.6 34.75 32.5 33.55 31.8
Q 38.65 29.25 40.45 28.2 40.65 28.05 40.5 27.9 40.4 27.75 40.2 27.8 38.65 28.6 35.95 29.25 32.7 30 31.7 30.3 31 30.55 30.35 31 31.48984375 32.2134765625 29.15 33.65
L 24.05 37.3 23.85 37.4
Q 22 39.55 18.15 40.25 13.8 40.7 11.7 41.3 11.65 41.35 11.65 41.4 11.65 41.45 11.7 41.45 13.45 41.2 17.05 40.9 20.2 40.5 22.2 39.5 20.5 41.5 17.55 42.7 16.95 45.6 14.35 46.85 9.5787109375 52.7982421875 5.45 54.5 4.613671875 58.893359375 3.55 60.15 3.25 60.45 3.35 60.8
L 5.1 59.35
Q 4.7265625 58.0150390625 6.5 55.25
L 12.45 51.95 12.5 52.05
Q 12.8 52.15 14.45 53.2 14.4 54.25 12.6 54.8 12.1 56.05 11.15 56.6
L 11.15 57.3
Q 12.65 56.75 13 55.35 15.1 55.15 15.15 54.1 15.6 54.45 16.05 54.9 18.35 56.8 20.15 59.95 20.15 60.2 20.3 60.2
L 20.5 60.4
Q 21 61.25 21.55 62.3
L 22.65 63.8
Q 22.15 61.9 21.95 61.5 23.2 62.3 24.45 63 24.1 63.45 23.75 64 23.147265625 64.9818359375 19.5 70.9 23.4615234375 66.0400390625 24.65 64.05 24.85 63.65 25.05 63.3 25.5501953125 63.558203125 28.75 64.9 24.1232421875 62.416015625 21.15 60.05 19.85 57.7 18.1 55.8 16.85 54.4 15.15 52.95 15.15 52.1 15.15 51.15 15.15 51.1 15.15 51
L 15.15 48.9
Q 15.65 48.35 15.35 47.8 17.8 45.6 18.5 43.4 23.45 39.9 26.1 37.4 28.4 35.3 30.8 34.7 28.65 37.4 28.6 41.4 28.5 45.05 30.1 48.7 28.65 50.95 29.15 54.5
L 29.2 54.5
Q 28.9 52.05 30.25 48.95 32.2 53.1 35.4 55.15 35.45 55.2 35.5 55.15 35.55 55.1 35.5 55.05 30.7 51.65 29.3 43.65 28.4 38.4 31.9 34.6 34.1818359375 34.2990234375 36 34.05 37.8146484375 33.8501953125 40.35 34.7 43.1572265625 36.1216796875 44.05 37.75
L 42.5 41.05
Q 43.271875 41.593359375 41.15 47 42.2892578125 45.7279296875 43.7 41.65 44.593359375 41.9609375 45.95 43.75 45.5845703125 45.4703125 45.85 47.6 45.967578125 45.46015625 46.75 44 46.0623046875 41.5265625 45.85 41.35 45.55 40.45 45.95 39.5 46.4 38.6 47.4 38.35
L 48.1 38.2
Q 49.45 38.15 52.1 37.85
L 52.6 37.75 53.75 37.8
Q 55.3 37.85 56.15 37.65
L 55.9 40
Q 55.6109375 39.917578125 55.2 41.55 55.0759765625 42.50859375 54.4 43.15
L 52.9 45.4 52.9 45.35 52.8 45.5
Q 52.70625 45.6404296875 51.3 47.6 50.29296875 47.896484375 49.75 48.1 49.35 48.25 49.55 48.3 49.7 48.4 50.15 48.25 50.5603515625 48.164453125 51 48.05 49.7306640625 50.105078125 50.6 50.25
L 50.65 50.2
Q 50.65 49.85 51.3 48.9 52.0021484375 48.0326171875 52.2 47.7 52.513671875 47.612109375 52.85 47.5
L 55.9 46.65
Q 56.3 46.45 56.1 46.4 55.95 46.3 55.4 46.5
L 52.4 47.3 52.9 46.6 52.9 46.65 58.6 38.7 61.1 39.1
Q 63.18828125 39.25859375 66.35 40.85 68.730078125 38.773046875 72.4 37.9
L 78.25 38.3
Q 78.89921875 39.2658203125 78.3 40.1
L 78.25 40.1
Q 77.533203125 41.5705078125 76.4 42.05 76.35 42.1 76.4 42.1 76.4 42.15 76.45 42.15 76.95 42.15 77.55 41.95 78.2 41.65 78.55 41.5 79.25 41.25 80.45 41.25 81.65 41.25 82.2 41.15 82.35 41.2 82.55 41.25
L 82.35 41.35
Q 80.85 42.35 79 42.7 77.1 43.05 75.15 42.65 74.75 42.6 72.75 42.1 71.45 41.8 70.6 41.75 69.3 41.8 68.4 42.1 67.95 42.3 67.75 42.65 67.55 42.9 67 43.8 66.9 43.95 65.95 45.45 62.6 46.8 59.7 47.35 58.55 47.5 57.55 48.2 56.75 48.7 55.8 49.65
L 55.75 49.65
Q 55.15 49.6 54.85 49.6 54.5 49.55 53.9 49.35 54.35 49.55 54.85 49.7 55.5 49.8 55.7 49.75
L 54.35 51.15 54.35 51.2
Q 56.4 49.05 57.55 48.3 58.3 47.85 59.6 47.6 60.3 47.4 61.75 47.15 64.05 46.55 65.55 46 64.8 46.95 63.35 49.05 62 51.1 61.15 52.05
L 61.05 52
Q 60.75 52 60.35 52.2 59.75 52.35 59.6 52.45 58.55 52.65 57.65 52.65 57.55 52.7 57.6 52.8 57.6 52.9 57.7 52.9 58.45 52.9 59.7 52.7 60.55 52.5 60.95 52.35
L 59.95 53.5
Q 62.65 51.4 63.75 50.35 61.05 54.55 56.1 56.55 56 56.65 56.05 56.75 56.15 56.9 56.25 56.85 59.1 55.9 61.35 53.95 63.6 51.95 64.9 49.25 66.3 48.6 67.4 48.3 65.95 48.65 64.95 49.15
L 65.2 48.7
Q 66.8 46.3 67.65 45.2 69.25 43.2 74 44.1 77.75 44.75 80.15 44.3 80.4 44.2 80.65 44.15 80.9 44.1 81.1 44
L 81.05 44
Q 81.35 43.85 81.7 43.7 82.8 43.05 86.15 42.5 86.2857421875 42.49296875 86.65 42.25 86.85 42.05 87.1 42
L 87.15 42
Q 86.3759765625 40.99375 84.8 40.8 84.940234375 40.6041015625 81.3 40.45 80.3087890625 39.9828125 80.9 38.75 89.505859375 38.248828125 96.15 34.35 93.7587890625 35.23203125 91.65 35.85 91.3572265625 35.7650390625 91.2 35.8
M 14.6 52.35
L 14.55 52.3 14.5 52.85
Q 14 52.35 13 51.9
L 14.75 49.35 14.6 52.35 Z"/>
</g>
</defs>

<g transform="matrix( 1, 0, 0, 1, 0,0) ">
<use xlink:href="#Layer1_0_FILL"/>
</g>
</svg>
