
<svg xmlns="http://www.w3.org/2000/svg" version="1.1" xmlns:xlink="http://www.w3.org/1999/xlink" preserveAspectRatio="none" x="0px" y="0px" width="100px" height="100px" viewBox="0 0 100 100">
<defs>
<g id="Layer1_0_FILL">
<path fill="#000000" stroke="none" d="
M 42.25 42.2
Q 42.209765625 42.159765625 42.15 42.15
L 46.1 39.15 39.3 43.2
Q 42.5 42.2 42.25 42.2
M 83.3 50.05
L 86.7 51.55 89.7 51.55 92.45 50.5
Q 89.859375 50.5861328125 88.35 50.4 85.1296875 49.8169921875 83.9 48.45 79.4671875 48.9890625 78.5 48.6
L 75.1 51.1
Q 68.75 48.7 66.85 48 67.75 47.15 69.65 44.7
L 69.65 44.65 71.4 41.7 69.25 44.35
Q 66.75 47 65.6 47.55
L 65.4 47.5 65.35 47.5 65.3 47.55
Q 64.4 48.05 62.7 47.6 61.1 47.15 58.6 45.75 59.787109375 45.365234375 61.05 45.5 62.354296875 45.694921875 64.15 45.75 62.35 45.45 59.45 44.4 59.3240234375 44.347265625 59.55 43.3 60.9416015625 42.456640625 62.05 41.25 60.9103515625 42.1525390625 59.3 42.55 57.86796875 44.3978515625 57 44.7 57.2658203125 43.559375 58.4 42.6
L 55.55 44.3 53.1 44.3 51.95 44.45 40.85 44.05
Q 41.6 43.65 47.6 41.8
L 39.5 43.5 39.45 43.5 39.25 43.55 39.2 43.55
Q 39.15 43.6 39.1 43.65
L 38.8 43.8
Q 38.15 44.05 37.7 44.2 37.5 44.2 37.3 44.25
L 37.1 44.3 37.1 44.35
Q 36.85 44.35 36.65 44.35 35.95 44.2 35.9 44.2
L 35.85 44.2 35.8 44.25 33.05 45.25
Q 32.05 44.15 31.6 43.6 27.9935546875 41.7337890625 26.25 38.75 27.340234375 41.86484375 31.15 44.3 31.05 44.15 30.95 44
L 32.55 45.75 29.4 46.95 29.2 47.05 29.25 47.05
Q 25.85 49.25 25.5 49.45 23.2 50.7 21.35 51.1 21.1 51.15 20.95 51
L 20.85 50.9
Q 20.55 50.85 18.8 51.15
L 18.85 51.1
Q 17.7 51.35 15.95 51.4 13.45 51.45 12.75 51.55
L 12.7 51.55 10.65 51.95 10.7 52.3 11.45 52.3
Q 11.75 52.3 14.5 52.8
L 13 54.45
Q 11.15 55.55 10.85 56.95 10.9 57.9 9.35 58.75 10.5 59.4 11.45 58.3 12.6 56 13.9 55.6 15.75 52.3 17.15 52.25 18.1 52.25 19.75 52.45 19.75 52.5 19.75 52.6
L 19.75 55 21.15 59.2
Q 21.05 56.9 20.9 54.45 21.5 53.55 22.05 52.45 22.6 51.25 24.3 50.95
L 24.35 50.95
Q 26.7 49.9 29.55 48.8 29.8 48.8 29.95 48.65 34.8 46.8 36.6 46.05 36.65 46.05 36.7 46.1 39.25 47.75 42.6 48.9
L 42.55 48.9
Q 43.55 49.45 44.4 49.6
L 44.45 49.65
Q 46.5 50.55 47.6 52 47.0138671875 54.3455078125 48.9 57 47.866015625 54.65 48.9 52.3 48.2 51.15 47.75 50.65 47.35 50.15 46.85 49.75 47.2453125 49.75 49.15 49.45 49.187109375 49.390234375 49.2 49.3 49.9 48.55 53.8 47.15 49.15 48.1 48.4 48.75
L 47.6 48.7 46.4 48.8
Q 47.26875 48.759375 46.8 48.9
L 45.8 48.85 43.15 47.6 43.3 47.55
Q 44.45 47.55 47.3 47.1
L 48.15 46.95
Q 48.45 47.15 48.6 47.3
L 48.75 47.1
Q 50.9 46.6 53.9 45.75
L 54.95 46.1 55 46.15 65.15 49.35 65.2 49.35 65.5 49.3 65.55 49.3
Q 66.95 49.15 68.55 49.85 69.35 50.15 74.85 52.65
L 79.5 50.05 83.3 50.05
M 44.35 46.25
Q 44.5259765625 46.238671875 44.7 46.2
L 42.55 46.85 42.4 46.95 41.85 46.95 41.1 46.7 38.3 45.2 38.75 44.95 48.2 45.05
Q 48.1 45.2 48.35 45.3
L 47.7 45.5
Q 45.5806640625 45.95703125 44.35 46.25 Z"/>
</g>
</defs>

<g transform="matrix( 1, 0, 0, 1, 0,0) ">
<use xlink:href="#Layer1_0_FILL"/>
</g>
</svg>
