
<svg xmlns="http://www.w3.org/2000/svg" version="1.1" xmlns:xlink="http://www.w3.org/1999/xlink" preserveAspectRatio="none" x="0px" y="0px" width="100px" height="100px" viewBox="0 0 100 100">
<defs>
<g id="Layer1_0_FILL">
<path fill="#000000" stroke="none" d="
M 51.55 64.15
Q 51.5 64.2 51.55 64.25 52.65 65.35 54.15 66 55.25 66.5 55.05 65.85 55 65.75 54.95 65.8 54.85 65.85 54.9 65.9 54.95 66.1 54.15 65.75
L 53.3 65.25
Q 52.6 64.85 51.65 64.15 51.55 64.1 51.55 64.15
M 33.8 52.5
Q 33.7 52.45 33.65 52.5 33.55 52.55 33.6 52.65 33.7 53.15 33.6 53.35 33.55 53.55 33.7 53.65 33.9 53.7 33.95 53.55 34.1 53.25 34.05 53 34 52.7 33.8 52.5
M 29 45.3
Q 28.85 45.15 28.7 45.25 28.6 45.35 28.7 45.5
L 29.1 46
Q 28.6 46.4 28.45 46.45
L 28.4 46.5 28.45 46.55
Q 28.95 46.4 29.15 46.3
L 29.25 46.2
Q 29.8 46.95 30 47.15 30.15 47.25 30.25 47.15 30.35 47.05 30.3 46.9 30.2 46.7 29.65 46.1
L 29.55 46 29.7 45.8
Q 29.75 45.75 29.65 45.65 29.55 45.6 29.5 45.65
L 29.35 45.75 29 45.3
M 66.3 37.35
Q 66.4 37.7 66.5 38.1 66.55 38.25 66.75 38.2 66.95 38.15 66.9 38 66.85 37.65 66.75 37.35
L 66.3 37.35
M 86.7 66.1
Q 86.95 66.25 87.2 66.15 87.25 66.15 87.25 66.1 87.35 65.95 87.1 65.85
L 81.45 62.7
Q 81.55 62.5 81.7 62.4 81.2 62.35 80.7 62.25
L 75.75 56.25
Q 73.5 57.85 71.35 56.65 69.2 55.5 67.8 55.6 66.55 55.85 65.5 54.7
L 58.95 53.45 53.55 50.45 50.85 50.25
Q 52.266796875 48.9748046875 51.6 47.6 51.4546875 47.788671875 51.15 48.15 50.461328125 49.043359375 49.7 49.2 48.9470703125 49.4025390625 48.8 49.75 48.6 49.8 48.3 49.9 47.55 50.3 47.25 50.8 47.1 50.95 46.6 51.05 46.4 51.05 46.2 51.1 45.5 51.15 45.45 51.15 45.4 51.1 45.3 51.1
L 45.2 51.05 45.1 51.1
Q 45.05 51.1 45.05 51.05
L 45 51.1
Q 44.65 51.05 44.15 51
L 44.1 51.05
Q 43.85 51.05 43.65 51.1 43.25 50.7 42.8 50.2 42.4 49.55 42.25 48.95
L 42.3 48.95
Q 42.3 48.45 42.65 48.15 42.85 47.95 43.3 47.95
L 43.4 47.95
Q 43.85 47.9 44.05 48 44.25 48 44.9 47.85 45.7 47.55 45.95 47.55 46.05 47.55 46.2 47.5 46.45 47.4 46.8 47.25 47.85 46.7 48.05 46.85
L 48.1 46.85
Q 48.15 46.85 48.55 46.8 49 46.75 49.25 46.25 49.65 45.5 49.85 45.2 50.05 44.9 50.25 44.65 50.2 44.6 50.25 44.6 50.45 44.3 50.75 43.9 51.15 43.5 51.45 43.3 49.95 43.05 49.7 43.1 49.4 43.3 49.1 43.05
L 49 43.15
Q 49.05 43.096875 49.05 43 48.8 42.85 48.55 42.5 48.05 41.8 48.25 40.95
L 48.3 40.95
Q 48.4 40.4 48.5 40.35 48.5 40.25 48.5 40.2 48.5 40.15 48.45 39.9
L 49.15 39.15
Q 49.45 38.7 49.85 38.3
L 49.85 38.2
Q 50.05 38 50 37.6 49.9 36.8 50.5 36.2
L 50.55 36.15
Q 50.75 36 50.75 35.8 50.75 35.75 50.7 35.65 50.6 35.25 50.6 34.6
L 50.55 34.55
Q 50.55 34.1 50.7 33.85 50.5 33.95 50.3 34.05 49.95 34.3 49.7 34.55 49.5 34.85 49.2 35.35
L 49.1 35.3
Q 48.95 35.5 48.85 35.65 48.6 36.05 48.35 36.4
L 48.3 36.4
Q 48.05 36.9 47.95 37.05 47.85 37.4 47.6 37.9 47.35 38.35 47.05 38.9 46.95 39 46.8 39.5
L 46.75 40.15
Q 46.95 40.5 47.05 40.85
L 47 40.85
Q 47.15 41.5 47.1 41.75 47.15 41.95 47.35 42.6 47.65 43.4 47.75 43.7 47.9 44.05 47.1 44.85 46.6 45.35 46.2 45.6
L 46.15 45.6
Q 45.8 45.9 44.9 45.8
L 44.85 45.8
Q 44.3 45.7 44.05 45.9 43.5 46.15 43 46.3
L 43 46.35
Q 42.5 46.5 41.95 46.7 40.95 47 40.65 46.8 40.65 46.85 40.5 47.05 39.95 47.6 39.6 48 39.95 48.3 40.25 48.85 40.4 49.25 40.55 49.3 41.3 49.2 41.5 50.35 41.55 50.9 41.75 51.2 42.05 51.65 42.2 51.95 42.3 52.2 42.5 52.7 42.4 52.95 42.25 53.2 41.95 53.65 41.85 53.75 41.55 53.8 41.25 54.4 41.25 54.45 41.2 54.5
L 40.3 54.75
Q 39.95 54.75 39.55 54.6
L 39.55 54.55 39.5 54.6
Q 38.9 54.5 38.65 54.6
L 38.6 54.6
Q 38.4 54.6 38.2 54.7 37.9 54.35 37.6 53.9 37.55 53.75 37.5 53.6 37.15 53 36.75 52.9
L 36.65 52.8
Q 36.3 52.7 35.8 53
L 35.75 53
Q 35.3 53.45 35.05 53.45 34.9 53.45 34.6 53.35 34.5 53.35 33.35 54
L 33.3 54
Q 33.1 54.15 33 54.15 32.9 53.95 32.7 53.75 32.3 53.5 31.95 53.8 31.8 53.9 31.65 53.9
L 31.05 53.55 31 53.5 30.95 53.55 30.7 53.5 30.6 53.55 28.7 53.9 28.7 53.85
Q 28.1755859375 53.440625 28 53.6 27.87421875 53.75546875 26 54.5
L 25.95 54.55
Q 25.7 55.1 25.35 55.4
L 25.4 55.45 25.35 55.5
Q 25.15 55.75 25.05 55.95
L 24.9 55.9 24.8 56.8
Q 24.75 56.9 24.65 57.05
L 24.6 57.15
Q 24.5 57.35 24.35 57.45
L 24.3 57.5
Q 24.1 57.65 24 57.7
L 23.95 57.75 23.9 57.75
Q 23.75 57.9 23.6 58 23.3 58.05 22.95 58.2 22.2 58.4 21.8 58.8 21.45 59.15 21.05 59.4 20.9 59.5 20.85 59.55
L 16.8 58.85 16.65 58.9 11.2 63.1 16.9 60
Q 16.95 60.05 17 60 17.5 60.25 17.7 60.2 17.75 60.3 17.85 60.4 18.15 60.7 18.8 60.6 19.3 60.6 19.65 60.75 20.3 61 20.9 61.05 21.1 61.05 21.25 60.95 21.4 61 21.55 60.9 21.6 60.9 21.65 60.85 21.75 60.8 21.8 60.65
L 21.85 60.6 23.95 59.15
Q 24.05 59.2 24.1 59.2
L 24.15 59.15
Q 24.45 59.1 24.95 58.5
L 25 58.45 27.05 56.05 30.65 55.3 33.4 56.7 33.6 56.55 36.25 55.05 37.85 56.95 37.9 57 38.2 57.25 38.25 57.3 42.85 56.1 43.05 55.9 43.1 55.95 43.75 54.8 44.75 55.8
Q 44.9 55.7 44.95 55.6
L 45 55.55
Q 45.1060546875 54.9458984375 45.1 54.6 45.081640625 54.262109375 44.85 53.9 44.6681640625 53.5876953125 45.15 53.4 45.64375 53.20390625 45.65 53.15
L 46.8 53.2 47.15 53.1 47.2 53.05
Q 48.7 52.3 49.75 51.35
L 49.55 51.65
Q 50.6 51.65 52.1 51.9 55.25 53 58.15 54.45
L 64 55.5 69.85 58.8 75.25 58 79.3 63.55 86.7 66.1
M 32.35 54.65
Q 32.351171875 54.6982421875 32.4 54.75
L 32.35 54.7 32.35 54.65 Z"/>
</g>
</defs>

<g transform="matrix( 1, 0, 0, 1, 0,0) ">
<use xlink:href="#Layer1_0_FILL"/>
</g>
</svg>
