
<svg xmlns="http://www.w3.org/2000/svg" version="1.1" xmlns:xlink="http://www.w3.org/1999/xlink" preserveAspectRatio="none" x="0px" y="0px" width="100px" height="100px" viewBox="0 0 100 100">
<defs>
<g id="Layer1_0_FILL">
<path fill="#000000" stroke="none" d="
M 56.3 69.45
L 56.45 69.45 56.4 69.4
Q 56.344921875 69.4287109375 56.3 69.45
M 66.2 38.1
Q 66.275 38.4 66.35 38.7 66.4 38.85 66.6 38.8 66.8 38.75 66.75 38.6 66.7 38.25 66.6 37.95
L 66.2 37.95 66.2 38.1
M 88.35 57.9
Q 86.95 60 85.65 60.25 83.5 63.4 82.1 63.3 81.1 63.15 79.5 62.8 79.45 62.75 79.5 62.65
L 79.75 60.3 78.85 55.95
Q 78.65 58.25 78.45 60.65 77.869140625 61.5212890625 77.3 62.5
L 73.4 61.05 69.8 58.1 63.85 54.3 62.95 51.2 64 49.6 62.85 49.2 63.25 48.25 61.55 44.7 59.3 44.65 58.85 42.15 56.6 41.2 55.3 38.65 55.8 36.15 55.75 36.1
Q 55.9 35.5 55.75 35.3
L 55.8 35.25
Q 55.75 35.25 55.7 35.15
L 55.45 33.25 55.5 33.2
Q 55.5 33.1 55.55 33
L 55.55 32.45 54.75 32.05
Q 54.65 31.95 54.5 31.85 54.2 31.75 53.95 31.45 53.7 31 53.35 30.95 53.25 30.95 53.15 31 53.1 30.8 52.75 30.65
L 52.7 30.6 52.7 28.85 50.45 26.15 51.9 29.3 51.9 31.1 52.85 31.9 52.6 31.9 50.3 34.05
Q 50.25 34.05 50.15 34.05 49.8 34.1 49.35 33.95 48.95 33.9 48.4 34.1 48.05 34.1 47.8 34.15 47.65 34.1 47.5 34.15
L 47.4 34.1
Q 47.35 34.15 47.15 34.1
L 47.1 34.1
Q 46.95 34.05 46.75 34
L 46.7 34
Q 46.6 33.9 46.5 33.9
L 46.3 33.65 44.6 32.8 43.1 32.8 42.8 33.4 40.75 34.4 39.5 36.05 37.35 36.05 36.85 38.15 36 38.3 35.05 37.35 34.45 37.25 33.2 36.55 34.5 34.5 35.15 32.15 33.8 34.5 32.2 35.75 29.65 36.35 31.7 36.5 31.85 38.1 30.1 39.35 27.85 39.4 26.6 38.85 22.4 39.7 25.2 39.7
Q 25.26015625 39.730078125 25.3 39.75
L 25.4 39.8 25.5 39.8
Q 25.65 39.8 25.9 39.9
L 26.5 40.45 26.75 40.55 25.05 41.85 22.7 46.1 19 49.7
Q 18.8 50.9 17.95 51.25 16.95 51.8 16.05 53.4 15.15 55.15 12.9 55.05
L 12.75 56.4 9.8 53.25 12.3 57.6 12.3 61.05
Q 12 61.4 11.7 61.6 11.75 61.6 11.9 61.7
L 9.6 66.15
Q 9.45 66.3 9.6 66.4
L 9.65 66.45
Q 9.85 66.35 10 66.15
L 13.75 61.35 13.95 58.2
Q 19.186328125 59.4431640625 20.7 60.2
L 24.35 58.15
Q 30.35 61.15 32.2 62.15 31.2 62.8 29.05 65.1
L 29.05 65.15 28.55 65.7 28.8 66 29.35 65.45
Q 32.2 63.1 33.4 62.7
L 33.6 62.8 33.65 62.75
Q 34.65 62.3 36.3 62.95 37.85 63.55 38.4 64.4 37.45 64.55 36.6 64.6
L 36.55 64.7 36.5 64.7
Q 36.45 64.8 36.4 64.85 36.4 65.1 39.2 66.45 40.3 67.05 41.8 67.9
L 45.4 67.25 46.6 67.25 57.65 68.85
Q 57.3373046875 68.9837890625 56.55 70.55
L 53.55 71.5
Q 55.4154296875 71.7388671875 56.95 71.15
L 58.75 69.6 59.25 69.6
Q 59.75 69.35 60.25 69.2 60.95 69.05 61.6 69 62.1 69.15 62.45 69.3
L 65.5 68.5
Q 66.4 69.75 66.8 70.3
L 66.95 70.5
Q 67.1236328125 70.1666015625 69.75 72.7
L 66.05 68.05 69.5 67.1 69.45 67.1
Q 73.1 65.3 73.45 65.1 75.0220703125 64.477734375 76.35 64.15 76.91796875 64.539453125 77.65 64.85 79.55 65.55 79.7 67.7
L 85.8 67.6
Q 85.85 67.6 85.85 67.65 86.1 67.9 86.1 68.35
L 87.1 68.95
Q 86.679296875 68.526953125 86.45 67.35 88.3841796875 67.7625 91.15 69.65 91.3 69.8 91.35 69.65
L 91.35 69.6
Q 91.25 69.4 91.1 69.3 89.4818359375 67.808984375 85.85 66.15
L 80.5 66.45 79.1 64.25
Q 79.5580078125 64.26953125 80.2 64.25 81.4 64.1 83.2 64.25 85.65 64.45 86.35 64.45
L 86.4 64.45 88.4 64.25 88.4 63.9 87.7 63.9
Q 87.4 63.85 84.8 63
L 86.35 61.5
Q 88.4 60.6 88.75 59.25 88.85 58.3 90.5 57.6 89.4 56.9 88.35 57.9
M 53.9 32.75
L 54.35 33.15
Q 54.35 33.25 54.35 33.35 54.45 33.75 54.35 34.15 54.35 34.55 54.6 35.05 54.65 35.35 54.8 35.55 54.8 35.7 54.8 35.9
L 54.8 36
Q 54.85 36.05 54.85 36.25
L 54.85 36.3 54.2 37.4 53.65 39.35 54.3 40.75 55.7 42.25 56.3 42.45 56.45 42.95 57.15 43.4 57.35 44.3 57.8 45 58.2 46 60.05 46 61.45 47.85 61 49.55 58.6 50.4 57.95 50.1 56.75 50.15 56.45 51.4 57.75 54.2 58.3 56.05 58.3 57.2 55.5 58.45 54.05 61.1
Q 54.0328125 61.1474609375 54 61.2
L 54.05 61.2
Q 53.9 61.65 53.8 62.2
L 53.85 62.25
Q 53.8373046875 62.30703125 53.8 62.35 52.9306640625 61.727734375 50.95 60.45 50.522265625 58.969921875 49.65 57.9
L 50.45 60.95
Q 51.233203125 61.274609375 51.45 61.6 51.8 62.05 52.25 62.5 51.693359375 62.4572265625 51.1 62.4
L 48.7 63.55
Q 48.627734375 63.594921875 48.25 63.2 48.1048828125 63.471484375 47.6 63.65 47.8837890625 63.9796875 47.8 64.2 47.1462890625 64.6154296875 46.45 65.1
L 48.35 64.4 48.4 64.4 48.3 63.95
Q 49.85 63.9 50.65 63.35
L 51.45 63.45 52.7 63.4 53.15 63.5 53.65 63.8
Q 53.68671875 63.8603515625 53.7 63.9
L 53.7 63.85 55.7 65.1 55.55 65.15
Q 54.6326171875 65.0353515625 52.75 65.05
L 51.6 64.85 50.3 64.8 49.2 65.05
Q 47.3421875 65.3005859375 44.85 65.75
L 43.8 65.3 43.7 65.2 34 60.9 33.7 61 33.65 60.9
Q 32.25 60.95 30.65 60.1 29.95 59.65 24.8 56.6
L 19.8 58.65 14.05 56.8 14.1 56 17.95 54.25 20.3 49.55 23.7 46.45
Q 25 44.25 26.65 42.15 27.5 41.4 28.15 40.9
L 27.95 40.8
Q 29 41 30.35 40.9
L 30.6 40.8 31.4 40.35 31.35 40.45
Q 31.5 40.7 31.6 40.9 31.85 41.1 32.1 41.15 32.5 41.3 32.75 41.6
L 32.8 41.7
Q 32.9 41.7 33 41.65
L 33.3 40.55 34.2 41.1 35.35 40.75
Q 35.3 41.05 35.15 41.1 35.1 41.6 34.9 42 34.7 42.3 34.5 42.9
L 34.45 43.05
Q 34.8 43.4 34.95 43.9 36.7 45.3 36.65 45.5
L 36.7 45.6
Q 36.5 46.1 36.2 46.75 36 47.2 36.1 47.55 36.25 48.05 36.3 48.8
L 36.25 48.85
Q 36.2 49.35 36.4 49.65 36.75 50.05 36.95 50.85 37.1 51.5 37.25 51.75 37.35 52.1 37.75 52.65 37.95 53.05 38.25 53.35 38.75 53.65 39.05 54.15 39.2 54.35 39.5 54.4
L 39.55 54.45
Q 40.15 54.55 40.55 54.7 40.65 54.8 40.7 54.75 40.65 54.6 40.6 54.4
L 40.55 54.35
Q 40.45 54.15 40.35 54.05 39.35 53.95 39.35 53.25 39.3 53.05 39.15 52.75
L 39.15 52.7
Q 38.95 52.25 38.75 51.85 38.5 51.4 38.35 50.55
L 38.3 50.5
Q 38.15 49.9 37.95 49.55
L 38 49.5
Q 37.6 48.9 37.95 47.95
L 37.95 48
Q 38.15 47.45 38.2 47.1
L 38.15 47
Q 38.2 46.5 38.4 46.1 38.45 45.85 38.4 45.5 38.3 45.35 38.3 45.2
L 36.3 43.9 36.05 43.2
Q 36.2 43.2 36.3 43.1 36.7 42.9 36.65 42.6 36.65 42.15 36.6 41.6 36.55 40.8 36.9 40.3
L 37.95 39.85 38.25 37.6 40.85 37.4 42.1 35.3 44.65 34.3 47.1 35.05 47.2 35.05
Q 47.75 35.3 47.95 35.15
L 48 35.15
Q 48.05 35.1 48.15 35.1
L 50.05 35.1 50.1 35.15
Q 50.2 35.2 50.3 35.2 50.35 35.2 50.4 35.2 50.55 35.2 50.6 35.05 50.75 35.1 50.85 35 51.3 34.75 51.6 34.3 51.75 34.1 52.05 33.85 52.55 33.65 52.65 33.3 52.65 33.2 52.6 33.1 52.8 33.1 53 32.75
L 53.1 32.7 53.9 32.75
M 63 57.05
L 63 58.65 66.1 60.95 63.7 58 63.7 55.8 65.15 57.3 69.65 59.05 73.65 62.3
Q 74.85 62.35 75.35 63.2 75.50234375 63.42265625 75.7 63.6 75.2953125 63.7353515625 74.8 63.75
L 74.75 63.8
Q 72.3 64.55 69.35 65.35 69.05 65.3 68.9 65.45 67.5 65.85 66.3 66.2 64.85 66.55 63.85 66.85 62.75 67.1 62 67.35 61.95 67.3 61.9 67.3 59.6 65.35 56.45 63.8 55.6076171875 63.2236328125 54.8 63 54.8546875 62.97265625 54.9 62.95 55 62.85 55 62.65
L 55.05 62.6
Q 55.1 61.9 55.65 61.55 55.9 61.45 55.85 61.25
L 55.9 61.2
Q 55.91015625 61.1494140625 55.9 61.1
L 56.25 59.5 58.65 58.45 58.9 58.9 60.6 60.05 59.2 58.4 59.2 55.75 61.15 57.95 58.4 51.65 60.4 51 62.1 53.95 63 57.05
M 50.45 67.05
Q 50.55 66.9 50.35 66.8
L 51 66.7
Q 52.3447265625 66.51328125 53.35 66.4
L 56.2 65.9 56.35 65.8 56.95 65.85 57.65 66.15 60.2 67.95 59.8 68.15 50.45 67.05
M 33.9 53.6
Q 33.85 53.3 33.65 53.1 33.55 53.05 33.5 53.1 33.4 53.15 33.45 53.25 33.55 53.75 33.45 53.95 33.4 54.15 33.55 54.25 33.75 54.3 33.8 54.15 33.95 53.85 33.9 53.6
M 29.55 46.4
Q 29.6 46.35 29.5 46.25 29.4 46.2 29.35 46.25
L 29.2 46.35 28.85 45.9
Q 28.7 45.75 28.55 45.85 28.45 45.95 28.55 46.1
L 28.95 46.6
Q 28.45 47 28.3 47.05
L 28.25 47.1 28.3 47.15
Q 28.8 47 29 46.9
L 29.1 46.8
Q 29.65 47.55 29.85 47.75 30 47.85 30.1 47.75 30.2 47.65 30.15 47.5 30.05 47.3 29.5 46.7
L 29.4 46.6 29.55 46.4 Z"/>
</g>
</defs>

<g transform="matrix( 1, 0, 0, 1, 0,0) ">
<use xlink:href="#Layer1_0_FILL"/>
</g>
</svg>
