
<svg xmlns="http://www.w3.org/2000/svg" version="1.1" xmlns:xlink="http://www.w3.org/1999/xlink" preserveAspectRatio="none" x="0px" y="0px" width="100px" height="100px" viewBox="0 0 100 100">
<defs>
<g id="Layer1_0_FILL">
<path fill="#000000" stroke="none" d="
M 34.3 51.5
Q 34.35 51.5 34.35 51.45
L 34.45 51.05
Q 34.45 51 34.4 51 34.35 51 34.3 51.05 34.25 51.15 34.25 51.4 34.2 51.5 34.3 51.5
M 22.2 39.95
Q 22.3 39.95 22.3 39.9
L 22.2 39.8 22.15 39.8
Q 22.1 39.8 22.1 39.85
L 22.15 39.95
Q 22.15 40 22.2 39.95
M 24.55 38.75
L 24.6 38.75 24.6 38.7 24.55 38.75
M 24.45 38.6
Q 24.35 38.55 24.35 38.65
L 24.2 38.9
Q 24.15 39 24.25 39 24.35 39.05 24.35 39 24.45 38.75 24.45 38.7 24.5 38.65 24.45 38.6
M 25.55 34.3
L 26.05 34.95 26.1 34.95
Q 26.3 35.45 26.75 36.4 26.8 36.45 26.85 36.45
L 26.85 36.4 26.65 35.7 26.7 35.75
Q 27.05 35.85 27.45 36.1 26.6 35.3 25.55 34.3
M 48.2 29.8
L 48.3 29.9 48.4 29.9
Q 48.45 29.9 48.45 29.85
L 48.4 29.7
Q 48.4 29.6 48.25 29.6
L 48.25 29.65
Q 48.15 29.7 48.2 29.8
M 49.4 28.95
L 49.4 28.9 49.3 28.85
Q 49.25 28.85 49.25 28.9
L 49.35 28.95
Q 49.4 29 49.4 28.95
M 50.95 34.9
Q 50.95 34.85 50.9 34.7 50.85 34.65 50.75 34.7 50.7 34.7 50.7 34.8 50.7 34.9 50.75 34.95 50.8 35 50.9 35 50.95 34.95 50.95 34.9
M 52.3 36.4
Q 52.3 36.5 52.35 36.45 53.7 36 54.7 35.2 55 34.9 55.1 34.75 55.35 34.45 54.9 34.4 54.8 34.55 54.9 34.55 55 34.6 54.8 34.8 54.65 34.9 54.5 35.1
L 53.8 35.5
Q 53.6 35.65 52.35 36.35 52.3 36.35 52.3 36.4
M 52 30.6
Q 52.05 30.65 52.05 30.6 52.2 30.35 52.3 30
L 52.25 29.9
Q 52.15 30.25 52 30.6
M 86.8 35.85
Q 86.7 35.7 86.55 35.75 81.4 37.55 78.15 39.15 73.85 41.3 70.55 44.1
L 69 45.45
Q 69.5 43.15 69.95 39.85 70.5 36.05 70.75 34.15 70.7 34.1 70.7 34.15 70.35 36.1 69.5 40 68.8 43.4 68.55 45.85 63.5 50.45 63.25 50.65 60.15 53.25 57.5 54.85
L 56.6 54.95 55.95 54.8
Q 53.4 54.05 52.65 53.75 50.9 53.05 49.8 51.8 49.25 51.1 48.5 49.9 47.6 48.45 47.3 48
L 47.2 47.9
Q 47.5 46.75 47.75 45.35 48.2 42.15 48.45 40.65 48.55 40.1 48.55 39.35 49 38.8 49.25 38.55 49.55625 38.15625 50.1 37.8 48.9673828125 38.495703125 48.5 39.15 48.5 37.55 47.9 35.15 47.5 33.85 46.85 31.3 46.75 31.25 46.75 31.3 47.45 34.6 47.75 36.25 48.2 39.25 47.8 41.2 47.5 42.6 47 45.5 46.85 46.2 46.65 46.9 46.55 46.75 46.3 46.65 44.6 44.65 42.4 43.3 42.25 43.05 42.15 42.9 42.6 42.4 42.85 41.6 42.85 41.55 42.8 41.6 42.6 42.05 42.4 42.4
L 42.1 42.75
Q 41.65 42.05 41.4 41.75 41.35 41.7 41.25 41.75 41.2 41.8 41.25 41.85 41.45 42.35 41.9 43 39.2 41.55 35.8 41.05 36.55 39.55 37.45 37.05 38.15 35.25 39.35 33.75 40.35 32.5 42.1 31.05 42.75 30.55 45.45 28.45 47.6 26.8 48.75 25.7 51.2 25.3 55.2 25.6 60.4 25.95 61.6 26 61.65 25.95 61.65 25.9 61.65 25.85 61.6 25.85 59.9 25.65 57.55 25.5 56.2 25.4 53.45 25.3 53.4 25.3 51.5 25.1 50.25 25 49.45 24.95 51 23.45 51.9 21.85 52.05 21.5 51.75 21.35 51.4 21.2 51.15 21.45 49.5 23.2 47.1 25.1 45.9 26 42.75 28.25
L 42.1 29.4
Q 40.45 32.05 38.7 33.45 37.95 34.05 36.8 34.45 36.75 34.5 36.65 34.55
L 35.75 36.75 35.75 36.85
Q 35.65 38.85 34.8 42.15
L 34.1 43.25
Q 33.85 43.05 33.75 43.25
L 33.3 43.8 33.2 43.8 33.25 43.25
Q 33.3 43.15 33.2 43
L 33.2 42.9 32.9 43.7
Q 32.15 42.75 31.3 41.65 31.25 41.6 31.2 41.6 31.1 41.65 31.15 41.8 31.85 42.9 32.7 44.15
L 32.7 44.2
Q 32.8 44.3 32.9 44.4 32.5 44.9 32.2 45.25
L 32 45.75 32.65 45.15 33.2 46.3 33.05 46.2
Q 33 46.15 33 46.25
L 33.3 46.45
Q 33.35 46.5 33.45 46.45 33.5 46.45 33.45 46.35 33.45 46.15 33.2 45.7
L 32.9 45 32.85 44.95 33.05 44.7
Q 33.75 45.7 34.55 46.75
L 35.95 48.85
Q 32.95 49.35 31.2 49.55 28 49.95 26.6 49.2 25.75 48.75 24.5 47.2 23.2 45.5 22.6 44.9
L 21.65 43.85
Q 21.9 43.7 22 43.4 22.15 43.2 22.15 42.95 22.15 42.75 22.15 42.45 22.15 42 22.4 41.25 22.6 40.9 22.9 40.1 22.95 39.95 22.8 39.95 22.75 39.9 22.65 40 22.1 41.35 21.65 41.95 21.2 42.35 21 42.6 19.35 40.45 19.05 40.1 18.1 37.75 17.65 36.65 16.75 34.65 15.95 33.35 16.15 34.5 16.8 36.1 17.15 36.95 17.9 38.75
L 18.05 39.15 17.4 38.7
Q 14.9 37.1 9.8 34.45 9.75 34.4 9.7 34.5 9.6 34.6 9.7 34.6 9.75 34.65 13.15 36.85 15.2 38.15 16.5 39.2 17.15 39.8 18.15 40.95 18.05 41.1 18.2 41.2 19.7 43.2 22.75 47.3 19 46.85 14.9 46.75 14.8 46.75 14.85 46.8 14.8 46.9 14.9 46.9 19 47.1 23.15 47.85 24.3 49.25 24.9 49.95 26.05 51.2 27.05 51.7 29.15 51.25 32.5 50.4 33.8 50.05 34.45 49.95 34.6 50.15 35.1 50.3 36.25 51.1 37.9 51.95 38.9 52.5 40.8 53.55 40.9 53.55 40.95 53.45 40.95 53.4 40.9 53.35 40 52.6 38.9 51.8 40.55 51.75 43 51.8
L 45.8 51.8
Q 44.3 52.55 43.6 52.95 42.3 53.55 41.45 54.1 41.4 54.05 41.4 54 41.4 53.95 41.35 53.95 41.3 54 41.35 54.05 41.35 54.1 41.35 54.15 35.75 57.4 26 58.35 22.1 58.7 18.15 58.55 17.65 58.55 16.1 58.3 14.65 58.05 13.85 58.05
L 14.45 57.9
Q 14.6 57.9 14.55 57.75 14.55 57.6 14.35 57.65 12.7 57.95 10.4 58.6 7.7 59.3 6.35 59.65 6.25 59.65 6.3 59.7
L 6.35 59.75
Q 8.55 59.3 12.85 58.3
L 13.5 58.5
Q 10.95 60.05 7.5 62.85 3.7 66.05 1.8 67.55 1.7 67.6 1.8 67.7 1.85 67.75 1.9 67.7 3.85 66.25 7.95 63.35 11.6 60.7 13.7 58.6 16.35 59.3 18.25 60.15 18.1 60.55 17.9 61.55 17.5 63.05 17.75 64.5 17.85 64.6 17.85 64.55 17.75 62.8 18.25 61.55 18.55 60.8 18.85 60.35
L 18.9 60.3
Q 21.6 60.4 26.1 60.05 26.95 60 28.6 59.8 27.6 61.6 26.1 65.4
L 25.8 66.15
Q 25.8 66.8 25.75 68.15 25.8 69.3 26 70.5
L 26.5 68.85
Q 26.8 69.95 27.75 72.15 23.7 74.9 21.8 76.35
L 21.75 76.35
Q 21.65 76.2 21.5 76.25 21.35 76.35 21.35 76.5
L 21.45 76.6 20.5 77.4
Q 20.4 77.45 20.45 77.55 20.5 77.65 20.65 77.6
L 21.6 76.95
Q 22.1 78 22.7 78.75 22.7 78.8 22.75 78.8
L 22.75 78.75
Q 22.45 77.75 21.95 76.75 24.1 75.35 27.85 72.45
L 28 72.75
Q 28.05 72.85 28.15 72.7
L 27.95 72.15
Q 27.75 71.45 27.45 69.9 27.15 68.35 26.9 67.6
L 27.5 66.05
Q 28.1 64.6 29.3 62.85 29.95 61.8 31.4 59.8 31.55 59.55 31.6 59.35 35.194140625 58.746875 38.45 56.95 41.767578125 55.2087890625 44.3 54 45.869140625 53.3126953125 47.6 52.15 47.2630859375 54.415625 47.8 59
L 48.5 53.05 52.5 55.5 53.4 55.7 55.45 56.9
Q 56.2 57.35 57.25 58.25 58.5 59.35 58.95 59.65 59 59.7 59 59.6 58.25 58.5 56.85 57.1
L 57.4 57.3 58 57.75
Q 60.35 59.7 61.75 60.75 61.8 60.8 61.85 60.7 61.9 60.65 61.85 60.55 61.1 59.9 59.25 58.35 58.85 58.05 58.25 57.4 59.4 57.6 61.05 57.45 60.9 57.65 60.7 58.2 60.4 58.9 60.4 59.05 60.4 59.1 60.45 59.15 60.5 59.15 60.55 59.1 60.65 59 60.95 58.3 61.25 57.6 61.3 57.45
L 61.3 57.4
Q 62.75 57.25 65.2 56.7 68.05 56.1 68.7 56 71.7 55.45 75.35 55.15 76.5 56.75 76.8 57.2 77.65 58.4 78.1 59.45 78.15 59.5 78.2 59.5 78.25 59.45 78.25 59.4 76.9 56.25 75.85 54.8 75.95 54.65 76.2 54.5 77.4 53.75 79.4 53.8 81.45 53.8 82.9 54.6
L 84.35 54.55
Q 84.7 54.7 86.15 55.65 87.2 56.35 88 56.5 87.7 56.25 87.05 55.85 86.35 55.45 86.05 55.2 85.6 54.9 84.9 54.25 87.15 54.75 90.35 56.35 94.9 58.6 95.65 58.95
L 95.25 59.2
Q 95.2 59.25 95.35 59.25
L 95.75 59 97.7 59.65
Q 97.75 59.65 97.7 59.6 96.75 59.35 95.85 58.95 97 58.2 98.3 57 97.3 57.75 95.7 58.85 94.5 58.3 90.75 56.3 87.7 54.65 85.7 54 86.2 52.9 86.5 52.45
L 87.4 52.1
Q 88.95 51.45 90.65 50.2 90.7 50.2 90.65 50.15 90.65 50.1 90.6 50.1 88.85 51.3 86.8 52.1
L 86.95 51.85 86.65 52.15 86.05 52.35
Q 85.35 52.65 83.85 53 83.4 53.15 83.3 53.3 77.65 53.15 71.1 54
L 71.7 53.3
Q 72.05 52.95 73.75 51.1
L 73.75 51.2 73.85 51.25 75.4 51.3
Q 76.3 51.3 76.9 51.2
L 76.9 51.1
Q 76.6 51.05 75.9 51.1 75.25 51.1 74.9 51.05 74.4 51 74.05 50.75
L 74.4 50.35
Q 74.45 50.3 74.4 50.2 74.35 50.15 74.3 50.2
L 73.85 50.65
Q 73.65 50.4 73.3 49.7 71.75 46.55 71.45 46 71.35 45.9 71.3 45.95 71.15 46 71.2 46.05 71.6 46.9 73.6 50.85 72.1 52.15 70 54.15 69.35 54.75 68.8 54.9 68.3 55.05 67.4 54.95
L 66.6 54.85
Q 66.5 54.35 65.65 53.15
L 65.55 53.15
Q 65.8 53.65 66.2 54.7
L 65.7 54.8 65.45 54.7 63.45 54.6
Q 62.1 54.5 61.25 54.9
L 61.15 54.85 61.15 54.8 61.4 53.8
Q 61.4 53.7 61.35 53.7 61.3 53.7 61.25 53.75
L 60.8 54.85 59.35 54.8
Q 61.85 53.2 64.75 50.6 68.1 47.5 69.8 45.95 73.25 42.65 77.75 40.15 81.5 38 86.65 36 86.85 36 86.8 35.85
M 84.4 53.05
Q 85.15 52.85 85.4 52.8
L 86.35 52.5
Q 85.85 53.05 85.65 53.6
L 85.6 53.6
Q 85.25 52.95 84.4 53.05
M 45.3 48.95
L 45.25 48.95
Q 42.15 48.55 37.25 48.8 36.4 47.9 35.95 47.45 35.2 46.65 34.7 46.1 34.15 45.4 33.4 44.4
L 33.6 44.15
Q 34.15 43.95 34.65 43.1 34.9 42.6 35.1 42.25 35.35 42.1 35.55 41.95
L 36.35 41.75
Q 38.2 42.65 38.7 42.85 39.25 43.05 40.15 43.25 41.15 43.4 41.65 43.5 42.25 44 42.9 44.7 43 44.9 43.15 45.1 43.2 45.15 43.3 45.15 43.9 45.8 44.55 46.6
L 45.55 47.95
Q 45.45 48.5 45.3 48.95
M 45.75 49.05
Q 45.9 48.85 46 48.7 46.05 48.75 46.05 48.8 46 48.95 45.95 49.05
L 45.75 49.05
M 38.4 42.5
Q 37.8 42.2 36.8 41.65 38.95 41.35 41.3 43.2 40.85 43.15 39.8 42.95 38.95 42.75 38.4 42.5
M 36.6 45.4
Q 36.6 45.5 36.75 45.5 37.15 45.65 37.3 45.75 37.4 45.85 37.45 45.75 37.6 45.65 37.5 45.55 37.1 45.1 36.65 45.25 36.6 45.3 36.6 45.4
M 40.25 45.9
Q 40.4 45.8 40.3 45.65 40.25 45.5 40.1 45.55 39.95 45.65 40 45.75 40.1 45.95 40.25 45.9 Z"/>
</g>
</defs>

<g transform="matrix( 1, 0, 0, 1, 0,0) ">
<use xlink:href="#Layer1_0_FILL"/>
</g>
</svg>
