
<svg xmlns="http://www.w3.org/2000/svg" version="1.1" xmlns:xlink="http://www.w3.org/1999/xlink" preserveAspectRatio="none" x="0px" y="0px" width="100px" height="100px" viewBox="0 0 100 100">
<defs>
<g id="Layer1_0_FILL">
<path fill="#000000" stroke="none" d="
M 62.3 86.75
Q 62.35 86.75 62.45 86.7 62.15 85.9 62.05 86.4 62.05 86.55 62.3 86.75
M 64.6 86.85
Q 64.45 87 64.8 86.8 65.2 86.2 64.6 86.85
M 65.8 87.15
L 65.95 87.1
Q 65.5 86.25 65.8 87.15
M 69.95 84.7
Q 69.6 84.5 70.15 84.9 70.75 85.15 69.95 84.7
M 66.95 85.85
Q 66.85 85.85 66.75 85.95 66.7 86.05 66.7 86.15 66.7 86.25 66.75 86.35 66.85 86.45 66.95 86.45 67.05 86.45 67.1 86.35 67.2 86.25 67.2 86.15 67.2 86.05 67.1 85.95 67.05 85.85 66.95 85.85
M 67.4 84.5
Q 67.35 84.6 67.35 84.7
L 67.95 85.2
Q 68.15 84.5 67.4 84.5
M 63 85.15
Q 62.9 85.15 62.85 85.2 63.2 85.9 64.25 85.6 63.7 85.2 63 85.15
M 64.1 80.55
Q 64.6 81.1 65.25 81.55 65.75 81.9 66.3 82.15 66.65 82.4 66.65 82.75
L 66.9 82.45
Q 66.5 81.1 65.1 80.75 64.35 80.45 63.65 79.9 63.8 80.25 64.1 80.55
M 65.2 79.75
Q 65.15 79.75 65.1 79.8 64.95 80.3 66.15 80.6 65.75 80 65.2 79.75
M 65.35 78.35
Q 65.5 78.25 65.5 78.1 65.5 77.95 65.35 77.8 65.2 77.7 65 77.7 64.8 77.7 64.65 77.8 64.5 77.95 64.5 78.1 64.5 78.25 64.65 78.35 64.8 78.5 65 78.5 65.2 78.5 65.35 78.35
M 69.8 78.3
Q 69.95 78.2 69.95 78 69.95 77.8 69.8 77.65 69.7 77.55 69.5 77.55 69.3 77.55 69.15 77.65 69.05 77.8 69.05 78 69.05 78.2 69.15 78.3 69.3 78.45 69.5 78.45 69.7 78.45 69.8 78.3
M 67.25 79.35
Q 67.25 79.25 67.25 79.2 66.6 79.2 67.25 79.35
M 66.9 75.9
Q 67.05 75.9 67.25 75.9
L 66.2 75.35
Q 65.75 75.85 66.9 75.9
M 66.7 77
Q 66.7 76.8 66.6 76.65 66.5 76.55 66.35 76.55 66.2 76.55 66.1 76.65 66 76.8 66 77 66 77.2 66.1 77.3 66.2 77.45 66.35 77.45 66.5 77.45 66.6 77.3 66.7 77.2 66.7 77
M 67.15 74.35
L 67.95 74.9
Q 68.3 74.4 67.5 74.15 67.3 74.25 67.15 74.35
M 69.45 76.1
Q 69.6 75.55 69.1 75.9 69 76.05 69.45 76.1
M 68.45 76.95
L 68.65 76.15 68 76.2
Q 67.75 76.5 67.65 76.85 67.65 76.95 67.8 77.15
L 68.45 76.95
M 72.65 81.1
L 73.65 81.15 72.65 80.15 72.65 81.1
M 71.15 81.55
Q 71.2 81.5 71.25 81.45 70.9 80.8 70 81.15 69.9 81.15 69.8 81.15 69.9 81.6 71.15 81.55
M 74 79.1
Q 74.15 79 74.15 78.85 74.15 78.7 74 78.55 73.9 78.45 73.75 78.45 73.6 78.45 73.45 78.55 73.35 78.7 73.35 78.85 73.35 79 73.45 79.1 73.6 79.25 73.75 79.25 73.9 79.25 74 79.1
M 70.95 78.25
Q 70.96875 78.21875 70.95 78.2 70.55 78.1 70.65 78.35 70.85 78.7 71.45 78.9 71.6 78.85 71.8 78.85
L 72 78 70.8 75.7
Q 70.8466796875 77.19375 70.95 78.25
M 75.15 75.1
Q 75 74.9 74.8 74.8 74.05 75 74.3 75.8 74.3 75.85 74.35 75.95 74 76.05 73.65 76.15 73.55 76.9 74.15 77.05 74.85 77.05 74.85 76.2
L 75.1 76.2
Q 75.6 75.6 75.15 75.1
M 55.6 88.55
Q 55.8 88.8 55.75 88.4 55.2 87.9 55.6 88.55
M 59.8 90.15
L 60 90.65 60.25 90.15 59.8 90.15
M 56.65 89.7
L 55.8 89.5 55 89 55.15 90.2 57.3 92
Q 57.35 92.1 57.35 92.2 57.35 92.25 57.35 92.35 57.4 92.5 57.45 92.7 58 92.4 57.7 91.85 57.3 91 56.6 90.45
L 56.65 89.7
M 56.1 86.2
Q 55.85 86.15 55.65 86.15
L 55.7 86.8
Q 56 87 56.3 87.2 56.45 87.05 56.65 86.95 56.7 86.3 56.1 86.2
M 57.7 85
Q 57.6 85.1 57.6 85.2 57.55 86.2 57.85 87.05 58.25 86.55 58.7 86.1 58.95 85.85 59.25 85.7
L 59.75 85.7
Q 59.5 85.9 59.4 86.1
L 59.55 86.1
Q 59.65 86.1 59.75 86.1
L 60.15 85.45 59.6 84.85 58.15 85.15 57.7 85
M 53.8 86
Q 53.85 85.65 53.45 86 53.75 86.4 53.8 86
M 51.15 55.95
Q 51.35 55.8 51.45 55.6
L 50.6 56.2
Q 50.9 56.1 51.15 55.95
M 50.8 51.95
Q 50.9 51.85 50.95 51.7
L 49.6 52.1
Q 50.15 52.3 50.8 51.95
M 54.95 49.55
L 55.65 50.15
Q 55.6 50.6 55.25 50.7 55.05 50.8 54.85 50.95 56 50.55 57.15 50.15 56.15 49.55 54.95 49.55
M 57.85 51.7
Q 58 51.55 58 51.35 58 51.15 57.85 51 57.75 50.85 57.6 50.85 57.45 50.85 57.3 51 57.2 51.15 57.2 51.35 57.2 51.55 57.3 51.7 57.45 51.85 57.6 51.85 57.75 51.85 57.85 51.7
M 72.85 72.55
Q 72.7 72.45 72.45 72.45 72.2 72.45 72.05 72.55 71.9 72.7 71.9 72.85 71.9 73 72.05 73.1 72.2 73.25 72.45 73.25 72.7 73.25 72.85 73.1 73 73 73 72.85 73 72.7 72.85 72.55
M 71.65 69.8
Q 72 70.05 72.4 70.2
L 72.45 70.15 71.65 69.8
M 73.35 66.55
L 72.5 66.8
Q 72.7 67.3 73.15 66.75 73.25 66.65 73.35 66.55
M 71.85 66.8
Q 71.7 67.4 72.1 67.55
L 72.15 67.4 71.85 66.8
M 73.35 64.3
Q 73.05 63.95 72.65 63.7 71.5 62.8 70.95 61.6 70.9 62.75 71.6 63.75 71.8 64.1 72.2 64.35 72.8 64.5 73.45 64.7 73.9 65 73.35 64.3
M 70.6 72.75
Q 70.55 73.45 70.65 74.1 70.7 74.7 70.8 75.3
L 74.25 74.2 71 73.9 72 73.4
Q 71.7 73 71.5 72.65 71.4 72.4 71.35 72.2 71.3 71.95 71.3 71.7 70.65 71.9 70.6 72.75
M 68 73.7
Q 68.15 73.7 68.25 73.6 68.35 73.5 68.35 73.4 68.35 73.3 68.25 73.2 68.15 73.1 68 73.1 67.85 73.1 67.75 73.2 67.65 73.3 67.65 73.4 67.65 73.5 67.75 73.6 67.85 73.7 68 73.7
M 67.45 72.55
Q 67.45 72.2 67.25 71.95 67.05 71.7 66.75 71.7 66.45 71.7 66.25 71.95 66.05 72.2 66.05 72.55 66.05 72.9 66.25 73.15 66.45 73.4 66.75 73.4 67.05 73.4 67.25 73.15 67.45 72.9 67.45 72.55
M 67.95 71.7
Q 67.7 72.4 68.25 72.55 68.6 72.7 68.65 72.25
L 67.95 71.7
M 68.25 70.8
Q 68.1 69.9 67.7 69.3 67.6 69.2 67.5 69.15 67.4 69.2 67.4 69.25 67.5 69.65 67.65 70.05
L 67.15 71.3 68.25 70.8
M 68.65 68.15
L 68.65 69.1 69.65 69.15 68.65 68.15
M 64.65 74.2
Q 64.4 74.15 64.15 74.15
L 64.3 75.2 62.95 75.3
Q 62.9 75 63 74.85 63.15 74.6 63.45 74.45 62.15 73.7 60.95 74.55 60.6 74.85 60.25 75.15
L 61.3 75.95 61.45 75.25
Q 62.55 76.45 64.15 77.25
L 63.25 76.15 65.15 76.45 64.85 75.95
Q 64.6 75.75 65.25 75.15 65.3 75.05 65.3 74.9 65.3 74.4 64.65 74.2
M 64.2 72.45
L 64.45 72.9 64.7 72.45 64.2 72.45
M 64 73.3
Q 64 73.2 63.9 73.1 63.8 73.05 63.7 73.05 63.6 73.05 63.5 73.1 63.4 73.2 63.4 73.3 63.4 73.4 63.5 73.45 63.6 73.55 63.7 73.55 63.8 73.55 63.9 73.45 64 73.4 64 73.3
M 61.1 73.4
L 60.75 73.4 60.75 73.95 61.1 73.95 61.1 73.4
M 61.6 70.9
L 61.3 69.9 60.5 70.9
Q 61.05 70.9 61.6 70.9
M 63.35 70.85
L 63.35 70.3 63.05 70.3 63.05 70.85 63.35 70.85
M 69.95 65.1
Q 69.85 65.45 69.75 65.85 70.35 66.05 71 66.05 71.25 66.15 71.5 66.3 71.65 66.35 71.8 66.45 71.9 66.45 72 66.45 72.85 66.2 72.65 65.15
L 72 65.4
Q 70.65 64.85 69.95 63.55
L 68.45 65.25 69.65 64.3
Q 70.15 64.5 69.95 65.1
M 70.5 67.7
L 70.6 67.8
Q 70.8 67.65 70.9 67.45
L 70.5 67.7
M 68.2 67.2
Q 68.2 67.25 68.25 67.3 68.85 67.25 68.7 66.75 68.65 66.4 68.65 66.1 68.1 66.55 68.2 67.2
M 66.65 67.65
Q 66.65 67.85 66.75 67.95 66.9 68.1 67.05 68.1 67.2 68.1 67.3 67.95 67.45 67.85 67.45 67.65 67.45 67.45 67.3 67.3 67.2 67.2 67.05 67.2 66.9 67.2 66.75 67.3 66.65 67.45 66.65 67.65
M 68.05 65.9
Q 68.15 65.8 68.15 65.7 68.15 65.6 68.05 65.5 68 65.4 67.9 65.4 67.8 65.4 67.7 65.5 67.65 65.6 67.65 65.7 67.65 65.8 67.7 65.9 67.8 66 67.9 66 68 66 68.05 65.9
M 62.45 53.95
L 62.65 53.15 62 53.2
Q 61.75 53.5 61.7 53.8 61.65 53.95 61.8 54.15
L 62.45 53.95
M 65.7 53.1
Q 65.65 53.25 65.75 53.3 65.75 53.35 65.85 53.35
L 65.7 53.1
M 66.7 53.25
Q 66.25 53.3 65.85 53.35 66.55 53.9 67.3 53.85 67.65 53.85 68 53.9 67.6 53.05 66.7 53.25
M 67.95 50.4
L 66.35 52.15 65.4 52.15
Q 64.75 51.35 65.25 50.45 65.5 50.1 65.65 49.7 65.3 49.3 64.3 49.85
L 64.6 51.35 62.9 50.95 61.65 49.45 61.9 50.25
Q 61.75 50.15 61.75 50.05 61.65 51.3 61 52.4
L 61.5 51.7 62.4 52.65 63 52.55 63.5 53.45
Q 63.95 53.65 64.35 53.4 64.8 53.05 65.25 52.7 64.75 52.85 64.25 53.05 64.15 53 64.05 53 63.95 52.7 64.05 52.45 64.15 52.2 64.5 52.05 65.1 52.2 65.45 52.65 65.55 52.85 65.7 53.1
L 66.75 52.75 67.95 50.4
M 68.4 49.8
L 68.45 49.7
Q 68.4 48.95 68.4 49.8
M 27.65 78.85
Q 27.65 78.95 27.8 79.15
L 28.45 78.95 28.6 78.15 28 78.2
Q 27.75 78.5 27.65 78.85
M 25.95 75.25
Q 25.9 75.1 25.85 75 25.3 75.4 25.8 75.55 26.2 75.8 25.95 75.25
M 39.6 85.5
L 40.1 85 40.95 84.8
Q 40.5 84.8 40.1 84.95 39.8 85.15 39.6 85.5
M 37.25 85.7
L 36.45 86.5
Q 36.95 86.95 37.15 86.1 37.2 85.9 37.25 85.7
M 36.35 85.55
Q 36.7 84.85 36.45 84.7 34.95 85.15 34.5 86.45 34.45 86.6 34.45 86.8
L 35 87.3
Q 35.35 87.15 35.55 86.95 36.05 86.3 36.35 85.55
M 38.05 82.65
Q 38.2 82.65 38.35 82.7 38.05 82.75 37.8 82.75 37.1 82.75 36.45 82.65 35.95 82.45 35.5 82.25
L 34.5 84.65 39 84.55
Q 38.4 83.85 37.75 83.15
L 39 82.75 38.8 82.3 39.9 81.8 39.35 81.05
Q 38.75 81.25 38.25 81.5 37.8 81.75 37.45 82.05 37.4 82.1 37.4 82.2 37.5 82.35 37.7 82.45 37.85 82.55 38.05 82.65
M 33.9 82.35
Q 33.7 82.35 33.55 82.45 33.45 82.55 33.45 82.65 33.45 82.75 33.55 82.85 33.7 82.95 33.9 82.95 34.1 82.95 34.2 82.85 34.35 82.75 34.35 82.65 34.35 82.55 34.2 82.45 34.1 82.35 33.9 82.35
M 33.9 80.95
Q 33.9 80.85 33.95 80.8 33.7 79.75 33.9 80.95
M 34.9 78.4
Q 34.7 78.45 34.6 78.6
L 36.75 78.7 35.25 78
Q 35.3 78.2 35.25 78.35
L 35.15 78.35
Q 35 78.3 34.9 78.4
M 31.8 79.05
Q 31.8 79.4 31.95 79.3 31.75 78.5 31.8 79.05
M 31.6 79.15
Q 30.8 79.35 30.85 79.95 30.9 80.6 31.1 81.2 31.35 81.85 31.7 82.45
L 33 82.55
Q 32.85 82.4 32.7 82.3 32.4 82.05 32.05 81.85 31.8 81.15 32.4 80.85
L 32.95 80.7
Q 32.7 80.55 32.5 80.4 32 80.3 31.55 80.25 31.4 80.15 31.3 80.05 30.8 79.45 31.6 79.15
M 34.6 75
L 33.1 75.3 33.5 75.5
Q 33.9 75.4 34.25 75.25 34.45 75.15 34.6 75
M 36.9 78.15
Q 37 78.25 37.2 78.25 38 77.75 38.85 77.3
L 35.95 77.2
Q 36.3 77.75 36.9 78.15
M 37.4 78.95
L 37.65 79.3 38.5 79.6 37.5 78.9 39.1 78 37.7 78.2 37.4 78.95
M 37.8 74.45
L 37.95 74.7 38.15 74.45 37.8 74.45
M 36.3 75.2
Q 36 75.85 35.6 76.45 35.45 76.7 35.25 76.9 35.8 76.65 36.3 76.35 36.5 76.3 36.65 76.15 37.1 75.35 36.6 74.75 36.35 74.45 36.05 74.2
L 36.3 75.2
M 35.75 75.8
Q 35.85 75.7 35.85 75.6 35.85 75.5 35.75 75.4 35.65 75.3 35.55 75.3 35.45 75.3 35.35 75.4 35.25 75.5 35.25 75.6 35.25 75.7 35.35 75.8 35.45 75.9 35.55 75.9 35.65 75.9 35.75 75.8
M 19.9 84.95
L 20.15 85.4 20.4 84.95 19.9 84.95
M 16 84.2
Q 16.15 84.1 16.15 83.95 16.15 83.8 16 83.7 15.9 83.6 15.7 83.6 15.5 83.6 15.35 83.7 15.25 83.8 15.25 83.95 15.25 84.1 15.35 84.2 15.5 84.3 15.7 84.3 15.9 84.3 16 84.2
M 15.6 81.65
Q 15.55 81.9 15.5 82.2 15.5 82.3 15.55 82.4 15.8 82.2 16 81.95 16.1 81.85 16.1 81.7
L 15.6 80.1 15 80.7 15.6 81.65
M 16.15 74.2
L 15.5 74.2 15.5 74.8 16.15 74.8 16.15 74.2
M 15.1 70.3
L 14.6 71.6
Q 15.2 72.3 16 72.3 16.1 72.3 16.2 72.3 16.3 72.1 16.3 71.9 16.25 71.55 16.15 71.25 16 71.1 15.8 71.15 15.65 71 15.5 71.1
L 15.1 70.3
M 16.45 64.7
Q 16.25 64.3 16 64.15 15.9 64.15 15.8 64.2 15.75 65 16.45 64.7
M 15.95 59.6
Q 16.7 59.55 17.7 59.75 18 59.85 18.35 60
L 17.5 58.9 17.95 58.5 15.45 59.3 15.85 60.5 15.2 61.1 15.05 61.75 16.1 62.8 15.6 61.8 16.5 62 15.5 61 16.95 60.4 15.95 59.6
M 19.25 58.45
Q 19.15 58.3 18.95 58.3 18.75 58.3 18.6 58.45 18.5 58.6 18.5 58.8 18.5 59 18.6 59.15 18.75 59.3 18.95 59.3 19.15 59.3 19.25 59.15 19.4 59 19.4 58.8 19.4 58.6 19.25 58.45
M 36.1 74
Q 37.65 74.55 36.95 73.7
L 36.6 73.6
Q 36.4 73.6 36.1 74
M 36.2 66.95
Q 36.15 66.9 36.1 66.95 36.8 67.2 36.2 66.95
M 36.25 67.75
Q 36.25 67.7 36.25 67.6
L 34.75 68.2
Q 35.75 68.4 36.25 67.75
M 28.8 72.85
Q 28.6 72.85 28.45 72.95 28.35 73.1 28.35 73.3 28.35 73.5 28.45 73.6 28.6 73.75 28.8 73.75 29 73.75 29.1 73.6 29.25 73.5 29.25 73.3 29.25 73.1 29.1 72.95 29 72.85 28.8 72.85
M 26.95 74.1
L 26.45 73.85
Q 26.45 74.55 27.25 74.6
L 26.95 74.1
M 25.25 72.5
L 24.95 73.1 25.55 74.15 25.6 73.3
Q 25.6 72.8 25.25 72.6 25.2333984375 72.566796875 25.25 72.5
M 21.25 59.65
L 21.7 59.95 22.6 59.25 21.45 58.6 21.25 59.65
M 20.4 60.1
Q 20.55 59.95 20.55 59.75 20.55 59.55 20.4 59.4 20.3 59.25 20.15 59.25 20 59.25 19.85 59.4 19.75 59.55 19.75 59.75 19.75 59.95 19.85 60.1 20 60.25 20.15 60.25 20.3 60.25 20.4 60.1
M 24.95 57.9
L 25.2 57.45 24.7 57.45 24.95 57.9
M 25.1 54.7
Q 25 54.25 25 54.75
L 25.1 54.7
M 23.3 54.3
L 23.6 54 23 54 23.3 54.3
M 22.25 50.5
Q 21.8 50.9 21.5 51.3
L 21.65 51.3
Q 21.8 51.2 21.9 51.1 22.1 50.8 22.25 50.5
M 26.25 54.6
L 26.25 55.2 26.8 55.2 26.8 54.6 26.25 54.6
M 26 53.2
Q 25.75 53.5 25.7 53.8 25.65 53.95 25.8 54.15
L 26.45 53.95 26.6 53.15 26 53.2
M 36.3 59.95
L 36.55 60.4 36.8 59.95 36.3 59.95
M 36.1 56.5
L 35.55 55.85 34.6 55.7 36.1 56.5
M 30.6 57.7
Q 31.2 57.8 30.6 57.65
L 30.6 57.7
M 30.7 53.65
Q 30.7 53.55 30.6 53.45 30.55 53.35 30.45 53.35 30.35 53.35 30.25 53.45 30.2 53.55 30.2 53.65 30.2 53.75 30.25 53.85 30.35 53.95 30.45 53.95 30.55 53.95 30.6 53.85 30.7 53.75 30.7 53.65
M 35.1 52.5
L 35.35 52 34.85 52 35.1 52.5
M 36.4 50
Q 36.35 49.8 36.25 49.65 35.55 49.3 34.7 49.3
L 34.05 49.8 33.9 50.2 34.45 50.7 35.75 49.75 36.3 50.45
Q 36.55 50.55 36.4 50
M 31.3 46.65
L 31.55 47.1 31.8 46.65 31.3 46.65
M 31.15 44.6
L 31.7 43.8 31.6 42 29.95 42
Q 30.45 42.55 30.8 43.15 31 43.5 31.1 43.9 30.95 44.25 31 44.55 31 44.6 31.15 44.6
M 32.05 38.9
Q 32.4 38.8 32.6 39 33.2 38.5 32.45 38.1 32.15 38 31.9 37.9
L 31.15 38.2
Q 31.25 38.7 32.05 38.9
M 25.65 44.8
L 26.6 45.15
Q 26.8 44.75 25.8 44.75 25.7 44.75 25.65 44.8
M 29.7 47.65
Q 29.8 48.15 30.25 48.15 30.4 48.15 30.6 48.15
L 30.6 47.15
Q 30.15 47 29.8 47.4 29.75 47.55 29.7 47.65
M 24.85 49.3
Q 24.9 49.3 24.95 49.35 25.2 49.35 25.2 49.1 25.15 48.5 24.85 48.8 24.6 49.05 24.85 49.3
M 21.7 48.35
L 22 49.25 23.6 49.15
Q 23.25 48.6 22.85 48.1 22.65 47.9 22.4 47.8 22.1 47.9 21.9 48.1 21.75 48.2 21.7 48.35
M 21.85 47
Q 21.9 46.8 21.95 46.6
L 21.1 46.25
Q 20.85 46.95 20.9 47.8 20.9 48.1 21.05 48.45 21.25 48.35 21.35 48.2 21.75 47.6 21.85 47
M 24.8 44.65
L 25 44.15 24.6 44.15 24.8 44.65
M 24.5 43
L 24 43 24.25 43.5 24.5 43
M 23.75 41.1
Q 23.75 40.95 23.65 40.85 23.55 40.75 23.45 40.75 23.35 40.75 23.25 40.85 23.15 40.95 23.15 41.1 23.15 41.25 23.25 41.35 23.35 41.45 23.45 41.45 23.55 41.45 23.65 41.35 23.75 41.25 23.75 41.1
M 21.8 42.6
Q 22 42.65 22 42.75 22.05 43.1 21.85 43.5 21.8 43.55 21.8 43.65
L 22.1 43.95
Q 22.75 44.1 23.5 44.05
L 22.95 42.95 23.75 42.05
Q 22.75 42.3 21.8 42.6
M 21.9 38.4
Q 22.05 38.3 22.05 38.1 22.05 37.9 21.9 37.75 21.8 37.65 21.6 37.65 21.4 37.65 21.25 37.75 21.15 37.9 21.15 38.1 21.15 38.3 21.25 38.4 21.4 38.55 21.6 38.55 21.8 38.55 21.9 38.4
M 24.9 38.65
Q 24.95 38.45 24.75 38.35 24.7 38.35 24.65 38.5 24.8 39.1 24.9 38.65
M 29.4 42.65
L 29.4 43.05 29.85 43.05 29.85 42.65 29.4 42.65
M 27.5 43
L 27.1 43 27.3 43.5 27.5 43
M 27.7 35
Q 27.6 34.9 27.4 34.9 27.2 34.9 27.05 35 26.95 35.15 26.95 35.3 26.95 35.45 27.05 35.55 27.2 35.7 27.4 35.7 27.6 35.7 27.7 35.55 27.85 35.45 27.85 35.3 27.85 35.15 27.7 35
M 29.95 31.6
Q 29.5 31.4 29.95 31.7
L 29.95 31.6
M 22.95 36.05
Q 24 36.65 23.6 35.15 22.65 35 22.85 35.9 22.85 35.95 22.95 36.05
M 22.6 36
L 21.6 36 21.35 37 22.6 36
M 20.4 35.45
L 20.6 35.2 20.2 35.2 20.4 35.45
M 22.55 34.35
Q 22.55 34.2 22.4 34.05 22.25 33.95 22 33.95 21.75 33.95 21.6 34.05 21.45 34.2 21.45 34.35 21.45 34.5 21.6 34.6 21.75 34.75 22 34.75 22.25 34.75 22.4 34.6 22.55 34.5 22.55 34.35
M 20.3 26.9
L 20.25 26.7 19.85 26.35
Q 19.55 26.95 20.3 26.9
M 29.1 25
Q 28.9 25.3 28.9 25.45
L 29.05 25.25
Q 29.1 25.15 29.1 25
M 32.4 37
L 32.4 36.75
Q 32.5 35.95 31.95 36.4 31.8 36.45 31.75 36.65 32.1 36.95 32.4 37
M 30.8 32.75
L 30.85 32.7
Q 30.8 32.2 30.8 32.75
M 30.95 24.8
Q 31.2 25.25 31.25 25.15 31.35 24.75 31.05 24.4 31 24.3 30.95 24.8
M 32.55 25.95
Q 32.65 25.85 32.65 25.75 32.65 25.65 32.55 25.55 32.45 25.45 32.3 25.45 32.15 25.45 32.05 25.55 31.95 25.65 31.95 25.75 31.95 25.85 32.05 25.95 32.15 26.05 32.3 26.05 32.45 26.05 32.55 25.95
M 18.55 30.7
Q 18.4 30.35 18.25 30.05 18.15 30.6 17.85 30.95 16.7 32.25 16.6 33.95
L 18.6 33.5 16.4 35
Q 16.6 35.65 16.45 36.3 16.35 36.8 16.8 37.25
L 18 37.1
Q 18.55 37.85 20.2 38.25 19.45 37.25 20 35.9
L 18.25 36.85
Q 20.05 34.6 18.95 31.75 18.75 31.2 18.55 30.7
M 18.6 25.3
L 18.6 25.4 18.95 24.9
Q 18.2 25.45 17.65 25.95
L 17.85 25.95
Q 18 25.85 18.2 25.8 18.35 25.65 18.45 25.5 18.55 25.35 18.6 25.3
M 20 12
L 20.2 13.5 20.45 12 20 12
M 18.55 23.9
Q 18.55 23.75 18.4 23.6 18.25 23.5 18.05 23.5 17.85 23.5 17.7 23.6 17.55 23.75 17.55 23.9 17.55 24.05 17.7 24.15 17.85 24.3 18.05 24.3 18.25 24.3 18.4 24.15 18.55 24.05 18.55 23.9
M 36.15 23.3
Q 35.85 23.4 35.55 23.5 35.45 24.05 36.1 24.2 36.4 24.2 36.75 24.2
L 36.15 23.3
M 38 21.3
L 38.1 21.4
Q 38.65 21.05 38 21.3
M 39.6 21.05
Q 39.45 21.2 39.45 21.4 39.45 21.6 39.6 21.7 39.75 21.85 40 21.85 40.25 21.85 40.4 21.7 40.55 21.6 40.55 21.4 40.55 21.2 40.4 21.05 40.25 20.95 40 20.95 39.75 20.95 39.6 21.05
M 34.95 20
Q 35.6 21 35 21.9
L 36.45 21.5
Q 36 20.55 35.6 19.6
L 36.8 20.95 36.75 21.45 37.1 21.8 37.05 21.1
Q 37.7 20.1 38.35 19.1
L 36.1 19.3 35.9 18.5
Q 35.3 18.65 35.55 19.8
L 34.95 20
M 32.25 23.1
Q 32.25 22.9 32.1 22.75 32 22.6 31.85 22.6 31.7 22.6 31.55 22.75 31.45 22.9 31.45 23.1 31.45 23.3 31.55 23.45 31.7 23.6 31.85 23.6 32 23.6 32.1 23.45 32.25 23.3 32.25 23.1
M 32.65 22.8
Q 32.65 22.95 32.75 23.05 32.85 23.2 32.95 23.2 33.05 23.2 33.15 23.05 33.25 22.95 33.25 22.8 33.25 22.65 33.15 22.5 33.05 22.4 32.95 22.4 32.85 22.4 32.75 22.5 32.65 22.65 32.65 22.8
M 31.6 21.3
L 31.6 18.6 30.85 18.4 30.95 19 29.85 20.6 31.6 21.3
M 32.65 17.35
Q 32.65 17.5 32.8 17.6 32.95 17.75 33.15 17.75 33.35 17.75 33.5 17.6 33.65 17.5 33.65 17.35 33.65 17.2 33.5 17.05 33.35 16.95 33.15 16.95 32.95 16.95 32.8 17.05 32.65 17.2 32.65 17.35
M 32.35 16.4
Q 32.35 16.25 32.2 16.1 32.05 16 31.85 16 31.65 16 31.5 16.1 31.35 16.25 31.35 16.4 31.35 16.55 31.5 16.65 31.65 16.8 31.85 16.8 32.05 16.8 32.2 16.65 32.35 16.55 32.35 16.4
M 31.35 15.2
Q 31.15 15.45 31.05 15.35 30.65 15.3 30.35 14.9
L 30.5 16.2
Q 31.6 15.4 32.95 15.7 32.75 14.6 31.7 15.05 31.5 15.1 31.35 15.2
M 35.35 15
L 34.85 15 35.1 15.5 35.35 15
M 33.25 13.15
L 34.1 13.35 33.45 15 33.95 14.4 35.1 14
Q 34.7 13.6 34.25 13.35 33.75 13.2 33.25 13.15
M 36.6 14.1
L 36.25 13.3 35.35 13 36.6 14.1
M 37.65 17.65
Q 37.5 17.7 37.35 17.8
L 38.9 17.95
Q 38.65 17.15 37.65 17.65
M 29.65 17.75
Q 29.65 17.8 29.7 17.9 30.1 18.15 30.5 17.45 30.55 17.3 30.6 17.15 29.9 17.35 29.65 17.75
M 26.1 12.4
L 26.95 13.3 26.5 11.6 26.1 12.4
M 21.2 12.15
Q 21.4 12.2 21.6 12.3
L 21.05 11.85
Q 20.7 11.95 21.2 12.15
M 29.5 11
Q 28.65 11.4 28.3 12.15 28.1 12.55 28.35 12.95 28.4 13.05 28.55 13.1 28.85 13.15 28.85 12.65 28.85 12.45 28.85 12.3 29.55 13 30.5 12.75 30.55 12.85 30.6 12.7 31.05 13 30.85 13.35
L 31 13.25
Q 31.55 13.05 32.05 12.75 32.35 12.25 31.7 12.05
L 29.6 12.1 29.5 11
M 36.45 11.95
L 36.6 11.15 36 11.2
Q 35.75 11.5 35.65 11.8 35.65 11.95 35.8 12.15
L 36.45 11.95
M 36.6 8.4
Q 37.05 8.8 37.6 9.15 37.95 8.55 37.75 7.8 37.7 7.6 37.65 7.45
L 36.55 7.35 36.3 7.9
Q 36.4 8.2 36.6 8.4
M 39.1 7.05
L 38.2 7.05
Q 37.35 7.55 38.35 7.75 38.45 7.65 38.55 7.55
L 39.5 8.05 39.95 7.35 39.1 7.05
M 30.45 11
L 30.7 10.55 30.2 10.55 30.45 11
M 61.1 32.25
Q 61 32.1 60.65 32.4 61.35 32.8 61.1 32.25
M 75 38.2
L 74.65 38.2 74.65 38.7 75 38.7 75 38.2
M 71.15 46.05
Q 71.7 45.95 71.65 45.15
L 70.65 45.15
Q 70.65 45.6 71 45.95 71.05 46 71.15 46.05
M 68 43.9
L 70 43.6 69.5 42.5 68 43.9
M 66.65 48.15
L 67.65 47.15 66.65 47.15 66.65 48.15
M 70.25 46.1
L 70.2 46
Q 69.7 46.35 69.25 46.8 69.75 46.65 70.2 46.35 70.25 46.3 70.25 46.1
M 69.5 45.2
Q 69.75 44.6 68.9 44.7 68.2 44.75 67.75 45.15
L 68.6 45.35 69.5 45.2
M 61.65 46.55
L 62 47.65 60.75 46.85
Q 61.15 47.55 61.8 48.1 61.95 48.2 62 48.4 62.05 48.5 62.05 48.65 62.1 48.8 62.15 49 62.2 49.1 62.3 49.2 62.45 49.25 62.65 49.35 62.8 49.25 62.85 49.15 63 48.95 63 48.75 63 48.65 62.95 48.55
L 64.25 48.05
Q 64.4421875 47.3775390625 64.5 46.65 64.48046875 46.7794921875 64.4 46.9 63.45 47.25 62.3 46.75 61.95 46.65 61.65 46.55
M 61.45 46
L 63.25 46.4
Q 63.1 46.2 62.95 46.15 62.2 45.6 61.45 46
M 63.65 44.95
Q 63.8 45.2 64.05 45.45 64.3 45.6 64.65 45.75
L 65.3 47.65
Q 65.3 46.65 66.3 46.1
L 66.15 46.05 65.2 44.5
Q 64 44.45 63.65 44.95
M 63.05 41.65
Q 62 41.4 62 42.2 61.4 42.85 62.55 43.15 62.75 43.1 62.95 43.1 62.55 42.95 62.7 42.55 62.8 42.3 62.95 42.1 63.25 41.65 63.2 42.85 63.2 42.9 63.15 43 63.95 42.7 63.35 42 63.2 41.8 63.05 41.65
M 63.15 39.7
L 62.3 40.15 63.05 40.8
Q 63.7 40.7 63.45 40.2 63.3 39.9 63.15 39.7
M 61.45 39.2
Q 61.75 38.6 60.8 38.4 60.65 38.4 60.5 38.45 60.95 38.8 61.45 39.2
M 65.1 39.8
Q 64.85 39.8 64.65 39.95 64.5 40.1 64.5 40.3 64.5 40.5 64.65 40.65 64.85 40.8 65.1 40.8 65.35 40.8 65.5 40.65 65.7 40.5 65.7 40.3 65.7 40.1 65.5 39.95 65.35 39.8 65.1 39.8
M 63.55 39.4
Q 63.75 39.25 63.75 39 63.75 38.75 63.55 38.6 63.35 38.45 63.05 38.45 62.75 38.45 62.55 38.6 62.35 38.75 62.35 39 62.35 39.25 62.55 39.4 62.75 39.55 63.05 39.55 63.35 39.55 63.55 39.4
M 63.8 38.35
L 63.5 37.25
Q 63.15 37.2 62.9 37.35 62.65 37.45 62.7 37.75 62.75 37.9 62.95 38.05
L 63.8 38.35
M 65.65 38.15
L 65.65 37.15
Q 65.2 37.05 64.9 37.45 64.8 37.55 64.75 37.65 64.85 38.1 65.3 38.15 65.45 38.15 65.65 38.15
M 65 42.8
L 65.45 43 65.95 42.5 65 42.8
M 66.45 42
Q 66.2 41.85 65.95 41.75 65.8 41.75 65.7 41.8 65.8 42.15 65.95 42.5
L 66.45 42
M 67.05 43.15
Q 66.8 43.15 66.65 43.25 66.5 43.4 66.5 43.6 66.5 43.8 66.65 43.9 66.8 44.05 67.05 44.05 67.3 44.05 67.45 43.9 67.6 43.8 67.6 43.6 67.6 43.4 67.45 43.25 67.3 43.15 67.05 43.15
M 66 39.9
Q 66.3 40.05 66.65 40.2
L 67.3 41.45 68.1 41.7 68.15 40.75 66 39.9
M 68.7 37.75
L 68.7 38 69.2 38 69.2 37.75 68.7 37.75
M 67.25 38.9
Q 67.45 39.15 67.75 39.3
L 67.15 38.65
Q 67.15 38.8 67.25 38.9
M 68.45 39.95
L 68.65 39.15 67.75 39.3
Q 67.65 39.55 67.65 39.8 67.65 39.95 67.8 40.15
L 68.45 39.95
M 68.95 34.5
Q 68.95 34.4 68.95 34.3 68.55 34.85 68.15 35.4 68.65 35.85 68.8 35.1 68.85 34.8 68.95 34.5
M 69.8 36.05
L 70.05 36.5 70.3 36.05 69.8 36.05
M 65.9 32.55
L 66.15 32.1 65.65 32.1 65.9 32.55
M 70.85 34
L 70 33.1 70 34.2 70.85 34
M 68.35 32.25
L 68.35 31.7 68.05 31.7 68.05 32.25 68.35 32.25
M 64.45 36.7
Q 64.3 36.7 64.15 36.85 64.05 37 64.05 37.2 64.05 37.4 64.15 37.55 64.3 37.7 64.45 37.7 64.6 37.7 64.7 37.55 64.85 37.4 64.85 37.2 64.85 37 64.7 36.85 64.6 36.7 64.45 36.7
M 64.5 34.5
L 63.45 34.2 66.15 35.4 65.95 36.95 68.25 34.55 68.05 33.45 68.95 33.15 67.7 33.15 67.45 34.25 66.7 34.25 66.2 35.05 66.45 33.2
Q 65.8 34.25 64.5 34.5
M 65.25 35.35
Q 65.05 35.25 64.8 35.25 64.55 35.25 64.35 35.35 64.15 35.45 64.15 35.6 64.15 35.75 64.35 35.85 64.55 35.95 64.8 35.95 65.05 35.95 65.25 35.85 65.45 35.75 65.45 35.6 65.45 35.45 65.25 35.35
M 61.8 37
L 60.75 36.7
Q 60.15 36.75 60.6 37.4 60.65 37.5 60.8 37.6
L 61.8 37
M 62.4 25.95
Q 62.3 25.8 62.15 25.8 62 25.8 61.85 25.95 61.75 26.1 61.75 26.3 61.75 26.5 61.85 26.65 62 26.8 62.15 26.8 62.3 26.8 62.4 26.65 62.55 26.5 62.55 26.3 62.55 26.1 62.4 25.95
M 69.55 29.55
Q 69.45 29.65 69.45 29.8 69.45 29.95 69.55 30.05 69.65 30.15 69.8 30.15 69.95 30.15 70.05 30.05 70.15 29.95 70.15 29.8 70.15 29.65 70.05 29.55 69.95 29.45 69.8 29.45 69.65 29.45 69.55 29.55
M 65.95 27.2
Q 65.95 27.05 65.85 26.95 65.75 26.85 65.65 26.85 65.55 26.85 65.45 26.95 65.35 27.05 65.35 27.2 65.35 27.35 65.45 27.45 65.55 27.55 65.65 27.55 65.75 27.55 65.85 27.45 65.95 27.35 65.95 27.2
M 71.45 33.7
Q 71.559375 33.6634765625 71.6 33.65 71.348828125 33.2578125 71.3 33.6 71.3 33.65 71.45 33.7
M 75.65 36.15
L 75.65 35.15
Q 75.25 35.15 74.9 35.5 74.8 35.55 74.75 35.65 74.9 36.2 75.3 36.15 75.45 36.15 75.65 36.15
M 71.8 30.15
L 70.9 30.45
Q 71.4 30.3 71.85 30.15
L 71.8 30.15
M 59.8 50.55
Q 60.3 50.95 60.7 50.15 60.8 50 60.75 49.75 60.55 49.8 60.4 49.7 60.25 49.65 60.25 49.55 59.5 49.7 59.75 50.4 59.75 50.45 59.8 50.55
M 60.6 49.05
Q 60.5 49.05 60.4 49.15 60.3 49.25 60.25 49.55
L 60.75 49.75
Q 60.85 49.75 60.85 49.55 60.85 49.35 60.75 49.2 60.7 49.05 60.6 49.05
M 58 45.1
Q 58 44.65 57.9 45.1
L 58 45.1
M 56.95 44.4
L 56.15 44.7
Q 56.05 44.95 56.7 44.7 56.85 44.6 56.95 44.4
M 57 43.45
Q 57 43.5 57.15 43.6 57.1 42.9 57 43.45
M 56.65 41.15
Q 56.85 42.3 57.95 42.5 58.05 42.45 58.2 42.45 58.4 42.2 58.45 41.9 58.55 41.6 58.5 41.3
L 56.65 41.15
M 58 38.2
Q 58.1 38.25 58.1 38.2 58.55 37.85 58 38.2
M 48.25 44.15
Q 48.75 43.85 49.25 43.6
L 47 43.1 47.2 44.45
Q 47.7 44.3 48.25 44.15
M 45.5 42.05
Q 45.4 42.1 45.45 42.3 46.25 42.9 46.35 42.4 46.2 41.45 45.5 42.05
M 50 41
Q 49.8 40.6 49.65 40.25
L 49.6 40.95 50 41
M 49.35 38.3
Q 49.2 38.3 49.05 38.4 48.95 38.55 48.95 38.75 48.95 38.95 49.05 39.05 49.2 39.2 49.35 39.2 49.5 39.2 49.6 39.05 49.75 38.95 49.75 38.75 49.75 38.55 49.6 38.4 49.5 38.3 49.35 38.3
M 59 36.75
Q 58.85 36.85 58.85 37 58.85 37.15 59 37.25 59.15 37.35 59.35 37.35 59.55 37.35 59.7 37.25 59.85 37.15 59.85 37 59.85 36.85 59.7 36.75 59.55 36.65 59.35 36.65 59.15 36.65 59 36.75
M 63.4 35.7
L 64 35.9 63.9 35.1 63.4 35.7
M 59.75 35.1
Q 59.1 35.05 58.5 35
L 63 36.7
Q 63 36.4 63.1 36.2 63.1 36.15 63.25 36.15 63.4 36.1 63.55 36.1 63.7 36.1 63.75 36.05
L 63.65 36
Q 63.5 35.85 63.4 35.7 61.7 35.2 59.75 35.1
M 57.3 36.4
L 57.3 36.3
Q 56.55 35.25 55.5 35.9
L 56.95 36.2
Q 57.1 36.35 57.3 36.4
M 60.55 33.7
Q 60.4 33.7 60.25 33.8 60.15 33.9 60.15 34.05 60.15 34.2 60.25 34.3 60.4 34.4 60.55 34.4 60.7 34.4 60.8 34.3 60.95 34.2 60.95 34.05 60.95 33.9 60.8 33.8 60.7 33.7 60.55 33.7
M 53.5 22.05
L 53.45 21.9 52.85 21.7
Q 52.85 21.75 53.5 22.05
M 54.5 23.2
L 54.95 23.4
Q 55.15 22.85 54.45 23.1
L 54.5 23.2
M 51.85 20.95
Q 52 20.8 52 20.6 52 20.4 51.85 20.25 51.7 20.1 51.5 20.1 51.3 20.1 51.15 20.25 51 20.4 51 20.6 51 20.8 51.15 20.95 51.3 21.1 51.5 21.1 51.7 21.1 51.85 20.95
M 53.25 21.1
L 53.3 21
Q 52.9 20.35 53.25 21.1
M 52.6 14.05
Q 52.65 14.7 53.3 14.45
L 52.6 14.05
M 54.85 17.65
L 55.5 17.35
Q 54.85 17.05 54.35 17.5 54.3 17.55 54.3 17.7 54.45 17.9 54.6 17.8 54.75 17.85 54.85 17.65
M 51.85 17.85
Q 51.75 17.85 51.7 17.95 51.65 18.05 51.65 18.15 51.65 18.25 51.7 18.35 51.75 18.45 51.85 18.45 51.95 18.45 52 18.35 52.05 18.25 52.05 18.15 52.05 18.05 52 17.95 51.95 17.85 51.85 17.85
M 52.65 14.7
L 51.65 15.3
Q 52 15.85 51.4 16.4 51.05 16.75 51.1 17.45 51.65 17.85 52.15 17.3 52.4 16.95 52.85 16.7 53 16.65 53.2 16.65 53.05 16.15 52.9 15.7 52.75 15.2 52.65 14.7
M 55.4 14.9
Q 55.2 14.95 55 15 54.75 15.8 55.65 16 55.7 15.95 55.8 15.9 56.25 15.2 55.4 14.9
M 53.85 14.25
Q 53.8 14.4 53.85 14.65
L 54.15 15.15
Q 54.05 14.55 53.85 14.05 53.85 14.1 53.85 14.25
M 54.5 13.25
Q 54.5 13.15 54.4 13.05 54.35 13 54.25 13 54.15 13 54.05 13.05 54 13.15 54 13.25 54 13.35 54.05 13.4 54.15 13.5 54.25 13.5 54.35 13.5 54.4 13.4 54.5 13.35 54.5 13.25
M 56.6 14.55
Q 56.75 14.45 56.75 14.35 56.75 14.25 56.6 14.15 56.45 14.05 56.25 14.05 56.05 14.05 55.9 14.15 55.75 14.25 55.75 14.35 55.75 14.45 55.9 14.55 56.05 14.65 56.25 14.65 56.45 14.65 56.6 14.55
M 48.65 23.1
Q 49.05 22.9 49.35 22.6
L 48.25 22.5 48.3 23.3
Q 48.5 23.25 48.65 23.1
M 46.95 21.1
Q 46.85 21.25 46.85 21.4 46.85 21.55 46.95 21.65 47.1 21.8 47.3 21.8 47.5 21.8 47.6 21.65 47.75 21.55 47.75 21.4 47.75 21.25 47.6 21.1 47.5 21 47.3 21 47.1 21 46.95 21.1
M 48.85 20.7
Q 49 20.6 49 20.45 49 20.3 48.85 20.15 48.75 20.05 48.55 20.05 48.35 20.05 48.2 20.15 48.1 20.3 48.1 20.45 48.1 20.6 48.2 20.7 48.35 20.85 48.55 20.85 48.75 20.85 48.85 20.7
M 44.35 15.8
L 44.45 16.95 45.6 18.15
Q 45.75 17.1 44.9 16.25 44.65 16 44.35 15.8
M 50.05 19.25
L 49.6 19.3
Q 49.35 20.3 50.05 20.75 50.15 20.8 50.3 20.85
L 50.8 20.1 50.05 19.25
M 49.15 17
L 48.1 17.05
Q 47.8 18.7 49.6 19.3 49.6 19.25 49.6 19.15 49.8 19.2 50.05 19.25 50.8 18.35 49.6 17.9
L 49.6 18.1 49.15 17
M 41.75 8.85
Q 41.4 8.65 41.1 8.5 40.9 9.2 41.6 9.35 41.75 9.3 41.9 9.25 42.25 9 41.75 8.85
M 44.3 7.1
Q 44.25 7.15 44.2 7.25 44.3 7.4 44.45 7.55 45.1 7.85 45.95 7.6 45.1 7.2 44.3 7.1
M 45.55 8.1
Q 45.45 8.2 45.45 8.35 45.45 8.5 45.55 8.6 45.65 8.7 45.75 8.7 45.85 8.7 45.95 8.6 46.05 8.5 46.05 8.35 46.05 8.2 45.95 8.1 45.85 8 45.75 8 45.65 8 45.55 8.1
M 44.3 8.1
L 43.85 7.8
Q 43.95 8 44.15 8.1 44.2 8.15 44.3 8.1
M 46.6 5.8
Q 46.638671875 5.8 46.75 5.8 46.8478515625 5.3103515625 46.6 5.8
M 56 8
L 56.25 8.25 56.5 8 56 8
M 54.45 12
L 53.95 12 54.2 12.6 54.45 12
M 51.5 9.7
Q 51.5 9.55 51.35 9.45 51.25 9.35 51.05 9.35 50.85 9.35 50.7 9.45 50.6 9.55 50.6 9.7 50.6 9.85 50.7 9.95 50.85 10.05 51.05 10.05 51.25 10.05 51.35 9.95 51.5 9.85 51.5 9.7
M 52.6 9.15
Q 52.55 9.15 52.55 9.25 52.35 9.45 52.2 9.7 52.05 9.85 51.9 10.05 51.55 10.5 51.2 10.5 50.15 9.9 50 8.5 49.95 8.1 49.7 7.8 49.3 7.25 48.45 7.3
L 47.85 7.65 47.85 7.95
Q 46.95 7.85 46.05 7.5
L 46.15 9.1
Q 46.3 9.25 46.5 9.4 46.65 9.55 46.85 9.65 47.05 9.6 47.25 9.55 47.4 9.35 47.6 9.35 47.7 9.35 47.85 9.5 48.25 9.85 48.55 10.45 48.35 10.45 48.2 10.35 47.9 10.3 47.65 10.1 47.35 10 47.1 9.9
L 46.55 10.35
Q 46.6 10.6 46.8 10.8 47.05 11.1 47.4 11.4 47.65 11.6 47.85 11.9
L 46.65 11.85
Q 46.7 11.95 46.8 12 46.9 12.05 47.1 12.05
L 47.45 12.3 47.6 13.45 47.95 13.1 48.05 12.2 48.55 12.25
Q 48.85 12.5 49.1 12.85 49.25 13.15 49.35 13.5
L 48.65 13.2
Q 48.25 13.35 47.85 13.6 47.65 13.75 47.5 14
L 49.15 14 47.55 16.35
Q 49.6 16.45 51.1 14.85
L 49.85 14.75 50.55 14
Q 50.5 13.8 50.4 13.7 50.3 13.5 50.25 13.35 50 13 49.85 12.65 50.1 12.2 50.6 12.65 51.25 13.1 52 13.55 52.1 13.55 52.3 13.55 52.4 13.65 52.5 13.75
L 52.8 13.15
Q 52.55 13 52.4 12.85 52.2 12.75 52.05 12.6 51.85 12.45 51.65 12.35 51.95 12.25 52.25 12.2 53.6 11.6 54.6 10.75
L 53.6 9.25
Q 53.1 9.15 52.6 9.15
M 51.65 11.6
Q 51.65 11.4 51.75 11.25 51.85 11.1 52 11.1 52.15 11.1 52.25 11.25 52.35 11.4 52.35 11.6 52.35 11.8 52.25 11.95 52.15 12.1 52 12.1 51.85 12.1 51.75 11.95 51.65 11.8 51.65 11.6
M 49.45 10.75
Q 49.55 10.65 49.65 10.65 49.75 10.65 49.8 10.75 49.9 10.85 49.9 10.95 49.9 11.05 49.8 11.15 49.75 11.25 49.65 11.25 49.55 11.25 49.45 11.15 49.4 11.05 49.4 10.95 49.4 10.85 49.45 10.75
M 61.6 23.7
L 62.65 24.15 62.6 23.5
Q 62.5 23.3 62.35 23.25 62.15 23.1 61.95 23.05 61.75 23.15 61.7 23.35 61.6 23.5 61.6 23.7
M 63.65 18
Q 63.55 18.15 63.55 18.35 63.55 18.55 63.65 18.65 63.8 18.8 64 18.8 64.2 18.8 64.3 18.65 64.45 18.55 64.45 18.35 64.45 18.15 64.3 18 64.2 17.9 64 17.9 63.8 17.9 63.65 18
M 62.85 16.4
L 62.35 16.4 62.35 16.7 62.85 16.7 62.85 16.4
M 62.75 10.2
L 62.15 11.2
Q 62.2 11.75 62.3 12.3
L 61.5 12.1 62.9 15 64.25 15
Q 64.8 15.4 64.75 16.15
L 65.55 15.15 66.6 14.75
Q 66.6 13.85 65.9 13.3
L 65.2 13.05 64.5 13.7 63.85 14.15
Q 63 13.85 63.55 13.55 63.7 13.45 63.8 13.3
L 63.95 12.4 62.65 13.1
Q 63.4 11.75 62.75 10.2
M 65.35 11.45
Q 65.4 11.4 65.45 11.3 65.2 11.05 65.15 11.35 65.05 11.65 65.35 11.45
M 85.6 55.5
L 85.3 53.25 84.7 54.35
Q 83.85 54.45 83.7 54.7
L 83.35 56.4
Q 84.75 57 85.6 55.5
M 58.4 81.2
L 58.4 81.1 58.35 81.1
Q 58.35 81.15 58.4 81.2
M 48.4 51.4
Q 48.4 51.3 48.35 51.2
L 46.25 50.5 46.1 51.3 45.1 50.4
Q 44.8 51.15 45.05 52.05 45.1 52.3 45.2 52.55
L 45.25 52.6 45.5 51.9 48.3 52.8
Q 48.35 52.55 48.4 52.35 48.45 51.85 48.4 51.4
M 60.85 69.15
Q 61.45 69.4 61.9 69.05 62.35 68.75 61.8 68.3
L 60.85 69.15
M 30.45 78.95
L 30.6 78.15 30 78.2
Q 29.75 78.5 29.65 78.85 29.65 78.95 29.8 79.15
L 30.45 78.95
M 31 67.05
Q 31.15 67.05 31.25 66.95
L 31.05 66.9 31 67.05
M 39.4 62.85
L 39 63.05 38.65 63.4 39.2 63.25 39.4 62.85
M 34.5 36.25
L 34.35 36.15 34.35 36.3
Q 34.45 36.3 34.5 36.25
M 54.25 46.45
Q 53.7 47 53.95 47.8
L 55.35 47.25
Q 56.3 47.45 56.5 48.45 56.65 49.1 57.35 49.35 58.35 49.75 58.4 50.85 58.4 51.35 58.45 51.9
L 59.5 50.9 58.95 50.75
Q 58.2 49.95 58.2 48.9 58.2 48.5 58.15 48.15 58.15 47.8 58.1 47.45
L 57.25 46.95
Q 57.45 47 57.65 47.1
L 57.35 46
Q 57.2 46.1 57.05 46.25 56.8 46.5 56.6 46.75 56.4 46.7 56.3 46.6 56.2 46.55 56.2 46.5 56.15 46.35 56.15 46.2
L 56.65 45.5
Q 55.3 45.45 54.25 46.45
M 51.65 43.9
L 51.65 44
Q 51.7 44 51.75 43.95
L 51.65 43.9
M 44.5 42
L 44.55 42.2 45 42 44.5 42
M 44.4 26.05
L 44.55 26.95
Q 44.75 26.8 44.85 26.65
L 44.8 26.6 44.4 26.05
M 82.1 53.65
Q 81.85 53.75 81.6 53.9
L 81.65 53.95
Q 81.55 53.9 81.4 53.75
L 81.35 53.7
Q 79.15 53.15 76.9 53.45 76.15 53.5 75.85 54.05
L 75.65 54.75
Q 75.55 54.5 75.5 54.35 75.45 54.1 75.4 53.95 75.2 53.6 74.95 53.3 74.9 53.2 74.8 53.2 74.6 53.25 74.45 53.35 74.35 53.45 74.3 53.6 74.25 53.75 74.2 53.95 74.15 54.15 74.1 54.4 73.15 53.7 72.1 54.3 70.7 55 69.2 54.75 68.2 54.55 67.2 54.4 65.35 56.05 62.85 56.2 62.75 56.3 62.7 56.4 62.4 56.2 62.15 56.05 61.2 55.5 60.2 55 58.85 54.25 59.05 52.75
L 59.25 52.6
Q 58.8 52.35 58.1 52.3 56.25 52.4 54.65 51.7 53.45 51.25 52.25 51.7 50.65 52.35 49 52.75 49.85 53.25 50.5 53.5 50.7 53.55 50.85 53.75
L 49.65 53.85
Q 49.5521484375 54.5353515625 49.5 55.2
L 50.95 55.1
Q 51.35 55.15 51.75 55.35 52.2 55.55 52.65 55.9 51.3 56.55 50.05 56.35 49.05 56.15 48.2 56.3 48 56.3 47.8 56.35
L 47.35 55.4 49.45 55.2 47.45 54.05
Q 47.8 54.15 48.2 54.25 48.35 54.2 48.45 54.1 48.55 54.1 48.65 54.05 48.6 53.75 48.5 53.55 48.35 53.3 48.1 53.15 47.55 53.25 47.05 53.4
L 46.9 53.95 45.7 54.65
Q 45.65 54.45 45.6 54.35 45.45 54.15 45.3 54.05 45.2 54.05 45.1 54.1 44.9 54.3 44.75 54.5 44.65 54.75 44.6 54.95
L 45.6 54.8
Q 45.3 54.95 45.05 55.1 44.8 55.05 44.6 54.95 44 55 44.15 54.55 44.15 54.45 44.05 54.3 43.5 54.3 43.6 53.75 43.6 53.65 43.65 53.6
L 46.1 53.8
Q 46.5 53.5 46.15 53.2
L 45.25 52.6 45.25 52.65
Q 45.2 52.65 45.2 52.55
L 44.85 52.35 44.75 52.9
Q 43.9 51.65 44.7 50.25 44.8 50 44.95 49.8
L 47.7 50 47.6 49.1 46.95 49.1 47.6 47.65 47.45 47.2
Q 47.05 47 46.6 47 46.25 46.8 45.9 46.8 45.95 46.6 46 46.45 46.1 46.3 46.15 46.15 46.25 45.9 46.35 45.7
L 47.05 45.15
Q 46.85 44.9 46.7 44.7 46.15 44.85 45.65 45 45.6 44.45 45.45 44 45.45 43.95 45.3 43.95 45.05 43.65 44.9 43.35 44.7 42.8 44.55 42.2 43.95 42.7 44.25 43.4 44.35 43.65 44.45 43.95 42.8 43.65 42.3 42 42.15 41.5 42.35 41.2
L 42.6 41.4
Q 42.6 41.6 42.55 41.8 42.5 41.9 42.35 42
L 44.5 42 43.75 40.85 43.6 41.25 42.75 40.85 45.25 40.25 43.5 38 44.6 37.75
Q 45.45 37.3 46.4 37.6 46.45 37.7 46.55 37.75
L 47.6 37.35
Q 47.6 37.6 47.45 37.75 47.45 37.8 47.35 37.8 47.15 37.75 47.05 37.85 46.8 37.95 46.6 38.15
L 44.6 37.75
Q 46.1 39.15 45.65 41
L 45.8 40.95 46.2 38.65 47.85 38.05
Q 47.9 37.8 48 37.8 48.35 37.7 48.75 37.85 48.85 37.25 48.45 36.9 47.65 36.25 47.6 35.15 48.45 36.2 49.85 36.35
L 49.1 37.45 49.75 38.1
Q 50.3 38.3 49.75 37.45 49.65 37.25 49.65 37.05
L 50.6 37
Q 50.55 37.45 50.55 37.9 50.45 39.75 51.6 41 51.7 41.1 51.75 41.25 52.05 41.6 51.8 41.55 51.5 40.9 50.9 41.3 50.5 41.6 50.35 42.1 50.20703125 42.52890625 50.1 43 50.1375 42.9375 50.25 42.9 50.55 42.7 50.85 42.7 51.05 42.7 51.25 42.9 51.3 43.25 51.45 43.6 51.55 43.75 51.65 43.9 52.05 42.9 52.95 42.8 53.05 42.85 53.2 42.9 53.4 43.1 53.45 43.4 53.55 43.7 53.5 44.05
L 51.65 44 49.85 44
Q 49.8 44.65 50.3 45.2 50.4 45.35 50.55 45.5 50.55 45.75 50.45 46 50.15 46.75 50.8 47.35 49.6 47.35 48.6 47.85 48.5 47.9 48.45 48.1 48.8 48.8 49.8 48.8 50.15 48.8 50.3 48.6 50.45 48.35 50.65 48.4 50.75 48.3 50.95 48.5 51 49.25 50.65 49.95 50.25 50.65 50.7 51.3 51.05 51.45 51.45 51.65 51.6 51.55 51.8 51.55 53.15 51.05 53.7 49.95
L 54.25 51.05
Q 54.55 49.95 53.85 49.2
L 53.35 49 54.65 48.65 53.95 47.8
Q 53.75 47.5 53.7 47.2 53.6 46.7 53.6 46.2
L 55.7 45.55
Q 56.15 45.15 55.7 44.7
L 54.5 44.75
Q 54.15 44.05 54.9 43.45 55.2 43.2 55.4 42.85
L 55.8 43.45
Q 55.7 43.8 55.65 44.15 56.15 43.55 55.7 43 55.6 42.8 55.5 42.65 55.75 41.6 56 40.7 56.0611328125 40.51640625 56.1 40.3 55.955859375 40.698046875 55.5 40.85 55.45 40.95 55.35 41
L 54.7 40.4
Q 54.9 40.3 55.15 40.25
L 54.4 39
Q 55.5 39.35 56.3 38.4 56.6 38.05 56.9 37.7 57.1 37.35 57.3 37 56.05 37.35 55 38.15 55.3 36.9 54.35 36.05 53.1 35.9 54.35 36.6 54.7 36.8 55 37.15 54.5 37 53.9 36.75 53.35 36.75 52.8 36.75
L 53 37.4
Q 52.65 38.5 51.65 39.15
L 52.95 39.8
Q 53.1 40.45 51.85 39.95 51.65 39.8 51.5 39.7 51.2 38.35 51.3 36.7 51.35 36.3 51.2 35.9 51 35.55 50.85 35.2 51.1 35.3 51.1 35.15 51.5 34.8 51.95 35.5 52 35.6 52.05 35.7 51.95 34.95 51.3 34.55 52.7 33.55 53.85 32.7 54.25 32.4 54.8 32.25
L 54.1 33 54.85 33 53.15 35.05 53.9 34.55 55.05 35.1
Q 55.9763671875 35.0025390625 55.95 33.9
L 57 35.05 57.3 33.75 58.15 34.65 59 33.4 59 32.05 60.3 32.35
Q 59.6 30.05 60.8 28.25
L 63.35 30.25
Q 62.2912109375 30.176953125 61.3 29.75 61.3900390625 29.7599609375 61.45 29.7 61.55 29.6 61.55 29.45 61.55 29.3 61.45 29.2 61.35 29.1 61.2 29.1 61.05 29.1 60.95 29.2 60.85 29.3 60.85 29.45 60.85 29.5267578125 60.85 29.6 60.73828125 29.5244140625 60.6 29.45 60.05 30.4 60.45 31.25
L 62.1 31.45 62.4 30.95 63.65 30.95 62.5 31.85 63.75 32 64.3 31.3 65 31.1
Q 64.2 32.4 64.8 33.65 65.4 32.6 65.85 31.45 66.3 30.4 67.4 30.4 67.95 30.65 68.55 30.9
L 68.95 30.45
Q 66.85 30.55 65.8 28.95 65.7 28.8 65.8 28.6 66.7 29.6 68 29.55 68.6 29.25 68.7 28.7
L 68.2 28.05
Q 67.05 27.85 66.15 28.5
L 66.95 27.3 67 26.85
Q 65.95 28.05 64.45 27.65 63.95 27.5 63.45 27.35
L 64.7 26.85 64.2 26.6
Q 63.25 26.7 62.25 27.05 61.9 27.15 61.5 27.1 61.4 27.05 61.3 27 60.889453125 26.5521484375 61.05 26.25 60.701171875 26.6380859375 60.5 27 60.5 27.05 60.4 27.1 60.3 27 60.25 26.9 60.2 26.75 60.25 26.65 60.3 26.6 60.4 26.55
L 61 26.15 60.7 25.45 59.85 25.35
Q 59.3 26.2 58.4 26.05
L 58.65 25.15 58 25.2 57.6 25.5 56.85 25.45
Q 56.8 25.7 56.8 26 55.9 25.6 54.9 25.15 53.9 24.7 53.2 25.45 52.75 25.9 52.4 26.45 50.1 24.55 47.05 24.5 45.35 24.65 43.75 24.5
L 43.05 25 43.15 26.7 42.35 26
Q 42.95 27.1 44.35 27 43.45 25.65 44.4 26.05 45.05 25.35 45.85 26 45.95 26.05 46.05 26.2 46 26.5 45.9 26.75 45.8 26.95 45.6 27.15
L 44.55 26.95
Q 44 27.4 43.25 27.5 42.8 27.35 42.4 27.2 41.85 27.3 41.3 27.45
L 43.25 23.5 42.1 22.65
Q 41.8 23.35 41.55 24.1 41 25.5 39.55 25.35
L 40.7 23.85
Q 40.35 23.7 40.25 23.5
L 40.45 23.5
Q 40.45 23.25 40.35 23.15 40.15 23 39.85 23.05 39.8 23.1 39.75 23.2
L 39.1 22.5 39 23.85 37.75 23.15 37.95 24.5 39.65 24.15
Q 39.1 25.7 37.55 25.35 36.2 25.05 34.85 24.65 35.45 26.7 34.15 28.1
L 35.2 29
Q 34 28.75 33.7 27.5 33.55 27.4 33.4 27.3 33 27.05 32.6 26.9
L 32.65 27.1
Q 32.05 27.35 31.4 27.35 31.2 27.4 31 27.45
L 30.65 28.1
Q 28.75 28 26.8 28.45 26.05 28.6 25.45 29.1 24.8 29.75 24.05 30
L 25.4 28.7 25.25 28.05
Q 23.75 28.05 22.2 28.15 21.05 28.25 19.9 27.6 19.3 27.2 18.6 27.35
L 18.35 27.5
Q 18.85 28.2 19.6 28.75 20.25859375 28.3080078125 21.1 28.25 21.55 28.7 21.8 29.25 22.05 29.8 22.05 30.5 24 30.15 25.85 30.75
L 25.95 29.85 27.35 30.6
Q 26 30.9 24.7 31.6 24.2 31.8 23.7 31.8 23.5 31.95 23.25 31.85 23.2 31.6 23.15 31.6 22.7 31.5 22.2 31.65
L 22.4 32.35
Q 22.2 32.65 22.25 32.7 22.85 33.3 23.7 33.65 24.35 34 25.05 34.55 25.35 34.75 25.75 34.8 25.85 34.65 25.85 34.7 26.15 35 26.35 35.5 26.45 35.25 26.45 35.05 26.4 34.55 26.15 34.15 25.5 33.25 24.4 32.8 24.25 32.7 24.15 32.55 24.4533203125 32.1556640625 24.8 32.25 25.322265625 31.9388671875 25.9 31.65 26.4 31.4 26.1 31.95 26.15 32.65 25.35 32.45 25.1265625 32.3755859375 24.9 32.3 25.072265625 32.427734375 25.25 32.65 25.6 33.05 26 33.4
L 26.75 33.5 28.45 32.2
Q 28.1 32.1 27.85 32
L 27.95 32 29.65 31.45
Q 29.75 31.35 29.85 31.25 29.95 31.1 30 31.1
L 30.05 31.2 30.05 31.4
Q 30.6 31 31.1 30.35 31.25 31.25 31.95 31.6 32.9 32 33.7 32.6 34.15 32.85 34.05 33.35 33.85 33.55 33.45 33.55 33.05 33.75 32.6 33.75 32.75 34.2 33.05 34.6 33.4 35 33.85 35.35
L 33 35.85
Q 33.7 36 34.35 36.15 34.45 35.3 34.75 36.4 35.05 37.35 34.45 37.8 33.85 37.5 34.15 36.65 34.25 36.5 34.35 36.3
L 33 37.25
Q 33.15 37.4 34.05 37.75 34.1 37.8 34.2 37.85 33.55 37.95 33.9 39.3 32.85 39.45 31.85 39.3 31.45 39.15 31.05 39 31.3 39.3 31.6 39.6 32.3 40.2 33.3 39.95
L 32.6 41 34 41
Q 32.6 42.75 33 44.6
L 33.85 45 32.8 45.45
Q 33.65 45.3 34.2 46.2 34.6 46.95 35.1 47.55
L 34.2 48.05
Q 35.95 49.05 37.45 50.1 38.15 50.55 38.35 50.25
L 40.05 49.65 40.85 50.55
Q 41.301171875 50.9107421875 42.1 50.85
L 40.7 51
Q 40.6 50.75 40.5 50.55 38.55 50.65 36.6 50.75 37.55 51.45 38.7 51.55 39.85 51.7 41 51.75 42 52 42.4 52.85 42.2 53.15 41.95 53.45 41.8 53.6 41.65 53.75 41.95 54.2 42.3 54.65 41.75 55.15 41.05 55.2 40.9 55.25 40.8 55.4
L 42.65 55.6
Q 43 56 42.5 56.2 41.8 56.5 41.15 56 40.8 56.2 40.5 56.4 40.2716796875 56.53046875 40.05 56.65 40.3193359375 56.0623046875 40.6 55.45
L 39.55 55.8 38.85 56.85
Q 38 57.35 37.2 56.35 37.05 56.2 36.85 56.05
L 37.6 57.35
Q 36.05 57.5 34.7 56.6 34.15 56.25 33.65 55.9 33.4 55.8 33.2 55.75 32.3 56.05 32.05 57 31.65 58.4 30.5 58.95
L 30.7 58.95 29.25 59.55
Q 29.25 59.4 29.35 59.3 29.7 58.8 30.15 58.35 30.35 58.2 30.5 58.05
L 27.6 58.85 28.35 57.85
Q 27.9107421875 58.230859375 27.2 58.2 26.8 58.15 26.4 58.15 26.2 58.2 26 58.3
L 25.25 59.8
Q 25 59.85 25 59.95 24.9 59.25 25.05 58.6
L 23.55 58.7 25.1 62.2
Q 25 62.55 25.05 62.9 25.05 62.95 25.25 63 26 63.4 26.2 64.4
L 26 65
Q 27.25 64.8 27.35 66.1 27.35 66.3 27.35 66.55 26.95 67.4 26.05 67.55
L 26.1 67.65
Q 26.15 67.75 26.2 67.9 26.5 68.05 26.9 68 27.05 68.15 27.3 68.1 28.3 68.45 28.7 69.25 28.9 69.7 29 70.25 29.05 70.4 29.05 70.6
L 27 71.85
Q 27.65 72.2 28.35 71.95 29.15 72.1 30.15 72.25 31.2 72.5 32.25 72.75 33.05 72.75 33.85 72.75 33.2 73.4 32.1 73.1 31.9 73.05 31.75 73.05 31.25 72.9 31 73.35 31.2 73.3 31.35 73.4
L 31.3 73.45
Q 31.25 73.55 31.15 73.65
L 30.15 74.35 29.95 74.95
Q 29.35 74.55 28.7 74.25 28.55 74.25 28.4 74.35
L 28.35 75.3
Q 28.25 75.4 28.15 75.35
L 28.1 75.45
Q 28.05 75.6 28.1 75.8
L 30.25 75.65 30.15 76.95 30.95 76.85 29.4 77.8 30.6 78.15 31.05 78.3
Q 31.5 78.2 32 78.1
L 32.15 78.5
Q 32.55 78.5 33 78.55 33.15 78.4 33.35 78.3
L 32.35 77.3
Q 31.95 77.35 31.6 77.55 31.35 77.6 31.2 77.85 31.6 76.35 32.45 75.25 32.75 74.8 33 74.35 33.35 74.6 33.8 74.8 34 74.9 34.25 74.9 34.8 74.55 35.25 74.15 36 73.35 37.1 72.75 36.55 72.3 36 71.85 35.5 71.5 35 71.2
L 35.7 71 34.1 70.9 34.6 71.95
Q 35.05 72 35.5 72.05 35.65 72.1 35.8 72.25 35.9 72.25 35.95 72.35 35.9 72.5 35.8 72.65 35.6 72.8 35.35 72.95 35 73.05 34.7 73.15 34.15 73 33.7 72.3 33.25 71.65 32.6 71.2 32.3 70.95 32 70.7
L 31.95 71.3
Q 31.2 71.55 30.6 70.9 30.15 70.45 29.85 69.9 30.25 68.55 31.5 67.7
L 30.45 67.65
Q 30.4 67.4 30.5 67.3 30.6 67.05 30.85 67 30.95 66.95 31.05 66.9
L 32.25 64.95 32.55 65.45
Q 32.45 66.2 31.85 66.6 31.55 66.75 31.25 66.95 32.75 67.6 33.4 69.05 33.45 69.15 33.5 69.25
L 32.3 69.75 31.15 69.25 31 70.9 31.7 69.5 32.95 70.9 33.1 70.1 33.55 70.4 35.3 70.1 33.3 69.8
Q 33.85 69.55 34.5 69.5 35.15 69.25 35.85 69.2 34.6 68.8 33.5 67.85 32.85 67.25 32.45 66.6
L 33.8 66.25 33.6 66.75 34.25 67.4 34.8 66.85 34.55 66.45 34.05 66.2
Q 35.9 65.95 36.7 64.3
L 37.7 65.5
Q 37.7 65 37.6 64.55 37.55 64.2 37.4 63.9 36.25 63.3 34.9 63.2 34.45 63.25 34 63.3 33.6 63.8 33.15 64.25 33.05 64.4 32.9 64.5
L 31.85 64.15
Q 32.1 63.65 32.25 63.1 32.35 62.7 32.35 62.25
L 33.35 62.15 33.1 62.85 36.45 62.7
Q 36.55 62.45 36.55 62.25 36.55 61.7 36.4 61.2 36.3 60.95 36.25 60.7
L 35.05 61.2
Q 34.85 61.15 34.85 61.1 34.8 60.55 34.95 60.05 34.4 60.4 34 60.9
L 34.1 61.05
Q 34.05 61.15 34 61.25
L 33.95 61.25
Q 33.75 61.25 33.6 61.15 33.45 61.05 33.35 60.95 33.35 60.85 33.4 60.75 33.4 60.6 33.5 60.55 33.8 60.25 34.2 60
L 31.7 59.6
Q 33.05 59.1 34.25 58.45 35.6 57.7 36.7 58.6
L 35.6 58.95 35.85 60.1 38.7 58.6 38.05 58.25
Q 38.2 58.15 38.4 58.1 38.95 58.25 39.55 58.45 40.25 58.85 39.8 59.6 39.6 60 39.3 60.4
L 39.7 59.15
Q 37.85 59.2 37.2 60.85
L 37.3 61.45
Q 37.75 61.7 38.3 61.85 38.65 62 39.1 62
L 37.8 61.5 38.85 60.2
Q 39.15 61.25 39.4 62.2 39.45 62.5 39.4 62.85
L 41.45 63.55 38.85 64.15
Q 39.5 64.05 40.05 64.1 40.1 64.15 40.2 64.2 40.2 64.25 40.25 64.35 40.1 64.55 39.95 64.7 39.8 64.75 39.6 64.8 39.4 64.8 39.2 64.85 38.9 64.65 38.7 64.45 38.55 64.2 38.5 63.95
L 38.65 63.4 37.85 63.7 38.55 65.1 38.3 65.9 38.9 66.8
Q 39.1 66.75 39.2 66.65 39.55 66.35 39.8 66 40.6 66.7 41.45 67.4
L 40.65 67
Q 39.95 67 39.65 67.75
L 39.9 67.85 39.95 68.05
Q 39.4 68.05 38.8 67.8
L 38.6 68.5 37.95 68
Q 38.55 69.2 37.95 70.3
L 39.35 70.5 37.95 71.3 39.5 72.3 40.15 72.25
Q 40 73.2 40.9 73.95 41.25 74.2 41.15 74.7
L 41.15 74.75
Q 41 74.65 40.85 74.65 40.8 74.65 40.8 74.75 40.8 74.85 40.85 74.95 40.95 75.05 41 75.15 41.05 75.3 41.1 75.45
L 41.75 75.85
Q 41.8 76.15 41.7 76.35 41.45 76.95 40.95 77.4 40.2 77.95 40.1 78.75 40.1 78.95 40.15 79.2 40.25 79.2 40.25 79.15 40.4 78.85 40.45 78.55 41.85 79.15 42.95 78.25
L 43 77.25 42.45 76.7 42.85 76.5
Q 43.6 76.55 43.75 77.2
L 42.9 79.4 44.95 79.7
Q 44.55 79.15 44.2 78.65 46.1 79.75 48.15 79.9
L 47.8 78.95
Q 48.65 79.6 49.6 79.6 51 79.6 52.05 80.75 52.45 81.2 53.15 81.6 53.35 81.7 53.55 81.9 54 81.9 54.45 81.95 54.45 82 54.5 82.1
L 55.7 82.05
Q 55.8 82.35 54.35 82.5
L 53.6 82 53.35 82.7 52.55 81.95
Q 51.8 82.05 52.25 82.7
L 52.65 82.95
Q 52.4 83.55 52.15 84.15
L 53.55 83.4 53.3 84.95 55.3 84.55 53.85 84.35
Q 55.8 84.55 57.2 83.2 58.4 82.15 58.1 80.6 58 80.2 58 79.8
L 58.4 81.1
Q 59 81.05 59.55 81.15
L 59.45 81.3 58.4 81.2 58.9 82.55
Q 59 82.6 59 82.7 59 82.85 58.85 83.05
L 60.45 83.4 58.75 83.1 57.6 84.35
Q 59.05 83 60.45 84.65 60.75 85 61.05 85.4
L 61.25 84.6 63.05 85.9 62.15 84.7
Q 62.55 84.5 62.9 84.2 62.95 84.15 62.95 84.05 63.05 83.9 63.05 83.85 62.75 83.4 62.35 83
L 63.55 83.1 61.35 82.3
Q 63.01328125 82.125 64.4 82.65 63.6041015625 82.2390625 63.4 81.3 63.25 80.45 63 79.7 62.75 78.95 62.55 78.2 63 78.85 63.45 79 63.6 78.95 63.75 78.95
L 63.85 78.1 63.55 77.7
Q 62.55 77.35 61.65 77.35 61.25 77.35 60.85 77.2 59.7 76.05 60.05 74.35 60.3 73.1 61 72.1 61.3 72.55 61.7 72.95 61.75 73 61.9 73.05 62.6 73.05 62.1 72.55 61.95 72.35 61.9 72.15
L 62.75 71 62 71
Q 61.2 71.7 60.2 71.6 60.1 71.75 60 71.9 60.25 72.3 59.5 72.3 58.6 72.3 58.05 72.1 57.45 71.85 56.8 71.8 56.15 71.65 55.5 71.5 56.6990234375 71.2177734375 57.85 70.95 57.380078125 71.044140625 56.95 70.7 56.6 70.3 56.2 70
L 56.3 70
Q 56.65 69.6 57.25 69.85 57.4 69.8 57.6 69.8
L 55.45 68.5
Q 56.95 68.3 57.95 69.1 58.05 69.15 58.15 69.3 58.4 69.95 58.2 70.65 58.15 70.8 58 70.95 58.403515625 70.8744140625 58.8 70.8 59.15 70.75 59.5 70.45
L 58.85 68.4
Q 59.5 67.5 60.5 68.1
L 59.25 68.7 60.5 69.9
Q 60.45 68.75 61 68.2
L 61.8 68.3 63.65 68.1 62.9 69 62.05 69 61.5 69.6
Q 61.85 69.8 62.25 70 63.35 69.75 64.25 70.1 64.9 70.35 65.65 70.3
L 63 69
Q 64.85 69.3 66.7 68.55 66.95 68.55 67.15 68.4 66.35 68.3 66 67.65 65.85 67.4 65.75 67.2
L 65.5 67.75
Q 65 67.95 64.5 68.15 62.9 67.85 61.25 67.3
L 62.4 66.7 63.6 66.95
Q 63 66.45 62.35 66.7 61.6 66.55 61.25 65.85 61.05 65.35 61 64.8 61.8 65.55 62.75 65.9 63.6 65.75 64.2 65.2 64.6 64.8 65.05 64.5
L 65.1 64.95
Q 65.35 65.25 65.7 65.45 65.75 65.5 65.9 65.4 65.9 65 65.9 64.65 65.9 64.4 65.95 64.25 66 64 66.2 63.8
L 66.75 64.15 66.7 64.6 65.9 66 66.65 65.8 67.5 66.5
Q 67.263671875 65.6900390625 67.3 64.9 68.3708984375 64.8265625 69.15 63.95 69.55 63.4 70.1 63.05 70.4 62.8 70.7 62.55 70.75 62.5 70.75 62.45 70.55 61.95 70.2 61.6 69.5 61 69.95 60.25 70.25 59.85 70.7 59.65 71.75 59.2 72.95 59.2 73.35 59.2 73.75 59.1
L 74 58.4 74.85 58.9 74.15 59.4 76.75 59 75.65 56.9
Q 76.55 57.1 77 57.95 77.15 58.3 77.35 58.65
L 78.25 57.95
Q 79.25 58 79.9 57.65 80.45 57.4 80.95 57.05 80.85 56.6 80.75 56.15
L 82.75 56.25 82.45 55.85
Q 82.8 55 83.2 54.65 83.8 54.15 84.5 53.75 83.3 53.15 82.1 53.65
M 58.6 27.75
Q 58.45 27.65 58.35 27.55 58.65 27.6 59 27.7 59.5 28 58.6 27.75
M 57.75 30.25
L 58.2 30.35
Q 58.9 30.65 58.35 31.05 58.15 31.2 57.85 31.25 57.75 31.15 57.7 31.1
L 57.75 30.25
M 57 28.85
Q 56.95 28.85 56.95 28.9
L 56.8 28.95
Q 56.9 28.6 57.15 28.2 57.25 28.5 57.2 28.8 57.2 28.85 57 28.85
M 59.5 29
L 59.25 29.25 59 29 59.5 29
M 54.45 25.3
Q 54.75 25.7 54.1 26.05 53.45 25.8 53.95 25.45 54.15 25.35 54.45 25.3
M 52.4 27.7
L 52.55 27.45
Q 52.59765625 27.6884765625 52.45 28.15 52.4169921875 27.94765625 52.4 27.7
M 50.85 30.75
Q 51 30.75 51.1 30.85 51.25 30.95 51.25 31.1 51.25 31.25 51.1 31.35 51 31.45 50.85 31.45 50.7 31.45 50.55 31.35 50.45 31.25 50.45 31.1 50.45 30.95 50.55 30.85 50.7 30.75 50.85 30.75
M 53.1 29.95
Q 53.1 29.75 53.15 29.6
L 53.6 29.75 53.85 30.55
Q 53.05 30.7 53.1 29.95
M 51.65 30.9
L 51.15 29.8
Q 51.3 29.55 51.55 30.35 51.65 30.6 51.65 30.9
M 55.35 28.3
Q 55.4 28.3 55.4 28.4 55.35 28.6 55.25 28.6 54.95 28.7 54.6 28.6 54.25 28.7 53.95 28.9 53.75 29 53.6 29.2 52.71328125 29.159765625 52.5 28.2
L 53.95 28.4
Q 54.6 27.7 55.35 28.3
M 54.75 29.5
L 55.15 29.9
Q 55.3 30.55 55.05 30.15 54.85 29.85 54.75 29.5
M 51.25 33.4
Q 51.35 33.4 51.45 33.5
L 50.45 33.7
Q 50.75 33.15 51.25 33.4
M 51.8 32.3
L 50.9 32.35 50.35 31.8 51 32.2 51.8 32.3
M 56.95 32.85
Q 57 32.6 57.2 32.4
L 56.65 30.9 58.15 32.3
Q 57.75 32.6 57.35 32.9 57.25 32.95 57.1 33 56.95 32.9 56.95 32.85
M 45.95 25.55
L 46.6 25.9
Q 46.9 26.65 46.35 26.2 45.9 25.9 45.95 25.55
M 47.15 27.2
L 47.85 26.85
Q 48.2 27 47.7 27.15 47.45 27.25 47.15 27.2
M 49.8 30.65
Q 49.9 30.65 50 30.75 50.1 30.85 50.1 31 50.1 31.15 50 31.25 49.9 31.35 49.8 31.35 49.7 31.35 49.6 31.25 49.5 31.15 49.5 31 49.5 30.85 49.6 30.75 49.7 30.65 49.8 30.65
M 49.45 29.3
L 49 29.75 48.3 29.95
Q 48.5 29.25 49.45 29.3
M 48.75 28.65
Q 48.55 28.7 48.3 28.7
L 47.75 28.3
Q 48.15 28.1 48.6 27.9
L 48.7 28.6 48.75 28.65
M 40.85 28.45
Q 41.35 28.7 41.95 28.8 40.6 29.05 39.75 30.2 39.8 30.55 39.7 30.85 39.7 30.9 39.55 30.95
L 38.75 30.1 40.45 29.3 40.5 29
Q 40.05 28.9 39.5 29.1
L 39.1 27.6
Q 38.05 28.3 37 28.15 37 28.2427734375 37 28.35 37.05 29 36.55 29.35 36.4 29.3 36.4 29.25 35.95 28.7 35.6 28
L 37 28
Q 37 28.06953125 37 28.15
L 38.35 27.8 37.6 27
Q 38 27.05 38.45 27.1 38.5 27.1 38.6 27.15
L 38.65 27.1
Q 38.3 26.8 38 26.5 37.85 26.4 37.8 26.25 38.45 25.55 39.1 26.6 39.5 27.3 40 27.95 40.3 28.3 40.85 28.45
M 44.6 30.2
Q 44.75 30.35 44.75 30.55 44.75 30.75 44.6 30.85 44.5 31 44.35 31 44.2 31 44.05 30.85 43.95 30.75 43.95 30.55 43.95 30.35 44.05 30.2 44.2 30.1 44.35 30.1 44.5 30.1 44.6 30.2
M 45.05 32.2
Q 44.75 31.8 44.45 31.4
L 45 31.6
Q 45.75 31.35 45.75 32.2 45.75 32.25 45.75 32.35 45.25 32.5 45.05 32.2
M 42.6 32.85
Q 42.35 32.6 42.1 32.4
L 44.1 32.7
Q 43.45 33.5 42.6 32.85
M 41.25 31.4
Q 41.153125 30.9154296875 41.3 31.4 41.27890625 31.4 41.25 31.4
M 41.1 32.2
L 41.85 32.9
Q 40.75 32.85 40.05 32.25 39.8 32 39.6 31.8
L 41.1 32.2
M 42.75 36.9
Q 42.45 36.8 42.25 36.65
L 43.85 36.6
Q 43.4140625 36.4279296875 43.05 35.95 43.15 34.75 44.4 34.1 44.45 34.1 44.5 34.05 45.35 34.15 46.15 34.75 46.2 34.8 46.25 34.95 46.15 35.05 46.05 35.15 45.95 35.25 45.85 35.25 45.75 35.35 45.6 35.4
L 43.85 35.25
Q 44.3 35.5 44.8 35.8 45.25 36 45.55 36.4 45.35 36.5 45.2 36.6 44.5048828125 36.8060546875 43.95 36.6
L 43.35 37
Q 43.85 37 44.25 37.1
L 44.15 37.2
Q 43.4 37.35 42.75 36.9
M 40.7 37.1
Q 40.6 36.95 40.65 36.75
L 40.95 36.15 40.8 37.05 40.7 37.1
M 49.6 33.05
L 49.8 33.15
Q 49.05 33.5 48.05 33.5 47.5 33.75 46.9 33.75 46.8 33.65 46.7 33.55
L 48.75 31.85
Q 49.45 31.95 49.15 32.6 48.7 33.5 49.6 33.05
M 49.55 34.7
Q 49.25 34.5 48.95 34.4 49.4 34.2 49.9 34.05 49.95 34.15 50 34.25 50.15 34.7 49.55 34.7
M 43.5 39.7
Q 43.75 39.45 44.1 39.3
L 44.3 39.7
Q 43.95 40 43.55 40.15 43.4 40.2 43.25 40.15 43.35 39.9 43.5 39.7
M 41 39.05
Q 41 39.1 41.45 39.2 40.95 39.55 41 39.05
M 41.55 40.85
Q 41.65 40.85 41.7 40.95 41.8 41.05 41.8 41.15 41.8 41.25 41.7 41.35 41.65 41.45 41.55 41.45 41.45 41.45 41.35 41.35 41.3 41.25 41.3 41.15 41.3 41.05 41.35 40.95 41.45 40.85 41.55 40.85
M 40.7 43.05
Q 40.8 42.95 40.95 42.9 41.95 43.5 43 44.15 42 44.25 41.4 43.5 40.7 43.5 40.25 44.1 40.1 43.6 40 43.15 40.35 43.1 40.7 43.05
M 41.8 45.95
L 41.95 45.55 42.5 46.5 42.35 45.2 43.3 45.5
Q 43.9 45.7 43.55 46.5 43.5 46.6 43.5 46.75 43.4 46.8 43.35 46.9 43.25 46.9 43.2 46.9 43.05 46.9 42.95 46.9
L 43.6 48.15
Q 42.85 47.85 42.75 47.3 42.7 47.1 42.6 46.95
L 41.8 45.95
M 44.95 48.7
L 44.6 49.4 43.95 49.8 44.95 48.7
M 45.15 46.65
L 45 46.6
Q 44.55 45.9 45.15 46.65
M 53.8 40.95
Q 53.95 40.85 54 40.6
L 54.05 41.45
Q 53.3 41.3 53.8 40.95
M 51.6 46.35
Q 51.5 46.1 51.45 45.9 51.85 45.95 52.15 46.25 52.15 46.3 52.15 46.45 51.85 47.05 51.6 46.35
M 51.8 47.6
L 53 48.2
Q 52.3 48.45 51.95 48 51.85 47.8 51.8 47.6
M 52.5 49.45
L 51.5 48.85
Q 52.45 48.9 52.75 49.65 52.9 50 52.55 50.1 51.95 50.4 51.3 50.65
L 52.5 49.45
M 61.8 27.5
Q 61.95 27.65 61.95 27.8 61.95 27.95 61.8 28.05 61.65 28.2 61.45 28.2 61.25 28.2 61.1 28.05 60.95 27.95 60.95 27.8 60.95 27.65 61.1 27.5 61.25 27.4 61.45 27.4 61.65 27.4 61.8 27.5
M 62.45 28.4
L 62.45 27.95 62.85 27.95 62.85 28.4 62.45 28.4
M 64.45 30.9
Q 64.3 30.9 64.2 30.75 64.1 30.65 64.1 30.5 64.1 30.35 64.2 30.2 64.3 30.1 64.45 30.1 64.6 30.1 64.7 30.2 64.8 30.35 64.8 30.5 64.8 30.65 64.7 30.75 64.6 30.9 64.45 30.9
M 36.75 25.95
Q 36.9 26.2 36.9 26.55 36.9 26.9 36.75 27.1 36.65 27.35 36.5 27.35 36.35 27.35 36.2 27.1 36.1 26.9 36.1 26.55 36.1 26.2 36.2 25.95 36.35 25.75 36.5 25.75 36.65 25.75 36.75 25.95
M 38.4 29
Q 38.15 28.95 38.45 28.7 38.95 29.2 38.4 29
M 33.1 30.25
L 35.1 30.15 35.6 30.55
Q 34.8 31.25 33.9 31.45 33.7 31.4 33.55 31.4 33.35 31.1 33.2 30.75 33.1 30.5 33.1 30.25
M 34.6 33.25
L 34.5 33.8 34.4 33.25 34.6 33.25
M 34.85 34.7
L 34.65 34.6
Q 35.25 34.2 36 33.9
L 36 34.9 34.85 34.7
M 39.9 33.55
Q 40.05 33.7 40.05 33.9 40.05 34.1 39.9 34.2 39.8 34.35 39.6 34.35 39.4 34.35 39.25 34.2 39.15 34.1 39.15 33.9 39.15 33.7 39.25 33.55 39.4 33.45 39.6 33.45 39.8 33.45 39.9 33.55
M 38.15 33.2
L 38.15 33.7 37.8 33.7 37.8 33.2 38.15 33.2
M 38.45 31.1
L 38.1 32.4 39.6 33 36.6 32.2 37.95 31.5 38.45 31.1
M 35.6 33
Q 35.6 32.9 35.6 32.7
L 35.9 32
Q 36.25 32.15 35.85 32.6 35.7 32.7 35.65 32.9
L 35.6 33
M 36.85 35.35
Q 37 34.65 37.6 35 37.85 35.05 38.1 35.15
L 36.85 35.35
M 37.75 36.45
Q 37.7 36.2 37.95 35.85 38.55 35 38.35 35.5 38.3 35.65 38.2 35.8
L 37.75 36.45
M 40.05 35.6
L 39.95 35.6
Q 39.65 35.05 40.05 35.6
M 35.1 35.95
Q 35.75 36.2 36.5 36.2 37.5 36.3 37.9 37.15 37.55 38.25 35.95 38.15
L 36.2 37.75
Q 36.1 36.6 35.1 35.95
M 27.45 28.85
Q 27.3 28.7 27.25 28.5
L 28.45 29
Q 27.85 29.35 27.45 28.85
M 29.85 28.9
Q 30 29 30 29.15 30 29.3 29.85 29.4 29.7 29.5 29.5 29.5 29.3 29.5 29.15 29.4 29 29.3 29 29.15 29 29 29.15 28.9 29.3 28.8 29.5 28.8 29.7 28.8 29.85 28.9
M 39.25 37.5
Q 39.05 37.45 38.95 37.4 38.65 37.2 38.45 37 38.95 37.15 39.35 37.4
L 39.25 37.5
M 39.9 38.1
Q 39.5 38.15 39.95 37.9 40.5 38.3 39.9 38.1
M 37.85 39.4
L 35.6 39.7
Q 36.3 39.15 37.15 39.3 37.5 39.35 37.85 39.4
M 37.45 38.5
Q 36.95 38.45 37.7 38.15 37.75 38.2 37.75 38.25 37.6 38.4 37.45 38.5
M 36 41.5
L 35.5 41.1 34.65 41.4
Q 35 40.9 35.35 40.4
L 36 41.5
M 38.5 40.8
L 39.45 41.1 41.1 42
Q 40.15 42.1 39.65 41.4
L 37.25 41.3 38.6 39.5
Q 38.237109375 40.1615234375 38.5 40.8
M 38.55 42.4
L 39 42.2 38.35 42.9 38.55 42.4
M 35 40
L 34.55 39.9
Q 35.25 39.3 36 38.7 35.5 39.35 35 40
M 34.55 45.15
Q 34.55 45.2 34.85 45.4 35.05 45.4 35.25 45.55
L 35.5 45.95
Q 34.6 45.95 34.55 45.15
M 34.5 46.6
Q 34.5 46.5 34.45 46.4 34.55 45.75 34.5 46.6
M 38.8 44.55
Q 38.85 44.6 38.8 44.7 38.55 45.25 38.15 44.9 38 44.8 37.85 44.7
L 37.35 43.2
Q 38.25 43.6 38.8 44.55
M 36.45 44.15
Q 36.25 44.2 36.15 44.15 35.25 43.5 35.85 43.15 35.45 43.5 36 43.55 36.05 43.45 36.05 43.4 35.75 43 36.6 43.35 36.65 43.55 36.6 43.8 36.55 43.95 36.45 44.15
M 37.6 47
Q 37.6 46.7 37.85 46.45 38.15 46.25 38.55 46.25 38.95 46.25 39.2 46.45 39.5 46.7 39.5 47 39.5 47.3 39.2 47.5 38.95 47.75 38.55 47.75 38.15 47.75 37.85 47.5 37.6 47.3 37.6 47
M 38.95 48.15
Q 38.95 48.05 38.95 48 39.45 48.25 39.1 48.7 38.9 48.85 38.75 49.05 38.85 48.6 38.95 48.15
M 38.6 49.55
Q 38.571875 49.5 38.4 49.5 38.498046875 48.9611328125 38.6 49.55
M 39.55 57.85
Q 39.73984375 57.394140625 39.9 56.95
L 40.9 57.55
Q 41.95 57.15 41.35 58.05 41.25 58.3 40.9 58.45 40.8 58.35 40.65 58.25
L 39.55 57.85
M 40.4 61.6
Q 40.15 61.3 40.1 60.9
L 40.85 62
Q 40.55 61.85 40.4 61.6
M 25.45 61.3
L 26.25 61.35
Q 26.2 61.45 26.15 61.45 25.85 61.65 25.5 61.75 26.65 62.35 27.6 63.1 27.9 63.35 27.8 63.75 27.35 64 26.9 63.65 26.35 63.25 25.85 62.8 25.65 62.65 25.5 62.55
L 25.45 61.3
M 28.85 60.5
Q 28.6 60.65 28.35 60.75 27.7 61.1 27.35 60.6
L 28.85 60.5
M 30.05 63.55
Q 29.8 63.6 29.6 63.7
L 30.95 62.7
Q 31.1 62.4 31.3 62.2 31.3 62.25 31.35 62.45 31.05 63.35 30.05 63.55
M 28.1 64
L 27.85 64.3 27.6 64 28.1 64
M 28.8 61.9
Q 28.95 62.05 28.95 62.2 28.95 62.35 28.8 62.45 28.65 62.6 28.45 62.6 28.25 62.6 28.1 62.45 27.95 62.35 27.95 62.2 27.95 62.05 28.1 61.9 28.25 61.8 28.45 61.8 28.65 61.8 28.8 61.9
M 28.75 65.4
Q 28.6 65.5 28.5 65.6
L 28.85 64.5 30.6 65.6 29.35 65.9
Q 29.35 65.75 29.35 65.65 29.25 65.5 29.1 65.4 28.9 65.4 28.75 65.4
M 34.1 64.55
Q 34.2162109375 64.6330078125 34.3 64.7 34.0375 65.1166015625 33.75 65.5 33.5 65.8 33.2 65.7 32.8 64.95 33.5 64.3 33.8 64.35 34.1 64.55
M 30.95 75.1
Q 31.05 75 31.25 75.05 30.3 75.3 30.95 75.1
M 79.65 54.5
L 77.65 54.9
Q 78.15 54.3 79 54.45 79.3 54.45 79.65 54.5
M 80.7 54.7
L 80.75 55.6
Q 80.65 56.05 80.2 55.55 80.05 55.4 79.95 55.3 79.65 54.85 80.55 54.65 80.6 54.65 80.7 54.7
M 72.95 54.35
Q 73.05 54.3 73.15 54.25 73.6 54.35 73.65 54.8 73.65 54.95 73.65 55.15
L 72.65 55.15
Q 72.65 54.65 72.95 54.35
M 72 58.8
Q 71.15 58.2 71.45 57.1 72.3 57.45 72.05 58.5 72 58.65 72 58.8
M 72.45 56
Q 72.95 56.35 72.65 56.25 72.05 56.05 71.65 55.4
L 72.45 56
M 77 56
L 78.25 56
Q 78.45 56.75 78.5 57.5 78.5 57.65 78.35 57.8 77.4 57.65 77.25 56.75 77.15 56.35 77 56
M 66.8 55.65
Q 66.8 55.45 66.9 55.3 67.05 55.2 67.2 55.2 67.35 55.2 67.45 55.3 67.6 55.45 67.6 55.65 67.6 55.85 67.45 55.95 67.35 56.1 67.2 56.1 67.05 56.1 66.9 55.95 66.8 55.85 66.8 55.65
M 65.6 57.15
Q 65.6572265625 57.180859375 65.75 57.15
L 66.5 57.15
Q 66.1087890625 57.687890625 65.6 57.15
M 61.3 57.2
L 62.15 57.6
Q 61.7 58.95 60.45 59.7 59.6 59.85 59.2 59.15 58.8 58.5 59.15 57.65 59.2 57.5 59.45 57.4
L 59.45 58.9 60.5 58.65
Q 60.6 58.55 60.7 58.45 61.2 57.85 61.3 57.2
M 61.95 61.2
L 62.95 61.6 62.65 62 64.25 62.8 63.15 63.5 61.95 61.2
M 61.15 61.25
Q 61.6 61.45 61.65 61.8 61.65 61.95 61.65 62.15
L 60.95 62.15
Q 61.3 62.7 60.55 62.4
L 60.5 62.4
Q 60.55 62.25 60.65 62.15
L 61.15 61.25
M 63.45 61.4
L 63.95 60.9
Q 64.4 61.05 64.8 61.45 64.85 61.5 64.9 61.65
L 64.5 62.05 63.45 61.4
M 63.4 58.85
L 63.65 59.5 62 58.7 63.4 58.85
M 68.7 58.55
L 68.55 58.65
Q 68.25 58.8 68.25 58.75 68.2 58.75 68.45 58.55 68.65 58.5 68.7 58.55
M 68.65 57.15
L 69.5 55.75
Q 69.25 56.65 70 57.2 70.5 57.6 70.7 58.35
L 70.65 58.35
Q 70.55 58.2 70.5 58.05 69.75 57.2 68.65 57.15
M 68.1 63.2
Q 67.95 63.15 67.85 63.15
L 67.3 62.3 68.75 63
Q 68.65 63.45 68.1 63.2
M 67.4 64.15
Q 67.5 63.85 67.65 63.6
L 67.3 64.65
Q 67.3423828125 64.415234375 67.4 64.15
M 65.2 63.6
L 64.65 62.7
Q 65.55 62.45 65.3 63.45 65.3 63.5 65.2 63.6
M 65.8 62.45
Q 65.8 62.4 65.8 62.3 66.4 61.9 65.8 62.45
M 62.4 64.1
Q 62.25 64.05 62.15 64.05 61.9 64.1 61.9 64.05 62.1 64.6 62.55 65.05
L 62.1 65
Q 61.3 64.35 60.55 63.75 60.15 63.3 59.6 63.15 59.3 62.95 58.95 62.9 60.9 62.65 62.45 63.55 62.6 63.9 62.7 64.25 62.75 64.45 62.75 64.65 62.65 64.4 62.55 64.2 62.5 64.1 62.4 64.1
M 57.9 53.3
Q 58.05 53.5 58.05 53.75 58.05 54 57.9 54.15 57.75 54.35 57.55 54.35 57.35 54.35 57.2 54.15 57.05 54 57.05 53.75 57.05 53.5 57.2 53.3 57.35 53.15 57.55 53.15 57.75 53.15 57.9 53.3
M 51.5 54.15
L 52.15 53.3 53.3 54.05 51.5 54.15
M 53.15 55.6
Q 52.9 55.35 52.75 55 53.25 54.9 53.8 54.8
L 54.2 54.15 54.65 54.15
Q 54.7 53.35 55.65 53.85 56.75 54.45 57.5 55.6 56.45 54.65 55.1 54.45
L 54.35 54.8 53.5 55.85
Q 53.25 55.75 53.15 55.6
M 55.35 56.35
Q 55.45 56.25 55.65 56.2
L 55.15 56.8
Q 55.2 56.55 55.35 56.35
M 53.85 58.15
L 53.85 57.7 54.15 57.7 54.15 58.15 53.85 58.15
M 55.3 58.05
Q 55.4 57.9 55.55 57.75 56.45 57.3 57.65 57.65 57.55 57.8 57.4 57.95 57.2 58.2 56.85 58.3 56.75 58.4 56.6 58.4 56.75 58.9 56.25 59.25 56.05 59.3 55.9 59.4
L 54.9 59.2
Q 54.85 58.9 54.95 58.6 55.05 58.3 55.3 58.05
M 53.05 57.8
L 52.45 57.2
Q 52.85 57.45 53.15 57.75
L 53.05 57.8
M 52.4 56.7
L 51.3 57.4
Q 51.45 56.65 52.25 56.7 52.3 56.7 52.4 56.7
M 52.7 59.85
L 52.65 59.9 52.5 59.6
Q 52.592578125 59.742578125 52.7 59.85
M 51.5 60.4
Q 51.6 60.5 51.7 60.65 51.65 60.65 51.65 60.7 51.5 60.55 51.35 60.5 50.85 59.55 51.5 60.4
M 52.45 61.4
L 52.45 60.95 52.85 60.95 52.85 61.4 52.45 61.4
M 53.85 60.45
Q 53.7 60.5 53.45 60.55
L 52.95 60.2 53.8 60.4 53.85 60.45
M 58.45 57.05
Q 58.4 57.1 58.3 57.1 57.95 56.85 58.15 56.85 58.7 56.75 58.45 57.05
M 59.7 55.85
L 59.95 55.9
Q 59.9 56.45 59.7 55.85
M 55.75 61.15
L 55.95 61.15
Q 55.7 61.55 55.3 62 55.35 61.95 55.4 61.9 55.8 61.8 56.2 61.75 56.4 61.85 56.65 62 56.15 62.85 55.15 63.3 55 63.4 54.85 63.4 54.75 63.35 54.7 63.3 54.6 63.1 54.6 62.95 54.6 62.75 54.65 62.55
L 55 62.15 53.75 62.75 53.5 61.95
Q 53.95 61.95 54.45 62 55.15 61.85 55.75 61.15
M 56.95 60.1
Q 56.721484375 60.2208984375 56.5 60.25 58.05 60.4 58.65 61.65 58.85 62.05 58.65 62.15
L 58.5 61.5
Q 57.75 61.05 57.05 60.6 56.75 60.4 56.5 60.25 55.9529296875 60.3271484375 55.45 59.85 55.75 59.85 56.3 59.8 56.79296875 59.7103515625 56.95 60.1
L 56.95 60.1
M 60.35 61.05
Q 60.3 60.8 60.15 60.6
L 60.95 61.25
Q 60.45 61.4 60.35 61.05
M 42.4 51.7
Q 42.4 51.6 42.45 51.5 42.7 51.8 42.45 51.95 42.4 51.9 42.4 51.7
M 42.85 53.05
Q 42.85 52.85 42.95 52.7 43.1 52.6 43.25 52.6 43.4 52.6 43.5 52.7 43.65 52.85 43.65 53.05 43.65 53.25 43.5 53.35 43.4 53.5 43.25 53.5 43.1 53.5 42.95 53.35 42.85 53.25 42.85 53.05
M 43.25 57.75
L 43.1 57.8
Q 42.9 57.75 42.8 57.6 42.55 57.4 42.45 57.1 42.95 57.4 43.25 57.75
M 43.35 56.75
L 43.1 56.15 43.6 56.15 43.35 56.75
M 42.1 59.2
L 42.45 59.6
Q 42.55 59.7 42.65 59.85
L 42.6 59.8
Q 42.55 59.9 42.5 59.9
L 42.95 60.2
Q 43.9 60.25 44.2 59.6
L 43.95 59.6 43.7 59.75
Q 44.15 59.3 44.8 58.75 44.9 59.65 45.65 59.9 46.7 60.35 47.9 60.35 48.529296875 60.46796875 49 60.85
L 46.6 60.8 46.75 61.6
Q 46.15 61.7 45.5 61.95 45.2 62.1 44.85 62.1
L 43.95 61.2 44.8 61.65 45.6 61.5 45.1 60.9 46.25 60.4
Q 44.6 59.85 43.1 60.45 42.75 60.55 42.4 60.5 41.4 60.2 40.45 60.5 41.05 59.65 40.6 58.5
L 42.1 59.2
M 41.5 60.8
Q 41.6 60.7 41.75 60.7 41.9 60.7 42 60.8 42.1 60.95 42.1 61.15 42.1 61.35 42 61.45 41.9 61.6 41.75 61.6 41.6 61.6 41.5 61.45 41.4 61.35 41.4 61.15 41.4 60.95 41.5 60.8
M 48.4 58.5
Q 48.6 58.5 48.7 58.6 48.85 58.75 48.85 58.95 48.85 59.15 48.7 59.25 48.6 59.4 48.4 59.4 48.2 59.4 48.05 59.25 47.95 59.15 47.95 58.95 47.95 58.75 48.05 58.6 48.2 58.5 48.4 58.5
M 49.55 57.9
Q 49.75 58.1 49.95 58.3
L 50.8 58.95
Q 50.55 59.05 50.35 59.25 49.8 59.15 49.3 59.15
L 48.65 58.35 48.9 57.5
Q 49.2 57.7 49.55 57.9
M 47.25 56.1
L 47.1 57 48.5 56.9 46.6 57.55 46.2 58.2
Q 46.1 58.25 46 58.25 45.85 58.25 45.75 58.2 45.55 58.1 45.35 58
L 47.25 56.1
M 49.4 60.85
L 50.1 59.8 49.7 60.85 49.4 60.85
M 50 62.15
Q 49.85 62.8 49.9 62.2 49.9 62.15 50 62.15
M 48.5 62.25
Q 48.7 62.25 48.8 62.35 48.95 62.5 48.95 62.65 48.95 62.8 48.8 62.9 48.7 63.05 48.5 63.05 48.3 63.05 48.15 62.9 48.05 62.8 48.05 62.65 48.05 62.5 48.15 62.35 48.3 62.25 48.5 62.25
M 50.45 63.9
Q 50.5 63.95 50.5 64.05 49.75 64.4 49.1 63.5 49 63.35 48.85 63.3 49.9 63.15 50.45 63.9
M 47.15 63.4
Q 47.35 63.25 47.6 63.25 47.85 63.25 48.05 63.4 48.25 63.55 48.25 63.8 48.25 64.05 48.05 64.2 47.85 64.35 47.6 64.35 47.35 64.35 47.15 64.2 46.95 64.05 46.95 63.8 46.95 63.55 47.15 63.4
M 46 62.5
Q 46.75 62.6 46.05 63.1 46 63.2 45.95 63.3 45.2 63.35 44.6 62.9 44.8 62.8 45.05 62.8 45.5 62.6 46 62.5
M 46.05 64.95
Q 46.6 64.55 47.15 64.8 47.25 64.9 47.25 65.05 47.25 65.3 47.2 65.6
L 46.85 65.9 45.85 65.1
Q 45.95 65.05 46.05 64.95
M 47 67.4
Q 47.25 67.7 47.7 67.9
L 45.6 68.1 46.1 69.8 44.6 69.6 45 69.35 44.7 67.5 46 67.3 46 66 46.65 66.55
Q 47.05 65.95 47.45 66.55 47.55 66.65 47.6 66.8 47.3 66.95 47.05 67.15 46.95 67.3 47 67.4
M 48.85 65.35
Q 49.05 65.2 49.35 65.2 49.45 66 48.8 65.55 48.7 65.5 48.85 65.35
M 43.6 62.2
Q 43.9 62.25 44.25 62.3
L 41.5 62.9 42.45 62.5
Q 42.85 62.1 43.6 62.2
M 42.2 64.1
Q 42.35 64.3 42.35 64.55 42.35 64.8 42.2 64.95 42.05 65.15 41.85 65.15 41.65 65.15 41.5 64.95 41.35 64.8 41.35 64.55 41.35 64.3 41.5 64.1 41.65 63.95 41.85 63.95 42.05 63.95 42.2 64.1
M 40.85 65.6
Q 40.65 65.45 40.5 65.35
L 43.1 66.15 42.95 65.05 44.1 66.3 44.6 66 43.1 64.6
Q 44.4 64.8 45.05 65.6
L 45.1 66.6 43.65 67.85 44.4 68.05
Q 44.5 68.35 44.45 68.65 44.4 68.95 44.25 69.25
L 42.6 69.15
Q 42.98828125 68.3736328125 43.1 67.4 43.0697265625 67.5203125 42.95 67.6 42.4 67.35 42.4 68.25 42.4 68.55 42.25 68.9 41.8744140625 68.853125 41.55 68.65
L 42.4 67.15 42.3 66.6
Q 41.7 65.9 40.85 65.6
M 44.6 70.45
L 44.85 69.95 44.85 71.4
Q 44.75 71.25 44.65 71
L 44.6 70.45
M 43.7 70.3
L 44.3 71.15 43.75 71.8
Q 43.1 70.8 43.7 70.3
M 42.75 69.8
L 41 70
Q 41 69.85 40.7 69.5
L 40.8 69.45
Q 41.85 69.2 42.75 69.8
M 42.5 71.75
Q 42 71.6 42.45 71.2 42.8 71.55 42.5 71.75
M 43.25 74
Q 43.15 73.9 43.1 73.8
L 42.45 73.9
Q 43.3 72.4 44.85 72.8 45.1 72.85 45.35 72.9
L 44.5 73.7 44.9 73
Q 44.65 73.2 44.45 73.4 43.85 73.95 43.25 74
M 49.35 70.4
Q 49.25 69.85 49.25 69.3 49.543359375 69.9845703125 49.65 70.7 49.6240234375 70.64140625 49.5 70.6 49.35 70.5 49.35 70.4
M 48.25 70.5
Q 48.25 70.65 48.2 70.8 48.15 70.95 48.05 71.05
L 46.9 71.15 46.3 71.8
Q 45.95 71.9 45.9 71.8 45.7 71.5 45.8 71 46.15 70.85 46.4 70.6 46.5 70.55 46.45 70.4
L 47.05 69.75 48.15 69.9
Q 48.2 70.2 48.25 70.5
M 50.35 68.3
Q 49.7 68.95 50 68.3 50.3 67.65 51 67.5 50.9 67.85 50.5 68.15 50.45 68.25 50.35 68.3
M 47.9 72.85
L 46.95 71.8 48.1 72.6 48.45 71.3
Q 48.6 71.9 49.2 72.45 49.3 72.6 49.45 72.7
L 49.1 73.6 48.8 73 47.9 72.85
M 48.4 69.15
L 48 69.5
Q 48.05 68.8 48.4 69.15
M 59.4 64.3
Q 59.5 64.45 59.5 64.65 59.5 64.85 59.4 64.95 59.3 65.1 59.15 65.1 59 65.1 58.9 64.95 58.8 64.85 58.8 64.65 58.8 64.45 58.9 64.3 59 64.2 59.15 64.2 59.3 64.2 59.4 64.3
M 57.75 64.3
Q 57.85 64.45 57.85 64.6 57.85 64.75 57.75 64.85 57.65 65 57.5 65 57.35 65 57.25 64.85 57.15 64.75 57.15 64.6 57.15 64.45 57.25 64.3 57.35 64.2 57.5 64.2 57.65 64.2 57.75 64.3
M 57.15 67
Q 56.9 66.5 56.55 66.55 55.9 66.45 55.3 66.4 55.4 66.25 55.5 66.15 57.1 66.2 58.65 67.2
L 54.5 67.1 57.15 67
M 56.95 65.65
L 56.95 65.1 57.3 65.1 57.3 65.65 56.95 65.65
M 51.9 64.4
Q 52.1 64.2 52.25 64
L 51.7 66.15
Q 51.65 66.5 51.2 65.75 50.95 65.4 50.6 65.1 51.4 64.95 51.9 64.4
M 52.65 62.15
L 52.5 62.55 52.4 62.15 52.65 62.15
M 52.5 67.7
Q 52.05 67.7 51.8 67.3 52.3 67.45 52.7 67.7
L 52.6 67.8
Q 52.5 67.8 52.5 67.7
M 52.7 65.55
Q 52.75 65.4 52.8 65.3 53.15 64.8 52.95 64
L 53.5 64.85
Q 53.35 65.1 53.2 65.3 52.95 65.45 52.7 65.55
M 53.3 67.4
L 54.15 67.8
Q 54.45 67.85 54.7 68
L 54.65 68.1
Q 54.15 68.25 53.65 67.7 53.45 67.6 53.3 67.4
M 55.4 65
L 55.2 65.45 55 65 55.4 65
M 53.4 69.95
Q 53.4 70.15 53.25 70.25 53.15 70.4 53 70.4 52.85 70.4 52.7 70.25 52.6 70.15 52.6 69.95 52.6 69.75 52.7 69.6 52.85 69.5 53 69.5 53.15 69.5 53.25 69.6 53.4 69.75 53.4 69.95
M 54.45 70.6
L 54.3 70.4
Q 54.95 70.15 55.75 70.1
L 54.45 70.6
M 52.45 68.7
Q 52.85 68.9 52.15 69.1 51.45 69.25 50.75 68.95 50.8 68.55 52.45 68.7
M 51.45 70
L 51.2 70.6 50.95 70 51.45 70
M 52.05 72.7
Q 51.4 72.85 51.3 72.1
L 52.15 71 52.6 72.25
Q 52.35 72.5 52.05 72.7
M 55.25 72.9
L 54.6 74.2
Q 54.9 74.7 54.65 74.85 54.35 74.95 54.05 75.1 53.25 75.2 53.85 74.15 53.35 73.7 53.5 73.2 53.55 72.95 53.65 72.7
L 54.15 73.5 55.25 72.9
M 56.65 74
L 57 74 56.65 75 56.65 74
M 59.65 72.9
L 59.5 73.4
Q 58.1 73.3 56.75 73.35 56.05 73.1 55.35 72.85
L 56.75 72.7 59.65 72.9
M 57.65 74.15
L 59.2 73.9
Q 59.4 74.4 58.8 74.3 58.25 74.3 57.65 74.15
M 58.35 76
L 59.8 76.6 58.5 76.5
Q 57.75 77.3 56.75 77.75 56.2 77.9 55.65 78.1
L 56.8 76.2 57.3 77 58.35 76
M 56.95 78.9
Q 57.1 79.05 57.1 79 56.7 79.4 56.1 79.65 55.25 79.6 54.85 78.85 54.95 78.6 55.1 78.4 55.2 78.25 55.35 78.2
L 56.95 78.9
M 56.15 80.15
Q 56.3 80.05 56.5 80.05 56.7 80.05 56.8 80.15 56.95 80.3 56.95 80.5 56.95 80.7 56.8 80.8 56.7 80.95 56.5 80.95 56.3 80.95 56.15 80.8 56.05 80.7 56.05 80.5 56.05 80.3 56.15 80.15
M 59.65 77.85
Q 60.35 78.1 60 78.85 59.95 78.95 59.9 79.05
L 59 79.15
Q 59.95 78.7 59.65 77.85
M 59.15 78.35
Q 59.25 78.45 59.25 78.6 59.25 78.75 59.15 78.85 59.05 78.95 58.95 78.95 58.85 78.95 58.75 78.85 58.65 78.75 58.65 78.6 58.65 78.45 58.75 78.35 58.85 78.25 58.95 78.25 59.05 78.25 59.15 78.35
M 55.65 76.3
L 55.15 76.9
Q 55.15 76.7 55.25 76.6 55.4 76.4 55.65 76.3
M 54.65 75.8
L 54.3 76.7
Q 54.25 76.25 54.35 75.9 54.5 75.45 54.75 75.1
L 54.65 75.8
M 51.65 75.85
Q 52.4 76.05 53.15 75.85 53.4 75.7 53.65 75.6 52.75 76.9 51.4 77
L 51.5 76.9
Q 51.55 76.25 51.1 75.95 50.7 75.6 50.15 75.1 50.8 75.3 51.5 75.5 51.45 75.55 51.4 75.65 51.4 75.7 51.45 75.8 51.55 75.8 51.65 75.85
M 51.5 79.5
L 52.25 79.2 52.65 79.9 52.95 78.6
Q 53.25 78.6 53.55 78.7 54.1 79 54 79.8 53.75 80.6 52.75 80.35 51.85 80.15 51.5 79.5
M 53.55 78.15
L 54.15 77.6
Q 54.35 78.4 53.6 78.25 53.55 78.2 53.55 78.15
M 52.55 77.25
Q 52.9 78.1 51.65 78.3 50.9 78.65 50.25 78.05 49.25 77.2 48.3 76.5 48.65 76.1 49 75.7 49.75 77.35 51.65 78.3
L 52.55 77.25
M 54.95 81.15
Q 54.7 80.95 54.5 80.8
L 55.75 80.7 56.75 81.3
Q 55.85 81.6 54.95 81.15
M 59.8 82.05
L 60.25 82.8
Q 59.65 82.75 59.75 82
L 59.8 82.05
M 49.65 74.65
L 49.6 74.85 48.2 75.25 47.35 74.6 47.85 74.9
Q 48.8 74.9 49.65 74.65
M 50.35 76.05
Q 50.5 76.15 50.5 76.3 50.5 76.45 50.35 76.55 50.25 76.65 50.05 76.65 49.85 76.65 49.7 76.55 49.6 76.45 49.6 76.3 49.6 76.15 49.7 76.05 49.85 75.95 50.05 75.95 50.25 75.95 50.35 76.05
M 47.05 75.85
Q 46.8 76.45 46.2 76.2 45.45 76.15 44.8 76.2 44.7 76.05 44.65 75.9
L 43.35 75.2 44.8 75.65 46.35 75.25 47.05 75.85
M 48.8 78.55
L 48.85 78.2 48.85 78.1
Q 48.9 78.5 48.8 78.55
M 47.85 77.1
L 47 77.7 45 77.8 47.85 77.1
M 43.95 77.15
Q 43.95 76.9 44.1 76.7 44.25 76.5 44.45 76.5 44.65 76.5 44.8 76.7 44.95 76.9 44.95 77.15 44.95 77.4 44.8 77.6 44.65 77.8 44.45 77.8 44.25 77.8 44.1 77.6 43.95 77.4 43.95 77.15
M 61 78
L 61.6 79.5 60.35 80.4
Q 60.65 79.85 60.85 79.25 61 78.65 61 78
M 61 81.5
L 60.95 81
Q 61.1 81 61.1 81.05 61.15 81.25 61 81.5
M 61.45 83
L 61.45 84.1 60.5 84.2 61.45 83
M 40.6 40.1
Q 40.3 40.45 39.85 39.9
L 40.6 40.1
M 44.65 75.9
Q 44.8 75.95 44.9 75.9 44.9 75.85 44.8 75.65
L 44.65 75.9
M 46.65 66.55
L 46.6 67.15 47.05 67.15 46.65 66.55
M 48 60.8
L 48.1 60.8
Q 48.5 60.2 48 60.8
M 56.6 58.4
Q 56.5 58.2 56.35 58.1 55.85 57.6 55.3 58.05
L 56.6 58.4 Z"/>
</g>
</defs>

<g transform="matrix( 1, 0, 0, 1, 2.75,1.5) ">
<use xlink:href="#Layer1_0_FILL"/>
</g>
</svg>
