
<svg xmlns="http://www.w3.org/2000/svg" version="1.1" xmlns:xlink="http://www.w3.org/1999/xlink" preserveAspectRatio="none" x="0px" y="0px" width="100px" height="100px" viewBox="0 0 100 100">
<defs>
<g id="Layer1_0_FILL">
<path fill="#000000" stroke="none" d="
M 45.45 52.3
Q 45.55 52.2 45.55 52.05 45.55 51.9 45.45 51.8 45.35 51.7 45.2 51.7 45.05 51.7 44.95 51.8 44.85 51.9 44.85 52.05 44.85 52.2 44.95 52.3 45.05 52.4 45.2 52.4 45.35 52.4 45.45 52.3
M 49.45 53.8
L 48.3 53.3
Q 48.1 53.85 48.9 53.85 49.15 53.8 49.45 53.8
M 46.9 54.15
Q 46.7 54.35 46.7 54.6 46.7 54.85 46.9 55.05 47.1 55.25 47.4 55.25 47.7 55.25 47.9 55.05 48.1 54.85 48.1 54.6 48.1 54.35 47.9 54.15 47.7 53.95 47.4 53.95 47.1 53.95 46.9 54.15
M 51.1 54.65
L 51.5 52.8
Q 51.35 53.05 51.15 53.3 50.8 53.6 50.45 53.95 50.35 54.05 50.35 54.25
L 51.1 54.65
M 56.8 61
L 57.7 61.75 58.6 61 56.8 61
M 66.85 60.45
Q 66.6 60.1 66.55 60.65 67.2 60.9 66.85 60.45
M 63.9 60
Q 64.05 59.9 64.05 59.75 64.05 59.6 63.9 59.5 63.8 59.4 63.65 59.4 63.5 59.4 63.35 59.5 63.25 59.6 63.25 59.75 63.25 59.9 63.35 60 63.5 60.1 63.65 60.1 63.8 60.1 63.9 60
M 68 50.05
Q 67.7 50 67.45 50.1 66.15 49.9 65.7 50.8
L 68 50.05
M 80.05 57.6
Q 80.2 57.5 80.35 57.4 80.3 57.05 80.2 56.75 80.1 56.6 79.95 56.5 79.7 56.7 79.6 57 79.55 57.1 79.65 57.3 79.85 57.45 80.05 57.6
M 73.5 56.05
Q 73.1 56.05 72.7 56.05 71.45 56.3 70.35 56.4 69.45 56.25 69 55.5 69.3876953125 55.403125 69.65 55.15 69.6568359375 55.1568359375 69.6 55.1 69.05 55 68.5 55.2 67.05 55.65 65.55 55.5 64.25 55.45 63.7 56.55
L 63.75 56.6
Q 63.35 56.7 62.9 56.85 62.5 56.9 62.15 57
L 61.75 57.85
Q 61.3251953125 57.9 60.9 57.9 60.05 57.9 59.25 58.35 58.9 58.5 58.65 58.8
L 59.05 59.85
Q 59.5 59.85 59.9 59.7 60.45 59.6 60.9 59.3 61.95 58.5 63.2 58.05 63.9 58 64.3 58.55 65.75 60.55 68 59.2 68.6 58.8 69.2 58.45
L 69.9 59.45
Q 70.05 59.5 70.2 59.45 70.3 59.35 70.4 59.2 70.55 59 70.7 58.85 71.2 58.55 71.7 58.25
L 72.5 57.15 71.8 59.85
Q 72.75 58.95 73.7 58 74.5 57.25 74.05 56.4
L 73.5 56.05
M 67.25 58.45
L 67.05 58.65 66.9 58.45 67.25 58.45
M 66.2 58.15
Q 66.25 57.6 66.3 58.05 66.4 58.6 66.2 58.15
M 77 54.9
Q 76.7 54.1 76.85 54.8 76.9 55.15 77 54.9
M 78 51.35
Q 77.65 50.95 77.15 50.75 74.35 50.4 72.45 52.3
L 73.6 52.25 74.25 51.7 76.55 51.85 78.05 51.75
Q 78.1 51.45 78 51.35
M 17.8 56.45
Q 17.85 56.35 17.95 56.3
L 17.9 55.35 17.35 55.7
Q 16.55 56.45 17.8 56.45
M 11.1 58.9
Q 11.1 58.8 10.95 58.7
L 10.1 59.1
Q 10.35 59.25 10.6 59.45 11.2 59.55 11.1 58.9
M 14.7 56.95
Q 14.6 57.2 14.75 57 14.9 56.5 14.7 56.95
M 14.6 55.65
L 14.45 55.45
Q 13.85 54.7 14.35 55.5 14.45 55.7 14.6 55.65
M 19.1 51.25
L 19.35 51 18.85 51 19.1 51.25
M 18.25 50.75
L 18.5 50.3 18.05 50.3 18.25 50.75
M 27.85 56.65
Q 27.5 56.2 27.15 55.8 26.5 56.55 27.6 56.7 27.7 56.65 27.85 56.65
M 29 55.45
Q 28.9 55.35 28.75 55.35 28.6 55.35 28.45 55.45 28.35 55.6 28.35 55.75 28.35 55.9 28.45 56 28.6 56.15 28.75 56.15 28.9 56.15 29 56 29.15 55.9 29.15 55.75 29.15 55.6 29 55.45
M 40.05 56.9
Q 39.75 57.2 39.45 57.5 40.55 57.75 41.5 57.95 41.8 58.1 42.2 58.1 42.6 57.9 42.95 57.65 43.45 57.15 43.35 56.75 43.3 56.5 43.1 56.3 41.35 56.05 40.05 56.9
M 30.9 57.25
Q 31.35 57.1 30.8 56.75 30.6 56.6 30.35 56.6 28.6 57.3 26.55 57.5
L 30.9 57.25
M 30.45 55.85
L 30.5 55.8
Q 30.3 55.6 30.2 55.7 30 55.65 30.45 55.85
M 32 56.9
Q 31.9 57.05 31.9 57.2 31.9 57.35 32 57.45 32.15 57.6 32.3 57.6 32.45 57.6 32.55 57.45 32.7 57.35 32.7 57.2 32.7 57.05 32.55 56.9 32.45 56.8 32.3 56.8 32.15 56.8 32 56.9
M 34.2 53.8
Q 34.35 53.6 34.35 53.35 34.35 53.1 34.2 52.9 34.05 52.7 33.85 52.7 33.65 52.7 33.5 52.9 33.35 53.1 33.35 53.35 33.35 53.6 33.5 53.8 33.65 54 33.85 54 34.05 54 34.2 53.8
M 32.15 50.6
Q 32 50.45 31.75 50.45 31.5 50.45 31.3 50.6 31.15 50.8 31.15 51.05 31.15 51.3 31.3 51.45 31.5 51.65 31.75 51.65 32 51.65 32.15 51.45 32.35 51.3 32.35 51.05 32.35 50.8 32.15 50.6
M 34.25 51.2
L 34.1 49.95
Q 33.3 49.5 32.45 49.8 32.3 49.85 32.15 49.95 32.1 50.1 32.1 50.3 32.15 50.5 32.3 50.75
L 34.25 51.2
M 36.05 53.05
Q 36.2 52.85 36.35 52.65
L 34.8 53.1
Q 35.35 53.9 36.05 53.05
M 37.7 51
L 35.85 49.5 36.25 51 37.7 51
M 38.25 51.95
Q 38.2 52 38.25 52.2 38.5 52.4 38.55 52.3 39.05 51.9 39.35 51.25 38.75 51.55 38.25 51.95
M 39.25 47.65
L 39.3 47.25
Q 38.55 47.55 37.8 48.25
L 38.45 48.15 39.25 47.65
M 35.8 44
L 36.6 45.2 37.4 44 35.8 44
M 39.05 44.5
Q 39.2 44.4 39.2 44.2 39.2 44 39.05 43.85 38.9 43.75 38.7 43.75 38.5 43.75 38.35 43.85 38.2 44 38.2 44.2 38.2 44.4 38.35 44.5 38.5 44.65 38.7 44.65 38.9 44.65 39.05 44.5
M 32.15 40.95
L 31.55 40.4
Q 31.45 40.95 32.15 41.1
L 32.15 40.95
M 31.2 39.65
L 32.2 38.65 31.2 38.65 31.2 39.65
M 30.3 46.55
Q 30.3 46.6 30.2 46.65
L 29.6 46.8
Q 28.95 47.65 27.85 47.9
L 29 48.2 27.7 49
Q 27.65 48.05 26.75 47.7 25.95 47.7 25.4 48.15 24.9 48.6 24.3 48.85 23.4 49.25 22.45 49.6 21.75 49.9 21.1 50.3 20.4 50.8 19.55 51.15 18.55 51.65 17.4 51.45 14.7 51.15 12.3 52.65
L 18.75 52.45 18.8 54.35 19.25 54.5 20.6 53.55
Q 20 54.3 20.5 55.05 21.85 56.05 23.4 55.3 25.15 54.65 26.65 53.6 27.9 52.85 28.8 51.65 29.15 51.25 29.4 50.75 29.35 49.9 28.5 49.6
L 29.4 49.05
Q 29.85 49.05 30.25 49.2 31.2 49.8 32.1 49.4 32.35 49.2 32.6 49
L 32.75 48.45
Q 35.1 48.75 37 47.7 37.25 47.6 37.4 47.3 37.2 46.3 36.2 46.3
L 36 47.65 34.25 46.95
Q 33.85 46.15 34.35 45.3 34.6 44.9 34.85 44.45
L 33.45 44.5
Q 33 44.6 33 44.85 32.95 45.1 32.5 45.3 31.05 45.3 30.3 46.55
M 23.7 49.25
Q 23.75 49.25 23.85 49.3 24.05 49.95 23.65 49.6 23.3 49.35 23.7 49.25
M 32.55 47.9
L 31.2 47.9 32.75 47.5 32.55 47.9
M 27.8 51.9
Q 26.95 52.05 27.75 51.7
L 27.8 51.9
M 26.05 51.05
L 26 52
Q 25.15 53.45 23.45 53.1
L 21.85 53.85
Q 21.65 53.75 21.6 53.6 21.45 53.4 21.4 53.2
L 21.55 52.75
Q 21.1 52.45 20.85 52.05 20.8 51.95 20.95 51.75 21.8 51.85 21.35 50.95
L 21.55 51 22.1 51.55
Q 22.55 51.4 23 51.25 23.45 52.1 24.25 52.55 24.35 52.5 24.45 52.5 24.95 51.6 24.35 50.6 24.25 50.4 24.25 50.2 24.65 50.9 25.55 51.15
L 26.05 51.05
M 23.2 53.65
L 23.15 54.6 22.45 54.7
Q 22.8 54.15 23.2 53.65
M 29.1 39.55
Q 29.65 39.75 30.2 39.95 30.3 39.9 30.45 39.9 30.6 39.65 30.6 39.6 30.3 39.25 29.8 39.1 29.6 38.85 29.55 38.85 29.25 39.05 29.1 39.55
M 27.45 39.85
Q 27.5 39.75 27.4 39.65 26.8 39.6 26.55 40.1 26.5 40.15 26.5 40.25 27.15 40.7 27.45 39.85
M 18.95 49.4
Q 19.1 49 19.2 48.65
L 18.55 48.7
Q 18.3 49 18.2 49.35 18.15 49.45 18.25 49.6 18.8 49.85 18.95 49.4
M 19.7 40.7
L 18.5 42.6
Q 19.75 42.35 21.05 42.1 22 41.8 22.95 41.5 22.8 41.4 22.65 41.3 22.2 41.2 21.75 41.1 20.65 40.55 19.7 40.7
M 18.95 39.85
L 17.85 38 16.2 39.85 16.55 40.45
Q 15.2 41.05 14.3 42.2
L 15.6 42.4 15.5 41.35
Q 16.15 42 17.05 41.85 17.35 41.75 17.7 41.7 17.7 42.1 17.9 42.5
L 18.05 42.5
Q 18.25 42.3 18.35 42.1 18.45 41.95 18.5 41.8 18.5 41.65 18.5 41.5 18.5 41.35 18.45 41.25 18.2 41.05 18.15 40.85 18.15 40.7 18.4 40.65 18.45 40.6 18.6 40.7
L 18.95 39.85
M 20 39.55
Q 20 39.4 19.9 39.3 19.85 39.2 19.75 39.2 19.65 39.2 19.55 39.3 19.5 39.4 19.5 39.55 19.5 39.7 19.55 39.8 19.65 39.9 19.75 39.9 19.85 39.9 19.9 39.8 20 39.7 20 39.55
M 76.2 45.8
Q 76.05 46 76 46.3 77.05 46.4 76.4 45.75 76.3 45.65 76.2 45.8
M 72.15 42.4
Q 72.3 42.3 72.3 42.15 72.3 42 72.15 41.85 72.05 41.75 71.9 41.75 71.75 41.75 71.6 41.85 71.5 42 71.5 42.15 71.5 42.3 71.6 42.4 71.75 42.55 71.9 42.55 72.05 42.55 72.15 42.4
M 66.15 45.8
Q 67.9 46.75 69.8 46.55 70.55 46.8 71.3 46.65 71.9 46.65 72.35 46.25 71.85 46.05 71.4 45.9 69.95 45.8 68.9 45.45
L 70.55 44.4
Q 68.75 44.2 67.2 45.05 66.65 45.4 66.15 45.8
M 68.8 42.45
Q 67.85 40.8 66 41.35 65.75 41.35 65.55 41.35
L 66 42.15
Q 65.35 42.4 64.95 42.8 64.8 42.9 64.7 43.05 64.8 44.4 66.5 44.4 68.2 43.95 68.8 42.45
M 68.6 41.7
Q 68.7 41.8 68.85 41.9 69.9 41.85 69.9 40.8 69.9 40.65 69.8 40.5 69.05 40.2 68.6 40.7 68.45 40.85 68.35 41 68.2 41.45 68.6 41.7
M 50.8 47
L 51.4 47.45
Q 51.75 47.35 51.9 47.1 51.85 47.425 51.8 47.75 53.1 47.3 53.45 46.1 53.4 45.45 52.8 45.35 51.45 45.7 50.8 47
M 55.6 44.8
Q 54.85 45.15 54.15 45.5 54 45.65 53.85 45.85
L 53.8 46.4 54.5 47.25 54.95 47.3 54.45 46.55 55.95 46.4
Q 56.4 46.05 56.8 45.7 57.15 45.35 57.45 45 57 44.8 56.6 44.65 56.1 44.7 55.6 44.8
M 48.95 47.3
L 48.55 47.55
Q 48.95 47.6 49.15 47.25
L 48.95 47.3
M 47.85 48.2
Q 47.4 47.5 47.8 48.25
L 47.85 48.2
M 87.6 54.85
L 86.9 55.5 86 54.9 86.15 55.9
Q 84.7 55.05 83 55.1 81.55 55.15 80.95 56.65 80.85 56.85 80.85 57.15 81.85 57.7 82.95 56.95 83.4 56.7 84.05 56.65 84.35 56.5 84.65 56.4 85.2 55.7 86.45 56.15 86.8 56.35 87.3 56.3 87.75 56.1 88.25 55.9
L 87.6 54.85
M 83.25 56.2
Q 83.25 56.15 83.15 56.05 83.45 55.5 83.25 56.2
M 84.85 44.6
L 85.2 45.8
Q 85.8 44.4 87.35 44.65 88.5 44.9 89.8 44.55 87.3 44.55 84.85 44.6
M 84.65 47.95
Q 84.65 46.75 83.15 46.95 82.75 46.95 82.4 47.05
L 83.25 48 84.65 47.95
M 81.45 44.15
Q 81.35 44.5 81.55 44.25 81.6 43.7 81.45 44.15
M 81.4 41.3
Q 81.25 41.25 81.1 41.25 80.6 41.25 80 41.7 79.35 42.05 78.7 42.35
L 78.65 41.4 76.95 42.35
Q 78.05 42.65 79.2 42.65 79.75 42.9 80.35 42.8 81.4 42.35 81.4 41.3 Z"/>
</g>
</defs>

<g transform="matrix( 1, 0, 0, 1, 2.75,1.5) ">
<use xlink:href="#Layer1_0_FILL"/>
</g>
</svg>
