
<svg xmlns="http://www.w3.org/2000/svg" version="1.1" xmlns:xlink="http://www.w3.org/1999/xlink" preserveAspectRatio="none" x="0px" y="0px" width="100px" height="100px" viewBox="0 0 100 100">
<defs>
<g id="Layer1_0_FILL">
<path fill="#000000" stroke="none" d="
M 62.85 87.1
Q 62.85 87 62.8 86.9 62.05 86.75 62.75 87.55 62.9 87.7 62.85 87.1
M 64.05 85.25
Q 64.05 84.7 63.35 84.35 62.65 85.1 63.95 85.25 64 85.25 64.05 85.25
M 65.5 84.55
Q 65.2 84.85 65 85.25 66.55 85 67.4 83.8 67.7 83.4 68 82.95 66.5 83.6 65.5 84.55
M 49.35 86.5
Q 49.15 86.5 49 86.6 48.9 86.7 48.9 86.85 48.9 87 49 87.1 49.15 87.2 49.35 87.2 49.55 87.2 49.65 87.1 49.8 87 49.8 86.85 49.8 86.7 49.65 86.6 49.55 86.5 49.35 86.5
M 47.5 86.25
Q 47.5 86.15 47.4 86.05 47.3 85.95 47.15 85.95 47 85.95 46.9 86.05 46.8 86.15 46.8 86.25 46.8 86.35 46.9 86.45 47 86.55 47.15 86.55 47.3 86.55 47.4 86.45 47.5 86.35 47.5 86.25
M 54.9 84.9
Q 54.8 84.75 54.6 84.75 54.4 84.75 54.25 84.9 54.15 85.1 54.15 85.35 54.15 85.6 54.25 85.75 54.4 85.95 54.6 85.95 54.8 85.95 54.9 85.75 55.05 85.6 55.05 85.35 55.05 85.1 54.9 84.9
M 78 67.05
Q 78.15 67.15 78.3 67.15 78.45 67.15 78.55 67.05 78.7 66.95 78.7 66.85 78.7 66.75 78.55 66.65 78.45 66.55 78.3 66.55 78.15 66.55 78 66.65 77.9 66.75 77.9 66.85 77.9 66.95 78 67.05
M 31.15 77
Q 31.25 76.9 31.25 76.75 31.25 76.6 31.15 76.45 31.05 76.35 30.9 76.35 30.75 76.35 30.65 76.45 30.55 76.6 30.55 76.75 30.55 76.9 30.65 77 30.75 77.15 30.9 77.15 31.05 77.15 31.15 77
M 30.6 75.2
Q 31.1 75.65 31.55 75.65 31.7 75.8 31.9 75.8 32.2 75.4 32.1 74.95 31.7 73.1 29.85 73.4 29 73.6 28.8 74.35
L 28.95 75 30.6 75.2
M 18.55 73.3
Q 18.65 73.2 18.65 73.05 18.65 72.9 18.55 72.75 18.45 72.65 18.3 72.65 18.15 72.65 18.05 72.75 17.95 72.9 17.95 73.05 17.95 73.2 18.05 73.3 18.15 73.45 18.3 73.45 18.45 73.45 18.55 73.3
M 17.35 71.1
Q 17.3 70.85 17.25 70.65 16.9 70.8 16.55 70.95
L 16.65 71.45
Q 17.1 71.9 17.3 71.45 17.4 71.3 17.35 71.1
M 18.45 66.35
L 18.15 66.85
Q 18.15 68.1 18.95 69.05 19.15 69.35 19.45 69.65 19.55 67.8 18.45 66.35
M 19.1 49.65
Q 19.2 49.65 19.25 49.6
L 18.65 49.05
Q 18.5 49.9 19.1 49.65
M 18 50.65
Q 17.45 51.9 18.4 52.85 18.45 53.2 18.8 53.3 19 53.4 19.05 53 19.3 51.45 18 50.65
M 29.15 72.05
Q 29.25 71.95 29.25 71.8 29.25 71.65 29.15 71.55 29.05 71.45 28.95 71.45 28.85 71.45 28.75 71.55 28.65 71.65 28.65 71.8 28.65 71.95 28.75 72.05 28.85 72.15 28.95 72.15 29.05 72.15 29.15 72.05
M 27.45 72.05
Q 27.55 72.15 27.65 72.15 27.75 72.15 27.85 72.05 27.95 71.95 27.95 71.8 27.95 71.65 27.85 71.55 27.75 71.45 27.65 71.45 27.55 71.45 27.45 71.55 27.35 71.65 27.35 71.8 27.35 71.95 27.45 72.05
M 25.3 72.35
L 25 72.35 25 72.8 25.3 72.8 25.3 72.35
M 24.35 73.85
Q 24.3 73.95 24.3 74.05 24.7 74.7 24.65 73.95 24.65 73.4 24.35 73.85
M 20.85 73.35
Q 21.45 73.6 22.15 73.7 22.55 73.8 23 74
L 23.4 72.6 22.95 72.5 22.2 71 20.7 72.8
Q 20.55 71.45 19.5 70.6 19 71.6 17.8 71.5 19.15 72.75 20.85 73.35
M 21.1 66.6
Q 21.15 66.5 21.25 66.45 21.8 65.95 21.15 65.45 21 65.35 20.9 65.3
L 20.2 65.5 20.15 65.95
Q 20.4 66.65 21.1 66.6
M 21.75 67.75
Q 21.2 67.75 20.8 68.05 20.45 68.35 20.45 68.8 20.45 69.25 20.8 69.55 21.2 69.85 21.75 69.85 22.3 69.85 22.65 69.55 23.05 69.25 23.05 68.8 23.05 68.35 22.65 68.05 22.3 67.75 21.75 67.75
M 20.65 61.5
Q 20.45 61.5 20.3 61.6 20.2 61.7 20.2 61.85 20.2 62 20.3 62.1 20.45 62.2 20.65 62.2 20.85 62.2 20.95 62.1 21.1 62 21.1 61.85 21.1 61.7 20.95 61.6 20.85 61.5 20.65 61.5
M 20.45 60.8
Q 20.55 60.7 20.55 60.55 20.55 60.4 20.45 60.3 20.35 60.2 20.2 60.2 20.05 60.2 19.95 60.3 19.85 60.4 19.85 60.55 19.85 60.7 19.95 60.8 20.05 60.9 20.2 60.9 20.35 60.9 20.45 60.8
M 21.85 54.4
L 21.65 53.95 20.8 54.05 20.55 54.55
Q 20.8 54.85 21.1 55.15
L 21.85 54.4
M 21.95 52.55
Q 22.2 51.85 22.35 51.1 22.4 50.9 22.35 50.7
L 21.95 50.35
Q 21 50.25 20.45 51.1 20.3 51.3 20.1 51.5 20 51.85 20.5 52.25 20.8 52.55 21.45 52.75
L 21.95 52.55
M 20.95 49.25
Q 20.8 49.05 20.55 49.05 20.3 49.05 20.15 49.25 20 49.45 20 49.7 20 49.95 20.15 50.15 20.3 50.35 20.55 50.35 20.8 50.35 20.95 50.15 21.1 49.95 21.1 49.7 21.1 49.45 20.95 49.25
M 22.05 47.35
L 21.95 48.75 22.55 49.65 22.05 47.35
M 14.9 46.15
Q 14.95 46.3 15.1 46.45 15.65 46.7 15.95 46.25
L 14.9 46.15
M 11.55 43.55
Q 11.4 43.7 11.35 43.95 12.2 44.3 11.9 43.6 11.8 43.45 11.55 43.55
M 13.1 46.25
Q 13.1 46.15 13 46.05 12.9 45.95 12.75 45.95 12.6 45.95 12.5 46.05 12.4 46.15 12.4 46.25 12.4 46.35 12.5 46.45 12.6 46.55 12.75 46.55 12.9 46.55 13 46.45 13.1 46.35 13.1 46.25
M 15.75 41
Q 15.55 41.3 15.45 41.7 14.95 41.9 14.55 42.2 14.1 42.6 13.75 43.15
L 13.5 45.7
Q 15.65 44.75 18.1 44.9 18.35 44.85 18.65 44.85 17.7 43.55 16.05 44 15.4 44.2 14.7 44.25 14.35 44.1 14 44 13.95 43.8 13.95 43.65 13.95 43.5 14 43.35 14.1 43.2 14.25 43.1 15.7 42.5 17.2 43 19.75 43.95 22.25 44.65 23.15 44.9 24.05 44.8
L 24.05 44.7
Q 23.4 44 22.25 44.05 19.95 43.8 19.25 41.65 19 41 18.6 40.5 18.15 40 17.6 39.65 16.45 39.8 15.75 41
M 16.1 37.9
Q 16.05 37.5 15.9 37.15 15.75 36.9 15.65 36.65 15 38.35 13.85 39.6 12.7 40.95 11.75 42.55 12.05 42.9 12.4 42.45 13.4 41.05 14.95 40.2 16.3 39.45 16.1 37.9
M 50.15 17.55
Q 50.15 17.65 50.35 17.75 50.3 16.7 50.15 17.55
M 66.5 23.45
Q 65.5 23.75 65.7 24.55 65.7 24.65 65.75 24.75 66.45 25.3 66.9 24.6 67.1 24.35 67.2 24.05 67.25 23.95 67.25 23.85
L 66.5 23.45
M 65.15 22.6
Q 65.15 22.65 65.35 22.75 65.3 21.7 65.15 22.6
M 68.15 22.95
Q 67.95 23.45 67.95 23.95 67.95 24.4 68.3 24.75 68.7 25.1 69.25 25.35 69.9 25.25 70.55 25.15 71.15 24.05 70.1 23.3 69.15 22.45 68.15 22.95
M 82.95 38.6
Q 83.05 38.55 83.05 38.45 83.05 38.35 82.95 38.25 82.85 38.2 82.7 38.2 82.55 38.2 82.45 38.25 82.35 38.35 82.35 38.45 82.35 38.55 82.45 38.6 82.55 38.7 82.7 38.7 82.85 38.7 82.95 38.6
M 84.45 38.5
Q 84.4 38.4 84.3 38.4 84.2 38.4 84.1 38.5 84.05 38.6 84.05 38.7 84.05 38.8 84.1 38.9 84.2 39 84.3 39 84.4 39 84.45 38.9 84.55 38.8 84.55 38.7 84.55 38.6 84.45 38.5
M 35.15 82.75
Q 35.05 82.85 34.95 82.95 34.65 83.35 35.1 83.45
L 35.15 82.75
M 33.6 53.65
L 33.75 53.95
Q 33.8 53.8 33.75 53.7 33.75 53.65 33.6 53.65
M 31.6 43.95
L 31.5 43.55
Q 31.3 43.8 31.35 44
L 31.6 43.95
M 27.6 26.55
Q 27.05 26.55 26.65 26.85 26.25 27.15 26.2 27.55
L 27.6 26.55
M 88.3 39.65
Q 87.3 39.1 86.2 39.65 85.45 40.05 84.6 40.3 82.55 40.55 80.55 39.75
L 83.35 36.45 80.15 39.5 80.05 40.8 79.55 41.4 78.45 41.4
Q 78.75 40.85 79.05 40.3
L 77.95 39.3
Q 78.15 39.2 78.35 39.05 78.55 39 78.7 38.9 78.8 38.75 78.95 38.65 78.5 38.45 78.1 38.25 77.7 38.2 77.35 38.2 78.05 37.1 78.45 35.95 78.6 35.55 78.6 35.1 77 33.4 74.55 34.5 74.1 34.75 73.55 34.75 72.6 34.75 72.25 34.1 72.05 33.75 71.95 33.35
L 72.55 32.8
Q 73.45 32.85 74.1 33.25 74.45 33.45 74.9 33.55 75.9 33.3 76.75 33 75.75 32.85 75.1 32.05 74.85 31.8 74.35 31.6 73.6 31.5 73.35 31.1
L 74.05 29.55
Q 73.95 28.65 73 28.3 71.25 27.5 69.8 26.5 68.7 25.8 67.55 26.45 66.55 27.1 65.4 26.7 64.75 26.4 64.3 25.9
L 64.45 25.85
Q 64.5 25.7 64.55 25.6 64.65 25.3 64.6 25.05 64.6 24.75 64.55 24.5 63.7 23.7 62.8 24.75 62.5 25.15 62.25 25.6 61.4 27 60 27.6
L 58.7 27.1 60.05 25.85 58.45 26.4
Q 58.65 25.4 58.55 24.45 58.25 22 56.05 20.75 55.45 20.5 54.85 20.65 54.1 20.8 53.5 21.25 52.95 21.7 52.4 22.1 51.35 22.95 50.3 22.25 49.3 21.6 49.7 20.55 49.7892578125 20.308984375 49.85 20.05 50.262109375 20.7033203125 51 20.9 51.2 20.95 51.4 21
L 52.35 20.65 50.15 19.35 49.9 19.95
Q 50.1775390625 18.908984375 50.1 17.9
L 49.6 17.35
Q 48.95 17.15 48.55 17.5 48.05 18 47.4 18.3 47.1 17.55 46.85 16.8 43.45 17.15 41.1 19.55 40.7 18.25 40.45 16.75 40.35 16.3 40.1 15.9 39.9 15.55 39.6 15.3 39.3 15 39 14.75
L 38.8 13
Q 37.7 13.25 36.8 12.95 36.45 12.85 36.15 12.6
L 35.15 12.5
Q 34.8 12.85 34.7 13.6 34.6 14.05 34.25 14.45 34 14.65 33.65 14.8 33.2 14.6 32.8 14.3 32.4 14.1 32.05 13.8 32.05 16 30.75 17.75 30.3 18.35 30.05 19.05 29.55 20.55 28.45 21.75 27.95 22.4 27.4 23 26.55 23.8 26.6 24.8 26.65 24.9 26.75 24.95 26.85 25.1 27.05 25.2 27.4 25.15 27.8 25.1 27.95 25.45 27.9 25.8 27.85 26.2 27.6 26.55 29.15 26.4 30.45 27.25 30.6 27.4 30.75 27.6
L 30.15 28.4
Q 28.1 28.85 26.45 27.85 26.3 27.75 26.2 27.55 24.5 28.2 23 29.5 22.75 29.75 22.55 30
L 25.15 30.15
Q 23.35 30.65 21.55 31.15 21.85 31.6 22.2 32.1 22.55 32.55 23.2 32.6 23.4 32.6 23.6 32.6 23.85 32.35 24.1 32.1 24.45 31.75 24.85 31.4 24.95 31.3 25.15 31.25
L 27.45 32.7
Q 26.85 33.15 26.05 33.15 25.3 32.95 24.55 33.35 24.05 33.9 24.75 34.4 25.4 35 26.25 35.35 26.45 35.45 26.65 35.6 25.55 36.15 24.75 35.15 23.95 34.2 23.9 33.05
L 20.6 32.9 21.7 34.2
Q 20.95 34.65 20.2 34.75 18.3 34.7 17.35 36.25 17.35 38.05 19.1 38.2 21.05 38.6 22.35 37.1
L 21 35.9 23 34.7 22.95 35.85 23.9 36.5
Q 23.9 36.7 23.8 36.85 23.2 37.85 22.3 38.6 21.85 38.95 21.5 39.35 21.3 39.5 21.15 39.7 21.35 40.6 21.75 41.5 21.9 41.85 22.3 42.15
L 22.75 42.2
Q 23 42.1 23.2 41.95 23.5 41.65 23.85 41.45 24.2 41.2 24.6 41.05 25.3 41.4 25.4 41.85 25.55 42.7 26.3 43.05 26.55 43.1 26.85 43.2 26.95 43.15 27.05 43.1
L 27.1 42.3 26.25 41.65 27.25 40.65 24.85 39.9 24.75 39.3 24.45 38.95 23.7 38.95
Q 23.95 38.8 24.25 38.8 25.35 38.8 26.3 38.75 27.35 38.6 27.55 37.65 28 35.8 28.95 34.5 29.3 33.95 29.5 33.25 29.65 32.75 30.15 32.5 31.15 32.65 31.75 33.65 31.95 34 32.4 34.25 33.3 34.6 34.35 34.55
L 34.3 33.85 34.65 33.15 35.45 32.75 35.9 32.9
Q 36.15 33.35 36.25 33.9 36.3 34.3 36.4 34.75
L 36.55 34.75
Q 36.6 34.7 36.65 34.6 36.8 34.45 36.85 34.3 36.9 34.05 36.85 33.85 36.85 33.7 36.85 33.6
L 35.35 31.8
Q 35.6 30.65 36.9 30.75 37.3 30.95 37.65 31.25 38.1 31.65 38.5 32.15 38.75 32.5 39.2 32.7 40.2 33.3 40.45 34.35
L 39.7 35.05 36.85 35.1
Q 36.75 35.25 36.7 35.4 36.7 35.55 36.75 35.7 36.8 35.85 36.9 36
L 38.65 36.7 37.65 38.5
Q 37.25 38.3 36.9 38.15 36.5 38.15 36.1 38.15 34.85 39.15 34.25 40.6 34.1 40.95 33.9 41.25 33.05 41.7 32.15 41.25 31.1 40.7 31.05 39.5 31.4 38.55 32.55 37.95 33 37.75 33.5 37.6
L 31.95 39.5 34.05 40.65
Q 33.95 38.45 35.4 36.6 35.75 36.2 36.05 35.7 35.6 35.6 35.25 35.4 35 35.35 34.9 35.2 34.65 35 34.5 34.8 33.9 35.7 33.35 36.65
L 29.75 34.55 30.95 37.45 29.25 36.35 28.05 39.05
Q 28.3 39.95 29.05 40.2 29.95 40.2 30.85 40.25
L 31.5 43.55
Q 32.5 42.35 34.15 42.25 34.25 42.3 34.4 42.35 34.4 42.4 34.4 42.5 34.4 42.6 34.4 42.7 34.25 43.2 33.75 43.55
L 31.6 43.95
Q 32.2 45.4 31.95 46.9 31.95 47.05 31.9 47.25 31.75 47.15 31.7 47.05 30.8 45.3 29.9 43.6 29.5 42.95 29.4 42.25 29.25 41.25 28.65 40.75 28.3 40.45 27.95 40.25 28.8 42.05 27.3 43.3 26.8 43.7 26.25 44 25.9 44.15 25.6 44.3
L 28.85 44.65 27.85 45.75 28.3 46.05 30 45.95 30 48
Q 29.1 47 27.85 47
L 28.7 48.6 27.1 48.95
Q 28.1 49.6 29.35 50 29.9 50.15 30.4 50.5 31 50.95 31.7 51.15 32.15 51.35 32.65 51.1 33.15 50.8 33.45 50.3 33.85 49.55 34.1 48.75 34.4 47.95 34.6 47 34.45 49.05 33.85 51 33.6 51.8 33.25 52.55 33 53.05 32.65 53.5
L 32.15 53.5
Q 31.45 53.2 30.95 52.5 30.2 51.3 28.75 51
L 28.95 54 27.85 54
Q 28.8 55.35 30.35 55.3 30.8 55.1 31.25 54.7 31.65 54.45 32 54.15
L 33.6 53.65 33.45 53.25 35.75 53.15
Q 35.8 53.55 35.85 53.95 35.9 54.2 36.05 54.5 36.15 54.7 36.35 54.95
L 37.35 55.25
Q 37.65 55.1 37.9 54.95 38.2 54.8 38.4 54.5 38.8 53.95 39.15 53.3
L 38.65 52.85 36.35 54.45
Q 36.8 52.8 37.8 51.7 38.25 51.25 38.9 51.1
L 39.75 51.35
Q 40.35 52.3 39.95 53.5 39.3 55.4 37.9 57 37.35 57.6 36.5 57.8 35.85 58.05 35.2 57.75 35.1 57.55 35.05 57.4 35.05 57.3 35.1 57.2 35.25 56.85 35.3 56.5 35.35 56.3 35.35 56.05
L 34.35 55.45 33.75 53.95 33.05 56.05
Q 32.15 55.35 30.95 55.65 29.55 55.8 28.3 55.5 27.85 55.5 27.55 55.2 26.55 54.35 27 53.1 27.3 52.7 27.6 52.3 28.05 51.6 28.1 50.8
L 27.65 50.1 24.85 50.1
Q 25.85 48.8 26.85 47.55 26.6 47.5 26.35 47.45 25.65 47.2 25.45 46.55
L 27.25 46.25
Q 24.45 45.05 21.65 45.95
L 20.55 47.35
Q 21.3 47.4 21.9 47.05 23 46.35 24.15 46.85 25.15 47.85 24.85 49.2 24.65 49.95 24.85 50.7 25.05 51.5 25.4 52.25 25.6 52.65 25.85 53.05 24.85 52.75 24.15 53.25 23.4 53.75 23.05 54.65 24.05 54.55 25.05 54.5 26.3 54.7 26.45 56 26.5 56.7 26.55 57.4 26.6 57.85 26.6 58.35
L 26 58.95 24.4 59.15
Q 24.5 59.55 24.8 59.9 25.15 60.4 25.6 60.85 25.95 61.1 26.2 61.5 26.25 61.55 26.25 61.75 25.95 62.6 25.15 62.2 24.55 61.9 24.05 61.55 23.65 61.15 23.5 60.7 23.2 59.55 23.65 58.35 23.95 57.6 24.25 56.85
L 25.05 57.95 25.25 57.45
Q 25.2 56.15 24.1 55.85 23.1 55.85 22.5 56.65 21.1 58.4 22.05 60.2 22.2 60.55 22.45 60.85 23 61.45 23.4 61.95 23.7 62.25 23.9 62.65 23.15 63.85 21.5 63.7 20.75 63.7 20.15 64.25 19.7 64.7 19.15 65.05 19.55 65.05 19.95 64.9 20.65 64.8 21.3 64.55 22.75 63.85 23.35 65.3 23.55 65.75 23.45 66.3 23.3 67.3 23.15 68.3 23.05 69 23.65 69.55 24 69.8 24.45 70 25.55 70.3 26.45 69.6 27.3 69.1 27.45 68.35 27.55 67.6 27.4 66.95 27.05 65.6 26.55 64.35 28.15 65.55 29.75 66.8 30.3 67.2 30.8 67.7 31 67.9 31.15 68.15 30.25 68.3 29.5 68.65 29 68.9 28.65 69.4 28.7 70.5 29.8 71.25 32.05 72.75 34.35 74.1 35.4 74.7 36.6 75.05 36.75 75.15 36.9 75.3 36.45 75.35 36.05 75.5 35.2 75.45 34.4 75.45 34.05 75.6 33.7 75.8
L 32.35 77.8
Q 32.4 78 32.5 78.25 32.95 79.05 33.05 80 33.1 80.8 33.5 81.5
L 34.95 82.3 35.15 82.75
Q 35.55 82.8 35.3 83.3 35.25 83.4 35.1 83.45
L 35.05 84.15
Q 36.25 83.75 37.35 83.5 38.55 83.55 39.35 82.75
L 39.25 84.45
Q 41.6 83 44.1 82.35 44.85 82.25 45.6 81.85 46.05 81.65 46.55 81.05
L 46.65 80.25 47.45 80.5
Q 48.6 81.65 48.2 83.3 48.15 83.45 48.1 83.6 47.7 84.1 47.25 83.6 46.7 83 45.85 83.25
L 46.95 84.05 45.85 85.15
Q 47.15 85.3 48.3 84.5 48.75 84.15 49.2 83.8 50.6 82.9 51.2 84.25
L 51.05 84.65
Q 50.1 85.1 49 85.25 48.55 85.4 48.45 85.95 48.55 86.5 49.1 86.35 50.05 86.2 50.75 85.6 50.9 85.45 51.15 85.4
L 51.85 85.8 51.25 87.15 52.9 86.75 53.4 86.2
Q 53.4 85.8 53.3 85.5 53.1 84.9 52.75 84.35
L 55.85 83.75
Q 56.5 83.2 56.6 82.35 56.65 82 56.65 81.65
L 56.35 81.15
Q 56 81.05 55.65 80.95 55 81.2 54.7 80.7 54.7 79.3 54.35 77.85 54.1 76.9 54.75 76.25 55.2 77 56.1 77.4 57.45 77.95 59.05 78.25
L 57.65 78.35 57.95 80.25 59.6 79.25
Q 60 79.45 60.4 79.75 60.8 80.05 61.15 80.45 59.3 80.3 59.15 82.05 59.1 82.4 59.25 82.85 58.75 82.85 58.3 82.9 57.85 83.05 57.4 83.25 57.15 83.6 56.85 83.85 56.45 84.2 56 84.45 56.4 84.9 56.75 85.5 57.3 86.6 58.3 87.15 58.2 85.9 58.15 84.65 59.15 85.95 60.55 86.2
L 59.7 84.45 60.25 84.7
Q 62.15 84 64.15 83.95 64.6 83.95 65.05 83.95 65.8 83.25 67 82.75 67.45 82.55 67.95 82.35 67.8 82.2 67.65 82.1 67.2 81.85 66.8 81.65 68.45 80.6 70.15 79.6
L 68.45 79.75 67.8 79.15
Q 67.75 78.95 67.75 78.75 67.8 78.55 67.9 78.4 68.05 78.25 68.2 78.15 69.95 78.55 71.8 79.2 72.2 79.25 72.6 79.3 71 77.5 72.6 75.9 72.65 75.9 72.75 76 73.1 75.35 73.55 74.8 73.9 74.4 74.05 73.9 74.15 73.5 74.2 73.05 74.2 72.9 74.3 72.8 74.35 72.75 74.4 72.65 74.7 72.65 74.95 72.5 74.95 72.45 74.95 72.4 74.65 72.35 74.65 72.3 74.65 72 75 71.7 75.2 71.5 75.4 71.3 75.4 71.15 75.4 71.05 75.3 70.85 75.2 70.7 74.9 70.5 74.6 70.35
L 74.9 69.55
Q 75.35 69.9 75.8 70.25 76.25 70.6 76.8 70.6 77.45 70.3 77.45 69.6 77.45 68.15 77.65 66.65 77.75 65.75 78.6 65.55 79.6 65.2 80.45 64.8
L 80.95 64.05 80.95 61.9
Q 81.3 61.6 81.7 61.5 82.15 61.3 82.7 61.25
L 81.6 59 83.5 59.1 83.85 58.4 83 57.05 83.6 57.25
Q 84.6 57.05 85.05 55.9 85.25 55.35 85.55 54.85 85.9 54.35 86.25 53.8 86.6 53.35 86.75 52.75 87.35 50.6 88.25 48.6 86.55 47.75 85.35 46.6 84.5 45.85 83.55 45.2 82.5 44.45 81.65 43.55 81.2 43.1 80.7 42.75 80.55 42.7 80.4 42.7 79.65 42.75 79.25 43.45 78.95 43.95 78.5 43.95 77.85 43.95 77.25 44 80.2 41.9 83.85 42 83.8 42.15 83.7 42.3 83.6 42.55 83.4 42.8 83.25 42.95 83.1 43.15
L 83.2 43.9 84.15 44.1 84.95 43.65
Q 85.05 43.2 85 42.85 84.85 42.25 84.55 41.7 84.25 41.25 84 40.85 84.25 40.9 84.4 41.1 85 41.85 85.35 42.75 85.75 43.95 85.95 45.2 86.2 46.55 87.15 47.55
L 87.7 46.8 87.45 46
Q 87.55 44.9 88.1 43.95 88.85 42.75 89.05 41.35 89.15 40.35 88.3 39.65
M 86.6 41.1
Q 86.75 41.3 86.75 41.55 86.75 41.8 86.6 41.95 86.45 42.15 86.25 42.15 86.05 42.15 85.9 41.95 85.75 41.8 85.75 41.55 85.75 41.3 85.9 41.1 86.05 40.95 86.25 40.95 86.45 40.95 86.6 41.1
M 83.2 48.85
Q 83.05 48.7 83.05 48.45 83.05 48.2 83.2 48 83.4 47.85 83.65 47.85 83.9 47.85 84.05 48 84.25 48.2 84.25 48.45 84.25 48.7 84.05 48.85 83.9 49.05 83.65 49.05 83.4 49.05 83.2 48.85
M 84.05 51.05
Q 84.3 51.65 83.85 51.2
L 84.05 51.05
M 81.1 52.2
Q 81.2 52.3 81.2 52.45 81.2 52.6 81.1 52.7 81 52.8 80.85 52.8 80.7 52.8 80.6 52.7 80.5 52.6 80.5 52.45 80.5 52.3 80.6 52.2 80.7 52.1 80.85 52.1 81 52.1 81.1 52.2
M 82.75 52.45
Q 83 52.3 83.35 52.3 83.7 52.3 83.9 52.45 84.15 52.65 84.15 52.9 84.15 53.15 83.9 53.3 83.7 53.5 83.35 53.5 83 53.5 82.75 53.3 82.55 53.15 82.55 52.9 82.55 52.65 82.75 52.45
M 81.55 51.05
Q 81.95 51.5 81.2 51.35 80.9 51.25 81.5 51.15 81.5 51.1 81.55 51.05
M 45.35 19.8
Q 45.35 20.15 45 20.4 44.65 20.7 44.15 20.7 43.65 20.7 43.3 20.4 42.95 20.15 42.95 19.8 42.95 19.45 43.3 19.15 43.65 18.9 44.15 18.9 44.65 18.9 45 19.15 45.35 19.45 45.35 19.8
M 45.35 21.6
L 45.35 21.05 45.95 21.05 45.95 21.6 45.35 21.6
M 45 22.55
Q 45 22.75 44.85 22.85 44.75 23 44.6 23 44.45 23 44.3 22.85 44.2 22.75 44.2 22.55 44.2 22.35 44.3 22.2 44.45 22.1 44.6 22.1 44.75 22.1 44.85 22.2 45 22.35 45 22.55
M 43.1 23.2
Q 43.3 23.3 43.45 23.55 42.9 23.35 42.4 23.1 40.35 22.2 38.05 22.6 37.25 22.7 36.5 22.85 35.35 23.15 34.5 22.4 34 21.9 33.65 21.3 33.4 20.95 33.25 20.55 34.1 20.8 34.8 21.1 36.65 22.1 38.7 21.35 39.5 21.05 40.25 20.9 40.45 21.05 40.6 21.3 41.1 21.95 42 22.35 42.55 22.7 43.1 23.2
M 47.85 22.3
Q 47.95 22.4 47.95 22.55 47.95 22.7 47.85 22.8 47.75 22.9 47.65 22.9 47.55 22.9 47.45 22.8 47.35 22.7 47.35 22.55 47.35 22.4 47.45 22.3 47.55 22.2 47.65 22.2 47.75 22.2 47.85 22.3
M 51.65 22.95
L 52.6 24.3
Q 53.4 24.5 53.7 23.95 54.2 23.05 55 23.25 55.6 23.55 55.3 24.2 54.55 26 52.65 25.4 52 25.25 51.6 24.75 51.1 24.2 50.5 23.7 50.5 23.1 51.25 22.95 51.45 22.95 51.65 22.95
M 55.25 21.85
Q 55 21.55 55.35 21.65 55.55 22.2 55.25 21.85
M 59.9 29.5
Q 59.2 30.35 58.15 30.85 58.5 29.7 59.5 28.9 59.55 28.85 59.65 28.85 60.3 29 59.9 29.5
M 55.55 27.95
Q 55 28 54.45 28.05
L 56.3 27.2
Q 56.4 27.85 55.55 27.95
M 52.3 29.8
Q 51.85 29.5 51.45 29.25
L 54.05 30.05
Q 53.2 30.45 52.3 29.8
M 50.8 28.35
Q 50.6 27.9 51.45 28.05
L 50.8 28.35
M 54.8 33.9
Q 54.35 33.5 54 33.05 55.1 33.15 55.75 34.05
L 55.7 34.15
Q 55.5 34.25 55.35 34.1 55 34.15 54.8 33.9
M 55 31.25
Q 55 31.4 54.85 31.5 54.75 31.6 54.6 31.6 54.45 31.6 54.3 31.5 54.2 31.4 54.2 31.25 54.2 31.1 54.3 31 54.45 30.9 54.6 30.9 54.75 30.9 54.85 31 55 31.1 55 31.25
M 51.5 33.55
Q 51.65 33.55 51.75 33.7 51.9 33.85 51.9 34.05 51.9 34.25 51.75 34.4 51.65 34.55 51.5 34.55 51.35 34.55 51.2 34.4 51.1 34.25 51.1 34.05 51.1 33.85 51.2 33.7 51.35 33.55 51.5 33.55
M 55.45 35.8
L 54.95 35.3
Q 55.4 35 55.85 34.75
L 56.05 35.15 55.45 35.8
M 53.35 34.3
Q 53.2 33.9 53.55 34.15 53.65 35 53.35 34.3
M 60.7 31.9
Q 60.4 32 60.1 32.1
L 59.65 32 61.15 31.35
Q 61.45 31.85 60.7 31.9
M 55.7 31.25
L 56.45 30.95
Q 57.75 31.65 57.9 33.25 57.9 33.35 57.9 33.5
L 57.15 33.9
Q 56.05 32.75 55.7 31.25
M 57.7 37.1
Q 57.7 36.75 57.9 36.5 58.15 36.25 58.45 36.25 58.75 36.25 58.95 36.5 59.2 36.75 59.2 37.1 59.2 37.45 58.95 37.7 58.75 37.95 58.45 37.95 58.15 37.95 57.9 37.7 57.7 37.45 57.7 37.1
M 46.85 26.4
L 47.35 25.75 47.65 24.45
Q 49.8 24.8 51.05 26.45 48.65 25.75 47 27.35 46.5 27.8 45.7 27.65 45.15 27.45 44.65 27.3 43.75 26.8 42.85 26.35 44.4 24 46.75 23.25
L 45 25.45 45.25 26.5 46.85 26.4
M 46.6 30.75
Q 46.7 30.8 46.8 30.9 46.85 31.35 46.4 31.5 46 31.6 45.65 31.7 45.95 30.85 46.6 30.75
M 48.25 30.85
Q 48.4 30.75 48.6 30.7 49.25 30.7 49.4 31.05
L 49.4 31.1
Q 48.75 31.1 48.25 30.85
M 49.15 28.55
Q 49.25 28.75 49.15 29.1 48.9 29.1 48.75 29.05 48.35 28.75 48 28.45
L 48.15 27.95 48.6 27.8
Q 49 28.1 49.15 28.55
M 41.9 29.25
Q 41.9 30.15 42.45 30.75 42.55 30.9 42.75 31.05
L 41.5 32.45
Q 42.75 32.95 44 33.45 44.6 33.75 45 34.3 45.3 34.75 45.5 35.35
L 43.95 34.2
Q 43.1 34.15 42.65 34.9 42.05 35.75 41.2 35.9 40.4 35 40.95 33.95 41.05 33.7 40.95 33.45 40.55 32.25 40.3 31.15 40.1 30.35 40.5 29.45 41.95 28.4 43.55 29.65
L 43.1 28.2
Q 43.3 27.8 43.8 28.05 44.2 28.25 44.55 28.55
L 44.8 29.05 44.4 29.95
Q 42.9 30.65 41.9 29.25
M 44.65 31
Q 44.8 31.15 44.8 31.3 44.8 31.45 44.65 31.55 44.55 31.7 44.35 31.7 44.15 31.7 44 31.55 43.9 31.45 43.9 31.3 43.9 31.15 44 31 44.15 30.9 44.35 30.9 44.55 30.9 44.65 31
M 44.5 36.15
Q 44.75 36.35 44.75 36.6 44.75 36.85 44.5 37 44.3 37.2 44 37.2 43.7 37.2 43.45 37 43.25 36.85 43.25 36.6 43.25 36.35 43.45 36.15 43.7 36 44 36 44.3 36 44.5 36.15
M 50.5 32.4
Q 50.35 32.4 50.25 32.5
L 49.65 32.35 49.85 31.65 50.65 31.65
Q 50.95 32.15 50.5 32.4
M 46.6 33.75
Q 47.1 33.55 47.75 33.55 48.4 33.55 48.85 33.75 49.35 34 49.35 34.3 49.35 34.6 48.85 34.8 48.4 35.05 47.75 35.05 47.1 35.05 46.6 34.8 46.15 34.6 46.15 34.3 46.15 34 46.6 33.75
M 47.5 31.65
L 47.8 31.65 47.8 32.15 47.5 32.15 47.5 31.65
M 49.15 37
Q 49.5 36.4 50.2 36.1 51.55 35.75 52.65 35.7
L 52.35 37.25 54.15 36.5
Q 53.75 38.45 51.75 38.75
L 52 37.25
Q 49.75 38.2 47.5 37.3 47.2 37.2 47 37
L 49.15 37
M 49.65 38.5
Q 49.75 38.4 49.95 38.35 50.95 38.75 50.65 40.05 50.5 40.75 49.85 41.1 49.05 41.55 48.25 42.05
L 47.45 40.65
Q 48.05 40.65 48.7 40.75 49.2 40.85 49.7 40.6 49.95 40.55 50.2 40.4 50.2 40.3 50.2 40.25 50.05 39.95 49.85 39.85 49.25 39.55 48.65 39.35 48.75 39.25 48.9 39.15 49.25 38.8 49.65 38.5
M 45.85 40.1
Q 46 40.1 46.1 40.2 46.25 40.3 46.25 40.4 46.25 40.5 46.1 40.6 46 40.7 45.85 40.7 45.7 40.7 45.55 40.6 45.45 40.5 45.45 40.4 45.45 40.3 45.55 40.2 45.7 40.1 45.85 40.1
M 47.35 42.8
Q 47.5 42.95 47.5 43.15 47.5 43.35 47.35 43.45 47.25 43.6 47.1 43.6 46.95 43.6 46.8 43.45 46.7 43.35 46.7 43.15 46.7 42.95 46.8 42.8 46.95 42.7 47.1 42.7 47.25 42.7 47.35 42.8
M 49.15 42.85
Q 49.25 42.95 49.25 43.05 49.25 43.15 49.15 43.2 49.05 43.3 48.95 43.3 48.85 43.3 48.75 43.2 48.65 43.15 48.65 43.05 48.65 42.95 48.75 42.85 48.85 42.8 48.95 42.8 49.05 42.8 49.15 42.85
M 43.45 40.05
Q 43.65 38.05 45.4 37.85 45.65 37.95 45.9 38.1 46.5 39.3 45.2 39.85 44.75 40.1 44.3 40.3 43.85 40.15 43.45 40.05
M 42.5 37.45
Q 42.5 37.6 42.35 37.7 42.25 37.8 42.1 37.8 41.95 37.8 41.8 37.7 41.7 37.6 41.7 37.45 41.7 37.3 41.8 37.2 41.95 37.1 42.1 37.1 42.25 37.1 42.35 37.2 42.5 37.3 42.5 37.45
M 42.55 40.75
Q 42.7 40.75 42.85 40.75 43.35 41.4 42.35 41.65 42.15 41.55 42 41.5 41.7 40.8 42.55 40.75
M 41.05 40.85
L 40.6 40.75
Q 40.35 40.45 40.25 40.15 39.9 39.4 39.95 38.55
L 41.25 37.85 40.35 38.9
Q 40.4 39.45 40.6 40 40.75 40.45 41.05 40.85
M 45.25 45.7
Q 44.75 45.95 45.25 45.35
L 45.8 45.25
Q 46 45.75 45.25 45.7
M 41.5 45.9
L 41.8 45.25
Q 42.15 45.3 42.5 45.4 43.35 45.75 42.75 46.45 42.7 46.55 42.6 46.6 42.35 47.85 41 48.4 40.8 48.45 40.6 48.5 40.1 48.4 39.6 48.35 39.1 48.15 38.7 47.6 38.7 47.5 38.75 47.4 38.8 47.25 38.9 47.25 39.15 47.25 39.45 47.4 39.6 47.4 39.8 47.4 39.9 47.3 40.05 47.2 40.15 47.05 40.15 46.9 40.15 46.4 40.05 45.9 40.75 45.9 41.5 45.9
M 44.75 49.15
L 45.2 49.05
Q 45.65 49.05 45.5 49.55 45.1 50.9 43.6 50.9 41.3 51.05 38.75 50.65 36.95 50.5 35.35 50.35 35.15 50.2 34.95 50.05
L 43.1 49.45 44.15 47.45 44.6 47.25
Q 43.9 48 43.9 48.65
L 44.75 49.15
M 48.55 44.25
L 48.15 44.85 47.8 44.25 48.55 44.25
M 46.45 46.65
Q 46.9 47.15 46.25 47.4 46 47.5 45.8 47.65
L 45.65 47.7
Q 45.5 47.35 45.45 46.95
L 46.45 46.65
M 48.85 48.25
L 48.95 49.45 47.75 47.25 48.85 48.25
M 43.05 43.45
Q 44.25 42.8 45.45 42.15
L 45.95 43.35 43.05 43.45
M 60.4 39.9
Q 60.3 39.55 60.5 39.25 60.65 38.9 61 38.75 61.3 39.65 60.55 39.95 60.45 39.9 60.4 39.9
M 56.75 39.05
Q 56.75 39.5 56.35 39.8 55.95 40.15 55.35 40.15 54.75 40.15 54.35 39.8 53.95 39.5 53.95 39.05 53.95 38.6 54.35 38.25 54.75 37.95 55.35 37.95 55.95 37.95 56.35 38.25 56.75 38.6 56.75 39.05
M 60.55 41.55
Q 60.55 41.65 60.45 41.75 60.35 41.85 60.2 41.85 60.05 41.85 59.95 41.75 59.85 41.65 59.85 41.55 59.85 41.45 59.95 41.35 60.05 41.25 60.2 41.25 60.35 41.25 60.45 41.35 60.55 41.45 60.55 41.55
M 58.7 41.6
Q 58.7 41.7 58.65 41.8 57.8 41.6 58.05 40.45 59 40.7 58.7 41.6
M 52.55 40.5
Q 52.75 40.4 53 40.4 53.25 40.4 53.45 40.5 53.65 40.65 53.65 40.85 53.65 41.05 53.45 41.15 53.25 41.3 53 41.3 52.75 41.3 52.55 41.15 52.35 41.05 52.35 40.85 52.35 40.65 52.55 40.5
M 51.35 43.25
L 50.9 42.8 50.75 42.2
Q 51.6 42.6 52 43.25 52.1 43.45 52.15 43.7
L 51.35 43.25
M 54.7 43
Q 54.85 43 54.95 43.1 55.05 43.25 55.05 43.4 55.05 43.55 54.95 43.65 54.85 43.8 54.7 43.8 54.55 43.8 54.45 43.65 54.35 43.55 54.35 43.4 54.35 43.25 54.45 43.1 54.55 43 54.7 43
M 54.15 45.35
Q 54.3 45.85 53.9 46.25 53.7 46.4 53.55 46.55
L 53.6 45.95 54.15 45.35
M 51.3 47.7
Q 51.1 47.75 50.95 47.8
L 50.4 47.1
Q 50.9 45.75 52.4 46.05 52.3 47.2 51.3 47.7
M 54.1 48.35
Q 54.05 47.35 55 49 54.65 49.4 54.35 48.8 54.2 48.55 54.1 48.35
M 60.55 44.25
Q 60.55 44.6 60.2 44.85 59.9 45.15 59.4 45.15 58.9 45.15 58.55 44.85 58.25 44.6 58.25 44.25 58.25 43.9 58.55 43.6 58.9 43.35 59.4 43.35 59.9 43.35 60.2 43.6 60.55 43.9 60.55 44.25
M 57.1 48.8
L 57.45 49.15
Q 58.3 49.25 59.2 49 60.7 48.8 61.75 49.75 60.2 50.15 58.95 50.05 57.45 50 56.7 51.25
L 56.65 51.8
Q 56.9 52.65 57.75 52.8 58.8 53.1 59.8 53.6 60.15 53.75 60.45 54.15 60.3 54.95 59.45 54.95 58.2 55.05 57.45 54.1 56.55 53.05 55.35 53.25 54.4 53.6 53.35 53.6 53.05 53.3 53.75 52.45 54.65 51.35 55.95 51.15 56.35 50.45 56.15 49.8 55.3 47.3 57.1 45.6
L 60.05 47.55 57.65 47.4
Q 57.35 47.85 57.15 48.35 57.05 48.55 57.1 48.8
M 71.25 29.15
Q 71.4 29.35 71.4 29.6 71.4 29.85 71.25 30 71.1 30.2 70.9 30.2 70.7 30.2 70.55 30 70.4 29.85 70.4 29.6 70.4 29.35 70.55 29.15 70.7 29 70.9 29 71.1 29 71.25 29.15
M 71.55 30.95
Q 71.55 31.2 71.3 31.35 71.1 31.55 70.8 31.55 70.5 31.55 70.25 31.35 70.05 31.2 70.05 30.95 70.05 30.7 70.25 30.5 70.5 30.35 70.8 30.35 71.1 30.35 71.3 30.5 71.55 30.7 71.55 30.95
M 72.35 35.9
Q 72.5 36.05 72.5 36.25 72.5 36.45 72.35 36.55 72.25 36.7 72.1 36.7 71.95 36.7 71.8 36.55 71.7 36.45 71.7 36.25 71.7 36.05 71.8 35.9 71.95 35.8 72.1 35.8 72.25 35.8 72.35 35.9
M 74.25 36.7
Q 74.65 36.7 74.9 36.9 75.2 37.15 75.2 37.45 75.2 37.75 74.9 37.95 74.65 38.2 74.25 38.2 73.85 38.2 73.55 37.95 73.3 37.75 73.3 37.45 73.3 37.15 73.55 36.9 73.85 36.7 74.25 36.7
M 68.3 29.5
Q 68.2 29.45 68.1 29.4
L 65.9 29.45
Q 66.3 27.45 68.1 27.45 69.2 28.05 69 29.55 68.65 29.9 68.3 29.5
M 64.75 29.1
Q 64.85 29.2 64.85 29.3 64.85 29.4 64.75 29.5 64.7 29.6 64.6 29.6 64.5 29.6 64.4 29.5 64.35 29.4 64.35 29.3 64.35 29.2 64.4 29.1 64.5 29 64.6 29 64.7 29 64.75 29.1
M 65.1 36.75
L 63.85 35
Q 64.7 35.1 65.3 35.55 65.65 35.75 65.85 36.1 65.9 36.3 65.9 36.55 65.65 36.7 65.35 36.7 65.25 36.8 65.1 36.75
M 63 36.75
Q 63.25 36.75 63.4 36.9 63.55 37.05 63.55 37.3 63.55 37.55 63.4 37.7 63.25 37.85 63 37.85 62.75 37.85 62.6 37.7 62.45 37.55 62.45 37.3 62.45 37.05 62.6 36.9 62.75 36.75 63 36.75
M 60.9 36.55
Q 60.95 36.6 61.05 36.65 61.35 37.3 60.75 36.85 60.5 36.65 60.9 36.55
M 65.4 31
Q 65.3 31.55 65.1 31.05 65 30.8 65 30.55 65.5 30.5 65.4 31
M 68.75 33.6
Q 68.75 33.25 68.65 32.95 70 34 70.5 35.75 70.45 36.6 69.45 36.35 68.3 36.75 67.3 37.4 66.9 37.2 67.45 36.45 68.1 35.7 68.5 34.85 68.8 34.25 68.75 33.6
M 68.5 30.95
L 68.5 31.45 68.05 32.15 67.45 32.05 68.5 30.95
M 68.65 39
Q 68.55 39.15 68.4 39.15 68.25 39.15 68.15 39 68.05 38.9 68.05 38.75 68.05 38.6 68.15 38.45 68.25 38.35 68.4 38.35 68.55 38.35 68.65 38.45 68.75 38.6 68.75 38.75 68.75 38.9 68.65 39
M 67.45 40.8
Q 67.25 41.7 66.45 41.95 65.95 42.2 65.5 42.6 64.2 43.55 62.75 42.95 61.9 42.55 61.35 41.7
L 61.5 41.7
Q 63.45 42.1 65.05 41 65.3 40.85 65.55 40.65 66.1 40.5 66.7 40.4 67.2 40.45 67.45 40.8
M 68.5 42.85
L 68.5 43.3 67.85 44.05 67.45 43.85 68.5 42.85
M 65 39.55
L 65 39.15 65.45 39.15 65.45 39.55 65 39.55
M 63.85 39.1
Q 63.65 39.5 63.35 39.9 63.25 40 63.05 40.05 62.75 39.8 62.85 39.55 63.2 38.75 63.75 38.65
L 63.85 39.1
M 65.8 45.7
Q 65.35 45.85 64.85 45.75 65.35 45.5 65.85 45.3 66.3 45.3 66.75 45.35 66.3 45.65 65.8 45.7
M 61.55 44.45
L 61.4 43.85 63.3 46.75 61 46.85
Q 60.9 46.7 60.85 46.6 60.8 46.45 60.8 46.3 60.9 45.25 61.55 44.45
M 63.1 48.6
Q 63.1 48.4 63.25 48.25 63.45 48.1 63.7 48.1 63.95 48.1 64.1 48.25 64.3 48.4 64.3 48.6 64.3 48.8 64.1 48.95 63.95 49.1 63.7 49.1 63.45 49.1 63.25 48.95 63.1 48.8 63.1 48.6
M 68.3 47.35
Q 68.85 47.55 69.45 47.55 70.25 47.3 71.05 47.1
L 71.15 47.6
Q 70.9 48 70.6 48.25 70.15 48.65 69.6 48.9 68.2 49.25 67.1 50.2 65.45 51.55 63.85 50.7 64.85 50.45 65.55 49.65 65.8 49.3 65.9 48.85 66 48.35 66.15 47.9 67.1 47.2 68.3 47.35
M 65.75 38.15
Q 65.65 37.8 66.05 37.95 65.95 38.75 65.75 38.15
M 76.5 39.25
L 76.7 39.65
Q 76.35 40.35 75.6 40.15 75.5 40.05 75.45 40
L 75.6 39.35 76.5 39.25
M 71.75 37.15
Q 71.85 37.3 71.85 37.45 71.85 37.6 71.75 37.7 71.65 37.85 71.5 37.85 71.35 37.85 71.25 37.7 71.15 37.6 71.15 37.45 71.15 37.3 71.25 37.15 71.35 37.05 71.5 37.05 71.65 37.05 71.75 37.15
M 73.95 40.4
Q 73.65 40.35 74 40.25 74.45 40.6 73.95 40.4
M 73.55 43.05
Q 73.7 42.7 73.7 42.35
L 72.85 42.1 71.1 43.45
Q 71.75 42.55 72.55 42.15 74.25 41.35 75.9 41.85
L 75.4 43.75
Q 74.65 45 73.55 46.15 73.45 46.2 73.3 46.2 72.5 45.75 72.85 44.65 73.15 43.85 73.55 43.05
M 72.25 39.85
Q 72.6 40.25 71.95 40.65 71 41.25 69.95 40.85
L 72.25 39.85
M 72.4 47.15
Q 72.3 47.3 72.15 47.3 72 47.3 71.9 47.15 71.8 47.05 71.8 46.9 71.8 46.75 71.9 46.6 72 46.5 72.15 46.5 72.3 46.5 72.4 46.6 72.5 46.75 72.5 46.9 72.5 47.05 72.4 47.15
M 72.75 48.55
L 73.35 48.5 74.05 49.05
Q 75.4 48.45 76.6 49 77.15 49.35 77.45 49.8 77.85 50.3 78.15 50.8
L 78 50.85 79.55 52
Q 78.45 52.55 77.4 51.5 77.2 51.35 77.05 51.15 76.7 50.75 76.35 50.4 76.15 50.2 75.95 50.05 75.75 50.05 75.6 50.05 75.2 50.2 74.85 50.35 74.95 50.65 75.15 50.85 75.3 51 75.55 51.05 75.7 51.15 75.9 51.25
L 76.25 52 75.4 52
Q 75.9 53.15 76.85 54.2 77.8 55.15 78.15 56.5 76.45 55.25 74.45 55.45 75.35 55.85 76.05 56.85 76.75 57.95 75.8 59.15 75.75 57.9 74.8 57.1 74.65 57.05 74.5 57.05 74.3 57.05 74.1 57.1 73.9 57.25 73.75 57.45 73.8 58 73.95 58.55 74 58.8 74.15 59.05
L 71.4 59.25
Q 71.9 60.1 72.55 60.75 72.85 61 72.75 61.5 72.45 62.1 71.55 61.75 71.1 61.7 70.7 61.5 70.25 61 70.35 60.3 70.55 59.05 70.95 57.85
L 67.9 58 70 58
Q 69.35 58.75 68.55 58.55 67.6 58.2 67.2 57.5
L 67.35 56.35
Q 66.55 56.5 65.95 57.1 64.6 58.4 63.1 59.5 63.7 57.4 65.05 55.85 66.4 55.4 67.7 55 68.1 54.8 68.45 54.4 69.1 53.65 69.65 52.9 68.95 54.4 70.2 55.45 71.4 56.5 72.85 56.05 72 55.35 71.55 54.3 71.45 54.05 71.45 53.85
L 71.8 53.1
Q 72.1 52.95 72.4 52.8 72.55 52.8 72.75 52.85 72.8 52.95 72.85 53.1 72.95 53.25 72.9 53.45 72.85 53.6 72.75 53.75
L 72.4 54.1
Q 72.55 54.2 72.75 54.35 73.4 54.3 74.05 54.3
L 74.85 53.75
Q 73.55 52.35 71.65 52 70.75 51.8 70.1 52.35 71.8 50.85 74.15 50.6
L 74.45 50 74.9 50 74.05 49.05 73.15 49.85 72.5 49.35 72.75 48.55
M 80 44.4
Q 80 44.55 79.9 44.65 79.8 44.8 79.65 44.8 79.5 44.8 79.4 44.65 79.3 44.55 79.3 44.4 79.3 44.25 79.4 44.1 79.5 44 79.65 44 79.8 44 79.9 44.1 80 44.25 80 44.4
M 77.95 47.65
Q 78.1 47.65 78.15 47.6 78.7 47.25 79.2 46.9 79.35 46.8 79.6 46.8
L 80 47.05 80.15 48.5 81.15 47.45 80.95 48.15 80.1 49.85
Q 79.05 49.3 78 48.6 77.1 48 76.35 47.2 76 46.75 75.75 46.3 77.3 46.45 77.95 47.65
M 30.2 22.6
Q 30.2 22.45 30.3 22.35 30.45 22.25 30.65 22.25 30.85 22.25 30.95 22.35 31.1 22.45 31.1 22.6 31.1 22.75 30.95 22.85 30.85 22.95 30.65 22.95 30.45 22.95 30.3 22.85 30.2 22.75 30.2 22.6
M 29.35 22.55
Q 29.6 22.7 29.2 22.7 28.6 22.2 29.35 22.55
M 37.05 17.25
L 36.95 17.85 37.75 19.65
Q 36.75 18.35 35.5 17.45 34.7 16.95 33.75 16.95 34.35 16.65 34.95 16.4 36.3 16.15 37.05 17.25
M 31.2 18.15
Q 31.35 18.3 31.35 18.45 31.35 18.6 31.2 18.7 31.1 18.85 30.9 18.85 30.7 18.85 30.55 18.7 30.45 18.6 30.45 18.45 30.45 18.3 30.55 18.15 30.7 18.05 30.9 18.05 31.1 18.05 31.2 18.15
M 34.35 18.4
Q 34.55 18.4 34.65 18.5 34.8 18.65 34.8 18.8 34.8 18.95 34.65 19.05 34.55 19.2 34.35 19.2 34.15 19.2 34 19.05 33.9 18.95 33.9 18.8 33.9 18.65 34 18.5 34.15 18.4 34.35 18.4
M 32.8 19.35
Q 32.55 18.95 32.85 19.15 33.05 19.8 32.8 19.35
M 31.1 20.2
Q 31.25 20.3 31.25 20.4 31.25 20.5 31.1 20.6 31 20.7 30.85 20.7 30.7 20.7 30.55 20.6 30.45 20.5 30.45 20.4 30.45 20.3 30.55 20.2 30.7 20.1 30.85 20.1 31 20.1 31.1 20.2
M 34.4 24.7
L 34.85 24.7 34.85 25.3 34.4 25.3 34.4 24.7
M 39.15 24.55
Q 39.3 24.55 39.4 24.7 39.5 24.85 39.5 25.1 39.5 25.35 39.4 25.5 39.3 25.65 39.15 25.65 39 25.65 38.9 25.5 38.8 25.35 38.8 25.1 38.8 24.85 38.9 24.7 39 24.55 39.15 24.55
M 37.95 23.55
L 37.7 24 37.45 23.55 37.95 23.55
M 19.3 36.55
Q 19.3 36.75 19.15 36.9 19.05 37.05 18.85 37.05 18.65 37.05 18.5 36.9 18.4 36.75 18.4 36.55 18.4 36.35 18.5 36.2 18.65 36.05 18.85 36.05 19.05 36.05 19.15 36.2 19.3 36.35 19.3 36.55
M 38.1 26.15
Q 38.15 26.25 38.15 26.45 37.7 27.3 36.55 27.2 36.4 27.25 36.25 27.35 35.85 28 36.2 28.5 36.65 29 35.6 29.2 34.35 29.45 33.25 30.05 32.15 30.6 31.25 30 30.5 29.5 29.85 28.9
L 31.1 28.7
Q 31.95 29.3 32.9 29.35 33.25 29.55 33.6 29.35 33.7 29.35 33.8 29.25
L 33.8 27.25 34.1 26.9 35.8 26.6 36.5 25.7 37.65 25.65
Q 37.9 25.85 38.1 26.15
M 39.15 30.25
Q 39.25 30.3 39.25 30.4 39.25 30.5 39.15 30.55 39.05 30.6 38.95 30.6 38.85 30.6 38.75 30.55 38.65 30.5 38.65 30.4 38.65 30.3 38.75 30.25 38.85 30.2 38.95 30.2 39.05 30.2 39.15 30.25
M 31.45 26.55
Q 30.85 26.4 30.95 25.9 31.75 24.65 32.95 25.15 33.4 25.85 32.55 26.2 32.15 26.35 31.75 26.55 31.6 26.55 31.45 26.55
M 33.3 32.2
Q 33.3 31.95 33.4 31.8 33.55 31.65 33.75 31.65 33.95 31.65 34.05 31.8 34.2 31.95 34.2 32.2 34.2 32.45 34.05 32.6 33.95 32.75 33.75 32.75 33.55 32.75 33.4 32.6 33.3 32.45 33.3 32.2
M 31.45 31.7
Q 31.6 31.8 31.6 31.9 31.6 32 31.45 32.1 31.35 32.2 31.15 32.2 30.95 32.2 30.8 32.1 30.7 32 30.7 31.9 30.7 31.8 30.8 31.7 30.95 31.6 31.15 31.6 31.35 31.6 31.45 31.7
M 31.5 36.7
Q 31.5 36.65 31.65 36.65 31.6 37.45 31.5 36.7
M 39.95 37.05
L 39.95 36.55 40.3 36.55 40.3 37.05 39.95 37.05
M 27.95 29.7
Q 28.45 30.05 28.35 30.6 28.3 30.8 28.2 30.95 27.95 31.1 27.7 31.25 27.55 31.2 27.4 31.15
L 26.2 29.75 27.95 29.7
M 24.95 36.7
Q 25.05 36.65 25.15 36.65 25.25 36.65 25.35 36.7 25.45 36.75 25.45 36.85 25.45 36.95 25.35 37 25.25 37.05 25.15 37.05 25.05 37.05 24.95 37 24.85 36.95 24.85 36.85 24.85 36.75 24.95 36.7
M 29.4 38.35
L 29.4 37.85 29.9 37.85 29.9 38.35 29.4 38.35
M 21.95 40.85
Q 22.1 40.55 22.35 40.35
L 22.1 41 21.95 40.85
M 36.5 38.45
Q 36.4 39.85 37.2 40.75
L 37.55 41.45 38.4 41.85 36.6 43.95
Q 35.8 42.8 35.75 41.2 35.75 39.65 36.5 38.45
M 34 45.1
Q 34.15 45.2 34.15 45.35 34.15 45.5 34 45.6 33.85 45.7 33.65 45.7 33.45 45.7 33.3 45.6 33.15 45.5 33.15 45.35 33.15 45.2 33.3 45.1 33.45 45 33.65 45 33.85 45 34 45.1
M 35.2 48.15
L 35.35 47.65 35.95 47.65
Q 36.3 47.95 36.6 48.3 36.7 48.45 36.7 48.65
L 35.95 49 35.2 48.15
M 37.2 45.95
Q 36.45 46.75 35.45 46.7
L 35.15 45.7
Q 36.45 44.35 37.9 43.4 38.65 43 39.3 42.4 40 41.75 40.75 42.45 40.55 44.05 39.1 44.65 37.95 45.1 37.2 45.95
M 32.1 56.85
Q 32.35 56.7 32.65 56.55 34.15 57.7 35.2 59.15 35.3 59.35 35.35 59.55
L 34.9 60.5
Q 33.25 61.05 31.75 61.15 30.05 61.15 30.3 59.3 30.4 58.4 31.05 57.65 31.5 57.2 32.1 56.85
M 39.85 58.2
Q 40 58.35 40.05 58.55 39.6 59.2 38.75 59.05 38.35 59.1 37.95 59.2 37.15 59.35 36.35 59.55 37.5 58.75 38.85 58.1 39.5 57.8 39.85 58.2
M 33.85 61.75
Q 34.8 61.3 35.95 61.05 35.4 61.85 34.3 62.15 34.15 62.05 34.05 62
L 33.85 61.75
M 29.5 53.75
Q 29.35 53.35 29.85 53.55 29.8 54.45 29.5 53.75
M 28.75 58.9
Q 28.65 59 28.6 59.2 28.55 60.05 29.5 60.85 29.8 61.05 29.85 61.5 29.9 61.95 29.8 62.45
L 29.4 62.75 29.9 63.45
Q 30.45 62.9 31.15 62.3 31.3 62.2 31.55 62.2
L 31.95 62.45
Q 32.25 62.8 32 63.3 31.8 63.65 31.6 64.05
L 27.8 63.85
Q 28.4 63 28.25 61.9 28.1 60.8 27 60.55 27.85 57.95 30.2 56.75 29.65 57.85 28.75 58.9
M 27.25 62.2
Q 27.35 62.3 27.35 62.4 27.35 62.5 27.25 62.6 27.2 62.7 27.1 62.7 27 62.7 26.9 62.6 26.85 62.5 26.85 62.4 26.85 62.3 26.9 62.2 27 62.1 27.1 62.1 27.2 62.1 27.25 62.2
M 26.05 66.6
Q 26.15 66.8 26.25 67.1 25.9 68.4 24.4 68.2 24.15 68.1 23.95 68
L 23.7 67.5 24.5 65.7
Q 25.6 65.55 26.05 66.6
M 24.05 64.05
L 24.05 63.45 24.45 63.45 24.45 64.05 24.05 64.05
M 29.75 70.35
Q 29.45 70.2 29.15 70.05 29.8 69.55 30.55 69.35 30.95 69.35 31.15 69.65 30.9 70.7 29.75 70.35
M 39.95 62.15
L 39.45 62.2
Q 38.5 63.6 36.95 64.5 36.3 64.85 35.5 65.05 34.8 65.35 34.7 66.05 34.8 66.35 35.25 66.5 35.65 66.5 36.05 66.55 36.25 66.6 36.5 66.65 37.1 66.9 37.35 67.7 37.4 67.9 37.45 68.15
L 31.85 68.95
Q 33.95 68.4 33.6 66.5 33.5 65.9 33.45 65.35 34.35 63.65 36.35 63.15 36.9 62.9 37.4 62.5 39.95 60.45 43 58.85 43.4 58.6 43.75 58.2 44.2 57.65 45.15 57.55 43.35 60.85 39.95 62.15
M 39.9 66.05
L 39.5 65.85 39.15 64.7
Q 39.65 64.8 40.1 65 40.65 65.3 41.2 65.75 42.25 67.35 43.95 68.25 44.2 68.45 44.5 68.55
L 43.7 69.85 47.75 69.7
Q 47.85 69.85 47.9 70.05 47.9 70.2 47.85 70.35 47.8 70.5 47.75 70.65 46.15 72.2 43.9 71.65 42.35 71.45 41.75 70.05 41.3 68.9 40.7 68.1 40.4 67.8 40.1 67.55
L 41.2 65.75 39.9 66.05
M 31.75 64.65
Q 32 64.65 32.15 64.85 32.35 65.05 32.35 65.3 32.35 65.55 32.15 65.75 32 65.95 31.75 65.95 31.5 65.95 31.3 65.75 31.15 65.55 31.15 65.3 31.15 65.05 31.3 64.85 31.5 64.65 31.75 64.65
M 33.8 73.3
L 33.15 72.45 35.45 73.35 34.5 73.55 33.8 73.3
M 34.15 70.35
L 33.9 70.8 33.65 70.35 34.15 70.35
M 35.25 70.05
Q 35 69.7 35.35 69.85 35.5 70.45 35.25 70.05
M 36.45 71.95
Q 36.1 71.7 36.65 71.55 36.85 72.15 36.45 71.95
M 38.2 69.9
Q 39.3 69.45 40.3 70.1 40.7 70.25 40.5 70.7 40.5068359375 71.2271484375 40.65 71.8 40.7 71.9 40.65 72.05 40.05 72.55 39.3 72.1 38.6 71.8 37.95 71.45 37.75 71.3 37.65 71.1
L 37.65 70.55 38.2 69.9
M 39.9 76.9
Q 39.75 77 39.65 77.1 39.6 76.85 39.65 76.65 39.7 76.3 39.85 75.95
L 39.4 75.15
Q 38.3 75.1 37.65 76.05
L 37.95 73.25 40.75 74.55
Q 40.8 75.95 39.9 76.9
M 36.85 76.65
Q 37.2 77.1 36.7 77.2 36.3 77.45 35.9 77.55 35.65 76.65 36.85 76.65
M 37.75 78.45
Q 37.75 78.2 37.9 78 38.1 77.85 38.35 77.85 38.6 77.85 38.75 78 38.95 78.2 38.95 78.45 38.95 78.7 38.75 78.85 38.6 79.05 38.35 79.05 38.1 79.05 37.9 78.85 37.75 78.7 37.75 78.45
M 39.55 80.85
Q 39.65 80.15 39.9 79.55 40.15 78.95 40.55 78.45
L 40.45 79.65 39.55 80.85
M 80.2 53.9
Q 80.35 53.75 80.5 53.75 80.65 53.75 80.75 53.9 80.9 54.05 80.9 54.25 80.9 54.45 80.75 54.6 80.65 54.75 80.5 54.75 80.35 54.75 80.2 54.6 80.1 54.45 80.1 54.25 80.1 54.05 80.2 53.9
M 78.4 61.75
Q 78.25 61.55 78 61.45
L 78.55 61.5 78.85 62.55
Q 78.6740234375 62.0849609375 78.4 61.75
M 79 59.95
Q 79 59.9 79.05 59.85 79.4 60.35 78.75 60.05 78.4 60 79 59.95
M 76.15 60.35
L 75.75 61.55 76.55 62.5
Q 76.15 63.4 75.35 62.7
L 75.05 61.85
Q 75.35 60.95 76.15 60.35
M 70.1 51.05
L 69 50.55
Q 70.2 50.4 71.45 50.3
L 70.55 50.9 70.1 51.05
M 62.35 51.85
Q 62.95 51.95 62.15 52.3 61.55 52.55 60.85 52.6 60 52.6 59.65 51.85 60.75 51.65 61.75 51.9 62.05 51.85 62.35 51.85
M 62.65 55.15
Q 62.35 55.6 61.9 55.55 61.7 55.45 62.05 55.2
L 63.1 54.8 62.65 55.15
M 64.65 53.7
Q 64.55 53.35 64.85 53.55 64.8 54.45 64.65 53.7
M 62.5 57.5
Q 62.5 57.65 62.35 57.75 62.25 57.85 62.1 57.85 61.95 57.85 61.8 57.75 61.7 57.65 61.7 57.5 61.7 57.35 61.8 57.25 61.95 57.15 62.1 57.15 62.25 57.15 62.35 57.25 62.5 57.35 62.5 57.5
M 61.45 59.7
Q 61.3 59.65 61.55 59.35 61.85 60.05 61.45 59.7
M 64.9 59.35
Q 65.05 59.5 65.05 59.7 65.05 59.7857421875 65 59.85 65.1392578125 59.7775390625 65.25 59.7 65.95 59.15 66.7 58.65
L 66.4 60.15
Q 67.45 60.3 68.5 60.45 68 61.65 66.45 61.55 65.65 61.5 64.8 61.7 64.65 61.75 64.55 61.85
L 64.4 62.55
Q 64.7 62.85 65 63.25 65.15 63.5 65.3 63.8
L 64.05 63.75 63.4 63.05
Q 63 61.55 64.25 60.45 64.44296875 60.295703125 64.6 60.15
L 64.6 60.15
Q 64.4 60.15 64.25 60 64.15 59.9 64.15 59.7 64.15 59.5 64.25 59.35 64.4 59.25 64.6 59.25 64.8 59.25 64.9 59.35
M 67.2 67.45
Q 67.2 66.8 67.3 66.2 67.35 66.05 67.55 65.9 67.65 65.9 67.8 65.95 67.9 66 68 66.1 68.1 66.35 68.2 66.6 68.2 68.35 66.65 68.75 66.1 68.85 65.6 68.95 64.5 69.75 64.7 71.35 65 73.55 66.35 75.45 64.3 74.1 62.75 72.3 61.9 71.4 60.65 71.8 59.15 72.2 58.05 73.7
L 58.75 73.9 59 74.9
Q 58.9 75.65 58.05 75.95 57.55 76.1 57.05 76.1
L 56.7 75.7
Q 56.65 75.05 57 74.3 57.15 74 57.1 73.7 57.1 73.5 57.05 73.35 56.9 73.25 56.8 73.15 56.55 73.15 56.35 73.15
L 53.6 73.25 54.05 72.25 56.15 72.15
Q 55.4 71.05 55.3 69.85 55.3 69.65 55.35 69.5 55.45 69.75 55.5 70.05 55.65 70.95 56.35 71.6 56.65 71.85 57.05 71.7 57.15 71.45 57.15 71.2 57.15 70.8 57 70.45 56.9 70.1 56.8 69.85
L 57.25 69.3 58.75 69.95 60 69.35
Q 58.6 68.7 57.1 68.4 55.5 68.05 54.8 66.65
L 55.7 66.65
Q 57.5 66.8 59 67.75 60.35 68.55 61.45 67.25 62.2 66.3 62.7 65.55 62.1 65.85 61.25 66.3 60.95 66.55 60.6 66.65
L 59.95 66.15
Q 59.7 65.25 60.45 64.65 61.75 63.85 63.35 64.2 64.35 64.5 65.5 64.7 66.5 64.65 67.3 64.1 68.15 63.4 69.05 62.75 70.2 62 71.1 62.85 71.5 63.15 71.8 63.6 71.95 63.85 72.1 64.15 69.85 64.25 67.65 64.8 67.2 64.9 66.85 65.25 65.65 66.25 63.9 66.4 63.6 66.6 63.25 66.85 62.35 67.6 61.5 68.5 61.1 68.95 61.2 69.45 62 70.25 63.1 69.6 63.4 69.4 63.7 68.95 64 68.55 64.3 68.2
L 67.15 68.1
Q 67.2 67.75 67.2 67.45
M 69.7 65.35
Q 69.85 65.5 69.85 65.65 69.85 65.8 69.7 65.9 69.55 66.05 69.3 66.05 69.05 66.05 68.9 65.9 68.75 65.8 68.75 65.65 68.75 65.5 68.9 65.35 69.05 65.25 69.3 65.25 69.55 65.25 69.7 65.35
M 61.95 62.25
Q 62.1 62.3 62.25 62.35 62.35 62.5 62.35 62.7 62.3 62.9 62.2 63.1 62.05 63.25 61.9 63.4 61.7 63.3 61.5 63.2
L 61.6 62.5
Q 61.75 62.35 61.95 62.25
M 62.25 73.45
L 62 74.15
Q 62.2 75.05 63.05 75.4 64.35 75.6 65.35 76.35 65.35 76.55 65.3 76.75 65.25 76.95 65.1 77.15 65.05 77.2 65.05 77.25 64.95 77.3 64.9 77.35 64.6 77.55 64.35 77.75
L 64.65 76.55
Q 62.2 77.05 60.9 75.05 60.7 74.7 60.6 74.3 60.6 74.1 60.7 74 61 73.75 61.4 73.55 61.8 73.5 62.25 73.45
M 69.7 73.85
L 69.75 73.8
Q 70.5 73.85 70.45 74.75 70.45 74.9 70.4 75 70.4 75.05 70.35 75.05 69.85 74.5 69.7 73.85
M 69.1 71.65
Q 70.05 71.85 70.5 72.7 70.4 73.4 69.7 73.35 69.05 73.3 68.6 72.9 68.2 71.95 69.1 71.65
M 74.25 64.15
Q 74.35 64.3 74.35 64.45 74.35 64.6 74.25 64.7 74.15 64.85 74 64.85 73.85 64.85 73.75 64.7 73.65 64.6 73.65 64.45 73.65 64.3 73.75 64.15 73.85 64.05 74 64.05 74.15 64.05 74.25 64.15
M 72.8 67.5
Q 73 67.35 73.2 67.25 73.35 67.3 73.5 67.35 73.55 67.5 73.55 67.7 73.5 67.9 73.4 68.1 73.25 68.25 73.1 68.4 72.9 68.3 72.7 68.2
L 72.8 67.5
M 71.45 67.45
Q 71.1 67.3 71.5 67.15 71.9 67.65 71.45 67.45
M 75.05 65.8
Q 75 65.7 75.05 65.55 75.8 64.65 76.1 64.95
L 75.7 65.8
Q 75.35 66.5 75.05 65.8
M 52.95 51.3
Q 52.55 51.65 52.1 52 51.4 52.45 50.4 52.4 49.45 52.2 48.85 51.7 50.9 51.05 52.95 51.3
M 53.3 54.45
Q 54.4 53.7 55.5 54.3 56.65 54.85 57.5 55.7 57.4 56.25 56.95 56.65 56.7 56.8 56.5 56.95 55.3 55.1 53.3 54.45
M 55.5 58.3
Q 55.4 58.2 55.4 58.05 55.4 57.9 55.5 57.8 55.65 57.7 55.8 57.7 55.95 57.7 56.05 57.8 56.2 57.9 56.2 58.05 56.2 58.2 56.05 58.3 55.95 58.4 55.8 58.4 55.65 58.4 55.5 58.3
M 52.05 59.3
Q 52.25 59.5 52.25 59.75 52.25 60 52.05 60.15 51.9 60.35 51.65 60.35 51.4 60.35 51.2 60.15 51.05 60 51.05 59.75 51.05 59.5 51.2 59.3 51.4 59.15 51.65 59.15 51.9 59.15 52.05 59.3
M 53.3 59.05
L 54.5 59.7
Q 54.45 61.95 56 63.4 56.2 63.65 56.4 63.95
L 56.4 64.45
Q 53.1 62.7 53.3 59.05
M 53.85 57.75
Q 53 58.9 51.75 59.05 49.6 59.4 47.65 60.2 46.65 60.5 45.85 59.85 45.65 59.65 45.5 59.45 46.95 59.45 47.95 58.5 49 57.6 48.75 56.15 45.75 57 43.45 55 43.25 54.85 43.2 54.6
L 43.4 54.15
Q 45.6 53.2 47.05 55.15 48.9 54.6 50.1 55.9 50.7 56.65 50.15 57.55
L 53.85 57.75
M 58.65 58
Q 59 56.95 60 57.35 60.45 57.7 59.9 58.15 59.75 58.25 59.65 58.4 58.85 58.75 58.65 58
M 57.95 57.65
Q 58.05 57.75 58.05 57.85 58.05 57.95 57.95 58 57.85 58.1 57.75 58.1 57.65 58.1 57.55 58 57.45 57.95 57.45 57.85 57.45 57.75 57.55 57.65 57.65 57.6 57.75 57.6 57.85 57.6 57.95 57.65
M 57.35 61.1
Q 57.5 61.25 57.5 61.5 57.5 61.75 57.35 61.9 57.2 62.05 56.95 62.05 56.7 62.05 56.55 61.9 56.4 61.75 56.4 61.5 56.4 61.25 56.55 61.1 56.7 60.95 56.95 60.95 57.2 60.95 57.35 61.1
M 59.4 61.45
Q 59.2 61.2 59.05 61 59.75 60.85 60.4 61.25 60.6 61.35 60.75 61.55 60.05 62 59.4 61.45
M 53.7 56.55
Q 52.15 56.45 51.05 55.65
L 50.5 54.05
Q 51.45 54.7 52.4 55.45 53.05 55.95 53.7 56.55
M 47.3 52
Q 47.3 52.15 47.15 52.25 47.05 52.4 46.85 52.4 46.65 52.4 46.5 52.25 46.4 52.15 46.4 52 46.4 51.85 46.5 51.7 46.65 51.6 46.85 51.6 47.05 51.6 47.15 51.7 47.3 51.85 47.3 52
M 41.15 55.4
Q 41.35 55.4 41.45 55.5 41.6 55.6 41.6 55.7 41.6 55.8 41.45 55.9 41.35 56 41.15 56 40.95 56 40.8 55.9 40.7 55.8 40.7 55.7 40.7 55.6 40.8 55.5 40.95 55.4 41.15 55.4
M 42.5 56.55
L 42.5 56.05 42.8 56.05 42.8 56.55 42.5 56.55
M 46.25 61.55
L 48.85 61.45 47.9 62.3
Q 47.75 62.35 47.6 62.35 47.35 62.35 47.15 62.3 46.75 62.15 46.35 62.05
L 46.25 61.55
M 49.9 61.2
Q 50.1 60.95 50.35 60.75
L 50.85 60.75
Q 51.05 61.6 50.45 62.15 50.4 62.2 50.3 62.25 50.15 62.2 50.1 62.15 49.85 62 49.75 61.85 49.7 61.7 49.75 61.6 49.8 61.4 49.9 61.2
M 46.85 63.8
Q 47.15 64.35 45.9 64.7 45.35 64.9 45.1 65.2 44.7 65.7 44.15 65.75 43.45 65.25 42.65 64.65 42.2 64.35 41.7 64.2 41.5 64.1 41.35 64.05
L 46.85 63.8
M 47.35 66.45
L 47.25 66.95
Q 46.45 67.95 45.1 67.9 44.85 67.8 44.6 67.75 43.75 66.45 45.1 65.7 45.95 65.2 46.75 65.8 47.1 66.05 47.35 66.45
M 47.8 64.8
Q 48.35 63.8 49.5 63.15 50.35 62.7 51.15 62.5 51.55 62.4 51.95 62.65 52.1 62.7 52.2 62.9
L 52.05 63.75
Q 51.6 63.95 51.1 64.05 50.6 64.25 50.05 64.3 49.1 64.75 48.25 65.65 48.15 65.8 48 65.95 47.5 65.45 47.8 64.8
M 42.8 62.8
Q 42.9 62.4 43.1 62.05 44.05 60.55 45.15 61.55 45.05 61.85 44.7 62.1 43.85 62.4 42.8 62.8
M 42.4 73.85
L 43.5 73.5 44.9 74.45 43.6 74.75 43.5 75.85
Q 42.45 75.6 42.2 74.45
L 42.4 73.85
M 49.9 68.7
Q 50.05 68.85 50.05 69.05 50.05 69.25 49.9 69.4 49.8 69.55 49.6 69.55 49.4 69.55 49.25 69.4 49.15 69.25 49.15 69.05 49.15 68.85 49.25 68.7 49.4 68.55 49.6 68.55 49.8 68.55 49.9 68.7
M 58.35 64.05
Q 58.25 63.9 58.25 63.75 58.2 63.05 59 63.15 59.55 63.15 59.75 63.5
L 59.65 64.25
Q 58.85 64.65 58.35 64.05
M 53.1 67.55
Q 53.05 67.7 52.95 67.9
L 51.9 68.35
Q 51.5 67.3 52.55 66.6 53.05 66.35 53.5 66.05 53.3 66.8 53.1 67.55
M 51.55 70.4
Q 51.7 70.5 51.7 70.65 51.7 70.8 51.55 70.9 51.4 71 51.2 71 51 71 50.85 70.9 50.7 70.8 50.7 70.65 50.7 70.5 50.85 70.4 51 70.3 51.2 70.3 51.4 70.3 51.55 70.4
M 53.45 73.25
L 48.75 73.45
Q 51.048828125 71.2 53.45 73.25
M 60.2 76.1
Q 60.2 76.05 60.35 76.05 60.15 76.8 60.2 76.1
M 60.55 78.05
Q 60.55 78.2 60.45 78.3 60.35 78.45 60.2 78.45 60.05 78.45 59.95 78.3 59.85 78.2 59.85 78.05 59.85 77.9 59.95 77.75 60.05 77.65 60.2 77.65 60.35 77.65 60.45 77.75 60.55 77.9 60.55 78.05
M 55.4 75.1
Q 55.4 75.2 55.35 75.25 55.3 75.35 55.2 75.35 55.1 75.35 55.05 75.25 55 75.2 55 75.1 55 75 55.05 74.9 55.1 74.85 55.2 74.85 55.3 74.85 55.35 74.9 55.4 75 55.4 75.1
M 50.85 76
Q 51.15 75.55 51.45 75.05
L 51.9 75.3
Q 52.7 76.8 51.75 78.35 51.45 78.9 51.25 79.55 50.8 80.75 49.65 81.25 49 81.4 48.45 80.9 48.15 80.65 48 80.25 48.4 79.75 49.1 79.2 49.45 79 49.6 78.65 49.9 78.05 50.1 77.4 50.3 76.65 50.85 76
M 51.75 80.3
Q 51.85 80.15 51.95 80.05 52.9 79.9 53.2 81 53.2 81.1 53.2 81.25 52.75 81.85 52.15 81.4 51.4 81 51.75 80.3
M 59.85 81.75
Q 60.1 81.5 60.4 81.5 60.7 81.5 60.9 81.75 61.15 82.05 61.15 82.4 61.15 82.75 60.9 83 60.7 83.3 60.4 83.3 60.1 83.3 59.85 83 59.65 82.75 59.65 82.4 59.65 82.05 59.85 81.75
M 49.85 75
Q 50 75.15 50 75.35 50 75.55 49.85 75.7 49.75 75.85 49.6 75.85 49.45 75.85 49.3 75.7 49.2 75.55 49.2 75.35 49.2 75.15 49.3 75 49.45 74.85 49.6 74.85 49.75 74.85 49.85 75
M 46.85 75.8
Q 46.65 76.65 45.65 76.7 45.75 75.9 46.7 75.7 46.75 75.75 46.85 75.8
M 47.9 77.05
Q 47.75 76.8 47.8 76.65 48 76.2 48.45 75.85 48.6 76.6 48.05 77 47.95 77 47.9 77.05
M 41.95 80.1
Q 41.85 79.95 41.8 79.8
L 42.15 79.15
Q 42.95 80.05 43.35 81.05 43.4 81.2 43.45 81.45 42.55 81.05 41.95 80.1
M 44.55 78.05
Q 44.55 78.2 44.4 78.3 44.3 78.45 44.15 78.45 44 78.45 43.85 78.3 43.75 78.2 43.75 78.05 43.75 77.9 43.85 77.75 44 77.65 44.15 77.65 44.3 77.65 44.4 77.75 44.55 77.9 44.55 78.05
M 44.95 79.7
Q 44.85 79.15 45.35 79.35 45.55 79.8 45.15 79.8 45 79.9 44.95 79.7
M 69.6 76.55
Q 69.45 76.55 69.3 76.45 69.2 76.35 69.2 76.2 69.2 76.05 69.3 75.95 69.45 75.85 69.6 75.85 69.75 75.85 69.85 75.95 70 76.05 70 76.2 70 76.35 69.85 76.45 69.75 76.55 69.6 76.55
M 61.5 80.05
Q 61.3 80.05 61.25 79.85 62.1 79.85 61.5 80.05
M 64.05 78.5
Q 64.2 78.6 64.2 78.75 64.2 78.9 64.05 79 63.9 79.1 63.7 79.1 63.5 79.1 63.35 79 63.2 78.9 63.2 78.75 63.2 78.6 63.35 78.5 63.5 78.4 63.7 78.4 63.9 78.4 64.05 78.5
M 38.25 28.75
Q 39.55 27 41.65 27.35
L 38.25 28.75
M 32.6 57.8
Q 32.3 57.55 31.95 57.35 31.3 58.5 30.95 59.85 30.9 60 30.95 60.2
L 31.6 60.55 32.2 60.1 32.65 58.75 33.65 59.55
Q 33.55 58.4 32.6 57.8
M 86.05 36.9
Q 85.95 36.8 85.8 36.8 85.65 36.8 85.5 36.9 85.4 37.05 85.4 37.25 85.4 37.45 85.5 37.55 85.65 37.7 85.8 37.7 85.95 37.7 86.05 37.55 86.2 37.45 86.2 37.25 86.2 37.05 86.05 36.9
M 83.95 36.7
Q 83.8 36.7 83.7 36.85 83.6 37 83.6 37.2 83.6 37.4 83.7 37.55 83.8 37.7 83.95 37.7 84.1 37.7 84.2 37.55 84.3 37.4 84.3 37.2 84.3 37 84.2 36.85 84.1 36.7 83.95 36.7 Z"/>
</g>
</defs>

<g transform="matrix( 1, 0, 0, 1, 2.75,1.5) ">
<use xlink:href="#Layer1_0_FILL"/>
</g>
</svg>
