
<svg xmlns="http://www.w3.org/2000/svg" version="1.1" xmlns:xlink="http://www.w3.org/1999/xlink" preserveAspectRatio="none" x="0px" y="0px" width="100px" height="100px" viewBox="0 0 100 100">
<defs>
<g id="Layer1_0_FILL">
<path fill="#000000" stroke="none" d="
M 15.65 57
Q 15.75 56.4 15.25 56.3 15.75 56.4 15.65 57
M 69.1 83.4
Q 69.3 83.15 69.3 82.8 69.3 82.45 69.1 82.2 68.9 81.95 68.65 81.95 68.4 81.95 68.2 82.2 68 82.45 68 82.8 68 83.15 68.2 83.4 68.4 83.65 68.65 83.65 68.9 83.65 69.1 83.4
M 64.45 81.65
Q 64.55 81.5 64.55 81.3 64.05 81.6 64 81.85
L 64.1 81.85
Q 64.3 81.8 64.45 81.65
M 61.55 76.75
Q 61.9 76.9 62.35 76.9 62.55 76.5 62.1 75.95 61.3 75 60.5 75.45 60.55 76.35 61.55 76.75
M 66.7 78.25
Q 66.65 77.8 66.65 77.4 65 77.7 63.35 78 63.9 78.45 64.5 78.85 64.85 79.05 65.3 79.25 64.7 79.4 64.1 79.6 64.55 80 65.05 80.35 65.3 80.45 65.65 80.55
L 66.5 80.1
Q 66.9 79.35 66.7 78.25
M 71 75.2
Q 71.15 75.1 71.15 74.95 71.15 74.8 71 74.65 70.9 74.55 70.7 74.55 70.5 74.55 70.35 74.65 70.25 74.8 70.25 74.95 70.25 75.1 70.35 75.2 70.5 75.35 70.7 75.35 70.9 75.35 71 75.2
M 77.8 79.25
Q 77.8 79.1 77.7 78.95 77.6 78.85 77.45 78.85 77.3 78.85 77.2 78.95 77.1 79.1 77.1 79.25 77.1 79.4 77.2 79.5 77.3 79.65 77.45 79.65 77.6 79.65 77.7 79.5 77.8 79.4 77.8 79.25
M 42.65 82.65
Q 42.75 82.25 42.85 81.9
L 42.2 82
Q 41.95 82.3 41.8 82.65 41.8 82.7 41.9 82.85 42.5 83.15 42.65 82.65
M 44.35 82.1
Q 44.35 81.95 44.25 81.8 44.15 81.7 44.05 81.7 43.95 81.7 43.85 81.8 43.75 81.95 43.75 82.1 43.75 82.25 43.85 82.35 43.95 82.5 44.05 82.5 44.15 82.5 44.25 82.35 44.35 82.25 44.35 82.1
M 44.2 78.7
L 44.4 78.9 44.65 78.7 44.2 78.7
M 47.25 78.1
Q 47.35 78 47.35 77.85 47.35 77.7 47.25 77.55 47.15 77.45 47.05 77.45 46.95 77.45 46.85 77.55 46.75 77.7 46.75 77.85 46.75 78 46.85 78.1 46.95 78.25 47.05 78.25 47.15 78.25 47.25 78.1
M 46.05 75.75
Q 45.95 75.3 45.85 74.9 44.7 75.15 44.55 76.2 44.55 76.35 44.6 76.5 44.65 76.6 44.8 76.6 45.05 76.8 45.4 76.9 45.55 76.85 45.75 76.8 46.2 76.4 46.05 75.75
M 58.4 81.6
L 59.2 82
Q 59.4 81.35 58.7 81.55 58.55 81.55 58.4 81.6
M 55.3 84
Q 55.2 84.55 55.35 83.9 55.5 83 55.3 84
M 52.2 82.4
L 52.5 82 51.95 82 52.2 82.4
M 54 80.6
L 55.1 81.75 55.6 81.8 56 81.5
Q 56.45 81.5 56.7 81.3 56.75 81.35 56.8 81.3 55.8 79.8 54 80.6
M 54.65 77.5
L 54.85 77.9
Q 55.1 77.4 55 77.85 54.95 78 54.85 78.2 56.4 77.95 57.5 76.7 55.75 76.2 54.2 76.75 53.35 77.55 53.45 78.65 53.85 79.7 54.2 78.4 54.35 77.9 54.65 77.5
M 51.35 79.85
Q 51.15 80.05 51.15 80.3 51.15 80.55 51.35 80.7 51.55 80.9 51.8 80.9 52.05 80.9 52.25 80.7 52.45 80.55 52.45 80.3 52.45 80.05 52.25 79.85 52.05 79.7 51.8 79.7 51.55 79.7 51.35 79.85
M 59.3 79.65
Q 59.1 79.8 58.85 79.9
L 60.85 81.6
Q 60.75 81.2 60.85 80.85 60.9 80.5 61.15 80.2 61.5 80.35 61.8 80.6 62.15 80.85 62.45 81.2 62.95 80.05 61.95 79.05 61.65 78.75 61.35 78.5 60.2 78.8 59.3 79.65
M 57.7 74.1
Q 57.95 74.1 58.1 73.95 58.3 73.85 58.3 73.65 58.3 73.45 58.1 73.3 57.95 73.2 57.7 73.2 57.45 73.2 57.25 73.3 57.1 73.45 57.1 73.65 57.1 73.85 57.25 73.95 57.45 74.1 57.7 74.1
M 52.25 73.95
Q 52.1 73.85 51.9 73.8 51.95 74.55 52.65 74.3 52.45 74.1 52.25 73.95
M 51.65 68.5
Q 51.15 68.7 51.35 69.25 51.55 69.75 51.85 70.3 52.4 69.3 51.65 68.5
M 44 71.9
Q 43.9 71.55 43.65 71.3
L 44.1 72.5
Q 44.25 72.75 44 71.9
M 41.85 72.1
Q 41.75 71.75 41.55 71.45 41.4 71.15 41.15 70.9 41 71.55 41.1 72.3 41.1 72.4 41.2 72.55 41.3 72.55 41.4 72.55 41.5 72.55 41.55 72.45 41.7 72.3 41.85 72.1
M 43.45 68.5
L 43.4 69.45
Q 44.05 70.5 45.2 70.7
L 43.65 69.6 44.45 68.8 43.45 68.5
M 50.4 63.9
Q 50.25 64.05 50.25 64.25 50.25 64.45 50.4 64.6 50.55 64.75 50.8 64.75 51.05 64.75 51.2 64.6 51.35 64.45 51.35 64.25 51.35 64.05 51.2 63.9 51.05 63.75 50.8 63.75 50.55 63.75 50.4 63.9
M 59.25 60.3
Q 59.2 60.25 59.2 60.2 58.45 59.7 59.25 60.3
M 60.65 57.7
Q 60.2 57.3 59.65 57.55 59.05 57.8 58.55 58.15 58.45 58.3 58.4 58.5
L 58.9 59.05
Q 60.3 59.25 60.65 57.7
M 70.5 68.6
Q 70.2 68.7 70.7 68.95 71.25 69.15 71.9 69.3
L 70.5 68.6
M 69.05 70.6
Q 69.05 70.65 69 70.7 69.7 70.95 69.35 70.4 69.25 70.2 69.05 70.6
M 63.15 73.6
Q 62.8 73.1 62.35 72.8 61.65 72.25 60.85 71.9 61.25 73.35 62.6 74.05 62.65 74.1 62.8 74.1 62.9 74.05 63.05 74.05 63.1 74 63.1 73.9 63.15 73.75 63.15 73.6
M 63.1 68.3
Q 63.1 68.35 62.95 68.5 62.9806640625 69.821484375 63.7 70.9
L 62.85 70.9
Q 62.8 71.45 63.2 71.7 63.25 71.75 63.35 71.8 63.9154296875 71.7130859375 63.85 71.1 64.310546875 71.658203125 64.95 72.15 65.25 72.4 65.5 72.8
L 63.8 74 63.8 74.5
Q 64.4 75.25 65.35 75.55 65.8 75.55 66.25 75.6 66.35 75.45 66.45 75.35 66.5 75.2 66.45 75.05 66.35 74.25 65.9 73.55
L 65.9 73.05 66.25 72.55
Q 66.7 72.35 67.15 72.25 67.8 72.15 68.45 72.1 68.3 72.35 68.25 72.6 68.15 73 68.15 73.45 68.25 73.6 68.4 73.7 68.65 73.85 68.95 73.95
L 70.75 72.35
Q 70.8326171875 72.30859375 70.85 72.25 70.746875 72.8080078125 70.55 73.3 71.75 73.3 72.55 72.5 72.9 72.25 73.15 71.9 72 71.8 70.85 71.7
L 70.5 70 68.75 71.75 67.1 71.6
Q 66.9 72.35 66.5 71.85 65.3 70.25 63.55 69.7 63.4 68.95 63.1 68.3
M 61.25 68.1
Q 61.3 68.2 61.5 68.2 60.9 67.7 61.25 68.1
M 61.55 70.8
Q 61.45 70.8 61.35 70.9 61.25 71.05 61.25 71.2 61.25 71.35 61.35 71.45 61.45 71.6 61.55 71.6 61.65 71.6 61.75 71.45 61.85 71.35 61.85 71.2 61.85 71.05 61.75 70.9 61.65 70.8 61.55 70.8
M 65.35 67.4
L 65 67.1
Q 64.95 67.7 64.9 68.3 64.85 68.7 65.15 69.05 65.7 68.95 65.65 68.35 65.65 67.9 65.35 67.4
M 64.25 63.85
L 63.75 63.8 63.25 64.1 62.45 66.6 65.25 65 64.25 63.85
M 65.35 62.3
L 65.6 61.9 65.1 61.9 65.35 62.3
M 69 59.7
Q 69.5 59.4 68.9 58.95 68.7 58.75 68.5 58.6
L 67.85 58.8
Q 68 59.75 69 59.7
M 67.2 60.25
Q 66.95 60.2 66.75 60.15
L 66 60.5
Q 65.6 61.85 65.6 63.45 65.6 64.55 66.35 65.3 66.7 65.7 67.15 66 67.25 66.05 67.4 66.1
L 68 65.4 67.85 64.2
Q 68.05 63.6 68.75 63.15
L 68.85 61.9 68.1 62
Q 68.55 60.8 67.2 60.25
M 61.65 61.3
Q 61.25 61.15 60.85 61 61 61.8 61.5 62.4 62.05 63 62.85 62.9 62.8 61.75 61.65 61.3
M 61.35 56.8
L 61.6 57.35 61.85 56.8 61.35 56.8
M 62.55 52.3
L 61.85 50.9 61.15 51.1
Q 61.4 51.95 62.1 52.15 62.3 52.2 62.55 52.3
M 67.75 54.35
Q 67.45 54 67.1 53.7
L 68.8 53
Q 67.9 52.7 66.95 52 66.3 51.55 65.5 51.55 65.4 51.8 65.45 52 65.5 52.6 65.55 53.15 65.6 53.35 65.55 53.55 65.5 53.65 65.45 53.8 65.1 53.8 64.85 53.7 64.45 53.35 64.2 52.9 64.1 52.7 64 52.5 63.35 53.45 63.35 54.8 63.35 56.1 62.7 57.1 62.55 57.3 62.3 57.65 61.95 58.05 61.6 58.45 61.45 58.65 61.35 58.85 61.45 59.45 61.65 60.05 61.85 60.65 62.2 61.2 62.9 60.45 63.75 59.85 64.15 59.6 64.6 59.4 65.55 59.05 65.7 58.1 65.8 57.2 65.25 56.4 64.95 55.95 64.65 55.6 66.15 55.65 67.7 56.05 68.85 56.05 69.55 56.8
L 70.6 55.9
Q 68.9 55.4 67.75 54.35
M 63.1 59.3
Q 63.2 59.4 63.2 59.55 63.2 59.7 63.1 59.8 63 59.9 62.9 59.9 62.8 59.9 62.7 59.8 62.6 59.7 62.6 59.55 62.6 59.4 62.7 59.3 62.8 59.2 62.9 59.2 63 59.2 63.1 59.3
M 79.1 55.75
L 79.25 55.7
Q 78.8 54.7 79.1 55.75
M 72.1 58.85
L 71.35 57.4
Q 70.1 57.05 70.3 58.45 70.35 58.75 70.45 59.05
L 71.15 59.5 71.6 59.5 72.1 58.85
M 75.4 61.2
Q 75.35 61 75.25 60.9 74.4 60.9 75.05 61.3 75.5 61.55 75.4 61.2
M 71.5 53.95
L 71.95 52.85
Q 70.85 53.35 69.8 53.9
L 71.5 53.95
M 75.1 52.2
L 75 51.2
Q 73.6 51.9 73.6 53.5 73.6 53.7 73.65 53.95
L 74.45 54.4 73.1 55.9 74.85 55.85 75.35 56.35 76.25 56.3
Q 75.35 55.25 75.8 54.05 75.95 53.55 75.7 52.75
L 75.1 52.2
M 79.25 53.2
Q 79.35 52.45 79.1 53 78.95 53.4 79.25 53.2
M 77.2 50.35
Q 76.45 50.4 77.35 51.4 77.85 51.05 77.35 50.5 77.3 50.4 77.2 50.35
M 23.15 88.85
Q 22.8 89.05 23.25 88.9 23.6 88.55 23.15 88.85
M 21.45 80.45
Q 21.45 80.25 21.4 80.15 20.95 79.3 19.95 79.3 20.3 80 21.1 80.3 21.25 80.35 21.45 80.45
M 26.45 85
L 26.7 84 25.1 85 26.45 85
M 24.3 83.4
Q 24.55 83.35 24.85 83.35 25.5 83.2 25.55 82.6
L 24.3 83.4
M 21.1 85.15
Q 20.9 86.05 21.7 85.7
L 21.1 85.15
M 22.75 78.05
Q 22.05 77.85 21.15 78
L 20.65 78.7
Q 21.65 79 22.65 78.85 23.1 78.8 23.1 78.5 23.15 78.15 22.75 78.05
M 20.85 76.9
Q 21 77 21.1 76.9 21.3 76.85 21.45 76.65 21.15 76.75 20.85 76.9
M 23.15 76.5
Q 23.3 76.35 23.4 76.05
L 22.55 75.1
Q 22.25 75.7 22.5 76.35 22.55 76.5 22.7 76.6 22.95 76.6 23.15 76.5
M 39.35 82
Q 39.55 81.85 39.55 81.6 39.55 81.35 39.35 81.2 39.15 81.05 38.85 81.05 38.55 81.05 38.35 81.2 38.15 81.35 38.15 81.6 38.15 81.85 38.35 82 38.55 82.15 38.85 82.15 39.15 82.15 39.35 82
M 32.6 77.1
Q 32.75 77 32.75 76.85 32.75 76.7 32.6 76.55 32.5 76.45 32.35 76.45 32.2 76.45 32.05 76.55 31.95 76.7 31.95 76.85 31.95 77 32.05 77.1 32.2 77.25 32.35 77.25 32.5 77.25 32.6 77.1
M 39.2 80.05
Q 39.3 80 39.3 79.9 39.3 79.8 39.2 79.75 39.1 79.7 39 79.7 38.9 79.7 38.8 79.75 38.7 79.8 38.7 79.9 38.7 80 38.8 80.05 38.9 80.1 39 80.1 39.1 80.1 39.2 80.05
M 36.95 80.2
Q 36.75 80.2 36.6 80.3 36.5 80.45 36.5 80.65 36.5 80.85 36.6 80.95 36.75 81.1 36.95 81.1 37.15 81.1 37.25 80.95 37.4 80.85 37.4 80.65 37.4 80.45 37.25 80.3 37.15 80.2 36.95 80.2
M 39.3 77.05
Q 39.4 77 39.4 76.9 39.4 76.8 39.3 76.7 39.2 76.65 39.05 76.65 38.9 76.65 38.8 76.7 38.7 76.8 38.7 76.9 38.7 77 38.8 77.05 38.9 77.15 39.05 77.15 39.2 77.15 39.3 77.05
M 20.2 83.25
Q 20.1 83.4 20.1 83.6
L 20.65 84.2
Q 21.9 84.4 22.6 83.35 22.9 82.8 22.85 81.9 22.8 81.05 22.7 80.1 22.05 81.15 20.9 81.45 20.65 81.6 20.45 81.8
L 21.2 82.1
Q 20.65 82.5 20.2 83.25
M 19.8 78.5
Q 20.05 78.3 20.05 78 20.05 77.7 19.8 77.5 19.6 77.3 19.25 77.3 18.9 77.3 18.65 77.5 18.45 77.7 18.45 78 18.45 78.3 18.65 78.5 18.9 78.7 19.25 78.7 19.6 78.7 19.8 78.5
M 17.3 74.45
Q 17.35 74.5 17.45 74.5 17.35 74.15 17.05 74.2 16.85 74.3 17.3 74.45
M 18.3 76.8
Q 18.75 77.1 19 76.45 19.05 76.35 19 76.2
L 18.3 76.8
M 18.8 59.55
Q 18.85 59.7 18.85 59.9 19.15 59.45 19.05 59 19 58.85 18.95 58.8 18.45 58.7 18.8 59.55
M 14.95 50.9
Q 14.2 51.1 14.75 51.75 15.2 52.3 16.2 52.4
L 14.95 50.9
M 40.45 71.4
Q 39.75 71.4 40.35 71.85 41.05 72.2 40.45 71.4
M 38.8 71.8
Q 38.5 71.55 38.15 71.35
L 37.45 71.5
Q 38.25 71.5 38.85 72 38.9 72.1 39 72.2 38.9 71.95 38.8 71.8
M 36.5 73.55
L 36.7 74
Q 36.65 73.5 36.5 73.35
L 36.5 73.55
M 37.85 72.9
L 37.85 71.9
Q 37.35 71.8 37.05 72.2 37 72.3 36.95 72.4 37.05 72.6 37.25 72.7 37.5 72.85 37.85 72.9
M 39.65 69.25
Q 39.4 68.9 38.85 68.9
L 38.85 69.9
Q 39.05 69.9 39.3 69.9 39.85 69.7 39.75 69.4 39.7 69.3 39.65 69.25
M 40.35 69
Q 39.9 68.5 40.15 68.95 40.35 69.25 40.35 69
M 32.65 65.6
Q 32.4 66.45 32.8 67.1 32.8849609375 67.245703125 32.95 67.35
L 33.3 66.65
Q 34 66.4 34.7 66.8 35.05 66.95 35.45 67.1 34.45 65.55 32.65 65.6
M 31 63.5
L 31.45 63.9 32.2 63.9 31 63.5
M 34.65 62.4
Q 33.7 62.15 33.5 63.3 33.5 63.4 33.55 63.5 34 64.05 34.35 63.4 34.5 63.1 34.7 62.85
L 34.65 62.4
M 39.2 62.7
Q 39.35 62.55 39.35 62.3 39.35 62.05 39.2 61.85 39.05 61.7 38.8 61.7 38.55 61.7 38.4 61.85 38.25 62.05 38.25 62.3 38.25 62.55 38.4 62.7 38.55 62.9 38.8 62.9 39.05 62.9 39.2 62.7
M 29.85 72.1
L 29.55 71.45
Q 29.85 70.45 30.15 69.5 28.5 69.15 27.65 70.55 26.7 72.1 27.6 73.35 28.2 73.45 28.55 73 29 72.6 29.5 72.25 29.65 72.15 29.85 72.1
M 29.25 73.7
L 29.7 74.2
Q 31.05 74.45 32.25 73.35 32.5 73.15 32.85 73.05 33 73.1 33.15 73.2 33.3 73.3 33.4 73.5 33.45 73.6 33.45 73.75 33.2 74.95 31.9 75.35 30.7 75.45 29.4 75.3 28.95 75.25 28.5 75.2 28.35 75.15 28.25 75.15
L 26.6 75.9
Q 27.15 76.45 27.75 77.05 28.5 77.85 29.45 78
L 29.75 77.25
Q 30.6 76.55 31.95 76.25 32.5 76.1 33.15 76.15 33.9 76.4 34.65 76.7 34.85 76.85 35.15 76.9
L 34.95 75.6
Q 35.4 76.5 36.15 76.8 36.85 77.1 37.5 76.8 37.7 76.55 37.4 76.25 36.65 75.5 35.8 74.6 35.45 74.3 35.35 73.9 35.05 73.05 34.85 72.2 34.5 70.95 33.5 70.2 33.15 69.9 32.85 69.6 32.2 68.4 30.75 68.3 30.35 68.3 29.95 68.4
L 30.8 70.3 32.45 70.9
Q 31.9 72.55 30.25 73.35 29.75 73.55 29.25 73.7
M 26.5 70.15
Q 26.6 70.05 26.6 69.85 26.6 69.65 26.5 69.5 26.4 69.4 26.25 69.4 26.1 69.4 26 69.5 25.9 69.65 25.9 69.85 25.9 70.05 26 70.15 26.1 70.3 26.25 70.3 26.4 70.3 26.5 70.15
M 28.3 69.4
Q 28.4 69.3 28.55 69.25
L 28.95 68 27.55 69.5
Q 27.85 70 28.3 69.4
M 21.1 72.95
Q 20.85 73.9 22.15 73.9 22.6 73.6 21.95 73.3 21.55 73.05 21.1 72.95
M 22.65 71.15
L 22.5 70.35
Q 21.05 69.65 19.8 70.85 19.15 71.35 18.8 72.1 18.55 72.6 18.45 73.1
L 19.65 72.8
Q 19.2 72.35 19.85 71.95 20.35 71.55 21 71.35 21.9 71.6 22.65 71.15
M 21.85 69.05
Q 21.75 69.2 21.75 69.4 21.75 69.6 21.85 69.75 22 69.9 22.15 69.9 22.3 69.9 22.4 69.75 22.55 69.6 22.55 69.4 22.55 69.2 22.4 69.05 22.3 68.9 22.15 68.9 22 68.9 21.85 69.05
M 24.85 70.9
L 23.85 70.9
Q 23.8 71.45 24.2 71.7 24.25 71.75 24.35 71.8 25 71.7 24.85 70.9
M 20.5 67.4
Q 20.65 67.3 20.65 67.1 20.65 66.9 20.5 66.75 20.35 66.65 20.1 66.65 19.85 66.65 19.7 66.75 19.55 66.9 19.55 67.1 19.55 67.3 19.7 67.4 19.85 67.55 20.1 67.55 20.35 67.55 20.5 67.4
M 27.35 68.05
Q 27.55 68.05 27.7 67.9 27.85 67.75 27.85 67.55 27.85 67.35 27.7 67.2 27.55 67.05 27.35 67.05 27.15 67.05 27 67.2 26.85 67.35 26.85 67.55 26.85 67.75 27 67.9 27.15 68.05 27.35 68.05
M 27.4 65.75
Q 27.5 65.6 27.5 65.4 27.5 65.2 27.4 65.05 27.3 64.9 27.15 64.9 27 64.9 26.9 65.05 26.8 65.2 26.8 65.4 26.8 65.6 26.9 65.75 27 65.9 27.15 65.9 27.3 65.9 27.4 65.75
M 26.2 64.25
Q 26.2 64 25.95 63.8 25.7 63.65 25.35 63.65 25 63.65 24.75 63.8 24.5 64 24.5 64.25 24.5 64.5 24.75 64.65 25 64.85 25.35 64.85 25.7 64.85 25.95 64.65 26.2 64.5 26.2 64.25
M 29.15 63.9
L 27.95 63.5
Q 27.35 63.75 27.55 64.5 27.7 65.25 27.85 66 29.2 65.25 29.15 63.9
M 22.15 55.9
L 20.95 55.8
Q 19.75 55.85 18.95 57 18.7 57.35 18.55 57.7 19.5 56.75 20.75 56.35 21.45 56.1 22.15 55.9
M 21.95 57.8
L 21.55 57.25
Q 20.5 58.55 20.2 60.25 20.15 60.45 20.15 60.7 20.7 60.1 21.1 59.2 21.65 58 22.8 58.2 23.3 58.85 22.75 59.4 22.4 59.85 22.1 60.3 21.85 60.65 21.55 61
L 24.2 61 21.6 62.45
Q 22.45 62.45 22.85 63.15 22.7 63.45 22.45 63.65 22.25 63.85 21.9 63.9 21.2 63.3 20.9 62.55 20.8 62.2 20.5 62.05 20 61.75 19.45 61.55 20.3 62.95 20.8 64.25
L 19.95 64.95
Q 20 66.25 21.5 66.75 21.95 66.95 22.3 67.15 22.65 67.15 23 67.15 23.75 66.3 23.55 65 23.35 63.7 24.15 62.55 24.5 62.15 25 61.85
L 24.45 63.35
Q 25.95 62.65 26.7 61 25.1 60.95 24.3 59.5 23.65 58.45 22.65 57.3 22.3 57.55 21.95 57.8
M 25 57.1
Q 25 56.9 24.8 56.75 24.6 56.6 24.35 56.6 24.1 56.6 23.9 56.75 23.7 56.9 23.7 57.1 23.7 57.3 23.9 57.45 24.1 57.6 24.35 57.6 24.6 57.6 24.8 57.45 25 57.3 25 57.1
M 23.3 52.15
L 23.25 52.1
Q 22.7 52.1 23.3 52.15
M 24.95 52.55
Q 24.9 52.6 24.95 52.7
L 25.85 52.8
Q 25.5 52.1 24.95 52.55
M 30 55.5
Q 30.1 55.45 30.15 55.35 30.45 54.95 30.45 54.5
L 30 55.5
M 26.95 53.55
Q 27.3 53.55 27.2 53.2 27 52.6 26.8 52 26.4 52.9 26.9 53.55
L 26.95 53.55
M 26.4 50.55
L 27.2 50.8 26.3 49.7 26.4 50.55
M 29.85 50.9
Q 29.75 51.4 30.15 51.75 30.25 51.75 30.35 51.8 31 51.6 30.85 50.9
L 29.85 50.9
M 28.35 51.45
Q 28.3 51.5 28.3 51.65 28.4 51.8 28.6 51.9 28.7 51.95 28.85 51.9 28.65 51.25 28.35 51.45
M 31.4 60.85
Q 31.3 60.8 31.2 60.8 30.45 61.15 30.3 62.15
L 29.35 62.8 32.65 62.7
Q 32.25 62.3 31.85 61.9 32 61.25 31.4 60.85
M 31.75 58.15
Q 31.6 58.2 31.5 58.3
L 31 59.15
Q 30.7 59.55 31.7 58.85 32.35 58.4 31.75 58.15
M 32.45 50.5
Q 32.75 49.9 32.1 49.65 32 49.6 31.9 49.6 31.15 49.85 31.7 50.45
L 32.45 50.5
M 36.95 48
L 37.2 49 37.7 49.5 36.95 48
M 36.1 49.35
Q 36.05 49.35 35.95 49.4
L 36.7 50.2
Q 36.6 49.65 36.1 49.35
M 33.55 44.3
Q 33.15 44.1 33.35 44.5 34.2 44.55 33.55 44.3
M 30.65 43.95
L 31.3 43.45 31.45 43
Q 31.3 43.15 31.2 43.35
L 30.25 43.75
Q 30.45 43.85 30.65 43.95
M 25.45 49.2
Q 25.15 49.3 24.85 49.4 23.95 49.5 23.65 50.25
L 23.7 50.8
Q 23.85 51 24.05 51.1 24.5 51.45 25.05 51.7
L 24.8 50.9 25.45 49.2
M 29.6 48.8
Q 29.4 48.95 29.4 49.2 29.4 49.45 29.6 49.6 29.8 49.75 30.05 49.75 30.3 49.75 30.5 49.6 30.7 49.45 30.7 49.2 30.7 48.95 30.5 48.8 30.3 48.65 30.05 48.65 29.8 48.65 29.6 48.8
M 27.6 48.65
Q 27.4 48.9 27.4 49.25 27.4 49.6 27.6 49.85 27.85 50.1 28.15 50.1 28.45 50.1 28.65 49.85 28.9 49.6 28.9 49.25 28.9 48.9 28.65 48.65 28.45 48.4 28.15 48.4 27.85 48.4 27.6 48.65
M 25.1 47
Q 24.98359375 46.9611328125 24.95 46.95 25.1576171875 46.543359375 25.55 46.2
L 25.45 45.2
Q 24.55 46.55 23.8 47.8
L 23.95 47.75
Q 24.05 47.7 24.2 47.7 24.45 47.7 24.75 47.8 25.3 48.05 25.8 48.3 25.95 48.35 26.2 48.35 26.3 48.2 26.35 48.05 26.4 47.85 26.4 47.75 26.35 47.5 26.25 47.35
L 25.1 47
M 20.25 45.3
Q 20.25 45.2 20.25 45.1 19.7 45.05 20.25 45.3
M 24.2 44.9
Q 24.35 44.8 24.35 44.65 24.35 44.5 24.2 44.4 24.1 44.3 23.9 44.3 23.7 44.3 23.55 44.4 23.45 44.5 23.45 44.65 23.45 44.8 23.55 44.9 23.7 45 23.9 45 24.1 45 24.2 44.9
M 22.9 42.4
Q 23.05 42.45 23.3 42.5
L 22.55 42.1
Q 22.7 42.25 22.9 42.4
M 26.6 43.15
Q 26.8 42.9 26.95 42.6
L 24.85 43.9
Q 25.9 43.9 26.6 43.15
M 29.15 33.1
L 28.65 33.8 29.8 34.55 29.4 36.25
Q 29.5 36.25 29.6 36.3 29.9 36.15 30.2 36.05 30.95 35.3 30.4 34.4 29.8 33.5 29.15 33.1
M 22.4 37
Q 22.2 36.6 21.95 36.3 21.8 37.25 21 38 20.75 38.15 20.6 38.4
L 20.65 38.95 20.9 39.3 21.4 39.5 22.25 39.2
Q 23 38.2 22.4 37
M 25 31.95
L 25 32 26 31.9 25 31.95
M 37 31.6
L 37.65 32.1 38.35 32.1 37.6 31.2 37.75 30 37 31.6
M 40 32.85
L 40.2 33.3 40.4 32.85 40 32.85
M 38.85 33.5
Q 38.6 33.2 38.25 33.2 37.9 33.2 37.65 33.5 37.4 33.8 37.4 34.2 37.4 34.6 37.65 34.9 37.9 35.2 38.25 35.2 38.6 35.2 38.85 34.9 39.1 34.6 39.1 34.2 39.1 33.8 38.85 33.5
M 32.5 37.1
Q 32.1 36.8 31.7 36.55
L 30.7 37.05 28.05 37 28.65 37.85 28.8 37.85
Q 28.7 37.95 28.5 38 27.55 39.65 28.7 41.2
L 29.4 41.6 29.95 41 29.5 39.5 30.2 38.5 30.05 39.45 30.55 40.15 31.9 39.55
Q 33.15 39.65 34.3 39.2 34.35 39.1 34.45 39 34.35 38.15 33.55 37.75 33 37.5 32.5 37.1
M 37.05 29.5
Q 36.55 29.95 37.05 29.75 37.35 29.65 37.05 29.5
M 19 48.2
Q 19.35 48.2 19.05 48 18.4 48.4 19 48.2
M 16 47.55
Q 16.15 47.95 16.5 48.25 16.9 48.45 17.3 48.7
L 16.45 47 16.95 47.15
Q 18.05 46.8 18.45 45.7
L 15.55 45.6
Q 15.5 46.55 16 47.55
M 20 45.95
L 20 46 21 45.9 20 45.95
M 20.15 43.5
Q 19.3 43.25 18.65 43.6 18.65 44.15 19.8 44.2 20.15 44.3 20.3 43.95 20.55 43.65 20.15 43.5
M 20.05 41.2
Q 19.25 41 18.75 41.4 18.45 41.65 18.15 41.9 19.1 42.1 19.8 41.55
L 20.05 41.2
M 13.45 36.55
Q 13.45 36.35 13.3 36.2 13.2 36.05 13 36.05 12.8 36.05 12.65 36.2 12.55 36.35 12.55 36.55 12.55 36.75 12.65 36.9 12.8 37.05 13 37.05 13.2 37.05 13.3 36.9 13.45 36.75 13.45 36.55
M 70.9 49.05
Q 70.55 49 70.2 49
L 73.7 51.7 73.4 50.6 72.5 50.2
Q 71.95 49.1 70.9 49.05
M 77.55 47.3
Q 78.15 47.3 78.35 46.5 77.8 46.7 77.3 46.95 77.25 47.05 77.25 47.2 77.4 47.3 77.55 47.3
M 78.1 48.6
Q 78.2 48.75 78.35 48.75 78.5 48.75 78.6 48.6 78.7 48.5 78.7 48.35 78.7 48.2 78.6 48.05 78.5 47.95 78.35 47.95 78.2 47.95 78.1 48.05 78 48.2 78 48.35 78 48.5 78.1 48.6
M 80.6 44.85
L 80.5 44.85 79.55 45.3
Q 78.95 45.85 79.5 46 79.65 45.95 79.85 45.9 79.95 45.15 80.6 44.85
M 74.75 42.9
Q 74.5 42.9 74.3 43.05 74.1 43.2 74.1 43.45 74.1 43.7 74.3 43.85 74.5 44 74.75 44 75 44 75.2 43.85 75.4 43.7 75.4 43.45 75.4 43.2 75.2 43.05 75 42.9 74.75 42.9
M 80.3 42.65
Q 80.1 42.65 79.95 42.85 79.85 43.05 79.85 43.35 79.85 43.65 79.95 43.85 80.1 44.05 80.3 44.05 80.5 44.05 80.6 43.85 80.75 43.65 80.75 43.35 80.75 43.05 80.6 42.85 80.5 42.65 80.3 42.65
M 66.85 46.9
L 65.85 46.9
Q 65.75 47.35 66.2 47.7 66.25 47.75 66.35 47.8 67.05 47.8 66.85 46.9
M 63.05 38.15
Q 63.2 38 63.2 37.75 63.2 37.5 63.05 37.35 62.9 37.2 62.7 37.2 62.5 37.2 62.35 37.35 62.2 37.5 62.2 37.75 62.2 38 62.35 38.15 62.5 38.3 62.7 38.3 62.9 38.3 63.05 38.15
M 65.15 30.2
L 64.25 30.1 63.65 30.5 64.9 31.95
Q 64.8 32.4 64.95 32.85 64.95 32.9 65.15 32.9 67.05 31.8 66.35 29.75
L 65.4 29.6 65.15 30.2
M 78.65 32.75
L 79.95 34 79.5 33 78.65 32.7 78.85 31.9 77.85 31.9 78 32.6
Q 78.05 32.65 78.2 32.65 78.25 32.75 78.35 32.75 78.5 32.75 78.65 32.75
M 73.05 36.95
L 72.6 37.05
Q 72.3 37.7 73.2 37.9 73.3 38 73.5 38 73.6 37.8 73.6 37.65 73.55 37.4 73.45 37.15
L 73.05 36.95
M 73.1 25.5
Q 73.15 25.6 73.25 25.7 73.8 25.2 73.05 24.75 72.6 24.55 72.35 24.65 72.15 25.35 73.1 25.5
M 49.7 36.95
Q 50.35 36.45 50.95 35.8
L 49.4 36
Q 48.7 36.4 48.45 37.5 49.1 37.3 49.7 36.95
M 42.05 42.2
Q 41.9 41.95 41.85 41.7
L 41.55 43.5
Q 40.25 43.25 38.95 43
L 40.6 45.15 41.75 45.4
Q 42.3 45.2 42.75 44.7 43.3 44.1 43.85 43.5 42.65 43.2 42.05 42.2
M 69 46.3
L 68.9 45.95
Q 68.8 46 68.85 46.05 68.95 46.35 69 46.3
M 46 39.2
Q 46.25 39 46.6 38.9 46.1 37.8 45.1 37.65 44.8 37.7 44.5 37.75
L 45.15 38.35
Q 44.55 38.95 43.6 39.25 43.35 39.15 43.15 39.35 43.45 40.25 44.4 40.85 45.05 41.3 45.25 42.1
L 45.05 42.4
Q 45.7 42.65 46.55 42.55
L 44.05 45.35
Q 44.15 45.4 44.25 45.45 44.25 45.5 44.3 45.55 44.3 45.6 44.25 45.65 44.2 45.75 44.15 45.85 43.85 46.5 43 46.4 42.65 46.45 42.35 46.5
L 41.75 47.05
Q 42.15 48 42.55 48.95
L 41.75 48.65 41.45 50.65
Q 40.65 50.05 40.2 49.15 40 48.7 40 48.2 40.05 47.45 40.2 46.65 40.4 45.65 39.55 45 38.75 44.35 37.7 43.6
L 37.55 43.45
Q 37.8 43.5 38.15 43.65
L 37.55 42.35
Q 38.95 42.25 39.75 41.15 40 40.85 40.15 40.45
L 39.75 39.65
Q 38.25 39.25 36.9 40.05 35.85 40.65 34.45 40.85
L 34.95 43.05 35.45 41.75 35.7 42.2
Q 34.95 43.75 35.5 45.35 35.6 45.6 35.8 45.85 34.35 45.8 32.75 46.3 32.35 46.5 31.9 46.65 31.7 46.7 31.5 46.85 32.5 47.8 33.75 47.9 34.2 47.65 34.7 47.45 36.15 47 37.05 45.95
L 36.45 43.95
Q 37.95 46.2 38.65 48.75 38.8 49.2 38.75 49.75 38.75 50.1 38.7 50.5
L 34.4 50.65
Q 34.1 51.05 34 51.35
L 34.2 51.25
Q 34.75 51.1 35.15 51.6 35.6 52.2 35.95 52.95
L 32.15 52.75 34.45 54.95
Q 33.45 55.2 32.45 55.45 33.45 56.3 34.7 56.05 34.85 56.1 35.05 56.15 35.05 56.35 34.9 56.5 34.65 56.95 34.2 57.2 33.75 57.4 33.25 57.55 33.1 57.6 32.95 57.7 32.85 57.8 32.85 57.95 32.9 58.2 33.05 58.5 34.2 59.05 34.6 60.45 34 60.4 33.45 60.4 34.4 61.15 34.95 62.15 35.7 63.6 34.7 64.95 36.7 65.6 37.1 67.55 37.35 68.55 38.45 68.5 39.15 68.05 39.35 67.4 39.5 66.9 39.8 66.5 40 66.15 40.25 65.85 39.6 65.65 39.4 65.15 39 64 38.35 63.25 37.55 63.05 36.7 62.8 36.25 62.6 35.9 62.35
L 35.3 60.7
Q 36.75 61.8 38.35 61.15 39.3 60.75 40.2 60.2 40.6 60 41 59.85 42.6 59.65 44.05 58.75 44.9 58.15 45.85 58 45.4 59.25 44 59.35 42.35 59.7 41.15 60.8 40.65 61.3 40.6 61.95 40.5 62.6 40.85 63.25 41.2 63.9 41.75 64.5 41.95 64.75 42.1 65.1 42.15 65.2 42.2 65.4
L 41.15 65.5
Q 41.45 65.75 41.8 65.9 42.15 66.1 42.55 66.25
L 40.05 67.95
Q 41 68.1 41.85 67.95 43.05 67.6 44.3 67.75 45.5 67.8 45.6 68.9 45.7 69.65 46.35 70.05
L 46.8 69.5
Q 46.95 70.35 47.15 71.25
L 49.15 70.75
Q 48.15 71.5 48.3 72.7 48.4 73.2 48.5 73.75 48.5 73.9 48.5 74.1
L 47.8 75.35
Q 47.75 76.05 48.4 76.3 48.6 76.4 48.85 76.55
L 49.15 74.85 49.35 76.1 49.95 76.65
Q 49.9 76.25 50 76 50.05 75.9 50.25 75.95 50.85 75.9 50.8 76.6 50.8 76.75 50.7 76.85 51.35 77.25 50.9 77.95 50.8 78.05 50.65 78.15 50.05 78.5 49.5 78 49.25 77.8 49.05 77.65
L 48.35 78.65 49.25 78.55
Q 48.7 79.9 47.9 81.1 47.6 81.5 47.15 81.8 46.95 81.95 46.7 82.05
L 47.35 82.35
Q 48.8 82.15 49.65 80.8 50.15 79.9 51.15 79.35 51.7 79 51.85 78.1 51.95 77.45 52.2 76.85
L 53.4 75.75 53.4 75.25
Q 54.3 76.05 55.5 75.7 54.9 74.95 54.3 74.25 55.3 73.8 56.05 72.9 57.5 71.3 59.4 70.25
L 58.55 69.5 57.65 70.1 57.15 70.15 55.7 69.05
Q 56.05 70 55.55 70.95
L 54.8 71.55 52.1 71.5
Q 52.3 71.75 52.55 72 53.4 72.7 53.65 73.85 53.85 74.65 53.4 74.95 53.3 75.1 53.15 75.2 52.55 75.35 51.9 75.05 50.55 74.25 49.75 72.95 49.5 72.5 49.5 71.95 49.55 71.4 49.6 70.8 49.85 68.95 50.25 66.9 50.35 66.45 50.5 66 49.65 65.65 49.1 65 47.85 63.5 45.7 63.25 46.65 62.85 47.1 61.95 47.25 61.7 47.4 61.45
L 48.9 62.85 47.7 62.75
Q 48.45 63.3 49.3 63.15 52.25 63.05 55.15 62.8 56.25 62.8 56.8 63.65 55.05 62.85 53.6 63.7 53.15 64 52.95 64.5 52.8 64.8 52.8 65.15 53.45 65.9 53.5 66.65 53.5 67.05 53.65 67.4 53.55 67.7 53.35 68 53.05 68.5 53.35 69.1
L 54.25 69.5 55.2 68.9
Q 55.1 67.7 55.85 66.9 56.8 67.55 57.9 68
L 57.8 69 58.7 69
Q 57.85 67.6 58.6 66 58.85 65.45 58.65 64.85 58.4 64.25 58 63.75
L 59.3 63.5
Q 60 63.55 60.3 64.25 61.05 64.6 60.7 63.2 60.45 62.3 59.65 61.95
L 58.85 62.25 58.2 60
Q 57.1 59.25 55.85 59.85 55.15 60.05 54.65 59.5 54.55 58.5 55.2 57.8
L 55.1 59
Q 56.2 59.05 57.25 58.4 57.45 58.25 57.6 58.05
L 56.7 56.95
Q 58.5 57.5 60 56.45 60.6 56 61.25 56.1 60.45 54.9 59.65 53.75 60.9 52.75 60.95 50.95 61 50.05 61.65 49.35
L 63.5 51.65 63.75 50.35
Q 64.55 49.75 65.25 50.5 65.7 51 66.5 51.1 67.4 50.95 67.95 50.15
L 67.95 49.25 66.6 50.25
Q 66.05 49.4 64.8 49.35 65.15 47.95 64.6 46.75 64.45 46.4 64.3 46.15 65.5 47.25 67.05 46.35 67.6 46.1 68.2 45.85 68.5 45.65 68.85 45.45
L 68.9 45.95
Q 69.4 46 69.15 46.2 69.1 46.25 69 46.3
L 69.3 47.75
Q 69 47.95 69.05 48.1 69.15 48.6 69.6 49.05
L 71 48.1
Q 71.05 47.1 71.1 46.15
L 72.2 46.35 73.35 45.5
Q 72.95 47.85 75.15 48.65 75.45 48.75 75.8 48.85
L 75.05 47.55 77.1 47.35
Q 75.2 45.55 72.9 44.35
L 72.7 43.8
Q 72.7 43.1 73.2 42.7 74.35 42 75.5 41.45
L 71.4 41.9
Q 71.4 41.45 71.75 41.15 72.15 40.85 72.55 40.5
L 72.8 39.25
Q 72.1 38.05 71.7 36.85
L 72.45 35.7
Q 69.65 35.9 67.1 34.35 66.9 33.95 67.1 33.25 67.15 33 67.3 32.75 67 32.95 66.8 33.2 66.45 33.7 66.2 34.4 65.95 35.15 65.75 35.9
L 64.1 32.6
Q 63.7 32.5 63.35 32.5 63.05 32.5 62.8 32.6 62.4 33.3 62.55 33.8 62.85 34.85 62.75 35.95 62.85 36.1 63.05 36.15 63.65 36.35 64.3 36.4 64.4 36.45 64.55 36.55
L 64.85 37.2
Q 64.55 38.25 63.4 38.55 62.6 38.9 61.8 39.3 60.75 39.8 59.65 39.85 58.4 39.75 57.65 39
L 57.2 40.25
Q 56.7 40.55 56.25 40.95 56 41.2 55.85 41.55
L 57.65 44.15
Q 55.15 42.8 52.9 41.45 51.85 40.9 50.6 41.05
L 48.7 42.15 47.8 41.95
Q 47.05 40.95 47.15 39.7
L 45.7 40.9 45.5 39.75
Q 45.7 39.45 46 39.2
M 45.1 48.65
Q 45.1 48.55 45.1 48.45 45.75 48.75 45.65 49.5 45.2 49.1 45.1 48.65
M 47.45 45.3
Q 47.4 45.4 47.35 45.55 47.05 45.6 46.85 45.55 46.7 45.45 46.6 45.3 46.75 44.4 47.45 44 48.1 43.65 48.45 44.4 47.65 44.55 47.45 45.3
M 48.05 47.2
Q 47.9 46.85 47.95 46.5 49.15 46.2 49.8 47.05 49.85 47.15 49.9 47.3
L 49.25 48.05
Q 48.3 47.9 48.05 47.2
M 59.35 42.3
Q 58.8 42 58.25 41.8 59.55 41.2 60.75 40.25 61.2 39.8 61.8 39.55 64.25 39.05 66.2 37.35 66.7 36.9 67.35 36.65 67.9888671875 36.60078125 68.45 36.95 68.335546875 36.969140625 68.15 37
L 65.95 39.2 68.15 39.7 68.25 37.8
Q 69.2 37.95 70 38.4 70.3 38.55 70.6 38.8 70.7 38.9 70.8 39.05
L 70.7 40.25
Q 70.55 40.25 70.4 40.25 70.25 40.2 70.15 40.15 70.05 39.95 70 39.75 69.95 39.5 69.95 39.3 69.4 39.3 68.7 39.7 68.45 39.85 68.15 39.95 67.55 40.15 67.05 40.5 67 40.55 67 40.75 67.2 41.15 67.6 41.5 67.8 41.75 68 42 68.1 42.2 68.2 42.45 68.3 42.6 68.35 42.8 68.35 42.95 68.35 43.15 67.8 42.65 67.55 42.3 67.35 42 67.15 41.8 66.35 41.3 65.4 41.65 64.7 42.25 64.4 43.2 64.25 43.8 64.05 44.45
L 63.15 44.9
Q 62.9 44.8 62.7 44.65 62.45 44.55 62.35 44.4 62.2 44.15 62.1 43.9 62.25 43.9 62.45 43.95 62.65 44 62.85 44.05 63.05 44.05 63.25 43.95 63.4 43.9 63.55 43.75
L 63.5 42.45 64.65 40.8 64.7 40.25 63.3 40.85 62.3 39.9
Q 61.85 40.7 61.8 41.6 61.8 41.85 61.85 42.1 62 43.55 61.55 44.9 61.1 43.1 59.35 42.3
M 50.7 42.35
L 51.15 42.4
Q 51.55 42.6 51.3 42.9 51 43.25 50.65 43.55
L 50.05 43.3
Q 49.85 42.6 50.7 42.35
M 55.55 45.35
Q 55.35 45.05 55.15 44.85 54.9 44.7 54.65 44.65
L 54 45.45
Q 54.3 45.9 54.6 46.4 54.9 46.85 55.15 47.35 55.2 47.45 55.2 47.6 54.9 48.4 53.95 48.4 51.95 48.25 51.2 46.3 51.55 45.55 50.95 44.95 50.8 44.75 50.7 44.6
L 51.1 44.8
Q 52.7 44.7 54.2 44.3 55.95 44 57.2 45.2 56.35 45.25 55.55 45.35
M 59.75 46.35
L 58.85 46.3
Q 58.65 45.9 58.5 45.55 59.2 45.95 59.75 46.35
M 58.95 44.75
Q 59.65 44.45 60.15 44.9 60.25 45 60.3 45.15 60.35 45.55 59.9 45.65 59.4 45.6 58.9 45.55 58.1 45.4 58.95 44.75
M 57.55 47
L 56.95 49
Q 55.9 49.35 55.35 50.6 55.3 50.75 55.2 50.9
L 52.45 51.4 52.75 50.05
Q 53.25 49.25 54.05 48.8 55.85 48 57.55 47
M 59.15 48.7
Q 59.7 48.25 60.3 47.9 60.95 47.65 61.65 47.5
L 59.15 48.7
M 62.75 32.95
L 63.2 32.95 63.2 33.35 62.75 33.35 62.75 32.95
M 69.9 36.5
L 69.75 36.5
Q 69.25 36.15 69.9 36.5
M 70.5 42.3
Q 70.65 42.45 70.65 42.65 70.65 42.85 70.5 42.95 70.4 43.1 70.25 43.1 70.1 43.1 69.95 42.95 69.85 42.85 69.85 42.65 69.85 42.45 69.95 42.3 70.1 42.2 70.25 42.2 70.4 42.2 70.5 42.3
M 68.95 44.6
Q 68.9 44.45 68.85 44.3 69.7 44.05 69.35 44.75 69.2 45 68.95 44.6
M 36.65 41.15
L 37.3 41.15 37.3 41.75 36.65 41.75 36.65 41.15
M 35.85 53.9
L 35.6 54.65
Q 35.45 54.35 35.5 54.05 35.55 53.75 35.85 53.7
L 35.85 53.9
M 37.4 54.4
Q 37.45 53.85 37.7 53.35 37.9 53.1 38.15 52.9 38.65 53.7 39.4 54.4 39.8 54.7 40.05 55.2
L 39.55 56.4 38.95 56.7
Q 39.9 57.6 40.25 58.7 40.25 58.8 40.2 58.9 39.95 59.35 39.55 59.25 39.35 59.15 39.2 59.1
L 36.95 60.7 36.5 60 36.9 59.45 39.2 59.1 37.7 57.75
Q 37.65 57.55 37.65 57.35 37.65 57.2 37.7 57.05 37.35 55.7 37.4 54.4
M 40.05 52.8
Q 38.9 52.5 39.15 51.25 39.35 50.25 39.65 49.4 40.35 50.4 40.8 51.5 40.85 51.7 40.9 51.9 40.7 52.2 40.45 52.5 40.25 52.65 40.05 52.8
M 36.2 57.85
L 36.25 57.9
Q 35.95 58.4 36.2 57.85
M 37.15 66
Q 37.35 66.05 37.5 66.2 37.9 66.5 38.3 66.85
L 38.15 67.45 37.15 66
M 56.95 54.7
L 56 54.15
Q 54.15 54.7 53 53.3
L 56.75 53.5 57.1 54.15 56.95 54.7
M 57.15 53.4
Q 57.25 52.75 57.9 53.05 58 53.15 58.15 53.25
L 58.3 53.7 57.9 55.2
Q 57.75 55.1 57.65 55 57.2 54.25 57.15 53.4
M 51.45 51.45
Q 51.7 51.3 52.05 51.3 52.55 52.3 51.65 53.2 51.5 53.3 51.45 53.5 51.05 54.25 50.4 54.85 50.35 54.85 50.25 54.85 49.4 53.7 50.45 52.45 50.9 51.9 51.45 51.45
M 52.95 58.5
Q 52.9 58.4 52.85 58.3
L 53.55 57.7
Q 53.95 58.6 52.95 58.5
M 52.3 60.05
Q 52.05 60.05 51.9 59.9 51.75 59.8 51.75 59.6 51.75 59.4 51.9 59.25 52.05 59.15 52.3 59.15 52.55 59.15 52.7 59.25 52.85 59.4 52.85 59.6 52.85 59.8 52.7 59.9 52.55 60.05 52.3 60.05
M 50.65 59
Q 50.75 59.15 50.75 59.3 50.75 59.45 50.65 59.55 50.55 59.7 50.4 59.7 50.25 59.7 50.15 59.55 50.05 59.45 50.05 59.3 50.05 59.15 50.15 59 50.25 58.9 50.4 58.9 50.55 58.9 50.65 59
M 50.85 61.45
Q 50.753515625 61.4259765625 50.65 61.4 51.659375 61.497265625 52.65 61.2 53.1 61 53.65 60.95 54 60.9 54.35 60.9 53.6 61.85 52.85 62.6
L 52.85 62.45
Q 52.6 62.15 52.3 62.05 51.6 61.65 50.85 61.45
M 57.15 60.8
L 56.55 61.35
Q 56.2 62.25 56.25 61.45 56.3 61.1 56.8 60.9 56.95 60.8 57.15 60.8
M 55.05 55.7
Q 55.05 55.6 55.25 55.5 55.25 56.55 55.05 55.7
M 48.8 51.8
L 49.8 52.35 50 52.9
Q 49.7 52.95 49.45 53.05 48.55 53 48.25 52.2 48.3 52.05 48.35 52 48.4 51.85 48.5 51.8 48.65 51.8 48.8 51.8
M 50.15 52.25
Q 49.95 51.3 49.4 50.6 48.95 50 48.15 50.1
L 47.65 50.95
Q 47.8 50.5 48.05 50.1 49.05 48.75 50.7 48.95 51.35 49.45 51.1 50.2 50.7 51.4 50.15 52.25
M 46.9 53.95
L 47.15 53.25
Q 47.85 53.2 48.5 53.6 49.1 54.05 49.7 54.5
L 49.8 55.8 46.9 53.95
M 45.7 53.95
Q 45.7 53.8 45.8 53.7 45.9 53.6 46 53.6 46.1 53.6 46.2 53.7 46.3 53.8 46.3 53.95 46.3 54.1 46.2 54.2 46.1 54.3 46 54.3 45.9 54.3 45.8 54.2 45.7 54.1 45.7 53.95
M 45.3 51
Q 45.3 51.25 45.15 51.45 45 51.65 44.75 51.65 44.5 51.65 44.35 51.45 44.2 51.25 44.2 51 44.2 50.75 44.35 50.55 44.5 50.35 44.75 50.35 45 50.35 45.15 50.55 45.3 50.75 45.3 51
M 42.7 53.35
Q 42.15 53.25 42.15 52.8 42.45 52.2 42.85 52.2 43 52.2 43.2 52.3 43.65 52.65 43.15 53.05 42.9 53.2 42.7 53.35
M 44.25 55.55
Q 44.5 55.55 44.65 55.65 44.85 55.8 44.85 56 44.85 56.2 44.65 56.3 44.5 56.45 44.25 56.45 44 56.45 43.8 56.3 43.65 56.2 43.65 56 43.65 55.8 43.8 55.65 44 55.55 44.25 55.55
M 41.6 56.45
L 42 56.6 42.2 57 41.55 57.65 40.95 57.4 41.1 56.7 41.6 56.45
M 48.45 56.55
Q 48.65 56.7 48.65 56.9 48.65 57.1 48.45 57.25 48.3 57.4 48.05 57.4 47.8 57.4 47.6 57.25 47.45 57.1 47.45 56.9 47.45 56.7 47.6 56.55 47.8 56.4 48.05 56.4 48.3 56.4 48.45 56.55
M 49.15 57
Q 49.65 57.5 48.95 57.05 48.7 56.9 49.15 57
M 47.5 68.05
Q 46.65 68.05 46.35 67.6 45.95 67.05 45.5 66.45 44.9 65.6 44.6 64.85 44.25 64 44.15 63.1
L 48.65 65.9 47.85 65.85 47 66.2 46.9 66.7
Q 47.1 67.4 47.65 67.95
L 47.5 68.05
M 49.2 67
L 49.25 67.1
Q 48.6 67.3 49.2 67
M 41.5 63
Q 41.3 62.75 41.15 62.5 42 62.85 42.65 63.5 42.75 63.65 42.85 63.9 42 63.65 41.5 63
M 48.45 69.45
L 48.45 69.9 47.85 69.9 47.85 69.45 48.45 69.45
M 57.7 64.45
L 58.2 64.5
Q 58.85 65.4 57.7 65.9 57.55 65.9 57.45 65.9 57 65.85 56.95 65.3 56.95 65.15 57 65.05
L 57.7 64.45
M 54.85 50.9
L 54.85 49.8
Q 54.4 49.85 54.65 50.4 54.75 50.6 54.85 50.9
M 48.85 34.3
Q 49.2 34.1 49.15 34.05 49.05 33.9 48.85 33.9 48.65 34.45 48.85 34.3
M 47.4 35.45
L 46.55 36.7
Q 46.85 36.6 47.15 36.45 48.2 36.05 48.45 34.95
L 47.4 35.45
M 41.35 37
L 41.45 37.05
Q 40.75 37.5 40 37.9 40.4 37.85 40.85 37.85 41.4 37.65 41.95 37.45
L 42.2 37 43.95 36.3 43.25 35
Q 43.1 35.05 43 35.1 41.95 35.3 41.25 36 41.15 36.15 41.15 36.3
L 41.35 37
M 46.45 28.2
Q 46.7 27.95 46.7 27.6 46.7 27.25 46.45 26.95 46.25 26.7 45.95 26.7 45.65 26.7 45.4 26.95 45.2 27.25 45.2 27.6 45.2 27.95 45.4 28.2 45.65 28.5 45.95 28.5 46.25 28.5 46.45 28.2
M 60.45 32.05
Q 60.45 32.25 60.55 32.4 60.7 32.55 60.9 32.55 61.1 32.55 61.2 32.4 61.35 32.25 61.35 32.05 61.35 31.85 61.2 31.7 61.1 31.55 60.9 31.55 60.7 31.55 60.55 31.7 60.45 31.85 60.45 32.05
M 58.3 37.05
L 58.35 37
Q 57.9 36.7 58.3 37.05
M 55.65 36.4
Q 53.9 35.55 52.65 36.9 51.95 37.65 51.05 38.1 50.4 38.55 49.95 39.35
L 50 39.85 50.35 40.2 51.8 40.4
Q 52.35 40.8 52.75 41.15 53.55 42.05 54.7 42.1
L 55.3 41.3
Q 55.2 40.25 55.05 39.35 54.9 38.6 55.1 37.9 55.3 37.1 55.65 36.4
M 53 39.9
L 52.95 38.3
Q 53.55 38.4 53.25 39.2 53.15 39.55 53 39.9
M 55.5 34.75
Q 55.6 34.7 55.55 34.5 54.85 33.5 54.85 34.65 54.85 34.75 55 34.9 55.3 34.9 55.5 34.75
M 52.7 33.6
L 52.05 33.55 51.5 34.05
Q 51.5 34.2 51.45 34.25 51.25 34.3 51 34.25 50.65 34.2 50.35 34.2
L 52.55 35.65
Q 52.7 35.7 52.7 35.8 52.75 35.45 52.7 35.15
L 52.2 34.65 52.9 34 52.7 33.6
M 51.1 32.55
Q 51.2 32.05 51.3 31.55 51.45 30.3 50.95 29.1
L 49.2 29.2 50.45 30.7
Q 49.85 30.7 49.3 30.7 49 30.75 48.75 30.85 48.4 31.1 48.15 31.45 48.05 32 48.45 32.4 49.35 33.15 50.4 32.75 50.75 32.7 51.1 32.55
M 53.7 32.2
Q 53.9 32.15 54.15 32.15 54.45 31.8 54.6 31.4 54.7 31.2 54.7 31 54.6 30.5 53.95 30.6 53.2 30.7 52.65 30.95 52.4 31.1 52.15 31.2 52.8 32.05 53.7 32.2
M 56.1 25
Q 56.4 24.9 56.75 24.8
L 57.25 23.3
Q 55.7 23.6 54.8 24.85 54.5 25.3 54.1 25.65 52.75 26.65 51.35 26.9 52.15 28.05 53.15 29.05 53.7 29.65 54.65 29.65 55.05 29.8 55.5 29.95
L 56.35 31.6 53.35 32.95
Q 53.15 32.9 53.15 32.85 53.35 33.8 53.75 34.7 54.25 33.85 55.35 33.7 57.35 33.45 57.55 31.4
L 58.55 32.3 59.55 31.3
Q 59.35 31 59.1 30.8 58 29.75 57.65 28.3
L 59.75 29.4
Q 60.05 28.85 60.45 28.35 60.9 27.85 61.45 27.4 60.2 26.9 58.8 27.3 58.15 27.05 57.65 26.65 57.1 26.25 56.75 25.7 56.15 26.55 55.55 27.4 55.2 27.75 54.8 28.1
L 54.05 27.85
Q 53.65 27.2 54.25 26.25 54.9 25.25 56.1 25
M 56.8 28
L 55.7 29.4 56.1 28.25 56.8 28
M 58 30.4
L 58 30.7
Q 57.5 30.45 58 30.4
M 58.65 26.3
Q 58.6 27.05 59.1 26.55
L 59.05 26.5 58.65 26.3
M 58.25 12.35
Q 58.4 13.2 58.85 12.9
L 58.25 12.35
M 58.3 20.9
L 57.95 19.7
Q 55.95 20.45 55.85 22.6 55.85 22.7 55.95 22.85 56.25 22.85 56.45 22.7 57 22.3 57.45 21.75 57.85 21.3 58.3 20.9
M 52.45 23.25
Q 52.25 22.75 52 22.2 51.75 21.65 51.45 21.2
L 51.2 22.3 50.45 23
Q 51.05 23.6 51.9 23.5 52.15 23.35 52.45 23.25
M 54.1 21.35
Q 53.9 21.15 53.65 21.15 53.4 21.15 53.2 21.35 53 21.6 53 21.9 53 22.2 53.2 22.4 53.4 22.65 53.65 22.65 53.9 22.65 54.1 22.4 54.3 22.2 54.3 21.9 54.3 21.6 54.1 21.35
M 53.35 20.95
L 53.55 20.05
Q 52.8 18.85 51.95 19.7 51.85 20.25 52.4 20.7 52.9 21.15 53.35 20.95
M 52.9 15.3
Q 52.9 15.1 52.75 14.95 52.6 14.8 52.4 14.8 52.2 14.8 52.05 14.95 51.9 15.1 51.9 15.3 51.9 15.5 52.05 15.65 52.2 15.8 52.4 15.8 52.6 15.8 52.75 15.65 52.9 15.5 52.9 15.3
M 55.75 18.2
Q 55.95 18.05 55.95 17.8 55.95 17.55 55.75 17.4 55.6 17.25 55.35 17.25 55.1 17.25 54.9 17.4 54.75 17.55 54.75 17.8 54.75 18.05 54.9 18.2 55.1 18.35 55.35 18.35 55.6 18.35 55.75 18.2
M 46.55 16.1
Q 46.5 15.75 46.2 16.1 46.65 16.55 46.55 16.1
M 44.35 14.8
Q 44.35 14.65 44.35 14.6 43.7 14.55 44.35 14.8
M 56.85 11.9
L 55.9 11.95 55.85 12.9 56.85 11.9
M 57.15 11.15
Q 56.8 11.5 56.85 11.9
L 57.85 11.9
Q 57.85 11.7 57.8 11.55 57.7 11.1 57.35 11 57.25 11.05 57.15 11.15
M 72.2 22
L 71.85 22 71.85 22.5 72.2 22.5 72.2 22
M 76.7 13.4
Q 76.7 13.15 76.55 13 76.4 12.85 76.15 12.85 75.9 12.85 75.75 13 75.6 13.15 75.6 13.4 75.6 13.65 75.75 13.8 75.9 13.95 76.15 13.95 76.4 13.95 76.55 13.8 76.7 13.65 76.7 13.4
M 69.1 23.95
Q 67.9 22.9 66.55 23.6 65.45 24.15 64.45 25.05 63.95 26.4 65.05 27.4
L 63.65 27.85
Q 64.75 28.8 66.25 28.3
L 66.4 27.6 69.6 28.45
Q 68.6 29.45 68.65 30.8 69.95 31.9 71.8 31.55 72.8 31.65 73.25 32.6 73.15 33.45 72.8 34.2 72.6 34.6 72.7 35 72.75 35.4 73.05 35.7 73.95 36.55 75.1 37.05 75.4 37.2 75.75 37.35 76.25 37.6 76.9 37.4 77.7 36.75 77.9 35.9 77.95 35.5 78 35.15 78.7 35.35 79.45 35.55 78.55 34.35 76.85 35.05 76.9 34.4 76.6 33.85 76.4 33.45 75.95 33.05 74.9 32.05 75.25 30.8 75.8 31.3 76.4 31.4 76.5 31.35 76.65 31.3 76.8 31.05 76.9 30.8 76.95 30.6 76.95 30.45
L 76.3 29.8
Q 75.55 29.7 75.05 30.1 74.7 30.45 74.3 30.8 74.5 29 75.8 27.95 74.45 28.05 73.2 28.25 71.3 28.15 70.25 26.55
L 68.85 27.5 69.1 25.8 70.15 25.4
Q 70.15 25.05 70.05 24.85 69.65 24.3 69.1 23.95
M 67.9 24.7
Q 67.9 24.65 68.05 24.7 68.15 25.8 67.35 26.9 67.3 26.9 67.25 26.9 67.05 25.65 67.9 24.7
M 71.9 30.75
L 72.3 30.2 72.85 30.1
Q 72.3681640625 30.3890625 71.9 30.75
M 70.9 28.3
Q 71.2 28.05 71.55 27.85 71.7 28 71.9 28.2 71.9 28.35 71.8 28.5 71.7 28.7 71.45 28.9
L 70.85 28.9 70.9 28.3
M 75.8 35.6
L 74.1 34.7 73.75 33.9
Q 74.1 34.05 74.45 34.3 75.25 34.85 75.8 35.6
M 70.65 29.5
L 70.45 30 70.25 29.5 70.65 29.5
M 70.45 24.4
Q 70.4 24.5 70.5 24.65 71.55 24.55 71.45 23.5 71.45 23.35 71.35 23.2 70.75 23.7 70.45 24.4
M 66.5 22.4
Q 67.25 22.35 66.75 22.15 66.7 22.1 66.5 22.4
M 65.6 23.25
Q 65.6 23.35 65.7 23.45 65.85 23.55 66 23.55 66.15 23.55 66.25 23.45 66.4 23.35 66.4 23.25 66.4 23.15 66.25 23.05 66.15 22.95 66 22.95 65.85 22.95 65.7 23.05 65.6 23.15 65.6 23.25
M 62.85 20.2
L 61.85 20.1
Q 61.8 20.85 61.2 21.4 60.65 21.85 60.1 22.3 59.7 22.65 59.3 23 59.65 23.2 60.1 23.35 61.2 23.75 61.95 22.9
L 62.35 23.9
Q 61.95 24.25 61.65 24.7 61.45 24.95 61.3 25.3
L 60.2 25.7 58.75 24.9
Q 59.85 26.35 61.6 25.8 62.1 25.6 62.5 25.25 62.85 24.9 63.15 24.55 63.9 23.9 65.05 23.9 63.35 22.7 63 20.65 62.95 20.4 62.85 20.2
M 62.55 17.45
Q 62.45 17.45 62.4 17.55 62.35 18.5 63.5 18.3 63.65 18.2 63.85 18.1 63.55 17.25 62.55 17.45
M 65.75 15.35
Q 65.55 15.2 65.3 15.2 65.05 15.2 64.85 15.35 64.65 15.55 64.65 15.8 64.65 16.05 64.85 16.2 65.05 16.4 65.3 16.4 65.55 16.4 65.75 16.2 65.95 16.05 65.95 15.8 65.95 15.55 65.75 15.35
M 66.05 17.25
L 65.95 17.3
Q 66.05 17.9 66.05 17.25
M 85.75 57.15
Q 85.75 57.35 85.85 57.5 86 57.65 86.2 57.65 86.4 57.65 86.5 57.5 86.65 57.35 86.65 57.15 86.65 56.95 86.5 56.8 86.4 56.65 86.2 56.65 86 56.65 85.85 56.8 85.75 56.95 85.75 57.15
M 86.4 54.9
Q 86.3 55.05 86.3 55.3 86.3 55.55 86.4 55.7 86.55 55.85 86.7 55.85 86.85 55.85 86.95 55.7 87.1 55.55 87.1 55.3 87.1 55.05 86.95 54.9 86.85 54.75 86.7 54.75 86.55 54.75 86.4 54.9
M 84 44.35
Q 84.1 44.55 84.25 44.3 83.75 43.8 84 44.35
M 82.95 45.2
Q 83.15 45.1 82.85 44.9 82.5 45.3 82.95 45.2
M 83.1 48
Q 83 48.05 82.95 48.25
L 83.25 49.6 84.45 47.5
Q 83.75 47.7 83.1 48
M 82.6 42.7
Q 83.3 41.25 82.3 39.95 81.4 38.75 80 38.1
L 80.65 36.65 79.6 35.7
Q 79.8 36.25 79.85 36.85 79.85 36.95 79.8 37.1
L 78.7 37.5 79.4 38.8 76.1 37.7 76.8 41.3
Q 77.6 40.65 78.4 40.05
L 80.8 40.3
Q 80.6 40.85 79.45 40.95 78.75 41.1 78.35 41.85 78.9 41.9 79.45 41.95 81 41.75 82.6 42.7
M 84.75 42.25
Q 84.55 42.25 84.4 42.35 84.25 42.5 84.25 42.65 84.25 42.8 84.4 42.9 84.55 43.05 84.75 43.05 84.95 43.05 85.1 42.9 85.25 42.8 85.25 42.65 85.25 42.5 85.1 42.35 84.95 42.25 84.75 42.25
M 84.35 41.7
Q 83.7 41.2 84.3 41.75
L 84.35 41.7
M 83.4 33.65
L 81.95 33.7 81.95 34.2 82.4 34.95
Q 82.6 34.95 82.8 34.9 82.8 34.85 82.75 34.7
L 83.4 33.65
M 84.55 30.25
L 84.5 29.95
Q 82.7 30.7 80.95 31.7
L 83 31.1
Q 83.7 31.25 84.35 30.45 84.45 30.35 84.55 30.25
M 81.75 27.1
Q 81.8 27.15 81.95 27.1 81.2 26.65 81.75 27.1
M 84.3 24.35
L 83.8 24.35 83.8 24.8 84.3 24.8 84.3 24.35 Z"/>
</g>
</defs>

<g transform="matrix( 1, 0, 0, 1, 2.75,1.5) ">
<use xlink:href="#Layer1_0_FILL"/>
</g>
</svg>
