
<svg xmlns="http://www.w3.org/2000/svg" version="1.1" xmlns:xlink="http://www.w3.org/1999/xlink" preserveAspectRatio="none" x="0px" y="0px" width="100px" height="100px" viewBox="0 0 100 100">
<defs>
<g id="Layer1_0_FILL">
<path fill="#000000" stroke="none" d="
M 63.05 74.25
Q 63.2 74.55 63.35 74.2 62.85 73.75 63.05 74.25
M 62.7 82.4
L 62.35 82.4 62.35 82.9 62.7 82.9 62.7 82.4
M 64.8 82.55
Q 64.8 82.5 64.75 82.4 64.4 82.95 64.8 82.55
M 65.35 80.55
Q 65.4 80.65 65.5 80.7 66.2 80.7 66 79.8
L 65 79.8
Q 64.95 80.4 65.35 80.55
M 63.8 79.6
Q 64 80.1 64.25 79.7 64.05 79.35 63.7 79.35
L 63.8 79.6
M 62.35 78.8
L 61.9 78.8 61.9 79.2 62.35 79.2 62.35 78.8
M 63.1 77.2
Q 63.25 77.1 63.25 77 63.25 76.9 63.1 76.8 63 76.7 62.85 76.7 62.7 76.7 62.55 76.8 62.45 76.9 62.45 77 62.45 77.1 62.55 77.2 62.7 77.3 62.85 77.3 63 77.3 63.1 77.2
M 62.7 74.85
Q 62.65 74.8 62.55 74.8 62 74.7 61.95 75.1 61.95 75.25 61.95 75.45
L 63 75.8
Q 63 75.3 62.7 74.85
M 64.85 77
Q 65.55 77.1 65.35 76.25
L 64.85 77
M 70.9 80.85
L 70.9 80.4 70.5 80.4 70.5 80.85 70.9 80.85
M 71.2 76.35
Q 71.4 76.7 71.45 76.25 70.95 75.85 71.2 76.35
M 73.95 75.35
Q 74.1 75.2 74.1 74.95 74.1 74.7 73.95 74.55 73.85 74.4 73.65 74.4 73.45 74.4 73.3 74.55 73.2 74.7 73.2 74.95 73.2 75.2 73.3 75.35 73.45 75.5 73.65 75.5 73.85 75.5 73.95 75.35
M 49.05 81.7
Q 49 82.4 49.75 82.2 49.6 81.7 49.25 81.65 49.15 81.65 49.05 81.7
M 41.25 85.5
Q 41.35 85.45 41.35 85.35 41.35 85.25 41.25 85.15 41.2 85.1 41.1 85.1 41 85.1 40.9 85.15 40.85 85.25 40.85 85.35 40.85 85.45 40.9 85.5 41 85.6 41.1 85.6 41.2 85.6 41.25 85.5
M 43.45 79.6
L 44.75 78.5
Q 44.4 78.65 44.15 78.9 43.75 79.2 43.45 79.6
M 40.7 79.9
Q 40.95 80.05 41.25 80.25
L 40.55 79.5
Q 39.95 79.6 40.7 79.9
M 47.95 79.85
Q 47.7 80 47.55 80.25 48.9 80.25 49.5 79.2 49.55 79.05 49.55 78.9 48.65 79.15 47.95 79.85
M 49.75 76.3
Q 49.15 76.7 48.4 76.75 47.85 76.85 47.7 77.5
L 48.2 77.9
Q 49.1 77.95 49.85 77.4
L 49.75 76.3
M 56.95 84.7
L 56.5 84.7 56.5 85.1 56.95 85.1 56.95 84.7
M 51.2 85.75
Q 51.2 85.7 51.25 85.7 51.05 85.15 51.2 85.75
M 53.5 78.3
L 53.25 77.1 50.55 77
Q 51.4 77.5 51.9 78.15 52.55 79 53.5 78.3
M 53.9 80.05
Q 54.05 79.9 54.05 79.65 54.05 79.4 53.9 79.25 53.8 79.1 53.65 79.1 53.5 79.1 53.35 79.25 53.25 79.4 53.25 79.65 53.25 79.9 53.35 80.05 53.5 80.2 53.65 80.2 53.8 80.2 53.9 80.05
M 52 79.8
Q 51.5 79.9 51 79.9 50.5 79.9 50 79.8
L 50.3 80.65
Q 50.4 80.65 50.5 80.7 50.7 80.6 50.9 80.5
L 51.6 80.85 52 79.8
M 51.2 78.75
Q 51.6 78.55 51.15 78.55 50.8 78.55 51.2 78.75
M 56.55 79.05
Q 56.3 79.15 56.05 79.3
L 57.5 79.1
Q 57 79.05 56.55 79.05
M 57.8 80.3
Q 57.7 80.3 57.6 80.35 57.55 80.45 57.55 80.55 57.55 80.65 57.6 80.7 57.7 80.8 57.8 80.8 57.9 80.8 57.95 80.7 58.05 80.65 58.05 80.55 58.05 80.45 57.95 80.35 57.9 80.3 57.8 80.3
M 56 77.25
Q 55.85 77.1 55.7 77
L 53.85 76.9
Q 54.95 77 55.7 77.65 55.9 77.8 56 78.1 56.5 77.7 56 77.25
M 57.35 75.25
Q 57.25 75.15 57.05 75.15 56.85 75.15 56.7 75.25 56.6 75.4 56.6 75.55 56.6 75.7 56.7 75.8 56.85 75.95 57.05 75.95 57.25 75.95 57.35 75.8 57.5 75.7 57.5 75.55 57.5 75.4 57.35 75.25
M 60 75.1
L 58.55 74.6 58.75 75.2
Q 58.25 75.7 57.8 76.1 57.35 76.55 57 77.1 59.15 77 60 75.1
M 76.3 71
Q 76.15 70.85 76 70.8 75.9 71.45 76.35 71.1 76.4 71.1 76.3 71
M 73.85 73.7
L 74 73.55
Q 73.3 73.2 72.45 73 73 73.55 73.65 73.75 73.75 73.7 73.85 73.7
M 75.5 72.6
Q 75.5 72.65 75.65 72.75 75.55 72.05 75.5 72.6
M 72.4 74.05
Q 72.3 73.9 72.1 73.9 71.9 73.9 71.75 74.05 71.65 74.2 71.65 74.4 71.65 74.6 71.75 74.75 71.9 74.9 72.1 74.9 72.3 74.9 72.4 74.75 72.55 74.6 72.55 74.4 72.55 74.2 72.4 74.05
M 74.8 67.2
L 74.15 66.85
Q 73.8 66.85 73.5 67.05 73.15 67 72.85 67.2 73.85 67.8 74.8 68.85 75.2 69.25 75.75 69.6
L 74.8 67.2
M 75.7 65.9
L 75.3 65.9 75.3 66.35 75.7 66.35 75.7 65.9
M 71.65 67.95
L 71.75 67.9
Q 72.05 67.4 72.25 66.85 72.35 66.65 72.35 66.4
L 71.95 65.9
Q 72.05 67.05 71.65 67.95
M 71.25 66.2
Q 71.3 66.35 71.45 66.1 71.1 65.7 71.25 66.2
M 75.35 63.9
Q 75.1 64.2 75 64.55 74.95 64.6 75.05 64.75 75.7 65.05 75.8 64.55 75.9 64.15 76 63.8
L 75.35 63.9
M 78.9 66.05
Q 78.85 66.15 79.35 66.25 79.35 65.5 78.9 66.05
M 78.75 68
Q 78.7 67.7 78.55 68.05 78.5 68.25 78.45 68.4 78.9 68.75 78.75 68
M 78.15 66.4
L 76.75 67.4 76.45 68.2 78.1 67 78.15 66.4
M 76.95 64.8
Q 76.75 64.8 76.6 64.95 76.45 65.1 76.45 65.3 76.45 65.5 76.6 65.65 76.75 65.8 76.95 65.8 77.15 65.8 77.3 65.65 77.45 65.5 77.45 65.3 77.45 65.1 77.3 64.95 77.15 64.8 76.95 64.8
M 69.2 71.65
L 68.85 71.4
Q 68.75 71.85 69.15 71.85 69.6 71.85 69.2 71.65
M 67.3 72
L 67.35 72.9 68.05 72 67.3 72
M 68.15 69.4
Q 68.25 69.3 68.25 69.15 68.25 69 68.15 68.9 68.05 68.8 67.95 68.8 67.85 68.8 67.75 68.9 67.65 69 67.65 69.15 67.65 69.3 67.75 69.4 67.85 69.5 67.95 69.5 68.05 69.5 68.15 69.4
M 69.95 70.85
Q 70.05 70.6 70.05 70.35
L 69.35 69.75
Q 68.65 69.75 68.2 70.4 68.05 70.65 67.85 70.9
L 69.6 71.45
Q 69.8 71.15 69.95 70.85
M 70.55 68.8
Q 70.5 69.4 70.85 70 71.15 70.6 71.45 71.05
L 71.45 72 74.45 72 74.65 70.2
Q 72.45 71.45 70.9 69.35 70.7 69.05 70.55 68.8
M 77.1 55.35
Q 76.55 55.6 77.25 55.9 77.4 55.65 77.1 55.35
M 78.65 59.7
Q 78.65 59.75 78.85 59.9 78.95 59.3 78.65 59.7
M 77.35 58.15
L 76.9 57.9
Q 77.3 58.65 76.55 58.8 76.25 58.8 76 58.8
L 76.1 58
Q 75.7 58.35 75.85 58.95 75.9 59.05 76 59.15
L 77.3 59.15 77.35 58.15
M 78.75 57.55
Q 78.9 57.15 79 56.8
L 78.35 56.9
Q 78.1 57.2 77.95 57.55 77.95 57.6 78.05 57.75 78.55 58 78.75 57.55
M 74.8 60.85
Q 74.55 60.9 74.3 61
L 73.55 63.75
Q 73.9 63.55 74.2 63.35 74.8 62.85 75.3 62.4 75.7 62.05 76.25 61.8
L 77.05 62.3 77.25 60.1
Q 76.15 61 74.8 60.85
M 74.4 59.55
Q 74.65 59.7 74.95 59.9
L 74.75 57.9 73.35 58.2
Q 73.6 58.95 74.4 59.55
M 74.25 55
L 73.55 55.1
Q 73.45 56.35 74.7 56.6 75 56.45 75.35 56.3
L 74.25 55
M 76.55 54.4
Q 76.7 54.3 76.7 54.1 76.7 53.9 76.55 53.75 76.4 53.65 76.15 53.65 75.9 53.65 75.75 53.75 75.6 53.9 75.6 54.1 75.6 54.3 75.75 54.4 75.9 54.55 76.15 54.55 76.4 54.55 76.55 54.4
M 80.35 50.6
Q 80.4 50.65 80.5 50.7 81.25 50.7 81 49.8
L 80 49.8
Q 79.95 50.35 80.35 50.6
M 29.85 76
L 29.75 74.7 28.75 74.5 29.85 76
M 39.85 84.4
Q 39.95 84.25 39.95 84 39.95 83.75 39.85 83.6 39.75 83.45 39.6 83.45 39.45 83.45 39.35 83.6 39.25 83.75 39.25 84 39.25 84.25 39.35 84.4 39.45 84.55 39.6 84.55 39.75 84.55 39.85 84.4
M 37.35 81.9
Q 37.1 82.2 37 82.55 36.95 82.6 37.05 82.75 37.6 83 37.75 82.5 37.9 82.15 38 81.8
L 37.35 81.9
M 35 79.8
L 34 79.8
Q 33.95 80.4 34.3 80.65 34.4 80.65 34.5 80.7 35.3 80.7 35 79.8
M 35.2 79.65
Q 35.25 79.65 35.35 79.6
L 34.45 79.2
Q 34.6 79.35 34.8 79.5 34.95 79.65 35.2 79.65
M 32.75 78.55
Q 32.9 78.4 32.9 78.2 32.9 78 32.75 77.85 32.65 77.7 32.5 77.7 32.35 77.7 32.2 77.85 32.1 78 32.1 78.2 32.1 78.4 32.2 78.55 32.35 78.7 32.5 78.7 32.65 78.7 32.75 78.55
M 31 76.65
L 30.65 76.65 30.65 77.1 31 77.1 31 76.65
M 34.25 77
Q 34.3 76.5 34.1 76.8 33.8 77.2 34.25 77
M 34.85 75.8
Q 34.25 75.1 33.3 75.3 33.25 75.35 33.2 75.45 33.25 76.1 33.95 75.95 34.85 75.85 34.85 75.8
M 39.55 75.1
Q 38.15 75.25 37.85 76.7 38.55 77.7 39.85 77.6 40.2 77.5 40.55 77.4 39.5 76.5 39.55 75.1
M 36.15 79
L 37.6 80.3 39.05 79 36.15 79
M 37.05 78.75
Q 37.6 79.1 37.75 78.5 37.9 78.15 38 77.8
L 37.35 77.9
Q 37.1 78.2 37 78.55 36.95 78.6 37.05 78.75
M 35.65 76.65
Q 35.6 76.75 35.65 76.85
L 36.15 77.15
Q 36.8 76.9 36.8 76.45 36.8 76.3 36.75 76.2 35.95 75.85 35.65 76.65
M 19.55 63.75
Q 20.15 63.4 20 62.8
L 19.35 62.9
Q 19.1 63.2 19 63.55 18.95 63.6 19.05 63.75 19.3 63.8 19.55 63.75
M 19.75 58.5
Q 19.9 58.15 20 57.8
L 19.35 57.9
Q 19.1 58.2 19 58.55 18.95 58.6 19.05 58.75 19.55 59.15 19.75 58.5
M 13.3 52.1
Q 13.4 52.2 13.65 52.2 13.5533203125 51.8134765625 13.1 52 13.176953125 52.0384765625 13.3 52.1
M 17.05 49.6
Q 17.4 50.4 18.15 49.8 19.05 49.15 18.85 48
L 17.05 49.6
M 17.75 55
L 17.9 55.2
Q 18 55.45 18.15 55.55
L 18.2 55.4
Q 18.2 54.9 17.75 55
M 18.9 53.45
Q 18.9 53.2 18.75 53 18.6 52.85 18.4 52.85 18.2 52.85 18.05 53 17.9 53.2 17.9 53.45 17.9 53.7 18.05 53.85 18.2 54.05 18.4 54.05 18.6 54.05 18.75 53.85 18.9 53.7 18.9 53.45
M 17 53.2
L 16.85 53
Q 16.6 52.75 16.3 52.85 16.8 53.2 17 53.2
M 16.2 55.25
Q 16.15 55.35 16.2 55.35 16.55 55.75 17.05 56.1
L 16.2 55.25
M 17.05 51.7
Q 17.2 51.6 17.2 51.4 17.2 51.2 17.05 51.05 16.95 50.95 16.75 50.95 16.55 50.95 16.4 51.05 16.3 51.2 16.3 51.4 16.3 51.6 16.4 51.7 16.55 51.85 16.75 51.85 16.95 51.85 17.05 51.7
M 19.85 51.85
Q 19.4 51.7 19 51.9 18.75 52.4 19.55 52.5 19.85 52.6 20.15 52.8 20.75 52.25 19.85 51.85
M 32.35 74.05
Q 32.55 73.7 32.75 73.4
L 31.75 74.15
Q 32.05 74.65 32.35 74.05
M 27.1 73.3
Q 27.2 73.75 27.65 73.8 27.8 73.8 28 73.8
L 28 72.8
Q 27.45 72.75 27.2 73.1 27.15 73.2 27.1 73.3
M 28.3 70.95
Q 28.5 70.75 28.5 70.4 28.5 70.05 28.3 69.8 28.1 69.6 27.85 69.6 27.6 69.6 27.4 69.8 27.2 70.05 27.2 70.4 27.2 70.75 27.4 70.95 27.6 71.2 27.85 71.2 28.1 71.2 28.3 70.95
M 21.8 71.55
Q 21.9 71.15 22 70.8
L 21.35 70.9
Q 21.1 71.2 21 71.55 20.95 71.6 21.05 71.75 21.7 72.25 21.8 71.55
M 23.9 66.1
Q 23.85 66.6 24.15 66.1 23.95 65.8 23.9 66.1
M 21.95 65.95
L 21.5 65.95 21.5 66.35 21.95 66.35 21.95 65.95
M 25.2 62.7
Q 25.2 62.5 25.05 62.35 24.9 62.25 24.7 62.25 24.5 62.25 24.35 62.35 24.2 62.5 24.2 62.7 24.2 62.9 24.35 63 24.5 63.15 24.7 63.15 24.9 63.15 25.05 63 25.2 62.9 25.2 62.7
M 27.25 63.15
Q 27.15 62.95 27 62.8
L 25.05 64.8
Q 25.9 65.1 26.7 65.7 27.05 65.95 27.55 66.1
L 28.3 65.4
Q 28.15 64.6 27.65 63.75 27.45 63.45 27.25 63.15
M 22.75 58.9
Q 23.35 59.05 23.65 59.3 24.1 58.8 23.5 58.35 23 57.95 22.45 58.25 22.1 58.75 22.75 58.9
M 21 60.8
L 22.05 60.45
Q 22 60.15 21.85 60 21.7 59.85 21.45 59.8 21.3 59.8 21.3 59.85 21.1 60.3 21 60.8
M 21.9 58.05
Q 21.9 57.95 21.75 57.85 21.65 57.75 21.45 57.75 21.25 57.75 21.1 57.85 21 57.95 21 58.05 21 58.15 21.1 58.25 21.25 58.35 21.45 58.35 21.65 58.35 21.75 58.25 21.9 58.15 21.9 58.05
M 21.55 49.8
Q 21.05 49.85 20.55 49.95 19.8 50.25 19.1 50.65 18.8 50.75 18.55 51
L 21.65 51.2 21.55 49.8
M 23.3 44.8
Q 23.45 44.65 23.45 44.4 23.45 44.15 23.3 44 23.15 43.85 22.95 43.85 22.75 43.85 22.6 44 22.45 44.15 22.45 44.4 22.45 44.65 22.6 44.8 22.75 44.95 22.95 44.95 23.15 44.95 23.3 44.8
M 24.5 39.85
L 23.35 39.7
Q 22.35 40.7 21.8 41.9 21.55 42.4 21.35 42.9
L 23.25 42 24.55 42.5 25.55 43.1 24.9 41.95 24.15 41.75 24.6 41.4 24.85 40.3 24.5 39.85
M 22.85 39.15
Q 22.9 38.95 22.95 38.7 22.35 39.05 21.95 39.7 21.65 40.2 21.95 40.3 22.6 39.9 22.85 39.15
M 24.25 38.5
Q 24.45 38.5 24.55 38.35 24.7 38.2 24.7 37.95 24.7 37.7 24.55 37.55 24.45 37.4 24.25 37.4 24.05 37.4 23.9 37.55 23.8 37.7 23.8 37.95 23.8 38.2 23.9 38.35 24.05 38.5 24.25 38.5
M 28.35 30.5
L 24.65 28.3 25.45 29.7 23.85 30.2 28.35 30.5
M 29.65 35.3
Q 29.45 35.15 29.2 35.15 28.95 35.15 28.75 35.3 28.55 35.45 28.55 35.7 28.55 35.95 28.75 36.1 28.95 36.25 29.2 36.25 29.45 36.25 29.65 36.1 29.85 35.95 29.85 35.7 29.85 35.45 29.65 35.3
M 25.95 36.6
Q 26.1 36.5 26.1 36.3 26.1 36.1 25.95 35.95 25.85 35.85 25.7 35.85 25.55 35.85 25.4 35.95 25.3 36.1 25.3 36.3 25.3 36.5 25.4 36.6 25.55 36.75 25.7 36.75 25.85 36.75 25.95 36.6
M 27.95 31.4
L 27.95 31.9 28.3 31.9 28.3 31.4 27.95 31.4
M 29.65 33.75
L 28.85 33.1 27.25 33.4 27.15 32.1
Q 26.05 32.8 26.6 33.9 26.8 34.3 27.15 34.7 27.5 34.7 27.85 34.55 28.35 34.45 28.85 34.2 29.25 33.95 29.65 33.75
M 23.65 36.4
L 23.85 36
Q 21.65 36.25 21.4 38.05 21.4 38.15 21.5 38.3 21.3 37.6 22.25 37.2 22.95 36.85 23.65 36.4
M 21.95 33.9
Q 22.2 33.15 21.55 33.55 21.4 33.7 21.8 33.9 21.85 33.95 21.95 33.9
M 21.8 31.4
L 21.45 31.4 21.45 31.9 21.8 31.9 21.8 31.4
M 24.6 31.65
Q 23.9 31.45 23.25 31.25 23.05 32.3 22.85 33.4 23.6 34.35 24.75 34.25 24.95 34.15 25.2 34.05 25.85 33.4 25.6 32.35 25.25 31.8 24.6 31.65
M 22 30.8
L 21 29.8 21 30.8 22 30.8
M 21.55 29.1
L 24.05 28.7
Q 23.35 27.75 22.15 28.65 21.85 28.9 21.55 29.1
M 27.8 27.15
Q 27.6 26.8 27 26.8
L 27 27.8
Q 27.2 27.8 27.45 27.8 28 27.75 27.9 27.3 27.85 27.2 27.8 27.15
M 28.45 26.1
Q 28.85 26.65 29.35 27.15 29.6 27.4 29.95 27.6
L 30.55 27.5 28.45 26.1
M 30.65 26.2
Q 30.9 27.1 31.45 27.5 31.65 27.6 31.85 27.8
L 31.75 25.9 34.05 26.6 31.75 24.5 30.65 26.2
M 17.35 47
Q 17.35 47.2 17.45 47.3 17.6 47.45 17.8 47.45 18 47.45 18.1 47.3 18.25 47.2 18.25 47 18.25 46.8 18.1 46.65 18 46.55 17.8 46.55 17.6 46.55 17.45 46.65 17.35 46.8 17.35 47
M 20.1 45.05
Q 19.8 45.05 19.6 45.3 19.4 45.55 19.4 45.9 19.4 46.25 19.6 46.5 19.8 46.75 20.1 46.75 20.4 46.75 20.6 46.5 20.8 46.25 20.8 45.9 20.8 45.55 20.6 45.3 20.4 45.05 20.1 45.05
M 19 43.8
L 18 43.8 18 44.8 19 43.8
M 14 45.8
L 14.9 45.6 15.2 45.95 16 45.8 15 44.8 14.2 44.85 14 45.8
M 14 39.8
L 15.05 39.45
Q 15 39.15 14.85 39 14.7 38.85 14.45 38.8 14.3 38.8 14.3 38.85 14.1 39.3 14 39.8
M 17.95 41.45
Q 19.2 41.25 19.75 40.1
L 17.15 41.4
Q 17.55 41.4 17.95 41.45
M 18 42.8
L 17.35 42.9
Q 17.1 43.2 17 43.55 16.95 43.6 17.05 43.75 17.65 44.1 17.8 43.55 17.9 43.15 18 42.8
M 19.8 42.95
Q 19.9 42.85 19.9 42.7 19.9 42.55 19.8 42.4 19.7 42.3 19.6 42.3 19.5 42.3 19.4 42.4 19.3 42.55 19.3 42.7 19.3 42.85 19.4 42.95 19.5 43.1 19.6 43.1 19.7 43.1 19.8 42.95
M 15.8 41.55
Q 15.9 41.15 16 40.8
L 15.35 40.9
Q 15.1 41.2 15 41.55 14.95 41.6 15.05 41.75 15.65 42.05 15.8 41.55
M 10 42.55
Q 9.95 42.6 10.05 42.75 10.5 43.1 10.75 42.55 10.9 42.15 11 41.8
L 10.35 41.9
Q 10.1 42.2 10 42.55
M 15.8 28.55
Q 15.9 28.15 16 27.8
L 15.35 27.9
Q 15.1 28.2 15 28.55 14.95 28.6 15.05 28.75 15.65 29 15.8 28.55
M 20 28.25
Q 20 28.05 19.85 27.9 19.75 27.8 19.6 27.8 19.45 27.8 19.3 27.9 19.2 28.05 19.2 28.25 19.2 28.45 19.3 28.55 19.45 28.7 19.6 28.7 19.75 28.7 19.85 28.55 20 28.45 20 28.25
M 39.5 22.95
L 38.55 23.3 40.65 23.7 39.5 22.95
M 37.35 23.7
L 37.35 24.3 38 24.3 38 23.7 37.35 23.7
M 37.3 22.9
Q 37.2 22.8 37 22.8 36.8 22.8 36.65 22.9 36.55 23 36.55 23.1 36.55 23.2 36.65 23.3 36.8 23.4 37 23.4 37.2 23.4 37.3 23.3 37.45 23.2 37.45 23.1 37.45 23 37.3 22.9
M 40 20.4
Q 39.95 21.1 40.05 20.95 40.3 20.7 40.3 20.35 40.3 20.1 40 20.4
M 34.7 22.55
L 35.35 22.9 34.95 21.95
Q 34.7 22.1 34.6 22.35 34.6 22.4 34.7 22.55
M 34.7 24.15
L 34.35 24.4
Q 34.1 25.15 35.05 25.4 35.1 25.3 35.2 25.25 35.7 24.85 35.15 24.4 34.9 24.25 34.7 24.15
M 32.75 22.9
Q 32.55 22.9 32.4 23.05 32.3 23.2 32.3 23.4 32.3 23.6 32.4 23.75 32.55 23.9 32.75 23.9 32.95 23.9 33.05 23.75 33.2 23.6 33.2 23.4 33.2 23.2 33.05 23.05 32.95 22.9 32.75 22.9
M 39.65 15.2
Q 39.7 14.7 39.55 15 39.3 15.45 39.65 15.2
M 38.6 17.95
Q 39.35 16.7 37.9 15.6 37.5 15.25 37.05 15
L 37.85 16.1
Q 38.1 17.05 38.5 18
L 38.6 17.95
M 30.2 24.1
Q 30.15 24.2 30.1 24.3 30.15 24.75 30.65 24.8 30.8 24.8 31 24.8
L 31 23.8
Q 30.5 23.75 30.2 24.1
M 25.3 22.9
L 25.3 23.3 25.75 23.3 25.75 22.9 25.3 22.9
M 80.05 49.1
L 79.55 48.4
Q 78.9 48.1 79 48.85 79 48.95 79.15 49.1
L 80.05 49.1
M 79.75 46.1
Q 79.1 45.55 79.7 46.15
L 79.75 46.1
M 79.35 44.8
Q 79.35 44.05 78.95 44.6 78.85 44.7 79.35 44.8
M 80.5 44.6
Q 80.4 44.7 80.95 44.8 81.05 44.05 80.5 44.6
M 73 37.8
L 74 37.8 73 36.8 73 37.8
M 74.75 38.75
Q 74.9 38.65 74.9 38.45 74.9 38.25 74.75 38.1 74.65 38 74.5 38 74.35 38 74.2 38.1 74.1 38.25 74.1 38.45 74.1 38.65 74.2 38.75 74.35 38.9 74.5 38.9 74.65 38.9 74.75 38.75
M 76.55 40.55
Q 77 39.95 76.9 39.2
L 74.35 40.05 73.9 41.1
Q 74.45 42.95 76.6 43.7 77.45 43.45 78.35 42.95 78.55 42.9 78.8 43
L 79 43.95 79.35 43.45 79.25 42.35
Q 77.6 41.3 76.4 43.3 75.65 41.85 76.55 40.55
M 80.5 41.6
Q 80.7 41.55 80.95 41.55 81.3 41.3 81.65 41.1
L 80.05 41.4 80.5 41.6
M 80.35 40.6
Q 80.4 40.65 80.5 40.7 81.25 40.65 81 39.8
L 80 39.8
Q 79.95 40.35 80.35 40.6
M 69.35 32.8
Q 69.35 33 69.45 33.25 69.75 33.4 70.05 33.55 70.15 33.45 70.25 33.4 70.6 32.85 69.9 32.5 69.7 32.45 69.55 32.5 69.45 32.55 69.35 32.65 69.35 32.7 69.35 32.8
M 69 31.8
Q 69.1 31.7 69.1 31.5 69.1 31.3 69 31.15 68.9 31.05 68.75 31.05 68.6 31.05 68.5 31.15 68.4 31.3 68.4 31.5 68.4 31.7 68.5 31.8 68.6 31.95 68.75 31.95 68.9 31.95 69 31.8
M 70.6 32
Q 70.65 31.75 70.75 31.5 70.15 31.15 70.35 31.65 70.4 31.85 70.6 32
M 70.05 25.45
L 70.05 25.65 70.5 26.5 72.45 27.6
Q 71.25 26.45 70.05 25.45
M 79 34.8
L 78 34.8
Q 77.95 35.45 78.35 35.55 78.4 35.65 78.5 35.7 79.15 35.65 79 34.8
M 72.2 36.9
L 72.05 36
Q 71.2 35.3 70.15 35.5 70.65 34.95 71.2 34.4 69.95 34.35 68.85 35.1
L 68.55 32.8
Q 67.15 33.85 67.4 35.6 66.8 34.15 65.25 33.75 63.9 34 62.55 33.5 62.05 33.35 61.55 33.3 60.8 33.45 60.85 34.25 61.15 35.15 62.1 35.15 63.2 35.2 64.25 34.9
L 63.45 36
Q 64 36.1 64.55 36.2
L 65.15 35.65
Q 66.05 35.8 66.9 36 67.25 36.15 67.75 36.05 68 35.95 68.3 35.85 69.05 35.9 69.85 36.55 69.95 36.65 70.15 36.7 70.8 36.85 70.9 37.4 70.95 37.7 71 38
L 72.2 36.9
M 73 24.8
L 74 24.8 73 23.8 73 24.8
M 71.95 29.55
Q 71.95 29.6 72.05 29.75 72.65 30 72.8 29.5 72.9 29.15 73 28.8
L 72.35 28.9
Q 72.1 29.2 71.95 29.55
M 75 26.8
L 75 27 76 26.8 75 26.8
M 58.1 26.1
Q 57.95 26.15 57.85 26.2
L 58.05 27.1 57.55 27.7
Q 57.45 26.75 56.75 26.2
L 56.3 26.25
Q 55.15 27.45 56.4 28.6 57.65 29.8 59.35 28.7 60.45 28 60.4 26.9 59.65 25.85 58.1 26.1
M 58 22.25
L 57 21.8
Q 57.1 22.3 57.3 22.75 57.3 22.85 57.45 22.95 57.55 22.9 57.7 22.9 58.1 22.9 58 22.25
M 56.4 18.85
L 55.95 18.85 55.95 19.65 56.4 19.65 56.4 18.85
M 57.15 21.15
L 57.25 21.1
Q 56.3 20.55 57.15 21.15
M 59.35 21.55
Q 59.05 21.4 59.15 20.65 59.2 20.15 59.05 19.5 58.3 20.4 58.4 21.55 58.55 21.65 58.7 21.8 58.75 21.85 58.75 22 58.75 22.05 58.8 22.15
L 59.85 22.1
Q 59.8 21.9 59.75 21.8 59.55 21.65 59.35 21.55
M 55.35 23.2
Q 55.15 23.05 54.9 23.05 54.65 23.05 54.45 23.2 54.25 23.35 54.25 23.6 54.25 23.85 54.45 24 54.65 24.15 54.9 24.15 55.15 24.15 55.35 24 55.55 23.85 55.55 23.6 55.55 23.35 55.35 23.2
M 54.25 20.2
L 54.25 20.05
Q 53.8 19.6 54.25 20.2
M 53.4 15.6
Q 53.7 15.7 54.05 15.7 53.55 15.4 53.05 15.2 53 15.15 52.9 15.25 53.1 15.45 53.4 15.6
M 57.95 17.8
Q 57.3 16.7 56.25 16.65 55.6 16.85 54.85 17.3
L 57.95 17.8
M 48.1 21.55
Q 48.2 21.8 48.35 21.5 47.85 21.05 48.1 21.55
M 49.45 22.9
Q 49.5 22.8 49.55 22.7
L 47.75 23.1 48.2 23.4
Q 48.45 23.35 48.75 23.35 49.25 23.4 49.45 22.9
M 45.75 18.6
Q 45.8 19.35 45.9 18.8 45.95 18.65 45.75 18.6
M 49.85 21.35
L 49.4 21.35 49.4 21.75 49.85 21.75 49.85 21.35
M 41.55 23.6
Q 41.45 24.05 41.85 23.6 41.65 23.25 41.55 23.6
M 42 21.8
Q 42.1 22.3 42.3 22.75 42.3 22.85 42.45 22.95 42.55 22.9 42.65 22.85 42.85 22.7 43 22.55 43.05 23.7 44.05 24.65 44.75 25.25 45.6 24.85
L 45.95 23.65
Q 45.5 22.85 44.65 22.45 43.8 22.1 43.05 22.4
L 42.7 21.95 42 21.8
M 42.55 21.6
Q 42.95 20.75 41.85 20.6 41.75 20.6 41.7 20.65 41.7 21.3 42.45 21.4 42.5 21.5 42.55 21.6
M 41.1 21.3
Q 40.95 21.3 40.85 21.4 40.75 21.55 40.75 21.75 40.75 21.95 40.85 22.05 40.95 22.2 41.1 22.2 41.25 22.2 41.35 22.05 41.45 21.95 41.45 21.75 41.45 21.55 41.35 21.4 41.25 21.3 41.1 21.3
M 43.45 20.1
L 44.3 20.8 45.4 20.35
Q 46.35 20.35 46.8 21.25 46.9 21.45 47.1 21.65 46.7 20.75 45.45 20 44.9 19.7 44.35 19.5
L 43.45 20.1
M 43.3 17
Q 43.3 16.95 43.35 16.9 43.1 16.15 43.3 17
M 45 16.8
L 44 16.8
Q 44 17.3 44.35 17.6 44.4 17.65 44.5 17.7 45.05 17.7 45 16.8
M 43.45 18.5
Q 43.65 18.35 43.75 18.1 43.35 18.45 43 18.8 43.25 18.7 43.45 18.5
M 40.85 18.45
Q 41.65 18.35 42.2 17.9 42.05 17.65 41.9 17.45 41.3 17.55 40.75 17.8 40.45 17.8 40.25 18 40.3 18.5 40.85 18.45
M 42.4 14.3
Q 41.65 14.65 42.45 14.4
L 42.4 14.3
M 43.75 14.45
Q 43.75 14.9 44.05 14.5 43.75 14.2 43.75 14.45
M 46 15.25
L 46.05 14.8
Q 45.8 14.45 45.35 14.65 45.2 14.75 45.15 14.95
L 46 15.25
M 46.85 17.8
Q 46.8 18.5 47.15 17.95 47.4 17.6 46.85 17.8
M 71.4 24.45
Q 71.15 24.45 71 24.6 70.85 24.75 70.85 25 70.85 25.25 71 25.4 71.15 25.55 71.4 25.55 71.65 25.55 71.8 25.4 71.95 25.25 71.95 25 71.95 24.75 71.8 24.6 71.65 24.45 71.4 24.45
M 64.25 22.2
Q 64.35 22.1 64.45 22 63.95 21.8 63.75 21.3 63.5 20.6 62.9 20.95
L 62.95 21.75
Q 63.55 22.25 64.25 22.2
M 62 21.8
Q 62 22.35 62.35 22.55 62.4 22.65 62.5 22.7 63.3 22.6 63 21.8
L 62 21.8
M 72.05 59.65
L 72.15 59.65
Q 71.8 59.25 71.4 58.85
L 72.05 59.65
M 39.65 73.85
Q 37.45 72.75 35 72.6
L 35.5 74.4
Q 35.8 74.8 36.2 74.7 36.6 74.6 37 74.55 36.95 74.85 37.05 75.15 37.05 75.2 37.2 75.25 37.35 75.05 37.35 74.9 37.35 74.7 37.2 74.5 38.55 74.05 39.45 74.85 40.65 76 40.9 77.65 41.05 78.4 41.75 79
L 42.55 78.85 41.75 78.05 44.05 77.75 44.7 77.25 44.85 76.85 43.75 77.45
Q 42.25 75.25 39.65 73.85
M 35 72.6
L 34.65 72.4 34.5 72.5
Q 34.7 72.85 35 72.6
M 23.8 49.05
Q 23.7 49 23.55 48.9 23.05 48.75 23 48.9
L 23.8 49.05
M 61.35 24.65
L 61.35 24.45
Q 61.4 24.55 61.45 24.85
L 62.65 24.25
Q 60.95 22.55 58.75 23.6 57 24.4 55.3 24.85 53.8 25.2 52.25 24.65 51.25 24.35 51.35 23.35 51.7 22.65 52.6 22.45 53.3 22.25 54 21.95 54.35 21.9 54.65 21.75 54.1 21.3 53.4 21.4 51.65 21.75 50.7 23.15 50.65 23.5 50.65 23.85 50.65 24.05 50.8 24.3 51 24.7 51.25 25.1
L 47.25 24.3
Q 47.65 25.9 46.75 27.05 46 28 44.9 27.7 44.55 27.5 44.25 27.35 44.5 27.2 44.7 27 45.1 26.8 45.45 26.5 45.65 26.25 45.85 25.95 45.7 25.1 44.85 25.05 43.5 25.15 42.35 26.1
L 42.05 24.85 39.05 25.85
Q 40.5 26 41.35 27.05 41.95 27.75 42.65 27.85
L 38.55 28 40.05 29.25
Q 38.75 29.35 38.15 28.15 37.5 26.9 37.65 25.75 36.2 26.2 34.9 26.8 34.3 27 33.85 27.55 32.7 28.85 31.05 28.85 29.3 28.5 27.55 28.85
L 30.65 30.2 28.7 31.15 30.65 31.35 29.2 32.05 30.85 32.25 31.85 30.2
Q 32.5 31.15 32.2 32.25 31.8 33.9 31.6 35.65 31.5 36.75 30.7 37.35
L 27.15 37.5 28.65 37.9
Q 28.5 38.05 28.3 38.1 28.1 38.2 27.9 38.1 27.4 37.9 26.95 37.6 26 38.05 26.1 39.3 26.15 39.65 26.3 40.05 26.35 40.15 26.5 40.3 26.7 40.1 26.85 39.85 26.95 39.65 26.95 39.45 27 39.2 27 39 27.3 39.2 27.5 39.5 28 40.45 28.55 41.4 28.9 42 29.35 42.5
L 27.55 44.25
Q 27.6 43.6 27.6 43 27.6 42.75 27.6 42.55 27.6 42.1 27.15 41.8
L 26.3 42.1
Q 25.65 43.75 26.05 45.5 26.4 46.8 27.6 47.35 27.8 47.45 28.1 47.45
L 28.95 46.9
Q 29.4 46.1 29.7 45.15 30.05 44.05 31.05 43.55 32.85 43.65 33.35 45.5 33.55 46.15 33.85 46.75
L 32.05 46.5 32.3 45.1 31.55 44.4
Q 30.35 44.45 29.95 45.75 29.45 47.45 27.85 48.2 27.25 48.2 26.65 47.85 26 47.4 25.4 46.9 25.25 48 24.5 48.7 24.2 48.95 23.8 49.05 24.05 49.65 23.45 49.8 23.2 49.8 23 49.8
L 23 48.9 22.5 48.5 22.25 47.5
Q 22.7 46.55 23.8 46.25 24.75 46 25.35 45.55 24.4 45.55 23.45 45.6 22.7 45.85 21.95 46.1 21.35 47.8 20.15 49 21.15 48.9 21.85 49.4 22.25 49.65 22.55 50.1 22.55 51.15 21.75 51.45
L 25.25 51.65 24.35 50
Q 26 50.2 26.25 51.55
L 25.7 52.45
Q 24.85 53 23.95 52.9 22 53.2 20.05 53.95 19.35 54.45 19.9 55 20.7 55.3 21.2 54.5 20.6 55.85 20.05 57.25
L 23.65 57.35
Q 22.9 56.6 22.8 55.6 23.7 53.85 25.6 53.6 26.9 53.35 28.25 53.15 28 54.95 29.05 56.55 29.4 57.1 29.2 57.55 28.05 58.2 27 57.2 25.95 56.05 25.05 54.75
L 25.15 55.75 23.65 55.05
Q 25.6 57.15 26.25 59.95 26.25 59.15 26.5 58.3 26.55 58.1 26.7 57.9
L 27.7 57.8 28.35 58.65
Q 27.4 58.65 26.85 59.2 26.6 59.5 26.25 59.95 26 60.2 26.05 60.3 26.75 61.15 27.85 61.65 28.35 61.9 29 62 29.9 61.8 30.4 61 30.85 60.25 30.45 59.8
L 29.9 59.55 28.5 60.7 27.65 60.6
Q 27.35 60.1 27.7 59.55 28.15 58.9 29.2 58.7 30.45 58.95 31.55 59.45 32.15 59.75 32.8 59.95 33.3 59.8 33.8 59.7 34 60.8 34.75 61.8 35.15 62.25 35 62.95 34.55 63.3 34.1 62.85 32.8 61.65 31.2 60.9 30.9 61.95 30 62.2 29.65 62.3 29.35 62.45 28.75 62.55 28.2 62.7 30.4 63.85 32.5 62.7
L 32.8 64.1 29.8 64.5 30.75 65.2 28.85 65.7
Q 29.15 65.95 29.5 66.25 29.75 66.4 30.05 66.55 30.3 66.6 30.6 66.65
L 31.05 66.45
Q 31.3 66.1 31.55 65.75 31.7 65.6 31.9 65.45 32.05 65.35 32.25 65.3 32.25 66.4 31.45 67.05 30.7 67.55 29.85 67.55
L 30 66.8 29.35 66.9
Q 29.1 67.2 28.9 67.5
L 29.25 67.85
Q 28.65 68.65 28.8 69.75 28.95 71.1 28.3 72.4
L 30 73.1
Q 29.4 70.95 30.15 69 30.2 70.05 30.8 70.8 31.05 71.1 31.45 71.25 31.95 71.45 32.5 71.6 32.1 71.95 31.65 72.1 30.95 72.25 30.5 72.9 30.35 73.05 30.3 73.3
L 31.1 73.75 34.65 72.4
Q 36.05 72.15 37 71.2 37.1 71.1 37.3 71.15 38 71.7 37.65 72.65 38.85 72.05 40.25 72.75 43.65 74.45 45.55 77.7 45.75 78.05 46.05 78.4 46.25 78.7 46.55 78.95 46.7 78.95 46.8 78.85 47.05 78.65 47.2 78.35 47.05 76.9 46.4 75.5 45.85 74.45 46.05 73.25 46.6 74.05 47.1 74.9 47.3 75.3 47.4 75.8 47.3 75.95 47.2 76.1 47.1 76.15 47.05 76.2 46.9 76.2 46.75 76.25
L 47.25 77.1
Q 48.3 76.75 48.45 75.7 48.6 74.6 47.85 73.55 49.1 73.85 49.75 75.1 50.15 75.9 51 76.25
L 51.8 76.1
Q 52.5 75.25 52.4 74.3 52.3 73.4 51.6 72.95
L 49.4 72.65 49.15 71.85 49.7 70.4 49.45 69.95 47.95 69.4
Q 48.15 69.25 48.35 69.15 49.2 68.8 49.6 67.9 49.9 67.35 50.2 66.8 50.3 66.6 50.45 66.45 50.6 68.2 51.05 69.65 51.3 70.35 51.9 70.75 52.25 70.95 52.2 71.25 52.05 71.35 51.95 71.45 51.9 71.6 51.9 71.75
L 52.35 72.1 52.9 72.15 54.6 71.55 54.3 70.2 58.9 72.6
Q 57.6 73.45 56 73.1 54.8 72.95 53.75 73.45
L 53.55 73.85
Q 53.7 74.2 53.95 74.5 54.1 74.7 54.35 74.85
L 54.6 76.05
Q 56 75.45 57.3 74.65 58.2 74.15 59.35 74.05 60.75 73.9 62.1 73.85 62.85 73.6 63.6 73.35 64 73.35 64.4 73.35 65.35 73.85 65.7 74.85 65.95 75.5 66.7 76 67.7 75.45 68.7 74.9 66.55 75.45 65.45 73.65 65.25 72.6 66 71.8 66.2 71.6 66.35 71.3 66.7 70.35 66 69.7 65.4 69.25 64.8 68.95 64.55 68.8 64.3 68.8
L 63.65 69.6
Q 64.65 70.15 64.8 71.25 63.9 70.5 62.85 69.8 62.45 69.5 62.2 69.05 61.9 68.45 61.65 67.8 63.2 68.6 65 68.35 65.95 68.35 66.9 68.4 67.1 68.25 67.35 68.15 67.35 66.9 65.95 66.45
L 66.85 66.1
Q 68.45 66.75 69.5 68.35
L 70.35 68.35
Q 69.896484375 68.285546875 69.5 67.95 68.5 67.1 67.95 65.65 67.45 64.45 66.2 64.15 65.45 64.2 64.9 63.85 64.75 63.4 65.1 62.85 65.25 62.6 65.45 62.35
L 65.25 63.5 67.15 62.9
Q 65.95 61.25 64.05 60.7 62.45 60.2 61.6 58.7 60.75 57.25 59 57.55 59.6 56.4 60.8 56.65 62.05 57.05 62.75 58.15 63.1 58.7 63.7 59.1 66.15 60.8 68.75 62.4 69.45 62.8 70.15 63.1
L 70.05 63.25
Q 69.35 63.65 68.4 63.3 67.9 63.1 67.45 62.9
L 69.05 65.3
Q 69.35 64.7 69.95 64.4 71 63.95 72.3 63.8 71.35 62.8 71.35 61.4 72.2 62.15 73 61.8 73.45 60.5 72.05 59.65
L 71.15 60.1 70.2 61 69.45 60.4
Q 69.6 59.45 70.5 58.6
L 70.45 58.1 71.4 58.85 71.25 57.55 72.1 58.5
Q 72.5 58.05 72.9 57.6 72.7 57.45 72.55 57.3 72.4 57.15 72.4 57 72.3 56.4 71.8 55.65 70.8 55.05 69.85 54.8 69.35 54.55 68.9 54.2
L 69.05 53.55 71.05 53.6
Q 71.1 53.5 71.15 53.35 71.2 53.25 71.2 53.1 71.2 52.9 71.15 52.75 71.1 52.5 71 52.25 71.2 52.45 71.45 52.7 71.6 52.8 71.8 52.9 71.85 52.95 72 52.95 72.15 52.85 72.3 52.8
L 72.25 52.15
Q 71.9 51.8 71.3 51.6 69.9 51.35 69.65 50 70.25 50 70.9 50.2 72.1 50.7 72.9 49.95 72.95 49.75 72.95 49.55 72.95 49.35 72.9 49.25 72.8 49.05 72.65 48.9 71.65 48.45 70.75 48.7 69.5 49.05 68.9 48.1 69 47.35 69.75 47.3 71.25 46.85 72.65 47.45 73.5 47.85 73.45 48.85 73.35 49.95 73.25 50.9 73.2 51.55 73.55 52.1 73.75 52.35 74.1 52.5
L 75.85 51.1
Q 75.9 51.05 75.95 51.05 76 51.15 76.05 51.3 76.05 51.45 76.1 51.6 76.2 51.7 76.35 51.8 76.65 51.85 76.9 52.05 76.95 52.1 76.9 52.3 76.9 52.45 76.95 52.6 76.95 52.7 77 52.8
L 78 52.8 77.15 51.95 77.6 51.85 77.8 51.45
Q 77.9 50.7 77.15 50.5 76.25 50.45 75.45 51.15 75.05 51.5 74.6 51.4 74.2 50.75 74.4 50.15 74.85 48.65 74.1 47.55 73.55390625 46.6564453125 73.25 45.7 73.278515625 45.75 73.45 45.75 74.55 46.2 75.4 47.5 76.15 48.6 77.3 48.75 77.5 48.7 77.7 48.7
L 78.5 47.9
Q 78.55 47.2 77.75 46.65 76.1 45.35 74.35 44.3 73.7 44 73.2 43.2
L 73.4 43.15
Q 73.45 43.05 73.5 42.95 73.55 42.85 73.55 42.75 73.55 42.55 73.5 42.4 73.5 42.25 73.45 42.2 73.4 42.05 73.3 41.95 72.35 41.65 72.95 40.5 73.3 39.95 72.7 39.5 72.05 38.95 71.35 38.55 70.65 40 68.75 40.3 66.05 40.6 63.45 40.4 61.6 40.45 60.05 41.35
L 59.45 40.25
Q 61.4 39.2 63.6 39.4 66.9 39.9 69.8 38.65
L 69.75 37.9 59.55 37.15 61.55 36.05
Q 61.6 36.15 61.65 36.3 61.7 36.45 61.75 36.65 61.85 36.8 61.95 36.95 62 37 62.1 37.05 62.25 37.05 62.4 37.05 62.5 36.35 61.65 35.8 60.65 35.1 59.35 34.45 58.8 34.15 58.25 33.9 58.95 33.4 59.7 33 60.85 32.45 62.4 32.1 62.9 32.05 63 31.75
L 63.05 31.5
Q 63.35 31.9 63.65 32.5 63.65 32.45 63.8 32.35 64.25 32.4 64.8 32.6 65.8 32.8 66.85 33
L 65.55 31.35
Q 66.3 31.1 67 30.7 67.6 30.5 68 30 68.4 29.55 68.7 29
L 69.5 29.6
Q 69.8 28.2 68.85 26.95 68.1 25.95 68.9 25 69.4 24.35 69.9 23.75
L 67.4 25.25 65.5 22 66.25 24.55 65.95 25.4 63.9 25.2
Q 63.75 25.4 63.7 25.7 63.65 26.3 63.7 26.95
L 60.9 27.1 59.7 29.85
Q 59.7 30.3 61 30.6 61.85 30.6 62.65 31 60.85 31.25 59.7 32.2 59.4 32.5 59.05 32.7 58.85 32.7 58.65 32.75 58.45 32.7 58.35 32.6 58.15 32.55 58.1 32.45 58 32.25 58 32.1
L 58.65 31
Q 57.6 30.95 56.7 30.2 55.05 28.75 55.9 26.7 56.4 25.6 57.55 25.3 58.65 24.85 59.85 24.55 60.6 24.6 61.35 24.65
M 52.3 30.3
Q 52.05 29.85 52 29.35 52 29.3 52.05 29.25 53.4 28.95 53.9 30.75 54 31.1 54.1 31.45
L 54.15 31.45
Q 55.2 30.2 56.7 30.8 56.85 30.85 56.95 31
L 56.65 31.85
Q 55.95 32.1 54.95 31.65 54.55 31.55 54.15 31.45
L 54.15 31.5 54.1 31.45
Q 53 31.35 52.3 30.3
M 53.05 28.1
L 52.95 28.6
Q 52.95 28.35 53 28.1 53.1 27.85 53.25 27.65
L 53.05 28.1
M 51.05 26.35
Q 52.3 26.1 53.55 26.6
L 51.3 26.45
Q 50.5 27.2 51.25 28.2 49 27.7 47.75 25.8 49.45 25.9 51.05 26.35
M 52.45 33.05
Q 51.95 32.35 51.55 31.6 53.05 32.3 53.35 34 53.4 34.25 53.5 34.45
L 54.35 33.8 55.75 35.3 53.15 35.8
Q 52.7 36.45 52.15 37
L 52.1 36.9 52.1 35.9
Q 52.7 35.25 52.8 34.35 52.9 33.65 52.45 33.05
M 51 33.8
Q 51.1 33.3 51.3 32.85 51.3 32.8 51.45 32.8 51.7 32.85 51.85 33 52 33.15 52.05 33.45
L 51 33.8
M 57.55 36.1
Q 56.65 35.7 56.35 34.8
L 58.35 35.6
Q 58.55 36.1 58.15 36.05 57.85 36.05 57.55 36.1
M 47.7 28.25
Q 47.5 28.1 47.35 28
L 48 27.8
Q 48.65 28.15 48.1 28.3 47.9 28.35 47.7 28.25
M 45.85 29.4
L 46.85 29.8
Q 46.1 30.15 44.8 29.85 43.7 29.65 42.95 28.8 44.5 28.5 45.85 29.4
M 49.25 28.9
Q 49.2 29.25 49.05 29.55 48.95 29.7 48.8 29.8 48.35 29.55 48.65 28.95 48.85 28.6 49.25 28.9
M 42.85 30.45
Q 43 30.6 43 30.85 43 31.1 42.85 31.25 42.75 31.4 42.55 31.4 42.35 31.4 42.2 31.25 42.1 31.1 42.1 30.85 42.1 30.6 42.2 30.45 42.35 30.3 42.55 30.3 42.75 30.3 42.85 30.45
M 44.95 33.3
L 44.25 33.8
Q 44.1 35 42.9 35.3 42.7 35.35 42.55 35.4
L 42.45 35.35
Q 42.25 34.55 42.6 34 43.4 32.75 44.95 33.3
M 40.9 35.8
Q 40.95 35.9 40.9 36.05
L 40.1 36.15 37.35 33.45
Q 37.5 33.15 37.7 32.95 37.8 32.8 38 32.75 38.95 33 39.55 33.5 39.9 33.75 40.4 33.55 41.15 33.55 41.85 33.3
L 41 34.2
Q 40.7 34.95 40.9 35.8
M 48.05 32.45
Q 47.65 32.7 47.25 32.95 47.6 30.7 50 31.1 50.5 31.2 50.95 31.6 49.35 31.8 48.05 32.45
M 46.85 36
L 47 35.05 45.75 33.8
Q 47.6 33.7 47.85 35.6
L 48.55 35.45
Q 48.7 35.5 48.8 35.65 49.05 35.95 49.25 36.35 49.3 36.45 49.3 36.6 49 37.05 48.3 37.2 46.5 36.95 44.85 37.25 43.35 37.05 42.55 35.95
L 45.75 35.2 45.25 36.1 46.85 36
M 49.8 41
Q 50.6 41.4 49.9 41.7 49.85 41.75 49.75 41.75
L 48.8 40.8
Q 49.3 40.9 49.8 41
M 46.85 40.8
L 46.35 41.4 45.35 42.1 45.55 40.5 46.85 40.8
M 41.95 37.55
Q 41.9 37.7 41.8 37.85
L 40.7 37.9
Q 40.7 37.6 40.85 37.4 41.05 37.1 41.35 36.9 42.1 36.75 41.95 37.55
M 41.55 42.5
Q 41.9 42.65 42.25 42.8
L 44.75 44.9
Q 43.35 44.2 41.95 43.8 40.45 43.45 39.35 42.4 40.5 42.1 41.55 42.5
M 42.2 41.05
Q 42 40.65 41.75 40.35 41.45 40.1 41.05 39.95
L 41 40.8
Q 39.5 40.75 38.9 39.5
L 45.05 39.2 44.05 40.8 43 39.9 43.15 41.8
Q 42.45 41.7 42.2 41.05
M 44.5 41.8
Q 44.2 41.6 44 41.3
L 44.95 42
Q 44.65 41.95 44.5 41.8
M 44.1 46.15
Q 43.85 45.95 43.75 45.7 44.35 46.1 44.95 46.5
L 44.9 46.5
Q 44.7 46.5 44.55 46.5 44.25 46.35 44.1 46.15
M 40.9 48.1
Q 41 48.25 41.15 48.45
L 40.05 48.3
Q 39.2 48.4 39.15 49.2 39.1 50.05 39.25 50.9 39.35 51.55 39.55 52.2 38.6 51.2 38.6 49.5 38.6 48.45 39.3 47.75
L 39.95 47.5
Q 40.5 47.65 40.9 48.1
M 42.1 47.15
Q 42.4 46.95 42.8 46.95 43.2 46.95 43.5 47.15 43.8 47.4 43.8 47.75 43.8 48.1 43.5 48.3 43.2 48.55 42.8 48.55 42.4 48.55 42.1 48.3 41.8 48.1 41.8 47.75 41.8 47.4 42.1 47.15
M 44.8 48.1
Q 44.7 48.1 44.7 48 45.3 47.2 46.35 47.3 46 47.55 45.7 47.8 45.5 48.7 44.8 48.1
M 49 44.6
Q 48.65 44.5 48.4 44.35 48.15 44.1 48 43.8
L 49 44.6
M 48.3 44.85
Q 48.3 44.8 48.45 44.8 48.7 44.85 48.85 45 49 45.15 49.05 45.45
L 48 45.8
Q 48.1 45.3 48.3 44.85
M 49.55 47
Q 49.75 47.25 49.75 47.55 49.75 47.85 49.55 48.05 49.35 48.3 49.1 48.3 48.85 48.3 48.65 48.05 48.45 47.85 48.45 47.55 48.45 47.25 48.65 47 48.85 46.8 49.1 46.8 49.35 46.8 49.55 47
M 60.3 37.95
Q 60.3 37.7 60.45 37.5 60.6 37.35 60.8 37.35 61 37.35 61.15 37.5 61.3 37.7 61.3 37.95 61.3 38.2 61.15 38.35 61 38.55 60.8 38.55 60.6 38.55 60.45 38.35 60.3 38.2 60.3 37.95
M 59 38.45
Q 59 38.6 59 38.8
L 58 38.8
Q 58 38.4 58.3 38.05 58.4 37.95 58.5 37.9 59 37.95 59 38.45
M 57.9 38.1
Q 57.9 38.3 57.75 38.45 57.65 38.6 57.5 38.6 57.35 38.6 57.2 38.45 57.1 38.3 57.1 38.1 57.1 37.9 57.2 37.75 57.35 37.6 57.5 37.6 57.65 37.6 57.75 37.75 57.9 37.9 57.9 38.1
M 55.85 39
Q 56 39.15 56.05 39.45
L 55 39.8
Q 55.1 39.3 55.3 38.85 55.3 38.8 55.45 38.8 55.7 38.85 55.85 39
M 56.25 41.7
L 56.45 42.9 55.4 42.85
Q 55.1 41.95 56.25 41.7
M 57.5 42.45
L 57.65 41.85 58.35 41.8
Q 58.3 42.15 58.15 42.45 58.1 42.6 57.95 42.75
L 57.5 42.45
M 56 41.2
L 56 40.8 56.85 40.8 56.85 41.2 56 41.2
M 53.3 37.85
Q 53.3 37.8 53.45 37.8 53.7 37.85 53.85 38 54 38.15 54.05 38.45
L 53 38.8
Q 53.1 38.3 53.3 37.85
M 51.95 38.05
Q 52.1 38.2 52.1 38.45 52.1 38.7 51.95 38.85 51.85 39 51.65 39 51.45 39 51.3 38.85 51.2 38.7 51.2 38.45 51.2 38.2 51.3 38.05 51.45 37.9 51.65 37.9 51.85 37.9 51.95 38.05
M 51.45 40.8
L 52 41.4 52 42.2
Q 51.5 41.95 51.1 41.7 50.85 41.5 50.65 41.25 50.65 41.1 50.75 41.05 50.85 40.9 51.05 40.8 51.25 40.8 51.45 40.8
M 54.05 41.8
Q 54.2 41.9 54.2 42 54.2 42.1 54.05 42.2 53.95 42.3 53.75 42.3 53.55 42.3 53.4 42.2 53.3 42.1 53.3 42 53.3 41.9 53.4 41.8 53.55 41.7 53.75 41.7 53.95 41.7 54.05 41.8
M 53.35 45.1
L 55.15 46.3 53.85 46.6 53.35 45.1
M 54.25 43.9
Q 54.25 44.1 54.05 44.2 53.9 44.35 53.65 44.35 53.4 44.35 53.2 44.2 53.05 44.1 53.05 43.9 53.05 43.7 53.2 43.55 53.4 43.45 53.65 43.45 53.9 43.45 54.05 43.55 54.25 43.7 54.25 43.9
M 52.4 46.8
Q 52.3775390625 46.8 52.35 46.8 51.5 46.25 50.7 45.8 50.25 45.6 50.05 45.1 51.8818359375 45.1 52.4 46.8
M 60.55 44.8
Q 60.35 45.2 60.25 45.7 60.1 45 60.05 44.35 60 43.7 60.1 43.05 60.65 42.75 61.3 42.65 61.95 42.4 62.65 42.4 61.25 43.3 60.55 44.8
M 57.7 44.65
Q 57.9 44.8 57.9 45 57.9 45.2 57.7 45.3 57.55 45.45 57.3 45.45 57.05 45.45 56.85 45.3 56.7 45.2 56.7 45 56.7 44.8 56.85 44.65 57.05 44.55 57.3 44.55 57.55 44.55 57.7 44.65
M 56.05 48.9
Q 56.55 49.15 55.95 49.4 55.65 49.45 55.35 49.55 55.15 49.55 54.95 49.6 54.95 49.45 56.05 48.9
M 56.75 47.05
L 57.65 46.5
Q 57.5 47.4 57 47.75 56.95 47.8 56.85 47.8 56.7 47.65 56.7 47.55 56.65 47.3 56.75 47.05
M 59.9 48.65
Q 60.05 48.8 60.2 48.95 60.25 49.25 60.15 49.5 60.1 49.8 59.95 50.05 59.1 50.35 58.6 49.5 58.3 49 58.75 48.6 59.4 48.2 59.9 48.65
M 65.8 27.45
Q 66 27.6 66 27.8 66 28 65.8 28.1 65.65 28.25 65.4 28.25 65.15 28.25 64.95 28.1 64.8 28 64.8 27.8 64.8 27.6 64.95 27.45 65.15 27.35 65.4 27.35 65.65 27.35 65.8 27.45
M 66.45 26
L 67.55 26.3 67.75 27.3
Q 67.3 27.1 67 26.75 66.65 26.45 66.45 26
M 62.15 27.65
L 63.15 27.2
Q 63.45 27.9 62.55 28.4 62.45 28.5 62.35 28.5 61.85 28.1 62.15 27.65
M 63.45 29.85
Q 64.05 28.35 65.45 29 66.25 29.65 65.35 30.2 64.65 30.6 64.1 30.6
L 63.45 29.85
M 67.25 42.9
L 67.55 41.55 68.1 41.15 68.75 41.1
Q 69.35 41.55 70.05 42 70.85 42.5 71.75 43 70.6 43.1 69.4 42.75 68.95 42.65 68.6 42.35 68.4 42.2 68.25 42
L 67.25 42.9
M 70.75 41.15
Q 70.65 41.1 70.6 41.05 70.65 40.35 71.5 40.35 71.55 40.35 71.65 40.4 71.35 40.95 70.75 41.15
M 64.75 42.35
L 65.45 42.8 65.9 42.7
Q 66.45 43 65.95 43.45 65.85 43.55 65.75 43.65
L 64.95 43.7
Q 64.25 43.95 64.1 44.95 64.05 45.25 63.85 45.45 63.75 45.55 63.65 45.65 62.8 45.05 63.15 43.95 63.7 42.05 65.25 41
L 65.75 41.8
Q 65 41.65 64.75 42.35
M 65.4 45.05
Q 65.9 45.8 65.25 45.35 64.95 45.15 65.25 45.15 65.3 45.05 65.4 45.05
M 61.85 46
Q 62.05 46 62.15 46.15 62.3 46.3 62.3 46.5 62.3 46.7 62.15 46.85 62.05 47 61.85 47 61.65 47 61.5 46.85 61.4 46.7 61.4 46.5 61.4 46.3 61.5 46.15 61.65 46 61.85 46
M 61.5 49.15
L 61.35 48.7
Q 62.7 47.85 63.85 48.9 64.15 49.25 64.45 49.6 62.75 50.1 61.5 49.15
M 67.45 43.65
Q 67.7 43.95 67.7 44.35 67.7 44.75 67.45 45 67.25 45.3 66.9 45.3 66.55 45.3 66.3 45 66.1 44.75 66.1 44.35 66.1 43.95 66.3 43.65 66.55 43.4 66.9 43.4 67.25 43.4 67.45 43.65
M 67.65 46.05
Q 67.45 45.85 67.95 45.8 68 46.4 67.65 46.05
M 75 45.8
L 74 45.8
Q 74.05 45.45 74.3 45.05 74.4 44.95 74.5 44.9 75 45 75 45.45 75 45.6 75 45.8
M 72.15 44.05
L 72.15 44.9
Q 71 45.9 69.55 45.2 69.85 43.25 71.75 43.75 71.95 43.85 72.15 44.05
M 76.45 47.9
Q 76.6 47.8 76.8 47.8 77 47.8 77.1 47.9 77.25 48 77.25 48.1 77.25 48.2 77.1 48.3 77 48.4 76.8 48.4 76.6 48.4 76.45 48.3 76.35 48.2 76.35 48.1 76.35 48 76.45 47.9
M 36.75 26.9
Q 36.85 26.85 36.85 26.7 37.2 27.25 37.05 27.95 37.05 28.05 37 28.15
L 36.1 28.2
Q 36.15 27.4 36.75 26.9
M 39 29.95
Q 39.15 30.1 39.15 30.3 39.15 30.5 39 30.65 38.9 30.8 38.75 30.8 38.6 30.8 38.45 30.65 38.35 30.5 38.35 30.3 38.35 30.1 38.45 29.95 38.6 29.8 38.75 29.8 38.9 29.8 39 29.95
M 34 30.7
Q 34.25 30.7 34.4 30.9 34.6 31.1 34.6 31.4 34.6 31.7 34.4 31.9 34.25 32.1 34 32.1 33.75 32.1 33.55 31.9 33.4 31.7 33.4 31.4 33.4 31.1 33.55 30.9 33.75 30.7 34 30.7
M 34.8 30.4
Q 33.9 30.2 34.75 29.7 35.15 29.5 35.65 29.4
L 34.8 30.4
M 35.25 32.65
Q 35.4 32.8 35.4 33 35.4 33.2 35.25 33.35 35.15 33.5 34.95 33.5 34.75 33.5 34.6 33.35 34.5 33.2 34.5 33 34.5 32.8 34.6 32.65 34.75 32.5 34.95 32.5 35.15 32.5 35.25 32.65
M 32.55 36.95
L 32.65 36.9
Q 32.8 36.8 33.05 36.8 33.15 37.3 32.55 36.95
M 33.55 35
Q 33.3 34.6 33.55 34.4
L 34.1 34.35
Q 34.55 34.65 34.85 35.1 35 35.25 35 35.5
L 34.25 35.7
Q 33.85 35.35 33.55 35
M 36.9 31.05
Q 37.05 31.2 37.05 31.45 37.05 31.7 36.9 31.85 36.8 32 36.6 32 36.4 32 36.25 31.85 36.15 31.7 36.15 31.45 36.15 31.2 36.25 31.05 36.4 30.9 36.6 30.9 36.8 30.9 36.9 31.05
M 39.85 32.5
L 40.35 30.35 41.85 29.1 39.85 32.5
M 30 42.8
L 30 41.8
Q 30.6 41.8 30.8 42.15 30.85 42.2 30.9 42.3 30.85 42.7 30.45 42.85 30.2 42.8 30 42.8
M 30.2 41.4
L 29 40.3 29 39.8
Q 29.25 38.4 30.9 38.9 31.05 39 31.25 39.15 30.75 39.35 30.25 39.6
L 30.9 40.95
Q 30.75 41.1 30.55 41.15 30.4 41.3 30.2 41.4
M 39.75 37.95
Q 39.75 38.15 39.6 38.25 39.45 38.4 39.2 38.4 38.95 38.4 38.8 38.25 38.65 38.15 38.65 37.95 38.65 37.75 38.8 37.6 38.95 37.5 39.2 37.5 39.45 37.5 39.6 37.6 39.75 37.75 39.75 37.95
M 35.9 37.75
Q 35.95 37.95 36 38.2
L 35.1 37.5 35 36.6
Q 35.7 36.9 35.9 37.75
M 35.75 39.95
Q 35.75 40 35.75 40.1 35.15 40.25 35.1 39.45 35.1 39.00859375 34.95 38.85 35.6173828125 39.1548828125 35.75 39.95
M 36.45 42.8
Q 36.35 42.45 36.35 42.1 38.45 42.75 39.85 44.35 40.1 44.6 40.35 44.9 38.75 44.65 37.15 43.6 36.65 43.3 36.45 42.8
M 37.4 40.75
Q 37.55 40.6 37.7 40.6 37.85 40.6 37.95 40.75 38.1 40.9 38.1 41.1 38.1 41.3 37.95 41.45 37.85 41.6 37.7 41.6 37.55 41.6 37.4 41.45 37.3 41.3 37.3 41.1 37.3 40.9 37.4 40.75
M 33.95 37.25
Q 34.15 37.4 34.15 37.65 34.15 37.9 33.95 38.05 33.75 38.2 33.5 38.2 33.25 38.2 33.05 38.05 32.85 37.9 32.85 37.65 32.85 37.4 33.05 37.25 33.25 37.1 33.5 37.1 33.75 37.1 33.95 37.25
M 32.5 39.45
L 32.9 39.25
Q 33 39.65 33 40.05 32.95 40.75 32.75 41.4 32.65 41.65 32.55 41.9
L 31.9 41.1 32.15 40.2 32.5 39.45
M 34.45 43.3
L 35.05 43.3 35.15 43.75 34.7 44.45 34.1 44.35
Q 34.15 43.9 34.25 43.45 34.3 43.35 34.45 43.3
M 35.25 42.7
Q 35.241796875 42.6458984375 35.15 42.6 35.199609375 41.7068359375 35.25 42.7
M 30.85 47.2
L 31.2 47.45
Q 31.65 49.35 29.45 49.5 28.5 49.6 28.05 48.8 28.95 47.6 30.4 47.2 30.6 47.2 30.85 47.2
M 33.05 49.35
Q 33.25 49.35 33.35 49.45 33.5 49.6 33.5 49.8 33.5 50 33.35 50.1 33.25 50.25 33.05 50.25 32.85 50.25 32.7 50.1 32.6 50 32.6 49.8 32.6 49.6 32.7 49.45 32.85 49.35 33.05 49.35
M 34.95 49.05
Q 34.9 49.1 34.8 49.05 34.85 48.5 35.5 48.5 35.6 48.5 35.75 48.5 35.3 48.6 34.95 49.05
M 35.35 46.45
Q 35.3 46.45 35.25 46.45 34.5 46.4 34.95 45.35 35.2 44.75 35.9 44.25 35.6 44.05 35.95 43.75 36.35 43.4 36.5 43.75
L 36.35 43.95
Q 36.8 44.3 37.4 44.55 38.7 45.25 39.75 46 38 46.2 36.55 45.3 36.05 45.15 35.8 45.65 35.65 46.05 35.35 46.45
M 40.05 50.4
L 40 49.8 40.65 49.9
Q 41.3 50 40.9 50.7 40.8 50.8 40.7 50.85 40.45 50.75 40.25 50.6 40.1 50.55 40.05 50.4
M 40.3 51.6
L 40.3 51.15 40.75 51.15 40.75 51.6 40.3 51.6
M 35.85 49.95
L 36.25 50.1
Q 36.85 50.5 36.15 50.9 35.9 51.1 35.65 51.3 35.55 51.25 35.45 51.25 34.7 50.65 35.35 50.15
L 35.85 49.95
M 37.3 51.85
Q 37.3 51.8 37.45 51.8 37.7 51.85 37.85 52 38 52.15 38.05 52.45
L 37 52.8
Q 37.1 52.3 37.3 51.85
M 38.8 55.15
Q 38.85 55.2 38.9 55.3 38.9 55.7 38.45 55.8 38.2 55.8 38 55.8
L 38 54.8
Q 38.55 54.8 38.8 55.15
M 32.3 54.5
Q 32.05 54.65 31.8 54.75
L 31.35 54.5 33.75 51.5 35.25 52.8 36.15 52.9
Q 34.2 53.3 32.3 54.5
M 30.95 51.4
L 31.45 52.9
Q 30.1 52.85 28.7 52.4 27.35 51.95 27.45 50.4 28.1 50.75 28.8 51.05 29.4 51.45 30.2 51.25 30.85 51.1 30.95 51.4
M 33 57.9
L 33.05 56.9 34.75 56.8 33.75 57.7
Q 34.55 58.35 34.15 59.25 33.05 59.55 32.25 58.7
L 33 57.9
M 31.25 56.8
Q 31.05 56.25 30.4 56.2 30 56.15 29.65 56.1
L 31.35 56 31.9 56.8 31.2 57.7 30.65 57.8 31.05 57.5 31.25 56.8
M 35.25 61.35
L 35.15 61.3 35.6 60
Q 35.45 60.7 35.25 61.35
M 40 57.6
Q 39.7 57.3 39.3 56.9 39.25 56.8 39.2 56.8 40.65 56.7 41 57.85 41 57.9 40.9 58 40.45 58.15 40 57.6
M 37.4 58.25
Q 37.55 58.4 37.55 58.65 37.55 58.9 37.4 59.05 37.25 59.2 37 59.2 36.75 59.2 36.6 59.05 36.45 58.9 36.45 58.65 36.45 58.4 36.6 58.25 36.75 58.1 37 58.1 37.25 58.1 37.4 58.25
M 36.05 55.95
L 36.35 55.95 36.35 56.5 36.05 56.5 36.05 55.95
M 37.4 60.8
Q 37.55 60.7 37.7 60.7 37.85 60.7 37.95 60.8 38.1 60.9 38.1 61 38.1 61.1 37.95 61.2 37.85 61.3 37.7 61.3 37.55 61.3 37.4 61.2 37.3 61.1 37.3 61 37.3 60.9 37.4 60.8
M 39.55 59.05
Q 39.7 59.2 39.7 59.4 39.7 59.6 39.55 59.75 39.45 59.9 39.25 59.9 39.05 59.9 38.9 59.75 38.8 59.6 38.8 59.4 38.8 59.2 38.9 59.05 39.05 58.9 39.25 58.9 39.45 58.9 39.55 59.05
M 27.25 50
Q 26.2 49.1 27.3 49.95
L 27.25 50
M 29.2 54.2
Q 29.55 53.2 30.35 53.8 31 54.25 30.25 54.65 29.95 54.8 29.7 54.95 29.6 54.9 29.5 54.9
L 29.2 54.2
M 40.3 63.75
L 40.15 63 38 63
Q 38 63.2 38.05 63.4 38.3 64.2 37.8 64.85 36.85 64.85 37.1 63.65 37.35 62.5 38.7 62.35 39.45 62.6 40.2 62.85 40.75 61.15 42.4 60.25 42.6 60.1 42.85 60
L 43.55 60.1 41.95 61.1 45.35 61.9
Q 43.35 62.7 41.45 63.9 41.35 63.95 41.25 63.95 41.1 64.1 40.9 64.2 40.75 64.15 40.7 64.1 40.45 63.95 40.3 63.75
M 38.9 64.95
L 38.95 64.4
Q 40.35 64.8 41.15 65.85 41.9 66.85 42.85 67.7 43.45 68.2 44.25 68.6
L 45.05 68.35
Q 44.75 67.4 44.25 66.65 43.8 66.05 42.95 65.6
L 42.65 64.5
Q 42.75 64.55 42.85 64.65 43.9 65.8 45.3 66.7 45.75 66.95 46.35 67.05
L 46.85 66.7
Q 46.4 68.65 44.6 69.05 43.85 69.25 43.1 69.25 42.55 69.15 42.05 69.1 42.1 70.05 42.65 70.35 43.45 70.8 44.5 71 44.75 71.05 45.05 71.1 44.4 71.9 43.1 71.9 42.6 71.9 42.1 71.7 41.15 70.15 40.9 68.15 40.75 67.2 40 66.3 39.65 65.85 39.25 65.4 39.05 65.2 38.9 64.95
M 36.95 67.1
L 35.75 66.25
Q 34.95 66.95 33.8 67.55 33.7 67.65 33.6 67.65
L 33.35 66.9
Q 33.9 66.1 34.7 65.4 34.95 65.1 35.1 64.8 35.2 64.5 35.25 64.25 36 65.3 37 65.6 37.5 65.85 38.05 66.1 38.45 66.2 38.8 66.45
L 38.95 67.25
Q 38.55 67.75 37.8 67.6 37.4 67.5 37 67.4
L 36.35 70.55
Q 35.65 69.25 34.95 68
L 36.95 67.1
M 33.65 68.15
Q 33.8 68.3 33.8 68.5 33.8 68.7 33.65 68.85 33.55 69 33.35 69 33.15 69 33 68.85 32.9 68.7 32.9 68.5 32.9 68.3 33 68.15 33.15 68 33.35 68 33.55 68 33.65 68.15
M 39.7 69.4
L 38.85 69.4
Q 39.25 69.2 39.5 68.8 39.75 68.5 40.2 68.35 40.3 68.45 40.45 68.55 40.35 69.25 39.7 69.4
M 66 49.8
Q 67.25 49.9 67.75 51.15 67.9 51.45 68 51.8
L 66 49.8
M 67.05 54.4
Q 66.65 54.6 66.2 54.55 65.75 54.75 65.3 54.55 64.55 54.1 63.85 53.2 63.15 52.35 62.15 51.8
L 65.85 51.6
Q 66.4 52.3 66.95 53.1 67.1 53.3 67.2 53.6
L 67.05 54.4
M 62.7 55.2
L 63.45 54.7
Q 64.6 54.9 65.45 55.8 65 56.8 63.6 56.6 63.3 56.55 63.05 56.5
L 62.65 56.1 62.7 55.2
M 62.1 51.8
L 61.5 51.5 60.5 51.4
Q 60.25 51.7 60.1 52 60.05 52.15 60.1 52.35
L 60.95 53.2 60.4 53.15
Q 59.35 53.6 58.75 54.5
L 58.2 52.6
Q 59.05 50.6 61.5 50.8 62.6 50.8 63.85 50.9
L 62.1 51.8
M 64.95 57.3
L 65.35 56.9
Q 66.05 57.2 66.55 57.95 66.65 58.1 66.75 58.3
L 64.95 57.3
M 70.15 56.1
Q 70.55 56.5 69.85 57 69.2 57.45 68.35 57.35
L 67.9 57.05 67.6 56.2 68.15 55.5 70.15 56.1
M 68 59.8
L 67 59.8
Q 66.85 59.4 67.3 59.05 67.4 58.95 67.5 58.9 67.9 59 68 59.45 68 59.6 68 59.8
M 63.75 63.45
Q 63.9 63.6 63.9 63.8 63.9 64 63.75 64.1 63.65 64.25 63.45 64.25 63.25 64.25 63.1 64.1 63 64 63 63.8 63 63.6 63.1 63.45 63.25 63.35 63.45 63.35 63.65 63.35 63.75 63.45
M 61.45 64.2
L 61.45 63.7 61.75 63.7 61.75 64.2 61.45 64.2
M 63.05 66.45
L 62 66.8
Q 62.1 66.3 62.3 65.85 62.3 65.8 62.45 65.8 62.7 65.85 62.85 66 63 66.15 63.05 66.45
M 60.95 69.8
L 61 70.8 60 69.8 60.95 69.8
M 55.85 51.85
Q 55.85 52 55.75 52.1 55.7 52.2 55.6 52.2 55.5 52.2 55.4 52.1 55.35 52 55.35 51.85 55.35 51.7 55.4 51.6 55.5 51.5 55.6 51.5 55.7 51.5 55.75 51.6 55.85 51.7 55.85 51.85
M 57.25 54.4
L 56.95 53.7
Q 57.8 53.75 57.35 54.35 57.3 54.4 57.25 54.4
M 52.05 50.95
Q 52.15 50.85 52.3 50.85 52.45 50.85 52.55 50.95 52.65 51.1 52.65 51.3 52.65 51.5 52.55 51.6 52.45 51.75 52.3 51.75 52.15 51.75 52.05 51.6 51.95 51.5 51.95 51.3 51.95 51.1 52.05 50.95
M 51.3 52.05
Q 51.4 51.95 51.5 51.9 52 52 52 52.45 52 52.6 52 52.8
L 51 52.8
Q 50.95 52.35 51.3 52.05
M 55.15 53.6
Q 55.3 53.75 55.3 54 55.3 54.25 55.15 54.4 55 54.55 54.75 54.55 54.5 54.55 54.35 54.4 54.2 54.25 54.2 54 54.2 53.75 54.35 53.6 54.5 53.45 54.75 53.45 55 53.45 55.15 53.6
M 55 57.35
L 55 56.8
Q 55.35 56.85 55.65 57.05 56 57.2 55.85 57.45
L 57.5 58.1
Q 56.8814453125 59.4986328125 55.5 59.4 54.3 59.4 53.1 59.55 52.6 59.35 52.1 59.15
L 51.95 58.7 52.15 58.2
Q 52.95 57.5 54.1 57.45 54.55 57.4 55 57.35
M 51.5 60.8
Q 51.9 60.9 52.35 61 52.2 61.1 52.15 61 51.8 61 51.5 60.8
M 57.05 56
Q 57.2 56.65 56.35 56.7 56.25 56.55 56.15 56.5
L 55.55 56 57.05 56
M 59.7 59.05
Q 59.85 59.1 59.9 59.25 59.9 59.3 59.8 59.45 59.75 59.6 59.7 59.75
L 59.7 60.7
Q 59.4 60.85 59.4 60.8 58.9 60.15 58.5 59.4 58.126953125 58.747265625 57.6 58.15
L 59.7 59.05
M 48.5 52.15
Q 48.3 52.15 48.1 52
L 48.75 51.4
Q 49 51.9 48.5 52.15
M 45.85 52
Q 46 52.15 46.05 52.45
L 45 52.8
Q 45.1 52.3 45.3 51.85 45.3 51.8 45.45 51.8 45.7 51.85 45.85 52
M 46.4 49.85
Q 46.15 50.05 45.85 50.2
L 47.45 48.9
Q 47.05 49.6 46.4 49.85
M 45.95 54.6
Q 46.45 54.65 46.2 55.3 46.15 55.5 46.1 55.7
L 44.95 56.15 44.2 55.7 44.3 54.9 45.95 54.6
M 47.4 53.65
L 47.55 53.2 48.65 54.55
Q 48.4 54.5 48.2 54.4 47.75 54.05 47.4 53.65
M 45 50.8
Q 45 51.2 44.6 50.8 44.5 50.75 44.6 50.7 44.75 50.65 45 50.8
M 42.15 50.35
L 42.65 50.1 43.05 50.3
Q 43.55 51.1 42.6 51.5 42.5 51.6 42.35 51.65 41.8 51.5 41.85 50.85
L 42.15 50.35
M 43.35 58.35
Q 44.35 58.4 45.55 58.7
L 43.55 58.65 43.35 58.35
M 50.25 57.25
Q 50.25 57.5 50.05 57.65 49.85 57.85 49.6 57.85 49.35 57.85 49.15 57.65 48.95 57.5 48.95 57.25 48.95 57 49.15 56.8 49.35 56.65 49.6 56.65 49.85 56.65 50.05 56.8 50.25 57 50.25 57.25
M 47.5 56.2
L 48.05 55.8
Q 48.2 56.7 47.45 56.3 47.45 56.25 47.5 56.2
M 48.55 61.35
L 47.75 59.8 51.25 62.9 50.05 62.4 48.5 62.55 48.55 61.35
M 48.45 64.65
L 48.35 64.75 48 65.95 47 66.35 45.75 65.4
Q 47.15 64.95 48.45 64.65
M 46.2 62.55
Q 46.15 62.2 46.25 61.9 46.65 61.3 47.15 61.75 47.25 61.85 47.3 62 47.4 62.45 46.9 62.65 46.65 62.8 46.45 62.95 46.25 62.75 46.2 62.55
M 44.85 63.35
Q 45 63.25 45.25 63.3 45.25 63.6 45.05 63.75 44.9 64 44.6 64.05 44.3 63.55 44.85 63.35
M 47 69.7
Q 47.35 69.6 47.55 69.9
L 47.75 70.3 47.05 70.95 46.45 70.45
Q 46.6 69.9 47 69.7
M 60 64.8
L 60.65 64.9
Q 61.2 65.15 60.85 65.7 60.8 65.8 60.7 65.85 60.45 65.75 60.25 65.6 60.1 65.55 60.05 65.4
L 60 64.8
M 58.05 62.25
Q 58.2 62.4 58.2 62.6 58.2 62.8 58.05 62.9 57.95 63.05 57.8 63.05 57.65 63.05 57.5 62.9 57.4 62.8 57.4 62.6 57.4 62.4 57.5 62.25 57.65 62.15 57.8 62.15 57.95 62.15 58.05 62.25
M 57.55 67.85
Q 57.75 67.7 58.05 67.7 58.35 67.7 58.55 67.85 58.75 68 58.75 68.25 58.75 68.5 58.55 68.65 58.35 68.8 58.05 68.8 57.75 68.8 57.55 68.65 57.35 68.5 57.35 68.25 57.35 68 57.55 67.85
M 56.85 66.1
L 56.55 65.2 57.75 64.9 58.35 65.1 56.85 66.1
M 56.25 66.6
Q 56.4 66.75 56.4 66.95 56.4 67.15 56.25 67.3 56.1 67.45 55.9 67.45 55.7 67.45 55.55 67.3 55.4 67.15 55.4 66.95 55.4 66.75 55.55 66.6 55.7 66.45 55.9 66.45 56.1 66.45 56.25 66.6
M 59.1 67.65
Q 58.85 67.65 58.7 67.45 58.55 67.25 58.55 67 58.55 66.75 58.7 66.55 58.85 66.35 59.1 66.35 59.35 66.35 59.5 66.55 59.65 66.75 59.65 67 59.65 67.25 59.5 67.45 59.35 67.65 59.1 67.65
M 55.2 64.05
Q 54.7 63.9 54.55 63.45 54.55 63.25 54.6 63.1 54.6 63 54.7 62.9 54.75 62.9 54.85 62.9
L 56.15 64.1
Q 55.65 64.05 55.2 64.05
M 52.85 62.05
Q 53 62.05 53.1 62.2 53.25 62.35 53.25 62.55 53.25 62.75 53.1 62.9 53 63.05 52.85 63.05 52.7 63.05 52.55 62.9 52.45 62.75 52.45 62.55 52.45 62.35 52.55 62.2 52.7 62.05 52.85 62.05
M 52.25 65.9
Q 51.95 65.8 51.65 65.75 53.1 64.7 54.55 65.3 54.65 65.4 54.75 65.55 54.7 65.7 54.65 65.8 54.6 66 54.5 66.15 54.4 66.25 54.25 66.35 53.3 66.3 52.25 65.9
M 51.45 68.7
Q 51.8 68.65 52.15 68.55 52.6 68.3 53.05 68
L 54.05 68.5 52.4 69.2 51.45 68.7
M 56.45 68.3
Q 56.6 68.45 56.7 68.65
L 56.35 70 54.85 68.25
Q 55.75 67.65 56.45 68.3
M 59.55 71.7
Q 59.55 71.55 59.7 71.4 60.6 70.65 62 71.2 61.9 72.3 60.65 72.65 60.5 72.8 60.3 72.85
L 59.6 72.45
Q 59.5 72.05 59.55 71.7
M 66.35 53.9
Q 66.8 53.3 66 52.95 65.5 52.7 65.2 53.05 65 53.75 66.2 53.75 66.25 53.8 66.35 53.9
M 40.2 62.85
L 40.15 63 40.25 63
Q 40.25 62.9 40.2 62.85
M 61.5 18.8
Q 61.5 18.85 61.6 18.9
L 61.55 18.45
Q 61.5 18.6 61.5 18.8
M 84.05 53.8
L 83.6 53.8 83.6 54.1 84.05 54.1 84.05 53.8
M 82.2 55.05
L 82.4 55.6 82.6 55.05 82.2 55.05
M 83.15 51.8
L 82.3 51
Q 81.5634765625 51.038671875 81 51.4 81.1208984375 51.18671875 81 50.8
L 80 50.8
Q 79.95 51.4 80.3 51.65 80.4 51.65 80.5 51.7 80.6119140625 51.68515625 80.7 51.65 80.6 51.75 80.5 51.85 79 51.8 77.85 50.5 77.8 52.05 79.35 52.5
L 77.9 53.5
Q 77.9 53.65 78 53.75 78.1 53.95 78.3 54.15 80 54 81.1 52.75 81.9 51.85 83.15 51.8
M 81.2 49.55
Q 81.25 49.8 81.35 50.1
L 81.55 49.6 81.35 49.1
Q 81.15 48.9 81.2 49.55
M 83.8 50.55
Q 83.9 50.15 84 49.8
L 83.35 49.9
Q 83.1 50.2 83 50.55 82.95 50.6 83.05 50.75 83.7 51.1 83.8 50.55
M 86.5 50.7
Q 87.2 50.7 87 49.8
L 86 49.8
Q 85.95 50.35 86.35 50.6 86.4 50.65 86.5 50.7
M 86.8 53.55
Q 86.9 53.15 87 52.8
L 86.35 52.9
Q 86.1 53.2 85.95 53.55 85.95 53.6 86.05 53.75 86.6 54.15 86.8 53.55
M 89.8 48.55
Q 89.9 48.15 90 47.8
L 89.35 47.9
Q 89.1 48.2 89 48.55 88.95 48.6 89.05 48.75 89.6 49.1 89.8 48.55
M 87.1 48.7
L 87.1 49.1 87.55 49.1 87.55 48.7 87.1 48.7
M 86.75 47.1
Q 86.15 46.6 86.7 47.15
L 86.75 47.1
M 85 47.8
L 85 48.8
Q 85.2 48.8 85.45 48.8 85.85 48.85 85.9 48.3 85.85 48.2 85.8 48.1 85.5 47.75 85 47.8
M 83.3 46.9
Q 83.05 46.9 82.9 47.05 82.75 47.25 82.75 47.5 82.75 47.75 82.9 47.9 83.05 48.1 83.3 48.1 83.55 48.1 83.7 47.9 83.85 47.75 83.85 47.5 83.85 47.25 83.7 47.05 83.55 46.9 83.3 46.9
M 82.35 49.15
Q 82.25 49.25 82.25 49.4 82.25 49.55 82.35 49.65 82.5 49.75 82.65 49.75 82.8 49.75 82.9 49.65 83.05 49.55 83.05 49.4 83.05 49.25 82.9 49.15 82.8 49.05 82.65 49.05 82.5 49.05 82.35 49.15
M 87.7 42.5
Q 87.9 42.15 88 41.8
L 87.35 41.9
Q 87.1 42.2 87 42.55 86.95 42.6 87.05 42.75 87.45 43.1 87.7 42.5 Z"/>
</g>
</defs>

<g transform="matrix( 1, 0, 0, 1, 2.75,1.5) ">
<use xlink:href="#Layer1_0_FILL"/>
</g>
</svg>
