
<svg xmlns="http://www.w3.org/2000/svg" version="1.1" xmlns:xlink="http://www.w3.org/1999/xlink" preserveAspectRatio="none" x="0px" y="0px" width="100px" height="100px" viewBox="0 0 100 100">
<defs>
<g id="Layer1_0_FILL">
<path fill="#000000" stroke="none" d="
M 73.2 49.55
Q 73.35 48.8 73.05 49.3 73 49.4 73.2 49.55
M 54.05 67.7
Q 54.3 67.7 54.45 67.55 54.6 67.45 54.6 67.3 54.6 67.15 54.45 67 54.3 66.9 54.05 66.9 53.8 66.9 53.65 67 53.5 67.15 53.5 67.3 53.5 67.45 53.65 67.55 53.8 67.7 54.05 67.7
M 59.9 65.8
Q 59.9 65.35 59.6 65.2
L 58.85 65.05
Q 58.1 66.1 58.05 67.7
L 59.35 67
Q 59.9 66.55 59.9 65.8
M 56.05 66.65
L 56.95 66.6 57.05 67.5 57.35 65.9 58 65.45
Q 58.35 64.35 57.55 63.1
L 56.05 66.65
M 56 64.35
L 56.65 64.9
Q 56.85 64.1 56.15 64.25 56.05 64.25 56 64.35
M 60.65 62.55
Q 60.55 62.65 60.6 62.8
L 61.6 62.25
Q 60.95 61.75 60.65 62.55
M 41.65 65.95
L 42.65 65.25 42.55 64.25 41.65 65.95
M 41.15 64.2
Q 41 64.25 41 64.4 41 64.55 41.15 64.7 41.25 64.8 41.4 64.8 41.55 64.8 41.7 64.7 41.8 64.6 41.8 64.45 41.8 64.3 41.7 64.2 41.55 64.1 41.4 64.1 41.25 64.1 41.15 64.2
M 44.15 62.3
Q 44.2 62.3 44.3 62.15 43.9 61.55 43.15 61.85 42.9 61.95 42.7 62.05 43.4 62.4 44.15 62.3
M 49.3 65.8
L 49.8 65 48.4 64.7
Q 49.3 65.55 48.4 65.9 49.15 66.2 48.9 67.2 48.75 67.65 49.3 67.75 49.95 67.75 49.75 67.05 49.7 66.9 49.7 66.7 50.25 66.7 50.2 67.85 50.1 68.2 50.05 68.5
L 52.05 67.6
Q 52.35 66.15 51.2 65.3
L 51.3 66.65
Q 50.6 65.5 49.3 65.8
M 45.75 66.35
L 45.75 66 45.3 66 45.3 66.35 45.75 66.35
M 46.55 65.9
Q 47.05 65.6 46 65.35 45.45 65.25 44.75 65.25
L 46.55 65.9
M 50.1 63.65
Q 50.1 63.9 50.3 64.1 50.45 64.3 50.7 64.3 50.95 64.3 51.15 64.1 51.3 63.95 51.3 63.7 51.3 63.45 51.15 63.2 50.95 63 50.7 63 50.45 63 50.3 63.2 50.1 63.4 50.1 63.65
M 48.85 60.95
Q 49.05 60.6 49.25 60.2
L 49.95 60.6 50.15 59.9 47.2 58.45
Q 47.05 59.1 47.75 59.4 48 59.5 48.2 59.75
L 47.95 61.3 48.85 60.95
M 46.4 59.6
Q 46.1 59.9 45.95 60.25 45.85 60.65 45.9 61.05
L 46.4 59.6
M 47.9 61.5
L 47.8 61.45
Q 47.75 61.65 47.75 61.9
L 46.9 59.75
Q 47.1 60.45 46.8 61.15 46.45 61.8 45.9 61.95 46.25 63.1 47.2 63.7 47.35 63.75 47.55 63.8 47.7 63.75 47.9 63.65 48 63.6 48.1 63.45 48.2 63.3 48.3 63.05
L 47.85 62.05 47.9 61.5
M 47.7 57.85
Q 47.75 57.7 47.8 57.55 47.65 57.3 47.55 57.05 46.65 56.25 47 57.15 46.95 57.85 47.6 57.9 47.65 57.9 47.7 57.85
M 49 56.5
L 50 56.3
Q 50.5 55.6 49.8 55 49.9 55.4 50.05 55.8 49.5 56.15 49 56.5
M 47.3 54.3
L 47.15 53.45
Q 47.15 53 46.65 52.95 46.3 52.95 46.35 53.3
L 47.3 54.3
M 59.9 61
Q 59.9 60.85 59.75 60.7 59.6 60.6 59.4 60.6 59.2 60.6 59.05 60.7 58.9 60.85 58.9 61 58.9 61.15 59.05 61.25 59.2 61.4 59.4 61.4 59.6 61.4 59.75 61.25 59.9 61.15 59.9 61
M 56.25 61
Q 56.35 61.05 56.45 61.15 56.95 61.1 56.95 60.6 56.95 60.45 56.95 60.25
L 55.95 60.2
Q 55.9 60.7 56.25 61
M 51.8 60.85
Q 52.1 60.5 52.1 60 52.1 59.95 52 59.85 51.65 59.75 51.65 60.2 51.7 60.55 51.8 60.85
M 51.35 58.45
Q 51.3 58.25 51.25 58.2 50.65 58 50.1 57.9
L 51.35 58.45
M 54.5 58.25
L 55.15 57.6
Q 54.95 57.4 54.7 57.3 54.55 57.25 54.35 57.25
L 53.2 58.05 54.5 58.25
M 53.6 56.15
Q 53.4 56.15 53.25 56.2 53.05 56.25 52.95 56.5 52.95 56.65 52.95 56.75 52.95 56.9 53 56.9 53.5 57.1 54 57.2
L 53.6 56.15
M 53.8 50.15
Q 54.65 50.15 54.1 49.65 54.05 49.65 54 49.7
L 53.8 50.15
M 59.05 50.35
Q 59.1 50.35 59.2 50.3 59.25 49.8 58.6 49.65 58.15 49.55 57.7 49.45 58.15 49.95 59.05 50.35
M 60.45 54.1
Q 60.45 54.3 60.5 54.5 60.65 53.95 60.8 53.4 60.6 53.75 60.45 54.1
M 63.55 67.55
L 64.25 67.15 62.85 66.95 63.55 67.55
M 61.05 67.4
Q 61 66.55 61.55 66.45 61.4 65.6 60.75 66.1 60.6 66.15 60.55 66.25
L 61.05 67.4
M 62.15 64.8
L 61.75 64.8 61.75 65.1 62.15 65.1 62.15 64.8
M 61.1 63.45
L 61.1 63.9 61.55 63.75 61.1 63.45
M 64.25 63.15
Q 64.3 62.75 63.8 62.75 63.5 62.75 63.2 62.75
L 64.25 63.15
M 68.25 66.5
Q 68.05 66.5 67.95 66.6 67.8 66.75 67.8 66.95 67.8 67.15 67.95 67.25 68.05 67.4 68.25 67.4 68.45 67.4 68.6 67.25 68.7 67.15 68.7 66.95 68.7 66.75 68.6 66.6 68.45 66.5 68.25 66.5
M 69.45 64.8
Q 69.25 64.8 69.15 64.9 69 65 69 65.15 69 65.3 69.15 65.4 69.25 65.5 69.45 65.5 69.65 65.5 69.8 65.4 69.9 65.3 69.9 65.15 69.9 65 69.8 64.9 69.65 64.8 69.45 64.8
M 68.9 63.55
Q 68.75 63.45 68.55 63.45 68.35 63.45 68.25 63.55 68.1 63.65 68.1 63.8 68.1 63.95 68.25 64.05 68.35 64.15 68.55 64.15 68.75 64.15 68.9 64.05 69 63.95 69 63.8 69 63.65 68.9 63.55
M 77.45 53
L 77.95 52.65
Q 77.7 52.65 77.6 52.75 77.4 52.9 77.45 53
M 30.3 62.45
Q 29.85 62.95 30.4 62.55
L 30.3 62.45
M 34.05 64.85
L 34.2 64.8
Q 34.35 64.2 34.05 64.85
M 32.1 64.75
L 32.95 64.75
Q 33.15 64.5 32.95 64.25 32.85 63.9 32.5 64
L 32.55 62.95 31.6 63.95 32.1 64.75
M 36.1 62.4
Q 35.15 63.65 36 64.8 36.15 65 36.35 65.15
L 36.9 65.2
Q 36.35 64.35 35.85 63.45
L 37.7 62.7 37.95 63.5 38.8 62.05 38.3 61.7
Q 37.85 61.8 37.5 62.05 37.15 62.3 36.9 62.7
L 36.1 62.4
M 39.65 63.7
Q 40.4 63.65 39.85 63.55
L 39.65 63.7
M 25.9 62.95
L 26.9 62.95
Q 26.95 62.75 26.95 62.5 26.8 62.1 26.45 62.05 26.35 62.1 26.3 62.15 25.9 62.55 25.9 62.95
M 29.5 63.65
Q 29.35 63.8 29.35 64 29.35 64.2 29.5 64.3 29.6 64.45 29.75 64.45 29.9 64.45 30.05 64.3 30.15 64.2 30.15 64 30.15 63.8 30.05 63.65 29.9 63.55 29.75 63.55 29.6 63.55 29.5 63.65
M 28.05 58.95
Q 27.85 59 27.7 59.1 27.55 59.25 27.5 59.45 27.9 59.2 28.2 58.95
L 28.05 58.95
M 29.7 61.15
Q 29.3 61.05 28.95 60.95
L 29 61.6
Q 29.3 61.85 29.7 62 29.75 62 29.9 61.9 30.3 61.3 29.7 61.15
M 38.9 60
Q 39.2 59.55 38.65 59.3 38.3 59.15 37.95 59.05
L 38 59.7
Q 38.3 59.95 38.65 60.05 38.75 60.1 38.9 60
M 39.9 59.7
Q 39.7 59.85 39.7 60.1 39.7 60.35 39.9 60.5 40.1 60.65 40.35 60.65 40.6 60.65 40.8 60.5 41 60.35 41 60.1 41 59.85 40.8 59.7 40.6 59.55 40.35 59.55 40.1 59.55 39.9 59.7
M 35.75 60.35
Q 35.75 60.55 35.9 60.65 36 60.85 36.2 60.85 36.4 60.85 36.55 60.7 36.65 60.6 36.65 60.4 36.65 60.2 36.55 60.05 36.4 59.95 36.2 59.95 36 59.95 35.9 60 35.75 60.15 35.75 60.35
M 36 55.35
Q 36 55.2 36 55
L 35 55
Q 34.95 55.45 35.3 55.8 35.4 55.85 35.5 55.9 36 55.8 36 55.35
M 38.95 45.6
L 39.35 45.1
Q 39.85 45.05 39.75 44.9 39.65 44.75 39.55 44.65 39.3 44.65 39.2 44.75 38.95 44.85 38.85 45.05
L 38.95 45.6
M 35.3 42
L 35.15 42
Q 35.15 42.45 35.3 42
M 33.65 43.15
L 34.1 43.15 34.1 42.8 33.65 42.8 33.65 43.15
M 31.95 43.25
L 30.8 43.2 30.55 43.9 30.1 43.95
Q 30.95 44 31.65 43.5 31.8 43.4 31.95 43.25
M 31.7 43
L 32.15 42
Q 31.65 42.15 31.15 42.35 31.1 42.35 31.05 42.45 31.05 42.6 31.05 42.7 31.25 43.15 31.7 43
M 31.6 39.65
Q 32.15 39 32.15 38.2 32.05 37.95 32 37.65
L 31.6 39.65
M 32.15 39.95
Q 31.8 40.2 31.35 40.2
L 30.85 38.7
Q 30.45 39.15 30.75 39.75 31.7 41.5 33.65 41.45 34.05 41 33.55 40.5 33.4 40.3 33.25 40.05 32.9 39.5 32.15 39.95
M 34.8 39.55
L 33.5 39.25 34.5 40.25 34.8 39.55
M 39.85 42.25
Q 39.5 42.15 39.15 42.05
L 39.15 42.7
Q 39.45 42.95 39.85 43.05 39.9 43.1 40.05 43 40.4 42.45 39.85 42.25
M 29.65 40.6
Q 29.1 40.2 29.55 40.6 29.6 40.7 29.7 40.65
L 29.65 40.6
M 29.7 36.95
Q 29.9 36.95 30.05 36.8 30.2 36.7 30.2 36.55 30.2 36.4 30.05 36.25 29.9 36.15 29.7 36.15 29.5 36.15 29.35 36.25 29.2 36.4 29.2 36.55 29.2 36.7 29.35 36.8 29.5 36.95 29.7 36.95
M 36.2 34
L 36.2 35
Q 36.85 35.05 36.95 34.7 37.05 34.65 37.1 34.55 37.1 33.8 36.2 34
M 38.35 36.4
L 38.35 37.05
Q 38.55 37.55 39 37.6 39.2 37.6 39.45 37.5 39.8 36.8 38.8 36.5 38.6 36.45 38.35 36.4
M 33.45 35.25
L 33.45 35.45 33.95 35.45 33.95 35.25 33.45 35.25
M 61.05 49.2
L 59.1 49.3 60.1 50.2 61.05 49.2
M 75.55 48.45
L 75.35 49.05
Q 75.5 48.95 75.55 48.8 75.6 48.65 75.55 48.45
M 75.35 49.05
Q 74.7 49.65 75.25 49.2 75.3 49.15 75.35 49.05
M 79.35 44.3
Q 78.9 44.75 79.35 44.5 79.75 44.25 79.35 44.3
M 67.85 49.2
Q 67.95 49.3 68.05 49.3 68.15 49.3 68.25 49.2 68.35 49.1 68.35 49 68.35 48.9 68.25 48.8 68.15 48.7 68.05 48.7 67.95 48.7 67.85 48.8 67.75 48.9 67.75 49 67.75 49.1 67.85 49.2
M 66.75 45
L 66.1 46.3
Q 66.75 46.3 67.3 46.8 67.5 47 67.75 47.15
L 66.75 45
M 69 45.4
Q 68.85 45.4 68.75 45.5 68.65 45.6 68.65 45.7 68.65 45.8 68.75 45.9 68.85 46 69 46 69.15 46 69.25 45.9 69.35 45.8 69.35 45.7 69.35 45.6 69.25 45.5 69.15 45.4 69 45.4
M 68.75 44.1
Q 68.7 43.85 68.65 43.6 68.4 43.95 68.15 44.3 68.45 44.85 68.75 44.1
M 65.6 46.85
Q 65.6 47.05 65.75 47.2 65.9 47.35 66.15 47.35 66.4 47.35 66.55 47.2 66.7 47.05 66.7 46.85 66.7 46.65 66.55 46.5 66.4 46.35 66.15 46.35 65.9 46.35 65.75 46.5 65.6 46.65 65.6 46.85
M 62.2 49.05
L 62.2 48.9
Q 61.65 49.1 62.2 49.05
M 61.05 49.15
L 61.5 48.7 60.2 48.5 61.05 49.15
M 61.9 43.85
L 61.9 44.65 61.95 43.15 60.9 43.8 60.75 42.6 60.8 44.6 61.9 43.85
M 61.25 46
Q 61.4 46.05 61.6 46.1
L 60.9 45.1
Q 60.7 45.65 61.25 46
M 68.3 41
L 69.6 40.3
Q 68.8 39.9 68 39.5
L 68.3 41
M 50.7 41.1
Q 50.2 40.9 50.6 41.1 50.9 41.3 50.7 41.1
M 57.4 49.25
Q 57.3 49.1 57.25 48.9 56.8 48.65 56.5 49.75 56.4 50.1 56.1 50.35
L 56.65 51.4
Q 57.5 50.5 57.4 49.25
M 58.4 48.7
Q 59.1 49 59.35 48.05 59.25 48 59.2 47.95 58.7 47.8 58.6 48.55 58.5 48.65 58.4 48.7
M 54.65 49.2
L 55.05 48.2
Q 54.55 48.35 54.1 48.5 54 48.55 54 48.65 54 48.8 54 48.9 54.15 49.35 54.65 49.2
M 53.1 47.15
Q 52.35 47.4 52.9 47.65 53.45 47.95 53.1 47.15
M 50.95 47.1
Q 51.5 46.5 50.85 47.1
L 50.95 47.1
M 55.2 40.65
L 54.75 40.45 54.75 40.85 55.2 40.65
M 53.2 40.35
L 54.1 40
Q 53.4 39.4 52.5 40.05
L 53.2 40.35
M 53.1 40.45
Q 52.45 41.2 53.1 41.15
L 53.2 40.35 53.15 40.35
Q 53.15 40.45 53.1 40.45
M 50.95 39.9
Q 50.95 40.05 51.05 40.15 51.15 40.3 51.3 40.3 51.45 40.3 51.55 40.2 51.65 40.1 51.65 39.95 51.65 39.8 51.55 39.65 51.45 39.5 51.3 39.5 51.15 39.5 51.05 39.6 50.95 39.75 50.95 39.9
M 51 37.4
L 51 37.9 51.25 37.9 51.25 37.4 51 37.4
M 56.5 41.15
Q 56.85 41.6 57.3 41.85 57.25 41.8 57.3 41.7
L 56.5 41.15
M 56.8 40.1
Q 56.95 39.6 56.4 39.55
L 55.8 41.55
Q 56.4 40.9 56.8 40.1
M 56.6 38.4
Q 56.5 38.35 56.4 38.35 56.3 38.35 56.2 38.4 56.1 38.5 56.1 38.6 56.1 38.7 56.2 38.75 56.3 38.85 56.4 38.85 56.5 38.85 56.6 38.75 56.7 38.75 56.7 38.65 56.7 38.55 56.6 38.4
M 48.25 43.4
Q 48.8 43.05 48.3 43.25 48.1 43.35 48.25 43.4
M 47.3 46.5
Q 47.3 46.6 47.3 46.7
L 48.25 46.3
Q 47.65 46.1 47.3 46.5
M 45.9 46.95
Q 46.25 46.8 46.4 46.45 46.4 46.3 46.45 46.1
L 45.35 46.15
Q 45.25 46.6 45.7 46.85 45.8 46.95 45.9 46.95
M 50.15 46.3
L 49.9 46 49.9 46.6 50.15 46.3
M 45 48.25
Q 45.6 48.6 45.15 48.25 45.1 48.2 45 48.25
M 41.9 47.95
L 41.4 47.95 41.4 48.35 41.9 48.35 41.9 47.95
M 42.9 47.75
Q 42.95 47.65 43 47.5 43 47.35 42.95 47.25 42.85 47.15 42.75 47.15 42.65 47.15 42.6 47.25 42.5 47.35 42.5 47.5 42.45 47.65 42.55 47.75 42.6 47.85 42.7 47.85 42.8 47.85 42.9 47.75
M 43.65 44.7
Q 44 44.95 43.75 44.65 43.25 44.45 43.65 44.7
M 44.95 45.05
L 44.95 45.45 45.45 45.45 45.45 45.05 44.95 45.05
M 43.35 37.45
Q 43.3 37.6 43.45 37.65
L 43.75 36.85
Q 43.1 36.9 43.35 37.45
M 48.95 39.35
Q 48.6 39.25 48.3 39.25
L 48.15 41.15
Q 49.3 41 49.5 39.85 49.45 39.75 49.45 39.6 49.2 39.4 48.95 39.35
M 50.2 42.3
Q 50.2 42.35 50.3 42.4 50.55 41.85 50.2 42.3
M 45.95 43.05
L 45.9 41.85 45.25 42.55 45.95 43.05
M 45.9 34.55
L 46.35 34.55 46.35 34.2 45.9 34.2 45.9 34.55
M 41.45 36.25
L 41.35 36.25
Q 40.95 36.45 41.25 36.55 41.3 36.6 41.45 36.25
M 41.2 35.05
Q 41.85 35.1 41.95 34.75 42.05 34.7 42.1 34.6 42.05 33.85 41.2 34.05
L 41.2 35.05 Z"/>
</g>
</defs>

<g transform="matrix( 1, 0, 0, 1, 0,0) ">
<use xlink:href="#Layer1_0_FILL"/>
</g>
</svg>
