
<svg xmlns="http://www.w3.org/2000/svg" version="1.1" xmlns:xlink="http://www.w3.org/1999/xlink" preserveAspectRatio="none" x="0px" y="0px" width="100px" height="100px" viewBox="0 0 100 100">
<defs>
<g id="Layer1_0_FILL">
<path fill="#000000" stroke="none" d="
M 62.8 84.15
Q 62.85 84.05 62.8 83.95 62.05 84.55 62.5 84.4 62.7 84.45 62.8 84.15
M 63.6 80.6
Q 63.9 81.55 64.8 81 65.2 80.7 65.55 80.3 65.75 80.05 65.85 79.75 64.75 79.55 64 80.3 63.8 80.45 63.6 80.6
M 64.5 74.8
Q 64.75 74.7 65 74.5 65.15 74.45 65.25 74.35 65.3 72.65 63.7 72
L 64.5 74.8
M 64.5 76.55
L 63.3 75.35
Q 63.15 75.5 63.1 75.7 63.05 75.9 63.1 76.15
L 64.5 76.55
M 66.9 76.8
Q 66.8 76.95 66.8 77.15 66.8 77.35 66.9 77.45 67.05 77.6 67.2 77.6 67.35 77.6 67.45 77.45 67.6 77.35 67.6 77.15 67.6 76.95 67.45 76.8 67.35 76.7 67.2 76.7 67.05 76.7 66.9 76.8
M 69.8 74.7
L 70.7 75.1 69.5 74 69.8 74.7
M 68.55 77
Q 69.2 76.75 69.2 75.9 69.2 75.65 69.2 75.45 68.7 76.35 68.4 77.15
L 68.55 77
M 75.3 81.85
Q 74.9 81.9 74.5 81.95 74.2 82.3 74.95 82.05 75.1 81.95 75.3 81.85
M 71.35 82
L 71.6 81.2
Q 71.3 81.5 71.25 81.9 71.25 81.95 71.35 82
M 73.7 77.2
Q 73.1 77.4 73.7 77.45 74 77.25 73.7 77.2
M 74.4 80.35
Q 74.25 80.25 74.15 80.4 74.5 81.25 75.1 80.8 75.4 80 74.4 80.35
M 71.4 79.45
Q 72.05 79.3 71.5 79 71.15 78.8 70.8 78.6
L 71.4 79.45
M 72.9 79.8
Q 73.05 79.95 73.25 79.95 73.45 79.95 73.55 79.8 73.7 79.7 73.7 79.55 73.7 79.4 73.55 79.25 73.45 79.15 73.25 79.15 73.05 79.15 72.9 79.25 72.8 79.4 72.8 79.55 72.8 79.7 72.9 79.8
M 72.5 76.2
Q 72.65 76 72.65 75.75 72.65 75.5 72.5 75.3 72.35 75.1 72.1 75.1 71.85 75.1 71.7 75.3 71.55 75.5 71.55 75.75 71.55 76 71.7 76.2 71.85 76.4 72.1 76.4 72.35 76.4 72.5 76.2
M 74.25 75.6
Q 74.35 75.5 74.35 75.35 74.35 75.2 74.25 75.05 74.15 74.95 74 74.95 73.85 74.95 73.75 75.05 73.65 75.2 73.65 75.35 73.65 75.5 73.75 75.6 73.85 75.75 74 75.75 74.15 75.75 74.25 75.6
M 79.3 79.85
Q 79.2 80 79.2 80.25 79.2 80.5 79.3 80.65 79.45 80.8 79.6 80.8 79.75 80.8 79.85 80.65 80 80.5 80 80.25 80 80 79.85 79.85 79.75 79.7 79.6 79.7 79.45 79.7 79.3 79.85
M 76.35 77.1
Q 76.4 76.85 76.3 76.6 75.85 76.5 75.5 76.65 75.2 76.7 75 77 75.35 77.5 75.95 77.65 76.05 77.6 76.15 77.6 76.3 77.35 76.35 77.1
M 79.25 76.65
Q 79.35 76.55 79.5 76.5
L 78.4 76.35
Q 78.15 76.65 78.05 77 78 77.15 78.05 77.3 78.3 77.35 78.45 77.25 78.85 77 79.25 76.65
M 47.6 82.85
L 46.9 82.2
Q 46.45 82.45 47.1 82.75 47.3 82.85 47.6 82.85
M 41.7 84.85
Q 41.8 84.7 41.8 84.45 41.35 84.65 41.55 85.15 41.55 85.1 41.7 84.85
M 43.75 75.35
Q 43.3 75.45 43.3 76
L 42.15 76.05 43.85 76.45 44.55 76.1
Q 44.55 75.95 44.5 75.9 44.35 75.6 44.1 75.4 43.9 75.35 43.75 75.35
M 47.25 76.7
Q 47.35 76.6 47.35 76.4 47.35 76.2 47.25 76.05 47.15 75.95 47 75.95 46.85 75.95 46.75 76.05 46.65 76.2 46.65 76.4 46.65 76.6 46.75 76.7 46.85 76.85 47 76.85 47.15 76.85 47.25 76.7
M 57.95 81.9
Q 57.8 81.65 57.6 81.45
L 58.4 83.45
Q 58.4 83.15 58.35 82.9 58.25 82.35 57.95 81.9
M 51.6 82.5
Q 51.6 82.35 51.45 82.2 51.3 82.1 51.1 82.1 50.9 82.1 50.75 82.2 50.6 82.35 50.6 82.5 50.6 82.65 50.75 82.75 50.9 82.9 51.1 82.9 51.3 82.9 51.45 82.75 51.6 82.65 51.6 82.5
M 53.8 82.45
L 54.4 81.95 52.6 82.25 53.8 82.45
M 53.1 76.15
Q 53.45 75.95 53.8 75.75
L 55.4 74.85
Q 53.1 74.75 51.7 76.4 51.25 76.85 50.9 77.35
L 51.85 77.3 52.4 76.55
Q 52.55 76.45 52.7 76.4 52.9 76.3 53.1 76.15
M 57.85 79.85
L 56.3 80.15
Q 58.5 81.35 60.95 80.45 62.15 80.1 63.15 79.4 64.05 78.7 64.8 77.85
L 62.8 76.75 63.7 78.15
Q 63.8 78.7 63.45 79.05 62.95 79.6 62.15 79.55 61.65 79.35 61.15 79.15 60.65 79 60.15 78.9 59.9 79 59.7 79.1 59.5 79.25 59.4 79.45 59.25 79.65 59.15 79.9 59.1 80.1 59.1 80.35
L 57.85 79.85
M 56.4 79.1
Q 56.2 79.5 56.7 79.3 56.6 78.6 56.4 79.1
M 57.15 76.8
L 56.4 76.5
Q 56.45 77.2 56.85 77.45
L 56.95 77.4 57.15 76.8
M 59.05 77.15
Q 59.05 76.8 58.8 76.5 58.6 76.25 58.3 76.25 58 76.25 57.75 76.5 57.55 76.8 57.55 77.15 57.55 77.5 57.75 77.75 58 78.05 58.3 78.05 58.6 78.05 58.8 77.75 59.05 77.5 59.05 77.15
M 59.65 76.4
Q 59.35 76.25 59.1 76.1
L 59.6 78.45 62.1 76.1
Q 60.95 76.95 59.65 76.4
M 57.75 69.5
L 57.8 69.45
Q 57.3 69.15 57.75 69.5
M 53.05 73.55
Q 53 73.55 53 73.7 53.55 74.2 54.25 73.95 54.9 73.8 55.6 73.7 54.25 72.9 53.05 73.55
M 52.5 72.6
Q 51.6 73.05 51.35 74.05 51.3 74.25 51.3 74.5
L 52.5 72.6
M 57.8 67.35
Q 57.95 67.25 57.95 67.05 57.95 66.85 57.8 66.7 57.7 66.6 57.5 66.6 57.3 66.6 57.15 66.7 57.05 66.85 57.05 67.05 57.05 67.25 57.15 67.35 57.3 67.5 57.5 67.5 57.7 67.5 57.8 67.35
M 41.95 71.85
L 41.1 72.2 43 73.6 40.3 75
Q 40.65 75.05 41 75.1 41.25 75.1 41.55 75.2 42.5 75.2 43.1 74.65 43.2 74.5 43.25 74.35 43.3 74.2 43.35 74.05 43.6 73.25 43.15 72.75 42.65 72.05 41.95 71.85
M 41.3 69
Q 41.35 69.1 41.45 69.25
L 43 69.45 41.3 67.7
Q 41.1 68.45 41.3 69
M 42.8 70.45
L 40.5 69.95 40.35 70.65 40.5 71.1 41.45 71.55
Q 42.3 71.35 42.8 70.45
M 45.1 70.45
L 44.3 70.5
Q 45.65 71.5 45.35 73.2 45.3 73.45 45.3 73.75
L 47 73.25 45.1 70.45
M 48.8 56.3
L 49.8 56.7 48.3 55.5 48.8 56.3
M 42.7 61.4
Q 42.7 61.65 42.8 61.8 42.95 61.95 43.1 61.95 43.25 61.95 43.35 61.8 43.5 61.65 43.5 61.4 43.5 61.15 43.35 61 43.25 60.85 43.1 60.85 42.95 60.85 42.8 61 42.7 61.15 42.7 61.4
M 41.55 60.3
Q 41.45 60.35 41.3 60.35 41.35 60.05 40.75 59.75 39.85 59.4 38.9 59.35 39.75 60.2 40.75 60.7 41.25 60.95 41.85 60.8 42.45 60.65 43.05 60.35 43.35 60.15 43.65 59.95
L 41.9 59.9
Q 41.75 60.1 41.55 60.3
M 41.55 50.55
Q 41.55 51 42.4 51.3 42.75 50.55 41.7 50.5 41.6 50.5 41.55 50.55
M 43.85 52.25
Q 43.95 52.15 43.95 52 43.95 51.85 43.85 51.7 43.75 51.6 43.6 51.6 43.45 51.6 43.35 51.7 43.25 51.85 43.25 52 43.25 52.15 43.35 52.25 43.45 52.4 43.6 52.4 43.75 52.4 43.85 52.25
M 48.7 54.85
Q 48.8 54.8 48.9 54.75 48.6 54.45 48.55 54.3 47.9 54.55 48.7 54.85
M 46.3 54.4
Q 46.75 54.4 47.2 54.4 46.85 53.45 45.8 53.15 45.45 53.15 45.15 53.15 43.55 54.1 43.35 56.1 43.35 56.3 43.4 56.55
L 44.2 57
Q 44.75 56.8 45.2 56.45 45.55 56.25 45.8 55.95
L 44.3 56
Q 44.75 54.6 46.3 54.4
M 46.2 52.35
L 46.1 52.35
Q 45.55 51.65 44.8 52 44.75 52.1 44.7 52.25 44.8 52.35 44.95 52.5 45.6 52.4 46.2 52.35
M 46.2 50.45
Q 46.2 50.3 46.05 50.2 45.95 50.1 45.75 50.1 45.55 50.1 45.4 50.2 45.3 50.3 45.3 50.45 45.3 50.6 45.4 50.7 45.55 50.8 45.75 50.8 45.95 50.8 46.05 50.7 46.2 50.6 46.2 50.45
M 55.55 51.15
Q 55.5 51 55.4 50.9
L 55.1 51.95
Q 55.8 51.7 55.55 51.15
M 59.45 50.9
Q 59.4 50.75 59.3 50.7
L 59.2 51.15
Q 57.95 52.4 56.2 52
L 58.55 53.5 59.7 53.1
Q 60.15 52.05 59.45 50.9
M 78 73.6
Q 77.9 73.75 77.9 73.95 77.9 74.15 78 74.3 78.15 74.45 78.3 74.45 78.45 74.45 78.55 74.3 78.7 74.15 78.7 73.95 78.7 73.75 78.55 73.6 78.45 73.45 78.3 73.45 78.15 73.45 78 73.6
M 78.1 69.9
L 78.2 69.95
Q 78.35 69.05 78.1 69.9
M 80.8 70.85
Q 80.6 70.7 80.4 70.6
L 79.95 70.7 79.8 71.1 80 71.5
Q 80.45 71.6 80.9 71.7 81.3 71.2 80.8 70.85
M 74.95 71.5
Q 75.15 71.8 75.45 72 76.15 72.25 76.95 72.45 78.85 72.6 79.35 74.3
L 79.85 73.9
Q 80.05 72.85 79.25 72 78.35 71.15 77.5 70.55
L 77.4 71.45 74.95 71.5
M 72.15 72.55
Q 71.75 72.35 71.4 72.2
L 71.8 74 72.7 74.35 71.7 73.5 73.9 74.5
Q 74.2 73.5 73.05 72.9 72.6 72.7 72.15 72.55
M 78.6 66.7
Q 78.95 66.5 78.5 66.25 78.25 66.1 78 66.05
L 78.6 66.7
M 80.2 67.5
Q 80.3 67.45 80.4 67.45 80.2 67.2 80 67.2 79.7 67.3 80.2 67.5
M 78.55 65.75
Q 79 65.6 78.55 65.3 77.75 64.95 77 64.6 77.45 64.9 77.65 65.35 77.9 65.95 78.55 65.75
M 80.7 62.6
Q 80.5 62.25 80.35 62.65 80.25 63.05 80.6 62.75 80.65 62.7 80.7 62.6
M 68.6 73.35
Q 68.65 73.4 68.8 73.45 68.3 72.85 68.6 73.35
M 70.85 72.5
Q 70.85 72.35 70.75 72.2 70.65 72.1 70.5 72.1 70.35 72.1 70.25 72.2 70.15 72.35 70.15 72.5 70.15 72.65 70.25 72.75 70.35 72.9 70.5 72.9 70.65 72.9 70.75 72.75 70.85 72.65 70.85 72.5
M 68.3 72.1
L 67.1 72.45
Q 66.85 72.3 66.6 72.35 66.45 72.2 66.25 72.25 65.75 73.15 65.85 74.3 65.9 74.55 65.8 74.8 65.6 75.2 66 75.55 66.5 75.8 67.1 75.45 67.25 75.3 67.45 75.25
L 68.3 74 67.4 73.9 68.3 72.1
M 69.4 69.35
L 69.3 70.05 68.7 70.75 73.4 72.25 73.2 70.85 74 70.95 73.9 69.45
Q 73.35 69.7 72.8 69.95 72.2 70.15 71.6 70.35 71.5 70.35 71.4 70.35
L 69.4 69.35
M 63.7 70.95
Q 63.7 70.75 63.55 70.6 63.45 70.45 63.3 70.45 63.15 70.45 63 70.6 62.9 70.75 62.9 70.95 62.9 71.15 63 71.3 63.15 71.45 63.3 71.45 63.45 71.45 63.55 71.3 63.7 71.15 63.7 70.95
M 64.8 69.3
L 64.5 70 66.5 70 64.8 69.3
M 61.85 64.35
Q 61.55 64.35 61.3 64.4
L 60.15 65.1
Q 59.55 66.55 60.6 67.8 61.45 68.85 62.7 69.15 64.1 69.5 65.7 69.05 66.55 68.7 67.3 69.25
L 67.8 70.5 68.15 70.8
Q 68.35 70.7 68.5 70.55 68.8 70.2 69.05 69.85 69.2 69.6 69.35 69.35 70 68.65 71 69 71.65 69.25 72.35 69.55 68.95 66.65 64.55 65.65 63.6 65.35 62.6 65.25 62.45 65.3 62.35 65.4
L 61.85 66.1 62 66.8 63.95 66.15
Q 64.65 66.2 65.25 66.55 65.5 66.75 65.7 67.05
L 65.25 68.1
Q 64.05 68.55 62.9 67.8 62.45 67.5 62.05 67.2 61.65 66.8 61.3 66.35
L 61.4 65.25 62.3 64.45
Q 62.05 64.4 61.85 64.35
M 64.9 58.6
Q 64.25 58.15 63.35 58.25 62.65 58.7 61.75 59.1 61.35 59.15 60.95 59.2 60.8 59.2 60.65 59.2 60.25 59.5 59.95 60.05 59.85 60.25 59.8 60.5
L 56.05 59.1 58.6 61.25
Q 57.2 60.5 55.7 60.05 54.1 59.65 52.85 60.6
L 54.35 61.25
Q 53.75 61.7 53.25 62.1 52.7 62.4 52.25 62.95
L 50.05 61.75 49.55 63.05 47.75 61.95
Q 48.65 61.1 49.7 61.45 50.1 61.45 50.5 61.3 51.75 60.6 52.5 59.35 52.85 58.7 53.55 58.5 55.2 58.15 56.75 57.3 57.3 57 57.75 56.55 56 56 55.85 54.35
L 56.65 55.1
Q 57.1 55.4 57.8 55.1 57.95 54.95 58.15 54.85 57.35 53.55 55.9 54.3 55.25 54.65 54.75 55.2 54.3 55.75 53.85 56.35
L 55.1 56.25
Q 55.25 56.3 55.3 56.4 55.45 56.7 55.55 57.05
L 52.75 57
Q 52.15 57.25 51.35 57.55 50.85 57.6 50.35 57.7
L 51.65 59.9
Q 50.2 59.25 48.7 59.6 48.6 59.35 48.65 59.25 48.9 58.9 49.3 58.7 48.9 58.4 48.5 58.15 47.35 57.55 46.25 56.95 46.1 58.15 46.65 59.25
L 46 59.15 44.9 59.95
Q 45.1 58.65 44.25 58
L 43.1 58.05 42.3 58.95 43.9 58.6
Q 43.7 60.25 44.75 61.25 45.2 61.65 45.9 61.9 46.05 61.9 46.15 61.9
L 46.9 59.95 47.1 61.4 46.75 61.8 46.15 61.9 46 62.35 46.55 62.55
Q 46.7 62.55 46.7 62.6 46.75 62.8 46.6 63.05
L 46.15 62.7 45.1 63
Q 44.35 62.8 43.5 62.8 43.25 62.9 43 63 43 63.1 43.1 63.2 43.25 63.4 43.5 63.45 43.6 63.55 43.8 63.6 44.3 64 44.15 64.65 43.75 66.5 43.9 68.25 44.1 68.35 44.3 68.5 45.1 68.55 45.95 68.6 46.45 68.6 46.95 68.6
L 46.15 68
Q 46.7 67.4 47.6 67.65 48.45 68 49.15 67.6
L 47.85 67.3 47.15 66.4 46.65 66.25
Q 45.6 66.4 45.35 67.45 44 66.65 44.7 65.15 45.25 64 46.35 63.4
L 44.65 65.6 46.25 64.9
Q 47.75 65.3 48.7 66.75 49.05 67.25 49.45 67.8 49.5 67.9 49.65 68
L 48.95 69.15 48.6 68.85 47.6 70.45 45.9 70.25
Q 46.25 70.9 46.65 71.55 47.3 72.75 48.7 73.15 48.55 71.9 47.4 71.55
L 49.45 70.6 48.95 71.65
Q 51 72.65 53.35 72.55 53.75 72.45 54.15 72.4 54.25 72.35 54.4 72.3
L 54.9 70.75
Q 55.85 70.35 56.7 71.35 57.5 72.3 58.8 72.65 59.55 72.85 60.3 73.3
L 57.75 73.2 57.85 74.6 56.45 73.75
Q 56.4 74.35 56.3 74.9 56.15 75.6 55.95 76.25 57.5 76.05 58.6 74.85 58.95 74.4 59.4 74.1 59.6 73.95 59.85 73.9 59.7 74.3 59.55 74.7
L 61 75 61 73.5 62.7 73.7
Q 61.8 73.05 60.75 72.4 59.65 71.7 59.25 70.65
L 61.3 70.25
Q 60.5 69.3 59.45 69.05
L 57.85 69.7 57.35 69.65 58.05 71
Q 56 70.65 55.85 68.45
L 58.4 68.8 59.25 68.2 59.2 66.7
Q 58.9 66.5 58.8 66.6 58.55 66.7 58.45 67.05
L 57.75 67.55
Q 55.55 67.5 54.35 65.65 56.9 66.9 59.15 65.35 58.1 64.15 56.6 64.25 55.65 64.5 54.75 64.8 53.6 65.35 52.45 65.95 53.3 64.65 54.8 64 55.85 63.65 56.95 63.15 57.75 62.85 58.5 62.25 59.1 61.75 59.8 61.4 60.35 61.15 61 61.05
L 61.65 61.75 59.35 62.15
Q 60.35 62.5 61.3 62.9 62.3 63.1 62.65 64.2
L 64.85 62.55
Q 63.55 62 62.55 61.05
L 62.7 60.35 63.7 60.75 63 60.1 64.9 58.6
M 47.1 61.45
L 47.15 61.65 47.1 61.8 47.1 61.65
Q 47.1 61.5478515625 47.1 61.45
M 49.15 63.95
Q 49.55 63.05 50.6 63.15 51.1 63.1 51.6 63.1 52.2 63.2 52.8 63.3 53 63.4 53.2 63.55 52.95 63.75 52.7 64 51.285546875 63.8787109375 50.65 64.8
L 49.35 64.85 49.15 63.95
M 49.65 70.5
L 50.2 70.25 49.8 69.9
Q 50.3 70 50.55 70.45 50.65 70.55 50.7 70.7
L 50.45 71.2
Q 50.2 71.05 50.05 70.85 49.8 70.7 49.65 70.5
M 56.75 62.25
Q 57.4 62.6 56 63.4 55.3 63.75 54.5 63.75
L 53.9 63.05 55.3 62.95 55.3 62.35 56.75 62.25
M 51.4 64.75
Q 51.53671875 64.734765625 51.65 64.7 51.9 64.7 52.15 64.75
L 51.4 64.75
M 51.3 67.75
L 51.3 66.5
Q 52.5 67.15 53.7 67
L 53.7 66.95
Q 54.45 66.45 55.05 67.55 55.15 67.75 55.25 67.95 54.35 68.05 53.5 68.15
L 53.95 68.9
Q 53.45 70.45 51.9 70.35 52.3 69.75 52.3 68.85
L 51.3 67.75
M 69.05 54.6
Q 68.7 54.6 69.2 55.55 69.8 56.2 69.9 55.55 69.9 55.4 69.9 55.25
L 69.05 54.6
M 66.5 54.3
Q 66.35 54.5 66.35 54.8 66.35 55.1 66.5 55.3 66.7 55.5 66.95 55.5 67.2 55.5 67.35 55.3 67.55 55.1 67.55 54.8 67.55 54.5 67.35 54.3 67.2 54.1 66.95 54.1 66.7 54.1 66.5 54.3
M 79.15 56.9
Q 79.15 56.75 79.1 56.6 78.55 56.9 78.7 57.3
L 78.75 57.3
Q 79.05 57.35 79.15 56.9
M 72.95 55.35
Q 73.4 55.15 73.8 54.9
L 74 54.1 71.2 55.4 71.7 55.7
Q 72.35 55.55 72.95 55.35
M 71.1 53.1
Q 71.35 52.85 71.35 52.5 71.35 52.15 71.1 51.85 70.9 51.6 70.6 51.6 70.3 51.6 70.05 51.85 69.85 52.15 69.85 52.5 69.85 52.85 70.05 53.1 70.3 53.4 70.6 53.4 70.9 53.4 71.1 53.1
M 79.2 53.1
Q 77.8 53.35 76.5 52.75 75.25 52.3 74 52.3 73 52.35 72 52.4
L 72.2 54.3 73.4 52.4 77.1 55.7 74.7 55.4 75.2 56.4
Q 75.75 56.6 76.15 56.35 78.35 55.25 79.2 53.1
M 78.65 55.2
Q 78.55 55.35 78.55 55.55 78.55 55.75 78.65 55.9 78.75 56.05 78.9 56.05 79.05 56.05 79.15 55.9 79.25 55.75 79.25 55.55 79.25 55.35 79.15 55.2 79.05 55.05 78.9 55.05 78.75 55.05 78.65 55.2
M 79.1 51.1
L 79.1 50.75
Q 78.55 50.75 78 51.1
L 76.75 51.15 77.3 51.8 78 51.9
Q 78.7 51.8 79.1 51.1
M 17.8 56.5
Q 17.9 56.45 18 56.4 17.05 56.3 17.8 56.5
M 18.7 55
Q 18.9 54.85 18.9 54.6 18.9 54.35 18.7 54.15 18.55 54 18.3 54 18.05 54 17.85 54.15 17.7 54.35 17.7 54.6 17.7 54.85 17.85 55 18.05 55.2 18.3 55.2 18.55 55.2 18.7 55
M 37.65 68.1
Q 37.65 68.15 37.7 68.2 37.9 67.7 37.4 68 37.25 68 37.65 68.1
M 34.55 73
L 35 73.3
Q 35.6 73.35 36.1 74.55 36.3 74.95 36.75 75.1 37.35 75.3 38.05 75.35 38.15 75.35 38.3 75.35 38 74.9 37.4 74.35 36.6 73.6 36.8 72.5
L 34.3 72.45 34.55 73
M 32.65 68.9
Q 32.1 68.9 31.6 68.95 31.95 69.15 32.3 69.35 33.2 69.7 33.3 69.4 33.05 69.05 32.65 68.9
M 34.65 70.4
Q 34.35 70.7 34.1 71 34.95 71.15 35.55 70.5 35.75 70.3 35.9 70.1 35.25 69.75 34.65 70.4
M 33.4 63.6
L 33.3 64.7 33.9 65.4 33.4 63.6
M 35.3 64.2
L 35.3 64.1 35.05 63.35
Q 34.8 63.65 35.3 64.2
M 35.6 64.1
Q 36.4 64.9 37.7 64.75 39.4 64.95 41 64.45
L 41.2 64.15
Q 42.4 65.7 43.4 67.5 44.15 65.4 43.25 63.65 43.1 63.4 42.9 63.25
L 35.6 64.1
M 39.55 67.95
Q 39.4 67.85 39.2 67.9 39.1 68.5 39.8 68.65 39.85 68.7 39.9 68.8 40.4 68.25 39.55 67.95
M 37.3 66.7
Q 38.25 67.7 39.55 67.3 40.75 66.85 41.5 65.9
L 37.3 66.7
M 29.55 69.05
L 28.95 68.6 29.3 67.05 27.3 68.3 26.6 68.2
Q 27.5 68.65 28.2 69.15 28.7 69.5 29.05 70 29.2 70.2 29.5 70.35 29.9 70.1 30.15 69.8 30.55 69.3 30.8 68.75
L 29.55 69.05
M 23.95 71.3
Q 24.1 71.15 24.1 70.95 24.1 70.75 23.95 70.6 23.85 70.45 23.7 70.45 23.55 70.45 23.4 70.6 23.3 70.75 23.3 70.95 23.3 71.15 23.4 71.3 23.55 71.45 23.7 71.45 23.85 71.45 23.95 71.3
M 21.5 62.7
Q 21.2 63.05 21.6 63 21.8 62.3 21.5 62.7
M 27.15 65.45
Q 26.95 65.65 26.9 65.9 26.9 66.05 27 66.25
L 28.2 67
Q 28.8 66.45 28.35 65.95 27.85 65.55 27.15 65.45
M 25.05 60.4
L 25.25 60.5
Q 25.35 60.6 25.45 60.7 25.5 60.8 25.55 60.95 25.6 61.25 25.6 61.6 25.6 61.75 25.55 61.9 25 62.95 24 63.4 23.2 63.9 22.6 64.7
L 24.55 63.2 25.25 63.25 27.2 64.75
Q 27.1 64.5 26.95 64.4 26.35 63.8 26.3 63 26.45 62.8 26.6 62.65 27.05 62.5 27.5 62.4 27.8 62.35 28.1 62.35
L 27.5 61.15 27.9 60.4 28.3 60.45 28.8 59.5
Q 29.55 60.85 30.4 62 31.35 63.3 30.7 64.8
L 32 65.1 31.3 65.5 31.05 66.2
Q 31.2 66.35 31.35 66.55 31.75 66.45 32.15 66.45 32.35 66.4 32.6 66.35
L 31.7 67.7 32.85 67.6
Q 33.7 68.5 34.85 68.5 35.4 68.5 36 68.35
L 34.95 68.15
Q 34.75 67.75 34.55 67.45 34.05 66.8 33.2 66.55 32.9 66.35 32.65 66.15 31.95 64.85 32.3 63.45 32.4 63.1 32.5 62.75
L 31.65 62.95 31.1 61.1
Q 30.15 59.4 28.45 59.45 27.4 59.45 26.45 59.85 25.7 60.15 25.05 60.4
M 21.55 61
L 21.3 61.7 22.35 62.05 23.2 61.4
Q 23.5 61.7 23.8 62
L 24.8 61.3
Q 23.8 60.15 22.3 60.55 21.9 60.75 21.55 61
M 23.55 57.15
Q 23.45 57.05 23.25 57.05 23.05 57.05 22.9 57.15 22.8 57.3 22.8 57.5 22.8 57.7 22.9 57.8 23.05 57.95 23.25 57.95 23.45 57.95 23.55 57.8 23.7 57.7 23.7 57.5 23.7 57.3 23.55 57.15
M 37.3 59.3
Q 36.35 59.3 35.65 60 34.75 60.95 33.6 61.9
L 34.45 61.95 36 62.3
Q 36.25 61.95 36.5 61.55 36.65 61.3 36.75 61.05 37.3 60.35 38.2 60.8 38.25 60.85 38.35 60.95 38.35 61.4 37.05 61.35 36.75 62.5 38.15 62.7 38.35 62.7 38.55 62.7 39.35 62.4 39.85 61.65 39.8 59.35 37.3 59.3
M 31.4 59.55
L 31.5 59.25 31.8 58.85
Q 32.15 57.65 31.35 57.1 30.55 56.5 29.65 56.35 28.4 56.2 27.25 55.55 26.3 55.05 25.25 54.75 24.5 54.85 23.8 54.65 23.55 54.45 23.3 54.4
L 22.4 55.35
Q 23.6 56.2 24.75 57.3 24.9 57.45 25.2 57.5 25.9 56.9 25.8 56 25.75 55.75 25.8 55.55 26.5 56.25 27.55 56.45 27.7 56.4 27.85 56.4 27.65 56.9 27.35 57.35 27.1 57.65 26.65 57.8 26.45 57.95 26.2 58 27.7 58 29.05 57.2 29.85 56.75 30.4 57.25
L 29.95 57.8 29.95 58.45
Q 30.6 59.15 31.4 59.55
M 34.2 54.1
Q 33.8 54.05 33.45 54 32.5 54.15 31.65 54.45 30.95 54.35 30.25 53.75 29.8 53.35 29.15 53.55 26.8 53.75 24.45 53.45 23.3 53.15 21.9 52.5 21.15 52.1 20.5 52.05
L 20.7 52.1
Q 20.8 52.15 20.9 52.25 21.1 52.6 21.15 52.95 21.25 53.3 21.25 53.7 19.8 54.55 19 52.8 18.75 52.15 18.5 51.55 18.25 50.95 18 50.45
L 18.4 48.95
Q 17.35 49.8 16.25 50.6 15.7 50.95 15.35 51.55
L 15.75 52.55 16.2 52.5 16.7 52.95 16 53.35
Q 16.65 53.25 17.3 53.2 19.1 53.1 19.95 54.6 20.55 55.55 20.9 56.35 21.25 57.05 21.1 57.75 20.95 57.9 21 58 21 58.1 21.25 58.15
L 22.15 57.6
Q 22.1 57.35 22 57.2 21.5 56.55 21.4 55.9 21.3 55.45 21.3 55 20.95 55 20.7 54.8
L 20.75 54.7
Q 21.35 54.3 22.2 54.25 23.25 54.05 24.15 53.7 25.5 53.4 26.65 54.05 27.1 54.4 27.6 54.75 28.15 55.25 28.7 55.1 30.35 54.7 31.75 55.15
L 33.7 59.05 31.35 59.95 32.3 60.55 32.6 59.75 33.5 60.55 33.95 59.65 34.6 59.4
Q 34.7 59.25 34.7 59.1 34.75 58.85 34.75 58.6 34.7 58.35 34.65 58.1 34.6 57.9 34.6 57.75 35.4 57.8 36.1 57.5 36.2 57.55 36.25 57.25 36.3 57.15 36.4 57.1 36.45 57.05 36.55 57.05 36.65 57.05 36.75 57.1 36.9 57.3 37.05 57.5 37.1 57.55 37.2 57.55 37.25 57.65 37.4 57.7 37.75 57.4 37.6 56.95 37.3 55.85 36.2 55.5 34.75 55.1 33.2 55.6 33.8 54.9 34.3 54.15
L 34.2 54.1
M 33.8 56.85
Q 33.8 56.3 34 55.8
L 34.6 55.6
Q 35.6 55.8 36 56.8
L 35.1 56.8 34.4 57.15 34.25 57.65
Q 33.75 57.9 33.8 56.85
M 34.65 50.85
Q 34.45 50.8 34.3 50.75
L 32 51.15 33.7 50.95
Q 33.9 51 34.05 51.1 34.2 51.25 34.35 51.45 33.6958984375 52.2443359375 32.7 52.35 33.746875 52.265625 34.45 51.75 34.65 51.65 34.8 51.45 34.8 51.25 34.8 51.1 34.75 50.95 34.65 50.85
M 35.5 53.25
Q 35.65 53.05 35.9 52.9 35.95 52.1 35.05 52.2 34.85 52.25 34.65 52.3 34.15 53.2 35.35 53.5
L 35.5 53.25
M 38.15 51.85
L 38.15 51.45 37.3 51.45 37.3 51.85 38.15 51.85
M 38.45 44.35
Q 38.25 44.35 38.1 44.4 38.2 44.95 38.8 45.15 38.85 45.2 38.9 45.3 39.25 44.65 38.45 44.35
M 39.9 44.3
Q 40.25 43.65 39.45 43.35 39.25 43.35 39.1 43.4 39.15 43.95 39.8 44.15 39.85 44.2 39.9 44.3
M 28.6 44.45
Q 28.4 44.3 28.2 44.2 28 44 27.8 43.8
L 27.8 45.9 29.6 44.5
Q 29.35 44.5 29.1 44.5 28.85 44.5 28.6 44.45
M 20.95 38.7
Q 21.05 39.05 21.4 38.75 20.7 38 20.95 38.7
M 22 37.7
Q 22.15 38 22.4 37.75 21.75 37.05 22 37.7
M 27.2 32.3
Q 27.4 32.15 27.4 31.9 27.4 31.65 27.2 31.45 27 31.3 26.7 31.3 26.4 31.3 26.2 31.45 26 31.65 26 31.9 26 32.15 26.2 32.3 26.4 32.5 26.7 32.5 27 32.5 27.2 32.3
M 22.35 33.7
Q 22.35 33.85 22.4 33.95 22.5 34.05 22.6 34.05 22.7 34.05 22.75 33.95 22.85 33.85 22.85 33.7 22.85 33.55 22.75 33.45 22.7 33.35 22.6 33.35 22.5 33.35 22.4 33.45 22.35 33.55 22.35 33.7
M 25 33.7
Q 25.15 33.6 25.15 33.4 25.15 33.2 25 33.05 24.85 32.95 24.6 32.95 24.35 32.95 24.2 33.05 24.05 33.2 24.05 33.4 24.05 33.6 24.2 33.7 24.35 33.85 24.6 33.85 24.85 33.85 25 33.7
M 23.65 32.05
L 23.7 31.9
Q 23.4 31.5 23.65 32.05
M 22 28.85
Q 21 29.35 20.25 30.15 20.1 30.35 20.05 30.55 20.15 30.95 20.35 31.3 20.4 31.4 20.6 31.45 21.5 31.35 22.3 30.85 22.95 30.45 23.75 30.35 24.55 30.3 25.35 30.25
L 23.55 29.45
Q 23.55 29.15 23.65 28.9 23.75 28.8 23.95 28.7 24.75 28.7 25.35 28.6
L 25.25 28.55
Q 24.9 27.4 23.7 27.95 23.05 28.15 22.55 28.55 22.2 28.9 22 29.35
L 22 28.85
M 23 24.8
Q 23.4 24.9 23.85 25.05 24.65 25.25 25.3 24.9
L 25.4 24.8
Q 23.95 24.65 22.4 24.6 22.7 24.7 23 24.8
M 28.9 30.7
Q 28.6 30.8 28.3 30.9
L 28.3 31.35 28.9 30.7
M 29.55 29.65
Q 29.95 29.25 29.8 28.9 29.4 29.15 29.4 29.65
L 29.55 29.65
M 26.9 28.6
Q 27.05 28.5 27.05 28.3 27.05 28.1 26.9 27.95 26.8 27.85 26.6 27.85 26.4 27.85 26.25 27.95 26.15 28.1 26.15 28.3 26.15 28.5 26.25 28.6 26.4 28.75 26.6 28.75 26.8 28.75 26.9 28.6
M 27.55 28.3
Q 27.55 28.5 27.7 28.6 27.85 28.75 28.05 28.75 28.25 28.75 28.4 28.6 28.55 28.5 28.55 28.3 28.55 28.1 28.4 27.95 28.25 27.85 28.05 27.85 27.85 27.85 27.7 27.95 27.55 28.1 27.55 28.3
M 35.8 37.1
Q 36.25 36.5 34.9 37.1 34.5 37.3 34.15 37.6
L 35.8 37.1
M 33.05 36.9
Q 33 36.8 32.9 36.85 32.45 37.5 33.5 38.1 33.8 37.25 33.05 36.9
M 34 32.2
L 33.9 32.1
Q 33.1 32.1 32.6 32.8 32.5 32.95 32.45 33.15 32.5 33.45 32.7 33.65 32.85 33.75 33.1 33.8 33.45 32.9 34 32.2
M 33.9 27.6
L 31.6 27.4
Q 32 28.6 33.3 28 33.6 27.8 33.9 27.6
M 36.95 28.55
Q 37.1 28.9 37.35 29.25 37.55 29.4 37.85 29.55 37.95 29.55 38.05 29.55 38.1 29.55 38.15 29.45 38.25 29.35 38.3 29.2 38.3 29.1 38.35 29.05 38.1 28.7 37.8 28.3 37.5 28 37.3 27.6
L 36.95 28.55
M 36.1 30.05
Q 35.8 30.05 35.5 30.05
L 34 30.8
Q 34.65 30.9 35.3 31 35.75 30.95 36.2 30.55 36.25 30.35 36.25 30.2 36.25 30.15 36.25 30.1 36.15 30.05 36.1 30.05
M 40.4 26.9
L 39.9 27.6 40.1 28.4
Q 40.3 28.05 40.45 27.7 40.55 27.5 40.6 27.3
L 40.4 26.9
M 15.05 48.7
Q 15.15 49.05 15.3 49.4
L 15.2 49.85
Q 15.15 50.3 15.6 50.1 15.85 50.05 15.85 49.6
L 15.05 48.7
M 11.8 47.95
Q 12 48.15 12.3 48.3
L 12.9 45.7 12 45.05
Q 10.25 46.45 11.8 47.95
M 12.6 49.45
Q 12.6 49.3 12.5 49.15 12.4 49.05 12.3 49.05 12.2 49.05 12.1 49.15 12 49.3 12 49.45 12 49.6 12.1 49.7 12.2 49.85 12.3 49.85 12.4 49.85 12.5 49.7 12.6 49.6 12.6 49.45
M 14.7 46.2
L 14.1 45.05 13.1 44.8 13.45 45.05
Q 13.9 45.45 13.7 46.15 13.65 46.35 13.6 46.6 13.55 46.75 13.45 46.95 13.35 47.1 13.25 47.3 12.7 47.75 14.2 48.05 14.85 48.35 15.55 48.45 16.55 48.5 17.2 47.65 17.8 46.85 17.25 45.75 16.95 45.2 16.2 44.6
L 16.9 47.3
Q 15.8 46.75 14.7 46.2
M 13.9 41.3
Q 14.05 41.2 14.05 41.05 14.05 40.9 13.9 40.75 13.8 40.65 13.6 40.65 13.4 40.65 13.25 40.75 13.15 40.9 13.15 41.05 13.15 41.2 13.25 41.3 13.4 41.45 13.6 41.45 13.8 41.45 13.9 41.3
M 13.8 38.9
L 13.7 39.35 14.35 40.05 14.85 39.45
Q 14.8 38.95 14.15 38.7 13.95 38.8 13.8 38.9
M 17.7 39.55
L 17.3 39.35
Q 17.2 40.15 17.75 39.7 17.75 39.65 17.7 39.55
M 15.7 39.75
Q 15.85 39.9 16 39.9 16.15 39.9 16.25 39.75 16.4 39.65 16.4 39.45 16.4 39.25 16.25 39.1 16.15 39 16 39 15.85 39 15.7 39.1 15.6 39.25 15.6 39.45 15.6 39.65 15.7 39.75
M 19.05 37.8
L 19.6 37.55
Q 19.9 37.15 20.15 36.75 20.3 36.55 20.35 36.35
L 20.1 35.9 19.05 37.8
M 9.9 48.55
Q 9.9 48.7 10 48.8 10.15 48.95 10.3 48.95 10.45 48.95 10.55 48.8 10.7 48.7 10.7 48.55 10.7 48.4 10.55 48.25 10.45 48.15 10.3 48.15 10.15 48.15 10 48.25 9.9 48.4 9.9 48.55
M 7.3 44.6
L 8.2 45.3 8.4 44.9 7.8 43.5 7.3 44.6
M 6.7 40.4
Q 6.6 39.55 5.85 39.25 5.6 39.15 5.35 39.1 4.6 39.15 4.25 39.85 4.15 40.1 4 40.3
L 5 39.6 6.7 40.4
M 8.5 42.2
L 10.1 42.35 8.9 41.4 8.4 41.5
Q 8.2 41.9 8.15 42.4 8.15 42.85 8.3 43.35
L 8.5 42.2
M 19.1 34
L 19.2 34 21.75 32.35
Q 21.2 32.4 20.7 32.5 18.6 33.1 16.5 33.2
L 18 33.75
Q 18.45 34.1 18.6 34.75 18.65 35 18.7 35.3 19.85 34.65 21.1 34.7 20 34.45 19.1 34
M 18.5 32.6
Q 18.7 32.5 18.7 32.35 18.7 32.2 18.5 32.1 18.35 32 18.1 32 17.85 32 17.65 32.1 17.5 32.2 17.5 32.35 17.5 32.5 17.65 32.6 17.85 32.7 18.1 32.7 18.35 32.7 18.5 32.6
M 14.2 35.8
L 13.1 35.5
Q 14.25 36.8 15.95 37.2 16.85 37.4 17.8 37.65 18.45 37.9 19 37.8
L 17.4 35.7 16.8 36.3
Q 16.7 35.8 16.55 35.4 16.35 34.95 16.1 34.6
L 16 36.3
Q 15.7 35.7 15.6 35.05 15.45 34.2 15.5 33.3
L 14.2 35.8
M 15.9 30.4
Q 15.95 30.2 15.9 30
L 15.15 30.1 15 30.8
Q 15.7 31.15 15.9 30.4
M 19.75 28.05
L 20.2 28.5
Q 20.45 27.3 21.6 26.9 22 26.65 22.5 26.7 22.8 26.8 23.1 26.9
L 22.6 25.7 21.45 25.25
Q 19.9 25.7 19.7 27.45 19.65 27.75 19.75 28.05
M 7.9 15.7
Q 8.05 15.6 8.05 15.45 8.05 15.3 7.9 15.15 7.8 15.05 7.6 15.05 7.4 15.05 7.25 15.15 7.15 15.3 7.15 15.45 7.15 15.6 7.25 15.7 7.4 15.85 7.6 15.85 7.8 15.85 7.9 15.7
M 36.3 23.6
Q 36.35 23.65 36.4 23.7 36.9 23.2 35.95 22.95 35.8 22.9 35.7 22.9 35.25 23.45 36.3 23.6
M 39.85 20.3
Q 39.95 20.4 40.1 20.45
L 40.9 20.25
Q 41.05 19.8 40.1 19.6 39.25 19.75 39.85 20.3
M 34.7 23.25
Q 34.55 22.15 33.4 21.9
L 34.6 23.65
Q 34.7 23.4 34.7 23.25
M 32.45 24.7
Q 32.55 24.55 32.55 24.35 32.55 24.15 32.45 24 32.35 23.85 32.2 23.85 32.05 23.85 31.95 24 31.85 24.15 31.85 24.35 31.85 24.55 31.95 24.7 32.05 24.85 32.2 24.85 32.35 24.85 32.45 24.7
M 31.4 21
Q 31.3 21.15 31.3 21.4 31.3 21.65 31.4 21.8 31.55 21.95 31.7 21.95 31.85 21.95 31.95 21.8 32.1 21.65 32.1 21.4 32.1 21.15 31.95 21 31.85 20.85 31.7 20.85 31.55 20.85 31.4 21
M 29.4 23.85
L 29.7 24.35
Q 29.9 24.65 30.15 24.85 30.25 24.95 30.45 24.95 30.9 24.5 30.1 24.15 29.749609375 23.9908203125 29.4 23.85
M 25.7 22.35
Q 25.55 22.35 25.4 22.5 25.3 22.65 25.3 22.9 25.3 23.15 25.4 23.3 25.55 23.45 25.7 23.45 25.85 23.45 25.95 23.3 26.1 23.15 26.1 22.9 26.1 22.65 25.95 22.5 25.85 22.35 25.7 22.35
M 27.6 22.9
Q 27.6 22.65 27.45 22.5 27.35 22.35 27.2 22.35 27.05 22.35 26.9 22.5 26.8 22.65 26.8 22.9 26.8 23.15 26.9 23.3 27.05 23.45 27.2 23.45 27.35 23.45 27.45 23.3 27.6 23.15 27.6 22.9
M 25.5 19.3
L 25.6 18.6 24.1 20.1 25.5 19.3
M 30.35 20.1
L 30.35 20.7 31 20.7 31 20.1 30.35 20.1
M 29.65 21.35
Q 29.65 21.3 29.35 21.5 29.3 21.55 29.3 21.7 29.85 21.75 29.65 21.35
M 28.7 20.8
Q 28.9 20.65 28.9 20.4 28.9 20.15 28.7 20 28.5 19.85 28.25 19.85 28 19.85 27.8 20 27.6 20.15 27.6 20.4 27.6 20.65 27.8 20.8 28 20.95 28.25 20.95 28.5 20.95 28.7 20.8
M 23.65 22.55
L 23.7 22.4
Q 23.4 22 23.65 22.55
M 23.15 21.15
Q 23.15 20.8 22.95 20.55 22.75 20.35 22.5 20.35 22.25 20.35 22.05 20.55 21.85 20.8 21.85 21.15 21.85 21.5 22.05 21.7 22.25 21.95 22.5 21.95 22.75 21.95 22.95 21.7 23.15 21.5 23.15 21.15
M 23.4 17.05
L 23 16.9
Q 23 17.5 23.45 18 23.6 18.15 23.8 18.3
L 23.4 17.05
M 26.5 16.85
Q 26.3 16.9 26.6 17.1 26.9 16.65 26.5 16.85
M 78.85 48.5
Q 78.65 48.75 78.65 49.1 78.65 49.45 78.85 49.65 79.05 49.9 79.3 49.9 79.55 49.9 79.75 49.65 79.95 49.45 79.95 49.1 79.95 48.75 79.75 48.5 79.55 48.3 79.3 48.3 79.05 48.3 78.85 48.5
M 76.65 44.75
Q 76.75 44.65 76.75 44.5 76.75 44.35 76.65 44.2 76.55 44.1 76.4 44.1 76.25 44.1 76.15 44.2 76.05 44.35 76.05 44.5 76.05 44.65 76.15 44.75 76.25 44.9 76.4 44.9 76.55 44.9 76.65 44.75
M 78.2 44.3
L 77.5 44.1
Q 77.25 45 77 45.9
L 78.1 46.3 78.2 44.3
M 80.1 45.6
Q 80.25 45.4 80.25 45.1 80.25 44.8 80.1 44.6 79.95 44.4 79.7 44.4 79.45 44.4 79.3 44.6 79.15 44.8 79.15 45.1 79.15 45.4 79.3 45.6 79.45 45.8 79.7 45.8 79.95 45.8 80.1 45.6
M 75.15 43.15
L 74.3 43.2 74.15 43.7
Q 74.8 44.75 75.5 44.2 76.05 43.85 75.4 43.35 75.25 43.25 75.15 43.15
M 72.45 38.25
Q 72.7 38 72.9 37.75
L 72.9 37.1
Q 72.1 37.9 71.45 38.7
L 71.65 38.75
Q 71.8 38.7 71.9 38.6 72.2 38.5 72.45 38.25
M 76.95 43.3
Q 78.4 43.3 78.5 42.1
L 75.9 43.5
Q 76.45 43.45 76.95 43.3
M 80.7 42
Q 80.6 41.9 80.5 41.95
L 81.1 42.6
Q 81.4 42.25 80.7 42
M 78.9 42.25
Q 79.95 42.55 80 42
L 78.15 40.35
Q 78.2 41.5 78.9 42.25
M 76 41.9
Q 76.5 41.8 76.55 41.25 76.6 41.05 76.55 40.9
L 76 41.4 76 41.9
M 77.3 38.7
Q 77.3 38.6 77.3 38.4
L 78.7 36.4
Q 77.45 37.25 77.25 38.55
L 77.3 38.7
M 76.1 38.4
L 76.6 37.6
Q 75.25 37.7 74.3 38.5 74.05 38.7 73.9 39.05 73.9 39.5 74.4 39.85 75.1 40.5 76 40.8
L 76.1 38.4
M 62.4 43.8
L 62.6 44.05 62.8 43.8 62.4 43.8
M 61.6 41.95
L 62.1 41.7 60.6 41.4 61.1 41.9 61.6 41.95
M 65.5 29.95
Q 65.55 30 65.6 30.1 65.35 29.45 65.5 29.95
M 65.2 27.15
Q 65.4 26.75 65.6 26.4 64.8 26.7 63.55 26.35 62.9 26.15 62.1 25.75 61.25 25.3 60.5 25.5 61.25 25.85 62 26.2 62.15 26.25 62.3 26.35 62.1 27.05 62.65 27.55 62.9 27.75 63.2 28
L 64.45 28
Q 64.95 27.65 65.2 27.15
M 76.15 36.7
L 76 35.9
Q 76.1 36.5 76 36.85
L 76.15 36.7
M 74.25 35.8
Q 74.3 35.9 74.4 36 74.55 35.6 74.05 35.3 73.85 35.1 73.6 35 73.5 35.05 73.45 35.1 73.4 35.8 74.25 35.8
M 71.7 36.65
Q 71.75 36.55 71.85 36.5 71.55 36.15 70.6 36.45 70 36.5 69.45 36.8
L 69.5 37.85 70.4 37.85
Q 71.25 37.65 71.7 36.65
M 71.95 34.65
L 72.3 35.35 72.6 34.9 71.95 34.65
M 72.95 33.85
L 73.3 32.4
Q 71.95 32.3 70.65 32.8 70.35 32.95 70.15 33.2 70.1 33.9 70.7 34.2 71.35 34.45 71.95 34.65
L 71.3 34.2
Q 71.7 34.15 72.15 34.15 72.55 34 72.95 33.85
M 56.5 49.4
L 54.9 49.1 54.75 49.5
Q 53.15 49.95 52.8 51.3 52.55 52.15 52.05 52.9 51.7 53.35 51.65 53.85 51.65 54.2 51.8 54.55 51.9 54.55 52 54.55 52.05 54.55 52.1 54.5 52.15 54.4 52.15 54.35 52.2 54.15 52.2 54 52.25 54.1 52.35 54.15 52.35 54.2 52.45 54.2 52.6 54.2 52.8 54.15
L 53.45 53.5
Q 53.5 52.75 53.7 51.95 53.8 51.5 54.1 51.15 54.85 50.35 55.7 49.85 56.15 49.7 56.5 49.4
M 56.35 46.8
Q 56.05 46.8 55.8 46.95 55.6 47 55.45 47.15 55.35 48.1 56.25 47.9 56.3 47.8 56.35 47.75
L 56.35 46.8
M 54.1 45.2
L 55.1 45.3 55.4 44.7 54.1 45.2
M 60.4 42.95
Q 60.15 42.95 59.95 43.1 59.8 43.25 59.8 43.45 59.8 43.65 59.95 43.8 60.15 43.95 60.4 43.95 60.65 43.95 60.8 43.8 61 43.65 61 43.45 61 43.25 60.8 43.1 60.65 42.95 60.4 42.95
M 42.5 45.5
L 43.6 46.4
Q 44.65 46.4 45.7 46.3 47.05 46.5 48.3 47.4 47.4 45.85 45.75 45.35 44.05 44.8 42.5 45.5
M 44.7 45.6
Q 44.9 46 44.55 46.1 44.15 46.25 44.35 45.85
L 44.7 45.6
M 42.85 43
Q 42.6 43 42.45 43.2 42.3 43.4 42.3 43.65 42.3 43.9 42.45 44.1 42.6 44.3 42.85 44.3 43.1 44.3 43.25 44.1 43.4 43.9 43.4 43.65 43.4 43.4 43.25 43.2 43.1 43 42.85 43
M 42.75 31.9
L 42.85 31.25 42.55 30.6 42.75 31.9
M 41.9 28.6
Q 42.05 28.45 42.05 28.25 42.05 28.05 41.9 27.9 41.75 27.75 41.55 27.75 41.35 27.75 41.2 27.9 41.05 28.05 41.05 28.25 41.05 28.45 41.2 28.6 41.35 28.75 41.55 28.75 41.75 28.75 41.9 28.6
M 44.65 24.85
Q 44.75 25.05 44.95 25.15 45.25 25.3 45.6 25.35
L 44.65 24.85
M 47.6 25.1
Q 47.65 24.9 47.6 24.85 47.3 24.65 46.9 24.6 46.5 25.05 46.1 25.45 45.7064453125 25.8435546875 45.5 26.25 45.5359375 26.258984375 45.7 26.3 46.75 26.2 47.35 25.4 47.45 25.25 47.6 25.1
M 49.15 25.25
Q 49.6 25.35 49.5 24.85 49.45 24.6 49.4 24.4
L 49.15 25.25
M 50.25 27.4
L 50.25 27.25
Q 50.15 27.05 50.05 26.95 49.15 26.05 47.8 26.3 49.05 26.95 50.25 27.4
M 58.35 36.2
Q 58.95 36.5 59.6 36.4 60.65 36.7 61.75 36.65 62.2 36.45 62.6 36.2 63.2 35.95 63.8 35.6
L 61.1 34.8 61.4 35.8 55.3 35
Q 56.85 35.45 58.35 36.2
M 59.7 34.5
Q 59.7 34.3 59.55 34.15 59.4 34.05 59.2 34.05 59 34.05 58.85 34.15 58.7 34.3 58.7 34.5 58.7 34.7 58.85 34.8 59 34.95 59.2 34.95 59.4 34.95 59.55 34.8 59.7 34.7 59.7 34.5
M 52.3 29.35
Q 52.5 29.35 52.75 29.35 53.5 29.15 53.3 29.05
L 52.3 29.35
M 51.05 30.8
L 50.65 30.15
Q 50.3 29.35 49.7 28.8 48.9 28.15 47.95 27.75 47.3 27.4 46.65 27.2 46.45 27.1 46.25 27.05 48.65 28.9 51.05 30.8
M 51.4 28.3
L 52.15 28.75
Q 53.15 28.4 53.3 27.35
L 51.6 27.3 51.4 28.3
M 59.5 28.85
Q 59.5 28.95 59.65 29.05 59.9 29 60.05 28.8 60.4 28.6 60.65 28.25
L 60.55 27.1
Q 59.3 26.1 57.7 26 59.1 27.2 59.5 28.85
M 55.75 27.55
Q 55.9 27.5 56 27.35 56.1 27.2 56.2 27.05 56.1 26.4 55.65 26.1 55.3 25.85 54.95 25.65
L 54.3 25.7
Q 54.65 26.65 55.25 27.5 55.35 27.55 55.5 27.65 55.65 27.65 55.75 27.55
M 55.8 25.7
L 56.4 26.6 56.4 27.95
Q 56.85 27.8 57.3 27.7 56.5 28.95 56.55 30.15 57.7 30.05 57.95 28.5 58.15 27.15 57.3 26.05 56.65 25.25 55.8 25.7
M 58.8 24.5
Q 58.85 24.6 58.95 24.7 59.05 24.75 59.2 24.8 59.3 24.7 59.4 24.65 59.25 24.45 59.1 24.4 58.95 24.35 58.8 24.5
M 57.6 21.85
Q 57.25 22.05 57 22.3 56.85 22.4 56.75 22.55 57.05 23.8 58.45 23.85 59.4 23.85 60.15 23.1 60.3 22.65 59.05 23 58.5 22.85 58 22.7
L 58 21.6
Q 57.8 21.7 57.6 21.85
M 52.9 22.5
L 52.45 23.95
Q 52.75 24.6 53.1 25.3
L 50.75 25.65 53.05 25.95 53.55 25.6
Q 53.9 25 53.6 24.3 53.25 23.35 52.9 22.5
M 52 20.4
L 52.4 20.2
Q 52.9 19.85 52.3 19.35 52.05 19.2 51.85 19.1
L 51.4 19.2 51.25 19.65 52 20.4
M 50.8 19.1
Q 50.8 19 50.8 18.9 50.15 18.95 50.8 19.1
M 54.7 21.05
L 55.35 21.35
Q 55.95 21.35 56.25 20.55 56.4 20.25 56.5 19.95 56 20.95 54.7 21.05
M 54 20.9
L 54.2 20.5
Q 53.55 20.2 53.9 20.85
L 54 20.9
M 54 20.9
L 53.85 20.95
Q 54.2 21.05 54.7 21.05
L 54 20.9
M 50.7 15
L 50.8 15.15
Q 51.25 15.5 50.7 15
M 59.45 17.85
Q 59.6 17.75 59.6 17.6 59.6 17.45 59.45 17.35 59.35 17.25 59.15 17.25 58.95 17.25 58.8 17.35 58.7 17.45 58.7 17.6 58.7 17.75 58.8 17.85 58.95 17.95 59.15 17.95 59.35 17.95 59.45 17.85
M 57.3 17.5
Q 57.3 17.65 57.45 17.75 57.6 17.85 57.8 17.85 58 17.85 58.15 17.75 58.3 17.65 58.3 17.5 58.3 17.35 58.15 17.25 58 17.15 57.8 17.15 57.6 17.15 57.45 17.25 57.3 17.35 57.3 17.5
M 48.4 21.75
L 48.55 21.75 48.7 21.55
Q 48.6 21.55 48.4 21.75
M 49.8 23.1
Q 49.8 23.4 50.05 23.6 50.35 23.85 50.7 23.85 51.05 23.85 51.3 23.6 51.6 23.4 51.6 23.1 51.6 22.8 51.3 22.55 51.05 22.35 50.7 22.35 50.35 22.35 50.05 22.55 49.8 22.8 49.8 23.1
M 46.8 23.2
Q 47.25 22.65 46.2 22.5 46.05 22.35 45.9 22.4 45.65 23.15 46.45 23.35 46.6 23.25 46.8 23.2
M 40.75 24.45
Q 40.9 24.3 40.9 24 40 23.95 40.55 24.55 40.65 24.65 40.75 24.45
M 41.4 22
Q 41.2 22 41 22 41.05 22.55 41.5 22.25 41.75 22.05 41.4 22
M 44.1 21.45
Q 44.1 21.2 43.95 21.05 43.85 20.9 43.7 20.9 43.55 20.9 43.4 21.05 43.3 21.2 43.3 21.45 43.3 21.7 43.4 21.85 43.55 22 43.7 22 43.85 22 43.95 21.85 44.1 21.7 44.1 21.45
M 45 18.75
L 45.55 19.45
Q 45.85 19.55 46.2 19.65 46.75 19.5 47.3 19.4 47.7 19.2 48.1 19.05
L 49.6 20.25
Q 48.8 17.8 46.4 17.35 45.05 17.45 45 18.75
M 45.2 21.35
Q 45.15 21.05 44.9 20.75 44.8443359375 20.722265625 44.8 20.65
L 45 21.4
Q 45.4 22 45.2 21.35
M 49.45 16.05
Q 49.65 16.15 49.9 16.3 49.85 15.4 48.95 14.95 48.65 14.8 48.4 14.7 48.8 15.5 49.45 16.05
M 87 81.8
Q 87.15 81.7 87.15 81.5 87.15 81.3 87 81.15 86.9 81.05 86.7 81.05 86.5 81.05 86.35 81.15 86.25 81.3 86.25 81.5 86.25 81.7 86.35 81.8 86.5 81.95 86.7 81.95 86.9 81.95 87 81.8
M 85.55 81.75
L 85.6 81.8
Q 85.8 81.25 85.3 81.5 85.1 81.6 85.55 81.75
M 83.15 78.1
Q 83.35 78.1 83.45 77.95 83.6 77.85 83.6 77.7 83.6 77.55 83.45 77.4 83.35 77.3 83.15 77.3 82.95 77.3 82.8 77.4 82.7 77.55 82.7 77.7 82.7 77.85 82.8 77.95 82.95 78.1 83.15 78.1
M 81.95 77.3
Q 82.1 77.15 82.1 76.95 82.1 76.75 81.95 76.6 81.85 76.45 81.7 76.45 81.55 76.45 81.4 76.6 81.3 76.75 81.3 76.95 81.3 77.15 81.4 77.3 81.55 77.45 81.7 77.45 81.85 77.45 81.95 77.3
M 83.65 76.8
Q 83.85 76.7 84 76.6 83.2193359375 76.8439453125 83.3 76.35 83.1578125 77.0953125 83.65 76.8
M 95.7 66.4
Q 95.85 66.15 95.9 65.9
L 95.3 66.7
Q 95.55 66.55 95.7 66.4
M 88.65 72.75
Q 88.75 72.65 88.75 72.5 88.75 72.35 88.65 72.2 88.55 72.1 88.4 72.1 88.25 72.1 88.15 72.2 88.05 72.35 88.05 72.5 88.05 72.65 88.15 72.75 88.25 72.9 88.4 72.9 88.55 72.9 88.65 72.75
M 85.85 72.5
Q 85.95 72.4 85.95 72.3 85.95 72.2 85.85 72.1 85.75 72 85.65 72 85.55 72 85.45 72.1 85.35 72.2 85.35 72.3 85.35 72.4 85.45 72.5 85.55 72.6 85.65 72.6 85.75 72.6 85.85 72.5
M 82.4 72.4
Q 82.15 72.65 81.9 72.85 82.7 73.9 83.9 73.75 85.05 73.35 83.95 73.35 83.1 73.35 82.6 72.75 83.2 73.1 84.1 72.55 83.55 71.6 82.4 72.4
M 81.9 70.45
L 81.9 69.4
Q 81.45 68.7 80.4 68.8 80.1 68.85 79.85 68.9
L 79.2 69.75
Q 80.65 69.85 81.9 70.45
M 85 70.95
Q 85 70.75 84.85 70.6 84.75 70.45 84.6 70.45 84.45 70.45 84.3 70.6 84.2 70.75 84.2 70.95 84.2 71.15 84.3 71.3 84.45 71.45 84.6 71.45 84.75 71.45 84.85 71.3 85 71.15 85 70.95
M 84 69.95
L 84.2 68.6 83.8 68.6 84 69.95
M 82.4 65.9
L 82.6 67.3
Q 83.65 67.55 84.4 66.5 84.7 66.2 83.35 65.85 82.65 65.7 82.05 65.4 81.1 64.75 80.1 64.45 78.85 64 78.25 62.85 79 64.4 79.9 65.8
L 80 65.65
Q 80.8 64.85 81.9 65.45 82.15 65.65 82.4 65.9
M 89.2 65.3
L 90.25 65.05 90.7 64.3 89.2 65.3
M 89.55 66.55
Q 89.4 66.7 89.4 66.9 89.4 67.1 89.55 67.2 89.7 67.35 89.95 67.35 90.2 67.35 90.35 67.2 90.5 67.1 90.5 66.9 90.5 66.7 90.35 66.55 90.2 66.45 89.95 66.45 89.7 66.45 89.55 66.55
M 86.3 66.65
Q 86.3 66.3 86.1 66.05 85.95 65.85 85.7 65.85 85.45 65.85 85.25 66.05 85.1 66.3 85.1 66.65 85.1 67 85.25 67.2 85.45 67.45 85.7 67.45 85.95 67.45 86.1 67.2 86.3 67 86.3 66.65
M 90.3 61.35
Q 90.05 61.35 89.85 61.55 89.65 61.75 89.65 62.05 89.65 62.35 89.85 62.55 90.05 62.75 90.3 62.75 90.55 62.75 90.75 62.55 90.95 62.35 90.95 62.05 90.95 61.75 90.75 61.55 90.55 61.35 90.3 61.35
M 89.55 60.65
L 89.6 60.7
Q 89.8 60.25 89.3 60.45 89.2 60.5 89.55 60.65
M 86.8 60.1
Q 87.6 60.35 88 61.1 88.05 61.15 88.15 61.15 88.2 61.05 88.25 61 88.3 60.9 88.3 60.8 88.3 60.6 88.2 60.4
L 87.6 60.05 86.8 60.1
M 85.4 61.45
L 84.8 60.8
Q 83.8 60.85 83.2 62 82.7 63.05 83.4 63.9
L 83.2 62.8 87.7 62.7
Q 86.95 62.2 86.2 61.75 85.8 61.55 85.4 61.45
M 84.4 59.9
L 85.8 59.1 86.75 59.15
Q 86.45 57.85 85.1 58.2 84 58.35 83.65 59.35
L 84.4 59.9
M 42.3 55.6
Q 42.2 55.55 42 55.6
L 42.15 55.75 42.3 55.6
M 27.35 50.55
L 27.4 50.5
Q 27.35 50.45 27.3 50.4
L 27.35 50.55
M 31.15 52.15
L 30.7 51.5
Q 30.25 51.45 29.85 51.45 29.4 51.45 28.95 51.5 28.35 51.65 27.75 51 27.5 50.8 27.35 50.55 25.35 51.35 23.1 51.15 22.45 51.15 21.85 51.2 23.6 52.75 25.95 52.3 27.75 51.75 29.45 52.3 29.95 52.55 30.45 52.35 30.8 52.4 31.15 52.15
M 61.25 40.05
L 61.25 40 61.1 40.05
Q 61.15 40.05 61.25 40.05
M 61.25 40
L 62.1 39.3 61.15 39.3 61.25 40
M 63.5 30.65
L 63.95 29.95 63.15 30.25 63.5 30.65
M 66.25 28.35
Q 66.65 27.95 67.05 27.55
L 63.95 29.95
Q 65.2 29.35 66.25 28.35
M 60.4 39.75
L 59.95 40 61.1 40.05 60.4 39.75
M 40.8 32.9
Q 40.9 32.8 40.95 32.7
L 40.3 32.8
Q 40.55 32.85 40.8 32.9
M 58.75 29.95
L 58.75 29.95 58.75 29.9 58.75 29.95
M 57.9 30.6
Q 57.2 30.6 56.6 30.4 56.1 30.4 55.6 30.25 55.15 30 54.65 29.85 53.5 30.5 52.5 31.3 52.35 31.4 52.15 31.45
L 51.4 31.15
Q 49.3 32 48 30.15 47.75 29.8 47.35 29.6 46.1 29.65 44.9 29.3 44.35 29.15 43.8 29.05 43.5 29.05 43.25 29.1 44.45 30.1 45.95 30.9 46.15 31.05 46.3 31.3 46.4 31.4 46.45 31.6
L 46 32.55
Q 44.75 32.15 43.85 31.2
L 43.95 32.2 42.45 32.4 41.95 31.8 42.55 30.55
Q 41.45 29.5 40.35 29.9
L 40.85 31.1 39.85 31.4
Q 40.35 31.9 40.85 32.45 40.95 32.55 40.95 32.7 42.95 32.85 44.45 34.15 44.5 34.15 44.5 34.25
L 44 34.65
Q 42.55 33.95 41.05 33.8 38.9 33.7 36.75 33.65 36.2 33.55 35.7 33.45 37.8 33.3 39.95 33.2 40.1 33 40.3 32.8 38.4 32.8 36.8 31.7 36.5 31.55 36.35 31.3 35.7 32 35.15 32.6 34.9 32.8 34.75 33.1 34.45 33.75 34 34.05 33.25 34.4 32.6 34.3 31.45 34 30.15 34.1 29.45 34.35 29.05 33.7
L 29.5 33
Q 29.95 32.85 30.45 32.7 30.85 32.6 31.25 32.5
L 30.95 31.7 30 32.2 30 31.25
Q 28.65 33.2 27.75 35.45 28.25 33.9 26.6 33.05
L 26.55 34.85
Q 25.8 33.65 24.4 34.25 22.9 34.7 22.2 36.2 24.1 36.25 26.05 35.7 26.3 35.75 26.5 35.55
L 26.5 35.25
Q 26.9 35.55 27.4 36.1 27.8 36.55 28.4 36.85 29.7 37.6 31.1 37.25
L 31.4 36.85
Q 31.65 36.35 31.4 36.05 30.9 35.35 30.8 34.55 32.3 35.6 34.15 35.35 35.05 35.05 35.95 34.75 36.4 34.55 36.85 34.55
L 36.8 34.65
Q 36.4 35.3 36.85 36.15 37.1 36.65 37.5 37.35 37.85 38.05 38.1 38.85 36.6 37.6 35.1 38.7 34.65 38.95 34.35 39.35
L 36.1 38.85 36.5 41.7
Q 34.9 41.1 33.35 40.3 32.9 40.05 32.4 39.75 31.7 39.25 31.05 39.8 34.1 41.35 35.4 44.3 35.2 45.15 34.4 45.3 33.9 45.25 33.4 45.25 33.5 44.55 33.4 43.95 33.3 42.95 33.05 42
L 31.55 42.95 32.5 43.25 32.85 43.6
Q 32.85 44.95 32.25 46.25 32 46.7 31.75 47.15 31.15 47.4 30.7 46.95 30.25 46.6 29.95 46.15 29.65 46.4 29.6 46.7 29.35 47.6 29.5 48.55 29.6 48.95 29.85 49.35 28.4 49.3 27.85 48 27.45 46.95 27.3 45.8 27.2 45.05 26.35 44.9 25.6 45.1 25.8 46 25.9 46.6 25.65 47 25.6 47.1 25.4 47.1 25.3 47.05 25.3 47 25.2 46.95 25.2 46.85 25.2 46.8 25.25 46.8 25.3 46.7 25.35 46.6 25.35 46.5 25.35 46.45 25.35 46.4 25.3 46.35 25.05 46.55 25.05 46.3 24.9 44.65 23.75 43.25 24.7 43.9 25.45 44 25.9 44 26.4 44
L 26.85 43.1
Q 26.7 42.4 26.55 41.75 26.4 41.25 26.4 40.75 26.5 40.7 26.5 40.75 26.8 41.2 27.05 41.75 27.3 42.2 27.6 42.7
L 28.2 42.95 30.75 42.35 29.55 41.1 27.45 41.3
Q 28.25 40.1 29.65 39.35 28.05 39.6 26.9 38.55 26.55 38.2 26.25 37.9
L 25.7 39 24.3 37.9 23.75 40.15 24.7 39.35
Q 24.95 39.5 25.1 39.8 25.3 40.05 25.35 40.4
L 24.7 42.8 20.8 42.9
Q 20.846875 42.8724609375 20.85 42.85 21 42.75 21 42.6 21 42.45 20.85 42.35 20.75 42.25 20.6 42.25 20.45 42.25 20.3 42.35 20.2 42.45 20.2 42.6 20.2 42.75 20.3 42.85 20.3546875 42.873828125 20.35 42.9
L 20 42.9
Q 19.95 44.2 19.05 45.3 18.95 45.4 18.9 45.55 19.5 45.3 20.65 44.75 22.6 43.95 23.65 45.8 24.25 46.9 24.95 47.7
L 26.2 47.9 26.7 48.55 25.45 49.6 27.3 50.4 27.05 48.35 28.15 50.45 29.15 50.8 31.95 48.6 31.85 49.9
Q 32.4 49.85 33.15 50.15 33.85 50.4 34.6 50.7 36 50.35 37.5 50.75 39.2 51.3 40.05 52.95 40.35 53.5 40.2 54.15 40 54.9 39.5 55.6 38.55 56.65 37.95 57.8 38.15 57.95 38.4 57.9 38.7 58.05 39.05 58 39.25 58 39.45 58
L 40.8 58.95
Q 42 58.5 42.45 57.25 42.5 57.05 42.6 56.85
L 42.15 55.75 40.9 57.2 40.4 56.15 42 55.6 41.35 55.2
Q 40.9 54.35 41.35 53.6 42.05 52.6 41.25 51.85 40.4 51.15 39.25 50.8 40.2 50.6 40.4 49.7 40.4 48.7 39.75 48.1
L 40.55 47.8
Q 39.85 47.05 40.05 46.2 40.8 45.65 41.2 46.75 41.6 48 42.1 49.3 42.6 50.5 43.85 50.7 42.85 50 42.65 48.75 42.3 46.75 41.15 45.1
L 40.15 45.8 39.85 44.8 38.25 45.9 39.75 47.8 36.85 48.1 39.85 49
Q 38.6 50 37.15 50.25 35.2 50.25 35.1 48.35 35.05 47.35 35.95 46.75 36.75 46.2 37.55 46.2 36.45 45.5 35.3 46.3 34.35 47 33.35 47.9
L 34.55 49.3 32.95 49.15 32.55 48.75
Q 32.3 47.5 33.45 46.75 33.95 46.45 34.55 46.2 35.75 45.85 36.3 44.75 36.7 43.95 36.65 43.25
L 37.35 42.6
Q 38.75 42.9 40 42.95 40.7 43.15 41.45 43 42.6 42.7 42.85 41.6 43.6 43.2 44.95 44.25 45.55 44 46.15 43.8 43.7 42.85 42.45 40.65 43.9 41.4 45.35 41.95 46.65 42.55 48.35 42.55 49 42.55 49.7 42.65
L 49.8 43.2 48.35 42.8 47.3 44.1 53.4 43.8 48.5 45.8
Q 49.35 46.15 50.45 46.25 50.75 46.4 51.15 46.35 51.55 46.7 52 47.1 50.05 47.75 48 48.05 47.55 47.9 47.15 47.8 46.7 47.65 46.3 47.55
L 44.6 48.3 45.6 48.5 44.7 49.7
Q 46.4 48.85 47.9 49.85
L 47.1 50.15 47.8 51.45 46.8 51.6
Q 47.15 52.2 47.85 52.4 48 52.45 48.2 52.5
L 52.05 51.35
Q 51.7 48.85 53.25 46.6 53.65 46.1 53.9 45.55 54.4 44.25 55.6 43.25 56.15 42.75 56.95 42.45 57.75 42.3 58.6 42.2 57.8 41.45 56.7 41.2 56 41.05 55.4 41.55 55.05 41.85 54.65 42.15 53.4 43.05 52.05 42.7 50.6 42.7 48.95 41.95 48.35 41.75 47.75 41.7 47.45 41.55 47.2 41.45 46.65 41.05 46.2 40.6
L 46.5 39.95
Q 47.9 39.6 49.35 40.5 50.2 41.05 50.95 41.85 51.4 42.4 52.05 42.7 52.7 42.6 53.25 42.35 54.5 42.15 55.4 41.55
L 55.75 41.2 54.55 40.85 55.75 39.7
Q 56.55 39.5 56.75 39.7 57.35 40.2 58.25 40.3 59.2 40.6 59.95 40
L 58.7 39.75 59.25 39.5 60.4 39.75 61.15 39.3 61.1 38.45
Q 58.45 38.9 56.35 37.05 55.7 36.45 55.4 35.6 55.25 35.15 55.25 34.65
L 58.7 35.3 56.45 33.2 58.3 33.6 59.45 33
Q 60.9 32.7 62.1 33.85 62.65 34.4 63.25 34.45 63.35 34.3 63.5 34.2 63.55 34.05 63.55 33.95 63.5 33.75 63.4 33.65 63.15 33.35 62.9 33.1 62.65 32.85 62.45 32.65 62.05 32.25 63.35 32.75 65.2 33.2 66.8 32.25
L 66.55 33.65
Q 66.8 33.6 67.1 33.6 67.25 33.55 67.4 33.65 67.55 33.65 67.7 33.8 67.85 33.8 68.05 33.85 68.2 33.7 68.25 33.6 68.35 33.4 68.4 33.25
L 68.25 31.75
Q 67.7 31.1 66.05 31.45 64.5 31.6 63.5 30.65
L 63.25 32.05
Q 62.05 31.15 60.35 30.75 60 30.65 59.75 30.4 60.3 29.5 61.3 29.75 61.65 29.65 62.05 29.55 61.55 29.4 60.35 29.4 59.55 29.65 58.75 29.95
L 59.25 30.55
Q 58.6 30.5 57.9 30.6
M 53.45 33.4
Q 54.4 32.75 55.3 31.7 55.8 32.5 54.9 33.15 54.2 33.75 54 34.7 53.75 36.25 54.2 37.6
L 52.75 37.45
Q 51.35 36.6 50.7 35
L 50.9 34.4 52.3 36.1 53 35.75
Q 52.2 34.7 51 34.25 50.45 34.05 49.9 34.05 49.2 34 48.5 34
L 49.75 32.35
Q 50.9 32.2 52 32.9 52.65 33.35 53.45 33.4
M 47.8 30.1
L 47.5 30.65 47.25 30.1 47.8 30.1
M 42.4 35.6
Q 42.7 35.6 42.9 35.85 43.1 36.1 43.1 36.45 43.1 36.8 42.9 37.05 42.7 37.3 42.4 37.3 42.1 37.3 41.9 37.05 41.7 36.8 41.7 36.45 41.7 36.1 41.9 35.85 42.1 35.6 42.4 35.6
M 45.15 36.25
Q 45.15 36 45.3 35.8 45.45 35.65 45.65 35.65 45.85 35.65 46 35.8 46.15 36 46.15 36.25 46.15 36.5 46 36.65 45.85 36.85 45.65 36.85 45.45 36.85 45.3 36.65 45.15 36.5 45.15 36.25
M 48.7 33
Q 48.7 33.05 48.7 33.15 48.1 33.2 48 32.6 47.95 32.3 47.8 32 48.4 31.5 48.6 32.3 48.7 32.65 48.7 33
M 47.8 36.95
Q 46.8 36.15 46.8 34.9 46.95 33.95 47.9 34.45 49.15 35 49.3 36.3
L 48.9 37 47.8 36.95
M 49.85 37.95
L 50 37.15 50.9 37.7 52.6 38.25 53 39.25
Q 52.75 39.4 52.5 39.7 50.6 39.6 49.85 37.95
M 44.8 37.15
Q 45.05 37.4 45.3 37.75 45.2 38.5 44.55 38.6 43.35 38.65 42.1 39.2
L 41.85 40 42.75 41.5 39.75 41.4 40.75 40.9
Q 40 40.1 39.15 39.55 38.8 39.3 38.55 39 39.55 39.3 40.55 39.6
L 40.95 37.6 42.05 38.9
Q 42.8 37.25 44.5 37.05 44.65 37.05 44.8 37.15
M 56.75 37.85
Q 57.1 38 57.4 38.3 56.45 38.8 55.6 38.1 55.6 37.9 55.7 37.8 55.8 37.65 56.05 37.55 56.4 37.65 56.75 37.85
M 48.9 48.6
L 50.7 48.9 50.4 50.2 49.3 49 50.05 50.4 50.05 51.25 49.35 51.7 48.6 51.45
Q 48.45 51.25 48.4 51.05 48.25 50.65 48.35 50.2 48.5 49.4 48.9 48.6
M 38.6 36.65
Q 38.35 36.55 38.15 36.35
L 37.5 34.6
Q 37.85 34.6 38.95 35.3 39.8 35.9 40.6 36.65 39.55 37.15 38.6 36.65
M 37.15 40.6
Q 37.25 40.45 37.4 40.4
L 38.3 40.45
Q 39 40.55 39.35 41.25 39.4 41.4 39.4 41.6 38.85 42.5 37.7 42.05 37.15 41.75 36.85 41.2 36.95 40.85 37.15 40.6
M 82.15 60.3
Q 82.25 60.15 82.25 60 81.8 59 80.7 58.9 79.55 58.7 78.55 59.3 78.45 59.2 78.45 59.15 78.3 58.15 77.4 58 76.7 57.75 75.95 57.8 75.35 57.85 74.8 57.4 72.85 56.05 70.95 57.2 70.1 57.7 69.25 57.25 68.85 56.95 68.2 56.75 66.7 56.75 65.25 56.5 64.2 55.65 64.6 54.4 64.75 54.05 64.9 53.75
L 63.8 53.5
Q 65.55 52.35 66.7 50.75
L 67.1 51.4
Q 66.85 52.25 66.15 52.7 65.7 52.95 65.35 53.25 66.35 53.25 67.4 53.3
L 66.6 54.1
Q 68.25 53.8 69.3 52.6 68.75 52.75 68.2 52.9 68.5 51.05 70.4 51 71.9 51 73.7 51 75.9 51.15 76.75 49.15 77 48.55 77.5 48.1 76.5 46.25 74.5 45.35 73.95 45.1 73.4 45.25 72.7 45.45 72.2 46 71.75 46.55 71.75 47.25 71.75 47.9 72.2 48.45 72.75 49.1 73.5 49.65 71.6 50.65 69.5 50.15
L 70.5 49.05
Q 69.2 49.15 68.75 48 68.65 47.8 68.65 47.65 68.3 47.55 68 47.6 67.4 47.85 66.95 48.35 66.75 48.55 66.6 48.85
L 68.05 48.95 68.55 49.65 67.9 51.05
Q 67.65 49.95 66.65 49.4 65.65 48.8 64.7 48.2 64.5 48 64.3 47.8 66.2 47.3 67.9 46.15 68.75 45.6 69.35 46.35 69.65 46.7 69.9 47.15 70 47.4 70.1 47.7
L 69.9 46.6 70.85 46.65
Q 70.05 46.15 69.5 45.55 69.15 45.1 68.95 44.6
L 69.15 44.15
Q 69.8 43.8 70.25 44.15 70.8 44.6 71.55 44.85 72.3 44.85 72.65 44.3 73.05 43.7 73.4 43.1
L 71.55 43 70.85 44.1
Q 70.4 43.95 71.1 42.95 71.7 42 72.85 41.9 74.2 41.85 75.4 41.3 74.15 40.8 73.2 40.5 71.65 40.3 70.4 41.5 69.75 42.05 69 41.75 68.7 41.65 68.5 41.45
L 68.85 40.9 70.2 40.6 67.2 37.8
Q 67.45 38.1 67.65 38.5 67.8 38.8 67.95 39.2 67.7 40.15 66.8 40.45 65.85 40.65 64.95 41.1 64.6 41.3 64.2 41.45 64.05 41.55 63.85 41.6 63.8 41.4 63.8 41.35 65.35 40.35 65.85 38.55 65.95 38.25 66.15 37.9 66.3 37.6 66.4 37.25
L 65.5 36.3
Q 65.35 36.6 65.3 36.95 65.15 37.9 64.5 38.6 64.2 38.05 63.9 37.55 63.65 37.15 63.2 37.05 62.2 37.2 62.2 38.35 62.2 38.8 62.1 39.3 62.75 40.15 62.95 41.35 62.95 41.4 62.95 41.45 64.3 42.05 65.65 42.8 67 43.6 67.4 45.3 66.85 46.7 65.4 46.3
L 66.6 45.1
Q 64.5 44.35 62.9 45.6 63.6 45.4 64.1 45.35 64.6 45.15 65.1 45.35 65.25 45.3 65.35 45.45
L 65.05 45.9 63.2 46.45 61.85 44.85 58.1 44.65 60 46.95 60 45 60.75 47.9 60 46.95 60 47.7
Q 59.6 47.05 59.1 46.5 59 46.45 58.85 46.5 57.95 47.2 57.9 48.3 57.9 48.8 57.8 49.3
L 59.1 48.3 59.3 48.8
Q 59.4 49.55 58.8 50.1 58.15 50.75 57.75 51.35 57.7 51.45 57.65 51.55 58.75 49.9 60.7 49.85 61.15 49.85 61.6 49.9 61.5 50.25 61.4 50.6 61.15 51.4 60.5 51.5
L 61.45 53.55 59.9 54.6
Q 60.1 54.7 60.3 54.8 60.5 54.8 60.7 54.8 60.9 54.75 61.05 54.65 61.25 54.55 61.35 54.4 61.5 54.15 61.6 53.95
L 62.3 55.55 61.6 55
Q 61.85 56.05 61.25 56.9 61.1 57.1 60.9 57.3
L 60.6 55.6 59.6 56.45
Q 59.7 56.75 59.9 56.95 60.4 57.3 60.05 57.95 59.95 58.05 59.9 58.15 59.8 58.2 59.7 58.3 59.3 58.55 58.8 58.4 58.763671875 58.363671875 58.7 58.3 58.7794921875 58.4294921875 58.85 58.5
L 62.55 58.45
Q 62.7 58.2 62.7 57.95 62.75 57.65 62.6 57.4 62.45 57.15 62.3 56.95
L 62.95 56.4
Q 63.75 57 64.8 57.05 65.6 57.05 66.4 57.05 66.95 57.1 66.85 57.7 66.85 57.8 66.8 57.9 66.75 57.95 66.7 58 66.2 58.3 65.6 58.45 65.5 58.95 65.6 59.5 65.65 60 65.9 60.5 66.35 59.85 66.9 59.4 67.4 58.95 68.1 58.7
L 67.2 59.9
Q 67.2 60 67.2 60.15 67.2 60.3 67.25 60.5 67.45 61 66.9 61.3
L 64.35 60.35
Q 64.15 60.3 64.15 60.35 64.05 60.6 64.1 60.95 65.05 61.35 65.2 62.25 65.35 63.45 64.55 64.25 66 64.05 67 63.15
L 67 64.55
Q 68.5 63.65 68.6 62.2 68.65 61.55 68.8 61.15
L 72.2 60.7
Q 71.85 61.1 71.4 61.45 70.85 61.95 70.15 62.3 68.55 62.9 68.75 64.75 68.9 66.05 70.2 66.45 71.05 66.65 71.9 66.55 72.95 66.6 73.65 67.35 74.55 68.35 74 68.1 73.8 68.05 73.65 68.05 73.5 68.1 73.45 68.2 73.35 68.45 73.35 68.75 73.55 68.8 73.75 68.8 73.95 68.8 74.1 68.7 74.2 68.6 74.25 68.5
L 74.55 69.85 76.85 69.05 75.55 68.6 74.95 68.05 74.8 66.15
Q 74.4 65.7 73.95 65.35 73.3 64.9 72.65 64.55 71.85 64.1 71.05 63.8 70.8 63.75 70.55 63.9 70.55 64.1 70.7 64.25 71.2 64.75 71.75 65.25 71.9 65.35 72 65.55 71.95 65.7 71.85 65.8 71.05 66.1 70.35 65.55 70 65.05 70.15 64.55 70.35 63.95 70.75 63.4
L 75.7 63.6 76.25 62.75 75.05 62.9 74.65 62.55 72.25 63.35 74.65 60 73.1 60 74.1 58.35 77.6 58.45
Q 77.3 59.3 76.6 59.8 76.2 60.05 76.05 60.6 75.9 61.15 75.9 61.75 76.8 61.4 77.45 60.7 77.65 60.4 77.85 60.15 77.95 60.05 78 60.05 78.1 60.15 78.25 60.3 78.3 60.4 78.4 60.5 79 60.45 79.65 60.05 80.15 59.8 80.7 59.9 81.1 60.1 81.3 60.7 81.5 61.35 81.3 62.15
L 83 61.35 81.9 60.7
Q 82.1 60.5 82.15 60.3
M 60.4 48.4
L 60.2 48 60.8 47.95 61 48.85 61.8 48.15 61.6 49.65 60.4 48.4
M 67.05 41.1
L 67.9 41
Q 68.25 41.45 67.95 41.75 67.75 42.05 67.45 42.3 66.45 42.45 66.35 41.75
L 67.05 41.1
M 63.5 49.4
L 64.2 49.25
Q 65.1 49.6 65.15 50.55 64.95 51.1 64.4 51.2 64.25 51.2 64.1 51.2 63.35 50.95 63.25 50.05
L 63.5 49.4
M 73.4 48
L 72 48
Q 72.25 47.45 72.65 47.05 73.05 46.65 73.6 46.4
L 73.4 48
M 74.45 48
Q 74.1 48 73.8 48 75.3 47.75 76.3 46.95
L 76.3 47
Q 75.95 48.25 74.45 48
M 72.7 58.15
Q 72.9 58.4 72.9 58.7 72.9 59 72.7 59.2 72.55 59.45 72.3 59.45 72.05 59.45 71.85 59.2 71.7 59 71.7 58.7 71.7 58.4 71.85 58.15 72.05 57.95 72.3 57.95 72.55 57.95 72.7 58.15
M 63.8 51.8
Q 63.6 51.75 63.45 51.6 63.15 51.4 62.9 51.1 63.5 51.35 63.95 51.7
L 63.8 51.8
M 70.5 60.45
Q 70.3 60.1 70.6 60.1 70.75 61 70.5 60.45
M 82.45 56.65
Q 82.3 56.9 82.3 57.2 82.3 57.5 82.45 57.7 82.65 57.95 82.9 57.95 83.15 57.95 83.3 57.7 83.5 57.5 83.5 57.2 83.5 56.9 83.3 56.65 83.15 56.45 82.9 56.45 82.65 56.45 82.45 56.65
M 81.3 50.6
Q 81.35 50.65 81.4 50.7 81.9 50.35 81.1 50.15 80.8 50 80.45 50 80.55 50.5 81.3 50.6
M 86.7 54.6
Q 87 54.85 87.2 55.3 86.85 56.15 85.9 56.1 84.65 56.4 83.25 55.85 82.2 55.4 81.9 54.55 81.7 53.95 82.25 53.4 82.35 53.3 82.45 53.2
L 81.4 52.6
Q 81.05 52.9 80.75 53.25 79.55 54.7 80.45 56.1 81.05 57.05 81.4 58.2
L 82.2 55.7
Q 85.25 56.65 88.2 56.75 88.25 56.45 88.25 56.15 88.3 55.55 88.4 54.95 88.45 54.55 88.6 54.15 86.95 54.25 86.25 53.15 86 52.85 85.85 52.45 85.5 51.3 84.5 50.7
L 83.4 50.5 82.3 51.5
Q 82.55 51.55 82.75 51.45 83.25 51.35 83.75 51.15
L 84.6 51.25 85.45 53.4
Q 86.1 54 86.7 54.6
M 87.5 52.25
L 87.45 52.25
Q 87.7 53.15 87.5 52.25
M 90.25 52.3
L 89.75 52.45 89.45 52.8 89.45 53.25
Q 90 54 90.8 53.85
L 90 52.85 91.2 52.35 90.25 52.3
M 89.95 50.05
Q 90.45 50.2 89.9 49.6
L 89.35 49.2
Q 89.05 49.9 89.95 50.05
M 88.3 48.1
L 88.05 47.35
Q 88 47.55 88.05 47.75 88.1 47.9 88.3 48.1
M 88.1 49.15
Q 88.05 49.05 88 49
L 87.45 50.9
Q 87.65 51.3 87.95 51.6 88.15 51.85 88.45 52
L 89.15 51.35
Q 89.2 50.45 88.55 49.75 88.3 49.45 88.1 49.15
M 88.7 45.4
Q 88.85 45.15 88.9 44.9
L 88.3 45.7
Q 88.55 45.55 88.7 45.4
M 83.6 48.8
Q 83.85 48.75 84.1 48.6
L 82.4 48.75
Q 83.05 49.2 83.6 48.8
M 83.4 44.9
L 82.4 46.3
Q 83.2 45.95 84 45.6
L 83.4 44.9
M 85.85 45.55
Q 85.65 45.55 85.5 45.65 85.4 45.8 85.4 46 85.4 46.2 85.5 46.3 85.65 46.45 85.85 46.45 86.05 46.45 86.15 46.3 86.3 46.2 86.3 46 86.3 45.8 86.15 45.65 86.05 45.55 85.85 45.55
M 82.55 41.7
Q 82.4 41.8 82.3 41.95
L 83.3 42.25
Q 83.25 42.3 83.2 42.35 82.5 42.45 82.55 43
L 83.6 43.05 83.9 41.35
Q 83.1 41.3 82.55 41.7 Z"/>
</g>
</defs>

<g transform="matrix( 1, 0, 0, 1, 2.75,1.5) ">
<use xlink:href="#Layer1_0_FILL"/>
</g>
</svg>
