
<svg xmlns="http://www.w3.org/2000/svg" version="1.1" xmlns:xlink="http://www.w3.org/1999/xlink" preserveAspectRatio="none" x="0px" y="0px" width="100px" height="100px" viewBox="0 0 100 100">
<defs>
<g id="Layer1_0_FILL">
<path fill="#000000" stroke="none" d="
M 50.4 55.75
Q 49.9 56.2 50.45 56 50.75 55.85 50.4 55.75
M 44.35 53.8
L 42.85 55.1
Q 42.5 56.05 43.2 56.15
L 43.9 55.9
Q 44.7 54.95 44.35 53.8
M 42.7 53.75
Q 41.8 53.75 41.3 54.55 41.15 54.95 41.05 55.35
L 41.3 56.1 42.7 53.75
M 41.15 50.8
Q 41.3 50.95 41.55 50.95 41.8 50.95 41.95 50.8 42.1 50.7 42.1 50.5 42.1 50.3 41.95 50.15 41.8 50.05 41.55 50.05 41.3 50.05 41.15 50.15 41 50.3 41 50.5 41 50.7 41.15 50.8
M 50.15 53.15
L 49.7 52.9 49.7 53.35 50.15 53.15
M 46.6 51.8
Q 46.5 51.8 46.4 51.8 45.75 52.05 45.85 52.95 45.55 53.8 45.6 54.6 45.75 55.2 45.9 55.8
L 47.7 56.65 48.6 56.75
Q 48.55 56.3 48.35 55.85 48.3 55.45 48.1 55.1
L 46.55 55.4 46.25 54.6
Q 46.8 53.55 47.1 52.5 47.05 52.35 47 52.2 46.95 52.1 46.85 52 46.8 51.9 46.75 51.85 46.65 51.8 46.6 51.8
M 53.85 53.3
Q 54.1 53.15 54.35 52.85
L 54.35 52.3 52.65 53.85
Q 53.25 53.65 53.85 53.3
M 54.95 55.25
Q 54.3 55.05 54.65 55.45 54.85 55.7 55 55.35 54.95 55.3 54.95 55.25
M 51.55 52.85
Q 51.15 53.1 51.45 53.05 52.05 53 51.55 52.85
M 52.9 50.65
Q 52.35 50.7 52.8 50.85 53.15 50.95 52.9 50.65
M 53.2 51.15
L 53.25 51.8
Q 53.55 52.05 53.95 52.2 54 52.2 54.15 52.1 54.4 51.65 53.95 51.4 53.55 51.25 53.2 51.15
M 55.65 50.3
L 55.65 49.6
Q 55.25 49.45 55.05 50.15 55.15 50.8 55.65 50.3
M 63.8 57.15
L 63.35 56.9 63.35 57.35 63.8 57.15
M 62 52.8
Q 61.7 52.15 61.9 52.7 61.85 52.8 62 52.8
M 60.9 51.05
Q 60.9 50.85 60.75 50.7 60.6 50.6 60.35 50.6 60.1 50.6 59.95 50.7 59.8 50.85 59.8 51.05 59.8 51.25 59.95 51.35 60.1 51.5 60.35 51.5 60.6 51.5 60.75 51.35 60.9 51.25 60.9 51.05
M 67.8 52.4
Q 67.95 52.35 68 52.2 67.9 52.05 67.8 51.9 67.7 51.8 67.6 51.75 67.4 51.7 67.25 51.7 66.15 51.95 65.5 52.65 65.25 52.9 65.05 53.15 66.6 53.25 67.8 52.4
M 65.95 49.9
Q 65.942578125 49.8849609375 65.9 49.8 65.106640625 49.750390625 65.95 49.9
M 69.6 51.35
Q 69.3 51.3 69.1 51.35 68.9 51.35 68.8 51.4
L 68.65 53.15 70.6 53.1 70.05 51.6
Q 69.95 51.55 69.85 51.45 69.7 51.4 69.6 51.35
M 73.05 51.3
Q 73.2 51.15 73.35 51 72.5 50.95 71.8 51.25 71.2 51.5 71.25 52
L 72.6 52.25
Q 72.45 51.8 73.05 51.3
M 80.25 50.85
Q 80.35 50.8 80.55 50.75 79.55 50.45 78.95 51.45 78.9 51.6 78.85 51.7 79 51.9 79.2 51.95 79.35 51.95 79.55 51.85 79.9 51.3 80.25 50.85
M 10.55 51.4
L 11.2 52.9 11.3 52.45
Q 11.25 52.25 11.15 52.1 10.85 51.75 10.55 51.4
M 18.15 52.15
L 18.05 51.3 15.4 52.2
Q 15.55 52.35 15.8 52.45 17.05 53.2 18.15 52.15
M 24.4 51.25
Q 23.9 51.25 24.3 51.45 24.6 51.65 24.4 51.25
M 24 55.35
L 23.4 54.45 22.1 54.05 19.2 55.15
Q 19.3 55.9 19.95 56 20.55 56.05 21.2 56.15 21.9 56.3 22.6 56.35 23.15 56.35 23.7 56.25
L 24 55.35
M 39.65 56
Q 39.1 55.55 38.7 56.05 38.55 56.3 38.45 56.55
L 38.6 57 39.1 57.15
Q 40 56.95 39.7 56.2 39.75 56.1 39.65 56
M 32 55.75
L 33.7 56.05
Q 32.95 55.35 32.25 54.65
L 32 55.75
M 30.45 54.75
Q 30.6 54.7 30.7 54.6 30.8 54.2 30.25 54.2 29.7 54.15 29.2 54.05 27.7 53.65 26.6 54.5 25.85 55 25.2 55.55 27.9 55.45 30.45 54.75
M 37.5 51.25
Q 37 51.25 37.4 51.45 37.75 51.65 37.5 51.25
M 37.4 55.65
Q 38.5 55.65 39 54.8
L 38.8 53.85 37.9 53.45 36.8 54.25
Q 36.25 54.8 35.35 54.7 35.1 54.7 34.85 54.6 36 55.6 37.4 55.65
M 35.8 52.4
Q 35.3 52.4 35.7 52.55 35.95 52.7 35.8 52.4
M 35.35 49.25
Q 35.2 49.2 35.15 49.1 34.95 49.45 34.45 49.9 34.35 49.95 34.4 50.1 35.3 50.25 35.35 49.25
M 27.65 48.9
Q 28 48.7 27.45 48.6 27.35 48.6 27.65 48.9
M 26.55 46.1
Q 26.05 45.95 26.05 46.35 26.05 46.8 26.3 46.35 26.45 46.25 26.55 46.1
M 14.05 45.55
L 13.7 46.05
Q 13.75 46.5 14.1 46.3 14.25 46.2 14.35 46
L 14.05 45.55
M 76.45 49
L 72.25 48.1 71.75 48.8
Q 71.6 49.65 72.4 50.35 74 50.65 75.65 49.75 76.05 50.25 76.25 49.55 76.4 49.3 76.45 49
M 79.6 48.75
Q 79.25 48.45 78.85 48.3 78.45 48.2 78.05 48.15
L 79.9 49.15
Q 79.75 48.95 79.6 48.75
M 62.6 49
L 61.8 49
Q 61.1 50.3 62.1 51.25 62.2 51.35 62.4 51.4
L 63.15 51.1
Q 63.7 49.9 62.6 49
M 53.95 49.35
Q 53.55 49.25 53.2 49.15
L 53.25 49.8
Q 53.55 50.05 53.9 50.15 54 50.2 54.15 50.1 54.4 49.5 53.95 49.35
M 51.45 49.15
Q 51.45 49.1 51.55 49.05 50.9 48.75 50.5 49.6 50.5 49.7 50.55 49.75 51 50.1 51.45 49.15
M 48.2 49.4
Q 48.3 49.35 48.2 49.2 48.2 49.1 48.15 49.05
L 47.75 48.85 47 49.55 47.15 49.95 47.6 50
Q 47.95 49.75 48.2 49.4
M 83.8 51.25
L 83.9 51.95 84.55 51.95
Q 84.95 51.45 84.1 51.25 83.95 51.2 83.8 51.25
M 86.75 52.35
Q 87.7 53.05 88.75 51.75 88.8 51.7 88.8 51.55 88.1 51.2 87.35 51.3 87.1 51.3 86.95 51.35 86.85 51.5 86.75 51.6 86.75 52 86.75 52.35
M 94.7 49.45
Q 94.55 49.4 94.45 49.4 94.25 49.35 94.1 49.4 93.95 49.5 93.85 49.6
L 93.7 51.55 95.1 51.8
Q 95.15 50.95 95 50.25 94.85 49.85 94.7 49.45
M 84.2 48.75
L 82.35 48.15 82.05 49.25
Q 83.15 49.5 84.15 49.85 84.85 50.1 85.5 49.4 85.85 49 86.15 48.5
L 85.1 48.25 84.2 48.75
M 90.7 49.4
Q 90 49.05 89.25 48.8 88.85 48.7 88.5 48.6 88.6 49.8 89.55 50.7 90.3 50.6 90.75 51.3 90.8 51.4 90.8 51.5 90.9 52.1 91.55 51.65 91.7 51.55 91.85 51.4 92.1 50 90.7 49.4 Z"/>
</g>
</defs>

<g transform="matrix( 1, 0, 0, 1, 0,0) ">
<use xlink:href="#Layer1_0_FILL"/>
</g>
</svg>
