
<svg xmlns="http://www.w3.org/2000/svg" version="1.1" xmlns:xlink="http://www.w3.org/1999/xlink" preserveAspectRatio="none" x="0px" y="0px" width="100px" height="100px" viewBox="0 0 100 100">
<defs>
<g id="Layer1_0_FILL">
<path fill="#000000" stroke="none" d="
M 48.4 64.1
Q 47.95 63.7 47.35 63.55 46.35 63.75 45.85 64.9 45.5 65.6 45.4 66.45 45.1 68.75 43.25 70.4 43.6 71.4 44.7 70.55 45.6 70 46.3 69.35 47.3 68.5 48.5 67.9 49.75 67.45 51.05 68.15 51.75 68.55 52.05 69.45
L 51.5 70.05
Q 50.25 69.7 49 69.95 47.85 69.95 47.05 70.75 46.25 71.55 46.05 72.65 45.95 73.4 46.3 74.2 46.6 75.05 47.55 75.2 48.4 75.55 49.4 75.15 51.5 74.2 52.7 72.1 54.1 69.65 53.75 67 53.65 66.4 53.4 65.85 53.1 65.1 52.25 65.1 50 65.6 48.4 64.1
M 57.6 60.25
Q 57.75 60.15 57.75 60 57.75 59.85 57.6 59.7 57.45 59.6 57.25 59.6 57.05 59.6 56.9 59.7 56.75 59.85 56.75 60 56.75 60.15 56.9 60.25 57.05 60.4 57.25 60.4 57.45 60.4 57.6 60.25
M 53.45 53.35
Q 54 52.65 53.4 52 52.2 51.45 51 52.1 50.3 52.5 49.6 52.8 48.9 53.15 48.3 53.55 46.85 54.65 47.1 56.35 48.2 57.45 49.35 58.3 50 58.85 50.65 59.5 51.35 60.15 52.2 59.65 52.8 58.6 51.9 57.5 51.55 57.15 51.6 56.7 51.7 55.9 52.1 55.2 52.75 54.15 53.45 53.35
M 52.25 53.5
Q 52.1 53.5 51.95 53.35 51.85 53.2 51.85 53 51.85 52.8 51.95 52.65 52.1 52.5 52.25 52.5 52.4 52.5 52.5 52.65 52.65 52.8 52.65 53 52.65 53.2 52.5 53.35 52.4 53.5 52.25 53.5
M 63.3 57.7
Q 62.8 57.45 62.3 57.1 61.75 54.95 59.45 54.8 58.35 54.7 57.85 55.4
L 57.8 56
Q 58.15 56.9 58.75 57.65 59.2 58.2 59.3 59.05 59.4 59.75 59.5 60.5 59.65 61.35 60.3 61.85 61.45 62.7 63 62.65 64.8 62.35 65.2 60.6 65 58.6 63.3 57.7
M 34.15 55.5
Q 34.1 54.75 34.1 54.05 34.7 53.65 35.35 53.25 35.4 53.2 35.4 53.1 35.5 52.35 34.75 52.25 31.75 51.9 31 55.05 30.75 56.1 31.3 57.35 31.55 57.95 32.35 58.05 32.8 58 33.25 58 34.3 57.5 34.25 56.35 34.2 55.9 34.15 55.5
M 40.35 48.15
Q 40 48.7 39.9 49.35
L 40.1 50.05 40.95 50.25 41.75 49.7
Q 42.1 48.75 41.5 47.95 40.85 47.35 40.35 48.15
M 25.9 33.7
Q 25.75 33.85 25.75 34 25.75 34.15 25.9 34.25 26.05 34.4 26.25 34.4 26.45 34.4 26.6 34.25 26.75 34.15 26.75 34 26.75 33.85 26.6 33.7 26.45 33.6 26.25 33.6 26.05 33.6 25.9 33.7
M 29.3 32.9
L 28.05 32.8
Q 27.9 33.75 29.05 33.75 29.15 33.65 29.3 33.65 29.6 33.3 29.4 33.05 29.35 32.95 29.3 32.9
M 31.05 35.7
L 30.6 35.3
Q 29.85 35.3 29.15 35.75 28.7 36 28.35 35.6 28.95 36.75 30.25 36.6 30.45 36.5 30.65 36.45
L 31.05 35.7
M 31.9 33.7
Q 31.75 33.85 31.75 34 31.75 34.15 31.9 34.25 32.05 34.4 32.25 34.4 32.45 34.4 32.6 34.25 32.75 34.15 32.75 34 32.75 33.85 32.6 33.7 32.45 33.6 32.25 33.6 32.05 33.6 31.9 33.7
M 69.4 43.6
L 68.75 43.4 67.45 44.2
Q 67.05 45.5 67.8 46.95 68.1 47.5 68.05 48.15 67.95 49.35 67.45 50.2 66.95 51.1 67.25 51.95 68.6 52.5 69.5 50.8 69.75 50.4 70 50
L 70.65 49.75 71.9 50.35 72 51.2
Q 70.95 52.1 70.45 53.4 70.45 53.45 70.55 53.6 71.45 54.15 72.3 53.25 72.75 52.75 73.15 52.2 74.2 50.75 73.35 49.3 72.5 47.8 72.7 46 73.05 45.45 73.25 44.9 73.4 44.55 73.4 44.15 72.65 43.45 71.85 44.5 71.05 45.55 70 46.05 69.85 46.05 69.7 46.05 69.55 45.95 69.5 45.85 69.4 45.65 69.35 45.45
L 69.65 44.2 69.4 43.6
M 71.35 32.75
Q 71.7 32.25 71.35 31.35 71.1 30.65 70.5 30.15 69.95 29.75 69.35 29.5 69.05 29.5 68.8 29.5
L 68.45 29.8 68.3 30.35
Q 68.65 31.85 70 32.8
L 70.5 33.15 71.35 32.75
M 73.75 33.55
Q 73.75 33.4 73.6 33.25 73.45 33.15 73.25 33.15 73.05 33.15 72.9 33.25 72.75 33.4 72.75 33.55 72.75 33.7 72.9 33.8 73.05 33.95 73.25 33.95 73.45 33.95 73.6 33.8 73.75 33.7 73.75 33.55
M 73 27.4
Q 72.9 27.25 72.8 27.2
L 71.6 27.35
Q 71.2 27.75 71.25 28.3 71.25 28.45 71.35 28.6 71.5 28.8 71.7 28.95 71.8 29.05 72 29.1
L 73.2 28.45 73.35 28.05
Q 73.2 27.7 73 27.4
M 58.25 47.5
L 60.25 47.45 60 46.65 59.6 46.45
Q 58.7 46.55 58.25 47.5
M 54.3 44.9
L 53.05 44.8
Q 53 45.7 54.05 45.7 54.15 45.65 54.3 45.65 54.5 45.35 54.4 45 54.35 44.95 54.3 44.9
M 55.55 40.1
Q 54.8 40.25 54.25 40.5 53.25 41.5 53.65 42.9 53.75 43.3 54.05 43.6 54.65 44.15 55.3 44.65 56.2 45.35 56.25 46.6 56.25 46.9 56.35 47.2 56.4 47.25 56.5 47.35 56.7 47.35 56.95 47.35 58.05 46.5 58.9 45.2 59.4 44.5 59.8 43.75 60.1 43.1 60.45 42.5
L 62.55 41.85
Q 62.85 40.15 60.9 39.2 58.55 38.05 56.3 39.7 56 40 55.55 40.1
M 43.95 34.55
Q 43.1 33.6 41.9 33.9 41.4 33.9 41.15 34.35 40.65 35.2 40.4 36.2 40.25 36.7 40.15 37.2 39.75 38.7 40 40.2 40.1 40.95 40.6 41.15 41.15 41.05 41.35 40.55 41.85 39.25 42.8 38.35 42.9 38.2 43.1 38.15 44.6 38.7 45.8 39.55 46.1 39.75 46.5 39.5 47.05 39.25 47.4 38.8 47.8 38.25 48 37.65 48.3 36.65 48.35 35.6 48.45 33.85 47.05 32.85 46.5 32.4 45.65 32.6 45.55 32.95 45.55 33.3 45.55 33.4 45.65 33.55 46.45 33.95 47.3 34.5 47.85 34.8 47.7 35.25
L 47.25 35.95
Q 45.35 36.1 43.95 34.55
M 52.65 32
Q 52.65 31.75 52.5 31.6 52.4 31.45 52.25 31.45 52.1 31.45 51.95 31.6 51.85 31.75 51.85 32 51.85 32.25 51.95 32.4 52.1 32.55 52.25 32.55 52.4 32.55 52.5 32.4 52.65 32.25 52.65 32
M 54.3 29.95
L 54.1 30.5
Q 54.35 31 54.7 31.5 54.8 31.65 55.05 31.8
L 57.4 31.7
Q 57.45 31.4 57.4 31.2 57.3 30.75 57 30.4 56.05 29.5 54.8 29.65 54.55 29.8 54.3 29.95
M 56.3 27.45
Q 55.95 27.45 55.7 27.6 55.45 27.75 55.45 28 55.45 28.25 55.7 28.4 55.95 28.55 56.3 28.55 56.65 28.55 56.9 28.4 57.15 28.25 57.15 28 57.15 27.75 56.9 27.6 56.65 27.45 56.3 27.45
M 44.75 24.45
L 44.3 24.25 43.5 24.65
Q 42.8 26.3 43.65 27.75 44.4 29.05 45.55 29.65 45.9 29.85 46.35 29.95
L 46.8 29.05 45.15 26.7
Q 45.2 25.8 44.9 24.85 44.85 24.6 44.75 24.45 Z"/>
</g>
</defs>

<g transform="matrix( 1, 0, 0, 1, 2.75,1.5) ">
<use xlink:href="#Layer1_0_FILL"/>
</g>
</svg>
