
<svg xmlns="http://www.w3.org/2000/svg" version="1.1" xmlns:xlink="http://www.w3.org/1999/xlink" preserveAspectRatio="none" x="0px" y="0px" width="100px" height="100px" viewBox="0 0 100 100">
<defs>
<g id="Layer1_0_FILL">
<path fill="#000000" stroke="none" d="
M 40.4 68
Q 41.05 68.05 40.75 67.35
L 40.4 68
M 64.25 80.45
L 64.55 80.8
Q 64.5 80 64.25 80.45
M 64.6 78.6
Q 64.75 78.5 64.75 78.3 64.75 78.1 64.6 77.95 64.5 77.85 64.3 77.85 64.1 77.85 63.95 77.95 63.85 78.1 63.85 78.3 63.85 78.5 63.95 78.6 64.1 78.75 64.3 78.75 64.5 78.75 64.6 78.6
M 63 79.75
Q 63.1 79.7 63.1 79.6 63.1 79.5 63 79.45 62.9 79.4 62.8 79.4 62.7 79.4 62.6 79.45 62.5 79.5 62.5 79.6 62.5 79.7 62.6 79.75 62.7 79.8 62.8 79.8 62.9 79.8 63 79.75
M 61.9 76.45
Q 61.8 76.6 61.8 76.75 61.8 76.9 61.9 77 62.05 77.15 62.25 77.15 62.45 77.15 62.55 77 62.7 76.9 62.7 76.75 62.7 76.6 62.55 76.45 62.45 76.35 62.25 76.35 62.05 76.35 61.9 76.45
M 70.5 78.8
Q 70.6 78.7 70.6 78.5 70.6 78.3 70.5 78.15 70.4 78.05 70.25 78.05 70.1 78.05 70 78.15 69.9 78.3 69.9 78.5 69.9 78.7 70 78.8 70.1 78.95 70.25 78.95 70.4 78.95 70.5 78.8
M 66.6 75.95
Q 66.8 76.1 67.05 76.15 67.95 75.75 68.45 74.9
L 67.1 75.2
Q 66.75 75.4 66.5 75.65 66.45 75.7 66.45 75.85 66.5 75.95 66.6 75.95
M 66.1 77
Q 66.25 76.9 66.25 76.75 66.25 76.6 66.1 76.45 65.95 76.35 65.75 76.35 65.55 76.35 65.4 76.45 65.25 76.6 65.25 76.75 65.25 76.9 65.4 77 65.55 77.15 65.75 77.15 65.95 77.15 66.1 77
M 69.5 75.7
L 69.7 76.15 71.65 76.15
Q 70.65 75.35 69.65 75.45 69.55 75.55 69.5 75.7
M 69.25 76.8
Q 69.25 76.65 69.15 76.55 69.05 76.45 68.95 76.45 68.85 76.45 68.75 76.55 68.65 76.65 68.65 76.8 68.65 76.95 68.75 77.05 68.85 77.15 68.95 77.15 69.05 77.15 69.15 77.05 69.25 76.95 69.25 76.8
M 74.35 76.3
Q 74.35 76.5 74.5 76.65 74.65 76.8 74.85 76.8 75.05 76.8 75.2 76.65 75.35 76.5 75.35 76.3 75.35 76.1 75.2 75.95 75.05 75.8 74.85 75.8 74.65 75.8 74.5 75.95 74.35 76.1 74.35 76.3
M 73.7 75.65
Q 73.9 75.65 74 75.5 74.15 75.4 74.15 75.2 74.15 75 74 74.85 73.9 74.75 73.7 74.75 73.5 74.75 73.35 74.85 73.25 75 73.25 75.2 73.25 75.4 73.35 75.5 73.5 75.65 73.7 75.65
M 76.35 75.65
Q 76.5 75.5 76.5 75.3 76.5 75.1 76.35 74.95 76.25 74.8 76.1 74.8 75.95 74.8 75.8 74.95 75.7 75.1 75.7 75.3 75.7 75.5 75.8 75.65 75.95 75.8 76.1 75.8 76.25 75.8 76.35 75.65
M 78.05 75.35
Q 78.1 75 78.15 74.65
L 77.4 74.7 77.25 75.3 78.05 75.35
M 79.8 75.4
Q 79.8 75.2 79.65 75.05 79.55 74.95 79.4 74.95 79.25 74.95 79.1 75.05 79 75.2 79 75.4 79 75.6 79.1 75.7 79.25 75.85 79.4 75.85 79.55 75.85 79.65 75.7 79.8 75.6 79.8 75.4
M 44.75 80.4
L 44.3 79.85
Q 43.7 79.65 44.35 80.55 44.85 81.15 44.75 80.4
M 42.9 77.85
Q 42.9 78.1 43 78.25 43.1 78.4 43.2 78.4 43.3 78.4 43.4 78.25 43.5 78.1 43.5 77.85 43.5 77.6 43.4 77.45 43.3 77.3 43.2 77.3 43.1 77.3 43 77.45 42.9 77.6 42.9 77.85
M 41.6 75.45
L 42.15 75.95 42.75 75.35 42.55 74.95 41.8 75.05 41.6 75.45
M 46.6 76.5
L 46.6 76.8 47 76.8 47 76.5 46.6 76.5
M 46.9 80.15
Q 47.35 79.55 46.6 80.3 46.5 80.45 46.9 80.15
M 53.65 80.6
L 55.85 81.3 55.65 79.8 53.65 80.6
M 57.9 81.35
Q 57.65 81.2 57.45 81.05 57.05 81.65 57.7 81.8 58.05 81.95 58.45 81.9 58.5 81.55 57.9 81.35
M 60.05 80.5
Q 59.65 81.2 59.95 80.85
L 61.1 79.45
Q 60.35 79.85 60.05 80.5
M 54.65 79.05
Q 54.8 79.15 55.05 79.15
L 54.25 78.75
Q 54.4 78.95 54.65 79.05
M 51.8 80
Q 51.95 79.9 51.95 79.75 51.95 79.6 51.8 79.5 51.7 79.4 51.55 79.4 51.4 79.4 51.25 79.5 51.15 79.6 51.15 79.75 51.15 79.9 51.25 80 51.4 80.1 51.55 80.1 51.7 80.1 51.8 80
M 52.8 74.65
L 52.8 74.6
Q 52.25 74.45 52.8 74.65
M 52.35 75.45
Q 52.2 75.35 52 75.35 51.8 75.35 51.65 75.45 51.5 75.6 51.5 75.8 51.5 76 51.65 76.1 51.8 76.25 52 76.25 52.2 76.25 52.35 76.1 52.5 76 52.5 75.8 52.5 75.6 52.35 75.45
M 55.6 77.25
L 55.55 77
Q 55.25 77.2 55 77.6
L 55.6 77.25
M 58.6 79.65
Q 58.95 80.15 59.15 79.65
L 58.35 79.25
Q 58.45 79.45 58.6 79.65
M 57.5 75.95
L 57.65 76.45
Q 58.3 76.7 57.65 76 57.6 75.95 57.5 75.95
M 59.35 75.8
Q 59.5 75.85 59.65 75.85 59.75 75.85 59.85 75.75 59.95 74.95 59.35 75.8
M 58.2 75.3
Q 58.3 75.2 58.3 75.1 58.3 75 58.2 74.9 58.15 74.8 58.05 74.8 57.95 74.8 57.85 74.9 57.8 75 57.8 75.1 57.8 75.2 57.85 75.3 57.95 75.4 58.05 75.4 58.15 75.4 58.2 75.3
M 57.3 73.2
Q 57.45 73.05 57.45 72.85 57.45 72.65 57.3 72.5 57.15 72.35 56.95 72.35 56.75 72.35 56.6 72.5 56.45 72.65 56.45 72.85 56.45 73.05 56.6 73.2 56.75 73.35 56.95 73.35 57.15 73.35 57.3 73.2
M 54.65 71.95
L 54.75 72.8 55.35 73.3 54.65 71.95
M 51.9 71.15
Q 51.85 71.05 51.75 71.05 51.65 71.05 51.55 71.15 51.5 71.25 51.5 71.35 51.5 71.45 51.55 71.55 51.65 71.65 51.75 71.65 51.85 71.65 51.9 71.55 52 71.45 52 71.35 52 71.25 51.9 71.15
M 54.45 67.05
Q 54.6 66.95 54.6 66.75 54.6 66.55 54.45 66.4 54.35 66.3 54.2 66.3 54.05 66.3 53.9 66.4 53.8 66.55 53.8 66.75 53.8 66.95 53.9 67.05 54.05 67.2 54.2 67.2 54.35 67.2 54.45 67.05
M 53.25 64.8
L 53.5 63.9
Q 52 63.4 52.6 64.55
L 52.55 64.6
Q 51.9 65.25 52.5 64.85 52.6 64.75 52.7 64.65
L 53.25 64.8
M 60 67.9
L 59 67.9 59 68 60 67.9
M 49.1 73.55
Q 49.1 73.45 49.05 73.3
L 48.5 74.1
Q 49 73.95 49.1 73.55
M 50.25 73.9
Q 50.4 74.05 50.6 74.05 50.8 74.05 50.9 73.9 51.05 73.8 51.05 73.65 51.05 73.5 50.9 73.35 50.8 73.25 50.6 73.25 50.4 73.25 50.25 73.35 50.15 73.5 50.15 73.65 50.15 73.8 50.25 73.9
M 41.95 71.1
L 41.25 70.45
Q 40.7 70.75 41.4 71.1 41.65 71.1 41.95 71.1
M 44.95 70.9
Q 45.05 70.85 45.05 70.75 45.05 70.65 44.95 70.55 44.85 70.5 44.75 70.5 44.65 70.5 44.55 70.55 44.45 70.65 44.45 70.75 44.45 70.85 44.55 70.9 44.65 71 44.75 71 44.85 71 44.95 70.9
M 44.95 67.9
Q 44.8 67.9 44.8 67.95 44.6 68.4 44.5 68.9
L 45.55 68.55
Q 45.5 68.25 45.35 68.1 45.2 67.95 44.95 67.9
M 41.25 66.1
Q 41.4 66 41.4 65.8 41.4 65.6 41.25 65.45 41.1 65.35 40.9 65.35 40.7 65.35 40.55 65.45 40.4 65.6 40.4 65.8 40.4 66 40.55 66.1 40.7 66.25 40.9 66.25 41.1 66.25 41.25 66.1
M 43.45 63.9
Q 43.5 63.85 43.5 63.8 42.85 63.85 42.35 64.15 42.2 64.25 42.1 64.4
L 42.2 65.45
Q 42.6 65.85 43.05 64.7 43.2 64.25 43.45 63.9
M 47.75 62.05
Q 47.3 62.2 47.75 62.3 47.75 62.15 47.75 62.05
M 49.45 62.8
Q 48.9 63 49.15 63.35 49.8 63.8 50.4 63.2 50.9 62.75 51.45 62.35 50.45 62.55 49.45 62.8
M 45.7 63.3
Q 45.8 63.1 46 63 45.25 62.8 44.6 63 44.45 63.1 44.3 63.25 44.3 63.35 44.35 63.5 44.35 63.6 44.45 63.65 44.6 63.8 44.85 63.9 45.35 63.8 45.7 63.3
M 46.05 66.4
Q 46.2 66.45 46.45 66.45
L 45.65 66.05
Q 45.8 66.25 46.05 66.4
M 48.9 60.95
Q 48.9 60.9 48.95 60.85 49.65 60.9 48.9 60.7 48.2 60.95 48.9 60.95
M 49.8 60.1
Q 49.9 60 49.9 59.9 49.9 59.8 49.8 59.7 49.7 59.6 49.55 59.6 49.4 59.6 49.3 59.7 49.2 59.8 49.2 59.9 49.2 60 49.3 60.1 49.4 60.2 49.55 60.2 49.7 60.2 49.8 60.1
M 47.4 60.5
Q 47.55 60.7 47.8 60.7 48.05 60.7 48.2 60.5 48.35 60.3 48.35 60.05 48.35 59.8 48.2 59.6 48.05 59.4 47.8 59.4 47.55 59.4 47.4 59.6 47.25 59.8 47.25 60.05 47.25 60.3 47.4 60.5
M 45.75 56.85
Q 45.8 56.95 45.95 57.05 46.05 57 46.2 57 46.6 56.9 46.5 56.35 46.35 56.2 46.2 56.05 45.85 55.95 45.5 55.9 45.6 56.4 45.75 56.85
M 49.25 57.95
Q 50 58.05 49.7 57.55 49.65 57.55 49.55 57.6
L 49.25 57.95
M 43.35 60.75
L 41.7 61.75
Q 41.6 61.9 41.55 62.05 41.45 62.6 41.9 62.7 42.15 62.7 42.45 62.7 43.2 62.45 43.85 61.95
L 42.45 62.15 43.35 60.75
M 44.15 59.65
L 44.65 60.35 45.95 61.1 44.15 59.65
M 41.75 55.95
L 41.8 55.8
Q 41.7 55.2 41.2 55 40.55 54.7 39.95 54.45 40.7 55.5 41.75 55.95
M 41.65 57.95
Q 41.3 57.75 41.1 57.55 41.05 57.5 41.05 57.6 41.1 57.85 41.4 57.95 41.5 58 41.65 57.95
M 42.5 55.9
Q 42.35 56.45 42.8 56.75 42.9 56.75 43 56.8 43.7 56.65 43.5 55.9
L 42.5 55.9
M 43.35 58.55
Q 43.35 58.3 43.2 58.15 43.1 58 42.95 58 42.8 58 42.65 58.15 42.55 58.3 42.55 58.55 42.55 58.8 42.65 58.95 42.8 59.1 42.95 59.1 43.1 59.1 43.2 58.95 43.35 58.8 43.35 58.55
M 43.65 57.05
Q 44 57.45 43.75 56.95 43.35 56.65 43.65 57.05
M 44.95 57.2
Q 45.05 57.15 45.05 57.05 45.05 56.95 44.95 56.85 44.85 56.8 44.75 56.8 44.65 56.8 44.55 56.85 44.45 56.95 44.45 57.05 44.45 57.15 44.55 57.2 44.65 57.3 44.75 57.3 44.85 57.3 44.95 57.2
M 42.25 53.15
Q 41.65 53.5 42.4 53.9 42.45 54 42.6 54.05
L 43.45 53.95 42.25 53.15
M 42.8 55.25
L 42.8 55.45 43.2 55.45 43.2 55.25 42.8 55.25
M 44.15 50.75
Q 43.85 51.3 43.7 51.8
L 43.9 51.75 44.15 50.75
M 49.15 54
Q 48.7 53.95 48.25 53.95 48.3 54.35 48.9 54.15 49 54.05 49.15 54
M 46.55 52.7
Q 46.65 52.85 46.85 52.9
L 46.35 52.25
Q 46 52.15 46.55 52.7
M 45.75 53.75
L 47.05 54.55 45.25 53.05 45.75 53.75
M 49.85 50.55
Q 49.8 50.65 49.8 50.8 49.85 50.85 49.95 50.85 50.2 50.85 50.45 50.8
L 50.75 50.05
Q 50.3 50.3 49.85 50.55
M 48.75 51.25
Q 48.65 51.3 48.6 51.4 48.6 51.9 49.15 51.9 49.3 51.9 49.5 51.9
L 49.5 50.9
Q 49 50.95 48.75 51.25
M 60.3 60.65
Q 60.4 60.25 60.5 59.9
L 59.85 60
Q 59.6 60.3 59.45 60.65 59.45 60.7 59.55 60.85 60.15 61.15 60.3 60.65
M 56.15 60.6
Q 56.45 60.8 56.75 60.45 56.35 60.4 56.05 59.9 56 59.8 55.95 59.75 55.15 59.9 56.15 60.6
M 57.5 58.9
Q 57.4 59.15 57.45 59.4 57.55 60.15 58.1 59.85
L 58.65 58.95 57.5 58.9
M 57.35 56.65
L 57.25 57.75
Q 57.9 57.5 57.5 56.95 57.4 56.8 57.35 56.65
M 59.7 57.1
Q 59.7 56.9 59.55 56.75 59.45 56.65 59.3 56.65 59.15 56.65 59 56.75 58.9 56.9 58.9 57.1 58.9 57.3 59 57.4 59.15 57.55 59.3 57.55 59.45 57.55 59.55 57.4 59.7 57.3 59.7 57.1
M 55.35 58.9
Q 55.4 59 55.5 58.95 55.9 58.75 55.4 58.75 54.7 58.75 55.35 58.9
M 54.75 61.75
Q 54.85 61.45 54.5 61.25 53.75 61.1 52.9 61.25 53.75 61.8 54.65 61.8 54.7 61.8 54.75 61.75
M 50.95 61.35
L 50.95 60.95 50.5 60.95 50.5 61.35 50.95 61.35
M 51.5 58.2
Q 51.5 58.15 51.45 58.05
L 50.35 58.1
Q 50.4 58.3 50.5 58.5 51.2 58.95 51.5 58.2
M 52.5 56.9
Q 52.65 57.1 52.85 57.2 52.9 57.2 53.05 57.1
L 53.1 56.8
Q 52.85 56.7 52.5 56.9
M 53.95 57.25
Q 54.3 56.8 53.65 56.55 53.15 56.85 53.9 57.15 53.9 57.2 53.95 57.25
M 53.9 55.2
Q 54.05 55.45 54.35 55.65 54.65 55.85 55.05 55.95 54.95 55.15 54.15 55 54 55.1 53.9 55.2
M 52.8 53.2
L 52.95 52.75
Q 52.25 53.1 51.75 53.6 51.6 53.75 51.55 53.95
L 52.8 53.2
M 52.25 55.2
Q 51.9 55.35 51.6 55.65 51.55 55.7 51.5 55.75 51.9 56 52.35 55.55 53.05 55.05 52.25 55.2
M 51.35 51.65
Q 51.9 52.25 52.35 51.75 52.75 51.35 52.3 50.9 52.1 50.75 51.9 50.65
L 51.4 50.7
Q 50.9 51.25 51.35 51.65
M 56.7 52.2
Q 56.8 52.3 56.9 52.3 57 52.3 57.1 52.2 57.2 52.1 57.2 51.95 57.2 51.8 57.1 51.7 57 51.6 56.9 51.6 56.8 51.6 56.7 51.7 56.6 51.8 56.6 51.95 56.6 52.1 56.7 52.2
M 56.5 49.9
L 56.5 50.9 57.5 50.9 56.5 49.9
M 58.5 51.1
Q 58.55 51 58.5 50.9 58 50.9 57.85 51.45
L 57.95 51.5
Q 58.25 51.7 58.5 51.1
M 60.1 49.95
Q 60.1 50.05 60.45 50.15
L 60.55 49.1
Q 60.15 49.5 60.1 49.95
M 75.2 74.15
Q 75.35 74.05 75.35 73.85 75.35 73.65 75.2 73.5 75.1 73.4 74.9 73.4 74.7 73.4 74.55 73.5 74.45 73.65 74.45 73.85 74.45 74.05 74.55 74.15 74.7 74.3 74.9 74.3 75.1 74.3 75.2 74.15
M 73.35 73.3
Q 73.1 73.1 72.6 73 72.5 73.05 72.4 73.15 72.25 73.65 72.8 73.7 72.85 73.6 72.95 73.5
L 73.75 74.4 73.35 73.3
M 71.3 70.75
Q 71.6 70.8 71.95 70.85
L 72.15 69.8 69.85 69.95
Q 70.55 70.55 71.3 70.75
M 71.25 68.15
L 71.65 68.55 72.4 67.8
Q 71.8 67.9 71.25 68.15
M 74.75 65.6
L 75.25 66.3 76.35 67.1 74.75 65.6
M 74.25 65.4
Q 74.25 65.3 74.1 65.2 74 65.1 73.8 65.1 73.6 65.1 73.45 65.2 73.35 65.3 73.35 65.4 73.35 65.5 73.45 65.6 73.6 65.7 73.8 65.7 74 65.7 74.1 65.6 74.25 65.5 74.25 65.4
M 77.5 67.75
Q 77.5 67.55 77.35 67.4 77.25 67.3 77.1 67.3 76.95 67.3 76.8 67.4 76.7 67.55 76.7 67.75 76.7 67.95 76.8 68.05 76.95 68.2 77.1 68.2 77.25 68.2 77.35 68.05 77.5 67.95 77.5 67.75
M 69.85 73.35
L 70 74.1
Q 70.65 74.3 71.15 74 71.4 73.9 71.7 73.85 71.7 73.8 71.75 73.8 71.15 73.1 70.15 73.2 70 73.25 69.85 73.35
M 63.9 70.15
Q 63.928125 70.0859375 64 70.05 64 69.5708984375 63.9 70.15
M 61.4 74.05
Q 61.65 73.85 61.65 73.55 61.65 73.25 61.4 73 61.15 72.8 60.8 72.8 60.45 72.8 60.2 73 59.95 73.25 59.95 73.55 59.95 73.85 60.2 74.05 60.45 74.3 60.8 74.3 61.15 74.3 61.4 74.05
M 63.5 74
L 65 74 62.35 73.9
Q 62.35 74.05 62.4 74.2 62.4 74.25 62.5 74.25 62.8 74.45 63.2 74.6
L 63.5 74
M 65.55 68
Q 65.7 67.85 65.7 67.65 65.7 67.45 65.55 67.3 65.45 67.15 65.3 67.15 65.15 67.15 65 67.3 64.9 67.45 64.9 67.65 64.9 67.85 65 68 65.15 68.15 65.3 68.15 65.45 68.15 65.55 68
M 61.65 63.4
Q 61.7 62.85 61.75 62.35 61.6 62.65 61.55 62.95 61.55 63.15 61.65 63.4
M 64.15 62.9
Q 64.05 62.8 63.9 62.8 63.75 62.8 63.6 62.9 63.5 63.05 63.5 63.25 63.5 63.45 63.6 63.55 63.75 63.7 63.9 63.7 64.05 63.7 64.15 63.55 64.3 63.45 64.3 63.25 64.3 63.05 64.15 62.9
M 66.95 64.15
Q 67.05 64.3 67.05 64.25 67.3 64.2 67.4 63.95 67.45 63.8 67.45 63.65
L 66.95 64.15
M 68 65.55
Q 68.4 65.05 67.8 65.55 67.25 65.9 67.7 65.75 67.85 65.65 68 65.55
M 70.4 60.45
Q 71.1 60.3 70.75 59.75
L 70.4 60.45
M 67.45 57.05
Q 67.35 57.6 67.75 57.05 67.9 56.8 67.95 56.55
L 67.45 57.05
M 70.35 56.55
L 69.65 56.65 69.45 57.05 69.95 57.55 70.55 56.95 70.35 56.55
M 64.3 60.65
Q 64.4 60.25 64.5 59.9
L 63.85 60
Q 63.6 60.3 63.45 60.65 63.45 60.7 63.55 60.85 64.2 61.15 64.3 60.65
M 63.45 51.05
Q 63.65 51.35 63.65 50.95 63.05 50.5 63.45 51.05
M 64.45 51.95
L 64.55 51.95
Q 64.5 51.4 64.45 51.95
M 62.65 53.3
Q 63 53.65 63.15 53.25
L 62.35 52.95
Q 62.5 53.1 62.65 53.3
M 69.35 55.5
Q 70.05 54.1 69.3 52.75 69.05 52.2 68.75 51.7
L 69.05 54.15 68.55 55.1 69.35 55.5
M 67.55 54.1
L 67.05 54.1 67.05 54.4 67.55 54.4 67.55 54.1
M 67.55 50.1
L 67.05 50.1 67.05 50.4 67.55 50.4 67.55 50.1
M 76.4 61.35
Q 76.3 61.5 76.3 61.75 76.3 62 76.4 62.15 76.55 62.3 76.7 62.3 76.85 62.3 76.95 62.15 77.1 62 77.1 61.75 77.1 61.5 76.95 61.35 76.85 61.2 76.7 61.2 76.55 61.2 76.4 61.35
M 77.5 59.9
L 76.5 59.9
Q 76.45 60.35 76.85 60.7 76.9 60.75 77 60.8 77.6 60.75 77.5 59.9
M 78.2 57.45
Q 78.2 57.35 78.05 57.25 77.9 57.15 77.7 57.15 77.5 57.15 77.35 57.25 77.2 57.35 77.2 57.45 77.2 57.55 77.35 57.65 77.5 57.75 77.7 57.75 77.9 57.75 78.05 57.65 78.2 57.55 78.2 57.45
M 72.95 58.65
Q 72.8 58.65 72.7 58.75 72.6 58.9 72.6 59.05 72.6 59.2 72.7 59.3 72.8 59.45 72.95 59.45 73.1 59.45 73.2 59.3 73.3 59.2 73.3 59.05 73.3 58.9 73.2 58.75 73.1 58.65 72.95 58.65
M 73.45 57.4
Q 73.55 57.3 73.55 57.15 73.55 57 73.45 56.85 73.35 56.75 73.2 56.75 73.05 56.75 72.95 56.85 72.85 57 72.85 57.15 72.85 57.3 72.95 57.4 73.05 57.55 73.2 57.55 73.35 57.55 73.45 57.4
M 73.2 54.25
Q 73.25 54.3 73.35 54.35
L 73.05 53.3
Q 72.8 53.8 73.2 54.25
M 72.55 55.15
Q 72.1 54.85 71.7 55.35 71.5 55.6 71.25 55.85
L 71.7 55.9
Q 72.15 55.75 72.4 55.45 72.5 55.3 72.55 55.15
M 73.2 52.55
Q 73.2 52.35 73.05 52.2 72.95 52.1 72.8 52.1 72.65 52.1 72.5 52.2 72.4 52.35 72.4 52.55 72.4 52.75 72.5 52.85 72.65 53 72.8 53 72.95 53 73.05 52.85 73.2 52.75 73.2 52.55
M 71.2 52.2
Q 71.1 52.1 70.9 52.1 70.7 52.1 70.55 52.2 70.45 52.35 70.45 52.55 70.45 52.75 70.55 52.85 70.7 53 70.9 53 71.1 53 71.2 52.85 71.35 52.75 71.35 52.55 71.35 52.35 71.2 52.2
M 74.05 51.15
Q 73.95 51.75 74.65 51.65 75 51.45 75.35 51.35 76.6 50.05 74.05 51.15
M 77.5 51.9
L 76.5 50.9 76.5 51.9 77.5 51.9
M 77.4 53.4
L 76.55 53.95 76.65 54.5 77.4 53.4
M 76.25 55.35
Q 76.25 55.1 76.1 54.9 75.95 54.75 75.75 54.75 75.55 54.75 75.4 54.9 75.25 55.1 75.25 55.35 75.25 55.6 75.4 55.75 75.55 55.95 75.75 55.95 75.95 55.95 76.1 55.75 76.25 55.6 76.25 55.35
M 78.6 55.35
Q 78.3 55.2 78.15 55.35 78.05 55.55 78.15 55.85
L 78.75 55.85
Q 79.25 55.5 78.6 55.35
M 29.95 78.45
L 30.25 78.7 30.6 78.45 29.95 78.45
M 26.35 74.45
L 25.75 75.15 27.45 73.85 26.35 74.45
M 30.05 76.05
Q 30.25 75.9 30.25 75.65 30.25 75.4 30.05 75.2 29.9 75.05 29.65 75.05 29.4 75.05 29.2 75.2 29.05 75.4 29.05 75.65 29.05 75.9 29.2 76.05 29.4 76.25 29.65 76.25 29.9 76.25 30.05 76.05
M 37.95 81
Q 37.95 80.75 37.75 80.55 37.55 80.4 37.25 80.4 36.95 80.4 36.75 80.55 36.55 80.75 36.55 81 36.55 81.25 36.75 81.4 36.95 81.6 37.25 81.6 37.55 81.6 37.75 81.4 37.95 81.25 37.95 81
M 39.15 81.85
L 38.55 82.7
Q 38.8 82.5 39.05 82.3 39.5 81.95 39.15 81.85
M 34.1 78.05
Q 33.95 78 33.85 78.05 34 78.35 34.2 78.65
L 34.3 78.65
Q 34.5 78.2 34.1 78.05
M 32 76.6
Q 32 76.3 31.85 76.1 31.7 75.9 31.45 75.9 31.2 75.9 31.05 76.1 30.9 76.3 30.9 76.6 30.9 76.9 31.05 77.1 31.2 77.3 31.45 77.3 31.7 77.3 31.85 77.1 32 76.9 32 76.6
M 39.7 78.75
Q 39.75 78.7 39.85 78.65
L 39.95 78.6
Q 39.35 78.6 39.7 78.75
M 39.8 77.7
Q 39.8 77.75 40 77.8 39.45 77.15 39.8 77.7
M 36.15 76.3
Q 35.55 76.7 35.9 77.3 35.95 77.45 36.1 77.6 36.95 78.05 37.85 77.2 36.7 77.35 36.15 76.3
M 38.75 75.55
L 38.4 76.25
Q 39.05 76.2 38.75 75.55
M 20.05 69.8
L 18.05 71
Q 19.05 71.2 19.7 70.25 19.9 70.05 20.05 69.8
M 18.7 67.2
Q 18.45 67.1 18.25 66.95
L 19.35 66.8 18.55 65.15
Q 17.05 66.4 17.8 68 17.85 68.15 18 68.3 18.8 68.65 19.75 68.15 20.15 67.95 20.55 67.75 19.6 67.75 18.7 67.2
M 18.55 62.85
L 17.85 62.55
Q 16.4 63.15 17.35 64.65 17.45 64.8 17.65 64.9
L 18.65 64.55 18.55 62.85
M 18.2 60.45
L 19.25 59.9 17.5 60 18.2 60.45
M 16.5 59.9
L 15.85 60
Q 15.6 60.3 15.45 60.65 15.45 60.7 15.55 60.85 15.8 60.9 16.05 60.85 16.45 60.65 16.5 59.9
M 19.9 56.65
Q 19.8 56.75 19.7 56.9
L 20.55 57.45
Q 20.9 56.7 19.9 56.65
M 18 55.2
Q 17.85 55.35 17.85 55.55 17.85 55.75 18 55.9 18.2 56.05 18.45 56.05 18.7 56.05 18.85 55.9 19.05 55.75 19.05 55.55 19.05 55.35 18.85 55.2 18.7 55.05 18.45 55.05 18.2 55.05 18 55.2
M 19.45 54.3
L 19 54.15 19.9 55.6
Q 19.95 55.4 19.9 55.25 19.7 54.75 19.45 54.3
M 17 53.45
Q 16.5 53.25 17.05 53.75 17.65 53.9 17 53.45
M 16.45 54.3
Q 16.5 54.1 16.5 53.9
L 15.85 54
Q 15.6 54.3 15.45 54.65 15.45 54.7 15.55 54.85 15.8 54.9 16 54.75 16.3 54.6 16.45 54.3
M 17.2 50.8
Q 17.15 50.5 17.1 50.2 16.5 49.8 16.5 50.55 16.5 50.6 16.6 50.65
L 17.2 50.8
M 18.1 52.2
Q 18 52.15 17.9 52.15
L 18.45 52.95
Q 18.8 52.4 18.1 52.2
M 18.5 50.9
L 19 51.95
Q 19.15 51.55 19.35 51.15 19.05 51.05 18.8 50.85 18.6 50.8 18.5 50.75
L 18.5 50.9
M 38.5 72.95
L 38.85 73.2 39.2 72.95 38.5 72.95
M 37.15 72.8
L 37.75 73.3 37.05 71.95 37.15 72.8
M 35.5 72.95
L 35.85 73.2 36.2 72.95 35.5 72.95
M 36.1 69.45
Q 36.2 69.7 36.45 69.75 37.1 69.6 36.7 68.95 36.6 68.8 36.5 68.7
L 35.35 68.8
Q 35.7580078125 68.80859375 36.1 69.45
M 38.25 68.3
Q 38.45 68.45 38.7 68.55
L 37.5 66.9
Q 37.4 67.9 38.25 68.3
M 32 71.6
L 32 70.7 29.7 70.85 32 71.6
M 34.85 73.85
Q 34.85 73.65 34.7 73.5 34.6 73.4 34.4 73.4 34.2 73.4 34.05 73.5 33.95 73.65 33.95 73.85 33.95 74.05 34.05 74.15 34.2 74.3 34.4 74.3 34.6 74.3 34.7 74.15 34.85 74.05 34.85 73.85
M 32.55 72.8
Q 32.05 72.55 32.35 73 32.45 73.2 32.6 73.1 32.65 73.05 32.55 72.8
M 33.4 62.55
Q 33.8 62.65 33.85 62.2 33.9 61.7 34.05 61.25 33.45 61.8 33.3 62.45
L 33.4 62.55
M 33.85 66.4
Q 34.2 66.7 34.25 66.45
L 33.45 66.05
Q 33.6 66.25 33.85 66.4
M 34.95 67
L 34.25 67.8
Q 34.55 68.55 34.9 67.75 34.95 67.6 35 67.45
L 34.95 67
M 39.4 67.1
L 39.6 67.3 39.8 67.1 39.4 67.1
M 35.65 66.1
Q 35.9 66.25 36.3 66.35 37.55 65.3 38.5 63.75
L 37.45 64 36.7 65.45
Q 36.1 65.45 35.55 65.5 35.45 65.6 35.35 65.75 35.45 65.95 35.65 66.1
M 37.4 62.7
Q 37.85 62.5 37.65 62.15
L 37.25 62.65
Q 37.35 62.7 37.4 62.7
M 39.9 63.45
L 39.25 64.45 39 65.65
Q 39.5 64.65 40.3 63.8 40.55 63.5 40.45 63.2 40.35 63.1 40.25 63.05 40.05 62.85 39.85 62.7 39.35 62.75 38.9 62.85
L 39.9 63.45
M 29.9 69.05
L 29.95 69.2
Q 29.85 69.75 30 69.4 30.05 69.2 29.9 69.05
M 27.35 71.45
L 27.5 71.35
Q 27.05 70.95 27.35 71.45
M 28.4 72.3
L 28.45 73.3 28.65 72.9 28.4 72.3
M 24.85 73.15
L 24.35 73.65
Q 24.4 74.5 25.2 74.8 25.25 74.85 25.35 74.85 25.75 73.85 24.85 73.15
M 24.05 72.05
Q 23.8 72.05 23.65 72.2
L 25.5 71.9
Q 24.7 71.75 24.05 72.05
M 21.55 70.95
Q 20.9 70.9 20.25 70.85
L 22.15 71.6 21.95 71.2
Q 21.75 71.05 21.55 70.95
M 20.35 69.2
Q 20.35 69.35 20.4 69.45 20.5 69.55 20.6 69.55 20.7 69.55 20.75 69.45 20.85 69.35 20.85 69.2 20.85 69.05 20.75 68.95 20.7 68.85 20.6 68.85 20.5 68.85 20.4 68.95 20.35 69.05 20.35 69.2
M 24.35 67.75
Q 24.1 67.75 23.9 67.9 23.7 68.05 23.7 68.3 23.7 68.55 23.9 68.7 24.1 68.85 24.35 68.85 24.6 68.85 24.8 68.7 25 68.55 25 68.3 25 68.05 24.8 67.9 24.6 67.75 24.35 67.75
M 21.95 62.65
Q 22.2 62.45 21.95 62.25 21.65 62.05 21.4 61.9
L 21.95 62.65
M 22.15 64.3
Q 21.8 64.55 21.45 64.9 21.1 65.25 20.75 65.55
L 22 65.35 22 67.2 22.6 67 22.55 66.35 22.85 65.65 22.3 64.4
Q 22.2 64.3 22.15 64.3
M 28.6 67.7
Q 28.75 67.6 28.75 67.45 28.75 67.3 28.6 67.15 28.45 67.05 28.25 67.05 28.05 67.05 27.9 67.15 27.75 67.3 27.75 67.45 27.75 67.6 27.9 67.7 28.05 67.85 28.25 67.85 28.45 67.85 28.6 67.7
M 30.05 66.35
L 29.65 66.35 29.85 66.6 30.05 66.35
M 26.45 67.15
Q 26.3 67.15 26.15 67.3 26.05 67.45 26.05 67.65 26.05 67.85 26.15 68 26.3 68.15 26.45 68.15 26.6 68.15 26.7 68 26.85 67.85 26.85 67.65 26.85 67.45 26.7 67.3 26.6 67.15 26.45 67.15
M 27.25 65.8
L 27.7 66
Q 28.1 65.9 28.45 65.7 28.6 65.6 28.7 65.45 28.55 65.2 28.35 65.15 28.05 65 27.75 65 27.55 65.15 27.35 65.3 27.1 65.55 27.25 65.8
M 26.5 62.8
Q 26.35 62.7 26.1 62.7 25.85 62.7 25.7 62.8 25.55 62.95 25.55 63.15 25.55 63.35 25.7 63.45 25.85 63.6 26.1 63.6 26.35 63.6 26.5 63.45 26.65 63.35 26.65 63.15 26.65 62.95 26.5 62.8
M 30.2 62.4
Q 30.15 62.4 30.2 62.55 30.8 62.75 31.1 62.2 31.45 61.5 31.75 60.75 30.8 61.4 30.2 62.4
M 29.15 60.45
Q 29.3 60.3 29.3 60.05 29.3 59.8 29.15 59.6 29 59.45 28.8 59.45 28.6 59.45 28.45 59.6 28.3 59.8 28.3 60.05 28.3 60.3 28.45 60.45 28.6 60.65 28.8 60.65 29 60.65 29.15 60.45
M 26.5 59.9
Q 26.4 60.35 26.85 60.7 26.9 60.75 27 60.8 27.65 60.75 27.5 59.9
L 26.5 59.9
M 26.1 61.3
Q 26 61.45 26 61.65 26 61.85 26.1 62 26.25 62.15 26.4 62.15 26.55 62.15 26.65 62 26.8 61.85 26.8 61.65 26.8 61.45 26.65 61.3 26.55 61.15 26.4 61.15 26.25 61.15 26.1 61.3
M 26.9 57.55
Q 26.6 57.4 26.65 57.55 26.75 58.05 26.9 57.55
M 24.3 61.3
Q 24.2 61.45 24.2 61.65 24.2 61.85 24.3 62 24.45 62.15 24.6 62.15 24.75 62.15 24.85 62 25 61.85 25 61.65 25 61.45 24.85 61.3 24.75 61.15 24.6 61.15 24.45 61.15 24.3 61.3
M 22.5 59.9
L 22.5 60.8 23.4 60.8 23.4 59.9 22.5 59.9
M 23.4 57.05
Q 23.4 56.85 23.25 56.7 23.15 56.55 23 56.55 22.85 56.55 22.7 56.7 22.6 56.85 22.6 57.05 22.6 57.25 22.7 57.4 22.85 57.55 23 57.55 23.15 57.55 23.25 57.4 23.4 57.25 23.4 57.05
M 21.45 52.75
L 20.85 52.65
Q 21.1 53.55 22.15 53.45
L 21.45 52.75
M 20.8 51.95
Q 20.5 51.4 20.65 51.9 20.65 51.95 20.8 51.95
M 26.95 52.15
Q 27.7 52.3 27.95 51.55
L 26.95 52.15
M 28.6 55.6
Q 28.75 55.6 28.9 55.45
L 28.95 55.2
Q 28.75 55.2 28.5 55.45 28.55 55.6 28.6 55.6
M 25.45 51.4
Q 25.55 51.3 25.55 51.2 25.55 51.1 25.45 51 25.35 50.9 25.2 50.9 25.05 50.9 24.95 51 24.85 51.1 24.85 51.2 24.85 51.3 24.95 51.4 25.05 51.5 25.2 51.5 25.35 51.5 25.45 51.4
M 28.7 52.2
Q 28.55 52.35 28.55 52.55 28.55 52.75 28.7 52.85 28.85 53 29.1 53 29.35 53 29.5 52.85 29.65 52.75 29.65 52.55 29.65 52.35 29.5 52.2 29.35 52.1 29.1 52.1 28.85 52.1 28.7 52.2
M 39.6 60.15
L 39.65 60.65 40.75 59.25 40.3 59.25 39.6 60.15
M 35.65 60.25
L 36.25 60.25 37.45 61.05
Q 36.95 60.55 36.4 60.2 35.75 59.95 35.05 59.85
L 35.65 60.25
M 37.85 57
Q 37.65 56.85 37.35 56.85 37.05 56.85 36.85 57 36.65 57.2 36.65 57.45 36.65 57.7 36.85 57.85 37.05 58.05 37.35 58.05 37.65 58.05 37.85 57.85 38.05 57.7 38.05 57.45 38.05 57.2 37.85 57
M 39.25 57.45
Q 39.35 57.6 39.55 57.6 39.65 57.7 39.85 57.7
L 40 57.4
Q 39.7 57.3 39.25 57.45
M 33.8 58.8
L 34.15 57.95 32.75 58.75 33.8 58.8
M 31.15 59.95
L 30.5 59.9
Q 30.8 60.2 31.15 60.25 31.4 60.1 31.15 59.95
M 32.5 59.9
Q 32.35 60.35 32.85 60.7 32.9 60.75 33 60.8 33.65 60.75 33.5 59.9
L 32.5 59.9
M 31.5 57.9
Q 31.4 58.7 31.95 57.95 32.15 57.7 31.5 57.75 31.5 57.8 31.5 57.9
M 35.4 56.65
Q 35.25 56.65 35.1 56.75 35 56.9 35 57.1 35 57.3 35.1 57.4 35.25 57.55 35.4 57.55 35.55 57.55 35.65 57.4 35.8 57.3 35.8 57.1 35.8 56.9 35.65 56.75 35.55 56.65 35.4 56.65
M 33.9 55.35
Q 33.75 55.5 33.75 55.65 33.75 55.8 33.9 55.9 34.05 56.05 34.25 56.05 34.45 56.05 34.6 55.9 34.75 55.8 34.75 55.65 34.75 55.5 34.6 55.35 34.45 55.25 34.25 55.25 34.05 55.25 33.9 55.35
M 34.25 53
Q 34.5 53 34.75 52.9
L 32.75 52.7
Q 33.4 53.45 34.25 53
M 31.75 55.65
Q 31.85 55.35 31.75 54.95 31.6 54.9 31.55 54.95 31.3 55.4 31.15 55.9 31.55 56.35 31.75 55.65
M 32 54.05
Q 32 53.8 31.85 53.6 31.75 53.45 31.55 53.45 31.35 53.45 31.2 53.6 31.1 53.8 31.1 54.05 31.1 54.3 31.2 54.45 31.35 54.65 31.55 54.65 31.75 54.65 31.85 54.45 32 54.3 32 54.05
M 31 50.9
L 31 51.55
Q 31.8 51.5 32.4 51 32.6 50.85 32.75 50.65
L 31.45 51.1 31 50.9
M 34.35 51.05
L 33.2 50.3
Q 33.25 50.5 33.4 50.7 33.5 50.85 33.65 50.95
L 34.35 51.05
M 38.15 55.05
Q 37.4 54.4 36.75 55.3 36.3 55.9 36.75 55.65
L 36.6 55.75
Q 37.1 55.8 37.75 55.75 38.25 55.55 38.15 55.05
M 38.7 55.05
Q 38.6 55.2 38.6 55.45 38.6 55.7 38.7 55.85 38.85 56 39.05 56 39.25 56 39.35 55.85 39.5 55.7 39.5 55.45 39.5 55.2 39.35 55.05 39.25 54.9 39.05 54.9 38.85 54.9 38.7 55.05
M 36.5 53.95
Q 36.527734375 54.544140625 37.2 54.4 37.3 54.3 37.45 54.25
L 37.65 53.65
Q 37.05 53.8 36.5 53.95
M 35.45 55.15
Q 35.6 55.1 35.8 55.05
L 35.4 55
Q 35.4 55.05 35.45 55.15
M 35.5 49.9
Q 35.35 50.65 36 50.4 36.3 50.35 36.35 50 35.6 50.35 35.5 49.9
M 39 50.75
L 39 51.55 40.4 50.05 39 50.75
M 29 49.35
Q 29.7 49.3 30.45 49.25
L 29.65 47.55 27.65 50.05
Q 27.95 49.9 28.2 49.7 28.6 49.55 29 49.35
M 40.25 47.95
Q 40.25 47.7 40.05 47.5 39.85 47.35 39.6 47.35 39.35 47.35 39.15 47.5 38.95 47.7 38.95 47.95 38.95 48.2 39.15 48.35 39.35 48.55 39.6 48.55 39.85 48.55 40.05 48.35 40.25 48.2 40.25 47.95
M 37.7 47.45
Q 37.35 47.25 36.95 47.5 36.85 47.95 37.85 48.15 37.9 48.2 37.95 48.25 38.5 47.7 37.7 47.45
M 38.85 45.55
L 38.4 45.55 38.4 46.45 38.85 46.45 38.85 45.55
M 34.25 48.75
Q 33.9 48.85 34.35 48.85 34.9 48.6 34.25 48.75
M 32.3 48.3
Q 32.45 48.15 32.45 47.95 32.45 47.75 32.3 47.6 32.2 47.45 32 47.45 31.8 47.45 31.65 47.6 31.55 47.75 31.55 47.95 31.55 48.15 31.65 48.3 31.8 48.45 32 48.45 32.2 48.45 32.3 48.3
M 30.5 44.25
Q 31.2 44.05 30.5 44.05 30.5 44.15 30.5 44.25
M 34.75 45.95
L 35.05 45.5 34.55 43.95 34.75 45.95
M 34.2 42.25
Q 34.35 42.15 34.35 41.95 34.35 41.75 34.2 41.6 34.1 41.5 33.9 41.5 33.7 41.5 33.55 41.6 33.45 41.75 33.45 41.95 33.45 42.15 33.55 42.25 33.7 42.4 33.9 42.4 34.1 42.4 34.2 42.25
M 32.7 42.35
L 32 42.85
Q 32 43.1 32.1 43.3 32.15 43.3 32.3 43.25 32.5 42.95 32.6 42.65 32.7 42.5 32.7 42.35
M 31.95 38
L 32.55 38 31.65 36.7 31.95 38
M 37 43
Q 36.75 43.15 36.75 43.3 36.75 43.45 37 43.65
L 37 43
M 26.5 48.85
Q 26.35 49.05 26.35 49.3 26.35 49.55 26.5 49.75 26.7 49.95 26.95 49.95 27.2 49.95 27.35 49.75 27.55 49.55 27.55 49.3 27.55 49.05 27.35 48.85 27.2 48.65 26.95 48.65 26.7 48.65 26.5 48.85
M 26.8 47.3
L 27 46.45
Q 26.75 46.95 26.65 47.35
L 26.8 47.3
M 30.2 46.2
Q 30.35 46.1 30.35 45.9 30.35 45.7 30.2 45.55 30.1 45.45 29.9 45.45 29.7 45.45 29.55 45.55 29.45 45.7 29.45 45.9 29.45 46.1 29.55 46.2 29.7 46.35 29.9 46.35 30.1 46.35 30.2 46.2
M 28.2 43.7
L 28.65 43.75
Q 28.8 43.1 28.1 43.6
L 28.2 43.7
M 24.6 49.1
Q 24.8 49.7 25.2 49.2 25.35 48.95 25.55 48.75
L 24.6 49.1
M 22.7 45.55
Q 22.2 45.75 22.5 46.25 22.75 46.7 22.85 46.4 23.05 45.95 22.7 45.55
M 20.85 45.55
L 20.4 45.55 20.4 46.45 20.85 46.45 20.85 45.55
M 22.9 44.25
L 22.9 43.7 22.45 43.7 22.45 44.25 22.9 44.25
M 24.5 43.9
Q 24.5 43.7 24.5 43.55 24.55 43 24 43
L 23.5 43.9 24.5 43.9
M 22.9 42.3
Q 23.25 42.9 24.1 42.75 24.75 42.8 25.5 42.85 25.3 41.8 24.05 41.7 23.2 41.55 22.95 42.1 22.9 42.15 22.9 42.3
M 21.5 43
Q 21.25 43 21.1 43.1 20.95 43.25 20.95 43.45 20.95 43.65 21.1 43.75 21.25 43.9 21.5 43.9 21.75 43.9 21.9 43.75 22.05 43.65 22.05 43.45 22.05 43.25 21.9 43.1 21.75 43 21.5 43
M 20.85 39.65
L 20.9 39.55
Q 20.35 39.45 20.85 39.65
M 22 39.4
L 22.45 37.85 21.55 38.85
Q 21.25 38.5 20.9 38.3 20.5 38.1 20.05 38
L 22.15 39.8 22 39.4
M 23.7 40.05
Q 23.55 39.95 23.35 39.95 23.15 39.95 23 40.05 22.85 40.2 22.85 40.35 22.85 40.5 23 40.6 23.15 40.75 23.35 40.75 23.55 40.75 23.7 40.6 23.85 40.5 23.85 40.35 23.85 40.2 23.7 40.05
M 30 41.05
L 30 41.75 30.5 42.35 30 41.05
M 26.15 39.25
L 26.55 39.55
Q 26.9 39.25 26.5 38.85 26.35 38.7 26.25 38.6 25.65 38.8 26.15 39.25
M 29.15 38.95
Q 29 39.05 28.95 39.25 29.35 39.5 29.4 39.05 29.5 38.6 29.15 38.95
M 29.1 37.65
L 29.1 37.6 29 37.15
Q 29.05 37.45 29.1 37.65
M 29.85 36.2
Q 30.05 36.15 30.05 35.8 29.95 33.7 28 32.95 28.85 33.9 29.3 35.15 29.4 35.5 29.45 35.95 29.5 36.15 29.85 36.2
M 26.5 35.25
Q 26.3 35.15 26.05 35.15 25.8 35.15 25.6 35.25 25.4 35.4 25.4 35.6 25.4 35.8 25.6 35.9 25.8 36.05 26.05 36.05 26.3 36.05 26.5 35.9 26.7 35.8 26.7 35.6 26.7 35.4 26.5 35.25
M 27.8 35.4
Q 27.6 35.4 27.45 35.5 27.3 35.65 27.3 35.85 27.3 36.05 27.45 36.15 27.6 36.3 27.8 36.3 28 36.3 28.15 36.15 28.3 36.05 28.3 35.85 28.3 35.65 28.15 35.5 28 35.4 27.8 35.4
M 24.9 34.5
Q 24.9 34.4 24.9 34.3 24.9 33.9 24.5 33.9 24.6 34.25 24.8 34.55
L 24.9 34.5
M 21.45 34.5
Q 21.5 34.4 21.45 34.25
L 20.85 34.95
Q 21.2 34.75 21.45 34.5
M 25 33.5
L 25.05 33.6
Q 25.6 33.95 25.95 33.3 26.1 32.95 26.25 32.65 25.1 32.6 25 33.5
M 23.5 34
Q 23.35 33.9 23.15 33.9 22.95 33.9 22.8 34 22.65 34.15 22.65 34.3 22.65 34.45 22.8 34.55 22.95 34.7 23.15 34.7 23.35 34.7 23.5 34.55 23.65 34.45 23.65 34.3 23.65 34.15 23.5 34
M 24.3 31.65
Q 24.45 31.55 24.4 31.25 24.15 30.8 23.95 31.1
L 23.95 31.45
Q 23.85 31.5 23.8 31.55 23.65 31.7 23.5 31.9 24 31.9 24.3 31.65
M 25 29.95
Q 25.15 29.85 25.15 29.65 25.15 29.45 25 29.3 24.85 29.2 24.65 29.2 24.45 29.2 24.3 29.3 24.15 29.45 24.15 29.65 24.15 29.85 24.3 29.95 24.45 30.1 24.65 30.1 24.85 30.1 25 29.95
M 24.5 26.9
L 23.85 27
Q 23.6 27.3 23.45 27.65 23.45 27.7 23.55 27.85 24.1 28.15 24.25 27.65 24.4 27.25 24.5 26.9
M 28.25 30.8
Q 28.3 30.7 28.35 30.65 28.4 30.3 27.95 30.5 27.85 30.65 28.25 30.8
M 29.5 30.9
L 28.5 30.9
Q 28.4 31.4 28.85 31.7 28.9 31.75 29 31.8 29.55 31.75 29.5 30.9
M 25.85 30.5
Q 25.85 30.45 26 30.35 25.7 30 25.85 30.5
M 26.6 28.5
L 26.75 28.5 27 27.75
Q 26.75 28.15 26.6 28.5
M 27.7 29.35
Q 27.6 29.2 27.45 29.2 27.3 29.2 27.2 29.35 27.1 29.5 27.1 29.75 27.1 30 27.2 30.15 27.3 30.3 27.45 30.3 27.6 30.3 27.7 30.15 27.8 30 27.8 29.75 27.8 29.5 27.7 29.35
M 32.45 32.6
Q 31.95 33 32.25 33.45
L 34.65 32.35 33.65 32.05
Q 33.4 32.15 33.15 32.25 32.8 32.45 32.45 32.6
M 33.4 35.05
Q 33.35 35 33.05 35.25 33.8 35.4 33.4 35.05
M 34.7 33.9
Q 34.5 34.5 35.15 34.65 35.35 34.8 35.6 34.8 35.65 34.7 35.75 34.65
L 34.7 33.9
M 34.55 30.3
Q 34.9 30.65 34.75 30.25 34.15 29.9 34.55 30.3
M 30.65 30.55
Q 31.45 30.55 32.05 29.85
L 30.25 30.25
Q 30.45 30.4 30.65 30.55
M 32.35 25.85
Q 32.5 25.95 32.75 25.95
L 31.95 25.55
Q 32.1 25.75 32.35 25.85
M 33.85 27.7
Q 33.9 27.75 34 27.8 34.65 27.7 34.5 26.9
L 33.5 26.9
Q 33.4 27.35 33.85 27.7
M 34.25 25.45
Q 34.4 25.3 34.4 25.1 34.4 24.9 34.25 24.75 34.1 24.6 33.85 24.6 33.6 24.6 33.45 24.75 33.3 24.9 33.3 25.1 33.3 25.3 33.45 25.45 33.6 25.6 33.85 25.6 34.1 25.6 34.25 25.45
M 37.75 28.05
Q 37.4 27.5 36.6 27.65 35.4 27.4 35.05 26.25 34.7 27.7 35.35 28.95
L 40 29.15 40 27.35
Q 38.85 27.7 37.75 28.05
M 35.75 30.75
Q 35.95 30.15 35.7 30.55 35.65 30.6 35.75 30.75
M 37.8 26.2
Q 37.75 26.2 37.85 26.3 38.25 26.2 37.8 26.2
M 40.2 26
Q 40.1 26 40.05 26.05 39.75 26.25 40.15 26.5 40.5 26.55 40.75 26.95 41.1 26.25 40.2 26
M 16.1 48
Q 16.5 48.2 16.95 48.45 16.95 47.35 15.95 47.05 15.85 47.1 15.8 47.15 15.4 47.55 16.1 48
M 16.55 44.55
L 17.05 44.95 18.45 45.25 16.55 44.55
M 20.05 43.75
Q 20.25 43.3 19.65 43.5 19.25 43.55 19.75 43.65 19.9 43.7 20.05 43.75
M 19.15 45.85
Q 18.95 46 18.95 46.25 18.95 46.5 19.15 46.65 19.35 46.8 19.6 46.8 19.85 46.8 20.05 46.65 20.25 46.5 20.25 46.25 20.25 46 20.05 45.85 19.85 45.7 19.6 45.7 19.35 45.7 19.15 45.85
M 17.65 41.15
Q 18.15 41.45 17.8 40.9 17.8 40.95 17.65 41.15
M 19.05 38.15
L 18.25 37.75
Q 18.35 37.95 18.5 38.15 18.85 38.65 19.05 38.15
M 19.8 36.2
Q 20 36.05 20 35.85 20 35.65 19.8 35.5 19.6 35.35 19.35 35.35 19.1 35.35 18.9 35.5 18.7 35.65 18.7 35.85 18.7 36.05 18.9 36.2 19.1 36.35 19.35 36.35 19.6 36.35 19.8 36.2
M 16.45 35.3
Q 16.5 35.1 16.5 34.9
L 15.85 35
Q 15.6 35.3 15.45 35.65 15.45 35.7 15.55 35.85 15.8 35.9 16 35.75 16.3 35.6 16.45 35.3
M 17.85 32.75
Q 17.85 32.55 17.7 32.4 17.6 32.25 17.45 32.25 17.3 32.25 17.15 32.4 17.05 32.55 17.05 32.75 17.05 32.95 17.15 33.1 17.3 33.25 17.45 33.25 17.6 33.25 17.7 33.1 17.85 32.95 17.85 32.75
M 19.75 32.95
Q 19.7 33 19.7 33.15
L 20.25 33.65 21.45 32.45
Q 20.3 32.3 19.75 32.95
M 18.65 25.95
Q 18.95 26.3 19.05 25.95
L 18.25 25.55
Q 18.4 25.75 18.65 25.95
M 19.15 24.4
Q 19.1 24.5 19.1 24.65 19.1 24.8 19.15 24.9 19.25 25 19.35 25 19.45 25 19.5 24.9 19.6 24.8 19.6 24.65 19.6 24.5 19.5 24.4 19.45 24.3 19.35 24.3 19.25 24.3 19.15 24.4
M 38.9 23
Q 38.7 22.9 38.5 22.85
L 36.9 22.65 39.45 23.55
Q 39.3 23.35 39.15 23.15 39 23.05 38.9 23
M 38.4 24.1
L 37.65 24.65
Q 37.5 25.1 37.8 24.9 38.1 24.7 38.3 24.4 38.35 24.25 38.4 24.1
M 26.15 23.6
Q 26.4 23.7 26.55 23.45 26.5 23.1 26.35 22.85 26.2 22.7 25.95 22.65 25.5 23.25 26.15 23.6
M 25.8 21.85
Q 25.65 21.55 25.5 21.9 26 22.25 25.8 21.85
M 22.2 22.8
L 21.95 23.05
Q 22.55 23.15 22.2 22.8
M 21.8 22.1
Q 21.8 21.95 21.8 21.85
L 21.4 22.5
Q 21.85 22.7 21.8 22.1
M 24.35 23.4
Q 24.4 23.3 24.45 23.2
L 23.6 22.9
Q 23.75 23.5 24.35 23.4
M 77.55 48.85
Q 77.7 48.75 77.7 48.6 77.7 48.45 77.55 48.3 77.4 48.2 77.2 48.2 77 48.2 76.85 48.3 76.7 48.45 76.7 48.6 76.7 48.75 76.85 48.85 77 49 77.2 49 77.4 49 77.55 48.85
M 77.8 45.95
Q 77.6 45.9 77.45 45.9 77.25 45.85 77.1 45.85 76.75 46 76.45 46.15
L 78.85 46.95
Q 78.6 46.35 77.8 45.95
M 77.75 43.75
Q 77.85 43.1 77.4 43.65 77.35 43.75 77.75 43.75
M 74.75 49.15
L 75.75 49.25 76.05 48.65 74.75 49.15
M 72.65 48.3
Q 72.4 47.95 72.2 47.8 72.15 47.75 72.05 47.8 72 48.55 72.65 48.3
M 73.05 46.75
Q 73.05 46.6 72.9 46.45 72.75 46.35 72.55 46.35 72.35 46.35 72.2 46.45 72.05 46.6 72.05 46.75 72.05 46.9 72.2 47 72.35 47.15 72.55 47.15 72.75 47.15 72.9 47 73.05 46.9 73.05 46.75
M 71.9 44.95
L 72.05 44.85 72.15 44.5
Q 72.05 44.6 71.9 44.95
M 75.1 46.1
Q 74.8 46.15 74.55 46.25 74.5 46.75 74.85 46.5 75.3 46.2 75.1 46.1
M 73.85 45.25
Q 74 45.1 74 44.9 74 44.7 73.85 44.55 73.7 44.4 73.45 44.4 73.2 44.4 73.05 44.55 72.9 44.7 72.9 44.9 72.9 45.1 73.05 45.25 73.2 45.4 73.45 45.4 73.7 45.4 73.85 45.25
M 75.65 44.25
L 75.3 43.55 72.75 43.45 75.65 44.25
M 74.4 42.2
Q 74.35 42 74.25 41.9 73.9 41.45 73.95 41.7 74 42 74.35 42.15
L 74.4 42.2
M 75.75 37.9
Q 75.5 37.85 75.3 37.85
L 77.5 39.9
Q 77.55 38.2 75.75 37.9
M 74.1 38.6
Q 74.25 38.5 74.25 38.3 74.25 38.1 74.1 37.95 74 37.85 73.8 37.85 73.6 37.85 73.45 37.95 73.35 38.1 73.35 38.3 73.35 38.5 73.45 38.6 73.6 38.75 73.8 38.75 74 38.75 74.1 38.6
M 77.95 43.1
Q 77.95 43.2 78.05 43.3 78.2 43.4 78.35 43.4 78.5 43.4 78.6 43.3 78.75 43.2 78.75 43.1 78.75 43 78.6 42.9 78.5 42.8 78.35 42.8 78.2 42.8 78.05 42.9 77.95 43 77.95 43.1
M 77.8 40.85
Q 77.65 40.85 77.55 40.9 77.9 41.1 78.15 41.3
L 78.25 41.25
Q 78.35 40.85 77.8 40.85
M 76.25 41.4
Q 76.4 41.5 76.65 41.45 76.5 39.95 74.85 39.35
L 74.25 39.45
Q 75.05 40.65 76.25 41.4
M 70.6 47.85
Q 70.5 47.9 70.75 48.15 71.05 47.7 70.6 47.85
M 69.65 47.05
Q 69.85 46.95 70.05 46.85
L 68.25 45.45
Q 68.55 46.5 69.2 46.85 69.3 46.9 69.45 47 69.55 47 69.65 47.05
M 67.05 45.45
Q 67.3 45.15 67.55 44.9 66.55 44.85 65.75 44.1 65.35 44.55 65.85 45 66.35 45.5 67.05 45.45
M 66.75 43.65
L 67.75 43.75 68.05 43.15 66.75 43.65
M 70.1 44.85
Q 70.1 44.7 70 44.6 69.9 44.5 69.8 44.5 69.7 44.5 69.6 44.6 69.5 44.7 69.5 44.85 69.5 45 69.6 45.1 69.7 45.2 69.8 45.2 69.9 45.2 70 45.1 70.1 45 70.1 44.85
M 65.5 46.9
L 65.5 47.9 66.5 46.9 65.5 46.9
M 61.9 49.2
Q 61.75 49.2 61.5 49.45 61.55 49.55 61.6 49.55 61.7 49.55 61.8 49.45
L 61.9 49.2
M 62.25 44.45
Q 62.25 44.3 62.15 44.15 62.05 44.05 61.9 44.05 61.75 44.05 61.65 44.15 61.55 44.3 61.55 44.45 61.55 44.6 61.65 44.7 61.75 44.85 61.9 44.85 62.05 44.85 62.15 44.7 62.25 44.6 62.25 44.45
M 64.65 45.35
Q 64.35 44.8 63.65 44.45 63.5 44.45 63.35 44.5 63.45 45.2 64.65 45.35
M 64.3 42.15
L 65.05 42.25 64.45 41.45
Q 64.25 41.5 64.25 41.6 64.2 41.85 64.3 42.15
M 63.75 43.15
Q 63.65 43.05 63.5 43.05 63.35 43.05 63.25 43.15 63.15 43.25 63.15 43.4 63.15 43.55 63.25 43.65 63.35 43.75 63.5 43.75 63.65 43.75 63.75 43.65 63.85 43.55 63.85 43.4 63.85 43.25 63.75 43.15
M 61.75 41.25
L 61.25 41.95 61.35 42.95 61.75 41.25
M 62.35 39.95
Q 62.25 39.95 62.15 40.05 62.05 40.2 62.05 40.4 62.05 40.6 62.15 40.7 62.25 40.85 62.35 40.85 62.45 40.85 62.55 40.7 62.65 40.6 62.65 40.4 62.65 40.2 62.55 40.05 62.45 39.95 62.35 39.95
M 63.55 39.35
Q 63.5 39.3 63.4 39.3 63.3 39.3 63.2 39.35 63.15 39.45 63.15 39.55 63.15 39.65 63.2 39.7 63.3 39.8 63.4 39.8 63.5 39.8 63.55 39.7 63.65 39.65 63.65 39.55 63.65 39.45 63.55 39.35
M 70.3 42.85
Q 70.55 42.7 70.8 42.55
L 71.15 42.3 71.5 40.95 70.3 42.25
Q 69.9 41.7 69.5 41.2 69.4 42.05 70.05 42.65 70.15 42.75 70.3 42.85
M 67.35 37.8
Q 67.65 37.5 67.9 37.2 68 37.05 68.1 36.9 67.65 37.1 67.25 37.35
L 67.35 37.8
M 67.7 39.95
Q 67.7 39.8 67.65 39.75 67 39.75 67 40.65 67 40.95 66.85 40.95 67.55 41.6 67.7 40.6 67.75 40.25 67.7 39.95
M 66.35 39.6
Q 66.15 39.4 65.9 39.4 65.65 39.4 65.45 39.6 65.25 39.85 65.25 40.2 65.25 40.55 65.45 40.75 65.65 41 65.9 41 66.15 41 66.35 40.75 66.55 40.55 66.55 40.2 66.55 39.85 66.35 39.6
M 70.75 38.75
L 70.35 39.45
Q 70.9 39.2 71.45 38.85 71.75 38.7 72 38.5
L 72 38.2
Q 71.4 38.35 70.75 38.75
M 68.7 38.5
Q 68.5 38.5 68.35 38.6 68.25 38.75 68.25 38.9 68.25 39.05 68.35 39.15 68.5 39.3 68.7 39.3 68.9 39.3 69 39.15 69.15 39.05 69.15 38.9 69.15 38.75 69 38.6 68.9 38.5 68.7 38.5
M 70 37.8
Q 70.15 37.7 70.15 37.55 70.15 37.4 70 37.3 69.9 37.2 69.75 37.2 69.6 37.2 69.45 37.3 69.35 37.4 69.35 37.55 69.35 37.7 69.45 37.8 69.6 37.9 69.75 37.9 69.9 37.9 70 37.8
M 69 36.5
L 69.15 36.5
Q 69.8 36.2 69.55 35.75 69.15 36.05 69 36.5
M 69.8 34.45
Q 69.8 34.3 69.65 34.15 69.55 34.05 69.35 34.05 69.15 34.05 69 34.15 68.9 34.3 68.9 34.45 68.9 34.6 69 34.7 69.15 34.85 69.35 34.85 69.55 34.85 69.65 34.7 69.8 34.6 69.8 34.45
M 67.5 34.9
L 66.5 34.9
Q 66.45 35.45 66.85 35.7 66.9 35.75 67 35.8 67.75 35.65 67.5 34.9
M 67.4 33.3
Q 67.45 33.85 67.75 33.6 68.05 33.3 67.9 32.75
L 67.35 32.15
Q 66.6 32.25 67.4 33.15 67.45 33.15 67.4 33.3
M 66.2 33.55
Q 66.1 33.7 66.1 33.9 66.1 34.1 66.2 34.25 66.35 34.4 66.5 34.4 66.65 34.4 66.75 34.25 66.9 34.1 66.9 33.9 66.9 33.7 66.75 33.55 66.65 33.4 66.5 33.4 66.35 33.4 66.2 33.55
M 70.05 31.25
L 69.7 31.7
Q 69.8 31.7 69.85 31.65 70 31.5 70.05 31.25
M 64.25 36.85
Q 63.95 36.85 63.75 37 63.55 37.2 63.55 37.45 63.55 37.7 63.75 37.85 63.95 38.05 64.25 38.05 64.55 38.05 64.75 37.85 64.95 37.7 64.95 37.45 64.95 37.2 64.75 37 64.55 36.85 64.25 36.85
M 62.05 34.9
Q 62.1 34.95 62.25 35
L 61.85 33.25
Q 61.5 34.1 62.05 34.9
M 62.8 35.4
Q 62.65 35.4 62.5 35.5 62.4 35.6 62.4 35.75 62.4 35.9 62.5 36 62.65 36.1 62.8 36.1 62.95 36.1 63.05 36 63.2 35.9 63.2 35.75 63.2 35.6 63.05 35.5 62.95 35.4 62.8 35.4
M 64.2 31.35
Q 64.4 31.4 64.65 31.45 64.4 30.5 63.25 30.45 63.45 31.1 64.2 31.35
M 61.6 30.15
L 62.05 30.1 62.25 29.95
Q 62 30 61.6 30.15
M 63 30.9
L 62 30.9 62 31 63 30.9
M 63 26.9
L 63 27 64 26.9 63 26.9
M 60.85 26.45
L 61.95 27.15 62.25 26.25 60.25 25.75 60.85 26.45
M 70.8 29.75
L 69.9 29.8 69.55 30.65 70.15 29.95 71.65 31.55 70.8 29.75
M 67.1 30.05
Q 67.2 30.05 67.35 30.1 66.55 29.65 65.75 29.25 66.3 29.95 67.1 30.05
M 68.65 27.85
L 67.85 27.95
Q 67 27.1 65.7 27.1 65.25 27.1 64.85 27.15 65.9 27.65 66.8 28.1 67.8 28.75 68.65 27.85
M 75.5 34.9
L 74.5 34.9
Q 74.45 35.45 74.85 35.7 74.9 35.75 75 35.8 75.7 35.65 75.5 34.9
M 71.9 34.75
Q 71.95 34.45 71.5 34.45 71.35 34.9 71.7 35.05 71.85 35.15 71.9 34.75
M 73.05 35.1
L 72.35 35.65 72.15 36.35 73.05 35.1
M 72.5 32.85
L 72.75 33.3 73 32.85 72.5 32.85
M 75.25 31.45
Q 75.35 31.35 75.35 31.25 75.35 31.15 75.25 31.05 75.2 30.95 75.1 30.95 75 30.95 74.9 31.05 74.85 31.15 74.85 31.25 74.85 31.35 74.9 31.45 75 31.55 75.1 31.55 75.2 31.55 75.25 31.45
M 57.1 43.4
L 56.7 43.4 56.7 43.85 57.1 43.85 57.1 43.4
M 59.2 46.3
Q 58.75 45.85 58.25 45.55
L 57.75 46.15 59.75 47.35
Q 59.7 47.05 59.6 46.8 59.45 46.5 59.2 46.3
M 60.05 46.35
Q 60 46.25 59.95 46.25
L 60.5 46.9
Q 60.3 46.6 60.05 46.35
M 53.55 47.4
L 54.25 46.55 54 45.85 51.5 46 51.75 46.7
Q 52.35 47.4 53.2 47.4 53.35 47.4 53.55 47.4
M 54.75 49.15
Q 54.5 49.15 54.3 49.3 54.15 49.5 54.15 49.75 54.15 50 54.3 50.15 54.5 50.35 54.75 50.35 55 50.35 55.15 50.15 55.35 50 55.35 49.75 55.35 49.5 55.15 49.3 55 49.15 54.75 49.15
M 53.65 49.35
Q 53.55 49.25 53.4 49.25 53.25 49.25 53.15 49.35 53.05 49.45 53.05 49.55 53.05 49.65 53.15 49.75 53.25 49.85 53.4 49.85 53.55 49.85 53.65 49.75 53.75 49.65 53.75 49.55 53.75 49.45 53.65 49.35
M 51.3 49.15
Q 51.3 49 51.15 48.85 51.05 48.75 50.9 48.75 50.75 48.75 50.6 48.85 50.5 49 50.5 49.15 50.5 49.3 50.6 49.4 50.75 49.55 50.9 49.55 51.05 49.55 51.15 49.4 51.3 49.3 51.3 49.15
M 55.35 45.45
Q 55.05 45.9 54.9 46.4 54.75 46.75 54.75 47.2
L 55.85 48.35
Q 55.65 47.75 55.4 47.15 55.25 46.75 55.25 46.35 55.3 45.9 55.35 45.45
M 53.05 43.25
L 52.5 42.75
Q 52 43.25 52.8 43.6 53.2 43.75 53.65 43.95
L 53.05 43.25
M 59.35 41.95
Q 59.4 41.95 59.45 41.85 58.9 41.95 59.35 41.95
M 58.6 43.1
Q 58.5 42.95 58.3 42.95 58.1 42.95 57.95 43.1 57.85 43.25 57.85 43.45 57.85 43.65 57.95 43.8 58.1 43.95 58.3 43.95 58.5 43.95 58.6 43.8 58.75 43.65 58.75 43.45 58.75 43.25 58.6 43.1
M 55.85 42.8
Q 55.85 42.65 55.75 42.5 55.65 42.4 55.5 42.4 55.35 42.4 55.25 42.5 55.15 42.65 55.15 42.8 55.15 42.95 55.25 43.05 55.35 43.2 55.5 43.2 55.65 43.2 55.75 43.05 55.85 42.95 55.85 42.8
M 57.25 42
Q 57.7 41.75 57.7 41.35
L 57 41.85
Q 57.15 41.95 57.25 42
M 56.05 39.35
L 56.3 39.8 56.55 39.35 56.05 39.35
M 48.15 48.55
Q 47.85 48.1 47.65 47.65 47.55 47.75 47.45 47.85 47.2 48 46.9 48.15 46.85 49.1 47.75 49.7 47.85 49.75 48.05 49.8 48.5 49.2 48.15 48.55
M 46.65 46.9
Q 46.7 46.8 46.75 46.75 47.2 46.3 46.45 46 45.9 45.85 45.95 46.45 46.15 46.95 46.65 46.9
M 42.45 49
Q 42.25 49 42.1 49.15 41.95 49.3 41.95 49.5 41.95 49.7 42.1 49.85 42.25 50 42.45 50 42.65 50 42.8 49.85 42.95 49.7 42.95 49.5 42.95 49.3 42.8 49.15 42.65 49 42.45 49
M 42.2 47.55
Q 42.1 47.7 42.1 47.9 42.1 48.1 42.2 48.25 42.35 48.4 42.5 48.4 42.65 48.4 42.75 48.25 42.9 48.1 42.9 47.9 42.9 47.7 42.75 47.55 42.65 47.4 42.5 47.4 42.35 47.4 42.2 47.55
M 41.55 45.05
Q 41.5 45.6 42.05 45.45 42.55 45.25 42 45.1
L 41.55 45.05
M 44.9 45.75
Q 45.15 45.15 44.7 45.6 44.65 45.7 44.9 45.75
M 41.85 40.35
Q 41.4 40.25 41.85 40.45
L 41.85 40.35
M 42.5 37.9
Q 42.65 37.5 42.2 37.2 41.8 37.55 42.5 38
L 42.5 37.9
M 50.4 41.35
Q 50.4 41.55 50.5 41.65 50.6 41.8 50.7 41.8 50.8 41.8 50.9 41.65 51 41.55 51 41.35 51 41.15 50.9 41 50.8 40.9 50.7 40.9 50.6 40.9 50.5 41 50.4 41.15 50.4 41.35
M 45.65 40.9
Q 45.7 41.55 45.95 41.05 46 40.85 45.65 40.9
M 46.8 40.4
Q 46.75 40.45 46.75 40.5
L 48.05 40.9
Q 47.55 40 46.8 40.4
M 48.15 38.1
Q 48.15 38.05 48.2 38
L 47.5 37.9
Q 47.45 38.85 48.15 38.1
M 49.9 39.15
Q 50 38.95 50 38.75 49.75 39.15 49.6 39.4
L 49.7 39.4
Q 49.85 39.3 49.9 39.15
M 46.6 31.7
Q 46.55 31.75 46.9 31.95 47 31.45 46.6 31.7
M 47.5 33.6
Q 47.3 33.6 47.15 33.8 47.05 34 47.05 34.25 47.05 34.5 47.15 34.7 47.3 34.9 47.5 34.9 47.7 34.9 47.8 34.7 47.95 34.5 47.95 34.25 47.95 34 47.8 33.8 47.7 33.6 47.5 33.6
M 48.75 32.4
Q 48.75 32.45 48.8 32.5 48.9 32.5 49.05 32.5 49.1 32.5 49.15 32.4 49.25 32.3 49.3 32.2
L 49.25 30.75
Q 48.8 31.55 48.75 32.4
M 44.25 31.75
L 44.15 32.75 44.8 33.65
Q 44.5 32.7 44.25 31.75
M 45.4 35.3
Q 45.4 35.5 45.5 35.6 45.6 35.75 45.7 35.75 45.8 35.75 45.9 35.6 46 35.5 46 35.3 46 35.1 45.9 34.95 45.8 34.85 45.7 34.85 45.6 34.85 45.5 34.95 45.4 35.1 45.4 35.3
M 43.5 36.9
Q 43.25 36.9 43.1 37 42.95 37.15 42.95 37.3 42.95 37.45 43.1 37.55 43.25 37.7 43.5 37.7 43.75 37.7 43.9 37.55 44.05 37.45 44.05 37.3 44.05 37.15 43.9 37 43.75 36.9 43.5 36.9
M 43.45 29.7
Q 43.35 29.5 43.25 29.35 42.65 30.35 43.15 31.1 43.15 31.05 43.25 31 43.7 30.55 43.45 29.7
M 42.5 26.75
L 42.75 27.2 43.05 26.75 42.5 26.75
M 44.65 27.8
Q 44.55 27.7 44.35 27.7 44.15 27.7 44 27.8 43.9 27.95 43.9 28.15 43.9 28.35 44 28.45 44.15 28.6 44.35 28.6 44.55 28.6 44.65 28.45 44.8 28.35 44.8 28.15 44.8 27.95 44.65 27.8
M 47.9 30.55
L 47.5 30.55 47.5 31 47.9 31 47.9 30.55
M 50 26.95
Q 50.15 26.85 50.15 26.65 50.15 26.45 50 26.3 49.9 26.2 49.7 26.2 49.5 26.2 49.35 26.3 49.25 26.45 49.25 26.65 49.25 26.85 49.35 26.95 49.5 27.1 49.7 27.1 49.9 27.1 50 26.95
M 48.25 27.65
Q 48.4 27.25 48.5 26.9
L 47.85 27
Q 47.6 27.3 47.45 27.65 47.45 27.7 47.55 27.85 48.1 28.15 48.25 27.65
M 60.5 34.65
Q 60.65 34.55 60.65 34.4 60.65 34.25 60.5 34.1 60.4 34 60.2 34 60 34 59.85 34.1 59.75 34.25 59.75 34.4 59.75 34.55 59.85 34.65 60 34.8 60.2 34.8 60.4 34.8 60.5 34.65
M 57.15 31.25
Q 56.45 30.9 56.85 31.4 57.15 31.7 57.15 31.25
M 58.05 32.3
Q 57.8 32.2 58.15 32.4 58.7 32.35 58.05 32.3
M 58.65 31.45
Q 59 31.45 59.35 31.45 60.3 31.45 60.65 30.65
L 58.65 31.45
M 54.7 34.05
Q 54.4 34 54.15 33.95
L 56.45 34.75
Q 55.8 33.85 54.7 34.05
M 51.9 34.6
Q 52 34.5 52 34.35 52 34.2 51.9 34.05 51.8 33.95 51.65 33.95 51.5 33.95 51.4 34.05 51.3 34.2 51.3 34.35 51.3 34.5 51.4 34.6 51.5 34.75 51.65 34.75 51.8 34.75 51.9 34.6
M 52.35 32.25
Q 52.15 32.15 52 32.05 51.75 32.05 51.55 32.05 51.15 32.25 50.75 32.45
L 50.25 33.15 52.35 32.25
M 55.2 31.7
Q 55.5 31.15 55.2 31.45 55.05 31.65 54.85 31.9
L 55.2 31.7
M 54.75 31.05
Q 55.1 31.25 55.45 31.1 56.75 31 56.15 30.9 55.4 30.25 54.75 30.85 54.7 30.9 54.75 31.05
M 53.75 30.35
L 53.45 29.4 51.15 29.45
Q 52 31.05 53.6 30.4 53.7 30.45 53.75 30.35
M 53.75 28.25
L 55.45 28.3
Q 54.35 27.8 53.25 27.35
L 53.75 28.25
M 50.9 28.45
Q 51 28.35 51 28.2 51 28.05 50.9 27.95 50.8 27.85 50.7 27.85 50.6 27.85 50.5 27.95 50.4 28.05 50.4 28.2 50.4 28.35 50.5 28.45 50.6 28.55 50.7 28.55 50.8 28.55 50.9 28.45
M 51.8 26.1
Q 51.4 26.7 51.45 27.5 51.45 27.9 51.25 28.25 51.1 28.45 50.95 28.65
L 52.45 27.35
Q 52.55 26.6 52.1 26.2 51.95 26.1 51.8 26.1
M 50.9 26.05
Q 50.85 25.95 50.75 25.95 50.65 25.95 50.55 26.05 50.5 26.15 50.5 26.25 50.5 26.35 50.55 26.45 50.65 26.55 50.75 26.55 50.85 26.55 50.9 26.45 51 26.35 51 26.25 51 26.15 50.9 26.05
M 51.3 24.9
L 51.3 25.15 51.6 25.15 51.6 24.9 51.3 24.9
M 54.45 24.95
Q 53.4 25.65 53.2 26.6 53.15 26.7 53.2 26.85
L 53.7 27.2
Q 54.6 26.3 54.45 24.95
M 58.5 28.65
Q 58.55 29.5 59.45 29.2 59.15 29.05 58.7 28.65 58.6 28.6 58.5 28.65
M 56.85 27.4
Q 56.75 27.55 56.75 27.7 56.75 27.85 56.85 27.95 57 28.1 57.2 28.1 57.4 28.1 57.5 27.95 57.65 27.85 57.65 27.7 57.65 27.55 57.5 27.4 57.4 27.3 57.2 27.3 57 27.3 56.85 27.4
M 60.3 27.65
Q 60.05 27.65 59.85 27.8 59.65 27.95 59.65 28.2 59.65 28.45 59.85 28.6 60.05 28.75 60.3 28.75 60.55 28.75 60.75 28.6 60.95 28.45 60.95 28.2 60.95 27.95 60.75 27.8 60.55 27.65 60.3 27.65
M 59.45 27.2
Q 59.35 26.35 58.6 26 58.35 25.95 58.15 25.9 58.35 26.55 59 26.95 59.2 27.05 59.45 27.2
M 58.95 23.5
Q 59.1 23.35 59.1 23.1 59.1 22.85 58.95 22.7 58.85 22.55 58.65 22.55 58.45 22.55 58.3 22.7 58.2 22.85 58.2 23.1 58.2 23.35 58.3 23.5 58.45 23.65 58.65 23.65 58.85 23.65 58.95 23.5
M 57.6 23.1
L 57.75 22.35
Q 57.5 22.65 57.5 23 57.5 23.05 57.6 23.1
M 57.4 24.7
L 56.95 23.95 55.65 26.65
Q 55.85 26.6 56.1 26.55 56.85 26.15 57.1 25.55 57.25 25.1 57.4 24.7
M 57.5 19.9
L 56.5 18.9 56.5 19.9 57.5 19.9
M 59.5 18.9
L 58.85 19
Q 58.6 19.3 58.45 19.6 58.45 19.7 58.55 19.85 59 20.25 59.25 19.6 59.4 19.25 59.5 18.9
M 51 21.8
Q 50.95 21.7 50.85 21.65
L 50.25 22.45
Q 51.2 22.8 51 21.8
M 52.7 24
Q 52.85 24.15 53 24.15 53.15 24.15 53.25 24 53.4 23.9 53.4 23.7 53.4 23.5 53.25 23.35 53.15 23.25 53 23.25 52.85 23.25 52.7 23.35 52.6 23.5 52.6 23.7 52.6 23.9 52.7 24
M 52.25 19.75
Q 52.25 19.7 52.2 19.75 52.5 20.35 52.25 19.75
M 51.75 21.05
L 51.85 21.05
Q 52.3 20.8 51.85 20.7 51.75 20.85 51.75 21.05
M 48.8 23.4
Q 49.05 23.65 49.35 23.95
L 49.15 24.65
Q 47.65 25.25 46.15 24.25 47.05 25.25 48.3 25.5 48.8 25.6 49.2 25.1 49.35 24.95 49.55 24.85 50.05 24.25 49.65 23.7
L 48.8 23.4
M 46.5 21.9
Q 46.65 22.1 46.85 22.2
L 46.95 22.1
Q 47 21.8 46.95 21.85 46.75 21.7 46.5 21.9
M 47.75 19.45
Q 47.45 19.3 47.15 19.2 47.1 19.2 47.05 19.25
L 47.75 19.45
M 43.85 24.3
L 44 23.65
Q 43.75 24.05 43.65 24.35
L 43.85 24.3
M 41.5 22.9
L 40.5 22.9
Q 40.35 23.4 40.85 23.65 40.9 23.75 41 23.8 41.7 23.8 41.5 22.9
M 42.35 23.35
L 41.45 23.95 41.35 24.65 42.35 23.35
M 40.5 20.55
L 42.15 20.65 42.55 20.25 40.5 20.55
M 43.95 20.95
Q 44.75 21.25 44.95 20.2 44.95 20.15 44.95 20.1 44.6 19.65 44.15 20.2
L 43.95 20.95
M 64.05 24.15
Q 63.95 24.3 63.85 24.45 63.8 24.65 63.85 24.9 63.85 25.05 63.95 25.25 64.4 25.65 65 25.65 65.8 25.55 66.65 25.45 65.45 24.7 64.4 24.25 64.25 24.15 64.05 24.15
M 61.55 23.9
L 62.5 23.9 62.25 23.1
Q 62.1 23.05 62.05 23.05 61.75 23.3 61.5 23.65 61.05 23.05 60.35 23.3 60.25 23.35 60.15 23.45 60.15 23.95 60.6 23.95 61.05 23.9 61.55 23.9
M 64.5 18.9
L 63.85 19
Q 63.6 19.3 63.45 19.65 63.45 19.7 63.55 19.85 64.2 20.25 64.3 19.65 64.4 19.25 64.5 18.9
M 85.5 22.9
L 84.5 22.9
Q 84.45 23.4 84.85 23.7 84.9 23.75 85 23.8 85.75 23.8 85.5 22.9
M 84.95 19.05
Q 85.05 18.85 85.05 18.55
L 84.5 19.35
Q 84.8 19.25 84.95 19.05 Z"/>
</g>
</defs>

<g transform="matrix( 1, 0, 0, 1, 2.75,1.5) ">
<use xlink:href="#Layer1_0_FILL"/>
</g>
</svg>
