
<svg xmlns="http://www.w3.org/2000/svg" version="1.1" xmlns:xlink="http://www.w3.org/1999/xlink" preserveAspectRatio="none" x="0px" y="0px" width="100px" height="100px" viewBox="0 0 100 100">
<defs>
<g id="Layer1_0_FILL">
<path fill="#000000" stroke="none" d="
M 62.75 74.8
Q 62.85 74.7 62.85 74.55 62.85 74.4 62.75 74.25 62.65 74.15 62.5 74.15 62.35 74.15 62.25 74.25 62.15 74.4 62.15 74.55 62.15 74.7 62.25 74.8 62.35 74.95 62.5 74.95 62.65 74.95 62.75 74.8
M 69.2 80.4
Q 69.2 80.2 69.05 80.05 68.95 79.95 68.75 79.95 68.55 79.95 68.4 80.05 68.3 80.2 68.3 80.4 68.3 80.6 68.4 80.7 68.55 80.85 68.75 80.85 68.95 80.85 69.05 80.7 69.2 80.6 69.2 80.4
M 72.85 76.8
Q 73.7 78.65 75.3 79.35
L 76.45 78.85 74.25 77.7
Q 73.9 77.1 73.35 76.95 73.1 76.85 72.85 76.8
M 70.95 79.6
Q 71.4 79.8 71.85 80 72.3 79.45 71.5 79.05 70.65 78.65 69.7 78.55 69.7 78.7 69.85 78.8 70.35 79.25 70.95 79.6
M 79 79.85
Q 79.15 79.75 79.15 79.6 79.15 79.45 79 79.3 78.9 79.2 78.75 79.2 78.6 79.2 78.45 79.3 78.35 79.45 78.35 79.6 78.35 79.75 78.45 79.85 78.6 80 78.75 80 78.9 80 79 79.85
M 80.7 78.7
Q 80.7 78.55 80.6 78.45 80.5 78.35 80.35 78.35 80.2 78.35 80.1 78.45 80 78.55 80 78.7 80 78.85 80.1 78.95 80.2 79.05 80.35 79.05 80.5 79.05 80.6 78.95 80.7 78.85 80.7 78.7
M 77.55 74.65
Q 76.45 74.95 76.75 76.25 77.15 77.9 78.9 77.7 80.95 77.5 82.4 76.05 80.1 75.4 77.9 74.7 77.75 74.6 77.55 74.65
M 60 74.6
Q 60 74.7 60.05 74.8 60.7 74.9 60.35 74.45 60 74.05 60 74.6
M 58.45 71.2
L 58.6 72.15
Q 60.9 71.75 62.4 69.8 60.6 69.8 59.25 70.6 58.85 70.9 58.45 71.2
M 57.55 70.4
Q 57.55 70.2 57.4 70.05 57.3 69.95 57.1 69.95 56.9 69.95 56.75 70.05 56.65 70.2 56.65 70.4 56.65 70.6 56.75 70.7 56.9 70.85 57.1 70.85 57.3 70.85 57.4 70.7 57.55 70.6 57.55 70.4
M 54 69
Q 54.15 68.9 54.15 68.7 54.15 68.5 54 68.35 53.9 68.25 53.75 68.25 53.6 68.25 53.45 68.35 53.35 68.5 53.35 68.7 53.35 68.9 53.45 69 53.6 69.15 53.75 69.15 53.9 69.15 54 69
M 52.35 63.1
Q 52.5 63 52.5 62.85 52.5 62.7 52.35 62.55 52.25 62.45 52.05 62.45 51.85 62.45 51.7 62.55 51.6 62.7 51.6 62.85 51.6 63 51.7 63.1 51.85 63.25 52.05 63.25 52.25 63.25 52.35 63.1
M 50 67.3
Q 50.15 67.45 50.35 67.45 50.55 67.45 50.65 67.3 50.8 67.2 50.8 67.05 50.8 66.9 50.65 66.75 50.55 66.65 50.35 66.65 50.15 66.65 50 66.75 49.9 66.9 49.9 67.05 49.9 67.2 50 67.3
M 50.25 62
Q 49.8 61.85 50.05 62.3 51 62.3 50.25 62
M 58.6 56.15
Q 58.5 56.1 58.35 56.15 58.4 56.55 58.6 56.9 58.65 57.05 58.8 57.15 59.55 56.55 58.6 56.15
M 60.35 55.8
Q 60.15 55.8 60 55.9 59.9 56.05 59.9 56.2 59.9 56.35 60 56.45 60.15 56.6 60.35 56.6 60.55 56.6 60.65 56.45 60.8 56.35 60.8 56.2 60.8 56.05 60.65 55.9 60.55 55.8 60.35 55.8
M 52.4 60.6
Q 52.55 60.5 52.55 60.3 52.55 60.1 52.4 59.95 52.3 59.85 52.1 59.85 51.9 59.85 51.75 59.95 51.65 60.1 51.65 60.3 51.65 60.5 51.75 60.6 51.9 60.75 52.1 60.75 52.3 60.75 52.4 60.6
M 52.5 57.05
Q 52.5 56.9 52.35 56.75 52.25 56.65 52.05 56.65 51.85 56.65 51.7 56.75 51.6 56.9 51.6 57.05 51.6 57.2 51.7 57.3 51.85 57.45 52.05 57.45 52.25 57.45 52.35 57.3 52.5 57.2 52.5 57.05
M 72.05 65.8
Q 72.1 65.7 72.15 65.65 71.75 65.6 71.4 65.2 71.35 65.15 71.2 65.25 71.55 65.75 72.05 65.8
M 77.35 67.3
Q 77.5 67.2 77.5 67.05 77.5 66.9 77.35 66.75 77.25 66.65 77.05 66.65 76.85 66.65 76.7 66.75 76.6 66.9 76.6 67.05 76.6 67.2 76.7 67.3 76.85 67.45 77.05 67.45 77.25 67.45 77.35 67.3
M 80.6 64.65
Q 80.7 64.05 80.15 63.8 80.1 63.7 80 63.75
L 80.6 64.65
M 69.8 67.2
Q 70 66.95 70 66.6 70 66.25 69.8 66 69.6 65.75 69.3 65.75 69 65.75 68.8 66 68.6 66.25 68.6 66.6 68.6 66.95 68.8 67.2 69 67.45 69.3 67.45 69.6 67.45 69.8 67.2
M 65.9 62.3
L 66.3 62.75
Q 67.15 62.85 67.7 62.1 68.4 61.1 69.05 60.1 67.45 61.2 65.9 62.3
M 66.3 59.6
Q 67.15 58.85 67.15 57.7
L 64.95 59.65
Q 65.55 60.35 66.3 59.6
M 61.3 57.4
Q 61.2 57.3 61.1 57.3 60.25 57.55 60.3 58.65 60.35 59.75 59.65 60.5 58.75 60.5 58.25 59.8 57.15 58.35 55.9 57 55.9 57.35 56.1 57.6 56.45 58.2 56.95 58.8 57.45 59.45 57.4 60.35
L 54.45 59.35
Q 54.3 60.45 55.1 61.2 55.4 61.55 55.9 61.75
L 57.5 61.1
Q 58.75 61.35 59.55 62.25 59.8 62.55 60.3 62.55 61.7 62.55 63.15 62.65 62.65 64.55 64.6 65.15 65.2 65.4 65.85 65.55 66.15 65.5 66.5 65.55 66.05 66.9 64.45 66.35 63.65 66 62.65 65.55 58.7 63.45 54.15 62.55
L 53.45 63.1 53.6 64
Q 54.8 65.55 56.85 65.15 58.45 64.8 59.7 65.8 59.85 66.25 60 66.75 60.2 67.4 59.85 67.7 58.8 67.8 57.95 67 56.65 65.8 55.2 66.15
L 54.9 66.6
Q 55 68.35 56.9 68.75 58.5 69 60.35 68.45 61.85 68.1 63.2 68.05 64.85 68 66.25 67.3 67.25 66.85 67.7 65.9 68.4 64.55 69.65 63.55 70.15 63.15 70.9 63.35 71.6 63.35 72.35 63.6 73.25 63.95 74.4 64.4 74.9 64.7 75.6 64.95 76 65.1 76.5 65.1 77.3 65.05 77.9 64.75 77.9 64.55 77.9 64.35 77.8 63.5 77.05 62.9
L 77.4 64.85
Q 76.2 64.05 74.95 63.35 73.75 62.65 72.55 62 72.05 61.75 71.65 61.45 70.15 60.55 69.2 62.05 68 63.95 65.9 63.55 65.4 63.35 65 62.95 64.45 62.3 64.1 61.45 63.8 60.55 62.85 60.35 62.1 60.25 61.7 59.9 61.95 58.4 61.3 57.4
M 63.95 57
Q 64.15 56.85 64.15 56.6 64.15 56.35 63.95 56.15 63.75 56 63.45 56 63.15 56 62.95 56.15 62.75 56.35 62.75 56.6 62.75 56.85 62.95 57 63.15 57.2 63.45 57.2 63.75 57.2 63.95 57
M 77.35 59.85
Q 77.5 59.75 77.5 59.6 77.5 59.45 77.35 59.3 77.25 59.2 77.1 59.2 76.95 59.2 76.8 59.3 76.7 59.45 76.7 59.6 76.7 59.75 76.8 59.85 76.95 60 77.1 60 77.25 60 77.35 59.85
M 73.15 60.3
Q 73.3 60.15 73.3 59.95 73.3 59.75 73.15 59.6 73.05 59.45 72.9 59.45 72.75 59.45 72.6 59.6 72.5 59.75 72.5 59.95 72.5 60.15 72.6 60.3 72.75 60.45 72.9 60.45 73.05 60.45 73.15 60.3
M 74.45 57.3
L 75.4 58.25
Q 75.45 57.9 75.3 57.6 75.2 57.35 74.9 57.35 74.7 57.2 74.45 57.3
M 73.3 55.4
Q 73.3 55.25 73.15 55.1 73.05 55 72.9 55 72.75 55 72.6 55.1 72.5 55.25 72.5 55.4 72.5 55.55 72.6 55.65 72.75 55.8 72.9 55.8 73.05 55.8 73.15 55.65 73.3 55.55 73.3 55.4
M 20 49.6
L 20.6 50.5
Q 20.85 49.9 20.2 49.6 20.1 49.55 20 49.6
M 36.05 49.65
Q 36.15 49.65 36.25 49.6
L 36.45 48.4
Q 35.35 48.8 35.45 49.55 35.45 49.65 35.55 49.75 35.65 49.75 35.8 49.75 35.95 49.75 36.05 49.65
M 38 47.05
Q 38.15 46.75 38.3 46.5
L 38.1 46.05
Q 37.55 45.7 37.25 46.2
L 37.15 47.2
Q 37.6 47.75 38 47.05
M 37.85 48.3
Q 37.65 48.3 37.5 48.4 37.4 48.55 37.4 48.7 37.4 48.85 37.5 48.95 37.65 49.1 37.85 49.1 38.05 49.1 38.15 48.95 38.3 48.85 38.3 48.7 38.3 48.55 38.15 48.4 38.05 48.3 37.85 48.3
M 36.2 40.35
Q 35.65 41.65 36.5 42.7 37.05 43.4 38.15 42.9
L 38.45 41.9
Q 37.7 40.7 36.2 40.35
M 38.45 39
Q 38.45 39.15 38.6 39.3
L 39 39.65 38.65 38.6
Q 38.45 38.8 38.45 39
M 24.5 30.3
Q 24.3 30.5 24.3 30.7 24.3 30.85 24.45 31
L 24.85 31.35
Q 24.8 30.95 24.65 30.65 24.6 30.45 24.5 30.3
M 24.15 25.35
Q 24.15 25.15 24 25 23.9 24.9 23.7 24.9 23.5 24.9 23.35 25 23.25 25.15 23.25 25.35 23.25 25.55 23.35 25.65 23.5 25.8 23.7 25.8 23.9 25.8 24 25.65 24.15 25.55 24.15 25.35
M 37.7 36.25
Q 37.6 36.2 37.5 36.25
L 38.1 37.15
Q 38.25 36.55 37.7 36.25
M 38.7 31.65
Q 38.75 31.55 38.8 31.5 38.45 31.05 37.95 30.9 37.9 30.95 37.85 31.1 38.25 31.65 38.7 31.65
M 32.95 27.8
L 33.05 27.3 32.95 26.1
Q 32.8 25.95 32.6 25.9 32.4 25.75 32.2 25.7
L 29.5 26.95
Q 30.3 27.6 31.45 28.1 32.4 28.45 32.95 27.8
M 36.7 29.95
Q 37 29.85 37.35 29.75
L 34.35 26.25
Q 34.3 27.35 34.7 28.5 34.9 29.1 35.45 29.5 36 29.8 36.7 29.95
M 36.7 26.25
Q 36.7 26.05 36.55 25.9 36.45 25.8 36.25 25.8 36.05 25.8 35.9 25.9 35.8 26.05 35.8 26.25 35.8 26.45 35.9 26.55 36.05 26.7 36.25 26.7 36.45 26.7 36.55 26.55 36.7 26.45 36.7 26.25
M 15.6 44.65
Q 15.7 44 15.2 43.75 15.1 43.7 15 43.75
L 15.6 44.65
M 13.35 41.75
Q 13.25 41.9 13.25 42.05 13.25 42.2 13.35 42.3 13.5 42.45 13.7 42.45 13.9 42.45 14 42.3 14.15 42.2 14.15 42.05 14.15 41.9 14 41.75 13.9 41.65 13.7 41.65 13.5 41.65 13.35 41.75
M 12.35 42.35
Q 12.5 42.25 12.5 42.1 12.5 41.95 12.35 41.8 12.25 41.7 12.1 41.7 11.95 41.7 11.8 41.8 11.7 41.95 11.7 42.1 11.7 42.25 11.8 42.35 11.95 42.5 12.1 42.5 12.25 42.5 12.35 42.35
M 10.65 38.15
Q 10.8 38.05 10.8 37.9 10.8 37.75 10.65 37.6 10.55 37.5 10.4 37.5 10.25 37.5 10.1 37.6 10 37.75 10 37.9 10 38.05 10.1 38.15 10.25 38.3 10.4 38.3 10.55 38.3 10.65 38.15
M 13.05 37.65
Q 13.85 38.15 14.7 38.5 14.75 38.55 14.85 38.55 14.9 38 14.15 37.8 13.6 37.7 13.05 37.65
M 18.95 40.4
Q 18.35 40.75 17.9 41.2 17.7 41.45 17.6 41.7 17.75 42.2 18 42.65 18.15 42.9 18.4 43.1 20.4 43.05 20.55 40.85 20.55 40.55 20.5 40.3 19.6 40 18.95 40.4
M 18.7 42.45
Q 18.5 42.45 18.35 42.3 18.25 42.2 18.25 42.05 18.25 41.9 18.35 41.75 18.5 41.65 18.7 41.65 18.9 41.65 19 41.75 19.15 41.9 19.15 42.05 19.15 42.2 19 42.3 18.9 42.45 18.7 42.45
M 15.65 40.1
Q 15.55 40 15.4 40 15.25 40 15.1 40.1 15 40.25 15 40.4 15 40.55 15.1 40.65 15.25 40.8 15.4 40.8 15.55 40.8 15.65 40.65 15.8 40.55 15.8 40.4 15.8 40.25 15.65 40.1
M 17.1 36.25
Q 17.25 36.45 17.45 36.65 16 37.9 16.7 39.3 17 39.95 17.6 39.85 18.35 39.15 17.95 38.15 17.75 37.8 17.8 37.4 17.95 36 18.45 34.95 19.05 36.45 20.45 37.1 21.05 37.35 21.75 37.35 22.1 37.2 22.45 37.05 23.55 35.8 22.35 34.55 21.45 33.6 20.3 33.3 20.1 33.45 19.9 33.65 18.65 33.6 17.65 34.05 17.4 34.2 17.2 34.35 16.65 35.4 17.1 36.25
M 19.95 35.8
Q 19.95 35.45 20.15 35.2 20.35 34.95 20.65 34.95 20.95 34.95 21.15 35.2 21.35 35.45 21.35 35.8 21.35 36.15 21.15 36.4 20.95 36.65 20.65 36.65 20.35 36.65 20.15 36.4 19.95 36.15 19.95 35.8
M 19.15 32.1
Q 19.15 31.95 19 31.8 18.9 31.7 18.75 31.7 18.6 31.7 18.45 31.8 18.35 31.95 18.35 32.1 18.35 32.25 18.45 32.35 18.6 32.5 18.75 32.5 18.9 32.5 19 32.35 19.15 32.25 19.15 32.1
M 12.45 35.45
L 12.45 36.3
Q 13.3 36.85 14.3 36.5 14.6 36.45 14.85 36.3 13.95 35.35 12.8 35.4 12.6 35.4 12.45 35.45
M 14.9 32.9
Q 14.9 32.65 14.7 32.5 14.5 32.35 14.2 32.35 13.9 32.35 13.7 32.5 13.5 32.65 13.5 32.9 13.5 33.15 13.7 33.3 13.9 33.45 14.2 33.45 14.5 33.45 14.7 33.3 14.9 33.15 14.9 32.9
M 13.8 30.05
L 14.3 30.65 15.75 30.65 15.05 29.65
Q 14.35 29.4 13.95 29.85 13.85 29.9 13.8 30.05
M 20.1 28.1
Q 19 28.55 18.35 29.5 20.5 30.15 21.95 31.8 22.8 32.75 23.75 33.65 24.1 34.05 24.6 34.35
L 25.45 34.15 26.4 32.8
Q 25.6 33 24.1 32.7 22.65 32.35 21.95 30.95 21.45 29.9 21.65 28.65 21.8 27.5 22.35 26.5
L 19.45 25.4 20.8 27.15
Q 20.8 27.75 20.1 28.1
M 17.4 29.05
Q 17.55 28.95 17.55 28.75 17.55 28.55 17.4 28.4 17.3 28.3 17.1 28.3 16.9 28.3 16.75 28.4 16.65 28.55 16.65 28.75 16.65 28.95 16.75 29.05 16.9 29.2 17.1 29.2 17.3 29.2 17.4 29.05
M 18.3 26.2
Q 18.3 26 18.15 25.85 18.05 25.75 17.9 25.75 17.75 25.75 17.6 25.85 17.5 26 17.5 26.2 17.5 26.4 17.6 26.5 17.75 26.65 17.9 26.65 18.05 26.65 18.15 26.5 18.3 26.4 18.3 26.2
M 18.15 21.5
Q 18.3 21.4 18.3 21.25 18.3 21.1 18.15 20.95 18.05 20.85 17.9 20.85 17.75 20.85 17.6 20.95 17.5 21.1 17.5 21.25 17.5 21.4 17.6 21.5 17.75 21.65 17.9 21.65 18.05 21.65 18.15 21.5
M 29.85 24.55
Q 29.05 24.1 28.3 24.4 25.75 25.6 24.5 28 26.75 28.95 27 31.45 27.2 33.65 28.8 34.8 29.4 35.25 30.2 35.5 32.15 35.2 33.6 36.1
L 33.6 37.05
Q 31.7 38.25 29.75 37.05 27.95 35.9 25.95 35.25
L 28.95 38.75
Q 27.85 37.65 26.65 38 26.2 38.2 25.9 38.6 25.75 38.75 25.65 39 24.7 38.15 23.5 37.85 22.8 38.1 22.1 38.4
L 21.9 38.85 22.55 40.5 21.6 42.1 21.8 42.9 22.5 43.1
Q 23.8 42.6 24.75 41.5 25.85 40.2 27.7 40.3 28.35 40.5 28.7 41.1
L 28.45 41.45 25.25 42.45
Q 27.1 42.9 28.15 44.1 28.2 44.15 28.25 44.25 28.4 45.05 27.55 44.9 25.3 44.5 22.95 45.1 22.05 45.35 21.15 45.6 19.8 45.9 18.45 45.85 17.65 45.75 17.25 46.65 19.6 46.8 21.95 47 21.65 48.5 22.45 49.6 22.5 48.55 22.55 47.5
L 25.75 47.1
Q 26.8 47.7 27.4 48.7 26.9 47.55 27.65 46.25 28.25 45.15 29.45 45.15 30.2 45.9 29.65 46.9
L 28.45 46.65
Q 28.9 47.65 30.05 47.8
L 30.9 47.35
Q 31.3 46.2 30.9 45
L 32.1 45.35
Q 32.05 44.75 31.85 44.05 31.7 43.55 32.05 43.1
L 33.05 43.05
Q 34.05 44.7 33.65 46.75 33.5 47.5 33.95 47.9
L 34.85 47.6
Q 35.4 46.05 36.4 45 34.3 44.95 34.6 43 34.7 42.45 34.65 42.05 34.5 39.25 35.85 36.9 35.75 35.35 34.05 34.85 32.4 34.4 30.8 34.8 32.35 32.55 35.05 33.5 35.55 33.65 35.95 34.05 36.6 34.6 37.5 34.15 38.15 33.6 38.05 32.65 37.15 32.65 36.4 32.1 34.05 30.55 31.45 30.25 29.85 29.95 28.3 29.65 27.65 29.55 27.05 29.5
L 27.95 28.05 26.8 28.45
Q 26.5 28.3 26.25 28.05 26.15 28 26.1 27.85 26.75 26.65 27.9 26.3 29.25 25.75 29.85 24.55
M 29.45 32.05
Q 29.6 31.8 29.7 31.55 31.45 30.35 33.25 31 31.8 32.7 29.9 33.3 28.95 33.2 29.45 32.05
M 23.6 46.5
Q 23.8 46.3 24 46.15 23.95 46.5 23.8 46.85 23.75 47.05 23.65 47.2 23 46.95 23.6 46.5
M 29.15 44.1
L 30.3 39.35
Q 30.9 40.4 31.1 41.55 31.25 42.6 30.45 43.25 29.8 43.7 29.15 44.1
M 33.25 40.35
Q 32.95 40.55 32.65 40.7 32.75 39.25 34 38.85
L 34.1 39.05
Q 33.95 39.95 33.25 40.35
M 30 22.1
Q 30 21.95 29.85 21.8 29.75 21.7 29.6 21.7 29.45 21.7 29.3 21.8 29.2 21.95 29.2 22.1 29.2 22.25 29.3 22.35 29.45 22.5 29.6 22.5 29.75 22.5 29.85 22.35 30 22.25 30 22.1
M 27.4 23.1
Q 27.55 23 27.55 22.85 27.55 22.7 27.4 22.55 27.3 22.45 27.1 22.45 26.9 22.45 26.75 22.55 26.65 22.7 26.65 22.85 26.65 23 26.75 23.1 26.9 23.25 27.1 23.25 27.3 23.25 27.4 23.1
M 26.7 21.25
Q 26.7 21.05 26.55 20.9 26.45 20.8 26.25 20.8 26.05 20.8 25.9 20.9 25.8 21.05 25.8 21.25 25.8 21.45 25.9 21.55 26.05 21.7 26.25 21.7 26.45 21.7 26.55 21.55 26.7 21.45 26.7 21.25
M 24.9 23.95
Q 25.05 23.85 25.05 23.7 25.05 23.55 24.9 23.4 24.8 23.3 24.6 23.3 24.4 23.3 24.25 23.4 24.15 23.55 24.15 23.7 24.15 23.85 24.25 23.95 24.4 24.1 24.6 24.1 24.8 24.1 24.9 23.95
M 72.4 41.5
Q 72.55 41.4 72.55 41.2 72.55 41 72.4 40.85 72.3 40.75 72.1 40.75 71.9 40.75 71.75 40.85 71.65 41 71.65 41.2 71.65 41.4 71.75 41.5 71.9 41.65 72.1 41.65 72.3 41.65 72.4 41.5
M 71.5 38.95
Q 71.65 38.85 71.65 38.65 71.65 38.45 71.5 38.3 71.4 38.2 71.25 38.2 71.1 38.2 70.95 38.3 70.85 38.45 70.85 38.65 70.85 38.85 70.95 38.95 71.1 39.1 71.25 39.1 71.4 39.1 71.5 38.95
M 75.8 37.85
Q 75.8 37.7 75.65 37.55 75.55 37.45 75.35 37.45 75.15 37.45 75 37.55 74.9 37.7 74.9 37.85 74.9 38 75 38.1 75.15 38.25 75.35 38.25 75.55 38.25 75.65 38.1 75.8 38 75.8 37.85
M 78.25 38.65
Q 78.25 38.45 78.1 38.3 78 38.2 77.85 38.2 77.7 38.2 77.55 38.3 77.45 38.45 77.45 38.65 77.45 38.85 77.55 38.95 77.7 39.1 77.85 39.1 78 39.1 78.1 38.95 78.25 38.85 78.25 38.65
M 68.15 44
Q 68.3 43.9 68.3 43.75 68.3 43.6 68.15 43.45 68.05 43.35 67.9 43.35 67.75 43.35 67.6 43.45 67.5 43.6 67.5 43.75 67.5 43.9 67.6 44 67.75 44.15 67.9 44.15 68.05 44.15 68.15 44
M 64.05 43.1
Q 64.2 43 64.2 42.85 64.2 42.7 64.05 42.55 63.95 42.45 63.75 42.45 63.55 42.45 63.4 42.55 63.3 42.7 63.3 42.85 63.3 43 63.4 43.1 63.55 43.25 63.75 43.25 63.95 43.25 64.05 43.1
M 61.55 40.05
Q 61.45 39.95 61.25 39.95 61.05 39.95 60.9 40.05 60.8 40.2 60.8 40.4 60.8 40.6 60.9 40.7 61.05 40.85 61.25 40.85 61.45 40.85 61.55 40.7 61.7 40.6 61.7 40.4 61.7 40.2 61.55 40.05
M 65.5 38.45
Q 64.5 38.35 64.8 39.15
L 64.9 39.15
Q 65.25 39.05 65.5 38.65 65.55 38.55 65.5 38.45
M 69 39.85
Q 69.15 39.75 69.15 39.6 69.15 39.45 69 39.3 68.9 39.2 68.75 39.2 68.6 39.2 68.45 39.3 68.35 39.45 68.35 39.6 68.35 39.75 68.45 39.85 68.6 40 68.75 40 68.9 40 69 39.85
M 67.85 33.2
Q 68.1 33.2 68.25 33 68.4 32.8 68.4 32.5 68.4 32.2 68.25 32 68.1 31.8 67.85 31.8 67.6 31.8 67.45 32 67.3 32.2 67.3 32.5 67.3 32.8 67.45 33 67.6 33.2 67.85 33.2
M 70.8 32.85
Q 70.8 32.65 70.65 32.5 70.55 32.4 70.4 32.4 70.25 32.4 70.1 32.5 70 32.65 70 32.85 70 33.05 70.1 33.15 70.25 33.3 70.4 33.3 70.55 33.3 70.65 33.15 70.8 33.05 70.8 32.85
M 64.05 36.55
Q 64.2 36.45 64.2 36.25 64.2 36.05 64.05 35.9 63.95 35.8 63.75 35.8 63.55 35.8 63.4 35.9 63.3 36.05 63.3 36.25 63.3 36.45 63.4 36.55 63.55 36.7 63.75 36.7 63.95 36.7 64.05 36.55
M 65 34.6
Q 65 34.45 64.85 34.3 64.75 34.2 64.6 34.2 64.45 34.2 64.3 34.3 64.2 34.45 64.2 34.6 64.2 34.75 64.3 34.85 64.45 35 64.6 35 64.75 35 64.85 34.85 65 34.75 65 34.6
M 62.45 34.55
Q 62.35 34.4 62.15 34.4 61.95 34.4 61.8 34.55 61.7 34.7 61.7 34.95 61.7 35.2 61.8 35.35 61.95 35.5 62.15 35.5 62.35 35.5 62.45 35.35 62.6 35.2 62.6 34.95 62.6 34.7 62.45 34.55
M 63.9 29.9
L 63.9 30.5
Q 63.45 31.45 62.45 31.4 61.7 31.2 60.95 31.15 60.2 31 59.4 31.05 60.05 32.05 61.2 32.15 63.05 32.3 64.8 32.75 65.7 32.85 66.15 32.35 66.65 31.45 66.15 30.7 65.45 29.6 64.9 28.55 64.75 28.3 64.7 28.05 64.4 26.25 63.4 25.05 62.9 27 63.45 28.95 63.6 29.4 63.9 29.9
M 64.6 30.75
Q 64.8 30.75 64.9 30.85 65.05 31 65.05 31.2 65.05 31.4 64.9 31.5 64.8 31.65 64.6 31.65 64.4 31.65 64.25 31.5 64.15 31.4 64.15 31.2 64.15 31 64.25 30.85 64.4 30.75 64.6 30.75
M 69.85 29.7
Q 69.15 29.45 68.45 29.4
L 70.7 30.7 70.5 30.05
Q 70.2 29.75 69.85 29.7
M 67.1 27.45
Q 66.9 27.45 66.75 27.55 66.65 27.7 66.65 27.9 66.65 28.1 66.75 28.2 66.9 28.35 67.1 28.35 67.3 28.35 67.4 28.2 67.55 28.1 67.55 27.9 67.55 27.7 67.4 27.55 67.3 27.45 67.1 27.45
M 69 27.35
Q 69.15 27.25 69.15 27.1 69.15 26.95 69 26.8 68.9 26.7 68.75 26.7 68.6 26.7 68.45 26.8 68.35 26.95 68.35 27.1 68.35 27.25 68.45 27.35 68.6 27.5 68.75 27.5 68.9 27.5 69 27.35
M 79.9 35.65
Q 80.05 35.55 80.05 35.35 80.05 35.15 79.9 35 79.8 34.9 79.6 34.9 79.4 34.9 79.25 35 79.15 35.15 79.15 35.35 79.15 35.55 79.25 35.65 79.4 35.8 79.6 35.8 79.8 35.8 79.9 35.65
M 80.65 33.95
Q 80.8 33.85 80.8 33.7 80.8 33.55 80.65 33.4 80.55 33.3 80.35 33.3 80.15 33.3 80 33.4 79.9 33.55 79.9 33.7 79.9 33.85 80 33.95 80.15 34.1 80.35 34.1 80.55 34.1 80.65 33.95
M 75.8 35.35
Q 75.8 35.5 75.9 35.6 76.05 35.75 76.25 35.75 76.45 35.75 76.55 35.6 76.7 35.5 76.7 35.35 76.7 35.2 76.55 35.05 76.45 34.95 76.25 34.95 76.05 34.95 75.9 35.05 75.8 35.2 75.8 35.35
M 74.05 36.55
Q 74.2 36.45 74.2 36.25 74.2 36.05 74.05 35.9 73.95 35.8 73.75 35.8 73.55 35.8 73.4 35.9 73.3 36.05 73.3 36.25 73.3 36.45 73.4 36.55 73.55 36.7 73.75 36.7 73.95 36.7 74.05 36.55
M 72.4 35.65
Q 72.55 35.55 72.55 35.35 72.55 35.15 72.4 35 72.3 34.9 72.1 34.9 71.9 34.9 71.75 35 71.65 35.15 71.65 35.35 71.65 35.55 71.75 35.65 71.9 35.8 72.1 35.8 72.3 35.8 72.4 35.65
M 75.9 32.55
Q 75.8 32.7 75.8 32.85 75.8 33 75.9 33.1 76.05 33.25 76.25 33.25 76.45 33.25 76.55 33.1 76.7 33 76.7 32.85 76.7 32.7 76.55 32.55 76.45 32.45 76.25 32.45 76.05 32.45 75.9 32.55
M 74.65 34
Q 74.2 33.55 73.8 33.35 73.75 33.45 73.7 33.6 73.95 34.05 74.55 34.05 74.6 34.05 74.65 34
M 75.6 29.8
Q 75.75 29.7 75.75 29.55 75.75 29.4 75.6 29.25 75.5 29.15 75.35 29.15 75.2 29.15 75.05 29.25 74.95 29.4 74.95 29.55 74.95 29.7 75.05 29.8 75.2 29.95 75.35 29.95 75.5 29.95 75.6 29.8
M 72.4 29
Q 72.55 28.9 72.55 28.7 72.55 28.5 72.4 28.35 72.3 28.25 72.1 28.25 71.9 28.25 71.75 28.35 71.65 28.5 71.65 28.7 71.65 28.9 71.75 29 71.9 29.15 72.1 29.15 72.3 29.15 72.4 29
M 72.35 26.45
Q 72.5 26.35 72.5 26.15 72.5 25.95 72.35 25.8 72.25 25.7 72.1 25.7 71.95 25.7 71.8 25.8 71.7 25.95 71.7 26.15 71.7 26.35 71.8 26.45 71.95 26.6 72.1 26.6 72.25 26.6 72.35 26.45
M 54.3 38.05
L 53.95 37.8
Q 54.2 38.4 54.2 39 54.2 39.1 54.4 39.25
L 54.3 38.05
M 59.45 42.65
L 59.85 43 59.5 41.95
Q 59.3 42.15 59.3 42.35 59.3 42.5 59.45 42.65
M 57.05 40.8
Q 57.1 40.7 57.15 40.65 56.75 40.35 56.25 40.1
L 56.2 40.25
Q 56.45 40.85 57.05 40.8
M 57.15 38.1
Q 57.4 37.9 57.4 37.65 57.4 37.4 57.15 37.2 56.95 37 56.6 37 56.25 37 56 37.2 55.8 37.4 55.8 37.65 55.8 37.9 56 38.1 56.25 38.3 56.6 38.3 56.95 38.3 57.15 38.1
M 58.65 38
L 59 39.15
Q 61 40.3 62.65 39.2 62.95 39 63.2 38.7 63.3 38.05 63.2 37.6 63.1 37.2 62.95 36.9 62.05 36.15 60.9 36.25 59 36.1 58.65 38
M 40.55 47.05
Q 41.2 47.95 41.8 47.2 42.2 46.85 41.95 46.5 41.6 46.05 41.25 45.7
L 40.4 46.05
Q 40.2 46.5 40.55 47.05
M 44 42.35
Q 44.15 42.25 44.15 42.1 44.15 41.95 44 41.8 43.9 41.7 43.75 41.7 43.6 41.7 43.45 41.8 43.35 41.95 43.35 42.1 43.35 42.25 43.45 42.35 43.6 42.5 43.75 42.5 43.9 42.5 44 42.35
M 40.6 40.6
Q 40.75 40.5 40.75 40.3 40.75 40.1 40.6 39.95 40.5 39.85 40.35 39.85 40.2 39.85 40.05 39.95 39.95 40.1 39.95 40.3 39.95 40.5 40.05 40.6 40.2 40.75 40.35 40.75 40.5 40.75 40.6 40.6
M 42.55 41.25
Q 42.55 41.05 42.4 40.9 42.3 40.8 42.1 40.8 41.9 40.8 41.75 40.9 41.65 41.05 41.65 41.25 41.65 41.45 41.75 41.55 41.9 41.7 42.1 41.7 42.3 41.7 42.4 41.55 42.55 41.45 42.55 41.25
M 40.65 38.15
Q 40.8 38.05 40.8 37.9 40.8 37.75 40.65 37.6 40.55 37.5 40.4 37.5 40.25 37.5 40.1 37.6 40 37.75 40 37.9 40 38.05 40.1 38.15 40.25 38.3 40.4 38.3 40.55 38.3 40.65 38.15
M 40.6 34.8
Q 40.75 34.7 40.75 34.55 40.75 34.4 40.6 34.25 40.5 34.15 40.35 34.15 40.2 34.15 40.05 34.25 39.95 34.4 39.95 34.55 39.95 34.7 40.05 34.8 40.2 34.95 40.35 34.95 40.5 34.95 40.6 34.8
M 43.1 35.4
Q 42.15 35.2 41.95 36.55 41.9 36.95 41.8 37.35 43.2 36.9 43.1 35.4
M 54.05 36.45
Q 54.2 36.35 54.2 36.2 54.2 36.05 54.05 35.9 53.95 35.8 53.75 35.8 53.55 35.8 53.4 35.9 53.3 36.05 53.3 36.2 53.3 36.35 53.4 36.45 53.55 36.6 53.75 36.6 53.95 36.6 54.05 36.45
M 52.85 32.7
Q 51.55 32.65 51.35 33.85 51.75 34.5 52.4 34.5 54.694140625 34.536328125 56.95 34.9 56.853515625 34.946484375 56.75 35 56.65 35.15 56.65 35.35 56.65 35.55 56.75 35.65 56.9 35.8 57.1 35.8 57.3 35.8 57.4 35.65 57.55 35.55 57.55 35.35 57.55 35.15 57.4 35
L 57.4 35
Q 58.02734375 35.109375 58.65 35.25 59.75 35.35 59.85 34.45 59.9 33.65 59.15 33.3 57.75 32.65 56.1 32.95 54.55 32.8 52.85 32.7
M 51.75 31.05
Q 52.15 31.35 52.7 31.45 52.9 31.55 53.15 31.55 52.55 29.6 50.65 28.65 50.35 28.55 50.1 28.5 50.5 29.3 50.9 29.95 51.25 30.55 51.75 31.05
M 52.45 28.45
Q 52.45 28.75 52.7 28.95 52.95 29.15 53.3 29.15 53.65 29.15 53.9 28.95 54.15 28.75 54.15 28.45 54.15 28.15 53.9 27.95 53.65 27.75 53.3 27.75 52.95 27.75 52.7 27.95 52.45 28.15 52.45 28.45
M 52.15 25.65
Q 51.75 25.35 51.25 25.1
L 51.2 25.25
Q 51.45 25.75 52.05 25.8 52.1 25.7 52.15 25.65
M 60 28.25
Q 60.3 28.05 60.55 27.8 59.9 27.05 58.85 27.25 57.05 27.45 55.8 28.7 54.95 29.55 55 30.55 55.3 31.25 56.1 31.3 56.7 31.3 57.35 31.35
L 55.95 29.15
Q 57.7 29.55 59.15 28.75 59.55 28.5 60 28.25
M 57.4 23.35
Q 59.2 22.35 59.75 20.4 57.2 20.4 56.4 22.5 56.35 22.6 56.4 22.8 56.45 22.9 56.5 23 56.55 23.1 56.7 23.1 56.75 23.2 56.85 23.3 57.1 23.3 57.4 23.35
M 53.75 23.85
L 53.35 24.5
Q 54.3 25.25 54.25 26.4 54.25 26.9 54.2 27.4 54.4 27.3 54.55 27.2 54.7 27.1 54.85 26.95 55.35 26.3 55.4 25.45 55.5 24.45 54.65 23.8
L 53.75 23.85
M 55.05 21.25
Q 55.05 21.05 54.9 20.9 54.8 20.8 54.6 20.8 54.4 20.8 54.25 20.9 54.15 21.05 54.15 21.25 54.15 21.45 54.25 21.55 54.4 21.7 54.6 21.7 54.8 21.7 54.9 21.55 55.05 21.45 55.05 21.25
M 69.05 24.05
Q 69.2 23.95 69.2 23.75 69.2 23.55 69.05 23.4 68.95 23.3 68.75 23.3 68.55 23.3 68.4 23.4 68.3 23.55 68.3 23.75 68.3 23.95 68.4 24.05 68.55 24.2 68.75 24.2 68.95 24.2 69.05 24.05
M 68.3 20.4
Q 68.3 20.25 68.15 20.1 68.05 20 67.9 20 67.75 20 67.6 20.1 67.5 20.25 67.5 20.4 67.5 20.55 67.6 20.65 67.75 20.8 67.9 20.8 68.05 20.8 68.15 20.65 68.3 20.55 68.3 20.4
M 62.05 23.15
Q 61.6 23.35 61.15 23.5 60.15 23.65 59.15 23.8
L 58.3 23.8
Q 57.35 25.15 58.75 26 58.9 26.05 59.1 26.15 62.15 26.05 64.1 23.75 64 23.45 63.85 23.25 63.75 23 63.6 22.9 62.85 22.85 62.05 23.15
M 61.2 20.8
Q 61.55 21.9 62.3 21.4 62.7 20.7 61.9 20.25 61.8 20.15 61.7 20.1 61.1 20.35 61.2 20.8
M 65.55 19.8
Q 65.65 19.7 65.65 19.55 65.65 19.4 65.55 19.25 65.45 19.15 65.35 19.15 65.25 19.15 65.15 19.25 65.05 19.4 65.05 19.55 65.05 19.7 65.15 19.8 65.25 19.95 65.35 19.95 65.45 19.95 65.55 19.8
M 87.65 69
Q 87.5 69 87.35 69 86.3 69.5 86.05 70.65 86.05 70.7 86.1 70.85
L 87.05 70.95
Q 87.35 70.6 87.6 70.2 87.85 69.9 88.05 69.55 88 69.4 87.9 69.3 87.8 69.1 87.65 69
M 84.85 72.25
Q 84.95 72.15 84.95 72 84.95 71.85 84.85 71.7 84.75 71.6 84.6 71.6 84.45 71.6 84.35 71.7 84.25 71.85 84.25 72 84.25 72.15 84.35 72.25 84.45 72.4 84.6 72.4 84.75 72.4 84.85 72.25
M 81 73
Q 82 72.6 82.3 71.65 82.65 70.35 82.9 69 82.6 67.55 80.85 67.4 79.2 67.25 78.6 68.8
L 80.1 68.55 80.85 68.9
Q 81.45 70.25 80.5 71.4 80.25 71.75 79.85 71.8 79.25 72.05 78.6 72.1
L 79.6 70.05
Q 78.25 69.9 77.5 71 77.05 71.6 76.45 72.1 75.85 72.6 75.15 73 74.85 73.2 74.55 73.3 74.5 72.25 73.7 71.65 73.4 71.4 73.05 71.25 72.8 71.2 72.6 71.15
L 72.15 70.45 72.45 70.1
Q 74.25 69.6 75.8 70 76.5 70 76.7 69.3 76.7 68.75 76.25 68.5 75.35 68.1 74.85 67.7 74.75 67.6 74.7 67.5 74.25 67.65 73.8 67.85 73 68.3 72.2 68.7 70.05 69.75 68.2 68.3 67.85 69.85 68.7 71 69.65 72.2 71.15 71.9 71.25 73.7 69.8 74.55 69.4 74.75 68.9 74.8 69.05 73.1 67.9 72 66.65 70.85 65.1 70.8 63.95 70.75 63.55 71.85
L 63.8 72.35
Q 64.05 72.45 64.3 72.65 64.9 72.65 65.5 72.7 64.3 73.15 63.8 74.25
L 64.15 74.85
Q 64.8 75 65.7 74.65 66.1 74.45 66.5 74.3
L 66.55 75.05 68.95 76.1 67.45 77.4
Q 68.35 77.2 69.25 77 72.1 76.4 72.7 73.55 74.3 74.3 76 74.15 78.6 73.9 81 73
M 85 69.95
Q 85 69.6 84.8 69.35 84.6 69.1 84.3 69.1 84 69.1 83.8 69.35 83.6 69.6 83.6 69.95 83.6 70.3 83.8 70.55 84 70.8 84.3 70.8 84.6 70.8 84.8 70.55 85 70.3 85 69.95
M 85.4 66.2
Q 85.4 65.95 85.25 65.8 84.35 66.7 84.05 67.8 84.05 67.85 84.1 67.95
L 84.95 67.9
Q 85.45 67 85.4 66.2
M 83.3 65.35
Q 83.3 65.55 83.4 65.65 83.55 65.8 83.75 65.8 83.95 65.8 84.05 65.65 84.2 65.55 84.2 65.35 84.2 65.15 84.05 65 83.95 64.9 83.75 64.9 83.55 64.9 83.4 65 83.3 65.15 83.3 65.35
M 82.35 64.85
Q 82.5 64.75 82.5 64.6 82.5 64.45 82.35 64.3 82.25 64.2 82.1 64.2 81.95 64.2 81.8 64.3 81.7 64.45 81.7 64.6 81.7 64.75 81.8 64.85 81.95 65 82.1 65 82.25 65 82.35 64.85
M 86.5 64.8
Q 86.65 64.7 86.65 64.55 86.65 64.4 86.5 64.25 86.4 64.15 86.2 64.15 86 64.15 85.85 64.25 85.75 64.4 85.75 64.55 85.75 64.7 85.85 64.8 86 64.95 86.2 64.95 86.4 64.95 86.5 64.8
M 89.9 63.1
Q 90.05 63 90.05 62.85 90.05 62.7 89.9 62.55 89.8 62.45 89.6 62.45 89.4 62.45 89.25 62.55 89.15 62.7 89.15 62.85 89.15 63 89.25 63.1 89.4 63.25 89.6 63.25 89.8 63.25 89.9 63.1
M 84 60.6
Q 84.15 60.5 84.15 60.3 84.15 60.1 84 59.95 83.9 59.85 83.75 59.85 83.6 59.85 83.45 59.95 83.35 60.1 83.35 60.3 83.35 60.5 83.45 60.6 83.6 60.75 83.75 60.75 83.9 60.75 84 60.6
M 89.6 29.2
Q 89.45 29.2 89.3 29.3 89.2 29.45 89.2 29.6 89.2 29.75 89.3 29.85 89.45 30 89.6 30 89.75 30 89.85 29.85 90 29.75 90 29.6 90 29.45 89.85 29.3 89.75 29.2 89.6 29.2
M 89.2 26.95
Q 89.1 27.2 89.1 27.5 89.1 27.8 89.2 28 89.35 28.25 89.55 28.25 89.75 28.25 89.85 28 90 27.8 90 27.5 90 27.2 89.85 26.95 89.75 26.75 89.55 26.75 89.35 26.75 89.2 26.95 Z"/>
</g>
</defs>

<g transform="matrix( 1, 0, 0, 1, 2.75,1.5) ">
<use xlink:href="#Layer1_0_FILL"/>
</g>
</svg>
