
<svg xmlns="http://www.w3.org/2000/svg" version="1.1" xmlns:xlink="http://www.w3.org/1999/xlink" preserveAspectRatio="none" x="0px" y="0px" width="100px" height="100px" viewBox="0 0 100 100">
<defs>
<g id="Layer1_0_FILL">
<path fill="#000000" stroke="none" d="
M 42.25 80.05
Q 42.6423828125 80.2583984375 42.55 79.75 42.5 79.6 42.35 79.5
L 42.25 80.05
M 46 78.15
Q 46.15 78.05 46.15 77.9 46.15 77.75 46 77.6 45.9 77.5 45.7 77.5 45.5 77.5 45.35 77.6 45.25 77.75 45.25 77.9 45.25 78.05 45.35 78.15 45.5 78.3 45.7 78.3 45.9 78.3 46 78.15
M 47 76.2
Q 47 76 46.85 75.85 46.75 75.75 46.6 75.75 46.45 75.75 46.3 75.85 46.2 76 46.2 76.2 46.2 76.4 46.3 76.5 46.45 76.65 46.6 76.65 46.75 76.65 46.85 76.5 47 76.4 47 76.2
M 51.7 80.5
Q 51.75 80.7 51.8 81 52.05 80.1 52.3 79.2 51.45 79.5 51.7 80.5
M 57.9 75.95
Q 58.05 75.8 58.2 75.6
L 58.9 76.8 58.5 74.75
Q 58.35 74.6 58.2 74.5 57.75 74.35 57.3 74.2 57.1 74.25 56.9 74.3
L 56.05 76 54.7 76.45
Q 56.35 77.2 57.9 75.95
M 57.2 77.1
Q 57.15 77.05 57.05 77.1 57.65 77.75 57.2 77.1
M 55.75 78.55
Q 56.35 78.6 57 78.65
L 53.2 76.9 52.6 76.3 51.85 77.65 50.75 78 50.4 79.1 51.1 79.15
Q 52.15 77.95 53.8 78.15 54.75 78.45 55.75 78.55
M 58.5 73.35
L 58.9 73.45
Q 58.95 72.8 58.45 72.5 58.4 72.45 58.35 72.5 58.3 72.75 58.35 73 58.35 73.2 58.5 73.35
M 56.2 73.6
L 56.5 73.2
Q 56.7 72.55 56.35 73.2 56.25 73.35 56.2 73.6
M 55.2 70.45
Q 55.2 70.9 55.55 71.25 55.6 71.3 55.7 71.35 56.2 71.4 56.2 70.9 56.2 70.65 56.2 70.45
L 55.2 70.45
M 53.55 73.65
Q 54.25 73.6 53.65 73.05 53.2 72.7 52.3 73
L 53.55 73.65
M 55.3 73.8
Q 55.2 73.95 55.2 74.15 55.2 74.35 55.3 74.45 55.4 74.6 55.5 74.6 55.6 74.6 55.7 74.45 55.8 74.35 55.8 74.15 55.8 73.95 55.7 73.8 55.6 73.7 55.5 73.7 55.4 73.7 55.3 73.8
M 52.5 70.55
Q 52.6 70.45 52.6 70.3 52.6 70.15 52.5 70.05 52.45 69.95 52.35 69.95 52.25 69.95 52.15 70.05 52.1 70.15 52.1 70.3 52.1 70.45 52.15 70.55 52.25 70.65 52.35 70.65 52.45 70.65 52.5 70.55
M 55.5 68.5
Q 55.2 68.9 55.2 69.45
L 56.3 69.1
Q 56.25 68.9 56.25 68.75 56.2 68.35 55.7 68.45 55.55 68.45 55.5 68.5
M 54.2 69.45
L 54.95 69.2 54.85 68.6
Q 54.55 68.7 54.4 68.9 54.25 69.1 54.2 69.45
M 52.2 65.1
L 52.4 65.3 52.6 65.1 52.2 65.1
M 51.7 65.4
Q 51.85 66.15 52.5 65.85 52.2 65.55 51.8 65.35 51.75 65.3 51.7 65.4
M 56.15 67.55
Q 55.9 67.55 55.7 67.65 55.55 67.75 55.55 67.9 55.55 68.05 55.7 68.15 55.9 68.25 56.15 68.25 56.4 68.25 56.55 68.15 56.75 68.05 56.75 67.9 56.75 67.75 56.55 67.65 56.4 67.55 56.15 67.55
M 56.7 66.15
Q 56.55 66.15 56.4 66.25 56.3 66.4 56.3 66.6 56.3 66.8 56.4 66.9 56.55 67.05 56.7 67.05 56.85 67.05 56.95 66.9 57.1 66.8 57.1 66.6 57.1 66.4 56.95 66.25 56.85 66.15 56.7 66.15
M 57.7 64.25
L 57.15 64.2 56.05 65.1 55.45 64.75 55.3 65.25
Q 55.3 65.8 55.85 65.8 56 65.75 56.2 65.7
L 56.6 65.4 57.75 65.5
Q 57.95 65.35 57.95 65.2 57.9 64.7 57.7 64.25
M 59.9 62.6
Q 60.05 62.5 60.05 62.35 60.05 62.2 59.9 62.05 59.8 61.95 59.65 61.95 59.5 61.95 59.35 62.05 59.25 62.2 59.25 62.35 59.25 62.5 59.35 62.6 59.5 62.75 59.65 62.75 59.8 62.75 59.9 62.6
M 48.15 65
L 48.3 65.4 48.45 65 48.15 65
M 46.5 66.95
Q 47.55 66.3 47 65.3 46.4 65.8 45.85 66.45 45.8 66.5 45.85 66.6
L 46.5 66.95
M 43.2 61.5
Q 43.159375 62.1765625 43.45 61.45 43.5 61.35 43.2 61.5
M 55.8 55.45
L 55.25 55.45 55.25 55.95 55.8 55.95 55.8 55.45
M 61.4 61.95
Q 61.4 61.9 61.5 61.85 61.2 61.05 61.4 61.95
M 77.05 68.3
L 78 68.3 77.2 67.4
Q 76.45 67.3 76.85 68.15 76.9 68.2 77.05 68.3
M 74.3 70.3
Q 74.35 70.45 74.6 70.5 74.4 70.1 74.25 70.2 74.15 70.15 74.3 70.3
M 72.1 68.6
L 71.35 69
Q 71.15 68.35 70.95 67.7
L 69.3 69.7
Q 70.7 70.35 72.1 69.8 72.45 69.65 72.8 69.5
L 72.1 68.6
M 74.2 66.45
Q 74.2 67.15 74.3 66.55 74.3 66.5 74.2 66.45
M 72.85 68.5
L 73 68.95 74.1 68.95 73.85 67.9 72.85 68.5
M 74.7 67.75
Q 73.85 67.65 73.85 67.9
L 75.05 68.05
Q 75.4 67.7 75.8 67.4 75.25 67.55 74.7 67.75
M 77.3 66.3
L 77.1 65.7
Q 76.15 64.9 75.1 65.1 75.95 66.1 77.3 66.3
M 70.55 71.25
Q 71.05 71.5 70.45 71.1 69.8 70.85 70.55 71.25
M 64.65 56.2
Q 64.65 56.3 64.75 56.4
L 65.2 55.45
Q 64.55 55.7 64.65 56.2
M 62.35 57.6
Q 62.35 57.55 62.25 57.45 62.1 58.15 62.35 57.6
M 61.75 59.8
L 61.85 59.75
Q 61.25 59.2 61.75 59.8
M 62.65 54.9
L 62.1 54.5
Q 60.9 54.85 59.95 55.85 59.65 56.1 59.2 56.05 58.55 55.9 57.8 56.15
L 57.2 57.7
Q 57.95 57.3 58.65 57.6 58.75 57.6 58.8 57.8 58.55 58.3 57.7 58.1 56.35 57.7 55.05 58.35 54.55 59.4 54.9 60.5
L 56.1 59.65 56.05 62.1 55.4 62.85
Q 54.2 63.05 53.2 62.25
L 54.6 64.45 53.3 64.65 52.6 63.9 51.7 63.65
Q 52.55 64.9 54.05 64.9 54.85 64.9 55.45 64.45
L 55.85 63.65 56.85 63.35 58.7 63.85 57.65 60.7
Q 59 60.75 59.45 59.5
L 60.6 61.1 62.1 57.8 61.55 57.8
Q 61.45 56.8 62.05 56.15 62.45 55.75 62.6 55.25 62.65 55.05 62.65 54.9
M 66.9 49.55
Q 66.75 49.55 66.6 49.6
L 67.7 51 67.8 50.5
Q 67.65 50.2 67.45 50 67.2 49.7 66.9 49.55
M 70.8 51.6
Q 70.6 51.3 70.4 51.05 69.75 51.3 70.2 51.95 70.4 52 70.6 52.1 71.1 52.05 70.8 51.6
M 69.6 51.5
L 68.6 51.25
Q 68.5 51.3 68.5 51.4 68.5 51.6 68.55 51.8 68.6 52.05 68.65 52.3 68.25 52.2 67.9 52.05 67.05 51.5 66.25 50.65
L 64.15 50.65
Q 64 50.6 63.9 50.6 63.75 50.5 63.65 50.4 63.5 50.15 63.35 49.95 63.25 49.8 63.2 49.7
L 61.8 49.2 62.85 50.5
Q 61.75 50.95 60.6 50.7 60.1419921875 50.523828125 59.65 50.45 59.75703125 50.5 59.3 50.7 59.15 50.8 59.2 50.45 59.4048828125 50.4271484375 59.5 50.4 59.3875 50.4099609375 59.25 50.4 58.3 50.65 57.35 50.9
L 58.65 51.2
Q 58.2 51.6 58.1 52.25 57.95 53.7 59.35 54.2 59.75 54.1 60.1 53.95 60.5 53.8 60.8 53.55 61.3 53 61.8 52.45
L 59.55 52.9
Q 59.45 52.8 59.4 52.7 59.25 52.6 59.25 52.45 59.25 52.3 59.3 52.15 59.45 51.95 59.6 51.8 60.3 51.3 61.25 51.1 61.35 51.05 61.5 51.05 61.65 51.2 61.75 51.4 62.2 52.6 63.1 53.6 63.3 53.85 63.4 54.2 63.45 54.35 63.55 54.55 63.9 54.05 64.15 53.55 65 51.8 66.95 51.85
L 66.3 52.95 64.95 52.95 67 54.9 67.2 55.6 67.8 55.15 67.05 53.95 68.8 53.95 68.15 54.85 68.75 54.5
Q 69 54.5 69.25 54.5 70.05 54.75 70.9 55 70.8 54.75 70.65 54.55 70.1 53.8 69.3 53.3
L 71 53.2 69.6 51.5
M 71.2 51.45
L 71.4 51.95 71.6 51.45 71.2 51.45
M 72.55 49.75
Q 72.6 49.85 72.8 49.9 72.25 49.25 72.55 49.75
M 74.1 50.2
Q 74.2 50.1 74.2 49.95 74.2 49.8 74.1 49.7 74 49.6 73.85 49.6 73.7 49.6 73.6 49.7 73.5 49.8 73.5 49.95 73.5 50.1 73.6 50.2 73.7 50.3 73.85 50.3 74 50.3 74.1 50.2
M 75.65 50.75
L 75.65 50.3
Q 75.2 50.3 75.2 51.45
L 74.85 51.1 74.25 52
Q 74.4 51.9 74.55 51.75 75.3 51.35 75.95 51.4
L 75.65 50.75
M 80.1 53.4
Q 80.45 53.85 80.35 52.85 80.3 52.65 80.25 52.5 80.15 52.95 80.1 53.4
M 80.4 50.8
Q 80.4 50.75 80.5 50.7 80.25 49.8 80.4 50.8
M 76 53.7
L 76.15 53.95 76.6 53.8
Q 76.45 53.7 76 53.7
M 26.55 76.8
Q 26.2 76.7 25.9 76.6 26.1 77.2 26.35 77.75 26.35 77.8 26.45 77.85 26.55 77.8 26.6 77.75 27 77.55 26.75 77.05 26.65 76.9 26.55 76.8
M 27.95 75.3
Q 27.9 75.2 27.9 75.1 27.4 75.7 28 76 28 76.05 28.1 76.05 28.35 75.75 27.95 75.3
M 35.2 76.05
Q 35.35 75.95 35.35 75.75 35.35 75.55 35.2 75.4 35.05 75.3 34.85 75.3 34.65 75.3 34.5 75.4 34.35 75.55 34.35 75.75 34.35 75.95 34.5 76.05 34.65 76.2 34.85 76.2 35.05 76.2 35.2 76.05
M 15 62.15
Q 15 62.2 15.05 62.25 15.1 62.35 15.2 62.45 15.2 61.65 15 62.15
M 13.7 62
L 11.3 62.2
Q 11.95 63.25 13.05 62.5 13.35 62.25 13.7 62
M 14.45 65.7
L 13.7 64.9
Q 12.95 65.4 13.9 65.7 14.15 65.7 14.45 65.7
M 16.55 64.15
Q 16.7 63.95 16.7 63.7
L 14.7 63
Q 14.95 63.85 15.8 64.4 15.95 64.45 16.15 64.5 16.4 64.35 16.55 64.15
M 18.85 63.3
Q 18.75 63.2 18.6 63.2 18.45 63.2 18.3 63.3 18.2 63.45 18.2 63.65 18.2 63.85 18.3 63.95 18.45 64.1 18.6 64.1 18.75 64.1 18.85 63.95 19 63.85 19 63.65 19 63.45 18.85 63.3
M 6.15 51.45
L 6.35 51.85 6.55 51.45 6.15 51.45
M 5.1 51.4
L 5.1 51.45
Q 5.85 50.9 5.1 51.4
M 11.75 61.4
Q 11.9 61.3 11.9 61.1 11.9 60.9 11.75 60.75 11.65 60.65 11.5 60.65 11.35 60.65 11.2 60.75 11.1 60.9 11.1 61.1 11.1 61.3 11.2 61.4 11.35 61.55 11.5 61.55 11.65 61.55 11.75 61.4
M 13.9 57.4
Q 13.55 56.5 12.7 56.25 12.55 56.4 12.4 56.6
L 13.9 57.4
M 13.2 58.45
Q 13.05 58.45 12.95 58.5 12.35 59 13.1 59.65 13.7 60.2 13.4 61.1
L 13 61.45
Q 14.15 61.4 15.3 61.15 15.65 61.1 15.95 60.85 16.4 59.55 15.1 59 14.15 58.65 13.2 58.45
M 11.05 49.7
L 11 49.6
Q 10.45 49.25 11.05 49.7
M 11.8 51.15
L 11.7 50.7
Q 11.15 51.2 10.6 51.6 10.05 52.05 9.5 52.4
L 10.3 52.7
Q 10.5 52.65 10.7 52.6 11.35 52.15 11.65 51.55 11.75 51.35 11.8 51.15
M 37.6 68.4
Q 37.4 68.4 37.2 68.45 37.05 69.15 37.6 68.8 38.1 68.5 37.6 68.4
M 38.3 69.65
Q 38.35 70.4 38.8 71.1 39 71.35 39.2 71.6
L 39.8 70.8 41.8 72.25
Q 41.8 72.35 41.75 72.5
L 41.7 72.6
Q 41.75 72.6 41.95 72.55 42.45 72.1 42.65 71.3 42.8 70.75 43 70.2
L 43.85 69.65
Q 45.05 69.9 45.6 71 44 72.1 42.4 73.1 41.9 73.4 41.3 73.5 41.65 74.8 43.15 75.05 43.95 75 44.55 74.45 45.1 73.9 45.2 73.2
L 44.7 72.7 48.3 68.35
Q 48.75 68.3 49.2 68.3 49.7 68.5 50.35 68.75
L 50.7 67.2 50.5 66.75 48.9 66.2 50 67.6
Q 48.25 67.35 47.6 65.7 47.6 66.05 47.55 66.45 47.45 67.25 46.85 67.6 46.15 67.95 45.4 67.4 44.1 66.6 42.6 66.2
L 42.5 65.1 41.35 66
Q 41.3 66.2 41.35 66.45 41.45 66.8 41.5 67.15 41.55 67.55 41.5 68 41.05 68.6 40.2 68.25 39.55 67.9 38.9 67.6 38.2 68.65 38.3 69.65
M 39 68.2
Q 39.3 68.8 39.9 69.1 40.1 69.2 40.35 69.3 39.55 70 38.55 69.6
L 39 68.2
M 43.55 68.9
L 44.5 68.4
Q 44.5 67.7 45.15 68.1 45.2 68.1 45.25 68.15 46.15 68.35 45.9 69.05 45.85 69.2 45.8 69.35 44.65 69.9 43.55 68.9
M 41.75 69.8
Q 41.9 69.95 41.9 70.15 41.9 70.35 41.75 70.45 41.65 70.6 41.45 70.6 41.25 70.6 41.1 70.45 41 70.35 41 70.15 41 69.95 41.1 69.8 41.25 69.7 41.45 69.7 41.65 69.7 41.75 69.8
M 45.25 68.15
L 44.5 68.4
Q 44.6 68.5 44.7 68.6 45.3 68.7 45.25 68.15
M 39.65 79.25
Q 39.8 79.3 39.9 79.25 39.95 79.15 39.9 79
L 39.65 79.25
M 33.95 71.3
Q 34 71.45 34.1 71.55 34.35 72 34.6 72.5 34.8 72.8 34.9 73.15 34.4 72.75 33.85 72.45 33.7 72.45 33.55 72.55 33.5 73.15 34.15 73.45 34.65 73.7 35.3 73.45 35.85 73.4 36.35 73.1 37.15 72.75 37.85 73.05 38.65 73.6 38.45 74.3 38.2 75.2 38.2 76
L 36.4 74.65 35.75 75.2 36.6 77.35
Q 36.1 76.9 35.65 76.45
L 34.9 76.4 35.45 77.05 33.7 77.45 36.7 78.75
Q 37.2 78.45 37.65 78.05 37.85 77.85 38 77.55 38.2 78.8 37.55 79.7 36.8 80.3 35.9 80.2 35.65 80.05 35.4 79.95 35.3 79.7 35.3 79.65 35.5 79.6 35.9 79.6 35.9 79.7 35.95 79.6 35.85 79.4 35.7 79.25 35 78.7 34.35 79 33.8 79.6 34.15 80.4 34.6 81.5 35.6 82.35
L 36.1 82.4
Q 36.3 82.2 36.45 82 36.9 81.1 37.55 80.6 37.95 80.25 38.45 80.05 39.15 79.8 39.65 79.25 39.25 79 39.45 78.9 39.6 78.8 39.9 79
L 40.2 78.4
Q 39.95 77.8 39.6 77.25 39.45 76.95 39.2 76.7
L 40.5 76.1 41.35 78.65
Q 41.7 78.6 42.1 78.55 42.2 78.45 42.35 78.35
L 42.6 76.7 43.1 76.35 44.55 76.9
Q 44.65 76.8 44.75 76.7 44.85 76.6 44.85 76.45 44.9 76.15 44.85 75.85 44.3 75.55 43.7 75.55 41.6 75.05 39.5 74.85 39.85 73.65 39.45 72.45 39.15 72.15 38.85 72 38.05 71.6 37.2 71.35 36.5 72.05 35.4 71.45 34.6 71.05 33.95 71.3
M 33.4 71.9
Q 33.85 71.3 33.3 71.5 33.1 71.6 33.4 71.9
M 33.6 69.6
Q 33.3 69.35 33.75 69.85 34.15 70.35 34.8 70.7 35.8 71.3 36.85 71.05
L 37.4 70.5
Q 35.75 69 33.6 69.6
M 32.5 67.9
Q 32.35 67.9 32.2 68 32.1 68.15 32.1 68.35 32.1 68.55 32.2 68.65 32.35 68.8 32.5 68.8 32.65 68.8 32.75 68.65 32.9 68.55 32.9 68.35 32.9 68.15 32.75 68 32.65 67.9 32.5 67.9
M 22.45 68.7
Q 22.6 69 22.7 68.65 22.2 68.25 22.45 68.7
M 21.55 65.9
L 22.35 66.2 21.35 64.8 21.55 65.9
M 21.4 67.55
L 21.5 67.5
Q 21 67 21.4 67.55
M 22.15 67.35
Q 22.15 67.45 22.3 67.5 22 66.7 22.15 67.35
M 20.95 63.55
Q 21.3 62.85 21.95 62.25 22.25 62.05 22.55 61.8 20.65 61 19.85 62.75 19.75 62.95 19.7 63.2
L 18.8 62.7
Q 19.05 63.7 19.7 64.3 19.85 64.5 20.15 64.65 20.6 64.3 20.95 63.55
M 20.55 62.25
L 21 62.25 21 62.65 20.55 62.65 20.55 62.25
M 22.3 64.2
Q 22.4 64.35 22.55 64.1 22.1 63.65 22.3 64.2
M 23.5 63.55
L 23.35 63.55 23.35 63.95 23.5 63.95 23.5 63.55
M 28.25 60.3
Q 28.2 60.3 28.2 60.45 28.95 60.3 28.25 60.3
M 22.7 54.75
Q 22.55 54.9 22.55 55.1 22.55 55.3 22.7 55.4 22.85 55.55 23.1 55.55 23.35 55.55 23.5 55.4 23.65 55.3 23.65 55.1 23.65 54.9 23.5 54.75 23.35 54.65 23.1 54.65 22.85 54.65 22.7 54.75
M 25.8 54.7
Q 25.6 54.7 25.45 54.75
L 25.3 55
Q 26.35 55.35 27.55 55.4 26.85 54.7 25.8 54.7
M 37.65 38.45
L 37.9 38.95 38.2 38.45 37.65 38.45
M 36.4 40.05
L 36.65 39.45 36.2 39.45 36.4 40.05
M 22.25 44.75
Q 22.2 44.6 22.2 44.45 21.55 45.2 22.05 45.2 22.3 45.05 22.25 44.75
M 23.2 42.3
L 23.15 41.85
Q 22.15 40.8 20.8 41.5 20.3 41.7 19.8 41.9
L 23.2 42.3
M 22.3 43.15
L 22 43.15 22 43.35 22.3 43.35 22.3 43.15
M 20.4 40
L 20.65 39.45 20.2 39.45 20.4 40
M 26.25 43.2
L 26.35 43.05
Q 26.25 42 25.2 41.8 24.9 41.75 24.65 41.7 25.75 42.05 26.25 43.2
M 29.1 36.2
Q 28.95 36.2 28.85 36.3 28.75 36.4 28.75 36.55 28.75 36.7 28.85 36.8 28.95 36.9 29.1 36.9 29.25 36.9 29.35 36.8 29.45 36.7 29.45 36.55 29.45 36.4 29.35 36.3 29.25 36.2 29.1 36.2
M 28.6 34.6
L 28.2 35.4 30.05 34.85 30.5 33.7
Q 30.05 34 29.6 34.25 29.1 34.45 28.6 34.6
M 26.75 32.25
Q 27.05 32.1 27.1 31.9 27.2 31.5 26.9 31.35 26.7 31.4 26.6 31.55 26.25 31.9 26.2 32.45
L 26.55 32.2
Q 26.65 32.2 26.75 32.25
M 26.8 33.45
Q 26.35 33.4 26.25 33.8 26.2 33.9 26.2 34.1
L 27.2 34.45 26.8 33.45
M 29.15 33.5
Q 29.15 33.45 29.3 33.4 28.6 32.4 29.15 33.5
M 30.5 35.8
L 30.55 35.75
Q 30.05 35.3 30.5 35.8
M 31.85 32.35
Q 32 32.2 32 31.95 32 31.7 31.85 31.5 31.7 31.35 31.5 31.35 31.3 31.35 31.15 31.5 31 31.7 31 31.95 31 32.2 31.15 32.35 31.3 32.55 31.5 32.55 31.7 32.55 31.85 32.35
M 30.7 31
L 30.45 30.4
Q 30.3 30.3 30.3 30.2 30.2 30.8 30.7 31
M 31.2 29.95
Q 31.25 30.45 30.95 30.85 30.9 30.95 30.7 31
L 31.4 31.25 32.15 30.35 33 30.1
Q 34.5 30.3 35.2 31.7 35.1 30.2 33.5 29.85 32.1 29.9 30.7 29.95
L 31.2 29.95
M 39.95 30.6
Q 39.85 30.5 39.65 30.5 39.45 30.5 39.3 30.6 39.2 30.75 39.2 30.95 39.2 31.15 39.3 31.25 39.45 31.4 39.65 31.4 39.85 31.4 39.95 31.25 40.1 31.15 40.1 30.95 40.1 30.75 39.95 30.6
M 38.65 30.05
L 38.35 30.05 38.35 30.45 38.65 30.45 38.65 30.05
M 39.85 26.7
Q 39.8 27.25 40.05 26.8 39.85 26.35 39.85 26.7
M 8.55 48.8
Q 9.05 49.7 10.3 49.4
L 8.55 48.8
M 13.25 43.25
Q 13.2 43.3 13.2 43.45 13.95 43.2 13.25 43.25
M 18.05 46.8
Q 17.85 47.25 18.2 47.25 18.7 47.25 18.35 46.75 17.85 46.15 18.05 46.8
M 19.15 47.55
Q 19.15 47.6 19.3 47.7 19.1 46.9 19.15 47.55
M 17.45 43.95
L 16.5 44 17.45 44.7
Q 17.5 44.55 17.5 44.45 17.5 44.2 17.45 43.95
M 14.55 44.6
L 12.1 44.9 13 45.35
Q 13.9 45.35 14.55 44.6
M 12.6 49.4
L 11.95 49 12.2 49.6
Q 12.3 49.8 12.5 50 12.3 51.4 12.9 52.4
L 13.75 50.55
Q 14.1 50.45 14.5 50.35
L 14.9 52.7 15.35 53.1 16.55 52.55
Q 16.85 51.7 16.55 50.65 16.45 50.3 16.4 49.95 17 50.1 17.3 51 17.35 51.1 17.45 51.25 18.6 51.75 19.8 50.95
L 17.7 50.95 19.05 49.2 18.6 49.25
Q 16.95 48.25 16.8 46.1
L 16 47 15.8 45.4
Q 14.95 46.45 15.55 47.7
L 16.2 47.95 16.3 48.6 15.25 50.1 14.55 50.2
Q 14.05 49.9 14.05 49.5 14.1 48.95 13.9 48.5 13.8 48.2 13.55 48 12.8 48.25 12.7 49 12.65 49.2 12.6 49.4
M 13.65 40.25
L 13.7 40.2
Q 14.2 40 13.65 39.75 13.5 39.7 13.4 39.7 13.2 40.15 13.65 40.25
M 19.55 40
Q 19.35 40.05 19.2 40.15
L 19.95 40.5
Q 19.85 40.15 19.55 40
M 8.8 46.55
Q 8.65 46.65 8.5 46.8 8.55 47.15 9 47.1 9.8 46.8 10.5 46.5 9.6 46.25 8.8 46.55
M 77.75 49.3
Q 77.9 49.15 77.9 48.95 77.9 48.75 77.75 48.6 77.65 48.45 77.5 48.45 77.35 48.45 77.2 48.6 77.1 48.75 77.1 48.95 77.1 49.15 77.2 49.3 77.35 49.45 77.5 49.45 77.65 49.45 77.75 49.3
M 79.85 45.15
Q 79.85 45.9 79.2 46.05 78.35 46.35 78.1 47.05
L 79.65 47.1
Q 79.75 46.8 79.9 46.5 80.6 46.75 81.3 47 80.2 46.2 79.85 45.15
M 73.5 44.55
Q 73.6 44.3 73.2 44.45 73.15 45.45 73.5 44.55
M 75.8 37.75
Q 75.8 37.8 75.7 37.9 76.1 38.3 76.45 38 77 37.35 76.75 36.75 76 36.55 75.8 37.75
M 78.1 38.9
L 76.7 39.25 76.6 40 78.05 39.9 78.15 38.5 77.3 37.9 78.1 38.9
M 80.05 40
L 80.3 39.45 79.8 39.45 80.05 40
M 65.75 46.95
Q 65.75 46.9 65.85 46.9 65.15 46.1 65.75 46.95
M 68.7 48.75
Q 68.55 48.95 68.55 49.25 68.55 49.55 68.7 49.75 68.85 49.95 69.05 49.95 69.25 49.95 69.4 49.75 69.55 49.55 69.55 49.25 69.55 48.95 69.4 48.75 69.25 48.55 69.05 48.55 68.85 48.55 68.7 48.75
M 68.65 47.6
Q 68.9 47.85 69.3 48
L 68.3 47
Q 68.4 47.35 68.65 47.6
M 66.8 48.9
Q 66.7017578125 49.096484375 66.55 49.15 66.94453125 49.090625 67.35 49.05 67.95 49 67.7 48.35 67.2 48 66.8 48.9
M 67.05 46.7
Q 66.95 46.6 66.8 46.6 66.65 46.6 66.5 46.7 66.4 46.85 66.4 47.05 66.4 47.25 66.5 47.35 66.65 47.5 66.8 47.5 66.95 47.5 67.05 47.35 67.2 47.25 67.2 47.05 67.2 46.85 67.05 46.7
M 64.75 48.6
L 64.75 49.15 65.35 49.15 65.35 48.6 64.75 48.6
M 65.25 47.1
Q 65.25 46.95 65.15 46.85 65.05 46.75 64.9 46.75 64.75 46.75 64.65 46.85 64.55 46.95 64.55 47.1 64.55 47.25 64.65 47.35 64.75 47.45 64.9 47.45 65.05 47.45 65.15 47.35 65.25 47.25 65.25 47.1
M 62.7 47.75
L 62.85 47.7
Q 62.35 46.8 62.7 47.75
M 61.4 47.3
L 61.8 47.15
Q 62.4 47.15 62.45 46.8 62.6 46.15 61.9 46.45
L 61.4 47.3
M 62.6 44.7
Q 62.45 44.7 62.3 44.85 62.2 45 62.2 45.2 62.2 45.4 62.3 45.55 62.45 45.7 62.6 45.7 62.75 45.7 62.85 45.55 63 45.4 63 45.2 63 45 62.85 44.85 62.75 44.7 62.6 44.7
M 64.6 45.65
Q 65.05 46.15 64.85 45.65 64.75 45.35 64.6 45.65
M 64.7 29.25
Q 64.9 29.35 65.2 29.4
L 65.85 29 64.6 28.8
Q 64.15 28.95 64.7 29.25
M 62.05 27.3
Q 62.3 27.25 62.5 27.15 62.9 26.95 63.25 26.65
L 63.35 26.2 62.05 27.3
M 66.6 27.8
L 66.5 26.2 65.7 27.75
Q 65.75 27.95 65.85 28.15 66.3 28.8 66.85 29.1 66.85 29.15 66.95 29.1
L 66.6 27.8
M 70.1 25.7
Q 70.1 24.95 69.35 25.45 69.25 25.55 69.2 25.7
L 69.2 26.5
Q 69.4 25.7 70.1 25.7
M 72.4 36.85
Q 72.3 36.95 72.25 37.05 72.45 37.65 73 37.85 73.3 37.9 73.6 38
L 72.3 38.7 72.7 39 73.5 39.05
Q 74.75 38.6 74.8 37.2
L 74.1 37 73.1 36.55
Q 72.8 36.6 72.55 36.7 72.45 36.75 72.4 36.85
M 71.2 32.4
Q 71.15 32.3 70.95 32.6 71.5 33.1 71.2 32.4
M 75.45 33.65
Q 74.8 33.45 75.3 33.7 75.3 33.75 75.45 33.65
M 72.35 30.4
L 72.7 29.1 70.5 29.2 72.7 32.3 72.2 33 72.45 33.85 73.25 34.25 73.7 35.3 74.7 32.95 73.3 32.95 72.35 30.4
M 78.7 30
L 79.3 30.7
Q 79.55 30.3 78.9 30.1 78.8 29.95 78.7 30
M 78.45 28.85
Q 78.45 28.7 78.45 28.65 77.9 28.8 78.45 28.85
M 77.35 28.7
Q 77.5 28.95 77.6 28.65 77.05 28.15 77.35 28.7
M 78.5 27.4
Q 78.7 27.35 78.9 27.35 79 27.05 79 26.75 78.95 26.4 78.7 26.1 78.55 25.9 78.4 25.8
L 78.7 26.75
Q 78.5 27.15 78.05 27.15 77.85 27.15 77.7 27.2 77.65 27.3 78.5 27.4
M 60.55 46.6
Q 60.7 46.35 60.2 46.45 60.2 47.25 60.55 46.6
M 59.6 47.95
Q 59.85 47.75 60.05 47.5 59.5 47.75 59.15 48.05
L 59.35 48.1
Q 59.5 48.05 59.6 47.95
M 58 48.4
Q 58.05 48.45 58.2 48.45
L 58.35 47.7
Q 57.6 47.8 58 48.4
M 57.3 46.65
L 56.85 46.65 56.85 47.05 57.3 47.05 57.3 46.65
M 59.3 46.2
L 59.85 45.9 58.35 46.4 59.35 46.6 59.3 46.2
M 55.35 45.4
L 54.5 47 56.05 46.7 55.35 45.4
M 40.55 30.95
L 40.55 30.65 40.3 30.65 40.3 30.95 40.55 30.95
M 41.4 33.1
Q 41.4 33.25 41.5 33.35 41.65 33.5 41.85 33.5 42.05 33.5 42.15 33.35 42.3 33.25 42.3 33.1 42.3 32.95 42.15 32.8 42.05 32.7 41.85 32.7 41.65 32.7 41.5 32.8 41.4 32.95 41.4 33.1
M 43.2 33.8
Q 43.2 33.65 43.1 33.55 43 33.45 42.9 33.45 42.8 33.45 42.7 33.55 42.6 33.65 42.6 33.8 42.6 33.95 42.7 34.05 42.8 34.15 42.9 34.15 43 34.15 43.1 34.05 43.2 33.95 43.2 33.8
M 43.2 31.2
L 43.2 31.6 43.7 31.6 43.7 31.2 43.2 31.2
M 43.05 32.1
Q 43.2 32 43.2 31.8 43.2 31.6 43.05 31.45 42.9 31.35 42.7 31.35 42.5 31.35 42.35 31.45 42.2 31.6 42.2 31.8 42.2 32 42.35 32.1 42.5 32.25 42.7 32.25 42.9 32.25 43.05 32.1
M 44.8 31.25
Q 45 31.2 45.2 31.2
L 45.85 30.3 44 30.9
Q 44.25 31.6 44.8 31.25
M 43 27.45
L 43 28.95
Q 43.1 28.5 43.25 28.1 43.4 27.6 43 27.45
M 43.2 29.8
L 43.8 29.4 42.55 29.6 43.2 29.8
M 44.85 29.45
L 44.4 29.45 44.4 29.9 44.85 29.9 44.85 29.45
M 45.25 28.75
Q 45.1 28.75 45 28.95 45.3 28.85 45.65 28.75 45.4 28.65 45.25 28.75
M 45 27.5
Q 45.25 27.5 45.45 27.35 45.65 27.2 45.65 26.95 45.65 26.7 45.45 26.55 45.25 26.4 45 26.4 44.75 26.4 44.55 26.55 44.35 26.7 44.35 26.95 44.35 27.2 44.55 27.35 44.75 27.5 45 27.5
M 44.35 26
Q 44.5 25.9 44.5 25.7 44.5 25.5 44.35 25.35 44.25 25.25 44.05 25.25 43.85 25.25 43.7 25.35 43.6 25.5 43.6 25.7 43.6 25.9 43.7 26 43.85 26.15 44.05 26.15 44.25 26.15 44.35 26
M 48.8 30
L 48.55 28.6 47.35 29.9 48.8 30
M 49.5 30.5
Q 49.4 30.5 49.3 30.6
L 50.05 31.15
Q 50.4 30.5 49.5 30.5
M 46.8 25.15
Q 46.45 25.2 46.2 25.45
L 47.2 25.1
Q 46.95 25.05 46.8 25.15
M 49.2 26.45
Q 48.65 26.65 49.3 27 49.25 26.7 49.2 26.45
M 52.25 26.7
L 52.4 26.95 52.6 26.7 52.25 26.7
M 51.2 27.25
Q 51.45 27 51.45 26.6 51.45 26.2 51.2 25.9 51 25.65 50.7 25.65 50.4 25.65 50.15 25.9 49.95 26.2 49.95 26.6 49.95 27 50.15 27.25 50.4 27.55 50.7 27.55 51 27.55 51.2 27.25
M 54.2 27.45
Q 53.9 27.5 53.65 27.65 53.4 27.75 53.2 27.95 52.95 28.4 53.5 28.5 53.65 28.5 53.85 28.55
L 54.2 27.45
M 53.6 25
Q 54.3 25.6 54.05 25.3
L 53.55 24.35
Q 53.2 24.65 53.6 25
M 29.15 57.1
Q 29.25 57 29.25 56.95 29.2 56.85 29.05 56.85
L 29.15 57.1
M 25.1 58
Q 25.1 58.3 24.95 58.65 23.8 58.85 23.65 57.75 23.55 57.1 23.45 56.5
L 24.8 57.8 24.1 56.5 21.45 56.4 22.2 55.3
Q 20.9 55.7 20.4 57.05 20.3 57.25 20.05 57.45 20.65 57.6 20.35 58.3 20.3 58.35 20.25 58.45 19.95 58.45 20.05 57.9 20.1 57.7 20.05 57.45 19.05 56.95 19.1 55.55 19.1 55.4 19.05 55.3 18.15 55.85 17.85 56.7
L 18.25 58.1 18.8 57.5
Q 19.5 57.35 18.95 58.2
L 17.55 59.1
Q 18.85 59.65 19.9 60.6 20 60.65 20.4 59.4
L 21.95 58.7 20.9 58.5
Q 21.15 58 21.45 57.5
L 22.95 59.6 21.55 60.1
Q 23.05 61.05 24.65 61.6 25.05 61.8 25.55 61.9
L 24.15 60.2 26.45 58.4 27.4 59.4
Q 27.3 58.9 27.2 58.45 28.2 58.7 28.5 59.55 29.65 58.55 29.15 57.1 28.25 57.6 27.45 56.9 26.75 56.3 25.95 56.45 25.15 56.9 25.1 58
M 20.45 58.95
L 20.5 58.95
Q 20.2 59.65 20.45 58.95
M 70.35 36.9
Q 70.35 37.05 70.4 37.1 70.55 37.15 70.7 37.15
L 70.35 36.9
M 70.15 35.25
Q 70.35 34.8 70.15 34.65 69.35 34.15 69.2 35.05
L 70 35.3
Q 70.1 35.3 70.15 35.25
M 58.55 29.55
Q 57.3 28.6 55.85 28.8
L 55.15 29.45 54.75 29.6
Q 53.55 28.75 52.05 29.05
L 51.7 29.5 53.85 30.4 54 30.45
Q 53.5 31 52.85 31.5 52.35 31.75 51.85 32.15 51 32.65 50 32.15 49.35 31.8 48.75 31.4 48.45 31.2 48.2 31.1 48 31.1 47.85 31.2 47.7 31.3 47.6 31.5
L 48.4 33.5
Q 46.2 32 43.75 32.9
L 43.75 33.85 44.45 33.55
Q 45.7 33.9 46.85 34.2 48.1 34.65 48 36
L 47.75 36.4
Q 45.55 34.65 42.9 35.3 41.9 35.5 41.3 36.35 40.7 37.15 40.45 38.2
L 38.75 37.9
Q 38.75 39.55 37.5 40.9 36.65 41.75 35.5 41.35 34.95 40.7 34.4 40.05 34.3 39.9 34.1 39.85 33.5 40.4 33.35 41.3 32 39.45 29.75 38.55 28.95 38.25 28.15 38 26.75 37.4 27.25 35.95 26.5 36.35 26.3 37.2 26.2 37.5 26.05 37.8
L 26.15 35.8
Q 24.9 35.55 24.05 36.45 23.65 36.85 23.35 37.3
L 23 36.6 22.35 39.85
Q 23 39 24.05 38.5 24.35 38.25 24.75 38.25 23.55 39.5 22.4 40.8
L 24.4 41.6 26 38.95
Q 27 39.1 26.95 40.4 28.45 39.5 30.1 40.3 30.95 40.6 31.45 40.9 31.1 41.2 30.6 41.5 30.4 41.5 30.25 41.5
L 29.4 40.7 25.4 40.6
Q 26.4 42.35 28.25 41.45 28.7 41.25 29.25 41.15 28.5 42.35 29 43.55 27.35 43 26.5 44.5 26.25 44.95 26.4 45.5 26.5 45.75 26.75 46 27 45.95 27 46 26.95 45.5 26.6 45.05
L 28.3 45.3
Q 28.95 46 28.6 46.75 27.534765625 47.3794921875 26.35 47.25
L 27.5 47.4
Q 27.75 47.55 28 47.75 28.65 48.3 29.1 49.2 29.5 49.95 29.7 50.4 29.95 50.85 30.3 51.3 29.15 51.1 28.2 51.65
L 27.7 50.75 25.35 50.35
Q 24.45 50.65 24.15 51.4
L 21.9 51.05
Q 20.65 51.4 19.75 52.45
L 19.35 51.75
Q 17.5 51.75 16.25 53 15.9 53.4 15.85 54.05 16.3 55.3 17.6 55.35 19.05 55.05 20.35 54.9 21.75 54.8 22.35 53.65 22.5 52.6 21.35 52.15 22.15 51.3 23.2 51.7 24.8 52.5 26.35 53.35 26.2 52.65 26.1 51.9 26.05 51.7 26.15 51.55 26.2 51.4 26.3 51.35 26.75 51.3 26.9 51.55 27.3 52.15 27.3 53 27.35 53.85 27.9 54.5 28.5 54.85 29.1 54.35 29.45 54.1 29.85 53.9 30 53.85 30.15 53.8
L 28.6 52.5
Q 28.7 52.2 28.9 52 28.95 51.85 29.1 51.8
L 29.85 51.9 30.55 52.8
Q 31.05 52.9 31.55 53.05
L 31.35 53.85 31.75 54.1
Q 31.55 55.2 30.4 55.25 29.35 55 28.25 55.45 28.1 55.55 28 55.7 27.8 56.5 28.7 56.8 28.9 56.8 29.05 56.85
L 28.4 56.15 31.8 56.25 30.65 57.1
Q 30.6 57.5 30.65 57.9 30.7 58.1 30.8 58.3
L 30.2 58.45
Q 30.65 58.55 31.1 58.55
L 31.1 58.45 31.85 59.9
Q 31.7 60.6 31.5 61.25 31.45 61.45 31.3 61.65 31.15 61.8 31 62
L 30.55 62.15 31.1 60.25
Q 30.65 60.5 30.25 60.9 30 61 29.8 61.25 29.5 61.7 29.2 62.1 29.1 61.45 29.1 62 29.1 62.1 29.15 62.2
L 29.05 63.55
Q 29.3 64.5 30.35 64.2 30.9 64 31.4 63.55 31.85 63.3 32.25 63 32.25 63.25 32.2 63.5 31.95 64.15 31.6 64.85 31.4 65.2 31.2 65.6
L 29.8 65 29.35 65.15
Q 30.4 65.7 31 66.75 31.05 66.85 31.1 67.05 31.3 67.25 31.55 67.45 32.95 67.3 33.6 68.2 33.95 68.7 34.6 68.9 35.1 68.65 34.8 68.1 34.65 67.8 34.4 67.35 34.1 66.7 33.8 66.2
L 33.7 66.35
Q 33.45 66.35 33.25 66.35 33 66.3 32.85 66.1 32.65 66 32.55 65.8 32.55 65.7 32.65 65.65 32.8 65.45 33.05 65.45 33.3 65.3 33.6 65.3
L 33.7 65.35
Q 33.7 65.2 33.65 64.95 34.4 65.85 35.2 66.75 34.7 65.4 34.6 63.95 34.6 63.55 34.8 63.2 36.15 63.2 36.8 64.9 36.95 65.25 37.25 65.6 37.35 65.65 37.4 65.65 37.65 65.35 37.9 65.05
L 39.7 65 40 65.7
Q 42.1 64.7 41.25 62.65 41.15 62.4 40.95 62.2
L 40.85 63
Q 40 64.55 38.2 64 37.95 63.95 37.8 63.8 37.7 63.15 38.5 62.8 40.6 62.15 42.75 61.5 43.15 61.3 43.65 61.3 43.85 61.3 44.1 61.35 44.15 61.75 44.1 62.1 44 62.55 43.8 62.95
L 44.45 62.95 43.55 65.4
Q 43.65 65.7 43.9 65.95 44.15 66.25 44.5 66.5
L 45.2 65.8 44.95 64.85
Q 45.15 64.15 46.5 63.9 46.85 63.75 47.15 63.4 47.75 62.8 48.65 62.9
L 47.15 62 48.15 61.8 46.35 59.95 50.75 60.1 49.55 61.15
Q 49.45 61.8 50.65 61.25 51.6 60.8 52.3 61.55
L 52.8 60.25 53.05 60.75
Q 53.4 60.85 53.8 61 54.3 60.75 54.85 60.5 53.4 59.65 51.45 59.6 51.55 60 51.65 60.45 51.7 60.6 51.65 60.85 51.65 60.9 51.6 61 50.85 60.9 51 59.95 51.15 58.85 52.1 58.25 53.1 57.75 54.15 58
L 55.1 53.75
Q 53.75 55.75 52.05 57.45 51.85 57.65 51.6 57.85
L 49.75 57.15 53.55 53.95 52.25 53.95 52.6 52.95
Q 51.85 51.95 52.35 50.9 52.4 50.75 52.35 50.6 52.35 50.55 52.3 50.5 52.35 50.45 52.4 50.4 52.5 50.35 52.55 50.35 52.6 50.45 52.6 50.6
L 52.85 50.25
Q 52.3 50 51.75 49.8 51.1 49.65 50.6 49.3
L 50.25 48.25
Q 52.25 48.45 54 49.2 54.3 49.6 54.15 50.1 53.85 50.95 53.95 51.9 53.95 52.05 54.25 52.25 54.8 52.05 54.75 51.35 54.6 49.55 55.8 48.55 54.95 48.3 54.1 48.1 51.85 47.65 50.05 46.35
L 53.3 45.85 52.15 46.95
Q 53.15 47 53.9 46.05 54.7 45.2 54.5 44.1
L 51.8 45.05
Q 52.2 44.35 52.8 43.8 53.5 43.25 54.35 43.2 54.75 43.2 55.2 43.2
L 55.4 43.15
Q 55.35 42.7 55.1 42.3
L 57.1 42.2 55.3 44.7 57.5 45.95 58.4 45.7
Q 59.05 45.2 59.1 44.4 59.1 44.05 59.1 43.7 58.4 44.5 57.5 44.75 57.25 44.85 56.95 44.8
L 56.85 43.95
Q 57.85 43.25 58.95 43 61.75 42.5 62.25 39.6 62.8 39.4 63.6 39.5 64.3 39.55 65 39.35 65.2 39.35 65.45 39.35 64.95 40.35 63.9 40.55 63.6 40.65 63.35 40.8
L 65.05 41.4
Q 64.15 41.8 63.2 42.15 62.3 42.45 61.45 42.75 59.8 43.4 59.75 45.2
L 60.55 44.3 61.35 44.8
Q 61.7 44.8 62 44.65 62.5 44.45 62.9 44.05 63.05 43.9 63.15 43.7
L 64.05 45.7
Q 64.9 44.3 66.6 44.15 68.3 44.05 69.6 44.95
L 66.6 45.15 66.15 45.75
Q 66.6 45.95 67.15 46 68.05 46.3 69.05 46.3 69.4 46.3 69.8 46.25
L 69.35 46.5
Q 70.6 46.95 71.85 46.45 72.2 46.3 72.5 46.05
L 71.4 45.7
Q 71.65 45.35 71.9 45.05 72.3 44.65 72.75 44.3
L 72.2 43.35 70.4 43.1 70.2 43.9
Q 70 43.8 69.9 43.6 69.75 43.45 69.7 43.2 70.6 42.3 72 42.65
L 71.95 42 72.95 43 74.15 41.3 71.25 41.15
Q 71.55 41.05 71.9 41 72.2 41 72.5 41.05 73 40.9 73.5 40.8 72.6 40.55 71.85 39.95 71.4 39.65 71.3 39.15 71.2 38.5 71.35 37.85 71.5 37.4 71.7 37
L 70.7 37.15
Q 70.9 38.05 70.3 37.6 70.1 37.4 70.2 37.1 70.25 36.95 70.35 36.9 70.45 36.3 70.2 35.75 70.1 35.5 70 35.3 69.6 35.4 69.25 35.35 69.2 35.25 69.2 35.05
L 68.65 35.3
Q 68 36.1 68.2 37.4 68.25 37.7 68.05 38.05
L 68.25 38.95 67.8 39.5 67.8 38.2 66.9 38.65 67.45 37.5
Q 67.25 36.7 66.45 36.3 67.05 36.2 67.7 36.15 67.45 35.1 66.45 35 65.45 34.85 64.9 34
L 65.1 33.2
Q 65.4 33.1 65.9 33.4 66 33.45 66.15 33.45
L 66.4 32.85
Q 67 32.95 67.1 33.4 67.1 33.35 67.3 33.35 68.15 32.5 68.35 31.3 68.25 30.8 67.45 31.3
L 67.05 32
Q 66.65 31.95 66.35 31.8 65.95 31.65 65.65 31.45
L 63.65 31.25
Q 63.05 30.55 63.2 29.5 62.1 29.95 60.8 30.2 59.6 30.25 58.55 29.55
M 54.7 33.45
Q 55.2 33.4 55.25 33.75 55.25 33.9 55.3 34.1 54.95 34.65 54.2 34.45 54.3 33.95 54.5 33.55 54.55 33.45 54.7 33.45
M 55.65 33
Q 55.55 32.95 55.5 32.85 55.3 32.8 55.25 32.6 55.15 32.45 55.15 32.25
L 55.95 30.5 56.55 31.2 55.65 33
M 54.45 32.9
L 54.2 32.45 54.75 32.45 54.45 32.9
M 52.2 36.45
L 52.2 35.95 52.6 35.95 52.6 36.45 52.2 36.45
M 60.2 32.25
Q 59.6 32.3 59.05 31.8 59.9 31.4 60.75 30.85 61.35 30.35 62.1 30.7 61.85 30.95 61.6 31.2 61.3 31.4 61.05 31.6 61 32.5 60.2 32.25
M 60.5 33.35
Q 60.4 33.25 60.4 33.05 60.4 32.85 60.5 32.7 60.65 32.6 60.8 32.6 60.95 32.6 61.05 32.7 61.2 32.85 61.2 33.05 61.2 33.25 61.05 33.35 60.95 33.5 60.8 33.5 60.65 33.5 60.5 33.35
M 58.6 33.6
Q 59.1 33.55 59.6 33.5
L 59.7 33.6
Q 59.25 33.9 58.65 34.1 59.9 35.15 59.5 36.6 59.3 37.35 58.55 38.1
L 58.65 37.1 58.1 37.1
Q 56.5 36.2 57 34.65 57.35 33.65 57.55 32.6
L 57.85 33.9
Q 58.2 33.75 58.6 33.6
M 58.05 31.2
Q 58.15 31.7 58.2 32.2 56.75 31.05 56.2 29.3 57.75 29.5 58.05 31.2
M 56.4 34.4
Q 56.3 34.5 56.2 34.6
L 55.55 34.5 56.3 33.7
Q 56.9 33.85 56.4 34.4
M 60.45 36.75
Q 60.45 36.5 60.6 36.3
L 61.15 36.05 60.85 36.4 60.55 37
Q 60.45 36.85 60.45 36.75
M 54.35 37
L 56 37.1
Q 56 37.45 55.95 37.3 55.5 37.5 55.05 37.2 55.4 38.05 55 38.65 54.9 38.75 54.75 38.85 54.4 38.6 54.2 38.25 54.1 38 54.05 37.8
L 54.35 37
M 44.45 35.35
Q 44.7 35.4 45 35.45 46.05 35.75 46.65 36.25 47.25 36.75 47.1 37.5
L 45.95 37.1 45.7 36.65 44.45 35.35
M 49.3 39.95
Q 49.05 39.65 48.8 39.4
L 50.55 40.3
Q 49.7 40.5 49.3 39.95
M 49.8 37.6
Q 49.85 37.6 49.85 37.7 49.5 37.2 49.2 36.7 49.5 37.1 49.8 37.6
M 50.55 39.3
L 50.5 38.3 51.8 39.5 51.8 40.4 50.55 39.3
M 47 38.6
Q 46.65 38.9 46.45 39.3 46.2 39.8 46.1 40.4
L 45.2 39.8 43.8 39.9
Q 43.9 40 44 40.15 44.8 40.1 45.05 40.8
L 44.1 41.2
Q 43.35 41 43.1 40.35 42.75 39.45 42.7 38.4
L 45.25 38.9 46.1 38.05 46.1 37.45 47 38.6
M 46.8 40.05
Q 46.5 39.9 46.3 39.7 46.45 39.2 46.95 39.95 47.05 40.05 47.15 40.2 46.95 40.15 46.8 40.05
M 49.6 42.4
L 50 41.5 50.7 41.4 49.6 42.4
M 42.8 37.2
L 41.5 37.8 43.4 36.6 42.8 37.2
M 42 42.9
Q 42.15 43 42.15 43.15 42.15 43.3 42 43.4 41.9 43.5 41.7 43.5 41.5 43.5 41.35 43.4 41.25 43.3 41.25 43.15 41.25 43 41.35 42.9 41.5 42.8 41.7 42.8 41.9 42.8 42 42.9
M 43.7 42.65
Q 44.05 42.9 44.4 43.2 44.6 43.45 44.7 43.8
L 44.65 43.9
Q 44.55 44.2 44.2 43.95 43.65 43.4 43.7 42.65
M 44.25 45.95
Q 44.3 46.05 44.3 46.2
L 43.7 46.85
Q 42.95 46.8 42.65 46 42.55 45.7 42.55 45.4 43.65 45.1 44.25 45.95
M 42.05 44.4
Q 42.2 44.55 42.2 44.75 42.2 44.95 42.05 45.05 41.9 45.2 41.7 45.2 41.5 45.2 41.35 45.05 41.2 44.95 41.2 44.75 41.2 44.55 41.35 44.4 41.5 44.3 41.7 44.3 41.9 44.3 42.05 44.4
M 41.4 46.7
Q 41.55 46.75 41.7 46.8 41.9 47.35 41.3 47.55 41.15 47.6 41 47.5 40.75 46.8 41.4 46.7
M 41.85 49.15
Q 42.05 49.15 42.15 49.25 42.3 49.4 42.3 49.6 42.3 49.8 42.15 49.9 42.05 50.05 41.85 50.05 41.65 50.05 41.5 49.9 41.4 49.8 41.4 49.6 41.4 49.4 41.5 49.25 41.65 49.15 41.85 49.15
M 43.65 48.7
Q 43.8 48.7 43.95 48.8 44.35 49.1 44.75 49.5 44.85 49.55 45 49.6 45.15 49.6 45.35 49.6 45.45 49.5 45.55 49.4 45.6 49.25 45.7 49.1
L 44.8 45
Q 46.3 46.3 46.7 48.35 46.9 49.3 46.15 49.8 45.05 50.55 44.2 49.95 43.55 49.55 43.45 48.85 43.55 48.75 43.65 48.7
M 42.85 43.65
Q 42.9 43.55 43.05 43.65 42.55 44.1 42.85 43.65
M 47.65 46.3
L 47.8 46.2
Q 47.9 46.05 48 45.95
L 48.35 46.1
Q 48.0369140625 46.05390625 47.65 46.3
M 46.3 44.4
Q 47.2 44.25 46.8 45.1 46.75 45.2 46.65 45.25 46.3 45.3 46.1 45.25 45.95 45.1 45.95 44.85
L 46.3 44.4
M 48 49.3
L 47.55 48.7
Q 47.85 48.45 47.95 48.85 48 49.05 48 49.3
M 49.7 48.35
Q 49.9 48.55 49.9 48.85 49.9 49.15 49.7 49.35 49.55 49.55 49.3 49.55 49.05 49.55 48.85 49.35 48.7 49.15 48.7 48.85 48.7 48.55 48.85 48.35 49.05 48.15 49.3 48.15 49.55 48.15 49.7 48.35
M 50.5 44
L 50.3 43.2
Q 50.95 42.8 51.3 43.65 51.35 43.75 51.35 43.85 51.1 44 50.85 44 50.7 44.1 50.5 44
M 60.7 38.95
Q 60.6 39.1 60.45 39.1 60.3 39.1 60.2 38.95 60.1 38.85 60.1 38.7 60.1 38.55 60.2 38.4 60.3 38.3 60.45 38.3 60.6 38.3 60.7 38.4 60.8 38.55 60.8 38.7 60.8 38.85 60.7 38.95
M 58.3 40.05
Q 58.65 39.8 59 39.6
L 58.65 40.6
Q 57.3 41.5 56.05 40.4
L 57.45 40.55
Q 57.85 40.3 58.3 40.05
M 53.5 39.45
L 54.35 39.3 55.45 39.25
Q 54.25 40.2 52.75 39.6
L 52.45 37.8 53.15 38.2 53.5 39.45
M 52.85 41.15
Q 53 41.3 53 41.5 53 41.7 52.85 41.8 52.75 41.95 52.6 41.95 52.45 41.95 52.3 41.8 52.2 41.7 52.2 41.5 52.2 41.3 52.3 41.15 52.45 41.05 52.6 41.05 52.75 41.05 52.85 41.15
M 50.85 33.5
Q 50.75 33.9 50.55 33.5 51.05 32.85 50.85 33.5
M 63.65 33.1
L 63.4 33.65 63.2 33.1 63.65 33.1
M 63.8 31.9
Q 63.8 31.65 64 31.45
L 64 32.45
Q 63.8 32.15 63.8 31.9
M 62.2 31.9
Q 62.4 32.1 62.4 32.4 62.4 32.7 62.2 32.9 62.05 33.1 61.8 33.1 61.55 33.1 61.35 32.9 61.2 32.7 61.2 32.4 61.2 32.1 61.35 31.9 61.55 31.7 61.8 31.7 62.05 31.7 62.2 31.9
M 61.15 34.95
Q 61.3 34.9 61.5 34.9 61.85 35.45 60.95 35.7 60.75 35.6 60.6 35.55 60.45 35 61.15 34.95
M 64.35 34.8
L 63.95 35
Q 63.3 35 62.6 34.65 61.85 34.35 61.65 33.6 62.9 34.45 64.6 34.4
L 64.35 34.8
M 68.5 39.5
L 69.7 38.3 70 39.95
Q 69.25 39.7 68.5 39.5
M 68.1 41.4
Q 68.2 41.55 68.3 41.75 66.75 41.7 65.55 42.55 65.05 42.9 64.5 42.65 63.9 42.75 63.35 42.45 64.7 42.4 65.75 41.55 66.45 41 66.35 40.15 67.35 40.55 68.1 41.4
M 69.45 37.25
Q 68.75 36.95 69.6 36.95 70.1 37.55 69.45 37.25
M 24.35 37.1
Q 24.35 37.05 24.5 36.95 24.5 37.6 24.35 37.1
M 23.85 40
Q 23.85 40.05 23.9 40.15
L 23.2 40.5
Q 23.15 39.95 23.85 40
M 28.4 44.55
Q 28.55 44.5 28.8 44.55
L 29.7 45.3
Q 29.85 44.6 30 43.95 30.35 42.45 32 42.7 33.3 42.7 34.55 43.35
L 34.9 44.15
Q 34.5 45.8 33.6 47 33.5 47.1 33.35 47.2 32.85 47.6 32.5 47.15 32.2 46.8 31.9 46.45
L 32.4 46.4
Q 33.25 45.85 33 45.05
L 32.95 45.2 32.3 45.45
Q 32.75 45.05 33.45 44.6 33.75 44.35 34 44.05 34.05 44 34.05 43.9
L 31.45 43.8
Q 30.75 43.65 30.85 44.85 30.9 45.8 30.8 46.75
L 30.35 47.3 29.65 47.15
Q 29.1 45.9 28.5 44.65
L 28.4 44.55
M 29.45 47.45
Q 29.45 47.4 29.6 47.3 29.6 47.9 29.45 47.45
M 37.45 41.4
L 37.5 41.4
Q 37.2 42.35 37.45 41.4
M 36.3 42.95
L 36.5 42.95 36.4 43.35 36.3 42.95
M 31.65 47.05
L 32.05 47.2
Q 32.6 47.6 32 48 31.9 48.1 31.8 48.25 31.2 48.4 30.95 48
L 31.15 47.3 31.65 47.05
M 32.65 49.05
Q 32.5 48.95 32.35 48.85 32.15 48.4 32.75 48.1 32.85 48.05 33.05 48.1 33.5 48.8 32.65 49.05
M 38.25 45.75
Q 38.25 45.9 38.3 46.1
L 37.2 46.45
Q 37.15 45.95 37.5 45.55 37.55 45.45 37.7 45.45 38.25 45.2 38.25 45.75
M 38.95 46.35
Q 38.95 46.15 39.05 46 39.15 45.9 39.3 45.9 39.45 45.9 39.55 46 39.65 46.15 39.65 46.35 39.65 46.55 39.55 46.65 39.45 46.8 39.3 46.8 39.15 46.8 39.05 46.65 38.95 46.55 38.95 46.35
M 39.3 44.9
Q 39.3 45 39.3 45.1
L 38.5 44.95 38.2 44.45
Q 39.1 44.35 39.3 44.9
M 40 43.8
L 40.4 44.9 38.4 42.6 40 43.8
M 35.7 44.35
Q 35.85 44.25 36 44.15 36.1 44.1 36.2 44.1 36.45 44.1 36.7 44.2
L 36.9 44.6
Q 36.55 45 36.1 45.25 35.95 45.35 35.75 45.3 35.6 45.1 35.6 44.9 35.55 44.6 35.7 44.35
M 36 47.7
L 35.85 47.45
Q 37.2 47.35 38.7 47.5 37.8 48.3 36.8 47.8
L 36 47.7
M 38.55 51.7
Q 38.7 52 38.9 52.3 39.45 53.15 39.65 54.2 39.7 54.3 39.7 54.5
L 39.1 54.95
Q 38.7 54.8 38.35 54.6 37.6 53.9 37 53.05 36.8 52.7 36.55 52.4
L 37 51.8 38.3 53 38.55 51.7
M 38.55 51.15
L 38.35 51.2
Q 38.15 51.1 38 51
L 37.3 50.3
Q 38.05 50.7 38.55 51.15
M 39.3 51.65
Q 39.7 51.1 39.6 51.8 39.55 51.9 39.3 51.65
M 35.6 55.15
L 36.3 54.7 35.25 56.1 35.6 55.15
M 32.7 52.5
Q 32.55 52.4 32.4 52.3 32.35 52 32.4 51.8 32.45 51.6 32.6 51.5 34 51.55 35.05 51.05 35.45 50.95 35.9 50.95 34.95 51.4 34 51.9 33.8 52.9 32.7 52.5
M 35 52.9
L 35 53.7 34.55 52.2 35 52.9
M 31.85 57.45
Q 31.55 57.3 31.3 57.2 32.85 57.25 34.35 56.95 36 56.9 37.05 58 34.25 58.8 31.85 57.45
M 36.2 58.55
Q 36.2 58.4 36.5 58.45 36.3 59.15 36.2 58.55
M 36.3 61.55
L 36.5 61.4
Q 35.25 60.7 33.8 60.15 35.7 59.8 37.45 60.45 37.9 60.7 38.3 61.05 37.6 61.45 36.9 61.8 36.75 61.9 36.55 61.95 36.4 61.95 36.25 62
L 35.5 61.45 36.3 61.55
M 40.4 59.6
L 39.4 59.15
Q 39.25 58.3 38.55 57.85 38 57.5 37.5 57.2
L 39.5 57.1
Q 38.65 55.9 39.8 54.75 40.35 54.25 41 53.9 41.35 53.6 41.8 53.45
L 41.85 52.8 42.4 52.25
Q 43.45 54.1 45.5 54.65
L 42.4 55.05 42.05 55.7
Q 42.75 56.75 44 57.35 42.8 57.65 42.05 57.05 41.25 56.4 41 55.45
L 40.35 56.25
Q 40.95 58.1 42.2 59.45
L 39.8 58.3 40.4 59.6
M 37.15 58.6
L 38.55 59.1 37.35 59 37.15 58.6
M 30.35 62.75
Q 30.3 62.55 30.3 62.4 30.9 62.2 30.9 62.65 30.9 62.7 30.8 62.8 30.45 63.05 30.35 62.75
M 16.75 54.35
L 16.55 53.75
Q 17.25 53.05 18.25 53.2 18.5 53.25 18.8 53.3 19.2 53.65 18.65 53.9 18.2 54.15 17.7 54.2 17.25 54.35 16.75 54.35
M 50.5 50.3
Q 50.35 50.9 50.45 50.35 50.45 50.3 50.5 50.3
M 49.25 52.1
Q 49.9 52.1 49.35 52.25 49.3 52.25 49.25 52.1
M 47.15 50.8
Q 47.3 50.95 47.3 51.15 47.3 51.35 47.15 51.45 47.05 51.6 46.9 51.6 46.75 51.6 46.6 51.45 46.5 51.35 46.5 51.15 46.5 50.95 46.6 50.8 46.75 50.7 46.9 50.7 47.05 50.7 47.15 50.8
M 46 53.45
L 46.8 53.2
Q 46.95 53.85 46.15 53.5 46.05 53.55 46 53.45
M 45.9 55.2
L 46.85 55.1
Q 47 56.1 48.2 55.9 48.55 55.9 48.95 55.9 48.15 56.7 47 57.45 46.55 57.7 46.25 58.15 45.85 58.75 45.45 59.4 45.3 58.55 45.2 57.7 46.35 56.7 45.9 55.2
M 50.2 53.4
Q 50.35 53.4 50.55 53.4
L 49.55 54.2
Q 49.45 53.7 50.2 53.4
M 43.65 50.3
Q 43.7 50.4 43.7 50.5 43.7 50.6 43.65 50.65 43.6 50.75 43.5 50.75 43.4 50.75 43.35 50.65 43.3 50.6 43.3 50.5 43.3 50.4 43.35 50.3 43.4 50.25 43.5 50.25 43.6 50.25 43.65 50.3
M 43.2 52.1
Q 43 51.95 43.6 51.95 44.2 52.7 43.2 52.1
M 42.45 51.25
Q 41.75 51 42.6 50.95 43.1 51.55 42.45 51.25
M 44.4 58.6
Q 44.4 58.5 44.5 58.45 44.45 59.15 44.4 58.6
M 44.85 56.7
Q 44.7 56.8 44.55 56.7
L 44.7 56.05 45.5 56 45.65 56.4
Q 45.25 56.65 44.85 56.7
M 48.8 57.85
L 49.05 57.5 49.55 57.35 50.3 58.15
Q 50.25 58.25 50.2 58.3 50.05 58.5 49.8 58.6 49.7 58.65 49.6 58.65
L 48.8 57.85
M 57.2 27.45
L 56.2 27.45
Q 56.15 28 56.55 28.25 56.6 28.3 56.7 28.35 57.35 28.35 57.2 27.45
M 57.35 26.25
Q 57.25 26.15 57.1 26.15 56.95 26.15 56.8 26.25 56.7 26.4 56.7 26.6 56.7 26.8 56.8 26.9 56.95 27.05 57.1 27.05 57.25 27.05 57.35 26.9 57.5 26.8 57.5 26.6 57.5 26.4 57.35 26.25
M 60.55 27.8
L 60.35 27.1 59.8 28.3 58.8 27.6
Q 58.85 27.75 58.9 27.95 58.95 28.05 59 28.15 59 28.2 59.05 28.3 59.35 28.75 59.6 28.85
L 60.95 28.45 61.05 28.35
Q 60.85 28.05 60.55 27.8
M 59.05 26.15
Q 59.25 26.15 59.35 26 59.5 25.9 59.5 25.7 59.5 25.5 59.35 25.35 59.25 25.25 59.05 25.25 58.85 25.25 58.7 25.35 58.6 25.5 58.6 25.7 58.6 25.9 58.7 26 58.85 26.15 59.05 26.15
M 52.2 23.25
L 51.8 24.25 50.3 22.75 50.7 24.15
Q 51.35 24.85 52.3 24.25 52.6 24.05 52.9 23.85
L 52.2 23.25
M 48.35 23.8
L 48.85 24.6 50.3 25.2
Q 49.9 24.7 49.45 24.35 48.95 24 48.35 23.8
M 45.55 23.85
Q 45.4 23.85 45.3 23.95 45.2 24.05 45.2 24.15 45.2 24.25 45.3 24.35 45.4 24.45 45.55 24.45 45.7 24.45 45.8 24.35 45.9 24.25 45.9 24.15 45.9 24.05 45.8 23.95 45.7 23.85 45.55 23.85
M 71.5 24.25
L 72.2 24.4 72.75 24.3 74.1 22.9
Q 72.5 21.85 70.7 22.9
L 71.5 24.25
M 74.3 24.5
Q 74.1 24.5 73.9 24.5 73.1 25.25 72.1 25.8 71.65 26.05 71.05 26.05 70.4 25.85 70 26.6
L 69.95 27.05
Q 70.7 28.25 72.2 28.3 73.35 28.3 74.05 27.6
L 73.6 27.1 72.35 27.4 71.95 27.2 75.45 25.6
Q 75.05 24.8 74.3 24.5
M 67.6 19.7
Q 67.6 19.6 67.45 19.5 67.35 19.4 67.2 19.4 67.05 19.4 66.9 19.5 66.8 19.6 66.8 19.7 66.8 19.8 66.9 19.9 67.05 20 67.2 20 67.35 20 67.45 19.9 67.6 19.8 67.6 19.7
M 69.15 20.7
Q 68.9 20.25 68.9 19.8 68.9 18.75 69 17.8
L 67.95 20.8 66.85 21.4
Q 67.05 21.7 67.15 22.05 67.25 22.55 67.3 23.05
L 67 23.45
Q 68.5 24.05 69.7 24.8 70.5 25.35 71.4 25.45 70.8 24.65 70.1 23.9 69.8 23.6 69.75 23.05 69.7 22.6 69.65 22.15 69.5 21.3 69.15 20.7
M 62.9 21.45
L 62.45 21.45 62.45 21.8 62.9 21.8 62.9 21.45
M 63.3 24.2
Q 63.2 24.1 63.05 24.05 62.65 24.4 63.2 24.9 63.65 25.3 64.1 25.7 63.9 24.9 63.3 24.2
M 85.05 67.3
L 85.7 67.6
Q 85.6 67.25 85.45 66.9 85.4 66.8 85.25 66.7 85 66.85 84.9 67.1 84.9 67.15 85.05 67.3
M 81.2 66.5
Q 81.25 66.35 81.2 66.2
L 79.9 66
Q 80 66.2 80.2 66.45 80.35 66.6 80.55 66.8 80.7 66.85 80.85 66.9 80.95 66.8 81.05 66.65 81.2 66.6 81.2 66.5
M 82.25 67.2
Q 82.85 66.75 82.5 66.4 82.25 66.7 82.15 67.1 82.15 67.15 82.25 67.2
M 87.1 65.3
Q 86.65 64.6 86.9 65.25 86.9 65.3 87.1 65.3
M 87.1 67.7
Q 86.6 67.3 86.9 67.7 87.05 67.95 87.1 67.7
M 81.35 51.3
Q 81.3 51.35 81.2 51.3 81.8 51.8 82 51.35 82.1 51.2 82.2 51.05 82.25 50.1 81.45 50.55 81.6 51.1 81.35 51.3
M 81.1 51.35
L 81.2 51.3
Q 81.2 51.25 81.15 51.25
L 81.1 51.35
M 81.1 51.45
L 81.1 51.35
Q 80.45 51.2 81.1 51.45
M 81.45 50.55
Q 81.3 50.5 81.3 50.45 81.15 51.2 81.45 50.55
M 89.95 52.4
Q 89.95 52.45 90.1 52.4 89.95 51.8 89.8 52.1 89.7 52.25 89.95 52.4
M 93.7 44
L 92.35 42.9
Q 93.1 43.75 92.65 44.7 92.5 45.05 92.35 45.4
L 93.4 45.05 93.7 44
M 90.85 46.75
Q 91 46.7 91.1 46.6 91.35 46.4 91.6 46.2 91.05 46.45 90.65 46.7
L 90.85 46.75
M 81.5 43.6
Q 81.35 43.4 81.2 43.65 81.7 44.05 81.5 43.6
M 83.5 47.6
Q 83.7 46.3 85.2 46.3 86.3 46.15 87.45 46 85.7 45.15 83.55 45.05 83.4 45.25 83.25 45.45 82.6 45.2 82 44.95 81.35 44.6 80.5 44.6 81.85 45.4 82.45 46.8 82.25 48.05 81.1 48.5 80.85 48.65 80.6 48.85
L 82.55 48.95 82.45 49.45 84.9 49.55
Q 84.85 48.55 83.65 47.75 83.55 47.7 83.5 47.6
M 88.6 41.9
Q 88.15 41 88.5 41.95
L 88.6 41.9
M 86.35 40.5
Q 85.85 40.3 86.45 40.6
L 86.35 40.5
M 88.2 40.1
Q 87.45 40.25 86.9 40.95 86.85 40.95 86.85 41.05 87.05 41.1 87.2 41.05 87.75 40.65 88.2 40.1
M 81.6 28.9
Q 81.6 28.8 81.5 28.7 81.4 28.6 81.3 28.6 81.2 28.6 81.1 28.7 81 28.8 81 28.9 81 29 81.1 29.1 81.2 29.2 81.3 29.2 81.4 29.2 81.5 29.1 81.6 29 81.6 28.9 Z"/>
</g>
</defs>

<g transform="matrix( 1, 0, 0, 1, 2.75,1.5) ">
<use xlink:href="#Layer1_0_FILL"/>
</g>
</svg>
