
<svg xmlns="http://www.w3.org/2000/svg" version="1.1" xmlns:xlink="http://www.w3.org/1999/xlink" preserveAspectRatio="none" x="0px" y="0px" width="100px" height="100px" viewBox="0 0 100 100">
<defs>
<g id="Layer1_0_FILL">
<path fill="#000000" stroke="none" d="
M 65.55 78.25
Q 65.7 78.1 65.7 77.9 65.7 77.7 65.55 77.55 65.45 77.4 65.25 77.4 65.05 77.4 64.9 77.55 64.8 77.7 64.8 77.9 64.8 78.1 64.9 78.25 65.05 78.4 65.25 78.4 65.45 78.4 65.55 78.25
M 63.05 80
Q 62.9 80 62.75 80.1 62.65 80.25 62.65 80.4 62.65 80.55 62.75 80.65 62.9 80.8 63.05 80.8 63.2 80.8 63.3 80.65 63.45 80.55 63.45 80.4 63.45 80.25 63.3 80.1 63.2 80 63.05 80
M 61.65 78.65
Q 61.5 78.55 61.25 78.55 61 78.55 60.85 78.65 60.7 78.8 60.7 79 60.7 79.2 60.85 79.3 61 79.45 61.25 79.45 61.5 79.45 61.65 79.3 61.8 79.2 61.8 79 61.8 78.8 61.65 78.65
M 63.95 77.1
Q 63.8 77 63.6 77 63.4 77 63.25 77.1 63.1 77.25 63.1 77.4 63.1 77.55 63.25 77.65 63.4 77.8 63.6 77.8 63.8 77.8 63.95 77.65 64.1 77.55 64.1 77.4 64.1 77.25 63.95 77.1
M 66 76.35
L 66 74.65
Q 65.05 75.1 65.7 75.95 65.85 76.15 66 76.35
M 53.2 90.3
L 53.7 90.8
Q 54.15 90.15 53.25 90.15 53.2 90.15 53.2 90.3
M 57.85 91.75
Q 58.05 91.75 58.15 91.6 58.3 91.45 58.3 91.2 58.3 90.95 58.15 90.8 58.05 90.65 57.85 90.65 57.65 90.65 57.5 90.8 57.4 90.95 57.4 91.2 57.4 91.45 57.5 91.6 57.65 91.75 57.85 91.75
M 60.45 86.7
Q 60.4 86.75 60.45 86.85 60.95 87 61.05 86.35 61.1 86.2 61 86.1 60.8 86.3 60.45 86.7
M 50.15 86.2
Q 50.15 86.05 50.05 85.95 49.95 85.85 49.8 85.85 49.65 85.85 49.55 85.95 49.45 86.05 49.45 86.2 49.45 86.35 49.55 86.45 49.65 86.55 49.8 86.55 49.95 86.55 50.05 86.45 50.15 86.35 50.15 86.2
M 48.2 82.8
L 48.4 82.4 48.2 81.9 47.8 81.6 47.1 81.9
Q 46.8 82.3 47.25 82.6 47.5 82.8 47.8 82.8 47.95 82.9 48.2 82.8
M 42 83.1
Q 41.9 83.25 41.9 83.45 41.9 83.65 42 83.75 42.15 83.9 42.35 83.9 42.55 83.9 42.65 83.75 42.8 83.65 42.8 83.45 42.8 83.25 42.65 83.1 42.55 83 42.35 83 42.15 83 42 83.1
M 45.3 82.6
Q 45.3 82.4 45.15 82.25 45.05 82.15 44.9 82.15 44.75 82.15 44.6 82.25 44.5 82.4 44.5 82.6 44.5 82.8 44.6 82.9 44.75 83.05 44.9 83.05 45.05 83.05 45.15 82.9 45.3 82.8 45.3 82.6
M 45.4 79.75
Q 45.45 79.8 45.5 79.9 45.9 79.15 44.95 79.1 44.85 79.05 44.8 79.1 44.7 79.6 45.4 79.75
M 41.8 79.65
Q 41.9 79.85 42.05 80.05 42.25 80.3 42.5 80.5 42.95 79.9 42.1 79.55 41.95 79.6 41.8 79.65
M 42.75 78.2
Q 42.75 78.05 42.6 77.95 42.5 77.85 42.35 77.85 42.2 77.85 42.05 77.95 41.95 78.05 41.95 78.2 41.95 78.35 42.05 78.45 42.2 78.55 42.35 78.55 42.5 78.55 42.6 78.45 42.75 78.35 42.75 78.2
M 41.25 76.85
Q 40.95 76.8 40.65 76.8 40.15 77 40.3 77.2 40.45 77.45 40.7 77.25
L 41.25 76.85
M 43.3 76.9
Q 43.45 76.8 43.45 76.6 43.45 76.4 43.3 76.25 43.2 76.15 43.05 76.15 42.9 76.15 42.75 76.25 42.65 76.4 42.65 76.6 42.65 76.8 42.75 76.9 42.9 77.05 43.05 77.05 43.2 77.05 43.3 76.9
M 44.05 75.5
Q 44.2 75.4 44.2 75.25 44.2 75.1 44.05 75 43.95 74.9 43.75 74.9 43.55 74.9 43.4 75 43.3 75.1 43.3 75.25 43.3 75.4 43.4 75.5 43.55 75.6 43.75 75.6 43.95 75.6 44.05 75.5
M 49.45 80.1
Q 49.35 80.25 49.35 80.4 49.35 80.55 49.45 80.65 49.6 80.8 49.75 80.8 49.9 80.8 50 80.65 50.15 80.55 50.15 80.4 50.15 80.25 50 80.1 49.9 80 49.75 80 49.6 80 49.45 80.1
M 46.4 78.4
Q 46.55 78.3 46.55 78.15 46.55 78 46.4 77.85 46.3 77.75 46.1 77.75 45.9 77.75 45.75 77.85 45.65 78 45.65 78.15 45.65 78.3 45.75 78.4 45.9 78.55 46.1 78.55 46.3 78.55 46.4 78.4
M 47.95 78.15
Q 47.95 78 47.8 77.85 47.7 77.75 47.5 77.75 47.3 77.75 47.15 77.85 47.05 78 47.05 78.15 47.05 78.3 47.15 78.4 47.3 78.55 47.5 78.55 47.7 78.55 47.8 78.4 47.95 78.3 47.95 78.15
M 46.7 75.6
Q 46.55 75.6 46.4 75.7 46.3 75.8 46.3 75.95 46.3 76.1 46.4 76.2 46.55 76.3 46.7 76.3 46.85 76.3 46.95 76.2 47.1 76.1 47.1 75.95 47.1 75.8 46.95 75.7 46.85 75.6 46.7 75.6
M 48.55 76.25
L 48.55 75.6 48 75.6 48 76.25 48.55 76.25
M 50.1 74.75
Q 50.25 74.65 50.25 74.5 50.25 74.35 50.1 74.25 50 74.15 49.8 74.15 49.6 74.15 49.45 74.25 49.35 74.35 49.35 74.5 49.35 74.65 49.45 74.75 49.6 74.85 49.8 74.85 50 74.85 50.1 74.75
M 59.2 86.4
Q 59.3 86.3 59.3 86.1 59.3 85.9 59.2 85.75 59.1 85.65 58.95 85.65 58.8 85.65 58.7 85.75 58.6 85.9 58.6 86.1 58.6 86.3 58.7 86.4 58.8 86.55 58.95 86.55 59.1 86.55 59.2 86.4
M 57.15 85.85
L 56.4 86.4
Q 57.05 86.7 57.2 86.05 57.25 85.95 57.15 85.85
M 57.55 82.95
Q 57.45 83.1 57.45 83.3 57.45 83.5 57.55 83.6 57.7 83.75 57.85 83.75 58 83.75 58.1 83.6 58.25 83.5 58.25 83.3 58.25 83.1 58.1 82.95 58 82.85 57.85 82.85 57.7 82.85 57.55 82.95
M 56.7 82.9
Q 56.85 82.8 56.85 82.6 56.85 82.4 56.7 82.25 56.6 82.15 56.45 82.15 56.3 82.15 56.15 82.25 56.05 82.4 56.05 82.6 56.05 82.8 56.15 82.9 56.3 83.05 56.45 83.05 56.6 83.05 56.7 82.9
M 58.8 80.65
L 59.05 80.65
Q 59.5 80.2 59 80.3 58.75 80.35 58.8 80.65
M 51.65 82.25
Q 51.55 82.4 51.55 82.6 51.55 82.8 51.65 82.9 51.8 83.05 51.95 83.05 52.1 83.05 52.2 82.9 52.35 82.8 52.35 82.6 52.35 82.4 52.2 82.25 52.1 82.15 51.95 82.15 51.8 82.15 51.65 82.25
M 50.85 83.3
Q 50.85 83.1 50.75 82.95 50.65 82.85 50.5 82.85 50.35 82.85 50.25 82.95 50.15 83.1 50.15 83.3 50.15 83.5 50.25 83.6 50.35 83.75 50.5 83.75 50.65 83.75 50.75 83.6 50.85 83.5 50.85 83.3
M 55.15 82.9
Q 55.3 82.8 55.3 82.65 55.3 82.5 55.15 82.4 55.05 82.3 54.9 82.3 54.75 82.3 54.6 82.4 54.5 82.5 54.5 82.65 54.5 82.8 54.6 82.9 54.75 83 54.9 83 55.05 83 55.15 82.9
M 55.2 79.9
Q 55.35 79.8 55.35 79.6 55.35 79.4 55.2 79.25 55.1 79.15 54.95 79.15 54.8 79.15 54.65 79.25 54.55 79.4 54.55 79.6 54.55 79.8 54.65 79.9 54.8 80.05 54.95 80.05 55.1 80.05 55.2 79.9
M 53.75 80.2
Q 53.65 80.1 53.5 80.1 53.35 80.1 53.25 80.2 53.15 80.3 53.15 80.45 53.15 80.6 53.25 80.7 53.35 80.8 53.5 80.8 53.65 80.8 53.75 80.7 53.85 80.6 53.85 80.45 53.85 80.3 53.75 80.2
M 53.3 78.7
Q 53.5 78.55 53.6 78.4 53.85 78.1 54 77.75 54.1 77.4 54.2 77.1
L 53.3 78.7
M 50.85 78.9
Q 50.85 78.75 50.7 78.6 50.6 78.5 50.45 78.5 50.3 78.5 50.15 78.6 50.05 78.75 50.05 78.9 50.05 79.05 50.15 79.15 50.3 79.3 50.45 79.3 50.6 79.3 50.7 79.15 50.85 79.05 50.85 78.9
M 51.65 80.4
Q 51.65 80.25 51.5 80.1 51.4 80 51.25 80 51.1 80 50.95 80.1 50.85 80.25 50.85 80.4 50.85 80.55 50.95 80.65 51.1 80.8 51.25 80.8 51.4 80.8 51.5 80.65 51.65 80.55 51.65 80.4
M 53.2 74.5
Q 53.05 75.3 53.75 75.5 53.8 75.45 53.9 75.45 54.05 74.8 53.2 74.5
M 57.9 78.7
Q 57.9 79.05 58.1 79.3 58.35 79.6 58.65 79.6 58.95 79.6 59.15 79.3 59.4 79.05 59.4 78.7 59.4 78.35 59.15 78.05 58.95 77.8 58.65 77.8 58.35 77.8 58.1 78.05 57.9 78.35 57.9 78.7
M 58.9 75.95
Q 59 76.05 59.2 76.15
L 61.85 75.7
Q 61.7 75.2 61.1 75.2 60 75.45 58.9 75.3
L 58.3 74.15 58 74.6
Q 58.1 75.55 58.9 75.95
M 60.3 72.65
Q 60.2 72.55 60.05 72.55 59.9 72.55 59.75 72.65 59.65 72.8 59.65 73 59.65 73.2 59.75 73.3 59.9 73.45 60.05 73.45 60.2 73.45 60.3 73.3 60.45 73.2 60.45 73 60.45 72.8 60.3 72.65
M 57.8 71.3
Q 57.45 71.85 58.2 72.1 58.3 72.1 58.4 72.15 58.5 72.05 58.5 71.9 58.55 71.7 58.5 71.5
L 57.8 71.3
M 58 69.55
Q 58.15 69.35 58.15 69.1 58.15 68.85 58 68.65 57.85 68.45 57.6 68.45 57.35 68.45 57.2 68.65 57.05 68.85 57.05 69.1 57.05 69.35 57.2 69.55 57.35 69.75 57.6 69.75 57.85 69.75 58 69.55
M 60.3 70.3
Q 60.45 70.2 60.45 70 60.45 69.8 60.3 69.65 60.2 69.55 60.05 69.55 59.9 69.55 59.75 69.65 59.65 69.8 59.65 70 59.65 70.2 59.75 70.3 59.9 70.45 60.05 70.45 60.2 70.45 60.3 70.3
M 55.3 72.8
L 55.3 73.35 56 73.35 56 72.8 55.3 72.8
M 54.25 72.55
Q 54.1 72.55 53.95 72.65 53.85 72.8 53.85 73 53.85 73.2 53.95 73.3 54.1 73.45 54.25 73.45 54.4 73.45 54.5 73.3 54.65 73.2 54.65 73 54.65 72.8 54.5 72.65 54.4 72.55 54.25 72.55
M 53.8 71.65
Q 53.8 71.75 53.9 71.75 54.05 71.1 53.2 70.8 53.05 71.5 53.8 71.65
M 55.3 71.55
Q 55.3 71.4 55.15 71.3 55.05 71.2 54.9 71.2 54.75 71.2 54.6 71.3 54.5 71.4 54.5 71.55 54.5 71.7 54.6 71.8 54.75 71.9 54.9 71.9 55.05 71.9 55.15 71.8 55.3 71.7 55.3 71.55
M 50.9 73.4
Q 50.9 74.45 51.55 73.9 51.55 73.85 51.55 73.8
L 50.9 73.4
M 51.25 72.4
Q 51.25 72.25 51.15 72.1 51.05 72 50.9 72 50.75 72 50.65 72.1 50.55 72.25 50.55 72.4 50.55 72.55 50.65 72.65 50.75 72.8 50.9 72.8 51.05 72.8 51.15 72.65 51.25 72.55 51.25 72.4
M 55.5 69.05
Q 55.4 69.2 55.4 69.35 55.4 69.5 55.5 69.6 55.6 69.75 55.7 69.75 55.8 69.75 55.9 69.6 56 69.5 56 69.35 56 69.2 55.9 69.05 55.8 68.95 55.7 68.95 55.6 68.95 55.5 69.05
M 53.6 69.6
Q 53.7 69.5 53.7 69.35 53.7 69.2 53.6 69.05 53.5 68.95 53.4 68.95 53.3 68.95 53.2 69.05 53.1 69.2 53.1 69.35 53.1 69.5 53.2 69.6 53.3 69.75 53.4 69.75 53.5 69.75 53.6 69.6
M 54.15 66.4
L 53.9 67.3 54.35 67.5
Q 54.7 67.15 54.9 66.7 55 66.55 54.95 66.35
L 54.15 66.4
M 59.7 67.6
Q 59.6 67.75 59.6 67.95 59.6 68.15 59.7 68.25 59.85 68.4 60.05 68.4 60.25 68.4 60.35 68.25 60.5 68.15 60.5 67.95 60.5 67.75 60.35 67.6 60.25 67.5 60.05 67.5 59.85 67.5 59.7 67.6
M 59.75 66.5
Q 59.75 66.15 59.55 65.9 59.35 65.65 59.05 65.65 58.75 65.65 58.55 65.9 58.35 66.15 58.35 66.5 58.35 66.85 58.55 67.1 58.75 67.35 59.05 67.35 59.35 67.35 59.55 67.1 59.75 66.85 59.75 66.5
M 56.4 64.3
L 56.6 63.9 55.85 63.15 55.4 63.3 55.25 63.75 56 64.5 56.4 64.3
M 47.6 73.7
Q 47.7 73.9 47.9 74.05
L 48.85 74.1
Q 49.55 73.7 49.4 72.75 49.3 72.2 49.1 71.75 49 71.55 48.85 71.4
L 48.3 71.3 47.5 71.65
Q 46.95 72.75 47.6 73.7
M 46.45 70.3
Q 46.6 70.45 46.75 70.45 46.9 70.45 47 70.3 47.15 70.2 47.15 70 47.15 69.8 47 69.65 46.9 69.55 46.75 69.55 46.6 69.55 46.45 69.65 46.35 69.8 46.35 70 46.35 70.2 46.45 70.3
M 45.7 68.85
Q 45.85 69.05 46.1 68.85 46.25 68.55 46 68.3 45.65 68.05 45.2 67.9 45.4 68.4 45.7 68.85
M 50 69.6
Q 50.1 69.5 50.1 69.35 50.1 69.2 50 69.05 49.9 68.95 49.75 68.95 49.6 68.95 49.5 69.05 49.4 69.2 49.4 69.35 49.4 69.5 49.5 69.6 49.6 69.75 49.75 69.75 49.9 69.75 50 69.6
M 45.1 73.05
Q 45 73.05 44.9 73.15
L 44.5 74.65
Q 44.65 75.05 45 75.3 45.15 75.5 45.45 75.6
L 46.15 74.9
Q 46.35 73.75 45.4 73.1 45.25 73.05 45.1 73.05
M 42.7 72.9
Q 42.65 73 42.75 73.2
L 43.25 73.75 43.15 72.9
Q 42.9 72.15 42.7 72.9
M 41.4 73.3
Q 41.7 73.45 42 73.65 41.8 72.4 40.85 72.2 40.5 72.1 40.2 72.05 40.5 72.8 41.4 73.3
M 41.7 69.3
Q 41.9 69.1 41.9 68.85 41.9 68.6 41.7 68.4 41.55 68.2 41.3 68.2 41.05 68.2 40.85 68.4 40.7 68.6 40.7 68.85 40.7 69.1 40.85 69.3 41.05 69.5 41.3 69.5 41.55 69.5 41.7 69.3
M 44.9 70.3
L 44.45 70.05
Q 43.5 70.05 42.8 70.9
L 44.6 70.7 44.9 70.3
M 41.95 67.3
Q 42.2 67.6 42.55 67.6 42.9 67.6 43.1 67.3 43.35 67 43.35 66.6 43.35 66.2 43.1 65.9 42.9 65.6 42.55 65.6 42.2 65.6 41.95 65.9 41.75 66.2 41.75 66.6 41.75 67 41.95 67.3
M 43.45 64.4
Q 43.4 64.4 43.35 64.45 43.35 65 44 65.15 44.4 64.6 43.45 64.4
M 49.05 67.5
Q 49.2 67.5 49.3 67.35 49.45 67.25 49.45 67.05 49.45 66.85 49.3 66.7 49.2 66.6 49.05 66.6 48.9 66.6 48.75 66.7 48.65 66.85 48.65 67.05 48.65 67.25 48.75 67.35 48.9 67.5 49.05 67.5
M 47.1 67.6
Q 47 67.75 47 67.95 47 68.15 47.1 68.25 47.25 68.4 47.45 68.4 47.65 68.4 47.75 68.25 47.9 68.15 47.9 67.95 47.9 67.75 47.75 67.6 47.65 67.5 47.45 67.5 47.25 67.5 47.1 67.6
M 46.5 66.35
Q 46.5 66.2 46.35 66.1 46.25 66 46.1 66 45.95 66 45.8 66.1 45.7 66.2 45.7 66.35 45.7 66.5 45.8 66.6 45.95 66.7 46.1 66.7 46.25 66.7 46.35 66.6 46.5 66.5 46.5 66.35
M 45.75 64.9
Q 45.75 64.7 45.6 64.55 45.5 64.45 45.35 64.45 45.2 64.45 45.05 64.55 44.95 64.7 44.95 64.9 44.95 65.1 45.05 65.2 45.2 65.35 45.35 65.35 45.5 65.35 45.6 65.2 45.75 65.1 45.75 64.9
M 47.5 63.8
L 47.6 62.75 48.5 61.8 46.8 61.9
Q 46.45 62.7 47.15 63.45 47.3 63.65 47.5 63.8
M 48.5 64.6
Q 48.4 64.5 48.25 64.5 48.1 64.5 47.95 64.6 47.85 64.75 47.85 64.9 47.85 65.05 47.95 65.15 48.1 65.3 48.25 65.3 48.4 65.3 48.5 65.15 48.65 65.05 48.65 64.9 48.65 64.75 48.5 64.6
M 50.15 62.7
Q 49.9 62.25 49.55 61.9 49.7 62.4 49.95 62.9 50.2 63.35 50.55 63.8 50.4 63.2 50.15 62.7
M 50.2 64.55
Q 49.95 64.55 49.75 64.65 49.6 64.8 49.6 65 49.6 65.2 49.75 65.3 49.95 65.45 50.2 65.45 50.45 65.45 50.6 65.3 50.8 65.2 50.8 65 50.8 64.8 50.6 64.65 50.45 64.55 50.2 64.55
M 46.75 60.6
Q 46.95 60.4 46.95 60.1 46.95 59.8 46.75 59.6 46.6 59.4 46.35 59.4 46.1 59.4 45.9 59.6 45.75 59.8 45.75 60.1 45.75 60.4 45.9 60.6 46.1 60.8 46.35 60.8 46.6 60.8 46.75 60.6
M 46.4 55.8
L 47.4 55.75 47.4 54.6 46.4 55.8
M 49.05 57
Q 48.9 57 48.75 57.1 48.65 57.25 48.65 57.45 48.65 57.65 48.75 57.75 48.9 57.9 49.05 57.9 49.2 57.9 49.3 57.75 49.45 57.65 49.45 57.45 49.45 57.25 49.3 57.1 49.2 57 49.05 57
M 44.25 61.05
L 43.4 60.8
Q 43.55 61.9 44.25 62.75 44.5 63.1 44.8 63.4
L 44.25 61.05
M 43.85 59.85
Q 43.85 59.65 43.75 59.5 43.65 59.4 43.5 59.4 43.35 59.4 43.25 59.5 43.15 59.65 43.15 59.85 43.15 60.05 43.25 60.15 43.35 60.3 43.5 60.3 43.65 60.3 43.75 60.15 43.85 60.05 43.85 59.85
M 41.6 61.6
Q 41.1 61.25 40.7 61.8 40.4 62.9 41.4 63.6 41.5 63.7 41.65 63.75 41.9 63.6 42.15 63.45 42.3 63.35 42.4 63.2 42.5 62.25 41.6 61.6
M 40.85 56.8
Q 40.75 56.95 41.4 57.55
L 41.8 58.2 42.55 57.95 41.5 56.8 40.85 56.8
M 45 57.5
L 45.4 58.5 45.1 56.8 45 57.5
M 44.1 57.75
Q 44.25 57.65 44.25 57.5 44.25 57.35 44.1 57.25 44 57.15 43.8 57.15 43.6 57.15 43.45 57.25 43.35 57.35 43.35 57.5 43.35 57.65 43.45 57.75 43.6 57.85 43.8 57.85 44 57.85 44.1 57.75
M 44.5 54.25
Q 43.85 54.1 43.2 54 43.65 54.15 44.15 54.35 44.3 54.25 44.5 54.25
M 42.5 55.55
Q 42.7 55.4 42.7 55.2 42.7 55 42.5 54.85 42.3 54.7 42.05 54.7 41.8 54.7 41.6 54.85 41.4 55 41.4 55.2 41.4 55.4 41.6 55.55 41.8 55.7 42.05 55.7 42.3 55.7 42.5 55.55
M 50.35 53.5
Q 49.55 54.05 49.55 55
L 50 54.9 50.55 53.95 50.35 53.5
M 47.75 52.3
Q 47.75 52.2 47.7 52.1 47.25 52.45 47 52.75
L 47.05 52.85
Q 47.75 53.05 47.75 52.3
M 46.3 51.8
Q 46.45 51.7 46.45 51.5 46.45 51.3 46.3 51.15 46.2 51.05 46.05 51.05 45.9 51.05 45.75 51.15 45.65 51.3 45.65 51.5 45.65 51.7 45.75 51.8 45.9 51.95 46.05 51.95 46.2 51.95 46.3 51.8
M 47.95 50.9
Q 47.95 50.7 47.8 50.55 47.7 50.45 47.55 50.45 47.4 50.45 47.25 50.55 47.15 50.7 47.15 50.9 47.15 51.1 47.25 51.2 47.4 51.35 47.55 51.35 47.7 51.35 47.8 51.2 47.95 51.1 47.95 50.9
M 50.1 52.35
Q 50.1 52.2 50 52.05 49.9 51.95 49.75 51.95 49.6 51.95 49.5 52.05 49.4 52.2 49.4 52.35 49.4 52.5 49.5 52.6 49.6 52.75 49.75 52.75 49.9 52.75 50 52.6 50.1 52.5 50.1 52.35
M 59.25 61.55
Q 58.95 61.55 58.75 61.75 58.55 62 58.55 62.35 58.55 62.7 58.75 62.9 58.95 63.15 59.25 63.15 59.55 63.15 59.75 62.9 59.95 62.7 59.95 62.35 59.95 62 59.75 61.75 59.55 61.55 59.25 61.55
M 59 60.55
Q 59.15 60.4 59.15 60.15 59.15 59.9 59 59.75 58.85 59.6 58.65 59.6 58.45 59.6 58.3 59.75 58.15 59.9 58.15 60.15 58.15 60.4 58.3 60.55 58.45 60.7 58.65 60.7 58.85 60.7 59 60.55
M 56.45 61.55
Q 56.65 61.7 56.9 61.7 57.15 61.7 57.3 61.55 57.5 61.45 57.5 61.25 57.5 61.05 57.3 60.9 57.15 60.8 56.9 60.8 56.65 60.8 56.45 60.9 56.3 61.05 56.3 61.25 56.3 61.45 56.45 61.55
M 56.7 57.8
Q 56.85 57.7 56.85 57.5 56.85 57.3 56.7 57.15 56.6 57.05 56.45 57.05 56.3 57.05 56.15 57.15 56.05 57.3 56.05 57.5 56.05 57.7 56.15 57.8 56.3 57.95 56.45 57.95 56.6 57.95 56.7 57.8
M 55.35 59.7
Q 55.35 59.9 55.45 60 55.6 60.15 55.75 60.15 55.9 60.15 56 60 56.15 59.9 56.15 59.7 56.15 59.5 56 59.35 55.9 59.25 55.75 59.25 55.6 59.25 55.45 59.35 55.35 59.5 55.35 59.7
M 51.2 61.55
Q 51 61.55 50.85 61.65 50.75 61.75 50.75 61.9 50.75 62.05 50.85 62.15 51 62.25 51.2 62.25 51.4 62.25 51.5 62.15 51.65 62.05 51.65 61.9 51.65 61.75 51.5 61.65 51.4 61.55 51.2 61.55
M 52.7 60.05
Q 52.65 60.15 52.6 60.3
L 53.5 60.8
Q 53.8 59.95 52.7 60.05
M 50.7 58.5
Q 50.85 58.4 50.85 58.25 50.85 58.1 50.7 58 50.6 57.9 50.45 57.9 50.3 57.9 50.15 58 50.05 58.1 50.05 58.25 50.05 58.4 50.15 58.5 50.3 58.6 50.45 58.6 50.6 58.6 50.7 58.5
M 50.85 57.1
Q 51 57 51 56.8 51 56.6 50.85 56.45 50.75 56.35 50.55 56.35 50.35 56.35 50.2 56.45 50.1 56.6 50.1 56.8 50.1 57 50.2 57.1 50.35 57.25 50.55 57.25 50.75 57.25 50.85 57.1
M 52.2 57.15
Q 52.1 57.05 51.95 57.05 51.8 57.05 51.65 57.15 51.55 57.3 51.55 57.5 51.55 57.7 51.65 57.8 51.8 57.95 51.95 57.95 52.1 57.95 52.2 57.8 52.35 57.7 52.35 57.5 52.35 57.3 52.2 57.15
M 55.2 57.9
L 55.2 57.35
Q 55 56.65 54.15 56.4 54.05 56.45 53.95 56.5 53.8 57.35 55.2 57.9
M 52.5 53.5
L 52.7 54.4 53.6 55.3
Q 53.5 54.75 53.25 54.3 52.95 53.85 52.5 53.5
M 51.45 51.85
Q 51.6 51.75 51.6 51.6 51.6 51.45 51.45 51.3 51.35 51.2 51.15 51.2 50.95 51.2 50.8 51.3 50.7 51.45 50.7 51.6 50.7 51.75 50.8 51.85 50.95 52 51.15 52 51.35 52 51.45 51.85
M 54 51.8
Q 54.55 51.45 53.9 51.15 53.45 50.85 53 50.65 52.85 50.75 52.75 50.85 52.25 51.45 52.9 52 53.55 52.15 54 51.8
M 56.45 54.85
Q 57.2 55.35 57.95 54.85 58.4 54.55 58.8 54.2 59.25 53.9 59.6 53.5
L 58.5 53.8 58 52.3 56 54.5
Q 56.2 54.65 56.45 54.85
M 56.9 50.4
Q 57.5 50.85 58.2 51.3 58 50.3 57.05 49.9 56.95 49.85 56.85 49.85 56.45 50.15 56.9 50.4
M 60.3 51.8
Q 60.45 51.7 60.45 51.55 60.45 51.4 60.3 51.3 60.2 51.2 60.05 51.2 59.9 51.2 59.75 51.3 59.65 51.4 59.65 51.55 59.65 51.7 59.75 51.8 59.9 51.9 60.05 51.9 60.2 51.9 60.3 51.8
M 72 71.65
Q 72.05 71.7 72.1 71.8 72.45 71.1 71.55 70.95 71.45 70.95 71.4 71 71.2 71.55 72 71.65
M 73.85 67.45
Q 73.75 67.6 73.75 67.8 73.75 68 73.85 68.1 74 68.25 74.15 68.25 74.3 68.25 74.4 68.1 74.55 68 74.55 67.8 74.55 67.6 74.4 67.45 74.3 67.35 74.15 67.35 74 67.35 73.85 67.45
M 71.4 65.9
Q 71.55 65.8 71.55 65.6 71.55 65.4 71.4 65.25 71.3 65.15 71.15 65.15 71 65.15 70.85 65.25 70.75 65.4 70.75 65.6 70.75 65.8 70.85 65.9 71 66.05 71.15 66.05 71.3 66.05 71.4 65.9
M 71.4 63.65
Q 71.55 63.55 71.55 63.4 71.55 63.25 71.4 63.1 71.3 63 71.15 63 71 63 70.85 63.1 70.75 63.25 70.75 63.4 70.75 63.55 70.85 63.65 71 63.8 71.15 63.8 71.3 63.8 71.4 63.65
M 73.4 63.65
Q 72.9 63.45 72.75 63.8
L 73.6 64.4
Q 74 63.9 73.4 63.65
M 74.55 63.85
Q 74.45 64 74.45 64.15 74.45 64.3 74.55 64.4 74.7 64.55 74.9 64.55 75.1 64.55 75.2 64.4 75.35 64.3 75.35 64.15 75.35 64 75.2 63.85 75.1 63.75 74.9 63.75 74.7 63.75 74.55 63.85
M 73.65 64.8
Q 73.55 64.8 73.45 64.95 73.35 65.1 73.35 65.3 73.35 65.5 73.45 65.65 73.55 65.8 73.65 65.8 73.75 65.8 73.85 65.65 73.95 65.5 73.95 65.3 73.95 65.1 73.85 64.95 73.75 64.8 73.65 64.8
M 76.6 67.3
Q 76.75 67.2 76.75 67.05 76.75 66.9 76.6 66.75 76.5 66.65 76.35 66.65 76.2 66.65 76.05 66.75 75.95 66.9 75.95 67.05 75.95 67.2 76.05 67.3 76.2 67.45 76.35 67.45 76.5 67.45 76.6 67.3
M 76.7 63.65
Q 76.8 63.55 76.8 63.4 76.8 63.25 76.7 63.15 76.6 63.05 76.45 63.05 76.3 63.05 76.2 63.15 76.1 63.25 76.1 63.4 76.1 63.55 76.2 63.65 76.3 63.75 76.45 63.75 76.6 63.75 76.7 63.65
M 64.95 73.15
Q 65.1 72.95 65.1 72.7 65.1 72.45 64.95 72.25 64.8 72.05 64.55 72.05 64.3 72.05 64.15 72.25 64 72.45 64 72.7 64 72.95 64.15 73.15 64.3 73.35 64.55 73.35 64.8 73.35 64.95 73.15
M 61.85 72.35
L 61 71.4
Q 60.75 72.4 61.85 72.5
L 61.85 72.35
M 61.95 69.4
Q 61.95 69.2 61.8 69.05 61.7 68.95 61.55 68.95 61.4 68.95 61.25 69.05 61.15 69.2 61.15 69.4 61.15 69.6 61.25 69.7 61.4 69.85 61.55 69.85 61.7 69.85 61.8 69.7 61.95 69.6 61.95 69.4
M 60.95 64.55
Q 60.8 64.7 60.8 64.9 60.8 65.1 60.95 65.2 61.1 65.35 61.3 65.35 61.5 65.35 61.65 65.2 61.8 65.1 61.8 64.9 61.8 64.7 61.65 64.55 61.5 64.45 61.3 64.45 61.1 64.45 60.95 64.55
M 63.3 63.65
Q 63.45 63.55 63.45 63.4 63.45 63.25 63.3 63.1 63.2 63 63.05 63 62.9 63 62.75 63.1 62.65 63.25 62.65 63.4 62.65 63.55 62.75 63.65 62.9 63.8 63.05 63.8 63.2 63.8 63.3 63.65
M 64.95 64.45
Q 65.55 64.8 65.8 64.3 65.8 64 65.4 63.6 65.2 63.35 65 63.15
L 64.3 63.4
Q 64.15 64.15 64.95 64.45
M 70.55 68
Q 70.7 67.9 70.7 67.75 70.7 67.6 70.55 67.45 70.4 67.35 70.15 67.35 69.9 67.35 69.75 67.45 69.6 67.6 69.6 67.75 69.6 67.9 69.75 68 69.9 68.15 70.15 68.15 70.4 68.15 70.55 68
M 66 67.85
Q 66.3 67.65 66.3 67.3 66.3 66.95 66 66.7 65.7 66.5 65.3 66.5 64.9 66.5 64.6 66.7 64.3 66.95 64.3 67.3 64.3 67.65 64.6 67.85 64.9 68.1 65.3 68.1 65.7 68.1 66 67.85
M 65.6 66.75
Q 65.75 66.9 65.75 67.1 65.75 67.3 65.6 67.4 65.5 67.55 65.35 67.55 65.2 67.55 65.05 67.4 64.95 67.3 64.95 67.1 64.95 66.9 65.05 66.75 65.2 66.65 65.35 66.65 65.5 66.65 65.6 66.75
M 67.7 65.5
Q 67.3 65.75 68.05 66.25 68.25 66.35 68.55 66.35
L 67.7 65.5
M 69.35 64.65
Q 69.25 64.75 69.25 64.9 69.25 65.05 69.35 65.15 69.5 65.25 69.7 65.25 69.9 65.25 70 65.15 70.15 65.05 70.15 64.9 70.15 64.75 70 64.65 69.9 64.55 69.7 64.55 69.5 64.55 69.35 64.65
M 69.4 60.85
Q 69.3 61 69.3 61.15 69.3 61.3 69.4 61.4 69.55 61.55 69.75 61.55 69.95 61.55 70.05 61.4 70.2 61.3 70.2 61.15 70.2 61 70.05 60.85 69.95 60.75 69.75 60.75 69.55 60.75 69.4 60.85
M 69.8 59.25
Q 69.9 59.25 70 59.3 70.3 58.6 69.6 58.8 69.3 59 69.8 59.25
M 67.25 61.25
Q 66.9 61.2 66.55 61.2
L 68.45 62.25 67.9 61.55
Q 67.55 61.4 67.25 61.25
M 69.3 57.75
Q 69.45 57.65 69.45 57.5 69.45 57.35 69.3 57.25 69.2 57.15 69 57.15 68.8 57.15 68.65 57.25 68.55 57.35 68.55 57.5 68.55 57.65 68.65 57.75 68.8 57.85 69 57.85 69.2 57.85 69.3 57.75
M 62.7 60.55
Q 62.85 60.7 63.05 60.7 63.25 60.7 63.4 60.55 63.55 60.4 63.55 60.15 63.55 59.9 63.4 59.75 63.25 59.6 63.05 59.6 62.85 59.6 62.7 59.75 62.55 59.9 62.55 60.15 62.55 60.4 62.7 60.55
M 62.25 58.2
L 61.35 57.5
Q 61.05 57.85 60.8 58.3 60.65 58.6 60.55 59
L 62.25 58.2
M 65.75 58
Q 65.65 58.1 65.65 58.25 65.65 58.4 65.75 58.5 65.9 58.6 66.05 58.6 66.2 58.6 66.3 58.5 66.45 58.4 66.45 58.25 66.45 58.1 66.3 58 66.2 57.9 66.05 57.9 65.9 57.9 65.75 58
M 63.65 57.8
Q 63.85 57.6 63.85 57.3 63.85 57 63.65 56.75 63.45 56.55 63.2 56.55 62.95 56.55 62.75 56.75 62.55 57 62.55 57.3 62.55 57.6 62.75 57.8 62.95 58.05 63.2 58.05 63.45 58.05 63.65 57.8
M 65.3 56.95
Q 65.45 57.05 65.65 57.05 65.85 57.05 66 56.95 66.15 56.85 66.15 56.7 66.15 56.55 66 56.45 65.85 56.35 65.65 56.35 65.45 56.35 65.3 56.45 65.15 56.55 65.15 56.7 65.15 56.85 65.3 56.95
M 61.8 53.5
L 61.1 52.85 60.6 52.9 60.55 53.35 61.25 54.1 61.8 53.5
M 62.75 54.75
Q 62.9 54.85 63.1 54.85 63.3 54.85 63.4 54.75 63.55 54.65 63.55 54.5 63.55 54.35 63.4 54.25 63.3 54.15 63.1 54.15 62.9 54.15 62.75 54.25 62.65 54.35 62.65 54.5 62.65 54.65 62.75 54.75
M 61.3 50.1
Q 61.3 49.95 61.15 49.85 61.05 49.75 60.85 49.75 60.65 49.75 60.5 49.85 60.4 49.95 60.4 50.1 60.4 50.25 60.5 50.35 60.65 50.45 60.85 50.45 61.05 50.45 61.15 50.35 61.3 50.25 61.3 50.1
M 64.1 51.1
Q 64.75 51 65.4 50.9
L 62.9 50.7
Q 63.5 50.9 64.1 51.1
M 68.25 50.35
Q 68.4 50.4 68.6 50.5 68.5 49.55 67.7 49.2 67.3 49.85 68.25 50.35
M 69.4 55.05
Q 69.3 55.15 69.3 55.3 69.3 55.45 69.4 55.55 69.55 55.65 69.75 55.65 69.95 55.65 70.05 55.55 70.2 55.45 70.2 55.3 70.2 55.15 70.05 55.05 69.95 54.95 69.75 54.95 69.55 54.95 69.4 55.05
M 67.95 54.1
Q 68.1 54.25 68.25 54.25 68.4 54.25 68.5 54.1 68.65 54 68.65 53.8 68.65 53.6 68.5 53.45 68.4 53.35 68.25 53.35 68.1 53.35 67.95 53.45 67.85 53.6 67.85 53.8 67.85 54 67.95 54.1
M 66.45 54.15
Q 66.6 53.95 66.6 53.65 66.6 53.35 66.45 53.15 66.3 52.95 66.05 52.95 65.8 52.95 65.65 53.15 65.5 53.35 65.5 53.65 65.5 53.95 65.65 54.15 65.8 54.35 66.05 54.35 66.3 54.35 66.45 54.15
M 68.3 51.6
Q 68.35 51.55 68.3 51.4
L 67.45 51.7
Q 67.8 52.55 68.3 51.6
M 70 51.8
Q 70.15 51.7 70.15 51.55 70.15 51.4 70 51.25 69.9 51.15 69.75 51.15 69.6 51.15 69.45 51.25 69.35 51.4 69.35 51.55 69.35 51.7 69.45 51.8 69.6 51.95 69.75 51.95 69.9 51.95 70 51.8
M 79.9 59.55
Q 79.85 59.6 79.9 59.7
L 81 60.8
Q 81.5 60.25 80.9 59.55 80.6 59.3 80.3 59.2 80.25 59.1 80.15 59.15 80 59.3 79.9 59.55
M 76.7 61.4
Q 76.85 61.3 76.85 61.15 76.85 61 76.7 60.85 76.6 60.75 76.4 60.75 76.2 60.75 76.05 60.85 75.95 61 75.95 61.15 75.95 61.3 76.05 61.4 76.2 61.55 76.4 61.55 76.6 61.55 76.7 61.4
M 78.35 59.35
Q 78.25 59.5 78.25 59.7 78.25 59.9 78.35 60 78.5 60.15 78.65 60.15 78.8 60.15 78.9 60 79.05 59.9 79.05 59.7 79.05 59.5 78.9 59.35 78.8 59.25 78.65 59.25 78.5 59.25 78.35 59.35
M 75.95 56.25
L 76.8 56.4 76.4 55.7
Q 75.7 55.3 75.8 56 75.85 56.15 75.95 56.25
M 79 56.5
Q 79 57.5 79.6 56.8 79.8 56.55 79.3 56.4 79.15 56.45 79 56.5
M 74.55 60.8
Q 74.55 60.95 74.55 61.15 74.95 62 75.45 61.4 75.5 61.35 75.55 61.3 75.25 60.85 74.55 60.8
M 72.9 60.2
L 71.9 60.8 71.8 61.6 72.9 60.2
M 72.4 58.35
Q 72.6 58.15 72.7 57.9 72.7 57.1 71.95 57.1 71.6 57.1 71.15 57.45
L 71.15 58.35
Q 71.85 58.75 72.4 58.35
M 74.55 57.5
Q 74.55 57.3 74.4 57.15 74.3 57.05 74.15 57.05 74 57.05 73.85 57.15 73.75 57.3 73.75 57.5 73.75 57.7 73.85 57.8 74 57.95 74.15 57.95 74.3 57.95 74.4 57.8 74.55 57.7 74.55 57.5
M 71.1 51.05
Q 72 51.85 73 52.6
L 69.6 49.4
Q 70.3 50.25 71.1 51.05
M 72.8 55.45
Q 72.95 55.6 73.15 55.6 73.35 55.6 73.5 55.45 73.65 55.35 73.65 55.15 73.65 54.95 73.5 54.8 73.35 54.7 73.15 54.7 72.95 54.7 72.8 54.8 72.65 54.95 72.65 55.15 72.65 55.35 72.8 55.45
M 71.15 53.35
Q 71 53.35 70.85 53.45 70.75 53.6 70.75 53.8 70.75 54 70.85 54.1 71 54.25 71.15 54.25 71.3 54.25 71.4 54.1 71.55 54 71.55 53.8 71.55 53.6 71.4 53.45 71.3 53.35 71.15 53.35
M 79.3 55.65
Q 79.5 55.65 79.6 55.55 79.75 55.45 79.75 55.3 79.75 55.15 79.6 55.05 79.5 54.95 79.3 54.95 79.1 54.95 78.95 55.05 78.85 55.15 78.85 55.3 78.85 55.45 78.95 55.55 79.1 55.65 79.3 55.65
M 80.2 52.65
Q 80.05 52.8 80.05 53 80.05 53.2 80.2 53.3 80.35 53.45 80.55 53.45 80.75 53.45 80.9 53.3 81.05 53.2 81.05 53 81.05 52.8 80.9 52.65 80.75 52.55 80.55 52.55 80.35 52.55 80.2 52.65
M 78.1 54.15
Q 78.25 54.05 78.25 53.85 78.25 53.65 78.1 53.5 78 53.4 77.85 53.4 77.7 53.4 77.55 53.5 77.45 53.65 77.45 53.85 77.45 54.05 77.55 54.15 77.7 54.3 77.85 54.3 78 54.3 78.1 54.15
M 76.4 52.45
Q 76.55 52.35 76.55 52.15 76.55 51.95 76.4 51.8 76.25 51.7 76.05 51.7 75.85 51.7 75.7 51.8 75.55 51.95 75.55 52.15 75.55 52.35 75.7 52.45 75.85 52.6 76.05 52.6 76.25 52.6 76.4 52.45
M 79.55 50.05
Q 79.55 49.9 79.4 49.75 79.3 49.65 79.1 49.65 78.9 49.65 78.75 49.75 78.65 49.9 78.65 50.05 78.65 50.2 78.75 50.3 78.9 50.45 79.1 50.45 79.3 50.45 79.4 50.3 79.55 50.2 79.55 50.05
M 24.35 80.1
Q 24.25 80.2 24.25 80.35 24.25 80.5 24.35 80.6 24.5 80.7 24.65 80.7 24.8 80.7 24.9 80.6 25.05 80.5 25.05 80.35 25.05 80.2 24.9 80.1 24.8 80 24.65 80 24.5 80 24.35 80.1
M 24.7 79.3
Q 25.5 78.35 24.7 77.45 24.45 77.2 24.2 77 23.95 78.3 24.7 79.3
M 20.5 74.6
L 22.4 74.65
Q 22.55 74 21.75 74.3 21.1 74.35 20.5 74.6
M 28.5 78.4
Q 28.9 77.9 28.3 77.65 27.8 77.45 27.65 77.8
L 28.5 78.4
M 26.05 76.1
Q 26.25 75.9 26.25 75.6 26.25 75.3 26.05 75.1 25.9 74.9 25.65 74.9 25.4 74.9 25.2 75.1 25.05 75.3 25.05 75.6 25.05 75.9 25.2 76.1 25.4 76.3 25.65 76.3 25.9 76.3 26.05 76.1
M 29.1 76.25
Q 29.2 76.25 29.3 76.3 29.6 75.45 29 75.85 28.7 76.05 29.1 76.25
M 28.15 76.95
Q 28.25 76.85 28.25 76.7 28.25 76.55 28.15 76.45 28.05 76.35 27.9 76.35 27.75 76.35 27.65 76.45 27.55 76.55 27.55 76.7 27.55 76.85 27.65 76.95 27.75 77.05 27.9 77.05 28.05 77.05 28.15 76.95
M 32.45 79.15
Q 32.6 79.3 32.75 79.3 32.9 79.3 33 79.15 33.15 79.05 33.15 78.9 33.15 78.75 33 78.6 32.9 78.5 32.75 78.5 32.6 78.5 32.45 78.6 32.35 78.75 32.35 78.9 32.35 79.05 32.45 79.15
M 33.55 75.45
Q 33.65 75.25 33.8 75.1
L 31.3 75.2 31.15 75.9 31.75 76.5
Q 32.85 76.6 33.55 75.45
M 35 75.55
Q 35.15 75.55 35.25 75.45 35.4 75.35 35.4 75.2 35.4 75.05 35.25 74.95 35.15 74.85 35 74.85 34.85 74.85 34.7 74.95 34.6 75.05 34.6 75.2 34.6 75.35 34.7 75.45 34.85 75.55 35 75.55
M 38.95 78.35
Q 39.1 78.25 39.1 78.1 39.1 77.95 38.95 77.8 38.85 77.7 38.65 77.7 38.45 77.7 38.3 77.8 38.2 77.95 38.2 78.1 38.2 78.25 38.3 78.35 38.45 78.5 38.65 78.5 38.85 78.5 38.95 78.35
M 40.15 78.5
Q 40 78.5 39.85 78.6 39.75 78.75 39.75 78.9 39.75 79.05 39.85 79.15 40 79.3 40.15 79.3 40.3 79.3 40.4 79.15 40.55 79.05 40.55 78.9 40.55 78.75 40.4 78.6 40.3 78.5 40.15 78.5
M 35.95 76.7
Q 35.85 76.55 35.65 76.55 35.45 76.55 35.3 76.7 35.2 76.85 35.2 77.1 35.2 77.35 35.3 77.5 35.45 77.65 35.65 77.65 35.85 77.65 35.95 77.5 36.1 77.35 36.1 77.1 36.1 76.85 35.95 76.7
M 39.5 74.4
L 40.3 75.2 40.35 74.7 39.2 73.5 39.5 74.4
M 9.3 74.95
L 8.75 74.95 8.75 75.5 9.3 75.5 9.3 74.95
M 11.6 76.3
Q 11.75 76.2 11.75 76 11.75 75.8 11.6 75.65 11.5 75.55 11.35 75.55 11.2 75.55 11.05 75.65 10.95 75.8 10.95 76 10.95 76.2 11.05 76.3 11.2 76.45 11.35 76.45 11.5 76.45 11.6 76.3
M 13.95 74.5
Q 13.95 74.35 13.8 74.25 13.7 74.15 13.5 74.15 13.3 74.15 13.15 74.25 13.05 74.35 13.05 74.5 13.05 74.65 13.15 74.75 13.3 74.85 13.5 74.85 13.7 74.85 13.8 74.75 13.95 74.65 13.95 74.5
M 16.75 79.9
Q 16.9 79.8 16.9 79.65 16.9 79.5 16.75 79.4 16.65 79.3 16.5 79.3 16.35 79.3 16.2 79.4 16.1 79.5 16.1 79.65 16.1 79.8 16.2 79.9 16.35 80 16.5 80 16.65 80 16.75 79.9
M 17.2 74.9
Q 17.4 74.8 17.4 74.6 17.4 74.4 17.2 74.25 17.05 74.15 16.8 74.15 16.55 74.15 16.35 74.25 16.2 74.4 16.2 74.6 16.2 74.8 16.35 74.9 16.55 75.05 16.8 75.05 17.05 75.05 17.2 74.9
M 20.15 75.9
Q 19.95 75.9 19.8 76.05 19.7 76.2 19.7 76.4 19.7 76.6 19.8 76.75 19.95 76.9 20.15 76.9 20.35 76.9 20.45 76.75 20.6 76.6 20.6 76.4 20.6 76.2 20.45 76.05 20.35 75.9 20.15 75.9
M 18.75 74.05
Q 18.6 74.05 18.45 74.15 18.35 74.3 18.35 74.5 18.35 74.7 18.45 74.8 18.6 74.95 18.75 74.95 18.9 74.95 19 74.8 19.15 74.7 19.15 74.5 19.15 74.3 19 74.15 18.9 74.05 18.75 74.05
M 17.2 70.85
Q 17 70.6 16.8 70.45
L 16.15 70.75
Q 16.1 71 16.55 71.05 16.85 71.2 17.3 71.65 17.85 71.4 17.2 70.85
M 18.05 69.15
Q 18.55 68.95 18.45 68.6 18.25 68.05 17.7 68.3 17.5 68.85 18.05 69.15
M 19.65 70.45
L 19.05 70.45 19.05 71 19.65 71 19.65 70.45
M 13.75 72.55
Q 13.9 72.45 13.9 72.3 13.9 72.15 13.75 72 13.65 71.9 13.45 71.9 13.25 71.9 13.1 72 13 72.15 13 72.3 13 72.45 13.1 72.55 13.25 72.7 13.45 72.7 13.65 72.7 13.75 72.55
M 10.9 72.6
Q 11.05 72.5 11.05 72.3 11.05 72.1 10.9 71.95 10.8 71.85 10.65 71.85 10.5 71.85 10.35 71.95 10.25 72.1 10.25 72.3 10.25 72.5 10.35 72.6 10.5 72.75 10.65 72.75 10.8 72.75 10.9 72.6
M 12.35 72.5
Q 12.5 72.4 12.5 72.25 12.5 72.1 12.35 72 12.25 71.9 12.1 71.9 11.95 71.9 11.8 72 11.7 72.1 11.7 72.25 11.7 72.4 11.8 72.5 11.95 72.6 12.1 72.6 12.25 72.6 12.35 72.5
M 14.1 68.1
Q 13.3 68.7 13.1 69.8
L 15.45 68.8
Q 15.85 69 16.3 69.1 16.55 69.3 16.85 69.35 16.9 69.25 17 69.2 17 69 16.95 68.8 16.9 68.65 16.85 68.55 16.7 68.45 16.6 68.35 16.35 68.1 16.1 67.9 15.1 67.5 14.1 68.1
M 13.5 65.75
Q 13.55 65.65 13.6 65.6
L 13.75 64.5 13.25 65.05
Q 12.65 65.75 13.5 65.75
M 12.3 67.3
Q 12.45 67.2 12.45 67.05 12.45 66.9 12.3 66.75 12.2 66.65 12.05 66.65 11.9 66.65 11.75 66.75 11.65 66.9 11.65 67.05 11.65 67.2 11.75 67.3 11.9 67.45 12.05 67.45 12.2 67.45 12.3 67.3
M 12.4 64.55
Q 12.4 64.3 12.15 64.1 11.95 63.9 11.6 63.9 11.25 63.9 11 64.1 10.8 64.3 10.8 64.55 10.8 64.8 11 65 11.25 65.2 11.6 65.2 11.95 65.2 12.15 65 12.4 64.8 12.4 64.55
M 15.3 66.6
Q 15.45 66.5 15.45 66.3 15.45 66.1 15.3 65.95 15.2 65.85 15.05 65.85 14.9 65.85 14.75 65.95 14.65 66.1 14.65 66.3 14.65 66.5 14.75 66.6 14.9 66.75 15.05 66.75 15.2 66.75 15.3 66.6
M 16.7 64.9
Q 17.1 64.8 17.5 64.6
L 17.4 63.25 15.4 64.95
Q 15.75 65 16.15 65.1 16.45 65.05 16.7 64.9
M 18.45 64.5
Q 18.35 64.65 18.35 64.85 18.35 65.05 18.45 65.15 18.6 65.3 18.75 65.3 18.9 65.3 19 65.15 19.15 65.05 19.15 64.85 19.15 64.65 19 64.5 18.9 64.4 18.75 64.4 18.6 64.4 18.45 64.5
M 9.45 73.3
Q 9.6 73.2 9.6 73.05 9.6 72.9 9.45 72.8 9.35 72.7 9.15 72.7 8.95 72.7 8.8 72.8 8.7 72.9 8.7 73.05 8.7 73.2 8.8 73.3 8.95 73.4 9.15 73.4 9.35 73.4 9.45 73.3
M 9.5 69.8
Q 9.5 69.6 9.35 69.45 9.25 69.3 9.05 69.3 8.85 69.3 8.7 69.45 8.6 69.6 8.6 69.8 8.6 70 8.7 70.15 8.85 70.3 9.05 70.3 9.25 70.3 9.35 70.15 9.5 70 9.5 69.8
M 9.6 67.5
Q 9.85 67.5 10 67.3 10.2 67.15 10.2 66.9 10.2 66.65 10 66.45 9.85 66.3 9.6 66.3 9.35 66.3 9.15 66.45 9 66.65 9 66.9 9 67.15 9.15 67.3 9.35 67.5 9.6 67.5
M 8.05 64.3
Q 8.1 64.35 8.15 64.4 8.45 63.95 7.95 63.8 7.65 63.8 7.4 63.8 7.5 64.25 8.05 64.3
M 10.1 54.2
Q 10.2 53.25 9.3 53
L 10.1 54.2
M 18.3 60
Q 18.45 59.9 18.45 59.7 18.45 59.5 18.3 59.35 18.2 59.25 18.05 59.25 17.9 59.25 17.75 59.35 17.65 59.5 17.65 59.7 17.65 59.9 17.75 60 17.9 60.15 18.05 60.15 18.2 60.15 18.3 60
M 18.75 61.55
Q 18.6 61.55 18.45 61.65 18.35 61.8 18.35 62 18.35 62.2 18.45 62.3 18.6 62.45 18.75 62.45 18.9 62.45 19 62.3 19.15 62.2 19.15 62 19.15 61.8 19 61.65 18.9 61.55 18.75 61.55
M 17.5 61.4
Q 17.65 61.3 17.65 61.1 17.65 60.9 17.5 60.75 17.4 60.65 17.25 60.65 17.1 60.65 16.95 60.75 16.85 60.9 16.85 61.1 16.85 61.3 16.95 61.4 17.1 61.55 17.25 61.55 17.4 61.55 17.5 61.4
M 14.85 61.6
L 14.15 61.85
Q 13.95 62.5 14.8 62.75
L 15.6 62.8
Q 16 62.4 15.4 61.95 15.1 61.75 14.85 61.6
M 10.55 61.1
Q 10.4 61 10.25 60.9 10 60.8 9.75 60.75 9.45 60.75 9.2 60.75 9 60.7 8.8 60.65 8.65 61.25 8.65 61.85 8.65 62.45 8.8 63.1
L 9.7 61.75 10.85 63.05 10.55 61.1
M 11.4 61.1
Q 11.75 61.55 12.25 61.55 12.75 61.55 13.1 61.1 13.45 60.65 13.45 60.05 13.45 59.45 13.1 59 12.75 58.55 12.25 58.55 11.75 58.55 11.4 59 11.05 59.45 11.05 60.05 11.05 60.65 11.4 61.1
M 10.45 58.4
Q 10.55 58.4 10.6 58.3 10.6 57.6 9.95 57.2 9.85 57.05 9.75 57.05 9.6 57.05 9.5 57.15 9.25 57.25 9.1 57.5 9.35 58.85 10.45 58.4
M 14.55 58.5
Q 14.65 58.4 14.65 58.25 14.65 58.1 14.55 58 14.45 57.9 14.3 57.9 14.15 57.9 14.05 58 13.95 58.1 13.95 58.25 13.95 58.4 14.05 58.5 14.15 58.6 14.3 58.6 14.45 58.6 14.55 58.5
M 12.75 57.1
Q 12.9 57.1 13 57
L 12 56.5
Q 11.95 57.45 12.75 57.1
M 15 55.75
Q 14.5 55.85 14 56
L 16.9 56
Q 16.15 55.4 15 55.75
M 14.2 54.15
Q 14.35 54.05 14.35 53.9 14.35 53.75 14.2 53.6 14.1 53.5 13.95 53.5 13.8 53.5 13.65 53.6 13.55 53.75 13.55 53.9 13.55 54.05 13.65 54.15 13.8 54.3 13.95 54.3 14.1 54.3 14.2 54.15
M 12.95 52.5
L 12.8 52 12 52.7 11.9 53.5 12.4 53.4 12.95 52.5
M 12.8 51.15
Q 12.9 51.05 12.9 50.9 12.9 50.75 12.8 50.6 12.7 50.5 12.55 50.5 12.4 50.5 12.3 50.6 12.2 50.75 12.2 50.9 12.2 51.05 12.3 51.15 12.4 51.3 12.55 51.3 12.7 51.3 12.8 51.15
M 14.55 49.9
Q 14.5 49.9 14.55 49.95
L 15.2 50.3
Q 15.35 49.3 14.55 49.9
M 16.45 51.15
Q 16.3 51.15 16.15 51.25 16.05 51.4 16.05 51.55 16.05 51.7 16.15 51.8 16.3 51.95 16.45 51.95 16.6 51.95 16.7 51.8 16.85 51.7 16.85 51.55 16.85 51.4 16.7 51.25 16.6 51.15 16.45 51.15
M 18.2 49.8
Q 18.1 49.7 17.95 49.7 17.8 49.7 17.65 49.8 17.55 49.9 17.55 50.05 17.55 50.2 17.65 50.3 17.8 50.4 17.95 50.4 18.1 50.4 18.2 50.3 18.35 50.2 18.35 50.05 18.35 49.9 18.2 49.8
M 39 72.6
Q 39.15 72.5 39.15 72.3 39.15 72.1 39 71.95 38.9 71.85 38.75 71.85 38.6 71.85 38.45 71.95 38.35 72.1 38.35 72.3 38.35 72.5 38.45 72.6 38.6 72.75 38.75 72.75 38.9 72.75 39 72.6
M 36 73.3
Q 36.15 73.2 36.15 73 36.15 72.8 36 72.65 35.9 72.55 35.75 72.55 35.6 72.55 35.45 72.65 35.35 72.8 35.35 73 35.35 73.2 35.45 73.3 35.6 73.45 35.75 73.45 35.9 73.45 36 73.3
M 37.9 73.65
L 37 73.8 36.8 74.5 37.35 74.85 38.1 74.1 37.9 73.65
M 36.35 71
Q 36.5 70.9 36.5 70.75 36.5 70.6 36.35 70.45 36.25 70.35 36.1 70.35 35.95 70.35 35.8 70.45 35.7 70.6 35.7 70.75 35.7 70.9 35.8 71 35.95 71.15 36.1 71.15 36.25 71.15 36.35 71
M 37.05 68.45
Q 37.1 68.4 37.15 68.35 36.55 67.85 36.05 68.7 36 68.75 35.9 68.8 36.5 69 37.05 68.45
M 38.85 69.7
L 38.5 70.5 38.75 70.8
Q 39.1 70.3 39.3 69.55 39.4 69.2 39.55 68.85 39.6 68.75 39.55 68.65
L 38.85 69.7
M 32.5 72.5
Q 32.6 72.65 32.75 72.65 32.9 72.65 33 72.5 33.1 72.4 33.1 72.25 33.1 72.1 33 71.95 32.9 71.85 32.75 71.85 32.6 71.85 32.5 71.95 32.4 72.1 32.4 72.25 32.4 72.4 32.5 72.5
M 33.9 70.3
L 33.2 69.35 32.1 69.4 32.25 70.1 33.9 70.3
M 33.7 65.3
L 33.1 66.4 33.4 67.5
Q 33.65 66.85 33.75 66.2 33.8 65.75 33.7 65.3
M 30.95 67.95
Q 31.15 68.1 31.4 68 32.1 67.65 31.45 67.05 31.2 66.85 30.95 66.7 30.55 66.8 30.15 66.95 29.85 67.9 30.95 67.95
M 31.55 64.45
Q 31.65 64.35 31.65 64.15 31.65 63.95 31.55 63.8 31.45 63.7 31.3 63.7 31.15 63.7 31.05 63.8 30.95 63.95 30.95 64.15 30.95 64.35 31.05 64.45 31.15 64.6 31.3 64.6 31.45 64.6 31.55 64.45
M 38.9 63.1
Q 38.65 65.35 40.2 67.3 40.95 66.55 40.55 65.5 40.05 64.2 38.9 63.1
M 36 65.9
Q 36.15 65.8 36.15 65.6 36.15 65.4 36 65.25 35.9 65.15 35.75 65.15 35.6 65.15 35.45 65.25 35.35 65.4 35.35 65.6 35.35 65.8 35.45 65.9 35.6 66.05 35.75 66.05 35.9 66.05 36 65.9
M 37.95 65.85
Q 37.8 65.85 37.65 65.95 37.55 66.1 37.55 66.3 37.55 66.5 37.65 66.6 37.8 66.75 37.95 66.75 38.1 66.75 38.2 66.6 38.35 66.5 38.35 66.3 38.35 66.1 38.2 65.95 38.1 65.85 37.95 65.85
M 36.85 64.6
Q 36.75 64.75 36.75 64.9 36.75 65.05 36.85 65.15 37 65.3 37.15 65.3 37.3 65.3 37.4 65.15 37.55 65.05 37.55 64.9 37.55 64.75 37.4 64.6 37.3 64.5 37.15 64.5 37 64.5 36.85 64.6
M 37.2 63
Q 37.4 62.85 37.4 62.65 37.4 62.45 37.2 62.3 37.05 62.15 36.8 62.15 36.55 62.15 36.35 62.3 36.2 62.45 36.2 62.65 36.2 62.85 36.35 63 36.55 63.15 36.8 63.15 37.05 63.15 37.2 63
M 30.25 71.65
Q 29.85 71.55 29.5 71.5 30.1 73.1 31.55 73.5 31.6 73.6 31.7 73.55 31.75 73.5 31.8 73.45 31.85 73.3 31.85 73.2 31.85 72.9 31.8 72.6 31.25 71.9 30.25 71.65
M 28.85 73.5
Q 28.55 73.1 28.1 72.8
L 29.3 74.4
Q 29.15 73.9 28.85 73.5
M 27.55 70.05
Q 26.85 69.75 26.7 70.05
L 26.75 70.1
Q 27.35 70.85 27.75 71.65 27.8 71.65 27.95 71.7 28.05 71.65 28.15 71.6 28.25 71.5 28.25 71.4 28.35 71.1 28.4 70.8 28.15 70.25 27.55 70.05
M 23.2 70.25
L 20.5 70.9 21.15 71.3 22.4 71.1 23.2 70.25
M 23.85 74.1
Q 23.7 74.1 23.55 74.2 23.45 74.35 23.45 74.55 23.45 74.75 23.55 74.85 23.7 75 23.85 75 24 75 24.1 74.85 24.25 74.75 24.25 74.55 24.25 74.35 24.1 74.2 24 74.1 23.85 74.1
M 23.95 72.55
Q 23.8 72.55 23.65 72.65 23.55 72.8 23.55 73 23.55 73.2 23.65 73.3 23.8 73.45 23.95 73.45 24.1 73.45 24.2 73.3 24.35 73.2 24.35 73 24.35 72.8 24.2 72.65 24.1 72.55 23.95 72.55
M 25.1 72
L 24.95 72.4 25.95 72.8
Q 25.9 72.6 25.85 72.65 25.4 72.4 25.1 72
M 20.85 73.1
L 20.75 72.55
Q 20.45 72.4 20.2 72.3 18.5 72.35 16.8 73.1 18.75 73.85 20.65 73.2 20.75 73.15 20.85 73.1
M 22.8 69.1
Q 22.9 69 23 68.95 23.65 68.25 23.35 67.5 22.954296875 68.29140625 22.65 69.1 22.6810546875 69.1 22.8 69.1
M 25.2 70.5
Q 25.1 70.4 24.95 70.4 24.8 70.4 24.65 70.5 24.55 70.65 24.55 70.8 24.55 70.95 24.65 71.05 24.8 71.2 24.95 71.2 25.1 71.2 25.2 71.05 25.35 70.95 25.35 70.8 25.35 70.65 25.2 70.5
M 20.45 66.4
Q 20.35 66.2 20.25 66.05 20.15 65.95 20.1 65.9 19.95 65.85 19.85 65.85 19.5 65.95 19.25 66.1 18.85 66.4 18.55 66.8 19.55 66.95 20.4 66.5 20.45 66.5 20.45 66.4
M 20.5 63.95
Q 20.35 63.8 20.3 63.65 20.05 64.75 21 65.7 21.4 66.05 21.8 66.4
L 21.65 64.75
Q 21.2 64.45 20.75 64.2 20.6 64.1 20.5 63.95
M 24 64.85
L 23.6 64.7 23.2 64.9 24.3 65.3 24 64.85
M 27.5 61.95
L 28.4 62.3
Q 28.65 61.45 27.6 61.85 27.5 61.8 27.5 61.95
M 27.25 68
Q 27.4 67.95 27.6 67.95 27.75 67.85 27.85 67.75 28.25 67.45 28.5 67.05 28.6 67 28.65 66.85
L 28.1 66
Q 27.25 65.75 26.5 66.1 25.65 66.5 24.8 66.8 24.75 66.8 24.7 66.8 25.75 68.05 27.25 68
M 26.05 63.9
Q 26.35 63.7 26.35 63.4 26.35 63.1 26.05 62.9 25.8 62.7 25.45 62.7 25.1 62.7 24.8 62.9 24.55 63.1 24.55 63.4 24.55 63.7 24.8 63.9 25.1 64.1 25.45 64.1 25.8 64.1 26.05 63.9
M 27.8 64.15
L 27.3 64.9
Q 28.2 64.95 27.8 64.15
M 30.1 63.1
Q 30.05 62.9 30 62.8 29.2 62.3 28.9 63.25 28.85 63.35 28.8 63.5 28.85 63.7 29 63.95 29.1 64.05 29.3 64.05 29.35 64.15 29.45 64.2 30.2 63.8 30.1 63.1
M 26.3 60.1
Q 26.2 60 26.05 60 25.9 60 25.75 60.1 25.65 60.25 25.65 60.4 25.65 60.55 25.75 60.65 25.9 60.8 26.05 60.8 26.2 60.8 26.3 60.65 26.45 60.55 26.45 60.4 26.45 60.25 26.3 60.1
M 27.65 58.2
Q 27.3 58.45 27.65 58.7 28.05 59 28.55 59.3
L 28.35 58.75 27.65 58.2
M 26.35 56.8
Q 26.25 56.65 26.05 56.65 25.85 56.65 25.7 56.8 25.6 56.95 25.6 57.2 25.6 57.45 25.7 57.6 25.85 57.75 26.05 57.75 26.25 57.75 26.35 57.6 26.5 57.45 26.5 57.2 26.5 56.95 26.35 56.8
M 25.1 58.8
L 24.95 59.2 25.95 59.6
Q 25.9 59.4 25.85 59.35 25.4 59.15 25.1 58.8
M 22 61.8
Q 22.35 61.8 22.7 61.8 23.45 61.7 24 61.1
L 22 61.8
M 21.2 61.4
Q 21.35 61.3 21.35 61.1 21.35 60.9 21.2 60.75 21.1 60.65 20.95 60.65 20.8 60.65 20.65 60.75 20.55 60.9 20.55 61.1 20.55 61.3 20.65 61.4 20.8 61.55 20.95 61.55 21.1 61.55 21.2 61.4
M 21.2 58.2
Q 21.1 58.35 21.1 58.6 21.1 58.85 21.2 59 21.35 59.15 21.55 59.15 21.75 59.15 21.85 59 22 58.85 22 58.6 22 58.35 21.85 58.2 21.75 58.05 21.55 58.05 21.35 58.05 21.2 58.2
M 20.45 57.55
Q 20.6 57.4 20.6 57.2 20.6 57 20.45 56.85 20.35 56.7 20.15 56.7 19.95 56.7 19.8 56.85 19.7 57 19.7 57.2 19.7 57.4 19.8 57.55 19.95 57.7 20.15 57.7 20.35 57.7 20.45 57.55
M 23.8 58.6
Q 23.7 58.5 23.55 58.5 23.4 58.5 23.3 58.6 23.2 58.75 23.2 58.9 23.2 59.05 23.3 59.15 23.4 59.3 23.55 59.3 23.7 59.3 23.8 59.15 23.9 59.05 23.9 58.9 23.9 58.75 23.8 58.6
M 23.3 55.3
Q 23.1 54.85 23.35 55.55 23.5 55.9 23.85 56.1 23.95 56.15 24.15 56.1
L 23.3 55.3
M 21.85 54.9
Q 21.95 54.8 21.95 54.65 21.95 54.5 21.85 54.4 21.75 54.3 21.6 54.3 21.45 54.3 21.35 54.4 21.25 54.5 21.25 54.65 21.25 54.8 21.35 54.9 21.45 55 21.6 55 21.75 55 21.85 54.9
M 21.35 51.25
Q 21.35 51 21.2 50.8 21.1 50.65 20.9 50.65 20.7 50.65 20.55 50.8 20.45 51 20.45 51.25 20.45 51.5 20.55 51.65 20.7 51.85 20.9 51.85 21.1 51.85 21.2 51.65 21.35 51.5 21.35 51.25
M 28.55 55.3
Q 28.4 55.15 28.15 55.15 27.9 55.15 27.7 55.3 27.55 55.5 27.55 55.75 27.55 56 27.7 56.15 27.9 56.35 28.15 56.35 28.4 56.35 28.55 56.15 28.75 56 28.75 55.75 28.75 55.5 28.55 55.3
M 25.65 55.55
L 25.65 54.95 25 54.95 25 55.55 25.65 55.55
M 27.2 51.7
L 26.5 51.7 26.5 52.25 27.2 52.25 27.2 51.7
M 25.85 50.65
Q 26.1 50.3 25.55 50.1 25.3 49.95 25.1 49.8 25.2 50.15 25.4 50.4 25.6 50.8 25.85 50.65
M 29.2 49.6
Q 29 50.2 29.8 50.25 30.15 50.3 30.5 50.4 30.85 49.8 30.05 49.5 29.65 49.35 29.2 49.6
M 28.4 51.7
Q 28.45 51.75 28.5 51.8 28.8 51.2 27.9 51.05 27.85 51 27.8 51.05 27.65 51.55 28.4 51.7
M 39 60.15
Q 39.35 60.65 39.7 60.1 39.85 59.9 39.85 59.65 39.75 58.1 38.6 57.25
L 39 60.15
M 37.7 59.45
Q 37.3 59.25 36.75 59.25 36.2 59.25 35.8 59.45 35.4 59.7 35.4 60 35.4 60.3 35.8 60.5 36.2 60.75 36.75 60.75 37.3 60.75 37.7 60.5 38.1 60.3 38.1 60 38.1 59.7 37.7 59.45
M 32.4 61.6
L 31.7 61.8
Q 32.5 62.6 33.7 62.9
L 33.75 62.75
Q 33.65 62.2 33.1 61.9 32.75 61.7 32.4 61.6
M 31.45 59.5
Q 31.25 59.25 30.95 59.25 30.65 59.25 30.45 59.5 30.25 59.75 30.25 60.1 30.25 60.45 30.45 60.7 30.65 60.95 30.95 60.95 31.25 60.95 31.45 60.7 31.65 60.45 31.65 60.1 31.65 59.75 31.45 59.5
M 32.75 59.45
Q 32.6 59.6 32.6 59.8 32.6 60 32.75 60.1 32.95 60.25 33.2 60.25 33.45 60.25 33.6 60.1 33.8 60 33.8 59.8 33.8 59.6 33.6 59.45 33.45 59.35 33.2 59.35 32.95 59.35 32.75 59.45
M 32.3 57.75
Q 32.45 57.65 32.45 57.5 32.45 57.35 32.3 57.25 32.2 57.15 32 57.15 31.8 57.15 31.65 57.25 31.55 57.35 31.55 57.5 31.55 57.65 31.65 57.75 31.8 57.85 32 57.85 32.2 57.85 32.3 57.75
M 30.8 57.1
Q 30.95 57 30.95 56.8 30.95 56.6 30.8 56.45 30.7 56.35 30.55 56.35 30.4 56.35 30.25 56.45 30.15 56.6 30.15 56.8 30.15 57 30.25 57.1 30.4 57.25 30.55 57.25 30.7 57.25 30.8 57.1
M 33.8 54.1
Q 33.95 54 33.95 53.8 33.95 53.6 33.8 53.45 33.7 53.35 33.55 53.35 33.4 53.35 33.25 53.45 33.15 53.6 33.15 53.8 33.15 54 33.25 54.1 33.4 54.25 33.55 54.25 33.7 54.25 33.8 54.1
M 30.8 54.75
Q 30.95 54.65 30.95 54.5 30.95 54.35 30.8 54.25 30.7 54.15 30.5 54.15 30.3 54.15 30.15 54.25 30.05 54.35 30.05 54.5 30.05 54.65 30.15 54.75 30.3 54.85 30.5 54.85 30.7 54.85 30.8 54.75
M 32.1 52.45
Q 32.45 52.45 32.7 52.2 33 52 33 51.7 33 51.4 32.7 51.15 32.45 50.95 32.1 50.95 31.75 50.95 31.45 51.15 31.2 51.4 31.2 51.7 31.2 52 31.45 52.2 31.75 52.45 32.1 52.45
M 35 52.5
Q 35.65 52.25 35.05 51.7 34.85 51.5 34.65 51.35 34.2 51.2 33.85 51.75 34 52.55 34.8 52.7 34.9 52.6 35 52.5
M 38.35 55.05
L 38 54.5 36.7 56.1
Q 36 55.4 35.15 55.5
L 34.15 56.15
Q 33.7 56.1 33.35 55.9 32.65 55.45 32.1 54.85 31.9 54.65 31.7 54.5 31.85 56.15 33.6 56.5 34.45 56.7 35.3 56.95 36.4 57.25 37.35 56.55 37.85 56.2 38.15 55.65 38.3 55.35 38.35 55.05
M 35.75 53.9
Q 35.75 53.75 35.65 53.6 35.55 53.5 35.4 53.5 35.25 53.5 35.15 53.6 35.05 53.75 35.05 53.9 35.05 54.05 35.15 54.15 35.25 54.3 35.4 54.3 35.55 54.3 35.65 54.15 35.75 54.05 35.75 53.9
M 37.15 52.6
Q 37 52.6 36.85 52.7 36.75 52.8 36.75 52.95 36.75 53.1 36.85 53.2 37 53.3 37.15 53.3 37.3 53.3 37.4 53.2 37.55 53.1 37.55 52.95 37.55 52.8 37.4 52.7 37.3 52.6 37.15 52.6
M 40.4 51.7
Q 40.15 52.4 39.2 52.3 38.8 52.25 38.4 52.2 39.4 53.7 41.15 53 42.05 52.65 42.35 51.95 42.6 51.5 42.95 51.1 43.05 50.95 43.15 50.85 42.8 50.8 42.45 50.85 41.25 50.9 40.4 51.7
M 39.25 47.15
Q 39.45 47.05 39.7 46.95 40.3 45.75 39.9 44.45 39.6 43.6 38.9 43.1 37.5 44.45 38.05 46.35 38.1 46.65 38.25 46.95
L 38.7 47.2
Q 38.95 47.15 39.25 47.15
M 38.5 48.5
Q 38.2 48.75 38.2 49.1 38.2 49.45 38.5 49.7 38.85 49.95 39.3 49.95 39.75 49.95 40.05 49.7 40.4 49.45 40.4 49.1 40.4 48.75 40.05 48.5 39.75 48.25 39.3 48.25 38.85 48.25 38.5 48.5
M 31.65 44.1
Q 31.8 44 31.8 43.85 31.8 43.7 31.65 43.6 31.55 43.5 31.35 43.5 31.15 43.5 31 43.6 30.9 43.7 30.9 43.85 30.9 44 31 44.1 31.15 44.2 31.35 44.2 31.55 44.2 31.65 44.1
M 34.8 44.35
Q 34.65 44.4 34.6 44.55 34.3 45 34.5 45.45 34.85 45.9 35.45 46.2 35.95 46.35 36.2 45.8
L 34.8 44.35
M 31.8 40.5
Q 31.3 39.95 30.8 39.5
L 30.1 39.5
Q 30.3 40.6 31.4 41.2 33.1 42.25 34.2 43.8 34.65 42.8 34.15 41.85 33.7 41.6 33.3 41.4 32.3 41.2 31.8 40.5
M 36.2 42.6
L 36.05 43.05 36.8 43.8 37.2 43.6 37.4 43.2 36.65 42.45 36.2 42.6
M 37.25 37.6
Q 37.25 37.35 37.15 37.15
L 36.5 36.8 35.5 41.3
Q 35.8 40.9 36.1 40.5 36.8 39.7 37.05 38.9 37.25 38.25 37.25 37.6
M 39.05 40.1
Q 38.95 39.95 38.85 39.85
L 37.85 40.5
Q 37.8 41.6 38.8 41.15 38.9 41.15 39 41.05 39.2 40.5 39.05 40.1
M 36.05 48
Q 35.95 48.2 35.95 48.4
L 36.35 47.8
Q 36.2 47.8 36.05 48
M 29.5 46.9
L 29.55 48.35 32.9 47.1 32.7 49.4 31.7 49.2
Q 31.95 50 33.05 50.05 33.65 50.2 34.25 50.4 35.2 50.95 36.4 51.1 36.55 51.05 36.75 51
L 37.15 50.15
Q 36.7 49.3 36.7 48.15 36.7 47.9 36.55 47.7 36.5 47.7 36.35 47.8
L 36.4 48.3
Q 36.45 48.45 36.45 48.65 36.45 49.1 36.1 48.7 36 48.55 35.95 48.4
L 35.05 49.25 34.35 48.75 33.5 45.8
Q 31.9 45.35 31.2 46.7
L 29.5 46.9
M 27.55 48.25
Q 27.45 48.4 27.45 48.6 27.45 48.8 27.55 48.9 27.7 49.05 27.9 49.05 28.1 49.05 28.2 48.9 28.35 48.8 28.35 48.6 28.35 48.4 28.2 48.25 28.1 48.15 27.9 48.15 27.7 48.15 27.55 48.25
M 28.5 45.8
Q 28.8 45.15 28.15 45.45
L 28.15 45.5
Q 28.25 45.65 28.5 45.8
M 24.85 48.95
Q 24.85 48.65 24.6 48.4 24.35 48.2 24 48.2 23.65 48.2 23.4 48.4 23.15 48.65 23.15 48.95 23.15 49.25 23.4 49.45 23.65 49.7 24 49.7 24.35 49.7 24.6 49.45 24.85 49.25 24.85 48.95
M 21.8 45.4
L 20.9 46 20.8 46.8 21.8 45.4
M 21.9 43
Q 22.15 42.45 21.6 42.55 21.3 42.7 21.7 42.95 21.8 42.95 21.9 43
M 28.5 42.3
Q 28.9 41.65 28.05 41.85 28 41.9 28.15 42.05 28.25 42.2 28.5 42.3
M 29.45 33.8
Q 29.45 33.6 29.3 33.45 29.2 33.35 29.05 33.35 28.9 33.35 28.75 33.45 28.65 33.6 28.65 33.8 28.65 34 28.75 34.1 28.9 34.25 29.05 34.25 29.2 34.25 29.3 34.1 29.45 34 29.45 33.8
M 27.25 29
Q 27.25 29.3 27.4 29.5 27.6 29.7 27.85 29.7 28.1 29.7 28.25 29.5 28.45 29.3 28.45 29 28.45 28.7 28.25 28.5 28.1 28.3 27.85 28.3 27.6 28.3 27.4 28.5 27.25 28.7 27.25 29
M 38.9 37
Q 39.05 36.9 39.05 36.7 39.05 36.5 38.9 36.35 38.8 36.25 38.65 36.25 38.5 36.25 38.35 36.35 38.25 36.5 38.25 36.7 38.25 36.9 38.35 37 38.5 37.15 38.65 37.15 38.8 37.15 38.9 37
M 38.35 33.8
Q 38.2 33.65 38 33.65 37.8 33.65 37.65 33.8 37.5 34 37.5 34.25 37.5 34.5 37.65 34.65 37.8 34.85 38 34.85 38.2 34.85 38.35 34.65 38.5 34.5 38.5 34.25 38.5 34 38.35 33.8
M 38.35 32.4
Q 38.35 32.2 38.2 32.05 38.1 31.95 37.95 31.95 37.8 31.95 37.65 32.05 37.55 32.2 37.55 32.4 37.55 32.6 37.65 32.7 37.8 32.85 37.95 32.85 38.1 32.85 38.2 32.7 38.35 32.6 38.35 32.4
M 39.4 31.8
Q 39.55 31.8 39.65 31.7 39.8 31.6 39.8 31.45 39.8 31.3 39.65 31.2 39.55 31.1 39.4 31.1 39.25 31.1 39.1 31.2 39 31.3 39 31.45 39 31.6 39.1 31.7 39.25 31.8 39.4 31.8
M 34.1 36.05
L 33.4 37
Q 34.45 37.15 34.95 36.25 35 36.2 35 36.1
L 34.1 36.05
M 30.75 35.25
Q 30.75 35.2 30.7 35.1 30.25 35.4 30 35.75
L 30.05 35.85
Q 30.7 36 30.75 35.25
M 30.6 31.75
Q 30.65 31.8 30.7 31.9 31.15 31.15 30.15 31.05 30.05 31.05 30 31.1 29.75 31.55 30.6 31.75
M 35.15 33.1
Q 35.15 32.9 35 32.75 34.85 32.65 34.65 32.65 34.45 32.65 34.3 32.75 34.15 32.9 34.15 33.1 34.15 33.3 34.3 33.4 34.45 33.55 34.65 33.55 34.85 33.55 35 33.4 35.15 33.3 35.15 33.1
M 32 29.7
L 32.8 30.5 32.4 31 35.5 31 32 29.7
M 31.5 27.6
Q 31.4 27.5 31.25 27.5 31.1 27.5 31 27.6 30.9 27.75 30.9 27.9 30.9 28.05 31 28.15 31.1 28.3 31.25 28.3 31.4 28.3 31.5 28.15 31.6 28.05 31.6 27.9 31.6 27.75 31.5 27.6
M 30.9 26.45
Q 30.9 26.3 30.75 26.15 30.65 26.05 30.45 26.05 30.25 26.05 30.1 26.15 30 26.3 30 26.45 30 26.6 30.1 26.7 30.25 26.85 30.45 26.85 30.65 26.85 30.75 26.7 30.9 26.6 30.9 26.45
M 36 26.65
Q 36.15 26.55 36.15 26.35 36.15 26.15 36 26 35.9 25.9 35.75 25.9 35.6 25.9 35.45 26 35.35 26.15 35.35 26.35 35.35 26.55 35.45 26.65 35.6 26.8 35.75 26.8 35.9 26.8 36 26.65
M 40.15 27.65
Q 40 27.65 39.9 27.75 39.8 27.85 39.8 27.95 39.8 28.05 39.9 28.15 40 28.25 40.15 28.25 40.3 28.25 40.4 28.15 40.5 28.05 40.5 27.95 40.5 27.85 40.4 27.75 40.3 27.65 40.15 27.65
M 39 26
Q 39.15 25.9 39.15 25.7 39.15 25.5 39 25.35 38.9 25.25 38.75 25.25 38.6 25.25 38.45 25.35 38.35 25.5 38.35 25.7 38.35 25.9 38.45 26 38.6 26.15 38.75 26.15 38.9 26.15 39 26
M 14.5 46.55
Q 14.25 47 14.75 47.1 14.95 47.25 15.2 47.4 15.25 47.2 15.25 47.05 15.2 46.85 15.05 46.65
L 14.5 46.55
M 13.2 47.25
Q 13.45 47.25 13.7 47.4 13.75 47.2 13.75 47.1 13.7 46.85 13.55 46.65
L 13 46.55
Q 12.8 47 13.2 47.25
M 30.7 23.4
Q 30.2 23.3 29.7 23.2
L 32.4 25.3
Q 32.25 23.75 30.7 23.4
M 35.9 22.1
Q 36.2 21.8 35.9 21.4 35.45 20.85 35.25 21.5
L 35.9 22.1
M 39.8 24.3
Q 39.7 24.45 39.7 24.7 39.7 24.95 39.8 25.1 39.95 25.25 40.15 25.25 40.35 25.25 40.45 25.1 40.6 24.95 40.6 24.7 40.6 24.45 40.45 24.3 40.35 24.15 40.15 24.15 39.95 24.15 39.8 24.3
M 37.6 19.45
L 37.1 19.7 36.85 20.2 37.15 20.95
Q 37.4 20.95 37.6 20.85 38.65 20.4 38 19.6
L 37.6 19.45
M 39.7 21.4
Q 39.9 21.4 40.15 21.45 41.3 21.55 41.6 20.5
L 39.7 21.4
M 33.45 22.7
L 32.7 22.5
Q 32.45 23.3 33.35 23.45 33.45 23.4 33.55 23.4 33.65 23.15 33.6 22.95 33.6 22.8 33.45 22.7
M 39.65 18.05
Q 39.65 18.3 39.75 18.45 39.9 18.65 40.1 18.65 40.3 18.65 40.4 18.45 40.55 18.3 40.55 18.05 40.55 17.8 40.4 17.6 40.3 17.45 40.1 17.45 39.9 17.45 39.75 17.6 39.65 17.8 39.65 18.05
M 36 13.4
Q 36.15 13.3 36.15 13.1 36.15 12.9 36 12.75 35.9 12.65 35.75 12.65 35.6 12.65 35.45 12.75 35.35 12.9 35.35 13.1 35.35 13.3 35.45 13.4 35.6 13.55 35.75 13.55 35.9 13.55 36 13.4
M 37.55 13.1
Q 37.55 12.9 37.4 12.75 37.3 12.65 37.15 12.65 37 12.65 36.85 12.75 36.75 12.9 36.75 13.1 36.75 13.3 36.85 13.4 37 13.55 37.15 13.55 37.3 13.55 37.4 13.4 37.55 13.3 37.55 13.1
M 28.1 20.5
Q 28.3 20.65 28.5 20.8 28.95 20.15 27.95 19.95 27.9 19.95 27.85 20 27.7 20.4 28.1 20.5
M 28.4 23.5
L 26.4 24.7
Q 26.6 25.15 27.05 24.9 27.95 24.25 28.4 23.5
M 39.5 9.6
Q 40.1 9 39.45 8.45 39.3 8.35 39.2 8.3
L 38.15 8.4
Q 38.45 9.1 39.3 9.4 39.4 9.5 39.5 9.6
M 79 47.5
L 80 46.7
Q 80.3 46.4 80.05 46.3 79.8 46.2 79.5 46.6 79.2 47 79 47.5
M 77.3 49.45
Q 77.4 49.35 77.4 49.2 77.4 49.05 77.3 48.95 77.2 48.85 77.05 48.85 76.9 48.85 76.8 48.95 76.7 49.05 76.7 49.2 76.7 49.35 76.8 49.45 76.9 49.55 77.05 49.55 77.2 49.55 77.3 49.45
M 78 45.8
L 78.15 45.2 77.5 44.65 77.1 44.85
Q 76.9 45.7 77.75 46 77.85 45.9 78 45.8
M 72.9 46
L 73.6 46.7
Q 73.9 46.2 73.5 46.05 73.2 46 72.9 46
M 75.65 48.9
Q 75.5 48.9 75.4 49.1 75.3 49.3 75.3 49.6 75.3 49.9 75.4 50.1 75.5 50.3 75.65 50.3 75.8 50.3 75.9 50.1 76 49.9 76 49.6 76 49.3 75.9 49.1 75.8 48.9 75.65 48.9
M 72.9 49.45
Q 73.05 49.3 73.05 49.05 73.05 48.8 72.9 48.6 72.8 48.45 72.6 48.45 72.4 48.45 72.25 48.6 72.15 48.8 72.15 49.05 72.15 49.3 72.25 49.45 72.4 49.65 72.6 49.65 72.8 49.65 72.9 49.45
M 75.75 42.85
Q 75.7 42.7 75.55 42.6 74.75 42.95 75.7 43.45 75.75 43.5 75.9 43.5 75.85 43.15 75.75 42.85
M 72.8 43
Q 72.95 43.15 73.15 43.15 73.35 43.15 73.5 43 73.65 42.9 73.65 42.7 73.65 42.5 73.5 42.35 73.35 42.25 73.15 42.25 72.95 42.25 72.8 42.35 72.65 42.5 72.65 42.7 72.65 42.9 72.8 43
M 71.4 39.3
Q 71.55 39.2 71.55 39 71.55 38.8 71.4 38.65 71.3 38.55 71.15 38.55 71 38.55 70.85 38.65 70.75 38.8 70.75 39 70.75 39.2 70.85 39.3 71 39.45 71.15 39.45 71.3 39.45 71.4 39.3
M 72.2 38.6
Q 73.1 38.75 73.25 37.85 73.3 37.65 73.2 37.4 72.75 36.85 72.25 37.45 72.05 37.65 71.9 37.9
L 72.2 38.6
M 76 39.2
Q 76.15 39 76.15 38.7 76.15 38.4 76 38.2 75.85 38 75.6 38 75.35 38 75.2 38.2 75.05 38.4 75.05 38.7 75.05 39 75.2 39.2 75.35 39.4 75.6 39.4 75.85 39.4 76 39.2
M 77.45 38.3
Q 77.45 38.5 77.55 38.6 77.7 38.75 77.85 38.75 78 38.75 78.1 38.6 78.25 38.5 78.25 38.3 78.25 38.1 78.1 37.95 78 37.85 77.85 37.85 77.7 37.85 77.55 37.95 77.45 38.1 77.45 38.3
M 70.6 48.7
Q 70.6 48.85 70.7 48.95 70.85 49.1 71.05 49.1 71.25 49.1 71.35 48.95 71.5 48.85 71.5 48.7 71.5 48.55 71.35 48.4 71.25 48.3 71.05 48.3 70.85 48.3 70.7 48.4 70.6 48.55 70.6 48.7
M 69.4 48.4
Q 69.3 48.55 69.3 48.7 69.3 48.85 69.4 48.95 69.55 49.1 69.75 49.1 69.95 49.1 70.05 48.95 70.2 48.85 70.2 48.7 70.2 48.55 70.05 48.4 69.95 48.3 69.75 48.3 69.55 48.3 69.4 48.4
M 70.5 46.05
Q 70.35 46.2 70.35 46.4 70.35 46.6 70.5 46.7 70.65 46.85 70.9 46.85 71.15 46.85 71.3 46.7 71.45 46.6 71.45 46.4 71.45 46.2 71.3 46.05 71.15 45.95 70.9 45.95 70.65 45.95 70.5 46.05
M 70.7 43.4
Q 70.7 43.5 70.8 43.6 70.95 43.7 71.1 43.7 71.25 43.7 71.35 43.6 71.5 43.5 71.5 43.4 71.5 43.3 71.35 43.2 71.25 43.1 71.1 43.1 70.95 43.1 70.8 43.2 70.7 43.3 70.7 43.4
M 69 45.3
L 69 46 70 44.6 69 45.3
M 65.7 49.15
Q 65.7 49.3 65.8 49.4 65.9 49.55 66.05 49.55 66.2 49.55 66.3 49.4 66.4 49.3 66.4 49.15 66.4 49 66.3 48.85 66.2 48.75 66.05 48.75 65.9 48.75 65.8 48.85 65.7 49 65.7 49.15
M 61.6 48.9
Q 61.75 48.8 61.75 48.6 61.75 48.4 61.6 48.25 61.45 48.15 61.25 48.15 61.05 48.15 60.9 48.25 60.75 48.4 60.75 48.6 60.75 48.8 60.9 48.9 61.05 49.05 61.25 49.05 61.45 49.05 61.6 48.9
M 62.5 47.4
Q 62.85 47 62.3 46.65 62.05 46.45 61.75 46.6 61.7 47.25 62.4 47.25 62.45 47.3 62.5 47.4
M 62.55 45.15
Q 62.7 45.05 62.7 44.9 62.7 44.75 62.55 44.6 62.45 44.5 62.25 44.5 62.05 44.5 61.9 44.6 61.8 44.75 61.8 44.9 61.8 45.05 61.9 45.15 62.05 45.3 62.25 45.3 62.45 45.3 62.55 45.15
M 65.6 45.7
Q 65.35 45.7 65.15 45.75
L 64.9 46.45
Q 65.5 47.15 66.4 47.15 67.25 47.25 68.15 47.5 67.5 45.6 65.6 45.7
M 64.3 42.4
Q 64.2 42.55 64.2 42.7 64.2 42.85 64.3 42.95 64.4 43.1 64.55 43.1 64.7 43.1 64.8 42.95 64.9 42.85 64.9 42.7 64.9 42.55 64.8 42.4 64.7 42.3 64.55 42.3 64.4 42.3 64.3 42.4
M 61.85 42.9
Q 61.95 42.8 61.95 42.65 61.95 42.5 61.85 42.4 61.75 42.3 61.6 42.3 61.45 42.3 61.35 42.4 61.25 42.5 61.25 42.65 61.25 42.8 61.35 42.9 61.45 43 61.6 43 61.75 43 61.85 42.9
M 63.25 41.7
Q 63.15 41.6 63 41.6 62.85 41.6 62.7 41.7 62.6 41.8 62.6 41.95 62.6 42.1 62.7 42.2 62.85 42.3 63 42.3 63.15 42.3 63.25 42.2 63.4 42.1 63.4 41.95 63.4 41.8 63.25 41.7
M 65.7 40.2
Q 65.7 40 65.55 39.85 65.45 39.7 65.25 39.7 65.05 39.7 64.9 39.85 64.8 40 64.8 40.2 64.8 40.4 64.9 40.55 65.05 40.7 65.25 40.7 65.45 40.7 65.55 40.55 65.7 40.4 65.7 40.2
M 63.4 38.8
Q 63.4 39.5 63.65 39.1 63.7 39.05 63.4 38.8
M 70.05 42.25
Q 70.2 42.15 70.2 42 70.2 41.85 70.05 41.7 69.95 41.6 69.75 41.6 69.55 41.6 69.4 41.7 69.3 41.85 69.3 42 69.3 42.15 69.4 42.25 69.55 42.4 69.75 42.4 69.95 42.4 70.05 42.25
M 66.3 43.15
Q 66.2 43.05 66.05 43.05 65.9 43.05 65.75 43.15 65.65 43.3 65.65 43.5 65.65 43.7 65.75 43.8 65.9 43.95 66.05 43.95 66.2 43.95 66.3 43.8 66.45 43.7 66.45 43.5 66.45 43.3 66.3 43.15
M 67.15 41.8
L 67.75 42.2
Q 68.45 42.8 68.3 42.15 68.3 42.1 68.2 42.05
L 67.15 41.8
M 66.6 38.7
Q 66.5 38.85 66.5 39 66.5 39.15 66.6 39.25 66.7 39.4 66.85 39.4 67 39.4 67.1 39.25 67.2 39.15 67.2 39 67.2 38.85 67.1 38.7 67 38.6 66.85 38.6 66.7 38.6 66.6 38.7
M 69.2 37.8
Q 69.35 37.7 69.35 37.5 69.35 37.3 69.2 37.15 69.1 37.05 68.95 37.05 68.8 37.05 68.65 37.15 68.55 37.3 68.55 37.5 68.55 37.7 68.65 37.8 68.8 37.95 68.95 37.95 69.1 37.95 69.2 37.8
M 67.85 36.25
Q 68 36.35 68.2 36.35 68.4 36.35 68.5 36.25 68.65 36.15 68.65 36 68.65 35.85 68.5 35.75 68.4 35.65 68.2 35.65 68 35.65 67.85 35.75 67.75 35.85 67.75 36 67.75 36.15 67.85 36.25
M 66.45 36.45
Q 66.35 36.6 66.35 36.8 66.35 37 66.45 37.1 66.6 37.25 66.75 37.25 66.9 37.25 67 37.1 67.15 37 67.15 36.8 67.15 36.6 67 36.45 66.9 36.35 66.75 36.35 66.6 36.35 66.45 36.45
M 66.2 35.1
Q 66.1 35.25 66.1 35.4 66.1 35.55 66.2 35.65 66.3 35.8 66.45 35.8 66.6 35.8 66.7 35.65 66.8 35.55 66.8 35.4 66.8 35.25 66.7 35.1 66.6 35 66.45 35 66.3 35 66.2 35.1
M 63.3 35.6
Q 63.4 35.5 63.4 35.35 63.4 35.2 63.3 35.05 63.2 34.95 63.05 34.95 62.9 34.95 62.8 35.05 62.7 35.2 62.7 35.35 62.7 35.5 62.8 35.6 62.9 35.75 63.05 35.75 63.2 35.75 63.3 35.6
M 68.45 30.9
Q 68.45 30.7 68.3 30.55 68.15 30.45 67.95 30.45 67.75 30.45 67.6 30.55 67.45 30.7 67.45 30.9 67.45 31.1 67.6 31.2 67.75 31.35 67.95 31.35 68.15 31.35 68.3 31.2 68.45 31.1 68.45 30.9
M 75.65 35.7
Q 75.8 35.7 75.9 35.6 76.05 35.5 76.05 35.35 76.05 35.2 75.9 35.1 75.8 35 75.65 35 75.5 35 75.35 35.1 75.25 35.2 75.25 35.35 75.25 35.5 75.35 35.6 75.5 35.7 75.65 35.7
M 71.55 31.6
L 71.55 31
Q 71.45 30.3 70.75 30.5 70.65 30.55 70.6 30.65 69.75 31.95 70.85 33.15 71.7 34.15 73.25 34.05
L 71.55 31.6
M 72.2 30.6
Q 72.1 30.75 72.1 30.9 72.1 31.05 72.2 31.15 72.35 31.3 72.55 31.3 72.75 31.3 72.85 31.15 73 31.05 73 30.9 73 30.75 72.85 30.6 72.75 30.5 72.55 30.5 72.35 30.5 72.2 30.6
M 50.45 28.65
Q 50.25 28.95 50.7 29 50.8 28 50.45 28.65
M 58.95 47.4
Q 59.1 47.3 59.1 47.1 59.1 46.9 58.95 46.75 58.85 46.65 58.65 46.65 58.45 46.65 58.3 46.75 58.2 46.9 58.2 47.1 58.2 47.3 58.3 47.4 58.45 47.55 58.65 47.55 58.85 47.55 58.95 47.4
M 59.6 48.85
L 59 49.4
Q 59.65 49.85 59.65 49 59.65 48.9 59.6 48.85
M 56.45 46.05
Q 56.65 46.2 56.9 46.2 57.15 46.2 57.35 46.05 57.55 45.9 57.55 45.65 57.55 45.4 57.35 45.25 57.15 45.1 56.9 45.1 56.65 45.1 56.45 45.25 56.25 45.4 56.25 45.65 56.25 45.9 56.45 46.05
M 57.9 44.5
Q 58.05 44.5 58.15 44.35 58.25 44.25 58.25 44.1 58.25 43.95 58.15 43.8 58.05 43.7 57.9 43.7 57.75 43.7 57.65 43.8 57.55 43.95 57.55 44.1 57.55 44.25 57.65 44.35 57.75 44.5 57.9 44.5
M 55.2 49.4
Q 55.3 49.3 55.3 49.15 55.3 49 55.2 48.85 55.1 48.75 54.95 48.75 54.8 48.75 54.7 48.85 54.6 49 54.6 49.15 54.6 49.3 54.7 49.4 54.8 49.55 54.95 49.55 55.1 49.55 55.2 49.4
M 55.3 47.15
Q 55.3 47 55.15 46.9 55.05 46.8 54.9 46.8 54.75 46.8 54.6 46.9 54.5 47 54.5 47.15 54.5 47.3 54.6 47.4 54.75 47.5 54.9 47.5 55.05 47.5 55.15 47.4 55.3 47.3 55.3 47.15
M 52.2 49.4
Q 52.35 48.9 51.85 49.15 51.65 49.3 52.05 49.5 52.1 49.45 52.2 49.4
M 52.8 45.35
L 52.55 46.1 53.55 44.7 52.8 45.35
M 51.15 44.6
Q 50.95 44.6 50.8 44.7 50.7 44.8 50.7 44.95 50.7 45.1 50.8 45.2 50.95 45.3 51.15 45.3 51.35 45.3 51.45 45.2 51.6 45.1 51.6 44.95 51.6 44.8 51.45 44.7 51.35 44.6 51.15 44.6
M 55.55 42.15
Q 55.5 42.3 55.55 42.5 56.35 42.7 56.6 43.5 56.85 42.85 56.25 42.2 55.85 41.5 55.55 42.15
M 53.7 41.15
Q 53.4 41.15 53.2 41
L 53.05 41.4 54.05 41.85
Q 54.2 41.4 53.7 41.15
M 53.6 42.6
Q 53.4 42.6 53.25 42.75 53.15 42.9 53.15 43.15 53.15 43.4 53.25 43.55 53.4 43.7 53.6 43.7 53.8 43.7 53.9 43.55 54.05 43.4 54.05 43.15 54.05 42.9 53.9 42.75 53.8 42.6 53.6 42.6
M 51.65 42.25
Q 51.4 42.25 51.25 42.35 51.1 42.5 51.1 42.7 51.1 42.9 51.25 43 51.4 43.15 51.65 43.15 51.9 43.15 52.05 43 52.2 42.9 52.2 42.7 52.2 42.5 52.05 42.35 51.9 42.25 51.65 42.25
M 52.4 39.45
L 52.4 40.05 53.05 40.05 53.05 39.45 52.4 39.45
M 51.6 40.15
Q 51.3 39.8 50.95 39.5 50.6 39.6 50.3 39.7 50.15 40.45 50.9 40.75
L 51.4 40.7
Q 51.9 40.55 51.6 40.15
M 59.4 41.75
Q 59.8 41.7 59.95 41.35 60.2 40.75 60.3 40.15 59.35 40.9 58.45 41.85 58.2 42.1 58.2 42.5 58.2 42.65 58.3 42.8 58.5 42.1 59.4 41.75
M 55.9 40.8
Q 56.05 40.7 56.05 40.5 56.05 40.3 55.9 40.15 55.8 40.05 55.65 40.05 55.5 40.05 55.35 40.15 55.25 40.3 55.25 40.5 55.25 40.7 55.35 40.8 55.5 40.95 55.65 40.95 55.8 40.95 55.9 40.8
M 57.85 40.15
Q 58 40.15 58.1 40 58.25 39.9 58.25 39.7 58.25 39.5 58.1 39.35 58 39.25 57.85 39.25 57.7 39.25 57.55 39.35 57.45 39.5 57.45 39.7 57.45 39.9 57.55 40 57.7 40.15 57.85 40.15
M 49.15 48.95
Q 48.9 49.15 48.9 49.45 48.9 49.75 49.15 49.95 49.4 50.15 49.75 50.15 50.1 50.15 50.35 49.95 50.6 49.75 50.6 49.45 50.6 49.15 50.35 48.95 50.1 48.75 49.75 48.75 49.4 48.75 49.15 48.95
M 49 46.8
L 49 47.6 50 46.1 49 46.8
M 46.85 43.9
L 46.8 43.8 46.25 43.35
Q 46.05 44.1 46.85 43.9
M 49.2 44.5
Q 49.35 44.4 49.35 44.2 49.35 44 49.2 43.85 49.1 43.75 48.95 43.75 48.8 43.75 48.65 43.85 48.55 44 48.55 44.2 48.55 44.4 48.65 44.5 48.8 44.65 48.95 44.65 49.1 44.65 49.2 44.5
M 44.2 48.6
L 43.4 49
Q 44.05 49.95 45.15 49.75 45.3 49.7 45.45 49.7 45.3 49.35 45.05 49.1 44.65 48.8 44.2 48.6
M 42.75 47.9
Q 42.75 47.7 42.6 47.55 42.5 47.45 42.35 47.45 42.2 47.45 42.05 47.55 41.95 47.7 41.95 47.9 41.95 48.1 42.05 48.2 42.2 48.35 42.35 48.35 42.5 48.35 42.6 48.2 42.75 48.1 42.75 47.9
M 42 46.1
L 41.3 45.35 40.9 45.55
Q 40.9 46.25 41.4 46.65 41.65 46.85 41.8 46.5
L 42 46.1
M 40.55 43.95
Q 40.55 44 40.6 44.1 41 44.45 41.3 43.9 41.45 43.55 41.7 43.3 40.85 42.95 40.55 43.95
M 44.3 42.55
Q 44.1 42.15 43.85 41.8
L 43 41.8 43.9 43.5
Q 43.65 43.8 43.5 44.15 43.35 44.4 43.3 44.75 44.35 47 46.6 48.2
L 48.4 45.4 46.7 46.45 46.05 46.4
Q 44.85 45.4 44.65 43.7 44.6 43.1 44.3 42.55
M 41.05 42.05
Q 41.25 41.85 41.25 41.55 41.25 41.25 41.05 41.05 40.9 40.85 40.65 40.85 40.4 40.85 40.2 41.05 40.05 41.25 40.05 41.55 40.05 41.85 40.2 42.05 40.4 42.25 40.65 42.25 40.9 42.25 41.05 42.05
M 40.55 38.9
Q 40.6 38.85 40.7 38.85 40.7 38.65 40.65 38.55 40.3 38.25 39.9 38 39.7 38.8 40.55 38.9
M 41.3 39.75
Q 41.25 39.85 41.3 40 41.75 40.35 41.85 39.65 41.9 39.45 41.7 39.25 41.45 39.45 41.3 39.75
M 46.4 42.3
Q 46.15 41.85 45.9 41.45 45.75 41.25 45.55 41.1 45.35 41.1 45.25 41.15 45.1 41.3 45.05 41.5
L 46.4 42.3
M 47.75 41.65
Q 47.65 41.55 47.5 41.55 47.35 41.55 47.25 41.65 47.15 41.8 47.15 41.95 47.15 42.1 47.25 42.2 47.35 42.35 47.5 42.35 47.65 42.35 47.75 42.2 47.85 42.1 47.85 41.95 47.85 41.8 47.75 41.65
M 45.95 39.5
Q 46.35 39.2 46.8 39 45.65 37.6 44.05 38.3 43.85 38.4 43.7 38.55
L 43.65 39.4
Q 44.6 40.4 45.95 39.5
M 49.65 39.25
Q 49.5 38.95 49.35 38.7 48.75 39.45 48.65 40.35 48.65 40.5 48.75 40.7 48.8 40.8 48.9 40.9 49.2 40.9 49.5 40.9 49.6 40.85 49.75 40.8 50.05 40.1 49.65 39.25
M 49.25 36.05
Q 49.25 35.8 49.05 35.65 48.85 35.5 48.6 35.5 48.35 35.5 48.15 35.65 47.95 35.8 47.95 36.05 47.95 36.3 48.15 36.45 48.35 36.6 48.6 36.6 48.85 36.6 49.05 36.45 49.25 36.3 49.25 36.05
M 49.7 34.6
Q 49.1 34.35 49.75 34.7
L 49.9 34.8
Q 49.9 34.7 49.7 34.6
M 46.95 36.6
Q 47.2 36.35 47.2 36 47.2 35.65 46.95 35.35 46.75 35.1 46.45 35.1 46.15 35.1 45.9 35.35 45.7 35.65 45.7 36 45.7 36.35 45.9 36.6 46.15 36.9 46.45 36.9 46.75 36.9 46.95 36.6
M 45.75 33.3
Q 45.9 33.45 46.05 33.45 46.2 33.45 46.3 33.3 46.45 33.2 46.45 33 46.45 32.8 46.3 32.65 46.2 32.55 46.05 32.55 45.9 32.55 45.75 32.65 45.65 32.8 45.65 33 45.65 33.2 45.75 33.3
M 46 31.9
L 46.45 31 46.35 30.5
Q 46.05 30.85 45.8 31.3 45.65 31.6 45.55 32
L 46 31.9
M 43 34.7
Q 42.55 34.7 43 35.2 43.15 35.45 43.5 35.6 43.65 35.6 43.85 35.6 44.3 35.2 43 34.7
M 41.4 35.75
Q 41.4 35.45 41.2 35.2 41 35 40.75 35 40.5 35 40.3 35.2 40.1 35.45 40.1 35.75 40.1 36.05 40.3 36.25 40.5 36.5 40.75 36.5 41 36.5 41.2 36.25 41.4 36.05 41.4 35.75
M 42.55 31.5
L 41.65 31.2
Q 41.4 31.65 42.05 31.65 42.3 31.7 42.5 31.55 42.55 31.65 42.55 31.5
M 42.75 30.1
Q 42.75 29.9 42.6 29.75 42.5 29.65 42.35 29.65 42.2 29.65 42.05 29.75 41.95 29.9 41.95 30.1 41.95 30.3 42.05 30.4 42.2 30.55 42.35 30.55 42.5 30.55 42.6 30.4 42.75 30.3 42.75 30.1
M 42.7 27.7
L 42 27.7 42 28.25 42.7 28.25 42.7 27.7
M 42.4 26.1
Q 42.25 25.95 42 25.95 41.75 25.95 41.55 26.1 41.4 26.25 41.4 26.45 41.4 26.65 41.55 26.8 41.75 26.95 42 26.95 42.25 26.95 42.4 26.8 42.6 26.65 42.6 26.45 42.6 26.25 42.4 26.1
M 44 26.4
Q 43.75 26.85 44.35 27.2 44.6 27.45 44.9 27.6
L 44.7 26.85 44 26.4
M 49.75 30.85
L 48.95 30.9 48.7 31.8 49.15 32
Q 49.5 31.65 49.7 31.2 49.8 31.05 49.75 30.85
M 47.7 28.2
Q 48.15 27.45 47.15 27.35 47.05 27.35 47 27.4 46.75 27.9 47.6 28.05 47.65 28.1 47.7 28.2
M 55.65 25
Q 55.5 25.2 55.9 25.3 56.1 24.4 55.65 25
M 60.3 37
Q 60.45 36.9 60.45 36.7 60.45 36.5 60.3 36.35 60.2 36.25 60.05 36.25 59.9 36.25 59.75 36.35 59.65 36.5 59.65 36.7 59.65 36.9 59.75 37 59.9 37.15 60.05 37.15 60.2 37.15 60.3 37
M 56.15 36.5
Q 56.05 36.65 56.05 36.85 56.05 37.05 56.15 37.15 56.3 37.3 56.45 37.3 56.6 37.3 56.7 37.15 56.85 37.05 56.85 36.85 56.85 36.65 56.7 36.5 56.6 36.4 56.45 36.4 56.3 36.4 56.15 36.5
M 57.5 35.15
Q 57.5 35.05 57.35 34.95 57.25 34.85 57.1 34.85 56.95 34.85 56.8 34.95 56.7 35.05 56.7 35.15 56.7 35.25 56.8 35.35 56.95 35.45 57.1 35.45 57.25 35.45 57.35 35.35 57.5 35.25 57.5 35.15
M 58.15 33.2
Q 58.05 33.05 57.9 33.05 57.75 33.05 57.6 33.2 57.5 33.35 57.5 33.55 57.5 33.75 57.6 33.9 57.75 34.05 57.9 34.05 58.05 34.05 58.15 33.9 58.3 33.75 58.3 33.55 58.3 33.35 58.15 33.2
M 51.5 32.7
Q 51.65 32.6 51.65 32.4 51.65 32.2 51.5 32.05 51.4 31.95 51.25 31.95 51.1 31.95 50.95 32.05 50.85 32.2 50.85 32.4 50.85 32.6 50.95 32.7 51.1 32.85 51.25 32.85 51.4 32.85 51.5 32.7
M 57.5 29.05
Q 57.5 28.9 57.35 28.8 57.25 28.7 57.1 28.7 56.95 28.7 56.8 28.8 56.7 28.9 56.7 29.05 56.7 29.2 56.8 29.3 56.95 29.4 57.1 29.4 57.25 29.4 57.35 29.3 57.5 29.2 57.5 29.05
M 56 27.45
L 56 26.9 55.3 26.9 55.3 27.45 56 27.45
M 53.5 24.35
Q 53.65 24.7 53.7 24.3 53.25 23.85 53.5 24.35
M 50.9 24.35
Q 50.8 24.5 50.8 24.7 50.8 24.9 50.9 25.05 51.05 25.2 51.25 25.2 51.45 25.2 51.55 25.05 51.7 24.9 51.7 24.7 51.7 24.5 51.55 24.35 51.45 24.2 51.25 24.2 51.05 24.2 50.9 24.35
M 53.15 19
Q 53.15 18.85 53 18.75 52.9 18.65 52.7 18.65 52.5 18.65 52.35 18.75 52.25 18.85 52.25 19 52.25 19.15 52.35 19.25 52.5 19.35 52.7 19.35 52.9 19.35 53 19.25 53.15 19.15 53.15 19
M 55.95 18.45
Q 56.05 18.35 56.05 18.2 56.05 18.05 55.95 17.95 55.85 17.85 55.7 17.85 55.55 17.85 55.45 17.95 55.35 18.05 55.35 18.2 55.35 18.35 55.45 18.45 55.55 18.55 55.7 18.55 55.85 18.55 55.95 18.45
M 50.15 21.8
Q 50.3 22.1 50.5 22.4 50.85 20.95 50 19.9 49.7 20.85 50.15 21.8
M 49.55 22.8
Q 49.55 22.6 49.4 22.45 49.3 22.35 49.1 22.35 48.9 22.35 48.75 22.45 48.65 22.6 48.65 22.8 48.65 23 48.75 23.1 48.9 23.25 49.1 23.25 49.3 23.25 49.4 23.1 49.55 23 49.55 22.8
M 46.2 23.05
Q 46.55 23.5 47 23.9 47.55 22.9 46.5 22.35 46.35 22.3 46.25 22.3 45.8 22.5 46.2 23.05
M 47.15 19.85
Q 47.15 19.65 47 19.5 46.9 19.4 46.75 19.4 46.6 19.4 46.45 19.5 46.35 19.65 46.35 19.85 46.35 20.05 46.45 20.15 46.6 20.3 46.75 20.3 46.9 20.3 47 20.15 47.15 20.05 47.15 19.85
M 48.75 20.5
Q 48.75 20.35 48.6 20.25 48.5 20.15 48.3 20.15 48.1 20.15 47.95 20.25 47.85 20.35 47.85 20.5 47.85 20.65 47.95 20.75 48.1 20.85 48.3 20.85 48.5 20.85 48.6 20.75 48.75 20.65 48.75 20.5
M 45.3 24.5
Q 45.45 24.4 45.45 24.25 45.45 24.1 45.3 23.95 45.2 23.85 45 23.85 44.8 23.85 44.65 23.95 44.55 24.1 44.55 24.25 44.55 24.4 44.65 24.5 44.8 24.65 45 24.65 45.2 24.65 45.3 24.5
M 42.4 24.2
Q 42.45 24.3 42.5 24.4 42.9 23.5 41.85 23.2 41.75 23.25 41.7 23.3 41.4 24 42.4 24.2
M 42.7 21.95
Q 42.7 21.8 42.55 21.7 42.45 21.6 42.3 21.6 42.15 21.6 42 21.7 41.9 21.8 41.9 21.95 41.9 22.1 42 22.2 42.15 22.3 42.3 22.3 42.45 22.3 42.55 22.2 42.7 22.1 42.7 21.95
M 45.3 19.8
Q 45.3 19.65 45.15 19.55 45.05 19.45 44.9 19.45 44.75 19.45 44.6 19.55 44.5 19.65 44.5 19.8 44.5 19.95 44.6 20.05 44.75 20.15 44.9 20.15 45.05 20.15 45.15 20.05 45.3 19.95 45.3 19.8
M 45.25 17.35
Q 44.4 16.9 44.75 17.8 45.25 18.7 45.3 17.6 45.3 17.45 45.25 17.35
M 42.05 18.2
Q 42.25 18.4 42.55 18.4 42.85 18.4 43.05 18.2 43.25 18.05 43.25 17.8 43.25 17.55 43.05 17.35 42.85 17.2 42.55 17.2 42.25 17.2 42.05 17.35 41.85 17.55 41.85 17.8 41.85 18.05 42.05 18.2
M 40.9 13.35
Q 41.05 13.25 41.05 13.05 41.05 12.85 40.9 12.7 40.75 12.6 40.55 12.6 40.35 12.6 40.2 12.7 40.05 12.85 40.05 13.05 40.05 13.25 40.2 13.35 40.35 13.5 40.55 13.5 40.75 13.5 40.9 13.35
M 45.3 13.8
Q 45.3 13.6 45.15 13.45 45.05 13.35 44.9 13.35 44.75 13.35 44.6 13.45 44.5 13.6 44.5 13.8 44.5 14 44.6 14.1 44.75 14.25 44.9 14.25 45.05 14.25 45.15 14.1 45.3 14 45.3 13.8
M 50.15 16.3
Q 50.3 16.4 50.45 16.4 50.6 16.4 50.7 16.3 50.85 16.2 50.85 16.1 50.85 16 50.7 15.9 50.6 15.8 50.45 15.8 50.3 15.8 50.15 15.9 50.05 16 50.05 16.1 50.05 16.2 50.15 16.3
M 47 17.85
Q 47.1 17.75 47.1 17.6 47.1 17.45 47 17.3 46.9 17.2 46.75 17.2 46.6 17.2 46.5 17.3 46.4 17.45 46.4 17.6 46.4 17.75 46.5 17.85 46.6 18 46.75 18 46.9 18 47 17.85
M 44 8.9
Q 44.4 8.15 43.4 8.1 43.3 8.1 43.25 8.15 43.25 8.6 43.9 8.75 43.95 8.8 44 8.9
M 80.35 16.3
Q 80.5 16.2 80.5 16.05 80.5 15.9 80.35 15.75 80.25 15.65 80.05 15.65 79.85 15.65 79.7 15.75 79.6 15.9 79.6 16.05 79.6 16.2 79.7 16.3 79.85 16.45 80.05 16.45 80.25 16.45 80.35 16.3
M 77.65 16.15
Q 77.75 16.3 78 16.4 78.35 15.65 77.6 16 77.5 16 77.65 16.15
M 78.85 13.4
Q 79 13.3 79 13.1 79 12.9 78.85 12.75 78.75 12.65 78.55 12.65 78.35 12.65 78.2 12.75 78.1 12.9 78.1 13.1 78.1 13.3 78.2 13.4 78.35 13.55 78.55 13.55 78.75 13.55 78.85 13.4
M 65.6 23.45
Q 65.6 23.3 65.45 23.2 65.35 23.1 65.2 23.1 65.05 23.1 64.9 23.2 64.8 23.3 64.8 23.45 64.8 23.6 64.9 23.7 65.05 23.8 65.2 23.8 65.35 23.8 65.45 23.7 65.6 23.6 65.6 23.45
M 81 56.3
Q 81.15 56.2 81.15 56 81.15 55.8 81 55.65 80.9 55.55 80.75 55.55 80.6 55.55 80.45 55.65 80.35 55.8 80.35 56 80.35 56.2 80.45 56.3 80.6 56.45 80.75 56.45 80.9 56.45 81 56.3
M 82.5 50.3
Q 82.65 50.2 82.65 50.05 82.65 49.9 82.5 49.8 82.4 49.7 82.25 49.7 82.1 49.7 81.95 49.8 81.85 49.9 81.85 50.05 81.85 50.2 81.95 50.3 82.1 50.4 82.25 50.4 82.4 50.4 82.5 50.3
M 83.9 52.4
Q 84.05 52.3 84.05 52.15 84.05 52 83.9 51.9 83.75 51.8 83.55 51.8 83.35 51.8 83.2 51.9 83.05 52 83.05 52.15 83.05 52.3 83.2 52.4 83.35 52.5 83.55 52.5 83.75 52.5 83.9 52.4
M 84.45 50.6
Q 84.65 50.6 84.75 50.45 84.9 50.35 84.9 50.15 84.9 49.95 84.75 49.8 84.65 49.7 84.45 49.7 84.25 49.7 84.1 49.8 84 49.95 84 50.15 84 50.35 84.1 50.45 84.25 50.6 84.45 50.6
M 87 53.3
Q 87.15 53.2 87.15 53 87.15 52.8 87 52.65 86.9 52.55 86.75 52.55 86.6 52.55 86.45 52.65 86.35 52.8 86.35 53 86.35 53.2 86.45 53.3 86.6 53.45 86.75 53.45 86.9 53.45 87 53.3
M 81.8 48.9
Q 81.95 48.8 81.95 48.6 81.95 48.4 81.8 48.25 81.7 48.15 81.55 48.15 81.4 48.15 81.25 48.25 81.15 48.4 81.15 48.6 81.15 48.8 81.25 48.9 81.4 49.05 81.55 49.05 81.7 49.05 81.8 48.9
M 84.8 42.95
Q 84.9 42.85 84.9 42.7 84.9 42.55 84.8 42.4 84.7 42.3 84.55 42.3 84.4 42.3 84.3 42.4 84.2 42.55 84.2 42.7 84.2 42.85 84.3 42.95 84.4 43.1 84.55 43.1 84.7 43.1 84.8 42.95
M 81.25 38.3
Q 81.25 38.1 81.1 37.95 81 37.85 80.85 37.85 80.7 37.85 80.55 37.95 80.45 38.1 80.45 38.3 80.45 38.5 80.55 38.6 80.7 38.75 80.85 38.75 81 38.75 81.1 38.6 81.25 38.5 81.25 38.3
M 84.15 38.95
Q 84.2 38.85 84.3 38.85 84.6 38.45 84 38.3 83.75 38.15 83.5 38 83.25 38.75 84.15 38.95
M 87.15 41.75
Q 87.05 41.9 87.05 42.1 87.05 42.3 87.15 42.4 87.3 42.55 87.45 42.55 87.6 42.55 87.7 42.4 87.85 42.3 87.85 42.1 87.85 41.9 87.7 41.75 87.6 41.65 87.45 41.65 87.3 41.65 87.15 41.75
M 88.45 41.3
Q 88.45 41.45 88.55 41.55 88.7 41.65 88.9 41.65 89.1 41.65 89.2 41.55 89.35 41.45 89.35 41.3 89.35 41.15 89.2 41.05 89.1 40.95 88.9 40.95 88.7 40.95 88.55 41.05 88.45 41.15 88.45 41.3
M 87.8 39.85
Q 87.6 39.35 87.1 39.5 87.05 40.05 87.45 40.25 87.95 40.15 87.8 39.85
M 90.7 35.6
Q 90.8 35.5 90.8 35.35 90.8 35.2 90.7 35.05 90.6 34.95 90.45 34.95 90.3 34.95 90.2 35.05 90.1 35.2 90.1 35.35 90.1 35.5 90.2 35.6 90.3 35.75 90.45 35.75 90.6 35.75 90.7 35.6
M 87.6 36.05
Q 88.05 36.05 88.5 36 88 35.7 87.5 35.7 87.4 35.7 87.35 35.75 87.3 36.05 87.6 36.05
M 86.9 37.05
Q 87 36.95 87 36.8 87 36.65 86.9 36.55 86.8 36.45 86.65 36.45 86.5 36.45 86.4 36.55 86.3 36.65 86.3 36.8 86.3 36.95 86.4 37.05 86.5 37.15 86.65 37.15 86.8 37.15 86.9 37.05
M 85.2 35.65
Q 85.3 35.75 85.55 35.7
L 86.1 34.9 86 34.4 85.25 35.5
Q 85.15 35.65 85.2 35.65
M 84.15 36.45
Q 84.05 36.6 84.05 36.8 84.05 37 84.15 37.1 84.3 37.25 84.45 37.25 84.6 37.25 84.7 37.1 84.85 37 84.85 36.8 84.85 36.6 84.7 36.45 84.6 36.35 84.45 36.35 84.3 36.35 84.15 36.45
M 82.75 33.3
Q 82.9 33.45 83.05 33.45 83.2 33.45 83.3 33.3 83.45 33.2 83.45 33.05 83.45 32.9 83.3 32.75 83.2 32.65 83.05 32.65 82.9 32.65 82.75 32.75 82.65 32.9 82.65 33.05 82.65 33.2 82.75 33.3
M 86.9 27.2
Q 86.55 27.7 87.25 28.2 87.4 28.2 87.6 28.25 88.05 27.65 86.9 27.2
M 92.3 35.35
Q 92.3 35.2 92.2 35.05 92.1 34.95 91.95 34.95 91.8 34.95 91.7 35.05 91.6 35.2 91.6 35.35 91.6 35.5 91.7 35.6 91.8 35.75 91.95 35.75 92.1 35.75 92.2 35.6 92.3 35.5 92.3 35.35 Z"/>
</g>
</defs>

<g transform="matrix( 1, 0, 0, 1, 2.75,1.5) ">
<use xlink:href="#Layer1_0_FILL"/>
</g>
</svg>
