
<svg xmlns="http://www.w3.org/2000/svg" version="1.1" xmlns:xlink="http://www.w3.org/1999/xlink" preserveAspectRatio="none" x="0px" y="0px" width="100px" height="100px" viewBox="0 0 100 100">
<defs>
<g id="Layer1_0_FILL">
<path fill="#000000" stroke="none" d="
M 61.9 76.8
Q 62.1 77.35 62.3 77 61.8 76.4 61.9 76.8
M 79.45 84.15
Q 79.55 84.05 79.55 83.9 79.55 83.75 79.45 83.65 79.35 83.55 79.2 83.55 79.05 83.55 78.95 83.65 78.85 83.75 78.85 83.9 78.85 84.05 78.95 84.15 79.05 84.25 79.2 84.25 79.35 84.25 79.45 84.15
M 73.5 85.5
Q 73.9 85.3 73.4 85.25 73.1 85.65 73.5 85.5
M 72.95 84.85
Q 73.05 84.95 73.2 84.95 73.35 84.95 73.45 84.85 73.55 84.75 73.55 84.65 73.55 84.55 73.45 84.45 73.35 84.35 73.2 84.35 73.05 84.35 72.95 84.45 72.85 84.55 72.85 84.65 72.85 84.75 72.95 84.85
M 71.4 85.05
Q 71.85 84.65 71.5 84 71.3 83.7 71.1 83.45
L 70.3 84.35 71.4 85.05
M 72.5 82.65
L 72 83.2 72.65 83.8
Q 72.55 83.2 72.5 82.65
M 74.9 83.15
L 73.95 82.45 73.1 82.45 74.15 83.95 74.9 84.25 74.75 83.85 74.9 83.15
M 74.2 80.65
Q 73.95 81.1 74.5 81.45 74.7 81.55 74.9 81.65
L 74.8 80.35 74.2 80.65
M 74.45 68.4
L 73.9 68.4 72.3 67.25 72.4 69.15 72.6 68.45
Q 74.6 69.3 75.8 67.45
L 74.45 68.4
M 75.5 70.9
Q 75.65 71.05 75.85 71.05 76.05 71.05 76.15 70.9 76.3 70.8 76.3 70.65 76.3 70.5 76.15 70.35 76.05 70.25 75.85 70.25 75.65 70.25 75.5 70.35 75.4 70.5 75.4 70.65 75.4 70.8 75.5 70.9
M 71.45 67.85
Q 71.55 67.75 71.55 67.65 71.55 67.55 71.45 67.45 71.35 67.35 71.2 67.35 71.05 67.35 70.95 67.45 70.85 67.55 70.85 67.65 70.85 67.75 70.95 67.85 71.05 67.95 71.2 67.95 71.35 67.95 71.45 67.85
M 8.9 65.35
Q 8.7 65.7 9.1 65.65 9.25 64.9 8.9 65.35
M 9.25 63.5
L 9.25 63.45
Q 9 63.25 8.75 63.15 8.55 63.05 8.3 63.05
L 9.25 63.5
M 9.75 63.85
L 9.25 63.5 9.9 64.2 9.75 63.85
M 9.1 61.6
Q 9.35 61.2 9.5 60.75 9.05 61 8.7 60.7 8.45 60.6 8.3 60.45 8 61.7 8.7 62.55 8.9 62 9.1 61.6
M 6.5 59.55
Q 6.25 59.75 6 59.95
L 8.2 59.75
Q 7.65 58.6 6.5 59.55
M 8.65 58.35
Q 8.55 58.35 8.45 58.45 8.35 58.6 8.35 58.8 8.35 59 8.45 59.1 8.55 59.25 8.65 59.25 8.75 59.25 8.85 59.1 8.95 59 8.95 58.8 8.95 58.6 8.85 58.45 8.75 58.35 8.65 58.35
M 17.55 61.45
Q 17.75 61 18 60.55
L 16.1 62.25 16.75 62.25
Q 17.3 62 17.55 61.45
M 11.8 60.2
L 12.2 59.9 12.75 60.55 13.6 60.25
Q 13.9 59.6 13.55 58.85 13.5 58.7 13.5 58.6 12.65 59.1 11.7 59.5 11.5953125 59.55234375 11.5 59.6 11 59.2 10.45 58.95
L 10.4 59.1 10.4 59.15
Q 10.05 59.4 9.75 59.65
L 10.5 61.5 12 61.05 12.15 60.95
Q 12.05 60.55 11.8 60.2
M 10.65 58.25
Q 10.65 58.1 10.5 58 10.4 57.9 10.25 57.9 10.1 57.9 9.95 58 9.85 58.1 9.85 58.25 9.85 58.4 9.95 58.5 10.1 58.6 10.25 58.6 10.4 58.6 10.5 58.5 10.65 58.4 10.65 58.25
M 13.5 56.95
Q 13.45 56.3 13.35 56.85 13.3 57.1 13.5 56.95
M 15.1 57.05
Q 14.3 57.7 15.1 57.45 15.3 57.35 15.25 57.1 15.2 57.05 15.1 57.05
M 13.95 55.35
L 14.5 54.65
Q 14 54.55 13.5 54.55 12.65 54.35 12.65 55.1 12.7 55.2 12.8 55.3 12.9 55.45 13.1 55.55 13.25 55.55 13.4 55.55
L 13.95 55.35
M 10.3 55.2
Q 10.3 55.05 10.2 54.95 10.1 54.85 9.95 54.85 9.8 54.85 9.7 54.95 9.6 55.05 9.6 55.2 9.6 55.35 9.7 55.45 9.8 55.55 9.95 55.55 10.1 55.55 10.2 55.45 10.3 55.35 10.3 55.2
M 11.7 50.35
Q 12.05 50.8 11.95 50.5 11.8 50.15 11.6 50.25
L 11.7 50.35
M 16.8 54.1
Q 16.25 53.3 15.5 53.25 15.6 54.1 16.2 54.75 16.25 54.8 16.35 54.85 16.45 54.8 16.55 54.75 16.65 54.65 16.7 54.55 16.8 54.35 16.8 54.1
M 16.85 52.35
Q 16.75 52.45 16.75 52.55 16.75 52.65 16.85 52.75 16.95 52.85 17.1 52.85 17.25 52.85 17.35 52.75 17.45 52.65 17.45 52.55 17.45 52.45 17.35 52.35 17.25 52.25 17.1 52.25 16.95 52.25 16.85 52.35
M 16.1 50.6
Q 15.95 50.6 15.8 50.7 15.7 50.8 15.7 50.95 15.7 51.1 15.8 51.2 15.95 51.3 16.1 51.3 16.25 51.3 16.35 51.2 16.5 51.1 16.5 50.95 16.5 50.8 16.35 50.7 16.25 50.6 16.1 50.6
M 21.35 61.55
Q 21.2 61.55 21.2 61.65 21.15 61.9 21.2 62.2
L 21.35 61.55
M 23.1 56.5
Q 23.3 56.8 23.3 56.45 22.85 56 23.1 56.5
M 25 54.75
L 24.85 55.5 25.8 56 26.2 54.25 25 54.75
M 24.9 53.65
L 23.3 54.95
Q 24.25 55.5 24.75 54.3 24.85 53.95 24.9 53.65
M 21.2 53.55
L 22.3 54 22.95 53.2 22.2 51.75 22.1 52.95 21.2 53.55
M 21.5 49.95
Q 21.65 49.75 21.8 49.6
L 19.5 49.35 19.05 49.8 19.05 50.25 19.6 50.8
Q 20.05 50.75 20.45 50.6 21 50.35 21.5 49.95
M 24.3 52.45
Q 24.6 52.35 24.3 52.05 23.9 51.75 23.55 51.4
L 22.9 51.65
Q 22.9 52.7 24.1 52.65 24.2 52.55 24.3 52.45
M 33.4 48.6
L 32.5 48.6 32.5 49.65 33.4 49.65 33.4 48.6
M 33.95 49
L 34 49
Q 34.6 49.1 34.65 48.3 34.65 48.2 34.65 48.15 34.25 48.55 33.95 49
M 34.35 47
L 34.5 46.6
Q 33.65 46.45 32.95 47.1 32.9 47.15 32.9 47.3 33.05 47.4 33.25 47.5 33.85 47.35 34.35 47
M 31.2 44.95
Q 31.2 44.1 31.15 44.7 31.15 44.8 31.2 44.95
M 33.95 44.9
L 33.4 44.9 33.4 45.95 33.95 45.95 33.95 44.9
M 22.85 49.4
L 22.5 48.65
Q 22.4 49.9 21.3 50.95
L 22.05 51.2
Q 22.8 50.5 22.85 49.4
M 24.4 39.4
Q 24.55 39.25 24.55 39 24.55 38.75 24.4 38.55 24.25 38.4 24.05 38.4 23.85 38.4 23.7 38.55 23.55 38.75 23.55 39 23.55 39.25 23.7 39.4 23.85 39.6 24.05 39.6 24.25 39.6 24.4 39.4
M 29.9 42.25
L 30.3 42.45 30.95 41.6 30.8 41.15 29.9 42.25
M 30.3 43.05
Q 30.1 43.05 29.95 43.2 29.85 43.4 29.85 43.65 29.85 43.9 29.95 44.05 30.1 44.25 30.3 44.25 30.5 44.25 30.6 44.05 30.75 43.9 30.75 43.65 30.75 43.4 30.6 43.2 30.5 43.05 30.3 43.05
M 25.95 41
Q 26.05 41 26.2 41 25.65 40.4 25.15 40.35 25.1 40.3 25.05 40.35 25 40.75 25.95 41
M 27.05 37.5
Q 27.1 37.5 27.2 37.45 27.4 36.95 27 37.3 26.75 37.5 27.05 37.5
M 27.1 38.35
Q 27.45 38.05 27.75 37.65 27.95 37.35 28.1 36.95
L 27.1 38.35
M 28 40
L 29 39.6 28 39.6 28 40
M 24.9 35.3
Q 25 35.4 25.2 35.55
L 26.5 35 26.5 33.95 24.5 34.6
Q 24.65 34.95 24.9 35.3
M 23.85 33.3
L 23.6 33.35
Q 23.85 33.75 23.85 33.3
M 23.1 33.35
Q 23.25 33.25 23.25 33.05 23.25 32.85 23.1 32.7 23 32.6 22.85 32.6 22.7 32.6 22.55 32.7 22.45 32.85 22.45 33.05 22.45 33.25 22.55 33.35 22.7 33.5 22.85 33.5 23 33.5 23.1 33.35
M 21.5 28.6
L 22.5 27.6 21.55 27.6 21.5 28.6
M 19.1 47.45
Q 19.15 47.35 19.2 47.25 18.6 47.4 19.1 47.45
M 15.95 49.45
Q 15.65 49.3 15.4 49.2
L 15.95 49.9 17 50.45
Q 16.7 49.6 15.95 49.45
M 12.5 46.7
L 15.15 48.9
Q 15.5 48.35 15.9 47.85
L 17.1 49 18.1 49 17.3 49.75 18.5 50 18.5 48.7 17.8 48.3 17.8 47.4
Q 17.3 47.2 16.9 46.85 16.85 46.85 16.95 46.75 16.8 46.25 16.2 46.2 15.5 46.2 14.8 46.25
L 15.2 47.05 13.3 46.05 12.5 46.7
M 11.3 45.7
Q 11.45 45.6 11.45 45.45 11.45 45.3 11.3 45.15 11.2 45.05 11.05 45.05 10.9 45.05 10.75 45.15 10.65 45.3 10.65 45.45 10.65 45.6 10.75 45.7 10.9 45.85 11.05 45.85 11.2 45.85 11.3 45.7
M 14.35 45.15
Q 14.35 44.95 14.2 44.8 14.1 44.7 13.95 44.7 13.8 44.7 13.65 44.8 13.55 44.95 13.55 45.15 13.55 45.35 13.65 45.45 13.8 45.6 13.95 45.6 14.1 45.6 14.2 45.45 14.35 45.35 14.35 45.15
M 10.4 42.35
L 10.2 40.75 9.5 41.05 10.4 42.35
M 12.5 40.6
L 12.5 41.65 13.4 41.65 13.4 40.6 12.5 40.6
M 11.95 40.6
Q 11.8 40.6 11.65 40.7 11.55 40.85 11.55 41 11.55 41.15 11.65 41.25 11.8 41.4 11.95 41.4 12.1 41.4 12.2 41.25 12.35 41.15 12.35 41 12.35 40.85 12.2 40.7 12.1 40.6 11.95 40.6
M 13.45 39.7
Q 13.6 39.6 13.6 39.45 13.6 39.3 13.45 39.2 13.35 39.1 13.2 39.1 13.05 39.1 12.9 39.2 12.8 39.3 12.8 39.45 12.8 39.6 12.9 39.7 13.05 39.8 13.2 39.8 13.35 39.8 13.45 39.7
M 14.4 37.9
Q 14.25 37.8 14 37.8 13.75 37.8 13.55 37.9 13.4 38.05 13.4 38.25 13.4 38.45 13.55 38.55 13.75 38.7 14 38.7 14.25 38.7 14.4 38.55 14.6 38.45 14.6 38.25 14.6 38.05 14.4 37.9
M 15.4 42.65
L 15.4 41.6 14.5 41.6 14.5 42.65 15.4 42.65
M 16.35 39.05
L 15.4 38.35 14.5 39.75 15.1 39.95 17.65 41.75
Q 17.55 41.65 17.5 41.6 16.15 40.9 16.3 39.65 16.35 39.35 16.35 39.05
M 9.55 46.45
Q 9.25 46.65 9.8 46.65 10 46.1 9.55 46.45
M 7.45 47.7
Q 7.3 47.7 7.2 47.75 7.1 47.85 7.1 47.95 7.1 48.05 7.2 48.1 7.3 48.2 7.45 48.2 7.6 48.2 7.7 48.1 7.8 48.05 7.8 47.95 7.8 47.85 7.7 47.75 7.6 47.7 7.45 47.7
M 7.5 48.6
L 6.55 48.6 6.5 49.6 7.5 48.6
M 6.95 44
Q 6.8 44.05 7 44.25 7.45 43.65 6.95 44
M 9.1 39.35
Q 9.35 39.95 10 39.6 10.2 39.55 10.35 39.45
L 10.4 38.5
Q 10.2 38.5 10 38.5 9.8 38.6 9.6 38.7
L 9.45 39.05 9.1 39.35
M 8.1 42.95
Q 8.25 42.4 7.6 42.45 6.85 42.65 7.55 42.85 7.8 42.95 8.1 42.95
M 8.4 32.65
L 8.4 31.6 7.5 31.6 7.5 32.65 8.4 32.65
M 8.55 28.55
Q 8 28.85 8.6 29.15 8.85 29.25 9.1 29.45 9.5 29.15 8.9 28.75 8.75 28.6 8.55 28.55
M 8.3 26
Q 8.45 25.9 8.45 25.75 8.45 25.6 8.3 25.5 8.2 25.4 8 25.4 7.8 25.4 7.65 25.5 7.55 25.6 7.55 25.75 7.55 25.9 7.65 26 7.8 26.1 8 26.1 8.2 26.1 8.3 26
M 7.85 27.5
Q 7.75 27.4 7.6 27.4 7.45 27.4 7.3 27.5 7.2 27.6 7.2 27.75 7.2 27.9 7.3 28 7.45 28.1 7.6 28.1 7.75 28.1 7.85 28 8 27.9 8 27.75 8 27.6 7.85 27.5
M 19.5 36.4
L 20.1 35.8
Q 20.3 36.2 20.6 36.5 20.6 36.45 20.7 36.35
L 21.5 36.45
Q 21.05 36.55 20.6 36.7 19.4 36.7 18.75 37.65 18.4 38.25 18.4 39.05 18.4 39.4 18.55 39.75
L 16.9 39.95
Q 17.65 40.2 18.4 40.45 18.5 40.4 18.65 40.4 18.7 39.85 19.2 40.35 19.95 40.95 21.15 40.85 22.1 40.6 22.6 39.6 22.8 38.25 21.8 37.3
L 24.9 37.4
Q 24.75 36.65 24 36.6 23.1 36.45 22.2 36.3
L 23.1 36 22.6 34.5 22.5 35.5 22.2 33.9
Q 22.1 33.8 22 33.75 21.6 33.55 21.5 34.2
L 20.9 34.15 20.35 34.45 19.5 36.4
M 19.3 39.5
L 19.1 38.9
Q 19.75 39.05 19.5 39.5 19.5 39.55 19.3 39.5
M 20.5 35.35
L 21.3 35.55 21.3 35.55
Q 21.1365234375 35.7033203125 20.95 35.75
L 20.5 35.35
M 21.8 39.25
Q 21.9 39.15 22.1 39.15 22.2 38.95 22.4 38.95
L 22.45 39.05
Q 21.25 39.75 21.8 39.25
M 20.7 38.2
L 20.7 38.15
Q 21.2 37.6 20.7 38.2
M 17.1 34.7
Q 17.25 34.6 17.25 34.4 17.25 34.2 17.1 34.05 17 33.95 16.85 33.95 16.7 33.95 16.55 34.05 16.45 34.2 16.45 34.4 16.45 34.6 16.55 34.7 16.7 34.85 16.85 34.85 17 34.85 17.1 34.7
M 10.3 35.35
Q 10.25 35.2 10.2 35.1 10.1 34.95 9.95 34.9 9.75 34.9 9.55 34.95 9.4 34.9 9.4 34.85
L 9.6 34.85 8.5 34.6 9.1 36 9.55 36.05
Q 9.9 35.8 10.2 35.55 10.25 35.45 10.3 35.35
M 10.55 33
Q 11.6 32.8 10.6 32.45 10.15 32.25 9.75 32.05 9.8 32.35 9.9 32.65
L 10.55 33
M 15.75 37.75
L 17.4 37.95
Q 16.45 36.7 14.65 36.45
L 14.8 37.55 15.5 37.25 15.75 37.75
M 14.65 36.45
Q 14.7 35.95 14.4 35.55 14.15 35.2 13.75 35.2 13.75 35.75 14 36.1 14.3 36.5 14.65 36.45
M 14.2 33.4
Q 13.55 33.7 13.15 33.75 12.8 33.65 12.6 33.8 12.5 33.8 12.5 34
L 11.1 33.7 9.9 34.45
Q 9.95 34.55 10.05 34.7 10.3 35.1 10.65 35.45 10.8 35.6 11.05 35.7 11.1 35.65 11.15 35.6 11.3 35.35 11.35 35.1 11.45 34.7 11.5 34.25
L 12.7 35.1
Q 12.85 35.9 12.6 36.4 12.45 36.85 11.9 37.15
L 12.8 37.45
Q 13 36.35 13.45 35.45 13.55 35.3 13.75 35.2
L 14.2 33.4
M 10.7 30.6
L 10.7 30
Q 10.15 30.1 9.9 29.65 9.8 29.45 9.7 29.3 9.6 29.85 9.55 30.7 9.55 30.85 9.45 31 8.8 31 8.9 30.15 8.95 29.85 9 29.6
L 8.2 30.3
Q 8 31.25 8.95 31.6 9.6 32 10.25 31.15 10.45 30.85 10.7 30.6
M 18.25 30.25
Q 18.35 30.15 18.4 29.95 17.9 30.2 17.9 30.55
L 18 30.55
Q 18.15 30.45 18.25 30.25
M 17.25 25.65
Q 17.35 25.55 17.35 25.45 17.35 25.35 17.25 25.25 17.15 25.15 17 25.15 16.85 25.15 16.75 25.25 16.65 25.35 16.65 25.45 16.65 25.55 16.75 25.65 16.85 25.75 17 25.75 17.15 25.75 17.25 25.65
M 19.9 26.6
Q 19.7 26.4 19.5 26.35 20 27.05 20.5 27.75 20.65 26.95 19.9 26.6
M 18.2 27.05
Q 18.2 26.45 18.1 26.9 18 27.35 18.2 27.05
M 19.3 25.8
Q 19.5 25.95 19.75 25.95 20 25.95 20.15 25.8 20.35 25.65 20.35 25.4 20.35 25.15 20.15 25 20 24.85 19.75 24.85 19.5 24.85 19.3 25 19.15 25.15 19.15 25.4 19.15 25.65 19.3 25.8
M 17.4 23.85
Q 17.55 23.7 17.55 23.5 17.55 23.3 17.4 23.15 17.3 23 17.15 23 17 23 16.85 23.15 16.75 23.3 16.75 23.5 16.75 23.7 16.85 23.85 17 24 17.15 24 17.3 24 17.4 23.85
M 16 20.35
L 15.45 20.3 16 21 16 20.35
M 16.35 18.7
Q 16.6 18.95 16.9 19.15 16.95 19 17 18.85
L 16.35 18.5
Q 16.3 18.6 16.35 18.7
M 14.95 21.6
L 14 21.6 14 22 14.95 21.6
M 14.9 18.4
Q 15.05 18.4 15.15 18.25 15.3 18.15 15.3 18 15.3 17.85 15.15 17.7 15.05 17.6 14.9 17.6 14.75 17.6 14.6 17.7 14.5 17.85 14.5 18 14.5 18.15 14.6 18.25 14.75 18.4 14.9 18.4
M 12.6 16.85
Q 12.5 16.95 12.55 17.15
L 13.5 17.25
Q 13.45 16.9 13.3 16.65 13.25 16.45 13.1 16.35 12.8 16.55 12.6 16.85
M 16 17.75
Q 16.1 17.65 16.1 17.5 16.1 17.35 16 17.2 15.9 17.1 15.75 17.1 15.6 17.1 15.5 17.2 15.4 17.35 15.4 17.5 15.4 17.65 15.5 17.75 15.6 17.9 15.75 17.9 15.9 17.9 16 17.75
M 7.7 19.55
Q 7.85 19.45 7.85 19.25 7.85 19.05 7.7 18.9 7.6 18.8 7.4 18.8 7.2 18.8 7.05 18.9 6.95 19.05 6.95 19.25 6.95 19.45 7.05 19.55 7.2 19.7 7.4 19.7 7.6 19.7 7.7 19.55
M 8.8 15.7
Q 7.7 16.55 8 18.05 8.15 18.85 8.25 19.7 8.35 20.45 9.15 20.8 9.55 20.95 10 21.1 8.75 21.3 7.8 20.4
L 8.6 22.6
Q 7.45 22.55 6.95 23.45 6.9 23.6 6.95 23.85 7.5 24.15 8.35 24.1
L 9.05 25.6
Q 9.6 25.75 10.2 25.25 9.5 26.6 8.8 27.95
L 9.65 27.65 9.3 27.95
Q 10.55 29.2 12.1 29.95
L 14.2 28.65
Q 14.3 30.7 13.25 32.3 14.4 32.55 15.4 31.75 15.6 31.6 15.9 31.5 15.4 31.85 14.9 32.95 15.1 33.7 15.7 33.65
L 17.35 32.85 16.5 33.7 20.25 32.85 19.8 32.25 20.75 31.6
Q 19.7 31.55 19.3 30.65 18.45 32 16.9 32.2
L 17 31.2 16.55 31.15
Q 15.85 30.45 15.7 29.55 16.4 30 17.1 29.9 16.75 29.5 16.4 29.1
L 17.45 28.7 17.05 27.9 14.75 29.55
Q 16.2 27.8 15.85 25.55
L 14.3 26 14.85 24.6 11.85 24.75
Q 12.3 24.4 12.8 24.1
L 12.4 23.4
Q 13.65 23.25 13.35 23.6 13.25 23.7 13.25 23.85 13.55 24.4 13.9 24.15 14.25 23.85 14.1 23.65
L 14.5 23.8
Q 14.85 23.8 15.25 23.85 15.15 23.6 15.1 23.4
L 15.5 23.1 14.95 22.65
Q 14.4521484375 22.666015625 14 22.6 13.0466796875 22.4431640625 12.3 21.9
L 13.5 21.5 10.8 19.7 12.15 20.1
Q 12.75 20.15 12.7 19.4 12 18.35 10.7 18.4 10.15 18.3 10.05 18.6 9.35 18.25 8.7 17.9 9.95 17.45 11.1 17.45
L 12.1 16.3
Q 12.35 15.7 11.6 15 10.85 14.25 9.8 14.3
L 10.4 16.1
Q 9.3 15.9 8.8 15.7
M 9.95 23.9
L 9.3 23.35
Q 10.1 23.1 10 23.85
L 9.95 23.9
M 11.45 26.2
L 11.4 25.55 12.1 25.55
Q 12.25 25.5 12.35 25.4 12.4 25.3 12.4 25.15
L 13.3 25.55
Q 12.4 25.7 11.75 26.2 11.5 26.4 11.25 26.65 11.3 26.55 11.3 26.5 11.4 26.35 11.45 26.2
M 12.5 28.3
Q 12.45 28.4 12.3 28.45
L 11.4 28.55
Q 11.55 28.25 11.75 28 12 27.6 12.55 27.7 12.6 27.8 12.6 27.95 12.6 28.15 12.5 28.3
M 81.7 79.5
Q 81.8 80.2 82.4 79.9
L 81.7 79.5
M 89.4 78.4
L 89.6 78.85 89.85 78.4 89.4 78.4
M 88.2 78.7
Q 88.3 78.75 88.4 78.75 88.5 78.75 88.6 78.7 88.7 78.65 88.7 78.55 88.7 78.45 88.6 78.4 88.5 78.35 88.4 78.35 88.3 78.35 88.2 78.4 88.1 78.45 88.1 78.55 88.1 78.65 88.2 78.7
M 55.45 65.7
Q 55.2 65.4 54.7 65.65
L 55.55 65.8
Q 55.5 65.75 55.45 65.7
M 16.5 64.55
L 16.5 64.4
Q 16.3 64.4 16.1 64.6
L 16.5 64.55
M 32.2 46.5
L 31.7 46.8 32.5 47.6
Q 32.55 47.35 32.6 47.1 32.75 46.6 32.2 46.5
M 85.65 70.4
Q 85.05 70.65 84.55 71.1 84.4 71.25 84.3 71.4
L 85 69.6 84.9 69.15 77.25 69.5
Q 77.9 68.95 79 69 79.45 68.9 79.5 68.45 78.95 67.85 77.8 68.1 77.65 68.2 77.5 68.3
L 77.05 69.15
Q 77.3 70.3 78.65 70.6 80.25 70.75 81.6 69.8
L 81 71.2 81.9 71.4
Q 81.35 72.5 80.15 72.6
L 80.25 73.45 78.95 71.05 77.35 70.8 78.45 71.45 77.25 72.8
Q 77.1 72.5 77 72.2 76.5 72.8 75.7 72.45
L 75.65 72.4 75.45 72.9
Q 74.95 73.4 74.1 73.25
L 75.35 72.1
Q 74.9 71.85 74.5 71.65 73.85 71.25 73.3 70.6
L 72.5 71.8
Q 72.6 72.75 72.05 73.45
L 70.65 70.9 69.65 73 70.65 73.15 68.6 73
Q 69 72.45 68.95 71.8 68.95 71.65 68.9 71.5
L 68 71.1
Q 68.35 71.05 68.6 70.8 68.65 70.8 68.6 70.65 68 70.45 67.5 71.05 67.05 71.55 66.7 72.15
L 65.55 71.65 65.25 70.5
Q 64.85 71.35 64.45 72.25
L 63.15 71.75 61.75 72.15 61.75 71.05
Q 61.85 70.9 62 70.8 62.45 70.85 62.9 70.95 63.2 70.75 63.5 70.6 63.35 70.2 63.1 69.9 62.45 69.25 61.6 69.2 61.25 69.35 61.05 69.6 60.9 69.7 60.85 69.9
L 60.4 69.55 60.15 68.85 59.05 69.9 58.65 70.05 58.2 69.95
Q 57.55 68.85 57.15 67.8 56.95 67.15 56.55 66.7 56.05 66.25 55.55 65.8 55.65 66.4 54.95 66.6 54.7 66.6 54.5 66.6
L 54.7 65.65 53.8 66.15
Q 53.75 65.5 52.95 65.1 51.6 64.25 50.25 64.95 50.15 64.45 49.95 64.05 49.6 63.45 49.1 63.05 48.55 62.55 48.05 62.05 47.7 61.7 47.45 61.35
L 46.85 61.95
Q 46.25 61.85 46.4 60.9 46.5 60.35 46.2 59.9 45.95 59.4 45.45 59.1 44.75 58.65 44 58.3 43.1 57.85 42.45 56.95 42.35 57.6 42.3 58.25
L 40.85 57.75
Q 41.6 57.6 41.8 56.8 41.9 56.5 42 56.2 41.8 55.2 41.25 54.45 40.5 53.4 39.8 52.45 39.45 51.95 38.85 51.75 38.4 51.6 38 51.75 37.55 52 37.15 52.35 36.9 50.85 37.4 49.55 37.25 49.25 36.55 49.45 36.15 49.6 35.8 49.95
L 34.25 49.6
Q 33.85 49.9 33.5 50.25 33.35 50.4 33.25 50.65 32.25 49.8 31.3 48.95
L 32.2 48.65
Q 31.55 48.35 31.4 47.65 31.35 47.4 31.35 47.2
L 31.7 46.8
Q 31.85 46.65 32.05 46.55 32.1 46.5 32.2 46.5
L 32.5 45.55
Q 31.9 45.15 31.3 45.75 30.9 46.15 30.35 46.45
L 29.8 44.9 28.8 44.15 28.9 43.1
Q 29.2 43.15 29.5 43.25 29.55 43.1 29.65 43
L 29.55 42.6
Q 29.65 42.25 30 42
L 29 42 29.75 40.5
Q 29.05 41.35 28 41.55 27.25 42.3 27.6 43.35
L 26.35 43.05 26.25 44.05 25.4 43.15
Q 24.85 43.9 24.3 44.65 24.75 45.2 24.8 46 24.8 46.25 24.7 46.55
L 24 45.95
Q 23.75 44.5 24.3 43.15 24.7 42.1 24.3 41.15 23.95 41.1 23.6 41.05 22.85 42.55 22.65 44.3 22.55 44.9 22.05 45.3
L 21.2 45.45 22.2 44.85 20.7 44.15 22 42 20.6 42.35 21.9 41.35 20.65 41.85 20.35 42.75
Q 19.65 42.85 19.1 42.85
L 19.25 42.7
Q 19.15 41.9 18.2 41.45
L 18.8 43.75
Q 18 43.85 17.2 44 18.3 44.05 19.1 44.65 19.35 44.8 19.5 45.15 19.6 45.3 19.75 45.45 19.7 45.8 19.65 46.2
L 21.85 46.95 22.95 46.5 24.1 46.85
Q 23.05 47.2 22.75 48.2 23.35 47.65 23.8 47.35 24 47.2 24.35 47.2
L 24 47.8
Q 24.2 47.95 24.45 48.05 25.25 48.45 26.15 48.8 26.6 49 27.1 49.25 24.75 49.05 23.45 51.2
L 24 51.2
Q 25.3 50.1 27 49.55 27.65 49.4 28.2 48.95 28.4 50.65 26.8 51.6 25.95 52 25.1 52.25 24.85 52.2 24.7 52.45
L 25.2 52.7
Q 25.35 52.65 25.4 52.55 25.5 52.45 25.5 52.3
L 25.95 52.6 26.5 52.6
Q 25.5 52.9 25.1 53.95 25.9 53.25 26.75 53.7 26.45 54.55 26.55 55.55 27.15 53.9 28.95 53.95
L 27.9 52.75 29.15 52.85 29.1 52.3
Q 29.35 52.15 29.65 52.05
L 31.85 52.5 31.75 53.45
Q 31.15 54.05 30.45 54.25 30.45 54.1 30.5 54 30.2 53.8 29.9 53.65 29.1 54 29.65 54.6 28.45 55.1 28.15 56.05 28.3 56.25 28.55 56.35 28.7 56.45 28.9 56.5
L 30.5 56.6
Q 30.6 57.05 30.1 57.1 28.8 57.15 27.4 57.35 26.95 57.5 26.5 57.45 26.15 57.35 25.85 57.25 25.35 57.5 25.65 58.6 25.35 59.6 24.3 59.85
L 26 60.15 23.95 60.9
Q 23.45 60.65 23.45 60.2 23.45 59.7 23.35 59.25 23.3 59.1 23.2 59 22.35 58.85 22.1 59.5 22.25 58.6 21.75 57.6 21.55 57.15 21.6 56.6
L 22.35 56 20.3 56.15
Q 21.35 57.2 20.45 58.15
L 19.65 58.25 18.3 57.1 19.8 55.65
Q 19.4 55.1 18.75 55.05 18.65 55.15 18.55 55.3
L 19.05 55.85
Q 18.1 56.4 17.65 57.4
L 16.35 56.7 15.95 58.25
Q 15.4 58.8 14.45 58.65 15 59.45 15.95 59.1 16.45 58.85 17.1 58.9 17.65 59.1 18.35 59.3 18.6 60.05 18.85 60.85
L 20.7 59.15
Q 21 60.25 21.85 60.7 22.35 61 22.95 61.1 24.85 60.95 25.75 62.35 25.55 63 24.9 63.15 24.25 63.25 23.6 63.35 23.75 63.85 23.5 64.25 23.4 64.45 23.8 64.75
L 23.45 65.1
Q 23.35 64.8 23.4 64.55 23.4 64.5 23.5 64.45
L 23.25 63.5
Q 22.55 64.3 21.5 64.9 21.5 64.85 21.5 64.7
L 20.85 63.85
Q 21.5 63.5 22.25 63.25 22.5 63.1 22.7 62.9 22.4 62.9 22.1 62.9 21.2 63.1 20.05 63.3
L 20.2 62.2
Q 20.4 62.1 20.5 61.95 20.55 61.85 20.45 61.75 20.4 61.6 20.3 61.5 19.6 61.25 19.1 61.7 18.55 62.2 17.95 62.6 17.5 62.85 16.9 63
L 17.3 64.45 16.5 64.55
Q 16.65 65.2 16.9 64.7 17 64.55 17.25 64.55 17.35 64.6 17.5 64.7 17.75 65.25 17.25 65.45
L 16.5 65.6 16.1 64.6 14.6 64.45 14.05 63.5
Q 14.45 62.25 15.2 61.25 14.2 61.4 13.7 60.35 14.3 61.85 13.25 62.8 13.05 63 12.75 63.15 12.2 63.25 11.7 63.25
L 12.5 64.65 11.25 63.8 10.05 64.45
Q 10.75 65 11.5 65.55
L 10.1 67.05 15.7 66.85 15.85 67.5
Q 16.15 67.55 16.4 67.45 16.5 67.35 16.5 67.15
L 22.6 66.85
Q 22.25 68 20.75 68.1 22.2 69.55 24.55 69 26.6 69.95 29 69.9 31 70.25 32.85 70.75 35.35 71.1 37.95 71.15 39.85 71.55 41.8 71.85 41.9 71.8 42 71.8 42.05 71.75 42.05 71.7 42.05 71.6 42 71.55 43.3 71.9 44.65 72.3 45.15 72.4 45.55 72.4 46.6 72.15 47.7 72.65 48.1 72.85 48.6 72.9 49.05 72.7 49.5 72.5
L 50.15 73.65
Q 50.4 73.25 50.7 72.9
L 51.4 73.75
Q 55.7 74.3 58.95 77.2 59.5 77.7 60.25 77.8 60.95 77.4 61.4 76.65 61.6 76.25 62.05 75.95 62.4 75.8 62.75 75.65 62.55 75.5 62.4 75.35 62.15 75 61.95 74.7 62.2 74.35 62.65 74.7 63.1 74.95 63.45 75.4 63.7 75.65 63.9 75.95 62.7 76.6 62.25 77.75 62.1 78.1 62.05 78.45 62.05 78.5 62.25 78.6 62.9 78.5 63.4 78.25 64.4 77.85 65.4 78
L 63.8 78.75 63.5 79.5 62.7 80.15 65 79.3 64.85 80.7
Q 64.85 80.8 64.9 80.8 65.1 80.8 65.3 80.7
L 66.6 81.15 67.2 80.45 68 80.6 68.5 81.6 70.3 81.9 70.35 82.1
Q 70.7 81.85 71 81.35 69.65 80.85 68.5 80 67 78.9 67.95 77.4 68.2 77.55 68.3 77.8 68.5 78.3 68.5 78.95
L 69.4 78.55 70.05 79.15
Q 70.25 78.8 70.4 78.4 70.8 77.6 71.4 77.1 71.55 76.95 71.75 76.9 72.8 76.8 73.4 77.7 73.8 78.3 74.3 78.75 74.4 78.8 74.45 78.8 74.55 78.7 74.7 78.6 74.8 78.45 74.95 78.35
L 75.7 78.2 74.7 76.8
Q 76.35 76.9 77.9 77.1
L 77.75 77.25
Q 77.65 77.6 77.6 77.95 76.75 77.55 75.9 77.15
L 76.2 78.2 76.75 78.65
Q 79.2 77.7 80.15 80.35
L 78.65 80.75 79.75 81.7
Q 80.25 82.3 80.65 81.15 81.15 79.65 80.3 78.45 80.05 78.05 79.85 77.6 79.8 77.45 79.8 77.3 80 77.05 80.2 76.8 80.35 76.75 80.5 76.75
L 82.45 77.6
Q 83.5 77.35 83.9 76.7 83.95 76.55 84 76.45
L 83.85 76.2
Q 84.65 76 85.55 76 82.95 77.25 83.25 80.05 84.25 79.65 84.65 78.85
L 84.75 77.75 90.65 77.4 91.35 78.05 92.5 78.25 92.25 77.7
Q 92.35 77.45 92.3 77.25 92.2 76.65 91.95 76.15 93.2 75.9 93.6 75.05 93.95 74.4 93.35 73.6 93.15 73.4 92.95 73.25
L 93.95 72.85 92.15 72 93.05 72
Q 91.8 70.7 90.55 69.7 90 69.2 89.4 68.9 89.25 68.8 89.15 68.7
L 88.8 67.55 88.05 68.2 88.5 68.3
Q 87.4 69.65 85.65 70.4
M 85.8 70.6
Q 85.85 70.55 86 70.55 86.1 70.55 86.25 70.55 86.7 70.8 86.55 71.2
L 85.5 71.6
Q 85.6 71.1 85.8 70.6
M 82.2 70.65
L 82.1 70.65
Q 82.2 70 82.2 70.65
M 84.2 72.85
Q 84.3 72.95 84.3 73.05 84.3 73.15 84.2 73.25 84.1 73.35 83.95 73.35 83.8 73.35 83.7 73.25 83.6 73.15 83.6 73.05 83.6 72.95 83.7 72.85 83.8 72.75 83.95 72.75 84.1 72.75 84.2 72.85
M 90.45 70.4
Q 90.35 70.2 90.3 70.05
L 91.2 70.75
Q 90.65 71 90.45 70.4
M 86.8 71.4
Q 86.65 71.6 86.55 71.6
L 86.65 71.35 87.1 71.05 86.8 71.4
M 89 74.65
Q 88.9 74.6 88.8 74.55 88 74 88.05 72.95 88.4 73.55 88.8 74.25 88.95 74.4 89 74.65
L 90.95 74.6
Q 91.15 75 90.7 75.15 89.6 75.4 89 74.65
M 86.9 75.25
Q 87.35 75.8 86.4 76.1 86.2 76 86.05 75.95 85.85 75.35 86.6 75.25 86.75 75.25 86.9 75.25
M 82.7 75.05
Q 82.6 75.2 82.45 75.2 82.3 75.2 82.15 75.05 82.05 74.9 82.05 74.65 82.05 74.4 82.15 74.25 82.3 74.1 82.45 74.1 82.6 74.1 82.7 74.25 82.85 74.4 82.85 74.65 82.85 74.9 82.7 75.05
M 81.3 74.7
Q 81.35 74.7 81.4 74.75 81.5 75.25 80.95 74.7
L 81.3 74.7
M 81.9 75.65
L 82.8 76.35
Q 82.25 76.6 82.05 76 81.95 75.8 81.9 75.65
M 29 46.15
Q 29 46.1 29.2 46.15 28.75 46.6 29 46.15
M 28.5 45.9
Q 28.55 46 28.55 46.2
L 27.5 46.6 27.8 45.6 24.9 44.65 26.8 44.25 26.3 43.65 27 43.45
Q 27.7 43.85 27.95 44.65 28.1 45.1 28.3 45.55 28.4 45.7 28.5 45.9
M 25.65 46.3
Q 25.8 46.15 26 46.1
L 25.5 46.6
Q 25.55 46.4 25.65 46.3
M 30.15 48.25
Q 30.3 48.45 30.3 48.75 30.3 49.05 30.15 49.25 30 49.45 29.8 49.45 29.6 49.45 29.45 49.25 29.3 49.05 29.3 48.75 29.3 48.45 29.45 48.25 29.6 48.05 29.8 48.05 30 48.05 30.15 48.25
M 36.7 55.05
L 36.2 55.25
Q 36.75 56.1 36.4 56.95 36.35 57.1 36.3 57.2 35.25 57.2 34.5 56.3 34.25 55.95 34 55.65 33.85 55.55 33.75 55.4 34.15 54.7 35.05 55 35.15 54.95 35.25 54.95
L 36.1 54.05
Q 36.55 54.4 36.75 54.85 36.75 54.9 36.7 55.05
M 39 54.15
Q 38.85 53.85 38.7 53.65 39.45 53.45 39.55 54.3 39.55 54.35 39.55 54.45 39.2 54.5 39 54.15
M 38 52.6
L 38.9 52.6
Q 37.75 54.05 35.9 53.75 35.65 53.65 35.4 53.6
L 37.2 53.5 38 52.6
M 34.75 49.95
Q 34.9 50.1 34.9 50.25 34.9 50.4 34.75 50.5 34.65 50.65 34.45 50.65 34.25 50.65 34.1 50.5 34 50.4 34 50.25 34 50.1 34.1 49.95 34.25 49.85 34.45 49.85 34.65 49.85 34.75 49.95
M 33.5 51.35
Q 33.55 51.4 33.6 51.5 33.25 51.75 32.85 51.45 32.75 51.3 32.7 51.15 33.25 51.05 33.5 51.35
M 32.2 51.35
L 32.05 51.55 31.9 51.35 32.2 51.35
M 31.5 50.45
Q 31.5 50.5 31.5 50.6 30.65 49.85 31.5 50.45
M 34.65 52.7
Q 34.7 52.7 34.7 52.8 34.6 52.9 34.5 53.05 34.3 52.95 34.15 52.9
L 33.7 52.3
Q 34.15 52.4 34.65 52.7
M 33.65 54.9
L 33.4 54.6 33.9 54.6 33.65 54.9
M 34.2 56.75
L 34.7 57.35 35.5 57.85 34.05 57.8
Q 33.6 58.7 33.2 59.65 33.2 57.95 31.8 56.95
L 32.5 55.65
Q 32.95 56.8 34.2 56.75
M 31.55 55.8
L 31.5 55.75
Q 31.55 54.7 31.55 55.8
M 32.3 59.05
L 32.2 59.1 31.85 59.1
Q 31.95 59.05 32.3 59.05
M 32.3 61.1
Q 32.05 61.3 31.8 61.5 31.65 61.6 31.45 61.7 31.35 61.75 31.25 61.8
L 30.8 62.85
Q 30.65 62.4 30.65 62 30.6 61.3 30.7 60.6 29.85 60.7 29.15 60.2 28.95 60.05 28.8 59.9 28.85 58.9 27.95 58.5 27.75 58.4 27.6 58.35 28.05 57.6 29.55 57.3 30.529296875 57.43359375 31.55 57.55 30.7427734375 57.48359375 30.05 57.7 29.75 57.8 29.5 57.9 30.6 58.05 31.15 58.85 31.7 59.8 32.8 59.8 33.05 59.8 33.3 59.95 33.45 60 33.6 60.1 33.7 60.05 33.7 60 33.8 60.3 33.8 60.6 35.45 60.8 35.25 62.65 35.15 63.3 34.7 63.9 34.3 64.5 33.55 64.8 33.15 65 32.75 65.25 32.65 65.3 32.55 65.35
L 32.1 64.95 32.2 64.35
Q 32.8 63.4 34 63.4
L 32.55 63.15
Q 32.45 62.95 32.5 62.9 33.05 62.2 33.8 61.6
L 32.3 61.1
M 37.7 56.95
Q 37.8 56.95 37.9 57 38.4 57.7 37.95 58.7 37.95 58.75 37.9 58.75 37.75 58.65 37.6 58.55
L 37.05 58.2
Q 36.6 57.7 37.1 57.2 37.4 57.05 37.7 56.95
M 37.95 56.05
Q 37.55 56.1 37.2 56.15
L 39.1 55.25
Q 38.75 55.95 37.95 56.05
M 36.75 61.6
Q 36.9 61.6 37 61.7 37.15 61.85 37.15 62.05 37.15 62.25 37 62.35 36.9 62.5 36.75 62.5 36.6 62.5 36.45 62.35 36.35 62.25 36.35 62.05 36.35 61.85 36.45 61.7 36.6 61.6 36.75 61.6
M 37.1 60.45
Q 37.15 60.35 37.2 60.25
L 37.4 60.65 36.5 61.1
Q 36.4 60.5 37.1 60.45
M 36.35 60.2
L 35.5 60.55 34.7 59.75 35.7 60.15 35.3 58.75 36.45 59.35 36.35 60.2
M 40.2 59.95
L 39.5 59.65 41.1 59.35 40.2 59.95
M 27.1 58.65
Q 27.25 58.65 27.45 58.7 27.55 58.8 27.7 58.9
L 27.9 59.45
Q 27.6 60.35 26.5 60.6 26.15 59.65 26.55 58.9 26.65 58.8 26.8 58.7 26.95 58.65 27.1 58.65
M 28.7 62.75
L 30.2 63.35 31.1 64.7 31 65.1
Q 30.35 64.05 29.2 63.8 29.05 63.85 28.95 63.95 28.8 64.2 28.8 64.45 28.75 65 28.8 65.6
L 28.45 65.2 27.1 65
Q 27.35 64.05 27.75 63.25 27.8 63.25 28.05 63.4 28.15 63.35 28.25 63.3 28.3 63.2 28.3 63.1 28.25 62.9 28.2 62.75
L 27.6 62.35 28.9 61.5
Q 28.8 62.1 28.7 62.75
M 29 66
L 30.3 65.15
Q 31.05 65.85 31.35 66.8 31.35 66.9 31.35 67.05 31 67.45 30.6 67 30.15 66.5 29.8 65.95
L 29.2 66.55 29 66
M 24.5 66.6
L 23.5 66.6 24 65.7
Q 24.55 65.8 24.5 66.25 24.5 66.4 24.5 66.6
M 38.3 63.15
Q 39.15 62.9 39.3 63.85 39.3 63.95 39.25 64.05 38.5 64.45 38.25 63.75
L 38.3 63.15
M 36.5 64.45
Q 36.6 64.55 36.6 64.7 36.6 64.85 36.5 64.95 36.4 65.05 36.25 65.05 36.1 65.05 36 64.95 35.9 64.85 35.9 64.7 35.9 64.55 36 64.45 36.1 64.35 36.25 64.35 36.4 64.35 36.5 64.45
M 37.55 65.25
Q 37.65 65.4 37.65 65.55 37.65 65.7 37.55 65.8 37.45 65.95 37.35 65.95 37.25 65.95 37.15 65.8 37.05 65.7 37.05 65.55 37.05 65.4 37.15 65.25 37.25 65.15 37.35 65.15 37.45 65.15 37.55 65.25
M 39 66.95
L 40.2 67.35
Q 39.8 67.55 39.45 67.3 39.2 67.1 39 66.95
M 30.55 68
L 31.5 67.6 31.3 68.55
Q 30.75 68.85 30.55 68.3 30.5 68.15 30.55 68
M 34.8 67.55
L 35.2 67.55 35 68.1 34.8 67.55
M 36.1 69.2
L 36.1 68.85 36.55 68.85 36.55 69.2 36.1 69.2
M 30.3 50.9
Q 30.35 50.8 30.5 50.75 30.1 51.5 30.3 50.9
M 19.6 66.5
L 19 65.65
Q 19.15 64.7 19.4 65.85 19.45 66.2 19.6 66.5
M 14.05 64.5
Q 14.2 64.65 14.2 64.85 14.2 65.05 14.05 65.15 13.95 65.3 13.75 65.3 13.55 65.3 13.4 65.15 13.3 65.05 13.3 64.85 13.3 64.65 13.4 64.5 13.55 64.4 13.75 64.4 13.95 64.4 14.05 64.5
M 62.3 73.15
Q 62.25 73.8 62.1 73.05 62.4 72.4 62.3 73.15
M 73.2 71.55
Q 73.2 71.4 73.3 71.25 73.4 71.15 73.55 71.15 73.7 71.15 73.8 71.25 73.9 71.4 73.9 71.55 73.9 71.7 73.8 71.8 73.7 71.95 73.55 71.95 73.4 71.95 73.3 71.8 73.2 71.7 73.2 71.55
M 78.1 73.05
Q 77.9 73.25 77.7 73.45 78.1 72.85 78.5 72.25 78.65 72.4 78.1 73.05
M 79.1 74
L 80.3 74 79.7 75.3 79.1 74
M 44.9 59.5
L 44.55 59.5 44.55 58.95 44.9 58.95 44.9 59.5
M 43.7 59
Q 44.05 59.2 43.65 59.3 43.35 59.45 43.05 59.55 42.4 59.35 41.7 59
L 43.7 59
M 43.6 61
Q 43.75 61.15 43.75 61.35 43.75 61.55 43.6 61.65 43.5 61.8 43.35 61.8 43.2 61.8 43.05 61.65 42.95 61.55 42.95 61.35 42.95 61.15 43.05 61 43.2 60.9 43.35 60.9 43.5 60.9 43.6 61
M 49.2 63.95
Q 48.9 63.85 49.1 63.75 49.5 63.65 49.2 63.95
M 47.85 64.4
Q 46.7 64.2 47.8 64.1 48 64.3 48 64.45
L 47.85 64.4
M 47.9 67.4
Q 47.75 67.3 47.6 67.25
L 48.7 66.95
Q 48.5 67.4 47.9 67.4
M 47.95 65.7
Q 47.75 65.75 47.6 65.85 48.05 65.3 48.5 64.75 48.7 65.5 47.95 65.7
M 49.9 67
L 49.7 67.55 49.5 67 49.9 67
M 43.5 63.25
Q 43.5 63.4 43.5 63.6
L 42.5 63.6
Q 42.55 63.15 42.85 62.85 42.9 62.75 43 62.7 43.45 62.75 43.5 63.25
M 43.2 64.65
Q 43.4 64.7 43.5 64.9 43.55 65 43.55 65.2
L 42.5 65.6
Q 42.6 65.1 42.8 64.6 42.85 64.55 43 64.55 43.1 64.55 43.2 64.65
M 41.65 63.65
L 42.5 63.95
Q 41.05 64.65 40.5 66.35 40.15 65.7 40.45 64.85 40.8 64 41.65 63.65
M 42.55 64
L 43 64 42.5 65 42.55 64
M 41.7 66.75
Q 41.9 66.9 41.9 67.1 41.9 67.3 41.7 67.4 41.55 67.55 41.3 67.55 41.05 67.55 40.85 67.4 40.7 67.3 40.7 67.1 40.7 66.9 40.85 66.75 41.05 66.65 41.3 66.65 41.55 66.65 41.7 66.75
M 45.05 70.8
Q 45.15 70.8 45.25 70.9 45.35 71.05 45.35 71.25 45.35 71.45 45.25 71.55 45.15 71.7 45.05 71.7 44.95 71.7 44.85 71.55 44.75 71.45 44.75 71.25 44.75 71.05 44.85 70.9 44.95 70.8 45.05 70.8
M 44.3 69.05
Q 44.4 68.3 44.4 69.1
L 44.3 69.05
M 42.7 68.55
L 42.9 68.5
Q 43.3 68.35 43 68.5 42.75 68.6 42.7 68.55
M 48.35 68.35
Q 48.5 68.5 48.5 68.65 48.5 68.8 48.35 68.9 48.25 69.05 48.05 69.05 47.85 69.05 47.7 68.9 47.6 68.8 47.6 68.65 47.6 68.5 47.7 68.35 47.85 68.25 48.05 68.25 48.25 68.25 48.35 68.35
M 50.05 68.65
Q 50.1 68.8 50.15 69 50.05 69.2 49.9 69.35 49.7 69.4 49.5 69.4
L 49.2 67.85
Q 49.85 68.25 50.05 68.65
M 45.9 68.3
L 46.7 69.4
Q 46.55 69.65 46.25 69.1 46.05 68.7 45.9 68.3
M 48 71.3
Q 47.95 70.85 48.2 71.25 48 71.8 48 71.3
M 51.25 67.45
L 51.9 67.35
Q 52.15 67.8 52.45 68.2
L 52.15 68.05
Q 51.75 67.9 51.45 67.75 51.3 67.6 51.25 67.45
M 52.95 66.65
Q 52.7 66.65 52.55 66.5 52.4 66.4 52.4 66.25 52.4 66.1 52.55 65.95 52.7 65.85 52.95 65.85 53.2 65.85 53.35 65.95 53.5 66.1 53.5 66.25 53.5 66.4 53.35 66.5 53.2 66.65 52.95 66.65
M 53.45 68.2
L 53.4 68.1 54 67.15
Q 53.75 67.75 53.45 68.2
M 54.7 69.05
Q 54.6 69.9 54.6 69.35 54.6 69.2 54.7 69.05
M 52.65 72.5
Q 52.45 72.55 52.25 72.45
L 53 71.75
Q 53.55 72.25 52.65 72.5
M 54.75 71.6
L 54.5 71.25
Q 54.75 71.35 55.05 71.5 55.75 71.7 55.45 72.15 55.4 72.3 55.25 72.45
L 54.5 72.6 54.75 71.6
M 56.25 72.15
Q 56.5 72.6 56.2 72.35 55.95 71.65 56.25 72.15
M 57.5 73.35
Q 57.3 73.2 57.25 73.05 57.1 72.85 57.05 72.6
L 57.9 71.85
Q 57.75 72.7 57.5 73.45
L 57.5 73.35
M 59.7 72.45
L 59.4 71.35
Q 59.3 70.75 59.55 71.25 59.75 71.6 59.75 72 59.75 72.2 59.7 72.45
M 58.05 75.2
Q 57.85 75.35 57.6 75.35 57.35 75.35 57.15 75.2 56.95 75.05 56.95 74.85 56.95 74.65 57.15 74.5 57.35 74.35 57.6 74.35 57.85 74.35 58.05 74.5 58.25 74.65 58.25 74.85 58.25 75.05 58.05 75.2
M 74.25 75
L 73.9 75.75 73.55 75 74.25 75
M 68.9 74.25
Q 69.2 74.85 68.7 74.4 68.5 74.35 68.9 74.25
M 67 75.35
L 67.7 75.75 65.8 75.55
Q 66.35 76.05 67.25 76.3 67.35 76.25 67.5 76.25 67.6 76.2 67.7 76.15 67.9 76.25 68.15 76.35
L 67.7 77.25
Q 66 77.2 65.55 75.55 66 75.5 66.45 75.5 66.95 75.7 67 75.35
M 64.45 76.4
Q 64.4798828125 76.38671875 64.5 76.35
L 64.5 76.4 64.45 76.4
M 61.8 74
L 61.5 74.4 60.5 74 61.8 74
M 54.75 71.6
Q 54.85 71.65 55 71.7 55 71.6 55.05 71.5
L 54.75 71.6
M 37.85 57.5
Q 37.75 57.4 37.6 57.4 37.45 57.4 37.3 57.5 37.2 57.65 37.2 57.8 37.2 57.95 37.3 58.05 37.45 58.2 37.6 58.2 37.75 58.2 37.85 58.05 38 57.95 38 57.8 38 57.65 37.85 57.5
M 29.8 59.2
Q 30.1 59 29.7 58.95 29.2 59.35 29.8 59.2 Z"/>
</g>
</defs>

<g transform="matrix( 1, 0, 0, 1, 2.75,1.5) ">
<use xlink:href="#Layer1_0_FILL"/>
</g>
</svg>
