
<svg xmlns="http://www.w3.org/2000/svg" version="1.1" xmlns:xlink="http://www.w3.org/1999/xlink" preserveAspectRatio="none" x="0px" y="0px" width="100px" height="100px" viewBox="0 0 100 100">
<defs>
<g id="Layer1_0_FILL">
<path fill="#000000" stroke="none" d="
M 17.1 45.85
Q 17.2 45.95 17.3 45.95 17.2 45.95 17.1 45.85
M 68.15 49.25
Q 67.9 49.45 68.2 49.5 68.75 48.95 68.15 49.25
M 64.35 49.05
Q 64.45 49.95 65.4 49.9
L 64.35 49.05
M 53.55 71.4
L 54.4 72
Q 54.75 71.3 53.75 71.15 53.65 71.25 53.55 71.4
M 52.15 64.35
L 51.8 64.85 52.6 65.5 52.8 65.1 52.15 64.35
M 57.4 65.25
L 58 64.4
Q 57.65 64.5 57.3 64.5 57.25 64.5 57.25 64.4 56.4 63.55 54.95 63.5 56.1 64.55 57.4 65.25
M 60.25 62.3
Q 60.25 62.15 60.25 62 59.05 62.25 60.25 62.3
M 45.4 70.55
Q 45.4 70.7 45.5 70.8 45.65 70.9 45.8 70.9 45.95 70.9 46.05 70.8 46.2 70.7 46.2 70.55 46.2 70.4 46.05 70.3 45.95 70.2 45.8 70.2 45.65 70.2 45.5 70.3 45.4 70.4 45.4 70.55
M 43.75 62.4
L 43.8 62.3
Q 43.35 62.05 43.75 62.4
M 48.3 66.4
Q 48.75 67.1 49.6 67.25 49.95 67.3 50.3 67.4
L 49.9 66.3 49.55 66.55 48.3 66.4
M 47.9 65.8
Q 48.35 65.75 47.85 65.55 47.85 65.6 47.9 65.8
M 43.2 60.2
L 42.6 61.1 44.5 61.9 45.1 62.3 46.5 60.1 43.2 60.2
M 43.8 60.1
Q 43.827734375 60.1 43.9 60.1 44.097265625 59.261328125 43.8 60.1
M 44.55 59.45
L 45.1 59.3
Q 45.35 59.25 45.15 58.95 44.95 58.65 44.65 58.4 43.7 58.55 44.55 59.45
M 41.55 58.35
Q 41.45 58.35 41.4 58.4 41.15 58.9 41.6 59.1 41.85 59.05 42.1 59.2 42.4 58.5 41.55 58.35
M 44.1 57.55
Q 44.2 57.45 44.2 57.3 44.2 57.15 44.1 57 44 56.9 43.85 56.9 43.7 56.9 43.6 57 43.5 57.15 43.5 57.3 43.5 57.45 43.6 57.55 43.7 57.7 43.85 57.7 44 57.7 44.1 57.55
M 60.15 60.3
Q 60.15 60.2 60.1 60.1 59.567578125 60.777734375 59.05 61.5
L 59.1 61.5
Q 59.3 61.35 59.5 61.2 60.05 60.95 60.15 60.3
M 57.55 61.1
L 57.15 61.6 58.1 62.4
Q 58.35 62 57.85 61.4 57.7 61.2 57.55 61.1
M 56.9 55.8
L 56.2 55.8 56.2 56.35 56.9 56.35 56.9 55.8
M 60.2 58.4
L 59.6 57 58.55 57.6 57.95 54.3
Q 57.85 55.35 57.8 56.45 57.8 56.55 57.85 56.7 58.1 57.15 58.4 57.65
L 57.8 57.8 58.6 58.4
Q 58.1 58.65 57.7 59 57.5 59.2 57.45 59.45 57.4 59.65 57.4 59.9
L 58.6 59.35 59.15 58.5 60.2 58.4
M 53.9 59.7
Q 53.75 60 53.75 60.4 53.4 60.95 52.95 61.55 52.9 61.65 52.9 61.8
L 51.9 62.3 51.75 62.75 53.75 62.55 52.85 63.9 54.05 63.8
Q 54.2 63.05 53.75 62.35 53.6 62.1 53.45 61.95
L 54.65 59.15 55.1 59.15 55.85 60.9 56.3 58.6 56.75 58.15
Q 56.7 57.65 56 57.95 54.55 58.35 53.9 59.7
M 51.05 60.65
Q 51.25 60.95 51.35 60.7 50.65 60.05 51.05 60.65
M 51 58.6
L 51.8 57.4
Q 51.05 57.45 50.2 57.3 49.65 57.3 49.55 57.95 49.6 58.05 49.65 58.15 50 58.8 51 58.6
M 55.9 52.15
Q 56.7 51.75 56.3 51.2
L 55.55 51.3 55.35 51.7 55.9 52.15
M 80.4 62.75
Q 80.6 62.6 80.6 62.35 80.6 62.1 80.4 61.95 80.25 61.8 80 61.8 79.75 61.8 79.55 61.95 79.4 62.1 79.4 62.35 79.4 62.6 79.55 62.75 79.75 62.9 80 62.9 80.25 62.9 80.4 62.75
M 70.25 61.35
Q 70.35 61.2 70.45 61.1 69.6 61.5 68.8 61.9 69.45 62.3 70.25 61.35
M 67.25 59.6
Q 67.2 59 67.2 58.4 67.1 58.75 67.1 59.15 67.1 59.35 67.25 59.6
M 68.8 56.7
Q 68.6 57.05 69.15 57 69.1 56.15 68.8 56.7
M 65.45 61.35
Q 65.65 61.35 65.75 61.2 65.9 61.05 65.9 60.8 65.9 60.55 65.75 60.4 65.65 60.25 65.45 60.25 65.25 60.25 65.1 60.4 65 60.55 65 60.8 65 61.05 65.1 61.2 65.25 61.35 65.45 61.35
M 64.5 58.9
L 65.4 59.4
Q 65.8 58.55 64.7 58.6 64.6 58.75 64.5 58.9
M 61.25 58.9
L 62.75 59.6
Q 62.75 59.35 62.7 59.2 62.65 58.95 62.55 58.85 62.3 58.65 62.05 58.5
L 61.25 58.9
M 64.1 56.5
Q 64.35 56.95 64.45 57.45 64.5 57.9 64.4 58.4 64.6 58.4 64.8 58.45 65.1 58.5 65.4 58.55 65.7 58.65 66.05 58.4 66.05 58.25 66.05 58.15 66.05 58.05 66 58 65.8 57.7 65.6 57.45 65.5 57.35 65.45 57.3
L 65.8 55.6 64.1 56.5
M 64.3 51.35
Q 64.7 51.55 65.1 51.8 65.55 51.1 64.65 50.75 64.4 50.7 64.2 50.65
L 63.35 51.15 62.15 51.05
Q 61.85 51.05 62.6 52.15
L 62.3 52.8
Q 61.05 53.25 59.9 54 59.1 54.55 59.25 55.45 60.2 56.85 61.8 56.2 61.85 55.8 61.4 55.35 60.45 55.2 59.85 54.55 59.8 54.25 60.85 54.5 61.55 54.7 62.35 54.5
L 62.3 57.15
Q 63 56.2 63.7 55.5 64.25 55 64.2 54.4 63.5 53.5 62.35 53.15
L 63.8 53
Q 64.65 52.3 64.3 51.35
M 66 54.9
L 66 52.1 65.2 53.3 66 54.9
M 68.1 54.8
L 68.3 53.1 67.6 52.2 67.15 52.8 67.65 53.7
Q 67.85 54.85 67.2 56
L 68.1 54.8
M 68.15 51.05
Q 68.3 50.95 68.3 50.75 68.3 50.55 68.15 50.4 68.05 50.3 67.85 50.3 67.65 50.3 67.5 50.4 67.4 50.55 67.4 50.75 67.4 50.95 67.5 51.05 67.65 51.2 67.85 51.2 68.05 51.2 68.15 51.05
M 70.35 51.85
Q 70.25 51.85 70.15 52
L 71 52.6
Q 71.35 51.85 70.35 51.85
M 69.35 52.2
Q 69.15 52.2 69 52.3 68.9 52.45 68.9 52.65 68.9 52.85 69 52.95 69.15 53.1 69.35 53.1 69.55 53.1 69.65 52.95 69.8 52.85 69.8 52.65 69.8 52.45 69.65 52.3 69.55 52.2 69.35 52.2
M 73 55.3
Q 73.05 55.95 73.7 55.7
L 73 55.3
M 80.3 59.45
Q 80.45 59.35 80.45 59.15 80.45 58.95 80.3 58.8 80.15 58.7 79.95 58.7 79.75 58.7 79.6 58.8 79.45 58.95 79.45 59.15 79.45 59.35 79.6 59.45 79.75 59.6 79.95 59.6 80.15 59.6 80.3 59.45
M 77.55 56.05
Q 77.55 55.9 77.4 55.8 77.3 55.7 77.15 55.7 77 55.7 76.85 55.8 76.75 55.9 76.75 56.05 76.75 56.2 76.85 56.3 77 56.4 77.15 56.4 77.3 56.4 77.4 56.3 77.55 56.2 77.55 56.05
M 74.85 58.9
Q 75 58.95 75.2 59.05 75.65 59 75.4 58.6
L 74.85 58.9
M 72.75 61.35
Q 72.75 61.8 73.25 61.55 73.6 61.45 73.9 61.3
L 72.75 61.35
M 73.05 57.9
Q 73.15 57.8 73.3 57.7
L 73.45 57.1 72.85 56.55 72.45 56.75
Q 72.3 57.65 73.05 57.9
M 73.7 56.4
Q 74.5 56.8 75.25 56.85 75.3 56.75 75.35 56.7 75.35 56.2 74.9 56.15 74.15 55.95 73.7 56.4
M 71.3 55.25
Q 71.2 55.15 71.05 55.15 70.9 55.15 70.75 55.25 70.65 55.4 70.65 55.6 70.65 55.8 70.75 55.9 70.9 56.05 71.05 56.05 71.2 56.05 71.3 55.9 71.45 55.8 71.45 55.6 71.45 55.4 71.3 55.25
M 72.4 54.6
Q 72.45 54.7 72.6 54.8 73.7 54.7 74 53.7 74 53.6 73.95 53.5 73.2 53.35 72.7 53.8 71.95 54.05 72.4 54.6
M 72.8 50.65
Q 72.95 50.55 72.95 50.35 72.95 50.15 72.8 50 72.7 49.9 72.55 49.9 72.4 49.9 72.25 50 72.15 50.15 72.15 50.35 72.15 50.55 72.25 50.65 72.4 50.8 72.55 50.8 72.7 50.8 72.8 50.65
M 80.4 55.4
Q 80.5 55.3 80.5 55.15 80.5 55 80.4 54.9 80.3 54.8 80.15 54.8 80 54.8 79.9 54.9 79.8 55 79.8 55.15 79.8 55.3 79.9 55.4 80 55.5 80.15 55.5 80.3 55.5 80.4 55.4
M 76.2 55.3
Q 76.3 55.2 76.3 55.05 76.3 54.9 76.2 54.8 76.1 54.7 75.95 54.7 75.8 54.7 75.7 54.8 75.6 54.9 75.6 55.05 75.6 55.2 75.7 55.3 75.8 55.4 75.95 55.4 76.1 55.4 76.2 55.3
M 77 54.6
Q 76.85 54.5 76.9 55 77.25 55.5 77.2 55.1 77.2 54.75 77 54.6
M 80.9 52.25
L 80.9 51.8 79.7 52.8 80.9 52.25
M 79.15 49.55
Q 79.35 49.7 79.55 49.85 79.7 49.75 79.9 49.7 79.55 49.5 79.25 49.35 79.2 49.45 79.15 49.55
M 79.8 50.2
L 79.6 51.5
Q 80.2 51.35 80.8 51.2
L 79.8 50.2
M 13.05 64.95
Q 12.95 64.85 12.8 64.85 12.65 64.85 12.5 64.95 12.4 65.05 12.4 65.2 12.4 65.35 12.5 65.45 12.65 65.55 12.8 65.55 12.95 65.55 13.05 65.45 13.2 65.35 13.2 65.2 13.2 65.05 13.05 64.95
M 17.6 63.3
Q 17.6 62.6 17.45 63.1 17.35 63.5 17.6 63.3
M 19.7 63.9
Q 19.8 64.55 19.9 64.15 20.05 63.65 19.9 63.75 19.8 63.75 19.75 63.8 19.7 63.1 19.7 63.9
M 8.7 58.8
Q 8.85 58.7 8.85 58.5 8.85 58.3 8.7 58.15 8.55 58.05 8.35 58.05 8.15 58.05 8 58.15 7.85 58.3 7.85 58.5 7.85 58.7 8 58.8 8.15 58.95 8.35 58.95 8.55 58.95 8.7 58.8
M 8.4 51.1
Q 7.8 50.7 7.5 51.55 7.45 51.65 7.45 51.8
L 7.95 52.4 8.5 51.55 8.4 51.1
M 16.75 59.15
Q 16.7 59.2 16.8 59.35 17.25 59.75 17.5 59.1 17.65 58.75 17.75 58.4
L 17.1 58.45
Q 16.85 58.75 16.75 59.15
M 14.35 61.45
Q 14.45 61.3 14.45 61.1 14.45 60.9 14.35 60.75 14.25 60.6 14.15 60.6 14.05 60.6 13.95 60.75 13.85 60.9 13.85 61.1 13.85 61.3 13.95 61.45 14.05 61.6 14.15 61.6 14.25 61.6 14.35 61.45
M 14.6 61.55
Q 14.55 61.6 14.45 61.6 13.75 61.9 14.55 62.2 14.65 62.15 14.75 62.15 14.75 61.3 14.6 61.55
M 14.4 59.5
Q 14.4 59.35 14.3 59.2 14.2 59.1 14.05 59.1 13.9 59.1 13.8 59.2 13.7 59.35 13.7 59.5 13.7 59.65 13.8 59.75 13.9 59.9 14.05 59.9 14.2 59.9 14.3 59.75 14.4 59.65 14.4 59.5
M 11.3 61.45
L 11 61.6
Q 11.05 61.75 11.15 61.8
L 11.25 61.65
Q 11.25 61.5 11.3 61.45
M 13.3 56.8
Q 13.2 56.55 13.1 56.4
L 12 57.7
Q 11.95 57.5 11.9 57.3 11.85 57.15 11.75 57.05 10.95 57.3 11.45 58.45 11.55 58.65 11.7 58.85
L 12.9 59
Q 13.9 57.95 13.3 56.8
M 13.35 55
Q 13.85 55.25 14.5 55.3
L 14.25 56.55
Q 14.5 56.5 14.65 56.4 14.95 56.05 15.2 55.6 14.75 55.1 13.8 54.8 13.65 54.8 13.55 54.8
L 13.35 55
M 11.55 53.6
Q 11.45 53.6 11.4 53.6
L 11 54.3
Q 11.95 54.45 12.65 54.1 12.8 54.05 12.95 53.9 13 53.75 13 53.65 13.05 53.5 13 53.45 12.95 53.35 12.85 53.35 12.65 53.3 12.5 53.3 12.3 53.4 12.15 53.5 11.95 53.55 11.8 53.6 11.65 53.6 11.55 53.6
M 16.8 53.2
L 15.7 53.7 16.7 54.6 16.8 53.2
M 33.7 63.8
Q 33.9 63.65 33.9 63.4 33.9 63.15 33.7 62.95 33.55 62.8 33.3 62.8 33.05 62.8 32.85 62.95 32.7 63.15 32.7 63.4 32.7 63.65 32.85 63.8 33.05 64 33.3 64 33.55 64 33.7 63.8
M 37.5 66.25
L 37.65 66.85
Q 38.3 67.4 38.9 67.9 39.2 68.1 39.45 68.5 39.55 68.75 39.7 69 38.9 68.35 38.2 68.8 38.15 69.55 39.25 69.55 39.55 69.45 39.9 69.35 40.3 67.95 39.2 66.9
L 39.7 67.1
Q 40.1 66.6 39.5 66.3 39 66.15 38.5 66
L 38.8 65.2 38.25 65.25 37.7 65.65 37.5 66.25
M 23.95 67.4
Q 24.1 67.3 24.1 67.1 24.1 66.9 23.95 66.75 23.85 66.65 23.65 66.65 23.45 66.65 23.3 66.75 23.2 66.9 23.2 67.1 23.2 67.3 23.3 67.4 23.45 67.55 23.65 67.55 23.85 67.55 23.95 67.4
M 22.6 67.85
Q 22.7 67.75 22.7 67.6 22.7 67.45 22.6 67.3 22.5 67.2 22.35 67.2 22.2 67.2 22.1 67.3 22 67.45 22 67.6 22 67.75 22.1 67.85 22.2 68 22.35 68 22.5 68 22.6 67.85
M 20.9 67.9
L 21.05 66.6
Q 20.75 66.3 20.3 66.65 19.95 67 19.6 67.35 19.6 67.55 19.75 67.7 20.3 68.25 21.1 68.5
L 20.9 67.9
M 27.4 64.4
L 28.5 63.3
Q 27.95 63.25 27.55 63.9 27.45 64.15 27.4 64.4
M 29.3 60.4
L 29 61 29.8 61.8 29.3 60.4
M 27.6 60.5
L 26.8 60.4
Q 27.35 61.05 27.15 62.05
L 26.05 62.9 26.15 63.35 26.6 63.8
Q 28 62.4 27.6 60.5
M 21.9 61.6
L 21.45 61.35
Q 20.4 61.25 19.8 62.1
L 21.6 62.05 21.9 61.6
M 23 61.5
Q 22.8 61.5 22.65 61.6 22.5 61.75 22.5 61.95 22.5 62.15 22.65 62.25 22.8 62.4 23 62.4 23.2 62.4 23.35 62.25 23.5 62.15 23.5 61.95 23.5 61.75 23.35 61.6 23.2 61.5 23 61.5
M 20.7 58.9
Q 20.95 58.7 20.95 58.4 20.95 58.1 20.7 57.9 20.5 57.7 20.15 57.7 19.8 57.7 19.55 57.9 19.35 58.1 19.35 58.4 19.35 58.7 19.55 58.9 19.8 59.1 20.15 59.1 20.5 59.1 20.7 58.9
M 39.95 57.85
Q 40.1 58 40.3 58 40.5 58 40.65 57.85 40.8 57.75 40.8 57.6 40.8 57.45 40.65 57.3 40.5 57.2 40.3 57.2 40.1 57.2 39.95 57.3 39.8 57.45 39.8 57.6 39.8 57.75 39.95 57.85
M 39.55 57.1
L 39.4 56.3 38.9 56.8
Q 38.7 56.65 38.5 56.55 38.35 56.55 38.25 56.6
L 38.1 57.5 37.45 58.6
Q 37.95 58.45 38.4 58.25 39.3 57.8 39.55 57.1
M 33.4 60.9
Q 33.15 60.9 32.95 61.1 32.75 61.3 32.75 61.55 32.75 61.8 32.95 62 33.15 62.2 33.4 62.2 33.65 62.2 33.85 62 34.05 61.8 34.05 61.55 34.05 61.3 33.85 61.1 33.65 60.9 33.4 60.9
M 31.85 60.75
Q 32.1 60.55 32.3 60.3
L 31.8 59.3 30.1 61.1 30.7 61.3
Q 31 61.2 31.3 61 31.6 60.95 31.85 60.75
M 33.55 57.85
Q 33.6 57.6 33.6 57.4
L 34.1 56.5 32.9 57.35
Q 32.8 57.5 32.8 57.65 32.85 58 33.15 58.3 33.15 58.35 33.25 58.35 33.35 58.3 33.4 58.2 33.55 58.05 33.55 57.85
M 28.2 33.9
Q 28.2 33.6 28.05 33.4 27.9 33.2 27.65 33.2 27.4 33.2 27.25 33.4 27.1 33.6 27.1 33.9 27.1 34.2 27.25 34.4 27.4 34.6 27.65 34.6 27.9 34.6 28.05 34.4 28.2 34.2 28.2 33.9
M 32.15 31.55
L 32.75 31.9
Q 32.7 31.75 32.65 31.75 32.4 31.6 32.15 31.55
M 31.95 31.65
Q 31.45 31.95 32.15 31.55 32 31.6 31.95 31.65
M 32.6 30.3
Q 32.75 30.2 32.75 30 32.75 29.8 32.6 29.65 32.5 29.55 32.35 29.55 32.2 29.55 32.05 29.65 31.95 29.8 31.95 30 31.95 30.2 32.05 30.3 32.2 30.45 32.35 30.45 32.5 30.45 32.6 30.3
M 32.6 27.65
Q 32.35 27.65 32.15 27.8 32 28 32 28.25 32 28.5 32.15 28.65 32.35 28.85 32.6 28.85 32.85 28.85 33 28.65 33.2 28.5 33.2 28.25 33.2 28 33 27.8 32.85 27.65 32.6 27.65
M 16.4 47.9
L 15.65 47.65
Q 15.7 48.05 16.1 48.15 16.25 48 16.4 47.9
M 15.8 46.75
Q 15.8 46.9 15.9 47 16 47.15 16.15 47.15 16.3 47.15 16.4 47 16.5 46.9 16.5 46.75 16.5 46.6 16.4 46.45 16.3 46.35 16.15 46.35 16 46.35 15.9 46.45 15.8 46.6 15.8 46.75
M 14.5 48.7
Q 14.55 48.5 14.6 48.4
L 14.1 47.4 14.55 46.8
Q 14.1 47 13.7 47.2 12.7 47.75 12.2 48.7 13.3 48.7 14.5 48.7
M 13.1 49.2
Q 13 49.3 13 49.45 13 49.6 13.1 49.7 13.2 49.8 13.3 49.8 13.4 49.8 13.5 49.7 13.6 49.6 13.6 49.45 13.6 49.3 13.5 49.2 13.4 49.1 13.3 49.1 13.2 49.1 13.1 49.2
M 10.55 47.75
Q 10.65 47.6 10.7 47.4
L 10 47.8
Q 10.3 48.2 10.55 47.75
M 11 45.3
L 10.8 45.9 11.6 46.5
Q 11.6 45.95 11.25 45.45 11.15 45.35 11 45.3
M 14.3 43.9
Q 13.9 43.3 13.7 43.95 13.7 44 13.9 44 14.1 44 14.3 43.9
M 14.2 42.8
Q 14.2 43.05 14.35 43.2 14.5 43.4 14.7 43.4 14.9 43.4 15.05 43.2 15.2 43.05 15.2 42.8 15.2 42.55 15.05 42.35 14.9 42.2 14.7 42.2 14.5 42.2 14.35 42.35 14.2 42.55 14.2 42.8
M 19 42.85
Q 19.1 42.75 19.1 42.6 19.1 42.45 19 42.3 18.9 42.2 18.75 42.2 18.6 42.2 18.5 42.3 18.4 42.45 18.4 42.6 18.4 42.75 18.5 42.85 18.6 43 18.75 43 18.9 43 19 42.85
M 9.4 47.4
Q 9.55 47.4 9.75 47.4
L 9.75 46.4
Q 9.35 46.4 8.95 46.7 8.9 46.8 8.85 46.9 8.9 47.3 9.4 47.4
M 8.45 45.55
L 8.15 44.9 7.75 46.4
Q 7.55 46.6 7.45 46.85 7.4 47.1 7.45 47.4
L 8.05 47 8.45 45.55
M 75.95 49.25
L 75.5 49.25 75.5 49.65 75.95 49.65 75.95 49.25
M 79.4 47.3
Q 79.1 47.5 79.5 47.6 80 46.95 79.4 47.3
M 76.65 45.85
Q 76.55 46 76.55 46.15 76.55 46.3 76.65 46.4 76.8 46.55 76.95 46.55 77.1 46.55 77.2 46.4 77.35 46.3 77.35 46.15 77.35 46 77.2 45.85 77.1 45.75 76.95 45.75 76.8 45.75 76.65 45.85
M 78.25 44.2
Q 78.25 44 78.1 43.85 78 43.75 77.85 43.75 77.7 43.75 77.55 43.85 77.45 44 77.45 44.2 77.45 44.4 77.55 44.5 77.7 44.65 77.85 44.65 78 44.65 78.1 44.5 78.25 44.4 78.25 44.2
M 80.75 45.75
Q 80.75 45.6 80.65 45.45 80.55 45.35 80.45 45.35 80.35 45.35 80.25 45.45 80.15 45.6 80.15 45.75 80.15 45.9 80.25 46 80.35 46.15 80.45 46.15 80.55 46.15 80.65 46 80.75 45.9 80.75 45.75
M 74.2 48.75
Q 74.35 48.65 74.35 48.45 74.35 48.25 74.2 48.1 74.05 48 73.85 48 73.65 48 73.5 48.1 73.35 48.25 73.35 48.45 73.35 48.65 73.5 48.75 73.65 48.9 73.85 48.9 74.05 48.9 74.2 48.75
M 74.1 47.4
L 75.7 47.6 77.2 47.4
Q 76 46.4 74.55 46.7
L 74.1 47.4
M 73 48.95
L 72.4 48.3
Q 72.25 48.9 72.8 49.1 72.9 49 73 48.95
M 71.8 49.35
Q 71.95 49.25 71.95 49.15 71.95 49.05 71.8 48.95 71.65 48.85 71.45 48.85 71.25 48.85 71.1 48.95 70.95 49.05 70.95 49.15 70.95 49.25 71.1 49.35 71.25 49.45 71.45 49.45 71.65 49.45 71.8 49.35
M 72.7 41
Q 72.85 40.9 72.85 40.75 72.85 40.6 72.7 40.5 72.6 40.4 72.4 40.4 72.2 40.4 72.05 40.5 71.95 40.6 71.95 40.75 71.95 40.9 72.05 41 72.2 41.1 72.4 41.1 72.6 41.1 72.7 41
M 71.65 37.85
Q 71.5 37.9 71.4 38.1 72.1 38.6 72.85 38.3
L 72.85 38.2
Q 72.45 37.55 71.65 37.85
M 73.4 39.45
L 72.9 39.1
Q 72.3 39.45 73 39.9 73.1 39.95 73.25 40 73.3 39.7 73.4 39.45
M 75.4 38.2
Q 75.2 38.2 75.05 38.2 74.85 38.35 74.7 38.55 74.6 38.65 74.6 38.8
L 73.9 38.7 74.1 40.8 74.65 40.6
Q 75.25 39.5 76.3 39.1 76.3 38.35 75.4 38.2
M 79.25 42.7
L 78.85 42.35
Q 78.3 42.05 78.65 42.3 78.9 42.55 79.25 42.7
M 77 42.4
Q 76.9 42.45 76.85 42.6
L 77.1 43.5 78.75 43.4
Q 78.4 42.85 78.05 42.3 77.95 42.2 77.8 42.15 77.65 42.1 77.5 42.1 77.2 42.2 77 42.4
M 76.95 37.5
Q 76.95 37.35 76.85 37.2 76.75 37.1 76.65 37.1 76.55 37.1 76.45 37.2 76.35 37.35 76.35 37.5 76.35 37.65 76.45 37.75 76.55 37.9 76.65 37.9 76.75 37.9 76.85 37.75 76.95 37.65 76.95 37.5
M 79.85 38.2
Q 79.55 37.65 79.2 37.25 79.1 37.05 78.95 37 78 37 77.2 37.5 77.05 37.65 76.9 37.85 77.05 38.9 77.75 39.95 77.75 40 77.75 40.1
L 79.35 40
Q 79.35 39.9 79.35 39.85 79.25 39.35 79.15 38.9 79 38.75 78.95 38.6 78.85 38.4 78.85 38.2
L 79.85 38.2
M 70.2 47
Q 70.45 47 70.75 47 71.05 48.4 72.4 47.65 72.5 47.55 72.6 47.4
L 72.55 46.8 70.2 47
M 67.8 48.2
Q 67.8 48.25 67.95 48.35
L 68.75 48.3 68.15 47.6
Q 67.5 47.5 67.8 48.2
M 66.9 46.4
Q 66.55 46.1 66.2 46.35 65.95 46.55 65.85 46.9 66.1 47.5 66.75 47.4
L 66.9 46.4
M 68.4 46.25
L 68.7 46 68.1 46 68.4 46.25
M 68.75 44.25
Q 68.65 44.4 68.65 44.6 68.65 44.8 68.75 44.9 68.9 45.05 69.05 45.05 69.2 45.05 69.3 44.9 69.45 44.8 69.45 44.6 69.45 44.4 69.3 44.25 69.2 44.15 69.05 44.15 68.9 44.15 68.75 44.25
M 69.7 44.2
L 70.8 44.5 70.8 45.2
Q 71.15 43.9 72.25 43.55 73.35 43.3 74.5 43.2
L 72.7 44.2
Q 72.6 43.5 71.9 43.95 71.75 45.5 70.4 46.4
L 72.1 46.3
Q 72.8 45.75 72.8 45.1
L 72.85 45.3
Q 73.05 46.15 74.2 46.35 74.8 46.35 75.4 46.4
L 74.7 44.8 75.7 45.1
Q 76.1 43.65 76.3 42.3 76.4 41.75 76.65 41.2 76.75 41 76.8 40.8 75 42 72.8 41.75 72.2 41.55 71.6 41.7 71.25 41.85 70.9 42 70.4 42.1 70.3 42.45 70.1 43.35 69.7 44.2
M 63.55 48.4
L 63.75 48.8 63.95 48.4 63.55 48.4
M 64.9 42.1
Q 65.05 42 65.05 41.8 65.05 41.6 64.9 41.45 64.8 41.35 64.65 41.35 64.5 41.35 64.35 41.45 64.25 41.6 64.25 41.8 64.25 42 64.35 42.1 64.5 42.25 64.65 42.25 64.8 42.25 64.9 42.1
M 61.95 41.05
Q 61.95 40.9 61.8 40.75 61.7 40.65 61.55 40.65 61.4 40.65 61.25 40.75 61.15 40.9 61.15 41.05 61.15 41.2 61.25 41.3 61.4 41.45 61.55 41.45 61.7 41.45 61.8 41.3 61.95 41.2 61.95 41.05
M 70.7 40.7
L 70.3 40.7 70.3 41.2 70.7 41.2 70.7 40.7
M 69.25 40.1
L 69.2 39.85
Q 69.05 40 68.9 40.4
L 69.25 40.1
M 69.2 38.3
Q 69.35 38.2 69.35 38.1 69.35 38 69.2 37.9 69.1 37.8 68.95 37.8 68.8 37.8 68.65 37.9 68.55 38 68.55 38.1 68.55 38.2 68.65 38.3 68.8 38.4 68.95 38.4 69.1 38.4 69.2 38.3
M 70.15 36.5
Q 70.3 36.4 70.3 36.2 70.3 36 70.15 35.85 70.05 35.75 69.85 35.75 69.65 35.75 69.5 35.85 69.4 36 69.4 36.2 69.4 36.4 69.5 36.5 69.65 36.65 69.85 36.65 70.05 36.65 70.15 36.5
M 70.1 32.4
Q 70.05 31.95 69.45 31.6 69.3 31.5 69.1 31.5
L 70.1 32.4
M 62.9 34
L 63.2 34.7 63.5 34 62.9 34
M 64.15 34.5
L 63.75 34.5 63.75 35.05 64.15 35.05 64.15 34.5
M 61.5 37.1
Q 61.65 36.75 61.75 36.4
L 61.1 36.45
Q 60.85 36.75 60.7 37.15 60.7 37.2 60.8 37.35 61.3 37.6 61.5 37.1
M 78.3 35.55
Q 78.2 35.55 78.1 35.65 78 35.8 78 35.95 78 36.1 78.1 36.2 78.2 36.35 78.3 36.35 78.4 36.35 78.5 36.2 78.6 36.1 78.6 35.95 78.6 35.8 78.5 35.65 78.4 35.55 78.3 35.55
M 77.4 34.25
Q 77.55 34.45 77.8 34.6 78.2 33.95 77.35 33.85 77.3 34.05 77.4 34.25
M 76.1 36.6
Q 76 37 76.5 36.8 76.2 36.15 76.1 36.6
M 71.75 36.95
Q 71.7 37 71.7 37.1 72.1 37.3 72.55 36.85 73.05 36.4 73.85 36.4 74.1 36.4 74.4 36.4
L 73.5 35.1
Q 72.9 35.75 72.3 36.4 72 36.65 71.75 36.95
M 71.95 32.85
Q 72 32.75 72.1 32.7 71.7 31.9 71.65 32.6 71.65 32.65 71.95 32.85
M 73.7 33.55
Q 73.75 33.4 73.65 33.25 72.9 32.95 72.85 33.6 72.85 33.75 72.9 33.9 73.55 34.3 73.7 33.55
M 60.5 48.75
L 59.8 48.2
Q 59.75 48.75 60.2 48.85 60.55 49 60.5 48.75
M 60.25 46
Q 60.4 46.15 60.65 46.15 60.9 46.15 61.05 46 61.2 45.9 61.2 45.75 61.2 45.6 61.05 45.45 60.9 45.35 60.65 45.35 60.4 45.35 60.25 45.45 60.1 45.6 60.1 45.75 60.1 45.9 60.25 46
M 54.15 42.15
L 54.75 42.4
Q 54.7 41.55 54.05 41.15 53.7 40.95 53.4 40.8
L 54.15 42.15
M 52.45 42
Q 52.1 42.4 52.4 42.1 52.9 41.55 52.45 42
M 57.5 43.2
Q 56.6 42.9 55.7 42.6 55.3 42.4 55 43.5 54.9 44 54.6 44.5 54.1 45.2 53.2 45.4 52.95 45.55 52.65 45.6 52.95 47.6 54.8 47.2 54.9 47.1 55 47.05 55 46.95 55 46.85 55.05 46.7 55 46.6 54.8 46.35 54.55 46.1 54.35 45.8 55.4 46 56.65 46.3 58.05 46.2 58.5 46.1 58.85 45.7
L 58.9 44.35
Q 58.35 43.5 57.5 43.2
M 50.3 42.85
Q 50.4 43 50.55 43 50.7 43 50.8 42.85 50.9 42.75 50.9 42.6 50.9 42.45 50.8 42.3 50.7 42.2 50.55 42.2 50.4 42.2 50.3 42.3 50.2 42.45 50.2 42.6 50.2 42.75 50.3 42.85
M 49.5 38.4
Q 49.65 38.3 49.65 38.1 49.65 37.9 49.5 37.75 49.4 37.65 49.25 37.65 49.1 37.65 48.95 37.75 48.85 37.9 48.85 38.1 48.85 38.3 48.95 38.4 49.1 38.55 49.25 38.55 49.4 38.55 49.5 38.4
M 47.35 36.6
L 46.8 36.6 46.8 37.2 47.35 37.2 47.35 36.6
M 44.4 33.2
L 45.1 33.6
Q 45.45 32.95 44.6 33.05 44.5 33.1 44.4 33.2
M 51.35 45.25
L 51.1 45.4
Q 51.35 45.75 51.35 45.25
M 43.15 32.05
Q 43.35 31.6 43.4 31.1 42.95 31.25 42.55 31.45 42.35 31.6 42.3 31.85 42.25 31.95 42.3 32.15
L 43.2 32.8 42.75 32.9 40.85 31.85
Q 40.7 32.3 40.6 32.8 40.5 33.25 40.1 33.5 40.05 33.55 39.95 33.6 39.5 33.65 39.55 33.2 39.65 32.3 40.1 31.5
L 39.4 31.5 35.3 29.85 34.4 30.85 33.6 31.1 33.5 31.1
Q 33.5 31.3 33.65 31.55
L 36.8 31.4 31 33.55 29.7 33.45
Q 29.6 33.55 29.55 33.65 29.5 33.85 29.55 34.05 29.6 34.3 29.7 34.6 27.5 36 28.3 38.6 28.15 38.6 28.05 38.65 27.8 38.55 27.6 38.5 27.45 38.4 27.3 38.35 26.95 37.5 26.35 37.25 25.45 36.9 24.6 37.3
L 25 37.55
Q 25.5 38.2 25.05 38.85 24.15 40.3 23.65 41.95 23.05 44.15 21.2 45.35
L 22.3 44.9 22.1 46.35 22.6 46.2
Q 22.85 46.25 23.1 46.35 23.3 46.55 23.5 46.8 23.65 46.95 23.75 47.2
L 22.15 46.7
Q 22 46.7 21.85 46.7 21.75 46.75 21.7 46.85 21.65 46.95 21.6 47.1 19.3 46.75 17.9 48.7 16.95 50.15 15.45 50.8 17.15 50.6 18.9 50.4 18.5 50 18.25 49.6
L 18.4 49.55 18.7 48.65 19.1 48.85 20.05 48.5
Q 20 48.6 19.95 48.7 19.75 49.2 19.7 49.75 19.65 49.95 19.8 50.25 19.9 50.25 20 50.25 20.1 50.25 20.2 50.25 20.3 50.15 20.4 50.05 20.55 49.85 20.7 49.65
L 20.75 49.15 21.8 49.35
Q 21.55 49.85 21.35 50.4 21 51.1 21.65 51.65
L 23.75 50.95
Q 24.25 51.4 23.8 52.15 23.25 52.95 22.75 53.65 22.35 54.25 21.95 54.85 21.85 55.05 21.8 55.25 22.15 55.2 22.5 55.2 22.9 55.15 23.35 55.05 22.75 54.65 23.15 54.8 23.85 54.8 24.45 55.25 24.5 55.35 24.55 55.55 24.25 55.8 23.8 55.55 23.65 55.4 23.55 55.3 23.5 55.2 23.4 55.15
L 23.3 57.2
Q 21.65 55.75 19.4 55.6
L 19.9 54.25 19.6 53.7 20.6 53.6 20.65 55.1
Q 20.9 54.6 21 54.05 21.1 53.35 21.05 52.6 20.95 52.5 20.9 52.45 20.75 52.45 20.75 52.5 20.7 52.3 20.8 52.15 20.55 51.65 19.85 51.85 18.25 51.7 17.8 53.15
L 19.05 54.8 18.15 57 22.1 56.8
Q 22 57.35 22.05 57.95 22.1 58.35 22.3 58.8 22.6 58.5 22.9 58.25 24.9 56.2 27.6 56.75
L 28.85 57.9
Q 28.45 58.05 28.15 58.35 27.85 58.55 27.65 58.9 27.6 58.95 27.65 59.1 27.65 59.15 27.7 59.2 27.85 59.25 28.05 59.25 28.25 59.25 28.45 59.25 29.55 58.9 29.25 57.85 29.1 57.25 28.8 56.7 28.55 56.15 28.3 55.65 28.2 55.45 28.25 55.45 28.35 55.3 28.6 55.35
L 29.25 54.45
Q 30.2 55.05 31.2 55.7
L 30.15 56.2 30.7 57 31.7 56.15 32.75 57 33.15 55.95 37.05 56.25 37.35 54.2
Q 38.9 53.55 40.25 54.65 40.45 54.8 40.65 55.05 40.7 54.7 40.75 54.4 41.1 54.45 41.45 54.55 41.5 54.6 41.55 54.75 41.6 54.8 41.65 54.9 41.55 55.1 41.4 55.25 41.3 55.35 41.2 55.4 41 55.4 40.8 55.4
L 41.1 56.2
Q 43.25 55.1 45.75 55.1 46.6 55.25 47.65 55.45 48.35 55.35 49 55
L 49.45 55.05
Q 49.1 55.35 48.8 55.65 48.7 55.75 48.6 55.9 48.65 56.05 48.8 56.15 48.95 56.25 49.15 56.3 49.35 56.35 49.55 56.4 49.9 56.25 50.25 56.15 50.75 55.85 51.3 55.6 52.2 55.45 52.8 56.15
L 52.9 54.3 50.75 52.9 49.35 53.35
Q 49.25 52.25 49.2 51.15
L 49.5 52.35
Q 50.05 51.9 50.25 51.2 50.6 49.8 52.05 49.35 51.85 49.5 51.7 49.7 51.3 50.1 50.95 50.55
L 51.25 51.3
Q 51.75 51.65 52.35 51.35 53.45 50.95 54.55 50.5
L 53.75 49.55
Q 53.7 48.95 54.6 48.8 55.15 48.6 55.7 48.35 56.25 48.1 56.75 47.8 57.05 48.8 56.75 49.6 56.55 50.15 56.35 50.65 57.15 50.9 57.95 50.4 58.65 50.05 59.2 50
L 59.95 50.55
Q 59.9 50.85 59.75 51.15 59.4 51.8 59 52.45
L 60.95 53.2
Q 61.65 51.4 60.35 50.4 59.85 49.9 59.2 49.6 58.55 49.8 57.9 50
L 57.7 49.35 57.95 48.7 59.95 47.45
Q 59.15 47.2 58.35 46.55 57.75 46.05 56.85 46.5 55.3 47.3 53.7 48.15 52.55 48.8 51.15 48.95 50.45 48.85 49.75 48.75
L 50.35 49.6 48.4 50.65
Q 49.5 49.05 48.55 47.5 48.35 47.2 48.2 46.95 48.55 47.05 48.9 47.15 49.5 45.95 50.6 45.45
L 50.5 45.4
Q 50.5 45.1 50.7 44.95 50.85 44.75 51.2 44.75 51.45 44.8 51.4 45.15 51.4 45.2 51.35 45.25
L 53.2 44.7
Q 52.65 44.35 52.25 43.95 51.95 43.6 51.75 43.2 49.8 43.65 48.15 42.6 47.8 42.35 47.3 42.35
L 46.85 40.65 50.55 40.55 49.75 39.5 48.65 40.55
Q 48.45 40.55 48.3 40.55 48.15 40.45 48.05 40.3 47.8 39.9 47.6 39.5
L 46.95 39.95
Q 47.5 38.55 46.3 37.7 45.8 37.25 45.15 37.1 44.45 36.95 43.75 36.9 43.85 36.65 43.95 36.45 44 36.25 44 36.1 44 35.7 43.95 35.3
L 42.95 34.7 42.65 33.95
Q 42.8 33.6 43 33.35 43.45 32.85 43.95 32.4
L 42.95 32.1
Q 43.1 32.1 43.15 32.05
M 43 35.9
L 42.3 35.3
Q 42.9 35.1 43.15 35.5 43.2 35.6 43.3 35.75 43.2 36.45 42.45 36.8 42.45 36.75 42.45 36.65
L 43 35.9
M 41 35.55
Q 40.75 35.75 40.5 35.95 39.65 36.45 38.65 36.35
L 38.3 36.1 37.6 34.9
Q 38.8 35.95 40.35 35.55 40.65 35.55 41 35.55
M 46.75 41.1
Q 46.75 41.3 46.6 41.45 46.5 41.6 46.35 41.6 46.2 41.6 46.05 41.45 45.95 41.3 45.95 41.1 45.95 40.9 46.05 40.75 46.2 40.6 46.35 40.6 46.5 40.6 46.6 40.75 46.75 40.9 46.75 41.1
M 41.7 38.3
Q 41.6 38.25 41.5 38.2 41.1 37.95 41.45 38.05 41.85 38.2 41.7 38.3
M 40.8 39.9
L 40.8 39 41.05 38.9
Q 41.05 39.35 40.8 39.9
M 42.65 39.05
Q 42.6 39.2 42.45 39.3
L 41.7 39.1 42.4 38.6
Q 43 38.65 42.65 39.05
M 42.6 41.7
L 42.4 40.8 43.4 41.8 42.6 41.7
M 44.45 45.8
L 45.25 46.4 46.15 44
Q 46.3 44.15 46.55 44.2 47.45 44.7 48.2 44.5 48.35 44.4 48.5 44.3
L 48.75 43.6 49.45 44.5 50.25 43.7 49.95 45.35 44.95 47.4 44.45 45.8
M 43.6 43.6
Q 43.35 43.8 43.15 44 42.7 44.5 42.3 43.9
L 43.6 43.6
M 40.75 44.4
L 40.75 43.4
Q 41.25 43.3 41.55 43.7 41.6 43.8 41.65 43.9 41.6 44.35 41.2 44.4 40.95 44.4 40.75 44.4
M 40.75 45.4
Q 40.55 46.1 40.65 45.5 40.65 45.45 40.75 45.4
M 40.6 46.8
L 42.4 46.6 42.9 46.2
Q 43.15 46.8 43.45 47.5 43.5 47.65 43.5 47.9 43.4 47.95 43.35 48 43.2 48.05 43.05 48.1 42.9 48 42.75 47.9
L 40.6 46.8
M 44.2 49.05
Q 44.2 49.25 44.1 49.4 44.05 49.5 43.9 49.6
L 43.4 49.65 42 48.7 44 49.1
Q 44 48.75 44.1 48.55
L 44.2 48.7
Q 44.2 48.85 44.2 49.05
M 47.4 48.7
Q 47.05 48.05 46.75 47.4
L 47.5 47.5
Q 47.8 48.05 47.4 48.7
M 45 49.1
L 47.45 49.3
Q 47.9 49.95 47.95 51.05 48 51.55 48.15 52.1
L 46.75 50.8
Q 46.75 51.9 46.1 52.9 45.75 53.4 45.05 53.6 44.75 53.65 44.45 53.7
L 45.25 54.5 41.95 54.5 42.7 53.65 43.55 53.7
Q 43.2 52.85 42.85 51.85 42.75 51.55 42.8 51.2 42.8 51.05 42.85 50.95 43.95 50.75 45 51.7 45.45 52.1 46.05 52.4
L 45.95 50.95 45.7 50.55 44.15 50.4 45 49.1
M 20.15 48.4
Q 19.5 47.55 20.1 47.4 21 47.85 20.35 48.3 20.25 48.35 20.15 48.4
M 35.2 33.4
Q 34.95 33.4 34.75 33.4
L 34.75 32.4
Q 35.2 32.35 35.55 32.75 35.6 32.8 35.65 32.9 35.55 33.45 35.2 33.4
M 31.9 36.05
Q 31.8 35.95 31.7 35.9 32.35 35.05 33.3 35.1 33.45 35.1 33.6 35.15 33.25 35.65 31.9 36.05
M 31.3 36.45
L 30.5 36.75 29.85 36.55 31.3 36.45
M 32.8 34.35
Q 32.15 34.55 31.5 34.8
L 31.7 33.6 32.8 34.35
M 34 34.55
Q 33.9 34.5 33.85 34.4
L 34.8 34
Q 34.9 34.9 34 34.55
M 38.8 33.85
Q 38.6 33.9 38.45 34 36.75 34.25 35.1 35
L 36.15 33.9 36.9 33.8 38 33.2 38.8 33.85
M 35.7 36.3
L 36.1 35.6
Q 36.45 35.5 36.1 35.95 35.9 36.15 35.7 36.3
M 36.75 36.4
L 36.75 35.4
Q 37.2 35.3 37.55 35.75 37.6 35.8 37.65 35.9 37.7 36.3 37.2 36.4 36.95 36.4 36.75 36.4
M 40.4 34.45
Q 40.3 34.25 40.2 34.05
L 40.75 34.4
Q 41 35.15 40.4 34.45
M 34.75 36.85
Q 35.25 36.6 35.75 36.4
L 35.5 37.35
Q 34.75 37.8 34.75 36.85
M 26.7 42.25
Q 26.4 42 26.1 41.8 26.65 41.6 27.1 42.1 27.15 42.15 27.2 42.25 27.1 42.65 26.7 42.25
M 23.75 43.4
Q 23.85 44 23.5 43.4 23.45 43.3 23.75 43.2
L 23.75 43.4
M 23.15 44.85
Q 23.25 44.75 23.4 44.75 23.55 44.75 23.65 44.85 23.75 44.95 23.75 45.1 23.75 45.25 23.65 45.35 23.55 45.45 23.4 45.45 23.25 45.45 23.15 45.35 23.05 45.25 23.05 45.1 23.05 44.95 23.15 44.85
M 24.8 45.5
Q 24.9 45.65 24.9 45.8 24.9 45.95 24.8 46.05 24.7 46.2 24.55 46.2 24.4 46.2 24.3 46.05 24.2 45.95 24.2 45.8 24.2 45.65 24.3 45.5 24.4 45.4 24.55 45.4 24.7 45.4 24.8 45.5
M 24.1 47.65
L 24.6 47.9
Q 24.75 48.4 24.25 48.15 23.85 48 24.1 47.65
M 28.75 43.4
L 29.7 43.4 29.25 43.9 28.75 43.4
M 26.9 45.1
Q 26.2 45.65 25.65 44.75 25.5 44.5 25.4 44.3
L 26.9 45.1
M 28.75 49.05
Q 28.85 49.05 28.95 49.15 29.05 49.3 29.05 49.5 29.05 49.7 28.95 49.8 28.85 49.95 28.75 49.95 28.65 49.95 28.55 49.8 28.45 49.7 28.45 49.5 28.45 49.3 28.55 49.15 28.65 49.05 28.75 49.05
M 28.5 48.55
Q 28.4525390625 48.02734375 28.55 48.6 28.5619140625 48.55 28.5 48.55
M 40 38.2
Q 40.1 38.3 40.1 38.4 40.1 38.5 40 38.55 39.95 38.65 39.85 38.65 39.75 38.65 39.65 38.55 39.6 38.5 39.6 38.4 39.6 38.3 39.65 38.2 39.75 38.15 39.85 38.15 39.95 38.15 40 38.2
M 38.5 41.5
L 39.55 41.6
Q 38.7 41.85 37.9 42.1
L 38.5 41.5
M 34.2 37.45
Q 34.1 37.8 33.75 37.5 33.5 37.3 33.3 37.1
L 34.2 37.45
M 30.65 39.2
Q 30.85 39.15 31.1 39.1 31.9 39.45 30.9 39.45 30.65 39.45 30.45 39.45 30.55 39.3 30.65 39.2
M 32.4 39.05
Q 32.5 38.9 32.6 38.75 32.65 38.65 32.7 38.55 33.05 38.45 33.3 38.9 33 39 32.7 39.15 32.2 39.05 31.75 39
L 32.4 39.05
M 31.6 39.5
Q 31.7 39.4 31.9 39.4 32.4 39.8 31.8 40.3 31.2 40.7 30.3 40.8 29.6 40.85 30.7 40.25 31.25 39.95 31.6 39.5
M 31.9 42.65
Q 31.8 42.1 31.7 41.6 32.5 42.2 32.4 43.05 32.4 43.1 32.35 43.2 32 43 31.9 42.65
M 33.95 41
Q 34.1 41.1 34.1 41.25 34.1 41.4 33.95 41.5 33.85 41.6 33.7 41.6 33.55 41.6 33.4 41.5 33.3 41.4 33.3 41.25 33.3 41.1 33.4 41 33.55 40.9 33.7 40.9 33.85 40.9 33.95 41
M 34.7 44
L 34.8 44.55 35.65 45 31.55 44.8 32.65 44.7 32.05 44.1
Q 32 43.35 32.4 43.9 32.8 44.5 33.45 44.55 33.75 44.4 34.1 44.3 34.4 44.15 34.7 44
M 31.2 45.45
Q 31.5 45.7 31.75 46.1 31.7775390625 46.148046875 31.8 46.2 31.9705078125 46.51171875 32.1 46.9
L 30.85 46.8
Q 31.3 46.5 31.8 46.2
L 30.3 45.6
Q 30.55 45 31.2 45.45
M 32.9 48.4
Q 32.9 48.6 32.75 48.7 32.65 48.85 32.45 48.85 32.25 48.85 32.1 48.7 32 48.6 32 48.4 32 48.2 32.1 48.05 32.25 47.95 32.45 47.95 32.65 47.95 32.75 48.05 32.9 48.2 32.9 48.4
M 35.25 48.25
Q 34.9 48.2 34.6 48.2 35.1 47.95 35.55 47.85
L 35.55 48
Q 35.4 48.1 35.25 48.25
M 34.95 46.7
Q 34.9 46.7 34.8 46.6 35.4 46.5 34.95 46.7
M 38.6 44.65
Q 38.6 44.85 38.45 44.95 38.35 45.1 38.15 45.1 37.95 45.1 37.8 44.95 37.7 44.85 37.7 44.65 37.7 44.45 37.8 44.3 37.95 44.2 38.15 44.2 38.35 44.2 38.45 44.3 38.6 44.45 38.6 44.65
M 36.6 43.7
Q 36.35 44.45 35.75 43.7 35.65 43.55 35.6 43.35
L 37 42.85
Q 36.8 43.25 36.6 43.7
M 37.7 45.95
Q 37.8 46.05 37.8 46.15 37.8 46.25 37.7 46.3 37.6 46.4 37.45 46.4 37.3 46.4 37.2 46.3 37.1 46.25 37.1 46.15 37.1 46.05 37.2 45.95 37.3 45.9 37.45 45.9 37.6 45.9 37.7 45.95
M 36 46.8
L 36 46.6
Q 36.35 46 36.2 46.55 36.15 46.8 36 46.8
M 35.65 49
L 35.9 49.2 36.2 49.9
Q 35.8 49.35 35.65 49
M 38.7 48.1
L 39.1 47 39.6 47.8 38.7 48.1
M 39 49.45
Q 39.05 49.4 39.2 49.4 39.45 49.45 39.6 49.6 39.75 49.75 39.8 50
L 38.75 50.4
Q 38.85 49.9 39 49.45
M 38.5 50.25
Q 38.65 50.35 38.65 50.5 38.65 50.65 38.5 50.75 38.35 50.85 38.15 50.85 37.95 50.85 37.8 50.75 37.65 50.65 37.65 50.5 37.65 50.35 37.8 50.25 37.95 50.15 38.15 50.15 38.35 50.15 38.5 50.25
M 40.4 50.7
Q 40.3 50.6 40.3 50.4 40.3 50.2 40.4 50.05 40.55 49.95 40.75 49.95 40.95 49.95 41.05 50.05 41.2 50.2 41.2 50.4 41.2 50.6 41.05 50.7 40.95 50.85 40.75 50.85 40.55 50.85 40.4 50.7
M 36.15 50.55
Q 36.45 50.45 36.75 50.4 37.65 50.55 37.15 51 37.05 51 37 51
L 36.15 50.55
M 36.05 55
Q 36.2 55.1 36.2 55.25 36.2 55.4 36.05 55.5 35.95 55.6 35.8 55.6 35.65 55.6 35.5 55.5 35.4 55.4 35.4 55.25 35.4 55.1 35.5 55 35.65 54.9 35.8 54.9 35.95 54.9 36.05 55
M 36.2 52.6
Q 36.3 53.2 35.8 53.4 35.3 53.5 34.8 53.6
L 36.2 52.6
M 33.55 49.6
L 33.2 50.45
Q 33.35 50.9 33.4 51.4
L 33.3 51.4
Q 32.6 50.9 33.15 50.05 33.35 49.8 33.55 49.6
M 34.6 51.6
Q 33.7 50.8 34.95 50.3 35 50.25 35.15 50.3
L 34.6 51.6
M 31.45 51.5
Q 31.2 51.2 31 50.9
L 31.6 50.1
Q 31.65 51.4 32.3 52.2 32.55 52.55 32.8 52.9
L 31.75 53.75 31.3 53.7
Q 31.65 53.2 31.7 52.4 31.7 51.9 31.45 51.5
M 33.75 54.4
L 33.75 53.4
Q 34.25 53.3 34.55 53.7 34.6 53.8 34.65 53.9 34.6 54.3 34.2 54.4 33.95 54.4 33.75 54.4
M 34.45 55
Q 34.45 55.05 34.35 55.1 34.65 54.4 34.45 55
M 28.7 52.1
L 29.1 52.1 29.1 52.6 28.7 52.6 28.7 52.1
M 25.55 54.05
Q 25.5 53.5 25.6 52.95
L 26.6 52.4 27.3 54.7 27.9 53.7 27.85 55.05 26.6 56.1 27.1 55.4
Q 26.8 55.35 26.5 55.35 25.6 55.05 25.55 54.05
M 29.5 52.6
L 29.8 53.3 29.6 53.9 29.5 52.6
M 50.8 54
Q 50.8 54.15 50.7 54.25 50.6 54.4 50.5 54.4 50.4 54.4 50.3 54.25 50.2 54.15 50.2 54 50.2 53.85 50.3 53.7 50.4 53.6 50.5 53.6 50.6 53.6 50.7 53.7 50.8 53.85 50.8 54
M 46.8 53.9
L 46.4 53.6
Q 47 53.05 47.9 53.2 47.9 53.25 47.95 53.3 48.15 53.6 47.7 53.65 47.25 53.85 46.8 53.9
M 48.2 54.5
Q 48.6 55 48.1 54.6 47.7 54 48.2 54.5
M 42.3 52.65
Q 42.45 52.8 42.45 53 42.45 53.2 42.3 53.3 42.2 53.45 42.05 53.45 41.9 53.45 41.75 53.3 41.65 53.2 41.65 53 41.65 52.8 41.75 52.65 41.9 52.55 42.05 52.55 42.2 52.55 42.3 52.65
M 45.4 32.4
Q 45.55 32.3 45.55 32.1 45.55 31.9 45.4 31.75 45.3 31.65 45.15 31.65 45 31.65 44.85 31.75 44.75 31.9 44.75 32.1 44.75 32.3 44.85 32.4 45 32.55 45.15 32.55 45.3 32.55 45.4 32.4
M 85.9 62.7
Q 85.3 62.8 86 63.2 86.15 63.3 86.4 63.3
L 85.9 62.7
M 84.75 63.4
L 84.1 63.45
Q 83.85 63.75 83.75 64.1 83.7 64.2 83.8 64.35 84.3 64.75 84.5 64.15 84.65 63.75 84.75 63.4
M 87.4 60.1
Q 87.55 60.8 88.15 61.15 88.3 61.2 88.45 61.25
L 88.9 60.6
Q 88.5 59.8 87.65 60 87.5 60.05 87.4 60.1
M 86.45 61.35
Q 86.25 61.35 86.1 61.45 86 61.6 86 61.75 86 61.9 86.1 62 86.25 62.15 86.45 62.15 86.65 62.15 86.75 62 86.9 61.9 86.9 61.75 86.9 61.6 86.75 61.45 86.65 61.35 86.45 61.35
M 82.7 58.5
L 82.65 58.7
Q 83.2 58.5 83.8 58.1
L 82.7 58.5
M 85.75 56.9
L 84.9 58.4
Q 86.1 58.55 86.55 57.3 86.55 57.25 86.55 57.15
L 85.75 56.9
M 85.8 55.4
Q 85.65 55.4 85.55 55.5 85.45 55.65 85.45 55.8 85.45 55.95 85.55 56.05 85.65 56.2 85.8 56.2 85.95 56.2 86.05 56.05 86.15 55.95 86.15 55.8 86.15 55.65 86.05 55.5 85.95 55.4 85.8 55.4
M 84.3 53.85
L 83.8 53.95
Q 83.2 54.75 82.75 55.2 82.3 55.75 81.75 56.25 81.5 56.45 81.3 56.75 81.4 57 81.5 57.05 81.85 56.9 82.2 56.65 83.25 56.1 84.35 55.4
L 84.55 55 85.25 55 84.8 54.05 84.3 53.85
M 83.95 52.7
Q 83.9 52.8 83.85 52.9 84 53.4 84.4 53.4 84.55 53.4 84.75 53.4
L 84.75 52.4
Q 84.15 52.45 83.95 52.7
M 81.75 54.45
Q 81.85 54.35 81.85 54.2 81.85 54.05 81.75 53.9 81.65 53.8 81.5 53.8 81.35 53.8 81.25 53.9 81.15 54.05 81.15 54.2 81.15 54.35 81.25 54.45 81.35 54.6 81.5 54.6 81.65 54.6 81.75 54.45
M 89.1 54.65
Q 89.05 54.55 88.9 54.5 88.3 54.95 88.5 55.4 88.55 55.5 88.2 55.75 87.85 56.05 87.5 56.4
L 88.4 56.2 88.95 57
Q 90 56.3 91.2 56.4
L 90.05 55.2
Q 89.3 55.3 89.25 55.15 89.2 54.85 89.1 54.65
M 88.05 54.6
Q 88.15 54.5 88.15 54.35 88.15 54.2 88.05 54.05 87.95 53.95 87.8 53.95 87.65 53.95 87.55 54.05 87.45 54.2 87.45 54.35 87.45 54.5 87.55 54.6 87.65 54.75 87.8 54.75 87.95 54.75 88.05 54.6
M 88.8 51.8
L 90.7 51.4 90.2 50.5 88.8 51.8
M 92 54.9
Q 92.15 54.8 92.15 54.6 92.15 54.4 92 54.25 91.9 54.15 91.75 54.15 91.6 54.15 91.45 54.25 91.35 54.4 91.35 54.6 91.35 54.8 91.45 54.9 91.6 55.05 91.75 55.05 91.9 55.05 92 54.9
M 91.7 49.45
Q 91.6 49.25 91.45 49.05 91.15 49.25 90.9 49.5 91.35 50.3 92.2 50.15 92.3 50.05 92.4 50 91.9 49.95 91.7 49.45
M 82.05 48.35
L 81.35 47.85 82.05 48.4
Q 81.75 48.45 81.8 48.95 81.8 49.15 81.85 49.35
L 82.6 49.8
Q 83.6 49.55 83.75 48.4
L 82.05 48.35
M 83.1 40.45
Q 82.85 40.75 82.75 41.15 82.7 41.2 82.8 41.35 83.3 41.65 83.5 41.1 83.65 40.75 83.75 40.4
L 83.1 40.45
M 82 43.1
L 81.2 42.4
Q 81.25 41.45 80.55 40.7 80.55 40.75 80.55 40.85 80.3 41.45 80.15 41.8 79.7 42.7 80.3 43.4 80.9 44.05 81.7 43.8
L 80.9 44.6
Q 82.5 45.3 83.95 44.35 83.7 44.85 83.45 45.4
L 84.55 45.65 85.15 46.35 86 46.6 86 47.7
Q 85.8 47.7 85.7 47.75 85.4 48.05 85.15 48.4
L 86.6 48.65 87 49.4
Q 86.1 50.5 84.4 50.3 83.15 50.55 82.9 51.8 83.4 52.7 84.4 52.25 84.5 52.15 84.65 52.15
L 85.3 51.5
Q 86 51.4 87.2 51.8
L 87.6 51.6 86.95 51.3
Q 87.1 51.15 87.3 51.05 87.6056640625 51.010546875 87.9 50.95 87.869921875 51.608203125 88.45 51.85 88.5 51.9 88.6 51.85 88.5 51.6 88.35 51.4 88.1689453125 51.128515625 87.95 50.95 89.1056640625 50.66875 90.05 50 90.7 49.55 90.75 48.95 90.6 48.85 90.5 48.75 90.4 48.75 90.3 48.8 90 49 89.75 49.2
L 89.7 47.9
Q 88.95 47.75 88.3 47.05 87.5 46.2 86.35 46.1
L 87.15 44.5 85.5 42.2 84.7 42.1 84.65 41.7
Q 82.65 41.25 82 43.1
M 87.3 48.85
Q 87.1 48.85 86.95 48.7 86.8 48.6 86.8 48.4 86.8 48.2 86.95 48.05 87.1 47.95 87.3 47.95 87.5 47.95 87.65 48.05 87.8 48.2 87.8 48.4 87.8 48.6 87.65 48.7 87.5 48.85 87.3 48.85 Z"/>
</g>
</defs>

<g transform="matrix( 1, 0, 0, 1, 2.75,1.5) ">
<use xlink:href="#Layer1_0_FILL"/>
</g>
</svg>
