
<svg xmlns="http://www.w3.org/2000/svg" version="1.1" xmlns:xlink="http://www.w3.org/1999/xlink" preserveAspectRatio="none" x="0px" y="0px" width="100px" height="100px" viewBox="0 0 100 100">
<defs>
<g id="Layer1_0_MEMBER_0_FILL">
<path fill="#000000" stroke="none" d="
M 43.7 21.6
Q 42.2 21.75 40.5 22.9 38.65 24.3 37.65 24.85 32.85 27.55 31.45 32.45 31.25 33.2 30.75 34.1 30.5 34.6 29.9 35.55 28.95 35.05 28.5 34.95 27.65 34.75 27.05 35.55
L 27.8 36.3
Q 29.15 39.8 27.1 43.35 27.45 46.25 25.65 49
L 25.7 49.05
Q 25.5 49.85 25.95 50.55 26.15 50.9 26.9 51.65 26.25 51.85 25.65 52.55 24.95 53.65 25.65 54.7 26.6 55.4 26.6 57.15 26.6 59.05 27.05 59.7 29 64.75 29.55 65.75 30 66.6 30.05 67 30.15 67.55 29.65 68.25 29.05 69.05 29.35 69.85 29.65 70.7 30.45 70.7 32.15 70.65 33.3 71.8 33.55 72 35.1 74.15 35.85 75.1 36.15 75.4 36.85 76 37.7 75.95 41.25 77 42.5 77.2 45.2 77.6 47.45 76.75 48 76.5 49.15 77.05 49.85 77.4 51.8 77.6 53.5 77.8 54.4 78.45 54.85 78.75 55.65 78.6 56.45 78.4 56.9 77.8 57.75 76.75 58.95 76.6 65.85 74.15 68.85 68.1 68.65 68.15 67.7 67.95 67 67.75 66.95 68.2 66.8 69.55 65.4 70.3 63.5 71.4 63.25 71.65
L 62.5 71.65 62.9 70.35 64.85 65.8 65.3 65.3
Q 66.5 66.05 67.75 65.2
L 68.1 64.95 68.7 64.3 68.85 63.9 68.85 63.2
Q 68.55 62.65 68.3 62.55
L 68.85 61.75 68.8 59.6
Q 68.8 58.25 69.6 57.55
L 69.55 57.5
Q 69.7 57.6 69.95 57.9 70.15 58.1 70.35 58.1 71.1 58.15 71.4 57 71.7 55.8 72.55 55.75 72.95 55.75 72.85 55.2 72.65 54.55 72.55 54.3 72.35 53.5 72.8 51.6 73.25 49.75 73.8 49 72.95 48.25 71.85 46.05 70.8 44 69.7 43.25
L 69.25 43.1
Q 68.8 43.1 68.35 43.25 67.9 43.35 67.35 42.9 66.7 42.35 66.4 42.3 64.05 43.5 63.35 41.1 63.85 40.6 63.65 39.95 63.25 39.15 63.15 38.75 63.5 38.8 64.1 38.7
L 64.55 38.5
Q 65.4 37.9 65.4 37.45 65.25 35.55 66.15 35.4 66.65 35.3 68.4 35.85 69.15 36.1 70.4 37.2 71.55 38.2 72.4 38.4 73.35 38.4 73.6 38.35 74.2 38.2 74.55 37.7 74.3 37.4 74.25 36.75 74.15 36 73.95 35.75
L 74.25 35.8 74.65 35.5
Q 74.5 34.2 73.45 33.15 72.15 31.95 70.15 30.4 67.85 28.7 66.7 27.8 66.15 27.4 63.85 26.6 62.05 25.95 61.3 24.9 61.1 24.6 60.65 24.75 59.45 25.4 58.65 24.85 58.15 24.5 57.4 23.25 56.8 22.4 56.7 22.25 56.2 21.8 55.55 21.85 51.75 22.3 46.85 21.45 46.25 21.35 43.7 21.6
M 67.9 31.5
Q 69.05 31.95 70.35 32.95 71.1 33.55 72.55 34.85 70.4 33.7 69.7 32.9 69.05 32.1 67.9 31.5
M 32.95 44.05
L 34.7 42.65
Q 35.1 43.55 34.85 43.95 34.2 44.05 32.95 44.05 Z"/>
</g>
</defs>

<g transform="matrix( 1.644378662109375, 0, 0, 1.33709716796875, -32.15,-16.85) ">
<use xlink:href="#Layer1_0_MEMBER_0_FILL"/>
</g>
</svg>
