
<svg xmlns="http://www.w3.org/2000/svg" version="1.1" xmlns:xlink="http://www.w3.org/1999/xlink" preserveAspectRatio="none" x="0px" y="0px" width="100px" height="100px" viewBox="0 0 100 100">
<defs>
<g id="Layer1_0_MEMBER_0_MEMBER_0_FILL">
<path fill="#000000" stroke="none" d="
M 64.85 22.15
L 62.85 22.5
Q 61.4 22.95 60.65 23.05
L 60.6 23.05 60.4 23.1
Q 59.7 23.35 59.3 23.4
L 58 23.75 57.9 23.8
Q 57.3 23.9 57.1 23.85 57.05 23.3 57.65 23
L 58 22.85
Q 58.2 22.8 58.7 22.3 58.95 22.15 58.65 22.05 58.3 21.95 57.7 22.15
L 57.6 22.2
Q 57.1 22.3 56.1 22.7
L 56 22.75
Q 54.45 23.25 54.2 23.4 54 23.4 53.95 23.5 52.85 23.8 51.95 24.3
L 50.95 24.65
Q 50.35 24.95 50.3 25 50.2 25.1 49.65 25.3 47.9 25.95 47.05 26.35 45.85 26.75 45.3 27.05
L 44.5 27.3 43.7 27.7
Q 42.7 28 42.25 28.3 42.1 28.3 41.8 28.5 40.7 28.95 40.15 29.15 39.35 29.5 39.2 29.65
L 38.7 29.85
Q 37.85 30.25 37.4 30.4 36.8 30.75 36.45 30.85 36.35 30.85 36.05 31
L 34.3 31.8
Q 34.05 31.95 34 32.05 33.75 32.05 33.55 32.25
L 33.35 32.35
Q 32.7 33 32.3 33.25 31.95 33.45 31.75 33.55 31.55 33.55 31.45 33.7
L 31.25 33.8 31.2 33.85 30.8 34
Q 29.75 34.3 29.75 35.05
L 29.65 35.25
Q 29.55 35.35 29.6 35.4 29.25 35.65 29.45 35.9 29.55 36.05 30 35.95
L 30.9 35.9 31 36 31 37.05
Q 30.65 37.3 30.6 37.35
L 29.75 37.85
Q 29.45 38 29.25 38.25 28.9 38.6 29.45 38.6
L 29.9 38.65
Q 30.25 38.85 30.7 38.85 30.95 39 31.25 39 31.4 39.05 31.45 39.3
L 31.65 39.5
Q 31.95 39.65 32.05 40.1
L 32.1 40.35 32.05 40.75 31.65 40.95
Q 31.15 41.15 30.95 41.35 30.7 41.45 29.55 42.05
L 29.5 42.1
Q 29.2 42.2 29.2 42.3 29.05 42.35 28.4 42.7 28.05 42.95 27.3 43.4
L 26.85 43.8
Q 26.6 43.85 26.45 44.1
L 26.3 44.2
Q 26 44.45 25.85 44.55 25.5 44.75 25 45.35 24.65 45.7 24.65 45.95
L 24.25 46.95 24.25 48.25
Q 24.15 48.75 24.5 48.9 24.6 48.95 24.6 49.15 24.6 49.3 24.7 49.3
L 24.85 49.35 24.95 49.5
Q 24.95 49.7 24.55 50 23.9 50.45 22.75 51.5
L 22.7 51.6
Q 22.5 51.75 21.65 52.6 20.9 53.35 20.7 53.8 20.55 53.9 20.55 54.05
L 20.35 54.5
Q 20.2 54.65 20.25 54.95 20.15 55.05 20.25 55.25 19.95 55.95 19.95 56.35
L 19.9 56.4
Q 20.1 57.25 20.55 57.6
L 20.7 57.75
Q 20.75 57.9 21.1 58.25 21.3 58.45 21.55 58.35 21.7 58.25 22.05 58.25
L 22.5 58.45 22.55 58.45
Q 22.75 58.6 22.75 58.9 22.75 59.2 22.95 59.3
L 23.25 59.65
Q 23.35 59.95 23.6 60.1 23.85 60.3 24.25 60.2
L 24.7 60.2 24.7 60.45 24.65 60.45 24.7 60.5 24.7 60.8
Q 24.7 61.3 24.8 61.35
L 25.05 61.65
Q 25.05 61.8 25.15 61.85
L 25.15 61.95
Q 24.85 62.25 24.55 62.3
L 24.3 62.45 23.95 62.6 23.85 62.7
Q 23.1 63.25 22.65 63.4
L 22.05 63.9
Q 21.2 64.45 21.1 64.5
L 20.95 64.65
Q 20.9 64.75 21 64.8 21.05 64.9 21.15 64.85 21.95 64.75 22.15 64.8
L 22.3 64.8
Q 22.5 64.65 23.1 64.5 23.6 64.35 23.85 64.15
L 24.2 64.1 24.75 64.1
Q 24.95 64.1 24.95 64.2
L 24.45 64.4
Q 24 64.55 24.05 64.7 24.15 64.95 24.6 64.85 25 64.85 25.65 65.05 25.8 65.05 25.7 65.25
L 25.65 65.4 25.05 65.8
Q 24.7 66.25 24.7 66.35
L 24.55 66.5 24.4 66.55
Q 24.2 66.65 24.2 66.8 24.25 66.85 24.2 66.85 23.45 67.15 23.45 67.5 24.35 67.35 24.75 66.85
L 24.95 66.8 25 66.7 25.5 66.5 26.25 66.35
Q 26.25 66.55 26 66.85
L 25.8 67
Q 25.75 67 25.45 67.15
L 24.95 67.5
Q 24.75 67.65 24.6 67.75 24.25 68 23.6 68.6 23.45 68.6 23.45 68.75 23.5 69 23.15 69.55 23.1 69.6 23.15 69.75 23.5 69.7 23.95 69.35 24.55 69.1 25.55 68.4
L 26.05 68.5
Q 26.05 68.65 25.9 68.8 26 68.75 26.45 68.6 26.8 68.45 27.05 68.45 27.15 68.45 27.25 68.25 27.3 68.2 27.75 68.1 28.05 68 28.25 68.25 28.35 68.35 28.75 68.5 29.1 68.6 29.2 68.8
L 29.4 68.75 29.7 68.75
Q 29.95 68.9 30.6 68.8 30.8 69.05 31.15 69.55 31.65 69.4 32.1 69.55
L 32.1 69.75
Q 31.9 70.3 32.1 70.5
L 32.2 70.75
Q 32.1 71 32.1 71.5 31.85 72.5 32.3 73.45 32.5 73.7 32.65 74.3 32.75 74.5 33.1 74.35 33.25 74.25 33.5 74.35 33.65 74.45 33.65 74.65
L 33.45 75.1
Q 33.4 75.2 33.5 75.3 33.65 75.35 33.75 75.25 33.95 75 34.1 75.25
L 34.1 75.4
Q 34.1 75.5 34.2 75.55 34.2 75.65 34.3 75.55
L 34.45 75.45 34.65 75.4 34.75 75.5
Q 34.75 75.6 34.85 75.6 34.937109375 75.730859375 35.1 75.75 35.25 75.85 35.6 75.85 36.1 75.8 36.45 76.05 36.65 76.4 36.8 76.35 37.15 76.35 37.35 76.5 37.6 76.65 37.85 76.6
L 38.05 76.5
Q 38.05 76.4 37.9 76.4
L 37.8 76.25 37.95 76.2
Q 38.55 76.2 38.65 76.25 38.8 76.35 39.2 76.35 39.6 76.25 39.65 76.05 40.05 76.05 40.25 76.15 40.7 76.4 41.5 76.2
L 41.55 76.25 41.55 76.35
Q 41.75 76.55 42.05 76.55 42.25 76.55 42.25 76.75 42.3 76.95 42.35 76.95 42.4 77 42.6 76.95 43.8 76.85 44.1 77.45
L 44.2 77.5
Q 44.6 77.6 45.05 78.1
L 45.15 78
Q 45.3 77.8 45.35 77.75 45.45 77.75 45.7 77.9 46.05 78.1 46.2 78 46.5 77.8 46.75 78 46.95 78.1 46.95 77.95 47 77.9 47.5 77.75 47.65 77.7 47.75 77.95
L 47.8 77.9
Q 48.35 77.7 48.25 77.4 48.2 77.25 48.45 77.15 48.65 77.1 48.85 77.15 49.05 77.25 49.3 77.1 49.6 76.85 49.6 76.75
L 49.7 76.65
Q 49.95 76.65 50 76.55
L 50.05 76.55
Q 50.15 76.6 50.25 76.7
L 50.35 76.7
Q 50.6 76.85 50.6 76.65 50.7 76.35 50.75 76.3 50.85 76.2 50.85 75.8 50.85 75.6 51.1 75.6
L 51.3 75.65 51.7 76.1
Q 51.75 76.3 52.1 76.5 52.3 76.7 52.75 76.6 53.1 76.75 53.45 76.5
L 53.55 76.65
Q 53.6 76.9 54 76.8
L 54.6 76.65 54.7 76.55
Q 54.8 76.45 54.8 76.3 54.8 76.05 54.8 76
L 55.45 76 56.25 76.35
Q 56.7 76.5 57.05 76.3
L 57.3 76.2
Q 57.7 76.15 57.6 75.7 57.8 75.85 58.25 75.75
L 58.35 75.7
Q 58.45 75.65 58.45 75.55
L 58.9 75.4
Q 59.2 75.45 59.85 75.1 60.05 75 60 74.95 60 74.9 59.7 74.9
L 59.45 75
Q 58.95 75.15 58.55 75.1
L 58.65 74.75 58.65 74.7
Q 58.85 74.8 58.85 74.6 58.9 74.45 59 74.5 59.3 74.7 59.65 74.65
L 60.05 74.45 60.3 74.4
Q 60.45 74.3 60.65 74.35 61.35 74.65 62.2 74.15
L 62.25 74.1 62.55 73.95
Q 62.75 73.8 62.9 73.95 63.25 74.2 63.9 74 64.15 74.15 64.45 74.05 64.95 73.95 65.25 74
L 65.25 74.05
Q 65.3 74.15 65.65 74.15
L 66.1 74.1
Q 66.3 74.1 66.35 74 66.65 74 66.75 73.7 67 73.1 67.6 72.9 67.8 72.85 67.8 72.6 67.65 72.4 67.75 72.35 67.9 72.35 68.05 72.15 68.2 71.95 68.35 71.9 68.5 71.9 68.8 71.85 68.95 71.95 69.05 71.9 69.1 71.9 69.25 71.8 69.35 71.75 69.35 71.6 69.35 71.55 69.15 71.55
L 69 71.55
Q 68.9 71.5 69 71.3 69.15 71.3 69.15 71.25 69.25 71.2 69.95 70.5 70.35 70.35 70.45 70.15 70.7 70.1 71.05 69.85 71.45 69.85 71.45 69.55 71.55 69.35 71.55 69.25 71.55 69.05 71.35 68.9
L 71.15 68.75
Q 71.1 68.45 71 68.35 71 68.3 70.95 68.15 71.3 67.8 71.45 67.75 71.65 67.7 71.9 67.5
L 72.4 67.15 72.5 67.1
Q 72.75 67 72.75 66.9
L 73.2 66.85 73.35 66.95
Q 73.8 67.15 73.8 66.75 73.95 66.3 73.9 66.1
L 74 65.95
Q 74.15 65.95 74.3 65.7 74.4 65.7 74.45 65.85 74.5 65.95 74.65 65.9 74.95 65.8 75.4 65.55
L 75.5 65.4
Q 75.85 65.05 75.95 65
L 76.15 64.9
Q 76.2 64.75 76.55 64.25
L 76.6 64.2
Q 77.15 63.7 77.1 63.35 77.05 63.3 77.2 63.15 77.3 63.1 77.3 62.9
L 77.45 62.85 77.5 62.8 77.45 62.75
Q 77.75 62.3 77.85 62.25 77.95 62.05 78.2 62.05 78.5 61.85 78.4 61.7 78.3 61.5 78.3 61.45
L 78.4 61.4 79.05 61.3
Q 79.4 61.2 79.35 60.95 79.35 60.7 79.7 60.75 79.9 60.75 79.9 60.6 80 60.2 80.25 60.1
L 80.35 59.95
Q 80.3 59.85 80.5 59.75 80.75 59.7 80.8 59.65 80.8 59.6 80.6 59.45 80.35 59.3 80.5 59.15 80.95 58.5 80.2 58.05
L 80.1 57.55
Q 80.2 57 79.55 56.7 79.3 56.25 79.15 56.1 79.15 56 79 56 78.95 55.8 78.7 55.7 78.35 55.4 78.4 55.2
L 78.5 55.1
Q 79.1 54.6 78.85 54.05 78.45 53.05 77.85 52.75 77.75 52.65 77.8 52.55 78 52.3 78 52.2 78 52.15 77.75 51.95
L 77.15 51.2
Q 76.95 50.9 76.55 50.65 76.1 50.35 76 50.15 75.75 49.75 75.05 49.55
L 75 49.55 74.95 49.5
Q 74.6 49.3 74.2 49.3 73.95 49.2 73.5 49.2
L 73.1 48.65 72.2 47.75
Q 72.05 47.55 72.1 47.5 72.1 47.4 72.4 47.3 73.05 47 72.9 46.55 72.8 46.1 72.55 45.85 72.55 45.35 72.35 45.25
L 72.3 45.1
Q 72.45 44.85 72.15 44.55 71.7 43.75 71.1 43.45
L 70.8 43.2
Q 70.8 43.1 71.2 42.55
L 71.3 42.5
Q 71.6 42.45 71.85 42.1 72.25 41.7 72.45 41.75
L 72.7 41.6 73.15 41.25 74.1 40.75
Q 74.3 40.45 74.85 40 75.1 39.85 75.25 39.4 75.5 38.75 75.7 38.6 76.5 37.75 76 36.9 75.7 36.35 75.1 36.05
L 74.95 35.75 74.75 35.6 74.3 35.15 74.1 35.05 73.95 34.95 73.85 34.9
Q 73.55 34.75 73.7 34.55 73.8 34.5 73.7 34.4 73.65 34.2 73.85 33.95 74 33.7 73.8 33.5 73.65 33.3 73.75 33 73.95 32.9 73.85 32.8 73.8 32.75 73.8 32.25 73.85 32.1 74.15 31.8 74.3 31.8 74.65 31.55
L 74.95 31.4
Q 75.6 31.2 75.4 30.85
L 75.45 30.8
Q 75.75 30.45 75.95 29.65
L 76.3 29.05
Q 76.8 28.35 76.95 27.75 77 27.45 76.6 27.45
L 76.15 27.5
Q 75.1 27.6 74.55 27.6 74.1 27.6 73.9 27.75 73.5 27.75 73.4 27.8
L 73.15 27.85
Q 72.6 27.85 72.4 27.95
L 72.3 27.95 71.9 28
Q 71.6 28 71.45 28.1
L 70.95 28.15
Q 70.65 28.25 70.35 27.95 69.25 27.15 68.7 27.05 68.8 26.4 69.1 26.05 69.2 26.05 69.2 25.9
L 69.3 25.85 69.45 25.7
Q 69.75 25.45 69.6 25.2 69.45 24.85 69.6 24.45 69.7 24.1 69.4 23.5
L 69 23.05
Q 68.75 22.5 68.45 22.3 68.2 22.05 68.15 22.05
L 68 21.95
Q 66.75 21.95 66.35 22.1
L 64.85 22.15
M 64.35 53.25
L 64.15 53.45 64.1 53.4
Q 64 53.3 64.05 53.2
L 64.35 53.25 Z"/>
</g>

<g id="Layer1_0_MEMBER_0_MEMBER_1_FILL">
<path fill="#000000" stroke="none" d="
M 45.65 26.1
Q 45.75 26 45.65 25.55
L 45.6 25.35
Q 45.75 25 45.4 24.95 44.8 24.95 44.7 25 44.05 25.2 43.95 25.4 43.7 25.75 43.7 26.2 43.6 26.45 43.95 26.4
L 45 26.3
Q 45.55 26.25 45.65 26.1 Z"/>
</g>

<g id="Layer1_0_MEMBER_0_MEMBER_2_FILL">
<path fill="#000000" stroke="none" d="
M 75.7 65.8
L 75.55 66.1
Q 75.45 66.2 75.6 66.2
L 75.75 66.2
Q 75.95 66 75.7 65.8 Z"/>
</g>
</defs>

<g transform="matrix( 1.33251953125, 0, 0, 1.363311767578125, -17.05,-18.15) ">
<use xlink:href="#Layer1_0_MEMBER_0_MEMBER_0_FILL"/>
</g>

<g transform="matrix( 1.33251953125, 0, 0, 1.363311767578125, -17.05,-18.15) ">
<use xlink:href="#Layer1_0_MEMBER_0_MEMBER_1_FILL"/>
</g>

<g transform="matrix( 1.33251953125, 0, 0, 1.363311767578125, -17.05,-18.15) ">
<use xlink:href="#Layer1_0_MEMBER_0_MEMBER_2_FILL"/>
</g>
</svg>
