
<svg xmlns="http://www.w3.org/2000/svg" version="1.1" xmlns:xlink="http://www.w3.org/1999/xlink" preserveAspectRatio="none" x="0px" y="0px" width="100px" height="100px" viewBox="0 0 100 100">
<defs>
<g id="Layer1_0_MEMBER_0_FILL">
<path fill="#000000" stroke="none" d="
M 60.65 27.55
Q 59.95 28.1 59.4 28.1 58.8 28.1 58.1 27.5 56.35 26.05 54.7 27 53.7 27.55 53.2 26.95 51.25 24.6 48.5 25.15 45.35 26.4 43.8 26.9
L 42.7 27.45
Q 42.05 27.8 41.55 27.8 41.3 26.75 40.1 26.6 38.5 26.4 38.25 26.2
L 38.2 26.15
Q 35 26.2 34.05 26.6 32.05 27.35 31.85 30.15 31.85 30.55 31.35 30.75 29.75 31.7 29.3 33.5 29.05 34.5 29.1 36.95 28.2 37.3 29.1 37.8
L 29.1 38.6
Q 28.35 39.55 28.1 41.45 27.8 43.65 27.45 44.4 27.4 45.25 28 46.15 28.35 46.65 29.05 47.65 29.75 49 29.9 49.5 30.2 50.55 29.65 51.15 28.7 52.2 28.25 54.35 27.8 56.8 27.3 57.65 26.55 58.95 26.25 60.65 25.9 62.5 26.45 63.15 27.1 63.9 28.05 65.95 29.05 67.6 30.75 67.65 31.65 68.25 33.8 69.95 35.7 71.45 36.95 72.15 41.45 74.65 46.05 73.7 47.4 73.4 48.05 73.45 49.1 73.55 49.9 74.35 51.65 76 53.15 73.45 53.85 73.6 55.3 73.15 56.7 72.75 57.55 73.05 59.35 73.75 60.6 71.6 61.4 70.35 62.85 69.3 63.65 68.7 65.55 67.6
L 65.6 66.8
Q 68.1 67.05 68.6 66.7 69 66.35 69.45 64 69.5 62.05 69.65 61.1 69.9 59.4 71.4 58.55 73.5 57.35 73.8 56.3 74.05 55.25 72.9 52.95 71.75 50.65 72.75 49.5 73.8 48.25 73.45 46.75 73.35 46.35 72.35 44.25 71.6 43.15 71.25 42.65 70.65 41.65 70.85 41 71.3 39.6 70.5 38.6 69.4 37.55 68.9 36.95
L 68.85 37 67.25 36.95
Q 67.25 34.6 67.6 33.7 68 32.65 67.65 31.8 67.3 30.95 66.4 30.55 64.95 30 62.8 27.95 61.55 26.8 60.65 27.55
M 41.75 48.45
L 40.5 48.35
Q 40.2 47.6 41 47.25
L 41.75 48.45 Z"/>
</g>
</defs>

<g transform="matrix( 1.699462890625, 0, 0, 1.53253173828125, -34.9,-26.65) ">
<use xlink:href="#Layer1_0_MEMBER_0_FILL"/>
</g>
</svg>
