
<svg xmlns="http://www.w3.org/2000/svg" version="1.1" xmlns:xlink="http://www.w3.org/1999/xlink" preserveAspectRatio="none" x="0px" y="0px" width="100px" height="100px" viewBox="0 0 100 100">
<defs>
<g id="Layer1_0_MEMBER_0_MEMBER_0_FILL">
<path fill="#000000" stroke="none" d="
M 51.75 21.8
Q 51.75 22 52 22 52.25 22 52.2 21.8 52.2 21.55 52 21.55 51.75 21.55 51.75 21.8 Z"/>
</g>

<g id="Layer1_0_MEMBER_0_MEMBER_1_FILL">
<path fill="#000000" stroke="none" d="
M 62.35 21.9
L 62.2 21.85
Q 61.15 21.85 60.6 21.8 59.8 21.65 59.6 21.7
L 57.75 21.8
Q 56.9 21.8 56.5 21.95 56.05 21.9 55.85 22.05
L 55.8 22.05 55.25 22.15
Q 54.35 22.15 53.1 22.5 52.75 22.5 52.65 22.6
L 52.45 22.6 50.1 23.25
Q 49.25 23.45 49 23.6
L 48.65 23.7
Q 48.15 23.85 47.9 23.9 47 24.05 46.55 24.25
L 45.35 24.6
Q 44.3 25.05 43.75 25.2 43.2 25.3 42.95 25.5 42.3 25.65 41.95 25.8 41.4 26.1 41.3 26.1 41.15 26.15 39.9 26.7 39.75 26.85 39.75 26.9 39.95 27.1 39.65 27.35
L 39 27.75
Q 38.65 27.75 38.6 28 37.7 28.6 37.65 28.65 37.5 28.6 37.25 28.75
L 35.65 29.55 34.9 29.7
Q 33.75 29.95 32.8 30.35 31.6 30.75 30.8 31.65
L 30.55 31.9 30.5 32
Q 30.3 32 30.25 32.2 30.15 32.4 29.8 32.8 29.1 33.85 28.5 34.45
L 28.15 34.95 28 35.05 26.4 37.3
Q 25.55 38.45 25.35 38.95 25 39.3 24.55 40.2
L 24.5 40.4
Q 24.45 40.5 23.4 42.4
L 23.3 42.55
Q 21.65 45.9 21.05 48.15 20.9 48.85 20.6 50.2 20.4 51.2 20.4 51.65 20.15 52.95 20.2 53.3
L 20.2 53.45
Q 20 54.25 20.15 54.85
L 20.2 55.05 20.2 55.5
Q 20.15 56.15 20.35 57.4
L 20.35 57.5
Q 20.3 57.55 20.35 57.6 20.45 58.05 20.6 58.85 20.8 60.1 21.6 62.15 21.7 62.55 21.95 62.8 22.05 63.2 22.2 63.35 22.3 63.75 23 64.8 23.1 65.15 23.3 65.25 23.3 65.55 23.6 65.7 23.6 65.95 23.75 66 23.9 66.2 24.2 66.65 24.25 66.85 24.5 67 24.5 67.2 24.7 67.4 25 67.7 25.5 68.4 25.9 68.8 26.65 69.65 27.1 70.2 27.25 70.3
L 27.3 70.5
Q 28.15 71.35 28.4 71.5 29.3 72.4 29.6 72.6 30.05 73.05 31.05 73.75
L 32.2 74.6
Q 32.4 74.7 32.8 74.95 33.2 75.25 33.45 75.3 33.55 75.5 33.9 75.6 34.3 75.85 36.1 76.55
L 36.3 76.6 36.35 76.6
Q 36.55 76.8 36.65 76.75 37.05 77 37.65 77.15 37.95 77.3 38.2 77.3 38.75 77.6 39.6 77.7 40.95 78.1 42.05 78.25
L 42.25 78.3
Q 42.6 78.35 43.35 78.35 43.6 78.4 44.15 78.4
L 45.55 78.45
Q 45.75 78.5 46.1 78.4 46.3 78.6 46.45 78.4
L 46.5 78.45 46.55 78.4
Q 46.6 78.5 46.85 78.5 47.4 78.35 48.6 78.4 48.95 78.4 49 78.35 50.1 78.35 50.95 78.15 51.6 78.15 52.05 77.95 52.6 77.95 52.85 77.8 53.6 77.8 54.25 77.5 54.95 77.4 55.25 77.25
L 55.3 77.25
Q 55.5 77.25 55.6 77.15 55.8 77.15 55.85 77.05 56.2 77.05 56.4 76.85 56.8 76.85 56.85 76.75 57.55 76.6 58.8 76.1 59.2 76 59.35 75.85 59.65 75.85 59.8 75.65 60.2 75.55 60.2 75.5
L 60.7 75.3
Q 61 75.3 61.15 75.1
L 61.45 74.95
Q 62.9 74.4 64 73.7
L 64.4 73.5 64.55 73.4
Q 65.05 73.15 65.1 73.05
L 65.2 72.95
Q 65.7 72.75 65.85 72.45
L 67.1 71.1
Q 67.85 70.4 67.95 70.2 68.65 69.5 68.95 68.95 69.15 68.85 69.25 68.55 69.65 68.1 70.45 66.9 71.2 65.85 71.35 65.35 71.75 64.9 72.6 64.05 72.8 63.8 73.6 62.95 74.25 62.3 74.55 61.8 75.1 61.05 75.35 60.5 75.9 59.8 76 59.5 76.25 59.35 76.25 59.05 76.85 58.1 77.2 57.2
L 77.2 57.15
Q 77.5 56.75 77.8 55.75 77.9 55.7 77.9 55.4 78.1 55.2 78.1 54.85 78.35 54.55 78.45 53.85 78.55 53.75 78.55 53.6 78.65 53.5 78.65 53.3 78.75 53.2 78.75 53.05 78.8 52.9 79.1 51.75
L 79.2 51.4
Q 79.35 50.6 79.45 50.25 79.75 48.55 79.75 47.65 79.8 47.05 79.85 46.7
L 79.85 46.55
Q 79.9 45.8 79.75 45.4
L 79.75 45.15
Q 79.7 43.3 79.35 40.95 79.15 39.75 78.85 39.2 78.85 38.95 78.65 38.75 78.55 38.25 78.4 38.1
L 77.25 36.25 77.2 36.2
Q 77.15 35.95 76.85 35.55 76.75 35.35 76.65 35.3 76.5 34.9 76 34.2
L 76 34.1
Q 75.45 33.25 75.25 31.65 75.25 31.4 75 31.15
L 74.25 30.65 73.7 29.55 73.7 29.45 73.55 29.15 73.05 28.35 73 28.25
Q 72.95 28 72.45 27.15 72.15 26.7 72.05 26.45 72.05 26.35 71.8 25.95 70.95 24.4 70.05 23.8 70.05 24 70.25 24.3
L 70.95 26.15
Q 71.2 26.95 71.25 27 71.25 27.4 71.3 27.45 71.3 27.8 71.45 28.4
L 71.15 28.25 67.75 24.55
Q 67.4 24.2 67.1 24 66.35 23.15 65.5 22.6
L 65.4 22.6
Q 64.7 22 63.75 21.95
L 62.35 21.9
M 44.85 45.4
L 45.05 45.1
Q 45.15 45.15 45.15 45.35
L 44.85 45.4
M 21.6 52.15
Q 21.7 52.15 22.25 51.75 22.35 52.1 22 52.2 21.75 52.3 21.6 52.15
M 26.3 63.8
L 26.35 63.95
Q 26.3 64.05 26.2 63.95
L 26.3 63.8
M 46.1 67.95
L 46.15 67.8 46.2 67.95 46.1 67.95
M 46.8 65.45
L 46.85 65.3 46.95 65.4
Q 46.95 65.45 46.8 65.45 Z"/>
</g>
</defs>

<g transform="matrix( 1.358154296875, 0, 0, 1.3441619873046875, -17.8,-17.2) ">
<use xlink:href="#Layer1_0_MEMBER_0_MEMBER_0_FILL"/>
</g>

<g transform="matrix( 1.358154296875, 0, 0, 1.3441619873046875, -17.8,-17.2) ">
<use xlink:href="#Layer1_0_MEMBER_0_MEMBER_1_FILL"/>
</g>
</svg>
