
<svg xmlns="http://www.w3.org/2000/svg" version="1.1" xmlns:xlink="http://www.w3.org/1999/xlink" preserveAspectRatio="none" x="0px" y="0px" width="100px" height="100px" viewBox="0 0 100 100">
<defs>
<g id="Layer1_0_MEMBER_0_MEMBER_0_FILL">
<path fill="#000000" stroke="none" d="
M 79.7 59.95
Q 79.3 59.95 79.25 60.2 79.15 60.6 78.75 61.2 78.65 61.5 78.35 61.75 78.15 61.85 78.2 62.05 78.25 62.2 78.05 62.5
L 77.8 62.95
Q 77.7 63.4 77.9 63.6 78 63.65 78 63.8 77.9 64.45 77.25 65.1
L 77 65.4
Q 76.9 65.5 77 65.6
L 77.25 65.65 77.45 65.5
Q 77.5 65.2 77.85 65.3
L 77.9 65.35
Q 77.65 65.8 77.55 65.85 77.35 65.95 77.25 66.3
L 77.75 66.05
Q 78.05 65.85 78.05 65.65
L 78.05 65.6
Q 78.2 65.6 78.2 65.45 78.35 65.2 78.3 64.95 78.25 64.55 78.65 64.55 78.75 64.55 78.95 64.35 79.1 64.2 79.05 64.15 79.05 63.65 78.75 63.5
L 78.65 63.35
Q 78.65 63.2 78.4 63.1 78.15 63.05 78.25 62.85
L 78.45 62.2 78.8 61.55 79.4 60.95
Q 79.55 60.75 79.55 60.55 79.55 60.25 79.7 59.95 Z"/>
</g>

<g id="Layer1_0_MEMBER_0_MEMBER_1_FILL">
<path fill="#000000" stroke="none" d="
M 44.95 74.8
Q 45.05 74.65 44.85 74.65
L 44.8 74.65
Q 44.5 74.95 44.6 75.3
L 44.7 75.4
Q 44.8 75.5 44.8 75.35 44.95 75 44.95 74.8 Z"/>
</g>

<g id="Layer1_0_MEMBER_0_MEMBER_2_FILL">
<path fill="#000000" stroke="none" d="
M 44.8 74.05
Q 44.95 73.95 44.9 73.8 44.6 73.9 44.4 74.15 44.15 74.4 44.2 74.65
L 44.55 74.15
Q 44.7 74.1 44.8 74.05 Z"/>
</g>

<g id="Layer1_0_MEMBER_0_MEMBER_3_FILL">
<path fill="#000000" stroke="none" d="
M 72.9 27.05
Q 72.9 27.25 73.15 27.25 73.3 27.35 73.3 27.15 73.3 26.95 73 26.95 72.8 26.95 72.9 27.05 Z"/>
</g>

<g id="Layer1_0_MEMBER_0_MEMBER_4_FILL">
<path fill="#000000" stroke="none" d="
M 76.85 66.75
Q 76.65 66.75 76.65 67 76.55 67.1 76.7 67.1
L 76.85 67.05
Q 76.9 66.95 76.85 66.75 Z"/>
</g>

<g id="Layer1_0_MEMBER_0_MEMBER_5_FILL">
<path fill="#000000" stroke="none" d="
M 62.45 24.3
L 62.4 24.35 61.5 25 61.2 25
Q 60.8 25 60.75 24.75
L 60.6 24.7
Q 60.35 24.6 60.2 24.65 60.05 24.7 60 24.55
L 59.9 24.35 59.7 24.1 59.25 24.35
Q 59 24.55 58.8 24.3 58.6 24 58.45 24.1 58.4 24.05 58.35 24.05 58.05 23.85 57.85 24.05 57.7 24.2 57.65 24.15 57.1 24.3 56.85 24.25 56.5 24.25 56.4 24.45
L 56.25 24.55
Q 56.05 24.45 55.8 24.7 55.45 25 54.65 25.5 54.4 25.6 54.35 25.75 54.3 25.95 54 26.25 54 26.4 53.8 26.4 53.6 26.35 53.6 26.65 53.35 26.5 53.3 26.55 53.05 26.8 53.05 26.9 53.05 27.1 52.9 27.45 52.9 27.6 52.7 27.5
L 52.65 27.4
Q 52.65 27.3 52.55 27.35 52.55 27.7 52.15 27.9 51.85 28 51.55 28.4 51.35 28.65 50.95 28.9
L 50.95 28.85 50.9 28.85 50.4 29.25
Q 50.2 29.4 50.15 29.4 50.1 29.4 49.95 29.2
L 49.95 29.15
Q 49.95 29 49.85 28.95 49.65 28.6 49.55 28.4
L 49.5 28.3
Q 49.15 27.8 48.6 27.4
L 48.45 27.3 48.4 27.25
Q 47.7 26.7 47.4 26.45 47.05 26.1 46.5 25.95 46.25 25.8 46.2 25.7 46.05 25.5 45.65 25.5 45.5 25.35 45.35 25.35 44.9 25.4 44.65 25.45 44.3 25.55 44.1 25.85
L 43.25 26.55
Q 42.85 26.95 42.55 27.05
L 42.45 27.15
Q 42.3 27.15 42.2 27.35
L 39.1 30.2
Q 38.3 31.25 37.8 31.7
L 37.75 31.75 35.75 34.65 35.7 34.8
Q 35 36 34.8 36.2 34.6 36.4 34.6 36.6
L 34 37.45 34 37.5
Q 33.95 37.5 33.85 37.65
L 33.7 37.85
Q 33.5 38.15 33.05 38.75 32.6 39.2 32.35 39.65
L 32.1 39.85 31.2 41.2
Q 30.75 41.7 30.05 42.8 30 42.85 29.75 43.2 29.5 43.6 28.95 44.4 28.5 44.95 28.35 45.25
L 28.3 45.35 28.25 45.35 28.25 45.4
Q 28 45.65 27.4 46.6 26.9 47.35 26.85 47.5
L 26.75 47.6 26.7 47.7 26.7 47.75 26.65 47.8 26.6 47.8 26.65 47.85
Q 26.55 47.85 26.55 47.95
L 25.2 50.1 25.15 50.2 25.05 50.25 24.95 50.35 24.9 50.5
Q 24.7 50.6 24.7 50.7 24.6 50.8 24.3 51.4 24.1 51.6 24.1 51.75
L 23.7 52.3
Q 23.45 52.55 23.2 53.05
L 23.1 53.25 23.05 53.4 22.9 53.55
Q 22.7 53.75 22.5 54.2
L 22.35 54.4 22.2 54.5 21.9 55.1
Q 21.85 55.2 21.45 55.95
L 20.9 57.1 20.85 57.25 20.7 57.55
Q 20.6 57.9 20.4 58.5
L 20.05 59.8
Q 19.9 60.05 19.9 60.6 19.8 60.9 19.8 61.5
L 19.75 61.65 19.3 63.75 19.25 63.8 19.25 64.05
Q 19.2 64.15 19.25 64.2 19.15 64.45 19.15 65 19.15 65.25 19.45 65.2 19.7 65.2 19.75 65.45 19.85 65.65 19.95 65.65
L 20.2 66
Q 20.3 66.25 20.7 66.45
L 20.8 66.5 20.95 66.65
Q 21.05 66.85 21.2 66.9
L 21.8 67.4
Q 22.35 67.8 22.4 67.9 22.5 68.05 22.75 68.05 22.95 68.05 23.1 67.9
L 23.55 67.55
Q 23.7 67.3 24 67.45
L 24.55 67.65
Q 24.6 67.75 24.75 67.75
L 25 67.85 25.05 67.9 25.2 68 25.5 68.15 25.85 68.15 26.1 68.2
Q 26.2 68.35 26.55 68.3
L 26.65 68.35
Q 27.65 68.55 28.15 68.55
L 28.2 68.5 28.25 68.55 28.25 68.5 28.35 68.5 28.65 68.65 28.9 68.9 28.95 69 29.15 69.2
Q 29.3 69.75 29.85 69.9
L 30.05 70
Q 30.25 70.25 30.6 70.05
L 30.95 69.9
Q 31.5 69.8 31.6 69.9
L 31.7 70.15
Q 31.9 70.95 32.15 71.2 32.5 71.65 33.05 72.15
L 33.3 72.4
Q 33.65 72.75 33.8 72.75
L 34.1 73
Q 34.1 73.3 34.25 73
L 34.25 72.75
Q 34.75 73 35.05 72.7 35.4 72.6 35.45 72.85
L 35.65 73.25 35.8 73.25
Q 35.9 73.25 35.9 73.4 35.9 73.45 36 73.55
L 36.05 73.6 36.1 73.75
Q 36.15 74 36.4 74.2 36.5 74.3 36.75 74.45
L 36.95 74.45
Q 37.45 74.2 37.6 74.8 37.6 75.1 37.75 75.1 37.9 75.1 37.9 74.8
L 38 74.45
Q 38 74.15 38.2 73.75 38.5205078125 73.566796875 38.6 73.35 38.555078125 73.52578125 38.6 73.75 38.6 73.9 38.65 74.15 38.7 74.15 38.85 74.05 38.95 74 39 74.1 39.05 74.2 39.25 74.2
L 39.55 74.3
Q 39.65 74.6 39.55 74.75 39.4 75 39.7 75.1 39.75 75.15 40 75.15 40.2 75.2 40.25 75.15
L 40.25 75.1
Q 40.35 74.8 40.3 74.7
L 40.3 74.05
Q 40.45 74 40.7 73.75 40.7 73.95 40.8 74
L 40.9 74.15
Q 41.05 74.3 41.2 74.15
L 41.25 74.05 41.3 74.05 41.25 74 41.25 73.6
Q 41.55 73.6 41.65 73.5 41.8 73.6 41.95 73.5 42.1 73.35 42.2 73.55
L 42.45 74.35 42.4 74.55
Q 42.35 74.85 42.6 74.8
L 42.9 74.65
Q 43 74.45 43.15 74.55 43.45 74.65 43.55 74.3 43.6 74.1 43.85 74.2 44 74.25 44 74 44 73.55 44.1 73.35 44.3 72.8 44.7 72.75
L 44.75 72.75 45.3 73
Q 45.15 73.2 45.35 73.55 45.45 73.8 45.35 73.95 45.1 74.25 45.4 74.55
L 45.55 74.7
Q 45.6 74.7 45.65 74.55
L 45.75 74.45
Q 46 74.45 46.05 74.6 46.05 74.8 46.15 74.6
L 46.3 74.55
Q 46.4 74.75 46.55 74.5
L 46.65 74.2
Q 46.7 73.95 46.7 73.9 46.65 73.85 46.5 73.75 46.25 73.65 46.4 73.45 46.55 73.4 46.55 73.2 46.85 72.85 47.25 73.15
L 47.2 73.45
Q 47.05 73.7 46.95 74.25 46.9 74.6 47.2 74.45 47.35 74.4 47.45 74.45
L 47.45 75.25 47.4 75.45 47.35 76.35
Q 47.25 76.6 47.35 77.05 47.35 77.2 47.5 77.2 47.6 77.25 47.7 77.1
L 47.85 76.9
Q 47.95 76.55 48.3 76.3
L 48.65 76.2
Q 49 76.1 49.55 75.7
L 49.7 75.7
Q 49.8 75.75 49.9 75.8 50.05 75.85 50.15 75.75
L 50.2 75.65
Q 50.3 75.65 50.3 75.55 50.4 75.3 50.75 75.15 51.1 75.05 51.15 75.1 51.25 75.2 51.55 75.2 51.8 75.2 51.85 75.35 52.1 75.6 52.4 75.6
L 52.7 75.75 52.8 75.85
Q 53.45 76.1 53.55 76.1
L 54.1 76.15
Q 54.35 76.3 54.85 76.2
L 54.9 76.3 55 76.3
Q 55.2 76.5 55.5 76.45 55.6 76.4 55.75 76.5 56.45 76.8 56.75 77.05
L 56.95 77.15
Q 57.15 77.25 57.2 77.1 57.35 76.8 57.65 76.8
L 57.9 76.7
Q 58.1 76.55 58.75 76.3 59.35 76.3 59.45 76.45 59.6 76.5 59.7 76.4
L 60.05 76.2
Q 60.65 75.7 61.25 76.15 61.45 76.3 61.6 76.1 61.7 75.8 61.95 75.8
L 62.15 75.75
Q 62.35 75.55 62.85 75.55 63.1 75.5 63.6 75.45 63.8 75.4 64.2 75.25 64.55 75.15 64.75 74.95 65 74.8 65.15 74.9 65.3 75 65.45 74.85 65.55 74.75 65.9 74.75
L 66.25 74.85
Q 66.1 74.5 66.35 74.4
L 66.75 74.2 67.6 74.25 67.65 74.15 67.6 74.05 67.3 74.1
Q 67.05 74.1 67.05 73.9 67.1 73.7 67.35 73.65 67.6 73.6 67.7 73.7 67.95 73.95 68 73.95 68.2 74.05 68.2 73.8 68.2 73.5 68.4 73.45 68.9 73.25 69.05 73.25 69.35 73.25 69.55 72.8 69.9 72.8 70.1 72.45 70.15 72.3 70.45 72.3
L 70.7 72.25
Q 71.05 72.15 70.85 71.9 70.55 71.5 70.75 71.15
L 70.8 71.1
Q 70.9 70.9 70.95 70.9 71 70.95 71.1 71.1
L 71.1 71.2
Q 71.2 71.55 71.45 71.6
L 71.55 71.75
Q 71.7 71.9 71.8 71.7
L 71.9 71.5
Q 72 71.25 72.2 71.35 72.4 71.55 72.5 71.2
L 72.55 70.75
Q 72.4 70.35 72.65 69.85 72.75 69.65 72.5 69.5 72.3 69.45 72.3 69.4 72.25 69.4 72.3 69.15 72.45 68.9 72.7 68.35 72.85 68.2 72.75 67.95
L 72.7 67.7
Q 72.7 67.4 72.85 67.4 73.15 67.3 73.2 67.55
L 73.4 67.65
Q 73.5 67.65 73.6 67.95 73.65 68.15 73.5 68.5 73.55 68.75 73.4 69 73.2 69.5 73.55 69.75 73.8 70 73.95 69.65
L 73.95 68.95
Q 74 68.95 74.1 69 74.3 68.9 74.35 68.65 74.45 68.4 74.3 68.25
L 74.2 67.95
Q 74.15 67.65 73.9 67.5 73.55 67.35 73.75 67.05
L 73.9 66.75
Q 73.9 66.6 74 66.6 74.05 66.6 74.4 66.55 74.65 66.5 74.8 66.7 74.95 66.6 74.85 66.25 74.8 66.05 75 65.85 75.15 65.8 75.3 65.85 75.55 66.1 75.4 66.2 75.3 66.35 75.2 67.2 75 67.85 75.45 68.2 75.6 68 75.65 67.85 75.7 67.7 75.65 67.5 75.6 67.4 75.7 67.2 75.8 66.85 75.75 66.75 75.55 66.3 75.65 65.7 75.65 65.5 75.55 65.45 75.25 65.25 75.55 64.95 75.85 64.75 76.05 64.75 76.35 64.7 76.35 64.45 76.35 64 76.65 63.85 76.9 63.65 77 63.4 77.1 63.1 77.15 63.05 77.35 62.85 77.05 62.55
L 76.9 63.05
Q 76.75 63.25 76.55 63.05
L 76.4 62.75
Q 76.3 62.85 76.3 63.15 76.4 63.6 76.15 63.7 76.05 63.7 76.05 63.85 76.05 64.15 75.8 64.3
L 75.65 64.5
Q 75.55 64.65 75.5 64.65
L 75.4 64.5
Q 75.25 64.25 75.1 64.45 75 64.7 74.85 64.4 74.75 64.3 74.9 64.2 75.05 64.05 75.05 63.8 75.15 63.65 74.95 63.65
L 74.8 63.65
Q 74.55 63.55 74.55 63.3
L 74.7 62.95
Q 74.85 63.35 75.1 63.2 75.3 63.05 75.2 62.75
L 75.15 62.65
Q 75.45 62.65 75.85 62.45
L 76.05 62.2
Q 76.5 62.1 76.65 62.2
L 76.55 61.8 76.55 61.6
Q 76.55 61.5 76.7 61.45
L 76.85 61.3 76.95 61.35 76.95 61.8
Q 76.95 62 77.1 61.9
L 77.5 61.9
Q 77.5 61.35 77.45 61.25
L 77.55 60.95 77.65 61
Q 77.7 61 77.8 61.15
L 78 60.95 78.2 60.65 78.4 60.7
Q 78.6 60.8 78.6 60.6 78.7 60.2 78.65 59.95 78.45 60.05 78.3 59.9
L 78.3 59.65
Q 78.5 59.55 78.4 59.2 78.3 58.9 78.6 58.9 78.75 58.9 78.85 58.65
L 78.9 58.65
Q 79 58.65 79.15 58.75
L 79.2 58.2
Q 78.95 57.7 79.05 57.45 78.95 57.15 79.05 57.05
L 79.2 56.9
Q 79.45 57 79.65 56.8 79.9 56.6 79.95 56.6 80.1 56.6 80.1 56.45
L 80.05 56.2
Q 79.75 56.3 79.7 56.45 79.55 56.55 79.5 56.6 79.25 56.3 79.45 56.05
L 79.65 55.7 79.6 55.55
Q 79.5 55.45 79.5 55.6 79.4 55.75 79.05 55.65
L 78.75 55.45 78.65 55.35
Q 78.65 55.05 78.75 54.95 78.85 54.9 78.95 54.4 79 54.2 78.9 53.8 78.8 53.55 79.05 53.45 79.25 53.3 79.25 53.05
L 79.35 52.65
Q 79.4 52.6 79.25 52.35 79 52.1 78.95 51.85 78.85 51.5 79.05 51.45
L 79.15 51.35
Q 79.25 51.05 79.2 50.9
L 79.25 50.6 79.95 49.75 80.05 49.2
Q 80.05 48.9 79.8 48.95
L 79.7 48.9 79.7 48.6
Q 79.8 48.5 79.8 48.25
L 79.85 48.1
Q 80.1 47.85 80.1 47.35
L 80.1 47.05
Q 80.25 46.8 79.95 46.8 79.75 46.8 79.75 46.75
L 79.8 46.55 79.9 46.45
Q 79.8 46.35 79.85 46.15 79.85 45.9 79.8 45.8 79.65 45.4 80 45.1
L 80.15 45
Q 79.9 44.8 80 44.65
L 80 43.5
Q 80.1 43.4 80.1 43.1 80.55 42.6 80.75 41.45 80.9 41.35 80.75 41.2 80.65 41.1 80.5 41.2 80.05 41.55 79.35 41.7
L 79.1 41.8 78.75 41.9 78.65 41.95 78.5 42
Q 77.45 42.45 76.75 42.95
L 76.6 43
Q 76.5 43.05 76.45 42.95 76.4 42.65 76.4 42.5 76.4 42.25 76.5 42.1 76.65 41.95 76.55 41.7
L 76.55 41.6 76.5 41.5 76.5 41.4
Q 76.5 41.35 76.65 40.4 76.75 40 76.7 39.75
L 76.45 38.45
Q 76.45 38.15 76.35 38 76.5 37.45 76.55 37.2 76.65 36.45 76.5 36.2
L 76.2 34.9
Q 76.2 34.75 76.05 34.65 75.9 34.5 75.9 34.25 75.75 33.45 75.8 33 75.9 32.65 75.6 32.5
L 75.55 32.4
Q 75.25 31.95 74.8 31.65 74.75 31.5 74.55 31.5 74.2 31.35 74.1 31.1 73.95 30.8 73.45 30.7
L 72.9 30.5
Q 72.85 30.35 72.65 30.25 72.4 30.2 72.35 30.15
L 71.4 29.85
Q 71.05 29.75 70.9 29.85 70.35 30 69.9 29.95
L 69.5 30
Q 69.05 30 68.9 30.1
L 68.6 30.25 68.5 30.25 67.9 30.55
Q 67.8 30.55 67.75 30.65 67.6 30.65 67.5 30.8 67.25 30.9 67.25 30.95 67 31 66.7 31.3 66.55 31.45 66.7 31.65
L 66.65 31.8 66.55 31.8
Q 66.25 31.9 66.15 32.05
L 65.95 32.15
Q 65.75 32.25 65.7 32.05
L 65.6 31.95
Q 65.45 31.05 65.25 30.65 65.25 30.2 65.1 30 65.1 29.8 65 29.7
L 64.95 29.6
Q 64.8 29.5 64.65 28.95 64.6 28.55 64.35 28.15
L 64 27.5
Q 63.7 27.2 63.85 26.8
L 63.9 26.55
Q 63.95 26.5 64.1 26.1 64.2 26 64.1 25.95
L 64.2 25.65 64.25 25.55
Q 64.25 25.3 64.2 25.25
L 64.2 24.4
Q 64.45 24.4 64.3 24.15
L 64.3 23.85 64.35 23.8 64.4 23.5 64.5 23.4
Q 64.75 23.2 64.75 23.1 64.9 23 64.8 22.9 64.8 22.85 64.6 22.85
L 64.25 23.1 64.1 23.15 63.8 23.4 63.5 23.55
Q 63.3 23.6 62.85 24.05
L 62.75 24.1 62.55 24.25 62.45 24.3
M 51.2 64.65
L 51.05 64.8 51 64.6 51.2 64.65 Z"/>
</g>

<g id="Layer1_0_MEMBER_0_MEMBER_6_FILL">
<path fill="#000000" stroke="none" d="
M 79.8 59.8
L 79.7 59.9 79.7 59.95 79.8 59.95 79.85 59.85 79.8 59.8 Z"/>
</g>
</defs>

<g transform="matrix( 1.3162841796875, 0, 0, 1.408447265625, -15.7,-20.45) ">
<use xlink:href="#Layer1_0_MEMBER_0_MEMBER_0_FILL"/>
</g>

<g transform="matrix( 1.3162841796875, 0, 0, 1.408447265625, -15.7,-20.45) ">
<use xlink:href="#Layer1_0_MEMBER_0_MEMBER_1_FILL"/>
</g>

<g transform="matrix( 1.3162841796875, 0, 0, 1.408447265625, -15.7,-20.45) ">
<use xlink:href="#Layer1_0_MEMBER_0_MEMBER_2_FILL"/>
</g>

<g transform="matrix( 1.3162841796875, 0, 0, 1.408447265625, -15.7,-20.45) ">
<use xlink:href="#Layer1_0_MEMBER_0_MEMBER_3_FILL"/>
</g>

<g transform="matrix( 1.3162841796875, 0, 0, 1.408447265625, -15.7,-20.45) ">
<use xlink:href="#Layer1_0_MEMBER_0_MEMBER_4_FILL"/>
</g>

<g transform="matrix( 1.3162841796875, 0, 0, 1.408447265625, -15.7,-20.45) ">
<use xlink:href="#Layer1_0_MEMBER_0_MEMBER_5_FILL"/>
</g>

<g transform="matrix( 1.3162841796875, 0, 0, 1.408447265625, -15.7,-20.45) ">
<use xlink:href="#Layer1_0_MEMBER_0_MEMBER_6_FILL"/>
</g>
</svg>
