
<svg xmlns="http://www.w3.org/2000/svg" version="1.1" xmlns:xlink="http://www.w3.org/1999/xlink" preserveAspectRatio="none" x="0px" y="0px" width="100px" height="100px" viewBox="0 0 100 100">
<defs>
<g id="Layer1_0_FILL">
<path fill="#000000" stroke="none" d="
M 53.7 25.4
Q 50.9 25 45.95 25 40.1 25.05 38.1 24.9 35.75 25.25 34.9 27.25 34.4 28.45 33.9 31.1
L 28.95 33.85
Q 25.5 35.95 24.45 40.05 24.05 41.6 23.7 47.65
L 25.85 52.05
Q 24.2 58.7 27.05 63.95 29.6 68.8 35.5 71.8 42.85 75.55 51.4 75.1 61.7 74.55 66.9 67.35 74.15 61.65 74.25 51.55 74.3 41.45 67.15 33.1
L 67.2 33.25
Q 62.45 26.6 53.7 25.4 Z"/>
</g>
</defs>

<g transform="matrix( 1.6053466796875, 0, 0, 1.52337646484375, -28.6,-26.2) ">
<use xlink:href="#Layer1_0_FILL"/>
</g>
</svg>
