
<svg xmlns="http://www.w3.org/2000/svg" version="1.1" xmlns:xlink="http://www.w3.org/1999/xlink" preserveAspectRatio="none" x="0px" y="0px" width="100px" height="100px" viewBox="0 0 100 100">
<defs>
<g id="Layer1_0_MEMBER_0_FILL">
<path fill="#000000" stroke="none" d="
M 53.25 20.95
Q 49.75 20.45 46.25 21.8 43.55 22.8 40.1 25.25 39.85 25.45 39.6 25.95
L 39.2 26.75 39.25 26.75 38.5 27.5
Q 35.5 29.65 34.1 30.85 31.75 32.95 31.65 35.8 31.65 36.4 31.15 37.2 30.85 37.65 30.25 38.6 28.55 41.9 27.2 46.6 26.3 48.1 26.45 50.35 26.65 52.35 26.65 52.55 26.55 53.75 25.55 54.7 25.1 55.15 24.85 56.4 24.55 57.75 24.95 58.55 25.5 59.7 26.95 64 28.15 67.35 29.3 69.25 29.6 70.05 30.6 70.7 31.15 71.05 32.2 71.7 35 73.9 35 77.05 35.3 77.15 35.7 77
L 35.7 77.05
Q 36.7 77.75 37.8 77.05 38.45 76.6 39 76.9 39.3 77.05 39.9 77.7
L 39.85 77.75
Q 39.8 79.1 41.2 78.65 41.9 78.45 42.75 78.65 43.05 78.75 44.2 79.15 45.25 79.9 46.3 79.2 47.7 78.6 49.5 78.7 49.55 78.7 52.7 79.15 53.35 78.7 57.8 76.9 61 75.55 62.15 73.4 62.65 72.4 63.65 71.95 64.2 71.75 65.45 71.4
L 66.1 71.35
Q 66.25 71.05 67.3 67.6 68 65.35 69.1 64.15 70.35 62.65 70.5 60.65 70.6 59.4 71.15 58.25 71.75 57.05 72.55 56.85 74.85 56.3 75.15 54.9 75.35 54.1 74.7 51.8 74.55 50.55 74.45 49.95 74.3 48.9 73.55 48.3 73.2 48.05 73.3 47.55 73.35 47.05 73.8 46.8 76 45.5 73.85 44.15 73.35 43.85 73.2 43.25 73.1 42.5 72.95 42.15 72.9 42 72.55 40.05 72.3 38.8 71.8 38.1 70.6 35.8 68.25 35.95 66.35 33.35 65.75 31.6 64.85 29.05 65.85 26.5 66.15 25.7 65.55 25.2 64.2 23.75 63.5 23.05 62.25 21.75 60.65 21.6 60.6 21.6 57.75 20.75 55.95 20.2 54.6 21.05 54.4 21.2 53.25 20.95 Z"/>
</g>
</defs>

<g transform="matrix( 1.60693359375, 0, 0, 1.297454833984375, -30.2,-14.9) ">
<use xlink:href="#Layer1_0_MEMBER_0_FILL"/>
</g>
</svg>
