
<svg xmlns="http://www.w3.org/2000/svg" version="1.1" xmlns:xlink="http://www.w3.org/1999/xlink" preserveAspectRatio="none" x="0px" y="0px" width="100px" height="100px" viewBox="0 0 100 100">
<defs>
<g id="Layer1_0_MEMBER_0_FILL">
<path fill="#000000" stroke="none" d="
M 83.65 18
Q 83.4 17.8 83.1 17.75 82.45 17.6 80.75 16.95 80.4 16.6 80.1 16.55 79.85 16.3 79.25 16.2 78.6 16.15 78.4 16 77.7 15.2 76.45 14.6 76.4 14.15 75.85 14.15
L 75.7 14.05 75.6 13.9
Q 74.8 13.05 73.35 12.35 73.05 11.95 72.55 11.8
L 70 10.15
Q 69.55 9.7 68.65 9.1
L 68.5 9 68.35 8.85
Q 67.9 8.35 67.1 8.15 67 7.7 66.25 7.6 65.75 7.1 64.95 6.9 64.75 6.85 63.5 6.65 62.9 6.5 62.55 6.45 62 6.4 61.6 6.65
L 60.1 6.65 59.95 6.6
Q 58.6 6.2 57.3 6.2 56.6 5.95 55.15 5.85 53.85 5.75 53.25 5.7 52.1 5.65 51.3 5.8 50.9 5.7 50.35 5.75
L 49.35 5.8
Q 45.9 5.8 43.05 6.5 42.25 6.5 42.05 6.65 41.4 6.65 41.25 6.8
L 40.25 7.05
Q 39.85 7 39.3 7.35 38.4 7.45 37.9 7.75 37.6 7.75 37.2 8.05 36.3 8.25 35.25 8.85 34.65 9.05 33.95 9.55
L 33.15 10.05
Q 31.85 10.75 31.2 11.1 30 11.75 29.35 12.35 29 12.5 28.5 13.2 28.2 13.35 28.1 13.75
L 27.95 13.9
Q 27.55 14.2 27.55 14.75 27.3 15.55 26.05 17.1
L 25.75 17.5
Q 24.9 18.25 24.75 18.65 24.35 18.85 24.3 19.2
L 24.05 19.5
Q 23.55 20.2 23.25 21.35 23.1 22.05 22.8 23.35
L 21.25 25.85
Q 19.65 28.45 19.05 30.2 18.55 31.05 18.6 31.3 18.2 31.6 18.2 32.05 17.55 33.15 17.35 34.3 16.8 35.2 16.5 36.6 16.3 37.4 16.05 39 15.75 40.3 14.8 40.8
L 14.3 41.1
Q 13.75 41.35 13.25 41.95 12.95 42.25 12.35 42.95 11.2 44 10.95 44.3 10.5 44.55 10.3 45.15 10 45.95 9.85 46.15 9.2 46.1 9.1 46.8 8.85 46.95 8.6 46.8
L 8.6 46.7
Q 8.65 46.5 8.35 46.3 8.1 46.1 8.15 45.85
L 8.3 45.6
Q 8.75 45.5 8.9 45.2 9.4 44.8 8.75 44.6 8.25 44.15 8 44.15 7.7 44.15 7.3 44.6
L 6.65 45.2
Q 6.15 45.75 5.7 46.6 5.45 47.1 5 48.1 4.15 49.85 4.05 50.1 3.55 51.25 3.55 52.25
L 3.5 52.35
Q 2.55 55.35 3.4 57.5 3.4 57.95 3.7 58.15
L 3.7 58.3
Q 3.8 58.7 3.95 58.85 4.6 60.1 5.5 62.7 6.65 66.1 8 68.65
L 8.35 69.4
Q 8.7 70 9.25 71.15 9.85 72.15 10.55 72.65 10.7 73.1 11.2 73.25 12.2 74.35 12.9 74.65
L 14.15 75.9
Q 15.1 77.25 16.25 78.25 17.85 80.1 18.75 80.5
L 19.15 80.9
Q 19.65 81.55 20 81.65 20.3 82 20.85 82.35
L 21.8 83
Q 22.1 83.4 22.4 83.45 22.6 83.7 23.2 84 23.45 84.35 23.75 84.45 24.55 85.05 25.05 85.25 25.6 85.8 25.75 85.8 28 87.6 29.75 87.75 30.1 87.9 32.15 89.05 32.65 89.4 32.85 89.45
L 33.1 89.6
Q 33.35 89.9 33.85 90 37.9 92.15 42.45 93.35 42.85 93.55 42.95 93.55 46.8 94.25 47.9 94.25 50.45 94.15 52.45 94.3 56.35 94.65 60.25 92.35 60.65 92.4 60.9 92.05 61.35 91.5 62.15 91.1 63.1 90.7 63.55 90.45
L 64.3 90
Q 64.9 89.75 65.05 89.65
L 70.7 86.65
Q 72.35 85.75 73.1 84.7 74.35 82.8 75.2 82.05 75.95 81.35 76.4 81.05 76.6 80.95 79.95 78.85 80.5 78.65 81.1 78.15 81.5 77.9 82.2 77.3 84.6 75.55 87.05 72.7 87.7 72.2 88.4 71.2 90 69.25 90.25 68.7 90.55 68.5 90.75 68.1 90.9 67.9 91.1 67.45 92.8 64.9 93.2 63.65 93.5 63.3 93.8 62.5 95.7 57.85 96.85 51.8 97.3 49.75 96.4 48.25 96.4 47.85 96.35 47.6 96.25 47.25 96 47.1
L 95.95 47 95.95 46.45
Q 95.7 43 94.45 38.15 93.5 34.65 92.5 32.75 92.05 31.25 91.25 30.05 91.1 29.4 90.7 28.95
L 90.55 28.7
Q 90.25 27.75 89.8 27.45 89.7 27.4 89.7 27 89.65 26.6 89.25 26.2
L 89 25.9
Q 88.8 25.05 88.4 24.8
L 88.3 24.65
Q 88.3 24.45 87.9 23.9 87.8 23.55 87.35 22.85 86.85 21.8 86.6 21.3 86.15 20.4 85.65 19.9 85.25 18.9 84.1 18.35 83.8 18.1 83.65 18
M 44.05 6.95
L 44.85 6.85
Q 46 6.85 46.65 6.45
L 46.65 6.35 46.7 6.35
Q 46.85 6.4 47.2 6.4 47.5 6.35 47.65 6.5
L 47.5 6.75 47.2 6.9
Q 46.85 6.9 46.8 7 46.15 6.85 45.9 7.2 45 6.95 44.45 7.35 43.7 7.85 43.05 7.6 42.95 7.45 42.95 7.05 43.3 6.95 44.05 6.95
M 43.85 9
L 44.2 8.95 44.15 9.15 43.9 9.15 43.8 9 43.8 8.9 43.85 9
M 41.95 7.35
L 42.1 7.5 41.95 7.6 41.95 7.35
M 41.9 9.55
Q 41.95 9.7 42.2 9.8
L 42.25 9.8 42.25 9.95 42.2 9.95 42.1 10.1 42 10.05 41.95 10
Q 41.95 9.8 41.8 9.7
L 41.8 9.6 41.9 9.55
M 49.8 6.6
Q 50.3 6.6 50.45 6.4
L 50.45 6.9
Q 50.3 6.85 49.75 6.95 49.3 7 49.05 6.8
L 49.1 6.8
Q 49.4 6.5 49.8 6.6
M 58.45 28.05
L 58.4 28.25
Q 58.15 28.15 58.05 28.1
L 58.45 28.05
M 50.75 26.25
L 50.95 26.25
Q 51.05 26.4 51.25 26.35
L 51.35 26.4 51.2 26.4 50.85 26.45 50.75 26.25
M 52.15 30.5
L 52.2 30.25 52.25 30.2 52.4 30.15 52.4 30.1 52.45 30.15 52.75 30.25 53.7 30.05
Q 53.55 30.15 52.9 30.25 52.35 30.3 52.15 30.5
M 42.45 30.75
L 42.5 30.9 42.2 30.75
Q 42 30.75 42.05 30.65
L 42.65 30.5 42.45 30.75
M 43.15 30.4
L 43.55 30.2 43.6 30.35 43.55 30.35
Q 43.45 30.3 43.15 30.4
M 41.35 34.65
L 41.05 34.75 40.75 34.7 40.2 34.55
Q 39.6 34.55 39.45 34.85 39.05 35.05 39.1 35.3 39.1 35.4 39.4 35.4
L 40 35.55 40.05 35.55
Q 40.4 35.65 41.05 35.65
L 41.2 35.7 41.25 35.75
Q 41.5 36.05 42 35.9
L 42.05 35.95 42 36.35 41.15 36.35
Q 39.9 36.35 39.75 36.35 39 36.2 38.65 35.55
L 38.6 35.4
Q 38.6 35.1 38.35 34.75
L 38.4 34.7
Q 39.95 34.25 41.45 34.45 41.65 34.45 42.25 34.65 42.75 34.8 43.1 34.75
L 43.1 34.8 43.15 34.8
Q 43.05 34.95 43.15 35.05
L 43.05 35
Q 41.95 34.7 41.35 34.65
M 25.15 83.4
Q 23.6953125 82.645703125 23 82
L 22.65 81.75 23.1 81.75 24.05 82.35
Q 24.15 82.5 24.7 82.75 25.1 82.95 25.15 83.3
L 25.15 83.4 Z"/>
</g>
</defs>

<g transform="matrix( 0.863433837890625, 0, 0, 0.863433837890625, 6.85,6.85) ">
<use xlink:href="#Layer1_0_MEMBER_0_FILL"/>
</g>
</svg>
