
<svg xmlns="http://www.w3.org/2000/svg" version="1.1" xmlns:xlink="http://www.w3.org/1999/xlink" preserveAspectRatio="none" x="0px" y="0px" width="100px" height="100px" viewBox="0 0 100 100">
<defs>
<g id="Layer1_0_MEMBER_0_MEMBER_0_FILL">
<path fill="#000000" stroke="none" d="
M 43.9 48.1
L 44.05 48.6
Q 43.95 49.3 44.2 50.25 44.3 50.75 44.6 51.75
L 44.6 51.8
Q 44.6 51.9 44.55 52.2 44.45 52.45 44.6 52.55 45.1 52.95 45.65 53.85 46.25 54.85 46.6 55.2 47.45 55.85 47.6 55.95 48.2 56.25 48.85 56.1 49.15 56 50.15 56.05 51 56.1 51.45 55.8
L 52.05 55.2
Q 55.65 53.7 56.05 49.5 56.15 47.7 55.45 46.85 54.05 45.15 53.2 44.6 51.8 43.6 50.05 44.05
L 49.45 44.05
Q 48.95 43.95 48.5 44.3 48.05 44.8 47.8 45 47.6 45.2 47.5 45.25 47.3 45.35 47.1 45.2 46.75 44.95 46.55 44.85 46.2 44.65 45.95 44.75 45.75 44.85 45.55 45.2 45.25 45.65 45.15 45.75 44.8 46.1 44.5 46.9 44.1 47.8 43.9 48.1 Z"/>
</g>

<g id="Layer1_0_MEMBER_0_MEMBER_1_FILL">
<path fill="#000000" stroke="none" d="
M 52.95 44.05
Q 53 44.25 53.1 44.1
L 53.1 43.95 53 43.95 52.95 44.05 Z"/>
</g>
</defs>

<g transform="matrix( 6.67901611328125, 0, 0, 6.24896240234375, -283.75,-262.6) ">
<use xlink:href="#Layer1_0_MEMBER_0_MEMBER_0_FILL"/>
</g>

<g transform="matrix( 6.67901611328125, 0, 0, 6.24896240234375, -283.75,-262.6) ">
<use xlink:href="#Layer1_0_MEMBER_0_MEMBER_1_FILL"/>
</g>
</svg>
