
<svg xmlns="http://www.w3.org/2000/svg" version="1.1" xmlns:xlink="http://www.w3.org/1999/xlink" preserveAspectRatio="none" x="0px" y="0px" width="100px" height="100px" viewBox="0 0 100 100">
<defs>
<g id="Layer1_0_MEMBER_0_MEMBER_0_FILL">
<path fill="#000000" stroke="none" d="
M 83.95 37.6
Q 83.4 35.4 83.1 34.3 82.6 32.35 80.9 31.8 80.6 31.7 80.35 31.4 80.15 31.1 80.25 30.85 81.45 28.6 80.1 27.55 78.05 26.6 77.1 26.15 76.5 25.85 75.8 25.15 74.85 24.2 74.7 24.05 74.5 23.9 72.25 20.8 70.85 18.75 68.6 19 68.45 19.05 68.15 18.75 67.9 18.45 67.75 18.15 67.2 17.1 66.5 16.7 65.7 16.3 64.45 16.45 61.6 16.8 60.05 13.65 60.05 13.25 60 13.25 57.75 12.35 56.55 12 54.55 11.4 52.95 12.2 51.3 12.95 50.6 12.6 48.85 11.65 47.2 12.2 46 12.6 44.4 14.05 43.1 15.3 41.5 15.35 40 15.35 39.35 17 38.5 17.35 39.3 17.8 38.65 18.6 35.8 21.15 33.55 23.2 32.55 24.95 32.05 25.85 30.75 27.15 29.2 28.65 28.5 29.35 27.5 29.95 26.65 31.25 26.2 32 25.35 33.55 25.15 33.9 24.75 34.6 24.4 35.1 23.75 35.15 22.5 35.2 22 36.15 21.7 36.75 21.7 38.05 21.7 38.4 21.85 39 21.9 39.4 21.1 39.35 19.45 39.2 18.9 40.2 18.5 40.85 18.6 42.5 18.65 43.55 18.45 44.15 18.2 44.95 17.4 45.3 16.7 45.65 16.55 46.45 16.45 46.9 16.55 47.85 16.75 50 16.15 51 14.5 52.25 14.1 53.35 13.65 54.75 15 56.35 15.45 56.9 15.25 57.55 14.5 59.45 15.15 62.75 15.9 66.45 15.65 67.95 15.5 68.9 16.05 69.85 16.65 70.8 17.6 71 20.2 71.55 19.25 74.3 18.7 75.85 19.35 76.75 19.9 77.55 21.35 77.7 22.45 77.8 23.25 78.45 23.75 78.9 24.4 79.95 24.55 80.7 24.35 82.4 24.4 83.8 26.05 84.15 28.5 85.65 31.7 86 34 86.2 37.65 85.85 38.95 87.3 40.2 85.8 46.75 89.15 52.65 87.95 56.5 87.15 60.8 84.5 63.25 83 68.05 79.65 68.6 79.25 68.85 78.7 70.95 73.95 74.95 67.5 75.85 66.9 77.55 65.6 79.15 64.8 80.8 65.9 81.95 67.05 82.9 66.45 83.75 65.9 83.6 64.85 83.4 63.45 84.05 61.65 85 58.9 85.05 58.7 85.95 54.8 85.95 53.75 86.1 50.95 84.45 48.9 84.2 48.55 84.15 47.95 84.05 47.3 84.25 46.95 84.85 45.9 84.45 44.6 83.9 43.15 83.75 42.4 83.65 41.8 84 39.95 84.35 38.35 83.95 37.6 Z"/>
</g>

<g id="Layer1_0_MEMBER_0_MEMBER_1_FILL">
<path fill="#000000" stroke="none" d="
M 39.25 87.65
Q 38.75 87.85 39.25 88.05 39.35 88.15 39.5 88
L 39.55 87.75
Q 39.3 87.65 39.25 87.65 Z"/>
</g>
</defs>

<g transform="matrix( 1.12786865234375, 0, 0, 1.0006561279296875, -6.3,0) ">
<use xlink:href="#Layer1_0_MEMBER_0_MEMBER_0_FILL"/>
</g>

<g transform="matrix( 1.12786865234375, 0, 0, 1.0006561279296875, -6.3,0) ">
<use xlink:href="#Layer1_0_MEMBER_0_MEMBER_1_FILL"/>
</g>
</svg>
