
<svg xmlns="http://www.w3.org/2000/svg" version="1.1" xmlns:xlink="http://www.w3.org/1999/xlink" preserveAspectRatio="none" x="0px" y="0px" width="100px" height="100px" viewBox="0 0 100 100">
<defs>
<g id="Layer1_0_MEMBER_0_FILL">
<path fill="#020000" stroke="none" d="
M 57.4 33.45
Q 52.15 30.3 45.75 31.65 40.15 32.85 35.2 37.05 31.85 39.9 30.95 44.45 30.35 47.3 30.6 52.8 30.95 59.85 35.15 62.05 37.3 64.8 40.95 66.4 43.2 67.35 47.8 68.45 51.5 69.35 53.4 67.9
L 54.2 67.55
Q 54.95 68.2 55.85 67.95 56.35 67.8 57.35 67.25 57.65 67.55 57.9 67.25 60.8 66.05 62.25 63.25
L 64.2 61.85
Q 64.3 61.85 64.9 61.85 65.3 61.85 65.4 61.75 67.7 59.15 68.5 57.7 69.95 55.2 69.15 52.55 68.25 49.7 68.6 47.65 66.85 42.65 64.45 39.4 61.6 35.5 57.4 33.45 Z"/>
</g>
</defs>

<g transform="matrix( 2.08612060546875, 0, 0, 2.0386199951171875, -54.3,-51.95) ">
<use xlink:href="#Layer1_0_MEMBER_0_FILL"/>
</g>
</svg>
