
<svg xmlns="http://www.w3.org/2000/svg" version="1.1" xmlns:xlink="http://www.w3.org/1999/xlink" preserveAspectRatio="none" x="0px" y="0px" width="100px" height="100px" viewBox="0 0 100 100">
<defs>
<g id="Layer1_0_MEMBER_0_MEMBER_0_FILL">
<path fill="#000000" stroke="none" d="
M 41 23.25
L 40.55 23.1
Q 39.5 22.85 39 22.65 38.6 22.45 38.3 22.7 38.05 22.9 37.6 22.75
L 36.95 22.5
Q 36.4 22.2 36.15 22.05 35.9 21.9 35.6 22.05
L 35.55 22.05
Q 35.1 21.75 33.75 21.5 33.25 21.4 33.1 21.5 33 21.55 32.8 22.05
L 32.7 22.15 32.6 22.5
Q 32.5 22.6 32.55 22.75
L 32.5 22.75 32.45 22.85 32.4 23 32.3 23.15 32.3 23.2 32.25 23.2 32.25 23.25 31.9 23.9 31.75 24.35 31.75 24.4 30.9 26.55
Q 30.6 27.25 30.55 27.6 30.5 28.2 30.05 28.7 28.95 30.35 28.85 30.45 28.55 30.85 28.55 31.1
L 28.5 31.15
Q 28.4 31.45 28.1 31.95 27.75 32.2 27.7 32.6 27.6 32.6 27.6 32.7
L 27.5 32.8
Q 27.35 32.9 27.35 33
L 27.25 33.25
Q 27.15 33.25 27.15 33.45 26.65 33.75 26.4 34.3 26.35 34.55 25.95 34.85 25.75 34.85 25.7 34.95 25.65 35.2 25 35.85
L 24.95 35.9 24.9 36.05 24.85 36.15
Q 24.35 36.9 24.35 37.2 24.25 37.3 24.25 37.5 23.6 38.8 23.05 40.3 22.95 40.45 22.85 40.95
L 22.7 41.1 21.8 43.4
Q 21.65 43.55 21.65 43.75
L 21.5 44.05 21.5 44.1
Q 21.4 44.1 21.4 44.25 21.15 44.6 21.15 44.9 21.05 44.9 21.05 45 20.8 45.35 21.1 45.65
L 21.95 46.3
Q 22.5 46.75 22.65 46.75
L 22.75 46.85
Q 22.9 47 22.9 47.4 22.7 48.05 22.1 49.3 22 49.35 22 49.55 21.6 50.4 21.55 50.5 21.35 50.95 21.25 51.5 21.15 51.8 21.35 51.95
L 21.85 52.4
Q 22.2 52.65 22.45 52.75 22.45 52.9 22.65 53.1 23 53.35 22.85 53.85
L 22.45 55.15
Q 22.25 55.8 22.7 56.1 22.95 56.3 23.4 56.7 23.8 57 24.2 57.05 24.3 57.05 24.45 57.2 24.9 57.7 25.55 57.65 26 57.75 26.25 58.1 26.5 58.45 26.4 59.4 26.15 59.65 25.95 60.35 25.65 60.9 25.35 62.2
L 25.3 62.25
Q 25.1 62.55 24.9 63.45 24.85 63.6 24.7 64.4 24.55 64.6 24.45 65.3 24.2 66.5 24.7 67.45 24.7 67.8 25 68
L 25.45 68.6
Q 25.75 69.2 26.75 70
L 26.85 70.1 27.15 70.25
Q 27.3 70.35 27.75 70.7 28.1 71 28.4 71.1
L 28.75 71.35
Q 29 71.55 29.6 71.65 29.7 71.75 29.75 71.75
L 29.95 71.95
Q 30.8 72.4 32 72.15 32.25 72 33.4 71.65 33.75 71.7 34.05 71.4 34.25 71.2 34.75 71 35.25 70.8 35.75 70.3 35.85 70.2 35.85 69.9 36.1 69.5 36.05 69.35 35.9 68.9 36.25 68.35 36.4 68.1 36.45 68.05 36.5 68.05 36.8 68.1 37.05 68.4 37.4 68.4 37.7 68.4 37.6 68.7 37.45 69.25 37.45 69.8
L 37.45 69.9
Q 37.6 70.7 37.6 70.75 37.75 71.2 38.1 71.4
L 38.1 71.45 38.2 71.5 38.5 72.15
Q 38.5 72.3 38.65 72.35 39.35 73.35 40.35 73.85
L 41.35 74.6
Q 41.5 74.75 41.85 74.85 42.05 75 42.6 75.1
L 43.35 75.25
Q 43.35 75.3 43.45 75.4 43.9 75.8 45.05 75.8 45.2 75.95 45.4 75.9
L 45.5 75.9
Q 45.6 75.95 46.05 75.95 46.85 76 46.95 76.15 47 76.2 47 76.9 46.65 77.45 47.1 78.05
L 47.9 79.15
Q 48.2 79.6 49.05 80.4 49.2 80.5 49.5 80.75 49.8 80.9 50.1 80.85 50.3 81.05 50.55 80.85
L 50.75 80.85
Q 50.9 80.95 51.2 80.9 51.5 80.85 51.6 80.85
L 51.7 80.85
Q 51.9 80.85 51.95 80.75
L 52.35 80.75
Q 52.4 80.75 52.8 80.85 53.1 80.9 53.25 80.8 53.75 80.6 54 80.45 54.35 80.2 54.5 79.85
L 54.7 79.45
Q 54.95 79.3 55.05 79
L 55.3 78.6
Q 55.45 78.6 55.55 78.4
L 56.25 77.1
Q 56.35 76.65 56.55 76.45 56.85 75.9 57.05 75.7 57.4 75.45 57.4 75.15 57.4 75.05 57.55 74.75
L 58.15 73.55
Q 58.25 72.95 58.4 72.7 58.65 72.5 58.8 72.15
L 59 71.5
Q 59.25 71.3 59.45 70.65 59.55 70.6 59.55 70.35 59.65 70.3 59.65 70.15 59.7 70.1 59.85 69.35 59.95 69.15 60 69.1 60.05 69.1 60.3 69.2
L 60.5 69.5
Q 61 70.25 61.15 70.35
L 61.45 70.7
Q 61.55 70.95 61.9 71.1
L 62.85 71.45
Q 62.95 71.55 63.2 71.55 63.3 71.55 63.5 71.5
L 65.35 72.05
Q 65.9 72.5 66.4 72.15
L 66.95 71.65
Q 67.45 71.3 67.5 71.2
L 67.6 71.15
Q 67.75 70.65 68.35 70.65 68.5 70.65 68.55 70.55
L 69.2 70.35
Q 69.5 70.3 69.75 69.9 69.9 69.8 69.75 69.5
L 69.75 69.3
Q 69.85 69.2 69.85 68.9 69.85 68.5 69.95 68.3 70.1 68.05 70.25 67.55
L 70.7 66.8
Q 70.75 66.8 70.85 66.7 71.15 66.3 71.15 66.2 71.25 66.1 71.25 65.85 71.5 65.4 71.65 64.45
L 72.05 63.75
Q 72.15 63.5 72 63.35 71.9 63.15 72.1 62.85 72.35 62.65 72.3 62.45 72.45 62.3 72.4 62.2
L 72.4 62.1
Q 72.7 61.4 72.85 60.8
L 73.05 60.55
Q 73.3 60.3 73 60.05
L 72.9 59.95
Q 72.75 59.5 72.65 59.3
L 72.65 59 72.75 58.85
Q 72.9 58.25 73.4 58.05 73.6 57.9 73.7 57.6
L 73.9 57.25
Q 74.55 56.95 74.6 56.55
L 74.7 56.35
Q 75.2 55.9 75.1 55.2
L 75.2 55.1
Q 75.2 54.4 74.8 53.85 74.4 53.4 74 53.5 73.4 53.6 73.1 53.45 72.75 53.3 72.9 52.95 73.1 52.65 73.05 52.45 72.95 52.15 73.15 51.45
L 73.6 50.4
Q 73.85 49.8 74.1 49.5 74.75 48.45 74.8 48.3 74.95 47.85 75.25 47.45 75.65 46.95 75.75 46.3 75.75 45.95 76 45.6
L 76.25 45.35
Q 76.4 45.25 76.4 45.05 76.55 44.85 76.75 44.35 76.9 44.25 76.8 43.95
L 77.05 43.65
Q 77.35 43.45 77.35 43.05
L 77.35 41.8 77.55 41.15
Q 77.75 41 77.65 40.75
L 77.8 40.45
Q 77.9 40.35 77.9 40.1
L 78.1 39.9 78.25 39.65 78.9 37.8
Q 79.1 37.2 79 36.35
L 78.85 35.55
Q 78.8 35.05 78.85 34.7 78.85 34.5 78.75 34.45 78.7 34.3 78.5 34.15 78.25 33.95 78.2 33.85 77.9 33.3 76.8 32.8 75.95 32.45 75.2 33.05 74.5 33.65 74.25 34
L 73.85 34.55
Q 73.75 34.95 73.25 35.65
L 72.85 36.05
Q 72.6 36.3 72.5 36.55
L 72.4 36.65 71.45 38.2
Q 71.2 38.5 71 38.6 70.8 38.6 70.8 38.8 70.35 38.75 70.7 38.3 70.95 37.9 71.35 37 71.45 36.95 71.45 36.75
L 71.75 35.9
Q 72.05 35.6 71.75 35.25
L 71.8 35.25
Q 71.8 34.8 71.9 34.55 72.1 34.3 72.1 33.65 72.45 33.35 72.1 32.8 71.95 32.7 71.9 32.4 71.85 32.05 71.8 31.95
L 71.65 31.45
Q 71.6 31.1 71.55 31.05 71.5 31 71.15 30.95 70.8 30.85 70.6 30.65
L 70.5 30.55
Q 70.45 30.5 70.2 30.35
L 69.9 30.2
Q 69 30.2 68.7 29.45
L 68.65 29.35
Q 68.45 28.65 68.45 28.35 68.5 27.5 67.6 27 66.85 26.5 66 26.35 65.6 26.3 65.45 26.25
L 65.25 26.15
Q 64.9 25.95 64.7 26 64.5 26.05 64.25 26.4
L 64.15 26.6 64.05 26.7 64.05 26.8
Q 63.95 26.85 63.95 27 63.75 27.15 63.65 27.15 63.6 27.15 63.45 26.95
L 62.45 25.85
Q 61.1 24.85 60.3 24.65 59.6 24.4 59.85 23.55
L 59.95 23.15
Q 60.1 22.2 59.2 21.65 58.75 21.4 58.55 21.25 57.35 20.55 56.1 20.6 55.75 20.5 55.7 20.6
L 55.6 20.6
Q 55.15 20.35 54.6 20.7 54.5 20.9 54.4 21
L 54.3 21
Q 53.95 21.1 53.85 21.45 53.2 21.75 52.9 21.3
L 52.6 21.2
Q 52.45 21.15 52.05 20.9 51.65 20.5 50.85 20.15
L 50.75 20.05 48.05 19.45
Q 47.3 19.3 46.75 19.8 46.65 19.9 46.7 19.95
L 46.65 19.95 46.55 20.15
Q 45.9 20.65 45.45 21.4 44.85 22.45 44.2 22.85 44 23.05 44 23.15 43.8 23.9 43.05 23.8
L 42.45 23.7
Q 42 23.55 41.95 23.5 41.65 23.15 41 23.25
M 45.75 43.95
L 45.6 44.2 45.45 44.1 45.75 43.95
M 67.3 38.45
Q 67.4 38.65 67.35 38.7
L 67.15 38.5 67.3 38.45
M 32.8 29.4
L 32.65 29.35 32.7 29.25 32.8 29.4
M 67.9 62.2
L 67.6 62.3 67.65 62.15 67.9 62.2
M 53.2 78.95
L 53.65 78.7
Q 53.55 79.1 53.25 78.95
L 53.2 78.95 Z"/>
</g>

<g id="Layer1_0_MEMBER_0_MEMBER_1_FILL">
<path fill="#000000" stroke="none" d="
M 34.35 19.25
L 34.45 19.35
Q 34.6 19.35 34.6 19.25 34.6 19.1 34.45 19.1 34.35 19.1 34.35 19.25 Z"/>
</g>

<g id="Layer1_0_MEMBER_0_MEMBER_2_FILL">
<path fill="#000000" stroke="none" d="
M 37.85 19.45
Q 37.85 19.6 37.95 19.6 38.1 19.6 38.1 19.45
L 38 19.35
Q 37.95 19.3 37.85 19.45 Z"/>
</g>

<g id="Layer1_0_MEMBER_0_MEMBER_3_FILL">
<path fill="#000000" stroke="none" d="
M 42.95 78.45
L 42.9 78.5
Q 42.85 78.55 42.9 78.55
L 43 78.55 42.95 78.45 Z"/>
</g>
</defs>

<g transform="matrix( 1.396728515625, 0, 0, 1.2376708984375, -19.8,-11.9) ">
<use xlink:href="#Layer1_0_MEMBER_0_MEMBER_0_FILL"/>
</g>

<g transform="matrix( 1.396728515625, 0, 0, 1.2376708984375, -19.8,-11.9) ">
<use xlink:href="#Layer1_0_MEMBER_0_MEMBER_1_FILL"/>
</g>

<g transform="matrix( 1.396728515625, 0, 0, 1.2376708984375, -19.8,-11.9) ">
<use xlink:href="#Layer1_0_MEMBER_0_MEMBER_2_FILL"/>
</g>

<g transform="matrix( 1.396728515625, 0, 0, 1.2376708984375, -19.8,-11.9) ">
<use xlink:href="#Layer1_0_MEMBER_0_MEMBER_3_FILL"/>
</g>
</svg>
