
<svg xmlns="http://www.w3.org/2000/svg" version="1.1" xmlns:xlink="http://www.w3.org/1999/xlink" preserveAspectRatio="none" x="0px" y="0px" width="100px" height="100px" viewBox="0 0 100 100">
<defs>
<g id="Layer1_0_FILL">
<path fill="#000000" stroke="none" d="
M 61.25 24.85
Q 53.25 20.1 43.55 22.15 35.1 23.95 27.55 30.35 22.5 34.65 21.1 41.55 20.2 45.85 20.6 54.25 20.85 58.9 22.05 61.95 23.7 66.25 27.5 68.25 30.75 72.4 36.3 74.85 39.7 76.3 46.7 77.95 52.3 79.35 55.15 77.1
L 56.35 76.6
Q 57.5 77.65 58.85 77.25 59.65 77 61.2 76.15 61.6 76.6 61.95 76.15 66.45 74.35 68.55 70.05
L 71.5 67.95 72.6 67.95
Q 73.2 68 73.35 67.8 76.85 63.85 78.1 61.65 80.25 57.85 79.05 53.85 77.65 49.5 78.25 46.45 75.55 38.85 71.95 33.95 67.6 28 61.25 24.85 Z"/>
</g>
</defs>

<g transform="matrix( 1.37542724609375, 0, 0, 1.3441619873046875, -18.75,-17.2) ">
<use xlink:href="#Layer1_0_FILL"/>
</g>
</svg>
