
<svg xmlns="http://www.w3.org/2000/svg" version="1.1" xmlns:xlink="http://www.w3.org/1999/xlink" preserveAspectRatio="none" x="0px" y="0px" width="100px" height="100px" viewBox="0 0 100 100">
<defs>
<g id="Layer1_0_FILL">
<path fill="#020000" stroke="none" d="
M 54.35 26.8
Q 49.05 26.45 41.95 28.3 37.95 27.85 34.6 29.65 28.2 33.1 26.4 39.6 24.65 46.15 28.75 51.05 28.65 52.1 28.85 52.6 29.1 53.3 30 53.55 29.9 58.3 33.1 61.95 34.75 63.85 40 67.6 43.55 72.35 49.8 73.15 53.4 73.55 61.05 73.1 68.5 70.1 72.15 65.4 76.25 60.15 76.05 52.2 75.85 44.3 74.25 40.05 72 34.1 66.05 31 60.85 27.25 54.35 26.8 Z"/>
</g>
</defs>

<g transform="matrix( 1.6181488037109375, 0, 0, 1.6427001953125, -32.4,-32.15) ">
<use xlink:href="#Layer1_0_FILL"/>
</g>
</svg>
