
<svg xmlns="http://www.w3.org/2000/svg" version="1.1" xmlns:xlink="http://www.w3.org/1999/xlink" preserveAspectRatio="none" x="0px" y="0px" width="100px" height="100px" viewBox="0 0 100 100">
<defs>
<g id="Layer1_0_MEMBER_0_FILL">
<path fill="#000000" stroke="none" d="
M 51.3 24.35
Q 50.5 24.45 44 23.95 39.5 23.6 36.5 25.15 33.35 26.75 32.8 27.1 30.95 28.3 30 30.05 29.9 30.15 28.85 31.75 28.15 32.75 27.5 33.2 26.4 34 26 35.15 25.75 35.95 25.8 37.5 25.2 40.15 23.95 45.5 23.55 47.6 23.6 48.3 23.65 49.85 24.95 50.75 25.85 52.4 25.85 53.9 25.85 56.7 26.15 57.55 26.8 59.35 29.2 59.7 29.7 59.8 30.2 60.55 30.85 61.7 31 61.85 32.4 63.35 35.1 66.35 37.6 68.8 40.25 69.7 40.55 69.8 42.8 70.95 44.35 71.75 45.55 71.65 46.3 73.45 48 73.45 49 73.45 51.05 73.1 52.25 73.15 52.8 73.35 53.65 73.6 54.25 74.45 55.55 76.2 56.6 76.2 57.65 76.15 59 74.3 60.1 72.8 60.9 72.2 62.05 71.35 63.55 71.4 65.05 71.45 65.85 69.9 67 67.4 70.7 65.75 72.15 64.2 73.35 60.85 74.65 57.05 75.5 55.75 75.05 54.15 75.65 51.6 76.35 48.45 76.35 47.5
L 75.55 44.75
Q 74.85 41.85 74.4 40.75 73.5 38.65 71.85 37.45 70.5 36.5 70.6 34.15 71.55 33.75 70.6 33.35
L 69.8 32.45
Q 69.25 31.25 68.05 30.95
L 66.45 30.85
Q 66.1 30.25 65.35 29.85 64.45 29.45 64 29.2 63.2 28.65 62.85 28.75 57.65 29.75 52.7 25.15 51.8 24.35 51.3 24.35
M 38.05 47.5
Q 37.95 48.1 37.95 48.9 37.45 48.5 37.15 48 37.5 47.6 38.05 47.5 Z"/>
</g>
</defs>

<g transform="matrix( 1.53839111328125, 0, 0, 1.4636688232421875, -26.85,-23.2) ">
<use xlink:href="#Layer1_0_MEMBER_0_FILL"/>
</g>
</svg>
