
<svg xmlns="http://www.w3.org/2000/svg" version="1.1" xmlns:xlink="http://www.w3.org/1999/xlink" preserveAspectRatio="none" x="0px" y="0px" width="100px" height="100px" viewBox="0 0 100 100">
<defs>
<g id="Layer1_0_FILL">
<path fill="#000000" stroke="none" d="
M 52.55 32.85
Q 51.9 32.85 51.3 32.9 50.7 32.85 50.05 32.85 49.4 32.85 48.8 32.9 48.2 32.85 47.55 32.85 46.9 32.85 46.3 32.9 45.7 32.85 45.05 32.85 44.4 32.85 43.8 32.9 43.2 32.85 42.55 32.85 42.45 32.85 42.4 32.85 41.85 32.85 41.3 32.9
L 41.25 32.9
Q 40.65 32.85 40.05 32.85 39.95 32.85 39.9 32.85 39.35 32.85 38.8 32.9
L 38.75 32.9
Q 38.15 32.85 37.55 32.85 30.45 32.85 25.35 37.95 20.3 42.95 20.3 50 20.3 57.15 25.35 62.2 30.45 67.2 37.55 67.2 38.15 67.2 38.75 67.15
L 38.8 67.15
Q 39.35 67.2 39.9 67.2 39.95 67.2 40.05 67.2 40.65 67.2 41.25 67.15
L 41.3 67.15
Q 41.85 67.2 42.4 67.2 42.45 67.2 42.55 67.2 43.2 67.2 43.8 67.15 44.4 67.2 45.05 67.2 45.7 67.2 46.3 67.15 46.9 67.2 47.55 67.2 48.2 67.2 48.8 67.15 49.4 67.2 50.05 67.2 50.7 67.2 51.3 67.15 51.9 67.2 52.55 67.2 53.2 67.2 53.8 67.15 54.4 67.2 55.05 67.2 55.7 67.2 56.3 67.15 56.9 67.2 57.55 67.2 58.2 67.2 58.8 67.15 58.85 67.15 58.9 67.15 59.45 67.2 60.05 67.2 60.7 67.2 61.3 67.15 61.35 67.15 61.4 67.15 61.95 67.2 62.55 67.2 69.7 67.2 74.6 62.2 79.7 57.1 79.7 50 79.7 42.9 74.6 37.95 69.65 32.85 62.55 32.85 61.95 32.85 61.4 32.9 61.35 32.9 61.3 32.9 60.8 32.85 60.25 32.85 60.15 32.85 60.05 32.85 59.45 32.85 58.9 32.9 58.85 32.9 58.8 32.9 58.2 32.85 57.55 32.85 56.9 32.85 56.3 32.9 55.7 32.85 55.05 32.85 54.4 32.85 53.8 32.9 53.2 32.85 52.55 32.85 Z"/>
</g>
</defs>

<g transform="matrix( 1, 0, 0, 1, 0,0) ">
<use xlink:href="#Layer1_0_FILL"/>
</g>
</svg>
