
<svg xmlns="http://www.w3.org/2000/svg" version="1.1" xmlns:xlink="http://www.w3.org/1999/xlink" preserveAspectRatio="none" x="0px" y="0px" width="100px" height="100px" viewBox="0 0 100 100">
<defs>
<g id="Layer1_0_FILL">
<path fill="#000000" stroke="none" d="
M 43.9 43.85
L 43.9 43.9
Q 39.25 48.05 31.25 50.05 38.25 51.75 42.65 55.2 43.25 55.7 43.85 56.2 44.35 56.75 44.85 57.4 48.2 61.7 49.95 68.5 50 68.65 50.05 68.85 52 60.85 56.15 56.2
L 56.2 56.2
Q 60.8 52 68.85 50.05 67.8 49.75 66.85 49.5 61.45 47.9 57.8 45.2 56.95 44.55 56.15 43.85 53.75 41.15 52.05 37.35 50.85 34.6 50.05 31.25 48.05 39.2 43.9 43.85 Z"/>
</g>
</defs>

<g transform="matrix( 1, 0, 0, 1, 0,0) ">
<use xlink:href="#Layer1_0_FILL"/>
</g>
</svg>
