
<svg xmlns="http://www.w3.org/2000/svg" version="1.1" xmlns:xlink="http://www.w3.org/1999/xlink" preserveAspectRatio="none" x="0px" y="0px" width="100px" height="100px" viewBox="0 0 100 100">
<defs>
<g id="Layer1_0_MEMBER_0_MEMBER_0_MEMBER_0_FILL">
<path fill="#000000" stroke="none" d="
M 62.7 37.25
Q 57.415234375 31.8501953125 50 31.9 42.6 31.85 37.05 37.3 31.7 42.7 31.75 50 31.75 57.65 37.05 63 42.65 68.3 50 68.2 57.55 68.2 62.75 63 68.1 57.6 68.15 50 68.1001953125 42.4361328125 62.75 37.3
L 62.7 37.25
M 61.25 38.75
L 61.3 38.75
Q 66.15 43.25 66.15 50 66.15 56.8 61.3 61.55
L 61.25 61.55
Q 56.75 66.3 50 66.2 43.35 66.2 38.5 61.5
L 38.5 61.55
Q 33.7 56.75 33.75 50 33.75 43.35 38.5 38.75 43.25 33.95 50 33.85 56.7 33.95 61.25 38.75 Z"/>
</g>
</defs>

<g transform="matrix( 1, 0, 0, 1, 0.05,-0.05) ">
<use xlink:href="#Layer1_0_MEMBER_0_MEMBER_0_MEMBER_0_FILL"/>
</g>
</svg>
