
<svg xmlns="http://www.w3.org/2000/svg" version="1.1" xmlns:xlink="http://www.w3.org/1999/xlink" preserveAspectRatio="none" x="0px" y="0px" width="100px" height="100px" viewBox="0 0 100 100">
<defs>
<g id="Layer1_0_FILL">
<path fill="#1C1C1C" stroke="none" d="
M 41.55 48.1
Q 41.55 42.95 45.15 39.35 48.75 35.75 53.85 35.75 58.95 35.75 62.6 39.35 66.2 42.95 66.25 48.1 66.25 54.8 61.5 59.55 56.75 64.3 50.05 64.3 43.3 64.3 38.55 59.55 33.8 54.8 33.8 48.1 33.8 47.7 33.5 47.4 33.2 47.1 32.8 47.1 32.4 47.1 32.1 47.4 31.8 47.7 31.8 48.1 31.8 55.6 37.15 60.95 42.5 66.3 50.05 66.3 57.55 66.3 62.9 60.95 68.25 55.6 68.25 48.1 68.2 42.15 64 37.95 59.75 33.75 53.85 33.75 47.95 33.75 43.75 37.95 39.55 42.15 39.55 48.1 39.55 52.7 42.9 56.05 46.25 59.3 50.9 59.3 55.5 59.3 58.85 56.05 62.2 52.7 62.2 48.1 62.2 44.65 59.75 42.2 57.3 39.75 53.85 39.75 50.45 39.75 48 42.2 45.5 44.6 45.45 48.05 45.45 50.5 47.15 52.2
L 47.15 52.25
Q 48.95 53.95 51.35 53.95 53.8 53.95 55.55 52.2
L 55.55 52.25
Q 57.3 50.55 57.3 48.05 57.3 46.65 56.25 45.6 55.25 44.6 53.85 44.6 52.45 44.6 51.45 45.6
L 51.45 45.65
Q 50.45 46.65 50.45 48.05 50.45 48.45 50.75 48.75 51.05 49.05 51.45 49.05 51.85 49.05 52.15 48.75 52.45 48.45 52.45 48.05 52.45 47.45 52.85 47
L 52.9 47
Q 53.3 46.6 53.85 46.6 54.45 46.6 54.85 47 55.3 47.45 55.3 48.05 55.3 49.65 54.15 50.8 53 51.95 51.35 51.95 49.75 51.95 48.55 50.8 47.45 49.7 47.45 48.1 47.5 45.5 49.4 43.65
L 49.4 43.6
Q 51.25 41.75 53.85 41.75 56.5 41.75 58.35 43.6 60.2 45.45 60.2 48.1 60.2 51.9 57.45 54.6 54.7 57.3 50.9 57.3 47.05 57.3 44.3 54.6 41.55 51.9 41.55 48.1 Z"/>
</g>
</defs>

<g transform="matrix( 1, 0, 0, 1, 0,0) ">
<use xlink:href="#Layer1_0_FILL"/>
</g>
</svg>
