
<svg xmlns="http://www.w3.org/2000/svg" version="1.1" xmlns:xlink="http://www.w3.org/1999/xlink" preserveAspectRatio="none" x="0px" y="0px" width="100px" height="100px" viewBox="0 0 100 100">
<defs>
<g id="Layer1_0_FILL">
<path fill="#1C1C1C" stroke="none" d="
M 49.05 48.85
L 49.1 48.9
Q 49.499609375 49.354296875 49.5 49.95 49.503515625 50.3607421875 49.8 50.65 50.0892578125 50.946484375 50.5 50.95 50.9107421875 50.946484375 51.2 50.65 51.496484375 50.3607421875 51.5 49.95 51.500390625 48.5630859375 50.5 47.5
L 50.5 47.5 50.5 47.5
Q 49.512109375 46.505078125 48.1 46.5 46.687890625 46.505078125 45.7 47.5 44.6451171875 48.5478515625 44.65 49.95 44.65 52.4296875 46.4 54.1
L 46.4 54.1
Q 48.139453125 55.846484375 50.6 55.85 53.0005859375 55.8587890625 54.8 54.1
L 54.8 54.1
Q 56.4912109375 52.4158203125 56.5 49.95
L 56.5 49.9
Q 56.4474609375 46.5166015625 53.95 44.05
L 53.95 44.1
Q 51.5087890625 41.6517578125 48.1 41.65 44.6388671875 41.6541015625 42.2 44.1 39.7541015625 46.5388671875 39.75 50 39.7478515625 54.622265625 43.1 57.9 46.4439453125 61.20859375 51.05 61.2 55.7076171875 61.20703125 59.05 57.9 62.4021484375 54.622265625 62.4 50 62.3955078125 44.0384765625 58.2 39.85 54.0103515625 35.6533203125 48.1 35.65 42.1921875 35.654296875 37.95 39.85 33.758203125 44.0392578125 33.7 50 33.702734375 57.509765625 39.05 62.85 44.390234375 68.197265625 51.9 68.2 59.4609375 68.19609375 64.8 62.85 70.147265625 57.509765625 70.15 50 70.146484375 49.5892578125 69.85 49.3 69.5607421875 49.003515625 69.15 49 68.7392578125 49.003515625 68.45 49.3 68.153515625 49.5892578125 68.15 50 68.152734375 56.690234375 63.4 61.45 58.6392578125 66.2037109375 51.9 66.2 45.209765625 66.202734375 40.45 61.45 35.697265625 56.690234375 35.7 50 35.741796875 44.8607421875 39.35 41.25 43.0078125 37.6453125 48.1 37.65 53.18984375 37.646875 56.8 41.25 60.4044921875 44.8615234375 60.4 50 60.3978515625 53.777734375 57.65 56.45 54.8921875 59.1931640625 51.05 59.2 47.2560546875 59.19140625 44.5 56.45 41.7521484375 53.777734375 41.75 50 41.7458984375 47.3611328125 43.6 45.5 45.4611328125 43.6458984375 48.1 43.65 50.69140625 43.6484375 52.55 45.5
L 52.55 45.5
Q 54.452734375 47.383203125 54.5 49.95 54.5001953125 51.5927734375 53.4 52.7
L 53.4 52.65
Q 52.19921875 53.841015625 50.6 53.85 48.960546875 53.853515625 47.8 52.7
L 47.8 52.65
Q 46.6501953125 51.5701171875 46.65 49.95 46.6548828125 49.3521484375 47.1 48.9 47.512109375 48.494921875 48.1 48.5 48.669921875 48.4951171875 49.05 48.85
M 48.05 48.95
Q 47.6392578125 48.953515625 47.35 49.25 47.053515625 49.5392578125 47.05 49.95 47.0494140625 51.3603515625 48.1 52.35
L 48.1 52.35
Q 49.105859375 53.344921875 50.5 53.35 51.912109375 53.344921875 52.9 52.35 53.8861328125 51.3708984375 53.9 49.95
L 53.9 49.95
Q 53.9552734375 47.54609375 52.25 45.8
L 52.25 45.8 52.25 45.75
Q 50.5056640625 44.09609375 48.1 44.1 45.6341796875 44.1087890625 43.95 45.8 42.203515625 47.539453125 42.2 50 42.1982421875 53.4052734375 44.7 55.9
L 44.7 55.9
Q 47.18828125 58.3515625 50.75 58.35 54.2111328125 58.3458984375 56.65 55.9
L 56.65 55.9
Q 59.2537109375 53.4291015625 59.25 50
L 59.25 50
Q 59.3470703125 45.3408203125 56.05 42.05 52.7609375 38.75390625 48.1 38.75 43.4908203125 38.7521484375 40.2 42.05 36.9021484375 45.3408203125 36.9 49.95 36.898046875 55.9251953125 41.2 60.1 45.5951171875 64.3005859375 51.65 64.3 57.7095703125 64.302734375 62 60.1 66.301953125 55.9251953125 66.3 49.95 66.3501953125 42.4396484375 61 37.1 55.6603515625 31.80625 48.1 31.8 40.590625 31.8052734375 35.25 37.1 29.902734375 42.440234375 29.9 49.95 29.903515625 50.3607421875 30.2 50.65 30.4892578125 50.946484375 30.9 50.95 31.3107421875 50.946484375 31.6 50.65 31.896484375 50.3607421875 31.9 49.95 31.897265625 43.259765625 36.65 38.5 41.409375 33.7947265625 48.1 33.8 54.8396484375 33.79375 59.6 38.5 64.3498046875 43.2603515625 64.3 49.95 64.298046875 55.0748046875 60.6 58.65 56.890625 62.2970703125 51.65 62.3 46.4046875 62.299609375 42.6 58.65 38.901953125 55.0748046875 38.9 49.95 38.8978515625 46.1591796875 41.6 43.45 44.3091796875 40.7478515625 48.1 40.75 51.9390625 40.74609375 54.65 43.45 57.3439453125 46.150390625 57.25 49.95
L 57.25 50
Q 57.2365234375 52.5802734375 55.25 54.45
L 55.25 54.5
Q 53.3888671875 56.3541015625 50.75 56.35 48.011328125 56.3484375 46.1 54.45
L 46.1 54.5
Q 44.2017578125 52.5947265625 44.2 50 44.196484375 48.360546875 45.35 47.2 46.4658203125 46.0912109375 48.1 46.1 49.676953125 46.1037109375 50.8 47.2
L 50.85 47.2
Q 51.9353515625 48.3626953125 51.9 49.9
L 51.9 49.95
Q 51.905078125 50.537890625 51.5 50.95 51.087890625 51.355078125 50.5 51.35 49.912109375 51.355078125 49.5 50.95
L 49.5 50.9 49.45 50.9
Q 49.0501953125 50.5220703125 49.05 49.95 49.046484375 49.5392578125 48.75 49.25 48.4607421875 48.953515625 48.05 48.95 Z"/>
</g>
</defs>

<g transform="matrix( 1, 0, 0, 1, 0,0) ">
<use xlink:href="#Layer1_0_FILL"/>
</g>
</svg>
