
<svg xmlns="http://www.w3.org/2000/svg" version="1.1" xmlns:xlink="http://www.w3.org/1999/xlink" preserveAspectRatio="none" x="0px" y="0px" width="100px" height="100px" viewBox="0 0 100 100">
<defs>
<g id="Layer1_0_FILL">
<path fill="#000000" stroke="none" d="
M 47.05 49.15
Q 47.35 49.15 47.7 49.2 47.75 49.25 47.9 49.3 48.15 49.4 48.35 49.5 48.55 49.65 48.75 49.8 48.8 49.8 48.8 49.85 48.9 49.95 49.05 50.1
L 49.05 50.15
Q 49.2 50.3 49.35 50.5
L 49.35 50.55
Q 49.55 50.8 49.75 51.05 49.75 51.1 49.8 51.1 50.1 51.4 50.3 51.65 51.2 52.5 52.55 52.65 52.8 52.7 53.75 52.65 53.8 52.65 53.85 52.65 55.2 52.4 56.25 51.4 56.95 50.7 57.3 49.85
L 57.35 49.7
Q 57.45 48.8 56.8 48.65 56.1 48.55 55.35 49.7
L 55.25 49.85
Q 55.15 50 55 50.15 54.4 50.75 53.6 50.85 52.95 50.9 52.75 50.9 52 50.8 51.55 50.35 51.35 50.15 51.15 49.95 51 49.75 50.8 49.55
L 50.85 49.55
Q 50.65 49.25 50.4 49 50.2 48.7 49.95 48.5 49.6 48.2 49.25 47.95 48.9 47.8 48.5 47.65
L 48.45 47.6
Q 48.35 47.6 48.25 47.55
L 48.2 47.55
Q 47.65 47.4 47.05 47.4 45.2 47.4 43.95 48.7 43.7 48.95 42.8 50.45 42.5 50.9 43.25 51.15 44 51.4 44.8 50.45
L 45.2 49.95
Q 45.95 49.15 47.05 49.15 Z"/>
</g>
</defs>

<g transform="matrix( 1, 0, 0, 1, 0,0) ">
<use xlink:href="#Layer1_0_FILL"/>
</g>
</svg>
