
<svg xmlns="http://www.w3.org/2000/svg" version="1.1" xmlns:xlink="http://www.w3.org/1999/xlink" preserveAspectRatio="none" x="0px" y="0px" width="100px" height="100px" viewBox="0 0 100 100">
<defs>
<g id="Layer1_0_FILL">
<path fill="#000000" stroke="none" d="
M 59.95 68.6
L 59.9 68.6
Q 59.6 68.6 59.35 68.8 59.15 69.05 59.15 69.35 59.15 69.65 59.35 69.9 59.6 70.1 59.9 70.1
L 59.95 70.1
Q 60.25 70.1 60.5 69.9 60.7 69.65 60.7 69.35 60.7 69.05 60.5 68.8 60.25 68.6 59.95 68.6
M 52.05 68.6
Q 52 68.6 51.95 68.6 51.65 68.6 51.4 68.8 51.2 69.05 51.2 69.35 51.2 69.65 51.4 69.9 51.65 70.1 51.95 70.1 52 70.1 52.05 70.1
L 52.1 70.1
Q 52.4 70.1 52.65 69.9 52.85 69.65 52.85 69.35 52.85 69.05 52.65 68.8 52.4 68.6 52.1 68.6
L 52.05 68.6
M 56.05 66.1
Q 56.45 66.1 56.7 65.85 56.95 65.6 56.95 65.2 56.95 64.85 56.7 64.55 56.45 64.3 56.05 64.3 56 64.3 55.95 64.3 55.6 64.3 55.3 64.55 55.05 64.85 55.05 65.2 55.05 65.6 55.3 65.85 55.6 66.1 55.95 66.1 56 66.1 56.05 66.1
M 45 69.35
Q 45 69.05 44.8 68.8 44.55 68.6 44.25 68.6
L 44.2 68.6
Q 44.15 68.6 44.1 68.6 43.8 68.6 43.55 68.8 43.35 69.05 43.35 69.35 43.35 69.65 43.55 69.9 43.8 70.1 44.1 70.1 44.15 70.1 44.2 70.1
L 44.25 70.1
Q 44.55 70.1 44.8 69.9 45 69.65 45 69.35
M 48.8 64.55
Q 48.55 64.3 48.15 64.3 48.1 64.3 48.05 64.3 47.7 64.3 47.4 64.55 47.15 64.85 47.15 65.2 47.15 65.6 47.4 65.85 47.7 66.1 48.05 66.1 48.1 66.1 48.15 66.1 48.55 66.1 48.8 65.85 49.05 65.6 49.05 65.2 49.05 64.85 48.8 64.55
M 49.25 58.75
Q 49.7 58.3 49.7 57.65 49.7 57 49.25 56.55 48.8 56.1 48.15 56.1
L 48.1 56.1
Q 48.05 56.1 48 56.1 47.35 56.1 46.9 56.55 46.45 57 46.45 57.65 46.45 58.3 46.9 58.75 47.35 59.2 48 59.2 48.05 59.2 48.15 59.2 48.8 59.2 49.25 58.75
M 45.5 61.5
Q 45.5 60.95 45.15 60.6 44.75 60.2 44.25 60.2
L 44.2 60.2
Q 44.15 60.2 44.1 60.2 43.55 60.2 43.2 60.6 42.8 60.95 42.8 61.5 42.8 62 43.2 62.4 43.55 62.75 44.1 62.75
L 44.15 62.75
Q 44.2 62.75 44.25 62.75 44.75 62.75 45.15 62.4 45.5 62 45.5 61.5
M 46.3 54.5
Q 46.3 53.65 45.7 53.05 45.05 52.45 44.2 52.45 44.15 52.45 44.05 52.45 43.2 52.45 42.65 53.05 42 53.7 42 54.5 42 55.35 42.65 55.95 43.2 56.55 44.05 56.55 44.15 56.55 44.2 56.55 45.05 56.55 45.7 55.95 46.3 55.35 46.3 54.5
M 51.05 60.6
Q 50.65 60.95 50.65 61.5 50.65 62 51.05 62.4 51.4 62.75 51.95 62.75
L 52 62.75
Q 52.05 62.75 52.1 62.75 52.6 62.75 53 62.4 53.35 62 53.35 61.5 53.35 60.95 53 60.6 52.6 60.2 52.1 60.2
L 52.05 60.2
Q 52 60.2 51.95 60.2 51.4 60.2 51.05 60.6
M 54.85 56.55
Q 54.4 57 54.4 57.65 54.4 58.3 54.85 58.75 55.3 59.2 55.95 59.2
L 56 59.2
Q 56.65 59.2 57.1 58.75 57.55 58.3 57.55 57.65 57.55 57 57.1 56.55 56.65 56.1 56 56.1
L 55.95 56.1
Q 55.3 56.1 54.85 56.55
M 52.05 52.45
Q 52 52.45 51.9 52.45 51.05 52.45 50.5 53.05 49.85 53.7 49.85 54.5 49.85 55.35 50.5 55.95 51.05 56.55 51.9 56.55 52 56.55 52.05 56.55 52.9 56.55 53.55 55.95 54.15 55.35 54.15 54.5 54.15 53.65 53.55 53.05 52.9 52.45 52.05 52.45
M 60.7 52.85
Q 60.3 52.45 59.8 52.45 59.25 52.45 58.9 52.85 58.5 53.2 58.5 53.75 58.5 54.25 58.9 54.65 59.25 55 59.8 55 60.3 55 60.7 54.65 61.05 54.25 61.05 53.75 61.05 53.2 60.7 52.85
M 68.4 61.7
Q 68.4 61.4 68.2 61.15 67.95 60.95 67.65 60.95 67.35 60.95 67.1 61.15 66.9 61.4 66.9 61.7 66.9 62 67.1 62.25 67.35 62.45 67.65 62.45 67.95 62.45 68.2 62.25 68.4 62 68.4 61.7
M 61.2 61.5
Q 61.2 60.95 60.85 60.6 60.45 60.2 59.95 60.2
L 59.9 60.2
Q 59.35 60.2 59 60.6 58.6 60.95 58.6 61.5 58.6 62 59 62.4 59.35 62.75 59.9 62.75
L 59.95 62.75
Q 60.45 62.75 60.85 62.4 61.2 62 61.2 61.5
M 63.5 58.65
Q 63.9 58.65 64.15 58.4 64.4 58.15 64.4 57.75 64.4 57.4 64.15 57.1 63.9 56.85 63.5 56.85 63.15 56.85 62.85 57.1 62.6 57.4 62.6 57.75 62.6 58.15 62.85 58.4 63.15 58.65 63.5 58.65
M 68.2 54.3
Q 68.4 54.05 68.4 53.75 68.4 53.45 68.2 53.2 67.95 53 67.65 53 67.35 53 67.1 53.2 66.9 53.45 66.9 53.75 66.9 54.05 67.1 54.3 67.35 54.5 67.65 54.5 67.95 54.5 68.2 54.3
M 36.25 70.1
Q 36.55 70.1 36.8 69.9 37 69.65 37 69.35 37 69.05 36.8 68.8 36.55 68.6 36.25 68.6 35.95 68.6 35.7 68.8 35.5 69.05 35.5 69.35 35.5 69.65 35.7 69.9 35.95 70.1 36.25 70.1
M 40.15 64.3
Q 39.8 64.3 39.5 64.55 39.25 64.85 39.25 65.2 39.25 65.6 39.5 65.85 39.8 66.1 40.15 66.1 40.55 66.1 40.8 65.85 41.05 65.6 41.05 65.2 41.05 64.85 40.8 64.55 40.55 64.3 40.15 64.3
M 28.3 61.15
Q 28.1 61.4 28.1 61.7 28.1 62 28.3 62.25 28.55 62.45 28.85 62.45 29.15 62.45 29.4 62.25 29.6 62 29.6 61.7 29.6 61.4 29.4 61.15 29.15 60.95 28.85 60.95 28.55 60.95 28.3 61.15
M 28.3 54.3
Q 28.55 54.5 28.85 54.5 29.15 54.5 29.4 54.3 29.6 54.05 29.6 53.75 29.6 53.45 29.4 53.2 29.15 53 28.85 53 28.55 53 28.3 53.2 28.1 53.45 28.1 53.75 28.1 54.05 28.3 54.3
M 39.05 58.75
Q 39.5 59.2 40.15 59.2 40.8 59.2 41.25 58.75 41.7 58.3 41.7 57.65 41.7 57 41.25 56.55 40.8 56.1 40.15 56.1 39.5 56.1 39.05 56.55 38.6 57 38.6 57.65 38.6 58.3 39.05 58.75
M 35.35 60.6
Q 34.95 60.95 34.95 61.5 34.95 62 35.35 62.4 35.7 62.75 36.25 62.75 36.75 62.75 37.15 62.4 37.5 62 37.5 61.5 37.5 60.95 37.15 60.6 36.75 60.2 36.25 60.2 35.7 60.2 35.35 60.6
M 33 58.65
Q 33.35 58.65 33.65 58.4 33.9 58.15 33.9 57.75 33.9 57.4 33.65 57.1 33.35 56.85 33 56.85 32.6 56.85 32.35 57.1 32.1 57.4 32.1 57.75 32.1 58.15 32.35 58.4 32.6 58.65 33 58.65
M 36.7 55
Q 37.25 55 37.6 54.65 38 54.25 38 53.75 38 53.2 37.6 52.85 37.25 52.45 36.7 52.45 36.2 52.45 35.8 52.85 35.45 53.2 35.45 53.75 35.45 54.25 35.8 54.65 36.2 55 36.7 55
M 37.6 45
Q 37.25 44.6 36.7 44.6 36.2 44.6 35.8 45 35.45 45.35 35.45 45.9 35.45 46.4 35.8 46.8 36.2 47.15 36.7 47.15 37.25 47.15 37.6 46.8 38 46.4 38 45.9 38 45.35 37.6 45
M 33 48.95
Q 32.6 48.95 32.35 49.2 32.1 49.5 32.1 49.85 32.1 50.25 32.35 50.5 32.6 50.75 33 50.75 33.35 50.75 33.65 50.5 33.9 50.25 33.9 49.85 33.9 49.5 33.65 49.2 33.35 48.95 33 48.95
M 32.1 41.95
Q 32.1 42.35 32.35 42.6 32.6 42.85 33 42.85 33.35 42.85 33.65 42.6 33.9 42.35 33.9 41.95 33.9 41.6 33.65 41.3 33.35 41.05 33 41.05 32.6 41.05 32.35 41.3 32.1 41.6 32.1 41.95
M 37.2 37.5
Q 36.85 37.15 36.3 37.15 35.8 37.15 35.4 37.5 35.05 37.9 35.05 38.4 35.05 38.95 35.4 39.3 35.8 39.7 36.3 39.7 36.85 39.7 37.2 39.3 37.6 38.95 37.6 38.4 37.6 37.9 37.2 37.5
M 28.1 45.9
Q 28.1 46.2 28.3 46.45 28.55 46.65 28.85 46.65 29.15 46.65 29.4 46.45 29.6 46.2 29.6 45.9 29.6 45.6 29.4 45.35 29.15 45.15 28.85 45.15 28.55 45.15 28.3 45.35 28.1 45.6 28.1 45.9
M 28.3 38.6
Q 28.55 38.8 28.85 38.8 29.15 38.8 29.4 38.6 29.6 38.35 29.6 38.05 29.6 37.75 29.4 37.5 29.15 37.3 28.85 37.3 28.55 37.3 28.3 37.5 28.1 37.75 28.1 38.05 28.1 38.35 28.3 38.6
M 36.3 29.8
Q 36 29.8 35.75 30 35.55 30.25 35.55 30.55 35.55 30.85 35.75 31.1 36 31.3 36.3 31.3 36.6 31.3 36.85 31.1 37.05 30.85 37.05 30.55 37.05 30.25 36.85 30 36.6 29.8 36.3 29.8
M 68.2 46.45
Q 68.4 46.2 68.4 45.9 68.4 45.6 68.2 45.35 67.95 45.15 67.65 45.15 67.35 45.15 67.1 45.35 66.9 45.6 66.9 45.9 66.9 46.2 67.1 46.45 67.35 46.65 67.65 46.65 67.95 46.65 68.2 46.45
M 64.15 49.2
Q 63.9 48.95 63.5 48.95 63.15 48.95 62.85 49.2 62.6 49.5 62.6 49.85 62.6 50.25 62.85 50.5 63.15 50.75 63.5 50.75 63.9 50.75 64.15 50.5 64.4 50.25 64.4 49.85 64.4 49.5 64.15 49.2
M 62.6 41.95
Q 62.6 42.35 62.85 42.6 63.15 42.85 63.5 42.85 63.9 42.85 64.15 42.6 64.4 42.35 64.4 41.95 64.4 41.6 64.15 41.3 63.9 41.05 63.5 41.05 63.15 41.05 62.85 41.3 62.6 41.6 62.6 41.95
M 68.2 38.6
Q 68.4 38.35 68.4 38.05 68.4 37.75 68.2 37.5 67.95 37.3 67.65 37.3 67.35 37.3 67.1 37.5 66.9 37.75 66.9 38.05 66.9 38.35 67.1 38.6 67.35 38.8 67.65 38.8 67.95 38.8 68.2 38.6
M 57.05 48.7
Q 56.6 48.25 55.95 48.25 55.3 48.25 54.85 48.7 54.4 49.15 54.4 49.8 54.4 50.45 54.85 50.9 55.3 51.35 55.95 51.35 56.6 51.35 57.05 50.9 57.5 50.45 57.5 49.8 57.5 49.15 57.05 48.7
M 60.7 45
Q 60.3 44.6 59.8 44.6 59.25 44.6 58.9 45 58.5 45.35 58.5 45.9 58.5 46.4 58.9 46.8 59.25 47.15 59.8 47.15 60.3 47.15 60.7 46.8 61.05 46.4 61.05 45.9 61.05 45.35 60.7 45
M 52.15 43.35
Q 51.3 43.35 50.65 43.95 50.05 44.55 50.05 45.4 50.05 46.25 50.65 46.85 51.3 47.45 52.15 47.45 53 47.45 53.55 46.85 54.2 46.2 54.2 45.4 54.2 44.55 53.55 43.95 53 43.35 52.15 43.35
M 51.2 37.5
Q 50.85 37.9 50.85 38.4 50.85 38.95 51.2 39.3 51.6 39.7 52.1 39.7 52.65 39.7 53 39.3 53.4 38.95 53.4 38.4 53.4 37.9 53 37.5 52.65 37.15 52.1 37.15 51.6 37.15 51.2 37.5
M 57.6 42.25
Q 57.6 41.6 57.15 41.15 56.7 40.7 56.05 40.7 55.4 40.7 54.95 41.15 54.5 41.6 54.5 42.25 54.5 42.9 54.95 43.35 55.4 43.8 56.05 43.8 56.7 43.8 57.15 43.35 57.6 42.9 57.6 42.25
M 59.95 37.15
Q 59.45 37.15 59.05 37.5 58.7 37.9 58.7 38.4 58.7 38.95 59.05 39.3 59.45 39.7 59.95 39.7 60.5 39.7 60.85 39.3 61.25 38.95 61.25 38.4 61.25 37.9 60.85 37.5 60.5 37.15 59.95 37.15
M 48 47.4
Q 46.95 47.4 46.2 48.15 45.45 48.9 45.45 49.95 45.45 50.2908203125 45.5 50.6 45.6935546875 51.2435546875 46.2 51.75 46.95 52.5 48 52.5 48.05 52.5 48.15 52.5
L 48.2 52.5
Q 49.25 52.5 50 51.75 50.5064453125 51.2435546875 50.65 50.6 50.75 50.2908203125 50.75 49.95 50.75 48.9 50 48.15 49.25 47.4 48.2 47.4
L 48.15 47.4
Q 48.05 47.4 48 47.4
M 41.65 48.7
Q 41.2 48.25 40.55 48.25 39.9 48.25 39.45 48.7 39 49.15 39 49.8 39 50.45 39.45 50.9 39.9 51.35 40.55 51.35 41.2 51.35 41.65 50.9 42.1 50.45 42.1 49.8 42.1 49.15 41.65 48.7
M 44.3 43.35
Q 43.45 43.35 42.8 43.95 42.2 44.55 42.2 45.4 42.2 46.25 42.8 46.85 43.45 47.45 44.3 47.45 45.15 47.45 45.7 46.85 46.35 46.2 46.35 45.4 46.35 44.55 45.7 43.95 45.15 43.35 44.3 43.35
M 41.8 42.25
Q 41.8 41.6 41.35 41.15 40.9 40.7 40.25 40.7 39.6 40.7 39.15 41.15 38.7 41.6 38.7 42.25 38.7 42.9 39.15 43.35 39.6 43.8 40.25 43.8 40.9 43.8 41.35 43.35 41.8 42.9 41.8 42.25
M 43.35 39.3
Q 43.75 39.7 44.25 39.7 44.8 39.7 45.15 39.3 45.55 38.95 45.55 38.4 45.55 37.9 45.15 37.5 44.8 37.15 44.25 37.15 43.75 37.15 43.35 37.5 43 37.9 43 38.4 43 38.95 43.35 39.3
M 47.1 41.15
Q 46.65 41.6 46.65 42.25 46.65 42.9 47.1 43.35 47.55 43.8 48.2 43.8 48.85 43.8 49.3 43.35 49.75 42.9 49.75 42.25 49.75 41.6 49.3 41.15 48.85 40.7 48.2 40.7 47.55 40.7 47.1 41.15
M 48.15 33.8
Q 47.75 33.8 47.5 34.05 47.25 34.3 47.25 34.7 47.25 35.05 47.5 35.35 47.75 35.6 48.15 35.6 48.5 35.6 48.8 35.35 49.05 35.05 49.05 34.7 49.05 34.3 48.8 34.05 48.5 33.8 48.15 33.8
M 41.15 34.7
Q 41.15 34.3 40.9 34.05 40.6 33.8 40.25 33.8 39.85 33.8 39.6 34.05 39.35 34.3 39.35 34.7 39.35 35.05 39.6 35.35 39.85 35.6 40.25 35.6 40.6 35.6 40.9 35.35 41.15 35.05 41.15 34.7
M 43.7 30
Q 43.5 30.25 43.5 30.55 43.5 30.85 43.7 31.1 43.95 31.3 44.25 31.3 44.55 31.3 44.8 31.1 45 30.85 45 30.55 45 30.25 44.8 30 44.55 29.8 44.25 29.8 43.95 29.8 43.7 30
M 55.15 34.7
Q 55.15 35.05 55.4 35.35 55.65 35.6 56.05 35.6 56.4 35.6 56.7 35.35 56.95 35.05 56.95 34.7 56.95 34.3 56.7 34.05 56.4 33.8 56.05 33.8 55.65 33.8 55.4 34.05 55.15 34.3 55.15 34.7
M 52.1 29.8
Q 51.8 29.8 51.55 30 51.35 30.25 51.35 30.55 51.35 30.85 51.55 31.1 51.8 31.3 52.1 31.3 52.4 31.3 52.65 31.1 52.85 30.85 52.85 30.55 52.85 30.25 52.65 30 52.4 29.8 52.1 29.8
M 59.4 30
Q 59.2 30.25 59.2 30.55 59.2 30.85 59.4 31.1 59.65 31.3 59.95 31.3 60.25 31.3 60.5 31.1 60.7 30.85 60.7 30.55 60.7 30.25 60.5 30 60.25 29.8 59.95 29.8 59.65 29.8 59.4 30 Z"/>
</g>
</defs>

<g transform="matrix( 1, 0, 0, 1, 1.75,0.05) ">
<use xlink:href="#Layer1_0_FILL"/>
</g>
</svg>
