
<svg xmlns="http://www.w3.org/2000/svg" version="1.1" xmlns:xlink="http://www.w3.org/1999/xlink" preserveAspectRatio="none" x="0px" y="0px" width="100px" height="100px" viewBox="0 0 100 100">
<defs>
<g id="Layer1_0_FILL">
<path fill="#000000" stroke="none" d="
M 15.9 61.9
Q 16.5 62.85 49.2 63 81.8 63 81.5 62.7 80.65 62.05 48.1 61.65 15.55 61.25 15.9 61.9
M 23.5 49.9
Q 23.5 50.85 54.7 51 85.85 51 85.4 50.7 84.65 49.95 54.1 49.6 23.5 49.2 23.5 49.9
M 27.5 44
Q 49.9 44.8 68.35 44.85 86.5 44.85 86.5 44.1 86.5 43.05 49.8 43.2 12 43.35 27.5 44
M 47.4 83.9
Q 63.7 83.9 63.4 83.6 62.75 83 50.3 82.75 37.85 82.5 35 83 30.95 83.75 47.4 83.9
M 65.8 77.3
Q 64.15 77.8 67.5 77.8 70.8 77.8 69.3 77.3 67.45 76.95 65.8 77.3
M 15.9 59.1
Q 15.65 59.5 25 59.75 34.55 60 49.6 60 83.8 60 83.4 59.6 82.75 58.95 49.55 58.7 16.35 58.45 15.9 59.1
M 17.5 71.2
Q 17.5 71.5 26.85 71.7 36.05 71.9 49.3 71.9 80.75 71.7 78.5 71.4 74.05 70.85 45.8 70.8 17.5 70.7 17.5 71.2
M 25.85 55.45
Q 16.6 55.7 18.5 56 23.85 56.75 55.15 56.85 86.55 56.9 86.1 56.1 85.8 55.7 75.55 55.45 65.15 55.2 49.8 55.2 35.3 55.2 25.85 55.45
M 13.5 53.2
Q 13.5 53.5 24 53.7 34.4 53.9 49.3 53.9 84.8 53.7 83.5 53.4 80.9 52.85 47.25 52.75 13.5 52.6 13.5 53.2
M 34.8 74.3
Q 28.8 74.4 33 74.5 37.3 74.6 48 74.6 58.75 74.6 63.25 74.5 67.55 74.4 61.8 74.3 48.65 73.95 34.8 74.3
M 31.15 76.8
Q 26.5 76.95 26.5 77.3 26.5 78 45.3 77.8 61.4 77.75 60.45 77.4 59.45 77.05 42.2 76.8 35.65 76.65 31.15 76.8
M 28.4 80.1
Q 27.8 80.5 33.4 80.75 39.2 81 48.9 81 70.8 81 70.4 80.6 69.7 80 49.55 79.75 29.35 79.5 28.4 80.1
M 19.45 67.1
Q 17.5 67.2 17.5 67.8 17.5 68.4 24.2 68.75 30.7 69.05 46.3 69.3 75.2 69.5 76 69.8 76.95 69.95 78.5 69 80.15 68 57 68 33.7 68 25.8 67.3 21.3 67 19.45 67.1
M 26.9 64.5
Q 21.95 64.7 26.5 65 37.95 65.75 56.85 65.8 75.8 65.85 74.6 65.1 74 64.7 65.35 64.5 56.5 64.25 45.1 64.3 31.95 64.3 26.9 64.5
M 17 40
Q 16.25 40.45 38.5 41 69.5 41.75 77.05 41.75 84.5 41.8 84.5 41.1 84.5 40.35 51.45 39.8 18.35 39.25 17 40
M 57 38.7
Q 83.15 38.7 77 38 70.35 37.3 43.5 37.3 32.7 37.3 26.7 37.5 20.75 37.65 23.5 37.9 29 38.5 57 38.7
M 46 30
Q 76.95 30.75 78.4 29.4 78.7 29.1 56.4 28.9 33.45 28.7 30 28.4 28.35 28.25 26.75 28.4 25.1 28.5 24.5 28.8 23.9 29.1 30.25 29.45 36.3 29.75 46 30
M 48.7 22.2
Q 74.8 22.65 73.3 21.5 72.55 20.9 51.45 20.65 30.4 20.4 30 21 29.7 21.45 34.8 21.8 39.95 22.15 48.7 22.2
M 77.5 47.6
Q 80.45 47.45 67.5 47 46.1 46.2 30.25 46.15 14.55 46.15 14.1 46.9 13.6 47.7 50.3 47.7 74.5 47.7 77.5 47.6
M 78.8 32.7
Q 79.25 32.45 76.7 32.3 74.05 32.1 70 32.1
L 39.5 31.4
Q 28.3 31.05 23.9 31.1 19.5 31.2 20 31.8 21.05 33 48.8 33 76.5 33.2 76.5 33.8 76.5 34.1 67.9 34.3 59.1 34.5 47.3 34.4 34.45 34.35 28.7 34.5 23.15 34.7 27.5 35 37.95 35.7 60.35 35.75 82.7 35.75 81 35.1 80.15 34.7 79.4 34.6 78.6 34.5 78.3 34.7 77.5 35 77.5 34.1 77.5 33.7 77.9 33.3 78.3 32.85 78.8 32.7
M 78.5 27
Q 78.5 26.55 72.4 26.2 66.05 25.9 55.3 25.8
L 32 25.6 53.5 25
Q 70.45 24.55 68.8 24.3 67.15 24.05 44 23.5 25.3 23.15 27 23.6 29.7 24.45 30.05 25.3 30.4 26.15 27.8 25.7 26.5 25.4 25.35 25.5 24.25 25.6 24 26 23.35 26.95 39.2 27.3 47.9 27.4 66.8 27.8 78.5 27.95 78.5 27
M 41 18.7
Q 43.45 18.7 44.45 18.6 45.45 18.45 44.3 18.3 41.55 17.95 38.3 18.3 36.95 18.45 37.75 18.6 38.55 18.7 41 18.7
M 42.8 16.3
Q 42.6 16.6 42.8 16.8 43 17 43.5 17 44.05 17 44.25 16.8 44.45 16.6 44.2 16.3 43.5 15.8 42.8 16.3
M 47.4 16.15
Q 46.8 16.1 46.3 16.3 45.7 16.55 45.9 16.7 46.1 16.9 46.9 16.9 47.7 16.95 48.1 16.8 48.5 16.65 48.2 16.4 47.95 16.15 47.4 16.15
M 66.85 19.8
Q 69.5 19.65 69.2 19.4 68.7 18.9 65.3 18.7 62 18.35 62.3 17.2 62.4 16.55 61.05 16.35 59.75 16.1 56.3 16.2
L 50 16.4 55.3 16.7
Q 57.45 16.85 58.95 17.25 60.5 17.65 60.5 18.1 60.5 18.5 59.2 18.65 57.8 18.85 55.9 18.7 54 18.55 52.6 18.7 51.1 18.85 50.9 19.2 50.65 19.5 53.4 19.75 56.2 20 60.1 20 64.1 20 66.85 19.8 Z"/>
</g>
</defs>

<g transform="matrix( 1, 0, 0, 1, 0,0) ">
<use xlink:href="#Layer1_0_FILL"/>
</g>
</svg>
