
<svg xmlns="http://www.w3.org/2000/svg" version="1.1" xmlns:xlink="http://www.w3.org/1999/xlink" preserveAspectRatio="none" x="0px" y="0px" width="100px" height="100px" viewBox="0 0 100 100">
<defs>
<g id="Layer1_0_FILL">
<path fill="#000000" stroke="none" d="
M 64.5 86
Q 64.5 84.9943359375 64.2 84.95 63.675390625 84.990234375 63 86.1 62.78203125 86.5478515625 62.85 86.85 62.9828125 87.04921875 63.3 87.05 63.7958984375 87.05 64.15 86.75
L 64.2 86.75
Q 64.4998046875 86.4310546875 64.5 86
M 32.4 82.9
Q 34.4259765625 83.8859375 36.25 85.15 39.358203125 87.2658203125 41.65 88
L 41.65 88
Q 42.776171875 88.3931640625 43.3 88.3 43.6892578125 88.2798828125 43.7 87.95 43.643359375 87.3951171875 36.5 82.95 29.4236328125 78.470703125 28.3 78.45 27.5974609375 78.453125 27.35 78.8 27.1138671875 79.239453125 27.35 80.05
L 27.35 80.1
Q 27.79296875 81.8962890625 29.35 81.95 30.281640625 81.9412109375 32.4 82.9
M 28 69.05
L 25.65 71.85
Q 24.7158203125 72.9783203125 24.05 74.4
L 24.05 74.4
Q 23.3603515625 75.7513671875 23.35 76.6 23.3455078125 77.1201171875 23.45 77.35 23.4921875 77.4248046875 23.55 77.4
L 23.55 77.4
Q 24.0279296875 77.2181640625 25.5 75.65 28.5451171875 72.705078125 28.95 72.75 29.4818359375 72.7150390625 40.45 80.6 47.968359375 85.98046875 51.25 87.55 52.7828125 88.31328125 53.55 88.3 54.10390625 88.27890625 54.1 87.7 54.06796875 86.64296875 58.15 82
L 62.2 77.7
Q 62.29609375 77.65078125 62.4 77.65 62.501953125 77.6498046875 62.55 77.7
L 65.55 80.6
Q 66.7400390625 81.74453125 68.1 82.4 69.328515625 83.0083984375 69.85 82.9 69.8958984375 82.8478515625 69.85 82.7 69.7345703125 82.35390625 69.25 81.7 68.2662109375 80.3728515625 66.15 78.65
L 61.15 74.65 58.55 78.95
Q 54.9580078125 85.215625 51.1 84.5 47.2705078125 83.8591796875 36.1 75.25
L 28 69.05
M 53.9 24.55
Q 53.97578125 24.4880859375 54.05 24.5 54.166796875 24.503125 54.2 24.55
L 59.95 31.05 60 31.1
Q 62.1875 33.7359375 64.3 35.75 66.2619140625 37.615625 66.8 37.65 68.23046875 37.60390625 73 32.4
L 73 32.35
Q 75.0986328125 29.959765625 77 28.7
L 77 28.7
Q 78.9029296875 27.3478515625 79.9 27.75
L 79.85 27.75
Q 80.4333984375 27.9599609375 80.7 27.95 80.7828125 27.9765625 80.8 28 80.8220703125 27.7337890625 80.1 26.15
L 80.1 26.15
Q 79.2134765625 24.6068359375 78.3 24.95 77.2701171875 25.428515625 72.95 29.6
L 66.85 35.55
Q 66.82109375 35.628515625 66.75 35.65 66.6869140625 35.6685546875 66.6 35.65 66.565234375 35.627734375 66.5 35.55
L 63.25 31.9
Q 61.565234375 30.1162109375 57 24.5
L 54.15 20.8 48.9 26.05
Q 46.51171875 28.38984375 44.35 29.95 41.950390625 31.671484375 41.05 31.65 40.1462890625 31.6740234375 38.1 30.1 36.0740234375 28.4896484375 34.25 26.35 29.8712890625 21.3033203125 28.85 21.25 27.52734375 21.4224609375 22.6 25.75
L 22.6 25.7
Q 20.1421875 27.9408203125 19.05 29.2 18.1244140625 30.2564453125 18.2 30.4
L 18.2 30.4
Q 18.501953125 30.573046875 19.75 29.95 21.3251953125 29.233203125 22.95 27.95 27.5005859375 24.6263671875 29.1 24.65 29.813671875 24.623828125 31.7 26.3
L 31.7 26.3
Q 33.5375 27.8716796875 35.4 30.2 39.0615234375 34.5892578125 40.55 34.4
L 40.55 34.4
Q 42.0912109375 34.17890625 49.9 27.95
L 53.9 24.55
M 46.75 12.2
Q 46.7244140625 12.1494140625 46.65 12.15 46.2205078125 12.159765625 45.7 12.55 45.675390625 12.5640625 45.65 12.55 45.04375 12.8806640625 44.8 13.4 44.8142578125 13.4255859375 44.8 13.45 44.3572265625 14.11796875 43.45 14.35 42.6873046875 14.57421875 41.9 14.15
L 41.9 14.15
Q 40.284765625 13.6078125 39.7 14.35
L 39.7 14.3
Q 39.2294921875 15.1630859375 40.35 16.55
L 40.35 16.5
Q 41.7576171875 18.1728515625 42.7 17.95
L 42.7 17.95
Q 43.71328125 17.612890625 45.5 15 46.368359375 13.6548828125 46.65 12.75
L 46.65 12.75
Q 46.77890625 12.3904296875 46.75 12.2
M 67.55 22.75
Q 66.226953125 22.175390625 61.8 17.75
L 55.7 11.8 40.95 23.9
Q 40.9068359375 23.9412109375 40.85 23.95 40.773046875 23.9552734375 40.7 23.9 40.6396484375 23.9017578125 40.6 23.85
L 37.5 19.85
Q 36.225 18.2326171875 35 17.35 33.909375 16.5017578125 33.55 16.7
L 33.55 16.75
Q 33.294921875 17.0130859375 34 18.35 34.86796875 20.0150390625 36.6 22.15
L 40.55 26.85 47.5 20.65
Q 53.6990234375 15.21484375 56.15 15.45 58.657421875 15.61484375 63.25 22.15 64.65 24.198828125 66.05 25.85
L 66.05 25.8
Q 67.2283203125 27.196875 67.45 27.25 68.185546875 27.203125 71.05 24.05 73.4427734375 21.4603515625 73.2 20.3
L 73.2 20.3
Q 73.1673828125 20.1681640625 73.05 20.1 72.8765625 20.09609375 72.6 20.2 71.8802734375 20.5677734375 70.6 21.8 68.9294921875 23.411328125 67.55 22.75
M 68.9 17.75
Q 68.9 18.15 69.3 18.15 69.7 18.15 69.7 17.75 69.7 17.35 69.3 17.35 68.9 17.35 68.9 17.75
M 86.5 62.85
Q 86.5978515625 62.824609375 86.6 62.7 86.5603515625 60.003125 79.9 55.75
L 76.8 53.7 73.9 58.65
Q 72.8142578125 60.8412109375 71.45 62.45
L 71.45 62.45
Q 69.9330078125 64.1966796875 69.3 64.15 67.804296875 64.169140625 62.55 60.7 57.3501953125 57.2263671875 56.95 56 56.5943359375 55.0947265625 54.9 55.1 54.05234375 55.0720703125 53.6 55.25 53.3017578125 55.4462890625 53.3 55.8 53.3048828125 55.837890625 53.3 55.85 52.94921875 57.096484375 50.25 60.5
L 47.25 64.15
Q 47.191796875 64.2298828125 47.1 64.25 46.99296875 64.2587890625 46.9 64.2
L 36.9 57.6 36.9 57.6
Q 26.878125 51.1744140625 26 51.15 24.9623046875 51.2001953125 19.65 56.95 14.28515625 62.8568359375 14.25 64 14.2458984375 64.657421875 14.45 64.8 14.75234375 64.94140625 15.3 64.6
L 15.3 64.6
Q 16.6333984375 63.6955078125 19.95 59.8 21.8244140625 57.6591796875 23.8 56.15 25.842578125 54.5263671875 26.9 54.55 27.8337890625 54.5275390625 31.15 56.4 34.5869140625 58.3361328125 38.25 60.95 47.483203125 67.36875 48.1 67.4 48.1373046875 67.395703125 48.15 67.4 48.7224609375 67.5046875 49.55 65.2
L 49.55 65.2
Q 49.86640625 64.255078125 50.8 62.8
L 50.8 62.8
Q 51.711328125 61.4833984375 52.7 60.55 54.6056640625 58.9064453125 56.15 59.35 57.683203125 59.7576171875 63 63.15
L 70.35 67.8 72.2 65.05
Q 74.3498046875 61.89921875 76.5 59.3 78.1609375 57.15703125 79.05 57.35
L 79.1 57.35
Q 79.921875 57.476171875 82.95 60.3 84.5962890625 61.9390625 85.75 62.55 86.2802734375 62.853515625 86.5 62.85
M 82.8 68.85
Q 83.58046875 68.8529296875 83.65 68.65 83.5880859375 68.31484375 82.75 67.3 81.15625 65.33125 80.25 65.6
L 80.2 65.6
Q 79.2640625 65.9951171875 77.95 69.2 75.75 74.63359375 73.5 74.85 71.315234375 75.0845703125 65.35 70.7 58.512890625 65.4859375 57.7 65.45 57.2953125 65.5052734375 54.55 69.85 53.337890625 71.753515625 52.05 73.05 50.669921875 74.5900390625 50.05 74.55 48.9234375 74.5712890625 41.75 70 34.67265625 65.40390625 31.4 62.5
L 31.35 62.45
Q 29.5951171875 60.9875 28.7 61.35 27.634375 61.8291015625 24.1 66.1 19.7330078125 71.299609375 20 72.3 20.0416015625 72.3197265625 20.1 72.3 20.4103515625 72.197265625 20.95 71.75 22.209765625 70.7626953125 24.5 68.25
L 28.9 63.4
Q 28.9853515625 63.3599609375 29.05 63.35 29.156640625 63.3443359375 29.2 63.4
L 38.45 69.25
Q 47.7478515625 75.237109375 48.7 76.6
L 48.7 76.6
Q 49.5978515625 78.192578125 50.8 77.6
L 50.75 77.6
Q 52.02890625 76.936328125 54.1 73.5 55.2998046875 71.596484375 56.45 70.25 57.832421875 68.8068359375 58.35 68.85 59.6369140625 68.8248046875 63.35 71.1
L 63.35 71.15
Q 66.951953125 73.3615234375 69.8 75.9
L 69.8 75.9 72.75 78.45 76.6 73.75 76.6 73.7
Q 81.13203125 68.8060546875 82.8 68.85
M 87.25 53.5
Q 88.037109375 53.9599609375 88.45 54.05 88.540625 54.098828125 88.6 54.1 88.5376953125 53.2267578125 82.5 48.6
L 75.85 43.55 67.15 53.65
Q 67.0791015625 53.7435546875 66.95 53.75 66.87890625 53.759375 66.8 53.7
L 54.2 44.55 49 49.15 49 49.15
Q 43.38984375 53.7912109375 42.5 53.75 41.59765625 53.787890625 34.1 47
L 27.1 40.5 20.6 44.05
Q 14.3658203125 47.4724609375 12.65 49.35
L 12.6 49.35
Q 11.6341796875 50.5763671875 11.55 51.1 11.5421875 51.245703125 11.6 51.3 11.8013671875 51.386328125 12.15 51.35 13.943359375 51.1005859375 18.55 48.2 21.037109375 46.586328125 23.6 45.3 26.0734375 44.1376953125 26.9 44.15 27.8494140625 44.126953125 30.5 46.05 33.012109375 48.0103515625 35.6 50.7 42.0177734375 56.817578125 42.8 57.15 43.4201171875 56.928125 47.65 52.65 52.3341796875 48.0138671875 54.05 48.05 55.7017578125 48.0341796875 59.85 50.8 63.962109375 53.56015625 65.9 55.9
L 65.95 55.95
Q 66.9400390625 56.9787109375 67.35 57.05
L 67.4 57.05
Q 67.662109375 57.0525390625 68 56.1 68.883984375 54.1212890625 72.35 50.15
L 75.95 46.15
Q 76.0349609375 46.1080078125 76.1 46.1 76.219921875 46.092578125 76.3 46.15
L 82.45 50.4
Q 85.6275390625 52.633984375 87.25 53.5
M 82.7 42.35
Q 84.572265625 43.7822265625 86 44.45 87.390625 45.0818359375 87.65 44.85 87.919140625 44.578125 87.55 43.95
L 87.5 43.95
Q 87.09609375 43.262890625 86.05 42.5 82.1505859375 39.400390625 80.45 38.1
L 80.4 38.05
Q 77.689453125 35.5814453125 76.95 35.55 76.358984375 35.5994140625 72.15 40 67.5125 44.6890625 66.15 44.65 65.50390625 44.681640625 63.3 42.95 61.1380859375 41.33984375 58.7 38.95
L 53.05 33.5 41.1 43.4
Q 41.03515625 43.4548828125 40.95 43.45 40.8513671875 43.4546875 40.75 43.4
L 37.35 40.4
Q 33.5107421875 37.0875 30.6 33.75
L 30.6 33.75 27.25 30.1 20.8 34.45 20.75 34.45
Q 18.051953125 36.2001953125 15.95 38
L 15.95 38
Q 13.920703125 39.689453125 13.55 40.45 13.4388671875 40.8021484375 13.45 40.95
L 13.55 40.95
Q 14.193359375 40.847265625 15.8 39.75
L 15.8 39.75
Q 23.8197265625 34.65703125 24.95 34.3 26.30625 33.8388671875 29.4 36.1 33.1642578125 38.911328125 36.15 42.1 39.4630859375 45.411328125 40.4 45.45 41.4443359375 45.4078125 46.6 40.95
L 46.6 40.95 51.65 36.25
Q 51.7380859375 36.2091796875 51.8 36.2 51.9208984375 36.1955078125 52 36.25
L 55.5 38.85
Q 58.66171875 40.956640625 62.15 44.7 64.7046875 47.3412109375 66.5 46.95 68.3998046875 46.5388671875 72.2 42.35 75.276171875 39.1666015625 76.9 39.2 78.50078125 39.1748046875 82.7 42.35 Z"/>
</g>
</defs>

<g transform="matrix( 1, 0, 0, 1, 0,0) ">
<use xlink:href="#Layer1_0_FILL"/>
</g>
</svg>
