
<svg xmlns="http://www.w3.org/2000/svg" version="1.1" xmlns:xlink="http://www.w3.org/1999/xlink" preserveAspectRatio="none" x="0px" y="0px" width="100px" height="100px" viewBox="0 0 100 100">
<defs>
<g id="Layer1_0_FILL">
<path fill="#000000" stroke="none" d="
M 69 83.1
Q 69.1 82.75 69.05 82.6 69 82.45 68.75 82.45 68.6 82.45 68.5 82.55 68.4 82.65 68.4 82.8 68.4 83.1 67.2 84.9 65.95 86.75 65.4 87.3
L 64.5 88.35
Q 63.6 89.5 63.5 89.55 63.3 89.75 62.55 90.7 62.3 91 62.15 91.3 62.05 91.4 62.05 91.5 62.05 91.55 62.05 91.6 62.05 91.65 62.15 91.65 62.35 91.65 62.8 91.2 63.25 90.8 63.7 90.15 64.25 89.4 64.75 88.95 65.25 88.4 65.85 87.6 66.45 86.8 67.05 86.2 67.5 85.75 67.5 85.55 67.5 85.4 68 84.85 68.5 84.25 68.5 84 68.5 83.8 68.65 83.75 68.85 83.7 69 83.1
M 73.75 82.15
L 73.75 82.2
Q 74.1 81.75 74.05 81.65 74 81.55 73.8 81.55 73.7 81.6 73.5 81.7
L 73.45 81.7
Q 73.05 82 73.05 82.25 73.05 82.35 73 82.4 72.9 82.45 72.8 82.45 72.7 82.45 72.65 82.4
L 72.65 82.35
Q 72.75 82.2 72.7 82.15 72.7 82.05 72.55 82.05 72.45 82.05 72.25 82.3 72.1 82.5 71.95 82.85 71.55 83.55 71.25 83.9
L 71.25 83.85
Q 70.85 84.2 70.8 84.45
L 70.8 84.4
Q 70.7 84.65 70.15 85.3 69.7 85.9 68.55 87.4 67.55 88.8 67.4 88.85 67.2 88.95 67.2 89.25 67.15 89.45 66.8 89.8 66.35 90.2 66.35 90.4 66.35 90.6 66.5 90.65 66.6 90.65 66.75 90.5 67.05 90.25 67.75 89.4 68.25 88.7 68.9 88 69.55 87.3 69.55 87.15 69.55 87.05 70 86.55 70.4 86.1 71.05 85.15 71.6 84.35 72.9 83.1 73.4 82.55 73.75 82.15
M 76.5 78.7
Q 76.5 78.95 76.75 78.95 77 78.95 77 78.7 77 78.4 76.75 78.4 76.5 78.4 76.5 78.7
M 59.45 90.15
Q 58.65 91.1 58.7 91.25 58.7 91.45 58.85 91.45 58.95 91.45 60.1 90.25 61.25 89.1 61.25 88.95 61.25 88.85 61.6 88.55 62 88.15 62.85 87.2 63.7 86.3 64.25 85.6 65.5 84 66.6 82.9 67.7 81.75 67.95 81.75 68.1 81.75 68.2 81.7 68.3 81.6 68.3 81.5 68.3 81.3 68.2 81.25 68.15 81.15 67.95 81.2 67.65 81.25 67.05 81.7 65.8 82.6 64.85 83.95 64.35 84.55 63.65 85.35 62.85 86.2 62.25 86.95 61.7 87.75 60.85 88.6 60.15 89.25 59.45 90.15
M 58.95 89.1
Q 59.8 88.2 60.65 87.2
L 61.75 85.8
Q 62.15 85.35 63.35 83.75 63.85 83.1 64.3 82.65 64.7 82.2 64.8 82.15 64.9 82.15 65 82.1 65.05 82 65 81.9 64.9 81.7 64.3 81.9 63.7 82.05 63.75 82.3 63.7 82.4 63.15 83.05 62.5 83.75 62.5 83.9 62.5 84 61.95 84.65 61.4 85.25 60.9 85.9
L 59.15 88
Q 58.25 89.1 57.1 90.3 56.6 90.85 56.2 91.3 55.85 91.8 55.85 91.9 55.85 92.15 55.95 92.2 56 92.3 56.2 92.15 56.45 91.95 57.35 90.9 58 90.15 58.95 89.1
M 46.7 88.5
Q 46.65 88.5 46.5 88.5 46.3 88.5 46.05 88.6 45.75 88.75 45.6 88.9 45.2 89.3 45.1 89.3 44.95 89.3 44.05 89.85 43.35 90.35 42.6 90.7 41.9 91 41.7 90.95 41.6 90.9 41.55 90.95 41.5 91 41.55 91.1 41.573046875 91.1845703125 41.65 91.3 41.95 91.6 42.45 91.45 42.95 91.35 44.3 90.5 45.6 89.7 46.25 89.2 46.7 88.8 46.75 88.7 46.8 88.55 46.7 88.5
M 46.6 81.9
Q 46.55 82.15 46.55 82.6 46.55 83.55 46.95 85.05 47.25 86.2 47.55 87.1 47.85 87.9 48.85 90.05 49.1 90.6 49.35 91 49.6 91.45 49.65 91.45 49.9 91.45 49.9 90.8 49.9 90.15 49.7 90.05 49.5 89.95 48.8 88.45 48.1 86.9 47.85 85.9 47.6 84.95 47.45 83.75 47.25 82.55 47.25 82.15 47.25 81.95 47.2 81.8 47.1 81.65 46.9 81.65 46.7 81.6 46.6 81.9
M 48.95 81.7
Q 48.85 82.15 48.9 83 48.9 84.75 49.35 86.4
L 49.4 86.75
Q 49.3978515625 86.762890625 49.55 87.55 49.707421875 88.384375 50.05 89.25 50.39609375 90.10625 50.65 90.55 50.8 90.75 50.85 90.85 50.9 90.9 50.9 90.95 51 91 51.05 90.95 51.15 90.85 50.95 89.95 50.8 89.1 50.55 88.35 50.521875 88.209765625 50.45 88.15 50.2509765625 87.142578125 50.1 86.75 50.137890625 86.860546875 50.15 86.95
L 50.1 86.7
Q 50 86.45 49.95 86.05 49.9376953125 85.9400390625 49.9 86.2
L 49.65 84.4
Q 49.6 84.35 49.6 84.2 49.55 83.9 49.55 82.95 49.55 82.1 49.55 81.7 49.45 81.25 49.3 81.25 49.05 81.25 48.95 81.7
M 50 88.5
L 50 88.5 50 88.45 50 88.5
M 43.9 78.1
L 43.75 78.1
Q 43.7 78.15 43.7 78.35 43.7 78.55 43.75 78.65 43.75 78.7 43.8 78.7 43.85 78.75 43.95 78.7 44.1 78.55 43.95 78.2 43.9 78.15 43.9 78.1
M 41.4 74.7
L 41.4 74.75
Q 41.3 74.95 41.75 76.3 42.15 77.6 42.45 77.95 42.65 78.2 43 78.85 43.25 79.4 43.6 79.55 43.8 79.6 43.95 79.5 44.05 79.45 44.05 79.2 44.05 79.05 43.95 78.95 43.9 78.8 43.75 78.8 43.7 78.8 43.6 78.6 43.45 78.4 43.3 78.1 42.9 77.3 42.8 77.25 42.65 77.1 42.4 76.15 42.15 75.1 42.15 74.8 42.2 74.45 41.85 74.4 41.55 74.35 41.4 74.7
M 59.9 82.45
Q 59.8 82.35 59.6 82.5 59.25 82.65 59.1 83.1 58.8 83.75 58.6 83.95 58.4 84.2 57.15 86.05 55.85 87.95 55.85 88.05 55.85 88.15 55.9 88.2 55.95 88.25 56.1 88.2 56.25 88.1 56.5 87.9 56.8 87.6 56.8 87.4 56.8 87.2 57.5 86.45 58.2 85.65 58.3 85.3 58.4 85 58.5 85 58.7 85 59.2 83.95 59.4 83.55 59.6 83.25 59.75 83 59.8 82.95 60 82.95 60 82.7 60 82.5 59.9 82.45
M 55.05 84.75
Q 55.05 84.95 55.15 85 55.25 85 55.45 84.85 55.75 84.6 56.1 84
L 56.65 83.1
Q 56.85 82.65 57.25 82.35 57.55 82 57.6 81.85 57.6 81.75 57.5 81.7 57.4 81.65 57.25 81.65 57.05 81.6 56.05 83.05 55.05 84.45 55.05 84.75
M 51.7 83.35
Q 51.95 83.2 51.75 82.75 51.55 82.3 51.1 81.8
L 50.65 81.35
Q 50.6 81.35 50.6 81.4
L 50.6 81.85
Q 50.6 82.3 50.9 84.25 51.75 89.9 52.05 90.3 52.2 90.5 52.2 90.85 52.2 91.35 52.35 91.5 52.5 91.6 52.55 91.65 52.7 91.65 52.75 91.55 52.85 91.4 52.8 90.9 52.7 90.25 52.55 89.85 52.4 89.55 52.05 87.45 51.7 85.35 51.6 84.25 51.6 83.9 51.6 83.65 51.65 83.4 51.7 83.35
M 53.25 81.2
L 53.25 81.15 53.15 81.15 53.15 81.2 53.05 81.8
Q 53 82.2 53.1 83.2 53.25 84.15 53.65 86.35 53.8 87.45 53.8 89 53.8 90.6 53.95 90.85 54 91 54.1 91.1 54.2 91.25 54.3 91.25 54.45 91.25 54.45 90.45 54.5 89.75 54.45 88.3 54.3 85.4 54.15 85.3 54 85.2 53.9 83.8 53.8 82.35 53.55 81.75
L 53.25 81.2
M 51.35 78.55
Q 53.35 78.55 53.35 78.25 53.35 78.1 52.6 78.05 51.95 78 50.6 78.05 48.65 78.05 47.9 78.2 47.5 78.25 47.35 78.35 47.1 78.5 47.25 78.7 47.35 78.9 48.3 78.9 49.3 78.9 49.4 78.7 49.45 78.65 50 78.6 50.55 78.55 51.35 78.55
M 51.25 76.1
Q 52.3 76.1 52.65 76.05 52.9 76.05 52.9 75.95 52.9 75.85 52.7 75.8 52.15 75.55 50.1 75.65 48.1 75.7 48 76.05 47.95 76.25 48.1 76.3 48.2 76.35 48.65 76.25 49.25 76.15 51.25 76.1
M 55.05 78.25
Q 55 78.7 55.3 79.15 55.5 79.55 55.9 80 56.35 80.4 56.8 80.7 57.15 80.9 57.55 80.95 57.75 80.95 57.85 80.9 58 80.85 58 80.7 58 80.55 57.9 80.5 57.8 80.45 57.65 80.45 57.25 80.4 56.35 79.4 55.5 78.4 55.65 78.1 55.75 78 55.65 77.9 55.6 77.8 55.4 77.8 55.05 77.8 55.05 78.25
M 60.55 73.95
Q 59.4 72.55 59.1 72.45 58.85 72.3 58.7 72.3 58.5 72.3 58.5 72.45 58.45 72.65 58.9 73.15 59.85 74.15 60.2 74.6 60.55 75.05 60.7 75.5 61 76.15 61.15 76.1 61.25 76.15 61.65 76.9 62 77.75 62.2 77.75 62.3 77.75 62.45 78.1
L 62.4 78.1
Q 62.6 78.65 64.1 80.2 64.45 80.55 64.65 80.55 64.75 80.55 64.85 80.45 64.9 80.35 64.9 80.2 64.9 80.05 64.8 79.95 64.7 79.8 64.6 79.8 64.5 79.8 63.1 77.8 61.65 75.75 61.65 75.55 61.65 75.3 60.55 73.95
M 56.55 73.7
Q 56.1 73.35 55.9 73.5 55.7 73.6 55.75 73.75 55.75 73.85 55.95 73.95 56.05 74.05 56.15 74.25 56.25 74.5 56.3 74.7 56.5 75.45 57.7 77.05 58.9 78.7 60.55 80.4 61.1 80.95 61.5 81.15 61.75 81.25 61.8 81.15 61.85 81.05 61.7 80.8 61.6 80.65 60.6 79.45 59.65 78.25 59.25 77.85 59 77.65 59 77.5 59 77.35 58.55 76.85 58 76.25 57.5 75.45 57 74.65 57 74.4 57 74.1 56.55 73.7
M 57.3 63.75
Q 58.05 62.95 57.9 62.8 57.75 62.65 56.85 63.55 56 64.4 55.25 65.35 54.6 66.25 54.1 66.75 53.6 67.3 53.65 67.45 53.6 67.55 53.15 68.05 52.6 68.55 52.6 68.75 52.6 68.95 52.25 69.3 51.95 69.6 51.6 70.25 51.2 70.95 51.2 71.15 51.2 71.3 51.5 71.3 51.65 71.3 51.95 70.95 52.2 70.6 52.55 70.1 53.2 68.95 53.65 68.45 54.15 67.95 54.15 67.75 54.15 67.65 54.95 66.8 55.25 66.45 55.55 66.1 55.8 65.7 55.85 65.55 56 65.25 56.1 65.25 56.3 65.25 56.45 64.85 56.5 64.7 56.75 64.4 57 64.05 57.3 63.75
M 60.15 62.7
Q 59.75 63.05 59 63.8 57.45 65.35 56.75 66.25 56.15 67.05 55.75 67.55 55.3 68.05 54.9 68.8 54.55 69.5 54.45 69.55 54.25 69.55 54.05 70.25
L 54 70.25
Q 53.8 70.9 53.95 71.1 54 71.2 54.1 71.15 54.15 71.15 54.25 71.05 54.45 70.9 54.65 70.45 55.1 69.55 55.5 69.15 55.85 68.7 56.15 68.2 56.25 67.95 56.4 67.8 56.5 67.7 56.55 67.65 56.8 67.7 56.8 67.35 56.8 67.2 57 66.9 57.3 66.55 57.65 66.2 58.5 65.25 59.2 64.4
L 59.2 64.45
Q 60.05 63.45 60.4 63.1 60.9 62.55 60.75 62.4 60.65 62.25 60.15 62.7
M 48.2 73
Q 48.15 73.15 48.25 73.2 48.3 73.3 48.5 73.3 48.85 73.35 49 73.1 49.05 73 49.25 72.95 49.45 72.9 49.75 72.9 50.05 72.9 50.3 72.85 50.55 72.8 50.6 72.7 50.7 72.5 51.95 72.5 53.2 72.55 53.4 72.75 53.5 72.85 53.65 72.85 53.8 72.9 53.9 72.8 54 72.75 53.9 72.55 53.8 72.4 53.65 72.25 53 71.8 50.7 72.1 48.4 72.4 48.2 73
M 47.85 74.05
Q 47.75 74.1 47.75 74.2 47.75 74.25 47.8 74.35 47.95 74.45 48.3 74.6 48.9 74.85 49.1 74.9 49.3 74.9 49.65 74.75 49.95 74.55 51.05 74.45 52.7 74.25 53.3 74.15 53.95 74 53.95 73.8 53.95 73.65 53.75 73.6 53.6 73.55 53.3 73.6 52.7 73.6 52.45 73.85 52.4 73.9 52.35 73.95
L 52.35 73.9
Q 52.35 73.75 52.05 73.75 51.85 73.7 51.4 73.8 51.05 73.9 50.4 73.95 49.8 74 49.25 73.95 48.1 73.9 47.85 74.05
M 49.75 68.95
Q 49.75 69.15 49.7 69.15 49.55 69.15 49.25 69.7 48.95 70.25 48.95 70.45 48.95 70.65 49.05 70.65 49.1 70.75 49.2 70.6 49.35 70.5 49.7 69.95 50.15 69.25 50.35 69 50.55 68.8 51.1 68.05 51.75 67.1 52.8 66 53.8 64.85 53.95 64.85 54.2 64.85 54.45 64.5 54.6 64.35 54.6 64.25 54.65 64.1 54.55 64.05 54.4 63.95 54.3 64 54.2 64.05 54.2 64.2
L 54.2 64.25
Q 54.15 64.25 54.1 64.25 54 64.15 53.9 64.25 53.75 64.3 53.7 64.45 53.65 64.55 53.6 64.65 53.5 64.75 53.4 64.75 53.25 64.7 52 66 50.8 67.25 50.8 67.45 50.8 67.5 50.3 68.1 49.75 68.7 49.75 68.95
M 44.75 73.6
Q 44.5 73.6 44.4 73.8 44.3 74 44.3 74.5 44.25 76 44.45 76.9 44.6 77.8 45.05 78.35 45.35 78.65 45.5 78.75 45.6 78.85 45.65 78.85 45.75 78.85 45.8 78.8 45.85 78.6 45.45 77.75 45.2 77.15 45.1 76.7 45.05 76.2 45.1 75.25 45.15 74.15 45.1 73.9 45 73.6 44.75 73.6
M 40.8 71.8
Q 41.1 71.8 41.65 71.8 42.8 71.7 43.3 71.5 43.8 71.3 44.5 71.1 46.45 70.5 46.45 70.15 46.45 70.05 46.35 70 46.25 69.95 46.05 70 45.7 70.05 44.05 70.55 42 71.15 41.6 71.15 41.15 71.2 40.85 71.3 40.45 71.45 40.45 71.65 40.45 71.8 40.8 71.8
M 46.7 66.15
Q 47.3 66 47.6 65.9 47.7 65.8 47.75 65.75 47.85 65.65 47.75 65.6 47.65 65.5 45.55 65.7 43.5 65.95 42.95 66.15
L 41.55 66.55
Q 41.2 66.65 40.95 66.85 40.65 67 40.65 67.15 40.65 67.45 40.9 67.45 41 67.45 41.65 67.2 42.6 66.8 43.3 66.65 44 66.45 44.75 66.45 45.55 66.45 46.7 66.15
M 47.6 64.05
Q 47.8 63.95 47.9 63.85 48.05 63.7 47.95 63.6 47.85 63.45 47.35 63.7 47.15 63.75 46.3 63.85 45.45 63.95 44.45 63.95 41.9 64 41.7 64.3 41.6 64.35 41.65 64.4 41.65 64.45 41.75 64.5 41.9 64.55 42.2 64.55 42.85 64.6 44.3 64.5 47.15 64.35 47.6 64.05
M 50.3 60.75
Q 50.3 60.4 50.1 60.25 49.85 60.05 49.6 60.2 49.35 60.35 49.95 62 50.55 63.65 50.85 63.65 50.9 63.65 51 63.8 51.1 64 51.25 64.3 51.5 65.05 51.7 65.05 51.85 65.05 51.9 64.85 51.95 64.7 51.9 64.35 51.8 63.7 51.45 63.25 51 62.7 50.65 61.9 50.3 61.15 50.3 60.75
M 42.05 60.8
Q 41.45 60.9 41.5 61.3 41.5 61.5 41.6 61.55 41.75 61.65 42 61.55 42.45 61.45 43.75 61.6 44.3 61.7 44.85 61.7 45.4 61.75 45.65 61.7 46.25 61.6 46.95 61.6 47.25 61.6 47.45 61.55 47.7 61.5 47.65 61.35 47.7 61.25 47.15 61.15 46.65 61.1 45.95 61.1 44.2 61.1 43.4 60.9 42.55 60.7 42.05 60.8
M 43.25 50.35
Q 43.25 50.25 43.15 50.25 43.1 50.25 43 50.3 42.75 50.45 42.55 51 42.3 51.65 42.15 54.45 42 57.2 42.15 58.25 42.35 59.25 42.7 59.2 42.9 59.2 42.95 59.1 43 58.95 42.9 58.7 42.7 58.05 42.85 55.05 42.95 52.05 43.25 50.7 43.3 50.45 43.25 50.35
M 45.7 50.7
Q 45.65 50.65 45.6 50.7 45.55 50.75 45.45 51 45.25 51.5 44.95 52.65 44.6 54.05 44.4 55.95 44.25 57.8 44.4 58.65 44.5 59.15 44.6 59.35 44.65 59.45 44.75 59.45 44.8 59.45 44.9 59.3 45.05 58.9 45.05 57.4 45.05 56.6 45.15 55.55 45.25 54.55 45.4 53.95 45.9 51.3 45.8 50.8 45.75 50.7 45.7 50.7
M 48 51.45
Q 47.75 51.4 47.75 51.75 47.7 52.4 47.25 54.5 46.95 56.05 46.95 57.2 46.95 58 47.1 58.3 47.2 58.45 47.3 58.45 47.45 58.4 47.55 58.2 47.7 58 47.8 56.3 47.95 54.6 48.1 54.2 48.3 53.7 48.25 52.6 48.25 51.4 48 51.45
M 51.8 60.65
Q 51.45 60.1 51.4 59.7 51.3 59.25 50.95 59.1 50.75 59.05 50.7 59.15 50.6 59.2 50.6 59.45 50.6 59.95 51.15 60.9 51.65 61.8 52.35 62.55 53.2 63.4 53.45 63.3 53.55 63.25 53.55 63.1 53.55 63.05 53.45 62.9 53.35 62.65 53 62.2 52.15 61.2 51.8 60.65
M 53.1 57.6
Q 52.85 57.3 52.75 57.35 52.45 57.45 52.55 58.05 52.65 58.65 53.05 59.05 53.4 59.45 53.4 59.6 53.4 59.8 54.05 60.45 54.65 61.05 55.1 61.85 55.35 62.4 55.6 62.6 55.8 62.7 55.85 62.65 55.95 62.6 55.95 62.4 55.95 62.15 55.5 61.25 54.95 60.4 54.5 59.9 53.95 59.25 53.5 58.3 53.3 57.9 53.1 57.6
M 55.25 56.65
Q 55.1 56.2 54.9 55.85 54.7 55.45 54.55 55.45 54.25 55.45 54.25 55.9 54.2 56.35 54.45 56.5 54.65 56.6 54.65 56.9 54.65 57.3 55.7 59.4 56.75 61.5 57.05 61.75 57.35 61.95 57.55 62.05 57.75 62.1 57.8 61.95 57.9 61.7 57.35 61.1 56.8 60.5 56.8 60.35 56.8 60.15 56.2 59 55.65 57.75 55.25 56.65
M 57.15 54.8
Q 56.85 54.4 56.7 54.3 56.55 54.25 56.5 54.35 56.45 54.4 56.45 54.55 56.45 54.9 56.8 55.65 57.15 56.4 57.35 56.4 57.4 56.4 57.45 56.45 57.45 56.5 57.45 56.65 57.45 56.95 58.5 58.7 59.5 60.45 59.5 60.6 59.5 60.7 59.6 60.75
L 59.6 60.8
Q 59.7 60.85 59.85 60.85 60 60.85 60.1 60.8 60.25 60.75 60.2 60.65 60.2 60.55 58.8 57.75 57.7 55.6 57.15 54.8
M 58.35 51.65
Q 58.45 51.55 58.75 51.55 58.9 51.55 59.05 51.45 59.2 51.35 59.3 51.25 59.35 51 59.25 50.95 59.2 50.9 58.95 50.95 58.6 51.05 58.1 51.3 57.6 51.55 57.5 51.65 57.25 51.85 54.85 53.1 53.95 53.55 53.75 53.7 53.5 53.9 52.55 54.5 51 55.5 51 55.8 51 55.9 51.15 55.95 51.3 56 51.45 56 51.65 56 51.75 55.95 51.9 55.85 51.9 55.7 51.9 55.65 52 55.65 52.05 55.6 52.15 55.6 52.3 55.6 52.4 55.5 52.55 55.45 52.55 55.35 52.55 55.3 52.6 55.25 52.65 55.2 52.75 55.2 53.1 55.2 53.15 55 53.25 54.85 54.15 54.2 55.1 53.55 55.3 53.55 55.6 53.55 55.55 53.35 55.6 53.25 56 53.05 56.9 52.6 57.6 52.2 58.3 51.8 58.35 51.65
M 78.35 70.75
Q 78.2 70.75 78.1 70.95 78.1 71.15 78.1 71.45 78.2 72.05 78.55 73.3 79.3 75.75 80.05 76.65 80.2 76.85 80.55 76.9 80.75 76.95 80.8 76.9 80.9 76.85 80.85 76.7
L 80.1 75.25
Q 79.85 74.7 79.6 74 79.35 73.3 79.25 72.85 79 71.7 78.8 71.25 78.6 70.75 78.35 70.75
M 75.1 72.05
Q 74.95 71.75 74.55 71.6 74.3 71.5 74.2 71.55 74.05 71.6 74.05 71.75 74.05 71.9 75.1 74 76.15 76 76.3 76.1 76.45 76.25 76.9 77.1 77.4 78 77.8 78.45 78.1 78.8 78.45 78.95 78.65 79 78.75 78.95 78.85 78.9 78.85 78.75 78.85 78.6 78.3 77.8 77.8 76.95 77.65 76.8 77.55 76.75 76.5 74.75 75.45 72.75 75.1 72.05
M 71.25 72.75
Q 71.25 72.85 71.25 73.15 71.35 73.6 71.75 74.85 72.25 76.5 73.35 78.2 74.45 79.95 75.15 80.2 75.35 80.3 75.5 80.25 75.65 80.25 75.65 80.1 75.7 79.9 75.25 79.45 74.65 78.9 74.3 78.35 73.95 77.85 73.25 76.5 72.55 75.15 72.55 75 72.55 74.75 72.1 73.65 71.65 72.55 71.5 72.6 71.3 72.6 71.25 72.75
M 70.5 71.55
Q 70.5 71.7 70.75 71.7 70.9 71.7 71.05 71.5 71.2 71.35 71.25 71.1 71.6 69.55 71.95 68.3 72.15 67.65 72.15 67.25 72.15 66.85 72.35 66.45
L 72.35 66.5
Q 72.6 65.95 73.1 64.75 73.6 63.55 73.7 63.15 73.8 62.8 73.75 62.65 73.7 62.55 73.65 62.55 73.6 62.5 73.5 62.55 73.2 62.65 72.85 63.4 72.05 65.2 71.65 66.45 71.2 67.7 70.9 69.05 70.65 70.5 70.5 71.05 70.4 71.4 70.5 71.55
M 63.2 72.95
Q 62.85 72.5 62.55 72.35 62.25 72.2 62.1 72.35 61.85 72.55 62.55 73.3 63.1 73.9 63.15 74.15 63.15 74.45 63.35 74.55 63.55 74.65 65.05 77.1 65.3 77.5 65.65 77.9 65.95 78.3 66.15 78.5 66.6 78.85 67.15 78.95 67.45 79 67.6 78.9 67.75 78.85 67.65 78.6 67.6 78.5 67.5 78.4 67.4 78.3 67.25 78.3 66.6 78.3 64.95 75.45 63.95 73.85 63.2 72.95
M 64.95 70.75
Q 64.75 70.75 64.7 70.95 64.65 71.1 64.7 71.4 64.8 71.95 65.2 72.5 65.6 73.05 65.8 73.7 66 74.35 66.15 74.5 66.35 74.65 66.55 75.1 66.8 75.55 66.8 75.75 66.8 76.1 66.95 76.15 67.15 76.25 67.6 77.1 67.95 77.75 68.55 78.6 69.15 79.45 69.75 80.1 70.15 80.5 70.3 80.55
L 70.35 80.55
Q 70.5 80.55 70.55 80.4 70.6 80.3 70.55 80.05 70.4 79.6 70.1 79.35 68.95 78.3 66.9 74.1 65.6 71.45 65.45 71.4 65.3 71.35 65.3 71.1 65.3 70.95 65.2 70.9 65.1 70.75 64.95 70.75
M 69.8 64.15
Q 69.75 64.1 69.6 64.15 69.5 64.2 69.25 64.55 68.75 65.25 67.7 69.4 67.25 71.05 67.2 71.75 67.2 72.1 67.25 72.3 67.35 72.5 67.5 72.5 67.6 72.5 67.9 72.95 68.2 73.4 68.5 74 69.3 75.6 69.45 75.7 69.55 75.8 70.05 76.75 70.6 77.65 71.3 78.45 71.95 79.25 72.25 79.7 72.5 80.05 72.65 80.1 72.8 80.2 73 80 73.15 79.9 72.05 78.25 71 76.6 70.7 76.4 70.55 76.3 68.35 72.15 68 71.5 67.95 71.25 67.95 70.95 68.2 70.1 68.55 68.9 68.75 68.6 68.9 68.25 68.9 67.9 68.9 67.65 69.45 66 69.85 64.75 69.85 64.35 69.8 64.2 69.8 64.15
M 68.5 61.3
Q 68.5 61.05 68.4 61.1 68.3 61.05 68.1 61.2 67.8 61.45 67.35 62.1 66.7 63.05 66.6 63.15 66.4 63.3 65.75 64.35 64.55 66.2 63.55 67.35 62.95 68.05 62.35 69.15 61.7 70.2 61.7 70.5 61.7 70.8 61.8 70.85 61.9 70.9 62.1 70.7 62.25 70.55 62.35 70.4 62.45 70.2 62.45 70.1 62.45 69.8 62.75 69.55 63.05 69.25 64 67.9 65 66.45 65.3 66.15 65.7 65.75 65.7 65.5 65.7 65.3 66.05 65.05 66.25 64.9 66.35 64.7 66.5 64.5 66.5 64.35 66.5 64.25 66.55 64.15 66.65 64 66.75 63.95 66.9 63.9 67.1 63.65 67.3 63.45 67.45 63.15
L 67.45 63.2
Q 67.75 62.55 67.9 62.4 68 62.35 68.25 61.9 68.5 61.45 68.5 61.3
M 65.65 61.45
Q 65.7 61.3 65.65 61.2 65.6 61.1 65.45 61.1 65.1 61.1 63.35 63.25 61.6 65.35 59.9 67.75 59.05 69.05 58.85 69.2
L 58.9 69.2
Q 58.7 69.25 58.55 69.85 58.5 70.2 58.55 70.35 58.6 70.5 58.8 70.5 59 70.5 59.1 70.4 59.2 70.3 59.2 70.1 59.2 70 59.5 69.55 59.75 69.1 60.1 68.6
L 61.4 66.85
Q 62 66 63.2 64.45 64.45 62.95 65.1 62.2 65.55 61.7 65.65 61.45
M 63.95 61.2
Q 63.85 61.05 63.4 61.45 63 61.8 62.2 62.6 60.7 64.2 59.75 65.5 58.8 66.75 58.3 67.3 57.85 67.75 57.65 68.3 57.4 68.75 57.3 68.75 57.05 68.75 57.05 69.1 57.05 69.3 56.7 69.7 56.35 70.1 56.1 70.55 55.85 71 55.85 71.3 55.85 71.5 55.9 71.55 56 71.7 56.1 71.7 56.25 71.7 56.3 71.55 56.35 71.45 56.35 71.25 56.35 71.1 56.45 71 56.45 70.9 56.5 70.9 56.7 70.9 57 70.25 57.2 69.7 57.35 69.7 57.55 69.7 57.7 69.3 57.75 68.95 58.25 68.45
L 59.4 67.05
Q 60.1 66.1 60.2 66.05 60.25 66 60.7 65.4 61.1 64.75 62.55 63.1 63.2 62.4 63.6 61.85 64.05 61.25 63.95 61.2
M 61.15 59.45
Q 61.55 59.9 61.75 60 61.95 60.05 62.15 59.75 62.25 59.65 62.1 59.45 62 59.2 61.75 59.05 61.35 58.65 60.55 57.05 59.7 55.35 59.4 54.3 59.2 53.6 58.9 53.4 58.7 53.2 58.6 53.35 58.5 53.4 58.5 53.7 58.5 54.25 59.55 56.5 60.55 58.75 61.15 59.45
M 61.45 52.3
Q 61.25 52.25 61.15 52.4 61.1 52.55 61.15 52.9 61.2 53.45 61.5 54.15 61.9 55 62.2 56.3 62.6 57.95 63 59.05 63.15 59.6 63.4 60 63.6 60.45 63.75 60.4 64.05 60.4 64.05 60.3
L 63.5 58.05
Q 62.9 55.8 62.3 54.1 61.65 52.35 61.45 52.3
M 79.8 59.45
Q 80 59.2 80.05 59 80.05 58.85 80.05 58.8 80 58.7 79.9 58.7 79.75 58.7 79.2 59.25 78.4 60.15 77.75 62.2
L 77.7 62.2
Q 77.05 64.2 76.6 67.1 76.3 69.15 76.45 69.3 76.55 69.45 76.75 69.5 76.85 69.5 76.95 69.45 77 69.4 77 69.3 77 69.1 77.45 66.65 77.9 64.2 78.05 63.6 78.85 60.45 79.8 59.45
M 76.55 61.35
Q 76.6 61.25 76.5 61.15 76.45 61.1 76.3 61.1 76.15 61.1 75.9 61.4 75.75 61.6 75.6 62
L 74.9 63.65
Q 74.15 65.35 73.65 67.65 73.15 69.95 73.4 70.6 73.5 70.8 73.6 70.9 73.7 70.95 73.85 70.85 74.1 70.7 74.1 70.15 74.1 67.35 76.1 62.65 76.55 61.55 76.55 61.35
M 74.15 61.4
Q 74.3 61.3 75.05 61.05 76.3 60.6 76.75 60.35 77.05 60.25 77.1 60.15 77.1 60.05 77.05 60 77.05 59.95 76.95 59.95 76.55 59.85 75.6 60.25 74.6 60.55 73.3 61.2 71.9 61.9 71.6 61.9 71.45 61.9 71.35 61.95 71.2 62.05 71.25 62.15 71.2 62.25 70.55 62.5 69.8 62.85 69.8 63 69.8 63.1 69.95 63.2 70.1 63.25 70.3 63.25 70.6 63.25 70.9 63.15 71.2 63.05 71.95 62.65
L 73.25 61.95
Q 74.05 61.5 74.15 61.4
M 72.75 56.5
Q 72.8 56.25 72.4 56.25 72.05 56.3 71.95 56.5 71.8 56.65 71.5 56.65 71.05 56.65 70.7 56.85
L 69.85 57.25
Q 68.9 57.65 68.4 57.85 67.45 58.3 67.15 58.3 66.8 58.3 66.7 58.5 66.65 58.55 66.4 58.65 66.1 58.75 65.75 58.8 65 58.95 64.8 59.05 64.65 59.1 64.65 59.2 64.6 59.3 64.65 59.4 64.8 59.6 65.35 59.6 65.85 59.6 66.4 59.4 68.15 58.65 69.4 58.1 70.4 57.6 70.6 57.6 70.95 57.6 70.95 57.4 70.95 57.35 71.2 57.25 71.45 57.15 71.8 57 72.2 56.9 72.45 56.8
L 72.5 56.8
Q 72.8 56.6 72.75 56.5
M 73.8 58.15
Q 74.1 58.05 74.45 57.9 74.75 57.75 74.85 57.6 75 57.4 75 57.3 74.95 57.25 74.85 57.3 74.8 57.3 74.7 57.35 74.35 57.45 73.25 57.7 72 58 72.05 58.2 72 58.2 71.9 58.25 71.75 58.3 71.5 58.3 71.25 58.3 71.05 58.35 70.8 58.4 70.75 58.5 70.7 58.6 70.55 58.65 70.35 58.7 70.15 58.7 69.95 58.7 69.8 58.75 69.6 58.85 69.6 58.95 69.6 59 69.55 59.05 69.4 59.1 69.25 59.1 68.85 59.1 67.85 59.55 66.75 60 66.8 60.2 66.75 60.4 67.25 60.4 67.55 60.4 67.85 60.3 68.1 60.2 68.85 59.85 69.3 59.6 69.65 59.6 70 59.6 70.25 59.45
L 70.2 59.45
Q 70.45 59.25 71.3 59.05 72.3 58.75 72.65 58.6 72.95 58.45 73.8 58.15
M 73.85 54.05
Q 73.85 53.95 73.7 53.95 73.45 53.95 72.85 54.1 72.05 54.3 69.5 55.1 66.9 55.9 66.6 56.05 66.3 56.2 65.2 56.5 64.4 56.7 64.1 56.9 63.75 57.1 63.75 57.4 63.75 57.55 63.9 57.55 64 57.55 64.2 57.5 64.55 57.35 65.15 57.2 65.85 57.05 66.5 56.7
L 66.45 56.7
Q 67.15 56.4 67.45 56.4 67.65 56.4 67.8 56.35 67.95 56.25 68 56.15 68.05 56.1 68.2 56.05 68.35 56 68.55 56 69.05 56 69.65 55.75
L 70.6 55.4
Q 71.05 55.2 71.8 54.95 73.3 54.5 73.7 54.2 73.85 54.1 73.85 54.05
M 71 50.8
Q 71.15 50.75 71.3 50.75 71.5 50.75 71.6 50.7 71.8 50.6 71.75 50.5 71.75 50.25 71.5 50.25 71.35 50.25 70.35 50.5 69.45 50.75 68.45 51 67.75 51.25 66.25 52 64.75 52.8 64.75 52.95 64.75 53 64.7 53 64.6 53.05 64.5 53.05 64.35 53.05 64.25 53.15 64.2 53.2 64.25 53.35 64.4 53.6 64.55 53.55 64.7 53.5 65.4 53.2 65.85 52.9 67.6 52.15
L 69.35 51.35
Q 69.7 51.15 70.15 51.15 70.35 51.15 70.55 51.1 70.8 51.05 70.85 50.95 70.9 50.85 71 50.8
M 71.3 52.3
Q 71.2 52.25 70.95 52.25 70.65 52.25 69.95 52.45 69.2 52.65 68.5 53 67.85 53.25 67.7 53.25 67.55 53.25 66.5 53.8 65.45 54.35 64.95 54.7 64.7 54.9 64.55 55.05 64.4 55.25 64.45 55.4 64.55 55.5 64.7 55.5 64.8 55.5 64.9 55.4 65.3 55.1 66.8 54.35 68.3 53.55 68.55 53.55 68.95 53.55 68.9 53.35 68.95 53.3 69.05 53.25 69.25 53.15 69.5 53.1
L 70.7 52.85
Q 71.2 52.75 71.35 52.55 71.4 52.35 71.3 52.3
M 39.85 89.75
Q 39.85 89.9 40 90 40.15 90.05 40.45 90 40.95 89.95 41.45 89.7 42 89.4 42.25 89.4 42.4 89.4 42.5 89.35 42.6 89.3 42.6 89.15 42.6 89.1 42.7 89.1
L 42.7 89.05
Q 42.75 89 42.85 89 43 89 43.1 88.95 43.2 88.85 43.2 88.75 43.2 88.7 43.25 88.65 43.3 88.6 43.35 88.6 43.6 88.6 44.85 87.55 46.05 86.45 46.05 86.25 46.05 86.15 46 86.15 45.95 86.15 45.85 86.15 45.75 86.2 45.5 86.35 45 86.65 44.5 87.1 43.8 87.7 42.55 88.4 41.3 89.15 40.65 89.3 40.35 89.4 40.1 89.5 39.85 89.65 39.85 89.75
M 37.45 87.95
Q 37.4 88.05 37.55 88.15 37.6 88.2 37.75 88.2 38.05 88.2 39.35 87.55 40.6 86.9 40.6 86.7 40.6 86.6 40.85 86.6 41 86.6 41.1 86.5
L 41.1 86.55
Q 41.2 86.45 41.2 86.35 41.2 86.3 41.25 86.25 41.3 86.2 41.4 86.2 41.5 86.2 41.7 86.05 41.85 85.95 42 85.75 42.1 85.6 42.3 85.5 42.45 85.4 42.6 85.4 43.05 85.4 43 85.2 43.05 85.05 44.2 84.3 44.85 83.9 45.1 83.7 45.25 83.55 45.3 83.5 45.45 83.4 45.35 83.35 45.25 83.2 43.35 84.25 41.45 85.25 41.3 85.5 41.15 85.7 39.9 86.45 38.6 87.3 38.1 87.5 37.4 87.75 37.45 87.95
M 25.7 87.6
Q 25.7 87.55 25.65 87.55 25.55 87.5 25.15 87.5 24.45 87.5 23.35 87.2 22.35 86.95 22.05 87.1 21.9 87.15 21.9 87.2 21.9 87.3 22 87.4 22.1 87.5 22.5 87.7 23.1 87.95 24.15 88 25.25 88 25.6 87.8
L 25.7 87.7
Q 25.75 87.6 25.7 87.6
M 25.45 89.55
L 26.45 89.45
Q 26.8 89.4 26.8 89.3 26.8 89.25 26.5 89.05 26.1 88.85 24.35 88.95 22.85 89.1 22.25 89.2 21.6 89.35 21.65 89.6 21.6 89.7 22 89.75 22.3 89.75 22.9 89.75 24.1 89.75 25.45 89.55
M 27.75 83.4
Q 27.7 83.25 27.6 83.15 27.45 83.1 27.35 83.15 27.2 83.2 27.35 83.6 27.45 83.95 27.75 84.45 28.3 85.5 28.3 85.75 28.3 86.15 28.5 86.25 28.65 86.3 29.35 87.6 30 88.85 30.15 89 30.3 89.1 30.75 90 31.2 90.9 31.55 91.4 31.7 91.65 31.8 91.7 31.9 91.75 31.95 91.7 32 91.7 32.05 91.6 32.1 91.5 32.05 91.35 32 91.15 31.9 91.05 31.7 90.85 31.7 90.5 31.7 90.35 31.65 90.25 31.55 90.1 31.45 90.1 31.4 90.1 31.35 89.95 31.25 89.8 31.2 89.55 31.1 89 30.8 88.7 30.5 88.35 30.1 87.55 29.65 86.7 29.65 86.45 29.65 86.05 29.45 86.05 29.35 86.05 28.85 85.1 28.35 84.05 28.4 83.9 28.45 83.75 28.35 83.7 28.25 83.65 28.1 83.65 28 83.65 27.9 83.6 27.8 83.5 27.75 83.4
M 22.55 85.65
Q 22.3 85.65 22.1 85.75
L 22.1 85.7
Q 21.85 85.8 21.85 85.95 21.85 86.1 22.15 86.15 22.35 86.2 22.85 86.2 23.75 86.15 24.35 85.9 24.65 85.8 24.8 85.7 24.9 85.65 24.9 85.6 24.95 85.5 24.85 85.45 24.75 85.3 23.95 85.5 23.15 85.65 22.55 85.65
M 22.1 75
Q 21.85 75 21.85 75.5 21.85 75.95 22.7 77.35 23.55 78.75 24.3 79.55 24.85 80.1 25.15 80.3 25.2 80.35 25.25 80.35 25.4 80.4 25.4 80.3 25.4 80.25 25.3 80 25.2 79.85 23.85 77.85 23.3 77.05 22.9 76.35 22.5 75.65 22.45 75.5 22.3 75 22.1 75
M 21.15 77
L 20.75 76.55 20.65 76.55 20.65 77.1
Q 20.65 77.35 20.75 77.6 20.9 77.85 21.05 78 21.4 78.35 21.45 78.6 21.45 78.75 21.5 78.85 21.6 78.95 21.7 78.95 21.75 78.95 21.8 79 21.85 79.05 21.85 79.15 21.85 79.25 22.15 79.7 22.4 80.05 22.85 80.55 23.25 81 23.5 81.25 23.7 81.35 23.75 81.4
L 23.85 81.4
Q 23.95 81.4 23.95 81.35 24 81.2 23.95 81.1 23.9 80.95 23.8 80.9 23.65 80.75 22.6 79.25 21.55 77.7 21.55 77.6 21.55 77.45 21.15 77
M 37 85.15
Q 36.75 85.2 36.65 85.3 36.45 85.45 36.55 85.6 36.7 85.8 36.9 85.75 37.15 85.75 37.65 85.55
L 38.65 85.2
Q 39.25 85 40.4 84.35 41.6 83.75 41.8 83.55 41.95 83.4 42.4 83.2 42.85 82.95 43.05 82.95 43.45 82.95 43.45 82.75 43.45 82.65 43.9 82.45 44.45 82.15 44.7 82.15 44.8 82.15 45 82.05 45.15 81.95 45.25 81.8 45.35 81.7 45.35 81.65 45.4 81.5 45.25 81.5 45.15 81.45 44.7 81.6 43.85 81.9 41.8 82.9 38.75 84.45 38.1 84.75 37.45 85.05 37 85.15
M 32.05 86
Q 31.7 85.6 31.3 84.9 30.85 84.2 30.75 83.9 30.6 83.45 30.35 83.15 30.05 82.85 29.8 82.85 29.65 82.85 29.65 83 29.6 83.1 29.7 83.3
L 30.8 85.5
Q 31.65 87.4 31.8 87.4 31.9 87.4 32.4 88.2 32.9 89.05 33.05 89 33.15 89.05 33.4 89.6 33.65 90.25 33.85 90.2 33.95 90.25 34.2 90.75 34.55 91.35 34.7 91.55 35 91.9 35.15 91.8 35.3 91.7 35.15 91.25 34.75 90.25 34.05 89.45 33.7 89.05 33.7 88.8 33.7 88.7 33.65 88.6 33.55 88.5 33.45 88.5 33.3 88.45 32.75 87.35 32.2 86.2 32.05 86
M 32.75 82.55
Q 32.65 82.7 32.75 83.15 32.85 83.8 33.05 83.75 33.15 83.8 33.45 84.7 33.8 85.7 34.95 87.55 36 89.4 36 89.55 36 89.8 36.25 89.8 36.35 89.85 36.85 90.8 37.05 91.2 37.2 91.5 37.45 91.85 37.5 91.85 37.75 91.85 37.75 91.7 37.75 91.45 37.1 90 36.45 88.6 36.2 88.4 36 88.15 35.65 87.35 35.25 86.45 35.05 86.45 35 86.45 34.95 86.4 34.9 86.3 34.9 86.15 34.9 85.95 34.85 85.75 34.75 85.55 34.65 85.45 34.55 85.35 34.3 84.9 34.05 84.4 33.8 83.85 33.35 82.75 33.05 82.5 32.95 82.45 32.85 82.45 32.75 82.45 32.75 82.55
M 34.45 79.7
Q 34.4 79.8 34.4 80 34.4 80.4 34.8 81 35.15 81.5 36.1 82.5 37.35 83.8 37.5 83.75 37.75 83.75 37.75 83.6 37.75 83.5 37.6 83.3 37.35 82.85 36.45 81.9 35.9 81.35 35.5 80.8 35.1 80.3 35.05 80.1 34.9 79.7 34.65 79.65 34.55 79.6 34.45 79.7
M 31.15 74.7
Q 31.25 74.55 31.2 74.45
L 31.15 74.45
Q 31.1 74.25 30.9 74.3 30.7 74.3 30.5 74.5 30.05 74.8 28.95 75.95 27.5 77.45 26.75 78.6 26 79.8 26.2 80.15 26.35 80.4 26.7 80.35 27 80.3 27.2 80.05
L 27.2 80
Q 27.4 79.8 27.4 79.75
L 27.4 79.7
Q 27.35 79.6 27.1 79.6
L 27 79.6 27 79.55
Q 27.05 79.35 27.45 78.75 28.05 77.9 28.35 77.55 28.65 77.25 28.65 77.1 28.65 76.95 29.65 75.95 30.6 74.95 30.9 74.85 31.05 74.8 31.15 74.7
M 35 76.05
Q 34.8 76.15 34.3 76.55 33.4 77.25 32.05 78.85 30.75 80.45 30.4 81.3 30.1 82 30.1 82.15 30.05 82.3 30.15 82.35 30.2 82.35 30.35 82.35 30.55 82.3 30.7 82.1 30.8 81.95 30.85 81.75 30.85 81.6 30.95 81.5 31 81.4 31.05 81.35 31.15 81.4 31.25 81.2 31.3 81.05 31.3 80.9 31.3 80.75 31.35 80.65 31.35 80.55 31.4 80.55 31.65 80.55 31.75 80.15 31.8 80 32.35 79.4 32.9 78.75 33.6 78.05 34.95 76.65 35.2 76.25 35.25 76.1 35.2 76.05 35.15 76 35 76.05
M 33.6 74.8
Q 33.55 74.8 33.45 74.85 33.25 74.9 32.85 75.2 32.1 75.8 30.6 77.25 29.95 77.8 28.85 79.15 27.7 80.5 27.7 80.7 27.7 80.85 27.45 81.15 27.1 81.45 27 81.95 26.85 82.5 27.2 82.55 27.45 82.65 27.8 82.25 27.95 82.05 27.95 82 28 81.9 27.9 81.85
L 27.8 81.85
Q 27.75 81.85 27.75 81.8 27.75 81.7 27.85 81.5 28.1 81.05 28.2 80.95 28.35 80.85 28.95 80 29.55 79.2 31.6 77.15 33.7 75.05 33.7 74.95 33.7 74.85 33.6 74.8
M 39.3 80.1
Q 38.6 79.5 38 78.65 37.4 77.85 37.3 77.5 37.25 76.95 37 76.95 36.75 76.95 36.65 77.5 36.55 78.3 38.9 80.85 39.65 81.6 39.65 82.15 39.65 82.65 39.75 82.7 39.85 82.8 40.2 82.65 40.45 82.55 40.45 82.35 40.4 82.15 40.15 81.5 39.95 81.1 39.7 80.7
L 39.75 80.7
Q 39.5 80.3 39.3 80.1
M 39.4 76.6
Q 38.95 75.75 38.75 75.65 38.65 75.6 38.6 75.65 38.5 75.65 38.5 75.75 38.5 75.9 38.55 76.25 38.7 76.8 39.2 77.8 39.7 78.8 40 79.1 40.35 79.4 40.65 79.9 40.95 80.4 41.2 80.7 41.4 80.95 41.7 80.95 41.95 80.95 42 80.75 42.05 80.5 41.8 80.35 41.6 80.25 40.7 78.85 39.8 77.45 39.4 76.6
M 15.45 79.45
Q 16.1 79.75 16.45 79.75 16.75 79.75 17.5 80.15 18.25 80.55 18.75 80.95 19.15 81.25 19.7 81.55 20.2 81.8 20.25 81.95 20.2 82.15 20.6 82.15 20.7 82.2 20.95 82.4 21.2 82.65 21.5 82.95 22 83.55 22.25 83.7 22.4 83.8 22.5 83.75 22.6 83.75 22.6 83.55 22.55 83.25 22 82.6 21.45 82 20.7 81.5 19.7 80.85 19.4 80.55 19 80.15 18.3 79.8 17.55 79.4 16.95 79.25 15.95 79 15.5 78.85 15.15 78.75 15 78.75 14.9 78.75 14.85 78.75 14.75 78.8 14.75 78.9 14.75 79.1 15.45 79.45
M 17.2 78.75
L 17.25 78.75
Q 17.5 78.95 17.9 78.95 18.35 78.95 18.35 78.7 18.35 78.5 17.75 78.3 17.25 78.1 16.35 77.9 15.6 77.75 15.4 77.7 15.25 77.65 15.1 77.7 14.95 77.7 14.95 77.85 14.95 78 15.15 78.05 15.25 78.15 15.45 78.15 15.6 78.15 15.7 78.2 15.75 78.25 15.75 78.3 15.75 78.4 16 78.5
L 15.95 78.5
Q 16.15 78.55 16.4 78.55 16.95 78.55 17.2 78.75
M 18.05 76.9
Q 18.35 76.85 18.35 76.7 18.35 76.5 16.55 76.2 14.8 75.95 14.65 76.1 14.55 76.2 14.6 76.3 14.65 76.35 14.85 76.4
L 15.7 76.7
Q 16.3 76.9 17.3 76.9 17.8 76.9 18.05 76.9
M 12.2 67.65
Q 12.05 67.35 11.95 67.35 11.85 67.35 11.85 67.15 11.85 66.85 11.6 66.3 11.3 65.75 11.15 65.75 11 65.75 10.95 65.85 10.9 65.95 10.95 66.15 11 66.55 11.35 67.5 12.2 70 13.1 71.9 14 73.8 14.6 74.55 14.95 74.95 15.2 75.05 15.35 75.15 15.4 75.15 15.5 75.1 15.5 74.95 15.5 74.9 14.95 74.1 14.75 73.75 14.6 73.4 14.4 73 14.35 72.8 14.3 72.55 14.25 72.4 14.15 72.15 14.05 72.2 13.9 72.15 13.8 71.9 13.7 71.5 13.2 70.35 12.7 69.2 12.45 68.3 12.35 67.95 12.2 67.65
M 13.6 64.3
Q 13.45 64.3 13.4 64.55 13.4 64.7 13.45 65.05 13.6 65.8 14.05 67.1 14.5 68.4 14.65 68.45 14.75 68.5 14.75 68.7 14.75 69 15.35 70.2 15.95 71.35 16.25 72.05 16.5 72.8 16.9 73.25 17.2 73.55 17.4 73.65 17.55 73.75 17.65 73.7 17.75 73.7 17.75 73.55 17.75 73.45 17.15 72.15 16.1 69.9 15.25 68 14.95 67.35 14.65 66.5 14.55 66.15 14.35 65.8 14.15 65.45 14 65.25 13.85 65.1 13.85 65 13.8 64.9 13.85 64.9 13.95 64.85 14 64.75 14.05 64.65 14 64.55 13.85 64.3 13.6 64.3
M 8.55 55.1
Q 8.4 55.15 8.05 55.55 7.75 55.9 7.45 56.35 6.85 57.3 6.7 57.45 6.6 57.55 6.15 58.2 5.7 58.85 5.6 58.9 5.45 59 5.25 59.45 5.15 59.65 5.1 59.75 5.1 59.85 5.15 59.9 5.15 59.95 5.25 59.95 5.4 59.95 5.75 59.65 6.05 59.35 6.05 59.2 6.05 59.05 6.45 58.65 7.15 57.85 8.35 56.05 8.55 55.7 8.8 55.5 8.95 55.3 9.05 55.3 9.1 55.35 9.25 55.3 9.35 55.25 9.45 55.2 9.5 55.05 9.45 54.95 9.35 54.9 9.2 54.9 8.9 54.9 8.55 55.1
M 8.25 51.9
Q 8.55 51.75 8.9 51.75 9.05 51.75 9.25 51.6 9.45 51.5 9.6 51.35 9.9 51.05 9.85 51
L 9.85 50.95
Q 9.85 50.9 9.55 50.9 9.15 50.9 9 51.05 8.75 51.25 8.2 51.45 7.2 51.8 6.9 51.95 6.5 52.1 6.5 52.25 6.5 52.3 6.45 52.3 6.35 52.35 6.25 52.35 6 52.35 4.8 53 3.55 53.65 3.55 53.8 3.55 53.95 3.8 53.95 4.05 53.95 4.45 53.85 5.3 53.65 5.5 53.4 5.65 53.2 6.05 53 6.4 52.85 6.6 52.95 6.75 53 6.85 52.95 6.95 52.9 6.95 52.75 6.95 52.65 7.1 52.5 7.25 52.35 7.45 52.3
L 8.25 51.9
M 10.35 60.25
Q 11 59.55 11 59.4 11 59.25 12.2 58.05 13.4 56.75 13.3 56.6 13.1 56.4 12.4 57.05 11.75 57.65 10.6 59.05
L 8.9 61.15
Q 8.3 61.7 7.2 63.2 6.1 64.8 6.1 65.05 6.1 65.2 6.2 65.25 6.25 65.3 6.4 65.2 6.6 65.05 6.8 64.7 7.15 64.15 7.45 63.8
L 9.35 61.55
Q 9.75 61.1 9.7 61 9.75 60.9 10.35 60.25
M 14 58.55
Q 14.05 58.4 14.05 58.35 14 58.3 13.95 58.3
L 13.9 58.3
Q 13.8 58.35 13.45 58.65 12.85 59.25 12.15 60.15 11.5 61.1 11.15 61.45 10.9 61.65 9.7 63.2
L 8.55 64.8 8.5 64.8
Q 8.4 64.9 8 65.5 7.6 66.05 7.45 66.4 7.25 66.7 7.25 66.8 7.25 66.85 7.3 66.9 7.35 66.9 7.4 66.9 7.45 66.9 7.55 66.8 7.9 66.55 8.6 65.6 9.5 64.35 9.95 63.85 10.45 63.3 10.45 63.2 10.45 63.1 10.85 62.65 11.55 61.85 12.1 61.2
L 13.15 59.9
Q 13.25 59.8 13.4 59.7 13.55 59.65 13.6 59.7 13.75 59.75 13.85 59.7 13.9 59.7 13.95 59.55 13.95 59.35 13.7 59.25 13.6 59.2 13.6 59.15 13.6 59.1 13.65 59.05 13.85 58.9 14 58.55
M 12.45 55.1
Q 12.2 55.25 11.85 55.6 11.15 56.35 10.35 57.3 9.2 58.75 8.6 59.45
L 6.75 61.7
Q 6.5 61.95 6.3 62.25 6.1 62.55 6.1 62.7 6.1 62.8 6.2 62.95
L 6.2 62.9
Q 6.25 63.05 6.35 63.05 6.45 63.05 6.55 63 6.6 62.9 6.6 62.85 6.6 62.7 6.9 62.3 7.25 61.85 7.8 61.3 8.35 60.7 8.95 59.9 9.65 59.05 9.95 58.8 10.3 58.5 10.25 58.3 10.25 58.2 10.45 58.05 10.6 57.85 11.45 56.95 12.1 56.25 12.1 56.1 12.1 56 12.5 55.6 12.65 55.4 12.75 55.25 12.85 55.05 12.75 55 12.7 54.9 12.45 55.1
M 11.75 54.25
Q 11.7 54.15 11.6 54.15 11.35 54.15 10.45 55.25 9.55 56.3 8.3 58
L 7.2 59.5
Q 6.85 59.9 6.6 60.35 6.3 60.8 6.3 60.95 6.3 61.15 6.35 61.2 6.4 61.25 6.55 61.2 6.75 61.1 6.9 60.8 7 60.5 7.1 60.5 7.3 60.5 7.45 60.1 7.45 59.95 7.6 59.85 7.7 59.75 7.85 59.75 8.1 59.75 8.15 59.7
L 8.15 59.65
Q 8.25 59.6 8.2 59.4 8.1 59.2 8.4 58.75 8.7 58.3 9.5 57.35
L 9.5 57.3
Q 9.6 57.2 9.7 57.15
L 9.75 57.15
Q 9.85 57.1 9.9 57.15
L 9.85 57.15
Q 10 57.2 10.05 57.15 10.1 57.1 10 57 9.95 56.9 10.45 56.15 10.95 55.35 11.4 54.9 11.65 54.7 11.7 54.45 11.75 54.35 11.75 54.25
M 11.6 52.4
Q 11.75 52.3 11.75 52.2 11.75 52.05 11.6 52 11.5 52 11.25 52.05
L 9.85 52.45
Q 9.4 52.55 9.1 52.7 8.75 52.85 8.75 52.95
L 8.7 52.95
Q 8.7 53.1 8.45 53.1 8.15 53.1 6.9 53.75 5.6 54.4 5.4 54.65 5.2 54.9 4.95 54.9 4.85 54.9 4.75 54.95 4.65 55.05 4.65 55.15 4.65 55.2 4.6 55.2 4.55 55.25 4.45 55.25 4.3 55.25 4.2 55.35 4.1 55.4 4.1 55.5 4.1 55.6 4.35 55.7 4.5 55.75 4.8 55.75 5.2 55.75 5.4 55.6 5.6 55.5 5.85 55.15 6.05 54.9 6.2 54.8
L 6.25 54.75
Q 6.3 54.9 6.5 54.85 6.65 54.8 6.95 54.65 7.45 54.3 7.9 53.85 8.2 53.55 8.35 53.55 8.5 53.55 8.8 53.45 9 53.35 9.65 53.05 10.05 52.8 10.4 52.8 10.55 52.8 10.7 52.75 10.85 52.7 10.9 52.6 11 52.45 11.3 52.45 11.5 52.45 11.6 52.4
M 39.75 71.25
Q 39.65 71.35 39.65 71.45 39.65 71.55 39.75 71.65
L 39.75 71.6
Q 39.9 71.7 40 71.7 40.15 71.7 40.25 71.6
L 40.25 71.65
Q 40.4 71.55 40.4 71.45 40.4 71.35 40.25 71.25 40.15 71.15 40 71.15 39.9 71.15 39.75 71.25
M 40.45 68.75
Q 40.3 68.85 40.4 68.95 40.4 69 40.6 69.05 40.8 69.1 41.55 69.1 43.25 69.1 44.95 68.95 46.65 68.8 46.65 68.55 46.65 68.4 45.85 68.4 45.1 68.35 43.65 68.4 40.65 68.5 40.45 68.75
M 34.35 61.9
Q 34.2 62.05 34 62.4 33.65 63.05 33.1 64.6
L 32.15 67.3
Q 30.85 70.8 30.65 72.25 30.55 73 30.6 73.15 30.6 73.2 30.65 73.2 30.65 73.25 30.75 73.25 30.8 73.25 30.95 73.1 31.1 73 31.2 72.75 31.3 72.55 31.3 72.35 31.3 72.15 31.35 72 31.4 71.85 31.45 71.8 31.55 71.75 31.6 71.5 31.7 71.25 31.7 70.95 31.7 70.35 31.8 70.2 31.95 70 32.85 67.5 33.7 64.9 33.7 64.65 33.7 64.4 34.3 63.2 34.55 62.7 34.65 62.3 34.8 61.85 34.7 61.8 34.55 61.7 34.35 61.9
M 38.9 64.65
Q 38.85 64.6 38.75 64.65 38.6 64.75 38.35 65.05 37.85 65.6 37.85 65.7
L 37.55 67.25
Q 37.25 68.7 37.15 70.35 37 72.05 37.15 72.3 37.25 72.45 37.4 72.45 37.5 72.4 37.6 72.2
L 37.6 72.25
Q 37.75 71.9 37.75 71.3 37.75 70.2 38.15 67.9 38.55 65.6 38.8 65.35 38.95 65.15 38.95 64.8 38.95 64.7 38.9 64.65
M 28.9 72.45
Q 28.75 72.55 28.65 72.7 28.45 73.05 28 73.55 27.5 74.1 27.5 74.35 27.5 74.55 27.15 74.9 26.95 75.05 26.85 75.25 26.7 75.45 26.7 75.55 26.7 75.75 26.15 76.4 25.75 76.85 25.25 77.75 24.65 78.6 24.7 78.8 24.7 79 24.8 79 24.9 79 25.05 78.85 25.3 78.6 25.6 78.1 26.05 77.35 26.15 77.35 26.3 77.35 26.8 76.5
L 26.85 76.5
Q 27.3 75.75 27.45 75.7 27.5 75.7 27.55 75.6
L 27.6 75.6
Q 27.65 75.55 27.65 75.4 27.65 75.2 28.15 74.6 28.6 74.1 28.95 73.35 29.3 72.55 29.1 72.4 29.05 72.3 28.9 72.45
M 20.7 71.15
Q 20.75 71.05 20.75 70.85 20.75 70.65 20.7 70.5 20.6 70.35 20.5 70.35 20.45 70.35 20.35 70.2 20.25 70 20.15 69.75 19.5 67.95 19.25 67.95 19.15 67.95 19.15 67.75 19.15 67.5 18.65 66.45 17.65 64.4 17.3 63.35 17.05 62.7 16.8 62.25 16.65 62.05 16.5 62 16.35 61.9 16.25 62 16.15 62.1 16.35 63 16.6 63.8 16.8 64.1 16.95 64.3 17.4 65.5 17.8 66.6 18.65 68.25 19.45 69.95 19.9 70.6 20.3 71.2 20.5 71.25 20.65 71.3 20.7 71.15
M 20.45 66.05
Q 20.55 66.1 21 67 21.45 67.9 21.8 68.2 21.9 68.35 21.95 68.5 22 68.6 21.95 68.75 21.9 68.85 21.95 69.1 22 69.3 22.1 69.45 22.2 69.65 22.35 69.7 22.5 69.8 22.6 69.7 22.75 69.55 22.55 68.65 22.35 67.7 22.15 67.55 22 67.45 20.8 65 19.55 62.5 19.55 62.25 19.55 61.9 19.3 61.9 19.15 61.9 19 61.5 18.85 61.1 18.9 60.85 18.95 60.7 18.9 60.6
L 18.85 60.6
Q 18.8 60.5 18.65 60.5 18.3 60.5 18.3 61 18.3 61.45 18.6 62.15 19.05 63 19.35 63.85 19.55 64.45 19.9 65.15 20.3 65.9 20.45 66.05
M 29.85 59.95
Q 29.5 60.25 29.15 60.95 28.8 61.6 26.75 65.75 24.7 69.9 24.7 70.15 24.7 70.3 24.8 70.4 24.9 70.5 25.05 70.5 25.2 70.5 25.3 70.4 25.4 70.3 25.4 70.1 25.4 69.8 25.9 68.9
L 27.2 66.2
Q 28.35 64 29.05 62.4 29.25 61.9 29.65 61.3 30 60.65 30.15 60.2 30.3 59.75 30.2 59.7 30.15 59.65 29.85 59.95
M 26.85 61.8
Q 26.85 61.55 26.75 61.45 26.65 61.35 26.45 61.45
L 26.4 61.45
Q 26.25 61.5 26.2 61.65 26.1 61.8 26.2 61.95 26.2 62.05 26.1 62.45 25.95 62.9 25.75 63.45 24.5 66.05 24.1 67.05 23.65 68.05 23.65 68.25 23.65 68.4 23.75 68.55 23.8 68.7 23.95 68.7 24.05 68.7 24.1 68.6 24.2 68.5 24.2 68.4 24.2 68.2 24.75 66.95 25.3 65.85 25.7 64.8
L 26.45 63.05
Q 26.8 62.25 26.85 61.8
M 23.3 61.65
Q 23.7 61.25 24.65 60.65 25.55 60 25.7 60 25.95 60 26.05 59.85 26.1 59.7 26.7 59.35 27.3 59 27.65 58.9 27.8 58.8 27.9 58.75
L 27.95 58.75
Q 28.05 58.6 28.05 58.5 28.05 58.4 28 58.35 27.95 58.3 27.8 58.3 27.65 58.35 26.9 58.7 25.4 59.35 23.85 60.4 22.25 61.45 22.25 61.8 22.25 61.95 22.35 62 22.45 62.05 22.65 62 22.95 61.95 23.3 61.65
M 25.2 56.35
Q 25.1 56.4 25.1 56.5 25.1 56.8 25.35 56.8 25.6 56.8 25.6 56.65 25.6 56.55 25.4 56.4 25.25 56.3 25.2 56.35
M 23.35 58
Q 23.5 58 23.9 57.7
L 23.95 57.7
Q 24.15 57.5 24.7 57.1 25 56.85 25 56.8 25 56.7 24.7 56.7 24.4 56.65 23.4 57.35 22.4 58 20.95 59.1 20.55 59.45 20.2 59.65 19.8 59.9 19.75 59.9 19.6 59.9 19.5 59.95 19.4 60.05 19.4 60.15 19.4 60.45 19.7 60.45 19.95 60.45 20.4 60.25 21.3 59.85 22 59.15 22.25 58.85 22.45 58.8 22.65 58.85 22.95 58.4 23.25 58 23.35 58
M 23.1 55.35
Q 23.15 55.25 23.1 55.2 23.05 55.15 23 55.15 22.6 54.95 17.7 57.1 16.8 57.5 16.8 57.7 16.8 57.85 16.95 57.85 17.05 57.85 17.3 57.8 17.7 57.7 18.55 57.45 20.2 56.9 20.9 56.45 21.75 55.85 22.85 55.5 23.1 55.4 23.1 55.35
M 21.45 52.95
Q 21.5 52.85 21.5 52.8 21.45 52.75 21.4 52.75 21.3 52.7 21 52.8 20.65 52.9 20.35 53.05 19 53.8 17.7 54.45 16.4 55.05 16.15 55.05 16 55.05 15.9 55.15 15.75 55.2 15.75 55.35 15.75 55.55 16.25 55.6 16.65 55.6 17.05 55.4
L 18.4 54.75
Q 19.45 54.25 19.5 54.1 19.55 54 19.75 54 20 54 20.45 53.6 20.85 53.25 21.25 53.1 21.4 53 21.45 52.95
M 37 61.5
Q 36.9 61.55 36.75 61.75 36.5 62.05 36.3 62.6 35.7 64.15 34.7 67.3 33.75 70.2 33.2 71.95 32.9 72.75 32.75 73.35 32.6 74.05 32.65 74.15 32.8 74.55 33.05 74.5 33.3 74.45 33.3 74.05 33.3 73.7 33.4 73.45 33.45 73.25 33.95 71.85 34.6 70 34.75 69.5 35 68.8 35.35 67.65 35.75 66.15 35.95 65.8 36.15 65.45 36.15 65.05 36.15 64.7 36.25 64.55 36.4 64.4 36.85 63.05 37.35 61.6 37.25 61.55 37.15 61.45 37 61.5
M 32.7 60.6
Q 32.95 60.1 32.8 59.95 32.65 59.8 32.3 60.1 31.95 60.4 31.95 60.65 31.95 60.9 31.65 61.25 31.3 61.6 30.65 62.9 29.95 64.2 29.95 64.5 29.95 64.7 29.85 64.75 29.7 64.7 29.5 65.1 29.35 65.45 28.75 66.9 28.3 67.85 27.7 69.05 27.1 70.25 27.1 70.55 27.1 70.75 27 70.8 26.8 70.85 26.35 71.8 25.9 72.7 25.9 72.95 25.9 73.05 25.85 73.15
L 25.8 73.2
Q 25.65 73.2 25.4 74 25.1 74.75 25.1 75.05 25.1 75.3 25.2 75.35 25.25 75.4 25.45 75.25 25.65 75.05 25.85 74.55 26.15 73.5 27.4 71.4 27.8 70.6 28.55 68.95 29.25 67.3 29.25 67.1 29.25 67 29.3 66.95 29.35 66.85 29.4 66.85 29.5 66.85 29.6 66.75 29.65 66.7 29.65 66.55 29.65 66.35 30.9 63.85 32.1 61.35 32.25 61.2 32.45 61.1 32.7 60.6
M 34.15 55.55
Q 33.85 55.5 33.3 55.55 30.25 55.75 29.35 55.85 28.85 55.9 28.65 56 28.55 56 28.5 56.05 28.4 56.1 28.45 56.2 28.55 56.4 30.1 56.4 31.65 56.35 31.8 56.15 31.85 56.1 31.95 56.05 32.1 56 32.3 56 33.1 56.05 33.8 56 34.55 55.9 34.5 55.7 34.55 55.55 34.15 55.55
M 32 53.65
L 32.05 53.65
Q 33 53.6 33.75 53.5 34.5 53.4 34.6 53.35 34.65 53.3 34.65 53.25
L 34.6 53.2
Q 34.55 53.2 34.5 53.15 34.35 53.15 34.05 53.15 33.5 53.1 32.35 53.15 29.95 53.2 28.7 53.35 28.2 53.4 27.6 53.45 27.45 53.45 27.3 53.5 27.1 53.6 27.1 53.75 27.1 53.9 27.45 53.95 27.8 53.95 28.45 53.9 29.95 53.75 32 53.65
M 33.6 49.95
Q 33.35 49.95 33 50.05 31.75 50.25 30.2 50.45 28.7 50.65 28.05 50.65 27.1 50.65 27.1 51 27.1 51.15 27.25 51.25 27.35 51.4 27.5 51.4 27.9 51.45 28.1 51.4 28.3 51.3 29.3 51.1 30.3 50.95 31.35 50.85 32.4 50.7 32.55 50.55 32.75 50.35 33.4 50.35 33.7 50.35 33.85 50.3 33.95 50.25 34 50.25 34.05 50.15 34 50.1 33.95 50 33.6 49.95
M 40.15 50.2
Q 40 50.95 39.65 54.85 39.25 59.4 39.5 59.9 39.55 60.15 39.65 60.3 39.7 60.35 39.75 60.4 39.8 60.45 39.85 60.4 39.95 60.25 40.15 57.65 40.4 55.05 40.6 52.2 40.7 50.25 40.9 49.85 41 49.65 40.95 49.55 40.9 49.4 40.65 49.4 40.3 49.4 40.15 50.2
M 38.25 49.35
Q 38.35 48.65 38.4 48.6
L 38.4 48.55
Q 38.5 48.4 38.5 48.35 38.5 48.2 38.35 48.2 38 48.2 37.8 48.75 37.65 49.2 37.65 50.3 37.6 51.7 37.5 52.4
L 37 56.8
Q 36.95 57.45 36.9 58 36.9 58.6 36.95 58.8 37 59.05 37.1 59.15 37.25 59.3 37.4 59.15 37.55 59 37.55 58.3 37.55 57.45 37.85 55.2 38.15 53 38.2 50.9 38.2 50 38.25 49.35
M 38.55 39.45
Q 38.6 39.35 38.1 39.35 37.65 39.35 37.65 39.8 37.65 40.1 36.45 42.5 35.25 44.8 35.05 45.4
L 34.7 46.3
Q 34.6 46.5 34.65 46.6 34.7 46.75 34.9 46.75 35.2 46.75 35.45 46.25 35.75 45.75 35.75 45.35 35.75 45.25 35.8 45.2 35.8 45.1 35.85 45.1 36 45.1 36.05 44.95
L 36.05 45
Q 36.15 44.85 36.15 44.65 36.15 44.5 36.2 44.4 36.25 44.3 36.3 44.3 36.4 44.35 36.5 44.15 36.55 44.05 36.55 43.85 36.55 43.7 36.6 43.6 36.65 43.5 36.7 43.5 36.8 43.5 36.9 43.35 36.95 43.25 36.95 43.05 36.95 42.9 37 42.8 37 42.7 37.05 42.7 37.2 42.7 37.9 41.25 38.55 39.8 38.55 39.5
L 38.55 39.45
M 26.35 47.55
Q 25.85 47.55 25.6 47.6 25.3 47.65 25.35 47.8 25.4 47.9 25.7 48 25.95 48.05 26.35 48.1 27.15 48.1 27.3 48.2 27.45 48.35 29.15 48.3 30.9 48.2 30.9 48
L 30.95 48
Q 31.05 48 31.2 48.05 31.7 48.2 33.2 48.25 34.7 48.3 34.8 48.15 34.85 48.05 34.8 47.95 34.7 47.9 34.55 47.85 34.3 47.75 33.7 47.7 32.5 47.6 29.25 47.55 27.3 47.5 26.35 47.55
M 22 39.75
Q 21.9 39.8 21.8 40.05 21.7 40.3 21.8 41.35 21.9 42.4 22.05 42.85 22.4 43.8 22.65 46.75 22.85 48.55 23 48.75 23.05 48.85 23.15 48.9 23.3 48.95 23.35 48.8 23.4 48.55 23.2 46.25 22.95 43.95 22.8 43.05 22.55 41.95 22.45 40.9 22.35 40.1 22.2 39.85 22.1 39.7 22 39.75
M 27.9 32.9
Q 28.2 32.5 28.2 32.35 28.2 32.25 27.9 32 27.4 31.65 27.25 31.8 27.05 31.9 26.7 32.7 26.15 33.9 25.1 35.95 23 40.3 23.35 41.45
L 23.4 41.45
Q 23.45 41.7 23.55 41.8 23.65 41.95 23.75 41.85
L 23.8 41.85
Q 23.95 41.7 23.95 41.05 24 39.65 25.1 37.45 25.3 37.05 25.45 36.65 25.6 36.25 25.6 36.1 25.6 36 25.65 35.9 25.7 35.85 25.75 35.85 25.85 35.85 25.95 35.7 26 35.55 26 35.4 26 35.25 26.1 35.15 26.1 35.05 26.15 35.05 26.4 35.05 26.4 34.75 26.4 34.35 26.7 33.9 27 33.45 27.2 33.45 27.3 33.45 27.5 33.25 27.75 33.15 27.9 32.9
M 36.85 37.05
Q 36.85 36.85 36.75 36.85 36.7 36.85 36.55 36.95 36.2 37.25 35.5 38.7 34.5 40.65 34.35 40.85 34.1 41.05 33.2 43 32.2 44.9 32.05 45.4 32 45.65 32.05 45.75 32.1 45.9 32.3 45.9 32.6 45.9 32.85 45.65
L 32.85 45.6
Q 33.1 45.35 33.1 44.95 33.1 44.45 34.5 41.8 35.85 39.1 36.35 38.65 36.45 38.55 36.7 37.8 36.85 37.25 36.85 37.05
M 34.4 35.1
Q 34.4 35.3 34.3 35.35 34.1 35.4 33.5 36.7 32.35 38.85 31.45 40.5 31.15 41 30.75 41.9 30.35 42.85 30.35 43 30.35 43.15 29.95 44 29.8 44.3 29.65 44.75 29.55 45.2 29.55 45.45 29.55 45.7 29.6 45.9 29.65 46.15 29.8 46.1 29.9 46.1 30 46 30.05 45.85 30.05 45.65 30.05 45.4 30.25 44.95 30.4 44.5 30.95 43.3
L 31.9 41.05
Q 32.5 39.65 32.75 39.15 33 38.7 33.1 38.7 33.3 38.7 33.3 38.2 33.3 38.05 33.35 37.95 33.4 37.9 33.4 37.85 33.5 37.9 33.65 37.6 33.8 37.35 33.95 37.05 34.1 36.7 34.3 36.5
L 34.3 36.45
Q 34.45 36.25 34.6 36.25 34.8 36.25 34.85 36.15 34.9 36.05 34.85 35.85 34.8 35.7 34.85 35.5 34.9 35.25 35.05 35.1 35.4 34.55 35.25 34.4 35.1 34.2 34.75 34.55 34.4 34.85 34.4 35.1
M 31.05 31.75
Q 30.75 31.8 30.55 32.35 30.25 32.9 30.2 32.9 30.05 32.9 29.55 33.95 29.05 34.9 28.95 34.95 28.75 34.95 28.75 35.2 28.7 35.35 28 36.6 26.85 38.6 26 40.4 25.1 42.2 25.1 42.55 25.1 42.85 25.15 43 25.2 43.05 25.25 43.1 25.3 43.1 25.35 43.05 25.55 42.95 25.8 42.2 26.05 41.35 26.4 40.75
L 27.4 38.8
Q 28.05 37.55 28.2 37.45 28.35 37.3 29.1 35.95 29.4 35.35 29.7 34.95 29.95 34.6 30 34.6 30.15 34.65 30.2 34.55 30.25 34.45 30.2 34.3
L 30.2 34.25
Q 30.15 34.15 30.2 34.05 30.2 33.95 30.25 33.9 30.2 34.05 30.25 34.15 30.25 34.25 30.4 34.25 30.55 34.25 30.6 34.1 30.65 34 30.6 33.85 30.5 33.55 30.7 33.1 30.95 32.65 31.25 32.55 31.5 32.5 31.55 32.4 31.65 32.25 31.55 32.05 31.4 31.6 31.05 31.75
M 32 33.8
Q 31.95 33.7 31.8 33.7 31.65 33.7 31.4 34.05 31.15 34.35 30.95 34.8 26.4 43.95 26.1 44.5 25.9 44.85 25.9 45.35 25.9 45.9 26.1 45.9 26.2 45.9 26.6 45.45 26.95 45.05 27 44.85 27.05 44.75 27 44.75 27 44.65 26.95 44.65 26.85 44.65 26.7 44.75
L 26.65 44.75 27.4 43.15
Q 28.5 40.85 29.5 39.1 30.05 37.95 30.05 37.7 30.05 37.6 30.1 37.55
L 30.15 37.55
Q 30.15 37.45 30.2 37.45 30.35 37.5 30.4 37.3 30.45 37.2 30.45 37 30.45 36.85 30.55 36.75 30.55 36.65 30.6 36.65 30.75 36.65 30.8 36.5 30.9 36.35 30.9 36.2 30.9 36.05 30.95 35.95 30.95 35.85 31 35.85 31.15 35.85 31.2 35.7 31.3 35.6 31.3 35.4 31.3 35.25 31.35 35.15 31.35 35.05 31.4 35.05 31.5 35.05 31.6 34.95 31.7 34.8 31.75 34.65 31.95 34.2 32 34.05 32.05 33.9 32 33.8
M 32.5 29
Q 32.35 29.1 32.35 29.35 32.35 29.55 32.45 29.65 32.55 29.8 32.7 29.8 32.8 29.85 33.1 30.1 33.45 30.4 33.8 30.85
L 35.45 32.6
Q 36.05 33.35 37.35 34.8 38.6 36.25 38.8 36.25 38.95 36.3 39.45 36.65 39.8 36.95 39.95 37
L 40 37.05
Q 40.1 37.05 40.1 37 40.1 36.95 40.05 36.85 39.85 36.5 38.85 35.45 37.55 34.15 36.95 33.35 36.45 32.65 36.1 32.35 35.1 31.3 34.2 30.25 33.35 29.25 33.4 29.2 33.45 29.1 33.4 29.05 33.4 29 33.3 28.95 33.2 28.9 32.95 28.9 32.65 28.9 32.5 29
M 32.05 26.95
Q 32 26.9 31.8 26.9 31.6 26.9 29.9 27.75 28.2 28.65 28.15 28.8 28.1 28.9 27.95 28.9 27.65 28.9 25.85 30.15 24.05 31.4 24.05 31.65 24.05 31.85 24.2 31.85 24.3 31.9 24.5 31.8 24.85 31.6 25.65 30.9
L 25.7 30.9
Q 25.9 30.7 27.25 29.95 27.65 29.75 27.8 29.6 27.95 29.45 28.6 29.15 29.2 28.85 30.35 28.2 31.35 27.6 31.7 27.45 32 27.35 32.05 27.15 32.1 27 32.05 26.95
M 10.3 48.6
Q 10.35 48.55 10.35 48.5 10.35 48.45 10.3 48.45 10.25 48.4 10.15 48.35 9.85 48.3 6.4 49.95 3 51.65 3 51.85 3 52.1 3.65 52.1 4.3 52.1 4.7 51.6 5.1 51.15 5.45 51.3 5.65 51.35 5.75 51.3 5.85 51.25 5.85 51.05 5.85 50.95 5.95 50.85 6.05 50.7 6.15 50.7 6.5 50.55 6.6 50.45 6.65 50.35 7.65 49.9 8.7 49.35 9.8 48.9 10.25 48.7 10.3 48.6
M 13.45 43.95
Q 13.45 43.8 13.4 43.7 13.3 43.6 13.2 43.7
L 13.15 43.7
Q 12.95 43.85 12.95 44.05 12.95 44.3 13.2 44.3 13.3 44.3 13.4 44.2 13.45 44.05 13.45 43.95
M 13.2 44.45
Q 13 44.35 12.75 44.65 12.55 44.9 12.65 45.1 12.75 45.25 12.9 47.9 13.1 50.6 13.15 52.15 13.15 52.75 13.4 52.75 13.6 52.8 13.7 52.25 13.85 51.5 13.65 48.05 13.4 44.6 13.2 44.45
M 14.1 37.6
Q 13.75 37.95 13.75 38.15 13.75 38.3 12.15 39.95 11 41.15 10.45 41.95 9.85 42.85 10.05 43.15 10.1 43.25 10.2 43.3 10.3 43.3 10.35 43.25 10.5 43.15 10.75 42.65 11.05 42.05 11.45 41.6
L 13.6 39.25
Q 14.15 38.6 14.45 38.1 14.75 37.55 14.6 37.4 14.45 37.25 14.1 37.6
M 17.5 40.6
Q 17.4 40.65 17.25 40.95 17.1 41.3 17.1 42.3 17.15 43.3 17.35 44.55 17.6 46.05 17.8 47.8 18 49.65 18.1 50
L 18.5 51.6 18.5 51.65 18.6 51.65 18.6 51.6 18.7 50.9
Q 18.75 50.35 18.55 48.4 18.35 46.4 18.1 45.2 17.9 44.25 17.9 42.4 17.9 41.15 17.8 40.75 17.75 40.65 17.7 40.6 17.6 40.55 17.5 40.6
M 15.3 41.7
Q 15.25 41.65 15.2 41.65 15.15 41.65 15.15 41.7 15.1 41.8 15.05 42 14.95 42.7 15.15 44.65 15.35 46.95 15.5 49.6 15.55 50.65 15.65 51.55 15.75 52.45 15.85 52.65 15.95 52.8 16.05 52.8 16.1 52.8 16.15 52.6 16.25 52.35 16.25 51.65 16.3 50.25 16.1 48.2 15.9 46.1 15.85 44.55 15.85 44 15.75 43.3 15.7 42.65 15.6 42.35 15.4 41.75 15.3 41.7
M 20.05 39.3
Q 19.95 39 19.9 38.9 19.8 38.85 19.75 38.85 19.65 38.85 19.6 38.95 19.3 39.25 19.9 44.65 20.5 50 20.95 50.7 21.15 51.05 21.4 50.95 21.6 50.85 21.45 50.45 21.05 49.1 20.35 42.05 20.15 39.85 20.05 39.3
M 5.65 49.2
Q 6.15 48.85 6.45 48.8 6.8 48.7 7.25 48.3 7.45 48.1 7.7 48 8 47.8 8.2 47.75 8.65 47.7 8.95 47.45 9.1 47.3 9.15 47.15 9.15 47.05 9.05 46.95 9 46.85 8.9 46.9 8.8 46.9 8.75 47.05 8.7 47.1 8.65 47.2
L 8.6 47.2
Q 8.55 47.25 8.45 47.25 8.25 47.25 6.85 47.95 5.45 48.65 4.6 49.15 2.8 50.25 2.8 50.4 2.8 50.55 3 50.55 3.15 50.6 3.45 50.55 3.95 50.5 4.45 50.3 5 50.05 4.9 49.75
L 4.9 49.7
Q 4.85 49.65 4.85 49.6 4.85 49.55 4.9 49.55 5.15 49.55 5.65 49.2
M 2.35 48.35
Q 1.95 48.65 1.85 48.85 1.8 48.9 1.85 49 1.85 49.05 1.95 49.05 2.1 49.1 2.45 49.1 3.15 49.05 3.55 48.55 3.7 48.35 3.9 48.2 4.05 48.1 4.1 48.1 4.25 48.1 4.3 48 4.4 47.95 4.4 47.85 4.4 47.8 4.45 47.75 4.5 47.7 4.6 47.7 4.95 47.7 4.95 47.5
L 5.1 47.4
Q 5.3 47.25 5.5 47.2 6.1 46.9 6.2 46.8 6.35 46.65 8.05 45.75 8.5 45.55 8.7 45.4 8.8 45.25 8.85 45.2 8.85 45.15 8.8 45.15 8.8 45.1 8.75 45.1 8.55 45.05 7.3 45.65 6 46.25 4.3 47.2
L 3.15 47.85
Q 2.7 48.1 2.35 48.35
M 9.55 35.6
Q 10.05 34.75 10 34.55 9.95 34.45 9.9 34.45 9.85 34.45 9.8 34.5 9.7 34.55 9.6 34.65 9.3 34.95 9 35.4 8.05 36.75 7.1 38 6.15 39.2 5.5 40.3 4.85 41.4 4.85 41.75 4.85 41.9 4.9 42 5 42.1 5.1 42.1 5.25 42.1 5.3 42 5.35 41.85 5.35 41.7 5.35 41.45 5.9 40.65 6.45 39.8 7.8 38.05 9.05 36.4 9.55 35.6
M 8.2 33.05
Q 8.2 32.85 8.8 32.25 9.3 31.75 9.35 31.55 9.45 31.45 9.4 31.35 9.35 31.3 9.2 31.3 8.55 31.3 5.45 35.85 3.8 38.35 3.3 39.25 2.8 40.15 2.8 40.65 2.8 40.9 2.85 41 2.9 41.05 3 41.05
L 3.1 41
Q 3.25 40.8 3.65 39.85 3.9 39.35 4.1 39 4.3 38.7 4.35 38.7 4.4 38.7 4.5 38.6 4.55 38.5 4.55 38.4 4.55 38.2 5.2 37.3 5.8 36.35 6 36.3 6.2 36.2 6.2 35.95 6.2 35.8 6.85 34.85 7.45 33.9 7.8 33.6 8.2 33.25 8.2 33.05
M 12 36.45
Q 11.9 36.4 11.85 36.5 11.65 36.55 11.5 36.8 11.3 37 10.45 38 8.7 39.95 7.85 41.05 7.05 42.15 6.75 43 6.6 43.35 6.6 43.5 6.6 43.65 6.65 43.65 6.7 43.7 6.8 43.6 7.05 43.4 7.85 42.2 8.55 41.15 9.15 40.4 9.75 39.65 11.3 37.9 11.65 37.45 11.9 37.05 12.2 36.6 12.1 36.5 12.05 36.45 12 36.45
M 13.45 27.7
Q 13.35 27.8 13.35 28.05 13.35 28.4 14.35 30.35 15.35 32.25 16.3 33.75 16.85 34.65 17.15 34.9 17.3 35.1 17.4 35.1 17.45 35.1 17.5 35 17.5 34.95 17.5 34.9 17.5 34.8 16.85 33.5 16.2 32.25 16.1 32.15 15.95 32 15.35 30.9 14.75 29.75 14.35 28.9 13.95 28 13.7 27.8 13.5 27.6 13.45 27.7
M 11.15 30.75
Q 10.5 30.1 10.35 30.1 10.2 30.1 10.2 30.25 10.2 30.35 10.25 30.55 10.35 30.8 10.65 31.2 10.95 31.55 11.9 32.6 12.5 33.3 12.55 33.5 12.55 33.6 12.65 33.8 12.8 33.95 12.95 34.1 13.1 34.2 13.3 34.4 13.45 34.65 13.55 34.9 13.65 35.1 13.8 35.25 13.95 35.45 14.05 35.45 14.15 35.45 14.25 35.8 14.4 36.25 15 37.05 15.35 37.5 15.5 37.65 15.6 37.75 15.65 37.8 15.7 37.8 15.75 37.8 15.8 37.75 15.8 37.7 15.9 37.5 15.3 36.45
L 14.2 34.5
Q 13.75 33.7 13.25 33.15 12.75 32.6 12.25 31.95 11.8 31.35 11.15 30.75
M 15.8 25.45
Q 15.7 25.25 15.55 25.25 15.35 25.25 15.3 25.45 15.25 25.6 15.3 25.9 15.4 26.5 15.9 27.65 16.85 29.9 18.1 31.55 18.5 32.05 19 32.55 19.5 33.05 19.75 33.2 20 33.3 20.1 33.35 20.2 33.35 20.25 33.35 20.3 33.3 20.3 33.25 20.25 33.05 19.7 32.5 18.85 31.6 17.55 29.5 16.3 27.45 16.3 26.95 16.3 26.8 16.25 26.6 16.15 26.45 16.05 26.4 16 26.35 15.95 26.2 15.9 26 15.9 25.8 15.9 25.6 15.8 25.45
M 18.8 24.7
Q 18.45 24.35 18.3 24.55 18.15 24.7 18.35 25.2 18.55 25.65 19.8 28.25 20.3 29.25 20.75 30.15 21.2 31 21.3 31.1
L 21.35 31.15
Q 21.5 31.35 21.7 31.4 21.8 31.45 21.9 31.4 21.95 31.4 21.95 31.25 21.95 31.15 20.55 28.35 20 27.2 19.55 26.25 19.15 25.35 19.15 25.25 19.15 25 18.8 24.7
M 30.9 24.65
Q 30.9 24.55 30.75 24.6 30.4 24.7 29.45 25.3 28.35 26.1 27.15 26.75 23.25 28.95 23.25 29.2 23.25 29.4 23.5 29.4 23.7 29.4 24.6 28.95 25.5 28.45 25.55 28.3 25.6 28.2 25.8 28.2 26 28.2 27.2 27.4 28.35 26.6 28.5 26.6 28.7 26.6 29.25 26.15
L 30.35 25.2
Q 30.75 24.95 30.85 24.8 30.95 24.7 30.9 24.65
M 33.6 17.65
Q 34.1 16.65 34.15 16.35 34.15 16.25 34.1 16.2 34.05 16.15 33.95 16.25 33.8 16.3 33.6 16.6 33.25 16.95 32.85 17.9 32.45 18.85 32.25 19.55 32.15 20.1 32.05 22.2 32 23.2 32.05 23.65 32.05 23.85 32.1 23.95 32.15 24 32.2 24 32.25 24 32.3 23.9 32.45 23.6 32.7 21.3 32.85 19.85 33.05 19.15 33.2 18.5 33.6 17.65
M 39.2 16.05
Q 39.35 15.8 39.3 15.7 39.3 15.65 39.2 15.6 39.15 15.6 39.1 15.65 38.65 15.75 38 17.35 37.4 18.95 37.55 19.4 37.6 19.5 37.55 19.65
L 37.55 19.7
Q 37.55 19.85 37.5 19.95 37.35 20.05 37.25 20.5 37.15 20.95 37.15 21.5 37.05 22.7 36.95 22.85 36.8 22.95 36.8 23.75 36.8 24.05 36.9 24.3 36.95 24.6 37.1 24.6 37.25 24.6 37.3 24.3 37.35 24.05 37.35 23.7 37.35 23.4 37.4 23.15
L 37.45 23
Q 37.75 23 38.05 19.6 38.25 17.8 39.2 16.05
M 35.65 18.5
Q 35.7 18.35 36.15 17.7 36.85 16.7 37.1 16.2 37.35 15.6 37.15 15.5 37.05 15.45 36.75 15.75 36.55 16 36.15 16.6 35.4 17.75 34.95 18.75 34.5 19.6 34.25 21.05 34 22.45 34 23.75 34 24.4 34.05 24.9 34.1 25.4 34.25 25.4 34.45 25.4 34.6 23.65 34.8 20.4 35.15 20.05 35.35 19.85 35.35 19.35 35.35 19.15 35.4 19.1 35.5 19.05 35.7 19.1 36.1 19.15 36.1 19.1 36.15 19.05 35.85 18.8 35.65 18.65 35.65 18.5
M 30.05 23.35
Q 30 23.5 30 23.6 30 23.75 30.15 23.75 30.25 23.8 30.4 23.6 30.5 23.45 30.55 23.3
L 30.55 23.25
Q 30.6 23 30.95 21.7 31.25 20.6 31.25 19.8 31.3 19.05 31.5 18.7 31.65 18.35 31.7 17.6 31.7 16.8 31.45 16.8 31.2 16.8 30.95 17.8 30.75 18.8 30.75 19.7 30.75 20.45 30.55 21.6 30.3 22.75 30.05 23.35
M 29.65 22.6
Q 29.65 22.4 29.55 22.35 29.45 22.3 29.2 22.4 28.85 22.55 28.35 23.05 27.85 23.55 26.25 24.65 24.65 25.65 24.35 25.85 24.1 26.05 24.05 26.05 23.8 26.05 22.7 26.85 21.65 27.65 21.65 27.85 21.65 28.15 21.95 28.2 22.2 28.25 22.6 28.1 22.75 28 22.85 27.9 22.9 27.75 22.85 27.6 22.8 27.55 22.95 27.45 23.05 27.3 23.35 27.2 24 26.9 24 26.7 24 26.6 24.15 26.6 24.4 26.6 25.15 26.1 25.4 25.9 25.7 25.8 25.95 25.7 26 25.75 26.15 25.8 26.2 25.75 26.25 25.75 26.2 25.65 26.2 25.6 26.15 25.6 26.15 25.55 26.25 25.4 26.45 25.2 26.75 25 27.5 24.5 28.8 23.4 29.3 23 29.45 23 29.55 23 29.6 22.85 29.65 22.75 29.65 22.6
M 24.9 22.65
L 23.5 23.85
Q 23.45 23.85 23.45 23.9 23.4 24 22.7 24.45 22 24.95 21.35 25.55 20.6 26.2 20.65 26.4 20.65 26.55 20.75 26.6 20.8 26.65 21 26.55 21.3 26.45 21.7 26 22.2 25.5 22.95 24.95 23.65 24.5 23.75 24.4
L 23.75 24.35
Q 23.95 24.2 24.7 23.6 25.15 23.3 25.35 23.2 25.45 23.15 25.5 23.15 25.55 23.15 25.55 23.2 25.6 23.25 25.6 23.3 25.7 23.35 25.75 23.3 25.8 23.3 25.75 23.1 25.75 23 26.05 22.6 26.35 22.2 26.85 21.7 28.65 19.85 28.65 19.4 28.65 19.35 28.6 19.35 28.6 19.3 28.55 19.35 28.5 19.35 28.45 19.35 28.4 19.4 28.2 19.55
L 28.2 19.6
Q 27.85 19.85 27.4 20.35 26.25 21.5 24.9 22.65
M 78.15 44.25
Q 78.05 44.15 77.9 44.3 77.65 44.5 77.15 45.3 76.25 46.75 75.8 48.1 75.25 49.4 75 50.9
L 74.6 53.25
Q 74.5 53.75 74.6 54.05 74.75 54.4 74.95 54.4 75.15 54.4 75.25 53.95 75.35 53.55 75.5 52.6 75.65 51.45 76.1 49.2 76.2 48.7 76.8 47.35 77.4 46.05 77.6 45.9 77.75 45.75 78 45.3 78.25 44.8 78.25 44.55 78.25 44.3 78.15 44.25
M 79.1 46.1
Q 79.2 45.95 79.25 45.9 79.35 45.95 79.4 45.75 79.45 45.65 79.45 45.45 79.45 45.3 79.4 45.15 79.35 45 79.25 45 79.1 45 78.85 45.3 78.6 45.6 78.4 46.05
L 77.55 47.85
Q 76.95 49.1 76.5 50.7 75.95 52.65 75.75 53.35 75.5 53.95 75.15 54.9 74.9 55.35 74.75 55.9
L 74.55 56.8
Q 74.45 57 74.55 57.1 74.6 57.2 74.8 57.2 75.1 57.2 75.25 56.85 75.4 56.55 75.4 56 75.4 55.8 75.45 55.7
L 75.5 55.6
Q 75.7 55.6 76 54.55 76.1 54.15 76.25 53.85 76.35 53.6 76.4 53.55 76.6 53.6 76.6 53.1 76.6 52.75 77 51.45 77.4 50.1 77.65 49.65 77.85 49.35 77.85 49.1 77.85 48.9 78.2 48.05
L 78.85 46.55
Q 78.95 46.3 79.1 46.1
M 74.15 45.7
Q 74.1 45.4 73.95 45.4 73.35 45.4 73.15 49 73.05 51.3 72.9 52.35 72.85 52.85 72.9 53.1 72.9 53.4 73.05 53.4 73.35 53.4 73.5 52.65 73.65 51.95 73.9 49.8 74.15 47.6 74.15 46.55 74.15 46 74.15 45.7
M 61.45 45.35
Q 61.6 46.5 61.95 48 62.2 49.1 62.4 49.65 62.55 50.15 63 51.1
L 63.25 51.6 63.25 51.65 63.3 51.65 63.35 51.6 63.45 51.15
Q 63.45 50.95 63.4 50.5 63.3 50.1 63.2 49.7 62.9 48.75 62.45 46.65 62 44.65 61.9 44.35 61.85 44.15 61.8 44.1 61.7 44 61.55 44.1 61.35 44.2 61.45 45.35
M 63.9 42.65
Q 64 42.6 64.05 42.45 64.05 42.35 63.95 42.25 63.75 42 63.45 42.1 63 42.3 63.15 44.25 63.35 46.2 63.85 47.4 64.15 48.05 64.15 48.25 64.15 48.5 64.65 49.55 65.2 50.6 65.5 50.6 65.65 50.6 65.7 50.5 65.7 50.45 65.7 50.3 65.65 50.05 65.45 49.5 65.1 48.6 64.85 48 64.7 47.55 64.3 46.25 63.95 45.05 63.75 43.3 63.75 43.05 63.8 42.9 63.8 42.7 63.9 42.7
L 63.9 42.65
M 65.7 41
Q 65.7 40.75 65.65 40.55 65.55 40.3 65.45 40.25 65.25 40.15 65.1 40.2 65 40.3 64.95 40.5 64.85 40.95 65.05 41.8 65.35 43.25 65.7 44.6 66.05 45.85 66.2 46.15 66.35 46.45 66.35 47.25 66.35 47.6 66.45 47.85 66.5 48.2 66.6 48.25 66.65 48.3 66.75 48.4 66.8 48.6 66.8 48.75 66.8 49.25 66.95 49.4 67.1 49.55 67.2 49.45 67.3 49.4 67.3 49.2 67.35 48.8 67.2 47.8 66.85 45.8 66 42.65 65.7 41.55 65.7 41
M 67.9 39.75
Q 67.7 38.55 67.45 38.2
L 67.45 38.15
Q 67.3 37.95 67.15 37.95 66.95 37.9 66.8 38.1 66.5 38.35 66.9 39.05 67.15 39.75 67.5 41.65 67.75 43.45 68.3 45.7
L 68.3 45.75
Q 68.9 47.95 69.1 47.95 69.3 47.95 69.35 47.7 69.45 47.5 69.4 47.15 69.35 46.4 68.85 44.55 68.35 42.5 67.9 39.75
M 66.05 28.2
Q 66 28.3 66.1 28.5 66.25 28.9 66.3 31.1 66.35 32.05 66.45 32.7 66.45 33 66.5 33.2 66.5 33.25 66.55 33.3 66.6 33.4 66.65 33.35 66.8 33.25 66.85 31.1 66.95 28.95 66.8 28.55 66.75 28.35 66.6 28.2 66.45 28.1 66.3 28.1 66.1 28.1 66.05 28.2
M 70.05 26
Q 70.1 25.65 70.1 25.45 70.1 25.35 70.05 25.3 70 25.25 69.9 25.25 69.65 25.3 69.4 26.05 69.2 26.7 69.15 28.35 69.15 30.05 69.35 30.6 69.35 30.65 69.4 30.7 69.45 30.8 69.5 30.75 69.6 30.7 69.65 30.5 69.7 30.1 69.75 28.85 69.9 26.6 70.05 26
M 71.4 37.05
Q 71.9 37.05 72.05 36.85 72.1 36.75 72.3 36.75 72.55 36.65 72.8 36.65 73.5 36.65 73.9 36.5 74.25 36.3 75.35 36.1
L 77.55 35.65
Q 78.6 35.45 79.2 35.45 79.45 35.45 79.65 35.4 79.9 35.3 79.95 35.2 80 35.1 80 35.05 79.95 35 79.85 34.95 79.7 34.9 79.3 34.9 78.55 34.95 76.95 35.2 73.75 35.65 70.45 36.55 69.3 36.9 68.9 37.1 68.4 37.35 68.4 37.65 68.4 37.75 68.55 37.8 68.7 37.85 68.85 37.85 69.05 37.85 69.15 37.8 69.35 37.75 69.35 37.65 69.35 37.55 70.1 37.3 70.9 37.05 71.4 37.05
M 57.4 49.3
Q 57.85 49.05 58 48.9 58.05 48.8 59 48.4 60.05 47.9 60 47.65 60 47.5 59.9 47.45 59.85 47.4 59.7 47.45 59.4 47.55 58.3 48.1 55.95 49.3 54.3 50.35 52.6 51.45 52.6 51.8 52.6 51.95 52.8 51.95 52.9 51.95 53.35 51.7 53.85 51.45 53.95 51.35 54.15 51.15 57.4 49.3
M 53.8 49.15
Q 53.9 49.15 55.1 48.35 56.3 47.6 57.65 46.95 58.85 46.35 59.05 46.25 59.2 46.15 59.2 46.1 59.25 46 59.15 45.9 58.95 45.7 56.7 46.8 56 47.1 54.45 48.05 52.9 49.05 52.6 49.3 52.2 49.55 52.2 49.75 52.2 49.9 52.3 49.95 52.4 50 52.6 49.95 52.95 49.85 53.3 49.55 53.7 49.15 53.8 49.15
M 52.2 47.7
Q 52.2 47.9 52.65 47.95 53.1 47.95 53.15 47.75 53.25 47.6 54.2 47.15
L 56 46.3
Q 56.8 45.9 57 45.9 57.15 45.9 57.3 45.85 57.45 45.75 57.6 45.6 57.7 45.4 57.7 45.35 57.7 45.2 57.5 45.2 57.2 45.2 56.6 45.5 56.05 45.8 55.85 45.8 55.6 45.8 53.9 46.65 52.2 47.5 52.2 47.7
M 54.3 44.85
Q 54.25 45 53.9 45 53.6 45 52.95 45.3 52.2 45.6 52.2 45.75 52.2 45.9 52.4 45.9 52.55 45.95 52.85 45.9 53.5 45.9 53.65 45.75 53.75 45.6 55.05 45.15 56.25 44.7 56.65 44.65 56.95 44.6 57.2 44.35 57.3 44.25 57.25 44.2 57.2 44.15 57.1 44.15 56.9 44.1 56.45 44.2 55.35 44.4 54.9 44.55 54.4 44.7 54.3 44.85
M 55.75 41.4
Q 57.45 39.4 58.2 38.65 58.9 37.9 59.65 37.05 60.65 35.85 62.1 34.35 63.2 33.25 63.5 32.85 63.65 32.6 63.65 32.5 63.65 32.4 63.6 32.35 63.55 32.3 63.45 32.3 63.3 32.3 61.85 33.85 60.55 35.25 59.6 36.25 58.95 36.9 57.7 38.35 56.7 39.55 55.9 40.35 55.25 41.1 55.15 41.45 55.05 41.75 54.9 41.75 54.8 41.75 54.7 41.85 54.65 41.9 54.65 42.05 54.65 42.25 54.75 42.3 54.8 42.35 55 42.25 55.3 42.05 55.75 41.4
M 60.25 42.45
Q 60 42.7 59.7 43.2 59.6 43.35 59.6 43.5 59.6 43.6 59.65 43.65 59.65 43.7 59.75 43.7 59.9 43.7 60.3 43.4 60.65 43.05 60.65 42.85 60.65 42.65 61.1 42.25 61.5 41.8 62.05 41.05 62.5 40.4 63.2 39.7 63.85 39 63.85 38.85 63.85 38.75 64.4 38.2 64.95 37.6 65.7 36.85 66.95 35.55 67.3 35.1 67.5 34.85 67.5 34.7 67.5 34.6 67.45 34.55 67.4 34.55 67.3 34.55 67.05 34.5 65.25 36.4 63.5 38.25 62.95 39.1 62.65 39.5 61.95 40.3 61.2 41.1 60.9 41.65 60.6 42.1 60.25 42.45
M 57.7 42.1
Q 58 42.1 58 41.8 58 41.6 58.45 41.15 59.1 40.4 61.35 38.15 63.65 35.9 64.35 35.3 64.75 34.95 65 34.65 65.15 34.5 65.2 34.4 65.3 34.25 65.2 34.2 65 34.05 63.75 35.15 62.5 36.2 60.65 38.05 58.8 39.9 58.1 40.65 57.45 41.45 57.45 41.75 57.45 41.9 57.55 42 57.6 42.1 57.7 42.1
M 41.25 44.75
Q 42.25 45.25 42.3 45.3 42.45 45.45 43.45 45.9 44.45 46.35 45.05 46.55 45.9 46.85 46.4 47.15 46.6 47.3 46.9 47.45 47.15 47.55 47.3 47.55 47.4 47.55 47.5 47.6 47.55 47.6 47.55 47.65 47.55 47.8 47.75 47.85 47.9 47.95 48.1 47.95 48.35 47.95 48.5 47.85 48.7 47.8 48.7 47.65 48.7 47.55 48.5 47.5 48.35 47.4 48.15 47.4 47.95 47.4 47.75 47.35 47.6 47.3 47.55 47.25 47.5 47.15 47 46.85 46.5 46.6 45.85 46.3 43.9 45.4 43.25 45.05 42.6 44.75 41.5 44.15 40.9 43.85 40.45 43.65 39.95 43.4 39.9 43.5 39.8 43.6 39.9 43.75 39.95 43.85 40.15 44.05 40.5 44.35 41.25 44.75
M 40.9 46.9
Q 41.05 47.1 42.5 47.75 43.9 48.35 44.55 48.55
L 46 48.95
Q 46.55 49.15 47.6 49.15 48.1 49.15 48.35 49.1 48.5 49.05 48.55 49 48.65 48.95 48.6 48.85 48.5 48.75 48.25 48.7 48.05 48.6 47.75 48.6 46.7 48.6 45.4 48.2 44.1 47.75 42.05 46.8 40.5 46.05 39.95 45.9 39.6 45.8 39.45 45.85 39.25 45.85 39.25 46.05 39.25 46.15 39.35 46.25
L 39.4 46.25
Q 39.5 46.35 39.6 46.35 39.8 46.35 40.25 46.55 40.7 46.75 40.9 46.9
M 40.7 41.4
Q 40.5 41.4 40.5 41.5 40.5 41.55 40.65 41.65 40.85 41.8 41.5 42.15 45.4 43.95 45.5 44.1 45.6 44.3 45.9 44.3 46 44.3 46.1 44.35 46.15 44.4 46.15 44.45 46.1 44.65 46.6 44.8 47 44.95 47.2 45.2 47.5 45.4 48 45.65 48.5 45.9 48.55 45.9 48.6 45.9 48.65 45.85 48.7 45.8 48.7 45.7 48.7 45.5 48.05 45.15 47.45 44.8 47.2 44.5 46.6 43.95 43.95 42.65 41.25 41.35 40.7 41.4
M 45.85 41.3
Q 46.8 41.95 47.85 42.5 48.9 43.05 49.35 43.1 49.5 43.1 49.55 43.1 49.7 43.05 49.65 42.95 49.65 42.9 49.25 42.6 48.85 42.25 48.25 41.95 47.7 41.65 46.4 40.85 45.05 40.1 44.3 39.6 43.75 39.25 42.9 38.8 42 38.35 41.85 38.35 41.65 38.35 41.65 38.5 41.6 38.55 41.7 38.75 41.85 39.05 42.15 39.2 44.4 40.3 45.85 41.3
M 44.7 34.95
Q 44.780859375 35.012890625 44.85 35.05
L 44.7 34.95
Q 44.5833984375 34.600390625 44.4 34.25 44.296484375 34.363671875 44.15 34.45 43.8919921875 34.6556640625 43.85 34.75 43.994921875 34.9154296875 44.15 35.05 44.5546875 35.5001953125 44.85 38.45 44.88828125 38.5740234375 44.9 38.7 44.9505859375 38.6240234375 45 38.55 45.2 38.15 45.3 37.85 45.35 37.55 45.3 37.2 45.202734375 36.792578125 44.95 35.8 44.86875 35.39921875 44.7 34.95
M 41.5 34.9
Q 41.7 35.05 41.85 35.05 42 35.05 42 34.8 42 34.7 41.65 34.3 41.35 33.9 40.9 33.45 39.8 32.4 38.6 30.85 37.65 29.7 36.65 27.85 35.7 26 35.8 25.7 35.85 25.55 35.75 25.45
L 35.8 25.45
Q 35.7 25.3 35.55 25.3 35.4 25.3 35.3 25.5 35.2 25.6 35.2 25.85 35.2 26.25 35.65 27.35 36.1 28.5 36.3 28.6 36.4 28.65 36.4 28.8 36.4 28.95 37.05 29.85 37.6 30.8 37.85 31 37.95 31.1 38.4 31.7 38.95 32.4 40.15 33.65 41 34.6 41.5 34.9
M 45.45 31.45
Q 45.4 31.75 45.4 32.65 45.396875 33.553125 45.35 34.25 45.371875 34.41953125 45.35 34.55
L 45.35 34.6
Q 45.4 34.744921875 45.4 35.05 45.45 35.75 45.5 36.05 45.5 36.1693359375 45.5 36.2 45.702734375 36.95234375 45.75 37.15 45.9 38.05 46 38.55 46.1 39 46.2 39.3 46.35 39.6 46.4 39.6 46.6 39.6 46.6 39 46.6 38.35 46.4 37.45 46.1546875 36.396875 45.95 32.8 45.9337890625 32.0185546875 45.9 31.45
L 45.85 31.45
Q 45.7 31.4 45.6 31.3 45.5 31.2 45.45 31.45
M 41.45 29.55
Q 41.2 29.3 41.2 29.15 41.2 29 40.95 28.65 40.65 28.35 39.8 27.1 39.55 26.65 38.95 26.25 38.35 25.85 38.2 26.05 38 26.2 38.05 26.4 38.1 26.6 38.4 26.6 38.5 26.6 38.65 26.75 38.85 26.95 39 27.2 39.4 27.8 39.5 27.8 39.6 27.8 40.15 28.8 41 30.2 42.85 32.05 43.3 32.5 43.55 32.6 43.65 32.65 43.75 32.65 43.8 32.6 43.8 32.45 43.85 32.35 42.9 31.25 42 30.15 41.45 29.55
M 41.15 24.75
Q 40.8 25.1 42.3 27.3 43.75 29.45 44.65 29.95 44.95 30.15 45.15 30.2 45.3 30.25 45.35 30.2 45.45 30.2 45.45 30.1 45.45 30.05 44.3 28.8 43.85 28.35 43.4 27.65 42.9 27.05 42.7 26.6 42.15 25.6 41.75 25.1 41.55 24.85 41.45 24.75 41.25 24.65 41.15 24.75
M 47.65 28.15
Q 47.4 28.25 47.2 28.8 46.85 29.95 47.2 33.35 47.4 34.95 47.55 36.45 47.6 37.25 47.7 37.5 47.75 37.8 47.95 37.8 48.15 37.8 48.2 37.6 48.2 37.45 48.15 36.85 47.9236328125 35.2978515625 47.8 31.35 47.8578125 31.3560546875 47.8 31 47.7404296875 30.644921875 47.75 30 47.7630859375 29.4111328125 47.8 29.15
L 47.75 29.1
Q 47.75 29.083984375 47.75 29 47.7 28.85 47.75 28.65 47.7638671875 28.573828125 47.75 28.5 47.7978515625 28.3150390625 47.75 28.2 47.7390625 28.127734375 47.65 28.15
M 49.35 26.45
Q 49.1 26.45 49.05 27.8 49.05 29.2 49.25 30.05 49.45 30.95 49.55 33.6
L 49.6 36.65
Q 49.65 37.25 49.9 37.15 50 37.1 50.1 36.25 50.15 35.4 50.15 33.3 50.15 29.6 50 29.65 49.95 29.7 49.95 29.35 49.9 29.05 49.95 28.55 49.95 28.05 49.95 27.7 49.9 27.35 49.85 27.35 49.65 27.35 49.6 26.9 49.6 26.7 49.5 26.55 49.4 26.45 49.35 26.45
M 57.1 35.7
Q 56.6 36.4 56.05 36.95 55.6 37.4 54.65 38.6 53.7 39.7 53.25 40.2 52.65 40.8 52.45 41.05 52.25 41.3 52.25 41.35
L 52.25 41.4
Q 52.25 41.5 52.55 41.5 52.7 41.5 52.8 41.45 52.95 41.4 52.95 41.3 52.95 41.15 54.35 39.7 55.75 38.2 56.35 37.45 56.85 36.75 57.65 35.95 58.3 35.25 58.55 34.85 58.7 34.6 58.7 34.5 58.75 34.4 58.7 34.35 58.65 34.3 58.55 34.3 58.2 34.3 57.1 35.7
M 59.4 33.4
Q 59.3 33.45 59.3 33.6 59.3 33.65 59.25 33.65 59.15 33.7 59.05 33.7 58.9 33.7 58.8 33.8 58.7 33.85 58.7 34 58.7 34.15 58.8 34.25 58.9 34.3 59.15 34.25 59.55 34.15 59.75 33.8 59.95 33.55 59.9 33.45 59.9 33.3 59.65 33.3 59.5 33.3 59.4 33.4
M 55.1 33.95
Q 54.4 34.6 54.45 34.75 54.4 34.9 53.25 36.15 52 37.45 52 37.6 52 37.7 50.9 38.8 49.75 40 49.75 40.1 49.75 40.2 49.9 40.25 49.95 40.3 50.15 40.3 50.5 40.25 50.5 40.05 50.5 39.95 51.45 38.95 52.75 37.5 53.35 36.85 54.3 35.65 55.2 34.8 55.85 34.1 56.05 33.75 56.15 33.55 56.15 33.45 56.15 33.3 55.95 33.3 55.8 33.3 55.1 33.95
M 60.6 30.5
Q 60.2 30.45 59.4 30.6 57.8 30.8 56 31.3 55.2 31.55 54.55 31.65 54.25 31.7 54.05 31.8 53.8 31.9 53.8 32 53.8 32.15 54.1 32.2 54.3 32.25 54.75 32.25 55.65 32.15 56.25 31.9 56.8 31.7 57.5 31.55 58.15 31.4 60.2 31.1 60.55 31.05 60.75 30.95 61.05 30.85 61.05 30.7 61.05 30.5 60.6 30.5
M 58.1 28.25
Q 58.05 28.2 58 28.2 57.95 28.15 57.75 28.15 57.55 28.1 57.35 28.15 57.1 28.15 57 28.3 56.8 28.5 56.55 28.5 56.4 28.5 55.5 28.85 54.6 29.2 54 29.5 53.65 29.7 53.1 29.7 52.8 29.7 52.65 29.75 52.4 29.8 52.4 29.95 52.4 30.25 52.8 30.25 53.15 30.3 53.85 30.1 55.2 29.75 55.85 29.2 56 29 56.45 29 56.65 29 56.8 28.95 57 28.9 57 28.8 57 28.75 57.15 28.65 57.35 28.55 57.6 28.5 58.05 28.4 58.1 28.35 58.15 28.3 58.1 28.25
M 57.45 25.3
Q 57.3 25.25 57.05 25.3 56.8 25.35 56.6 25.45 56.05 25.7 54.75 26.2 53.5 26.65 53.35 26.65 53.25 26.65 52.85 26.65 52.6 26.7 52.65 26.8 52.65 26.9 52.9 27.1 53.2 27.3 53.7 27.2 54.2 27.1 54.65 26.75
L 54.6 26.75
Q 54.8 26.6 55.05 26.6 55.3 26.6 56.2 26.2 57.15 25.8 57.45 25.7 57.75 25.55 57.8 25.5
L 57.8 25.45
Q 57.8 25.4 57.45 25.3
M 54.65 24.35
Q 55.1 24.25 55.5 24.2 56.25 24.1 56.3 23.85 56.35 23.75 56.3 23.7 56.25 23.65 56.15 23.6 55.95 23.55 55.6 23.6 55 23.65 54.3 23.95 53.6 24.15 51.8 24.95 51.1 25.25 50.4 25.5 50.05 25.6 49.85 25.7
L 49.9 25.7
Q 49.6 25.9 49.7 26 49.85 26.25 50.35 26.15 50.8 26.1 51.4 25.8 52.1 25.4 52.35 25.4 52.5 25.4 52.6 25.3 52.75 25.25 52.75 25.15 52.75 25.1 52.8 25.05 52.85 25 52.95 25 53.2 25 53.9 24.65
L 53.95 24.65
Q 54.2 24.5 54.65 24.35
M 55.55 18.4
Q 55.4 18.4 55 18.05 54.55 17.65 54.15 17.45 53.9 17.3 53.8 17.3 53.7 17.3 53.65 17.35
L 53.65 17.45
Q 53.6 17.7 54.1 18.15 54.6 18.55 55.1 18.8 55.65 19 55.65 19.15 55.65 19.2 55.75 19.3 55.85 19.35 55.95 19.35 56.2 19.35 56.7 19.75 57.05 20.05 57.6 20.15 57.9 20.2 57.95 20.15 58.05 20.1 58 20 57.95 19.95 57.85 19.85 57.55 19.6 56.65 19.05 55.65 18.4 55.55 18.4
M 58.2 17.7
Q 57.85 17.45 56.85 16.55 56.4 16.1 55.95 15.65 55.55 15.2 55.45 15 55.2 14.5 54.85 14.4 54.6 14.35 54.55 14.5 54.5 14.55 54.6 14.85 54.95 15.9 56.65 17.35 58.35 18.8 59.55 19
L 60.2 19.1
Q 60.4 19.15 60.4 19.1 60.45 19.05 60.4 19 60.35 18.95 60.3 18.9 60.1 18.75 59.45 18.4 58.55 17.95 58.2 17.7
M 50.4 22.25
Q 49.4 22.45 49.35 22.7 49.3 22.8 49.4 22.85 49.45 22.9 49.6 22.95 49.8 23 50.25 22.95 50.6 22.95 50.85 22.95 51.1 23 51.15 23.05 51.25 23.15 51.35 23.05 51.45 23 51.5 22.85 51.55 22.6 51.65 22.6 51.75 22.6 52 22.8 52.15 22.95 52.25 22.95 52.35 22.9 52.35 22.65 52.35 22.45 53.65 22 54.95 21.5 55.5 21.6 55.75 21.65 55.85 21.6 56 21.55 56 21.4 56 21.15 55.45 20.95 55.1 20.8 54.95 20.85 54.75 20.85 54.7 21.05 54.65 21.1 54.55 21.15 54.4 21.25 54.2 21.25 53.75 21.25 52.65 21.6 51.5 22 50.4 22.25
M 45.7 23.15
Q 45.7 23.4 46.15 24.35 46.6 25.25 46.85 25.45 47.05 25.7 47.4 25.85 47.6 25.9 47.7 25.9 47.85 25.9 47.85 25.8
L 47.85 25.75
Q 47.85 25.65 47.5 25.15 47.05 24.5 46.7 23.75 46.35 23.1 46.1 22.9 45.9 22.8 45.8 22.9 45.7 22.95 45.7 23.15
M 44.15 23.8
Q 44.05 23.55 43.95 23.55 43.85 23.45 43.7 23.6 43.45 23.85 43.85 25 43.95 25.4 44.15 25.75 44.3 26.15 44.4 26.15 44.5 26.2 44.5 26.4 44.5 26.65 45.15 27.4 45.65 28 46.05 28.15 46.55 28.35 46.75 28 46.8 27.85 46.65 27.75 46.5 27.65 46.3 27.6 46.1 27.55 45.95 27.45 45.85 27.35 45.85 27.25 45.85 26.85 45.6 26.9 45.55 26.85 44.95 25.65 44.35 24.45 44.15 23.8
M 42.9 22.2
Q 42.75 22.3 42.85 22.4 42.95 22.6 43.55 22.45 43.9 22.4 44.75 22.25 45.45 22.1 45.45 21.9 45.45 21.8 46 21.6 46.55 21.4 48.05 20.95 49.6 20.5 49.75 20.3 49.95 20.15 50.35 20.15 50.55 20.15 50.75 20.1 50.95 20 51 19.9 51.05 19.85 51.2 19.8 51.35 19.75 51.5 19.75
L 51.55 19.75
Q 52 19.7 52.4 19.4 52.6 19.25 52.65 19.2 52.7 19.1 52.6 19.05
L 52.5 19.05
Q 52.25 19.05 51.4 19.3
L 49 20
Q 46.1 20.85 44.45 21.5 43.6 21.8 43.2 22 43 22.1 42.9 22.2
M 41.75 15.35
Q 41.8 15.2 41.75 15.1 41.7 15 41.55 15 41.4 15 40.95 15.9 40.45 16.75 39.95 17.95 39.7 18.55 39.55 20.2 39.4 21.85 39.55 22.45 39.65 22.9 39.75 23 39.85 23.05 39.9 23 39.95 22.95 40 22.85 40.2 22.4 40.2 21.05 40.2 19.6 40.4 18.7 40.65 17.8 41.3 16.5 41.7 15.7 41.75 15.35
M 45 14
Q 44.7 14 44.55 14.05 44.45 14.1 44.4 14.15 44.35 14.2 44.4 14.3 44.55 14.55 45.45 14.5 46.3 14.45 47.6 14.2 52.3 13.25 53 13.4 53.2 13.45 53.35 13.4 53.55 13.4 53.6 13.3
L 53.65 13.3
Q 53.7 13.15 53.6 13.05 53.5 13 53.3 12.95 52.85 12.85 51.9 12.95 50 13.1 47.2 13.65 45.7 14 45 14
M 48.75 17.6
Q 49.3 17.35 49.7 17.3 50.15 17.3 50.5 17.15
L 50.5 17.1
Q 50.6 17.05 50.65 17 50.7 16.95 50.7 16.9 50.7 16.85 50.65 16.8 50.5 16.75 50.05 16.85 49.1 16.95 48 17.4 45.8 18.2 44.55 18.9 43.3 19.55 43.3 19.95 43.3 20.05 43.35 20.1 43.45 20.15 43.55 20.1 43.7 20.1 44.35 19.7 45.9 18.85 47.35 18.25 48.3 17.8 48.75 17.6
M 45.75 17.1
Q 45.8 17.05 45.95 17 46.1 16.95 46.3 16.95 46.85 16.95 47.2 16.75 47.45 16.6 48.75 16.3 49.85 16.1 50.15 15.85 50.25 15.8 50.25 15.75 50.3 15.65 50.15 15.6 50 15.6 49.55 15.65 48.55 15.75 46.9 16.1 45.2 16.5 45.05 16.65 44.9 16.8 44.35 16.8 44 16.8 43.25 17.1 42.5 17.4 42.5 17.6 42.5 17.75 43.15 17.75 43.4 17.75 43.6 17.65 43.85 17.6 43.8 17.45 43.85 17.45 44.05 17.4 44.3 17.35 44.65 17.35 45.05 17.35 45.35 17.25 45.7 17.2 45.75 17.1
M 77.75 21.3
Q 77.65 21.15 77.5 21.15 77.4 21.1 77.2 21.2 76.9 21.35 76.9 21.75 76.9 22 76.55 23.2 76.4376953125 23.584765625 76.3 23.9
L 76.4 26.6
Q 76.45 27.15 76.5 27.8 76.6 28.45 76.7 28.85 76.95 29.65 77.3 29.8 77.4 29.85 77.45 29.85 77.55 29.85 77.55 29.7 77.6 29.55 77.5 29.2 77.35 28.65 77.2 28.25 76.9 27.7 77.1 25.05 77.35 22.35 77.7 21.75 77.85 21.5 77.75 21.3
M 79.9 20.5
Q 79.75 20.6 79.75 21 79.75 21.55 79.55 21.85 79.4 22.15 79.3 23.1 79.25 23.95 79.15 24.2 79 24.45 78.95 25.95 78.9 27.4 79 28.55 79.1 29.6 79.2 29.75 79.25 29.9 79.35 29.85 79.45 29.85 79.55 29.7 79.75 29.5 79.8 28.7 79.85 27.9 79.85 26.1 79.85 24.05 79.9 23.45 79.95 22.9 80.15 22.85 80.3 22.75 80.35 22.7 80.4 22.6 80.25 22.5 80.1 22.35 80.25 21.55 80.4 20.65 80.3 20.55
L 80.25 20.55
Q 80.05 20.35 79.9 20.5
M 74.2 23.5
Q 74.05 23.7 74.05 23.9 74.05 24.2 73.85 24.45 73.6 24.7 73.6 27.25 73.6 29.8 73.85 30.45 74.05 31 74.3 31 74.45 31.05 74.55 30.85 74.6 30.75 74.6 30.45 74.6 30.3541015625 74.6 30.25
L 74.4 29.45 74.35 29.45
Q 74.2 29.2 74.2 27.55 74.2 26.65 74.25 26.3 74.25 26.15 74.3 26.1
L 74.35 25.8
Q 74.2576171875 25.61953125 74.3 25.45 74.3 25.25 74.6 24.8
L 74.6 24.75
Q 75 23.95 75 23.5 75 23.2 74.9 23.15 74.8 23.1 74.5 23.25 74.35 23.35 74.2 23.5
M 72.25 24.7
Q 72.662109375 23.8873046875 72.25 23.75 71.6458984375 23.9541015625 71.4 27.7 71.1619140625 31.4376953125 71.85 31 72.225390625 30.737109375 72.35 30.3 72.240625 28.8341796875 72.2 28.55 72.1541015625 26.9404296875 72.25 24.7
M 69.85 21.85
Q 69.6 22 69.7 22.1 69.7 22.2 70.05 22.35 70.55 22.55 70.7 22.55 70.9 22.55 71.05 22.35 71.1 22.3 71.75 22.25 72.4 22.15 73.35 22.15 75.6 22.15 75.6 21.9 75.6 21.6 72.95 21.6 70.3 21.6 69.85 21.85
M 69 24.7
L 68.95 24.7 68.35 24.8
Q 67.7 24.95 67.6 25.1 67.45 25.2 66.6 25.7 65.7 26.2 65.6 26.3 65.45 26.45 64.3 27.1 63.2 27.65 63.05 27.8 62.9 27.9 63.05 28.2 63.15 28.35 63.3 28.3 63.45 28.3 63.65 28.1 63.95 27.8 64.15 27.8 64.5 27.8 64.45 27.55 64.5 27.45 65.15 27.2 65.9 26.9 65.9 26.7 65.9 26.65 65.95 26.65 66.05 26.6 66.2 26.6 66.35 26.6 66.6 26.5 66.85 26.35 67.05 26.2 67.45 25.8 67.6 25.8 67.75 25.8 68.4 25.3
L 69 24.8 69.05 24.75 69 24.7
M 70.5 19.45
Q 68.6 19.75 68.6 19.95 68.6 20.1 69.05 20.1 69.4 20.15 70.15 20.05 71.5 19.9 73.7 19.9 75.25 19.9 75.45 19.85 75.55 19.85 75.55 19.8 75.55 19.75 75.45 19.7 75.35 19.6 75.05 19.5 74.25 19.25 73.35 19.25 72.35 19.2 70.5 19.45
M 65.65 23.65
Q 65.4 23.65 64.95 24.1 64.75 24.25 64.55 24.35 64.35 24.45 64.25 24.45 64.15 24.45 64.05 24.55 63.95 24.6 63.95 24.7 63.95 24.8 63.9 24.8 63.8 24.85 63.75 24.85 63.5 24.85 62.9 25.35 62.3 25.85 61.95 25.95
L 61.95 26
Q 61.75 26.05 61.65 26.2 61.5 26.35 61.5 26.55 61.5 27 61.75 27 62 27 62.15 26.6 62.15 26.45 62.4 26.3 62.65 26.1 62.9 26 63.7 25.65 63.65 25.5 63.7 25.45 63.75 25.45 63.85 25.4 64 25.4 64.5 25.4 64.45 25.2 64.5 25.05 65.85 24.15 67.3 23.25 67.3 23.1
L 67.3 23.05
Q 67.3 22.9 67.2 22.85 67.1 22.8 66.9 22.85 66.55 22.95 66.25 23.25 65.85 23.65 65.65 23.65
M 65.35 21.25
Q 65.1 21.2 64.65 21.6 64.35 21.9 63.55 22.45 62.85 22.95 62.75 23.1 62.6 23.2 62.15 23.45 61.7 23.7 61.45 23.9
L 60.7 24.5
Q 60.1 24.9 60.1 25.1 60.1 25.2 60.15 25.2 60.2 25.25 60.3 25.25 60.45 25.2 60.7 25.1 61.25 24.85 61.25 24.65
L 61.3 24.65
Q 61.35 24.6 61.5 24.6 61.85 24.6 61.85 24.35 61.85 24.25 62.35 24.05 63 23.7 63.4 23.35 63.8 23 63.9 23 64.05 23 65.2 22.05 66.25 21.15 66.65 21
L 66.65 20.95
Q 66.8 20.85 66.85 20.75 66.95 20.65 66.85 20.55 66.7 20.4 66.15 20.65 65.55 20.9 65.55 21.15 65.55 21.25 65.35 21.25
M 64.7 19.1
Q 64.8 18.85 64.75 18.75 64.7 18.65 64.45 18.75 64.05 18.95 63.55 19.45 63.05 19.95 61.75 20.9 60.4 21.85 60.1 22.1
L 59.1 22.85
Q 58.5 23.25 58.3 23.5 58.05 23.8 58.2 24 58.3 24.2 58.55 24.15 58.8 24.15 58.8 23.9 58.8 23.85 59.15 23.6 59.55 23.25 60.05 22.95 61.7 21.8 63.05 20.7 64.4 19.55 64.7 19.1
M 65.05 17.5
Q 65 17.6 65.05 17.65 65.1 17.65 65.2 17.7 65.35 17.7 65.7 17.7 66.4 17.7 67.85 17.6 70.7 17.4 74.2 17.45 76.1 17.45 76.8 17.4 77.1 17.4 77.25 17.35 77.35 17.3 77.35 17.25 77.35 17.2 77.25 17.15 76.9 16.9 72.8 16.9 69.55 16.9 67.4 17.1 65.2 17.2 65.05 17.5
M 61.3 17.65
Q 61.5 17.75 61.55 17.65 61.65 17.6 61.65 17.4 61.65 17.15 61 16.6 60.35 16 59.4 15.35 58.55 14.75 58.4 14.65 58.25 14.5 57.55 13.9 56.9 13.35 56.8 12.75 56.7 12.15 56.3 12 56.05 11.9 55.95 12.05 55.85 12.15 55.85 12.45 55.85 12.8 56.35 13.55 56.85 14.35 57.25 14.55 57.45 14.7 57.75 14.95 57.95 15.2 58.55 15.5 58.8 15.6 58.95 15.75 59.05 15.85 59.1 15.9 59.1 16 59.2 16.05
L 59.2 16.1
Q 59.3 16.15 59.4 16.15 59.5 16.15 59.8 16.35 60.1 16.6 60.4 16.95 61.05 17.55 61.3 17.65
M 60.9 13.85
Q 61.8 14.7 62.1 14.8 62.2 14.8 62.25 14.75 62.3 14.7 62.25 14.6 62.15 14.45 61.85 14.05 61.45 13.55 61.3 13.2 61.2 12.9 60.6 12.5 60.15 12.15 59 11.25 57.9 10.35 57.7 10.35 57.55 10.35 57.5 10.5 57.45 10.6 57.5 10.75 57.55 11.1 57.85 11.25 58.15 11.35 58.75 11.9 59.4 12.45 60.9 13.85
M 63.7 14.8
Q 64.2 14.8 64.9 14.8 66.4 14.7 72.7 14.65 77.05 14.65 78.4 14.65 78.5 14.65 78.55 14.6 78.6 14.55 78.65 14.5 78.65 14.45 78.65 14.4 78.6 14.35 78.5 14.35 78.25 14.25 78 14.25 76.65 14 73.4 14 69.1 14 66 14.15 64.4 14.25 63.7 14.3 63.3 14.35 63.15 14.4 62.95 14.4 62.95 14.45 62.8 14.6 63 14.7 63.1 14.8 63.7 14.8
M 82.2 70.3
Q 81.25 70.4 81.2 70.45 81.15 70.5 81.15 70.55
L 81.2 70.6 81.3 70.6
Q 81.4 70.65 81.7 70.7 82.45 70.8 84.85 70.75 87.2 70.65 87.8 70.5 88.35 70.3 89.95 70.2 90.55 70.15 91.15 70.05 91.65 70 91.75 69.95 91.85 69.85 91.85 69.8 91.9 69.7 91.75 69.65 91.6 69.6 91.15 69.55 90.2 69.5 89.2 69.7 87.65 70 86.9 70.1 86.2 70.15 84.95 70.2 83.5 70.2 82.2 70.3
M 90.15 66.75
Q 88.8 66.9 87.45 67 86.15 67.05 83.5 67.1 81.75 67.1 81.15 67.15 80.8 67.15 80.8 67.25 80.75 67.35 81.15 67.35 82.45 67.5 87.2 67.5 90.65 67.5 91.95 67.4 93.25 67.25 93.25 66.85 93.25 66.65 92.3 66.6 91.4 66.6 90.15 66.75
M 87.6 61.9
Q 87.55 61.95 87.5 62.1 87.45 62.35 87.45 62.9 87.4 64 87.55 65.3 87.65 66 87.75 66.25 87.8 66.4 87.85 66.4 87.95 66.45 88 66.3 88.15 65.85 88.1 64.15 88.05 61.9 87.75 61.85 87.65 61.8 87.6 61.9
M 89.75 62.7
L 89.7 62.75
Q 89.65 62.85 89.65 63 89.6 63.3 89.6 64 89.6 65.5 89.75 65.65 89.9 65.8 90 65.8 90.1 65.8 90.15 65.6 90.2 65.35 90.15 64.35 90.05 62.85 89.85 62.7 89.8 62.65 89.75 62.7
M 86.35 59.3
Q 86.25 59.2 86.2 59.2 86.15 59.2 86.1 59.3 86.05 59.4 86.05 59.7 86 60.25 86 62.15 86.05 65.35 86.15 65.65 86.15 65.8 86.25 65.95
L 86.3 65.95
Q 86.4 66.05 86.5 66.05 86.7 66.05 86.75 65.2 86.75 64.4 86.7 62.8 86.6 59.5 86.35 59.3
M 82.4 57.9
Q 82.25 57.85 82.2 58.1 82.15 58.3 82.15 58.55 82.15 58.8 82.1 58.95
L 82.05 59.1
Q 81.95 59.1 81.85 59.2 81.75 59.3 81.7 59.45 81.6 59.65 81.65 59.75 81.75 59.8 81.95 59.75 82.05 59.7 82.1 59.7
L 82.15 59.7 82.15 59.75
Q 82.15 59.8 82.05 59.85 81.9 59.9 81.65 59.9 81.25 59.9 81.05 60.2 80.85 60.45 80.45 61.6 79.85 63.15 79.55 64 79.35 64.75 79.05 66 78.75 67.35 78.6 68.55 78.5 69.85 78.65 70.05 78.75 70.25 78.9 70.2 79 70.15 79.15 69.85 79.35 69.4 79.45 68.35 79.65 67.05 80.05 65.2 80.45 63.4 80.75 62.6
L 81.35 61
Q 81.45 60.7 81.6 60.5 81.7 60.4 81.75 60.35 81.75 60.45 81.85 61.15 81.9 61.95 81.95 63.05 82.05 65.25 82.1 65.5 82.15 65.85 82.35 65.85 82.55 65.85 82.6 61.85 82.65 59.9 82.6 58.95 82.55 57.85 82.4 57.9
M 84.6 57.4
Q 85 57.8 85.2 57.8 85.35 57.8 86.5 58.6 87.65 59.4 87.8 59.35 87.85 59.4 89.1 60.55 90.1 61.5 90.25 61.6 90.35 61.65 90.45 61.65 90.5 61.6 90.6 61.5
L 90.55 61.5
Q 90.75 61.3 89.85 60.45 89.05 59.65 87.85 58.75 86.85 58 84.65 56.85 82.4 55.65 82.25 55.8 82.2 55.85 82.25 55.95 82.3 56 82.4 56.1 82.55 56.25 82.95 56.5 83.8 57.05 84.05 57.05 84.15 57.05 84.3 57.15 84.45 57.25 84.6 57.4
M 84.75 58.25
Q 84.75 58 84.7 57.95
L 84.65 57.85
Q 84.6 57.8 84.55 57.85 84.45 57.95 84.3 58.55 84.2 59.15 84.2 62.45 84.15 65.8 84.3 66.1 84.35 66.25 84.5 66.35 84.65 66.45 84.8 66.45 85 66.45 85 66.35 85.05 66.2 84.95 66 84.9 65.85 84.85 64.65 84.8 63.4 84.85 61.8 84.85 59.05 84.75 58.25
M 83.9 50.9
Q 84.1 50.4 84.15 50.25 84.15 50.15 84.1 50.1 84.05 50.05 83.95 50.05 83.7 50 82.95 51.15 82.15 52.3 82.15 52.6 82.15 52.85 81.75 53.65 81.35 54.45 81.35 54.7 81.35 54.85 80.75 56.3 80.15 57.8 80.15 58.05 80.15 58.4 80.35 58.4 80.5 58.4 80.8 57.85 81.05 57.3 81.05 57 81.05 56.8 81.2 56.8 81.4 56.8 81.65 56.1 81.9 55.45 82.1 55.1 82.3 54.7 82.3 54.45 82.3 54.25 82.75 53.2 83.25 52.15 83.9 50.9
M 91.6 61.55
L 91.6 61.5 91.5 61.5 91.5 61.55 91.35 62.3
Q 91.15 63.2 91.2 64.3 91.2 65.45 91.4 65.85 91.65 66.4 91.8 66.4 91.9 66.4 91.95 65.9 91.95 65.5 91.95 64.65 91.85 63 91.75 62.2
L 91.6 61.55
M 91.45 59.35
Q 91.6 59.4 91.65 59.3 91.75 59.25 91.65 59.1 91.55 58.9 91.3 58.8 91.05 58.7 90.45 58.3 89.85 57.9 89.4 57.55 88.9 57.15 88.1 56.65 87.25 56.15 87.1 56.15 86.95 56.15 86.95 56 87 55.9 86.85 55.8 86.75 55.75 86.6 55.7
L 86.6 55.65
Q 86.3 55.6 85.45 55.1 84.55 54.55 84 54.15 83.55 53.9 83.3 53.8 83.1 53.75 83.05 53.8 82.95 53.85 82.95 53.95 82.9 54.15 83.55 54.65 84.15 55.1 84.35 55.1 84.5 55.1 84.7 55.2 84.9 55.3 85.05 55.45 85.55 55.85 85.65 55.85 85.75 55.85 87.45 57 89.25 58.2 89.45 58.2 89.6 58.2 89.65 58.3 89.7 58.45 90.5 58.95 91.35 59.35 91.45 59.35
M 91.5 57
L 91.55 57
Q 91.7 56.85 91.45 56.5 91.2 56.15 90.55 55.65 89.3 54.65 87.55 53.65 84.95 52.25 84.65 52 84.5 51.9 84.4 51.9 84.25 51.85 84.15 51.95 84.05 52.05 84.2 52.25 84.35 52.4 84.6 52.65 85.2 53.15 85.5 53.15 85.65 53.15 85.65 53.2 85.65 53.4 86.45 53.75 87.2 54.05 87.5 54.3 87.75 54.6 88.7 55.05 89.1 55.25 89.6 55.6 90.1 56 90.45 56.35 90.8 56.7 91.1 56.9 91.45 57.1 91.5 57
M 92.25 55.25
Q 92.45 55.25 92.45 55.2 92.5 55.1 92.4 54.95 92.25 54.75 91.8 54.45 91.1 54 88.1 52.35 86.95 51.75 86.55 51.45 86.05 51.15 85.3 50.9 84.5 50.65 84.35 50.75 84.25 50.85 84.35 51 84.45 51.1 84.65 51.25 85.05 51.55 85.4 51.55 85.7 51.55 86.85 52.3 88.05 53.1 88.95 53.5 89.9 54 90 54.1 90.2 54.25 91.1 54.75 92.1 55.25 92.25 55.25
M 93.15 45.25
Q 93.15 45.05 93.1 45 93.05 44.9 92.95 44.9 92.9 44.9 92.85 45 92.75 45.1 92.65 45.8 92.55 46.45 92.5 47.35 92.45 48.45 92.5 48.95 92.55 49.55 92.7 49.55 93 49.55 93.1 48.95 93.2 48.4 93.2 46.8 93.2 45.65 93.15 45.25
M 92.05 45.7
Q 92 45.55 91.95 45.5 91.95 45.45 91.9 45.45 91.85 45.45 91.8 45.5 91.55 45.7 91.45 47.1 91.3 48.8 91.2 49.1 91.1 49.35 91.15 49.45 91.2 49.55 91.4 49.55 91.7 49.55 91.85 48.85 92 48.15 92.05 46.65 92.05 46 92.05 45.7
M 85.7 48.3
Q 85.05 48.1 84.8 48.1 84.6 48.1 84.55 48.2 84.45 48.25 84.55 48.4 84.6 48.55 84.75 48.65 84.9 48.75 85.05 48.75 85.4 48.75 85.5 48.9 85.55 49.05 86.65 49.35 87.6 49.6 87.75 49.75 87.85 49.95 88.3 49.95 88.45 49.95 88.55 50 88.65 50.05 88.65 50.1 88.65 50.2 88.75 50.3 88.85 50.35 89 50.35 89.35 50.35 90.15 50.75 91 51.15 91.25 51.15 91.45 51.15 91.45 51.3 91.45 51.4 91.6 51.5 91.7 51.6 91.9 51.6 92.2 51.7 92.55 51.75 92.7 51.75 92.75 51.7 92.8 51.7 92.8 51.6
L 92.75 51.55
Q 92.65 51.4 92.2 51.15 91.35 50.6 89.95 50 86.95 48.7 85.7 48.3
M 81.5 46.4
Q 81.5 46.35 81.65 46.1 81.75 45.85 81.95 45.6 82.5 45 82.4 44.85 82.2 44.7 81.8 44.95 81.35 45.15 81.25 45.45 81.15 45.75 80.65 46.35 80.3 46.75 79.4 48.5 78.5 50.25 78.15 51.2 77.9 51.75 77.5 53.3 77.15 54.8 76.9 55.5 76.7 56.25 76.7 56.9 76.7 57.6 77.05 57.6 77.25 57.6 77.35 57.35 77.45 57.1 77.45 56.55 77.45 56.15 77.5 55.85
L 77.55 55.6
Q 77.7 55.6 77.75 55.4 77.85 55.25 77.85 55.05 77.85 54.85 77.9 54.7 77.95 54.55 78 54.5 78.1 54.4 78.15 54.25 78.25 54.05 78.25 53.85 78.25 53.4 78.65 52.25 79 51.25 79.2 50.8 79.35 50.35 79.85 49.25 80.25 48.25 80.25 48.1 80.25 47.95 80.35 47.95 80.45 47.95 80.6 47.75 80.75 47.55 80.85 47.3 81.1 46.75 81.25 46.75 81.35 46.75 81.4 46.65 81.5 46.55 81.5 46.4
M 83.3 46.25
Q 83.25 46.2 83.15 46.25 83 46.35 82.7 46.65 82.2 47.2 81.15 49.45 80 51.75 79.85 52.65 79.7 53.25 79.55 53.4 79.35 53.45 79.35 54 79.35 54.4 78.7 55.95 78.45 56.6 78.3 57.15 78.15 57.75 78.2 57.9 78.3 58.1 78.4 58.15 78.55 58.25 78.7 58.1 78.95 57.9 79.05 57.25 79.2 56.45 80 54.25 81.1 51.15 81.5 50.3 81.85 49.45 82.9 47.65 83.45 46.65 83.4 46.35 83.4 46.25 83.3 46.25
M 83.55 42.45
Q 84.7 42.2 84.7 42 84.7 41.85 84.4 41.8 84.15 41.8 83.75 41.85 82.7 42 81.65 42.1 80.5 42.2 80.15 42.3
L 80.2 42.3
Q 79.8 42.45 78.9 42.5 76.85 42.7 73.95 43.4 71 44.15 71.05 44.5 71 44.6 71.2 44.7 71.35 44.75 71.6 44.7 72.15 44.7 72.25 44.5 72.35 44.35 72.95 44.25 73.7 44.15 74.75 43.85 75.8 43.6 77.7 43.3 79.4 43.1 80.25 42.9 80.95 42.7 81.65 42.7 82.4 42.7 83.55 42.45
M 81.5 40.1
Q 82.05 40 82.1 39.9 82.2 39.8 82.2 39.75 82.25 39.7 82.25 39.65 82.2 39.6 82.15 39.6 82.1 39.55 81.7 39.65 81.25 39.7 79.8 39.8 78.45 39.85 78.25 40 78.05 40.1 76.75 40.25 75.4 40.4 74.3 40.6 73 40.8 71.8 40.9 69.8 41.05 69.8 41.6 69.8 41.7 70 41.75 70.15 41.8 70.45 41.75 71 41.75 71.3 41.65 71.65 41.5 72.8 41.4 73.85 41.35 75.15 41.1 77.65 40.6 80.45 40.3 81.05 40.25 81.5 40.1
M 85.9 39.55
Q 85.8 39.65 85.7 39.95 85.45 40.6 84.95 41.95 83.95 44.75 83.95 45.2 83.95 45.4 84.05 45.5 84.15 45.55 84.35 45.45 84.6 45.25 84.65 44.8 84.7 44.6 84.75 44.45 84.8 44.35 84.85 44.3 85 44.35 85.05 44.15 85.1 43.95 85.1 43.75 85.1 43.55 85.15 43.4 85.2 43.25 85.25 43.25
L 85.25 43.2
Q 85.35 43.15 85.45 42.9 85.55 42.65 85.6 42.4 85.7 41.7 85.9 40.85 86.15 39.9 86.1 39.5 86.05 39.5 86.05 39.45 86 39.4 85.95 39.45
L 85.9 39.55
M 87.9 40.2
Q 87.9 40.05 87.9 39.9 87.85 39.75 87.75 39.75 87.5 39.75 87.25 40.05 87 40.35 87 40.7 87 41 86.7 42 86.4 42.9 86.15 44.7 85.9 46.5 85.95 47.1 86.05 47.55 86.15 47.7 86.2 47.8 86.3 47.75 86.35 47.7 86.45 47.6 86.65 47.2 86.7 45.95 86.75 44.4 86.9 43.65
L 87.9 40.2
M 90.3 36.15
Q 90.35 36 90.3 35.9 90.3 35.75 90.15 35.75 89.9 35.7 89.55 37.05 89.25 38.35 89 40
L 88.65 42.75
Q 88.45 44.05 88.3 44.9 88.2 45.55 88.3 45.65 88.35 45.7 88.45 45.7 88.5 45.7 88.55 45.6 88.65 45.5 88.75 45.25 88.95 44.95 89.1 44.05 89.25 43.15 89.6 40.45 89.85 38.45 89.95 37.65 90.1 36.85 90.3 36.15
M 83 37
Q 82.8 36.95 82.35 37 81.45 37.1 76.9 37.65 76.5 37.7 76.15 37.8 75.8 37.9 75.8 38 75.65 38.15 75.15 38.15 74.55 38.15 73.35 38.45 72.25 38.75 71.55 38.85 70.95 38.95 70.35 39.15 69.8 39.35 69.2 39.35 68.45 39.35 68.45 39.75 68.45 39.95 68.65 40 68.85 40.05 69.35 40 70.15 39.85 70.6 39.7 70.95 39.55 72.3 39.3 73.7 39.05 73.95 39 74.3 38.9 74.55 38.85 75 38.65 77.15 38.3 79.3 37.9 80.4 37.75 82 37.6 82.6 37.5 83.3 37.35 83.3 37.2 83.3 37.05 83 37
M 81.35 32.3
Q 81.6 32.3 82.05 32.85
L 82.75 33.7
Q 84 35.4 85.1 36.6 85.85 37.4 86.1 37.45 86.2 37.45 86.25 37.35 86.25 37.3 86.2 37.2 86.1 37 85.8 36.6
L 83.15 33.1
Q 82.75 32.6 82.7 32.4 82.65 32.35 82.7 32.3
L 82.75 32.25
Q 82.95 32.2 83.05 32.15 83.15 32.05 83.1 31.9 83 31.7 82.5 31.7 82 31.7 81.05 30.7 80.65 30.25 80.3 29.95 79.9 29.65 79.85 29.75 79.75 29.85 79.95 30.2 80.15 30.5 80.45 30.85
L 81.2 31.65 80.45 31.85
Q 79.75 32.05 79.1 32.1 78.45 32.1 75.2 32.85 71.9 33.6 71.1 33.95 70.65 34.1 69.95 34.1 69.65 34.1 69.45 34.2 69.2 34.25 69.2 34.4 69.2 34.65 70.35 34.65 71.5 34.65 71.95 34.45 72.45 34.25 74.35 33.8 76.2 33.3 77.55 33
L 79.25 32.65
Q 81 32.25 81.35 32.3
M 82.15 28.8
Q 82.6 29.3 83.2 29.9 84.55 31.25 84.6 31.45 84.6 31.6 85.05 32.1 85.5 32.55 86.25 33.7 87.1 34.95 87.3 35 87.4 35.1 87.4 35.4 87.4 35.6 87.5 35.7 87.55 35.85 87.7 35.85 87.75 35.85 87.8 35.95 87.85 36.05 87.85 36.2 87.85 36.35 87.9 36.5 88 36.65 88.15 36.75 88.3 36.8 88.3 37.2 88.25 37.6 88.05 37.75 87.9 37.8 87.7 38.65 87.65 39.1 87.65 39.3 87.7 39.5 87.95 39.5 88.3 39.5 88.4 38.8 88.5 38.2 88.65 37.6 88.8 37.05 88.35 36.05 87.9 35.1 86.65 33.25 85.75 31.85 83.8 29.8 82.8 28.75 82.35 28.35 82.1 28.1 81.95 28.05 81.85 28 81.85 28.05 81.75 28.05 81.75 28.15 81.75 28.3 82.15 28.8
M 84.55 27.25
Q 84.35 27.25 84.3 27.35 84.15 27.4 84.25 27.6 84.4 27.8 85.25 28.65 86.4 29.75 87.15 30.7
L 88.3 32.1
Q 88.6 32.45 88.65 32.6 88.6 32.8 89.25 33.45 89.5 33.7 89.7 34 89.85 34.2 89.85 34.3 89.85 34.45 89.9 34.55 90 34.65 90.1 34.65 90.25 34.65 90.35 34.55 90.4 34.45 90.35 34.3 90.3 33.95 89.95 33.55 89.6 33.05 89.6 32.85 89.55 32.75 89.45 32.55 89.3 32.35 89.15 32.2 88.75 31.9 88.75 31.65 88.75 31.35 88.55 31.3 88.4 31.2 87.95 30.65 87.2 29.65 86 28.5 84.8 27.25 84.55 27.25
M 92 36.15
Q 91.95 36.2 91.85 36.4 91.75 36.8 91.5 37.6 91.05 39.25 90.85 39.9 90.65 40.6 90.65 41.05 90.65 41.5 90.5 41.7 90.3 41.9 90.2 42.95 90.05 44.1 89.55 46.4 89.45 46.75 89.5 46.9 89.5 47.15 89.7 47.15 89.9 47.15 90.1 46.45 90.3 45.85 90.55 44.4 91.15 41.15 91.4 40.45 91.6 39.85 91.9 38.1 92.2 36.35 92.15 36.15 92.1 36.05 92.05 36.1 92 36.1 92 36.15 Z"/>
</g>
</defs>

<g transform="matrix( 1, 0, 0, 1, 0,0) ">
<use xlink:href="#Layer1_0_FILL"/>
</g>
</svg>
