
<svg xmlns="http://www.w3.org/2000/svg" version="1.1" xmlns:xlink="http://www.w3.org/1999/xlink" preserveAspectRatio="none" x="0px" y="0px" width="100px" height="100px" viewBox="0 0 100 100">
<defs>
<g id="Layer1_0_FILL">
<path fill="#000000" stroke="none" d="
M 65.15 36.85
Q 65.0759765625 36.8404296875 64.15 37.6 62.06484375 39.2958984375 53.45 51.1 44.8841796875 62.7849609375 44.85 63.9 44.8884765625 64.5900390625 41.7 68.55 40.4681640625 70.0724609375 39.85 71.25
L 39.85 71.25
Q 39.5919921875 71.7671875 39.5 72 40.6158203125 71.7509765625 44.3 67.1 48.2013671875 62.147265625 56.3 50.45 63.1345703125 40.41640625 64.55 37.95 65.173828125 36.926171875 65.15 36.85
M 80.95 46.7
Q 80.7564453125 46.455078125 79.85 46.9 78.5091796875 47.8083984375 66.2 64.3 53.887109375 80.783203125 53.85 81.7 53.8486328125 82.0494140625 53.95 82.1 54.1984375 82.103125 54.7 81.65 55.9802734375 80.6376953125 58.5 77.35 72.14921875 59.35078125 76.85 52.9 81.1515625 46.95546875 81 46.75 80.996875 46.7517578125 80.95 46.7
M 77 46.75
Q 77.95 45.3 78.05 44.8 77.95 44.8 77.75 44.9 76.3 45.75 74 48.95 71.95 51.85 68.6 55.75
L 68.55 55.75
Q 66 58.4 59.35 67.85 52.8 77.15 52.75 78 52.8 77.95 52.85 77.9 53.4 77.65 54.1 76.8
L 54.1 76.85
Q 56.85 73.5 66.35 60.95 75.95 48.35 77 46.75
M 73.15 41.75
Q 72.925390625 41.5490234375 72.6 41.55 72.3041015625 41.5529296875 72.05 41.7
L 72.05 41.75
Q 71.85546875 41.9603515625 71.85 42.2 71.884375 42.9865234375 67 49.55 63.1998046875 54.6001953125 58.5 61.2 53.6162109375 68.0330078125 52.3 70.2 51.7669921875 71.2322265625 49.6 74.35 48.9134765625 75.287890625 48.35 76.25 47.872265625 77.1359375 47.85 77.4 47.85 78.0087890625 48.1 78.05 49.014453125 77.9880859375 61.15 60.85 73.3177734375 43.665625 73.35 42.3 73.346875 42.004296875 73.15 41.75
L 73.15 41.75
M 68.15 40.75
L 68.15 40.8
Q 66.45 42.2 57.6 54.05 48.75 65.95 46.4 69.9 43.85 74.4 43.5 75.55 43.6 75.5 43.65 75.4 44.3 74.9 45.6 73.4 50.9 67.4 60.6 52.95 64.9 46.55 67.3 43.45 69.2 41 69.25 40.2
L 69.25 40.15
Q 69.2 40.15 69.1 40.2 68.7 40.3 68.15 40.75
M 64.2 32.6
Q 64.5 32.15 64.6 31.85 63.5 32.15 59.8 36.8 55.9 41.75 47.8 53.45 40.95 63.5 39.5 65.9 38.95 66.95 38.95 67.05 39 67.05 39.95 66.3 42.05 64.6 50.65 52.8 59.2 41.1 59.25 40 59.2 39.3 62.4 35.35 63.65 33.85 64.2 32.65
L 64.2 32.6
M 60.55 28.35
Q 60.50390625 28.4087890625 60.4 28.45 59.8015625 28.9861328125 58.5 30.45 53.19765625 36.51796875 43.5 50.95 39.1986328125 57.3525390625 36.8 60.45 34.879296875 62.8986328125 34.85 63.7
L 34.8 63.7
Q 34.88515625 63.7298828125 35 63.7 35.3927734375 63.6099609375 35.9 63.1
L 35.95 63.1
Q 37.635546875 61.7046875 46.5 49.85 55.3326171875 37.9677734375 57.65 33.95 60.27265625 29.4923828125 60.55 28.35
M 56.25 26.5
Q 56.25 25.9 56 25.85 55.1 25.9 42.95 43.05 30.8 60.25 30.75 61.6 30.75 61.9 30.9 62.1
L 30.95 62.15
Q 31.15 62.35 31.5 62.35 31.8 62.35 32 62.15
L 32.05 62.15
Q 32.25 61.95 32.25 61.7 32.2 60.9 37.1 54.35 40.9 49.3 45.6 42.7 50.5 35.85 51.75 33.65 52.35 32.65 54.5 29.55 55.2 28.6 55.7 27.6 56.25 26.75 56.25 26.5
M 51.35 25.9
Q 51.3013671875 25.925390625 51.2 25.95 50.7087890625 26.265234375 50 27.05
L 50 27.05
Q 47.2484375 30.4021484375 37.75 42.95 28.1546875 55.53203125 27.1 57.1 26.152734375 58.5763671875 26 59.1 26.1357421875 59.079296875 26.3 58.95 27.7921875 58.13671875 30.1 54.95 32.1482421875 52.038671875 35.5 48.1
L 35.5 48.1
Q 38.1169921875 45.4779296875 44.75 36.05 51.3185546875 26.76484375 51.35 25.9
M 46.15 18.45
L 46.15 18.5
Q 44.769921875 19.7671875 33.8 33.9 22.5546875 48.33203125 20.3 51.8 19.316015625 53.35625 19.1 53.95 19.2087890625 53.9021484375 19.35 53.8 20.98203125 52.6107421875 24.7 48.15 30.750390625 40.8990234375 38.5 30.6 46.2630859375 20.3091796875 46.75 18.8
L 46.75 18.8
Q 47.1353515625 17.84921875 47.15 17.8 47.124609375 17.8140625 47.1 17.8 47.0130859375 17.80234375 46.15 18.45
M 49.25 21.2
Q 49.25 20.85 49.15 20.8 48.9 20.8 48.35 21.2 47.1 22.25 44.6 25.55 30.95 43.55 26.25 50 21.95 55.95 22.05 56.1
L 22.1 56.15
Q 22.35 56.45 23.25 56 24.6 55.1 36.9 38.6 49.2 22.1 49.25 21.2
M 83.8 52.05
Q 84.8 50.55 85 49.9 84.9 50 84.75 50.1 83.1 51.3 79.4 55.75 73.35 63 65.6 73.3 57.85 83.6 57.3 85.05
L 57.3 85.1 56.95 86.05 57 86.1
Q 57.1 86.1 57.9 85.4
L 57.95 85.4
Q 59.35 84.15 70.3 70 81.55 55.55 83.8 52.05 Z"/>
</g>
</defs>

<g transform="matrix( 1, 0, 0, 1, 0,0) ">
<use xlink:href="#Layer1_0_FILL"/>
</g>
</svg>
