
<svg xmlns="http://www.w3.org/2000/svg" version="1.1" xmlns:xlink="http://www.w3.org/1999/xlink" preserveAspectRatio="none" x="0px" y="0px" width="100px" height="100px" viewBox="0 0 100 100">
<defs>
<g id="Layer1_0_FILL">
<path fill="#000000" stroke="none" d="
M 71.75 78.15
Q 74.35 80.1 74.85 79.3 75.35 78.5 72.95 76.25 71.4 74.75 70.7 74.5 70 74.2 69.75 74.95 69.6 75.55 70.2 76.5 70.75 77.4 71.75 78.15
M 56.65 80.95
Q 57.45 82.5 59.05 83 60.65 83.45 60.65 82.15 60.65 81.35 58.5 79.65 56.3 78 55.85 78.45 55.7 78.7 55.9 79.4 56.15 80.15 56.65 80.95
M 49.45 68.05
Q 48.25 68.05 48.75 69.2 49.25 70.3 50.85 71.45 53.6 73.45 54.65 73.05 55.7 72.6 53.15 70.55 52 69.55 50.85 68.8 49.75 68.05 49.45 68.05
M 42.8 57.25
Q 43.3 58.45 45.25 60.55 46.3 61.65 47.2 62.35 48.1 63 48.25 62.75 48.75 62.25 46.55 59.15 44.3 56.05 43.45 56.05 42.35 56.05 42.8 57.25
M 51.85 60.45
Q 54.3 62.15 54.5 61.4 54.7 60.6 52.35 58.25 50.8 56.7 50.2 56.5 49.65 56.25 49.65 57.25 49.65 57.95 50.3 58.9 50.95 59.85 51.85 60.45
M 71.65 66.55
Q 72.15 67.55 73 68.35 73.8 69.05 74.35 69.05 75.15 69.05 75 68.35 74.85 67.7 73.65 65.95 71.7 63.3 70.95 63.55 70.15 63.8 71.65 66.55
M 61.65 70.55
Q 62.7 71.8 63.7 72 64.65 72.2 64.65 71.15 64.65 70.2 63.1 69 61.55 67.85 60.95 68.35 60.45 69 61.65 70.55
M 66.9 51.1
Q 68.1 53.95 69.45 55.35 71.6 57.75 71.35 55.95 71.1 54.2 68.75 50.35 65.65 45.6 65.65 46.75 65.65 48.3 66.9 51.1
M 77.85 56.15
Q 78.05 57.15 78.35 57.35 79.4 58.45 80 57.95 80.6 57.45 80.15 55.85 79.35 53.15 78.5 52.6 77.65 52.05 77.65 54.15 77.65 55.2 77.85 56.15
M 26.35 78.05
Q 21.55 76.35 21.05 77.25 20.45 78.15 21.15 78.65 21.8 79.2 25.25 80.45 32.2 83.05 31.45 80.95 31.1 79.75 26.35 78.05
M 35.75 83.75
Q 35.25 84.3 37.05 85.65 38.95 87 40.3 87 41.65 87 41.65 85.65 41.65 85.1 40.85 84.55 40.05 83.95 38.95 83.75 36.25 83.25 35.75 83.75
M 30.5 74.3
Q 31.15 75.05 32.25 75.95 34.2 77.45 36.45 77.95 38.65 78.45 38.65 77.35 38.6 76.6 34.55 74.7 30.5 72.85 30.05 73.35 29.8 73.5 30.5 74.3
M 35.7 57.5
Q 34.6 57.8 39.05 62.45 41.5 65.15 43.4 65.8 45.25 66.5 46.15 65.05 46.4 64.65 46.15 64.35 45.95 64.05 45.35 64.05 44.75 64.05 43.65 63.4 42.5 62.7 41.55 61.75 36.75 57.2 35.7 57.5
M 35.75 69.85
Q 33.6 68.3 31.7 67.35 29.8 66.45 29.35 66.75 27.75 67.75 34.25 72 40.7 76.25 44.15 76.45 45.45 76.6 46.9 77 48.4 77.4 49.15 77.85 49.95 78.3 50.75 78.45 51.55 78.6 51.85 78.45 52.5 78 48.15 74.55 43.8 71.05 42.65 71.05 41.6 71.05 41.7 71.9 41.75 72.75 42.95 73.95 44.15 75.35 42.6 74.45 41.1 73.6 35.75 69.85
M 26.05 74.15
Q 26.45 73.55 24.25 72.3 22.1 71.05 20.65 71.05 19.3 71.05 19.75 72.05 20.2 73.05 21.95 73.85 24.1 74.85 24.85 74.9 25.6 74.95 26.05 74.15
M 25.65 62.95
Q 27.65 63.25 27.65 62.65 27.65 62.15 24.15 60.1 20.7 58.05 19.85 58.05 18.5 58.05 19.35 59.5 20.15 60.95 21.95 61.85 23.6 62.7 25.65 62.95
M 22.65 68.45
Q 28.6 71.25 28.9 70.3 29.15 69.35 23.25 66.35 16.35 62.9 16.15 63.25 15.4 63.95 17.15 65.35 18.9 66.75 22.65 68.45
M 24.95 53.3
Q 26.2 55.2 29.85 58.65 31.95 60.6 33.6 61.7 35.2 62.8 35.35 62.35 35.65 61.55 32.05 57.85 28.5 54.2 26.05 52.75 23.75 51.4 24.95 53.3
M 26.6 58
Q 27.65 57.6 24.15 54.55 21.15 52 19.4 51.3 17.65 50.65 17.65 52.05 17.65 52.45 18.75 53.45 19.85 54.5 21.35 55.55 25.55 58.35 26.6 58
M 27.45 40.05
Q 25.05 38.05 24.65 38.05 21.5 38.05 28.45 43.65 33.3 47.75 35.55 50.35 38.1 53.2 39.65 52.75 40.4 52.55 41.3 52.65 42.2 52.75 42.75 53.15 44.55 54.25 44.35 53.3 44.15 52.35 42.05 49.65 39.8 46.9 38.6 46.75 37.35 46.65 38.85 49.35 39.3 50.25 37.55 48.95 35.75 47.65 32.75 44.85 29.95 42.1 27.45 40.05
M 30.05 36.95
Q 28.85 35.6 28.9 35.35 28.9 35.05 30.25 35.05 31.45 35.05 31.3 34.6 31.2 34.15 29.45 32.35 27.3 30.2 26.1 30.4 24.9 30.55 26.85 32.75 27.5 33.45 27.8 34.4 28.1 35.3 27.95 35.85 27.75 36.35 27.95 37.15 28.2 37.9 28.65 38.55 29.15 39.15 29.85 39.4 30.5 39.7 30.85 39.45 31.25 39.2 31 38.5 30.8 37.75 30.05 36.95
M 36.45 35.05
Q 35.2 35.05 35.85 36.85 36.5 38.65 38.75 41.35 43.75 47.4 42.25 43.35 41.5 41.35 39.3 38.2 37.05 35.05 36.45 35.05
M 30.45 29.55
Q 31.15 30.6 31.85 31.35 32.6 32.05 32.95 32.05 34 32.05 33.5 30.75 33 29.45 31.15 27.35 29.05 24.95 28.75 25.9 28.45 26.85 30.45 29.55
M 19.55 40.05
Q 18.3 40.05 19.85 42.25 21.4 44.45 23.95 46.25 25.25 47.25 26.25 48.35 27.3 49.45 27.45 50.05 27.6 50.7 28.3 51.65 29 52.65 29.85 53.35 32.55 55.6 33.4 55.05 34.25 54.5 31.95 51.95 21.05 40.05 19.55 40.05
M 11.95 47.35
Q 11.7 47.65 12.05 48.45 12.4 49.25 13.15 50.05 14.55 51.6 15.6 51.95 16.65 52.3 16.65 51.25 16.65 50.2 14.6 48.5 12.55 46.8 11.95 47.35
M 74.05 41.15
Q 73.3 40.4 72.95 41.6 72.6 42.75 73.05 44.55 73.35 45.6 73.85 46.35 74.3 47.05 74.75 47.05 75.5 47.05 75.2 44.5 74.9 42 74.05 41.15
M 65.95 33.75
Q 64.45 31 63.9 32.05 63.35 33.1 64.55 36.35 65 37.5 65.6 38.25 66.2 39.05 66.65 39.05 67.75 39.05 67.6 37.8 67.4 36.55 65.95 33.75
M 77.65 34.75
Q 77.65 34.15 77.4 34.15 77.15 34.15 76.55 34.75 76.05 35.25 75.9 36.05 75.7 36.85 75.95 37.45 76.65 39.05 77.75 39.05 78.2 39.05 78.35 38.6 78.5 38.15 78.25 37.45 77.65 35.65 77.65 34.75
M 71.1 36.6
Q 71.75 37.05 72.35 37.05 72.95 37.05 73.2 36.7 73.5 36.3 73.25 35.85 72.35 33.75 72.05 32.85 71.35 31.05 70.55 31.05 69.8 31.05 69.7 32.4 69.6 33.75 70.25 35.45 70.45 36.1 71.1 36.6
M 74 28.9
Q 73.35 27.45 72.45 26.05 70.4 22.75 69.8 23.95 69.2 25.15 71.15 28.75 72.5 31.2 73.6 31.85 74.65 32.5 74.65 30.85 74.65 30.3 74 28.9
M 79.35 29.35
Q 80.15 30.25 80.4 29.8 80.65 29.4 80.65 27.05 80.65 25.8 80.4 24.95 80.1 24.05 79.65 24.05 78.8 24.05 78.7 26.35 78.55 28.6 79.35 29.35
M 59.85 44.75
Q 58.6 41.9 57.6 41.7 56.6 41.5 57.15 44.15 57.45 45.45 57.25 45.6 57.05 45.8 56.15 45.05 54.65 43.85 54.7 45.05 54.75 46.2 56.25 50.05 56.95 51.7 57.85 52.9 58.75 54.05 59.35 54.05 60.35 54.05 60.3 53.65 60.3 53.2 59.25 51.55 56.2 46.85 59.55 47.75 60.95 48.15 61 47.7 61.05 47.3 59.85 44.75
M 48.55 42.7
Q 48.4 41.3 46.65 39.05 45 36.85 44.2 37.25 43.4 37.65 44.65 40.05 45.35 41.4 45.35 42 45.35 42.6 44.65 43.05 43.75 43.65 44.4 45.5 45 47.4 46.95 49.85 47.7 50.8 48.7 51 49.65 51.2 49.65 50.35 49.65 49.6 47.65 47.05 45.95 44.8 45.8 43.85 45.65 42.85 47.15 43.45 48.7 44.05 48.55 42.7
M 50.45 35.05
Q 49.5 35.05 49.75 36.55 50 38.05 51.25 39.85 52.3 41.35 53.7 42 55.15 42.65 54.45 41.35 52.6 37.55 51.85 36.35 51.05 35.05 50.45 35.05
M 41.15 36.05
Q 42.75 36.05 42.45 35.05 42.15 34.05 39.65 31.05 37.25 28.2 36.8 28.85 36.35 29.5 38.15 33.05 38.85 34.35 39.7 35.2 40.55 36.05 41.15 36.05
M 60.05 34.05
Q 57.45 29.05 57.05 29.05 56.3 29.05 57.15 32.45 57.95 35.9 59.15 37.75 60.15 39.2 61.4 39.9 62.65 40.65 62.65 39.75 62.65 39 60.05 34.05
M 58.45 21.05
Q 57.5 21.05 57.7 23.4 57.95 25.75 59.15 28.15 59.85 29.35 60.55 30.05 61.25 30.8 61.55 30.55 62.3 30.2 60.8 25.6 59.3 21.05 58.45 21.05
M 52 14.8
Q 52.15 16.1 52.65 17.45 53.1 18.95 53.9 20 54.65 21.05 55.25 21.05 56.15 21.05 56.15 20.4 56.1 19.75 55.15 17.35 53.8 14.15 53.25 13.45 52.65 12.7 52.05 13.35 51.8 13.6 52 14.8
M 41.75 19.1
Q 42.05 21.15 43.35 23.05 44.85 25.15 45.15 27.05 45.4 28.9 44.15 28.45 43.7 28.2 42.85 27.05 42 25.85 41.35 24.45 40 21.75 38.85 21.6 37.7 21.45 38.35 24.05 38.95 26.25 41.35 28.6 43.75 30.95 44.95 30.45 45.55 30.25 46.15 30.55 46.7 30.85 46.95 31.45 47.45 32.7 49.05 33 50.65 33.3 50.65 32.15 50.65 31.35 49.15 30.05 48.55 29.5 48.1 28.7 47.65 27.8 47.65 27.15 47.65 25.65 45.45 21.35 43.2 17.05 42.45 17.05 41.4 17.05 41.75 19.1
M 47.15 16.35
L 48.55 21.55
Q 49.2 24.35 50.55 26.85 51 27.75 51.8 28.4 52.55 29.05 53.15 29.05 54.05 29.05 53.95 28.45 53.85 27.8 52.65 25.85 51.9 24.55 51.45 23.35 51.05 22.15 51.25 21.85 51.85 20.95 50.2 17.5 48.5 14.05 47.45 14.05 47 14.05 46.9 14.7 46.8 15.35 47.15 16.35
M 63.45 22.75
Q 62.05 20.05 61.55 19.7 61.1 19.35 60.85 20.75 60.7 21.65 61.1 23.05 61.45 24.4 62.15 25.45 64.15 28.5 64.7 27.35 65.25 26.2 63.45 22.75
M 65.55 17.85
Q 65.1 17.35 64.85 18.35 64.7 19.1 64.95 20.55 65.2 21.9 65.65 23.15 66.9 26.05 67.75 26.05 68.7 26.05 68.55 24.85 68.4 23.7 66.95 20.45 66.05 18.3 65.55 17.85
M 70.55 16.6
Q 70.05 16.3 69.85 17.25 69.7 17.9 69.95 19.05 70.2 20.1 70.65 20.95 71.1 21.85 71.7 22.45 72.25 23.05 72.65 23.05 73.7 23.05 73.6 22.3 73.45 21.55 71.95 18.75 70.95 16.95 70.55 16.6
M 83.35 69.45
Q 83.65 69.75 84 69.65 84.3 69.5 84.45 69.05 84.65 68.55 84.45 67.85 84.25 67.25 83.75 66.75 83.15 66.15 82.9 66.25 82.65 66.35 82.65 67.15 82.65 68.75 83.35 69.45
M 83.15 52.95
Q 83.35 53.8 83.9 54.45 84.35 55.05 84.75 55.05 85.4 55.05 85.1 53.05 84.8 51.05 84.05 50.15 83.4 49.4 83.05 50.45 82.7 51.5 83.15 52.95 Z"/>
</g>
</defs>

<g transform="matrix( 1, 0, 0, 1, 0,0) ">
<use xlink:href="#Layer1_0_FILL"/>
</g>
</svg>
