
<svg xmlns="http://www.w3.org/2000/svg" version="1.1" xmlns:xlink="http://www.w3.org/1999/xlink" preserveAspectRatio="none" x="0px" y="0px" width="100px" height="100px" viewBox="0 0 100 100">
<defs>
<g id="Layer1_0_FILL">
<path fill="#000000" stroke="none" d="
M 50.45 58.7
Q 50.45 58.1 49.75 58.45 49.5 58.6 49.25 58.95 49.05 59.3 49.05 59.55 49.05 59.9 49.25 59.95 49.45 60 49.75 59.85 50.05 59.7 50.25 59.35 50.45 59 50.45 58.7
M 56.8 55.55
Q 58.95 52.3 58.6 51.95 58.4 51.75 56.2 54.8 53.95 57.85 53.95 58.35 53.95 59.1 54.6 58.45 55.25 57.85 56.8 55.55
M 6.45 60.9
Q 6.1 60.9 6.1 61.25 6.1 61.6 6.45 61.6 6.8 61.6 6.8 61.25 6.8 60.9 6.45 60.9
M 9.55 56.35
Q 9.55 55.65 8.2 57.3 6.8 58.95 6.8 59.8 6.8 60.1 7.2 59.8 7.65 59.55 8.2 58.8 9.55 57.05 9.55 56.35
M 37.05 45.9
Q 37.05 46.35 37.65 45.7 38.3 45 40.35 42.25 43.75 37.65 43.2 37.65 42.85 37.65 39.95 41.55 37.05 45.4 37.05 45.9
M 19.75 45.35
Q 19.95 45.6 19.65 46.5 19.35 47.4 18.75 48.35 17.35 50.65 17.35 51.35 17.35 52.15 18.7 49.9 20.1 47.65 27.2 35.2 29.05 32.05 28 33.2 26.9 34.4 24.9 37.8 23.9 39.45 23.05 40.55 22.25 41.65 22.05 41.45 21.65 40.95 20.5 42.9 19.4 44.8 19.75 45.35
M 22.3 42.25
Q 22.3 42.6 21.9 42.6 21.55 42.6 21.55 42.25 21.55 41.9 21.9 41.9 22.3 41.9 22.3 42.25
M 21.15 44.3
Q 20.8 45.25 20.5 45.4 20.15 45.5 20.15 44.8 20.15 44 20.85 43.65 21.5 43.35 21.15 44.3
M 11.7 43.65
Q 11.7 44 12.05 44 12.4 44 12.4 43.65 12.4 43.3 12.05 43.3 11.7 43.3 11.7 43.65
M 12.4 42.25
Q 12.4 42.6 12.75 42.6 13.1 42.6 13.1 42.25 13.1 41.9 12.75 41.9 12.4 41.9 12.4 42.25
M 15.6 38.65
Q 16.6 36.9 16 37.25 15.7 37.45 15.25 38 14.8 38.6 14.55 39.15 13.75 40.6 14.15 40.45 14.55 40.25 15.6 38.65
M 17.7 34.55
L 16.5 36.6 17.9 34.9
Q 19.45 33 21.5 29.35 23.55 25.7 23.05 25.7 22.55 25.7 20.75 29.05 18.75 32.9 17.7 34.55
M 34.05 21.7
Q 33.9 21.55 32.85 22.9 31.8 24.15 30.45 26.05 29.05 27.95 27.8 29.3 26.5 30.6 26.1 30.6 25.7 30.6 25.4 30.8 25.1 31 25.1 31.25 25.1 31.5 25.4 31.7 25.75 31.8 26.15 31.75 26.9 31.65 30.7 26.9 34.4 22.1 34.05 21.7
M 28.4 23.3
Q 28.6 23 28.45 23 28.35 22.95 28.05 23.15 27.5 23.45 23.7 28.8 19.9 34.1 19.2 35.55 18.6 36.8 17.7 38.35 16.8 39.8 16.15 40.55 15.4 41.5 12.85 46.35 10.3 51.1 10.3 51.55 10.3 52.65 14.55 45.2 16.8 41 17.35 41.9 17.85 42.75 18.25 41.55 18.5 41 18.45 40.85 18.35 40.6 18 40.9 17.65 41.1 17.5 40.95 17.35 40.85 17.5 40.4 17.65 40 18 39.7 18.3 39.4 18.6 39.4 19.3 39.4 19.95 38.8 20.25 38.5 20.1 38.5 19.95 38.45 19.55 38.7 18.6 39.25 18.9 38.3 19.05 37.9 19.4 37.65 19.7 37.4 20 37.45 20.35 37.55 20.5 37.35 20.6 37.15 20.5 36.75 20.35 36.45 21.45 34.4 22.5 32.4 24.1 29.9
L 28.4 23.3
M 63.1 35.5
Q 63.2 36 64.9 33.8 66.65 31.55 66.65 31.05 66.65 30.35 64.9 32.75 63.1 35.15 63.1 35.5
M 69.2 26.4
Q 68.8 26.4 68.4 27.1 68.05 27.8 68.35 27.8 68.75 27.8 69.1 27.1 69.55 26.4 69.2 26.4
M 67.75 28.5
Q 67.4 28.5 67 29.2 66.65 29.9 66.9 29.9 67.35 29.9 67.7 29.2 68.1 28.5 67.75 28.5
M 60.45 45.95
Q 59.4 47.5 59.9 47.5 60.55 47.5 66.8 37 73 26.45 73 25.35 73 25.05 72.3 26 71.6 27 70.75 28.5 63 42.05 60.45 45.95
M 57 44.1
Q 56.45 45.15 57.85 44 59.2 42.9 58.65 44.1 58.1 45.3 55.35 49.55 51.85 55.15 51.85 55.7 51.9 56.45 53.4 54.25 54.9 52.05 58.6 45.9 62.5 39.45 62.95 37.35 63.35 35.25 59.8 40 57.5 43.05 57 44.1
M 59.2 43.3
Q 58.05 43.3 60.65 40.15
L 62.4 38 60.95 40.7
Q 59.5 43.3 59.2 43.3
M 41.55 48.8
Q 44.05 44.8 45.65 41.9 47.3 39.05 47.05 39.05 46.65 39.05 40.8 48.45 34.95 57.8 34.95 58.45 34.95 59.15 35.85 57.8 36.8 56.45 41.55 48.8
M 53.95 22.4
Q 53.95 21.9 53.15 23.3 52.3 24.65 51.15 27.05 49.9 29.4 47.65 32.95 45.35 36.55 43.4 39.2 41.4 41.9 39 45.45 36.65 48.95 35.3 51.2 32 56.7 31.7 56.7 31.15 56.7 31.7 55.4 32.3 54.1 34.25 51.1 37.05 46.75 37.05 46.4 37.05 45.85 35.75 46.35 34.4 46.8 33.75 47.5 32.95 48.55 32.9 49.1 32.85 49.65 33.6 49.2 34.3 48.8 33.7 49.9 33.1 51.1 30.95 54.3 20.85 69.15 20.85 70 20.85 70.6 18.35 74.3 17.35 75.75 16.7 76.95 16.05 78.1 16.15 78.3 16.35 78.4 16.7 78.1 17.05 77.7 17.35 77.1 17.85 76.15 18.15 76 18.45 75.9 18.85 76.45 19.2 77.1 19.3 77.1 19.45 77.1 19.45 76.45 19.45 75.75 22.65 70.45 25.8 65.15 26.2 65.15 26.45 65.15 23.55 70.95 20.75 76.35 20.4 77.1 20.15 77.8 20.65 77.8 20.85 77.8 21.95 76.45 23.05 75.1 24.3 73.25 25.5 71.45 26.6 70 27.6 68.65 27.7 68.65 28 68.65 27.1 70.35 26.15 72 25.3 73 24.9 73.45 24.65 74.05 24.4 74.65 24.55 75 24.65 75.3 25.5 74.3 26.4 73.25 27.5 71.45 29.75 68 30.35 67.4 30.95 66.85 29.6 69.55 28.25 72.15 26.55 74.25 24.8 76.35 24.2 76.2 23.85 76.15 23.55 76.55 23.25 77 23.1 77.65 22.8 79.85 24.3 79.3 25.8 78.7 27.05 76.2 27.7 74.9 28.45 74 29.25 73.1 29.65 73.1 30.1 73.1 30.4 73.25 30.75 73.45 30.75 73.65 30.75 74.2 30.05 74.55 29.4 74.9 29.1 74.5 28.75 73.6 29.1 74.85 29.3 75.75 27.9 77.8 26.5 79.75 26.5 80.2 26.5 81.1 27.85 79.9 29.2 78.75 30.3 76.9 30.95 75.7 31.95 74.4 32.85 73.1 33.45 72.6 34.65 71.55 34.8 71.55 34.9 71.55 34.55 72.6 33.9 74.15 32.5 76.4
L 30.5 79.65
Q 30.15 80.35 31.8 80.35 32.5 80.3 33.05 80.1 33.55 79.9 33.55 79.7
L 33.55 79.6
Q 33.542578125 79.9 33.2 79.9 32.85 79.9 32.85 79.55 32.85 79.2 33.2 79.2 33.5390625 79.2 33.55 79.5
L 33.55 78.45
Q 33.55 77.6 32.35 78.6 31.5 79.3 31.45 79.2 31.4 79.15 32.05 78.3 32.6 77.65 33 77.55 33.45 77.45 33.9 77.8 34.4 78.25 35.8 76.7 37.1 75.2 40.3 70.6 45.35 63.15 46.35 61.95 47.55 60.75 45.85 64.2 44.1 67.65 42.65 69.55 41.75 70.6 41.2 71.55 40.7 72.5 40.85 72.75 41.05 72.95 40.4 74.05 39.75 75.15 38.75 76.35 37.8 77.5 37.05 78.7 36.35 79.8 36.35 80 36.35 80.75 37.05 80.6 37.65 80.45 38 79.65 38.25 78.95 42.85 72.75 47.5 66.45 48.55 65.5 49.1 64.9 48.4 66.35 47.65 67.9 46.9 68.3 46.6 68.45 46.45 68.85 46.2 69.2 46.2 69.5 46.2 69.8 46.55 69.8 46.9 69.7 47.4 69.3 48.4 68.5 47.9 69.4 47.45 70.3 44.25 75.15 43.6 76.2 43.15 77.35 42.75 78.45 42.85 79 43 79.65 43.5 79.1 44.05 78.55 45.1 76.55 47.15 72.9 47.4 73.15 47.75 73.4 47 74.85 46.1 76.55 46.2 77.2 46.35 77.9 47.4 77.05 48.25 76.4 48.35 76.45 48.45 76.5 48.1 77.45 47.85 78.25 48.1 78.1 48.35 78 49.4 76.9 50.15 76.05 50.55 75.25 50.95 74.5 50.8 74.2 50.45 73.7 52.65 70.45 54.8 67.15 55.25 67.6 55.35 67.7 54.8 68.6 54.2 69.55 53.35 70.6 49.8 75.15 51.9 73.85 52.6 73.55 51.5 75.7 50.6 77.4 50.7 78.1 50.75 78.8 51.8 78.15 52.1 78 52.85 76.9 53.65 75.8 54.4 74.4 56.7 70.35 59.65 66.05 62.65 61.65 63 61.95 63.15 62.05 62.35 63.45 61.55 64.9 60.3 66.7 59.05 68.45 58.4 69.6 57.75 70.7 58.05 70.5 59 69.9 58.7 70.65 58.45 71.35 56.45 75 53.95 79.4 54.2 79.65 54.55 80 57.15 76.15 59.8 72.3 59.9 71.2 60.05 69.95 61.85 66.6 63.7 63.2 65.85 60.2 71.2 52.65 72.85 50.6 74.5 48.55 73.95 49.9 73.45 51.25 74.25 50.75 74.6 50.55 74.85 50 75.1 49.45 75.1 48.85 75.1 48.25 75.4 47.4 75.75 46.45 76.2 45.75 76.75 45 76.85 44.5 76.95 44 76.55 44 76.25 44 74.9 45.75 73.6 47.4 71.9 49.85 67.8 56.05 66.65 57.4
L 65.25 59.15 65.85 57.25
Q 67.65 52.5 74.2 42.4 75.95 39.65 77.3 37.4 78.5 35.25 78.4 35.05 78.25 34.9 78.85 33.25 79.4 31.55 80.45 29.35 83 23.75 82.1 24.85 81.2 25.9 78.25 32.05 76.9 34.75 74.45 38.95 72.05 43 70 46.1 64.9 53.75 63.45 55 62.05 56.3 66.5 49.3 68.25 46.6 69.9 43.2 71.55 39.8 71.55 38.95 71.55 38.2 73.75 34.7 75.95 31.25 75.6 30.9 75.25 30.55 69.45 38.65 64.05 46.4 63.25 46.85 62.4 47.3 67.15 39.9 69.55 36.15 69.3 35.85 69.05 35.6 63.95 43.25 58.9 50.85 58.9 51.4 58.9 51.8 59.75 51.35 61.15 50.5 55.15 59.05 53.25 61.9 52.15 62.9 51.1 63.9 52.85 61.25 54.8 58.25 53.25 59.15 52.3 59.8 52.8 58.7 53.3 57.65 55.6 54.35 58.7 49.85 59.2 48.95 59.65 48 58.2 49.3 57.5 49.9 56.4 51.3 55.15 52.8 54.25 54.2 51.85 57.65 51.85 56.8 51.85 56.45 51.65 56.35 51.4 56.2 51.1 56.35 50.75 56.55 50.65 57 50.55 57.45 50.75 57.9 50.95 58.3 50.3 59.8 49.75 61.2 48.7 62.9 46.2 66.9 46.2 66.25 46.2 65.6 47.75 63.15 49.35 60.65 48.45 60.35 47.05 59.9 54.05 49.5 56.15 46.35 56.6 45.45 57.05 44.5 56.1 45.05 55.15 45.65 55.5 44.55 55.85 43.5 57.5 40.95 59.55 37.65 59.05 37.65 58.55 37.65 57.4 39.65 51.7 49.3 50.95 49.3 50.75 49.3 49.8 50.75 48.85 52.2 47.7 54.2 46.6 56.2 45.55 57.65 44.5 59.05 44.2 59 43.85 58.9 43.65 59.1 43.4 59.3 43.4 59.7 43.4 60.55 40.95 64.4 39.9 66 39.2 66.8 38.45 67.65 38.45 67.15 38.45 66.75 40 63.95 41.5 61.15 43.6 57.65 46.55 53 51.55 44.55 53.5 41.15 58.05 33.8 61.75 27.65 61.5 27.3 61.15 27.1 58.25 32.25 57.1 34.35 55.85 36.3 54.55 38.2 53.95 38.7 53.35 39.25 52.05 41.35 50.6 43.5 49.3 45.9 46.1 51.75 45.5 51.75 45.25 51.75 43.8 53.85 42.3 55.9 40.5 58.8 38.7 61.75 37.35 63.7 35.95 65.6 35.8 65.5 35.7 65.4 36.55 63.65 37.5 61.8 38.85 59.55 42.1 53.75 41.55 53 41.1 52.15 41.65 52.6 41.85 52.8 42.3 52.65 42.75 52.4 43.1 51.9 44 50.8 44.05 50.15 44.1 49.55 43.25 50.05 42.85 50.25 42.85 50.2 42.75 50.15 43 49.7 43.2 49.4 43.5 49.25 43.85 49.15 44.1 49.3 44.6 49.55 47.55 44.65 50.55 39.75 50.8 38.25 51.05 37.05 55 30.25 59 23.45 58.75 23.25 58.5 23 53.25 32.05 48.1 41.05 44.8 45.7 41.1 51.1 39.3 54 36.55 58.45 35.75 59.4
L 34.45 61.05 34.6 58.95
Q 34.7 56.9 37.45 51.6 40.2 46.3 45 38.8 53.95 24.8 53.95 22.4
M 66.75 44.2
Q 69.65 40.45 69.95 40.75 70.6 41.35 64.4 50.85
L 61.35 55.55
Q 61.05 56.05 60.6 56.2 60.15 56.35 59.8 56.1 59 55.6 61.2 52.1 63.85 47.95 66.75 44.2
M 40.25 55.25
Q 39.9 55.25 39.9 54.9 39.9 54.55 40.25 54.55 40.6 54.55 40.6 54.9 40.6 55.25 40.25 55.25
M 31.4 59.3
Q 33.05 56.7 33.25 56.7 33.9 56.7 29.2 64.3 26.9 67.85 26.1 68.6 25.35 69.3 27.3 66.05 29.65 61.95 31.4 59.3
M 37.75 59.85
Q 37.75 60.2 37.4 60.2 37.05 60.2 37.05 59.85 37.05 59.5 37.4 59.5 37.75 59.5 37.75 59.85
M 39.9 56.35
Q 39.9 56.7 39.55 56.7 39.2 56.7 39.2 56.35 39.2 55.95 39.55 55.95 39.9 55.95 39.9 56.35
M 28.6 61.25
Q 28.6 61.6 28.25 61.6 27.9 61.6 27.9 61.25 27.9 60.9 28.25 60.9 28.6 60.9 28.6 61.25
M 28.95 59.5
Q 29.3 59.5 29.3 59.85 29.3 60.2 28.95 60.2 28.6 60.2 28.6 59.85 28.6 59.5 28.95 59.5
M 27.2 64.05
Q 27.2 64.4 26.85 64.4 26.5 64.4 26.5 64.05 26.5 63.7 26.85 63.7 27.2 63.7 27.2 64.05
M 29.55 71.95
Q 29.65 71.6 29.95 71.35 30.25 71.1 30.6 71.1 30.9 71.1 31.45 70.7 32 70.25 32.4 69.7 33.45 68.4 33.45 69 33.45 69.8 32.5 71.05 31.6 72.2 30.4 72.55 29.2 72.9 29.55 71.95
M 34.2 62.3
Q 34.2 62.75 33.9 63.45 33.6 64.2 33.2 64.7 32.2 66.05 32.2 65.4 32.2 64.8 33.2 63 33.6 62.3 33.9 62.05 34.2 61.85 34.2 62.3
M 36.35 69.7
Q 36.35 70.05 36 70.05 35.65 70.05 35.65 69.7 35.65 69.35 36 69.35 36.35 69.35 36.35 69.7
M 37.4 71.6
Q 38 71.15 37.15 72.75 36.4 74.05 34.9 75.35 33.9 76.2 33.95 75.95 34 75.75 35.25 74.15 36.8 72.05 37.4 71.6
M 56.65 59.55
Q 58.5 56.55 58.75 57.25 59 57.9 57.9 60.35 56.55 63 55 64.8
L 53.25 66.9 53.95 64.9
Q 54.8 62.5 56.65 59.55
M 46.55 60.2
Q 46.2 60.9 45.8 60.9 45.5 60.9 45.85 60.2 46.3 59.5 46.65 59.5 47 59.5 46.55 60.2
M 49.9 62.75
Q 50.15 62.5 50.3 62.65 50.5 62.85 50.35 63.2 50.15 63.6 49.8 63.95 49.3 64.4 49.2 64.3 49.15 64.25 49.45 63.5 49.6 63 49.9 62.75
M 48.85 72.75
Q 49.35 71.55 50.1 70.4 50.75 69.3 51.3 68.65 51.8 68 51.8 68.3 51.8 69.2 50.1 72.15 48.4 75.15 48.4 74.3 48.35 73.85 48.85 72.75
M 60.65 63
Q 60.3 63 60.3 62.65 60.3 62.3 60.65 62.3 61 62.3 61 62.65 61 63 60.65 63
M 57.5 67.6
Q 57.5 67.95 57.15 67.95 56.8 67.95 56.8 67.6 56.8 67.25 57.15 67.25 57.5 67.25 57.5 67.6
M 59.6 20.4
Q 59.6 20.75 59.95 20.75 60.3 20.75 60.3 20.4 60.3 20.05 59.95 20.05 59.6 20.05 59.6 20.4
M 45.85 21.1
Q 45.2 22.15 44.55 23.5 43.15 26.2 37.85 34.25 32.5 42.25 29.95 45.5 27.9 48.05 27.9 48.45 27.9 48.8 28.95 48.65 29.6 48.55 34.4 41.5 39.2 34.45 39.2 33.6 39.2 33.4 39.45 33 39.8 32.5 40.15 32.1 41.15 30.95 44.1 25.5 47.05 20.05 46.65 20.05 46.45 20.05 45.85 21.1
M 49.6 20.5
Q 49.05 21.45 48.45 22.9 47.05 26.4 47.35 26.4 47.75 26.4 49.1 23.15 50.5 19.9 50.25 19.65 50.15 19.55 49.6 20.5
M 41.1 21.65
Q 40.9 21.45 40.6 21.45 40.3 21.45 40.1 21.75 39.9 22.05 39.9 22.45 39.9 23.35 34.85 31.75 29.8 40.15 25.45 46.4 23.6 49.05 22.2 51.3 20.85 53.45 20.85 53.7 20.85 54.3 19.45 56.9 18 59.5 17.7 59.5 17.6 59.5 17.7 58.85 17.8 58.2 18.05 57.4 18.5 55.75 20.25 52.45 21.95 49.3 26.5 41.55 28 38.95 29.2 36.65 30.35 34.3 30.35 33.7 30.5 33.1 31.55 31.1 32.65 29.1 34.05 27.05 37.3 22.15 37.85 21.2 38.55 20.05 38.2 20.05 37.85 20.05 34.8 24.5 33.6 26.3 32.3 27.95 30.95 29.6 30.3 30.05 29.2 30.95 28.85 33 28.45 35 29.55 34.35 30.15 34.05 29.75 34.8 29.55 35.1 29.2 35.25 28.85 35.35 28.6 35.2 28.05 34.85 27.65 35.95 27.25 37.15 27.7 37.8 28 38.55 27.35 38.1 26.7 37.65 25.85 39.05 24.95 40.45 25.45 41.2 25.65 41.5 25.6 41.65 25.5 41.8 25.15 41.75 24.85 41.65 23.75 43.15 22.65 44.6 21.35 46.8 20.15 48.95 19.05 50.5 18 52.05 17.7 51.95 17.05 51.85 16.15 53.35 15.35 54.8 15.25 54.05 15.25 53.35 17.35 49.65 19.15 46.55 19.35 45.85 19.55 45.2 18.25 46.2 17.15 47.15 17.75 46.1 18.4 44.9 22.4 38.95 26.5 32.8 26.5 32.5 26.5 32.25 25.45 32.25 25 32.25 23.8 33.85 22.5 35.5 21.2 37.8 19.9 40.1 18.8 41.7 17.65 43.3 17.4 43.3 16.9 43.3 15.5 45.95 13.95 48.95 11.8 51.7 9.65 54.45 9.45 53.7 9.15 52.85 8.7 54.15 8.45 54.65 8.55 54.9 8.6 55.15 8.9 54.9 9.6 54.55 9.6 55.25 9.6 55.6 9.8 55.7 10 55.8 10.3 55.6 11.1 55.15 10.95 55.85 10.75 56.45 9.55 59 6.8 64.5 7 65 7.15 65.55 10 60.5 11.1 58.6 11.95 57.35 12.85 56.1 13 56.25 13.1 56.45 12.9 57 12.7 57.65 12.3 58.25 11.1 60.15 10.3 62.65 9.35 65.7 8.05 68.15 7.5 69.2 7.35 70 7.15 70.75 7.5 70.75 7.75 70.75 8 70.5 8.2 70.2 8.2 69.8 8.2 69.35 8.45 68.9 8.65 68.45 8.95 68.25 9.4 68 9.55 68.3 9.6 68.6 9.3 69.65
L 8.45 73.25
Q 8.25 74.05 8.35 74.5 8.45 75 8.85 75 9.15 75 9.4 74.7 9.6 74.4 9.6 74 9.6 73.6 9.85 73.1 10.1 72.65 10.45 72.45 10.85 72.2 10.95 72.4 11 72.5 10.75 73.25 9.8 75.7 11.35 76.55 12.95 77.4 14.75 75.4 15.7 74.3 15.75 74.35 15.75 74.4 14.95 75.7 14.5 76.35 14.15 77.2 13.85 78 13.85 78.5 13.85 78.95 14.85 77.6 15.85 76.2 17.2 73.95 20.85 67.8 23.2 64.4 25.15 61.55 25.65 60 26.2 58.45 24.95 59.2 24.2 59.6 24.6 59.05 25.25 58.45 26.15 58.45 26.55 58.45 27.7 57.25 28.8 56.05 29.95 54.35 32.25 51.1 32.65 50.25 33.05 49.4 32 50.05 31.7 50.25 31.9 49.65 32.05 49.05 32.7 48 35.1 44 35.75 42.9 36.35 41.85 36.9 41.25 37.45 40.6 37.55 40.75 37.9 41.1 36.35 43.6 34.85 46.1 35.2 46.05 35.55 46 37.2 43.5 40.4 38.6 40.85 37.75 41.35 36.8 40.35 37.6 39.85 38 39.55 38.1 39.2 38.1 39.2 37.8 39.2 37.2 40 36.55 40.75 35.9 41.5 35.9 42 35.9 44.55 31.5 47.15 27.1 46.65 27.1 46.3 27.1 45.15 29.2 44.75 30.05 43.75 31.35 42.75 32.65 41.8 33.6 39.8 35.6 33.9 44 30.1 49.65 28.1 52.3 26.1 54.9 28.1 51.6 29.2 49.9 29.25 49.5 29.3 49.15 28.25 49.15 27.8 49.15 26.55 50.5 25.35 51.75 24.05 53.6 22.75 55.35 21.55 56.85 20.35 58.3 20 58.5 19.4 58.95 20.4 57.15 21.45 55.25 26.1 47.9 31.4 39.3 36.25 31.05 41.3 22.5 41.3 22.05 41.3 21.8 41.1 21.65
M 15.6 48.95
Q 16.85 47.5 17.15 47.5 17.4 47.5 16.65 48.95 16.35 49.5 15.85 49.9 15.4 50.35 15.1 50.35 14.8 50.35 14.9 49.9 15.05 49.5 15.6 48.95
M 39.2 39
Q 39.2 39.3 39 39.65 38.8 40 38.45 40.15 38.2 40.3 38 40.25 37.75 40.15 37.75 39.85 37.75 39.6 38 39.25 38.25 38.9 38.45 38.7 39.2 38.35 39.2 39
M 27 54.2
Q 26.45 54.85 25.45 55 24.8 55.1 24.8 54.85 24.7 54.6 25.1 53.8 25.8 52.55 26.15 52.5 26.45 52.45 26 53.65 25.75 54.3 25.85 54.4 26 54.55 26.55 54.2 27 53.95 27.15 53.95 27.3 54 27 54.2
M 23.7 56.35
Q 24.4 55.95 24.4 56.6 24.4 56.9 24.2 57.25 24 57.6 23.7 57.75 23.4 57.9 23.2 57.85 23 57.75 23 57.45 23 57.2 23.2 56.85 23.45 56.5 23.7 56.35
M 21 61.25
Q 21.55 60.25 22.15 59.55 22.65 58.9 22.75 59.05 22.9 59.2 22.55 59.95 22.2 60.7 21.55 61.55 20.05 63.75 19.85 63.65 19.65 63.55 21 61.25
M 24.2 60.2
Q 24.45 60.2 23.85 61.2 23.2 62.3 20.8 65.85 18.25 69.7 15.65 72.5 14.6 73.7 15.45 72.3 16.25 70.95 18.45 67.8 23.8 60.2 24.2 60.2
M 26.15 56.7
Q 26.5 56.7 26.5 57.05 26.5 57.4 26.15 57.4 25.8 57.4 25.8 57.05 25.8 56.7 26.15 56.7
M 15.25 55.6
Q 15.25 55.25 15.6 55.25 15.95 55.25 15.95 55.6 15.95 55.95 15.6 55.95 15.25 55.95 15.25 55.6
M 12.4 60.55
Q 12.4 60.9 12.05 60.9 11.7 60.9 11.7 60.55 11.7 60.2 12.05 60.2 12.4 60.2 12.4 60.55
M 19.2 64.4
Q 19.55 64.4 19.1 65.15 18.75 65.85 18.35 65.85 18.05 65.85 18.4 65.15 18.85 64.4 19.2 64.4
M 14.9 62.3
Q 14.55 62.3 14.55 61.95 14.55 61.6 14.9 61.6 15.25 61.6 15.25 61.95 15.25 62.3 14.9 62.3
M 13.2 65.7
Q 12.65 66.85 11.9 67.85 11.25 68.85 10.95 69 10.25 69.45 11.65 66.7 12.25 65.5 12.9 64.55 13.6 63.55 13.9 63.35 14.6 62.9 13.2 65.7
M 12.15 73.2
Q 11.55 73.9 12.05 72.15 12.6 70.35 14.1 67.85 15.65 65.25 17.5 63.15 19.6 60.65 19.3 61.55 18.95 62.5 15.85 67.45 12.7 72.5 12.15 73.2
M 16.65 69
Q 16.65 69.35 16.3 69.35 15.95 69.35 15.95 69 15.95 68.65 16.3 68.65 16.65 68.65 16.65 69
M 73 23.65
Q 73 23.95 73.2 24.05 73.4 24.1 73.7 23.95 74 23.8 74.2 23.45 74.4 23.1 74.4 22.8 74.4 22.15 73.7 22.5 73.45 22.7 73.2 23.05 73 23.4 73 23.65
M 63.45 24.3
Q 63.95 23.5 64.15 22.8 64.35 22.15 64.25 22.15 63.95 22.15 62.75 24.3 62.3 25.15 62.1 25.8 61.9 26.4 62 26.4 62.35 26.4 63.45 24.3
M 91.3 40.7
Q 91.3 41.55 91.8 41.05 92.25 40.55 93.05 38.95
L 94.2 36.6 92.75 38.35
Q 91.3 40.25 91.3 40.7
M 89.65 45
Q 91 42.45 89.75 44.15 87.55 47.1 86.1 49.3 84.9 50.95 84 51.8 83.05 52.75 82.85 52.45 82.65 52.15 81.8 53.35 80.85 54.5 79.8 56.35 77.15 60.9 76.8 60.9 76.3 60.9 79.9 54.65 83.45 48.45 87.2 42.75 92 35.4 92 34.65 92 34.3 90.9 35.85 89.8 37.4 88.25 39.85 84.85 45.25 78.75 53.8 76.45 57 74.55 60 72.7 62.9 72.5 63.65 72.05 65.55 71.55 66.2
L 69.2 70.35
Q 68.35 71.7 68 72.65 67.65 73.5 68 73.3 68.7 72.8 69.9 70.6 71.1 68.45 71.5 69.3 72.05 70.15 75.1 66.05 78.45 61.55 79.25 60.75 80.9 59 82.05 57.45 83.05 55.95 85.6 51.9 88.25 47.65 89.65 45
M 82.5 54.55
Q 82.15 55.25 81.7 55.25 81.45 55.25 81.8 54.55 82.2 53.85 82.55 53.85 82.9 53.85 82.5 54.55
M 81.3 45.35
Q 82.3 43.25 83.9 40.75 87.6 34.9 87.65 34.2 87.7 33.45 84.05 38.85 77.4 48.7 75.55 50.95 73.75 53.2 73.7 51.7 73.65 51.25 73.25 51.75 72.8 52.2 72.3 53.3 71.7 54.4 70.9 55.4 70.15 56.45 69.6 56.8 69.05 57.15 68.2 58.35 67.4 59.55 66.7 60.85 64.95 64.05 62.65 67.4 60.25 70.9 60.6 71.25 60.75 71.45 60.65 71.9 60.55 72.45 60.25 73 59.95 73.55 59.9 74.1 59.8 74.65 59.95 74.9 60.6 75.95 62.7 74.1 64.8 72.2 68.05 67.65 73.2 60.5 76.9 54.5 80.65 48.45 80.35 47.75 80.25 47.35 81.3 45.35
M 75.8 53.6
Q 75.8 53.75 75.2 54.6 74.55 55.5 73.7 56.45 72.85 57.4 72.2 58.35 71.55 59.25 71.55 59.5 71.55 60.05 69.1 64.05 66.55 67.95 66.2 67.95 65.85 67.95 68.25 63.35 70.7 58.75 72.4 56.25 74.05 53.8 77.05 50.55 80 47.3 80 48 80 48.45 77.9 50.85 75.8 53.1 75.8 53.6
M 64.7 68.15
Q 64.35 69.05 63.55 70.5 60.3 75.95 60.3 74.85 60.3 74.25 62.25 71.05 64.2 67.8 64.75 67.45 65.05 67.25 64.7 68.15
M 65.6 69.35
Q 65.25 69.35 65.25 69 65.25 68.65 65.6 68.65 65.95 68.65 65.95 69 65.95 69.35 65.6 69.35
M 83.45 34.3
Q 87.15 27.7 86.9 27.4 86.8 27.3 85.95 28.6 85.05 30 84.05 31.9 80.6 38 79.6 39.8 78.8 41.1 78.6 41.7 78.35 42.3 78.8 41.9 79.8 40.95 83.45 34.3
M 90.35 29.15
Q 91.35 27.1 90.95 27.1 90.6 27.1 89.1 30.15 88.45 31.35 88.35 31.9 88.2 32.45 88.6 32.05 89.4 31.2 90.35 29.15
M 88.1 24.3
Q 87.75 24.3 87.75 24.65 87.75 25 88.1 25 88.45 25 88.45 24.65 88.45 24.3 88.1 24.3
M 85.35 24.15
Q 85.75 23.35 84.75 24.3 84.3 24.75 83.25 26.45 82.1 28.25 81.1 30.15 78.55 34.85 78.8 34.85 79.15 34.85 82.15 29.8 85 24.9 85.35 24.15 Z"/>
</g>
</defs>

<g transform="matrix( 1, 0, 0, 1, 0,0) ">
<use xlink:href="#Layer1_0_FILL"/>
</g>
</svg>
