
<svg xmlns="http://www.w3.org/2000/svg" version="1.1" xmlns:xlink="http://www.w3.org/1999/xlink" preserveAspectRatio="none" x="0px" y="0px" width="100px" height="100px" viewBox="0 0 100 100">
<defs>
<g id="Layer1_0_FILL">
<path fill="#000000" stroke="none" d="
M 69.45 77.4
Q 69.5 76.95 69.2 76.9 68.65 76.4 64.15 80.7 59.65 84.9 59.8 85.6 60 86.6 60.85 86.1 61.65 85.5 64.55 82.65
L 69.05 78.1
Q 69.4 77.8 69.45 77.4
M 16.15 77.15
Q 18.05 78.1 19.8 78.75 21.45 79.45 22 79.35 22.6 79.35 21.5 78.5 20.3 77.7 18.3 76.85 13.4 74.6 12.55 74.75 11.7 74.85 16.15 77.15
M 5.45 57.1
Q 6.95 60.45 7.35 59.55 7.9 58.65 6.65 54.9 5.3 50.5 4.4 49 3.3 47.6 3.8 51.1 4.4 54.15 5.45 57.1
M 27.95 29.55
Q 28.8 28.6 29.15 27.1 30.25 22.7 28.7 23 28.25 23.1 27.55 25.85 26.75 28.45 26.95 29.45 27.15 30.4 27.95 29.55
M 56.65 36.6
Q 57.65 35.25 56.6 35.1 55.6 35 54.15 36.35 52.65 37.8 45.85 42.3 43.3 43.95 41.35 45.5 39.55 47 39.6 47.35 39.8 48.15 40.05 48.1 40.75 48 48.5 42.6 56.25 37.2 56.65 36.6
M 50.95 19.95
Q 49 19.35 48.9 19.6 48.5 20.35 48.85 20.55 51.05 21.7 56.05 23.65 61.05 25.45 61.6 25.35 62.4 25.25 63.85 26.4 65.2 27.6 64.8 28.2 64.65 28.5 62.6 28 60.5 27.55 57.75 26.55 55.1 25.6 52.9 25.15 50.6 24.7 50.2 24.85 49.5 25.25 55.5 27.45 61.45 29.65 64.25 29.95 65.85 30.15 66.6 31.4 67.35 32.75 66.05 32.95 65.55 33.05 63.7 39.3 61.75 45.5 61.95 46.5 62 46.85 62.7 46.7 63.35 46.6 65.35 40.1 66.7 35.6 67.2 34.8 67.75 34.05 68.85 35.05 70 35.9 69.95 35.6 70.05 35.25 69.2 32.95 67.8 28.85 65.8 26 63.75 23.3 62.5 23.65 61.9 23.75 59.75 23.1 57.55 22.45 55.15 21.45 52.8 20.4 50.95 19.95
M 92.9 57.1
Q 93.5 57 94.4 55.4 95.2 53.85 94.65 54.05 94.05 54.2 90.75 56.6 87.5 58.8 86.1 59.15 84.9 59.45 84.6 58.15 84.5 57.55 84.75 56.95 84.95 56.35 85.45 56.1 96.15 49.95 96.05 49.15 95.95 48.75 94.3 49.5 92.55 50.25 90.3 51.65 88 52.9 85.9 53.85 83.8 54.75 83.2 54.6 82.35 54.55 82.3 55.15 82.35 55.75 83.05 57.9 84.2 61.4 85.6 63.45 86.15 64.35 86.75 64.9 87.4 65.5 87.8 65.45 88.7 65.3 87.4 63.25 86.5 61.8 86.8 61.15 87.05 60.5 89.1 59.15 92.3 57.2 92.9 57.1
M 87.6 36.85
Q 86.65 36.45 83.4 36 80 35.5 76.9 35.4 74.45 35.4 73.8 34.85 73.25 34.35 73.95 32.45 74.35 31.5 75.6 31.2 76.55 30.95 79.65 31.1 83.9 31.15 84.65 31.05
L 84.8 31.05
Q 84.8 30.95 84.65 30.75 84.3 30.55 83.5 30.3
L 83.5 30.35
Q 82.35 30.15 81.25 30.15 79.4 30.1 78.5 29.25 77.75 28.6 76.5 25.9 74.85 22.2 74.05 22 74.05 22.1875 74.05 22.45 74.15 23.3 74.75 25.15 75.55 27.7 75.5 28.6 75.6 29.65 74.6 29.9 73.05 30.2 70.75 25.5 69.8 23.55 68.9 22.3 68 21.05 67.5 21 67 20.9 66.95 21 67 21.25 67.45 21.95
L 67.45 22
Q 68.25 23.35 70.55 28.3
L 72.6 32.95
Q 72.65 33 72.65 33.05 72.65 33.15 72.6 33.2
L 64.2 47.8
Q 64.15 47.85 64.1 47.85 64.1 47.9 64 47.95
L 57.85 48.85
Q 51.8 49.8 50.7 48.95 50.4 48.7 50.45 48.25 50.5 47.95 50.9 47.45 51.65 46.7 53.55 45.35 57.4 42.8 57.75 42.7 58.05 42.55 58.2 42.95 58.3 43.1 58.3 43.45 58.45 44.05 58.4 45.25 58.4 46.45 58.6 46.85
L 58.65 46.95
Q 58.75 46.95 58.9 46.85
L 58.95 46.85
Q 59.2 46.5 59.35 46.05 59.55 45.45 59.55 45.1 59.35 44.35 60.75 39 61.9 34.8 62 33.75 62 33.45 61.8 33.25 61.5 33.15 61 33.25 59.9 33.5 54.75 31.25 51.7 29.95 50.45 28.9 49.15 27.9 48.55 26 47.9 24.1 47.4 23.3 47.25 23.05 47.05 22.95
L 46.95 23
Q 46.35 23.8 47.35 27.95 48.2 31.6 49.1 32.75 49.35 33.2 49.45 33.1 49.7 32.9 49.8 32
L 49.8 31.95
Q 49.95 31.35 50.5 31.1 51 30.9 51.65 31.1 52.15 31.3 52.15 31.65 52.25 32 51.95 32.45 51.5 33.2 49.9 34.35 46.65 36.4 45.6 35.4 44.65 34.55 43.5 28.65 42.85 25.2 41.7 23.25 41.2 22.25 40.8 21.95 40.55 21.85 40.4 22.05 40.15 22.65 42.25 29.85 44.5 37.45 43.75 38.55
L 43.7 38.55
Q 43.35 39.1 42.95 39 42.55 39.05 42.15 38.4 41.6 37.45 38.7 30.7 37.3 27.25 36.75 25.45
L 36.75 25.4
Q 36.35 23.5 36.7 22.45 37.15 20.85 37.1 20.25 37.1 20.05 37 19.95 36.85 19.9 36.65 19.9 36.5 20 36.15 20.65 35.8 21.55 35.45 22.65
L 35.45 22.6
Q 34.8 25.35 32.8 28.75
L 30.95 32.15
Q 30.9 32.2 30.8 32.2 30.75 32.25 30.65 32.25
L 26.45 31.45
Q 23.8 30.9 23.05 30.35 22.2 29.85 22.2 28.4 22.65 24.35 22.55 23.3 22.5 22.9 22.35 22.7 22.25 22.6 22.05 22.6 21.85 22.75 21.5 23.7 21.1 24.95 20.95 26.45 20.65 28.05 20.25 29.15 19.85 30.5 19.3 30.6 19.15 30.6 19.05 30.6 19.35 30.8 20.15 31.05 22.4 31.75 27.65 32.7
L 37.15 34.45
Q 39.05 34.85 39.6 35.9 39.9 36.5 39.5 36.9 39.2 37.25 38.3 37.4 36.9 37.65 29.1 36.25 25.9 35.55 23.35 35.35 21.25 35.15 20.6 35.2 20.95 35.35 21.65 35.55 23.45 36.1 27.45 36.9 35.2 38.5 37.55 38.3 39.5 38.15 40.3 38.9
L 40.3 38.95
Q 41.15 39.85 40.4 41.3
L 40.4 41.35
Q 40 42.05 40 42.15 40.2 42.25 41.05 41.8 43.15 40.75 47.8 37.1 52.3 33.45 53.6 33.05
L 53.55 33.05
Q 54.75 32.55 56.95 33.25 59.4 34.2 59.85 35.05 60.3 35.85 59.5 38.25
L 59.5 38.2
Q 59.15 39.85 54.55 43.2 50.2 46.5 47.95 46.9 47.15 47.05 46.75 47.3 46.6 47.4 46.6 47.55 46.75 48.15 49.3 50.05 50.5 51.05 51.25 52.2 52.1 53.4 51.9 54
L 51.9 53.95
Q 51.8 54.45 52.05 54.7
L 52.05 54.75
Q 52.25 55.1 52.6 55.1
L 52.65 55.1
Q 53.45 55.25 53.5 55.8 53.65 56.3 53.2 57.1 52.9 57.55 52.3 57.55 51.85 57.6 51.15 57.2 50.05 56.6 47.25 54 45.4 52.25 43.75 50.95
L 43.7 50.9
Q 42.15 49.85 41.9 49.9
L 41.8 49.9
Q 41.8 49.95 41.9 50.1 42.05 50.5 42.7 51.35 44.2 53.15 47.8 56.6
L 47.75 56.6
Q 49 57.65 49.7 58.9
L 49.7 58.85
Q 50.55 60.2 50.3 60.8
L 50.35 60.8
Q 50.2 61.7 49.6 61.95 49.15 62.2 48.3 61.8 46.9 61 42.6 56.65 39.05 53.2 38.3 51.85 37.45 50.55 37.8 48.5 38.4 44.45 37.05 43.05 35.7 41.85 29.9 41.05 27 40.65 24.35 40
L 24.35 40.05
Q 21.55 39.55 20.85 39 19.9 38.4 19.4 38.25 19.05 38.15 19 38.25 18.9 38.85 20.55 40.3 23.75 43.2 24.6 44.8 25.55 46.5 24.65 48.35 23.85 50.25 23.05 49.9 22.35 49.75 19.55 46.9 17.05 44.5 15.7 43.7 15.15 43.4 14.9 43.5 14.85 43.6 14.9 43.95 15.05 44.55 19.4 48.1 24.05 51.85 23.45 53.55 23.25 54.1 22.75 54.2 22.3 54.3 21.65 53.95 20.4 53.3 17.55 50.95 15.55 49.25 14.05 48.3 13.35 47.85 12.95 47.75 12.9 47.7 12.85 47.7 12.8 48.05 13.1 48.45
L 13.1 48.5
Q 13.4 48.95 13.85 49.25 15.65 50.5 15.7 53.9 15.75 57.5 13.8 57.8 12.35 58.2 11.65 54.45 11.05 51.65 10.15 49.4 9.35 47.55 8.9 47.5 8.95 47.55 8.9 47.65 8.95 48.1 9.1 48.9 9.35 50.65 9.95 52.85
L 11.4 58.2 19.3 58.85
Q 26.75 59.35 28.5 59.3 28.9 59.15 29.5 57.65 30.3 56.05 30.75 53.85 32.05 48.75 32.15 46.25 32.25 45.05 32.05 44.55 31.9 44.2 31.6 44.2 31.35 44.3 31.2 44.6
L 31.2 44.65
Q 31 45.05 31.1 45.5 31.25 46.4 30.1 52 28.95 57.7 28.4 58.55
L 28.35 58.55
Q 27.85 59.35 26.1 58.65
L 26.05 58.65
Q 24.45 58 24.25 56.95 24.15 56.4 24.6 53.9 25.1 51.55 25.8 48.8
L 27.5 42
Q 27.55 41.9 27.55 41.8 27.65 41.8 27.75 41.8
L 31.65 42.5
Q 35.85 43.3 36.6 43.8
L 36.55 43.85
Q 37.15 44 36.95 46.2 36.8 48.1 36.35 50.5
L 36.3 50.5
Q 35.15 55.6 35.15 56.45 35.15 56.85 35.25 57 35.45 57.15 35.75 57.05 36.05 57 36.15 56.65 36.3 56.25 36.2 55.75 36 54.35 36.9 54.05 37.95 53.65 38.85 54.8 39.35 55.35 39.3 55.9 39.3 56.45 38.7 56.9 37.7 57.65 32.8 59.7 28.85 61.25 26.55 61.65 24.2 62.05 19.05 62 12 61.95 11.1 62.3 11.2 62.35 11.4 62.4 12 62.6 13.05 62.6
L 21.4 62.85
Q 25.3 63.05 27.2 62.7 29.2 62.25 33.5 60.3 37.65 58.35 39.15 57.95 40.7 57.6 41.75 58.4 42.65 58.9 42.85 59.4 43.15 59.95 42.6 60.45 41.85 61.15 36.75 63.15 33.2 64.65 30.45 65.2 27.55 65.75 22.3 66.05 15.75 66.45 14.05 66.75 13.85 66.75 13.7 66.8 14.1 66.95 14.85 67.1 17.25 67.45 21.65 70.75 26.2 73.95 26.15 75.25
L 26.15 75.3
Q 26.1 75.9 25.55 76.05 25.2 76.15 24.45 76 23.1 75.55 19.45 73.45 14 70.45 12.65 70.2 12.85 70.4 13.1 70.55 14.05 71.35 16.35 72.8 21 75.7 23.85 76.7 27 77.9 27.15 79.65 27.4 81.5 24.45 82.05 23.45 82.25 22.7 82.55
L 22.65 82.6
Q 22.15 82.85 22.1 82.95
L 22.1 83
Q 22.101953125 82.8998046875 22.6 82.85 23.3 82.85 24.7 82.7 27.55 82.4 31.55 81.65 40.55 80 41.65 80.75 41.9 80.95 41.9 81.2 41.95 81.4 41.75 81.6 41.5 82 40.7 82.4 39.15 83.3 35.6 84.6 30.45 86.6 27.95 87.85 27.25 88.25 26.95 88.4 27.25 88.45 27.65 88.35 29.9 87.95 40.4 83.7 41.5 83.25 42.05 83.4 42.75 83.6 42.9 84.4 43.25 85.75 37 88.65 31.2 91.45 31.25 91.95 31.25 92.2 31.35 92.3 31.4 92.35 31.5 92.35 32.1 92.15 36.2 90.15 40.95 87.85 42.2 87.75 43.5 87.6 43.9 89.85 44.1 90.8 44.45 91.35 44.75 91.8 45 91.8 45.2 91.7 45.2 90.2 45.05 88.55 44.6 86.05 43.9 82.15 44.05 81 44.1 79.8 45.55 79.55 46.95 79.35 47.4 80.2
L 47.4 80.15
Q 47.95 80.9 48.5 83.75 48.8 85.4 49.25 87.05 49.85 88.55 50.25 89.05
L 50.35 89.2
Q 50.45 89.15 50.45 88.75 50.5 87.6 49.95 84.85 49.5 82.45 49.45 80.75 49.4 78.75 50 78.7
L 50.05 78.7
Q 50.55 78.65 50.95 79 51.05 79.05 51.05 79.1 51.35 79.6 51.45 80.15 51.5 80.6 51.8 80.85
L 51.85 80.9
Q 52.05 81.15 52.3 81.1 52.9 80.9 53.45 82.05 53.85 82.85 54.1 84.15 54.35 85.45 54.8 86.5 55.2 87.4 55.55 87.5
L 55.5 87.5
Q 55.85 87.65 55.95 87.55 56.05 87.35 56 86.9 55.7 85.75 57.9 82.7 60.05 79.95 63.25 77
L 66.55 74
Q 66.6 73.95 66.65 73.95 66.75 73.95 66.8 73.95
L 69.95 75.25
Q 71.35 75.75 72.45 76.05 73.5 76.2 73.85 76
L 73.8 76
Q 73.6 75.8 73.05 75.45 71.8 74.65 69.7 73.75 64 71.3 62.8 70 61.75 69.1 61.15 69.35
L 61.1 69.35
Q 60.3 69.8 57.55 73.1 54.45 76.6 53.15 77.25 51.85 78 48 78.15
L 47.95 78.2
Q 42.9 78.55 41.25 78.35 40.25 78.15 39.8 77.8 39.35 77.45 39.45 76.8 39.55 75.7 42.05 75.15 44.5 74.6 49.7 74.4 51.6 74.3 52.4 74.15 50.45 73.6 45.15 73.55 39.4 73.5 39.2 71.9 39 71.2 39.95 70.7 40.7 70.3 42.35 70.15 45.55 69.9 52.15 70.55 54.85 70.85 56.3 70.65 57.55 70.5 58 69.9 59.4 68.2 60.9 64.3 62.4 60.65 61.95 60.3
L 61.9 60.25
Q 61.8 60.25 61.6 60.4
L 61.6 60.45
Q 61.2 60.8 60.9 61.55 60.3 63.1 58.35 66.8 57.2 68.65 56.35 69.2
L 56.4 69.2
Q 55.55 69.9 54.75 69.35 53.05 68.25 56.1 63.2 58.95 58.4 61.25 58.2 62.7 58.05 63.25 58.5 63.95 58.95 64.15 60.25 64.3 61.25 65.2 61.8 66.2 62.4 68.9 63 71.6 63.55 72.65 64.3
L 72.6 64.3
Q 73.95 64.9 74.15 66.1 74.25 66.85 74.15 67.25 74 67.8 73.55 67.85
L 73.5 67.85
Q 72.85 67.85 69.25 66.75 65.7 65.7 63.65 65.65 62.9 65.55 62.8 65.65
L 63.35 66
Q 64.25 66.5 69.6 68.1 71.8 68.85 73.75 69.95 75.6 70.95 76.2 71.8
L 76.2 71.85
Q 76.95 73.1 77.4 73.5
L 77.5 73.55 77.5 73.4
Q 77.7 72.35 76.45 67.65 75.55 64.2 75.45 62.5 75.25 60.65 75.9 59.95 76.35 59.55 76.7 59.6 77.1 59.6 77.5 60 78.1 60.6 79.3 63.45 81.55 68.5 82.2 69.8 82.8 70.8 83.1 70.8
L 83.1 70.75
Q 83.1 70.55 83.05 70.1 82.85 69.25 82.3 67.5 81.1 63.9 79.25 59.95
L 79.25 60
Q 78.3 58.25 78.45 57.2 78.5 56.25 79.55 54.8
L 79.55 54.75
Q 80.2 53.75 81.1 53 82.1 52.25 82.6 52.15 83.9 51.9 88.6 49.05 93.15 46.35 94 45.25 94.55 44.65 94.65 44.35
L 94.6 44.35
Q 93.85 44.4 91.3 45.95 89.4 47.25 88.6 47.45
L 88.55 47.45
Q 87.7 47.7 86.9 46.85 85.7 45.7 85.8 45 85.85 44.25 87.25 43.5
L 87.3 43.5
Q 87.65 43.4 87.8 43.3 87.5 43.05 86.1 42.85 84.9 42.6 83.2 41.7 81.6 40.85 80.45 39.85 78.8 38.4 78 38.05 77.9 37.95 77.8 37.9
L 77.8 37.95
Q 78.2 39.15 82 43.1 85.45 46.95 85.8 48.35 86 49.25 85.3 49.8 84.75 50.35 83.4 50.65 82.6 50.75 82.4 50.2 82.25 49.75 82.55 48.7 82.8 47.85 81.95 46.8 80.95 45.6 77.9 43.15 72.85 39.2 72.55 39.65
L 72.5 39.65
Q 72.4 39.85 73.6 41.05 74.9 42.45 76.95 44
L 82 47.9
Q 82.15 48 82.15 48.05 82.15 48.15 82.1 48.25
L 78.35 53.9
Q 76.7 56.35 75.3 57.85 73.75 59.6 73.3 59.4 73.2 59.35 73.1 59.4 72.95 59.65 73.05 60.1 73.25 61.4 72 61.95
L 72.05 61.95
Q 70.95 62.6 69.95 61.8 69.4 61.6 70.2 59.45 70.95 57.5 72.25 55 75.6 48.75 77.2 49.1 77.5 49.15 77.65 49.1 77.5 48.7 76.55 47.8 74.45 45.75 72.05 44.75 69.6 43.75 69.4 42.3 69.15 41.05 70.85 38.8
L 70.85 38.75
Q 72.2 36.8 74.85 36.45 77.15 36.15 83.6 36.9 86.7 37.3 87.7 37.15
L 88 37.1
Q 88 37.05 87.6 36.85
M 69.75 46.8
Q 69.25 46.9 68.65 47.25 67.55 47.85 67.15 47.65 66.9 47.55 66.9 47.15 66.8 46.85 66.9 46.35 67.3 44.55 68.7 44.55 69.9 44.45 72.05 46.05
L 74.45 47.7
Q 74.55 47.75 74.55 47.85 74.55 47.95 74.5 48
L 71.35 54.25
Q 69.1 58.7 67.5 60.35
L 67.5 60.4
Q 66.6 61.35 66 61.25 65.35 61.25 65.1 60.2 65.05 59.8 65.75 57.55 66.5 55.5 67.55 52.95 69.9 47.5 70 46.65 69.95 46.75 69.8 46.8
L 69.75 46.8
M 66.45 49.1
L 66.5 49.15
Q 66.95 49.4 67.1 49.9 67.25 50.45 67.05 51.15
L 67.1 51.15
Q 67 51.8 66.35 52.35 65.75 52.85 65.05 52.9
L 59.4 53.45
Q 56.3 53.8 54.4 53.2 52.45 52.55 52.25 51.2 52.05 50.35 58.7 49.45 65.25 48.65 66.45 49.1
M 36.2 26.7
Q 37.05 26.95 37.6 29.9 37.85 31.45 37.6 32.2 37.25 32.9 36.1 33.15 34 33.55 33.5 32.5
L 33.5 32.45
Q 33.05 31.5 34 29.05 35.15 26.45 36.15 26.7
L 36.2 26.7
M 25.6 41.55
L 25.55 41.55
Q 26.7 41.9 26.85 42.55 27.05 43.2 25.75 43.45 25.35 43.55 24.95 43.2
L 24.85 43.15
Q 24.5 42.9 24.4 42.35 24.35 41.95 24.6 41.65 24.65 41.6 24.7 41.6 25.1 41.45 25.6 41.55
M 22.6 57.8
Q 22.2 58.15 21.75 58.25 19.8 58.5 18.3 57.45 16.7 56.35 16.35 54.5
L 15.9 52.15
Q 15.9 52.1 15.95 52 16 51.9 16.1 51.9 16.2 51.9 16.3 51.9
L 19.5 53.95
Q 22.8 56.1 22.9 56.95
L 22.9 57
Q 22.95 57.4 22.6 57.8
M 26.25 67.85
Q 26.25 67.8 26.3 67.7 26.35 67.6 26.4 67.6
L 35.3 64.35 35.35 64.35
Q 40.3 62.6 42.6 62.1 45.2 61.5 45.95 62 46.9 62.5 47.15 62.95 47.55 63.65 46.95 64.1 46.05 64.9 41.6 65.95 39.25 66.55 37.25 67.4 35.45 68.1 35.1 68.7 34.6 69.4 34.55 69.35 34.6 69.4 34.65 69.45 34.65 69.4 35.35 68.95 35.9 68.65 36.3 68.65 36.75 68.65 36.95 69.15
L 36.95 69.1
Q 37.5 69.75 37.8 73.05 38.4 77.75 36.95 79.15 36.2 79.8 35.65 79.9 35 80.05 34.5 79.55 33.55 78.7 32.85 75.3 31.85 70.9 31.4 69.75 31.4 69.9 31.35 70 31.4 71.1 31.65 73.5 32.05 77.3 31.8 78.75 31.65 80.25 30.65 80.7
L 30.6 80.75
Q 29.4 81.25 28.75 79.9 28.35 78.95 27.55 74.55
L 26.25 67.85
M 23.1 66.8
Q 24.6 66.55 25.1 66.95 25.75 67.35 26 68.85 26.2 70 26.1 70.6 26 71.4 25.4 71.4
L 25.35 71.4
Q 24.5 71.4 21 69.35 19.55 68.35 18.9 67.75 18.4 67.35 18.6 67.15 18.65 66.85 19.3 67 21.1 67.15 23.1 66.8
M 39.35 67.9
L 39.35 67.95
Q 39.65 67.65 42.05 67 44 66.45 45 66.45 46.25 66.45 46.3 67.2 46.6 68.4 44.4 68.9 42.6 69.4 40.2 69
L 40.2 68.95
Q 39.5 68.8 39.3 68.65 39.1 68.5 39.1 68.3 39.15 68.1 39.35 67.9
M 65.35 55.05
L 65.35 55.1
Q 65.2 56.4 62.25 57.15
L 62.2 57.15
Q 59.25 57.8 58.15 56.8 57.4 56.25 57.25 55.75 56.95 55.2 57.45 54.85
L 57.45 54.8
Q 58.1 54.3 61.45 54 63.35 53.9 64.25 54.1 65.4 54.35 65.35 55.05
M 63.9 72.65
Q 64.35 72.95 64.35 73.45 64.35 73.9 63.95 74.5 63.3 75.5 60.9 77.75 57.3 81.15 56.25 81.55
L 56.3 81.55
Q 55.65 81.85 55.2 81.4 54.9 81.05 54.7 80.1 54.4 78.65 57 75.45 59.6 72.3 61.1 72 62.5 71.75 63.9 72.65
M 56.1 59.2
Q 56.2 59.65 55.95 60.4 55.5 61.75 54 64.45 52.5 67.05 51.7 68.3 51.35 68.95 51.15 69.25 51.05 69.4 51 69.5 50.95 69.6 50.9 69.6 50.9 69.65 50.8 69.65 50.7 69.65 50.55 69.6
L 48.65 69.3
Q 47.9 69.1 47.6 68.8 47.35 68.4 47.45 67.85 47.7 66.95 50.15 63.45 54 58.15 55.5 58.55 56 58.65 56.1 59.2 Z"/>
</g>
</defs>

<g transform="matrix( 1, 0, 0, 1, 0,0) ">
<use xlink:href="#Layer1_0_FILL"/>
</g>
</svg>
