
<svg xmlns="http://www.w3.org/2000/svg" version="1.1" xmlns:xlink="http://www.w3.org/1999/xlink" preserveAspectRatio="none" x="0px" y="0px" width="100px" height="100px" viewBox="0 0 100 100">
<defs>
<g id="Layer1_0_FILL">
<path fill="#000000" stroke="none" d="
M 18.2 41.7
Q 18.1 40.8 17.75 40.25 17.4 39.65 16.95 39.7 15.75 39.8 16.35 42 16.65 42.9 16.4 44.1 16.2 45.15 15.55 45.85 14.95 46.5 14.65 47.25 14.4 48 14.65 48.45 15.2 49.35 16.7 46.5 18.2 43.65 18.2 41.7
M 31.2 24.15
Q 30.6 24 30.35 24.45 29.75 25.6 32.55 26.7 35.25 27.9 36.35 26.9 37.45 25.95 37.45 23.7 37.5 21.4 36.4 20.9 35.5 20.45 35.95 22.3 36.4 24.4 35.15 25.25 33.95 26.2 32.5 24.85 31.85 24.2 31.2 24.15
M 71.85 51.8
Q 72.3 51.6 72.8 53.05 73.2 53.95 73.9 54.9 74.65 55.9 75.25 56.45 76.5 57.35 76.35 58.15 76.15 58.9 74.3 60.55 72.75 61.8 74.6 61.95 76.9 62.15 77.8 58.9 78.8 55.75 76.8 54.75 76.2 54.45 75.35 53.45 74.6 52.55 74.1 51.55 72.7 49.05 71.45 49.4 70.15 49.8 69.2 53
L 68.2 56.55
Q 68.899609375 55.9505859375 70 54.3 71.35 52 71.85 51.8
M 64.05 24.55
Q 65.15 22.05 62.4 20.45 59.75 18.85 57 20.3 56.65 20.55 55.95 19.75 55.25 19 54.65 17.8 53.35 14.9 51.6 14.3 49.85 13.65 48.5 15.55 48 16.3 47.25 16.7 46.55 17 46 16.75 43.7 15.6 43.25 18.15 42.75 20.7 44.95 22 46 22.65 43.35 22.05 40.45 21.25 38.9 23.05 37.4 24.75 39.9 26 41.85 27 42.85 28.7 43.75 30.3 42.25 30.2 41.8 30.15 41.15 30.55 40.55 31 40.2 31.65 39.55 32.9 39.25 36.1 39.25 37.85 39.8 38.8 40.4 39.7 42.05 40.55 46.65 42.85 48 38.65 48.35 37.5 48.8 37.5 49.35 37.4 50.35 38.35 51.95 39.8 53.6 39.5 55.25 39.25 55.45 37.55 55.7 35.75 56.35 37 56.9 37.95 56.25 39.6 55.7 41.25 54.15 42.5 53.15 43.55 51.2 42 49.25 40.55 47.85 41.7 46.5 42.8 47.2 45.25 47.9 47.6 47.45 48.1 47.05 48.6 45.9 46.75 45.05 45.4 44.4 45.2 43.65 45.1 41.85 45.95 39.8 46.9 39.55 46.5 39.3 46.05 40.75 43.9 41.3 42.9 41.05 42.45 40.8 42 39.4 41.65 38.2 41.4 35.35 41 34.2 40.9 34.3 40.2 34.45 39.5 36 37.05 37.8 34.45 37.8 33.65 37.95 32.8 36.65 31.65 34.8 30.05 30.75 29.65 26.6 29.3 26.35 30.6 26.35 31.2 26.75 31.95 27.25 32.7 28 33.25 29.9 34.65 29.3 35.35 28.7 36.05 26.45 34.9 25.4 34.4 24.25 34.2 23 33.95 22.3 34.15 20.8 34.7 20 36.3 19.1 37.9 20.15 38.45 20.6 38.7 21.15 39.5 21.8 40.4 22.1 41.3 22.65 42.9 23.2 43.1 23.7 43.35 25.45 42.9 27 42.5 27.7 42.75 28.45 43 29.35 44.25 29.95 45.05 30.8 45.65 31.75 46.3 32.4 46.4 34.45 46.6 34.55 47.6 34.6 48.55 32.5 48.6 31 48.65 30.35 48.2 29.6 47.8 29.1 46.7 28.75 45.85 28.05 45.25 27.3 44.65 26.6 44.55 25.4 44.4 23 47.1 20.6 49.85 20.95 50.95 21 51.25 20.3 51.5 19.6 51.85 18.55 51.9
L 16 51.9 18.15 53.1
Q 19.6 53.95 19.6 54.1 19.65 54.4 18.3 54.45 17.55 54.45 16.65 55 15.75 55.55 15.45 56.2 14.9 57.3 15.3 57.95 15.75 58.6 17.35 59.4 18.5 60 19.2 60.1 20 60.15 19.9 59.6 19.85 59.15 19.35 58.55 18.75 57.9 18.05 57.55 17.3 57.15 17.05 56.75 16.9 56.3 17.25 56 17.65 55.75 18.6 55.9 19.55 56.05 20.45 56.55 22.35 57.5 22.9 56.8 23.55 56.05 22.3 54.2 21.6 53.05 21.75 53 21.85 52.85 23.25 53.45 24.1 53.85 24.9 54.05 25.8 54.1 26.2 53.8 27.15 53.25 28.35 55.25 29.2 56.5 29.85 56.6 30.6 56.75 32.45 55.85 36.85 53.75 35.3 58.4 34.85 59.65 34.4 59.7 33.95 59.7 32.7 58.65 30.65 57 29.5 58.15 28.45 59.2 29.1 61.35 29.9 63.45 31.7 64.4 32.95 65.05 32.85 66.15 32.75 67.2 31.55 66.6 30.25 65.95 29.8 67.95 29.3 69.95 30.4 71.4 31.45 72.7 31.15 72.7 30.95 72.7 29.15 71.35 26.35 69.35 26.15 68.65 25.95 67.9 27.8 66.85 29.1 66.1 29.15 65.5 29.2 64.9 28.05 63.5 26.95 62.15 26.15 61.85 25.35 61.55 24.05 62.05 23.15 62.35 22.5 62.8 21.95 63.35 22.05 63.7 22.25 64.1 22.8 64.2 23.4 64.3 24 64.1 25.95 63.5 26.35 64.1 26.75 64.7 25.45 66.2 24.05 67.85 24.7 69.25 25.3 70.6 28.9 73.8 31.15 75.75 31.9 76 32.65 76.3 33.5 75.3 34.6 74.05 35.5 74.25 36.45 74.55 35.75 75.9 34.8 77.8 36.15 79.2 37.5 80.65 40.8 81.25 42.5 81.5 43.7 81.45 44.9 81.4 44.85 81.05 44.85 80.65 44 80.3 43.25 79.9 42.1 79.75 39.05 79.45 37.95 78.7 37 77.95 37.75 76.45 38.1 75.75 37.95 74.8 37.85 73.8 37.35 73.25 36.2 72.1 35.45 69.7 34.9 68.1 35.15 67.75 35.45 67.3 37 67.25 37.95 67.15 38.75 66.7 39.45 66.25 39.5 65.8 39.6 65.3 40.5 64.6 41.4 64 42.55 63.55 44.85 62.8 45.35 62.95 45.8 63.15 46.7 65.15 47.9 68.15 47 69.3 46.1 70.5 43.85 68.8 42.35 67.55 41.65 67.5 41.1 67.55 40.55 68.7 39.6 70.5 40.2 71.55 40.45 71.9 40.3 72.45 40.15 73.05 39.65 73.5 38.5 74.5 41.1 76.85 43.55 79 45.6 79.1 47.8 79.2 48.25 77.15 48.7 74.95 50.65 75.55 52.7 76.25 53.25 78.8 53.65 80.65 54.2 81.25 54.75 81.7 56.45 81.75
L 59.15 81.8 56.8 80.6
Q 55.85 80 55.2 79.15 54.5 78.25 54.65 77.55 54.75 76.5 55.2 76.5 55.75 76.5 57.25 77.7 58.25 78.5 59.1 78.8 59.9 79.1 60.1 78.75 60.3 78.35 60.15 78 60 77.6 59.65 77.4 58.75 76.95 59.2 76.1 59.35 75.7 60.1 75.75 60.8 75.8 61.65 76.2 62.5 76.6 63.6 76.85 64.7 77.05 65.45 77 66.65 76.8 66.75 76.5 66.9 76.1 66.15 74.95 64.9 73.1 65.65 72.4 66.3 71.65 68.1 73.1 69.55 74.15 70 73.9 70.45 73.7 71.1 71.35 72 68.65 72.9 68.55 73.9 68.4 74 71 74.05 72.35 74.25 72.35 74.45 72.3 75.15 71.1 75.55 70.3 75.55 69.45 75.55 68.55 75.15 68.1 73.95 66.85 71.85 67.4 69.8 67.9 69.6 69.45 69.45 71.2 68.15 70.55 66.85 69.85 66.85 68.55 66.9 67.3 68.25 66.85 70.65 66.05 71.05 62.95 71.55 59.95 69.45 58.9 68.95 58.65 68.25 58.9 67.4 59.15 66.85 59.8 66.2 60.45 65.35 60.65 64.55 60.85 63.95 60.45 61.85 59.15 60.85 59.15 59.9 59.1 59.3 60.35 58.4 62.1 56 61.35 53.5 60.6 53.5 58.55 53.4 56.6 53.9 55.55 54.4 54.45 54.95 55.35 55.75 56.65 57.5 56.45 59.2 56.2 60 54.6 60.85 52.9 60 50.35 59.25 47.75 58 48.45 57.6 48.75 56.75 48.75 55.95 48.7 55.2 48.3 54.1 47.75 53.65 47.95 53.25 48.25 53 49.5 52.8 50.55 52.35 51.25 51.85 51.85 51.15 51.85 49.55 52 48.7 50.85 47.9 49.75 48.55 48.4 48.85 47.8 48.9 46.95 49 45.9 48.75 45.3 48.2 43.55 49.3 43.45 50.35 43.35 51.35 45.05 52.4 46.65 53.15 46.45 53.85 46.2 56.05 43.45 58.25 40.7 58.4 38.6 58.65 36.5 56.75 35.85 54.7 35.15 54.2 36.7 53.9 37.65 53.2 37.6 52.4 37.7 50.85 36.7 48.85 35.65 48.2 35.75 47.55 35.9 46.6 37.8 45.75 39.45 45.05 39.8 44.3 40.15 42.9 39.65 41.6 39.1 41.05 38.25 40.6 37.5 40.7 35.8 40.75 33.35 41.55 32.45 42.45 31.6 43.55 32.75 43.95 33.3 45.25 33.55 46.55 33.85 48.05 33.85 49.95 33.85 50.85 33.4 51.8 32.9 52.25 31.8 52.9 29.7 51.15 28.5 49.3 27.25 47.8 28.75 46.7 29.95 45.55 29.95 44.45 29.9 45 28.75 45.45 27.9 42.65 26.05 40 24.3 40.85 23.7 41.25 23.45 42.2 23.75 43.3 24 44.35 24.7 46.7 26.1 48.3 25.25 50 24.55 48.25 22.8
L 45.55 19.9
Q 44.55 18.65 44.7 18.5 44.8 18.3 46.45 18.55 47.4 18.8 48.35 18.45 49.25 18.15 49.6 17.4 49.95 16.7 50.6 16.35 51.2 16.05 51.7 16.3 52.7 16.8 52.75 18.4 52.8 20.05 51.8 21.95 50.95 23.7 51.9 25.3 52.9 26.85 56.3 29.25 59 31.2 59.75 31.4 60.5 31.55 60.8 30.3 61 29.55 60.65 28.35 60.25 27 59.5 26.05 58.3 24.5 58.3 23.9 58.3 23.15 59.55 22.4 61.1 21.3 61.45 21.75 61.95 22.2 61.9 25 61.9 27.45 62.85 28.25 63.8 29 65.15 27.65 66.65 26.1 67.65 27.35 68.3 28.15 68 28.55 67.75 28.9 65.85 29.6 63.2 30.6 61.8 33.55 60.4 36.5 61.7 38.6 62.35 39.6 63.05 39.85 63.75 39.95 65.2 39.35 66.2 38.85 67.5 38.55 68.75 38.35 69.7 38.5 70.7 38.6 71.35 38.05 71.95 37.55 72.4 36.25 72.95 33.75 74.2 34.35 74.75 34.65 75.25 34.55 75.75 34.4 75.95 34 76.65 32.7 77.35 34.05 78.05 35.5 77.6 37.35 77.45 38.4 77.7 39.2 78 40.05 78.65 40.2 80.5 40.8 80.6 42.6 80.7 44.55 79 45.75 77.2 47.05 76.25 46.2 75.3 45.35 75.9 42.95 76.45 40.5 74.6 39.3 73 38.15 71.65 39.1 70.2 40.05 70.7 42 71 43.15 70.45 43.2 70 43.25 68.35 42.25 66.5 41.2 65.85 41.3 65.1 41.4 64.3 42.9 63.45 44.35 63.65 44.9 63.9 45.4 65.4 45.85 66.95 46.25 67.05 46.7 67.15 47.1 66.15 48.3 64.55 50.15 65.2 52.45 65.85 54.8 64.85 54.3 64.4 54.05 63.9 54.2 63.45 54.3 63.25 54.7 63.05 55.1 63.65 55.65 64.25 56.2 65.35 56.55 67.1 57.2 67.85 56.8 68.010546875 56.714453125 68.2 56.55
L 67.25 53.7
Q 66.85 52.4 67.05 51.2 67.2 50 67.9 49.3 69.2 47.75 67.9 45.15 66.95 43.3 66.95 43.15 67.05 43.05 68.2 44 70.25 45.65 71.5 45.25 72.75 44.85 72.75 42.8 72.7 41.9 73 41.15 73.3 40.45 73.65 40.35 74.05 40.3 74.2 41.4 74.35 42.45 74.2 44 73.5 50.3 78.7 47.3 84.7 43.8 80.95 39.65 80 38.6 79.6 37.45 79.2 36.4 79.6 35.65 80.35 34.15 79.3 32.9 78.2 31.55 76.6 32.1 75.95 32.3 75.05 32.25 74.15 32.1 73.5 31.75 72.1 31.05 71.15 32.55 70.2 34 70.8 35.8 71.15 36.75 70.7 36.8 70.3 36.85 68.9 36.15 67.55 35.5 66.85 35.6 66.1 35.8 65.6 36.75 65.25 37.45 64.6 37.8 63.9 38.15 63.35 37.85 61.85 37.1 63.55 34.15 65.3 31.2 67.65 30.5 69.1 30.05 69.55 29.6 70.05 29.05 69.9 28.05 69.5 26.55 67.45 25.4 65.35 24.35 64.4 25.25 63.9 25.65 63.8 25.45 63.7 25.2 64.05 24.55
M 54.3 21.5
Q 54.85 21.4 55.3 21.9 55.75 22.35 55.85 23.1 55.85 23.85 56.4 24.9 57.05 25.95 57.9 26.55 59.75 28.35 59.4 29.05 59.05 29.75 56.45 27.2 54 24.6 53.4 23.1 52.85 21.65 54.3 21.5
M 50.75 29.95
Q 51.05 30.3 51 30.9 50.9 32.1 50.15 32.55 49.4 33.05 48.45 32.6 47.75 32.25 48.4 30.95 49.1 29.7 50.1 29.6 50.55 29.5 50.75 29.95
M 40.7 47.95
Q 43 46.6 43.75 47 44.1 47.15 43.6 47.7 43.05 48.25 42.05 48.8 40.3 49.85 40.1 50.4 39.9 51 40.75 52.45 41.4 53.3 41.45 54.4 41.6 55.45 41.3 56.1 40.95 56.75 41.15 57.75 41.2 58.75 41.75 59.65 42.9 61.6 42.55 62.3 42.2 63 40.55 62.2 38.8 61.3 37.9 61.9 37.1 62.55 37.85 64.3 38.35 65.6 38.2 65.85 38 66.1 36.65 65.9 35.05 65.7 32.9 63.7 30.7 61.65 30.55 60.15 30.55 59.65 30.8 59.7 31.15 59.7 31.65 60.25 33.2 61.95 34.7 61.7 36.25 61.35 37.25 59.3 38.5 56.45 37.25 54.8 36.05 53.15 34.5 52.9 32.9 52.7 32.2 54.1 31.6 55.3 30.45 54.8 29.3 54.35 28.75 52.75 28.45 51.85 27.85 51.65 27.25 51.45 26.05 51.85 25.2 52.2 24.3 52 23.3 51.8 22.85 51.35 21.7 50.15 23.15 49.7 23.75 49.5 24.35 48.85 25.1 48.25 25.45 47.55 27 44.45 27.75 48.75 27.9 50.05 28.3 50.35 28.7 50.7 29.75 50.3 30.45 50.1 31.4 50.15 32.4 50.2 33 50.55 34.65 51.35 35.6 50.65 36.6 49.9 36.5 47.85 36.45 46.5 35.9 45.9 35.35 45.3 33.95 44.95 31.35 44.3 30.45 42 29.75 40.15 29.25 40.05 28.75 39.9 26.65 40.7 23.65 41.85 23.75 40.6 23.85 40.05 23.45 39.45 23.15 38.85 22.7 38.6 21.6 38.05 21.35 37.05 21.25 36.05 22.15 35.65 22.5 35.55 23.45 35.85 24.45 36.15 25.35 36.6 26.4 37.15 27.65 37.25 29.05 37.4 29.75 37 30.95 36.45 31.1 35.85 31.25 35.25 30.6 33.75
L 29.5 31.3 32.05 31.35
Q 34.8 31.45 35.3 33 35.8 34.55 34.05 37.35 32.4 40.15 32.7 41.7 33 43.3 34.95 42.65 36.7 42.1 37.65 42.9 38.6 43.7 37.9 45.05 36.9 47.1 37.85 48.05 38.85 49 40.7 47.95
M 44.1 49.4
Q 45.15 49.2 45.7 49.45 46.35 49.7 46.75 50.6 47.05 51.35 47.95 52.05 48.85 52.65 49.9 52.95 51.35 53.25 51.75 53.75 52.2 54.25 51.95 55.4 51.55 57.5 49.55 57 48.75 56.8 47.75 57.2 46.75 57.55 46.2 58.2 44.6 59.95 43.3 59.2 42.1 58.35 43.55 56.45 44.2 55.6 44.5 54.85 44.75 54.15 44.5 54
L 42.75 52.75
Q 41.6 52.05 42.05 50.9 42.55 49.8 44.1 49.4
M 32.15 74.2
Q 32.4 73.75 32.85 73.95 33.3 74.2 33.05 74.65 32.85 75.1 32.4 74.85 31.95 74.65 32.15 74.2
M 32.3 71.25
Q 31.95 70.9 31.75 70.2 31.55 69.55 31.6 69.05 31.7 68.5 32.05 68.55 32.4 68.5 32.9 69.1 33.85 70.15 33.6 71.2 33.3 72.25 32.3 71.25
M 67.35 61.45
Q 68.55 60.45 69.2 61.05 69.85 61.65 69.1 63.15 68.75 63.85 68.05 64.2 67.4 64.55 66.85 64.3 65.85 63.75 65.95 63.2 66.05 62.6 67.35 61.45
M 64.85 69
Q 64.6 69.85 62.7 68.2 60.95 66.75 59.55 67.85 58.1 69 58.8 71.4 59.3 73.6 59.05 74.1 58.75 74.75 55.5 74.6 52.2 74.45 52.05 73.8 51.6 72.7 52.65 71.3 53.8 70 54.75 70.45 55.3 70.75 55.8 70.75 56.35 70.65 56.55 70.25 56.7 69.9 56.45 69.45 56.15 68.9 55.55 68.65 54.9 68.3 54.8 67.8 54.75 67.35 55.35 66.9 56.55 65.8 54.8 64.9 54 64.5 53.65 64 53.2 63.55 53.4 63.2 53.85 62.25 55.6 62.65 57.4 62.95 57.8 64.2 58.4 65.85 59.1 65.9 59.9 65.9 60.15 64.25 60.55 61.4 61.75 61.5 62.95 61.7 64 64.6 65.25 68.1 64.85 69
M 56 51.3
Q 56.8 51.4 57.25 51.9 58.6 53.4 57.9 54.15 57.15 54.85 55.25 53.9 53.4 52.95 53.3 52.7 53.25 52.4 54.7 51.5 55.3 51.15 56 51.3
M 50.95 59.6
Q 52.55 60.4 52.85 60.9 53.1 61.4 52.35 62.1 51.8 62.65 51.65 63.45 51.6 64.35 52.05 65.2 52.85 66.75 51.35 70.75 49.85 74.7 48.65 74.1 48.35 73.95 47.85 74.6 47.45 75.1 47.05 76.15 46.65 77.75 46.1 77.95 45.6 78.15 43.9 77.3 42.45 76.55 42 75.9 41.7 75.25 42.2 74.3 42.55 73.6 42.6 72.75 42.7 71.95 42.45 71.55 41.6 70.1 42.25 69.65 42.9 69.15 43.9 70.5 44.95 71.95 46.5 71.75 48.05 71.55 48.95 69.8 49.8 68.1 49.15 65.45 48.55 62.9 47.1 62.15 46.45 61.8 46.05 61.35 45.6 60.9 45.8 60.7 46.75 59.15 47.9 58.95 49.1 58.65 50.95 59.6
M 60.4 72
Q 59.4 68.95 60.7 69.2 62 69.5 63.35 72.55 64.2 74.6 64.1 74.9 64.05 75.1 62.7 74.5 61.95 74.1 61.3 73.4 60.6 72.65 60.4 72
M 81.15 62.4
Q 83 61.85 83.35 59.9 83.6 58 82.5 53.25 81.8 50.25 83 50.35 84.6 50.6 84.75 49.65 84.9 48.75 83.45 48 81.55 47.05 80.9 49 80.2 50.85 80.85 55.4 81.05 57.7 80.9 59.45 80.7 61.25 80.2 61.8 79.3 62.7 79.4 62.8 79.55 62.9 81.15 62.4 Z"/>
</g>
</defs>

<g transform="matrix( 1, 0, 0, 1, 0,0) ">
<use xlink:href="#Layer1_0_FILL"/>
</g>
</svg>
