
<svg xmlns="http://www.w3.org/2000/svg" version="1.1" xmlns:xlink="http://www.w3.org/1999/xlink" preserveAspectRatio="none" x="0px" y="0px" width="100px" height="100px" viewBox="0 0 100 100">
<defs>
<g id="Layer1_0_FILL">
<path fill="#000000" stroke="none" d="
M 24 52.15
Q 23.998828125 52.2005859375 23.95 52.2 23.909765625 52.2873046875 23.9 52.35 23.8955078125 52.4701171875 23.95 52.55 23.99453125 52.624609375 24.05 52.65 24.675 52.8162109375 24.7 52.6 24.93828125 52.4421875 24.6 52.2 24.5458984375 52.1314453125 24.35 52 24.316796875 51.9943359375 24.25 52 24.182421875 52.0068359375 24.1 52.05 24.0609375 52.0875 24 52.15
M 33.4 21.6
Q 33.404296875 21.55078125 33.35 21.5 33.2953125 21.4560546875 33.2 21.45 33.1591796875 21.4419921875 33.1 21.45
L 32.7 21.65
Q 32.6150390625 21.7166015625 32.55 21.8 32.5314453125 21.8857421875 32.55 21.95 32.575 22.0556640625 32.65 22.1 32.73046875 22.1552734375 32.8 22.15
L 33.25 22.1
Q 33.34609375 22.0955078125 33.4 22.05 33.46875 21.9994140625 33.5 21.9 33.51015625 21.85 33.45 21.75
L 33.4 21.6
M 62.75 17.4
Q 62.6640625 17.3880859375 62.55 17.4 62.476171875 17.447265625 62.4 17.5 62.37578125 17.6212890625 62.4 17.7 62.4279296875 17.805859375 62.5 17.85
L 62.75 17.4
M 77.05 28.25
L 77.05 28.2
Q 77.0341796875 28.1357421875 76.95 28.05 76.921484375 28.0111328125 76.85 28
L 76.8 28
Q 76.78046875 27.9958984375 76.75 28 76.885546875 28.1072265625 77.05 28.25
M 82.5 42.2
L 82.5 42.2
Q 82.9640625 42.1923828125 83.35 42 83.4146484375 41.9927734375 83.45 41.9 83.4974609375 41.86796875 83.5 41.8 83.4970703125 41.717578125 83.45 41.65 83.4005859375 41.593359375 83.3 41.55 83.171875 41.5169921875 82.95 41.5 81.7607421875 41.11484375 80.35 41.15
L 79.9 40.1
Q 80.8548828125 38.9978515625 80.65 37.7
L 80.6 37.65
Q 79.5822265625 34.8455078125 77.05 33.1
L 78.35 30.05
Q 78.4015625 29.9892578125 78.4 29.9 78.40078125 29.8796875 78.6 30.05 78.083984375 28.204296875 77.15 28.45
L 76.75 28
Q 76.678125 28.0138671875 76.6 28.05
L 75.95 28.6
Q 75.4982421875 28.68515625 74.95 28.6
L 74.9 28.6
Q 71.68359375 28.3595703125 68.45 28.95 68.6375 28.6423828125 69.05 28.45 70.02421875 28.048046875 69.95 27.25 69.97578125 27.2359375 70 27.2 70.0796875 27.1953125 70.1 27.1 70.524609375 26.4759765625 70.95 25.6
L 70.95 25.6
Q 71.296875 24.964453125 71.35 24.25
L 71.35 24.25
Q 71.353125 22.7806640625 70.45 21.5 69.540625 20.2826171875 68.9 19.35 68.7166015625 19.105078125 68.6 18.95 68.5923828125 18.932421875 68.55 18.9 68.173046875 18.119921875 67 18.05 65.8814453125 18.034375 65.55 17.95 65.2568359375 17.8650390625 63.7 18.75 63.692578125 18.7677734375 63.65 18.75 63.4296875 18.919921875 63.2 19.1
L 63.15 19.1
Q 62.6958984375 19.5412109375 62.3 20.2
L 62.3 20.25
Q 62.0021484375 21.2240234375 62.15 22.2
L 62.15 22.25
Q 62.30546875 24.1888671875 63.35 25.95
L 63.4 26
Q 63.466015625 26.083984375 63.45 26.15 62.4177734375 26.1998046875 61.6 26.2 61.1951171875 26.192578125 60.9 25.9 60.7158203125 25.0935546875 60.45 24.9 60.076171875 24.5681640625 59.65 25.15
L 59.6 25.15
Q 59.2568359375 25.382421875 58.7 25.3
L 58.65 25.3
Q 57.195703125 25.037890625 55.9 25.75 55.8978515625 25.796875 55.85 25.8 55.71796875 25.9775390625 55.7 26.2 55.534375 26.9111328125 55.05 27.1 55.0240234375 27.0140625 55 26.9 55.10078125 26.0392578125 55.1 25.25 55.1513671875 23.83671875 55 22.5
L 55 22.5
Q 54.4890625 20.0744140625 53.55 17.8
L 54.65 19.9 52.5 15.2
Q 51.4078125 13.590625 49.3 15.2 48.6431640625 16.11015625 47.65 15.9
L 47.3 15.4
Q 47.2607421875 15.349609375 47.2 15.3
L 46.6 15
Q 46.528125 14.98359375 46.45 15 46.3603515625 15.0251953125 46.3 15.1 46.2474609375 15.1654296875 46.25 15.25 46.2474609375 15.333984375 46.3 15.4
L 47.6 17.05
Q 47.651171875 17.1037109375 47.7 17.1 47.7857421875 17.1546875 49.25 16.6 50.7078125 16.0787109375 51.15 15.35 52.0759765625 16.4765625 52.6 17.65 51.918359375 17.0134765625 50.95 16.8 48.5552734375 16.4349609375 47.1 18.35 46.915234375 18.35 46.65 18.35 45.838671875 18.3490234375 44.85 18.45 43.349609375 18.59765625 41.85 19.05 40.94765625 19.3095703125 40.4 18.6
L 40.4 18.55
Q 40.369140625 18.540234375 40.35 18.5 40.5 18.3 40.6 18.1
L 40.6 18.15
Q 41.4 16.75 41.35 15.25 41.35 15.15 41.3 15.1 41.2 15 41.15 15 41.05 15 41 15.05
L 40.6 15.3
Q 40.5 15.35 40.5 15.4
L 40.2 16.05 39.85 16.3
Q 39.75 16.25 39.7 16.25 39.65 16.15 39.6 16.1 39.55 16.05 39.5 16.05 39.4 16.05 39.35 16.1 38.55 16.4 37.85 17 37.75 17.05 37.75 17.15 37.75 17.2 37.75 17.3 37.8 17.35 37.85 17.4
L 38.55 17.95
Q 38.6 18 38.7 18 38.7357421875 18 38.75 18
L 39.75 20
Q 39.3107421875 20.366796875 38.8 20.75 35.49375 23.009765625 33.35 26.15 33.326171875 25.971875 33.35 25.75
L 33.35 25.7
Q 32.984375 23.319140625 31.8 21.4
L 31.8 21.35
Q 31.4666015625 21.0083984375 31 20.75 30.95625 20.6970703125 30.85 20.7 30.7876953125 20.71171875 30.7 20.75 30.6619140625 20.8376953125 30.65 20.9 30.6345703125 21.00546875 30.65 21.05 30.6494140625 21.062890625 30.6 21.05 30.5681640625 21.0029296875 30.5 21 30.4181640625 21.003515625 30.35 21.05
L 29.45 21.7
Q 29.403515625 21.7298828125 29.35 21.75 29.351171875 21.8216796875 29.35 21.85 29.2998046875 22.5248046875 29.25 23.25 29.237890625 23.447265625 29.2 23.55
L 28.4 22.75
Q 28.3734375 22.7154296875 28.3 22.7 28.2216796875 22.687890625 28.15 22.7 27.833203125 22.884375 27.75 23.2 27.73046875 23.278515625 27.75 23.35 27.84140625 23.487890625 27.95 23.6
L 28.7 24.4
Q 27.3302734375 25.5765625 25.65 25.65 25.44453125 25.4677734375 25.35 25.5 25.265625 25.49765625 25.2 25.55 24.93828125 25.760546875 24.6 26.05 24.5701171875 26.128125 24.55 26.2 24.5421875 26.2630859375 24.55 26.3
L 25.05 27.7 23.65 29.3
Q 23.6224609375 29.3798828125 23.6 29.45 23.5953125 29.51328125 23.6 29.55
L 25 33.7 23.5 34.05
Q 23.20703125 33.7904296875 23.1 33.35
L 23.05 33.35
Q 22.5091796875 31.907421875 21.35 30.75 21.3234375 30.7150390625 21.25 30.7 21.158984375 30.6873046875 21.05 30.7 21.00703125 30.769921875 20.95 30.85
L 20.75 31.25
Q 20.7484375 31.2970703125 20.75 31.35 20.7484375 31.4158203125 20.75 31.45
L 21.6 33
Q 21.522265625 32.9400390625 21.4 32.95
L 19.8 33.1
Q 19.7564453125 33.1078125 19.7 33.15 19.648046875 33.1890625 19.6 33.25 16.945703125 35.12734375 17.8 37.4 17.7875 37.48671875 17.8 37.55 17.86015625 37.6748046875 17.95 37.7 18.034765625 37.774609375 18.1 37.75
L 19.9 37.15
Q 21.411328125 38.4115234375 22.3 40.1 22.24921875 40.167578125 22.2 40.2
L 22.2 40.2
Q 21.648828125 40.559375 21.1 41.05 20.1962890625 42.046875 18.95 42.75
L 19 42.75
Q 18.0861328125 43.208203125 17.25 43.25
L 16.85 42.45
Q 16.8419921875 42.371484375 16.75 42.3 16.705078125 42.289453125 16.6 42.3 16.5537109375 42.303125 16.5 42.35 16.430078125 42.4001953125 16.4 42.45
L 16.2 43.2
Q 16.1849609375 43.3140625 16.2 43.4 16.475 43.987890625 16.7 44.65 16.7330078125 44.7140625 16.75 44.75 17.4326171875 45.6830078125 18.3 46.25 18.3939453125 46.3021484375 18.45 46.3 18.5609375 46.2880859375 18.6 46.2 18.687109375 46.1751953125 18.7 46.1 18.7150390625 46.0083984375 18.65 45.9
L 17.9 44.5 18.85 44.2
Q 19.344921875 45.31640625 19.4 46.5 19.3076171875 46.478515625 19.2 46.4 19.1154296875 46.379296875 19 46.4 18.9435546875 46.42265625 18.9 46.5 18.8423828125 46.5802734375 18.85 46.65 18.858203125 46.777734375 18.9 46.85 20.489453125 48.2095703125 21.3 50.25 21.884375 51.577734375 22.7 52.65 22.7578125 52.7283203125 22.85 52.75 22.942578125 52.7705078125 23 52.7 23.1009765625 52.670703125 23.1 52.55 23.1546875 52.5025390625 23.15 52.45 23.2115234375 52.431640625 23.2 52.35 23.4162109375 51.801171875 23.75 51.25
L 23.75 51.3
Q 23.9677734375 51.0228515625 24.05 50.8
L 24.05 50.75
Q 24.1740234375 50.5060546875 24.4 50.3 25.027734375 51.06875 25.15 52.05
L 25.15 52.1
Q 25.2134765625 52.329296875 25.1 52.45 25.046484375 52.50078125 25 52.55 24.992578125 52.6369140625 25 52.7 25.0201171875 52.7716796875 25.05 52.8 25.56640625 53.33203125 25.7 54.2 25.709375 54.22578125 25.7 54.25 26.34765625 55.7849609375 26.25 57.15 26.2529296875 57.226171875 26.25 57.25 26.2818359375 57.330859375 26.25 57.4 25.8359375 57.5833984375 25.45 57.55
L 25.4 57.55
Q 24.0955078125 57.3404296875 23.15 58.45 23.0916015625 58.513671875 23.1 58.6 23.1576171875 60.07890625 24.2 60.5
L 24.15 60.5
Q 25.066015625 61.01484375 25.75 61.55 24.6646484375 62.241796875 23.55 62.95
L 23.55 62.95
Q 23.061328125 63.2775390625 22.5 63.25
L 21.95 62.8
Q 21.8734375 62.7400390625 21.75 62.75 21.684765625 62.754296875 21.6 62.8 21.553515625 62.89921875 21.55 63
L 21.55 63.55
Q 20.9283203125 63.6654296875 20.35 63.4 20.38046875 63.2916015625 20.4 63.2 20.4400390625 63.1759765625 20.45 63.15 20.64140625 62.3921875 20.95 61.8
L 20.95 61.85
Q 21.2494140625 61.4021484375 21.5 61.1 22.0876953125 60.4087890625 22.3 59.45
L 22.3 59.4
Q 22.4025390625 58.5494140625 22.7 57.6
L 22.65 57.6
Q 23.459375 55.2791015625 22.65 53.35 22.6369140625 53.2654296875 22.55 53.2 22.4658203125 53.1794921875 22.35 53.2 22.29375 53.2228515625 22.25 53.3 22.1927734375 53.380078125 22.2 53.45 22.5236328125 56.151953125 21.65 58.5 21.13828125 57.4982421875 20.3 56.7 19.7580078125 55.8912109375 19.05 55.55 18.6330078125 55.3796875 18.35 55 19.296484375 54.794140625 19.7 54 19.77734375 53.9294921875 19.75 53.8 19.7189453125 53.725390625 19.6 53.65 19.5291015625 53.6224609375 19.4 53.65
L 17.9 54.1
Q 17.0076171875 53.9365234375 16.4 53.15 16.3412109375 53.073046875 16.25 53.05 16.158203125 53.0310546875 16.05 53.05 16.0009765625 53.116796875 15.95 53.2 15.9431640625 53.287109375 15.95 53.35
L 16.3 54.25 16.15 54.95
Q 16.1400390625 55.0265625 16.15 55.1 16.1951171875 55.1640625 16.25 55.2 16.318359375 55.246484375 16.4 55.25 16.7765625 55.253515625 17.2 55.35 18.0333984375 55.7779296875 18.8 56.4
L 18.85 56.45
Q 20.0140625 57.57265625 20.65 58.85 19.899609375 60.9208984375 18.6 62.5 18.5587890625 62.5427734375 18.55 62.6 18.5443359375 62.676953125 18.55 62.75
L 18.75 63.25
Q 18.805078125 63.316015625 18.85 63.35 18.9443359375 63.4001953125 19 63.4 19.109375 63.3986328125 19.15 63.35
L 19.4 63.1
Q 19.3984375 63.3677734375 19.4 63.6
L 19.4 63.65
Q 19.41953125 63.7666015625 19.3 63.8 19.2076171875 63.8744140625 19.15 63.95 19.135546875 64.0650390625 19.15 64.15
L 19.85 65.55
Q 19.9017578125 65.608984375 19.95 65.65 19.994921875 65.687890625 20.05 65.7 22.3294921875 66.080859375 24.35 67.65 24.1515625 69.0177734375 23.1 70.25 23.0494140625 70.3150390625 23.05 70.4 23.0484375 70.4822265625 23.1 70.55
L 23.45 71.05
Q 23.4953125 71.1248046875 23.55 71.15 23.664453125 71.1681640625 23.75 71.1 23.7310546875 71.20390625 23.75 71.25
L 24.15 71.9
Q 24.2154296875 71.971484375 24.25 72 24.320703125 72.0375 24.35 72.05
L 24.9 72.1
Q 24.830859375 72.119140625 24.75 72.15 24.7021484375 72.2333984375 24.7 72.3 24.7005859375 72.437890625 24.75 72.5
L 25.15 72.95
Q 25.234765625 73.0427734375 25.3 73.05
L 28.8 73.45
Q 28.9216796875 73.460546875 29 73.4 29.0814453125 73.34375 29.1 73.25 29.1111328125 73.14296875 29.05 73.05 28.9654296875 72.9275390625 28.9 72.85 28.890234375 72.773828125 28.8 72.7 28.5576171875 72.567578125 28.25 72.45 28.340234375 72.448828125 28.4 72.4 28.4845703125 72.330859375 28.5 72.2 28.5509765625 71.759765625 28.55 71.45 28.5439453125 71.412109375 28.5 71.35 28.117578125 70.1041015625 27 69.15
L 27 69.15
Q 26.40546875 68.6197265625 25.95 67.95
L 30.3 69.1
Q 30.2708984375 70.1697265625 30 71.25 29.119140625 74.030859375 30.45 76.45 30.5201171875 76.5447265625 30.6 76.55 31.13984375 76.8255859375 31.8 76.5
L 31.75 76.5
Q 32.6509765625 76.226171875 33.4 75.8
L 33.4 75.8
Q 34.8263671875 75.1630859375 36.3 75.45 36.3630859375 75.4650390625 36.4 75.45 36.4826171875 75.425 36.5 75.35 36.837109375 75.0759765625 37.2 74.65
L 37.2 74.65
Q 38.3564453125 73.2345703125 38.3 71.45 38.2498046875 69.275390625 39.05 67.2
L 41.4 67.05
Q 41.7494140625 67.414453125 42.15 67.85 42.701171875 68.946875 43.45 69.95 44.0263671875 70.792578125 44.05 71.7 43.348046875 72.67265625 42.4 73.2
L 42.4 73.25
Q 41.5212890625 73.9017578125 40.55 73.95 39.8654296875 73.9560546875 39.35 74.3
L 39.35 74.25
Q 38.4123046875 74.8369140625 37.5 75.5 36.975390625 75.8474609375 36.85 76.4 36.299609375 78.18671875 35.85 80.2 35.83984375 80.2763671875 35.85 80.35 35.894921875 80.4142578125 35.95 80.45 36.0185546875 80.4966796875 36.1 80.5
L 36.45 80.5
Q 36.4669921875 80.5525390625 36.5 80.6 36.5359375 80.65625 36.6 80.65 37.3046875 81.8677734375 39 81.55 39.0876953125 81.606640625 39.15 81.55 39.269921875 81.54921875 39.3 81.45 39.3685546875 81.392578125 39.35 81.3
L 39.2 80.55
Q 40.282421875 80.8451171875 41.25 81.4
L 41.3 81.4
Q 41.6130859375 81.5845703125 41.55 81.9 41.5455078125 81.9375 41.55 81.95 41.5712890625 82.2453125 41.65 82.35 41.825390625 82.5611328125 42.1 82.45 42.319140625 82.4232421875 42.65 82
L 45.8 82.85
Q 45.8634765625 83.02578125 45.95 83.1 46.018359375 83.1615234375 46.05 83.15 46.225 83.225 46.35 83.25 46.42421875 83.3005859375 46.45 83.3 46.5416015625 83.2873046875 46.6 83.25 47.005859375 82.9810546875 47.55 82.85 47.5759765625 82.8400390625 47.6 82.8 47.6267578125 82.815625 47.65 82.8 47.701171875 82.8748046875 47.75 82.95 47.7890625 83.0001953125 47.85 83 48.1119140625 83.15859375 48.35 83.4 48.4388671875 83.4857421875 48.5 83.5 48.6041015625 83.5130859375 48.65 83.45 48.7435546875 83.43046875 48.75 83.35 48.8134765625 83.2775390625 48.8 83.2 48.75234375 82.9748046875 48.75 82.75 48.753125 82.6048828125 48.8 82.45 50.03515625 82.3716796875 50.85 83.4 50.8890625 83.4517578125 50.95 83.45 51.023828125 83.505859375 51.1 83.5
L 54.05 82.95 54.1 82.95
Q 54.10859375 83.0224609375 54.1 83.05
L 54.1 83.1
Q 54.151953125 83.1818359375 54.2 83.2 54.3078125 83.2671875 54.4 83.25
L 55.3 83.1
Q 55.3943359375 83.0814453125 55.45 83 55.4998046875 82.9337890625 55.55 82.9 55.603125 82.9498046875 55.65 82.95 55.734765625 83.014453125 55.8 82.95 56.0294921875 82.9076171875 56.1 82.75
L 56.15 82.75
Q 56.3755859375 82.5205078125 56.5 82.25 57.233984375 81.95859375 58 81.65
L 58 81.7
Q 59.4494140625 81.301171875 60.75 81.1
L 60.8 81.1
Q 61.949609375 80.9001953125 63.25 80.6
L 63.25 80.55
Q 63.6130859375 80.473046875 63.95 80.2 64.0181640625 80.1490234375 64.05 80.05 64.071875 80.000390625 64.05 79.9 64.01796875 79.8501953125 63.95 79.8
L 61.15 77.5 61.2 77.5
Q 62.369140625 77.6484375 63.7 76.8
L 64.7 76.5
Q 64.78046875 76.4716796875 64.8 76.4 64.8587890625 76.3939453125 64.85 76.35
L 64.95 76.1
Q 66.4818359375 77.4728515625 68.35 78 68.4654296875 78.021484375 68.55 77.95
L 69.05 77.7
Q 69.134375 77.68359375 69.15 77.6 69.218359375 77.5140625 69.2 77.4
L 68.35 74.4 68.45 72.4 68.95 71.7
Q 69.123828125 71.665625 69.3 71.55 70 71.2751953125 70.7 70.9
L 70.7 70.9
Q 71.67578125 70.4259765625 72.4 70.4 73.725 69.7802734375 73.8 69.7 74.42578125 69.26484375 75.1 68.95 76.55 68.346875 78 68.3 78.0984375 68.3029296875 78.15 68.25 78.575390625 67.8875 78.9 67.5 78.9849609375 67.4734375 79 67.4 79.0126953125 67.308984375 78.95 67.2 78.930078125 67.15703125 78.85 67.1 78.7314453125 67.0603515625 78.65 66.95 78.6416015625 66.8853515625 78.6 66.8
L 79.3 66.75
Q 79.4103515625 66.75078125 79.45 66.7 79.5365234375 66.6384765625 79.55 66.55 79.604296875 66.27734375 79.55 66 80.1859375 65.5951171875 80.45 64.7 80.5138671875 64.649609375 80.5 64.55 80.47109375 64.497265625 80.4 64.45
L 79.05 63.5
Q 79.9525390625 63.004296875 80.65 62.05 80.9884765625 61.6271484375 81.35 61.3
L 81.35 61.25
Q 81.902734375 60.75625 82.3 59.95 82.7919921875 59.0875 83 58.2 83.0076171875 58.13671875 82.95 58.05 82.95390625 58.001171875 82.9 57.95 82.856640625 57.9146484375 82.8 57.85 82.89453125 57.911328125 82.95 57.9 83.0462890625 57.89765625 83.1 57.85 83.1705078125 57.8005859375 83.2 57.7
L 83.45 56.75
Q 83.46328125 56.6865234375 83.4 56.6
L 81.6 52 84.15 50.8
Q 84.2111328125 50.8009765625 84.25 50.75 84.2916015625 50.6931640625 84.3 50.6
L 84.4 49.25
Q 84.4087890625 49.1771484375 84.35 49.1 84.2927734375 49.01953125 84.2 49 83.2615234375 48.8603515625 82.2 48.5
L 82.25 48.5
Q 82.2169921875 48.4931640625 82.15 48.45
L 81.8 48.55 81.85 48.45 81.7 48.6
Q 81.7966796875 48.3091796875 82.15 48.45
L 84.15 47.85
Q 84.2556640625 47.8119140625 84.3 47.7 84.3548828125 47.656640625 84.35 47.55
L 84.25 46.65
Q 84.2419921875 46.60625 84.2 46.55 84.1609375 46.4978515625 84.1 46.45 84.0267578125 46.4443359375 83.95 46.45
L 80.9 46.9
Q 80.803515625 46.61015625 80.7 46.3 80.6587890625 45.7310546875 80.8 45.25
L 80.75 45.25
Q 81.0380859375 44.5861328125 80.45 44 80.4224609375 43.9681640625 80.35 43.95 80.021484375 43.8923828125 79.8 43.95
L 79.85 43.95
Q 79.1875 44.0486328125 78.5 44.25 77.821875 44.4470703125 77.25 44.25 77.8306640625 44.14921875 78.4 43.9 79.0271484375 43.6646484375 79.55 43.3 80.210546875 42.8482421875 80.5 42.05 80.5392578125 42.06953125 80.55 42.05
L 80.6 42.1
Q 81.776953125 42.304296875 82.5 42.2
M 81.7 47.65
Q 81.6515625 47.6494140625 81.6 47.65 81.7302734375 47.579296875 81.9 47.55
L 81.9 47.55
Q 81.8150390625 47.5953125 81.7 47.65
M 81.75 48.9
Q 81.6880859375 48.91640625 81.6 48.9
L 81.7 48.75
Q 81.7177734375 48.837890625 81.75 48.9
M 83.2 49.8
L 82.8 49.95
Q 82.6509765625 49.913671875 82.65 49.7 82.9123046875 49.753125 83.2 49.75 83.290234375 49.7529296875 83.35 49.75 83.2900390625 49.780078125 83.2 49.8
M 81.6 50.05
L 81.2 50.55
Q 81.03203125 50.3763671875 81.05 50 81.2720703125 49.8716796875 81.4 49.85 81.5353515625 49.906640625 81.6 50.05
M 81.75 58.85
L 81.25 59.75 80.45 58 81.75 58.85
M 63.1 23.2
Q 62.4451171875 21.703515625 63.25 20.4 64.1322265625 22.991796875 64.4 25.75
L 64.4 25.8
Q 64.2287109375 25.59375 64.1 25.4 63.5654296875 24.276171875 63.1 23.2
M 66.6 19.7
Q 66.6625 19.7498046875 66.7 19.75 67.3048828125 22.4265625 67.55 23.2 67.5796875 23.3541015625 67.6 23.5 67.696484375 24.88828125 67.3 26.05 66.34765625 26.2998046875 65.5 26
L 64 19.95
Q 65.2955078125 19.1611328125 66.6 19.7
M 68.25 23.9
L 68.35 22.2
Q 68.349609375 22.14375 68.3 22.05
L 68.3 19.9 70.4 23.05
Q 70.7380859375 24.1166015625 70.1 24.9 69.4494140625 25.74765625 68.45 25.8
L 68.25 23.9
M 41.1 20.6
Q 41.2673828125 20.6150390625 41.4 20.65 41.633984375 20.80390625 41.8 20.9
L 41.5 21.15 41.05 21.3 41.05 21.25
Q 40.8548828125 20.869921875 41.1 20.6
M 41.1 23.65
Q 41.0740234375 22.6900390625 41.85 22.2 43.20625 21.4068359375 44.65 22.25 45.091015625 22.5296875 45.35 22.45 45.7140625 22.449609375 45.85 22 45.8669921875 21.9359375 45.8 21.85 45.7970703125 21.7681640625 45.7 21.7
L 42.6 20
Q 44.510546875 19.241796875 46.6 19.55
L 46.7 20.4
Q 46.7154296875 20.5306640625 46.8 20.6 46.8759765625 20.6625 46.95 20.65 47.0802734375 20.6345703125 47.15 20.55
L 47.9 19.65
Q 49.518359375 19.859375 50.95 20.1
L 50.95 20.1
Q 52.10859375 20.248828125 53.2 20.05
L 53.4 20.2
Q 54.5640625 22.3814453125 54.15 24.8 54.12265625 24.85625 54.05 24.85
L 54 24.85
Q 53.0509765625 25.47578125 52.65 26.35 51.6435546875 28.44921875 51.25 30.6 50.51484375 30.8193359375 50.1 30.7 50.6775390625 29.8044921875 51.15 28.85 51.641015625 28.000390625 51.25 27.3 51.2353515625 27.2126953125 51.15 27.15 51.0630859375 27.141015625 50.95 27.15 50.878125 27.199609375 50.8 27.25 50.52421875 27.836328125 50.25 28.5 49.86640625 29.4984375 49.1 30.25
L 48.5 28.05
Q 49.1845703125 27.7857421875 49.9 27.25 50.90390625 26.41328125 50.9 25.35 50.9587890625 23.15078125 48.85 22.6 48.8125 22.587109375 48.75 22.6 48.6953125 22.61328125 48.65 22.65 48.3984375 22.8359375 48.25 23.15 47.4287109375 25.17890625 47.25 27.6
L 40.3 31.7
Q 40.4025390625 29.9916015625 41.15 28.4 41.215625 28.328125 41.2 28.25 41.17421875 28.160546875 41.1 28.1 41.0345703125 28.0482421875 40.95 28.05 40.8666015625 28.048046875 40.8 28.1 40.5734375 28.274609375 40.45 28.5 39.6595703125 29.3517578125 39.55 30.7
L 39.55 30.75
Q 39.59140625 32.0521484375 38.5 33.1 37.50703125 34.19296875 36.15 34.8 34.8908203125 35.3990234375 33.95 34.45 34.5205078125 34.18359375 34.45 33.55 34.440234375 33.487109375 34.35 33.4 33.9634765625 33.01171875 33.75 33.25 33.6810546875 33.3166015625 33.6 33.4 33.296875 33.1640625 33.15 32.65 33.3568359375 32.0107421875 33.35 31.5
L 33.35 31.45
Q 33.026953125 29.74140625 33.85 28.3 34.3765625 28.419140625 34.9 28.55
L 34.85 28.5
Q 36.1515625 28.962109375 37.35 28.6 39.64375 27.9095703125 40.75 25.95 40.9294921875 26.083984375 41.05 26.2 41.0982421875 26.25234375 41.1 26.25 42.587890625 27.176171875 43.95 27.8
L 43.9 27.8
Q 45.003125 28.390625 46 27.8 46.1162109375 27.7732421875 46.15 27.65 46.1748046875 27.5849609375 46.1 27.5
L 46.05 27.4
Q 46.045703125 27.3439453125 46 27.3 45.9671875 27.2658203125 45.9 27.25 45.424609375 27.1029296875 44.9 27 43.9375 26.712109375 42.95 26.3 41.86328125 25.8302734375 41.35 24.85 41.2501953125 24.25 41.1 23.65
M 48.35 18.65
L 48.35 18.65 48.35 18.65 48.35 18.65
M 48.7 24
L 48.95 23.8
Q 50.201171875 24.2431640625 49.9 25.55
L 49.1 26.4 48.4 26.8 48.7 24
M 49.45 18.85
L 48.65 18.45
Q 49.637109375 17.720703125 50.6 18
L 50.6 17.95
Q 51.3123046875 18.225 51.95 18.45 52.47109375 18.7408203125 52.55 19.05
L 49.45 18.85
M 59.85 27.6
Q 59.8111328125 27.6087890625 59.75 27.6 59.2576171875 27.9052734375 58.65 28.1
L 57.7 28 57.45 27.75
Q 57.5083984375 27.74609375 57.55 27.7
L 57.55 27.7
Q 58.6259765625 27.0509765625 59.85 27.2
L 59.9 27.55
Q 59.8888671875 27.5892578125 59.85 27.6
M 57.6 26.45
Q 57.1451171875 26.6802734375 56.65 26.6 56.6765625 26.5740234375 56.7 26.55
L 56.7 26.5
Q 57.48046875 25.9453125 58.2 26.2
L 57.6 26.45
M 55.85 30.5
L 55.8 30.5
Q 56.182421875 29.5634765625 56.75 28.8 57.99921875 29.2966796875 59.15 29.15 60.0466796875 29.04296875 60.7 28.5 60.767578125 28.448828125 60.8 28.35
L 61.1 27.3 61.85 27.55 62.4 28.65
Q 61.999609375 29.57421875 61.45 30.35 60.8990234375 31 60.45 31.65
L 60.4 31.65
Q 59.9740234375 32.4865234375 59.6 33.4 59.1455078125 34.4078125 59.25 35.55 59.261328125 35.6294921875 59.3 35.65 59.327734375 35.7353515625 59.35 35.75
L 59.9 36.05
Q 59.926171875 36.1818359375 59.95 36.3
L 59.95 36.3
Q 60.1 36.8130859375 60.25 37.4 60.241015625 37.474609375 60.2 37.55 59.5755859375 37.9373046875 58.7 38.15
L 58.7 38.15
Q 58.2 38.3419921875 57.85 38.8 56.6490234375 40.212890625 57.45 41.9
L 57.45 41.9
Q 58.2833984375 43.277734375 59.45 43.6 59.5505859375 43.6109375 59.6 43.55 59.7013671875 43.55625 59.75 43.5 59.797265625 43.4322265625 59.8 43.35 59.797265625 43.26875 59.75 43.2 59.5392578125 42.885546875 59.25 42.6
L 59.25 42.6
Q 58.9939453125 42.426171875 58.75 42 58.7638671875 41.9744140625 58.75 41.95 58.2390625 41.249609375 58.1 40.55 58.1779296875 39.7083984375 58.9 39.15 59.6275390625 38.6439453125 60.5 38.8
L 63.3 42.15
Q 63.35078125 42.218359375 63.4 42.25 63.5 42.272265625 63.55 42.25 63.649609375 42.2181640625 63.7 42.15
L 65.4 39.95 66.85 43.3
Q 66.5392578125 43.5392578125 66.15 43.65 64.1763671875 44.2208984375 62.2 43.1 61.4248046875 42.7017578125 60.95 42 60.15390625 41.031640625 58.8 40.65 58.7494140625 40.6396484375 58.65 40.65 58.5994140625 40.694140625 58.55 40.75 58.075 41.2912109375 58.95 42.1
L 59 42.15
Q 59.6771484375 42.5990234375 60.05 43.35 60.344140625 44.71484375 60.2 46.25
L 60.2 46.3
Q 60.194140625 46.8279296875 59.8 47.15 58.989453125 46.49765625 58.15 45.75 58.151171875 45.7486328125 58.1 45.7 57.845703125 45.558984375 57.4 45.45 57.3236328125 45.4373046875 57.25 45.45 57.183984375 45.505859375 57.15 45.55 57.1005859375 45.644140625 57.1 45.7 57.101953125 45.796484375 57.15 45.85
L 59 48.1 59 48.1
Q 57.3630859375 49.28359375 55.6 48.2
L 54.25 47.4
Q 54.3115234375 47.2845703125 54.35 47.15 54.9275390625 46.0671875 54.7 45.2 54.5107421875 44.2787109375 54.85 43.45 56.4640625 39.927734375 55.6 36.15 55.589453125 36.124609375 55.55 36.1 54.9650390625 34.7482421875 54.85 33.35 56.12890625 33.61328125 57.1 34.25
L 57.1 34.25
Q 57.660546875 34.647265625 58 34.7 58.0935546875 34.7078125 58.15 34.65 58.2640625 34.607421875 58.3 34.5 58.5322265625 33.8189453125 57.7 33.45
L 57.7 33.45
Q 56.6021484375 32.819921875 55.4 32.05 55.6611328125 31.26875 55.85 30.5
M 53.9 26.25
L 54 27.15 53.45 27.45 53.5 27.45
Q 53.2103515625 27.5947265625 53.1 27.55 53.1251953125 27.551953125 53.15 27.45
L 53.15 27.45
Q 53.3294921875 26.834765625 53.8 26.35 53.8720703125 26.3267578125 53.9 26.25
M 52.5 30.45
Q 52.4517578125 30.358203125 52.5 30.15 52.64140625 29.588671875 52.9 29.05 53.2310546875 28.544921875 53.65 28.5
L 53.65 28.55
Q 53.4701171875 29.6689453125 52.6 30.5 52.5412109375 30.516015625 52.5 30.45
M 55.6 28.85
L 55.6 28.85
Q 55.1728515625 30.19921875 54.45 31.4
L 54.45 31.45
Q 54.4125 31.5904296875 54.3 31.6 54.2001953125 31.64609375 54 31.55
L 54.05 31.55 53.5 31.15 55.05 28.3 55.85 28.2
Q 55.7388671875 28.5556640625 55.6 28.85
M 53.5 32.3
L 53.55 32.3 53.5 32.3 53.5 32.3
M 52.05 33.85
Q 52.0552734375 33.914453125 52.05 33.95 52.3873046875 34.5740234375 52.1 35.1
L 52.05 35.1
Q 52.013671875 35.0974609375 51.95 35.1 51.475390625 35.178515625 51.05 34.95
L 49.95 32.3
Q 50.4525390625 31.6244140625 51.3 32 51.9177734375 32.693359375 52.05 33.85
M 51.6 35.9
Q 52.255859375 35.8634765625 52.7 35.95
L 52.85 37.3
Q 52.8091796875 37.3115234375 52.75 37.3
L 52.75 37.3
Q 51.0328125 37.865625 49.15 37
L 48.6 36.6 49.35 34
Q 49.650390625 34.458984375 49.95 34.9 50.6369140625 36.0302734375 51.6 35.9
M 53.4 34.7
L 53.9 34.6
Q 55.1388671875 37.1041015625 54.95 40 54.8240234375 41.2857421875 54.3 42.45 54.1037109375 42.21796875 53.9 41.9 53.901953125 41.8982421875 53.85 41.85 52.7939453125 40.7427734375 51.3 40.05
L 47.85 38.4 48.3 37.55
Q 49.3275390625 38.2935546875 50.45 38.55 52.0935546875 38.971875 53.5 38.2 53.592578125 38.180078125 53.6 38.1 53.7390625 37.87578125 53.75 37.7 54.026171875 36.1859375 53.4 34.7
M 53.3 33.45
L 53.1 34.05
Q 52.83125 33.57421875 52.8 32.9
L 53.3 33.45
M 47.7 28.9
Q 47.959765625 29.6744140625 47.85 30.45 47.7685546875 30.498046875 47.65 30.5
L 47.6 30.5
Q 47.136328125 30.5494140625 46.55 30.55 43.5458984375 30.5990234375 41.45 32.8
L 41.45 32.85
Q 40.9453125 33.4806640625 40.75 34.2 40.65546875 33.6427734375 40.65 32.95 40.7068359375 32.9013671875 40.75 32.8 43.475 31.175 46.05 29.6 46.7376953125 29.212890625 47.35 28.75
L 47.3 28.75
Q 47.4794921875 28.6564453125 47.55 28.65 47.6001953125 28.792578125 47.7 28.9
M 43.5 32.25
Q 44.2533203125 31.8900390625 45.15 31.65 46.5287109375 31.3544921875 47.85 31.55
L 46.15 34.4
Q 46.1349609375 34.4953125 46.15 34.55 46.3021484375 35.7783203125 46.9 36.8 47.223828125 37.3412109375 46.95 37.8 45.4794921875 37.4978515625 44.25 36.65 44.22578125 36.636328125 44.2 36.6
L 41.55 35.35
Q 41.487890625 34.7568359375 41.75 34.05 42.28984375 32.7916015625 43.5 32.25
L 43.5 32.25
M 42.45 36.95
L 42.45 36.95
Q 44.0501953125 37.6751953125 45.85 38.5
L 45.8 38.5
Q 46.132421875 38.6890625 46.2 38.95 46.00234375 39.399609375 45.75 39.9
L 45.75 39.9
Q 45.5640625 40.5138671875 45.05 40.4
L 43 38.3 42.1 36.85
Q 42.3001953125 36.9130859375 42.45 36.95
M 49.25 31.55
Q 49.3048828125 31.60859375 49.3 31.65
L 49.3 31.65 49.3 31.7 49.25 31.7 49.25 31.7 49.2 31.7
Q 49.2484375 31.7490234375 49.25 31.75 49.2560546875 31.812109375 49.25 31.85 49.18671875 31.8927734375 49.2 31.7 49.244921875 31.66484375 49.25 31.55
M 49.3 31.75
L 49.3 31.75 49.35 31.8 49.3 31.75
M 48.05 34.3
L 48.05 34.35
Q 47.83125 35.2625 47.45 35.75 46.856640625 34.823046875 47.5 33.7 47.99609375 32.8779296875 48.55 32.45 48.345703125 33.3509765625 48.05 34.3
M 41.25 43.05
L 41.25 43.05
Q 39.4232421875 42.01484375 38.3 40.25 37.7470703125 39.3865234375 37.05 39.15 36.985546875 39.136328125 36.9 39.15 36.8087890625 39.224609375 36.75 39.3 36.736328125 39.4134765625 36.75 39.5
L 36.95 39.9 35.75 39.1
Q 35.7251953125 39.08671875 35.7 39.05 35.3876953125 38.9130859375 35.4 38.65
L 35.4 38.6
Q 35.3521484375 37.8095703125 35.3 37.2
L 35.3 37.15
Q 35.3435546875 36.7830078125 35.35 36.4 37.137890625 35.719921875 38.75 34.45 39.178515625 34.13828125 39.65 33.8 39.76484375 34.1904296875 39.8 34.65
L 39.8 34.65
Q 39.5029296875 34.6486328125 39.25 34.65 39.019921875 34.6533203125 38.65 34.75 38.5771484375 34.79765625 38.5 34.85 38.4771484375 34.958203125 38.5 35.05 38.573046875 35.351171875 38.8 35.5 38.82421875 35.515234375 38.85 35.5 39.7078125 35.866015625 40.45 36.1 42.333203125 39.439453125 45.05 41.9 45.15 41.9974609375 45.25 42 45.3515625 41.9966796875 45.4 41.9 46.6546875 40.692578125 47.4 39.25 50.1375 40.6373046875 52.8 42.1
L 52.8 42.1
Q 53.62265625 42.6189453125 53.65 43.35 53.0951171875 43.0318359375 52.35 42.8 50.034765625 42.1845703125 47.85 43.1 47.4 43.325 46.95 43.5 46.23046875 43.7896484375 45.6 43.7 44.174609375 43.4486328125 42.8 43.4 42.0015625 43.4015625 41.25 43.05
M 44.5 45.8
Q 44.6212890625 45.7646484375 44.65 45.65 44.7216796875 45.5935546875 44.7 45.5 44.679296875 45.406640625 44.6 45.35
L 43.5 44.5 46.05 44.75
Q 45.5462890625 45.8263671875 45 47 44.6099609375 48.0232421875 44.4 49.2
L 44.4 49.2
Q 44.052734375 51.9671875 45.6 54.25
L 42.5 57.45
Q 42.489453125 57.5185546875 42.45 57.55 42.442578125 57.631640625 42.35 57.65 42.287109375 57.710546875 42.25 57.75
L 42.2 57.8
Q 42.1568359375 57.3974609375 42.35 56.75
L 42.4 56.75
Q 43.016015625 54.6146484375 42.5 52.3
L 42.45 52.25
Q 41.9736328125 50.801171875 41.05 49.55 40.8630859375 49.2154296875 40.55 48.95
L 40.5 48.9
Q 39.9955078125 48.230859375 39.95 47.35
L 39.95 47.3
Q 39.7068359375 46.034765625 39.5 44.75
L 39.6 44.5
Q 40.417578125 44.1775390625 41.3 44.45
L 41.3 44.45
Q 42.4072265625 44.903125 43.3 45.45 43.892578125 45.98515625 44.5 45.8
M 48.2 44.05
Q 48.22578125 44.0388671875 48.25 44 50.3083984375 43.16015625 52.15 43.75
L 52.15 43.8
Q 52.7798828125 43.9830078125 53.1 44.4
L 52.9 44.65 48.6 44.25
Q 48.36640625 44.1822265625 48.2 44.05
M 46.95 45.2
Q 47.5318359375 45.2 47.95 45.2 49.8763671875 45.243359375 51.6 45.9
L 50.85 47.8
Q 50.8380859375 47.9 50.85 48 51.604296875 49.8916015625 50.6 51.55 49.6203125 51.9390625 48.6 52.25
L 48.65 52.25
Q 47.4810546875 52.5416015625 46.45 53.3 45.028515625 52.1869140625 45.25 50.3
L 45.25 50.3
Q 45.2447265625 49.2357421875 45.6 48.05
L 45.65 48.05
Q 45.9369140625 46.8052734375 46.75 45.8 46.787109375 45.7552734375 46.8 45.7 46.8134765625 45.65 46.8 45.6 46.7671875 45.38046875 46.95 45.2
M 53.2 46.25
Q 53.1365234375 45.78203125 53.7 45.55 53.812890625 45.7458984375 53.8 45.95
L 53.8 45.95
Q 53.6970703125 46.3875 53.55 46.5 53.4814453125 46.5701171875 53.35 46.5 53.296484375 46.37109375 53.2 46.25
M 52.75 47.75
L 52.1 48.9
Q 52.0279296875 48.7517578125 51.95 48.55 51.95234375 48.2771484375 52 48.05
L 52 48
Q 52.069921875 47.3150390625 52.55 47.1
L 52.75 47.75
M 53.85 48.2
Q 54.7365234375 48.951953125 55.6 49.25 56.522265625 49.596484375 57.5 49.55 58.7541015625 49.4572265625 59.95 48.95 59.9826171875 48.9755859375 60 49 59.946484375 49.1998046875 59.95 49.4 59.9451171875 49.4375 59.95 49.45 60.05 49.8126953125 60.15 50.2 60.160546875 50.225 60.15 50.25 60.3591796875 50.6638671875 60.25 51.05 59.13671875 51.5541015625 58 52.05 55.8375 53.149609375 53.35 53.55
L 53 53.4
Q 53.1248046875 53.20390625 53.25 53.05
L 53.25 53
Q 53.474609375 52.675390625 53.6 52.4
L 53.6 52.4
Q 54.084375 51.686328125 54.25 51 54.381640625 50.7193359375 54.15 50.35 54.126171875 50.310546875 54.05 50.25 53.9158203125 50.19921875 53.7 50.25 53.5966796875 50.2130859375 53.5 50.15 53.453515625 50.11640625 53.4 50.1 53.2296875 50.06953125 53.1 49.95
L 53.1 49.95
Q 52.9861328125 49.8646484375 52.85 49.75
L 53.85 48.2
M 76.65 29.45
Q 76.6990234375 29.454296875 76.7 29.4
L 76.45 32.05
Q 75.79296875 30.9306640625 74.5 30.2 74.466015625 30.1947265625 74.4 30.2 74.3328125 30.2076171875 74.25 30.25 73.025 31.0375 71.75 31.75
L 71.75 31.8
Q 71.40546875 32.0576171875 70.95 32.1 68.5984375 32.4546875 67.05 30.85 67.9619140625 30.142578125 69.1 29.85 72.161328125 29.1615234375 75.15 29.65
L 75.15 29.65
Q 75.9947265625 29.75546875 76.65 29.45
M 74.95 32.6
L 74.9 32.6 73.15 32.8
Q 73.1501953125 32.809765625 73.1 32.8 72.6630859375 32.97265625 72.1 32.8 72.45703125 32.519921875 72.7 32.3
L 72.7 32.25
Q 73.7404296875 31.35078125 74.95 31.45 75.50546875 32.1884765625 75.65 33 75.623046875 33.167578125 75.55 33.25 75.4833984375 33.0591796875 75.35 32.85 75.3548828125 32.80859375 75.3 32.75 75.1404296875 32.588671875 74.95 32.6
M 72.4 37
L 72.15 37.05 70.05 35.6 69.5 35
Q 69.7634765625 34.7005859375 70 34.4
L 70 34.4
Q 70.6712890625 33.562890625 71.85 33.7 73.1537109375 33.7876953125 74.5 33.8 74.415625 33.9603515625 74.3 34.1 74.2841796875 34.12265625 74.25 34.15 73.5037109375 35.7916015625 72.4 37
M 77.65 34.9
Q 78.27109375 35.3728515625 78.7 35.8 79.73203125 36.8767578125 79.5 38.25
L 79.5 38.25
Q 79.45546875 38.6705078125 79.4 38.75 79.3921875 38.7037109375 79.25 38.5
L 77.65 34.9
M 75.35 36.9
Q 75.47734375 35.577734375 76.4 34.55 77.734375 36.976953125 78.45 39.6 78.3953125 39.8935546875 78.25 40.15
L 78.25 40.15
Q 78.175 40.475 78.05 40.75 78.0056640625 40.9625 78 41.15 78 41.2328125 78.05 41.3 78.22421875 41.5357421875 78.4 41.65 78.435546875 41.6662109375 78.45 41.65 78.7591796875 41.7751953125 78.95 41.85 78.9740234375 41.8900390625 79 41.9 79.1287109375 41.9298828125 79.25 41.95
L 79.4 42.3
Q 79.3328125 42.6359375 78.95 42.75
L 78.95 42.75
Q 77.7203125 43.341796875 76.35 43.25
L 76.3 43.25
Q 76.1583984375 43.2048828125 75.95 43.1
L 75.95 43.1
Q 75.6015625 42.9052734375 75.6 42.5
L 75.6 42.45
Q 75.1533203125 39.637890625 75.35 36.9
M 69.55 27
L 68.45 27.65 68.5 27.2 69.5 26.75 69.5 26.75
Q 69.5763671875 26.7390625 69.6 26.7
L 69.6 26.75 69.6 26.8
Q 69.64921875 26.8693359375 69.65 27 69.61171875 27.00703125 69.55 27
M 67.15 28.5
L 66.65 28.45 65.65 27.3 67.45 27.25
Q 67.5578125 27.98046875 67.15 28.5
M 63.1 29.8
L 63 29.85 63.5 28.6
Q 63.5640625 28.5267578125 63.55 28.45 63.5 28.25 63.45 28.05 63.4349609375 27.9951171875 63.4 27.95 63.1033203125 27.57109375 62.85 27.35 63.620703125 27.2314453125 64.15 27.35
L 63.6 29.4 63.1 29.8
M 64.75 29.55
Q 65.0171875 28.9880859375 65.25 28.45 65.29296875 28.391015625 65.35 28.35
L 66.15 29.05 64.75 29.55
M 62.3 31.4
L 62.35 31.4
Q 62.533203125 31.2267578125 62.75 31.15 62.500390625 32.25625 61.7 33.15
L 61.65 33.15 61.05 33.6
Q 61.5921875 32.455078125 62.3 31.4
M 65.2 35.75
Q 64.916796875 35.5328125 64.7 36 64.68671875 36.099609375 64.7 36.2
L 65.35 37.8
Q 64.878515625 39.841796875 63.3 41.05
L 62.5 40
Q 62.4888671875 39.9732421875 62.45 39.95 61.759765625 39.3345703125 61.75 38.5 61.7953125 36.9314453125 61.2 35.4 62.790625 33.7650390625 63.75 31.55 64.39609375 30.18515625 65.6 30.65
L 67.9 35.05 67.4 35.55
Q 67.2048828125 35.401171875 67.15 34.95 67.140234375 34.9494140625 67.1 34.9 66.86328125 34.1921875 66.05 34.25 66.0060546875 34.2576171875 65.95 34.3 65.898046875 34.338671875 65.85 34.4 65.703515625 34.7876953125 65.75 35.15
L 65.75 35.2
Q 65.6955078125 35.90390625 65.7 36.5 65.6455078125 36.373046875 65.6 36.2
L 65.55 36.2
Q 65.39296875 35.807421875 65.2 35.75
M 69.5 33.45
Q 69.2318359375 33.789453125 68.8 34 68.6412109375 34.1341796875 68.5 34.1 68.3466796875 34.0416015625 68.2 33.8
L 68.2 33.85 67.6 32.4 69.5 33.45
M 66.4 35.8
L 66.45 35.8 66.8 36.55 66.75 36.55 66.4 35.8
M 70.4 37.1
L 70.4 37.15
Q 71.05859375 37.68828125 71.75 38.1 71.749609375 38.1509765625 71.7 38.2 71.4650390625 38.830078125 70.65 39.15 69.029296875 39.108203125 68.15 38.05 67.56796875 36.77265625 68.5 35.75 69.5646484375 36.3173828125 70.4 37.1
M 66.5 38.45
L 66.8 38.35
Q 67.84609375 39.9044921875 67.45 41.85
L 67.3 41.75 67.25 41.7
Q 66.1712890625 40.334375 66.5 38.45
M 68.25 42.7
Q 68.3462890625 42.2841796875 68.3 41.8
L 68.3 41.75
Q 68.3900390625 40.6076171875 68.55 39.55 69.952734375 40.24609375 71.25 40.05 71.3580078125 40.04375 71.4 40
L 74.2 37.55 74.6 43.45
Q 73.501953125 43.3892578125 72.15 43.3 71.2748046875 43.2498046875 70.3 43.15 69.286328125 43.060546875 68.8 43.7
L 68.25 42.7
M 64.3 48.45
L 64.3 48.45
Q 62.873046875 47.9677734375 61.2 47.95
L 60.65 47.75
Q 61.393359375 45.857421875 61.15 43.7 62.974609375 44.6671875 65 44.8 66.639453125 44.9435546875 67.85 43.9 68.39453125 44.8259765625 68 45.75
L 67.3 46.45
Q 67.2740234375 46.5296875 67.25 46.6 67.2341796875 46.6505859375 67.25 46.7 67.2951171875 46.870703125 67.3 47 67.300390625 47.0822265625 67.35 47.15 68.0328125 48.0798828125 67.75 48.8 66.4916015625 49.0197265625 65.05 48.65
L 65.05 48.65
Q 64.6626953125 48.55 64.3 48.45
M 61.9 48.9
Q 62.155859375 48.831640625 62.5 48.95 64.2990234375 49.5017578125 66.2 49.75 67.483984375 49.94375 68.65 49.7 68.665234375 49.7505859375 68.65 49.75
L 68.65 49.8
Q 68.772265625 50.0568359375 68.6 50.35 68.6095703125 50.373828125 68.6 50.4 68.3107421875 51.6240234375 67.8 52.75 67.5431640625 53.4056640625 67.05 53.85
L 67.05 53.9
Q 66.634765625 54.419921875 66.3 55.15 66.3099609375 55.1748046875 66.3 55.2 66.1880859375 55.7123046875 65.65 55.85
L 61.7 51.25 61.65 50.8
Q 61.6443359375 50.7861328125 61.6 50.75
L 61 49.35
Q 61.1982421875 49.4380859375 61.3 49.75
L 61.3 49.7
Q 61.459765625 50.2513671875 61.7 50.7 61.7716796875 50.7921875 61.85 50.8 61.921484375 50.8609375 62 50.85 62.0728515625 50.8333984375 62.1 50.75 62.1828125 50.7240234375 62.2 50.65 62.35703125 49.9060546875 61.9 48.9
M 69.5 44.3
Q 69.8126953125 44.1234375 70.15 44.05 72.5103515625 43.9533203125 74.7 44.15 75.8734375 44.226953125 76.25 45.2 76.3388671875 47.5203125 75.8 49.55
L 74.35 49.15 73.1 46.8
Q 73.0912109375 46.75859375 73 46.7 72.9537109375 46.689453125 72.85 46.7 72.7904296875 46.71640625 72.7 46.75
L 69.7 49.45 69.45 49.3
Q 69.29921875 48.95546875 69.3 48.6 69.3052734375 48.562109375 69.3 48.5 69.1697265625 48.105078125 69.2 47.7 69.590234375 46.190234375 69.5 44.3
M 68.5 46.75
L 68.35 47.5
Q 68.2443359375 47.248828125 68.1 47
L 68.5 46.75
M 79.2 40.8
L 79.2 40.85
Q 79.1380859375 40.894921875 79.05 40.85
L 79.05 40.8
Q 79.089453125 40.789453125 79.1 40.75
L 79.15 40.75
Q 79.18046875 40.76953125 79.2 40.75
L 79.2 40.8
M 78.2 49.25
L 78.2 49.25 77.65 49.5 77.3 45.2 79.85 44.85
Q 79.8580078125 45.6232421875 79.9 46.5
L 79.9 46.55
Q 79.9962890625 47.066796875 80 47.5
L 80 47.55
Q 79.8697265625 48.80703125 78.2 49.25
M 40.15 17.2
L 39.95 17.95
Q 39.7857421875 17.6689453125 39.7 17.35 39.920703125 17.2509765625 40.15 17.2
M 30.75 21.3
Q 30.76015625 21.2228515625 30.7 21.15 31.8544921875 23.0369140625 32.1 25.1 31.62109375 24.4748046875 31.2 23.7
L 31.2 23.7
Q 30.4669921875 22.638671875 30.75 21.3
M 36.4 24.1
Q 37.9984375 22.3744140625 40.05 21.2 40.079296875 21.4431640625 40.05 21.65 40.04765625 21.7 40.05 21.7 40.1451171875 22.8853515625 39.95 23.9 39.8376953125 24.386328125 39.95 24.9 39.7869140625 25.882421875 39.05 26.55
L 39 26.55
Q 38.587109375 26.9140625 38.15 27.3
L 38.1 27.3
Q 36.720703125 28.3427734375 35.25 27.55
L 35.25 27.6 34.35 27
Q 34.38984375 27.0021484375 34.4 26.95 34.5298828125 26.5193359375 34.75 26.2 35.4400390625 25.1625 36.4 24.1
M 19.55 35.7
Q 19.4513671875 34.8267578125 19.9 34.1 21.23125 34.01484375 21.65 33.35 21.6966796875 33.2783203125 21.7 33.2
L 22.75 35.15
Q 21.853125 35.3296875 20.95 35.65
L 20.9 35.65
Q 20.1810546875 36.0716796875 19.55 35.7
M 30.7 25.05
Q 30.64765625 24.9125 30.55 24.75 30.484765625 24.4533203125 30.45 24.15
L 31.05 25.2 30.7 25.05
M 30.85 26.3
L 30.85 26.35
Q 31.8861328125 26.6580078125 32.15 27.6 32.1392578125 27.6724609375 32.1 27.7 31.762109375 28.7748046875 31.45 29.85
L 31.45 29.9
Q 31.2947265625 30.786328125 31.4 31.7 31.41015625 31.79296875 31.45 31.85 31.48984375 31.89921875 31.55 31.9 31.6591796875 31.9751953125 31.8 32 31.8869140625 32.05703125 31.95 32.05 32.0216796875 32.029296875 32.05 31.95
L 32.15 31.85 32.1 33.05
Q 31.16875 33.0068359375 30.2 32.7
L 30.2 32.7
Q 29.7 32.587890625 29.2 32.7 27.7357421875 32.9359375 26.1 33.25
L 25.25 31.65
Q 25.5 31.424609375 25.6 31
L 25.6 31.05
Q 26.06328125 30.237890625 26.6 29.45
L 26.6 29.4
Q 27.4517578125 28.063671875 29.35 28.25
L 29.4 28.25
Q 29.8462890625 28.2443359375 30.05 28.1 30.401171875 27.963671875 30.35 27.6 30.333984375 27.5173828125 30.25 27.45 30.025 27.2849609375 29.8 27.15 29.7763671875 27.157421875 29.75 27.15 28.0560546875 26.8650390625 26.25 27.45
L 26 26.55
Q 26.074609375 26.5322265625 26.15 26.5 27.5865234375 26.1498046875 29.15 25.4 29.530859375 25.5791015625 29.65 25.9 29.7021484375 25.9578125 29.75 26 30.0697265625 26.26796875 30.5 26.4 30.5740234375 26.457421875 30.65 26.45 30.721484375 26.4302734375 30.75 26.35 30.8009765625 26.35 30.8 26.3
L 30.85 26.3
M 32.2 31.4
Q 32.1798828125 31.1869140625 32.15 31 32.156640625 30.57890625 32.25 30.15
L 32.2 31.4
M 31.8 34
L 31.75 34
Q 31.9009765625 34.0916015625 31.9 34.2 31.6251953125 34.40625 31.3 34.55 30.7369140625 34.925 30.05 35.25 29.0548828125 35.7423828125 27.8 35.6 27.6173828125 35.5212890625 27.45 35.35
L 27.45 35.35
Q 27.145703125 35.133984375 26.85 34.85 26.8076171875 34.62109375 26.75 34.4 29.1560546875 32.8166015625 31.8 34
M 31.75 35.4
Q 31.8388671875 35.6111328125 31.9 35.8 32.122265625 36.63359375 32.7 37.2 33.4861328125 37.9875 34.2 38.9 34.20078125 39.4455078125 33.65 39.8 32.646484375 40.4099609375 31.3 40.8
L 31.3 40.8
Q 30.5599609375 41.086328125 29.75 40.7 29.7015625 40.7017578125 29.65 40.7
L 28.35 40.7 27.55 40.4 27.85 40.25
Q 27.9365234375 40.2228515625 27.95 40.15 28.002734375 40.11640625 28 40.05
L 28 36.4
Q 28.2677734375 36.4927734375 28.5 36.45 30.1388671875 36.1185546875 31.75 35.4
M 34.1 35.7
L 34.1 35.7
Q 34.483203125 35.8609375 34.45 36.2
L 34.3 37.6 34.05 37.4 34.05 37.4
Q 32.76328125 36.2134765625 32.85 34.85 33.36875 35.41875 34.1 35.7
M 21.1 37.05
L 21.75 36.9
Q 22.6345703125 39.5208984375 25.25 40.45 25.1642578125 40.45 25.05 40.45
L 25 40.45
Q 24.3638671875 40.49453125 23.65 40.2
L 21.1 37.05
M 25.25 34.85
Q 25.1953125 34.8134765625 25.15 34.75 25.4255859375 34.7494140625 25.65 34.9
L 25.35 34.9
Q 25.3 34.875 25.25 34.85
M 23.85 36.75
L 23.9 36.75
Q 25.2138671875 36.473828125 26.5 36.95
L 27.05 39.4
Q 25.200390625 39.445703125 23.75 38.25
L 23.75 38.25
Q 23.4046875 37.8552734375 23.1 37.45 23.0927734375 37.33671875 23.05 37.25
L 23.2 36.95
Q 23.5197265625 36.78359375 23.85 36.75
M 26.4 43
Q 26.5326171875 43.1353515625 26.75 43.3 26.774609375 43.3140625 26.8 43.3
L 27.2 48.15 26.85 48.4
Q 26.60859375 48.397265625 26.35 48.3 24.8673828125 47.780859375 23.7 46.8
L 23.75 46.8 22.75 45.7 24.5 42.85 25.1 42.7
Q 25.44765625 42.979296875 25.75 42.9 26.2189453125 42.819921875 26.4 43
L 26.4 43
M 28.8 42.05
Q 28.8259765625 42.0076171875 28.8 41.9 29.7197265625 41.769140625 30.6 41.7
L 29.6 44.5
Q 29.3744140625 44.038671875 29.15 43.55 28.9140625 42.9837890625 29.1 42.35 29.1640625 42.2861328125 29.1 42.2 29.0759765625 42.1087890625 28.95 42.05 28.88671875 42.0359375 28.8 42.05
M 28.45 42.2
L 27.9 42.45 24.45 41.45 24.3 41.2
Q 26.4552734375 41.0615234375 28.2 42.1
L 28.2 42.1
Q 28.3443359375 42.196875 28.45 42.2
M 22.25 41.65
L 22.3 41.65 21.45 41.75
Q 21.792578125 41.3779296875 22.4 41.2 22.7314453125 41.132421875 22.9 41.2 22.9783203125 41.29296875 23 41.4
L 22.25 41.65
M 23.5 42.7
Q 23.5001953125 42.746484375 23.5 42.8 23.1578125 44.1173828125 22 45.05
L 21.25 43 23.5 42.7
M 20.45 43.85
Q 21.0974609375 44.8869140625 21 45.8
L 20.45 46.2 19.65 43.6 20.3 43.4
Q 20.373828125 43.5884765625 20.4 43.75 20.4138671875 43.82890625 20.45 43.85
M 20.85 47
Q 21.226953125 46.6337890625 21.8 46.6 23.9443359375 48.4333984375 26.25 49.4 26.2986328125 49.4455078125 26.35 49.45
L 27.2 49.5
Q 28.1935546875 50.6216796875 28.65 51.75
L 28.7 51.75
Q 29.519140625 53.05078125 31.1 53.65 31.0505859375 53.716015625 31.05 53.8 31.05078125 53.9025390625 31.1 53.95 31.4458984375 54.2984375 31.9 54.65
L 31.55 57.5
Q 31.517578125 57.5556640625 31.45 57.6
L 31.4 57.6
Q 30.519140625 58.519140625 29.4 58.8 28.3205078125 59.1548828125 27.35 58.55
L 30.15 56.7
Q 30.2255859375 56.655859375 30.25 56.55 30.269140625 56.4849609375 30.2 56.4 30.18515625 56.315234375 30.1 56.25 30.0146484375 56.2306640625 29.9 56.25
L 29.45 56.35
Q 29.686328125 55.636328125 29.8 54.9
L 29.8 54.85
Q 29.8419921875 54.2482421875 30.15 53.8 30.1919921875 53.7431640625 30.2 53.65 30.20546875 53.609375 30.15 53.55 30.101171875 53.4005859375 30 53.3 29.9912109375 53.2951171875 29.95 53.25 29.2861328125 52.9412109375 28.8 53.4 28.7693359375 53.477734375 28.75 53.55 28.741796875 53.6138671875 28.75 53.65 28.79609375 53.75 28.85 53.8 28.9685546875 53.886328125 29 54 29.0443359375 54.7310546875 28.95 55.5 28.4064453125 56.4826171875 27.6 56.95 27.1265625 54.0470703125 26 51.3 25.62421875 49.6298828125 24.2 48.85 24.14140625 48.8302734375 24.05 48.85 23.9576171875 48.8732421875 23.9 48.95
L 22.8 50.4 22.6 50.05
Q 22.590234375 49.9859375 22.5 49.95
L 22.25 49.8
Q 22.276171875 49.726171875 22.25 49.65 22.242578125 49.3234375 22.1 49.1 22.1048828125 49.05859375 22.05 49 21.1751953125 48.12421875 20.85 47
M 28.65 44.5
Q 28.6662109375 44.6087890625 28.7 44.75 28.7298828125 46.1396484375 28 47.2 28 47.1515625 28 47.1
L 28 47.05
Q 27.5771484375 45.2279296875 27.85 43.75
L 28.65 44.5
M 39.65 43
L 39.6 43
Q 39.8267578125 43.166015625 40.05 43.35
L 39.7 43.45
Q 39.5693359375 43.4341796875 39.5 43.35 39.5009765625 43.120703125 39.5 42.95 39.59609375 42.960546875 39.65 43
M 38.35 42.35
L 38.7 43.1
Q 38.646875 43.2546875 38.55 43.4 38.36171875 43.9234375 38.2 44.55
L 38.2 44.5
Q 38.0748046875 44.9404296875 37.85 45.5 35.9908203125 46.59296875 34.1 47.35
L 34.1 47.35
Q 32.2642578125 48.06328125 31.55 49.5 31.531640625 49.5720703125 31.55 49.65 31.5865234375 49.8060546875 31.55 50 31.52890625 50.0923828125 31.55 50.15 31.8810546875 50.7068359375 31.75 51.55
L 31.75 51.55
Q 31.6638671875 52.2923828125 32 52.6
L 31.3 52.75
Q 31.19296875 52.7427734375 31.05 52.6
L 31.05 52.6
Q 30.5689453125 52.2146484375 30 51.8
L 28.55 48.65
Q 30.4189453125 45.461328125 31.35 41.95 34.81875 41.1013671875 38.35 42.35
M 35.35 40.85
L 35.4 40.85 34.4 40.5
Q 34.4876953125 40.4427734375 34.55 40.35
L 34.55 40.3
Q 34.7978515625 39.9494140625 34.95 39.5
L 36.85 40.95 35.35 40.85
M 32.8 49.45
Q 32.84609375 49.4111328125 32.85 49.35
L 38.45 46.35
Q 39.1736328125 47.656640625 38.95 49.05 38.5728515625 50.727734375 37.45 51.9 37.44609375 51.959765625 37.4 52 37.3755859375 52.0974609375 37.3 52.15
L 37.25 52.15
Q 35.1498046875 51.3740234375 33 50.25 32.8638671875 50.12109375 32.65 49.95 32.65 49.8640625 32.65 49.8 32.7267578125 49.604296875 32.8 49.5 32.81328125 49.4751953125 32.8 49.45
M 39.55 49
Q 39.555078125 48.9884765625 39.55 48.95 40.6986328125 50.608203125 41.3 52.5 41.3197265625 52.5650390625 41.35 52.6 41.5330078125 52.86328125 41.5 53.1 41.494140625 53.1623046875 41.5 53.2 41.937890625 55.886328125 41.2 58.45 40.949609375 59.2859375 40.75 60.3 40.7365234375 60.3775390625 40.75 60.45 40.80625 60.53046875 40.85 60.55 40.945703125 60.6130859375 41 60.6 41.1111328125 60.5857421875 41.15 60.5
L 43.75 57.9
Q 43.66171875 58.8083984375 43.25 59.45
L 43.25 59.45
Q 42.2568359375 60.8484375 40.9 61.9
L 37.05 53.75
Q 37.4220703125 53.5443359375 37.9 53.65 39.1013671875 53.9517578125 40.1 54.05 40.1904296875 54.0572265625 40.25 54
L 40.3 54
Q 40.38359375 54.0015625 40.45 53.95 40.5232421875 53.890234375 40.55 53.8 40.60625 53.565234375 40.6 53.45 40.598828125 53.367578125 40.55 53.3 40.5021484375 53.2298828125 40.4 53.2
L 38.3 52.5
Q 38.966796875 51.4427734375 39.3 50.5
L 39.35 50.45
Q 39.5513671875 49.75 39.55 49
M 35.9 53.1
Q 35.7134765625 53.0373046875 35.55 52.75
L 35.55 52.75 35.5 52.65 36.2 53
Q 36.037109375 53.120703125 35.9 53.1
M 35.9 54.3
Q 36.0509765625 54.405859375 36.15 54.5
L 36.15 54.5
Q 37.5681640625 56.3595703125 38.35 58.5
L 33.05 56.15
Q 33.001953125 56.151953125 32.95 56.15 32.8357421875 56.15 32.75 56.15 32.730859375 56.0697265625 32.7 56 32.708984375 55.3392578125 32.85 54.65
L 35.9 54.3
M 32.6 52.8
L 32.65 52.75
Q 32.695703125 52.7091796875 32.7 52.6
L 32.8 51.8 35.15 53.4
Q 33.940234375 54.048046875 32.75 53.45
L 32.6 52.8
M 33.15 57.25
Q 33.49921875 57.233984375 33.85 57.35
L 33.85 57.3
Q 34.9 57.725 36.1 58.15 37.1748046875 58.7146484375 38.25 59.5 39.3646484375 60.267578125 39.25 61.8 39.03359375 62.6669921875 38.65 63.2
L 37.1 63.7
Q 37.046484375 63.7283203125 37 63.8 36.9490234375 63.867578125 36.95 63.95 36.949609375 64.0341796875 37 64.1 37.060546875 64.1728515625 37.15 64.2
L 37.7 64.3
Q 37.3716796875 64.5927734375 36.95 64.85 36.4703125 65.1875 36.1 65
L 34.85 64.05
Q 33.61796875 62.1041015625 33 59.85
L 32.95 59.85
Q 32.40078125 58.4400390625 33.15 57.25
M 31.2 60.3
L 31.15 60.3
Q 30.424609375 60.2330078125 30.2 59.85
L 31.85 58.75
Q 32.109765625 59.547265625 32.1 60.5
L 31.2 60.3
M 24.2 58.65
L 24.15 58.65
Q 24.8373046875 58.4451171875 25.5 58.45 25.78984375 58.45 26.05 58.45 26.4109375 58.8580078125 26.8 59.2
L 26.85 59.25
Q 27.338671875 59.6166015625 27.9 60
L 26.7 61 24.4 59.35 24.35 59.3 24 58.8
Q 24.1130859375 58.719921875 24.2 58.65
M 29.7 60.7
L 29.65 60.7
Q 30.7359375 61.3298828125 32.2 61.5 33.158984375 62.4822265625 33.65 63.7 33.6837890625 63.7271484375 33.7 63.75 34.39453125 64.6181640625 35.1 65.5 33.478125 65.9517578125 31.55 65.55 30.2609375 65.24296875 29.05 65.35 28.989453125 65.3625 28.9 65.4 28.863671875 65.474609375 28.85 65.55 28.835546875 65.64140625 28.85 65.7 28.91875 65.79453125 29 65.8
L 29.7 66.15 30.25 67.95
Q 29.4361328125 68.0369140625 28.45 67.7
L 28.45 67.7
Q 26.75078125 67.2779296875 25.15 66.5 25.0794921875 65.8923828125 24.5 65.7 24.4876953125 65.7060546875 24.45 65.7
L 24.4 65.65
Q 24.353125 65.64921875 24.3 65.65 24.2666015625 65.6484375 24.2 65.65
L 23.3 64.8
Q 23.2609375 64.7609375 23.15 64.75 23.12734375 64.7486328125 23.05 64.75
L 23.2 64.4
Q 24.6115234375 64.3962890625 25.65 63.2 27.2537109375 61.50234375 29.35 60.55 29.5068359375 60.6478515625 29.7 60.7
M 20.65 64.8
Q 21.6087890625 64.6326171875 22.55 64.95 22.6248046875 65.041796875 22.7 65.05 22.814453125 65.1140625 22.9 65.05
L 22.9 65.1 23.2 65.75 20.65 64.8
M 24.05 70.9
Q 23.9765625 70.8900390625 23.9 70.9
L 25.15 68.4
Q 25.7244140625 69.0703125 26.3 69.8
L 26.3 69.8
Q 26.8748046875 70.4251953125 27.4 70.95 27.7978515625 71.34921875 27.7 71.6
L 24.05 70.9
M 38.75 64.5
Q 39.324609375 63.98203125 40.25 63.8
L 40.85 65.05 39.9 65.55
Q 39.83359375 65.6271484375 39.8 65.7 39.7884765625 65.7673828125 39.8 65.8
L 39.5 65.75 38.25 65.75 37.75 65.55
Q 38.2572265625 65.0427734375 38.75 64.5
M 36 67.4
Q 36.054296875 67.3560546875 36.05 67.25 36.039453125 67.18671875 35.95 67.1 35.9115234375 67.059765625 35.8 67.05 35.125 67 34.5 66.95
L 34.5 66.95
Q 33.8283203125 66.9494140625 33.15 66.65 35.1248046875 66.3505859375 37.1 66.35 36.9583984375 66.615625 36.85 66.85 36.4595703125 68.0494140625 36.3 69.25 36.1572265625 71.7259765625 34.55 73.75 33.01484375 72.2837890625 32.25 70.2
L 32.25 70.15
Q 31.9146484375 69.5505859375 31.8 68.8 31.8744140625 68.669140625 31.9 68.55 32.234765625 68.041015625 32 67.7 31.8697265625 67.3974609375 31.15 67.3
L 31.15 67.3
Q 30.9859375 67.3 30.9 67.2 30.8890625 67.1732421875 30.85 67.15 30.787890625 67.081640625 30.75 67 32.65625 67.4751953125 34.7 67.8 35.7021484375 67.9828125 36 67.4
M 37.85 67
Q 37.8951171875 66.996875 37.9 67 37.997265625 67.0990234375 38.1 67.1
L 38.1 67.1
Q 37.9890625 67.7427734375 37.9 68.4
L 37.9 68.45
Q 37.903515625 71.026953125 36.95 73.45
L 36.1 74.3 35.4 74.35
Q 36.196875 73.1236328125 36.6 71.8 37.1974609375 70.23515625 37.15 68.8
L 37.15 68.75
Q 36.9759765625 67.6546875 37.7 67 37.787890625 66.9966796875 37.85 67
M 37.95 78.35
L 37.4 77.65
Q 38.2716796875 75.6595703125 40.65 75.2 41.7185546875 75.0796875 42.5 75.9 42.859765625 76.2607421875 43.05 76.5 43.0830078125 76.5298828125 43.1 76.55 43.9650390625 77.0833984375 44.4 77.95 43.8626953125 79.737890625 42.1 80.55 40.4845703125 80.119921875 39.35 79.25 39.3796875 79.178125 39.35 79.1 39.5435546875 78.5306640625 39.65 78.25 39.7166015625 78.178125 39.7 78.1 39.675 78.0099609375 39.6 77.95 39.534375 77.897265625 39.45 77.9
L 39.4 77.9
Q 39.34765625 77.9009765625 39.3 77.9 39.2431640625 77.9529296875 39.2 78
L 38.5 78.8 38 78.4 37.95 78.35
M 37.8 80.2
Q 37.79140625 80.180859375 37.75 80.15 37.310546875 80.001953125 36.7 80.2
L 36.95 78.7
Q 37.5423828125 79.135546875 38.05 79.6
L 38.1 79.6
Q 38.32421875 79.769921875 38.25 80.05
L 38.25 80.95
Q 37.988671875 80.30390625 37.8 80.2
M 33.6 74.45
L 31.1 75.7
Q 30.2875 73.064453125 31 70.25
L 33.6 74.45
M 79.15 50.6
Q 79.0927734375 50.4109375 79.1 50.1
L 80 50 80.2 51.2 78.5 53.1 77.75 51.1 77.8 51.05 77.85 51.05
Q 78.2705078125 50.8416015625 78.5 51.05 78.5619140625 51.136328125 78.65 51.15 78.7279296875 51.16484375 78.8 51.1
L 78.85 51.1
Q 78.9525390625 51.0990234375 79 51 79.2310546875 50.8205078125 79.2 50.7 79.2005859375 50.646875 79.15 50.6
M 76.45 51.8
Q 76.44921875 51.7890625 76.4 51.75 76.3529296875 51.7181640625 76.3 51.6 76.2962890625 51.5498046875 76.3 51.45 76.3517578125 51.3900390625 76.35 51.3 76.3904296875 51.3896484375 76.4 51.45
L 76.55 51.2
Q 76.5431640625 51.4154296875 76.5 51.6
L 76.5 51.65 76.5 51.65 76.35 51.6
Q 76.4259765625 51.710546875 76.45 51.8
M 76.45 52.1
Q 76.4970703125 52.0572265625 76.5 52 76.5423828125 51.9658203125 76.55 51.9 77.5625 53.7587890625 77.7 55.75
L 74.25 57
Q 73.880859375 56.324609375 74.25 55.5
L 74.3 55.45
Q 74.34765625 55.299609375 74.4 55.25 74.440625 55.255078125 74.5 55.3 74.6005859375 55.3939453125 74.7 55.4 74.840234375 55.411328125 74.95 55.25 75.0029296875 55.2517578125 75 55.2 75.3513671875 54.675390625 75.4 54.1 75.633203125 52.7947265625 76.45 52.1
M 79.4 55.65
L 78.85 54.2
Q 79.283984375 53.7037109375 79.65 53.2
L 79.65 53.15
Q 80.095703125 52.4701171875 80.5 52.55
L 82.6 57.5
Q 81.4091796875 55.8091796875 79.4 55.65
M 74.8 50.5
L 75.45 50.65
Q 75.185546875 51.175390625 74.7 51.5 74.687109375 50.98671875 74.8 50.5
M 73.65 50.65
L 73.65 50.7
Q 73.74453125 51.0685546875 73.75 51.4
L 73.75 51.45
Q 73.548046875 53.02421875 73.3 54.55
L 73.3 54.55
Q 73.0275390625 56.51875 71.8 58.15
L 70.8 57.1 70.8 57.1
Q 69.8203125 56.256640625 69 55 68.994140625 54.8 68.95 54.6
L 69.85 54.35
Q 69.9525390625 54.3208984375 70 54.25
L 70.7 53.3
Q 70.7494140625 53.232421875 70.75 53.15
L 70.75 51.8
Q 71.7626953125 51.1169921875 72.75 50.8
L 72.75 50.8
Q 73.1251953125 50.7041015625 73.5 50.65 73.5689453125 50.6525390625 73.65 50.65
M 74.85 52.25
L 74.8 52.55
Q 74.75390625 52.28359375 74.7 52
L 74.85 52.25
M 73.3 49.65
L 71.6 50.2
Q 71.0998046875 50.3580078125 70.55 50.65
L 70.6 50.65
Q 70.4544921875 50.728515625 70.3 50.65 71.2046875 49.1400390625 72.55 48.05
L 73.3 49.65
M 73.35 57.45
Q 73.359375 57.4203125 73.35 57.35 73.478125 57.3765625 73.5 57.35 73.4736328125 57.3876953125 73.35 57.45
M 73.25 60.15
Q 73.3005859375 60.103125 73.3 60.05 73.3005859375 59.996875 73.25 59.95
L 73.25 59.9
Q 73.2490234375 59.797265625 73.15 59.7 73.1025390625 59.65078125 73 59.65 72.9416015625 59.6498046875 72.9 59.65 72.70546875 59.2228515625 72.9 58.85
L 73.6 58.55
Q 74.37109375 59.2224609375 74.7 60.25
L 74.7 60.3
Q 75.494921875 61.667578125 76.6 62.65
L 76.65 62.65
Q 76.770703125 62.73046875 76.8 62.85 75.4369140625 63.3546875 74.05 62.55
L 74 62.5 73.2 61.45
Q 73.15078125 61.3798828125 73.05 61.35 72.999609375 61.337890625 72.9 61.35 72.8478515625 61.39296875 72.8 61.45 72.7517578125 61.51796875 72.75 61.6
L 72.7 61.65
Q 72.6880859375 61.7212890625 72.7 61.8 72.7470703125 62.0830078125 72.65 62.15 72.56640625 62.223828125 72.3 62.15
L 71.5 60.25 71.95 59.9
Q 72.042578125 59.9544921875 72.1 60 72.2900390625 60.19765625 72.35 60.4 72.394921875 60.4640625 72.45 60.5 72.518359375 60.546484375 72.6 60.55 72.75 60.55 72.8 60.55 72.8376953125 60.5439453125 72.85 60.5 73.1181640625 60.4578125 73.25 60.15
M 77.2 56.95
L 77.2 56.9
Q 78.0009765625 56.646875 78.55 57 79.33125 58.378515625 79.85 59.6 80.04296875 60.0310546875 79.95 60.55
L 79.95 60.55
Q 79.7771484375 62.2451171875 78.2 62.85
L 75.95 60.5 74.75 58
Q 75.9583984375 57.355859375 77.2 56.95
M 80.75 57.1
Q 80.3169921875 56.9533203125 80.05 56.7 80.608203125 56.837109375 81.05 57.25
L 80.75 57.1
M 69.45 51.6
L 69.5 51.65 69.5 51.65 69.45 51.65 69.45 51.6
M 67.55 55.15
Q 67.62265625 55.0119140625 67.75 54.9
L 69.95 57.6 68.4 57.65
Q 68.2982421875 57.65390625 68.2 57.7
L 68.15 57.75
Q 68.1140625 57.83828125 68.1 57.9 68.089453125 57.9875 68.1 58.05 67.81796875 57.86796875 67.5 57.75
L 67.55 57.75
Q 67.3890625 57.6921875 67.2 57.55
L 67.2 57.55
Q 67.15625 57.5130859375 67.1 57.45
L 66.85 56.95
Q 66.8451171875 56.86953125 66.75 56.8
L 66.75 56.8
Q 67.0896484375 56.2482421875 67.35 55.7
L 67.35 55.7
Q 67.538671875 55.3765625 67.55 55.15
M 69.35 53.35
L 69 53.35
Q 69.309375 53.0865234375 69.65 52.95
L 69.35 53.35
M 65.35 56.85
Q 65.416015625 56.9275390625 65.45 56.95 65.5373046875 56.9677734375 65.6 56.95 65.9564453125 56.85859375 66.25 56.85 66.28203125 56.8763671875 66.3 56.9 66.341796875 56.9640625 66.4 57
L 66.4 57 66.25 57.95 62.2 59.7
Q 61.1158203125 58.49609375 59.55 58 58.6853515625 57.7310546875 58.05 57.95
L 58.05 57.95
Q 56.784375 58.2845703125 55.35 57.95
L 55.35 57.95
Q 54.689453125 57.722265625 54.6 56.95 54.616015625 56.908203125 54.6 56.85 54.734765625 56.8755859375 54.85 56.9
L 54.9 56.9
Q 55.3 56.9 55.6 56.9
L 55.6 56.9
Q 58.56796875 56.5197265625 59 53.55 59.2716796875 52.0619140625 60.9 52.15
L 65.35 56.85
M 69.7 58.4
L 69.75 58.4
Q 70.1796875 58.326953125 70.25 58
L 71.05 58.95 70.15 61.25 66.1 61
Q 66.059765625 60.996875 66 61 65.940234375 61.050390625 65.9 61.1 65.3765625 61.813671875 64.95 62.4 64.872265625 61.366015625 65.9 60.7 66.9376953125 60.1392578125 67.5 59.05
L 67.5 59.05
Q 67.66640625 58.7017578125 68.05 58.7 68.1525390625 58.6990234375 68.2 58.6 68.2990234375 58.5525390625 68.3 58.45 68.3 58.35 68.3 58.3 68.3021484375 58.2416015625 68.25 58.2 68.8736328125 58.4515625 69.7 58.4
M 66.05 59.3
Q 65.4671875 59.78203125 64.9 60.3 64.152734375 61.033984375 64.1 62.05 64.096484375 62.1400390625 64.1 62.2 64.91328125 63.837109375 64.4 65.7 63.828515625 66.078515625 62.95 66.25 61.7853515625 66.5154296875 61.25 67.5
L 61 67.05
Q 60.974609375 66.9826171875 60.85 66.95 60.772265625 66.9236328125 60.65 66.95 60.5953125 67.025 60.55 67.1 60.523828125 67.25703125 60.45 67.4 60.3111328125 67.7015625 59.9 67.7
L 59.25 66.65
Q 59.2689453125 66.6515625 59.25 66.6 59.325 66.475 59.35 66.3 59.4111328125 66.250390625 59.4 66.15 58.9330078125 64.600390625 59.9 63.35
L 59.9 63.35
Q 62.3818359375 60.46328125 66.05 59.3
M 69.3 64.55
Q 69.7783203125 64.0470703125 70 63.5
L 70 63.45
Q 70.1103515625 63.23515625 70.25 63.05
L 70.3 63.05
Q 70.471875 62.8423828125 70.7 62.7 71.34765625 62.9046875 71.95 63.15
L 71.9 63.15
Q 72.0349609375 63.23828125 72.1 63.3
L 69.75 65.25 68.85 65.65
Q 68.8474609375 65.5927734375 68.85 65.5 68.9115234375 65.44140625 68.95 65.35
L 69 65.35
Q 69.0513671875 65.2642578125 69.1 65.2 69.201953125 65.207421875 69.25 65.15 69.2986328125 65.0822265625 69.3 65
L 69.3 64.55
M 69.45 62.25
Q 69.41953125 62.3880859375 69.35 62.5 68.5130859375 64.794921875 66.55 66.35
L 65.2 66.1
Q 65.3017578125 65.5830078125 65.3 65.05 65.2978515625 63.412890625 66.2 62.1 66.4568359375 62.0033203125 66.6 62
L 66.6 62
Q 68.2443359375 61.8650390625 69.45 62.25
M 70.7 65.9
Q 70.659375 65.9998046875 70.55 66.05 70.479296875 66.031640625 70.4 66 70.492578125 65.848046875 70.7 65.75 70.7234375 65.8640625 70.7 65.9
M 68.45 67.15
Q 69.2228515625 66.86015625 69.95 67 70.8998046875 67.237890625 71.55 66.4 71.56640625 66.376953125 71.55 66.35 71.837890625 65.7384765625 72.05 65 72.2810546875 64.1578125 72.95 63.9
L 74.45 65.55
Q 74.56953125 66.0958984375 74 66.55 71.5892578125 67.8533203125 69.4 69.7
L 69.35 69.7
Q 68.2994140625 70.6443359375 66.85 71.2
L 66.5 71 65.8 69.25
Q 66.23671875 68.76953125 66.7 68.3
L 66.7 68.35
Q 67.5390625 67.6173828125 68.45 67.15
M 62.95 68
Q 62.823828125 67.8455078125 62.5 67.85 62.415625 67.847265625 62.35 67.9 62.46484375 67.592578125 62.8 67.35
L 64.25 67.2
Q 64.763671875 68.21484375 64.2 69.15 63.371484375 70.6181640625 62.2 71.5
L 62.2 71.5
Q 61.7154296875 70.30078125 62 69.05
L 63.3 69.4
Q 63.377734375 69.4177734375 63.45 69.35 63.533984375 69.333984375 63.55 69.25 63.617578125 69.1775390625 63.6 69.1 63.55625 68.934765625 63.55 68.85
L 63.55 68.8
Q 63.4908203125 68.575 63.35 68.35 63.3640625 68.324609375 63.35 68.3 63.1708984375 68.0611328125 62.95 68
M 65.25 67.4
L 65.75 67.5 65.1 68.2
Q 65.04921875 67.7681640625 65.25 67.4
M 60.8 68.7
Q 61.0986328125 69.2060546875 61 69.65
L 60.4 68.8
Q 60.5138671875 68.7244140625 60.65 68.7 60.7263671875 68.6970703125 60.8 68.7
M 61.15 72.5
Q 61.2033203125 72.5927734375 61.15 72.65
L 60.6 72.15
Q 59.6791015625 71.266015625 59.35 70 59.32421875 69.96875 59.25 69.9 59.0181640625 69.6287109375 59.2 69.25 59.340234375 69.1931640625 59.45 69.2 59.601953125 69.29375 59.7 69.55
L 59.7 69.55
Q 60.52421875 70.96328125 61.15 72.5
M 63.05 72.75
Q 62.8880859375 72.4701171875 62.8 72.25
L 64.85 70.3 65.7 71.95
Q 65.194140625 72.316796875 64.8 73.05 64.79921875 73.096875 64.8 73.15 64.7974609375 73.2681640625 64.8 73.45 64.7603515625 73.482421875 64.7 73.55
L 64.4 74.1 63.35 73.05
Q 63.225 72.925 63.05 72.75
M 65.25 73.7
L 65.3 73.65
Q 65.3587890625 73.6435546875 65.35 73.6 65.5880859375 73.045703125 66.05 72.8 66.0767578125 72.8154296875 66.1 72.8 66.2623046875 72.6640625 66.45 72.55 66.56171875 72.667578125 66.65 72.75 67.156640625 73.6404296875 67.35 74.65 67.359765625 74.675390625 67.35 74.7 67.8369140625 75.8 68.2 77.15 66.4396484375 76.41640625 65.25 74.85
L 65.2 73.75
Q 65.2435546875 73.7595703125 65.25 73.7
M 76.2 65.2
L 76.2 65.2
Q 75.2375 64.71796875 75 63.85 76.5029296875 63.7369140625 77.8 64.05 78.5134765625 64.168359375 79.1 64.75
L 77.7 65.9 76.2 65.2
M 77.05 66.75
Q 77.35546875 66.7142578125 77.5 66.8 77.5740234375 66.869921875 77.6 67 76.142578125 67.666015625 74.55 68 74.495703125 68.0140625 74.4 68 74.4544921875 67.9978515625 74.45 67.95 74.5029296875 67.9521484375 74.5 67.9 74.83125 67.3970703125 75.4 67.15 76.357421875 66.79609375 77.05 66.75
M 72.75 68.3
Q 72.776171875 68.2763671875 72.8 68.25 73.0216796875 67.9880859375 73.25 68 72.408984375 69.1830078125 71.15 69.9
L 70.65 69.95
Q 71.7029296875 69.1666015625 72.75 68.3
M 58.4 53.3
L 58.4 53.3
Q 58.1859375 53.8865234375 57.85 54.4
L 57.8 54.45
Q 57.145703125 55.8111328125 55.6 55.85
L 55.55 55.85
Q 54.5888671875 55.9404296875 54 55.25
L 53.65 54.65 58.45 53
Q 58.4478515625 53.1671875 58.4 53.3
M 52.85 51.9
L 52.05 52.55 51.7 52.25 52.3 50.85 53.4 51.35 52.85 51.9
M 51.7 54.75
Q 52.6728515625 54.648828125 53 55.35
L 51.3 55.1 51.25 55.1
Q 51.43828125 54.793359375 51.7 54.75
M 53.65 56.8
Q 53.7158203125 56.9666015625 53.75 57.15 53.75 57.373828125 53.75 57.6
L 52.7 57.7 51.5 57.6
Q 51.5015625 57.463671875 51.5 57.35
L 51.5 57.3
Q 51.41953125 56.693359375 51.55 56.2 52.748828125 56.1166015625 53.65 56.8
M 50.7 56.25
Q 50.8134765625 56.6962890625 50.75 57.1 50.65234375 57.5607421875 50.3 57.65 50.2291015625 57.60234375 50.15 57.55 50.212109375 57.5134765625 50.3 57.45 50.421484375 57.451171875 50.45 57.35 50.52109375 57.292578125 50.5 57.2
L 50.35 56.6 50.7 56.25
M 51.45 58.65
Q 51.953515625 58.6412109375 52.3 58.6 53.0390625 58.6048828125 53.8 58.75 53.915625 58.8318359375 54.05 59 54.3572265625 61.8158203125 53.85 64.3
L 52.6 63.1
Q 52.601953125 63.0966796875 52.55 63.05
L 51.1 62.25 51.45 58.65
M 54.9 59.85
Q 54.8287109375 59.2712890625 55.25 58.75 55.698828125 58.9873046875 56.2 58.9
L 56.25 58.9
Q 58.15078125 58.8064453125 60.1 59.2
L 60.1 59.2
Q 60.9791015625 59.3205078125 61.3 60 61.0984375 60.984375 60.3 61.65
L 60.25 61.65
Q 58.187109375 63.4498046875 55.9 65.15
L 54.7 65.7
Q 54.8189453125 64.2240234375 54.95 62.8
L 54.95 62.8
Q 55.00078125 61.3375 54.9 59.85
M 47.05 54.1
Q 48.5080078125 52.653125 50.4 52.75
L 50.7 53.8 49.55 55.95 49.2 55.75 49.25 55.75 47.05 54.1
M 46.2 54.95
L 46.2 55 46.2 55 46.2 54.95
M 46.25 55
L 46.3 55.05
Q 48.3087890625 55.6248046875 49 57.3 48.95859375 57.3369140625 48.9 57.35
L 48.85 57.35
Q 47.63984375 57.7955078125 46.5 57.6
L 46.45 57.6 44.85 57.4
Q 44.8423828125 57.0865234375 44.95 56.75 45.3849609375 55.668359375 46.25 55
M 44.4 61.25
L 44.35 61.25
Q 43.3611328125 62.171484375 43.15 63.55
L 43.15 63.55
Q 43.0478515625 64.3498046875 42.8 65.1
L 42.8 65.1
Q 42.7478515625 65.3294921875 42.55 65.3 42.333203125 65.1365234375 42.1 65 41.527734375 64.0900390625 41.3 63.05 43.769921875 61.3359375 44.55 58.55
L 48.75 58.6 48.75 61.65
Q 47.5443359375 61.21875 46.3 60.9
L 46.25 60.9
Q 45.875 60.85 45.45 60.8 45.4375 60.793359375 45.4 60.8 44.8443359375 60.9138671875 44.4 61.25
M 49.9 58.65
L 50.45 58.65
Q 50.4005859375 59.4611328125 50.4 60.25
L 50.4 60.3
Q 50.354296875 61.06015625 49.9 61.75 49.7591796875 61.6529296875 49.8 61.45 49.808984375 61.4251953125 49.8 61.35 49.75078125 60.8880859375 49.75 60.45
L 49.75 60.4
Q 49.53984375 59.432421875 49.9 58.65
M 45.55 61.9
Q 47.136328125 62.1416015625 48.8 62.65 49.4525390625 65.118359375 47.9 67.1
L 43.9 65.65
Q 43.9376953125 65.4982421875 43.9 65.3
L 43.9 65.3
Q 43.9490234375 64.8017578125 43.85 64.35 43.8142578125 62.7193359375 45.05 61.85 45.3001953125 61.85625 45.55 61.9
L 45.55 61.9
M 46.45 67.6
L 46.5 67.6
Q 46.9822265625 67.62578125 47.15 68.25 47.1509765625 68.298046875 47.1 68.35 46.859375 68.535546875 46.6 68.85 46.584765625 68.8734375 46.55 68.9
L 46.55 68.9 46.55 68.9
Q 46.4822265625 68.8513671875 46.4 68.85 46.0822265625 68.85 45.95 69 45.8203125 69.15234375 45.85 69.4
L 45.85 69.4
Q 45.7583984375 69.7583984375 45.55 70.05 45.5359375 70.074609375 45.5 70.1 45.2171875 70.755859375 44.7 70.65
L 42.8 66.85 43.5 66.6
Q 44.2537109375 66.6072265625 44.95 67.05
L 44.95 67.05
Q 45.778125 67.5548828125 46.45 67.6
M 49.1 67.05
Q 49.202734375 67.001953125 49.25 66.9 49.3248046875 67.0771484375 49.35 67.2
L 49.35 67.2
Q 49.873046875 68.101953125 50.65 68.4 50.7224609375 68.4568359375 50.8 68.45
L 52.6 68.15
Q 51.6154296875 70.1181640625 50.65 72.1 50.3763671875 72.6927734375 49.8 73.05
L 47.7 72.8
Q 47.4662109375 72.6353515625 47.2 72.5 47.08671875 72.4078125 47.1 72.3 47.1119140625 72.2501953125 47.1 72.2 46.5533203125 69.9435546875 48.15 68.55 48.9494140625 68.9689453125 49.7 69.4
L 49.75 69.4
Q 50.271484375 69.6826171875 50.6 69.5 50.683984375 69.4990234375 50.7 69.4 50.76953125 69.341015625 50.75 69.25 50.7267578125 69.1578125 50.65 69.1
L 48.75 67.7
Q 48.9625 67.3498046875 49.1 67.05
M 41.15 66
L 41.2 66
Q 41.16875 66.0373046875 41.1 66.05
L 41.15 66
M 45.9 71.8
L 45.9 71.85 45.85 71.8
Q 45.8197265625 71.6689453125 45.85 71.55
L 45.85 71.5
Q 45.8431640625 71.3302734375 45.9 71.2 45.9560546875 71.4666015625 45.9 71.8
M 47.25 73.6
L 47.25 73.6
Q 48.8919921875 74.365625 50.35 73.8 50.4529296875 73.8076171875 50.5 73.75 52.2818359375 71.0974609375 53.65 68.1
L 54.4 70.5
Q 54.274609375 70.6349609375 54.2 70.75 53.7876953125 71.1626953125 53.45 71.65
L 53.45 71.7
Q 52.898828125 72.9982421875 54 74.1 55.1251953125 75.232421875 55.6 76.7 55.5708984375 76.7291015625 55.5 76.75 54.931640625 77.301171875 55.2 77.9 55.2427734375 77.9416015625 55.25 77.95 55.325 78.025 55.35 78.05 55.428125 78.1306640625 55.5 78.15 55.563671875 78.1580078125 55.6 78.1 55.6994140625 78.10390625 55.75 78.05
L 56.55 77
Q 56.59453125 76.9447265625 56.6 76.85 56.608203125 76.79609375 56.55 76.7
L 54.15 72.3
Q 54.6966796875 71.3734375 55.9 71.2 56.7912109375 71.13828125 57 70.65
L 57 70.65 57.2 70.2 58.2 69.75 60.35 73.45
Q 57.6548828125 76.4029296875 56.15 80.15
L 56.15 80.15
Q 55.9783203125 80.735546875 55.55 81.25 54.60703125 82.3609375 53.35 81.95
L 53.9 79.95
Q 53.921484375 79.884375 53.85 79.8 53.8357421875 79.7125 53.75 79.65 53.6625 79.640625 53.55 79.65 53.4779296875 79.6994140625 53.4 79.75
L 52.1 82.2 51.8 82.25
Q 51.39921875 82.0283203125 51 81.85 50.9091796875 81.7900390625 50.8 81.7 50.86640625 81.4552734375 50.95 81.2
L 51 81.15
Q 51.1501953125 80.6119140625 51.25 80.15
L 51.25 80.1
Q 51.3609375 78.7310546875 50.35 78
L 50.35 78 49.75 76.9
Q 49.740625 76.85859375 49.65 76.8 49.6037109375 76.7900390625 49.5 76.8 49.4408203125 76.8166015625 49.35 76.85 49.3390625 76.90703125 49.3 76.95 48.5705078125 76.925 47.45 76.6
L 47.5 76.6
Q 47.28515625 76.5224609375 47.1 76.45 47.036328125 76.4408203125 46.95 76.45 46.8638671875 76.5130859375 46.8 76.6 46.778515625 76.6853515625 46.8 76.75 46.8357421875 76.8703125 46.9 76.9
L 49.25 78.35 49.45 80.75 48.15 81.25
Q 47.7251953125 81.120703125 47.55 80.85 47.0224609375 79.9279296875 46.4 79.1
L 45.8 77.95
Q 46.2052734375 76.393359375 46.35 74.75 46.428515625 74.0166015625 46.9 73.45 47.0619140625 73.558203125 47.25 73.6
M 44.8 72.25
Q 45.4865234375 72.466015625 45.8 73.05 45.934765625 74.608203125 45.2 75.9 45.194921875 75.96875 45.15 76 44.9171875 76.203515625 44.95 76.4 44.95078125 76.5025390625 45 76.55 45.076171875 76.6275390625 45.15 76.65
L 45.2 76.65 45.2 76.7
Q 45.1390625 76.9544921875 44.95 77.2 44.0431640625 75.76796875 42.6 74.75
L 42.25 74.5 44.8 72.25
M 58.8 67.8
Q 58.7431640625 67.9134765625 58.65 68.05
L 58.7 67.95
Q 57.84765625 68.9861328125 56.4 69.45
L 56.4 69.45 55.05 70.05 54.5 67.75
Q 54.705859375 67.068359375 55.4 66.55
L 55.35 66.55
Q 56.9021484375 65.5732421875 58.3 64.7
L 58.8 67.8
M 51.25 67.45
Q 51.0296875 67.4154296875 50.85 67.35 49.5125 65.3826171875 50.75 63.3 52.353515625 63.641015625 53 65.05 53.034765625 65.0763671875 53.05 65.1 53.5419921875 65.721875 53.25 66.3 52.7796875 67.38828125 51.25 67.45
M 60.35 76.95
Q 60.2830078125 77.2212890625 60.65 77.25 60.8333984375 77.3677734375 61 77.45
L 60.95 77.45
Q 60.883984375 77.4537109375 60.8 77.5 60.751953125 77.6 60.75 77.7 60.753515625 77.80234375 60.8 77.85
L 62.7 79.75
Q 59.744140625 80.0271484375 56.95 80.95 56.955859375 80.89921875 56.95 80.85
L 57 80.8
Q 57.188671875 80.1380859375 57.45 79.5
L 57.45 79.5
Q 58.275 78.025 59.05 76.5 59.8388671875 75.0712890625 61.2 74.35
L 63.15 76.25
Q 62.5068359375 76.764453125 61.65 76.75 61.447265625 76.6005859375 61.15 76.6 60.866015625 76.6044921875 60.5 76.7 60.4478515625 76.7423828125 60.4 76.8 60.3513671875 76.867578125 60.35 76.95
M 43.65 81.2
L 43.25 80.95 45.25 79 46.75 81.65
Q 45.2087890625 81.68359375 43.65 81.2
M 63.95 75.05
L 63.95 75.05
Q 64.020703125 75.1220703125 64.05 75.15 63.557421875 74.830078125 63.15 74.5
L 62.8 73.7
Q 63.4349609375 74.3220703125 63.95 75.05
M 54.95 78.65
Q 54.991796875 78.533984375 54.95 78.45 54.93359375 78.2478515625 54.7 78.25 54.56796875 78.2142578125 54.1 78.6 53.8697265625 78.880078125 53.8 79 53.713671875 79.268359375 53.9 79.35 53.9927734375 79.4390625 54.2 79.4 54.6189453125 79.3267578125 54.8 78.9
L 54.8 78.9
Q 54.9259765625 78.7427734375 54.95 78.65
M 76.5 51.65
L 76.5 51.6 76.45 51.55 76.5 51.65
M 36.6 38.25
Q 36.5595703125 38.215625 36.45 38.2 36.3958984375 38.188671875 36.3 38.2 36.267578125 38.2642578125 36.2 38.3
L 36.2 38.35
Q 36.128125 38.3978515625 36.1 38.45 36.0857421875 38.56328125 36.1 38.65 36.1546875 38.7296875 36.2 38.75 36.779296875 39.1115234375 36.85 38.9 37.109765625 38.783203125 36.8 38.45 36.7658203125 38.4052734375 36.6 38.25 Z"/>
</g>
</defs>

<g transform="matrix( 1, 0, 0, 1, 0,0) ">
<use xlink:href="#Layer1_0_FILL"/>
</g>
</svg>
