
<svg xmlns="http://www.w3.org/2000/svg" version="1.1" xmlns:xlink="http://www.w3.org/1999/xlink" preserveAspectRatio="none" x="0px" y="0px" width="100px" height="100px" viewBox="0 0 100 100">
<defs>
<g id="Layer1_0_FILL">
<path fill="#000000" stroke="none" d="
M 66.4 84.35
Q 67 84.65 67.75 84.65 68.5 84.65 69.1 84.35 69.65 83.95 69.65 83.4 69.65 82.9 69.1 82.5 68.5 82.15 67.75 82.15 67 82.15 66.4 82.5 65.85 82.9 65.85 83.4 65.85 83.95 66.4 84.35
M 63.15 85
Q 61.95 85 61.25 86.1 60.6 87.25 61.35 88 62.35 89.05 63.3 88.7 64.25 88.35 64.25 86.9 64.25 86.1 63.95 85.55 63.55 85 63.15 85
M 64.25 82.45
Q 64.25 81.95 63.95 81.55 63.55 81.2 63 81.2 62.55 81.2 62.1 81.55 61.75 82 61.75 82.45 61.75 83 62.1 83.4 62.5 83.7 63 83.7 64.25 83.7 64.25 82.45
M 63.95 76.7
Q 63.55 76.1 63.15 76.1 61.95 76.1 61.25 77.25 60.6 78.4 61.35 79.15 62.35 80.15 63.3 79.85 64.25 79.45 64.25 78 64.25 77.25 63.95 76.7
M 66.55 76.9
Q 65.6 77.45 66.25 78.7 66.85 79.9 68.2 79.9 68.65 79.9 69 79.6 69.35 79.3 69.35 78.9 69.35 77.65 68.45 77 67.5 76.3 66.55 76.9
M 73.4 83.1
Q 73.4 82.6 73.05 82.2 72.7 81.8 72.1 81.8 71.7 81.8 71.25 82.2 70.85 82.65 70.85 83.1 70.85 83.65 71.25 84.05 71.6 84.35 72.1 84.35 73.4 84.35 73.4 83.1
M 72.5 79.9
Q 73.4 79.9 73.85 79.55 74.35 79.1 74.15 78.5 73.7 77.25 72.5 77.25 71.3 77.25 70.85 78.5 70.65 79.1 71.15 79.55 71.6 79.9 72.5 79.9
M 47.1 85.35
Q 46.55 85.75 46.55 86.25 46.55 86.8 47.1 87.2 47.7 87.5 48.45 87.5 49.2 87.5 49.75 87.2 50.35 86.8 50.35 86.25 50.35 85.75 49.75 85.35 49.2 85 48.45 85 47.7 85 47.1 85.35
M 48.3 83.2
Q 49.6 83.2 49.6 81.95 49.6 81.45 49.25 81.05 48.9 80.7 48.3 80.7 47.85 80.7 47.4 81.05 47.05 81.5 47.05 81.95 47.05 82.5 47.4 82.9 47.8 83.2 48.3 83.2
M 42.05 85.35
Q 41.45 85.75 41.45 86.25 41.45 86.8 42.05 87.2 42.6 87.5 43.35 87.5 44.15 87.5 44.7 87.2 45.25 86.8 45.25 86.25 45.25 85.75 44.7 85.35 44.15 85 43.35 85 42.6 85 42.05 85.35
M 45.15 81.95
Q 45.15 81.45 44.85 81.05 44.45 80.7 43.9 80.7 43.45 80.7 43 81.05 42.6 81.5 42.6 81.95 42.6 82.5 43 82.9 43.35 83.2 43.9 83.2 45.15 83.2 45.15 81.95
M 44.2 76.45
Q 43.8 75.85 43.25 75.85 42.75 75.85 42.35 76.45 42 77 42 77.75 42 78.5 42.35 79.1 42.75 79.65 43.25 79.65 43.8 79.65 44.2 79.1 44.5 78.5 44.5 77.75 44.5 77.4 44.45 77.05 44.3 76.7 44.2 76.45
M 49.5 77.05
Q 49.4 76.7 49.25 76.45 48.9 75.85 48.45 75.85 47.25 75.85 46.55 77 46.3 77.4 46.3 77.75 46.15 78.4 46.65 78.9
L 46.75 78.95
Q 46.85 79.1 47 79.2 47.8 79.85 48.65 79.6 49.6 79.2 49.6 77.75 49.6 77.4 49.5 77.05
M 57.95 85
Q 57.45 85 57.05 85.55 56.65 86.1 56.65 86.9 56.65 87.65 57.05 88.2 57.45 88.8 57.95 88.8 58.5 88.8 58.9 88.2 59.2 87.65 59.2 86.9 59.2 86.1 58.9 85.55 58.5 85 57.95 85
M 59.2 82.45
Q 59.2 81.95 58.9 81.55 58.5 81.2 57.95 81.2 57.5 81.2 57.05 81.55 56.65 82 56.65 82.45 56.65 83 57.05 83.4 57.45 83.7 57.95 83.7 59.2 83.7 59.2 82.45
M 52 85.35
Q 51.6 85.8 51.6 86.25 51.6 86.8 52 87.2 52.35 87.5 52.85 87.5 54.15 87.5 54.15 86.25 54.15 85.75 53.8 85.35 53.45 85 52.85 85 52.45 85 52 85.35
M 54.15 82.45
Q 54.15 81.95 53.8 81.55 53.45 81.2 52.85 81.2 52.45 81.2 52 81.55 51.6 82 51.6 82.45 51.6 83 52 83.4 52.35 83.7 52.85 83.7 54.15 83.7 54.15 82.45
M 54.15 78
Q 54.15 77.25 53.8 76.7 53.45 76.1 52.85 76.1 52.35 76.1 52 76.7 51.6 77.25 51.6 78 51.6 78.8 52 79.35 52.35 79.9 52.85 79.9 53.45 79.9 53.8 79.35 54.15 78.8 54.15 78
M 57.95 76.1
Q 57.45 76.1 57.05 76.7 56.65 77.25 56.65 78 56.65 78.8 57.05 79.35 57.45 79.9 57.95 79.9 58.5 79.9 58.9 79.35 59.2 78.8 59.2 78 59.2 77.25 58.9 76.7 58.5 76.1 57.95 76.1
M 57.95 72.3
Q 57.5 72.3 57.05 72.7 56.65 73.15 56.65 73.6 56.65 74.15 57.05 74.55 57.45 74.85 57.95 74.85 59.2 74.85 59.2 73.6 59.2 73.1 58.9 72.7 58.5 72.3 57.95 72.3
M 59.2 69.8
Q 59.2 69.3 58.9 68.9 58.5 68.5 57.95 68.5 57.5 68.5 57.05 68.9 56.65 69.35 56.65 69.8 56.65 70.35 57.05 70.75 57.45 71.05 57.95 71.05 59.2 71.05 59.2 69.8
M 53.65 72.3
Q 52.8 72.3 52.15 72.7 51.6 73.1 51.6 73.6 51.6 74.85 52.75 74.85 54.15 74.85 54.75 73.6 55.1 73.1 54.7 72.7 54.4 72.3 53.65 72.3
M 52.85 67.9
Q 52.35 67.55 52 67.95 51.6 68.25 51.6 69 51.6 69.85 52 70.5 52.35 71.05 52.85 71.05 54.15 71.05 54.15 69.9 54.15 68.5 52.85 67.9
M 52.15 64.45
Q 51.6 64.85 51.6 65.35 51.6 66.6 52.75 66.6 54.15 66.6 54.75 65.35 55.1 64.85 54.7 64.45 54.4 64.1 53.65 64.1 52.8 64.1 52.15 64.45
M 57.95 64.1
Q 57.5 64.1 57.05 64.45 56.65 64.9 56.65 65.35 56.65 65.9 57.05 66.3 57.45 66.6 57.95 66.6 59.2 66.6 59.2 65.35 59.2 64.85 58.9 64.45 58.5 64.1 57.95 64.1
M 48.45 72.3
Q 47.7 72.3 47.1 72.7 46.55 73.1 46.55 73.6 46.55 74.15 47.1 74.55 47.7 74.85 48.45 74.85 49.2 74.85 49.75 74.55 50.35 74.15 50.35 73.6 50.35 73.1 49.75 72.7 49.2 72.3 48.45 72.3
M 43.35 72.3
Q 42.6 72.3 42.05 72.7 41.45 73.1 41.45 73.6 41.45 74.15 42.05 74.55 42.6 74.85 43.35 74.85 44.15 74.85 44.7 74.55 45.25 74.15 45.25 73.6 45.25 73.1 44.7 72.7 44.15 72.3 43.35 72.3
M 44.7 67.65
Q 44.15 67.25 43.35 67.25 42.6 67.25 42.05 67.65 41.45 68 41.45 68.5 41.45 69.1 42.05 69.45 42.6 69.8 43.35 69.8 44.15 69.8 44.7 69.45 45.25 69.1 45.25 68.5 45.25 68 44.7 67.65
M 45.25 64.7
Q 45.25 64.2 44.7 63.85 44.15 63.45 43.35 63.45 42.6 63.45 42.05 63.85 41.45 64.2 41.45 64.7 41.45 65.3 42.05 65.65 42.6 66 43.35 66 44.15 66 44.7 65.65 45.25 65.3 45.25 64.7
M 47.7 67.25
Q 47.25 67.25 46.85 67.65 46.55 68 46.55 68.5 46.55 69.1 47.1 69.45 47.7 69.8 48.55 69.8 49.3 69.8 49.65 69.45 49.95 69.1 49.7 68.5 48.95 67.25 47.7 67.25
M 46.85 63.85
Q 46.55 64.2 46.55 64.7 46.55 65.3 47.1 65.65 47.7 66 48.55 66 49.3 66 49.65 65.65 49.95 65.3 49.7 64.7 48.95 63.45 47.7 63.45 47.25 63.45 46.85 63.85
M 46.9 58.95
Q 46.55 59.5 46.55 60.3 46.55 61.05 46.9 61.6 47.3 62.2 47.8 62.2 48.35 62.2 48.75 61.6 49.05 61.05 49.05 60.3 49.05 59.5 48.75 58.95 48.35 58.4 47.8 58.4 47.3 58.4 46.9 58.95
M 42.05 58.95
Q 41.45 59.6 41.45 60.4 41.45 62.05 43 61.8 44.45 61.6 45 59.9 45.2 59.25 44.75 58.85 44.4 58.4 43.5 58.4 42.65 58.4 42.05 58.95
M 43.35 54.6
Q 42.6 54.6 42.05 54.95 41.45 55.35 41.45 55.85 41.45 56.4 42.05 56.8 42.6 57.1 43.35 57.1 44.15 57.1 44.7 56.8 45.25 56.4 45.25 55.85 45.25 55.35 44.7 54.95 44.15 54.6 43.35 54.6
M 45 51.8
Q 44.45 50.1 43 49.9 41.45 49.65 41.45 51.3 41.45 52.2 42.05 52.75 42.65 53.3 43.5 53.3 44.4 53.3 44.75 52.85 45.2 52.5 45 51.8
M 47.8 54.6
Q 47.35 54.6 46.9 54.95 46.55 55.4 46.55 55.85 46.55 56.4 46.9 56.8 47.3 57.1 47.8 57.1 49.05 57.1 49.05 55.85 49.05 55.35 48.75 54.95 48.35 54.6 47.8 54.6
M 49.05 51.4
Q 49.05 50.65 48.75 50.1 48.35 49.5 47.8 49.5 47.3 49.5 46.9 50.1 46.55 50.65 46.55 51.4 46.55 52.2 46.9 52.75 47.3 53.3 47.8 53.3 48.35 53.3 48.75 52.75 49.05 52.2 49.05 51.4
M 59.2 61.05
Q 59.2 59.65 57.95 59 57.45 58.7 57.05 59.1 56.65 59.4 56.65 60.15 56.65 61 57.05 61.6 57.45 62.2 57.95 62.2 59.2 62.2 59.2 61.05
M 52 58.95
Q 51.6 59.5 51.6 60.3 51.6 61.05 52 61.6 52.35 62.2 52.85 62.2 53.45 62.2 53.8 61.6 54.15 61.05 54.15 60.3 54.15 59.5 53.8 58.95 53.45 58.4 52.85 58.4 52.35 58.4 52 58.95
M 53.8 54.95
Q 53.45 54.6 52.85 54.6 52.45 54.6 52 54.95 51.6 55.4 51.6 55.85 51.6 56.4 52 56.8 52.35 57.1 52.85 57.1 54.15 57.1 54.15 55.85 54.15 55.35 53.8 54.95
M 52.85 53.3
Q 54.15 53.3 54.15 52.2 54.15 50.8 52.85 50.15 52.35 49.85 52 50.2 51.6 50.55 51.6 51.3 51.6 52.1 52 52.75 52.35 53.3 52.85 53.3
M 57.95 54.6
Q 57.5 54.6 57.05 54.95 56.65 55.4 56.65 55.85 56.65 56.4 57.05 56.8 57.45 57.1 57.95 57.1 59.2 57.1 59.2 55.85 59.2 55.35 58.9 54.95 58.5 54.6 57.95 54.6
M 59.2 52.05
Q 59.2 51.55 58.9 51.15 58.5 50.8 57.95 50.8 57.5 50.8 57.05 51.15 56.65 51.6 56.65 52.05 56.65 52.6 57.05 53 57.45 53.3 57.95 53.3 59.2 53.3 59.2 52.05
M 76.25 70.75
Q 76.8 71.05 77.55 71.05 78.35 71.05 78.9 70.75 79.45 70.35 79.45 69.8 79.45 69.3 78.9 68.9 78.35 68.5 77.55 68.5 76.8 68.5 76.25 68.9 75.65 69.3 75.65 69.8 75.65 70.35 76.25 70.75
M 77.55 73.6
Q 76.75 73.6 76.35 73.95 76 74.35 76.3 74.85 76.95 76.1 77.55 76.1 78.2 76.1 78.85 74.85 79.15 74.35 78.75 73.95 78.4 73.6 77.55 73.6
M 72.65 71.05
Q 73.4 71.05 73.7 70.75 74 70.35 73.75 69.8 73 68.5 71.75 68.5 71.3 68.5 70.9 68.9 70.6 69.3 70.6 69.8 70.6 70.35 71.15 70.75 71.75 71.05 72.65 71.05
M 73.15 73
Q 71.8 72.7 71.25 73.6 70.9 74.1 71.3 74.45 71.6 74.85 72.4 74.85 74.4 74.85 74.4 74.35 74.4 73.35 73.15 73
M 73.4 65.35
Q 73.4 64.85 73 64.4 72.55 63.9 72 63.7 71.45 63.5 71.05 64 70.6 64.45 70.6 65.35 70.6 66.25 71.05 66.7 71.45 67.2 72 67 72.55 66.8 73 66.3 73.4 65.85 73.4 65.35
M 77.55 67.25
Q 78.45 67.25 78.9 66.85 79.4 66.45 79.2 65.85 78.75 64.6 77.55 64.6 76.35 64.6 75.9 65.85 75.75 66.45 76.25 66.85 76.7 67.25 77.55 67.25
M 68.2 72.3
Q 66.95 72.3 66.15 73.6 65.9 74.15 66.25 74.55 66.55 74.85 67.3 74.85 68.2 74.85 68.75 74.55 69.35 74.15 69.35 73.6 69.35 73.1 69 72.7 68.65 72.3 68.2 72.3
M 68.75 70.75
Q 69.35 70.35 69.35 69.8 69.35 69.3 69 68.9 68.65 68.5 68.2 68.5 66.95 68.5 66.15 69.8 65.9 70.35 66.25 70.75 66.55 71.05 67.3 71.05 68.2 71.05 68.75 70.75
M 63 72.3
Q 62.55 72.3 62.1 72.7 61.75 73.15 61.75 73.6 61.75 74.15 62.1 74.55 62.5 74.85 63 74.85 64.25 74.85 64.25 73.6 64.25 73.1 63.95 72.7 63.55 72.3 63 72.3
M 64.25 69.8
Q 64.25 69.3 63.95 68.9 63.55 68.5 63 68.5 62.55 68.5 62.1 68.9 61.75 69.35 61.75 69.8 61.75 70.35 62.1 70.75 62.5 71.05 63 71.05 64.25 71.05 64.25 69.8
M 63 66.6
Q 64.25 66.6 64.25 65.35 64.25 64.85 63.95 64.45 63.55 64.1 63 64.1 62.55 64.1 62.1 64.45 61.75 64.9 61.75 65.35 61.75 65.9 62.1 66.3 62.5 66.6 63 66.6
M 66.15 65.35
Q 65.9 65.9 66.25 66.3 66.55 66.6 67.3 66.6 68.2 66.6 68.75 66.3 69.35 65.9 69.35 65.35 69.35 64.85 69 64.45 68.65 64.1 68.2 64.1 66.95 64.1 66.15 65.35
M 68.05 59.65
Q 67.65 59.65 67.2 60.05 66.8 60.45 66.8 60.9 66.8 61.5 67.2 61.85 67.55 62.2 68.05 62.2 69.35 62.2 69.35 60.9 69.35 60.4 69 60.05 68.65 59.65 68.05 59.65
M 69.35 57.1
Q 69.35 56.6 68.75 56.25 68.15 55.85 67.3 55.85 66.55 55.85 66.25 56.25 65.85 56.6 66.15 57.1 66.8 58.4 68.2 58.4 69.35 58.4 69.35 57.1
M 63.95 60.05
Q 63.55 59.65 63 59.65 62.55 59.65 62.1 60.05 61.75 60.45 61.75 60.9 61.75 61.5 62.1 61.85 62.5 62.2 63 62.2 64.25 62.2 64.25 60.9 64.25 60.4 63.95 60.05
M 63 54.6
Q 62.55 54.6 62.1 54.95 61.75 55.4 61.75 55.85 61.75 56.4 62.1 56.8 62.5 57.1 63 57.1 64.25 57.1 64.25 55.85 64.25 55.35 63.95 54.95 63.55 54.6 63 54.6
M 64.25 52.05
Q 64.25 51.55 63.95 51.15 63.55 50.8 63 50.8 62.55 50.8 62.1 51.15 61.75 51.6 61.75 52.05 61.75 52.6 62.1 53 62.5 53.3 63 53.3 64.25 53.3 64.25 52.05
M 69.35 52.05
Q 69.35 51.55 68.75 51.15 68.15 50.8 67.3 50.8 66.55 50.8 66.25 51.15 65.85 51.55 66.15 52.05 66.8 53.3 68.2 53.3 69.35 53.3 69.35 52.05
M 77.55 59.65
Q 76.8 59.65 76.25 60.05 75.65 60.4 75.65 60.9 75.65 61.5 76.25 61.85 76.8 62.2 77.55 62.2 78.35 62.2 78.9 61.85 79.45 61.5 79.45 60.9 79.45 60.4 78.9 60.05 78.35 59.65 77.55 59.65
M 78.9 58.05
Q 79.45 57.7 79.45 57.1 79.45 56.6 78.9 56.25 78.35 55.85 77.55 55.85 76.8 55.85 76.25 56.25 75.65 56.6 75.65 57.1 75.65 57.7 76.25 58.05 76.8 58.4 77.55 58.4 78.35 58.4 78.9 58.05
M 73.85 60.05
Q 73.25 59.65 72.5 59.65 71.75 59.65 71.15 60.05 70.6 60.4 70.6 60.9 70.6 61.5 71.15 61.85 71.75 62.2 72.5 62.2 73.25 62.2 73.85 61.85 74.4 61.5 74.4 60.9 74.4 60.4 73.85 60.05
M 73.85 51.15
Q 73.25 50.8 72.5 50.8 71.75 50.8 71.15 51.15 70.6 51.55 70.6 52.05 70.6 52.6 71.15 53 71.75 53.3 72.5 53.3 73.25 53.3 73.85 53 74.4 52.6 74.4 52.05 74.4 51.55 73.85 51.15
M 73.5 55.45
Q 72.55 54.75 71.6 55.35 70.65 55.9 71.3 57.2 71.95 58.4 73.25 58.4 73.7 58.4 74.1 58.05 74.4 57.75 74.4 57.35 74.4 56.1 73.5 55.45
M 77.55 53.3
Q 78.35 53.3 78.9 53 79.45 52.6 79.45 52.05 79.45 51.55 78.9 51.15 78.35 50.8 77.55 50.8 76.8 50.8 76.25 51.15 75.65 51.55 75.65 52.05 75.65 52.6 76.25 53 76.8 53.3 77.55 53.3
M 29.5 85.35
Q 28.85 85 28.05 85 27.3 85 26.95 85.35 26.6 85.75 26.9 86.25 27.55 87.5 28.95 87.5 30.05 87.5 30.05 86.25 30.05 85.75 29.5 85.35
M 25.3 80.3
Q 24.95 79.9 24.35 79.9 23.95 79.9 23.5 80.3 23.1 80.75 23.1 81.2 23.1 81.75 23.5 82.15 23.85 82.45 24.35 82.45 25.65 82.45 25.65 81.2 25.65 80.7 25.3 80.3
M 24.95 76.3
Q 24.8 75.95 24.7 75.65 24.3 75.1 23.75 75.1 23.25 75.1 22.85 75.65 22.45 76.25 22.45 77 22.45 77.75 22.85 78.35 23.25 78.9 23.75 78.9 24.3 78.9 24.7 78.35 25 77.75 25 77 25 76.6 24.95 76.3
M 29.75 80.3
Q 29.35 79.9 28.8 79.9 28.35 79.9 27.9 80.3 27.55 80.75 27.55 81.2 27.55 81.75 27.9 82.15 28.3 82.45 28.8 82.45 30.05 82.45 30.05 81.2 30.05 80.7 29.75 80.3
M 30.05 77
Q 30.05 76.6 30 76.3 29.9 75.95 29.75 75.65 29.35 75.1 28.95 75.1 27.75 75.1 27.05 76.25 26.8 76.6 26.8 77 26.65 77.65 27.15 78.15
L 27.2 78.2
Q 27.35 78.35 27.45 78.45 28.3 79.1 29.1 78.85 30.05 78.45 30.05 77
M 38.3 85
Q 37.55 85 36.95 85.35 36.4 85.75 36.4 86.25 36.4 86.8 36.95 87.2 37.55 87.5 38.3 87.5 39.05 87.5 39.65 87.2 40.2 86.8 40.2 86.25 40.2 85.75 39.65 85.35 39.05 85 38.3 85
M 32.05 85.35
Q 31.65 85.75 31.95 86.25 32.6 87.5 34 87.5 35.15 87.5 35.15 86.25 35.15 85.75 34.55 85.35 33.95 85 33.1 85 32.35 85 32.05 85.35
M 33.1 82.45
Q 35.15 82.45 35.15 81.95 35.15 80.95 33.85 80.6 32.55 80.3 31.95 81.2 31.65 81.7 32.05 82.05 32.35 82.45 33.1 82.45
M 31.9 76.5
Q 31.35 76.9 31.35 77.4 31.35 77.95 31.9 78.35 32.5 78.65 33.25 78.65 34 78.65 34.55 78.35 35.15 77.95 35.15 77.4 35.15 76.9 34.55 76.5 34 76.1 33.25 76.1 32.5 76.1 31.9 76.5
M 39.65 80.3
Q 39.05 79.9 38.3 79.9 37.55 79.9 36.95 80.3 36.4 80.7 36.4 81.2 36.4 81.75 36.95 82.15 37.55 82.45 38.3 82.45 39.05 82.45 39.65 82.15 40.2 81.75 40.2 81.2 40.2 80.7 39.65 80.3
M 39.65 76.5
Q 39.05 76.1 38.3 76.1 37.55 76.1 36.95 76.5 36.4 76.9 36.4 77.4 36.4 77.95 36.95 78.35 37.55 78.65 38.3 78.65 39.05 78.65 39.65 78.35 40.2 77.95 40.2 77.4 40.2 76.9 39.65 76.5
M 19.7 75.75
Q 18.3 76.45 18.3 77.25 18.35 78.4 19.35 78.2 20.3 77.95 20.7 76.75 20.95 76.2 20.65 75.85 20.3 75.55 19.7 75.75
M 14.55 67.25
Q 14.25 66.85 13.5 66.85 12.65 66.85 12 67.25 11.45 67.65 11.45 68.15 11.45 69.4 12.6 69.4 14 69.4 14.6 68.15 14.95 67.65 14.55 67.25
M 14.85 63.45
Q 14.85 62.95 14.3 62.55 13.75 62.2 12.95 62.2 12.2 62.2 11.65 62.55 11.05 62.95 11.05 63.45 11.05 64 11.65 64.4 12.2 64.7 12.95 64.7 13.75 64.7 14.3 64.4 14.85 64 14.85 63.45
M 18.05 67.25
Q 17.3 67.25 16.7 67.65 16.15 68 16.15 68.5 16.15 69.1 16.7 69.45 17.3 69.8 18.05 69.8 18.8 69.8 19.35 69.45 19.95 69.1 19.95 68.5 19.95 68 19.35 67.65 18.8 67.25 18.05 67.25
M 18.05 62.2
Q 16.6 62.2 16.25 63.15 15.9 64.1 16.9 65.1 17.65 65.85 18.8 65.2 19.95 64.55 19.95 63.3 19.95 62.9 19.35 62.5 18.8 62.2 18.05 62.2
M 19.35 58.75
Q 18.8 58.4 18.05 58.4 17.3 58.4 16.7 58.75 16.15 59.15 16.15 59.65 16.15 60.2 16.7 60.6 17.3 60.9 18.05 60.9 18.8 60.9 19.35 60.6 19.95 60.2 19.95 59.65 19.95 59.15 19.35 58.75
M 14.3 58.75
Q 13.75 58.4 12.95 58.4 12.2 58.4 11.65 58.75 11.05 59.15 11.05 59.65 11.05 60.2 11.65 60.6 12.2 60.9 12.95 60.9 13.75 60.9 14.3 60.6 14.85 60.2 14.85 59.65 14.85 59.15 14.3 58.75
M 13.75 54.2
Q 12.55 53 11.65 53.65 10.75 54.25 11.7 55.7 11.95 56.3 12.65 56.5 13.3 56.65 13.85 56.35 15.05 55.55 13.75 54.2
M 12.95 52.05
Q 13.75 52.05 14.3 51.75 14.85 51.35 14.85 50.8 14.85 50.3 14.3 49.9 13.75 49.5 12.95 49.5 12.2 49.5 11.65 49.9 11.05 50.3 11.05 50.8 11.05 51.35 11.65 51.75 12.2 52.05 12.95 52.05
M 19.6 53.9
Q 19.25 53.3 18.8 53.3 17.6 53.3 16.9 54.45 16.25 55.6 17 56.35 18.05 57.35 19 57.05 19.95 56.65 19.95 55.2 19.95 54.45 19.6 53.9
M 19.95 50.8
Q 19.95 50.3 19.35 49.9 18.8 49.5 18.05 49.5 17.3 49.5 16.7 49.9 16.15 50.3 16.15 50.8 16.15 51.35 16.7 51.75 17.3 52.05 18.05 52.05 18.8 52.05 19.35 51.75 19.95 51.35 19.95 50.8
M 38 72.25
Q 37.05 72.5 36.65 73.7 36.4 74.3 36.7 74.6 37.05 74.9 37.65 74.7 39.05 74.05 39.05 73.2 39 72.05 38 72.25
M 32.5 71.8
Q 31.95 72.15 31.85 72.7 31.7 73.25 32.1 73.7 32.4 74.2 33 74.35 33.55 74.45 34 74.1 34.5 73.75 34.65 73.25 34.75 72.65 34.4 72.2 34.05 71.7 33.55 71.55 32.9 71.45 32.5 71.8
M 34.55 67.65
Q 34 67.25 33.25 67.25 32.5 67.25 31.9 67.65 31.35 68 31.35 68.5 31.35 69.1 31.9 69.45 32.5 69.8 33.25 69.8 34 69.8 34.55 69.45 35.15 69.1 35.15 68.5 35.15 68 34.55 67.65
M 32.75 63.45
Q 32.3 63.45 31.9 63.85 31.6 64.2 31.6 64.7 31.6 65.3 32.15 65.65 32.75 66 33.6 66 34.4 66 34.7 65.65 35 65.3 34.75 64.7 34 63.45 32.75 63.45
M 39.65 67.65
Q 39.05 67.25 38.3 67.25 37.55 67.25 36.95 67.65 36.4 68 36.4 68.5 36.4 69.1 36.95 69.45 37.55 69.8 38.3 69.8 39.05 69.8 39.65 69.45 40.2 69.1 40.2 68.5 40.2 68 39.65 67.65
M 39.65 63.85
Q 39.05 63.45 38.3 63.45 37.55 63.45 36.95 63.85 36.4 64.2 36.4 64.7 36.4 65.3 36.95 65.65 37.55 66 38.3 66 39.05 66 39.65 65.65 40.2 65.3 40.2 64.7 40.2 64.2 39.65 63.85
M 30 73.15
Q 30.05 72.9 30.05 72.55 30.05 72.05 29.75 71.7 29.45 71.35 28.95 71.3 28.8 71.3 28.6 71.3 28.25 71.35 27.9 71.7 27.55 72.15 27.55 72.55 27.55 73.15 27.9 73.5 28.3 73.85 28.8 73.85 29.75 73.85 30 73.15
M 22.85 73.5
Q 23.25 73.85 23.75 73.85 24.6 73.85 24.95 73.2 25 72.95 25 72.55 25 72.05 24.7 71.7 24.35 71.35 23.95 71.3 23.8 71.3 23.75 71.3 23.3 71.3 22.85 71.7 22.45 72.15 22.45 72.55 22.45 73.15 22.85 73.5
M 20.95 73.1
Q 20.95 72.5 20.4 72.15 19.8 71.8 19.05 71.8 18.3 71.8 17.7 72.15 17.15 72.5 17.15 73.1 17.15 73.6 17.7 73.95 18.3 74.35 19.05 74.35 19.8 74.35 20.4 73.95 20.95 73.6 20.95 73.1
M 24.45 67.65
Q 23.85 67.25 23.1 67.25 22.35 67.25 21.75 67.65 21.2 68 21.2 68.5 21.2 69.1 21.75 69.45 22.35 69.8 23.1 69.8 23.85 69.8 24.45 69.45 25 69.1 25 68.5 25 68 24.45 67.65
M 21.9 63.85
Q 21.6 64.2 21.6 64.7 21.6 65.3 22.15 65.65 22.7 66 23.6 66 24.35 66 24.7 65.65 25 65.3 24.75 64.7 24 63.45 22.7 63.45 22.3 63.45 21.9 63.85
M 29.5 67.65
Q 28.95 67.25 28.15 67.25 27.4 67.25 26.85 67.65 26.25 68 26.25 68.5 26.25 69.1 26.85 69.45 27.4 69.8 28.15 69.8 28.95 69.8 29.5 69.45 30.05 69.1 30.05 68.5 30.05 68 29.5 67.65
M 29.75 62.75
Q 29.35 62.2 28.95 62.2 27.75 62.2 27.05 63.3 26.4 64.45 27.15 65.2 28.15 66.25 29.1 65.9 30.05 65.55 30.05 64.1 30.05 63.3 29.75 62.75
M 29.5 58.75
Q 28.95 58.4 28.15 58.4 27.4 58.4 26.85 58.75 26.25 59.15 26.25 59.65 26.25 60.2 26.85 60.6 27.4 60.9 28.15 60.9 28.95 60.9 29.5 60.6 30.05 60.2 30.05 59.65 30.05 59.15 29.5 58.75
M 22.85 58.4
Q 22.35 58.4 21.95 58.95 21.6 59.5 21.6 60.3 21.6 61.05 21.95 61.6 22.35 62.2 22.85 62.2 23.4 62.2 23.8 61.6 24.1 61.05 24.1 60.3 24.1 59.5 23.8 58.95 23.4 58.4 22.85 58.4
M 25 55.2
Q 25 54.45 24.7 53.9 24.3 53.3 23.85 53.3 22.65 53.3 21.95 54.45 21.35 55.6 22.1 56.35 23.1 57.35 24.05 57.05 25 56.65 25 55.2
M 24.45 49.9
Q 23.85 49.5 23.1 49.5 22.35 49.5 21.75 49.9 21.2 50.3 21.2 50.8 21.2 51.35 21.75 51.75 22.35 52.05 23.1 52.05 23.85 52.05 24.45 51.75 25 51.35 25 50.8 25 50.3 24.45 49.9
M 26.85 54.2
Q 26.25 54.6 26.25 55.1 26.25 55.65 26.85 56.05 27.4 56.35 28.15 56.35 28.95 56.35 29.5 56.05 30.05 55.65 30.05 55.1 30.05 54.6 29.5 54.2 28.95 53.8 28.15 53.8 27.4 53.8 26.85 54.2
M 39.65 58.7
Q 39.05 58.4 38.3 58.4 37.55 58.4 36.95 58.95 36.4 59.5 36.4 60.3 36.4 62.05 38.3 61.4 40.2 60.45 40.2 59.5 40.2 59.1 39.65 58.7
M 32.85 58.4
Q 32.35 58.4 31.95 58.95 31.6 59.5 31.6 60.3 31.6 61.05 31.95 61.6 32.35 62.2 32.85 62.2 33.45 62.2 33.8 61.6 34.1 61.05 34.1 60.3 34.1 59.5 33.8 58.95 33.45 58.4 32.85 58.4
M 31.9 54.2
Q 31.35 54.6 31.35 55.1 31.35 55.65 31.9 56.05 32.5 56.35 33.25 56.35 34 56.35 34.55 56.05 35.15 55.65 35.15 55.1 35.15 54.6 34.55 54.2 34 53.8 33.25 53.8 32.5 53.8 31.9 54.2
M 33.6 52.55
Q 34.4 52.55 34.7 52.25 35 51.85 34.75 51.3 34 50 32.75 50 32.3 50 31.9 50.4 31.6 50.8 31.6 51.3 31.6 51.85 32.15 52.25 32.75 52.55 33.6 52.55
M 37.9 52.95
Q 39.4 52.75 39.95 51.05 40.15 50.4 39.7 49.95 39.3 49.5 38.45 49.5 37.6 49.5 36.95 50.1 36.4 50.7 36.4 51.55 36.4 53.2 37.9 52.95
M 38.3 54.6
Q 37.55 54.6 36.95 54.95 36.4 55.35 36.4 55.85 36.4 56.4 36.95 56.8 37.55 57.1 38.3 57.1 39.05 57.1 39.65 56.8 40.2 56.4 40.2 55.85 40.2 55.35 39.65 54.95 39.05 54.6 38.3 54.6
M 39.65 46.1
Q 39.05 45.7 38.3 45.7 37.55 45.7 36.95 46.1 36.4 46.5 36.4 47 36.4 47.55 36.95 47.95 37.55 48.25 38.3 48.25 39.05 48.25 39.65 47.95 40.2 47.55 40.2 47 40.2 46.5 39.65 46.1
M 34.55 46.1
Q 34 45.7 33.25 45.7 32.5 45.7 31.9 46.1 31.35 46.5 31.35 47 31.35 47.55 31.9 47.95 32.5 48.25 33.25 48.25 34 48.25 34.55 47.95 35.15 47.55 35.15 47 35.15 46.5 34.55 46.1
M 31.9 39.05
Q 32.5 39.4 33.35 39.4 34.1 39.4 34.45 39.05 34.75 38.7 34.5 38.1 33.75 36.85 32.5 36.85 32.05 36.85 31.65 37.25 31.35 37.6 31.35 38.1 31.35 38.7 31.9 39.05
M 34.75 42.95
Q 34 41.65 32.75 41.65 32.3 41.65 31.9 42.05 31.6 42.4 31.6 42.95 31.6 43.5 32.15 43.9 32.75 44.2 33.6 44.2 34.4 44.2 34.7 43.9 35 43.5 34.75 42.95
M 37.15 42.3
Q 36.8 42.75 36.8 43.2 36.8 43.75 37.15 44.15 37.55 44.45 38.05 44.45 39.3 44.45 39.3 43.2 39.3 42.7 39 42.3 38.6 41.9 38.05 41.9 37.6 41.9 37.15 42.3
M 39.75 37.85
Q 39.45 37.5 38.7 37.5 37.85 37.5 37.25 37.85 36.65 38.25 36.65 38.75 36.65 40 37.8 40 39.2 40 39.8 38.75 40.15 38.25 39.75 37.85
M 29.75 49.35
Q 29.35 48.75 28.95 48.75 27.75 48.75 27.05 49.9 26.4 51.05 27.15 51.8 28.15 52.8 29.1 52.5 30.05 52.1 30.05 50.65 30.05 49.9 29.75 49.35
M 26.5 46.85
Q 26.35 47.45 26.85 47.85 27.3 48.25 28.15 48.25 29.05 48.25 29.5 47.85 30 47.45 29.8 46.85 29.35 45.6 28.15 45.6 26.95 45.6 26.5 46.85
M 21.75 47.7
Q 22.35 48 23.25 48 24 48 24.3 47.7 24.6 47.3 24.35 46.75 23.6 45.45 22.35 45.45 21.9 45.45 21.5 45.85 21.2 46.2 21.2 46.75 21.2 47.3 21.75 47.7
M 21.85 41.9
Q 21.5 42.4 21.9 42.8 22.2 43.2 23 43.2 25 43.2 25 42.7 25 41.65 23.75 41.35 22.4 41.05 21.85 41.9
M 23.1 39.4
Q 23.85 39.4 24.45 39.05 25 38.7 25 38.1 25 37.6 24.45 37.25 23.85 36.85 23.1 36.85 22.35 36.85 21.75 37.25 21.2 37.6 21.2 38.1 21.2 38.7 21.75 39.05 22.35 39.4 23.1 39.4
M 29.8 42.95
Q 29.35 41.65 28.15 41.65 26.95 41.65 26.5 42.95 26.35 43.5 26.85 43.95 27.3 44.3 28.15 44.3 29.05 44.3 29.5 43.95 30 43.5 29.8 42.95
M 29.5 39.05
Q 30.05 38.7 30.05 38.1 30.05 37.6 29.5 37.25 28.95 36.85 28.15 36.85 27.4 36.85 26.85 37.25 26.25 37.6 26.25 38.1 26.25 38.7 26.85 39.05 27.4 39.4 28.15 39.4 28.95 39.4 29.5 39.05
M 29.5 33.45
Q 28.95 33.05 28.15 33.05 27.4 33.05 26.85 33.45 26.25 33.8 26.25 34.3 26.25 34.9 26.85 35.25 27.4 35.6 28.15 35.6 28.95 35.6 29.5 35.25 30.05 34.9 30.05 34.3 30.05 33.8 29.5 33.45
M 22.35 33.05
Q 21.9 33.05 21.5 33.45 21.2 33.8 21.2 34.3 21.2 34.9 21.75 35.25 22.35 35.6 23.25 35.6 24 35.6 24.3 35.25 24.6 34.9 24.35 34.3 23.6 33.05 22.35 33.05
M 21.75 29.65
Q 21.2 30 21.2 30.5 21.2 31.1 21.75 31.45 22.35 31.8 23.1 31.8 23.85 31.8 24.45 31.45 25 31.1 25 30.5 25 30 24.45 29.65 23.85 29.25 23.1 29.25 22.35 29.25 21.75 29.65
M 25 26.85
Q 25 25.9 23.1 24.95 21.2 24.3 21.2 26.1 21.2 26.85 21.75 27.4 22.35 28 23.1 28 23.85 28 24.45 27.65 25 27.3 25 26.85
M 27.1 29.65
Q 26.5 30 26.5 30.5 26.5 31.1 27.1 31.45 27.65 31.8 28.4 31.8 29.2 31.8 29.75 31.45 30.3 31.1 30.3 30.5 30.3 30 29.75 29.65 29.2 29.25 28.4 29.25 27.65 29.25 27.1 29.65
M 30.3 26.85
Q 30.3 25.9 28.4 24.95 26.5 24.3 26.5 26.1 26.5 26.85 27.1 27.4 27.65 28 28.4 28 29.2 28 29.75 27.65 30.3 27.3 30.3 26.85
M 39.65 33.5
Q 39.05 33.2 38.3 33.2 37.55 33.2 36.95 33.75 36.4 34.3 36.4 35.1 36.4 35.95 36.9 36.3 37.35 36.55 38.3 36.2 38.35 36.2 38.45 36.2 40.2 35.25 40.2 34.3 40.2 33.85 39.65 33.5
M 32.6 33.05
Q 32.15 33.05 31.7 33.45 31.35 33.85 31.35 34.3 31.35 34.9 31.7 35.25 32.1 35.6 32.6 35.6 33.85 35.6 33.85 34.3 33.85 33.8 33.55 33.45 33.15 33.05 32.6 33.05
M 32.5 29.25
Q 32.05 29.25 31.65 29.65 31.35 30 31.35 30.5 31.35 31.1 31.9 31.45 32.5 31.8 33.35 31.8 34.1 31.8 34.45 31.45 34.75 31.1 34.5 30.5 33.75 29.25 32.5 29.25
M 34.5 27.65
Q 34.8 27.3 34.55 26.7 33.8 25.45 32.55 25.45 32.1 25.45 31.7 25.85 31.4 26.2 31.4 26.7 31.4 28 33.45 28 34.2 28 34.5 27.65
M 37.9 28.75
Q 39.4 28.55 39.95 26.85 40.15 26.2 39.7 25.75 39.3 25.3 38.45 25.3 37.6 25.3 36.95 25.9 36.4 26.55 36.4 27.35 36.4 29 37.9 28.75
M 38.3 29.75
Q 37.55 29.75 36.95 30.15 36.4 30.5 36.4 31 36.4 31.6 36.95 31.95 37.55 32.3 38.3 32.3 39.05 32.3 39.65 31.95 40.2 31.6 40.2 31 40.2 30.5 39.65 30.15 39.05 29.75 38.3 29.75
M 19.3 46.75
Q 18.55 45.45 17.3 45.45 16.85 45.45 16.45 45.85 16.15 46.2 16.15 46.75 16.15 47.3 16.7 47.7 17.3 48 18.15 48 18.9 48 19.25 47.7 19.55 47.3 19.3 46.75
M 12.95 45.6
Q 11.75 45.6 11.3 46.85 11.15 47.45 11.65 47.85 12.1 48.25 12.95 48.25 13.85 48.25 14.3 47.85 14.8 47.45 14.6 46.85 14.15 45.6 12.95 45.6
M 11.05 41.9
Q 11.05 42.5 11.65 42.85 12.2 43.2 12.95 43.2 13.75 43.2 14.3 42.85 14.85 42.5 14.85 41.9 14.85 41.4 14.3 41.05 13.75 40.65 12.95 40.65 12.2 40.65 11.65 41.05 11.05 41.4 11.05 41.9
M 14.85 38.1
Q 14.85 37.6 14.3 37.25 13.75 36.85 12.95 36.85 12.2 36.85 11.65 37.25 11.05 37.6 11.05 38.1 11.05 38.7 11.65 39.05 12.2 39.4 12.95 39.4 13.75 39.4 14.3 39.05 14.85 38.7 14.85 38.1
M 16.15 41.9
Q 16.15 42.5 16.7 42.85 17.3 43.2 18.15 43.2 18.9 43.2 19.25 42.85 19.55 42.5 19.3 41.9 18.55 40.65 17.3 40.65 16.85 40.65 16.45 41.05 16.15 41.4 16.15 41.9
M 18.05 39.4
Q 18.8 39.4 19.35 39.05 19.95 38.7 19.95 38.1 19.95 37.6 19.35 37.25 18.8 36.85 18.05 36.85 17.3 36.85 16.7 37.25 16.15 37.6 16.15 38.1 16.15 38.7 16.7 39.05 17.3 39.4 18.05 39.4
M 17.3 33.05
Q 16.85 33.05 16.45 33.45 16.15 33.8 16.15 34.3 16.15 34.9 16.7 35.25 17.3 35.6 18.15 35.6 18.9 35.6 19.25 35.25 19.55 34.9 19.3 34.3 18.55 33.05 17.3 33.05
M 13.6 34.3
Q 13.6 33.8 13.3 33.45 12.9 33.05 12.35 33.05 11.9 33.05 11.45 33.45 11.05 33.85 11.05 34.3 11.05 34.9 11.45 35.25 11.85 35.6 12.35 35.6 13.6 35.6 13.6 34.3
M 12.45 29.25
Q 12 29.25 11.65 29.65 11.3 30 11.3 30.5 11.3 31.8 13.35 31.8 14.1 31.8 14.45 31.45 14.75 31.1 14.5 30.5 13.75 29.25 12.45 29.25
M 16.7 29.65
Q 16.15 30 16.15 30.5 16.15 31.1 16.7 31.45 17.3 31.8 18.05 31.8 18.8 31.8 19.35 31.45 19.95 31.1 19.95 30.5 19.95 30 19.35 29.65 18.8 29.25 18.05 29.25 17.3 29.25 16.7 29.65
M 19.35 25.85
Q 18.8 25.45 18.05 25.45 17.3 25.45 16.7 25.85 16.15 26.2 16.15 26.7 16.15 27.3 16.7 27.65 17.3 28 18.05 28 18.8 28 19.35 27.65 19.95 27.3 19.95 26.7 19.95 26.2 19.35 25.85
M 36.8 22.05
Q 36.4 22.45 36.4 22.9 36.4 23.5 36.8 23.85 37.15 24.2 37.65 24.2 38.95 24.2 38.95 22.9 38.95 22.4 38.6 22.05 38.25 21.65 37.65 21.65 37.25 21.65 36.8 22.05
M 31.65 22.8
Q 31.45 23.35 31.95 23.8 32.4 24.2 33.3 24.2 34.2 24.2 34.65 23.8 35.15 23.35 34.95 22.8 34.5 21.5 33.3 21.5 32.1 21.5 31.65 22.8
M 31.7 15.05
Q 30.95 15.4 31.2 15.55 31.45 15.8 32.5 15.8 33.5 15.9 34 15.7 34.5 15.5 34.1 15.2 33.8 14.85 33.1 14.85 32.35 14.8 31.7 15.05
M 33.35 18.25
Q 33.25 17.85 32.75 17.85 32.15 17.85 31.8 18.25 31.35 18.6 31.35 19.1 31.35 20.4 31.85 20.4 32.6 20.4 33.25 19.1 33.55 18.65 33.35 18.25
M 36.55 17.85
Q 36.3 18.05 36.1 18.3 35.95 18.5 35.9 18.75 35.75 19.25 36.1 19.7
L 36.15 19.75
Q 36.45 20.25 37.05 20.4 37.6 20.5 38.05 20.15 38.55 19.8 38.7 19.3 38.8 18.65 38.45 18.25 38.1 17.7 37.6 17.6 36.95 17.45 36.55 17.85
M 38.95 14.55
Q 38.95 14.05 38.35 13.65 37.75 13.3 36.9 13.3 36.15 13.3 35.85 13.65 35.45 14.05 35.75 14.55 36.4 15.8 37.8 15.8 38.95 15.8 38.95 14.55
M 28.15 24.2
Q 28.8 24.2 29.45 22.9 29.75 22.4 29.35 22.05 29 21.65 28.15 21.65 27.35 21.65 26.95 22.05 26.6 22.4 26.9 22.9 27.55 24.2 28.15 24.2
M 24.6 22.15
Q 24.3 21.85 23.6 21.85 22.85 21.8 22.2 22.05 21.45 22.35 21.7 22.55 21.95 22.8 23 22.8 24 22.85 24.5 22.65 25 22.45 24.6 22.15
M 29.35 18.25
Q 29 17.85 28.15 17.85 27.35 17.85 26.95 18.25 26.6 18.6 26.9 19.1 27.55 20.4 28.15 20.4 28.8 20.4 29.45 19.1 29.75 18.6 29.35 18.25
M 79.45 48.4
Q 79.45 47.45 77.55 46.5 75.65 45.85 75.65 47.6 75.65 48.4 76.25 48.95 76.8 49.5 77.55 49.5 78.35 49.5 78.9 49.2 79.45 48.8 79.45 48.4
M 73 46.65
Q 72.55 46.15 72 45.95 71.45 45.8 71.05 46.3 70.6 46.75 70.6 47.6 70.6 48.5 71.05 48.95 71.45 49.45 72 49.25 72.55 49.05 73 48.55 73.4 48.1 73.4 47.6 73.4 47.1 73 46.65
M 72.5 40.65
Q 73.25 40.65 73.85 40.35 74.4 39.95 74.4 39.4 74.4 38.9 73.85 38.5 73.25 38.1 72.5 38.1 71.75 38.1 71.15 38.5 70.6 38.9 70.6 39.4 70.6 39.95 71.15 40.35 71.75 40.65 72.5 40.65
M 73.75 43.2
Q 73 41.9 71.75 41.9 71.3 41.9 70.9 42.3 70.6 42.7 70.6 43.2 70.6 43.75 71.15 44.15 71.75 44.45 72.65 44.45 73.4 44.45 73.7 44.15 74 43.75 73.75 43.2
M 76.8 41.9
Q 76.35 41.9 76 42.3 75.65 42.7 75.65 43.2 75.65 43.75 76.25 44.15 76.8 44.45 77.7 44.45 78.45 44.45 78.75 44.15 79.1 43.75 78.85 43.2 78.1 41.9 76.8 41.9
M 79.45 39.4
Q 79.45 38.9 78.9 38.5 78.35 38.1 77.55 38.1 76.8 38.1 76.25 38.5 75.65 38.9 75.65 39.4 75.65 39.95 76.25 40.35 76.8 40.65 77.55 40.65 78.35 40.65 78.9 40.35 79.45 39.95 79.45 39.4
M 67.2 46.3
Q 66.8 46.85 66.8 47.6 66.8 48.4 67.2 48.95 67.55 49.5 68.05 49.5 68.65 49.5 69 48.95 69.35 48.4 69.35 47.6 69.35 46.85 69 46.3 68.65 45.7 68.05 45.7 67.55 45.7 67.2 46.3
M 63 48.9
Q 64.25 48.25 64.25 46.85 64.25 45.7 63 45.7 62.5 45.7 62.1 46.3 61.75 46.9 61.75 47.75 61.75 48.5 62.1 48.8 62.5 49.2 63 48.9
M 63 41.9
Q 62.55 41.9 62.1 42.3 61.75 42.75 61.75 43.2 61.75 43.75 62.1 44.15 62.5 44.45 63 44.45 64.25 44.45 64.25 43.2 64.25 42.7 63.95 42.3 63.55 41.9 63 41.9
M 64.25 39.4
Q 64.25 38.9 63.95 38.5 63.55 38.1 63 38.1 62.55 38.1 62.1 38.5 61.75 38.95 61.75 39.4 61.75 39.95 62.1 40.35 62.5 40.65 63 40.65 64.25 40.65 64.25 39.4
M 68.05 42.6
Q 66.75 42.3 66.15 43.2 65.85 43.7 66.25 44.05 66.55 44.45 67.3 44.45 69.35 44.45 69.35 43.95 69.35 42.95 68.05 42.6
M 69.35 39.4
Q 69.35 38.9 68.75 38.5 68.15 38.1 67.3 38.1 66.55 38.1 66.25 38.5 65.85 38.9 66.15 39.4 66.8 40.65 68.2 40.65 69.35 40.65 69.35 39.4
M 67.45 36.85
Q 68.05 36.85 68.7 35.6 69 35.1 68.65 34.7 68.25 34.3 67.45 34.3 66.6 34.3 66.25 34.7 65.85 35.1 66.15 35.6 66.8 36.85 67.45 36.85
M 62.35 34.3
Q 61.55 34.3 61.15 34.7 60.8 35.1 61.1 35.6 61.75 36.85 62.35 36.85 63 36.85 63.65 35.6 63.95 35.1 63.55 34.7 63.2 34.3 62.35 34.3
M 62.8 30.15
Q 62.35 30.15 61.95 30.5 61.55 30.95 61.55 31.4 61.55 31.95 61.95 32.35 62.3 32.65 62.8 32.65 64.1 32.65 64.1 31.4 64.1 30.9 63.75 30.5 63.4 30.15 62.8 30.15
M 64.25 27.1
Q 64.25 26.6 63.95 26.2 63.55 25.85 63 25.85 62.55 25.85 62.1 26.2 61.75 26.65 61.75 27.1 61.75 27.65 62.1 28.05 62.5 28.35 63 28.35 64.25 28.35 64.25 27.1
M 67.3 30.5
Q 66.55 30.5 66.25 30.9 65.85 31.3 66.15 31.8 66.8 33.05 68.2 33.05 69.35 33.05 69.35 31.8 69.35 31.3 68.75 30.9 68.15 30.5 67.3 30.5
M 69.35 27.1
Q 69.35 26.6 68.75 26.2 68.15 25.85 67.3 25.85 66.55 25.85 66.25 26.2 65.85 26.6 66.15 27.1 66.8 28.35 68.2 28.35 69.35 28.35 69.35 27.1
M 76.05 36.55
Q 76.45 36.85 76.95 36.85 78.2 36.85 78.2 35.6 78.2 35.1 77.9 34.7 77.5 34.3 76.95 34.3 76.5 34.3 76.05 34.7 75.65 35.15 75.65 35.6 75.65 36.15 76.05 36.55
M 73.7 34.7
Q 73.4 34.3 72.65 34.3 71.8 34.3 71.15 34.7 70.6 35.1 70.6 35.6 70.6 36.85 71.75 36.85 73.15 36.85 73.75 35.6 74.1 35.1 73.7 34.7
M 73.85 30.9
Q 73.25 30.5 72.5 30.5 71.75 30.5 71.15 30.9 70.6 31.3 70.6 31.8 70.6 32.35 71.15 32.75 71.75 33.05 72.5 33.05 73.25 33.05 73.85 32.75 74.4 32.35 74.4 31.8 74.4 31.3 73.85 30.9
M 72.5 25.45
Q 71.75 25.45 71.15 26 70.6 26.6 70.6 27.35 70.6 28.1 71.15 28.7 71.75 29.25 72.5 29.25 73.25 29.25 73.85 28.7 74.4 28.1 74.4 27.35 74.4 26.6 73.85 26 73.25 25.45 72.5 25.45
M 76.1 28.7
Q 76.5 29.2 77.05 29 77.65 28.8 78.1 28.3 78.45 27.85 78.45 27.35 78.45 26.85 78.1 26.4 77.65 25.9 77.05 25.7 76.5 25.5 76.1 26 75.65 26.45 75.65 27.35 75.65 28.25 76.1 28.7
M 77.55 30.5
Q 76.8 30.5 76.25 30.9 75.65 31.3 75.65 31.8 75.65 32.35 76.25 32.75 76.8 33.05 77.55 33.05 78.35 33.05 78.9 32.75 79.45 32.35 79.45 31.8 79.45 31.3 78.9 30.9 78.35 30.5 77.55 30.5
M 57.95 45.7
Q 57.5 45.7 57.05 46.1 56.65 46.55 56.65 47 56.65 47.55 57.05 47.95 57.45 48.25 57.95 48.25 59.2 48.25 59.2 47 59.2 46.5 58.9 46.1 58.5 45.7 57.95 45.7
M 52.85 48.25
Q 54.15 48.25 54.15 47 54.15 46.5 53.8 46.1 53.45 45.7 52.85 45.7 52.45 45.7 52 46.1 51.6 46.55 51.6 47 51.6 47.55 52 47.95 52.35 48.25 52.85 48.25
M 52.85 41.9
Q 52.45 41.9 52 42.3 51.6 42.75 51.6 43.2 51.6 43.75 52 44.15 52.35 44.45 52.85 44.45 54.15 44.45 54.15 43.2 54.15 42.7 53.8 42.3 53.45 41.9 52.85 41.9
M 54.15 38.75
Q 54.15 38 53.8 37.4 53.45 36.85 52.85 36.85 52.35 36.85 52 37.4 51.6 38 51.6 38.75 51.6 39.5 52 40.1 52.35 40.65 52.85 40.65 53.45 40.65 53.8 40.1 54.15 39.5 54.15 38.75
M 58.05 41.9
Q 56.8 41.9 56.05 43.2 55.8 43.75 56.1 44.15 56.4 44.45 57.2 44.45 58.05 44.45 58.65 44.15 59.2 43.75 59.2 43.2 59.2 42.7 58.9 42.3 58.5 41.9 58.05 41.9
M 57.95 38.8
Q 56.6 38.5 56.05 39.4 55.7 39.9 56.1 40.25 56.4 40.65 57.2 40.65 59.2 40.65 59.2 40.15 59.2 39.15 57.95 38.8
M 47.8 48.25
Q 49.05 48.25 49.05 47 49.05 46.5 48.75 46.1 48.35 45.7 47.8 45.7 47.35 45.7 46.9 46.1 46.55 46.55 46.55 47 46.55 47.55 46.9 47.95 47.3 48.25 47.8 48.25
M 45.25 47
Q 45.25 46.5 44.7 46.1 44.15 45.7 43.35 45.7 42.6 45.7 42.05 46.1 41.45 46.5 41.45 47 41.45 47.55 42.05 47.95 42.6 48.25 43.35 48.25 44.15 48.25 44.7 47.95 45.25 47.55 45.25 47
M 42.05 42.3
Q 41.45 42.7 41.45 43.2 41.45 44.45 42.6 44.45 44 44.45 44.65 43.2 44.95 42.7 44.55 42.3 44.25 41.9 43.5 41.9 42.65 41.9 42.05 42.3
M 43.95 40.1
Q 44.25 39.5 44.25 38.75 44.25 38 43.95 37.4 43.55 36.85 43 36.85 42.5 36.85 42.1 37.4 41.7 38 41.7 38.75 41.7 39.5 42.1 40.1 42.5 40.65 43 40.65 43.55 40.65 43.95 40.1
M 46.9 42.3
Q 46.55 42.75 46.55 43.2 46.55 43.75 46.9 44.15 47.3 44.45 47.8 44.45 49.05 44.45 49.05 43.2 49.05 42.7 48.75 42.3 48.35 41.9 47.8 41.9 47.35 41.9 46.9 42.3
M 46.55 38.9
Q 46.55 39.65 46.9 39.95 47.3 40.35 47.8 40 49.05 39.4 49.05 38 49.05 36.85 47.8 36.85 47.3 36.85 46.9 37.4 46.55 38.05 46.55 38.9
M 46.75 34.2
Q 46.35 34.65 46.35 35.1 46.35 35.65 46.75 36.05 47.1 36.35 47.6 36.35 48.9 36.35 48.9 35.1 48.9 34.55 48.55 34.2 48.2 33.8 47.6 33.8 47.15 33.8 46.75 34.2
M 48.75 32.05
Q 49 31.8 48.7 31.4 47.8 30.75 46.9 31.4 46.65 31.8 46.9 32.05 47.15 32.3 47.8 32.3 48.5 32.3 48.75 32.05
M 42.1 34.7
Q 41.85 35.1 42.1 35.35 42.35 35.6 43 35.6 43.7 35.6 43.95 35.35 44.2 35.1 43.9 34.7 43 34.05 42.1 34.7
M 43.35 30.4
Q 42.6 30.4 42.05 30.75 41.45 31.15 41.45 31.65 41.45 32.25 42.05 32.6 42.6 32.9 43.35 32.9 44.15 32.9 44.7 32.6 45.25 32.25 45.25 31.65 45.25 31.15 44.7 30.75 44.15 30.4 43.35 30.4
M 45 27.6
Q 44.45 25.9 43 25.7 41.45 25.45 41.45 27.1 41.45 28 42.05 28.55 42.65 29.1 43.5 29.1 44.4 29.1 44.75 28.7 45.2 28.3 45 27.6
M 49.05 27.1
Q 49.05 26.6 48.75 26.2 48.35 25.85 47.8 25.85 47.35 25.85 46.9 26.2 46.55 26.65 46.55 27.1 46.55 27.65 46.9 28.05 47.3 28.35 47.8 28.35 49.05 28.35 49.05 27.1
M 56.1 34.7
Q 55.7 35.1 56.05 35.6 56.65 36.85 57.3 36.85 57.95 36.85 58.55 35.6 58.9 35.1 58.5 34.7 58.15 34.3 57.3 34.3 56.5 34.3 56.1 34.7
M 56.35 31.7
L 56.3 31.8
Q 56.05 32.35 56.15 32.75 56.25 32.85 56.35 33 56.55 33.05 56.8 33.05 57.35 33.05 57.8 32.75 58.2 32.35 58.2 31.8 58.2 30.5 57.7 30.5 57.05 30.5 56.35 31.7
M 52.85 35.6
Q 53.55 35.6 53.8 35.35 54.05 35.1 53.75 34.7 52.85 34.05 52 34.7 51.75 35.1 52 35.35 52.25 35.6 52.85 35.6
M 53.55 30.9
Q 52.95 30.5 52.1 30.5 51.35 30.5 51.05 30.9 50.65 31.3 50.95 31.8 51.6 33.05 53 33.05 54.15 33.05 54.15 31.8 54.15 31.3 53.55 30.9
M 53 28.35
Q 54.15 28.35 54.15 27.1 54.15 26.6 53.55 26.2 52.95 25.85 52.1 25.85 51.35 25.85 51.05 26.2 50.65 26.6 50.95 27.1 51.6 28.35 53 28.35
M 58.95 27.65
Q 59.1 27.05 58.7 26.6 58.4 26.1 57.85 25.95 57.25 25.85 56.8 26.2 56.55 26.4 56.35 26.65 56.25 26.85 56.15 27.1 56.05 27.6 56.35 28.05
L 56.4 28.1
Q 56.75 28.6 57.3 28.75 57.85 28.85 58.3 28.5 58.8 28.15 58.95 27.65
M 56.05 22.9
Q 56.65 24.2 58.05 24.2 59.2 24.2 59.2 22.9 59.2 22.4 58.65 22.05 58 21.65 57.2 21.65 56.4 21.65 56.1 22.05 55.7 22.4 56.05 22.9
M 52 22.05
Q 51.6 22.45 51.6 22.9 51.6 23.5 52 23.85 52.35 24.2 52.85 24.2 54.15 24.2 54.15 22.9 54.15 22.4 53.8 22.05 53.45 21.65 52.85 21.65 52.45 21.65 52 22.05
M 52.85 17.85
Q 52.45 17.85 52 18.25 51.6 18.65 51.6 19.1 51.6 19.7 52 20.05 52.35 20.4 52.85 20.4 54.15 20.4 54.15 19.1 54.15 18.6 53.8 18.25 53.45 17.85 52.85 17.85
M 54.15 14.7
Q 54.15 13.9 53.8 13.35 53.45 12.8 52.85 12.8 52.35 12.8 52 13.35 51.6 13.9 51.6 14.7 51.6 15.45 52 16 52.35 16.6 52.85 16.6 53.45 16.6 53.8 16 54.15 15.45 54.15 14.7
M 58.65 18.25
Q 58.05 17.85 57.3 17.85 56.55 17.85 55.95 18.25 55.4 18.6 55.4 19.1 55.4 19.7 55.95 20.05 56.55 20.4 57.3 20.4 58.05 20.4 58.65 20.05 59.2 19.7 59.2 19.1 59.2 18.6 58.65 18.25
M 56.4 13.55
Q 55.45 14.1 56.1 15.4 56.75 16.6 58.05 16.6 58.5 16.6 58.9 16.25 59.2 15.95 59.2 15.55 59.2 14.3 58.3 13.65 57.35 12.95 56.4 13.55
M 46.9 23.85
Q 47.3 24.2 47.8 24.2 49.05 24.2 49.05 22.9 49.05 22.4 48.75 22.05 48.35 21.65 47.8 21.65 47.35 21.65 46.9 22.05 46.55 22.45 46.55 22.9 46.55 23.5 46.9 23.85
M 41.45 22.8
Q 41.45 23.35 42.05 23.75 42.6 24.05 43.35 24.05 44.15 24.05 44.7 23.75 45.25 23.35 45.25 22.8 45.25 22.3 44.7 21.9 44.15 21.5 43.35 21.5 42.6 21.5 42.05 21.9 41.45 22.3 41.45 22.8
M 40.85 14.55
Q 41.45 15.8 42.85 15.8 44 15.8 44 14.55 44 14.05 43.45 13.65 42.8 13.3 42 13.3 41.2 13.3 40.9 13.65 40.5 14.05 40.85 14.55
M 42.75 17.45
Q 42.3 17.45 41.85 17.85 41.45 18.3 41.45 18.75 41.45 19.3 41.85 19.7 42.25 20 42.75 20 44 20 44 18.75 44 18.25 43.7 17.85 43.3 17.45 42.75 17.45
M 47.95 15.8
Q 49.05 15.8 49.05 14.55 49.05 14.05 48.5 13.65 47.85 13.3 47.05 13.3 46.3 13.3 45.95 13.65 45.6 14.05 45.9 14.55 46.55 15.8 47.95 15.8
M 47.05 17.45
Q 46.3 17.45 45.95 17.85 45.6 18.25 45.9 18.75 46.55 20 47.95 20 49.05 20 49.05 18.75 49.05 18.25 48.5 17.85 47.85 17.45 47.05 17.45
M 76.8 21.65
Q 76.35 21.65 76 22.05 75.65 22.4 75.65 22.9 75.65 23.5 76.25 23.85 76.8 24.2 77.7 24.2 78.45 24.2 78.75 23.85 79.1 23.5 78.85 22.9 78.1 21.65 76.8 21.65
M 71.15 23.85
Q 71.75 24.2 72.5 24.2 73.25 24.2 73.85 23.85 74.4 23.5 74.4 22.9 74.4 22.4 73.85 22.05 73.25 21.65 72.5 21.65 71.75 21.65 71.15 22.05 70.6 22.4 70.6 22.9 70.6 23.5 71.15 23.85
M 72.5 17.85
Q 71.75 17.85 71.15 18.25 70.6 18.6 70.6 19.1 70.6 19.7 71.15 20.05 71.75 20.4 72.5 20.4 73.25 20.4 73.85 20.05 74.4 19.7 74.4 19.1 74.4 18.6 73.85 18.25 73.25 17.85 72.5 17.85
M 66.15 22.9
Q 66.8 24.2 68.2 24.2 69.35 24.2 69.35 22.9 69.35 22.4 68.75 22.05 68.15 21.65 67.3 21.65 66.55 21.65 66.25 22.05 65.85 22.4 66.15 22.9
M 61.1 22.9
Q 61.75 24.2 63.15 24.2 64.25 24.2 64.25 22.9 64.25 22.4 63.7 22.05 63.05 21.65 62.25 21.65 61.5 21.65 61.15 22.05 60.8 22.4 61.1 22.9
M 63.95 18.25
Q 63.55 17.85 63.15 17.85 61.85 17.85 61.1 19.1 60.85 19.7 61.15 20.05 61.5 20.4 62.25 20.4 63.15 20.4 63.7 20.05 64.25 19.7 64.25 19.1 64.25 18.6 63.95 18.25
M 63.7 14.45
Q 63.15 14.05 62.35 14.05 61.6 14.05 61.05 14.45 60.45 14.8 60.45 15.3 60.45 15.9 61.05 16.25 61.6 16.6 62.35 16.6 63.15 16.6 63.7 16.25 64.25 15.9 64.25 15.3 64.25 14.8 63.7 14.45
M 68.3 15.2
Q 68 14.85 67.3 14.85 66.55 14.8 65.9 15.05 65.15 15.4 65.4 15.55 65.65 15.8 66.7 15.8 67.7 15.9 68.2 15.7 68.7 15.5 68.3 15.2
M 67.45 17.85
Q 66.7 17.85 66.1 18.25 65.55 18.6 65.55 19.1 65.55 19.7 66.1 20.05 66.7 20.4 67.45 20.4 68.2 20.4 68.75 20.05 69.35 19.7 69.35 19.1 69.35 18.6 68.75 18.25 68.2 17.85 67.45 17.85
M 82 64.7
Q 81.55 64.7 81.1 65.1 80.75 65.55 80.75 66 80.75 66.55 81.1 66.95 81.5 67.25 82 67.25 83.25 67.25 83.25 66 83.25 65.5 82.95 65.1 82.55 64.7 82 64.7
M 88.35 61.7
Q 88.35 60.9 87.05 60.3 86.65 60.05 86.2 60.15 85.8 60.35 85.8 60.8 85.8 61.35 86.2 61.8 86.55 62.2 87.05 62.2 88.35 62.2 88.35 61.7
M 88.35 57.1
Q 88.35 56.6 88 56.25 87.65 55.85 87.05 55.85 86.65 55.85 86.2 56.25 85.8 56.65 85.8 57.1 85.8 57.7 86.2 58.05 86.55 58.4 87.05 58.4 88.35 58.4 88.35 57.1
M 82.95 60.05
Q 82.55 59.65 82 59.65 81.55 59.65 81.1 60.05 80.75 60.45 80.75 60.9 80.75 61.5 81.1 61.85 81.5 62.2 82 62.2 83.25 62.2 83.25 60.9 83.25 60.4 82.95 60.05
M 83.25 57.1
Q 83.25 56.6 82.95 56.25 82.55 55.85 82 55.85 81.55 55.85 81.1 56.25 80.75 56.65 80.75 57.1 80.75 57.7 81.1 58.05 81.5 58.4 82 58.4 83.25 58.4 83.25 57.1
M 82.95 51.15
Q 82.55 50.8 82 50.8 81.55 50.8 81.1 51.15 80.75 51.6 80.75 52.05 80.75 52.6 81.1 53 81.5 53.3 82 53.3 83.25 53.3 83.25 52.05 83.25 51.55 82.95 51.15
M 88.35 52.8
Q 88.35 51.8 87.05 51.5 85.75 51.15 85.15 52.05 84.85 52.55 85.25 52.95 85.55 53.3 86.3 53.3 88.35 53.3 88.35 52.8
M 85.25 47.35
Q 84.85 47.75 85.15 48.25 85.8 49.5 86.45 49.5 87.05 49.5 87.7 48.25 88 47.75 87.65 47.35 87.25 47 86.45 47 85.6 47 85.25 47.35
M 82.95 47.35
Q 82.55 47 82 47 81.55 47 81.1 47.35 80.75 47.8 80.75 48.25 80.75 48.8 81.1 49.2 81.5 49.5 82 49.5 83.25 49.5 83.25 48.25 83.25 47.75 82.95 47.35
M 82 41.9
Q 81.55 41.9 81.1 42.3 80.75 42.75 80.75 43.2 80.75 43.75 81.1 44.15 81.5 44.45 82 44.45 83.25 44.45 83.25 43.2 83.25 42.7 82.95 42.3 82.55 41.9 82 41.9
M 83.25 39.4
Q 83.25 38.9 82.95 38.5 82.55 38.1 82 38.1 81.55 38.1 81.1 38.5 80.75 38.95 80.75 39.4 80.75 39.95 81.1 40.35 81.5 40.65 82 40.65 83.25 40.65 83.25 39.4
M 87.05 43.2
Q 87.05 41.9 86.55 41.9 85.95 41.9 85.15 43.2 84.9 43.75 85.05 44.15 85.15 44.45 85.7 44.45 86.25 44.45 86.7 44.15 87.05 43.75 87.05 43.2
M 88.35 40.15
Q 88.35 39.15 87.05 38.8 85.75 38.5 85.15 39.4 84.85 39.9 85.25 40.25 85.55 40.65 86.3 40.65 88.35 40.65 88.35 40.15
M 86.05 34.7
Q 85.8 34.95 85.8 35.6 85.8 36.3 86.05 36.55 86.3 36.8 86.7 36.45 87.4 35.6 86.7 34.7 86.3 34.45 86.05 34.7
M 83.25 35.6
Q 83.25 35.1 82.95 34.7 82.55 34.3 82 34.3 81.55 34.3 81.1 34.7 80.75 35.15 80.75 35.6 80.75 36.15 81.1 36.55 81.5 36.85 82 36.85 83.25 36.85 83.25 35.6
M 86.05 30.5
Q 85.6 30.5 85.15 30.9 84.8 31.35 84.8 31.8 84.8 32.35 85.15 32.75 85.55 33.05 86.05 33.05 87.3 33.05 87.3 31.8 87.3 31.3 87 30.9 86.65 30.5 86.05 30.5
M 82.95 30.9
Q 82.55 30.5 82 30.5 81.55 30.5 81.1 30.9 80.75 31.35 80.75 31.8 80.75 32.35 81.1 32.75 81.5 33.05 82 33.05 83.25 33.05 83.25 31.8 83.25 31.3 82.95 30.9
M 82.95 26
Q 82.55 25.45 82 25.45 81.5 25.45 81.1 26 80.75 26.6 80.75 27.35 80.75 28.1 81.1 28.7 81.5 29.25 82 29.25 82.55 29.25 82.95 28.7 83.25 28.1 83.25 27.35 83.25 26.6 82.95 26 Z"/>
</g>
</defs>

<g transform="matrix( 1, 0, 0, 1, 0,0) ">
<use xlink:href="#Layer1_0_FILL"/>
</g>
</svg>
