
<svg xmlns="http://www.w3.org/2000/svg" version="1.1" xmlns:xlink="http://www.w3.org/1999/xlink" preserveAspectRatio="none" x="0px" y="0px" width="100px" height="100px" viewBox="0 0 100 100">
<defs>
<g id="Layer1_0_FILL">
<path fill="#000000" stroke="none" d="
M 42.3 89.2
Q 42.3 89.65 42.7 89.65 43.15 89.65 43.15 89.2 43.15 88.75 42.7 88.75 42.3 88.75 42.3 89.2
M 51.3 72.75
Q 51.65 72 51.3 72 50.6 72 46.4 77.2 42.15 82.3 41.05 84.35 40.4 85.6 44.45 81.35 48.5 77.05 50.3 74.55 51.05 73.5 51.3 72.75
M 59.9 69.1
Q 59.9 68.65 59.55 68.85 59.15 69.05 58.5 69.8 57.3 71.4 56.2 72.75 54.7 74.55 49.5 80.55 44.05 87 44.05 87.45 44.05 88.35 45.95 86.45 47.9 84.5 52.85 78.5 59.9 70 59.9 69.1
M 47.55 65.4
Q 47.55 65.8 48 65.8 48.45 65.8 48.45 65.4 48.45 64.95 48 64.95 47.55 64.95 47.55 65.4
M 42.3 61.85
Q 42.3 61.4 41.85 61.4 41.4 61.4 41.4 61.85 41.4 62.3 41.85 62.3 42.3 62.3 42.3 61.85
M 69.8 70.25
Q 71.75 67.1 70.5 68.4 69.25 69.65 64.4 75.7 59.2 82.45 60.2 82.05 61.2 81.55 64.55 77.45 68 73.25 69.8 70.25
M 63.8 70.95
Q 65.9 67.7 64.95 68.05 64.05 68.45 61.7 71.8 58.75 75.9 53.4 81.5 48.25 87 49.05 87 49.85 87 55.95 80.4 62.05 73.75 63.8 70.95
M 80.9 52.95
Q 80.6 52.65 77.45 56.65 74.25 60.55 72.7 63.1 72.4 63.65 72.45 63.9 72.5 64.05 72.9 63.8 74.05 63.05 77.65 58.2 81.25 53.35 80.9 52.95
M 72.7 57
Q 72.25 57 72.25 57.45 72.25 57.9 72.7 57.9 73.15 57.9 73.15 57.45 73.15 57 72.7 57
M 71.3 59.8
Q 71.75 59.05 71.15 59.55 69.5 60.9 67.75 63.35 65.7 66.2 66.4 65.75 67.1 65.3 69.65 62.1 70.85 60.55 71.3 59.8
M 29.5 86.1
Q 28.7 87.65 30.05 86.1 31.45 84.55 36.1 78.6 41.85 71.4 42.6 70.35 43.4 69.2 43 68.9 42.65 68.6 36.65 76.25 30.65 83.95 29.5 86.1
M 36.45 84.35
Q 34.05 87.35 34.2 87.25 34.35 87.2 37.5 83.8 41.3 79.9 45.4 74.2 49.5 68.45 48.55 68.45 48.2 68.45 46.8 70.25 45.3 72.05 43.7 74.45 38.85 81.35 36.45 84.35
M 18.45 75.1
Q 18.45 75.5 18.9 75.5 19.35 75.5 19.35 75.1 19.35 74.65 18.9 74.65 18.45 74.65 18.45 75.1
M 12.3 74.2
Q 12.3 73.75 11.85 73.75 11.4 73.75 11.4 74.2 11.4 74.65 11.85 74.65 12.3 74.65 12.3 74.2
M 4.35 67.15
Q 4.35 67.6 4.8 67.6 5.2 67.6 5.2 67.15 5.2 66.7 4.8 66.7 4.35 66.7 4.35 67.15
M 5.2 65.4
Q 5.2 65.75 5.6 65.45 5.9 65.2 6.3 64.5 7.2 62.8 13 55.4 18.6 48.05 18.2 47.65 17.65 47.1 11.45 55.65 5.2 64.15 5.2 65.4
M 18.45 52.65
Q 17.35 54.7 11.95 61.65 6.35 69.1 5.75 70.25 3.85 73.65 12.9 62.3 17.8 56.1 19.55 53.45 21.3 50.8 20.4 50.8 20 50.8 19.45 51.35 18.85 51.9 18.45 52.65
M 37.15 62.05
Q 36.4 63.05 32.15 69.8 27.35 77.45 28.45 76.4 30.1 74.75 34.4 68.35 38.65 61.95 38.3 61.6 37.8 61.1 37.15 62.05
M 32.55 63.15
Q 32.25 63.15 31.1 64.55 29.95 65.95 28.7 67.85 24.3 74.35 22.45 76.85
L 19.25 81.25 22.85 77.3
Q 26.35 73.45 29.95 68.35 33.45 63.15 32.55 63.15
M 39.3 66.95
Q 39 66.6 35.25 71.65 31.45 76.65 28.8 80.9 26.7 84.1 27.7 83.3 28.75 82.45 31.8 78.45 40 67.6 39.3 66.95
M 25.85 59.85
Q 27.7 57.05 27.2 57.15 26.2 57.55 19.3 67.05 12.35 76.65 12.3 77.75 12.3 78.55 13.6 76.95 14.9 75.35 21.1 66.8 24.05 62.7 25.85 59.85
M 29.15 61.75
Q 29.95 60.3 29.75 60.1 29.45 59.8 24.8 66.25 20.2 72.8 20.2 73.6 20.2 74.95 27 65.1 28.35 63.25 29.15 61.75
M 22.35 58.4
Q 27.35 51.45 27.1 50.75 26.85 49.95 22.65 55.8 18.4 61.65 15.35 67.05 12.7 71.8 12.65 72.75 12.55 73.65 15.2 69.15 17.3 65.55 22.35 58.4
M 37.95 40.25
Q 35.05 43.3 32.45 46.55 29.85 49.65 29.05 51.1 28.3 52.35 28 53.4 27.7 54.35 28.05 54.35 28.45 54.35 28.8 54.15 29.05 53.85 29.05 53.55 29.05 53.25 30.6 51.05 32.15 48.9 34.25 46.25
L 42.3 36.25
Q 44.5 33.45 37.95 40.25
M 22.15 47.55
Q 22 47.75 22 48.15 22 48.65 22.15 48.85 22.35 49 22.6 48.8 23.1 48.15 22.6 47.55 22.35 47.4 22.15 47.55
M 23.75 45.95
Q 23.75 46.4 24.2 46.4 24.65 46.4 24.65 45.95 24.65 45.55 24.2 45.55 23.75 45.55 23.75 45.95
M 35.6 26.75
Q 36.75 25.25 36.35 25.25 35.55 25.25 29.2 32.45 22.8 39.6 21.8 41.55 21.45 42.3 22.25 41.65 23 41 24.35 39.35 28.25 34.7 32.5 30.35 34.5 28.2 35.6 26.75
M 32.65 35.8
Q 37 30.25 36.7 30 36.4 29.6 31.4 35.45 26.4 41.35 25.35 43.3 24.75 44.5 24.8 44.55 24.85 44.65 25.8 43.75 28.25 41.3 32.65 35.8
M 17.5 43.3
Q 17.85 42.35 17.15 42.9 15.9 43.85 11.9 49.85 7.85 55.75 7.85 56.65 7.85 57.6 15.8 45.95 17.1 44.15 17.5 43.3
M 20.15 37.85
Q 19.3 39.35 19.6 39.35 20.2 39.35 27.3 31.3 34.45 23.2 34.05 22.95 33.6 22.45 27.45 29.05 21.3 35.6 20.15 37.85
M 70 48.35
Q 74.1 42.75 72.85 43.45 71.55 44.15 66.8 50.1 62.6 55.4 60.05 58.35 57.7 61.1 52.95 66.15 51.65 67.55 51 68.45 50.35 69.4 50.75 69.25 51.9 68.85 59.45 60.65 67 52.4 70 48.35
M 64.15 40.6
Q 63.95 40.45 62.7 41.8 61.4 43.2 59.85 45.25 56.05 50.35 49.4 58.25 42.9 66.05 43.8 65.75 45.65 65.05 55.25 53.2 64.9 41.35 64.15 40.6
M 67.5 42
Q 67.25 42 62.15 48.9 56.7 56.05 56.05 56.55 54.25 58.35 52 60.95 49.9 63.2 49.8 63.5 49.75 63.7 51.35 62.45 54.75 59.95 61.8 51 68.9 42 67.5 42
M 65.6 37.85
Q 64.75 39.35 65.05 39.35 65.4 39.35 66.8 37.85 68.2 36.4 69.9 34.3
L 79.7 22.15 75.9 25.7
Q 72.3 28.95 68.15 34.3 66.55 36.4 65.6 37.85
M 72.25 36.1
Q 73.55 34.4 78.35 29.2 82.5 24.95 83.2 23.45 84 22.05 78 27.95 71.95 33.9 70.4 36.1 69.65 37.1 69.4 37.75 69.15 38.45 69.55 38.45 69.9 38.45 70.7 37.75 71.5 37.05 72.25 36.1
M 43.8 40.95
Q 50.6 33.45 47.5 35.45 45.85 36.45 39.7 43.85 33.65 51.15 31.85 54.15 29 59.35 35.3 51.1 39.45 45.55 43.8 40.95
M 55.5 38.65
Q 55.5 38.25 52.55 41.35 49.45 44.55 47.3 47.3 43.35 52.15 41.9 54.05 40.5 56 40.5 56.55 40.65 57.3 42.35 54.95 46.2 50.15 49.85 45.9 55.5 39.25 55.5 38.65
M 56.9 44.55
Q 60.2 40.25 59.4 40.25 58.75 40.25 57.8 41.45
L 43.95 59.2 49.25 53.45
Q 53.6 48.8 56.9 44.55
M 40.8 32.55
Q 42.5 30.55 41.65 30.55 40.9 30.55 36.2 36.2 31.45 41.8 29.4 45.1 27.9 47.6 28.55 46.95 29.2 46.35 33.9 40.7 40.2 33.2 40.8 32.55
M 52.85 36.25
Q 52.85 35.5 51.4 37.05 49.85 38.65 43.95 45.55 38.35 52 35.9 55.3 33.45 58.65 33.45 59.75 33.45 60.15 34.35 59.3 35.2 58.35 36.45 56.55 38.9 52.8 46.15 44.65 52.85 37.15 52.85 36.25
M 58.55 33.5
Q 57.9 34.5 58.6 34.05 60.5 32.8 63.95 28.9 67.35 25 66.2 25.4 65.65 25.55 64.1 27.05 62.5 28.55 60.9 30.55 59.2 32.45 58.55 33.5
M 51.1 30.7
Q 51.1 31.75 53.1 30.05 55.05 28.35 59.9 23.1 66.55 16 64.75 17.3 62.55 18.95 56.85 24.5 51.1 30.15 51.1 30.7
M 53.5 34.05
Q 53.85 34.05 56.15 31.8 58.4 29.55 61.35 26.4 68.1 18.9 66.45 19.95 64.7 21.2 58.7 27.7 56.25 30.2 54.65 32.15 53.15 34.05 53.5 34.05
M 52.35 19.3
Q 60.1 11.1 59.55 11.1 58.85 11.1 55.3 14.55 51.75 17.95 47.75 22.5 45.7 24.8 44.5 26.4 43.25 27.95 43.6 27.8 44.55 27.4 52.35 19.3
M 45.65 16.85
Q 48.8 13.4 51 10.7 52.05 9.1 45 16.4 37.85 24.05 37.85 24.8 38 25.65 39.7 23.45 42.4 20.35 45.65 16.85
M 60.45 15.55
Q 59.9 15.55 54.5 21.2 49.05 26.8 48.35 28.15 47.25 30.2 48.5 29.05 49.7 27.95 54.55 22.6 60.95 15.55 60.45 15.55
M 46.85 19.7
Q 46.35 20.1 43.7 22.85 41.6 24.95 40.2 26.8 38.75 28.6 38.75 29.05 38.9 30.55 46 21.25 47.35 19.35 46.85 19.7
M 42.55 15.6
Q 40.5 16.85 40.5 17.45 40.5 18.25 41 18.05 41.5 17.8 42.8 16.35 44.1 14.85 44.05 14.8 44 14.7 42.55 15.6
M 74.9 21.55
Q 74.9 20.5 74.2 21.35
L 67.05 29.45
Q 64.4 32.5 62.8 34.6 61.1 36.7 61.5 36.7 62.4 36.7 68.65 29.6 74.9 22.5 74.9 21.55
M 67.4 23.45
Q 67.25 23.85 67.35 24.15 67.4 24.35 67.75 24.35 68.15 24.35 68.5 24.15 68.75 23.85 68.75 23.45 68.75 22.6 68.4 22.6 67.95 22.6 67.4 23.45
M 84 57.95
Q 83.6 58.1 81.6 60.4 79.6 62.7 77.15 65.8 71.6 72.65 67.05 77.75 65.4 79.55 64.85 80.35 64.3 81.1 65.2 80.4 68.65 77.8 77.2 67.55 85.8 57.3 84 57.95
M 85.85 39.35
Q 88.45 36.5 91.1 33.05 93.65 29.65 93.25 29.65 92.8 29.65 84.2 39.35 80.6 43.3 77.9 46.05 75.2 48.75 74.9 48.6 74.55 48.45 73.75 49.1 73 49.8 72.2 51 70.5 53.45 64.4 60.45 62 63.15 60.8 64.8 59.55 66.5 60.2 66.1 61.55 65.4 67.4 58.8 73.15 52.3 73.15 51.55 73.15 50.8 74.4 50.8 74.9 50.8 76.35 49.65 77.85 48.35 79.35 46.65
L 85.85 39.35
M 88.8 47.9
Q 92.55 43.25 93.7 41.1 94.35 39.85 90.7 43.8 87.05 47.8 85.35 50.2 84.6 51.15 84.35 51.9 84.1 52.6 84.45 52.6 85 52.6 88.8 47.9
M 95.65 44.65
Q 96.3 43.3 93.85 46.15 91.35 49 88.95 52.4 87.9 53.95 87.3 55 86.75 56.1 87 56.1 87.55 56.05 91.05 51.4 94.6 46.65 95.65 44.65
M 83.15 48.05
Q 86.85 44.05 89.65 40.4 91.9 37.55 91.5 37.15 91.2 36.85 85.25 43.75 79.35 50.75 79.35 51.45 79.4 52.05 83.15 48.05
M 82.85 29.65
Q 83.3 28.7 81.85 30.05 80.4 31.3 77.75 34.05 71.4 40.6 71.4 40.95 71.4 42.3 76.35 37.45 81.25 32.55 82.85 29.65
M 87.45 30.1
Q 89.65 27.05 83.4 33.6 80.55 36.55 78.65 38.85 76.7 41.15 76.7 41.55 76.75 42.25 80.55 38.25 84.3 34.2 87.45 30.1 Z"/>
</g>
</defs>

<g transform="matrix( 1, 0, 0, 1, 0,0) ">
<use xlink:href="#Layer1_0_FILL"/>
</g>
</svg>
