
<svg xmlns="http://www.w3.org/2000/svg" version="1.1" xmlns:xlink="http://www.w3.org/1999/xlink" preserveAspectRatio="none" x="0px" y="0px" width="100px" height="100px" viewBox="0 0 100 100">
<defs>
<g id="Layer1_0_FILL">
<path fill="#000000" stroke="none" d="
M 38.95 21.35
Q 39.15 21.35 39.3 21.1 39.4 20.8 39.4 20.5 39.4 19.6 38.75 20.2 38.35 20.6 38.05 20.7 37.7 20.8 37 20.8 36.8 20.8 36.75 20.95 36.7 21.15 36.85 21.4 36.95 21.6 37.3 21.65 37.55 21.75 37.85 21.6 38.5 21.35 38.95 21.35
M 40.15 21.25
Q 40.1 20.9 40 21 39.95 21.1 39.9 21.55 39.85 21.95 39.95 22.15 40.05 22.35 40.1 22.2 40.45 21.9 40.15 21.25
M 49.9 24.15
Q 50.1 23.85 50.35 23.7 50.7 23.55 50.9 23.7 51.1 23.8 51.1 24.05 51.1 24.75 51.55 23.9 52 23.15 51.25 22.7 50.65 22.35 49.65 23.1 48.75 23.9 48.75 24.75 48.75 25 48.9 25.25 49 25.45 49.2 25.45 49.45 25.45 49.55 25.25 49.65 25 49.65 24.75 49.65 24.4 49.9 24.15
M 83.05 50.4
Q 82.45 50.15 82 50.45 81.55 50.65 80.85 51.45 79.9 52.55 79.7 53.7 79.55 54.85 79.65 58.7 79.7 60.9 79.6 61.4 79.45 61.9 78.8 61.9 78.35 61.9 78.1 62.05 77.75 62.25 77.75 62.4 77.75 62.65 77.25 62.8 76.7 62.95 75.9 62.95 75.15 62.95 74.6 62.8 74.05 62.65 74.05 62.4 74.05 61.9 74.4 61.9 74.85 61.9 76.35 58.6 77.5 56.2 77.6 55.45 77.7 54.7 77.25 53.1 76.8 51.6 76.35 51.25 76 50.85 74.9 50.75 73.8 50.6 73.3 50.9 72.75 51.25 71.8 52.45 70.05 54.8 69.6 57.95 69.2 61.1 70.4 62.8 70.9 63.45 69.6 63.95 67.6 64.8 65.5 64.2 63.4 63.55 62.45 61.85 62.1 61.25 62.15 60.9 62.2 60.55 62.7 60 65.15 57.3 63.7 54.9 62.8 53.45 61.75 53.45 60.7 53.45 60.15 55.2 59.55 56.95 59.85 59.4 59.95 60.9 59.85 61.55 59.75 62.15 59.1 62.85 58.25 63.7 56.65 64.1 55.1 64.55 54.2 64.15 53.45 63.85 53.55 63.55 53.6 63.25 54.65 62.25 55.65 61.3 56.4 59.3 57.15 57.35 57.15 55.65 57.15 54.3 55.95 53.45 55.15 52.85 54.8 52.85 54.4 52.8 53.7 53.4 52.4 54.3 51.55 56.55 50.7 58.8 50.95 60.55 51.25 62.65 50.3 63.25 49.35 63.9 47.85 62.55
L 46.9 61.65 48 59.05
Q 49.05 56.7 49.45 54.85 49.65 53.7 49.55 53.35 49.35 52.95 48.45 52.65 47.65 52.3 47.2 52.4 46.7 52.45 46 53.05 44.75 54.1 44.2 56.05 43.6 58 44.05 59.75 44.3 60.9 44.25 61.35 44.2 61.8 43.7 62.25 42.9 62.9 42.2 62.9 41.5 62.85 40.05 62.15 38.8505859375 61.651171875 38.8 61.6 38.794140625 61.591015625 38.95 61.15 39.1638671875 60.7716796875 39.1 60.8 39.0318359375 60.8703125 39.3 60.45 39.7328125 59.867578125 40.7 57.55 41.7056640625 55.294140625 41.5 53.75 41.35 52.25 40.05 51.95 37.9 51.35 36.3 54.95 35.9 56 35.9 56.8 35.9 57.6 36.35 59.5
L 37.05 62.65
Q 37.05 62.8 35.35 63.9 30.952734375 66.7677734375 29.7 61.8 32.0857421875 60.96328125 32.65 56.6 33.2560546875 52.2197265625 30.35 53.05 27.4990234375 53.9455078125 27.8 58.45 27.95 60.2 27.8 60.6 27.6 61 26.5 61.3 25.2 61.7 23.85 61.25 22.55 60.8 22.3 59.8 22.243359375 59.6490234375 22.15 59.5 22.3810546875 59.083984375 22.65 58.4 23.8470703125 55.802734375 24.15 54.4 24.35 53.4 24.15 52.9 24.05 52.45 23.35 51.95 22.05 50.9 21.15 51.2 20.3 51.45 19.55 53.25 18.9 54.75 18.95 56.2 19.05 57.65 19.9 59.9 20.25 60.75 19.4 61.05 17 61.95 16.35 62.05 16 62.05 15.2 62.85 15.8 62.85 16.9 62.65 17.7 62.55 18.6 62.25 19.5 61.9 19.9 61.65 20.5 61.15 20.85 61.15 21.15 61.15 21.85 61.65 22.95 62.4 24.6 62.65 26.3 63 27.05 62.5 27.5 62.25 27.85 62.4 28.25 62.65 28.85 63.65 29.2 64.3 29.85 64.95 30.45 65.55 30.85 65.75 31.5 66.1 31.65 66.45 31.85 66.8 31.6 67.55 31.25 68.65 31.25 70.25 31.2 71.85 31.45 72.85 31.65 73.8 30.45 74.65 29.65 75.15 29.05 75.2 28.5 75.25 27.25 74.8 25.6 74.3 25.45 73.7 25.3 73.1 26.5 71.85 27.6 70.75 27.95 69.05 28.3 67.25 27.7 66.1 27.15 64.95 26.6 65.1 26 65.15 24.8 66.65 23.85 67.8 23.7 68.45 23.5 69.1 23.7 70.65 23.85 72.45 23.7 72.8 23.55 73.05 21.8 73.55 23.7 74.4 23.9 74.45 24.25 74.5 24.55 74.9 25.2 75.9 27 76.2 28.75 76.6 30.25 76 31.2 75.6 31.85 75.6 32.4 75.6 32.85 75.9 33.4 76.3 33.3 76.65 33.25 76.9 32.35 77.9 31.45 78.7 31.2 79.45 30.95 80.15 30.95 81.75 30.95 84.3 32.2 86.4 32.45 86.8 32.6 87.15 33.15 87.2 34.2 87.6 35.05 87.85 36.05 87.95 37.1 88.05 37.95 87.95 39.15 87.7 39.8 87.9 40.5 88.1 41.6 88.9 42.65 89.65 43.35 89.9 44.05 90.15 45 89.95 46.65 89.65 46.8 89.15 46.95 88.65 47.6 88.65 48.25 88.65 48.5 89.15 48.65 89.35 50 89.95 51.9 90.5 53.05 90.2 54.8013671875 89.603125 57.75 90 58.242578125 90.0904296875 58.6 90.15 58.7099609375 90.15 58.85 90.15 59.15 90.15 59.3 90 59.55 89.85 59.55 89.65 59.55 89.45 59.85 89.55 60.2 89.6 60.65 89.95 61.8478515625 90.75078125 65.05 90.8 68.30625 90.8970703125 72.55 90.35 68.4224609375 89.979296875 66.6 88.95
L 68 87.5
Q 68.85 86.5 69.15 85.75 69.4 85 69.4 83.3 69.4 80.15 68.2 79.45 67.05 78.75 65.45 80.9 64.35 82.35 63.95 84.3 63.6 86.25 64.1 87.75 64.65 89.3 64.35 89.55 64 89.75 62.55 88.95 61.5 88.4 61.25 88.1 61.05 87.75 61.4 87.3 61.9 86.6 62.35 84.9 62.65 83.2 63 82.4 63.4 81.4 62.5 80.65 61.55 79.85 60.3 80.1 58.85 80.45 58.45 80.85 57.95 81.45 57.85 83.6 57.8 85.8 58.2 86.7 58.55 87.55 58.8 88.6 59 89.65 58.75 89.65 58.55 89.65 56.9 88.9
L 55.25 88.15 56.25 87.1
Q 57.15 86.05 57.25 83 57.35 79.95 56.45 79.5 54.8 78.8 53.3 82.15 52.7 83.4 52.65 84.15 52.6 84.9 53 86.6 53.55 89.2 53.35 89.4 53.1 89.65 51.3 89.1 49.5 88.55 49.05 88.15 48.55 87.6 49.6 85.6 50.45 83.95 50.55 82.5 50.7 81.1 50.1 79.65 49.55 78.35 48.85 78.4 48.15 78.5 46.9 80 45.7 81.45 45.55 82.75 45.4 84.1 46.2 85.7 46.6 86.65 46.6 87.05 46.6 87.4 46.2 87.9 45.4 88.75 44.2 88.55 43.1 88.35 42.1 87.2
L 40.85 85.8 42 83.7
Q 44.2 79.75 41.9 78.05 41 77.45 40.7 77.45 40.3 77.5 39.45 78.2 38.7 78.85 38.45 79.5 38.2 80.15 38.25 81.75 38.25 84.3 38.45 85.3 38.6 85.95 38.3 86.2 38 86.35 36.75 86.45 35.2 86.6 34.65 86 34 85.35 34.9 84.55 35.55 84 35.15 82.05 34.7 80 34.7 78.7 34.8 77.35 35.3 77.35 36 77.35 37.95 75.3 39.9 73.3 39.45 73.05 39.3 72.9 38.85 73.25 38.45 73.5 38 74 37.05 75.05 35.65 75.25 34.3 75.4 33.95 74.55 33.85 74.2 33.95 73.6 34.1 72.95 34.4 72.35 35 70.95 34.9 68.35 34.8 66.55 35.05 65.9 35.3 65.3 36.35 64.35 37.45 63.25 38 63.15 38.5 63.05 39.75 63.5 41.25 64.05 42.25 64 43.25 63.9 44.25 63.15 44.85 62.7 45.15 62.7 45.5 62.7 45.9 63.1 46.6 63.8 48.05 64.35 48.7 64.55 49 64.95 49.35 65.2 49.25 65.6 48.95 66.35 48.85 69.85 48.75 72.95 48.05 74.1 47.4 75.25 45.8 75.25 44.8 75.25 44.05 74.65 43.25 74.1 43.05 73.15 43 72.85 43.45 71.9 43.8 70.95 44.45 69.95 45.3 68.6 45.55 67.8 45.85 67.05 45.65 66.4 45.2 64.6 44.2 64.5 43.25 64.4 41.65 65.95 40.75 66.9 40.45 67.65 40.15 68.4 40.1 69.95 40.05 71.65 40.35 72.4 40.65 73.1 42.05 74.65 43.95 76.65 45.5 76.8 47 77.05 48.45 75.45
L 49.65 74.1 51.1 75.45
Q 52.25 76.5 53.9 76.75 55.6 77.05 56 76.25 56.35 75.7 57.45 77 58.5 78.3 59.85 78.3 61.2 78.35 62.55 77.1
L 63.9 75.8 65.2 76.8
Q 66 77.5 67 77.6 67.95 77.8 70.75 77.65 74.9 77.45 76.05 76.65 76.8 76.1 77.15 76.15 77.5 76.2 78.25 76.85 79.25 77.8 80.55 77.8 79.8 76.65 79.4 75.8 78.6 74.2 79.65 72.6 80.9 70.55 80.75 68.8 80.65 67.05 79.25 67.1 78.25 67.1 77.3 69 76.3 70.9 76.45 72.6 76.6 73.95 76.35 74.45 76.2 74.95 75.4 75.45 74.2 76.3 73.4 76.3 72.85 76.3 72.9 76 72.9 75.75 73.55 74.7 74.55 73.25 74.8 71.6 75.05 69.95 74.5 68.55 73.9 66.9 73.05 66.8 72.2 66.7 71.1 68.15 70.15 69.35 70 70.1 69.8 70.9 69.95 73.1 70.1 75.4 69.95 75.9 69.8 76.3 68.9 76.3 66.25 76.25 65.5 75.1 64.85 73.95 66.25 71.75 67.35 70 67.45 68.35 67.6 66.6 66.7 66.4 65.9 66.15 67.1 66.1 67.55 66.05 68.55 65.75 69.45 65.45 70.3 65.05 72.3 64.05 74 64.35 75.65 64.55 77.8 63.3
L 79.95 62.05 81.1 63.05
Q 81.75 63.65 82.45 63.8 83.15 64 84.55 63.8 85.05 63.75 85.4 63.75
L 84.45 62.4
Q 83.75 62.4 83.05 62.25 82.35 62.15 82 61.9 81.6 61.65 81.65 61.35 81.7 61 82.35 60.3 83.35 59.05 84.3 56.85 85.25 54.65 85.25 53.55 85.25 52.45 84.65 51.55 84.05 50.75 83.05 50.4
M 83.95 52.4
Q 84.3 53.2 84.2 53.95 84.1 54.75 83.4 56.4 81.9 60 81.3 60.15 80.6 60.3 80.6 57.1 80.6 54.5 81.65 52.8 82.6 51.35 83.05 51.25 83.45 51.15 83.95 52.4
M 39.15 53.5
Q 40 52.9 40.15 52.9 40.35 52.95 40.6 53.85 40.85 55.15 40.1 56.8 39.75 57.45 39.6 58.1 39.4103515625 58.704296875 38.15 60.15 37.930078125 60.15625 37.8 60 37.5 59.7 37.2 58.65 36.3 55.55 39.15 53.5
M 31.4 55.7
Q 32.2080078125 57.105859375 31.05 58.75 29.94453125 60.384765625 29.4 60.5 29.066796875 58.4974609375 29.15 57.25 29.25 55.75 30 54.95 30.64609375 54.2994140625 31.4 55.7
M 21.4 53.2
Q 22.05 52.45 22.4 52.3 22.75 52.15 23.05 52.55 23.4 52.85 23.35 53.45 23.352734375 54.0470703125 22.5 56.5 22.0994140625 57.683984375 21.2 58.8 20.8341796875 58.6599609375 20.45 57.55 20 56.2 20.15 55.25 20.3 54.45 21.4 53.2
M 25.8 66.75
Q 26.3 66.2 26.45 66.2 26.65 66.2 27.1 66.85 28.45 68.9 26.45 70.55 25.15 71.65 24.9 71.65 24.45 71.65 24.9 69.55 25.3 67.4 25.8 66.75
M 33 67.8
Q 33.45 67.1 33.6 67.1 33.75 67.15 33.95 67.95 34.3 69.1 34 70.65 33.6 72.65 32.95 72.6 32.35 72.45 32.35 70.4 32.35 69.7 32.55 69 32.7 68.2 33 67.8
M 33.95 81.25
Q 34.2 83.45 33.9 84.3 33.55 85.2 32.8 84.2 32.35 83.55 32.25 81.85 32.15 80.15 32.6 79.4 33.5 77.75 33.95 81.25
M 39.2 82.15
Q 38.85 80.55 39.65 79.65 41.55 77.55 41.45 81.65 41.35 84.65 40.55 84.8 39.75 84.9 39.2 82.15
M 71.5 55.2
Q 71.9 54.45 73 53.5 74.5 52.25 75.3 52.3 76.1 52.35 76.4 53.75 76.7 54.9 75.9 57.1 75.1 59.35 73.95 60.75 72.4 62.55 71.5 61.65 70.65 60.65 71 57.65 71.2 55.95 71.5 55.2
M 62.3 54.75
Q 62.6 54.75 62.95 55.5 63.3 56.2 63.3 57 63.3 57.65 62.4 58.9 61.85 59.65 61.65 59.7 61.5 59.75 61.3 59.05 61.15 58.15 61.5 56.4 61.9 54.75 62.3 54.75
M 61.1 63.25
Q 61.9 63.6 62.8 64.7 63.05 65.05 63.45 65.25 63.9 65.5 64.2 65.5 65.3 65.5 65.35 66.2 65.5 66.8 64.7 68.05 63.75 69.55 63.75 72.4 63.75 74 63.6 74.65 63.4 75.25 63.05 75.25 62.7 75.25 62.3 75.55 61.8 75.9 61.4 76.3 60.7 77.1 60.3 77.2 59.9 77.3 59.2 76.95 58.15 76.55 58 75.4 57.85 74.4 58.65 72.85 61.35 67.9 59.15 67 58.5 66.7 57.95 66.95 57.55 67.15 56.65 68.15 55.75 69.15 55.5 69.95 55.3 70.65 55.35 72.3 55.5 74.8 54.8 75.3 54.05 75.8 53.65 75.65 53.15 75.45 51.95 74.2
L 50.45 72.65 51.45 71.2
Q 52.5 69.65 53.05 67.6 53.45 66.3 53.75 66 54 65.7 54.65 65.8 55.4 66 57 65.35 58.5 64.65 59.6 63.6 60.25 63 61.1 63.25
M 65.6 71.15
Q 64.95 72.05 64.8 72.05 64.65 72.1 64.65 71.35 64.65 70.45 65.3 69 65.8 67.6 66.2 67.55 66.55 67.55 66.55 68.7 66.55 69.15 66.25 69.85 66 70.6 65.6 71.15
M 71.1 73.25
Q 70.8 71.9 71.1 70.65 71.4 69.35 72.1 68.5 72.6 67.8 72.8 67.85 72.95 67.85 73.5 68.6 74.05 69.5 73.9 71.25 73.75 73.1 73.05 74 72.4 74.9 71.9 74.65 71.35 74.45 71.1 73.25
M 79.95 68.8
Q 80.05 69.15 79.9 69.95 79.75 70.65 79.4 71.45 78.5 73.25 78.2 73.25 77.3 73.25 77.5 71.55 77.7 69.85 78.75 68.8 79.35 68.2 79.55 68.2 79.7 68.2 79.95 68.8
M 52.15 60.25
Q 51.75 58.25 51.9 57.7 52.05 57.15 53.25 55.9 54.6 54.5 55.4 54.55 56.25 54.65 56.25 56.1 56.25 58.25 54.2 60.85 53.799609375 61.3537109375 53.1 62.4 52.9794921875 62.6240234375 52.85 62.75
L 52.85 62.75
Q 52.5 62.4 52.15 60.25
M 46.2 54.9
Q 47.95 53 48.3 54.1 48.7 55.15 47.55 58.7 46.95 60.45 46.5 60.75 46.05 61 45.5 59.85 44.85 58.65 45.05 57.3 45.25 55.95 46.2 54.9
M 43 66.05
Q 43.45 65.6 43.65 65.6 43.85 65.6 44.1 66.05 44.65 67 44.4 67.8 44.2 68.5 43.15 69.7 41.9 71 41.6 71.05 41.35 71.15 41.15 70.15 40.95 69.45 41.45 68.35 42 67.25 43 66.05
M 50.6 70.75
Q 49.65 71.4 49.65 69.25 49.65 68 50.3 66.75 50.9 65.5 51.45 65.5 51.9 65.5 51.95 65.9 52.05 66.4 51.85 67.6 51.5 70.05 50.6 70.75
M 58.15 72.45
Q 57.75 73.55 57.25 73.65 56.85 73.8 56.5 72.9 55.8 70.7 57.35 68.85 58.5 67.5 59.05 67.6 59.55 67.75 59.45 69.35 59.3 71.15 58.95 71.15 58.55 71.15 58.15 72.45
M 55.65 85.25
Q 55.6 85.85 55.35 86.35 55.15 86.9 55 86.95 54.4 87.15 54.25 85.85 54.1 84.55 54.5 83.1 55.05 81.4 55.65 81.05 56.25 80.75 56 82.3 55.75 84.15 55.65 85.25
M 60.5 86.45
Q 60.15 86.6 59.65 85.9 58.65 84.6 59.15 83 59.65 81.45 61 81.45 61.8 81.45 61.85 82.55 61.9 83.6 61.25 85.2 60.75 86.35 60.5 86.45
M 48.95 84.4
Q 48.2 86.05 48 86.05 47.75 86.05 47.3 84.85 46.9 83.7 46.9 82.95 46.9 82.15 47.85 81 48.85 79.95 49.35 80.2 49.75 80.55 49.65 81.85 49.55 83.15 48.95 84.4
M 66.05 82.05
Q 67.6 80 68.25 81.75 68.85 83.5 67.45 85.9 66.7 87.3 66.25 87.5 65.75 87.7 65.45 86.8 65.05 85.6 65.25 84.25 65.4 82.9 66.05 82.05
M 81.3 33.15
Q 81.65 33.7 82.9 33.65 84.1 33.55 85.1 32.85 85.4 32.6 85.75 32.45 85.2 32.4 84.8 32.45 83.45 32.65 82 31.8 80.6 30.95 80.6 29.85 80.6 29.59609375 80.55 29.4 80.7572265625 28.940625 80.85 27.7 81.0974609375 25.4015625 81 24.9 80.75 24.15 79.95 24.05 79.1 23.85 78.45 24.45 77.9 24.95 77.8 27.2 77.7 29.45 78.3 29.8 78.95 30.25 78.65 30.9 78.35 31.55 77.3 32.25 75.9 33.05 75 33.05 74.2 33.05 73.4 32.15 72.75 31.4 72.8 31.05 72.85 30.75 73.5 29.8 75.65 26.85 74.25 23.9 73.8 22.9 73.5 22.7 73.1 22.45 72.5 22.65 70.85 23.2 70.45 24.85 70.05 26.45 70.4 30.55 70.45 31.25 70.2 31.65 69.95 32.15 69.25 32.5 68.35 33 68 33 67.6 32.95 67 32.35 66.2 31.55 66.15 30.8 66.05 30 66.7 28.6 67.35 27.25 66.95 25.55 66.25 22.75 64.1 24.9 63.55 25.5 63.4 26.15 63.25 26.85 63.3 28.25 63.5 30.55 63.25 30.55 63 30.55 61.55 31.85 59.85 33.55 58.35 32.95 56.9 32.35 58.4 30.55 59.15 29.65 59.2 27.55 59.2 25.5 58.55 24.65 57.95 23.8 57.1 23.95 56.3 24.1 55.95 25.05 55.55 26.3 55.5 26.9 55.4 27.55 55.35 30.05 55.3 31.9 55.15 32.65 55 33.35 54.4 33.65 53.6 34.1 52.35 33.55 51 33 50.15 31.85 49.7 31.25 49.8 30.95 49.9 30.6 50.75 29.85 51.7 29 52.35 27.05 52.95 25.05 52.1 25.6 51.55 26.05 51.55 26.8 51.55 27.3 50.45 28.7 49.45 30.05 48.95 30.05 48.75 30.05 48.75 27.9 48.75 25.85 48.3 26.2 47.9 26.65 47.75 28.8 47.65 30 47.45 30.45 47.2 30.9 46.65 30.95 46.25 31 45.7 30.85 45.2 30.7 44.85 30.35 44.3 29.9 44.3 29.55 44.3 29.2 44.85 27.95 45.6 26.3 45.8 24.55 45.95 22.8 45.5 21.85 44.95 20.75 43.85 20.85 42.75 20.9 42.05 22.05 41.55 22.8 41.5 23.6 41.5 24.4 41.85 26.4 42.35 29.6 42.15 29.75 41.85 30.15 40.1 29.4 38.45 28.7 38.45 28.2 38.45 27.55 39.4 25.85 40.3 24.1 40.3 23.4 40.25 22.95 40.15 23.05 40.05 23.1 39.75 23.65 38.6 25.85 37.6 25.85 36.65 25.9 36.9 23.65 37 22.9 36.9 22.4 36.85 21.85 36.7 21.85 36.1 21.85 36 23.5 35.8 25.2 36.2 26.25 36.6 27.15 36.5 27.55 36.4 27.95 35.7 28.6 34.65 29.5 33.75 29.5 32.85 29.5 31.85 28.55
L 30.7 27.55 32.6 25.5
Q 33.3 24.65 33.8 23.95 34.0236328125 23.6021484375 34.1 23.4 34.4255859375 23.0037109375 34.15 21.85 33.751953125 19.995703125 34 19.6 34.3 19.25 35 19.05 36.4 18.65 37.45 17.75 38.35 17.1 38.7 17.1 39 17.1 39.8 17.8 40.25 18.15 41 18.5 41.75 18.7 42.4 18.7 43.05 18.7 43.9 18.95 44.75 19.2 45.3 19.5 46.7 20.25 48.05 20.45 49.3 20.6 50.85 21.3 51.7 21.65 52.25 21.55 52.8 21.45 54 20.8
L 55.85 19.8 57.05 20.8
Q 58.1 21.7 59.6 21.8 61.1 21.85 62.35 21.1 63.5 20.35 66.1 20.7 67.25 20.75 68.25 20.7 69.25 20.65 69.65 20.4 70.2 20.05 70.6 20.15 70.9 20.25 71.4 20.85 72.1 21.75 73.4 21.85 74.5 21.9 75.35 21.4 73.55 20.75 73.4 20.75 73.15 20.7 72.4 19.8 71.8 19 71.85 18.7 71.9 18.35 72.85 17.25 73.7 16.2 73.9 15.55 74.05 14.95 73.8 13.1 73.5 10.65 72.6 9.6 72.55 9.65 72.5 9.65 70.7 10.25 70.05 11.15 69.4 11.95 69.4 13.85 69.4 15.65 69.85 17 70.25 18.15 69.9 18.7 69.55 19.2 68.05 19.6 66.2 20.15 65.15 19.1 64.05 18.1 65.2 16.85 65.4 16.65 65.45 16.25 65.55 15.9 65.45 15.6 65.2 14.95 64.9 16.05 64.6 17.2 64.1 17.15 63.7 17.15 63.2 15.95 62.85 15.15 62.9 14.55 62.95 13.9 63.45 12.7
L 64.3 10.8 65 12.25
Q 65.65 13.65 65.35 14.15 65.3 14.35 65.35 14.55 65.45 14.65 65.65 14.65 66.25 14.65 65.9 13.05 65.6 11.45 65.6 11 65.6 10.3 64.45 10.6 63.25 10.95 62.65 11.85 62 12.8 62.05 14.8 62.1 16.8 62.8 18.3 63.15 18.9 63 19.2 62.8 19.45 62 19.85 60 20.7 59.15 20.65 58.2 20.6 57.55 19.7 57 18.95 57 18.6 56.95 18.2 57.45 17.5 58.15 16.45 58.85 14.75 59.55 13.1 59.55 12.45 59.55 11.75 58.65 10.65 57.8 9.5 57.2 9.5 56.05 9.5 55.35 11.2 54.7 12.95 54.6 15.95 54.6 18 54.4 18.65 54.2 19.2 53.3 19.65 52.05 20.35 51.55 20.05 51 19.7 51.7 18.6 52.45 17.3 52.7 15.85 52.9 14.4 52.65 12.2 52.4 9.9 51.8 9.6 51.25 9.3 49.9 10.75 49.15 11.6 48.95 12.45 48.75 13.25 48.75 15.65
L 48.75 19.3 47.5 18.95
Q 45.95 18.55 45.5 18 45.05 17.5 45.6 16.75 46.9 15.15 47.4 13.3 47.85 11.45 46.8 9.4 46.3939453125 8.74609375 46 8.45 45.673828125 8.166015625 44.8 8.65 43.9580078125 9.16640625 44 9.15 44.04921875 9.19609375 43.3 10.35 42.55 11.45 42.4 12.4 42.25 13.25 42.4 14.7 42.8 18.8 40.6 16.4 39.9 15.65 39.95 15.25 40 14.85 41 12.8 42.2 10.5 41.35 8.6 40.45 6.7 38.75 6.4 38.6 6.65 38.45 7.05 37.05 9.65 37.4 12.4 37.8 15.1 37.65 15.85 37.45 16.6 36.3 17.15 34.8607421875 17.8369140625 33.45 17.6 33.230859375 17.5173828125 31.65 17.95 30.059765625 18.4443359375 29.65 19.6 29.2978515625 20.7498046875 29.3 23.4 29.3 26.35 29.2 27.05 29 27.8 28.15 28.25 27.05 28.95 26.6 28.95 26.3 28.95 25.25 28.05 24.85 27.6 23.7 28.55 24.05 28.75 24.6 29.1 27.1 30.75 28.85 29.35 29.45 28.9 29.85 28.95 30.2 28.95 31.05 29.6 32.25 30.55 33.4 30.6 34.6 30.7 35.95 29.8 37 29.15 37.35 29.15 37.75 29.2 38.8 30.05 39.65 30.75 40.25 30.95 40.9 31.05 41.95 30.9 42.85 30.65 43.45 30.8 44 30.9 44.4 31.4 45.15 32.25 46.95 31.95 48 31.8 48.45 31.95 48.95 32.05 49.2 32.55 49.4 32.95 50.1 33.5 50.8 34.05 51.6 34.4 53 35.1 53.5 35.1 53.95 35.1 54.95 34.5 55.75 34.05 56.25 33.95 56.75 33.85 57.25 34.25 58.1 34.75 59.55 34.25 60.95 33.7 62.6 32.35
L 64.15 31.05 64.9 32.35
Q 65.7 33.7 67.35 33.95 69 34.3 70.55 33.35 71.6 32.75 72 32.7 72.4 32.65 72.95 33.2 74.35 34.5 75.65 34.35 76.95 34.1 78.65 32.3 79.1 31.75 79.95 32.05 80.85 32.3 81.3 33.15
M 71.2 11.1
Q 71.35 10.8 71.7 10.65 72.05 10.55 72.3 10.65 73.1 11 73.25 12.55 73.4 14.15 72.8 15.55 72.1 17.25 71.7 17.45 71.1 17.9 70.8 15 70.65 12.1 71.2 11.1
M 56.45 11.25
Q 57.4 10.5 57.75 10.65 58.05 10.7 58.35 11.9 58.6 13.2 57.65 14.95 56.8 16.35 56.55 16.6 56.35 16.75 56 16.2 55.5 15.3 55.7 13.55 55.85 11.75 56.45 11.25
M 51.1 11.1
Q 51.3 11.1 51.45 11.45 51.55 11.8 51.55 12.3 51.55 13.55 52 13.85 52.35 14.1 51.85 15.95 51.45 17.25 50.95 17.8 50.35 18.35 49.95 17.9 49.4 17.2 49.9 14.15 50.4 11.1 51.1 11.1
M 43.9 11.6
Q 44.55 9.9 45.4 9.65 45.6 9.55 45.9 9.85 46.25 10.2 46.4 10.75 46.7 11.5 46.6 12.25 46.5 12.95 46.05 14 45.25 15.95 44.5 16.05 43.7 16.25 43.5 14.55 43.25 13.25 43.9 11.6
M 43 22.95
Q 43.9 21.4 44.45 21.8 45 22.15 45 24.3 44.95 25.35 44.8 26.3 44.6 27.3 44.3 27.7 43.8 28.4 43.7 28.4 43.55 28.4 43.35 27.7 43 26.6 42.65 25.55 42.2 24.4 43 22.95
M 56.4 30.9
Q 56.2 30.55 56.4 28.5 56.55 26.25 57.1 25.4 57.6 24.5 58.15 25.45 58.6 26.2 58.4 27.9 58.15 29.6 57.5 30.3 56.65 31.25 56.4 30.9
M 79.7 25.5
Q 80.3052734375 26.5341796875 79.9 29.35 79.6080078125 29.3201171875 79.3 28.9 78.750390625 28.055859375 78.95 26.25 79.147265625 24.4787109375 79.7 25.5
M 73.5 26.2
Q 73.3 27.95 72.55 29.2 71.8 30.45 71.5 29.5 70.95 27.55 70.95 26.55 70.95 25.55 71.5 24.85 72.6 23.55 73.1 23.9 73.65 24.25 73.5 26.2
M 65.65 26.1
Q 65.75 26.5 65.7 27 65.55 28.2 65.2 28.65 64.8 29.1 64.5 28.6 64.1 28 64.5 26.7 64.85 25.45 65.35 25.6 65.5 25.65 65.65 26.1
M 38.45 12
Q 38 10.4 38.45 9.2 38.85 8.05 39.85 8.35 40.95 8.65 41.05 9.3 41.15 9.95 40.35 11.9 40 12.8 39.5 13.45 39.05 14.15 38.85 14.15 38.65 14.15 38.55 14.05 38.45 13.95 38.6 13.85 38.8 13.55 38.45 12
M 33.4 21.05
L 33.3 23.65
Q 33.01953125 23.9630859375 32.65 24.4 31.6 25.8 31.15 25.65 30.6 25.5 30.3 23.6 29.7 20.1 31.35 19.65 32.95 19.2 33.4 21.05
M 88.15 36.25
Q 87.15 36 87.15 36.8 87.15 37 87.05 37.05 86.95 37.1 86.75 37.05 86.05 36.55 85.55 38 85.1 39.4 85 41.95 85 45.25 84.45 45.95 84 46.65 82.25 46 80.85 45.5 80.75 44.9 80.7 44.35 81.6 41.1 82.4 38.15 81.55 36.8 80.65 35.5 78.65 36.55 77.15 37.35 76.8 39.85 76.4 42.35 77.5 44.1 78 44.95 77.85 45.3 77.65 45.6 76.3 46.4 74.65 47.4 72.55 47.5 70.45 47.6 69.8 46.7 69.4 46.2 69.6 45.75 69.85 45.25 70.9 44 72.3 42.45 72.95 40.85 73.6 39.25 73.35 38.2 72.85 36.45 71 37.7 69.15 38.9 68.15 41.6 67.85 42.55 67.75 43.35 67.55 44.2 67.75 44.45 68.05 45.1 67.35 45.55 66.65 46 65.2 46 64 46 63.95 45.85 63.85 45.7 64.45 44.95 65.3 43.95 64.95 43.95 64.65 43.95 65.35 42.75 65.95 41.9 66.05 40.5 66.15 39.15 65.8 38.05 65.45 37.05 64.25 37.3 63.1 37.6 61.8 39
L 60.15 40.75 59.55 39
Q 59.1 37.45 58.35 37.3 57.65 37.2 56.45 38.5 55.65 39.25 55.4 40.05 55.2 40.85 55.15 42.95 55.15 44.35 55 45.5 54.8 46.6 54.55 46.85 54 47.5 52.15 47.5 50.3 47.45 49.45 46.8 48.75 46.25 48.85 45.95 48.9 45.6 49.95 44.35 51.4 42.65 51.7 41.75 52.15 40.4 51 39 49.75 37.6 48.6 38.05 47.65 38.5 46.95 41.35 46.25 44.3 47 44.6 47.55 44.8 45.85 45.65 44.15 46.5 43.2 46.5 42.8 46.5 42.4 46.3 41.95 46 41.75 45.75 41.4 45.3 41.5 44.8 41.65 44.35 42.45 43.3 44.5 40.6 44.7 38.6 44.85 36.55 43.1 35.95 42.6 35.75 42.05 36.05 41.45 36.35 40.75 37.15 39.65 38.3 39.45 38.95 39.35 39.6 39.55 41.8
L 39.85 44.85 38.15 45.75
Q 37.2 46.2 36.6 46.3 36 46.4 35.3 46 34.55 45.65 34.3 45.05 34 44.45 34.65 44.45 35.1 44.45 36.8 41.9 37.85 40.35 38.15 39.45 38.45 38.55 38.35 37.4 38.25 36.25 38 35.8 37.7 35.4 36.9 35.1 36.05 34.95 35.5 35.15 35 35.4 33.95 36.5 33.3 37.3 32.8 38.05 32.35 38.8 32.35 39.15 32.25 40.3 32.05 41.2 31.9 42.4 32.25 42.4 32.65 42.4 32.65 43.3 32.65 44.25 32.25 44.8 31.85 45.35 30 45.45 28.15 45.55 28.15 45.05 28.15 44.55 29.15 43.65 29.95 42.75 30.7 41.15 31.4 39.45 31.4 38.3 31.4 37.05 30.4 36.2 29.35 35.35 28.2 35.7 26.85 36.1 26.35 37.5 25.75 38.85 26 41.45 26.2 43.85 25.7 44.6 25.2 45.45 23.55 45.45 22.4 45.45 22.35 44.9 22.3 44.3 23.2 42.9 24.25 41.35 24.6 39.1 25.05 36.8 24.4 35.95 23.7 35.05 22.75 35.25 21.75 35.45 20.65 36.75 19.35 38.2 19 39.65 18.7 41.05 19.2 43 19.55 44.15 19.55 44.75 19.55 45.3 19.2 45.75 18.6 46.55 17.3 46.5 15.95 46.4 14.95 45.5
L 14 46.4
Q 15.5 47.55 16.55 47.75 17.6 48 18.9 47.35 19.5 47 20.65 46.75 21.75 46.55 22.75 46.55
L 26.3 46.5
Q 27.6 46.5 29.15 46.75 29.85 46.9 30.6 46.85 31.35 46.75 31.75 46.55 32.15 46.35 32.55 46.3 32.95 46.3 33.1 46.45 33.5 46.85 35 47.4 35.95 47.75 36.6 47.65 37.2 47.6 38.25 47 39.4 46.35 39.85 46.3 40.25 46.25 40.75 46.7 41.65 47.6 42.95 47.8 44.2 48 45.55 47.35 46.65 46.85 47.05 46.9 47.5 46.9 48.2 47.5 49.35 48.55 51 48.75 52.7 49.05 53.9 48.4 54.75 47.9 55.1 47.9 55.35 47.9 55.5 48.35 55.8 49.15 57.5 49 59.2 48.95 60.55 48.05 61.4 47.5 62.15 47.35 62.9 47.2 64 47.35 64.8 47.45 65.65 47.4 66.5 47.35 66.85 47.1 67.35 46.8 67.75 46.9 68.1 47 68.75 47.6 69.15 48.05 70.05 48.45 70.95 48.8 71.8 48.9 73.05 49.05 73.85 48.8 74.6 48.55 76.05 47.5 78.3 45.9 79.35 46.2 81.55 46.95 82.7 47.15 83.9 47.3 84.8 47 85.65 46.75 86.1 46.9 86.55 47.1 87.15 47.85 87.25 47.95 87.35 48.05
L 86.95 46 87.95 45.2
Q 89.1 44.35 89.05 43.95 89.4736328125 43.485546875 89.75 42.4 90.4009765625 40.145703125 90.4 39.25 90.4 38.45 89.75 37.35 89.15 36.45 88.15 36.25
M 87.05 38.8
Q 88.4541015625 37.055078125 89.05 38.55 89.690234375 40.0369140625 88.6 42.25 87.557421875 44.462109375 87.3 44.2 87.0962890625 43.9419921875 86.65 44.25 86.2505859375 44.5521484375 85.95 42.55 85.8 41.2 85.95 40.55 86.15 39.85 87.05 38.8
M 48 42.1
Q 48.2 39.8 48.45 39.45 48.65 39.25 49.85 39.6 50.65 39.85 50.85 40.15 51 40.4 50.8 41.25 50.65 41.85 50.3 42.55 49.9 43.2 49.55 43.55 48.5 44.45 48.1 44.45 47.8 44.45 48 42.1
M 43.1 41.2
Q 42.2 43.05 41.5 43.3 40.85 43.55 40.55 42.25 40.3 41.25 40.75 39.7 41.25 38.1 41.85 37.7 43.3 36.65 43.7 37.8 44.15 39.05 43.1 41.2
M 56.1 42.75
Q 55.95 42.55 55.7 42.7 55.1 43.1 55.9 41.85 56.7 40.65 57.2 39.35 57.7 38.1 58.25 38.65 58.75 39.2 58.75 40.95 58.75 42.55 58.5 43.35 58.35 44.25 57.65 44.8 56.8 45.55 56.55 45.35 56.25 45.15 56.25 43.95 56.25 43.05 56.1 42.75
M 59.35 42.7
Q 59.7 42.1 59.85 42.35 60.05 42.6 60.45 44.15 60.95 46.65 60.8 46.8 60.45 47.2 58.55 47.35 56.75 47.4 56.5 47.1 56.4 46.8 56.45 46.65 56.6 46.5 56.9 46.5 57.35 46.5 58.05 45.55 58.75 44.6 58.85 43.95 58.85 43.7 59.35 42.7
M 68.85 43.25
Q 68.85 41.9 70 40.35 71.1 38.8 72.1 38.8 72.75 38.8 72.4 39.95 72.05 41.2 70.9 42.75 68.85 45.75 68.85 43.25
M 61.6 43.1
Q 61.4 42.1 61.6 41.55 61.85 40.95 62.6 40.15 63.1 39.55 63.6 39.2 64.15 38.85 64.4 38.95 64.9 39.15 64.8 41.15 64.75 43.15 64.25 43.3 64 43.35 63.95 43.55 63.9 43.75 63.95 43.95 64.2 44.4 63.6 44.9 62.9 45.35 62.45 45.05 61.9 44.65 61.6 43.1
M 78.3 42.95
Q 77.25 40.75 78.6 38.25 79.3 36.9 79.7 36.85 80.1 36.75 80.6 37.8 81 38.6 80.85 40.5 80.6 42.4 80.1 42.4 79.65 42.4 79.65 43.15 79.65 43.95 79.15 43.95 78.7 43.85 78.3 42.95
M 27.15 41.25
Q 27.05 39.1 27.25 38.4 27.6 37.45 28.55 37.1 29.55 36.85 30 37.5 30.55 38.2 30.15 39.7 29.8 41.2 28.8 42.25 27.7 43.4 27.5 43.4 27.2 43.4 27.15 41.25
M 20.25 40.35
Q 20.5 38.95 21.45 38 23.3 36.05 23.8 37.1 24.3 38.3 22.85 41.3 21.15 45.15 20.45 43.15 20 41.75 20.25 40.35
M 37.3 39.15
Q 36.7 40.95 35.5 42.25 33.3 44.85 33.3 41.5 33.3 39.35 34.8 37.65 36.3 35.9 37.35 36.85 37.9 37.3 37.3 39.15 Z"/>
</g>
</defs>

<g transform="matrix( 1, 0, 0, 1, 0,0) ">
<use xlink:href="#Layer1_0_FILL"/>
</g>
</svg>
