
<svg xmlns="http://www.w3.org/2000/svg" version="1.1" xmlns:xlink="http://www.w3.org/1999/xlink" preserveAspectRatio="none" x="0px" y="0px" width="100px" height="100px" viewBox="0 0 100 100">
<defs>
<g id="Layer1_0_FILL">
<path fill="#000000" stroke="none" d="
M 66.55 76.5
Q 66.55 77 67.05 77 67.55 77 67.55 76.5 67.55 76 67.05 76 66.55 76 66.55 76.5
M 71.4 75.25
Q 71.6 74.75 71.35 74.5 71.1 74.25 70.75 74.6 70.35 74.95 70.15 75.7 69.7 76.75 69.8 76.85 69.9 77 70.65 76.3 71.15 75.8 71.4 75.25
M 46.55 81.5
Q 46.55 82 47.05 82 47.55 82 47.55 81.5 47.55 81 47.05 81 46.55 81 46.55 81.5
M 43.25 80.3
Q 42.55 79.8 41.85 80.3 41.65 80.6 41.85 80.8 42.05 81 42.55 81 43.1 81 43.3 80.8 43.5 80.6 43.25 80.3
M 46.85 78.3
Q 46.65 78.6 46.85 78.8 47.05 79 47.55 79 48.1 79 48.3 78.8 48.5 78.6 48.25 78.3 47.55 77.8 46.85 78.3
M 50.85 81.7
Q 51.15 82 51.55 82 52.55 82 52.55 81.6 52.55 81 51.55 80.5 51.2 80.3 50.85 80.4 50.55 80.55 50.55 80.9 50.55 81.35 50.85 81.7
M 54.05 82
Q 54.55 83 55.05 83 55.55 83 56.05 82 56.3 81.6 56 81.3 55.7 81 55.05 81 54.4 81 54.1 81.3 53.8 81.6 54.05 82
M 52.05 75
Q 51.85 75.45 51.95 75.75 52.05 76 52.45 76 52.9 76 53.25 75.75 53.55 75.45 53.55 75 53.55 74 53.15 74 52.65 74 52.05 75
M 56.25 75.75
Q 56.55 75.45 56.55 75 56.55 74 56.15 74 55.65 74 55.05 75 54.85 75.45 54.95 75.75 55.05 76 55.45 76 55.9 76 56.25 75.75
M 53.55 71.5
Q 53.55 72 54.05 72 54.55 72 54.55 71.5 54.55 71 54.05 71 53.55 71 53.55 71.5
M 54.85 69
Q 54.55 69.85 54.7 69.9 54.85 69.95 55.35 69.2 55.75 68.65 56.45 68.5 57.2 68.3 57.85 68.6 58.55 68.85 59.05 68.75 59.55 68.65 59.55 68.2 59.55 67.05 57.35 67.45 55.15 67.8 54.85 69
M 46.9 71.3
Q 46.55 71.85 46.55 72.3 46.55 73.5 45.05 76.5
L 43.55 79.5 45.45 77.3
Q 47.4 75 48.45 75 48.9 75 49.25 74.7 49.55 74.35 49.55 73.9 49.55 73.5 49.25 73.4 48.9 73.3 48.45 73.6 47.35 74.15 48.05 72 48.75 69.85 47.65 70.4 47.2 70.7 46.9 71.3
M 49.25 67.3
Q 48.25 67.55 48.05 68 47.75 68.45 48.1 68.55 48.4 68.6 49.15 68.3 50.15 67.9 50.35 68.25 50.5 68.6 50.15 70.1 49.65 71.75 49.75 71.85 49.85 71.9 50.65 70.5 51.95 68.5 52.95 67.8 53.4 67.5 52.95 67.25 52.45 67 51.35 67 50.2 67 49.25 67.3
M 47.55 59.5
Q 47.55 60 48.05 60 48.55 60 48.55 59.5 48.55 59 48.05 59 47.55 59 47.55 59.5
M 48.55 57
Q 48.55 56.6 48.25 56.3 47.9 56 47.45 56 47.1 56 46.95 56.3 46.85 56.65 47.05 57 47.55 58 48.15 58 48.55 58 48.55 57
M 46.45 53.2
Q 47.25 55.2 47.95 54.2 48.2 53.75 47.7 52.85 47.25 51.9 46.35 51
L 44.1 48.95
Q 44.05 49.2 43.95 49.5 43.65 50.1 43.85 50.55 44 51 44.45 51 45.55 51 46.45 53.2
M 59.15 55.3
Q 59.05 55 58.65 55 58.2 55 57.9 55.3 57.55 55.6 57.55 56 57.55 57 57.95 57 58.55 57 59.05 56 59.3 55.65 59.15 55.3
M 71.55 72
Q 71.55 72.55 71.75 72.75 71.95 72.95 72.25 72.7 72.8 72 72.25 71.3 71.95 71.1 71.75 71.3 71.55 71.5 71.55 72
M 77.85 64.3
Q 77.65 64.6 77.85 64.8 78.05 65 78.55 65 79.1 65 79.3 64.8 79.5 64.6 79.25 64.3 78.55 63.8 77.85 64.3
M 67.85 73.3
Q 67.65 73.6 67.85 73.8 68.05 74 68.55 74 69.1 74 69.3 73.8 69.5 73.6 69.25 73.3 68.55 72.8 67.85 73.3
M 65.55 72
Q 65.25 72 64.9 72.75 64.5 73.5 64.35 74.5 64.15 75.55 64.2 76.3 64.25 77 64.55 77 64.85 77 65.25 76.3 65.6 75.5 65.75 74.5 66 73.45 65.9 72.75 65.85 72 65.55 72
M 78.85 59.4
Q 78.55 59.55 78.55 59.9 78.55 60.35 78.85 60.7 79.15 61 79.55 61 80.55 61 80.55 60.6 80.55 60 79.55 59.5 79.2 59.3 78.85 59.4
M 33.85 78.3
Q 33.65 78.6 33.85 78.8 34.05 79 34.55 79 35.1 79 35.3 78.8 35.5 78.6 35.25 78.3 34.55 77.8 33.85 78.3
M 32.05 76
Q 31.55 76 31.55 76.5 31.55 77 32.05 77 32.55 77 32.55 76.5 32.55 76 32.05 76
M 36.05 76
Q 35.85 76.45 35.95 76.75 36.05 77 36.45 77 36.9 77 37.25 76.75 37.55 76.45 37.55 76 37.55 75 37.15 75 36.65 75 36.05 76
M 11.55 51.5
Q 11.55 52 12.05 52 12.55 52 12.55 51.5 12.55 51 12.05 51 11.55 51 11.55 51.5
M 20.05 55
Q 19.5 55 18.8 55.55 18 56.1 17.65 56.8 16.9 58 16.75 58 16.65 58 16.55 56.8 16.55 56.1 16.3 55.5 16 54.85 15.65 54.6 15.35 54.35 15.1 55.05 14.9 55.75 14.95 56.9 15.05 59.25 16.2 59.2 17.35 59.2 19.75 56.8 20.8 55.75 20.9 55.4 20.95 55 20.05 55
M 25.55 72
Q 25.55 72.55 25.75 72.75 25.95 72.95 26.25 72.7 26.8 72 26.25 71.3 25.95 71.1 25.75 71.3 25.55 71.5 25.55 72
M 26.05 68
Q 27.55 66.7 27.55 65.8 27.55 65.4 27.1 65.6 26.65 65.75 26.05 66.4 24.55 67.9 24.55 68.6 24.55 68.85 25 68.7 25.5 68.5 26.05 68
M 24.35 61.4
Q 23.1 60.7 23.75 61.5 24.05 61.8 23.8 62.45 23.5 63.1 22.75 63.7 21.35 64.9 22.05 64.75 22.8 64.6 25.85 63 27.95 61.95 28.15 60.85 28.3 59.75 26.45 59.2 25.6 58.95 25.6 59.1 25.55 59.2 26.45 59.8 27.7 60.7 26.7 61.45 25.7 62.25 24.35 61.4
M 22.55 57.5
Q 22.55 58 23.05 58 23.55 58 23.55 57.5 23.55 57 23.05 57 22.55 57 22.55 57.5
M 20.55 60
Q 21.1 60 21.3 59.8 21.5 59.6 21.25 59.3 20.55 58.8 19.85 59.3 19.65 59.6 19.85 59.8 20.05 60 20.55 60
M 25.05 55
Q 24.55 55 24.55 55.5 24.55 56 25.05 56 25.55 56 25.55 55.5 25.55 55 25.05 55
M 40.25 60.8
Q 40.05 60.2 39.85 60.4 39.65 60.6 39.65 61.4 39.6 62.2 39.75 62.6 39.9 63 40.15 62.7 40.4 62.45 40.45 61.9 40.45 61.3 40.25 60.8
M 38.55 56.9
Q 38.55 57.35 38.85 57.7 39.15 58 39.55 58 40.55 58 40.55 57.6 40.55 57 39.55 56.5 39.2 56.3 38.85 56.4 38.55 56.55 38.55 56.9
M 40.3 50.45
Q 39.85 50 39.45 50 39.15 50 39.05 50.45 38.95 50.9 39.15 51.5 39.45 52.1 39.3 52.55 39.1 53 38.65 53 38.2 53 37.9 52.55 37.55 52.1 37.55 51.5 37.55 50.9 37.3 50.45 37 50 36.55 50 35.6 50 35.6 50.6 35.6 51.2 36.55 53 37.1 54.05 38 54.4 38.9 54.75 40.55 54.5 42.55 54.3 42.9 54.55 43.25 54.8 42.55 56 41.5 57.9 42.55 58.5 43.45 59 43.5 61.95 43.6 64.85 42.75 65.4 41.9 65.9 39.25 64.5 37.15 63.4 36.3 63.9 35.4 64.45 36.15 66.4 36.45 67.05 36.25 67.55 36.1 68 35.55 68 34.25 68 34.85 65.5 35.3 62.85 33.35 61.9 32.6 61.5 32.15 61 31.75 60.5 31.95 60.2 32.1 59.9 31.85 59.1 31.55 58.3 30.95 57.5 30.15 56.4 29.6 56.25 29.05 56.1 28.35 56.8 27.7 57.5 27.75 57.75 27.85 58 28.75 58 30.5 58 30.9 60.3 31.35 62.6 29.85 63.8 28.8 64.55 28.75 65 28.65 65.5 29.55 66.3 30.9 67.5 30.15 66.3 29.5 65.1 30.65 64.45 31.75 63.8 32.75 64.8 33.35 65.4 32.9 66.05 32.4 66.7 30.75 67.7 28.2 69.15 27.75 69.95 27.35 70.8 28.75 71.6 29.75 72.3 29.15 71.2 28.6 70.15 29.55 69.5 30 69.3 30.5 69.6 30.95 69.9 31.25 70.6 31.55 71.35 31.4 71.95 31.3 72.6 30.75 72.8 30.25 72.95 29.9 73.55 29.55 74.1 29.55 74.8 29.55 75.85 29.75 75.9 29.9 75.95 30.45 75.1 30.85 74.55 31.45 74.4 32.05 74.2 32.55 74.5 33 74.8 33.7 74.5 34.4 74.2 34.95 73.5 35.8 72.35 36.35 72.3 36.95 72.2 38.35 73.1 40.15 74.25 40.45 75.5 40.75 76.8 39.35 77.3 38.8 77.55 39.1 77.7 39.4 77.9 40.35 77.9 41.3 78 41.85 77.75 42.35 77.5 42.05 77.1 41.6 76.2 43.25 75.1 45 74.05 44.05 73.9
L 42.05 73.6
Q 40.45 73.4 41.05 70.7 41.6 68 43.25 68 44.6 68 44.05 70 43.75 70.9 43.9 71.45 44.05 72 44.55 72 45 72 45.2 71.75 45.35 71.45 45.05 71.1 44.8 70.7 44.95 70.25 45.1 69.7 45.55 69.5 46 69.2 46.15 68.4 46.25 67.6 45.95 66.8 45.35 64.8 47.25 63.5 48.55 62.5 48.5 62.4 48.45 62.25 46.95 62.6 45.6 63 45.2 62.45 44.85 61.85 44.75 59.4 44.6 55.8 44 53.9 43.35 52 42.45 52.5 42.1 52.8 41.65 52.5 41.2 52.2 40.95 51.6 40.75 50.95 40.3 50.45
M 38.55 68.05
Q 39.5 66.65 40.05 67.2 40.35 67.5 40.35 68.3 40.35 69.1 40.05 69.9 39.55 71.6 38.55 71.95 37.55 72.3 37.55 70.8 37.55 69.4 38.55 68.05
M 32.05 67.9
Q 32.7 66.85 33.65 67.65 34.6 68.4 34.15 69.6 33.95 70.2 34.05 70.6 34.15 71 34.45 71 34.85 71 35.25 70.65 35.7 70.25 35.85 69.8 36.45 68.6 36.45 69.6 36.5 70.05 36.15 70.7 35.8 71.35 35.25 71.8 34.5 72.4 33.95 72.2 33.4 72 32.75 70.9 32.25 70.1 32.05 69.2 31.85 68.35 32.05 67.9
M 39.15 48.1
Q 39.6 48.95 39.85 48.95 40.05 48.95 40.35 48.1 40.75 47.05 40.2 46.35 39.65 45.65 38.95 46.3 38.4 46.85 39.15 48.1
M 36.2 39.75
Q 37.2 40 38.05 40 39.25 40 39.05 39.7 38.9 39.4 37.15 38.5 34.9 37.3 33.75 37.55 32.6 37.8 34.55 39 35.15 39.45 36.2 39.75
M 39.05 43
L 36.45 43
Q 35.65 43 35.2 43.25 34.7 43.5 34.95 43.8 35.4 44.55 37.25 44.5 39.05 44.45 39.35 43.7 39.55 43 39.05 43
M 22.55 42.5
Q 22.2 42.3 21.85 42.4 21.55 42.55 21.55 42.9 21.55 43.35 21.85 43.7 22.15 44 22.55 44 23.55 44 23.55 43.6 23.55 43 22.55 42.5
M 28.35 42.4
Q 27.6 42.8 27.6 43 27.6 43.25 28.35 43.6 29.5 44.15 29.5 45.55 29.55 47 28.35 47 27.7 47 27.7 47.25 27.7 47.55 28.35 48.2 29.55 49.4 29.55 50.75 29.55 52.1 28.35 51.4 27.8 51.15 28.35 51.9 28.9 52.65 30.25 53.9 33.55 57 34.45 57 35.55 57 35.55 57.95 35.5 58.85 34.35 59.3 33.75 59.55 33.9 59.7 34.05 59.9 34.85 59.9 35.55 60 36.05 60.3 36.55 60.65 36.55 61 36.55 62 36.95 62 37.4 62 37.05 59.7 36.75 57.4 36.05 55.8 35.75 55.05 35.1 54.55 34.45 54 33.85 54 33.25 54 33.05 53.7 32.8 53.4 33.05 53 33.35 52.55 33.15 52.35 33 52.1 32.45 52.2 30.35 52.75 31 51.2 31.65 49.7 34.05 48.5 35.55 47.85 36.45 47.2 37.4 46.55 37.15 46.3 37 46.1 35.95 46.4 34.85 46.7 33.65 47.3 31.7 48.25 31.15 48.3 30.55 48.3 30.55 47.4 30.55 46.8 31 46.4 31.45 46 32.05 46 32.65 46 33.1 45.75 33.55 45.45 33.55 45 33.55 44.6 33.1 44.5 32.65 44.4 32.05 44.6 30.3 45.3 30.6 44.1 30.85 42.9 32.65 41.9 34.85 40.9 33.75 39.8 33.15 39.2 32.55 39.35 32 39.45 31.15 40.3 29.2 42.05 28.35 42.4
M 33.55 55.5
Q 33.55 55 34.05 55 34.55 55 34.55 55.5 34.55 56 34.05 56 33.55 56 33.55 55.5
M 29.55 38.5
Q 29.55 39 30.05 39 30.55 39 30.55 38.5 30.55 38 30.05 38 29.55 38 29.55 38.5
M 29.55 34.5
Q 29.55 35 30.05 35 30.55 35 30.55 34.5 30.55 34 30.05 34 29.55 34 29.55 34.5
M 28.3 32.8
Q 28.5 32.6 28.25 32.3 27.55 31.8 26.85 32.3 26.65 32.6 26.85 32.8 27.05 33 27.55 33 28.1 33 28.3 32.8
M 23.85 36.5
Q 23.6 36.3 22.25 36.3
L 19.75 36.3 22.35 39
Q 24.4 41.1 25.65 41.8 26.95 42.45 26.05 40.9 25.75 40.5 26.1 39.55 26.4 38.6 27.15 37.7 28.85 35.65 27.55 36.8 26.9 37.3 25.95 37.65 24.95 38 24.15 38 22.95 38 22.8 37.8 22.65 37.6 23.45 37.1 24.15 36.65 23.85 36.5
M 24.85 34.3
Q 24.65 34.6 24.85 34.8 25.05 35 25.55 35 26.1 35 26.3 34.8 26.5 34.6 26.25 34.3 25.55 33.8 24.85 34.3
M 20.55 33
Q 20.55 33.55 20.75 33.75 20.95 33.95 21.25 33.7 21.8 33 21.25 32.3 20.95 32.1 20.75 32.3 20.55 32.5 20.55 33
M 30.05 25
Q 29.55 25 29.55 25.5 29.55 26 30.05 26 30.55 26 30.55 25.5 30.55 25 30.05 25
M 32.85 26.3
Q 32.65 26.6 32.85 26.8 33.05 27 33.55 27 34.1 27 34.3 26.8 34.5 26.6 34.25 26.3 33.55 25.8 32.85 26.3
M 30.95 29.1
Q 31.2 28.7 30.75 28.35 30.35 27.9 29.45 27.7 28.25 27.4 28.1 27.55 27.9 27.7 28.65 28.6 29.65 29.8 30.05 29.9 30.45 30 30.95 29.1
M 34.35 30.8
Q 33.55 30.5 32.95 30.7 31.65 31.15 31.65 32 31.6 32.85 32.85 33.3 33.3 33.45 33.8 33.3 34.3 33.15 34.35 32.8 34.5 32.5 34.95 32.45 35.4 32.4 35.85 32.7 36.4 33 36.35 32.75 36.35 32.45 35.75 31.8 35.15 31.1 34.35 30.8
M 35.85 28.3
Q 35.65 28.6 35.85 28.8 36.05 29 36.55 29 37.1 29 37.3 28.8 37.5 28.6 37.25 28.3 36.55 27.8 35.85 28.3
M 17.3 48.5
Q 17 48.15 16.85 48.4 16.35 48.9 17.05 49.9 17.75 51.1 18.05 50.95 18.4 50.8 17.85 49.5 17.65 48.85 17.3 48.5
M 14.75 47.7
Q 13.9 47.2 12.55 48.1 11.6 48.6 11.65 48.8 11.7 49 12.85 49 13.6 49 14.1 49.55 14.55 50.05 14.55 50.9 14.55 52.9 16.85 53.2 24.75 54.25 24.05 53 23.4 52 21.95 52 20.65 52 20.55 51.1 20.45 50.15 21.65 49.4 22.1 49.2 22.7 49.4 23.3 49.6 23.65 50.1 23.95 50.65 24.4 50.8 24.9 51 25.25 50.7 25.9 49.9 24.55 48.9 23.6 48.3 23.65 47.85 23.75 47.4 24.95 46.5 26.75 45.15 26.2 45.05 25.65 44.95 23.55 46.3 22.3 47.05 21.7 47 21.15 46.9 20.55 46 20.15 45.4 19.7 45.2 19.2 45.05 18.85 45.4 18.55 45.7 18.85 46.25 19.1 46.75 19.85 47.2 21.2 47.9 21.2 48.3 21.25 48.75 19.95 50.1 18.3 51.95 16.95 51.95 15.55 51.9 15.55 50.1 15.55 48.25 14.75 47.7
M 17.55 38.5
Q 17.55 39 18.05 39 18.55 39 18.55 38.5 18.55 38 18.05 38 17.55 38 17.55 38.5
M 19.05 41
Q 19.55 42 20.15 42 20.55 42 20.55 41 20.55 40.6 20.25 40.3 19.9 40 19.45 40 19.1 40 18.95 40.3 18.85 40.65 19.05 41
M 17.25 43.3
Q 16.95 43.1 16.75 43.3 16.55 43.5 16.55 44 16.55 44.55 16.75 44.75 16.95 44.95 17.25 44.7 17.8 44 17.25 43.3
M 37.55 22.5
Q 37.55 23 38.05 23 38.55 23 38.55 22.5 38.55 22 38.05 22 37.55 22 37.55 22.5
M 37.25 24.3
Q 36.55 23.8 35.85 24.3 35.65 24.6 35.85 24.8 36.05 25 36.55 25 37.1 25 37.3 24.8 37.5 24.6 37.25 24.3
M 31.85 23.3
Q 31.65 23.6 31.85 23.8 32.05 24 32.55 24 33.1 24 33.3 23.8 33.5 23.6 33.25 23.3 32.55 22.8 31.85 23.3
M 77.55 47.9
Q 77.55 48.35 77.85 48.7 78.15 49 78.55 49 79.55 49 79.55 48.6 79.55 48 78.55 47.5 78.2 47.3 77.85 47.4 77.55 47.55 77.55 47.9
M 63.85 49
Q 63.65 48.2 63.25 47.6 62.85 47 62.55 47 62.2 47 62.1 47.6 62 48.15 62.25 49 62.45 49.8 62.85 50.4 63.25 51 63.55 51 63.9 51 64 50.4 64.1 49.85 63.85 49
M 67.85 41.3
Q 67.65 41.6 67.85 41.8 68.05 42 68.55 42 69.1 42 69.3 41.8 69.5 41.6 69.25 41.3 68.55 40.8 67.85 41.3
M 77.95 35.3
Q 77.85 35.65 78.05 36 78.55 37 79.15 37 79.55 37 79.55 36 79.55 35.6 79.25 35.3 78.9 35 78.45 35 78.1 35 77.95 35.3
M 78.05 31
Q 77.55 31 77.55 31.5 77.55 32 78.05 32 78.55 32 78.55 31.5 78.55 31 78.05 31
M 74.55 28
Q 74.55 28.55 74.75 28.75 74.95 28.95 75.25 28.7 75.8 28 75.25 27.3 74.95 27.1 74.75 27.3 74.55 27.5 74.55 28
M 77.55 28.5
Q 77.55 29 78.05 29 78.55 29 78.55 28.5 78.55 28 78.05 28 77.55 28 77.55 28.5
M 54.3 49.45
Q 54 49 53.55 49 53.15 49 53 49.65 52.8 50.35 52.95 51.3
L 53.45 53.5 56.05 53.5
Q 57.7 53.5 58.05 53.1 58.45 52.65 58.05 51.3 57.5 49 59.05 49 59.65 49 60.1 48.55 60.55 48.05 60.55 47.4 60.55 46.35 60.25 46.3 59.95 46.25 59.05 47 58.45 47.55 58 47.65 57.55 47.75 57.55 47.4 57.55 46.65 56.55 48 55.7 49.5 56.75 50.7 57.35 51.45 57.2 51.75 57.05 52 56.15 52 55.5 52 55 51.55 54.55 51.1 54.55 50.5 54.55 49.9 54.3 49.45
M 52.55 46.1
Q 52.55 46.45 52.85 46.75 53.15 47 53.55 47 54 47 54.3 46.55 54.55 46.1 54.55 45.4 54.55 44.8 54.3 44.55 54 44.3 53.55 44.5 52.55 45.1 52.55 46.1
M 52.55 42.1
Q 52.55 42.45 52.85 42.75 53.15 43 53.55 43 54 43 54.3 42.55 54.55 42.1 54.55 41.4 54.55 40.8 54.3 40.55 54 40.3 53.55 40.5 52.55 41.1 52.55 42.1
M 48.95 42
Q 46.45 43 46 42.9 45.55 42.8 45.55 41.4 45.55 40.05 43.4 38.05 41.3 36.1 39.85 36 39.3 36 38.95 35.75 38.55 35.45 38.55 35 38.55 34.6 38.1 34.5 37.65 34.4 37.05 34.6 35.55 35.35 35.55 36.1 35.55 36.45 36 36.75 36.45 37 37.05 37 37.65 37 38.7 37.6 39.75 38.2 40.55 39 41.45 39.9 42.3 40.3 43.15 40.75 43.55 40.5 44 40.2 44.3 40.5 44.55 40.8 44.55 41.5 44.55 43.2 43.05 42.6 41.55 42.1 41.55 43.5 41.55 44.9 43.05 44.4 44.55 43.8 44.55 45.5 44.55 46.2 44.3 46.45 44 46.75 43.55 46.5 43.2 46.3 42.85 46.4 42.55 46.55 42.55 46.9 42.55 47.35 42.85 47.7 43.1 48 43.55 48 43.95 48 44.05 48.45 44.1 48.65 44.1 48.9
L 46.35 48.3
Q 47.25 48.05 47.9 47.7 48.55 47.25 48.55 46.9 48.55 46.55 48.1 46.45 47.65 46.35 47.05 46.6 46.4 46.9 45.95 46.65 45.55 46.35 45.55 45.6 45.55 44.95 45.8 44.45 46.1 44 46.45 44 47.6 44 48.75 43.5 49.65 43.1 49.95 45 50.25 46.95 50.25 53.2
L 50.45 64.9
Q 50.6 66.2 51.05 65.9 51.4 65.45 51.55 62.05 51.65 58.75 51.55 49.8
L 51.55 41.1 48.95 42
M 40.85 33.4
Q 41.6 33.2 41.95 32.8 42.3 32.45 42.05 32.2 41.85 32 41.3 32.2 40.75 32.4 40.25 32.9 39.55 33.65 39.7 33.75 39.8 33.85 40.85 33.4
M 44 30.6
Q 43.55 30.25 43.55 30.7 43.55 31.2 43.85 31.75 44.15 32.25 44.55 32.5 45.85 33.35 45.55 34.6 45.3 35.85 43.95 35.3 43.05 35 42.8 35.2 42.55 35.35 42.75 36.1 43 36.7 43.6 37.05 44.2 37.35 44.95 37.2 45.6 37.05 46.1 37.45 46.55 37.8 46.55 38.5 46.55 39.1 46.8 39.55 47.1 40 47.45 40 48.35 40 47.5 37.05 46.65 34.05 45.15 31.8 44.45 30.9 44 30.6
M 45.85 28.15
Q 46.15 28.75 45.95 29.2 45.6 29.7 45.75 29.8 45.9 29.9 46.45 29.6 47.15 29.15 47.05 28.55 46.9 27.95 45.95 26.9 45.3 26.1 44.6 25.7 43.9 25.3 43.65 25.6 43.4 25.85 43.75 26.3 44.1 26.75 44.85 27.1 45.55 27.55 45.85 28.15
M 51.55 17.5
Q 51.55 18 52.05 18 52.55 18 52.55 17.5 52.55 17 52.05 17 51.55 17 51.55 17.5
M 46.05 20
Q 46.55 20 46.55 19.5 46.55 19 46.05 19 45.55 19 45.55 19.5 45.55 20 46.05 20
M 42.05 24.2
Q 41.9 23.7 40.95 22.9 39.05 21.45 39.95 22.8 40.25 23.3 40.15 24.1 40 24.9 39.55 25.5 38.3 27 39.45 27 40.8 27 40.55 28.45 40.3 29.95 38.85 30.3 37.8 30.6 37.8 30.7 37.75 30.85 38.65 30.9 40.45 31.05 41.45 29.75 42.4 28.45 41.35 27.2 40.65 26.45 40.7 26 40.7 25.55 41.45 25.1 42.15 24.65 42.05 24.2
M 42.55 21.5
Q 42.55 22 43.05 22 43.55 22 43.55 21.5 43.55 21 43.05 21 42.55 21 42.55 21.5
M 49.15 17.6
Q 48.5 17.8 48 18.15 47.55 18.45 47.55 18.6 47.55 19.2 48.6 19 49.6 18.75 50.05 18 50.5 17.1 49.15 17.6
M 67.55 19.5
Q 67.55 20 68.05 20 68.55 20 68.55 19.5 68.55 19 68.05 19 67.55 19 67.55 19.5
M 70.55 21
Q 70.15 21 69.95 21.35 69.7 21.65 69.85 22.1 69.95 22.55 69.6 23.05 69.3 23.55 68.85 23.7 68.35 23.95 67.95 23.6 67.55 23.3 67.55 22.6 67.55 21.9 67.3 21.45 67 21 66.55 21 66.15 21 65.85 21.45 65.55 21.9 65.55 22.5 65.55 23.1 65.85 23.55 66.15 24 66.55 24 67 24 67.3 24.45 67.55 24.9 67.55 25.5 67.55 27 68.25 26.95 68.95 26.9 70.15 25.3 71.35 23.75 71.5 22.35 71.6 21 70.55 21
M 60.9 20.2
Q 60.75 19.45 60.95 19.1 61.25 18.75 61.05 18.2 60.9 17.7 60.35 17.4 59.1 16.7 59.75 17.5 60.4 18.15 59.45 19.6 58.5 21 57.45 21 57.1 21 56.8 20.55 56.55 20.1 56.55 19.5 56.55 18.05 54.95 18.7 53.85 19.1 53.85 19.35 53.85 19.6 54.95 20.2 56.55 21.1 56.55 21.8 56.55 22.55 54.05 23.65 51.6 24.75 51.05 24.2 50.35 23.45 50.6 22.25 50.8 21.05 51.55 21.5 52 21.7 52.3 21.6 52.55 21.5 52.55 21.1 52.55 20 51.9 20.1 51.25 20.15 49.05 21.6 48.1 22.25 47.05 22.55 46.05 22.8 45.65 22.5 44.7 22.1 45.15 23.4 45.7 24.85 46.5 24.95 47.35 25.05 47.95 23.8 48.4 22.45 49.95 24.4 50.55 25.15 51.3 25.5 52 25.8 52.45 25.5 54.2 24.5 54.65 25.55 55.1 26.6 53.45 27.8 51.95 28.85 51.4 28.8 50.85 28.75 49.95 27.5 48.55 25.75 48.55 26.7 48.55 27.2 48.9 27.75 49.2 28.3 49.65 28.5 50.55 29.25 48.95 30.4 47.2 31.7 48.35 32.4 48.85 32.7 49.2 32.6 49.55 32.5 49.55 32.1 49.55 31.65 49.85 31.35 50.15 31 50.55 31 51.7 31 51.5 32.1 51.3 33.15 49.95 34.5 48.75 35.65 48.75 35.85 48.8 36.05 50.05 35.8 50.8 35.65 51.45 36 52.1 36.3 52.35 36.9 52.6 37.65 52.3 37.85 52.05 38 51.15 37.7 49.55 37.05 49.55 38.5 49.55 39.95 50.2 39.95 50.9 39.95 54.25 38.5 56.95 37.35 58.3 37.55 59.6 37.75 57.65 39 56.45 39.65 56.1 42.35 55.75 45 56.75 45.6 57.05 45.8 57.3 45.65 57.55 45.5 57.55 45.1 57.55 44.65 57.95 44.35 58.3 44 58.85 44 60.05 44 61.25 42.1 61.95 40.95 61.8 39.9 61.65 38.75 60.45 36.6 58.8 33.55 58.65 32.75 58.45 32 59.45 32 60.2 32 62.4 36.2 64.55 40.35 64.55 41.7 64.55 42.2 64.05 42.7 63.55 43.15 62.85 43.3 61.8 43.6 61.85 43.7 61.9 43.85 63.15 43.9 64.35 44 64.85 44.6 65.35 45.2 65.35 46.6 65.3 47.6 65.65 48.75 66 49.85 66.45 50.3 67.1 50.95 67.25 50.45 67.35 50 67.05 48 66.2 43.3 65.2 39.65 64.1 35.85 63.45 35.4 62.4 34.8 62.65 33.9 62.85 33 64.05 33 64.65 33 65.1 33.25 65.55 33.55 65.55 33.9 65.55 34.75 66.65 37.7 67.25 39.3 67.65 39.55 68.05 39.8 68.55 39 69.4 37.65 69.95 38.2 70.55 38.7 70.75 41.1 70.9 42.2 70.65 42.8 70.4 43.4 69.85 43.3 68.9 43.1 68.6 43.75 68.35 44.4 68.35 47 68.35 49.4 68.6 49.7 68.85 50 70.05 49 70.95 48.25 71.05 47.8 71.15 47.4 70.45 47 70 46.7 69.85 46.15 69.7 45.55 69.95 45.1 71 43.45 71.6 44.8 72.2 46.15 72.05 49.7 71.85 55.4 71.5 56.65 71.1 57.85 69.55 58.3 67.9 58.75 67.6 58.05 67.3 57.3 68.95 56.7 69.8 56.4 70.75 53.7 71.7 51 70.95 51 69.6 51 67.65 52.2 65.7 53.45 66.05 54.1 66.35 54.55 66.35 56.15 66.35 57.75 66.05 59.6 65.65 62.25 65.15 63.1 64.65 64 63.45 64 62.7 64 62.15 63.75 61.55 63.45 61.55 63 61.55 62.6 62 62.3 62.45 62 63.05 62 63.9 62 64.2 60.9 64.55 59.75 64.55 56.8 64.55 51.55 63.65 52.9 63.25 53.5 63.15 54.3 63.05 55.1 63.25 55.7 63.5 56.2 63.35 56.6 63.25 57 62.85 57 62.5 57 61.9 55.9 61.3 54.8 60.85 53.3
L 59.75 49.5 60.25 53.8
Q 60.65 56.35 60.4 57.2 60.2 58 59.15 58 58.5 58 58 58.35 57.55 58.65 57.55 59.1 57.55 59.55 58 59.75 58.45 59.9 59.05 59.6 59.75 59.4 60.15 59.6 60.55 59.8 60.55 60.4 60.55 61 59.85 61.4 59.1 61.8 58.05 61.8 56.4 61.8 56 61.2 55.55 60.6 55.55 58.4 55.55 55 54.85 55 54.15 55 54.15 59.2 54.25 61 53.95 62.65 53.7 64.3 53.25 64.8 52.7 65.5 52.85 65.65 53 65.75 53.95 65.4 54.6 65.2 55.1 64.75 55.55 64.3 55.55 63.9 55.55 63.1 58.35 63.1 60.1 63.25 60.2 63.35 60.25 63.4 58.85 63.7 56.55 64.15 56.65 64.95 56.7 65.75 59.05 65.5 60.1 65.35 61 65.55 61.85 65.7 62.15 66.1 62.35 66.45 62.2 66.75 62 67 61.55 67 61.1 67 60.85 67.55 60.6 68.05 60.75 68.8 61.05 70.5 58.85 70.8 57.85 70.95 57.2 71.3 56.55 71.65 56.55 72 56.55 72.4 57 72.5 57.45 72.65 58.05 72.4 59.25 71.85 59.45 72.5 59.6 73.15 58.95 75.7 58.55 77 57.8 77.45 57 77.9 55.15 77.8 51.45 77.75 50.5 78 49.55 78.3 51.55 78.9 54.45 79.7 56.75 78.8 59 77.9 60.15 75.5
L 61.45 72.5 60.95 75.5
Q 60.65 77.3 60.75 77.55 60.85 77.8 61.45 76.9 63.3 74.15 63.45 68.3 63.55 67.3 63.85 66.65 64.2 66 64.65 66 65.1 66 65.3 66.6 65.45 67.2 65.25 68 65.05 68.8 65.15 69.4 65.25 70 65.65 70 66.25 70 66.6 67.3 66.9 64.5 66.55 62 66.5 61.2 66.8 61.3 67.15 61.45 68.05 62.5 69.7 64.55 70.15 63.3 70.75 61.9 72.65 62.05 74.55 62.15 74.55 63.6 74.55 65.2 72.85 64.6 71.6 64.15 71.6 64.3 71.6 64.45 72.85 65.4 74.25 66.45 74.5 67.75 74.75 69 73.55 69 73.15 69 72.85 68.75 72.55 68.45 72.55 68 72.55 67.6 72.15 67.3 71.75 67 71.15 67 70.6 67 70 66.65 69.5 66.3 69.25 65.8 69.1 65.25 68.85 65.7 68.55 66.1 68.35 67.3 68.15 68.4 68.25 69.4 68.35 70.35 68.65 70.6 69 70.8 69.3 70.5 69.55 70.2 69.55 69.6 69.55 68.1 70.3 68.1 71.05 68.05 72.95 69.5 74.25 70.5 74.35 71.2 74.5 71.9 73.75 73.7 72.9 75.65 72.95 75.8 73 75.95 74.05 74.6 75.55 72.55 75.55 71.8 75.55 71.5 76.1 71.45 76.6 71.4 77.35 71.6 78.4 72 78.45 71.9 78.5 71.75 77.55 71.1 76.6 70.35 76.8 69.8 76.95 69.25 78.55 67.9 80.15 66.6 80.2 66.45 80.25 66.25 78.85 66.9 76.65 68 76.15 68 75.5 68 75.8 65.6 76.15 63.15 76.95 62.1 77.6 61.2 77.5 61.05 77.4 60.9 76.35 61.2 75.7 61.5 74.7 61.3 73.7 61.15 72.95 60.6 71.7 59.65 71.65 59.2 71.65 58.75 72.85 57.6 74.55 55.7 74.55 54.5 74.55 53.15 75.25 51.4 75.65 50.45 75.45 50.25 75.3 50.05 74.45 50.5 73.55 51.1 73.55 50.95 73.5 50.75 74.35 49.7 74.95 49.05 75.25 47.75 75.55 46.5 75.45 45.3 75.3 42.75 75.85 39.5 76.15 38.3 76.1 36.55 76.05 34.8 75.65 33.5 75 31.35 74.85 31.25 74.7 31.2 74.55 33
L 74.45 35.5 73.45 33.1
Q 72.55 30.65 72.95 29.3 73.25 28.65 72.65 28.45 72.05 28.3 70.25 28.5 68.25 28.85 67.3 28.45 66.4 28.05 65.25 26.3
L 63.55 23.5 64.15 26.2
Q 64.75 28.85 63.35 29.3 61.95 29.7 64.35 29.3 66.8 28.85 66.35 30.2 66.1 30.75 65.65 31.1 65.2 31.5 64.75 31.5 63.75 31.5 63.05 32.2 62.75 32.5 62.1 32.25 61.45 32 60.75 31.3 59.7 30.25 59.7 29.85 59.7 29.45 60.75 28.6 61.8 27.85 61.85 27.3 61.85 26.8 60.95 25.5 60.35 24.75 59.75 24.45 59.15 24.1 58.85 24.4 58.55 24.7 58.75 25.15 58.95 25.65 59.55 26 60.45 26.5 60.5 27 60.5 27.45 59.75 28.2 59.1 28.9 58.55 28.9 58.05 28.9 57.35 28.2 56.85 27.7 56.75 27.35 56.65 27 57.05 27 57.5 27 57.35 26.7 57.15 26.4 56.55 26 55.65 25.4 55.8 24.8 55.95 24.2 57.45 22.8 59.9 20.65 60.35 21.8 60.7 23 61.75 23 62.2 23 62.2 22.6 62.15 22.15 61.55 21.5 61.1 20.9 60.9 20.2
M 56.25 29.4
Q 55.65 30.9 57.15 30.3 57.7 30.1 58.1 30.25 58.55 30.45 58.55 30.9 58.55 31.35 57.7 31.6 56.8 31.9 55.55 31.8 52.7 31.6 52.15 31.1 51.6 30.65 52.65 29.3 53.75 27.95 55.3 28 56.8 28.05 56.25 29.4
M 52.55 33.5
Q 52.55 33 53.05 33 53.55 33 53.55 33.5 53.55 34 53.05 34 52.55 34 52.55 33.5
M 55.55 35.9
Q 55.55 36.35 55.3 36.7 55 37 54.55 37 53.3 37 53.65 36.15 53.95 35.25 55.55 34.2 56.85 33.45 57.2 33.5 57.55 33.55 57.55 34.6 57.55 35.2 57.3 35.45 57 35.7 56.55 35.5 56.2 35.3 55.85 35.4 55.55 35.55 55.55 35.9
M 57.55 41.5
Q 57.55 40.9 57.85 40.45 58.15 40 58.55 40 59 40 59.3 40.45 59.55 40.9 59.55 41.5 59.55 42.1 59.3 42.55 59 43 58.55 43 58.15 43 57.85 42.55 57.55 42.1 57.55 41.5
M 71.55 31
Q 72 31.9 72.2 32.95 72.35 34 72.15 34.6 71.95 35.2 72.05 35.6 72.2 36 72.65 36 73.1 36 73.3 36.4 73.45 36.8 73.25 37.4 73 38 73.2 38.6 73.35 39.15 73.85 39.3 75.15 39.75 73.95 40.9 73.35 41.6 72.85 40.8 72.3 40 71.55 37.3 70.05 32.4 69.15 31.8 68.05 31.1 69.25 29.9 69.85 29.3 70.35 29.5 70.9 29.75 71.55 31
M 69.55 36.6
Q 69.55 37 68.75 37 67.7 37 66.7 34.5 65.7 32.05 66.55 31.5 67.15 31.15 68.35 33.2 69.55 35.25 69.55 36.6
M 74.55 45
Q 74.55 47 74.15 47 73.8 47 73.25 45 73.05 44.2 73.15 43.6 73.25 43 73.65 43 74.05 43 74.3 43.6 74.55 44.15 74.55 45
M 71 60.3
Q 71.3 60.6 71.05 61 70.55 62 69.45 62 68.55 62 68.55 61 68.55 60.6 69 60.3 69.5 60 70.15 60 70.75 60 71 60.3
M 69.55 53.9
Q 69.55 55 68.55 55.5 68.15 55.75 67.85 55.45 67.55 55.2 67.55 54.6 67.55 53.95 67.85 53.45 68.15 53 68.55 53 69.55 53 69.55 53.9
M 61.85 58.45
Q 62.15 58 62.55 58 63 58 63.3 58.45 63.55 58.9 63.55 59.5 63.55 60.1 63.3 60.55 63 61 62.55 61 62.15 61 61.85 60.55 61.55 60.1 61.55 59.5 61.55 58.9 61.85 58.45
M 64.25 19.3
Q 63.9 19 63.45 19 63.1 19 62.95 19.3 62.85 19.65 63.05 20 63.55 21 64.15 21 64.55 21 64.55 20 64.55 19.6 64.25 19.3
M 85.55 62.5
Q 85.55 63 86.05 63 86.55 63 86.55 62.5 86.55 62 86.05 62 85.55 62 85.55 62.5
M 81.55 63.5
Q 81.55 64 82.05 64 82.55 64 82.55 63.5 82.55 63 82.05 63 81.55 63 81.55 63.5
M 86.55 59
Q 86.55 59.55 86.75 59.75 86.95 59.95 87.25 59.7 87.8 59 87.25 58.3 86.95 58.1 86.75 58.3 86.55 58.5 86.55 59
M 82.55 60
Q 84 60.9 84.25 60.9 84.55 60.9 84.55 60 84.55 59.6 84.05 59.3 83.5 59 82.85 59 81.7 59 81.65 59.2 81.6 59.4 82.55 60
M 84.65 52
Q 84.2 52 83.9 52.45 83.55 52.9 83.55 53.5 83.55 54.1 83.1 54.55 82.65 55 82.05 55 80.7 55 80.65 54.65 80.6 54.35 81.45 51.3 82.45 48 81.45 47.5 81.1 47.2 80.8 47.65 80.55 48.1 80.55 49 80.55 51.1 78.85 50.8 77.25 50.5 76.45 53.3 75.8 56 76.65 55.4 77.05 55.2 77.3 54.6 77.55 54 77.55 53.4 77.55 52.8 77.85 52.4 78.15 52 78.55 52 79.8 52 79.5 54.05 79.2 56.1 77.85 57 76.65 57.75 76.7 57.85 76.7 57.9 78.05 57.4 80.25 56.6 83.35 56.6 86.55 56.6 86.55 55.8 86.55 55.5 86.3 55.25 86 55 85.55 55 85.15 55 85.05 54.55 84.95 54.1 85.15 53.5 85.45 52.9 85.3 52.45 85.1 52 84.65 52
M 86.55 51
Q 86.55 51.55 86.75 51.75 86.95 51.95 87.25 51.7 87.8 51 87.25 50.3 86.95 50.1 86.75 50.3 86.55 50.5 86.55 51
M 87.65 47.4
Q 87.6 48.2 87.75 48.6 87.9 49 88.15 48.7 88.4 48.45 88.45 47.9 88.45 47.3 88.25 46.8 88.05 46.2 87.85 46.4 87.65 46.6 87.65 47.4
M 82.15 46
Q 82.75 46 82.5 45.45 82.25 44.9 81.35 44.4 80.85 44.1 80.75 44.2 80.65 44.3 80.95 44.8 81.65 46 82.15 46
M 83.25 39.9
Q 81.65 37.5 82.15 39.3 82.7 40.9 81.75 41 80.85 41.05 80.15 39.5 79.35 37.35 78.2 38.55 77.05 39.8 77.35 42.5 77.5 43.9 77.9 44.85 78.25 45.75 78.55 45.5 78.9 45.3 79 44.55 79.1 43.85 78.85 43 78.65 42.2 78.8 41.6 79 41 79.45 41 79.9 41 80.25 41.3 80.55 41.55 80.55 42 80.55 42.4 80.95 42.5 81.35 42.6 81.95 42.4 83 42 83.8 43.9 84.55 45.75 84.55 48.8 84.55 49.7 84.75 50.35 84.9 51 85.15 51 86.05 51 85.25 46.3 84.45 41.55 83.25 39.9
M 87.3 42.5
Q 87 42.15 86.85 42.4 86.35 42.9 87.05 43.9 87.75 45.1 88.05 44.95 88.4 44.8 87.85 43.5 87.65 42.85 87.3 42.5
M 86.25 39.6
Q 86.45 39.45 86.3 38.75 86.1 38.05 85.65 37.3 84.75 35.8 84.6 36.2 84.45 36.55 85.15 38.5 85.45 39.2 85.8 39.5 86.1 39.85 86.25 39.6
M 82.5 32.45
Q 82.25 31.9 81.35 31.4 80.85 31.1 80.75 31.2 80.65 31.3 80.95 31.8 81.65 33 82.15 33 82.75 33 82.5 32.45
M 82.25 35.3
Q 81.9 35 81.45 35 81.1 35 80.95 35.3 80.85 35.65 81.05 36 81.55 37 82.15 37 82.55 37 82.55 36 82.55 35.6 82.25 35.3 Z"/>
</g>
</defs>

<g transform="matrix( 1, 0, 0, 1, 0,0) ">
<use xlink:href="#Layer1_0_FILL"/>
</g>
</svg>
