
<svg xmlns="http://www.w3.org/2000/svg" version="1.1" xmlns:xlink="http://www.w3.org/1999/xlink" preserveAspectRatio="none" x="0px" y="0px" width="100px" height="100px" viewBox="0 0 100 100">
<defs>
<g id="Layer1_0_FILL">
<path fill="#000000" stroke="none" d="
M 46.6 77.4
Q 46.35 77.15 45.8 77.15 45.2 77.1 44.7 77.3 44.1 77.55 44.3 77.7 44.5 77.9 45.3 77.9 46.1 77.95 46.5 77.8 46.9 77.65 46.6 77.4
M 50.9 79
Q 51.45 79 51.65 78.8 51.85 78.6 51.6 78.3 50.9 77.8 50.2 78.3 50 78.6 50.2 78.8 50.4 79 50.9 79
M 57.9 79.5
Q 57.9 80 58.4 80 58.9 80 58.9 79.5 58.9 79 58.4 79 57.9 79 57.9 79.5
M 34.7 78.7
L 28.4 78.1 34.9 79.4
Q 41.2 80.8 43.9 80.8
L 46.4 80.8 43.7 80
Q 41.05 79.25 34.7 78.7
M 24.3 85.7
Q 24.5 85.9 25.3 85.9 26.1 85.95 26.5 85.8 26.9 85.65 26.6 85.4 26.35 85.15 25.8 85.15 25.2 85.1 24.7 85.3 24.1 85.55 24.3 85.7
M 15.9 76.9
L 18.4 77.8 15.9 78
Q 14.55 78.15 14.4 78.3 14.25 78.5 15.2 78.7 15.9 78.85 16.25 79.3 16.65 79.75 16.4 80.1 16.2 80.5 17.25 80.95 18.3 81.4 20.1 81.7
L 24.4 82.5 16.4 83.7 21.4 83.9
Q 28 84.35 31.4 85
L 36.4 85.7 31.9 86.1
Q 27.45 86.45 39.9 87
L 56.4 87.7
Q 59.15 87.7 58.95 87.55 58.75 87.45 54.9 86.6 50.8 85.65 49 85.1 46.85 84.45 43.4 83 41.9 82.35 31.9 80.4 26.35 79.35 24.95 78.85 23.5 78.35 24.9 77.9 26.7 77.4 26.65 77.3 26.6 77.2 24.4 77.1 19.6 76.8 17.4 76.5 15 76.2 14.7 76.3 14.4 76.35 15.9 76.9
M 34.9 83.5
Q 34.9 83 35.4 83 35.9 83 35.9 83.5 35.9 84 35.4 84 34.9 84 34.9 83.5
M 38.6 85.3
Q 38.85 85.6 38.65 85.8 38.45 86 37.9 86 37.4 86 37.2 85.8 37 85.6 37.2 85.3 37.9 84.8 38.6 85.3
M 27.6 82.3
Q 27.85 82.6 27.65 82.8 27.45 83 26.9 83 26.4 83 26.2 82.8 26 82.6 26.2 82.3 26.9 81.8 27.6 82.3
M 12.1 72.5
Q 11.65 72.95 12.5 73.1 13 73.1 24.9 74.9 29.55 75.65 34.05 76.2 38.45 76.7 39.9 76.7
L 43.4 76.8 39.4 75.9
Q 34 74.85 23.3 73.5 12.45 72.15 12.1 72.5
M 9.05 68.35
Q 8.95 68.45 9.4 68.9 10.45 69.8 26.9 72.5 43.4 75.25 43.8 75.6 43.95 75.75 44.7 75.85 45.5 75.95 46.3 75.9 52.1 75.75 28.4 71.5 13.2 68.75 10.85 68.45 9.25 68.25 9.05 68.35
M 22.6 53.6
Q 30.8 56.4 31.3 56.05 31.85 55.7 23.9 52.7 16.5 49.9 15.4 49.5 14.2 49.05 14.05 49.15 13.85 49.25 14.6 50 15.15 50.55 17.5 51.6 19.95 52.75 22.6 53.6
M 24.4 68.9
Q 38.2 71.85 36.7 70.5 36.25 70.05 27 68.15 17.8 66.25 12.5 65.5 7.7 64.9 8.4 65.9 8.6 66.35 9.8 66.7 10.9 67 12.2 67.1 15.6 67.1 24.4 68.9
M 38.7 71.3
Q 38.1 71.55 38.3 71.7 38.5 71.9 39.3 71.9 40.1 71.95 40.5 71.8 40.9 71.65 40.6 71.4 40.35 71.15 39.8 71.15 39.2 71.1 38.7 71.3
M 34.9 66.5
Q 34.9 67 35.4 67 35.9 67 35.9 66.5 35.9 66 35.4 66 34.9 66 34.9 66.5
M 39.1 64.1
Q 39.2 64 40.4 64.3 45.05 65.55 45.5 65.5 46 65.4 42.9 63.8 35.2 59.9 22.2 55.1 15.95 52.75 13.05 52.2 10.15 51.6 14.7 53.6 17.95 55.05 17.8 55.4 17.65 55.75 14.2 54.9 10.55 54.1 9.05 54.05 7.5 54.05 8.5 54.8 9.3 55.6 15.2 56.9 17.6 57.45 19.2 57.95 20.75 58.5 20.6 58.7 20.05 59.1 15.9 58 12.8 57.15 11.3 57.45 9.75 57.7 12.5 58.6 15.9 59.65 16.7 60.2 17.5 60.75 15 60.3 13.15 60 12.55 60.1 11.95 60.2 12.3 60.8 13 61.95 10.7 62.1 8.3 62.2 9.95 62.7 11.65 63.25 19.4 64.9 27.45 66.65 28.95 66.8 30.45 66.9 31.8 66.1 32.6 65.6 32.45 65.25 32.3 64.95 31 64.5 28.7 63.8 29.1 63.4 29.45 63.05 34.4 64.5 43.25 67.3 39.9 64.9 39 64.25 39.1 64.1
M 21.6 61.3
Q 21.85 61.6 21.65 61.8 21.45 62 20.9 62 20.4 62 20.2 61.8 20 61.6 20.2 61.3 20.9 60.8 21.6 61.3
M 22.35 59.35
Q 22.3 59.25 24.9 59.7 28.6 60.3 29.9 61.1 31.55 62 30.2 61.8 28.85 61.65 25.4 60.5 22.4 59.45 22.35 59.35
M 29.6 65.3
Q 29.85 65.6 29.65 65.8 29.45 66 28.9 66 28.4 66 28.2 65.8 28 65.6 28.2 65.3 28.9 64.8 29.6 65.3
M 26.65 62.8
Q 26.45 63 25.9 63 25.4 63 25.2 62.8 25 62.6 25.2 62.3 25.9 61.8 26.6 62.3 26.85 62.6 26.65 62.8
M 36.2 63.3
Q 36.9 62.8 37.6 63.3 37.85 63.6 37.65 63.8 37.45 64 36.9 64 36.4 64 36.2 63.8 36 63.6 36.2 63.3
M 32.9 62.5
Q 32.9 63 32.4 63 31.9 63 31.9 62.5 31.9 62 32.4 62 32.9 62 32.9 62.5
M 16.6 62.4
Q 16.9 62.65 16.5 62.8 16.1 62.95 15.3 62.9 14.5 62.9 14.3 62.7 14.1 62.55 14.7 62.3 15.2 62.1 15.8 62.15 16.35 62.15 16.6 62.4
M 35.9 49.5
Q 35.9 50 36.4 50 36.9 50 36.9 49.5 36.9 49 36.4 49 35.9 49 35.9 49.5
M 27.4 30.9
Q 23.9 28.4 21 26.6 18.75 25.2 20.45 27.05 22.15 28.9 25.1 31.1 30.9 35.2 30.9 33.6 30.9 33.4 27.4 30.9
M 18.3 38.3
Q 18.05 38.55 20.2 40.05 22.3 41.55 25.5 43.4 31.5 46.95 32.7 47.55 33.9 48.15 33.9 47.6 33.9 47 26.3 42.45 18.7 37.95 18.3 38.3
M 18.4 41.9
Q 13.95 39.6 16.4 41.6 17.85 42.8 17.7 42.95 17.6 43.05 15.4 42.6 13.25 42.15 13.15 42.25 13.05 42.35 14.7 43.3 15.6 43.85 16.05 44.45 16.5 45.05 16.2 45.4 15.55 46.05 17.2 45.4 17.85 45.2 18.2 44.75 18.55 44.3 18.3 43.9 17.7 42.85 18.55 43.15 19.45 43.45 22.5 45.3 25.1 46.8 26.5 48.65 27.85 50.5 25.9 49.8 24.75 49.45 25.1 48.6 25.25 48.3 24.6 47.65 23.95 47 22.9 46.5 18.1 43.7 19.5 46.2 19.8 46.75 19.7 46.8 19.65 46.9 19.1 46.6 18.6 46.3 18.25 46.45 17.9 46.55 17.9 47 17.9 47.45 17.55 47.6 17.15 47.7 16.7 47.4 15.95 47.05 15.95 47.15 15.9 47.25 16.6 48 17.05 48.5 19 49.45 20.9 50.35 23.1 51.1 28 52.75 28.8 52.8 29.6 52.9 29.6 51.6 29.6 51 29.25 50.75 28.85 50.45 28.4 50.6 27.95 50.85 27.6 50.5 27.2 50.15 27.2 49.5 27.2 47.9 29.3 48.6 31.05 49.05 27.05 46.6 23.05 44.15 18.4 41.9
M 21.9 47.5
Q 21.9 48 21.4 48 20.9 48 20.9 47.5 20.9 47 21.4 47 21.9 47 21.9 47.5
M 18.4 25
Q 17.9 25 17.9 25.5 17.9 26 18.4 26 18.9 26 18.9 25.5 18.9 25 18.4 25
M 80.4 38
Q 80.9 38 80.9 37.5 80.9 37 80.4 37 79.9 37 79.9 37.5 79.9 38 80.4 38
M 46.9 48
Q 46.85 48.1 47.8 49.3 49.9 51.9 49.9 50.6 49.9 50.2 48.2 48.9 47 47.95 46.9 48
M 43.8 46
Q 43.35 46 43.2 46.25 43.05 46.5 43.3 46.8 43.45 47.1 43.05 47.35 42.65 47.6 41.9 47.6 41.2 47.6 40.65 47.35 40.1 47.15 40.2 46.9 40.3 46.6 39.75 45.9 39.2 45.15 38.4 44.5 37 43.3 37.1 43.3 37.25 43.3 39.2 44.5 43.4 46.95 42.35 45.5 41.25 44 36.3 40.4 29.4 35.45 27.7 34.6 25.95 33.7 22.5 33.4
L 18.4 33 21.7 35
Q 24.9 37.05 24.9 37.7 24.9 38.4 23.7 37.2 23.2 36.7 22.4 36.35 21.6 36 21 36 20.3 36 22.1 37.5 23.85 39 26.9 41 32.5 44.75 34.45 45.6 36.35 46.45 35.3 44.8 35 44.25 35.1 44.2 35.2 44.1 35.8 44.4 36.25 44.7 36.45 45.15 36.6 45.6 36.4 45.9 36.05 46.55 38.55 47.85 41.1 49.15 41.7 48.6 41.85 48.35 42.65 48.65 43.4 48.9 44.3 49.5 46.35 50.95 46.85 50.95 47.4 50.95 45.5 49.5 44.7 48.9 44.5 48.45 44.25 48 44.8 48 45.9 48 45.4 47 45.2 46.65 44.7 46.3 44.2 46 43.8 46
M 27.4 37.1
Q 27.15 36.65 25.9 36 25 35.55 24.5 35.05 23.95 34.55 24.2 34.4 24.55 34.05 29.75 37.5 34.9 41 34.9 41.6 34.9 42.2 34.25 41.85 33.6 41.55 31.6 40 29.25 38.2 28.45 38.1 27.65 38 29 39.7 29.95 40.8 29.8 40.9 29.65 40.95 28 40.1 26.7 39.35 26.5 38.9 26.25 38.45 26.9 38 27.6 37.55 27.4 37.1
M 44.15 25.5
Q 45.55 26.65 45.8 26.5 46.25 26.05 41.9 21.5 40.15 19.7 38.65 18.5 37.25 17.35 37 17.5 36.55 17.95 40.9 22.5 42.65 24.3 44.15 25.5
M 46.7 36.3
Q 46.2 36 46.1 36.2 46 36.35 46.4 36.9 47.2 38.35 45.2 37.2 43.2 36 41.8 34.3 40.85 33.05 40.9 33.05 41 33.05 42.5 34.3 44.6 36 45.5 36 46.3 35.85 40.4 30.3
L 34.4 24.7 50.3 37.2
Q 52.85 39.3 53.3 39.45 53.7 39.6 52.8 38 51.45 35.8 42.6 26.4 36.95 20.55 34.85 18.9 32.75 17.3 31.1 17.5 28.1 17.9 27.5 17.9 27.1 18 27.4 18.65 27.7 19.3 28.5 20.2
L 30.4 22.3 27.4 20.6
Q 25.5 19.45 25.7 19.8 25.85 20.1 28.3 22.2 32.2 25.6 35.25 28.45 38.3 31.35 35.9 29.4 29.7 24.45 26.85 22.85 23.9 21.25 23.9 22.9 23.9 23.75 35.4 32.5 40.1 36.05 43.4 38.85 46.65 41.55 46.4 41.8 45.9 42.3 43.5 40.1 42.45 39.1 41.45 38.65 40.4 38.2 39.9 38.5 38.95 39 39.1 38.2 39.3 37.45 32.15 31.7 25 25.95 24 26 23.45 26.2 27.4 29.6 31.4 33.25 31.4 34.1 31.4 35.05 41.4 42.5 49.4 48.4 50.95 49.35 52.5 50.3 50.6 48.2 49.9 47.5 49.55 46.75 49.25 46.05 49.5 45.8 50.05 45.3 48.8 44.4 48.2 44 48.1 44.2 47.95 44.35 48.4 45 49.1 46.3 48 45.6 47.35 45.15 47.3 44.7 47.3 44.25 47.9 43.5 48.5 42.75 48.5 42.3 48.5 41.9 47.9 41.5 47.4 41.2 47.2 40.45 46.95 39.65 47.2 38.9 47.4 38.15 47.25 37.4 47.1 36.6 46.7 36.3
M 47.9 42.5
Q 47.9 43 47.4 43 46.9 43 46.9 42.5 46.9 42 47.4 42 47.9 42 47.9 42.5
M 41.9 40.5
Q 41.9 41 41.4 41 40.9 41 40.9 40.5 40.9 40 41.4 40 41.9 40 41.9 40.5
M 30.35 19.95
Q 29.8 19.7 29.3 18.8 29 18.3 29.1 18.2 29.2 18.1 29.7 18.4 30.9 19.1 30.9 19.6 30.9 20.2 30.35 19.95
M 32.3 23.8
Q 32 23.3 32.1 23.2 32.2 23.1 32.7 23.4 33.9 24.1 33.9 24.6 33.9 25.2 33.35 24.95 32.8 24.7 32.3 23.8
M 34.9 35.6
Q 34.9 36.2 34.35 35.95 33.8 35.7 33.3 34.8 33 34.3 33.1 34.2 33.2 34.1 33.7 34.4 34.9 35.1 34.9 35.6
M 58.2 16.8
Q 55.6 14.2 53.8 13.7 52.75 13.4 53.3 14.55 53.8 15.65 56.2 18.8 60.45 24.5 63.25 28.8 66.05 33.15 65 32.5 64.15 32.05 60.5 26.7 57.7 22.35 53.2 17.3 48.7 12.25 49.2 14.1 49.7 15.6 55.8 24.3 59.9 30.15 62.25 32.3 64.55 34.5 66.2 34.1 66.55 34.05 66.65 34.3 66.75 34.5 66.5 34.9 66.2 35.3 67 36.5 67.75 37.75 69.1 39 70.5 40.4 71.5 41 72.55 41.6 72.7 41.1 72.85 40.65 73.3 40.5 73.7 40.35 74.1 40.6 75.1 41.2 74.5 40.1 74.2 39.65 73.7 39.5 73.15 39.35 72.7 39.6 71.6 40.2 72.3 39.2 72.8 38.3 67.15 29.35 61.55 20.45 58.2 16.8
M 41.8 18
Q 41.15 18 45.1 22.5 48.2 25.9 49.45 26.85 50.65 27.75 48.8 25.3 46.9 22.7 44.6 20.35 42.35 18 41.8 18
M 45.1 17.65
Q 46 19.3 50 23.6 57.5 31.4 55.2 27.8 54.4 26.4 54.4 26 54.3 25.4 51.45 21.2 48.55 17 48.2 17 47.95 17 49 19.3 49.85 20.95 49.65 20.95 49.45 20.9 47.5 19.1 44.15 15.95 45.1 17.65
M 53.4 25
Q 53.9 25 53.9 25.5 53.9 26 53.4 26 52.9 26 52.9 25.5 52.9 25 53.4 25
M 77.4 20.9
Q 78.1 22.1 78.4 21.95 78.75 21.8 78.2 20.5 78 19.85 77.65 19.5 77.35 19.15 77.2 19.4 76.7 19.9 77.4 20.9
M 74.9 22.5
Q 74.9 23 75.4 23 75.9 23 75.9 22.5 75.9 22 75.4 22 74.9 22 74.9 22.5
M 73.65 18.5
Q 73.35 18.15 73.2 18.4 72.7 18.9 73.4 19.9 74.1 21.1 74.4 20.95 74.75 20.8 74.2 19.5 74 18.85 73.65 18.5
M 64.55 15.15
Q 65.2 16.8 68.4 22.5 70.75 26.55 72.25 29.55 73.75 32.55 73.5 32.7 73.35 32.95 72.7 32.1 72.05 31.2 71.3 29.8 69.55 26.5 64.1 19.25 58.65 11.95 58.2 12.4 57.95 12.55 59.6 15.1 61.35 17.7 63.8 20.9 69.9 28.8 69.9 29.7 70 30.05 70.7 31.15 71.55 32.4 72.5 33.5 74 35.15 74.45 35.4 74.85 35.6 74.5 34.5 74.15 33.15 74.3 33.25 74.45 33.3 75.5 34.8 77.2 37.2 77.5 36.9 77.75 36.6 76.4 33.9 75.7 32.6 75.4 31.6 75.1 30.55 75.3 30.3 75.45 30.05 76.1 30.85 76.75 31.65 77.4 32.9 78 34.15 78.65 35.1 79.25 36 79.5 36 80.75 36 74.1 25.85 67.4 15.7 65.2 14.2 63.85 13.4 64.55 15.15
M 70.9 24.5
Q 70.9 24 71.4 24 71.9 24 71.9 24.5 71.9 25 71.4 25 70.9 25 70.9 24.5
M 73.5 27.2
Q 75.2 28.9 74.7 29.6 74.4 29.85 73.9 29.3 73.35 28.8 72.9 27.8 72 26.15 72.1 26.1 72.15 26 73.5 27.2
M 83.1 37.8
Q 84.3 39 84.6 39 85 39 81.3 32.25 77.55 25.45 76.6 24.5 75.75 23.6 78.9 30.05 82.05 36.45 83.1 37.8
M 84.9 41
Q 84.9 41.55 85.1 41.75 85.3 41.95 85.6 41.7 86.15 41 85.6 40.3 85.3 40.1 85.1 40.3 84.9 40.5 84.9 41
M 81.7 39.4
Q 81.2 39.1 81.1 39.2 81 39.3 81.3 39.8 82 41 82.5 41 83.1 41 82.85 40.45 82.6 39.9 81.7 39.4
M 90.1 39.2
Q 90 39.3 90.3 39.8 91 41 91.5 41 92.1 41 91.85 40.45 91.6 39.9 90.7 39.4 90.2 39.1 90.1 39.2
M 86.3 33.8
Q 86.8 34.7 87.35 34.95 87.9 35.2 87.9 34.6 87.9 34.1 86.7 33.4 86.2 33.1 86.1 33.2 86 33.3 86.3 33.8
M 88.7 36.4
Q 88.2 36.1 88.1 36.2 88 36.3 88.3 36.8 89 38 89.5 38 90.1 38 89.85 37.45 89.6 36.9 88.7 36.4
M 82.3 27.6
Q 82.5 28.2 82.9 29 84 31 84.5 31 84.65 31 84.5 30.4 84.35 29.8 83.9 29 82.8 27 82.3 27 82.15 27 82.3 27.6
M 81.5 26
Q 82.1 26 81.85 25.45 81.6 24.9 80.7 24.4 80.2 24.1 80.1 24.2 80 24.3 80.3 24.8 81 26 81.5 26 Z"/>
</g>
</defs>

<g transform="matrix( 1, 0, 0, 1, 0,0) ">
<use xlink:href="#Layer1_0_FILL"/>
</g>
</svg>
