
<svg xmlns="http://www.w3.org/2000/svg" version="1.1" xmlns:xlink="http://www.w3.org/1999/xlink" preserveAspectRatio="none" x="0px" y="0px" width="100px" height="100px" viewBox="0 0 100 100">
<defs>
<g id="Layer1_0_FILL">
<path fill="#000000" stroke="none" d="
M 65.75 76.05
Q 65.75 76.55 66.25 76.55 66.75 76.55 66.75 76.05 66.75 75.55 66.25 75.55 65.75 75.55 65.75 76.05
M 27.25 26.55
Q 26.75 26.55 26.75 27.05 26.75 27.55 27.25 27.55 27.75 27.55 27.75 27.05 27.75 26.55 27.25 26.55
M 33.75 30.05
Q 33.75 29.55 33.25 29.55 32.75 29.55 32.75 30.05 32.75 30.55 33.25 30.55 33.75 30.55 33.75 30.05
M 33.75 26.35
Q 36.05 26.35 35.05 25.85 33.7 25.45 32.55 25.85 31.4 26.35 33.75 26.35
M 37.75 27.05
Q 37.75 27.55 38.25 27.55 38.75 27.55 38.75 27.05 38.75 26.55 38.25 26.55 37.75 26.55 37.75 27.05
M 36.15 30.45
Q 36.95 30.5 37.35 30.35 37.75 30.2 37.45 29.95 37.2 29.7 36.65 29.7 36.05 29.65 35.55 29.85 34.95 30.1 35.15 30.25 35.35 30.45 36.15 30.45
M 16.25 32.55
Q 16.85 31.55 16.35 31.55 15.85 31.55 15.25 32.55 14.75 33.55 15.15 33.55 15.75 33.55 16.25 32.55
M 15.05 34.85
Q 14.85 35.15 15.05 35.35 15.25 35.55 15.75 35.55 16.3 35.55 16.5 35.35 16.7 35.15 16.45 34.85 15.75 34.35 15.05 34.85
M 36.05 22.85
Q 35.85 23.15 36.05 23.35 36.25 23.55 36.75 23.55 37.3 23.55 37.5 23.35 37.7 23.15 37.45 22.85 36.75 22.35 36.05 22.85
M 61.75 29.05
Q 61.75 29.55 62.25 29.55 62.75 29.55 62.75 29.05 62.75 28.55 62.25 28.55 61.75 28.55 61.75 29.05
M 66.75 27.05
Q 66.75 27.55 67.25 27.55 67.75 27.55 67.75 27.05 67.75 26.55 67.25 26.55 66.75 26.55 66.75 27.05
M 66.25 29.55
Q 66.75 29.55 66.75 29.05 66.75 28.55 66.25 28.55 65.75 28.55 65.75 29.05 65.75 29.55 66.25 29.55
M 41.75 34.55
Q 42.35 34.95 43.55 35.2 44.7 35.45 45.75 35.45
L 48.25 35.35 45.75 34.55
Q 43.25 33.85 41.75 33.65 40.8 33.6 40.8 33.75 40.8 33.9 41.75 34.55
M 48.25 30.35
Q 47.3 30.15 46.7 30.25 46.1 30.35 46.35 30.65 46.7 31.3 48.75 31.55 50.75 31.75 50.75 31.15 50.75 30.7 48.25 30.35
M 84.05 59.85
Q 83.85 60.15 84.05 60.35 84.25 60.55 84.75 60.55 85.3 60.55 85.5 60.35 85.7 60.15 85.45 59.85 84.75 59.35 84.05 59.85
M 87.15 43.05
Q 88.05 40.75 86.55 37.5 85 34.25 82.45 32.95 79.1 31.2 80.55 32.65 81.7 33.85 81.7 34.8 81.75 35.7 80.55 34.95 79.95 34.6 79.85 34.8 79.75 35.05 80.05 35.95 80.35 36.7 80.3 37.05 80.2 37.35 79.75 37.05 79.3 36.75 79.1 36.15 78.85 35.6 78.95 35.05 79.1 34.45 78.6 33.6 78.1 32.75 77.25 32.15
L 75.25 30.55 77.25 31.15
Q 78.55 31.55 78.45 31.25 78.35 30.95 76.75 29.65 75.7 28.8 74.4 28.25 73.05 27.65 72.25 27.65 71 27.75 71.1 27.9 71.15 28.05 72.75 28.65 74.35 29.2 74.15 29.3 73.95 29.4 71.55 29.25 67.75 28.95 67.75 30.25 67.75 30.85 67.4 31.2 67 31.55 66.55 31.45 64.6 31.25 63.7 31.5 62.8 31.8 63.25 32.55 63.45 33 63.35 33.3 63.25 33.55 62.85 33.55 61.75 33.55 61.75 32.55 61.75 32.15 61.45 31.85 61.1 31.55 60.65 31.55 60.25 31.55 60.1 31.8 59.95 32.1 60.15 32.45 60.4 32.85 59.4 32.85 58.4 32.85 56.65 32.45 55 32 53.55 31.9 52.2 31.8 51.95 32.05 51.45 32.55 53.05 32.55 54.6 32.55 55.15 33.45 55.55 34.05 52.3 33.55 49.1 33.05 45.35 31.95 43.5 31.35 44.15 32.45 44.45 32.9 45.35 33.25 46.3 33.55 47.25 33.55 48.2 33.55 49.15 33.85 50 34.15 50.25 34.55 50.75 35.55 49.75 35.55 49.3 35.55 49.15 35.8 48.95 36.1 49.25 36.45 49.7 37.4 46.05 37.05 44.5 36.85 43.95 36.9 43.4 36.9 44.25 37.15 46.2 37.7 47.25 38.75 48.25 39.9 46.45 39.15 44.45 38.55 42.85 38.55 42.2 38.55 41.1 38.1 40 37.65 39.15 37.05 37.8 36.05 37.9 35.95 37.95 35.8 39.75 36.15 41.3 36.55 41.45 36.4 41.6 36.3 40.55 35.55 39.85 35.1 37.95 34.9 36 34.75 34.05 34.95 30.55 35.2 30.3 35.05 30.1 34.95 32.25 33.95 34.3 33.05 34.4 32.85 34.5 32.65 32.95 32.55 31.95 32.55 31.5 32.3 31.05 32 31.25 31.55 31.5 31.15 31.15 30.85 30.8 30.55 30.15 30.55 28.15 30.55 29.25 29.85 30.35 29.15 33.45 28.45 35.4 28 34.85 27.95 34.3 27.9 30.75 28.15 24.45 28.7 22.35 29.25 20.55 29.7 21.15 28.65 21.9 27.45 20.85 27.6 19.8 27.8 18.75 29.05 18.3 29.65 18.1 30.35 17.95 31.1 18.15 31.45 18.45 31.8 18.35 32.3 18.2 32.75 17.75 33.05 17.3 33.35 17.15 33.8 17 34.25 17.25 34.65 17.55 35 17 35.6 16.45 36.2 15.45 36.65 13.05 37.7 11.45 42.85 10.35 46.4 10.35 46.9 10.35 47.4 11.45 46.05
L 13.05 44.05 12.35 46.05
Q 10.35 51.65 11.5 56.1 12.65 60.55 17.45 65.65 20.25 68.6 22.45 69.9 24.65 71.2 29.05 72.55 36.3 74.75 39.85 74.25 43.45 73.8 45.85 75.65 48.1 77.35 48.55 77.4 48.95 77.45 48.35 75.85 48 74.65 48.1 74.65 48.25 74.7 49.15 75.95 50 76.95 50.9 77.25 51.85 77.5 53.25 77.15 54.3 76.85 54.9 76.4 55.5 75.9 55.25 75.55 54.75 74.55 55.65 74.55 56.05 74.55 56.55 74.85 57.05 75.2 57.25 75.55 57.45 76 58.1 76.3 58.7 76.55 59.35 76.55 59.95 76.55 60.2 76.3 60.45 76 60.25 75.55 60 75.15 60.25 74.85 60.5 74.55 61.15 74.55 61.75 74.55 62.3 74.95 62.8 75.3 62.95 75.75 63.4 77.15 65.15 75.25 66.95 73.6 69.15 74.05 70.35 74.45 70.5 74.35 70.65 74.25 69.75 73.65 68.8 73 68.85 72.7 68.85 72.45 69.85 72.05 71.65 71.45 72.85 71.75 73.35 71.9 73.8 71.55 74.15 71.15 74.25 70.55 74.25 69.95 74.85 69.5 75.4 69.05 76.25 68.95 79.25 68.8 80.2 68.25 81.15 67.7 82.25 65.45
L 83.85 62.45 81.55 63.65
Q 79.85 64.55 79.8 64.45 79.75 64.3 81.15 62.65 81.95 61.85 82.4 61.05 82.8 60.3 82.55 60.05 82.3 59.8 81.8 60.1 81.25 60.4 80.75 61.05 79.45 62.55 78.45 62.55 78.05 62.55 78.3 61.95 78.5 61.35 79.25 60.55 80 59.75 80.85 59.15 81.65 58.55 82.05 58.55 83.05 58.55 84.95 56.85 86.3 55.65 86.5 55.7 86.65 55.75 86.15 57.15 85.7 58.5 85.8 58.5 85.95 58.5 87.05 57.05 88.6 55.05 87.55 54.45 87.1 54.15 87 53.45 86.9 52.7 87.25 51.95 87.8 50.6 88 50.6 88.25 50.65 88.75 52.05 89.3 53.25 89.45 53 89.65 52.75 89.65 50.65 89.75 48.5 89.5 48.1 89.25 47.75 88.25 48.55 87.35 49.3 87.05 49.25 86.75 49.2 86.75 48.15 86.75 47.5 87.05 47 87.35 46.55 87.75 46.55 88.2 46.55 88.5 46.1 88.75 45.65 88.75 44.95 88.75 44.3 88.4 44.05 88.1 43.85 87.55 44.15 86.95 44.55 86.85 44.3 86.8 44.05 87.15 43.05
M 82.25 40.5
Q 82.45 37.55 82.75 37.55 83.05 37.55 83.25 40.3 83.45 43.1 83.35 46.95 83.15 56.35 82.65 57.05 82.4 57.3 82.25 54.5 82.05 51.6 82.05 47.55 82.05 43.4 82.25 40.5
M 85.75 40.55
Q 85.45 40.55 85.1 39.85 84.7 39.05 84.55 38.05 84.1 35.85 84.8 36.1 85.45 36.3 86.05 38.55 86.3 39.4 86.2 39.95 86.1 40.55 85.75 40.55
M 85.45 44.35
Q 85.85 45.5 85.45 46.85 84.95 47.85 84.95 45.55 84.95 43.2 85.45 44.35
M 85.45 51.35
Q 85.65 51.85 85.65 52.45 85.6 53 85.35 53.25 85.1 53.55 84.95 53.15 84.8 52.75 84.85 51.95 84.85 51.15 85.05 50.95 85.25 50.75 85.45 51.35
M 51.5 36.95
Q 51.75 36.25 52.35 35.75 52.95 35.25 53.35 35.1 53.75 34.95 53.75 35.25 53.75 36.35 52.8 37.45 51.85 38.55 51.45 37.95 51.25 37.6 51.5 36.95
M 55.95 35.65
Q 56 35.55 57.35 36.75 59.05 38.45 58.55 39.15 58.25 39.4 57.75 38.85 57.2 38.35 56.75 37.35 55.85 35.7 55.95 35.65
M 49.25 41.55
Q 49.75 41.55 49.75 42.05 49.75 42.55 49.25 42.55 48.75 42.55 48.75 42.05 48.75 41.55 49.25 41.55
M 50.35 41.05
Q 50.15 40.45 50.25 40 50.35 39.55 50.75 39.55 51.2 39.55 51.5 40 51.75 40.45 51.75 41.05 51.75 42.55 51.35 42.55 51.1 42.55 50.35 41.05
M 41.75 42.05
Q 41.75 42.55 41.25 42.55 40.75 42.55 40.75 42.05 40.75 41.55 41.25 41.55 41.75 41.55 41.75 42.05
M 42.75 43.05
Q 42.75 42.55 43.25 42.55 43.75 42.55 43.75 43.05 43.75 43.55 43.25 43.55 42.75 43.55 42.75 43.05
M 43.35 44.55
Q 43.75 44.55 43.75 45.55 43.75 46 43.45 46.3 43.1 46.55 42.65 46.55 42.25 46.55 42.15 46.3 42.05 46 42.25 45.55 42.85 44.55 43.35 44.55
M 44.75 44.55
Q 44.75 44.15 45.1 43.85 45.4 43.55 45.85 43.55 46.25 43.55 46.35 43.85 46.5 44.2 46.25 44.55 45.75 45.55 45.15 45.55 44.75 45.55 44.75 44.55
M 41.05 48.65
Q 41 48 41.25 47.75 41.6 47.25 42.35 48.95 42.65 49.6 42.65 50.3 42.7 50.9 42.45 51.15 42.1 51.65 41.35 49.95 41.05 49.3 41.05 48.65
M 44.65 47.85
Q 45.3 46.75 45.5 47 45.7 47.25 45.75 49.35 45.75 51.9 45.3 52.45 44.85 52.95 44.15 51.15 43.9 50.55 44.05 49.6 44.2 48.6 44.65 47.85
M 48.25 44.55
Q 48.75 44.55 48.75 45.05 48.75 45.55 48.25 45.55 47.75 45.55 47.75 45.05 47.75 44.55 48.25 44.55
M 47.05 49
Q 47.35 48.3 47.75 48.05 48.75 47.55 48.75 48.25 48.75 48.95 47.75 50.55 47.15 51.55 46.95 51.5 46.75 51.45 46.75 50.35 46.75 49.7 47.05 49
M 50.45 49.25
Q 50.15 49.5 49.95 49.3 49.75 49.1 49.75 48.55 49.75 48.05 49.95 47.85 50.15 47.65 50.45 47.85 51 48.55 50.45 49.25
M 46.75 41.15
Q 46.75 41.45 45.05 41.45 37.75 40.7 37.75 39.45 37.75 39 37.1 38.9 36.45 38.75 35.55 39.05 34.2 39.4 34.1 39.35 33.95 39.25 34.85 38.65 36.25 37.7 41.55 39.15 46.75 40.75 46.75 41.15
M 60.25 38.55
Q 59.75 38.55 59.75 38.05 59.75 37.55 60.25 37.55 60.75 37.55 60.75 38.05 60.75 38.55 60.25 38.55
M 56.95 41.35
Q 57.4 41.8 57.6 42.3 57.8 42.8 57.65 43.05 57.15 43.6 56.45 42.9 55.75 42.2 55.75 41.15 55.75 40.7 56.1 40.75 56.4 40.8 56.95 41.35
M 60.25 42.55
Q 59.75 42.55 59.75 42.05 59.75 41.55 60.25 41.55 60.75 41.55 60.75 42.05 60.75 42.55 60.25 42.55
M 54.75 39.05
Q 54.75 38.55 55.25 38.55 55.75 38.55 55.75 39.05 55.75 39.55 55.25 39.55 54.75 39.55 54.75 39.05
M 53.85 40.25
Q 54.35 40.75 54.6 41.3 54.8 41.85 54.55 42.05 54.3 42.3 53.95 41.95 53.55 41.6 53.35 40.85 52.9 39.8 53 39.7 53.1 39.55 53.85 40.25
M 53.45 43.85
Q 54 44.55 53.45 45.25 53.15 45.5 52.95 45.3 52.75 45.1 52.75 44.55 52.75 44.05 52.95 43.85 53.15 43.65 53.45 43.85
M 51.25 44.55
Q 51.75 44.55 51.75 45.05 51.75 45.55 51.25 45.55 50.75 45.55 50.75 45.05 50.75 44.55 51.25 44.55
M 52.45 47.85
Q 53 48.55 52.45 49.25 52.15 49.5 51.95 49.3 51.75 49.1 51.75 48.55 51.75 48.05 51.95 47.85 52.15 47.65 52.45 47.85
M 58.95 44.85
Q 59.15 44.65 59.45 44.85 60 45.55 59.45 46.25 59.15 46.5 58.95 46.3 58.75 46.1 58.75 45.55 58.75 45.05 58.95 44.85
M 56.05 44.95
Q 56.25 44.75 56.45 45.35 56.65 45.85 56.65 46.45 56.6 47 56.35 47.25 56.1 47.55 55.95 47.15 55.8 46.75 55.85 45.95 55.85 45.15 56.05 44.95
M 58.25 48.55
Q 58.75 48.55 58.75 49.05 58.75 49.55 58.25 49.55 57.75 49.55 57.75 49.05 57.75 48.55 58.25 48.55
M 59.95 48.85
Q 60.15 48.65 60.45 48.85 61 49.55 60.45 50.25 60.15 50.5 59.95 50.3 59.75 50.1 59.75 49.55 59.75 49.05 59.95 48.85
M 74.7 32.35
Q 74.65 32.55 73.55 32.55 72.85 32.55 72.2 32.3 71.45 32 71.25 31.55 70.65 30.6 71.45 30.6 72.25 30.6 73.75 31.55 74.75 32.15 74.7 32.35
M 72.1 33.85
Q 72.2 33.55 72.65 33.55 73.05 33.55 73.55 33.85 74.05 34.2 74.25 34.55 74.75 35.55 73.85 35.55 73.45 35.55 73 35.3 72.45 35 72.25 34.55 72 34.15 72.1 33.85
M 71.75 37.05
Q 71.75 36.55 72.25 36.55 72.75 36.55 72.75 37.05 72.75 37.55 72.25 37.55 71.75 37.55 71.75 37.05
M 76.75 34.05
Q 76.75 34.55 76.25 34.55 75.75 34.55 75.75 34.05 75.75 33.55 76.25 33.55 76.75 33.55 76.75 34.05
M 65.05 33.35
Q 64.85 33.15 65.05 32.85 65.75 32.35 66.45 32.85 66.7 33.15 66.5 33.35 66.3 33.55 65.75 33.55 65.25 33.55 65.05 33.35
M 62.45 34.85
Q 63 35.55 62.45 36.25 62.15 36.5 61.95 36.3 61.75 36.1 61.75 35.55 61.75 35.05 61.95 34.85 62.15 34.65 62.45 34.85
M 65.75 36.15
Q 65.75 36.75 65.2 36.5 64.65 36.25 64.15 35.35 63.85 34.85 63.95 34.75 64.05 34.65 64.55 34.95 65.75 35.65 65.75 36.15
M 70.25 32.55
Q 70.75 32.55 70.75 33.05 70.75 33.55 70.25 33.55 69.75 33.55 69.75 33.05 69.75 32.55 70.25 32.55
M 67.75 36.05
Q 67.75 36.55 67.25 36.55 66.75 36.55 66.75 36.05 66.75 35.55 67.25 35.55 67.75 35.55 67.75 36.05
M 69.45 37.85
Q 70 38.55 69.45 39.25 69.15 39.5 68.95 39.3 68.75 39.1 68.75 38.55 68.75 38.05 68.95 37.85 69.15 37.65 69.45 37.85
M 66.75 39.55
Q 66.75 39.05 66.95 38.85 67.15 38.65 67.45 38.85 68 39.55 67.45 40.25 67.15 40.5 66.95 40.3 66.75 40.1 66.75 39.55
M 67.15 42.85
Q 67.4 42.55 67.55 42.85 67.75 43.2 67.75 43.85 67.75 44.45 68.1 45.05 68.45 45.6 68.95 45.75 69.6 45.95 69.65 46.25 69.65 46.45 69.05 46.85 68.15 47.45 67.3 45.55 66.4 43.6 67.15 42.85
M 69.45 41.85
Q 70 42.55 69.45 43.25 69.15 43.5 68.95 43.3 68.75 43.1 68.75 42.55 68.75 42.05 68.95 41.85 69.15 41.65 69.45 41.85
M 65.75 40.05
Q 65.75 40.55 65.25 40.55 64.75 40.55 64.75 40.05 64.75 39.55 65.25 39.55 65.75 39.55 65.75 40.05
M 61.45 45.35
Q 61.65 45.85 61.65 46.45 61.6 47 61.35 47.25 61.1 47.55 60.95 47.15 60.8 46.75 60.85 45.95 60.85 45.15 61.05 44.95 61.25 44.75 61.45 45.35
M 66.25 47.55
Q 66.75 47.55 66.75 48.05 66.75 48.55 66.25 48.55 65.75 48.55 65.75 48.05 65.75 47.55 66.25 47.55
M 70.85 49.35
Q 70.25 49.6 70 49.3 69.75 49.05 69.95 48.45 70.1 47.95 70.6 47.4 71.15 46.9 71.65 46.75 72.25 46.55 72.5 46.8 72.8 47.05 72.55 47.65 72.4 48.2 71.9 48.7 71.4 49.2 70.85 49.35
M 76.15 40.85
Q 76.75 40.25 77.15 40.75 77.55 41.25 78.15 43.35 78.45 44.25 78.4 44.9 78.3 45.55 77.85 45.55 77 45.55 76.25 43.5 75.5 41.45 76.15 40.85
M 75.95 38.15
Q 76.45 37.55 77.15 37.3 77.8 37.05 78.15 37.25 78.45 37.5 78.3 37.9 78.15 38.3 77.65 38.65 76 39.65 75.45 39.5 74.9 39.35 75.95 38.15
M 80.05 41.95
Q 80.25 41.75 80.45 42.35 80.65 42.85 80.65 43.45 80.6 44 80.35 44.25 80.1 44.55 79.95 44.15 79.8 43.75 79.85 42.95 79.85 42.15 80.05 41.95
M 74.75 42.05
Q 74.75 42.55 74.25 42.55 73.75 42.55 73.75 42.05 73.75 41.55 74.25 41.55 74.75 41.55 74.75 42.05
M 71.15 43.05
Q 71.1 42 71.3 41.45 71.5 40.95 71.85 41.15 72.25 41.4 72.5 42.1 72.75 42.85 72.75 43.65 72.75 45.75 72 45.5 71.25 45.2 71.15 43.05
M 74.45 48.35
Q 74.65 48.85 74.65 49.45 74.6 50 74.35 50.25 74.1 50.55 73.95 50.15 73.8 49.75 73.85 48.95 73.85 48.15 74.05 47.95 74.25 47.75 74.45 48.35
M 79.75 49.05
Q 80.2 48.85 80.5 49.25 80.75 49.6 80.75 50.45 80.75 51.3 80.5 52.05 80.2 52.85 79.75 53.05 79.35 53.3 79.05 52.9 78.75 52.45 78.75 51.65 78.75 50.85 79.05 50.05 79.35 49.3 79.75 49.05
M 16.15 39.85
Q 16.35 39.55 16.55 39.75 16.75 39.9 16.75 40.35 16.75 40.8 17.25 41 17.7 41.15 18.45 40.85 19.3 40.55 19.5 40.65 19.7 40.75 19.35 41.35 18.65 42.55 17.75 42.55 16.85 42.55 16.25 41.45 15.6 40.4 16.15 39.85
M 16.75 38.05
Q 16.75 38.55 16.25 38.55 15.75 38.55 15.75 38.05 15.75 37.55 16.25 37.55 16.75 37.55 16.75 38.05
M 12.75 43.05
Q 12.75 42.55 13.25 42.55 13.75 42.55 13.75 43.05 13.75 43.55 13.25 43.55 12.75 43.55 12.75 43.05
M 14.45 38.85
Q 15 39.55 14.45 40.25 14.15 40.5 13.95 40.3 13.75 40.1 13.75 39.55 13.75 39.05 13.95 38.85 14.15 38.65 14.45 38.85
M 13.75 48.05
Q 13.75 48.55 13.25 48.55 12.75 48.55 12.75 48.05 12.75 47.55 13.25 47.55 13.75 47.55 13.75 48.05
M 19.75 48.95
Q 19.75 48.35 20.05 48.1 20.35 47.8 20.75 48.05 21.2 48.35 21.35 48.8 21.5 49.25 21.25 49.65 20.6 50.7 20.15 50.5 19.75 50.3 19.75 48.95
M 17.75 49.05
Q 18.75 48.55 18.75 49.45 18.75 49.85 18.5 50.35 18.2 50.85 17.75 51.05 17.35 51.3 17.05 51.2 16.75 51.1 16.75 50.65 16.75 50.3 17.05 49.8 17.4 49.3 17.75 49.05
M 17.75 45.55
Q 15.75 49.1 15.75 46.15 15.75 44.9 17.25 44.15 18.25 43.85 18.35 44.1 18.4 44.35 17.75 45.55
M 31.75 36.55
Q 34.75 34.5 34.75 36.55 34.75 37 34.1 37.3 33.45 37.55 32.55 37.55 31.15 37.55 31 37.35 30.85 37.15 31.75 36.55
M 24.85 31.55
Q 23.9 31.55 22.15 32.25 20.45 32.85 21.05 31.85 21.75 30.8 23.75 30.3 25.75 29.75 25.75 30.65 25.75 31.05 25.5 31.3 25.25 31.55 24.85 31.55
M 21.75 36.05
Q 21.75 36.55 21.25 36.55 20.75 36.55 20.75 36.05 20.75 35.55 21.25 35.55 21.75 35.55 21.75 36.05
M 28.75 34.55
Q 28.75 35 28.3 35.3 27.85 35.55 27.25 35.55 25.75 35.55 25.75 35.15 25.75 34.9 27.25 34.15 27.85 33.95 28.3 34.05 28.75 34.15 28.75 34.55
M 27.25 32.55
Q 26.75 33.55 25.65 33.55 24.6 33.55 24.8 33.1 25 32.65 26.35 32.15 27.7 31.65 27.25 32.55
M 26.65 40.25
Q 27.1 39.8 27.65 39.75 28.15 39.65 28.45 39.95 28.8 40.25 28.6 40.85 28.35 41.4 27.75 41.85 27.1 42.35 26.75 43.25 26.4 44.1 26.55 44.85 26.7 45.55 26.5 46.05 26.3 46.55 25.85 46.55 24.9 46.55 25.2 43.95 25.55 41.35 26.65 40.25
M 28 37.6
Q 27.45 38.15 26.55 38.75 25 39.8 24.35 39.8 23.75 39.8 22.85 38.75 21.95 37.8 21.95 37.6 21.95 37.45 22.85 37.75 24.2 38.25 26.05 37.35 28.05 36.35 28.35 36.85 28.55 37 28 37.6
M 29.05 42.8
Q 29.4 42.3 29.75 42.05 30.75 41.55 30.75 42.45 30.75 42.85 30.5 43.35 30.2 43.85 29.75 44.05 29.35 44.3 29.05 44.2 28.75 44.1 28.75 43.65 28.75 43.3 29.05 42.8
M 21.55 41.05
Q 21.8 41.3 21.6 41.8 21.35 42.35 20.85 42.85 20.1 43.55 20 43.4 19.9 43.3 20.35 42.25 20.55 41.5 20.95 41.15 21.3 40.8 21.55 41.05
M 22.75 43.05
Q 23.75 42.55 23.75 43.25 23.75 43.95 22.75 45.55 22.15 46.55 21.95 46.5 21.75 46.45 21.75 45.35 21.75 44.7 22.05 44 22.35 43.3 22.75 43.05
M 22.8 48.9
Q 22.9 47.55 23.65 47.55 24.05 47.55 24.4 48.45 24.8 49.35 24.95 50.55 25.35 52.95 24.7 53.45 24.1 54 23.35 51.95 22.7 50.25 22.8 48.9
M 26.45 49.05
Q 27.15 47.9 27.4 48.1 27.65 48.25 27.95 49.95 28.5 52.55 28.35 52.55 27.05 52.35 26.45 51.2 25.85 50.1 26.45 49.05
M 29.85 48.95
Q 29.85 48.15 30.05 47.95 30.25 47.75 30.45 48.35 30.65 48.85 30.65 49.45 30.6 50 30.35 50.25 30.1 50.55 29.95 50.15 29.8 49.75 29.85 48.95
M 37.95 42.85
Q 38.15 42.65 38.45 42.85 39 43.55 38.45 44.25 38.15 44.5 37.95 44.3 37.75 44.1 37.75 43.55 37.75 43.05 37.95 42.85
M 31.25 38.55
Q 31.75 38.55 31.75 39.05 31.75 39.55 31.25 39.55 30.75 39.55 30.75 39.05 30.75 38.55 31.25 38.55
M 32.15 42.55
Q 31.75 42.55 32.25 41.55 32.85 40.55 33.35 40.55 33.85 40.55 33.25 41.55 32.75 42.55 32.15 42.55
M 34.25 42.55
Q 34.85 41.55 35.35 41.55 35.85 41.55 35.25 42.55 34.75 43.55 34.15 43.55 33.75 43.55 34.25 42.55
M 32.75 44.45
Q 32.75 44.85 32.5 45.35 32.2 45.85 31.75 46.05 31.35 46.3 31.05 46.2 30.75 46.1 30.75 45.65 30.75 45.3 31.05 44.8 31.4 44.3 31.75 44.05 32.75 43.55 32.75 44.45
M 39.75 45.05
Q 39.75 44.55 40.25 44.55 40.75 44.55 40.75 45.05 40.75 45.55 40.25 45.55 39.75 45.55 39.75 45.05
M 38.95 47.85
Q 39.15 47.65 39.45 47.85 40 48.55 39.45 49.25 39.15 49.5 38.95 49.3 38.75 49.1 38.75 48.55 38.75 48.05 38.95 47.85
M 40.45 53.9
Q 39.75 53.2 39.75 52.15 39.75 51.7 40.1 51.75 40.4 51.8 40.95 52.35 41.4 52.8 41.6 53.3 41.8 53.8 41.65 54.05 41.15 54.6 40.45 53.9
M 38.75 54.15
Q 38.75 54.75 38.2 54.5 37.65 54.25 37.15 53.35 36.85 52.85 36.95 52.75 37.05 52.65 37.55 52.95 38.75 53.65 38.75 54.15
M 35.45 53.85
Q 36 54.55 35.45 55.25 35.15 55.5 34.95 55.3 34.75 55.1 34.75 54.55 34.75 54.05 34.95 53.85 35.15 53.65 35.45 53.85
M 34.15 49.55
Q 34.4 49.55 35.15 51.05 35.4 51.65 35.25 52.1 35.15 52.55 34.75 52.55 34.3 52.55 34.05 52.1 33.75 51.65 33.75 51.05 33.75 49.55 34.15 49.55
M 31.5 53
Q 31.95 53.5 32.15 54.15 32.9 56.05 32.3 56.25 31.75 56.45 30.75 54.65 29.7 52.55 30.65 52.55 31.05 52.55 31.5 53
M 34.75 60.55
Q 34.75 62.6 31.75 60.55 30.85 59.95 31 59.75 31.15 59.55 32.55 59.55 33.45 59.55 34.1 59.85 34.75 60.15 34.75 60.55
M 35.15 58.35
Q 34.85 57.85 34.95 57.75 35.05 57.65 35.55 57.95 36.75 58.65 36.75 59.15 36.75 59.75 36.2 59.5 35.65 59.25 35.15 58.35
M 37.55 61.85
Q 38.05 61.65 38.65 61.7 39.2 61.7 39.45 61.95 39.75 62.2 39.35 62.35 38.95 62.5 38.15 62.45 37.35 62.45 37.15 62.25 36.95 62.1 37.55 61.85
M 40.05 59.35
Q 39.85 59.15 40.05 58.85 40.75 58.35 41.45 58.85 41.7 59.15 41.5 59.35 41.3 59.55 40.75 59.55 40.25 59.55 40.05 59.35
M 27.2 53.95
Q 27.75 53.85 29.25 55.55 30.4 56.85 30.45 57.2 30.5 57.55 29.55 57.55 28.85 57.55 28.25 57.1 27.55 56.6 27.35 55.95 26.6 54.05 27.2 53.95
M 22.45 52.85
Q 23 53.55 22.45 54.25 22.15 54.5 21.95 54.3 21.75 54.1 21.75 53.55 21.75 53.05 21.95 52.85 22.15 52.65 22.45 52.85
M 23.25 59.35
Q 22.2 58.55 21.5 57.6 20.75 56.7 20.75 56.25 20.9 55.15 22.85 57.45 24.8 59.75 25.45 59.25 25.95 58.6 24.75 57.05 23.55 55.55 24.55 55.55 25 55.55 25.65 56.15 26.3 56.75 26.75 57.55 27.35 58.7 27.35 59.1 27.3 59.55 26.55 59.55 26.1 59.55 26.25 59.95 26.45 60.35 27.25 60.85 28 61.45 28.35 62.2 28.65 62.9 28.35 63.35 28.05 63.9 28.25 64.2 28.5 64.55 29.15 64.55 29.75 64.55 30.4 64.85 31 65.15 31.25 65.55 31.75 66.55 30.45 66.55 29.4 66.55 27.6 64.85 25.75 63.15 25.75 62.15 25.75 61.3 23.25 59.35
M 28.25 66.75
Q 29.1 67.5 29.4 68 29.7 68.55 29.25 68.45 28.05 68.45 26.4 66.95 24.75 65.45 23.25 63.05
L 21.45 60.05 23.85 62.55
Q 26.15 65.05 28.25 66.75
M 21.75 63.55
Q 22.8 65.7 22.45 66.25 22.2 66.4 21.7 65.95 21.2 65.4 20.75 64.55 19.7 62.4 20.05 61.85 20.3 61.7 20.8 62.2 21.3 62.7 21.75 63.55
M 28.75 71.15
Q 28.75 72.45 26.65 69.85 25.7 68.65 25.75 68.55 25.85 68.5 27.05 69.45 28.75 70.75 28.75 71.15
M 38.2 63.85
Q 38.7 63.55 39.35 63.55 39.95 63.55 40.2 63.85 40.5 64.15 40.25 64.55 39.75 65.55 38.65 65.55 37.75 65.55 37.75 64.55 37.75 64.15 38.2 63.85
M 32.75 62.55
Q 33.75 63.15 33.7 63.35 33.65 63.55 32.55 63.55 31.85 63.55 31.2 63.3 30.45 63 30.25 62.55 29.65 61.6 30.45 61.6 31.25 61.6 32.75 62.55
M 34.65 66.95
Q 33.75 65.8 34.1 65.7 34.4 65.55 36.65 66.05 40.2 66.75 42.35 65.45 43.75 64.7 44.55 64.7 45.25 64.65 45.95 65.35 46.65 66.05 46.35 66.3 46.05 66.55 44.55 66.55 43.45 66.55 42.45 66.85 41.5 67.15 41.25 67.55 40.5 68.75 38.15 68.55 35.8 68.3 34.65 66.95
M 33.75 71.55
Q 34.75 72.15 34.7 72.35 34.65 72.55 33.55 72.55 32.85 72.55 32.2 72.3 31.45 72 31.25 71.55 30.65 70.6 31.45 70.6 32.25 70.6 33.75 71.55
M 32.85 69.6
Q 31.3 68.7 31.75 68.15 32.25 67.8 34.75 69.05 35.85 69.65 36.15 70.05 36.45 70.45 35.75 70.45 34.4 70.55 32.85 69.6
M 39.75 70.55
Q 39.25 70.55 39.05 70.35 38.85 70.15 39.05 69.85 39.75 69.35 40.45 69.85 40.7 70.15 40.5 70.35 40.3 70.55 39.75 70.55
M 39.25 73.55
Q 38.2 73.55 37.5 73.3 36.75 73.05 36.75 72.65 36.75 72.35 37.5 72.25 38.25 72.15 39.25 72.35 41.75 72.7 41.75 73.15 41.75 73.3 41.05 73.45 40.3 73.55 39.25 73.55
M 15.75 54.05
Q 16.75 53.55 16.75 54.45 16.75 54.85 16.5 55.35 16.2 55.85 15.75 56.05 15.35 56.3 15.05 56.2 14.75 56.1 14.75 55.65 14.75 55.3 15.05 54.8 15.4 54.3 15.75 54.05
M 17.75 54.15
Q 17.75 53.5 18.1 53 18.4 52.55 18.85 52.55 19.3 52.55 19.5 53.1 19.65 53.65 19.45 54.45 19.3 55.2 19.45 56.25 19.6 57.3 19.95 57.95 20.85 59.55 20.35 59.55 19.75 59.55 18.75 57.5 17.75 55.4 17.75 54.15
M 13.95 50.85
Q 14.15 50.65 14.45 50.85 15 51.55 14.45 52.25 14.15 52.5 13.95 52.3 13.75 52.1 13.75 51.55 13.75 51.05 13.95 50.85
M 12.45 50.35
Q 12.65 50.85 12.65 51.45 12.6 52 12.35 52.25 12.1 52.55 11.95 52.15 11.8 51.75 11.85 50.95 11.85 50.15 12.05 49.95 12.25 49.75 12.45 50.35
M 12.25 55.65
Q 12 55.25 12.15 54.8 12.3 54.35 12.75 54.05 13.15 53.8 13.45 54.1 13.75 54.35 13.75 54.95 13.75 56.3 13.35 56.5 12.9 56.7 12.25 55.65
M 15.15 61.55
Q 14.65 61.55 14.1 60 13.6 58.4 13.95 57.95 14.2 57.7 14.5 58.2 14.85 58.65 15.05 59.55 15.25 60.35 15.3 60.95 15.3 61.55 15.15 61.55
M 17.45 58.35
Q 17.65 58.85 17.65 59.45 17.6 60 17.35 60.25 17.1 60.55 16.95 60.15 16.8 59.75 16.85 58.95 16.85 58.15 17.05 57.95 17.25 57.75 17.45 58.35
M 18.75 63.55
Q 18.75 64.55 18.35 64.55 17.75 64.55 17.25 63.55 17.05 63.2 17.15 62.85 17.3 62.55 17.65 62.55 18.1 62.55 18.45 62.85 18.75 63.15 18.75 63.55
M 77.5 51.15
Q 77.2 51.85 76.75 52.05 75.8 52.65 75.8 51.85 75.8 51.05 76.75 49.55 77.35 48.55 77.55 48.6 77.75 48.65 77.75 49.75 77.75 50.45 77.5 51.15
M 77.55 53.6
Q 77.75 53.65 77.75 54.75 77.75 55.45 77.5 56.15 77.2 56.85 76.75 57.05 75.8 57.65 75.8 56.85 75.8 56.05 76.75 54.55 77.35 53.55 77.55 53.6
M 74.45 53.85
Q 75 54.55 74.45 55.25 74.15 55.5 73.95 55.3 73.75 55.1 73.75 54.55 73.75 54.05 73.95 53.85 74.15 53.65 74.45 53.85
M 71.65 54.2
Q 72.75 53.3 72.75 54.35 72.75 55.05 70.65 57.15 69 58.6 68.9 58.55 68.75 58.5 69.65 56.85 70.55 55.05 71.65 54.2
M 72.85 61.55
Q 73.45 60.8 74.3 60.15 75.15 59.5 75.75 59.35 76.35 59.2 77.35 58.55 78.3 57.85 79.05 57.05 80.5 55.55 80.55 55.6 80.6 55.7 79.45 57.55 78.85 58.6 78.05 59.35 77.3 60.05 76.75 60.05 76.15 60.05 75.7 60.45 75.2 60.8 75.05 61.35 74.85 61.8 75.05 62.2 75.3 62.55 75.75 62.55 76.5 62.55 76.5 62.9 76.5 63.25 75.75 64.05 75.2 64.65 74.5 65.1 73.8 65.5 73.35 65.45 72.35 65.45 73.55 64.85 74 64.7 74.4 64.25 74.75 63.85 74.75 63.45 74.75 63.05 73.9 63.25 73 63.4 71.75 64.05 69.25 65.35 67.05 65.6 64.8 65.8 66.75 64.55 68.35 63.55 69.85 63.55 70.55 63.55 71.45 62.95 72.35 62.35 72.85 61.55
M 73.15 58.95
Q 72.95 59.6 72.5 60.1 72.05 60.55 71.65 60.55 70.6 60.55 70.8 59.6 71 58.6 72.25 57.55 73.45 56.5 73.65 56.85 73.85 57.15 73.15 58.95
M 68.45 49.85
Q 69 50.55 68.45 51.25 68.15 51.5 67.95 51.3 67.75 51.1 67.75 50.55 67.75 50.05 67.95 49.85 68.15 49.65 68.45 49.85
M 66.35 55.55
Q 65.9 55.55 66.35 54.85 66.85 54.1 67.95 53.05 70.65 50.55 71.35 50.55 72.05 50.55 69.75 53.05 68.8 54.1 67.8 54.85 66.8 55.55 66.35 55.55
M 63.4 49.8
Q 63.65 49.65 63.65 50.05 63.6 51.45 62.7 53.1 61.85 54.75 61.85 53.55 61.85 52 62.75 50.55 63.1 49.95 63.4 49.8
M 64.15 54.55
Q 63.75 54.55 64.25 53.55 64.85 52.55 65.35 52.55 65.85 52.55 65.25 53.55 64.75 54.55 64.15 54.55
M 61.35 56.55
Q 61.85 56.55 61.25 57.55 60.75 58.55 60.15 58.55 59.75 58.55 60.25 57.55 60.85 56.55 61.35 56.55
M 61.75 59.55
Q 61.75 59.15 62.1 58.85 62.4 58.55 62.85 58.55 63.25 58.55 63.35 58.85 63.5 59.2 63.25 59.55 62.75 60.55 62.15 60.55 61.75 60.55 61.75 59.55
M 63.85 61.55
Q 64.25 61.55 64.35 61.85 64.5 62.2 64.25 62.55 63.75 63.55 63.15 63.55 62.75 63.55 62.75 62.55 62.75 62.15 63.1 61.85 63.4 61.55 63.85 61.55
M 67.25 56.55
Q 67.75 56.55 67.75 57.05 67.75 57.55 67.25 57.55 66.75 57.55 66.75 57.05 66.75 56.55 67.25 56.55
M 67.75 59.05
Q 67.75 59.55 67.25 59.55 66.75 59.55 66.75 59.05 66.75 58.55 67.25 58.55 67.75 58.55 67.75 59.05
M 68.35 60.55
Q 68.75 60.55 68.75 61.55 68.75 62 68.45 62.3 68.1 62.55 67.65 62.55 67.25 62.55 67.15 62.3 67.05 62 67.25 61.55 67.85 60.55 68.35 60.55
M 67.25 67.45
Q 67.95 66.6 70.55 66.75 71.65 66.85 73.15 66.5 74.55 66.2 75.55 65.65 76.8 65.05 77.25 65 77.75 65 77.75 65.65 77.75 66.1 78.2 66.25 78.65 66.4 79.35 66.15 79.95 65.9 80.2 66 80.45 66.1 80.25 66.45 79.75 67.45 77.95 67.45
L 71.45 67.95
Q 66.75 68.45 67.25 67.45
M 65.45 66.85
Q 65.7 67.15 65.5 67.35 65.3 67.55 64.75 67.55 64.25 67.55 64.05 67.35 63.85 67.15 64.05 66.85 64.75 66.35 65.45 66.85
M 63.05 64.85
Q 64.05 65.35 61.75 65.35 59.4 65.35 60.55 64.85 61.7 64.45 63.05 64.85
M 64.65 69.7
Q 65.2 69.7 65.45 69.95 65.75 70.2 65.35 70.35 64.95 70.5 64.15 70.45 63.35 70.45 63.15 70.25 62.95 70.1 63.55 69.85 64.05 69.65 64.65 69.7
M 62.55 68.35
Q 62.4 68.55 61.05 68.55 60.1 68.55 59.3 68.3 58.45 68 58.25 67.55 57.65 66.6 58.95 66.6 60.25 66.6 61.75 67.55 62.65 68.15 62.55 68.35
M 62.1 73.25
Q 62.15 73.15 64.55 72.45 65.8 72.1 66.8 71.5 67.75 70.95 67.75 70.55 67.75 70.1 68.4 69.85 69.1 69.6 70.05 69.65
L 72.25 69.65 70.15 70.55
Q 67.9 71.5 67.25 72.45 67 72.9 66.05 73.2 65.05 73.55 63.95 73.45 62 73.4 62.1 73.25
M 57.3 53.15
Q 57.25 53.75 57.05 54.55 56.5 56.55 55.55 56.55 55.2 56.55 55.25 55.95 55.3 55.4 55.75 54.55 56.85 52.55 57.15 52.55 57.3 52.55 57.3 53.15
M 51.75 54.55
Q 51.75 55.55 50.65 55.55 50.25 55.55 50.15 55.3 50.05 55 50.25 54.55 50.85 53.55 51.35 53.55 51.75 53.55 51.75 54.55
M 55.65 49.55
Q 55.65 51.1 54.25 53.55 53.65 54.6 53.25 54.9 52.85 55.2 52.85 54.55 52.85 53 54.25 50.55 54.85 49.5 55.25 49.2 55.65 48.9 55.65 49.55
M 55.5 59.95
Q 54.75 60.35 54.75 59.95 54.75 59.05 57.25 56.7 59.75 54.35 59.75 55.25 59.75 55.65 59.05 56.6 58.3 57.6 57.25 58.55 56.2 59.5 55.5 59.95
M 51.65 59.55
Q 52.65 59.65 52.6 59.9 52.55 60.15 51.35 61.05 49.4 62.5 48.5 62.5 47.55 62.5 48.75 61.05 49.3 60.45 50.15 60 51 59.55 51.65 59.55
M 53.25 57.55
Q 52.75 58.55 52.15 58.55 51.75 58.55 52.25 57.55 52.85 56.55 53.35 56.55 53.85 56.55 53.25 57.55
M 59.35 59.75
Q 59.6 60.05 59.05 60.6 58.55 61.1 57.55 61.55 55.9 62.45 55.85 62.4 55.75 62.3 56.95 60.95 57.7 60.2 58.4 59.85 59.05 59.55 59.35 59.75
M 44.75 55.05
Q 44.75 55.55 44.25 55.55 43.75 55.55 43.75 55.05 43.75 54.55 44.25 54.55 44.75 54.55 44.75 55.05
M 43.75 60.05
Q 43.75 60.55 43.25 60.55 42.75 60.55 42.75 60.05 42.75 59.55 43.25 59.55 43.75 59.55 43.75 60.05
M 41.75 56.05
Q 41.75 56.55 41.25 56.55 40.75 56.55 40.75 56.05 40.75 55.55 41.25 55.55 41.75 55.55 41.75 56.05
M 50.3 57.05
Q 50.7 57.15 50.55 57.75 50.4 58.2 49.6 58.8 48.8 59.4 47.85 59.75 46.65 60.15 46.25 60.05 45.8 59.95 45.95 59.35 46.1 58.9 46.9 58.3 47.7 57.7 48.65 57.35 49.85 57 50.3 57.05
M 47.25 56.55
Q 47.05 57 46.55 57.3 46.05 57.55 45.65 57.55 44.75 57.55 45.25 56.55 45.5 56.2 46 55.85 46.5 55.55 46.85 55.55 47.3 55.55 47.4 55.85 47.5 56.15 47.25 56.55
M 50.55 64.55
Q 50.1 64.55 50.15 64.1 50.25 63.65 50.75 63.05 52.05 61.55 52.95 61.55 53.4 61.55 53.35 62 53.3 62.45 52.75 63.05 51.45 64.55 50.55 64.55
M 48.45 63.85
Q 48.7 64.15 48.5 64.35 48.3 64.55 47.75 64.55 47.25 64.55 47.05 64.35 46.85 64.15 47.05 63.85 47.75 63.35 48.45 63.85
M 48.75 67.05
Q 48.75 67.55 48.25 67.55 47.75 67.55 47.75 67.05 47.75 66.55 48.25 66.55 48.75 66.55 48.75 67.05
M 44.2 67.85
Q 44.9 67.55 45.55 67.55 46.65 67.55 46.7 67.75 46.75 67.95 45.75 68.55 44.25 69.55 43.45 69.55 42.65 69.55 43.25 68.55 43.5 68.15 44.2 67.85
M 45.25 62.55
Q 45.05 63 44.35 63.3 43.65 63.55 42.95 63.55 41.85 63.55 41.8 63.35 41.75 63.15 42.75 62.55 44.25 61.6 45.05 61.6 45.85 61.6 45.25 62.55
M 45.35 71.35
Q 44.95 71.5 44.15 71.45 43.35 71.45 43.15 71.25 42.95 71.1 43.55 70.85 44.05 70.65 44.65 70.7 45.2 70.7 45.45 70.95 45.75 71.2 45.35 71.35
M 49.25 68.55
Q 49.75 68.55 49.75 69.05 49.75 69.55 49.25 69.55 48.75 69.55 48.75 69.05 48.75 68.55 49.25 68.55
M 47.15 71.85
Q 47.3 71.55 47.65 71.55 48.1 71.55 48.45 71.85 48.75 72.15 48.75 72.55 48.75 73.55 48.35 73.55 47.75 73.55 47.25 72.55 47.05 72.2 47.15 71.85
M 59.25 63.55
Q 59.05 64 58.55 64.3 58.05 64.55 57.65 64.55 56.75 64.55 57.25 63.55 57.5 63.2 58 62.85 58.5 62.55 58.85 62.55 59.3 62.55 59.4 62.85 59.5 63.15 59.25 63.55
M 52.15 66.55
Q 51.75 66.55 52.25 65.55 52.85 64.55 53.35 64.55 53.85 64.55 53.25 65.55 52.75 66.55 52.15 66.55
M 54.25 66.55
Q 54.75 66.55 54.75 67.05 54.75 67.55 54.25 67.55 53.75 67.55 53.75 67.05 53.75 66.55 54.25 66.55
M 54.45 69.85
Q 54.75 70.15 54.75 70.55 54.75 71.55 54.35 71.55 53.75 71.55 53.25 70.55 53.05 70.2 53.15 69.85 53.3 69.55 53.65 69.55 54.1 69.55 54.45 69.85
M 54.75 72.85
Q 54.75 72.95 53.55 73.25 52.8 73.4 52.5 73.95 52.15 74.5 52.45 75.15 52.9 76.35 52.4 76.5 51.95 76.7 51.25 75.55 50.6 74.45 51.35 73.5 52.1 72.6 53.55 72.65 54.75 72.75 54.75 72.85
M 59.45 69.85
Q 60.05 70.2 60.25 70.55 60.85 71.45 60.5 71.45 60.2 71.45 58.75 70.55 58.1 70.1 58 69.85 57.9 69.55 58.45 69.55 58.9 69.55 59.45 69.85
M 57.75 73.35
Q 55.4 73.35 56.55 72.85 57.7 72.45 59.05 72.85 60.05 73.35 57.75 73.35 Z"/>
</g>
</defs>

<g transform="matrix( 1, 0, 0, 1, 0,0) ">
<use xlink:href="#Layer1_0_FILL"/>
</g>
</svg>
