
<svg xmlns="http://www.w3.org/2000/svg" version="1.1" xmlns:xlink="http://www.w3.org/1999/xlink" preserveAspectRatio="none" x="0px" y="0px" width="100px" height="100px" viewBox="0 0 100 100">
<defs>
<g id="Layer2_0_FILL">
<path fill="#0000FF" stroke="none" d="
M 50.2 100
L 50.15 99.9 50.2 99.85 49.8 99.85 49.85 99.9 49.8 100 50.2 100
M 0 50.2
L 0.05 50.15 0.15 50.2 0.15 49.8 0.05 49.85 0 49.8 0 50.2
M 49.8 0
L 49.85 0.05 49.8 0.15 50.2 0.15 50.15 0.05 50.2 0 49.8 0
M 99.85 50.2
L 99.9 50.15 100 50.2 100 49.8 99.95 49.85 99.9 49.85 99.85 49.8 99.85 50.2 Z"/>
</g>

<g id="Layer1_0_FILL">
<path fill="#000000" stroke="none" d="
M 80 76
L 76 76 76 80 80 80 80 76
M 56 52
L 52 52 52 56 56 56 56 52
M 60 60
L 60 56 56 56 56 60 60 60
M 64 64
L 64 60 60 60 60 64 64 64
M 76 72
L 72 72 72 76 76 76 76 72
M 68 68
L 68 72 72 72 72 68 68 68
M 64 68
L 68 68 68 64 64 64 64 68
M 40 36
L 36 36 36 40 40 40 40 36
M 32 32
L 32 28 28 28 28 32 32 32
M 32 32
L 32 36 36 36 36 32 32 32
M 24 24
L 24 20 20 20 20 24 24 24
M 28 24
L 24 24 24 28 28 28 28 24
M 44 44
L 44 40 40 40 40 44 44 44
M 52 48
L 48 48 48 52 52 52 52 48
M 48 48
L 48 44 44 44 44 48 48 48 Z"/>
</g>
</defs>

<g transform="matrix( 1, 0, 0, 1, 0,0) ">
<use xlink:href="#Layer2_0_FILL"/>
</g>

<g transform="matrix( 1, 0, 0, 1, 0,0) ">
<use xlink:href="#Layer1_0_FILL"/>
</g>
</svg>
