
<svg xmlns="http://www.w3.org/2000/svg" version="1.1" xmlns:xlink="http://www.w3.org/1999/xlink" preserveAspectRatio="none" x="0px" y="0px" width="100px" height="100px" viewBox="0 0 100 100">
<defs>
<g id="Layer2_0_FILL">
<path fill="#0000FF" stroke="none" d="
M 50.2 100
L 50.15 99.9 50.2 99.85 49.8 99.85 49.85 99.9 49.8 100 50.2 100
M 0 50.2
L 0.05 50.15 0.15 50.2 0.15 49.8 0.05 49.85 0 49.8 0 50.2
M 49.8 0
L 49.85 0.05 49.8 0.15 50.2 0.15 50.15 0.05 50.2 0 49.8 0
M 99.85 50.2
L 99.9 50.15 100 50.2 100 49.8 99.95 49.85 99.9 49.85 99.85 49.8 99.85 50.2 Z"/>
</g>

<g id="Layer1_0_FILL">
<path fill="#000000" stroke="none" d="
M 96 36
L 92 36 92 28 88 28 88 24 84 24 84 20 80 20 80 16 76 16 76 12 72 12 72 8 64 8 64 4 36 4 36 8 28 8 28 12 24 12 24 16 20 16 20 20 16 20 16 24 12 24 12 28 8 28 8 36 4 36 4 64 8 64 8 72 12 72 12 76 16 76 16 80 20 80 20 84 24 84 24 88 28 88 28 92 36 92 36 96 64 96 64 92 72 92 72 88 76 88 76 84 80 84 80 80 84 80 84 76 88 76 88 72 92 72 92 64 96 64 96 36 Z"/>
</g>
</defs>

<g transform="matrix( 1, 0, 0, 1, 0,0) ">
<use xlink:href="#Layer2_0_FILL"/>
</g>

<g transform="matrix( 1, 0, 0, 1, 0,0) ">
<use xlink:href="#Layer1_0_FILL"/>
</g>
</svg>
