
<svg xmlns="http://www.w3.org/2000/svg" version="1.1" xmlns:xlink="http://www.w3.org/1999/xlink" preserveAspectRatio="none" x="0px" y="0px" width="100px" height="100px" viewBox="0 0 100 100">
<defs>
<g id="Layer2_0_FILL">
<path fill="#0000FF" stroke="none" d="
M 50.2 100
L 50.15 99.9 50.2 99.85 49.8 99.85 49.85 99.9 49.8 100 50.2 100
M 0 50.2
L 0.05 50.15 0.15 50.2 0.15 49.8 0.05 49.85 0 49.8 0 50.2
M 49.8 0
L 49.85 0.05 49.8 0.15 50.2 0.15 50.15 0.05 50.2 0 49.8 0
M 99.85 50.2
L 99.9 50.15 100 50.2 100 49.8 99.95 49.85 99.9 49.85 99.85 49.8 99.85 50.2 Z"/>
</g>

<g id="Layer1_0_FILL">
<path fill="#000000" stroke="none" d="
M 42 42
L 34 42 34 50 42 50 42 42
M 58 82
L 58 90 66 90 66 82 58 82
M 42 82
L 42 90 50 90 50 82 42 82
M 58 74
L 50 74 50 82 58 82 58 74
M 58 58
L 50 58 50 66 58 66 58 58
M 42 74
L 50 74 50 66 42 66 42 74
M 50 58
L 50 50 42 50 42 58 50 58
M 74 74
L 66 74 66 82 74 82 74 74
M 66 58
L 66 66 74 66 74 58 66 58
M 66 74
L 66 66 58 66 58 74 66 74
M 66 58
L 66 50 58 50 58 58 66 58
M 34 74
L 34 82 42 82 42 74 34 74
M 18 50
L 10 50 10 58 18 58 18 50
M 34 58
L 34 66 42 66 42 58 34 58
M 26 66
L 26 58 18 58 18 66 26 66
M 26 66
L 26 74 34 74 34 66 26 66
M 34 58
L 34 50 26 50 26 58 34 58
M 26 42
L 18 42 18 50 26 50 26 42
M 34 42
L 34 34 26 34 26 42 34 42
M 18 26
L 18 34 26 34 26 26 18 26
M 18 42
L 18 34 10 34 10 42 18 42
M 34 18
L 26 18 26 26 34 26 34 18
M 66 26
L 66 18 58 18 58 26 66 26
M 74 42
L 66 42 66 50 74 50 74 42
M 74 34
L 74 26 66 26 66 34 74 34
M 58 42
L 50 42 50 50 58 50 58 42
M 58 34
L 58 42 66 42 66 34 58 34
M 42 34
L 42 26 34 26 34 34 42 34
M 50 34
L 42 34 42 42 50 42 50 34
M 58 34
L 58 26 50 26 50 34 58 34
M 50 10
L 50 18 58 18 58 10 50 10
M 42 18
L 42 10 34 10 34 18 42 18
M 50 18
L 42 18 42 26 50 26 50 18
M 82 74
L 82 66 74 66 74 74 82 74
M 82 66
L 90 66 90 58 82 58 82 66
M 82 58
L 82 50 74 50 74 58 82 58
M 90 42
L 82 42 82 50 90 50 90 42
M 82 42
L 82 34 74 34 74 42 82 42 Z"/>
</g>
</defs>

<g transform="matrix( 1, 0, 0, 1, 0,0) ">
<use xlink:href="#Layer2_0_FILL"/>
</g>

<g transform="matrix( 1.149993896484375, 0, 0, 1.149993896484375, -7.45,-7.45) ">
<use xlink:href="#Layer1_0_FILL"/>
</g>
</svg>
