
<svg xmlns="http://www.w3.org/2000/svg" version="1.1" xmlns:xlink="http://www.w3.org/1999/xlink" preserveAspectRatio="none" x="0px" y="0px" width="100px" height="100px" viewBox="0 0 100 100">
<defs>
<g id="Layer2_0_FILL">
<path fill="#0000FF" stroke="none" d="
M 50.2 100
L 50.15 99.9 50.2 99.85 49.8 99.85 49.85 99.9 49.8 100 50.2 100
M 0 50.2
L 0.05 50.15 0.15 50.2 0.15 49.8 0.05 49.85 0 49.8 0 50.2
M 49.8 0
L 49.85 0.05 49.8 0.15 50.2 0.15 50.15 0.05 50.2 0 49.8 0
M 99.85 50.2
L 99.9 50.15 100 50.2 100 49.8 99.95 49.85 99.9 49.85 99.85 49.8 99.85 50.2 Z"/>
</g>

<g id="Layer1_0_FILL">
<path fill="#000000" stroke="none" d="
M 53 53
L 53 59 59 59 59 53 53 53
M 65 65
L 65 59 59 59 59 65 65 65
M 71 65
L 65 65 65 71 71 71 71 65
M 77 71
L 71 71 71 77 77 77 77 71
M 35 35
L 35 29 29 29 29 35 35 35
M 23 23
L 23 17 17 17 17 23 23 23
M 29 23
L 23 23 23 29 29 29 29 23
M 53 47
L 47 47 47 53 53 53 53 47
M 41 41
L 41 35 35 35 35 41 41 41
M 41 41
L 41 47 47 47 47 41 41 41
M 83 83
L 83 77 77 77 77 83 83 83 Z"/>
</g>
</defs>

<g transform="matrix( 1, 0, 0, 1, 0,0) ">
<use xlink:href="#Layer2_0_FILL"/>
</g>

<g transform="matrix( 1, 0, 0, 1, 0,0) ">
<use xlink:href="#Layer1_0_FILL"/>
</g>
</svg>
