
<svg xmlns="http://www.w3.org/2000/svg" version="1.1" xmlns:xlink="http://www.w3.org/1999/xlink" preserveAspectRatio="none" x="0px" y="0px" width="100px" height="100px" viewBox="0 0 100 100">
<defs>
<g id="Layer2_0_FILL">
<path fill="#0000FF" stroke="none" d="
M 50.2 100
L 50.15 99.9 50.2 99.85 49.8 99.85 49.85 99.9 49.8 100 50.2 100
M 0 50.2
L 0.05 50.15 0.15 50.2 0.15 49.8 0.05 49.85 0 49.8 0 50.2
M 49.8 0
L 49.85 0.05 49.8 0.15 50.2 0.15 50.15 0.05 50.2 0 49.8 0
M 99.85 50.2
L 99.9 50.15 100 50.2 100 49.8 99.95 49.85 99.9 49.85 99.85 49.8 99.85 50.2 Z"/>
</g>

<g id="Layer1_0_FILL">
<path fill="#000000" stroke="none" d="
M 42 48
L 40 48 40 50 42 50 42 48
M 72 86
L 70 86 70 88 72 88 72 86
M 74 88
L 72 88 72 90 74 90 74 88
M 66 92
L 64 92 64 94 66 94 66 92
M 64 92
L 64 90 62 90 62 92 64 92
M 66 90
L 66 88 64 88 64 90 66 90
M 68 90
L 70 90 70 88 68 88 68 90
M 70 90
L 70 92 72 92 72 90 70 90
M 68 92
L 68 90 66 90 66 92 68 92
M 66 80
L 64 80 64 82 66 82 66 80
M 68 84
L 68 86 70 86 70 84 68 84
M 68 86
L 66 86 66 88 68 88 68 86
M 68 82
L 66 82 66 84 68 84 68 82
M 64 84
L 64 86 66 86 66 84 64 84
M 64 86
L 62 86 62 88 64 88 64 86
M 62 82
L 62 84 64 84 64 82 62 82
M 62 78
L 62 80 64 80 64 78 62 78
M 66 78
L 66 76 64 76 64 78 66 78
M 70 80
L 68 80 68 82 70 82 70 80
M 68 78
L 70 78 70 76 68 76 68 78
M 68 80
L 68 78 66 78 66 80 68 80
M 76 86
L 74 86 74 88 76 88 76 86
M 78 82
L 78 84 80 84 80 82 78 82
M 76 86
L 78 86 78 84 76 84 76 86
M 72 84
L 72 86 74 86 74 84 72 84
M 74 82
L 74 84 76 84 76 82 74 82
M 72 84
L 72 82 70 82 70 84 72 84
M 72 80
L 72 78 70 78 70 80 72 80
M 74 80
L 72 80 72 82 74 82 74 80
M 74 76
L 72 76 72 78 74 78 74 76
M 78 78
L 78 80 80 80 80 78 78 78
M 76 80
L 76 78 74 78 74 80 76 80
M 78 80
L 76 80 76 82 78 82 78 80
M 78 76
L 76 76 76 78 78 78 78 76
M 52 86
L 50 86 50 88 52 88 52 86
M 60 92
L 60 94 62 94 62 92 60 92
M 60 94
L 58 94 58 96 60 96 60 94
M 54 94
L 54 96 56 96 56 94 54 94
M 54 92
L 52 92 52 94 54 94 54 92
M 54 88
L 52 88 52 90 54 90 54 88
M 60 88
L 60 90 62 90 62 88 60 88
M 58 92
L 56 92 56 94 58 94 58 92
M 56 92
L 56 90 54 90 54 92 56 92
M 58 90
L 58 92 60 92 60 90 58 90
M 58 88
L 56 88 56 90 58 90 58 88
M 46 92
L 44 92 44 94 46 94 46 92
M 50 94
L 50 96 52 96 52 94 50 94
M 48 94
L 46 94 46 96 48 96 48 94
M 44 96
L 44 94 42 94 42 96 44 96
M 42 90
L 42 92 44 92 44 90 42 90
M 46 90
L 46 88 44 88 44 90 46 90
M 50 92
L 48 92 48 94 50 94 50 92
M 48 90
L 50 90 50 88 48 88 48 90
M 50 90
L 50 92 52 92 52 90 50 90
M 48 92
L 48 90 46 90 46 92 48 92
M 46 80
L 44 80 44 82 46 82 46 80
M 48 84
L 48 86 50 86 50 84 48 84
M 48 86
L 46 86 46 88 48 88 48 86
M 48 82
L 46 82 46 84 48 84 48 82
M 44 84
L 44 86 46 86 46 84 44 84
M 44 86
L 42 86 42 88 44 88 44 86
M 42 82
L 42 84 44 84 44 82 42 82
M 42 78
L 42 80 44 80 44 78 42 78
M 46 78
L 46 76 44 76 44 78 46 78
M 48 78
L 50 78 50 76 48 76 48 78
M 50 80
L 48 80 48 82 50 82 50 80
M 46 80
L 48 80 48 78 46 78 46 80
M 60 80
L 60 82 62 82 62 80 60 80
M 56 86
L 54 86 54 88 56 88 56 86
M 60 86
L 58 86 58 88 60 88 60 86
M 60 82
L 58 82 58 84 60 84 60 82
M 60 84
L 60 86 62 86 62 84 60 84
M 56 86
L 58 86 58 84 56 84 56 86
M 52 84
L 52 86 54 86 54 84 52 84
M 54 82
L 54 84 56 84 56 82 54 82
M 52 84
L 52 82 50 82 50 84 52 84
M 54 80
L 52 80 52 82 54 82 54 80
M 52 80
L 52 78 50 78 50 80 52 80
M 54 76
L 52 76 52 78 54 78 54 76
M 60 76
L 60 78 62 78 62 76 60 76
M 58 78
L 58 80 60 80 60 78 58 78
M 56 80
L 56 78 54 78 54 80 56 80
M 58 80
L 56 80 56 82 58 82 58 80
M 58 76
L 56 76 56 78 58 78 58 76
M 52 74
L 50 74 50 76 52 76 52 74
M 56 74
L 54 74 54 76 56 76 56 74
M 60 74
L 58 74 58 76 60 76 60 74
M 60 70
L 58 70 58 72 60 72 60 70
M 56 72
L 56 74 58 74 58 72 56 72
M 52 72
L 52 74 54 74 54 72 52 72
M 54 70
L 54 72 56 72 56 70 54 70
M 54 68
L 52 68 52 70 54 70 54 68
M 54 66
L 54 64 52 64 52 66 54 66
M 58 68
L 56 68 56 70 58 70 58 68
M 58 66
L 58 68 60 68 60 66 58 66
M 56 68
L 56 66 54 66 54 68 56 68
M 56 64
L 56 62 54 62 54 64 56 64
M 58 64
L 56 64 56 66 58 66 58 64
M 60 64
L 60 62 58 62 58 64 60 64
M 46 68
L 44 68 44 70 46 70 46 68
M 50 70
L 50 72 52 72 52 70 50 70
M 48 74
L 46 74 46 76 48 76 48 74
M 48 72
L 48 74 50 74 50 72 48 72
M 48 70
L 46 70 46 72 48 72 48 70
M 44 74
L 42 74 42 76 44 76 44 74
M 44 72
L 44 74 46 74 46 72 44 72
M 42 70
L 42 72 44 72 44 70 42 70
M 42 66
L 42 68 44 68 44 66 42 66
M 44 64
L 44 62 42 62 42 64 44 64
M 50 68
L 48 68 48 70 50 70 50 68
M 46 66
L 46 64 44 64 44 66 46 66
M 50 64
L 48 64 48 66 50 66 50 64
M 50 66
L 50 68 52 68 52 66 50 66
M 48 68
L 48 66 46 66 46 68 48 68
M 46 64
L 48 64 48 62 46 62 46 64
M 50 62
L 50 64 52 64 52 62 50 62
M 46 60
L 44 60 44 62 46 62 46 60
M 50 60
L 48 60 48 62 50 62 50 60
M 48 58
L 46 58 46 60 48 60 48 58
M 50 58
L 50 56 48 56 48 58 50 58
M 44 56
L 44 58 46 58 46 56 44 56
M 44 58
L 42 58 42 60 44 60 44 58
M 44 50
L 42 50 42 52 44 52 44 50
M 44 54
L 42 54 42 56 44 56 44 54
M 46 54
L 46 52 44 52 44 54 46 54
M 50 52
L 48 52 48 54 50 54 50 52
M 48 54
L 46 54 46 56 48 56 48 54
M 48 52
L 48 50 46 50 46 52 48 52
M 52 56
L 52 54 50 54 50 56 52 56
M 56 54
L 54 54 54 56 56 56 56 54
M 60 60
L 60 58 58 58 58 60 60 60
M 58 60
L 56 60 56 62 58 62 58 60
M 56 56
L 56 58 58 58 58 56 56 56
M 54 56
L 52 56 52 58 54 58 54 56
M 52 60
L 52 58 50 58 50 60 52 60
M 54 58
L 54 60 56 60 56 58 54 58
M 54 60
L 52 60 52 62 54 62 54 60
M 52 52
L 52 50 50 50 50 52 52 52
M 54 52
L 52 52 52 54 54 54 54 52
M 60 54
L 58 54 58 56 60 56 60 54
M 56 52
L 56 50 54 50 54 52 56 52
M 58 52
L 56 52 56 54 58 54 58 52
M 60 52
L 60 50 58 50 58 52 60 52
M 62 62
L 62 60 60 60 60 62 62 62
M 72 74
L 70 74 70 76 72 76 72 74
M 76 74
L 74 74 74 76 76 76 76 74
M 80 74
L 78 74 78 76 80 76 80 74
M 80 70
L 78 70 78 72 80 72 80 70
M 76 74
L 78 74 78 72 76 72 76 74
M 72 72
L 72 74 74 74 74 72 72 72
M 74 70
L 74 72 76 72 76 70 74 70
M 74 68
L 72 68 72 70 74 70 74 68
M 74 66
L 74 64 72 64 72 66 74 66
M 78 68
L 76 68 76 70 78 70 78 68
M 78 66
L 78 68 80 68 80 66 78 66
M 76 68
L 76 66 74 66 74 68 76 68
M 76 64
L 76 62 74 62 74 64 76 64
M 78 64
L 76 64 76 66 78 66 78 64
M 80 64
L 80 62 78 62 78 64 80 64
M 62 70
L 62 68 60 68 60 70 62 70
M 66 68
L 64 68 64 70 66 70 66 68
M 70 70
L 70 72 72 72 72 70 70 70
M 68 74
L 66 74 66 76 68 76 68 74
M 68 72
L 68 74 70 74 70 72 68 72
M 68 70
L 66 70 66 72 68 72 68 70
M 64 74
L 62 74 62 76 64 76 64 74
M 64 72
L 64 74 66 74 66 72 64 72
M 62 74
L 62 72 60 72 60 74 62 74
M 62 70
L 62 72 64 72 64 70 62 70
M 62 66
L 62 64 60 64 60 66 62 66
M 62 66
L 62 68 64 68 64 66 62 66
M 64 64
L 64 62 62 62 62 64 64 64
M 70 68
L 68 68 68 70 70 70 70 68
M 66 66
L 66 64 64 64 64 66 66 66
M 70 64
L 68 64 68 66 70 66 70 64
M 70 66
L 70 68 72 68 72 66 70 66
M 68 68
L 68 66 66 66 66 68 68 68
M 66 64
L 68 64 68 62 66 62 66 64
M 70 62
L 70 64 72 64 72 62 70 62
M 66 60
L 64 60 64 62 66 62 66 60
M 70 60
L 68 60 68 62 70 62 70 60
M 68 58
L 66 58 66 60 68 60 68 58
M 70 58
L 70 56 68 56 68 58 70 58
M 62 58
L 62 56 60 56 60 58 62 58
M 64 56
L 64 58 66 58 66 56 64 56
M 64 58
L 62 58 62 60 64 60 64 58
M 64 50
L 62 50 62 52 64 52 64 50
M 62 54
L 62 52 60 52 60 54 62 54
M 64 54
L 62 54 62 56 64 56 64 54
M 66 54
L 66 52 64 52 64 54 66 54
M 70 52
L 68 52 68 54 70 54 70 52
M 68 54
L 66 54 66 56 68 56 68 54
M 68 52
L 68 50 66 50 66 52 68 52
M 72 56
L 72 54 70 54 70 56 72 56
M 76 54
L 74 54 74 56 76 56 76 54
M 80 60
L 80 58 78 58 78 60 80 60
M 78 60
L 76 60 76 62 78 62 78 60
M 76 56
L 76 58 78 58 78 56 76 56
M 74 56
L 72 56 72 58 74 58 74 56
M 72 60
L 72 58 70 58 70 60 72 60
M 74 58
L 74 60 76 60 76 58 74 58
M 74 60
L 72 60 72 62 74 62 74 60
M 72 52
L 72 50 70 50 70 52 72 52
M 74 52
L 72 52 72 54 74 54 74 52
M 80 54
L 78 54 78 56 80 56 80 54
M 76 52
L 76 50 74 50 74 52 76 52
M 78 52
L 76 52 76 54 78 54 78 52
M 80 52
L 80 50 78 50 78 52 80 52
M 32 86
L 30 86 30 88 32 88 32 86
M 40 92
L 40 94 42 94 42 92 40 92
M 34 92
L 32 92 32 94 34 94 34 92
M 34 88
L 32 88 32 90 34 90 34 88
M 40 88
L 40 90 42 90 42 88 40 88
M 36 90
L 38 90 38 88 36 88 36 90
M 38 92
L 36 92 36 94 38 94 38 92
M 38 90
L 38 92 40 92 40 90 38 90
M 36 92
L 36 90 34 90 34 92 36 92
M 26 90
L 26 88 24 88 24 90 26 90
M 30 90
L 30 92 32 92 32 90 30 90
M 30 88
L 28 88 28 90 30 90 30 88
M 26 80
L 24 80 24 82 26 82 26 80
M 28 86
L 26 86 26 88 28 88 28 86
M 28 82
L 26 82 26 84 28 84 28 82
M 28 86
L 30 86 30 84 28 84 28 86
M 24 84
L 24 86 26 86 26 84 24 84
M 24 86
L 22 86 22 88 24 88 24 86
M 22 82
L 22 84 24 84 24 82 22 82
M 22 78
L 22 80 24 80 24 78 22 78
M 26 78
L 26 76 24 76 24 78 26 78
M 30 80
L 28 80 28 82 30 82 30 80
M 26 78
L 26 80 28 80 28 78 26 78
M 30 76
L 28 76 28 78 30 78 30 76
M 40 80
L 40 82 42 82 42 80 40 80
M 36 86
L 34 86 34 88 36 88 36 86
M 40 86
L 38 86 38 88 40 88 40 86
M 40 84
L 40 86 42 86 42 84 40 84
M 36 84
L 36 86 38 86 38 84 36 84
M 40 82
L 38 82 38 84 40 84 40 82
M 32 84
L 32 86 34 86 34 84 32 84
M 34 82
L 34 84 36 84 36 82 34 82
M 32 84
L 32 82 30 82 30 84 32 84
M 32 80
L 32 78 30 78 30 80 32 80
M 34 80
L 32 80 32 82 34 82 34 80
M 34 76
L 32 76 32 78 34 78 34 76
M 40 76
L 40 78 42 78 42 76 40 76
M 38 80
L 36 80 36 82 38 82 38 80
M 38 78
L 38 76 36 76 36 78 38 78
M 38 80
L 40 80 40 78 38 78 38 80
M 36 80
L 36 78 34 78 34 80 36 80
M 20 80
L 20 82 22 82 22 80 20 80
M 20 84
L 20 86 22 86 22 84 20 84
M 20 82
L 18 82 18 84 20 84 20 82
M 12 78
L 14 78 14 76 12 76 12 78
M 20 76
L 20 78 22 78 22 76 20 76
M 18 80
L 16 80 16 82 18 82 18 80
M 16 78
L 18 78 18 76 16 76 16 78
M 18 80
L 20 80 20 78 18 78 18 80
M 16 80
L 16 78 14 78 14 80 16 80
M 12 74
L 10 74 10 76 12 76 12 74
M 16 74
L 14 74 14 76 16 76 16 74
M 20 74
L 18 74 18 76 20 76 20 74
M 16 72
L 16 74 18 74 18 72 16 72
M 20 70
L 18 70 18 72 20 72 20 70
M 12 72
L 12 74 14 74 14 72 12 72
M 14 70
L 14 72 16 72 16 70 14 70
M 14 68
L 12 68 12 70 14 70 14 68
M 14 66
L 14 64 12 64 12 66 14 66
M 18 68
L 16 68 16 70 18 70 18 68
M 18 64
L 16 64 16 66 18 66 18 64
M 18 66
L 18 68 20 68 20 66 18 66
M 16 68
L 16 66 14 66 14 68 16 68
M 16 64
L 16 62 14 62 14 64 16 64
M 18 62
L 18 64 20 64 20 62 18 62
M 10 70
L 10 72 12 72 12 70 10 70
M 10 68
L 8 68 8 70 10 70 10 68
M 10 66
L 10 68 12 68 12 66 10 66
M 6 66
L 6 68 8 68 8 66 6 66
M 10 62
L 10 64 12 64 12 62 10 62
M 8 64
L 8 62 6 62 6 64 8 64
M 10 64
L 8 64 8 66 10 66 10 64
M 8 58
L 6 58 6 60 8 60 8 58
M 10 60
L 8 60 8 62 10 62 10 60
M 8 56
L 8 58 10 58 10 56 8 56
M 4 56
L 4 58 6 58 6 56 4 56
M 6 54
L 6 52 4 52 4 54 6 54
M 8 54
L 6 54 6 56 8 56 8 54
M 8 52
L 8 50 6 50 6 52 8 52
M 10 52
L 8 52 8 54 10 54 10 52
M 12 56
L 12 54 10 54 10 56 12 56
M 16 54
L 14 54 14 56 16 56 16 54
M 18 60
L 16 60 16 62 18 62 18 60
M 18 58
L 18 56 16 56 16 58 18 58
M 20 58
L 18 58 18 60 20 60 20 58
M 14 56
L 12 56 12 58 14 58 14 56
M 12 60
L 12 58 10 58 10 60 12 60
M 14 58
L 14 60 16 60 16 58 14 58
M 14 60
L 12 60 12 62 14 62 14 60
M 12 52
L 12 50 10 50 10 52 12 52
M 14 52
L 12 52 12 54 14 54 14 52
M 18 52
L 16 52 16 54 18 54 18 52
M 20 54
L 18 54 18 56 20 56 20 54
M 16 52
L 16 50 14 50 14 52 16 52
M 18 52
L 20 52 20 50 18 50 18 52
M 22 62
L 22 60 20 60 20 62 22 62
M 40 60
L 40 62 42 62 42 60 40 60
M 32 74
L 30 74 30 76 32 76 32 74
M 40 68
L 40 70 42 70 42 68 40 68
M 36 74
L 34 74 34 76 36 76 36 74
M 40 72
L 40 74 42 74 42 72 40 72
M 40 74
L 38 74 38 76 40 76 40 74
M 36 72
L 36 74 38 74 38 72 36 72
M 40 70
L 38 70 38 72 40 72 40 70
M 32 72
L 32 74 34 74 34 72 32 72
M 34 70
L 34 72 36 72 36 70 34 70
M 34 68
L 32 68 32 70 34 70 34 68
M 34 66
L 34 64 32 64 32 66 34 66
M 38 68
L 36 68 36 70 38 70 38 68
M 40 64
L 40 66 42 66 42 64 40 64
M 38 64
L 36 64 36 66 38 66 38 64
M 38 66
L 38 68 40 68 40 66 38 66
M 36 68
L 36 66 34 66 34 68 36 68
M 36 64
L 36 62 34 62 34 64 36 64
M 40 64
L 40 62 38 62 38 64 40 64
M 22 70
L 22 68 20 68 20 70 22 70
M 26 68
L 24 68 24 70 26 70 26 68
M 30 70
L 30 72 32 72 32 70 30 70
M 28 74
L 26 74 26 76 28 76 28 74
M 28 70
L 26 70 26 72 28 72 28 70
M 28 74
L 30 74 30 72 28 72 28 74
M 24 72
L 24 74 26 74 26 72 24 72
M 22 74
L 22 72 20 72 20 74 22 74
M 24 74
L 22 74 22 76 24 76 24 74
M 22 70
L 22 72 24 72 24 70 22 70
M 22 66
L 22 64 20 64 20 66 22 66
M 22 66
L 22 68 24 68 24 66 22 66
M 24 64
L 24 62 22 62 22 64 24 64
M 26 66
L 26 64 24 64 24 66 26 66
M 30 68
L 28 68 28 70 30 70 30 68
M 30 66
L 30 68 32 68 32 66 30 66
M 26 66
L 26 68 28 68 28 66 26 66
M 30 64
L 28 64 28 66 30 66 30 64
M 28 64
L 28 62 26 62 26 64 28 64
M 30 62
L 30 64 32 64 32 62 30 62
M 26 60
L 24 60 24 62 26 62 26 60
M 28 58
L 26 58 26 60 28 60 28 58
M 30 60
L 28 60 28 62 30 62 30 60
M 28 56
L 28 58 30 58 30 56 28 56
M 22 58
L 22 56 20 56 20 58 22 58
M 24 56
L 24 58 26 58 26 56 24 56
M 24 58
L 22 58 22 60 24 60 24 58
M 24 50
L 22 50 22 52 24 52 24 50
M 22 54
L 22 52 20 52 20 54 22 54
M 24 54
L 22 54 22 56 24 56 24 54
M 26 54
L 26 52 24 52 24 54 26 54
M 28 54
L 26 54 26 56 28 56 28 54
M 28 52
L 28 50 26 50 26 52 28 52
M 30 52
L 28 52 28 54 30 54 30 52
M 32 56
L 32 54 30 54 30 56 32 56
M 36 54
L 34 54 34 56 36 56 36 54
M 38 60
L 36 60 36 62 38 62 38 60
M 40 56
L 40 58 42 58 42 56 40 56
M 38 58
L 38 56 36 56 36 58 38 58
M 40 58
L 38 58 38 60 40 60 40 58
M 34 56
L 32 56 32 58 34 58 34 56
M 32 60
L 32 58 30 58 30 60 32 60
M 34 58
L 34 60 36 60 36 58 34 58
M 34 60
L 32 60 32 62 34 62 34 60
M 32 52
L 32 50 30 50 30 52 32 52
M 34 52
L 32 52 32 54 34 54 34 52
M 40 52
L 40 54 42 54 42 52 40 52
M 38 52
L 36 52 36 54 38 54 38 52
M 40 54
L 38 54 38 56 40 56 40 54
M 36 52
L 36 50 34 50 34 52 36 52
M 38 52
L 40 52 40 50 38 50 38 52
M 22 24
L 20 24 20 26 22 26 22 24
M 22 48
L 20 48 20 50 22 50 22 48
M 34 42
L 34 44 36 44 36 42 34 42
M 38 48
L 36 48 36 50 38 50 38 48
M 38 46
L 38 44 36 44 36 46 38 46
M 40 46
L 38 46 38 48 40 48 40 46
M 34 44
L 32 44 32 46 34 46 34 44
M 34 46
L 34 48 36 48 36 46 34 46
M 34 48
L 32 48 32 50 34 50 34 48
M 34 40
L 32 40 32 42 34 42 34 40
M 36 40
L 36 42 38 42 38 40 36 40
M 40 42
L 38 42 38 44 40 44 40 42
M 36 40
L 36 38 34 38 34 40 36 40
M 40 38
L 38 38 38 40 40 40 40 38
M 30 42
L 30 44 32 44 32 42 30 42
M 26 48
L 24 48 24 50 26 50 26 48
M 30 46
L 30 48 32 48 32 46 30 46
M 28 46
L 26 46 26 48 28 48 28 46
M 30 48
L 28 48 28 50 30 50 30 48
M 28 44
L 28 46 30 46 30 44 28 44
M 24 44
L 24 46 26 46 26 44 24 44
M 24 46
L 22 46 22 48 24 48 24 46
M 22 38
L 22 40 24 40 24 38 22 38
M 24 42
L 22 42 22 44 24 44 24 42
M 26 42
L 26 40 24 40 24 42 26 42
M 28 42
L 26 42 26 44 28 44 28 42
M 28 40
L 28 38 26 38 26 40 28 40
M 30 40
L 28 40 28 42 30 42 30 40
M 30 38
L 30 40 32 40 32 38 30 38
M 26 36
L 24 36 24 38 26 38 26 36
M 26 36
L 28 36 28 34 26 34 26 36
M 30 36
L 28 36 28 38 30 38 30 36
M 30 32
L 28 32 28 34 30 34 30 32
M 24 32
L 24 34 26 34 26 32 24 32
M 24 34
L 22 34 22 36 24 36 24 34
M 24 26
L 22 26 22 28 24 28 24 26
M 24 30
L 22 30 22 32 24 32 24 30
M 28 28
L 28 26 26 26 26 28 28 28
M 28 30
L 26 30 26 32 28 32 28 30
M 30 28
L 28 28 28 30 30 30 30 28
M 26 30
L 26 28 24 28 24 30 26 30
M 32 32
L 32 30 30 30 30 32 32 32
M 36 30
L 34 30 34 32 36 32 36 30
M 38 36
L 36 36 36 38 38 38 38 36
M 38 34
L 38 32 36 32 36 34 38 34
M 40 34
L 38 34 38 36 40 36 40 34
M 34 34
L 34 36 36 36 36 34 34 34
M 32 36
L 32 34 30 34 30 36 32 36
M 34 36
L 32 36 32 38 34 38 34 36
M 34 32
L 32 32 32 34 34 34 34 32
M 32 28
L 32 26 30 26 30 28 32 28
M 34 28
L 32 28 32 30 34 30 34 28
M 36 28
L 36 26 34 26 34 28 36 28
M 40 30
L 38 30 38 32 40 32 40 30
M 36 28
L 36 30 38 30 38 28 36 28
M 40 26
L 38 26 38 28 40 28 40 26
M 20 36
L 20 38 22 38 22 36 20 36
M 16 42
L 14 42 14 44 16 44 16 42
M 18 48
L 16 48 16 50 18 50 18 48
M 20 44
L 20 46 22 46 22 44 20 44
M 18 46
L 18 44 16 44 16 46 18 46
M 20 46
L 18 46 18 48 20 48 20 46
M 14 46
L 14 48 16 48 16 46 14 46
M 14 44
L 12 44 12 46 14 46 14 44
M 14 48
L 12 48 12 50 14 50 14 48
M 14 40
L 12 40 12 42 14 42 14 40
M 18 40
L 16 40 16 42 18 42 18 40
M 20 40
L 20 42 22 42 22 40 20 40
M 20 42
L 18 42 18 44 20 44 20 42
M 16 40
L 16 38 14 38 14 40 16 40
M 18 40
L 20 40 20 38 18 38 18 40
M 10 42
L 10 44 12 44 12 42 10 42
M 6 48
L 4 48 4 50 6 50 6 48
M 10 46
L 10 48 12 48 12 46 10 46
M 8 46
L 6 46 6 48 8 48 8 46
M 10 48
L 8 48 8 50 10 50 10 48
M 8 44
L 8 46 10 46 10 44 8 44
M 4 44
L 4 46 6 46 6 44 4 44
M 6 42
L 6 40 4 40 4 42 6 42
M 8 42
L 6 42 6 44 8 44 8 42
M 8 40
L 8 38 6 38 6 40 8 40
M 10 38
L 10 40 12 40 12 38 10 38
M 10 40
L 8 40 8 42 10 42 10 40
M 6 36
L 8 36 8 34 6 34 6 36
M 10 36
L 8 36 8 38 10 38 10 36
M 10 34
L 10 32 8 32 8 34 10 34
M 8 30
L 10 30 10 28 8 28 8 30
M 12 32
L 12 30 10 30 10 32 12 32
M 16 30
L 14 30 14 32 16 32 16 30
M 18 36
L 16 36 16 38 18 38 18 36
M 20 32
L 20 34 22 34 22 32 20 32
M 18 34
L 18 32 16 32 16 34 18 34
M 20 34
L 18 34 18 36 20 36 20 34
M 14 32
L 12 32 12 34 14 34 14 32
M 12 36
L 12 34 10 34 10 36 12 36
M 14 34
L 14 36 16 36 16 34 14 34
M 14 36
L 12 36 12 38 14 38 14 36
M 12 28
L 12 26 10 26 10 28 12 28
M 14 28
L 12 28 12 30 14 30 14 28
M 16 28
L 16 26 14 26 14 28 16 28
M 20 28
L 20 30 22 30 22 28 20 28
M 20 30
L 18 30 18 32 20 32 20 30
M 16 28
L 16 30 18 30 18 28 16 28
M 20 26
L 18 26 18 28 20 28 20 26
M 18 20
L 16 20 16 22 18 22 18 20
M 18 24
L 16 24 16 26 18 26 18 24
M 20 22
L 18 22 18 24 20 24 20 22
M 14 22
L 14 24 16 24 16 22 14 22
M 14 24
L 12 24 12 26 14 26 14 24
M 20 18
L 18 18 18 20 20 20 20 18
M 36 18
L 34 18 34 20 36 20 36 18
M 38 24
L 36 24 36 26 38 26 38 24
M 36 22
L 38 22 38 20 36 20 36 22
M 40 22
L 38 22 38 24 40 24 40 22
M 34 20
L 32 20 32 22 34 22 34 20
M 34 22
L 34 24 36 24 36 22 34 22
M 34 24
L 32 24 32 26 34 26 34 24
M 34 16
L 32 16 32 18 34 18 34 16
M 36 16
L 36 14 34 14 34 16 36 16
M 40 18
L 38 18 38 20 40 20 40 18
M 36 16
L 36 18 38 18 38 16 36 16
M 40 14
L 38 14 38 16 40 16 40 14
M 30 18
L 30 20 32 20 32 18 30 18
M 26 24
L 24 24 24 26 26 26 26 24
M 30 22
L 30 24 32 24 32 22 30 22
M 30 24
L 28 24 28 26 30 26 30 24
M 26 22
L 26 24 28 24 28 22 26 22
M 30 20
L 28 20 28 22 30 22 30 20
M 22 22
L 22 20 20 20 20 22 22 22
M 24 20
L 24 22 26 22 26 20 24 20
M 24 22
L 22 22 22 24 24 24 24 22
M 24 14
L 22 14 22 16 24 16 24 14
M 22 18
L 22 16 20 16 20 18 22 18
M 24 18
L 22 18 22 20 24 20 24 18
M 28 14
L 26 14 26 16 28 16 28 14
M 30 14
L 30 16 32 16 32 14 30 14
M 28 18
L 26 18 26 20 28 20 28 18
M 30 16
L 28 16 28 18 30 18 30 16
M 26 18
L 26 16 24 16 24 18 26 18
M 26 12
L 24 12 24 14 26 14 26 12
M 30 12
L 28 12 28 14 30 14 30 12
M 26 10
L 26 12 28 12 28 10 26 10
M 30 8
L 28 8 28 10 30 10 30 8
M 36 8
L 36 6 34 6 34 8 36 8
M 38 12
L 36 12 36 14 38 14 38 12
M 36 10
L 38 10 38 8 36 8 36 10
M 40 10
L 38 10 38 12 40 12 40 10
M 34 8
L 32 8 32 10 34 10 34 8
M 32 12
L 32 10 30 10 30 12 32 12
M 34 10
L 34 12 36 12 36 10 34 10
M 34 12
L 32 12 32 14 34 14 34 12
M 40 6
L 38 6 38 8 40 8 40 6
M 42 26
L 42 24 40 24 40 26 42 26
M 62 24
L 60 24 60 26 62 26 62 24
M 62 48
L 60 48 60 50 62 50 62 48
M 74 42
L 74 44 76 44 76 42 74 42
M 80 48
L 80 46 78 46 78 48 80 48
M 78 48
L 76 48 76 50 78 50 78 48
M 76 44
L 76 46 78 46 78 44 76 44
M 74 44
L 72 44 72 46 74 46 74 44
M 74 46
L 74 48 76 48 76 46 74 46
M 74 48
L 72 48 72 50 74 50 74 48
M 74 40
L 72 40 72 42 74 42 74 40
M 80 42
L 78 42 78 44 80 44 80 42
M 78 40
L 76 40 76 42 78 42 78 40
M 76 40
L 76 38 74 38 74 40 76 40
M 80 40
L 80 38 78 38 78 40 80 40
M 70 42
L 70 44 72 44 72 42 70 42
M 66 48
L 64 48 64 50 66 50 66 48
M 70 48
L 68 48 68 50 70 50 70 48
M 70 46
L 70 48 72 48 72 46 70 46
M 68 46
L 66 46 66 48 68 48 68 46
M 70 46
L 70 44 68 44 68 46 70 46
M 64 44
L 64 46 66 46 66 44 64 44
M 64 46
L 62 46 62 48 64 48 64 46
M 64 42
L 62 42 62 44 64 44 64 42
M 64 38
L 62 38 62 40 64 40 64 38
M 68 40
L 68 42 70 42 70 40 68 40
M 66 42
L 66 40 64 40 64 42 66 42
M 68 42
L 66 42 66 44 68 44 68 42
M 68 38
L 66 38 66 40 68 40 68 38
M 70 38
L 70 40 72 40 72 38 70 38
M 66 36
L 64 36 64 38 66 38 66 36
M 70 36
L 68 36 68 38 70 38 70 36
M 68 34
L 66 34 66 36 68 36 68 34
M 70 34
L 70 32 68 32 68 34 70 34
M 62 34
L 62 36 64 36 64 34 62 34
M 64 32
L 64 34 66 34 66 32 64 32
M 64 30
L 62 30 62 32 64 32 64 30
M 64 26
L 62 26 62 28 64 28 64 26
M 68 28
L 68 30 70 30 70 28 68 28
M 66 30
L 66 28 64 28 64 30 66 30
M 68 30
L 66 30 66 32 68 32 68 30
M 68 26
L 66 26 66 28 68 28 68 26
M 72 32
L 72 30 70 30 70 32 72 32
M 76 30
L 74 30 74 32 76 32 76 30
M 78 34
L 78 36 80 36 80 34 78 34
M 78 36
L 76 36 76 38 78 38 78 36
M 78 32
L 76 32 76 34 78 34 78 32
M 72 36
L 72 34 70 34 70 36 72 36
M 74 36
L 72 36 72 38 74 38 74 36
M 74 34
L 74 36 76 36 76 34 74 34
M 74 32
L 72 32 72 34 74 34 74 32
M 74 28
L 72 28 72 30 74 30 74 28
M 72 28
L 72 26 70 26 70 28 72 28
M 80 30
L 78 30 78 32 80 32 80 30
M 76 28
L 76 26 74 26 74 28 76 28
M 78 28
L 80 28 80 26 78 26 78 28
M 78 28
L 76 28 76 30 78 30 78 28
M 42 38
L 42 36 40 36 40 38 42 38
M 60 36
L 60 38 62 38 62 36 60 36
M 54 42
L 54 44 56 44 56 42 54 42
M 60 48
L 60 46 58 46 58 48 60 48
M 58 48
L 56 48 56 50 58 50 58 48
M 56 44
L 56 46 58 46 58 44 56 44
M 60 44
L 60 46 62 46 62 44 60 44
M 54 44
L 52 44 52 46 54 46 54 44
M 54 46
L 54 48 56 48 56 46 54 46
M 54 48
L 52 48 52 50 54 50 54 48
M 54 40
L 52 40 52 42 54 42 54 40
M 60 40
L 60 42 62 42 62 40 60 40
M 60 42
L 58 42 58 44 60 44 60 42
M 56 40
L 56 38 54 38 54 40 56 40
M 58 40
L 56 40 56 42 58 42 58 40
M 60 40
L 60 38 58 38 58 40 60 40
M 50 42
L 50 44 52 44 52 42 50 42
M 46 48
L 44 48 44 50 46 50 46 48
M 50 48
L 48 48 48 50 50 50 50 48
M 50 46
L 50 48 52 48 52 46 50 46
M 48 46
L 46 46 46 48 48 48 48 46
M 50 46
L 50 44 48 44 48 46 50 46
M 42 46
L 42 44 40 44 40 46 42 46
M 44 44
L 44 46 46 46 46 44 44 44
M 44 46
L 42 46 42 48 44 48 44 46
M 44 42
L 42 42 42 44 44 44 44 42
M 42 42
L 42 40 40 40 40 42 42 42
M 44 38
L 42 38 42 40 44 40 44 38
M 48 40
L 48 42 50 42 50 40 48 40
M 46 42
L 46 40 44 40 44 42 46 42
M 48 42
L 46 42 46 44 48 44 48 42
M 48 38
L 46 38 46 40 48 40 48 38
M 50 38
L 50 40 52 40 52 38 50 38
M 46 36
L 44 36 44 38 46 38 46 36
M 50 36
L 48 36 48 38 50 38 50 36
M 48 34
L 46 34 46 36 48 36 48 34
M 50 34
L 50 32 48 32 48 34 50 34
M 42 34
L 42 36 44 36 44 34 42 34
M 42 34
L 42 32 40 32 40 34 42 34
M 44 32
L 44 34 46 34 46 32 44 32
M 44 30
L 42 30 42 32 44 32 44 30
M 42 30
L 42 28 40 28 40 30 42 30
M 44 26
L 42 26 42 28 44 28 44 26
M 48 28
L 48 30 50 30 50 28 48 28
M 46 30
L 46 28 44 28 44 30 46 30
M 48 30
L 46 30 46 32 48 32 48 30
M 48 26
L 46 26 46 28 48 28 48 26
M 52 32
L 52 30 50 30 50 32 52 32
M 56 30
L 54 30 54 32 56 32 56 30
M 58 34
L 58 36 60 36 60 34 58 34
M 58 36
L 56 36 56 38 58 38 58 36
M 58 32
L 56 32 56 34 58 34 58 32
M 60 32
L 60 34 62 34 62 32 60 32
M 54 34
L 54 36 56 36 56 34 54 34
M 52 36
L 52 34 50 34 50 36 52 36
M 54 36
L 52 36 52 38 54 38 54 36
M 54 32
L 52 32 52 34 54 34 54 32
M 54 28
L 52 28 52 30 54 30 54 28
M 52 28
L 52 26 50 26 50 28 52 28
M 60 30
L 58 30 58 32 60 32 60 30
M 56 28
L 56 26 54 26 54 28 56 28
M 58 28
L 60 28 60 26 58 26 58 28
M 60 28
L 60 30 62 30 62 28 60 28
M 56 28
L 56 30 58 30 58 28 56 28
M 42 14
L 42 12 40 12 40 14 42 14
M 56 18
L 54 18 54 20 56 20 56 18
M 58 22
L 58 24 60 24 60 22 58 22
M 58 24
L 56 24 56 26 58 26 58 24
M 58 20
L 56 20 56 22 58 22 58 20
M 54 24
L 52 24 52 26 54 26 54 24
M 54 22
L 54 24 56 24 56 22 54 22
M 54 20
L 52 20 52 22 54 22 54 20
M 54 16
L 52 16 52 18 54 18 54 16
M 56 16
L 56 14 54 14 54 16 56 16
M 58 16
L 60 16 60 14 58 14 58 16
M 60 18
L 58 18 58 20 60 20 60 18
M 58 16
L 56 16 56 18 58 18 58 16
M 50 18
L 50 20 52 20 52 18 50 18
M 46 24
L 44 24 44 26 46 26 46 24
M 50 24
L 48 24 48 26 50 26 50 24
M 48 22
L 50 22 50 20 48 20 48 22
M 50 22
L 50 24 52 24 52 22 50 22
M 46 22
L 46 24 48 24 48 22 46 22
M 44 22
L 42 22 42 24 44 24 44 22
M 42 22
L 42 20 40 20 40 22 42 22
M 44 20
L 44 22 46 22 46 20 44 20
M 42 14
L 42 16 44 16 44 14 42 14
M 42 18
L 42 16 40 16 40 18 42 18
M 44 18
L 42 18 42 20 44 20 44 18
M 50 14
L 50 16 52 16 52 14 50 14
M 48 16
L 48 18 50 18 50 16 48 16
M 46 18
L 46 16 44 16 44 18 46 18
M 48 18
L 46 18 46 20 48 20 48 18
M 48 14
L 46 14 46 16 48 16 48 14
M 46 12
L 44 12 44 14 46 14 46 12
M 50 12
L 48 12 48 14 50 14 50 12
M 48 8
L 48 10 50 10 50 8 48 8
M 48 10
L 46 10 46 12 48 12 48 10
M 42 10
L 42 8 40 8 40 10 42 10
M 44 8
L 44 10 46 10 46 8 44 8
M 44 10
L 42 10 42 12 44 12 44 10
M 42 6
L 42 4 40 4 40 6 42 6
M 44 6
L 42 6 42 8 44 8 44 6
M 48 4
L 48 6 50 6 50 4 48 4
M 46 6
L 46 4 44 4 44 6 46 6
M 48 6
L 46 6 46 8 48 8 48 6
M 52 8
L 52 6 50 6 50 8 52 8
M 56 6
L 54 6 54 8 56 8 56 6
M 58 10
L 58 12 60 12 60 10 58 10
M 58 12
L 56 12 56 14 58 14 58 12
M 58 8
L 56 8 56 10 58 10 58 8
M 54 8
L 52 8 52 10 54 10 54 8
M 52 12
L 52 10 50 10 50 12 52 12
M 54 10
L 54 12 56 12 56 10 54 10
M 54 12
L 52 12 52 14 54 14 54 12
M 54 6
L 54 4 52 4 52 6 54 6
M 58 6
L 58 4 56 4 56 6 58 6
M 60 6
L 58 6 58 8 60 8 60 6
M 62 14
L 62 12 60 12 60 14 62 14
M 76 18
L 74 18 74 20 76 20 76 18
M 78 22
L 78 24 80 24 80 22 78 22
M 78 24
L 76 24 76 26 78 26 78 24
M 78 20
L 76 20 76 22 78 22 78 20
M 74 20
L 72 20 72 22 74 22 74 20
M 74 22
L 74 24 76 24 76 22 74 22
M 74 24
L 72 24 72 26 74 26 74 24
M 74 16
L 72 16 72 18 74 18 74 16
M 76 16
L 76 14 74 14 74 16 76 16
M 80 18
L 78 18 78 20 80 20 80 18
M 78 16
L 80 16 80 14 78 14 78 16
M 78 16
L 76 16 76 18 78 18 78 16
M 70 18
L 70 20 72 20 72 18 70 18
M 66 24
L 64 24 64 26 66 26 66 24
M 70 24
L 68 24 68 26 70 26 70 24
M 68 20
L 68 22 70 22 70 20 68 20
M 70 22
L 70 24 72 24 72 22 70 22
M 68 22
L 66 22 66 24 68 24 68 22
M 62 22
L 62 20 60 20 60 22 62 22
M 64 20
L 64 22 66 22 66 20 64 20
M 64 22
L 62 22 62 24 64 24 64 22
M 62 14
L 62 16 64 16 64 14 62 14
M 62 18
L 62 16 60 16 60 18 62 18
M 64 18
L 62 18 62 20 64 20 64 18
M 70 14
L 70 16 72 16 72 14 70 14
M 68 16
L 68 18 70 18 70 16 68 16
M 66 18
L 66 16 64 16 64 18 66 18
M 68 18
L 66 18 66 20 68 20 68 18
M 68 14
L 66 14 66 16 68 16 68 14
M 66 12
L 64 12 64 14 66 14 66 12
M 70 12
L 68 12 68 14 70 14 70 12
M 68 8
L 68 10 70 10 70 8 68 8
M 68 10
L 66 10 66 12 68 12 68 10
M 64 8
L 64 10 66 10 66 8 64 8
M 62 10
L 62 8 60 8 60 10 62 10
M 62 12
L 64 12 64 10 62 10 62 12
M 64 6
L 62 6 62 8 64 8 64 6
M 68 6
L 66 6 66 8 68 8 68 6
M 78 12
L 76 12 76 14 78 14 78 12
M 74 10
L 74 12 76 12 76 10 74 10
M 72 12
L 72 10 70 10 70 12 72 12
M 74 12
L 72 12 72 14 74 14 74 12
M 82 50
L 82 48 80 48 80 50 82 50
M 82 82
L 82 80 80 80 80 82 82 82
M 82 78
L 82 76 80 76 80 78 82 78
M 82 78
L 82 80 84 80 84 78 82 78
M 86 76
L 84 76 84 78 86 78 86 76
M 82 62
L 82 60 80 60 80 62 82 62
M 92 64
L 92 66 94 66 94 64 92 64
M 82 70
L 82 68 80 68 80 70 82 70
M 88 74
L 86 74 86 76 88 76 88 74
M 90 74
L 90 72 88 72 88 74 90 74
M 90 70
L 90 72 92 72 92 70 90 70
M 86 70
L 86 72 88 72 88 70 86 70
M 84 74
L 82 74 82 76 84 76 84 74
M 84 70
L 82 70 82 72 84 72 84 70
M 84 74
L 86 74 86 72 84 72 84 74
M 82 74
L 82 72 80 72 80 74 82 74
M 82 66
L 82 64 80 64 80 66 82 66
M 86 68
L 84 68 84 70 86 70 86 68
M 82 66
L 82 68 84 68 84 66 82 66
M 84 64
L 84 62 82 62 82 64 84 64
M 86 64
L 84 64 84 66 86 66 86 64
M 90 68
L 88 68 88 70 90 70 90 68
M 88 66
L 90 66 90 64 88 64 88 66
M 90 66
L 90 68 92 68 92 66 90 66
M 88 68
L 88 66 86 66 86 68 88 68
M 88 64
L 88 62 86 62 86 64 88 64
M 90 62
L 90 64 92 64 92 62 90 62
M 88 54
L 86 54 86 56 88 56 88 54
M 90 56
L 88 56 88 58 90 58 90 56
M 90 60
L 88 60 88 62 90 62 90 60
M 86 58
L 86 60 88 60 88 58 86 58
M 84 58
L 82 58 82 60 84 60 84 58
M 86 60
L 84 60 84 62 86 62 86 60
M 82 58
L 82 56 80 56 80 58 82 58
M 84 56
L 84 58 86 58 86 56 84 56
M 82 54
L 82 52 80 52 80 54 82 54
M 84 54
L 82 54 82 56 84 56 84 54
M 84 52
L 84 50 82 50 82 52 84 52
M 86 52
L 84 52 84 54 86 54 86 52
M 88 52
L 88 50 86 50 86 52 88 52
M 90 52
L 88 52 88 54 90 54 90 52
M 92 56
L 92 54 90 54 90 56 92 56
M 92 60
L 92 58 90 58 90 60 92 60
M 94 60
L 92 60 92 62 94 62 94 60
M 94 58
L 94 56 92 56 92 58 94 58
M 96 58
L 94 58 94 60 96 60 96 58
M 94 54
L 94 52 92 52 92 54 94 54
M 96 54
L 94 54 94 56 96 56 96 54
M 92 52
L 92 50 90 50 90 52 92 52
M 96 50
L 94 50 94 52 96 52 96 50
M 82 26
L 82 24 80 24 80 26 82 26
M 82 38
L 82 36 80 36 80 38 82 38
M 94 48
L 92 48 92 50 94 50 94 48
M 94 46
L 94 44 92 44 92 46 94 46
M 96 46
L 94 46 94 48 96 48 96 46
M 94 40
L 92 40 92 42 94 42 94 40
M 96 42
L 94 42 94 44 96 44 96 42
M 90 42
L 90 44 92 44 92 42 90 42
M 86 42
L 86 44 88 44 88 42 86 42
M 90 44
L 88 44 88 46 90 46 90 44
M 90 46
L 90 48 92 48 92 46 90 46
M 90 48
L 88 48 88 50 90 50 90 48
M 86 46
L 86 48 88 48 88 46 86 46
M 84 46
L 82 46 82 48 84 48 84 46
M 86 48
L 84 48 84 50 86 50 86 48
M 82 46
L 82 44 80 44 80 46 82 46
M 84 44
L 84 46 86 46 86 44 84 44
M 84 42
L 82 42 82 44 84 44 84 42
M 82 42
L 82 40 80 40 80 42 82 42
M 86 40
L 84 40 84 42 86 42 86 40
M 84 40
L 84 38 82 38 82 40 84 40
M 90 40
L 88 40 88 42 90 42 90 40
M 88 40
L 88 38 86 38 86 40 88 40
M 90 38
L 90 40 92 40 92 38 90 38
M 88 30
L 86 30 86 32 88 32 88 30
M 90 36
L 88 36 88 38 90 38 90 36
M 90 32
L 88 32 88 34 90 34 90 32
M 86 34
L 86 36 88 36 88 34 86 34
M 82 36
L 84 36 84 34 82 34 82 36
M 86 36
L 84 36 84 38 86 38 86 36
M 82 34
L 82 32 80 32 80 34 82 34
M 86 32
L 84 32 84 34 86 34 86 32
M 84 30
L 82 30 82 32 84 32 84 30
M 82 28
L 84 28 84 26 82 26 82 28
M 86 28
L 84 28 84 30 86 30 86 28
M 82 30
L 82 28 80 28 80 30 82 30
M 90 28
L 88 28 88 30 90 30 90 28
M 88 28
L 88 26 86 26 86 28 88 28
M 94 36
L 92 36 92 38 94 38 94 36
M 92 36
L 92 34 90 34 90 36 92 36
M 94 32
L 92 32 92 34 94 34 94 32
M 92 32
L 92 30 90 30 90 32 92 32
M 90 24
L 88 24 88 26 90 26 90 24
M 82 22
L 82 20 80 20 80 22 82 22
M 86 22
L 86 24 88 24 88 22 86 22
M 86 24
L 84 24 84 26 86 26 86 24
M 82 22
L 82 24 84 24 84 22 82 22
M 86 20
L 84 20 84 22 86 22 86 20
M 82 18
L 82 16 80 16 80 18 82 18
M 84 18
L 82 18 82 20 84 20 84 18 Z"/>
</g>
</defs>

<g transform="matrix( 1, 0, 0, 1, 0,0) ">
<use xlink:href="#Layer2_0_FILL"/>
</g>

<g transform="matrix( 1, 0, 0, 1, 0,0) ">
<use xlink:href="#Layer1_0_FILL"/>
</g>
</svg>
