
<svg xmlns="http://www.w3.org/2000/svg" version="1.1" xmlns:xlink="http://www.w3.org/1999/xlink" preserveAspectRatio="none" x="0px" y="0px" width="100px" height="100px" viewBox="0 0 100 100">
<defs>
<g id="Layer2_0_FILL">
<path fill="#0000FF" stroke="none" d="
M 50.2 100
L 50.15 99.9 50.2 99.85 49.8 99.85 49.85 99.9 49.8 100 50.2 100
M 0 50.2
L 0.05 50.15 0.15 50.2 0.15 49.8 0.05 49.85 0 49.8 0 50.2
M 49.8 0
L 49.85 0.05 49.8 0.15 50.2 0.15 50.15 0.05 50.2 0 49.8 0
M 99.85 50.2
L 99.9 50.15 100 50.2 100 49.8 99.95 49.85 99.9 49.85 99.85 49.8 99.85 50.2 Z"/>
</g>

<g id="Layer1_0_FILL">
<path fill="#000000" stroke="none" d="
M 82 18
L 82 16 80 16 80 14 78 14 78 12 76 12 76 10 72 10 72 8 68 8 68 6 60 6 60 4 40 4 40 6 32 6 32 8 28 8 28 10 24 10 24 12 22 12 22 14 20.05 14 20.05 16 18.05 16 18.05 18 16.05 18 16.05 20 14 20 14 22 12 22 12 24 10 24 10 28 8 28 8 32 6 32 6 40 4 40 4 60 6 60 6 68 8 68 8 72 10 72 10 76 12 76 12 78 14 78 14 80 16.05 80 16.05 82 18.05 82 18.05 84 20.05 84 20.05 86 22 86 22 88 24 88 24 90 28 90 28 92 32 92 32 94 40 94 40 96 60 96 60 94 68 94 68 92 72 92 72 90 76 90 76 88 78 88 78 86 80 86 80 84 82 84 82 82 84 82 84 80 86 80 86 78 88 78 88 76 90 76 90 72 92 72 92 68 94 68 94 60 96 60 96 40 94 40 94 32 92 32 92 28 90 28 90 24 88 24 88 22 86 22 86 20 84 20 84 18 82 18 Z"/>
</g>
</defs>

<g transform="matrix( 1, 0, 0, 1, 0,0) ">
<use xlink:href="#Layer2_0_FILL"/>
</g>

<g transform="matrix( 1, 0, 0, 1, 0,0) ">
<use xlink:href="#Layer1_0_FILL"/>
</g>
</svg>
