
<svg xmlns="http://www.w3.org/2000/svg" version="1.1" xmlns:xlink="http://www.w3.org/1999/xlink" preserveAspectRatio="none" x="0px" y="0px" width="100px" height="100px" viewBox="0 0 100 100">
<defs>
<g id="Layer2_0_FILL">
<path fill="#0000FF" stroke="none" d="
M 50.2 100
L 50.15 99.9 50.2 99.85 49.8 99.85 49.85 99.9 49.8 100 50.2 100
M 0 50.2
L 0.05 50.15 0.15 50.2 0.15 49.8 0.05 49.85 0 49.8 0 50.2
M 49.8 0
L 49.85 0.05 49.8 0.15 50.2 0.15 50.15 0.05 50.2 0 49.8 0
M 99.85 50.2
L 99.9 50.15 100 50.2 100 49.8 99.95 49.85 99.9 49.85 99.85 49.8 99.85 50.2 Z"/>
</g>

<g id="Layer1_0_FILL">
<path fill="#000000" stroke="none" d="
M 18.05 82.05
L 18.15 82.05 18.05 82 18.05 82.05
M 82.05 82.05
L 82.05 81.9 82 82 81.9 82.05 82.05 82.05
M 82.05 18.05
L 82 18.05 82.05 18.1 82.05 18.05 Z"/>
</g>

<g id="Layer1_1_FILL">
<path fill="#000000" stroke="none" d="
M 90.05 34.05
L 90 34.05 90 34 82.05 34 82.05 26 74 26 74 18.05 66.05 18.05 66.05 10.05 66 10.05 66 10 58 10 58 10.05 42 10.05 42 10 34 10 34 18 34.05 18 34.05 18.05 26 18.05 26 26 18.05 26 18.05 34.05 18 34.05 18 34 10 34 10 42 10.05 42 10.05 58 10 58 10 66 10.05 66 10.05 66.05 18.05 66.05 18.05 74 26 74 26 82.05 34 82.05 34 90 34.05 90 34.05 90.05 66.05 90.05 66.05 82.05 74 82.05 74 74 82.05 74 82.05 66.05 90.05 66.05 90.05 34.05 Z"/>
</g>
</defs>

<g transform="matrix( 1, 0, 0, 1, 0,0) ">
<use xlink:href="#Layer2_0_FILL"/>
</g>

<g transform="matrix( 1, 0, 0, 1, 0,0) ">
<use xlink:href="#Layer1_0_FILL"/>
</g>

<g transform="matrix( 1.149993896484375, 0, 0, 1.149993896484375, -7.45,-7.45) ">
<use xlink:href="#Layer1_1_FILL"/>
</g>
</svg>
