
<svg xmlns="http://www.w3.org/2000/svg" version="1.1" xmlns:xlink="http://www.w3.org/1999/xlink" preserveAspectRatio="none" x="0px" y="0px" width="100px" height="100px" viewBox="0 0 100 100">
<defs>
<g id="Layer2_0_FILL">
<path fill="#0000FF" stroke="none" d="
M 50.2 100
L 50.15 99.9 50.2 99.85 49.8 99.85 49.85 99.9 49.8 100 50.2 100
M 0 50.2
L 0.05 50.15 0.15 50.2 0.15 49.8 0.05 49.85 0 49.8 0 50.2
M 49.8 0
L 49.85 0.05 49.8 0.15 50.2 0.15 50.15 0.05 50.2 0 49.8 0
M 99.85 50.2
L 99.9 50.15 100 50.2 100 49.8 99.95 49.85 99.9 49.85 99.85 49.8 99.85 50.2 Z"/>
</g>

<g id="Layer1_0_FILL">
<path fill="#000000" stroke="none" d="
M 44 52
L 44 48 40 48 40 52 44 52
M 72 88
L 72 84 68 84 68 88 72 88
M 68 92
L 68 88 64 88 64 92 68 92
M 64 80
L 64 84 68 84 68 80 64 80
M 76 84
L 76 80 72 80 72 84 76 84
M 72 80
L 72 76 68 76 68 80 72 80
M 76 76
L 76 80 80 80 80 76 76 76
M 60 84
L 60 88 64 88 64 84 60 84
M 60 92
L 60 96 64 96 64 92 60 92
M 56 92
L 52 92 52 96 56 96 56 92
M 60 92
L 60 88 56 88 56 92 60 92
M 48 88
L 48 92 52 92 52 88 48 88
M 48 96
L 48 92 44 92 44 96 48 96
M 48 84
L 44 84 44 88 48 88 48 84
M 44 76
L 44 80 48 80 48 76 44 76
M 52 84
L 52 80 48 80 48 84 52 84
M 56 84
L 52 84 52 88 56 88 56 84
M 56 80
L 56 76 52 76 52 80 56 80
M 60 80
L 56 80 56 84 60 84 60 80
M 60 76
L 60 80 64 80 64 76 60 76
M 52 72
L 48 72 48 76 52 76 52 72
M 52 68
L 52 72 56 72 56 68 52 68
M 60 72
L 56 72 56 76 60 76 60 72
M 60 68
L 60 64 56 64 56 68 60 68
M 48 64
L 48 68 52 68 52 64 48 64
M 44 68
L 44 72 48 72 48 68 44 68
M 48 60
L 44 60 44 64 48 64 48 60
M 44 52
L 44 56 48 56 48 52 44 52
M 56 56
L 56 52 52 52 52 56 56 56
M 56 60
L 52 60 52 64 56 64 56 60
M 56 56
L 56 60 60 60 60 56 56 56
M 52 60
L 52 56 48 56 48 60 52 60
M 64 64
L 64 60 60 60 60 64 64 64
M 72 60
L 68 60 68 64 72 64 72 60
M 76 72
L 72 72 72 76 76 76 76 72
M 80 68
L 76 68 76 72 80 72 80 68
M 76 68
L 76 64 72 64 72 68 76 68
M 68 72
L 64 72 64 76 68 76 68 72
M 64 72
L 64 68 60 68 60 72 64 72
M 68 68
L 68 72 72 72 72 68 68 68
M 68 64
L 64 64 64 68 68 68 68 64
M 64 56
L 64 52 60 52 60 56 64 56
M 68 60
L 68 56 64 56 64 60 68 60
M 72 56
L 72 52 68 52 68 56 72 56
M 80 60
L 76 60 76 64 80 64 80 60
M 72 56
L 72 60 76 60 76 56 72 56
M 80 52
L 76 52 76 56 80 56 80 52
M 40 72
L 40 76 44 76 44 72 40 72
M 28 88
L 32 88 32 84 28 84 28 88
M 40 88
L 40 92 44 92 44 88 40 88
M 40 92
L 36 92 36 96 40 96 40 92
M 36 92
L 36 88 32 88 32 92 36 92
M 24 84
L 28 84 28 80 24 80 24 84
M 36 84
L 36 80 32 80 32 84 36 84
M 40 80
L 40 84 44 84 44 80 40 80
M 40 84
L 36 84 36 88 40 88 40 84
M 32 80
L 32 76 28 76 28 80 32 80
M 40 80
L 40 76 36 76 36 80 40 80
M 20 76
L 20 80 24 80 24 76 20 76
M 12 72
L 16 72 16 68 12 68 12 72
M 20 72
L 16 72 16 76 20 76 20 72
M 20 68
L 20 64 16 64 16 68 20 68
M 8 64
L 8 68 12 68 12 64 8 64
M 8 60
L 4 60 4 64 8 64 8 60
M 8 52
L 4 52 4 56 8 56 8 52
M 16 56
L 16 52 12 52 12 56 16 56
M 16 60
L 12 60 12 64 16 64 16 60
M 16 56
L 16 60 20 60 20 56 16 56
M 12 60
L 12 56 8 56 8 60 12 60
M 24 64
L 24 60 20 60 20 64 24 64
M 32 60
L 28 60 28 64 32 64 32 60
M 36 72
L 32 72 32 76 36 76 36 72
M 40 64
L 40 68 44 68 44 64 40 64
M 40 68
L 36 68 36 72 40 72 40 68
M 36 68
L 36 64 32 64 32 68 36 68
M 28 72
L 24 72 24 76 28 76 28 72
M 24 72
L 24 68 20 68 20 72 24 72
M 28 68
L 28 72 32 72 32 68 28 68
M 28 64
L 24 64 24 68 28 68 28 64
M 24 56
L 24 52 20 52 20 56 24 56
M 28 60
L 28 56 24 56 24 60 28 60
M 32 56
L 32 52 28 52 28 56 32 56
M 40 60
L 36 60 36 64 40 64 40 60
M 40 56
L 40 60 44 60 44 56 40 56
M 32 56
L 32 60 36 60 36 56 32 56
M 40 52
L 36 52 36 56 40 56 40 52
M 32 36
L 28 36 28 40 32 40 32 36
M 36 48
L 32 48 32 52 36 52 36 48
M 32 40
L 32 44 36 44 36 40 32 40
M 36 48
L 40 48 40 44 36 44 36 48
M 28 48
L 24 48 24 52 28 52 28 48
M 28 44
L 28 48 32 48 32 44 28 44
M 24 40
L 24 44 28 44 28 40 24 40
M 24 32
L 24 36 28 36 28 32 24 32
M 32 32
L 32 28 28 28 28 32 32 32
M 40 36
L 36 36 36 40 40 40 40 36
M 32 32
L 32 36 36 36 36 32 32 32
M 40 28
L 36 28 36 32 40 32 40 28
M 12 48
L 8 48 8 52 12 52 12 48
M 20 36
L 20 40 24 40 24 36 20 36
M 20 44
L 20 48 24 48 24 44 20 44
M 20 48
L 16 48 16 52 20 52 20 48
M 12 44
L 12 48 16 48 16 44 12 44
M 20 40
L 16 40 16 44 20 44 20 40
M 8 40
L 8 44 12 44 12 40 8 40
M 8 44
L 4 44 4 48 8 48 8 44
M 8 36
L 4 36 4 40 8 40 8 36
M 16 32
L 16 28 12 28 12 32 16 32
M 20 28
L 20 32 24 32 24 28 20 28
M 16 36
L 12 36 12 40 16 40 16 36
M 16 32
L 16 36 20 36 20 32 16 32
M 12 36
L 12 32 8 32 8 36 12 36
M 20 24
L 16 24 16 28 20 28 20 24
M 32 12
L 28 12 28 16 32 16 32 12
M 36 24
L 32 24 32 28 36 28 36 24
M 32 16
L 32 20 36 20 36 16 32 16
M 36 24
L 40 24 40 20 36 20 36 24
M 28 24
L 24 24 24 28 28 28 28 24
M 24 24
L 24 20 20 20 20 24 24 24
M 28 20
L 28 24 32 24 32 20 28 20
M 28 16
L 24 16 24 20 28 20 28 16
M 40 12
L 36 12 36 16 40 16 40 12
M 32 8
L 32 12 36 12 36 8 32 8
M 40 4
L 36 4 36 8 40 8 40 4
M 44 28
L 44 24 40 24 40 28 44 28
M 72 36
L 68 36 68 40 72 40 72 36
M 76 48
L 72 48 72 52 76 52 76 48
M 72 40
L 72 44 76 44 76 40 72 40
M 76 48
L 80 48 80 44 76 44 76 48
M 68 48
L 64 48 64 52 68 52 68 48
M 68 44
L 68 48 72 48 72 44 68 44
M 64 40
L 64 44 68 44 68 40 64 40
M 64 32
L 64 36 68 36 68 32 64 32
M 72 32
L 72 28 68 28 68 32 72 32
M 80 36
L 76 36 76 40 80 40 80 36
M 72 32
L 72 36 76 36 76 32 72 32
M 80 28
L 76 28 76 32 80 32 80 28
M 52 48
L 48 48 48 52 52 52 52 48
M 60 36
L 60 40 64 40 64 36 60 36
M 60 44
L 60 48 64 48 64 44 60 44
M 60 48
L 56 48 56 52 60 52 60 48
M 52 44
L 52 48 56 48 56 44 52 44
M 60 40
L 56 40 56 44 60 44 60 40
M 44 44
L 44 40 40 40 40 44 44 44
M 48 40
L 48 44 52 44 52 40 48 40
M 48 48
L 48 44 44 44 44 48 48 48
M 44 36
L 44 32 40 32 40 36 44 36
M 48 36
L 44 36 44 40 48 40 48 36
M 48 28
L 44 28 44 32 48 32 48 28
M 56 36
L 52 36 52 40 56 40 56 36
M 60 28
L 60 32 64 32 64 28 60 28
M 52 32
L 56 32 56 28 52 28 52 32
M 56 32
L 56 36 60 36 60 32 56 32
M 52 36
L 52 32 48 32 48 36 52 36
M 52 24
L 48 24 48 28 52 28 52 24
M 60 24
L 56 24 56 28 60 28 60 24
M 52 20
L 52 24 56 24 56 20 52 20
M 60 16
L 56 16 56 20 60 20 60 16
M 44 20
L 44 16 40 16 40 20 44 20
M 48 16
L 48 20 52 20 52 16 48 16
M 48 24
L 48 20 44 20 44 24 48 24
M 44 12
L 44 8 40 8 40 12 44 12
M 48 12
L 44 12 44 16 48 16 48 12
M 48 8
L 48 4 44 4 44 8 48 8
M 56 8
L 56 4 52 4 52 8 56 8
M 56 12
L 52 12 52 16 56 16 56 12
M 56 8
L 56 12 60 12 60 8 56 8
M 52 12
L 52 8 48 8 48 12 52 12
M 64 16
L 64 12 60 12 60 16 64 16
M 72 16
L 72 12 68 12 68 16 72 16
M 76 24
L 72 24 72 28 76 28 76 24
M 72 16
L 72 20 76 20 76 16 72 16
M 76 24
L 80 24 80 20 76 20 76 24
M 68 20
L 68 24 72 24 72 20 68 20
M 68 20
L 68 16 64 16 64 20 68 20
M 64 24
L 64 20 60 20 60 24 64 24
M 68 24
L 64 24 64 28 68 28 68 24
M 64 8
L 64 4 60 4 60 8 64 8
M 68 12
L 68 8 64 8 64 12 68 12
M 84 52
L 84 48 80 48 80 52 84 52
M 84 76
L 84 72 80 72 80 76 84 76
M 84 68
L 84 64 80 64 80 68 84 68
M 88 64
L 88 68 92 68 92 64 88 64
M 88 72
L 88 68 84 68 84 72 88 72
M 84 60
L 84 56 80 56 80 60 84 60
M 88 60
L 84 60 84 64 88 64 88 60
M 88 52
L 84 52 84 56 88 56 88 52
M 96 60
L 92 60 92 64 96 64 96 60
M 92 60
L 92 56 88 56 88 60 92 60
M 92 56
L 96 56 96 52 92 52 92 56
M 84 28
L 84 24 80 24 80 28 84 28
M 92 48
L 88 48 88 52 92 52 92 48
M 92 48
L 96 48 96 44 92 44 92 48
M 84 44
L 84 40 80 40 80 44 84 44
M 88 40
L 88 44 92 44 92 40 88 40
M 88 48
L 88 44 84 44 84 48 88 48
M 84 36
L 84 32 80 32 80 36 84 36
M 88 36
L 84 36 84 40 88 40 88 36
M 88 32
L 88 28 84 28 84 32 88 32
M 92 36
L 92 32 88 32 88 36 92 36
M 96 36
L 92 36 92 40 96 40 96 36 Z"/>
</g>
</defs>

<g transform="matrix( 1, 0, 0, 1, 0,0) ">
<use xlink:href="#Layer2_0_FILL"/>
</g>

<g transform="matrix( 1, 0, 0, 1, 0,0) ">
<use xlink:href="#Layer1_0_FILL"/>
</g>
</svg>
