
<svg xmlns="http://www.w3.org/2000/svg" version="1.1" xmlns:xlink="http://www.w3.org/1999/xlink" preserveAspectRatio="none" x="0px" y="0px" width="100px" height="100px" viewBox="0 0 100 100">
<defs>
<g id="Layer2_0_FILL">
<path fill="#0000FF" stroke="none" d="
M 50.2 100
L 50.15 99.9 50.2 99.85 49.8 99.85 49.85 99.9 49.8 100 50.2 100
M 0 50.2
L 0.05 50.15 0.15 50.2 0.15 49.8 0.05 49.85 0 49.8 0 50.2
M 49.8 0
L 49.85 0.05 49.8 0.15 50.2 0.15 50.15 0.05 50.2 0 49.8 0
M 99.85 50.2
L 99.9 50.15 100 50.2 100 49.8 99.95 49.85 99.9 49.85 99.85 49.8 99.85 50.2 Z"/>
</g>

<g id="Layer1_0_FILL">
<path fill="#000000" stroke="none" d="
M 96.1 34.75
L 89.9 34.75 89.9 22.45 83.8 22.45 83.8 16.35 77.65 16.35 77.65 10.2 65.4 10.2 65.4 4.1 34.75 4.1 34.75 10.2 22.45 10.2 22.45 16.35 16.35 16.35 16.35 22.45 10.2 22.45 10.2 34.75 4.1 34.75 4.1 65.4 10.2 65.4 10.2 77.65 16.35 77.65 16.35 83.8 22.45 83.8 22.45 89.9 34.75 89.9 34.75 96.1 65.4 96.1 65.4 89.9 77.65 89.9 77.65 83.8 83.8 83.8 83.8 77.65 89.9 77.65 89.9 65.4 96.1 65.4 96.1 34.75 Z"/>
</g>
</defs>

<g transform="matrix( 1, 0, 0, 1, 0,0) ">
<use xlink:href="#Layer2_0_FILL"/>
</g>

<g transform="matrix( 1, 0, 0, 1, 0,0) ">
<use xlink:href="#Layer1_0_FILL"/>
</g>
</svg>
