
<svg xmlns="http://www.w3.org/2000/svg" version="1.1" xmlns:xlink="http://www.w3.org/1999/xlink" preserveAspectRatio="none" x="0px" y="0px" width="100px" height="100px" viewBox="0 0 100 100">
<defs>
<g id="Layer2_0_FILL">
<path fill="#0000FF" stroke="none" d="
M 50.2 100
L 50.15 99.9 50.2 99.85 49.8 99.85 49.85 99.9 49.8 100 50.2 100
M 0 50.2
L 0.05 50.15 0.15 50.2 0.15 49.8 0.05 49.85 0 49.8 0 50.2
M 49.8 0
L 49.85 0.05 49.8 0.15 50.2 0.15 50.15 0.05 50.2 0 49.8 0
M 99.85 50.2
L 99.9 50.15 100 50.2 100 49.8 99.95 49.85 99.9 49.85 99.85 49.8 99.85 50.2 Z"/>
</g>

<g id="Layer1_0_FILL">
<path fill="#000000" stroke="none" d="
M 50 40
L 40 40 40 50 50 50 50 40
M 60 80
L 60 90 70 90 70 80 60 80
M 50 50
L 50 60 60 60 60 50 50 50
M 60 70
L 50 70 50 80 60 80 60 70
M 70 50
L 70 60 80 60 80 50 70 50
M 70 70
L 70 60 60 60 60 70 70 70
M 80 70
L 70 70 70 80 80 80 80 70
M 40 80
L 40 90 50 90 50 80 40 80
M 20 50
L 10 50 10 60 20 60 20 50
M 30 50
L 30 60 40 60 40 50 30 50
M 30 70
L 30 60 20 60 20 70 30 70
M 40 60
L 40 70 50 70 50 60 40 60
M 40 70
L 30 70 30 80 40 80 40 70
M 30 20
L 20 20 20 30 30 30 30 20
M 30 40
L 20 40 20 50 30 50 30 40
M 40 30
L 30 30 30 40 40 40 40 30
M 10 40
L 20 40 20 30 10 30 10 40
M 30 10
L 30 20 40 20 40 10 30 10
M 60 20
L 60 30 70 30 70 20 60 20
M 50 30
L 50 20 40 20 40 30 50 30
M 70 40
L 60 40 60 50 70 50 70 40
M 80 40
L 80 30 70 30 70 40 80 40
M 60 30
L 50 30 50 40 60 40 60 30
M 50 10
L 50 20 60 20 60 10 50 10
M 90 50
L 90 40 80 40 80 50 90 50
M 90 70
L 90 60 80 60 80 70 90 70 Z"/>
</g>
</defs>

<g transform="matrix( 1, 0, 0, 1, 0,0) ">
<use xlink:href="#Layer2_0_FILL"/>
</g>

<g transform="matrix( 1.149993896484375, 0, 0, 1.149993896484375, -7.45,-7.45) ">
<use xlink:href="#Layer1_0_FILL"/>
</g>
</svg>
