
<svg xmlns="http://www.w3.org/2000/svg" version="1.1" xmlns:xlink="http://www.w3.org/1999/xlink" preserveAspectRatio="none" x="0px" y="0px" width="100px" height="100px" viewBox="0 0 100 100">
<defs>
<g id="Layer2_0_FILL">
<path fill="#0000FF" stroke="none" d="
M 50.2 100
L 50.15 99.9 50.2 99.85 49.8 99.85 49.85 99.9 49.8 100 50.2 100
M 0 50.2
L 0.05 50.15 0.15 50.2 0.15 49.8 0.05 49.85 0 49.8 0 50.2
M 49.8 0
L 49.85 0.05 49.8 0.15 50.2 0.15 50.15 0.05 50.2 0 49.8 0
M 99.85 50.2
L 99.9 50.15 100 50.2 100 49.8 99.95 49.85 99.9 49.85 99.85 49.8 99.85 50.2 Z"/>
</g>

<g id="Layer1_0_FILL">
<path fill="#000000" stroke="none" d="
M 78 78
L 78 80 80 80 80 78 78 78
M 78 78
L 78 76 76 76 76 78 78 78
M 56 56
L 56 54 54 54 54 56 56 56
M 58 58
L 58 56 56 56 56 58 58 58
M 60 60
L 60 58 58 58 58 60 60 60
M 52 52
L 52 50 50 50 50 52 52 52
M 54 54
L 54 52 52 52 52 54 54 54
M 62 62
L 62 60 60 60 60 62 62 62
M 76 74
L 74 74 74 76 76 76 76 74
M 74 74
L 74 72 72 72 72 74 74 74
M 70 70
L 70 72 72 72 72 70 70 70
M 64 64
L 64 62 62 62 62 64 64 64
M 66 66
L 66 64 64 64 64 66 66 66
M 70 68
L 68 68 68 70 70 70 70 68
M 66 68
L 68 68 68 66 66 66 66 68
M 38 38
L 38 40 40 40 40 38 38 38
M 26 28
L 28 28 28 26 26 26 26 28
M 30 28
L 28 28 28 30 30 30 30 28
M 32 32
L 32 30 30 30 30 32 32 32
M 38 36
L 36 36 36 38 38 38 38 36
M 34 34
L 34 36 36 36 36 34 34 34
M 34 34
L 34 32 32 32 32 34 34 34
M 26 24
L 24 24 24 26 26 26 26 24
M 22 22
L 22 20 20 20 20 22 22 22
M 24 22
L 22 22 22 24 24 24 24 22
M 50 48
L 48 48 48 50 50 50 50 48
M 46 46
L 46 48 48 48 48 46 46 46
M 44 44
L 44 46 46 46 46 44 44 44
M 44 42
L 42 42 42 44 44 44 44 42
M 42 42
L 42 40 40 40 40 42 42 42 Z"/>
</g>
</defs>

<g transform="matrix( 1, 0, 0, 1, 0,0) ">
<use xlink:href="#Layer2_0_FILL"/>
</g>

<g transform="matrix( 1, 0, 0, 1, 0,0) ">
<use xlink:href="#Layer1_0_FILL"/>
</g>
</svg>
