
<svg xmlns="http://www.w3.org/2000/svg" version="1.1" xmlns:xlink="http://www.w3.org/1999/xlink" preserveAspectRatio="none" x="0px" y="0px" width="100px" height="100px" viewBox="0 0 100 100">
<defs>
<g id="Layer2_0_FILL">
<path fill="#0000FF" stroke="none" d="
M 50.2 100
L 50.15 99.9 50.2 99.85 49.8 99.85 49.85 99.9 49.8 100 50.2 100
M 0 50.2
L 0.05 50.15 0.15 50.2 0.15 49.8 0.05 49.85 0 49.8 0 50.2
M 49.8 0
L 49.85 0.05 49.8 0.15 50.2 0.15 50.15 0.05 50.2 0 49.8 0
M 99.85 50.2
L 99.9 50.15 100 50.2 100 49.8 99.95 49.85 99.9 49.85 99.85 49.8 99.85 50.2 Z"/>
</g>

<g id="Layer1_0_FILL">
<path fill="#000000" stroke="none" d="
M 40.8 53.1
L 40.8 46.95 34.7 46.95 34.7 53.1 40.8 53.1
M 65.35 71.5
L 59.2 71.5 59.2 77.6 65.35 77.6 65.35 71.5
M 71.5 83.75
L 71.5 77.6 65.35 77.6 65.35 83.75 71.5 83.75
M 77.6 83.75
L 71.5 83.75 71.5 89.9 77.6 89.9 77.6 83.75
M 59.2 83.75
L 59.2 89.9 65.35 89.9 65.35 83.75 59.2 83.75
M 46.95 89.9
L 53.1 89.9 53.1 83.75 46.95 83.75 46.95 89.9
M 53.1 89.9
L 53.1 96 59.2 96 59.2 89.9 53.1 89.9
M 40.8 89.9
L 40.8 96 46.95 96 46.95 89.9 40.8 89.9
M 40.8 83.75
L 46.95 83.75 46.95 77.6 40.8 77.6 40.8 83.75
M 53.1 83.75
L 59.2 83.75 59.2 77.6 53.1 77.6 53.1 83.75
M 53.1 71.5
L 46.95 71.5 46.95 77.6 53.1 77.6 53.1 71.5
M 53.1 65.35
L 53.1 59.2 46.95 59.2 46.95 65.35 53.1 65.35
M 59.2 71.5
L 59.2 65.35 53.1 65.35 53.1 71.5 59.2 71.5
M 40.8 65.35
L 40.8 71.5 46.95 71.5 46.95 65.35 40.8 65.35
M 40.8 59.2
L 46.95 59.2 46.95 53.1 40.8 53.1 40.8 59.2
M 53.1 53.1
L 53.1 59.2 59.2 59.2 59.2 53.1 53.1 53.1
M 65.35 65.35
L 65.35 59.2 59.2 59.2 59.2 65.35 65.35 65.35
M 77.6 71.5
L 71.5 71.5 71.5 77.6 77.6 77.6 77.6 71.5
M 65.35 65.35
L 65.35 71.5 71.5 71.5 71.5 65.35 65.35 65.35
M 71.5 59.2
L 71.5 53.1 65.35 53.1 65.35 59.2 71.5 59.2
M 77.6 59.2
L 71.5 59.2 71.5 65.35 77.6 65.35 77.6 59.2
M 34.7 71.5
L 34.7 77.6 40.8 77.6 40.8 71.5 34.7 71.5
M 34.7 83.75
L 34.7 89.9 40.8 89.9 40.8 83.75 34.7 83.75
M 28.55 83.75
L 22.4 83.75 22.4 89.9 28.55 89.9 28.55 83.75
M 34.7 83.75
L 34.7 77.6 28.55 77.6 28.55 83.75 34.7 83.75
M 16.3 77.6
L 16.3 83.75 22.4 83.75 22.4 77.6 16.3 77.6
M 16.3 71.5
L 10.15 71.5 10.15 77.6 16.3 77.6 16.3 71.5
M 10.15 59.2
L 10.15 53.1 4 53.1 4 59.2 10.15 59.2
M 16.3 59.2
L 10.15 59.2 10.15 65.35 16.3 65.35 16.3 59.2
M 34.7 59.2
L 34.7 65.35 40.8 65.35 40.8 59.2 34.7 59.2
M 28.55 65.35
L 28.55 71.5 34.7 71.5 34.7 65.35 28.55 65.35
M 28.55 71.5
L 22.4 71.5 22.4 77.6 28.55 77.6 28.55 71.5
M 22.4 71.5
L 22.4 65.35 16.3 65.35 16.3 71.5 22.4 71.5
M 22.4 59.2
L 22.4 53.1 16.3 53.1 16.3 59.2 22.4 59.2
M 28.55 59.2
L 22.4 59.2 22.4 65.35 28.55 65.35 28.55 59.2
M 34.7 59.2
L 34.7 53.1 28.55 53.1 28.55 59.2 34.7 59.2
M 28.55 40.8
L 28.55 46.95 34.7 46.95 34.7 40.8 28.55 40.8
M 28.55 46.95
L 22.4 46.95 22.4 53.1 28.55 53.1 28.55 46.95
M 28.55 34.7
L 22.4 34.7 22.4 40.8 28.55 40.8 28.55 34.7
M 34.7 34.7
L 34.7 28.55 28.55 28.55 28.55 34.7 34.7 34.7
M 16.3 46.95
L 10.15 46.95 10.15 53.1 16.3 53.1 16.3 46.95
M 16.3 40.8
L 16.3 46.95 22.4 46.95 22.4 40.8 16.3 40.8
M 4 40.8
L 4 46.95 10.15 46.95 10.15 40.8 4 40.8
M 16.3 34.7
L 10.15 34.7 10.15 40.8 16.3 40.8 16.3 34.7
M 16.3 28.55
L 16.3 34.7 22.4 34.7 22.4 28.55 16.3 28.55
M 16.3 22.4
L 10.15 22.4 10.15 28.55 16.3 28.55 16.3 22.4
M 28.55 16.3
L 28.55 22.4 34.7 22.4 34.7 16.3 28.55 16.3
M 28.55 22.4
L 22.4 22.4 22.4 28.55 28.55 28.55 28.55 22.4
M 22.4 22.4
L 22.4 16.3 16.3 16.3 16.3 22.4 22.4 22.4
M 28.55 10.15
L 22.4 10.15 22.4 16.3 28.55 16.3 28.55 10.15
M 65.35 46.95
L 59.2 46.95 59.2 53.1 65.35 53.1 65.35 46.95
M 40.8 28.55
L 40.8 22.4 34.7 22.4 34.7 28.55 40.8 28.55
M 65.35 22.4
L 59.2 22.4 59.2 28.55 65.35 28.55 65.35 22.4
M 77.6 46.95
L 71.5 46.95 71.5 53.1 77.6 53.1 77.6 46.95
M 65.35 40.8
L 65.35 46.95 71.5 46.95 71.5 40.8 65.35 40.8
M 71.5 34.7
L 71.5 28.55 65.35 28.55 65.35 34.7 71.5 34.7
M 77.6 34.7
L 71.5 34.7 71.5 40.8 77.6 40.8 77.6 34.7
M 53.1 46.95
L 46.95 46.95 46.95 53.1 53.1 53.1 53.1 46.95
M 40.8 40.8
L 40.8 34.7 34.7 34.7 34.7 40.8 40.8 40.8
M 59.2 34.7
L 59.2 40.8 65.35 40.8 65.35 34.7 59.2 34.7
M 53.1 40.8
L 53.1 34.7 46.95 34.7 46.95 40.8 53.1 40.8
M 59.2 40.8
L 53.1 40.8 53.1 46.95 59.2 46.95 59.2 40.8
M 46.95 40.8
L 40.8 40.8 40.8 46.95 46.95 46.95 46.95 40.8
M 40.8 28.55
L 40.8 34.7 46.95 34.7 46.95 28.55 40.8 28.55
M 59.2 28.55
L 53.1 28.55 53.1 34.7 59.2 34.7 59.2 28.55
M 53.1 22.4
L 46.95 22.4 46.95 28.55 53.1 28.55 53.1 22.4
M 40.8 16.3
L 40.8 10.15 34.7 10.15 34.7 16.3 40.8 16.3
M 53.1 10.15
L 46.95 10.15 46.95 16.3 53.1 16.3 53.1 10.15
M 59.2 22.4
L 59.2 16.3 53.1 16.3 53.1 22.4 59.2 22.4
M 46.95 16.3
L 40.8 16.3 40.8 22.4 46.95 22.4 46.95 16.3
M 40.8 10.15
L 46.95 10.15 46.95 4 40.8 4 40.8 10.15
M 53.1 10.15
L 59.2 10.15 59.2 4 53.1 4 53.1 10.15
M 65.35 16.3
L 65.35 10.15 59.2 10.15 59.2 16.3 65.35 16.3
M 77.6 22.4
L 71.5 22.4 71.5 28.55 77.6 28.55 77.6 22.4
M 65.35 16.3
L 65.35 22.4 71.5 22.4 71.5 16.3 65.35 16.3
M 77.6 10.15
L 71.5 10.15 71.5 16.3 77.6 16.3 77.6 10.15
M 83.75 83.75
L 83.75 77.6 77.6 77.6 77.6 83.75 83.75 83.75
M 83.75 71.5
L 83.75 65.35 77.6 65.35 77.6 71.5 83.75 71.5
M 89.9 71.5
L 83.75 71.5 83.75 77.6 89.9 77.6 89.9 71.5
M 89.9 59.2
L 83.75 59.2 83.75 65.35 89.9 65.35 89.9 59.2
M 83.75 59.2
L 83.75 53.1 77.6 53.1 77.6 59.2 83.75 59.2
M 96 59.2
L 96 53.1 89.9 53.1 89.9 59.2 96 59.2
M 89.9 46.95
L 83.75 46.95 83.75 53.1 89.9 53.1 89.9 46.95
M 83.75 46.95
L 83.75 40.8 77.6 40.8 77.6 46.95 83.75 46.95
M 89.9 40.8
L 89.9 46.95 96 46.95 96 40.8 89.9 40.8
M 89.9 34.7
L 83.75 34.7 83.75 40.8 89.9 40.8 89.9 34.7
M 83.75 34.7
L 83.75 28.55 77.6 28.55 77.6 34.7 83.75 34.7
M 89.9 22.4
L 83.75 22.4 83.75 28.55 89.9 28.55 89.9 22.4
M 83.75 22.4
L 83.75 16.3 77.6 16.3 77.6 22.4 83.75 22.4 Z"/>
</g>
</defs>

<g transform="matrix( 1, 0, 0, 1, 0,0) ">
<use xlink:href="#Layer2_0_FILL"/>
</g>

<g transform="matrix( 1, 0, 0, 1, 0,0) ">
<use xlink:href="#Layer1_0_FILL"/>
</g>
</svg>
