
<svg xmlns="http://www.w3.org/2000/svg" version="1.1" xmlns:xlink="http://www.w3.org/1999/xlink" preserveAspectRatio="none" x="0px" y="0px" width="100px" height="100px" viewBox="0 0 100 100">
<defs>
<g id="Layer2_0_FILL">
<path fill="#0000FF" stroke="none" d="
M 50.2 100
L 50.15 99.9 50.2 99.85 49.8 99.85 49.85 99.9 49.8 100 50.2 100
M 0 50.2
L 0.05 50.15 0.15 50.2 0.15 49.8 0.05 49.85 0 49.8 0 50.2
M 49.8 0
L 49.85 0.05 49.8 0.15 50.2 0.15 50.15 0.05 50.2 0 49.8 0
M 99.85 50.2
L 99.9 50.15 100 50.2 100 49.8 99.95 49.85 99.9 49.85 99.85 49.8 99.85 50.2 Z"/>
</g>

<g id="Layer1_0_FILL">
<path fill="#000000" stroke="none" d="
M 90 70
L 90 30 80 30 80 20 70 20 70 10 30 10 30 20 20 20 20 30 10 30 10 70 20 70 20 80 30 80 30 90 70 90 70 80 80 80 80 70 90 70 Z"/>
</g>
</defs>

<g transform="matrix( 1, 0, 0, 1, 0,0) ">
<use xlink:href="#Layer2_0_FILL"/>
</g>

<g transform="matrix( 1.149993896484375, 0, 0, 1.149993896484375, -7.45,-7.45) ">
<use xlink:href="#Layer1_0_FILL"/>
</g>
</svg>
