
<svg xmlns="http://www.w3.org/2000/svg" version="1.1" xmlns:xlink="http://www.w3.org/1999/xlink" preserveAspectRatio="none" x="0px" y="0px" width="100px" height="100px" viewBox="0 0 100 100">
<defs>
<g id="Layer1_0_MEMBER_0_MEMBER_0_FILL">
<path fill="#000000" stroke="none" d="
M 66.5 22.6
Q 66 21.1 65.4 20.1 64.85 19.2 63.15 18.5 61.3 17.7 60.6 16.8 59.35 11.75 55.1 8.95 54.65 8.65 53.35 7 52.35 5.65 51.15 5.4 49.65 5.15 48.25 6.1 46.7 7.45 45.9 8.05 45.7 8.25 45.25 8.35 44.75 8.45 44.4 8.55 42.05 7.5 40.8 7.05 35.6 5.2 32.45 7.25 29.3 9.35 29.1 14.75 28.9 19.8 28.85 27.1 28.8 31.25 28.75 39.45
L 28.75 50.9
Q 31.1 53.85 31.45 55.15 31.8 56.4 31.7 61.05
L 34.15 63.75
Q 34.4 64.65 34.25 66.85 34.15 68.65 34.75 69.65
L 37.85 70.9
Q 38.1 72 38.75 74.15 39.3 76.1 39.25 77.45 39.1 80.55 40.7 82.85 41.95 84.65 44.5 86.15 45.7 87.5 46.25 90.2 46.8 93 47.55 93.9 48.75 94.5 50.45 94.1 52.55 93.6 53.15 93.7 53.2 93.7 55.8 94.4 57.35 94.85 58.5 94.6 61.4 93.05 62.25 89.45 62.75 85.2 63.35 83.3 64.75 82.85 64.85 82.9 66.8 83.45 67.15 83.5 68.45 83.65 69.4 82.75 71 81.25 71.1 78.4 71.25 75.4 71.2 72.95 71.2 57.05 71.15 55.05 71 46.35 70.25 40 69.35 31.9 67.3 25.2 66.8 23.45 66.5 22.6 Z"/>
</g>

<g id="Layer1_0_MEMBER_0_MEMBER_1_FILL">
<path fill="#000000" stroke="none" d="
M 38.1 86
Q 37.8 84.2 36.05 83.2 36.1 85.55 36.3 86.35 36.7 88 38.3 89.65 38.3 87.05 38.1 86 Z"/>
</g>
</defs>

<g transform="matrix( 1.737335205078125, 0, 0, 1.054840087890625, -36.85,-2.75) ">
<use xlink:href="#Layer1_0_MEMBER_0_MEMBER_0_FILL"/>
</g>

<g transform="matrix( 1.737335205078125, 0, 0, 1.054840087890625, -36.85,-2.75) ">
<use xlink:href="#Layer1_0_MEMBER_0_MEMBER_1_FILL"/>
</g>
</svg>
