
<svg xmlns="http://www.w3.org/2000/svg" version="1.1" xmlns:xlink="http://www.w3.org/1999/xlink" preserveAspectRatio="none" x="0px" y="0px" width="100px" height="100px" viewBox="0 0 100 100">
<defs>
<g id="Layer1_0_MEMBER_0_FILL">
<path fill="#000000" stroke="none" d="
M 72.9 21.1
Q 72.05 20.45 70.95 20.4 69.8 20.45 69.25 20.4
L 65.4 19.85
Q 64.1 21.45 63.75 21.75 62.8 22.65 61.65 22.8 58 23.2 56.6 23.15 53.75 23.15 51.6 22.15 51.6 21.9 51.7 16.25 51.75 12.85 50.65 10.85 49.85 10.3 48.2 10.7 46.65 11.1 45.9 10.35
L 45.55 6.45
Q 44.2259765625 6.466796875 43.75 6.8 39.55 9.9 37.45 11.45 33.7 14.2 31.4 16.5 28.7 19.3 27.8 22.15 26.5 26.1 23.7 33.1 22.45 36.35 22.35 39.75 22 48.2 24.2 60.25 24.55 62.1 26.4 66.7 27.4 68.95 29.5 69 30.8 68.55 32.05 66.8 33.5 64.75 34.2 64.25 34.6 64.3 36.2 63.85 37.5 63.5 38.5 63.95 38.45 70 40.75 77.9 41.35 79.9 41.9 85.3 42.4 90 43.5 92.5 44.6 93.35 45.5 93.6 46.6 93.9 47.95 93.55 50.55 89.6 54.9 88 57.05 87.25 58.85 83.45 59.1 82.2 59.3 81.55 59.55 80.45 60.6 80.1 61.05 80.35 63.35 82.6 64.95 84.15 66.7 84.05 69.3 83.2 70.75 79.65 72.25 76.05 73 74.25 74.25 71.1 74.9 68.8 76.2 64.65 76.7 62.55 77.65 58.95 77.6 56.1 77.65 46.95 77.65 42.35 77.65 40.4 77.65 40.3 77.55 39.15 77 38.4 76.1 37.2 75.8 35.55 75.65 34.6 75.65 32.5 75.65 31.1 75.6 30.4 75.5 29.2 75.1 28.5 73.75 26.1 72.9 21.1 Z"/>
</g>
</defs>

<g transform="matrix( 1.332427978515625, 0, 0, 1.07958984375, -16.6,-3.95) ">
<use xlink:href="#Layer1_0_MEMBER_0_FILL"/>
</g>
</svg>
