
<svg xmlns="http://www.w3.org/2000/svg" version="1.1" xmlns:xlink="http://www.w3.org/1999/xlink" preserveAspectRatio="none" x="0px" y="0px" width="100px" height="100px" viewBox="0 0 100 100">
<defs>
<g id="Layer1_0_MEMBER_0_MEMBER_0_FILL">
<path fill="#000000" stroke="none" d="
M 62.5 23.7
Q 62.8 21.5 62.45 20.2 61.4 20.1 60.8 21.05 59.9 22.7 59.6 24.85 59.4 26.25 59.4 28.85 59.4 31.3 57.45 31.55
L 54.7 29.25
Q 52.85 30.2 51.95 30.6 50.3 31.3 48.9 30.45 48.3 30.05 47.5 30.3 47.05 30.45 46.05 31
L 40.85 33.9
Q 39.1 33.6 38.3 33.45 36.85 33.2 35.95 32.55 35.65 40.8 36.8 49.1 37.25 51.8 37.1 54.55 36.7 62 39.75 68.3 40.8 70.5 42.45 70.6 42.95 70.65 43.9 70.55 44.75 70.55 45.2 71.1 46.05 72.7 47.05 76.3 48.35 79.25 51.55 79.85 53.35 78.9 54.2 78.45 55.65 77.65 56.7 77.25 57.6 76.85 58.5 76.05 59.45 75.05 59.95 74.55 61.55 72.95 62.15 70.5 62.4 69.35 62.75 65.95 62.8 65.25 62.95 61.9 63.05 59.45 63.35 57.95 63.75 55.7 63.95 51.2 64.3 46 63.35 39.85 62.7 35.55 61.05 28.65 61.25 28.45 61.75 28 62.15 27.6 62.1 27.3 62.05 26.45 62.5 23.7 Z"/>
</g>
</defs>

<g transform="matrix( 2.619873046875, 0, 0, 1.580047607421875, -80.95,-29) ">
<use xlink:href="#Layer1_0_MEMBER_0_MEMBER_0_FILL"/>
</g>
</svg>
