
<svg xmlns="http://www.w3.org/2000/svg" version="1.1" xmlns:xlink="http://www.w3.org/1999/xlink" preserveAspectRatio="none" x="0px" y="0px" width="100px" height="100px" viewBox="0 0 100 100">
<defs>
<g id="Layer1_0_MEMBER_0_FILL">
<path fill="#000000" stroke="none" d="
M 64.3 22.4
L 61.65 19.45
Q 58.15 22.75 57.05 23.45 55.95 24.15 52.9 25.05 51.75 24.55 51.2 23 50.45 20.85 50.2 20.5 49.45 19.4 47.8 19.35 45.75 19.2 45.25 18.9 44.4 18.45 43.75 17.55 42.65 15.55 42 14.65 41.9 14.45 41.5 14.4 41.05 14.35 40.85 14.3
L 38.9 16.6
Q 38.15 17 36.25 16.8 34.6 16.65 33.6 17.55 32.7 18.45 32.6 18.7 30.65 23.3 30.45 29.8 30.3 33.55 30.5 41.05 30.5 41.1 30.8 41.7 31.85 43.65 33.1 48.8 34.25 53.45 35.85 55.8 36.2 56.35 36.35 57.35 36.4 57.95 36.5 59.1 36.55 59.35 36.7 61.15 36.85 62.4 37.05 63.15 37.6 65.25 39.6 64.85
L 41.3 62
Q 41.35 61.9 42.35 62.1 42.75 63.75 43.3 67.2 43.9 70.25 44.8 72.3 46.2 75.7 46.45 76.35 47.2 78.7 47.15 80.75 47.1 82.1 48.2 83.2 49.15 84.1 50.65 84.55 51.85 84.95 56.1 85.75 57.25 85.5 57.75 84.15 58.3 82.75 58.9 82.6 61.1 81.95 62.85 79.65 65.35 76.4 65.45 76.3 67.2 70.35 67.85 63.8 68.3 58.6 68.15 51.75 68.05 48.55 68.45 42.15 68.45 41.8 69.5 27.1 69.75 23.75 68.85 21 68.3 19.4 66.95 19.4 66.35 19.65 65.75 20.95 65.15 22.15 64.3 22.4 Z"/>
</g>
</defs>

<g transform="matrix( 1.8837738037109375, 0, 0, 1.319091796875, -44.15,-15.95) ">
<use xlink:href="#Layer1_0_MEMBER_0_FILL"/>
</g>
</svg>
