
<svg xmlns="http://www.w3.org/2000/svg" version="1.1" xmlns:xlink="http://www.w3.org/1999/xlink" preserveAspectRatio="none" x="0px" y="0px" width="100px" height="100px" viewBox="0 0 100 100">
<defs>
<g id="Layer1_0_MEMBER_0_FILL">
<path fill="#000000" stroke="none" d="
M 57.5 21.1
Q 57.35 20.15 56.05 19.95 54.7 19.7 54.1 20.5 53.75 20.95 51.1 24.85 50.15 24.7 49.65 24.65 48.75 24.6 47.95 25.25 47.4 26.25 47.05 26.9 46.45 28.1 46.15 29 45.85 29.9 44.3 36.3 43.8 38.6 43.4 39.5 42.7 41.2 41.4 42.05
L 39.55 41.2
Q 39.35 41.95 39 43.35 38.65 44.6 38.3 45.3 38.05 45.85 37.85 47.1 37.55 48.15 36.6 48.5 35.95 47.15 36.25 44.15 36.5 41.2 35.75 39.7 32.4 49.5 31.95 52.7 31.55 55.9 32.65 61.95 33.9 63.2 36.65 65.55 39 67.7 40.15 69.7 40.35 70.05 42.3 74.8 43.6 78 45.6 79.8
L 50.4 80.15
Q 57.15 80.3 59.45 74.3 59.9 73.15 60.45 71.4 61.3 68.65 61.35 68.4 62.25 65.55 64.2 64.8 66.85 63.75 67.6 60 69.3 51.35 65.55 41.35 65.45 41.15 65.05 41 64.6 40.85 64.4 40.75 63.6 41.1 63.2 41.9 63.05 42.15 62.65 43.45 62.5 43.9 62.5 44.9 62.35 45.75 61.35 45.85 60.85 44.9 60.85 44.5 60.75 42.2 60.7 41.05 60.6 39 60.8 37.65 61.35 34.15 59.85 29.25 57.65 22 57.5 21.1
M 54.85 26
Q 55.65 27.3 54.8 28.35 53.55 27.25 54.85 26
M 47.8 30.05
L 48.15 30.1
Q 48.35 30.45 48.25 30.7 48.2 30.9 47.9 31.2
L 47.8 30.05 Z"/>
</g>
</defs>

<g transform="matrix( 2.03167724609375, 0, 0, 1.5643157958984375, -51.55,-28.25) ">
<use xlink:href="#Layer1_0_MEMBER_0_FILL"/>
</g>
</svg>
