
<svg xmlns="http://www.w3.org/2000/svg" version="1.1" xmlns:xlink="http://www.w3.org/1999/xlink" preserveAspectRatio="none" x="0px" y="0px" width="100px" height="100px" viewBox="0 0 100 100">
<defs>
<g id="Layer1_0_MEMBER_0_MEMBER_0_FILL">
<path fill="#000000" stroke="none" d="
M 67 24.55
Q 66.1 21.9 64.15 20.2 63.8 19.9 63.5 19.2 63 18.1 62.95 18.05 61.65 15.55 58.95 15.7 56.3 15.7 55 15.75 52.7 15.85 51.05 16.45 49.85 15.5 49.2 15.05 48.2 14.35 47.2 14.4 43.85 14.45 41.75 15 38.95 15.75 36.95 17.7 33.3 21.3 30.15 23 27.5 24.35 27.15 28.1 26.8 32.05 26.8 34.85 26.8 40 27 41.85 27.45 45.7 29.15 48.25 28.95 50.9 28.6 55.4 28.4 58.35 29.5 59.5 30.3 60.35 30.85 62.25 31.4 64.25 31.95 65 33.3 65.15 36 65.05 38.35 65.1 39.9 66
L 41.35 69.6
Q 42.05 70.1 43.65 69.75 45.05 69.5 45.75 70.3 46.15 71.85 45.25 75.35 44.45 78.7 45.2 80.65
L 47 76.7 50.3 75.35 51.05 72
Q 54 72.95 56.6 72.05 58.95 71.3 61.35 68.95
L 62.3 64.65 66.2 61.5
Q 67.05 61.7 68.65 62.1 70.1 62.35 71.3 61.95 71.35 61.25 71.75 60.35 72.25 59.3 72.5 58.75 73.15 57.15 73.15 55.15 73.15 48.95 72.95 36.65 72.95 34.2 71.75 33.1 71.35 32.6 70.2 32.45 68.85 32.2 68.3 31.9
L 68 29.6
Q 67.7 26.45 67 24.55 Z"/>
</g>

<g id="Layer1_0_MEMBER_0_MEMBER_1_FILL">
<path fill="#000000" stroke="none" d="
M 36.7 81.35
Q 36.3 83.45 37.05 85.65 38.85 83.8 39.1 82.4 39.4 80.95 39.2 74.25 37.1 79.25 36.7 81.35 Z"/>
</g>
</defs>

<g transform="matrix( 1.591156005859375, 0, 0, 1.3227996826171875, -29.55,-16.15) ">
<use xlink:href="#Layer1_0_MEMBER_0_MEMBER_0_FILL"/>
</g>

<g transform="matrix( 1.591156005859375, 0, 0, 1.3227996826171875, -29.55,-16.15) ">
<use xlink:href="#Layer1_0_MEMBER_0_MEMBER_1_FILL"/>
</g>
</svg>
