
<svg xmlns="http://www.w3.org/2000/svg" version="1.1" xmlns:xlink="http://www.w3.org/1999/xlink" preserveAspectRatio="none" x="0px" y="0px" width="100px" height="100px" viewBox="0 0 100 100">
<defs>
<g id="Layer1_0_MEMBER_0_FILL">
<path fill="#000000" stroke="none" d="
M 69.9 24.3
Q 69.05 20.9 66.4 18.5 65.9 18.05 65.45 17.2 65 16.4 64.85 16.15 63.65 15.25 61.5 15.15 59.25 15.05 58.5 14.6 56.05 11.45 54.75 10.85 53.5 10.25 48.3 9.7 47.75 15.7 47.65 18.2 47.45 22.95 47.85 26.75 48.1 28.85 49.35 35.15 50.4 40.4 50.5 43.75 48.45 43.65 46.2 40.75 44.05 38 41.6 38.2 40.85 41.05 40.45 41.75 39.45 43.5 37.15 43.65
L 33.8 42
Q 33 42.6 32.85 43.55 32.75 44.15 32.7 45.25 32.45 47.35 31.85 47.65 30.1 48.55 29.8 50.3 29.65 51.1 29.85 53.65 31.05 67.2 31.3 72.1 31.5 76.4 34.8 81.6 35 81.9 35.85 82.6 36.5 83.2 36.6 83.6 37.1 86.55 39.35 88.2 40.55 89.1 43.75 90.35 45.4 90.25 46.75 88.7 48.25 86.95 49.05 86.7
L 52.65 87.9
Q 54.05 87.45 55 85.65 56 83.6 56.7 83.15 60.45 85.85 61.85 86.4 63.2 87 67.7 87.65 69.6 86.55 69.5 84.15 69.4 80.85 68.65 67.15
L 66.4 66.3
Q 66.05 64.45 65.85 63.75 65 60.6 65.05 59.1 65.1 56.6 67.05 54.8 67.55 54.35 67.65 52.9
L 70.05 31.05
Q 70.5 27 69.9 24.3 Z"/>
</g>
</defs>

<g transform="matrix( 1.82098388671875, 0, 0, 1.1686248779296875, -41,-8.45) ">
<use xlink:href="#Layer1_0_MEMBER_0_FILL"/>
</g>
</svg>
