
<svg xmlns="http://www.w3.org/2000/svg" version="1.1" xmlns:xlink="http://www.w3.org/1999/xlink" preserveAspectRatio="none" x="0px" y="0px" width="100px" height="100px" viewBox="0 0 100 100">
<defs>
<g id="Layer1_0_MEMBER_0_FILL">
<path fill="#000000" stroke="none" d="
M 65.45 15.15
Q 65.05 10.9 61.55 8.05 60.55 8 55.15 8.15 51.1 8.2 48.5 7.75 47.5 8.25 45.55 10 44.05 11.4 42.85 11.45 41.05 11.55 39.65 12.6 38.55 13.45 37.3 15.25
L 34.3 15.25
Q 32.55 15.35 31.55 16.5 28.05 20.35 26.45 23.4 24.3 27.4 24.35 31.7 24.5 43.05 24.55 45.25 24.65 48.3 24.6 49.6 24.5 52 23.85 53.8 22.15 58.8 22.55 65.4 22.8 69.25 23.9 76.95 24.1 78.5 24.8 80.55 25.55 82.7 26.3 83.85 27.4 85.4 29.05 85.95 29.85 86 31.25 85.25 32.5 84.6 33.35 84.75 34.2 85.15 35.8 85.95 37.3 86.7 38.35 86.95 41.05 87.65 43.2 87.15 44.25 86.9 45.65 86.15 47.3 85.25 48.1 84.8 48.8 85.6 49.8 88.9 50.55 91.5 52.45 92.3 54.85 91.7 55.65 89.8 56.05 88.8 57.3 88.5 59 88.1 59.25 87.95 59.6 87.6 60.25 86 60.8 84.7 61.6 84.4 63.05 83.9 63.95 82.45 64.85 80.65 65.3 79.8 65.85 78.85 66.75 76.75 67.6 74.65 68.2 73.7 70.1 70.55 70.5 69.75 71.65 67.4 71.85 65.3 71.9 64.45 72.95 63.2 77.5 57.25 77.5 48.2 77.4 40.4 76.95 37.15 76.4 33.35 76.25 28.55 76.15 24.85 75 19.85 74 19.05 72.3 19.15 70.4 19.25 69.7 18.9
L 68.15 15.95 65.45 15.15 Z"/>
</g>
</defs>

<g transform="matrix( 1.339691162109375, 0, 0, 1.1147308349609375, -17,-5.75) ">
<use xlink:href="#Layer1_0_MEMBER_0_FILL"/>
</g>
</svg>
