
<svg xmlns="http://www.w3.org/2000/svg" version="1.1" xmlns:xlink="http://www.w3.org/1999/xlink" preserveAspectRatio="none" x="0px" y="0px" width="100px" height="100px" viewBox="0 0 100 100">
<defs>
<g id="Layer1_0_MEMBER_0_FILL">
<path fill="#000000" stroke="none" d="
M 72.6 22.8
Q 71.9 18.9 70.4 13.2 70.35 12.95 70.1 12.65 69.75 12.3 69.6 12.1
L 65.7 12.6
Q 61.75 5.9 53.75 5.4 53.7 5.45 52.25 7.2 51.4 8.25 50.45 8.75 44 12.2 42.6 18.55 42.5 19.05 42.15 19.8 41.7 20.55 41.5 20.9
L 38.45 22.1
Q 37.95 23 38.45 25.15 38.9 27.05 37.95 28 36.95 27.95 36 26.25 35.1 24.6 33.55 24.55 32.4 25 30.95 26.5 29.3 28.35 28.35 29.25 28 30.65 27.35 33.45 26.7 35.95 26 37.65 24.6 41.05 25.75 45.65 27.8 53.4 28.65 57.65 29.1 59.8 29.1 61.25 29.05 63.25 28.25 64.95 27.45 66.65 27.8 68.25 28.25 69.9 29.9 71 31.55 72.05 32.05 74.3 32.25 75.1 33.35 78.95 34.25 82.4 37.3 84.2 40.45 86.1 42 87.45 44.4 89.5 45.5 92.05 46.65 94.6 49.95 94.65 53.15 92.45 54.8 91.25 57.75 89.15 58.85 86.65 59.8 86.75 61.5 87.3 62.95 87.65 64.1 87.05 65.8 85.7 66.75 82.6 67.95 78.55 68.45 77.7 71.1 76.15 71.9 75.35 72.75 74.5 73.15 72.85 74.05 69.1 74.35 67.2 74.9 64.05 74.75 61.4 73.65 42.2 73.55 32.6 73.5 28.05 72.6 22.8 Z"/>
</g>
</defs>

<g transform="matrix( 1.4883880615234375, 0, 0, 1.0560150146484375, -24.45,-2.8) ">
<use xlink:href="#Layer1_0_MEMBER_0_FILL"/>
</g>
</svg>
