
<svg xmlns="http://www.w3.org/2000/svg" version="1.1" xmlns:xlink="http://www.w3.org/1999/xlink" preserveAspectRatio="none" x="0px" y="0px" width="100px" height="100px" viewBox="0 0 100 100">
<defs>
<g id="Layer1_0_MEMBER_0_FILL">
<path fill="#000000" stroke="none" d="
M 64.9 23.95
Q 61.8 23.95 60.95 23.4 60.15 22.85 59.55 20.5 59.45 18.9 59.3 18.1 59.1 16.65 58 15.9 56.75 15.75 55.75 17.55 54.7 19.35 53.5 19.15 52.7 18.7 51.75 16.75 50.85 15.05 49.7 14.75 49 14.7 48.45 15.25 47.85 15.95 47.45 16.25
L 44.8 12.2
Q 43.8 12.1 43.3 12 42.4 11.9 41.8 11.65 41.25 11.4 38.9 9.85 35.85 11.3 34.1 14.25 33 16.15 31.85 20 31.15 20.3 29.4 20.05 27.9 19.85 26.9 20.7 26.8 20.9 26 22.3 25.4 23.9 25.05 26.15 25.05 26.35 24.6 30.15 24.4 32.1 23.95 36 23.45 39.3 22.7 41.65 20.75 47.8 20.35 53.1 19.7 60.35 19.75 63.85 19.85 69.8 21.6 74.45 22 75.6 22.35 77.9 25.25 79.2 25.9 79.85 26.5 80.55 27.45 83.4 27.9 85.05 28.45 85.6 28.85 85.95 29.7 86.4 30.65 86.9 31 87.15 31.4 87.45 31.8 88.7 32.15 89.7 32.85 89.75
L 33.8 89.75
Q 34 89.6 35 88.35 35.7 87.5 36.5 87.35 38.15 87 40.55 88.35 42.2 89.2 43.35 89.6 45.8 90.6 46.95 89.75 48 88.9 49.9 89.15 52.1 89.45 52.8 89.15 53.8 88.85 54.55 87.4 55.35 85.8 56.15 85.4
L 57.75 85.6
Q 59.35 86 62.3 85.25 65.35 84.5 66.85 84.75 67.6 84.9 68.4 84.15 69.15 83.45 69.55 82.5 71.1 78.9 71.85 77.1 73.2 73.95 73.8 71.6 75.05 66.55 79.8 45.2 80 44.4 80.05 43.1 80.15 41.35 80.2 41.05
L 78.05 38.55
Q 78.55 36.15 78.7 34.95 78.9 32.55 76.85 32 74.15 33.2 73.65 33.3 71.8 33.6 70.45 31.85 69.95 30.8 70.55 28.35 71.15 26.05 70.3 24.9 69.15 24.85 68.3 25.95 67.3 27.25 66.75 27.4 66.45 27.5 66.5 27.45 66.55 27.35 66.1 27.3
L 64.9 23.95 Z"/>
</g>
</defs>

<g transform="matrix( 1.2200164794921875, 0, 0, 1.1737060546875, -11,-8.65) ">
<use xlink:href="#Layer1_0_MEMBER_0_FILL"/>
</g>
</svg>
