
<svg xmlns="http://www.w3.org/2000/svg" version="1.1" xmlns:xlink="http://www.w3.org/1999/xlink" preserveAspectRatio="none" x="0px" y="0px" width="100px" height="100px" viewBox="0 0 100 100">
<defs>
<g id="Layer1_0_MEMBER_0_FILL">
<path fill="#000000" stroke="none" d="
M 66.3 23.25
Q 65.45 22 64.45 21.85 63.8 22.45 63.45 22.7 62.8 23.15 61.95 22.95 61.75 22.6 61.4 20.8 61.15 19.3 60.3 18.5
L 53.85 14.85
Q 52.2 14.7 51.3 14.65 49.7 14.55 48.7 14.95 47.45 15.5 45.7 15.1 43.4 14.65 42.95 14.65 38.7 14.75 37.25 18.6 36.6 20.4 33.9 27.5
L 28.45 32.25
Q 27.25 38.9 24.85 46.5 23.9 49.35 23.1 55.55 22.7 58.8 22.3 65.4 22.1 68.85 22.5 70.15 23.2 72.5 26.15 73.25 26.4 73.35 26.6 73.65 28.2 76.75 32.45 78.1 32.8 78.75 33.2 81.2 33.5 83.15 34.9 84.35 41.85 85.65 55.8 85.35
L 59.7 81.9
Q 62.2 82.65 64.75 81.1 66.2 80.25 68.9 78.55
L 69.8 76.6
Q 73.45 66.05 76.4 48.45 77.75 40.75 77.75 33.75 77.75 32.65 77.65 32.3 77.5 31.55 76.8 31.35 76 31.2 75.05 32.1 74.2 33 73.4 32.7 73.05 32.1 72.9 30.05 72.8 28.3 71.9 27.4 69.15 25.75 67.8 25.05 67.2 24.75 66.3 23.25 Z"/>
</g>
</defs>

<g transform="matrix( 1.328826904296875, 0, 0, 1.3321533203125, -16.4,-16.6) ">
<use xlink:href="#Layer1_0_MEMBER_0_FILL"/>
</g>
</svg>
