
<svg xmlns="http://www.w3.org/2000/svg" version="1.1" xmlns:xlink="http://www.w3.org/1999/xlink" preserveAspectRatio="none" x="0px" y="0px" width="100px" height="100px" viewBox="0 0 100 100">
<defs>
<g id="Layer1_0_MEMBER_0_FILL">
<path fill="#000000" stroke="none" d="
M 63.9 23.6
Q 63.85 22.1 62.7 21.6
L 59.8 22.2
Q 59.25 21.7 58.55 20.1 57.95 18.65 57.1 18.2 56.5 18.1 55.9 18.4 55.25 18.85 54.85 19 53.35 19.65 52.5 19.4 51.6 19.15 50.8 17.75 50.4 16.85 50.15 16.4 49.7 15.7 48.8 15.55
L 46.2 17.7 41.55 15.4
Q 40.8 16.8 39.55 17.65 38.25 18.5 37.1 18.4 34.8 18.25 33.3 19.6 32.45 20.35 31.05 22.6 28.25 27.05 28.2 31.9 28 40.55 27.6 44.85 27.1 50.55 27.8 55.3 27.85 55.5 28.7 61.45 29.2 65.1 29.45 67.55 29.9 72.8 34.55 77.1 34.65 77.2 38.85 80.85 41.15 80.15 42.6 80.35 44.55 80.6 45.75 82.55 46.1 83.15 46.7 83.4 47.35 83.65 47.9 83.45 49 83.1 50.3 83.75 52.1 84.6 52.5 84.65 52.6 84.65 53.85 84.25
L 55.8 79.95
Q 55.95 79.9 59.6 79.45 61.85 79.15 63.05 78.25 64.35 77.3 66.1 75.65 68.05 73.8 69.1 72.85 70.45 67.3 71.05 64.45 72.05 59.4 71.6 55.55 71.3 53.25 71.6 49.75 72.05 45.85 72.15 43.9
L 72.55 36.2
Q 71.3 34.85 70.8 34.2 69.95 33.1 69.9 31.85 69.8 30.15 69.35 27.7 68.75 25 68.5 23.65 67.4 23.5 66.4 24.85 65.45 26.2 64.4 25.9 63.95 25.45 63.9 23.6 Z"/>
</g>
</defs>

<g transform="matrix( 1.6334228515625, 0, 0, 1.3610076904296875, -31.65,-18.05) ">
<use xlink:href="#Layer1_0_MEMBER_0_FILL"/>
</g>
</svg>
