
<svg xmlns="http://www.w3.org/2000/svg" version="1.1" xmlns:xlink="http://www.w3.org/1999/xlink" preserveAspectRatio="none" x="0px" y="0px" width="100px" height="100px" viewBox="0 0 100 100">
<defs>
<g id="Layer1_0_MEMBER_0_FILL">
<path fill="#000000" stroke="none" d="
M 48.2 10
Q 47.05 9.6 45.75 8.25 43.85 6.2 43.5 5.9 43.45 5.85 42.45 6.1 42.3 8.75 42.55 14.1 42.55 18.95 41.05 22.05 38.45 22.75 37.9 22.6 37.3 22.45 36.35 20.7 36.05 20.2 35.95 20.15 35.8 20 35.6 20.25 35.55 20.3 35.05 21.4 34.75 22.1 34 22.1
L 31.45 20.75 25.9 25.4
Q 25.35 27.05 23.95 33.55 22.85 38.55 21.4 41.4 20.85 42.5 20.95 45.45 21.05 52.8 21.4 56.45 22.1 63.05 23.75 66.4 25.3 69.45 28.35 75.55 31.15 80.85 33.7 84.55 34.25 84.75 35.5 85.1 36.65 85.5 37.3 85.9 38.35 86.55 40.25 88.15 42 89.45 43.75 89.45 44.35 89.45 44.75 90.3 45.65 92.3 47.65 93.1 48.8 93.6 51.6 93.95 54.75 94.35 55.85 93.75 57 93.15 58.55 90.15
L 59.5 88.25 64.15 87.4 67 81.5
Q 74.1 83.35 78.5 80 79.45 77.95 78.7 76.35 78 74.8 77.8 72.7 77.75 71.9 77.75 68.95
L 77.95 41.5
Q 78.05 40.15 78 39.45 77.9 38.3 77.2 37.6 76.65 37.4 76.55 37.4 72.4 38.15 71.65 37.8 70.45 37.15 70.5 32.8 70.5 30.5 70.4 29.35 70.3 27.95 69.15 27.85 68.4 27.85 67.9 28.65 67.4 29.65 67.05 30.05 66.4 30.9 65.85 31.2 65 31.6 63.75 31.25
L 60.2 26.15 56.8 26.5 54.35 23.65
Q 53.6 23.15 51.8 22.95 50.2 22.8 49.65 21.95 48.6 19.85 48.55 16.2 48.4 11.25 48.2 10 Z"/>
</g>
</defs>

<g transform="matrix( 1.26934814453125, 0, 0, 1.0685882568359375, -13.45,-3.4) ">
<use xlink:href="#Layer1_0_MEMBER_0_FILL"/>
</g>
</svg>
