
<svg xmlns="http://www.w3.org/2000/svg" version="1.1" xmlns:xlink="http://www.w3.org/1999/xlink" preserveAspectRatio="none" x="0px" y="0px" width="100px" height="100px" viewBox="0 0 100 100">
<defs>
<g id="Layer1_0_MEMBER_0_FILL">
<path fill="#000000" stroke="none" d="
M 57.85 21.05
Q 57.5 21.9 56.85 23.55 56.25 24.95 55.35 25.65
L 51.6 24.4 44.85 28.6 39.35 25.6
Q 38.95 27 39.55 28.9 40.3 31.1 40.25 31.9 40.2 33.25 39.45 34.85 39.05 35.75 38.15 37.55 37.65 38.8 36.4 40 35.7 40.65 34.55 41.7 33.05 46.75 32.5 52.45 32.1 56.85 32.25 63 32.25 66.85 34.75 69.05 36.15 70.3 36.3 70.5 37.15 71.35 37.5 72.3 39.05 76.4 44.5 79 44.65 78.95 47.7 77.4 49.65 76.4 51.3 76.75 53.35 77.2 55.55 76.6 57.2 76.15 59.5 74.9 60.2 73.7 60.55 73.3 67.45 66.25 67.15 56.75 67.1 54.6 67.35 51.2 67.65 46.45 67.7 45.65 67.8 42.2 67.65 40.75 67.35 38.1 66.1 36.1 65.75 35.55 65.6 34.4
L 65.35 32.5
Q 65.15 30.8 64.95 30.05 64.5 28.2 64.25 27.7 63.45 26.05 62.85 25.8 62.15 25.55 61.75 25.45 61.15 25.2 60.95 24.6 60.55 23.4 59.45 23.1 59.05 23 58.6 22.25 57.85 21.1 57.85 21.05 Z"/>
</g>
</defs>

<g transform="matrix( 2.07452392578125, 0, 0, 1.62640380859375, -53.7,-31.35) ">
<use xlink:href="#Layer1_0_MEMBER_0_FILL"/>
</g>
</svg>
