
<svg xmlns="http://www.w3.org/2000/svg" version="1.1" xmlns:xlink="http://www.w3.org/1999/xlink" preserveAspectRatio="none" x="0px" y="0px" width="100px" height="100px" viewBox="0 0 100 100">
<defs>
<g id="Layer1_0_MEMBER_0_FILL">
<path fill="#000000" stroke="none" d="
M 84.25 83.2
Q 85.35 80.65 85.25 74.65 85.2 69.2 86.85 66.5
L 85.55 64.5
Q 83.8 62.1 82.95 60.9 81.4 58.75 81.35 56.95 81.3 54.6 80.25 52.65 79.35 51.1 77.6 49.45
L 76.8 43.25
Q 74.95 42.4 74.35 41.5 73.75 40.65 71.85 36.25 72.7 30.9 72.45 28.3 72.1 24 69.15 21.15 68.8 16.15 69.8 11.3 70.05 10.25 69.9 9.6 69.7 8.65 68.75 7.85 65.95 8.05 62.55 6.95 60.7 6.35 56.75 4.55 55.7 4.8 54 6.1 52.6 7.2 51.45 7.1 50.9 6.75 49.45 4.8 48.3 3.2 46.7 2.9
L 37.65 6.1
Q 36.15 7.85 35.5 11 34.6 15.05 34.2 15.95 31.65 18.25 31.15 19.1 30.65 19.95 30.25 22.75 30.15 23.55 29.95 25.2 29.6 26.65 28.4 27.85 25.05 27.7 21.85 31.05 21.15 31.75 19.6 31.85 17.75 31.95 16.95 32.4 16.75 33.95 16.1 37.2 15.6 40.2 15.55 42.25 15.35 52.05 13.2 66.8 12.95 68.6 13.4 71.6 13.95 74.6 14.6 75.2 15.25 75.85 18.65 76.55 18.9 76.6 19.3 76.8 20 77.25 20.15 77.3 20.65 78.25 21.9 80.65 25.45 86.4 31.4 86.45 32.95 86.45 38.8 86.7 41.7 90.3 42.45 91.05 42.85 91.4 44.1 91.45 45.4 90.9 46.3 89.1 47.35 87.1 48.05 86.6
L 51.6 85.9 53 82.85
Q 53.3 82.15 54.15 81.6 55.15 81.1 55.6 80.75 56.5 80.05 57.7 78.15 59.2 75.55 60.15 74.65 61.2 73.75 64.7 71.8 65.4 74.35 65.1 75 64.8 75.65 62.25 76.65 63.55 79.35 63.35 83.9 63.25 85.8 63.5 93.5 63.6 96.15 65.15 97.05 66.2 97.35 67.2 96.75 68.25 95.95 68.8 95.55 69.15 95.3 69.9 93.9 70.5 92.8 71.4 92.65 72.5 93.25 73.7 93.1 74.6 92.95 75.95 92.3 77.45 91.6 78.15 89.65 79.2 86.65 79.4 86.35
L 84.25 83.2 Z"/>
</g>
</defs>

<g transform="matrix( 1, 0, 0, 1, 0,0) ">
<use xlink:href="#Layer1_0_MEMBER_0_FILL"/>
</g>
</svg>
