
<svg xmlns="http://www.w3.org/2000/svg" version="1.1" xmlns:xlink="http://www.w3.org/1999/xlink" preserveAspectRatio="none" x="0px" y="0px" width="100px" height="100px" viewBox="0 0 100 100">
<defs>
<g id="Layer2_0_FILL">
<path fill="#000000" stroke="none" d="
M 51.05 62.5
L 51 62.45 50.85 62.4 50.85 62.45 50.8 62.5
Q 50.7 62.65 50.85 62.75
L 51 62.85 51.1 62.8 51.2 62.8 51.2 62.65 51.15 62.55 51.05 62.5
M 46.8 61.7
L 46.8 61.75 46.75 61.9 46.75 61.95 46.8 62.05 46.9 62.15 47.05 62
Q 47.15 62.05 47.25 61.95
L 47.25 61.7
Q 47.05 61.55 47 61.55
L 46.95 61.6 46.9 61.55 46.8 61.7
M 46.45 56.95
L 46.35 57.1 46.25 57.1 46.1 57.2 46.1 57.3 45.95 57.5 46 57.65 46.05 57.7 46.05 57.8 46.25 57.8 46.3 57.85 46.45 57.85 46.5 57.75 46.45 57.65 46.7 57.55 46.75 57.6 46.8 57.4 46.8 57.35 46.9 57.25 46.8 57.1 46.85 57.05 46.45 56.95
M 41.95 58.4
L 41.95 58.45 42.1 58.35 42.2 58.15 42.25 58 42.2 58
Q 41.9 57.85 41.75 57.95
L 41.75 58.3
Q 41.9 58.45 41.95 58.4
M 44.85 54.75
Q 44.95 54.8 45.05 54.7
L 45 54.6
Q 44.95 54.5 44.8 54.5 44.7 54.45 44.7 54.65
L 44.65 54.8 44.75 54.8 44.85 54.75
M 42.2 54.85
L 42.15 54.9
Q 42 54.9 41.95 55
L 41.9 55.05 42 55.2 42.1 55.2 42.2 55.15 42.25 55.05 42.25 54.95 42.2 54.85
M 42.55 52.9
L 42.45 52.85 42.45 52.9
Q 42.35 52.85 42.35 52.9
L 42.25 52.95 42.2 53.05 42.2 53.15 42.3 53.2 42.3 53.3 42.35 53.3
Q 42.55 53.35 42.6 53.25
L 42.65 53.2 42.55 53.1
Q 42.65 52.9 42.55 52.9
M 43.95 50.7
Q 44 50.55 43.85 50.45
L 43.8 50.45 43.75 50.55 43.6 50.6 43.6 50.7 43.65 50.8
Q 43.75 50.95 43.95 50.8
L 43.95 50.7
M 49.75 55.05
L 49.55 55.15
Q 49.5 55.25 49.6 55.3
L 49.65 55.35 49.8 55.3 49.9 55.15 49.8 55.05 49.75 55.05
M 46.7 54.4
L 46.8 54.45 47.05 54.4 47.1 54.35 47.05 54.2 47 54.15
Q 46.7 54.15 46.7 54.3
L 46.7 54.4
M 46.9 53.5
L 47.05 53.4 47.1 53.3 47.15 53.1 47.1 53.1 47.1 53 46.95 52.9 46.75 52.9 46.65 52.75 46.6 52.75 46.3 52.9 46.6 53.45 46.9 53.5
M 46 52.35
L 46 52.2 45.9 52.1 45.95 52 45.85 52.05 45.6 52 45.45 52.1 45.45 52.25 45.4 52.25 45.4 52.35
Q 45.4 52.55 45.5 52.55
L 45.8 52.55 45.8 52.5 45.95 52.45 46 52.35
M 50 51.3
L 50 51.2
Q 49.9 51.05 49.7 51.05 49.65 51.05 49.65 51.25
L 49.6 51.3 49.7 51.35 49.75 51.35 49.7 51.4 49.95 51.35 50 51.3
M 49.2 52.3
L 49.2 52.35
Q 49.15 52.6 49.4 52.6
L 49.55 52.4 49.5 52.25 49.35 52.2 49.2 52.3
M 58.3 60.55
L 58.25 60.6
Q 58.15 60.75 58.2 60.75
L 58.35 60.9 58.55 60.7 58.55 60.65
Q 58.55 60.5 58.45 60.55
L 58.4 60.5 58.3 60.55
M 56.75 56.15
L 56.7 56.1
Q 56.5 56 56.4 56.15
L 56.35 56.15 56.2 56.35 56.2 56.65 56.3 56.8
Q 56.5 56.95 56.6 56.8
L 56.65 56.7 56.7 56.75 56.75 56.65 56.85 56.6 56.8 56.6 56.9 56.45 56.85 56.4 56.9 56.35 56.75 56.15
M 54.75 61.85
L 54.6 61.8 54.55 61.8 54.55 61.85 54.45 61.95 54.45 62 54.5 62.2 54.6 62.2 54.65 62.15 54.7 62.2 54.9 62.1 54.9 62 54.85 61.9 54.75 61.85
M 53.6 60.95
L 53.45 61 53.4 61.1 53.4 61.25
Q 53.6 61.35 53.7 61.15
L 53.75 61.2 53.75 60.95 53.6 60.95
M 54.9 58.8
L 54.75 58.8
Q 54.55 58.9 54.55 58.95
L 54.55 59.05 54.6 59.1 54.65 59.2 54.75 59.2 54.75 59.25 54.9 59.25 55.05 59.1 54.95 58.95 54.9 58.8
M 51.55 59.25
L 51.6 59.2 51.55 59.1 51.45 59.3 51.55 59.25
M 52.15 59.75
L 52.2 59.7 51.9 59.55 51.65 59.7 51.6 59.8 51.6 59.9 51.55 59.95 51.55 60.2 51.75 60.3 52 60.25 52.05 60.25 52.15 60.2 52.2 60.15 52.15 60.05 52.25 60.1 52.2 59.85 52.2 59.8 52.15 59.75
M 52.9 59.45
Q 52.75 59.35 52.65 59.4
L 52.45 59.35 52.35 59.5 52.3 59.8 52.35 59.8
Q 52.5 60.15 52.8 59.9
L 52.9 59.9 52.95 59.85 52.9 59.6 52.95 59.55 52.9 59.45
M 50.95 57.05
L 50.85 57.05
Q 50.8 57 50.7 57.05 50.65 57 50.5 57.3
L 50.55 57.35 50.45 57.4 50.55 57.45 50.5 57.65 50.6 57.85 50.65 57.85 50.7 57.8 50.85 57.9 50.9 57.8 51 57.85 51.1 57.8 51.25 57.65 51.2 57.55 51.25 57.55 51.15 57.35 51 57.35 50.95 57.05
M 54.9 56.8
L 54.9 56.65 54.7 56.5 54.55 56.55 54.5 56.5 54.4 56.7 54.4 57.05 54.45 57.1 54.6 57.15 54.7 57.1 54.75 57 54.8 56.95 54.85 56.85 54.9 56.8
M 52.9 52.6
L 52.85 52.6
Q 52.6 52.5 52.6 52.7
L 52.7 52.9 53 52.75 52.9 52.6
M 55.55 51.65
Q 55.6 51.35 55.25 51.2
L 55.05 51.2 55.05 51.25 55 51.3 54.9 51.45 54.8 51.55 54.85 51.8 55 51.95 55.1 51.9 55.5 51.9 55.5 51.75 55.55 51.75 55.55 51.65
M 57.55 50.4
L 57.5 50.5 57.55 50.5 57.65 50.6
Q 57.9 50.55 57.85 50.4
L 57.8 50.35 57.7 50.35 57.65 50.3 57.55 50.45 57.55 50.4
M 64.65 55.45
Q 64.5 55.55 64.55 55.6
L 64.55 55.7 64.8 55.95 64.85 55.9 65 55.9 65 55.8 65.05 55.75
Q 65.15 55.65 65.05 55.55
L 64.95 55.55 64.9 55.45 64.8 55.4 64.65 55.4 64.65 55.45
M 39.25 61.85
L 39.15 61.85 39 61.9
Q 39 62.05 39.05 62.2
L 39.15 62.2 39.35 62.15 39.4 62.1 39.35 61.95 39.25 61.85
M 36.55 58.35
L 36.6 58.3 36.6 58.15 36.55 58.25 36.5 58.15 36.3 58 36.15 58.15 36.2 58.3 36.2 58.4 36.35 58.5 36.55 58.35
M 34.2 50.25
L 34.25 50.15 34.2 50.1 34.2 50 34.1 50 34.05 49.9 33.9 49.85 33.8 49.95 33.8 50.05 33.75 50.05 33.75 50.15 33.7 50.2
Q 33.6 50.25 33.6 50.35
L 33.6 50.45 33.65 50.5 33.7 50.6 33.95 50.6 33.95 50.55 34.1 50.4 34.15 50.3 34.2 50.25
M 36.85 52.9
L 36.85 52.7 36.7 52.7 36.55 52.85 36.45 52.9 36.35 53 36.4 53.05 36.4 53.2 36.6 53.2 36.65 53.3 36.8 53.3
Q 36.9 53.3 36.9 53.2
L 36.9 52.95 36.85 52.9
M 39.8 52
L 39.8 52.1 39.9 52.35 40.1 52.5 40.15 52.5 40.35 52.35 40.4 52.2 40.45 52.15 40.25 51.9 40.2 51.9
Q 40.1 51.85 39.95 51.95
L 39.95 52 39.8 52
M 39.7 51.3
L 39.6 51.3 39.55 51.35
Q 39.45 51.2 39.45 51.4
L 39.4 51.45 39.4 51.75 39.45 51.75 39.5 51.8 39.5 51.75 39.55 51.8 39.7 51.75 39.75 51.7 39.8 51.55 39.7 51.45 39.7 51.3
M 39 49.3
L 39.05 49.45
Q 39.15 49.6 39.3 49.5
L 39.4 49.5 39.5 49.15 39.35 49 39.3 49.05 39.15 49.05 39.05 49.15 39.1 49.2 39.05 49.2 39.05 49.25 39 49.3
M 37.2 45.65
L 37.25 45.85 37.2 45.8 37.1 45.75 37 45.8 36.85 45.9 36.75 45.85 36.8 45.9
Q 36.65 46 36.75 46.15
L 36.8 46.2
Q 36.85 46.35 36.9 46.3
L 36.9 46.35 37.15 46.4 37.2 46.4 37.35 46.2 37.3 46.05 37.3 45.95 37.35 46 37.55 45.85 37.6 45.75 37.55 45.65 37.55 45.6
Q 37.3 45.55 37.25 45.6
L 37.2 45.65
M 37.25 43.2
L 37.45 43.1 37.45 43.05
Q 37.6 42.95 37.5 42.75
L 37.35 42.75 37.2 42.8 37.05 42.9 37.05 43 37.25 43.2
M 39.8 39.7
Q 39.85 39.75 39.9 39.8
L 39.9 39.5 39.85 39.5 39.8 39.55 39.75 39.7 39.8 39.7
M 64.65 47.05
L 64.7 47.05 64.7 46.95 64.75 46.9 64.75 46.7 64.7 46.7 64.65 46.65 64.55 46.6 64.5 46.6
Q 64.45 46.55 64.45 46.65
L 64.35 46.65
Q 64.3 46.6 64.15 46.7
L 64.1 46.75 64.05 46.75 64 46.8 63.9 46.85 63.9 47.1 64 47.1 64.2 47.05 64.2 46.95 64.25 46.95 64.3 47
Q 64.55 47.1 64.65 47.05
M 57.4 44.35
L 57.4 44.45 57.25 44.6 57.25 44.85 57.3 44.9 57.4 44.95 57.45 45 57.7 45 57.7 44.8 57.75 44.55 57.75 44.5 57.65 44.45 57.55 44.35 57.4 44.35
M 57.1 43.9
L 57.15 43.75 57.1 43.65 56.9 43.5 56.8 43.5 56.65 43.65 56.55 43.65 56.55 43.85 56.75 44 56.85 44 56.95 43.9 57.1 43.9
M 53.75 47.3
L 53.7 47.35
Q 53.6 47.2 53.45 47.25
L 53.35 47.2
Q 53.25 47.3 53.2 47.45
L 53.25 47.6 53.2 47.65 53.2 47.75 53.25 47.8 53.3 47.9 53.45 48.05 53.6 48.05
Q 53.7 48.05 53.75 47.95
L 53.85 47.85 53.9 47.9 53.9 47.75
Q 53.9 47.6 53.8 47.6
L 53.8 47.5 53.75 47.3
M 54.55 47.5
L 54.5 47.45 54.3 47.4 54.15 47.4
Q 54.05 47.5 54 47.75
L 53.95 47.8 54.1 47.9
Q 54.1 48.05 54.4 48.1
L 54.6 48.05 54.6 48 54.65 47.95 54.65 47.85 54.75 47.8 54.65 47.55 54.6 47.55 54.6 47.5 54.55 47.5
M 52.3 46.05
L 52.05 46.1 52.1 46.15 52 46.4 52.1 46.5 52.2 46.65 52.35 46.6 52.55 46.5 52.55 46.45 52.6 46.35 52.65 46.2 52.55 46.05 52.5 46.1 52.4 46.05 52.3 46.05
M 55.6 44.1
L 55.45 44.1 55.5 44.15 55.4 44.2 55.4 44.4 55.45 44.45 55.65 44.4 55.65 44.05 55.6 44.1
M 53.3 43
L 53.2 43.05
Q 53.05 43.05 53.05 43.15
L 53 43.35 53.1 43.45 53.2 43.45 53.3 43.4 53.35 43.25 53.3 43
M 54.7 43.15
L 54.65 43.15
Q 54.65 43.1 54.6 43.15
L 54.45 43.2 54.45 43.25
Q 54.4 43.45 54.6 43.5
L 54.65 43.55 54.75 43.55 54.85 43.6 54.95 43.6 55.05 43.5 55 43.45
Q 55.15 43.25 54.85 43.25
L 54.7 43.15
M 53.65 39.6
L 53.6 39.6 53.5 39.75 53.55 39.95 53.5 40 53.65 40 53.6 40.05 53.8 40.1 53.8 40.05
Q 53.85 40.1 53.95 40
L 54 39.95 54 39.8 53.9 39.75 53.85 39.75 53.65 39.6
M 58.2 42.2
L 58.15 42.3 58.45 42.65
Q 58.55 42.7 58.75 42.55
L 58.85 42.4 58.9 42.4 58.95 42.25 58.9 42.25 58.7 42.1 58.65 42.1 58.6 42.05 58.5 42.1 58.25 42.15 58.2 42.2
M 58.55 39.75
L 58.65 39.75
Q 58.7326171875 39.805078125 58.8 39.75
L 58.8 39.5 58.55 39.55 58.55 39.75
M 48 49
L 47.8 48.95 47.65 49 47.6 49 47.55 49.1 47.6 49.15 47.5 49.2 47.6 49.3
Q 47.55 49.55 47.75 49.55 47.8 49.55 47.9 49.45
L 47.9 49.35 47.95 49.3 47.95 49.2 48 49.1 48 49
M 47.95 45.5
L 47.9 45.35 47.8 45.35 47.65 45.45 47.65 45.5 47.55 45.55 47.55 45.6
Q 47.5 45.85 47.6 45.85
L 47.75 45.85 47.8 45.9 47.9 45.9 48 45.85 47.95 45.65 48.05 45.65 47.95 45.5
M 42.95 47.9
L 42.75 47.9 42.65 47.95 42.55 48.3 42.65 48.5 42.95 48.5 43.2 48.35 43.1 48.3 43.2 48.15 43.25 48.1 43.2 48.05 43 48 42.95 47.9
M 43.2 45.3
L 43.25 45.25 43.1 45.2
Q 43.15 45.05 43 45.05
L 42.85 45.15 42.9 45.3 43 45.4 43.1 45.4
Q 43.2 45.45 43.2 45.3
M 43.7 39.25
L 43.75 39.2 43.7 39.05 43.6 39.1
Q 43.5 39 43.35 39.1
L 43.3 39.25 43.35 39.3
Q 43.35 39.4 43.5 39.4 43.6 39.4 43.65 39.3 43.75 39.3 43.7 39.25
M 45.85 38.6
L 45.75 38.6
Q 45.6 38.5 45.5 38.55
L 45.3 38.6 45.3 38.7 45.35 38.75 45.2 38.8 45.25 39.05 45.55 39.2 45.7 39.2 45.7 39.15 45.75 39.15 45.8 39.1 45.85 39 45.95 38.85 45.9 38.85
Q 46 38.7 45.85 38.6
M 49.65 37.9
L 49.8 37.6 49.8 37.55 49.75 37.5 49.6 37.55 49.5 37.5 49.45 37.55 49.4 37.8 49.35 37.8 49.65 37.9
M 46.5 34
L 46.45 34 46.3 34.15 46.2 34.2 46.2 34.3 46.15 34.4 46.15 34.5 46.2 34.5 46.55 34.6 46.65 34.5 46.75 34.5 46.8 34.55 46.85 34.3 46.8 34.25
Q 46.75 34.2 46.7 34.2
L 46.65 34.1 46.6 34.05 46.55 34.05 46.5 34
M 55.55 37
L 55.6 37.05 55.75 37.15 55.8 37.05
Q 55.9 36.9 55.8 36.8
L 55.75 36.75 55.65 36.75 55.6 36.8 55.55 37
M 54.15 35.4
L 54.05 35.3 54 35.2 53.9 35.1 53.75 35.15 53.7 35.3 53.75 35.4 53.8 35.45 53.85 35.6 53.9 35.65 54.05 35.6 54.1 35.6 54.15 35.65 54.15 35.4 Z"/>
</g>
</defs>

<g transform="matrix( 1, 0, 0, 1, 0,0) ">
<use xlink:href="#Layer2_0_FILL"/>
</g>
</svg>
