
<svg xmlns="http://www.w3.org/2000/svg" version="1.1" xmlns:xlink="http://www.w3.org/1999/xlink" preserveAspectRatio="none" x="0px" y="0px" width="100px" height="100px" viewBox="0 0 100 100">
<defs>
<g id="Layer2_0_FILL">
<path fill="#000000" stroke="none" d="
M 66.05 79.15
L 66.2 78.9 66.2 78.75 66.15 78.6 65.85 78.4 65.7 78.4 65.65 78.45 65.5 78.5 65.45 78.7
Q 65.35 79.1 65.8 79.2
L 66.05 79.15
M 75.05 80.35
L 75 80.35 74.9 80.5 74.9 80.8 75.1 81 75.4 81 75.55 80.85 75.65 80.65 75.6 80.4 75.55 80.35 75.45 80.3 75.1 80.3 75.05 80.35
M 55.55 92.75
L 55.5 92.75 55.45 92.9 55.4 93 55.45 93.15 55.5 93.25 55.7 93.3
Q 55.95 93.35 56.05 93.1
L 56.05 93.05 55.95 92.75
Q 55.9 92.65 55.65 92.65
L 55.55 92.75
M 44.35 85.05
L 44.3 84.9 44.25 84.85 44 84.7 43.85 84.8 43.65 85
Q 43.65 85.3 43.85 85.35
L 43.95 85.35 44.2 85.3 44.35 85.1 44.35 85.05
M 58.3 81.5
L 58.75 81.5 58.95 81.3 58.95 80.95 58.9 80.95
Q 58.9 80.85 58.75 80.7
L 58.5 80.7
Q 58.15 81.05 58.15 81.1 58.15 81.3 58.25 81.45
L 58.3 81.5
M 51.9 77.2
L 51.75 77.3 51.65 77.5 51.65 77.65 51.7 77.8 51.75 77.85 51.85 77.9 52.1 77.95 52.25 77.95 52.35 77.85 52.45 77.65 52.45 77.55 52.4 77.45
Q 52.4 77.2 52.2 77.2
L 51.9 77.2
M 53.75 70.7
L 53.5 70.7
Q 53.15 70.85 53.3 71.2
L 53.35 71.4 53.4 71.5 53.7 71.5 53.85 71.4 53.95 71.25 54 71 53.9 70.8 53.85 70.8 53.75 70.7
M 45.3 72.5
L 45.15 72.75 45.15 72.95 45.3 73.05 45.4 73.1 45.65 73.3 45.75 73.25 45.85 73.3 45.9 73.2
Q 46.05 73.05 46 72.95
L 45.95 72.85 46 72.7 45.65 72.5 45.3 72.5
M 47.65 65.25
L 47.6 65.5 47.55 65.6 47.7 65.75 47.95 65.9
Q 48.4 65.75 48.35 65.35
L 48.1 65.15 48.05 65.2
Q 47.9 65.1 47.75 65.15
L 47.65 65.25
M 41.4 56.2
L 41.2 56 41.1 56
Q 40.95 55.95 40.85 56.1 40.75 56.15 40.75 56.35
L 40.75 56.45 40.8 56.5 40.85 56.6 41.2 56.65
Q 41.35 56.45 41.4 56.2
M 52.8 58.35
L 52.85 58.35
Q 52.75 58.15 52.6 58.2
L 52.3 58.3 52.25 58.4 52.2 58.6 52.4 58.8 52.6 58.8
Q 52.85 58.8 52.95 58.55
L 52.8 58.35
M 72.75 64.8
L 72.5 64.95
Q 72.35 65.05 72.4 65.25
L 72.4 65.3 72.5 65.45 72.55 65.5 72.75 65.5 73.05 65.4 73.05 65.35 73.1 65.2 73.05 64.95 72.75 64.8
M 66.45 69.55
L 66.5 69.5 66.45 69.45 66.45 69.55
M 66.05 69.2
Q 65.9 69.3 66 69.5
L 66.05 69.65 66.25 69.7
Q 66.4 69.7 66.55 69.6
L 66.45 69.55 66.35 69.5 66.4 69.45 66.4 69.4 66.5 69.4 66.65 69.35
Q 66.6 69.05 66.35 69.05
L 66.3 69.1 66.05 69.2
M 63.2 63.4
L 63.05 63.05 62.95 63.05 62.85 63
Q 62.65 62.95 62.55 63.15 62.45 63.2 62.45 63.45
L 62.5 63.55
Q 62.6 63.8 62.85 63.75
L 63 63.7 63.1 63.65
Q 63.25 63.5 63.2 63.4
M 64.45 57.95
Q 64.3 57.8 64.05 58
L 63.95 58.2 63.95 58.35 64 58.4 64.1 58.6
Q 64.3 58.7 64.5 58.65
L 64.45 58.4 64.45 57.95
M 61.35 52.35
L 61.1 52.3 60.85 52.3
Q 60.65 52.35 60.65 52.6
L 60.65 52.65 60.7 52.75 60.75 52.9 60.75 53 61 53.05 61.2 53.05 61.35 52.9
Q 61.4 52.85 61.4 52.8
L 61.45 52.6 61.45 52.5 61.35 52.35
M 67.25 50.15
L 67.3 50.05
Q 67.2 49.85 67 49.85
L 66.9 49.9 66.8 49.8 66.7 49.8 66.6 49.75 66.45 49.9
Q 66.35 50.1 66.35 50.2
L 66.4 50.35 66.5 50.5 66.55 50.5 66.75 50.55 66.95 50.55 66.95 50.5 67 50.45
Q 67.25 50.5 67.25 50.15
M 77.1 58.65
L 77.05 58.7 77.05 58.8 77 59 77.05 59 77.05 59.2 77.2 59.3
Q 77.35 59.35 77.55 59.3 77.75 59.05 77.75 58.9
L 77.7 58.7 77.5 58.6 77.2 58.6 77.1 58.65
M 26.35 74.85
L 26.2 74.7
Q 25.9 74.65 25.7 74.9
L 25.75 75.1
Q 25.75 75.3 25.9 75.3
L 26.1 75.35 26.15 75.3 26.3 75.2 26.35 75.15 26.35 74.85
M 35.75 80.6
L 35.95 80.4 35.95 80.1 35.9 80.05 35.7 79.9
Q 35.4 79.8 35.25 80.1
L 35.25 80.4
Q 35.4 80.65 35.6 80.65
L 35.75 80.6
M 14.8 81
L 14.8 80.85 14.75 80.7 14.7 80.65 14.5 80.6
Q 14.3 80.6 14.2 80.7
L 14.15 80.85 14.1 80.85 14.1 81.1 14.15 81.2 14.3 81.3
Q 14.6 81.3 14.65 81.25 14.8 81.2 14.8 81
M 18.1 64.55
Q 18.4 64.65 18.45 64.35
L 18.45 64.2 18.4 64.1 18.25 63.95 18.05 63.95 17.9 64.05 17.85 64.15
Q 17.75 64.45 18.1 64.55
M 15.35 52.35
L 15.2 52.3 14.75 52.3 14.65 52.35 14.6 52.4 14.55 52.5 14.55 52.7 14.5 52.75
Q 14.6 53.15 14.95 53.05
L 14.8 53.05 14.95 53 15.05 53.05 15.2 53.1 15.25 53.1 15.35 53.05
Q 15.55 52.95 15.6 52.75
L 15.55 52.5 15.5 52.4 15.45 52.4 15.35 52.35
M 36.25 70.8
Q 36.05 70.7 35.9 70.75
L 35.7 70.95 35.7 71.15 35.75 71.3 35.8 71.35
Q 35.95 71.65 36.25 71.55
L 36.25 71.5 36.45 71.4 36.45 71.35 36.5 71.1 36.5 71.05 36.25 70.8
M 26.35 61.65
L 26.2 61.7
Q 26.05 61.85 26.05 61.9
L 26.05 62.05 26.1 62.25
Q 26.25 62.5 26.55 62.4
L 26.8 62.15 26.8 61.9
Q 26.65 61.7 26.5 61.7
L 26.4 61.65 26.35 61.65
M 28.45 58.05
L 28.15 58.2 28.15 58.3 28.1 58.5 28.05 58.5
Q 28.15 58.75 28.35 58.85
L 28.4 58.8 28.4 58.85
Q 28.7 58.9 28.8 58.7
L 28.8 58.5 28.85 58.35
Q 28.75 58.2 28.55 58.1
L 28.5 58.1 28.45 58.05
M 38.7 61.75
Q 38.5 61.4 38.25 61.4
L 38.1 61.45 38 61.55 37.9 61.85 38.05 62.2 38.4 62.2 38.6 62 38.65 62 38.65 61.95 38.7 61.75
M 33.25 49.85
L 33.25 49.65 33.15 49.6 33.05 49.5
Q 32.95 49.45 32.65 49.55 32.5 49.85 32.5 50.05
L 32.65 50.2 32.75 50.25
Q 33.2 50.25 33.25 49.85
M 39.85 47.8
L 39.7 47.7 39.45 47.8 39.45 47.9 39.4 48.05 39.35 48.15 39.5 48.35 39.55 48.45 39.65 48.45
Q 39.85 48.45 39.95 48.3
L 40.1 48.15 40.05 48.05
Q 40.05 47.95 39.9 47.75
L 39.85 47.8
M 33.9 38.1
L 34.15 38.3
Q 34.25 38.45 34.4 38.4
L 34.5 38.35
Q 34.65 38.2 34.6 38.1
L 34.7 38
Q 34.65 37.6 34.2 37.65 34.05 37.65 33.95 37.8 33.85 38 33.9 38.1
M 30.75 24.95
L 30.7 25.15 30.75 25.25 30.95 25.4
Q 31.25 25.4 31.35 25.15
L 31.35 24.9 31.3 24.85 31.1 24.75
Q 30.85 24.75 30.75 24.95
M 18.45 46
L 18.25 46.05 18.2 46.1
Q 18.05 46.2 18.05 46.3
L 18.05 46.45 18.1 46.5 18.1 46.55
Q 18.25 46.8 18.45 46.8
L 18.6 46.75 18.6 46.7 18.65 46.7 18.65 46.65 18.8 46.55 18.8 46.5
Q 18.9 46.15 18.45 46
M 18 23.1
Q 18.1 23.2 18.3 23.2
L 18.4 23.1 18.45 23.1 18.55 22.95 18.55 22.85 18.5 22.65 18.5 22.6 18.35 22.5 18.3 22.5 18.1 22.55 18 22.6 17.95 22.75 17.95 22.8
Q 17.9 23 18 23.1
M 33.75 20.8
L 33.55 20.8 33.3 20.9 33.25 20.95 33.25 21.35 33.5 21.65 33.6 21.6
Q 33.8 21.6 33.95 21.35 34.05 21.3 34 21.1
L 33.75 20.8
M 40.05 6.9
L 39.9 6.75 39.75 6.7 39.7 6.7 39.5 6.75
Q 39.35 6.9 39.35 7.05 39.25 7.3 39.5 7.45
L 39.65 7.5 39.85 7.5 39.9 7.45 40.05 7.35 40.1 7.15
Q 40.15 7.1 40.05 6.9
M 73.2 46.9
L 73 47
Q 72.9 47 72.85 47.3
L 72.85 47.4 72.95 47.6 73.2 47.65
Q 73.45 47.55 73.5 47.3
L 73.45 47.1
Q 73.4 47 73.2 46.9
M 60.9 43.3
L 60.85 43.3 60.75 43.45 60.75 43.7 60.8 43.95 60.9 44.05 61.1 44.1 61.45 43.75 61.45 43.45 61.4 43.3 61.3 43.2 61.2 43.2 60.9 43.3
M 64.05 37.75
L 64.1 37.7 64.1 37.65 64 37.4 63.95 37.35 63.8 37.25
Q 63.45 37.35 63.45 37.5
L 63.35 37.7
Q 63.5 38.05 63.7 37.95 63.95 38.1 64.05 37.75
M 69.9 40.1
L 69.9 40.2 69.95 40.35
Q 70.1 40.65 70.45 40.5 70.7 40.3 70.7 40
L 70.7 39.9 70.5 39.8
Q 70.25 39.65 70.15 39.85 69.95 39.9 69.9 40.1
M 68.65 31.9
Q 68.5 32.1 68.6 32.3 68.55 32.55 68.85 32.55
L 69 32.55 69.05 32.5 69.15 32.45
Q 69.2 32.35 69.25 32.05
L 69.1 31.9 69.1 31.85 68.95 31.8
Q 68.8 31.75 68.65 31.9
M 67.85 25.45
Q 67.95 25.45 68.1 25.3
L 68.1 25.15 68.05 24.9 67.95 24.85 67.9 24.8 67.65 24.8 67.5 24.85 67.45 24.9 67.35 25.05
Q 67.35 25.3 67.6 25.45
L 67.85 25.45
M 56.1 47.95
L 56.1 47.9 56.05 48.25
Q 56.1 48.45 56.3 48.5 56.3 48.55 56.45 48.5
L 56.65 48.4 56.8 48.3 56.8 48.2 56.85 48.05
Q 56.8 47.7 56.4 47.7
L 56.15 47.8 56.1 47.95
M 52.65 38.45
Q 52.5 38.3 52.25 38.4 52 38.5 52 38.9 52 39.2 52.25 39.3
L 52.55 39.2 52.65 39.05
Q 52.8 39 52.8 38.65
L 52.65 38.5 52.65 38.45
M 47.5 49.35
Q 47.25 49.3 47.15 49.45 47.05 49.65 47.1 49.85 47.05 50.05 47.25 50.05 47.4 50.15 47.6 50.1
L 47.7 50.05
Q 47.85 49.9 47.85 49.7
L 47.7 49.45 47.6 49.35 47.5 49.35
M 47.2 44.5
Q 47.05 44.5 46.9 44.6
L 46.8 44.7 46.85 44.75 46.8 44.85
Q 46.85 45 46.95 45.1
L 47.05 45.15 47.2 45.15
Q 47.55 45 47.45 44.7
L 47.5 44.65 47.4 44.55 47.2 44.5
M 41.35 41.2
Q 41.2 41.25 41.2 41.45
L 41.3 41.6 41.55 41.75
Q 41.75 41.8 41.75 41.65 41.85 41.5 41.8 41.4
L 41.75 41.2 41.55 41.1 41.35 41.2
M 45.85 37
L 45.7 37.1 45.5 37.4 45.55 37.45
Q 45.7 37.85 46.05 37.7
L 46.25 37.65 46.25 37.6 46.3 37.4 46.25 37.25 46.15 37.1 45.85 37
M 44.8 31.5
L 44.75 31.4
Q 44.65 31 44.3 31.1
L 44.25 31.1
Q 43.95 31.15 44 31.5
L 44.15 31.7 44.25 31.8 44.4 31.8
Q 44.6 31.8 44.8 31.6
L 44.8 31.5
M 60.5 34.4
L 60.6 34.45 60.85 34.4 60.85 34.35 60.9 34.4 60.95 34.35 61 34.25 61.05 34 60.9 33.65 60.75 33.65
Q 60.55 33.6 60.35 33.8 60.25 33.85 60.25 34.05
L 60.4 34.4 60.5 34.4
M 58.1 36.9
Q 57.85 36.7 57.55 37
L 57.55 37.35 57.8 37.45
Q 57.95 37.5 58.1 37.4
L 58.25 37.2 58.1 36.9
M 52.65 31.85
Q 52.5 31.8 52.3 31.85
L 52.15 32.15 52.2 32.2
Q 52.2 32.55 52.55 32.5
L 52.7 32.45 52.75 32.4
Q 52.85 32.2 52.85 32.15 52.75 31.95 52.65 31.85
M 59.8 26.5
Q 59.85 26.3 59.55 26.15 59.35 26.2 59.25 26.25
L 59.15 26.3 59.1 26.3 59.2 26.8 59.4 26.9
Q 59.6 26.9 59.7 26.8 59.8 26.6 59.8 26.5
M 53.25 21.45
L 53.2 21.15 53.1 21.05 53.05 21.05 52.95 21
Q 52.8 20.95 52.55 21.1
L 52.5 21.2 52.5 21.35
Q 52.5 21.75 52.85 21.75
L 52.9 21.75
Q 53.2 21.75 53.25 21.45
M 41.9 21.3
Q 42.05 21.3 42.25 21.2
L 42.35 20.85 42.25 20.8
Q 42.2 20.45 41.85 20.6
L 41.7 20.7 41.65 20.75
Q 41.6 21 41.65 21.05 41.8 21.2 41.9 21.3
M 83 57.05
Q 82.7 56.9 82.55 57.2
L 82.7 57.3 82.5 57.3 82.5 57.4 82.65 57.6
Q 82.9 57.75 83.1 57.45
L 83.1 57.25 83 57.05
M 85.75 42.4
L 85.9 42.1 85.9 42.05 85.85 41.95
Q 85.65 41.7 85.4 41.75 85.15 41.75 85.05 42.05
L 85.05 42.2 85.1 42.3 85.1 42.35 85.2 42.4
Q 85.3 42.5 85.5 42.5
L 85.6 42.45 85.65 42.45 85.75 42.35 85.75 42.4 Z"/>
</g>
</defs>

<g transform="matrix( 1, 0, 0, 1, 0,0) ">
<use xlink:href="#Layer2_0_FILL"/>
</g>
</svg>
