
<svg xmlns="http://www.w3.org/2000/svg" version="1.1" xmlns:xlink="http://www.w3.org/1999/xlink" preserveAspectRatio="none" x="0px" y="0px" width="100px" height="100px" viewBox="0 0 100 100">
<defs>
<g id="Layer2_0_FILL">
<path fill="#000000" stroke="none" d="
M 51.9 63.2
L 51.9 63.1
Q 51.9 62.85 51.7 62.75 51.45 62.6 51.3 62.75 51.1 62.85 51.05 63.15 51.15 63.4 51.3 63.5
L 51.4 63.55 51.5 63.5 51.6 63.55 51.8 63.4 51.9 63.2
M 55.3 63.1
L 55.1 62.85
Q 55 62.8 54.8 62.85 54.65 62.95 54.65 63.05
L 54.65 63.25 54.9 63.25
Q 55.05 63.3 55.15 63.25
L 55.25 63.2 55.3 63.1
M 47.15 70.9
L 46.95 71 46.85 71.2 47.05 71.5 47.3 71.5 47.65 71 47.55 70.85
Q 47.35 70.7 47.15 70.9
M 41.75 63.45
L 41.65 63.55 41.55 63.75 41.55 63.95 41.65 64.05 41.9 64.15 42.1 64.15 42.2 64.1 42.35 63.8 42.35 63.55 42.2 63.55 42 63.45
Q 41.95 63.4 41.75 63.45
M 45.15 56.6
Q 44.95 56.5 44.65 56.5 44.25 56.6 44.1 56.9 43.95 57.05 44.05 57.45
L 44.2 57.65 44.4 57.75 44.6 57.8 44.75 57.75
Q 45.35 57.55 45.35 56.95
L 45.25 56.65 45.15 56.6
M 43.05 52.35
Q 43.4 52.15 43.25 51.7 43.2 51.5 42.85 51.25
L 42.45 51.35 42.25 51.45 42.25 51.4
Q 42.1 51.6 42.05 51.95 42 52.35 42.15 52.45 42.25 52.75 42.55 52.75
L 42.8 52.65 42.95 52.55 43 52.4 43.05 52.35
M 55.75 60.05
L 56.15 60.3 56.5 60.2 56.55 60.05 56.55 59.75 56.45 59.65 56.45 59.6 56.3 59.5 55.95 59.6
Q 55.65 59.65 55.75 60.05
M 59.7 56.8
L 59.5 56.75 59.3 56.75 59.15 56.85 59.05 57.15 59.15 57.5 59.25 57.5 59.45 57.6 59.6 57.55 59.75 57.45 59.8 57.3 59.9 57.15 59.9 57.05 59.8 56.9 59.7 56.8
M 52.25 52.8
L 52 52.65
Q 51.85 52.55 51.6 52.55
L 51.35 52.65 51.25 52.85 51.15 53.15 51.2 53.35 51.65 53.65 51.85 53.7
Q 52.55 53.55 52.4 53.05
L 52.25 52.8
M 54.6 50.9
L 54.45 51
Q 54.3 51.15 54.15 51.6
L 54.25 51.95 54.4 52.15
Q 54.65 52.3 55.05 52.15 55.45 51.9 55.4 51.45 55.35 50.95 54.95 50.85
L 54.75 50.85 54.6 50.9
M 58.95 54.55
L 58.95 54.75
Q 59.25 55.6 59.85 55.35
L 60.2 55.25 60.3 55.1 60.35 54.95 60.35 54.7 60.25 54.35 60.1 54.25 59.65 54.05 59.3 54.15 59.05 54.3 58.95 54.55
M 60.85 68.95
Q 60.8 68.75 60.75 68.7
L 60.7 68.7 60.65 68.55
Q 60.5 68.6 60.55 68.7 60.4 68.85 60.6 68.95 60.7 69.25 60.9 69.1
L 60.8 68.95 60.85 68.95
M 65.25 58.7
L 65 58.55 64.75 58.5 64.65 58.75
Q 64.9 59.05 65.15 58.95 65.3 58.8 65.25 58.7
M 61.85 51.05
L 61.7 51.05 61.8 51.2 61.75 51.25
Q 61.75 51.35 61.8 51.45
L 61.85 51.4 61.9 51.55
Q 62.2 51.5 62 51.15
L 61.85 51.05
M 68.85 51.35
L 68.9 51.35 68.85 51.3
Q 68.65 51.2 68.55 51.2
L 68.5 51.55 68.7 51.7 69.05 51.7 69.15 51.45 68.85 51.35
M 36.6 70.75
L 36.45 70.8 36.4 71.05 36.7 71.35 36.9 71.15 36.85 71.05
Q 36.85 70.95 36.75 70.75
L 36.6 70.75
M 34.25 63.15
L 34.2 63.2
Q 34.05 63.25 34.05 63.4
L 34.15 63.6 34.2 63.65 34.45 63.65
Q 34.55 63.6 34.6 63.25
L 34.3 63.15 34.25 63.15
M 28.05 66.4
Q 27.9 66.45 27.95 66.55
L 27.85 66.75 28 66.9 28.3 66.9 28.35 66.65 28.3 66.55 28.05 66.4
M 23.4 53.35
Q 23.25 53 22.9 53.1
L 22.85 53.2
Q 22.95 53.55 23 53.55
L 23.25 53.6 23.4 53.35
M 31.9 58.75
Q 32.05 58.7 31.95 58.45
L 31.7 58.4
Q 31.55 58.4 31.55 58.55 31.5 58.7 31.6 58.75
L 31.9 58.75
M 32.8 50.9
Q 33.05 50.75 33 50.45
L 32.75 50.2
Q 32.6 50.2 32.45 50.3 32.15 50.4 32.2 50.75
L 32.3 50.9 32.55 50.95 32.7 51 32.8 50.9
M 39 54.5
L 38.95 54.55 38.9 54.75 38.9 54.95
Q 39.05 55.3 39.3 55.25
L 39.5 55.2 39.55 55.2
Q 39.8 55.1 39.8 54.75
L 39.8 54.7 39.7 54.55
Q 39.5 54.25 39.25 54.35 39.15 54.35 39 54.5
M 38 51.05
L 38 50.95
Q 38 50.7 37.7 50.55 37.6 50.35 37.4 50.45
L 37.3 50.5 37.25 50.55 37.2 50.9
Q 37.4 51.3 37.75 51.35
L 37.8 51.25 38 51.05
M 33.55 46.15
L 33.35 46.2 33.15 46.4 33.15 46.45
Q 33.05 46.75 33.2 46.95
L 33.35 47.05
Q 33.5 47.1 33.7 47.05
L 34 47 34.05 46.85
Q 34.15 46.55 34.05 46.45 33.9 46.25 33.55 46.15
M 36.95 38.35
L 36.9 38.15
Q 36.8 38.15 36.45 38
L 36.3 38.15
Q 36.25 38.5 36.55 38.6 36.8 38.55 36.95 38.35
M 26.85 47.3
L 26.55 47.3
Q 26.3 47.5 26.45 47.7
L 26.65 47.75 27 47.7 27 47.5 26.85 47.3
M 26.65 40.95
L 26.45 40.9 26.2 40.9 26.1 41.1
Q 26.15 41.25 26.3 41.3 26.5 41.4 26.55 41.3
L 26.65 40.95
M 37.8 34.05
L 38.1 34.2 38.2 33.95 37.8 34.05
M 75.8 42.1
L 75.55 41.9 75.35 41.95 75.45 42.1 75.4 42.1
Q 75.45 42.3 75.6 42.25
L 75.65 42.2 75.75 42.4
Q 75.85 42.25 75.8 42.1
M 66.05 44.4
L 65.9 44.35
Q 65.6 44.4 65.7 44.75 65.9 45.05 66.1 44.85
L 66.1 44.65
Q 66.2 44.5 66.05 44.4
M 62.5 48.5
Q 62.65 48.75 62.9 48.6 63.1 48.5 63.2 48.4 63.25 48.3 63.15 48
L 63.1 47.95 62.7 47.85 62.5 47.9 62.35 48.05
Q 62.4 48.4 62.5 48.5
M 66.9 37.25
L 66.7 37.4
Q 66.8 37.75 66.7 38.1
L 66.95 38.25
Q 67.2 38 67.1 37.65 67.1 37.35 66.9 37.25
M 57.9 45.35
Q 57.6 45.2 57.3 45.3 57.05 45.35 56.9 45.7 56.8 46.05 56.95 46.45
L 57.1 46.6 57.25 46.7 57.55 46.65
Q 57.95 46.55 58.15 45.9
L 58.2 45.85 58.1 45.5 57.9 45.35
M 51.5 49.15
L 51.3 49.3 51.15 49.45 51.1 49.75 51.15 49.9 51.35 50.1 51.5 50.2 51.85 50.3 52.15 50.15 52.3 49.95 52.35 49.85
Q 52.25 49.4 52.25 49.35
L 52.15 49.2 51.9 49.1 51.7 49.1 51.5 49.15
M 56.4 43.05
L 56.6 43.3 56.65 43.35
Q 56.65 43.4 56.85 43.55
L 56.95 43.6 57.1 43.75 57.2 43.8 57.45 43.85 57.75 43.65 57.95 43.45
Q 58.1 43.15 57.95 42.95
L 57.75 42.7 57.6 42.75 57.5 42.7 57.35 42.5 57.15 42.4 56.8 42.4
Q 56.3 42.55 56.4 43.05
M 49.9 45.1
Q 49.5 45.2 49.45 45.7
L 49.5 46.1 49.65 46.2
Q 49.85 46.35 50.15 46.25 50.5 46.15 50.7 45.9
L 50.6 45.35 50.45 45.2
Q 50.1 45.05 49.9 45.1
M 45.65 37.95
L 45.6 37.85 45.35 37.75 45.1 37.75 45 37.85 44.9 38.1 44.9 38.3 44.95 38.4 45.3 38.5 45.45 38.5 45.6 38.4 45.65 38.15
Q 45.7 38.15 45.65 37.95
M 45.7 29.6
Q 45.75 29.7 45.95 29.65
L 46.05 29.55
Q 46.1 29.4 45.9 29.15
L 45.6 29.15 45.5 29.25
Q 45.45 29.45 45.7 29.6
M 60.1 35.95
L 59.85 35.95 59.75 36.1 59.85 36.45 60.1 36.45
Q 60.45 36.25 60.25 36.05
L 60.1 35.95
M 52.15 33.8
L 51.95 33.75 51.85 33.8
Q 51.5 34 51.5 34.35
L 51.55 34.45 51.65 34.6 51.75 34.65 52.15 34.6
Q 52.35 34.5 52.4 34.3 52.45 34 52.3 33.9
L 52.15 33.8
M 57.3 29.35
Q 57.05 29.45 57.15 29.75
L 57.35 29.85 57.6 29.85 57.65 29.6 57.65 29.45 57.55 29.3 57.3 29.35 Z"/>
</g>
</defs>

<g transform="matrix( 1, 0, 0, 1, 0,0) ">
<use xlink:href="#Layer2_0_FILL"/>
</g>
</svg>
