
<svg xmlns="http://www.w3.org/2000/svg" version="1.1" xmlns:xlink="http://www.w3.org/1999/xlink" preserveAspectRatio="none" x="0px" y="0px" width="100px" height="100px" viewBox="0 0 100 100">
<defs>
<g id="Layer2_0_FILL">
<path fill="#000000" stroke="none" d="
M 69.5 82.15
Q 69.5 81.85 69.15 81.9
L 69.15 82.05 69 81.9 68.95 82 68.9 82.25
Q 68.9 82.55 69.3 82.5
L 69.45 82.4 69.5 82.15
M 64.75 78.45
L 64.65 78.4 64.35 78.55 64.4 78.6 64.25 78.7 64.25 78.85
Q 64.35 79.05 64.45 79.15 64.75 79.15 64.9 79.1
L 65.05 78.9 65 78.7 64.85 78.45 64.75 78.45
M 46.4 90.05
L 46.2 89.8 46.1 89.8 46.05 89.75 45.9 89.75 45.65 89.95 45.65 90.2 45.8 90.45 46 90.5 46.2 90.45 46.4 90.25 46.4 90.05
M 42 81.1
L 41.9 81 41.7 81.1
Q 41.3 81.3 41.5 81.7
L 41.65 81.85 41.95 81.8 42.1 81.7 42.15 81.6 42.15 81.25 42.05 81.1 42 81.1
M 49.7 76.45
L 49.7 76.35 49.6 76.4 49.7 76.45
M 49.95 76.05
L 49.85 76.05 49.65 75.9
Q 49.45 75.8 49.4 76.05
L 49.3 76.15 49.4 76.35
Q 49.45 76.45 49.6 76.55
L 49.6 76.4 49.6 76.35 49.7 76.25 49.8 76.35 49.85 76.45
Q 50.1 76.25 49.95 76.05
M 56.95 78.5
Q 56.75 78.45 56.6 78.6
L 56.55 78.6 56.55 78.8 56.5 78.9 56.65 79.05 56.9 79.2 57.1 79.15 57.25 78.95 57.2 78.6 56.95 78.5
M 52.4 69.5
Q 52.3 69.4 52.1 69.55
L 52.05 69.65
Q 51.9 69.9 52.1 70.1
L 52.25 70.15 52.35 70.25
Q 52.55 70.25 52.6 70.15
L 52.75 69.8 52.7 69.7 52.7 69.65
Q 52.65 69.4 52.4 69.5
M 57.7 67.85
Q 57.7 67.65 57.4 67.6
L 57.2 67.6 57.1 67.7 57.1 67.8 57 68
Q 57 68.2 57.2 68.35
L 57.35 68.15 57.7 67.85
M 50.15 58.35
L 50.05 58.4 49.85 58.45 49.8 58.7 49.9 58.85
Q 50.05 59.05 50.3 59
L 50.45 58.8
Q 50.55 58.65 50.4 58.5
L 50.15 58.35
M 42.1 59.4
L 42.15 59.05 42.1 59.1
Q 42.05 58.9 41.95 58.8
L 41.8 58.8 41.55 58.9 41.45 58.9 41.4 59.15 41.45 59.4
Q 41.85 59.7 42.1 59.4
M 59.75 61.6
L 59.6 61.75 59.55 61.9 59.45 61.95 59.55 62.2 59.65 62.35 59.9 62.4 60.2 62.25 60.25 62.2 60.35 62.05 60.05 61.6
Q 59.95 61.45 59.75 61.6
M 71.8 68.25
L 71.6 68.15
Q 71.5 68.05 71.3 68.25
L 71.2 68.3 71.1 68.45 71.2 68.7
Q 71.45 68.85 71.7 68.75
L 71.8 68.55
Q 71.8 68.45 71.8 68.25
M 65.55 64.7
L 65.35 64.65
Q 65.15 64.7 65.05 64.75
L 64.95 64.85 64.9 65.05 64.9 65.1 65 65.3 65.1 65.45 65.15 65.4 65.25 65.4
Q 65.35 65.65 65.65 65.45
L 65.7 65.45
Q 65.85 65.2 65.75 65.05
L 65.6 65 65.6 64.9 65.55 64.8 65.55 64.7
M 67.55 56.45
L 67.3 56.2 67.1 56.25 66.9 56.4 66.7 56.6 66.75 56.7 66.8 56.85 67.25 56.95 67.5 56.8 67.65 56.65 67.55 56.45
M 60.85 55.15
L 60.75 55.15 60.4 55.35
Q 60.3 55.45 60.35 55.7 60.3 55.75 60.45 55.8
L 60.7 55.9 60.8 56 60.9 55.9 61.05 55.85
Q 61.3 55.6 61.1 55.25
L 60.85 55.15
M 70.3 49.8
L 70.05 50 70.1 50.3
Q 70.15 50.4 70.35 50.45
L 70.6 50.5 70.75 50.15
Q 70.75 49.85 70.3 49.8
M 75.6 61.55
Q 75.45 61.45 75.25 61.5
L 75.15 61.6 75.1 61.7
Q 74.95 62.05 75.25 62.2 75.6 62.3 75.8 62.1
L 75.9 62.05 75.9 61.85
Q 75.85 61.55 75.6 61.55
M 73.25 54.9
Q 73.1 55.2 73.25 55.3 73.3 55.55 73.6 55.45
L 73.7 55.5 73.75 55.45 73.9 55.2 73.9 55.1 73.85 54.95
Q 73.6 54.7 73.45 54.8
L 73.25 54.9
M 74.8 50.8
L 75.05 50.45 74.95 50.35
Q 74.85 50.2 74.6 50.1 74.5 50.1 74.35 50.2
L 74.15 50.5 74.2 50.6 74.2 50.7 74.4 50.85 74.45 50.85 74.45 50.9 74.5 50.95 74.8 50.8
M 24.5 81.55
L 24.3 81.6 24.25 81.6 24.1 81.75 24.1 81.85 24.15 82.05
Q 24.25 82.25 24.5 82.2
L 24.55 82.2 24.75 81.9
Q 24.8 81.8 24.65 81.6
L 24.5 81.6 24.5 81.55
M 36.1 76.95
L 35.95 76.75
Q 35.45 76.65 35.4 76.7 35.25 76.8 35.2 77
L 35.15 77.05 35.45 77.4 35.7 77.45 36 77.25 36 77.2
Q 36.05 77.15 36.1 76.95
M 34.6 69.3
L 34.4 69.3 34.25 69.4 34.15 69.55 34.15 69.7 34.4 70.1 34.5 70.1 34.7 70.05 34.8 70 34.9 69.9
Q 35.1 69.75 34.95 69.6
L 34.8 69.35 34.6 69.3
M 40.45 66.9
L 40.3 67 40.25 67.15 40.4 67.4 40.6 67.4 40.75 67.45 41 67.35 41.1 67.1 41.05 67.05 41.1 66.95 40.95 66.75
Q 40.6 66.55 40.45 66.9
M 23.95 68
L 24.05 67.85 24.05 67.55 23.85 67.45 23.6 67.4
Q 23.35 67.6 23.4 67.75
L 23.7 68.05 23.9 68 23.95 68
M 22.9 58.35
L 22.9 58
Q 22.8 57.7 22.45 57.8
L 22.2 57.95
Q 22.1 58.2 22.2 58.35
L 22.35 58.5 22.65 58.5 22.9 58.35
M 34.6 61.25
L 34.3 61.3 34.15 61.4 34.15 62 34.25 62.1 34.25 62.15 34.4 62.15
Q 34.6 62.15 34.65 62.1
L 34.65 62 34.85 61.95 34.8 61.55 34.6 61.25
M 30.45 53.35
L 30.5 53
Q 30.5 52.75 30.35 52.7
L 30.1 52.65 29.95 52.75 29.8 52.9 29.8 52.95
Q 29.7 53.25 29.9 53.45
L 29.95 53.45 30.2 53.5 30.4 53.4 30.45 53.35
M 38.65 48.95
L 38.5 49.25 38.7 49.55 38.95 49.6 39 49.65 39.05 49.6 39.25 49.55
Q 39.4 49.2 39.25 49
L 39.1 48.85 38.95 48.85 38.65 48.95
M 32 40.1
Q 32.05 39.85 31.95 39.7
L 31.95 39.6 31.8 39.5
Q 31.55 39.45 31.55 39.5
L 31.4 39.55 31.3 39.75
Q 31.15 40 31.45 40.2
L 31.8 40.25 32 40.1
M 35.5 39.1
L 35.45 39.05
Q 35.3 39.3 35.4 39.5
L 35.4 39.55
Q 35.55 39.85 35.75 39.75
L 35.9 39.65 36.1 39.6
Q 36.1 39.4 36.1 39.2
L 36.05 39.15 36.05 39.1 35.75 38.95 35.65 39 35.5 39.1
M 20.7 47.4
L 20.8 47.6 20.85 47.6 21.05 47.65 21.1 47.65 21.35 47.5 21.4 47.3
Q 21.25 47 20.9 47
L 20.75 47.15
Q 20.6 47.25 20.7 47.4
M 25 34.85
L 25.15 34.75 25.15 34.7 25.25 34.45 25.1 34.3 24.9 34.25 24.85 34.3
Q 24.55 34.35 24.65 34.7 24.75 35.05 25 34.85
M 9 41.55
L 8.95 41.7
Q 9.15 41.95 9.25 41.95 9.35 42.05 9.5 41.9
L 9.6 41.85 9.75 41.7 9.7 41.6 9.65 41.45
Q 9.5 41.3 9.4 41.25
L 9.25 41.35 9.2 41.3 9 41.45 9 41.55
M 39.1 24.35
L 39.2 24.45 39.25 24.4 39.25 24.45 39.3 24.45 39.5 24.5 39.5 24.45
Q 39.85 24.35 39.7 23.85
L 39.6 23.75 39.5 23.7
Q 39.3 23.65 39.25 23.75
L 39.1 23.8 39.1 23.95
Q 39 24.2 39.1 24.35
M 32.4 24.65
L 32.15 24.65 32 24.75 31.95 24.75
Q 31.75 25.05 31.85 25.2
L 32 25.25 32 25.4 32.15 25.55 32.2 25.65
Q 32.4 25.7 32.6 25.65
L 32.75 25.45 32.85 25.35 32.8 25.3 32.8 25.2 32.45 24.7 32.4 24.65
M 80.1 45.3
Q 80.3 45.2 80.2 44.9 80.05 44.75 80 44.7
L 79.9 44.65 79.85 44.6 79.5 45 79.55 45.2
Q 79.65 45.35 79.8 45.4 80 45.4 80.1 45.3
M 71.55 42.8
Q 71.5 42.65 71.35 42.55
L 71 42.55 70.95 42.65
Q 70.7 42.85 71 43.1
L 71.05 43.2 71.15 43.2
Q 71.35 43.15 71.4 43.1 71.5 42.95 71.55 42.8
M 65.6 47.15
L 65.8 47.1
Q 65.9 47.2 66.2 47
L 66.2 46.75 66.25 46.75
Q 66.3 46.55 66.05 46.4 65.8 46.25 65.5 46.5 65.25 46.7 65.35 46.95
L 65.6 47.15
M 63.05 41.15
L 63.1 41.1 63.3 41 63.45 40.7 63.3 40.4 63.15 40.35 62.8 40.4 62.8 40.45
Q 62.55 40.8 62.9 41
L 63.05 41.15
M 66.65 36.15
Q 66.75 36.3 67.05 36.35
L 67.15 36.25 67.15 36.2
Q 67.45 35.85 67.15 35.65
L 67.1 35.65 67.05 35.6
Q 66.95 35.6 66.8 35.55 66.7 35.6 66.65 35.65
L 66.55 35.9 66.55 36.05 66.65 36.15
M 80.1 36.3
L 79.95 36.3 79.85 36.4
Q 79.55 36.65 79.75 36.9
L 79.8 36.95
Q 79.95 37.2 80.2 37.05
L 80.4 36.8 80.45 36.65 80.4 36.55
Q 80.35 36.4 80.1 36.3
M 73.55 27.85
Q 73.65 27.95 73.8 28.1
L 74.15 27.95 74.15 27.85
Q 74.4 27.6 74.05 27.4
L 73.9 27.35 73.85 27.35
Q 73.6 27.45 73.6 27.5 73.55 27.7 73.55 27.85
M 57.9 45.8
L 57.75 45.8 57.7 45.85 57.65 45.85
Q 57.5 46 57.5 46.15
L 57.55 46.25 57.6 46.4
Q 57.95 46.55 58.1 46.35
L 58.2 46.35 58.25 46.2 58.1 46
Q 58.05 45.85 57.9 45.8
M 53.8 49.1
Q 53.6 49.2 53.7 49.4 53.75 49.55 53.9 49.65
L 53.95 49.75
Q 54.2 49.75 54.35 49.6
L 54.5 49.2 54.45 49.15
Q 54.3 48.95 54.15 48.9 53.95 48.95 53.8 49.1
M 57.4 39.8
L 57.5 39.7 57.5 39.4 57.25 39.35
Q 57.15 39.25 57 39.4
L 56.95 39.5 56.95 39.8
Q 57.05 40.05 57.15 39.95 57.3 39.9 57.4 39.8
M 45.05 47.85
Q 44.95 47.85 44.8 47.95
L 44.7 48 44.7 48.05 44.65 48.15 44.85 48.5
Q 45.05 48.45 45.3 48.35
L 45.35 48.1 45.25 48
Q 45.25 47.85 45.05 47.85
M 45.65 37.9
L 45.65 37.65
Q 45.65 37.55 45.35 37.4 45.05 37.4 44.85 37.55
L 44.85 37.85
Q 45.15 38.25 45.5 38
L 45.65 37.9
M 50.6 41.9
L 50.5 41.9 50.45 42.15 50.4 42.2 50.45 42.3
Q 50.55 42.45 50.75 42.5
L 50.95 42.5 51 42.4
Q 51.1 42.3 51.15 42.1
L 51.05 42.1 51.1 41.9 50.85 41.8 50.8 41.85 50.6 41.9
M 55.6 31.4
Q 55.35 31.4 55.3 31.5
L 55.3 31.85
Q 55.2 32.05 55.35 32.1
L 55.45 32.15
Q 55.65 32.2 55.75 32.05
L 55.85 32.1
Q 56.15 31.8 55.85 31.5 55.75 31.35 55.6 31.4
M 57.85 10.1
L 58 10.15 58.2 10.15 58.3 10.1 58.45 9.9 58.5 9.9 58.5 9.75 58.3 9.55 58.2 9.5 58.05 9.55 58 9.55
Q 57.8 9.7 57.8 9.8 57.75 9.95 57.85 10.1
M 68.35 21.4
Q 68.45 21.55 68.75 21.55 68.85 21.55 68.95 21.45
L 69.05 21 68.95 20.85 68.7 20.7 68.6 20.7 68.3 20.95 68.2 21.3 68.35 21.4
M 64.35 21.3
Q 64.2 21.1 63.9 21.1
L 63.75 21.2 63.7 21.25 63.7 21.55
Q 63.85 21.75 64.15 21.7
L 64.35 21.55 64.35 21.3
M 82.8 74.85
L 82.65 74.95 82.6 75.05 82.55 75.05 82.6 75.15
Q 82.55 75.3 82.65 75.45
L 82.8 75.6 82.95 75.55 82.9 75.6 83.25 75.55 83.3 75.55 83.3 75.45
Q 83.4 75.15 83.2 74.95 83.05 74.75 82.8 74.85
M 81.4 56
L 81.35 55.8
Q 81.3 55.65 81.05 55.6 80.85 55.65 80.75 55.85 80.5 55.95 80.7 56.2
L 80.8 56.3 80.85 56.3 80.9 56.35
Q 81.05 56.35 81.35 56.2
L 81.35 56 81.4 56
M 86.15 51.15
L 86.3 50.95 86.3 50.75 86.15 50.55 85.95 50.45 85.8 50.5
Q 85.6 50.65 85.6 50.95
L 85.75 51.15
Q 85.8 51.2 86.05 51.25
L 86.15 51.15
M 83.35 17.95
L 83.45 17.95 83.6 18 83.75 17.95
Q 83.85 17.95 83.95 17.75
L 84 17.55 83.95 17.4 83.95 17.35 83.75 17.25
Q 83.5 17.2 83.4 17.25 83.15 17.35 83.2 17.65
L 83.25 17.8 83.35 17.95 Z"/>

<path fill="#363435" stroke="none" d="
M 59.95 79.45
Q 60.4 80.3 60.3 79.55 60.25 78.8 59.95 79.45
M 56 70.95
Q 56.2 71.3 56.4 70.85 56.1 70.75 56.15 70.55 56.4 70.5 56.5 70.5 56.7 70.45 56.7 70.35 56.5 70.25 56.05 70.25 55.7 70.3 55.65 70.45 55.7 70.5 56 70.95
M 52.95 64.5
Q 53.25 64.65 53.4 64.7 53.6 64.85 53.7 64.55 53.55 64.5 53.25 64.35 53.1 64.2 52.95 64.5
M 59.3 64.45
Q 59.7 65.2 59.65 64.55 59.6 63.8 59.3 64.45
M 45.25 62.1
Q 45.65 62.9 45.65 62.2 45.55 61.45 45.25 62.1
M 43.9 69.6
Q 43 69 43.2 69.6 43.4 70.2 43.9 69.6
M 50.4 66.95
Q 49.7 66.95 50.15 67.65 50.65 68.4 50.85 68 50.5 67.85 50.75 67.45 50.95 67 50.4 66.95
M 46.9 65.05
L 46.85 65.6 47.6 65.7
Q 47.65 65 46.9 65.05
M 48.2 64.9
Q 48.15 65.7 48.65 66 48.75 65.05 48.2 64.9
M 46.15 58.4
Q 46.45 58.65 46.6 58.25 46.1 57.9 46.05 57.9 45.6 57.7 45.55 58.15 45.75 58.05 46.15 58.4
M 47.5 56.45
Q 47 57.1 47.6 56.55 48.2 56.05 47.5 56.45
M 46.8 58.45
Q 46.95 58.5 47.2 58.65 47.3 58.75 47.35 58.55 47.35 58.35 47.15 58.3 46.9 58.3 46.8 58.45
M 56.35 61.05
Q 56.7 61.1 56.85 61.1 57.1 61.05 57.15 60.85 57.05 60.9 56.7 60.85 56.45 60.85 56.35 61.05
M 54.75 61.45
Q 55.1 61.5 55.25 61.5 55.55 61.5 55.55 61.3 55.4 61.3 55.05 61.3 54.8 61.25 54.75 61.45
M 54.05 50.65
Q 53.45 51.3 54.1 50.75 54.65 50.2 54.05 50.65
M 58.2 52.6
Q 58.15 51.9 57.8 52.5 58.2 53.3 58.2 52.6
M 56.5 52.4
Q 56.7 52.45 56.9 52.7 57.05 52.95 57.2 53 57.4 52.65 57.05 52.3 56.6 51.9 56.5 52.4
M 77.85 68.5
Q 78 68.45 78.15 68.7 78.3 68.75 78.4 68.55 78.4 68.35 78.2 68.3 77.9 68.25 77.85 68.5
M 73.4 64.75
Q 73.85 65.55 73.8 64.85 73.75 64.15 73.4 64.75
M 71.2 65.9
Q 71.1 66.15 71.05 66.3 70.9 66.5 71.15 66.65 71.2 66.5 71.4 66.25 71.5 66 71.2 65.9
M 76.3 64.25
Q 76.35 64 76.15 63.9 76 64.2 75.85 64.35 75.8 64.55 76.05 64.65 76.05 64.5 76.3 64.25
M 78.75 67.25
Q 78.5 67.3 78.45 67.5 78.6 67.5 78.75 67.65 78.9 67.75 79 67.55 79 67.3 78.75 67.25
M 61.35 68.05
Q 61.8 68.85 61.75 68.15 61.65 67.4 61.35 68.05
M 68.65 68.4
Q 68.35 68.55 68.4 68.85 68.75 69.05 69.05 68.55 69.35 68.05 68.95 68.05 68.95 68.3 68.65 68.4
M 66.75 73.4
Q 66.85 73.4 67.05 73.55 67.2 73.7 67.25 73.45 67.25 73.25 67.05 73.25 66.8 73.2 66.75 73.4
M 61.7 69.65
Q 62.2 70.4 62.1 69.7 62.05 69.05 61.7 69.65
M 62.25 66.25
Q 61 67.5 62.25 66.55 63.15 65.9 62.3 66
L 62.25 66.25
M 63.6 62.15
Q 64.05 62.95 64 62.25 63.9 61.5 63.6 62.15
M 69.25 65.95
Q 69.4 65.25 68.9 66 69.1 66.6 69.25 65.95
M 69.8 61.05
Q 69.2 61.65 69.85 61.15 70.45 60.65 69.8 61.05
M 67.95 60.15
Q 67.5 60.75 68.05 60.25 68.7 59.7 67.95 60.15
M 65.25 61.75
Q 65.55 61.75 65.7 61.75 66.05 61.75 66.05 61.55 65.9 61.55 65.55 61.55 65.25 61.55 65.25 61.75
M 62.1 55.2
Q 62.15 55.2 62.35 55.4 62.5 55.45 62.6 55.25 62.6 55.05 62.35 55 62.15 54.95 62.1 55.2
M 78.9 58.35
Q 79.1 59 79.3 58.3 79.45 57.6 78.9 58.35
M 76.75 58.7
Q 76.25 59.3 76.85 58.8 77.45 58.3 76.75 58.7
M 75.7 60.15
Q 75.85 59.95 75.6 59.9 75.65 60.05 74.95 60.25 74.5 60.35 75.05 60.65 75.1 60.4 75.25 60.5 75.35 60.5 75.6 60.7 75.55 60.5 75.7 60.15
M 72.95 61.05
Q 72.7 61.1 72.6 61.3 73 61.25 73.1 61.3 73.4 61.25 73.4 61.05 73.25 61.05 72.95 61.05
M 72.8 57.4
Q 72.75 56.7 72.4 57.3 72.85 58.1 72.8 57.4
M 72.15 50.75
Q 72.1 50.75 71.65 51.05 71.3 51.3 71.8 51.5 71.8 51.3 72.2 51 72.55 50.85 72.15 50.75
M 78.65 54.9
Q 78.9 55.55 79 54.9 79.2 54.2 78.65 54.9
M 78.35 52.75
Q 78.05 52.8 78 53 78.35 53 78.5 53 78.75 53 78.8 52.8 78.65 52.85 78.35 52.75
M 77.3 54.35
Q 77.4 54.15 77.15 53.95 77 54.25 76.95 54.4 76.8 54.65 77.05 54.75 77.1 54.6 77.3 54.35
M 20.4 54.1
Q 19.45 53.55 19.65 54.1 19.85 54.7 20.4 54.1
M 32.9 79.25
Q 33.3 80.05 33.25 79.35 33.25 78.65 32.9 79.25
M 30.35 61.2
Q 30.35 62 30.75 62.3 30.95 61.35 30.35 61.2
M 35.75 69.2
Q 34.9 68.6 35.05 69.2 35.25 69.85 35.75 69.2
M 39 71.8
Q 38.9 72.25 38.95 72.45 38.95 72.8 39.15 72.9 39.2 72.6 39.4 72.2 39.45 72 39 71.8
M 36.35 73.9
Q 36.5 73.2 35.95 74 36.15 74.6 36.35 73.9
M 36.7 74
Q 37.05 74.05 37.2 74.05 37.45 74 37.5 73.8 37.4 73.8 37 73.85 36.75 73.85 36.7 74
M 40.45 69.55
L 40.2 70
Q 40.25 70.05 40.7 69.85 41 70.7 40.85 70 40.8 69.5 40.45 69.55
M 39.1 70.05
Q 38.9 70 38.85 70.2 38.95 70.25 39.15 70.4 39.3 70.5 39.4 70.3 39.4 70.1 39.1 70.05
M 32.9 69
Q 32.4 69.6 33 69.15 33.55 68.6 32.9 69
M 32.1 69.45
Q 31.4 70.1 32.1 70.1 32.75 70.15 32.1 69.45
M 33.6 68.05
Q 33.55 67.3 33.25 67.95 33.65 68.85 33.6 68.05
M 20.3 61.75
Q 20.65 61.75 20.75 61.7 21.1 61.7 21.1 61.55 20.95 61.55 20.6 61.5 20.35 61.55 20.3 61.75
M 25.1 54.2
Q 24.45 54.85 25.1 54.85 25.35 54.9 25.3 54.75 25.4 54.5 25.1 54.2
M 31.5 52.25
Q 31.55 51.4 31 52 31.2 52.5 31.35 52.5 31.45 52.55 31.5 52.25
M 36.05 49.65
Q 36.15 49.75 36.2 49.55 36.2 49.35 36 49.3 35.8 49.25 35.75 49.5 35.85 49.5 36.05 49.65
M 28.4 48.95
Q 27.8 48.3 27.75 49 27.75 49.6 28.4 48.95
M 22.85 49.05
Q 23.1 49.75 23.25 49.05 23.4 48.35 22.85 49.05
M 27.3 39.4
Q 27.4 39.4 27.6 39.55 27.7 39.65 27.75 39.45 27.85 39.25 27.6 39.25 27.3 39.2 27.3 39.4
M 27.1 38.35
Q 26.95 38.3 26.7 38.1 26.45 38 26.35 38.3 26.6 38.45 26.75 38.45 26.95 38.6 27.1 38.35
M 28.15 37.05
Q 28.15 36.6 27.75 37.1 28.05 37.15 28 37.4 27.8 37.35 27.5 37.35 27.15 37.35 27.15 37.55 27.45 37.6 27.4 37.85
L 27.9 37.9
Q 28.15 37.5 28.15 37.05
M 24.1 36.55
Q 24.2 36.55 24.4 36.7 24.5 36.8 24.6 36.55 24.6 36.4 24.4 36.35 24.15 36.35 24.1 36.55
M 30.9 33.1
Q 31.35 33.95 31.3 33.2 31.2 32.5 30.9 33.1
M 32.1 34.25
Q 31.5 34.85 32.25 34.5 33.05 34.2 32.95 34.05 32.75 33.85 32.1 34.25
M 34.5 30.5
L 34 30.45 34 31 34.5 31 34.5 30.5
M 36.7 29.85
Q 37.4 31.2 37.3 30.5 37.3 29.8 36.7 29.85
M 74.6 42.25
Q 74.7 42.25 74.9 42.4 75.05 42.55 75.1 42.25 75.15 42.05 74.95 42 74.65 42 74.6 42.25
M 76.95 41.15
Q 76.85 40.45 76.55 41.1 76.95 41.85 76.95 41.15
M 67.7 40.75
Q 68.35 40.2 67.65 40.65 67.05 41.3 67.7 40.75
M 67.05 35.4
Q 66.8 35.4 66.7 35.55 66.75 35.55 66.8 35.55 66.95 35.6 67.05 35.6 67.15 35.6 67.2 35.6 67.45 35.6 67.5 35.4 67.4 35.4 67.05 35.4
M 62.1 34.2
Q 61.55 34.8 62.15 34.3 62.8 33.8 62.1 34.2
M 61.55 27.85
Q 61.7 28.35 61.8 28.65 61.95 29.25 62.2 28.7 62.2 28.5 61.7 27.9 61.15 27.35 61.55 27.85
M 69.3 29
Q 69.45 28.95 69.65 29.15 69.75 29.2 69.8 29 69.85 28.75 69.6 28.75 69.35 28.75 69.3 29
M 70 30.6
Q 70.2 31.25 70.35 30.55 70.55 29.9 70 30.6
M 68.3 28.4
Q 67.05 29.55 68.3 28.65 69.2 28.05 68.35 28.15
L 68.3 28.4
M 72.8 34.7
Q 72.9 35.05 72.3 35.45 71.85 35.8 72.2 36 72.2 35.9 72.9 35.45 73.35 35.1 72.8 34.7
M 57.4 46.95
Q 56.9 47.6 57.5 47.1 58.1 46.55 57.4 46.95
M 42.45 44.95
Q 42.6 44.25 42.1 45 42.35 45.7 42.45 44.95
M 46.3 39.4
Q 46.9 38.85 46.2 39.25 45.65 39.9 46.3 39.4
M 45.95 37.1
Q 46.15 36.4 45.6 37.1 45.8 37.8 45.95 37.1
M 45.95 35.3
Q 46 35.55 45.8 35.95 45.7 36.15 45.95 35.85 46.35 36.05 46.2 35.35 46.1 34.5 45.95 35.3
M 42.45 30.3
Q 42.55 30.3 42.75 30.5 42.85 30.6 42.95 30.35 42.95 30.15 42.7 30.1 42.45 30.1 42.45 30.3
M 48 29.4
Q 48.45 30.25 48.4 29.5 48.35 28.8 48 29.4
M 50.5 30.9
Q 50.55 30.7 50.25 30.7 50.05 30.7 50 30.9 50.1 30.9 50.3 31.05 50.45 31.2 50.5 30.9
M 49.65 25.6
Q 49.5 25.85 49.25 26.35 49 26.7 48.75 26.85 48.9 26.95 49.05 27.15 49.35 27.35 49.45 27.4 49.15 27 49.55 26.45 49.95 25.9 49.65 25.6
M 60.3 30.9
Q 59.7 31.5 60.35 31 60.95 30.45 60.3 30.9
M 57.55 24.9
Q 57.8 25.6 57.95 24.85 58.1 24.2 57.55 24.9
M 58.45 29.7
Q 58 30.35 58.55 29.8 59.15 29.3 58.45 29.7
M 51.45 21.8
Q 50.9 22.1 51.45 22.35 51.85 22.6 52 22.1 51.85 22.1 51.75 22 51.55 21.85 51.45 21.8
M 75.95 21.05
Q 76 21.5 75.45 21.7 74.85 21.9 74.8 22.25 75.25 22.25 75.7 22.05 76.2 21.75 76.5 21.6 76.3 21.6 76.2 21.35 76.15 21.05 75.95 21.05
M 61.65 22.6
Q 61.7 22.55 62 23.05 62.25 23.45 62.4 22.9 62.25 22.95 61.95 22.55 61.8 22.2 61.65 22.6
M 82.6 68.1
Q 83 68.1 83.1 68.1 83.4 68.1 83.4 67.9 83.3 67.85 82.9 67.85 82.65 67.9 82.6 68.1
M 88.95 57.55
Q 89.05 57.55 89.25 57.7 89.4 57.75 89.45 57.55 89.5 57.35 89.25 57.35 89 57.3 88.95 57.55
M 83.35 55.8
Q 83.6 56.45 83.7 55.75 83.9 55.05 83.35 55.8
M 86.05 54.4
Q 86 54.65 85.85 55.05 85.75 55.25 86 54.95 86.45 55.15 86.35 54.4 86.15 53.55 86.05 54.4
M 86.65 55.45
Q 86.25 55.15 86.2 55.45 86.3 55.5 86.75 55.95 87.05 56.3 87.25 55.8 87.1 55.8 86.65 55.45
M 90.25 47.1
Q 90.05 47.45 90.65 47.2 91.2 47.1 91.05 46.9 90.95 46.75 90.6 46.9 90.35 46.95 90.25 47.1
M 82.5 48.85
Q 82.45 49.3 82.5 49.45 82.6 49.75 82.7 49.45 83 49 82.5 48.75 82.1 48.7 82.5 48.85
M 85.6 46.25
Q 85.85 46.9 86 46.2 86.15 45.5 85.6 46.25 Z"/>
</g>
</defs>

<g transform="matrix( 1, 0, 0, 1, 0,0) ">
<use xlink:href="#Layer2_0_FILL"/>
</g>
</svg>
