
<svg xmlns="http://www.w3.org/2000/svg" version="1.1" xmlns:xlink="http://www.w3.org/1999/xlink" preserveAspectRatio="none" x="0px" y="0px" width="100px" height="100px" viewBox="0 0 100 100">
<defs>
<g id="Layer2_0_FILL">
<path fill="#000000" stroke="none" d="
M 51.7 69.9
L 51.65 69.85 51.55 69.8 51.45 69.8 51.4 69.85 51.35 69.85 51.25 69.95 51.25 70.1 51.3 70.15 51.5 70.2 51.55 70.2 51.65 70.15 51.7 70.05 51.7 69.9
M 54.8 64.8
L 54.65 64.7 54.5 64.7 54.4 64.8 54.4 65.15 54.7 65.15 54.8 65.05 54.8 64.8
M 43.9 64.5
L 43.9 64.35 43.7 64.25 43.5 64.35 43.5 64.4 43.55 64.5 43.6 64.55 43.7 64.6 43.9 64.5
M 48.95 63.65
L 48.8 63.8
Q 48.7 63.9 48.9 64.1
L 49 64.1 49.05 64.05 49.15 64.05 49.25 63.95 49.25 63.85
Q 49.25 63.7 49.05 63.6
L 49 63.65 48.95 63.65
M 50.45 62.25
L 50.5 62.3 50.7 62.35
Q 50.85 62.35 50.9 62.2
L 50.9 62.1 50.85 62.05
Q 50.75 61.9 50.65 62
L 50.55 62 50.45 62.1 50.45 62.25
M 47.5 57.55
L 47.5 57.3 47.3 57.25 47.2 57.25 47.1 57.3 47.05 57.45
Q 47.05 57.6 47.2 57.7
L 47.25 57.7 47.35 57.65 47.4 57.65 47.5 57.55
M 42.4 60.15
L 42.35 60.15 42.4 60.35
Q 42.45 60.4 42.6 60.35
L 42.65 60.35 42.75 60.25 42.75 60.15 42.6 60 42.45 60 42.4 60.05 42.4 60.15
M 42.55 56.15
L 42.55 56.35 42.65 56.5 42.8 56.5
Q 43.05 56.4 42.95 56.15
L 42.85 56.1 42.6 56.1 42.55 56.15
M 43.7 51.75
L 43.8 51.55 43.8 51.45 43.7 51.35 43.65 51.35 43.6 51.3 43.5 51.3 43.35 51.45
Q 43.25 51.6 43.35 51.7
L 43.4 51.8 43.5 51.8 43.7 51.75
M 48.8 54.6
L 48.9 54.5 48.9 54.25
Q 48.85 54.15 48.7 54.15
L 48.65 54.15 48.5 54.25 48.5 54.3 48.45 54.35 48.5 54.5 48.5 54.55 48.55 54.6 48.8 54.6
M 48.6 53.35
L 48.5 53.35 48.3 53.45 48.25 53.5 48.25 53.75 48.45 53.9 48.55 53.85 48.6 53.85 48.7 53.8 48.75 53.7 48.75 53.65 48.7 53.55 48.7 53.45 48.6 53.35
M 49.85 53.65
L 49.75 53.55
Q 49.55 53.55 49.5 53.6
L 49.5 53.65 49.45 53.75 49.45 53.85 49.65 53.95 49.8 53.9 49.85 53.85 49.85 53.65
M 46.4 54.25
Q 46.55 54.1 46.45 54 46.45 53.9 46.25 53.9 46.1 53.9 46.1 54.15
L 46.2 54.25 46.4 54.25
M 46.05 50.9
L 46.1 50.95 46.25 50.95 46.35 51 46.5 51
Q 46.6 50.95 46.6 50.8
L 46.65 50.75 46.65 50.45 46.45 50.35 46.4 50.35 46.3 50.3 46.2 50.35 46.2 50.4 46.1 50.4 46 50.5 46 50.6 46.05 50.85 46.05 50.9
M 49.95 50.45
Q 49.8 50.6 49.9 50.7
L 50 50.8 50.1 50.85 50.3 50.75 50.2 50.7 50.3 50.7 50.35 50.65 50.35 50.55 50.3 50.4 50.3 50.35 50.25 50.35 50.2 50.3
Q 50.05 50.3 49.95 50.45
M 56.45 58.9
L 56.4 58.85 56.2 58.75
Q 56.05 58.75 56.05 58.9 56 58.95 56.05 59.05 56.05 59.2 56.2 59.2
L 56.25 59.2 56.3 59.15
Q 56.4 59.15 56.45 59.05
L 56.45 58.9
M 52.4 60.15
L 52.3 60.15 52.25 60.2 52.2 60.3
Q 52.2 60.45 52.3 60.45
L 52.5 60.45 52.65 60.3 52.55 60.15
Q 52.4 60 52.4 60.15
M 51 57.55
L 51 57.4 50.95 57.35 50.9 57.35 50.85 57.3 50.85 57.25 50.75 57.2
Q 50.65 57.1 50.55 57.3
L 50.45 57.3 50.25 57.5 50.3 57.7 50.4 57.8 50.5 57.85 50.6 57.85 50.7 57.9 50.75 57.9 50.9 57.8 51 57.7 51 57.6 50.9 57.5 51 57.55
M 52.35 53.3
L 52.3 53.3
Q 52.15 53.3 52 53.4
L 51.95 53.45 51.95 53.7 52 53.75 52 53.8 52.2 53.95 52.4 53.95
Q 52.6 53.75 52.5 53.55
L 52.5 53.45 52.35 53.3
M 52.8 52.65
L 52.8 52.8
Q 52.8 52.9 53 52.85 53.15 52.85 53.2 52.7
L 53.2 52.6 53 52.5 52.8 52.65
M 55.9 55.25
L 55.9 55.1 55.85 55.05 55.75 55 55.65 55 55.6 55.1 55.55 55.15 55.55 55.25
Q 55.6 55.25 55.7 55.35
L 55.85 55.3 55.9 55.25
M 58.15 53.4
L 58.2 53.5 58.25 53.55 58.35 53.6 58.4 53.6 58.5 53.55 58.55 53.5 58.55 53.25
Q 58.4 53.1 58.25 53.15 58.1 53.25 58.1 53.35
L 58.15 53.4
M 61.7 62.2
L 61.5 62.1 61.3 62.1 61.2 62.15 61.2 62.2 61.15 62.25 61.15 62.3 61.2 62.6 61.25 62.6
Q 61.4 62.75 61.5 62.65
L 61.6 62.65 61.75 62.5 61.7 62.25 61.7 62.2
M 61 56.95
Q 61.15 56.8 61.1 56.7
L 61.05 56.65 60.95 56.6 60.8 56.6 60.7 56.7 60.7 56.85
Q 60.8 57 61 56.95
M 63.1 53.35
L 63.15 53.4 63.3 53.4 63.45 53.25 63.4 53.1 63.35 53 63.3 53 63.25 52.95 63.2 53 63.1 53 63.05 53.05 63.05 53.25 63.1 53.3 63.1 53.35
M 62.6 50.1
Q 62.5 49.95 62.3 50
L 62.2 50.1 62.2 50.2 62.3 50.3 62.5 50.4 62.55 50.35 62.6 50.25 62.65 50.2 62.6 50.1
M 67.8 53.25
L 67.8 53.15 67.75 53.05
Q 67.5 52.9 67.35 53 67.25 53.15 67.3 53.2
L 67.3 53.3 67.35 53.35 67.35 53.4 67.5 53.5 67.55 53.45 67.6 53.45 67.8 53.25
M 38.1 57.75
Q 38.15 57.6 38 57.45
L 37.85 57.45 37.75 57.5 37.65 57.6 37.65 57.85
Q 37.85 57.95 37.95 57.85
L 38.05 57.85 38.1 57.75
M 40.35 56.25
L 40.25 56.35 40.25 56.45
Q 40.25 56.6 40.45 56.65
L 40.5 56.7
Q 40.7 56.65 40.7 56.5
L 40.7 56.45 40.75 56.4 40.7 56.35 40.7 56.3
Q 40.55 56.15 40.35 56.25
M 35.25 57.15
L 35.2 57.4 35.35 57.55
Q 35.45 57.6 35.55 57.55
L 35.65 57.55 35.75 57.45 35.75 57.2 35.7 57.1 35.6 57
Q 35.35 56.95 35.25 57.15
M 35.35 61.15
L 35.35 61.25 35.4 61.35 35.45 61.4
Q 35.6 61.4 35.6 61.35
L 35.7 61.35 35.8 61.25 35.75 61.1 35.75 61.05 35.7 60.95
Q 35.5 60.75 35.35 61.15
M 38.5 54.35
L 38.55 54.25 38.6 54.2 38.55 54.1
Q 38.45 53.9 38.3 54 38.1 54.1 38.2 54.25
L 38.3 54.35 38.5 54.35
M 36.65 51.25
L 36.6 51.05 36.5 50.9 36.4 50.9
Q 36.2 51 36.3 51.25
L 36.4 51.35 36.45 51.35 36.65 51.25
M 39.7 47.95
L 39.65 47.9 39.6 47.8 39.55 47.8
Q 39.25 47.8 39.25 47.95
L 39.25 48
Q 39.1 48 39.2 48.2
L 39.25 48.2 39.35 48.3 39.55 48.3 39.6 48.25
Q 39.7 48.15 39.7 47.95
M 40.3 44.45
L 40.2 44.4 40.15 44.45 40.15 44.4 39.95 44.5 39.9 44.55 39.9 44.7 40.05 44.8 40.1 44.85 40.25 44.85
Q 40.45 44.65 40.35 44.5
L 40.3 44.45
M 32.35 48.1
L 32.3 48.2 32.25 48.25 32.25 48.35 32.3 48.45 32.4 48.5 32.55 48.5 32.6 48.45 32.6 48.4 32.65 48.35 32.6 48.2 32.5 48.1 32.35 48.1
M 34.1 42.9
Q 34.25 42.9 34.3 42.75
L 34.3 42.6 34.05 42.5 34 42.55 33.9 42.55 33.9 42.8 34.1 42.9
M 40.1 39.25
L 40.15 39.2 40.25 39.15 40.25 38.95 40.05 38.75
Q 39.9 38.75 39.8 38.9
L 39.75 39.1 39.75 39.15 39.8 39.2 39.8 39.25 40.1 39.25
M 64.7 46.55
L 64.65 46.65 64.6 46.65 64.6 46.85
Q 64.7 47 64.9 47
L 65.05 46.85 65 46.85 65.05 46.8 65.05 46.7
Q 64.9 46.55 64.85 46.55
L 64.7 46.55
M 62.35 47.6
L 62.35 47.75 62.4 47.85 62.55 47.9 62.65 47.85
Q 62.95 47.75 62.75 47.55
L 62.7 47.45 62.65 47.4 62.55 47.4
Q 62.4 47.4 62.35 47.6
M 67.25 43.3
L 67.2 43.15 67.05 43
Q 67 42.95 66.8 43.05
L 66.75 43.1 66.75 43.35 66.8 43.4 66.85 43.5
Q 67.15 43.5 67.2 43.45
L 67.25 43.4 67.25 43.3
M 62 36.75
L 62 36.95
Q 62.1 37.05 62.15 37.05
L 62.3 37.05 62.35 37
Q 62.4 36.85 62.35 36.8
L 62.2 36.65 62.15 36.65 62.1 36.7 62.05 36.7 62 36.75
M 59.55 47.8
L 59.5 47.85
Q 59.4 47.85 59.3 48
L 59.3 48.15 59.35 48.15 59.35 48.25 59.4 48.35 59.5 48.35 59.55 48.4 59.6 48.35 59.75 48.35 59.85 48.25 59.9 48.05 59.85 48 59.8 47.9
Q 59.75 47.8 59.65 47.8
L 59.55 47.8
M 53.55 48.6
L 53.4 48.6
Q 53.1 48.75 53.3 49.15
L 53.3 49.2 53.35 49.2 53.4 49.25 53.6 49.25 53.65 49.2 53.8 49.1 53.8 48.9 53.75 48.8 53.55 48.6
M 51.7 48.3
L 51.7 48.2 51.65 48.15 51.65 48.05 51.55 48 51.4 48 51.25 48.05 51.15 48.2
Q 51.05 48.3 51.15 48.4 51.15 48.45 51.3 48.45
L 51.3 48.5 51.45 48.5 51.45 48.55 51.6 48.5 51.65 48.4 51.65 48.35 51.7 48.3
M 55.45 45.15
L 55.5 45.15
Q 55.75 45 55.8 44.95
L 55.8 44.85 55.75 44.8 55.8 44.8 55.75 44.75 55.75 44.65 55.7 44.6 55.6 44.55 55.4 44.6
Q 55.3 44.6 55.3 44.75
L 55.25 44.85 55.3 44.95 55.3 45 55.45 45.15
M 52.75 43.1
Q 52.55 43.1 52.55 43.25
L 52.55 43.4
Q 52.65 43.55 52.85 43.55
L 52.95 43.5 53 43.45 53 43.3 52.95 43.2 52.9 43.25 52.9 43.15 52.85 43.1 52.75 43.1
M 52.35 38.65
L 52.3 38.6
Q 52.2 38.4 52 38.4
L 51.95 38.45 51.9 38.45 51.85 38.5 51.85 38.65 51.8 38.7 51.85 38.8 51.85 38.85 52.1 38.95 52.3 38.8 52.35 38.75 52.35 38.65
M 54.9 39.45
L 54.85 39.45
Q 54.7 39.5 54.7 39.6
L 54.65 39.7 54.65 39.8 54.7 39.85 54.7 39.9 54.8 39.95 54.95 39.95 55.05 39.9 55.05 39.85 55.1 39.6 54.9 39.45
M 60.45 42.05
L 60.45 42.1 60.4 42.15 60.4 42.25 60.45 42.3 60.5 42.4 60.55 42.4 60.6 42.45 60.7 42.45 60.85 42.3 60.85 42.15 60.7 42 60.45 42.05
M 50.5 45.6
L 50.4 45.6 50.25 45.7 50.2 45.8 50.2 45.9 50.25 45.9 50.25 46.05 50.35 46.15 50.5 46.15 50.6 46.1 50.6 46 50.7 45.9 50.65 45.75 50.6 45.7 50.6 45.65 50.5 45.6
M 48.1 45.85
L 48.1 45.7 48.05 45.7 48.05 45.65 48 45.55
Q 48 45.45 47.85 45.45
L 47.8 45.45 47.6 45.5 47.6 45.7 47.65 45.8 47.6 45.85 47.6 46.15 47.9 46.3 48 46.25 48.05 46.2 48.05 46.1 48.1 46.05 48.15 45.95 48.15 45.9 48.1 45.85
M 48.7 45.6
L 48.7 45.4 48.65 45.35 48.55 45.3 48.45 45.3 48.3 45.5 48.3 45.7 48.4 45.75
Q 48.5 45.85 48.65 45.65
L 48.7 45.6
M 43.7 48.5
L 43.7 48.25 43.6 48.15 43.4 48.15
Q 43.25 48.25 43.25 48.4
L 43.3 48.5 43.35 48.55 43.45 48.55
Q 43.55 48.65 43.65 48.5
L 43.7 48.5
M 44.55 43.75
L 44.55 43.65 44.45 43.45 44.3 43.45
Q 44.15 43.45 44.1 43.55
L 44.1 43.75 44.2 43.85 44.45 43.85 44.55 43.75
M 44.7 38.4
L 44.6 38.35 44.55 38.4 44.5 38.4 44.45 38.45 44.45 38.65 44.6 38.8 44.7 38.75 44.75 38.75 44.8 38.7
Q 44.85 38.5 44.7 38.4
M 46.2 42.5
L 46.2 42.45 46.1 42.4
Q 45.9 42.35 45.7 42.75
L 45.75 42.85 45.75 42.9 45.8 42.95 46 43.05 46.2 43 46.25 42.95 46.3 42.8 46.3 42.75 46.35 42.7 46.25 42.5 46.2 42.5
M 50.45 39.5
L 50.4 39.55 50.4 39.6
Q 50.3 39.7 50.5 39.85
L 50.65 39.85 50.75 39.75 50.75 39.7 50.8 39.65 50.75 39.6 50.75 39.55
Q 50.6 39.4 50.45 39.5
M 50.55 35.3
L 50.55 35.15 50.45 35
Q 50.3 34.9 50.2 35.1
L 50.25 35.25 50.35 35.35 50.4 35.35 50.55 35.3
M 47.8 35.3
Q 47.65 35.3 47.55 35.5 47.55 35.7 47.65 35.75
L 47.7 35.75 47.75 35.8 47.9 35.8
Q 48 35.7 48 35.65
L 48.05 35.65 48.05 35.5 47.8 35.3
M 41.85 33.9
Q 41.85 33.75 41.75 33.7
L 41.6 33.7 41.55 33.75 41.5 33.85 41.5 33.95 41.6 34.05 41.8 33.95 41.85 33.9
M 45.55 32.9
L 45.5 32.9 45.4 32.8
Q 45.25 32.8 45.15 32.9
L 45.15 32.95 45.1 33 45.1 33.25 45.15 33.3
Q 45.35 33.4 45.45 33.35 45.6 33.35 45.6 33.2
L 45.6 33.1
Q 45.7 33 45.55 32.9
M 48.95 29.8
L 48.9 29.85 48.85 29.85 48.8 29.95 48.8 30.2
Q 48.85 30.35 49.05 30.4
L 49.15 30.4 49.35 30.2 49.4 30.05 49.35 29.9
Q 49.3 29.8 49.1 29.8
L 48.95 29.8
M 57.9 34.6
L 57.85 34.65 57.8 34.75 57.9 34.95
Q 58 35.05 58.1 34.95
L 58.15 34.95 58.15 34.9 58.2 34.9 58.2 34.8 58.15 34.7 58.1 34.65 58 34.6 57.9 34.6
M 53.85 35.95
L 53.9 36 54 36 54.1 35.9 54.15 35.75 54.1 35.6 54 35.5
Q 53.75 35.4 53.6 35.65
L 53.6 35.75 53.65 35.8 53.65 35.9 53.7 35.95 53.85 35.95 Z"/>
</g>
</defs>

<g transform="matrix( 1, 0, 0, 1, 0,0) ">
<use xlink:href="#Layer2_0_FILL"/>
</g>
</svg>
