
<svg xmlns="http://www.w3.org/2000/svg" version="1.1" xmlns:xlink="http://www.w3.org/1999/xlink" preserveAspectRatio="none" x="0px" y="0px" width="100px" height="100px" viewBox="0 0 100 100">
<defs>
<g id="Layer2_0_FILL">
<path fill="#000000" stroke="none" d="
M 56.25 83.1
L 56.3 83.2 56.35 83.25 56.45 83.4 56.65 83.4 56.7 83.3 56.7 83.1 56.6 83.05 56.45 83.05 56.5 83 56.25 83.1
M 53 75.75
L 52.8 75.6 52.5 75.75 52.5 75.9 52.55 75.95
Q 52.55 76 52.65 76.1
L 52.85 76.1
Q 52.95 75.95 53 75.75
M 60.65 75.95
L 60.7 76 60.85 76 60.9 75.95 60.95 75.8 60.9 75.7 60.7 75.7 60.6 75.75 60.65 75.95
M 55.1 68.35
L 54.95 68.3 54.9 68.35 55.05 68.45 55.1 68.35
M 53.85 64.75
L 53.8 64.45 53.8 64.25
Q 53.65 64.05 53.45 64
L 53.1 64 53 64.1
Q 52.85 64.5 52.95 64.65
L 53.15 65.05 53.25 65.1
Q 53.45 65.2 53.65 65.1 53.95 64.9 53.85 64.75
M 58.25 64.6
L 58.3 64.35 58.15 64.1 58 63.95 57.7 63.95 57.45 64.05 57.3 64.15 57.3 64.4 57.45 64.7 57.6 64.8 57.85 64.9 58.05 64.75
Q 58.2 64.75 58.25 64.6
M 48.35 71.95
Q 48.25 72 48.25 72.05
L 48.25 72.1 48.3 72.05 48.35 72.25 48.45 72.35 48.55 72.3 48.7 72.1
Q 48.65 72.05 48.55 71.95 48.45 71.85 48.35 71.95
M 41.6 69.4
Q 41.5 69.3 41.4 69.3
L 41.3 69.4 41.35 69.45 41.35 69.65 41.45 69.7 41.6 69.65 41.7 69.5
Q 41.75 69.4 41.6 69.4
M 42.3 63.25
L 42.15 63.1 42 63 41.75 63 41.5 63.05 41.3 63.5 41.5 63.8 41.75 64.05 41.85 64 42.05 63.95 42.35 63.5 42.3 63.25
M 49.35 63.25
L 49.15 63.25 49 63.35
Q 48.75 63.55 48.8 63.8 48.8 64.05 49.05 64.2
L 49.35 64.15 49.6 64.05
Q 49.7 63.9 49.75 63.7
L 49.65 63.4 49.35 63.25
M 46.45 61.7
L 46.35 61.85 46.35 62.05 46.3 62.3 46.35 62.4 46.55 62.55 46.9 62.55 47.05 62.4 47.15 62.25 47.2 62.15 47.2 61.85 46.9 61.55 46.85 61.55 46.6 61.6 46.45 61.7
M 47.1 57.1
L 46.9 56.95
Q 46.55 56.85 46.15 57.05 46 57.3 45.9 57.6 45.8 57.9 45.95 58.15 46.1 58.45 46.5 58.6
L 46.65 58.5 46.95 58.45
Q 47.25 58.3 47.35 57.7
L 47.4 57.65 47.35 57.6 47.1 57.1
M 49.75 55.85
L 49.65 55.85 49.25 55.75 48.7 55.85 48.65 55.95 48.65 56.2 48.4 56.6 48.4 56.8 48.55 57.2 48.6 57.25
Q 48.85 57.55 49.15 57.5
L 49.3 57.6 49.45 57.6 49.85 57.55
Q 50.2 57.3 50.15 56.8
L 50.05 56.45
Q 50.05 56.1 49.75 55.85
M 44.9 60.5
Q 44.9 60.6 45.2 60.75
L 45.6 60.7 45.65 60.65 45.7 60.7 45.65 60.7 45.65 60.8 45.7 60.95 45.8 61 45.75 61.05 45.9 61.35
Q 45.95 61.5 46.1 61.55
L 46.3 61.5 46.55 61.4 46.75 61.25 46.8 61.25
Q 46.9 61.15 47.05 60.8 47.1 60.5 46.85 60.4 46.7 60.15 46.45 60.1
L 46.4 60.05 46.15 60.05 45.85 60.3
Q 45.95 60.15 45.85 60.05 45.8 59.85 45.55 59.75 45.25 59.7 45 59.8 44.75 59.9 44.8 60.35
L 44.9 60.5
M 41.9 58.35
L 41.8 58.5
Q 41.4 58.75 41.45 59.15 41.55 59.45 41.95 59.65
L 42.05 59.7 42.3 59.6 42.45 59.45 42.5 59.5
Q 42.5 59.45 42.65 59.3 42.75 59.15 42.7 58.95
L 42.7 58.75 42.65 58.7 42.6 58.55 42.25 58.35 41.9 58.35
M 44.1 54.95
L 43.85 54.95 43.75 54.9 43.55 54.95
Q 43.15 55.2 43.1 55.8
L 43.05 56.2 43.5 56.65 43.8 56.7
Q 44 57.05 44.35 57.15
L 44.85 57.1 45 57 45.1 56.8 45.15 56.85 45.25 56.6 45.2 56.6 45.25 56.3 45.2 56.05 44.85 55.65 45.05 55.8
Q 44.85 55.6 44.75 55.5 44.5 55.15 44.1 54.95
M 46.75 55.25
L 46.2 55.1
Q 45.7 55.35 45.55 55.65 45.6 55.85 45.55 55.85 45.5 56.15 45.8 56.45 46.15 56.75 46.5 56.65 46.8 56.7 46.95 56.35
L 47.05 55.8
Q 46.95 55.5 46.75 55.25
M 46.05 54.1
L 46.2 53.95 46.3 53.45 45.9 53.05 45.95 53.2 45.55 52.8 45.4 52.85 44.9 52.95 44.65 53.15 44.7 53.9 44.9 54.1 45.25 53.75 45.05 54.2
Q 45.6 54.6 46.05 54.1
M 49.25 50.7
L 49.1 50.45 49.05 50.45 48.7 50.15 48.7 50.2 48.45 50.1 48.2 50.15 47.75 50.55
Q 47.6 51.05 47.95 51.45
L 47.95 51.5 48.25 51.8
Q 48.55 52.25 49.05 52.05
L 49.2 51.9 49.35 51.8
Q 49.65 51.55 49.45 51.15 49.5 50.95 49.25 50.7
M 58.4 60.45
L 58.25 60.6 58.45 61.25 58.9 61.15 59.05 60.9
Q 59.2 60.3 58.75 60.25
L 58.4 60.35 58.4 60.45
M 60 56.15
L 59.85 55.9 59.65 55.75 59.4 55.7 59.15 55.85 59 56.1 59.05 56.45 59.3 56.65 59.5 56.6 59.75 56.6 60 56.15
M 53.1 61.35
Q 52.8 61.35 52.7 61.6
L 52.75 61.9 52.95 62.2 53.25 62.3 53.6 62.3
Q 53.7 62.45 53.85 62.45
L 54.2 62.4 54.35 62.25
Q 54.5 62.05 54.3 61.9 54.45 61.4 54 61.2 53.85 60.95 53.6 60.95 53.5 60.9 53.25 61.05
L 53.1 61.35
M 51.7 60.7
Q 51.6 60.95 51.75 61.2 51.8 61.35 52 61.4 52.45 61.5 52.55 61.25 52.75 61.1 52.55 60.7
L 52.25 60.65 52.1 60.6 51.7 60.7
M 53.7 57.85
L 53.35 57.8 53.2 57.75 52.85 57.9
Q 52.4 58.2 52.45 58.6 52.55 59 52.7 59.3
L 52.8 59.35 52.95 59.45 53.25 59.55
Q 53.85 59.45 54 58.95
L 53.95 58.9 54.05 58.65 53.85 58.1 53.7 57.85
M 54.1 54.9
L 53.7 55
Q 53.25 55.25 53.3 55.7 53.25 56 53.55 56.25
L 53.7 56.35 54.1 56.5 54.5 56.45
Q 54.85 56.25 54.9 55.75 54.95 55.4 54.6 55.1
L 54.6 55 54.1 54.9
M 50.95 53.65
L 50.65 53.6 50.55 53.2
Q 50.35 52.7 49.7 52.9
L 49.6 52.9 49.45 52.95 49.05 53.25
Q 48.8 53.9 49.35 54.45
L 49.7 54.6 49.85 54.6 49.9 54.8 50.4 55.1 51.05 55
Q 51.3 54.65 51.3 54.35 51.35 54.05 51.05 53.85
L 50.95 53.65
M 52.85 52.9
L 52.85 53.05 52.95 53.55
Q 53.35 53.8 53.7 53.85 53.95 53.75 54.2 53.55 54.45 53.3 54.4 52.9
L 54.25 52.55
Q 53.75 51.95 53.05 52.45
L 52.85 52.9
M 56.3 52.25
L 56.1 52.55 56 53 56.05 53.25 56.65 53.95 56.7 54 56.9 54.35
Q 57.4 54.55 57.8 54.15 58.2 53.75 57.75 53.2
L 57.55 53 57.65 52.45 57.55 52.3 57.5 52.3 57.7 51.7 57.7 51.6 57.45 51.05 57.4 51.05 56.85 50.85 56.4 51.05 56.25 51.15 56.2 51.6 56.15 51.75 56.3 52.2 56.3 52.25
M 65.2 71.7
Q 65.05 71.55 64.9 71.7
L 64.95 71.9 65 71.95 65 71.8 65.05 72 65.3 71.95 65.35 71.8
Q 65.35 71.7 65.2 71.7
M 64.85 67.75
L 64.75 67.95 64.95 68.15 65.1 68.1 65.15 67.9 65 67.65 64.85 67.75
M 62.65 67.8
Q 62.8 67.55 62.6 67.4
L 62.5 67.4
Q 62.3 67.5 62.35 67.65 62.35 67.7 62.55 67.85
L 62.65 67.8
M 62.3 63.4
L 62.2 63.35
Q 61.75 63.3 61.55 63.8
L 61.6 64 61.6 64.2 61.85 64.3
Q 62.05 64.35 62.25 64.3 62.5 64.1 62.55 63.85
L 62.45 63.5 62.3 63.4
M 70.2 60.9
Q 70.25 60.85 70.15 60.75
L 69.95 60.7
Q 69.8 60.8 69.75 60.9 69.75 61.05 69.9 61.2
L 70.1 61.15 70.15 61.05 70.2 60.9
M 61.45 60.2
L 61.4 59.75 61 59.45 60.75 59.5 60.55 59.75 60.55 59.95 60.5 60.1 60.55 60.25 60.75 60.45
Q 61.2 60.6 61.45 60.2
M 63.75 58.4
L 63.5 58.7 63.55 58.95 63.75 59.2
Q 64.3 59.45 64.7 59
L 64.45 58.85 64.4 58.75 64.65 58.65
Q 64.6 58.3 64.3 58.25 64.15 58.2 63.75 58.4
M 65.6 56.25
L 65.7 56.05 65.95 55.85 65.85 55.7 65.35 55.5 65.05 55.75
Q 64.8 56.1 65.2 56.45
L 65.5 56.55 65.6 56.5 65.6 56.25
M 64.1 55.5
L 63.85 55.6 63.7 55.7 63.5 55.95
Q 63.4 56.35 63.65 56.7
L 64.25 56.5 64.3 56.3
Q 64.5 56 64.45 55.85 64.4 55.65 64.1 55.5
M 60.85 54.3
L 60.75 54.2 60.55 54.2
Q 60.15 54.1 59.9 54.5
L 59.9 54.65 59.75 54.8 59.8 55.05
Q 59.95 55.3 60.35 55.4
L 60.5 55.45 60.8 55.3 61 54.9 61 54.85
Q 61.05 54.7 60.85 54.3
M 61.9 53.95
Q 61.75 53.85 61.55 53.95 61.45 54.1 61.3 54.25 61.2 54.8 61.6 54.85
L 61.85 54.7 62 54.8 62.2 54.55 62.15 54.45 62.05 54.1 61.9 53.95
M 62.4 50.45
L 62.25 50.2 62.1 50.2
Q 61.85 50.2 61.7 50.3 61.5 50.45 61.45 50.65
L 61.5 50.9 61.75 51.15
Q 62.05 51.2 62.35 50.9
L 62.45 50.7 62.4 50.45
M 68.1 54.2
Q 68.3 54.05 68.25 53.9
L 68.15 53.65
Q 67.95 53.6 67.9 53.75 67.85 53.95 67.9 54.1
L 68.1 54.2
M 74.55 57.1
Q 74.65 56.95 74.6 56.85 74.6 56.7 74.5 56.65
L 74.3 56.65
Q 74.2 56.7 74.15 56.85
L 74.2 57 74.35 57.15 74.55 57.1
M 39 76.35
Q 39.1 76.2 38.85 76
L 38.65 76 38.6 76.2
Q 38.6 76.3 38.75 76.4
L 38.8 76.45 39 76.35
M 35.35 64.45
L 35.05 64.3 34.95 64.35
Q 34.85 64.45 34.85 64.55
L 34.95 64.7
Q 35 64.8 35.25 64.75
L 35.4 64.65 35.35 64.45
M 28.2 63.25
L 28.1 63.2 27.95 63.25 27.85 63.3 27.8 63.45 27.95 63.55 28.05 63.55 28.2 63.5 28.2 63.25
M 25.1 54.9
Q 25.15 54.8 24.95 54.75
L 24.85 54.75 24.75 54.85 24.8 55.05 24.9 55.1 25.1 55.1 25.1 54.9
M 20.65 50.1
L 20.65 50
Q 20.45 49.85 20.15 49.9
L 20.1 49.9 20.1 50.15 20.5 50.3
Q 20.6 50.25 20.65 50.1
M 39.7 56.8
L 39.45 56.55 39.2 56.85 39.1 57 39.55 57.4
Q 39.8 57.05 39.7 56.8
M 40.1 53.95
L 39.85 54
Q 39.6 53.95 39.45 54.25
L 39.45 54.55 39.5 54.65 39.65 54.8
Q 39.75 54.9 39.85 54.95
L 40.15 54.9 40.35 54.75 40.4 54.5
Q 40.55 54.15 40.1 53.95
M 36.45 55.65
Q 36.4 55.55 36.1 55.4 35.65 55.3 35.4 55.6
L 35.3 55.9 35.4 56.1
Q 35.55 56.3 35.65 56.35
L 35.85 56.35 36.35 56.2 36.45 55.85 36.45 55.65
M 38.25 50.7
L 38.55 50.75 38.7 50.8
Q 39.1 50.75 39.2 50.3
L 39.25 50.2
Q 39.1 49.95 38.8 49.85 38.45 49.65 38.15 50.1 38 50.35 38.25 50.7
M 40.25 50.5
L 40.4 50.8 40.45 50.85 40.7 50.95 40.8 51.05
Q 41.65 51.35 41.95 50.6
L 41.9 50.15 41.8 50 41.5 49.65 41.15 49.5
Q 40.8 49.4 40.5 49.65 40.25 49.9 40.25 50.5
M 34.8 47.7
L 34.55 47.8 34.35 48 34.4 48.15 34.45 48.4 34.65 48.6 35.2 48.5 35.35 48.15 35.25 47.9 35 47.75 34.8 47.7
M 35.2 39.45
L 35.2 39.3 35 39.2 34.8 39.25
Q 34.75 39.3 34.75 39.55
L 34.85 39.65
Q 34.95 39.75 35.05 39.65
L 35.05 39.6
Q 35.15 39.55 35.2 39.45
M 39.45 43.2
L 39.4 43.2 39.2 43.7
Q 39.55 43.9 39.75 43.75 39.95 43.65 39.95 43.3
L 39.95 43.1 39.9 43 39.45 43.2
M 29.3 47
L 29.5 47 29.65 46.85
Q 29.6 46.7 29.45 46.65
L 29.3 46.65
Q 29.1 46.8 29.3 47
M 26.8 36.75
L 26.85 36.6
Q 26.75 36.5 26.6 36.5
L 26.35 36.75 26.4 36.9 26.45 36.95
Q 26.65 37.05 26.8 36.85
L 26.85 36.8 26.8 36.75
M 39.6 36.7
L 39.65 36.6
Q 39.65 36.75 39.75 36.8
L 39.85 36.75
Q 39.85 36.7 40 36.55 40 36.45 39.8 36.35 39.6 36.3 39.6 36.45 39.4 36.45 39.6 36.7
M 34.7 32.15
L 34.65 32.25 34.65 32.5 34.75 32.6 35 32.65 35.05 32.6 35.1 32.4
Q 35.1 32.15 34.7 32.15
M 75.55 47.75
Q 75.4 47.7 75.3 47.8
L 75.2 47.9 75.25 48.1
Q 75.45 48.1 75.6 48.05
L 75.55 47.75
M 67.15 46.15
Q 67.05 46.1 67 46.25
L 66.8 46.55 66.9 46.7 66.95 46.7
Q 67.45 46.65 67.45 46.35
L 67.45 46.2 67.35 46.1 67.15 46.15
M 69.05 44
L 69.1 44
Q 69.25 44.1 69.25 43.85 69.3 43.8 69.15 43.7 69 43.6 68.9 43.5
L 68.75 43.6 68.75 43.7 68.65 43.8 68.65 44 68.85 44.05 69.05 44
M 63.1 48.85
Q 62.85 48.95 62.8 49.2 62.7 49.6 63.1 49.75
L 63.4 49.8 63.5 49.75 63.65 49.7
Q 63.75 49.7 63.8 49.5
L 63.85 49.25 63.55 48.8 63.35 48.8 63.25 48.75 63.1 48.85
M 61.9 43.7
Q 61.8 43.55 61.55 43.5 61.35 43.35 61.15 43.55 60.9 43.65 60.85 44
L 60.95 44.2 61.2 44.35 61.55 44.5 61.7 44.4 61.8 44.3
Q 62 43.95 61.9 43.7
M 65.5 43.25
L 65.45 43.3 65.55 43.3 65.55 43.15
Q 65.5 43.05 65.4 43
L 65.3 43.05
Q 65.15 43.15 65.2 43.3 65.2 43.35 65.3 43.4
L 65.5 43.25
M 64.75 35.85
Q 64.6 36 64.75 36.1
L 64.85 36.1
Q 65.05 36.1 65.1 35.9 65.15 35.75 64.85 35.7
L 64.8 35.8 64.75 35.85
M 75.55 36.15
L 75.55 36.2 75.65 36.25 75.75 36.35
Q 75.85 36.25 75.9 36.15 75.9 35.9 75.6 35.9
L 75.5 36 75.55 36.15
M 59.25 49.45
L 59.1 49.4
Q 58.75 49.35 58.45 49.6 58.15 49.75 58.1 50.15
L 58.25 50.7 58.65 50.95
Q 59.05 51.1 59.45 50.8 59.7 50.65 59.65 50.1
L 59.55 49.75 59.25 49.45
M 60.2 47.7
L 60.05 47.4
Q 59.85 46.95 59.4 46.85
L 59.1 46.75 58.8 46.8 58.45 47.15
Q 58.3 47.5 58.4 47.8 58.55 48.15 58.95 48.3
L 59.25 48.5
Q 59.9 48.65 60.2 48.05
L 60.2 47.7
M 60.6 47.05
L 60.6 47.3 60.9 47.55 61.35 47.65 61.45 47.6 61.55 47.4
Q 61.7 47.2 61.65 47 61.55 46.75 61.35 46.7 60.7 46.5 60.6 47.05
M 60.5 45.05
Q 60.3 45.4 60.7 45.5
L 60.8 45.25 60.9 45.25 60.85 45.05 60.8 45.05 60.95 44.8
Q 60.5 44.75 60.5 45.05
M 55.1 49.2
Q 54.85 48.95 54.4 49.15
L 54 49.4
Q 53.95 49.4 53.95 49.55 53.9 49.75 54 50.1
L 54.2 50.45
Q 54.7 50.9 55.15 50.4 55.4 50.25 55.35 50.05
L 55.45 50 55.4 49.55 55.1 49.2
M 54.55 46.7
Q 54.35 47.05 54.4 47.35 54.4 47.75 54.7 48
L 54.85 48
Q 55.4 48.5 55.85 48
L 56.1 47.8 56.05 47.65 56.15 47.45
Q 56.15 47.1 55.75 46.8
L 55.65 46.8 55.65 46.75
Q 55.1 46.2 54.55 46.7
M 52.75 47.2
L 52.55 46.85 52.6 46.85
Q 52.2 46.6 52.15 46.65
L 51.8 46.55 51.35 46.75 51.25 47.25 51.15 47.45 51.3 47.9
Q 52.1 48.55 52.6 47.95
L 52.7 47.85 52.75 47.3 52.75 47.2
M 52 43.8
L 51.95 43.75
Q 51.55 43.6 51.3 43.8 51.25 43.85 51.2 43.9
L 50.9 44.2 50.75 44.6 50.95 45.05 51.35 45.35 51.35 45.25 51.5 45.35 51.65 45.35 52.1 45.2 52.15 45.15
Q 52.55 44.65 52.35 44.25
L 52 43.8
M 55.15 42.95
Q 54.65 42.95 54.55 43.2
L 54.5 43.4 54.5 43.55
Q 54.5 43.85 54.8 44.35 55.05 44.55 55.35 44.5 55.9 44.45 56 44.15 56.4 43.7 55.8 43.15 55.6 42.8 55.15 42.95
M 52.75 37.85
L 52.55 37.65 52.5 37.5 52.5 37.4 52.2 37.35 51.9 37.2 51.95 37.35 51.9 37.65 51.95 37.8 52.1 38
Q 52.55 38.05 52.75 37.85
M 54.05 39.85
L 53.85 40.05
Q 53.85 40.2 53.8 40.2
L 53.85 40.3
Q 53.95 40.55 54.3 40.7 54.65 40.7 54.9 40.6
L 55.05 40.4 55.1 40.2 55.05 40 54.5 39.7 54.45 39.8 54.25 39.7 54.05 39.85
M 60.45 42.45
L 60.6 42.65 60.8 42.85 60.9 42.3 60.95 42.25 60.95 42.15 60.35 42.4 60.45 42.45
M 57.9 37.45
Q 57.6 37.9 57.95 38.15
L 58.1 38.1
Q 58.25 37.95 58.15 37.85
L 58.2 37.8 58.15 37.75
Q 58.3 37.6 58.15 37.45
L 57.9 37.45
M 59.25 40.2
L 59.25 39.95 58.95 39.7 58.6 39.6 58.4 39.6 58.25 39.75 58.2 39.85
Q 57.85 40.3 58.35 40.7
L 58.6 40.75 58.8 40.7
Q 59.25 40.65 59.25 40.2
M 50.35 49.3
Q 50.2 49.25 50.3 49.4
L 50.1 49.55
Q 50 49.9 50.3 50.3 50.6 50.65 51 50.5
L 51.55 50.35
Q 51.8 49.8 51.5 49.4
L 51.25 49.05
Q 50.85 48.75 50.35 49.3
M 46.5 49.25
L 46.2 49.1 45.7 49.25 45.6 49.4
Q 45.25 49.75 45.4 50.1
L 45.4 50.25
Q 45.5 50.7 45.9 50.7 46.35 50.8 46.65 50.55 46.85 50.3 46.9 50 46.8 49.55 46.5 49.25
M 47.4 47.7
L 46.9 47.55 46.7 47.65 46.3 48.2 46.35 48.05 46.25 48.15 46.2 48.35 46.3 48.8
Q 46.5 49.15 47 49.15 47.15 49.2 47.2 49.15
L 47.35 49.15 47.85 48.7
Q 48.05 48.15 47.4 47.7
M 47.7 46.25
Q 47.6 46.05 47.15 45.95 46.85 45.95 46.5 46.25 46.25 46.55 46.3 46.9
L 46.4 47.25 46.5 47.3 46.8 47.5
Q 47.15 47.6 47.55 47.3
L 47.85 46.9 47.9 46.7 47.7 46.25
M 44.7 46.6
L 44.7 46.65 44.45 46.75
Q 44.1 47.15 44.2 47.55
L 44.45 47.95
Q 44.95 48.35 45.35 47.95 45.5 47.95 45.45 47.9 45.75 47.95 45.9 47.75
L 46.15 47.4 46.2 47.2 46.1 46.85
Q 45.85 46.55 45.5 46.4 45 46.35 44.7 46.6
M 42.75 46.05
L 42 46.05 41.8 46.25 41.6 46.55
Q 41.4 47.3 42.15 47.7
L 42.7 47.65 42.95 47.5
Q 43.35 47.25 43.25 46.8
L 43.25 46.5
Q 43.05 46.1 42.75 46.05
M 40.75 46.15
Q 40.9 45.95 40.9 45.75
L 40.85 45.5 40.75 45.4 40.75 45.2
Q 40.8 44.85 40.35 44.75
L 40.35 44.7 40.15 44.75 39.95 44.85 39.85 44.95
Q 39.65 45.35 39.85 45.6
L 39.95 45.85 40 46.05 40.35 46.2
Q 40.6 46.3 40.75 46.15
M 41.1 41.65
Q 40.95 42.25 41.35 42.3
L 41.7 42.05 41.75 42
Q 41.9 41.95 41.8 41.7
L 41.8 41.5 41.7 41.35
Q 41.6 41.25 41.3 41.35 41.15 41.45 41.1 41.65
M 44.15 39.45
L 43.5 39.2
Q 43.1 39.1 43 39.55 42.8 40.05 43.35 40.2
L 43.4 40.2 43.55 40.15 43.8 40.25 44 40.1 44.15 39.9 44.25 39.7 44.15 39.45
M 44.7 37.5
L 44.55 37.3 44.2 37.2
Q 43.95 37.05 43.75 37.2 43.55 37.3 43.5 37.55
L 43.55 37.75 43.65 37.95 43.8 38.05
Q 44.35 38.25 44.7 37.9
L 44.7 37.5
M 49.4 40.9
L 49.4 40.7 49.3 40.55 49.05 40.35
Q 48.75 40.35 48.65 40.5 48.45 40.65 48.35 40.9
L 48.35 41.1 48.7 41.4 48.8 41.45 49.05 41.4 49.35 41.1 49.4 40.9
M 47.9 42.25
Q 47.5 42.55 47.5 42.9 47.25 43.3 47.45 43.7
L 47.5 43.8 47.7 44.1 47.8 44.05
Q 48.4 44.4 48.75 44.05 49.2033203125 44.082421875 49.35 43.8 49.45 43.6466796875 49.45 43.4
L 49.45 42.65
Q 49.4 42.5 49.25 42.15
L 49.05 42.1 48.65 41.95 48.1 42.2 48.1 42.25 47.9 42.25
M 46.45 38.3
L 46.6 38.5 46.75 38.55
Q 47.15 38.65 47.4 38.25 47.7 37.75 47.25 37.45
L 47.05 37.35 46.95 37.35
Q 46.6 37.4 46.5 37.75 46.25 38 46.45 38.3
M 50.6 39.85
L 50.5 40.2 50.45 40.25
Q 50.25 40.5 50.3 40.9
L 50.6 41.35 51.2 41.55
Q 51.85 41.55 52.05 40.9
L 51.85 40.15 51.7 40.05 51.5 40
Q 51.45 39.75 51.15 39.6
L 50.9 39.7 50.75 39.8 50.7 39.85 50.6 39.85
M 50.2 38
Q 50.3 38.4 50.6 38.5
L 50.9 38.5
Q 51.25 38.35 51.2 38 51.2 37.6 50.9 37.45
L 50.8 37.4 50.65 37.4 50.5 37.45
Q 50.2 37.6 50.2 38
M 43.8 24.85
L 43.8 24.75 43.65 24.75 43.5 24.8 43.5 25 43.6 25.15 43.8 25.1 43.85 25.05 43.8 24.85
M 51.6 35.65
L 51.7 35.65
Q 51.85 35.35 51.65 35.3
L 51.5 35.35 51.4 35.4 51.4 35.45 51.6 35.65
M 52.1 30.25
L 52.2 30.35 52.45 30.35 52.4 30.15 52.4 30.05 52.2 30.05 52.1 30.25
M 59.9 29.9
Q 60.05 29.95 60.15 29.8 60.25 29.7 60.1 29.5
L 59.95 29.55 59.85 29.75 59.9 29.9 Z"/>
</g>
</defs>

<g transform="matrix( 1, 0, 0, 1, 0,0) ">
<use xlink:href="#Layer2_0_FILL"/>
</g>
</svg>
