
<svg xmlns="http://www.w3.org/2000/svg" version="1.1" xmlns:xlink="http://www.w3.org/1999/xlink" preserveAspectRatio="none" x="0px" y="0px" width="100px" height="100px" viewBox="0 0 100 100">
<defs>
<g id="Layer2_0_FILL">
<path fill="#000000" stroke="none" d="
M 56.05 72.55
L 57.2 73.85 57.3 72.85 56.6 72.4 56.05 72.55
M 55.35 68.75
Q 55.35 68.55 55.2 68.4 55.1 68.3 54.9 68.3 54.7 68.3 54.55 68.4 54.45 68.55 54.45 68.75 54.45 68.95 54.55 69.05 54.7 69.2 54.9 69.2 55.1 69.2 55.2 69.05 55.35 68.95 55.35 68.75
M 53.75 64.65
Q 53.9 64.5 53.9 64.3 53.9 64.1 53.75 63.95 53.6 63.8 53.4 63.8 53.2 63.8 53.05 63.95 52.9 64.1 52.9 64.3 52.9 64.5 53.05 64.65 53.2 64.8 53.4 64.8 53.6 64.8 53.75 64.65
M 54.9 62.65
Q 54.9 62.4 54.7 62.2 54.55 62.05 54.3 62.05 54.05 62.05 53.85 62.2 53.7 62.4 53.7 62.65 53.7 62.9 53.85 63.05 54.05 63.25 54.3 63.25 54.55 63.25 54.7 63.05 54.9 62.9 54.9 62.65
M 56.4 64.65
Q 56.25 64.5 56.05 64.5 55.85 64.5 55.7 64.65 55.55 64.8 55.55 65 55.55 65.2 55.7 65.35 55.85 65.5 56.05 65.5 56.25 65.5 56.4 65.35 56.55 65.2 56.55 65 56.55 64.8 56.4 64.65
M 57.85 63.35
Q 57.85 63.15 57.7 63 57.55 62.85 57.35 62.85 57.15 62.85 57 63 56.85 63.15 56.85 63.35 56.85 63.55 57 63.7 57.15 63.85 57.35 63.85 57.55 63.85 57.7 63.7 57.85 63.55 57.85 63.35
M 47.25 69.3
Q 47.4 69.15 47.4 68.9 47.4 68.65 47.25 68.5 47.1 68.35 46.9 68.35 46.7 68.35 46.55 68.5 46.4 68.65 46.4 68.9 46.4 69.15 46.55 69.3 46.7 69.45 46.9 69.45 47.1 69.45 47.25 69.3
M 50.45 70.1
Q 50.45 70.3 50.6 70.4 50.75 70.55 50.95 70.55 51.15 70.55 51.3 70.4 51.45 70.3 51.45 70.1 51.45 69.9 51.3 69.75 51.15 69.65 50.95 69.65 50.75 69.65 50.6 69.75 50.45 69.9 50.45 70.1
M 50.1 68.85
Q 50.25 69 50.45 69 50.65 69 50.75 68.85 50.9 68.75 50.9 68.55 50.9 68.35 50.75 68.2 50.65 68.1 50.45 68.1 50.25 68.1 50.1 68.2 50 68.35 50 68.55 50 68.75 50.1 68.85
M 43.45 69.35
Q 43.45 69.15 43.3 69 43.15 68.85 42.95 68.85 42.75 68.85 42.6 69 42.45 69.15 42.45 69.35 42.45 69.55 42.6 69.7 42.75 69.85 42.95 69.85 43.15 69.85 43.3 69.7 43.45 69.55 43.45 69.35
M 42.55 67.35
Q 42.75 67.35 42.9 67.2 43.05 67.1 43.05 66.9 43.05 66.7 42.9 66.55 42.75 66.45 42.55 66.45 42.35 66.45 42.2 66.55 42.05 66.7 42.05 66.9 42.05 67.1 42.2 67.2 42.35 67.35 42.55 67.35
M 43.25 64.6
Q 43.4 64.45 43.4 64.25 43.4 64.05 43.25 63.9 43.15 63.75 42.95 63.75 42.75 63.75 42.6 63.9 42.5 64.05 42.5 64.25 42.5 64.45 42.6 64.6 42.75 64.75 42.95 64.75 43.15 64.75 43.25 64.6
M 50 66.7
Q 50.15 66.85 50.35 66.85 50.55 66.85 50.7 66.7 50.85 66.55 50.85 66.35 50.85 66.15 50.7 66 50.55 65.85 50.35 65.85 50.15 65.85 50 66 49.85 66.15 49.85 66.35 49.85 66.55 50 66.7
M 47.05 65.45
Q 47.05 65.25 46.9 65.1 46.8 64.95 46.6 64.95 46.4 64.95 46.25 65.1 46.15 65.25 46.15 65.45 46.15 65.65 46.25 65.8 46.4 65.95 46.6 65.95 46.8 65.95 46.9 65.8 47.05 65.65 47.05 65.45
M 46.45 62.65
Q 46.45 62.45 46.3 62.3 46.15 62.15 45.95 62.15 45.75 62.15 45.6 62.3 45.45 62.45 45.45 62.65 45.45 62.85 45.6 63 45.75 63.15 45.95 63.15 46.15 63.15 46.3 63 46.45 62.85 46.45 62.65
M 49.9 64.8
Q 49.75 64.65 49.55 64.65 49.35 64.65 49.2 64.8 49.05 64.95 49.05 65.15 49.05 65.35 49.2 65.5 49.35 65.65 49.55 65.65 49.75 65.65 49.9 65.5 50.05 65.35 50.05 65.15 50.05 64.95 49.9 64.8
M 50.45 63.35
Q 50.45 63.1 50.3 62.95 50.15 62.8 49.95 62.8 49.75 62.8 49.6 62.95 49.45 63.1 49.45 63.35 49.45 63.6 49.6 63.75 49.75 63.9 49.95 63.9 50.15 63.9 50.3 63.75 50.45 63.6 50.45 63.35
M 50.45 60.8
Q 50.45 60.6 50.3 60.45 50.15 60.3 49.95 60.3 49.75 60.3 49.6 60.45 49.45 60.6 49.45 60.8 49.45 61 49.6 61.15 49.75 61.3 49.95 61.3 50.15 61.3 50.3 61.15 50.45 61 50.45 60.8
M 48 59.35
Q 47.8 59.55 47.8 59.85 47.8 60.15 48 60.35 48.2 60.55 48.45 60.55 48.7 60.55 48.9 60.35 49.1 60.15 49.1 59.85 49.1 59.55 48.9 59.35 48.7 59.15 48.45 59.15 48.2 59.15 48 59.35
M 46.65 58.3
Q 46.5 58.45 46.5 58.7 46.5 58.7521484375 46.5 58.8 46.65 58.9 46.8 59 47.5 59.65 47.7 58.8 47.7 58.7521484375 47.7 58.7 47.7 58.45 47.5 58.3 47.35 58.15 47.1 58.15 46.85 58.15 46.65 58.3
M 46.6 56.1
Q 46.6 55.85 46.45 55.7 46.3 55.55 46.1 55.55 45.9 55.55 45.75 55.7 45.6 55.85 45.6 56.1 45.6 56.35 45.75 56.5 45.9 56.65 46.1 56.65 46.3 56.65 46.45 56.5 46.6 56.35 46.6 56.1
M 47.9 56.55
Q 47.9 56.35 47.75 56.2 47.6 56.1 47.4 56.1 47.2 56.1 47.05 56.2 46.9 56.35 46.9 56.55 46.9 56.75 47.05 56.85 47.2 57 47.4 57 47.6 57 47.75 56.85 47.9 56.75 47.9 56.55
M 48.5 57.8
Q 48.5 57.6 48.35 57.45 48.2 57.35 48 57.35 47.8 57.35 47.65 57.45 47.5 57.6 47.5 57.8 47.5 58 47.65 58.1 47.8 58.25 48 58.25 48.2 58.25 48.35 58.1 48.5 58 48.5 57.8
M 43.6 61.3
L 43.8 60.4 42.3 61.3 43.6 61.3
M 41.9 57.85
Q 41.9 57.68671875 41.8 57.55
L 40.9 57.85 41.8 58.15
Q 41.9 58.01328125 41.9 57.85
M 42.75 57.95
Q 42.6 57.85 42.4 57.85 42.2 57.85 42.05 57.95 41.9 58.1 41.9 58.3 41.9 58.5 42.05 58.6 42.2 58.75 42.4 58.75 42.6 58.75 42.75 58.6 42.9 58.5 42.9 58.3 42.9 58.1 42.75 57.95
M 45.4 57.85
Q 45.15 57.85 45 58 44.85 58.15 44.85 58.35 44.85 58.55 45 58.7 45.0634765625 58.7634765625 45.15 58.8
L 45.65 58.8
Q 45.7365234375 58.7634765625 45.8 58.7 45.95 58.55 45.95 58.35 45.95 58.15 45.8 58 45.65 57.85 45.4 57.85
M 44.1 58.2
Q 43.9 58.2 43.75 58.35 43.65 58.5 43.65 58.7 43.65 58.7517578125 43.65 58.8 43.75 58.9 43.85 59 44.4 59.6 44.55 58.8 44.55 58.7517578125 44.55 58.7 44.55 58.5 44.4 58.35 44.3 58.2 44.1 58.2
M 43.9 57.05
Q 44.1 57.05 44.25 56.9 44.4 56.75 44.4 56.55 44.4 56.35 44.25 56.2 44.1 56.05 43.9 56.05 43.7 56.05 43.55 56.2 43.4 56.35 43.4 56.55 43.4 56.75 43.55 56.9 43.7 57.05 43.9 57.05
M 43.75 53.45
L 44.1 52.8 43.7 52.6 43.25 51.7 42.6 51.85 42.9 52.7 43.75 53.45
M 45.45 53.65
Q 45.3 53.5 45.1 53.5 44.9 53.5 44.75 53.65 44.6 53.8 44.6 54 44.6 54.2 44.75 54.35 44.9 54.5 45.1 54.5 45.3 54.5 45.45 54.35 45.6 54.2 45.6 54 45.6 53.8 45.45 53.65
M 42.05 55.55
Q 41.948046875 55.448046875 41.8 55.4 41.5 55.4 41.3 55.55 41.1 55.7 41.1 55.95 41.1 56.2 41.3 56.35 41.5 56.5 41.8 56.45 41.948046875 56.451953125 42.05 56.35 42.2 56.2 42.2 55.95 42.2 55.7 42.05 55.55
M 41.3 53.95
Q 41.15 53.8 40.95 53.8 40.75 53.8 40.6 53.95 40.45 54.1 40.45 54.3 40.45 54.5 40.6 54.65 40.75 54.8 40.95 54.8 41.15 54.8 41.3 54.65 41.45 54.5 41.45 54.3 41.45 54.1 41.3 53.95
M 41.8 53.8
L 41.8 53.8
Q 41.8046875 54.0046875 41.95 54.15 42.1 54.3 42.35 54.3 42.6 54.3 42.75 54.15 42.9 54 42.9 53.8 42.9 53.6 42.75 53.45 42.6 53.3 42.35 53.3 42.1 53.3 41.95 53.45 41.8046875 53.5953125 41.8 53.8
M 41.5 51.65
Q 41.5 51.45 41.35 51.3 41.25 51.15 41.05 51.15 40.85 51.15 40.7 51.3 40.6 51.45 40.6 51.65 40.6 51.85 40.7 52 40.85 52.15 41.05 52.15 41.25 52.15 41.35 52 41.5 51.85 41.5 51.65
M 42.45 50
L 43 50.45 43.8 49.5 43.45 48.8 42.45 50
M 42.3 50.5
Q 42.45 50.35 42.45 50.15 42.45 49.95 42.3 49.8 42.15 49.65 41.95 49.65 41.87109375 49.65 41.8 49.65
L 41.8 50.6
Q 41.87109375 50.65 41.95 50.65 42.15 50.65 42.3 50.5
M 45.1 50.9
Q 44.95 50.75 44.75 50.75 44.55 50.75 44.4 50.9 44.25 51.05 44.25 51.25 44.25 51.45 44.4 51.6 44.55 51.75 44.75 51.75 44.95 51.75 45.1 51.6 45.25 51.45 45.25 51.25 45.25 51.05 45.1 50.9
M 47.95 54.85
Q 47.8 54.7 47.6 54.7 47.4 54.7 47.25 54.85 47.1 55 47.1 55.25 47.1 55.5 47.25 55.65 47.4 55.8 47.6 55.8 47.8 55.8 47.95 55.65 48.1 55.5 48.1 55.25 48.1 55 47.95 54.85
M 46.8 53.35
Q 46.7 53.2 46.5 53.2 46.3 53.2 46.15 53.35 46.05 53.5 46.05 53.7 46.05 53.9 46.15 54.05 46.3 54.2 46.5 54.2 46.7 54.2 46.8 54.05 46.95 53.9 46.95 53.7 46.95 53.5 46.8 53.35
M 47.4 53.15
Q 47.2 53.35 47.2 53.65 47.2 53.95 47.4 54.15 47.6 54.35 47.85 54.35 48.1 54.35 48.3 54.15 48.5 53.95 48.5 53.65 48.5 53.35 48.3 53.15 48.1 52.95 47.85 52.95 47.6 52.95 47.4 53.15
M 46.2 52.05
Q 46.2 51.8 46.05 51.65 45.9 51.5 45.7 51.5 45.5 51.5 45.35 51.65 45.2 51.8 45.2 52.05 45.2 52.3 45.35 52.45 45.5 52.6 45.7 52.6 45.9 52.6 46.05 52.45 46.2 52.3 46.2 52.05
M 46.65 50.4
Q 46.65 50.2 46.5 50.05 46.4 49.9 46.2 49.9 46 49.9 45.85 50.05 45.75 50.2 45.75 50.4 45.75 50.6 45.85 50.75 46 50.9 46.2 50.9 46.4 50.9 46.5 50.75 46.65 50.6 46.65 50.4
M 47.55 50.55
Q 47.3 50.55 47.15 50.7 47 50.85 47 51.05 47 51.25 47.15 51.4 47.3 51.55 47.55 51.55 47.8 51.55 47.95 51.4 48.1 51.25 48.1 51.05 48.1 50.85 47.95 50.7 47.8 50.55 47.55 50.55
M 49.25 50.95
L 48.9 51.85 49.4 51.9 49.8 51.55 49.25 50.95
M 59.75 61.85
Q 59.75 61.65 59.6 61.5 59.45 61.35 59.25 61.35 59.05 61.35 58.9 61.5 58.75 61.65 58.75 61.85 58.75 62.05 58.9 62.2 59.05 62.35 59.25 62.35 59.45 62.35 59.6 62.2 59.75 62.05 59.75 61.85
M 56.8 61.45
Q 56.65 61.6 56.65 61.85 56.65 62.1 56.8 62.25 56.95 62.4 57.2 62.4 57.45 62.4 57.6 62.25 57.75 62.1 57.75 61.85 57.75 61.6 57.6 61.45 57.45 61.3 57.2 61.3 56.95 61.3 56.8 61.45
M 56.5 61.1
Q 56.65 60.95 56.65 60.75 56.65 60.55 56.5 60.4 56.4 60.25 56.2 60.25 56 60.25 55.85 60.4 55.75 60.55 55.75 60.75 55.75 60.95 55.85 61.1 56 61.25 56.2 61.25 56.4 61.25 56.5 61.1
M 57.35 59.65
Q 57.5 59.5 57.5 59.3 57.5 59.1 57.35 58.95 57.25 58.8 57.05 58.8 56.85 58.8 56.7 58.95 56.6 59.1 56.6 59.3 56.6 59.5 56.7 59.65 56.85 59.8 57.05 59.8 57.25 59.8 57.35 59.65
M 59 57.3
L 58.3 56.8 57.2 57.7 59 57.3
M 59.4 57.7
Q 59.3 57.55 59.1 57.55 58.9 57.55 58.75 57.7 58.65 57.85 58.65 58.05 58.65 58.25 58.75 58.4 58.9 58.55 59.1 58.55 59.3 58.55 59.4 58.4 59.55 58.25 59.55 58.05 59.55 57.85 59.4 57.7
M 51.75 60.8
Q 51.75 60.6 51.6 60.45 51.45 60.3 51.25 60.3 51.05 60.3 50.9 60.45 50.75 60.6 50.75 60.8 50.75 61 50.9 61.15 51.05 61.3 51.25 61.3 51.45 61.3 51.6 61.15 51.75 61 51.75 60.8
M 52.45 60.2
Q 52.65 60 52.65 59.75 52.65 59.5 52.45 59.3 52.25 59.1 52 59.1 51.75 59.1 51.55 59.3 51.35 59.5 51.35 59.75 51.35 60 51.55 60.2 51.75 60.4 52 60.4 52.25 60.4 52.45 60.2
M 54.95 57.95
L 54.2 58.45 54.65 58.8 54.95 58.8 55.4 58.7 55.6 58.8 55.8 58.8 54.95 57.95
M 53.85 58.1
Q 53.85 57.9 53.7 57.75 53.55 57.6 53.35 57.6 53.15 57.6 53 57.75 52.85 57.9 52.85 58.1 52.85 58.3 53 58.45 53.15 58.6 53.35 58.6 53.55 58.6 53.7 58.45 53.85 58.3 53.85 58.1
M 54.7 54.9
L 52.95 54.9 52.95 55.7 54.7 55.7 54.7 54.9
M 54.1 53.65
Q 53.9 53.65 53.75 53.8 53.6 53.95 53.6 54.2 53.6 54.45 53.75 54.6 53.9 54.75 54.1 54.75 54.3 54.75 54.45 54.6 54.6 54.45 54.6 54.2 54.6 53.95 54.45 53.8 54.3 53.65 54.1 53.65
M 50.95 55.6
L 50.65 55.15 49.65 55.95 49.6 56.5 48.6 56.2 48.85 57.35 50.4 57.05 50.95 57.45 50.5 57.65 50.35 58.35 51.4 58.55 51.3 57.3 52.3 56.95 50.6 56.35 50.95 55.6
M 51.55 55
Q 51.35 55 51.2 55.15 51.05 55.3 51.05 55.5 51.05 55.7 51.2 55.85 51.35 56 51.55 56 51.75 56 51.9 55.85 52.05 55.7 52.05 55.5 52.05 55.3 51.9 55.15 51.75 55 51.55 55
M 50.65 53.5
L 51.15 53.45 51.15 52.65 50.4 53 49.95 52.85 49.7 52.3 48.8 51.9 48.5 52.9 50.4 53.9 50.65 53.5
M 52.55 53.65
Q 52.4 53.5 52.15 53.5 51.9 53.5 51.75 53.65 51.6 53.8 51.6 54 51.6 54.2 51.75 54.35 51.9 54.5 52.15 54.5 52.4 54.5 52.55 54.35 52.7 54.2 52.7 54 52.7 53.8 52.55 53.65
M 51.2 52.1
L 52.05 52.4 51.4 50.7 50.35 50.95 50.05 51.65 50.9 51.65 51.2 52.1
M 55.4 52.25
Q 55.25 52.1 55 52.1 54.75 52.1 54.55 52.25 54.4 52.4 54.4 52.65 54.4 52.9 54.55 53.05 54.75 53.2 55 53.2 55.25 53.2 55.4 53.05 55.6 52.9 55.6 52.65 55.6 52.4 55.4 52.25
M 53.7 52.2
Q 53.7 52 53.55 51.85 53.4 51.75 53.2 51.75 53 51.75 52.85 51.85 52.7 52 52.7 52.2 52.7 52.4 52.85 52.5 53 52.65 53.2 52.65 53.4 52.65 53.55 52.5 53.7 52.4 53.7 52.2
M 55.05 50.9
Q 54.9 50.75 54.7 50.75 54.5 50.75 54.35 50.9 54.2 51.05 54.2 51.25 54.2 51.45 54.35 51.6 54.5 51.75 54.7 51.75 54.9 51.75 55.05 51.6 55.2 51.45 55.2 51.25 55.2 51.05 55.05 50.9
M 55.95 55.6
Q 55.95 55.3 55.8 55.1 55.65 54.9 55.4 54.9 55.15 54.9 55 55.1 54.85 55.3 54.85 55.6 54.85 55.9 55 56.1 55.15 56.3 55.4 56.3 55.65 56.3 55.8 56.1 55.95 55.9 55.95 55.6
M 58.15 53.5
Q 58 53.7 58 53.95 58 54.2 58.15 54.4 58.35 54.6 58.6 54.6 58.85 54.6 59 54.4 59.2 54.2 59.2 53.95 59.2 53.7 59 53.5 58.85 53.3 58.6 53.3 58.35 53.3 58.15 53.5
M 56.95 51.8
Q 56.75 51.95 56.75 52.2 56.75 52.45 56.95 52.6 57.15 52.75 57.45 52.75 57.75 52.75 57.95 52.6 58.15 52.45 58.15 52.2 58.15 51.95 57.95 51.8 57.75 51.65 57.45 51.65 57.15 51.65 56.95 51.8
M 56.5 50.95
Q 56.65 50.8 56.65 50.6 56.65 50.4 56.5 50.25 56.35 50.1 56.15 50.1 55.95 50.1 55.8 50.25 55.65 50.4 55.65 50.6 55.65 50.8 55.8 50.95 55.95 51.1 56.15 51.1 56.35 51.1 56.5 50.95
M 59 50.5
L 59.8 50.95 60.15 50.25 58.75 49.55
Q 58.65 49.7 58.6 49.9 58.5 50.5 59 50.5
M 64.3 66.65
Q 64.3 66.45 64.15 66.3 64 66.15 63.8 66.15 63.6 66.15 63.45 66.3 63.3 66.45 63.3 66.65 63.3 66.85 63.45 67 63.6 67.15 63.8 67.15 64 67.15 64.15 67 64.3 66.85 64.3 66.65
M 61 64.65
Q 61.15 64.5 61.15 64.3 61.15 64.1 61 63.95 60.85 63.8 60.65 63.8 60.45 63.8 60.3 63.95 60.15 64.1 60.15 64.3 60.15 64.5 60.3 64.65 60.45 64.8 60.65 64.8 60.85 64.8 61 64.65
M 61.15 56.4
L 61.15 54.85 60.35 54.85 60.35 56.4 61.15 56.4
M 67.85 59.8
Q 68.05 59.8 68.2 59.65 68.35 59.5 68.35 59.3 68.35 59.1 68.2 58.95 68.05 58.8 67.85 58.8 67.65 58.8 67.5 58.95 67.35 59.1 67.35 59.3 67.35 59.5 67.5 59.65 67.65 59.8 67.85 59.8
M 61.35 61.8
Q 61.35 61.6 61.2 61.45 61.1 61.3 60.9 61.3 60.7 61.3 60.55 61.45 60.45 61.6 60.45 61.8 60.45 62 60.55 62.15 60.7 62.3 60.9 62.3 61.1 62.3 61.2 62.15 61.35 62 61.35 61.8
M 61.7 60.3
Q 61.85 60.15 61.85 59.95 61.85 59.75 61.7 59.6 61.6 59.45 61.4 59.45 61.2 59.45 61.05 59.6 60.95 59.75 60.95 59.95 60.95 60.15 61.05 60.3 61.2 60.45 61.4 60.45 61.6 60.45 61.7 60.3
M 62.85 58.6
Q 62.7 58.45 62.5 58.45 62.3 58.45 62.15 58.6 62.0591796875 58.6908203125 62 58.8 62.05 59.05 62.2 59.25 62.35 59.45 62.55 59.45 62.75 59.45 62.9 59.25 63.05 59.05 62.95 58.8 62.9408203125 58.6908203125 62.85 58.6
M 62.85 56.65
Q 63.05 56.65 63.2 56.5 63.35 56.35 63.35 56.15 63.35 55.95 63.2 55.8 63.05 55.65 62.85 55.65 62.65 55.65 62.5 55.8 62.35 55.95 62.35 56.15 62.35 56.35 62.5 56.5 62.65 56.65 62.85 56.65
M 64.7 58.3
Q 64.55 58.45 64.55 58.65 64.55 58.72890625 64.55 58.8
L 65.05 59.2 65.5 58.8
Q 65.55 58.72890625 65.55 58.65 65.55 58.45 65.4 58.3 65.25 58.15 65.05 58.15 64.85 58.15 64.7 58.3
M 65.05 57.2
Q 65.05 56.95 64.85 56.8 64.7 56.65 64.45 56.65 64.2 56.65 64 56.8 63.85 56.95 63.85 57.2 63.85 57.45 64 57.6 64.2 57.75 64.45 57.75 64.7 57.75 64.85 57.6 65.05 57.45 65.05 57.2
M 61.2 53.15
Q 61.2 52.95 61.05 52.8 60.9 52.7 60.7 52.7 60.5 52.7 60.35 52.8 60.2 52.95 60.2 53.15 60.2 53.35 60.35 53.45 60.5 53.6 60.7 53.6 60.9 53.6 61.05 53.45 61.2 53.35 61.2 53.15
M 63.1 52.5
Q 63 52.4 62.8 52.4 62.6 52.4 62.45 52.5 62.35 52.65 62.35 52.85 62.35 53.05 62.45 53.15 62.6 53.3 62.8 53.3 63 53.3 63.1 53.15 63.25 53.05 63.25 52.85 63.25 52.65 63.1 52.5
M 61.5 51.45
Q 61.5 51.25 61.35 51.1 61.2 50.95 61 50.95 60.8 50.95 60.65 51.1 60.5 51.25 60.5 51.45 60.5 51.65 60.65 51.8 60.8 51.95 61 51.95 61.2 51.95 61.35 51.8 61.5 51.65 61.5 51.45
M 64.8 51.45
Q 64.8 51.25 64.65 51.1 64.5 50.95 64.3 50.95 64.1 50.95 63.95 51.1 63.8 51.25 63.8 51.45 63.8 51.65 63.95 51.8 64.1 51.95 64.3 51.95 64.5 51.95 64.65 51.8 64.8 51.65 64.8 51.45
M 66.95 55.15
L 67.55 55.05 67.55 54.7 67.15 54.35 66.9 54.7 66.95 55.15
M 66.95 55.15
L 66.15 55.5 66.45 56 66.95 55.15
M 66.7 52.35
Q 66.7 52.15 66.55 52 66.45 51.85 66.25 51.85 66.05 51.85 65.9 52 65.8 52.15 65.8 52.35 65.8 52.55 65.9 52.7 66.05 52.85 66.25 52.85 66.45 52.85 66.55 52.7 66.7 52.55 66.7 52.35
M 67.55 50.65
Q 67.35 50.65 67.2 50.75 67.1 50.9 67.1 51.1 67.1 51.3 67.2 51.4 67.35 51.55 67.55 51.55 67.6 51.4 67.7 51.3 68.1 51.05 67.55 50.65
M 68.85 52.3
Q 69.05 52.3 69.15 52.15 69.3 52.05 69.3 51.85 69.3 51.65 69.15 51.5 69.05 51.4 68.85 51.4 68.65 51.4 68.5 51.5 68.4 51.65 68.4 51.85 68.4 52.05 68.5 52.15 68.65 52.3 68.85 52.3
M 71.45 59.4
Q 71.6 59.25 71.6 59.05 71.6 58.85 71.45 58.7 71.3 58.55 71.1 58.55 70.9 58.55 70.75 58.7 70.6 58.85 70.6 59.05 70.6 59.25 70.75 59.4 70.9 59.55 71.1 59.55 71.3 59.55 71.45 59.4
M 74.15 54.85
Q 74.15 54.65 74 54.5 73.85 54.35 73.65 54.35 73.45 54.35 73.3 54.5 73.15 54.65 73.15 54.85 73.15 55.05 73.3 55.2 73.45 55.35 73.65 55.35 73.85 55.35 74 55.2 74.15 55.05 74.15 54.85
M 34.95 67
Q 35.15 67 35.3 66.85 35.45 66.7 35.45 66.5 35.45 66.3 35.3 66.15 35.15 66 34.95 66 34.75 66 34.6 66.15 34.45 66.3 34.45 66.5 34.45 66.7 34.6 66.85 34.75 67 34.95 67
M 37.55 66.95
Q 37.55 66.7 37.4 66.55 37.25 66.4 37 66.4 36.75 66.4 36.6 66.55 36.45 66.7 36.45 66.95 36.45 67.2 36.6 67.35 36.75 67.5 37 67.5 37.25 67.5 37.4 67.35 37.55 67.2 37.55 66.95
M 40.35 63.9
Q 40.2 64.05 40.2 64.25 40.2 64.45 40.35 64.55 40.5 64.7 40.7 64.7 40.9 64.7 41.05 64.55 41.2 64.45 41.2 64.25 41.2 64.05 41.05 63.9 40.9 63.8 40.7 63.8 40.5 63.8 40.35 63.9
M 39.95 64
Q 40.2 64 40.35 63.85 40.5 63.7 40.5 63.5 40.5 63.3 40.35 63.15 40.2 63 39.95 63 39.7 63 39.55 63.15 39.4 63.3 39.4 63.5 39.4 63.7 39.55 63.85 39.7 64 39.95 64
M 29.8 51.95
Q 29.95 51.85 29.95 51.65 29.95 51.45 29.8 51.3 29.65 51.2 29.45 51.2 29.25 51.2 29.1 51.3 28.95 51.45 28.95 51.65 28.95 51.85 29.1 51.95 29.25 52.1 29.45 52.1 29.65 52.1 29.8 51.95
M 40.25 59.45
Q 40.1 59.6 40.1 59.8 40.1 60 40.25 60.15 40.4 60.3 40.6 60.3 40.8 60.3 40.95 60.15 41.1 60 41.1 59.8 41.1 59.6 40.95 59.45 40.8 59.3 40.6 59.3 40.4 59.3 40.25 59.45
M 39.4 59.4
Q 39.4 59.2 39.25 59.05 39.1 58.9 38.9 58.9 38.7 58.9 38.55 59.05 38.4 59.2 38.4 59.4 38.4 59.6 38.55 59.75 38.7 59.9 38.9 59.9 39.1 59.9 39.25 59.75 39.4 59.6 39.4 59.4
M 37.75 61.3
Q 37.9 61.15 37.9 60.95 37.9 60.75 37.75 60.6 37.6 60.45 37.4 60.45 37.2 60.45 37.05 60.6 36.9 60.75 36.9 60.95 36.9 61.15 37.05 61.3 37.2 61.45 37.4 61.45 37.6 61.45 37.75 61.3
M 37.8 57.4
Q 37.95 57.3 37.95 57.1 37.95 56.9 37.8 56.75 37.65 56.65 37.45 56.65 37.25 56.65 37.1 56.75 36.95 56.9 36.95 57.1 36.95 57.3 37.1 57.4 37.25 57.55 37.45 57.55 37.65 57.55 37.8 57.4
M 39.55 56.55
Q 39.7 56.4 39.7 56.15 39.7 55.9 39.55 55.75 39.4 55.6 39.15 55.6 38.9 55.6 38.75 55.75 38.6 55.9 38.6 56.15 38.6 56.4 38.75 56.55 38.9 56.7 39.15 56.7 39.4 56.7 39.55 56.55
M 35.25 59.85
Q 35.05 59.85 34.9 60 34.75 60.15 34.75 60.35 34.75 60.55 34.9 60.7 35.05 60.85 35.25 60.85 35.45 60.85 35.6 60.7 35.75 60.55 35.75 60.35 35.75 60.15 35.6 60 35.45 59.85 35.25 59.85
M 34 55.25
Q 34.15 55.1 34.15 54.9 34.15 54.7 34 54.55 33.85 54.4 33.65 54.4 33.45 54.4 33.3 54.55 33.15 54.7 33.15 54.9 33.15 55.1 33.3 55.25 33.45 55.4 33.65 55.4 33.85 55.4 34 55.25
M 40.05 53.25
Q 40.05 53.05 39.9 52.9 39.75 52.75 39.55 52.75 39.35 52.75 39.2 52.9 39.05 53.05 39.05 53.25 39.05 53.45 39.2 53.6 39.35 53.75 39.55 53.75 39.75 53.75 39.9 53.6 40.05 53.45 40.05 53.25
M 37.7 54.4
Q 37.7 54.15 37.4 54 37.15 53.85 36.8 53.85 36.45 53.85 36.15 54 35.9 54.15 35.9 54.4 35.9 54.65 36.15 54.8 36.45 54.95 36.8 54.95 37.15 54.95 37.4 54.8 37.7 54.65 37.7 54.4
M 36 52.45
Q 36.15 52.3 36.15 52.1 36.15 51.9 36 51.75 35.85 51.6 35.65 51.6 35.45 51.6 35.3 51.75 35.15 51.9 35.15 52.1 35.15 52.3 35.3 52.45 35.45 52.6 35.65 52.6 35.85 52.6 36 52.45
M 39.6 46.95
Q 39.6 46.75 39.45 46.6 39.35 46.45 39.15 46.45 38.95 46.45 38.8 46.6 38.7 46.75 38.7 46.95 38.7 47.15 38.8 47.3 38.95 47.45 39.15 47.45 39.35 47.45 39.45 47.3 39.6 47.15 39.6 46.95
M 37.7 49.45
Q 37.7 49.25 37.55 49.1 37.4 48.95 37.2 48.95 37 48.95 36.85 49.1 36.7 49.25 36.7 49.45 36.7 49.65 36.85 49.8 37 49.95 37.2 49.95 37.4 49.95 37.55 49.8 37.7 49.65 37.7 49.45
M 35.8 49.35
Q 35.65 49.15 35.45 49.15 35.25 49.15 35.1 49.35 34.95 49.6 34.95 49.9 34.95 50.2 35.1 50.4 35.25 50.65 35.45 50.65 35.65 50.65 35.8 50.4 35.95 50.2 35.95 49.9 35.95 49.6 35.8 49.35
M 37.1 44.85
Q 37.3 44.65 37.3 44.4 37.3 44.15 37.1 43.95 36.9 43.75 36.65 43.75 36.4 43.75 36.2 43.95 36 44.15 36 44.4 36 44.65 36.2 44.85 36.4 45.05 36.65 45.05 36.9 45.05 37.1 44.85
M 31.9 47.95
Q 31.9 47.75 31.75 47.6 31.65 47.45 31.45 47.45 31.25 47.45 31.1 47.6 31 47.75 31 47.95 31 48.15 31.1 48.3 31.25 48.45 31.45 48.45 31.65 48.45 31.75 48.3 31.9 48.15 31.9 47.95
M 31.95 43.8
Q 31.95 43.6 31.8 43.45 31.65 43.3 31.45 43.3 31.25 43.3 31.1 43.45 30.95 43.6 30.95 43.8 30.95 44 31.1 44.15 31.25 44.3 31.45 44.3 31.65 44.3 31.8 44.15 31.95 44 31.95 43.8
M 34.15 46.4
Q 34.05 46.25 33.85 46.25 33.65 46.25 33.5 46.4 33.4 46.55 33.4 46.75 33.4 46.95 33.5 47.1 33.65 47.25 33.85 47.25 34.05 47.25 34.15 47.1 34.3 46.95 34.3 46.75 34.3 46.55 34.15 46.4
M 34.6 39.1
Q 34.75 38.95 34.75 38.75 34.75 38.55 34.6 38.4 34.45 38.25 34.25 38.25 34.05 38.25 33.9 38.4 33.75 38.55 33.75 38.75 33.75 38.95 33.9 39.1 34.05 39.25 34.25 39.25 34.45 39.25 34.6 39.1
M 37.85 41.35
Q 37.85 41.15 37.7 41 37.55 40.85 37.35 40.85 37.15 40.85 37 41 36.85 41.15 36.85 41.35 36.85 41.55 37 41.7 37.15 41.85 37.35 41.85 37.55 41.85 37.7 41.7 37.85 41.55 37.85 41.35
M 26.9 48.5
Q 26.9 48.25 26.75 48.1 26.6 47.95 26.4 47.95 26.2 47.95 26.05 48.1 25.9 48.25 25.9 48.5 25.9 48.75 26.05 48.9 26.2 49.05 26.4 49.05 26.6 49.05 26.75 48.9 26.9 48.75 26.9 48.5
M 29.8 42.65
Q 29.8 42.4 29.65 42.25 29.5 42.1 29.25 42.1 29 42.1 28.85 42.25 28.7 42.4 28.7 42.65 28.7 42.9 28.85 43.05 29 43.2 29.25 43.2 29.5 43.2 29.65 43.05 29.8 42.9 29.8 42.65
M 39.7 32.05
Q 39.7 31.7 39.5 31.45 39.35 31.2 39.1 31.2 38.85 31.2 38.65 31.45 38.5 31.7 38.5 32.05 38.5 32.4 38.65 32.65 38.85 32.9 39.1 32.9 39.35 32.9 39.5 32.65 39.7 32.4 39.7 32.05
M 34.95 37
Q 35.15 37 35.3 36.85 35.45 36.7 35.45 36.5 35.45 36.3 35.3 36.15 35.15 36 34.95 36 34.75 36 34.6 36.15 34.45 36.3 34.45 36.5 34.45 36.7 34.6 36.85 34.75 37 34.95 37
M 69.7 47.45
Q 69.85 47.3 69.85 47.05 69.85 46.8 69.7 46.65 69.55 46.5 69.3 46.5 69.05 46.5 68.9 46.65 68.75 46.8 68.75 47.05 68.75 47.3 68.9 47.45 69.05 47.6 69.3 47.6 69.55 47.6 69.7 47.45
M 67.25 47.75
Q 67.4 47.6 67.4 47.4 67.4 47.2 67.25 47.05 67.1 46.9 66.9 46.9 66.7 46.9 66.55 47.05 66.4 47.2 66.4 47.4 66.4 47.6 66.55 47.75 66.7 47.9 66.9 47.9 67.1 47.9 67.25 47.75
M 67.35 44.2
Q 67.44921875 44.29921875 67.55 44.3 67.8 44.35 67.95 44.2 68.15 44.1 68.15 43.9 68.15 43.7 67.95 43.55 67.8 43.45 67.55 43.45 67.44921875 43.50078125 67.35 43.55 67.25 43.7 67.25 43.9 67.25 44.1 67.35 44.2
M 70.75 45.1
Q 70.6 45.25 70.6 45.45 70.6 45.65 70.75 45.8 70.9 45.95 71.1 45.95 71.3 45.95 71.45 45.8 71.6 45.65 71.6 45.45 71.6 45.25 71.45 45.1 71.3 44.95 71.1 44.95 70.9 44.95 70.75 45.1
M 62.6 45.45
L 62.6 46.45 63.7 46.45 63.7 45.45 62.6 45.45
M 62.45 47.7
Q 62.3 47.55 62.1 47.55 61.9 47.55 61.75 47.7 61.6 47.85 61.6 48.05 61.6 48.25 61.75 48.4 61.9 48.55 62.1 48.55 62.3 48.55 62.45 48.4 62.6 48.25 62.6 48.05 62.6 47.85 62.45 47.7
M 61.7 44.55
Q 61.7 44.35 61.55 44.2 61.4 44.05 61.2 44.05 61 44.05 60.85 44.2 60.7 44.35 60.7 44.55 60.7 44.75 60.85 44.9 61 45.05 61.2 45.05 61.4 45.05 61.55 44.9 61.7 44.75 61.7 44.55
M 65.65 44.15
Q 65.45 44.15 65.3 44.3 65.15 44.45 65.15 44.65 65.15 44.85 65.3 45 65.45 45.15 65.65 45.15 65.85 45.15 66 45 66.15 44.85 66.15 44.65 66.15 44.45 66 44.3 65.85 44.15 65.65 44.15
M 62.75 43
Q 63 43 63.15 42.85 63.3 42.7 63.3 42.5 63.3 42.3 63.15 42.15 63 42 62.75 42 62.5 42 62.35 42.15 62.2 42.3 62.2 42.5 62.2 42.7 62.35 42.85 62.5 43 62.75 43
M 62.9 39.85
Q 62.9 39.65 62.75 39.5 62.65 39.35 62.45 39.35 62.25 39.35 62.1 39.5 62 39.65 62 39.85 62 40.05 62.1 40.2 62.25 40.35 62.45 40.35 62.65 40.35 62.75 40.2 62.9 40.05 62.9 39.85
M 67 39.15
Q 67.15 39 67.15 38.8 67.15 38.6 67 38.45 66.85 38.3 66.65 38.3 66.45 38.3 66.3 38.45 66.15 38.6 66.15 38.8 66.15 39 66.3 39.15 66.45 39.3 66.65 39.3 66.85 39.3 67 39.15
M 69.95 36.7
Q 69.95 36.45 69.8 36.3 69.65 36.15 69.4 36.15 69.15 36.15 69 36.3 68.85 36.45 68.85 36.7 68.85 36.95 69 37.1 69.15 37.25 69.4 37.25 69.65 37.25 69.8 37.1 69.95 36.95 69.95 36.7
M 61.85 31.9
Q 61.85 31.7 61.7 31.55 61.6 31.4 61.4 31.4 61.2 31.4 61.05 31.55 60.95 31.7 60.95 31.9 60.95 32.1 61.05 32.25 61.2 32.4 61.4 32.4 61.6 32.4 61.7 32.25 61.85 32.1 61.85 31.9
M 65.05 33.2
Q 65.2 33.05 65.2 32.8 65.2 32.55 65.05 32.4 64.9 32.25 64.7 32.25 64.5 32.25 64.35 32.4 64.2 32.55 64.2 32.8 64.2 33.05 64.35 33.2 64.5 33.35 64.7 33.35 64.9 33.35 65.05 33.2
M 60.25 48.15
Q 59.95 48.15 59.7 48.3 59.5 48.45 59.5 48.65 59.5 48.85 59.7 49 59.95 49.15 60.25 49.15 60.55 49.15 60.75 49 61 48.85 61 48.65 61 48.45 60.75 48.3 60.55 48.15 60.25 48.15
M 56.65 48.7
Q 56.45 48.9 56.45 49.15 56.45 49.4 56.65 49.6 56.85 49.8 57.1 49.8 57.35 49.8 57.55 49.6 57.75 49.4 57.75 49.15 57.75 48.9 57.55 48.7 57.35 48.5 57.1 48.5 56.85 48.5 56.65 48.7
M 56.85 47
Q 56.7 46.85 56.5 46.85 56.3 46.85 56.15 47 56 47.15 56 47.35 56 47.55 56.15 47.7 56.3 47.85 56.5 47.85 56.7 47.85 56.85 47.7 57 47.55 57 47.35 57 47.15 56.85 47
M 57.75 47.3
Q 57.6 47.45 57.6 47.7 57.6 47.95 57.75 48.1 57.9 48.25 58.1 48.25 58.3 48.25 58.45 48.1 58.6 47.95 58.6 47.7 58.6 47.45 58.45 47.3 58.3 47.15 58.1 47.15 57.9 47.15 57.75 47.3
M 56.55 45.6
Q 56.55 45.8 56.7 45.95 56.85 46.1 57.05 46.1 57.25 46.1 57.4 45.95 57.55 45.8 57.55 45.6 57.55 45.4 57.4 45.25 57.25 45.1 57.05 45.1 56.85 45.1 56.7 45.25 56.55 45.4 56.55 45.6
M 59.35 45.1
Q 59.35 44.9 59.2 44.75 59.1 44.6 58.9 44.6 58.7 44.6 58.55 44.75 58.45 44.9 58.45 45.1 58.45 45.3 58.55 45.45 58.7 45.6 58.9 45.6 59.1 45.6 59.2 45.45 59.35 45.3 59.35 45.1
M 53.3 45.35
L 52.05 46.15 52.55 46.65 53.3 45.35
M 55.1 48.05
Q 54.85 48.2 54.85 48.45 54.85 48.7 55.1 48.85 55.35 49 55.7 49 56.05 49 56.3 48.85 56.55 48.7 56.55 48.45 56.55 48.2 56.3 48.05 56.05 47.9 55.7 47.9 55.35 47.9 55.1 48.05
M 52.55 48.9
L 52.05 48.45 51.9 47.8 51.25 47.7 50.5 48.9 51.5 50.25 52.05 50.1 52.4 49.7 52.55 48.9
M 53.15 48.8
L 53 49.2 53.35 49.7 52.85 50.8 53.8 51.3 54.2 50.25 53.8 49.75 54.1 49.2 53.55 48.65 53.15 48.8
M 52.45 47.5
Q 52.45 47.75 52.6 47.9 52.75 48.05 53 48.05 53.25 48.05 53.4 47.9 53.55 47.75 53.55 47.5 53.55 47.25 53.4 47.1 53.25 46.95 53 46.95 52.75 46.95 52.6 47.1 52.45 47.25 52.45 47.5
M 51.85 45.05
Q 51.85 44.85 51.7 44.7 51.55 44.55 51.35 44.55 51.15 44.55 51 44.7 50.85 44.85 50.85 45.05 50.85 45.25 51 45.4 51.15 45.55 51.35 45.55 51.55 45.55 51.7 45.4 51.85 45.25 51.85 45.05
M 55.65 45.8
Q 55.5 45.65 55.3 45.65 55.1 45.65 54.95 45.8 54.8 45.95 54.8 46.15 54.8 46.35 54.95 46.5 55.1 46.65 55.3 46.65 55.5 46.65 55.65 46.5 55.8 46.35 55.8 46.15 55.8 45.95 55.65 45.8
M 54.6 44.7
Q 54.6 44.5 54.45 44.35 54.35 44.2 54.15 44.2 53.95 44.2 53.8 44.35 53.7 44.5 53.7 44.7 53.7 44.9 53.8 45.05 53.95 45.2 54.15 45.2 54.35 45.2 54.45 45.05 54.6 44.9 54.6 44.7
M 55.25 41.5
Q 55.25 41.3 55.1 41.15 55.0365234375 41.0865234375 54.95 41.05
L 54.5 41.05
Q 54.4634765625 41.0865234375 54.4 41.15 54.25 41.3 54.25 41.5 54.25 41.7 54.4 41.85 54.55 42 54.75 42 54.95 42 55.1 41.85 55.25 41.7 55.25 41.5
M 52.8 42.85
Q 52.65 43 52.65 43.2 52.65 43.4 52.8 43.55 52.95 43.7 53.2 43.7 53.45 43.7 53.6 43.55 53.75 43.4 53.75 43.2 53.75 43 53.6 42.85 53.45 42.7 53.2 42.7 52.95 42.7 52.8 42.85
M 51.6 42.5
Q 51.6 42.3 51.45 42.15 51.3 42 51.1 42 50.9 42 50.75 42.15 50.6 42.3 50.6 42.5 50.6 42.7 50.75 42.85 50.9 43 51.1 43 51.3 43 51.45 42.85 51.6 42.7 51.6 42.5
M 51.6 41.6
Q 51.75 41.45 51.75 41.2 51.75 41.119921875 51.7 41.05
L 51.2 40.85 50.65 41.05
Q 50.65 41.119921875 50.65 41.2 50.65 41.45 50.8 41.6 50.95 41.75 51.2 41.75 51.45 41.75 51.6 41.6
M 52.05 39.05
Q 52.2 38.9 52.2 38.7 52.2 38.5 52.05 38.35 51.95 38.2 51.75 38.2 51.55 38.2 51.4 38.35 51.3 38.5 51.3 38.7 51.3 38.9 51.4 39.05 51.55 39.2 51.75 39.2 51.95 39.2 52.05 39.05
M 55.45 39.3
Q 55.45 39.1 55.3 38.95 55.15 38.85 54.95 38.85 54.75 38.85 54.6 38.95 54.45 39.1 54.45 39.3 54.45 39.5 54.6 39.6 54.75 39.75 54.95 39.75 55.15 39.75 55.3 39.6 55.45 39.5 55.45 39.3
M 54 39.8
Q 53.85 39.95 53.85 40.15 53.85 40.35 54 40.5 54.15 40.65 54.35 40.65 54.55 40.65 54.7 40.5 54.85 40.35 54.85 40.15 54.85 39.95 54.7 39.8 54.55 39.65 54.35 39.65 54.15 39.65 54 39.8
M 60.3 42.55
Q 60.45 42.7 60.65 42.7 60.85 42.7 61 42.55 61.15 42.4 61.15 42.2 61.15 42 61 41.85 60.85 41.7 60.65 41.7 60.45 41.7 60.3 41.85 60.15 42 60.15 42.2 60.15 42.4 60.3 42.55
M 57.95 41.95
Q 57.75 41.95 57.6 42.1 57.45 42.25 57.45 42.45 57.45 42.65 57.6 42.8 57.75 42.95 57.95 42.95 58.15 42.95 58.3 42.8 58.45 42.65 58.45 42.45 58.45 42.25 58.3 42.1 58.15 41.95 57.95 41.95
M 56.65 42.75
Q 56.45 42.75 56.3 42.9 56.15 43.05 56.15 43.3 56.15 43.55 56.3 43.7 56.45 43.85 56.65 43.85 56.85 43.85 57 43.7 57.15 43.55 57.15 43.3 57.15 43.05 57 42.9 56.85 42.75 56.65 42.75
M 56.65 41.55
Q 56.45 41.55 56.3 41.7 56.2 41.85 56.2 42.05 56.2 42.25 56.3 42.4 56.45 42.55 56.65 42.55 56.85 42.55 56.95 42.4 57.1 42.25 57.1 42.05 57.1 41.85 56.95 41.7 56.85 41.55 56.65 41.55
M 57.95 41.05
Q 57.95 41.25 58.1 41.4 58.25 41.55 58.45 41.55 58.65 41.55 58.8 41.4 58.95 41.25 58.95 41.05
L 57.95 41.05
M 57.05 41.05
Q 57.1736328125 41.1 57.3 41.1 57.4263671875 41.1 57.5 41.05
L 57.65 40.35 57.05 41.05
M 59.95 39.55
Q 60.15 39.7 60.4 39.7 60.65 39.7 60.8 39.55 61 39.4 61 39.15 61 38.9 60.8 38.75 60.65 38.6 60.4 38.6 60.15 38.6 59.95 38.75 59.8 38.9 59.8 39.15 59.8 39.4 59.95 39.55
M 58.65 39.8
Q 58.65 40 58.8 40.15 58.95 40.3 59.15 40.3 59.35 40.3 59.5 40.15 59.65 40 59.65 39.8 59.65 39.6 59.5 39.45 59.35 39.3 59.15 39.3 58.95 39.3 58.8 39.45 58.65 39.6 58.65 39.8
M 46.4 49.1
L 44.55 49.1 44.55 49.75 46.4 49.75 46.4 49.1
M 48.45 48.25
L 48.45 49.4 49.85 49.4 49.85 48.25 48.45 48.25
M 50.15 46.6
L 50.15 47.4 51.75 47.4 51.75 46.6 50.15 46.6
M 49.9 47.2
Q 50.05 47.05 50.05 46.85 50.05 46.65 49.9 46.5 49.8 46.35 49.6 46.35 49.4 46.35 49.25 46.5 49.15 46.65 49.15 46.85 49.15 47.05 49.25 47.2 49.4 47.35 49.6 47.35 49.8 47.35 49.9 47.2
M 47.6 47.9
L 46.85 48.05 46.6 48.8 47.55 49.8 48.05 48.6 47.6 47.9
M 46.5 45.3
Q 46.35 45.45 46.25 45.65 46 46.25 46.6 46.3
L 48.3 47.1 48.4 46.1 46.5 45.3
M 46.35 44.8
L 46.8 44.3 45.55 43.15 45.05 43.85 46.35 44.8
M 49.15 43.45
L 48.3 43.45 48.3 45.05 49.15 45.05 49.15 43.45
M 50.25 44.45
Q 50.05 44.45 49.9 44.6 49.75 44.75 49.75 45 49.75 45.25 49.9 45.4 50.05 45.55 50.25 45.55 50.45 45.55 50.6 45.4 50.75 45.25 50.75 45 50.75 44.75 50.6 44.6 50.45 44.45 50.25 44.45
M 44.85 47.7
L 45.05 46.7 43.9 47.55 44.85 48.55 45.7 48.55 44.85 47.7
M 41.3 49.05
L 40.8 48.55 40.55 49.5 41.3 49.05
M 40.8 48.55
L 41.6 48 40.9 47.45 40.45 47.6 40.45 46.9 39.65 47.25 40.3 47.7 40.4 48.4 40.8 48.55
M 42.8 47.3
Q 42.55 47.3 42.35 47.5 42.2 47.7 42.2 47.95 42.2 48.2 42.35 48.4 42.55 48.6 42.8 48.6 43.05 48.6 43.2 48.4 43.4 48.2 43.4 47.95 43.4 47.7 43.2 47.5 43.05 47.3 42.8 47.3
M 41.1 45.85
Q 41.1 45.6 40.95 45.4 40.8 45.2 40.6 45.2 40.4 45.2 40.25 45.4 40.1 45.6 40.1 45.85 40.1 46.1 40.25 46.3 40.4 46.5 40.6 46.5 40.8 46.5 40.95 46.3 41.1 46.1 41.1 45.85
M 43.5 44.95
Q 43.35 45.15 43.35 45.4 43.35 45.65 43.5 45.8 43.7 46 43.95 46 44.2 46 44.35 45.8 44.55 45.65 44.55 45.4 44.55 45.15 44.35 44.95 44.2 44.8 43.95 44.8 43.7 44.8 43.5 44.95
M 45.45 44.6
Q 45.25 44.6 45.1 44.7 44.95 44.85 44.95 45.05 44.95 45.25 45.1 45.35 45.25 45.5 45.45 45.5 45.65 45.5 45.8 45.35 45.95 45.25 45.95 45.05 45.95 44.85 45.8 44.7 45.65 44.6 45.45 44.6
M 43.95 42.6
Q 43.95 42.85 44.1 43 44.25 43.15 44.5 43.15 44.75 43.15 44.9 43 45.05 42.85 45.05 42.6 45.05 42.35 44.9 42.2 44.75 42.05 44.5 42.05 44.25 42.05 44.1 42.2 43.95 42.35 43.95 42.6
M 41.95 41.95
Q 41.95 41.75 41.8 41.6 41.45 41.6 41.2 41.7 40.95 41.8 40.95 41.95 40.95 42.1 41.2 42.2 41.45 42.3 41.8 42.3 41.95 42.15 41.95 41.95
M 40.7 41.65
Q 40.7 41.45 40.55 41.3 40.4 41.15 40.2 41.15 40 41.15 39.85 41.3 39.7 41.45 39.7 41.65 39.7 41.85 39.85 42 40 42.15 40.2 42.15 40.4 42.15 40.55 42 40.7 41.85 40.7 41.65
M 42.95 39.3
Q 42.95 39.05 42.7 38.85 42.5 38.7 42.2 38.7 41.9 38.7 41.65 38.85 41.45 39.05 41.45 39.3 41.45 39.55 41.65 39.7 41.9 39.9 42.2 39.9 42.5 39.9 42.7 39.7 42.95 39.55 42.95 39.3
M 45 39.95
Q 45 39.75 44.85 39.6 44.7 39.45 44.5 39.45 44.3 39.45 44.15 39.6 44 39.75 44 39.95 44 40.15 44.15 40.3 44.3 40.45 44.5 40.45 44.7 40.45 44.85 40.3 45 40.15 45 39.95
M 50.55 43
Q 50.55 42.75 50.4 42.6 50.25 42.45 50.05 42.45 49.85 42.45 49.7 42.6 49.55 42.75 49.55 43 49.55 43.25 49.7 43.4 49.85 43.55 50.05 43.55 50.25 43.55 50.4 43.4 50.55 43.25 50.55 43
M 50.15 41.65
Q 50.3 41.5 50.3 41.3 50.3 41.16328125 50.2 41.05
L 49.35 41.05
Q 49.3 41.16328125 49.3 41.3 49.3 41.5 49.45 41.65 49.6 41.8 49.8 41.8 50 41.8 50.15 41.65
M 47.75 42.55
Q 47.9 42.4 47.9 42.2 47.9 42 47.75 41.85 47.65 41.7 47.45 41.7 47.25 41.7 47.1 41.85 47 42 47 42.2 47 42.4 47.1 42.55 47.25 42.7 47.45 42.7 47.65 42.7 47.75 42.55
M 46.05 39.8
Q 46.05 39.6 45.9 39.45 45.75 39.3 45.55 39.3 45.35 39.3 45.2 39.45 45.05 39.6 45.05 39.8 45.05 40 45.2 40.15 45.35 40.3 45.55 40.3 45.75 40.3 45.9 40.15 46.05 40 46.05 39.8
M 48.55 39.85
Q 48.55 39.6 48.4 39.45 48.25 39.3 48 39.3 47.75 39.3 47.6 39.45 47.45 39.6 47.45 39.85 47.45 40.1 47.6 40.25 47.75 40.4 48 40.4 48.25 40.4 48.4 40.25 48.55 40.1 48.55 39.85
M 49.05 37.1
Q 48.9 36.95 48.65 36.95 48.4 36.95 48.25 37.1 48.1 37.25 48.1 37.45 48.1 37.65 48.25 37.8 48.4 37.95 48.65 37.95 48.9 37.95 49.05 37.8 49.2 37.65 49.2 37.45 49.2 37.25 49.05 37.1
M 46.5 36.3
Q 46.4 36.45 46.4 36.65 46.4 36.85 46.5 37 46.65 37.15 46.85 37.15 47.05 37.15 47.15 37 47.3 36.85 47.3 36.65 47.3 36.45 47.15 36.3 47.05 36.15 46.85 36.15 46.65 36.15 46.5 36.3
M 46.45 32.35
Q 46.45 32.15 46.3 32 46.2 31.85 46 31.85 45.8 31.85 45.65 32 45.55 32.15 45.55 32.35 45.55 32.55 45.65 32.7 45.8 32.85 46 32.85 46.2 32.85 46.3 32.7 46.45 32.55 46.45 32.35
M 49.55 32.7
Q 49.55 32.5 49.4 32.35 49.25 32.25 49.05 32.25 48.85 32.25 48.7 32.35 48.55 32.5 48.55 32.7 48.55 32.9 48.7 33 48.85 33.15 49.05 33.15 49.25 33.15 49.4 33 49.55 32.9 49.55 32.7
M 45.3 35.8
Q 45.15 35.95 45.15 36.15 45.15 36.35 45.3 36.5 45.45 36.65 45.65 36.65 45.85 36.65 46 36.5 46.15 36.35 46.15 36.15 46.15 35.95 46 35.8 45.85 35.65 45.65 35.65 45.45 35.65 45.3 35.8
M 41 36.15
Q 41 35.95 40.85 35.8 40.7 35.65 40.5 35.65 40.3 35.65 40.15 35.8 40 35.95 40 36.15 40 36.35 40.15 36.5 40.3 36.65 40.5 36.65 40.7 36.65 40.85 36.5 41 36.35 41 36.15
M 42.2 35.1
Q 42 35.1 41.85 35.25 41.7 35.4 41.7 35.6 41.7 35.8 41.85 35.95 42 36.1 42.2 36.1 42.4 36.1 42.55 35.95 42.7 35.8 42.7 35.6 42.7 35.4 42.55 35.25 42.4 35.1 42.2 35.1
M 45.1 33.4
Q 44.95 33.55 44.95 33.75 44.95 33.95 45.1 34.1 45.25 34.25 45.45 34.25 45.65 34.25 45.8 34.1 45.95 33.95 45.95 33.75 45.95 33.55 45.8 33.4 45.65 33.25 45.45 33.25 45.25 33.25 45.1 33.4
M 47.3 27.1
Q 47.45 26.95 47.45 26.75 47.45 26.55 47.3 26.4 47.15 26.25 46.95 26.25 46.75 26.25 46.6 26.4 46.45 26.55 46.45 26.75 46.45 26.95 46.6 27.1 46.75 27.25 46.95 27.25 47.15 27.25 47.3 27.1
M 59.6 36.1
Q 59.75 35.95 59.75 35.75 59.75 35.55 59.6 35.4 59.45 35.25 59.25 35.25 59.05 35.25 58.9 35.4 58.75 35.55 58.75 35.75 58.75 35.95 58.9 36.1 59.05 36.25 59.25 36.25 59.45 36.25 59.6 36.1
M 58.15 36
Q 58 35.85 57.8 35.85 57.6 35.85 57.45 36 57.3 36.15 57.3 36.35 57.3 36.55 57.45 36.7 57.6 36.85 57.8 36.85 58 36.85 58.15 36.7 58.3 36.55 58.3 36.35 58.3 36.15 58.15 36
M 55.25 35.8
Q 55.05 35.95 55.05 36.15 55.05 36.35 55.25 36.5 55.5 36.65 55.8 36.65 56.1 36.65 56.3 36.5 56.55 36.35 56.55 36.15 56.55 35.95 56.3 35.8 56.1 35.65 55.8 35.65 55.5 35.65 55.25 35.8
M 54.9 35.4
Q 54.75 35.25 54.55 35.25 54.35 35.25 54.2 35.4 54.05 35.55 54.05 35.75 54.05 35.95 54.2 36.1 54.35 36.25 54.55 36.25 54.75 36.25 54.9 36.1 55.05 35.95 55.05 35.75 55.05 35.55 54.9 35.4
M 51.6 36.2
Q 51.6 35.95 51.45 35.8 51.3 35.65 51.05 35.65 50.8 35.65 50.65 35.8 50.5 35.95 50.5 36.2 50.5 36.45 50.65 36.6 50.8 36.75 51.05 36.75 51.3 36.75 51.45 36.6 51.6 36.45 51.6 36.2
M 52.85 34.6
Q 52.85 34.35 52.7 34.15 52.55 34 52.3 34 52.05 34 51.9 34.15 51.75 34.35 51.75 34.6 51.75 34.85 51.9 35 52.05 35.2 52.3 35.2 52.55 35.2 52.7 35 52.85 34.85 52.85 34.6
M 53.55 30.65
Q 53.55 30.5 53.4 30.35 53.3 30.25 53.1 30.25 52.9 30.25 52.75 30.35 52.65 30.5 52.65 30.65 52.65 30.8 52.75 30.9 52.9 31.05 53.1 31.05 53.3 31.05 53.4 30.9 53.55 30.8 53.55 30.65
M 56.55 30.25
Q 56.7 30.1 56.7 29.9 56.7 29.7 56.55 29.55 56.4 29.4 56.2 29.4 56 29.4 55.85 29.55 55.7 29.7 55.7 29.9 55.7 30.1 55.85 30.25 56 30.4 56.2 30.4 56.4 30.4 56.55 30.25 Z"/>
</g>
</defs>

<g transform="matrix( 1, 0, 0, 1, 0,0) ">
<use xlink:href="#Layer2_0_FILL"/>
</g>
</svg>
