
<svg xmlns="http://www.w3.org/2000/svg" version="1.1" xmlns:xlink="http://www.w3.org/1999/xlink" preserveAspectRatio="none" x="0px" y="0px" width="100px" height="100px" viewBox="0 0 100 100">
<defs>
<g id="Layer2_0_FILL">
<path fill="#000000" stroke="none" d="
M 42.25 78.7
Q 42.25 78.65 42.25 78.6
L 42.35 78.55 42.3 78.3 42.35 78.3 42.25 77.95
Q 42.05 77.85 41.9 77.85 41.8 77.95 41.65 78.1 41.6 78.15 41.65 78.35 41.6 78.4 41.65 78.65
L 41.75 78.75
Q 41.7 78.8 41.65 78.85 41.6 78.9 41.65 79.15
L 41.75 79.25
Q 41.7 79.3 41.65 79.35 41.6 79.4 41.65 79.6 41.6 79.65 41.65 79.85 41.6 79.9 41.65 80.15
L 41.7 80.2 41.85 80.3
Q 42.2 80.45 42.25 80.1
L 42.35 80.05 42.3 79.8 42.35 79.8 42.3 79.55 42.35 79.55 42.25 79.2
Q 42.25 79.15 42.25 79.1
L 42.35 79.05 42.25 78.7
M 52.9 77.4
L 52.85 77.4
Q 52.5 77.4 52.5 77.8
L 52.5 77.95
Q 52.5 78 52.5 78.05
L 52.5 78.2 52.55 78.3
Q 52.5 78.4 52.5 78.55
L 52.5 78.7 52.55 78.8
Q 52.5 78.9 52.5 79.05
L 52.5 79.2
Q 52.5 79.25 52.5 79.3
L 52.5 79.45
Q 52.5 79.5 52.5 79.55
L 52.5 79.7 52.55 79.8
Q 52.8 79.95 52.95 79.9
L 53.05 79.85 53.1 79.85 53.2 79.75 53.25 79.45
Q 53.25 79.4 53.25 79.35
L 53.25 79.2
Q 53.25 79.15 53.25 79.1
L 53.25 78.95
Q 53.25 78.85 53.2 78.75
L 53.25 78.45
Q 53.25 78.35 53.2 78.25
L 53.25 77.95
Q 53.25 77.9 53.25 77.85
L 53.25 77.7
Q 53.2 77.4 52.9 77.4
M 59.8 72.65
Q 59.8 72.55 59.7 72.35 59.6 72.25 59.4 72.25
L 59.2 72.35 59.1 72.85 59.15 72.85 59.1 73.1 59.2 73.1 59.1 73.6 59.2 73.6 59.1 74.1 59.15 74.1 59.1 74.35 59.15 74.35 59.1 74.6 59.15 74.6 59.25 74.65
Q 59.35 74.7 59.55 74.75 59.85 74.6 59.8 74.4 59.8 74.35 59.8 74.3 59.8 74.25 59.8 74.15 59.8 74.1 59.8 74.05 59.8 74 59.8 73.9 59.8 73.8 59.75 73.6 59.85 73.55 59.8 73.4 59.8 73.3 59.75 73.15 59.85 73.05 59.8 72.9 59.8 72.85 59.8 72.8 59.8 72.75 59.8 72.65
M 52.85 67.25
Q 52.85 67.2 52.8 67.1 52.8 67.05 52.85 67 52.85 66.95 52.75 66.75
L 52.7 66.7 52.55 66.65
Q 52.2 66.6 52.2 66.95
L 52.15 67 52.2 67.1
Q 52.2 67.15 52.2 67.2
L 52.15 67.25 52.3 67.45
Q 52.2 67.55 52.2 67.7
L 52.15 67.75 52.3 67.95
Q 52.2 68.05 52.2 68.2
L 52.15 68.25 52.2 68.35
Q 52.2 68.4 52.2 68.45
L 52.15 68.5 52.2 68.6
Q 52.2 68.65 52.2 68.7
L 52.15 68.75 52.3 69.05
Q 52.5 69.1 52.65 69.05 52.75 68.95 52.85 68.75 52.85 68.7 52.8 68.6 52.8 68.55 52.85 68.5 52.85 68.45 52.8 68.35 52.8 68.3 52.85 68.25 52.85 68.2 52.75 68
L 52.75 67.95
Q 52.8 67.9 52.85 67.75 52.85 67.7 52.75 67.5
L 52.75 67.45
Q 52.8 67.4 52.85 67.25
M 44.25 67.35
L 44.15 67.45 44 67.65
Q 44 67.8 44.05 67.85
L 44 67.9
Q 43.95 68.15 44.1 68.25
L 44 68.4
Q 43.95 68.65 44.1 68.75
L 44 68.9
Q 44 69.05 44.05 69.1
L 44 69.15
Q 44 69.3 44.05 69.35
L 44 69.4
Q 43.95 69.75 44.25 69.8
L 44.3 69.8
Q 44.65 69.9 44.75 69.5
L 44.8 69.4 44.8 69.3 44.75 69.25 44.8 69.15 44.8 69.05 44.75 69 44.8 68.9 44.8 68.8
Q 44.75 68.75 44.7 68.7 44.7 68.6 44.75 68.5
L 44.8 68.4 44.8 68.3
Q 44.75 68.25 44.7 68.2 44.7 68.1 44.75 68
L 44.8 67.9 44.8 67.8 44.75 67.75 44.8 67.65 44.8 67.55
Q 44.6 67.35 44.4 67.35
L 44.25 67.35
M 45.55 61.7
L 45.5 61.75 45.6 61.85
Q 45.55 61.9 45.55 61.95
L 45.5 62 45.7 62.25
Q 45.6 62.3 45.55 62.45
L 45.5 62.5 45.7 62.75
Q 45.6 62.8 45.55 62.95
L 45.5 63 45.6 63.1
Q 45.55 63.15 45.55 63.2
L 45.5 63.25 45.6 63.35
Q 45.55 63.4 45.55 63.45
L 45.5 63.5 45.7 63.8 45.85 63.9 46.15 63.8 46.25 63.65 46.3 63.5 46.3 63 46.25 62.8 46.25 62.75 46.2 62.7 46.25 62.65 46.3 62.5 46.25 62.3 46.25 62.25 46.2 62.2 46.25 62.15 46.3 62 46.3 61.75 46.25 61.55 46.25 61.5 46.05 61.45
Q 45.7 61.3 45.55 61.7
M 41.75 57.5
Q 41.75 57.35 41.55 57.4
L 41.3 57.55 41.2 57.7
Q 41.2 57.8 41.25 57.85
L 41.2 57.95
Q 41.2 58.15 41.35 58.2
L 41.45 58.2 41.3 58.3 41.2 58.45
Q 41.2 58.65 41.35 58.7
L 41.45 58.7 41.3 58.8 41.2 58.95
Q 41.2 59.05 41.25 59.1
L 41.2 59.2
Q 41.2 59.3 41.25 59.35
L 41.2 59.45
Q 41.2 59.65 41.35 59.7
L 41.55 59.8 41.75 59.7 41.8 59.5
Q 41.85 59.4 41.8 59.3
L 41.8 59.25
Q 41.85 59.15 41.8 59.05
L 41.8 59
Q 41.85 58.9 41.75 58.75
L 41.75 58.7 41.8 58.5
Q 41.85 58.4 41.75 58.25
L 41.75 58.2 41.8 58
Q 41.85 57.9 41.8 57.8
L 41.8 57.75
Q 41.85 57.65 41.75 57.5
M 47.2 54
L 47.05 54 46.95 54.05
Q 46.85 54.15 46.8 54.3
L 46.85 54.4 46.8 54.45 46.85 54.45
Q 46.8 54.5 46.8 54.55
L 46.85 54.65 46.8 54.7 46.95 54.8
Q 46.85 54.9 46.8 55.05
L 46.85 55.15 46.8 55.2 46.95 55.3
Q 46.85 55.4 46.8 55.55
L 46.85 55.65 46.8 55.7 46.85 55.7
Q 46.8 55.75 46.8 55.8
L 46.85 55.9 46.8 55.95 46.85 55.95
Q 46.8 56 46.8 56.05
L 46.85 56.15 46.8 56.2 46.9 56.3
Q 47.05 56.4 47.2 56.4
L 47.4 56.35 47.5 56.25 47.45 56.2
Q 47.5 56.1 47.5 56
L 47.45 55.95
Q 47.5 55.85 47.5 55.75
L 47.45 55.7
Q 47.5 55.5 47.4 55.35
L 47.5 55.25 47.45 55.2
Q 47.5 55 47.4 54.85
L 47.5 54.75 47.45 54.7
Q 47.5 54.6 47.5 54.5
L 47.45 54.45
Q 47.55 54.15 47.2 54
M 58.1 61.75
Q 57.95 61.65 57.8 61.7
L 57.55 61.8 57.55 62.4
Q 57.6 62.45 57.7 62.5
L 57.55 62.55 57.55 62.9
Q 57.6 62.95 57.7 63
L 57.55 63.05 57.55 63.9
Q 57.85 64.2 58.1 64
L 58.25 63.7 58.2 63.6 58.25 63.45 58.2 63.35 58.25 63.2 58.1 63 58.25 62.7 58.1 62.5 58.25 62.2 58.2 62.1 58.25 61.95 58.1 61.75
M 52.65 60.1
L 52.55 59.95 52.25 59.85
Q 52 59.95 52 60.25 52 60.35 52 60.4 52 60.45 52 60.5 52 60.65 52.05 60.75 52 60.85 52 61 52 61.15 52.05 61.25 52 61.4 52 61.5 52 61.6 52 61.65 52 61.7 52 61.75 52 61.85 52 61.9 52 61.95 52 62 52 62.4 52.25 62.5 52.5 62.6 52.65 62.45
L 52.65 62.4 52.8 62.25
Q 52.8 62.1 52.8 62 52.8 61.85 52.8 61.75 52.8 61.45 52.7 61.35
L 52.8 61.25
Q 52.8 60.95 52.7 60.85
L 52.8 60.75
Q 52.8 60.6 52.8 60.5 52.8 60.15 52.65 60.1
M 56.8 50.95
L 56.8 50.85 56.65 50.75 56.45 50.65
Q 56.3 50.6 56.3 50.65 56.1 50.7 56.05 50.9
L 56.1 51.05
Q 56.05 51.1 56.05 51.15
L 56.1 51.5 56.1 51.45 56.15 51.5
Q 56.05 51.55 56.05 51.65
L 56.1 52 56.1 51.95 56.15 52
Q 56.05 52.05 56.05 52.15
L 56.1 52.3
Q 56.05 52.35 56.05 52.4
L 56.1 52.55
Q 56.05 52.6 56.05 52.65
L 56.1 53 56.1 52.95 56.15 53.1 56.4 53.2
Q 56.8 53.2 56.85 52.85
L 56.8 52.7
Q 56.85 52.7 56.85 52.6
L 56.8 52.45
Q 56.85 52.45 56.85 52.35
L 56.8 52.2 56.8 52.1 56.75 52.05
Q 56.85 52 56.85 51.85
L 56.8 51.7 56.8 51.6 56.75 51.55
Q 56.85 51.5 56.85 51.35
L 56.8 51.2
Q 56.85 51.2 56.85 51.1
L 56.8 50.95
M 68.1 73.85
Q 67.95 73.7 67.85 73.7
L 67.6 73.7
Q 67.35 73.85 67.35 74.1
L 67.4 74.15
Q 67.35 74.25 67.35 74.35
L 67.45 74.5 67.5 74.5
Q 67.35 74.65 67.35 74.85
L 67.45 75 67.5 75
Q 67.35 75.15 67.35 75.35
L 67.4 75.4
Q 67.35 75.5 67.35 75.6
L 67.4 75.65
Q 67.35 75.75 67.35 75.85
L 67.45 76 67.5 76.05 67.65 76.1 67.9 76.1 67.95 76.05 68.05 76 68.1 75.75 68.1 75.1
Q 68.05 75.05 68 75
L 68.05 75 68.1 74.75 68.1 74.6
Q 68.05 74.55 68 74.5
L 68.05 74.5 68.1 74.25 68.1 73.85
M 61 64.9
L 60.95 64.8 60.9 64.75 60.85 64.8 60.85 64.75 60.6 64.7 60.5 64.75 60.4 64.75 60.25 65.1
Q 60.25 65.2 60.3 65.25
L 60.25 65.35
Q 60.25 65.55 60.35 65.6
L 60.25 65.85
Q 60.25 66.05 60.35 66.1
L 60.25 66.35
Q 60.25 66.45 60.3 66.5
L 60.25 66.6
Q 60.25 66.7 60.3 66.75
L 60.25 66.85
Q 60.25 67.05 60.35 67.1 60.55 67.3 60.75 67.25
L 60.9 67.25 61.05 66.9 61.05 66.4 61 66.15 61 66.1 61.05 65.9 61 65.65 61 65.6 61.05 65.4 61.05 65.15 61 64.9
M 69.2 67.15
L 69.25 67.1
Q 69.2 66.8 69.15 66.7
L 69.05 66.65 69 66.6 68.85 66.6
Q 68.55 66.6 68.6 66.85 68.55 67 68.6 67.1 68.55 67.3 68.65 67.45 68.6 67.5 68.6 67.6 68.5 67.75 68.65 67.95 68.6 68 68.6 68.1 68.55 68.25 68.6 68.35 68.55 68.5 68.6 68.6 68.5 68.8 68.65 69 68.8 69.15 68.95 69.1
L 69.1 69.05 69.1 69 69.25 68.85
Q 69.25 68.75 69.2 68.65
L 69.25 68.6
Q 69.25 68.5 69.2 68.4
L 69.25 68.35
Q 69.2 68.05 69.15 67.95
L 69.25 67.85
Q 69.2 67.55 69.15 67.45
L 69.25 67.35
Q 69.25 67.25 69.2 67.15
M 70.6 59.55
L 70.7 59.5 70.7 59.4
Q 70.7 59.35 70.7 59.25
L 70.7 59.15
Q 70.7 58.85 70.45 58.65 70.1 58.5 69.95 58.8
L 69.9 58.95 69.9 59.05
Q 69.9 59.1 69.95 59.1
L 69.9 59.2 69.9 59.3
Q 69.95 59.4 70 59.45 69.95 59.5 69.95 59.55
L 69.9 59.7 69.9 59.8
Q 69.95 59.9 70 59.95 69.95 60 69.95 60.05
L 69.9 60.2 69.9 60.3
Q 69.9 60.35 69.95 60.35
L 69.9 60.45 69.9 60.55
Q 69.9 60.6 69.95 60.6
L 69.9 60.7 69.9 60.8
Q 69.95 61 70.15 61.05 70.25 61.25 70.5 61.1
L 70.7 61 70.7 60.9
Q 70.7 60.85 70.7 60.75
L 70.7 60.65
Q 70.7 60.6 70.7 60.5
L 70.7 60.4
Q 70.7 60.2 70.6 60.05
L 70.7 60 70.7 59.9
Q 70.7 59.7 70.6 59.55
M 63.7 61.2
Q 63.5 61.1 63.35 61.45
L 63.45 61.55
Q 63.4 61.65 63.35 61.7
L 63.45 61.9
Q 63.45 61.95 63.5 61.95 63.4 62.05 63.35 62.2
L 63.45 62.4
Q 63.45 62.45 63.5 62.45 63.4 62.55 63.35 62.7
L 63.45 62.8
Q 63.4 62.9 63.35 62.95
L 63.45 63.05
Q 63.4 63.15 63.35 63.2
L 63.45 63.4
Q 63.45 63.55 63.8 63.65
L 63.95 63.55 64 63.5 64.1 63.25 64.1 63.2 64.05 63.15 64.05 63.1 64.1 63 64.1 62.95 64.05 62.9 64.05 62.85 64.1 62.75 64.1 62.7 64.05 62.65
Q 64.05 62.55 64 62.5
L 64.1 62.25 64.1 62.2 64.05 62.15
Q 64.05 62.05 64 62
L 64.1 61.75 64.1 61.7 64.05 61.65 64.05 61.6 64.1 61.5 64.1 61.45 64.05 61.4
Q 63.95 61.05 63.7 61.2
M 61.45 55.4
L 61.1 55.05 60.9 55.1 60.8 55.2 60.75 55.45 60.75 55.95 60.8 56 60.75 56.2 60.75 56.45 60.8 56.5 60.75 56.7 60.75 57.45 60.85 57.6 60.9 57.6 61.2 57.7 61.3 57.7 61.4 57.6 61.45 57.45 61.45 56.65 61.4 56.6 61.45 56.45 61.45 56.15 61.4 56.1 61.45 55.95 61.45 55.4
M 73.45 52.3
L 73.5 52.1
Q 73.5 52.05 73.5 52
L 73.5 51.85
Q 73.45 51.6 73.2 51.5
L 72.95 51.55 72.85 51.75 72.85 51.85
Q 72.85 51.9 72.9 51.95
L 72.85 52 72.85 52.1
Q 72.9 52.3 72.95 52.35
L 72.85 52.5 72.85 52.6
Q 72.9 52.8 72.95 52.85
L 72.85 53 72.85 53.1
Q 72.85 53.15 72.9 53.2
L 72.85 53.25 72.85 53.35
Q 72.85 53.4 72.9 53.45
L 72.85 53.5 72.85 53.6
Q 72.9 53.9 73 53.9
L 73.2 54
Q 73.4 53.9 73.45 53.8
L 73.5 53.6
Q 73.5 53.55 73.5 53.5
L 73.5 53.35
Q 73.5 53.3 73.5 53.25
L 73.5 53.1
Q 73.45 52.95 73.4 52.85 73.45 52.85 73.45 52.8
L 73.5 52.6
Q 73.45 52.45 73.4 52.35 73.45 52.35 73.45 52.3
M 40.05 91.8
L 39.9 91.7 39.85 91.65 39.65 91.65 39.5 91.7
Q 39.25 91.85 39.35 92.1 39.3 92.2 39.35 92.35 39.35 92.45 39.4 92.5 39.25 92.65 39.35 92.85 39.35 92.95 39.4 93 39.25 93.15 39.35 93.35 39.3 93.45 39.35 93.6 39.3 93.7 39.35 93.85 39.35 94 39.5 94.15
L 39.7 94.2 39.75 94.2 39.9 94.15 40.05 94
Q 40.15 93.8 40.1 93.75
L 40.1 93.65
Q 40.15 93.55 40.1 93.5
L 40.1 93.4
Q 40.15 93.3 40.1 93.25
L 40.05 93.05 40.05 93
Q 40.15 92.8 40.1 92.75
L 40.05 92.55 40.05 92.5
Q 40.15 92.3 40.1 92.25
L 40.1 92.15
Q 40.15 92.05 40.1 92
L 40.05 91.8
M 33.95 77.8
Q 33.8 77.55 33.6 77.55
L 33.5 77.5 33.25 77.8 33.25 78.45 33.3 78.5 33.25 78.55 33.25 78.95 33.3 79 33.25 79.05 33.25 79.95 33.3 80 33.55 80.1 33.75 80.1 34 79.8
Q 34.05 79.65 34 79.55 34.05 79.4 34 79.3 34.05 79.1 33.95 79.05 33.9 79 33.9 78.95
L 34 78.8
Q 34.05 78.6 33.95 78.55 33.9 78.5 33.9 78.45
L 34 78.3
Q 34.05 78.15 34 78.05 34.05 77.85 33.95 77.8
M 18.55 76.55
L 18.55 76.2 18.45 76.05 18.4 76.05 18.3 75.95
Q 18.1 75.95 18 76.05 17.9 76.15 17.95 76.35 17.9 76.45 17.95 76.6
L 17.95 76.65 18 76.8
Q 17.9 76.9 17.95 77.1
L 17.95 77.15 18 77.3
Q 17.9 77.4 17.95 77.6 17.9 77.7 17.95 77.85 17.9 77.95 17.95 78.1
L 17.95 78.15 18 78.3 18.1 78.35 18.3 78.4 18.35 78.4 18.5 78.3 18.5 78.25 18.55 78.05 18.55 77.45 18.5 77.3 18.5 77.25 18.55 77.05 18.55 76.95 18.5 76.8 18.5 76.75 18.55 76.55
M 18.65 52.5
L 18.65 52.45 18.6 52.45 18.6 52.4 18.45 52.35
Q 18.25 52.35 18.1 52.6
L 18.1 52.65 18.05 52.7 18.05 52.85
Q 18.05 52.9 18.1 52.9
L 18.05 52.95 18.05 53.1
Q 18.05 53.2 18.15 53.25 18.15 53.3 18.1 53.35
L 18.1 53.4 18.05 53.45 18.05 53.6
Q 18.05 53.7 18.15 53.75 18.15 53.8 18.1 53.85
L 18.1 53.9 18.05 53.95 18.05 54.1
Q 18.05 54.15 18.1 54.15
L 18.05 54.2 18.05 54.35
Q 18.05 54.4 18.1 54.4
L 18.05 54.45 18.05 54.6
Q 18.05 54.7 18.2 54.8
L 18.25 54.85 18.45 54.9
Q 18.9 54.75 18.8 54.4
L 18.8 54.35
Q 18.85 54.3 18.8 54.15
L 18.8 54.1
Q 18.85 54.05 18.8 53.9
L 18.8 53.85 18.7 53.75
Q 18.85 53.65 18.8 53.4
L 18.8 53.35 18.7 53.25
Q 18.85 53.15 18.8 52.9
L 18.8 52.85
Q 18.85 52.8 18.8 52.65
L 18.8 52.6 18.65 52.5
M 31.35 74
Q 31.25 73.75 30.95 73.75
L 30.75 73.9 30.7 74 30.75 74.15 30.7 74.25 30.75 74.45
Q 30.8 74.55 30.85 74.55
L 30.75 74.65 30.7 74.75 30.75 74.95
Q 30.8 75.05 30.85 75.05
L 30.75 75.15 30.7 75.25 30.75 75.4 30.7 75.5 30.75 75.65 30.7 75.75 30.75 75.95
Q 30.85 76.15 31.1 76.15
L 31.3 76.05 31.35 76 31.35 75.25
Q 31.3 75.15 31.25 75.05
L 31.3 75.05 31.35 75 31.35 74.75
Q 31.3 74.65 31.25 74.55
L 31.3 74.55 31.35 74.5 31.35 74
M 34.15 60.85
L 33.9 61.05
Q 33.85 61.15 33.95 61.25
L 33.9 61.3
Q 33.85 61.4 33.95 61.6 34 61.65 34.05 61.7
L 33.9 61.8
Q 33.85 61.9 33.95 62.1 34 62.15 34.05 62.2
L 33.9 62.3
Q 33.85 62.4 33.95 62.5
L 33.9 62.55
Q 33.85 62.65 33.95 62.75
L 33.9 62.8
Q 33.85 62.9 33.95 63.1 34.05 63.25 34.2 63.25 34.65 63.3 34.7 62.9
L 34.65 62.85
Q 34.7 62.75 34.7 62.65
L 34.65 62.6
Q 34.7 62.5 34.7 62.4
L 34.6 62.3
Q 34.65 62.25 34.6 62.15 34.7 62.05 34.7 61.9
L 34.6 61.8
Q 34.65 61.75 34.6 61.65 34.7 61.55 34.7 61.4
L 34.65 61.35
Q 34.7 61.25 34.7 61.15
L 34.6 61.05
Q 34.65 60.95 34.5 60.8
L 34.4 60.75
Q 34.25 60.7 34.15 60.85
M 33.25 50.75
L 33.25 50.55
Q 33.2 50.15 32.75 50.15
L 32.65 50.2 32.5 50.35
Q 32.5 50.55 32.65 50.85 32.95 50.95 33.05 50.9
L 33.15 50.8 33.25 50.75
M 40.1 51
L 39.95 50.85
Q 39.85 50.7 39.65 50.7
L 39.55 50.7 39.5 50.8 39.35 51 39.45 51.15 39.35 51.25 39.4 51.35 39.45 51.5 39.45 51.6 39.35 51.75 39.4 51.85 39.45 52 39.45 52.1 39.35 52.25 39.45 52.4 39.35 52.5 39.45 52.65 39.35 52.75 39.4 52.85 39.45 53 39.45 53.1 39.7 53.2 39.85 53.1 39.9 53.15
Q 40.05 52.95 40.05 52.85
L 40.1 52.75 40.05 52.65 40.05 52.6 40.1 52.5 40.05 52.4 40.05 52.35 40.1 52.25 39.95 52.1
Q 40.05 51.95 40.05 51.85
L 40.1 51.75 39.95 51.6
Q 40.05 51.45 40.05 51.35
L 40.1 51.25 40.05 51.15 40.05 51.1 40.1 51
M 33.25 49.3
Q 33.2 48.9 32.75 48.9
L 32.65 48.95 32.5 49.1
Q 32.5 49.2 32.55 49.3
L 32.5 49.35
Q 32.5 49.55 32.65 49.85 32.95 49.95 33.05 49.9
L 33.15 49.8 33.25 49.75 33.25 49.3
M 28.8 40.9
L 28.8 40.85
Q 28.85 40.85 28.85 40.8
L 28.8 40.65 28.8 40.45
Q 28.7 40.25 28.4 40.3
L 28.4 40.35 28.35 40.3
Q 28.15 40.4 28.05 40.65
L 28.1 40.65 28.15 40.75
Q 28.1 40.8 28.05 40.9
L 28.1 40.9 28.15 41.1 28.15 41.2
Q 28.1 41.3 28.05 41.4
L 28.1 41.4 28.15 41.6 28.15 41.7
Q 28.1 41.8 28.05 41.9
L 28.1 41.9 28.15 42
Q 28.1 42.05 28.05 42.15
L 28.1 42.15 28.15 42.25
Q 28.1 42.3 28.05 42.4
L 28.1 42.4 28.15 42.6 28.15 42.7 28.45 42.85 28.5 42.8 28.55 42.8
Q 28.75 42.7 28.85 42.55
L 28.8 42.4 28.8 42.35
Q 28.85 42.35 28.85 42.3
L 28.8 42.15 28.8 42.1
Q 28.85 42.1 28.85 42.05
L 28.8 41.9 28.8 41.65
Q 28.8 41.6 28.85 41.55
L 28.8 41.4 28.8 41.15
Q 28.8 41.1 28.85 41.05
L 28.8 40.9
M 26.8 37
L 26.55 36.75
Q 26.25 36.65 26.1 36.9
L 26.05 37.1 26.05 37.25 26.1 37.3 26.05 37.35 26.05 37.5
Q 26.05 37.55 26.15 37.6
L 26.1 37.65 26.05 37.85 26.05 38
Q 26.05 38.05 26.15 38.1
L 26.1 38.15 26.05 38.35 26.05 38.5 26.1 38.55 26.05 38.6 26.05 38.75 26.1 38.8 26.05 38.85 26.05 39
Q 26.05 39.05 26.2 39.2
L 26.35 39.25 26.4 39.25 26.5 39.2
Q 26.65 39.2 26.8 39
L 26.8 38.25 26.7 38.1
Q 26.75 38.1 26.8 38
L 26.8 37.75 26.7 37.6
Q 26.75 37.6 26.8 37.5
L 26.8 37
M 38.4 36.95
L 38.05 36.95 37.9 37.3 37.95 37.45 37.9 37.55 38 37.8 37.9 38.05 38 38.3 37.9 38.55 37.95 38.7 37.9 38.8 37.95 38.95 37.9 39.05 38 39.35 38.1 39.45 38.25 39.5
Q 38.5 39.5 38.7 39.15
L 38.65 38.95
Q 38.7 38.95 38.7 38.9
L 38.65 38.7
Q 38.7 38.7 38.7 38.65
L 38.65 38.45 38.65 38.4 38.6 38.4 38.55 38.35
Q 38.65 38.25 38.7 38.15
L 38.65 37.95 38.65 37.9 38.6 37.9 38.55 37.85
Q 38.65 37.75 38.7 37.65
L 38.65 37.45
Q 38.7 37.45 38.7 37.4
L 38.65 37.2 38.65 37.15 38.6 37.15 38.4 36.95
M 36.45 27.8
L 36.45 27.75 36.25 27.65 36.25 27.6
Q 35.95 27.5 35.8 27.8
L 35.75 27.85 35.7 28 35.7 28.2 35.75 28.2 35.7 28.25 35.7 28.45 35.8 28.55 35.75 28.6 35.7 28.75 35.7 28.95 35.8 29.05 35.75 29.1 35.7 29.25 35.7 29.45 35.75 29.45 35.7 29.5 35.7 29.7 35.75 29.7 35.7 29.75 35.7 29.95 35.9 30.15
Q 36.05 30.2 36.25 30.1
L 36.5 29.85 36.5 29.3 36.45 29.05 36.45 29 36.4 28.95 36.5 28.85 36.5 28.8 36.45 28.55 36.45 28.5 36.4 28.45 36.5 28.35 36.5 28.05 36.45 27.8
M 15.05 46.1
L 14.95 46.15 14.8 46.1 14.95 46.1
Q 14.6 46 14.5 46.4
L 14.55 46.45 14.55 46.5
Q 14.5 46.55 14.5 46.65
L 14.55 46.7 14.55 46.9 14.6 46.95
Q 14.55 47.05 14.5 47.15
L 14.55 47.2 14.55 47.4 14.6 47.45
Q 14.55 47.55 14.5 47.65
L 14.55 47.7 14.55 47.75
Q 14.5 47.8 14.5 47.9
L 14.55 47.95 14.55 48
Q 14.5 48.05 14.5 48.15
L 14.55 48.2 14.55 48.4 14.6 48.5 14.65 48.55 14.75 48.6 15.2 48.6 15.35 48.55 15.45 48.5 15.5 48.5 15.55 48.4 15.6 48.15
Q 15.6 48.1 15.6 48.05
L 15.6 47.9
Q 15.6 47.85 15.6 47.8
L 15.6 47.65
Q 15.6 47.55 15.55 47.45
L 15.55 47.4 15.6 47.15
Q 15.6 47.05 15.55 46.95
L 15.55 46.9 15.6 46.65
Q 15.6 46.6 15.6 46.55
L 15.6 46.4
Q 15.55 46.2 15.35 46.1
L 15.25 46.05 15.2 46.05 15.05 46.1
M 17.9 35.35
L 18 35.4
Q 17.75 35.5 17.85 35.75
L 17.9 35.85 18 35.9
Q 17.75 36 17.85 36.25 17.8 36.35 17.85 36.5 17.8 36.6 17.85 36.75
L 17.9 36.85 18.05 36.95 18.25 36.95 18.4 36.8 18.45 36.7 18.45 36.55
Q 18.45 36.5 18.45 36.45
L 18.45 36.3
Q 18.45 36.25 18.45 36.2
L 18.45 36.05
Q 18.45 35.9 18.35 35.85
L 18.4 35.8 18.45 35.7 18.45 35.55
Q 18.45 35.4 18.35 35.35
L 18.4 35.3 18.45 35.2 18.45 35.05
Q 18.45 35 18.45 34.95
L 18.45 34.8
Q 18.4 34.5 18.1 34.6 17.75 34.7 17.85 35 17.8 35.1 17.85 35.25
L 17.9 35.35
M 14.1 18.55
L 14.15 18.55 14.2 18.65 14.15 18.7 14.1 18.8 14.1 19.05 14.15 19.05 14.2 19.15 14.15 19.2 14.1 19.3 14.1 20.05 14.15 20.05 14.2 20.2
Q 14.3 20.3 14.5 20.3
L 14.7 20.25 14.75 20.2 14.8 20.05 14.8 19.9
Q 14.8 19.85 14.8 19.8
L 14.8 19.65
Q 14.8 19.6 14.8 19.55
L 14.8 19.4
Q 14.8 19.25 14.75 19.2
L 14.8 19.05 14.8 18.9
Q 14.8 18.75 14.75 18.7
L 14.8 18.55 14.8 18.4
Q 14.8 18.35 14.8 18.3
L 14.8 18.15
Q 14.8 17.95 14.65 17.9 14.6 17.85 14.3 17.85
L 14.15 17.95 14.1 18.05 14.1 18.55
M 35.75 18.55
L 35.6 18.5
Q 35.4 18.5 35.25 18.75
L 35.25 19.3
Q 35.3 19.35 35.35 19.4 35.3 19.45 35.25 19.5
L 35.25 19.8
Q 35.3 19.85 35.35 19.9 35.3 19.95 35.25 20
L 35.25 20.8
Q 35.4 21.1 35.7 21
L 35.9 20.85 35.95 20.8 35.95 20 35.85 19.9 35.95 19.8 35.95 19.5 35.85 19.4 35.95 19.3 35.95 18.75 35.75 18.55
M 26.15 23.85
L 26.1 23.8 25.9 23.85
Q 25.75 23.85 25.75 24.05
L 25.7 24.25
Q 25.7 24.3 25.75 24.3
L 25.7 24.5
Q 25.75 24.55 25.85 24.6 25.75 24.65 25.75 24.8
L 25.7 25
Q 25.75 25.05 25.85 25.1 25.75 25.15 25.75 25.3
L 25.7 25.5
Q 25.7 25.55 25.75 25.55
L 25.7 25.75
Q 25.7 25.8 25.75 25.8
L 25.7 26
Q 25.9 26.25 26.2 26.2
L 26.35 26.05 26.35 25.25 26.25 25.15 26.35 25.05 26.35 24.75 26.25 24.65 26.35 24.55 26.35 24 26.3 23.95 26.15 23.85
M 77.55 39.85
Q 77.35 39.8 77.2 39.85
L 77.05 39.95 77.05 40.15 77 40.15 77.05 40.35 77.05 40.4 77 40.4 77.05 40.6 77.05 40.9 77 40.9 77.05 41.1 77.05 41.4 77 41.4 77.05 41.6 77.05 41.65 77 41.65 77.05 41.85 77.05 41.9 77 41.9 77.05 42.1 77.05 42.2 77.1 42.25 77.2 42.3 77.5 42.3 77.7 42.2 77.75 42
Q 77.75 41.95 77.75 41.85
L 77.75 41.75
Q 77.75 41.7 77.75 41.6
L 77.75 41.5
Q 77.75 41.4 77.65 41.2
L 77.7 41.2 77.75 41
Q 77.75 40.9 77.65 40.7
L 77.7 40.7 77.75 40.5
Q 77.75 40.45 77.75 40.35
L 77.75 40.25
Q 77.75 40.1 77.55 39.85
M 67 48.7
L 66.95 48.65 66.95 48.6 66.75 48.6 66.55 48.65 66.5 48.65 66.4 48.8 66.35 48.95
Q 66.35 49 66.4 49.1
L 66.35 49.2
Q 66.35 49.3 66.45 49.45
L 66.4 49.55 66.35 49.7
Q 66.35 49.8 66.45 49.95
L 66.4 50.05 66.35 50.2
Q 66.35 50.25 66.4 50.35
L 66.35 50.45
Q 66.35 50.5 66.4 50.6
L 66.35 50.7
Q 66.35 50.8 66.45 51
L 66.6 51.15 66.7 51.1 66.8 51.1 66.9 51 67 51.05
Q 67.2 51.05 67.3 50.85
L 67.25 50.75
Q 67.25 50.7 67.25 50.65 67.3 50.65 67.3 50.6
L 67.25 50.5
Q 67.25 50.45 67.25 50.4 67.3 50.4 67.3 50.35
L 67.25 50.25
Q 67.25 50.05 67.2 50 67.25 49.95 67.3 49.85
L 67.25 49.75
Q 67.25 49.55 67.2 49.5 67.25 49.45 67.3 49.35
L 67.25 49.25
Q 67.25 49.2 67.25 49.15 67.3 49.15 67.3 49.1
L 67.25 49
Q 67.25 48.65 67 48.7
M 64.5 40.75
L 64.45 40.75 64.5 40.5
Q 64.3 40.45 64.1 40.55
L 64 40.75 63.95 40.8 63.95 40.95 64 41 63.95 41.05 63.95 41.2 64.05 41.4 64 41.5 63.95 41.55 63.95 41.7 64.05 41.9 64 42 63.95 42.05 63.95 42.2 64 42.25 63.95 42.3 63.95 42.45 64 42.5 63.95 42.55 63.95 42.7 64.05 42.9
Q 64.3 43.1 64.45 42.95
L 64.45 42.5 64.5 42.25 64.45 42.25 64.5 42 64.45 42 64.5 41.75 64.45 41.75 64.45 41.5 64.5 41.25 64.45 41.25 64.45 41 64.5 40.75
M 63.1 35.5
L 63 35.45 62.85 35.4
Q 62.6 35.35 62.5 35.6
L 62.45 35.7
Q 62.45 35.8 62.5 35.9
L 62.45 35.95
Q 62.45 36.2 62.55 36.25 62.5 36.3 62.5 36.35
L 62.45 36.45
Q 62.45 36.7 62.55 36.75 62.5 36.8 62.5 36.85
L 62.45 36.95
Q 62.45 37.05 62.5 37.15
L 62.45 37.2
Q 62.45 37.3 62.5 37.4
L 62.45 37.45
Q 62.45 37.7 62.55 37.75 62.65 37.95 62.85 37.9
L 62.95 37.85 63.05 37.85 63.2 37.5
Q 63.25 37.45 63.2 37.3
L 63.2 37.25
Q 63.25 37.2 63.2 37.05
L 63.2 37
Q 63.25 36.9 63.1 36.75
L 63.2 36.5
Q 63.25 36.4 63.1 36.25
L 63.2 36
Q 63.25 35.95 63.2 35.8
L 63.2 35.75
Q 63.25 35.65 63.1 35.5
M 66.5 30.4
L 66.45 30.35 66.45 30.45 66.5 30.4
M 66.5 30.9
L 66.45 30.85 66.45 30.95 66.5 30.9
M 66.5 29.65
L 66.45 29.6 66.45 29.7 66.5 29.65
M 66.5 29.75
L 66.45 29.75 66.35 29.65 66.45 29.6 66.55 29.55
Q 66.4 29.45 66.25 29.45
L 66.05 29.5 66 29.65
Q 65.9 29.8 66 29.9 65.9 30.1 66.05 30.2
L 66.15 30.2 66.05 30.25 66 30.4
Q 65.9 30.6 66.05 30.7
L 66.15 30.7 66.05 30.75 66 30.9
Q 65.9 31.05 66 31.15 65.9 31.3 66 31.4 65.9 31.6 66.05 31.7
L 66.3 31.8 66.35 31.85
Q 66.6 31.85 66.65 31.55
L 66.55 31.5
Q 66.65 31.45 66.65 31.3
L 66.55 31.25
Q 66.65 31.2 66.65 31.05
L 66.5 31 66.45 31 66.35 30.9 66.45 30.85 66.55 30.8
Q 66.6 30.7 66.65 30.55
L 66.5 30.5 66.4 30.5 66.4 30.45 66.35 30.4 66.45 30.35 66.55 30.3
Q 66.6 30.2 66.65 30.05
L 66.55 30
Q 66.65 29.95 66.65 29.8
L 66.5 29.75
M 73.1 33.95
L 73.05 33.8 73.05 33.75 72.75 33.65 72.55 33.65 72.5 33.7 72.4 33.85 72.4 33.9
Q 72.35 34 72.4 34.1
L 72.4 34.15
Q 72.35 34.35 72.5 34.45
L 72.4 34.6 72.4 34.65
Q 72.35 34.85 72.5 34.95
L 72.4 35.1 72.4 35.15
Q 72.35 35.25 72.4 35.35
L 72.4 35.4
Q 72.35 35.5 72.4 35.6
L 72.4 35.65
Q 72.35 35.85 72.5 35.95
L 72.75 36.1 73.05 35.95 73.1 35.7 73.1 35.2 73.05 35.05 73.05 35 73 34.95 73.05 34.95 73.1 34.7 73.05 34.55 73.05 34.5 73 34.45 73.05 34.45 73.1 34.2 73.1 33.95
M 60.65 46.5
L 60.65 46.55
Q 60.65 46.65 60.7 46.7
L 60.65 46.75 60.65 46.8
Q 60.65 46.95 60.75 47.05
L 60.65 47.25 60.65 47.3
Q 60.65 47.45 60.75 47.55
L 60.65 47.75 60.65 47.8
Q 60.65 47.9 60.7 47.95
L 60.65 48 60.65 48.05
Q 60.65 48.15 60.7 48.2
L 60.65 48.25 60.65 48.3
Q 60.65 48.55 60.85 48.6
L 61.1 48.6 61.35 48.55 61.45 48.4 61.45 47.8 61.4 47.6
Q 61.4 47.55 61.4 47.5
L 61.45 47.4 61.45 47.3 61.4 47.1
Q 61.4 47.05 61.4 47
L 61.45 46.9 61.45 46.55 61.4 46.35
Q 61.4 46.3 61.35 46.25
L 61.2 46.1 61 46.1 60.75 46.15 60.75 46.25 60.7 46.4 60.65 46.5
M 52.95 40.85
Q 52.9 40.75 52.9 40.7
L 52.95 40.6
Q 52.85 40.35 52.6 40.35
L 52.4 40.35 52.2 40.55 52.25 40.75 52.2 40.8 52.25 41 52.3 41.1 52.4 41.1 52.2 41.3 52.25 41.5 52.3 41.6 52.4 41.6 52.2 41.8 52.25 42 52.2 42.05 52.25 42.25 52.2 42.3 52.25 42.5 52.3 42.6 52.6 42.7
Q 52.75 42.75 52.85 42.55
L 52.8 42.55 52.95 42.35
Q 52.9 42.25 52.9 42.2
L 52.95 42.1
Q 52.9 42 52.9 41.95
L 52.95 41.85
Q 52.9 41.7 52.8 41.65 52.8 41.6 52.85 41.55
L 52.8 41.55 52.95 41.35
Q 52.9 41.2 52.8 41.15 52.8 41.1 52.85 41.05
L 52.8 41.05 52.95 40.85
M 47.85 49.45
Q 47.85 49.25 47.7 49.1
L 47.6 49.05
Q 47.4 49 47.25 49.1 47.05 49.1 47.1 49.3 47.05 49.4 47.1 49.5
L 47.1 49.55
Q 47.05 49.7 47.15 49.9 47.05 49.95 47.1 50.05 47.05 50.2 47.15 50.4 47.05 50.45 47.1 50.55 47.05 50.65 47.1 50.75
L 47.1 50.8
Q 47.05 50.9 47.1 51
L 47.1 51.05
Q 47.05 51.25 47.15 51.45 47.25 51.6 47.5 51.55
L 47.6 51.55 47.7 51.45 47.85 51.2
Q 47.85 51.1 47.85 51
L 47.85 50.95
Q 47.85 50.85 47.85 50.75
L 47.85 50.7
Q 47.85 50.55 47.75 50.4
L 47.85 50.2
Q 47.85 50.05 47.75 49.9
L 47.85 49.7
Q 47.85 49.6 47.85 49.5
L 47.85 49.45
M 40.75 43.05
Q 40.75 43.25 40.85 43.3
L 40.8 43.4 40.75 43.45 40.75 43.55
Q 40.75 43.75 40.85 43.8
L 40.8 43.9 40.75 43.95 40.75 44.05
Q 40.75 44.15 40.8 44.15
L 40.75 44.2 40.75 44.3
Q 40.75 44.4 40.8 44.4
L 40.75 44.45 40.75 44.55
Q 40.75 44.75 40.85 44.8 40.95 44.95 41.1 44.9
L 41.2 44.9 41.4 44.7
Q 41.4 44.6 41.35 44.5
L 41.4 44.45
Q 41.4 44.35 41.35 44.25
L 41.4 44.2
Q 41.35 44 41.25 43.85
L 41.4 43.7
Q 41.35 43.5 41.25 43.35
L 41.4 43.2
Q 41.4 43.1 41.35 43
L 41.4 42.95
Q 41.35 42.7 41.2 42.5
L 40.85 42.55 40.8 42.65 40.75 42.7 40.75 42.8
Q 40.75 42.9 40.8 42.9
L 40.75 42.95 40.75 43.05
M 47.95 33.25
L 47.7 33.4 47.55 33.55 47.6 33.65 47.65 33.7 47.55 33.8 47.6 33.9 47.65 34.15 47.7 34.15 47.55 34.3 47.6 34.4 47.65 34.65 47.7 34.65 47.55 34.8 47.6 34.9 47.65 34.95 47.55 35.05 47.6 35.15 47.65 35.2 47.55 35.3 47.6 35.4 47.65 35.65 47.75 35.75
Q 47.9 35.8 48.05 35.7
L 48.1 35.75 48.35 35.55
Q 48.35 35.4 48.35 35.3 48.35 35.15 48.35 35.05 48.4 34.8 48.25 34.65
L 48.35 34.55
Q 48.4 34.3 48.25 34.15
L 48.35 34.05
Q 48.35 33.9 48.35 33.8 48.4 33.4 47.95 33.25
M 46 26.25
L 46 26.2
Q 46.05 26.1 45.9 25.95
L 45.85 25.85 45.75 25.9 45.65 25.85 45.4 26.05 45.3 26.1 45.15 26.2 45.15 26.4 45.2 26.4 45.15 26.45 45.15 26.65 45.3 26.85 45.15 26.95 45.15 27.15 45.3 27.35 45.15 27.45 45.15 27.65 45.2 27.65 45.15 27.7 45.15 27.9 45.2 27.9 45.15 27.95 45.15 28.15 45.3 28.4 45.65 28.4 46 28.2 45.95 28.05 46 27.95
Q 46.05 27.9 46 27.75
L 46 27.7
Q 46.05 27.65 46 27.5
L 46 27.45
Q 46.05 27.35 45.95 27.25
L 46 27.2 45.95 27.05 46 26.95
Q 46.05 26.85 45.95 26.7
L 46 26.7 45.95 26.55 46 26.45
Q 46.05 26.4 46 26.25
M 53.85 27.75
L 53.7 27.65 53.4 27.65 53.35 27.75 53.3 27.95
Q 53.2 28.15 53.3 28.25 53.2 28.45 53.35 28.55
L 53.3 28.7
Q 53.2 28.95 53.35 29.1
L 53.3 29.2
Q 53.2 29.4 53.3 29.5 53.25 29.65 53.3 29.75 53.2 30.05 53.5 30.2
L 53.75 30.2 53.85 30.1 53.9 30.1 54 29.9 54 29.4 53.95 29.15 53.9 29.05 54 28.9 53.95 28.65 53.9 28.55 54 28.4 54 28.15 53.95 27.9 53.85 27.75
M 52.45 21.5
L 52.35 21.3 52.25 21.2 52.1 21.2 51.85 21.25 51.75 21.3 51.7 21.35 51.65 21.5 51.65 21.65 51.7 21.7 51.65 21.75 51.65 21.9 51.75 22.05 51.7 22.1 51.65 22.25 51.65 22.4 51.75 22.55 51.7 22.6 51.65 22.75 51.65 22.9 51.7 22.95 51.65 23 51.65 23.15 51.7 23.2 51.65 23.25 51.65 23.4 51.75 23.6 51.9 23.7 52.2 23.7
Q 52.4 23.7 52.4 23.45
L 52.45 23.35 52.45 22.75 52.4 22.6
Q 52.4 22.55 52.4 22.45
L 52.45 22.35 52.45 22.25 52.4 22.1
Q 52.4 22.05 52.4 21.95
L 52.45 21.85 52.45 21.5
M 58.2 18.1
Q 58.15 18.2 58.15 18.3 58.15 18.35 58.25 18.45 58.15 18.6 58.15 18.8 58.15 18.85 58.25 18.95 58.15 19.1 58.15 19.3
L 58.2 19.35
Q 58.15 19.45 58.15 19.55
L 58.2 19.6
Q 58.15 19.7 58.15 19.8 58.15 19.85 58.5 20.2
L 58.75 20.2
Q 58.9 20.05 58.9 19.95
L 58.95 19.95 58.95 19.1 58.9 19 58.9 18.95 58.95 18.95 58.95 18.6 58.9 18.5 58.9 18.45 58.95 18.45 58.95 17.85 58.75 17.65 58.3 17.65 58.25 17.7
Q 58.15 17.85 58.15 18.05
L 58.2 18.1
M 44.2 13.85
L 43.95 13.8 43.85 13.8
Q 43.65 13.85 43.65 14.15
L 43.7 14.15
Q 43.65 14.25 43.65 14.4
L 43.85 14.55
Q 43.65 14.65 43.65 14.9
L 43.85 15.05
Q 43.65 15.15 43.65 15.4
L 43.7 15.4
Q 43.65 15.5 43.65 15.65
L 43.7 15.65
Q 43.65 15.75 43.65 15.9
L 43.85 16.1 44 16.2 44.25 16.05 44.3 16 44.35 15.85 44.35 15.8 44.3 15.75 44.35 15.6 44.35 15.55 44.3 15.5 44.35 15.35 44.35 15.3 44.2 15.1 44.3 15 44.35 14.85 44.35 14.8 44.2 14.6 44.3 14.5 44.35 14.35 44.35 14.3 44.3 14.25 44.35 14.1 44.35 14.05 44.2 13.85
M 56.05 6.1
L 56.05 6.05
Q 55.95 5.8 55.7 5.85
L 55.5 5.9 55.45 6 55.4 6.15 55.45 6.25 55.4 6.4 55.45 6.5 55.5 6.65 55.45 6.75 55.4 6.9 55.45 7 55.5 7.15 55.45 7.25 55.4 7.4 55.45 7.5 55.4 7.65 55.45 7.75 55.4 7.9 55.45 8 55.5 8.15 55.55 8.15 55.65 8.25
Q 55.9 8.25 55.95 8.15
L 56.05 7.85 56.05 7.8
Q 56.05 7.75 56 7.7
L 56.05 7.6 56.05 7.55
Q 56.05 7.5 56 7.45
L 56.05 7.35 56.05 7.3
Q 56 7.2 55.95 7.15
L 56.05 6.85 56.05 6.8
Q 56 6.7 55.95 6.65
L 56.05 6.35 56.05 6.3
Q 56.05 6.25 56 6.2
L 56.05 6.1
M 75.65 18.5
L 75.55 18.3 75.4 18.15 75.1 18.15 74.9 18.35 74.9 18.9 75 19 74.9 19.1 74.9 19.4 75 19.5 74.9 19.6 74.9 20.4 75 20.55 75.05 20.55 75.1 20.6 75.45 20.6 75.55 20.55 75.6 20.5 75.65 20.25 75.65 19.75 75.55 19.55 75.6 19.5 75.65 19.25 75.55 19.05 75.6 19 75.65 18.75 75.65 18.5
M 65.8 19.95
Q 65.35 20.05 65.45 20.45 65.4 20.55 65.45 20.7
L 65.5 20.85
Q 65.4 21 65.45 21.2
L 65.5 21.35
Q 65.4 21.5 65.45 21.7 65.4 21.8 65.45 21.95 65.4 22.05 65.45 22.2
L 65.5 22.4 65.65 22.45 65.7 22.5 65.85 22.5 66.15 22.3 66.2 22.15 66.2 21.5 66.1 21.3 66.15 21.3 66.2 21.15 66.2 21 66.1 20.8 66.15 20.8 66.2 20.65 66.2 20.25 66.05 20 65.8 19.95
M 85.1 57.15
L 85.05 57.2 85.05 57.35
Q 85.1 57.45 85.15 57.5
L 85.1 57.55 85.1 57.6 85.05 57.7 85.05 57.85
Q 85.1 57.95 85.15 58
L 85.1 58.05 85.1 58.1 85.05 58.2 85.05 58.35 85.1 58.4 85.05 58.45 85.05 58.6 85.1 58.65 85.05 58.7 85.05 58.85
Q 85.15 59.15 85.4 59.15 85.65 59.2 85.85 58.95
L 85.9 58.85 85.9 58.8 85.85 58.7 85.9 58.6 85.9 58.55 85.85 58.45 85.9 58.35 85.9 58.3 85.8 58 85.85 57.95 85.9 57.85 85.9 57.8 85.8 57.5 85.85 57.45 85.9 57.35 85.9 57.3 85.85 57.2 85.9 57.1 85.9 57.05 85.75 56.75 85.75 56.8 85.65 56.7 85.6 56.7 85.5 56.65
Q 85.3 56.65 85.2 56.75
L 85.1 56.8 85.1 56.85 85.05 56.95 85.05 57.1 85.1 57.15
M 83.1 41.7
Q 82.9 41.4 82.65 41.55
L 82.5 41.75 82.5 41.85 82.65 41.85 82.5 42 82.5 42.1 82.7 42.1 82.55 42.2
Q 82.6 42.25 82.65 42.3
L 82.5 42.5 82.5 42.6 82.7 42.6 82.55 42.7
Q 82.6 42.75 82.65 42.8
L 82.5 43 82.5 43.1 82.65 43.1 82.5 43.25 82.5 43.35 82.65 43.35 82.5 43.5 82.5 43.6 82.7 43.6 82.55 43.7
Q 82.7 44 83 43.85
L 83.1 43.65 83.1 42.95
Q 83.05 42.9 83 42.8
L 83.1 42.65 83.1 42.45
Q 83.05 42.4 83 42.3
L 83.1 42.15 83.1 41.7 Z"/>
</g>
</defs>

<g transform="matrix( 1, 0, 0, 1, 0,0) ">
<use xlink:href="#Layer2_0_FILL"/>
</g>
</svg>
