
<svg xmlns="http://www.w3.org/2000/svg" version="1.1" xmlns:xlink="http://www.w3.org/1999/xlink" preserveAspectRatio="none" x="0px" y="0px" width="100px" height="100px" viewBox="0 0 100 100">
<defs>
<g id="Layer2_0_FILL">
<path fill="#000000" stroke="none" d="
M 71.2 76.65
L 71.5 76.65 71.85 76.55 72 76.45 72.1 76.3 72.25 76 72.25 75.95 72.3 75.85 72.3 75.55
Q 72.2 75.15 71.85 74.95 71.2 74.65 70.8 75.05 70.3 75.5 70.5 76.05
L 70.55 76.1 70.6 76.25 70.7 76.3 70.7 76.35 70.8 76.45 70.85 76.45 71.2 76.65
M 54.8 90.95
L 54.6 90.85 54.4 90.8 54.1 90.8
Q 53.3 91.1 53.4 92.2
L 53.5 92.35 53.7 92.55 53.9 92.6 54.25 92.65 54.45 92.6 54.65 92.45 54.75 92.35 54.8 92.25
Q 55.3 91.55 54.85 91.05
L 54.8 90.95
M 53.45 68.6
L 53.3 68.65 53.1 68.55 52.8 68.65 52.55 68.8 52.5 68.85 52.35 69.1 52.35 69.2 52.25 69.35 52.3 69.45
Q 52.4 69.95 52.75 70.1 53.05 70.3 53.45 70.2
L 53.55 70.2 53.8 69.95 53.95 69.6 53.95 69.4 53.85 69 53.45 68.6
M 42.3 68.85
L 42.05 68.7 41.75 68.6 41.6 68.65
Q 41.3 68.75 41.2 68.85 40.65 69.1 40.8 69.75 40.9 70.05 41.25 70.3 41.5 70.45 41.8 70.35
L 42 70.25 42.05 70.1 42.1 70.05 42.25 70 42.35 69.9 42.45 69.7 42.5 69.65 42.55 69.3 42.55 69.1 42.3 68.85
M 41.4 55.45
L 41.2 55.55 40.8 55.95 40.85 56 40.75 56.2 40.85 56.3
Q 41 56.85 41.25 57 41.45 57.1 41.6 57.15
L 41.7 57.25 41.7 57.35 41.95 57.5 42.1 57.55
Q 42.15 57.6 42.45 57.6
L 42.55 57.6 42.75 57.5 42.8 57.45 42.95 57.15 43.05 57.1
Q 43.15 57 43.15 56.7
L 43.1 56.55 42.95 56.3 42.75 56.2 42.55 56 42.35 55.6 42.25 55.6 42.15 55.5
Q 41.8 55.35 41.4 55.45
M 63.95 67.3
Q 63.8 67.85 63.95 68 64.15 68.6 64.95 68.6
L 65.05 68.6 65.4 68.35 65.45 68.3
Q 65.8 68.15 65.85 67.8 65.9 67.45 65.75 67.2 65.45 66.5 64.65 66.8 64.05 66.9 63.95 67.3
M 63.85 58.4
L 63.8 58.25
Q 63.5 57.35 62.75 57.6 62.3 57.75 62.1 58.05 61.95 58.4 62 58.85
L 62.35 59.2 62.8 59.35 62.95 59.3
Q 63.1 59.25 63.25 59.1
L 63.5 59.05 63.6 58.95 63.8 58.65 63.8 58.55 63.85 58.4
M 31.3 76.55
L 31.15 76.95 31.25 77.35 31.5 77.5 31.5 77.55 31.85 77.8 32.3 77.75 32.55 77.4 32.5 77.2 32.5 77.05 32.4 76.95 32.35 77 32.4 76.9
Q 32.15 76.65 32 76.55
L 31.85 76.5 31.5 76.5 31.3 76.55
M 9.45 64.95
L 9.35 64.85 9.2 64.75
Q 8.9 64.55 8.4 64.55
L 8 64.75 7.9 64.95 7.8 65.25 7.8 65.5 7.9 65.75 8 65.85 8.15 65.95 8.2 66 8.5 66.2
Q 9.2 66.55 9.7 66.15
L 9.85 66 9.95 65.8 9.95 65.65 9.9 65.3 9.8 65.2 9.65 65 9.45 64.95
M 35.55 64.1
L 35.5 63.75 35.2 63.45 35.1 63.45
Q 34.75 63.2 34.4 63.35
L 34.15 63.4 34.05 63.5 33.95 63.5 33.95 63.6 33.9 63.75 33.85 63.8 33.8 63.95
Q 33.75 64.4 34.05 64.7 34.45 65 35 64.85 35.4 64.75 35.5 64.35
L 35.6 64.25 35.5 64.15 35.55 64.1
M 32.2 52.45
L 32 52.55 31.9 52.65 31.7 52.95
Q 31.2 53.45 31.1 53.95
L 31.15 54.3 31.25 54.4 31.7 54.65 31.85 54.7 32.15 55 32.45 55.1
Q 32.8 55.25 33.05 55.2 33.6 55.05 33.6 54.35
L 33.4 54.15 33.4 54.05 33.15 53.8 33.05 53.8 33.15 53.6
Q 33.35 53.1 33.1 52.65
L 32.85 52.4 32.65 52.4 32.3 52.35 32.2 52.45
M 32.7 38.5
L 33.6 38.5
Q 33.25 38.25 32.85 38.45 32.7822265625 38.4693359375 32.7 38.5
M 28.3 45.75
L 28.15 46
Q 28.05 46.3 28.1 46.45
L 28.1 46.55 28.15 46.7 28.25 46.8 28.7 47.05
Q 28.8 47.15 29.2 47.05
L 29.25 47 29.4 46.95 29.55 46.8 29.7 46.55 29.6 45.95 29.6 45.85 29.4 45.65 29.05 45.5 28.6 45.45 28.3 45.75
M 21.65 40.1
L 21.35 40.1
Q 20.9 40.15 20.75 40.6 20.55 40.9 20.8 41.25
L 21 41.45 21.5 41.65 21.85 41.6 22.05 41.4 22.15 41.2 22.2 41.15
Q 22.3 40.85 22.25 40.7
L 22.2 40.55 22.1 40.35 21.65 40.1
M 30.65 31.4
L 30.5 31.45
Q 30.1 31.65 30 31.95 29.75 32.3 30.05 32.65
L 30.25 32.9 30.45 33 30.6 32.95 30.7 33.05 31 32.95 31.4 32.55 31.45 32.4 31.5 32.05 31.5 31.95 31.2 31.65 30.95 31.5 30.65 31.4
M 10.7 45.7
L 10.65 45.7
Q 10.2 45.95 10.2 46.45 10.2 46.95 10.7 47.2 11.15 47.45 11.45 47.25 11.9 47.05 11.95 46.75 12.1 46.1 11.45 45.75
L 11.35 45.7 11.25 45.7 11.2 45.65 10.85 45.65 10.7 45.7
M 18.2 31.9
L 17.9 31.9 17.7 31.95 17.6 32.05 17.45 32.15 17.4 32.2 17.2 32.55 17.2 32.8 17.35 33.2 17.55 33.4 17.75 33.5 17.85 33.5 18 33.55 18.15 33.55 18.4 33.45 18.45 33.45 18.6 33.35 18.7 33.25
Q 18.95 32.95 18.8 32.5 18.7 32.15 18.35 31.95
L 18.3 31.95 18.2 31.9
M 25.15 7.8
L 25.1 7.85 25.1 7.95 25 8.15 25 8.35 25.05 8.4
Q 25.15 8.75 25.45 8.95 25.95 9.15 26.4 8.9
L 26.55 8.75 26.7 8.4 26.7 8.1
Q 26.6 7.75 26.25 7.55 25.95 7.35 25.65 7.45 25.35 7.55 25.15 7.8
M 72.3 44.75
L 72.15 44.7 71.8 44.7 71.55 44.75 71.3 44.95 71.2 45
Q 70.85 45.55 71.2 46.1
L 71.35 46.2 71.6 46.3 71.75 46.4 72.1 46.35 72.4 46.15 72.3 45.95 72.45 46.05 72.35 45.95 72.5 46
Q 72.8 45.6 72.7 45.3 72.6 44.95 72.3 44.75
M 79.3 33.75
L 79.45 33.45 79.45 32.95 79.4 32.85 79.35 32.9 79.35 32.75
Q 79.1 32.4 78.95 32.3 78.5 32 78.05 32.45
L 78 32.55 77.9 32.7 77.85 32.8 77.85 33.15 77.95 33.35
Q 78.1 33.7 78.35 33.9 78.85 34.1 79.3 33.75
M 58.95 45.4
L 58.65 45.4
Q 58 45.65 58 46.25
L 58.2 46.75 58.85 47 59 46.95 59.6 46.35
Q 59.6 46.05 59.5 45.75
L 59.5 45.65 59.4 45.55 58.95 45.4
M 42.05 43.9
L 41.8 43.85 41.75 43.9 41.45 43.9 41.35 44
Q 40.9 44.25 40.75 44.5
L 40.7 44.55 40.6 44.75
Q 40.65 45.4 41 45.75 41.4 45.95 41.85 45.9 42.6 45.65 42.7 45.05 42.85 44.5 42.4 44.05
L 42.25 43.9 42.05 43.9
M 47.1 39.75
Q 46.8 39.8 46.65 40.1 46.5 40.35 46.55 40.7 46.75 41.4 47.5 41.35
L 47.8 41.25 47.9 41.15 48.05 40.9 48.15 40.6 48.1 40.55
Q 48.15 40.1 47.75 39.8
L 47.55 39.8 47.5 39.75 47.3 39.75 47.25 39.7 47.15 39.7 47.1 39.75
M 42.45 35.4
L 42.5 35.15 42.6 35.05 42.55 34.8 42.55 34.6 42.25 34.3 42.05 34.2 41.7 34.15 41.3 34.25 41.1 34.45 40.9 35.05
Q 41 35.45 41.35 35.6 41.65 35.8 42 35.65
L 42.2 35.65 42.45 35.4
M 57.3 29.15
L 57.15 29.2 56.9 29.45 56.75 29.5
Q 56.45 29.9 56.6 30.35 56.8 30.75 57.3 30.75
L 57.55 30.7 57.8 30.45 57.9 30.45 58.15 30.3 58.25 30.2 58.4 29.85
Q 58.3 29.05 57.45 29
L 57.3 29.15
M 50.95 9.1
L 50.9 9.05 50.9 8.95 50.85 8.9 50.75 8.7 50.55 8.55
Q 50.1 8.35 49.7 8.6 49.25 9.05 49.4 9.6
L 49.5 9.75 49.6 9.85 49.75 9.95 50.05 10.05 50.35 10.05 50.55 9.95
Q 50.95 9.6 50.95 9.1
M 65.7 22.9
L 65.55 23.05
Q 65.3 23.4 65.4 23.7 65.45 24.05 65.8 24.25
L 66.05 24.35 66.4 24.35 66.75 24.15 66.9 23.9
Q 67.25 23.25 66.7 22.9
L 66.35 22.75 66 22.75 65.7 22.9
M 84.05 64.8
L 83.9 64.8
Q 83.55 65 83.4 65.45
L 83.35 65.6 83.4 65.8 83.4 65.85 83.5 66.15 83.65 66.3
Q 84 66.5 84.35 66.4 84.75 66.3 84.95 65.95 85.1 65.65 85.05 65.25 84.95 64.9 84.6 64.75
L 84.35 64.7 84.05 64.8
M 84.8 47.85
L 84.85 47.95 85.05 48.15 85.1 48.15
Q 85.6 48.45 86.15 48.05
L 86.3 47.95 86.35 47.7 86.4 47.55 86.35 47.2 86.1 46.9 86 46.8 85.95 46.8
Q 85.1 46.45 84.75 47.25
L 84.7 47.35 84.7 47.5 84.75 47.6 84.8 47.85
M 91.9 31.9
L 91.8 31.8 91.65 31.75 91.5 31.75 91.4 31.8 91.4 31.75
Q 90.95 31.75 90.7 32.05
L 90.65 32.15 90.6 32.45 90.6 32.75 90.65 32.9 91.05 33.25 91.25 33.35 91.45 33.35 91.9 33.15 92.1 32.95
Q 92.4 32.3 91.9 31.9 Z"/>
</g>
</defs>

<g transform="matrix( 1, 0, 0, 1, 0,0) ">
<use xlink:href="#Layer2_0_FILL"/>
</g>
</svg>
