
<svg xmlns="http://www.w3.org/2000/svg" version="1.1" xmlns:xlink="http://www.w3.org/1999/xlink" preserveAspectRatio="none" x="0px" y="0px" width="100px" height="100px" viewBox="0 0 100 100">
<defs>
<g id="Layer2_0_FILL">
<path fill="#000000" stroke="none" d="
M 53.95 66.4
L 53.9 66.3 53.8 66.2 53.7 66.15 53.45 66.15 53.3 66.25 53.25 66.35 53.2 66.5 53.25 66.6
Q 53.35 66.9 53.65 66.9
L 53.8 66.85 53.9 66.75 53.95 66.6 53.95 66.4
M 53.95 62.25
L 53.8 62.2
Q 53.55 62.1 53.45 62.2 53.3 62.35 53.3 62.55
L 53.4 62.7 53.55 62.85 53.8 62.85 53.95 62.75 54 62.65 54.05 62.65 54.1 62.45 53.95 62.25
M 56.95 62.2
L 56.65 62 56.5 62 56.4 62.05 56.3 62.25 56.2 62.35 56.15 62.65 56.2 62.7 56.25 62.8 56.45 62.9
Q 56.85 62.9 56.9 62.55
L 56.9 62.45 56.95 62.2
M 44.4 67.8
L 44.2 67.85 44.15 67.85 44.05 67.9 43.9 68 43.85 68.2
Q 43.9 68.5 44.2 68.65
L 44.45 68.65 44.5 68.6 44.55 68.6 44.55 68.55 44.75 68.35 44.75 68.15
Q 44.65 67.9 44.4 67.8
M 42.3 63.35
Q 42.15 63.3 42 63.35
L 41.85 63.45 41.8 63.55 41.8 63.85 41.9 64 42.05 64.05 42.15 64.1 42.35 64.05 42.5 63.95 42.55 63.7
Q 42.4 63.45 42.3 63.35
M 45.85 64.75
Q 46.15 64.75 46.25 64.35
L 46.25 64.25 46.2 64.15 46.1 64.05
Q 45.85 63.85 45.65 64.05 45.45 64.2 45.5 64.5
L 45.6 64.7 45.7 64.75 45.85 64.75
M 49.85 62.9
Q 49.5 63 49.45 63.3
L 49.45 63.45 49.4 63.5 49.35 63.8 49.4 63.9 49.5 64 49.6 64.05 49.85 64.05 50 63.95 50.05 63.85 50.05 63.65 50.1 63.6
Q 50.35 63.45 50.25 63.2
L 50.2 63.1 50.1 63.05 50.15 63.05 50.05 62.95 49.85 62.9
M 50.25 62.2
L 50.05 62
Q 49.95 61.95 49.75 62.05
L 49.6 62.15 49.6 62.25 49.55 62.4 49.6 62.45 49.65 62.6 49.75 62.65 49.8 62.65 49.9 62.7 50.1 62.9 50.3 62.95 50.5 62.8 50.55 62.7 50.6 62.5 50.35 62.25 50.25 62.2
M 47.2 61.75
L 47.1 61.85 47.05 61.95 47.05 62.15 47.15 62.3 47.25 62.35 47.45 62.4 47.65 62.3 47.7 62.15 47.8 62.15
Q 48.2 62.15 48.2 61.75
L 48.05 61.75 48.2 61.7 48.15 61.6 48.05 61.45
Q 47.8 61.35 47.65 61.45
L 47.6 61.45 47.5 61.55 47.45 61.7 47.2 61.75
M 48.05 59.85
L 48.05 59.9
Q 48.1 60.15 48.4 60.25
L 48.65 60.2 48.7 60.1
Q 48.9 60 48.9 59.8
L 48.75 59.6 48.6 59.5
Q 48.3 59.5 48.2 59.55
L 48.1 59.65 48.1 59.7 48.05 59.85
M 47.15 59.7
L 47 59.8 46.9 59.85 46.85 60.05 46.85 60.2 46.9 60.3 47 60.4 47.1 60.45 47.25 60.5 47.35 60.45 47.5 60.35 47.55 60.25 47.6 60.1 47.55 60.05
Q 47.5 59.7 47.15 59.7
M 46.15 57.95
L 45.95 57.95 45.8 58.05 45.75 58.15 45.7 58.2 45.7 58.35 45.8 58.55 45.95 58.65
Q 46.2 58.75 46.3 58.65 46.45 58.5 46.45 58.3
L 46.4 58.15 46.35 58.15 46.25 58 46.15 57.95
M 47.4 56.35
L 47.3 56.3 47.1 56.3 46.95 56.4 46.9 56.5 46.85 56.55 46.85 56.7 46.95 56.9 47.1 57
Q 47.35 57.1 47.45 57 47.6 56.85 47.6 56.65
L 47.55 56.5 47.5 56.5 47.4 56.35
M 48.65 57.8
L 48.4 57.75 48.05 57.8 47.95 57.9 47.9 58 47.9 58.2
Q 48 58.5 48.3 58.5
L 48.5 58.5 48.4 58.55 48.65 58.5 48.8 58.4 48.85 58.25 48.85 58 48.65 57.8
M 45.1 61.45
Q 45.2 61.7 45.4 61.7
L 45.6 61.65 45.6 61.85 45.75 61.95 45.85 62.05 45.95 62.05 46 62 45.95 62 46.05 61.95 46.15 61.85 46.1 61.95 46.1 62 46.25 61.85 46.25 61.8 46.35 61.7
Q 46.25 61.5 46.15 61.45
L 45.9 61.4 45.8 61.45 45.8 61.25 45.9 61.2 45.95 61.15 46.15 61
Q 46.35 60.85 46.2 60.7
L 46.1 60.7 46.05 60.65 46.2 60.6 46.1 60.45 46.05 60.45 46.05 60.4 45.95 60.4 45.6 60.3 45.4 60.45
Q 45.15 60.6 45.25 60.85
L 45.3 61 45.2 61.05
Q 45.05 61.25 45.1 61.45
M 45.4 59.8
L 45.55 59.85
Q 46 59.85 45.9 59.4
L 45.9 59.35 45.8 59.2 45.75 59.1 45.55 59.05
Q 45.15 59.05 45.2 59.55
L 45.3 59.7 45.4 59.8
M 45.5 57.85
L 45.4 57.8 45.25 57.75
Q 45.1 57.75 44.9 57.95
L 44.85 58.25
Q 44.9 58.45 45.05 58.5
L 45.1 58.55 45.25 58.55
Q 45.4 58.55 45.55 58.4 45.65 58.2 45.6 58.05
L 45.5 57.85
M 43.6 58.65
L 43.5 58.7 43.5 58.8 43.45 58.9 43.45 59
Q 43.45 59.2 43.6 59.25
L 43.7 59.35 43.9 59.4 44.15 59.25 44.2 59.3
Q 44.45 59.45 44.65 59.3 44.85 59.15 44.75 58.9
L 44.7 58.8 44.55 58.65 44.4 58.6 44.15 58.75 44 58.6
Q 43.8 58.55 43.6 58.65
M 44.45 56.6
L 44.55 56.6 44.75 56.5 44.8 56.45 44.8 56.3
Q 44.85 56.1 44.7 56
L 44.65 55.95 44.55 55.9 44.35 55.85
Q 44.2 55.95 44.15 56 44.1 56.1 44.1 56.2 44.15 56.4 44.2 56.55
L 44.45 56.6
M 44.1 54.8
Q 44.1 54.9015625 44.1 54.95 44.15 55.35 44.4 55.3
L 44.5 55.3
Q 44.7 55.3 44.8 55.15
L 44.75 55.05
Q 44.9 54.95 44.75 54.75 44.65 54.5 44.55 54.6 44.45 54.6 44.4 54.6 44.2 54.65 44.1 54.8
M 44.1 54.8
L 44.1 54.75
Q 44.2 54.55 44 54.25
L 43.65 54.3
Q 43.55 54.4 43.5 54.5 43.4 54.6 43.4 54.75
L 43.5 54.9 43.55 55 43.9 55
Q 44.095703125 54.9509765625 44.1 54.8
M 41.9 49.65
L 41.9 49.6 41.65 49.55 41.4 49.65 41.3 49.75 41.25 49.85
Q 41.3 50.1 41.4 50.2
L 41.55 50.25
Q 41.25 50.4 41.4 50.7
L 41.6 50.9 41.65 50.85 41.75 50.9 41.8 50.85 41.85 50.85
Q 42.05 50.8 42.15 50.65 42.2 50.5 42.05 50.3
L 41.95 50.15 41.9 50.15 42 50.05 42 49.8 41.9 49.65
M 44 51
Q 43.9 50.95 43.6 50.95
L 43.45 51.15 43.45 51.25 43.4 51.5 43.6 51.7 43.7 51.75 43.85 51.75 44 51.65 43.95 51.8 43.95 51.95 44 52.05 44.1 52.1
Q 44.15 52.2 44.45 52.15
L 44.7 52 44.75 51.85 45 51.9
Q 45.45 51.75 45.3 51.35
L 45.2 51.15 45.15 51.15 44.8 51.1 44.55 51.2 44.55 51.3 44.45 51.4 44.4 51.35 44.35 51.35 44.15 51.45 44.15 51.2 44.1 51.05 44 51
M 44.2 50.25
L 43.9 50.1 43.65 50.2 43.5 50.6 43.65 50.75 43.95 50.85 44.15 50.75 44.2 50.65 44.25 50.5 44.25 50.35 44.2 50.25
M 50.4 55.65
L 50.4 55.5
Q 50.35 55.15 50 55.15
L 49.85 55.25 49.65 55.35 49.55 55.45 49.5 55.55
Q 49.5 55.75 49.6 55.85
L 49.65 55.9 49.95 56 50.35 55.8 50.4 55.65
M 47.75 54.3
L 47.55 54.45 47.5 54.5 47.45 54.7
Q 47.5 54.85 47.6 55
L 47.7 55 47.6 55.3 47.75 55.45
Q 47.85 55.6 48.1 55.5
L 48.3 55.4 48.45 55.25 48.55 55.25 48.5 55 48.55 55.05 48.55 54.85 48.9 54.9 49.1 54.7 49.25 54.75 49.55 54.65 49.75 54.45 49.75 54.3 49.7 54.1 49.55 53.95 49.3 53.85 49.05 53.85 49 53.95 48.95 53.9 48.8 54 48.75 54.1 48.7 54.1
Q 48.65 54.1 48.45 54.3
L 48.4 54.65 48.35 54.65 48.2 54.6
Q 48.1 54.3 47.75 54.3
M 47.35 54
L 47.35 53.9
Q 47.35 53.7 47.2 53.55
L 47.2 53.5 47.15 53.45 47.05 53.25
Q 46.95 53.15 46.75 53.2 46.5 53.25 46.4 53.4 46.35 53.65 46.4 53.8
L 46.5 53.9 46.65 53.9 46.75 54.1 46.8 54.15 46.55 54.25 46.5 54.35 46.45 54.5
Q 46.45 54.75 46.55 54.85
L 46.65 54.8 46.75 54.9 46.95 54.9 47.1 54.8 47.2 54.7 47.2 54.55 47.1 54.3 46.95 54.2 46.9 54.15 47 54.15 47.35 54
M 46.7 51.9
Q 46.6 51.95 46.5 52.05 46.5 52.25 46.55 52.4
L 46.6 52.5 46.7 52.55 47 52.6
Q 47.2 52.6 47.3 52.4
L 47.3 52.35 47.35 52.2 47.35 52.15
Q 47.2 51.8 46.85 51.85 46.8 51.85 46.7 51.9
M 50.3 50.25
L 50.25 50.1
Q 50.15 49.8 49.85 49.85
L 49.65 49.85 49.45 50.05 49.35 50.1 49.3 50.05 49.25 50.15
Q 49.1 50.2 49.1 50.4
L 49.15 50.5 49.05 50.8 49.1 50.95 49.05 51.25 49.25 51.45 49.75 51.45 49.8 51.3 49.95 51.4 50.25 51.2 50.3 51 50.3 50.8 50.1 50.6 50.15 50.6 50.1 50.55 50.2 50.45 50.3 50.25
M 59.4 59.4
L 59.35 59.35 59.3 59.25 59.3 59.2 59.2 59.1
Q 59 59.05 58.8 59.15 58.65 59.15 58.65 59.45
L 58.75 59.65 58.85 59.75 58.9 59.75
Q 59.05 59.85 59.2 59.75
L 59.3 59.65 59.35 59.55 59.4 59.4
M 55.9 60.2
Q 56.05 60.35 56.25 60.2
L 56.4 60.1 56.45 60 56.5 59.85 56.45 59.85
Q 56.45 59.5 55.95 59.5
L 55.75 59.6 55.7 59.7 55.65 59.9
Q 55.7 60.1 55.9 60.2
M 56 58.7
L 56.15 58.7
Q 55.9 58.9 55.95 59.15
L 56.25 59.3 56.3 59.3
Q 56.45 59.45 56.6 59.2
L 56.65 59.1 56.7 58.95
Q 56.7 58.8 56.55 58.7
L 56.35 58.65
Q 56.55 58.5 56.55 58.25
L 56.45 58.1 56.4 58.05 56.25 58 56.35 58
Q 56.15 57.85 55.9 58
L 55.8 58.1 55.75 58.2 55.75 58.35
Q 55.75 58.55 55.95 58.65
L 56 58.7
M 60 58.25
L 59.9 58.05 59.55 57.95
Q 59.1 58.15 59.25 58.5 59.25 58.7 59.4 58.75
L 59.45 58.75 59.55 58.8 59.65 58.8
Q 60 58.7 60 58.3
L 60 58.25
M 55.05 61.2
L 55 61.25 54.95 61.35 54.95 61.4 55 61.6
Q 55 61.8 55.2 61.9
L 55.2 62
Q 55.2 62.2 55.35 62.25
L 55.45 62.3 55.6 62.3
Q 55.95 62.2 55.95 61.9
L 56 61.9 56 61.65
Q 55.9 61.4 55.8 61.4
L 55.75 61.3
Q 55.75 61.1 55.5 61 55.3 60.95 55.05 61.2
M 54.6 60.25
L 54.55 60.15 54.4 60
Q 54.15 59.95 54.05 60.05 53.85 60.15 53.85 60.35
L 53.95 60.55 54.05 60.65 54.1 60.65
Q 54.25 60.75 54.4 60.65
L 54.55 60.55 54.6 60.45 54.6 60.25
M 52.9 61.7
L 52.75 61.8 52.7 61.9 52.65 62.1 52.7 62.2 52.8 62.35 52.9 62.4 53.05 62.4
Q 53.2 62.4 53.35 62.25
L 53.4 61.9 53.25 61.75 53.15 61.7 52.9 61.7
M 50.8 61.1
L 50.85 60.9 50.75 60.75 50.65 60.65 50.6 60.65
Q 50.6 60.6 50.45 60.6
L 50.25 60.65 50.2 60.75 50.15 60.8 50.1 61 50.2 61.15 50.3 61.25 50.35 61.25
Q 50.35 61.3 50.5 61.3
L 50.7 61.25 50.75 61.15 50.8 61.1
M 51 59.55
L 51.05 59.4 51.05 59.25
Q 50.8 59 50.7 59
L 50.5 59.05 50.35 59.2 50.3 59.3 50.3 59.55 50.45 59.7 50.55 59.75 50.7 59.8 50.8 59.75 50.95 59.65 51 59.55
M 52 60.25
L 51.95 60.15
Q 51.65 59.95 51.5 60.1
L 51.45 60.15 51.4 60.15 51.4 60.2
Q 51.3 60.4 51.35 60.55
L 51.4 60.75 51.45 60.75 51.55 60.85 51.75 60.95
Q 52.1 60.8 52.1 60.55
L 52.1 60.5 51.9 60.45 52.1 60.4 52 60.25
M 53.1 60.15
L 52.9 60.1 52.75 60.1 52.6 60.25 52.55 60.4 52.55 60.55
Q 52.65 60.85 53 60.85 53.3 60.8 53.3 60.45
L 53.1 60.15
M 51.35 57.65
Q 51.15 57.75 51.2 58.05
L 51.25 58.2 51.35 58.25 51.5 58.3
Q 51.95 58.3 51.95 57.85
L 51.85 57.7 51.75 57.65 51.35 57.65
M 51.4 56.25
L 51.35 56.15 51.15 56 51 55.95 50.7 56.1 50.35 56.45 50.3 56.55 50.3 56.65 50.4 56.75 50.6 56.9 51 56.9 51.05 56.85 51.3 56.85 51.4 56.65
Q 51.5 56.45 51.4 56.25
M 54.95 53.05
L 54.85 53.1
Q 54.45 53.15 54.55 53.55
L 54.6 53.75 54.95 53.85 55.1 53.7 55.15 53.7 55.2 53.45 55.1 53.2 54.95 53.05
M 53.15 55.6
L 52.9 55.55 52.75 55.6 52.75 55.55
Q 52.55 55.65 52.5 55.85
L 52.55 56
Q 52.25 56.15 52.35 56.45 52.35 56.6 52.45 56.65
L 53.25 56.65
Q 53.5 56.5 53.5 56.25 53.55 56.05 53.3 55.9
L 53.3 55.85 53.15 55.6
M 53.05 54.65
L 52.95 54.75 52.95 54.95
Q 52.9 55.1 53.05 55.15 53.25 55.35 53.4 55.25 53.75 55.25 53.7 54.85
L 53.65 54.8
Q 53.55 54.55 53.25 54.55
L 53.05 54.65
M 51.5 55.65
L 51.55 55.45 51.45 55.3 51.35 55.3 51.25 55.25 51 55.25 50.95 55.35 50.85 55.45 50.8 55.7 50.95 55.85 51.15 55.9 51.35 55.9 51.45 55.75 51.5 55.75 51.5 55.65
M 50.65 53.05
L 50.75 52.95 50.75 52.8 50.8 52.7 50.55 52.45 50.35 52.45 50.1 52.65 50.1 52.85
Q 50.1 53.25 50.5 53.15
L 50.65 53.05
M 51.9 53.85
L 52.05 53.55
Q 51.9 53.2 51.6 53.25
L 51.45 53.35 51.35 53.4 51.25 53.65 51.3 53.75 51.45 53.9 51.55 53.95 51.75 53.95 51.9 53.85
M 51.85 52.5
L 51.75 52.55 51.75 52.7 51.7 52.9
Q 51.85 53.2 52.2 53.15
L 52.25 53.15 52.45 53 52.45 52.6 52.3 52.4 52.15 52.35 51.9 52.45 51.85 52.5
M 51.15 50.8
L 51 50.95 51.05 51.15
Q 51.2 51.45 51.45 51.45
L 51.5 51.4 51.65 51.3 51.7 51.25 51.75 51.05
Q 51.75 50.9 51.6 50.75 51.5 50.65 51.3 50.75
L 51.15 50.8
M 51.65 49.5
L 51.4 49.6
Q 51.1 49.75 51.25 50.1
L 51.35 50.2 51.5 50.3 51.7 50.25
Q 51.95 50.15 51.95 49.8
L 51.8 49.55 51.65 49.5
M 53.45 52.4
L 53.2 52.55 53.15 52.65 53.1 52.8 53.2 52.95
Q 53.25 53.1 53.7 53.1
L 53.75 53 53.95 52.8 53.75 52.45
Q 53.65 52.35 53.45 52.4
M 58.1 54.4
L 58.15 54.55 58.2 54.6 58.15 54.65 58.2 54.7 58.25 54.65 58.25 54.9 58.4 54.8 58.45 54.6
Q 58.45 54.5 58.4 54.45 58.3 54.3 58.1 54.4
M 55.7 55.45
L 55.7 55.25 55.55 55.15 55.45 55.1 55.3 55.05 55.25 55.05 55.1 55.15 55 55.25 55 55.35
Q 54.85 55.45 54.9 55.5 54.9 55.55 54.9 55.65 54.85 55.7 54.85 55.75
L 54.7 55.75 54.55 55.8 54.45 55.9 54.45 55.85 54.4 55.75 54.1 55.7
Q 53.75 55.8 53.8 56.15 53.85 56.4 53.9 56.45 54.05 56.55 54.2 56.55 54.2 56.6 54.25 56.65 54.3 56.8 54.55 56.85 54.7 56.95 54.9 56.8
L 54.95 56.8 55 56.65
Q 55 56.5 54.95 56.45 55.15 56.4 55.15 56.25 55.15 56.1 55.15 56.05
L 55.1 56 55.25 56
Q 55.55 56.05 55.6 55.8
L 55.55 55.7 55.65 55.6 55.7 55.45
M 55.95 54.1
Q 56 54 55.95 53.9 55.85 53.8 55.65 53.75
L 55.5 53.75
Q 55.25 53.9 55.2 54.1
L 55.25 54.15 55.2 54.25
Q 55.35 54.6 55.6 54.5 55.95 54.4 55.95 54.1
M 58.15 53.55
Q 58.05 53.65 58.1 53.85
L 58.2 54 58.55 54.1 58.75 53.9 58.75 53.7 58.8 53.65 58.6 53.45 58.4 53.35
Q 58.2 53.4 58.15 53.55
M 56.25 51.35
Q 56.15 51.15 56.1 51.1
L 55.85 51 55.7 51.1 55.6 51.2 55.6 51.3 55.5 51.45 55.55 51.6
Q 55.65 51.9 55.9 51.9
L 56.1 51.75 56.2 51.65 56.25 51.35
M 60.3 51.7
L 60.2 51.7 60 51.65 59.9 51.8 59.75 51.95 59.8 52.1
Q 59.85 52.3 59.9 52.25
L 59.95 52.3 60.25 52.4 60.4 52.25 60.5 52.05 60.45 51.9 60.35 51.75 60.3 51.7
M 58.55 52.5
Q 58.7 52.4 58.6 52.15 58.45 51.9 58.2 52 58 52.05 57.85 52.25
L 57.85 52.35 57.75 52.35
Q 57.65 52.3 57.5 52.45
L 57.45 52.45 57.35 52.35 57.25 52.3 57.05 52.35 56.9 52.5 56.85 52.5 56.8 52.45 56.7 52.3 56.5 52.25 56.35 52.25
Q 55.95 52.4 56.1 52.8
L 56.15 52.95 56.25 53.05 56.3 53.15 56.25 53.25
Q 56.4 53.45 56.6 53.45
L 56.55 53.6 56.55 53.7 56.45 53.9 56.4 54.2 56.25 54.2
Q 56.15 54.3 56.1 54.45
L 55.9 54.45 55.75 54.55 55.75 54.75 55.7 54.95 55.85 55.05 55.95 55.15
Q 55.8 55.3 55.9 55.45
L 55.95 55.6 56.2 55.7 56.35 55.65 56.55 55.45 56.6 55.35 56.6 55.25 56.5 55.1 56.35 54.95 56.35 54.9 56.45 54.95 56.7 54.8 56.75 54.6 56.85 54.9 57.2 55.15 57.3 55.05 57.75 55.1 58.05 54.9 58.05 54.8 58.1 54.7 58.05 54.65
Q 58 54.6 58.05 54.6 57.95 54.35 57.5 54.35
L 57.5 54.25 57.25 54.05
Q 57.3 53.95 57.25 53.8
L 57.3 53.8 57.35 53.6 57.55 53.5 57.55 53.45
Q 57.6 53.3 57.6 53.15
L 57.8 53.2 57.85 53.2
Q 57.9 53.15 58 53.2 58.15 53.15 58.15 53 58.25 52.8 58.2 52.75
L 58.35 52.65
Q 58.55 52.65 58.55 52.5
M 58.5 50.9
Q 58.5 50.8 58.3 50.7 58.2 50.5 57.95 50.6
L 57.85 50.65 57.45 50.6 57.3 50.7 57.2 50.75 57.15 50.95 57.2 50.85 57.2 51.15 57.3 51.3 57.35 51.3 57.4 51.4 57.4 51.5 57.45 51.6 57.55 51.75 57.9 51.75 58.05 51.55 58 51.55 58.05 51.5 58.1 51.4
Q 58.4 51.35 58.5 51.1
L 58.45 51.05 58.5 50.95 58.5 50.9
M 61.1 64.15
L 60.95 64.15
Q 60.7 64.15 60.6 64.5
L 60.7 64.7 60.8 64.8 60.85 64.8 60.9 64.85 60.85 64.95 60.9 65
Q 60.9 65.2 61.1 65.3 61.2 65.45 61.4 65.45
L 61.55 65.4 61.6 65.35 61.7 65.2 61.7 64.95
Q 61.6 64.65 61.4 64.6
L 61.35 64.55 61.35 64.35 61.2 64.2 61.1 64.15
M 63.15 60.3
L 63.1 60.1 63 60 62.85 59.9
Q 62.35 60 62.45 60.35
L 62.55 60.55 62.65 60.6 62.85 60.65
Q 63.15 60.55 63.15 60.3
M 61.55 58.25
L 61.5 58.6 61.55 58.65 61.6 58.75 61.7 58.8 61.75 58.85 61.8 58.85
Q 62.2 58.95 62.35 58.65
L 62.4 58.6 62.4 58.4 62.25 58.15 62.15 58.1 61.95 58.05
Q 61.7 58.05 61.55 58.25
M 62.35 57.05
L 62.15 56.85 62 56.8
Q 61.9 56.8 61.7 56.9
L 61.65 56.8 61.5 56.65 61.3 56.6 61.15 56.7 61.05 56.8 61.05 56.85 61 57 61.05 57.2 61.15 57.25 61.2 57.3 61.4 57.35 61.55 57.25 61.6 57.25 61.6 57.35 61.7 57.5 61.8 57.55 61.95 57.55
Q 62.15 57.55 62.3 57.4
L 62.35 57.05
M 63.15 55.55
L 63.1 55.25 62.95 55.15 62.85 55.1 62.65 55.15
Q 62.45 55.15 62.4 55.45 62.3 55.75 62.7 55.9
L 62.85 55.85 62.95 55.8 63.05 55.7 63.15 55.55
M 61.85 53.25
L 61.9 53.25 61.9 53.1 61.95 52.9 61.9 52.85 61.85 52.75 61.75 52.75 61.65 52.65 61.35 52.75 61.25 52.95 61.25 53.15 61.35 53.3 61.4 53.3 61.5 53.4 61.75 53.35 61.85 53.25
M 62.65 50.9
L 62.55 50.75 62.45 50.75 62.35 50.7 62.2 50.7
Q 62.05 50.7 61.95 50.85 61.85 51.1 61.9 51.2
L 61.95 51.35 62.05 51.4
Q 62.2 51.5 62.35 51.45
L 62.55 51.35 62.65 51.25 62.7 51.05 62.65 50.9
M 64.5 51.85
L 64.5 52.1 64.6 52.2
Q 64.8 52.35 65.05 52.25 65.2 52.15 65.3 51.9 65.35 51.8 65.25 51.55
L 65.15 51.5 65.1 51.45 65 51.4
Q 64.65 51.4 64.5 51.85
M 64.35 50.9
L 64.25 50.95
Q 63.95 51 64 51.4
L 64.2 51.65 64.4 51.65 64.6 51.55 64.65 51.45 64.7 51.25 64.6 51.05 64.5 51.05 64.35 50.9
M 67.85 54.75
L 67.95 54.6
Q 67.95 54.3 67.55 54.2 67.15 54.2 67.1 54.5
L 67.1 54.7 67.15 54.8 67.25 54.9
Q 67.45 55 67.7 54.9
L 67.65 54.9 67.75 54.85 67.85 54.75
M 39.9 62.2
L 39.9 62.5 39.85 62.7 39.9 62.7 39.85 62.95 39.9 63.1 40.15 63.2 40.35 63.15 40.4 63.05 40.5 63 40.6 62.8 40.6 62.7 40.55 62.6 40.6 62.5 40.6 62.25
Q 40.5 62 40.25 61.95
L 40.1 62 40 62.05 39.9 62.2
M 40 60.2
L 39.9 60.15 39.75 60.1
Q 39.4 60.2 39.4 60.5
L 39.45 60.7 39.75 60.8 39.95 60.75 40.05 60.65 40.15 60.45 40.1 60.35 40 60.2
M 38.6 57.95
L 38.4 57.9 38.25 58 38.15 58.1 38.15 58.15 38.1 58.3 38.15 58.5 38.25 58.55 38.3 58.6 38.5 58.65 38.65 58.55 38.75 58.45 38.75 58.4 38.8 58.25 38.75 58.05 38.65 58 38.6 57.95
M 33.5 55.55
L 33.45 55.2
Q 33.3 55.05 33.1 55.05
L 32.95 55.05 32.85 55.1 32.75 55.25 32.75 55.3
Q 32.65 55.55 32.8 55.65
L 33.1 55.85 33.3 55.75 33.35 55.7 33.5 55.6 33.5 55.55
M 38.9 54.55
Q 38.45 54.45 38.35 54.85
L 38.35 54.9 38.45 55.15 38.55 55.2 38.8 55.25 38.7 55.25
Q 38.8 55.35 39.1 55.3
L 39.25 55.15 39.3 55.05
Q 39.3 54.65 38.9 54.55
M 39.4 52.75
L 39.3 52.6
Q 39.15 52.55 39 52.6 38.8 52.75 38.8 52.9
L 38.8 53.05 38.9 53.2 39.05 53.3 39.25 53.25 39.3 53.25 39.35 53.2 39.45 53.05 39.5 53 39.45 52.8 39.4 52.75
M 37.25 55.25
L 37.25 55.4 37.3 55.55 37.4 55.6
Q 37.5 55.85 37.75 55.85
L 37.9 55.85 37.95 55.8
Q 38.1 55.75 38.1 55.55 38.2 55.3 38.05 55.15 37.95 54.95 37.75 54.95
L 37.55 55 37.5 55 37.25 55.25
M 36.5 54.8
Q 36.5 55 36.6 55.1
L 36.85 55.3 37 55.25 37.1 55.2 37.2 55.05 37.25 54.9 37.25 54.75 37.2 54.65 37.05 54.55
Q 36.9 54.5 36.7 54.55
L 36.5 54.8
M 37.6 51.25
L 37.5 51.1
Q 37.3 51 37.1 51.1 36.85 51.25 36.85 51.45
L 36.8 51.55 36.85 51.7 36.9 51.8 37.05 51.9
Q 37.45 52.05 37.65 51.55
L 37.65 51.35 37.6 51.25
M 40.3 50.6
L 40.35 50.75 40.5 50.9
Q 40.8 51.1 41 50.8
L 41 50.75 41.05 50.75 41.1 50.55
Q 41.1 50.25 40.8 50.15 40.45 50.15 40.35 50.5
L 40.3 50.6
M 39.75 48.3
L 39.55 48.35 39.5 48.4 39.4 48.55
Q 39.3 48.75 39.45 48.9 39.55 49.05 39.75 49.05
L 39.95 49 40.05 48.95 40.15 48.8
Q 40.15 48.4 39.75 48.3
M 37.8 48.85
L 37.65 48.85 37.55 48.9 37.45 49.05 37.4 49.05 37.4 49.1 37.45 49.35 37.45 49.4 37.55 49.5 37.75 49.55 37.9 49.55 37.95 49.5 38 49.5 38.15 49.55
Q 38.45 49.65 38.55 49.25
L 38.6 49.15 38.55 49 38.45 48.9 38.3 48.8
Q 38.1 48.8 38 48.9
L 37.8 48.85
M 37.9 47.75
L 37.95 47.85 38.05 47.95
Q 38.2 48.05 38.4 47.95 38.6 47.8 38.6 47.65
L 38.55 47.45 38.5 47.35 38.25 47.25
Q 38 47.25 37.9 47.55
L 37.9 47.75
M 36.45 43.65
L 36.45 43.6 36.2 43.5 36 43.6 35.95 43.65
Q 35.75 43.75 35.75 43.9
L 35.75 44.1 35.95 44.3 36.2 44.35 36.4 44.3 36.4 44.25 36.45 44.25 36.55 44.2 36.65 44.05
Q 36.75 43.8 36.45 43.65
M 36.9 44.45
L 36.75 44.45 36.65 44.5 36.55 44.65 36.55 44.95 36.7 45.1 36.85 45.2 37.05 45.15 37.2 45 37.25 44.8
Q 37.25 44.55 36.9 44.45
M 39.75 43.95
Q 39.75 43.55 39.35 43.5
L 39.15 43.55 39 43.7 38.95 43.85
Q 38.85 44.2 39.35 44.3
L 39.5 44.25 39.6 44.2 39.6 44.15 39.65 44.1 39.75 43.95
M 35.15 48
L 35.25 48.1
Q 35.45 48.25 35.55 48.15
L 35.75 48.05 35.8 48.05 35.9 47.85
Q 35.9 47.55 35.65 47.45 35.35 47.35 35.15 47.75
L 35.15 48
M 35.1 46.6
L 34.85 46.6 34.9 46.55 34.65 46.6 34.55 46.8 34.55 46.95 34.65 47.2 34.7 47.2
Q 34.85 47.35 35.1 47.3
L 35.25 47.2 35.3 47.1 35.35 46.9 35.25 46.75 35.1 46.6
M 32.9 48.5
L 32.75 48.35 32.65 48.3 32.55 48.3
Q 32.3 48.3 32.05 48.7
L 32.05 48.95 32.1 49.05 32.25 49.2 32.7 49.2 32.85 49.15 32.95 49 33 48.8 32.95 48.6 32.9 48.5
M 34.5 46.25
Q 34.55 46.4 34.8 46.4
L 34.95 46.35 35.05 46.25
Q 35.25 46.15 35.3 45.95
L 35.3 45.8 35.25 45.7 35.2 45.65 35.15 45.55
Q 34.8 45.4 34.6 45.6 34.4 45.7 34.4 45.85 34.3 46.1 34.5 46.25
M 34.3 38.65
L 34.25 38.55 34.1 38.45 34 38.45 33.95 38.35
Q 33.9 38.1 33.55 38.1
L 33.4 38.15 33.35 38.2 33.3 38.35 33.2 38.55 33.25 38.7 33.3 38.8 33.4 38.9
Q 33.55 39 33.7 38.9
L 33.75 39 33.85 39.05 34 39.05 34.1 39 34.25 38.85 34.25 38.75 34.3 38.65
M 36.65 42.1
Q 36.3 42.1 36.25 42.4 36.25 42.6 36.4 42.75
L 36.45 42.8 36.6 42.8
Q 36.7 42.9 36.9 42.65
L 37 42.45
Q 37 42.1 36.65 42.1
M 35.65 40.95
L 35.6 40.95 35.5 40.85 35.1 40.85 35 40.95 35.05 41.05 34.95 41.2 34.95 41.25 34.9 41.3 34.85 41.4 34.85 41.75 35 41.9 35.1 41.95 35.05 42 35 42.15 35 42.2 34.95 42.2 34.9 42.25 34.8 42.3 34.7 42.45 34.7 42.65 34.75 42.75 34.9 42.85
Q 35.05 42.95 35.2 42.85
L 35.25 42.85 35.35 42.8 35.45 42.65 35.45 42.55 35.55 42.45 35.65 42.4 35.7 42.2 35.65 42.05 35.65 42 35.55 41.9 35.45 41.85 35.55 41.75 35.55 41.7 35.65 41.6 35.65 41.5 35.7 41.45 35.75 41.3
Q 35.85 41.15 35.65 40.95
M 37.9 40.4
L 37.8 40.75
Q 37.8 41 38.05 41.05 38.2 41.1 38.4 41.05
L 38.45 40.95 38.5 40.9 38.5 40.8
Q 38.6 40.45 38.1 40.35
L 37.9 40.4
M 39.95 40.1
L 39.8 40.1
Q 39.45 40.1 39.35 40.5
L 39.35 40.6 39.4 40.75 39.45 40.85 39.6 40.95 39.5 40.9
Q 39.6 41 39.75 41
L 39.9 41 39.95 40.95
Q 40.15 40.85 40.15 40.7
L 40.15 40.3 39.95 40.1
M 39.05 39.35
L 39.1 39.55
Q 39.15 39.85 39.45 39.85 39.75 39.85 39.75 39.55 39.85 39.4 39.7 39.25 39.6 39.1 39.45 39.1 39.15 39.1 39.05 39.35
M 37.8 34.5
L 37.6 34.4
Q 37.25 34.4 37.2 34.75
L 37.15 34.8 37.2 34.95 37.15 35.05 37.15 35.25 37.2 35.35 37.35 35.45
Q 37.55 35.5 37.75 35.45
L 37.85 35.4 37.95 35.2
Q 37.95 35 37.85 34.9
L 37.9 34.85 37.9 34.8 37.8 34.5
M 66.6 47.1
L 66.5 47.05 66.45 47 66.3 46.95 66.15 47 66.05 47.05 65.95 47.15 65.9 47.25
Q 65.8 47.5 66.05 47.6 66.2 47.75 66.45 47.65 66.55 47.6 66.65 47.35
L 66.6 47.1
M 66.85 44.8
L 66.65 44.8 66.55 44.9 66.5 44.9 66.4 45.05 66.45 45.25 66.35 45.15 66.2 45.1 66.05 45.15 65.95 45.2 65.85 45.3
Q 65.8 45.3 65.8 45.45 65.75 45.6 65.85 45.7
L 65.95 45.8 66.05 45.85 66.2 45.85
Q 66.5 45.85 66.55 45.55
L 66.55 45.4 66.7 45.45 66.9 45.45 67 45.4 67.1 45.3 67.15 45.2
Q 67.15 44.85 66.85 44.8
M 64.55 49.25
L 64.6 49.4 64.7 49.4 64.75 49.35 64.7 49.35 64.85 49.3
Q 64.85 49.2 64.7 49.1
L 64.6 49.2 64.65 49.2 64.55 49.25
M 63.55 47.75
L 63.7 47.85
Q 63.9 47.95 64 47.85 64.2 47.75 64.25 47.55
L 64.25 47.5 64.15 47.3 64.05 47.2 63.85 47.15
Q 63.55 47.15 63.5 47.5
L 63.5 47.65 63.55 47.75
M 61.9 48.6
Q 62.05 48.4 61.8 48.2
L 61.8 48.15 61.45 48.1 61.25 48.25 61.35 48.2 61.1 48.45 61.3 48.75
Q 61.45 48.85 61.6 48.8 61.85 48.8 61.9 48.6
M 61.75 47.15
L 61.7 47.05 61.6 47 61.4 47
Q 61.3 47.05 61.3 47.15 61.15 47.2 61.15 47.3 61.2 47.55 61.3 47.65
L 61.4 47.65 61.5 47.7 61.6 47.7 61.65 47.75 61.8 47.65 61.85 47.55 61.9 47.4
Q 61.9 47.25 61.75 47.15
M 62.05 45.95
Q 62.15 46 62.4 46
L 62.6 45.8 62.65 45.7
Q 62.65 45.65 62.7 45.65 62.7 45.4 62.4 45.3
L 62.1 45.3
Q 61.85 45.4 61.9 45.7 61.95 45.85 62.05 45.95
M 62.85 43.65
L 62.95 43.8 62.8 43.4
Q 62.75 43.5 62.85 43.65
M 63.55 45.75
L 63.5 45.8
Q 63.15 45.8 63.2 46.2
L 63.25 46.35 63.4 46.5 63.7 46.5 63.9 46.3 63.95 46.1 63.95 46 63.75 45.8 63.55 45.75
M 65.05 38.3
Q 65.05 37.9 64.75 37.9 64.4 37.8 64.3 38.15
L 64.3 38.25 64.35 38.35 64.35 38.4
Q 64.65 38.55 64.7 38.6
L 64.85 38.55 64.95 38.45 65.05 38.3
M 65.35 36.35
L 65.4 36.25
Q 65.45 36.05 65.25 35.85 65 35.65 64.8 35.85
L 64.7 35.9 64.65 35.95 64.65 36.05
Q 64.55 36.5 65.05 36.5
L 65.2 36.5 65.35 36.35
M 59.95 49.15
Q 59.95 49.4 60.1 49.45
L 60.25 49.65
Q 60.35 49.8 60.5 49.75
L 60.7 49.65 60.85 49.7
Q 60.95 49.6 61.05 49.55
L 61.1 49.55 61.2 49.4 61.25 49.2
Q 61.2 49 60.95 48.9
L 61 48.8 60.8 48.5
Q 60.7 48.45 60.5 48.45
L 60.25 48.6 60.2 48.7 60.2 48.85 60.1 48.85
Q 60 48.95 59.95 49.15
M 60.05 45.9
Q 59.9 46.05 60 46.3
L 60.2 46.4 60.3 46.5 60.45 46.5
Q 60.75 46.35 60.75 46
L 60.7 45.85 60.6 45.75 60.4 45.65 60.4 45.7
Q 60.1 45.75 60.05 45.9
M 59.9 44.6
L 60.05 44.55
Q 60.3 44.45 60.2 44
L 60.2 43.9 60.15 43.85 60.1 43.85
Q 60.05 43.75 59.9 43.8
L 59.6 43.7
Q 59.35 43.85 59.3 44
L 59.25 44.1 59.25 44.25 59.45 44.6 59.35 44.65 59.35 44.55 59.05 44.6 58.9 44.65 58.8 44.75 58.75 44.9
Q 58.85 45.05 58.9 45.2 58.95 45.25 59 45.3
L 58.9 45.25 58.75 45.3 58.6 45.6 58.65 45.8 58.8 45.95
Q 59 46.05 59.15 46.05 59.5 45.95 59.4 45.55
L 59.15 45.3
Q 59.2 45.3 59.25 45.3
L 59.5 45.2 59.75 45.25 59.9 45.15 59.95 45.05 60.05 44.95 59.9 44.6
M 54.2 49.3
L 54 49.45 54.05 49.5 53.8 49.5 53.35 49.7 53.2 49.65
Q 52.95 49.75 52.9 49.95
L 52.85 49.95 52.75 50.2 52.8 50.35 53 50.55 53.25 50.6 53.55 50.5 53.55 50.75 53.75 50.85
Q 54 50.95 54.1 50.9
L 54.15 51.05
Q 53.85 51.2 53.8 51.35
L 53.75 51.35
Q 53.65 51.4 53.5 51.5
L 53.55 51.45
Q 53.55 51.25 53.45 51.1
L 53.35 50.95 53.15 50.85 53.15 50.8 52.9 50.75 52.8 50.75 52.65 50.85
Q 52.15 51.05 52.35 51.45
L 52.4 51.55 52.45 51.6 52.55 51.6 52.65 51.7 52.75 51.75 52.8 51.9
Q 53.05 52.05 53.2 52.1
L 53.25 52.15
Q 53.35 52.4 53.65 52.3
L 53.75 52.3 53.9 52.25 54.1 52.3 54.35 52.2 54.45 52.1 54.5 51.95 54.6 51.95 54.65 51.8 54.75 51.95
Q 55.1 51.8 54.9 51.45
L 54.85 51.35 54.85 51.25 54.7 51.25
Q 54.85 51.15 54.85 51.05
L 54.8 50.7
Q 54.95 50.6 54.95 50.4
L 54.9 50.2 54.8 50.1 54.9 50.05 55 49.95 55.05 49.85
Q 55.1 49.55 54.9 49.45 54.95 49.45 55 49.4
L 55.35 49.55
Q 55.6 49.9 55.95 49.9
L 56 49.9 56 49.95 56.05 49.9 56.2 49.9
Q 56.3 50.15 56.65 50.1
L 56.7 50.1 56.8 50.15 57 50.15 57.2 50.05 57.3 49.95 57.25 50.05 57.4 50.2 57.7 50.3 57.95 50.25 58.1 50.2 58.15 50.05 58.35 50.1
Q 58.6 50 58.55 49.8
L 58.65 49.75 58.8 49.55 58.85 49.45
Q 58.85 49.25 58.7 49.2
L 58.6 49.05 58.4 49 58.35 48.95 58.2 49 58.25 48.85 58.2 48.75 58.45 48.6 58.5 48.6 58.5 48.5 58.55 48.35 58.45 48.2 58.5 48.25 58.85 48.3 59.05 48.2 59.05 48.15
Q 59.25 48.25 59.35 48.2
L 59.6 48.1 59.6 48 59.65 47.85 59.7 47.75
Q 59.5 47.4 59.25 47.5 59.15 47.45 59.05 47.6
L 59.05 47.4
Q 59.05 47.1 58.6 47.2
L 58.55 47.2 58.55 47.25 58.45 47.2 58.3 47.35 58.15 47.35
Q 57.95 47.45 57.95 47.8
L 58.05 47.95 58.25 48.05 58.05 48.05 57.95 48.1 57.9 48.05 57.6 48.05 57.45 48.15 57.35 48.3 57.35 48.35 57.3 48.45 57.4 48.7 57.5 48.75 57.5 48.85
Q 57.55 49 57.55 49.1
L 57.3 49.35 57.3 49.6
Q 57.25 49.55 57.2 49.5
L 57.1 49.3 57.1 49 56.95 48.95 57.05 48.9 57.2 48.75 57.1 48.4 57.15 48.15 57.25 48.05 57.3 47.9
Q 57.3 47.6 57.1 47.55
L 57.05 47.55 56.9 47.4
Q 56.8 47.3 56.7 47.35
L 56.55 47.35 56.4 47.5 56.35 47.7 56.3 47.75 56.3 47.9 56.25 48 56.3 48.05 56.2 48.35 56.25 48.4 56.15 48.4 56.05 48.5 55.8 48.65 55.8 48.5 55.7 48.4 55.5 48.35 55.45 48.35 55.2 48.5 55.2 48.55 54.9 48.75 54.85 49 54.85 49.05 54.8 49.1 54.8 49.2
Q 54.8 49.3 54.85 49.35 54.65 49.3 54.5 49.35
L 54.45 49.35 54.45 49.3 54.2 49.3
M 52.95 47.45
L 52.9 47.65
Q 52.8 47.8 52.85 48.05
L 52.9 48.2 52.95 48.2 52.9 48.25 52.85 48.35 52.75 48.4 52.75 48.65
Q 52.9 49 53.25 49.05
L 53.45 49 53.75 49 53.85 48.85 53.85 48.8 53.95 48.75 54 48.8 54.05 48.75 54.3 48.75 54.3 48.8 54.55 48.8
Q 54.8 48.65 54.85 48.4
L 54.85 48.35
Q 55.05 48.15 54.95 48 54.9 47.6 54.5 47.65
L 54.4 47.65 54.35 47.5 54.35 47.4 54.25 47.1 54.1 47.05 53.95 46.95 53.55 47.1 53.6 47.2 53.45 47.25 53.2 47.2 53.05 47.3 53 47.4 52.95 47.4 52.95 47.45
M 52.1 46.8
L 51.95 46.75 51.8 46.8 51.6 46.9
Q 51.25 46.9 51.2 47.35
L 51.25 47.5 51.25 47.6 51.2 47.8
Q 50.95 48 51.15 48.2 51.3 48.5 51.7 48.45
L 51.75 48.4 51.9 48.3 52 48.05 52.05 48 52.05 47.75 52 47.65 52.05 47.65 52.25 47.55
Q 52.35 47.3 52.2 47.05
L 52.1 46.8
M 52.65 46.4
L 52.45 46.35
Q 52.15 46.5 52.2 46.8 52.4 47.2 52.65 47.1
L 52.85 47.05 52.9 46.95 52.95 46.9 52.95 46.8
Q 53.05 46.45 52.65 46.45
L 52.65 46.4
M 51.7 45.05
L 51.4 45.05 51.15 45.15 51.05 45.25 51 45.45 51.25 45.8 51.6 45.8 51.85 45.65 51.9 45.65 52 45.4 51.95 45.3 51.7 45.05
M 55.5 45.2
L 55.35 45.35
Q 55.3 45.6 55.3 45.75
L 55.15 45.75 55.05 45.8 54.95 45.75 54.85 45.8 54.75 45.9 54.7 46 54.7 46.05 54.65 46.1 54.65 46.15 54.55 46.1 54.45 46.25 54.35 46.35 54.2 46.65 54.4 47 54.45 46.95 54.75 47.1 54.8 47.05 55 47.05
Q 55.15 47.15 55.2 47
L 55.3 46.9 55.3 46.75 55.25 46.6 55.3 46.55 55.45 46.6 55.55 46.55 55.7 46.4 55.8 46.4 55.85 46.5 55.8 46.55 55.65 46.65 55.55 46.85 55.5 47
Q 55.55 47.25 55.75 47.35
L 55.8 47.4 56 47.5 56.15 47.5 56.3 47.4 56.5 47.3 56.55 47.1 56.7 47 56.6 46.95 56.85 46.95 56.95 46.8 57 46.55 56.95 46.5 57.1 46.55 57.15 46.5
Q 57.05 46.65 57.05 46.85 57.2 47.15 57.5 47.15
L 57.7 47.05 57.75 47 58 46.95
Q 58.15 47.05 58.25 46.85
L 58.35 46.8 58.3 46.55 58.25 46.4 58.25 46.25 58.15 46.1 58.2 46.05 58.2 45.8 58.25 45.75
Q 58.3 45.65 58.2 45.4
L 58 45.3 58 45.1
Q 57.9 44.8 57.55 44.85 57.35 44.75 57.25 44.8
L 57.1 44.85 57.1 44.7 57 44.6
Q 56.85 44.5 56.65 44.55 56.4 44.65 56.35 44.75 56.3 44.95 56.4 45.1
L 56.45 45.2 56.6 45.25 56.7 45.3
Q 56.45 45.4 56.45 45.6
L 56.45 45.65 56.2 45.45 56.05 45.4 55.85 45.2 55.5 45.2
M 56.25 46.15
L 56.3 46.1
Q 56.45 46 56.45 45.8
L 56.75 46.3 56.8 46.4 56.65 46.25 56.55 46.25 56.45 46.2 56.25 46.15
M 55.3 44.1
L 55.1 44.2 55.05 44.3 55.05 44.5 55.3 44.7
Q 55.4 44.9 55.7 44.9 55.95 44.8 56 44.65
L 56 44.35 55.95 44.25 55.85 44.15 55.7 44.15 55.7 44.1
Q 55.45 44.05 55.3 44.1
M 54.8 44.65
L 54.7 44.55 54.55 44.5 54.3 44.55 54.1 44.65
Q 54 44.75 54 45.05
L 54.05 45.15
Q 54 45.3 54.1 45.45
L 53.9 45.4 53.75 45.5 53.55 45.5 53.5 45.6 53.4 45.7 53.5 45.8 53.4 45.75 53.3 45.9 53.35 46.15
Q 53.6 46.35 53.8 46.25 53.9 46.3 54 46.15
L 54.1 46.15
Q 54.35 46.05 54.3 45.75
L 54.65 45.8 54.8 45.7 54.9 45.6 54.9 45.55
Q 55.05 45.3 54.85 45.2 54.95 45 54.8 44.65
M 54.75 42.8
L 54.45 42.8
Q 54.2 43.05 54.3 43.3 54.45 43.65 54.8 43.55
L 55 43.5 55 43.4 55.05 43.25
Q 55.15 42.9 54.75 42.8
M 54.75 40.65
L 54.5 40.65
Q 54.25 40.8 54.25 41.1
L 54.35 41.25 54.4 41.25 54.5 41.35
Q 54.7 41.4 54.75 41.35
L 54.9 41.35 55 41.25 55.1 41.1
Q 55.05 40.65 54.75 40.65
M 52.8 43.05
L 52.7 43.05 52.35 43.2 52.2 43.35 52.15 43.35 52.05 43.45 52.05 43.5 51.95 43.55 51.95 43.65 51.85 43.8 52.1 44.3 52.2 44.3 52.35 44.4 52.35 44.35 52.45 44.4
Q 52.65 44.6 52.75 44.55
L 53.05 44.6 53.2 44.55 53.2 44.65
Q 53.2 44.85 53.4 44.95
L 53.6 45 53.85 45
Q 53.95 44.9 54.05 44.7 54.05 44.45 53.85 44.35
L 53.65 44.25 53.5 44.25 53.45 44.3
Q 53.5 44.15 53.4 43.95
L 53.35 43.8 53.3 43.8 53.25 43.85 53.3 43.75 53.25 43.65 53.3 43.45 53.2 43.2
Q 53 42.95 52.8 43.05
M 52 41.25
L 52 41.05 51.9 40.9 51.85 40.85 51.75 40.8 51.5 40.8 51.35 40.95 51.4 40.95 51.3 41.05 51.3 41.3 51.4 41.4 51.75 41.5 51.95 41.35 52 41.25
M 54.45 38.3
L 54.5 38.15 54.4 37.9
Q 54.25 37.7 53.95 37.75
L 53.85 37.7 53.75 37.9
Q 53.55 38.05 53.65 38.3
L 53.8 38.45 53.9 38.5 54 38.5 54.45 38.3
M 59.2 43.3
L 58.85 43.25 58.6 43.4 58.5 43.55 58.55 43.6 58.5 43.7
Q 58.55 44 59 44
L 59.2 43.9 59.3 43.8 59.35 43.6
Q 59.3 43.5 59.2 43.3
M 58.8 41.2
L 58.55 41.25 58.45 41.35 58.4 41.45 58.4 41.65
Q 58.5 41.95 58.8 41.9
L 58.8 42 59 42.2 59.2 42.25 59.3 42.25 59.4 42.15 59.45 42.05 59.5 41.85 59.55 41.8 59.35 41.6 59.2 41.55 59.1 41.55 59.1 41.5 59.05 41.4 58.9 41.3 58.8 41.2
M 60.65 40.5
L 60.6 40.5 60.6 40.65
Q 60.5 40.85 60.65 41.05 60.75 41.05 61 41.05
L 61.3 40.9
Q 61.3 40.7 61.25 40.5
L 61.15 40.4 60.95 40.35 60.8 40.35 60.65 40.5
M 60.4 40.9
L 60.25 40.85 60.1 40.9
Q 59.65 41.05 59.75 41.4
L 59.9 41.5 60 41.6 60.1 41.65 60.2 41.6
Q 60.4 41.6 60.5 41.4 60.6 41.3 60.55 41.05
L 60.4 40.9
M 56.95 42.45
L 56.85 42.65 56.75 42.8 56.8 42.95 56.8 43.1 56.9 43.3 57.2 43.4 57.35 43.35
Q 57.65 43.25 57.55 42.8
L 57.5 42.65 57.6 42.65 57.8 42.5 58 42.3
Q 58.05 42.05 57.85 41.95
L 57.7 41.85 57.5 41.9 57.3 42 57.35 41.95
Q 57.1 42.1 57.1 42.45
L 57.05 42.5 56.95 42.45
M 56.7 43.25
Q 56.5 42.8 56 42.8
L 55.7 42.95 55.7 43.1 55.65 43.2
Q 55.65 43.35 55.8 43.45
L 55.8 43.8
Q 55.95 44.15 56.4 44.15
L 56.45 44.15 56.6 43.85 56.6 43.75 56.65 43.7 56.65 43.5 56.7 43.25
M 55.8 40.15
L 55.8 39.9 55.55 39.65 55.35 39.7 55.15 39.8 55.1 39.85 55.05 40 55.05 40.2 55.15 40.35 55.2 40.4 55.35 40.4 55.5 40.45 55.65 40.35 55.8 40.15
M 57.45 38.55
L 57.25 38.5 57.05 38.55 56.9 38.65 56.8 38.55 56.5 38.6
Q 56.45 38.6 56.25 38.75 56.15 38.95 56.25 39.15
L 56.4 39.25 56.55 39.3 56.6 39.4
Q 56.65 39.45 56.9 39.5
L 57.05 39.4 57.1 39.25 57.3 39.25
Q 57.65 39.2 57.65 38.8
L 57.55 38.7 57.45 38.55
M 59.4 39.75
L 59.2 39.6 59.05 39.55 58.6 39.75 58.4 39.95
Q 58.4 40.1 58.5 40.2
L 58.55 40.3 58.75 40.35 58.85 40.25 58.9 40.25 58.95 40.35 59.1 40.3 59.2 40.3 59.35 40.2 59.4 40.1 59.5 39.95 59.4 39.75
M 59.6 37.9
L 59.5 37.75 59.4 37.7 59.25 37.55 59.4 37.65
Q 59.2 37.4 59.05 37.5
L 58.9 37.55 58.75 37.65 58.75 37.75
Q 58.7 37.95 58.7 38 58.6 38.3 58.95 38.35
L 59 38.45 59.1 38.45 59.2 38.5
Q 59.55 38.4 59.6 37.9
M 50.4 48.5
L 50.3 48.7 50.3 48.85 50.4 49.05 50.6 49.05 50.75 49.1 50.9 49 51 48.8 51 48.6 50.85 48.5 50.85 48.45 50.5 48.35 50.4 48.5
M 49.35 48.6
L 49.2 48.65 49.1 48.75 49.05 48.85
Q 49.1 49.1 49.2 49.25
L 49.65 49.3 49.9 49.15 49.95 48.85 49.8 48.65 49.7 48.55 49.55 48.6 49.65 48.55 49.35 48.6
M 48.65 47.6
L 48.6 47.75 48.6 47.85 48.7 48 48.8 48.05 49 48.1 49.05 48.1 49.25 48 49.35 47.9 49.35 47.7 49.25 47.45 49.2 47.4 49 47.4 48.85 47.35 48.75 47.5 48.65 47.6
M 46.5 49.35
L 46.3 49.35 46.05 49.55 46 49.6 46 49.8 45.9 50
Q 45.85 50.05 45.9 50.1 45.85 50.2 46 50.3 46.05 50.5 46.3 50.4 46.45 50.4 46.6 50.2
L 46.65 50 46.75 49.85
Q 46.8 49.75 46.7 49.5
L 46.5 49.35
M 46.35 48.1
L 46.25 48.2 46.25 48.3 46.35 48.6 46.5 48.7 46.7 48.65 46.75 48.65
Q 46.95 48.6 47 48.45 47.1 48.3 46.95 48.1
L 46.95 48 46.85 48
Q 46.75 47.9 46.55 48
L 46.55 47.95 46.35 48.1
M 47.75 45.55
L 47.75 45.4 47.5 45.15 47.3 45.2 47.1 45.3 47.05 45.35 47 45.45
Q 46.95 45.7 47.15 45.8
L 47.4 45.9 47.5 45.9 47.7 45.7 47.75 45.55
M 47.75 43.85
L 47.75 43.8 47.65 43.8 47.4 43.75 47.2 43.95 47.2 44.2 47.3 44.35 47.4 44.45 47.55 44.5 47.9 44.35 47.9 44.15
Q 47.9 43.9 47.75 43.85
M 48.7 46.25
Q 48.65 45.9 48.25 45.95
L 48.15 46.05 48.05 46.1 47.95 46.3
Q 48 46.65 48.25 46.7
L 48.3 46.65 48.45 46.65
Q 48.8 46.65 48.7 46.25
M 49.8 44.7
L 49.6 44.75
Q 49.4 44.95 49.5 45.2 49.65 45.5 50 45.5
L 50.15 45.4 50.25 45.35 50.25 45.2
Q 50.35 44.9 50.05 44.75
L 50.05 44.85 49.95 44.75 49.8 44.7
M 50.15 43.75
Q 50.05 43.95 50.1 44
L 50.25 44.1 50.3 44.2 50.45 44.25 50.6 44.25 50.8 44.05 50.85 43.85 50.85 43.8 50.65 43.6 50.5 43.5 50.45 43.55
Q 50.25 43.55 50.15 43.75
M 43.7 48.45
L 43.7 48.25
Q 43.6 48.15 43.55 48.2
L 43.55 48.15 43.45 48.1 43.25 48.05 43.1 48.15 43 48.35 43.1 48.65 43.15 48.7 43.45 48.8 43.65 48.65 43.7 48.45
M 44.65 47.5
L 44.5 47.45 44.3 47.45
Q 44.15 47.7 44.1 47.95
L 44.25 48.1 44.4 48.2 44.55 48.2
Q 44.65 48.2 44.75 48 44.9 47.9 44.8 47.7
L 44.8 47.65 44.65 47.5
M 45.2 47
L 45.2 46.85 45 46.65 44.8 46.6 44.7 46.65 44.55 46.75 44.45 46.85 44.4 46.95
Q 44.5 47.1 44.6 47.2 44.7 47.35 44.9 47.35
L 45.05 47.3 45.15 47.2 45.2 47
M 45.45 46.6
L 45.5 46.7 45.6 46.75
Q 45.75 46.9 45.9 46.85 46.1 46.85 46.2 46.65
L 46.25 46.5 46.1 46.2 46 46.15 45.85 46.1 45.75 46.05 45.5 46.3
Q 45.35 46.35 45.45 46.6
M 41.75 48.6
L 41.7 48.75
Q 41.75 48.9 41.85 49
L 41.85 49.05 41.95 49.1 42.1 49.15 42.35 49.05 42.45 48.75 42.45 48.65
Q 42.3 48.35 42 48.45
L 41.8 48.5 41.75 48.6
M 41.2 48.75
L 41.25 49 41.25 48.8 41.2 48.75
M 40.75 46.55
L 40.7 46.5 40.55 46.4
Q 40.15 46.4 40.1 46.7
L 40.05 46.7
Q 39.8 46.7 39.7 47
L 39.7 47.15 39.75 47.25 39.65 47.35 39.6 47.45 39.6 47.5 39.55 47.55 39.5 47.7
Q 39.5 47.95 39.65 48 39.7 48.05 39.95 48.05
L 40.05 48 40.2 47.95 40.25 47.8 40.25 47.85 40.35 47.85 40.3 47.9 40.3 47.95 40.35 48.15 40.4 48.2 40.4 48.25 40.3 48.4
Q 40.3 48.75 40.7 48.85
L 40.95 48.75 41.05 48.65 41.05 48.4
Q 41.05 48.3 40.95 48.2
L 41 48.1
Q 41.05 47.95 41 47.9
L 41 47.8 40.75 47.55 40.5 47.6 40.45 47.6
Q 40.5 47.5 40.5 47.45
L 40.55 47.45
Q 40.85 47.45 40.9 47.15
L 40.8 46.6 40.8 46.75 40.75 46.55
M 41.2 45.6
L 41.15 45.5 40.95 45.4
Q 40.6 45.4 40.55 45.7 40.5 45.8 40.6 46
L 40.75 46.15 40.85 46.15
Q 40.85 46.3 40.95 46.35
L 41.1 46.5 41.25 46.5 41.5 46.35 41.55 46.25 41.65 46.15
Q 41.65 45.95 41.5 45.9 41.35 45.75 41.25 45.8
L 41.2 45.6
M 43.1 45.95
Q 43.4 45.95 43.5 45.6 43.4 45.15 43.1 45.1
L 43.05 45.15 43 45.1 42.95 45.1
Q 42.75 45.15 42.6 45.45 42.55 45.75 42.8 45.95
L 43.1 45.95
M 45.3 43.25
L 45.15 43.2 44.95 43.3 44.8 43.45 44.75 43.6 44.9 43.85 45.15 44 45.35 44 45.4 43.85 45.5 43.8 45.55 43.6 45.55 43.5 45.3 43.25
M 44.15 42.8
L 44.15 42.95
Q 44.4 43.25 44.65 43.2 44.8 43.2 44.9 43.1
L 44.9 43 44.95 42.95 44.95 42.8
Q 45 42.65 44.85 42.55
L 44.9 42.55
Q 45 42.5 45 42.4 44.95 42.35 44.9 42.2
L 44.75 42.05 44.7 42.05 44.5 42 44.45 42 44.3 42.05 44.2 42.15 44.1 42.3
Q 44.15 42.45 44.2 42.55
L 44.1 42.6 44.1 42.75 44.15 42.8
M 40.7 42.2
L 40.55 42.1 40.45 42.1 40.35 42.05
Q 40.3 42.05 40.25 42.05 39.95 42.05 39.85 42.4 39.75 42.75 40 43
L 40.05 43.05 40.1 43.05 40.15 43.1
Q 40.4 43.1 40.45 43.05
L 40.55 42.95
Q 40.55 43.1 40.65 43.25
L 40.7 43.3 41 43.3 41.2 43.15 41.25 43.1 41.25 42.95
Q 41.35 42.85 41.15 42.65 41 42.6 40.9 42.6 40.8 42.6 40.7 42.7 40.7 42.65 40.7 42.6 40.7 42.5 40.7 42.4 40.75 42.3 40.65 42.3
L 40.7 42.2
M 40.7 41.15
L 40.65 41.15
Q 40.2 41.3 40.4 41.65
L 40.5 41.75 40.65 41.85 40.8 41.85
Q 41.05 41.85 41.1 41.6 41.2 41.55 41.05 41.25
L 40.95 41.2 40.85 41.1 40.7 41.15
M 41.6 39.65
L 41.55 39.75
Q 41.65 39.9 41.8 39.95 41.85 40 41.95 40.05
L 42 40 42.2 40.05
Q 42.4 40 42.45 39.7 42.45 39.55 42.4 39.45
L 42.3 39.4 42.2 39.3 42.05 39.25 41.95 39.3
Q 41.8 39.25 41.65 39.5
L 41.6 39.65
M 44.35 39.9
Q 44.25 39.95 44.2 39.95 43.9 40.1 43.95 40.5
L 44.15 40.7 44.45 40.7 44.5 40.65
Q 44.8 40.5 44.75 40.2
L 44.65 40.05 44.35 39.9
M 50.3 41.85
L 50.05 41.9
Q 50 41.9 49.9 42.05 49.8 42.2 49.9 42.3 49.9 42.4 50.05 42.5 50.2 42.6 50.3 42.55
L 50.45 42.55 50.6 42.4 50.6 42.25
Q 50.65 41.95 50.3 41.9
L 50.3 41.85
M 47.85 39.65
Q 47.7 39.75 47.6 39.95
L 47.6 40.05 47.7 40.2 47.85 40.3 47.95 40.4 48.15 40.4
Q 48.45 40.15 48.35 39.9 48.2 39.6 47.85 39.65
M 46.3 38.25
L 46.1 38.5
Q 46 38.65 46.1 38.8
L 46.25 38.9 46.65 38.95 46.75 38.8 46.85 38.7 46.85 38.55 46.7 38.35 46.5 38.25 46.3 38.25
M 50.35 39.35
Q 50.4 39.15 50.25 39.05
L 50.2 39 49.95 38.95 49.75 39.05 49.6 39.25 49.65 39.45 49.85 39.65 50 39.7 50.15 39.65 50.3 39.5 50.35 39.35
M 49.05 36.7
Q 49 36.85 49.05 37 49.25 37.2 49.5 37.15
L 49.7 37 49.8 36.85 49.8 36.65 49.6 36.45 49.55 36.45 49.45 36.4 49.25 36.45 49.15 36.55
Q 49.05 36.6 49.05 36.7
M 48.15 34
L 48.1 33.8 48.05 33.7 47.9 33.8 47.95 33.65 47.85 33.6 47.55 33.6 47.35 33.9 47.3 34 47.35 34.1 47.35 34.15 47.5 34.3 47.55 34.3 47.65 34.35 47.85 34.4
Q 48.15 34.25 48.15 34
M 49.1 31.4
Q 48.95 31.35 48.75 31.45
L 48.55 31.7 48.6 32.05 48.7 32.1 48.75 32.15 48.85 32.15
Q 49.15 32.25 49.3 31.85
L 49.3 31.6 49.1 31.4
M 40.65 36.9
L 40.5 36.75
Q 40.1 36.65 40 37.05
L 40.05 37.4 40.15 37.5 40.25 37.5 40.35 37.55
Q 40.7 37.55 40.7 37.3
L 40.7 37 40.65 36.9
M 41.6 35.45
L 41.7 35.25
Q 41.7 34.85 41.35 34.85 41.05 34.75 40.95 35.15
L 41 35.4 41.35 35.6 41.5 35.55 41.6 35.45
M 44 33.1
L 43.9 33.2 43.8 33.25 43.75 33.45 43.9 33.75
Q 44.05 33.9 44.25 33.75
L 44.4 33.65 44.5 33.45
Q 44.5 33.15 44.2 33.05
L 44 33.1
M 43.35 32.15
L 43.1 32.25 43 32.35 43 32.6 42.95 32.55 42.95 32.6
Q 43 32.95 43.35 32.95
L 43.5 32.95 43.7 32.75 43.7 32.4 43.5 32.2 43.35 32.15
M 58.9 35.55
L 58.8 35.55 58.6 35.75 58.55 35.85
Q 58.55 35.95 58.6 36.1
L 58.7 36.25 58.85 36.3 59.05 36.3
Q 59.25 36.2 59.25 36
L 59.25 35.9
Q 59.3 35.7 59.15 35.65 59.1 35.55 58.9 35.55
M 56.8 36
Q 56.9 35.6 56.55 35.4
L 56.25 35.4
Q 56 35.5 55.95 35.7
L 55.85 35.9
Q 55.95 36.4 56.4 36.35
L 56.7 36.3 56.7 36.2 56.8 36
M 56.9 33.15
L 56.8 33.2 56.75 33.35 56.75 33.55 56.85 33.7 57.05 33.85 57.15 33.95 57.35 33.9 57.55 33.8 57.6 33.8 57.75 33.6 57.75 33.45 57.7 33.35 57.65 33.05 57.35 32.9 57.2 32.9
Q 57 33 56.9 33.15
M 58.85 32.15
Q 58.7 32 58.55 32
L 58.4 32 58.2 32.2 58.2 32.25
Q 58.1 32.45 58.25 32.55 58.3 32.7 58.55 32.75
L 58.7 32.7 58.75 32.65 58.9 32.55 58.9 32.5 58.85 32.15
M 52.45 35.25
L 52.5 35.15 52.45 35.05 52.45 35 52.35 34.85
Q 52.2 34.65 52.05 34.7 51.8 34.8 51.8 34.95
L 51.7 35 51.65 35.25
Q 51.7 35.4 51.85 35.45 51.95 35.5 52.05 35.5
L 52.3 35.4 52.45 35.25
M 51.3 32.1
Q 51.25 32 51 31.85
L 50.6 31.9 50.55 31.95 50.55 32 50.5 32.05 50.5 32.15
Q 50.4 32.3 50.55 32.45
L 50.7 32.6 50.85 32.65 51.1 32.6 51.05 32.65
Q 51.3 32.5 51.3 32.35
L 51.35 32.25 51.3 32.2 51.3 32.1
M 54.4 32.7
Q 54.25 32.7 54.15 32.85
L 54.1 32.85 54 33.05 54.15 33.35 54.2 33.35 54.15 33.4 54.15 33.6 54.25 33.75 54.45 33.85 54.6 33.8 54.65 33.8 54.85 33.6 54.85 33.35 54.8 33.25 54.75 33.2 54.75 32.9 54.6 32.75 54.4 32.7 Z"/>
</g>
</defs>

<g transform="matrix( 1, 0, 0, 1, 0,0) ">
<use xlink:href="#Layer2_0_FILL"/>
</g>
</svg>
