
<svg xmlns="http://www.w3.org/2000/svg" version="1.1" xmlns:xlink="http://www.w3.org/1999/xlink" preserveAspectRatio="none" x="0px" y="0px" width="100px" height="100px" viewBox="0 0 100 100">
<defs>
<g id="Layer2_0_FILL">
<path fill="#363435" stroke="none" d="
M 63.2 80.35
Q 63 80.7 62.85 80.2 62.7 79.7 62.4 80.1 62.55 80.55 62.95 80.8 63.35 81 63.2 80.35
M 74.05 79.45
Q 74.1 78.5 73.75 79.15 73.4 79.8 74.05 79.45
M 73.25 77.6
Q 72.9 77.8 73.1 78.4 73.55 77.55 74 77.7 74.25 77.75 74.8 78 74.6 77.85 74.45 77.55 74.3 77.25 74.1 77.1 74.05 77.15 73.25 77.6
M 71.1 78.8
Q 71.3 79 71.45 78.8 71.35 78.75 71.3 78.5 71.2 78.35 71.05 78.5 70.9 78.65 71.1 78.8
M 47.3 81.2
Q 47.05 81 46.9 80.9 46.65 80.8 46.5 80.95 46.65 81 46.9 81.2 47.15 81.35 47.3 81.2
M 46.1 75.2
Q 46.3 75.45 46.85 75.5 47.4 75.6 47.1 75.25 46.45 75.15 46.1 75.2
M 53.35 76.9
Q 53.15 77.05 53.3 77.3 53.6 77.15 53.75 77.05 53.95 76.9 53.8 76.65 53.7 76.75 53.35 76.9
M 54.05 77.2
Q 53.6 77.6 53.95 77.8 54.2 77.55 54.35 77.75
L 54.65 77.3
Q 54.5 76.8 54.05 77.2
M 55.85 73.5
L 56.2 73.05 55.75 72.7 55.45 73.15 55.85 73.5
M 57.6 70.7
Q 57.85 70.8 58 70.7 57.7 70.45 57.6 70.4 57.35 70.25 57.2 70.4 57.35 70.45 57.6 70.7
M 59.45 70.1
L 59 69.75 58.7 70.2 59.1 70.5 59.45 70.1
M 51.45 70.7
Q 50.9 70.3 51.1 71.25 52.05 71.05 51.45 70.7
M 52.45 64.1
L 52.9 64.45 53.2 64 52.8 63.7 52.45 64.1
M 45.65 70.45
Q 45.7 69.55 45.35 70.15 45 70.8 45.65 70.45
M 50.4 71.35
Q 50.45 70.4 50.1 71.05 49.75 71.7 50.4 71.35
M 48.85 71.55
Q 50 71.8 49.3 71.25 48.65 70.7 48.85 71.55
M 47.2 71.95
Q 47.95 71.7 47.15 71.85 46.35 71.95 47.2 71.95
M 47.45 71.15
Q 47.4 70.4 46.25 70.95 46.2 71.15 46.6 71.5 47.05 71.8 46.7 71.3 46.5 71.05 46.65 70.9 46.75 71 46.95 71 47.15 70.95 47.25 71 47.15 71.1 47.25 71.25 47.3 71.3 47.45 71.15
M 46.35 70
Q 46.2 69.85 46.25 69.5 46.3 69.3 46.1 69.45 45.7 69.7 46.15 70.15 46.75 70.7 46.35 70
M 44.1 72
Q 43.8 71.8 43.7 71.75 43.45 71.6 43.3 71.75 43.45 71.8 43.7 72 43.95 72.15 44.1 72
M 41.75 71.8
Q 41.35 72.1 41.9 72.7 41.9 72.25 42.35 71.9 42.75 71.55 42.65 71.25 42.35 71.55 41.75 71.8
M 42.7 68.85
Q 42.85 68.2 42.1 68.45 42.5 69.45 42.7 68.85
M 43.8 69.5
Q 43.3 70 44.2 69.7 44.35 69 43.8 69.5
M 47.4 63.65
L 47.8 64 48.15 63.55 47.7 63.25 47.4 63.65
M 49 63.1
Q 48.65 63.75 49.3 63.4 49.35 62.45 49 63.1
M 48.2 62.85
Q 47.85 63.5 48.45 63.1 48.55 62.2 48.2 62.85
M 40.95 53.4
Q 41.75 53.15 40.95 53.25 40.1 53.35 40.95 53.4
M 45.4 50.65
Q 45.5 49.7 45.15 50.35 44.75 51 45.4 50.65
M 59.65 61.75
L 59.95 61.35 59.55 61.05 59.25 61.45 59.65 61.75
M 51.95 56.3
Q 51.6 56 51.4 55.9 51.1 55.7 50.95 55.85 51.1 55.95 51.45 56.25 51.75 56.45 51.95 56.3
M 53.6 55.5
Q 53.3 55.15 52.75 55.25 52.15 55.35 52.45 55.65 52.6 55.4 53.05 55.75 53.45 56.05 53.6 55.5
M 56 51.9
Q 56.35 51.7 55.75 51.55 55.15 51.4 55.15 51.6 55.2 51.8 55.55 51.9 55.85 51.95 56 51.9
M 77.1 63.8
Q 76.9 62.9 76.5 63.45 76.15 64 77.1 63.8
M 80.45 62.95
Q 79.3 62.7 80 63.25 80.65 63.8 80.45 62.95
M 66.75 72.95
Q 66.95 72.25 66.4 72.75 65.9 73.25 66.75 72.95
M 66.75 60.4
Q 66.7 60.35 66.6 60.1 66.55 59.95 66.35 60.1 66.25 60.25 66.4 60.4 66.6 60.55 66.75 60.4
M 18.5 54
L 18.8 53.55 18.4 53.2 18.05 53.65 18.5 54
M 19.75 53.2
Q 19.65 53.15 19.55 52.9 19.5 52.75 19.3 52.9 19.15 53.05 19.35 53.2 19.55 53.4 19.75 53.2
M 37.2 72.2
L 37.55 71.75 37.1 71.45 36.75 71.9 37.2 72.2
M 37.15 69.1
Q 37.5 69.4 37.85 69.35 37.95 69.35 38.5 69.15 38.2 68.85 37.8 68.9 37.7 68.9 37.15 69.1
M 34 72.7
Q 33.55 72.55 33.4 72.7 33.7 73.05 34.3 72.95 34.85 72.85 34.55 72.55 34.4 72.85 34 72.7
M 34.35 70.45
Q 33.8 70.95 34.7 70.65 34.85 69.95 34.35 70.45
M 37.55 64.9
Q 36.7 65 37.55 65 38.35 64.75 37.55 64.9
M 30.35 64.5
Q 29.75 64.35 29.75 64.55 29.8 64.75 30.2 64.85 30.45 64.9 30.6 64.85 30.95 64.65 30.35 64.5
M 24.5 52.75
Q 24.35 52.35 24.2 52.2 23.9 51.8 23.65 52.1 23.7 52.2 23.95 52.65 24.2 53.1 24.5 52.75
M 28.6 53.15
L 28.95 52.75 28.5 52.4 28.15 52.85 28.6 53.15
M 29.8 35.45
Q 30.95 36 30.85 35.5 30.8 35 29.8 35.45
M 36.35 46.8
Q 36.3 46.2 35.65 47 36.45 47.45 36.35 46.8
M 36.95 47.15
Q 37.05 47.25 37.65 47.45 38 46.9 37.85 46.75 37.4 46.55 37.1 46.4 36.7 46.9 36.95 47.15
M 38.95 46
Q 38.4 45.9 38 46.1 38.35 46.35 38.5 46.8 38.9 46.2 39.5 46.85
L 39.95 46.2
Q 39.3 46.05 38.95 46
M 38.65 44.2
Q 37.95 43.65 38.2 44.5 39.3 44.75 38.65 44.2
M 34.35 47.35
Q 34.25 47.3 34.15 47.05 34.1 46.9 33.9 47.05 33.8 47.2 34 47.35 34.15 47.5 34.35 47.35
M 32.3 43.85
Q 32.15 44.2 32.5 43.95 32.95 44.05 32.95 43.55 33.05 43 32.6 43.35 32.9 43.55 32.7 43.7 32.45 43.55 32.3 43.85
M 33.4 45.25
Q 33.7 45.45 33.85 45.3 33.5 45 33.35 44.9 33.05 44.7 32.85 44.85 33.05 44.95 33.4 45.25
M 33.6 39.8
Q 33.15 40.3 34.35 40.2 34.05 39.3 33.6 39.8
M 38.65 40.55
Q 38.9 40.6 39.15 40.15 38.65 39.8 38.5 39.85 38.3 39.95 38.4 40.25 38.5 40.55 38.65 40.55
M 28.3 45.5
Q 28.45 44.8 27.95 45.3 27.45 45.8 28.3 45.5
M 30.3 43.7
Q 29.75 43.55 30.05 44.1 30.15 43.9 30.85 44.15 31.4 44.3 31.2 43.95 30.65 43.8 30.3 43.7
M 21.25 37.8
Q 21.45 37.1 20.9 37.6 20.4 38.1 21.25 37.8
M 23.9 40.1
Q 23.6 39.9 23.5 39.85 23.25 39.7 23.1 39.85 23.25 39.9 23.5 40.15 23.75 40.3 23.9 40.1
M 23.4 38.25
Q 23.4 38.3 23.85 38.4 23.6 39.3 23.95 38.6 24.15 38.15 23.8 38
L 23.4 38.25
M 26.25 37.45
Q 26.45 37.6 26.65 37.45 26.5 37.35 26.45 37.15 26.4 37 26.2 37.1 26.05 37.25 26.25 37.45
M 29.55 37.35
Q 29.05 37.9 29.9 37.55 30.05 36.85 29.55 37.35
M 28.65 35.25
Q 29.6 35.55 29.3 34.95 29.05 34.35 28.65 35.25
M 26.25 36.15
Q 27.35 36.35 26.7 35.85 26 35.3 26.25 36.15
M 27.8 36.3
Q 28.35 36.05 27.85 35.6 27.3 35.1 27.1 35.45 27.7 35.9 27.8 36.3
M 24.15 36.25
Q 24.35 36.65 24.9 36.5 25.4 36.3 25.05 35.9 24.9 36.05 24.6 36.1 24.25 36.15 24.15 36.25
M 26.85 29.35
Q 26.05 29.5 26.85 29.5 27.65 29.25 26.85 29.35
M 28.25 26.75
Q 28.4 26.95 28.6 26.75 28.5 26.7 28.4 26.45 28.35 26.3 28.15 26.45 28.05 26.6 28.25 26.75
M 25.55 27.85
Q 25.8 27.75 25.85 27.7 25.4 27.4 25.3 27.4 25.05 27.3 24.85 27.65
L 25.3 28
Q 25.4 27.9 25.55 27.85
M 38.6 36.35
Q 38.3 36.15 38.2 36.05 37.95 35.95 37.8 36.05 37.95 36.15 38.2 36.35 38.45 36.5 38.6 36.35
M 35.9 34.4
Q 35.95 34.9 36.75 34.3 35.8 33.9 35.9 34.4
M 36.7 35.95
Q 36.25 35.95 36.05 36.15 36.35 36.55 37 36.25 37.65 36 37.35 35.75 37.15 35.95 36.7 35.95
M 38.45 32.95
Q 38 33.45 39.15 33.4 38.9 32.45 38.45 32.95
M 34.55 35
Q 34.1 33.95 33.8 34.5 33.55 35.1 34.55 35
M 32 36.15
Q 32.2 35.4 31.65 35.95 31.15 36.45 32 36.15
M 32.5 34.1
Q 33.2 33.8 33.2 33.6 33.15 33.35 32.45 33.75 32.25 33.6 32.25 33.75 32.2 33.95 32.5 34.1
M 34.6 25.55
Q 34.75 24.85 34.25 25.35 33.75 25.85 34.6 25.55
M 33.15 26.15
Q 33.2 25.2 32.85 25.85 32.5 26.5 33.15 26.15
M 37.7 28.6
Q 37.45 29.55 38 29.3 38.6 29 37.7 28.6
M 38.95 25.15
Q 39.15 25 39.45 24.95 39.75 24.9 39.9 24.8 39.65 24.45 39.15 24.6 38.6 24.75 38.95 25.15
M 11.9 45.25
L 12.2 44.85 11.8 44.5 11.45 44.95 11.9 45.25
M 12.45 42.05
Q 11.95 42.55 12.8 42.25 13 41.5 12.45 42.05
M 10.85 38.4
Q 10.15 37.85 10.4 38.7 11.55 38.95 10.85 38.4
M 14.3 37.6
Q 14.2 37.55 14.1 37.25 14.05 37.15 13.9 37.25 13.75 37.45 13.95 37.6 14.1 37.75 14.3 37.6
M 16.15 38.2
Q 15.3 38.3 16.15 38.3 16.95 38.05 16.15 38.2
M 18.85 42.1
Q 18.35 42.65 19.2 42.3 19.35 41.6 18.85 42.1
M 6.1 39.5
Q 5.6 39.1 5.8 39.15 6.35 39.15 6.4 39.1 6.35 38.5 5.85 38.45 5.35 38.45 5.05 39.1 5.25 39.2 5.6 39.45 5.9 39.7 6.1 39.5
M 5.6 37.45
Q 5.7 37.5 6.25 37.95 6.65 38.35 6.85 38.05 6.75 38 6.2 37.55 5.8 37.2 5.6 37.45
M 7.35 38.15
Q 7.2 38.1 7.05 38.2 7.7 38.85 8.2 38.05 7.85 37.95 7.3 37.25 7 36.9 7.1 37.25 6.8 37.5 7.4 37.8 7.95 38.1 7.65 38.3 7.45 38.2 7.35 38.15
M 8.55 37.35
Q 8.05 37.9 8.9 37.55 9.1 36.85 8.55 37.35
M 7.7 40.05
Q 8.5 39.8 7.7 39.9 6.9 40.05 7.7 40.05
M 9.45 38.35
Q 8.9 38.45 8.95 37.95 8.4 38.2 8.4 38.25 8 38.55 8.3 38.8 8.65 38.55 9.45 38.7 9.95 38.8 9.8 38.6 9.95 38.25 9.45 38.35
M 6.9 34
Q 7.1 34.4 7.65 34.25 8.15 34.05 7.8 33.7 7.65 33.95 7.35 34
L 6.9 34
M 15.95 32.75
Q 16.65 33.4 17.35 33.15 16.6 32.5 15.95 32.75
M 12.7 31.65
Q 12.45 31.45 12.3 31.4 12.05 31.25 11.9 31.4 12.05 31.45 12.35 31.65 12.55 31.8 12.7 31.65
M 10.9 34
Q 10.65 33.8 10.5 33.75 10.25 33.6 10.1 33.75 10.25 33.8 10.55 34.05 10.8 34.15 10.9 34
M 60.8 46.4
Q 60.95 45.65 60.45 46.2 59.95 46.7 60.8 46.4
M 72.8 38.55
Q 72.7 38.5 72.65 38.25 72.6 38.1 72.4 38.25 72.25 38.4 72.45 38.55 72.65 38.75 72.8 38.55
M 70.4 47.55
Q 69.5 46.75 69.8 47.35 70.1 47.9 70.65 47.75 70.9 47.45 70.8 47.35 70.7 47.15 70.4 47.55
M 67.35 46.25
L 67.65 45.85 67.25 45.5 66.9 45.95 67.35 46.25
M 63.2 47.1
Q 62.85 47.1 62.7 47.5 62.95 47.9 63.5 47.5 64.1 47.05 63.75 46.95 63.65 47.1 63.2 47.1
M 61.95 46.25
Q 61.75 46.55 61.25 46.7 61.45 47.25 61.85 46.85 62.3 46.45 61.95 46.25
M 60.85 37.25
Q 61.15 37.3 61.25 37.25 61.6 37.1 61 36.95 60.45 36.8 60.45 37 60.5 37.2 60.85 37.25
M 69.45 30.95
Q 69.3 32 69.9 31.8 70.5 31.55 69.45 30.95
M 61.8 33.95
Q 61.75 34 61.15 34 60.75 34 61.1 34.4 61.15 34.25 61.65 34.25 62.05 34.25 61.8 33.95
M 62.05 31.6
Q 61.2 31.75 62.05 31.75 62.85 31.5 62.05 31.6
M 64.4 31.85
Q 63.8 31.25 63.6 31.1 63.25 30.8 62.75 31.25 62.9 31.3 63.55 31.7 64.1 31.95 64.4 31.85
M 65 30.6
L 64.55 30.25 64.2 30.7 64.65 31.05 65 30.6
M 69.95 28.8
Q 69.5 29.35 69.85 29.55 70.25 28.95 70.7 28.85 70.45 28.3 69.95 28.8
M 68.85 30.65
Q 68.25 30.5 68.25 30.75 68.3 30.9 68.65 31 68.95 31.05 69.1 31 69.45 30.85 68.85 30.65
M 75.2 27.85
L 75.35 27.6
Q 77.2 27.25 75.55 27.35 74.4 27.4 75.2 27.85
M 72.75 30.4
Q 72.55 30.45 72.45 30.5 72.8 30.75 72.95 31.2
L 73.45 30.55 73 30.25
Q 72.95 30.4 72.75 30.4
M 74 27.65
Q 73.75 27.55 73.65 27.65 73.75 27.75 74.05 27.95 74.3 28.05 74.4 27.95 74.15 27.75 74 27.65
M 80.95 27.4
Q 79.8 27.45 80.6 27.85
L 80.75 27.65
Q 82.6 27.3 80.95 27.4
M 76 28.1
Q 76.1 27.95 76.45 28 76.8 28.1 76.9 27.75 76.7 27.4 76.2 27.65 75.65 27.9 76 28.1
M 58.25 48.9
Q 59.05 48.6 58.25 48.75 57.4 48.85 58.25 48.9
M 54.1 44.2
Q 54.75 44.3 54.6 43.4 53.45 44.1 54.1 44.2
M 56.35 37.95
Q 56.4 37.95 56.5 37.75 58.35 37.35 56.7 37.5 55.55 37.55 56.35 37.95
M 57.6 38.5
Q 57.8 38.65 58 38.5 57.7 38.3 57.55 38.2 57.3 38.1 57.15 38.2 57.3 38.3 57.6 38.5
M 47.1 44.8
Q 47.15 45.55 48.25 45.05 47.6 44.55 47.1 44.8
M 48.4 46.65
Q 48.75 46.6 48.85 46.5 48.65 46.1 48.15 46.25 47.6 46.45 47.95 46.8 48.1 46.7 48.4 46.65
M 46.05 45.1
Q 45.5 45.6 46.4 45.3 46.55 44.6 46.05 45.1
M 49 44.55
Q 48.85 45.15 48.9 45.55 49.15 45.3 49.25 44.8 49.35 44.25 49 44.55
M 42.6 45.8
Q 43.4 46.05 44.25 45.75 45.15 45.45 45.85 45.55 44 44.6 42.6 45.8
M 45.3 46.45
L 44.85 46.5
Q 45.05 46.85 45.6 46.7 46.1 46.5 45.75 46.15 45.6 46.45 45.3 46.45
M 41.3 46.2
Q 41.45 46.05 41.8 46.1 42.1 46.2 42.2 45.85
L 41.55 45.4
Q 41.5 45.55 41.3 45.8 41.15 46.05 41.3 46.2
M 50.6 38
Q 50.65 37.4 49.95 37.5 50.5 38.7 50.6 38
M 48.35 42.7
Q 48.55 42.85 48.35 43.2 48.15 43.55 48.3 43.7 48.7 43.45 48.8 42.9 48.9 42.35 48.35 42.7
M 46 34.15
Q 45.7 34.35 45.6 34.4 45.35 34.55 45.55 34.8 45.65 34.7 45.95 34.6 46.15 34.45 46 34.15
M 46.55 35.25
Q 46.95 35 47.05 34.45 47.15 33.95 46.6 34.3 46.8 34.4 46.6 34.75 46.4 35.1 46.55 35.25
M 47.2 31.65
Q 47.8 32.2 47.4 31.5 47.2 31.4 47.3 31.05 47.35 30.8 47.1 30.95 46.75 31.2 47.2 31.65
M 50.1 31.6
Q 50.4 30.95 49.65 31.15 49.85 32.25 50.1 31.6
M 45.2 36.65
Q 44.95 36.5 44.8 36.65 44.95 36.75 45.25 36.95 45.5 37.1 45.6 36.95 45.35 36.7 45.2 36.65
M 44.05 36.75
Q 43.75 36.55 43.65 36.5 43.4 36.35 43.25 36.5 43.4 36.55 43.65 36.8 43.9 36.9 44.05 36.75
M 43.8 34.9
Q 44.6 34.65 43.75 34.75 42.95 34.85 43.8 34.9
M 42.2 36.05
Q 41.95 35.85 41.8 35.75 41.55 35.65 41.4 35.75 41.55 35.85 41.85 36.05 42.1 36.2 42.2 36.05
M 41.45 33.45
Q 41.45 33.5 40.65 33.5 40.1 33.5 40.4 34 40.55 33.95 41.2 34.05 41.75 34.05 41.45 33.45
M 43.4 33.5
Q 43.65 33.65 43.8 33.5 43.55 33.35 43.4 33.25 43.15 33.1 43 33.25 43.15 33.35 43.4 33.5
M 44.75 33.1
Q 44.3 34.1 45.15 33.5 45 33.35 45.2 33.2 45.55 33.05 45.65 32.85 45.2 32.15 44.75 33.1
M 41.2 25.8
Q 41.55 25.5 41.1 25.15 40.7 24.85 40.55 25.3 40.5 25.5 40.75 25.7 41 25.95 41.2 25.8
M 42.7 25.55
Q 42.6 25.5 42.5 25.25 42.45 25.1 42.3 25.25 42.15 25.4 42.35 25.55 42.5 25.75 42.7 25.55
M 43.75 26.4
Q 43.8 26.35 44.4 26.35 44.8 26.35 44.5 25.9 44.4 26.1 43.9 26.05 43.5 26.05 43.75 26.4
M 56.1 34.7
Q 56.3 34 55.75 34.55 55.2 35.05 56.1 34.7
M 58.05 36.2
L 57.7 36.6 58.15 36.95 58.45 36.5 58.05 36.2
M 56.85 33.2
Q 57.1 33.35 57.25 33.2 56.95 33 56.8 32.95 56.55 32.8 56.45 32.95 56.55 33 56.85 33.2
M 60.45 31.2
Q 59.7 31.45 60.15 32.05 60.4 31.7 60.85 31.55
L 60.45 31.2
M 58.95 31.2
Q 58.4 31.7 59.3 31.4 59.5 30.65 58.95 31.2
M 58.65 32.25
Q 58.85 31.55 58.3 32.05 57.75 32.55 58.65 32.25
M 52.35 35.6
Q 52.45 34.7 52.1 35.35 51.75 36 52.35 35.6
M 50.9 33.1
Q 50.75 33.05 50.7 32.8 50.65 32.65 50.45 32.8 50.3 32.95 50.5 33.1 50.7 33.3 50.9 33.1
M 52.05 32
L 52.5 32.35 52.85 31.9 52.4 31.55 52.05 32
M 55.15 33.25
Q 55.4 33.4 55.5 33.25 55.25 33.05 55.1 33 54.85 32.85 54.7 33 54.85 33.05 55.15 33.25
M 52.7 29.8
Q 53.5 29.55 52.7 29.65 51.9 29.75 52.7 29.8
M 58.15 29.55
Q 57.95 29.6 57.9 29.65 58.15 29.7 58.3 30.2 58.45 30.6 58.75 30.3 58.6 30.15 58.55 30.05 58.4 29.9 58.5 29.75 58.75 29.9 58.9 29.7
L 58.45 29.35
Q 58.35 29.5 58.15 29.55
M 56.35 30.85
Q 56.15 30.55 56.1 30.4 55.95 30.2 55.7 30.3 55.8 30.45 55.9 30.75 56.05 30.95 56.35 30.85
M 57.85 29.25
Q 57.6 29.05 57.45 29 57.2 28.85 57.05 29 57.2 29.05 57.45 29.25 57.7 29.4 57.85 29.25
M 55.25 24.25
Q 56.05 23.95 55.2 24.1 54.4 24.2 55.25 24.25
M 54.1 24.4
Q 54.55 24.2 54.55 24.15 54.5 24.1 54.05 24 54.3 23.15 53.95 23.8 53.75 24.25 54.1 24.4
M 43.45 24.15
Q 43.35 24.1 43.3 23.8 43.25 23.65 43.05 23.8 42.9 23.95 43.1 24.15 43.3 24.3 43.45 24.15
M 42.15 24.5
Q 42.05 24.35 42.15 24.2 42.2 24.15 42.5 24.05 42.3 23.9 42.15 23.65 42 23.3 41.8 23.2
L 41.45 23.6
Q 41.3 23.9 41.5 24 41.8 23.65 41.75 24.25 41.7 24.9 42.15 24.5
M 93.85 68.05
Q 93.55 67.85 93.45 67.75 93.2 67.6 93.05 67.75 93.2 67.85 93.45 68.05 93.7 68.15 93.85 68.05
M 82.1 63.9
Q 82.9 64.55 83.5 64.7 84.15 64.9 84.7 64.45 84.45 63.65 83.5 63.4 82.6 63.2 82.1 63.9
M 87.65 67.85
Q 87.5 67.6 87.25 67.8 87.4 67.9 87.5 68.2 87.65 68.45 87.9 68.25 87.75 67.95 87.65 67.85
M 86.35 62.7
Q 87.15 62.45 86.35 62.55 85.5 62.7 86.35 62.7
M 81.6 58.75
Q 81.4 58.6 81.3 58.4 81.0220703125 58.07578125 81.05 58.05 80.4546875 58.154296875 80.95 58.6 81.4 59.05 81.6 58.75
M 94 50.85
Q 94.05 49.95 93.7 50.6 93.35 51.25 94 50.85
M 92.4 40.85
Q 93.3 40 92.5 40.1 91.75 40.2 92.4 40.85
M 94.15 39.45
Q 94.15 40.15 95.2 40 96.25 39.85 96.05 39.2 95.15 39.6 94.75 39.55 94.9 39.35 94.6 39.35 94.4 39.3 94.15 39.45
M 93.35 36.5
Q 93.4 35.6 93.05 36.2 92.7 36.85 93.35 36.5 Z"/>
</g>
</defs>

<g transform="matrix( 1, 0, 0, 1, 0,0) ">
<use xlink:href="#Layer2_0_FILL"/>
</g>
</svg>
