
<svg xmlns="http://www.w3.org/2000/svg" version="1.1" xmlns:xlink="http://www.w3.org/1999/xlink" preserveAspectRatio="none" x="0px" y="0px" width="100px" height="100px" viewBox="0 0 100 100">
<defs>
<g id="Layer2_0_FILL">
<path fill="#363435" stroke="none" d="
M 61.05 94.3
Q 60.35 94.75 60.55 95.5 61.25 95.05 61.05 94.3
M 71.25 89.55
Q 70.95 89.75 70.9 89.75 68.4 89.4 70.55 90 72.05 90.45 71.25 89.55
M 73.25 89.45
Q 73.1 87.85 72.05 88.15 73.15 88.9 72.7 90.35 72.35 91.6 73.15 91.8 73.25 89.55 73.25 89.45
M 71.95 88.65
Q 71.3 88.85 71.6 89.5 71.95 90.3 71.85 90.5 72.5 90.25 72.25 89.65 71.85 88.85 71.95 88.65
M 78.6 89.2
Q 78.25 88.45 77.85 88.8 78.05 89.2 77.75 89.3
L 78.15 89.95
Q 78.9 89.95 78.6 89.2
M 61.55 88.3
Q 61.55 87.4 61.35 88.5 61.1 89.65 61.35 89.3 61.95 88.4 61.8 88.4 61.55 88.45 61.55 88.3
M 60.8 91.85
Q 62.3 91.8 61.55 91.25 60.85 90.75 60.8 91.85
M 69.6 89
Q 70.25 90.05 70.3 88.85 69 88 69.6 89
M 67.3 87.5
Q 66.85 86.55 66.4 86.95 66.65 87.2 66.7 87.65 66.75 88.15 66.9 88.35 67.75 88.35 67.3 87.5
M 68.6 85.6
Q 68.45 86 67.75 86.6 67.4 86.95 67.65 87.5 68.1 87.15 68.3 86.55 68.5 85.9 68.6 85.6
M 67.4 83.7
Q 67.65 83.85 68.2 84.2 68.75 84.45 69.2 83.85 69 83.4 68.05 83.45 67.1 83.5 67.4 83.7
M 69.15 81.7
Q 68.9 81.3 68.9 80.6 68.35 80.95 68.1 81.15 67.7 81.4 67.85 81.7 68.15 81.45 68.55 81.55 69.1 81.7 69.15 81.7
M 62 84.95
Q 61.8 86.2 62.6 85.65 63.3 85.15 62 84.95
M 64.1 82.75
Q 63.9 84 64.65 83.5 65.4 82.95 64.1 82.75
M 62.25 78.55
Q 62.55 78.25 62.5 77.7 62 78.05 61.75 78.2 61.35 78.5 61.45 78.8 61.95 78.9 62.25 78.55
M 62.85 74.85
Q 62.75 74.65 62.75 74.3 62.8 73.95 62.55 73.7 61.8 73.75 62.1 74.5 62.45 75.25 62.85 74.85
M 63.7 74.75
Q 64.25 75.85 65.25 75.1 65.05 74.5 64.5 74.65 63.75 74.75 63.7 74.75
M 68.55 79.5
Q 68.3 79.95 67.3 80.1 66.7 80.2 67.2 80.8 67.25 80.75 68.2 80.5 69.1 80.1 68.55 79.5
M 68.1 78.05
Q 67.9 77.25 66.95 77.5 65.95 77.75 66.1 78.45 66.6 77.9 67.15 78 67.9 78.15 68.1 78.05
M 68.7 76.35
Q 68.8 76.3 69.15 76.15 69.5 76.05 69.55 76.25 69.85 77.85 70.05 78.05 70.25 78.2 70.1 77.4 69.75 75.2 68.7 76.35
M 79.55 85.35
Q 79.8 85.1 80.9 85.1 81.6 85.1 81 84.85 80.65 85 80 84.65 80.25 84.4 80.35 84.3 80.5 84.1 80.4 83.95 80.1 84.15 79.45 84.5 79 84.9 79.55 85.35
M 79.2 83.3
Q 79.4 83.05 79.05 83.05
L 79.05 83.45
Q 79.15 83.35 79.2 83.3
M 74.75 84.1
Q 74.6 84.55 74.7 84.75 75.3 84.65 75.35 83.9 75.4 83.15 74.75 83.4 74.85 83.65 74.75 84.1
M 72.95 83.7
Q 73.15 85 72.95 85.4 73.55 85.2 73.4 84.55 73.15 83.9 73.6 83.7 73.7 83.85 73.85 83.8 74 83.8 73.9 83.5 73.15 83.65 73.45 83.05 73.85 82.3 73.4 82.1 72.7 82.55 72.95 83.7
M 71.35 83.9
Q 71.35 84 71.7 84.9
L 72.35 84.5
Q 72.7 84.2 72.45 84 72.05 84.15 71.9 83.8 71.8 83.5 71.8 83.05 71.25 83.35 71.35 83.9
M 71.45 86.15
Q 71.5 85.85 71.25 85.6 70.5 85.6 70.8 86.35 71.15 87.1 71.6 86.7 71.45 86.55 71.45 86.15
M 72.8 81.15
L 72.5 81.35
Q 69.95 81.05 72.1 81.6 73.6 82.05 72.8 81.15
M 73.7 81.45
Q 72.9 81.85 74.4 82.3 74.5 81.05 73.7 81.45
M 72.7 76.15
Q 72.35 76.6 72.65 76.9 73.5 76.6 73.1 77.4 72.75 78.1 73.25 77.85 73.5 77.15 73.5 76.35 73.5 75.35 72.95 75.4 73.15 75.65 72.7 76.15
M 78.7 78.7
Q 77.3 78.8 77.6 79.55 77.9 80.4 78.7 78.7
M 79.45 78.45
Q 79.310546875 78.6591796875 79.3 78.8 79.2595703125 78.8 79.2 78.8 79.1 79.35 79.5 79.9 79.8537109375 80.3716796875 80.3 80.25
L 80.3 80
Q 79.9708984375 79.7783203125 79.75 79.3 79.608203125 79.01640625 79.45 78.9 79.669921875 78.8400390625 79.95 79.2 80.3 79.6 80.55 79.5 80.6 79.1 80.35 78.45 80.05 77.7 79.55 77.95 79.65 78.15 79.45 78.45
M 77.65 75.6
Q 77.05 75.5 76.3 75.05 75.55 74.55 75.55 74.6 75.65 74.9 75.7 75.2 75.75 75.4 76.15 75.5 75.7 76.25 74.85 76.5 74.05 76.75 73.95 76.9 74.3 76.75 74.4 77.1 74.4 77.4 74.7 77.3 76.4 75.6 77.65 75.6
M 77.85 76.5
Q 77.45 76.35 76.75 76.45 76.95 76.8 77.4 77 77.65 77.15 77.55 77.65 78 77.4 78.7 77.4 78.4 76.7 77.85 76.5
M 59.8 93.75
Q 60.45 92.6 59.6 92.55 58.75 92.5 59.8 93.75
M 58.45 96.4
Q 57.75 96.8 57.9 97.6 58.65 97.15 58.45 96.4
M 57.3 95.7
Q 57.35 94.95 56.9 94.75 55.75 94.95 56.85 96.1 58.05 97.4 57.75 96 57.3 96.2 57.3 95.7
M 59.2 94.55
Q 59.6 94.2 59.3 93.65 58.55 93.9 58.35 94 58.1 94.1 58.25 94.75 58.8 94.85 59.2 94.55
M 55.15 92.05
Q 54.75 91.2 54.4 91.55 54.85 92.7 54.7 92.7 55.55 92.9 55.15 92.05
M 53.35 90.05
Q 53.5 90.15 53.45 91 53.4 91.65 53.85 91.45 54.05 90.55 54.05 90.5 54.1 89.85 53.35 90.05
M 52.55 90.05
Q 52.2 90.8 52 91.35 53 90.85 53.2 90 53.25 89.75 53.2 88.4 52.95 89.1 52.55 90.05
M 52.25 87.5
Q 52.2 88.05 52.8 87.8 52.85 87.05 52.8 86.75 52.75 86.35 51.95 86.55 52.25 86.75 52.25 87.5
M 56.55 90.15
Q 56.75 88.7 56.1 89.4 55.45 90.15 56.55 90.15
M 57.05 90.05
Q 56.9 90.7 57.6 90.4 57.45 90.2 57.65 89.9 57.85 89.55 57.8 89.4 57.15 89.45 57.05 90.05
M 57.3 87.1
Q 57.3 87.85 57.95 87.55 57.85 87.35 58.1 86.9 58.3 86.55 58 86.25 57.35 86.35 57.3 87.1
M 57.75 88.55
L 58.1 89.2
Q 58.9 89.2 58.6 88.45 58.25 87.65 57.85 88.05 58.05 88.45 57.75 88.55
M 47 83.35
Q 47.95 83.55 47.4 82.95 47.2 83.05 47.05 83.05 46.95 83.05 46.85 82.85 46.05 83.15 47 83.35
M 45.6 82.35
Q 45.85 82.55 46.25 82.65 46.7 82.7 46.85 82.85 46.95 82.75 47.2 82.5 47.4 82.35 47.3 82.15 46.95 82.75 46.1 82.25 45.5 81.85 45.6 82.35
M 47.3 80.8
Q 47.5 81.25 47.2 81.35 46.9 80.55 46.6 80.95 46.3 81.35 46.55 81.75 47.25 81.65 47.7 81.3 48.2 80.95 47.3 80.8
M 49.45 80.75
Q 48.55 81.05 48.25 81.25 47.75 81.55 47.8 82.25 48.95 81.45 48.95 82.3 48.95 82.75 48.8 83.8 49 83.65 49.3 83.85 49.65 84.1 49.85 84 49.3 83.4 49.3 82.75 49.55 82 49.55 81.55 49.2 81.7 49.25 81.4 49.45 80.8 49.45 80.75
M 44.25 79.3
Q 44.2 78.95 43.9 79.05 44.1 79.8 43.35 80.15 42.6 80.55 42.65 81.2 43.5 81.45 43.35 80.3 43.5 81 44.4 80.9 45.25 80.75 45.05 80.1 44.25 80.55 44.4 80.3 44.7 79.65 44.6 79.5 44.3 79.65 44.25 79.3
M 43.4 78.95
Q 43.25 78.7 43.6 78.35 44.05 78 43.9 77.75 43.25 77.85 42.9 78.5 42.55 79.15 43.4 78.95
M 43.95 75.1
Q 43.3 75.3 43.15 75 43.1 74.5 42.85 74.1 41.65 74.55 42.9 75.55 44.2 76.6 43.95 75.1
M 46 78.15
Q 45.8 77.9 45.7 77.15 45.6 76.55 45.25 76.45 44.55 78.05 44.75 79
L 46 78.15
M 47.4 78.4
Q 46.95 78.4 46.7 78.6 46.75 79.45 47.65 79 48.55 78.5 48.15 78.1 47.85 78.35 47.4 78.4
M 45.6 74.95
Q 45.9 75.1 45.85 75.85 45.85 76.35 46.4 76.15 46.4 75.6 46.3 75.3 46.15 74.65 45.6 74.95
M 47.95 75.2
Q 46.5 75.8 47.5 76 48.55 76.25 47.95 75.2
M 50.55 77
Q 50.4 77.2 49.65 77 49.2 76.8 49.4 77.3 50.05 77.1 49.75 78 49.45 78.9 48.85 78.5 48.9 78.65 49 79.4 49.2 80.05 49.65 79.75 49.4 79.15 49.9 78.35 50.55 77.4 50.55 77
M 53.95 80.1
Q 54.25 80.8 54.45 81.8 54.7 82.6 55.75 82.85 55.15 82.45 54.8 81.15 54.5 80.1 53.95 80.1
M 56.5 85.4
Q 56.5 85.45 55.85 86.1 55.25 86.65 55.6 87.3 55.8 87.25 56.2 87 56.5 86.85 56.7 87.05 55.9 87.35 56.3 87.6 56.7 87.95 57.1 87.65 56.65 87.3 56.85 86.2 56.95 85.35 56.5 85.4
M 60.55 82.85
Q 60.8 81.35 60.1 82.1 59.5 82.8 60.55 82.85
M 59.65 83.45
Q 59.6 84.75 60.35 84.3 61.15 83.9 59.65 83.45
M 59.95 84.55
Q 59.3 84.95 59.75 86 60.2 87.05 60.85 86.55 60.4 86.15 60.4 85.55 60.35 84.95 59.95 84.55
M 54.25 86.4
Q 54.2 85.9 54.05 85.7 52.8 86.25 53.7 86.8 54.85 87.5 54.65 86.6 54.3 86.7 54.25 86.4
M 55.6 84.7
Q 55.15 84.75 54.95 84.8 54.6 84.85 54.65 85.3 54.85 85.2 55.35 85.15 55.65 85.1 55.6 84.7
M 51.1 80.6
Q 52.15 82.8 52.75 83.05 53.05 82.3 52.5 81.55 52 80.9 51.1 80.6
M 54.85 83.4
Q 54.5 82.65 54.05 83.05 54.3 83.45 53.95 83.55
L 54.4 84.15
Q 55.15 84.15 54.85 83.4
M 54.85 78.2
Q 55.75 78.4 55.35 77.6 54.95 76.75 54.6 77.1 55.05 78.25 54.85 78.2
M 52.9 79.9
Q 50.35 79.55 52.5 80.15 54.05 80.6 53.2 79.7
L 52.9 79.9
M 53.8 77
Q 53.7 76.35 53.35 76.55 53.45 76.9 53.15 77.7 52.8 78.4 53.1 78.9 53.45 78.7 53.7 78.25 53.8 78.05 54.35 78.1 53.9 77.85 53.8 77
M 54.15 75.15
Q 55.05 75.1 54.95 74.35 54.9 73.5 54.2 73.8 54.5 74.15 54.4 74.55 54.15 75.1 54.15 75.15
M 53.45 75.7
Q 54.25 75.2 53.5 74.75
L 52.55 75.3
Q 52.6 76.2 53.45 75.7
M 54.7 76.6
Q 54.95 76.45 55.6 75.95 56.05 76.7 56.85 76.5 56.1 75.7 55.3 75.75 55.25 75.75 53.95 76.15 54.15 76.9 54.7 76.6
M 56.65 78.8
Q 55.3 78 55.9 79 56.5 80 56.65 78.8
M 60.45 75.95
Q 60.4 74.45 59.85 75.15 59.35 75.9 60.45 75.95
M 58.4 71.3
Q 57.95 71.05 57.6 71.35
L 58.4 71.35 58.4 71.3
M 55.45 69.7
Q 55.1 69.2 54.7 69.4 54.85 69.5 55.3 70.25 55.65 70.85 56.05 70.65 55.95 70.6 55.45 69.7
M 51.5 73.8
Q 51.4755859375 73.6697265625 51.45 73.55
L 50.75 73.55
Q 50.904296875 73.73828125 51.5 73.8
M 54.9 73.55
Q 55.025390625 73.5990234375 55.15 73.65 56.05 73.95 56.25 74.25 56.3744140625 73.710546875 55.95 73.55
L 54.9 73.55
M 52.95 65.25
Q 53.65 66.75 53.85 66.05 54.05 65.25 52.95 65.25
M 52.95 67.75
Q 53.4 67.35 52.5 67.1 52.7 67.4 52 67.85 51.45 68.25 51.85 68.65 52.7 68.1 52.95 67.75
M 54.95 63.2
Q 54.3 64.4 55.2 64 54.9 63.1 55.95 63.15 55.45 62.1 54.95 63.2
M 57.9 66.75
Q 57.3 66.55 56.95 66.7 57.7 67.75 57.8 67.75 58.3 68.25 58.85 68 58.75 67.8 58.5 67.5 58.35 67.2 58.55 67 58.65 67.15 58.8 67.1 58.95 67.1 58.85 66.8 58.5 66.95 57.9 66.75
M 56.65 65.95
Q 56.65 65.8 56.55 65.15 56.35 64.6 55.8 64.8 56.25 65.05 56.25 65.7 56.2 66.15 56.65 65.95
M 58.1 64.15
Q 57.45 63.3 56.7 63.55 57.45 63.7 57.7 64.4 58.25 65.65 58.4 65.75 58.8 65.5 59.5 65.5 59 65.25 58.1 64.15
M 46.95 69.4
Q 46.85 69.05 47.4 68.75 47.05 68.2 46.15 68.25 44.95 68.35 44.8 68.25 45.05 69.05 45.7 69.05 46.75 69.15 46.8 69.15 46.65 69.2 46.65 69.35 46.7 69.5 46.95 69.4
M 48.2 71.1
Q 50.05 70.75 49.6 70.15 49.2 69.5 48.2 71.1
M 43.75 71.2
Q 43.65 71.3 43.55 71.35
L 43.75 71.35
Q 43.8 71.3 43.75 71.2
M 42.3 73.55
Q 42.1890625 73.7318359375 42.35 74 42.45 74 43.25 73.9 43.6115234375 73.7794921875 43.65 73.55
L 42.3 73.55
M 42.3 69.6
Q 42.3 70 42.75 69.8 42.7 69.7 42.6 69.05 42.4 68.45 41.9 68.7 42.35 68.95 42.3 69.6
M 45.2 67.7
Q 45.5 67.7 45.35 67.2 45 66.45 44.55 66.3 44.15 66.2 43.95 66.55 43.35 67.5 45.2 67.7
M 43.4 64.1
Q 43.45 63.55 43.5 63.5 43.6 63.65 43.7 63.6 43.9 63.55 43.8 63.3 43.15 63.15 42.8 63.6 42.3 64 42.95 64.6 43.35 64.4 43.4 64.1
M 50.5 65.35
Q 49.8 66.15 49.85 66.65 50.8 66.25 51.35 65.25 51.85 64.3 51.3 64.25 51.2 64.6 50.5 65.35
M 49 67.45
Q 48.1 67.75 47.95 67.7 48.2 68.05 48.35 68.2 48.65 68.45 48.9 68.35 48.8 68.05 49.1 68 49.65 67.95 49.85 67.75 49.65 67.2 49 67.45
M 49.2 61.4
Q 49.4 60.3 48.65 60.8 47.85 61.3 49.2 61.4
M 46.5 56.6
Q 46.25 56.8 45.75 57.05 45.35 57.35 45.45 57.65 46.25 57.2 46.45 57.45 46.5 57.45 46.95 58.35 47.15 58.15 47.65 58.15 48 58.1 47.85 57.8 47.3 57.8 46.9 57.4 46.35 57 46.5 56.6
M 47.55 58.75
Q 47.3 58.55 47.15 58.65 47.35 59 47.05 59.1 46.95 58.95 46.75 59 46.65 59.05 46.75 59.3 46.95 59.2 47.25 59.3 47.55 59.55 47.75 59.5 47.55 59.15 47.85 59 47.75 58.9 47.55 58.75
M 49.15 56.5
Q 49.8 55.85 48.7 55.85 48.45 57.15 49.15 56.5
M 42.7 59.85
Q 42.05 59.45 41.7 60.55 43.35 60.3 42.7 59.85
M 41.9 61.3
L 41.3 61.15
Q 41.3 61.9 42.1 61.85 43 61.8 42.7 61.2 42.3 61.4 41.9 61.3
M 43.55 56.3
Q 45.55 56.4 44.8 56 44 55.6 43.55 56.3
M 49 50.2
Q 48.65 50.9 49.35 50.65
L 49.6 50.15
Q 49.95 49.55 49.9 49.55 49.35 49.45 49 50.2
M 57.3 60.05
Q 57.65 59.8 57.8 60.15 57.45 60.45 57.9 60.9 58.35 60.65 58.5 60.55 58.8 60.3 58.65 60.05 58.25 60.3 58 60.2 57.85 60.1 57.9 59.7 57.65 59.5 57 59.85 56.45 60.2 57.3 60.05
M 56.7 61.75
Q 57 61.7 57 61.65 57.05 61.6 56.65 61.6 56.35 61.3 56.05 61.5 56.25 61.9 55.45 61.85 55.7 62.25 55.85 62.35 56.1 62.65 56.45 62.55 55.95 62 56.7 61.75
M 57.5 57.95
Q 56.8 57.1 56.05 57.2 56.45 57.8 56.65 58.05 57.05 58.45 57.5 57.95
M 52.5 60.35
Q 52.3 61.5 53.05 61 53.85 60.5 52.5 60.35
M 53.75 55.35
Q 53.95 55.15 54.45 55.1 54.8 55.05 54.7 54.8 53.35 54.3 53.65 55.6 53.8 56.05 54.05 56.15 54.3 56.3 54.5 55.7 54 55.85 53.75 55.35
M 50.65 52.7
Q 51.1 52.8 51.35 52.75 51.25 52.15 50.5 52.15 49.7 52.1 49.95 52.7 50.2 52.6 50.65 52.7
M 55.8 50.45
Q 56.4 50.65 56.15 50 56 50.2 55.25 49.9 54.75 49.8 55 50.3 55.05 50.25 55.8 50.45
M 57.7 52.7
Q 59.3 52.05 58.25 51.85 57.15 51.65 57.7 52.7
M 79.35 73.75
Q 79.212109375 74.3935546875 80.3 74.1
L 80.3 73.85
Q 79.4400390625 73.16484375 79.35 73.75
M 76.15 68.8
Q 77.4 69 76.85 68.3 76.25 67.7 76.15 68.8
M 72.3 74.15
Q 72.3326171875 74.084765625 72.25 73.55
L 71.75 73.55
Q 72.226953125 74.223046875 72.3 74.15
M 75.15 74
Q 74.875 73.775 74.75 73.55
L 74.05 73.55
Q 74.0841796875 73.5744140625 74.1 73.6 74.6 74.35 75.15 74
M 75.5 66.4
Q 75.35 66.55 75.05 65.45 74.75 64.5 74.4 65.45 74.75 65.25 74.85 66.4 75 67.3 75.5 66.4
M 74.6 64.55
Q 74.35 63.55 73.55 64.35 72.7 65.25 73.95 64.9 73.75 64.5 74.6 64.55
M 80.2 66.85
Q 80.08046875 67.596875 80.3 67.7
L 80.3 66.85
Q 80.2517578125 66.8560546875 80.2 66.85
M 78.8 67.45
Q 79.0091796875 67.51015625 79.25 67.45 79.0572265625 67.15 78.8 67
L 78.8 67.45
M 79.1 66.45
L 79.05 66.45 79.05 66.8
Q 79.2 66.6 79.1 66.45
M 75.95 65.75
Q 76.45 65.7 76.6 65.65 76.95 65.6 76.9 65.2 76.7 65.25 76.25 65.3 75.9 65.35 75.95 65.75
M 76.1 63.5
Q 76.2 63.15 76.15 62.9
L 75.1 63.45
Q 75.4 63.8 75.55 63.9 75.8 64.25 76.1 64.1 76 63.85 76.1 63.5
M 79.2 64.8
Q 79.0076171875 64.6625 78.8 64.7
L 78.8 65.25
Q 79.174609375 65.5484375 79.7 65.45 79.25 64.85 79.2 64.8
M 66.15 67.45
Q 64.5 67.85 65.15 68.25 65.75 68.65 66.15 67.45
M 65.85 66.4
Q 64.35 65.25 64.95 66.4 65.55 67.5 65.85 66.4
M 68.45 69.3
Q 68.65 70.95 69.05 70.2 69.45 69.55 68.45 69.3
M 67.35 71.15
Q 67.15 71.25 67 71.35
L 67.8 71.35
Q 68.2 70.7 67.35 71.15
M 69.45 74.2
Q 69.2 73.9 68.95 74.05 69.05 74.25 68.95 74.65 68.9 75.1 68.95 75.3
L 69.9 74.75
Q 69.6 74.35 69.45 74.2
M 62.3 70.8
L 61.85 70.25
Q 62.05 70.15 63.15 70.4 63.95 70.6 63.9 69.9 63.35 69.9 61.45 69.7 61.2 69.3 60.95 69.15 60.65 68.9 60.7 69.3 60.85 69.4 61.4 70.35 61.8 71.05 62.3 70.8
M 64.85 70.6
Q 64.6 70.95 63.85 70.95 63.35 70.9 63.55 71.25 63.75 71.2 64.1 71.35
L 65.1 71.35
Q 65.05 71 64.85 70.6
M 65.3 69.35
Q 64.95 69.4 65.05 69.65 65.4 69.55 65.4 69.8 65.5 70.25 65.65 70.5 66.35 70.35 66.2 69.55 66.1 68.75 65.5 69.05 65.65 69.3 65.3 69.35
M 61.6 64.95
Q 61 65.65 61.8 65.95 61.8 65.8 62.5 64.4 62.9 63.55 61.55 63.75 62.25 64.2 61.6 64.95
M 62.35 67.2
Q 62.8 67.2 63 67.15 63.35 67.1 63.3 66.7 63.1 66.75 62.65 66.75 62.3 66.8 62.35 67.2
M 68.1 67
Q 67.35 66.15 67.3 67.2 68.7 67.95 68.1 67
M 70.3 66.3
Q 70.8 66.75 70.8 67.35 70.85 68.2 70.9 68.35 71.5 68.2 71.3 67.6 71.15 66.95 71.55 66.75 71.65 66.9 71.8 66.85 72 66.8 71.9 66.6 71.55 66.8 71.15 66.2 70.7 65.7 70.3 66.3
M 61.75 57.55
Q 62.05 57.45 62.65 57.45 63.2 57.4 63.45 57.35 63.3 56.8 62.45 56.9 61.5 57.05 61.75 57.55
M 65.4 61.25
Q 65.2 60.9 65.05 60.75 64.55 61.25 65.05 61.7 65.65 62.25 65.5 62.55 66.1 62.3 65.4 61.25
M 66.6 54.25
Q 65.9 54.1 66.15 55.45 67.25 54.35 66.6 54.25
M 66.85 50.35
Q 66.55 49.75 65.85 49.8 65.5 49.8 64.75 49.9 65.05 50.5 65.7 50.4 66.5 50.3 66.85 50.35
M 74.85 60.05
Q 75.25 60.65 76.15 60.5 75.65 59.85 74.85 60.05
M 80.35 57.65
Q 80.324609375 57.731640625 80.3 57.8 79.8859375 59.128125 79.65 59.6 79.2892578125 60.3615234375 78.8 60.75
L 78.8 61
Q 79.2044921875 61.0107421875 79.55 60.55 79.8837890625 60.06796875 80.3 60
L 80.3 59.55
Q 80.2333984375 59.3029296875 80.3 59 80.3193359375 58.9361328125 80.35 58.85 80.6 58.05 80.35 57.65
M 75.85 58.8
L 75.2 58.65
Q 74.85 59.35 76 59.5 77.05 59.6 76.6 58.7 76.25 58.9 75.85 58.8
M 74.75 52.95
Q 74.85 53.5 75.65 53.4 76.55 53.35 76.15 53 75.95 53.1 75.45 52.85 75.1 52.65 74.75 52.95
M 71.8 51.45
Q 72.1 51.3 72.45 51.7 72.8 52.05 73.05 51.95 72.8 51.7 72.8 51.3 72.8 50.9 72.55 50.65
L 71.95 51
Q 71.55 51.3 71.8 51.45
M 74.5 50.4
Q 74.45 50.65 74.5 50.8 74.85 50.5 75.2 50.6
L 75.85 50.8
Q 75.7 50.6 75.8 50.4 75.8 50.15 75.8 50.05 75.4 50.3 75 50.2
L 74.4 50.05
Q 74.5 50.2 74.5 50.4
M 79.05 53
Q 79.2 52.9 79.85 54.25 80.55 55.5 81.3 55.05 80.9 54.75 79.95 53.3 80.4181640625 53.28671875 80.1 52.65 79.75 51.85 79.35 52.15 79.569921875 52.655859375 79.65 52.9 79.270703125 52.55859375 79.05 53
M 79.9 49.6
Q 80.1 50.05 79.8 50.15 79.55 49.7 79.35 49.6 79.1 49.3 78.9 49.4 79 49.5 79.55 50.55 79.944140625 51.20703125 80.3 51.1
L 80.3 50.95
Q 80.0234375 50.726171875 80.3 50.15
L 80.3 49.6
Q 80.16640625 49.564453125 79.9 49.6
M 15 74.2
Q 15.7 75.85 15.85 75.05 16.05 74.2 15 74.2
M 38.05 81.05
Q 37.75 82 38.7 81.95 38.2 81.45 38.75 80.9 39.3 80.3 39.15 79.95 38.3 80.2 38.05 81.05
M 31.9 83.7
Q 32.1 83.8 31.8 84.55 31.6 85 32.15 84.8 32.1 84.75 32.4 84 32.6 83.5 31.9 83.7
M 35.05 80.8
Q 34.5 80.25 33.9 80.65 34.55 81.9 35.5 81.8 35.65 81.35 35.05 80.8
M 30.45 77.1
Q 30.35 78.35 31.1 78.5 31.1 77.2 31.05 76.6 31 75.65 30.2 75.15 30.5 75.55 30.45 77.1
M 36.3 78.25
Q 36.55 78.05 36.3 77.65 35.95 77.1 35.8 76.85
L 35.15 77.25
Q 34.8 77.55 35.05 77.75 35.75 76.95 36.1 78.1 36.15 78.35 36.25 78.7 36.3 78.8 36.3 78.25
M 36.8 79.7
Q 36.5 79.75 35.95 79.8 35.4 79.8 35.15 79.85 35.25 79.95 35.7 80.85 36.05 81.5 36.45 81.2 36.1 80.8 36.8 80.8 37.55 80.9 37.2 80.3 36.85 80.6 36.5 80.45 36.15 80.3 36.5 79.9 36.6 80.05 36.75 80 36.9 79.95 36.8 79.7
M 36.5 75.95
L 35.95 75
Q 35.6 75.15 35.5 75.2 35.25 75.3 35.1 75.1 35.35 74.95 35.15 74.65 35 74.35 34.7 74.5 34.75 74.75 34.8 75.3 34.8 75.85 34.85 76.15 35.15 76.05 35.5 76 35.7 75.95 35.8 75.5 35.95 75.6 36.15 75.9 36.3 76.05 36.5 75.95
M 19.5 75.65
Q 19.65 75.25 19.15 74.35 18.65 73.35 18.05 73.55 18.1 73.85 18.7 74.7 19.3 75.55 19.5 75.65
M 17.3 78.35
Q 17.85 78 18.05 77.85 18.45 77.6 18.35 77.25 18.25 77.35 17.3 77.55 16.75 77.65 17.3 78.35
M 16.95 74.2
Q 16.55 74.15 16.3 74.2 16.45 74.8 17.15 74.8 17.95 74.8 17.65 74.2 17.4 74.3 16.95 74.2
M 17.5 71.3
Q 17.7 71.65 17.4 71.8
L 17.8 72.4
Q 18.85 72.2 18.8 71.4 18.75 70.35 18.2 71.7 18.1 71.6 17.9 71.3 17.7 71.15 17.5 71.3
M 16.4 69.85
Q 16.1 70.45 17.1 70.7 16.7 69.2 16.4 69.85
M 19.8 68.65
Q 19.4 68.5 18.85 68.55 17.55 68.65 17.3 69.65 18.35 68.7 19.3 69 19.6 69.1 19.8 69.15
L 19.8 68.65
M 13.1 65.85
Q 12.55 66 13.1 66.65 13.65 66.35 13.85 66.15 14.25 65.85 14.15 65.55 14.05 65.7 13.1 65.85
M 13.7 67.3
Q 13.1 67.65 13.9 67.9 13.7 67.6 14.6 67.4 15.5 67.2 14.8 66.45 14.65 66.75 13.7 67.3
M 14.3 65
Q 14.55 65.25 14.8 65.15 14.45 64.1 13.6 64.3 12.7 64.45 13.1 65.35 13.5 65.1 13.9 64.45 14.15 64.85 14.3 65
M 15.8 65.4
Q 17.3 64.75 16.25 64.55 15.25 64.3 15.8 65.4
M 19.3 66.65
Q 19.5 66.5 19.8 66.4
L 19.8 65.5
Q 19.65 65.5 19.55 65.6 19.65 65.8 19.45 66.1 19.25 66.45 19.3 66.65
M 17.7 65.5
Q 16.95 65.6 17.1 66.35 17.15 66.65 17.2 66.65 17.3 66.6 17.25 66.2 17.65 65.95 17.9 65.7 18.2 65.4 17.7 65.5
M 9.5 67.2
Q 9.3 66.75 10.1 66.85 10.1 66.7 10 65.95 9.8 65.3 9.3 65.6 10.2 66.5 8.6 66.5 8.85 66.9 9 67.05 9.25 67.35 9.5 67.2
M 8.15 59.8
Q 7.65390625 58.658984375 7.85 58.7 7.00078125 58.5015625 7.4 59.3 7.8 60.15 8.15 59.8
M 9.95 61.25
Q 10.2 61.7 9.35 61.65 9.7 62.15 9.85 62.4 10.2 62.8 10.5 62.7 10.05 62.45 10.4 61.65 10.75 61.15 9.95 61.25
M 6.55 57.35
Q 5.95 58.65 6.95 58.6 8 58.5 6.55 57.35
M 8.45 55.85
Q 7.8 56.25 7.65 57.05 8.1 56.6 8.75 56.45 9.45 56.35 9.75 56.15 9.2 55.4 8.45 55.85
M 3.65 57
Q 3.45 56.8 3.1 56.25 2.85 55.9 2.55 56 2.85 56.5 3 56.7 3.35 57.1 3.65 57
M 3.9 52.05
Q 3.65 51.7 3.75 51.35 3.9 50.8 3.9 50.75 3.2 50.95 2.6 50.95 2.55 51 3.5 51.45 2.7 51.75 3.1 52 3.5 52.3 3.9 52.05
M 8.85 54.15
Q 8.65 55.4 9.4 54.85 10.15 54.25 8.85 54.15
M 9.05 53.15
Q 9.3 53.55 9.55 53.8 9.85 54 9.75 53.55 9.65 52.85 8.9 52.95 6.2 53.45 9.05 53.15
M 6.3 52.85
Q 6.65 53.05 7 52.7 6.6 51.95 5.8 52.2 6.25 52.75 6.3 52.85
M 10 51.2
Q 10.4 50.5 9.4 50.3 8.3 50.1 8.5 50.9 8.75 50.75 9.2 51.15 9.65 51.5 10 51.2
M 16.85 59.5
Q 17.3 60.2 18.05 60.05 17.6 59.35 16.85 59.5
M 18.4 59.85
Q 18.75 59.55 18.95 59.45 19.2 59.15 19.1 58.9 18.7 59.1 18.6 58.8 18.25 59.1 18.2 59.25 18.05 59.55 18.4 59.85
M 18.75 61.75
Q 18.55 61.55 18.5 61.1 18.4 60.75 18.15 60.85 18.3 61.15 17.95 61.45 17.5 61.8 17.6 62.05 17.8 61.95 18.2 62 18.5 62 18.75 61.75
M 17.6 57.3
L 16.95 56.35
Q 16.25 56.9 16.05 57.85 15.95 58.8 17.05 58.5 16.9 57.65 17.05 57.2 17.35 57.5 17.6 57.3
M 18 58
Q 17.65 58.8 18.4 58.5 18.3 58.55 18.65 57.95 18.95 57.3 18.9 57.3 18.35 57.2 18 58
M 12.2 58.55
Q 12 59.75 12.75 59.2 13.5 58.7 12.2 58.55
M 10.2 58.35
Q 10.4 57.95 10.75 57.75 10.55 57.05 9.65 57.1 8.65 57.1 8.9 57.6 9.2 57.3 9.75 57.65 10.35 57.95 9.85 58.3 9.7 58.15 9.55 58.2 9.4 58.25 9.5 58.5 10.05 58.6 10.2 58.35
M 11.9 60.05
Q 12.1 59.95 12.45 60.2 12.75 60.35 12.65 59.95 12.55 59.35 11.75 59.75 10.75 60.3 11.9 60.05
M 14.85 52.5
Q 14 53.6 14.9 53.5 15.8 53.45 14.85 52.5
M 12.5 54.65
Q 12.35 54.05 11.85 54 12.15 53.8 12.25 53.6 12.35 53.4 11.95 53.5 11.5 53.8 11.75 54.5 12.1 55.4 12 55.6 12.65 55.2 12.5 54.65
M 11 55.4
Q 10.25 54.45 11.3 53.85 10.85 53.5 10.5 52.45 10.2 51.6 9.9 51.7 10 52 9.8 52.05 9.7 52.1 9.3 52.1 10.2 52.45 10.45 54.2 10.65 55.65 11 55.4
M 15.25 54.45
Q 15.7 54.25 15.95 54.85
L 16.6 54.45
Q 16.5 54.25 16.5 54 16.5 53.75 16.5 53.6 16.25 53.85 15.25 54.15 14.6 54.35 15.25 54.45
M 17.5 52.1
Q 17.05 52.05 16.85 52.1 16.4 52.9 17.35 52.9 18.3 52.95 18.2 52.1 17.9 52.2 17.5 52.1
M 19.8 50.05
Q 19.45 49.8 18.9 49.9 19.25 50.45 19.8 50.45
L 19.8 50.05
M 18.7 50.95
Q 18.5 50.2 17.95 50.5 17.65 50.6 17.05 51.1 17.3 51.5 17.45 51.65 17.7 51.95 17.95 51.8
L 17.55 51.2
Q 17.95 50.95 18.7 50.95
M 37.2 70.65
Q 36.5 70.6 36.7 71.35
L 37.4 71.35
Q 37.85 70.65 37.2 70.65
M 36.9 74.15
Q 37.7724609375 74.3162109375 37.55 73.55
L 36.75 73.55
Q 36.1380859375 73.9685546875 36.9 74.15
M 35.1 73.8
Q 35.0236328125 73.656640625 34.9 73.55
L 34.05 73.55
Q 34.439453125 73.9166015625 35.1 73.8
M 30.65 67.95
Q 31.1 67.7 31.65 67.75 30.7 66.7 30.3 68.15 29.6 70.85 30.55 68.75 30.25 68.25 30.65 67.95
M 31.05 65.75
Q 31.15 65.7 32.05 65.8 32.7 65.9 32.5 65.3 32.4 65.4 31.5 65.35 30.8 65.35 31.05 65.75
M 33.65 64.15
Q 34.05 63.65 33.2 63.75 33.2 64.5 32.6 63.85 32.15 63.35 32.3 63.8 32.05 64.05 32.35 64.25 32.85 64.45 33 64.7 32.75 64.75 32.85 64.85 32.85 65.05 33.2 64.95 33.05 64.8 33.65 64.15
M 39.5 66.7
Q 39.1 66.3 39.15 66.4 39.2 66.5 40.2 67.7 40.25 67.8 39.55 68.45 39 68.95 39.7 68.75 40.1 68.05 40.65 68.25 41.4 68.65 42 68.25 41.1 68.1 39.5 66.7
M 35.5 65.65
Q 35.65 65.35 36.45 65.35 37 65.4 36.75 64.85 36.55 65.2 35.8 65.15 35.25 65.1 35.5 65.65
M 37.55 67.9
Q 37.15 67.7 36.85 68.05 36.95 68.55 37.75 68.45 38.55 68.35 38.15 68.05 37.95 68.15 37.55 67.9
M 36.55 64.6
Q 36.4 64.45 36.1 64.1 35.85 63.8 35.65 63.95 35.8 64.3 35 64.3 35.6 65.25 36.55 64.6
M 39.35 64.65
Q 39.1 64.3 40.05 63.8 40.25 64.05 40.35 64.15 40.6 64.3 40.85 64.25 40.15 63.4 40.25 62.9 39.35 63.65 39.15 63.8 38.65 64.4 39.35 64.65
M 29.05 72
Q 28.65 72.3 27.9 72.3 28.5 72.7 28.3 73.15 28.05 73.75 28.05 73.9 28.5 73.6 29.2 73.6 28.95 73.2 28.85 73 28.75 72.65 28.95 72.5 29.25 72.25 29.05 72
M 25.6 73.5
Q 26 73.9 26.25 73.8 26.1 73.15 25.45 72.75 24.8 72.4 25 73.25 25.25 73.05 25.6 73.5
M 24.8 68.85
Q 24.35 68.8 24.55 69.2 24.95 69.05 25.5 69.15 25.8 69.2 26.4 69.35
L 25.8 68.4
Q 25.55 68.85 24.8 68.85
M 25.8 67.1
Q 25.5 67.25 25.35 67.45 25.25 67.7 25.7 67.6 26.45 67.25 25.8 66.6 25.15 65.85 25.25 67 25.7 66.8 25.8 67.1
M 26.65 64.35
Q 26.35 64.55 26.15 64.9 25.9 65.3 25.6 65.45 25.4 65.25 25.35 64.8 25.3 64.45 25 64.55 24.6 65.75 25.85 65.6 27.15 65.45 26.65 64.35
M 26.5 62.75
Q 26.25 63.95 27.05 63.4 27.8 62.9 26.5 62.75
M 29.15 64.4
Q 29 64.45 28.9 64.45 28.891796875 64.3517578125 28.85 64.25 28.4 64.25 27.8 64.5 27 64.8 27.3 65.3 27.4 65.25 27.75 65.1 27.95 65 28.1 65.2 27.75 65.45 27.95 65.7 28.8158203125 65.2845703125 28.9 64.75 29.25 64.7 29.15 64.4
M 30.1 61.8
Q 30 61.25 29.3 61.6 29.0140625 61.215625 28.55 61.3 27.85 61.5 27.5 61.6 27.8 61.9 27.7 62.9 27.6 63.75 28.4 63.65 27.85 62.95 28.2 62.25 28.491015625 61.6193359375 29.35 61.75 29.591015625 62.4318359375 30 62.75 30.55 63.15 30.75 62.3 30.25 62.45 30.1 61.8
M 29.3 60.95
Q 29.41015625 61.1859375 29.55 61.3
L 29.55 60.7
Q 29.480078125 60.68203125 29.4 60.65 29.2 60.55 29.3 60.95
M 29.45 57.55
L 29.9 58.1 30.5 57.75 30.1 57.2 29.45 57.55
M 28.6 57.9
Q 28.7728515625 58.0578125 28.9 58.2 29.622265625 59.0025390625 28.9 59.3 27.85 59.45 27.95 59.6 28.05 59.8 28.4 59.9 28.75 60 28.85 60.35 29.050390625 60.0994140625 29.25 59.9 29.3 60.128125 29.3 60.35
L 29.95 60.05
Q 30.018359375 59.401171875 29.55 59.3
L 29.55 58.35
Q 29.392578125 58.202734375 29.2 58 28.5 57.3 28.6 57.9
M 29.55 55.75
Q 29.5197265625 55.875 29.5 56 29.4 56.5 29.2 57.5 29.396484375 57.5 29.55 57.35
L 29.55 55.75
M 23.9 59.55
Q 23.9 60.4 24.6 59 25.25 57.65 23.9 59.55
M 21.65 54.05
Q 21.3775390625 54.17109375 21.05 54.05
L 21.05 54.55
Q 21.6119140625 54.6220703125 21.65 54.05
M 21.05 51.45
Q 21.4591796875 51.27265625 21.5 50.7 21.5 50.0505859375 21.05 50.15
L 21.05 51.45
M 21.55 51.95
Q 21.4287109375 52.253125 21.05 52.5
L 21.05 53.85
Q 21.3384765625 53.749609375 21.4 53.35 21.55 52.45 21.8 52.25 21.9 52.35 22.1 52.6 22.25 52.75 22.45 52.65 22.25 52.25 21.55 51.95
M 23.8 50.35
Q 23.75 49.6 23.35 49.95 23.45 50.15 23.25 50.55 23 50.95 23.35 51.25 23.9 51.15 23.8 50.35
M 25.65 54.1
Q 26.1 54.5 25.85 55.05 25.6 55.65 26.05 56.05 26.9 55.9 26.6 54.9 26.4 53.95 25.65 54.1
M 27.65 54.55
Q 27 54.75 27.3 55.25 27.65 54.95 28.05 55.35 28.55 55.75 28.85 55.55 28.55 55.15 28.55 54.45 28 54.5 27.65 54.55
M 30.9 56.3
Q 31.7 56.1 31.1 55.4 30.7 56.1 30.2 56 29.7 55.9 30.55 55.35 30 54.55 29.8 55.35 29.65 55.9 29.7 56.6
L 30.9 56.3
M 39.55 57
Q 39.7 57.3 40.35 57.65 40.9 57.95 41.1 58.5 40.95 58.6 40.45 58.85 40.2 59.1 40.35 59.3 40.8 59.05 41.55 59.05 41.35 58.8 40.9 57.55 40.35 56.5 39.55 57
M 38.9 56.4
Q 37.85 58.2 39.1 56.45 39.9 54.6 38.9 56.4
M 35.15 58.9
Q 34.6 58.8 34.8 59.3 34.95 59.2 35.65 59.45 36.2 59.65 36 59 35.85 59.2 35.15 58.9
M 31.85 60.15
Q 32.15 60.6 32.35 60.8 32.65 61.2 33 61.1 32.85 60.8 33 60.45 33.1 60.05 33.05 59.85 32.6 60.15 31.85 60.15
M 32.05 58.25
Q 31.85 58.25 31.95 58.5 32.15 58.4 32.5 58.4 32.85 58.4 33.15 58.25 32.95 58.05 32.85 57.6 32.85 57.3 32.5 57.35 32.7 57.75 32.3 58.3 32.15 58.15 32.05 58.25
M 33.05 53.15
Q 33.5 52.55 34.55 52.85 35.4 53.05 35.35 52.65 35.3 52.65 33.9 52.5 33 52.35 33.05 53.15
M 32.4 53.5
Q 31.1 53.75 32.05 55.05 33.2 56.45 33.35 55.35 32.55 55.4 32.5 54.65 32.4 54.25 32.4 53.5
M 35.3 51.85
Q 34.7 51.1 34.1 50.95 34.4 50.7 34.35 50.05 33.85 50.25 33.8 50.8 33.8 51.45 33.7 51.6 34 51.35 34.45 51.7 35 52.05 35.3 51.85
M 37.25 53.9
Q 37.55 53.7 37.95 53.7 38.45 53.7 38.7 53.5 38.65 52.8 37.6 53.35 36.3 54.1 37.25 53.9
M 35.85 55.15
Q 36.7 53.9 35.65 54.45 34.6 55.05 35.85 55.15
M 36.65 50.7
Q 37.95 50.8 37.55 50.05 37.15 49.4 36.65 50.7
M 39.4 50.75
Q 39.7 50.5 39.7 50.25 39.7 49.9 39.35 50 39.6 50.35 39.25 50.7 38.8 51.15 39 51.4 39.35 51.1 39.8 51.45 40.25 51.85 40.55 51.7 40.35 51.4 40 51.2 39.55 51 39.4 50.75
M 31.15 49.15
Q 32.3 49.3 32.25 48.45 31.75 48.9 31.25 48.6 30.6 48.25 30.35 48.35 29.95 49.05 31.15 49.15
M 33.35 42.6
Q 32.5 42.95 33 43.3 33.35 43.1 33.5 43.4
L 34.15 43
Q 34.1 42.35 33.35 42.6
M 33.25 41.15
Q 31.35 41.5 32.1 41.95 32.85 42.3 33.25 41.15
M 30.55 38.3
Q 31.4 38.15 31.55 37.5 31.7 36.75 30.9 36.95 31.25 37.2 30.8 37.6 30.4 38.05 30.55 38.3
M 36.75 38.5
Q 37.4 39.4 37.6 39.1 37.5 38.8 37.6 38.15 37.6 37.9 37.15 38.55 36.15 37.6 36.75 38.5
M 23.55 42.8
Q 22.8 43.25 23 44.05 23.7 43.6 23.55 42.8
M 29.55 49
Q 29.1970703125 49.2421875 29 49.4
L 28.95 49.4
Q 28.927734375 49.4361328125 28.9 49.45
L 28.9 49.45
Q 28.6140625 49.7423828125 28.7 50 28.78984375 49.9326171875 28.9 49.9
L 28.9 50.2
Q 29.25 50.85 29.15 51 29.8 50.85 29.55 50.25
L 29.5 50.2 29.55 50.2 29.55 49.85
Q 29.5 49.675 29.55 49.5
L 29.55 49
M 28.6 46.25
Q 28.55 46.15 28.55 45.75 27.95 45.9 28.05 46.45 28.25 47.15 28.2 47.25
L 28.85 46.85
Q 29.2 46.6 28.95 46.35 28.65 46.45 28.6 46.25
M 21.75 44.85
Q 22.24609375 45.991015625 22.05 45.95 22.8994140625 46.1486328125 22.55 45.35 22.1 44.5 21.75 44.85
M 24.1 46.4
Q 23.85 46 23.2 45.7 22.85 45.85 22.65 46.2 22.45 46.65 22.15 46.75 22.35 47.3 22.8 47.35 23.4 47.35 23.6 47.6 22.95 47.7 23.35 48.55 23.9 49.55 23.7 48.4 23.8 47.55 23.65 47.25 23.45 46.8 22.65 46.85 22.8 46.75 22.95 46.4 23.1 46.1 23.4 46 23.5 46.1 23.7 46.35 23.9 46.5 24.1 46.4
M 23.45 40.7
Q 23.55 41 23.6 41.55 23.6 42.05 23.65 42.3 24.3 42.2 24.05 41.3 23.75 40.3 23.45 40.7
M 21.8 40.9
Q 22.25 41.45 22.35 41.55 22.7 41.75 23 41.4
L 22.65 40.8
Q 22.45 40.9 22.25 40.9 21.9 40.85 21.8 40.9
M 24.35 38.55
Q 25.15 38.05 23.8 37.85 23.6 39.1 24.35 38.55
M 25.5 41.45
Q 25.6 41.4 25.5 41.1 25 40.8 24.6 41.4 24.2 42 25.1 41.85 24.9 41.45 25.2 41.35 25.3 41.5 25.5 41.45
M 28.9 38.45
Q 29 38.4 29.2 38.3 29 38.25 28.9 38.25
L 28.9 38.45
M 26.4 43.15
Q 25.3 42.35 25.35 43.25 25.45 44.1 26.4 43.15
M 23.35 31.15
Q 25.2 30.2 24.35 29.9 23.5 29.6 23.35 31.15
M 29.3 34.7
Q 29.15 34.5 28.9 34.35
L 28.9 34.9
Q 29.1 34.85 29.3 34.7
M 25.95 31.85
Q 25.4 32.55 26.55 32.65 26.5 31.15 25.95 31.85
M 28.9 32.8
Q 29.3 33 29.75 32.9 29.45 32.45 28.9 32.35
L 28.9 32.8
M 24.25 34.55
Q 24.45 34.8 24.05 35.3 23.65 35.7 23.9 36.05 24.45 35.8 24.75 35.1 25.05 34.35 24.25 34.55
M 23.4 29.85
Q 24.1 29.45 23.9 28.65 23.25 29.05 23.4 29.85
M 21.55 28.3
L 21.45 28.9
Q 21.2 29.15 21.1 29.25 21.071875 29.278125 21.05 29.3
L 21.05 29.6
Q 21.904296875 29.2859375 22.05 28.8 22.2 28.4 22 27.7 21.55 27.85 21.55 28.3
M 34.2 29.15
Q 34.65 29.8 35.5 29.6 35.05 29 34.2 29.15
M 35.9 36.9
Q 35.75 37.15 34.95 37.1 34.35 37.1 34.6 37.6
L 35.55 37.55
Q 36.2 37.3 35.9 36.9
M 39.85 35.5
Q 40.25 35.3 40.35 35.55
L 41.05 35.2
Q 41 34.55 40.2 34.8 39.45 35.05 39.85 35.5
M 30.4 35.4
Q 30.65 34.45 30.75 34.25 30.55 34.4 30.2 34.2 29.9 34 29.7 34.05 30.1 34.55 29.9 35.1 29.65 36.05 29.65 36.45 30.2 36.05 30.4 35.4
M 32.85 27.95
Q 33.35 27.65 33.6 27.1 34.4 27.75 33.75 26.85
L 33.05 26.85
Q 33.15 27.05 33.1 27.25 32.8 27.8 32.85 27.95
M 36 27.6
Q 36.3 27.65 36.55 27.4 36.3 27.1 36.15 26.85
L 35.65 26.85
Q 35.7 27.15 35.75 27.5 35.65 27.35 35.45 27.4 35.3 27.45 35.4 27.65 35.6 27.6 36 27.6
M 10 45.1
Q 10.4 45.85 11.2 45.65 10.8 44.95 10 45.1
M 15.9 44
Q 16.95 42.75 16.3 42.65 15.65 42.5 15.9 44
M 18.65 48.8
Q 18.7 48.3 18.4 48.1 18.05 47.85 18.1 47.35 17.3 47.4 17.75 48.3 18.2 49.15 18.65 48.8
M 17.55 48.8
Q 17.2 47.9 16.55 48.35 17.3 49.15 17.25 50.1 17.95 49.7 17.55 48.8
M 19.8 45.95
Q 19.7984375 46.0015625 19.75 46.05 19.55 46.4 19.8 46.5
L 19.8 45.95
M 19.8 45.1
L 19.8 45
Q 19.75 45 19.7 45.05 19.75 45.1 19.8 45.1
M 19.15 44.2
Q 19.15 44 19.2 43.8
L 19.1 44.15
Q 18.85 44.9 18.6 45.1 18.4 45.2 17.5 45.1 17.85 45.65 18.5 45.6 19.4 45.5 19.6 45.55 19.1 45.2 19.15 44.2
M 13.1 49.05
Q 12.65 48.1 12.2 48.5 12.8 49.3 12.7 49.95 13.55 49.9 13.1 49.05
M 11.1 47.45
Q 10.2 48.2 10.55 49.2 10.65 49.55 11.25 50.4 11.3 49.9 11.35 50.15 11.5 50.85 11.65 51.05 12.35 50.5 11.95 49.65 11.5 48.75 10.75 49 11.3 48.3 11.1 47.45
M 12.55 47
Q 12.55 47.1 12.65 47.65 12.75 48.1 13.05 48.4 13.9 48.4 13.4 47.5 12.95 46.6 12.55 47
M 13.1 45.1
Q 13.4 45.5 13.7 45.4 13.55 45.15 13.2 44.65 12.9 44.25 12.55 44.35 12.9 44.9 13.1 45.1
M 14.45 43.45
Q 13.35 43.2 13.9 44.35 15.5 43.65 14.45 43.45
M 13.2 46.3
Q 14.15 46.25 13.6 45.9 12.8 46.5 12.55 45.95 12.2 45.2 11.85 45.25 12 45.55 11.6 46 11.2 46.45 11.55 46.8 11.85 46.4 13.2 46.3
M 13.45 42.95
Q 14 42.2 14.6 42.45 15.25 42.85 15.6 42.9 15.5 41.6 14.1 41.9 12.6 42.25 13.45 42.95
M 10.55 39.4
Q 9.75 39.9 11.1 40.1 11.3 38.85 10.55 39.4
M 14.3 40.2
Q 14.05 39.55 12.75 40.1 11.45 40.65 12.2 41.1 12.5 40.95 13.25 40.8 13.85 40.65 14.3 40.2
M 14.95 39.1
Q 13.55 39.45 14.9 39.8 14.7 39.45 15.05 39.3 15.6 40.35 16.6 39.65 16.3 38.8 14.95 39.1
M 14.8 34.25
Q 15.55 33.85 15.3 33.05 14.6 33.45 14.8 34.25
M 15.25 37
Q 14.95 36.6 14.75 36.9 14.9 37.1 14.7 37.4 14.45 37.7 14.55 37.9 14.95 37.6 15.65 37.6
L 15.25 37
M 16.25 32.45
Q 16.95 32.55 17.4 32.3 17.9 32.1 17.7 31.95 17.55 31.85 16.25 32.05 15.05 32.25 16.25 32.45
M 19.5 36.05
Q 19.75 36.3 19.8 36.55
L 19.8 36.05
Q 19.65 36.1 19.5 36.05
M 14.1 36.25
Q 14.15 35.35 13.8 36.15 13.8 37.5 12.55 36.95 13 37.65 13.8 37.45 14.1 37.2 14.1 36.25
M 11.1 31.4
Q 11.4 32.15 11.8 31.75 11.6 31.4 11.95 31.3
L 11.55 30.65
Q 10.75 30.65 11.1 31.4
M 11.6 33.5
Q 11.25 34.05 11.9 33.9 11.65 33.55 12 33.4 12.3 33.75 12.55 33.5 12.35 33.3 12.25 32.8 12.2 32.5 11.9 32.6 12.05 32.75 11.6 33.5
M 11.1 30.05
Q 11.3 28.8 10.55 29.35 9.8 29.9 11.1 30.05
M 15.8 28.35
Q 16.6 27.05 15.6 27.7 14.6 28.3 15.8 28.35
M 18.65 29.65
L 18.85 29.05 17.6 29.8 18.05 30.45
Q 18.2 30.35 18.45 30.35 18.75 30.35 18.85 30.35 18.55 30 18.65 29.65
M 19.35 28.55
Q 18.65 29.1 19.8 29.2
L 19.8 28.4
Q 19.65 28.35 19.35 28.55
M 18.3 25.45
Q 17.8 26.15 17.75 26.7 18.15 26.5 18.5 25.85 18.9 25.2 18.3 25.45
M 18.65 21.35
Q 17.6 22.5 18.55 22.7 19.55 22.9 18.65 21.35
M 19.6 22.05
Q 19.7 22.15 19.8 22.2
L 19.8 22
Q 19.7 22 19.6 22.05
M 16.7 22.75
Q 16.6 21.9 15.65 22.8 16.75 23.6 16.7 22.75
M 16.6 19.7
Q 16.75 18.9 15.7 18.85 16.4 20.5 16.6 19.7
M 19.55 19.6
Q 18.4 19.55 18.7 20 19.05 19.7 19.5 20.1 19.65 20.25 19.8 20.3
L 19.8 19.6
Q 19.7 19.6 19.55 19.6
M 12.4 24.3
Q 12.15 23.45 11.7 23.55 11.3 24.25 12.35 25.05 13.4 25.8 13.35 24.7 12.6 25.1 12.4 24.3
M 12.8 19.85
Q 12.6 21.3 13.25 20.6 13.9 19.85 12.8 19.85
M 13.65 18.4
Q 13.55 18.25 13.35 18.3 13.25 18.35 13.35 18.6 13.55 18.45 13.85 18.7 14.2 18.9 14.35 18.85 14.15 18.45 14.45 18.35 14.35 18.25 14.15 17.95 13.95 17.8 13.75 17.95 13.95 18.3 13.65 18.4
M 13.55 17.6
Q 13.9 17.45 14.1 17.05 14.35 16.65 14.6 16.5 14.15 15.65 13.9 16.4 13.65 17.4 13.55 17.6
M 10.8 15.45
Q 11.2 14.8 10.4 14.65 9.55 14.5 9.75 15.25 9.95 15.1 10.3 15.3 10.6 15.5 10.8 15.45
M 14.85 13.2
Q 13.9 13.65 14.35 14.05 15.2 13.45 15.8 13.6 15.75 12.75 14.85 13.2
M 19.4 18.2
Q 19.45 17.9 19.4 17.8 18.65 17.4 18.75 18.1 18.9 18.85 19.55 18.6 19.4 18.45 19.4 18.2
M 19.55 15.95
Q 19.7 16 19.8 16.05
L 19.8 15.85
Q 19.7 15.9 19.55 15.95
M 17.1 14.9
Q 16.95 14.75 16.7 14.35 16.4 14.1 16.15 14.2 16.6 14.75 16.4 15.15 16.25 15.5 15.65 15.4
L 16.05 16
Q 16.35 16.35 16.55 16.15 16.4 15.35 17.1 14.9
M 7.8 24.3
Q 8.6 23 7.6 23.6 6.6 24.25 7.8 24.3
M 17.15 12.3
Q 16.75 11.4 16.25 12 15.75 12.6 15.9 13.05 16.25 12.85 16.5 12.4 16.6 12.2 17.15 12.3
M 18.65 11.15
Q 18.3 11.2 18.4 11.45 18.6 11.35 19.05 11.6 19.4 11.85 19.75 11.5 19.55 11.35 19.3 10.95 19.05 10.65 18.8 10.8 18.95 11.1 18.65 11.15
M 31 17.15
Q 29.75 17 30.3 17.75 30.85 18.5 31 17.15
M 39.7 22.95
Q 39.75 23.35 39.1 23.55 38.3 23.7 38.3 24.25 39.15 23.85 39.35 24.45 39.9 24.25 40.2 23.5 40.5 22.8 39.7 22.95
M 36.8 23.95
Q 36.6 23.7 36.45 23.6 36.3 23.4 36.05 23.5 36.7 24.75 37.5 24.35 37.5 24 38.2 23.2 38.85 22.45 38.55 21.9 37.7 22.95 36.8 23.95
M 36.5 20.85
Q 36.85 20.8 36.75 20.5 36.4 20.85 36.05 20.1 35.65 19.25 35.3 19.7 35.55 19.95 35.55 20.4 35.6 20.85 35.8 21.1 36 20.9 36.5 20.85
M 39.9 20.75
Q 39.4 19.7 39.6 20.85 39.65 21.05 39.6 21.8 39.65 22.35 39.7 21.65 40.35 21.5 39.9 20.75
M 30.9 19.45
Q 31.05 19.85 31.45 19.9 31.55 19.05 31.45 18.75 31.25 18.1 30.45 18.4 30.5 18.4 30.9 19.45
M 34.5 19.05
Q 35.15 20.05 35.2 18.85 33.85 18 34.5 19.05
M 33.65 19.85
Q 32.35 19.8 32.75 20.55 33.2 21.35 33.65 19.85
M 32.8 12.55
Q 33.4 12.35 34.15 12.4 34.6 12.45 35.5 12.55 34.85 11.7 34.05 11.85 33.35 11.9 32.8 12.55
M 33.55 15.65
Q 32.25 15.5 32.05 16.05 32.6 16.15 33.6 16.05 34.55 16.05 35.45 16.5 34.85 15.85 33.55 15.65
M 36.65 15.2
Q 36.95 15.1 36.9 14.7 36.45 14.8 36.25 14.8 35.9 14.9 35.95 15.35 36.15 15.25 36.65 15.2
M 39.85 16.7
Q 39.85 16.1 39.25 16.3 39.2 16.65 39.45 17.3 39.75 18.05 40.25 17.8 39.85 17.55 39.85 16.7
M 29.2 21.8
Q 28.65 22.15 28.05 22.1 28.2 22.35 28.55 22.85 28.85 23.25 29.15 23.15 28.85 22.8 28.95 22.45 29.2 21.85 29.2 21.8
M 26.15 24.1
Q 25.75 23.85 25.45 24.2 25.55 24.8 26.3 24.85 27.05 24.85 26.75 24.25 26.55 24.35 26.15 24.1
M 27.6 23
Q 27.75 22.25 26.9 22.4 27.15 23.1 26.3 22.6 25.5 22.1 25.75 22.7 26.25 22.85 26.3 23.1 26.35 23.6 26.6 23.95 27.45 23.8 27.6 23
M 23.15 18.7
Q 23.75 19.65 23.8 19.25 23.9 18.5 24.5 18.75 24.05 17.9 23.15 18.7
M 24.95 20.15
Q 25.15 20.5 24.65 21 24.15 21.5 24.35 21.85 25.05 21.6 25.4 20.85 25.8 20.05 24.95 20.15
M 23.3 20.3
Q 22.6 19.4 21.9 19.5 22 19.75 21.9 20.15 21.8 20.55 21.85 20.8 22.8 20.2 23.3 20.3
M 24.55 13.45
Q 23.65 13.8 24.25 14.3 24.9 14.8 25.35 14.7 25.15 14.35 24.7 14.1 24.5 13.95 24.55 13.45
M 21.45 14.1
Q 21.2 14.6 21.55 14.95 21.85 15.35 22.05 15 22 14.55 21.9 14.2 21.7 13.55 21.45 14.1
M 29.1 14.9
Q 28.95 14.15 28.95 14.1 27.9 14.65 28.65 15.65 29.2 15.45 29.1 14.9
M 26.95 11.05
Q 26.65 11.2 26.3 10.8 25.95 10.45 25.7 10.55 26 10.85 25.9 11.2 25.7 11.8 25.7 11.85 25.85 11.55 26.6 11.6 27.15 11.6 26.95 11.05
M 21.7 12.15
Q 21.65 11.9 21.6 11.9 21.5 11.9 21.55 12.3 21.2607421875 12.480859375 21.05 12.65
L 21.05 13
Q 21.0955078125 13.0109375 21.15 13 21.85 12.9 21.7 12.15
M 23.1 5.25
Q 22.6 5.4 22.85 6 23.25 6.9 23 5.7 23.05 5.35 23.6 5.15 24.05 5 23.8 4.3 23.65 4.6 22.9 4.55 22.35 4.55 22.55 5.1 23 4.9 23.1 5.25
M 29.1 3.15
Q 29.15 2.4 28.5 2.65 28.6 2.9 28.5 3.35 28.4 3.75 28.5 3.95 29.1 3.85 29.1 3.15
M 32.35 9.8
Q 32.4 10.1 32.45 10.6 32.45 11.15 32.5 11.4 33.15 11.3 32.9 10.35 32.6 9.4 32.35 9.8
M 33.7 7.15
Q 34.15 7.9 34.95 7.7 34.5 7.15 34.4 7.05 34.05 6.8 33.7 7.15
M 33.15 8.4
Q 33.65 8.15 33.8 9.2 34 10.25 34.7 10 34.35 9 33.9 8.4 33.4 7.6 33.15 8.4
M 65.35 37.3
Q 65.2 35.85 64.6 36.45 63.9 37.05 65.35 37.3
M 79.45 48.7
Q 79.25 49.25 79.25 49.3 79.35 49.25 79.45 49.15
L 79.45 48.7
M 79.25 48.05
Q 79.4 48.2 79.45 48.4
L 79.45 48.05
Q 79.35 48.05 79.25 48.05
M 78.85 47.95
Q 78.8236328125 47.88984375 78.8 47.8
L 78.8 48.6
Q 79.0521484375 48.3880859375 78.85 47.95
M 77.15 48.9
Q 77.3 49.35 78.15 49.45 79 49.65 78.75 49.15 78.35 49.35 78.25 49.05 78.1 48.9 78.25 48.6 78.5 48.3 78.45 48.1 77.9 48.1 77.6 48.25 77.3 48.4 77.15 48.9
M 79.95 45.7
Q 80.1044921875 45.923046875 80.3 46.05
L 80.3 45.65
Q 80.134375 45.65390625 79.95 45.7
M 80.95 46.05
Q 81.05 45.45 80.35 45.65 80.8 45.85 80.45 46.6 80.1 47.2 80.9 47.05 80.8 46.95 80.95 46.05
M 79.25 44.55
Q 79.15 44.6 79.05 44.6
L 79.05 45.95
Q 79.1 45.95 79.2 45.9 79.1 45.65 79.2 45.2 79.35 44.8 79.25 44.55
M 72.3 48.4
Q 71.45 48.5 71.8 47.5 72.2 46.45 71.35 46.55 71.05 47.05 71.4 48.3 71.75 49.45 72.3 48.4
M 70.95 39.65
Q 71.3 39.9 71.25 40.3 72 40 71.45 39.45 71 39 70.7 39 70.65 39.5 70.95 39.65
M 72.8 41.85
Q 72.8 41.8 73.25 40.65 73.55 39.85 72.7 39.9 72.8 40 72.5 41.35 72.35 42.35 72.8 41.85
M 77.8 40.55
Q 78.25 41.2 79.05 41.05 78.6 40.4 77.8 40.55
M 76.7 42.95
Q 77.15 43.3 77.4 43.15 77.3 42.5 76.5 42.35 75.65 42.2 75.9 42.9 76.25 42.6 76.7 42.95
M 80.65 38.8
Q 80.45 39.25 80.9 39.65 81.5 39.5 81.25 38.6 80.95 37.65 80.7 38 80.85 38.3 80.65 38.8
M 79.05 39.6
Q 78.9 39.7599609375 78.75 40 78.85 40.05 79.45 40.6
L 79.45 40.3
Q 79.47421875 40.312890625 79.5 40.3 79.55 39.55 79.55 39.25 79.4568359375 38.8310546875 78.8 39
L 78.8 39.1
Q 79.029296875 39.297265625 79.05 39.6
M 79.1 38.65
Q 78.9 38.3 79.2 38.2 79.3 38.4 79.45 38.5
L 79.45 38
Q 79.15 37.8 78.7 38.15 77.95 38.8 79.1 38.65
M 70.3 49.15
Q 70.4 49 70.15 49.25 69.8 49.65 69.15 50.5 68.7 51.25 68.95 51.85 69.35 51.65 70.15 51.65 69.3 51.1 69.95 49.85 70.05 49.55 70.3 49.15
M 67.9 48.75
Q 67.1 48.9 67.7 49 68 48.9 68.5 49.25 68.95 49.55 69.3 49.35 68.85 49.05 69.1 48.4 69.3 47.9 68.8 48 69.1 48.5 67.9 48.75
M 68.65 44.5
Q 69.4 44.2 68.65 44.15 68.3 44.8 67.7 44.25 67.15 43.65 67.7 43.45 67.9 43.85 68.25 43.6 68.2 42.9 67.25 43.3 66.35 43.65 66.75 44.05 67.1 43.9 67.25 44.25 67.4 44.55 67.35 44.9 68.45 44.55 68.65 44.5
M 69.3 46.3
Q 69 45.6 68.55 45.8 68.4 46.15 68.7 46.75 69 47.4 69.55 47.2 69.6 46.9 69.3 46.3
M 61.8 48.4
Q 61.55 48.2 62.05 47.4 62.45 46.85 61.6 46.95 61.8 47.3 60.85 47.75 61.15 48.1 61.25 48.25 61.5 48.5 61.8 48.4
M 66.25 39.05
Q 66.9 39.85 66.55 40.2 66.4 39.65 65.85 39.75 65.05 39.9 65 39.9 66.2 40.25 66.1 41 65.95 41.6 66.8 41.65 66.75 40.8 67 38.95 66.95 37.6 65.25 37.8 65.3 38 66.25 39.05
M 70 40.2
Q 70.05 39.95 70 39.85 69.35 40.2 69.3 40.3 69.05 40.6 69.45 41
L 70.1 40.55
Q 70 40.45 70 40.2
M 68.8 40
Q 69.25 39.85 69 39.2 68 39.25 67.85 39.35 67.8 39.45 67.6 40.4 68.5 40.15 68.8 40
M 67 31.6
Q 67.25 31.8 67.55 31.7 67.45 31.5 67.55 31.1 67.6 30.75 67.55 30.55
L 66.6 31.05
Q 66.9 31.45 67 31.6
M 67.8 33.1
L 67.6 33.65
Q 68.45 34.05 68.5 33.15 68.5 32.3 67.6 32.5 67.9 32.8 67.8 33.1
M 65.2 32.25
Q 65.65 32.45 65.65 33.1 65.6 33.6 66.05 33.35 65.75 33.1 66.25 32.6 66.7 32.1 66.2 31.7
L 65.2 32.25
M 61.35 35.6
Q 61.55 37.2 61.95 36.55 62.35 35.85 61.35 35.6
M 62.45 27.9
Q 62.9 27.8 63.1 27.75 63.45 27.7 63.35 27.35 63.15 27.45 62.7 27.45 62.35 27.5 62.45 27.9
M 68.3 30.9
Q 69.85 30.25 68.8 30.1 67.7 29.85 68.3 30.9
M 67.05 28.05
Q 68.6 28.25 67.85 27.6 67.2 26.85 67.05 28.05
M 69.7 28.55
Q 70 28.45 70.4 28.55 70.85 28.65 71.1 28.55 70.9 28.35 70.6 27.85 70.25 27.5 69.95 27.6 70.1 27.75 69.85 28.1 69.65 28.35 69.7 28.55
M 68.25 28.95
Q 68.35 29.15 68.3 29.3 68.3 29.6 68.3 29.7 68.75 29.55 68.75 29.2
L 68.85 28.65
Q 69.15 28.95 69.4 28.7 69 28 67.9 28.15 66.95 28.3 67.35 29.05 67.65 28.95 67.8 28.9 68.1 28.8 68.25 28.95
M 65.95 27.1
Q 66.3 27 66.4 26.85
L 64.95 26.85
Q 64.95 27 65.05 27.15 65.65 27.15 65.95 27.1
M 79.35 31.7
Q 79.164453125 31.816796875 78.8 31.85
L 78.8 32.15
Q 79.1416015625 32.0943359375 79.6 32.4 79.45 32.5 79.5 32.65 79.55 32.8 79.8 32.7 79.7 32.55 79.75 32.15 79.8 31.8 79.55 31.55 79.5078125 31.602734375 79.45 31.65
L 79.45 31.35
Q 79.35 31.4 79.2 31.5 79.3130859375 31.5677734375 79.35 31.7
M 72.25 31.85
Q 72.9 33.35 73.1 32.6 73.25 31.9 72.25 31.85
M 74.85 30.6
Q 74.55 30.2 74.25 30.3 74.6 30.75 74.75 31 75.1 31.35 75.4 31.25 75.2 31.05 74.85 30.6
M 72.7 28.85
Q 72.9 29.6 73.05 29.85 73.3 30.25 74.05 30.05 73.7 29.8 73.5 29.05 73.4 28.65 72.7 28.85
M 71.6 29.85
Q 72.2 27.7 71.6 29.05 71 30.35 71.6 29.85
M 71.4 27.15
Q 71.9 27 72.1 26.85
L 71.25 26.85
Q 71.3 27 71.4 27.15
M 73.95 26.85
Q 74.35 27.25 75 27.1 74.9 26.95 74.8 26.85
L 73.95 26.85
M 80.05 30.35
Q 80.175 30.525 80.3 30.55
L 80.3 29.65
Q 80.0076171875 29.75 79.65 29.75
L 80.05 30.35
M 77.3 29
Q 77.2 28.95 76.7 28.1 76.4 27.5 76 27.75 76.55 28.55 76.6 28.95 76.6 29.55 75.7 29.9 75.85 29.45 75.45 29.15 75.15 28.95 74.6 28.95 75.05 29.2 75.3 30.1 75.5 30.75 75.85 30.6 75.8 30.25 76.45 29.75 77.2 29.15 77.3 29
M 78.2 30.1
Q 77.75 30.6 77.25 30.45 76.6 30.2 76.5 30.25 77 30.7 76.35 31.3 75.65 31.9 76.25 32.4 76.6 32.25 77.1 31.25 77.5 30.55 78.25 30.85 78.15 31.5 78.1 31.55 78 31.55 77.3 31.35 77.2 31.8 77.45 31.95 77.95 32.15 78.15 32.5 78.9 32.1 78.7 31.4 78.55 30.95 78.2 30.1
M 79.2 25.05
Q 79.8 26.2 80.65 25.85 79.95 24.95 79.2 25.05
M 79.45 26.8
Q 79.762109375 27.282421875 80.3 27.45
L 80.3 26.95
Q 79.6017578125 26.762109375 79.45 26.8
M 56.6 49.4
Q 56.95 49.2 57.55 49.4 58.1 49.6 58.5 49.45 58.1 49.05 57.35 48.9 56.45 48.8 56.6 49.4
M 56.45 45.5
Q 57.55 44.95 56.75 44.1 55.65 44.65 56.45 45.5
M 59 44.05
L 59.4 44.6
Q 59.65 44.45 59.5 44.2 59.3 43.95 59 44.05
M 59.8 44.7
Q 59.55 44.75 59.4 44.6 58.75 44.65 58.6 45.2 58.5 45.8 59.2 45.5 59.4 44.8 59.75 45.4 60.25 46.2 60.8 45.8 60.2 45.1 60.3 44.55 60.1 44.55 59.8 44.7
M 54.65 46.1
Q 55.5 44.95 54.45 45.45 53.4 46.05 54.65 46.1
M 51 48.55
Q 51.8 48.55 51.9 48.3 51.9 48.05 51.5 47.85 51.05 47.55 50.85 47.75 50.6 47.9 51 48.55
M 52.25 49.25
Q 52.5 48.8 51.7 48.95 51.9 49.05 51.65 49.7 51.45 50.15 52 49.95 51.95 49.9 52.25 49.25
M 55.6 43.05
Q 55.2 42.25 55.6 42 55.35 42.1 55 41.8 54.65 41.45 54.4 41.5 54.65 41.95 54.8 42.8 54.95 43.55 55.4 44.1 56.05 43.9 55.6 43.05
M 53.5 41.6
Q 53.35 41.3 53.95 40.85 54.6 40.4 54.2 40 53.4 40.75 53.2 41 52.65 41.65 53.5 41.6
M 52.8 38.5
Q 52.3 38.4 52.1 38.5 51.85 39.05 52.6 39 53.35 38.95 53.45 38.5 53.2 38.55 52.8 38.5
M 51.35 39.25
Q 51.05 39 50.8 39.15 50.95 39.35 50.75 39.6 50.55 39.95 50.6 40.1 51 39.85 51.75 39.85
L 51.35 39.25
M 56.75 40.7
Q 56.65 40.75 56.75 41 57.25 41.3 57.65 40.75 58.05 40.2 57.15 40.35 57.35 40.7 57.05 40.8 56.95 40.7 56.75 40.7
M 48.9 46.95
Q 49.35 46.75 49.6 46.5 49.8 46.3 49.35 46.35 48.7 46.9 48.65 46.95 48.6 46.95 47.75 47.25 47.85 47.85 48.8 47.55 49.8 47.35 49.4 47.05 49.05 47.25 48.9 46.95
M 49.7 49.3
Q 49.6 49.1 49.8 48.7 50.05 48.4 49.7 48.1
L 48.8 48.65
Q 49.05 48.95 49.2 49.15 49.45 49.4 49.7 49.3
M 47.3 48.8
Q 46.75 48.75 46.95 49.3 47.55 49.25 47.85 49.15 48.55 48.95 48.2 48.5 48.05 48.8 47.3 48.8
M 41.25 47.95
Q 41.8 47.4 42.3 47.9 41.75 48.1 41.5 48.8 41.2 49.45 42 49.3 41.85 48.65 42.85 48 42.55 47.6 42 47.4 41.35 47.15 41.2 46.95 40.95 47.25 40.35 47.7 39.9 48.1 39.95 48.4 40.55 48.6 41.25 47.95
M 43.6 47.2
Q 44.9 47.4 44.3 46.7 43.7 46 43.6 47.2
M 42.95 40.85
Q 44.5 40.2 43.45 40 42.35 39.8 42.95 40.85
M 41.55 42
Q 42.3 41.55 41.95 40.95 41.6 40.35 40.85 40.45 41.15 40.7 41.1 41.2 41.1 41.65 41.55 42
M 40.9 38.05
Q 41.6 37.7 42.05 37.4 42.8 36.9 41.95 37.05 41.3 37.35 40.8 37.7 40.05 38.2 40.9 38.05
M 42.3 40
Q 42.2 39.75 42.3 39.4 42.4 39 42.3 38.8 41.95 39.1 40.75 38.9 39.95 38.75 40.2 39.6 41.55 38.65 42.1 39.7 41.95 39.85 42 39.95 42.05 40.1 42.3 40
M 49.75 37.8
L 50.15 38.35
Q 50.35 38.25 50.65 38.25 50.9 38.3 51.05 38.25 50.6 37.7 50.55 37.65 50.15 37.45 49.75 37.8
M 46.3 41.25
Q 45.45 41.3 45.8 41.6 46.25 41.95 47.2 41.2 48 40.5 46.85 40.55 47.2 41.15 46.3 41.25
M 46.8 31.95
Q 46.65 31.6 46.9 31.5
L 46.45 30.95
Q 45.7 30.95 46 31.6 46.35 32.3 46.8 31.95
M 49.15 33.75
Q 48.6 32.9 48.1 33.15 48.3 33.4 47.9 33.7 47.5 34.05 47.6 34.25
L 48.6 33.7
Q 48.7 33.85 48.7 34.2 48.65 34.55 48.9 34.7 49.75 34.65 49.15 33.75
M 41.2 36.65
Q 41.8 36.55 41.7 36.05 41.55 35.4 41.55 35.3 40.95 35.5 41.1 35.95 41.2 36.6 41.2 36.65
M 44.45 32.2
Q 43.9 32.05 44.1 32.65 44.25 32.5 45 32.7 45.5 32.9 45.3 32.4 45.25 32.4 44.45 32.2
M 43.05 33.65
Q 43.95 34.45 43.4 33.5 43.2 33.25 43.05 32.65 43 32.4 42.95 32.95 42.25 33.1 43.05 33.65
M 43.1 31.25
Q 43.5 31.9 44.35 31.7 43.9 31.1 43.1 31.25
M 43.2 30.8
Q 42.8 30.5 42.95 30.05 43.2 29.6 43.05 29.3 42 29.4 42.25 30.15 42.55 31.05 43.2 30.8
M 48.65 30.1
Q 48.05 29.1 47.35 30.2 46.5 31.55 47.55 31.1 47.55 30.6 47.8 30.35 48.1 30.05 48.65 30.1
M 46.65 28.25
Q 45.8 28.35 46.2 28.7 46.4 28.65 46.85 28.85 47.25 29.05 47.55 28.7 47.45 28.2 46.65 28.25
M 47.25 27.5
Q 47.1 28.15 49 27.6 47.4 26.9 47.25 27.5
M 57.95 35.95
Q 58.55 37.05 59.4 36.7 58.7 35.85 57.95 35.95
M 60.2 35.75
Q 60.7 35.05 59.55 35.05 59.65 36.45 60.2 35.75
M 58.5 34.85
Q 59.2 34.8 59.3 34.2 59.45 33.65 58.75 33.95 58.85 34.1 58.65 34.4 58.45 34.7 58.5 34.85
M 59.6 32.9
Q 59.2 33.3 59.35 33.6 59.9 33.4 60.1 32.65 60.3 31.95 59.7 32.2 59.95 32.5 59.6 32.9
M 55.15 36.8
Q 55.35 36.35 54.8 36.55 54.85 36.6 54.55 37.3 54.3 37.75 55.05 37.55 54.85 37.45 55.15 36.8
M 53.5 31.7
Q 54.05 32.4 53.55 32.5 53.3 32.25 52.95 32.25 52.6 32.25 52.75 32.6 52.95 32.5 53.4 32.6 53.85 32.65 54.1 32.6 54 32.45 54.1 31.75 54.2 31.4 53.55 31.3 53.8 31.1 53.9 31 54.1 30.85 53.95 30.65 53.75 31.05 53.05 31.05 52.5 31 52.75 31.35 53 31 53.5 31.7
M 51.8 29.2
Q 52.6 29.6 52.6 28.7 51.75 29.15 51.3 28.2 51.1 28.35 50.7 28.6 50.4 28.8 50.55 29.05 50.85 28.7 51.8 29.2
M 54.8 27.45
Q 54.4 27.2 53.45 26.85
L 52.35 26.85
Q 52.5 26.9 52.6 26.9 53.4 27.1 53.65 27.65 54.05 27.45 54.8 27.45
M 59.1 30.15
Q 58.25 30 58.6 30.7 59.05 31.5 59.4 31.15 58.9 30.1 59.1 30.15
M 60.05 29.6
Q 59.9 29.5 59.4 28.7 59.05 28.15 58.75 28.4 58.8 28.45 59.3 29.3 59.65 29.9 60.05 29.6
M 56.25 27.3
Q 56.25 27.1 55.95 27.15 55.8 27.3 54.95 27.95 54.1 28.65 54.3 29.25 54 29.15 54.05 28.45 54.1 27.95 53.5 28.15
L 53.65 28.75
Q 53.65 29.15 54 29.45 54.8 29.5 55.5 29.15 56.15 28.9 56.9 29.05 56.7 28.45 56 28.65 55.3 28.85 55.1 28.45 55.25 28.35 55.35 28.15 55.45 27.9 55.5 27.8 56.05 28.45 57.25 27.6 57.95 27.1 57.7 26.85
L 56.95 26.85
Q 57 27.4 56.4 27.7 56.25 27.65 56.25 27.3
M 55.8 21.85
Q 55.85 22.45 56.2 22.9 56.5 23.3 56.85 23.4 56.8 22.5 56.7 22.15 56.55 21.55 55.8 21.85
M 59.65 20.3
Q 59.45 20.55 58.75 20.55 58.2 20.5 58.4 21.05 58.55 21.05 59.3 20.95 59.9 20.8 59.65 20.3
M 53.6 18.5
Q 54.4 18.45 53.95 17.55 53.5 16.65 53.1 17.05 53.7 17.9 53.6 18.5
M 52.2 15.25
Q 52.15 15.1 51.9 15.25 52 15.45 51.8 15.75 51.55 16.05 51.65 16.2 51.85 16.05 52.15 16.3 52.5 16.5 52.7 16.45 52.6 15.95 52.55 15.85 52.45 15.65 52.05 15.55 52.2 15.4 52.2 15.25
M 57.25 13.35
Q 56.95 13.3 56.85 13.35 56.95 13.55 56.95 13.9 56.9 14.25 57.15 14.5 57.85 14.05 57.65 13.25 57.5 13.35 57.25 13.35
M 59.4 12.55
Q 58.75 12.9 59 13.3 59.35 13.1 59.75 13.5 60.2 13.85 60.55 13.6 60.05 13.2 60.45 12.8 60.9 12.35 60.35 11.95 60.3 12.05 59.4 12.55
M 50.4 24.4
Q 50.3 24.25 50.15 24.3 50.015625 24.3447265625 50.05 24.55
L 50.85 24.55
Q 50.9208984375 24.46875 51 24.35 51.45 23.75 50.5 23.95 50.8 24.25 50.4 24.4
M 46.6 23.6
Q 46.5 23.7 45.65 23.55 45 23.45 45.15 24.15 45.3 24.05 46.15 24.05 46.85 24.05 46.6 23.6
M 48.7 19.85
Q 48.85 19.7 48.8 19.6 48.75 19.45 48.5 19.55 48.75 19.9 48.4 20
L 48.8 20.65
Q 49.2 20.45 49.4 20.45 49.65 20.45 49.85 20.85 50.35 20.8 50.45 20.15 50.6 19.5 50.05 19.85 50.3 20.35 49.65 20.2 49.05 20.1 48.7 19.85
M 44.25 23.4
Q 43.45 23.2 43.45 24 43.45 24.256640625 43.5 24.55
L 44.5 24.55
Q 44.3478515625 24.4759765625 44.15 24.35 43.5 23.95 43.95 23.6 44.05 23.75 44.2 23.7 44.35 23.65 44.25 23.4
M 41.65 24.55
Q 42.0966796875 24.12890625 41.15 24.05 40.973828125 24.347265625 40.85 24.55
L 41.65 24.55
M 42.9 23.4
Q 42.7 23.5 42.6 23.5 42.45 23.5 42.4 23.3
L 41.8 23.65
Q 41.8 24.45 42.55 24.15 43.35 23.8 42.9 23.4
M 42.8 20.95
L 42 19.75
Q 41.75 20.05 40.9 20.2 40.55 20.3 41.05 20.35 41.4 20.25 41.95 20.6 42.55 20.95 42.8 20.95
M 41.1 16.15
Q 41.8 15.65 40.5 15.45 40.35 16.7 41.1 16.15
M 42.6 14.45
Q 42.5 15 42.7 15.4 43.55 15.25 43.25 13.95 42.8 12.05 42.8 13.55 42.8 13.6 42.6 14.45
M 47.2 14.4
Q 47.15 13.55 47.05 13.95 46.5 14.8 46.6 15.95 46.8 15.75 47.3 15.7 47.65 15.65 47.5 15.35 47.3 15.55 47.2 14.4
M 46.1 14.5
Q 45.75 14 45.6 13.8 45.25 13.4 44.95 13.5 45.1 13.8 44.6 13.95 44.1 14.1 44.45 14.7 44.65 14.6 45.05 14.4 45.4 14.2 45.6 14.4 44.95 14.7 44.7 15.65 44.5 16.55 45.15 16.45 45.15 16.4 45.3 15.45 45.4 14.8 46.1 14.5
M 48.3 11.5
Q 48.7 12.55 48.8 11.95 49.05 11.65 48.75 11.5 48.3 11.25 48.2 11 48.45 10.6 49.1 10.25 49.5 10.05 49.35 9.4 48.9 9.95 48.45 9.8 47.85 9.55 47.7 9.6 47.85 10.55 48.3 11.5
M 50.1 7.15
Q 50.15 7.5 49.85 8.65 49.65 9.6 50.4 9.6 50 8.9 50.55 8.5 50.85 8.25 50.2 8 50.65 7.8 50.65 7.45 50.6 7.05 50.1 7.15
M 42.15 7.85
Q 41.95 7.2 41.45 7.5 41.45 7.6 41.55 8.35 41.75 8.95 42.25 8.7 42.25 8.15 42.15 7.85
M 41.7 10.2
Q 41.75 9.85 41.5 9.6 40.75 9.6 41.05 10.35 41.4 11.1 41.8 10.75 41.7 10.55 41.7 10.2
M 60.1 9.55
Q 60.1 9.6 59.75 10.55 59.5 11.3 60.3 11.15 60.1 10.95 60.4 10.05 60.65 9.4 60.1 9.55
M 57.65 9.8
Q 57.2 10 57.1 9.7
L 56.5 10.1
Q 56.5 10.85 57.25 10.55 58.05 10.25 57.65 9.8
M 55.9 7.85
Q 56.6 7.45 56.4 6.65 55.65 7.05 55.9 7.85
M 59.35 8.75
Q 59.55 8.3 59 8.5 59.05 8.55 58.75 9.3 58.55 9.8 59.25 9.6 59.05 9.5 59.35 8.75
M 51.75 8.35
Q 51.05 8.75 51.25 9.5 51.9 9.15 51.75 8.35
M 51.8 10.45
L 51.1 10.55
Q 50.7 10.6 50.35 10.95 51.55 11.7 51.85 11.7 52.35 11.7 51.8 10.45
M 71.15 24.55
Q 71.103125 24.2916015625 70.95 23.95 70.67421875 24.29140625 70.5 24.55
L 71.15 24.55
M 72.7 21.95
Q 72.55 20.2 72.15 20.95 71.75 21.7 72.7 21.95
M 74.75 17.65
Q 74.95 17.3 74.85 17.15 74.2 17.15 74.05 17.8 73.95 18.45 74.65 18.15 74.5 17.95 74.75 17.65
M 75.2 15.6
L 75.6 16.2
Q 76.35 16.2 76.05 15.45 75.75 14.7 75.3 15.1 75.5 15.5 75.2 15.6
M 66.5 23.3
Q 66.35 23.4 66.4 23.6 66.45 23.7 66.75 23.6 67.1 23.1 66.45 22.7 65.85 22.3 66 23.2 66.4 22.95 66.5 23.3
M 64 18.8
Q 64.4 18.85 64.6 19.45 64.75 19.85 65.45 19.65 65.15 19.3 65.25 18.95
L 65.45 18.3
Q 65.15 19.05 64.4 18.6 63.85 18.35 64 18.8
M 61.45 23.05
Q 61.4 21.5 60.85 22.25 60.35 22.95 61.45 23.05
M 65.1 23.95
Q 64.312890625 24.1986328125 64.3 24.55
L 64.5 24.55
Q 64.835546875 24.3451171875 65.3 24.5 65.37265625 24.5302734375 65.45 24.55 65.7162109375 24.6283203125 65.95 24.55 66.1375 24.4828125 66.3 24.3 66.1 23.7 65.1 23.95
M 61.3 16.8
Q 61.9 16.2 62 15.75 60.1 16.8 60.2 17.75 60.55 17.45 61.3 16.8
M 67.55 13.5
Q 67.1 13.7 67.2 12.9
L 66.25 13.45
Q 66.35 14.05 67.15 13.95 68 13.9 67.55 13.5
M 69 18.35
Q 68.65 18.15 68.45 18.15 67.9 18.2 68.6 18.65 69.3 19.15 69.35 18.85 69.45 18.6 69 18.35
M 81.85 74.7
Q 82.6 74.3 82.35 73.5 81.7 73.95 81.85 74.7
M 83.15 84.8
Q 83.7 85.1 84.1 84.5 84.5 83.9 83.6 84.05 83.8 84.5 83.5 84.6 83.4 84.4 83.2 84.5 83.05 84.5 83.15 84.8
M 81.75 82.65
Q 82.35 82.45 82.25 81.95 82.05 81.2 82.1 81.1 81 81.65 81.75 82.65
M 83.45 79.8
Q 84.25 79.45 83.85 79.1 82.9 79.4 82.55 79.8 82.15 80.3 83.05 80.55 82.6 80.15 83.45 79.8
M 81 76.35
Q 81.3 77.05 81.9 76.85
L 80.9 75.35
Q 80.75 75.45 80.35 75.75 80.3232421875 75.772265625 80.3 75.8
L 80.3 75.75
Q 80.059375 75.654296875 79.9 75.75 79.55234375 76.3583984375 80.3 76.45
L 80.3 76.1
Q 80.7734375 75.8513671875 81 76.35
M 84.85 75.9
Q 84.05 76.4 84.25 76.75 84.65 77.15 85 77.5 84.9 77.6 84.65 77.8 84.5 78 84.6 78.2 85.6 78.4 85.3 77.5 84.85 75.95 84.85 75.9
M 84.3 75.05
Q 84.65 75.05 84.55 74.75 81.95 74.55 82.9 74.95 83.15 74.75 83.5 75.15 83.85 75.55 84.1 75.45 83.95 75.15 84.3 75.05
M 88.5 78.75
Q 89.8 78.95 89.25 78.2 88.65 77.5 88.5 78.75
M 89.35 76.05
Q 88.8 76.4 88.85 75.65 88.9 74.95 88.45 75.3 88.55 75.8 88.05 76
L 88.45 76.65
Q 88.65 76.4 89.1 76.4 89.45 76.35 89.35 76.05
M 92.05 78.7
Q 92.5 78.35 91.95 77.9 91 78.55 91.1 79.3 91.8 78.9 92.05 78.7
M 90.35 56.65
Q 91.6 56.15 91.2 55.3 90.15 55.05 90.35 56.65
M 92.55 70.1
Q 92.45 69.85 92.65 69.75 92.75 69.7 93.15 69.7 92.95 68.55 92.15 69.5 91.35 70.45 92.55 70.1
M 92.45 67.95
Q 93.05 67.55 92.4 67.15 91.6 67.25 91.6 68.1 91.55 68.95 92.05 68.65 91.8 68.4 92.45 67.95
M 93 66.75
Q 93.25 66.4 93.5 67.25 93.65 67.85 93.7 67.2 93.55 66.75 93.65 66.25 93.7 65.9 93.85 65.35 92.6 65.9 93 66.75
M 92.25 62.9
Q 92.55 64.65 93.15 63.8 93.7 62.95 92.25 62.9
M 94.5 63.65
Q 95.05 63.45 94.95 62.95 94.8 62.2 94.85 62.1 94.15 62.15 94.15 62.25 94.1 62.3 94.7 62.6 94 63.15 94.5 63.65
M 89.5 73.85
Q 89.35 73.35 88.9 73.3 89 74.3 89.15 74.7 89.35 75.45 90.15 75.15 89.8 74.7 89.5 73.85
M 90.35 72.8
Q 90.55 72.7 90.65 72.7 90.8 72.7 90.85 72.9 91.1 72.7 91.2 72.6 91.4 72.4 91.25 72.2 90.9 72.4 90.8 72.1 93.05 70.55 91.15 71.55 90 72.15 90.35 72.8
M 84.45 73.95
Q 85.4 72.9 84.75 72.75 84.05 72.6 84.45 73.95
M 84.85 65.85
Q 84.4 65.15 83.6 65.3 84.05 66 84.85 65.85
M 81.35 64.6
Q 81.1 64.25 81.45 63.8 81.9 63.35 81.7 63.05 80.85 63.15 80.65 63.95 80.45 64.75 81.35 64.6
M 90.05 62.95
Q 89 61.8 88.1 62.05 89.15 63.15 90.05 62.95
M 87.65 66.6
Q 87.95 65.8 86.55 65.65 87.3 67.4 87.65 66.6
M 87.9 63.45
Q 87.1 63.4 88.3 64.95 88.8 63.55 87.9 63.45
M 87.3 58.15
Q 86.853515625 57.008984375 87.05 57.05 86.2005859375 56.8515625 86.55 57.65 87 58.5 87.3 58.15
M 83.8 60.85
Q 84.2 60.65 84.3 60.95 85 60.7 85.05 59.75 85.05 58.8 84.25 58.85 84.1 59.05 84.4 59.65 84.75 60.25 84.4 60.5 84.15 60.25 83.55 60.6 82.95 61 83.8 60.85
M 81.45 59.55
Q 81.35 60.2 82.7 59.85 81.6 58.9 81.45 59.55
M 83.25 59.15
Q 83 59.7 83.15 59.95 83.9 59.8 83.8 58.95 83.7 58.1 83 58.3 83.45 58.7 83.25 59.15
M 85.05 52.65
Q 85.6 52.65 85.9 52.55 86.55 52.35 86.3 51.9 86.1 52 85.75 51.8 85.45 51.6 85.25 51.65 85.4 51.85 85.2 52.15 84.95 52.5 85.05 52.65
M 88.7 55.55
Q 88.9 55.45 89 55.45 89.15 55.45 89.25 55.65
L 89.85 55.25
Q 89.85 54.5 89.1 54.8 88.3 55.15 88.7 55.55
M 88 55.15
Q 87.45 54.65 86.4 54.75 85.35 54.9 85.75 55.7 86.25 55.25 86.9 55.2 87.85 55.2 88 55.15
M 89.9 52.55
Q 89.9 51.6 89.3 51.7 89.35 51.9 89.25 52.75 89.25 53.4 89.35 53.8 89.9 53.5 89.9 52.55
M 95.05 57.65
Q 94.8 58 94.85 58.15 95.5 58.1 95.65 57.5 95.8 56.85 95.1 57.15 95.25 57.35 95.05 57.65
M 91.55 59.85
Q 91.4 59.65 91.7 59.2 91.85 58.95 91.45 59 90.8 59.15 91.25 59.95 91.75 61 91.55 59.85
M 96.75 49.55
Q 97.05 49.75 97 50.5 97 51 97.55 50.8 97.55 49.15 96.75 49.55
M 90.9 38.05
Q 90.7 36.45 90.15 37.05 89.7 37.65 90.9 38.05
M 96.2 46
Q 96.35 44.8 95.6 45.3 94.85 45.85 96.2 46
M 93.55 49.45
Q 92.8 48.6 92.8 47.7 91.95 47.8 92.55 48.75 93.15 49.75 93.55 49.45
M 84.45 43.05
Q 84.85 43.7 85.65 43.55 85.25 42.8 84.45 43.05
M 88.75 45.55
Q 89.3 46.7 89.55 47 90.1 47.65 91 47.55 90.4 47.1 89.9 46.15 89.55 45.55 88.75 45.55
M 83.15 47.75
Q 84.65 47.05 83.6 46.85 82.6 46.6 83.15 47.75
M 85.4 48
Q 85 47.75 84.7 48.1 84.8 48.7 85.55 48.7 86.3 48.7 86 48.1 85.8 48.25 85.4 48
M 81.6 47.45
Q 81.6 47.95 82.7 48.4 83.95 48.9 84.35 49.6 84.15 50.05 83.4 50 82.9 50 83.1 50.4 83.75 50.5 85.2 49.55 84.6 49.15 83.4 48.35 82.35 47.65 81.6 47.45
M 82.05 46
Q 82.8 45.45 81.5 45.3 81.35 46.55 82.05 46
M 84.95 45
Q 83.95 45.45 84.4 45.65 84.8 45.15 85.75 45.85 86.55 46.45 86.55 45.6 86.2 45.75 86.3 45.4 86.5 44.85 86.5 44.8 85.9 44.55 84.95 45
M 84.4 41.6
Q 84.8 42.45 85.2 42.15 84.7 40.95 84.85 41 84 40.8 84.4 41.6
M 81.35 42.4
Q 81.2 42.2 81.4 41.9 81.65 41.55 81.6 41.4 81.15 41.7 81.2 41.05 81.25 40.3 80.65 40.65
L 81.05 41.3
Q 80.55 42.15 79.45 41.65
L 79.45 41.5
Q 79.3935546875 41.5470703125 79.35 41.6 79.1662109375 41.55 79.05 41.55
L 79.05 42
Q 79.0830078125 42.0166015625 79.1 42 79.0810546875 42.13515625 79.05 42.25 79.0224609375 42.344921875 79 42.45 78.7 43.95 78.6 44.05 79.031640625 43.817578125 79.25 43.4 79.4390625 43.3404296875 79.65 43.25 80.0833984375 43.057421875 79.45 42.75
L 79.45 42.7
Q 79.92734375 42.2 80.45 42.2 81 42.35 81.35 42.4
M 79.5 42.25
Q 79.4748046875 42.244921875 79.45 42.25
L 79.45 42.2
Q 79.4748046875 42.234765625 79.5 42.25
M 87.7 39.2
Q 88.15 38.9 88.35 38.1 88.45 37.25 87.8 37.4 88 37.75 87.75 38.3 87.55 38.85 87.7 39.2
M 83.4 35.4
Q 83.45 36.5 83.6 36.95 83.95 37.9 84.85 37.55 84.05 37.35 83.9 36.35 83.75 35.45 83.4 35.4 Z"/>
</g>
</defs>

<g transform="matrix( 1, 0, 0, 1, 0,0) ">
<use xlink:href="#Layer2_0_FILL"/>
</g>
</svg>
