
<svg xmlns="http://www.w3.org/2000/svg" version="1.1" xmlns:xlink="http://www.w3.org/1999/xlink" preserveAspectRatio="none" x="0px" y="0px" width="100px" height="100px" viewBox="0 0 100 100">
<defs>
<g id="Layer2_0_FILL">
<path fill="#000000" stroke="none" d="
M 51.55 67.15
L 51.85 67.3 51.95 67.3 52.3 67.1 52.35 67.05 52.4 66.95 52.4 66.75 52.35 66.65 52.35 66.6 52.3 66.5
Q 51.95 66.15 51.6 66.5 51.25 66.75 51.55 67.15
M 53.05 62.6
L 53.15 62.5 53.15 62.15 53.1 62.05 52.8 61.9 52.5 61.9 52.4 62 52.3 62.05
Q 52.2 62.35 52.3 62.5
L 52.3 62.55 52.4 62.65 52.4 62.7
Q 52.7 62.9 53.05 62.65
L 53.05 62.6
M 55 64.95
L 54.95 64.9 54.8 64.8 54.75 64.75 54.5 64.75
Q 54.3 64.75 54.2 64.95
L 54.15 65 54.15 65.15 54.1 65.2 54.15 65.3 54.15 65.35 54.2 65.45 54.35 65.6 54.5 65.65 54.55 65.65 54.65 65.7 54.7 65.65 54.85 65.6 54.9 65.55 54.95 65.55 55 65.5 55.05 65.35 55.05 65.15 55 64.95
M 56.5 67.05
L 56.4 66.95 56.35 66.95 56.25 66.9 56.1 66.9 56.05 66.95 55.95 67 55.9 67 55.8 67.1 55.75 67.25 55.75 67.3 55.7 67.4 55.7 67.45 55.8 67.65 55.85 67.7 56 67.8 56.3 67.8 56.5 67.7
Q 56.8 67.3 56.5 67.05
M 50.2 72.8
L 50.55 72.95 50.65 72.9 50.7 72.9 50.8 72.85
Q 50.95 72.75 51.05 72.5 51.05 72.25 50.9 72.1 50.75 71.95 50.5 71.95 50.25 71.95 50.15 72.2
L 50.1 72.25 50.1 72.35 50.05 72.45 50.1 72.5 50.1 72.6 50.2 72.8
M 41.35 64.65
Q 41.1 64.65 40.95 64.9
L 40.9 65 40.9 65.05 40.85 65.15
Q 40.85 65.2 41 65.5 41.2 65.7 41.4 65.7
L 41.5 65.65 41.6 65.65 41.65 65.6
Q 41.8 65.5 41.9 65.2 41.9 64.95 41.75 64.8 41.6 64.65 41.35 64.65
M 43.3 62.5
L 43.25 62.5 43.2 62.45 43.15 62.45 43.05 62.4 43 62.4 42.85 62.45 42.8 62.45 42.7 62.55
Q 42.65 62.6 42.6 62.65 42.55 62.8 42.55 62.95
L 42.55 63 42.65 63.2 42.65 63.25
Q 42.8 63.4 43 63.4 43.2 63.4 43.35 63.25
L 43.4 63.2 43.45 63.1 43.5 62.95 43.5 62.75 43.45 62.65 43.3 62.5
M 47.95 67.1
L 48 67.1 48.15 67.2 48.2 67.2 48.3 67.25 48.35 67.25 48.45 67.2
Q 48.6 67.2 48.8 67
L 48.8 66.95 48.85 66.85 48.85 66.7 48.75 66.5 48.65 66.4
Q 48.5 66.25 48.3 66.3 48.1 66.3 48 66.5
L 47.95 66.55 47.95 66.6
Q 47.85 66.75 47.95 67.1
M 46 64.3
Q 46.2 64.15 46.1 63.85
L 46.05 63.75 45.9 63.6 45.8 63.6 45.65 63.55 45.6 63.6 45.45 63.65 45.4 63.65
Q 45.2 63.85 45.2 64.05 45.1 64.2 45.3 64.4
L 45.35 64.4 45.45 64.5 45.6 64.5
Q 45.85 64.5 46 64.3
M 49.55 63.3
L 49.5 63.35
Q 49.1 63.7 49.4 64.1
L 49.45 64.1 49.55 64.2 49.9 64.2 49.95 64.15
Q 50.2 64.15 50.25 63.8 50.25 63.5 50.1 63.35
L 50.05 63.3 49.9 63.25 49.7 63.25 49.55 63.3
M 49.35 61.45
L 49.25 61.4 49.2 61.35 49.1 61.3 48.85 61.3 48.65 61.4 48.6 61.5 48.55 61.55 48.5 61.65 48.5 62 48.55 62.05
Q 48.85 62.45 49.25 62.15
L 49.35 62.05 49.45 61.85 49.45 61.7 49.4 61.55 49.35 61.45
M 46.65 59.5
L 46.6 59.45 46.5 59.25 46.45 59.2 46.35 59.15 46.2 59.1 46.1 59.1 45.9 59.2 45.75 59.3 45.7 59.4 45.7 59.6 45.75 59.7 45.75 59.8 45.85 59.95 45.95 60
Q 46.25 60.15 46.55 59.9
L 46.55 59.8 46.65 59.6 46.65 59.5
M 47.6 56.4
L 47.55 56.35
Q 47.2 55.9 46.75 56.35
L 46.65 56.4 46.45 56.6 46.4 56.7 46.4 56.8 46.35 56.85 46.4 56.95 46.4 57.05 46.45 57.1
Q 46.75 57.5 47.15 57.2
L 47.15 57.15
Q 47.4 57.15 47.55 57
L 47.65 56.85 47.65 56.8 47.7 56.7 47.7 56.55 47.65 56.5 47.6 56.4
M 49.55 58.65
L 49.45 58.75
Q 49.3 58.9 49.3 59.1 49.3 59.4 49.55 59.5
L 49.6 59.55 49.7 59.6 49.9 59.6 50 59.55 50.05 59.55 50.1 59.45 50.25 59.25 50.25 59.15 50.3 59.1 50.25 59 50.25 58.85 50.2 58.85
Q 50.15 58.7 49.85 58.6
L 49.75 58.6 49.65 58.65 49.55 58.65
M 44.35 60.3
Q 44.6 60.3 44.75 60.15
L 44.85 59.95 44.85 59.75 44.8 59.6 44.75 59.55
Q 44.6 59.4 44.4 59.4 44.2 59.35 44 59.55
L 43.95 59.6 43.9 59.75 43.9 59.95 43.95 60.05 44 60.1
Q 44.15 60.3 44.35 60.3
M 40.6 61.4
L 40.5 61.55 40.5 61.6 40.45 61.55
Q 40.3 62 40.6 62.2
L 40.7 62.25 41 62.25 41.1 62.2 41.2 62.1 41.25 62 41.3 61.95
Q 41.4 61.65 41.15 61.4
L 41.05 61.35 40.85 61.3 40.75 61.3 40.65 61.35 40.6 61.4
M 43.95 57.25
Q 43.8 57.5 43.85 57.75 43.95 58 44.3 58.1 44.55 58.1 44.7 57.95
L 44.7 57.9 44.75 57.85 44.75 57.8 44.8 57.75 44.8 57.6 44.7 57.35 44.65 57.3
Q 44.45 57.1 44.3 57.1
L 43.95 57.25
M 43.65 55.55
L 43.55 55.6
Q 43.25 55.9 43.45 56.15 43.55 56.5 43.9 56.5
L 43.95 56.5 44.05 56.45 44.1 56.45 44.25 56.3
Q 44.4 56.05 44.35 55.85 44.25 55.55 44.05 55.5
L 43.9 55.5 43.85 55.45 43.8 55.5 43.7 55.5 43.65 55.55
M 44.7 54.1
L 44.65 54 44.65 53.95 44.5 53.85 44.45 53.8
Q 44.15 53.65 43.9 53.9
L 43.8 54.1 43.75 54.15 43.75 54.4 43.8 54.5 43.85 54.5
Q 44 54.75 44.2 54.75 44.45 54.75 44.6 54.6
L 44.7 54.5 44.7 54.45 44.75 54.3 44.75 54.15 44.7 54.15 44.7 54.1
M 41.45 54.7
L 41.4 54.75 41.35 54.9 41.2 55 41.2 55.05 41.1 55.15 41.1 55.5
Q 41.1 55.65 41.25 55.7 41.35 55.85 41.55 55.85 41.75 55.85 41.85 55.7
L 41.95 55.6 41.95 55.55 42 55.5 42 55.4 42.05 55.4 42.2 55.25 42.25 55.15 42.25 54.95 42.2 54.85 42.2 54.8
Q 42.1 54.65 41.85 54.55 41.6 54.55 41.45 54.7
M 43 53.25
L 42.9 53.25 42.8 53.3 42.65 53.3
Q 42.45 53.3 42.3 53.45
L 42.25 53.5 42.2 53.6 42.2 53.85 42.25 54 42.4 54.15 42.55 54.2 42.6 54.25 42.7 54.2 42.75 54.2 42.8 54.25 43.1 54.25
Q 43.35 54.3 43.55 54.1
L 43.6 54 43.65 53.8 43.65 53.7 43.6 53.6 43.55 53.55 43.45 53.4 43.35 53.35 43.25 53.35 43.15 53.3 43 53.25
M 42.25 50.7
Q 42.15 50.55 41.9 50.55 41.7 50.5 41.55 50.7
L 41.45 50.8 41.5 51.05 41.55 51.2 41.6 51.25 41.6 51.3 41.65 51.3 41.7 51.35 41.75 51.35 41.9 51.45 42.15 51.45 42.25 51.35
Q 42.4 51.3 42.4 51.05 42.4 50.85 42.25 50.7
M 44.45 52.05
Q 44.25 52.25 44.35 52.55 44.5 52.9 44.85 52.9
L 44.9 52.85 45 52.85 45.05 52.8 45.1 52.8 45.15 52.75 45.2 52.75 45.35 52.6
Q 45.45 52.5 45.45 52.35
L 45.45 52.3 45.4 52.2 45.4 52.1 45.25 51.95 45.05 51.85 44.95 51.85 44.85 51.9 44.7 51.9 44.5 52 44.45 52.05
M 43.25 52.2
L 43.25 52.45
Q 43.35 52.75 43.6 52.85 43.9 52.95 44.1 52.75 44.25 52.6 44.25 52.4
L 44.25 52.25 44.2 52.2 44.2 52.15 44.15 52.1
Q 44 51.9 43.8 51.9 43.55 51.9 43.4 52.05
L 43.3 52.1 43.3 52.15 43.25 52.2
M 49.3 54.9
L 49.2 55 49.2 55.35 49.25 55.45 49.25 55.5
Q 49.45 55.7 49.65 55.7 49.9 55.7 50 55.55
L 50.1 55.45 50.15 55.35 50.05 55 50 54.95 49.95 54.95 49.95 54.9
Q 49.6 54.6 49.3 54.9
M 46.8 54.3
L 46.7 54.25 46.55 54.25 46.5 54.3 46.3 54.4
Q 46.15 54.55 46.15 54.7
L 46.15 54.9 46.2 54.95
Q 46.35 55.2 46.6 55.2 46.8 55.25 47 55.05 47.2 54.85 47.1 54.7 47.1 54.5 46.9 54.3
L 46.8 54.3
M 45.9 53.5
L 45.95 53.3 45.95 53.1 45.9 53.05 45.85 52.9 45.8 52.85 45.55 52.8 45.35 52.8 45.15 53 45.05 53.2 45.05 53.25 45.1 53.4 45.1 53.45 45.2 53.6 45.25 53.65 45.45 53.7 45.65 53.7 45.75 53.65 45.9 53.5
M 47.6 53.3
L 47.6 53.2
Q 47.6 52.95 47.45 52.8 47.25 52.6 47.1 52.65
L 46.95 52.65 46.9 52.7 46.85 52.7 46.8 52.75
Q 46.5 53.05 46.7 53.3 46.85 53.6 47.2 53.6
L 47.25 53.6 47.4 53.55 47.55 53.4 47.6 53.3
M 47.9 51.3
Q 47.7 51.1 47.5 51.1 47.25 51.1 47.1 51.25
L 47.05 51.35 47 51.4 46.95 51.5 46.95 51.7 47 51.8 47.05 51.85
Q 47.2 52.05 47.4 52.05 47.65 52.05 47.8 51.9
L 47.9 51.85 47.9 51.8 47.95 51.7 47.95 51.5 47.9 51.35 47.9 51.3
M 47 50.95
L 47.1 50.9
Q 47.45 50.6 47.1 50.25 46.95 50.1 46.75 50.1 46.55 50.1 46.4 50.25
L 46.35 50.35 46.35 50.5 46.4 50.5 46.4 50.55 46.35 50.55 46.35 50.6 46.4 50.75 46.45 50.8 46.5 50.8 46.55 50.85 46.55 50.9 46.6 50.9 46.75 51 47 50.95
M 48.9 50.75
L 48.8 50.8
Q 48.65 51.05 48.7 51.35 48.9 51.65 49.2 51.65
L 49.25 51.65 49.3 51.6 49.35 51.6 49.4 51.55 49.45 51.55 49.55 51.45
Q 49.85 51.05 49.4 50.75
L 49.35 50.7 49.25 50.7 49.2 50.65 49.1 50.65 49.05 50.7 48.95 50.7 48.9 50.75
M 58.7 59.2
Q 58.6 59.25 58.55 59.3
L 58.45 59.35 58.45 59.45 58.4 59.5 58.4 59.6
Q 58.4 59.95 58.7 60.1 59 60.25 59.25 60
L 59.35 59.9 59.35 59.85 59.4 59.8 59.4 59.7
Q 59.4 59.3 59.1 59.2 58.9 59.1 58.7 59.2
M 51.15 60.2
L 51.1 60.3 51.05 60.5 51.1 60.65 51.15 60.75 51.25 60.8 51.4 60.9
Q 51.75 61.05 51.85 60.8 52 60.75 52 60.65 52.05 60.5 51.85 60.2
L 51.8 60.15 51.65 60.05 51.4 60.05 51.2 60.15 51.15 60.2
M 50.8 56.95
L 50.75 57 50.65 57.35
Q 50.75 57.6 50.9 57.7
L 50.95 57.75 51.05 57.75 51.1 57.8 51.25 57.8 51.35 57.75 51.4 57.7 51.5 57.65 51.65 57.3 51.6 57.2 51.6 57.1 51.55 57.05 51.5 56.95 51.45 56.9
Q 51.35 56.85 51.15 56.85
L 50.95 56.85 50.8 56.95
M 55.2 57.5
L 55.15 57.55 55.05 57.6 55 57.6
Q 54.75 57.85 54.95 58.25
L 55 58.35 55 58.6 55.1 58.8 55.2 58.9 55.3 58.95 55.6 58.95 55.65 58.9 55.75 58.85
Q 56 58.6 55.85 58.35
L 55.85 58.3 55.8 58.25 55.85 57.95
Q 55.8 57.85 55.55 57.55
L 55.45 57.55 55.35 57.5 55.2 57.5
M 54 58.5
Q 54.15 58.35 54.1 58.15
L 54.1 58.1 54.05 57.95 53.9 57.8 53.8 57.75 53.7 57.75
Q 53.4 57.75 53.25 57.9 53.15 58 53.15 58.3
L 53.05 58.5
Q 53.05 58.8 53.3 58.95
L 53.35 59 53.5 59.05 53.7 59.05 53.9 58.85
Q 54 58.75 54 58.5
M 53.35 53.95
L 53.35 54.1 53.4 54.2 53.45 54.25 53.4 54.3 53.4 54.45 53.45 54.6 53.5 54.65
Q 53.7 54.85 53.9 54.85 54.1 54.85 54.25 54.7
L 54.3 54.7 54.3 54.65 54.35 54.6 54.35 54.55 54.4 54.5 54.4 54.35 54.3 54.05
Q 54.3 53.85 54.15 53.7
L 54.1 53.65 53.95 53.55 53.7 53.55 53.55 53.6 53.45 53.7 53.4 53.8 53.35 53.95
M 55.4 53.95
L 55.3 53.85 55.25 53.85
Q 54.8 53.65 54.65 53.95
L 54.55 54.05 54.55 54.1 54.5 54.2 54.5 54.35 54.55 54.4 54.55 54.5 54.6 54.55 55 54.8 55.05 54.8 55.1 54.75 55.2 54.75 55.25 54.7 55.3 54.7 55.4 54.65
Q 55.5 54.55 55.5 54.4
L 55.5 54.15 55.4 53.95
M 53.15 55.1
L 53 55.15 52.9 55.5
Q 52.9 55.7 53.05 55.85 53.25 56.05 53.4 55.95
L 53.55 56.1
Q 53.85 56.25 54.1 56
L 54.25 55.85 54.25 55.8 54.3 55.65 54.3 55.6
Q 54.3 55.4 54.1 55.25
L 54.05 55.2 53.95 55.15 53.6 55.15 53.35 55.05 53.3 55.1 53.15 55.1
M 51.15 54.05
Q 50.9 53.8 50.65 53.85
L 50.55 53.85 50.4 53.95 50.3 54 50.25 54.1 50.25 54.2 50.2 54.35 50.25 54.45
Q 50.4 54.7 50.65 54.8 50.85 54.8 51.1 54.65
L 51.15 54.55 51.2 54.5 51.2 54.2 51.15 54.1 51.15 54.05
M 51.7 52
L 51.6 52.25 51.55 52.25 51.55 52.5 51.6 52.65 51.65 52.7
Q 51.95 52.85 52 52.9
L 52.25 52.9 52.35 52.85 52.5 52.7 52.55 52.6 52.55 52.3 52.5 52.2 52.3 52 52.25 52 52.25 51.95 52.15 51.95 52.05 51.9 51.95 51.9 51.8 51.95 51.7 52
M 50.75 52.05
L 50.7 52.05 50.35 52.15 50.25 52.2 50.1 52.3 50 52.35
Q 49.8 52.8 50.25 53.1
L 50.35 53.15 50.4 53.2 50.45 53.2 50.5 53.25
Q 50.55 53.3 50.85 53.3
L 51.05 53.3 51.1 53.25 51.15 53.25 51.2 53.15 51.25 53.15
Q 51.4 52.85 51.35 52.75
L 51.4 52.65 51.4 52.55
Q 51.4 52.25 51.15 52.1
L 51.1 52.05 51 52.05 50.9 52 50.8 52 50.75 52.05
M 58.1 55.05
L 57.9 55.05 57.75 55.15
Q 57.4 55.5 57.8 55.85
L 58.1 55.95 58.4 55.85 58.45 55.7 58.45 55.6
Q 58.55 55.45 58.45 55.25 58.25 55.05 58.1 55.05
M 55.75 50.5
L 55.8 50.45
Q 55.95 50.15 55.75 49.95 55.6 49.7 55.35 49.7
L 55.25 49.75 55.2 49.75 55.15 49.8 55 49.85
Q 54.85 50.1 54.9 50.4 55.1 50.75 55.45 50.7
L 55.55 50.7 55.65 50.6 55.7 50.6 55.75 50.5
M 56 50.7
L 56 50.75 55.95 50.85 55.9 50.9 55.9 51.05 55.95 51.2 56 51.25
Q 56.05 51.35 56.3 51.45
L 56.5 51.45 56.6 51.4 56.75 51.25 56.85 51.05 56.85 50.95 56.7 50.65 56.6 50.6
Q 56.3 50.45 56 50.7
M 60.1 51.8
L 60.05 51.8 59.85 51.75
Q 59.6 51.7 59.4 51.95 59.25 52.25 59.5 52.5 59.65 52.65 59.95 52.6
L 60.05 52.6 60.25 52.4 60.3 52.2 60.3 52.05 60.25 52 60.2 51.9 60.1 51.8
M 59.2 52.55
L 59.15 52.5
Q 59.05 52.3 58.85 52.25
L 58.6 52.25 58.55 52.3 58.4 52.35 58.35 52.4
Q 58.05 52.8 58.4 53.05 58.55 53.2 58.7 53.25 58.9 53.25 59.1 53.05
L 59.15 52.95 59.2 52.9 59.2 52.55
M 61.05 66.1
Q 61.45 65.75 61.1 65.4
L 61 65.35 60.95 65.3 60.85 65.3
Q 60.6 65.15 60.35 65.3 60 65.5 60.15 65.8
L 60.15 65.9 60.3 66.05 60.35 66.05 60.4 66.1 60.6 66.2 60.85 66.2 61 66.1 61.05 66.1
M 63.35 62.9
L 63.3 62.75 63.25 62.75 63.15 62.6 63 62.55 62.75 62.55 62.6 62.6
Q 62.25 62.95 62.65 63.3 62.75 63.5 62.95 63.4
L 63.3 63.3 63.35 63.15 63.35 62.9
M 70.55 61.65
L 70.55 61.35 70.5 61.25 70.5 61.2
Q 70.35 60.95 70.1 60.95
L 69.95 60.95 69.85 61 69.7 61.1
Q 69.45 61.45 69.7 61.75
L 69.7 61.8 69.85 61.95 69.9 61.95 69.95 62 70.25 62 70.35 61.9 70.4 61.9 70.55 61.65
M 61.05 61.05
L 60.95 61.1 60.9 61.15 60.9 61.2 60.85 61.25 60.85 61.4 60.95 61.8
Q 61.15 62 61.35 61.9 61.6 61.9 61.75 61.65
L 61.75 61.3 61.7 61.2 61.65 61.15
Q 61.4 60.9 61.1 61
L 61.05 61.05
M 61.75 57.5
L 61.7 57.5 61.65 57.55 61.6 57.7 61.6 57.75 61.55 57.8 61.6 57.85 61.55 57.9 61.6 58 61.65 58.15 61.65 58.2 61.7 58.25 61.75 58.25 61.85 58.3 61.9 58.35 62.15 58.35
Q 62.4 58.25 62.5 58 62.5 57.65 62.35 57.5
L 62.3 57.45 62.2 57.4 61.85 57.4 61.75 57.5
M 64.8 56.65
L 64.8 56.35
Q 64.75 56.15 64.45 56.05 64.15 55.95 64 56.2 63.85 56.35 63.85 56.65 63.9 56.85 64.2 56.95
L 64.25 57 64.35 57 64.4 56.95 64.5 56.95 64.6 56.9 64.7 56.8 64.7 56.75 64.75 56.65 64.8 56.65
M 61.25 55.45
L 61.2 55.45
Q 61.1 55.55 60.95 55.8
L 61.05 56.2 61.1 56.25 61.25 56.3 61.3 56.35 61.45 56.35 61.6 56.3 61.65 56.25
Q 62.1 55.95 61.8 55.55
L 61.75 55.5 61.6 55.45 61.55 55.4 61.4 55.4 61.25 55.45
M 61.65 52.9
L 61.4 52.9 61.2 53 61.2 53.05 61.15 53.1 61.05 53.3 61.05 53.4 61.1 53.45 61.15 53.6 61.15 53.65 61.25 53.7 61.3 53.75 61.45 53.8 61.5 53.85 61.6 53.85 61.65 53.8 61.8 53.75 61.85 53.7 61.9 53.7 62 53.5 62 53.25 61.95 53.15 61.75 52.95 61.65 52.9
M 62.8 53
L 62.75 53 62.55 53.15 62.5 53.2 62.45 53.35 62.4 53.45 62.45 53.65 62.55 53.75 62.75 53.9 62.9 53.95 63.05 53.95 63.1 53.9 63.25 53.85 63.3 53.85 63.4 53.75 63.4 53.7 63.45 53.55 63.5 53.5 63.5 53.4 63.45 53.35 63.45 53.2 63.4 53.15
Q 63.15 52.95 62.8 53
M 65.85 51.2
L 65.9 51.1 65.95 51.05 66 50.85 65.9 50.8 66 50.8
Q 66 50.6 65.9 50.5
L 65.85 50.4 65.7 50.35 65.6 50.3 65.5 50.3 65.45 50.35 65.4 50.3 65.35 50.35 65.25 50.35 65.1 50.5 65.05 50.6 65.05 50.65 65 50.7 65 50.85
Q 65.1 51.15 65.45 51.3
L 65.55 51.3 65.75 51.25 65.85 51.2
M 71 52.65
Q 71.2 52.65 71.35 52.5 71.5 52.35 71.5 52.15
L 71.5 52 71.4 51.9 71.4 51.85 71.3 51.8 71.25 51.75
Q 70.95 51.6 70.7 51.85
L 70.65 51.9 70.6 52 70.6 52.05 70.55 52.15 70.55 52.2 70.6 52.3 70.6 52.4 71 52.65
M 31.65 66.3
L 31.75 66.3 31.8 66.25 31.8 66.3 32.1 66.15
Q 32.25 66.05 32.25 65.7 32.2 65.5 31.9 65.3
L 31.6 65.3 31.5 65.35 31.45 65.35 31.4 65.45
Q 31.25 65.6 31.25 65.85 31.25 66.05 31.45 66.2
L 31.65 66.3
M 29.7 51
L 29.55 50.85 29.45 50.85 29.35 50.8 29.2 50.8 29.1 50.85 29.05 50.85 28.95 50.95
Q 28.8 51.1 28.8 51.3
L 29 51.65 29.1 51.7 29.15 51.7
Q 29.4 51.8 29.55 51.65
L 29.6 51.65 29.6 51.6 29.65 51.6 29.7 51.55 29.75 51.45 29.75 51.1 29.7 51
M 40.45 58.6
L 40.45 58.55
Q 40.3 58.35 40.1 58.35
L 39.9 58.35 39.8 58.4 39.75 58.4 39.7 58.45
Q 39.55 58.6 39.55 58.85 39.55 59.05 39.75 59.2
L 39.8 59.25 39.9 59.3 40.1 59.3 40.2 59.25 40.3 59.25 40.35 59.15
Q 40.5 59.1 40.5 58.95
L 40.5 58.7 40.45 58.6
M 34.6 61.5
Q 34.5 61.6 34.5 61.85 34.5 62.05 34.65 62.15 34.7 62.3 34.95 62.3 35.15 62.3 35.3 62.15
L 35.35 62.05 35.35 61.8 35.3 61.65 35.25 61.6 35.2 61.6 35.15 61.5 35.05 61.45
Q 34.9 61.4 34.85 61.45
L 34.75 61.45 34.6 61.5
M 31.7 58.5
L 31.7 58.55
Q 31.55 58.65 31.55 58.85
L 31.65 59.15 31.75 59.3 31.8 59.35
Q 32.15 59.45 32.3 59.25 32.6 58.95 32.4 58.6 32.1 58.3 31.85 58.45
L 31.75 58.45 31.7 58.5
M 34.85 52.8
L 34.8 52.65 34.75 52.6
Q 34.35 52.35 34.05 52.65
L 33.95 52.85 33.95 53.05 34 53.15 34 53.25
Q 34.2 53.45 34.4 53.45 34.65 53.45 34.8 53.3
L 34.85 53.25 34.85 53.15 34.9 53.05 34.9 52.85 34.85 52.8
M 40.45 54.8
L 40.35 54.8 40.25 54.9 40.15 54.95
Q 40.1 55.15 40.1 55.3 40.1 55.4 40.15 55.45 40.35 55.65 40.55 55.7
L 40.65 55.7 40.7 55.65 40.8 55.65 41 55.45 41 55.05 40.95 54.95 40.8 54.85 40.75 54.85 40.55 54.75 40.45 54.8
M 40.45 53.85
L 40.4 53.75 40.25 53.65 40.2 53.6 40.15 53.6 39.95 53.55 39.85 53.55 39.7 53.65
Q 39.35 53.9 39.75 54.3 39.9 54.4 39.95 54.45 40.25 54.55 40.4 54.3
L 40.45 54.2 40.45 53.85
M 36.3 55.15
Q 35.95 54.8 35.6 55.15
L 35.55 55.25 35.5 55.3 35.5 55.4 35.45 55.45
Q 35.45 55.95 35.95 55.95
L 36.05 56 36.1 55.95 36.2 55.95 36.3 55.9 36.35 55.85
Q 36.65 55.5 36.3 55.15
M 37.1 50.95
L 36.95 50.8
Q 36.55 50.55 36.25 50.85
L 36.25 50.9 36.2 51 36.15 51.15 36.15 51.25 36.25 51.45 36.55 51.65 36.8 51.65 37 51.55 37.05 51.45 37.1 51.4 37.15 51.25 37.15 51.05 37.1 50.95
M 36.45 47.3
L 36.4 47.3 36.25 47.35 36.1 47.5 36.05 47.6 36.05 47.7
Q 36 47.8 36.1 48
L 36.15 48.1 36.25 48.2 36.3 48.2
Q 36.5 48.35 36.7 48.2
L 36.85 48.15 36.9 48.1
Q 37.1 47.8 36.95 47.6 36.8 47.3 36.45 47.3
M 38.95 45.65
Q 38.85 45.7 38.8 45.75
L 38.7 46.05 38.7 46.3
Q 38.8 46.45 38.9 46.55
L 38.95 46.6 39.25 46.6 39.3 46.55 39.45 46.45
Q 39.65 46.25 39.55 46
L 39.55 45.95 39.45 45.8 39.4 45.7
Q 39.15 45.55 38.95 45.65
M 32.9 46.65
L 32.8 46.7 32.75 46.7 32.65 46.8
Q 32.35 47.1 32.7 47.45
L 32.75 47.5 32.95 47.6 33.05 47.6 33.15 47.55 33.3 47.45 33.35 47.4 33.45 47.2 33.45 47.05 33.4 47 33.35 46.85 33.3 46.8 33.3 46.75 33.25 46.75 33.1 46.7 33.05 46.65 32.9 46.65
M 34.6 40.2
L 34.4 40
Q 34.05 39.9 33.8 40.15
L 33.75 40.2 33.7 40.3 33.7 40.6 33.75 40.65
Q 33.85 41 34.2 41
L 34.25 41 34.3 40.95 34.4 40.95 34.55 40.85
Q 34.65 40.75 34.65 40.55
L 34.65 40.35 34.6 40.2
M 39.8 41.75
L 39.55 41.75 39.25 41.9
Q 39.1 42.05 39.1 42.3
L 39.1 42.35 39.15 42.45 39.15 42.5 39.25 42.6 39.35 42.65 39.4 42.7
Q 39.8 42.8 40.05 42.55
L 40.1 42.5 40.15 42.4 40.15 42.3 40.2 42.25 40.2 42.15 40.1 41.95 39.95 41.8 39.8 41.75
M 36.35 43.05
L 36.25 43.1 36.2 43.2
Q 36.05 43.45 36.3 43.8
L 36.35 43.8 36.45 43.85 36.5 43.9 36.8 43.9 36.95 43.8
Q 37.15 43.6 37.05 43.3
L 37.05 43.25 37 43.1 36.9 43.05
Q 36.65 42.8 36.35 43.05
M 29.05 44.35
Q 28.8 44.3 28.6 44.5
L 28.55 44.55 28.5 44.65 28.5 44.7 28.45 44.8
Q 28.55 45.25 28.85 45.3 29.1 45.45 29.35 45.2
L 29.45 45.05 29.5 45.05 29.5 44.7
Q 29.3 44.35 29.05 44.35
M 40.1 31.45
Q 40.1 31.3 40 31.2 39.7 30.9 39.4 31.15
L 39.35 31.2 39.3 31.3
Q 39.1 31.55 39.3 31.85
L 39.35 31.9 39.45 31.95 39.5 32 39.65 32 39.95 31.95 40 31.85 40.1 31.7 40.15 31.6 40.1 31.5 40.1 31.45
M 68.5 43.7
L 68.4 43.75
Q 68.25 43.85 68.25 44.15
L 68.4 44.45
Q 68.7 44.7 69.05 44.45
L 69.1 44.3 69.1 44.25
Q 69.15 44.05 69.05 43.85 69 43.8 68.75 43.65
L 68.65 43.7 68.5 43.7
M 64.75 47.15
L 64.7 47.1 64.6 47.1 64.55 47.15 64.4 47.2 64.35 47.25
Q 64 47.6 64.3 47.95
L 64.35 48 64.45 48.05 64.5 48.1 64.7 48.1 64.9 48.05 65 47.95 65.05 47.85 65.1 47.8 65.15 47.55 65.15 47.5 65.1 47.4 65.05 47.35 65 47.25 64.95 47.25 64.9 47.2 64.75 47.15
M 61.3 49.1
L 61.25 49.2
Q 61.1 49.55 61.35 49.8
L 61.4 49.8 61.5 49.85 61.55 49.9 61.7 49.9 61.8 49.85 61.85 49.85 61.95 49.75
Q 62.25 49.45 61.95 49.1
L 61.9 49.05 61.75 49 61.45 49 61.3 49.1
M 65.1 44.55
L 65 44.55 64.95 44.5 64.85 44.5
Q 64.6 44.45 64.4 44.65
L 64.35 44.75 64.3 44.8 64.25 44.95 64.25 45.25
Q 64.3 45.45 64.6 45.6
L 64.6 45.55 64.65 45.6 64.85 45.6 65 45.55 65.05 45.55 65.05 45.5 65.15 45.45 65.2 45.4 65.25 45.3 65.25 45.15 65.3 45.1 65.3 44.95 65.1 44.55
M 65.45 40.9
L 65.35 40.9 65.25 40.85 65 40.85 64.9 40.9 64.7 41.1 64.65 41.2 64.65 41.45 64.7 41.55 64.75 41.6
Q 64.85 41.75 65 41.75
L 65.1 41.8 65.2 41.8 65.4 41.7 65.55 41.6 65.6 41.5
Q 65.65 41.15 65.45 40.9
M 62.2 38.3
Q 62.1 38.45 62.2 38.65 62.25 38.75 62.35 38.85
L 62.7 38.95 63.05 38.85 63.1 38.7 63.1 38.45 63.05 38.4 63.05 38.35 63 38.25 62.85 38.1 62.7 38.05 62.45 38.05 62.35 38.15
Q 62.25 38.25 62.2 38.3
M 69.3 36.55
Q 69.15 36.7 69.15 36.95 69.15 37.15 69.35 37.3
L 69.55 37.4 69.75 37.4 69.85 37.35 69.95 37.25
Q 70.2 37.1 70.1 36.85 70.1 36.65 69.9 36.45
L 69.85 36.45 69.75 36.4 69.55 36.4 69.45 36.45 69.4 36.5 69.3 36.55
M 61.2 32.45
L 61.25 32.45 61.5 32.4 61.65 32.25 61.65 32.15 61.7 32.1 61.7 31.9 61.65 31.85
Q 61.65 31.8 61.55 31.7 61.3 31.4 60.85 31.65 60.55 31.95 60.8 32.35
L 60.85 32.4 61 32.45 61.1 32.5 61.2 32.45
M 60.2 49.05
L 60.15 49.1 60.15 49.4 60.2 49.5 60.2 49.55 60.25 49.6
Q 60.5 49.85 60.7 49.75 60.9 49.75 61.05 49.55
L 61.1 49.5 61.1 49.35 61.15 49.3 61.1 49.25 61.1 49.15 60.95 48.9 60.9 48.85 60.85 48.85 60.75 48.8 60.5 48.8
Q 60.35 48.8 60.2 49.05
M 58.05 47.25
L 58.1 47.3 58.35 47.35 58.6 47.35 58.7 47.25 58.8 47.2 58.8 47.15
Q 58.95 46.9 58.8 46.75 58.8 46.65 58.7 46.6 58.65 46.55 58.6 46.5
L 58.55 46.5
Q 58.2 46.2 57.85 46.55
L 57.8 46.6 57.8 46.7 57.75 46.9 57.75 47 57.8 47.1 57.9 47.15 58.05 47.25
M 56.35 46.15
L 56.1 46.15 56.05 46.2 55.85 46.3 55.85 46.35 55.8 46.4 55.75 46.5 55.75 46.8 55.8 46.85
Q 55.85 47 56.15 47.1
L 56.3 47.1 56.6 46.95
Q 56.8 46.75 56.7 46.5 56.6 46.2 56.35 46.15
M 60.4 46.15
L 60.35 46.2 60.35 46.45 60.4 46.6
Q 60.6 46.8 60.8 46.7 60.9 46.7 61.1 46.6 61.45 46.25 61.1 45.9
L 61 45.85 60.9 45.85
Q 60.7 45.8 60.45 46
L 60.4 46.05 60.35 46.15 60.4 46.15
M 59.4 46.3
Q 59.4263671875 46.258984375 59.45 46.2
L 59.4 46.05 59.4 46.3
M 54.4 48.45
L 54.4 48.65 54.45 48.75 54.45 48.85 54.6 48.95 54.65 49
Q 55.1 49.15 55.2 48.9 55.35 48.75 55.35 48.55
L 55.35 48.5 55.3 48.45 55.3 48.35 55.15 48.2
Q 54.85 47.95 54.5 48.3
L 54.45 48.35 54.4 48.45
M 53 49.1
L 52.95 49.15 52.9 49.3 52.85 49.4 52.85 49.55 52.95 49.75 53 49.8
Q 53.35 50 53.6 49.75
L 53.65 49.7 53.7 49.6 53.75 49.55 53.75 49.25 53.7 49.2
Q 53.65 49.1 53.4 48.95 53.15 48.95 53 49.1
M 51.6 49.45
L 51.25 49.45 51.2 49.5 51.1 49.5 51.05 49.55 51.05 49.6 51 49.65 50.95 49.65 50.9 49.8 50.85 49.8
Q 50.7 50.05 50.75 50.3
L 50.75 50.4 50.8 50.45 50.65 50.45 50.6 50.5 50.45 50.55 50.4 50.55 50.35 50.6 50.35 50.7 50.25 50.9 50.25 51 50.3 51.05 50.3 51.15 50.5 51.35
Q 50.8 51.55 51.05 51.3
L 51.15 51.15 51.2 51 51.2 50.8 51.15 50.7 51.4 50.65 51.7 50.7 51.85 50.75
Q 52.05 50.8 52.3 50.65
L 52.3 50.6 52.5 50.5 52.55 50.45 52.65 50.3 52.65 50.25 52.7 50.15 52.65 50.05 52.6 49.9 52.5 49.8 52.45 49.7
Q 52.25 49.55 52.1 49.65
L 52.1 49.6 52 49.55 51.85 49.55 51.6 49.5 51.65 49.5 51.6 49.45
M 52.15 47.5
L 52.1 47.55 52.05 47.7 52.05 47.9 52.1 48.05 52.15 48.1 52.2 48.2 52.25 48.2 52.4 48.25 52.45 48.3 52.55 48.3 52.75 48.2 52.8 48.2 52.9 48.1 52.95 47.95 52.95 47.65 52.9 47.6
Q 52.75 47.35 52.55 47.35 52.3 47.35 52.15 47.5
M 52.7 45.3
Q 52.7 45.1 52.55 45
L 52.5 44.95 52.4 44.9 52.25 44.9
Q 52.05 44.85 51.9 45 51.75 45.1 51.75 45.45 51.8 45.7 52.1 45.8
L 52.35 45.8 52.45 45.75 52.5 45.75 52.55 45.7
Q 52.7 45.55 52.7 45.3
M 53.85 45.9
L 53.75 46 53.75 46.2
Q 53.75 46.45 53.95 46.6 54.15 46.7 54.35 46.65
L 54.45 46.65 54.55 46.6
Q 54.7 46.45 54.7 46.25 54.7 46.05 54.55 45.9 54.25 45.5 53.85 45.9
M 55.55 44.3
L 55.6 44.35
Q 56 44.35 56.15 44.2
L 56.2 44.15 56.25 44 56.3 43.9 56.3 43.8 56.25 43.75 56.2 43.6 56.15 43.55
Q 55.8 43.25 55.45 43.6
L 55.4 43.65 55.4 43.75 55.35 43.9 55.35 44 55.4 44.1 55.45 44.15 55.55 44.3
M 53.15 42.5
L 53.1 42.6 53.1 42.85 53.2 43.05 53.25 43.05 53.25 43.1
Q 53.25 43.15 53.3 43.15 53.4 43.25 53.6 43.35 53.85 43.35 54 43.2
L 54.1 43.1 54.1 43.05 54.15 42.95 54.15 42.7 54.1 42.6 53.95 42.45 53.95 42.4 53.85 42.35 53.8 42.3 53.7 42.25 53.45 42.25 53.3 42.3 53.25 42.35 53.2 42.45 53.15 42.5
M 51.75 41.75
L 51.7 41.7 51.6 41.65 51.45 41.6 51.4 41.55 51.3 41.55 51.25 41.6 51.1 41.65 51.05 41.7
Q 50.7 42.05 51.05 42.45
L 51.1 42.45 51.2 42.5 51.25 42.55 51.55 42.55 51.7 42.4
Q 51.85 42.3 51.85 42.1
L 51.85 41.9 51.8 41.85 51.75 41.75
M 54 38.25
L 53.95 38.1 53.85 38 53.55 38 53.25 37.95 53.25 38 53.1 38.3 53.1 38.5 53.15 38.65 53.25 38.75 53.3 38.75 53.45 38.8 53.5 38.85 53.6 38.85 53.65 38.8 53.8 38.75 53.85 38.75 53.9 38.65 53.95 38.6 54 38.5 54 38.25
M 60.3 40.65
L 60.2 40.85 60.2 40.9
Q 60.1 41.15 60.2 41.3
L 60.25 41.35 60.4 41.45 60.45 41.5 60.7 41.5
Q 60.9 41.5 61 41.3
L 61.05 41.25 61.1 41.1 61.1 41.05 61.05 40.95 61.05 40.9 61 40.75 60.95 40.75
Q 60.7 40.45 60.3 40.65
M 57.9 43.1
L 57.9 43.15 57.8 43.25 57.8 43.45 57.85 43.6 57.85 43.65
Q 58 43.9 58.25 43.9
L 58.35 43.9 58.45 43.85 58.55 43.85 58.65 43.75 58.7 43.65 58.75 43.5 58.8 43.45 58.8 43.35 58.65 43.05
Q 58.3 42.8 57.9 43.1
M 56.2 40.1
L 56.2 40.15
Q 56.1 40.45 56.4 40.65 56.8 40.85 57 40.55 57.35 40.2 56.95 39.9
L 56.85 39.85 56.6 39.8 56.45 39.85 56.4 39.9 56.4 39.95 56.35 39.95 56.4 40 56.25 40 56.25 40.05 56.2 40.05 56.25 40.1 56.2 40.1
M 56.5 37.65
L 56.45 37.5 56.3 37.35 56.15 37.3 55.95 37.3 55.8 37.35 55.75 37.35 55.7 37.4
Q 55.55 37.65 55.55 37.8 55.55 38 55.75 38.2
L 55.8 38.2 55.95 38.25 56.15 38.25 56.25 38.2 56.45 38 56.5 37.9 56.5 37.65
M 49.7 47.7
L 49.7 47.75 49.65 47.8 49.6 48 49.6 48.1 49.65 48.2 49.85 48.4 50.25 48.6 50.3 48.65 50.5 48.7 50.6 48.7 50.8 48.6 50.9 48.45 50.95 48.4 50.95 48.35 51 48.3 51 48.25
Q 51.15 48 50.9 47.75
L 50.85 47.75 50.85 47.7 50.65 47.6 50.35 47.6 50.2 47.55 50.1 47.55
Q 49.85 47.55 49.7 47.7
M 47.75 49.25
L 47.75 49.3 47.7 49.35 47.7 49.55
Q 47.8 49.85 47.95 49.95
L 48 49.95 48.1 50 48.3 50 48.4 49.95 48.45 49.95 48.55 49.9
Q 48.7 49.75 48.7 49.55
L 48.7 49.45 48.65 49.35 48.65 49.25 48.55 49.15 48.45 49.1 48.4 49.1
Q 48.05 48.95 47.85 49.15
L 47.8 49.25 47.75 49.25
M 48 47.25
L 47.95 47.25 47.85 47.2 47.8 47.2 47.6 47.3 47.55 47.35
Q 47.5 47.35 47.4 47.6
L 47.4 47.85 47.45 47.9 47.5 48.05 47.55 48.1
Q 47.85 48.35 48.2 48
L 48.3 47.9 48.35 47.8 48.35 47.6 48.3 47.55 48.25 47.45 48.1 47.3 48 47.25
M 46.45 46.05
Q 46.1 45.8 45.75 46.15
L 45.7 46.2 45.7 46.25 45.65 46.35 45.65 46.6 45.7 46.7 45.9 46.9 46 46.95 46.3 46.95 46.35 46.9 46.45 46.85 46.45 46.8
Q 46.6 46.7 46.6 46.4
L 46.6 46.3 46.55 46.25 46.45 46.05
M 49.3 46.15
L 49.25 46.25
Q 49.25 46.65 49.55 46.8
L 49.65 46.8 49.75 46.85 49.8 46.85 49.9 46.8 49.95 46.8 50.05 46.75 50.1 46.7 50.2 46.65 50.3 46.5 50.35 46.4 50.35 46.3 50.4 46.15 50.4 46.1 50.35 45.95 50.3 45.85 50.2 45.8 50.15 45.75 50 45.7 49.8 45.7 49.6 45.8 49.5 45.9 49.5 45.95 49.4 46 49.3 46.15
M 48.85 45.15
L 48.8 45.15 48.7 45.1 48.45 45.1 48.25 45.2
Q 48.15 45.3 48.15 45.45
L 48.15 45.5 48.1 45.55 48.1 45.65 48.25 45.95
Q 48.65 46.25 48.95 45.95
L 49.1 45.5 49.05 45.45 49 45.35 49 45.3 48.85 45.15
M 50.2 44.05
L 50.25 44.1
Q 50.6 44.25 50.85 44
L 50.85 43.95 50.9 43.95 50.95 43.8 51 43.75 51 43.55 50.9 43.35 50.85 43.3 50.7 43.2 50.65 43.15
Q 50.35 43.1 50.2 43.25 50.05 43.4 50.05 43.7
L 50.05 43.75 50.1 43.8 50.1 43.9 50.15 43.95 50.2 44.05
M 45.45 48.5
Q 45.25 48.5 45 48.7
L 44.95 48.75 44.9 48.85 44.9 49.2 45.1 49.55 45.15 49.55 45.25 49.6 45.4 49.6
Q 45.65 49.7 45.8 49.6
L 45.95 49.6 46.05 49.55 46.15 49.55 46.2 49.45 46.25 49.4 46.3 49.3 46.3 49.2
Q 46.4 48.8 46 48.6 45.85 48.5 45.6 48.5
L 45.45 48.5
M 43.65 49.3
L 43.6 49.45 43.6 49.5
Q 43.6 49.85 43.9 50 44.3 50.1 44.45 49.9 44.7 49.65 44.6 49.35
L 44.5 49.25 44.5 49.2
Q 44.25 48.95 43.95 49.1
L 43.9 49.1 43.85 49.15 43.8 49.15 43.65 49.3
M 42.85 49.45
L 42.65 49.45 42.45 49.55 42.4 49.6 42.35 49.85 42.35 50 42.45 50.2 42.5 50.25
Q 42.6 50.35 42.75 50.35
L 42.8 50.35 42.9 50.3 43 50.3 43.15 50.15 43.25 49.95 43.25 49.85 43.2 49.75 43.2 49.65 43.05 49.5 42.85 49.45
M 43 48.05
L 42.9 48.05
Q 42.6 47.9 42.35 48.15
L 42.35 48.2 42.3 48.3 42.25 48.35 42.25 48.6 42.3 48.65
Q 42.3 48.9 42.65 48.95 42.9 49.05 43.05 48.8
L 43.15 48.7 43.2 48.6 43.2 48.35 43.15 48.25 43.1 48.2 43 48.05
M 40.8 49.2
L 40.85 49.05 40.85 48.8
Q 40.85 48.65 40.65 48.45
L 40.55 48.45 40.5 48.4 40.3 48.3 40.25 48.3 40.1 48.35 40.05 48.35 39.9 48.45 39.85 48.5 39.8 48.7 39.8 48.9 39.85 49 40 49.15 40.4 49.35
Q 40.65 49.35 40.8 49.2
M 40.9 43.95
Q 40.65 43.95 40.5 44.1
L 40.45 44.15 40.45 44.25 40.4 44.35 40.35 44.4 40.4 44.5 40.4 44.6 40.45 44.7 40.5 44.75
Q 40.65 44.85 40.7 44.9
L 40.75 44.95 41.1 44.95 41.25 44.85
Q 41.5 44.6 41.35 44.3
L 41.3 44.25 41.3 44.15
Q 41.1 43.95 40.9 43.95
M 44.15 46.25
Q 43.95 46.25 43.8 46.4
L 43.7 46.5 43.65 46.65 43.65 46.8 43.7 46.85 43.75 47 43.75 47.05 43.85 47.1 43.9 47.15 44 47.2 44.25 47.2 44.4 47.15 44.5 47.05 44.6 46.85 44.6 46.65 44.55 46.5 44.5 46.45
Q 44.3 46.25 44.15 46.25
M 43.55 44.5
Q 43.75 44.2 43.65 44 43.6 43.8 43.35 43.65
L 43.05 43.65 43 43.7 42.95 43.7 42.85 43.8
Q 42.6 44.05 42.7 44.35 42.85 44.65 43.2 44.65
L 43.35 44.65 43.35 44.6 43.4 44.6 43.5 44.5 43.55 44.5
M 45.45 43.95
L 45.35 43.75 45.3 43.7 45.2 43.65 45.05 43.6 44.85 43.6 44.8 43.65 44.65 43.75 44.6 43.8 44.55 44.05 44.55 44.2 44.65 44.4 44.7 44.45
Q 44.95 44.75 45.3 44.4
L 45.45 44.25 45.45 43.95
M 40.95 39.55
L 40.9 39.4 40.85 39.35 40.55 39.15 40.3 39.15 40.2 39.2 40.15 39.25 40.05 39.3 40 39.4 39.95 39.4 39.95 39.55 39.9 39.65 39.9 39.75 39.95 39.8 40 39.95 40.1 40
Q 40.5 40.35 40.85 40
L 40.9 39.95 41 39.75 41 39.7 40.95 39.6 40.95 39.55
M 46.75 42.6
L 46.7 42.65 46.6 42.7 46.45 42.95 46.5 42.95 46.45 43.05 46.45 43.25 46.5 43.35 46.55 43.4
Q 46.7 43.55 46.9 43.55 47.1 43.6 47.3 43.4
L 47.4 43.3 47.4 43.15 47.45 43.1 47.4 43 47.4 42.95 47.35 42.85 47.3 42.8 47.25 42.7 47.2 42.65 47.05 42.6 46.75 42.6
M 47 41.2
L 47.15 41.1 47.25 41.05 47.3 40.75 47.3 40.7 47.25 40.55 47.2 40.45 47.1 40.35 47 40.3
Q 46.65 40.3 46.45 40.45
L 46.4 40.5 46.35 40.6 46.35 40.85 46.4 41 46.45 41.05 46.7 41.2 47 41.2
M 50.2 39.05
L 50.15 38.95 50.1 38.9 50.1 38.85 50.05 38.8 49.95 38.75 49.6 38.75 49.55 38.8 49.45 38.85
Q 49.15 39.15 49.45 39.55
L 49.65 39.65 49.95 39.65 50.1 39.55 50.15 39.45
Q 50.25 39.4 50.25 39.25
L 50.25 39.1 50.2 39.05
M 48.5 38.35
L 48.4 38.15 48.4 38.1 48.3 38.05 48.3 38
Q 48 37.75 47.7 38.05
L 47.6 38.15 47.6 38.2 47.55 38.3 47.55 38.5 47.6 38.6 47.65 38.65
Q 47.85 38.85 48 38.85 48.25 38.85 48.4 38.7
L 48.4 38.65 48.45 38.55 48.5 38.35
M 49.6 35.35
L 49.6 35.25 49.7 35.1
Q 49.8 34.9 49.6 34.7
L 49.45 34.55 49.35 34.5 49.1 34.5 48.95 34.55 48.9 34.6 48.75 34.9 48.75 34.95
Q 48.5 35.25 48.8 35.55
L 48.85 35.6 48.9 35.6 48.95 35.65 49.05 35.65 49.1 35.7
Q 49.45 35.7 49.6 35.35
M 43.65 35.8
L 43.65 35.85 43.6 35.95
Q 43.4 35.95 43.25 36.1 43 36.25 43.1 36.5 43.2 36.8 43.4 36.85
L 43.45 36.9 43.6 36.85 43.7 36.85 43.8 36.8 43.95 36.65 44 36.55 44.05 36.55 44.15 36.5 44.25 36.5 44.4 36.35 44.5 36.15 44.5 36.05 44.45 35.9 44.4 35.85 44.3 35.7 44.25 35.65
Q 43.9 35.55 43.65 35.8
M 45.55 33.3
L 45.5 33.4 45.5 33.6 45.55 33.8 45.6 33.85 45.75 33.95 45.8 33.95 45.95 34 46 34 46.25 33.9 46.3 33.85 46.4 33.65 46.4 33.5 46.35 33.25 46.3 33.2 46.15 33.1 46 33.1 45.9 33.05 45.7 33.15 45.55 33.3
M 48.2 27.7
L 48.2 27.6
Q 48.2 27.35 48.05 27.2
L 47.95 27.1 47.85 27.1 47.8 27.05 47.65 27.05 47.6 27.1
Q 47.45 27.1 47.25 27.3
L 47.25 27.35 47.2 27.45 47.2 27.6 47.25 27.7 47.25 27.75
Q 47.3 27.8 47.4 27.95 47.65 28.3 48.05 28
L 48.1 27.95 48.15 27.8 48.2 27.7
M 59.2 36.15
L 59.15 36.2 59.15 36.4 59.2 36.65 59.35 36.8 59.45 36.8 59.6 36.85 59.65 36.85 60 36.65 60.05 36.55 60.05 36.25 60 36.1 59.95 36.05
Q 59.7 35.8 59.35 35.95
L 59.3 36 59.2 36.15
M 52.9 30.3
L 52.9 30.35 52.85 30.4 52.85 30.55 52.9 30.65 52.95 30.7 52.95 30.75 53 30.8
Q 53.3 31.1 53.7 30.8 54 30.5 53.75 30.2
L 53.7 30.15 53.6 30.1 53.55 30.05 53.5 30.05
Q 53.05 29.9 52.9 30.3 Z"/>
</g>
</defs>

<g transform="matrix( 1, 0, 0, 1, 0,0) ">
<use xlink:href="#Layer2_0_FILL"/>
</g>
</svg>
