
<svg xmlns="http://www.w3.org/2000/svg" version="1.1" xmlns:xlink="http://www.w3.org/1999/xlink" preserveAspectRatio="none" x="0px" y="0px" width="100px" height="100px" viewBox="0 0 100 100">
<defs>
<g id="Layer2_0_FILL">
<path fill="#000000" stroke="none" d="
M 50.85 74.4
L 50.8 74.45 50.85 74.5 51 74.55 51.1 74.55
Q 51.15 74.6 51.2 74.45
L 51.2 74.35 51.1 74.25 51 74.25 50.95 74.2
Q 50.8 74.35 50.85 74.4
M 56.45 75.2
L 56.45 75.1 56.35 75
Q 56.3 75.05 56.25 75.1
L 56.2 75.15
Q 56.2 75.25 56.3 75.25
L 56.4 75.25 56.45 75.2
M 59.15 74.1
L 59.1 74.15 59.25 74.3 59.3 74.25 59.4 74.25 59.45 74.2 59.4 74.15 59.4 74.05 59.25 74
Q 59.2 74.05 59.15 74.1
M 58.3 70.25
L 58.3 70.35 58.35 70.5 58.55 70.5 58.6 70.45
Q 58.6 70.35 58.55 70.3
L 58.55 70.2 58.5 70.15 58.45 70.2 58.45 70.15 58.35 70.2 58.3 70.25
M 60.1 69.55
L 60.05 69.6 60.1 69.65 60.2 69.65
Q 60.35 69.7 60.45 69.6
L 60.4 69.55 60.45 69.5 60.35 69.4 60.4 69.35 60.3 69.35 60.25 69.3 60.15 69.4 60.1 69.55
M 59.95 68.7
L 59.9 68.55
Q 59.75 68.6 59.8 68.7 59.65 68.85 59.85 68.95 59.95 69.25 60.15 69.1
L 60.05 68.95 60.1 68.95
Q 60.05 68.75 60 68.7
L 59.95 68.7
M 54.7 71.85
L 54.6 71.75 54.4 71.75 54.35 71.8 54.4 71.95 54.45 72 54.6 72.05 54.7 71.85
M 51.15 70.3
Q 51.2 70.25 51.15 70.1
L 51.1 70.05 51 70.05 50.9 70.15
Q 50.8 70.35 51 70.35
L 51.05 70.4 51.15 70.3
M 52 68.65
L 52.15 68.8 52.25 68.8
Q 52.3 68.85 52.35 68.8
L 52.4 68.75 52.4 68.65
Q 52.45 68.6 52.4 68.55
L 52.2 68.35 52 68.55 52 68.65
M 55.55 68.3
L 55.65 68.4 55.75 68.4 55.85 68.3
Q 55.9 68.25 55.8 68.15
L 55.85 68.1 55.75 68.1 55.7 68.05 55.6 68.05
Q 55.5 68.25 55.55 68.3
M 54.5 65.25
L 54.5 65.35 54.65 65.5 54.85 65.5 54.9 65.45
Q 55 65.25 54.7 65.15
L 54.65 65.1 54.5 65.25
M 54.8 63.6
Q 54.65 63.7 54.65 63.8
L 54.65 64 54.9 64
Q 55.05 64.05 55.15 64
L 55.25 63.95 55.3 63.85 55.1 63.6
Q 55 63.55 54.8 63.6
M 53.2 62.65
Q 53.25 62.6 53.3 62.45
L 53.15 62.3 52.95 62.3 52.85 62.4
Q 52.85 62.6 53 62.65
L 53.05 62.7 53.15 62.7 53.2 62.65
M 53.3 63.25
L 53.2 63.15
Q 53.15 63.1 53.1 63.25 53.05 63.3 53.05 63.4
L 53.1 63.45 53.25 63.4 53.3 63.25
M 54.8 62.85
Q 54.65 62.95 54.65 63.05
L 54.65 63.25 54.9 63.25
Q 55.05 63.3 55.15 63.25
L 55.25 63.2 55.3 63.1 55.1 62.85
Q 55 62.8 54.8 62.85
M 54.5 63.2
L 54.55 63.1 54.35 62.85
Q 54.25 62.8 54.05 62.85 53.9 62.95 53.9 63.05
L 53.9 63.25 54.15 63.25
Q 54.3 63.3 54.4 63.25
L 54.5 63.2
M 55.3 62.6
L 55.1 62.35
Q 55 62.3 54.8 62.35 54.65 62.45 54.65 62.55
L 54.65 62.75 54.9 62.75
Q 55.05 62.8 55.15 62.75
L 55.25 62.7 55.3 62.6
M 57.55 67.6
L 57.55 67.7 57.6 67.75 57.7 67.75 57.75 67.8 57.85 67.7
Q 57.9 67.6 57.85 67.55
L 57.75 67.45
Q 57.7 67.45 57.6 67.55
L 57.55 67.6
M 57.7 65.25
L 57.6 65.15 57.5 65.15 57.45 65.2 57.45 65.3 57.5 65.35 57.5 65.45 57.6 65.45 57.65 65.5 57.75 65.4 57.75 65.3 57.8 65.25 57.75 65.2 57.7 65.25
M 56.2 64.55
Q 56.2 64.45 56.1 64.45 56.05 64.4 55.95 64.5
L 55.9 64.55 55.85 64.5 55.85 64.7 56 64.85 56.1 64.85 56.15 64.8 56.2 64.65 56.2 64.55
M 55.9 63.25
L 56 63.2 56.05 63.1 55.85 62.85
Q 55.7814453125 62.8158203125 55.65 62.8 55.672265625 62.75 55.6 62.75
L 55.5 62.75 55.45 62.8 55.4 62.95 55.4 63.25 55.65 63.25
Q 55.8 63.3 55.9 63.25
M 58.65 64.4
Q 58.55 64.4 58.55 64.55
L 58.55 64.6 58.65 64.7 58.75 64.7 58.8 64.65 58.8 64.45 58.7 64.35 58.65 64.4
M 58.8 63.85
L 58.65 63.9 58.6 63.95 58.6 64.05 58.65 64.1 58.65 64.2 58.7 64.25 58.75 64.2 58.85 64.3 58.95 64.3
Q 59 64.35 59.05 64.3
L 59.1 64.25 59.1 64.15 58.8 63.85
M 50.5 71.75
L 50.5 71.65 50.45 71.6
Q 50.3 71.55 50.2 71.65
L 50.25 71.8 50.3 71.85
Q 50.4 71.85 50.45 71.8
L 50.5 71.75
M 47.65 71.75
L 47.55 71.6
Q 47.35 71.45 47.15 71.65
L 46.95 71.75 46.85 71.95 47.05 72.25 47.3 72.25 47.65 71.75
M 47 70.95
L 46.95 71 46.85 71.2 47.05 71.5 47.3 71.5 47.65 71 47.55 70.85
Q 47.4966796875 70.8099609375 47.45 70.8
L 47.65 70.5 47.55 70.35
Q 47.35 70.2 47.15 70.4
L 46.95 70.5 46.85 70.7 47 70.95
M 46.4 70.9
L 46.2 71 46.1 71.2 46.3 71.5 46.55 71.5 46.9 71 46.8 70.85
Q 46.6 70.7 46.4 70.9
M 45.9 70.05
L 46 70.15
Q 46.2 70.05 46.2 69.95 46.2 69.85 46.15 69.8
L 46.1 69.75 46.05 69.8 46 69.75 45.9 69.75 45.9 70.05
M 48.4 71
L 48.3 70.85
Q 48.1 70.7 47.9 70.9
L 47.7 71 47.6 71.2 47.8 71.5 48.05 71.5 48.4 71
M 49.75 68.9
L 49.75 69 49.85 69.1
Q 49.95 69.1 50.05 69
L 50.05 68.9 50 68.85 49.9 68.85 49.75 68.9
M 42.7 70.8
L 42.5 70.8 42.5 70.85 42.45 70.85 42.45 70.9 42.5 71.1 42.55 71.1
Q 42.6 71.15 42.7 71.1
L 42.75 71.1 42.85 71 42.8 70.85 42.7 70.8
M 43.85 65.55
L 43.8 65.5 43.75 65.4 43.6 65.4 43.6 65.65 43.75 65.65 43.85 65.55
M 42.4 67.75
Q 42.45 67.65 42.45 67.6
L 42.4 67.55 42.25 67.55 42.2 67.6 42.2 67.7
Q 42.25 67.8 42.4 67.75
M 40.95 65.7
L 40.95 65.55
Q 40.85 65.5 40.75 65.5 40.7 65.55 40.7 65.65
L 40.75 65.7 40.75 65.75 40.8 65.8 40.85 65.8 40.95 65.7
M 41.55 64.7
L 41.65 64.8 41.9 64.9 42.1 64.9 42.2 64.85 42.35 64.55 42.35 64.3 42.2 64.3 42 64.2
Q 41.95 64.15 41.75 64.2
L 41.65 64.3 41.55 64.5 41.55 64.7
M 41.5 62.4
Q 41.45 62.4 41.4 62.5
L 41.4 62.6 41.45 62.7 41.65 62.7 41.75 62.5 41.7 62.5 41.7 62.4
Q 41.65 62.35 41.6 62.35
L 41.55 62.35 41.5 62.4
M 43.1 63.7
L 43.1 63.55 42.95 63.55 42.75 63.45
Q 42.7 63.4 42.5 63.45
L 42.4 63.55 42.35 63.65 42.35 63.55 42.2 63.55 42.35 63.3 42.35 63.05 42.2 63.05 42 62.95
Q 41.95 62.9 41.75 62.95
L 41.65 63.05 41.55 63.25 41.55 63.45 41.65 63.55 41.6 63.65 41.6 63.55 41.45 63.55 41.25 63.45
Q 41.2 63.4 41 63.45
L 40.9 63.55 40.8 63.75 40.8 63.95 40.9 64.05 41.15 64.15 41.35 64.15 41.45 64.1 41.55 63.9 41.55 63.95 41.65 64.05 41.9 64.15 42.1 64.15 42.2 64.1 42.3 63.9 42.3 63.95 42.4 64.05 42.65 64.15 42.85 64.15 42.95 64.1 43.1 63.8 43.1 63.75 43.15 63.85 43.25 63.9 43.35 63.8 43.35 63.7
Q 43.25 63.65 43.15 63.65
L 43.1 63.7
M 43.3 62.1
Q 43.2 62.1 43.2 62.25
L 43.2 62.4 43.35 62.4
Q 43.55 62.35 43.4 62.2
L 43.4 62.15 43.35 62.1 43.3 62.1
M 44.55 62.5
Q 44.45 62.5 44.45 62.6
L 44.4 62.65 44.35 62.8 44.5 62.85 44.55 62.9 44.7 62.85 44.75 62.75 44.75 62.6 44.55 62.5
M 50.3 65.35
L 50.15 65.5 50.3 65.65
Q 50.4 65.65 50.45 65.6 50.5 65.45 50.45 65.4
L 50.35 65.4 50.3 65.35
M 47.95 68
L 48.05 68 48.1 68.05 48.25 67.9 48.15 67.8 48.05 67.8 48 67.75 47.95 67.8 47.95 68
M 46.15 65.4
Q 46.05 65.5 46.1 65.55
L 46.1 65.6 46.2 65.7 46.25 65.7 46.4 65.55 46.4 65.5 46.35 65.45
Q 46.2 65.35 46.15 65.4
M 47.4 65.25
L 47.5 65.25 47.6 65.15 47.6 65.05 47.55 65
Q 47.4 64.95 47.35 65.1 47.35 65.2 47.4 65.25
M 50.3 63.15
Q 50.4 63.4 50.55 63.5
L 50.65 63.55 50.65 63.5 50.7 63.55 50.75 63.5 50.85 63.55 51.05 63.4 51.1 63.25
Q 51.1923828125 63.4283203125 51.3 63.5 51.1 63.6 51.05 63.9 51.15 64.15 51.3 64.25
L 51.4 64.3 51.5 64.25 51.6 64.3 51.8 64.15 51.9 63.95 51.9 63.85
Q 51.9 63.6 51.7 63.5
L 51.65 63.5 51.8 63.4 51.85 63.25
Q 51.9423828125 63.4283203125 52.05 63.5
L 52.15 63.55 52.25 63.5 52.35 63.55 52.55 63.4 52.65 63.2 52.65 63.1
Q 52.65 62.85 52.45 62.75 52.2 62.6 52.05 62.75 51.9357421875 62.8072265625 51.85 62.9 51.8529296875 62.8861328125 51.8 62.85
L 51.9 62.7 51.9 62.6
Q 51.9 62.35 51.7 62.25 51.45 62.1 51.3 62.25 51.1 62.35 51.05 62.65 51.1001953125 62.7755859375 51.15 62.85 51.1466796875 62.9037109375 51.1 62.95 51.0779296875 62.8140625 50.95 62.75 50.7 62.6 50.55 62.75 50.35 62.85 50.3 63.15
M 48.75 61.8
Q 48.8 61.75 48.7 61.75 48.6 61.65 48.55 61.7
L 48.5 61.75 48.55 61.8
Q 48.5 61.85 48.5 61.9
L 48.55 61.95 48.65 62 48.8 61.95
Q 48.85 61.9 48.75 61.8
M 49.8 59.5
Q 50 59.55 49.9 59.45
L 49.95 59.4 49.95 59.3
Q 49.9 59.25 49.85 59.3
L 49.75 59.4 49.75 59.5 49.8 59.5
M 45.85 59.85
Q 46 59.85 46.05 59.8
L 46.05 59.6 45.95 59.55
Q 45.9 59.5 45.8 59.55
L 45.75 59.6 45.75 59.75 45.8 59.75 45.85 59.85
M 46.45 58.3
L 46.55 58.4 46.7 58.35 46.75 58.3 46.75 58.2 46.6 58.05 46.45 58.2 46.45 58.3
M 49.7 57.85
L 49.75 57.8
Q 49.9 57.85 49.9 57.75
L 49.9 57.65 49.8 57.55 49.7 57.65
Q 49.65 57.7 49.65 57.8
L 49.7 57.85
M 49.7 55.95
L 49.6 56.05 49.6 56.15 49.65 56.2
Q 49.75 56.3 49.9 56.25
L 49.85 56.2 49.9 56.15 49.9 56.05
Q 49.9 55.95 49.7 55.95
M 44.55 61.6
L 44.55 61.7 44.5 61.7 44.5 61.8
Q 44.55 61.9 44.7 61.9
L 44.75 61.8 44.75 61.7
Q 44.7 61.6 44.65 61.6
L 44.55 61.6
M 42.05 58.95
L 42.05 59.1 42.1 59.2 42.2 59.2 42.3 59.1 42.3 59.05 42.2 58.95 42.05 58.95
M 43.05 56.05
L 43.15 56.05 43.2 56 43.2 55.9 43.1 55.8 43 55.8 42.95 55.85 42.95 55.95 43.05 56.05
M 43.5 55.8
L 43.35 55.8 43.25 55.9 43.25 56.25 43.55 56.25 43.65 56.15 43.65 55.9 43.5 55.8
M 45.35 56.5
Q 45.35 56.4830078125 45.35 56.45
L 45.25 56.15 45.15 56.1
Q 44.95 56 44.65 56 44.25 56.1 44.1 56.4 44.057421875 56.442578125 44 56.5 43.9703125 56.5 43.9 56.5 43.5 56.6 43.35 56.9 43.2 57.05 43.3 57.45
L 43.45 57.65 43.65 57.75 43.85 57.8 44 57.75 44.05 57.7
Q 43.9734375 57.894140625 44.05 58.2
L 44.2 58.4 44.4 58.5 44.6 58.55 44.75 58.5
Q 45.2986328125 58.3171875 45.35 57.8
L 45.5 57.75
Q 46.1 57.55 46.1 56.95
L 46 56.65 45.9 56.6
Q 45.7 56.5 45.4 56.5 45.3734375 56.506640625 45.35 56.5
M 41.5 51.4
L 41.4 51.25
Q 41.25 51.1 41.25 51.25
L 41.15 51.25 41.1 51.3 41.05 51.4
Q 41.05 51.55 41.15 51.55
L 41.35 51.55 41.5 51.4
M 43.25 51.3
Q 43.2724609375 51.2671875 43.25 51.2 43.2 51 42.85 50.75
L 42.45 50.85 42.25 50.95 42.25 50.9
Q 42.1453125 51.0396484375 42.1 51.25
L 41.7 51.35 41.5 51.45 41.5 51.4
Q 41.35 51.6 41.3 51.95 41.25 52.35 41.4 52.45 41.5 52.75 41.8 52.75
L 42.05 52.65 42.05 52.7
Q 42 53.1 42.15 53.2 42.25 53.5 42.55 53.5
L 42.8 53.4 42.95 53.3 43 53.15 43.05 53.1
Q 43.269921875 52.97421875 43.3 52.75
L 43.55 52.65 43.7 52.55 43.75 52.4 43.8 52.35
Q 44.15 52.15 44 51.7 43.95 51.5 43.6 51.25
L 43.25 51.3
M 45.3 50
L 45.25 49.95 45.05 49.85
Q 44.9 49.85 44.9 50 44.85 50.05 44.9 50.15 44.9 50.3 45.05 50.3
L 45.1 50.3 45.15 50.25
Q 45.25 50.25 45.3 50.15
L 45.3 50
M 45.65 54.5
L 45.75 54.5 45.8 54.45 45.75 54.4 45.8 54.35 45.8 54.25 45.75 54.2 45.7 54.25 45.55 54.3 45.55 54.4 45.65 54.5
M 59.75 60.7
L 59.7 60.65 59.65 60.7
Q 59.6 60.7 59.6 60.85
L 59.55 60.9 59.65 61 59.75 61 59.85 60.9
Q 59.9 60.75 59.85 60.7
L 59.75 60.7
M 57.1 60.95
L 57.05 61
Q 57.05 61.1 57.1 61.15
L 57.1 61.25 57.2 61.35 57.35 61.3 57.4 61.25 57.5 61.25 57.5 61.15 57.55 61.1 57.55 61 57.5 60.95 57.35 60.9 57.3 60.85 57.2 60.95 57.1 60.95
M 58.15 59.2
L 58 59.35 58.05 59.45 58.1 59.5 58.2 59.55 58.3 59.45 58.35 59.3
Q 58.35 59.2 58.25 59.2
L 58.15 59.2
M 56.5 56.75
L 56.35 56.6 56.25 56.6 56.2 56.65
Q 56.15 56.8 56.3 56.85
L 56.4 56.85 56.5 56.75
M 59.7 56.3
L 59.5 56.25 59.3 56.25 59.15 56.35 59.05 56.65 59.1 56.9 59.1 56.95 59.05 56.9 58.95 56.8 58.75 56.75 58.55 56.75 58.4 56.85 58.3 57.15 58.4 57.5 58.5 57.5 58.7 57.6 58.85 57.55 59 57.45 59.05 57.3 59.05 57.25 59.15 57.5 59.25 57.5 59.25 57.5 59.15 57.6 59.05 57.9 59.15 58.25 59.25 58.25 59.45 58.35 59.6 58.3 59.75 58.2 59.8 58.05 59.9 57.9 59.9 57.8 59.8 57.65 59.7 57.55 59.6 57.5 59.75 57.45 59.8 57.3 59.8 57.25 59.9 57.5 60 57.5 60.2 57.6 60.35 57.55 60.5 57.45 60.55 57.3 60.65 57.15 60.65 57.05 60.55 56.9 60.45 56.8 60.25 56.75 60.05 56.75 59.9 56.85 59.85 56.95 59.8 56.9 59.75 56.85 59.8 56.8 59.9 56.65 59.9 56.55 59.8 56.4 59.7 56.3
M 54.9 60.55
L 54.75 60.6 54.7 60.65 54.7 60.75 54.85 60.9 54.95 60.9 55 60.85 55.05 60.7 54.9 60.55
M 54.25 60.5
L 54.35 60.6
Q 54.45 60.6 54.5 60.55
L 54.5 60.5 54.55 60.4 54.45 60.3 54.35 60.3 54.25 60.4 54.25 60.5
M 54.3 61.05
L 54.15 61.1 54.15 61.2 54.1 61.25 54.2 61.35 54.3 61.35 54.4 61.25 54.35 61.2 54.35 61.1 54.3 61.05
M 55.65 59.3
L 55.55 59.4
Q 55.55 59.4634765625 55.55 59.5
L 55.2 59.6
Q 54.9 59.65 55 60.05
L 55.4 60.3 55.75 60.2 55.8 60.05 56.15 60.3 55.95 60.35
Q 55.65 60.4 55.75 60.8
L 56.15 61.05 56.5 60.95 56.55 60.8 56.55 60.5 56.45 60.4 56.45 60.35 56.3 60.25 56.5 60.2 56.55 60.05 56.9 60.3 57.25 60.2 57.3 60.05 57.3 59.75 57.2 59.65 57.2 59.6 57.05 59.5 56.7 59.6
Q 56.5671875 59.6220703125 56.5 59.7
L 56.5 59.7 56.55 59.55 56.55 59.25 56.45 59.15 56.45 59.1 56.3 59 55.95 59.1
Q 55.762109375 59.13125 55.7 59.3
L 55.65 59.3
M 55.75 59.55
L 55.85 59.6
Q 55.80234375 59.6548828125 55.75 59.7
L 55.7 59.65 55.7 59.6
Q 55.734375 59.611328125 55.75 59.55
M 52.2 59.75
L 52.1 59.65 51.9 59.65 51.8 59.75 51.75 59.9 51.75 60 51.85 60.1 51.95 60.1 52 60.05 52.05 60.1 52.1 60.05
Q 52.2 60.05 52.1 59.95
L 52.15 59.9 52.2 59.75
M 53.45 58.4
L 53.55 58.5 53.7 58.45 53.75 58.4 53.75 58.2
Q 53.7 58.15 53.55 58.2
L 53.45 58.3 53.45 58.4
M 54.65 54.7
L 54.6 54.6
Q 54.5 54.65 54.5 54.7
L 54.45 54.75 54.4 54.85 54.45 54.9 54.65 54.9 54.7 54.85 54.7 54.75 54.65 54.7
M 51.35 52.15
L 51.25 52.35 51.15 52.6
Q 51.0349609375 52.55 50.85 52.55
L 50.6 52.65 50.5 52.85 50.4 53.15 50.4 53.2 50.35 53.2 50.15 53.2 50.05 53.25 50.05 53.3 50 53.35 50 53.4 50.05 53.7 50.1 53.7
Q 50.25 53.85 50.35 53.75
L 50.45 53.75 50.6 53.6 50.55 53.4 50.9 53.65 51.1 53.7
Q 51.1677734375 53.685546875 51.2 53.65
L 51.15 53.9 51.2 54.1 51.65 54.4 51.85 54.45
Q 52.55 54.3 52.4 53.8
L 52.25 53.55 52.4 53.65 52.6 53.7
Q 53.3 53.55 53.15 53.05
L 53 52.8 52.75 52.65
Q 52.615234375 52.56015625 52.4 52.55
L 52.25 52.3 52 52.15
Q 51.85 52.05 51.6 52.05
L 51.35 52.15
M 59.25 53
L 59.35 53
Q 59.55 52.9 59.5 52.75
L 59.35 52.6 59.25 52.6
Q 59.2 52.65 59.15 52.7
L 59.1 52.75 59.1 52.85 59.25 53
M 57.45 55.6
L 57.45 55.45
Q 57.35 55.4 57.25 55.5
L 57.2 55.45
Q 57.15 55.6 57.2 55.65
L 57.25 55.65 57.2 55.75 57.25 55.7 57.3 55.75
Q 57.4 55.75 57.45 55.6
M 57.8 53.75
L 57.85 53.8
Q 57.9 53.95 58.05 53.9
L 58.15 53.8 58.15 53.7 58 53.55
Q 57.85 53.6 57.85 53.7
L 57.8 53.75
M 55.8 52.15
Q 56.2 51.9 56.15 51.45 56.1 50.95 55.7 50.85
L 55.5 50.85 55.4 50.85
Q 55.3236328125 50.443359375 54.95 50.35
L 54.75 50.35 54.6 50.4 54.45 50.5
Q 54.344140625 50.605859375 54.25 50.85
L 54 50.85 53.85 50.9 53.7 51
Q 53.55 51.15 53.4 51.6
L 53.5 51.95 53.65 52.15
Q 53.8724609375 52.2833984375 54.2 52.15 54.1806640625 52.258203125 54.15 52.35
L 54.25 52.7 54.4 52.9
Q 54.65 53.05 55.05 52.9 55.4392578125 52.656640625 55.4 52.2 55.5779296875 52.233203125 55.8 52.15
M 57.4 50.85
L 57.25 51 57.25 51.1 57.35 51.1 57.45 51.2
Q 57.65 51.2 57.55 50.9
L 57.5 50.85 57.4 50.85
M 65.95 69.1
Q 65.95 69.2 66.1 69.15
L 66.2 69.15
Q 66.3 69.05 66.3 68.95
L 66.1 68.75
Q 65.95 68.8 65.95 68.9 65.85 69 65.9 69.05
L 65.95 69.1
M 65.65 72
L 65.6 72.05 65.6 72.35 65.7 72.35
Q 65.75 72.4 65.85 72.3
L 66 72.15 65.85 72
Q 65.75 71.9 65.65 72
M 60.85 71.9
Q 61 71.85 61 71.65
L 60.95 71.6 60.85 71.6 60.8 71.55 60.7 71.65 60.7 71.6 60.65 71.65 60.6 71.75 60.65 71.9 60.85 71.9
M 62.55 70.4
L 62.65 70.5 62.75 70.5
Q 62.9 70.45 62.85 70.3
L 62.65 70.3 62.55 70.4
M 60.8 69.7
L 60.85 69.7
Q 60.8 69.5 60.75 69.45
L 60.7 69.45 60.65 69.3
Q 60.5 69.35 60.55 69.45 60.4 69.6 60.6 69.7 60.7 70 60.9 69.85
L 60.8 69.7
M 60.8 68.95
L 60.85 68.95
Q 60.8 68.75 60.75 68.7
L 60.7 68.7 60.65 68.55
Q 60.5 68.6 60.55 68.7 60.4 68.85 60.6 68.95 60.7 69.25 60.9 69.1
L 60.8 68.95
M 60.85 68.45
Q 60.8 68.25 60.75 68.2
L 60.7 68.2 60.65 68.05
Q 60.5125 68.0958984375 60.55 68.15 60.5078125 68.1806640625 60.45 68.2
L 60.4 68.25 60.4 68.45 60.45 68.4 60.5 68.45
Q 60.5427734375 68.45 60.55 68.4
L 60.6 68.45
Q 60.6203125 68.5109375 60.65 68.55 60.740625 68.71953125 60.9 68.6
L 60.8 68.45 60.85 68.45
M 61.45 68.7
L 61.4 68.55
Q 61.25 68.6 61.3 68.7 61.15 68.85 61.35 68.95 61.45 69.25 61.65 69.1
L 61.55 68.95 61.6 68.95
Q 61.55 68.75 61.5 68.7
L 61.45 68.7
M 63.6 69.05
L 63.65 69.1 63.9 69.05
Q 63.95 69 63.9 68.85 63.8 68.75 63.75 68.8
L 63.65 68.8 63.6 68.85
Q 63.6 68.95 63.65 69
L 63.6 69.05
M 63.7 66.05
Q 63.8 66.15 63.9 66.15
L 64 66.05 63.85 65.9 63.75 65.9 63.65 66 63.7 66.05
M 61.3 64.55
L 61.25 64.5 61.1 64.55 61 64.65 61 64.75 61.05 64.8 61.05 64.9 61.2 64.95 61.25 64.9 61.35 64.9
Q 61.45 64.8 61.3 64.55
M 61.65 63.3
L 61.55 63.3 61.4 63.45 61.4 63.55 61.45 63.6 61.6 63.65 61.7 63.55
Q 61.75 63.5 61.75 63.4
L 61.65 63.3
M 65.95 63.6
L 65.9 63.45 65.8 63.45 65.65 63.6 65.65 63.7 65.75 63.8 65.9 63.75
Q 65.95 63.65 65.95 63.6
M 67.35 66.9
Q 67.45 67 67.5 66.95
L 67.6 66.85 67.5 66.75 67.4 66.75 67.35 66.9
M 66.8 58.95
Q 66.7 59.05 66.75 59.1
L 66.85 59.2 67 59.15 66.95 59.1 67 59.05 66.9 58.95 66.8 58.95
M 65.25 59.45
L 65 59.3 64.75 59.25 64.65 59.5
Q 64.9 59.8 65.15 59.7 65.3 59.55 65.25 59.45
M 62.95 61
Q 62.9 61.15 63.05 61.2
L 63.1 61.15 63.2 61.15 63.25 61 63.2 60.9 63.15 60.85 63.05 60.9 62.95 61
M 61.7 59.25
L 61.8 59.25 61.85 59.3 61.9 59.25
Q 62.05 59.1 61.95 59 62 58.95 61.85 58.9
L 61.75 58.9 61.6 59.05
Q 61.6 59.15 61.7 59.25
M 61.6 56.25
L 61.75 56.3 61.85 56.3 61.9 56.25
Q 61.95 56.1 61.8 56.05
L 61.7 56.05 61.65 56.1 61.6 56.25
M 65.5 58.5
L 65.4 58.75
Q 65.65 59.05 65.9 58.95 66.05 58.8 66 58.7
L 65.75 58.55 65.5 58.5
M 64.65 58.25
Q 64.9 58.55 65.15 58.45 65.3 58.3 65.25 58.2
L 65 58.05 64.75 58 64.65 58.25
M 64.75 58.5
L 64.65 58.75
Q 64.9 59.05 65.15 58.95 65.3 58.8 65.25 58.7
L 65 58.55 64.75 58.5
M 64.5 58.7
L 64.25 58.55 64 58.5 63.9 58.75
Q 64.15 59.05 64.4 58.95 64.55 58.8 64.5 58.7
M 64.85 55.6
L 64.9 55.65 64.85 55.7 65 55.75 65.1 55.75 65.15 55.7 65.15 55.6 65 55.45 64.85 55.6
M 61 54.35
L 60.85 54.25 60.4 54.05 60.3 54.05 60.25 53.85 60.1 53.75 59.65 53.55 59.3 53.65 59.05 53.8 58.95 54.05 58.95 54.05 58.9 54.05 58.55 54.15 58.3 54.3 58.2 54.55 58.2 54.75
Q 58.461328125 55.490234375 58.95 55.4
L 58.95 55.5
Q 59.25 56.35 59.85 56.1
L 60.2 56 60.3 55.85 60.35 55.7 60.35 55.4
Q 60.4615234375 55.4076171875 60.6 55.35
L 60.95 55.25 61.05 55.1 61.1 54.95 61.1 54.7 61 54.35
M 62.6 51.05
L 62.45 51.05 62.55 51.2 62.5 51.25
Q 62.5 51.35 62.55 51.45
L 62.6 51.4 62.65 51.55
Q 62.95 51.5 62.75 51.15
L 62.6 51.05
M 61.1 51.05
L 60.95 51.05 61.05 51.2 61 51.25
Q 61 51.35 61.05 51.45
L 61.1 51.4 61.15 51.55
Q 61.45 51.5 61.25 51.15
L 61.1 51.05
M 61.85 51.8
L 61.7 51.8 61.8 51.95 61.75 52
Q 61.75 52.1 61.8 52.2
L 61.85 52.15 61.9 52.3
Q 62.2 52.25 62 51.9
L 61.85 51.8
M 61.85 51.05
L 61.7 51.05 61.8 51.2 61.75 51.25
Q 61.75 51.35 61.8 51.45
L 61.85 51.4 61.9 51.55
Q 62.2 51.5 62 51.15
L 61.85 51.05
M 61.85 50.55
L 61.7 50.55 61.8 50.7 61.75 50.75
Q 61.75 50.85 61.8 50.95
L 61.85 50.9 61.9 51.05
Q 62.2 51 62 50.65
L 61.85 50.55
M 68.1 51.35
L 68.15 51.35 68.1 51.3
Q 67.9 51.2 67.8 51.2
L 67.75 51.55 67.95 51.7 68.3 51.7 68.4 51.45 68.1 51.35
M 68.85 52.1
L 68.9 52.1 68.85 52.05
Q 68.65 51.95 68.55 51.95
L 68.5 52.3 68.7 52.45 69.05 52.45 69.15 52.2 68.85 52.1
M 69.05 51.7
L 69.15 51.45 68.85 51.35 68.9 51.35 68.85 51.3
Q 68.65 51.2 68.55 51.2
L 68.5 51.55 68.7 51.7 69.05 51.7
M 69.25 51.55
L 69.45 51.7 69.8 51.7 69.9 51.45 69.6 51.35 69.65 51.35 69.6 51.3
Q 69.4 51.2 69.3 51.2
L 69.25 51.55
M 68.85 50.85
L 68.9 50.85 68.85 50.8
Q 68.65 50.7 68.55 50.7
L 68.5 51.05 68.7 51.2 69.05 51.2 69.15 50.95 68.85 50.85
M 36.9 75.35
L 36.8 75.3 36.75 75.3 36.75 75.35 36.7 75.35 36.65 75.4 36.65 75.55 36.9 75.55 36.9 75.35
M 38.75 72.35
L 38.65 72.3 38.55 72.3 38.5 72.35 38.5 72.6 38.65 72.6 38.75 72.5 38.75 72.35
M 36.6 71.5
L 36.45 71.55 36.4 71.8 36.7 72.1 36.9 71.9 36.85 71.8
Q 36.85 71.7 36.75 71.5
L 36.6 71.5
M 37.2 70.8
L 37.15 71.05 37.45 71.35 37.65 71.15 37.6 71.05
Q 37.6 70.95 37.5 70.75
L 37.35 70.75 37.2 70.8
M 37.45 69.7
L 37.4 69.65
Q 37.3 69.55 37.3 69.65
L 37.25 69.65 37.2 69.7
Q 37.2 69.8 37.25 69.8
L 37.4 69.8 37.45 69.7
M 35.85 70.75
L 35.7 70.8 35.65 71.05 35.95 71.35 36.15 71.15 36.1 71.05
Q 36.1 70.95 36 70.75
L 35.85 70.75
M 36.6 70.25
L 36.45 70.3 36.4 70.55 36.6 70.75 36.45 70.8 36.4 70.75
Q 36.35 70.65 36.3 70.7
L 36.25 70.7 36.15 70.8 36.15 70.85 36.2 70.9 36.3 70.95
Q 36.3857421875 70.95 36.4 70.85
L 36.4 71.05 36.7 71.35 36.9 71.15 36.85 71.05
Q 36.85 70.95859375 36.75 70.75
L 36.9 70.65 36.85 70.55
Q 36.85 70.45 36.75 70.25
L 36.6 70.25
M 39.7 68.85
L 39.55 68.8
Q 39.45 68.8 39.45 68.9 39.45 68.95 39.45 69 39.45 69.1 39.55 69.1
L 39.6 69.1 39.6 69.05
Q 39.7 69.05 39.7 69
L 39.7 68.85
M 35.2 71.8
Q 35.15 71.85 35.25 71.95
L 35.4 71.95 35.45 71.85 35.45 71.8
Q 35.45 71.75 35.35 71.65
L 35.2 71.8
M 32.3 72.2
L 32.3 72.1 32.2 72.05 32.1 72.1 32.1 72.2 32.15 72.25 32.2 72.25 32.3 72.2
M 31.55 69.55
L 31.45 69.55 31.45 69.65 31.4 69.65 31.45 69.75
Q 31.45 69.8 31.55 69.75
L 31.6 69.75 31.65 69.7 31.65 69.65 31.55 69.55
M 34.45 67.95
L 34.2 67.95 34.15 68.05
Q 34.15 68.15 34.25 68.2
L 34.3 68.2 34.35 68.15 34.45 68.1 34.45 67.95
M 33.8 66.15
Q 33.85 66.05 33.8 66 33.8 65.95 33.7 65.95 33.6 65.95 33.6 66.1
L 33.65 66.15 33.8 66.15
M 35 66.15
L 35 66.35 35.2 66.35 35.25 66.3 35.25 66.15
Q 35.25 66.1 35.15 66.1
L 35.1 66.1 35 66.15
M 34.9 65.7
L 34.85 65.7 34.85 65.85 35 65.95 35.05 65.9 35.15 65.9 35.15 65.7 35.1 65.65 35 65.65 34.9 65.7
M 31.5 67.3
L 31.5 67.4 31.6 67.5 31.65 67.5
Q 31.8 67.45 31.75 67.3
L 31.7 67.25 31.55 67.25 31.5 67.3
M 32.1 64.4
L 32 64.5
Q 31.95 64.6 32 64.65
L 32 64.7 32.2 64.7 32.25 64.55 32.25 64.5 32.2 64.45 32.15 64.45 32.15 64.4 32.1 64.4
M 32.15 62.55
L 32 62.55
Q 31.95 62.6 31.95 62.7
L 31.95 62.75 32 62.8 32.05 62.8
Q 32.1 62.85 32.15 62.75
L 32.2 62.75 32.2 62.6 32.15 62.55
M 34.05 64.15
L 34.15 64.35 34.2 64.4 34.45 64.4
Q 34.55 64.35 34.6 64
L 34.3 63.9 34.25 63.9 34.2 63.95
Q 34.05 64 34.05 64.15
M 33.6 63.9
L 33.55 63.95 33.55 64 33.6 64.15 33.6 64.2 33.7 64.2 33.75 64.25 33.85 64.25
Q 33.9 64.2 33.9 64.15
L 33.95 64.1 33.95 63.9 33.8 63.85 33.65 63.85 33.65 63.9 33.6 63.9
M 33.55 63.15
L 33.5 63.15 33.45 63.2
Q 33.3 63.25 33.3 63.4
L 33.4 63.6 33.45 63.65 33.7 63.65
Q 33.8 63.6 33.85 63.25
L 33.55 63.15
M 35.05 63.15
L 35 63.15 34.95 63.2
Q 34.8 63.25 34.8 63.4
L 34.9 63.6 34.95 63.65 35.2 63.65
Q 35.3 63.6 35.35 63.25
L 35.05 63.15
M 34.45 63.15
Q 34.55 63.1 34.6 62.75
L 34.3 62.65 34.25 62.65 34.2 62.7
Q 34.05 62.75 34.05 62.9
L 34.15 63.1 34.2 63.15 34.25 63.15 34.2 63.2
Q 34.05 63.25 34.05 63.4
L 34.15 63.6 34.2 63.65 34.45 63.65
Q 34.55 63.6 34.6 63.25
L 34.3 63.15 34.45 63.15
M 39.2 66.65
L 39.2 66.75 39.25 66.8 39.35 66.8 39.4 66.75 39.4 66.65 39.35 66.65 39.3 66.6 39.25 66.6 39.2 66.65
M 36.5 68
L 36.45 68 36.35 67.9
Q 36.3 67.85 36.25 67.95
L 36.15 67.95 36.05 68.05 36.1 68.2 36.2 68.3 36.35 68.3 36.45 68.25 36.5 68.2 36.5 68.15 36.45 68.05 36.5 68.1 36.5 68
M 35.6 65.9
L 35.7 66 35.8 65.95 35.8 65.8 35.75 65.75
Q 35.65 65.75 35.6 65.8
L 35.6 65.9
M 37.1 65.65
L 37.05 65.7 37.05 65.85 37.1 65.85 37.1 65.9 37.2 66 37.3 66
Q 37.45 65.85 37.4 65.75
L 37.4 65.7 37.3 65.6 37.25 65.6
Q 37.15 65.6 37.1 65.65
M 37.65 65.35
Q 37.75 65.35 37.8 65.25
L 37.8 65.2 37.65 65.15 37.55 65.2 37.55 65.3
Q 37.55 65.35 37.65 65.35
M 36.1 64.05
L 36.1 63.85 36 63.85
Q 35.95 63.85 35.9 63.9 35.8 64 35.85 64.05
L 35.9 64.15 35.95 64.15 36.1 64.1 36 64.05 36.1 64.05
M 36.85 62.75
L 36.9 62.7 36.9 62.5 36.65 62.5 36.6 62.6
Q 36.5 62.65 36.6 62.7 36.6 62.75 36.65 62.75
L 36.75 62.75 36.75 62.8 36.85 62.75
M 38.05 63.2
L 38.15 63.15 38.15 63 38 62.85 37.9 62.85
Q 37.75 62.9 37.85 63.15
L 37.85 63.2 38.05 63.2
M 27.5 70.2
L 27.5 70.1
Q 27.35 70 27.3 70.2
L 27.3 70.35 27.5 70.35 27.55 70.3 27.5 70.2
M 30.2 67.35
L 30.15 67.4 30.15 67.45
Q 30.15 67.55 30.3 67.55
L 30.3 67.6
Q 30.45 67.55 30.45 67.5
L 30.45 67.35
Q 30.35 67.3 30.2 67.35
M 28.85 68.05
L 28.7 68.05 28.65 68.15 28.65 68.3
Q 28.75 68.35 28.8 68.3
L 28.85 68.3 28.9 68.2
Q 28.9 68.15 28.85 68.05
M 28.35 67.4
L 28.3 67.3 28.05 67.15
Q 27.9 67.2 27.95 67.3
L 27.85 67.5 28 67.65 28.3 67.65 28.35 67.4
M 28.7 66.55
L 28.6 66.75 28.75 66.9 29.05 66.9 29.1 66.65 29.05 66.55 28.8 66.4
Q 28.65 66.45 28.7 66.55
M 28.35 66.65
L 28.3 66.55 28.05 66.4
Q 27.9 66.45 27.95 66.55
L 27.85 66.75 28 66.9 28.3 66.9 28.35 66.65
M 28 66.4
L 28.05 66.4 28.3 66.4 28.35 66.15 28.3 66.05 28.05 65.9
Q 27.9 65.95 27.95 66.05
L 27.85 66.25 28 66.4
M 29.15 66.15
L 29.2 66.15 29.15 66.05
Q 29.1 65.95 29 66 28.9 66.05 28.95 66.15
L 29 66.2 29.15 66.2 29.15 66.15
M 27.2 67.85
L 27.2 68 27.3 68.1
Q 27.35 68.15 27.4 68.1
L 27.45 68.1 27.5 68.05 27.5 67.85 27.4 67.8
Q 27.3 67.75 27.2 67.85
M 27.6 66.65
L 27.55 66.55 27.3 66.4
Q 27.15 66.45 27.2 66.55
L 27.1 66.75 27.25 66.9 27.55 66.9 27.6 66.65
M 25.5 62.6
L 25.45 62.6 25.45 62.7 25.5 62.75 25.65 62.75 25.65 62.7 25.7 62.7 25.65 62.6 25.6 62.55 25.5 62.55 25.5 62.6
M 28.05 64.4
L 28 64.25 27.95 64.2 27.9 64.2
Q 27.8 64.25 27.85 64.4
L 27.9 64.45 28.05 64.4
M 29.8 62.6
Q 29.85 62.55 29.85 62.45
L 29.8 62.4 29.8 62.35 29.75 62.35
Q 29.55 62.35 29.55 62.45
L 29.55 62.5
Q 29.5 62.5 29.55 62.6
L 29.65 62.65 29.75 62.65 29.8 62.6
M 30.2 60.4
L 30.15 60.35 30.1 60.4 30.1 60.35 30 60.4 29.95 60.45 29.95 60.55 30.05 60.6 30.15 60.6
Q 30.3 60.5 30.2 60.4
M 26.55 59.45
Q 26.65 59.45 26.65 59.4
L 26.65 59.3 26.5 59.25 26.4 59.25 26.4 59.4 26.55 59.45
M 30.15 57.15
L 30.05 57.05
Q 29.95 57.05 29.9 57.1
L 29.85 57.25 29.9 57.3 30.1 57.3 30.15 57.25 30.15 57.15
M 23.4 54.1
Q 23.25 53.75 22.9 53.85
L 22.85 53.95
Q 22.95 54.3 23 54.3
L 23.25 54.35 23.4 54.1
M 22.9 53.1
L 22.85 53.2
Q 22.95 53.55 23 53.55
L 23.25 53.6 23.4 53.35
Q 23.25 53 22.9 53.1
M 23.25 53.1
L 23.4 52.85
Q 23.25 52.5 22.9 52.6
L 22.85 52.7
Q 22.95 53.05 23 53.05
L 23.25 53.1
M 23.65 53.1
L 23.6 53.2
Q 23.7 53.55 23.75 53.55
L 24 53.6 24.15 53.35
Q 24 53 23.65 53.1
M 22.65 53.35
Q 22.5 53 22.15 53.1
L 22.1 53.2
Q 22.2 53.55 22.25 53.55
L 22.5 53.6 22.65 53.35
M 24.6 52.2
L 24.6 52.15 24.55 52.05
Q 24.35 51.85 24.2 52.25
L 24.2 52.35 24.25 52.45 24.3 52.5
Q 24.45 52.5 24.45 52.45
L 24.55 52.45 24.65 52.35 24.6 52.2
M 40.4 60.9
L 40.3 60.9 40.25 60.95 40.2 60.95 40.1 61.05 40.1 61.2 40.15 61.25 40.35 61.3 40.4 61.3 40.5 61.25 40.55 61.15 40.55 61 40.5 60.95 40.4 60.9
M 39.1 60.45
Q 39.05 60.45 39.05 60.55
L 39 60.6 39.1 60.8 39.15 60.8 39.3 60.7 39.3 60.5 39.25 60.45 39.1 60.45
M 36.2 61.05
L 36.15 61.05 36.05 61.1 36 61.2 36 61.25 36.05 61.25 36.05 61.35 36.1 61.4 36.2 61.4 36.25 61.35 36.25 61.3 36.3 61.25 36.3 61.15 36.2 61.05
M 37.4 59.7
L 37.4 59.75
Q 37.45 59.85 37.6 59.85
L 37.65 59.85 37.65 59.65 37.6 59.7 37.6 59.6 37.55 59.6
Q 37.4 59.6 37.4 59.7
M 36.35 57.55
L 36.35 57.5
Q 36.25 57.4 36.15 57.45
L 36.15 57.55
Q 36.1 57.6 36.2 57.7
L 36.3 57.7 36.35 57.6 36.4 57.55 36.35 57.55
M 37 57.05
L 37 57.1 37.15 57.15 37.25 57.05 37.3 57.05 37.3 56.95 37.25 56.95
Q 37.2 56.8 37.1 56.8
L 37.05 56.85 37 56.85 37 56.95 36.95 57 37 57.05
M 38.9 57.7
L 38.9 57.55 38.8 57.45 38.75 57.45
Q 38.65 57.45 38.65 57.55
L 38.65 57.7 38.75 57.75 38.8 57.75 38.9 57.7
M 34.65 61
L 34.5 61 34.5 61.4 34.65 61.5 34.75 61.45 34.75 61.35 34.8 61.35 34.8 61.1 34.75 61.1 34.75 61.05
Q 34.75 61 34.65 61
M 35.15 61.05
L 35.15 60.95 35.1 60.9 35 60.9 34.9 61 34.9 61.1 34.95 61.15
Q 35 61.2 35.1 61.1
L 35.15 61.05
M 33.65 59.55
L 33.7 59.5 33.75 59.4 33.75 59.35 33.7 59.25 33.65 59.25 33.65 59.2 33.6 59.2
Q 33.5 59.15 33.35 59.4
L 33.45 59.5 33.55 59.55 33.65 59.55
M 32.65 60.05
L 32.7 59.95 32.7 59.9 32.65 59.8 32.55 59.8
Q 32.45 59.8 32.45 59.85
L 32.45 59.95 32.5 60.05 32.65 60.05
M 31.9 59.5
Q 32.05 59.45 31.95 59.2
L 31.7 59.15
Q 31.55 59.15 31.55 59.3 31.5 59.45 31.6 59.5
L 31.9 59.5
M 32.7 58.45
L 32.45 58.4
Q 32.3 58.4 32.3 58.55 32.25 58.7 32.35 58.75
L 32.65 58.75
Q 32.8 58.7 32.7 58.45
M 31.55 58.55
Q 31.5 58.7 31.6 58.75
L 31.9 58.75
Q 32.05 58.7 31.95 58.45
L 31.7 58.4
Q 31.55 58.4 31.55 58.55
M 31.55 58.05
Q 31.5 58.2 31.6 58.25
L 31.9 58.25
Q 32.05 58.2 31.95 57.95
L 31.7 57.9
Q 31.55 57.9 31.55 58.05
M 31.15 58.75
Q 31.3 58.7 31.2 58.45
L 30.95 58.4
Q 30.8 58.4 30.8 58.55 30.75 58.7 30.85 58.75
L 31.15 58.75
M 32.85 57
Q 32.85 56.9 32.8 56.8
L 32.65 56.8 32.65 56.95 32.7 57.05 32.8 57.05 32.85 57
M 34.75 55.1
L 34.6 55
Q 34.5 55 34.45 55.1 34.45 55.25 34.5 55.25
L 34.55 55.25 34.6 55.3 34.65 55.3
Q 34.75 55.25 34.75 55.2
L 34.75 55.1
M 33.3 53.6
L 33.25 53.6 33.2 53.5
Q 33.1 53.5 33.05 53.6
L 33 53.65 33 53.8 33.05 53.8
Q 33.15 53.9 33.25 53.85 33.3 53.85 33.3 53.75
L 33.3 53.7
Q 33.35 53.65 33.3 53.6
M 32.75 55.6
L 32.75 55.45 32.55 55.35 32.35 55.45 32.35 55.5 32.4 55.6 32.45 55.65 32.55 55.7 32.75 55.6
M 30.95 54.05
L 30.95 54.1 30.9 54.15 30.9 54.2 30.95 54.25 31.05 54.2 31.1 54.15
Q 31.1 54.1 31.05 54.05
L 30.95 54.05
M 31.6 51.35
L 31.6 51.25 31.45 51.1 31.3 51.1 31.25 51.15 31.25 51.25 31.2 51.25 31.25 51.45
Q 31.3 51.5 31.45 51.45
L 31.5 51.45 31.6 51.35
M 33.2 50.3
Q 33.06015625 50.3466796875 33 50.45
L 32.85 50.3
Q 33.040234375 50.1916015625 33 49.95
L 32.75 49.7
Q 32.6 49.7 32.45 49.8 32.15 49.9 32.2 50.25
L 32.3 50.4
Q 32.2724609375 50.423046875 32.25 50.45
L 32 50.2
Q 31.85 50.2 31.7 50.3 31.4 50.4 31.45 50.75
L 31.55 50.9 31.8 50.95 31.95 51 32.05 50.9
Q 32.1521484375 50.838671875 32.2 50.75
L 32.3 50.9 32.55 50.95 32.6 50.95
Q 32.531640625 50.9955078125 32.45 51.05 32.15 51.15 32.2 51.5
L 32.3 51.65 32.55 51.7 32.7 51.75 32.8 51.65
Q 33.05 51.5 33 51.2
L 32.75 50.95 32.8 50.9
Q 32.9021484375 50.838671875 32.95 50.75
L 33.05 50.9 33.3 50.95 33.45 51 33.55 50.9
Q 33.8 50.75 33.75 50.45
L 33.5 50.2
Q 33.35 50.2 33.2 50.3
M 39.7 54.05
Q 39.5 53.75 39.25 53.85 39.15 53.85 39 54
L 38.95 54.05 38.9 54.25 38.9 54.45
Q 38.9234375 54.5046875 38.95 54.55 38.75 54.25 38.5 54.35 38.4 54.35 38.25 54.5
L 38.2 54.55 38.15 54.75 38.15 54.95
Q 38.185546875 55.0330078125 38.2 55.1 38.09609375 55.0619140625 38.05 55.2
L 38.05 55.35 38.1 55.4 38.25 55.4 38.3 55.35 38.35 55.25 38.3 55.2
Q 38.425 55.275 38.55 55.25
L 38.75 55.2 38.8 55.2
Q 38.90390625 55.1583984375 38.95 55.05 39.0142578125 55.150390625 39.05 55.2 39.0330078125 55.2169921875 39 55.25
L 38.95 55.3 38.9 55.5 38.9 55.7
Q 39.05 56.05 39.3 56
L 39.5 55.95 39.55 55.95
Q 39.8 55.85 39.8 55.5
L 39.8 55.45 39.7 55.3
Q 39.65078125 55.226171875 39.6 55.15 39.6689453125 55.13671875 39.7 55.05 39.8501953125 55.2900390625 40.05 55.25
L 40.25 55.2 40.3 55.2
Q 40.53046875 55.1078125 40.55 54.8 40.6 54.85 40.7 54.8
L 40.7 54.75 40.75 54.75 40.75 54.7 40.7 54.65 40.7 54.6 40.55 54.6 40.5 54.65 40.45 54.55
Q 40.25 54.25 40 54.35 39.9056640625 54.35 39.75 54.45 39.8 54.3849609375 39.8 54.25
L 39.8 54.2 39.7 54.05
M 39.5 53.1
L 39.4 53.1 39.3 53.2 39.3 53.35 39.35 53.4 39.55 53.45
Q 39.7 53.45 39.75 53.3
L 39.75 53.2 39.7 53.15
Q 39.6 53 39.5 53.1
M 37.65 54.9
Q 37.55 55 37.75 55.2
L 37.85 55.2 37.9 55.15 38 55.15 38.1 55.05 38.1 54.95
Q 38.1 54.8 37.9 54.7
L 37.85 54.75 37.8 54.75 37.65 54.9
M 36.15 55.05
L 36.25 55 36.25 54.9 36.15 54.8
Q 36.1 54.75 36 54.9
L 36.05 54.95 36.1 55.05 36.15 55.05
M 35.5 52
L 35.55 51.9 35.5 51.8
Q 35.5 51.75 35.4 51.75
L 35.3 51.75 35.2 51.85 35.2 52
Q 35.25 52.1 35.35 52.1
L 35.4 52.1 35.5 52
M 38 50.55
L 37.95 50.8
Q 37.9341796875 50.7296875 37.85 50.65
L 38 50.55 38 50.45
Q 38 50.2 37.7 50.05 37.6 49.85 37.4 49.95
L 37.3 50 37.25 50.05 37.2 50.4
Q 37.234375 50.46875 37.25 50.5
L 37.25 50.55 37.2 50.8
Q 37.1484375 50.64921875 36.95 50.55 36.85 50.35 36.65 50.45
L 36.55 50.5 36.5 50.55 36.45 50.9
Q 36.65 51.3 37 51.35
L 37.05 51.25 37.25 51.05 37.25 51
Q 37.3259765625 51.1134765625 37.4 51.2
L 37.4 51.2 37.3 51.25 37.25 51.3 37.2 51.65
Q 37.4 52.05 37.75 52.1
L 37.8 52 38 51.8 38 51.7
Q 38 51.4759765625 37.75 51.3
L 37.8 51.25 38 51.05 38 51
Q 38.191796875 51.3060546875 38.5 51.35
L 38.55 51.25 38.75 51.05 38.75 50.95
Q 38.75 50.7 38.45 50.55 38.35 50.35 38.15 50.45
L 38.05 50.5 38 50.55
M 39.1 48.6
L 39.15 48.8 39.25 48.9 39.35 48.95 39.45 48.95 39.55 49 39.6 49 39.75 48.9 39.85 48.8 39.85 48.7 39.75 48.6 39.85 48.65 39.85 48.5 39.8 48.45 39.75 48.45 39.7 48.4 39.7 48.35 39.6 48.3
Q 39.5 48.2 39.4 48.4
L 39.3 48.4 39.1 48.6
M 36.35 48.4
L 36.15 48.35 36.05 48.35 35.95 48.4 35.9 48.55
Q 35.9 48.7 36.05 48.8
L 36.1 48.8 36.2 48.75 36.25 48.75 36.35 48.65 36.35 48.4
M 37.75 45.6
L 37.75 45.35
Q 37.7 45.25 37.55 45.25
L 37.5 45.25 37.35 45.35 37.35 45.4 37.3 45.45 37.35 45.6 37.35 45.65 37.4 45.7 37.65 45.7 37.75 45.6
M 37.6 44.8
L 37.6 44.75 37.55 44.65 37.55 44.55 37.45 44.45 37.35 44.45 37.15 44.55 37.1 44.6 37.1 44.85 37.3 45 37.4 44.95 37.45 44.95 37.55 44.9 37.6 44.8
M 38.35 44.75
L 38.3 44.85 38.3 44.95 38.5 45.05 38.65 45 38.7 44.95 38.7 44.75 38.6 44.65
Q 38.4 44.65 38.35 44.7
L 38.35 44.75
M 31.65 47.6
Q 31.9 47.5 31.8 47.25
L 31.7 47.2 31.45 47.2 31.4 47.25 31.4 47.45 31.5 47.6 31.65 47.6
M 35.25 45.35
Q 35.4 45.2 35.3 45.1 35.3 45 35.1 45 34.95 45 34.95 45.25
L 35.05 45.35 35.25 45.35
M 34.1 46.2
Q 34.1203125 46.0203125 34.05 45.95 33.9 45.75 33.55 45.65
L 33.35 45.7 33.15 45.9 33.15 45.95
Q 33.0888671875 46.133203125 33.1 46.25 32.9861328125 46.203125 32.8 46.15
L 32.6 46.2 32.4 46.4 32.4 46.45
Q 32.3 46.75 32.45 46.95
L 32.6 47.05
Q 32.75 47.1 32.95 47.05
L 33.25 47 33.25 46.95 33.3 47 33.15 47.15 33.15 47.2
Q 33.05 47.5 33.2 47.7
L 33.35 47.8
Q 33.5 47.85 33.7 47.8
L 34 47.75 34.05 47.6
Q 34.15 47.3 34.05 47.2 33.975 47.1 33.85 47
L 34 47 34 46.95 34.1 47.05
Q 34.25 47.1 34.45 47.05
L 34.75 47 34.8 46.85
Q 34.9 46.55 34.8 46.45 34.65 46.25 34.3 46.15
L 34.1 46.2
M 32.45 42.4
L 32.35 42.4 32.2 42.55
Q 32.1 42.7 32.2 42.8
L 32.25 42.9 32.35 42.9 32.55 42.85 32.65 42.65 32.65 42.55 32.55 42.45 32.5 42.45 32.45 42.4
M 32.55 39.35
L 32.45 39.25 32.25 39.25
Q 32.1 39.35 32.1 39.5
L 32.15 39.6 32.2 39.65 32.3 39.65
Q 32.4 39.75 32.5 39.6
L 32.55 39.6 32.55 39.35
M 39.2 41.75
L 39.2 41.65 39.15 41.5 39.15 41.45 39.1 41.45 39.05 41.4
Q 38.9 41.4 38.8 41.55 38.65 41.7 38.75 41.8
L 38.85 41.9 38.95 41.95 39.15 41.85 39.05 41.8 39.15 41.8 39.2 41.75
M 35.5 41.85
L 35.5 41.55 35.3 41.45 35.25 41.45 35.15 41.4 35.05 41.45 35.05 41.5 34.95 41.5 34.85 41.6 34.85 41.7 34.9 41.95 34.9 42 34.95 42.05 35.1 42.05 35.2 42.1 35.35 42.1
Q 35.45 42.05 35.45 41.9
L 35.5 41.85
M 36.3 38.9
Q 36.25 39.25 36.55 39.35 36.8 39.3 36.95 39.1
L 36.9 38.9
Q 36.8 38.9 36.45 38.75
L 36.3 38.9
M 35.7 38
L 35.55 38.15
Q 35.5 38.5 35.8 38.6 36.05 38.55 36.2 38.35
L 36.15 38.15
Q 36.05 38.15 35.7 38
M 37.05 38.15
Q 37 38.5 37.3 38.6 37.55 38.55 37.7 38.35
L 37.65 38.15
Q 37.55 38.15 37.2 38
L 37.05 38.15
M 36.95 37.85
L 36.9 37.65
Q 36.8 37.65 36.45 37.5
L 36.3 37.65
Q 36.262890625 37.9095703125 36.4 38
L 36.3 38.15
Q 36.25 38.5 36.55 38.6 36.8 38.55 36.95 38.35
L 36.9 38.15
Q 36.830078125 38.15 36.65 38.05 36.82734375 38.0134765625 36.95 37.85
M 29.55 47.45
L 29.55 47.4
Q 29.4 47.25 29.2 47.35
L 29.1 47.45 29.1 47.55
Q 29.1 47.7 29.3 47.75
L 29.35 47.8
Q 29.55 47.75 29.55 47.6
L 29.55 47.55 29.6 47.5 29.55 47.45
M 26.55 48.05
Q 26.3 48.25 26.45 48.45
L 26.65 48.5 27 48.45 27 48.25 26.85 48.05 26.55 48.05
M 26.5 48.7
L 26.5 48.95
Q 26.7 49.05 26.8 48.95
L 26.9 48.95 26.95 48.85
Q 27 48.7 26.85 48.55
L 26.7 48.55 26.6 48.6 26.5 48.7
M 26.1 47.3
L 25.8 47.3
Q 25.55 47.5 25.7 47.7
L 25.9 47.75 26.25 47.7 26.25 47.5 26.1 47.3
M 27.6 47.3
L 27.3 47.3
Q 27.05 47.5 27.2 47.7
L 27.4 47.75 27.75 47.7 27.75 47.5 27.6 47.3
M 26.65 47.75
L 27 47.7 27 47.5 26.85 47.3 26.55 47.3
Q 26.3 47.5 26.45 47.7
L 26.65 47.75
M 27 47
L 26.85 46.8 26.55 46.8
Q 26.3 47 26.45 47.2
L 26.65 47.25 27 47.2 27 47
M 27.4 45.35
L 27.45 45.3 27.4 45.2
Q 27.3 45 27.15 45.1 26.95 45.2 27.05 45.35
L 27.15 45.45 27.35 45.45 27.4 45.35
M 24.55 48.2
L 24.45 48.1
Q 24.2 48.05 24.1 48.25
L 24.05 48.5 24.2 48.65
Q 24.3 48.7 24.4 48.65
L 24.5 48.65 24.6 48.55 24.6 48.3 24.55 48.2
M 21.45 39.3
L 21.35 39.2 21.2 39.2 21.15 39.3 21.1 39.35 21.1 39.45 21.15 39.55 21.25 39.6 21.4 39.6 21.45 39.55 21.45 39.5 21.5 39.45 21.45 39.3
M 25.5 42.35
L 25.45 42.15 25.35 42 25.25 42
Q 25.05 42.1 25.15 42.35
L 25.25 42.45 25.3 42.45 25.5 42.35
M 26.45 41.65
L 26.2 41.65 26.1 41.85
Q 26.15 42 26.3 42.05 26.5 42.15 26.55 42.05
L 26.65 41.7 26.45 41.65
M 25.7 40.9
L 25.45 40.9 25.35 41.1
Q 25.4 41.25 25.55 41.3 25.75 41.4 25.8 41.3
L 25.9 40.95 25.7 40.9
M 26.45 40.4
L 26.2 40.4 26.1 40.6
Q 26.15 40.75 26.3 40.8 26.5 40.9 26.55 40.8
L 26.65 40.45 26.45 40.4
M 26.45 40.9
L 26.2 40.9 26.1 41.1
Q 26.15 41.25 26.3 41.3 26.5 41.4 26.55 41.3
L 26.65 40.95 26.45 40.9
M 27.4 40.95
L 27.2 40.9 26.95 40.9 26.85 41.1
Q 26.9 41.25 27.05 41.3 27.25 41.4 27.3 41.3
L 27.4 40.95
M 28.55 39.05
L 28.5 39 28.45 38.9 28.4 38.9
Q 28.1 38.9 28.1 39.05
L 28.1 39.1
Q 27.95 39.1 28.05 39.3
L 28.1 39.3 28.2 39.4 28.4 39.4 28.45 39.35
Q 28.55 39.25 28.55 39.05
M 29 35.55
L 29 35.5 28.8 35.6 28.75 35.65 28.75 35.8 28.9 35.9 28.95 35.95 29.1 35.95
Q 29.3 35.75 29.2 35.6
L 29.15 35.55 29.05 35.5 29 35.55
M 22.95 34
Q 23.1 34 23.15 33.85
L 23.15 33.7 22.9 33.6 22.85 33.65 22.75 33.65 22.75 33.9 22.95 34
M 28.9 29.85
Q 28.75 29.85 28.65 30
L 28.6 30.2 28.6 30.25 28.65 30.3 28.65 30.35 28.95 30.35 29 30.3 29.1 30.25 29.1 30.05 28.9 29.85
M 37.8 34.05
L 38.1 34.2 38.2 33.95 37.8 34.05
M 39.05 37
L 39.1 37 39.1 37.15 39.2 37.25 39.35 37.25 39.45 37.2 39.45 37.1 39.55 37 39.5 36.85 39.45 36.8 39.45 36.75 39.35 36.7 39.25 36.7 39.1 36.8 39.05 36.9 39.05 37
M 38.55 34.05
L 38.85 34.2 38.95 33.95 38.55 34.05
M 38.1 34.95
L 38.2 34.7 37.8 34.8 38.1 34.95
M 37.3 36.4
L 37.15 36.6 37.15 36.8 37.25 36.85
Q 37.35 36.95 37.5 36.75
L 37.55 36.7 37.55 36.5 37.5 36.45 37.4 36.4 37.3 36.4
M 36.5 36.9
L 36.45 36.95 36.45 37.25 36.75 37.4 36.85 37.35 36.9 37.3 36.9 37.2 36.95 37.15 37 37.05 37 37 36.95 36.95 36.95 36.8 36.9 36.8 36.9 36.75 36.85 36.65
Q 36.85 36.55 36.7 36.55
L 36.65 36.55 36.45 36.6 36.45 36.8 36.5 36.9
M 37.05 34.05
L 37.35 34.2 37.45 33.95 37.05 34.05
M 38.1 33.7
L 38.2 33.45 37.8 33.55 38.1 33.7
M 33.3 34.95
L 33.4 34.85 33.4 34.75 33.3 34.55 33.15 34.55
Q 33 34.55 32.95 34.65
L 32.95 34.85 33.05 34.95 33.3 34.95
M 34.6 33.95
L 34.6 34 34.65 34.05 34.85 34.15 35.05 34.1 35.1 34.05 35.15 33.9 35.15 33.85 35.2 33.8 35.1 33.6 35.05 33.6 35.05 33.55 34.95 33.5
Q 34.75 33.45 34.55 33.85
L 34.6 33.95
M 33.65 29.8
Q 33.7 29.6 33.55 29.5
L 33.45 29.45 33.4 29.5 33.35 29.5 33.3 29.55 33.3 29.75 33.45 29.9 33.55 29.85 33.6 29.85 33.65 29.8
M 30.65 25.05
L 30.7 25
Q 30.7 24.85 30.6 24.8
L 30.45 24.8 30.4 24.85 30.35 24.95 30.35 25.05 30.45 25.15 30.65 25.05
M 39.6 30.7
L 39.6 30.65
Q 39.45 30.5 39.3 30.6
L 39.25 30.65 39.25 30.7
Q 39.15 30.8 39.35 30.95
L 39.5 30.95 39.6 30.85 39.6 30.8 39.65 30.75 39.6 30.7
M 36.55 26.85
L 36.6 26.9 36.75 26.9
Q 36.85 26.8 36.85 26.75
L 36.9 26.75 36.9 26.6 36.65 26.4
Q 36.5 26.4 36.4 26.6 36.4 26.8 36.5 26.85
L 36.55 26.85
M 39.4 26.4
L 39.4 26.25 39.3 26.1
Q 39.15 26 39.05 26.2
L 39.1 26.35 39.2 26.45 39.25 26.45 39.4 26.4
M 38.25 21.15
L 38.2 21
Q 38.15 20.9 37.95 20.9
L 37.8 20.9 37.75 20.95 37.7 20.95 37.65 21.05 37.65 21.3
Q 37.7 21.45 37.9 21.5
L 38 21.5 38.2 21.3 38.25 21.15
M 34 24
L 34 24.05 33.95 24.1 33.95 24.35 34 24.4
Q 34.2 24.5 34.3 24.45 34.45 24.45 34.45 24.3
L 34.45 24.2
Q 34.55 24.1 34.4 24
L 34.35 24 34.25 23.9
Q 34.1 23.9 34 24
M 75.8 42.85
L 75.55 42.65 75.35 42.7 75.45 42.85 75.4 42.85
Q 75.45 43.05 75.6 43
L 75.65 42.95 75.75 43.15
Q 75.85 43 75.8 42.85
M 75.05 42.1
L 74.8 41.9 74.6 41.95 74.7 42.1 74.65 42.1
Q 74.7 42.3 74.85 42.25
L 74.9 42.2 75 42.4
Q 75.1 42.25 75.05 42.1
M 75.55 41.9
L 75.35 41.95 75.45 42.1 75.4 42.1
Q 75.45 42.3 75.6 42.25
L 75.65 42.2 75.75 42.4
Q 75.85 42.25 75.8 42.1
L 75.55 41.9
M 75.8 41.6
L 75.55 41.4 75.35 41.45 75.45 41.6 75.4 41.6
Q 75.45 41.8 75.6 41.75
L 75.65 41.7 75.75 41.9
Q 75.85 41.75 75.8 41.6
M 76.3 41.9
L 76.1 41.95 76.2 42.1 76.15 42.1
Q 76.2 42.3 76.35 42.25
L 76.4 42.2 76.5 42.4
Q 76.6 42.25 76.55 42.1
L 76.3 41.9
M 66.05 45.15
L 65.9 45.1
Q 65.6 45.15 65.7 45.5 65.9 45.8 66.1 45.6
L 66.1 45.4
Q 66.2 45.25 66.05 45.15
M 66.85 44.85
L 66.85 44.65
Q 66.95 44.5 66.8 44.4
L 66.65 44.35
Q 66.35 44.4 66.45 44.75 66.65 45.05 66.85 44.85
M 62.35 47.55
Q 62.3888671875 47.821484375 62.45 47.95
L 62.4 48 62.35 47.95 61.95 47.85 61.75 47.9 61.6 48.05
Q 61.65 48.4 61.75 48.5 61.9 48.75 62.15 48.6 62.35 48.5 62.45 48.4 62.4677734375 48.4677734375 62.5 48.5 62.55 48.5833984375 62.6 48.6
L 62.5 48.65 62.35 48.8
Q 62.4 49.15 62.5 49.25 62.65 49.5 62.9 49.35 63.1 49.25 63.2 49.15 63.25 49.05 63.15 48.75
L 63.1 48.7 62.8 48.6
Q 62.866015625 48.6203125 62.9 48.6 63.1 48.5 63.2 48.4 63.2177734375 48.4677734375 63.25 48.5 63.4 48.75 63.65 48.6 63.85 48.5 63.95 48.4 64 48.3 63.9 48
L 63.85 47.95 63.45 47.85 63.25 47.9 63.15 48 63.1 47.95
Q 63.165625 47.934375 63.2 47.9 63.25 47.8 63.15 47.5
L 63.1 47.45 62.7 47.35 62.5 47.4 62.35 47.55
M 65.15 45.15
L 65 45.15 64.9 45.25 64.9 45.3 64.95 45.35 65.15 45.35 65.15 45.15
M 65.15 44.35
Q 64.85 44.4 64.95 44.75 65.15 45.05 65.35 44.85
L 65.35 44.65
Q 65.45 44.5 65.3 44.4
L 65.15 44.35
M 65.8 44.35
Q 65.6171875 44.4599609375 65.7 44.75 65.9 45.05 66.1 44.85
L 66.1 44.65
Q 66.2 44.5 66.05 44.4 66.0708984375 44.3791015625 66.1 44.35
L 66.1 44.15
Q 66.2 44 66.05 43.9
L 65.9 43.85
Q 65.6 43.9 65.7 44.25 65.754296875 44.3314453125 65.8 44.35
M 63.65 42.05
L 63.7 42.05 63.75 42 63.8 42 63.85 41.95 63.85 41.9
Q 63.85 41.85 63.75 41.8
L 63.65 41.8 63.6 41.9
Q 63.55 41.95 63.65 42.05
M 64.75 41
L 64.75 40.95 64.7 40.95
Q 64.65 40.85 64.6 40.9
L 64.55 40.9 64.5 40.95 64.5 41.05 64.6 41.1
Q 64.7 41.1 64.75 41
M 60.95 42.25
L 60.95 42.2 60.8 42.15 60.7 42.2 60.75 42.25 60.75 42.3 60.8 42.3 60.95 42.25
M 62.9 38.35
L 62.65 38.35 62.65 38.45
Q 62.65 38.5 62.7 38.55
L 62.85 38.55 62.9 38.5 62.9 38.35
M 65.65 39.9
Q 65.55 39.8 65.55 39.9
L 65.5 39.9 65.45 39.95 65.45 40
Q 65.45 40.05 65.5 40.05
L 65.6 40.05 65.7 40 65.65 39.9
M 64.75 38.65
L 64.8 38.55 64.8 38.4 64.75 38.4 64.65 38.3
Q 64.6 38.25 64.55 38.35
L 64.5 38.35 64.4 38.45 64.4 38.55 64.45 38.65 64.55 38.65 64.6 38.7 64.65 38.7 64.75 38.65
M 70.6 41
L 70.5 40.95 70.4 40.95 70.3 41.05 70.35 41.25
Q 70.45 41.3 70.5 41.25
L 70.55 41.25 70.6 41.2 70.6 41
M 66.85 42.45
L 66.75 42.4 66.7 42.4 66.65 42.45 66.65 42.6 66.8 42.6 66.85 42.55 66.85 42.45
M 67.75 39.3
L 67.75 39.25 67.7 39.2 67.6 39.15
Q 67.55 39.15 67.55 39.25 67.5 39.25 67.55 39.3 67.55 39.4 67.6 39.4
L 67.65 39.4 67.65 39.35
Q 67.7 39.35 67.75 39.3
M 66.15 37.25
L 65.95 37.4
Q 66.05 37.75 65.95 38.1
L 66.2 38.25
Q 66.45 38 66.35 37.65 66.35 37.35 66.15 37.25
M 67.65 37.25
L 67.45 37.4
Q 67.55 37.75 67.45 38.1
L 67.7 38.25
Q 67.95 38 67.85 37.65 67.85 37.35 67.65 37.25
M 70.2 38.15
Q 70.3 38.1 70.25 38.05
L 70.25 38 70.1 38 70.05 38.05 70.05 38.1
Q 70.1 38.2 70.2 38.15
M 68.9 36.3
L 68.9 36.15
Q 68.8 36.1 68.7 36.1 68.65 36.15 68.65 36.2
L 68.65 36.25 68.7 36.3 68.8 36.35 68.85 36.3 68.9 36.3
M 66.9 36.75
L 66.7 36.9
Q 66.76640625 37.1326171875 66.75 37.35
L 66.7 37.4
Q 66.7138671875 37.448828125 66.7 37.5 66.7146484375 37.5486328125 66.7 37.6
L 66.75 37.6
Q 66.7677734375 37.8630859375 66.7 38.1
L 66.7 38.1 66.7 38.15
Q 66.8 38.5 66.7 38.85
L 66.95 39
Q 67.2 38.75 67.1 38.4 67.1 38.2392578125 67.05 38.1 67.178125 37.9234375 67.1 37.65 67.1 37.5904296875 67.1 37.55 67.1607421875 37.362890625 67.1 37.15 67.1 36.85 66.9 36.75
M 67.35 37.1
L 67.3 37.1 67.3 37.15 67.25 37.2 67.25 37.25
Q 67.3 37.25 67.35 37.3
L 67.4 37.25 67.45 37.25 67.45 37.15 67.4 37.15 67.35 37.1
M 66.2 34
L 66.3 33.9 66.3 33.75 66.15 33.65 66.1 33.65
Q 65.95 33.7 66.05 33.95
L 66.1 34 66.2 34
M 67.4 31.65
L 67.4 31.6 67.35 31.55 67.35 31.45 67.2 31.45
Q 67.1 31.45 67.1 31.55
L 67.1 31.7 67.2 31.75 67.25 31.75
Q 67.35 31.7 67.4 31.65
M 69.45 33.2
L 69.4 33.25
Q 69.35 33.25 69.3 33.3
L 69.3 33.45 69.35 33.5 69.4 33.5 69.45 33.55 69.45 33.5 69.55 33.5 69.6 33.45 69.6 33.3 69.55 33.25
Q 69.55 33.2 69.5 33.2
L 69.45 33.2
M 65.6 36.3
L 65.6 36.25 65.5 36.2
Q 65.4 36.2 65.35 36.25
L 65.3 36.25 65.3 36.4 65.45 36.55 65.55 36.55
Q 65.65 36.45 65.6 36.3
M 65.75 35.85
L 65.75 35.9
Q 65.75 35.95 65.85 35.95 65.95 35.95 66 35.85
L 66 35.8 65.85 35.75 65.75 35.85
M 63.55 36.65
L 63.5 36.65 63.45 36.7 63.45 36.75 63.4 36.75 63.45 36.85 63.45 36.9 63.6 36.9 63.65 36.85 63.65 36.7
Q 63.6 36.65 63.55 36.65
M 63.45 36.2
L 63.3 36.25 63.3 36.45 63.4 36.5 63.5 36.5 63.55 36.45 63.55 36.25 63.5 36.2 63.45 36.2
M 64.1 36.3
Q 64 36.3 63.95 36.35
L 63.95 36.5 64.05 36.55 64.15 36.5 64.15 36.4 64.1 36.3
M 64.4 34.8
L 64.35 34.75 64.45 34.75 64.45 34.7 64.4 34.6 64.35 34.55
Q 64.25 34.55 64.2 34.65 64.15 34.7 64.2 34.75
L 64.25 34.85 64.3 34.85 64.4 34.8
M 62.3 36.7
Q 62.35 36.6 62.3 36.55 62.3 36.5 62.2 36.5 62.15 36.5 62.15 36.65
L 62.2 36.7 62.3 36.7
M 62.45 34.65
L 62.3 34.6 62.25 34.55 62.2 34.6 62.15 34.6 62.05 34.65 62.05 34.7 62.1 34.85 62.1 34.9 62.2 34.9 62.25 34.95 62.35 34.95
Q 62.4 34.9 62.4 34.85
L 62.45 34.8 62.45 34.65
M 63.1 31.9
L 63.05 31.9 62.95 31.95 62.95 32.3 63.1 32.4 63.15 32.35 63.2 32.35 63.2 32.25 63.25 32.2 63.25 32.15 63.2 32.15 63.2 32.05 63.15 32
Q 63.15 31.9 63.1 31.9
M 65.1 33.6
L 65.15 33.55 65.15 33.35 65.1 33.3 65 33.3 64.9 33.35 64.85 33.4
Q 64.8 33.45 64.85 33.55
L 64.95 33.55 64.95 33.6 65.1 33.6
M 63.5 32.05
L 63.55 32 63.55 31.9 63.5 31.85 63.4 31.85 63.3 31.95 63.3 32.05 63.4 32.1
Q 63.45 32.15 63.5 32.05
M 64.55 32.3
L 64.55 32.2 64.6 32.15 64.6 32.1 64.5 32 64.45 32 64.35 32.1 64.35 32.15 64.4 32.15 64.4 32.25 64.45 32.3 64.55 32.3
M 64.65 28.75
L 64.65 28.7
Q 64.55 28.65 64.5 28.7
L 64.45 28.7 64.45 28.75
Q 64.4 28.8 64.5 28.9
L 64.6 28.9 64.65 28.85 64.65 28.8 64.7 28.8 64.65 28.75
M 65.35 28.1
L 65.3 28.1 65.25 28.15 65.25 28.25 65.2 28.25 65.25 28.3 65.25 28.35 65.4 28.4 65.5 28.3 65.5 28.2
Q 65.45 28.1 65.35 28.1
M 61.95 30.5
L 61.95 30.55 62.05 30.6 62.2 30.6 62.2 30.55 62.25 30.5 62.25 30.45 62.2 30.3 62.15 30.25
Q 62 30.25 61.9 30.45
L 61.95 30.5
M 61.15 30.85
Q 61.05 30.85 61.05 30.9
L 61.05 31 61.1 31.05 61.25 31.05 61.3 31 61.3 30.95 61.25 30.85 61.15 30.85
M 61.4 28.3
L 61.4 28.25
Q 61.45 28.15 61.35 28.1
L 61.3 28.05 61.3 28.1 61.25 28.1 61.25 28.25 61.3 28.3 61.4 28.3
M 63.2 26.5
L 63.05 26.4
Q 62.95 26.4 62.9 26.5 62.9 26.65 62.95 26.65
L 63 26.65 63 26.7 63.1 26.7
Q 63.15 26.65 63.15 26.6
L 63.2 26.6 63.2 26.5
M 61.85 25.1
L 61.8 25.1 61.75 25.05
Q 61.65 25.05 61.6 25.1
L 61.6 25.35
Q 61.7 25.4 61.75 25.35 61.85 25.35 61.85 25.25
L 61.85 25.2
Q 61.9 25.15 61.85 25.1
M 64.55 26.4
L 64.55 26.35 64.5 26.25
Q 64.4 26.2 64.35 26.3
L 64.4 26.4 64.45 26.45 64.55 26.4
M 69.9 30.1
L 69.9 30.2 70 30.3 70.05 30.3 70.15 30.2 70.15 30.15 70.05 30.05 69.9 30.1
M 65.85 30.85
L 65.85 30.7 65.8 30.75 65.8 30.65 65.75 30.65
Q 65.65 30.65 65.65 30.75
L 65.65 30.8
Q 65.7 30.9 65.8 30.9
L 65.85 30.85
M 66.95 28.95
L 67 28.9 67 28.75 66.9 28.65
Q 66.8 28.7 66.8 28.75
L 66.75 28.8 66.75 28.85 66.85 28.95 66.95 28.95
M 66.45 26.75
L 66.5 26.65 66.45 26.6 66.4 26.5
Q 66.3 26.45 66.2 26.6
L 66.2 26.65 66.25 26.7 66.25 26.75 66.35 26.75 66.35 26.8 66.4 26.8 66.45 26.75
M 68.5 26.05
L 68.5 26.1 68.55 26.2
Q 68.6 26.3 68.65 26.2
L 68.7 26.2 68.7 26.15 68.65 26.1 68.65 26.05 68.5 26.05
M 73.65 36
Q 73.6 36.1 73.65 36.15
L 73.65 36.25 73.75 36.3 73.75 36.25 73.8 36.25 73.9 36.15 73.9 36.05
Q 73.75 35.95 73.65 36
M 71.55 36.15
L 71.5 36.1 71.5 36 71.35 36 71.35 36.2 71.4 36.25 71.45 36.25 71.55 36.15
M 71.1 34.55
L 71.1 34.45
Q 71.05 34.35 70.9 34.4
L 70.85 34.45 70.85 34.5 70.9 34.55 71.05 34.6 71.1 34.55
M 72.25 32.5
L 72.2 32.6 72.15 32.6 72.15 32.7
Q 72.25 32.75 72.35 32.75
L 72.4 32.7 72.4 32.6
Q 72.35 32.5 72.3 32.5
L 72.25 32.5
M 71.05 33
Q 71 33 70.95 33.1
L 70.95 33.15 71 33.25 71.1 33.25
Q 71.3 33.15 71.15 33.05
L 71.15 33 71.05 33
M 73.6 30.85
L 73.6 30.7 73.5 30.6
Q 73.45 30.55 73.35 30.6
L 73.35 30.8 73.4 30.85
Q 73.55 30.85 73.6 30.85
M 70.95 27.35
Q 71 27.25 70.95 27.25
L 70.85 27.15 70.8 27.15 70.75 27.2 70.75 27.3
Q 70.8 27.35 70.85 27.35
L 70.95 27.35
M 56.2 44.1
Q 56.1 44.25 56.15 44.3
L 56.15 44.4 56.2 44.45 56.2 44.5 56.35 44.6 56.4 44.55 56.45 44.55 56.65 44.35 56.65 44.25 56.6 44.15
Q 56.35 44 56.2 44.1
M 58.85 45.5
L 58.65 45.35
Q 58.4134765625 45.231640625 58.15 45.25
L 58.1 45 57.9 44.85
Q 57.6 44.7 57.3 44.8 57.05 44.85 56.9 45.2 56.890625 45.2328125 56.85 45.25 56.7166015625 45.24453125 56.55 45.3 56.3 45.35 56.15 45.7 56.05 46.05 56.2 46.45
L 56.35 46.6 56.5 46.7 56.8 46.65
Q 56.8333984375 46.6416015625 56.85 46.6 56.8376953125 46.9005859375 56.95 47.2
L 57.1 47.35 57.25 47.45 57.55 47.4
Q 57.941796875 47.3021484375 58.15 46.65
L 58.3 46.65
Q 58.7 46.55 58.9 45.9
L 58.95 45.85 58.85 45.5
M 52.3 44.35
L 52.25 44.2 52.2 44.1 52.15 44.1 52.1 44.05 52.05 44.1 51.95 44.1 51.9 44.15 51.9 44.35 51.95 44.4 51.95 44.45 52 44.5 52.15 44.5 52.3 44.35
M 51.05 41.3
L 51.15 41.4 51.35 41.5 51.4 41.45 51.45 41.35 51.5 41.3 51.45 41.2
Q 51.35 41.05 51.15 41.1
L 51.05 41.2 51.05 41.3
M 51.6 38.65
L 51.55 38.55 51.5 38.5 51.4 38.5
Q 51.25 38.5 51.2 38.7
L 51.2 38.85 51.25 38.95 51.4 39 51.5 38.95
Q 51.8 38.85 51.6 38.65
M 53.55 37.65
L 53.5 37.75 53.45 37.75 53.45 37.95
Q 53.55 38.1 53.75 38.1
L 53.9 37.95 53.85 37.95 53.9 37.9 53.9 37.8
Q 53.75 37.65 53.7 37.65
L 53.55 37.65
M 56.35 42.4
L 56.05 42.4
Q 55.55 42.55 55.65 43.05
L 55.85 43.3 55.9 43.35
Q 55.9 43.4 56.1 43.55
L 56.2 43.6 56.35 43.75 56.4 43.75 56.4 43.8 56.6 44.05 56.65 44.1
Q 56.65 44.15 56.85 44.3
L 56.95 44.35 57.1 44.5 57.2 44.55 57.45 44.6 57.75 44.4 57.95 44.2
Q 58.0607421875 43.978515625 58 43.8
L 58.2 43.85 58.5 43.65 58.7 43.45
Q 58.85 43.15 58.7 42.95
L 58.5 42.7 58.35 42.75 58.25 42.7 58.1 42.5 57.9 42.4 57.75 42.2 57.6 42.25 57.5 42.2 57.35 42 57.15 41.9 56.8 41.9
Q 56.379296875 42.026171875 56.35 42.4
M 56.55 40.5
L 56.5 40.4 56.5 40.35
Q 56.35 40.25 56.3 40.45
L 56.3 40.55 56.35 40.6
Q 56.45 40.6 56.45 40.55
L 56.5 40.55 56.55 40.5
M 56.5 38.25
L 56.45 38.2
Q 56.3 38.15 56.25 38.3
L 56.2 38.4 56.3 38.5
Q 56.35 38.5 56.4 38.5
L 56.45 38.5 56.5 38.45 56.5 38.25
M 57.75 38.65
L 57.8 38.6
Q 57.8 38.5 57.75 38.45
L 57.6 38.45 57.55 38.5 57.55 38.65
Q 57.65 38.7 57.7 38.65
L 57.75 38.65
M 60.1 40
Q 60.15 40.05 60.25 40
L 60.3 39.95 60.3 39.9 60.25 39.8 60.15 39.8 60.1 39.85 60.1 40
M 59.2 37.8
Q 59.1 37.75 59 37.8
L 58.95 37.85 58.95 37.9
Q 58.95 38 59.05 38
L 59.1 38.05
Q 59.2 38 59.2 37.9
L 59.2 37.8
M 60.2 37.75
L 60.2 37.85 60.25 37.9 60.35 37.9
Q 60.45 37.85 60.4 37.75
L 60.35 37.7 60.25 37.7 60.2 37.75
M 50.55 49.3
L 50.4 49.45 50.35 49.75 50.4 49.9 50.6 50.1 50.75 50.2 51.1 50.3 51.1 50.25 51.1 50.5 51.15 50.65 51.35 50.85 51.5 50.95 51.85 51.05 52.15 50.9 52.3 50.7 52.35 50.6
Q 52.2900390625 50.3306640625 52.25 50.2
L 52.6 50.3 52.9 50.15 53.05 49.95 53.1 49.85
Q 53 49.4 53 49.35
L 52.9 49.2 52.65 49.1 52.45 49.1 52.3 49.1
Q 52.25 48.8865234375 52.25 48.85
L 52.15 48.7 51.9 48.6 51.7 48.6 51.5 48.65 51.3 48.8 51.15 48.95 51.1 49.1 50.95 49.1 50.75 49.15 50.55 49.3
M 49.95 47.8
L 49.9 47.75 49.8 47.7 49.65 47.7 49.55 47.8 49.55 47.95
Q 49.65 48.1 49.85 48.05 50 47.9 49.95 47.8
M 47.1 44.25
Q 46.95 44.35 46.95 44.45
L 47 44.5 47.05 44.6 47.1 44.65 47.2 44.7 47.25 44.7 47.35 44.65 47.4 44.6 47.4 44.35
Q 47.25 44.2 47.1 44.25
M 50.45 44.7
Q 50.1 44.55 49.9 44.6 49.534765625 44.69140625 49.45 45.1 49.2759765625 45.0685546875 49.15 45.1 48.75 45.2 48.7 45.7
L 48.75 46.1 48.9 46.2
Q 49.1 46.35 49.4 46.25 49.4544921875 46.234375 49.5 46.2 49.4630859375 46.319140625 49.45 46.45
L 49.5 46.85 49.65 46.95
Q 49.85 47.1 50.15 47 50.5 46.9 50.7 46.65
L 50.6 46.3
Q 50.75546875 46.2982421875 50.9 46.25 51.25 46.15 51.45 45.9
L 51.35 45.35 51.2 45.2
Q 50.85 45.05 50.65 45.1
L 50.6 44.85 50.45 44.7
M 40.8 44.8
L 40.85 44.85 40.85 44.9 41.05 45.05 41.25 45.05
Q 41.45 44.85 41.35 44.65
L 41.35 44.55 41.2 44.4 41.15 44.4
Q 41 44.4 40.85 44.5
L 40.8 44.55 40.8 44.8
M 42.05 43.8
L 42.05 43.7 41.85 43.6 41.65 43.75 41.65 43.9
Q 41.65 44 41.85 43.95 42 43.95 42.05 43.8
M 44.7 46.4
L 44.75 46.35 44.75 46.2 44.7 46.15 44.6 46.1 44.5 46.1 44.45 46.2 44.4 46.25 44.4 46.35
Q 44.45 46.35 44.55 46.45
L 44.7 46.4
M 42.65 40.2
L 42.65 40 42.6 39.9 42.4 39.7 42.25 39.7
Q 41.95 39.85 42.15 40.25
L 42.15 40.3 42.2 40.3 42.25 40.35 42.45 40.35 42.5 40.3 42.65 40.2
M 40.5 39.5
L 40.5 39.45 40.55 39.4 40.55 39.3 40.5 39.25 40.5 39.15 40.4 39.1 40.25 39.1 40.1 39.15 40 39.3
Q 39.9 39.4 40 39.5 40 39.55 40.15 39.55
L 40.15 39.6 40.3 39.6 40.3 39.65 40.45 39.6 40.5 39.5
M 45.65 37.45
L 45.6 37.35 45.35 37.25 45.1 37.25 45 37.35 44.9 37.6 44.9 37.8 44.95 37.9 44.95 37.9 44.9 38.05
Q 44.9140625 38.00625 44.9 37.95
L 44.85 37.85 44.6 37.75 44.35 37.75 44.25 37.85 44.15 38.1 44.15 38.3 44.2 38.4 44.55 38.5 44.7 38.5 44.85 38.4 44.9 38.15 44.9 38.3 44.95 38.4 45.3 38.5 45.1 38.5 45 38.6 44.9 38.85 44.9 39.05 44.95 39.15 45.3 39.25 45.45 39.25 45.6 39.15 45.65 38.9
Q 45.7 38.9 45.65 38.7
L 45.6 38.6 45.35 38.5 45.45 38.5 45.6 38.4 45.65 38.15 45.65 38.3 45.7 38.4 46.05 38.5 46.2 38.5 46.35 38.4 46.4 38.15
Q 46.45 38.15 46.4 37.95
L 46.35 37.85 46.1 37.75 45.85 37.75 45.75 37.85 45.65 38.05
Q 45.664453125 38.0078125 45.65 37.95
L 45.6 37.85 45.6 37.85 45.65 37.65
Q 45.7 37.65 45.65 37.45
M 48.35 38.95
Q 48.25 38.95 48.15 39.1
L 48.15 39.25 48.2 39.25 48.2 39.35 48.25 39.45 48.35 39.45 48.4 39.5 48.45 39.45 48.6 39.45 48.7 39.35 48.75 39.15 48.7 39.1 48.65 39
Q 48.6 38.9 48.5 38.9
L 48.4 38.9 48.35 38.95
M 49.25 33.25
L 49.25 33.35 49.3 33.4 49.35 33.5 49.4 33.5 49.45 33.55 49.55 33.55 49.7 33.4 49.7 33.25 49.55 33.1 49.3 33.15 49.3 33.2 49.25 33.25
M 44.15 36.05
L 44.15 36.1 44.3 36.25 44.35 36.25
Q 44.6 36.1 44.65 36.05
L 44.65 35.95 44.6 35.9 44.65 35.9 44.6 35.85 44.6 35.75 44.55 35.7 44.45 35.65 44.25 35.7
Q 44.15 35.7 44.15 35.85
L 44.1 35.95 44.15 36.05
M 41.8 34.6
L 41.85 34.55 41.85 34.4 41.8 34.3 41.75 34.35 41.75 34.25 41.7 34.2 41.6 34.2
Q 41.4 34.2 41.4 34.35
L 41.4 34.5
Q 41.5 34.65 41.7 34.65
L 41.8 34.6
M 43.95 30.7
L 43.75 30.55 43.7 30.55
Q 43.55 30.6 43.55 30.7
L 43.5 30.8 43.5 30.9 43.55 30.95 43.55 31 43.65 31.05 43.8 31.05 43.9 31 43.9 30.95 43.95 30.7
M 45.15 29.15
L 44.85 29.15 44.75 29.25
Q 44.7 29.45 44.95 29.6 45 29.7 45.2 29.65
L 45.3 29.55
Q 45.35 29.4 45.15 29.15
M 41.2 29.75
L 41.15 29.7
Q 41.05 29.5 40.85 29.5
L 40.8 29.55 40.75 29.55 40.7 29.6 40.7 29.75 40.65 29.8 40.7 29.9 40.7 29.95 40.95 30.05 41.15 29.9 41.2 29.85 41.2 29.75
M 42.45 26.85
L 42.5 26.9 42.5 27 42.55 27.05 42.7 27.05 42.75 27.1 42.85 27.1 42.95 27 43 26.85 42.95 26.7 42.85 26.6
Q 42.6 26.5 42.45 26.75
L 42.45 26.85
M 45.7 30.35
Q 45.75 30.45 45.95 30.4
L 46.05 30.3
Q 46.1 30.15 45.9 29.9
L 45.6 29.9 45.5 30
Q 45.45 30.2 45.7 30.35
M 45.9 29.15
L 45.95 29.15 46.05 29.05
Q 46.1 28.9 45.9 28.65
L 45.6 28.65 45.5 28.75
Q 45.45 28.95 45.7 29.1 45.717578125 29.13515625 45.75 29.15
L 45.6 29.15 45.5 29.25
Q 45.45 29.45 45.7 29.6 45.75 29.7 45.95 29.65
L 46.05 29.55
Q 46.1 29.4 45.9 29.15
M 46.35 29.15
L 46.25 29.25
Q 46.2 29.45 46.45 29.6 46.5 29.7 46.7 29.65
L 46.8 29.55
Q 46.85 29.4 46.65 29.15
L 46.35 29.15
M 46.95 25.75
L 46.85 25.7 46.75 25.7 46.7 25.75 46.65 25.85 46.75 26.05
Q 46.85 26.15 46.95 26.05
L 47 26.05 47 26 47.05 26 47.05 25.9 47 25.8 46.95 25.75
M 60.1 36.7
L 59.85 36.7 59.75 36.85 59.85 37.2 60.1 37.2
Q 60.45 37 60.25 36.8
L 60.1 36.7
M 60.6 35.95
L 60.5 36.1 60.6 36.45 60.85 36.45
Q 61.2 36.25 61 36.05
L 60.85 35.95 60.6 35.95
M 59.35 35.95
L 59.1 35.95 59 36.1 59.1 36.45 59.35 36.45
Q 59.7 36.25 59.5 36.05
L 59.35 35.95
M 60.25 35.55
L 60.1 35.45 59.85 35.45 59.75 35.6 59.85 35.95 59.75 36.1 59.85 36.45 60.1 36.45
Q 60.45 36.25 60.25 36.05
L 60.1 35.95
Q 60.45 35.75 60.25 35.55
M 60.65 35.3
L 60.65 35.35 60.8 35.35 60.9 35.25 60.9 35.2 60.8 35.15 60.75 35.1 60.7 35.1 60.65 35.2
Q 60.6 35.25 60.65 35.3
M 58 36.75
L 58.05 36.7 58.05 36.6
Q 57.95 36.5 57.9 36.55 57.8 36.6 57.85 36.7
L 57.9 36.75 58 36.75
M 56.85 35.15
L 56.9 35.15 57 35.05 56.95 34.95 56.9 34.9 56.85 34.9
Q 56.75 34.95 56.8 35.05
L 56.85 35.15
M 60.6 33.6
L 60.7 33.6
Q 60.75 33.65 60.8 33.6
L 60.8 33.45 60.75 33.4 60.65 33.4
Q 60.6 33.45 60.6 33.55
L 60.6 33.6
M 58.6 33.45
Q 58.65 33.4 58.65 33.3
L 58.65 33.25 58.6 33.2 58.55 33.2
Q 58.4 33.2 58.4 33.3 58.35 33.3 58.4 33.4
L 58.45 33.45 58.6 33.45
M 58.75 31.45
L 58.75 31.5 58.85 31.55 58.85 31.6 58.95 31.6
Q 59.05 31.5 59 31.4
L 58.9 31.35 58.8 31.4 58.75 31.45
M 55.6 34.45
L 55.65 34.5 55.7 34.6
Q 56 34.6 56.05 34.55
L 56.1 34.5 56.1 34.4 56.05 34.25 55.9 34.1
Q 55.85 34.05 55.65 34.15
L 55.6 34.2 55.6 34.45
M 51.2 33.75
L 51.1 33.8
Q 50.75 34 50.75 34.35
L 50.8 34.45 50.9 34.6 51 34.65 51.4 34.6
Q 51.501953125 34.5490234375 51.55 34.45
L 51.65 34.6 51.7 34.6
Q 51.5 34.8205078125 51.5 35.1
L 51.55 35.2 51.65 35.35 51.75 35.4 52.15 35.35
Q 52.35 35.25 52.4 35.05 52.45 34.75 52.3 34.65
L 52.2 34.55
Q 52.26875 34.5322265625 52.3 34.45
L 52.4 34.6 52.5 34.65 52.9 34.6
Q 53.1 34.5 53.15 34.3 53.2 34 53.05 33.9
L 52.9 33.8 52.7 33.75 52.6 33.8
Q 52.4640625 33.877734375 52.35 33.95 52.368359375 33.9490234375 52.35 33.9 52.38125 33.875 52.4 33.8 52.45 33.5 52.3 33.4
L 52.15 33.3 51.95 33.25 51.85 33.3
Q 51.5 33.5 51.5 33.85
L 51.5 33.85 51.4 33.8 51.2 33.75
M 54.8 33.4
L 54.75 33.35 54.65 33.35 54.65 33.4 54.6 33.45 54.6 33.5 54.7 33.6 54.75 33.6 54.85 33.5 54.8 33.4
M 50.95 27.8
L 50.9 27.8 50.85 27.85 50.85 28.05
Q 50.95 28.15 51 28.15
L 51.15 28.15 51.2 28.1
Q 51.25 27.95 51.2 27.9
L 51.05 27.75 51 27.75 50.95 27.8
M 58.95 28.4
L 58.85 28.3
Q 58.75 28.3 58.7 28.35
L 58.7 28.55 58.9 28.55 58.95 28.5 58.95 28.4
M 57.55 30.05
L 57.3 30.1
Q 57.05 30.2 57.15 30.5
L 57.35 30.6 57.6 30.6 57.65 30.35 57.65 30.2 57.55 30.05
M 57.9 29.75
L 58.1 29.85 58.35 29.85 58.4 29.6 58.4 29.45 58.3 29.3 58.05 29.35
Q 57.8 29.45 57.9 29.75
M 55.7 30.45
L 55.7 30.4 55.6 30.3 55.55 30.35 55.5 30.35 55.5 30.5 55.6 30.55
Q 55.7 30.55 55.7 30.45
M 56.8 29.3
L 56.55 29.35
Q 56.3 29.45 56.4 29.75
L 56.6 29.85 56.85 29.85 56.9 29.6 56.9 29.45 56.8 29.3
M 57.3 29.35
L 57.3 29.35
Q 57.05 29.45 57.15 29.75
L 57.35 29.85 57.6 29.85 57.65 29.6 57.65 29.45 57.55 29.35 57.6 29.35 57.65 29.1 57.65 28.95 57.55 28.8 57.3 28.85
Q 57.05 28.95 57.15 29.25
L 57.3 29.35
M 59.8 25.7
L 59.8 25.65
Q 59.8 25.55 59.75 25.55
L 59.65 25.55 59.65 25.7 59.7 25.75 59.8 25.7
M 63.9 23.5
Q 63.85 23.45 63.75 23.45
L 63.6 23.45 63.6 23.65
Q 63.6 23.75 63.75 23.75
L 63.8 23.75 63.9 23.65 63.9 23.5 Z"/>
</g>
</defs>

<g transform="matrix( 1, 0, 0, 1, 0,0) ">
<use xlink:href="#Layer2_0_FILL"/>
</g>
</svg>
