
<svg xmlns="http://www.w3.org/2000/svg" version="1.1" xmlns:xlink="http://www.w3.org/1999/xlink" preserveAspectRatio="none" x="0px" y="0px" width="100px" height="100px" viewBox="0 0 100 100">
<defs>
<g id="Layer2_0_FILL">
<path fill="#363435" stroke="none" d="
M 70.25 91.05
Q 70.1 91 70 90.65 70 90.45 69.7 90.6 69.55 90.8 69.75 91.05 70 91.25 70.25 91.05
M 66.9 87.05
Q 67.05 87.2 67.4 87.45 67.7 87.7 67.9 87.5 67.6 87.2 67.9 87.05
L 67.35 86.55
Q 66.8 86.75 66.45 87.2 66.05 87.7 66.9 87.55 66.65 87.2 66.9 87.05
M 69.35 87.45
Q 69.2 87.05 69.1 86.9 68.95 86.6 68.6 86.75 68.7 86.9 68.85 87.35 69 87.65 69.35 87.45
M 68.8 85.45
Q 69.05 85.7 69.25 85.5 69.15 85.4 69.1 85.1 69.05 84.9 68.8 85.05 68.6 85.25 68.8 85.45
M 79.45 77.6
Q 78.9 78.15 79.25 78.8 79.8 78.25 79.45 77.6
M 76.6 75.3
Q 77.15 74.65 75.95 74.8 76.05 75.95 76.6 75.3
M 51.8 87.65
Q 52.15 85.7 51.65 86.45 51.1 87.2 51.8 87.65
M 55.05 89.2
L 55.5 88.7 55 88.25 54.55 88.75 55.05 89.2
M 60.4 89
Q 60.6 87.8 60.05 88.6 59.55 89.4 60.4 89
M 45.8 82.45
Q 46.05 82.65 46.25 82.45 46.15 82.4 46.1 82.05 46.05 81.85 45.75 82 45.6 82.2 45.8 82.45
M 60.2 86.5
Q 59.1 86.15 59.1 86.4 59.1 86.8 60.05 86.85 61.2 86.8 60.2 86.5
M 58.6 67.65
Q 58.9 66.75 58.2 67.35 57.45 67.95 58.6 67.65
M 49.7 70
Q 48.65 70.05 49.7 70.2 50.75 69.95 49.7 70
M 48.15 72.6
Q 47.4 73.2 48.6 72.9 48.9 72 48.15 72.6
M 47.45 73.95
Q 47.65 73.8 47.15 73.9 46.9 73.35 46.45 74.2 45.9 75.15 46.7 74.4 46.85 74.2 47.45 73.95
M 44.45 52.9
Q 43.4 52.95 44.45 53.1 45.5 52.9 44.45 52.9
M 50.95 52.1
Q 52 51.9 50.95 51.95 49.9 52 50.95 52.1
M 75.75 69.45
Q 75.95 68.8 75.8 68.7 75.65 68.6 75.4 68.85 74.65 69.65 75.75 69.45
M 68.85 68.25
Q 68.75 68.15 68.65 67.8 68.65 67.6 68.35 67.75 68.2 67.95 68.4 68.2 68.6 68.45 68.85 68.25
M 62.4 51.45
Q 63.45 51.2 62.4 51.25 61.35 51.3 62.4 51.45
M 65.8 51.3
Q 65.5 51.2 65.35 50.55 65.25 50.05 64.8 50.35 65.05 51.1 65.1 51.15 65.4 51.7 65.8 51.3
M 26.3 75.65
Q 26.6 74.8 25.85 75.4 25.15 75.95 26.3 75.65
M 29.7 83.1
Q 29.9 83.25 29.9 83.45 29.95 83.75 30 83.8 30.8 84 30.5 83.35 30.25 82.75 29.7 83.1
M 39.8 78.85
Q 40 77.65 39.45 78.45 38.95 79.2 39.8 78.85
M 38.95 75.7
Q 38.85 75.6 38.75 75.25 38.7 75.05 38.45 75.25 38.25 75.4 38.5 75.65 38.7 75.9 38.95 75.7
M 36.8 80.3
Q 36.75 79.85 36.65 79.7 36.65 80.35 35.75 80.65 34.95 80.9 35 81.45 35.35 81.3 36 81 36.55 80.8 36.95 80.9 36.8 80.65 36.8 80.3
M 18.05 63.3
Q 20.3 63.1 18.3 63 16.85 62.95 17.8 63.55 17.8 63.6 18.05 63.3
M 20.2 73.9
Q 20.25 73.35 19.65 73.75 19.85 73.85 19.8 74.5 19.7 75 20.15 74.7 20.1 74.65 20.2 73.9
M 4.2 64.6
Q 4.55 64.1 5.25 64.35 6.05 64.6 6.35 64.25 5.9 63.95 5.25 63.8 4.55 63.7 4.15 63.6 4.3 63.75 4.2 64.1 4.05 64.45 4.2 64.6
M 18.15 59.65
Q 18.45 58.8 17.7 59.4 16.95 59.95 18.15 59.65
M 17.3 61.45
Q 17.25 61.25 17 61.4 16.8 61.65 17 61.85 17.25 62.05 17.5 61.85 17.35 61.8 17.3 61.45
M 18.6 53.1
Q 18.8 52.7 19.75 52.8 20.5 52.8 20.3 52.3 20.2 52.4 19.15 52.3 18.35 52.25 18.6 53.1
M 17.9 54.3
Q 18.45 53.8 18.15 53.1 17.6 53.6 17.9 54.3
M 29.25 69.95
Q 30.25 69.75 29.25 69.8 28.2 69.85 29.25 69.95
M 24.45 69.25
Q 24.55 70.25 24.6 69.4 24.85 68.75 25 68.35 25.3 67.65 24.55 67.95 24.45 68.25 24.45 69.25
M 28.4 67.15
Q 27.35 67.2 28.4 67.3 29.45 67.1 28.4 67.15
M 29.2 62.25
Q 28.15 62.3 29.2 62.4 30.25 62.25 29.2 62.25
M 25.6 57.2
Q 25.25 56.9 25.1 56.8 24.8 56.55 24.6 56.75 24.75 56.85 25.1 57.15 25.35 57.35 25.6 57.2
M 28.75 51.2
Q 29.85 51.05 28.75 51.05 27.7 51.1 28.75 51.2
M 23.95 45.3
Q 24.45 44.75 24.1 44.1 23.55 44.65 23.95 45.3
M 22.9 43.9
Q 22.8 43.8 22.7 43.45 22.65 43.25 22.4 43.45 22.2 43.65 22.4 43.85 22.65 44.1 22.9 43.9
M 28.2 30.05
Q 27.9 29.8 27.7 29.65 27.4 29.45 27.25 29.6 27.4 29.7 27.7 30 28 30.2 28.2 30.05
M 29.1 27.6
Q 29.4 26.7 28.7 27.3 27.95 27.9 29.1 27.6
M 20.7 30
Q 20.85 29.65 20.45 29.85 19.8 30.1 20.1 30.75 20.45 31.15 20.2 30.6 20.55 30.25 20.7 30
M 33.35 36.7
Q 33.25 36.9 32.55 36.85 32.05 36.75 32.4 37.2 32.45 37.15 33.15 37.25 33.7 37.3 33.35 36.7
M 34.15 25
Q 33.1 25.1 34.15 25.2 35.2 25 34.15 25
M 30.5 29.5
Q 30.8 29.35 30.6 29 30.45 29.1 30.05 29.25 29.75 29.4 29.9 29.75 30.3 29.6 30.5 29.5
M 40 25.55
Q 39.7 25.35 39.5 25.5 39.65 25.65 40 25.9 40.3 26.1 40.5 25.95 40.15 25.65 40 25.55
M 37.5 30.2
Q 37.7 29 37.15 29.8 36.65 30.55 37.5 30.2
M 19.95 43.5
Q 20.2 42.35 19.65 43.1 19.1 43.9 19.95 43.5
M 14.85 30.8
Q 15.15 29.9 14.4 30.5 13.7 31.1 14.85 30.8
M 10.8 26.1
Q 11.25 25.95 10.5 25.65 9.8 25.35 9.8 25.65 9.8 25.9 10.25 26.05 10.6 26.15 10.8 26.1
M 38.3 19.2
Q 38.85 18.65 38.5 18 37.95 18.55 38.3 19.2
M 39.05 20.4
Q 39.45 20.2 39.65 20.15 39.95 20 39.75 19.65 39.6 19.8 39.2 19.9 38.9 20.05 39.05 20.4
M 37.5 24.6
Q 37.3 24.8 37.2 24.6 37.1 24.5 37 24.1 36.85 24.35 36.45 24.55 36.15 24.65 36.3 24.9 36.4 24.75 37.25 25.1 37.85 25.35 37.5 24.6
M 31.2 23.55
Q 30.5 24.15 31.65 23.85 31.95 23 31.2 23.55
M 39.1 14.75
Q 39.35 14.95 39.6 14.8 39.45 14.7 39.4 14.35 39.35 14.15 39.1 14.3 38.9 14.5 39.1 14.75
M 25 22.85
Q 25.3 22 24.6 22.6 23.85 23.15 25 22.85
M 21.85 21.55
Q 22.05 21.4 21.6 21.55 21.3 20.95 20.85 21.8 20.3 22.8 21.1 22.05 21.3 21.85 21.85 21.55
M 21.8 20.8
Q 21.7 20.7 21.65 19.9 21.6 19.3 21 19.6 21.15 19.7 21.3 20.5 21.45 21.1 21.8 20.8
M 20.65 16.45
Q 20.55 16.35 20.45 16.05 20.4 15.85 20.15 16 19.95 16.2 20.2 16.4 20.4 16.65 20.65 16.45
M 35.8 10.75
Q 35.45 10.5 35.3 10.35 35 10.15 34.8 10.35 34.95 10.45 35.3 10.75 35.55 10.95 35.8 10.75
M 33.8 10.35
Q 34.35 9.8 34 9.15 33.45 9.75 33.8 10.35
M 76.85 40.9
Q 77.25 42.25 77.55 41.45 77.9 40.7 76.85 40.9
M 80.35 43.7
Q 80.95 43.5 80.95 43.45 80.95 43.35 80.35 43.2 80.75 42.1 80.3 42.95 79.95 43.45 80.35 43.7
M 69.35 47.5
Q 69.55 46.35 69 47.1 68.5 47.9 69.35 47.5
M 64.55 49.45
Q 64.5 49.25 64.25 49.4 64.1 49.6 64.3 49.85 64.5 50.05 64.75 49.9 64.65 49.8 64.55 49.45
M 63.35 38.7
Q 63.2 38.35 63.1 38.15 63 37.85 62.65 38.05 62.75 38.2 62.9 38.6 63 38.9 63.35 38.7
M 69.05 40.7
Q 68.1 41.55 68.6 42.2 69.3 41.35 69.05 40.7
M 69.85 41.9
Q 69.2 42.5 70.1 43.1
L 70.6 42.6 69.85 41.9
M 68.05 37.5
Q 67.5 37.75 68 38.3 68.75 38.85 68.85 37.75 68.9 36.6 68.4 36.85 68.65 37.25 68.05 37.5
M 64.85 30.25
Q 65.25 30.5 65.5 30.35 65.45 30.3 65.55 29.6 65.6 29.05 65 29.4 65.25 29.7 65 29.9 64.75 29.7 64.65 29.65 64.4 29.55 64.25 29.65 64.45 29.85 64.85 30.25
M 59.05 40.35
Q 58.75 40.05 58.55 39.95 58.25 39.7 58.05 39.9 58.25 40 58.55 40.3 58.85 40.5 59.05 40.35
M 57.05 39.45
Q 56.75 39.15 56.55 39.05 56.3 38.85 56.1 39 56.25 39.1 56.55 39.4 56.85 39.6 57.05 39.45
M 48.25 46.65
Q 47.75 47.45 48.6 47.05 48.8 45.9 48.25 46.65
M 49.85 48.25
Q 49.7 48.05 49.7 47.65 49.7 47.25 49.6 47.05 49.05 47.25 49.2 47.95 49.35 48.65 49.85 48.25
M 45.95 40.8
Q 46.15 41 46.4 40.8 46.3 40.75 46.2 40.4 46.15 40.2 45.9 40.35 45.7 40.55 45.95 40.8
M 50.15 32
Q 49.65 32.8 50.5 32.4 50.7 31.25 50.15 32
M 48.5 31.5
Q 48.15 31.2 48 31.1 47.7 30.85 47.5 31.05 47.65 31.15 48 31.45 48.3 31.65 48.5 31.5
M 43.25 28.35
Q 42.2 28.4 43.25 28.5 44.3 28.35 43.25 28.35
M 44.35 30.75
Q 43.25 30.8 44.35 30.9 45.35 30.7 44.35 30.75
M 56.85 33.6
Q 57.05 32.45 56.55 33.2 56 34 56.85 33.6
M 55.5 29
Q 54.05 28.95 55 29.55
L 55.25 29.3
Q 57.55 29.05 55.5 29
M 58.55 26.25
Q 58.75 25.05 58.2 25.85 57.7 26.6 58.55 26.25
M 57.65 28.2
Q 57.85 27.05 57.3 27.8 56.8 28.6 57.65 28.2
M 56.5 18.3
Q 56.4 18.2 56.3 17.85 56.25 17.65 56 17.8 55.85 18 56.05 18.2 56.25 18.45 56.5 18.3
M 45.7 22.35
Q 46.1 22.2 46.25 22.1 46.55 21.95 46.4 21.6 46.25 21.7 45.85 21.85 45.55 22 45.7 22.35
M 49.85 21.95
Q 50 21.75 50.45 21.9 50.85 22 51.05 21.65 50.85 21.15 50.1 21.4 49.45 21.65 49.85 21.95
M 48.2 24.2
Q 48.5 23.3 47.8 23.9 47.05 24.5 48.2 24.2
M 42.2 21.3
Q 41.7 22.1 42.55 21.7 42.75 20.55 42.2 21.3
M 40.55 14.2
Q 40.8 14.45 41.05 14.25 40.9 14.15 40.85 13.8 40.8 13.6 40.5 13.75 40.35 13.95 40.55 14.2
M 68.1 17.2
Q 67.6 18 68.4 17.6 68.65 16.4 68.1 17.2
M 88.4 76
Q 88.85 77.4 89.15 76.6 89.45 75.85 88.4 76
M 81.7 79.2
Q 82 78.3 81.3 78.9 80.55 79.5 81.7 79.2
M 94.7 68.25
Q 94.35 67.95 94.2 67.85 93.9 67.6 93.7 67.75 93.9 67.9 94.2 68.2 94.5 68.4 94.7 68.25
M 83.65 72.05
Q 84.8 71.95 84.15 71.4 83.95 71.2 83.8 71.35 83.55 71.5 83.65 72.05
M 86.5 51.25
Q 86.75 50.05 86.2 50.85 85.65 51.65 86.5 51.25
M 87.7 50.5
Q 88.7 50.25 87.7 50.3 86.65 50.35 87.7 50.5
M 88.9 50.65
Q 90.1 50.55 89.4 50 88.75 49.45 88.9 50.65
M 83.95 60.6
Q 84.6 59.75 84.4 59.1 83.4 59.95 83.95 60.6
M 96.05 39.95
Q 96.3 38.75 95.75 39.55 95.2 40.3 96.05 39.95
M 84.9 47.9
Q 85.35 49.25 85.65 48.5 85.95 47.7 84.9 47.9
M 82.6 44.35
Q 82.5 44.25 82.4 43.9 82.35 43.7 82.1 43.85 81.9 44.05 82.15 44.3 82.35 44.55 82.6 44.35
M 83.75 42.6
Q 84.15 42.2 84.3 41.95 84.6 41.6 84.45 41.35 84.15 41.65 83.65 41.85 83.4 42.05 83.75 42.6
M 88.2 42.6
Q 87.45 43.2 88.65 42.9 88.95 42 88.2 42.6
M 87.4 42.15
Q 87.7 42.35 87.85 42.2 87.55 41.9 87.4 41.75 87.1 41.6 86.9 41.75 87.05 41.85 87.4 42.15 Z"/>
</g>
</defs>

<g transform="matrix( 1, 0, 0, 1, 0,0) ">
<use xlink:href="#Layer2_0_FILL"/>
</g>
</svg>
