
<svg xmlns="http://www.w3.org/2000/svg" version="1.1" xmlns:xlink="http://www.w3.org/1999/xlink" preserveAspectRatio="none" x="0px" y="0px" width="100px" height="100px" viewBox="0 0 100 100">
<defs>
<g id="Layer2_0_MEMBER_0_MEMBER_0_MEMBER_0_FILL">
<path fill="#000000" stroke="none" d="
M 15.1 59.45
Q 15.8 59.05 15.2 58.35 14.75 57.9 13.9 57.9 13.2 57.9 13 58.55 12.75 59.1 13.05 59.5 13.5 60.05 14.15 59.9 14.7 59.7 15.1 59.45 Z"/>
</g>

<g id="Layer2_0_MEMBER_0_MEMBER_0_MEMBER_1_FILL">
<path fill="#000000" stroke="none" d="
M 42.5 15.25
Q 41.75 15.25 41.45 14.9 40.85 14.2 40.3 14.75 40.25 14.8 39.9 14.7
L 39.9 15.4
Q 39.85 16.1 40.55 16.55 41.15 16.85 41.6 16.3 41.8 16.25 41.8 15.95 42.1 15.4 42.75 15.45
L 43.55 15.45
Q 43.45 15.4 42.5 15.25 Z"/>
</g>

<g id="Layer2_0_MEMBER_0_MEMBER_0_MEMBER_2_FILL">
<path fill="#000000" stroke="none" d="
M 51.7 12.95
Q 52.05 13.3 52.3 13.3 52.45 13.3 52.65 13 52.9 12.65 52.85 12.45 52.85 12.25 52.6 11.95 52.3 11.7 52.05 11.65 51.85 11.65 51.6 11.9 51.4 12.1 51.4 12.35 51.4 12.6 51.7 12.95 Z"/>
</g>

<g id="Layer2_0_MEMBER_0_MEMBER_0_MEMBER_3_FILL">
<path fill="#000000" stroke="none" d="
M 8.95 51.85
Q 8.7 51.65 8.5 51.7 8.3 51.7 8.1 51.95 7.9 52.15 7.95 52.4 8.1 52.8 8.55 52.8 8.8 52.75 9.05 52.55 9.3 52.3 9.25 52.15 9.25 52 8.95 51.85 Z"/>
</g>

<g id="Layer2_0_MEMBER_0_MEMBER_0_MEMBER_4_FILL">
<path fill="#000000" stroke="none" d="
M 48.45 15.5
Q 48.3 15.7 48.35 16.15
L 50 16.15
Q 50.65 16.15 50.8 15.95
L 49.6 16
Q 49.35 16 49.3 15.65 49.25 15.3 48.95 15.3 48.7 15.25 48.45 15.5 Z"/>
</g>

<g id="Layer2_0_MEMBER_0_MEMBER_0_MEMBER_5_FILL">
<path fill="#000000" stroke="none" d="
M 20.9 84.5
Q 20.55 84.2 20.25 84.5
L 19.85 84.95 20.75 85.4 20.95 85
Q 21.2 84.65 20.9 84.5 Z"/>
</g>

<g id="Layer2_0_MEMBER_0_MEMBER_0_MEMBER_6_FILL">
<path fill="#000000" stroke="none" d="
M 11.15 61.35
Q 10.85 60.75 10.35 61.05 10 61.15 9.85 61.35 9.45 61.85 9.6 62.05 10.05 62.7 10.45 62.65 10.85 62.65 11.05 62.35 11.55 62.05 11.15 61.35 Z"/>
</g>

<g id="Layer2_0_MEMBER_0_MEMBER_0_MEMBER_7_FILL">
<path fill="#000000" stroke="none" d="
M 61.45 85.5
Q 61.5 85.15 61.15 85.05 60.7 85.15 60.7 85.5 60.7 85.85 61.1 85.85 61.45 85.85 61.45 85.5 Z"/>
</g>

<g id="Layer2_0_MEMBER_0_MEMBER_0_MEMBER_8_FILL">
<path fill="#000000" stroke="none" d="
M 11.4 55.2
Q 11.3 54.9 10.95 54.8 10.7 54.85 10.7 55.2 10.8 55.6 11.15 55.6 11.45 55.5 11.4 55.2 Z"/>
</g>

<g id="Layer2_0_MEMBER_0_MEMBER_0_MEMBER_9_FILL">
<path fill="#000000" stroke="none" d="
M 24.75 80.25
Q 24.75 79.7 24.05 79.7 23.4 79.7 23.4 80.4 23.4 81.2 24 81.2 24.25 81.25 24.55 80.9 24.8 80.55 24.75 80.25 Z"/>
</g>

<g id="Layer2_0_MEMBER_0_MEMBER_0_MEMBER_10_FILL">
<path fill="#000000" stroke="none" d="
M 35.2 82.65
Q 34.95 82.15 34.5 82.15 33.9 82.15 33.8 82.45 33.2 82.9 33.6 83.85 33.6 84.45 34.15 84.75
L 34.7 85.05
Q 35.15 86 35.55 86.3 35.9 86.55 36.6 86.45 36.8 86.45 36.95 86.3 37.85 85.6 37.45 84.9 37.35 84.3 37.1 84.1 36.9 83.95 36.25 83.85
L 36.05 83.7 36.05 83.5
Q 36 83.1 35.2 82.65 Z"/>
</g>

<g id="Layer2_0_MEMBER_0_MEMBER_0_MEMBER_11_FILL">
<path fill="#000000" stroke="none" d="
M 34.6 85.8
Q 34.6 85.6 34.35 85.5 34.15 85.5 34.05 85.75 34.05 85.95 34.3 86.05 34.5 86.05 34.6 85.8 Z"/>
</g>

<g id="Layer2_0_MEMBER_0_MEMBER_0_MEMBER_12_FILL">
<path fill="#000000" stroke="none" d="
M 16.25 76.05
Q 16.35 75.55 15.9 75.35 15.7 75.45 15.75 75.55 15.95 76 16.25 76.05 Z"/>
</g>

<g id="Layer2_0_MEMBER_0_MEMBER_0_MEMBER_13_FILL">
<path fill="#000000" stroke="none" d="
M 18.5 73.6
Q 18.4 73.45 17.85 73.45 17.25 73.8 17.4 74.3 17.45 74.65 18.1 74.65 18.9 74.65 18.5 73.6 Z"/>
</g>

<g id="Layer2_0_MEMBER_0_MEMBER_0_MEMBER_14_FILL">
<path fill="#000000" stroke="none" d="
M 81.25 38.35
Q 81.25 38.05 81 37.7 80.8 37.05 80.55 36.8
L 80.5 36.65
Q 80.2 35.85 79.3 35.05 79.15 34.6 78.8 34.35 78.8 34.15 78.6 34.05
L 78.05 33.35 78.05 32.65
Q 77.75 31.35 76.35 31.6
L 76.15 31.4 75.65 31.05
Q 75.55 30.85 75.2 30.7 74.75 30.55 74.8 30.1 75.05 29.45 74.35 28.85 73.85 28.3 73.55 27.6 74.8 26.6 74.95 26.55 75.4 26.55 75.5 26.05 75.6 25.75 75.5 24.65 75.15 23.55 74.2 23.35 73.75 23.25 72.25 23.35
L 72.9 22.55
Q 73.2 22.15 73.2 21.55 73.2 20.85 73.2 20.5 73.2 20.15 72.5 19.45
L 72 18.95
Q 71.95 18.85 72.15 18.75 71.8 18.4 71.5 18.4 71.2 18.65 70.85 18.5 70.1 18.2 69.4 18.75 69.1 19.1 68.9 19.25 68.5 19.25 68.35 19.45
L 68 19.45 67.85 19.6
Q 66.8 20.35 66.9 21.2 66.95 21.6 66.85 21.7 66.75 21.8 66.25 21.9 65.1 21.7 64.55 21.65
L 64.55 21.5 64.7 21.35 64.7 21.15
Q 64.95 20.5 64.8 20.3 64.65 20.1 64 20.05
L 63.7 20.1
Q 63.55 19.05 63.5 18.9 63.3 18.55 62.9 18.3 62.2 17.8 61.4 18 60.65 18.15 60.2 18.9 59.9 19.05 59.65 18.85 59.35 18.6 59.2 18.5 58.85 18.2 58.65 18.1 58.3 17.85 57.95 17.9 56.75 18.05 55.55 17.75 53.75 17.3 53.15 18.8 53 19 52.75 19.1
L 52.05 19
Q 48.65 18.05 44.6 18.6
L 43.6 18.7
Q 43 18.7 42.65 18.9 41.3 18.85 40.05 19.45
L 39.7 19.45 39.35 19.6 39.2 19.6
Q 39.5 19.25 39.45 19 39.15 17.6 38.5 17.2
L 38.3 17
Q 37.35 16.6 37.1 16.1 36.65 15.3 35.8 15.05 34.95 14.85 34.1 15.35 33.45 15.75 33.1 16.65 32.75 17.2 33.1 17.7
L 33.1 17.85
Q 33.15 18.05 33.1 18.4 33.1 18.7 33.3 18.9 33.35 19.1 33.6 19.6 33.8 20 33.8 20.3
L 33.8 20.8
Q 33.8 21.1 33.95 21.15
L 34 21.15
Q 34 21.6 33.75 21.85
L 33.45 21.35
Q 33.35 20.85 32.6 20.65 32.4 20.45 32.25 20.65 31.5 20.85 31.3 21.3 31.1 21.8 31.5 22.4
L 31.85 22.9 31.55 23.05 31.4 23.1 31.2 23.25 31.05 23.45 29.6 24.45
Q 28.85 24.75 28.25 25.35 27.75 25.65 27.7 26 27.45 26.15 27.4 26.4
L 27 26.7 26.85 26.75
Q 26.65 26.75 26.5 26.9 26.1 26.95 25.8 27.25 25.75 27.4 25.55 27.4 25.05 27.6 24.25 28.3 24.15 28.3 24.05 28.45
L 23.55 28.45 23.4 28.3
Q 22.9 27.7 22.55 27.65 22.25 27.6 21.65 27.95
L 21.45 28.25
Q 21.3 28.9 20.65 28.7 19.8 28.5 19.05 29.15
L 18.85 29.15
Q 18.6 29.15 18.55 29.35 17.65 30.1 18.15 31.25 18.8 32.25 20 32.1 20.25 32.05 20.45 32.1
L 20.35 32.3
Q 19.7 32.45 19.6 32.6 19.5 32.7 19.55 33.3
L 19.55 33.85 19.6 33.85 19.6 33.9 19.55 33.85
Q 19.4 34 19.4 34.4
L 19.4 34.9
Q 18.8 36.5 18.9 38.7
L 18.85 41.9
Q 18.85 42.75 18.75 42.85 18.6 42.95 17.85 42.7
L 17.65 42.55
Q 16.7 42.55 16.5 42.7 16.05 43.05 14.85 43.05 13.7 43.5 13.75 44.5 13.85 45.8 14.7 46
L 15.2 46.5
Q 15.85 46.95 16.3 46.6 16.5 46.4 17 46.25 17.5 46.1 17.65 46
L 18.2 46 17.9 46.6
Q 17.35 47.5 17.35 47.85 17.3 48.65 16.95 50.15 16.8 50.3 16.8 50.5
L 16.75 50.7
Q 16.6 50.85 16.6 51.05 16.35 51.6 16.25 52.8 14.95 53.4 14.85 55.05 14.85 55.65 14.5 55.9 14.7 56.15 15 56.8 15.25 57.4 15.5 57.65
L 15.75 58 16.1 59.55
Q 16 59.55 16.1 59.65 15.45 60.1 15.4 60.6 16 60.8 16.05 60.95 16.15 61.1 16.05 61.75 15.9 62.9 16.8 63.55 17.1 63.6 17.5 64.1 18.05 64.85 18.5 64.95 18.45 65.1 17.8 65.6 16.65 66.6 17.1 68.1 17.15 68.4 17.3 68.95 17.5 69.15 17.5 69.55 17.5 70 17.65 70.15 18 70.75 18.3 70.85 18.65 70.95 19.4 70.7
L 19.55 70.65
Q 20.4 70.65 20.95 69.45 21.25 68.55 21.25 68.5 21.3 68.05 21.85 67.7
L 22 67.7 22.85 68.25
Q 22.85 68.6 22.4 69.15 22.25 69.75 22.8 69.95 23.05 70.1 23.35 70.05 23.75 69.95 23.95 69.45
L 24.45 69.8
Q 24.05 70.6 24.05 70.65 23.35 70.9 23.05 71.35
L 22.85 71.55
Q 22.9 72.05 22.25 72.6 20.75 74 22.2 75.45
L 22.55 75.7 22.85 75.7 22.85 76.6
Q 22.95 77.85 24.25 78.15
L 24.75 78.5 25.1 78.65 24.95 79.15
Q 24.6 79.5 25.1 79.9 25.35 80.15 25.8 79.7 26.1 79.35 26.2 79.35 26.3 79.35 26.5 79.7 25.65 80.6 25.5 82.2 25.4 83.05 25.1 83.3 24.9 83.5 25.05 83.85 25.3 84.1 25.6 84 25.75 83.95 26 83.85
L 26.15 84.05
Q 26.7 85.45 28.6 85.6 28.8 85.85 28.95 85.6 30.65 85 31.6 84.95 32.1 84.75 32.25 84.6 32.9 84.6 33.05 83.85 33.65 82.3 32.6 81.25
L 32.4 81.1
Q 32.65 80.7 33 81.05 33.7 81.85 34.85 81.95
L 35.55 81.95 35.75 81.8
Q 36.2 81.5 36.35 81.6 37.05 82.1 37.8 81.25
L 37.95 81.25
Q 38.15 81.6 38.5 81.75 40.15 83.1 42.2 83.85 42.5 84.15 42.95 84.2 43.2 84.2 43.7 84.25 43.35 84.85 43.35 85.1 42.9 86.05 43.7 87.5 43.7 87.7 43.9 87.85 44.4 88.25 44.75 88.25 45.3 88.5 45.6 88.2
L 45.75 88.2
Q 46.2 88 46.55 87.55 47.05 86.95 46.85 86.2 46.65 85.4 45.95 85.1 45.85 84.8 45.45 84.75 44.95 84.7 44.8 84.6 45.25 84.45 45.45 84.05 45.85 83.95 45.9 83.85
L 47.35 83.5
Q 47.55 83.5 47.7 83.35
L 47.85 83.35
Q 48.25 83.35 48.4 83.15 48.65 83.15 48.7 83
L 48.75 83
Q 48.9 83 48.95 82.85 49.55 82.55 50.15 82.95 51 83.45 51.85 83.4
L 54.15 83
Q 54.75 83.1 55.3 82.85
L 58.1 81.6
Q 58.3 81.6 58.8 81.5 59.2 81.35 59.45 81.4 59.7 81.5 59.85 81.3
L 60.15 81.25
Q 60.75 81.25 60.9 81.6 61.7 81.5 61.85 80.7 62.05 80.6 62.8 80.1 63.35 79.75 63.8 79.65
L 64.1 79.8
Q 64.8 80.2 65.45 79.85 66.1 79.45 66.15 78.65
L 66.1 78.05
Q 66.55 77.8 66.65 77.65
L 67.3 77.3
Q 67.55 77.3 67.7 77.1
L 67.85 77.1
Q 68 77.1 68.05 76.95
L 68.65 76.7 68.9 76.4 70.45 75.5
Q 71 75.35 71.3 75 71.7 74.9 72.2 74.35 72.35 74.45 73.15 75.05 73.7 75.5 74.15 75.65 74.75 75.85 74.95 75.7
L 75.15 75.7
Q 75.45 76 75.85 75.7
L 76 75.7
Q 76.85 76.05 77.55 75.35 78.45 74.45 79.3 74.15
L 79.9 73.65
Q 80.85 72.95 80.35 71.7 80.25 70.55 78.6 70.15 78.55 70 78.4 70.15 77.55 69.85 75.8 70.15
L 75.65 70.15 75.5 69.85
Q 76.2 69.75 76.35 69.55 76.45 69.4 76.35 68.8
L 76.35 68.75 76.85 68.25 76.9 68.25 77.2 68.3
Q 77.9 68.5 78.4 68 78.8 67.55 78.5 66.8
L 78.25 66.15 78.25 65.65
Q 78.45 65.5 78.45 65.3 78.75 65 78.75 64.6
L 79.15 63.4 79.45 63.55 79.65 63.9
Q 79.9 64.25 80.15 63.9 80.5 63.85 81 64.05 81.25 64.1 81.8 64.3 83.25 64.75 84.5 64.1 85.2 63.6 85.35 63.15 85.5 62.75 85.9 62.6 86.3 62.5 86.65 62.15 86.85 61.95 87.2 61.5 87.7 60.85 87.4 60.25 86.6 58.5 85.4 58.5 85.25 58.35 84.7 58.35
L 84.5 58.35
Q 83.45 58.5 83.4 58.5 82.55 58.45 81.75 59.05 80.9 59.05 80.7 59.1 80.35 59.2 80.35 58.7 80.55 57.8 81.05 56.5 81.7 54.75 81.9 51.55
L 81.9 50
Q 82.15 49.55 82.05 48.6 82.15 48.1 82.05 47.55 82.15 46.65 82.05 46.2 82 45.5 81.4 44.9 80.95 44.4 80.95 43.4
L 81.05 42.35
Q 81.4 41.55 81.4 39.6
L 81.4 38.95
Q 81.4 38.55 81.25 38.35 Z"/>
</g>

<g id="Layer2_0_MEMBER_0_MEMBER_0_MEMBER_15_FILL">
<path fill="#000000" stroke="none" d="
M 86.75 71
Q 86.65 70.05 85.75 69.8 85.15 69.6 84.9 69.5 84.4 69.4 84 69.6 83.55 70.1 83.5 70.45 83.5 70.7 83.75 71.25 84.05 71.9 84.7 72.2 85.3 72.35 85.85 72.2 86.8 71.9 86.75 71 Z"/>
</g>

<g id="Layer2_0_MEMBER_0_MEMBER_0_MEMBER_16_FILL">
<path fill="#000000" stroke="none" d="
M 83.25 55.15
Q 82.85 54.8 82.4 54.9 81.95 55.05 81.75 55.55 81.6 56 81.85 56.45 82.1 56.9 82.6 56.95
L 83.45 56.95
Q 83.9 57.35 84.35 56.95 84.75 56.5 84.8 56.3 84.8 56.05 84.45 55.9 83.85 55.65 83.25 55.15 Z"/>
</g>

<g id="Layer2_0_MEMBER_0_MEMBER_0_MEMBER_17_FILL">
<path fill="#000000" stroke="none" d="
M 88.7 35.75
Q 88.15 36.05 88.15 36.65 88.15 37.2 88.35 37.3 88.9 38.25 89.9 38.55 90.3 38.8 90.8 38.7 91.4 38.45 91.65 38.05 91.95 37.85 91.95 37.45 92.15 36.25 90.75 35.6 90.45 35.4 89.7 35.6 88.9 35.6 88.7 35.75 Z"/>
</g>

<g id="Layer2_0_MEMBER_0_MEMBER_0_MEMBER_18_FILL">
<path fill="#000000" stroke="none" d="
M 81.2 20.5
Q 81.15 21.2 81.9 21.55 82.2 21.85 82.25 21.85 82.5 22.15 82.8 21.85 83.15 21.4 83.15 21.25 83.15 21.15 82.8 20.8
L 82.75 20.5
Q 82.7 20.2 82.45 20 82.2 19.8 81.85 19.85 81.4 19.85 81.2 20.5 Z"/>
</g>

<g id="Layer2_0_MEMBER_0_MEMBER_0_MEMBER_19_FILL">
<path fill="#000000" stroke="none" d="
M 83.2 23.35
Q 83.2 22.55 82.5 22.55 81.75 22.65 81.75 23.25 81.75 23.85 82.4 23.95 82.7 23.95 82.95 23.75 83.2 23.6 83.2 23.35 Z"/>
</g>

<g id="Layer2_0_MEMBER_0_MEMBER_0_MEMBER_20_FILL">
<path fill="#000000" stroke="none" d="
M 83.2 48.95
Q 83.25 49.4 83.8 49.45 84.05 49.5 84.3 49.35 84.5 49.15 84.5 48.9 84.5 48.35 83.95 48.25 83.65 48.25 83.4 48.45 83.15 48.65 83.2 48.95 Z"/>
</g>

<g id="Layer2_0_MEMBER_0_MEMBER_0_MEMBER_21_FILL">
<path fill="#000000" stroke="none" d="
M 82.6 33.15
Q 82.2 33.6 82.6 34 82.65 34.5 83.15 35 84 35.85 84.8 34.85 85.55 33.8 84.15 33.15 84.05 33.05 83.85 33 83.6 32.95 83.55 32.9 83 32.7 82.6 33.15 Z"/>
</g>

<g id="Layer2_0_MEMBER_0_MEMBER_0_MEMBER_22_FILL">
<path fill="#000000" stroke="none" d="
M 17.9 21.75
Q 18.05 22.55 19.05 22.55
L 19.2 22.55
Q 19.9 22.8 20.2 22.7 20.45 22.6 20.6 22.05 20.6 21.15 19.55 20.5 19.15 20.35 18.55 20.5 17.7 20.9 17.9 21.75 Z"/>
</g>

<g id="Layer2_0_MEMBER_0_MEMBER_0_MEMBER_23_FILL">
<path fill="#000000" stroke="none" d="
M 13.2 43.9
Q 13.9 43.8 13.8 43.2 13.8 42.9 13.5 42.65 13.2 42.35 12.95 42.4 12.75 42.4 12.5 42.7 12.3 42.95 12.3 43.2 12.35 43.45 12.65 43.7 12.95 43.95 13.2 43.9 Z"/>
</g>

<g id="Layer2_0_MEMBER_0_MEMBER_0_MEMBER_24_FILL">
<path fill="#000000" stroke="none" d="
M 31.9 14.75
Q 31.65 15 31.75 15.55 31.85 16.1 32.3 16.1 32.75 16.2 33 15.75 33.2 15.4 33.05 14.9 32.95 14.65 32.4 14.55
L 31.9 14.75 Z"/>
</g>

<g id="Layer2_0_MEMBER_0_MEMBER_0_MEMBER_25_FILL">
<path fill="#000000" stroke="none" d="
M 27.6 21.7
Q 27.05 21.7 27.05 22.25 27.05 22.45 27.35 22.8 27.6 23.15 27.75 23.15 27.95 23.2 28.1 22.95 28.25 22.75 28.25 22.45 28.25 21.7 27.6 21.7 Z"/>
</g>

<g id="Layer2_0_MEMBER_0_MEMBER_0_MEMBER_26_FILL">
<path fill="#000000" stroke="none" d="
M 22.65 18.15
Q 22.55 18.65 23.3 18.65 23.85 18.65 23.85 18.15 23.9 17.95 23.7 17.75 23.55 17.55 23.3 17.55 22.65 17.45 22.65 18.15 Z"/>
</g>

<g id="Layer2_0_MEMBER_0_MEMBER_0_MEMBER_27_FILL">
<path fill="#000000" stroke="none" d="
M 17.65 24.85
Q 18.15 25.2 18.5 24.65
L 18.5 24.15 18.2 23.9
Q 17.7 23.6 17.5 24 17.2 24.55 17.65 24.85 Z"/>
</g>

<g id="Layer2_0_MEMBER_0_MEMBER_0_MEMBER_28_FILL">
<path fill="#000000" stroke="none" d="
M 28.75 20.5
Q 28.1 21.55 28.75 22.2
L 29 22.75
Q 29.6 23.85 30.65 22.55 31.1 21.35 31 20.5
L 30.85 20.3 30.85 20.15 31.35 19.7
Q 31.6 19.45 31.5 19.15 31.45 18.95 31.15 18.6 30.85 18.3 30.65 18.25 30.35 18.2 30 18.45 29.65 18.65 29.55 18.95 29.45 19.3 28.95 20.15
L 28.75 20.5 Z"/>
</g>

<g id="Layer2_0_MEMBER_0_MEMBER_0_MEMBER_29_FILL">
<path fill="#000000" stroke="none" d="
M 26.95 12.4
Q 26.9 12.7 27.2 12.8 27.55 12.85 27.65 12.5 27.75 12.2 27.45 12.2 27.1 12.1 26.95 12.4 Z"/>
</g>

<g id="Layer2_0_MEMBER_0_MEMBER_0_MEMBER_30_FILL">
<path fill="#000000" stroke="none" d="
M 23.55 27.35
Q 23.3 27.35 23.3 27.6 23.3 27.9 23.65 27.9 23.85 27.9 23.85 27.65 23.85 27.35 23.55 27.35 Z"/>
</g>
</defs>

<g transform="matrix( 1, 0, 0, 1, 0,0) ">
<use xlink:href="#Layer2_0_MEMBER_0_MEMBER_0_MEMBER_0_FILL"/>
</g>

<g transform="matrix( 1, 0, 0, 1, 0,0) ">
<use xlink:href="#Layer2_0_MEMBER_0_MEMBER_0_MEMBER_1_FILL"/>
</g>

<g transform="matrix( 1, 0, 0, 1, 0,0) ">
<use xlink:href="#Layer2_0_MEMBER_0_MEMBER_0_MEMBER_2_FILL"/>
</g>

<g transform="matrix( 1, 0, 0, 1, 0,0) ">
<use xlink:href="#Layer2_0_MEMBER_0_MEMBER_0_MEMBER_3_FILL"/>
</g>

<g transform="matrix( 1, 0, 0, 1, 0,0) ">
<use xlink:href="#Layer2_0_MEMBER_0_MEMBER_0_MEMBER_4_FILL"/>
</g>

<g transform="matrix( 1, 0, 0, 1, 0,0) ">
<use xlink:href="#Layer2_0_MEMBER_0_MEMBER_0_MEMBER_5_FILL"/>
</g>

<g transform="matrix( 1, 0, 0, 1, 0,0) ">
<use xlink:href="#Layer2_0_MEMBER_0_MEMBER_0_MEMBER_6_FILL"/>
</g>

<g transform="matrix( 1, 0, 0, 1, 0,0) ">
<use xlink:href="#Layer2_0_MEMBER_0_MEMBER_0_MEMBER_7_FILL"/>
</g>

<g transform="matrix( 1, 0, 0, 1, 0,0) ">
<use xlink:href="#Layer2_0_MEMBER_0_MEMBER_0_MEMBER_8_FILL"/>
</g>

<g transform="matrix( 1, 0, 0, 1, 0,0) ">
<use xlink:href="#Layer2_0_MEMBER_0_MEMBER_0_MEMBER_9_FILL"/>
</g>

<g transform="matrix( 1, 0, 0, 1, 0,0) ">
<use xlink:href="#Layer2_0_MEMBER_0_MEMBER_0_MEMBER_10_FILL"/>
</g>

<g transform="matrix( 1, 0, 0, 1, 0,0) ">
<use xlink:href="#Layer2_0_MEMBER_0_MEMBER_0_MEMBER_11_FILL"/>
</g>

<g transform="matrix( 1, 0, 0, 1, 0,0) ">
<use xlink:href="#Layer2_0_MEMBER_0_MEMBER_0_MEMBER_12_FILL"/>
</g>

<g transform="matrix( 1, 0, 0, 1, 0,0) ">
<use xlink:href="#Layer2_0_MEMBER_0_MEMBER_0_MEMBER_13_FILL"/>
</g>

<g transform="matrix( 1, 0, 0, 1, 0,0) ">
<use xlink:href="#Layer2_0_MEMBER_0_MEMBER_0_MEMBER_14_FILL"/>
</g>

<g transform="matrix( 1, 0, 0, 1, 0,0) ">
<use xlink:href="#Layer2_0_MEMBER_0_MEMBER_0_MEMBER_15_FILL"/>
</g>

<g transform="matrix( 1, 0, 0, 1, 0,0) ">
<use xlink:href="#Layer2_0_MEMBER_0_MEMBER_0_MEMBER_16_FILL"/>
</g>

<g transform="matrix( 1, 0, 0, 1, 0,0) ">
<use xlink:href="#Layer2_0_MEMBER_0_MEMBER_0_MEMBER_17_FILL"/>
</g>

<g transform="matrix( 1, 0, 0, 1, 0,0) ">
<use xlink:href="#Layer2_0_MEMBER_0_MEMBER_0_MEMBER_18_FILL"/>
</g>

<g transform="matrix( 1, 0, 0, 1, 0,0) ">
<use xlink:href="#Layer2_0_MEMBER_0_MEMBER_0_MEMBER_19_FILL"/>
</g>

<g transform="matrix( 1, 0, 0, 1, 0,0) ">
<use xlink:href="#Layer2_0_MEMBER_0_MEMBER_0_MEMBER_20_FILL"/>
</g>

<g transform="matrix( 1, 0, 0, 1, 0,0) ">
<use xlink:href="#Layer2_0_MEMBER_0_MEMBER_0_MEMBER_21_FILL"/>
</g>

<g transform="matrix( 1, 0, 0, 1, 0,0) ">
<use xlink:href="#Layer2_0_MEMBER_0_MEMBER_0_MEMBER_22_FILL"/>
</g>

<g transform="matrix( 1, 0, 0, 1, 0,0) ">
<use xlink:href="#Layer2_0_MEMBER_0_MEMBER_0_MEMBER_23_FILL"/>
</g>

<g transform="matrix( 1, 0, 0, 1, 0,0) ">
<use xlink:href="#Layer2_0_MEMBER_0_MEMBER_0_MEMBER_24_FILL"/>
</g>

<g transform="matrix( 1, 0, 0, 1, 0,0) ">
<use xlink:href="#Layer2_0_MEMBER_0_MEMBER_0_MEMBER_25_FILL"/>
</g>

<g transform="matrix( 1, 0, 0, 1, 0,0) ">
<use xlink:href="#Layer2_0_MEMBER_0_MEMBER_0_MEMBER_26_FILL"/>
</g>

<g transform="matrix( 1, 0, 0, 1, 0,0) ">
<use xlink:href="#Layer2_0_MEMBER_0_MEMBER_0_MEMBER_27_FILL"/>
</g>

<g transform="matrix( 1, 0, 0, 1, 0,0) ">
<use xlink:href="#Layer2_0_MEMBER_0_MEMBER_0_MEMBER_28_FILL"/>
</g>

<g transform="matrix( 1, 0, 0, 1, 0,0) ">
<use xlink:href="#Layer2_0_MEMBER_0_MEMBER_0_MEMBER_29_FILL"/>
</g>

<g transform="matrix( 1, 0, 0, 1, 0,0) ">
<use xlink:href="#Layer2_0_MEMBER_0_MEMBER_0_MEMBER_30_FILL"/>
</g>
</svg>
