
<svg xmlns="http://www.w3.org/2000/svg" version="1.1" xmlns:xlink="http://www.w3.org/1999/xlink" preserveAspectRatio="none" x="0px" y="0px" width="100px" height="100px" viewBox="0 0 100 100">
<defs>
<g id="Layer2_0_MEMBER_0_MEMBER_0_MEMBER_0_FILL">
<path fill="#000000" stroke="none" d="
M 40.85 11.9
L 40.95 11.95
Q 41 12.5 41.7 12.7 42.55 12.85 42.85 12.8 43.5 12.7 44 11.95
L 43.95 11.75 40.85 11.75 40.85 11.9 Z"/>
</g>

<g id="Layer2_0_MEMBER_0_MEMBER_0_MEMBER_1_FILL">
<path fill="#000000" stroke="none" d="
M 7.4 62.05
Q 7 61.75 6.55 61.8 5.6 61.9 5.6 62.85 5.65 63.2 6.1 63.55 6.5 63.9 6.85 63.85 7.2 63.8 7.5 63.45 7.8 63.1 7.8 62.75 7.75 62.35 7.4 62.05 Z"/>
</g>

<g id="Layer2_0_MEMBER_0_MEMBER_0_MEMBER_2_FILL">
<path fill="#000000" stroke="none" d="
M 86.9 34.75
Q 86.6 34.4 86.1 34.45 85.75 34.45 85.45 34.8 85.15 35.15 85.15 35.55 85.15 36.45 86.25 36.45 86.8 36.4 87.05 36.2 87.25 36 87.25 35.5 87.25 35.05 86.9 34.75 Z"/>
</g>

<g id="Layer2_0_MEMBER_0_MEMBER_0_MEMBER_3_FILL">
<path fill="#000000" stroke="none" d="
M 14.9 65.3
L 15.2 65.1
Q 15.75 64.9 15.8 64.65 15.9 64.45 15.65 63.85
L 15.5 63.8
Q 15.05 63.5 14.45 64 14.15 64.35 13.9 64.4
L 14.9 65.3 Z"/>
</g>

<g id="Layer2_0_MEMBER_0_MEMBER_0_MEMBER_4_FILL">
<path fill="#000000" stroke="none" d="
M 15.15 66.1
Q 14.9 66.25 14.95 66.5 15 66.95 15.2 67.1 15.4 67.25 16 67.3
L 16.2 67.15
Q 16.25 66.9 16.35 66.75 16.35 66.65 16.5 66.55 16.25 66.2 15.45 65.8 15.45 65.9 15.15 66.1 Z"/>
</g>

<g id="Layer2_0_MEMBER_0_MEMBER_0_MEMBER_5_FILL">
<path fill="#000000" stroke="none" d="
M 24.45 17.8
Q 24.9 18 25.45 17.85 25.9 17.85 26.15 17.3 26.6 16.4 25.75 15.5 25.45 14.9 25.15 14.85 24.9 14.8 24.35 15.2 24.05 15.35 23.95 15.9 23.75 16.25 23.85 17.15 23.95 17.6 24.45 17.8 Z"/>
</g>

<g id="Layer2_0_MEMBER_0_MEMBER_0_MEMBER_6_FILL">
<path fill="#000000" stroke="none" d="
M 32.1 13.35
Q 32.2 13.85 32.6 13.85 33.05 13.85 33.05 13.4 33.05 13.05 32.5 12.95 32.05 13.05 32.1 13.35 Z"/>
</g>

<g id="Layer2_0_MEMBER_0_MEMBER_0_MEMBER_7_FILL">
<path fill="#000000" stroke="none" d="
M 94.15 52.25
Q 94.2 52 94.15 51.85 94.15 50.9 94 50.65
L 94 53
Q 94.35 52.8 94.35 52.55 94.15 52.45 94.15 52.25 Z"/>
</g>

<g id="Layer2_0_MEMBER_0_MEMBER_0_MEMBER_8_FILL">
<path fill="#000000" stroke="none" d="
M 77.75 39.25
Q 77.9 39.35 78.1 39.25 78.45 38.95 79.3 39 78.4 38.7 77.45 39 77.55 39.05 77.75 39.25 Z"/>
</g>

<g id="Layer2_0_MEMBER_0_MEMBER_0_MEMBER_9_FILL">
<path fill="#000000" stroke="none" d="
M 27.5 25.5
Q 27.6 25.8 28 26 28.5 25.9 28.5 25.45 28.1 24.55 27.6 25 27.35 25.25 27.5 25.5 Z"/>
</g>

<g id="Layer2_0_MEMBER_0_MEMBER_0_MEMBER_10_FILL">
<path fill="#000000" stroke="none" d="
M 13.75 57.8
Q 13.5 57.55 13.25 57.75 12.75 58.25 13.05 58.65 13.55 58.9 13.75 58.45 14.1 58.1 13.75 57.8 Z"/>
</g>

<g id="Layer2_0_MEMBER_0_MEMBER_0_MEMBER_11_FILL">
<path fill="#000000" stroke="none" d="
M 25.5 28.65
Q 25.25 28.65 25.15 28.95 25.15 29.2 25.45 29.25 25.7 29.25 25.7 28.95 25.7 28.65 25.5 28.65 Z"/>
</g>

<g id="Layer2_0_MEMBER_0_MEMBER_0_MEMBER_12_FILL">
<path fill="#000000" stroke="none" d="
M 19.4 35.9
Q 19.6 35.9 19.6 35.65 19.6 35.45 19.4 35.45 19.2 35.45 19.2 35.7 19.2 35.9 19.4 35.9 Z"/>
</g>

<g id="Layer2_0_MEMBER_0_MEMBER_0_MEMBER_13_FILL">
<path fill="#000000" stroke="none" d="
M 16.5 84.5
Q 16.3 85.7 17.3 86.15 18.05 86.45 18.95 85.7 19.65 85.4 19.85 85.05 20 84.9 20 84.35 19.75 83.9 19.65 83.8 18.2 83.1 17.4 83.45 16.85 83.7 16.7 84.15
L 16.55 84.35 16.5 84.5 Z"/>
</g>

<g id="Layer2_0_MEMBER_0_MEMBER_0_MEMBER_14_FILL">
<path fill="#000000" stroke="none" d="
M 92.85 52.65
Q 93.95 50.95 92.25 50.05 91.4 49.6 90.5 50.1 90 50.25 89.8 50.45
L 88.75 51.35
Q 88.55 51.35 88.4 51.5 87.7 51.65 87.7 52.35
L 87.55 52.4
Q 86.95 53.15 87.75 53.75
L 87.9 53.95
Q 88.15 54.7 88.85 55.1 89.55 55.5 90.45 55.3 91.9 55 92.25 54.1
L 92.4 53.95
Q 92.4 53.35 92.85 52.65 Z"/>
</g>

<g id="Layer2_0_MEMBER_0_MEMBER_0_MEMBER_15_FILL">
<path fill="#000000" stroke="none" d="
M 85.2 44.85
Q 84.85 44.1 84.1 43.9 83.35 43.75 82.6 44.2 82.2 44.55 82.05 44.95
L 82 45.05
Q 81.8 45.25 81.8 45.6
L 81.85 45.95
Q 81.55 47.2 81.8 47.85
L 81.8 48.2 81.75 48.35
Q 81.5 49.15 81.9 49.8 82.35 50.45 83.2 50.6 85.1 50.9 86.2 49.05 87.05 47.7 86.35 46.5 85.4 45.3 85.2 44.85 Z"/>
</g>

<g id="Layer2_0_MEMBER_0_MEMBER_0_MEMBER_16_FILL">
<path fill="#000000" stroke="none" d="
M 81.5 52.2
Q 81.4 50.9 81.15 50.45 81.05 49.6 80.8 49.2 80.75 48.65 80.5 47.9
L 80.05 46.65
Q 79.95 46.15 79.75 45.8
L 79.65 45.45
Q 78.95 43.4 77.3 41.6 76.65 40.5 76.25 40.2
L 75.75 39.5 75.75 39.35 75.6 39.3
Q 75.35 38.6 75.05 38.3 75.05 38.25 74.6 37.35
L 74.2 36.9
Q 74.1 36.55 73.65 36.2 72.7 34.4 71.55 32.8 71.15 32.15 70.7 31.9
L 70.5 31.7
Q 70.35 31.5 69.35 31 69.3 30.85 69.15 30.85
L 68.45 30.35
Q 68.35 30.05 68.55 29.9
L 69.3 29.45
Q 69.7 29.05 69.65 28.6 69.55 28.1 69 27.9 68.55 27.7 68.3 27.8 68 27.9 67.6 28.4 67.45 28.6 67.1 28.65 66.65 28.7 66.55 28.75
L 66.2 28.55
Q 66.05 28.3 65.85 28.25
L 65.8 28.25 65.35 27.85
Q 64.95 27.65 64.3 27.6 63.6 27.55 63.25 27.5
L 62.85 26.75
Q 61.65 25.05 61.2 24.75 60.95 24.5 60.45 24.35 59.9 24.2 59.6 24.1 57.5 23.45 56.65 23.35
L 54.95 23.1
Q 52.4 22.9 51.1 23.05 50.55 22.95 50.15 23.15 49.55 23.25 49.35 23.1 49 23.2 48.15 23.2 47.5 23.2 47.25 23.4 47 23.35 46.55 23.5 46.05 23.65 45.85 23.65 45.5 23.8 45.35 23.9 44.8 23.95 44.25 24.2 43.95 24.2 42.9 24.55 42.2 24.65 39.6 25.35 38.9 25.45 38.75 25.7 38.55 25.65 38.45 25.8
L 38.4 25.8
Q 38.1 25.75 37.5 26.15 37.15 26.15 37 26.3
L 36.85 26.3
Q 36.25 26.6 35.95 26.3 36.2 25.3 35.3 24.75 35.05 24.55 34.7 24.55 34.3 24.6 34.05 24.6 33.25 23.95 32.35 24.4 32.2 24.55 31.95 24.6 31.65 24.6 31.5 24.6 30.95 24.75 30.7 25.2 30.45 25.65 30.65 26.2 30.75 26.55 31.25 26.85 32.3 27.5 32.85 27.35 32.95 27.45 32.85 27.7 31.95 27.9 31.45 28.25 31.15 28.25 30.75 28.55 30.4 28.65 29.9 29.05 29.3 29.3 29.2 29.45 28.5 29.65 28.35 29.95 28.25 30.05 27.9 30.2 27.6 30.35 27.5 30.5
L 27.45 30.5 27.25 30.65
Q 26.4 31.05 25.85 31.8 25.85 32 25.7 32.05
L 24.85 32.9
Q 24.8 33.05 24.6 33.1
L 24.5 33.1
Q 24.2 33.05 24 32.75
L 24.55 32.45
Q 25 32.25 25 31.9
L 25.05 31.7
Q 25.05 30.7 23.95 30
L 23.65 29.8
Q 23.3 29.55 22.9 29.65 22.5 29.9 22.25 29.95 22.15 29.9 22.15 29.5 22.15 27.9 20.5 27.2 19.65 26.7 18.65 27.6 18.1 28.3 18.3 29.1 18.45 29.85 19.25 30.2 19.5 30.3 20.35 30.3
L 20.55 30.5 20.5 30.65
Q 20.4 31.1 20.2 31.9 20.1 32.6 20.75 33.05
L 20.85 33.2
Q 21.1 33.65 21.2 33.7 21.3 33.7 21.75 33.45
L 21.75 33.6 21.7 33.8
Q 21.3 34.05 21.4 34.75 21.45 35.15 22.15 35.75 22.05 35.85 21.7 36.2 21.45 36.45 21.35 36.7 21.1 36.75 21 37.1 20.45 37.55 20.3 37.9
L 20.15 38.15
Q 20.1 38.35 19.75 38.85 19.5 39.3 19.45 39.65 19 40.7 18.45 42.85 18.25 43.15 18.25 43.35 18.1 43.5 18.15 43.7
L 18.05 43.95
Q 17.9 44.15 17.9 44.55
L 17.75 44.75
Q 17.6 44.75 17.6 44.9
L 17.55 45.1
Q 17.05 46.15 16.6 47.85 16.35 48.8 15.85 50.65
L 15.85 51
Q 15.75 51.55 15.5 52.75
L 15.45 53.05
Q 15.3 53.35 15.3 53.75 15.3 54 15.35 54.45 15.25 54.7 15.3 55 15.2 55.7 15.3 57.05 15.35 57.3 15.3 57.7 15.35 58.05 15.45 58.3 15.5 60.05 16.2 62.1 16.7 64.25 17.7 65.75 17.75 66 17.75 66.9 17.75 67.6 17.9 68.05
L 17.95 68.7 17.9 69
Q 17.8 69.55 17.45 69.5 17.15 69.5 17.05 69 17.05 68.7 16.95 68.6 16.5 68.9 16.8 69.5 16.95 70 17.5 69.9
L 18.25 69.75 19.1 71.3 19.15 71.45
Q 19.15 71.7 19.3 71.85 19.15 72 18.85 71.8 18.25 71.45 18.15 71.45 17.25 71.45 16.85 71.5 16.05 71.65 15.65 72.2
L 14.8 73.15
Q 14.1 73.8 14.15 74.6 14.25 75.9 14.4 76.5 14.65 77.75 16.1 78.65 17.05 79.15 17.6 78.8
L 17.75 78.75
Q 17.95 78.75 18.1 78.6
L 19 79.1
Q 20 79.45 20.9 79.2 21.9 78.9 22.25 77.9 22.5 77.7 22.6 77.2 22.6 76.9 22.6 76.75 22.6 76.45 22.8 76.3
L 23.35 76.7
Q 23.45 76.85 23.85 77.05 24.95 78.35 26.4 79.1
L 27.15 80.5
Q 27.2 81.1 27.35 81.25 27.5 81.35 28.2 81.35
L 30.9 83.85 31.1 84.2 31.15 84.35 31.15 84.45 30.7 84.85
Q 30.25 85.2 30.6 85.7 30.9 86.15 31.4 85.8
L 31.85 85.5 32.05 85.7
Q 35.4 88.65 39.1 88.25 39.35 88.25 39.75 88.25 40.15 88.25 40.35 87.95 40.55 87.75 40.7 87.9 41.2 88.25 42.35 88 42.55 88.15 42.95 88.15 44.2 88.25 45.55 88.15 47.15 88.25 49.4 87.55 50 87.35 50.2 87.1
L 51.25 86.6
Q 51.8 86.55 52.85 86.85 54.1 87.1 54.45 86.95 55.1 86.75 55.85 86.75
L 55.95 86.8 55.95 86.75 56.15 86.65 56.3 86.6
Q 57.6 86.3 57.7 86.25
L 58.2 86.2
Q 58.65 86.3 58.9 86.1 59.75 86 60.1 85.7 60.85 85.55 61.3 85
L 63.6 83.6 63.8 83.5 63.95 83.45
Q 64.1 83.45 64.15 83.3
L 64.3 83.25 64.45 83.1
Q 64.7 83.05 65 82.75 66.35 82 66.4 81.95
L 66.45 81.95 66.5 81.9 66.55 81.9
Q 66.85 81.8 66.9 81.6
L 67.25 81.4 67.45 81.25 67.85 81.2 67.9 81 69.85 79.65
Q 70.85 79.05 71.4 78.25 71.9 77.95 71.95 77.55
L 71.95 77.55
Q 72.0056640625 77.4943359375 72.1 77.4
L 72.45 77.05 75.3 73.6
Q 76.15 72.65 76.2 71.85
L 76.25 71.65 76.3 71 76.8 70.6
Q 77.85 70 78 69.6
L 78.2 69.4
Q 78.5 69.3 78.9 68.55 79.15 68.45 79.3 68.05 79.5 67.6 79.6 67.5 81.1 65.85 81.3 63.85 81.5 63.65 81.5 63.3 81.7 62.95 81.7 62.45 81.7 61.85 81.7 61.55 81.7 61.15 81.9 60 82.05 59.05 81.95 58.45 82.05 58.15 81.9 57.95
L 81.9 57.75
Q 82 57.55 82 57.25
L 81.9 56.75
Q 81.9 54.6 81.5 52.2
M 48.05 27.45
L 48.35 27.5 48.15 27.7 48.05 27.45 Z"/>
</g>

<g id="Layer2_0_MEMBER_0_MEMBER_0_MEMBER_17_FILL">
<path fill="#000000" stroke="none" d="
M 88.3 49.15
Q 88.55 49.45 88.8 49.4 89.05 49.4 89.35 49.15 89.6 48.85 89.6 48.6 89.55 48.35 89.2 48.05 88.85 47.75 88.6 47.75 88.35 47.75 88.2 48 88.05 48.2 88.1 48.5 88.1 48.9 88.3 49.15 Z"/>
</g>

<g id="Layer2_0_MEMBER_0_MEMBER_0_MEMBER_18_FILL">
<path fill="#000000" stroke="none" d="
M 86.15 51.6
Q 85.9 51.4 85.7 51.45 85.3 51.5 85.3 52.05 85.4 52.65 85.95 52.55 86.35 52.5 86.45 52.05 86.4 51.8 86.15 51.6 Z"/>
</g>

<g id="Layer2_0_MEMBER_0_MEMBER_0_MEMBER_19_FILL">
<path fill="#000000" stroke="none" d="
M 79.6 41
Q 79.6 41.45 80 41.4 80.5 41.3 80.4 40.85 80.4 40.45 79.95 40.45 79.5 40.55 79.6 41 Z"/>
</g>

<g id="Layer2_0_MEMBER_0_MEMBER_0_MEMBER_20_FILL">
<path fill="#000000" stroke="none" d="
M 83.55 60.25
Q 83.5 59.65 82.85 59.65 82.55 59.65 82.35 59.85 82.15 60.15 82.15 60.35 82.25 60.95 82.45 61.1 82.6 61.2 83.05 61.05 83.55 61 83.55 60.25 Z"/>
</g>

<g id="Layer2_0_MEMBER_0_MEMBER_0_MEMBER_21_FILL">
<path fill="#000000" stroke="none" d="
M 87.4 42.9
Q 87.5 43.3 87.85 43.3 88.25 43.2 88.25 42.85 88.15 42.4 87.8 42.45 87.35 42.45 87.4 42.9 Z"/>
</g>

<g id="Layer2_0_MEMBER_0_MEMBER_0_MEMBER_22_FILL">
<path fill="#000000" stroke="none" d="
M 70 21.45
L 69.8 21.6
Q 68.15 22.95 68.95 24.8 69.05 25.1 69.6 25.65
L 69.85 25.8
Q 70 25.9 70.2 26.15 70.35 26.45 70.5 26.5 70.8 26.8 71.25 26.95 71.55 27.05 72.1 27.2
L 72.45 27.7
Q 72.45 28.1 72.7 28.15 72.8 28.2 73.2 28.45 73.45 28.6 73.7 28.55
L 74.65 28.45
Q 75.25 28.35 75.55 28.1 76.7 27.15 77.25 25.85 77.5 25.35 77.4 24.7 77.2 24 77.1 23.6 76.85 22.5 76 21.8 75.15 21.1 74.15 21.15
L 74 21.15
Q 73.7 21.1 73.5 21.3
L 73.15 21.45
Q 72.8 21.5 72.3 21.3 71.45 21 70 21.45 Z"/>
</g>

<g id="Layer2_0_MEMBER_0_MEMBER_0_MEMBER_23_FILL">
<path fill="#000000" stroke="none" d="
M 74.75 30
Q 74.1 30 74 30.8 74 31.2 74.2 31.55 74.8 31.95 75.4 31.35
L 75.5 30.85
Q 75.55 30.5 75.3 30.25 75.05 30 74.75 30 Z"/>
</g>
</defs>

<g transform="matrix( 1, 0, 0, 1, 0,0) ">
<use xlink:href="#Layer2_0_MEMBER_0_MEMBER_0_MEMBER_0_FILL"/>
</g>

<g transform="matrix( 1, 0, 0, 1, 0,0) ">
<use xlink:href="#Layer2_0_MEMBER_0_MEMBER_0_MEMBER_1_FILL"/>
</g>

<g transform="matrix( 1, 0, 0, 1, 0,0) ">
<use xlink:href="#Layer2_0_MEMBER_0_MEMBER_0_MEMBER_2_FILL"/>
</g>

<g transform="matrix( 1, 0, 0, 1, 0,0) ">
<use xlink:href="#Layer2_0_MEMBER_0_MEMBER_0_MEMBER_3_FILL"/>
</g>

<g transform="matrix( 1, 0, 0, 1, 0,0) ">
<use xlink:href="#Layer2_0_MEMBER_0_MEMBER_0_MEMBER_4_FILL"/>
</g>

<g transform="matrix( 1, 0, 0, 1, 0,0) ">
<use xlink:href="#Layer2_0_MEMBER_0_MEMBER_0_MEMBER_5_FILL"/>
</g>

<g transform="matrix( 1, 0, 0, 1, 0,0) ">
<use xlink:href="#Layer2_0_MEMBER_0_MEMBER_0_MEMBER_6_FILL"/>
</g>

<g transform="matrix( 1, 0, 0, 1, 0,0) ">
<use xlink:href="#Layer2_0_MEMBER_0_MEMBER_0_MEMBER_7_FILL"/>
</g>

<g transform="matrix( 1, 0, 0, 1, 0,0) ">
<use xlink:href="#Layer2_0_MEMBER_0_MEMBER_0_MEMBER_8_FILL"/>
</g>

<g transform="matrix( 1, 0, 0, 1, 0,0) ">
<use xlink:href="#Layer2_0_MEMBER_0_MEMBER_0_MEMBER_9_FILL"/>
</g>

<g transform="matrix( 1, 0, 0, 1, 0,0) ">
<use xlink:href="#Layer2_0_MEMBER_0_MEMBER_0_MEMBER_10_FILL"/>
</g>

<g transform="matrix( 1, 0, 0, 1, 0,0) ">
<use xlink:href="#Layer2_0_MEMBER_0_MEMBER_0_MEMBER_11_FILL"/>
</g>

<g transform="matrix( 1, 0, 0, 1, 0,0) ">
<use xlink:href="#Layer2_0_MEMBER_0_MEMBER_0_MEMBER_12_FILL"/>
</g>

<g transform="matrix( 1, 0, 0, 1, 0,0) ">
<use xlink:href="#Layer2_0_MEMBER_0_MEMBER_0_MEMBER_13_FILL"/>
</g>

<g transform="matrix( 1, 0, 0, 1, 0,0) ">
<use xlink:href="#Layer2_0_MEMBER_0_MEMBER_0_MEMBER_14_FILL"/>
</g>

<g transform="matrix( 1, 0, 0, 1, 0,0) ">
<use xlink:href="#Layer2_0_MEMBER_0_MEMBER_0_MEMBER_15_FILL"/>
</g>

<g transform="matrix( 1, 0, 0, 1, 0,0) ">
<use xlink:href="#Layer2_0_MEMBER_0_MEMBER_0_MEMBER_16_FILL"/>
</g>

<g transform="matrix( 1, 0, 0, 1, 0,0) ">
<use xlink:href="#Layer2_0_MEMBER_0_MEMBER_0_MEMBER_17_FILL"/>
</g>

<g transform="matrix( 1, 0, 0, 1, 0,0) ">
<use xlink:href="#Layer2_0_MEMBER_0_MEMBER_0_MEMBER_18_FILL"/>
</g>

<g transform="matrix( 1, 0, 0, 1, 0,0) ">
<use xlink:href="#Layer2_0_MEMBER_0_MEMBER_0_MEMBER_19_FILL"/>
</g>

<g transform="matrix( 1, 0, 0, 1, 0,0) ">
<use xlink:href="#Layer2_0_MEMBER_0_MEMBER_0_MEMBER_20_FILL"/>
</g>

<g transform="matrix( 1, 0, 0, 1, 0,0) ">
<use xlink:href="#Layer2_0_MEMBER_0_MEMBER_0_MEMBER_21_FILL"/>
</g>

<g transform="matrix( 1, 0, 0, 1, 0,0) ">
<use xlink:href="#Layer2_0_MEMBER_0_MEMBER_0_MEMBER_22_FILL"/>
</g>

<g transform="matrix( 1, 0, 0, 1, 0,0) ">
<use xlink:href="#Layer2_0_MEMBER_0_MEMBER_0_MEMBER_23_FILL"/>
</g>
</svg>
