
<svg xmlns="http://www.w3.org/2000/svg" version="1.1" xmlns:xlink="http://www.w3.org/1999/xlink" preserveAspectRatio="none" x="0px" y="0px" width="100px" height="100px" viewBox="0 0 100 100">
<defs>
<g id="Layer2_0_MEMBER_0_MEMBER_0_MEMBER_0_FILL">
<path fill="#000000" stroke="none" d="
M 53.7 80.35
L 53.25 80.1
Q 53.05 80.1 52.9 79.95 52.6 79.6 51.8 79.5 51.1 79.4 50.75 79.55 50.3 79.7 49.95 80.4 49.55 81.1 49.65 81.6
L 49.75 81.8
Q 50.55 83 51.3 83.15 51.75 83.35 52.65 83.35
L 52.8 83.25
Q 54 83.05 54.65 81.9 55.05 81.1 54.2 80.7 53.9 80.65 53.7 80.35 Z"/>
</g>

<g id="Layer2_0_MEMBER_0_MEMBER_0_MEMBER_1_FILL">
<path fill="#000000" stroke="none" d="
M 48.75 83.4
Q 48.4 83.25 48.1 83.45 47.65 83.7 47.55 83.8
L 47.45 83.85 47.15 83.85
Q 46.35 83.85 46.2 84.5 45.95 85.3 46.25 85.95
L 46.9 87
Q 47.4 87.65 48.1 87.65 48.85 87.65 49.35 87 49.85 86.05 50.2 85.7 50.35 85.55 50.25 85.35 50.25 85.2 49.55 83.7 49.55 83.65 49.3 83.55
L 48.75 83.4 Z"/>
</g>

<g id="Layer2_0_MEMBER_0_MEMBER_0_MEMBER_2_FILL">
<path fill="#000000" stroke="none" d="
M 40.7 23.35
L 40.6 23.4 40.45 23.5
Q 40.25 23.5 40.15 23.6 39.4 23.8 38.1 24.6 36.75 25.25 35.95 25.85
L 35 26.55
Q 34.75 26.65 34.6 26.85 34.5 26.9 33.85 27.4
L 33.75 27.5 33.6 27.6 33.5 27.7
Q 33.35 27.7 33.25 27.85
L 32.05 28.9
Q 31.5 29.3 31.15 29.7 30.1 30.45 29.25 31.45
L 29 31.65 28.9 31.8 28.9 31.75 28.8 31.9 28.4 32.3
Q 28.1 32.45 27.95 32.75 27.6 33.05 26.9 33.95 26.3 34.6 26.45 35.3 26.5 35.6 26.5 36.4 26.5 37.05 26.65 37.45
L 26.8 38.35
Q 27.1 39.45 27.45 39.9 27.7 40.3 27.85 41.2 27.85 41.55 28.05 41.75
L 28.15 42.05
Q 28.15 42.7 28.7 43.15 28.9 43.6 29.65 44.15
L 29.65 44.45
Q 29.65 44.85 29.4 45.35 29.35 45.45 29.2 45.7
L 28.55 46.8
Q 28.3 46.9 28.05 47.35 27.65 47.65 27.55 47.85 27.3 48.1 26.6 49.15 26.35 49.25 26.2 49.55
L 26 49.95
Q 25.6 50.3 25.35 50.95 25.25 50.95 25.25 51.1
L 25.15 51.3
Q 24.45 52 23.65 53.8 23.6 53.9 23.35 54.6
L 23.05 55.35
Q 22.55 56.3 22.45 57.4 22.35 57.55 22.35 57.85
L 22.35 57.9
Q 22.2 58.25 22.1 59 22.1 59.4 22.15 59.45 22.1 60.05 22.35 60.75
L 22.8 62.15
Q 22.8 62.5 22.9 62.7 22.9 63.1 23.25 63.55 23.35 64.05 24.1 65.15 24.5 66 24.85 66.2
L 26.4 67.65
Q 26.8 67.95 26.8 68.5 26.7 69 26.95 69.45
L 27.2 70.2
Q 27.4 71.15 27.7 71.45 27.75 71.85 28.25 72.35
L 28.35 72.45
Q 28.45 72.7 28.8 73 29.05 73.6 29.85 73.8
L 30.75 74.05
Q 30.85 74.15 31.15 74.15 31.25 74.15 31.4 74.3 31.85 74.75 32.65 75.2
L 33.35 75.8
Q 33.45 75.9 33.65 76.15 33.8 76.3 34.05 76.2
L 34.15 76.25
Q 35.1 77.3 35.2 77.6 35.3 77.75 35.45 77.75
L 35.65 77.9
Q 35.9 78.25 36.4 78.4 36.9 78.65 36.95 78.7 37.25 79.05 37.9 79.15 38.3 79.25 38.65 79.45 38.9 79.75 39.5 79.9 40.25 80.1 40.4 80.2
L 40.65 79.85
Q 40.75 79.6 40.95 79.7 41.1 79.75 41.1 80
L 41.15 80.3
Q 41.2 80.5 41.55 80.85 41.7 81 41.9 80.8
L 42.2 80.6 42.4 80.5
Q 42.65 80.4 42.75 80.4 42.8 80.45 42.8 80.75 42.8 81.05 42.95 81.25 43 81.45 43.3 81.35 43.45 81.25 43.7 81
L 43.75 81.05 43.75 81
Q 44.3 81.25 44.25 80.8
L 44.25 80.7
Q 44.5 80.45 44.6 80.5 44.8 80.55 44.8 80.85 44.8 81.05 44.9 81.1 45.15 81.25 45.35 81.05 45.8 80.65 46 81.2 46 81.5 46.15 81.35 46.25 81.2 46.5 81.3 46.75 81.35 46.8 81.35 47.3 81.4 47.65 80.85 48 80.1 48.35 79.85 49.1 79.2 49.15 78.65 49.5 78.85 49.7 78.65 49.85 78.45 50.7 78.1 51.05 78.2 51.2 77.95 51.45 77.85 51.55 77.8 51.9 77.8 51.95 77.55 52 77.3 52.3 77.4 52.7 77.45 52.7 77.1 52.7 76.85 52.7 76.75 52.75 76.5 52.85 76.4 53.25 76.3 53.45 76.5 53.7 76.8 54.4 76.9 54.8 77 54.85 77.1 54.95 77.35 55.25 77.25 55.6 77.1 55.9 77.35 56.05 77.45 56.25 77.25 56.45 77.1 56.55 77.15
L 57 77.25 57.5 77.25
Q 57.6 77.25 57.95 77.35 57.95 77.8 58.15 78.15 58.35 78.45 58.5 78.15 58.8 77.8 58.9 77.55 58.95 77.4 59.2 77.4 59.5 77.45 59.6 77.4
L 59.7 77.35 60 77.35
Q 60.2 77.65 60.75 78 60.85 78.1 60.95 77.95 61.2 77.55 61.2 77.5
L 61.35 77.05
Q 61.45 76.2 61.95 76.05 62 76.05 62.25 75.65 62.7 74.9 63.5 75.3
L 63.55 75.3
Q 63.7 75.45 63.8 75.4 63.9 75.4 63.85 75.2 63.85 74.15 64.35 73.7 64.6 73.35 64.6 72.95 64.75 72.85 64.8 72.6 65.25 72.35 64.95 71.9
L 64.95 71.35
Q 64.95 70.8 65.2 70.55 65.5 70.35 65.45 69.95
L 65.5 69.65
Q 65.75 69.35 65.8 69.1
L 65.95 68.8
Q 66.6 68.65 66.95 69.35 67.2 69.8 67.9 70.4
L 68.05 70.4
Q 68.15 70.5 68.3 70.45 69.1 69.95 69.1 69.3 69.3 69.2 69.35 68.8
L 69.65 68.45
Q 69.8 68.35 69.9 68.05
L 70 67.85
Q 70.1 67.7 70.1 67.4
L 70.15 67.3
Q 70.35 67.1 70.4 66.6 70.5 66.55 70.55 66.4 70.55 66.2 70.55 66.1
L 70.65 65.9
Q 70.8 65.8 70.7 65.7
L 70.75 65.45 70.85 65.25 70.95 65.15 71.15 64.9
Q 71.65 64.2 71.6 63.75 71.9 63.4 71.8 62.65 72.05 62.1 72.35 61.95 72.55 61.8 72.55 61.5
L 72.65 61.3
Q 72.85 61.05 72.95 60.5 73.1 59.95 73.25 59.7 73.5 59.2 73.5 59.15 73.65 59 73.65 58.7
L 73.65 58.5
Q 73.7 58.35 74.05 57.85
L 74.2 57.45
Q 74.35 57.2 74.6 57
L 74.65 57 74.8 57.1
Q 75.1 57.3 75.25 57.05
L 75.5 56.7
Q 76 56.55 76.3 55.7
L 76.95 54.75
Q 77.05 54.65 77.25 54.5 77.35 54.35 77.65 54.15 77.95 53.95 78.05 53.75 78.9 53.05 78.9 51.95
L 78.8 51.85 78.7 51.6
Q 78.6 51.25 78.35 51.1 78.3 50.95 78.15 50.95 77.95 50.6 77.8 50.55 77.4 50.15 77.25 49.9
L 77.25 49.6 77.4 49.4
Q 77.5 49.3 77.5 49.25 77.6 49.25 77.7 49.05 78.35 48.25 78.9 46.75 79.2 46.05 79.05 45.65
L 79.1 44.2
Q 79.2 43.45 78.8 43.1
L 78.6 43 78.45 42.95 78.35 42.85 78.35 42.8 78.15 42.6 78.05 42.35
Q 77.95 42.2 77.3 41.65 77.25 41.5 77.05 41.5
L 76.95 41.4
Q 76.55 41.1 76.45 41.1 75.85 40.75 76 40.25 76.1 40.2 76.1 40.05 76.2 39.95 76.2 39.9 76.3 39.65 76 39.55 75.8 39.45 75.8 39.25 75.8 38.35 76 37.95 76.3 37.2 76.25 37 76.2 36.9 75.5 36.45
L 75.05 36.25 74.95 36.25 74.7 36.15
Q 74.55 36 74.15 35.9 73.05 35.5 72.9 35.4 72.8 35.3 72.55 35.3 72.4 34.95 72.45 34.9 72.6 34.7 72.9 34.35
L 73 34.25 73 34.05
Q 73.3 33.4 73.3 33.05 73.5 32.8 73.4 32.45
L 72.95 31.35
Q 72.85 31 72.55 31.05
L 72.25 30.9 72.25 30.5
Q 72.35 30.2 72.2 30.1 72.05 30.05 71.6 29.8 71.25 29.6 70.95 29.65 70.75 29.65 70.5 29.5
L 70.3 29.4
Q 70.25 29.35 70 29.2 69.55 28.85 69.15 28.9 68.5 28.75 68.15 28.8
L 67.65 28.8
Q 67.25 28.65 67.05 28.6
L 67 29 66.35 29.45
Q 66 29.55 65.95 29.25
L 65.9 28.75 65.9 28.55
Q 65.95 28.15 65.9 27.7 66.15 27.4 65.8 26.85 65.4 25.95 64.9 25.85 64.25 25.45 64.2 25.45 63.9 25.4 63.55 25.05 63.45 24.8 63.25 24.8 62.7 24.4 62.5 24.1 61.7 23.2 60.15 22.75 59.8 22.65 59.3 22.3 59 22 58.7 22.05 57.8 21.95 57.35 22.05 56.85 21.9 56 22.45 55.35 22.7 55.15 22.85 54.8 22.9 54.2 23.3
L 53.8 23.5 53.7 23.5 53.1 23.35
Q 52.8 23.25 52.7 23.4 52.5 23.4 52.4 23.6 52.1 23.6 51.85 23.95
L 51.65 24.05 51.55 24.15 51.4 24.25
Q 51.15 24.35 50.95 24.2
L 50.3 23.95 50.15 23.85 50.05 23.85
Q 48.7 23.45 48 23.2 47.4 22.9 46.7 22.9 45.55 22.6 44.45 22.65
L 44.25 22.65
Q 43.55 22.65 43.4 22.75 42.95 22.75 42.7 22.85 42 22.85 40.9 23.3
L 40.7 23.35
M 54.2 47.85
L 54.25 47.75 54.3 47.8 54.2 47.85
M 37.55 67.45
L 37.25 67.5
Q 37.2 67.35 37.25 67.3 37.3 67.25 37.4 67.35
L 37.55 67.45 Z"/>
</g>

<g id="Layer2_0_MEMBER_0_MEMBER_0_MEMBER_3_FILL">
<path fill="#000000" stroke="none" d="
M 25.1 43.2
Q 24.7 43.15 24.2 43.3 23.6 43.55 23.3 43.65 23.1 43.75 23.1 43.95
L 22.55 45.85
Q 22.55 46.25 22.75 46.6 23.35 47.4 24.55 47.65 24.95 47.65 25.15 47.4 25.5 47.25 26.3 46.85 26.35 46.85 26.6 46.6 26.85 46.25 27 46.05 27.4 45.45 27 44.7
L 26.15 43.45
Q 25.95 43.1 25.5 43.15
L 25.1 43.2 Z"/>
</g>

<g id="Layer2_0_MEMBER_0_MEMBER_0_MEMBER_4_FILL">
<path fill="#000000" stroke="none" d="
M 59.6 79.75
Q 59.25 79.3 58.8 79.3 58.25 79.25 58.1 79.7
L 58.1 80.2
Q 58.1 80.55 58.35 80.75 58.6 80.95 58.95 80.85
L 59.3 80.9
Q 59.7 81.05 59.8 80.6 59.9 80.2 59.6 79.75 Z"/>
</g>

<g id="Layer2_0_MEMBER_0_MEMBER_0_MEMBER_5_FILL">
<path fill="#000000" stroke="none" d="
M 24.25 35.9
Q 23.75 36 23.55 36.35 23.45 36.45 23.5 36.6 23.55 36.8 23.8 37.05 24.05 37.3 24.25 37.25
L 24.85 37.3
Q 25.1 37.4 25.15 37.25 25.45 37.05 25.45 36.6 25.4 36.15 25.1 35.95 24.75 35.75 24.25 35.9 Z"/>
</g>

<g id="Layer2_0_MEMBER_0_MEMBER_0_MEMBER_6_FILL">
<path fill="#000000" stroke="none" d="
M 53.55 86
Q 53.2 85.7 52.85 85.75 52.55 85.75 52.4 85.95 52.25 86.15 52.35 86.45 52.4 86.65 52.65 87 52.85 87.3 53.2 87.2 53.45 87.2 53.65 87.05 53.9 87 53.9 86.65 53.9 86.3 53.55 86 Z"/>
</g>

<g id="Layer2_0_MEMBER_0_MEMBER_0_MEMBER_7_FILL">
<path fill="#000000" stroke="none" d="
M 49 18.55
Q 48.95 19.65 49.8 20.45
L 49.95 20.5 50.45 20.85
Q 51.15 21.1 51.45 20.6
L 51.55 20.6 51.8 20.4
Q 52.6 19.6 52.25 18.65
L 51.95 18.15
Q 52 17.95 51.75 17.7 50.85 17.05 49.95 17.65 49.6 17.9 49.4 17.95 49 18.1 49 18.55 Z"/>
</g>

<g id="Layer2_0_MEMBER_0_MEMBER_0_MEMBER_8_FILL">
<path fill="#000000" stroke="none" d="
M 61.55 19.95
Q 61.4 20.2 61.75 20.3 62 20.45 62.05 20.65 62.2 20.85 62.45 20.85 62.75 20.85 62.95 20.6 63.2 20.3 63.1 20 63 19.7 62.65 19.55 62.2 19.35 61.85 19.55 61.65 19.65 61.55 19.95 Z"/>
</g>

<g id="Layer2_0_MEMBER_0_MEMBER_0_MEMBER_9_FILL">
<path fill="#000000" stroke="none" d="
M 53.55 16.65
Q 53.8 17.05 54.25 17.2 54.75 17.4 54.85 17.35 54.95 17.3 55.1 16.8
L 55.1 16.65
Q 55.5 16.45 55.15 16.1 54.65 15.35 53.75 15.7 52.9 16 53.55 16.65 Z"/>
</g>

<g id="Layer2_0_MEMBER_0_MEMBER_0_MEMBER_10_FILL">
<path fill="#000000" stroke="none" d="
M 22.2 37.45
Q 22.7 37.35 22.85 36.9 22.95 36.5 22.6 36.25 22.1 35.9 21.65 36.15
L 21.4 36.25
Q 20.85 36.55 20.85 36.75 20.8 36.95 21.3 37.35 21.6 37.55 22.2 37.45 Z"/>
</g>

<g id="Layer2_0_MEMBER_0_MEMBER_0_MEMBER_11_FILL">
<path fill="#000000" stroke="none" d="
M 22.4 41.3
Q 22.45 41.45 22.7 41.55
L 22.8 41.65
Q 23 41.85 23.45 41.75 23.85 41.95 24 41.65
L 24.3 40.75
Q 24.2 40.15 23.6 40.05 23.15 40 22.45 40.4 21.75 40.75 22.4 41.3 Z"/>
</g>

<g id="Layer2_0_MEMBER_0_MEMBER_0_MEMBER_12_FILL">
<path fill="#000000" stroke="none" d="
M 56.05 13.1
L 56.5 13.45
Q 56.7 13.65 56.85 13.5 57.2 13.35 57.3 12.9 57.2 12.5 56.95 12.45 56.5 12.3 56.05 12.6 55.9 12.7 55.9 12.85 55.9 13.05 56.05 13.1 Z"/>
</g>

<g id="Layer2_0_MEMBER_0_MEMBER_0_MEMBER_13_FILL">
<path fill="#000000" stroke="none" d="
M 22.4 32.25
Q 22.65 32.75 23.55 32.85 23.7 32.85 23.75 32.65 24 32.1 23.4 31.65 23.2 31.5 22.85 31.6 22.5 31.65 22.4 31.9 22.35 32.1 22.4 32.25 Z"/>
</g>

<g id="Layer2_0_MEMBER_0_MEMBER_0_MEMBER_14_FILL">
<path fill="#000000" stroke="none" d="
M 73.55 63.85
Q 73.8 63.55 73.55 63.15 73.1 62.45 72.75 62.4 72.3 62.95 72.25 63.4 72.25 63.85 72.55 63.85 72.6 63.9 73.05 64.2 73.45 64.35 73.55 63.85 Z"/>
</g>

<g id="Layer2_0_MEMBER_0_MEMBER_0_MEMBER_15_FILL">
<path fill="#000000" stroke="none" d="
M 28.1 29
Q 28.15 29.25 28.5 29.25 28.45 28.9 28.2 28.9
L 28.1 29 Z"/>
</g>

<g id="Layer2_0_MEMBER_0_MEMBER_0_MEMBER_16_FILL">
<path fill="#000000" stroke="none" d="
M 29.4 74.9
L 29.25 75.05
Q 29.25 75.2 29.35 75.1
L 29.5 74.95 29.4 74.9 Z"/>
</g>
</defs>

<g transform="matrix( 1, 0, 0, 1, 0,0) ">
<use xlink:href="#Layer2_0_MEMBER_0_MEMBER_0_MEMBER_0_FILL"/>
</g>

<g transform="matrix( 1, 0, 0, 1, 0,0) ">
<use xlink:href="#Layer2_0_MEMBER_0_MEMBER_0_MEMBER_1_FILL"/>
</g>

<g transform="matrix( 1, 0, 0, 1, 0,0) ">
<use xlink:href="#Layer2_0_MEMBER_0_MEMBER_0_MEMBER_2_FILL"/>
</g>

<g transform="matrix( 1, 0, 0, 1, 0,0) ">
<use xlink:href="#Layer2_0_MEMBER_0_MEMBER_0_MEMBER_3_FILL"/>
</g>

<g transform="matrix( 1, 0, 0, 1, 0,0) ">
<use xlink:href="#Layer2_0_MEMBER_0_MEMBER_0_MEMBER_4_FILL"/>
</g>

<g transform="matrix( 1, 0, 0, 1, 0,0) ">
<use xlink:href="#Layer2_0_MEMBER_0_MEMBER_0_MEMBER_5_FILL"/>
</g>

<g transform="matrix( 1, 0, 0, 1, 0,0) ">
<use xlink:href="#Layer2_0_MEMBER_0_MEMBER_0_MEMBER_6_FILL"/>
</g>

<g transform="matrix( 1, 0, 0, 1, 0,0) ">
<use xlink:href="#Layer2_0_MEMBER_0_MEMBER_0_MEMBER_7_FILL"/>
</g>

<g transform="matrix( 1, 0, 0, 1, 0,0) ">
<use xlink:href="#Layer2_0_MEMBER_0_MEMBER_0_MEMBER_8_FILL"/>
</g>

<g transform="matrix( 1, 0, 0, 1, 0,0) ">
<use xlink:href="#Layer2_0_MEMBER_0_MEMBER_0_MEMBER_9_FILL"/>
</g>

<g transform="matrix( 1, 0, 0, 1, 0,0) ">
<use xlink:href="#Layer2_0_MEMBER_0_MEMBER_0_MEMBER_10_FILL"/>
</g>

<g transform="matrix( 1, 0, 0, 1, 0,0) ">
<use xlink:href="#Layer2_0_MEMBER_0_MEMBER_0_MEMBER_11_FILL"/>
</g>

<g transform="matrix( 1, 0, 0, 1, 0,0) ">
<use xlink:href="#Layer2_0_MEMBER_0_MEMBER_0_MEMBER_12_FILL"/>
</g>

<g transform="matrix( 1, 0, 0, 1, 0,0) ">
<use xlink:href="#Layer2_0_MEMBER_0_MEMBER_0_MEMBER_13_FILL"/>
</g>

<g transform="matrix( 1, 0, 0, 1, 0,0) ">
<use xlink:href="#Layer2_0_MEMBER_0_MEMBER_0_MEMBER_14_FILL"/>
</g>

<g transform="matrix( 1, 0, 0, 1, 0,0) ">
<use xlink:href="#Layer2_0_MEMBER_0_MEMBER_0_MEMBER_15_FILL"/>
</g>

<g transform="matrix( 1, 0, 0, 1, 0,0) ">
<use xlink:href="#Layer2_0_MEMBER_0_MEMBER_0_MEMBER_16_FILL"/>
</g>
</svg>
