
<svg xmlns="http://www.w3.org/2000/svg" version="1.1" xmlns:xlink="http://www.w3.org/1999/xlink" preserveAspectRatio="none" x="0px" y="0px" width="100px" height="100px" viewBox="0 0 100 100">
<defs>
<g id="Layer2_0_MEMBER_0_MEMBER_0_MEMBER_0_MEMBER_0_FILL">
<path fill="#000000" stroke="none" d="
M 62.9 23.05
L 62.75 23.15 62.4 23.5
Q 62.15 23.25 62 23.25 61.75 23 61.75 22.9
L 61.4 22.65 61 22.8 61 22.65 60.75 22.55
Q 60.55 22.6 60.25 22.5
L 60.2 22.5
Q 60.05 22.75 59.75 22.65 59.85 22.6 59.75 22.5
L 59.65 22.25 59.5 22.25
Q 59.5 22.5 59.3 22.55
L 59.15 22.5 59.55 22 59.7 22.15 59.8 21.75 59.45 21.9 59.3 21.55 59.25 21.5 59.15 21.65 59 21.75 59.15 21.9 59.05 22 58.8 22
Q 58.55 22 58.55 21.75 58.35 21.65 58.2 21.8 58.3 21.95 58.15 22.15
L 58 22.3 58.2 22.5 58.45 22.55
Q 58.3 22.8 58 22.65
L 58 22.8 57.9 22.65 57.7 22.75 57.9 22.4 57.8 22.15 57.9 22 57.9 21.9 57.75 21.9 57.95 21.5 57.8 21.55
Q 57.65 21.85 57.3 21.65
L 57.25 21.65 57.4 21.8 57.15 21.9 57 21.75 56.75 21.75 56.55 22 56.7 22.15 56.4 22.5
Q 56.4 22.65 56.7 22.65 56.8 22.65 56.75 22.4 57.15 22.35 57.3 22.5
L 57.45 22.3
Q 57.6 22.5 57.45 22.65 57.3 22.75 57.45 22.9
L 57.5 23 57.45 23.15 57.4 23
Q 57.1 23.15 56.95 22.9 56.95 22.65 56.5 22.8
L 56.75 23.25 56.4 23.25 56.4 23.4 56.45 23.8 56.3 23.9 56.25 23.65 56.05 23.65
Q 55.9 23.25 55.5 23.25
L 55.5 23.65
Q 55.25 23.55 55.25 23.8
L 55.25 23.9 55.15 23.75 55 23.9 54.75 24.05 54.95 24.15
Q 55.05 24 55.45 24
L 55.7 24 55.5 23.8 55.8 23.65 56.15 23.8 55.5 24.15 54.95 24.15 54.75 24.15
Q 54.6 24 54.25 24.15
L 54.15 24.15 53.95 24.05 53.45 24.05 53.4 23.8
Q 53.25 23.9 53.25 24
L 53 24
Q 52.9 24 52.9 23.9
L 52.75 24
Q 52.65 23.85 52.5 24
L 52.4 23.9
Q 52.35 23.7 52.5 23.55
L 52.55 23.5 52.45 23.4 51.95 23.5 52 23.8 52.25 23.9 51.75 24.4 51.9 24.15 51.95 24.15 51.55 24 51.5 24.15 51.25 24
Q 51.25 23.8 51 23.9
L 50.75 23.65 50.75 23.5 50.25 23.9
Q 50.15 23.9 50.15 23.75
L 50.05 23.5 49.9 23.5 49.8 23.65 49.65 23.65 49.5 23.5 49.5 23.55 49.55 23.75 49 23.65 49.15 23.5
Q 48.95 23.3 49 23
L 49.05 23 49.05 22.9 49.3 23.05 49.5 23 49.4 22.8
Q 49.65 22.65 49.55 22.4 49.75 22.35 49.75 22
L 49.55 22 50 21.55 50.05 21.9 50.3 21.8 50 21.4 50.2 21.4 50.2 21.3 50 21.25 50.3 21 50.3 21.25 50.75 21.25 50.65 21.65
Q 50.85 21.65 50.95 21.4
L 51.2 21.15
Q 51 20.95 50.75 21.15
L 50.75 21
Q 50.8 21 50.8 20.8
L 51 20.75
Q 51.2 20.55 51.2 20.4
L 50.8 20.65 51 20.4 50.7 20.15
Q 50.7 20.5 50.5 20.5
L 50.45 20.4
Q 50.25 19.9 50.25 20.4 50.25 20.6 49.95 20.65
L 49.75 20.3 49.55 20.5 49.4 20.25
Q 49.55 20.25 49.7 20.15
L 49.65 20 49.75 19.65
Q 49.85 19.5 50 19.5
L 50 19.75 50.45 19.9
Q 50.3 20.05 50.45 20.15
L 50.5 20.15 50.5 20 50.8 19.9
Q 50.7 19.65 50.9 19.55 51 19.25 51.25 19.15
L 51.25 18.9 51.7 18.55
Q 51.8 18.55 51.7 18.4
L 51.3 18.5 51.3 18.4 51.25 18.15 51.4 18 51.45 18.3 51.7 18.25 51.7 18.05 51.8 17.9 51.75 17.9 51.75 17.65
Q 51.6 17.4 51.45 17.4
L 50.8 16.9
Q 50.95 16.6 50.95 16.25
L 50.5 16.25
Q 50.5 16.1 50.3 16.15 50.1 16.1 50 15.9 49.85 15.9 49.7 15.65
L 49.5 15.65
Q 49.4 15.9 49.15 15.9
L 48.8 16 48.9 15.9 48.75 15.75 48.75 15.9 48.55 15.75 48.45 15.75 48.3 16 48.05 16.05 48.05 16.15 47.75 16.25 47.65 16.15
Q 47.5 16.25 47.5 16.15
L 47.5 15.95
Q 47.4 16 47.25 15.95
L 47.2 15.85 46.9 15.9
Q 46.9 16.15 46.8 16.15
L 46.75 15.9 46.7 15.75 46.4 15.75 46.2 15.9 46.05 15.65 45.75 15.65 45.7 16 45.5 15.65
Q 45.35 15.9 45.45 16
L 45.5 16.25 45.5 16.65 45.55 16.65
Q 45.75 16.5 45.9 16.65
L 46 16.9 46.4 16.75 46.45 17.05 46.75 17.25 46.8 17.05 47.2 17.4 47.3 17.65 47.65 18
Q 47.3 18.1 47.3 18.3
L 47.45 18.4
Q 47.45 18.25 47.65 18.25
L 47.55 18.5 47.45 18.4 47.4 18.65
Q 47.5 18.65 47.5 18.9
L 47.7 18.75
Q 47.65 18.9 47.75 19
L 47.95 19.4
Q 48.2 19.3 48.25 19.5
L 48.75 19.15 48.55 19.55 48.75 19.5 48.8 19.8
Q 48.9 20 48.75 20.05
L 48.8 20.15
Q 48.95 20.4 48.7 20.5 48.65 20.4 48.5 20.4
L 48.4 20.5 48.15 20.4 48.05 20.5 48.25 20.8 48.15 21 47.95 20.9 47.65 20.55
Q 47.45 20.4 47.55 20.05 47.65 19.95 47.5 19.65
L 47.45 19.65
Q 47.2 19.65 47.2 19.5
L 47.05 19.4 46.5 19.4 46.5 19.65
Q 46.25 19.6 46.3 19.3
L 46.15 19.25 46.25 19.15 46.5 19.25 46.5 19.05 46.3 18.9 46.55 18.9
Q 46.55 18.55 46.2 18.55
L 46.45 18.5 46.65 18.5 46.65 18.15 46.05 18.3 46 18.5 45.9 18.55
Q 45.7 18.55 45.5 18.75
L 45.25 18.55 45.4 18.25
Q 45.25 18.1 45.2 18.25
L 45 18.3
Q 44.9 18 44.8 18 44.65 17.75 44.5 17.9
L 44.4 17.75 44.15 17.75
Q 44 17.85 44 18
L 43.75 17.8 43.7 17.8
Q 43.8 17.95 43.7 18.05
L 43.45 17.9 43.2 18 43.2 17.9 43 17.75 43.2 17.5 43 17.4 43.2 17.25
Q 42.95 17 42.7 17.25 42.8 17.35 43 17.25
L 42.8 17.55 42.75 17.9 42.4 17.9 42.7 17.75 42.2 17.4
Q 41.8 17.25 41.55 17.3 41.8 17.3 42 17.65 41.8 17.55 41.5 17.55
L 41.55 17.75 41.25 17.65 41 17.5
Q 40.9 17.4 40.5 17.55
L 40.4 17.8 40.55 17.65 40.8 17.9 40.9 17.75 41 17.9 41.25 17.9
Q 41.25 18.15 41 18.15
L 41.05 18 40.75 18 40.65 17.8 40.4 18 40.45 17.8 40.4 17.8 40.05 17.9
Q 39.95 18.1 39.7 18
L 39.75 18.5 39.5 18.65
Q 39.75 18.65 39.8 18.8
L 40 19.15 40.15 19 40.25 19.15
Q 40.1 19.15 40.25 19.4
L 40 19.4 40 19.25 39.75 19.15 39.75 19 39.7 19 39.75 19.25
Q 39.65 19.3 39.5 19.25 39.25 19.15 39.25 19.25
L 39.25 19.4 39 19.5
Q 39 19.85 38.8 20
L 38.65 20.15 38.8 20.5 38.65 20.4 38.45 20.4 38.45 20.15
Q 38.3 20.3 38.15 20.15
L 38.15 19.8 38.05 19.75 38 19.8 37.75 19.9
Q 37.35 19.75 37.25 19.55
L 37.2 19.55 37.2 19.65
Q 37.2 19.8 37 19.9
L 36.75 20.05 37.05 20.25 37.15 19.9 37.5 19.8
Q 37.25 20.05 37.4 20.25
L 37.5 20.15 37.5 20.75
Q 37.55 20.85 37.45 21
L 37.3 21 37.25 20.75 37 20.65
Q 37 20.5 36.8 20.5
L 36.65 20.4 36.55 20.5 36.7 20.65
Q 36.3 20.65 36.05 20.5
L 35.95 20.55 35.9 20.75 36 20.8 35.9 21 36.05 21.05 36.05 21.25 36.4 21.4 36.3 21.65 36.5 21.75 36.55 21.4
Q 36.7 21.4 36.75 21.5 36.95 21.9 37.15 22
L 37.4 22.25 37.25 22.4 37.25 22.55 37.2 22.5 37.15 22.75 37 22.5
Q 37.1 22.35 37 22 36.7 22.3 36.4 22.15 36.5 22.4 36.3 22.4
L 36.5 22.65
Q 36.6 22.9 36.4 22.9 36.2 22.8 36 22.9
L 35.8 22.75 36 22.65 36 22.5
Q 36.05 22.3 36.25 22.4
L 36.3 22.05 36 22.15
Q 35.95 21.95 36 21.8
L 36 21.9
Q 36.15 21.9 36.15 21.65 35.85 21.6 35.95 21.25
L 35.45 21.3 35.5 21.15 35.75 21 35.7 20.75 35.5 20.75 35.75 20.5
Q 35.95 20.5 35.8 20.25
L 35.65 20.25 35.5 20 35.75 20 35.9 19.65
Q 35.9 19.4 35.8 19.3 35.65 19.15 35.65 19.05
L 35.5 19 35.45 19.15 35.5 19.15 35.5 19.05 35.75 19.4 35.5 19.55 35.25 19.5 35.25 19.25
Q 35.1 19.45 35.2 19.55
L 35.15 19.65 35 19.55 34.55 19.55 34.55 19.15 34.95 19.15 34.95 18.9 34.45 18.75
Q 34.45 18.8 34.4 18.75 34.1 18.75 34 19
L 33.7 19.15
Q 33.55 19.15 33.3 19.4
L 33.65 19.55 33.5 19.75 33.8 20 34 19.9
Q 33.9 20.15 33.75 20.15
L 33.9 20.25 33.65 20.4 33.5 20.15 33.55 20.15 33.5 19.9 33.25 19.8 33.25 19.55
Q 33.1 20 32.9 19.8
L 32.8 20.05 33.25 20 33.3 20.4 33.2 20.55
Q 33.1 20.65 32.95 20.65
L 32.9 20.4 32.7 20.5
Q 32.6 20.6 32.75 20.65 32.85 20.9 32.95 20.9
L 33 21.05 32.95 21.15 32.8 21.15 32.7 21 32.5 21.4 32.55 21.4 32.25 21.9 32.05 21.4 32.25 21.4 32.25 21.25 32.3 21.05 32.05 21.15
Q 32.05 21.05 31.85 21.05
L 31.75 21.25 31.95 21.25 31.75 21.4 31.7 21.4
Q 31.35 21.35 31.35 21.65
L 31.35 21.75 31.5 21.8 31.35 22 31.5 22.15 31.6 22.3 31.7 22.25 31.95 22.25 32 22.4
Q 32.25 22.5 32.25 22.25 32.4 22.55 32.25 22.65 32.1 22.55 32 22.65 31.85 22.5 32 22.4
L 31.85 22.4
Q 31.7 22.5 31.6 22.4
L 31.1 22.5
Q 31.1 22.25 31 22.25
L 30.85 22.4
Q 30.7 22.55 30.7 22.4
L 30.5 22.25 30.25 22.65 30.1 22.5 29.85 22.75 29.75 22.9
Q 30.05 22.9 30.25 23
L 30.35 23.15 30.2 23.25
Q 30 23.2 29.85 23.4
L 29.95 23.55 29.75 23.65
Q 29.5 23.75 29.5 24
L 29.2 23.9 29.1 24 29.35 24.15 29.35 24.3 29.5 24.25 29.2 24.55
Q 29.2 24.75 29 24.75
L 29 24.9 29.1 24.9 29.45 25 30 25.4
Q 30.3 25.8 30.25 26.15
L 30.45 26.15 30.75 26.3 31 26.25 31.25 26.15 31.25 26.4
Q 31.55 26.55 31.75 26.4 31.75 26.15 31.85 26.15
L 31.95 26.25
Q 32 26.25 32 26.65 32.25 26.65 32.25 26.75 32.65 26.9 32.9 26.9 33.15 27.25 33.25 27.25
L 33.9 27.8
Q 34.05 27.65 34.2 27.75
L 34.2 27.8 34 27.9 34 28.05 33.9 27.9 33.9 28.25 33.7 28.15 33.45 28.25 33.45 27.9 33.2 28.05
Q 32.95 28.35 33.25 28.55
L 33.5 28.75
Q 33.5 28.8 33.3 28.75
L 33.2 28.8 33.2 29 33.45 29
Q 33.6 29.1 33.55 29.3 33.25 29.2 33.05 29.4 33.05 29.5 32.95 29.4
L 32.65 28.9
Q 32.6 29.05 32.5 28.9
L 32.25 28.65 32.5 28.5 32.8 28.75 32.65 28.75 32.65 28.9 33 28.75
Q 33.1 28.7 32.95 28.5
L 32.9 28.65
Q 32.6 28.5 32.75 28.25 32.9 28.4 33 28.25 32.9 28.25 32.9 28.15
L 32.9 28 32.65 28.05 32.5 28.3 32.3 28.3
Q 32.05 28.45 32 28.65
L 31.95 28.5
Q 31.95 28.8 31.75 28.9 31.85 29 32.05 29
L 32.25 29.15 32.5 29.15 32.55 29.4
Q 32.45 29.5 32.45 29.4
L 32.3 29.25
Q 32.25 29.4 32 29.65
L 31.85 29.65 31.85 29.5 31.5 29.3 31.25 29.4 31.25 29.25 31.35 29.15 31.6 29
Q 31.6 28.9 31.75 28.9
L 31.6 28.75
Q 31.4 28.55 31.2 28.55
L 31.1 28.75 31.1 28.8 31.35 29.05
Q 31.25 29.1 31.25 29
L 31.2 29
Q 31.05 29.15 31 29
L 30.85 29.05
Q 30.85 29.2 30.7 29.05
L 30.6 28.9
Q 30.35 29.05 30.2 28.9
L 30 29 29.95 29
Q 29.6 29.25 29.6 29.5
L 29.25 29.5 29.1 29.65 28.95 30.15 29.1 30.3 28.85 30.5 28.95 30.65
Q 28.95 30.75 28.75 30.75 29 31.05 29.25 31.05 29 31.2 29.1 31.55 29.35 31.55 29.5 31.4 29.65 31.65 29.35 31.75
L 29.75 31.9
Q 29.9 32.05 30 32.05
L 30.1 32.2
Q 30.1 32.35 30.2 32.45
L 30.35 32.55 30.35 32.25 30.7 32.5 30.6 32.5 30.6 32.6 30.1 32.75 29.75 32.75 30.1 33 30.2 33.05 30.1 33.25 30.35 33.25 30.35 33.3 30.5 33.5 30.45 34.05 30.35 33.85 30.35 33.5 29.75 33.75 30.1 33.8
Q 30.1 34.1 30.2 34.2 30.4 34.2 30.2 34.3
L 30.1 34.55 30 34.6 29.85 34.5 29.5 34.6 29.6 34.95 29.35 34.7 29.25 34.75 29.25 34.5
Q 29.1 34.35 29.2 34.25
L 29.35 34.3 29.45 34.25 29.1 34.1 29 34.55 28.75 34.1 28.75 34.25
Q 28.75 34.35 28.5 34.35
L 28.35 34.35 28 34.25 28 34.35 27.95 34.45
Q 27.85 34.45 27.85 34.55
L 28.1 34.5
Q 28.25 34.5 28.35 34.6 28.25 34.65 28.25 35
L 28.35 35.05
Q 28.3 35.15 28.1 35.1
L 28.25 35
Q 28.05 35.05 27.85 34.75
L 27.7 34.25 27.95 34.3 28 34.25 27.95 34 27.7 34.05 27.75 33.85 27.7 33.85
Q 27.7 33.95 27.5 34.35
L 27.5 34.45
Q 27.5 34.5 27.35 34.5 27.25 34.5 27.25 34.35 27.4 34.2 27.25 34.05
L 27.2 34 26.75 34 26.85 33.95 26.5 33.95 26.5 34.1 26.25 34.5 26.6 34.5 27 34.95 27.45 34.7 27.6 34.75 27.5 34.8 27.45 34.8 27.45 34.95
Q 27.45 35.1 27.25 35.1
L 26.85 35.1 26.35 34.75 26.2 34.8 26.1 34.55 26 34.5 26 34.45 25.95 34.5
Q 26 34.8 25.95 34.85
L 25.25 34.85
Q 25.35 34.95 25.1 35
L 25 35.3 24.75 35.2 24.7 35.5 24.85 35.7 25 35.35 25.35 35.5 25.35 35.3 25.6 35.3 25.75 35.5 25.95 35.3
Q 25.95 35.5 26.1 35.55 26.2 35.85 26.1 35.95 26 36.05 26.1 36.3
L 25.95 36.6
Q 25.95 36.45 25.6 36.25
L 25.75 36.5 25.75 36.6 25.6 36.6 25.6 36.55 25.45 37.1 25.45 36.85
Q 25.35 36.85 25.35 36.55 25 36.7 24.75 36.5
L 24.6 36.5 24.6 36.75 24.5 36.8 24.6 37
Q 24.8 37 24.85 37.2
L 25 37.1 24.95 37
Q 25.05 37.1 25.1 37
L 25.25 37 25.25 37.25 25.5 37.25 25.6 37.35 25.75 37.25 26.1 37.5 26.25 37.35 26.5 37.3 26.75 37.35 26.95 37.25 27.2 37.35 27.1 37.25 27.5 37.1
Q 27.6 37.35 28 37.25 28 37.15 28.1 37.25 28.25 37.3 28.45 37.2 28.6 37 28.7 37
L 28.6 37.2 28.85 37.05 28.95 37.1 29.35 37 29.25 37.3 29.5 37.25 29.6 37.5
Q 29.75 37.6 29.85 37.5
L 29.95 37.35 29.75 37.25 29.75 37.2 30 36.75 30 37 30.2 37.25 30.25 37.1 30.5 37 30.5 37.25
Q 30.8 37 31 37.2 30.9 37.25 31 37.45
L 30.75 37.6 31.35 37.75 31.35 37.85 31.6 37.95 31.85 38 31.75 37.85 31.75 37.75 31.5 37.75 31.45 37.5
Q 31.65 37.45 31.85 37.55
L 32 37.45 32.25 37.55
Q 32.45 37.45 32.65 37.5
L 32.55 37.7 32.7 37.8 32.3 38.1 32.15 38.1 32.15 38.25 32.3 38.25 32.3 38.5 32 38.6 31.95 38.5 31.75 38.5 31.6 38.25 31.35 38.25
Q 31.35 38.45 31.25 38.45
L 31.2 38.55 31.25 38.75 31.6 38.75 32 38.95 31.85 39
Q 31.7 38.85 31.7 39
L 31.5 39.1
Q 31.3 39.1 31.25 39.2 30.9 39.2 30.6 39 30.7 38.8 30.6 38.7
L 30.35 38.8 30.45 38.5 30.1 38.25 30.25 38.75 30.1 38.75 30 38.95 29.85 39
Q 29.8 38.85 29.85 38.8
L 30 38.7
Q 29.9 38.55 29.75 38.55
L 29.25 38.75
Q 29.5 39.1 29.5 39.25
L 29.6 39.25
Q 29.55 39.35 29.1 39.35
L 29 39.3 29.1 39.3 28.85 39.1
Q 28.7 39.45 28.5 39.35
L 28.2 39.2 28 39.45 27.85 39.45 28 39.2
Q 27.9 39 28.1 38.8
L 28 38.75
Q 27.85 38.6 27.7 38.75
L 27.6 38.5 27.5 38.85 27.25 38.85
Q 27.25 38.55 26.95 38.55
L 26.85 38.6 26.85 38.55 26.7 38.55 26.75 38.7 26.45 38.75
Q 26.2 38.75 26.1 39
L 25.85 38.95
Q 25.9 38.9 25.85 38.6 25.75 38.6 25.75 38.75
L 25.5 38.95 24.95 39.1
Q 24.7 39.1 24.7 39
L 24.6 38.8 24.75 38.7
Q 24.6 38.55 24.35 38.6
L 24.45 38.75
Q 24.35 38.85 24.5 38.85 24.5 39.25 24.85 39.25
L 24.85 39.35 25 39.45 24.85 39.6
Q 24.85 39.8 24.75 39.7
L 24.5 39.5 24.7 39.45 24.6 39.25 24.5 39.25
Q 24.3 39.2 24.25 39.25
L 24.35 39.45 24.1 39.75 23.95 39.45 23.75 39.55
Q 23.45 39.5 23.45 39.85
L 23.25 39.8 23.35 40
Q 23.35 40.25 23.45 40.25
L 23.6 40 23.7 40 23.75 40.25 23.95 40.2 24 40.45 24.35 40.3
Q 24.25 40.25 24.25 40.1 24.45 40.1 24.45 40.25
L 24.35 40.5 24.5 40.55 24.6 40.45 24.75 40.5 24.85 40.5 24.85 40.6 24.6 40.7 23.7 40.7
Q 23.4 40.7 23.25 40.85
L 23.5 41
Q 23.65 41.15 23.6 41.35
L 23.5 41.2 23.45 41.3 23.45 41.35 23.2 41.85
Q 23.2 42.1 23.45 42
L 23.35 41.75 23.5 41.75
Q 23.5 41.9 23.75 42
L 23.5 42.1
Q 23.35 42.25 23.45 42.45
L 23.7 42.25
Q 23.6 42.5 23.35 42.55 23.75 42.7 23.75 43
L 23.5 43.05
Q 23.8 43.25 23.75 43.45
L 23.95 43.6
Q 24.05 43.7 24.1 43.55 24.5 43.45 24.5 43.55
L 24.6 43.8
Q 24.7 43.9 24.6 43.95
L 24.6 44 24.5 43.8
Q 24.5 44 24.35 44.05
L 24.35 44.25 24.7 44.25
Q 25 44.15 24.95 44.5
L 24.85 44.6 24.5 44.6
Q 24.55 44.8 24.5 44.8
L 24.25 45.25 23.75 45.25 24.1 45.5 23.85 45.6 23.5 45.45 23.35 45.6
Q 23.15 45.8 23 45.75
L 22.6 45.75 23.2 46.2
Q 23.3 46.3 23.45 46.25
L 23.35 46.45 23.5 46.5 23.5 46.55 23.1 46.6 23.1 46.85 22.95 46.85
Q 22.95 47.05 23.1 47.05 23.2 47.05 23.2 47.2
L 23.25 47.25 23.35 47.1 23.5 47.25 23.75 47.3
Q 24 47.4 24.1 47.25
L 24.2 47.3 24.1 47.45
Q 24.2 47.45 24.35 47.75 24.15 47.75 24.2 47.95
L 24.35 48.1 24.35 48.3 24.5 48.3 24.5 48.35 24.35 48.45 24.45 48.8 24.85 48.6
Q 24.95 48.9 24.85 49 24.75 49.25 24.95 49.25
L 25 49.45 25.2 49 25 48.95
Q 25.05 48.6 25.25 48.5 25.45 48.6 25.45 48.55 25.6 48.55 25.7 48.75
L 25.95 48.55 25.85 49 25.7 48.85 25.6 48.95
Q 25.6 49 25.75 49
L 25.75 49.05 25.5 49.2
Q 25.4 49.4 25.75 49.55
L 26 49.55 26 49.45 26.1 49.25
Q 26.25 49.15 26.35 49.35
L 26.35 49.5 26.7 49.7 26.6 49.8
Q 26.8 49.85 27 49.75
L 27.25 49.5 27.25 49.3
Q 27.45 49.3 27.5 49.45
L 27.35 49.55 27.5 49.75 27.35 50 27.25 49.8 27.1 50 27.85 50.3 27.85 50.45 27.7 50.75 28.1 50.75 28.1 50.95 28 51.1 28.25 51.25 28.25 51.6
Q 28.2 51.8 28.25 51.85
L 28.45 52.05
Q 28.6 52.05 28.6 52.25 28.6 52.5 28.75 52.55
L 29 52.6 28.85 52.85
Q 29.3 52.95 29.6 52.75
L 29.85 53.2 30.1 53.05 29.95 53.5
Q 30.1 53.65 30.25 53.55
L 30.35 53.6
Q 30.5 53.75 30.35 53.85
L 30.1 53.85 30.2 54.25 30.35 54.25 30.85 54.7 30.75 54.95
Q 30.95 54.95 31 55.25 31.1 55.15 31.25 55.25
L 31.35 55.2 31.6 55.45 31.6 55.6 31.75 55.5 31.85 55.7 32 55.7
Q 32.35 55.55 32.75 55.85 32.85 55.95 33.15 55.95 33.2 55.9 33.2 55.95
L 33.45 56 34.65 56
Q 34.9 56.25 35.25 56.25
L 36 56.3
Q 36 56.55 35.75 56.45 35.75 56.7 36 56.8
L 36.15 56.75 36.25 56.85
Q 36.4 57 36.4 57.25 36.2 57.6 36.25 57.8 36.55 57.9 36.7 58.25
L 36.95 58.3 36.9 58.45 37.3 58.7 37.5 58.6
Q 37.4 58.5 37.5 58.5
L 37.65 58.3 37.75 58.25 37.9 58 38 58 37.95 58.1 38.15 58.2 38.15 58.25 37.75 58.25
Q 37.75 58.45 37.8 58.45
L 38 58.5
Q 37.7 58.5 37.5 58.6
L 37.55 58.8 37.8 59 38.4 59.3 38.7 59.5 39.45 59.85 39.65 60 39.75 60.1 40.8 60.25 41 60.1 41.25 60.45
Q 41.25 60.7 41.4 60.75 41.25 60.85 41.25 60.75
L 41.15 60.7 41.05 60.75 40.8 60.75 40.8 60.8 41.2 61.1
Q 41.2 61.4 41 61.35
L 41 61.2 40.7 61.25
Q 40.55 61 40.4 61.2
L 40.5 61.25 40.5 61.35 40.05 61.55 40 61.5
Q 39.9 61.3 39.9 61.45
L 39.9 61.55
Q 39.95 61.75 39.75 61.75
L 39.45 61.8
Q 39.45 62 39.25 62
L 39.75 62.25 39.7 62.5
Q 39.8 62.5 39.8 62.35 39.95 62.5 39.8 62.7 39.8 62.8 39.7 62.7
L 39.55 62.8 39.7 63 39.5 63.05
Q 39.3 63.1 39.25 63.25
L 39.45 63.35 39.5 63.35 39.5 63.25
Q 39.65 63.1 39.95 63.25 39.95 63.45 39.8 63.45 39.65 63.45 39.65 63.55 39.65 63.85 39.75 63.75 39.95 63.75 40 64 40.15 64 40.15 64.1 40.1 64.3 40.15 64.35
L 40.3 64.35 40.25 64.5
Q 40.34921875 64.6984375 40.25 64.7 40.402734375 64.701953125 40.95 65.1
L 41.25 65.2 41 65.5 40.9 65.35
Q 40.7 65.35 40.55 65 40.5 65.1 40.25 65.1
L 40.5 65.35
Q 40.65 65.6 40.55 65.7
L 40.55 65.85
Q 40.75 65.85 40.75 65.7 40.85 65.5 40.95 65.5
L 41 65.7 41.25 65.85 41.3 65.75
Q 41.5 65.55 41.75 65.7
L 41.95 65.85 42.15 65.85 42.45 66
Q 42.65 66.25 42.75 66.25
L 43 67 43.3 67.2 43.45 66.95 43.7 67.1
Q 43.9 67.3 43.9 67.45
L 43.75 67.5 44.4 67.6 44.55 67.6 44.75 67.7 45.3 67.7
Q 45.2 67.35 45.4 67.35
L 45.55 67.6 45.55 67.85 45.7 67.85
Q 45.8 67.75 45.9 67.85
L 46 67.85 46.55 67.95
Q 46.55 67.7 46.7 67.75 46.8 67.9 47 67.85
L 47.75 67.85 48.8 67.7 49 67.75
Q 49.1 67.85 49.45 67.85
L 49.8 67.85
Q 50.05 68 50.5 68
L 50.75 67.95
Q 50.9 67.95 50.75 67.7
L 50.8 67.7 51 67.45
Q 51.35 67.2 51.9 67.35 52 67.15 52.2 67.2
L 53.25 67.25 53.8 67.2 54.25 67.1
Q 54.55 67.1 54.7 66.95 54.7 66.85 55 66.85 55.15 66.9 55.7 66.75
L 56.15 66.7 57 66.75
Q 57.15 66.9 57.25 66.75 57.5 66.75 57.65 66.85
L 57.75 66.75
Q 58.35 66.1 58.4 65.7 58.5 65.25 58.8 65 59.05 64.95 59.45 64.45 59.6 64 60 64
L 60.05 64 60.5 63.7 61.25 63.6 61.95 63.7 62.4 63.5
Q 62.75 63.05 62.75 62.95
L 63.05 62.45
Q 63.15 62.15 63.15 61.35
L 63.05 61.3 62.95 60.75 62.65 60.25 63.7 58.75 63.75 58.6 64 58.35 64.3 57.8 65.3 56.85 65.9 56.05 66.05 56 66.9 55.6 67.75 55.35 67.75 55.3 68.3 54.8
Q 68.65 54.6 68.65 54.3
L 68.75 54.25 69.25 53.85
Q 69.4 53.75 69.65 53.75
L 70.5 53.5 71 52.75 71.15 51.8 71.05 50.75
Q 71.05 50.5 71.25 50.5 71.4 50.3 71.4 50.1
L 71.9 49 72.05 48.25
Q 72.2 47.9 72.05 47.3 71.95 46.5 72 46.45
L 71.9 46.35 71.8 45.95
Q 71.65 45.7 71.75 45.5
L 71.9 44.25
Q 72.25 43.45 72.15 42.5
L 72.25 42.3 72.55 42.1
Q 73.1 41.9 73.25 41.45 73.35 41.05 73.55 41
L 73.75 40.6
Q 73.65 40.55 73.65 40.3
L 73.75 40
Q 73.75 39.55 73.55 39.25
L 73.3 39 73.25 38.85 73 38.5 72.55 38.25
Q 72.2 38.2 72.05 38.35 71.7 38.1 72.05 38
L 72.15 37.75
Q 72.25 37.35 72.4 37.25 72.6 37.05 72.65 36.5
L 72.55 36
Q 72.55 35.8 72.4 35.8 72.05 35.7 72 35.85 71.75 35.7 71.65 35.8 71.6 35.95 71.4 35.95
L 71.3 36 71.5 36.05 71.5 36.1 71.15 36.1 71.25 36.25
Q 70.95 36.2 70.9 36.25
L 71.05 36.45
Q 70.6 36.3 70.55 36.6
L 70.4 36.5
Q 70.4 36.15 70.5 36.05
L 70.3 35.7 69 37 68.55 35.75 69.15 35
Q 69.25 34.85 69.15 34.85
L 69.5 34.05 69.8 33.95 69.9 33.75
Q 70.3 33.45 70.65 33.05 70.9 32.8 70.9 32.2
L 70.8 32 70.55 31.75 70.3 31.75
Q 70.15 31.75 69.8 32.1
L 69.55 32.5 69.3 32.8 68.75 33.95 68.4 34.5 68.3 34.5
Q 68.05 34.15 68.05 33.85
L 68.25 33.2 68.25 33.1
Q 68.2 32.6 67.9 32.3 67.7 31.95 67.5 32 67.5 31.8 67.25 31.8
L 66.8 32 66.75 32.25 66.5 32.75
Q 66.35 33.15 66.05 33.25
L 65.55 33.5
Q 65.2 33.75 65.15 33.95 65 33.95 65 34.05
L 64.8 34.5 64.8 34.55
Q 64.75 35.1 64.4 35.25 64.2 35.4 63.95 35.25 63.75 35.25 63.75 35
L 63.45 34.95 63.25 35.2 63.45 35.2 63.45 35.25 63.05 35.5 62.95 35.45 62.7 35.25
Q 62.2 35.05 61.8 35.25
L 61.2 35.75
Q 61 35.85 60.75 35.75
L 60.5 35.6
Q 60.15 35.55 60 35.75
L 59.95 35.8 59.55 36 59.45 36.1 58.9 36.1
Q 59.1 35.75 58.65 35.35
L 58.3 35.5 58.25 35.75 58 35.95 57.5 35.85 57.45 35.8 57.05 35.75
Q 57 35.6 56.75 35.75
L 56.2 35.7 56.05 35.3 56.15 34.7 56.15 34.25
Q 55.9 33.8 55.7 33.75
L 55.3 33.5 55.15 33.2 55.5 32.85 55.75 32.75 55.9 32.45 56.05 32.35 56.25 32.25
Q 56.4 32.4 56.45 32.25
L 56.5 32.1 56.8 31.9
Q 56.8 31.8 57 31.8
L 57.55 31.75
Q 57.6 31.65 57.9 31.5
L 57.95 31.5
Q 57.95 31.2 58.45 31 58.55 30.9 58.7 31 58.95 31.4 59.5 31.4
L 59.7 31.25
Q 60.05 30.95 60.3 31.3 60.4 31.65 60.65 31.5 61 31.5 61 31.25
L 61.25 30.5 61.7 30.15
Q 61.95 30.15 62.15 30
L 62.5 29.65 62.75 29
Q 63.05 29 63.3 28.65 63.7 28.25 63.7 28.05
L 64.25 28.05 64.4 27.65 64.55 27.65 64.8 27.05
Q 64.8 26.8 64.65 26.65
L 64.65 26.5 64.75 26.25 64.75 26.05 64.55 25.75
Q 64.65 25.65 64.55 25.65
L 64.4 25.5 64.4 25.65 64.3 25.5
Q 64.35 25.2 64.3 25.15
L 64.05 25
Q 64.05 24.7 63.75 24.65
L 63.75 24.15 63.4 24.15
Q 63.25 24.15 63.25 23.9 62.95 23.9 63.05 23.55
L 62.9 23.05
M 62.4 23.65
L 62.5 23.65 62.55 23.75 62.45 23.8 62.4 23.65
M 46 16.25
Q 46 16.15 46.2 16
L 46.25 16.3 46 16.25
M 43.15 18.05
L 43.3 18.05 43.45 18.4
Q 43.15 18.35 43.15 18.05
M 44.5 19.3
L 44.75 19.4 44.5 19.65 44.5 19.3
M 44.65 19
L 44.45 19.15
Q 44.25 19.05 44.25 18.9
L 44.65 19
M 43.75 19.15
L 44 19.15 43.95 19.3 43.75 19.15
M 45.2 20.25
Q 45 20.25 44.9 20.15
L 45.05 20 45.5 20.25 45.2 20.25
M 42.9 19.15
L 42.7 18.9
Q 42.95 18.9 42.95 19.05
L 42.9 19.15
M 49 19.3
L 49.3 19.25 49.25 19.5 48.95 19.65 49 19.3
M 49.25 20.5
Q 49.15 20.7 49.2 20.75
L 49.05 20.75 49 20.65
Q 49 20.4 49.25 20.5
M 49.3 20.25
L 49.15 20.3 48.95 20.15
Q 49 20.05 49.2 20.05
L 49.45 20.15 49.3 20.25
M 48.65 21.4
L 48.7 21.3 49 21.5 49.15 21.9 48.95 21.9
Q 48.8 21.85 48.65 22 48.55 21.8 48.75 21.75
L 48.95 21.65 48.75 21.55
Q 48.65 21.55 48.65 21.4
M 48.55 21.5
L 48.5 21.65
Q 48.5 21.85 48.25 21.75 48.05 21.65 48.05 21.5 48.1 21.35 48.4 21.5
L 48.55 21.5
M 50.15 20.75
L 50.45 20.75 50.5 20.9
Q 50.25 20.9 50.15 20.75
M 49.5 21.55
L 49.45 21.65 49.45 22.05 49.4 22.15 49.25 21.55 49.5 21.55
M 49.5 21.3
L 49.75 21.25 49.75 21.5
Q 49.45 21.4 49.5 21.3
M 46.4 20.3
L 46.45 20.4 46.4 20.5 46.25 20.4 46.4 20.3
M 50.7 24
L 50.75 24.15 50.65 24.25 50.55 24.05 50.7 24
M 57.65 23.3
L 57.55 23.25 57.75 23 58 23.3
Q 58 23.4 57.8 23.25
L 57.65 23.3
M 59.65 23.25
L 59.55 23.3
Q 59.45 23.45 59.25 23.25
L 59.65 23.25
M 55.2 32.25
L 55.05 32.05 55.2 32 55.4 32.1 55.2 32.25
M 55.65 31.25
L 55.65 31.05 55.8 30.8 55.8 31.3
Q 55.8 31.4 55.65 31.25
M 55.5 31.9
Q 55.25 31.8 55.4 31.65
L 55.65 31.4 55.5 31.9
M 55.95 32.05
Q 55.75 32.1 55.75 31.9 55.7 31.9 55.9 31.75
L 55.95 32.05
M 56.3 31.8
L 56.15 31.9
Q 56.1 31.6 56.3 31.65
L 56.3 31.8
M 41.25 29.4
Q 41.4 29.15 41.25 29 41.4 29 41.5 29.4
L 41.25 29.4
M 43.5 29
Q 43.5 29.05 43.3 28.9 43.5 28.85 43.5 28.9 43.6 28.9 43.5 29
M 41.9 34.2
L 41.95 34.25 41.8 34.35 41.7 34.35 41.7 34.1 41.75 34.2 41.9 34.2
M 71.4 36.5
L 71.5 36.45 71.65 36.5 71.55 36.6 71.4 36.5
M 68.55 35.45
L 68.4 35.45 68.5 35.25 68.65 35.25 68.55 35.45
M 67.15 37.75
L 67.25 38.2 67.05 38.2
Q 67 37.9 67.15 37.75
M 34.2 19.15
L 34.4 19 34.4 19.4
Q 34.4 19.5 34.15 19.5
L 34.25 19.4 34.2 19.15
M 34.95 20
L 34.95 20.05 35.25 20.3 35.25 20.5 34.75 20.4 34.65 20.3 34.95 20
M 33.25 21.5
L 33.25 21.55 33.2 21.75 33 21.65 33.25 21.5
M 34.75 21.5
L 34.7 21.25 34.8 21.05
Q 35.1 21.35 35 21.5
L 34.9 21.65 34.75 21.5
M 32.5 22.4
L 32.55 22.4 32.65 22.65
Q 32.4 22.65 32.5 22.4
M 34.55 22
L 34.75 21.9 34.95 22 34.75 22.25 34.55 22
M 34.5 22.75
Q 34.35 22.6 34.25 22.65 34.3 22.5 34.65 22.5 34.65 22.75 34.5 22.75
M 35.4 22.55
L 35.05 22.65 35 22.5
Q 35.15 22.4 35.25 22.5
L 35.4 22.55
M 34.05 22.4
L 33.75 22.5
Q 33.9 22.25 33.65 22.15
L 34.2 22.25 34.15 22.05 34.25 22.25 34.05 22.4
M 33.4 22.65
L 33.25 22.65
Q 33.2 22.65 33.25 22.5
L 33.3 22.5 33.4 22.65
M 34.75 23.3
L 34.55 23.35
Q 34.7171875 23.2896484375 34.8 23
L 35.05 23.25 34.95 23.4 34.75 23.3
M 38.25 21.65
Q 38.05 21.65 38.05 21.4
L 37.75 21.5 37.75 21.4 38 21.25
Q 37.9 21.05 37.8 21.25 37.7 21.45 37.5 21.25 37.8 21.1 37.7 20.75
L 37.65 20.65
Q 37.8 20.55 37.7 20.15
L 37.75 20.15 37.8 20.4 38.05 20.5
Q 38.05 20.75 37.95 20.75
L 38.25 21 38.15 21.05 38.25 21.4 38.25 21.65
M 36.5 21.15
L 36.5 20.9
Q 36.75 21 36.75 21.15
L 36.5 21.15
M 37 23
Q 37 22.9 37.25 22.8 37.45 22.8 37.5 22.65
L 37.65 22.8 37.9 22.75 37.8 22.9 37.55 23.15
Q 37.45 23.3 37.25 23.25
L 37.25 23.3 37.55 23.4 37.55 23.65
Q 37.4 23.8 37.4 23.55 37.25 23.3 37.15 23.3
L 37 23
M 35.5 21.75
Q 35.75 21.9 35.75 22.05
L 35.5 22.15 35.25 22 35.5 21.75
M 35.45 23.15
L 35.55 23.15
Q 35.75 23.15 35.65 23.4
L 35.55 23.4
Q 35.45 23.3 35.5 23.25
L 35.45 23.15
M 36.2 23.25
L 36.4 23.3 36.45 23.5 36.25 23.65 36 23.5 36 23.15 36.2 23.25
M 36 24.5
L 35.8 24.4 35.9 24.25 36 24.4 36 24.5
M 37.55 24.5
L 37.45 24.25
Q 37.6 24.15 37.7 24.25
L 37.55 24.5
M 38.75 23.4
L 38.65 23.05 38.75 23
Q 38.9 23.2 38.75 23.4
M 38.15 26.5
Q 38.2 26.65 38.15 26.75 38.05 26.8 37.9 26.75
L 37.95 26.5 38.15 26.5
M 37.7 27.4
Q 37.55 27.4 37.45 27.3
L 37.5 27.15 37.75 27.25 37.7 27.4
M 36.2 28.5
L 36.05 28.65 36 28.55
Q 36 28.45 35.75 28.55
L 35.75 28.25 35.8 28.4 36 28.4 36.15 28.5 36.2 28.5
M 36 30.4
L 35.75 30.5 35.75 30
Q 35.85 30.05 36 30.4
M 35.7 30.75
L 35.9 30.65 35.9 30.9
Q 35.8 30.9 35.7 30.75
M 36.2 30.75
Q 36.3 30.6 36.2 30.4 36.45 30.5 36.45 30.8
L 36.2 30.75
M 40.45 30.05
L 40.15 30.15 40 29.9 40.25 29.8 40.5 29.65
Q 40.25 29.95 40.45 30.05
M 39.55 28.5
L 39.3 28.55
Q 39.2 28.55 39.25 28.4
L 39.55 28.5
M 30.75 25.5
L 31 25.9
Q 30.75 25.9 30.6 25.65
L 30.75 25.5
M 32.25 28.9
L 32 28.9 32.15 28.65 32.25 28.9
M 32.75 30.25
L 32.65 30 32.9 30.05 32.75 30.25
M 34.25 28.4
Q 34.4 28.3 34.25 28.15
L 34.3 28.15
Q 34.35 27.95 34.25 27.9
L 34.25 27.8 34.7 27.9
Q 34.8 28.1 34.65 28.15
L 34.75 28.4 34.5 28.55 34.75 28.65
Q 34.95 28.85 34.75 29 34.6 28.9 34.65 28.75 34.15 28.85 34 28.75
L 33.75 28.9
Q 33.65 28.75 33.75 28.65
L 33.7 28.4 33.9 28.5 33.75 28.65
Q 34.05 28.65 34.25 28.4
M 34.55 29.25
Q 34.55 29.05 34.65 29.05 35 28.95 34.95 28.5
L 35.05 28.65 35.25 28.8 35.3 29.15 35.15 29.15 35.4 29.4
Q 35.2 29.55 35.15 29.5
L 35.05 29.65 34.9 29.5 34.7 29.75
Q 34.85 30 34.55 30.15 34.4 30 34.2 30.15
L 33.9 30
Q 33.9 30.25 34 30.3 34.15 30.4 34 30.75
L 33.7 30.9
Q 33.85 30.5 33.75 30.4
L 33.75 30.25 33.55 30.3
Q 33.5 30.2 33.75 30
L 33.5 29.65 33.7 29.55 33.9 29.55 34 29.4 34.05 29.25
Q 34.3 29 34.45 29.25
L 34.5 29.4 34.55 29.25
M 35.15 29.65
L 35.2 29.65 35.25 29.9 35 29.9 34.8 29.8
Q 35.15 29.8 35.15 29.65
M 32.4 31.65
L 32.3 31.75 32.25 31.75 32.25 31.55 32.3 31.55 32.4 31.65
M 31.25 32.25
L 31.45 32.05 31.45 32.55
Q 31.1 32.8 30.95 32.6 31.1 32.6 31.1 32.5 31.25 32.5 31.25 32.25
M 31.1 32.25
Q 30.8 32.4 30.75 32
L 30.95 32 31.1 32.25
M 31.25 31.4
L 31.1 31.25 31.35 31.25 31.25 31.4
M 30.75 34
L 30.95 33.75
Q 31.1 33.9 31 34.1
L 30.75 34
M 32.9 33.8
L 32.9 33.95 32.7 33.95 32.7 33.85 32.9 33.8
M 32.7 35.3
Q 32.55 35.3 32.55 35.1 32.65 34.95 32.55 34.95
L 32.95 34.8
Q 33.05 35.05 32.9 35.1
L 32.7 35.3
M 32 35.1
L 31.95 35.25
Q 31.8 35.5 31.85 35.5
L 31.6 35.75 31.5 35.55 31.6 35.3 31.75 35.25
Q 31.75 35.05 32 35.1
M 32.2 34.7
L 32 35
Q 31.95 35.05 31.6 34.85 32 34.5 32.2 34.7
M 31.25 34.55
L 31.5 34.6 31.45 34.75 31.45 34.95 31.35 35.1
Q 31.35 34.95 31 34.8 31.35 34.75 31.25 34.55
M 30.5 35.3
L 30.5 35.5
Q 30.35 35.5 30.1 35.25
L 30.5 35.3
M 31.45 34.25
Q 31.35 34.45 31 34.45 31.35 34.15 31.2 33.85
L 31.7 34.2
Q 31.55 34.3 31.45 34.25
M 31.1 36.1
L 31.35 36 31.45 36.35 31 36.25 30.95 36.35
Q 30.8 36.25 30.7 36 31.05 35.85 31.1 36.1
M 31.2 35.8
L 31.25 35.7 31.35 35.8 31.25 35.95 31.2 35.8
M 30.5 35.85
L 30.5 36.05 30.35 36.2 30.35 36 30.45 35.85 30.5 35.85
M 30.75 36.5
L 30.85 36.75 30.6 36.7 30.75 36.5
M 32.65 36.35
L 32.75 36.45 32.75 36.6
Q 32.6 36.5 32.65 36.35
M 26.75 35.25
Q 26.95 35.25 26.95 35.35
L 26.95 35.55 26.5 35.6 26.5 35.45 26.6 35.35 26.5 35.2 26.75 35.25
M 27.6 36.25
L 27.75 36.05 27.75 36.35 27.7 36.45 27.35 36.6 27.35 36.5
Q 27.2 36.15 27.45 35.8 27.7 36.1 27.6 36.25
M 29.5 35.45
L 29.5 35.55 29.2 35.75 29.25 35.55 29.5 35.45
M 28.1 36.55
L 28.2 36.5 28.35 36.5 28.2 36.7 28.1 36.55
M 28.5 36.5
L 28.6 36.3 28.75 36.3
Q 28.7 36.6 28.5 36.5
M 29.95 35.6
Q 29.75 35.65 29.75 35.6
L 29.7 35.45
Q 29.95 35.3 29.95 35.6
M 29.75 39.35
L 29.85 39.3 30 39.35 30.2 39.55 29.85 39.7 29.6 39.75 29.5 39.5
Q 29.75 39.5 29.75 39.35
M 25.95 39.6
L 25.75 39.75 25.7 39.5 25.95 39.6
M 25.1 39.85
Q 25 39.7 25.1 39.5
L 25.5 39.7 25.1 39.85
M 24.85 47.3
L 25.2 47.5
Q 25 47.75 24.75 47.5
L 24.85 47.3
M 25.25 48
L 25.2 48 25.2 47.7
Q 25.35 47.65 25.5 47.85
L 25.35 47.85 25.25 48
M 26.25 48.25
L 26.35 48.25 26.45 48.3 26.35 48.5 26.25 48.45 26.25 48.25
M 27.2 49.25
L 27 49.2 27.1 49 27.2 49.25
M 27.35 49.1
Q 27.35 49.3 27.25 49.1
L 27.5 48.85
Q 27.7 49.05 27.95 48.75
L 27.85 49 27.5 49.1 27.35 49.1
M 27.75 49.45
L 28 49.3 28 50.2 27.85 50.05
Q 27.65 50 27.65 49.9 27.65 49.8 27.85 49.75
L 27.75 49.45
M 30.75 39.45
Q 30.5 39.7 30.45 39.55
L 30.35 39.25 30.75 39.45
M 32.55 38.85
L 32.75 38.85 32.75 38.95
Q 32.6 38.9 32.5 39.05
L 32.7 39.2 32.25 39.3
Q 32.15 39.15 32.25 38.85 32.4 38.7 32.7 38.75
L 32.55 38.85
M 32.25 39.8
L 32.05 39.7 32.2 39.5
Q 32.25 39.45 32.5 39.6
L 32.25 39.8
M 36.5 57.75
L 36.7 57.6 36.75 57.8 36.5 57.75
M 38.3 59.2
L 38.7 59.05 38.65 59.3
Q 38.4 59.3 38.3 59.2
M 40.25 62.7
Q 40.35 62.8 40.25 63.05
L 40.15 62.8 40.25 62.7
M 40.45 62
L 40.3 61.75
Q 40.4 61.65 40.65 61.8
L 40.45 62
M 60.95 58
L 61.2 57.8 61.55 57.85
Q 61.85 58.1 61.65 58.6
L 60.95 58
M 50.95 55
Q 50.95 55.1 51.25 55.25
L 51 55.3
Q 50.6 55.2 50.3 55.3
L 50.3 55.5 50.15 55.5 50 55.25
Q 49.7 55.5 49.25 55.35
L 49.25 55.45 49.5 55.5 49.4 55.7 49.25 55.6 49.2 55.45
Q 48.9 55.45 48.9 55.55
L 48.55 55.75
Q 48.4 55.9 48.25 55.8
L 48.05 55.75
Q 48 55.75 48 55.95
L 47.9 55.75
Q 47.8 55.7 47.95 55.7
L 47.8 55.5 47.75 55.25
Q 47.6 54.65 47.25 54.45 47.05 54.05 47.25 53.75
L 47.45 53.85 47.5 54
Q 47.5 54.1 47.7 54.1
L 47.7 53.95 48 54.25 48.15 54.05 48.5 54.25 49.05 54.3 49.2 54.3
Q 49.35 54.55 50.05 54.7 50.5 54.8 50.5 54.75
L 50.55 54.75 50.95 55
M 46.95 53.7
L 46.9 53.85 46.8 54.05
Q 46.5 54 46.45 53.8
L 46.95 53.7
M 41.7 61.6
L 41.7 61.7 41.5 61.75 41.55 61.95 41.25 61.85 41.45 61.6 41.7 61.6
M 42.5 61.85
L 42.7 61.85
Q 42.7 62.05 42.5 61.95
L 42.5 61.85
M 43.4 62.55
L 43.3 62.55
Q 43.25 62.85 42.9 62.75
L 43 62.5
Q 43.05 62.45 43.4 62.55
M 42.5 62.2
L 42.75 62.25 42.45 62.6
Q 42.3 62.85 42.15 62.6
L 42.4 62.5 42.25 62.3 42.5 62.2
M 43.8 66.45
L 43.75 66.5
Q 43.7 66.65 43.55 66.5 43.5 66.5 43.55 66.45 43.55 66.35 43.75 66.35
L 43.8 66.45 Z"/>
</g>

<g id="Layer2_0_MEMBER_1_MEMBER_0_MEMBER_0_MEMBER_0_FILL">
<path fill="#000000" stroke="none" d="
M 56.15 70.75
L 56 71 55.75 71.7
Q 55.85 71.75 55.75 71.75
L 55.75 71.95
Q 55.85 72.2 55.75 72.7
L 55.7 72.85 55.75 73.7 55.55 74.1 55.4 74.95
Q 55.35 75.7 56 75.85
L 56.05 75.85 56.55 75.45 56.9 75 57 74.1
Q 57.15 73.7 57.3 73.7 57.3 73.5 57.4 73.35
L 57.55 73
Q 57.65 72.6 57.75 72.5
L 57.75 72.45 57.7 72.35 57.8 71.6 57.95 71.35
Q 58.05 70.1 57.65 69.35 57.3 69.2 57 69.45 56.6 69.8 56.5 70.1
L 56.2 70.7 56.15 70.75 Z"/>
</g>

<g id="Layer2_0_MEMBER_2_MEMBER_0_MEMBER_0_MEMBER_0_FILL">
<path fill="#000000" stroke="none" d="
M 54.65 70.25
L 54.4 70.6 53.75 71.2 53.05 72.7
Q 53 72.95 53.2 73.1
L 53.4 73.6 53.2 74.1
Q 53 74.25 52.75 74.85 52.65 75.2 53 75.1 53.3 75.1 53.4 74.85
L 53.65 74.45 53.95 73.7
Q 54 73.45 54.2 73.35
L 54.2 73.25 54.4 72.95 54.75 72.6
Q 54.85 72.45 54.95 72.45
L 55.05 72.35
Q 55.1 72.1 55.45 72.1
L 55.4 71.85 55.55 71.2
Q 55.9 70.55 55.75 70.1 55.65 70 55.45 70 55.15 70 55.15 69.95
L 54.8 70.2 54.65 70.25 Z"/>
</g>

<g id="Layer2_0_MEMBER_3_MEMBER_0_MEMBER_0_MEMBER_0_FILL">
<path fill="#000000" stroke="none" d="
M 80.55 37.85
Q 80.55 37.7 80.3 37.55
L 79.9 37.3 79.65 37.25 79.15 37.5
Q 78.65 37.75 78.65 38.2
L 78.75 38.85 78.8 39 79.4 39.35 79.65 39.45
Q 79.8 39.25 80 39.35
L 80.3 39.2 80.55 38.75 80.65 38.3 80.55 37.85 Z"/>
</g>

<g id="Layer2_0_MEMBER_4_MEMBER_0_MEMBER_0_MEMBER_0_FILL">
<path fill="#000000" stroke="none" d="
M 34.5 79.2
L 34.45 78.7
Q 34.45 78.5 34.25 78.5
L 34 78.6 33.95 78.7 33.15 79.95
Q 32.85 80.35 32.65 81.1
L 32.5 81.6
Q 32.5 81.8 32.7 81.85 32.8 82.1 33 81.85
L 33.3 81.6
Q 33.55 81.45 33.55 81.25
L 33.65 81.2 34 80.7 34 80.6 34.3 80.1 34.3 79.85 34.5 79.2 Z"/>
</g>

<g id="Layer2_0_MEMBER_5_MEMBER_0_MEMBER_0_MEMBER_0_FILL">
<path fill="#000000" stroke="none" d="
M 81.8 26
Q 81.95 25.7 81.65 25.4 81.4 25.25 81.15 25.5
L 80.4 26.25 80.3 26.4 80.15 27 80.15 27.3
Q 80.1 27.45 80.3 27.65
L 80.9 27.5 81.15 27.4 81.4 26.9 81.5 26.75 81.55 26.65 81.8 26 Z"/>
</g>

<g id="Layer2_0_MEMBER_6_MEMBER_0_MEMBER_0_MEMBER_0_FILL">
<path fill="#000000" stroke="none" d="
M 52.95 83.6
Q 52.6 83.6 52.5 83.95
L 52.2 84.45 52.05 84.85 51.9 85.85
Q 51.9 86.15 52.05 86.2
L 52.25 86.25
Q 52.75 86.2 52.75 85.7
L 53.2 84.95
Q 53.35 84.8 53.25 84.6
L 53.25 84.45
Q 53.35 84.3 53.2 83.7
L 52.95 83.6 Z"/>
</g>

<g id="Layer2_0_MEMBER_7_MEMBER_0_MEMBER_0_MEMBER_0_FILL">
<path fill="#000000" stroke="none" d="
M 52.45 67.45
Q 52.35 67.3 52.05 67.45
L 51.5 68 51.05 68.7 51.05 68.75 51 68.95 50.7 69.7
Q 50.6 70 51 70.2
L 51.8 69.25 52 69.1
Q 52.5 67.95 52.5 67.85
L 52.45 67.45 Z"/>
</g>

<g id="Layer2_0_MEMBER_8_MEMBER_0_MEMBER_0_MEMBER_0_FILL">
<path fill="#000000" stroke="none" d="
M 69.75 30.5
L 69.55 30.65 69.3 30.9 69.15 31.25
Q 68.95 31.45 68.8 31.75
L 68.8 31.8 68.65 32.2
Q 68.45 32.6 68.9 32.6
L 69.15 32.55 69.05 32.35 69.5 31.9
Q 69.55 31.75 69.75 31.75
L 69.8 31.75 70.05 31.25 70.15 30.9 70.3 30.8
Q 70.55 30.35 70.55 30.15
L 70.4 30
Q 70.25 29.85 70.15 29.9
L 69.75 30.5 Z"/>
</g>

<g id="Layer2_0_MEMBER_9_MEMBER_0_MEMBER_0_MEMBER_0_FILL">
<path fill="#000000" stroke="none" d="
M 55 77.1
Q 54.85 76.85 54.7 77 54.45 77.35 54 77.6
L 53.75 78.1 53.7 78.6
Q 53.6 78.7 53.75 79.1 54.2 79.1 54.25 78.95
L 55.2 77.75
Q 55 77.65 55 77.35 55.1 77.35 55 77.1 Z"/>
</g>

<g id="Layer2_0_MEMBER_10_MEMBER_0_MEMBER_0_MEMBER_0_FILL">
<path fill="#000000" stroke="none" d="
M 71.65 35.25
L 71.65 35
Q 71.55 34.7 71.05 34.5 70.75 34.5 70.65 34.6 70.55 34.75 70.55 35
L 70.55 35.1
Q 70.8 35.65 71.05 35.75 71.2 35.85 71.3 35.75 71.65 35.6 71.65 35.25 Z"/>
</g>

<g id="Layer2_0_MEMBER_11_MEMBER_0_MEMBER_0_MEMBER_0_FILL">
<path fill="#000000" stroke="none" d="
M 74.65 24.9
L 74.55 24.75
Q 74.45 24.5 74.3 24.5 74.1 24.5 74 24.75
L 73.75 25.15 73.65 25.25 73.65 25.5 73.75 26 73.9 26.15 74.4 25.55 74.55 25.25
Q 74.75 25.15 74.65 24.9 Z"/>
</g>

<g id="Layer2_0_MEMBER_12_MEMBER_0_MEMBER_0_MEMBER_0_FILL">
<path fill="#000000" stroke="none" d="
M 58.5 69.35
Q 58.65 69.2 58.65 69.1
L 58.55 68.45 58.5 68.35 58.25 68.1
Q 58.15 67.9 58 68
L 57.9 68.2 57.9 68.45 57.95 68.85 58.05 69.2 58.25 69.35
Q 58.4 69.5 58.5 69.35 Z"/>
</g>

<g id="Layer2_0_MEMBER_13_MEMBER_0_MEMBER_0_MEMBER_0_FILL">
<path fill="#000000" stroke="none" d="
M 36.25 17.8
Q 36.5 17.65 36.25 17.5
L 35.5 17.5
Q 35.25 17.6 35.25 17.75
L 35.05 17.75 35 17.65 34.9 17.75 34.75 17.65 34.65 17.8 34.65 17.9
Q 35 17.9 35.05 18
L 35 18.05 35 18.15
Q 34.65 18.15 34.5 18.3
L 34.65 18.4
Q 34.8 18.35 34.95 18.4
L 35 18.4 35.25 18.15 35.2 18 35.45 17.9 35.45 18.15 35.75 18.15
Q 35.55 17.95 35.55 17.8
L 35.8 18 36.2 17.75 36.25 17.8 Z"/>
</g>

<g id="Layer2_0_MEMBER_14_MEMBER_0_MEMBER_0_MEMBER_0_FILL">
<path fill="#000000" stroke="none" d="
M 72 32.05
Q 71.8 32.05 71.65 32.25 71.65 32.4 71.5 32.45
L 71.55 33 71.55 33.25
Q 71.5 33.25 71.65 33.5 71.8 33.6 71.8 33.3
L 72.15 32.85 72.05 32.7 72.15 32.3
Q 72.15 32.05 72 32.05 Z"/>
</g>

<g id="Layer2_0_MEMBER_15_MEMBER_0_MEMBER_0_MEMBER_0_FILL">
<path fill="#000000" stroke="none" d="
M 75.25 29.25
L 75.25 29.15 75.15 28.9
Q 74.95 28.85 74.75 28.9
L 74.5 29.3 74.5 29.65
Q 74.5 29.75 74.65 29.8 74.8 29.95 74.9 29.8 75.35 29.5 75.25 29.25 Z"/>
</g>

<g id="Layer2_0_MEMBER_16_MEMBER_0_MEMBER_0_MEMBER_0_FILL">
<path fill="#000000" stroke="none" d="
M 47.9 85.2
L 47.95 85.7
Q 47.95 85.85 48.2 85.85
L 48.4 85.75 48.55 85.45
Q 48.65 85.35 48.5 84.95
L 48.3 84.95
Q 47.9 84.95 47.9 85.2 Z"/>
</g>

<g id="Layer2_0_MEMBER_17_MEMBER_0_MEMBER_0_MEMBER_0_FILL">
<path fill="#000000" stroke="none" d="
M 75.15 37.35
Q 75.3 37.35 75.3 37.1 75.3 36.8 75.05 36.6
L 74.8 36.75
Q 74.6 36.8 74.65 37.1 74.8 37.45 75.15 37.35 Z"/>
</g>

<g id="Layer2_0_MEMBER_18_MEMBER_0_MEMBER_0_MEMBER_0_FILL">
<path fill="#000000" stroke="none" d="
M 56.95 68.1
L 56.75 67.85 56.5 67.45 56.4 67.7 56.4 67.85
Q 56.2 68 56.4 68.25
L 56.55 68.6
Q 56.75 68.45 56.75 68.25
L 56.95 68.1 Z"/>
</g>

<g id="Layer2_0_MEMBER_19_MEMBER_0_MEMBER_0_MEMBER_0_FILL">
<path fill="#000000" stroke="none" d="
M 39.8 69.1
L 39.75 68.75 39.45 69 39.65 69.2 39.45 69.2
Q 39.25 69.5 39.4 69.95
L 39.55 70
Q 39.75 70 39.65 69.85
L 39.75 69.7 39.8 69.1 Z"/>
</g>

<g id="Layer2_0_MEMBER_20_MEMBER_0_MEMBER_0_MEMBER_0_FILL">
<path fill="#000000" stroke="none" d="
M 25.25 34.1
L 25.1 34.45 25.6 34.25 25.6 34.35 25.85 34.45 25.75 34.6 25.85 34.7 26 34.3 26 34.5 26.1 34.25
Q 26.2 34.1 26.1 33.85 26.05 34.05 25.85 34.05 25.55 34.1 25.5 34.25
L 25.45 34.2 25.25 34.1 Z"/>
</g>

<g id="Layer2_0_MEMBER_21_MEMBER_0_MEMBER_0_MEMBER_0_FILL">
<path fill="#000000" stroke="none" d="
M 21 59.5
L 21.25 59.8 21.6 59.75 21.6 59.5
Q 21.6 59.3 21.35 59.25 21.25 59.15 21.1 59.45
L 21 59.5 Z"/>
</g>

<g id="Layer2_0_MEMBER_22_MEMBER_0_MEMBER_0_MEMBER_0_FILL">
<path fill="#000000" stroke="none" d="
M 63.55 60.45
Q 63.25 60.15 63.2 60.55
L 63.2 60.75 63.5 61
Q 63.65 61 63.75 60.85 63.85 60.6 63.55 60.45 Z"/>
</g>

<g id="Layer2_0_MEMBER_23_MEMBER_0_MEMBER_0_MEMBER_0_FILL">
<path fill="#000000" stroke="none" d="
M 39.05 79.85
Q 38.95 80.25 39.45 80.2
L 39.5 80.2
Q 39.55 80.05 39.5 79.75
L 39.45 79.6
Q 39.55 79.45 39.4 79.45
L 39.2 79.6 39.05 79.85 Z"/>
</g>

<g id="Layer2_0_MEMBER_24_MEMBER_0_MEMBER_0_MEMBER_0_FILL">
<path fill="#000000" stroke="none" d="
M 25.35 35.7
Q 25.35 35.9 25.1 35.75
L 25.25 36 25.25 35.95
Q 25.45 35.95 25.5 36.2 25.7 36.2 25.95 35.85
L 25.85 35.75 25.6 35.7 25.35 35.7 Z"/>
</g>

<g id="Layer2_0_MEMBER_25_MEMBER_0_MEMBER_0_MEMBER_0_FILL">
<path fill="#000000" stroke="none" d="
M 65.8 25.9
Q 65.95 25.65 65.8 25.5 65.65 25.3 65.4 25.4 65.25 25.85 65.55 25.9 65.7 25.95 65.8 25.9 Z"/>
</g>

<g id="Layer2_0_MEMBER_26_MEMBER_0_MEMBER_0_MEMBER_0_FILL">
<path fill="#000000" stroke="none" d="
M 43.7 17.5
L 43.75 17.3 43.75 17.25 43.25 17.5
Q 43.5 17.7 44 17.75
L 44.15 17.5 43.95 17.4 43.9 17.5 43.75 17.55 43.7 17.5 Z"/>
</g>

<g id="Layer2_0_MEMBER_27_MEMBER_0_MEMBER_0_MEMBER_0_FILL">
<path fill="#000000" stroke="none" d="
M 71.55 29.55
L 71.65 29.55
Q 71.8 29.55 71.8 29.15
L 71.4 29.15
Q 71.35 29.2 71.4 29.4
L 71.55 29.55 Z"/>
</g>

<g id="Layer2_0_MEMBER_28_MEMBER_0_MEMBER_0_MEMBER_0_FILL">
<path fill="#000000" stroke="none" d="
M 30 37.75
L 30.25 37.8 30.25 37.7 30.2 37.7
Q 30.3 37.6 30.5 37.75
L 30.5 37.7
Q 30.4 37.5 30.45 37.45
L 30.7 37.5
Q 30.5 37.3 30 37.5
L 30 37.75 Z"/>
</g>

<g id="Layer2_0_MEMBER_29_MEMBER_0_MEMBER_0_MEMBER_0_FILL">
<path fill="#000000" stroke="none" d="
M 29.1 21.15
L 28.75 21.4 29.2 21.4 29.2 21.55 29.35 21.55 29.5 21.5 29.45 21.05 29.35 21.05 29.35 21.25 29.1 21.15 Z"/>
</g>

<g id="Layer2_0_MEMBER_30_MEMBER_0_MEMBER_0_MEMBER_0_FILL">
<path fill="#000000" stroke="none" d="
M 45.5 81.1
L 45.55 81.1
Q 45.75 81.05 45.7 80.85
L 45.7 80.25 45.5 80.5 45.5 81.1 Z"/>
</g>

<g id="Layer2_0_MEMBER_31_MEMBER_0_MEMBER_0_MEMBER_0_FILL">
<path fill="#000000" stroke="none" d="
M 28.25 38.5
L 28.35 38.55 28.5 38.55 28.5 38.5 28.75 38.45 28.75 38.35 28.35 38.1 28.25 38.2 28.45 38.35 28 38.5 28.1 38.55
Q 28.1 38.65 28.25 38.5 Z"/>
</g>

<g id="Layer2_0_MEMBER_32_MEMBER_0_MEMBER_0_MEMBER_0_FILL">
<path fill="#000000" stroke="none" d="
M 36.25 70.1
L 36.3 70.25 36.5 70.45 36.75 70.25
Q 36.9 70.2 36.75 70.1
L 36.45 70 36.25 70.1 Z"/>
</g>

<g id="Layer2_0_MEMBER_33_MEMBER_0_MEMBER_0_MEMBER_0_FILL">
<path fill="#000000" stroke="none" d="
M 51.45 19.15
L 51.5 19.3 51.4 19.55 51.75 19.5 51.75 19.25 51.8 19.15 51.5 19 51.45 19.15 Z"/>
</g>

<g id="Layer2_0_MEMBER_34_MEMBER_0_MEMBER_0_MEMBER_0_FILL">
<path fill="#000000" stroke="none" d="
M 30.6 21.75
Q 30.75 21.8 31.1 21.75
L 31.25 21.65
Q 31.1 21.5 30.85 21.55
L 30.75 21.65
Q 30.6 21.6 30.6 21.75 Z"/>
</g>

<g id="Layer2_0_MEMBER_35_MEMBER_0_MEMBER_0_MEMBER_0_FILL">
<path fill="#000000" stroke="none" d="
M 45.55 18.3
L 45.9 18.15 45.9 18 45.5 17.8 45.45 18.15 45.55 18.3 Z"/>
</g>

<g id="Layer2_0_MEMBER_36_MEMBER_0_MEMBER_0_MEMBER_0_FILL">
<path fill="#000000" stroke="none" d="
M 33.5 16.3
L 33.4 16.5 33.55 16.65 33.4 16.65 33.55 16.8 33.65 16.65 33.7 16.8
Q 33.75 16.9 33.9 16.9 33.9 16.7 33.75 16.55 33.5 16.4 33.5 16.3 Z"/>
</g>

<g id="Layer2_0_MEMBER_37_MEMBER_0_MEMBER_0_MEMBER_0_FILL">
<path fill="#000000" stroke="none" d="
M 25.25 36
Q 25.15 36.2 25.25 36.25
L 25.2 36.25 25.2 36.35 25.25 36.35 25.1 36.5 25.6 36.55 25.6 36.5 25.35 36.35 25.35 36.2
Q 25.35 36 25.25 36 Z"/>
</g>

<g id="Layer2_0_MEMBER_38_MEMBER_0_MEMBER_0_MEMBER_0_FILL">
<path fill="#000000" stroke="none" d="
M 49.2 14.7
L 49.05 14.45
Q 48.95 14.35 48.75 14.6
L 48.9 14.75 49 14.9 49.2 14.7 Z"/>
</g>

<g id="Layer2_0_MEMBER_39_MEMBER_0_MEMBER_0_MEMBER_0_FILL">
<path fill="#000000" stroke="none" d="
M 31.6 26.9
Q 32 27.05 32.2 26.9 32 26.9 32 26.65
L 31.85 26.55
Q 31.85 26.9 31.6 26.9 Z"/>
</g>

<g id="Layer2_0_MEMBER_40_MEMBER_0_MEMBER_0_MEMBER_0_FILL">
<path fill="#000000" stroke="none" d="
M 18.1 65.75
Q 18.05 65.85 18.2 65.95
L 18.35 66.1
Q 18.45 65.8 18.35 65.75
L 18.2 65.7 18.1 65.75 Z"/>
</g>

<g id="Layer2_0_MEMBER_41_MEMBER_0_MEMBER_0_MEMBER_0_FILL">
<path fill="#000000" stroke="none" d="
M 36.25 77.5
Q 36.4 77.5 36.25 77.35
L 35.9 77.35 36 77.6 36.25 77.5 Z"/>
</g>

<g id="Layer2_0_MEMBER_42_MEMBER_0_MEMBER_0_MEMBER_0_FILL">
<path fill="#000000" stroke="none" d="
M 29.75 23.3
Q 29.85 23.3 29.85 23.15
L 29.75 23.05 29.45 22.9 29.5 23.3 29.75 23.3 Z"/>
</g>

<g id="Layer2_0_MEMBER_43_MEMBER_0_MEMBER_0_MEMBER_0_FILL">
<path fill="#000000" stroke="none" d="
M 60.25 21.8
L 60 22 60.15 22.25
Q 60.35 22.05 60.5 22.4 60.5 22.2 60.4 22.15 60.2 21.95 60.25 21.8 Z"/>
</g>

<g id="Layer2_0_MEMBER_44_MEMBER_0_MEMBER_0_MEMBER_0_FILL">
<path fill="#000000" stroke="none" d="
M 74.55 34.6
L 74.55 34.5
Q 74.65 34.45 74.65 34.7 74.8 34.55 74.65 34.35
L 74.5 34.3
Q 74.4 34.3 74.4 34.5 74.4 34.7 74.55 34.6 Z"/>
</g>

<g id="Layer2_0_MEMBER_46_MEMBER_0_MEMBER_0_MEMBER_0_FILL">
<path fill="#000000" stroke="none" d="
M 72.15 35.5
Q 72.15 35.35 72.05 35.35 71.9 35.35 71.9 35.55 72.15 35.7 72.15 35.55 72.2 35.55 72.15 35.5 Z"/>
</g>

<g id="Layer2_0_MEMBER_47_MEMBER_0_MEMBER_0_MEMBER_0_FILL">
<path fill="#000000" stroke="none" d="
M 51 23.75
L 51.25 23.75 51.4 23.4 51.25 23.25 51.15 23.5 51.15 23.65 51 23.65 51 23.75 Z"/>
</g>

<g id="Layer2_0_MEMBER_48_MEMBER_0_MEMBER_0_MEMBER_0_FILL">
<path fill="#000000" stroke="none" d="
M 68.9 27.9
Q 68.9 28.15 69.05 28.15
L 69.3 27.9
Q 68.95 27.85 68.9 27.9 Z"/>
</g>

<g id="Layer2_0_MEMBER_49_MEMBER_0_MEMBER_0_MEMBER_0_FILL">
<path fill="#000000" stroke="none" d="
M 37.75 17.9
L 37.95 18 38.25 17.9
Q 38.1 17.75 37.95 17.75
L 37.75 17.9 Z"/>
</g>

<g id="Layer2_0_MEMBER_50_MEMBER_0_MEMBER_0_MEMBER_0_FILL">
<path fill="#000000" stroke="none" d="
M 35.5 18.55
Q 35.55 18.5 35.45 18.4
L 35.2 18.4 35.15 18.5 35.3 18.65
Q 35.5 18.65 35.5 18.55 Z"/>
</g>

<g id="Layer2_0_MEMBER_51_MEMBER_0_MEMBER_0_MEMBER_0_FILL">
<path fill="#000000" stroke="none" d="
M 36.8 18.8
L 36.65 18.9
Q 36.9 19 36.8 19.15
L 36.8 19.25
Q 37 19.2 37 19.05 37 18.95 36.8 18.8 Z"/>
</g>

<g id="Layer2_0_MEMBER_52_MEMBER_0_MEMBER_0_MEMBER_0_FILL">
<path fill="#000000" stroke="none" d="
M 41.9 66.7
L 42 66.75
Q 42.05 66.6 41.9 66.35
L 41.75 66.6 41.9 66.7 Z"/>
</g>

<g id="Layer2_0_MEMBER_53_MEMBER_0_MEMBER_0_MEMBER_0_FILL">
<path fill="#000000" stroke="none" d="
M 49.75 12.2
Q 49.95 12.05 49.8 11.9
L 49.65 11.9 49.75 12.2 Z"/>
</g>

<g id="Layer2_0_MEMBER_54_MEMBER_0_MEMBER_0_MEMBER_0_FILL">
<path fill="#000000" stroke="none" d="
M 29.85 54.05
L 29.7 54.25
Q 29.95 54.35 30 54.05
L 29.85 54.05 Z"/>
</g>

<g id="Layer2_0_MEMBER_55_MEMBER_0_MEMBER_0_MEMBER_0_FILL">
<path fill="#000000" stroke="none" d="
M 23 40.75
L 23.1 40.85 23.25 40.85 23.25 40.75 23.1 40.7
Q 22.95 40.45 22.85 40.75
L 23 40.75 Z"/>
</g>

<g id="Layer2_0_MEMBER_56_MEMBER_0_MEMBER_0_MEMBER_0_FILL">
<path fill="#000000" stroke="none" d="
M 32.45 19.9
Q 32.45 19.65 32.25 19.65
L 32.25 20 32.45 19.9 Z"/>
</g>

<g id="Layer2_0_MEMBER_57_MEMBER_0_MEMBER_0_MEMBER_0_FILL">
<path fill="#000000" stroke="none" d="
M 54.45 23.65
L 54.2 23.4 54.25 23.9 54.45 23.65 Z"/>
</g>

<g id="Layer2_0_MEMBER_58_MEMBER_0_MEMBER_0_MEMBER_0_FILL">
<path fill="#000000" stroke="none" d="
M 28.1 24.25
L 28.1 24.4 28.45 24.4 28.2 24.15 28.1 24.25 Z"/>
</g>

<g id="Layer2_0_MEMBER_59_MEMBER_0_MEMBER_0_MEMBER_0_FILL">
<path fill="#000000" stroke="none" d="
M 29.85 54.75
L 30 54.85
Q 30.15 54.7 30.1 54.5
L 29.85 54.75 Z"/>
</g>

<g id="Layer2_0_MEMBER_60_MEMBER_0_MEMBER_0_MEMBER_0_FILL">
<path fill="#000000" stroke="none" d="
M 28.5 33.8
Q 28.5 34.1 28.75 33.95
L 28.85 33.75 28.5 33.8 Z"/>
</g>

<g id="Layer2_0_MEMBER_61_MEMBER_0_MEMBER_0_MEMBER_0_FILL">
<path fill="#000000" stroke="none" d="
M 29.25 33.75
L 29.35 33.8 29.45 33.7 29.1 33.5
Q 29.1 33.7 29.25 33.75 Z"/>
</g>

<g id="Layer2_0_MEMBER_62_MEMBER_0_MEMBER_0_MEMBER_0_FILL">
<path fill="#000000" stroke="none" d="
M 48.2 19.65
Q 48.2 19.9 48.45 19.75
L 48.25 19.5
Q 48.05 19.5 48.2 19.65 Z"/>
</g>

<g id="Layer2_0_MEMBER_63_MEMBER_0_MEMBER_0_MEMBER_0_FILL">
<path fill="#000000" stroke="none" d="
M 41.45 88
Q 41.5 88.3 41.7 88.2
L 41.7 87.95 41.45 88 Z"/>
</g>

<g id="Layer2_0_MEMBER_64_MEMBER_0_MEMBER_0_MEMBER_0_FILL">
<path fill="#000000" stroke="none" d="
M 57.75 21.15
L 58 21.25 57.9 20.65 57.75 21.15 Z"/>
</g>

<g id="Layer2_0_MEMBER_65_MEMBER_0_MEMBER_0_MEMBER_0_FILL">
<path fill="#000000" stroke="none" d="
M 32.5 27.15
Q 32.35 27.15 32.25 27.25
L 32.45 27.4 32.5 27.15 Z"/>
</g>

<g id="Layer2_0_MEMBER_66_MEMBER_0_MEMBER_0_MEMBER_0_FILL">
<path fill="#000000" stroke="none" d="
M 28.25 39
Q 28.25 39.1 28.35 39.1
L 28.6 38.8 28.35 38.85 28.25 39 Z"/>
</g>

<g id="Layer2_0_MEMBER_67_MEMBER_0_MEMBER_0_MEMBER_0_FILL">
<path fill="#000000" stroke="none" d="
M 51.95 19.5
Q 51.95 19.25 51.8 19.25
L 51.75 19.5 51.75 19.55 51.95 19.5 Z"/>
</g>

<g id="Layer2_0_MEMBER_68_MEMBER_0_MEMBER_0_MEMBER_0_FILL">
<path fill="#000000" stroke="none" d="
M 31.95 20.65
Q 32 20.5 31.85 20.5
L 31.75 20.9
Q 31.95 20.9 31.95 20.65 Z"/>
</g>

<g id="Layer2_0_MEMBER_69_MEMBER_0_MEMBER_0_MEMBER_0_FILL">
<path fill="#000000" stroke="none" d="
M 45.15 15.5
Q 45.15 15.65 45.25 15.65
L 45.45 15.45 45.4 15.4 45.25 15.45 45.15 15.5 Z"/>
</g>

<g id="Layer2_0_MEMBER_70_MEMBER_0_MEMBER_0_MEMBER_0_FILL">
<path fill="#000000" stroke="none" d="
M 55.5 80.6
L 55.5 80.7 55.4 80.7
Q 55.4 80.95 55.65 80.85 55.65 80.6 55.5 80.6 Z"/>
</g>

<g id="Layer2_0_MEMBER_71_MEMBER_0_MEMBER_0_MEMBER_0_FILL">
<path fill="#000000" stroke="none" d="
M 62.5 22.9
L 62.75 23.05 62.9 22.9 62.5 22.9 Z"/>
</g>

<g id="Layer2_0_MEMBER_72_MEMBER_0_MEMBER_0_MEMBER_0_FILL">
<path fill="#000000" stroke="none" d="
M 35.75 18.9
L 35.75 19.15 36 19.05 36 18.9 35.9 19 35.75 18.9 Z"/>
</g>

<g id="Layer2_0_MEMBER_73_MEMBER_0_MEMBER_0_MEMBER_0_FILL">
<path fill="#000000" stroke="none" d="
M 37.5 17.4
L 37.7 17.4 37.75 17.15 37.7 17.15 37.5 17.25 37.5 17.4 Z"/>
</g>

<g id="Layer2_0_MEMBER_74_MEMBER_0_MEMBER_0_MEMBER_0_FILL">
<path fill="#000000" stroke="none" d="
M 20.75 67.2
L 20.7 67
Q 20.5 67 20.5 67.2
L 20.75 67.2 Z"/>
</g>

<g id="Layer2_0_MEMBER_75_MEMBER_0_MEMBER_0_MEMBER_0_FILL">
<path fill="#000000" stroke="none" d="
M 24.6 35.25
L 24.45 35.1 24.35 35.25 24.6 35.25 Z"/>
</g>

<g id="Layer2_0_MEMBER_76_MEMBER_0_MEMBER_0_MEMBER_0_FILL">
<path fill="#000000" stroke="none" d="
M 30 21
Q 30.2 21 30.1 20.75
L 29.85 20.9 30 21 Z"/>
</g>

<g id="Layer2_0_MEMBER_77_MEMBER_0_MEMBER_0_MEMBER_0_FILL">
<path fill="#000000" stroke="none" d="
M 42.5 75.45
L 42.5 75.35
Q 42.4 75.5 42.5 75.6 42.65 75.55 42.5 75.45 Z"/>
</g>

<g id="Layer2_0_MEMBER_78_MEMBER_0_MEMBER_0_MEMBER_0_FILL">
<path fill="#000000" stroke="none" d="
M 46.45 17.25
Q 46.5 17.4 46.75 17.4
L 46.75 17.25
Q 46.65 17.35 46.65 17.25
L 46.45 17.25 Z"/>
</g>

<g id="Layer2_0_MEMBER_79_MEMBER_0_MEMBER_0_MEMBER_0_FILL">
<path fill="#000000" stroke="none" d="
M 35.5 15
L 35.65 14.9 35.5 14.75 35.45 14.9 35.5 15 Z"/>
</g>

<g id="Layer2_0_MEMBER_80_MEMBER_0_MEMBER_0_MEMBER_0_FILL">
<path fill="#000000" stroke="none" d="
M 22.75 39.7
L 22.75 39.6
Q 22.6 39.6 22.6 39.75 22.75 39.75 22.75 39.7 Z"/>
</g>

<g id="Layer2_0_MEMBER_81_MEMBER_0_MEMBER_0_MEMBER_0_FILL">
<path fill="#000000" stroke="none" d="
M 51.45 23.3
L 51.45 23.25 51.4 23.4
Q 51.6 23.4 51.65 23.25 51.5 23.2 51.45 23.3 Z"/>
</g>

<g id="Layer2_0_MEMBER_83_MEMBER_0_MEMBER_0_MEMBER_0_FILL">
<path fill="#000000" stroke="none" d="
M 31 20.05
L 30.95 20.3 31.1 20.4 31 20.05 Z"/>
</g>

<g id="Layer2_0_MEMBER_85_MEMBER_0_MEMBER_0_MEMBER_0_FILL">
<path fill="#000000" stroke="none" d="
M 28.85 22.75
L 28.7 22.65
Q 28.55 22.8 28.7 22.9
L 28.85 22.75 Z"/>
</g>

<g id="Layer2_0_MEMBER_86_MEMBER_0_MEMBER_0_MEMBER_0_FILL">
<path fill="#000000" stroke="none" d="
M 26.45 50.1
Q 26.35 50.1 26.35 50 26.2 50 26.2 50.1
L 26.35 50.2 26.45 50.1 Z"/>
</g>

<g id="Layer2_0_MEMBER_87_MEMBER_0_MEMBER_0_MEMBER_0_FILL">
<path fill="#000000" stroke="none" d="
M 27.2 37.55
L 27.1 37.5 27 37.5
Q 27.05 37.7 27.2 37.55 Z"/>
</g>

<g id="Layer2_0_MEMBER_88_MEMBER_0_MEMBER_0_MEMBER_0_FILL">
<path fill="#000000" stroke="none" d="
M 39.7 68.7
Q 39.85 68.7 39.75 68.45
L 39.65 68.6 39.7 68.7 Z"/>
</g>

<g id="Layer2_0_MEMBER_89_MEMBER_0_MEMBER_0_MEMBER_0_FILL">
<path fill="#000000" stroke="none" d="
M 46.95 18.5
L 47 18.65
Q 47.05 18.7 47.05 18.5
L 46.95 18.5 Z"/>
</g>

<g id="Layer2_0_MEMBER_91_MEMBER_0_MEMBER_0_MEMBER_0_FILL">
<path fill="#000000" stroke="none" d="
M 29.5 53.8
L 29.45 53.95 29.6 54
Q 29.6 53.8 29.5 53.8 Z"/>
</g>

<g id="Layer2_0_MEMBER_94_MEMBER_0_MEMBER_0_MEMBER_0_FILL">
<path fill="#000000" stroke="none" d="
M 33.7 15.65
L 33.8 15.5 33.65 15.45
Q 33.6 15.65 33.7 15.65 Z"/>
</g>

<g id="Layer2_0_MEMBER_95_MEMBER_0_MEMBER_0_MEMBER_0_FILL">
<path fill="#000000" stroke="none" d="
M 55.65 22.15
L 55.7 22.25
Q 55.75 22.3 55.75 22.15
L 55.65 22.15 Z"/>
</g>

<g id="Layer2_0_MEMBER_96_MEMBER_0_MEMBER_0_MEMBER_0_FILL">
<path fill="#000000" stroke="none" d="
M 39.7 62.5
L 39.55 62.6 39.7 62.7 39.7 62.5 Z"/>
</g>

<g id="Layer2_0_MEMBER_100_MEMBER_0_MEMBER_0_MEMBER_0_FILL">
<path fill="#000000" stroke="none" d="
M 34.5 29.8
L 34.55 29.8 34.5 29.65 34.4 29.75 34.5 29.8 Z"/>
</g>

<g id="Layer2_0_MEMBER_101_MEMBER_0_MEMBER_0_MEMBER_0_FILL">
<path fill="#000000" stroke="none" d="
M 35 20.25
L 35 20.15 34.8 20.25
Q 34.95 20.4 35 20.25 Z"/>
</g>
</defs>

<g transform="matrix( 1, 0, 0, 1, 0,0) ">
<use xlink:href="#Layer2_0_MEMBER_0_MEMBER_0_MEMBER_0_MEMBER_0_FILL"/>
</g>

<g transform="matrix( 1, 0, 0, 1, 0,0) ">
<use xlink:href="#Layer2_0_MEMBER_1_MEMBER_0_MEMBER_0_MEMBER_0_FILL"/>
</g>

<g transform="matrix( 1, 0, 0, 1, 0,0) ">
<use xlink:href="#Layer2_0_MEMBER_2_MEMBER_0_MEMBER_0_MEMBER_0_FILL"/>
</g>

<g transform="matrix( 1, 0, 0, 1, 0,0) ">
<use xlink:href="#Layer2_0_MEMBER_3_MEMBER_0_MEMBER_0_MEMBER_0_FILL"/>
</g>

<g transform="matrix( 1, 0, 0, 1, 0,0) ">
<use xlink:href="#Layer2_0_MEMBER_4_MEMBER_0_MEMBER_0_MEMBER_0_FILL"/>
</g>

<g transform="matrix( 1, 0, 0, 1, 0,0) ">
<use xlink:href="#Layer2_0_MEMBER_5_MEMBER_0_MEMBER_0_MEMBER_0_FILL"/>
</g>

<g transform="matrix( 1, 0, 0, 1, 0,0) ">
<use xlink:href="#Layer2_0_MEMBER_6_MEMBER_0_MEMBER_0_MEMBER_0_FILL"/>
</g>

<g transform="matrix( 1, 0, 0, 1, 0,0) ">
<use xlink:href="#Layer2_0_MEMBER_7_MEMBER_0_MEMBER_0_MEMBER_0_FILL"/>
</g>

<g transform="matrix( 1, 0, 0, 1, 0,0) ">
<use xlink:href="#Layer2_0_MEMBER_8_MEMBER_0_MEMBER_0_MEMBER_0_FILL"/>
</g>

<g transform="matrix( 1, 0, 0, 1, 0,0) ">
<use xlink:href="#Layer2_0_MEMBER_9_MEMBER_0_MEMBER_0_MEMBER_0_FILL"/>
</g>

<g transform="matrix( 1, 0, 0, 1, 0,0) ">
<use xlink:href="#Layer2_0_MEMBER_10_MEMBER_0_MEMBER_0_MEMBER_0_FILL"/>
</g>

<g transform="matrix( 1, 0, 0, 1, 0,0) ">
<use xlink:href="#Layer2_0_MEMBER_11_MEMBER_0_MEMBER_0_MEMBER_0_FILL"/>
</g>

<g transform="matrix( 1, 0, 0, 1, 0,0) ">
<use xlink:href="#Layer2_0_MEMBER_12_MEMBER_0_MEMBER_0_MEMBER_0_FILL"/>
</g>

<g transform="matrix( 1, 0, 0, 1, 0,0) ">
<use xlink:href="#Layer2_0_MEMBER_13_MEMBER_0_MEMBER_0_MEMBER_0_FILL"/>
</g>

<g transform="matrix( 1, 0, 0, 1, 0,0) ">
<use xlink:href="#Layer2_0_MEMBER_14_MEMBER_0_MEMBER_0_MEMBER_0_FILL"/>
</g>

<g transform="matrix( 1, 0, 0, 1, 0,0) ">
<use xlink:href="#Layer2_0_MEMBER_15_MEMBER_0_MEMBER_0_MEMBER_0_FILL"/>
</g>

<g transform="matrix( 1, 0, 0, 1, 0,0) ">
<use xlink:href="#Layer2_0_MEMBER_16_MEMBER_0_MEMBER_0_MEMBER_0_FILL"/>
</g>

<g transform="matrix( 1, 0, 0, 1, 0,0) ">
<use xlink:href="#Layer2_0_MEMBER_17_MEMBER_0_MEMBER_0_MEMBER_0_FILL"/>
</g>

<g transform="matrix( 1, 0, 0, 1, 0,0) ">
<use xlink:href="#Layer2_0_MEMBER_18_MEMBER_0_MEMBER_0_MEMBER_0_FILL"/>
</g>

<g transform="matrix( 1, 0, 0, 1, 0,0) ">
<use xlink:href="#Layer2_0_MEMBER_19_MEMBER_0_MEMBER_0_MEMBER_0_FILL"/>
</g>

<g transform="matrix( 1, 0, 0, 1, 0,0) ">
<use xlink:href="#Layer2_0_MEMBER_20_MEMBER_0_MEMBER_0_MEMBER_0_FILL"/>
</g>

<g transform="matrix( 1, 0, 0, 1, 0,0) ">
<use xlink:href="#Layer2_0_MEMBER_21_MEMBER_0_MEMBER_0_MEMBER_0_FILL"/>
</g>

<g transform="matrix( 1, 0, 0, 1, 0,0) ">
<use xlink:href="#Layer2_0_MEMBER_22_MEMBER_0_MEMBER_0_MEMBER_0_FILL"/>
</g>

<g transform="matrix( 1, 0, 0, 1, 0,0) ">
<use xlink:href="#Layer2_0_MEMBER_23_MEMBER_0_MEMBER_0_MEMBER_0_FILL"/>
</g>

<g transform="matrix( 1, 0, 0, 1, 0,0) ">
<use xlink:href="#Layer2_0_MEMBER_24_MEMBER_0_MEMBER_0_MEMBER_0_FILL"/>
</g>

<g transform="matrix( 1, 0, 0, 1, 0,0) ">
<use xlink:href="#Layer2_0_MEMBER_25_MEMBER_0_MEMBER_0_MEMBER_0_FILL"/>
</g>

<g transform="matrix( 1, 0, 0, 1, 0,0) ">
<use xlink:href="#Layer2_0_MEMBER_26_MEMBER_0_MEMBER_0_MEMBER_0_FILL"/>
</g>

<g transform="matrix( 1, 0, 0, 1, 0,0) ">
<use xlink:href="#Layer2_0_MEMBER_27_MEMBER_0_MEMBER_0_MEMBER_0_FILL"/>
</g>

<g transform="matrix( 1, 0, 0, 1, 0,0) ">
<use xlink:href="#Layer2_0_MEMBER_28_MEMBER_0_MEMBER_0_MEMBER_0_FILL"/>
</g>

<g transform="matrix( 1, 0, 0, 1, 0,0) ">
<use xlink:href="#Layer2_0_MEMBER_29_MEMBER_0_MEMBER_0_MEMBER_0_FILL"/>
</g>

<g transform="matrix( 1, 0, 0, 1, 0,0) ">
<use xlink:href="#Layer2_0_MEMBER_30_MEMBER_0_MEMBER_0_MEMBER_0_FILL"/>
</g>

<g transform="matrix( 1, 0, 0, 1, 0,0) ">
<use xlink:href="#Layer2_0_MEMBER_31_MEMBER_0_MEMBER_0_MEMBER_0_FILL"/>
</g>

<g transform="matrix( 1, 0, 0, 1, 0,0) ">
<use xlink:href="#Layer2_0_MEMBER_32_MEMBER_0_MEMBER_0_MEMBER_0_FILL"/>
</g>

<g transform="matrix( 1, 0, 0, 1, 0,0) ">
<use xlink:href="#Layer2_0_MEMBER_33_MEMBER_0_MEMBER_0_MEMBER_0_FILL"/>
</g>

<g transform="matrix( 1, 0, 0, 1, 0,0) ">
<use xlink:href="#Layer2_0_MEMBER_34_MEMBER_0_MEMBER_0_MEMBER_0_FILL"/>
</g>

<g transform="matrix( 1, 0, 0, 1, 0,0) ">
<use xlink:href="#Layer2_0_MEMBER_35_MEMBER_0_MEMBER_0_MEMBER_0_FILL"/>
</g>

<g transform="matrix( 1, 0, 0, 1, 0,0) ">
<use xlink:href="#Layer2_0_MEMBER_36_MEMBER_0_MEMBER_0_MEMBER_0_FILL"/>
</g>

<g transform="matrix( 1, 0, 0, 1, 0,0) ">
<use xlink:href="#Layer2_0_MEMBER_37_MEMBER_0_MEMBER_0_MEMBER_0_FILL"/>
</g>

<g transform="matrix( 1, 0, 0, 1, 0,0) ">
<use xlink:href="#Layer2_0_MEMBER_38_MEMBER_0_MEMBER_0_MEMBER_0_FILL"/>
</g>

<g transform="matrix( 1, 0, 0, 1, 0,0) ">
<use xlink:href="#Layer2_0_MEMBER_39_MEMBER_0_MEMBER_0_MEMBER_0_FILL"/>
</g>

<g transform="matrix( 1, 0, 0, 1, 0,0) ">
<use xlink:href="#Layer2_0_MEMBER_40_MEMBER_0_MEMBER_0_MEMBER_0_FILL"/>
</g>

<g transform="matrix( 1, 0, 0, 1, 0,0) ">
<use xlink:href="#Layer2_0_MEMBER_41_MEMBER_0_MEMBER_0_MEMBER_0_FILL"/>
</g>

<g transform="matrix( 1, 0, 0, 1, 0,0) ">
<use xlink:href="#Layer2_0_MEMBER_42_MEMBER_0_MEMBER_0_MEMBER_0_FILL"/>
</g>

<g transform="matrix( 1, 0, 0, 1, 0,0) ">
<use xlink:href="#Layer2_0_MEMBER_43_MEMBER_0_MEMBER_0_MEMBER_0_FILL"/>
</g>

<g transform="matrix( 1, 0, 0, 1, 0,0) ">
<use xlink:href="#Layer2_0_MEMBER_44_MEMBER_0_MEMBER_0_MEMBER_0_FILL"/>
</g>

<g transform="matrix( 1, 0, 0, 1, 0,0) ">
<use xlink:href="#Layer2_0_MEMBER_46_MEMBER_0_MEMBER_0_MEMBER_0_FILL"/>
</g>

<g transform="matrix( 1, 0, 0, 1, 0,0) ">
<use xlink:href="#Layer2_0_MEMBER_47_MEMBER_0_MEMBER_0_MEMBER_0_FILL"/>
</g>

<g transform="matrix( 1, 0, 0, 1, 0,0) ">
<use xlink:href="#Layer2_0_MEMBER_48_MEMBER_0_MEMBER_0_MEMBER_0_FILL"/>
</g>

<g transform="matrix( 1, 0, 0, 1, 0,0) ">
<use xlink:href="#Layer2_0_MEMBER_49_MEMBER_0_MEMBER_0_MEMBER_0_FILL"/>
</g>

<g transform="matrix( 1, 0, 0, 1, 0,0) ">
<use xlink:href="#Layer2_0_MEMBER_50_MEMBER_0_MEMBER_0_MEMBER_0_FILL"/>
</g>

<g transform="matrix( 1, 0, 0, 1, 0,0) ">
<use xlink:href="#Layer2_0_MEMBER_51_MEMBER_0_MEMBER_0_MEMBER_0_FILL"/>
</g>

<g transform="matrix( 1, 0, 0, 1, 0,0) ">
<use xlink:href="#Layer2_0_MEMBER_52_MEMBER_0_MEMBER_0_MEMBER_0_FILL"/>
</g>

<g transform="matrix( 1, 0, 0, 1, 0,0) ">
<use xlink:href="#Layer2_0_MEMBER_53_MEMBER_0_MEMBER_0_MEMBER_0_FILL"/>
</g>

<g transform="matrix( 1, 0, 0, 1, 0,0) ">
<use xlink:href="#Layer2_0_MEMBER_54_MEMBER_0_MEMBER_0_MEMBER_0_FILL"/>
</g>

<g transform="matrix( 1, 0, 0, 1, 0,0) ">
<use xlink:href="#Layer2_0_MEMBER_55_MEMBER_0_MEMBER_0_MEMBER_0_FILL"/>
</g>

<g transform="matrix( 1, 0, 0, 1, 0,0) ">
<use xlink:href="#Layer2_0_MEMBER_56_MEMBER_0_MEMBER_0_MEMBER_0_FILL"/>
</g>

<g transform="matrix( 1, 0, 0, 1, 0,0) ">
<use xlink:href="#Layer2_0_MEMBER_57_MEMBER_0_MEMBER_0_MEMBER_0_FILL"/>
</g>

<g transform="matrix( 1, 0, 0, 1, 0,0) ">
<use xlink:href="#Layer2_0_MEMBER_58_MEMBER_0_MEMBER_0_MEMBER_0_FILL"/>
</g>

<g transform="matrix( 1, 0, 0, 1, 0,0) ">
<use xlink:href="#Layer2_0_MEMBER_59_MEMBER_0_MEMBER_0_MEMBER_0_FILL"/>
</g>

<g transform="matrix( 1, 0, 0, 1, 0,0) ">
<use xlink:href="#Layer2_0_MEMBER_60_MEMBER_0_MEMBER_0_MEMBER_0_FILL"/>
</g>

<g transform="matrix( 1, 0, 0, 1, 0,0) ">
<use xlink:href="#Layer2_0_MEMBER_61_MEMBER_0_MEMBER_0_MEMBER_0_FILL"/>
</g>

<g transform="matrix( 1, 0, 0, 1, 0,0) ">
<use xlink:href="#Layer2_0_MEMBER_62_MEMBER_0_MEMBER_0_MEMBER_0_FILL"/>
</g>

<g transform="matrix( 1, 0, 0, 1, 0,0) ">
<use xlink:href="#Layer2_0_MEMBER_63_MEMBER_0_MEMBER_0_MEMBER_0_FILL"/>
</g>

<g transform="matrix( 1, 0, 0, 1, 0,0) ">
<use xlink:href="#Layer2_0_MEMBER_64_MEMBER_0_MEMBER_0_MEMBER_0_FILL"/>
</g>

<g transform="matrix( 1, 0, 0, 1, 0,0) ">
<use xlink:href="#Layer2_0_MEMBER_65_MEMBER_0_MEMBER_0_MEMBER_0_FILL"/>
</g>

<g transform="matrix( 1, 0, 0, 1, 0,0) ">
<use xlink:href="#Layer2_0_MEMBER_66_MEMBER_0_MEMBER_0_MEMBER_0_FILL"/>
</g>

<g transform="matrix( 1, 0, 0, 1, 0,0) ">
<use xlink:href="#Layer2_0_MEMBER_67_MEMBER_0_MEMBER_0_MEMBER_0_FILL"/>
</g>

<g transform="matrix( 1, 0, 0, 1, 0,0) ">
<use xlink:href="#Layer2_0_MEMBER_68_MEMBER_0_MEMBER_0_MEMBER_0_FILL"/>
</g>

<g transform="matrix( 1, 0, 0, 1, 0,0) ">
<use xlink:href="#Layer2_0_MEMBER_69_MEMBER_0_MEMBER_0_MEMBER_0_FILL"/>
</g>

<g transform="matrix( 1, 0, 0, 1, 0,0) ">
<use xlink:href="#Layer2_0_MEMBER_70_MEMBER_0_MEMBER_0_MEMBER_0_FILL"/>
</g>

<g transform="matrix( 1, 0, 0, 1, 0,0) ">
<use xlink:href="#Layer2_0_MEMBER_71_MEMBER_0_MEMBER_0_MEMBER_0_FILL"/>
</g>

<g transform="matrix( 1, 0, 0, 1, 0,0) ">
<use xlink:href="#Layer2_0_MEMBER_72_MEMBER_0_MEMBER_0_MEMBER_0_FILL"/>
</g>

<g transform="matrix( 1, 0, 0, 1, 0,0) ">
<use xlink:href="#Layer2_0_MEMBER_73_MEMBER_0_MEMBER_0_MEMBER_0_FILL"/>
</g>

<g transform="matrix( 1, 0, 0, 1, 0,0) ">
<use xlink:href="#Layer2_0_MEMBER_74_MEMBER_0_MEMBER_0_MEMBER_0_FILL"/>
</g>

<g transform="matrix( 1, 0, 0, 1, 0,0) ">
<use xlink:href="#Layer2_0_MEMBER_75_MEMBER_0_MEMBER_0_MEMBER_0_FILL"/>
</g>

<g transform="matrix( 1, 0, 0, 1, 0,0) ">
<use xlink:href="#Layer2_0_MEMBER_76_MEMBER_0_MEMBER_0_MEMBER_0_FILL"/>
</g>

<g transform="matrix( 1, 0, 0, 1, 0,0) ">
<use xlink:href="#Layer2_0_MEMBER_77_MEMBER_0_MEMBER_0_MEMBER_0_FILL"/>
</g>

<g transform="matrix( 1, 0, 0, 1, 0,0) ">
<use xlink:href="#Layer2_0_MEMBER_78_MEMBER_0_MEMBER_0_MEMBER_0_FILL"/>
</g>

<g transform="matrix( 1, 0, 0, 1, 0,0) ">
<use xlink:href="#Layer2_0_MEMBER_79_MEMBER_0_MEMBER_0_MEMBER_0_FILL"/>
</g>

<g transform="matrix( 1, 0, 0, 1, 0,0) ">
<use xlink:href="#Layer2_0_MEMBER_80_MEMBER_0_MEMBER_0_MEMBER_0_FILL"/>
</g>

<g transform="matrix( 1, 0, 0, 1, 0,0) ">
<use xlink:href="#Layer2_0_MEMBER_81_MEMBER_0_MEMBER_0_MEMBER_0_FILL"/>
</g>

<g transform="matrix( 1, 0, 0, 1, 0,0) ">
<use xlink:href="#Layer2_0_MEMBER_83_MEMBER_0_MEMBER_0_MEMBER_0_FILL"/>
</g>

<g transform="matrix( 1, 0, 0, 1, 0,0) ">
<use xlink:href="#Layer2_0_MEMBER_85_MEMBER_0_MEMBER_0_MEMBER_0_FILL"/>
</g>

<g transform="matrix( 1, 0, 0, 1, 0,0) ">
<use xlink:href="#Layer2_0_MEMBER_86_MEMBER_0_MEMBER_0_MEMBER_0_FILL"/>
</g>

<g transform="matrix( 1, 0, 0, 1, 0,0) ">
<use xlink:href="#Layer2_0_MEMBER_87_MEMBER_0_MEMBER_0_MEMBER_0_FILL"/>
</g>

<g transform="matrix( 1, 0, 0, 1, 0,0) ">
<use xlink:href="#Layer2_0_MEMBER_88_MEMBER_0_MEMBER_0_MEMBER_0_FILL"/>
</g>

<g transform="matrix( 1, 0, 0, 1, 0,0) ">
<use xlink:href="#Layer2_0_MEMBER_89_MEMBER_0_MEMBER_0_MEMBER_0_FILL"/>
</g>

<g transform="matrix( 1, 0, 0, 1, 0,0) ">
<use xlink:href="#Layer2_0_MEMBER_91_MEMBER_0_MEMBER_0_MEMBER_0_FILL"/>
</g>

<g transform="matrix( 1, 0, 0, 1, 0,0) ">
<use xlink:href="#Layer2_0_MEMBER_94_MEMBER_0_MEMBER_0_MEMBER_0_FILL"/>
</g>

<g transform="matrix( 1, 0, 0, 1, 0,0) ">
<use xlink:href="#Layer2_0_MEMBER_95_MEMBER_0_MEMBER_0_MEMBER_0_FILL"/>
</g>

<g transform="matrix( 1, 0, 0, 1, 0,0) ">
<use xlink:href="#Layer2_0_MEMBER_96_MEMBER_0_MEMBER_0_MEMBER_0_FILL"/>
</g>

<g transform="matrix( 1, 0, 0, 1, 0,0) ">
<use xlink:href="#Layer2_0_MEMBER_100_MEMBER_0_MEMBER_0_MEMBER_0_FILL"/>
</g>

<g transform="matrix( 1, 0, 0, 1, 0,0) ">
<use xlink:href="#Layer2_0_MEMBER_101_MEMBER_0_MEMBER_0_MEMBER_0_FILL"/>
</g>
</svg>
