
<svg xmlns="http://www.w3.org/2000/svg" version="1.1" xmlns:xlink="http://www.w3.org/1999/xlink" preserveAspectRatio="none" x="0px" y="0px" width="100px" height="100px" viewBox="0 0 100 100">
<defs>
<g id="Layer2_0_MEMBER_0_MEMBER_0_MEMBER_0_MEMBER_0_FILL">
<path fill="#000000" stroke="none" d="
M 42.25 75.45
L 41.7 75.6 41.7 76.45
Q 42.25 75.75 42.25 75.45
M 33.75 83.95
Q 33.75 84.25 34 84.25 34.2 84.25 34.2 84 34.05 83.7 33.95 83.7 33.65 83.75 33.75 83.95
M 41.15 77.2
Q 41.4 77 41.5 76.6 40.75 76.9 40.55 77.45
L 41.15 77.2
M 40.25 78
L 40.45 78
Q 40.7 77.75 40.55 77.45
L 40.25 77.85 40.25 78
M 37.7 79.6
L 37.75 79.85 38 79.7 38.2 79.1
Q 37.7 79.4 37.7 79.6
M 36.45 76.35
L 36.5 76.5 36.55 76.75
Q 36.7 76.95 36.8 76.95 37.1 76.8 37 76.7
L 37 76.2 36.7 76.25
Q 36.45 76.25 36.45 76.35
M 53.2 15.85
Q 53.05 15.85 53.05 15.95 53.05 16.05 53.25 16.05
L 53.3 15.9 53.2 15.85
M 67.75 24.4
Q 66.05 23.6 63.7 23.3
L 61.75 23.15
Q 61 22.65 60.8 22.4 60.8 22.3 60.55 22.3 59.85 22.2 59.55 21.25 59.1 20.3 59.55 19.55 59.9 19.35 60 19.15 60 18.9 59.8 18.5 59.5 17.8 58.25 17.65
L 58.05 17.5
Q 57.95 17.4 57.75 17.4 57.6 17.35 57.55 17.4 57.5 17.25 57.25 17.25
L 57.05 17.25 56.95 17.15
Q 56.65 17 55.7 17.15 55.1 17.2 54.75 17.65
L 54.65 17.8 54.15 18.75 54.05 18.75
Q 53.9 18.9 53.9 19.05
L 53.75 19.4 53.5 19.55
Q 53.4 19.45 53.5 19.3 53.7 18.9 53.45 18.4 53.2 18.15 53 18.15 52.65 17.7 52.15 17.55 50.75 17 49.75 16.9
L 49.05 16.75
Q 47.7 16.4 46.15 16.65
L 45.55 16.8
Q 45.45 17.1 45.45 17.5
L 45.5 17.75
Q 45.4 17.95 45.75 18.15 46.1 18.5 45.75 18.8
L 44.75 19
Q 44.75 18.95 44.55 19 43.85 19.25 43.3 19.25 43.25 19.5 42.4 19.75
L 42.2 19.8
Q 41.6 19.95 41.25 20.75
L 40.55 21.75 40 22.8 39.25 22.9
Q 38.75 22.5 38.7 22.15
L 38.7 22
Q 37.85 21 37.5 20.75 37.35 20.35 36.75 19.9
L 36.25 19.65
Q 34.55 18.8 33.45 18.8
L 32.9 18.75
Q 32.45 18.7 32.15 18.9 31.05 19.3 30.25 19.9 29.65 20.3 29.25 20.65
L 28.25 21.5 28.2 21.5 28.1 21.65 27.75 21.9
Q 27.3 22.1 27.45 21.65 27.45 21.2 27.25 21 26.8 20.45 26.75 20.25 26.7 19.8 26.25 19.65
L 25 19.05
Q 24.2 18.75 23.6 18.75
L 23.5 18.75
Q 22.9 18.65 22.5 18.9 22.2 18.95 22.35 19.25
L 22.7 20.05
Q 23.9 21.65 24.5 22
L 25 22.25
Q 25.15 22.4 25.5 22.4
L 26.35 22.75
Q 26.65 22.9 26.5 23.15
L 26.1 23.65 25.75 24.25 25.75 24.3
Q 25.6 24.4 25.2 25.05
L 24.6 25.65
Q 24.25 26 23.85 25.9 23.55 25.85 23.2 25.4
L 23 25.15
Q 22.85 25.1 22.75 24.75
L 22.6 24.4
Q 22.15 23.85 21.7 23.75
L 20.85 23.4
Q 20.35 23.35 18.75 23.65 18.25 23.65 18 23.9
L 17.6 24.05
Q 17.4 24.05 17.2 24.25
L 16.5 25.25
Q 15.9 26.25 16 27.25
L 16.1 27.9
Q 15.95 28.35 16.5 29.5
L 16.6 29.65 16.75 29.8
Q 17.15 30.7 17.95 31.15
L 18 31.15 19.85 32
Q 20.25 32.25 20.25 32.7
L 20.25 33 19.5 35.3 19.45 36.05
Q 19.15 37.05 19 38.45 18.85 40.3 20.1 42.6
L 20.45 43.3
Q 20.5 43.3 20.5 43.5
L 20.6 43.5 20.6 43.6 20.75 43.75 20.75 43.8 20.85 43.95
Q 20.95 44.4 21.7 45.1
L 22 45.45 21.75 46.55 21.7 47
Q 21.5 47.6 21.5 48.55
L 21.5 48.6 21.45 49
Q 21.35 49.25 21.35 49.95
L 21.25 50
Q 21.05 49.9 21 50.25 20.65 51 20.85 51.55 20.9 52.2 21.35 52.25
L 21.45 52.3 21.6 52.45 21.6 52.6 22 53.05 22.25 53.95
Q 22.25 54.1 22.35 54.1 22.45 55.05 23 56.35 23 56.6 23.1 56.7
L 23.2 56.75
Q 23.2 56.95 23.35 57.1 23.35 57.3 23.45 57.3 23.3 57.45 23.5 57.55 23.5 57.65 23.75 58
L 23.85 58.45
Q 24.15 59.2 25.5 61.5
L 28.6 65.7 28.75 66.7
Q 28.9 67.4 29.1 67.6 29 67.7 29.1 67.85 29.6 68.5 29.6 69.1
L 29.7 69.2
Q 29.9 70.25 30.85 71.1 31.85 71.9 33.05 71.95 33.4 72.15 33.8 72
L 35.2 71.75
Q 35.3 71.85 35.55 71.85 36.1 71.65 36.9 71.6
L 37.4 71.45
Q 37.4 71.5 37.55 71.5 37.9 71.85 38.75 72.2 38.7 72.4 38.5 72.6 38.25 73.1 38.4 73.35 38.45 73.55 38.25 73.7 38.05 74.05 38.05 74.35
L 37.75 74.85 37.7 75.35
Q 37.6 75.55 37.7 75.6 37.9 75.9 37.9 76.2 37.75 76.3 37.75 76.7 37.65 76.7 37.65 76.85
L 37.45 77.2 37.4 77.7
Q 37.3 77.9 37 77.95
L 37 78
Q 37 78.5 36.55 78.5
L 36.45 78.7
Q 36.3 78.95 35.75 79.25
L 35.5 79.45
Q 35.45 79.6 35.55 79.7 35.75 79.75 35.75 79.6
L 36.25 79.1
Q 36.55 78.9 36.75 78.95 37.15 78.95 37.4 78.6
L 37.55 78.45
Q 38.05 78.35 38.05 78.1
L 38.25 78
Q 38.65 77.75 38.65 77.5
L 39 76.95 39.45 76.6
Q 39.8 76.1 40 75.95
L 40.15 75.6 40.4 75.6
Q 41.05 75.75 41.45 75.1 41.55 75 41.55 74.7
L 41.8 74.35 42 74.35
Q 42.45 74.3 42.45 74.7
L 42.3 75.45
Q 42.8 75.3 42.95 74.85
L 43.05 74.6 43.05 74.5 45 75.2
Q 45.85 75.55 46.4 75.45
L 47.05 75.85
Q 47.3 76.1 47.9 76.2
L 49.25 76.5 49.5 76.6 49.65 76.7
Q 50.05 76.85 51.15 76.85
L 51.9 76.95 52.45 76.95
Q 52.9 77.1 53.45 76.95
L 53.5 76.95
Q 53.65 77.1 53.95 76.95
L 54 76.95
Q 54.15 77.1 54.25 76.95 54.7 76.9 54.9 76.95 55.05 77.1 55.2 76.95
L 56.8 76.95 56.95 77.45
Q 57.25 77.75 57.7 77.7
L 58.45 77.7
Q 58.75 77.6 58.75 77.45 58.85 77.35 58.75 77.35 58.55 77.3 58.55 77.2
L 58.5 77.1 58.75 77.1
Q 58.75 76.95 59 76.95 59.1 77.35 59.25 77.25
L 59.75 77.35
Q 60.05 77.35 60.25 77.1 60.35 76.95 60.45 77.2 60.5 77.4 60.6 77.4 60.7 77.45 60.75 77.25
L 61.2 77.1
Q 61.9 77 62.5 76.5
L 64.4 75.2
Q 64.75 75.05 64.9 74.7
L 65 74.6
Q 65.2 74.5 65.25 74.35 65.65 74.2 65.65 73.85
L 65.9 73.7
Q 66.7 73.1 66.8 72.95 67.7 72.05 68 71.85 68.55 71.4 69 70.6
L 69.15 70.2
Q 69.4 70.1 69.5 69.85
L 69.9 69.2
Q 70.25 68.85 70.55 68.2
L 71.4 66.85 71.65 66.35
Q 72 66 72.05 65.7
L 72.75 64.7
Q 73.3 64.35 73.75 63.55 73.8 63.55 73.8 63.35 74.2 63 74.3 62.75
L 74.4 62.5
Q 74.5 62.45 75.25 61.35
L 75.3 61.25
Q 75.65 60.4 75.65 60.25
L 75.9 59.75
Q 76.15 59.4 76.15 59
L 76.4 58.5 76.4 58.45
Q 76.5 58.25 76.5 58
L 76.65 57.55
Q 76.85 57.3 76.9 56.7 77.3 55.9 77.8 53.75
L 77.9 53.6 78.15 51.7
Q 78.25 51 78.25 50.05
L 78.3 49.85 78.4 49 78.4 47.55
Q 78.4 46.9 78.3 46.7 78.15 46.55 78.3 46.45 78.35 46.2 78.3 46
L 78 44.5
Q 77.9 43.7 77.65 42.85
L 77.4 42
Q 77.25 41.05 76.9 40.7 76.9 40.15 76.8 40.05
L 76.55 39.6
Q 76.1 38.35 75.8 37.95
L 75.8 37.75 75.25 36.55 74.9 36.05 74.9 36
Q 74.85 35.25 74.65 35
L 74.55 34.85 74.65 34.7
Q 74.75 34.35 74.65 34.2
L 74.4 33.1
Q 74.25 32.6 74 32.55 73.65 32.15 73.4 32.05
L 73.15 31.25
Q 73.15 31.05 73 30.9 73 30.6 72.9 30.5 72.7 30 72.9 29.4 73.05 29.35 73.05 29.05 73.3 28.55 73 27.55 72.85 27.05 72 26.9
L 71.9 26.8
Q 70.75 26.4 70.3 26.05
L 70 25.75
Q 69.35 25.25 67.75 24.4
M 57.75 75.45
L 57.9 75.6 57.7 75.6 57.75 75.45
M 83.9 42.6
L 83.8 42.45
Q 83.5 41.75 83.05 41.75 82.1 41.6 81.9 42.25 81.5 43.5 82.55 44.25 82.75 44.45 82.8 44.35
L 83.15 44.2 83.3 44
Q 83.7 43.7 83.8 43.3
L 83.9 42.6 Z"/>
</g>
</defs>

<g transform="matrix( 1, 0, 0, 1, 0,0) ">
<use xlink:href="#Layer2_0_MEMBER_0_MEMBER_0_MEMBER_0_MEMBER_0_FILL"/>
</g>
</svg>
