
<svg xmlns="http://www.w3.org/2000/svg" version="1.1" xmlns:xlink="http://www.w3.org/1999/xlink" preserveAspectRatio="none" x="0px" y="0px" width="100px" height="100px" viewBox="0 0 100 100">
<defs>
<g id="Layer2_0_MEMBER_0_MEMBER_0_MEMBER_0_FILL">
<path fill="#000000" stroke="none" d="
M 20.65 65.95
Q 20.4 66.25 20.2 66.2 19.9 66.2 19.85 66.35 19.95 66.45 19.95 66.7 20.5 66.3 20.65 65.95 Z"/>
</g>

<g id="Layer2_0_MEMBER_0_MEMBER_0_MEMBER_1_FILL">
<path fill="#000000" stroke="none" d="
M 82.55 24.7
Q 82.15 24.45 81.95 24.45 81.5 24.25 80.9 24.25 80.2 24.35 79.8 24.35 78.85 24.8 78.65 25.55 78.2 26 78.1 26.75
L 78.3 27.2 78.3 27.3
Q 78.3 27.45 78.2 27.55
L 77.35 26.95 77.3 26.85 76.85 26.55 76.75 26.45 76.45 26.2
Q 76.4 26.05 76.1 25.85
L 76 25.75
Q 75.65 25.35 75.4 25.25 74.7 24.7 74.5 24.65 74.4 24.6 74.25 24.35
L 74 23.95 73.9 23.9
Q 73.85 23.7 73.35 22.95 73.6 22.45 73.25 22.2 72.75 21.85 72.35 22.2
L 72 21.95
Q 71 20.75 70.35 20.4 69.45 19.6 69.25 19.05 69.15 18.8 69 18.7
L 68.95 18.55 69.05 18.55
Q 69.85 18.55 69.95 18 70 17.5 69.45 17.25 69.15 17.2 68.9 17.45 68.65 17.75 68.5 17.85 67.45 16.7 66.45 16.2 66 16 65.8 15.85
L 65.5 15.75 64.9 15.45
Q 64.25 15.1 63.05 14.8
L 60.5 14.8
Q 60.05 14.7 59.5 14.8 58.85 14.95 58.5 15
L 56.5 15
Q 56.35 14.9 56.05 14.9
L 53.7 14.9
Q 53.15 14.9 53.05 15 51.2 15 49.55 15.75 49.3 15.85 49.25 15.95
L 48.35 16.45 47.6 16.45
Q 47.1 16.3 46.8 16.2 46.3 16 46 15.8 45.9 15.7 45.75 15.75 45 15.8 44.65 15.9 44 16.05 43.65 16.45 43.45 16.45 43.35 16.55 43 16.55 42.8 16.65
L 42.75 16.65
Q 42.6 16.6 41.85 16.85
L 40.55 17.05
Q 40.25 17.15 40.35 17.35 39.75 17.35 39.65 17.55
L 38.85 17.55
Q 37.45 18.15 36.8 18.7 36.45 18.85 36.25 19.1 35.55 19.4 34.25 20.2
L 32.95 21
Q 32.75 21 32.6 21.2 31.8 21.6 31.5 21.9
L 30.8 22.35
Q 30.4 22.55 29.3 23.3
L 29.05 23.4
Q 27.3 24.55 25.3 27.2 24.85 27.6 24.2 28.55 23.5 29.15 22.2 30.95 21.85 31.5 21.85 32.05 21.8 32.2 21.85 32.5 21.9 32.8 21.8 32.95
L 20.45 33.85
Q 20.05 34.15 19.85 34.5 18.85 35.45 18.45 36.4 18.4 36.45 17.75 37.35 17.55 37.35 17.55 37.6
L 17.2 38.15
Q 16.8 38.85 16.5 40.45
L 16.4 40.5
Q 16.35 40.9 16.2 41.6 16.05 41.7 16.2 41.9
L 16.1 42
Q 16.2 42.45 16.05 43.35 16.1 43.7 15.95 44.35 15.8 45 15.85 45.35 15.75 46.7 15.9 49.35 15.9 50.4 16.1 50.9 16.05 51.3 16.2 52
L 16.2 52.45
Q 16.35 53.05 16.55 54.2 16.35 54.4 16.65 54.7
L 17.2 56.45
Q 17.1 56.55 17.2 56.55
L 17.65 58 17.65 58.2
Q 17.4 58.7 18 59.2
L 18.2 59.55
Q 18.6 60.75 18.95 61.3 19 62.55 20.3 63.3 20.4 63.35 20.5 63.55 20.6 63.75 20.75 63.8 20.75 64.1 21.2 64.6
L 21.65 65.2 22.05 65.6 22.75 66.5
Q 22.8 66.8 23.15 67.4 23.5 68.2 24.7 69.8
L 26.3 72.45
Q 27 73.6 27.8 74.15 28.05 74.45 28.55 74.75 28.85 74.9 29.4 75.15
L 30 75.7
Q 30.3 75.85 29.95 76 29.45 76.25 28.95 76.7 28.55 77 28.65 77.3 29 78.15 29.35 78.25 30.25 78.6 30.75 77.9 31.3 77.15 31.15 76.65 31.6 76.85 31.55 77.1 31.55 77.3 31.6 77.25 31.75 77.1 31.9 77.25 32.1 77.35 32.15 77.35
L 33 78.05
Q 33.15 78.2 33.6 78.3 33.65 78.5 33.9 78.5 34.1 78.5 34.65 78.55 35.1 78.6 35.35 78.55
L 35.6 78.8 35.7 79.05 35.7 79.2
Q 35.8 79.3 35.9 79.45
L 35.95 79.55
Q 36.1 79.85 36.15 79.85 36.35 80.2 36.9 80.7
L 37.25 81.3
Q 37.4 81.35 37.7 81.55 37.95 81.8 38.15 81.8 40.1 82.5 41.65 82.8 42.25 83.05 42.45 82.95
L 42.75 83 43.2 83
Q 43.3 83.05 43.55 83.1 43.75 83.15 43.85 83.25 44.1 83.5 44.35 83.2
L 45.95 83.35
Q 46.2 83.25 46.65 83.35 47.1 83.4 47.3 83.35 47.4 83.4 47.65 83.25
L 48.1 83.25
Q 48.4 83.3 48.65 83.25
L 48.85 83.25 49.65 83.1
Q 50.05 83.25 50.2 83.15 50.75 82.95 51.5 83.05 52.05 83.15 52.4 82.85 54.15 82.5 54.5 82.35
L 54.6 82.3 54.8 82.3 55.3 82.2
Q 55.8 82.2 55.95 82 56 81.9 56.15 81.9
L 56.3 81.9 56.55 81.85 56.6 81.8
Q 56.75 81.85 56.85 81.8
L 57.85 81.55
Q 58.85 81.25 60.85 80.7 61.2 80.7 61.8 80.35
L 62.05 80.35
Q 62.45 80.3 63.25 80 63.3 79.95 64.25 79.7 63.8 80.55 64.65 81.35 64.75 81.65 65.25 81.65
L 65.45 81.7
Q 66.25 81.8 66.65 81.95 67.15 82.15 67.45 82.05
L 67.55 82
Q 68.15 81.65 68.8 81.65 69.7 81.65 69.8 80.6 69.85 79.75 68.9 79.15 67.7 78.65 67.35 78.7
L 67.15 78.65
Q 67.8 78.4 68.1 78.15 68.7 78.15 68.9 77.8 69.9 77.5 70.25 77.1 70.95 76.9 71.15 76.6 71.8 76.55 72.75 75.7
L 73.1 75.45 73.2 75.35 73.8 75
Q 74.4 74.6 75.2 73.55
L 76.1 72.7 76.85 73.15
Q 76.3 73.25 76.1 73.4 75.6 73.7 75.65 74 75.45 74.4 75.65 74.7 76.2 75.85 77 76.2 77.35 76.5 77.85 76.25
L 78.55 76
Q 78.8 76 78.75 76.15 78.6 76.3 78.65 76.35
L 78.6 76.45
Q 78.5 76.85 78.75 77.45
L 79 77.75
Q 79.4 78.4 80.55 79 81.25 79.3 82.1 78.65 82.35 78.6 82.5 78.35 83 77.25 82.5 76.4 82 75.6 80.85 75.6 80.3 75.6 80.2 75.5 80.5 75.2 80.45 74.9 80.45 74.6 80.6 74.2 81 73.35 80.3 73 79.9 72.75 79.9 72.45 79.95 72.2 79.65 72.1 79.4 72.05 79.25 72.25 79 72.5 79.15 72.7 79.4 72.9 79.2 73.35
L 79.15 73.5 78.55 73.55
Q 78.3 73.3 78.2 73.3
L 78.1 73.15 78.45 72.95
Q 78.65 72.85 78.8 72.6 78.9 72.45 79 72.1 79.55 71.65 79.4 70.85 79.35 70.55 79.05 70.35 78.7 70.15 78.55 70
L 79.6 68.9
Q 79.95 68.4 80.7 67.5 80.95 67.25 81.15 66.55 81.75 65.65 81.8 64.65
L 82.2 63.4 82.4 63
Q 82.5 62.8 82.45 62.6 82.65 62.4 82.75 62
L 82.9 61.4
Q 83.05 61.3 83.05 61 83.1 60.7 83.2 60.55 83.4 60.55 83.5 60.25
L 83.55 59.95 83.6 59.8
Q 84.55 57.45 84.7 56.3 84.65 56.1 84.8 55.9 84.95 55.55 85.2 54.3 85.7 52.35 85.75 51.35 85.95 48.15 85.75 46.9
L 85.75 46.7
Q 85.75 46.4 85.65 46.25
L 85.65 46 85.6 45.8 85.55 45.25
Q 85.6 45.1 85.5 44.9
L 85.45 44.8
Q 85.35 44.15 85.3 43.8
L 84.85 42
Q 84.65 41.5 84.6 41.25 84.15 39.6 83.3 38.55
L 83.2 37.95
Q 83.25 37.25 83.15 35.75 83.9 35.75 84.1 35.5 84.7 34.75 84.05 34.2 83.5 33.8 82.95 34.4
L 82.75 34.4 81.85 32.75 81.75 32.25
Q 81.6 32.1 81.75 32.05
L 81.95 32.1
Q 82.05 32.4 82.5 32.3 82.6 32.3 82.85 32.45 83.15 32.35 84.5 32.35 84.75 32.45 84.85 32.2 85.2 31.8 85.95 31.05 86.85 30.3 87 29.4 87.05 29.15 86.9 28 86.75 25.85 84.95 24.9 84.6 24.65 83.75 24.65 83.4 24.8 83.2 24.85 82.9 24.9 82.55 24.7
M 37.8 43.4
L 37.65 43.55 37.65 43.4 37.8 43.4 Z"/>
</g>

<g id="Layer2_0_MEMBER_0_MEMBER_0_MEMBER_2_FILL">
<path fill="#000000" stroke="none" d="
M 95.75 42.35
Q 96.45 41.25 95.25 40.6 94.95 40.25 94.15 40.6 93.85 41.1 93.8 41.35 93.7 41.7 93.85 42 94 42.35 94.7 42.5 95.35 42.7 95.65 42.45
L 95.75 42.35 Z"/>
</g>

<g id="Layer2_0_MEMBER_0_MEMBER_0_MEMBER_3_FILL">
<path fill="#000000" stroke="none" d="
M 86.1 39.15
Q 85.75 39.1 85.6 39.25 85 39.6 85.3 40.15 85.55 40.55 85.65 40.55 85.95 40.65 86.35 40.55 86.7 40.45 86.85 40.2 87 40 86.85 39.75 86.65 39.5 86.6 39.4 86.5 39.2 86.1 39.15 Z"/>
</g>

<g id="Layer2_0_MEMBER_0_MEMBER_0_MEMBER_4_FILL">
<path fill="#000000" stroke="none" d="
M 84.95 37.95
Q 85.6 38.5 86.05 38.05 86.3 37.9 86.15 37.35 86 36.8 85.35 36.8 84.85 36.8 84.75 37.45
L 84.95 37.95 Z"/>
</g>

<g id="Layer2_0_MEMBER_0_MEMBER_0_MEMBER_5_FILL">
<path fill="#000000" stroke="none" d="
M 88.3 46.25
Q 88.3 45.9 87.85 45.8 87.5 45.8 87.4 46.15 87.15 46.55 87.45 46.8 87.75 47 87.85 46.9 88.35 46.55 88.3 46.25 Z"/>
</g>

<g id="Layer2_0_MEMBER_0_MEMBER_0_MEMBER_6_FILL">
<path fill="#000000" stroke="none" d="
M 82.1 17.45
Q 81.25 17.8 81.1 18.1 80.85 18.4 80.95 19 81.2 19.55 81.45 19.65 82.55 20.15 83.5 19.9 84.05 19.8 84.6 18.75 84.75 18.15 84.45 17.6 84.1 17.05 83.35 17 82.6 16.95 82.1 17.45 Z"/>
</g>

<g id="Layer2_0_MEMBER_0_MEMBER_0_MEMBER_7_FILL">
<path fill="#000000" stroke="none" d="
M 24.15 75.3
Q 24.4 74.55 23.9 74.3 23.65 74.2 23.25 74.3 22.9 74.45 22.75 74.7 22.5 74.95 22.65 75.4 23.1 76.35 24.05 75.7 24.1 75.45 24.15 75.3 Z"/>
</g>

<g id="Layer2_0_MEMBER_0_MEMBER_0_MEMBER_8_FILL">
<path fill="#000000" stroke="none" d="
M 12.25 69.6
Q 12.2 69.5 11.8 69.35 11.45 69.25 11.35 69.05 11.25 69.05 11.15 69.15 11 69.25 10.9 69.25 10.4 69.4 10.35 69.5 10.25 69.6 10.25 69.9
L 10.2 70.15 10.25 70.25
Q 10.35 70.9 10.85 71.15 11.35 71.4 11.95 71.15 12.3 71 12.3 70.6
L 12.25 70.6
Q 12.55 70.35 12.4 69.85
L 12.3 69.7 12.25 69.6 Z"/>
</g>

<g id="Layer2_0_MEMBER_0_MEMBER_0_MEMBER_9_FILL">
<path fill="#000000" stroke="none" d="
M 25.95 77.85
Q 25.9 77.65 25.45 77.75
L 25.25 77.65
Q 24.6 77.25 24.55 77.3 24.35 77.4 23.85 77.5 23.4 77.55 23.2 77.7 23 77.75 22.6 77.8 22.2 78.55 21.85 78.65 21.75 78.75 21.75 79.1 21.05 79.45 20.65 80.7 20.55 81.2 20.7 81.9 20.85 82.3 21.05 83.1 21.2 83.85 21.7 84.25 22.8 85.1 23.2 85.2 24 85.45 24.7 85.1
L 25.15 84.9
Q 25.55 84.9 26.3 85.2 26.65 85.35 27.15 85.2 28.1 85.1 28.3 85
L 28.4 84.9
Q 29.4 84.35 29.5 83.55 30.05 82.95 29.8 82.2
L 29.7 82.1 29.6 81.75
Q 29.45 81.2 28.7 80.45 28.4 80.35 28.15 80 27.95 79.55 27.7 79.55
L 26.85 79.1 26.7 79
Q 26.6 78.95 26.35 78.7 26.15 78.45 25.95 78.45
L 25.85 78.35
Q 25.95 77.95 25.95 77.85 Z"/>
</g>

<g id="Layer2_0_MEMBER_0_MEMBER_0_MEMBER_10_FILL">
<path fill="#000000" stroke="none" d="
M 73.05 80.45
Q 72.85 79.95 72.15 80.25
L 72 80.45
Q 71.8 80.85 72.25 81.3 72.45 81.5 72.65 81.4 73.3 81.1 73.05 80.45 Z"/>
</g>

<g id="Layer2_0_MEMBER_0_MEMBER_0_MEMBER_11_FILL">
<path fill="#000000" stroke="none" d="
M 75.5 77.05
Q 75.5 76.75 75.15 76.75 74.95 76.7 74.8 77.1 74.8 77.55 75.1 77.55 75.5 77.45 75.5 77.05 Z"/>
</g>

<g id="Layer2_0_MEMBER_0_MEMBER_0_MEMBER_12_FILL">
<path fill="#000000" stroke="none" d="
M 81.45 69.75
Q 81.35 69.75 81.2 70 81.2 70.25 81.45 70.25 81.75 70.25 81.75 70.05 81.75 69.75 81.45 69.75 Z"/>
</g>

<g id="Layer2_0_MEMBER_0_MEMBER_0_MEMBER_13_FILL">
<path fill="#000000" stroke="none" d="
M 8.85 57.35
Q 9.3 57.35 9.4 56.75 9.45 56.35 9.2 55.95 9 55.6 8.65 55.6 8.4 55.55 8.1 55.85 7.85 56.1 7.8 56.4 7.8 56.75 8.15 57.05 8.5 57.4 8.85 57.35 Z"/>
</g>

<g id="Layer2_0_MEMBER_0_MEMBER_0_MEMBER_14_FILL">
<path fill="#000000" stroke="none" d="
M 16 55.55
Q 15.85 55.1 15.2 54.65 15.2 54.25 14.85 54.4 14.2 54.25 12.9 54.45 12.45 54.55 12.1 54.95 11.9 55.15 11.55 55.65 10.75 56.6 10.9 57.6 11 58.5 11.3 58.75 11.35 58.9 12.1 59.4 12.05 59.7 12.25 60.1
L 12.35 60.3
Q 12.8 60.9 13.2 61.2
L 13.35 61.3
Q 13.5 61.4 14 61.4 14.15 61.5 14.35 61.3 15.05 61.2 15.3 60.95
L 15.5 60.7 15.55 60.5
Q 16 60.05 16 59.2
L 16 58.95
Q 16.1 58.8 16.1 58.5 16.2 58.3 16.15 58 16.05 57.65 16 57.5 15.9 57.25 16 56.75 16.2 56 16 55.55 Z"/>
</g>

<g id="Layer2_0_MEMBER_0_MEMBER_0_MEMBER_15_FILL">
<path fill="#000000" stroke="none" d="
M 18.3 64.45
Q 18.4 63.9 17.9 63.95 17.4 64 17.4 64.55 17.4 65.05 17.9 65.05 18.3 65 18.3 64.45 Z"/>
</g>

<g id="Layer2_0_MEMBER_0_MEMBER_0_MEMBER_16_FILL">
<path fill="#000000" stroke="none" d="
M 10.2 62.55
Q 10.1 61.95 9.75 61.95 9.2 61.95 9.2 62.45 9.1 62.95 9.75 62.95 10.2 63.05 10.2 62.55 Z"/>
</g>

<g id="Layer2_0_MEMBER_0_MEMBER_0_MEMBER_17_FILL">
<path fill="#000000" stroke="none" d="
M 14.1 44
Q 14.1 44.75 14.8 44.9
L 15.3 44.7
Q 15.55 44.6 15.55 44.35 15.7 44.15 15.55 43.8 15.25 42.85 14.65 43.35 14.1 43.35 14.1 44 Z"/>
</g>

<g id="Layer2_0_MEMBER_0_MEMBER_0_MEMBER_18_FILL">
<path fill="#000000" stroke="none" d="
M 11.35 52.45
Q 11.1 52.7 11.25 53.2 11.8 53.65 12.15 53.35 12.6 53.05 12.25 52.55 11.9 52.1 11.35 52.45 Z"/>
</g>

<g id="Layer2_0_MEMBER_0_MEMBER_0_MEMBER_19_FILL">
<path fill="#000000" stroke="none" d="
M 9.65 50.8
L 9.5 50.45
Q 9 49.6 7.75 49.45 6.3 49.3 5.35 50.15 5 50.4 5 50.75 4.85 51.15 4.9 51.55 4.85 51.8 4.55 52.05 3.55 53.05 4.2 54.2 4.3 54.4 5.05 55 5.2 55.1 5.45 55.1
L 5.7 55.1
Q 6.5 55.1 6.9 54.75 7.65 54.5 7.7 54.45
L 8.25 54 8.45 53.75 8.55 53.65
Q 8.85 53.65 9 53.45
L 9.15 53.35
Q 9.55 53.25 9.8 52.7 10.05 52.25 9.95 51.75 9.9 51.7 9.65 50.9
L 9.65 50.8 Z"/>
</g>
</defs>

<g transform="matrix( 1, 0, 0, 1, 0,0) ">
<use xlink:href="#Layer2_0_MEMBER_0_MEMBER_0_MEMBER_0_FILL"/>
</g>

<g transform="matrix( 1, 0, 0, 1, 0,0) ">
<use xlink:href="#Layer2_0_MEMBER_0_MEMBER_0_MEMBER_1_FILL"/>
</g>

<g transform="matrix( 1, 0, 0, 1, 0,0) ">
<use xlink:href="#Layer2_0_MEMBER_0_MEMBER_0_MEMBER_2_FILL"/>
</g>

<g transform="matrix( 1, 0, 0, 1, 0,0) ">
<use xlink:href="#Layer2_0_MEMBER_0_MEMBER_0_MEMBER_3_FILL"/>
</g>

<g transform="matrix( 1, 0, 0, 1, 0,0) ">
<use xlink:href="#Layer2_0_MEMBER_0_MEMBER_0_MEMBER_4_FILL"/>
</g>

<g transform="matrix( 1, 0, 0, 1, 0,0) ">
<use xlink:href="#Layer2_0_MEMBER_0_MEMBER_0_MEMBER_5_FILL"/>
</g>

<g transform="matrix( 1, 0, 0, 1, 0,0) ">
<use xlink:href="#Layer2_0_MEMBER_0_MEMBER_0_MEMBER_6_FILL"/>
</g>

<g transform="matrix( 1, 0, 0, 1, 0,0) ">
<use xlink:href="#Layer2_0_MEMBER_0_MEMBER_0_MEMBER_7_FILL"/>
</g>

<g transform="matrix( 1, 0, 0, 1, 0,0) ">
<use xlink:href="#Layer2_0_MEMBER_0_MEMBER_0_MEMBER_8_FILL"/>
</g>

<g transform="matrix( 1, 0, 0, 1, 0,0) ">
<use xlink:href="#Layer2_0_MEMBER_0_MEMBER_0_MEMBER_9_FILL"/>
</g>

<g transform="matrix( 1, 0, 0, 1, 0,0) ">
<use xlink:href="#Layer2_0_MEMBER_0_MEMBER_0_MEMBER_10_FILL"/>
</g>

<g transform="matrix( 1, 0, 0, 1, 0,0) ">
<use xlink:href="#Layer2_0_MEMBER_0_MEMBER_0_MEMBER_11_FILL"/>
</g>

<g transform="matrix( 1, 0, 0, 1, 0,0) ">
<use xlink:href="#Layer2_0_MEMBER_0_MEMBER_0_MEMBER_12_FILL"/>
</g>

<g transform="matrix( 1, 0, 0, 1, 0,0) ">
<use xlink:href="#Layer2_0_MEMBER_0_MEMBER_0_MEMBER_13_FILL"/>
</g>

<g transform="matrix( 1, 0, 0, 1, 0,0) ">
<use xlink:href="#Layer2_0_MEMBER_0_MEMBER_0_MEMBER_14_FILL"/>
</g>

<g transform="matrix( 1, 0, 0, 1, 0,0) ">
<use xlink:href="#Layer2_0_MEMBER_0_MEMBER_0_MEMBER_15_FILL"/>
</g>

<g transform="matrix( 1, 0, 0, 1, 0,0) ">
<use xlink:href="#Layer2_0_MEMBER_0_MEMBER_0_MEMBER_16_FILL"/>
</g>

<g transform="matrix( 1, 0, 0, 1, 0,0) ">
<use xlink:href="#Layer2_0_MEMBER_0_MEMBER_0_MEMBER_17_FILL"/>
</g>

<g transform="matrix( 1, 0, 0, 1, 0,0) ">
<use xlink:href="#Layer2_0_MEMBER_0_MEMBER_0_MEMBER_18_FILL"/>
</g>

<g transform="matrix( 1, 0, 0, 1, 0,0) ">
<use xlink:href="#Layer2_0_MEMBER_0_MEMBER_0_MEMBER_19_FILL"/>
</g>
</svg>
