
<svg xmlns="http://www.w3.org/2000/svg" version="1.1" xmlns:xlink="http://www.w3.org/1999/xlink" preserveAspectRatio="none" x="0px" y="0px" width="100px" height="100px" viewBox="0 0 100 100">
<defs>
<g id="Layer2_0_MEMBER_0_MEMBER_0_MEMBER_0_FILL">
<path fill="#000000" stroke="none" d="
M 19.6 24.35
Q 19.3 22.8 17.55 22.65 17.35 22.5 17 22.6 16.5 22.7 15.75 23.55
L 15.55 23.65
Q 15.45 24.95 16 25.5 16.1 25.35 16.2 25.45 16.9 26.1 18.1 25.55 18.9 25.55 19.1 25.3 19.75 24.85 19.6 24.35 Z"/>
</g>

<g id="Layer2_0_MEMBER_0_MEMBER_0_MEMBER_1_FILL">
<path fill="#000000" stroke="none" d="
M 64.7 15.25
Q 65.6 13.55 64.35 12.85 63.95 12.6 63.15 12.8 62.8 12.9 62.5 13.25 62.2 13.65 62.15 14 62.05 14.85 62.75 15.4 62.85 15.5 63.1 15.6 63.25 15.7 63.15 15.8 63.05 15.95 62.85 15.85
L 62.55 15.6
Q 62.8 16.35 63.65 16.2 64.3 16.1 64.7 15.25 Z"/>
</g>

<g id="Layer2_0_MEMBER_0_MEMBER_0_MEMBER_2_FILL">
<path fill="#000000" stroke="none" d="
M 82.2 30.8
Q 82.3 30.55 82.1 30.2 81.45 29.1 80.2 29.95 79.75 30.4 79.55 30.6 79.2 31 79.1 31.4 79.05 31.65 78.75 31.75 78.25 32 78.35 32.65 78.4 33.7 79.75 34 80.7 34.25 81.75 33.2 82.25 32.7 82.2 32.2 82.05 31.55 82.2 30.8 Z"/>
</g>

<g id="Layer2_0_MEMBER_0_MEMBER_0_MEMBER_3_FILL">
<path fill="#000000" stroke="none" d="
M 88.5 26.55
Q 88.35 26.35 88.3 26.2 88.2 25.7 87.65 25.55 87.15 25.4 86.75 25.75 86.25 26.25 86.5 26.55 86.4 27 86.95 27.3 87.5 27.55 88.35 26.9 88.55 26.8 88.5 26.55 Z"/>
</g>

<g id="Layer2_0_MEMBER_0_MEMBER_0_MEMBER_4_FILL">
<path fill="#000000" stroke="none" d="
M 75.65 25.85
Q 74.9 25.85 74.9 26.65 74.9 27.45 75.6 27.45 75.9 27.45 76.15 27.2 76.4 26.95 76.35 26.65 76.35 26.4 76.1 26.15 75.9 25.9 75.65 25.85 Z"/>
</g>

<g id="Layer2_0_MEMBER_0_MEMBER_0_MEMBER_5_FILL">
<path fill="#000000" stroke="none" d="
M 76.05 28.55
Q 75.4 28.55 75.4 29.3 75.4 29.85 76.05 29.95 76.8 29.95 76.8 29.3 76.8 28.65 76.05 28.55 Z"/>
</g>

<g id="Layer2_0_MEMBER_0_MEMBER_0_MEMBER_6_FILL">
<path fill="#000000" stroke="none" d="
M 77.8 30.25
Q 78 30.5 78.2 30.5 78.65 30.45 78.75 30 78.75 29.4 78.1 29.4 77.6 29.35 77.6 29.85 77.55 30 77.8 30.25 Z"/>
</g>

<g id="Layer2_0_MEMBER_0_MEMBER_0_MEMBER_7_FILL">
<path fill="#000000" stroke="none" d="
M 71.8 84.55
Q 72.2 83.9 71.75 83.25 71.65 82.55 71.05 82.2 70.15 81.95 69.7 81.8 69.45 81.95 69.05 81.85 68.65 81.75 68.45 81.9
L 67.8 82.1
Q 67.1 82.2 66.8 81.9
L 66.65 81.85
Q 65.5 82.35 65.25 83 64.95 83.2 64.95 83.95 64.95 85 65.2 85.7 65.3 86.15 65.8 86.45 66.1 86.65 66.65 87 67.6 87.65 69.15 87.1 69.85 86.5 70 86.1 70.05 85.95 70.4 85.85 71.2 85.6 71.8 84.55 Z"/>
</g>

<g id="Layer2_0_MEMBER_0_MEMBER_0_MEMBER_8_FILL">
<path fill="#000000" stroke="none" d="
M 81.75 75.5
Q 83.05 74.2 81.75 73.2 81.15 72.75 80 73.15 79.5 73.2 79.3 73.4 78.75 73.75 78.65 73.9
L 78.3 74.05 78.1 74.05 77.85 74
Q 77.35 74.2 77.1 74.8 76.85 75.45 77.1 75.85 77.3 76.15 77.6 76.7 77.95 77.15 78.5 77.25 79.4 77.4 79.65 77.35 80.8 77.35 81.3 76.5 81.5 76.1 81.5 75.8
L 81.75 75.5 Z"/>
</g>

<g id="Layer2_0_MEMBER_0_MEMBER_0_MEMBER_9_FILL">
<path fill="#000000" stroke="none" d="
M 67.9 79.4
Q 67.8 80.05 68.15 80.25 68.7 80.55 69.15 80.15 69.55 79.75 69.9 79.7 70.2 79.6 70.3 79.05 70.35 78.9 70.1 78.8 69.7 78.5 69.45 78.6 69.1 78.6 69.3 78.35 69.45 77.95 69.05 77.85 68.55 77.75 68.5 78.2 68.5 78.45 68.4 78.5 68.1 78.65 67.9 79.4 Z"/>
</g>

<g id="Layer2_0_MEMBER_0_MEMBER_0_MEMBER_10_FILL">
<path fill="#000000" stroke="none" d="
M 59.75 81.55
Q 59.4 82.1 59.55 82.8 59.9 84.2 60.85 84.55 61.15 84.8 61.6 84.6 61.95 84.55 62.35 84.7 63.3 85.15 63.95 84.5 64.7 83.75 64.35 82.95
L 63.95 82.25
Q 64.65 81.85 64.5 81.35 64.4 81.15 64.7 81.15 64.95 81.1 65.15 80.8 65.35 80.55 65.35 80.25 65.3 79.75 64.75 79.85 64.05 79.95 63.95 80.5 63.95 80.75 63.85 80.8 63.55 80.9 63.25 81.55
L 62.5 81.2 62.4 81
Q 62.4 80.75 62.35 80.7 62.15 80.45 61.45 80.4 60.75 80.35 60.55 80.55 59.8 81.4 59.75 81.55 Z"/>
</g>

<g id="Layer2_0_MEMBER_0_MEMBER_0_MEMBER_11_FILL">
<path fill="#000000" stroke="none" d="
M 77.95 71.75
Q 77.95 72.5 78.55 72.5 78.8 72.45 79.05 72.25 79.3 72 79.3 71.8 79.25 71.55 78.95 71.3 78.65 71.05 78.45 71.1 78.25 71.1 78.1 71.3 77.9 71.55 77.95 71.75 Z"/>
</g>

<g id="Layer2_0_MEMBER_0_MEMBER_0_MEMBER_12_FILL">
<path fill="#000000" stroke="none" d="
M 81.1 41.05
Q 81.1 40.5 81.05 40.4 80.95 39.65 80.85 39.5 80.6 38.1 79.85 37.15 79.85 36.45 79.75 36.1 79.45 35.35 78.4 34.3
L 78.1 33.85
Q 77.55 33.25 77.2 33.05
L 77 32.85
Q 76.15 32.1 75.9 32 75.45 31.85 75.2 31.3 74.65 30.05 73.6 28.85 72.45 27.45 72.15 26.95 71.5 25.75 71.15 25.4
L 70.75 24.75 70.7 24.65
Q 71.95 24.55 72.55 24.85 72.75 25.05 73.1 25.05 73.6 25.2 73.65 25.2 73.95 25.2 74.1 24.8 74.1 24.75 74.25 24.75 74.45 24.6 74.95 24.4 75.35 24.15 75.3 23.65 75.75 23.2 75.75 21.95 76.05 21.15 75.35 20.4
L 74.45 19.25
Q 73.85 18.55 72.75 18.4 71.7 18.25 71.1 18.65 70.9 18.75 70.7 19 70.5 19.25 70.35 19.35
L 70 19.35 69.9 19.25
Q 69.7 18.6 68.95 18.5 68.25 18.4 67.7 18.9 67.05 19.55 66.9 20.45
L 65.3 19.8
Q 64.15 19.4 64.05 19.35 64.4 19.1 64.5 18.2 64.55 17.7 64.25 17.3 63.95 16.9 63.45 16.8
L 62.95 16.7
Q 62.15 16.05 61.4 17.1 61.35 17.1 61.3 17.3 61.3 17.45 61.2 17.5 60.55 16.4 59.7 16.35 59.3 16.35 59.1 16.45 58.85 16.6 58.4 16.5 57.55 16.2 56.9 17 56.65 17.25 56.55 17.2 56.3 17.05 56.35 16.8 56.5 16.3 56.05 15.05 55.7 14.25 54.8 14.1 54.1 13.95 53.45 14.5 52.75 15.05 52.85 15.7 52.95 16.65 53.2 17.1 52.9 17.1 52.3 16.9 51.3 16.65 50.45 16.65 50.15 16.6 49.95 16.6 49.65 16.55 49.45 16.7
L 48.35 16.55 48.15 16.55
Q 47.9 16.45 47.6 16.45 47.1 16.45 47 16.45
L 47 16.5 46.95 16.5 46.75 16.45 46.4 16.5
Q 45.9 16.6 45.75 16.55 45.6 16.45 45.5 16
L 45.4 15.6
Q 45.35 15.8 45.45 16.15 45.55 16.65 45.05 16.6 44.3 16.45 43.75 16.65 43.45 16.8 42.8 16.8
L 42.7 16.8
Q 42 16.55 41.65 16.45 41.65 15.25 41.45 14.65 41.25 13.9 40.35 13.55 39.45 13.25 38.75 13.6 38.2 13.9 37.75 14.55 37.25 15.35 37 15.7
L 35.6 15.8
Q 35.15 15.75 34.95 15.75 34.55 15.8 34.4 16.15 33.65 15.9 33.2 16
L 32.65 16.05
Q 31.45 16.05 31.05 16.35 31 16.45 30.75 16.45 30.15 16.5 29.9 16.55 29.4 16.65 29.15 17
L 28.95 17.15
Q 28.7 17.15 28.6 17.25 28.05 17.25 27.8 17.35 26.5 18.05 25.3 19.2 25.1 19.25 24.85 19.5 24.55 19.8 24.4 19.9 23.75 20.4 22.5 22.55 22.2 23.25 21.25 25.55 20.4 27.35 20.25 27.6 19.35 28.95 19.2 29.5 18.85 29.95 18.4 30.95 17.9 32.6 17.1 33.2 16.95 33.4 16.7 34.05 16.45 34.6 16.2 34.85 14.7 36.35 14.1 37.25
L 13.35 38.15
Q 12.85 38.65 12.65 39.25
L 12.5 39.45 11.65 42.6 11.65 42.95
Q 11.55 43.1 11.55 43.35 11.55 44 11.45 45.35
L 11.45 51.45
Q 11.55 52.5 11.75 53 11.9 54.65 12.8 55.9 12.8 56.1 12.9 56.2
L 13.1 56.55
Q 13.4 57.4 14.2 58.45
L 14.3 58.55
Q 14.3 59.6 14.1 61.7
L 14.15 61.95
Q 14.15 62.4 14.3 62.5 14.3 63 14.45 63.45
L 15.1 64.5 15.1 64.6
Q 16.05 66.45 16.45 66.95 16.95 67.6 17.1 67.7
L 18 68.45 21.1 71.95 21.45 72.45
Q 22.05 73.25 22.4 73.6
L 22.5 73.8 22.4 74.05
Q 22.2 74.35 22.45 74.6 22.65 74.85 22.95 74.7
L 23.3 74.6 23.5 74.65
Q 23.75 74.9 25.05 75.85
L 25.1 75.9 27.25 77.45
Q 27.35 77.6 28.4 78.1
L 29.05 78.45
Q 30.15 78.85 31.05 78.8
L 31.15 78.8
Q 31.5 79.15 32.3 79.55 32.35 79.75 32.2 79.9 31.45 81.05 32.25 82 32.45 82.85 32.8 83 33.1 83.3 33.6 83.3
L 33.95 83.1
Q 34.4 82.85 34.8 81.9 34.85 81.5 34.9 81.25
L 34.9 80.8 34.7 80 35.6 80
Q 36 80 36.05 79.9
L 36.1 79.9
Q 36.3 79.9 36.7 79.85 37.05 79.8 37.25 79.6 37.55 79.25 37.95 79.3 38.35 80.45 38.8 80.8 38.85 80.95 39.05 81.05 40.7 82 42.1 82.2 42.5 82.4 43.3 82.55 44.1 82.75 44.45 82.9
L 44.7 82.9
Q 45.5 83.4 47.4 83.3
L 47.45 83.35
Q 47.6 83.5 47.9 83.4
L 48.55 83.35 48.75 83.35
Q 49.05 83.2 49.65 83.3
L 49.85 83.3
Q 49.95 83.3 50.3 83.3 50.6 83.3 50.75 83.2 51.05 83.2 51.2 83.1 51.5 83.1 51.65 83
L 52.4 82.9
Q 52.7 82.95 52.95 82.8 55.15 81.85 55.6 81.45 56.2 81.1 57.3 80.2 58.8 79.5 59.4 79
L 59.75 78.8 60 78.7
Q 61.35 78 61.6 78 61.7 78.15 61.95 78 62.35 78 62.4 77.9 63.15 77.8 63.5 77.25
L 63.8 77.15
Q 64.4 76.95 64.7 76.65 65.9 75.9 66.45 75.45
L 66.5 75.35
Q 67.1 75.35 67.45 74.9 67.6 74.95 67.85 74.7
L 68.1 74.65
Q 68.25 74.65 68.2 74.85 68.2 75.05 68.3 75.05 68.45 75.15 68.55 74.95 68.7 74.85 68.55 74.7 68.35 74.55 68.5 74.35
L 69.35 73.8 70 73.5
Q 70.6 73.5 70.75 73.4 70.95 73.3 71 72.9 71.7 72.6 72.25 72.05
L 72.4 71.9
Q 72.55 71.9 72.55 71.8 73.1 71.25 73.1 71.15 74.5 69.15 75.1 68.1
L 76.35 66.25
Q 76.75 66.25 77 65.65 77.25 65.5 77.9 64.6 78.3 64.3 78.6 63.5 78.85 63.3 79.4 62.4 79.65 62.25 79.75 61.75
L 79.9 61.3
Q 79.85 61.15 80 59.8 80.3 58.45 80.2 57.75
L 80.2 57.65
Q 80.1 56.4 79.85 56.1
L 79.4 55.2
Q 79.35 54.9 79.55 54.4 80.3 53.2 80.3 52.65
L 80.45 51.9 80.45 51
Q 80.45 50 80.55 49.55
L 80.55 49.35 80.65 49.2 80.75 49.15 80.8 48.9
Q 81.3 47.85 81.3 47.25 81.4 47.25 81.45 47.05
L 81.45 47
Q 81.55 46.65 81.45 46.25
L 81.45 45.55
Q 81.55 45.1 81.35 44
L 81.35 43.5 81.1 41.05
M 76.8 47
L 76.55 47.05 76.6 46.85 76.8 47
M 71.4 53.15
L 71.55 53.2 71.4 53.3 71.4 53.15 Z"/>
</g>

<g id="Layer2_0_MEMBER_0_MEMBER_0_MEMBER_13_FILL">
<path fill="#000000" stroke="none" d="
M 78.05 67.45
Q 78.5 67.45 78.55 67.1 78.55 66.6 78.1 66.7 77.65 66.65 77.65 67.05 77.65 67.55 78.05 67.45 Z"/>
</g>

<g id="Layer2_0_MEMBER_0_MEMBER_0_MEMBER_14_FILL">
<path fill="#000000" stroke="none" d="
M 76.15 74.55
Q 76.2 74.3 75.9 74.2 75.85 74.6 75.75 74.65 75.65 74.75 75.25 74.65 75.45 74.95 75.8 74.9 76.1 74.85 76.15 74.55 Z"/>
</g>

<g id="Layer2_0_MEMBER_0_MEMBER_0_MEMBER_15_FILL">
<path fill="#000000" stroke="none" d="
M 60.8 79.15
Q 60.95 79.45 61.2 79.45 61.5 79.45 61.5 79.15 61.15 79.3 61 79.15 60.95 79.05 60.9 78.7 60.6 78.85 60.8 79.15 Z"/>
</g>

<g id="Layer2_0_MEMBER_0_MEMBER_0_MEMBER_16_FILL">
<path fill="#000000" stroke="none" d="
M 55.3 84.2
L 54.85 83.9
Q 54.45 83.9 54.15 84.15 53.85 84.35 53.8 84.7 53.75 84.9 54 85.2 54.25 85.45 54.45 85.5 54.9 85.6 55.3 85.2 55.8 84.7 55.3 84.2 Z"/>
</g>

<g id="Layer2_0_MEMBER_0_MEMBER_0_MEMBER_17_FILL">
<path fill="#000000" stroke="none" d="
M 22.5 81.85
Q 22.95 81.3 22.3 80.8 21.7 80.6 21.5 80.9 20.8 81.55 21.15 81.9 21.45 82.2 21.85 82.2 22.25 82.15 22.5 81.85 Z"/>
</g>

<g id="Layer2_0_MEMBER_0_MEMBER_0_MEMBER_18_FILL">
<path fill="#000000" stroke="none" d="
M 20.25 76.15
Q 20.2 75.8 19.8 75.8 19.45 75.8 19.45 76.05 19.55 76.5 19.9 76.5 20.15 76.5 20.25 76.15 Z"/>
</g>

<g id="Layer2_0_MEMBER_0_MEMBER_0_MEMBER_19_FILL">
<path fill="#000000" stroke="none" d="
M 18 16.55
Q 17.7 17.6 18.5 18.25 19.55 19 20.5 18.25
L 20.8 18.2
Q 21.85 17.95 21.95 17.15 21.95 16.85 21.6 16.45 21.3 16 20.95 15.9 19.95 15.25 18.95 15.55 18.35 15.75 18 16.55 Z"/>
</g>

<g id="Layer2_0_MEMBER_0_MEMBER_0_MEMBER_20_FILL">
<path fill="#000000" stroke="none" d="
M 34.2 15
Q 34.6 15.4 35 15.4 35.7 15.4 35.7 14.5 35.7 13.45 34.6 13.45 33.8 13.45 33.8 14.2 33.8 14.6 34.2 15 Z"/>
</g>
</defs>

<g transform="matrix( 1, 0, 0, 1, 0,0) ">
<use xlink:href="#Layer2_0_MEMBER_0_MEMBER_0_MEMBER_0_FILL"/>
</g>

<g transform="matrix( 1, 0, 0, 1, 0,0) ">
<use xlink:href="#Layer2_0_MEMBER_0_MEMBER_0_MEMBER_1_FILL"/>
</g>

<g transform="matrix( 1, 0, 0, 1, 0,0) ">
<use xlink:href="#Layer2_0_MEMBER_0_MEMBER_0_MEMBER_2_FILL"/>
</g>

<g transform="matrix( 1, 0, 0, 1, 0,0) ">
<use xlink:href="#Layer2_0_MEMBER_0_MEMBER_0_MEMBER_3_FILL"/>
</g>

<g transform="matrix( 1, 0, 0, 1, 0,0) ">
<use xlink:href="#Layer2_0_MEMBER_0_MEMBER_0_MEMBER_4_FILL"/>
</g>

<g transform="matrix( 1, 0, 0, 1, 0,0) ">
<use xlink:href="#Layer2_0_MEMBER_0_MEMBER_0_MEMBER_5_FILL"/>
</g>

<g transform="matrix( 1, 0, 0, 1, 0,0) ">
<use xlink:href="#Layer2_0_MEMBER_0_MEMBER_0_MEMBER_6_FILL"/>
</g>

<g transform="matrix( 1, 0, 0, 1, 0,0) ">
<use xlink:href="#Layer2_0_MEMBER_0_MEMBER_0_MEMBER_7_FILL"/>
</g>

<g transform="matrix( 1, 0, 0, 1, 0,0) ">
<use xlink:href="#Layer2_0_MEMBER_0_MEMBER_0_MEMBER_8_FILL"/>
</g>

<g transform="matrix( 1, 0, 0, 1, 0,0) ">
<use xlink:href="#Layer2_0_MEMBER_0_MEMBER_0_MEMBER_9_FILL"/>
</g>

<g transform="matrix( 1, 0, 0, 1, 0,0) ">
<use xlink:href="#Layer2_0_MEMBER_0_MEMBER_0_MEMBER_10_FILL"/>
</g>

<g transform="matrix( 1, 0, 0, 1, 0,0) ">
<use xlink:href="#Layer2_0_MEMBER_0_MEMBER_0_MEMBER_11_FILL"/>
</g>

<g transform="matrix( 1, 0, 0, 1, 0,0) ">
<use xlink:href="#Layer2_0_MEMBER_0_MEMBER_0_MEMBER_12_FILL"/>
</g>

<g transform="matrix( 1, 0, 0, 1, 0,0) ">
<use xlink:href="#Layer2_0_MEMBER_0_MEMBER_0_MEMBER_13_FILL"/>
</g>

<g transform="matrix( 1, 0, 0, 1, 0,0) ">
<use xlink:href="#Layer2_0_MEMBER_0_MEMBER_0_MEMBER_14_FILL"/>
</g>

<g transform="matrix( 1, 0, 0, 1, 0,0) ">
<use xlink:href="#Layer2_0_MEMBER_0_MEMBER_0_MEMBER_15_FILL"/>
</g>

<g transform="matrix( 1, 0, 0, 1, 0,0) ">
<use xlink:href="#Layer2_0_MEMBER_0_MEMBER_0_MEMBER_16_FILL"/>
</g>

<g transform="matrix( 1, 0, 0, 1, 0,0) ">
<use xlink:href="#Layer2_0_MEMBER_0_MEMBER_0_MEMBER_17_FILL"/>
</g>

<g transform="matrix( 1, 0, 0, 1, 0,0) ">
<use xlink:href="#Layer2_0_MEMBER_0_MEMBER_0_MEMBER_18_FILL"/>
</g>

<g transform="matrix( 1, 0, 0, 1, 0,0) ">
<use xlink:href="#Layer2_0_MEMBER_0_MEMBER_0_MEMBER_19_FILL"/>
</g>

<g transform="matrix( 1, 0, 0, 1, 0,0) ">
<use xlink:href="#Layer2_0_MEMBER_0_MEMBER_0_MEMBER_20_FILL"/>
</g>
</svg>
