
<svg xmlns="http://www.w3.org/2000/svg" version="1.1" xmlns:xlink="http://www.w3.org/1999/xlink" preserveAspectRatio="none" x="0px" y="0px" width="100px" height="100px" viewBox="0 0 100 100">
<defs>
<g id="Layer2_0_MEMBER_0_MEMBER_0_MEMBER_0_FILL">
<path fill="#000000" stroke="none" d="
M 40.7 16.7
Q 40.55 16.55 40.55 16.45 40.15 16 39.9 15.95 39.7 15.85 39.15 16
L 39 16.35
Q 38.75 16.9 38.8 17.15 38.85 17.4 39.3 17.75 39.6 18 39.8 18.6 39.9 18 40.2 17.85 41 17.6 40.75 16.85
L 40.7 16.7 Z"/>
</g>

<g id="Layer2_0_MEMBER_0_MEMBER_0_MEMBER_1_FILL">
<path fill="#000000" stroke="none" d="
M 50.6 14.25
Q 50.95 14.6 51.15 14.6 51.35 14.6 51.55 14.35 51.75 14.1 51.75 13.85 51.8 13.6 51.55 13.3 51.3 13.05 51 13 50.75 13 50.5 13.2 50.3 13.4 50.3 13.65 50.3 13.9 50.6 14.25 Z"/>
</g>

<g id="Layer2_0_MEMBER_0_MEMBER_0_MEMBER_2_FILL">
<path fill="#000000" stroke="none" d="
M 19.95 86.1
Q 19.9 85.65 19.45 85.65 19 85.65 19 86.15 19 86.35 19.15 86.45 19.3 86.6 19.45 86.55 19.95 86.55 19.95 86.1 Z"/>
</g>

<g id="Layer2_0_MEMBER_0_MEMBER_0_MEMBER_3_FILL">
<path fill="#000000" stroke="none" d="
M 47.3 17.1
Q 47.3 17.4 47.65 17.5 47.85 17.5 48.05 17.3 48.25 17.1 48.2 16.9 48.2 16.7 47.85 16.6 47.6 16.6 47.45 16.75 47.25 16.9 47.3 17.1 Z"/>
</g>

<g id="Layer2_0_MEMBER_0_MEMBER_0_MEMBER_4_FILL">
<path fill="#000000" stroke="none" d="
M 73.2 80.7
Q 73.2 80.45 72.85 80.35 72.4 80.35 72.3 80.8 72.25 81.1 72.65 81.1 73.15 81.1 73.2 80.7 Z"/>
</g>

<g id="Layer2_0_MEMBER_0_MEMBER_0_MEMBER_5_FILL">
<path fill="#000000" stroke="none" d="
M 70.2 79.6
Q 70.4 79.6 70.45 79.25
L 70.2 79.1
Q 69.95 79.1 69.95 79.3 69.95 79.5 70.2 79.6 Z"/>
</g>

<g id="Layer2_0_MEMBER_0_MEMBER_0_MEMBER_6_FILL">
<path fill="#000000" stroke="none" d="
M 32.6 83.75
Q 32.4 84 32.35 84.55 32.3 85.8 33.6 86.3 34 87.1 34.25 87.4 35 88.25 35.85 87.55 36.6 86.95 36.45 86.2 36.2 85.1 35.15 85.1 35.15 84.9 34.95 84.75 34.75 84.25 34.4 84.15 34.2 84.05 33.4 83.35 32.8 83.5 32.6 83.75 Z"/>
</g>

<g id="Layer2_0_MEMBER_0_MEMBER_0_MEMBER_7_FILL">
<path fill="#000000" stroke="none" d="
M 68.8 86
L 68.3 86.15
Q 68.15 86.3 68.15 86.65 68.15 87.45 69 88.05 69.45 88.55 70.2 88.2 70.85 87.7 70.85 87.3 70.85 86.85 70.25 86.3
L 70.05 86.15 69.35 86.15
Q 69.1 85.9 68.8 86 Z"/>
</g>

<g id="Layer2_0_MEMBER_0_MEMBER_0_MEMBER_8_FILL">
<path fill="#000000" stroke="none" d="
M 16.75 23
Q 16.8 23.3 17.4 23.8 17.7 23.9 18.3 24.05 18.75 24.15 19.15 24
L 19.35 23.8
Q 19.5 23.65 19.5 23.45 19.6 22.45 18.8 22.1 18.05 21.3 17.1 22.1 16.7 22.65 16.75 23 Z"/>
</g>

<g id="Layer2_0_MEMBER_0_MEMBER_0_MEMBER_9_FILL">
<path fill="#000000" stroke="none" d="
M 28.5 20.2
Q 28.4 20.7 27.85 21.55
L 27.65 21.9
Q 27 22.9 27.7 23.6 27.9 24.2 28.2 24.3 28.35 24.5 28.9 24.5 29.55 24.15 29.6 23.8
L 29.75 23.3
Q 29.9 23.1 29.9 22.2
L 29.9 22.1
Q 30 21.75 29.75 21.55 29.8 21.4 30.1 21.2 30.4 21 30.45 20.8 30.65 19.95 30 19.7 29.55 19.55 29.1 19.7 28.6 19.85 28.5 20.2 Z"/>
</g>

<g id="Layer2_0_MEMBER_0_MEMBER_0_MEMBER_10_FILL">
<path fill="#000000" stroke="none" d="
M 15 76.75
Q 14.6 76.45 13.95 76.65 13.4 76.8 13.45 77.4 13.55 78.1 14.2 78.15 14.95 78.2 15.15 77.45 15.2 77.1 15 76.75 Z"/>
</g>

<g id="Layer2_0_MEMBER_0_MEMBER_0_MEMBER_11_FILL">
<path fill="#000000" stroke="none" d="
M 30.75 17.2
Q 30.85 17.55 31.1 17.5 31.75 17.4 31.9 17.05 32.2 16.5 31.8 16 31.45 15.6 30.95 16
L 30.8 16.15
Q 30.5 16.6 30.75 17.2 Z"/>
</g>

<g id="Layer2_0_MEMBER_0_MEMBER_0_MEMBER_12_FILL">
<path fill="#000000" stroke="none" d="
M 21.6 19.45
Q 21.7 20.05 22.2 19.95 22.75 19.95 22.75 19.5 22.75 19.2 22.55 19 22.35 18.8 22.1 18.8 21.5 18.9 21.6 19.45 Z"/>
</g>

<g id="Layer2_0_MEMBER_0_MEMBER_0_MEMBER_13_FILL">
<path fill="#000000" stroke="none" d="
M 16.35 25.5
Q 16.2 25.9 16.6 26.25 17.05 26.55 17.45 25.9
L 17.45 25.55
Q 17.25 25.25 17.05 25.2 16.5 25.1 16.35 25.5 Z"/>
</g>

<g id="Layer2_0_MEMBER_0_MEMBER_0_MEMBER_14_FILL">
<path fill="#000000" stroke="none" d="
M 14.3 60.55
Q 14.45 60.3 14.15 59.75 13.55 59.15 12.9 59.25 12.15 59.2 11.85 59.9 11.65 60.6 12.3 61.1 12.95 61.5 13.45 60.95 14.15 60.8 14.3 60.55 Z"/>
</g>

<g id="Layer2_0_MEMBER_0_MEMBER_0_MEMBER_15_FILL">
<path fill="#000000" stroke="none" d="
M 27.15 24.15
L 27.1 23.45
Q 27.05 23.15 26.75 23.1 26.45 23 26.2 23.15 25.75 23.45 26.3 24.15 26.55 24.6 26.65 24.6 26.8 24.6 27.15 24.15 Z"/>
</g>

<g id="Layer2_0_MEMBER_0_MEMBER_0_MEMBER_16_FILL">
<path fill="#000000" stroke="none" d="
M 60.45 86.7
Q 60.35 86.35 60.05 86.35 59.6 86.45 59.6 86.8 59.6 87.25 60.05 87.15 60.45 87.15 60.45 86.7 Z"/>
</g>

<g id="Layer2_0_MEMBER_0_MEMBER_0_MEMBER_17_FILL">
<path fill="#000000" stroke="none" d="
M 10.25 56.35
Q 10.1 56.15 9.95 56.15 9.65 56.15 9.65 56.4 9.55 57 10.1 56.9 10.3 56.9 10.4 56.65 10.45 56.5 10.25 56.35 Z"/>
</g>

<g id="Layer2_0_MEMBER_0_MEMBER_0_MEMBER_18_FILL">
<path fill="#000000" stroke="none" d="
M 12.25 44.85
L 12.3 45
Q 12.8 44.85 12.65 44.4 12.5 44.15 12.4 44.25 12.25 44.3 12.25 44.85 Z"/>
</g>

<g id="Layer2_0_MEMBER_0_MEMBER_0_MEMBER_19_FILL">
<path fill="#000000" stroke="none" d="
M 22.45 29.15
Q 22.75 29.15 22.75 28.95 22.75 28.75 22.6 28.75 22.4 28.55 22.25 28.8
L 22.1 29.2 22.45 29.15 Z"/>
</g>

<g id="Layer2_0_MEMBER_0_MEMBER_0_MEMBER_20_FILL">
<path fill="#000000" stroke="none" d="
M 9.95 62.55
Q 9.6 62.3 9.3 62.35 9.1 62.55 9.05 62.9 9.05 63.1 9.1 63.5 9.2 64.1 9.7 63.85 10.55 63.45 9.95 62.55 Z"/>
</g>

<g id="Layer2_0_MEMBER_0_MEMBER_0_MEMBER_21_FILL">
<path fill="#000000" stroke="none" d="
M 17.45 75
Q 17.1 74.55 16.7 74.85 16.45 75 16.4 75.25 16.15 75.55 16.45 75.85 16.9 76.2 17.2 75.95 17.85 75.6 17.45 75 Z"/>
</g>

<g id="Layer2_0_MEMBER_0_MEMBER_0_MEMBER_22_FILL">
<path fill="#000000" stroke="none" d="
M 47.75 85.6
L 47.65 85.6 47.6 85.7 47.7 85.75 47.75 85.6 Z"/>
</g>

<g id="Layer2_0_MEMBER_0_MEMBER_0_MEMBER_23_FILL">
<path fill="#000000" stroke="none" d="
M 26.25 10.6
Q 26.05 10.6 25.95 10.75 25.4 11.3 25.4 12.7 25.5 12.95 25.55 12.95
L 25.6 13.05 25.95 13.4
Q 25.95 13.55 25.85 13.85 25.85 14.1 26.15 14.15 26.55 14.25 26.65 13.75 26.9 13.65 27.4 13.4 27.8 13.15 27.85 12.7 28.05 12.3 27.9 11.95 27.65 11.55 27.5 11.3 27.1 10.65 27 10.6 26.65 10.3 26.25 10.6 Z"/>
</g>

<g id="Layer2_0_MEMBER_0_MEMBER_0_MEMBER_24_FILL">
<path fill="#000000" stroke="none" d="
M 88.95 36.85
Q 88.6 36.85 88.45 37 88.05 36.8 87.4 37.15 87.05 37.35 87.05 38.05 87.05 38.4 87.2 38.55 87.65 39.6 89 39.95
L 89.15 39.95
Q 89.45 40.25 89.85 39.95 90.2 39.85 90.4 39.6
L 90.55 39.45 90.7 39.25 90.9 39.05
Q 90.85 39 90.9 38.9 90.85 37 88.95 36.85 Z"/>
</g>

<g id="Layer2_0_MEMBER_0_MEMBER_0_MEMBER_25_FILL">
<path fill="#000000" stroke="none" d="
M 81 49
L 81 48.15
Q 81.1 47 80.3 46.3 79.7 45.5 79.9 44.55
L 79.95 43.8
Q 80.3 42.9 80.25 42.2
L 80.35 41.1
Q 80.35 38.7 78.55 36.8
L 78.45 36.6 78.35 36.5 77 34.75 77 34.4
Q 76.95 33.6 76.6 33.25 76.25 32.95 75.45 32.85
L 75.1 32.8 74.55 32.35
Q 73.85 31.9 73.8 31.1 73.8 30.3 72.85 29.8 72.85 29.6 72.65 29.55 72.65 29.5 72.5 29 72.6 28.8 72.9 28.55 73.25 28.3 73.35 28.15 73.55 28.15 73.7 28 74.15 27.9 74.55 27.1 74.95 26.6 74.35 25.9 74.1 24.75 73.15 24.7 71.9 24.6 71.45 24.7
L 71.25 24.5 71.45 24.35 71.6 24.3 71.8 24.15 71.95 23.95 72.1 23.2
Q 72.45 21.2 70.7 20.15 69.7 19.6 68.65 19.95 68.2 20.05 67.8 20.65 67.2 20.8 67.1 20.85 65.45 21.45 65.85 22.95 65.9 23.1 65.7 23.3
L 64.5 23.3
Q 64.2 23.1 63.95 23.1
L 63.65 23.1 63.65 22.75
Q 63.9 22.05 63.75 21.75 63.6 21.4 62.7 21.35
L 62.6 21.35 62.55 20.85
Q 62.65 20.45 62.4 20.35 62.3 20.05 61.85 19.7 61.2 19.15 60.35 19.35 59.5 19.5 59.1 20.3
L 58.95 20.5 58.2 19.9
Q 57.45 19.25 57 19.3 56.35 19.25 55.65 19.45
L 54.6 19.1
Q 53.8 18.9 52.85 19.25 52.7 19.3 52.2 19.9 51.9 20.3 51.75 20.3 51.65 20.35 51.1 20.15
L 50.95 20.25 50.4 20.2
Q 49.2 19.75 48.7 19.85
L 48.5 19.85 48.2 19.75
Q 48.15 19.65 48 19.65 47.15 19.65 46.95 19.7 45.65 19.6 45 19.7 44.6 19.7 44.5 19.8
L 44.35 19.85
Q 42.9 19.75 42.2 19.95
L 42.1 20
Q 41.4 19.85 41.15 20.15 41 20.05 40.35 20.2 39.95 20.2 39.95 19.8 40 19.15 39.85 18.8 39.7 19.8 39.95 20.5
L 38.65 20.85
Q 38.35 20.8 38.35 20.45 38.25 19.45 37.75 18.95 37.6 18.55 37.15 18.35 36.45 18 36.35 17.9
L 36.2 17.7
Q 36.2 17.45 36 17.4
L 35.85 17.2
Q 34.75 16.2 33.8 16.4 32.7 16.7 32.35 17.2 32 17.65 32 18.7
L 32 19.1
Q 32.05 19.35 32 19.75 32 20.1 32.2 20.35 32.25 20.5 32.5 21 32.7 21.4 32.7 21.7
L 32.7 21.9
Q 32.65 22.1 32.75 22.5 32.85 22.85 32.85 23.05
L 32.9 23.15 32.85 23.1 32.7 23.1 32.35 22.6
Q 32.1 22.1 31.15 21.9 30.25 22.3 30.15 22.75 30.05 23.15 30.6 24 30.65 24.05 30.65 24.3 30.05 24.6 29.9 24.8
L 29.75 25
Q 29.25 25.2 28.7 25.7 28.4 25.7 28.2 26 27.4 26.4 27.15 26.75 26.5 27.15 26.3 27.8 26.15 27.95 26.05 27.95 24.8 28.3 23.5 29.4 23.4 29.4 23.3 29.55
L 23.3 29.5
Q 23.05 29.6 23 29.75
L 22.85 29.75
Q 22.65 29.7 22.15 29.35
L 22.1 29.2
Q 21.65 29.05 21.4 29 21 28.95 20.7 29.2 20.4 29.35 20.35 29.7 20.2 29.85 20.2 30.25
L 20.05 30.2 19.85 30.05
Q 18.4 29.95 17.6 30.6 17 31.05 16.9 31.45 16.8 31.85 17.1 32.65 17.8 33.7 18.95 33.4
L 19.35 33.35 19.3 33.5
Q 18.65 33.75 18.5 33.9 18.4 34.1 18.45 34.75
L 18.45 35.55
Q 18.05 36.6 17.95 37.85
L 17.95 38.2
Q 17.8 38.4 17.8 38.95
L 17.75 42.55 17.45 42.7
Q 17 42.85 17.15 43.3 17.25 43.65 17.75 43.45 17.75 44.2 17.7 44.3 17.45 44.35 17.1 44.15 16.75 43.95 16.55 43.95 15.7 43.5 15 44.45
L 14.65 44.45
Q 14.15 44.15 13.6 44.45 13.3 44.6 13.4 45.2 13.5 45.75 13.1 45.85
L 13.1 45.15 13 44.95
Q 12.85 44.95 12.75 45.15 12.5 45.95 12.9 46.9 13.05 46.95 13.1 46.9
L 13.1 46.4
Q 13.2 46.5 13.3 46.95 13.3 47.3 13.6 47.4
L 14.15 47.85
Q 14.7 48.2 15 48.1 15.3 48 15.7 47.45
L 17.1 47.4 16.85 47.9
Q 16.2 48.7 16.2 49.7
L 16.05 50.7
Q 16 50.8 15.8 51.4 15.7 51.85 15.5 52.1 15 52.4 14.95 52.55 14.9 52.7 15.1 53.2
L 15.2 53.55 15.15 54 14.7 54.5
Q 14 54.9 13.8 56.1
L 13.75 56.8
Q 13.45 58.1 14.6 59.25
L 14.8 59.6 15.05 60.9
Q 14.95 61.2 14.8 61.25 14.25 61.55 14.6 61.95 14.75 62.1 14.95 62.05 15.05 62 15.25 61.85
L 15.35 61.85 15.4 61.95 15 62.95
Q 14.75 64.05 15.5 64.65 16.35 65.4 16.7 65.9 17.1 66.3 17.4 66.4
L 16.45 67.25
Q 15.55 68.25 16.05 69.5 16.5 70.2 16.55 70.5
L 16.55 70.75
Q 16.45 71.45 16.65 71.75 16.9 72.05 17.55 72.1 17.95 72.2 18.3 72.05 19.3 72.1 19.7 71.05 20.15 70.15 20.2 69.6 20.25 69.2 20.9 69.1
L 21.95 69.65 21.8 69.85
Q 21.6 69.9 21.4 70.2 21.15 70.7 21.4 71.1 21.65 71.4 22.25 71.4 22.5 71.4 22.7 71.2 22.85 70.95 22.95 70.85 23.15 70.95 23.15 71.4
L 23 71.9
Q 22.8 72.1 22.3 72.35 21.9 72.6 21.8 72.95
L 21.75 73.1
Q 21.6 73.25 21.6 73.5
L 21.6 73.65 21.4 73.8
Q 21.15 73.95 21.1 74
L 20.9 74.15 20.65 74.7
Q 20.05 75.6 20.8 76.4 21.15 76.85 21.25 76.9 21.85 77.25 21.75 77.9 21.7 78.65 22.35 79.15
L 22.8 79.55
Q 22.85 80 23.3 80.05 23.7 80.1 23.7 80.6 23.25 80.85 23.15 80.95 22.55 80.9 22.3 81.45 21.6 82.1 22.25 82.7 22.65 83 23 83 23.4 83.05 23.7 82.8 23.95 82.5 23.9 82.1 23.9 81.6 24.1 81.5 24.5 81.35 24.7 81.8 24.75 82.05 24.55 82.5 24.4 83 24.4 83.2 24.5 84.15 23.85 84.95 23.95 85.35 24.55 85.25 25.35 85.05 26.1 85.7 26.75 86.15 27.4 85.85
L 28.55 85.45 28.75 86.1
Q 28.85 86.25 29.05 86.15 29.25 86.05 29.35 86.15
L 29.7 86.35
Q 30 86.55 30.2 86.4 31.15 86.15 31.5 85.8 32.3 85.2 32.2 83.9 32.1 83.4 31.85 83.2 31.85 83 31.65 82.85
L 31.35 82.5
Q 31.55 81.9 31.9 82.3 32.5 83.05 33.4 83.35 34.05 83.4 34.75 83.1 35.15 82.95 35.2 83 35.6 83.25 36.05 83.1 36.15 83.05 36.75 82.65
L 37.05 82.8
Q 38.15 83.85 39.15 84.2
L 39.25 84.25
Q 39.45 84.5 39.8 84.6 40.95 85.3 41.9 85.5
L 42.15 85.6
Q 42.6 85.65 42.3 86.1
L 42.25 86.3
Q 42.1 86.5 42.1 87.35 42.15 87.65 42.4 88.15 42.7 88.65 42.7 88.95 42.7 89.1 42.9 89.2 43.8 90.05 45.05 89.3 45.75 88.9 45.75 87.55
L 45.75 87.35
Q 45.6 87.05 45.55 87 45 86.25 44.5 86.15 44.35 85.8 44.05 85.5 44.65 85.35 44.7 85.3
L 44.9 85.15
Q 47.2 84.75 48.15 84.05 48.5 84 49.05 84.25 50.2 84.95 51.15 84.7
L 53.45 84.35
Q 54.3 84.2 55.35 83.7 56 83.45 57.2 82.85
L 58.5 82.65
Q 60.4 82.3 61.8 81.35 62.3 81 62.75 80.95
L 63.1 81.1 63.3 81.25
Q 64.3 81.45 64.65 80.75 65 80.5 65 79.4
L 65.2 79.2
Q 65.45 79.15 65.75 78.85 66.05 78.65 66.35 78.8 66.5 78.55 66.75 78.5 68.15 77.75 68.65 77.25
L 68.85 77.15 69.2 77.05 69.55 76.8
Q 69.8 76.8 69.95 76.6 70.2 76.7 70.4 76.5 70.7 76.45 70.95 76.05
L 71.25 75.7
Q 72.15 76.5 72.35 76.6 73.3 77.25 73.85 77.1 74.45 77.2 74.75 77.1 75.9 77.3 76.45 76.75 77.45 75.75 78.15 75.6 78.25 75.6 78.5 75.35 79 74.8 79.8 74.85 80.35 74.95 81.5 74.85 81.2 74.65 80.75 74.7
L 80 74.7
Q 79.55 74.65 79.45 74.6 79.4 74.5 79.4 74 79.5 71.8 77.7 71.55
L 77.5 71.4 77.35 71.4
Q 76.05 71.2 75.45 71.4
L 75.25 71.55 74.9 71.55 74.75 71.25
Q 75.45 71.05 75.45 70
L 75.6 69.7 75.75 69.65 75.95 69.45 76.1 69.5
Q 76.65 69.95 77.2 69.4 77.65 69 77.4 68.3
L 77.15 67.55 77.15 67.2 77.3 66.7 77.35 66.6
Q 77.5 66.55 77.5 66.35 77.7 66.3 77.7 66
L 77.7 65.85 78.05 64.65 78.35 65 78.55 65.15
Q 78.9 65.45 79.6 65.15 80.65 65.95 82.05 65.8 83.55 65.6 83.95 65
L 84.25 64.45 84.3 64.3 84.45 64.1 84.65 63.95
Q 85.45 63.8 86.25 62.6 86.55 62.1 86.25 61.35 85.9 60.55 85 60.1
L 84.65 59.9
Q 84.3 59.75 83.25 59.75 82.9 59.95 82.7 59.9 82.3 59.6 81.85 59.9
L 81.3 60.05
Q 81 60.15 80.8 60.35
L 80.3 60.45 79.25 60.4
Q 79.35 60.35 79.25 60.25 79.4 58.85 79.8 58.2 79.95 58.05 79.9 57.85
L 79.95 57.65
Q 80.15 57.45 80.1 57.3 80.45 56.25 80.45 55.95
L 80.5 55.6
Q 80.65 55.3 80.65 54.8
L 80.65 54
Q 80.85 53.3 80.85 51.8 81.1 51.4 80.95 50.9
L 80.95 50.7
Q 81.05 49.6 81 49
M 72.15 73.1
L 72.15 73.25 71.8 73.05
Q 72 72.85 72.15 73.1 Z"/>
</g>

<g id="Layer2_0_MEMBER_0_MEMBER_0_MEMBER_26_FILL">
<path fill="#000000" stroke="none" d="
M 85.65 72.35
Q 85.65 71.5 84.85 71.2 84.45 71 84.3 71.1 84.2 71.2 84.1 71.75
L 83.95 71.55
Q 83.95 70.85 83.25 70.85 82.15 71.3 82.5 72.25 82.9 73.25 83.95 73.65
L 84.65 73.65 84.8 73.5 84.8 73.45
Q 85.65 73.3 85.65 72.35 Z"/>
</g>

<g id="Layer2_0_MEMBER_0_MEMBER_0_MEMBER_27_FILL">
<path fill="#000000" stroke="none" d="
M 75.7 30.8
Q 75.2 30.9 74.95 30.9 74.45 30.8 74.45 31.4 74.45 31.85 75 31.85
L 75.6 31.8 75.8 31.95 75.95 31.95
Q 76.5 32.2 76.75 31.7 77 31.1 76.45 30.75 76.2 30.7 75.7 30.8 Z"/>
</g>

<g id="Layer2_0_MEMBER_0_MEMBER_0_MEMBER_28_FILL">
<path fill="#000000" stroke="none" d="
M 82.5 34.35
Q 81.85 34.1 81.55 34.45 81.15 34.9 81.45 35.35
L 81.5 35.45
Q 81.65 36.3 82.4 36.6 82.8 36.75 83.2 36.6 84.6 35.75 83.25 34.55
L 83.05 34.4 82.75 34.4 82.5 34.35 Z"/>
</g>

<g id="Layer2_0_MEMBER_0_MEMBER_0_MEMBER_29_FILL">
<path fill="#000000" stroke="none" d="
M 82.7 50.7
Q 83.4 50.8 83.4 50.25 83.45 50 83.2 49.8 83 49.6 82.65 49.6 82.25 49.6 82.15 50.2 82.15 50.7 82.7 50.7 Z"/>
</g>

<g id="Layer2_0_MEMBER_0_MEMBER_0_MEMBER_30_FILL">
<path fill="#000000" stroke="none" d="
M 82.1 24.6
Q 82 24.05 81.6 24
L 81.15 24
Q 80.7 24.25 80.65 24.35 80.6 24.5 80.75 25.05
L 81 25.25
Q 81.1 25.35 81.35 25.35
L 81.8 25.1
Q 82.2 24.9 82.1 24.6 Z"/>
</g>

<g id="Layer2_0_MEMBER_0_MEMBER_0_MEMBER_31_FILL">
<path fill="#000000" stroke="none" d="
M 83.1 58.35
Q 83.35 58.35 83.4 58.2 83.75 57.55 83.6 57.35 83.45 57.1 82.7 57.15
L 82.55 57.1
Q 82.5 56.75 82 56.35 81.65 56.15 81.3 56.2 80.95 56.3 80.75 56.65 80.45 57.2 80.7 57.75 80.95 58.25 81.6 58.3
L 82.2 58.2 82.35 58.2
Q 82.65 58.65 83.1 58.35 Z"/>
</g>

<g id="Layer2_0_MEMBER_0_MEMBER_0_MEMBER_32_FILL">
<path fill="#000000" stroke="none" d="
M 81.7 22.05
Q 81.65 21.35 81.4 21.2 81.1 21.05 80.45 21.35
L 80.1 21.55
Q 80 22.75 80.85 22.95
L 81.15 23.1
Q 81.25 23.35 81.65 23.25 82.1 22.85 82.1 22.65 82.1 22.45 81.7 22.05 Z"/>
</g>

<g id="Layer2_0_MEMBER_0_MEMBER_0_MEMBER_33_FILL">
<path fill="#000000" stroke="none" d="
M 84.7 27.4
Q 84.7 27.75 85.1 27.75 85.45 27.75 85.45 27.5 85.4 27.15 85.05 27.15 84.7 27.05 84.7 27.4 Z"/>
</g>

<g id="Layer2_0_MEMBER_0_MEMBER_0_MEMBER_34_FILL">
<path fill="#000000" stroke="none" d="
M 75.6 27.35
Q 75.35 27.75 75.95 28.15 76.5 28.05 76.6 27.9 76.65 27.8 76.3 27.3 75.85 26.85 75.6 27.35 Z"/>
</g>

<g id="Layer2_0_MEMBER_0_MEMBER_0_MEMBER_35_FILL">
<path fill="#000000" stroke="none" d="
M 79.45 30
Q 79.55 30.3 79.7 30.3 79.95 30.3 80.05 29.9 80.05 29.6 79.8 29.6 79.45 29.6 79.45 30 Z"/>
</g>

<g id="Layer2_0_MEMBER_0_MEMBER_0_MEMBER_36_FILL">
<path fill="#000000" stroke="none" d="
M 82.6 27.3
Q 82.5 27.55 82.8 27.55 83 27.6 83 27.35 83.05 27.15 82.8 27.05 82.6 27.15 82.6 27.3 Z"/>
</g>
</defs>

<g transform="matrix( 1, 0, 0, 1, 0,0) ">
<use xlink:href="#Layer2_0_MEMBER_0_MEMBER_0_MEMBER_0_FILL"/>
</g>

<g transform="matrix( 1, 0, 0, 1, 0,0) ">
<use xlink:href="#Layer2_0_MEMBER_0_MEMBER_0_MEMBER_1_FILL"/>
</g>

<g transform="matrix( 1, 0, 0, 1, 0,0) ">
<use xlink:href="#Layer2_0_MEMBER_0_MEMBER_0_MEMBER_2_FILL"/>
</g>

<g transform="matrix( 1, 0, 0, 1, 0,0) ">
<use xlink:href="#Layer2_0_MEMBER_0_MEMBER_0_MEMBER_3_FILL"/>
</g>

<g transform="matrix( 1, 0, 0, 1, 0,0) ">
<use xlink:href="#Layer2_0_MEMBER_0_MEMBER_0_MEMBER_4_FILL"/>
</g>

<g transform="matrix( 1, 0, 0, 1, 0,0) ">
<use xlink:href="#Layer2_0_MEMBER_0_MEMBER_0_MEMBER_5_FILL"/>
</g>

<g transform="matrix( 1, 0, 0, 1, 0,0) ">
<use xlink:href="#Layer2_0_MEMBER_0_MEMBER_0_MEMBER_6_FILL"/>
</g>

<g transform="matrix( 1, 0, 0, 1, 0,0) ">
<use xlink:href="#Layer2_0_MEMBER_0_MEMBER_0_MEMBER_7_FILL"/>
</g>

<g transform="matrix( 1, 0, 0, 1, 0,0) ">
<use xlink:href="#Layer2_0_MEMBER_0_MEMBER_0_MEMBER_8_FILL"/>
</g>

<g transform="matrix( 1, 0, 0, 1, 0,0) ">
<use xlink:href="#Layer2_0_MEMBER_0_MEMBER_0_MEMBER_9_FILL"/>
</g>

<g transform="matrix( 1, 0, 0, 1, 0,0) ">
<use xlink:href="#Layer2_0_MEMBER_0_MEMBER_0_MEMBER_10_FILL"/>
</g>

<g transform="matrix( 1, 0, 0, 1, 0,0) ">
<use xlink:href="#Layer2_0_MEMBER_0_MEMBER_0_MEMBER_11_FILL"/>
</g>

<g transform="matrix( 1, 0, 0, 1, 0,0) ">
<use xlink:href="#Layer2_0_MEMBER_0_MEMBER_0_MEMBER_12_FILL"/>
</g>

<g transform="matrix( 1, 0, 0, 1, 0,0) ">
<use xlink:href="#Layer2_0_MEMBER_0_MEMBER_0_MEMBER_13_FILL"/>
</g>

<g transform="matrix( 1, 0, 0, 1, 0,0) ">
<use xlink:href="#Layer2_0_MEMBER_0_MEMBER_0_MEMBER_14_FILL"/>
</g>

<g transform="matrix( 1, 0, 0, 1, 0,0) ">
<use xlink:href="#Layer2_0_MEMBER_0_MEMBER_0_MEMBER_15_FILL"/>
</g>

<g transform="matrix( 1, 0, 0, 1, 0,0) ">
<use xlink:href="#Layer2_0_MEMBER_0_MEMBER_0_MEMBER_16_FILL"/>
</g>

<g transform="matrix( 1, 0, 0, 1, 0,0) ">
<use xlink:href="#Layer2_0_MEMBER_0_MEMBER_0_MEMBER_17_FILL"/>
</g>

<g transform="matrix( 1, 0, 0, 1, 0,0) ">
<use xlink:href="#Layer2_0_MEMBER_0_MEMBER_0_MEMBER_18_FILL"/>
</g>

<g transform="matrix( 1, 0, 0, 1, 0,0) ">
<use xlink:href="#Layer2_0_MEMBER_0_MEMBER_0_MEMBER_19_FILL"/>
</g>

<g transform="matrix( 1, 0, 0, 1, 0,0) ">
<use xlink:href="#Layer2_0_MEMBER_0_MEMBER_0_MEMBER_20_FILL"/>
</g>

<g transform="matrix( 1, 0, 0, 1, 0,0) ">
<use xlink:href="#Layer2_0_MEMBER_0_MEMBER_0_MEMBER_21_FILL"/>
</g>

<g transform="matrix( 1, 0, 0, 1, 0,0) ">
<use xlink:href="#Layer2_0_MEMBER_0_MEMBER_0_MEMBER_22_FILL"/>
</g>

<g transform="matrix( 1, 0, 0, 1, 0,0) ">
<use xlink:href="#Layer2_0_MEMBER_0_MEMBER_0_MEMBER_23_FILL"/>
</g>

<g transform="matrix( 1, 0, 0, 1, 0,0) ">
<use xlink:href="#Layer2_0_MEMBER_0_MEMBER_0_MEMBER_24_FILL"/>
</g>

<g transform="matrix( 1, 0, 0, 1, 0,0) ">
<use xlink:href="#Layer2_0_MEMBER_0_MEMBER_0_MEMBER_25_FILL"/>
</g>

<g transform="matrix( 1, 0, 0, 1, 0,0) ">
<use xlink:href="#Layer2_0_MEMBER_0_MEMBER_0_MEMBER_26_FILL"/>
</g>

<g transform="matrix( 1, 0, 0, 1, 0,0) ">
<use xlink:href="#Layer2_0_MEMBER_0_MEMBER_0_MEMBER_27_FILL"/>
</g>

<g transform="matrix( 1, 0, 0, 1, 0,0) ">
<use xlink:href="#Layer2_0_MEMBER_0_MEMBER_0_MEMBER_28_FILL"/>
</g>

<g transform="matrix( 1, 0, 0, 1, 0,0) ">
<use xlink:href="#Layer2_0_MEMBER_0_MEMBER_0_MEMBER_29_FILL"/>
</g>

<g transform="matrix( 1, 0, 0, 1, 0,0) ">
<use xlink:href="#Layer2_0_MEMBER_0_MEMBER_0_MEMBER_30_FILL"/>
</g>

<g transform="matrix( 1, 0, 0, 1, 0,0) ">
<use xlink:href="#Layer2_0_MEMBER_0_MEMBER_0_MEMBER_31_FILL"/>
</g>

<g transform="matrix( 1, 0, 0, 1, 0,0) ">
<use xlink:href="#Layer2_0_MEMBER_0_MEMBER_0_MEMBER_32_FILL"/>
</g>

<g transform="matrix( 1, 0, 0, 1, 0,0) ">
<use xlink:href="#Layer2_0_MEMBER_0_MEMBER_0_MEMBER_33_FILL"/>
</g>

<g transform="matrix( 1, 0, 0, 1, 0,0) ">
<use xlink:href="#Layer2_0_MEMBER_0_MEMBER_0_MEMBER_34_FILL"/>
</g>

<g transform="matrix( 1, 0, 0, 1, 0,0) ">
<use xlink:href="#Layer2_0_MEMBER_0_MEMBER_0_MEMBER_35_FILL"/>
</g>

<g transform="matrix( 1, 0, 0, 1, 0,0) ">
<use xlink:href="#Layer2_0_MEMBER_0_MEMBER_0_MEMBER_36_FILL"/>
</g>
</svg>
