
<svg xmlns="http://www.w3.org/2000/svg" version="1.1" xmlns:xlink="http://www.w3.org/1999/xlink" preserveAspectRatio="none" x="0px" y="0px" width="100px" height="100px" viewBox="0 0 100 100">
<defs>
<g id="Layer2_0_MEMBER_0_MEMBER_0_MEMBER_0_FILL">
<path fill="#000000" stroke="none" d="
M 23.6 8.35
Q 23.8 9.25 24.75 9.85 25.4 10.4 26.05 9.9 26.45 9.9 26.75 9.5 27.55 8.5 26.6 7.45
L 26.4 7.3 26.4 7.1 23.65 7.1 23.6 8.35 Z"/>
</g>

<g id="Layer2_0_MEMBER_0_MEMBER_0_MEMBER_1_FILL">
<path fill="#000000" stroke="none" d="
M 22.3 87.25
Q 22.4 86.55 21.6 85.9 21.55 86.1 21.35 86.2 21.05 86.35 21 86.4 20.55 86.95 20.7 87.3 21 87.8 21.7 87.6
L 22.3 87.25 Z"/>
</g>

<g id="Layer2_0_MEMBER_0_MEMBER_0_MEMBER_2_FILL">
<path fill="#000000" stroke="none" d="
M 29.2 13.9
Q 29.4 14.15 29.65 14.15 30.2 14.25 30.3 13.65 30.3 13.1 29.75 13 29.2 13 29.05 13.5 29 13.7 29.2 13.9 Z"/>
</g>

<g id="Layer2_0_MEMBER_0_MEMBER_0_MEMBER_3_FILL">
<path fill="#000000" stroke="none" d="
M 12.15 8.55
Q 12.15 9.1 12.75 9.1 13.3 9.1 13.3 8.5 13.2 7.85 12.7 7.95 12.1 8.05 12.15 8.55 Z"/>
</g>

<g id="Layer2_0_MEMBER_0_MEMBER_0_MEMBER_4_FILL">
<path fill="#000000" stroke="none" d="
M 16.6 79.95
Q 16.55 79.65 16.05 79.75 15.5 79.75 15.5 80.35 15.5 80.7 16 80.7 16.25 80.65 16.45 80.4 16.65 80.2 16.6 79.95 Z"/>
</g>

<g id="Layer2_0_MEMBER_0_MEMBER_0_MEMBER_5_FILL">
<path fill="#000000" stroke="none" d="
M 15.15 29.15
Q 15.3 29.7 15.85 30 16.6 30.5 17.7 30.1 18.45 30.1 18.8 29.7 19.55 28.8 18.75 27.95 18.35 27.4 17.15 27.1 16.65 26.95 16.05 27.25 15.45 27.6 15.2 28.15 14.95 28.65 15.15 29.15 Z"/>
</g>

<g id="Layer2_0_MEMBER_0_MEMBER_0_MEMBER_6_FILL">
<path fill="#000000" stroke="none" d="
M 65.35 18.4
Q 65.35 17.75 65.05 17.45 64.2 16.55 63.15 17.2 62.65 17.55 62.5 18.1 62.35 18.65 62.6 19.15 62.7 19.5 63.15 19.85 63.5 20.05 63.25 20.2 62.8 20.45 63.3 20.55 64.15 20.9 64.75 20.1 65.4 19.25 65.35 18.4 Z"/>
</g>

<g id="Layer2_0_MEMBER_0_MEMBER_0_MEMBER_7_FILL">
<path fill="#000000" stroke="none" d="
M 20.45 22.55
Q 21.4 22.4 21.55 21.6 21.6 21 20.8 20.4
L 20.5 20.25
Q 19.85 19.65 18.6 19.85 18 19.95 17.7 20.55 17.4 21.15 17.55 21.85 17.65 22.35 18.2 22.75 18.7 23.1 19.25 23 19.6 22.95 20.1 22.65
L 20.45 22.55 Z"/>
</g>

<g id="Layer2_0_MEMBER_0_MEMBER_0_MEMBER_8_FILL">
<path fill="#000000" stroke="none" d="
M 82.75 35.7
Q 82.85 34.85 82.6 34.55 81.75 33.95 80.95 34.35 80.25 34.9 79.45 36.4 79.1 36.85 79.1 37.25 79.1 37.6 79.45 38.25 80.35 38.95 80.95 38.7 82.5 38.1 82.8 37.2 82.95 36.7 82.8 36.6 82.75 36.45 82.75 35.7 Z"/>
</g>

<g id="Layer2_0_MEMBER_0_MEMBER_0_MEMBER_9_FILL">
<path fill="#000000" stroke="none" d="
M 89.2 31.1
Q 89 30.3 88.55 30.15 87.85 29.95 87.45 30.35 86.9 30.9 87.25 31.4
L 87.45 31.75
Q 88.5 32.15 89.1 31.45
L 89.2 31.1 Z"/>
</g>

<g id="Layer2_0_MEMBER_0_MEMBER_0_MEMBER_10_FILL">
<path fill="#000000" stroke="none" d="
M 34.05 19.25
Q 34.4 19.7 34.75 19.7 35.5 19.7 35.5 18.8 35.5 17.85 34.55 17.85 33.75 17.85 33.65 18.5 33.65 18.85 34.05 19.25 Z"/>
</g>

<g id="Layer2_0_MEMBER_0_MEMBER_0_MEMBER_11_FILL">
<path fill="#000000" stroke="none" d="
M 75.65 30.65
Q 75.4 30.9 75.4 31.15 75.45 31.45 75.7 31.75 75.9 32.05 76.1 32.05 76.4 32.1 76.65 31.8 76.85 31.55 76.85 31.2 76.85 30.45 76.2 30.45 75.85 30.45 75.65 30.65 Z"/>
</g>

<g id="Layer2_0_MEMBER_0_MEMBER_0_MEMBER_12_FILL">
<path fill="#000000" stroke="none" d="
M 76.55 33.25
Q 75.85 33.25 75.95 33.9 75.95 34.5 76.6 34.5 76.9 34.5 77.1 34.35 77.35 34.2 77.3 34 77.25 33.25 76.55 33.25 Z"/>
</g>

<g id="Layer2_0_MEMBER_0_MEMBER_0_MEMBER_13_FILL">
<path fill="#000000" stroke="none" d="
M 70.85 87.45
Q 68.85 87.35 68.15 87.6
L 67.6 87.55
Q 66.3 87.3 65.4 88.7 65.2 89 65.25 89.45 65.3 89.65 65.35 90.15 65.25 91.6 66.85 92.45 67.55 92.8 67.85 92.85 69.05 93.2 69.8 92.45 70.05 92.35 70.35 91.9 70.6 91.45 70.9 91.35 71.35 91.25 72.1 90.35 72.65 89.8 72.3 89 72.15 88.45 72 88.2 71.8 87.8 71.3 87.75 71.15 87.45 70.85 87.45 Z"/>
</g>

<g id="Layer2_0_MEMBER_0_MEMBER_0_MEMBER_14_FILL">
<path fill="#000000" stroke="none" d="
M 82.8 80.35
Q 83.35 79.4 82.45 78.6 81.7 77.95 80.6 78.5 79.9 78.6 79.65 78.85
L 78.3 79.6
Q 77.85 79.7 77.75 80.15 77.35 80.7 77.75 81.55 78.4 82.75 80.15 82.75 81.45 82.75 82 81.8
L 82.05 81.45 82.8 80.35 Z"/>
</g>

<g id="Layer2_0_MEMBER_0_MEMBER_0_MEMBER_15_FILL">
<path fill="#000000" stroke="none" d="
M 59.85 88.05
Q 60.05 89 60.3 89.4 60.65 90.05 61.45 90.15 62.45 90.15 63 90.3 63.7 90.55 64.25 90.1 64.8 89.65 64.75 88.9 64.75 88.35 64.25 87.75
L 64.6 87.55
Q 65.15 86.45 65.65 85.95 65.95 85.65 65.35 85.4 64.7 85.25 64.35 85.75
L 64 86.45
Q 64.05 86.55 64.35 86.7 64.6 86.8 64.5 87 64.45 87.2 64.05 87.2
L 63.15 86.85 62.95 86.8 62.95 86.65 62.75 86.45 62.6 86.25
Q 61.5 85.5 60.85 86.1 59.65 87.1 59.85 88.05 Z"/>
</g>

<g id="Layer2_0_MEMBER_0_MEMBER_0_MEMBER_16_FILL">
<path fill="#000000" stroke="none" d="
M 69.4 83.2
Q 69.25 83.15 69.15 83.3 69 83.6 68.6 84.15 68.3 84.65 68.35 85.1 68.4 85.55 68.7 85.75 69.05 85.9 69.45 85.7 69.75 85.5 70.45 84.95 71 84.4 70.35 84.05
L 70.2 84.05 69.65 83.4
Q 69.6 83.2 69.4 83.2 Z"/>
</g>

<g id="Layer2_0_MEMBER_0_MEMBER_0_MEMBER_17_FILL">
<path fill="#000000" stroke="none" d="
M 78.55 77.05
Q 78.45 77.75 79.2 77.75 79.8 77.65 79.8 77.2 79.8 76.9 79.6 76.7 79.35 76.45 79.1 76.5 78.55 76.5 78.55 77.05 Z"/>
</g>

<g id="Layer2_0_MEMBER_0_MEMBER_0_MEMBER_18_FILL">
<path fill="#000000" stroke="none" d="
M 81.9 47.15
Q 81.95 46.15 81.7 45.65 81.5 43.55 80.75 42.35 80.6 41.95 80.4 41.75 80.4 40.75 80.05 40.3 78.55 38.25 77.8 37.7 77.6 37.5 77.45 37.5 77.05 36.9 76.55 36.7 75.95 36.45 75.55 35.65 74.85 34.1 73.35 32.65
L 72.95 32.15
Q 72.45 31.15 72.25 31 72.05 30.55 71.3 29.35 71.35 29.15 71.65 29.15
L 72.6 29.15
Q 74.05 29.9 75.2 28.8
L 75.35 28.8
Q 75.7 28.8 75.8 28.5 75.85 28.15 75.9 28 77 25.45 75 23.8
L 74.55 23.45
Q 73.75 22.7 72.75 22.75 71.75 22.75 70.9 23.5
L 70.55 23.8 70.35 23.6
Q 69.2 22.25 67.95 23.5 67.35 24.1 67.4 24.9
L 66.85 24.7 66.65 24.7 66.3 24.5 66.1 24.35
Q 64.75 24 64.45 23.8
L 64.7 23.4
Q 65.3 21.85 63.85 21.2
L 63.3 21.2
Q 62 20.35 61.65 21.95
L 61.05 21.35
Q 60.2 20.6 59.6 20.8
L 59.25 21
Q 57.8 20.5 57 21.45
L 56.65 21.55
Q 56.7 20.5 56.25 19.4 55.9 18.6 55.25 18.45 54.15 18.2 53.45 18.9 52.75 19.65 53 20.7 53.05 20.8 53.15 21 53.2 21.2 53.1 21.4 51.8 21.1 48.3 21 48.05 21 46.65 21.15 45.65 21.2 45 21.1 44.55 20.95 43.9 21.25 43.4 21.4 42.75 21.2 41.95 21.05 41.6 20.8 41.7 19.85 41.4 19 41.2 18.35 40.8 18.1 40.15 17.75 39.3 17.85 38.45 17.95 37.9 18.5 37.65 18.75 37.35 19.3 37 19.85 36.8 20.05 34.8 20.05 33.85 20.45
L 32.35 20.45
Q 32.2 20.35 31.9 20.35 31.6 20.35 31.05 20.65 30.5 20.95 30.2 20.9 29.55 20.85 28.65 21.55
L 28.45 21.55 28.25 21.6
Q 27.8 21.55 26.9 22.05 25.65 23 24.75 23.8
L 24.05 24.3
Q 23.75 24.5 23.65 24.7
L 23.6 24.9 23.45 25.05
Q 23.1 25.15 22.9 25.65
L 22.85 25.8 22.5 26.4
Q 22 27.05 22 27.3
L 21 29.65
Q 20.25 31.6 19.4 32.95 18.95 33.5 18.8 34.15 18.45 34.4 18.3 34.9 18.2 35.2 17.9 35.3 17.8 36.8 16.95 37.6 16.45 38 16.4 38.4 16.2 38.55 16.2 38.8 16 38.95 16.05 39.15
L 16 39.2
Q 15.65 39.55 15.6 39.7 15.4 39.75 15.2 40.05 14.2 40.95 13.6 41.9 13.05 42.35 12.85 42.8
L 12.8 42.85
Q 12.3 43.35 12.2 43.7 11.1 46.4 11 48.25
L 10.95 48.35 10.95 48.45 11 48.45
Q 10.75 50.1 10.85 53.45
L 10.85 55.2
Q 10.85 57.05 11.15 57.9 11.25 59.35 12.5 61.45 12.65 62.1 13.05 62.55 13.2 63.05 13.85 63.85
L 13.8 64.2
Q 13.5 66.6 13.8 67.55
L 13.8 67.75
Q 13.9 68.55 14.2 69.05 14.4 69.55 14.7 69.8 15.55 71.85 16.5 72.75
L 16.75 72.95
Q 16.9 73.2 17.2 73.65 18.25 74.15 18.1 75.25 18 75.75 18.2 76.05
L 18.2 74.95
Q 18.25 74.65 18.6 74.8 18.9 75.35 19.6 76.05 20.4 76.85 20.65 77.2 20.8 77.5 21.8 78.65
L 21.95 78.85 22 79
Q 21.95 79.85 22.1 80 22.25 80.15 22.9 79.95
L 23.45 80.2
Q 23.75 80.7 24.15 80.75 24.35 81.1 24.75 81.25
L 24.9 81.35
Q 25.35 81.8 26.65 82.55 27 82.95 27.7 83.3 28.05 83.5 28.8 83.85 29.65 84.35 30.7 84.2 30.85 84.25 31.1 84.45 31.35 84.65 31.55 84.65
L 32.15 85 32.05 85.35
Q 31.25 86.3 32 87.4
L 32.15 87.6
Q 32.15 88.4 32.75 88.7
L 32.9 88.7
Q 33.3 89 33.85 88.5 34.65 88 34.75 86.9 34.8 86.55 34.7 85.85 34.7 85.6 35.15 85.5
L 36.05 85.35
Q 37 85.35 37.2 84.8 37.75 84.6 37.95 85.05 38.1 85.3 38.3 85.8 38.5 86.25 38.85 86.4 39.45 86.85 40.15 87.05 40.6 87.35 41.4 87.55
L 46.15 88.75 49.75 88.8
Q 51.05 88.8 51.65 88.5
L 51.8 88.5
Q 53.4 88.4 55.8 86.85 57.2 85.8 57.95 85.4
L 61.3 83.5
Q 61.85 83.4 62.95 83.25
L 63.15 83.15
Q 63.55 83.05 63.7 82.8 64.85 82.35 65.2 81.85
L 68.15 80.15 68.4 80.25 68.65 80.4
Q 68.8 80.45 68.9 80.35 69.05 80.25 69 80.05 68.9 79.85 68.85 79.75 69.35 79.5 69.5 79.25 71.45 78.45 72.8 77.3 73.65 76.55 75 74.25 75.2 74.1 75.2 73.9 75.35 73.85 75.35 73.65
L 75.45 73.5
Q 75.5 73.45 76.85 71.5 77.25 71.45 77.55 70.85 77.85 70.7 78.1 70.35 78.25 70.15 78.5 69.75 78.75 69.55 79 69.15 79.1 68.95 79.3 68.5 80.1 67.6 80.2 67.2 80.6 66.75 80.4 66.05
L 80.4 65.9
Q 80.75 63.45 80.75 62.75 80.85 62 80.55 61.45 80.55 61.15 80.2 60.7 79.85 59.9 80.4 59.05 80.75 58.5 80.95 57.5 81.1 56.85 81.1 55.95
L 81.1 54.4
Q 81.3 54.2 81.3 53.65 81.65 53.3 81.85 52.35
L 82.05 51.7 82.05 50.5 82.1 50.1
Q 82.1 49.15 81.95 48.25
L 81.9 47.9 81.9 47.15 Z"/>
</g>

<g id="Layer2_0_MEMBER_0_MEMBER_0_MEMBER_19_FILL">
<path fill="#000000" stroke="none" d="
M 61.5 84.9
Q 61.85 84.85 61.95 84.25 61.9 83.8 61.4 83.9 60.9 84 60.95 84.4 61.05 85 61.5 84.9 Z"/>
</g>

<g id="Layer2_0_MEMBER_0_MEMBER_0_MEMBER_20_FILL">
<path fill="#000000" stroke="none" d="
M 78.6 72.7
Q 79.05 72.7 79.05 72.25 79.05 71.95 78.6 71.85 78.2 71.95 78.2 72.25 78.2 72.6 78.6 72.7 Z"/>
</g>

<g id="Layer2_0_MEMBER_0_MEMBER_0_MEMBER_21_FILL">
<path fill="#000000" stroke="none" d="
M 76.6 79.95
Q 76.6 79.35 75.9 79.45 75.85 79.55 76.3 79.7 76.55 79.8 75.95 80.05
L 75.95 80.2 76.15 80.3
Q 76.6 80.3 76.6 79.95 Z"/>
</g>

<g id="Layer2_0_MEMBER_0_MEMBER_0_MEMBER_22_FILL">
<path fill="#000000" stroke="none" d="
M 55.55 90
Q 55.4 89.4 54.8 89.45 54 89.75 54 90.3 54 90.6 54.3 90.85 54.6 91.1 54.85 91.05 55.25 91 55.45 90.7 55.65 90.4 55.55 90 Z"/>
</g>
</defs>

<g transform="matrix( 1, 0, 0, 1, 0,0) ">
<use xlink:href="#Layer2_0_MEMBER_0_MEMBER_0_MEMBER_0_FILL"/>
</g>

<g transform="matrix( 1, 0, 0, 1, 0,0) ">
<use xlink:href="#Layer2_0_MEMBER_0_MEMBER_0_MEMBER_1_FILL"/>
</g>

<g transform="matrix( 1, 0, 0, 1, 0,0) ">
<use xlink:href="#Layer2_0_MEMBER_0_MEMBER_0_MEMBER_2_FILL"/>
</g>

<g transform="matrix( 1, 0, 0, 1, 0,0) ">
<use xlink:href="#Layer2_0_MEMBER_0_MEMBER_0_MEMBER_3_FILL"/>
</g>

<g transform="matrix( 1, 0, 0, 1, 0,0) ">
<use xlink:href="#Layer2_0_MEMBER_0_MEMBER_0_MEMBER_4_FILL"/>
</g>

<g transform="matrix( 1, 0, 0, 1, 0,0) ">
<use xlink:href="#Layer2_0_MEMBER_0_MEMBER_0_MEMBER_5_FILL"/>
</g>

<g transform="matrix( 1, 0, 0, 1, 0,0) ">
<use xlink:href="#Layer2_0_MEMBER_0_MEMBER_0_MEMBER_6_FILL"/>
</g>

<g transform="matrix( 1, 0, 0, 1, 0,0) ">
<use xlink:href="#Layer2_0_MEMBER_0_MEMBER_0_MEMBER_7_FILL"/>
</g>

<g transform="matrix( 1, 0, 0, 1, 0,0) ">
<use xlink:href="#Layer2_0_MEMBER_0_MEMBER_0_MEMBER_8_FILL"/>
</g>

<g transform="matrix( 1, 0, 0, 1, 0,0) ">
<use xlink:href="#Layer2_0_MEMBER_0_MEMBER_0_MEMBER_9_FILL"/>
</g>

<g transform="matrix( 1, 0, 0, 1, 0,0) ">
<use xlink:href="#Layer2_0_MEMBER_0_MEMBER_0_MEMBER_10_FILL"/>
</g>

<g transform="matrix( 1, 0, 0, 1, 0,0) ">
<use xlink:href="#Layer2_0_MEMBER_0_MEMBER_0_MEMBER_11_FILL"/>
</g>

<g transform="matrix( 1, 0, 0, 1, 0,0) ">
<use xlink:href="#Layer2_0_MEMBER_0_MEMBER_0_MEMBER_12_FILL"/>
</g>

<g transform="matrix( 1, 0, 0, 1, 0,0) ">
<use xlink:href="#Layer2_0_MEMBER_0_MEMBER_0_MEMBER_13_FILL"/>
</g>

<g transform="matrix( 1, 0, 0, 1, 0,0) ">
<use xlink:href="#Layer2_0_MEMBER_0_MEMBER_0_MEMBER_14_FILL"/>
</g>

<g transform="matrix( 1, 0, 0, 1, 0,0) ">
<use xlink:href="#Layer2_0_MEMBER_0_MEMBER_0_MEMBER_15_FILL"/>
</g>

<g transform="matrix( 1, 0, 0, 1, 0,0) ">
<use xlink:href="#Layer2_0_MEMBER_0_MEMBER_0_MEMBER_16_FILL"/>
</g>

<g transform="matrix( 1, 0, 0, 1, 0,0) ">
<use xlink:href="#Layer2_0_MEMBER_0_MEMBER_0_MEMBER_17_FILL"/>
</g>

<g transform="matrix( 1, 0, 0, 1, 0,0) ">
<use xlink:href="#Layer2_0_MEMBER_0_MEMBER_0_MEMBER_18_FILL"/>
</g>

<g transform="matrix( 1, 0, 0, 1, 0,0) ">
<use xlink:href="#Layer2_0_MEMBER_0_MEMBER_0_MEMBER_19_FILL"/>
</g>

<g transform="matrix( 1, 0, 0, 1, 0,0) ">
<use xlink:href="#Layer2_0_MEMBER_0_MEMBER_0_MEMBER_20_FILL"/>
</g>

<g transform="matrix( 1, 0, 0, 1, 0,0) ">
<use xlink:href="#Layer2_0_MEMBER_0_MEMBER_0_MEMBER_21_FILL"/>
</g>

<g transform="matrix( 1, 0, 0, 1, 0,0) ">
<use xlink:href="#Layer2_0_MEMBER_0_MEMBER_0_MEMBER_22_FILL"/>
</g>
</svg>
