
<svg xmlns="http://www.w3.org/2000/svg" version="1.1" xmlns:xlink="http://www.w3.org/1999/xlink" preserveAspectRatio="none" x="0px" y="0px" width="100px" height="100px" viewBox="0 0 100 100">
<defs>
<g id="Layer2_0_MEMBER_0_MEMBER_0_MEMBER_0_MEMBER_0_FILL">
<path fill="#000000" stroke="none" d="
M 51.55 36.25
L 51.65 36.1
Q 51.4 36.1 51.4 36
L 50.45 36
Q 50.05 35.9 49.9 36
L 49.55 35.95
Q 49.45 35.85 49.15 36
L 49 36
Q 48.65 36.1 48.25 36.35
L 48.2 36.45 48 36.75 48 36.85
Q 47.7 37.05 47.7 37.5 47.7 37.7 47.5 38
L 47.3 38
Q 47.15 38.15 46.95 38.05 46.75 38.65 46.75 39
L 47.15 39.45 47.45 39.55 47.55 40 47.65 40.2 47.55 40.5 47.4 40.7
Q 47.1 40.8 47.45 40.95
L 47.55 41
Q 47.55 41.45 47.65 41.55
L 47.65 41.7
Q 47.65 41.9 47.5 41.75 47.3640625 41.75 47.3 41.8
L 47.4 42.25 47.65 42.25 47.95 43.7 48.15 44.2
Q 48.15 44.5 48.45 45 48.7 45.65 48.7 46.1
L 48.75 46.45 49 47 49 47.35
Q 49.05 47.45 48.95 48.2 48.85 48.3 48.95 48.5 48.7 48.65 48.5 49 48.45 49.3 48.5 49.45
L 48.5 49.6
Q 48.45 49.9 48.65 50.35
L 48.65 50.5 48.55 50.55 48.25 50.75
Q 47.8 50.85 47.7 51
L 47.25 51.5
Q 47 51.75 46.55 51.75 46.25 51.9 46 51.5 45.8 51.3 45.8 50.8
L 45.7 50.25 45.5 50.05 45.2 49.5 45 49.7 44.9 49.7
Q 44.95 49.5 44.75 49.3 45 49.45 45.05 49.3
L 45 49.1 44.4 48.8
Q 44.1 48.7 43.55 48.95
L 43.4 48.95
Q 43.05 48.8 42.9 49.2 42.35 49.2 41 49.6
L 40.8 49.5 40.55 49.3 40.3 49.2 40.15 49 39.8 48.85 38.8 48.75 38 48.75
Q 37.4 48.65 37.25 48.5 37.05 48.35 36.75 48.5 36.7 48.6 36.45 48.5 36.45 48.35 36.25 48.35
L 36.15 48.25
Q 35.7 48.25 35.7 48.6
L 35.75 48.85
Q 35.8 49.1 35.75 49.25
L 35.5 49.25 35.45 49.6 35.4 49.55 35.45 49.25 35.3 49.3
Q 35.3 49.15 35.25 49.25
L 35.15 49.35 35 49.35 35.05 49.25
Q 34.8 49.25 34.7 49.6 34.55 49.95 34.8 50.2
L 34.75 50.3 34.95 50.75 34.75 50.95
Q 34.65 51.05 34.5 51 34.1 51 33.7 50.8
L 32.9 50.6 32.25 50.55 32.25 50.5 32.4 50.35 32.25 50.2
Q 32.25 49.85 32.05 49.7
L 32.05 49.55
Q 31.7 49.3 31.5 49.5
L 31.35 49.5
Q 31.1 49.5 31 49.6 30.9 49.75 30.95 49.95
L 30.75 50 30.7 50.35 30.75 51
Q 30.65 51.25 30.75 51.85
L 30.75 52
Q 30.85 52 30.85 52.25
L 30.95 52.5 31.25 53
Q 31.5 53.3 31.35 53.7
L 31 53.7 30.25 53.55 29.25 53.5
Q 28.95 53.5 28.85 53.75
L 28.75 53.75 28.6 54.05 28.75 54.5 29 55.85 29.25 56.5
Q 29.25 57 29.5 57.6
L 29.6 57.85
Q 29.95 58.5 30.1 58.75
L 30.1 58.95
Q 29.85 59.15 30 59.45
L 30.35 59.55 30.75 59.45 30.85 59.5
Q 30.9 59.85 31.35 59.95
L 31.75 60 32.45 60.5
Q 32.5 60.7 32.75 60.7 32.8 60.75 32.75 60.8 32.75 60.85 32.7 60.85 32.55 61 32.15 60.85
L 32 60.75 31.85 60.6 31.25 60.5 31.1 60.5 30.85 60.45 30.75 60.45 30.5 60.35 30.1 60.3
Q 29.9 60.3 29.7 60.5
L 29.6 60.5
Q 29.4 60.5 29.25 60.95
L 29.35 61.5
Q 29.35 61.8 29.7 62.3 29.8 62.7 30.2 63.2
L 30.6 63.6 30.85 63.95 31.6 64.2 31.95 64.25 33.05 64.1 33.45 64.2 34.05 64.6 34.3 64.85
Q 34.55 65.1 34.9 65.2
L 36.15 65.45 36.4 65.35 36.8 65.1
Q 37.25 65.1 37.3 64.95 37.8 64.7 38.05 64.7
L 38.25 64.7
Q 38.4 64.35 38.25 64.2 38.1 64.05 38.2 63.85
L 38.2 63.55 38.15 63.25
Q 38.25 63.1 38.15 62.8 37.9 62.3 37.75 62.25 37.3 61.9 37.25 61.7
L 37.2 61.55 36.75 61.25 36.3 61.05 36.2 60.85 36.55 60.6
Q 36.8 60.45 37.2 60
L 37.55 59.6
Q 37.85 59.6 38 59.7
L 38.05 59.75 39.65 59.85 40.25 59.75
Q 40.55 59.55 40.75 59.55 41.25 59.55 41.05 60
L 41 60
Q 40.95 60.25 41 60.45
L 41.2 61 41.25 61.05 41.25 61.55
Q 41.25 61.95 40.95 62.1
L 41 62.25 41.25 62.6
Q 41.4 63.2 41.65 63.3
L 42 63.7
Q 42.25 63.85 42.4 63.85
L 42.75 64.2 43.15 64.75
Q 43.15 65.05 43.05 65.2
L 43 65.35 43 65.45 44 66 44.3 66.7
Q 44.45 66.85 44.45 67.25 44.3 67.15 44.2 67.35 44.05 67.5 44.2 67.6 44.3 67.75 44.45 67.6
L 44.75 67.45 45.4 67.6 45.5 67.6 46 68.1
Q 46.2 68.1 46.25 68.2
L 46.55 68.35 46.9 68.45 48.5 68.7 48.75 68.7 49.2 68.75 49.7 68.6 50.4 68.25 50.45 68.2 50.9 67.6
Q 50.9 67.7 51.15 67.7 51.3 67.7 51.3 67.85
L 51.4 67.75 51.55 67.85
Q 52.05 68.2 52.75 68.25
L 52.8 68.35
Q 53 68.4 53.15 68.35
L 53.2 68.25
Q 53.35 68.4 53.5 68.2
L 54 68.1 54.05 68.1
Q 54.55 67.75 54.9 67.85
L 55 67.85
Q 55.25 67.7 55.25 67.6
L 55.25 66.95
Q 55.1 66.35 55.4 65.95
L 55.5 65.6 55.5 65.25 55.45 65.2 55 64.85 55 65
Q 54.994140625 64.75 54.7 64.75
L 54.2 64.6
Q 54.3 64.45 54.2 64.45
L 53.95 64.25
Q 53.75 64.25 53.5 63.85
L 53.45 63.75 53.5 62.95
Q 53.7 62.85 53.7 62.6
L 53.55 62.55
Q 53.3 62.45 53.3 62.25
L 53.25 61.8
Q 53.1 61.65 53.25 61.5
L 53.45 61.25
Q 53.55 61 53.7 61.1
L 54.5 61.5
Q 54.85 61.75 55.5 61.85 55.8 62 56.05 61.85
L 57.8 61.6
Q 58.45 61.6 58.65 61.55 58.8 61.55 59 61.3
L 59.25 61
Q 59.55 60.95 59.65 60.75
L 60.2 59.8 60.2 59.75
Q 60.45 59.75 60.25 59.55
L 60.75 58.6 61 58.45
Q 61.3 58.3 61.45 58.45 62.05 58.85 62.4 59.3
L 62.9 60.25 63 60.5
Q 63.1 60.75 63.3 60.8
L 63.4 60.85
Q 63.55 61.05 63.95 61.2
L 64.55 61.35
Q 64.65 61.5 65.15 61.75
L 65.15 61.8 65.65 62 65.75 62
Q 65.75 62.05 65.9 62.05
L 66.3 62.25
Q 66.55 62.5 66.9 62.55
L 67.4 62.75 67.8 62.8
Q 68.25 62.8 68.5 62.95
L 70.25 63
Q 70.85 63 71.15 62.8
L 71.9 62.6 72.3 62.3 72.75 61.85 72.8 61.75 73.05 60.5
Q 73.2 60.15 73 59.25
L 72.75 58.75
Q 72.6 58.25 72.4 58.05
L 72.25 57.7
Q 71.9 57.2 71.9 56.85
L 71.65 56.1 70.9 54.95
Q 70.75 54.65 70.75 54.25
L 70.65 54
Q 70.65 53.75 70.5 53.5
L 68.9 51.6 68.4 51.25
Q 68.1 51.15 67.75 51.25
L 67.05 51.25
Q 66.9 51.25 66.9 51.2
L 66.8 51.1 66.65 51.2
Q 66.5 51.2 66.4 51.1
L 65.8 50.7 65.4 50.55
Q 65.25 50.65 65.05 50.5
L 64.55 50.3
Q 64.5 50.35 64.25 50.25 64.1 50.3 64.05 50.25
L 63.5 50.1
Q 63 49.85 62.7 50
L 62.5 50.05 62.25 50 61.5 49.25 61.45 49.1
Q 61.45 49 61.3 48.95
L 61.15 48.25
Q 61.4 47.9 61.75 47.8 61.95 47.8 62.25 47.3 62.55 46.9 62.95 46.95
L 63 47 63.4 48 64.15 49.2 64.3 49.55 64.25 49.6
Q 64.15 49.55 64.15 49.7
L 64.25 49.75 64.3 49.75 64.3 49.85 64.5 49.75 64.5 49.95
Q 64.85 49.95 64.9 50.2
L 65.05 50.25 65.15 50.2 65.25 50
Q 65.4 50.35 65.8 50.35
L 65.8 50.55
Q 66.15 50.45 66.25 50.7
L 66.4 50.6 66.65 50.8 67.05 51 67.15 51 69.15 51.1 69.65 50.85 69.75 50.85
Q 69.85 50.85 70.05 50.6 70.15 50.35 70.3 50.25 70.45 50.15 70.55 49.75
L 70.65 49.05
Q 70.75 48.85 70.75 48.6 70.7 48.6 70.75 48.55 70.85 48.45 70.65 48.25 70.8 48.25 70.8 48.05
L 70.75 47.35 70.55 46.8 70.25 46.3 70.3 46.25
Q 70.2 45.95 69.9 45.75
L 69.75 45.5 69.65 45.25 69.55 45.2 69.25 44.95 69.15 44.85
Q 69.3 45.00625 69.3 45.3
L 69.05 45.5 69.15 45.1 68.9 44.75 68.9 45
Q 68.8 44.7 68.55 44.55
L 68.55 44.75
Q 68.4 44.5 67.8 44.5
L 67.8 44.35
Q 67.55 44.2 67.4 44.35
L 67.3 44.3 67.05 44.25 67.05 44.35 67 44.25 66.8 44.2 66.65 44.2 66.3 43.8
Q 66.15 43.7 66.05 43.35
L 65.9 43.05
Q 65.55 42.7 65.55 42.5
L 65.4 42.35 65.5 42.35 65.4 42.25 65.3 41.75 65.3 41.25
Q 65.4 40.75 65.3 40.5 64.85 40.35 64.8 40.1 64.8 39.85 64.65 39.85
L 64.65 39.8 64.55 39.6
Q 64.45 39.5 64.55 39.05
L 64.65 38.95
Q 64.6 38.75 64.8 38.7 64.8 38.45 64.65 38.3 64.7 38.6 64.55 38.7
L 64.4 38.25 64.55 38.3
Q 64.5 38.1 64.3 38.25
L 64.4 38.35 64.15 38.3 64 38.3 63.75 38.25 64.05 37.85
Q 63.85 37.85 63.75 38
L 63.7 38.05 63.2 38.3 62.5 38.45
Q 62.15 38.4 62 38.45 61.8 38.45 61.65 38.25
L 60.05 36.75 59.65 36.55
Q 59.3 36.35 59.2 36.05
L 58.9 35.8 58.8 35.75
Q 58.8 35.5 58.5 35.05
L 58 34.5 57.5 34.25 56.25 34.35 55 35.2 54.8 35.25 54.4 35.45
Q 54.1 35.45 54 35.55
L 53.9 35.55 53.4 36 53.3 36 52.95 36.25
Q 52.7 36.35 52.55 36.25
L 52.15 36.25 51.75 36.05 51.65 36.25 51.55 36.25
M 65.65 49.3
L 65.75 49.45 65.65 49.5 65.4 49.55 65.4 49.5 65.65 49.3
M 69.8 46.35
L 69.9 46.25 69.9 46.2
Q 69.8 46.15 69.8 45.95
L 70 46.05
Q 70.1 46.3 70 46.35
L 69.9 46.55 69.9 46.5 69.75 46.7
Q 69.8 46.75 69.75 46.95
L 69.55 46.6 69.65 46.5 69.9 46.5 69.8 46.35
M 70.05 48.2
Q 70.25 48.05 70.4 48.2 70.5 48.4 70.3 48.5
L 70.05 48.2
M 37.75 50.05
L 37.75 50.3 37.55 50.35 37.75 50.05
M 37.65 49.75
L 37.45 49.75 37.5 49.6 37.65 49.75
M 67.15 49.75
L 67.3 49.6 67.3 49.8 67.15 49.75
M 52.95 61.25
L 52.9 61.25 52.8 61.05
Q 53 61.05 53 61.2
L 52.95 61.25
M 58.7 60.6
L 58.75 60.5 58.9 60.7
Q 58.7 60.7 58.7 60.6
M 47.15 53.45
L 47.05 53.3 47.15 53.25 47.2 53.35 47.15 53.45
M 48.25 60.95
L 48.3 61 48.45 61.1 48.25 61.25
Q 48.2 61.2 48.25 60.95
M 47.9 62.25
L 47.9 62.35 47.8 62.35 47.8 62.25 47.9 62.25
M 53.05 62.5
L 53 62.55 53 62.3 53.15 62.45 53.05 62.5
M 53.25 67
L 53.4 67.1 53.3 67.2 53.25 67.2 53.25 67
M 54.7 67.35
L 54.45 67.35 54.4 67.2 54.75 67.2 54.7 67.35 Z"/>
</g>

<g id="Layer2_0_MEMBER_1_MEMBER_0_MEMBER_0_MEMBER_0_FILL">
<path fill="#000000" stroke="none" d="
M 40.95 36.35
L 40.9 36.5 40.75 36.7
Q 40.75 36.1 40.25 36
L 39.8 36.05 39.5 36.45 39.7 36.8
Q 39.75 37.05 40.05 37.05
L 40 37.25 40.05 37.3 40.25 37.1 40.75 36.8
Q 40.7 37 40.95 37.5
L 40.65 37.35
Q 40.25 37.5 40.25 37.6 40.05 37.9 40.25 38.1
L 40.3 38.3
Q 40.65 38.45 40.95 38.3
L 41 38.25 41.05 37.85 41.05 37.75 41.15 37.75
Q 41.15 37.95 41.5 38.1 41.75 38.3 42.05 38.2
L 42.4 38.7
Q 42.15 38.75 42.15 39.05 42.15 39.25 42.4 39.25 42.5 39.25 42.65 39.05 42.65 38.85 42.95 38.85
L 43.2 38.95 43.5 39
Q 44 38.85 44 38.45 44.05 38.3 44.4 37.95 44.4 37.8 44.55 37.8 44.65 37.7 44.4 37.7 44.4 37.35 44.15 37.2
L 44 37.05
Q 43.65 36.95 43.5 37.05
L 43.45 37.05 43.05 37.3 42.9 37.25
Q 42.8 37.25 42.8 37.5 42.3 37.65 42.65 37.45 42.65 37.05 42.3 36.75
L 42.15 36.5
Q 42.1 36.15 41.7 36 41.45 35.9 41.3 35.95
L 40.95 36.35 Z"/>
</g>

<g id="Layer2_0_MEMBER_2_MEMBER_0_MEMBER_0_MEMBER_0_FILL">
<path fill="#000000" stroke="none" d="
M 40.75 35.25
L 40.7 34.85 40.5 34.75
Q 40.5 34.55 40.45 34.55
L 40 34.05 39.3 33.7 39.25 33.75 39.15 33.6
Q 38.6 33.75 38.55 34.1
L 38.7 34.2 38.25 34.55
Q 38.2 34.75 38.25 34.75 38.4 35 38.4 35.25
L 38.7 35.8
Q 38.9 35.8 38.9 36
L 39 36.2
Q 39.25 36.45 39.5 36.25
L 39.7 35.8 39.8 35.95 39.9 35.7
Q 40 35.45 40.25 35.6 40.45 35.7 40.55 35.5 40.75 35.45 40.75 35.25 Z"/>
</g>

<g id="Layer2_0_MEMBER_3_MEMBER_0_MEMBER_0_MEMBER_0_FILL">
<path fill="#000000" stroke="none" d="
M 45.9 40
L 46.2 39.7
Q 46.25 39.55 46.2 39.35 46 38.9 45.5 39.1
L 45.3 38.85 45.25 38.75
Q 45.15 38.55 45 38.7
L 44.9 38.55
Q 44.7 38.45 44.55 38.5
L 44.3 38.5
Q 44.3 38.75 44.2 38.85 44.05 39.05 44 39.45
L 44.15 39.85
Q 44.15 39.95 44.4 40
L 44.45 40.05
Q 44.6 40.25 44.95 40.25
L 45.25 40.55 45.5 40.7 45.65 40.5
Q 45.75 40.5 45.75 40.3
L 45.9 40 Z"/>
</g>

<g id="Layer2_0_MEMBER_4_MEMBER_0_MEMBER_0_MEMBER_0_FILL">
<path fill="#000000" stroke="none" d="
M 29.45 47.25
L 29.7 47.7 29.75 47.75 30.6 48
Q 30.6 48.15 30.35 48.25 30.35 48.4 30.6 48.8
L 30.85 48.75
Q 31.1 48.75 31.1 48.5
L 31.1 48.1 31.2 48
Q 31.5 47.8 31.25 47.5
L 30.95 47 30.95 46.8 30.75 46.6 30.25 46.35 29.85 46.45
Q 29.5 46.65 29.5 46.8
L 29.5 46.85
Q 29.3 47 29.45 47.25 Z"/>
</g>

<g id="Layer2_0_MEMBER_5_MEMBER_0_MEMBER_0_MEMBER_0_FILL">
<path fill="#000000" stroke="none" d="
M 63.95 64.2
L 63.95 64.1 63.75 63.8 63.15 63.3 63 63.25
Q 62.9 63.15 62.75 63.2
L 62.45 63.25 62.15 63.35 62.05 63.45
Q 61.95 63.45 61.95 63.7
L 61.95 63.8
Q 61.95 64.5 62.25 64.7 62.65 64.95 63 64.95 63.35 65.1 63.65 64.85
L 63.95 64.2 Z"/>
</g>

<g id="Layer2_0_MEMBER_6_MEMBER_0_MEMBER_0_MEMBER_0_FILL">
<path fill="#000000" stroke="none" d="
M 43.65 45.75
L 43.75 46.3 43.9 46.35 44.05 46.5 44.9 47
Q 45 47 45 46.8
L 45 46.45 45.2 46.25 45.05 45.5
Q 44.8 45 44.25 45
L 43.95 45.1
Q 43.65 45.55 43.65 45.75 Z"/>
</g>

<g id="Layer2_0_MEMBER_7_MEMBER_0_MEMBER_0_MEMBER_0_FILL">
<path fill="#000000" stroke="none" d="
M 42.9 33.75
Q 42.6 33.7 42.45 33.75
L 42.2 33.75 41.8 34.25
Q 41.55 34.7 42.15 35
L 42.3 35.05
Q 42.55 35.15 42.8 35 43.25 34.65 43.15 34
L 42.9 33.75 Z"/>
</g>

<g id="Layer2_0_MEMBER_8_MEMBER_0_MEMBER_0_MEMBER_0_FILL">
<path fill="#000000" stroke="none" d="
M 44.2 32.25
L 44 31.75
Q 43.65 31.8 43.15 31.65
L 42.9 32.55
Q 43.05 32.55 43.15 32.75 43.3 33.2 43.8 33 44.05 32.85 44.15 32.7
L 44.25 32.5 44.2 32.25 Z"/>
</g>

<g id="Layer2_0_MEMBER_9_MEMBER_0_MEMBER_0_MEMBER_0_FILL">
<path fill="#000000" stroke="none" d="
M 46.7 41.5
L 46.8 41.25
Q 46.95 41.1 46.8 41
L 46.55 40.95 46.45 40.95
Q 46.35 40.85 46 40.85 45.65 41 45.55 41.25 45.45 41.6 45.75 41.8
L 46.05 42 46.05 42.2 46.45 41.85
Q 46.55 41.85 46.7 41.5 Z"/>
</g>

<g id="Layer2_0_MEMBER_10_MEMBER_0_MEMBER_0_MEMBER_0_FILL">
<path fill="#000000" stroke="none" d="
M 31.85 48
L 31.75 48.25
Q 31.9 48.8 32.5 48.8
L 32.95 48.5 33 48.25
Q 33 48.05 32.75 47.8 32.65 47.7 32.3 47.7 32.15 47.7 31.85 48 Z"/>
</g>

<g id="Layer2_0_MEMBER_11_MEMBER_0_MEMBER_0_MEMBER_0_FILL">
<path fill="#000000" stroke="none" d="
M 36 42.3
L 35.7 42.1 35.5 42.05
Q 35.2 42.1 35.05 42.5 35 42.75 35.3 43.05
L 35.7 43.2 36 43.2
Q 36.3 43.2 36.3 42.8 36.3 42.4 36 42.3 Z"/>
</g>

<g id="Layer2_0_MEMBER_12_MEMBER_0_MEMBER_0_MEMBER_0_FILL">
<path fill="#000000" stroke="none" d="
M 41.15 38.55
Q 40.95 38.35 40.7 38.5
L 40.5 38.55 40.4 38.95 40.5 39.25
Q 40.75 39.5 40.9 39.5 41.3 39.55 41.45 39.05
L 41.7 39.25 42 38.95
Q 41.65 38.7 41.4 38.95 41.4 38.6 41.2 38.6
L 41.15 38.55 Z"/>
</g>

<g id="Layer2_0_MEMBER_13_MEMBER_0_MEMBER_0_MEMBER_0_FILL">
<path fill="#000000" stroke="none" d="
M 37.8 42.45
L 37.55 42.35 37.5 42.5
Q 37.3 42.7 37.3 42.95 37.3 43.3 37.65 43.3 38.05 43.35 38.45 43.2 38.7 43.15 38.5 42.95 38.3 42.9 38.3 42.75
L 38.25 42.6
Q 38.05 42.45 37.8 42.45 Z"/>
</g>

<g id="Layer2_0_MEMBER_14_MEMBER_0_MEMBER_0_MEMBER_0_FILL">
<path fill="#000000" stroke="none" d="
M 38.75 42.5
L 38.9 42.8 39.15 43 39.5 43 39.7 42.75 39.75 42.6 39.75 42.5
Q 39.7 42.05 39.3 42.05
L 39 42.05 38.8 42.25 38.75 42.5 Z"/>
</g>

<g id="Layer2_0_MEMBER_15_MEMBER_0_MEMBER_0_MEMBER_0_FILL">
<path fill="#000000" stroke="none" d="
M 64.65 63.35
Q 64.8 63.45 64.8 63.3 64.95 63.25 64.8 63.1
L 64.75 63 64.5 62.8
Q 64.25 62.55 63.9 62.55
L 63.75 62.55
Q 63.55 62.55 63.55 62.75
L 63.55 62.95 64.3 63.3 64.65 63.35 Z"/>
</g>

<g id="Layer2_0_MEMBER_16_MEMBER_0_MEMBER_0_MEMBER_0_FILL">
<path fill="#000000" stroke="none" d="
M 38.25 35.6
L 37.95 35.6 37.55 35.95
Q 37.8 36.5 38.05 36.5 38.35 36.5 38.5 36.2 38.55 35.75 38.25 35.6 Z"/>
</g>

<g id="Layer2_0_MEMBER_17_MEMBER_0_MEMBER_0_MEMBER_0_FILL">
<path fill="#000000" stroke="none" d="
M 47.7 71.85
Q 47.8 71.85 47.8 71.7
L 47.9 71.2 47.3 70.95 47.05 71.35
Q 46.9 71.8 47.4 71.95
L 47.7 71.85 Z"/>
</g>

<g id="Layer2_0_MEMBER_18_MEMBER_0_MEMBER_0_MEMBER_0_FILL">
<path fill="#000000" stroke="none" d="
M 35.8 35.7
Q 35.7 35.6 35.4 35.75 35.2 35.75 35.2 36 35.2 36.45 35.65 36.5 35.8 36.6 35.95 36.35 36.05 36.15 36 36.05
L 35.95 35.75 35.8 35.7 Z"/>
</g>

<g id="Layer2_0_MEMBER_19_MEMBER_0_MEMBER_0_MEMBER_0_FILL">
<path fill="#000000" stroke="none" d="
M 40.5 45.45
Q 40.7 45.25 40.7 45.1
L 40.5 44.75
Q 40.2 44.4 40 44.75 39.8 44.8 39.9 45.05 39.9 45.5 40.25 45.55
L 40.5 45.45 Z"/>
</g>

<g id="Layer2_0_MEMBER_20_MEMBER_0_MEMBER_0_MEMBER_0_FILL">
<path fill="#000000" stroke="none" d="
M 33.75 46.8
Q 33.55 46.95 33.65 47.05 33.65 47.5 34 47.5 34.35 47.45 34.5 47.05
L 34.25 46.85
Q 34.15 46.75 34 46.75
L 33.75 46.8 Z"/>
</g>

<g id="Layer2_0_MEMBER_21_MEMBER_0_MEMBER_0_MEMBER_0_FILL">
<path fill="#000000" stroke="none" d="
M 43 41.85
Q 43.5 41.85 43.5 41.45 43.35 41.05 43.05 41.05 42.7 41.05 42.7 41.45 42.7 41.8 43 41.85 Z"/>
</g>

<g id="Layer2_0_MEMBER_22_MEMBER_0_MEMBER_0_MEMBER_0_FILL">
<path fill="#000000" stroke="none" d="
M 43.65 36.5
L 43.9 36.55
Q 44 36.65 44.25 36.35 44.25 35.85 44 35.8 43.7 35.7 43.55 36 43.35 36.3 43.65 36.5 Z"/>
</g>

<g id="Layer2_0_MEMBER_23_MEMBER_0_MEMBER_0_MEMBER_0_FILL">
<path fill="#000000" stroke="none" d="
M 44.4 69.2
Q 44.25 69.25 44.25 69.5 44.3 69.8 44.55 69.95
L 44.7 69.95
Q 44.95 69.8 44.95 69.5
L 44.7 69.2
Q 44.55 69.15 44.4 69.2 Z"/>
</g>

<g id="Layer2_0_MEMBER_24_MEMBER_0_MEMBER_0_MEMBER_0_FILL">
<path fill="#000000" stroke="none" d="
M 45.95 71.6
Q 45.55 71.6 45.55 71.85 45.55 72.15 45.75 72.35
L 45.9 72.35 46.25 72.2 46.25 71.85
Q 46.15 71.6 45.95 71.6 Z"/>
</g>

<g id="Layer2_0_MEMBER_25_MEMBER_0_MEMBER_0_MEMBER_0_FILL">
<path fill="#000000" stroke="none" d="
M 27.25 53
Q 27.4 53.25 27.5 53.05 27.75 53 27.75 52.7 27.75 52.3 27.5 52.3 27.2 52.3 27.2 52.55
L 27.1 52.75 27.25 53 Z"/>
</g>

<g id="Layer2_0_MEMBER_26_MEMBER_0_MEMBER_0_MEMBER_0_FILL">
<path fill="#000000" stroke="none" d="
M 39.25 32.85
L 38.95 32.8 38.75 32.85 38.75 33
Q 38.6 33.4 39 33.5 39.15 33.6 39.4 33.3 39.5 33.2 39.25 32.85 Z"/>
</g>

<g id="Layer2_0_MEMBER_27_MEMBER_0_MEMBER_0_MEMBER_0_FILL">
<path fill="#000000" stroke="none" d="
M 40.65 40.3
L 40.5 40.5
Q 40.45 40.75 40.55 40.85
L 40.9 41
Q 41.05 41 41.2 40.6 41.3 40.3 40.95 40.3
L 40.65 40.3 Z"/>
</g>

<g id="Layer2_0_MEMBER_28_MEMBER_0_MEMBER_0_MEMBER_0_FILL">
<path fill="#000000" stroke="none" d="
M 39 39
Q 39.15 39.1 39.25 39 39.65 39 39.65 38.6 39.5 38.3 39.25 38.3 38.9 38.3 38.9 38.75
L 39 39 Z"/>
</g>

<g id="Layer2_0_MEMBER_29_MEMBER_0_MEMBER_0_MEMBER_0_FILL">
<path fill="#000000" stroke="none" d="
M 28.25 58.5
L 28.1 58.3
Q 28 58.45 27.85 58.3 27.55 58.65 27.75 58.85 28 59.25 28.25 59 28.45 58.8 28.25 58.5 Z"/>
</g>

<g id="Layer2_0_MEMBER_30_MEMBER_0_MEMBER_0_MEMBER_0_FILL">
<path fill="#000000" stroke="none" d="
M 42.25 40.55
Q 42.65 40.45 42.5 40.25 42.4 40 42 40
L 41.75 40
Q 41.65 40 41.65 40.2
L 41.7 40.3 42.2 40.5 42.25 40.55 Z"/>
</g>

<g id="Layer2_0_MEMBER_31_MEMBER_0_MEMBER_0_MEMBER_0_FILL">
<path fill="#000000" stroke="none" d="
M 29.6 51.5
Q 29.25 51.45 29.2 51.75 29 52.1 29.45 52.25
L 29.75 52.05
Q 29.85 52.05 29.85 51.85 29.85 51.7 29.75 51.7
L 29.6 51.5 Z"/>
</g>

<g id="Layer2_0_MEMBER_32_MEMBER_0_MEMBER_0_MEMBER_0_FILL">
<path fill="#000000" stroke="none" d="
M 72.5 71.35
Q 72.5 70.95 72.15 70.95 71.8 70.95 71.8 71.35 71.8 71.65 72.15 71.7
L 72.4 71.5 72.5 71.35 Z"/>
</g>

<g id="Layer2_0_MEMBER_33_MEMBER_0_MEMBER_0_MEMBER_0_FILL">
<path fill="#000000" stroke="none" d="
M 37.75 37.2
Q 37.5 37.35 37.7 37.55
L 37.95 37.8 38.15 37.75
Q 38.4 37.6 38.25 37.25 38.25 37.05 38 37.05
L 37.75 37.2 Z"/>
</g>

<g id="Layer2_0_MEMBER_34_MEMBER_0_MEMBER_0_MEMBER_0_FILL">
<path fill="#000000" stroke="none" d="
M 58.65 73.75
Q 58.65 73.55 58.5 73.45
L 58.3 73.2 58.25 73.2 58.25 73.25
Q 57.9 73.4 58 73.7 58.05 74.05 58.4 73.95 58.55 73.95 58.65 73.75 Z"/>
</g>

<g id="Layer2_0_MEMBER_35_MEMBER_0_MEMBER_0_MEMBER_0_FILL">
<path fill="#000000" stroke="none" d="
M 32.15 35.25
Q 32.15 35.55 32.5 35.55 32.8 35.55 32.8 35.2 32.75 34.95 32.5 34.95 32.15 34.95 32.15 35.25 Z"/>
</g>

<g id="Layer2_0_MEMBER_36_MEMBER_0_MEMBER_0_MEMBER_0_FILL">
<path fill="#000000" stroke="none" d="
M 44.75 43.1
Q 44.65 43.35 44.75 43.5
L 44.9 43.55 45 43.6
Q 45.4 43.6 45.4 43.3 45.5 43 45.2 43 44.85 43 44.75 43.1 Z"/>
</g>

<g id="Layer2_0_MEMBER_37_MEMBER_0_MEMBER_0_MEMBER_0_FILL">
<path fill="#000000" stroke="none" d="
M 40.55 43.75
Q 40.5 44 40.55 44.05
L 40.75 44.25 41 44.25
Q 41.25 44.25 41.25 44.05 41.25 43.8 41.05 43.75
L 40.8 43.7
Q 40.75 43.65 40.55 43.75 Z"/>
</g>

<g id="Layer2_0_MEMBER_38_MEMBER_0_MEMBER_0_MEMBER_0_FILL">
<path fill="#000000" stroke="none" d="
M 37.3 41.85
Q 37.3 42 37.4 42.1
L 37.55 42.25
Q 37.8 42.25 37.95 42 37.95 41.6 37.8 41.6
L 37.5 41.55 37.3 41.85 Z"/>
</g>

<g id="Layer2_0_MEMBER_39_MEMBER_0_MEMBER_0_MEMBER_0_FILL">
<path fill="#000000" stroke="none" d="
M 66.3 62.75
Q 66.35 63.15 66.55 63.25
L 66.9 63.1 66.9 62.75 66.55 62.6
Q 66.3 62.5 66.3 62.75 Z"/>
</g>

<g id="Layer2_0_MEMBER_40_MEMBER_0_MEMBER_0_MEMBER_0_FILL">
<path fill="#000000" stroke="none" d="
M 43.65 40.35
L 43.95 40.2 43.8 39.75 43.45 39.8
Q 43.2 39.95 43.3 40.25
L 43.65 40.35 Z"/>
</g>

<g id="Layer2_0_MEMBER_41_MEMBER_0_MEMBER_0_MEMBER_0_FILL">
<path fill="#000000" stroke="none" d="
M 49.9 31.9
Q 49.9 32.25 50.2 32.25 50.5 32.25 50.5 31.9 50.5 31.65 50.25 31.65 49.9 31.65 49.9 31.9 Z"/>
</g>

<g id="Layer2_0_MEMBER_42_MEMBER_0_MEMBER_0_MEMBER_0_FILL">
<path fill="#000000" stroke="none" d="
M 48.25 71.2
Q 48 71.2 48 71.35 47.9 71.6 48.2 71.95
L 48.3 71.85
Q 48.5 71.7 48.5 71.45 48.5 71.2 48.25 71.2 Z"/>
</g>

<g id="Layer2_0_MEMBER_43_MEMBER_0_MEMBER_0_MEMBER_0_FILL">
<path fill="#000000" stroke="none" d="
M 26 53.3
Q 25.7 53.25 25.7 53.35
L 25.5 53.7 25.6 53.75
Q 25.65 53.95 26 53.95
L 26.1 53.6 26.1 53.5
Q 26.1 53.3 26 53.3 Z"/>
</g>

<g id="Layer2_0_MEMBER_44_MEMBER_0_MEMBER_0_MEMBER_0_FILL">
<path fill="#000000" stroke="none" d="
M 45.25 75.95
L 45.5 76.1 45.8 75.7 45.5 75.35 45.4 75.35
Q 45.2 75.4 45.2 75.7
L 45.25 75.95 Z"/>
</g>

<g id="Layer2_0_MEMBER_45_MEMBER_0_MEMBER_0_MEMBER_0_FILL">
<path fill="#000000" stroke="none" d="
M 41.55 42.55
Q 41.35 42.55 41.25 42.8 41.2 43 41.5 43.25 41.85 43.05 41.75 42.8 41.75 42.55 41.55 42.55 Z"/>
</g>

<g id="Layer2_0_MEMBER_46_MEMBER_0_MEMBER_0_MEMBER_0_FILL">
<path fill="#000000" stroke="none" d="
M 32.9 68.2
L 32.95 68.35 33.25 68.5
Q 33.45 68.4 33.45 68.25 33.6 68.15 33.4 67.95 33.25 67.85 33.05 67.95 32.9 68.05 32.9 68.2 Z"/>
</g>

<g id="Layer2_0_MEMBER_47_MEMBER_0_MEMBER_0_MEMBER_0_FILL">
<path fill="#000000" stroke="none" d="
M 54.8 63.25
L 54.7 63.45
Q 54.4 63.55 54.7 63.75
L 55 63.7 55.2 63.5 55.2 63.3
Q 55.2 63.2 55.05 63.1
L 54.8 63.25 Z"/>
</g>

<g id="Layer2_0_MEMBER_48_MEMBER_0_MEMBER_0_MEMBER_0_FILL">
<path fill="#000000" stroke="none" d="
M 21.85 61.2
Q 21.7 61.05 21.6 61.25 21.5 61.35 21.5 61.7
L 21.6 61.75
Q 21.85 61.9 21.95 61.7
L 22 61.35 21.85 61.2 Z"/>
</g>

<g id="Layer2_0_MEMBER_49_MEMBER_0_MEMBER_0_MEMBER_0_FILL">
<path fill="#000000" stroke="none" d="
M 36.75 47.35
L 36.75 47.2 36.65 47 36.45 47.05
Q 36.15 47.2 36.25 47.35 36.25 47.6 36.5 47.6 36.75 47.6 36.75 47.35 Z"/>
</g>

<g id="Layer2_0_MEMBER_50_MEMBER_0_MEMBER_0_MEMBER_0_FILL">
<path fill="#000000" stroke="none" d="
M 37.45 37.85
L 37.3 38
Q 37.1 38.1 37.2 38.3 37.3 38.4 37.5 38.3
L 37.75 38.2 37.8 37.95 37.7 37.75
Q 37.55 37.65 37.45 37.85 Z"/>
</g>

<g id="Layer2_0_MEMBER_51_MEMBER_0_MEMBER_0_MEMBER_0_FILL">
<path fill="#000000" stroke="none" d="
M 36.95 33.2
Q 37 33 36.9 32.85 36.8 32.75 36.5 32.75
L 36.45 33.1 36.7 33.25 36.95 33.2 Z"/>
</g>

<g id="Layer2_0_MEMBER_52_MEMBER_0_MEMBER_0_MEMBER_0_FILL">
<path fill="#000000" stroke="none" d="
M 64.4 69.2
L 64.5 68.95
Q 64.1 68.65 64 68.85
L 64.05 69.1 64.05 69.2
Q 64.25 69.4 64.4 69.2 Z"/>
</g>

<g id="Layer2_0_MEMBER_53_MEMBER_0_MEMBER_0_MEMBER_0_FILL">
<path fill="#000000" stroke="none" d="
M 44.15 44.8
L 44.5 44.75
Q 44.55 44.5 44.4 44.25
L 44.25 44.25 44.15 44.35
Q 43.95 44.7 44.15 44.8 Z"/>
</g>

<g id="Layer2_0_MEMBER_54_MEMBER_0_MEMBER_0_MEMBER_0_FILL">
<path fill="#000000" stroke="none" d="
M 38.65 46.2
Q 38.65 46.3 38.8 46.3
L 39.05 46.3 39 46 38.9 45.8
Q 38.7 45.8 38.7 45.85
L 38.65 46.2 Z"/>
</g>

<g id="Layer2_0_MEMBER_55_MEMBER_0_MEMBER_0_MEMBER_0_FILL">
<path fill="#000000" stroke="none" d="
M 35.5 41.55
Q 35.55 41.35 35.25 41.1
L 35 41.25 35.15 41.7
Q 35.15 42.05 35.25 41.75
L 35.5 41.55 Z"/>
</g>

<g id="Layer2_0_MEMBER_56_MEMBER_0_MEMBER_0_MEMBER_0_FILL">
<path fill="#000000" stroke="none" d="
M 44.8 36.85
Q 44.65 36.75 44.5 36.95 44.45 37 44.55 37.3
L 44.75 37.25 44.95 37.1
Q 45 36.95 44.8 36.85 Z"/>
</g>

<g id="Layer2_0_MEMBER_57_MEMBER_0_MEMBER_0_MEMBER_0_FILL">
<path fill="#000000" stroke="none" d="
M 45.5 45
Q 45.5 45.25 45.75 45.25 46 45.25 46 45 46 44.75 45.75 44.75 45.5 44.75 45.5 45 Z"/>
</g>

<g id="Layer2_0_MEMBER_58_MEMBER_0_MEMBER_0_MEMBER_0_FILL">
<path fill="#000000" stroke="none" d="
M 46.15 38.75
Q 46.15 38.45 45.8 38.45 45.65 38.45 45.65 38.7
L 45.95 38.8
Q 46 38.85 46.15 38.75 Z"/>
</g>

<g id="Layer2_0_MEMBER_59_MEMBER_0_MEMBER_0_MEMBER_0_FILL">
<path fill="#000000" stroke="none" d="
M 61.4 60.2
Q 61.15 60.3 61.25 60.5 61.35 60.6 61.55 60.6 61.7 60.45 61.55 60.25 61.5 60.1 61.4 60.2 Z"/>
</g>

<g id="Layer2_0_MEMBER_60_MEMBER_0_MEMBER_0_MEMBER_0_FILL">
<path fill="#000000" stroke="none" d="
M 32.55 46.85
L 32.7 46.75 32.7 46.7
Q 32.75 46.45 32.45 46.45 32.2 46.45 32.25 46.7 32.25 46.85 32.55 46.85 Z"/>
</g>

<g id="Layer2_0_MEMBER_61_MEMBER_0_MEMBER_0_MEMBER_0_FILL">
<path fill="#000000" stroke="none" d="
M 41 35.55
Q 41.25 35.55 41.25 35.35 41.35 35.2 41 35.2 40.8 35.2 40.8 35.45
L 41 35.55 Z"/>
</g>

<g id="Layer2_0_MEMBER_62_MEMBER_0_MEMBER_0_MEMBER_0_FILL">
<path fill="#000000" stroke="none" d="
M 32.5 41.25
Q 32.45 41.1 32.25 41.1
L 32.05 41.2 32.05 41.45
Q 32.2 41.55 32.25 41.5
L 32.5 41.25 Z"/>
</g>

<g id="Layer2_0_MEMBER_63_MEMBER_0_MEMBER_0_MEMBER_0_FILL">
<path fill="#000000" stroke="none" d="
M 47.45 32.5
Q 47.45 32.3 47.25 32.3 47.05 32.3 47.05 32.55 47.05 32.75 47.2 32.75 47.45 32.85 47.45 32.5 Z"/>
</g>

<g id="Layer2_0_MEMBER_64_MEMBER_0_MEMBER_0_MEMBER_0_FILL">
<path fill="#000000" stroke="none" d="
M 30.2 68.35
Q 30.35 68.35 30.35 68.1
L 30.2 67.85 30 68.1
Q 29.85 68.1 30 68.35
L 30.2 68.35 Z"/>
</g>

<g id="Layer2_0_MEMBER_65_MEMBER_0_MEMBER_0_MEMBER_0_FILL">
<path fill="#000000" stroke="none" d="
M 27.35 52
Q 27.5 52.1 27.5 51.95 27.65 51.8 27.45 51.55
L 27.25 51.85
Q 27.25 52 27.35 52 Z"/>
</g>

<g id="Layer2_0_MEMBER_66_MEMBER_0_MEMBER_0_MEMBER_0_FILL">
<path fill="#000000" stroke="none" d="
M 46.3 50.1
Q 46.3 49.95 46.05 50.05
L 46 50.3
Q 46.3 50.45 46.3 50.25 46.45 50.25 46.3 50.1 Z"/>
</g>

<g id="Layer2_0_MEMBER_67_MEMBER_0_MEMBER_0_MEMBER_0_FILL">
<path fill="#000000" stroke="none" d="
M 36.05 34
Q 36.3 34.1 36.3 33.95 36.35 33.8 36.15 33.6 36 33.7 36.05 34 Z"/>
</g>

<g id="Layer2_0_MEMBER_68_MEMBER_0_MEMBER_0_MEMBER_0_FILL">
<path fill="#000000" stroke="none" d="
M 46.45 39.95
L 46.3 39.75 46.25 40 46.45 40.2 46.65 39.95 46.55 39.8 46.5 39.85 46.45 39.95 Z"/>
</g>

<g id="Layer2_0_MEMBER_69_MEMBER_0_MEMBER_0_MEMBER_0_FILL">
<path fill="#000000" stroke="none" d="
M 34.9 36.8
L 34.75 37 34.95 37.2
Q 35.05 36.95 35 36.85
L 34.9 36.8 Z"/>
</g>

<g id="Layer2_0_MEMBER_70_MEMBER_0_MEMBER_0_MEMBER_0_FILL">
<path fill="#000000" stroke="none" d="
M 32.05 25.5
L 32.25 25.4
Q 32.25 25.2 32.05 25.15 31.95 25.35 32 25.4
L 32.05 25.5 Z"/>
</g>

<g id="Layer2_0_MEMBER_71_MEMBER_0_MEMBER_0_MEMBER_0_FILL">
<path fill="#000000" stroke="none" d="
M 58.75 68.35
Q 58.65 68.25 58.5 68.25 58.4 68.4 58.5 68.5
L 58.7 68.5 58.75 68.45 58.75 68.35 Z"/>
</g>

<g id="Layer2_0_MEMBER_72_MEMBER_0_MEMBER_0_MEMBER_0_FILL">
<path fill="#000000" stroke="none" d="
M 41.3 34.55
Q 41.7 34.45 41.55 34.25 41.5 34.2 41.25 34.3
L 41.3 34.55 Z"/>
</g>

<g id="Layer2_0_MEMBER_73_MEMBER_0_MEMBER_0_MEMBER_0_FILL">
<path fill="#000000" stroke="none" d="
M 38.65 37.95
L 38.65 38.25 38.95 38.2 38.9 38 38.65 37.95 Z"/>
</g>

<g id="Layer2_0_MEMBER_74_MEMBER_0_MEMBER_0_MEMBER_0_FILL">
<path fill="#000000" stroke="none" d="
M 40.15 43
Q 40.2 43 40.2 42.8
L 39.95 42.75 40 43 40.15 43 Z"/>
</g>

<g id="Layer2_0_MEMBER_75_MEMBER_0_MEMBER_0_MEMBER_0_FILL">
<path fill="#000000" stroke="none" d="
M 42.95 40.25
L 43 40.05 42.75 40
Q 42.65 40.15 42.75 40.25 42.8 40.3 42.95 40.25 Z"/>
</g>

<g id="Layer2_0_MEMBER_76_MEMBER_0_MEMBER_0_MEMBER_0_FILL">
<path fill="#000000" stroke="none" d="
M 57.65 23.8
L 57.7 23.65 57.55 23.5 57.5 23.5 57.45 23.65 57.5 23.8 57.65 23.8 Z"/>
</g>

<g id="Layer2_0_MEMBER_77_MEMBER_0_MEMBER_0_MEMBER_0_FILL">
<path fill="#000000" stroke="none" d="
M 59.9 30.25
L 60 30.05
Q 60 29.9 59.75 29.9
L 59.7 30.05
Q 59.7 30.3 59.9 30.25 Z"/>
</g>

<g id="Layer2_0_MEMBER_78_MEMBER_0_MEMBER_0_MEMBER_0_FILL">
<path fill="#000000" stroke="none" d="
M 53.75 24.65
L 53.75 24.5 53.5 24.5 53.5 24.75
Q 53.75 24.75 53.75 24.65 Z"/>
</g>

<g id="Layer2_0_MEMBER_79_MEMBER_0_MEMBER_0_MEMBER_0_FILL">
<path fill="#000000" stroke="none" d="
M 66.9 34.75
Q 66.85 34.6 66.75 34.75 66.55 34.85 66.8 35 67.05 34.75 66.9 34.75 Z"/>
</g>

<g id="Layer2_0_MEMBER_80_MEMBER_0_MEMBER_0_MEMBER_0_FILL">
<path fill="#000000" stroke="none" d="
M 39 43.3
L 39 43.25 38.8 43.05
Q 38.7 43.05 38.7 43.2 38.75 43.45 39 43.3 Z"/>
</g>

<g id="Layer2_0_MEMBER_81_MEMBER_0_MEMBER_0_MEMBER_0_FILL">
<path fill="#000000" stroke="none" d="
M 67.3 41
Q 67.15 41 67.15 41.1 67.2 41.25 67.3 41.25 67.5 41.25 67.4 41.1 67.4 41 67.3 41 Z"/>
</g>

<g id="Layer2_0_MEMBER_82_MEMBER_0_MEMBER_0_MEMBER_0_FILL">
<path fill="#000000" stroke="none" d="
M 59.55 32.35
Q 59.3 32.35 59.45 32.5
L 59.5 32.75 59.75 32.5 59.55 32.35 Z"/>
</g>

<g id="Layer2_0_MEMBER_83_MEMBER_0_MEMBER_0_MEMBER_0_FILL">
<path fill="#000000" stroke="none" d="
M 48.55 29.3
Q 48.5 29.15 48.25 29
L 48.25 29.3 48.55 29.3 Z"/>
</g>

<g id="Layer2_0_MEMBER_84_MEMBER_0_MEMBER_0_MEMBER_0_FILL">
<path fill="#000000" stroke="none" d="
M 62.65 32.8
Q 62.65 32.75 62.5 32.75
L 62.45 32.7
Q 62.3 32.95 62.5 32.95
L 62.65 32.8 Z"/>
</g>

<g id="Layer2_0_MEMBER_85_MEMBER_0_MEMBER_0_MEMBER_0_FILL">
<path fill="#000000" stroke="none" d="
M 41.65 41.55
L 41.65 41.75 41.75 41.75 41.75 41.6 41.7 41.5 41.65 41.55 Z"/>
</g>

<g id="Layer2_0_MEMBER_86_MEMBER_0_MEMBER_0_MEMBER_0_FILL">
<path fill="#000000" stroke="none" d="
M 45.05 41.8
Q 45.15 41.8 45 41.55
L 44.8 41.75
Q 45.05 41.9 45.05 41.8 Z"/>
</g>

<g id="Layer2_0_MEMBER_87_MEMBER_0_MEMBER_0_MEMBER_0_FILL">
<path fill="#000000" stroke="none" d="
M 26.75 67.2
L 26.95 67.2 27 66.95 26.95 66.85 26.75 67.1 26.75 67.2 Z"/>
</g>

<g id="Layer2_0_MEMBER_88_MEMBER_0_MEMBER_0_MEMBER_0_FILL">
<path fill="#000000" stroke="none" d="
M 38.65 41.5
L 38.75 41.5
Q 38.75 41.3 38.55 41.25
L 38.5 41.45 38.65 41.5 Z"/>
</g>

<g id="Layer2_0_MEMBER_89_MEMBER_0_MEMBER_0_MEMBER_0_FILL">
<path fill="#000000" stroke="none" d="
M 66.25 36.45
L 66.25 36.5 66.3 36.7 66.4 36.5 66.3 36.45 66.25 36.45 Z"/>
</g>

<g id="Layer2_0_MEMBER_91_MEMBER_0_MEMBER_0_MEMBER_0_FILL">
<path fill="#000000" stroke="none" d="
M 52.65 74.7
L 52.75 74.85 52.9 74.7 52.75 74.6 52.65 74.7 Z"/>
</g>

<g id="Layer2_0_MEMBER_92_MEMBER_0_MEMBER_0_MEMBER_0_FILL">
<path fill="#000000" stroke="none" d="
M 52.55 33.5
Q 52.55 33.6 52.65 33.6
L 52.75 33.5
Q 52.55 33.45 52.55 33.5 Z"/>
</g>

<g id="Layer2_0_MEMBER_93_MEMBER_0_MEMBER_0_MEMBER_0_FILL">
<path fill="#000000" stroke="none" d="
M 37.95 34.05
Q 37.9 34.05 37.9 34.25
L 38 34.25
Q 38.2 34.05 37.95 34.05 Z"/>
</g>

<g id="Layer2_0_MEMBER_94_MEMBER_0_MEMBER_0_MEMBER_0_FILL">
<path fill="#000000" stroke="none" d="
M 55.65 64.95
L 55.65 65
Q 55.65 65.2 55.75 65 55.75 64.9 55.65 64.95 Z"/>
</g>

<g id="Layer2_0_MEMBER_96_MEMBER_0_MEMBER_0_MEMBER_0_FILL">
<path fill="#000000" stroke="none" d="
M 58.65 28.3
L 58.5 28.15 58.5 28.25 58.55 28.4 58.65 28.3 Z"/>
</g>

<g id="Layer2_0_MEMBER_97_MEMBER_0_MEMBER_0_MEMBER_0_FILL">
<path fill="#000000" stroke="none" d="
M 66.3 43.35
Q 66.4 43.2 66.3 43.2 66.3 43.15 66.15 43.2
L 66.3 43.35 Z"/>
</g>

<g id="Layer2_0_MEMBER_99_MEMBER_0_MEMBER_0_MEMBER_0_FILL">
<path fill="#000000" stroke="none" d="
M 48.25 34.55
L 48.25 34.7 48.3 34.75 48.4 34.7 48.25 34.55 Z"/>
</g>

<g id="Layer2_0_MEMBER_100_MEMBER_0_MEMBER_0_MEMBER_0_FILL">
<path fill="#000000" stroke="none" d="
M 35.3 33.5
L 35.25 33.55
Q 35.2 33.7 35.3 33.7 35.45 33.55 35.3 33.5 Z"/>
</g>

<g id="Layer2_0_MEMBER_101_MEMBER_0_MEMBER_0_MEMBER_0_FILL">
<path fill="#000000" stroke="none" d="
M 40.5 42.95
L 40.5 42.8 40.45 42.8 40.45 42.95 40.5 42.95 Z"/>
</g>
</defs>

<g transform="matrix( 1, 0, 0, 1, 0,0) ">
<use xlink:href="#Layer2_0_MEMBER_0_MEMBER_0_MEMBER_0_MEMBER_0_FILL"/>
</g>

<g transform="matrix( 1, 0, 0, 1, 0,0) ">
<use xlink:href="#Layer2_0_MEMBER_1_MEMBER_0_MEMBER_0_MEMBER_0_FILL"/>
</g>

<g transform="matrix( 1, 0, 0, 1, 0,0) ">
<use xlink:href="#Layer2_0_MEMBER_2_MEMBER_0_MEMBER_0_MEMBER_0_FILL"/>
</g>

<g transform="matrix( 1, 0, 0, 1, 0,0) ">
<use xlink:href="#Layer2_0_MEMBER_3_MEMBER_0_MEMBER_0_MEMBER_0_FILL"/>
</g>

<g transform="matrix( 1, 0, 0, 1, 0,0) ">
<use xlink:href="#Layer2_0_MEMBER_4_MEMBER_0_MEMBER_0_MEMBER_0_FILL"/>
</g>

<g transform="matrix( 1, 0, 0, 1, 0,0) ">
<use xlink:href="#Layer2_0_MEMBER_5_MEMBER_0_MEMBER_0_MEMBER_0_FILL"/>
</g>

<g transform="matrix( 1, 0, 0, 1, 0,0) ">
<use xlink:href="#Layer2_0_MEMBER_6_MEMBER_0_MEMBER_0_MEMBER_0_FILL"/>
</g>

<g transform="matrix( 1, 0, 0, 1, 0,0) ">
<use xlink:href="#Layer2_0_MEMBER_7_MEMBER_0_MEMBER_0_MEMBER_0_FILL"/>
</g>

<g transform="matrix( 1, 0, 0, 1, 0,0) ">
<use xlink:href="#Layer2_0_MEMBER_8_MEMBER_0_MEMBER_0_MEMBER_0_FILL"/>
</g>

<g transform="matrix( 1, 0, 0, 1, 0,0) ">
<use xlink:href="#Layer2_0_MEMBER_9_MEMBER_0_MEMBER_0_MEMBER_0_FILL"/>
</g>

<g transform="matrix( 1, 0, 0, 1, 0,0) ">
<use xlink:href="#Layer2_0_MEMBER_10_MEMBER_0_MEMBER_0_MEMBER_0_FILL"/>
</g>

<g transform="matrix( 1, 0, 0, 1, 0,0) ">
<use xlink:href="#Layer2_0_MEMBER_11_MEMBER_0_MEMBER_0_MEMBER_0_FILL"/>
</g>

<g transform="matrix( 1, 0, 0, 1, 0,0) ">
<use xlink:href="#Layer2_0_MEMBER_12_MEMBER_0_MEMBER_0_MEMBER_0_FILL"/>
</g>

<g transform="matrix( 1, 0, 0, 1, 0,0) ">
<use xlink:href="#Layer2_0_MEMBER_13_MEMBER_0_MEMBER_0_MEMBER_0_FILL"/>
</g>

<g transform="matrix( 1, 0, 0, 1, 0,0) ">
<use xlink:href="#Layer2_0_MEMBER_14_MEMBER_0_MEMBER_0_MEMBER_0_FILL"/>
</g>

<g transform="matrix( 1, 0, 0, 1, 0,0) ">
<use xlink:href="#Layer2_0_MEMBER_15_MEMBER_0_MEMBER_0_MEMBER_0_FILL"/>
</g>

<g transform="matrix( 1, 0, 0, 1, 0,0) ">
<use xlink:href="#Layer2_0_MEMBER_16_MEMBER_0_MEMBER_0_MEMBER_0_FILL"/>
</g>

<g transform="matrix( 1, 0, 0, 1, 0,0) ">
<use xlink:href="#Layer2_0_MEMBER_17_MEMBER_0_MEMBER_0_MEMBER_0_FILL"/>
</g>

<g transform="matrix( 1, 0, 0, 1, 0,0) ">
<use xlink:href="#Layer2_0_MEMBER_18_MEMBER_0_MEMBER_0_MEMBER_0_FILL"/>
</g>

<g transform="matrix( 1, 0, 0, 1, 0,0) ">
<use xlink:href="#Layer2_0_MEMBER_19_MEMBER_0_MEMBER_0_MEMBER_0_FILL"/>
</g>

<g transform="matrix( 1, 0, 0, 1, 0,0) ">
<use xlink:href="#Layer2_0_MEMBER_20_MEMBER_0_MEMBER_0_MEMBER_0_FILL"/>
</g>

<g transform="matrix( 1, 0, 0, 1, 0,0) ">
<use xlink:href="#Layer2_0_MEMBER_21_MEMBER_0_MEMBER_0_MEMBER_0_FILL"/>
</g>

<g transform="matrix( 1, 0, 0, 1, 0,0) ">
<use xlink:href="#Layer2_0_MEMBER_22_MEMBER_0_MEMBER_0_MEMBER_0_FILL"/>
</g>

<g transform="matrix( 1, 0, 0, 1, 0,0) ">
<use xlink:href="#Layer2_0_MEMBER_23_MEMBER_0_MEMBER_0_MEMBER_0_FILL"/>
</g>

<g transform="matrix( 1, 0, 0, 1, 0,0) ">
<use xlink:href="#Layer2_0_MEMBER_24_MEMBER_0_MEMBER_0_MEMBER_0_FILL"/>
</g>

<g transform="matrix( 1, 0, 0, 1, 0,0) ">
<use xlink:href="#Layer2_0_MEMBER_25_MEMBER_0_MEMBER_0_MEMBER_0_FILL"/>
</g>

<g transform="matrix( 1, 0, 0, 1, 0,0) ">
<use xlink:href="#Layer2_0_MEMBER_26_MEMBER_0_MEMBER_0_MEMBER_0_FILL"/>
</g>

<g transform="matrix( 1, 0, 0, 1, 0,0) ">
<use xlink:href="#Layer2_0_MEMBER_27_MEMBER_0_MEMBER_0_MEMBER_0_FILL"/>
</g>

<g transform="matrix( 1, 0, 0, 1, 0,0) ">
<use xlink:href="#Layer2_0_MEMBER_28_MEMBER_0_MEMBER_0_MEMBER_0_FILL"/>
</g>

<g transform="matrix( 1, 0, 0, 1, 0,0) ">
<use xlink:href="#Layer2_0_MEMBER_29_MEMBER_0_MEMBER_0_MEMBER_0_FILL"/>
</g>

<g transform="matrix( 1, 0, 0, 1, 0,0) ">
<use xlink:href="#Layer2_0_MEMBER_30_MEMBER_0_MEMBER_0_MEMBER_0_FILL"/>
</g>

<g transform="matrix( 1, 0, 0, 1, 0,0) ">
<use xlink:href="#Layer2_0_MEMBER_31_MEMBER_0_MEMBER_0_MEMBER_0_FILL"/>
</g>

<g transform="matrix( 1, 0, 0, 1, 0,0) ">
<use xlink:href="#Layer2_0_MEMBER_32_MEMBER_0_MEMBER_0_MEMBER_0_FILL"/>
</g>

<g transform="matrix( 1, 0, 0, 1, 0,0) ">
<use xlink:href="#Layer2_0_MEMBER_33_MEMBER_0_MEMBER_0_MEMBER_0_FILL"/>
</g>

<g transform="matrix( 1, 0, 0, 1, 0,0) ">
<use xlink:href="#Layer2_0_MEMBER_34_MEMBER_0_MEMBER_0_MEMBER_0_FILL"/>
</g>

<g transform="matrix( 1, 0, 0, 1, 0,0) ">
<use xlink:href="#Layer2_0_MEMBER_35_MEMBER_0_MEMBER_0_MEMBER_0_FILL"/>
</g>

<g transform="matrix( 1, 0, 0, 1, 0,0) ">
<use xlink:href="#Layer2_0_MEMBER_36_MEMBER_0_MEMBER_0_MEMBER_0_FILL"/>
</g>

<g transform="matrix( 1, 0, 0, 1, 0,0) ">
<use xlink:href="#Layer2_0_MEMBER_37_MEMBER_0_MEMBER_0_MEMBER_0_FILL"/>
</g>

<g transform="matrix( 1, 0, 0, 1, 0,0) ">
<use xlink:href="#Layer2_0_MEMBER_38_MEMBER_0_MEMBER_0_MEMBER_0_FILL"/>
</g>

<g transform="matrix( 1, 0, 0, 1, 0,0) ">
<use xlink:href="#Layer2_0_MEMBER_39_MEMBER_0_MEMBER_0_MEMBER_0_FILL"/>
</g>

<g transform="matrix( 1, 0, 0, 1, 0,0) ">
<use xlink:href="#Layer2_0_MEMBER_40_MEMBER_0_MEMBER_0_MEMBER_0_FILL"/>
</g>

<g transform="matrix( 1, 0, 0, 1, 0,0) ">
<use xlink:href="#Layer2_0_MEMBER_41_MEMBER_0_MEMBER_0_MEMBER_0_FILL"/>
</g>

<g transform="matrix( 1, 0, 0, 1, 0,0) ">
<use xlink:href="#Layer2_0_MEMBER_42_MEMBER_0_MEMBER_0_MEMBER_0_FILL"/>
</g>

<g transform="matrix( 1, 0, 0, 1, 0,0) ">
<use xlink:href="#Layer2_0_MEMBER_43_MEMBER_0_MEMBER_0_MEMBER_0_FILL"/>
</g>

<g transform="matrix( 1, 0, 0, 1, 0,0) ">
<use xlink:href="#Layer2_0_MEMBER_44_MEMBER_0_MEMBER_0_MEMBER_0_FILL"/>
</g>

<g transform="matrix( 1, 0, 0, 1, 0,0) ">
<use xlink:href="#Layer2_0_MEMBER_45_MEMBER_0_MEMBER_0_MEMBER_0_FILL"/>
</g>

<g transform="matrix( 1, 0, 0, 1, 0,0) ">
<use xlink:href="#Layer2_0_MEMBER_46_MEMBER_0_MEMBER_0_MEMBER_0_FILL"/>
</g>

<g transform="matrix( 1, 0, 0, 1, 0,0) ">
<use xlink:href="#Layer2_0_MEMBER_47_MEMBER_0_MEMBER_0_MEMBER_0_FILL"/>
</g>

<g transform="matrix( 1, 0, 0, 1, 0,0) ">
<use xlink:href="#Layer2_0_MEMBER_48_MEMBER_0_MEMBER_0_MEMBER_0_FILL"/>
</g>

<g transform="matrix( 1, 0, 0, 1, 0,0) ">
<use xlink:href="#Layer2_0_MEMBER_49_MEMBER_0_MEMBER_0_MEMBER_0_FILL"/>
</g>

<g transform="matrix( 1, 0, 0, 1, 0,0) ">
<use xlink:href="#Layer2_0_MEMBER_50_MEMBER_0_MEMBER_0_MEMBER_0_FILL"/>
</g>

<g transform="matrix( 1, 0, 0, 1, 0,0) ">
<use xlink:href="#Layer2_0_MEMBER_51_MEMBER_0_MEMBER_0_MEMBER_0_FILL"/>
</g>

<g transform="matrix( 1, 0, 0, 1, 0,0) ">
<use xlink:href="#Layer2_0_MEMBER_52_MEMBER_0_MEMBER_0_MEMBER_0_FILL"/>
</g>

<g transform="matrix( 1, 0, 0, 1, 0,0) ">
<use xlink:href="#Layer2_0_MEMBER_53_MEMBER_0_MEMBER_0_MEMBER_0_FILL"/>
</g>

<g transform="matrix( 1, 0, 0, 1, 0,0) ">
<use xlink:href="#Layer2_0_MEMBER_54_MEMBER_0_MEMBER_0_MEMBER_0_FILL"/>
</g>

<g transform="matrix( 1, 0, 0, 1, 0,0) ">
<use xlink:href="#Layer2_0_MEMBER_55_MEMBER_0_MEMBER_0_MEMBER_0_FILL"/>
</g>

<g transform="matrix( 1, 0, 0, 1, 0,0) ">
<use xlink:href="#Layer2_0_MEMBER_56_MEMBER_0_MEMBER_0_MEMBER_0_FILL"/>
</g>

<g transform="matrix( 1, 0, 0, 1, 0,0) ">
<use xlink:href="#Layer2_0_MEMBER_57_MEMBER_0_MEMBER_0_MEMBER_0_FILL"/>
</g>

<g transform="matrix( 1, 0, 0, 1, 0,0) ">
<use xlink:href="#Layer2_0_MEMBER_58_MEMBER_0_MEMBER_0_MEMBER_0_FILL"/>
</g>

<g transform="matrix( 1, 0, 0, 1, 0,0) ">
<use xlink:href="#Layer2_0_MEMBER_59_MEMBER_0_MEMBER_0_MEMBER_0_FILL"/>
</g>

<g transform="matrix( 1, 0, 0, 1, 0,0) ">
<use xlink:href="#Layer2_0_MEMBER_60_MEMBER_0_MEMBER_0_MEMBER_0_FILL"/>
</g>

<g transform="matrix( 1, 0, 0, 1, 0,0) ">
<use xlink:href="#Layer2_0_MEMBER_61_MEMBER_0_MEMBER_0_MEMBER_0_FILL"/>
</g>

<g transform="matrix( 1, 0, 0, 1, 0,0) ">
<use xlink:href="#Layer2_0_MEMBER_62_MEMBER_0_MEMBER_0_MEMBER_0_FILL"/>
</g>

<g transform="matrix( 1, 0, 0, 1, 0,0) ">
<use xlink:href="#Layer2_0_MEMBER_63_MEMBER_0_MEMBER_0_MEMBER_0_FILL"/>
</g>

<g transform="matrix( 1, 0, 0, 1, 0,0) ">
<use xlink:href="#Layer2_0_MEMBER_64_MEMBER_0_MEMBER_0_MEMBER_0_FILL"/>
</g>

<g transform="matrix( 1, 0, 0, 1, 0,0) ">
<use xlink:href="#Layer2_0_MEMBER_65_MEMBER_0_MEMBER_0_MEMBER_0_FILL"/>
</g>

<g transform="matrix( 1, 0, 0, 1, 0,0) ">
<use xlink:href="#Layer2_0_MEMBER_66_MEMBER_0_MEMBER_0_MEMBER_0_FILL"/>
</g>

<g transform="matrix( 1, 0, 0, 1, 0,0) ">
<use xlink:href="#Layer2_0_MEMBER_67_MEMBER_0_MEMBER_0_MEMBER_0_FILL"/>
</g>

<g transform="matrix( 1, 0, 0, 1, 0,0) ">
<use xlink:href="#Layer2_0_MEMBER_68_MEMBER_0_MEMBER_0_MEMBER_0_FILL"/>
</g>

<g transform="matrix( 1, 0, 0, 1, 0,0) ">
<use xlink:href="#Layer2_0_MEMBER_69_MEMBER_0_MEMBER_0_MEMBER_0_FILL"/>
</g>

<g transform="matrix( 1, 0, 0, 1, 0,0) ">
<use xlink:href="#Layer2_0_MEMBER_70_MEMBER_0_MEMBER_0_MEMBER_0_FILL"/>
</g>

<g transform="matrix( 1, 0, 0, 1, 0,0) ">
<use xlink:href="#Layer2_0_MEMBER_71_MEMBER_0_MEMBER_0_MEMBER_0_FILL"/>
</g>

<g transform="matrix( 1, 0, 0, 1, 0,0) ">
<use xlink:href="#Layer2_0_MEMBER_72_MEMBER_0_MEMBER_0_MEMBER_0_FILL"/>
</g>

<g transform="matrix( 1, 0, 0, 1, 0,0) ">
<use xlink:href="#Layer2_0_MEMBER_73_MEMBER_0_MEMBER_0_MEMBER_0_FILL"/>
</g>

<g transform="matrix( 1, 0, 0, 1, 0,0) ">
<use xlink:href="#Layer2_0_MEMBER_74_MEMBER_0_MEMBER_0_MEMBER_0_FILL"/>
</g>

<g transform="matrix( 1, 0, 0, 1, 0,0) ">
<use xlink:href="#Layer2_0_MEMBER_75_MEMBER_0_MEMBER_0_MEMBER_0_FILL"/>
</g>

<g transform="matrix( 1, 0, 0, 1, 0,0) ">
<use xlink:href="#Layer2_0_MEMBER_76_MEMBER_0_MEMBER_0_MEMBER_0_FILL"/>
</g>

<g transform="matrix( 1, 0, 0, 1, 0,0) ">
<use xlink:href="#Layer2_0_MEMBER_77_MEMBER_0_MEMBER_0_MEMBER_0_FILL"/>
</g>

<g transform="matrix( 1, 0, 0, 1, 0,0) ">
<use xlink:href="#Layer2_0_MEMBER_78_MEMBER_0_MEMBER_0_MEMBER_0_FILL"/>
</g>

<g transform="matrix( 1, 0, 0, 1, 0,0) ">
<use xlink:href="#Layer2_0_MEMBER_79_MEMBER_0_MEMBER_0_MEMBER_0_FILL"/>
</g>

<g transform="matrix( 1, 0, 0, 1, 0,0) ">
<use xlink:href="#Layer2_0_MEMBER_80_MEMBER_0_MEMBER_0_MEMBER_0_FILL"/>
</g>

<g transform="matrix( 1, 0, 0, 1, 0,0) ">
<use xlink:href="#Layer2_0_MEMBER_81_MEMBER_0_MEMBER_0_MEMBER_0_FILL"/>
</g>

<g transform="matrix( 1, 0, 0, 1, 0,0) ">
<use xlink:href="#Layer2_0_MEMBER_82_MEMBER_0_MEMBER_0_MEMBER_0_FILL"/>
</g>

<g transform="matrix( 1, 0, 0, 1, 0,0) ">
<use xlink:href="#Layer2_0_MEMBER_83_MEMBER_0_MEMBER_0_MEMBER_0_FILL"/>
</g>

<g transform="matrix( 1, 0, 0, 1, 0,0) ">
<use xlink:href="#Layer2_0_MEMBER_84_MEMBER_0_MEMBER_0_MEMBER_0_FILL"/>
</g>

<g transform="matrix( 1, 0, 0, 1, 0,0) ">
<use xlink:href="#Layer2_0_MEMBER_85_MEMBER_0_MEMBER_0_MEMBER_0_FILL"/>
</g>

<g transform="matrix( 1, 0, 0, 1, 0,0) ">
<use xlink:href="#Layer2_0_MEMBER_86_MEMBER_0_MEMBER_0_MEMBER_0_FILL"/>
</g>

<g transform="matrix( 1, 0, 0, 1, 0,0) ">
<use xlink:href="#Layer2_0_MEMBER_87_MEMBER_0_MEMBER_0_MEMBER_0_FILL"/>
</g>

<g transform="matrix( 1, 0, 0, 1, 0,0) ">
<use xlink:href="#Layer2_0_MEMBER_88_MEMBER_0_MEMBER_0_MEMBER_0_FILL"/>
</g>

<g transform="matrix( 1, 0, 0, 1, 0,0) ">
<use xlink:href="#Layer2_0_MEMBER_89_MEMBER_0_MEMBER_0_MEMBER_0_FILL"/>
</g>

<g transform="matrix( 1, 0, 0, 1, 0,0) ">
<use xlink:href="#Layer2_0_MEMBER_91_MEMBER_0_MEMBER_0_MEMBER_0_FILL"/>
</g>

<g transform="matrix( 1, 0, 0, 1, 0,0) ">
<use xlink:href="#Layer2_0_MEMBER_92_MEMBER_0_MEMBER_0_MEMBER_0_FILL"/>
</g>

<g transform="matrix( 1, 0, 0, 1, 0,0) ">
<use xlink:href="#Layer2_0_MEMBER_93_MEMBER_0_MEMBER_0_MEMBER_0_FILL"/>
</g>

<g transform="matrix( 1, 0, 0, 1, 0,0) ">
<use xlink:href="#Layer2_0_MEMBER_94_MEMBER_0_MEMBER_0_MEMBER_0_FILL"/>
</g>

<g transform="matrix( 1, 0, 0, 1, 0,0) ">
<use xlink:href="#Layer2_0_MEMBER_96_MEMBER_0_MEMBER_0_MEMBER_0_FILL"/>
</g>

<g transform="matrix( 1, 0, 0, 1, 0,0) ">
<use xlink:href="#Layer2_0_MEMBER_97_MEMBER_0_MEMBER_0_MEMBER_0_FILL"/>
</g>

<g transform="matrix( 1, 0, 0, 1, 0,0) ">
<use xlink:href="#Layer2_0_MEMBER_99_MEMBER_0_MEMBER_0_MEMBER_0_FILL"/>
</g>

<g transform="matrix( 1, 0, 0, 1, 0,0) ">
<use xlink:href="#Layer2_0_MEMBER_100_MEMBER_0_MEMBER_0_MEMBER_0_FILL"/>
</g>

<g transform="matrix( 1, 0, 0, 1, 0,0) ">
<use xlink:href="#Layer2_0_MEMBER_101_MEMBER_0_MEMBER_0_MEMBER_0_FILL"/>
</g>
</svg>
