
<svg xmlns="http://www.w3.org/2000/svg" version="1.1" xmlns:xlink="http://www.w3.org/1999/xlink" preserveAspectRatio="none" x="0px" y="0px" width="100px" height="100px" viewBox="0 0 100 100">
<defs>
<g id="Layer2_0_MEMBER_0_MEMBER_0_MEMBER_0_FILL">
<path fill="#000000" stroke="none" d="
M 11.05 54.1
Q 11.2 55.05 12.05 55.35
L 12.65 55.35 13.15 55.45
Q 13.3 55.55 13.45 55.4
L 13.6 55.5
Q 13.95 55.5 14.15 55.05 14.2 54.95 14.2 54.25 14.15 53.8 13.75 53.35 13.35 52.9 12.95 52.8
L 12.9 52.8
Q 12.85 52.6 12.5 52.6
L 11.8 52.85 11.6 53 11.4 53.1 11.2 53.55 11.15 53.95 11.05 54.1 Z"/>
</g>

<g id="Layer2_0_MEMBER_0_MEMBER_0_MEMBER_1_FILL">
<path fill="#000000" stroke="none" d="
M 81.75 33.15
L 81.45 33.15
Q 81.2 32.55 80.9 32.4
L 80.65 32.05
Q 80.8 31.5 80.25 31.6 80.15 31.55 80 31.25 80 31 79.8 30.85
L 79.55 30.6
Q 79.5 30.35 79.1 30.15 78.65 29.85 77.6 29.85 77.4 29.85 77.45 29.75 77.5 29.65 77.5 29.55 77.65 29.15 77.7 28.95 77.8 28.55 77.45 28.3 76.85 27.4 76.25 27.3
L 75.7 27.3
Q 75.35 27 75.1 27.05
L 75 26.85
Q 75.35 26.65 75.55 25.75 75.75 25.15 75.25 24.5 74.8 23.85 74.15 23.75 73.4 23.6 72.6 24
L 71.8 23.2
Q 72 22.7 71.65 22.25
L 71.6 22
Q 72.15 20.85 71.3 19.75 70.6 18.85 70.15 18.45 69.85 18.3 69.7 18.2 69.6 18.1 68.9 17.95 68.1 17.7 67.7 17.9
L 67.3 18 66.65 18.65
Q 66.5 18.75 66.15 18.8 65.7 18.8 65.6 18.85
L 65.5 18.85
Q 65.25 18.65 64.85 18.65
L 64.65 18.55 64.25 18.45
Q 62.1 17.7 59.45 17.45 58.6 17.25 58.1 17.3 57.55 17.05 56.3 16.85 55.75 16.75 56.1 16.35 56.35 15.8 55.8 15.25 55.45 14.8 55.3 14.85 54.5 15.25 54.4 15.4 54.2 15.7 54.25 16.05 54.3 16.4 54.55 16.65
L 54.3 16.65
Q 53.3 16.55 53.1 16.55
L 52.95 16.55 51.55 16.3
Q 51.2 16.3 51.15 16.3 50.95 16.25 50.95 15.95
L 50.9 15.85
Q 50.8 16.2 50.3 16.15
L 48.55 16
Q 47.5 15.75 46.15 15.65
L 45.05 15.65
Q 44.1 15.6 43.6 15.7 44.05 15.25 43.55 14.75 42.9 14 42.55 13.75 41.75 13.2 40.9 13.45 40.35 13.55 40.15 13.9 40.05 14.1 39.65 14.1 39 14.15 38.5 14.6 38 15.15 38.25 15.8 37.3 15.95 36.4 16.25
L 35.95 16.45 35.5 16.45
Q 35.35 16.45 34.9 16.55 34.5 16.65 34.3 16.55 34.05 16.45 33.6 16.65 33.4 16.75 33.35 17.05 33.25 17.4 33.2 17.45
L 32.2 17.9
Q 31.5 18.05 30.95 18.4 30.25 18.55 30 18.8
L 29.95 18.85
Q 29.8 18.85 28.85 19.4 27.6 19.95 26.1 21.2
L 25.55 21.65
Q 24.85 22.2 24.8 22.3
L 23.95 22.95
Q 23.45 22.9 22.65 23.2 22.25 23.45 22.2 23.55 21.8 23.8 21.55 24.55
L 21 24.65 20.9 24.55
Q 20.65 23.95 20.1 23.75
L 19.65 23.65
Q 18.7 23.3 17.25 23.75 16.55 24.1 16.45 24.95 16.25 25.15 16.25 25.6 16.3 25.9 16.7 26.5 17 27.05 17.6 27.2 18.6 27.45 19.35 27.05 19.25 27.15 19.3 27.3 19.5 27.5 19.7 27.95 19.95 28.4 20.1 28.6 19.35 29.85 19.45 30.5 19.45 30.85 19.7 31.55 19.7 31.95 19.8 32.05
L 19.8 32.4 19.65 32.5
Q 18.85 33.5 18 35.6 17.15 37 17.25 39.15
L 17.2 39.3
Q 17.1 39.8 17.15 40.9
L 17.15 42.45 17 42.75
Q 15.55 44.1 15.25 44.9 15.15 44.95 15.15 45.25 15.1 45.45 14.7 46.65 14.45 47.5 14.35 48.1
L 14.2 48.05
Q 13.8 48.55 13.65 48.9 13.6 49 13.4 49.1 12.8 49.25 12.2 50.15 11.95 50.7 12.15 51.25
L 12.4 51.75 12.5 51.9 12.5 52
Q 12.6 52.1 12.8 52.25 13 52.25 13.45 52.4 13.8 52.5 14.05 52.45
L 14.45 52.4
Q 14.45 52.5 14.65 53.1 14.75 53.55 14.7 53.85 14.3 54.05 14.25 54.4 14.2 54.7 14.5 55.05 14.8 55.35 14.9 55.95 14.9 56.2 15.05 56.5
L 15.1 56.85 15.05 57.5 14.7 58.05 14.6 58.15
Q 14.35 58.25 14.35 58.5
L 14.25 58.6
Q 14.15 58.7 14.05 59.05 14 59.1 14 59.5
L 13.6 59.5
Q 13.2 59.65 13.15 59.85 13.15 60.2 13.45 60.35 13.8 60.55 14 60.2 14.05 60.05 14.25 60.15 14.3 60.45 14.6 60.5 14.95 60.75 15.8 60.75
L 16.1 61.5
Q 16.15 61.55 16.15 61.7 16.2 61.85 16.3 61.85 16.55 62.45 16.8 62.75
L 16.9 63.05 17.35 63.95
Q 17.95 65.45 18.9 66.35 19.6 67.3 20.9 68.35
L 21 68.45 22.25 69.15
Q 22.05 69.6 21.85 70.5 21.35 71.95 22.15 73.1 22.45 73.55 22.55 73.55 22.7 73.6 23 73.8 23.1 73.85 23.45 73.95 23.75 74 23.9 74.15 24.2 74.85 24.8 75.05 25 75.15 25.4 75.35 25.75 75.5 26.05 75.4
L 26.3 75.55 26.65 76.1 26.95 76.45
Q 26.4 76.95 26.15 77.7 26 78.3 26.15 78.9 26.35 79.45 26.75 79.6 26.9 79.65 27.3 79.9 28 80.9 28.95 80.05 29.1 79.9 29.15 79.65 29.2 79.3 29.3 79.2 29.65 79.7 30.55 80.1
L 31.4 80.55
Q 32.5 81.1 33.3 81.35
L 33.6 81.35 33.65 81.4
Q 33.85 81.5 34.3 81.7 34.6 82 35.2 82.1 35.3 82.1 35.75 82.05 36.05 81.95 36.25 82.1 37.3 82.85 38.5 82.35
L 39.35 82.85
Q 39.65 83.05 40.35 83.3 40.4 83.4 40.6 83.4
L 40.95 83.4
Q 41 83.45 41.45 83.45
L 41.5 83.5 41.85 83.5 42.05 83.45 42.15 83.5
Q 42.7 83.75 44.15 83.75
L 45.95 83.7
Q 47.05 84 48.1 83.8
L 48.25 83.8 48.55 83.75
Q 48.85 83.7 49.8 84.15
L 50.2 84.35 50.2 84.4
Q 51.5 85.35 52.2 85.65
L 52.35 85.75
Q 52.95 86.05 53.3 86.1 54.15 86.35 54.85 86.3
L 54.9 86.3
Q 55.1 86.4 55.35 86.4
L 55.75 86.3 57.45 86.4
Q 57.55 86.4 58.05 86.4 58.45 86.4 58.65 86.3
L 59 86.3
Q 60.3 86 61.4 85.4
L 64.25 84.2
Q 65.3 83.65 66.5 82.65
L 69.8 80.85
Q 70.6 80.4 71.05 79.9 72.85 78.95 74.35 77.5 75.8 76.55 76.8 75.1 76.9 74.95 77.15 74.7 77.3 74.45 77.35 74.25 77.55 74.05 77.55 74
L 77.8 73.65
Q 78.6 72.25 79.65 69.5 79.8 69.3 79.8 68.95
L 80 65.5
Q 80 65.35 80.35 64.9 81.15 63.85 81.2 63.7 81.35 63.65 81.35 63.4
L 81.55 63.25 82.1 62.4 82.2 62.3
Q 82.4 62.1 82.6 61.45 82.8 60.85 83.1 60.6
L 83.45 60 83.6 60 83.85 59.6
Q 84.1 59.1 84.2 58.3 84.25 57.4 84.3 56.95
L 84.2 56.7
Q 84.25 55.55 84.1 54.95
L 84 54.5 83.7 53.75
Q 83.75 53.6 83.7 53.4 83.65 53.1 83.65 53 83.35 52.4 83.45 52.05 83.55 51.75 83.3 51.5
L 83.15 51.3 83.05 51.1
Q 82.65 50.6 82.8 50.25 83.35 49.3 83.45 49.2 84.4 48.15 84.2 47.25 84.1 46.95 84.1 46.3
L 84.05 46.05
Q 83.2 43.95 83.15 43.7 83.05 42.25 82.65 41.6
L 82.25 40.6
Q 82.35 39.2 82.3 38.4 82.3 37.65 82.1 37.4
L 82 36.7
Q 82.15 36.65 82.65 36.05 82.75 35.8 82.65 35.65 82.2 35.1 81.8 34.95
L 81.65 33.9 81.85 33.9
Q 82.3 34 82.4 33.75 82.55 33.45 82.35 33.25 82.1 32.95 81.75 33.15
M 59.5 45
L 59.7 45
Q 59.7 45.1 59.6 45.1
L 59.5 45 Z"/>
</g>

<g id="Layer2_0_MEMBER_0_MEMBER_0_MEMBER_2_FILL">
<path fill="#000000" stroke="none" d="
M 16.65 76.05
Q 16 75 15.5 74.85 14.95 74.7 13.85 74.6 12.75 74.5 11.7 75.45 11.3 75.85 11.25 76.2
L 11.25 76.65
Q 11.3 76.95 10.95 77.2
L 10.6 77.55
Q 10.2 78.1 10.2 78.85 10.2 79.9 10.8 80.2
L 10.9 80.35
Q 11.1 80.8 11.5 80.8 12.55 81 13.35 80.65 13.5 80.5 13.85 80.45 14.25 80.35 14.35 80.2
L 14.95 79.75 15.25 79.45
Q 15.35 79.5 15.7 79.4 16 79.35 16.15 79.5
L 16.25 79.45
Q 16.65 79.05 16.85 78.8 17.15 78.35 17.1 77.9
L 17.1 77.75
Q 17.45 77.35 17.25 77.1 16.9 76.35 16.65 76.05 Z"/>
</g>

<g id="Layer2_0_MEMBER_0_MEMBER_0_MEMBER_3_FILL">
<path fill="#000000" stroke="none" d="
M 30.2 88.95
Q 29.8 87.75 28.85 87.75
L 28.65 87.7
Q 28.25 87.55 28.05 87.5 27.7 87.45 27.4 87.55 27.3 87.55 26.9 87.85 26.6 88.25 26.75 89 26.95 89.7 27.35 90.1 28 90.85 28.5 90.85 28.9 90.95 29.3 90.7 29.5 90.7 29.7 90.5 30.45 89.9 30.2 88.95 Z"/>
</g>

<g id="Layer2_0_MEMBER_0_MEMBER_0_MEMBER_4_FILL">
<path fill="#000000" stroke="none" d="
M 15.9 83.3
Q 16.1 83.05 16.15 82.8 16.15 81.55 15.3 81.55 14.95 81.55 14.65 81.85 14.35 82.1 14.35 82.45 14.35 82.8 14.75 83.2 15.1 83.55 15.5 83.55 15.7 83.55 15.9 83.3 Z"/>
</g>

<g id="Layer2_0_MEMBER_0_MEMBER_0_MEMBER_5_FILL">
<path fill="#000000" stroke="none" d="
M 14.55 68.85
Q 15.25 69.1 15.5 68.5 15.8 67.9 15.25 67.7
L 15.15 67.6
Q 14.5 67.35 14.3 68 14.2 68.35 14.2 68.45 14.2 68.7 14.55 68.85 Z"/>
</g>

<g id="Layer2_0_MEMBER_0_MEMBER_0_MEMBER_6_FILL">
<path fill="#000000" stroke="none" d="
M 16.7 89.2
Q 16.7 88.85 16.2 88.75 15.6 88.85 15.6 89.25 15.55 89.85 16.2 89.85 16.5 89.9 16.6 89.65 16.65 89.65 16.7 89.2 Z"/>
</g>

<g id="Layer2_0_MEMBER_0_MEMBER_0_MEMBER_7_FILL">
<path fill="#000000" stroke="none" d="
M 19.55 78.3
L 19.25 78.1
Q 18.75 77.85 18.5 78.25 18.15 78.7 18.55 79 19 79.6 19.45 79.25 19.7 79.05 19.7 78.8 19.75 78.5 19.55 78.3 Z"/>
</g>

<g id="Layer2_0_MEMBER_0_MEMBER_0_MEMBER_8_FILL">
<path fill="#000000" stroke="none" d="
M 12.95 62.9
Q 12.7 62.8 12.7 63.1 12.7 63.4 13.05 63.55 13.25 63.55 13.35 63.25 13.35 62.9 12.95 62.9 Z"/>
</g>

<g id="Layer2_0_MEMBER_0_MEMBER_0_MEMBER_9_FILL">
<path fill="#000000" stroke="none" d="
M 27.1 9.7
Q 27.2 10.05 27.45 10.05 27.85 10.05 27.85 9.65 27.75 9.15 27.45 9.2 27.1 9.2 27.1 9.7 Z"/>
</g>

<g id="Layer2_0_MEMBER_0_MEMBER_0_MEMBER_10_FILL">
<path fill="#000000" stroke="none" d="
M 84.85 40.1
Q 85.05 39.35 84.45 38.95 83.75 38.5 83.1 39.15 82.45 39.6 82.35 39.9 82.3 40.2 82.8 40.6 83.7 41 84.45 40.6 84.75 40.45 84.85 40.1 Z"/>
</g>

<g id="Layer2_0_MEMBER_0_MEMBER_0_MEMBER_11_FILL">
<path fill="#000000" stroke="none" d="
M 74 21.15
Q 74 21.45 74.55 21.55 74.75 21.6 75 21.4 75.2 21.2 75.25 21 75.25 20.75 75.05 20.6 74.85 20.4 74.6 20.4 74.25 20.35 74.15 20.5 74.05 20.65 74 21.15 Z"/>
</g>

<g id="Layer2_0_MEMBER_0_MEMBER_0_MEMBER_12_FILL">
<path fill="#000000" stroke="none" d="
M 82.25 25.85
L 82.35 26.05 82.55 26.2
Q 82.7 26.4 82.9 26.4 84.5 26.4 83.95 25.2 83.8 24.85 83.45 24.7 83.1 24.55 82.8 24.7 82 25 82.25 25.85 Z"/>
</g>

<g id="Layer2_0_MEMBER_0_MEMBER_0_MEMBER_13_FILL">
<path fill="#000000" stroke="none" d="
M 32 11.7
L 31.4 12.15
Q 31.05 12.2 31.05 12.65 30.7 13.65 31.25 14.45 31.8 15.25 32.85 15.25
L 33.95 15.25
Q 34.35 15.35 34.65 15
L 35.05 14.55
Q 35.2 14.35 35.05 14.1 35.1 13.7 34.95 13.55 34.35 12.3 33.3 11.9 32.6 11.45 32 11.7 Z"/>
</g>

<g id="Layer2_0_MEMBER_0_MEMBER_0_MEMBER_14_FILL">
<path fill="#000000" stroke="none" d="
M 23.35 15.55
Q 23.65 15.75 24.05 15.65 24.8 15.5 24.55 14.65 24.5 14.4 24.2 14.2 23.65 13.9 22.95 14.35 22.8 14.45 22.95 15 23 15.35 23.35 15.55 Z"/>
</g>

<g id="Layer2_0_MEMBER_0_MEMBER_0_MEMBER_15_FILL">
<path fill="#000000" stroke="none" d="
M 43.6 13.35
Q 43.6 13.8 44.3 13.9 44.65 13.95 44.75 13.35 44.75 13.15 44.55 12.95 44.35 12.7 44.15 12.75 43.6 12.85 43.6 13.35 Z"/>
</g>

<g id="Layer2_0_MEMBER_0_MEMBER_0_MEMBER_16_FILL">
<path fill="#000000" stroke="none" d="
M 28.3 12.55
Q 28 12.3 27.65 12.55 27.05 13 27.3 13.4 27.7 14.05 28.4 13.75 28.55 13.65 28.65 13.35 28.65 13.1 28.65 12.95 28.65 12.75 28.45 12.65
L 28.3 12.55 Z"/>
</g>

<g id="Layer2_0_MEMBER_0_MEMBER_0_MEMBER_17_FILL">
<path fill="#000000" stroke="none" d="
M 89.75 61.5
Q 89.75 61.15 89.7 61.05 89 60.15 88.35 60.1 87.15 60.1 86.75 61.05 86.15 61.45 86.1 61.75 85.9 62.25 86.2 62.7 86.45 63.1 87 63.25 88.1 63.45 89.2 62.85 89.75 62.4 89.75 61.5 Z"/>
</g>

<g id="Layer2_0_MEMBER_0_MEMBER_0_MEMBER_18_FILL">
<path fill="#000000" stroke="none" d="
M 82.85 72.75
Q 82.8 72.3 82.2 72.3 81.6 72.2 81.7 72.75 81.7 73.4 82.2 73.4 82.45 73.4 82.65 73.2 82.9 73 82.85 72.75 Z"/>
</g>
</defs>

<g transform="matrix( 1, 0, 0, 1, 0,0) ">
<use xlink:href="#Layer2_0_MEMBER_0_MEMBER_0_MEMBER_0_FILL"/>
</g>

<g transform="matrix( 1, 0, 0, 1, 0,0) ">
<use xlink:href="#Layer2_0_MEMBER_0_MEMBER_0_MEMBER_1_FILL"/>
</g>

<g transform="matrix( 1, 0, 0, 1, 0,0) ">
<use xlink:href="#Layer2_0_MEMBER_0_MEMBER_0_MEMBER_2_FILL"/>
</g>

<g transform="matrix( 1, 0, 0, 1, 0,0) ">
<use xlink:href="#Layer2_0_MEMBER_0_MEMBER_0_MEMBER_3_FILL"/>
</g>

<g transform="matrix( 1, 0, 0, 1, 0,0) ">
<use xlink:href="#Layer2_0_MEMBER_0_MEMBER_0_MEMBER_4_FILL"/>
</g>

<g transform="matrix( 1, 0, 0, 1, 0,0) ">
<use xlink:href="#Layer2_0_MEMBER_0_MEMBER_0_MEMBER_5_FILL"/>
</g>

<g transform="matrix( 1, 0, 0, 1, 0,0) ">
<use xlink:href="#Layer2_0_MEMBER_0_MEMBER_0_MEMBER_6_FILL"/>
</g>

<g transform="matrix( 1, 0, 0, 1, 0,0) ">
<use xlink:href="#Layer2_0_MEMBER_0_MEMBER_0_MEMBER_7_FILL"/>
</g>

<g transform="matrix( 1, 0, 0, 1, 0,0) ">
<use xlink:href="#Layer2_0_MEMBER_0_MEMBER_0_MEMBER_8_FILL"/>
</g>

<g transform="matrix( 1, 0, 0, 1, 0,0) ">
<use xlink:href="#Layer2_0_MEMBER_0_MEMBER_0_MEMBER_9_FILL"/>
</g>

<g transform="matrix( 1, 0, 0, 1, 0,0) ">
<use xlink:href="#Layer2_0_MEMBER_0_MEMBER_0_MEMBER_10_FILL"/>
</g>

<g transform="matrix( 1, 0, 0, 1, 0,0) ">
<use xlink:href="#Layer2_0_MEMBER_0_MEMBER_0_MEMBER_11_FILL"/>
</g>

<g transform="matrix( 1, 0, 0, 1, 0,0) ">
<use xlink:href="#Layer2_0_MEMBER_0_MEMBER_0_MEMBER_12_FILL"/>
</g>

<g transform="matrix( 1, 0, 0, 1, 0,0) ">
<use xlink:href="#Layer2_0_MEMBER_0_MEMBER_0_MEMBER_13_FILL"/>
</g>

<g transform="matrix( 1, 0, 0, 1, 0,0) ">
<use xlink:href="#Layer2_0_MEMBER_0_MEMBER_0_MEMBER_14_FILL"/>
</g>

<g transform="matrix( 1, 0, 0, 1, 0,0) ">
<use xlink:href="#Layer2_0_MEMBER_0_MEMBER_0_MEMBER_15_FILL"/>
</g>

<g transform="matrix( 1, 0, 0, 1, 0,0) ">
<use xlink:href="#Layer2_0_MEMBER_0_MEMBER_0_MEMBER_16_FILL"/>
</g>

<g transform="matrix( 1, 0, 0, 1, 0,0) ">
<use xlink:href="#Layer2_0_MEMBER_0_MEMBER_0_MEMBER_17_FILL"/>
</g>

<g transform="matrix( 1, 0, 0, 1, 0,0) ">
<use xlink:href="#Layer2_0_MEMBER_0_MEMBER_0_MEMBER_18_FILL"/>
</g>
</svg>
