
<svg xmlns="http://www.w3.org/2000/svg" version="1.1" xmlns:xlink="http://www.w3.org/1999/xlink" preserveAspectRatio="none" x="0px" y="0px" width="100px" height="100px" viewBox="0 0 100 100">
<defs>
<g id="Layer2_0_MEMBER_0_MEMBER_0_MEMBER_0_FILL">
<path fill="#000000" stroke="none" d="
M 34.6 82.55
Q 34.6 81.75 33.65 81.4 33.3 80.85 32.85 80.85 32.45 80.75 32.2 81 31.95 81.15 31.95 81.35 31.6 82.45 32.3 83.45 32.7 83.75 32.9 83.75
L 33.1 83.85 33.3 84.3
Q 33.55 84.85 33.85 85 34.3 85.6 34.3 85.65 34.3 85.35 34.65 85.45 35.45 85.3 35.5 85.25
L 35.6 85.2 35.65 85.1
Q 35.95 84.85 36.15 84.3 36.1 83.35 35.8 83 35.45 82.65 34.6 82.55 Z"/>
</g>

<g id="Layer2_0_MEMBER_0_MEMBER_0_MEMBER_1_FILL">
<path fill="#000000" stroke="none" d="
M 72.2 84.75
Q 72.1 83.75 71.05 83.65 70.7 83.45 70.55 83.4 70.25 83.3 69.95 83.45 69.2 83.7 69.4 84.55 69.5 85 70.05 85.55
L 70.3 85.75
Q 70.8 86.15 71.75 85.65 71.85 85.6 71.85 85.4 72.2 85.25 72.2 84.75 Z"/>
</g>

<g id="Layer2_0_MEMBER_0_MEMBER_0_MEMBER_2_FILL">
<path fill="#000000" stroke="none" d="
M 22.55 78.4
Q 22.3 78.2 22.05 78.2 21.2 78.2 21.2 79.15 21.2 79.85 21.75 79.85 22.15 79.9 22.45 79.6 22.75 79.25 22.75 78.85 22.75 78.6 22.55 78.4 Z"/>
</g>

<g id="Layer2_0_MEMBER_0_MEMBER_0_MEMBER_3_FILL">
<path fill="#000000" stroke="none" d="
M 10.05 40.65
Q 10.55 40.95 10.95 40.45 11.2 40.1 11.15 39.8 11 39.15 10.25 39.05 9.95 38.95 9.7 39.6 9.55 39.8 9.65 40.15 9.8 40.45 10.05 40.65 Z"/>
</g>

<g id="Layer2_0_MEMBER_0_MEMBER_0_MEMBER_4_FILL">
<path fill="#000000" stroke="none" d="
M 16.15 72.75
Q 16.45 72.15 16.1 71.9 15.95 71.6 15.6 71.6 15.35 71.6 15 72.15 14.75 72.6 15.35 73 15.9 73.3 16.15 72.75 Z"/>
</g>

<g id="Layer2_0_MEMBER_0_MEMBER_0_MEMBER_5_FILL">
<path fill="#000000" stroke="none" d="
M 11.95 57.2
Q 13.35 57.1 12.7 55.95 12.15 55.35 11.45 55.4 10.3 55.4 10.25 56.4 10.25 57.2 10.8 57.4 11.55 57.65 11.95 57.2 Z"/>
</g>

<g id="Layer2_0_MEMBER_0_MEMBER_0_MEMBER_6_FILL">
<path fill="#000000" stroke="none" d="
M 18.8 83.55
Q 18.8 83.1 18.3 83.1 17.8 83.1 17.8 83.6 17.9 84.1 18.25 84.1 18.7 84 18.8 83.55 Z"/>
</g>

<g id="Layer2_0_MEMBER_0_MEMBER_0_MEMBER_7_FILL">
<path fill="#000000" stroke="none" d="
M 22.75 78.05
Q 22.75 78.55 23.3 78.55 23.8 78.55 23.7 78.05 23.7 77.6 23.3 77.65 22.75 77.75 22.75 78.05 Z"/>
</g>

<g id="Layer2_0_MEMBER_0_MEMBER_0_MEMBER_8_FILL">
<path fill="#000000" stroke="none" d="
M 8.4 58.95
Q 8.05 58.45 7.25 58.75 6.65 59.35 6.7 59.6 6.95 60.3 7.45 60.35 7.7 60.45 8.25 60.1 8.75 59.65 8.4 58.95 Z"/>
</g>

<g id="Layer2_0_MEMBER_0_MEMBER_0_MEMBER_9_FILL">
<path fill="#000000" stroke="none" d="
M 61.25 84.25
Q 61.35 83.85 60.9 83.85 60.4 83.85 60.4 84.35 60.4 84.75 60.9 84.75 61.25 84.75 61.25 84.25 Z"/>
</g>

<g id="Layer2_0_MEMBER_0_MEMBER_0_MEMBER_10_FILL">
<path fill="#000000" stroke="none" d="
M 33 84.7
Q 33.1 84.35 32.75 84.35 32.4 84.35 32.4 84.6 32.4 84.95 32.7 85.1 33 85.1 33 84.7 Z"/>
</g>

<g id="Layer2_0_MEMBER_0_MEMBER_0_MEMBER_11_FILL">
<path fill="#000000" stroke="none" d="
M 13.8 74.35
Q 13.6 73.8 13.45 73.7 13.1 73.4 12.35 73.7 12 73.85 11.9 74.35 11.85 74.85 12.15 75.1 12.75 75.5 13.25 75.25 13.95 74.95 13.8 74.35 Z"/>
</g>

<g id="Layer2_0_MEMBER_0_MEMBER_0_MEMBER_12_FILL">
<path fill="#000000" stroke="none" d="
M 71.35 76.65
Q 71.6 76.65 71.6 76.35 71.6 76.2 71.45 76.2 71.2 76.35 71.2 76.5 71.2 76.65 71.35 76.65 Z"/>
</g>

<g id="Layer2_0_MEMBER_0_MEMBER_0_MEMBER_13_FILL">
<path fill="#000000" stroke="none" d="
M 26.95 90.65
Q 26.9 90.45 26.65 90.3 26.5 89.65 26.1 89.45 25.65 89.3 25.1 89.65 24.45 90.35 24.55 91.5 24.6 92.05 25 92.45 25.45 92.8 25.9 92.7 26.7 92.65 27.05 92 27.35 91.35 26.95 90.65 Z"/>
</g>

<g id="Layer2_0_MEMBER_0_MEMBER_0_MEMBER_14_FILL">
<path fill="#000000" stroke="none" d="
M 81.6 33.85
Q 81.6 33.75 81 32.6 80.2 31.55 79.9 31.3
L 79.4 30.6
Q 79.35 30.35 79.1 30.2 79.05 30.05 78.8 29.8 78.6 29.6 78.55 29.4 78.8 28.55 78.1 28 77.85 27.8 77.4 27.75 76.95 27.7 76.7 27.65
L 76.6 27.6
Q 76.1 27 75.7 26.95
L 75.6 26.85 75.55 25.5
Q 75.4 24.6 74.55 24.35
L 74.25 24.2 73.9 23.55
Q 75 22.7 75.45 22.6 75.95 22.5 76.15 21.8 76.4 21.15 76.15 20.7 75.45 19.15 74.3 19 73.3 18.9 72.65 19.25 71.9 19.65 71.8 20.5
L 71.5 20.3 71.3 20
Q 71.5 19.85 71.7 19.35 71.95 19 72.45 19.05 72.55 18.9 73.05 18.5 73.45 18.2 73.45 17.75
L 73.6 16.35
Q 73.7 15.9 73.35 15.55 72.15 14.35 71.7 14.15 70.65 13.75 69.8 14.15
L 69.55 14.3
Q 69.25 14.75 68.2 15.05 67.4 15.25 67.1 15.85 66.75 16.45 66.95 17.2 67.05 17.7 67.05 17.75 66.8 17.7 65.55 17.55 64.65 17.4 64.4 17.45
L 64.4 17.35 64.75 16.8
Q 65 16.4 64.85 16.05 64.7 15.7 64.3 15.7 63.4 15.7 63.55 14.85
L 63.5 14.7 63.4 14.55
Q 63.35 14.35 63.15 14.15
L 62.8 13.8
Q 62.25 13.25 61.15 13.5 60.1 13.75 59.85 14.45 59.65 14.65 59.45 14.45 58.15 13.55 57.9 13.45
L 57.55 13.45
Q 57.15 13.2 56.75 13.45 56.2 13.8 55.75 13.35 54.2 13 53.2 13.35 52.6 14 52.55 14.15 52.5 14.55 52 14.55 51.25 14.55 50.3 14.3 49.2 14.05 48.6 13.9 47.5 13.7 46.8 13.9 46.6 13.8 46.3 13.8 46 13.85 45.8 13.85
L 45.7 13.85
Q 45.5 13.8 45.4 13.8 45.15 13.8 45.05 13.9 44.65 14 44.45 14
L 44.35 14
Q 44.4 13.2 44.25 12.85
L 44.25 13.9
Q 44.05 14 43.7 14
L 43.6 14
Q 43.25 14 43.15 14.1
L 43.15 14.15
Q 40.65 14.3 38.85 14.9 38.25 15.2 37.85 15.2 38.2 14.85 38.1 14.6 37.9 13.55 37.6 13.1 37.1 12.4 36.65 12.35 36.05 12.25 35.7 11.45
L 35.5 11.15
Q 35.3 11 35.15 11 34.8 10.7 34.6 10.6 34.25 10.35 33.95 10.35 33.4 10.2 32.55 10.65 31.85 11.05 31.55 11.8 31.2 12.6 31.5 13.35 31.5 13.5 31.5 13.95 31.45 14.3 31.55 14.55 31.65 14.65 31.8 14.95 31.9 15.25 32.05 15.35
L 32.1 15.9
Q 32 16.05 32.1 16.25 31.8 16.55 31.55 16.55 30.75 16.1 30.4 16.25 29.75 16.25 29.6 16.85 29.25 17.65 29.8 18.2 30.1 18.5 30.05 18.65 28.4 19.8 27.55 20.35 26.65 20.9 26.4 21.2 26.1 21.3 26.1 21.45
L 25.9 21.65
Q 25.2 22.6 24.35 22.85 23.75 23.1 23.65 23.2 23.45 23.35 23 23.65
L 22 24.35 21.55 24.55
Q 21.5 24.45 21 23.95 20.6 23.4 19.9 23.65 19.5 23.85 19.35 24.05
L 19.25 24.2
Q 19.1 24.35 19.1 24.6 19.1 24.95 18.8 24.85 17.7 24.45 16.55 25.2
L 16.45 25.2
Q 16.25 25.2 16.05 25.5 15.8 25.65 15.8 25.75
L 15.6 26.1
Q 15.45 26.5 15.6 26.85 15.65 26.95 15.65 27.2 15.65 27.4 15.8 27.5 16.6 28.5 17.55 28.25 18 28.15 18.2 28.25
L 18.05 28.5 17.65 28.5
Q 17.05 28.8 17.1 28.95 17.2 29.3 17.1 30.7 16.9 31.5 16.7 31.9
L 16.7 32.6 16.6 32.8
Q 16.5 33.5 16.55 33.95 16.35 34.15 16.45 34.6 16.55 34.75 16.5 35.05 16.45 35.35 16.5 35.5 16.45 35.7 16.55 36.4 16.5 36.85 16.55 37.7 16.35 38 16.1 38.05 15.75 38.1 15.75 38.45 15.7 38.65 16.05 38.85 16.2 38.9 16.3 38.75 16.4 38.55 16.5 38.55 16.55 38.7 16.6 38.95
L 16.65 39.8
Q 16.6 39.95 16.5 39.9 16.4 39.85 16.35 39.8 15.65 39.4 15.05 39.25
L 14.65 39.2
Q 14.3 39.25 13.4 39.9
L 12.8 39.8
Q 12.2 39.8 12.05 39.9 11.2 40.3 11.1 41.2 11.1 42.55 11.95 42.9 12.3 43.25 12.8 43.15 13 43.15 13.1 43.25
L 13.1 43.3
Q 13.05 43.4 12.8 43.3 12.65 43.3 12.6 43.35 12.75 43.65 13.05 43.6 13.25 43.6 13.55 43.65 13.85 43.6 14 43.4 14.25 43 14.8 42.95 15.6 42.9 15.75 42.85
L 15.8 43 15.5 43.45
Q 15.35 43.6 15.35 43.8 15.15 43.95 14.9 44.7
L 14.9 45.15 14.85 45.25
Q 14.8 45.35 14.8 45.7
L 14.6 46.65
Q 14.4 47 14.15 47.8 13.6 48.1 13.55 48.3 13.45 48.5 13.7 49.1
L 13.8 49.45 13.7 50.2
Q 12.6 50.45 12.45 51.5
L 12.2 52.6
Q 11.95 54.3 13.15 55.3
L 13.25 55.5 13.3 55.7
Q 13.5 56.7 13.7 57.2
L 13.7 57.55 13.6 57.55
Q 13.2 57.4 13.05 57.7 12.8 58 13.1 58.3 13.35 58.5 13.7 58.3
L 13.95 58.1 14 58.2 13.55 59.15
Q 13.2 60.35 14.15 61.15 14.85 61.45 15.2 62.1 15.5 62.55 16.15 62.8 15.95 63.15 15.55 63.3 14.85 63.7 14.55 64.55 14.25 65.4 14.6 66.05 15.35 66.7 15.15 67.6 15 68.1 15.3 68.5 15.55 68.9 16.05 69 16.4 69.1 16.8 69 17.05 68.95 17.55 68.8 18.35 68.45 18.65 67.5 18.65 67.35 18.75 67.15 18.9 66.9 18.9 66.8
L 18.9 66.7
Q 19 66.6 19 66.25
L 19 66.15
Q 19 65.85 19.25 65.85 19.6 65.85 19.7 65.7
L 20.7 66.25
Q 20.75 66.4 20.4 66.75 20.05 67.3 20.1 67.5 20.35 68.15 20.9 68.15 21.75 68.15 21.75 67.5 21.75 67.35 21.85 67.35 22 67.3 22 67.4 21.95 67.7 22.3 68.05
L 22 68.5
Q 21.9 68.7 21.55 68.95 20.85 69.25 20.75 69.7 20.55 70.5 20.15 70.8 19.55 71.2 19.35 71.9 19.15 72.55 19.45 73.15
L 19.6 73.25
Q 19.75 73.75 20.2 73.95 20.35 74.1 20.55 74.05
L 20.75 74.15
Q 20.45 75.45 21.05 76.05
L 21.8 76.65
Q 22.15 76.7 22.65 77
L 22.8 77.1
Q 22.9 77.15 23.3 77.15
L 23.9 77.3
Q 24.25 77.4 24.35 77.75
L 24.55 77.75 25.1 77.8
Q 25.3 77.85 25.25 77.95 25.2 78 25.1 78.1
L 24.65 78.35
Q 24.1 78.35 24.1 78.8
L 23.95 79.1
Q 23.85 79.45 23.55 80.15 23.35 80.8 23.4 81.3 23.4 81.75 23.1 82 22.6 82.15 22.95 82.6 23 82.75 23.3 82.85 23.7 82.85 23.9 82.55 24.85 83.85 25.1 84
L 25.3 84.1 25.85 84.3
Q 26.75 84.65 27.1 84.45 27.5 84.45 27.65 84.3
L 28.3 83.85 29 83.95
Q 29.4 83.95 29.65 83.85
L 30.65 83.45
Q 31.05 83.3 31.3 82.85 31.6 82.35 31.5 82 31.6 81.1 31.5 80.85 31.25 80.5 31.2 80.45
L 31.05 80.15 30.75 79.85
Q 30.75 79.55 30.85 79.45 30.9 79.45 31 79.35 31.1 79.3 31.15 79.45 31.2 79.55 31.85 80.2 32.25 80.55 32.95 80.65 33.6 80.7 34.15 80.45 34.7 79.9 35.05 80.35 35.8 80.65 36.3 79.8 37.5 80.85 38.25 81.25 38.3 81.25 38.85 81.6 39.2 81.85 39.5 81.9 41 82.9 42.2 83 42.75 83 42.4 83.4
L 42.3 83.55
Q 41.7 84.65 42.4 86.2
L 42.55 86.45
Q 42.6 86.8 42.95 86.95 43.05 87.1 43.35 87.1 44.05 87.5 44.7 87.2 44.8 87.05 45.05 86.95 45.3 86.8 45.4 86.7 45.85 86.1 45.85 85.35 45.8 84.15 44.8 83.75
L 44.7 83.65
Q 44.15 83.15 43.9 82.85
L 45.15 82.55
Q 45.55 82.55 45.65 82.45 46.45 82.3 46.8 82.1 47.25 82.2 48 81.65 48.65 81.25 49.3 81.65 50.45 82.3 51.65 82.1 51.7 82.1 52.1 81.95 52.35 81.85 52.5 81.9 52.7 81.95 53.45 81.8 54.95 81.7 55.85 81 56.15 81.05 56.45 80.9 56.6 80.85 56.9 80.65 57.55 80.35 58.5 80.15 59.05 80 60.1 79.8 60.55 80.05 60.75 80 60.9 79.9 61.3 79.35 62.3 78.95 62.65 78.55
L 63.7 78.1 63.75 78.1
Q 63.85 78.2 64.1 78.35 64.8 78.8 65.65 78.15 66.35 77.45 65.95 76.6 66.5 76.35 66.7 76.1 67 75.8 67.2 75.8
L 67.4 75.7
Q 68.05 75.5 68.85 74.9
L 70.7 73.85 71.35 73.55
Q 72.15 73.5 72.35 72.75
L 72.6 72.5
Q 74.25 74.35 76.05 74.15
L 76.15 74.15
Q 76.75 74.15 76.85 74.25 76.95 74.35 77 74.9 77.05 74.85 77.05 74.55 77.05 74.3 77.15 74.2 77.35 74.25 77.45 74.1
L 77.55 74.05
Q 77.65 74.05 78.25 73.7
L 78.25 73.75 78.35 73.7 78.9 72.9 78.9 72.8
Q 79.05 72.85 79.55 72.7
L 79.6 72.7
Q 79.8 72.7 79.8 72.6 80.25 72.35 81 71.6
L 81.1 71.25
Q 81.2 70.85 81.25 70.65 81.3 70.3 81.1 70.05 81 69.2 80.75 68.95 79.9 68.3 79.35 68.25
L 79.25 68.25 77.9 68.05
Q 77.25 68.1 77 68.25
L 76.45 68.25
Q 76.2 68.2 76.15 68.05 76.8 67.75 76.95 67.5 77.05 67.35 76.9 66.8
L 77.05 66.6 77.55 66.05
Q 78.1 66.5 78.55 66.3 79.2 66 79.2 65.25 79.2 65 79 64.7 78.8 64.35 78.8 64.15
L 78.8 63.95 79.05 63.15
Q 79.15 63 79.3 62.75 79.45 62.5 79.45 62.3
L 79.5 62.05
Q 79.55 62 79.5 61.85 79.7 61.45 79.8 60.3 79.95 60.4 80.1 60.75 80.1 60.95 80.1 61.25 80.1 61.55 80.35 61.7 80.65 61.85 81.05 61.7 81.3 61.6 81.55 61.75 83.35 62.8 85.3 61.95 85.8 61.65 86 61.4 86.2 61.15 86.35 60.5 87.65 60.2 88.3 58.95 88.55 58.65 88.55 58.25
L 88.4 57.55
Q 88.2 57.15 88.05 56.95 87.8 56.6 87.45 56.5 87.3 56.25 87.1 56.3
L 86.75 56.1
Q 86.45 55.95 85.2 55.95 85 56.05 84.6 56 84.2 55.95 84 56
L 83 56.3
Q 82.6 56.5 82.05 56.55 81.45 56.5 81.1 56.5
L 81.1 56.2
Q 81.3 55.8 81.15 55.55 81.15 55.2 81.4 54.8 81.8 54.1 81.8 53.65 81.9 53.6 82 53.3
L 82.45 51.35 82.65 48.8 82.6 48.75
Q 82.8 47.4 82.8 45.8
L 82.85 45.65
Q 82.95 45.5 82.9 45.3 82.9 45 82.9 44.9
L 82.9 43.6 82.95 43.6 82.95 43.55
Q 82.85 42.9 82.65 42.6
L 82.6 42.55
Q 82.55 42.2 82.25 41.8 81.75 41.25 81.7 41.15
L 81.7 39.6 81.85 39.1
Q 82.25 37.8 82.15 36.05 82.15 35.3 82.1 35.15 81.95 34.4 81.6 33.85
M 24.4 35.05
L 24.6 35 24.6 35.3 24.4 35.05 Z"/>
</g>

<g id="Layer2_0_MEMBER_0_MEMBER_0_MEMBER_15_FILL">
<path fill="#000000" stroke="none" d="
M 86.85 67.85
L 86.6 67.8
Q 85.55 67.55 85.2 67.6 84.55 67.7 84.4 68.3 84.3 68.85 84.6 69.4 84.9 69.95 85.45 70.25 85.8 70.6 86.4 70.55 86.95 70.45 87.35 70.05 87.9 69.45 87.7 68.8 87.55 68.1 86.85 67.85 Z"/>
</g>

<g id="Layer2_0_MEMBER_0_MEMBER_0_MEMBER_16_FILL">
<path fill="#000000" stroke="none" d="
M 84.25 52.55
Q 84.05 52.1 83.55 52.1 83.1 52.1 82.7 52.5 82.55 52.65 82.55 52.95 82.55 53.3 82.5 53.35 82.4 53.85 82.95 54.2 83.4 54.5 84.2 54.3
L 84.35 54.45
Q 84.85 54.7 85.2 54.45 86.1 53.75 85.2 53.2 84.5 53.05 84.25 52.55 Z"/>
</g>

<g id="Layer2_0_MEMBER_0_MEMBER_0_MEMBER_17_FILL">
<path fill="#000000" stroke="none" d="
M 84.05 46
Q 84.15 46.5 84.6 46.55 84.9 46.55 85.2 46.35 85.45 46.15 85.45 45.95 85.45 45.25 84.65 45.25 84.4 45.25 84.2 45.5 84 45.75 84.05 46 Z"/>
</g>

<g id="Layer2_0_MEMBER_0_MEMBER_0_MEMBER_18_FILL">
<path fill="#000000" stroke="none" d="
M 47.45 11.1
Q 47.45 11.55 47.9 11.55 48.35 11.45 48.45 11 48.45 10.6 48 10.6 47.5 10.7 47.45 11.1 Z"/>
</g>

<g id="Layer2_0_MEMBER_0_MEMBER_0_MEMBER_19_FILL">
<path fill="#000000" stroke="none" d="
M 83.9 29.1
Q 83.35 29.2 83.35 29.65 83.2 30 83.35 30.3 83.55 31.1 84.3 31.6 84.9 31.9 85.55 31.4 85.9 31.05 85.9 30.65 86.05 29.5 84.65 29.3 84.4 29.1 83.9 29.1 Z"/>
</g>

<g id="Layer2_0_MEMBER_0_MEMBER_0_MEMBER_20_FILL">
<path fill="#000000" stroke="none" d="
M 93.1 32.85
Q 92.9 32.45 92.1 31.95 91.95 31.85 91.65 31.85 91.25 31.85 91.2 31.85 91.05 31.9 90.5 31.95 90 31.95 89.75 32.15 89.2 32.5 89.2 32.95 89.2 33.35 89.3 33.4 89.7 34.65 91.1 35.05 91.65 35.4 92.2 35.15 92.75 34.85 93.05 34.4 93.2 34.25 93.2 34 93.3 33.2 93.1 32.85 Z"/>
</g>

<g id="Layer2_0_MEMBER_0_MEMBER_0_MEMBER_21_FILL">
<path fill="#000000" stroke="none" d="
M 76.25 25.65
Q 75.9 26.1 76.05 26.45 76.2 26.85 76.6 26.65 76.95 26.5 77.6 26.7 78.45 26.95 78.45 26.2 78.45 25.15 77.45 25.5 77.2 25.6 77.1 25.6 76.9 25.65 76.75 25.55 76.45 25.4 76.25 25.65 Z"/>
</g>

<g id="Layer2_0_MEMBER_0_MEMBER_0_MEMBER_22_FILL">
<path fill="#000000" stroke="none" d="
M 83.55 19.65
Q 84.25 19.4 84 18.9 83.6 18 82.95 18.35 82.35 18.65 82.65 19.45
L 82.9 19.65
Q 83.15 19.85 83.55 19.65 Z"/>
</g>

<g id="Layer2_0_MEMBER_0_MEMBER_0_MEMBER_23_FILL">
<path fill="#000000" stroke="none" d="
M 83.2 15.45
L 82.8 15.45
Q 82.55 15.3 82.2 15.55 81.9 15.9 82 16.4 82.15 16.95 82.55 17.1
L 83.2 17.65
Q 83.3 17.75 83.65 17.65 84 17.4 84 17 84.15 16.9 84 16.65 83.6 16.45 83.65 15.95 83.65 15.65 83.55 15.55 83.4 15.3 83.2 15.45 Z"/>
</g>

<g id="Layer2_0_MEMBER_0_MEMBER_0_MEMBER_24_FILL">
<path fill="#000000" stroke="none" d="
M 86.7 21.95
Q 86.7 22.4 87.3 22.4 87.7 22.4 87.7 22.05 87.65 21.65 87.1 21.55 86.7 21.55 86.7 21.95 Z"/>
</g>

<g id="Layer2_0_MEMBER_0_MEMBER_0_MEMBER_25_FILL">
<path fill="#000000" stroke="none" d="
M 78.25 22.2
L 77.9 21.8
Q 77.45 21.6 77.25 21.85 76.95 22.15 77.2 22.4 77.35 22.35 77.35 22.25 77.35 21.9 77.65 21.95 77.75 22 77.75 22.1
L 77.65 22.3
Q 77.65 22.35 77.6 22.5 77.6 22.6 77.7 22.65 78.1 22.65 78.25 22.55 78.4 22.4 78.25 22.2 Z"/>
</g>

<g id="Layer2_0_MEMBER_0_MEMBER_0_MEMBER_26_FILL">
<path fill="#000000" stroke="none" d="
M 15.4 17.2
Q 15.55 18.15 16.55 18.3 16.9 18.45 17.65 18.45 18.1 18.35 18.15 18.1 18.4 17.6 18.15 17 17.9 16.4 17.35 16.2 16.85 15.75 16.1 16.2 15.3 16.45 15.4 17.2 Z"/>
</g>

<g id="Layer2_0_MEMBER_0_MEMBER_0_MEMBER_27_FILL">
<path fill="#000000" stroke="none" d="
M 38.65 11.3
Q 38.8 11.75 39.05 11.9 39.6 12.3 40.25 11.8 40.6 11.55 40.6 11.25 40.85 10.55 40 10.05 39.8 9.9 39.7 9.85 39.5 9.75 39.35 9.85 38.65 10.35 38.55 10.65 38.45 10.85 38.65 11.3 Z"/>
</g>

<g id="Layer2_0_MEMBER_0_MEMBER_0_MEMBER_28_FILL">
<path fill="#000000" stroke="none" d="
M 30 10.85
Q 30.05 11.3 30.3 11.5 30.5 11.65 30.75 11.55 30.9 11.5 31.2 11.3 31.4 11.2 31.5 10.8 31.55 10.4 31.4 10.15 31.05 9.55 30.5 9.9 30.2 10 30.1 10.15 29.9 10.4 30 10.85 Z"/>
</g>

<g id="Layer2_0_MEMBER_0_MEMBER_0_MEMBER_29_FILL">
<path fill="#000000" stroke="none" d="
M 20.7 14
Q 20.95 14.2 21.2 14.15 21.7 14.05 21.7 13.65 21.75 13.4 21.5 13.15 21.3 12.9 21.05 12.9 20.85 12.9 20.65 13.15 20.45 13.4 20.45 13.7 20.45 13.85 20.7 14 Z"/>
</g>

<g id="Layer2_0_MEMBER_0_MEMBER_0_MEMBER_30_FILL">
<path fill="#000000" stroke="none" d="
M 29.35 14.05
Q 28.95 13.7 28.75 13.75 28.15 13.8 27.8 14.15 27.45 14.6 27.65 15.15 27.05 15.6 27 15.8
L 26.95 16
Q 26.3 16.9 26.75 17.75 26.85 17.85 27 18.25 27.15 18.6 27.4 18.75 27.8 19 28.2 18.85 28.65 18.7 28.85 18.2 29.1 17.85 29.2 16.45
L 29.2 16.35
Q 29.2 16.3 29.1 15.8 29.2 15.55 29.35 15.5 29.95 15.25 29.8 14.6 29.75 14.35 29.35 14.05 Z"/>
</g>

<g id="Layer2_0_MEMBER_0_MEMBER_0_MEMBER_31_FILL">
<path fill="#000000" stroke="none" d="
M 25.75 17.35
Q 25.25 17.35 25.1 17.6 24.85 18.1 25.2 18.35
L 25.45 18.75
Q 25.8 19.25 26.2 18.75 26.45 18.4 26.3 17.85 26.25 17.45 25.75 17.35 Z"/>
</g>

<g id="Layer2_0_MEMBER_0_MEMBER_0_MEMBER_32_FILL">
<path fill="#000000" stroke="none" d="
M 15.05 19.85
Q 14.7 20.45 15.35 20.75 15.9 21.05 16.1 20.45 16.35 19.95 15.9 19.75 15.25 19.35 15.05 19.85 Z"/>
</g>

<g id="Layer2_0_MEMBER_0_MEMBER_0_MEMBER_33_FILL">
<path fill="#000000" stroke="none" d="
M 24.95 7.7
Q 24.95 8.05 25.35 8.05 25.75 8.05 25.75 7.65 25.75 7.3 25.35 7.35 24.95 7.55 24.95 7.7 Z"/>
</g>

<g id="Layer2_0_MEMBER_0_MEMBER_0_MEMBER_34_FILL">
<path fill="#000000" stroke="none" d="
M 21.8 23.6
Q 21.8 23.25 21.45 23.25 21.05 23.15 21.05 23.5 21.05 23.9 21.4 23.9 21.7 24 21.8 23.6 Z"/>
</g>
</defs>

<g transform="matrix( 1, 0, 0, 1, 0,0) ">
<use xlink:href="#Layer2_0_MEMBER_0_MEMBER_0_MEMBER_0_FILL"/>
</g>

<g transform="matrix( 1, 0, 0, 1, 0,0) ">
<use xlink:href="#Layer2_0_MEMBER_0_MEMBER_0_MEMBER_1_FILL"/>
</g>

<g transform="matrix( 1, 0, 0, 1, 0,0) ">
<use xlink:href="#Layer2_0_MEMBER_0_MEMBER_0_MEMBER_2_FILL"/>
</g>

<g transform="matrix( 1, 0, 0, 1, 0,0) ">
<use xlink:href="#Layer2_0_MEMBER_0_MEMBER_0_MEMBER_3_FILL"/>
</g>

<g transform="matrix( 1, 0, 0, 1, 0,0) ">
<use xlink:href="#Layer2_0_MEMBER_0_MEMBER_0_MEMBER_4_FILL"/>
</g>

<g transform="matrix( 1, 0, 0, 1, 0,0) ">
<use xlink:href="#Layer2_0_MEMBER_0_MEMBER_0_MEMBER_5_FILL"/>
</g>

<g transform="matrix( 1, 0, 0, 1, 0,0) ">
<use xlink:href="#Layer2_0_MEMBER_0_MEMBER_0_MEMBER_6_FILL"/>
</g>

<g transform="matrix( 1, 0, 0, 1, 0,0) ">
<use xlink:href="#Layer2_0_MEMBER_0_MEMBER_0_MEMBER_7_FILL"/>
</g>

<g transform="matrix( 1, 0, 0, 1, 0,0) ">
<use xlink:href="#Layer2_0_MEMBER_0_MEMBER_0_MEMBER_8_FILL"/>
</g>

<g transform="matrix( 1, 0, 0, 1, 0,0) ">
<use xlink:href="#Layer2_0_MEMBER_0_MEMBER_0_MEMBER_9_FILL"/>
</g>

<g transform="matrix( 1, 0, 0, 1, 0,0) ">
<use xlink:href="#Layer2_0_MEMBER_0_MEMBER_0_MEMBER_10_FILL"/>
</g>

<g transform="matrix( 1, 0, 0, 1, 0,0) ">
<use xlink:href="#Layer2_0_MEMBER_0_MEMBER_0_MEMBER_11_FILL"/>
</g>

<g transform="matrix( 1, 0, 0, 1, 0,0) ">
<use xlink:href="#Layer2_0_MEMBER_0_MEMBER_0_MEMBER_12_FILL"/>
</g>

<g transform="matrix( 1, 0, 0, 1, 0,0) ">
<use xlink:href="#Layer2_0_MEMBER_0_MEMBER_0_MEMBER_13_FILL"/>
</g>

<g transform="matrix( 1, 0, 0, 1, 0,0) ">
<use xlink:href="#Layer2_0_MEMBER_0_MEMBER_0_MEMBER_14_FILL"/>
</g>

<g transform="matrix( 1, 0, 0, 1, 0,0) ">
<use xlink:href="#Layer2_0_MEMBER_0_MEMBER_0_MEMBER_15_FILL"/>
</g>

<g transform="matrix( 1, 0, 0, 1, 0,0) ">
<use xlink:href="#Layer2_0_MEMBER_0_MEMBER_0_MEMBER_16_FILL"/>
</g>

<g transform="matrix( 1, 0, 0, 1, 0,0) ">
<use xlink:href="#Layer2_0_MEMBER_0_MEMBER_0_MEMBER_17_FILL"/>
</g>

<g transform="matrix( 1, 0, 0, 1, 0,0) ">
<use xlink:href="#Layer2_0_MEMBER_0_MEMBER_0_MEMBER_18_FILL"/>
</g>

<g transform="matrix( 1, 0, 0, 1, 0,0) ">
<use xlink:href="#Layer2_0_MEMBER_0_MEMBER_0_MEMBER_19_FILL"/>
</g>

<g transform="matrix( 1, 0, 0, 1, 0,0) ">
<use xlink:href="#Layer2_0_MEMBER_0_MEMBER_0_MEMBER_20_FILL"/>
</g>

<g transform="matrix( 1, 0, 0, 1, 0,0) ">
<use xlink:href="#Layer2_0_MEMBER_0_MEMBER_0_MEMBER_21_FILL"/>
</g>

<g transform="matrix( 1, 0, 0, 1, 0,0) ">
<use xlink:href="#Layer2_0_MEMBER_0_MEMBER_0_MEMBER_22_FILL"/>
</g>

<g transform="matrix( 1, 0, 0, 1, 0,0) ">
<use xlink:href="#Layer2_0_MEMBER_0_MEMBER_0_MEMBER_23_FILL"/>
</g>

<g transform="matrix( 1, 0, 0, 1, 0,0) ">
<use xlink:href="#Layer2_0_MEMBER_0_MEMBER_0_MEMBER_24_FILL"/>
</g>

<g transform="matrix( 1, 0, 0, 1, 0,0) ">
<use xlink:href="#Layer2_0_MEMBER_0_MEMBER_0_MEMBER_25_FILL"/>
</g>

<g transform="matrix( 1, 0, 0, 1, 0,0) ">
<use xlink:href="#Layer2_0_MEMBER_0_MEMBER_0_MEMBER_26_FILL"/>
</g>

<g transform="matrix( 1, 0, 0, 1, 0,0) ">
<use xlink:href="#Layer2_0_MEMBER_0_MEMBER_0_MEMBER_27_FILL"/>
</g>

<g transform="matrix( 1, 0, 0, 1, 0,0) ">
<use xlink:href="#Layer2_0_MEMBER_0_MEMBER_0_MEMBER_28_FILL"/>
</g>

<g transform="matrix( 1, 0, 0, 1, 0,0) ">
<use xlink:href="#Layer2_0_MEMBER_0_MEMBER_0_MEMBER_29_FILL"/>
</g>

<g transform="matrix( 1, 0, 0, 1, 0,0) ">
<use xlink:href="#Layer2_0_MEMBER_0_MEMBER_0_MEMBER_30_FILL"/>
</g>

<g transform="matrix( 1, 0, 0, 1, 0,0) ">
<use xlink:href="#Layer2_0_MEMBER_0_MEMBER_0_MEMBER_31_FILL"/>
</g>

<g transform="matrix( 1, 0, 0, 1, 0,0) ">
<use xlink:href="#Layer2_0_MEMBER_0_MEMBER_0_MEMBER_32_FILL"/>
</g>

<g transform="matrix( 1, 0, 0, 1, 0,0) ">
<use xlink:href="#Layer2_0_MEMBER_0_MEMBER_0_MEMBER_33_FILL"/>
</g>

<g transform="matrix( 1, 0, 0, 1, 0,0) ">
<use xlink:href="#Layer2_0_MEMBER_0_MEMBER_0_MEMBER_34_FILL"/>
</g>
</svg>
