
<svg xmlns="http://www.w3.org/2000/svg" version="1.1" xmlns:xlink="http://www.w3.org/1999/xlink" preserveAspectRatio="none" x="0px" y="0px" width="100px" height="100px" viewBox="0 0 100 100">
<defs>
<g id="Layer2_0_MEMBER_0_MEMBER_0_MEMBER_0_MEMBER_0_FILL">
<path fill="#000000" stroke="none" d="
M 37.2 33.2
L 37.15 33.25
Q 37.05 33.45 37.05 33.7
L 37.2 33.5 37.4 33.6 37.65 33.25 37.2 33.2
M 38.9 30.4
Q 38.55 30.5 38.75 30.75 39 30.9 39.5 30.75 39.8 30.75 39.75 30.4
L 39.25 30.3 39.25 30.55 39.05 30.65 38.9 30.4
M 62 24.55
L 61.95 24.4 61.55 24.4
Q 61.3 24.55 61.3 24.75
L 61.25 25 61.5 25.25
Q 61.1 25.4 60.75 25.05
L 60.55 24.9 60.5 24.5 60.4 24.55
Q 60.05 24.75 60 24.8 59.9 24.7 59.55 24.8
L 59.4 24.8
Q 59.25 24.8 59.25 24.9
L 59.3 25.05
Q 59.4 25.1 59.4 25.25 59.15 25.1 59.15 25.25
L 59.25 25.5 59.5 25.25 59.75 24.9
Q 59.9 25.05 59.75 25.15
L 59.55 25.5
Q 59.55 25.6 59.7 25.75 59.75 25.9 59.95 25.8
L 60 25.75 60.05 25.55 60.2 25.4 59.9 25.5 59.9 25.15
Q 60 25.25 60.2 25.25
L 60.5 25.15 60.55 25.3 60.5 25.4 60.8 25.55
Q 60.7 26 60.45 25.75
L 60.5 25.5 60.3 25.5
Q 60.3 25.9 60.05 25.9
L 60.4 26.25 60.55 26 60.65 26.4 60.55 26.5 60.5 27.05 60.75 27 60.9 27 60.9 27.15 60.5 27.25 60.3 27.15
Q 60.4 27.05 60.25 27
L 60.2 26.8 60.05 26.75 59.8 27.05 59.9 27.3 59.75 27.65 59.7 27.65
Q 59.5 27.4 58.8 27.15
L 59.2 26.8
Q 59.2 26.65 59.55 26.65
L 59.4 26.4
Q 59.7 26.4 59.7 26.25
L 59.5 25.8 59.3 26.15 59.15 26
Q 58.8 26 58.65 26.15 58.65 25.85 58.5 25.75
L 58.25 26.15 58.75 26.75
Q 58.55 26.8 58.4 26.75
L 58.3 26.5 58.15 26.3 57.75 26.5 57.9 26.9
Q 57.9 27 58.15 27
L 58 26.75 58.2 26.65
Q 58.2 26.85 58.45 27 58.5 27.2 58.45 27.25
L 58.2 27.5 58 27.4 57.75 27.4
Q 57.55 27.35 57.7 27.15
L 57.75 26.9 57.5 27 57.45 26.9
Q 57.35 26.9 56.9 26.55
L 56.5 26.55 56.65 26.75 56.8 26.75 56.75 26.9 57 26.9 57 27 57.45 27.15 57.25 27.4 57.15 27.25 56.8 27.5 56.7 27
Q 56.45 27.05 56.2 27.4
L 56.3 27.55
Q 56.2 27.75 56.25 27.75 56.25 27.9 56.15 28
L 56.4 28.5 56.8 28.15 57.25 28.25 57.4 28.65
Q 57.05 28.55 56.75 28.8
L 56.4 28.5 56.25 28.65 56 28.5 55.9 28.55
Q 56 28.4 55.75 28.3 55.75 28.75 55.55 28.9
L 55.65 29.5 55.8 29.65 55.5 30 55.3 30.15
Q 55.3 30.4 55.05 30.4 55.05 30.6 55.25 30.65 55.5 30.8 55.5 30.9 55.3 30.7 55.05 30.75 55.35 31.05 55.25 31.25
L 55.05 31 55 31.25 54.95 31.4 54.5 31.65 54.5 31.4
Q 54.45 31.2 53.9 30.75
L 53.55 30.75 53.45 30.8
Q 53.15 30.95 53.15 30.55 53 30.55 53 30.4
L 53 30.05
Q 52.9 30.15 52.55 29.8
L 52.45 29.8 52.25 29.9 52.3 30.3 52 30.3 51.75 30.05
Q 51.4 30.2 51.4 29.9
L 51.25 29.75
Q 51.5 29.9 51.8 29.75 51.8 29.5 52 29.3 51.7 29.3 51.7 29.25
L 51.75 29.05 51.55 29
Q 51.45 29 51.45 28.8 51.45 28.6 51.15 28.5
L 51.05 28.75
Q 51.2 28.75 51.2 29.15
L 51.4 29.05 51.5 29.15
Q 51.6 29.15 51.5 29.25
L 51.3 29.25 51.05 29.05 50.8 28.75 50.65 28.75 50.45 28.5 50.45 28.75
Q 50.35 29.1 50.65 29.15 50.55 29.2 50.4 29.15 50.3 29.05 50.2 29.15 49.9 29.15 49.75 29.25
L 49.3 29.4
Q 49.3 29.3 49.05 29.15
L 49.05 29.05
Q 48.85 28.95 49 28.75
L 49.25 28.65 49.2 28.5 48.95 28.65 48.75 29 48.7 28.75 48.55 28.65 48.4 28.75 48.25 28.9 48.4 29.25 48.4 29.65 48.55 29.75 48.5 30 48.25 29.9 48.15 29.9 48.2 30
Q 48.35 30 48.45 30.25
L 48.5 30.15 48.9 30.05 48.75 29.9 48.75 29.65 49.45 29.5 49.55 29.75 49.8 29.65 49.75 29.9
Q 49.8 29.95 50.25 30.15
L 50.45 30 50.5 29.75 50.95 29.8 50.9 29.65 51.15 29.9
Q 50.95 30.2 51.15 30.4
L 51.45 30.5
Q 51.2 30.65 51.05 30.5 50.95 30.3 50.65 30.3
L 50.75 30.55
Q 50.833984375 30.759765625 50.95 30.8
L 50.65 30.75 50.8 31.25 50.45 31.25 50.45 31.15 50.25 31.25 49.8 31.05 50.05 31.5 49.7 31.5 49.55 31.15 49.9 30.75 50.45 30.9
Q 50.45 30.65 50.05 30.65
L 50.15 30.3
Q 50.1 30.3 49.9 30.5 49.8 30.6 49.65 30.55
L 49.8 30.4 49.65 30.25 49.3 30.25 49.45 30.4
Q 49.25 30.6 49.25 30.75 49.2 30.9 48.9 31 49.05 30.75 48.95 30.65
L 48.75 30.65 48.7 30.75 48.4 30.65 48.45 30.5 48.25 30.5 48.15 30.8 48.3 31.25 48.2 31.4 48.25 31.65 48.2 31.9
Q 48.05 32.1 48.15 32.25
L 48 32.3 48.2 32.7 48.05 33
Q 47.95 33.25 47.8 33.35
L 47.7 33.5 47.45 33.5 47.5 33.7 47.25 33.95
Q 47.05 33.75 47.05 33.5
L 46.8 33.45 46.8 33.7 46.5 33.5
Q 46.3 33.45 46.2 33.6 46.15 33.45 46 33.45 46 33.25 45.9 33.45 45.25 33.05 45 33.05
L 44.4 33 44.25 33.05 44.05 33.25 43.55 33.2 43.55 33.1 44.25 32.95 43.55 32.25 43.3 32.25 43.2 31.8 43.25 31.75 43 31.4 42.9 31.65 43 31.8 42.75 31.9
Q 42.55 31.75 42.3 31.9 42.15 31.95 42 31.8
L 42.05 31.65 42.4 31.55
Q 42.4 31.3 42.2 31.4
L 41.8 31.5
Q 41.7 31.85 41.4 31.75
L 41.9 32.3 41.95 32.1 41.75 32
Q 41.7 31.95 41.8 31.75
L 42 32 42 32.05
Q 42.25 32.15 42.3 32.45
L 42.4 32.35 42.7 32.25
Q 42.8 32.25 42.8 32.5
L 42.3 32.45
Q 41.75 32.55 41.45 32.35 41.3 32.6 41.65 32.7 41.75 33.1 41.5 33.3
L 41.4 33.25
Q 41.15 33.15 41.15 33.3
L 41.25 33.5 41.25 33.55
Q 40.8 33.5 40.65 33
L 40.8 33
Q 41 33 41 32.85
L 40.5 32.85 40.5 32.7 39.75 32.5 39.5 32.5 40 32.95 40 33.2
Q 39.8 33.25 39.55 33.2
L 39.05 33
Q 39.1 32.8 39.4 32.6
L 39.5 32.5 39.25 32.5 39.4 32.25
Q 39.65 32.25 39.75 32
L 39.5 31.9
Q 39.4 32.25 39.15 32.1
L 39.2 31.65 38.75 31.4 38.95 31.15 38.75 30.75
Q 38.65 30.75 38.3 31
L 38.5 31.25 38.25 31.25
Q 38.25 31.4 38.4 31.4 38.55 31.4 38.55 31.5 38.4 31.9 37.8 31.4
L 38 31.05
Q 37.95 30.9 37.75 30.9 37.6 31 37.5 30.9
L 37.65 30.8 37.65 30.75 37.25 30.9
Q 37.35 30.9 37.25 31
L 37.25 31.15 37.5 31.15 37.5 31.25 37.25 31.25 37.4 31.5 37.65 31.5
Q 37.7 31.65 37.65 31.9
L 37.3 31.75
Q 37.2 31.6 37 31.65 37 31.8 37.25 31.9
L 37.25 32.3 37 32.5
Q 37.25 32.75 37.45 32.6
L 37.45 32.75 37.75 32.8 37.45 32.25 37.65 32.2
Q 37.75 32 37.95 32.2
L 38.15 32.3 38.3 32.25
Q 38.45 32.5 38.45 32.95
L 38.4 33.05 38.65 33 38.7 33.3 38.55 33.25 38.3 33.6 38.05 33.5 37.7 33.25 37.65 33.25 37.75 33.5 37.7 33.75
Q 37.8 33.9 37.7 34
L 37.5 34.1
Q 37.6 33.7 37.15 33.85 37 33.85 36.95 33.75
L 36.75 33.7 36.9 34.05 36.2 34.05 36.05 33.75 35.9 33.75 35.75 33.85 35.75 34 35.25 34 35.55 34.2
Q 35.9 34.5 35.7 34.75 35.5 34.9 35.5 35 35.4 35 35.5 35.25
L 35.15 35.05
Q 34.95 35.2 35.2 35.35
L 34.9 35.55 34.7 35.8 34.55 35.75 34.45 35.45 34.65 35.45 34.65 35.2 35 35.2 35 34.95 34.55 34.6
Q 34.4 34.6 34.3 34.7
L 34.55 34.8
Q 34.5 35.05 34.05 34.95
L 34.3 35.05 34.3 35.2 34.05 35.05 33.95 35.35
Q 33.85 35.55 34 35.7 34.45 35.8 34.45 36.2
L 34.25 36.25 34.9 36.85 35.25 36.75 35.2 37 35.3 37.05
Q 35.25 37.3 35 37.45
L 34.8 37.25
Q 34.75 37.15 34.55 37.2 34.55 37.45 34.25 37.45 34.5 37.5 34.5 37.8
L 34.4 38.2 34.45 38.25 34.55 38.25 34.7 38 34.8 38 34.9 37.75
Q 34.9 37.7 35.05 37.55 35.25 37.7 35.25 37.8
L 35.25 38.1
Q 35.1 38.25 35.15 38.45 35.15 38.6 35.3 38.6 35.5 38.45 35.55 38.5 35.7 38.5 35.95 38.75
L 35.5 38.95
Q 35.75 39.05 35.8 38.85
L 35.9 39.05
Q 36.05 39.05 36.05 39.2
L 36.2 39.35 35.95 39.45 36 39.75 35.55 39.45 35.5 39.2 35.2 39.05 34.75 38.95 34.55 39
Q 34.35 39.2 34.5 39.2
L 34.5 39.5
Q 34.75 39.7 34.75 39.85
L 34.75 40.05 34.95 40
Q 35.15 40 35.2 40.2 35.2 40.35 35.45 40.35 35.65 40.35 35.7 40.5
L 35.5 40.75
Q 35.2 40.75 35.2 40.7
L 34.75 40.25 34.8 40.05 34.75 40.05 34.45 40
Q 34.25 40.15 34.45 40.3 34.55 40.5 34.5 40.5
L 34.2 40.5 33.75 40.75 34.05 41 34.15 40.8 34.45 40.95 34.45 41.3 34.2 41.25 34.7 41.8
Q 34.7 41.85 34.9 41.85 34.9 41.5 34.75 41.25
L 35.15 41.1 35.05 41
Q 35.3 40.95 35.3 41.2 35.2 41.5 35.5 41.55 35.25 41.8 35.2 41.75
L 35 41.95 35.05 42.25
Q 35 42.6 34.7 42.6
L 34.5 42.25 34.25 42.35 34.5 42.75
Q 34.75 43.1 34.75 43.55
L 34.75 43.6
Q 34.65 43.7 34.65 43.6
L 34.45 43.5 34.45 43.75 34.65 43.85 34.5 44.05 34.45 44.25
Q 34.65 44.35 34.9 44.1
L 35 44.45 34.75 44.75 35.3 45.2 35.2 45.25 35.25 45.45 35 45.35 35.05 45.5 34.8 45.5 34.9 45.1 34.65 45.05
Q 34.45 45.05 34.3 45.25 34.5 45.3 34.5 45.75
L 33.7 45.3
Q 33.9 45.8 33.5 46.1 33.5 46.25 33.75 46.25
L 34 46.3 34.15 46.2
Q 34.15 46.6 34 46.75 33.8 46.6 33.55 46.75
L 33.5 46.75 33.5 46.5
Q 33.55 46.4 33.3 46.25
L 33.2 46.7 32.9 46.5 32.7 46.75 32.75 46.95
Q 32.55 46.95 32.25 47.7
L 32 47.55 32.25 47.35 32.05 47.25 32.15 47.1 31.95 47.05 31.95 47.3
Q 31.8 47.5 32 47.85
L 31.6 48.2 31.6 48.45
Q 31.6 48.55 31.7 48.55
L 32 48.7 32.15 48.8
Q 31.85 48.8 31.75 48.95
L 32.4 49.25 31.75 49.5 31.7 49.75
Q 32 50.05 32.3 49.85
L 32.7 50 32.7 50.05 32.25 50.1 32.25 50.35
Q 32 50.45 31.85 50.3 31.75 50.3 31.7 50.1
L 31.35 50.1
Q 31.25 50.2 31.35 50.3 31.2 50.45 31.35 50.7 31.45 50.85 31.35 51.25 31.2 51.6 31.25 52.2
L 31.35 52.75 31.6 53.3 31.85 53.25 31.85 53.55
Q 31.75 53.75 31.6 53.75
L 31.85 54.3
Q 31.7 54.45 31.95 54.95
L 32.3 55.45
Q 32.6 55.75 32.65 56
L 32.7 56 33.05 56.6 33.65 57.35 33.75 57.35 34.5 57.7 35.25 58.2 35.75 58.75 35.8 58.85 35.9 59 36.15 59.25 36.5 59.7 37.05 59.95 37.15 59.95 38.75 60.85 39.25 61.85 39.3 62
Q 39.5 62.05 39.55 62.35
L 39.5 62.5 39.7 62.5 39.75 62.8
Q 39.95 63.2 39.55 63.35 39.45 63.5 39 63.5 38.7 63.65 38.5 63.55 38.3 63.5 37.9 63.55 37.3 63.7 37.25 64.35
L 37.25 64.75
Q 36.25 65.45 35.9 66.1
L 35.2 66.35
Q 34.6 66.35 34.5 66.45
L 34.25 66.25
Q 34.15 66.45 33.8 66.2
L 33.45 65.95 33.15 66.25 33.05 66.25 33.05 66.1 32.4 66.1 32.15 66.2 31.6 66.6 31.5 66.7
Q 31.25 66.95 31.25 67.35
L 31.25 67.45 31 67.6 31.1 67.95
Q 31 68.45 31.6 69.1
L 31.95 69.35 32.75 69.6 33.25 69.7 33.5 69.7
Q 33.9 69.55 34.15 69.75 34.4 69.9 34.7 69.7
L 35.15 69.45 35.75 69.2 35.9 69.1
Q 35.95 69.15 36.4 69 37 68.9 37.4 68.95
L 37.75 69.1 38.15 69.45 38.2 69.6 38.2 70.2 38.25 70.35
Q 38.45 70.7 39.2 71
L 39.25 71
Q 39.55 71 39.75 71.1
L 39.95 71.1
Q 40.05 71.05 40.25 71.1
L 40.5 71.1 41.45 71 42.65 70.6 43.65 69.95 44.05 69.85
Q 44.4 69.7 44.65 69.75
L 45.2 69.45
Q 45.35 69.45 45.45 69.35
L 45.5 69.25 46.15 68.85 46.25 68.45 46.15 68.35 45.4 68.25
Q 45.15 68.4 45 68.25
L 45 68.2 45.3 67.2 45.4 67.1
Q 45.3 67 45.3 66.7
L 45.3 66.2 45 65.45
Q 45 65.2 45.4 65.1
L 46.15 65.1
Q 46.6 65.2 46.95 65
L 47.2 64.95
Q 47.55 64.95 47.75 64.75
L 48 64.5
Q 48.3 64.6 48.45 64.85
L 48.65 65.2 48.5 65.35 48.2 65.35 48.15 65.5 47.25 65.6 46.65 66 46.65 66.35
Q 46.5 66.5 46.5 67 46.5 67.2 46.75 67.7
L 47 67.95
Q 47.25 68.35 47.5 68.35
L 48 68.45
Q 48.35 68.6 48.75 68.25 49.05 67.95 49.5 68.1
L 49.5 68.2 49.25 68.25 49.7 68.35 49.8 68.35
Q 50 68.15 50 68.35
L 50.3 68.5 51.25 69.1
Q 51.5 69.25 51.5 69.35
L 51.75 69.2 52 69.25 52.55 69.2
Q 52.9 69 53.25 69.1
L 53.4 68.85 53.7 68.6 54.45 67.85
Q 54.75 67.25 54.75 67
L 54.65 66.35 54.9 66.25
Q 54.85 66.1 54.5 66.1
L 54.5 65.85 54.55 65.75 54.5 65.5
Q 54.2 65.5 54.2 65.25
L 54 64.75 54.15 64.85 54.25 64.7 54.65 64.75 54.5 64.45 54.55 64.45 54.75 64.6 54.95 64.5 54.9 64.7 55.15 64.6 55.05 64.45 55.3 64.6
Q 55.4 64.45 55.5 64.45
L 55.95 64.45
Q 56.3 64.65 56.45 64.5
L 56.55 64.45 57.25 64.45
Q 57.7 64.55 58.25 64.2
L 58.9 63.8
Q 59 63.8 59.4 63.35 59.8 63.2 59.8 63
L 60.05 62.7 60.3 62.3 60.7 61.35
Q 60.85 61.05 60.8 60.8 60.8 60.6 61.2 60.1
L 61.65 59.95 61.7 59.95
Q 62.1 59.95 62.4 59.85
L 62.95 59.6 65.15 59 65.4 59 65.9 58.7 66.25 58.25 66.4 58.2 66.65 58.05
Q 66.8 57.95 66.9 58.05
L 67 58.05
Q 67.45 57.95 68 58
L 68.15 57.75 68.15 58.05
Q 68.65 57.9 68.65 57.55
L 68.75 57.5
Q 69.05 57.5 69.25 57.05 69.4 56.9 69.4 56.8
L 69.55 56.55 69.8 56.35 70.25 55.7 69.65 55.2 69.8 54.85
Q 69.8 55.3 70.15 55.5 70.3 54.95 69.8 54.6
L 69.15 54.35 68.5 54.35
Q 68.05 54.35 68.05 53.75
L 68.05 52.6
Q 68.05 52.2 68.25 52
L 68.5 51.6
Q 68.65 51.45 68.8 51.5 68.9 51.75 69.15 51.75
L 69.15 51.25 69.9 51.5
Q 70.15 51.65 70.55 51.35
L 70.8 51.25 71.75 51.25 72.3 51.35
Q 72.5 51.55 73.05 51.6
L 73.4 51.6 74.4 51.45 74.8 51.45 75.4 51.25
Q 75.75 51.3 76.15 51.25 76.9 51.1 77.15 50.55
L 77.15 50.25 76.9 50 76.55 49.85 76.4 49.85 76.3 50 76 49.85
Q 75.9 49.85 75.4 50.05 74.9 50.5 74.55 50.5
L 73.9 50.6 73.55 50.55
Q 73.4 50.45 73.55 50.3
L 73.8 50.1
Q 74 50.1 74 49.95 74.25 49.95 74.55 49.55 74.7 49.45 74.65 49.25
L 74.8 49.35
Q 74.95 49.5 75.15 49.25
L 75.8 49.05 75.55 49
Q 75.75 48.85 75.9 49
L 76.15 49 76.65 48.7 76.65 48.55 76.9 48.7 77 48.5
Q 77.05 48.45 77 48.25 77.15 48.35 77.25 48.1
L 77.3 47.95
Q 77.3 47.75 77.05 47.75
L 77.05 47.95
Q 76.9 47.75 76.9 47.5
L 76.8 47.35 76.4 47.2 75.65 47.3 75.3 47.45 74.4 47.6
Q 73.95 47.5 73.8 47.7
L 73.5 47.75 73 47.7
Q 72.7 47.6 72.4 47.6 71.9 47.45 71.75 47.3
L 70.3 46.6 69.8 46.45
Q 69.7 46.45 69.65 46.35
L 69 46.2 68.8 46.05
Q 68.9 46.05 68.8 45.95 68.8 45.75 68.9 45.75
L 68.65 45.55
Q 68.65 45.25 68.75 45.25
L 68.8 45.1
Q 68.75 44.95 68.8 44.95
L 68.8 44.55
Q 68.55 44.55 68.55 44.25 68.5 44.15 68.3 44.2
L 68.15 44.25 67.8 44.2 67.55 44.25
Q 67.1 44.3 66.8 44.45 66.15 44.7 65.75 44.45
L 65.55 44.35
Q 65.4 44.4 64.9 44.2 64.55 44 64.4 44 64 44 64 43.7 63.75 43.3 63.95 43.2
L 63.9 43.05
Q 63.8 43.05 63.8 42.8
L 63.8 42.25
Q 64.05 42.35 64.3 42.25 64.65 42.15 64.8 42.25
L 64.55 42 64.8 42.05
Q 65.05 42.2 65.05 42.05
L 65.15 42
Q 65.2 42.05 65.5 42
L 66 41.8
Q 66.1 41.9 66.25 41.7
L 66.15 41.6 66.15 41.5 66.3 41.5 66.3 41.6 66.25 41.7 66.5 41.5 66.65 41.6 66.9 41.3 66.65 41.25 67.15 40.1 67.15 40 67.05 39
Q 67.25 39.15 67.55 39
L 67.55 38.75
Q 67.75 38.85 67.75 38.55
L 68.15 38.55
Q 68.35 38.65 68.5 38.5
L 68.55 38.55
Q 69.5 39.15 69.55 39.25 69.75 39.45 69.9 39.3 70.05 39.6 70.4 39.75
L 70.65 39.8 70.55 39.5 70.9 39.25 70.3 39 70.5 39.35 70.4 39.45 70.15 39 70.3 39 70.15 38.8
Q 69.95 38.6 70.15 38.35
L 70.3 38.25 70.15 37.75
Q 70.15 37.25 70.05 36.85
L 70.05 36.75
Q 70.05 36.4 69.9 36.25 70.05 35.95 70 35.55
L 69.9 35.45
Q 69.95 35.3 69.9 35.1 69.8 35 69.8 34.75
L 69.8 34.25
Q 69.95 34.15 70.05 33.75 70.15 33.5 70 33.5 69.6 33.2 69.75 32.85 70 32.3 69.65 31.5
L 69.8 31.3
Q 69.75 31.3 69.8 31.15 69.95 30.6 69.75 29.9
L 69.75 29.65
Q 69.85 29.55 69.75 29.25
L 69.75 28.4
Q 69.65 28.15 69.8 27.9
L 70 27.75 70.05 27.5 70.05 27.4 70.15 27.3 69.65 27.15 69.55 27.15 68.55 26.8 68.4 26.5 68.3 26.4 67.9 25.75
Q 67.65 25.2 67.5 25.15
L 67.4 25.05
Q 67.15 24.5 67.05 24.5 66.75 24.15 66.75 24 66.5 23.95 66.5 23.75
L 66.4 23.65
Q 66.3 23.65 66.3 23.75
L 66.25 23.9
Q 66.15 23.8 66 23.9 65.85 24.1 65.65 23.9
L 65.9 23.55 65.55 23.25 65.4 23.5 65.05 23.4 65.15 23.15 65.55 23.25 65.55 23.15 66.15 23.25 65.8 22.75 65.65 22.9 65.4 22.8 65.4 22.75 65.55 22.65 65.25 22.5 65.15 22.15 64.9 22.65 64.65 22.5 64.65 23
Q 64.95 22.9 65.05 23.15
L 64.55 23.4 64.65 23.5 64.5 23.75
Q 64.5 24 64.3 24 64.15 24.15 63.9 24
L 64 24.4 63.8 24.4
Q 63.8 24.6 63.65 24.65
L 63.4 24.75
Q 63.2 24.7 63.3 24.5 63.5 24.4 63.3 24.25
L 63.45 24.15 63.25 24 63.45 23.9 63.65 24 63.75 24
Q 63.85 23.85 64.15 23.75
L 64.05 23.5 64.15 23.4 63.75 23.25
Q 63.45 23.65 63.5 23.75 63.2 23.6 63 23.75 62.8 23.6 62.65 23.75
L 62.8 24.15 62.5 24.25 62.05 24.15
Q 62.15 24.3 62.4 24.3
L 62 24.55
M 63.25 24.3
L 63.15 24.55
Q 63.15 24.7 63 24.75 62.9 24.9 62.75 24.75
L 63.2 24.25 63.25 24.3
M 64.9 23.65
L 64.8 23.9 64.75 23.9 64.8 23.75 64.9 23.65
M 57.8 27.9
L 58.2 28.05 58.4 28.5 58.45 28.75
Q 58.3 28.85 58.2 28.75
L 58 28.65 58.05 28.75 58 28.75 58 28.65 57.8 28.65 58 28.9 57.7 28.75 57.5 28.3 57.9 28.5
Q 57.7 28.2 57.8 27.9
M 56.45 29.5
L 56.4 29.4 56.5 29.3
Q 56.75 29.3 56.75 29.5 56.65 29.7 56.45 29.5
M 56.2 30.15
L 56.5 30.05 56.25 30.4 56.2 30.15
M 60.45 27.9
L 60.55 28
Q 60.85 28 60.9 28.15
L 60.75 28.4 61 28.65 60.95 29
Q 60.6 29.15 60.5 28.9 60.5 28.8 60.3 28.8 60.05 28.8 60.15 28.4 59.95 28.35 60.2 28.25
L 60.05 28 60.45 27.9
M 59.5 28
L 59.7 28 59.75 28.15 59.65 28.15 59.5 28
M 59.8 29.15
L 60 29.25
Q 60 29.4 59.5 29.4
L 59.55 29.55
Q 59.55 29.65 59.3 29.65 59.1 29.65 59.05 29.75
L 59 29.15 59.2 29.15 59.2 28.9
Q 59.4 28.85 59.5 29
L 59.4 29.05 59.7 29.25 59.8 29.15
M 60.4 29
Q 60.55 29 60.55 29.15
L 60.5 29.4 60.25 29.4 60.5 29.65 60 29.75
Q 59.95 29.7 60.05 29.5 60.2 29.5 60.25 29.4 60.15 29.4 60.2 29.25
L 60.4 29
M 60 30.75
L 59.75 30.4 60 30.25 60.15 30.5 60 30.75
M 58.4 29.3
L 58.4 29.5 58.05 29.15
Q 58.25 29.15 58.4 29.3
M 52.5 30.55
L 52.5 30.75 52.55 30.8
Q 53 30.8 53.15 31.15
L 53.25 31.3 52.95 31.55 52.7 31.9 52.45 31.65 52.75 31.5
Q 52.6 31.35 52.45 31.4 52.2 31.55 52.2 31.4
L 51.95 30.9 52.2 30.75
Q 52.2 30.55 52.5 30.55
M 52 31.65
L 52.05 31.55 52.4 31.75 52.25 32 52.5 32
Q 52.4 32.2 52.25 32.05
L 52.25 32 51.95 31.9 51.8 31.75 52 31.65
M 51.25 32.85
L 51.3 32.75 51.4 32.75 51.4 32.95 51.25 32.85
M 51 34.25
L 51.05 34.45
Q 50.75 34.75 50.5 34.7
L 50.55 34.3 51 34.25
M 50.7 35.85
L 50.65 35.7 50.75 35.7 50.75 35.8 50.7 35.85
M 50.5 29.55
L 50.3 29.65
Q 50.2 29.55 50.3 29.3
L 50.5 29.55
M 44.4 33.35
L 44.4 33.1 44.7 33.1
Q 44.45 33.4 44.4 33.35
M 40.5 33.45
L 40.65 33.5 40.8 33.85 40.75 33.95 40.2 33.7 40.5 33.6 40.5 33.45
M 42.7 33.25
Q 42.6 33.2 42.5 32.95
L 42.75 33.05 42.7 33.25
M 42.9 32.8
L 43 32.8 43.15 33 42.95 33 42.9 32.8
M 43.3 35.5
L 43.5 35.45 43.5 35.5 43.4 35.6 43.3 35.5
M 49.9 31.9
L 49.75 32 49.7 32 49.75 31.75
Q 50.05 31.75 49.9 31.9
M 48.7 31.25
L 49 31.3
Q 49.05 31.5 48.9 31.5 48.7 31.5 48.7 31.25
M 48.75 32.5
Q 48.9 32.55 48.75 32.85
L 48.65 32.75 48.75 32.5
M 49 33
L 49.15 32.8 49.4 33
Q 49.2 33.2 49 33
M 49.9 33
L 50.2 33
Q 50.1 33.25 50 33.25 49.65 33.25 49.9 33
M 49.75 35.35
L 49.9 35.5
Q 50.05 35.35 49.95 35.25
L 50.2 35.25 50.05 35.6 49.75 35.55 49.7 35.75
Q 49.55 35.6 49.75 35.35
M 48.3 34.75
Q 48.55 34.95 48.75 34.75
L 48.5 34.75
Q 48.45 34.65 48.55 34.35
L 48.75 34.75 48.9 34.8 48.55 35 48.3 34.75
M 41.45 46.25
L 41.45 46.1 41.55 45.8 41.75 46.05 41.65 46.2 41.7 46.25
Q 41.85 46.25 41.75 46.35 41.7 46.5 41.55 46.45
L 41.45 46.25
M 42.25 45.5
L 42.2 45.25 42.5 45.25 42.25 45.5
M 63.3 25.15
L 63.45 24.75 63.8 24.9 63.3 25.15
M 64.55 24.8
L 64.75 25 64.55 25.15 64.15 25
Q 64.3 24.7 64.55 24.8
M 63.15 25.4
Q 62.85 25.5 62.75 25.4
L 62.75 25.25 62.7 25.15 63.2 24.9 63.15 25.4
M 62.05 25.75
Q 62.2 25.9 62.05 26
L 61.95 26.3 62.15 26.4 62.15 26.5
Q 62 26.5 61.5 26.15
L 61.5 25.9 61.8 25.75
Q 61.5 25.6 61.45 25.8
L 61.25 25.55 61.65 25.4 62.05 25.75
M 61.15 27.65
L 61.4 27.8
Q 61.3 28 61.15 28
L 60.9 28
Q 60.8 27.8 61.15 27.65
M 61.45 27.5
L 61.5 27.4 61.75 27.8
Q 61.75 28 61.55 28
L 61.45 27.5
M 62.3 27.8
Q 62.3 27.65 62.4 27.65
L 62.5 27.75 62.45 28.15 61.65 28.4
Q 61.9 28.15 61.9 27.8 61.95 27.75 62.15 27.8
L 62.25 28 62.3 27.8
M 40.45 33.25
L 40.2 32.85
Q 40.35 32.85 40.65 33.25
L 40.45 33.25
M 37.9 32.05
L 37.9 31.9 38.25 31.75
Q 38.1 32.05 37.9 32.05
M 37.5 34.2
Q 37.55 34.35 37.45 34.45 37.25 34.55 37.05 34.35
L 37.5 34.2
M 36.7 34.75
L 36.5 34.3 36.55 34.25 36.8 34.5
Q 36.85 34.65 36.7 34.75
M 38 38.5
L 38.05 38.7 37.75 38.6 38 38.5
M 36.45 38.5
L 36.5 38.6 36.4 38.7 36.3 38.55 36.45 38.5
M 37.05 38.85
L 37 38.95 36.75 38.75 37 38.55 37.05 38.85
M 36.75 41.35
Q 36.95 41.45 36.75 41.55
L 36.55 41.45 36.75 41.35
M 37.05 41
L 37.2 41.25 36.9 41.2 37.05 41
M 37.25 41.6
L 37.25 41.45
Q 37.65 41.5 37.5 41.7 37.35 41.8 37.5 41.95
L 37.15 42 37.05 41.5 37.25 41.6
M 36.8 40.8
L 36.75 40.95 36.5 40.85 36.7 40.55 36.8 40.8
M 36.25 41.6
Q 36.3 41.3 36.25 41.25 36.25 41.1 36.5 41
L 36.5 42 36.25 41.6 36.25 41.7 36.2 41.6 36 42.2 36.2 42.7 35.65 42.75
Q 35.95 42.45 35.95 42
L 36 41.5 36.2 41.6 36.25 41.6
M 35.5 42.85
L 35.45 43.05 35.15 42.8
Q 35.05 42.9 35.05 43.25
L 34.8 43 35 42.5 35.5 42.85
M 36.3 42.75
L 36.55 42.75 36.75 42.25
Q 37.15 42.5 37.4 42.2
L 37.5 42.3
Q 37.65 42.25 37.75 42.3
L 37.9 42.5
Q 37.7 42.5 37.5 42.3
L 37.45 42.5
Q 37.8 42.7 37.65 43
L 37.3 43 37 42.8
Q 37.2 43.25 37 43.6 36.8 43.6 36.8 43.5
L 36.75 43.45
Q 36.65 43.2 36.8 43 36.9 43 36.9 42.7
L 36.65 42.95 36.3 42.8 36.3 42.75
M 39.15 42.5
L 39.05 42.5 38.95 42.35
Q 39.15 42.35 39.15 42.5
M 38.95 43.25
L 38.7 43.25
Q 38.55 43.25 38.5 43.05
L 38.7 43.1 38.7 43 39 42.85 39.2 43 39.5 42.75 39.65 43 39.45 43.3
Q 39.45 43.3416015625 39.6 43.6 39.3916015625 43.5138671875 39.25 43.75
L 38.95 43.95
Q 38.75 43.8 38.9 43.75
L 38.95 43.25
M 35.15 44.05
L 35 44 35 43.85 34.75 43.7
Q 35.15 43.55 35.65 43.7
L 35.4 44 35.2 43.85 35.15 44.05
M 34.65 45.35
L 34.7 45.45
Q 34.7 45.5 34.5 45.5
L 34.65 45.35
M 35.15 45.75
L 35.25 45.55 35.45 45.45 35.5 45.25 35.4 45.05
Q 35.15 44.95 35.45 44.75
L 35.8 44.8
Q 35.7 45.1 35.75 45.2
L 36 45.45
Q 36.15 45.45 36.15 45.3
L 36.4 45.3
Q 36.1 45.6 36.2 45.75
L 36 45.95 35.8 46 35.75 46 35.5 46.45 35.3 46.35 35.45 46 35.15 45.75
M 32.75 48
L 32.55 48 32.5 47.3 32.95 47.25
Q 32.8 47.1 32.95 46.75 33.05 47 33.2 47
L 33.5 46.95 33.8 47.35 33.95 47.85
Q 33.95 48.05 33.75 48.25
L 33.5 48.05 33.25 48 33.4 47.7 33.25 47.5 32.95 47.75 32.95 48.2 32.75 48
M 32.2 49
L 32.25 48.8 32.45 48.8 32.55 49 32.2 49
M 34.5 47.55
L 34.8 47.85 34.8 48 34.45 47.85 34.5 47.55
M 34.5 47.25
Q 34.65 47.05 34.4 46.7 34.85 46.75 35.15 47.05 34.75 47.35 34.5 47.25
M 34.7 48.6
L 34.75 48.5 34.5 48.3
Q 34.5 48.1 34.7 48.1 35 48.1 35.15 48 35.35 47.9 35.55 48.2
L 35.45 48.25
Q 35.15 48.25 35.15 48.5
L 34.75 48.8 34.7 48.6
M 39.45 44.75
L 39.55 44.75 39.95 45.1 39.95 45.25 39.5 45.45 39.3 45.35 39.75 45 39.5 45.05 39.45 44.75
M 38 43.85
L 38.25 43.55
Q 38.4 44.05 38.05 44.25 37.95 44.05 38 43.85
M 38.5 44.7
L 38.4 44.5 38.5 44.3 38.4 44.2 38.9 44.25
Q 39.05 44.45 38.9 44.75 39.15 44.85 39 45.1 38.5 44.95 38.5 44.7
M 38.95 45.6
Q 39.05 45.6 39 45.5 39.3 45.45 39.3 45.5 39.5 45.55 39.15 45.75
L 39 45.75
Q 38.85 46.1 38.75 46.1
L 38.2 46 38.2 45.75
Q 38 45.85 38 46
L 38 46.25
Q 38.45 46.5 38.5 46.75
L 37.95 46.95 38 46.25
Q 37.8 46.1 37.95 45.75
L 37.75 45.75 37.75 45.5
Q 38.05 45.35 38.25 45.55 38.25 45.75 38.5 45.5
L 38.75 45.8
Q 38.75 45.6 38.95 45.6
M 39.95 46.3
L 40.15 46.2 40.05 46.5 39.95 46.3
M 36.2 43.85
L 36.2 44 36.5 44 36.55 44.35 36.3 44.6 36.15 44.6 36.05 44.5
Q 36.05 44.35 36.15 44.25 36 44.1 36 43.75
L 36.2 43.85
M 36 44.25
L 35.7 44.2 35.75 44.3 35.5 44.5
Q 35.4 44.25 35.65 44 35.65 44.1 36 44.25
M 36.15 46.1
L 36.25 46 36.25 45.8 36.5 45.75 36.75 45.85
Q 36.9 46.25 36.5 46.45
L 36.55 46.25
Q 36.65 46.2 36.5 46.05 36.3 46.05 36.3 46.25
L 36.15 46.1
M 37 45.6
Q 36.95 45.8 36.75 45.7
L 36.4 45.1
Q 36.55 45.25 36.9 45
L 37 45.55 37 45.6
M 37.3 46.05
L 37.2 46.25 37.05 46.05 37.3 46.05
M 37.75 47.05
L 37.9 47 37.95 47.35
Q 38 47.5 38.15 47.35 38.2 47.5 38.15 47.7 37.75 47.5 37.55 47.7
L 37.55 47.5
Q 37.75 47.35 37.75 47.05
M 37 46.45
L 37 47 36.7 47.1 36.55 47.2 36.5 47.05 36.2 46.8 36.3 46.6 37 46.45
M 36 47.75
Q 36.1 47.55 36.65 47.55
L 36.65 47.8
Q 36.4 48 36.2 48
L 36 47.75
M 36.15 48.6
L 36.2 48.25 36.4 48.7 36.15 48.6
M 35.5 49
L 35.65 49 35.65 49.25 35.25 49.25 35.5 49
M 37.5 48.35
L 37.75 48.7
Q 37.65 48.8 37.55 48.6 37.5 48.75 37.3 48.7 37.25 48.5 37.5 48.35
M 37.75 49
L 37.9 48.85 38.25 49
Q 38.25 49.35 38 49.45
L 37.75 49
M 37.4 48.95
L 37.45 49.05 37.45 49.25 37 48.95 37.4 48.95
M 39.65 47.3
L 39.55 47.35 39.25 47.25
Q 39.4 47.1 39.5 47.2
L 39.65 47.3
M 39.75 46.75
Q 39.55 46.9 39.25 46.75
L 39.5 46.55 39.75 46.75
M 39.5 47.75
L 40 47.75
Q 39.9 48 39.55 48 39.45 47.8 39.45 48 39.15 48.1 38.95 47.95
L 39 47.6
Q 39.25 47.5 39.5 47.75
M 38.3 47.6
L 38.4 47.5 38.5 47.5 38.75 47.7
Q 38.75 47.9 38.65 47.95
L 38.7 47.75 38.3 47.6
M 38.3 48.05
Q 38.5 48.1 38.4 48.35
L 38.15 48.3 38.3 48.05
M 38.8 50.2
L 38.75 50.45 38.5 50.3
Q 38.6 50.2 38.8 50.2
M 38.5 51.05
L 38.55 51.1 38.45 51.55 38.25 51.3 38.5 51.05
M 37.55 50
L 37.8 50.3 37.65 50.5 37.25 50.25
Q 37.05 50.2 37.2 49.85
L 37.4 50.1 37.55 50
M 36.75 49.6
L 36.8 49.75
Q 36.8 49.85 36.65 49.75 36.65 49.4 36.75 49.6
M 36.55 52.1
L 36.65 52 36.7 52 36.8 52.2 36.55 52.1
M 37.4 51.25
L 37 51.25
Q 37.1 51 37.4 51
L 37.4 51.25
M 37.7 51.5
L 37.9 51.7
Q 38 51.75 38 51.95 37.75 51.95 37.75 51.75
L 37.7 51.5
M 35.25 51.85
L 35.4 51.8
Q 35.55 51.95 35.4 52
L 35.2 52.1 35.25 51.85
M 31.6 51.55
L 31.6 51.25
Q 31.6 51.05 31.75 51.05
L 31.85 51.2 31.85 51.25 31.6 51.55
M 73.3 51.2
Q 73.15 50.9 73.25 50.8
L 73.3 50.8 73.3 51.2 Z"/>
</g>

<g id="Layer2_0_MEMBER_1_MEMBER_0_MEMBER_0_MEMBER_0_FILL">
<path fill="#000000" stroke="none" d="
M 96 49.3
L 95.9 49.45
Q 95.7 49.3 95.3 49.3
L 93.55 49.95
Q 93.1 49.8 92.8 50.05
L 92.65 50.05 91.9 50.25 91.65 50.25 90.05 50.7
Q 89.6 50.85 89.25 50.75
L 86.9 50.1
Q 86.7 50.25 86 50.25
L 85.65 50.45
Q 85.65 50.55 85.4 50.55
L 84.8 50.85 84.4 51 84.15 51 82.9 51.75
Q 82.6 51.8 82.55 51.75
L 82.05 51.95 81.65 52 81.3 52 81 52.1 80.05 52.2
Q 79.55 52.15 79.3 52.2
L 79.15 52.2 78.9 52.05
Q 78.7 51.6 78.15 51.6
L 78.15 51.45
Q 77.9 51.6 77.75 51.55
L 77.55 51.55 77.4 51.8
Q 77.45 52.05 77.25 52
L 77.05 52 77.05 52.25 77.15 52.45
Q 77.3 52.85 77.65 53
L 78.05 53.2
Q 78.25 53.3 78.4 53.25
L 78.4 53.3 78.9 53.45 79.3 53.5 79.75 53.45 79.9 53.35 80.75 53.25 81.65 53
Q 82 53 81.9 53.3
L 81.8 53.5
Q 81.3 53.9 81.25 54.05
L 80.9 54.45
Q 80.75 54.75 80.4 54.75 80.55 55.2 80.5 55.25
L 80.65 55.5 81.05 55.7 82.15 55.8
Q 82.35 55.9 82.55 55.75
L 83.4 55.5 83.5 55.45
Q 83.65 55.05 84.3 54.8 84.2 54.7 84.5 54.5
L 85.3 53.85
Q 85.4 53.75 85.55 53.75
L 87 53.1
Q 87.85 52.8 88.15 52.8
L 88.3 52.8 88.9 52.7
Q 89.2 52.7 89.9 52.35
L 89.9 52.3
Q 90.1 52.2 90.3 52.2
L 91.05 52.05 92.4 52 93.5 51.75
Q 93.6 51.7 93.65 51.75
L 94.15 51.75 95.55 51.45 96 51.25
Q 96.1 51.1 96.3 51.2
L 96.5 51.2 96.75 50.85 96.9 50 96.9 49.8 96.75 49.45 96 49.3 Z"/>
</g>

<g id="Layer2_0_MEMBER_2_MEMBER_0_MEMBER_0_MEMBER_0_FILL">
<path fill="#000000" stroke="none" d="
M 70.4 63.25
Q 70.4 63.1 70.05 62.85
L 70.05 62.75 69.4 62.55 68.75 62.5
Q 68.3 62.6 68.05 62.5 68 62.7 67.4 62.7 67.25 63 66.9 63.2 66.4 63.35 66.25 63.5
L 65.9 64.25
Q 65.75 64.6 65.8 64.7
L 65.65 65.1
Q 65.65 65.35 65.4 65.6 65.65 65.85 65.65 66.1 65.5 66.5 65.9 66.75 65.7 67.05 66.05 67.2
L 66.65 67.85 66.65 68
Q 66.85 67.95 67.15 68.1
L 67.4 68.2
Q 68 68.45 69.05 68.35
L 69.9 67.95
Q 70.3 67.7 70.65 67.1
L 70.8 66.85 71.15 66.45 71.5 65.85 71.65 65.45
Q 71.4 65.25 71.5 64.95 71.5 64.4 71.15 64.2
L 71.15 64.1 71.3 63.95 71 63.85 70.9 63.7
Q 70.85 63.55 70.9 63.5 71 63.45 70.9 63.35
L 70.8 63.25 70.8 63.45 70.4 63.25 Z"/>
</g>

<g id="Layer2_0_MEMBER_3_MEMBER_0_MEMBER_0_MEMBER_0_FILL">
<path fill="#000000" stroke="none" d="
M 10.1 73.6
Q 9.7 73.95 9.3 73.95
L 9.05 74.2 8.55 74.45
Q 8.2 74.55 8.1 74.5 7.6 74.95 7.3 74.95
L 6.65 75.2
Q 6.5 75.2 6.05 75.45 5.6 75.6 5.4 75.6 5.5 75.75 5.25 75.75
L 3.75 76.2
Q 3.5 76.25 3.25 76.5
L 3.2 76.6
Q 3 76.6 3 76.75
L 2.95 77
Q 3.05 77.45 3.45 77.45 3.8 77.45 4.25 77.2
L 4.55 77
Q 4.9 76.75 5.15 76.75 5.25 76.75 6.15 76.45
L 7.15 75.95 8 75.75 8.35 75.7
Q 8.9 75.55 9.05 75.35
L 9.15 75.2 10.1 74.95 10.75 74.5
Q 11.1 74.45 11.35 74.2
L 11.8 73.95 12.25 73.45
Q 12.3 73.25 12.05 73.1
L 11.35 73.2 10.1 73.6 Z"/>
</g>

<g id="Layer2_0_MEMBER_4_MEMBER_0_MEMBER_0_MEMBER_0_FILL">
<path fill="#000000" stroke="none" d="
M 14.55 76.45
L 13.6 76.6 12.5 77 11.65 77.6 11.35 77.45 11.5 77.7 11.05 78.2 10.35 78.7
Q 9.6 79 10 79.7 10.1 79.95 10.35 79.95
L 10.85 79.85
Q 11 79.85 11.1 79.75 11.65 79.35 12.05 79.35 12.15 79.35 12.15 79.2
L 12.25 79.2 12.55 79.25 12.75 79.1 12.85 78.95
Q 13.1 78.95 13.35 78.7
L 13.4 78.6 13.6 78.45 14.85 77.7
Q 15.2 77.4 15.35 77.1 15.55 76.65 15.1 76.5
L 14.55 76.45 Z"/>
</g>

<g id="Layer2_0_MEMBER_5_MEMBER_0_MEMBER_0_MEMBER_0_FILL">
<path fill="#000000" stroke="none" d="
M 39.95 72.85
L 38.7 73.85 38.65 73.85
Q 38.6 74.15 38.2 74.45
L 37.8 74.7
Q 37.7 74.9 37.5 74.95 37 75.1 36.8 75.35
L 36.55 75.6
Q 36.45 76.05 36.5 76.1 36.7 76.55 37 76.6
L 38.55 75.45
Q 38.75 75.45 38.8 75.25 39.1 74.85 39.45 74.85 39.65 75 39.9 74.75 40.45 74.6 40.45 74.25
L 40.55 74.2 40.7 74.1
Q 40.95 73.75 41.15 73.7
L 41.25 73.35 41.5 72.95
Q 41.65 72.7 41.45 72.5 41.1 72.35 41 72.45
L 40.55 72.6 40.5 72.6
Q 40.4 72.75 40.15 72.75
L 39.95 72.85 Z"/>
</g>

<g id="Layer2_0_MEMBER_6_MEMBER_0_MEMBER_0_MEMBER_0_FILL">
<path fill="#000000" stroke="none" d="
M 23 63.05
L 23.25 62.5
Q 23.35 62.1 22.95 62 22.45 61.95 21.95 62.2
L 21.5 62.5 21 63
Q 20.55 63.55 20.5 63.75
L 20.5 63.95 20.25 64.2 20.35 64.45
Q 20.15 64.45 20 64.7 19.65 65.05 19.25 65.2 19.25 65.35 19 65.6 18.8 65.8 19 66.1 19.1 66.35 19.35 66.2 19.9 66.05 20.1 65.7
L 20.35 65.35 20.85 64.95 21 64.95 22.5 63.85 22.75 63.55
Q 23 63.3 23 63.05 Z"/>
</g>

<g id="Layer2_0_MEMBER_7_MEMBER_0_MEMBER_0_MEMBER_0_FILL">
<path fill="#000000" stroke="none" d="
M 65.5 71.25
Q 65.4 71.5 65.55 71.85
L 65.65 72.2
Q 65.65 72.4 66 72.6 66.25 72.85 66.65 72.85
L 66.75 72.85
Q 67.35 73 67.65 72.45
L 67.8 72.35
Q 68 72.1 68.15 71.5
L 68.15 71
Q 68.05 71.05 67.9 70.85 67.7 70.55 67.25 70.35
L 66.3 70.35 66.15 70.45 65.55 70.95 65.5 71.25 Z"/>
</g>

<g id="Layer2_0_MEMBER_8_MEMBER_0_MEMBER_0_MEMBER_0_FILL">
<path fill="#000000" stroke="none" d="
M 85.8 44.8
Q 85.9 44.95 85.8 45.1 85.7 45.4 85.8 45.55 85.9 45.9 86.15 45.95
L 86.65 46.05
Q 86.65 45.95 87.15 45.8
L 87.65 45.7
Q 87.95 45.3 88.05 45.5
L 88.55 44.75
Q 88.8 44.5 88.65 44.05
L 88.55 43.75
Q 87.85 43.75 87.3 44 87 44.05 86.8 44.25
L 85.8 44.8 Z"/>
</g>

<g id="Layer2_0_MEMBER_9_MEMBER_0_MEMBER_0_MEMBER_0_FILL">
<path fill="#000000" stroke="none" d="
M 81 46.5
L 81.3 45.7
Q 81.15 45.25 80.8 45.25
L 78.9 45.8
Q 78.8 45.95 78.55 46.6
L 78.75 46.8
Q 78.85 47 79.05 47 79.35 47.25 79.65 47.1 79.9 47.1 80.9 46.6
L 81 46.5 Z"/>
</g>

<g id="Layer2_0_MEMBER_10_MEMBER_0_MEMBER_0_MEMBER_0_FILL">
<path fill="#000000" stroke="none" d="
M 35.95 60.6
L 35.25 61.2
Q 34.95 61.45 34.95 61.6 34.9 61.85 35.15 62
L 35.25 62.05 36.65 61.45 36.9 61.2 37.25 60.5 37.2 60.45
Q 36.8 60.25 36.5 60.5
L 36.2 60.5 35.95 60.6 Z"/>
</g>

<g id="Layer2_0_MEMBER_11_MEMBER_0_MEMBER_0_MEMBER_0_FILL">
<path fill="#000000" stroke="none" d="
M 82.55 48.8
Q 82.05 48.8 81.9 48.95
L 81.5 49.25
Q 81.25 49.7 81.55 50
L 81.8 50.45 82.15 50.35
Q 82.6 50.3 82.65 50.05
L 82.9 49.75 83.05 49.25 82.75 48.8 82.55 48.8 Z"/>
</g>

<g id="Layer2_0_MEMBER_12_MEMBER_0_MEMBER_0_MEMBER_0_FILL">
<path fill="#000000" stroke="none" d="
M 7.55 65.2
Q 7.4 65.1 7.15 65.1
L 7.3 65.2 7.25 65.2 7.15 65.1 6.9 65 6.5 65.2 6.25 65.2
Q 6.05 65.3 6.05 65.45
L 5.8 65.25
Q 5.65 65.35 5.4 65.1
L 4.8 65.35 4.75 65.7
Q 5 65.95 5.05 65.85
L 7.65 65.35
Q 7.8 65.3 7.75 64.95
L 7.55 65.2 Z"/>
</g>

<g id="Layer2_0_MEMBER_13_MEMBER_0_MEMBER_0_MEMBER_0_FILL">
<path fill="#000000" stroke="none" d="
M 28.75 63.85
L 28.6 64
Q 28.45 64.1 28.5 64.2
L 28.2 64.35 27.5 64.6
Q 27.25 64.7 27.35 64.85 27.5 65 27.6 64.85
L 27.75 65.1 27.85 64.85 28.7 64.5
Q 29.3 64.45 29.6 64.2
L 29.7 64 29.5 63.85 29.1 63.95 28.85 64.1 28.75 64.1 28.95 63.85 28.75 63.85 Z"/>
</g>

<g id="Layer2_0_MEMBER_14_MEMBER_0_MEMBER_0_MEMBER_0_FILL">
<path fill="#000000" stroke="none" d="
M 37.55 30.5
L 37.55 30.65 37.75 30.75
Q 37.95 30.9 38.25 30.75
L 38 30.5 38.25 30.55
Q 38.5 30.55 38.5 30.4
L 38.5 30.15 38.75 30.25 38.5 29.75
Q 38.3 29.75 38.3 30
L 37.8 29.9 37.75 29.9
Q 37.25 30.05 37.55 30.5 Z"/>
</g>

<g id="Layer2_0_MEMBER_15_MEMBER_0_MEMBER_0_MEMBER_0_FILL">
<path fill="#000000" stroke="none" d="
M 34.65 32.25
L 34.3 32 34.25 31.9 34.05 32 34 32.1 33.5 32.05 33.5 32.1
Q 33.8 32.35 33.8 32.5
L 34 32.35 34.55 32.55
Q 34.55 32.85 34.2 32.75
L 34.15 32.95 33.8 32.85
Q 33.95 33.1 34.4 33.35
L 34.3 33
Q 34.8 32.75 34.7 32.5
L 34.65 32.25 Z"/>
</g>

<g id="Layer2_0_MEMBER_16_MEMBER_0_MEMBER_0_MEMBER_0_FILL">
<path fill="#000000" stroke="none" d="
M 33.2 35.8
Q 33.25 36.05 33 36.05
L 32.9 36.05 33 36.45
Q 32.8 36.65 33.15 36.95
L 33.2 36.75 33.45 36.75
Q 33.6 36.75 33.7 37 33.8 37.3 34.05 37.25
L 34.5 37.1
Q 34.5 37 34.3 37 33.9 37 33.75 36.75
L 33.45 36.55
Q 33.25 36.55 33.25 36.35 33.2 36.25 33.3 36.05
L 33.5 35.95 33.2 35.75 33.2 35.8 Z"/>
</g>

<g id="Layer2_0_MEMBER_17_MEMBER_0_MEMBER_0_MEMBER_0_FILL">
<path fill="#000000" stroke="none" d="
M 36.65 29.75
L 36.5 29.9
Q 36.55 30.1 36.3 30.25
L 36.45 30.5
Q 36 30.5 36.25 30.75
L 36.3 30.9 36.8 30.65 37 30.8 37.3 30.25 37 29.9 36.75 30 36.65 29.75
M 37 30.15
Q 37.15 30.3 37 30.5
L 36.9 30.4 37 30.15 Z"/>
</g>

<g id="Layer2_0_MEMBER_18_MEMBER_0_MEMBER_0_MEMBER_0_FILL">
<path fill="#000000" stroke="none" d="
M 32.75 36.25
L 32.7 35.95 32.55 35.8
Q 32.4 35.55 32.15 35.8 31.95 36.05 32.15 36.1
L 32.2 36.2
Q 31.9 36.75 32.25 36.8
L 32.5 36.45 32.5 36.1 32.75 36.25 Z"/>
</g>

<g id="Layer2_0_MEMBER_19_MEMBER_0_MEMBER_0_MEMBER_0_FILL">
<path fill="#000000" stroke="none" d="
M 36.5 32.75
L 36.25 32.8
Q 36.1 32.8 36 32.95 36.35 32.95 36.65 33.2 36.65 33.35 36.9 33.1
L 37.05 32.8
Q 36.65 32.6 36.5 32.25
L 36.25 32.55 36.5 32.75 Z"/>
</g>

<g id="Layer2_0_MEMBER_20_MEMBER_0_MEMBER_0_MEMBER_0_FILL">
<path fill="#000000" stroke="none" d="
M 37.75 29
L 37.75 29.05
Q 37.95 29.05 37.95 29.25
L 38 29.5
Q 38.25 29.45 38.25 29.15 38.25 28.85 38.45 28.75 38.5 28.65 38.45 28.5 38.25 28.65 38 28.55
L 37.75 29 Z"/>
</g>

<g id="Layer2_0_MEMBER_21_MEMBER_0_MEMBER_0_MEMBER_0_FILL">
<path fill="#000000" stroke="none" d="
M 23.75 68.25
L 23.1 68.35 22.85 68.45
Q 22.65 68.5 22.45 68.7 22.3 68.95 22.5 68.95 22.7 69.15 22.7 68.85 22.75 68.9 23.2 68.75
L 23.35 68.45
Q 23.55 68.55 23.75 68.25 Z"/>
</g>

<g id="Layer2_0_MEMBER_22_MEMBER_0_MEMBER_0_MEMBER_0_FILL">
<path fill="#000000" stroke="none" d="
M 59.45 23.75
L 59.3 23.9
Q 59.3 24 59.45 24
L 59.65 24 59.5 24.05 59.75 24.3 59.45 24.4 59.5 24.55 59.75 24.5 59.75 24.4 60.25 24.3 60.25 24.25 60.05 24.05
Q 60.05 23.95 59.8 23.75
L 59.75 23.9 59.45 23.75 Z"/>
</g>

<g id="Layer2_0_MEMBER_23_MEMBER_0_MEMBER_0_MEMBER_0_FILL">
<path fill="#000000" stroke="none" d="
M 58.05 69.45
L 57.65 69.45
Q 57.4 70.1 58.2 70.1
L 58.25 69.6
Q 58.25 69.45 58.05 69.45 Z"/>
</g>

<g id="Layer2_0_MEMBER_24_MEMBER_0_MEMBER_0_MEMBER_0_FILL">
<path fill="#000000" stroke="none" d="
M 34.2 34.55
L 34.15 34.25
Q 34 34.15 34 34 33.8 34.2 33.8 34.45
L 33.7 34.35
Q 33.15 34.75 33.05 34.75 33.35 34.75 33.65 35
L 33.7 34.8 33.9 34.8 33.8 34.6 34.2 34.55 Z"/>
</g>

<g id="Layer2_0_MEMBER_25_MEMBER_0_MEMBER_0_MEMBER_0_FILL">
<path fill="#000000" stroke="none" d="
M 8.75 73.45
L 8.4 73.45 8.6 73.85 9.3 73.5 9.4 73.35 9.6 73.35
Q 9.55 73.2 9.15 73.2
L 9.1 73.35 8.85 73.25 8.75 73.45 Z"/>
</g>

<g id="Layer2_0_MEMBER_26_MEMBER_0_MEMBER_0_MEMBER_0_FILL">
<path fill="#000000" stroke="none" d="
M 7.3 73.95
L 7.4 74.1 7.3 74.1
Q 7.15 74.05 7.15 74.2
L 7.55 74.25
Q 7.75 74.05 7.9 74
L 8.35 73.85 8.35 73.6 7.3 73.95 Z"/>
</g>

<g id="Layer2_0_MEMBER_27_MEMBER_0_MEMBER_0_MEMBER_0_FILL">
<path fill="#000000" stroke="none" d="
M 32.9 34.25
Q 32.9 34.35 32.75 34.5 32.65 34.65 32.75 34.75
L 33 34.7 32.95 34.5 33.2 34.45 33.2 34.1 33 34.1 32.75 33.95 32.4 34.25 32.9 34.25 Z"/>
</g>

<g id="Layer2_0_MEMBER_28_MEMBER_0_MEMBER_0_MEMBER_0_FILL">
<path fill="#000000" stroke="none" d="
M 62 22.8
L 62.2 22.75
Q 62.4 22.85 62.45 23.05
L 62.5 22.9
Q 62.7 22.9 62.75 22.75 62.75 22.35 62.55 22.4
L 62.5 22.75
Q 62.15 22.5 62 22.5
L 62 22.8 Z"/>
</g>

<g id="Layer2_0_MEMBER_29_MEMBER_0_MEMBER_0_MEMBER_0_FILL">
<path fill="#000000" stroke="none" d="
M 57.2 25.55
Q 57.4 25.65 57.25 25.9 57.1 26.05 57.4 26.05
L 57.65 26.25
Q 57.8 26.3 57.95 26.15
L 57.55 26
Q 57.3 26 57.55 25.8
L 57.65 25.75 57.2 25.4 57.2 25.55 Z"/>
</g>

<g id="Layer2_0_MEMBER_30_MEMBER_0_MEMBER_0_MEMBER_0_FILL">
<path fill="#000000" stroke="none" d="
M 40.75 30.9
L 40.9 30.75 40.65 30.5
Q 40.5 30.35 40.3 30.5
L 40.25 30.5 40.25 30.8 40.7 30.9 40.75 30.9 Z"/>
</g>

<g id="Layer2_0_MEMBER_31_MEMBER_0_MEMBER_0_MEMBER_0_FILL">
<path fill="#000000" stroke="none" d="
M 37 30.9
Q 36.55 30.8 36.4 30.9
L 36.3 30.9 36.4 31.15 36.75 31.15 37 31.3
Q 37.1 31 37 30.9 Z"/>
</g>

<g id="Layer2_0_MEMBER_32_MEMBER_0_MEMBER_0_MEMBER_0_FILL">
<path fill="#000000" stroke="none" d="
M 41.5 29.65
L 41.4 29.8 41.45 30.15 41.4 30.25 41.3 30.25 41.55 30.4
Q 41.75 30.4 41.75 30.15 41.55 30 41.7 29.75
L 41.65 29.65 41.5 29.65 Z"/>
</g>

<g id="Layer2_0_MEMBER_33_MEMBER_0_MEMBER_0_MEMBER_0_FILL">
<path fill="#000000" stroke="none" d="
M 58.4 25.25
Q 58.65 25.5 58.75 25 58.9 24.7 58.55 24.55
L 58.4 25.25 Z"/>
</g>

<g id="Layer2_0_MEMBER_34_MEMBER_0_MEMBER_0_MEMBER_0_FILL">
<path fill="#000000" stroke="none" d="
M 50.45 69.6
Q 50.3 69.5 50.15 69.7
L 50 69.85
Q 50.1 70.15 50.4 70 50.5 70 50.5 69.85
L 50.45 69.6 Z"/>
</g>

<g id="Layer2_0_MEMBER_35_MEMBER_0_MEMBER_0_MEMBER_0_FILL">
<path fill="#000000" stroke="none" d="
M 33.4 35.55
Q 33.15 35.1 33 35
L 33 35.45 33.15 35.7 33.4 35.55 Z"/>
</g>

<g id="Layer2_0_MEMBER_36_MEMBER_0_MEMBER_0_MEMBER_0_FILL">
<path fill="#000000" stroke="none" d="
M 64.8 59.95
L 64.75 59.95 64.55 60.1 65.05 60.3
Q 65.25 60.5 65.3 60.25 65.35 60.2 65.15 60.05
L 64.8 59.95 Z"/>
</g>

<g id="Layer2_0_MEMBER_37_MEMBER_0_MEMBER_0_MEMBER_0_FILL">
<path fill="#000000" stroke="none" d="
M 40.2 31.8
L 40.15 31.75
Q 40.3 32.1 40 32.25
L 40.2 32.35
Q 40.55 32 40.55 31.8
L 40.4 31.9
Q 40.2 31.95 40.2 31.8 Z"/>
</g>

<g id="Layer2_0_MEMBER_38_MEMBER_0_MEMBER_0_MEMBER_0_FILL">
<path fill="#000000" stroke="none" d="
M 41.7 31.4
L 41.7 31.05 41.15 31 41.3 31.5
Q 41.4 31.5 41.4 31.25
L 41.7 31.4 Z"/>
</g>

<g id="Layer2_0_MEMBER_39_MEMBER_0_MEMBER_0_MEMBER_0_FILL">
<path fill="#000000" stroke="none" d="
M 30.25 63.75
L 30 63.75
Q 29.7 63.75 29.7 64
L 29.75 64.2 29.85 64
Q 30.25 64.1 30.25 63.75 Z"/>
</g>

<g id="Layer2_0_MEMBER_40_MEMBER_0_MEMBER_0_MEMBER_0_FILL">
<path fill="#000000" stroke="none" d="
M 33.75 38.95
L 33.55 39
Q 33.85 39.05 33.9 38.75
L 34.2 38.75 34.3 38.55 33.9 38.5
Q 33.9 38.75 33.7 38.75
L 33.75 38.95 Z"/>
</g>

<g id="Layer2_0_MEMBER_41_MEMBER_0_MEMBER_0_MEMBER_0_FILL">
<path fill="#000000" stroke="none" d="
M 60.55 21.55
Q 60.65 21.9 61 21.9
L 61.2 21.65 61.2 21.5
Q 60.95 21.5 60.8 21.75
L 60.55 21.55 Z"/>
</g>

<g id="Layer2_0_MEMBER_42_MEMBER_0_MEMBER_0_MEMBER_0_FILL">
<path fill="#000000" stroke="none" d="
M 60.65 24.25
L 60.95 24.25 60.75 23.75
Q 60.5 24 60.65 24.25 Z"/>
</g>

<g id="Layer2_0_MEMBER_43_MEMBER_0_MEMBER_0_MEMBER_0_FILL">
<path fill="#000000" stroke="none" d="
M 23.75 68.2
L 24 68.2 24.45 67.85 23.85 67.95 23.75 68.2 Z"/>
</g>

<g id="Layer2_0_MEMBER_44_MEMBER_0_MEMBER_0_MEMBER_0_FILL">
<path fill="#000000" stroke="none" d="
M 40.75 30.25
L 41 30.25 40.65 29.65 40.65 29.75 40.5 29.65
Q 40.45 29.8 40.55 30 40.75 30.15 40.75 30.25 Z"/>
</g>

<g id="Layer2_0_MEMBER_45_MEMBER_0_MEMBER_0_MEMBER_0_FILL">
<path fill="#000000" stroke="none" d="
M 10.1 73.2
L 10.25 73.2 10.25 72.95 10.05 72.95 9.6 73.1
Q 9.85 73.45 9.85 73.2 10 73.15 10.1 73.2 Z"/>
</g>

<g id="Layer2_0_MEMBER_46_MEMBER_0_MEMBER_0_MEMBER_0_FILL">
<path fill="#000000" stroke="none" d="
M 38 32.8
L 38.3 32.7
Q 38.15 32.3 37.75 32.55
L 38 32.8 Z"/>
</g>

<g id="Layer2_0_MEMBER_47_MEMBER_0_MEMBER_0_MEMBER_0_FILL">
<path fill="#000000" stroke="none" d="
M 39.9 29.65
L 39.5 30
Q 39.55 30.15 39.95 30.05
L 39.95 29.9 40.15 29.9 39.9 29.65 Z"/>
</g>

<g id="Layer2_0_MEMBER_48_MEMBER_0_MEMBER_0_MEMBER_0_FILL">
<path fill="#000000" stroke="none" d="
M 40 31.05
L 40.15 31.4 40.3 31.25 40.3 30.9 40.2 30.9
Q 40 30.9 40 31.05 Z"/>
</g>

<g id="Layer2_0_MEMBER_49_MEMBER_0_MEMBER_0_MEMBER_0_FILL">
<path fill="#000000" stroke="none" d="
M 33.2 44.6
Q 33.15 44.45 33.2 44.25 32.8 44.4 32.75 44.5
L 32.8 44.6 33.2 44.75 33.05 44.6 33.2 44.6 Z"/>
</g>

<g id="Layer2_0_MEMBER_50_MEMBER_0_MEMBER_0_MEMBER_0_FILL">
<path fill="#000000" stroke="none" d="
M 61.5 21.8
L 61.25 21.9
Q 61.2 22.2 61.4 22.25
L 61.55 22 61.65 21.9
Q 61.6 21.8 61.5 21.8 Z"/>
</g>

<g id="Layer2_0_MEMBER_51_MEMBER_0_MEMBER_0_MEMBER_0_FILL">
<path fill="#000000" stroke="none" d="
M 48.5 30.25
L 48.45 30.25 48.45 30.5 48.7 30.5 48.75 30.65 48.95 30.65 49 30.5 48.75 30.3
Q 48.65 30.4 48.5 30.25 Z"/>
</g>

<g id="Layer2_0_MEMBER_52_MEMBER_0_MEMBER_0_MEMBER_0_FILL">
<path fill="#000000" stroke="none" d="
M 33.7 42.6
L 34.15 42.75 34.15 42.35 34 42.35
Q 33.9 42.7 33.65 42.35
L 33.7 42.6 Z"/>
</g>

<g id="Layer2_0_MEMBER_53_MEMBER_0_MEMBER_0_MEMBER_0_FILL">
<path fill="#000000" stroke="none" d="
M 41.95 30.75
L 41.75 30.65
Q 41.6 30.6 41.5 30.75 41.65 31 41.8 31
L 41.95 30.75 Z"/>
</g>

<g id="Layer2_0_MEMBER_54_MEMBER_0_MEMBER_0_MEMBER_0_FILL">
<path fill="#000000" stroke="none" d="
M 36.65 31.65
Q 36.65 31.45 36.45 31.3
L 36.4 31.55 36.65 31.75
Q 36.75 31.9 36.95 31.9
L 36.65 31.65 Z"/>
</g>

<g id="Layer2_0_MEMBER_55_MEMBER_0_MEMBER_0_MEMBER_0_FILL">
<path fill="#000000" stroke="none" d="
M 63.05 60.25
Q 63.15 60.35 63.2 60.25
L 63.5 60.35
Q 63.5 60.25 63.05 60
L 63.05 60.25 Z"/>
</g>

<g id="Layer2_0_MEMBER_56_MEMBER_0_MEMBER_0_MEMBER_0_FILL">
<path fill="#000000" stroke="none" d="
M 32.2 45.35
L 32.5 45.55 32.8 45.55
Q 32.45 45.2 32.2 45.35 Z"/>
</g>

<g id="Layer2_0_MEMBER_57_MEMBER_0_MEMBER_0_MEMBER_0_FILL">
<path fill="#000000" stroke="none" d="
M 67.15 60.95
L 67.25 61.1 67.3 61.2
Q 67.65 61.2 67.65 61 67.6 60.85 67.4 61.05
L 67.15 60.95 Z"/>
</g>

<g id="Layer2_0_MEMBER_58_MEMBER_0_MEMBER_0_MEMBER_0_FILL">
<path fill="#000000" stroke="none" d="
M 56.75 26.3
L 57.15 26.65 57.25 26.5
Q 57.15 26.3 56.75 26.3 Z"/>
</g>

<g id="Layer2_0_MEMBER_59_MEMBER_0_MEMBER_0_MEMBER_0_FILL">
<path fill="#000000" stroke="none" d="
M 57.9 25.15
L 58 25.55 58.25 25.25 57.9 25.15 Z"/>
</g>

<g id="Layer2_0_MEMBER_60_MEMBER_0_MEMBER_0_MEMBER_0_FILL">
<path fill="#000000" stroke="none" d="
M 10.6 72.75
Q 10.45 72.75 10.35 72.85
L 10.25 72.95 10.6 73.1 10.6 72.75 Z"/>
</g>

<g id="Layer2_0_MEMBER_61_MEMBER_0_MEMBER_0_MEMBER_0_FILL">
<path fill="#000000" stroke="none" d="
M 48 31.5
L 47.9 31.3 47.65 31.4 47.8 31.65 48 31.5 Z"/>
</g>

<g id="Layer2_0_MEMBER_62_MEMBER_0_MEMBER_0_MEMBER_0_FILL">
<path fill="#000000" stroke="none" d="
M 60.05 21.75
Q 60.05 21.7 59.9 21.75
L 59.7 21.8 59.9 21.9 60 21.9 60.05 21.75 Z"/>
</g>

<g id="Layer2_0_MEMBER_63_MEMBER_0_MEMBER_0_MEMBER_0_FILL">
<path fill="#000000" stroke="none" d="
M 34.5 31.8
L 34.55 32 34.75 31.9
Q 34.85 31.85 34.65 31.65
L 34.5 31.8 Z"/>
</g>

<g id="Layer2_0_MEMBER_64_MEMBER_0_MEMBER_0_MEMBER_0_FILL">
<path fill="#000000" stroke="none" d="
M 61.45 23.4
L 61.15 23.55
Q 61.15 23.65 61.5 23.65
L 61.45 23.4 Z"/>
</g>

<g id="Layer2_0_MEMBER_65_MEMBER_0_MEMBER_0_MEMBER_0_FILL">
<path fill="#000000" stroke="none" d="
M 36.75 29.4
L 37.05 29.25 37 29.05
Q 36.75 29.2 36.75 29.4 Z"/>
</g>

<g id="Layer2_0_MEMBER_66_MEMBER_0_MEMBER_0_MEMBER_0_FILL">
<path fill="#000000" stroke="none" d="
M 40.05 29.4
L 40.4 29.25 40.2 29.05 40.05 29.4 Z"/>
</g>

<g id="Layer2_0_MEMBER_67_MEMBER_0_MEMBER_0_MEMBER_0_FILL">
<path fill="#000000" stroke="none" d="
M 35.5 30.4
L 35.3 30.4
Q 35.2 30.6 35.4 30.75
L 35.5 30.4 Z"/>
</g>

<g id="Layer2_0_MEMBER_68_MEMBER_0_MEMBER_0_MEMBER_0_FILL">
<path fill="#000000" stroke="none" d="
M 31.75 34.55
L 31.75 34.3 31.95 34.3
Q 31.7 34.15 31.5 34.35
L 31.75 34.55 Z"/>
</g>

<g id="Layer2_0_MEMBER_69_MEMBER_0_MEMBER_0_MEMBER_0_FILL">
<path fill="#000000" stroke="none" d="
M 59.7 27
L 59.7 26.9 59.4 26.8
Q 59.25 26.9 59.4 27.05
L 59.7 27 Z"/>
</g>

<g id="Layer2_0_MEMBER_70_MEMBER_0_MEMBER_0_MEMBER_0_FILL">
<path fill="#000000" stroke="none" d="
M 33.9 45.1
L 34.2 45 34.15 44.95 34 44.95 34 44.8 33.8 44.85 33.9 45.1 Z"/>
</g>

<g id="Layer2_0_MEMBER_71_MEMBER_0_MEMBER_0_MEMBER_0_FILL">
<path fill="#000000" stroke="none" d="
M 36.45 32
L 36.55 32.05 36.8 32 36.55 31.9 36.45 31.9 36.45 32 Z"/>
</g>

<g id="Layer2_0_MEMBER_72_MEMBER_0_MEMBER_0_MEMBER_0_FILL">
<path fill="#000000" stroke="none" d="
M 42.3 31.15
L 42.55 31.15 42.25 30.9 42.3 31.15 Z"/>
</g>

<g id="Layer2_0_MEMBER_73_MEMBER_0_MEMBER_0_MEMBER_0_FILL">
<path fill="#000000" stroke="none" d="
M 35.95 30.15
L 36.15 30.5 36.3 30.25 35.95 30.15 Z"/>
</g>

<g id="Layer2_0_MEMBER_74_MEMBER_0_MEMBER_0_MEMBER_0_FILL">
<path fill="#000000" stroke="none" d="
M 65.15 60.7
L 65.3 60.5 64.9 60.55
Q 65.05 60.75 65.15 60.7 Z"/>
</g>

<g id="Layer2_0_MEMBER_75_MEMBER_0_MEMBER_0_MEMBER_0_FILL">
<path fill="#000000" stroke="none" d="
M 35.2 31.9
Q 35 31.9 35.15 32.05
L 35.4 32
Q 35.4 31.7 35.2 31.9 Z"/>
</g>

<g id="Layer2_0_MEMBER_76_MEMBER_0_MEMBER_0_MEMBER_0_FILL">
<path fill="#000000" stroke="none" d="
M 50.55 28.25
L 50.5 28 50.25 28.15 50.55 28.25 Z"/>
</g>

<g id="Layer2_0_MEMBER_77_MEMBER_0_MEMBER_0_MEMBER_0_FILL">
<path fill="#000000" stroke="none" d="
M 32.4 46.5
L 32.25 46.3 32.15 46.5
Q 32.3 46.7 32.4 46.5 Z"/>
</g>

<g id="Layer2_0_MEMBER_78_MEMBER_0_MEMBER_0_MEMBER_0_FILL">
<path fill="#000000" stroke="none" d="
M 32.65 35.1
L 32.5 34.95 32.4 35.25
Q 32.6 35.25 32.65 35.1 Z"/>
</g>

<g id="Layer2_0_MEMBER_79_MEMBER_0_MEMBER_0_MEMBER_0_FILL">
<path fill="#000000" stroke="none" d="
M 34.95 33.1
L 35.05 32.95 34.75 32.8 34.95 33.1 Z"/>
</g>

<g id="Layer2_0_MEMBER_80_MEMBER_0_MEMBER_0_MEMBER_0_FILL">
<path fill="#000000" stroke="none" d="
M 37.45 29.9
L 37.45 29.65 37.25 29.55 37.45 29.9 Z"/>
</g>

<g id="Layer2_0_MEMBER_81_MEMBER_0_MEMBER_0_MEMBER_0_FILL">
<path fill="#000000" stroke="none" d="
M 47.9 28.4
L 48 28.15 47.7 28.15 47.9 28.4 Z"/>
</g>

<g id="Layer2_0_MEMBER_83_MEMBER_0_MEMBER_0_MEMBER_0_FILL">
<path fill="#000000" stroke="none" d="
M 41.2 32.5
L 40.8 32.6 41.25 32.75 41.2 32.5 Z"/>
</g>

<g id="Layer2_0_MEMBER_84_MEMBER_0_MEMBER_0_MEMBER_0_FILL">
<path fill="#000000" stroke="none" d="
M 65.8 60.55
Q 65.95 60.5 65.8 60.35
L 65.55 60.35 65.8 60.55 Z"/>
</g>

<g id="Layer2_0_MEMBER_85_MEMBER_0_MEMBER_0_MEMBER_0_FILL">
<path fill="#000000" stroke="none" d="
M 61.15 24.65
Q 60.95 24.6 60.95 24.65
L 60.95 24.9 61 24.8 61.15 24.65 Z"/>
</g>

<g id="Layer2_0_MEMBER_86_MEMBER_0_MEMBER_0_MEMBER_0_FILL">
<path fill="#000000" stroke="none" d="
M 46.5 33.25
L 46.5 33.45 46.65 33.45 46.55 33.25 46.5 33.25 Z"/>
</g>

<g id="Layer2_0_MEMBER_88_MEMBER_0_MEMBER_0_MEMBER_0_FILL">
<path fill="#000000" stroke="none" d="
M 60.4 22.3
L 60.15 22.25 60.05 22.5 60.4 22.3 Z"/>
</g>

<g id="Layer2_0_MEMBER_89_MEMBER_0_MEMBER_0_MEMBER_0_FILL">
<path fill="#000000" stroke="none" d="
M 41 29.75
Q 41 29.65 40.8 29.65
L 40.65 29.65
Q 40.75 29.85 41 29.75 Z"/>
</g>

<g id="Layer2_0_MEMBER_90_MEMBER_0_MEMBER_0_MEMBER_0_FILL">
<path fill="#000000" stroke="none" d="
M 33.3 40.7
Q 33.45 40.95 33.55 40.8
L 33.5 40.7 33.3 40.7 Z"/>
</g>

<g id="Layer2_0_MEMBER_91_MEMBER_0_MEMBER_0_MEMBER_0_FILL">
<path fill="#000000" stroke="none" d="
M 88.55 75.1
L 88.65 75.1 88.65 74.95 88.55 75 88.55 75.1 Z"/>
</g>

<g id="Layer2_0_MEMBER_95_MEMBER_0_MEMBER_0_MEMBER_0_FILL">
<path fill="#000000" stroke="none" d="
M 36.25 44.5
Q 36.4 44.35 36.3 44.25
L 36.15 44.25 36.25 44.5 Z"/>
</g>
</defs>

<g transform="matrix( 1, 0, 0, 1, 0,0) ">
<use xlink:href="#Layer2_0_MEMBER_0_MEMBER_0_MEMBER_0_MEMBER_0_FILL"/>
</g>

<g transform="matrix( 1, 0, 0, 1, 0,0) ">
<use xlink:href="#Layer2_0_MEMBER_1_MEMBER_0_MEMBER_0_MEMBER_0_FILL"/>
</g>

<g transform="matrix( 1, 0, 0, 1, 0,0) ">
<use xlink:href="#Layer2_0_MEMBER_2_MEMBER_0_MEMBER_0_MEMBER_0_FILL"/>
</g>

<g transform="matrix( 1, 0, 0, 1, 0,0) ">
<use xlink:href="#Layer2_0_MEMBER_3_MEMBER_0_MEMBER_0_MEMBER_0_FILL"/>
</g>

<g transform="matrix( 1, 0, 0, 1, 0,0) ">
<use xlink:href="#Layer2_0_MEMBER_4_MEMBER_0_MEMBER_0_MEMBER_0_FILL"/>
</g>

<g transform="matrix( 1, 0, 0, 1, 0,0) ">
<use xlink:href="#Layer2_0_MEMBER_5_MEMBER_0_MEMBER_0_MEMBER_0_FILL"/>
</g>

<g transform="matrix( 1, 0, 0, 1, 0,0) ">
<use xlink:href="#Layer2_0_MEMBER_6_MEMBER_0_MEMBER_0_MEMBER_0_FILL"/>
</g>

<g transform="matrix( 1, 0, 0, 1, 0,0) ">
<use xlink:href="#Layer2_0_MEMBER_7_MEMBER_0_MEMBER_0_MEMBER_0_FILL"/>
</g>

<g transform="matrix( 1, 0, 0, 1, 0,0) ">
<use xlink:href="#Layer2_0_MEMBER_8_MEMBER_0_MEMBER_0_MEMBER_0_FILL"/>
</g>

<g transform="matrix( 1, 0, 0, 1, 0,0) ">
<use xlink:href="#Layer2_0_MEMBER_9_MEMBER_0_MEMBER_0_MEMBER_0_FILL"/>
</g>

<g transform="matrix( 1, 0, 0, 1, 0,0) ">
<use xlink:href="#Layer2_0_MEMBER_10_MEMBER_0_MEMBER_0_MEMBER_0_FILL"/>
</g>

<g transform="matrix( 1, 0, 0, 1, 0,0) ">
<use xlink:href="#Layer2_0_MEMBER_11_MEMBER_0_MEMBER_0_MEMBER_0_FILL"/>
</g>

<g transform="matrix( 1, 0, 0, 1, 0,0) ">
<use xlink:href="#Layer2_0_MEMBER_12_MEMBER_0_MEMBER_0_MEMBER_0_FILL"/>
</g>

<g transform="matrix( 1, 0, 0, 1, 0,0) ">
<use xlink:href="#Layer2_0_MEMBER_13_MEMBER_0_MEMBER_0_MEMBER_0_FILL"/>
</g>

<g transform="matrix( 1, 0, 0, 1, 0,0) ">
<use xlink:href="#Layer2_0_MEMBER_14_MEMBER_0_MEMBER_0_MEMBER_0_FILL"/>
</g>

<g transform="matrix( 1, 0, 0, 1, 0,0) ">
<use xlink:href="#Layer2_0_MEMBER_15_MEMBER_0_MEMBER_0_MEMBER_0_FILL"/>
</g>

<g transform="matrix( 1, 0, 0, 1, 0,0) ">
<use xlink:href="#Layer2_0_MEMBER_16_MEMBER_0_MEMBER_0_MEMBER_0_FILL"/>
</g>

<g transform="matrix( 1, 0, 0, 1, 0,0) ">
<use xlink:href="#Layer2_0_MEMBER_17_MEMBER_0_MEMBER_0_MEMBER_0_FILL"/>
</g>

<g transform="matrix( 1, 0, 0, 1, 0,0) ">
<use xlink:href="#Layer2_0_MEMBER_18_MEMBER_0_MEMBER_0_MEMBER_0_FILL"/>
</g>

<g transform="matrix( 1, 0, 0, 1, 0,0) ">
<use xlink:href="#Layer2_0_MEMBER_19_MEMBER_0_MEMBER_0_MEMBER_0_FILL"/>
</g>

<g transform="matrix( 1, 0, 0, 1, 0,0) ">
<use xlink:href="#Layer2_0_MEMBER_20_MEMBER_0_MEMBER_0_MEMBER_0_FILL"/>
</g>

<g transform="matrix( 1, 0, 0, 1, 0,0) ">
<use xlink:href="#Layer2_0_MEMBER_21_MEMBER_0_MEMBER_0_MEMBER_0_FILL"/>
</g>

<g transform="matrix( 1, 0, 0, 1, 0,0) ">
<use xlink:href="#Layer2_0_MEMBER_22_MEMBER_0_MEMBER_0_MEMBER_0_FILL"/>
</g>

<g transform="matrix( 1, 0, 0, 1, 0,0) ">
<use xlink:href="#Layer2_0_MEMBER_23_MEMBER_0_MEMBER_0_MEMBER_0_FILL"/>
</g>

<g transform="matrix( 1, 0, 0, 1, 0,0) ">
<use xlink:href="#Layer2_0_MEMBER_24_MEMBER_0_MEMBER_0_MEMBER_0_FILL"/>
</g>

<g transform="matrix( 1, 0, 0, 1, 0,0) ">
<use xlink:href="#Layer2_0_MEMBER_25_MEMBER_0_MEMBER_0_MEMBER_0_FILL"/>
</g>

<g transform="matrix( 1, 0, 0, 1, 0,0) ">
<use xlink:href="#Layer2_0_MEMBER_26_MEMBER_0_MEMBER_0_MEMBER_0_FILL"/>
</g>

<g transform="matrix( 1, 0, 0, 1, 0,0) ">
<use xlink:href="#Layer2_0_MEMBER_27_MEMBER_0_MEMBER_0_MEMBER_0_FILL"/>
</g>

<g transform="matrix( 1, 0, 0, 1, 0,0) ">
<use xlink:href="#Layer2_0_MEMBER_28_MEMBER_0_MEMBER_0_MEMBER_0_FILL"/>
</g>

<g transform="matrix( 1, 0, 0, 1, 0,0) ">
<use xlink:href="#Layer2_0_MEMBER_29_MEMBER_0_MEMBER_0_MEMBER_0_FILL"/>
</g>

<g transform="matrix( 1, 0, 0, 1, 0,0) ">
<use xlink:href="#Layer2_0_MEMBER_30_MEMBER_0_MEMBER_0_MEMBER_0_FILL"/>
</g>

<g transform="matrix( 1, 0, 0, 1, 0,0) ">
<use xlink:href="#Layer2_0_MEMBER_31_MEMBER_0_MEMBER_0_MEMBER_0_FILL"/>
</g>

<g transform="matrix( 1, 0, 0, 1, 0,0) ">
<use xlink:href="#Layer2_0_MEMBER_32_MEMBER_0_MEMBER_0_MEMBER_0_FILL"/>
</g>

<g transform="matrix( 1, 0, 0, 1, 0,0) ">
<use xlink:href="#Layer2_0_MEMBER_33_MEMBER_0_MEMBER_0_MEMBER_0_FILL"/>
</g>

<g transform="matrix( 1, 0, 0, 1, 0,0) ">
<use xlink:href="#Layer2_0_MEMBER_34_MEMBER_0_MEMBER_0_MEMBER_0_FILL"/>
</g>

<g transform="matrix( 1, 0, 0, 1, 0,0) ">
<use xlink:href="#Layer2_0_MEMBER_35_MEMBER_0_MEMBER_0_MEMBER_0_FILL"/>
</g>

<g transform="matrix( 1, 0, 0, 1, 0,0) ">
<use xlink:href="#Layer2_0_MEMBER_36_MEMBER_0_MEMBER_0_MEMBER_0_FILL"/>
</g>

<g transform="matrix( 1, 0, 0, 1, 0,0) ">
<use xlink:href="#Layer2_0_MEMBER_37_MEMBER_0_MEMBER_0_MEMBER_0_FILL"/>
</g>

<g transform="matrix( 1, 0, 0, 1, 0,0) ">
<use xlink:href="#Layer2_0_MEMBER_38_MEMBER_0_MEMBER_0_MEMBER_0_FILL"/>
</g>

<g transform="matrix( 1, 0, 0, 1, 0,0) ">
<use xlink:href="#Layer2_0_MEMBER_39_MEMBER_0_MEMBER_0_MEMBER_0_FILL"/>
</g>

<g transform="matrix( 1, 0, 0, 1, 0,0) ">
<use xlink:href="#Layer2_0_MEMBER_40_MEMBER_0_MEMBER_0_MEMBER_0_FILL"/>
</g>

<g transform="matrix( 1, 0, 0, 1, 0,0) ">
<use xlink:href="#Layer2_0_MEMBER_41_MEMBER_0_MEMBER_0_MEMBER_0_FILL"/>
</g>

<g transform="matrix( 1, 0, 0, 1, 0,0) ">
<use xlink:href="#Layer2_0_MEMBER_42_MEMBER_0_MEMBER_0_MEMBER_0_FILL"/>
</g>

<g transform="matrix( 1, 0, 0, 1, 0,0) ">
<use xlink:href="#Layer2_0_MEMBER_43_MEMBER_0_MEMBER_0_MEMBER_0_FILL"/>
</g>

<g transform="matrix( 1, 0, 0, 1, 0,0) ">
<use xlink:href="#Layer2_0_MEMBER_44_MEMBER_0_MEMBER_0_MEMBER_0_FILL"/>
</g>

<g transform="matrix( 1, 0, 0, 1, 0,0) ">
<use xlink:href="#Layer2_0_MEMBER_45_MEMBER_0_MEMBER_0_MEMBER_0_FILL"/>
</g>

<g transform="matrix( 1, 0, 0, 1, 0,0) ">
<use xlink:href="#Layer2_0_MEMBER_46_MEMBER_0_MEMBER_0_MEMBER_0_FILL"/>
</g>

<g transform="matrix( 1, 0, 0, 1, 0,0) ">
<use xlink:href="#Layer2_0_MEMBER_47_MEMBER_0_MEMBER_0_MEMBER_0_FILL"/>
</g>

<g transform="matrix( 1, 0, 0, 1, 0,0) ">
<use xlink:href="#Layer2_0_MEMBER_48_MEMBER_0_MEMBER_0_MEMBER_0_FILL"/>
</g>

<g transform="matrix( 1, 0, 0, 1, 0,0) ">
<use xlink:href="#Layer2_0_MEMBER_49_MEMBER_0_MEMBER_0_MEMBER_0_FILL"/>
</g>

<g transform="matrix( 1, 0, 0, 1, 0,0) ">
<use xlink:href="#Layer2_0_MEMBER_50_MEMBER_0_MEMBER_0_MEMBER_0_FILL"/>
</g>

<g transform="matrix( 1, 0, 0, 1, 0,0) ">
<use xlink:href="#Layer2_0_MEMBER_51_MEMBER_0_MEMBER_0_MEMBER_0_FILL"/>
</g>

<g transform="matrix( 1, 0, 0, 1, 0,0) ">
<use xlink:href="#Layer2_0_MEMBER_52_MEMBER_0_MEMBER_0_MEMBER_0_FILL"/>
</g>

<g transform="matrix( 1, 0, 0, 1, 0,0) ">
<use xlink:href="#Layer2_0_MEMBER_53_MEMBER_0_MEMBER_0_MEMBER_0_FILL"/>
</g>

<g transform="matrix( 1, 0, 0, 1, 0,0) ">
<use xlink:href="#Layer2_0_MEMBER_54_MEMBER_0_MEMBER_0_MEMBER_0_FILL"/>
</g>

<g transform="matrix( 1, 0, 0, 1, 0,0) ">
<use xlink:href="#Layer2_0_MEMBER_55_MEMBER_0_MEMBER_0_MEMBER_0_FILL"/>
</g>

<g transform="matrix( 1, 0, 0, 1, 0,0) ">
<use xlink:href="#Layer2_0_MEMBER_56_MEMBER_0_MEMBER_0_MEMBER_0_FILL"/>
</g>

<g transform="matrix( 1, 0, 0, 1, 0,0) ">
<use xlink:href="#Layer2_0_MEMBER_57_MEMBER_0_MEMBER_0_MEMBER_0_FILL"/>
</g>

<g transform="matrix( 1, 0, 0, 1, 0,0) ">
<use xlink:href="#Layer2_0_MEMBER_58_MEMBER_0_MEMBER_0_MEMBER_0_FILL"/>
</g>

<g transform="matrix( 1, 0, 0, 1, 0,0) ">
<use xlink:href="#Layer2_0_MEMBER_59_MEMBER_0_MEMBER_0_MEMBER_0_FILL"/>
</g>

<g transform="matrix( 1, 0, 0, 1, 0,0) ">
<use xlink:href="#Layer2_0_MEMBER_60_MEMBER_0_MEMBER_0_MEMBER_0_FILL"/>
</g>

<g transform="matrix( 1, 0, 0, 1, 0,0) ">
<use xlink:href="#Layer2_0_MEMBER_61_MEMBER_0_MEMBER_0_MEMBER_0_FILL"/>
</g>

<g transform="matrix( 1, 0, 0, 1, 0,0) ">
<use xlink:href="#Layer2_0_MEMBER_62_MEMBER_0_MEMBER_0_MEMBER_0_FILL"/>
</g>

<g transform="matrix( 1, 0, 0, 1, 0,0) ">
<use xlink:href="#Layer2_0_MEMBER_63_MEMBER_0_MEMBER_0_MEMBER_0_FILL"/>
</g>

<g transform="matrix( 1, 0, 0, 1, 0,0) ">
<use xlink:href="#Layer2_0_MEMBER_64_MEMBER_0_MEMBER_0_MEMBER_0_FILL"/>
</g>

<g transform="matrix( 1, 0, 0, 1, 0,0) ">
<use xlink:href="#Layer2_0_MEMBER_65_MEMBER_0_MEMBER_0_MEMBER_0_FILL"/>
</g>

<g transform="matrix( 1, 0, 0, 1, 0,0) ">
<use xlink:href="#Layer2_0_MEMBER_66_MEMBER_0_MEMBER_0_MEMBER_0_FILL"/>
</g>

<g transform="matrix( 1, 0, 0, 1, 0,0) ">
<use xlink:href="#Layer2_0_MEMBER_67_MEMBER_0_MEMBER_0_MEMBER_0_FILL"/>
</g>

<g transform="matrix( 1, 0, 0, 1, 0,0) ">
<use xlink:href="#Layer2_0_MEMBER_68_MEMBER_0_MEMBER_0_MEMBER_0_FILL"/>
</g>

<g transform="matrix( 1, 0, 0, 1, 0,0) ">
<use xlink:href="#Layer2_0_MEMBER_69_MEMBER_0_MEMBER_0_MEMBER_0_FILL"/>
</g>

<g transform="matrix( 1, 0, 0, 1, 0,0) ">
<use xlink:href="#Layer2_0_MEMBER_70_MEMBER_0_MEMBER_0_MEMBER_0_FILL"/>
</g>

<g transform="matrix( 1, 0, 0, 1, 0,0) ">
<use xlink:href="#Layer2_0_MEMBER_71_MEMBER_0_MEMBER_0_MEMBER_0_FILL"/>
</g>

<g transform="matrix( 1, 0, 0, 1, 0,0) ">
<use xlink:href="#Layer2_0_MEMBER_72_MEMBER_0_MEMBER_0_MEMBER_0_FILL"/>
</g>

<g transform="matrix( 1, 0, 0, 1, 0,0) ">
<use xlink:href="#Layer2_0_MEMBER_73_MEMBER_0_MEMBER_0_MEMBER_0_FILL"/>
</g>

<g transform="matrix( 1, 0, 0, 1, 0,0) ">
<use xlink:href="#Layer2_0_MEMBER_74_MEMBER_0_MEMBER_0_MEMBER_0_FILL"/>
</g>

<g transform="matrix( 1, 0, 0, 1, 0,0) ">
<use xlink:href="#Layer2_0_MEMBER_75_MEMBER_0_MEMBER_0_MEMBER_0_FILL"/>
</g>

<g transform="matrix( 1, 0, 0, 1, 0,0) ">
<use xlink:href="#Layer2_0_MEMBER_76_MEMBER_0_MEMBER_0_MEMBER_0_FILL"/>
</g>

<g transform="matrix( 1, 0, 0, 1, 0,0) ">
<use xlink:href="#Layer2_0_MEMBER_77_MEMBER_0_MEMBER_0_MEMBER_0_FILL"/>
</g>

<g transform="matrix( 1, 0, 0, 1, 0,0) ">
<use xlink:href="#Layer2_0_MEMBER_78_MEMBER_0_MEMBER_0_MEMBER_0_FILL"/>
</g>

<g transform="matrix( 1, 0, 0, 1, 0,0) ">
<use xlink:href="#Layer2_0_MEMBER_79_MEMBER_0_MEMBER_0_MEMBER_0_FILL"/>
</g>

<g transform="matrix( 1, 0, 0, 1, 0,0) ">
<use xlink:href="#Layer2_0_MEMBER_80_MEMBER_0_MEMBER_0_MEMBER_0_FILL"/>
</g>

<g transform="matrix( 1, 0, 0, 1, 0,0) ">
<use xlink:href="#Layer2_0_MEMBER_81_MEMBER_0_MEMBER_0_MEMBER_0_FILL"/>
</g>

<g transform="matrix( 1, 0, 0, 1, 0,0) ">
<use xlink:href="#Layer2_0_MEMBER_83_MEMBER_0_MEMBER_0_MEMBER_0_FILL"/>
</g>

<g transform="matrix( 1, 0, 0, 1, 0,0) ">
<use xlink:href="#Layer2_0_MEMBER_84_MEMBER_0_MEMBER_0_MEMBER_0_FILL"/>
</g>

<g transform="matrix( 1, 0, 0, 1, 0,0) ">
<use xlink:href="#Layer2_0_MEMBER_85_MEMBER_0_MEMBER_0_MEMBER_0_FILL"/>
</g>

<g transform="matrix( 1, 0, 0, 1, 0,0) ">
<use xlink:href="#Layer2_0_MEMBER_86_MEMBER_0_MEMBER_0_MEMBER_0_FILL"/>
</g>

<g transform="matrix( 1, 0, 0, 1, 0,0) ">
<use xlink:href="#Layer2_0_MEMBER_88_MEMBER_0_MEMBER_0_MEMBER_0_FILL"/>
</g>

<g transform="matrix( 1, 0, 0, 1, 0,0) ">
<use xlink:href="#Layer2_0_MEMBER_89_MEMBER_0_MEMBER_0_MEMBER_0_FILL"/>
</g>

<g transform="matrix( 1, 0, 0, 1, 0,0) ">
<use xlink:href="#Layer2_0_MEMBER_90_MEMBER_0_MEMBER_0_MEMBER_0_FILL"/>
</g>

<g transform="matrix( 1, 0, 0, 1, 0,0) ">
<use xlink:href="#Layer2_0_MEMBER_91_MEMBER_0_MEMBER_0_MEMBER_0_FILL"/>
</g>

<g transform="matrix( 1, 0, 0, 1, 0,0) ">
<use xlink:href="#Layer2_0_MEMBER_95_MEMBER_0_MEMBER_0_MEMBER_0_FILL"/>
</g>
</svg>
