
<svg xmlns="http://www.w3.org/2000/svg" version="1.1" xmlns:xlink="http://www.w3.org/1999/xlink" preserveAspectRatio="none" x="0px" y="0px" width="100px" height="100px" viewBox="0 0 100 100">
<defs>
<g id="Layer2_0_MEMBER_0_MEMBER_0_MEMBER_0_FILL">
<path fill="#000000" stroke="none" d="
M 68.65 22.3
Q 68.45 23.05 69.15 22.75
L 69.3 22.6 69.25 22.45 68.95 22.15 68.8 22.15 68.65 22.3 Z"/>
</g>

<g id="Layer2_0_MEMBER_0_MEMBER_0_MEMBER_1_FILL">
<path fill="#000000" stroke="none" d="
M 20.05 75.65
Q 20 75.75 19.8 75.75 19.65 75.75 19.6 75.8
L 19.55 75.95 19.45 75.95
Q 19.3 75.8 19.1 75.8
L 19.05 75.8
Q 19.05 75.75 18.95 75.85 18.85 75.85 18.95 75.95
L 18.8 76.1 18.8 76.15 18.5 76.45
Q 17.95 76.6 17.9 77.1 17.85 77.2 17.85 77.4 17.85 77.65 17.75 77.7
L 17.75 77.85
Q 17.65 77.95 17.6 78.2 17.5 78.25 17.45 78.5 17.4 78.55 17.45 78.6
L 17.3 78.65 17.15 78.8 17 79 17 78.95
Q 16.9 79.05 16.85 79.25
L 16.85 79.3 16.7 79.45 16.65 79.55 16.55 79.6
Q 16.5 79.7 16.3 79.8 16.2 79.9 16.25 80.05
L 16.25 80.4 16.3 80.85 16.2 80.9
Q 16.1 81.05 16.2 81.3
L 16.25 81.4
Q 16 81.85 16.2 82.6 16.25 82.7 16.45 82.7 16.5 82.5 16.75 82.4
L 16.9 82.4
Q 17.2 82.55 17.25 82.55 17.35 82.55 17.4 82.35 17.5 81.95 17.8 81.9
L 18 81.75
Q 18.3 81.45 18.45 81.35 18.75 81.15 19.05 81.2 19.1 81.2 19.3 81 19.65 80.5 19.95 80.55 20.65 79.95 20.6 79.55 21.4 78.9 21.7 78.3 21.95 77.7 21.75 77.2 21.45 76.55 21 76.1 20.8 75.75 20.65 75.65 20.4 75.45 20.05 75.65 Z"/>
</g>

<g id="Layer2_0_MEMBER_0_MEMBER_0_MEMBER_2_FILL">
<path fill="#000000" stroke="none" d="
M 82.4 47.05
Q 82.05 46.95 81.65 46.45
L 80.85 45.8
Q 80.7 45.55 80.4 45.55 79.55 45.55 79.3 45.7
L 78.6 45.65
Q 78.05 45.45 77.8 46.05 77.65 46.65 77.2 46.9
L 77.05 47.15
Q 76.4 47.55 76.4 48.4 76.35 48.8 76.05 49.15
L 75.8 49.5
Q 75.2 49.85 75.1 49.85 74.7 49.9 74.6 50.35
L 74.15 51.1
Q 74.05 51.25 73.85 51.2 73.55 51.1 73.15 51.4
L 72.2 51.95
Q 71.75 52.2 71.65 52.1 71.5 52 71.55 51.85 71.6 51.6 71.6 51.55
L 71.65 51.5
Q 71.9 50.75 72.05 50.6 72.55 50.1 73.15 48.8 73.5 48.45 73.75 48.5
L 73.85 48.6
Q 74.1 48.7 74.15 48.7 74.2 48.7 74.35 48.5 74.55 48.15 74.7 48.2 75.05 48.25 75.15 47.9 75.3 47.7 75.3 47.35
L 75.6 47.35
Q 75.65 47.35 75.85 47.4 76.15 47.3 76.15 47.05 76.15 46.55 76.1 46.45 76.05 46.25 76.05 45.8 76.1 45.35 76 45.1
L 76.1 44.9
Q 76.2 44.65 76.15 44.35 76.05 43.85 76.05 43.75 76.05 43.6 75.9 43.5 75.7 43.4 75.7 43.3
L 75.65 43.15 75.5 42.95
Q 75.5 42.35 75 42.45 74.65 42.45 74.45 42.25 73.95 41.75 73.85 41.5 73.7 41.1 73.3 41
L 73.15 40.9
Q 72.95 40.7 73.1 40.5
L 73.25 40.25
Q 73.65 40.25 73.75 40.1 73.85 39.95 74.1 39.6 74.25 39.35 74.3 39.1 74.9 37.3 75 36.35 75.2 35.3 75.15 34.75
L 75.15 34.6
Q 75.3 34.45 75.3 34.25
L 75.25 33.35
Q 75.2 32.85 75.1 32.6 74.95 32.2 74.65 31.95
L 74.6 31.7
Q 74.55 31.45 74.45 31.35 74.35 31.25 74.35 30.8 74.35 30.2 73.75 30.2
L 73.65 30.25
Q 73.3 29.9 73.15 29.7
L 72.85 29.55
Q 72.65 29.55 72.55 29.4
L 70.85 29.1
Q 70.4 29 70.1 29.3 69.6 29.8 69.05 29.6
L 68.65 29.6
Q 68.35 29.9 68.35 30.15 68.35 30.25 68.2 30.4
L 68.05 30.55
Q 68.05 30.9 67.75 31.05
L 67.6 31.65
Q 67.15 31.9 67.15 32.45 67 32.45 66.75 32.8
L 66.45 32.6 66.4 32.5
Q 66.35 32.15 66.25 32.05 66.15 31.95 65.7 31.8
L 65.6 31.7 65.6 31.55 65.05 31.55 64.95 31.4 64.8 31.4 64.65 31.25 64.55 31.25 64.3 30.95 64.15 30.9 64.15 30.95 64 30.8 63.25 30.5 63.25 30.35 63.1 30.35 63.05 30.2 63.1 30.2 63.05 30.05 62.9 30.05 62.85 29.95
Q 62.65 29.85 62.6 29.75
L 62.45 29.6 62.25 29.45 62.1 29.45 62 29.3 61.95 29.15 61.8 29.1 61.75 29 61.45 28.85
Q 61.1 28.85 60.95 28.7 60.8 28.55 60.4 28.55 60.4 28.4 60.2 28.1
L 59.3 27.8 58.2 27.8
Q 57.4 27.25 57.85 26.45
L 58 26.4 58.15 26.25
Q 58.45 25.85 58.75 25.75
L 59.05 25.45 59.1 25.35 59.25 25.3 59.7 24.85 59.85 24.65 60 24.5 60 24.2
Q 59.95 23.7 59.35 23.9
L 59.2 23.9 59.05 24.05 58.95 24.2 58.75 24.25
Q 58.45 24.4 58.1 24.4
L 57.8 24.55 57.5 24.55 57.2 24.4 57.2 24.55
Q 56.95 24.75 56.55 24.75
L 55.8 24.75 55.65 24.6
Q 55.4 24.6 55.3 24.5
L 55.15 24.3 55 24.15
Q 55 23.9 55.15 23.8 55.15 23.35 55.5 23.15 55.8 22.95 55.9 22.8
L 56 22.8 56.1 22.75 56.2 22.75 56.2 22.6 56.25 22.5 56.35 22.55 56.5 22.55 56.7 22.4 56.85 22.25 57 22.25
Q 57.05 22.15 57.3 22.1
L 57.45 21.75 57.9 21.6
Q 57.9 21.15 57.95 21.1 58.1 20.95 57.95 20.7 57.75 20.45 57.55 20.35 57.35 20.45 57.25 20.55
L 56.95 20.55 56.8 20.7 56.65 20.7 56.6 20.8 56.5 20.85
Q 56.25 20.9 56.2 21
L 55.9 21.05 55.7 21.2
Q 55.6 21.3 55.25 21.3 54.95 21.25 54.8 21.35
L 54.65 21.35 54.55 21.3 54.45 21.35 54.45 21.4
Q 54.05 21.3 53.85 21.7 53.65 22.1 53.3 22.15
L 52.6 21.4 52.6 21.45 52.1 21.05 51.95 20.8
Q 52.1 20.75 52.1 20.45
L 52.15 20.35
Q 52.3 20 52.55 18.75 52.6 18.65 52.6 18 52.55 17.5 52.35 17.4 52.15 17.3 51.6 17.4
L 51.55 17.45 51.45 17.4 51.4 17.35 51.3 17.4 50.8 17.85 50.8 18.05 50.7 18.2 50.65 18.5 50.55 18.8
Q 50.4 18.95 50.4 19 50.05 19.3 50.25 20.15
L 50.1 20.25 50.1 20.2
Q 49.95 20.45 50.1 20.5
L 50.05 20.55
Q 50.1 21 49.95 21.2
L 50 21.25 49.95 21.3
Q 49.5 22.1 49.1 22.25 48.65 22.35 48.1 21.85 48 21.6 47.95 21.45 47.85 21.25 47.65 21.35 47.3 21.55 46.25 21.3 46.3 21.3 46.25 21.25
L 46.05 21.2 45.9 21.1 45.7 20.8
Q 45.65 20.75 45.75 20.6 45.85 20.35 45.6 20.45
L 45.45 20.5 44.65 19.85 44.5 19.7 44.5 19.75 44.35 19.55 44.2 19.55 44.15 19.4 44 19.4
Q 43.55 19.3 43.4 19.15
L 43.2 18.95 42.9 19
Q 42.1 18.9 41.65 19 41.45 19.15 40.95 19.1 40.5 19.1 40.25 19.2
L 40.25 19.35 40 19.35
Q 39.9 19.5 39.7 19.4 39.45 19.3 39.35 19.35
L 39.1 19.6 39.05 19.4
Q 38.9 19.25 38.7 19.4
L 38.4 19.55 38.25 19.55 38.2 19.6 38.1 19.55 37.8 19.55
Q 37.7 19.65 37.4 19.65 37.15 19.65 37 19.75
L 36.85 19.75
Q 36.5 19.85 36.4 20.05
L 36.4 20.2 36.25 20.35 36.25 20.55 35.95 20.7 35.35 20.7 35.15 20.55
Q 34.95 20.5 34.85 20.4
L 34.7 20.35
Q 34.8 20.2 34.85 19.8
L 34.85 19.5
Q 34.2 19.25 33.75 19.5 33.7 19.75 33.6 19.8
L 33.45 19.95 33.4 20.05 33.3 20.15 33.25 20.25 33.15 20.3 33 20.45
Q 32.75 20.7 32.75 20.75 32.65 20.75 32.4 21.25
L 32.4 21.4 32.1 21.7
Q 31.7 21.75 31.6 21.85
L 31.45 21.9 31.45 21.85
Q 31.3 21.75 31.15 21.9
L 31 21.9 30.85 22.05 30.55 22.05
Q 29.5 22.05 29 22.25 28.75 22.3 28.7 22.4
L 28.5 22.4 28.35 22.55 28.2 22.55 27.9 22.9 27.75 22.9 27.45 23.2
Q 27.25 23.55 27.15 23.7 27.1 23.9 27 24
L 27 24.15 26.85 24.3 26.85 24.65
Q 26.75 24.75 26.85 24.95
L 26.85 25.25 27 25.4 27.05 25.55 27.2 25.7 27.35 25.75
Q 27.3 25.8 27.35 25.85
L 27.35 26
Q 27.7 26.5 27.4 27.4
L 27.4 27.55 27.25 27.7
Q 27.1 28 27.25 28.2
L 27.25 28.35 27.55 28.65 27.75 28.8 27.9 28.95 28.05 28.95 28.2 29
Q 28.1 29 28.2 29.1
L 28.35 29.25
Q 28.4 29.25 28.85 29.4
L 29.45 30
Q 29.65 30.1 29.65 30.45
L 29.8 30.65 30.25 31.1 30.45 31.25 30.45 31.4
Q 30.75 31.7 30.45 31.85
L 30.15 31.85 30.1 32 30 32.05 28.9 33.2
Q 28.7 33.4 28.35 33.5 28.2 33.65 28 33.65 27.9 33.75 27.6 33.85 27.3 33.95 27.2 34.1
L 26.9 34.2
Q 26.8 34.25 26.3 34.25
L 26.15 34.1 26 34 25.95 34 25.95 33.85 25.65 33.85
Q 25.55 33.65 25.35 33.65 25.1 33.6 24.95 33.55 24.8 33.45 24.45 33.7
L 24.1 33.85 23.95 34 23.9 34
Q 23.45 34.15 22.95 34.55 22.45 34.95 22.25 35 22.05 35.3 21.8 35.3 21.75 35.5 21.55 35.5
L 21.4 35.65 21.2 35.8
Q 20.5 36.4 20.3 36.45 19.35 37.4 19.25 37.45 18.85 38.1 18.3 38.5
L 18.2 38.7
Q 18.1 38.95 17.85 39 17.8 39.3 17.4 39.75
L 17.35 39.7
Q 17.15 39.75 17.1 40 17 40.35 16.95 40.4 16.7 40.65 16.5 41.35 16.4 41.5 16.45 41.75 16.45 42.05 16.35 42.15
L 16.35 42.3
Q 16.2 42.6 16.4 42.9 16.45 43 16.45 43.3 16.45 43.55 16.55 43.65 16.65 43.75 16.7 44 16.85 44.1 17.05 44.45 17.25 44.8 17.8 45.35
L 17.85 45.5 18 45.65
Q 18.1 45.8 18.15 46.1 18.25 46.35 18.5 46.4 18.6 46.65 18.8 46.7 18.95 47.3 19.55 47.45 20 47.55 20.2 47.7
L 20.6 48.3 20.65 48.35 20.7 48.55 20.8 48.75 20.85 48.8 20.8 48.9 20.7 48.8 20.65 48.7
Q 20.55 48.65 20.45 48.75
L 20.4 48.75
Q 20.2 48.75 19.95 48.6 19.75 48.4 19.6 48.3 19.15 47.85 18.9 47.65 18.45 47.3 18.05 47.2
L 18 47.2 17.85 47.05
Q 17.65 46.85 17.5 47 17.1 47.4 16.4 47.55 15.65 47.7 15.25 47.75 15.1 47.85 14.8 47.85 14.45 47.8 14.3 47.95
L 14.35 48.05 14.3 48.05 14.2 48.1 14 48.15
Q 13.7 48.2 13.6 48.5 13.5 48.7 13.4 49.05
L 13.1 49.35 12.95 49.65
Q 12.8 49.8 12.65 50.15 12.5 50.25 12.5 50.6 12.35 50.95 12.45 51.45 12.6 52.1 12.55 52.3
L 12.25 52.65 11.95 52.8
Q 11.4 53 11.3 53.15
L 11.3 53.1
Q 11.15 53.2 10.85 53.35 10.6 53.45 10.55 53.75
L 10.55 54.05 10.25 54.55
Q 10.1 55.05 10.25 55.65
L 10.25 55.6
Q 10.45 55.85 10.3 56.1
L 10.3 56.35 10.45 56.55 10.75 56.85 10.8 56.95 10.75 57
Q 10.85 57.1 10.95 57.3 11.15 57.6 11.45 58.15 11.75 58.6 12.2 58.7
L 12.35 58.7 12.35 59 12.2 59.15
Q 12 59.15 11.9 59.3
L 11.6 59.3 11.45 59.2 11.3 59.2 11.3 59.3 11.15 59.35 10.85 59.35 10.8 59.5 10.8 59.6 10.75 59.6
Q 10.35 59.55 10.05 60 9.9 60.15 10.05 60.3
L 10.05 60.6 9.9 60.75
Q 9.85 60.85 9.75 61.1
L 9.8 61.4
Q 9.9 61.5 9.95 61.85
L 9.95 62 9.8 62.2 9.8 62.95
Q 9.95 63.1 9.85 63.45
L 9.85 64 9.95 64.2 10 64.5
Q 9.85 64.65 10 64.8
L 10 65.25
Q 10.1 65.35 10.1 65.6 10.1 65.8 10.2 65.9
L 10.2 66.05
Q 10.3 66.35 10.5 66.5 10.6 66.6 10.6 66.85 10.6 67.05 10.7 67.15
L 10.85 67.45 10.95 67.55
Q 10.85 67.75 11 67.9
L 11 68.05
Q 11.15 68.15 11.2 68.5 11.35 68.7 11.35 69.15
L 11.35 69.4
Q 11.6 69.65 11.85 69.6 11.85 69.75 12 69.9 12.1 70.2 12.55 70.4 13 70.55 13.1 70.8
L 13.25 71.25
Q 13.4 71.45 13.75 71.4
L 13.75 71.15
Q 13.7 71 13.55 69.9 13.55 69.75 13.75 69.6 14.1 69.35 14.3 69.6 14.4 69.65 14.6 69.55
L 14.8 69.3
Q 14.9 69.15 14.85 68.85 14.85 68.55 14.9 68.45
L 14.95 68.4
Q 15.05 68.05 15.2 67.95 15.25 68 15.35 68.3 15.4 68.5 15.55 68.6
L 16 69.05
Q 16.3 69.35 16.55 69.45 16.75 69.5 17.1 69.7 17.25 69.75 17.35 69.55
L 17.55 69.25 17.95 68.9
Q 18.1 68.65 18.6 68.35 19.45 67.95 19.95 68.65
L 20.85 69.7 23.45 71.95
Q 24.4 72.75 25.9 73.65
L 28.25 74.8 28.95 75.05
Q 31.55 76.05 32 76.15 32.15 76.3 32.35 76.3
L 32.5 76.3
Q 32.6 76.45 32.8 76.45 32.9 76.5 33 77 33 77.45 33.15 77.55
L 33.15 77.7
Q 33.15 77.9 33.3 78.05
L 33.3 78.1 33.35 78.15 33.5 78.45 33.65 78.65 33.8 78.75
Q 33.9 78.9 34.25 78.9
L 34.75 78.9
Q 35 79 36 78.8 36.6 78.6 37.65 78.05
L 38 78.05 40.3 77.5 41.4 77.5
Q 41.65 77.5 41.75 77.15 41.8 77 41.7 76.7
L 41.65 75.95
Q 41.9 75.5 42.3 75.65 42.65 75.75 42.7 75.65 42.75 75.6 42.75 75.2 42.65 74.8 42.45 74.5
L 41.95 73.55 41.85 73.25
Q 41.95 72.5 41.2 71.45
L 40.6 70.75
Q 39.7 69.85 39.35 69.15
L 39.2 69 39.05 69 38.9 68.85 38.65 68.65
Q 38.45 68.65 38.35 68.45
L 38.4 68.15
Q 38.35 68 38.25 68.1
L 38.05 68.25
Q 37.95 68.1 37.45 68.1 37.55 67.95 37.5 67.85 37.35 67.4 37.2 67.2 36.95 66.75 36.5 66.7
L 36.5 66.4 36.8 66.1
Q 36.95 66.05 36.95 65.8
L 37.5 64.65 37.95 64.05
Q 38.15 63.6 38.75 63.4
L 39.2 63.25 39.45 63.1
Q 39.5 62.8 39.75 62.5 40.1 62.1 40.15 62
L 40.25 61.8
Q 40.4 61.8 40.4 61.65 40.45 61.65 40.6 61.35
L 40.9 61.05 41.05 61
Q 41.25 61.05 41.7 61.05 42.1 61.1 42.3 61.3
L 42.6 61.6
Q 42.6 61.75 42.75 61.75 42.85 62.15 42.95 62.2
L 43.1 62.4
Q 43.1 62.75 43.5 62.9
L 43.95 63
Q 44.15 63.1 44.6 63.15 44.9 63.25 45.05 63.75
L 45.25 63.9
Q 45.45 64.1 45.8 63.85 45.9 63.75 46.05 63.8 46.55 64 46.95 63.55 47.65 63.3 47.8 62.95
L 48.15 62.35 48.4 62.05
Q 48.6 61.95 48.95 61.35
L 49.15 61.05
Q 49.3 60.8 49.5 61 49.9 61.4 49.9 61.8 50 62.4 50.45 62.6 50.75 62.7 51.15 63.2 51.45 63.7 51.9 64 52.15 63.95 52.2 63.65 52.5 63.45 52.4 62.95 52.35 62.55 51.95 61.85 51.6 61 51.3 60.65
L 51.25 60.4
Q 51.25 60.2 51 59.85 50.8 59.5 50.75 59.3 50.8 59.1 50.65 58.95
L 50.6 58.8 50.45 58.15
Q 50.6 58.1 50.6 57.85
L 50.75 57.85
Q 50.75 58.1 50.95 58.15 51 58.3 51.25 58.3 51.6 58.25 51.65 58.15 51.7 58.1 51.6 57.85 51.5 57.55 51.6 57.4 51.75 57.2 51.55 56.85
L 51.3 56.3
Q 51.25 56.15 51.45 55.95 51.65 55.85 51.8 55.9
L 52.35 55.95
Q 52.85 55.85 52.9 55.5
L 53.05 55.3 53.35 55.3
Q 54.3 56.55 55.75 57
L 56.6 57.25
Q 56.9 57.35 56.85 57 56.85 56.8 57.1 56.8
L 57.95 56.8
Q 58.35 56.9 58.9 56.65 59.15 56.9 59.3 57.5 59.35 57.75 59.75 58.8 59.9 59.1 60.25 59.4
L 60.4 59.5 60.6 59.7 60.6 59.8 60.9 60.1
Q 61.4 60.95 62.05 61.2
L 62.2 61.35
Q 62.45 61.7 62.95 61.8 63.1 62.05 63.4 62.55 63.6 62.95 63.65 63.3 63.65 63.5 63.85 63.6 64.15 63.8 64.8 64.05 64.95 64.1 65.05 63.9
L 65.2 63.85
Q 65.85 63.4 65.55 62.75
L 65.45 62.2
Q 65.45 61.95 65.35 61.9
L 65.15 61.7
Q 65.2 61.45 65 61.2 64.75 60.95 64.65 60.8 64.65 60.55 64.5 60.5 64.45 60.35 64.2 60.35
L 63.9 60.05 63.7 59.9 63.55 59.9
Q 62.95 60.05 62.3 59.8 62.05 59.75 61.75 59.45 61.35 59 61.05 58.85
L 61.05 58.7 61 57.5
Q 61 57.1 60.85 57
L 60.85 56.85 61.3 56.7 62.75 56.65 63.05 56.5
Q 63.65 56.1 64.3 56.15
L 64.6 56.1
Q 64.85 56.1 64.75 55.9
L 64.7 55.6
Q 64.55 55.3 64.85 54.9
L 65.3 54.9
Q 66.8 54.25 67.35 54.15
L 67.45 54.05
Q 67.8 54.05 67.95 53.95 68.25 53.9 68.3 53.95 68.35 54 68.4 54.2
L 68.25 54.5
Q 67.8 54.65 67.75 54.8 67.7 54.95 67.55 55.05 67.35 55.15 67.3 55.2
L 67.25 55.4 67.35 55.95 67.2 56.55 67.65 56.45
Q 67.8 56.45 67.8 56.6
L 67.65 56.8
Q 67.3 57.1 67.6 57.6 67.8 57.9 68.2 58.45 68.5 59 68.95 58.9 69.25 58.9 69.1 59.15
L 69 59.5 69.05 59.65
Q 69.3 59.65 69.7 60 69.8 59.9 70.05 59.75 70.3 59.65 70.4 59.5
L 70.65 58.9
Q 70.7 58.9 70.85 59.1 71 59.3 71.2 59.15
L 71.4 58.9 71.5 59.05
Q 71.6 59.25 71.7 59.25 71.9 59.25 71.9 59.05 72.05 58.5 72.1 58.45
L 73.1 57.5
Q 73.65 57.1 73.7 56.95 73.75 56.9 74.05 56.9 74.5 56.9 74.65 57 75.05 57.25 75.2 57.25 75.35 57.25 75.75 56.95 76.25 56.55 76.6 56.65 76.65 56.65 76.9 56.4 76.95 56.25 77.05 56.25 77.1 56.3 77.15 56.4
L 77.45 57 77.65 57.6
Q 77.75 57.8 78.2 57.8 78.3 57.8 78.45 57.65 78.6 57.55 78.7 57.6 79.1 57.7 79.3 57.25
L 79.5 56.85
Q 79.65 56.65 79.65 56.2 79.55 56 79.55 55.9 79.45 55.75 79.55 55.7 79.7 55.6 79.8 55.8 79.95 56 80 56 80.05 56 80.2 56.15 80.45 56 80.35 55.75 80.3 55.4 80.35 55.3
L 80.7 55.75
Q 81.05 56.2 81.4 55.85
L 81.7 55.85
Q 82.3 55.95 82.45 55.3
L 82.6 55.15 82.6 55.85
Q 82.6 56.1 82.5 56.2 81.75 56.8 82.15 57.8
L 82.2 57.95 82.1 58.7
Q 82.05 58.9 82.2 59
L 82.55 59.2
Q 82.85 59.5 83.1 59.2
L 83.3 59.1
Q 83.6 59.25 83.8 58.85
L 84.2 58.2
Q 84.5 57.75 84.5 57.7 84.5 57.5 84.7 57.2 84.95 56.9 85 56.75
L 85.15 56.7
Q 85.3 56.8 85.65 56.7 86 56.65 86.15 56.85 86.3 57 86.4 56.75
L 86.5 56.45
Q 86.7 56 87.05 55.95 87.2 55.95 87.3 55.6 87.4 55.35 87.65 55.5 88.25 55.8 88.75 55.4 89 55.2 89.3 55.55
L 89.7 55.9
Q 89.95 56 90.15 55.75 90.25 55.5 90.1 55.45 89.65 54.8 88.35 54.1
L 88.2 54.1
Q 87.4 54.05 86.8 53.5 86.35 53.05 85.9 53.65 85.55 54.15 85.1 53.9 84.7 53.65 84.45 53.7 84.55 52.55 83.65 52.05 83.5 52.05 83.5 51.9 83.25 51.4 82.9 51.05 82.8 50.95 82.95 50.85 83.1 50.8 83.1 50.6
L 83.1 49.85 82.95 49.7 82.95 49.35 83.25 49.35 83.25 49.6
Q 83.25 49.9 83.45 49.95 83.65 49.95 83.85 49.75
L 83.9 49.6
Q 84.25 49.05 83.8 48.55
L 82.75 47.35
Q 82.6 47.1 82.4 47.05
M 82.8 54.35
L 82.85 54.35
Q 82.75078125 54.796484375 82.65 55 82.6984375 54.89296875 82.6 54.45 82.6 54.35 82.8 54.35
M 49.5 45.25
L 49.7 45.3 49.6 45.5 49.5 45.25 Z"/>
</g>

<g id="Layer2_0_MEMBER_0_MEMBER_0_MEMBER_3_FILL">
<path fill="#000000" stroke="none" d="
M 22.45 73.45
Q 22.45 73.1 22.1 73.1 21.85 73.1 21.85 73.35 21.95 73.65 22.15 73.65 22.35 73.65 22.45 73.45 Z"/>
</g>

<g id="Layer2_0_MEMBER_0_MEMBER_0_MEMBER_4_FILL">
<path fill="#000000" stroke="none" d="
M 84.1 49.9
L 84.15 50.05
Q 84.25 50.15 84.35 50.05 84.5 50 84.5 49.8 84.4 49.6 84.35 49.6 84.3 49.55 84.15 49.7
L 84.1 49.9 Z"/>
</g>

<g id="Layer2_0_MEMBER_0_MEMBER_0_MEMBER_5_FILL">
<path fill="#000000" stroke="none" d="
M 37.15 66.35
L 37 66.5
Q 36.9 66.75 37.2 66.75 37.35 66.75 37.35 66.6 37.35 66.35 37.15 66.35 Z"/>
</g>

<g id="Layer2_0_MEMBER_0_MEMBER_0_MEMBER_6_FILL">
<path fill="#000000" stroke="none" d="
M 53.7 74
Q 53.3 73.75 52.8 74 52.45 74.1 51.7 74.65 51.4 74.9 51.45 75.4 51.55 76.5 52.2 77
L 53.15 77.5 53.6 77.55
Q 54.9 77.4 54.95 76.3
L 55.05 76
Q 55.1 75.8 55 75.3 54.75 74.45 53.7 74 Z"/>
</g>

<g id="Layer2_0_MEMBER_0_MEMBER_0_MEMBER_7_FILL">
<path fill="#000000" stroke="none" d="
M 79.45 34.75
Q 79.45 35.2 79.8 35.1 80.35 35.1 80.25 34.7 80.25 34.35 79.8 34.35 79.45 34.35 79.45 34.75 Z"/>
</g>
</defs>

<g transform="matrix( 1, 0, 0, 1, 0,0) ">
<use xlink:href="#Layer2_0_MEMBER_0_MEMBER_0_MEMBER_0_FILL"/>
</g>

<g transform="matrix( 1, 0, 0, 1, 0,0) ">
<use xlink:href="#Layer2_0_MEMBER_0_MEMBER_0_MEMBER_1_FILL"/>
</g>

<g transform="matrix( 1, 0, 0, 1, 0,0) ">
<use xlink:href="#Layer2_0_MEMBER_0_MEMBER_0_MEMBER_2_FILL"/>
</g>

<g transform="matrix( 1, 0, 0, 1, 0,0) ">
<use xlink:href="#Layer2_0_MEMBER_0_MEMBER_0_MEMBER_3_FILL"/>
</g>

<g transform="matrix( 1, 0, 0, 1, 0,0) ">
<use xlink:href="#Layer2_0_MEMBER_0_MEMBER_0_MEMBER_4_FILL"/>
</g>

<g transform="matrix( 1, 0, 0, 1, 0,0) ">
<use xlink:href="#Layer2_0_MEMBER_0_MEMBER_0_MEMBER_5_FILL"/>
</g>

<g transform="matrix( 1, 0, 0, 1, 0,0) ">
<use xlink:href="#Layer2_0_MEMBER_0_MEMBER_0_MEMBER_6_FILL"/>
</g>

<g transform="matrix( 1, 0, 0, 1, 0,0) ">
<use xlink:href="#Layer2_0_MEMBER_0_MEMBER_0_MEMBER_7_FILL"/>
</g>
</svg>
