
<svg xmlns="http://www.w3.org/2000/svg" version="1.1" xmlns:xlink="http://www.w3.org/1999/xlink" preserveAspectRatio="none" x="0px" y="0px" width="100px" height="100px" viewBox="0 0 100 100">
<defs>
<g id="Layer2_0_MEMBER_0_MEMBER_0_MEMBER_0_FILL">
<path fill="#000000" stroke="none" d="
M 65.55 18.2
Q 65.75 18.45 65.95 18.45 66.15 18.45 66.35 18.15 66.6 17.85 66.6 17.55 66.6 17.3 66.4 17.1 66.2 16.85 65.95 16.9 65.7 16.9 65.5 17.15 65.3 17.4 65.3 17.7 65.35 17.95 65.55 18.2 Z"/>
</g>

<g id="Layer2_0_MEMBER_0_MEMBER_0_MEMBER_1_FILL">
<path fill="#000000" stroke="none" d="
M 43.95 15.2
Q 43.95 15.8 44.6 15.8 44.95 15.75 45.05 15.3 45.05 15.1 44.9 14.9 44.7 14.7 44.55 14.65 44.35 14.65 44.15 14.85 43.95 15 43.95 15.2 Z"/>
</g>

<g id="Layer2_0_MEMBER_0_MEMBER_0_MEMBER_2_FILL">
<path fill="#000000" stroke="none" d="
M 18.35 87.65
Q 18.35 87.2 17.85 87.05 17.35 87.05 17.25 87.55 17.2 88 17.75 88.1 18.3 88.2 18.35 87.65 Z"/>
</g>

<g id="Layer2_0_MEMBER_0_MEMBER_0_MEMBER_3_FILL">
<path fill="#000000" stroke="none" d="
M 28.25 11.75
Q 28.25 12.05 28.6 12.05 28.9 12.05 28.9 11.7 28.9 11.3 28.55 11.3 28.25 11.35 28.25 11.75 Z"/>
</g>

<g id="Layer2_0_MEMBER_0_MEMBER_0_MEMBER_4_FILL">
<path fill="#000000" stroke="none" d="
M 12.4 61.7
L 12.55 61.7
Q 12.65 61.4 12.5 61.4 12.4 61.45 12.4 61.7 Z"/>
</g>

<g id="Layer2_0_MEMBER_0_MEMBER_0_MEMBER_5_FILL">
<path fill="#000000" stroke="none" d="
M 87.65 60.35
Q 87.25 59.75 86.25 59.75 85.55 59.8 85 60.65 84.55 60.85 84.3 61.5 84.3 62.05 84.45 62.2
L 84.8 62.55
Q 86.15 63.05 87.25 62.4 87.6 62.2 87.75 61.85 88.1 60.9 87.65 60.35 Z"/>
</g>

<g id="Layer2_0_MEMBER_0_MEMBER_0_MEMBER_6_FILL">
<path fill="#000000" stroke="none" d="
M 81.85 39.55
Q 81.65 39.75 81.5 39.8
L 80.85 40.3 80.8 39.3
Q 80.85 39 80.75 38.5 80.6 37.85 80.6 37.75
L 80.7 37.5
Q 81.05 36.8 81.05 36.6 81 36.4 80.5 35.8
L 80.3 35.65 80.3 35.15
Q 80.3 34.85 80.5 34.8 80.95 34.7 80.9 34.45 80.9 34.1 80.4 34.1
L 80 34.05
Q 79.4 33.15 78.95 32.85 78.9 32.6 78.6 32.3
L 78.55 32.15
Q 78.55 31.85 78.2 31.8 78 31.05 77.05 30.95
L 76.15 30.95 76.4 30.1
Q 76.5 29.75 76.35 29.65 76 29.2 75.8 29 75.45 28.6 75.1 28.5 74.85 28.3 74.55 28.5
L 74.4 28.5 74.05 28 74.25 27.65 74.4 27.45 74.4 27.2
Q 74.45 25.9 73.6 25.35 72.8 24.85 71.6 25.4 71.45 25.25 71.4 25.25 70.85 24.7 70.75 24.5
L 70.75 22.05
Q 70.75 21.7 70.35 21.3 69.85 20.7 69.55 20.5 68.95 19.7 67.45 19.5
L 67.45 19.3 67.1 19.35
Q 66.95 19.35 66.9 19.45 65.15 19.25 63.25 19.95
L 62.65 19.8
Q 62.5 19.3 61.7 19.5
L 61.25 19.45
Q 60.7 19.3 59.4 19.15 58.2 19 57.55 18.8 56.75 18.55 56.2 18.6
L 55.9 18.45
Q 55.75 18.35 55.9 18.1 56.05 17.85 55.85 17.55 55.55 16.85 55.25 16.7 54.95 16.6 54.4 16.95 54.05 17.25 54.05 17.8 54.05 18.25 53.9 18.3 53.1 18.2 52.85 18.25 51.1 17.9 50.5 17.9 50 17.75 49.8 17.5 49.35 16.95 48.6 17.35
L 48.2 17.6
Q 47.2 17.45 46.75 17.4 45.9 17.3 45.3 17.4
L 45.05 17.35
Q 44.25 17.35 44.05 16.8 43.7 16.05 42.85 15.6 41.85 15.05 41.05 15.5 40.7 15.75 40.05 15.95 39.25 16.2 39 16.35 38.75 16.95 38.8 17.4 38.65 17.55 38.2 17.65 37.75 17.75 37.55 17.95 37.2 17.95 37.05 18.1 35.95 18.45 35.65 18.5 35.25 18.5 34.95 18.8 33.45 19.35 33.05 19.65 32.05 19.85 31.65 20.2
L 31.3 20.35 31.15 20.35
Q 30.95 20.35 30.8 20.5 28.5 21.55 27.3 22.75 26.4 23.3 26.15 23.65
L 25.25 24.35
Q 23.85 24.45 23.35 25.05
L 23 25.75 22.8 25.9 22.85 25.9
Q 22.55 26 22.25 25.75 21.85 25.4 21.8 25.35
L 21.6 25.2
Q 21.45 25.05 21.25 25.05 20 24.7 19.15 25.05
L 19 25.05
Q 18.8 25.05 18.65 25.25 18.15 25.65 18.1 26.1 17.95 26.25 17.95 26.45
L 17.95 26.95
Q 18.45 28.55 20.05 28.5 20.2 28.5 20.5 28.45 20.7 28.45 20.9 28.55 21 28.8 21.25 29.2 21.45 29.6 21.45 29.95 20.75 31.05 20.95 31.8
L 21.3 33.2
Q 20.7 34 19.45 36.6 18.85 38.05 18.85 39.25
L 18.7 42.65 18.65 42.85 18.4 43.1
Q 18 43.35 17.85 43.8
L 17.7 44 17.6 44.25
Q 17.25 44.6 16.9 45.45
L 16.75 45.6
Q 14.9 47.25 14.45 49.7 14 50.3 13.95 50.5 14.05 51.65 14.45 52.05 14.9 52.5 16 52.5
L 16.2 52.5 16.4 53.2 16.4 53.85
Q 15.75 54.25 16.15 54.65 16.55 55.1 16.7 56.15
L 16.75 57
Q 16.75 57.45 16.35 57.85 16.35 57.9 16.2 58.05
L 16.05 58.2 16.05 58.25
Q 15.85 58.35 15.85 58.55
L 15.7 58.75 15.7 59.1 15.35 59.15
Q 14.85 59.45 15.05 59.8 15.25 60.15 15.7 59.9 15.8 59.8 16.05 59.8 16.35 60.35 17.45 60.45
L 17.75 61
Q 17.8 61.4 18.1 61.7 18.25 62.05 18.3 62.05 18.3 62.2 18.45 62.25 18.45 62.45 18.6 62.6
L 18.65 62.75 19.2 64.05
Q 19.65 64.95 20.15 65.35 20.3 65.6 20.4 65.65
L 20.55 65.75
Q 21.1 66.7 22.25 67.45 22.45 67.75 22.65 67.75
L 22.8 67.9 23.5 68.3
Q 23.55 68.6 23.3 69.4 23 70.6 23.15 71.25 23.3 72.1 24.2 72.8
L 25.25 73.15 25.4 73.35
Q 25.9 74.35 27.35 74.35 27.35 74.4 27.5 74.55
L 27.8 74.9 28 75.3
Q 27.3 76.1 27.3 77.05 27.3 78 27.85 78.2
L 28.55 78.75
Q 28.95 79.15 29.4 79.1 29.85 79.05 30.1 78.55
L 30.3 77.95
Q 30.35 78 30.7 78.3 30.9 78.5 31.15 78.55 31.25 78.7 31.45 78.7 31.75 79 32.35 79.2 33.55 79.85 34.1 79.9
L 34.25 79.95 34.45 79.95
Q 35.2 80 36.5 80.6
L 37.35 80.95
Q 38.25 81.35 39 80.95 39.25 81 39.8 81.35 40.35 81.6 40.65 81.7
L 40.8 81.75
Q 41.35 81.9 42.45 82.05 43.55 82.25 44 82.2 44.25 82.3 44.5 82.2
L 45.75 82.2
Q 46.45 82.2 46.95 82.35
L 47.55 82.5
Q 47.9 82.6 48.2 82.35
L 48.35 82.35
Q 49.15 82.25 49.8 82.7 50.3 83.1 51.35 83.75
L 51.7 83.95
Q 51.8 84.15 52.2 84.25 52.4 84.25 52.95 84.5 53.4 84.7 53.7 84.6
L 53.8 84.65 53.85 84.65
Q 54.5 84.75 56.3 84.8 58.15 84.8 58.7 84.65
L 58.75 84.6
Q 59.7 84.5 61 83.75 61.35 83.75 61.7 83.5 62.1 83.4 62.25 83.25
L 62.4 83.2
Q 64.05 82.7 65.85 81.1 68.5 79.9 69.9 78.75
L 70.2 78.55 70.2 78.5 70.4 78.4
Q 70.65 78.35 70.95 78.05
L 71.1 78
Q 71.4 77.9 71.45 77.7
L 71.75 77.5
Q 72.75 76.85 73.2 76.3 75.15 75 76 73.35
L 76.2 73.1
Q 76.95 72.2 77.15 71.25 77.35 71 77.55 70.4 78.2 68.95 78.25 68.7
L 78.4 68.3 78.55 65
Q 78.7 64.6 78.95 64.35 79.55 63.75 79.8 63.1
L 80.3 62.4
Q 80.4 62.35 80.5 62.05 80.65 62 80.65 61.85 80.75 61.75 81.7 59.8 82.5 59.05 82.4 57.55 82.55 57.4 82.55 56.85
L 82.55 56.65
Q 82.7 55.75 82.45 54.6 82.1 53.25 81.95 52.55 81.75 51.3 81.35 50.85 81.25 50.3 81.85 49.4 82.35 48.85 82.45 48.7 82.7 48.25 82.6 47.8 82.6 46.45 82.1 45.5 81.7 44.6 81.5 43.1 81.45 42.7 81.05 41.9 80.75 41.3 80.85 40.85
L 81.35 41.2
Q 82.15 41.55 82.75 41.2 83.25 41.05 83.25 40.35 82.95 39.1 81.85 39.55 Z"/>
</g>

<g id="Layer2_0_MEMBER_0_MEMBER_0_MEMBER_7_FILL">
<path fill="#000000" stroke="none" d="
M 72.85 22.55
Q 72.95 23 73.4 23 73.65 23.05 73.85 22.85 74.05 22.65 74 22.4 74 21.95 73.45 21.95 72.85 21.95 72.85 22.55 Z"/>
</g>

<g id="Layer2_0_MEMBER_0_MEMBER_0_MEMBER_8_FILL">
<path fill="#000000" stroke="none" d="
M 81.3 71.85
Q 81.35 71.65 81.15 71.5 80.9 71.35 80.65 71.35 80.15 71.6 80.2 71.8 80.3 72.4 80.75 72.4 81.2 72.4 81.3 71.85 Z"/>
</g>

<g id="Layer2_0_MEMBER_0_MEMBER_0_MEMBER_9_FILL">
<path fill="#000000" stroke="none" d="
M 82.45 26.8
Q 82.3 25.85 81.25 26.1 80.45 26.3 80.8 27.3
L 81 27.5
Q 81.6 27.9 82.3 27.35 82.6 27.15 82.45 26.8 Z"/>
</g>

<g id="Layer2_0_MEMBER_0_MEMBER_0_MEMBER_10_FILL">
<path fill="#000000" stroke="none" d="
M 45.8 12
Q 46 12.25 46.25 12.25 46.75 12.25 46.85 11.65 46.85 11.1 46.25 11 45.6 11 45.6 11.45 45.6 11.75 45.8 12 Z"/>
</g>

<g id="Layer2_0_MEMBER_0_MEMBER_0_MEMBER_11_FILL">
<path fill="#000000" stroke="none" d="
M 17.25 73.8
Q 15.9 73.3 15.05 73.55 13.6 73.85 13.25 74.9
L 13.25 75.05
Q 13.15 75.85 12.2 76.8 11.8 78.45 12.75 79.05 12.85 79.45 13.05 79.55 13.2 79.5 13.95 79.55 14.5 79.6 14.8 79.4
L 16.05 78.9 16.55 78.55 17.1 78.05 17.6 78
Q 18.45 77.65 18.75 77 19.05 76.3 18.65 75.5 17.85 74.05 17.25 73.8 Z"/>
</g>

<g id="Layer2_0_MEMBER_0_MEMBER_0_MEMBER_12_FILL">
<path fill="#000000" stroke="none" d="
M 13.1 54.05
Q 13.15 54.7 13.95 55.1 14.4 55.4 15.35 55.25
L 15.7 55.1
Q 15.85 54.95 15.85 54.55 15.75 53.35 14.65 52.8 14.35 52.65 13.8 52.85 13.05 53.4 13.1 54.05 Z"/>
</g>

<g id="Layer2_0_MEMBER_0_MEMBER_0_MEMBER_13_FILL">
<path fill="#000000" stroke="none" d="
M 16.95 82
Q 17.75 82 17.75 81.2 17.75 80.25 16.95 80.25 16.65 80.25 16.35 80.5 16.05 80.8 16.1 81.05 16.1 81.3 16.4 81.65 16.7 82 16.95 82 Z"/>
</g>

<g id="Layer2_0_MEMBER_0_MEMBER_0_MEMBER_14_FILL">
<path fill="#000000" stroke="none" d="
M 28.35 85.95
Q 28.15 86.1 28 86.35 27.7 86.75 28 87.5 28.3 88.25 29.05 88.8
L 29.25 88.95
Q 29.75 89.1 30.25 88.95 31.05 88.7 31.25 87.7 31.3 87.4 30.8 86.55
L 30.3 86.15
Q 29.65 85.95 29.35 85.9 28.8 85.75 28.35 85.95 Z"/>
</g>

<g id="Layer2_0_MEMBER_0_MEMBER_0_MEMBER_15_FILL">
<path fill="#000000" stroke="none" d="
M 16.4 66.9
Q 16.1 67.1 16.05 67.25 16.05 67.4 15.95 67.6 15.95 67.8 16.15 67.95 16.75 68.35 17.05 67.85 17.55 67.3 16.9 66.9
L 16.4 66.9 Z"/>
</g>

<g id="Layer2_0_MEMBER_0_MEMBER_0_MEMBER_16_FILL">
<path fill="#000000" stroke="none" d="
M 20.55 77.75
Q 20.35 77.75 20.3 77.5 20.25 77.2 20.55 77.15 20.95 77.15 21.05 77.05 20.45 76.55 20 77 19.8 77.15 19.85 77.45 19.9 77.7 20.15 77.85 20.7 78.2 21.1 77.55 20.75 77.75 20.55 77.75 Z"/>
</g>

<g id="Layer2_0_MEMBER_0_MEMBER_0_MEMBER_17_FILL">
<path fill="#000000" stroke="none" d="
M 14.8 62.45
Q 14.55 62.45 14.55 62.75 14.55 63 14.85 63 15.1 63 15.1 62.7 15 62.45 14.8 62.45 Z"/>
</g>

<g id="Layer2_0_MEMBER_0_MEMBER_0_MEMBER_18_FILL">
<path fill="#000000" stroke="none" d="
M 35.5 16.7
Q 35.85 16.5 35.85 16 35.85 15.5 35.65 15.3 35.25 14.3 33.95 13.75
L 33.75 13.6
Q 32.65 13.4 32 14.45 31.6 15.55 32.15 16.3 32.7 17.05 33.9 17.05 34.2 17.05 34.75 17.05 35.2 17 35.5 16.7 Z"/>
</g>

<g id="Layer2_0_MEMBER_0_MEMBER_0_MEMBER_19_FILL">
<path fill="#000000" stroke="none" d="
M 25 17.4
Q 25.35 17.45 25.55 17.3 26.15 16.9 25.8 16.35 25.65 16.15 25.4 16 24.55 15.75 24.3 16.25 24.1 16.65 24.45 17.1 24.65 17.35 25 17.4 Z"/>
</g>

<g id="Layer2_0_MEMBER_0_MEMBER_0_MEMBER_20_FILL">
<path fill="#000000" stroke="none" d="
M 28.6 14.55
Q 28.4 14.8 28.4 15.05 28.4 15.3 28.6 15.45 28.85 15.65 29.1 15.65 29.7 15.65 29.75 15.1 29.85 14.45 29.1 14.35 28.85 14.3 28.6 14.55 Z"/>
</g>
</defs>

<g transform="matrix( 1, 0, 0, 1, 0,0) ">
<use xlink:href="#Layer2_0_MEMBER_0_MEMBER_0_MEMBER_0_FILL"/>
</g>

<g transform="matrix( 1, 0, 0, 1, 0,0) ">
<use xlink:href="#Layer2_0_MEMBER_0_MEMBER_0_MEMBER_1_FILL"/>
</g>

<g transform="matrix( 1, 0, 0, 1, 0,0) ">
<use xlink:href="#Layer2_0_MEMBER_0_MEMBER_0_MEMBER_2_FILL"/>
</g>

<g transform="matrix( 1, 0, 0, 1, 0,0) ">
<use xlink:href="#Layer2_0_MEMBER_0_MEMBER_0_MEMBER_3_FILL"/>
</g>

<g transform="matrix( 1, 0, 0, 1, 0,0) ">
<use xlink:href="#Layer2_0_MEMBER_0_MEMBER_0_MEMBER_4_FILL"/>
</g>

<g transform="matrix( 1, 0, 0, 1, 0,0) ">
<use xlink:href="#Layer2_0_MEMBER_0_MEMBER_0_MEMBER_5_FILL"/>
</g>

<g transform="matrix( 1, 0, 0, 1, 0,0) ">
<use xlink:href="#Layer2_0_MEMBER_0_MEMBER_0_MEMBER_6_FILL"/>
</g>

<g transform="matrix( 1, 0, 0, 1, 0,0) ">
<use xlink:href="#Layer2_0_MEMBER_0_MEMBER_0_MEMBER_7_FILL"/>
</g>

<g transform="matrix( 1, 0, 0, 1, 0,0) ">
<use xlink:href="#Layer2_0_MEMBER_0_MEMBER_0_MEMBER_8_FILL"/>
</g>

<g transform="matrix( 1, 0, 0, 1, 0,0) ">
<use xlink:href="#Layer2_0_MEMBER_0_MEMBER_0_MEMBER_9_FILL"/>
</g>

<g transform="matrix( 1, 0, 0, 1, 0,0) ">
<use xlink:href="#Layer2_0_MEMBER_0_MEMBER_0_MEMBER_10_FILL"/>
</g>

<g transform="matrix( 1, 0, 0, 1, 0,0) ">
<use xlink:href="#Layer2_0_MEMBER_0_MEMBER_0_MEMBER_11_FILL"/>
</g>

<g transform="matrix( 1, 0, 0, 1, 0,0) ">
<use xlink:href="#Layer2_0_MEMBER_0_MEMBER_0_MEMBER_12_FILL"/>
</g>

<g transform="matrix( 1, 0, 0, 1, 0,0) ">
<use xlink:href="#Layer2_0_MEMBER_0_MEMBER_0_MEMBER_13_FILL"/>
</g>

<g transform="matrix( 1, 0, 0, 1, 0,0) ">
<use xlink:href="#Layer2_0_MEMBER_0_MEMBER_0_MEMBER_14_FILL"/>
</g>

<g transform="matrix( 1, 0, 0, 1, 0,0) ">
<use xlink:href="#Layer2_0_MEMBER_0_MEMBER_0_MEMBER_15_FILL"/>
</g>

<g transform="matrix( 1, 0, 0, 1, 0,0) ">
<use xlink:href="#Layer2_0_MEMBER_0_MEMBER_0_MEMBER_16_FILL"/>
</g>

<g transform="matrix( 1, 0, 0, 1, 0,0) ">
<use xlink:href="#Layer2_0_MEMBER_0_MEMBER_0_MEMBER_17_FILL"/>
</g>

<g transform="matrix( 1, 0, 0, 1, 0,0) ">
<use xlink:href="#Layer2_0_MEMBER_0_MEMBER_0_MEMBER_18_FILL"/>
</g>

<g transform="matrix( 1, 0, 0, 1, 0,0) ">
<use xlink:href="#Layer2_0_MEMBER_0_MEMBER_0_MEMBER_19_FILL"/>
</g>

<g transform="matrix( 1, 0, 0, 1, 0,0) ">
<use xlink:href="#Layer2_0_MEMBER_0_MEMBER_0_MEMBER_20_FILL"/>
</g>
</svg>
