
<svg xmlns="http://www.w3.org/2000/svg" version="1.1" xmlns:xlink="http://www.w3.org/1999/xlink" preserveAspectRatio="none" x="0px" y="0px" width="100px" height="100px" viewBox="0 0 100 100">
<defs>
<g id="Layer1_0_FILL">
<path fill="#0A0000" stroke="none" d="
M 42.55 24.45
Q 42.25 24.1 41.6 24.35 38.8 25.55 38.35 27.9 38.05 29.45 38.65 31.25
L 39.65 34.45 39.9 34.45 40 34.7
Q 40.2 34.85 40.35 35.1 41.2 38.9 43.2 42.55
L 41.9 41.05
Q 41.45 40.05 40 38.55 39.45 37.95 38.55 37.65 37.6 37.4 37.05 37.65 35 38.6 35 40.25 35 41.55 35.2 42 35.5 42.9 36.65 43.15 37.1 43.15 37.3 43.35 37.65 43.85 38.6 44.05 41.55 44.85 42.2 45.25 42.7 45.65 44.25 47.95 44.75 49.75 46.6 52.5 47.05 53.3 47.75 53.9
L 48.25 55.5
Q 48.55 56.4 48.9 56.6 49.15 57.65 49.85 59.05 50.5 60.5 51.5 61.4 51.4 61.9 51.65 62.3
L 51.6 64.55 51.65 64.55
Q 51.65 64.6 51.7 64.6
L 51.7 64.65 51.6 64.55 51.25 64.6 50.9 64.15
Q 50.95 63.75 50.75 63.3
L 50.35 62.55
Q 50.25 62.1 49.3 60 49.35 59.65 49.05 59.35 49 59.3 48.55 58.85 48.55 58.7 48.4 58.65 48.3 58.35 47.85 58.3 47.15 58.15 46.7 58.2 46.2 58.3 45.7 58.65 45.1 59.05 44.95 59.45 44.8 59.7 45.15 60.15 45.4 60.6 45.45 60.7 45.7 60.9 46.05 61.05
L 46.1 61.05 46.45 61.2 47.2 61.9 49.05 64.45
Q 49.1 64.6 49.6 64.7
L 50 64.9
Q 50 65.05 50.05 65.4 50.1 65.7 50.35 65.85 50.35 65.9 50.45 66 50.8 69.2 51.65 71.45 52.1 72.65 52.8 73.25 52.75 73.45 52.9 73.5 52.65 73.7 52.45 73.7 52.25 73.75 52.1 73.6 51.05 72.6 50.45 72.15 49.35 70.8 48.8 68.9 48.8 68.7 48.75 68.55 48.7 68.35 48.45 68.3
L 48.4 68.35
Q 48.45 66.7 47.2 64.8 47.25 64.45 46.85 64.35 46.7 63.75 46.05 63.55 46 62.9 45.3 62.9
L 44.9 62.7 44.85 62.7
Q 44.65 62.35 43.55 62.05 42.8 61.95 42.1 62.25 41.4 62.6 41.3 63.15 41.2 63.85 41.3 64.25 41.4 64.9 42 65.2 42.2 65.6 42.85 65.85 43.15 66 44 66.1
L 44.85 66.7
Q 45 66.95 45.35 67.45 45.55 67.95 45.65 68.25 45.65 68.4 45.75 68.55
L 46 68.75
Q 46.05 69.15 46.6 69.35 47.2 69.6 47.55 69.75 48 71.45 50 72.5 51 73.4 51.1 73.5 52.25 74.4 53.5 74.65 54.4 75.1 54.85 75.8 54.65 73.5 54.45 72.85 54.2 71.95 54.3 71.6
L 54.4 68.7
Q 54.45 68.5 54.55 68.35 56.05 67.05 57 64.7 57.15 64.5 57.95 62.35 59.95 59.2 59.7 55.9 60.05 55.45 60.75 54.6 61.3 53.85 61.2 53.15
L 61.35 52.65
Q 61.45 52.3 61.4 52.1 61.35 51.45 61.4 50.5 61.6 49.4 61.6 48.85
L 62.45 47.35
Q 63.4 46.55 63.8 46.05 64.4 45.25 64.5 44.45 65.1 43.45 65 42.3 64.85 41.55 64.4 40.35 64.05 39.45 63 39.35 62 39.25 61.15 39.95 59.85 41.1 59.8 41.9
L 59.75 41.95 59.35 42.5
Q 58.5 43 58.65 44.05 57.95 44.95 58.05 46.1 57.6 46.55 57.85 47.1 57.15 51.25 58 54
L 57.9 54
Q 57.7 54.25 57.65 54.65 57.65 54.85 57.7 55.3 57.95 58.95 57.2 62 56.75 63.2 55.85 65.6 55.7 65.9 55.45 66 55.25 66.1 54.9 65.95 54.9 65.75 54.9 65.65 54.9 65.55 54.85 65.45 55.45 63.95 55.35 61.55 55.4 57.1 54.4 51.25 54.5 51.1 54.4 50.9 54.65 50.5 54.6 49.95 54.45 49.35 54.45 49
L 54.85 48.5
Q 55.35 47.95 55.45 47.7
L 56.5 42 57.1 40.35 57.5 39.75
Q 57.95 39.35 58.1 38.75 58.15 38.6 58.3 37.65 58.4 36.7 58.1 36.2 57.85 35.75 56.85 35.4 56.05 35.15 55.45 35.3 54.8 35.45 54 36.15 53.5 36.6 53.5 37.15 53.35 37.4 53.4 37.65 53 38.7 53 38.85 52.8 39.5 53 40.05 52.8 44.35 52.85 45.2
L 52.75 46.75
Q 52.65 47.7 52.95 48.3
L 52.65 49.4 52.25 49.5 52.2 49.7 52.15 49.7
Q 52.2 49.6 52.2 49.55
L 52.25 49.5 51.15 45.65
Q 51.3 44.65 50.75 43.75 50.45 43.2 49.75 43.05 50.15 42 50.45 40.65 50.85 38.45 51.15 37.3 51.5 36.8 52.2 35.7 52.8 34.75 53.05 34 53.45 33.7 53.45 33.3 53.5 33.05 53.3 32.6 53.45 32.15 53.3 31.65 53 29.45 50.7 28.7 50 28.45 49.4 28.7 47.9 29.35 47.15 30.05 46.3 30.95 46.35 32.15 45 33.85 45.65 35.65 45.5 36.15 45.75 36.5 45.55 39.25 47.15 42.2 47.4 42.8 47.75 43.65 46.55 44.5 46.75 45.85 46.95 47.05 47.6 48.55 47.55 48.55 47.5 48.6 46.1 45.8 45.45 44.4 44.35 41.95 43.9 40.05 43.7 39.15 43.65 39 43.4 38.4 42.95 38.1
L 42.4 36.5 42.3 35.4
Q 41.85 32.7 43.75 30.2 45.95 27.35 42.55 24.45
M 43.75 43.5
Q 43.85 43.7 44 43.9
L 46.4 48.85
Q 46.55 49.25 46.55 49.45 46.55 49.8 47 50.9 47.15 51.2 47.2 51.45 46.7 50.65 46.5 50.4 45.4 48.75 45.15 47.3 45 46.5 44.9 46.1 44.7 45.5 44.15 45.15
L 43.75 43.5
M 39.4 27.3
Q 39.45 27.1 39.65 27.05 39.55 27.2 39.4 27.35
L 39.4 27.3
M 52.6 51.75
Q 52.55 51.6 52.55 51.55
L 52.65 51.65
Q 52.6 51.7 52.6 51.75
M 52.4 55.3
Q 52.4 54.6 51.9 54.35 52.45 53.8 52.65 53.2 52.75 54.2 52.9 55.95 53.15 58.35 53.7 59.85 53.75 59.9 53.75 60 53.6 60.15 53.6 60.35 53.4 60.35 53.25 60.35 53.15 60.35 53 60.35 52.9 60.1 52.75 59.8 52.4 59.3 52.2 59 52.2 58.15 52.1 57.5 52.1 57.4 52.1 57.3 52.2 56.7 52.3 56.4 52.4 55.65 52.4 55.3
M 49.3 50.45
L 49.25 50.5
Q 49.25 50.45 49.25 50.4
L 49.3 50.45
M 48.75 51.5
Q 48.85 51.85 49 52.3 48.95 52.35 48.95 52.4
L 48.75 51.5
M 52.35 68
Q 52.15 67.05 52 66.5 52.25 66.75 52.65 66.9 52.65 66.95 52.65 67 52.45 67.2 52.55 67.5 52.65 67.7 52.85 68.05 53 68.85 53.2 69.9 53.05 70.4 53.1 70.6 53.15 70.9 53.45 71.1 53.45 71.1484375 53.45 71.2 53.4515625 71.15 53.5 71.15
L 53.55 71.15
Q 53.45 71.25 53.4 71.25 53.3 71.35 53.25 71.5 53.25 71.65 53.15 71.75 53.15 71.5 53.05 71.4 53 71.4 52.9 70.65 52.8 70.35 52.55 70.25 52.5 70.2 52.55 70.15 52.65 69.25 52.35 68
M 51.75 65.65
Q 51.7984375 65.7015625 51.75 65.75
L 51.7 65.75
Q 51.7966796875 65.7017578125 51.75 65.65 Z"/>
</g>
</defs>

<g transform="matrix( 1, 0, 0, 1, 0,0) ">
<use xlink:href="#Layer1_0_FILL"/>
</g>
</svg>
