
<svg xmlns="http://www.w3.org/2000/svg" version="1.1" xmlns:xlink="http://www.w3.org/1999/xlink" preserveAspectRatio="none" x="0px" y="0px" width="100px" height="100px" viewBox="0 0 100 100">
<defs>
<g id="Layer1_0_FILL">
<path fill="#000000" stroke="none" d="
M 58 29.5
L 57.65 28.85 56.95 29.45 56.9 29.4 56.9 29.45
Q 56.67578125 29.662890625 56.5 29.95
L 55.9 29.8 55.75 29.25 54.65 29.25
Q 54.2505859375 29.362890625 53.95 29.55
L 53.7 29.8 53.45 29.6 52.8 28.9 52.6 29.25 52.15 27.9 51.3 28.45 51.3 28.5
Q 50.975 28.703515625 50.65 29.15
L 50.8 29.15 50.65 29.2 50.6 29.25 50.55 29.25
Q 50.575 29.225 50.6 29.2
L 50.65 29.2 50.5 29.2 50.4 29.05 50 28.55
Q 49.725 28.2763671875 49.5 28.15
L 49.05 27.9 48.55 29.2 48.35 28.8 47.4 29.55 47.35 29.5 47.05 29.3 46.5 29.05 45.6 29.05 45.4 29.1 45.15 29.8 44.75 29.95 44.7 29.65 44.35 29.75
Q 44.0751953125 29.4255859375 43.75 29.1
L 43.4 28.85 43.25 29.2 43.15 29.35
Q 42.974609375 29.2 42.8 29.1
L 42.5 28.85 42.35 29.15 42.05 29.6 42 29.7 42 29.75 41.95 29.8 41.95 29.85 41.8 30.15
Q 41.6990234375 30.3369140625 41.7 30.55
L 41.35 30.3 40.95 31
Q 40.8744140625 30.9126953125 40.8 30.9
L 40.2 30.7
Q 39.6890625 30.6400390625 39.05 30.75
L 38.75 30.8 38.8 31.1
Q 38.8236328125 31.3130859375 38.9 31.75 38.4626953125 31.6009765625 38 31.6
L 37.6 31.55 37.6 32.3
Q 37.48671875 32.324609375 37.4 32.35 37.21015625 32.3666015625 37 32.4 36.9490234375 32.3908203125 36.9 32.35
L 36.6 32.1 36.4 32.6
Q 36.3 32.4 36.15 32.35
L 35.85 32.15 35.45 32.95 35.4 33 35.45 33.05 35.35 33.35
Q 35.3423828125 33.38046875 35.3 33.4 35.1912109375 33.471484375 35.05 33.55
L 35 33.5 34.95 33.6
Q 34.8501953125 33.7076171875 34.75 33.8
L 34.5 34 34.1 33.9
Q 33.65 33.85 33.2 34
L 32.95 34 33 34.3
Q 33 34.5 33.15 34.9 32.8 34.75 32.35 34.75
L 32.05 34.75 32.05 35.5
Q 32 35.5 31.9 35.5 31.65 35.5 31.45 35.6 31.1 35.8 30.7 36.2
L 30.65 36.35
Q 30.5 36.35 30.4 36.45 30.1 36.6 29.85 36.85
L 29.45 37.35 29.15 37.95 29.1 38 29.05 38.3 29.3 38.5 29.2 38.55 28.95 38.85 28.95 38.9
Q 28.7 39 28.55 39.3
L 28.4 39.45 28.15 39.5 27.5 39.95
Q 27.2 40.25 27.05 40.6
L 26.55 41.7 27.25 42.05
Q 27.15 42.25 27.15 42.5 27.1 42.6 27.1 42.9
L 27.05 42.9 27.1 43.15
Q 26.7 43.35 26.25 43.85
L 26.05 44.1 26 44.2 26 44.3 25.4 45.35 26.25 45.75 26.15 45.95
Q 26.05 46.2 26.1 46.55 26.05 47.05 26.15 47.45
L 25.75 47.7 25.05 48.5 25 48.55 25 48.65 24.55 49.4 24.45 49.8 25.25 50.2
Q 25.15 50.35 25.15 50.45
L 25.05 51.25 25.2 52.25 25.25 52.4 25.25 52.65 25.35 52.9
Q 25.1 53.2 24.95 53.55
L 24.75 54.2 24.7 55.3 25.95 55.3 26 55.5
Q 26.05 55.85 26.2 56.2
L 26.85 56.9 27 57 26.6 56.6 26.55 56.5 27.2 57.1
Q 27.2 57.55 27.4 58
L 27.5 58.3 27.35 58.4
Q 27.1 58.65 27.05 58.95
L 26.85 59.5 26.8 60.05 26.85 60.35 28 60.35 28 60.75
Q 28 61.05 28.25 61.35
L 29.15 62.15 29.3 62.25 29.35 62.2 29.3 62.4 29.85 63 29.9 63 29.9 63.05 30.35 63.4
Q 30.6 63.55 30.8 63.6
L 30.9 63.9
Q 30.65 64.15 30.55 64.4
L 30.45 64.85 30.4 65.35 30.4 65.65 31.3 65.7
Q 31.7 65.55 33.2 65.3 32.9 65.45 33.15 66.4 33.25 66.7 33.1 67.2 34.05 67.25 34.45 66.55 35.14765625 66.76796875 35.5 66.65
L 35.55 66.65
Q 34.816796875 67.726953125 35.3 68.5 36.4609375 68.3271484375 37.4 68.05
L 37.55 69 37.85 68.95
Q 38.2126953125 68.84921875 38.55 68.65 38.575 68.7375 38.55 68.8
L 38.5 69.05 39.45 69.2 39.65 69.2 40.5 68.95 40.7 68.75 41.1 69.45 41.35 69.3 41.5 69.2
Q 41.4984375 69.5140625 41.65 69.8 41.79765625 70.2908203125 42.2 70.75
L 42.3 70.9 42.5 70.8
Q 42.662109375 70.650390625 42.85 70.5
L 43.25 71.15 43.45 71 44 70.5 44.25 70
Q 44.7376953125 70.210546875 45.2 70.2
L 45.35 70.65 45.4 70.75 45.55 70.7 46.05 70.75 46.65 70.7
Q 47.06328125 70.595703125 47.2 70.4 47.2748046875 70.3005859375 47.35 70.2
L 48.25 70.9 48.5 70.25 49.15 71.7 49.3 71.6
Q 49.575 71.5103515625 49.9 71.15
L 50.25 70.55 50.55 70.45 50.85 70.55
Q 51.125 70.98125 51.25 71.05 51.4751953125 71.315234375 51.85 71.55
L 52 71.65 52.1 71.45
Q 52.375 70.90859375 52.6 70.1 52.6251953125 70.214453125 52.7 70.35
L 52.65 70.2 52.95 70.7 53.8 69.85
Q 53.85078125 69.9900390625 54.05 70.15
L 54.55 70.4 55.65 70.35 55.65 70.3
Q 55.7375 70.0498046875 55.8 69.8
L 55.9 69.8 56.75 69.55 56.8 69.5 56.8 69.55
Q 57.11484375 70.1005859375 57.65 70.45
L 57.7 70.5 57.7 70.45
Q 57.949609375 70.1857421875 58.15 69.85 58.350390625 70.086328125 58.6 70.2
L 58.65 70.25 58.65 70.2
Q 58.7373046875 70.0748046875 58.8 69.9
L 59 69.5
Q 59.125 69.2875 59.2 69.05 59.2748046875 68.7115234375 59.3 68.3
L 59.75 68.7 59.9 68.4 59.95 68.4 59.9 68.35 60.15 67.95
Q 60.833203125 68.673046875 62.05 68.35 61.9078125 67.537109375 61.4 66.85
L 61.5 66.8
Q 61.9560546875 67.82578125 62.75 68.05 62.925 68.1 63.05 68.15
L 63.15 66.95
Q 63.9033203125 67.364453125 64.75 66.15
L 64.65 65.85
Q 64.67578125 65.7630859375 64.7 65.65
L 65 65.85
Q 65.2865234375 65.612890625 65.5 65.4
L 65.65 65.25 65.65 65.3 65.75 65.2 65.7 65.2 65.8 65.1 65.9 64.9 65.85 64.9
Q 65.925 64.875 65.95 64.8 65.975 64.786328125 65.95 64.7
L 65.95 64.5 65.9 64.3 65.85 64.25 66.3 64.25 66.15 64.3 66.05 64.3
Q 66.1623046875 64.3953125 66.25 64.3
L 66.3 64.35 66.35 64.35
Q 66.3943359375 64.4005859375 66.75 64.35
L 66.8 64.3 67 64.3 67.1 64.3 67.15 64.15 67.15 63.9
Q 67.1248046875 63.8521484375 67.05 63.9
L 67.05 63.8
Q 67.123828125 63.8572265625 67.1 63.7 67.1259765625 63.62890625 67.15 63.65
L 67.1 63.45 67 63.4 67 63.3 66.95 63.25 67 63.2 66.9 63.05 66.85 62.95
Q 67.056640625 63.1724609375 67.15 63.4 67.023046875 62.95390625 66.75 62.65 66.6875 62.52734375 66.6 62.45
L 66.6 62.4
Q 66.7375 62.471484375 66.85 62.35
L 67.3 62.15
Q 67.8470703125 61.7552734375 68.2 61.1
L 68.3 61 68.3 60.95 68.55 60.8 68.75 60.7 69 60.5 69.45 60 69.7 59.65 69.75 59.5 69.8 59.45 69.85 59.25 69.85 59 70.55 58.95 70.35 58.9 70.5 58.9 70.7 58.85 71 58.85 70.9 58.15
Q 71.0900390625 58.3326171875 70.9 57.95
L 70.9 58 70.65 57.45 70.7 57.5 70.6 57.15 70.4 56.85 70.4 56.9 70.3 56.8 70.25 56.65 70.05 56.55 70.1 56.45
Q 70.2701171875 55.9716796875 70.2 55.4
L 70.1 55.5 70.2 55.3
Q 70.225 55.35 70.2 55.4
L 70.7 55
Q 71.07890625 54.4978515625 71.1 54.4
L 71.25 53.9 71.2 53.4 71.2 53.35 71.1 53.25
Q 72.03046875 53.2494140625 72.65 53.25 72.6044921875 52.734375 72.25 52.1 71.6982421875 51.0783203125 70.55 50.6 70.461328125 50.4611328125 70.3 50.25 70.1873046875 50.0875 70.05 49.9
L 70 49.8
Q 70.61796875 50.4166015625 71.4 50.7 71.563671875 50.75 71.75 50.8
L 71.95 50.15 71.95 49.85
Q 71.9154296875 49.8517578125 71.9 49.9 71.9447265625 49.49609375 71.9 49.15 71.8986328125 48.9888671875 71.85 48.85
L 71.75 48.65
Q 71.6486328125 48.4138671875 71.5 48.2
L 71.45 48.15 71.95 48 71.9 48 72.4 47.75 72.45 47.7 72.35 47.75 72.4 47.7 72.4 47.65 72 46.95 71.6 46.4 71.05 46
Q 70.7048828125 45.718359375 70.5 45.65
L 70.5 45.7 70.45 45.65 70.5 45.65 70.5 45.6 70.45 45.6
Q 70.4953125 45.54765625 70.5 45.45 70.52421875 45.38125 70.5 45.3
L 70.55 45.1 70.5 44.6 70.45 44.5 70.45 44.35 70.4 44.3
Q 70.425 44.25 70.4 44.2 70.3982421875 44.1203125 70.35 44.05
L 70.3 43.9 70.25 43.85 70.05 43.55 70.25 43.8
Q 70.1759765625 43.6759765625 70.1 43.55
L 70.05 43.5
Q 70.608984375 43.337890625 71 43.15
L 71 43.1
Q 70.901171875 42.9646484375 70.85 42.9 70.6625 42.5900390625 70.45 42.35
L 70.3 42.1 69.95 41.7 69.75 41.6 69.65 41.5 69.55 41.45 69.6 41.45 69.7 41.5 69.6 41.4
Q 69.5625 41.4361328125 69.5 41.4
L 69.1 41.2 69.15 41.2 69.15 41.1 69 40 68.8 39.75 68.8 39.7 68.8 39.65 68.85 39.65 68.8 39.7 69 39.6 69.5 39.4 69.55 39.35 69.35 39 69.55 39.25 69.6 39.35 69.5 39.4 69.1 39.6 69 39.6 68.9 39.7 68.8 39.75 68.9 39.75 69.55 39.45 69.7 39.4 69 38.4 69 38.35 69 38.3
Q 68.56796875 37.85546875 68.35 37.7 67.99296875 37.4654296875 67.85 37.4
L 67.5 37.25 67.4 37.25 67.5 37.15 67.35 37.05 66.95 36.75
Q 66.589453125 36.455078125 66.3 36.4
L 66.1 36.35
Q 66.123046875 36.301953125 66 36.3
L 66.05 36.35 65.95 36.3 66 36.3 65.9 36.1 66.65 35.8 66 34.9 66 34.85 65.35 34.2 64.8 33.95 64.75 33.9 64.8 33.85 64.65 33.8 64.15 33.4 63.75 33.15 63.95 33.2 63.45 33.05
Q 63.26328125 33.0005859375 63.1 33
L 63.1 32.9 63.05 32.5 63.05 32.25 62.25 32.3 61.9 32.4 61.9 32.3 61.85 32.3 61.9 32.25 61.95 32.25 62 32.15 62 32.05 62.2 31.3 62.15 31.3 61.1 31.15 61.1 31.1 61.05 31.1 60.35 31.25
Q 60.2 31.3 60.05 31.35
L 60 31.35 59.6 30.75 59.4 30.9 59.4 30.8
Q 59.375 30.601953125 59.3 30.5
L 59.2 30.25 59.1 30.1 59.05 30 58.85 29.5 58.6 29.05 58 29.5
M 62 32
L 61.95 32.05 61.95 31.95 62.05 31.65 62 32
M 69.3 38.95
L 69.25 38.95 69 38.55 69.3 38.95 Z"/>
</g>
</defs>

<g transform="matrix( 1, 0, 0, 1, 0,0) ">
<use xlink:href="#Layer1_0_FILL"/>
</g>
</svg>
