
<svg xmlns="http://www.w3.org/2000/svg" version="1.1" xmlns:xlink="http://www.w3.org/1999/xlink" preserveAspectRatio="none" x="0px" y="0px" width="100px" height="100px" viewBox="0 0 100 100">
<defs>
<g id="Layer1_0_FILL">
<path fill="#000000" stroke="none" d="
M 23.45 64.95
Q 26.9 63.6 28.1 62.55 26.4 61.7 23.45 64.95
M 21.1 51.75
Q 23.6 50.55 24.05 50.3 25.75 49.35 26.4 48.1 24.3 48.25 21.1 51.75
M 26.5 37.15
Q 30.5 38.25 32.6 37.5 31.65 36.75 29.65 36.85 27.35 37.1 26.5 37.15
M 28.35 35.75
Q 26.6 35.75 26 35.75 28.8 37.25 30.4 36.6 29.9 35.8 28.35 35.75
M 67.9 29.75
Q 69.15 28.8 71.1 25.65 67.35 27.95 67.9 29.75
M 42.35 26.6
Q 41.9 28.55 42.45 29.6 43.55 27.7 43.2 23.55 43 24.4 42.35 26.6
M 41.5 25.1
Q 41.3 26.65 42 27.3 42.9 25.8 41.95 22.8 41.85 23.4 41.5 25.1
M 56.6 23.55
Q 56.95 23.15 58.55 20.9 54.55 23.45 54 25.45 55.35 25.05 56.6 23.55
M 52.9 69.45
Q 51.55 69.6 50.2 71.4 49.8 71.95 48.45 74.25 52.5 71.65 52.9 69.45
M 75.7 51.95
Q 73.2 52.8 72.55 53.1 70.5 54.15 70.1 55.4 72.4 55.4 75.7 51.95
M 54.5 21.45
Q 54.35 20.3666015625 54.35 19.55 54.25 20.1 53.75 22.25 53.6 23.65 53.85 24.5 53.7 24.75 53.55 25.1 53.5 24.05 53.1 22.8 52.45 20.55 52.15 19.5 51.8 24.25 53.25 25.8 53.1 26.25 52.9 26.65 52.6 24.95 51.4 22.25 51.55 24.7 51.65 25.2 51.75 25.9 51.95 26.45 52.2 27.05 52.7 27.4 52.55 27.65 52.5 28.1 52.3 27.35 51.95 26.45 51.2 24.65 50.95 23.95 50.65 27.75 52.2 29.05 52.15 29.45 52.05 29.9
L 51.95 29.8
Q 51.95 29.9 52 30.1 51.95 30.2 51.95 30.3 51.4 27.8 49.35 23.7 49.55 24.85 49.75 25.65
L 49.65 25.5
Q 49.75 31.1 51.45 32.7 51.4 32.8 51.45 33.05 51.3 32.85 51.25 32.7 51.25 33.2 51.25 33.65 50.55 30.85 47.8 26.2 48.6 29.8 48.85 30.45 49.5 32.2 50.4 33.15 50.5 33.6 50.55 34.1 50.5 33.95 50.45 33.75 50.5 34 50.5 34.3 50.1 33.7 49.75 33.05 48.1 30.55 47.9 30.1 48.35 33.05 49.45 34.65 49.65 35.1 49.7 35.5 49.1 34.65 48.4 33.55 48.45 33.3 48.5 33.05 48.45 33.2 48.4 33.45 47.55 32.15 46.65 30.8 46.8 30.25 47 29.75 46.7 30.15 46.5 30.5 46.2 30.15 46 29.75 46.15 30.3 46.35 30.75 45.6 32.05 45.25 33.6 45.15 34.1 45.15 34.5 45.05 34.2 44.95 33.8 45.35 31.9 45.35 28.55 44.6 30.7 44.35 32.2 44.25 32.15 44.25 32.05 44.85 30.05 44.55 26.75 44.5 27.15 44.3 27.6 44.3 27 44.35 26.4 44.05 27.15 43.25 29 42.9 29.95 42.85 30.65 42.35 29.6 42 28.75 42 28.55 41.8 28.45 41.7 28.2 41.65 27.95 41.2 24.8 39.6 21.6 39.8 24.75 40.4 26.4 39.15 24.85 38.5 24.15 39.8 28.25 41.7 28.7 41.8 29.15 41.9 29.65 40.9 28.8 38.3 27.45 41.25 31.25 42.3 30.9 42.45 31.4 42.7 32 41.45 30.95 41.05 30.75
L 37.8 28.65
Q 40.75 32.4 42.95 32.55 43.05 32.95 43.25 33.4
L 37.1 29.75
Q 38.55 31.35 40.1 32.65 42.2 34.1 43.5 33.95
L 43.5 34.05
Q 43.6 34.2 43.75 34.45 43.85 34.7 43.95 34.85 43.3 34.45 42.5 34.05 40.7 33.05 38.15 32.15
L 41.25 34.55
Q 41.9 34.95 42.5 35.2 42.45 35.3 42.45 35.35 41.65 34.95 40.85 34.75 41.7 35.5 42.45 36.1 42.5 36.5 42.45 36.95 42.05 36.9 41.6 36.8 42.1 37.1 42.5 37.35 42.49765625 37.98671875 42.45 38.65 42.4666015625 39.1439453125 42.4 39.4 42.37109375 39.3720703125 42.35 39.35
L 42.3 39.35
Q 42.3353515625 39.394921875 42.35 39.45 42.15 39.35 42.1 39.35 41.95546875 39.040234375 41.8 38.7
L 41.35 38.15
Q 41.4236328125 38.704296875 41.5 39.2 40.9 39.1 40.2 38.95 40.05 38.55 39.8 38 39.8 38.45 39.8 38.85 39.35 38.8 38.95 38.7 38.5 37.85 37.95 36.85 38 37.7 38.25 38.55 38.2 38.55 38.1 38.55 37.95 37.95 37.7 37.25
L 35.9 33.7
Q 36.3 36.4 37 38.35 37.25 39.2 37.5 39.95 37.35 39.8 37.15 39.65 36.9 39.45 36.75 39.35
L 36.65 39.3
Q 37.1 38.1 36 35.75 35.05 33.95 33.7 32.25
L 36.15 38.95
Q 35.75 38.7 35.4 38.55 35.65 36.3 32.5 32.75
L 33.95 36.3
Q 34.1 36.75 34.9 38.2 34.35 37.85 33.85 37.6 34.45 36.6 31.25 33 32.1 35.8 32.75 37 32.25 36.75 31.85 36.6 31.75 34.65 27.95 32.6 28.55 33.35 29.8 34.9 28.3 34.05 25.25 33.2 28.1 35.4 31.15 36.4 31.35 36.5 31.6 36.65 31.65 36.85 31.85 36.9 32.6 37.4 33.55 38.1 32.85 38 31.85 38.2 29.9 38.6 29.1 38.8 29.7 38.85 30.25 38.95 29.8 39.05 29.4 39.05 32.6 39.95 34.7 39.7 34.8 39.7 34.8 39.8 33.25 39.8 31.05 40.2 34.35 40.8 36.25 40.75 36.6 40.9 36.9 41.05 36.5 41 36 41 34.45 41.05 33 41.55 32.6 41.25 32.1 41 32.45 41.3 32.75 41.65 32.35 41.75 31.9 42 32.45 41.9 33 41.85 34.2 43 35.3 44.05 35.05 44.05 34.9 44.1 35.15 44.1 35.4 44.1 36.3 44.95 37.1 45.7 36.65 45.55 36.25 45.3 34.9 43.95 32.1 42.95 32.5 43.25 34.65 45.3 35.2 45.8 35.75 46.3 35.45 46.25 35.2 46.15 35.4 46.25 35.55 46.3 35.05 46.15 34.65 46 33.85 44.9 32.25 43.95 31.65 43.6 28.3 42.15 32.35 45.65 34.95 46.9 34.55 46.8 34.05 46.75 34.2 46.8 34.35 47 34.1 46.9 33.95 46.9 32.7 44.95 27.25 43.85
L 27.35 43.95
Q 26.6 43.6 25.55 43.25 29.209375 45.982421875 31.5 46.95 31.4427734375 46.93828125 31.35 47 31.15 46.9 31.05 46.9
L 31.15 47
Q 30.65 47 30.25 47 29.3 45.2 25.5 44.8 26.15 45.2 27.75 46.3 28.6 46.8 29.3 47.1 28.85 47.1 28.55 47.15 28.3 46.65 27.75 46.3 27.25 46 26.6 45.7 26.1 45.55 23.7 44.95 26.15 46.65 27.75 47.25 27.35 47.35 26.9 47.4 25.65 45.7 20.9 45.15 21.85 45.65 23.95 46.75 25.15 47.35 26.15 47.6 25.8 47.65 25.5 47.75 24.7 47.35 23.3 47.25 21.1 47.35 20.55 47.35 21.35 47.5 22.5 47.85 22.1 47.75 21.6 47.75 19.8 47.65 18.35 48 19.4 48.25 21.5 48.7 21.75 48.7 21.95 48.75 20.65 49.1 18.7 50.4 20.3 50.2 21.5 49.85 20.4 50.7 19.15 52.25 22.95 50.4 23.95 48.75 23.7 48.75 23.55 48.85 23.55 48.75 23.6 48.7 24.15 48.6 24.55 48.45 24.45 48.35 24.4 48.35 24.7 48.25 25 48.2 25.4 48.2 25.8 48.1 25.8 48 25.75 48 26.4 47.85 27.1 47.75 28 47.6 28.95 47.6 27.95 47.9 26.65 49.1 25.75 49.85 24.2 51.25 28.45 49.95 29.3 47.5 29.4 47.5 29.55 47.5 30.15 47.5 31 47.5 30.25 47.85 29.45 48.45 28.6 49.1 27.2 50.4 29.3 49.8 30.5 48.95 30.55 48.95 30.65 49 30.05 49.45 29.65 49.95 30.3 49.6 31.5 49.1 31.6 49.1 31.65 49.2 30.65 49.8 29.65 50.7 30.15 50.55 31.05 50.2 30.5 50.65 29.8 51.4 32.1 50.4 32.85 49.55 33 49.45 33.2 49.35 33.7 49.2 34.1 48.95
L 34.2 48.95
Q 34.35 48.75 34.65 48.7 34.7 48.7 34.9 48.7 34.95 48.7 35.05 48.7
L 35.05 48.6
Q 35.2 48.6 35.45 48.6 34.1 49.3 32.35 50.65 33.25 50.4 34.1 50.1 33.7 50.45 33.1 50.9 34.95 50.4 35.9 49.45 36.05 49.45 36.25 49.55 35.65 49.85 35.05 50.4 35.45 50.3 35.8 50.2 35.45 50.55 35.15 50.9 36.4 50.4 37.4 49.85 37.5 49.95 37.6 49.95 37.1 50.3 36.6 50.7 37.15 50.55 38.2 50.2 38.25 50.2 38.35 50.2 38 50.45 37.6 50.8 38.25 50.65 38.85 50.45
L 38.95 50.45
Q 39.45 50.65 40.15 50.95 39.90390625 50.95 39.7 50.95 39.8046875 50.953125 39.95 51.05 39.55 51.15 39.1 51.3 39.9 51.4 41.15 51.5 41.3 51.5 41.55 51.55 41.9 51.75 42.25 51.9 42.15 51.9 42.1 52 40.8 51.5 38.85 51.4 38.35 51.25 37.85 51.15 36.05 50.8 34.35 51.05 34.7 51.15 37.7 52.05 38 52.15 38.45 52.25 38.1 52.25 37.75 52.35 35.3 51.55 31.35 51.65 32.7 52 35.4 52.85 36.6 53.1 37.6 53.25 37 53.25 36 53.45 34.8 53.1 33.25 53.1 31 53.1 28.95 53.75 30.15 53.7 33.2 54.1 35.612109375 54.3365234375 37.05 54.2 37.0361328125 54.2318359375 37 54.25 35.55 54.6 34.8 54.8 33.6 54.35 32 54.45 31.05 54.55 27.95 55.2 32.7 55.7 35.15 55.55 34.95 55.65 34.9 55.7 34.3 55.9 33.8 56.2 33.95 56.2 34.2 56.2 34.05 56.3 33.85 56.45 32.6 55.9 30.4 56.3 27.6 57 26.5 57.15 29.55 57.65 33.25 57 32.6 57.5 32 58 30.75 57.65 28.85 58 26.85 58.4 25.5 59.35 26.35 59.1 29.05 59 30.5 58.95 31.4 58.6 30.9 59.1 30.5 59.7 29.3 59.2 27.45 59.7 25.25 60.6 24.4 60.9 27.95 60.9 30.15 60.05 29.8 60.45 29.45 60.9 27.45 60.05 24.05 62.75 25 62.5 26.9 62.05 28.2 61.7 29.1 61.4 28.35 62.25 27.85 63.25 25.65 63.75 24.05 66.45 25.4 65.6 26.25 64.95 25.4 66.45 25 69.15 26.1 67.4 26.65 66.4 27.3990234375 65.1828125 27.7 64.2 27.7 64.284375 27.7 64.35 27.5 65.7 27.85 67.3 29.05 63.85 29.05 62.05 28.95 62.05 28.85 62.15 29.1 61.8 29.45 61.55 29.2 63.25 30.25 66.9 30.4 62 30.55 60.55 30.65 60.35 30.75 60.35 30.15 62.3 31.25 66.4 31.6 62 31.6 59.5 31.9 59.2 32.35 58.85 31.85 59.85 32 61.4 32.1 62.25 32.85 65.2 32.95 64.35 32.95 60.6 33.25 60.35 33.6 60.2 33.6 60.35 33.7 60.95 33.45 61.55 33.2 62.5 33.55 62.05 33.8 61.7 33.85 62.65 34.1 64.1 34.35 62.05 34.55 60.55 34.8 60.05 34.95 59.7 34.95 59.8 35.05 59.95 34.95 60.55 35.15 61.4 35.15 61.3 35.2 61.2 35.3 61.9 35.55 62.65 35.8 60.3 36.05 58.5 36.15 58.4 36.25 58.4 36.25 59.45 36.65 60.95 36.75 59.35 36.85 58.35 36.9 58.25 37.1 58.25 37.1 59.2 37.25 60.45 36.9 60.6 36.65 60.95 36.3 61.2 36.05 61.55 36.5603515625 61.3099609375 37.85 60.85 37.7474609375 61.2556640625 37.65 61.7 36.362890625 62.406640625 35.4 63.35 35.99375 63.1056640625 37.45 62.8 37.3849609375 63.18828125 37.3 63.6 36.2552734375 64.5220703125 35.75 65.6 36.65 64.85 39.05 63.85 39.9 63.5 40.65 63.15
L 40.55 63.15
Q 40.9 63.1 41.75 63 41.65 63.35 41.55 63.65 41.25 63.95 41.05 64.35 38.5 64.6 35.65 67.5 37.35 66.95 38.5 66.45 37.5 67.05 36.5 68.25 37.25 68.05 39.1 67.55 40.45 67.15 41.05 66.4 41 67.05 40.9 67.75 39.9 67.3 38.45 68.15 37.25 68.75 36.3 69.75 37.1 69.6 38.95 69.15 39.3 69.1 39.55 69 39.05 69.25 38.45 69.85 37.35 70.95 36.65 72.2 38.5 71.2 39.1 70.8 40.15 70.1 40.8 69.25 40.8 69.55625 40.8 69.9 40.8099609375 69.4599609375 40.9 69.1
L 41 69
Q 41.05 69.5 41.4 70.3 41.25 70 41 69.95
L 41 70
Q 40.9 70 40.8 70 39.05 70 38.25 73.4 39.1 72.75 39.7 72.2 39.6 72.65 39.55 73.15 39.35 75 39.9 76.35 39.9 76.1 40.7 73.4 41 72.5 41.05 71.8 41.05 71.95 41.15 72.15 41.55 72.8 42.25 74.1 42.65 73 42.35 71.8 42.25 71.65 42.25 71.45 42.6 71.95 43.1 72.65 43.25 71.3 42.75 70.2 43.45 70.95 44.35 72.2 44.2 70 43.45 68.6 44.35 69.6 45.95 71.05 44.8 67.9 43.2 66.2 43.25 65.85 43.35 65.6 43.35 65.55 43.45 65.55 43.6 65.85 43.75 66.15 44.8 67.55 46.8 70.35 46.25 67.9 45.15 65.8 44.95 65.45 44.8 65.2 45.7 66.55 47.5 68.85 47.15 69.5 47 70.2 47.35 69.7 47.75 69.1 47.75 69.15 47.9 69.35 47.4 70 47 70.8 50.1 68.5 50.1 68.4 50.65 68 51.05 67.65 51.15 67.8 51.2 68.15 50.45 68.6 49.8 69.35 48.35 70.85 47.85 72.65 48.15 72.2 50.7 70.3 52.15 69.1 52.85 68.05 52.85 68.75 52.9 69.45 53 70.35 53.1 71.2 51.9 71.55 50.8 73.05 50.4 73.75 49.3 75.85 52.75 73.6 53.1 71.55 53.1 71.7 53.1 71.95 53.1 72.05 53.1 72.15 53.1 72.2 53.1 72.4 53.1 72.8 53.1 73.3 52.65 73.65 52.6 74.25 51.65 75.1 51.4 75.5 50.65 76.55 50.45 77.8 51.75 76.7 52.3 76.05 52.5 75.85 52.65 75.7 52.75 76.45 53.35 78 53.7 76.95 53.85 76.05 54.2 76.55 54.85 77.3 54.95 75.85 54.6 75 55.2 75.6 55.95 76.3 54.95 72.65 53.25 72.05 53.25 71.45 53.25 70.95 53.85 72.15 56.3 74.35 55.2 70.85 53.25 70.55 53.25 69.7 53.35 69 53.7 70.1 55.05 71.45 55.85078125 72.156640625 57.35 73.35 57.2208984375 73.356640625 57.45 73.4 57.47265625 73.3837890625 57.45 73.35 56.985546875 72.338671875 56.45 71.55
L 56.5 71.55
Q 56.2279296875 71.2326171875 55.9 70.8 54.7134765625 69.2353515625 53.35 68.85 53.25 68.25 53.25 67.65 54.195703125 68.628125 58.3 71.75 55.3498046875 67.2375 53.25 67.15 53.25 66.7 53.25 66.4 53.35 66.45 53.4 66.55 53.35 66.2 53.25 65.95 53.15 65.8 53.25 65.6 53.75 66.65 55.05 67.65 55.9 68.35 57.55 69.7 56.9 67.9 55.9 66.65 55.65 66.4 55.35 66.15 57.0958984375 67.2041015625 57.8 67.3
L 57.8 67.25
Q 56.246484375 64.9837890625 54.2 64.2 53.6 63.1 52.9 62.5
L 52.9 62.4
Q 53 62.4 53.1 62.5 53.7 63.25 54.95 63.95 57.25 65.2 57.65 65.6 57.25 64.7 56.4 63.95 56.4 63.75 56.45 63.65
L 57.4 64.5
Q 57 63.85 56.65 63.35 56.8 62.75 57.15 62.05 57.15 62.3 57.15 62.55 57.65 60.95 57.85 60.1 57.85 59.95 57.9 59.85 58.108984375 59.3068359375 58.3 58.65
L 58.4 58.75
Q 58.659375 58.7326171875 58.9 58.7 58.665625 58.807421875 58.6 58.8 58.4830078125 59.00078125 58.4 59.25 57.2423828125 60.7779296875 57.8 63.5
L 58 64.6 58.95 62.6
Q 59.35 61.1 59.35 60.2 59.35 60.1 59.45 60.1 59.6 60.45 59.75 60.8 59.7 61.05 59.7 61.2 59.25 61.8 59.2 62.25 59.1455078125 62.421484375 59.1 62.6
L 59.1 67.3 60.3 64.2
Q 60.6 63.15 60.6 62.4 60.8 62.65 60.85 62.4 60.85 62.8 60.8 62.8 60.8 63 60.8 63.15 60.55 63.65 60.6 64.95 60.7 66.4 61.15 66.45 61.2 65.85 61.85 64.35 61.7 66.95 61.9 68.05 62.55 65.6 62.9 64.25
L 62.95 64.25 62.95 64.3
Q 62.2578125 66.6822265625 63.1 70.2 63.15 69 63.65 66.2 63.6044921875 66.494140625 63.6 66.7 63.681640625 67.2388671875 63.75 67.4 63.805859375 67.562890625 63.95 68.45 64.088671875 69.3982421875 64.15 70 64.1734375 70.1876953125 64.15 70.3 64.5333984375 68.996875 64.75 67.85 64.83046875 67.885546875 64.85 67.9 64.5443359375 69.3044921875 64.85 71.4 64.9919921875 70.9388671875 65.1 70.5 65.0373046875 71.7046875 65.3 73.15 66 71.15 66.25 70.1 66.4 69.6 66.75 69.3 66.45 70.75 67.8 73.6 67.8 71.8109375 67.65 70.6 68.048046875 71.0740234375 68.8 71.45 69.2 71.65 70.75 72.25 69.8861328125 71.301953125 69.1 70.75 69.9935546875 70.9533203125 71.1 71.15 68.65 69.4 66.85 69.15 66.85 69.1 66.9 69.1
L 67.5 69.05 67.2 69.05
Q 67.55 69 67.95 68.95 69 68.9 71.1 68.65 69.0046875 67.846875 67.3 67.8 68.291796875 67.69140625 69.9 67.5 67.6619140625 66.7701171875 66.05 66.95 66.0845703125 66.8759765625 66.1 66.8 67.49453125 66.777734375 69.2 66.6 67.8896484375 66.0361328125 67.35 65.9 66.8177734375 65.76640625 66.3 65.75 65.826171875 65.7326171875 65.8 65.75 65.7244140625 65.760546875 65.65 65.75 65.0478515625 65.6697265625 64.05 65.4 64.4900390625 65.392578125 65 65.35 65.20078125 65.35703125 66.05 65.4
L 66.05 65.4
Q 68.076953125 65.4796875 69 65.6 65.70390625 64.12421875 63.2 64.4
L 63.15 64.3 63.2 64.3
Q 64.6 64.2 67.1 64 66.05 63.6 63.85 63 64.596875 62.75625 65.7 62.95 65.75 62.5 64.3 62.15 63 61.9 62.5 62 62.35 62 62.15 61.95 62.15 62 62.25 62.1 62.015625 61.9125 61.45 62 62.58359375 61.7984375 63.6 61.75 64.3 61.6 65.7 61.4 65.5 61.35 66.9 61.1 64.1 60.6 64.4 60.55 63.1 60.15 61.9 60.3 61.45 60.25 60.75 60.6 60.6 60.55 60.35 60.6 60.1 60.35 59.75 60.15 59.8 60.05 59.9 60.05 61.2 60.3 64.45 59.5 64.15 59.35 62.45 58.6 62.1974609375 58.4892578125 61.95 58.4 62.2634765625 58.3796875 62.6 58.35 62.35 58.3 62.1 58.25 62.85 58.05 63.5 58 63.85 58.45 64.45 58.95
L 63.75 57.85
Q 63.9 57.8 64.1 57.85 64.65 58.85 65.5 59.35 65.15 58.95 64.35 56.4 63.9 55.05 63.3 54.35 63.2 54.2 63.2 54.1
L 63.3 54.15
Q 63.8 54.95 64.75 55.75 65.2 58.2 67.75 60.4 67.55 60.1 66.45 57.2 66.65 57.55 66.8 57.85 67.9 59.1 69.5 60.05 68.5 58.15 68 57.2 67.2 55.75 66.3 55.05 66.5 55 66.65 55.1 66.9 55.25 67.2 55.4 67.15 55.3 67.1 55.2 67.35 55.25 67.8 55.35 67.45 57.7 71.5 60.95 69.55 57.1 68.3 55.45 68.9 55.55 69.5 55.75 69.65 58.1 73.25 60.75 72.3 58.85 71.75 57.9 70.6 56.35 69.65 55.8 70.3 55.8 71.15 55.95 71.1 57.9 74.35 59.65 72.65 56.85 71.55 56.05 72.05 56.15 72.65 56.25 72.9 58 76.3 59.65 75.75 58.8 75.3 58.1 76.05 58.6 77.5 58.75 76.9 58 76.45 57.55 77.35 57.6 78.5 57.4 77.05 56.55 76.3 56.3 76.5 56.2 76.75 56 77.5 55.6 78.8 54.55 77.55 54.5 76.35 55.05 75.95 55.25 74.9 56 74.3 55.95 73.9 56.3 73.4 56.2 73 56.15 72.85 56.1 72.8 56.1 72.7 56.1 72.6 56.05 72.365625 56.003125 72.2 56 74.26328125 55.986328125 77.1 53.05 74.85 53.75 74.05 54 72.4 54.8 71.85 55.95 71 55.65 70.1 55.4 69.5 55.25 68.8 55.1 69.95 54.6 71.35 53.4 73.75 51.25 74.2 51.05 72.35 51.2 70.65 52.35 69.75 52.85 69.2 53.5 68.85 53.4 68.7 53.3 69.15 52.95 69.65 52.45 69.75 52.5 72.55 49.85 71.7 50.1 71 50.5 70.8 50.3 70.75 50.3 71.4 50 71.95 49.75 71.2 49.75 70.55 50 68.6322265625 47.8853515625 67.5 46.75 67.6828125 46.9234375 68 47.15 69.85 48.6 72.15 49.55 69.75 47.1 68.6 45.8 68.3 45.6 68.05 45.4 68.05 45.3 68.1 45.3 68.4 45.25 68.75 45.25 70.1 47.2 73 48.85 71.85 47.05 71.05 45.95 72.25 46.95 74.45 47.5 73.35 46.4 72.75 45.6 73.75 46.25 75.05 46.35 74.5 45.75 74.05 45.35 74.25 45.35 74.4 45.5 75.5 46 76.65 45.8 75.5 44.85 74.95 44.35 74.820703125 44.220703125 74.7 44.2 75.330078125 44.246875 76.25 44.15 79.05 43.85 79.3 43.85 78.1 43.1 76.2 43 75.7 42.95 75.3 42.95 75.9 42.45 76.7 41.75 73.2 41.9 72.9 43.6 72.85 43.7 72.85 43.8
L 72.8 43.8
Q 72.8 44.05 73.05 44.25 72.35 43.75 71.9 43.65
L 72 43.55
Q 72.2494140625 43.514453125 72.55 43.55 72.35546875 43.5123046875 72.2 43.45 73.1 43 74 42.1 74.5 41.6 75.85 39.95 74.45 40.4 73.15 41.3 72.5 41.75 72.15 42.25 72.3 42 72.4 41.65 73.15 39.9 73.45 39.15 72.35 39.9 71.5 40.95 70.4 42.2 70.65 43.3 69.95 43.25 69.35 43.2 70.15 42.75 70.8 41.5 71.65 39.75 71.95 39.1 70.6 39.8 69.85 40.7 70.5 39.65 71.4 38.1 68 40.35 67.3 42.85 66.85 42.95 66.5 43.2 66.25 43.25 65.85 43.3 66.076171875 42.53125 66.2 42.15 66.7091796875 41.4857421875 67.15 40.8 68.6 38.6 69.5 37.85 67.75 38.3 66.2 40.05 66.05 40.2 65.95 40.35 66.85 37.9 67.35 37.1 64.5 39.05 63 43.35 62.9 43.4 62.85 43.5 62.7 43.45 62.55 43.55 62.25 43.55 62 43.6 62 43.5 62.1 43.35 63 41.85 63.65 41.35 63.35 41.4 63.2 41.55 63.3 41.2 63.45 40.9 64.9 38.2 65.45 37.4 65.05 37.6 64.75 37.9 64.35 38.1 64.2 38.35 62.95 38 62 37.8 62.05 37.65 62.15 37.65 63.15 37.7 64.75 37.9 63.35 37.25 62.3 37.05 62.35 36.95 62.45 36.85 64.3 36.95 66.65 37.1 65.95 36.75 65.25 36.5 65.35 36.45 65.45 36.5 64.7 36.15 64.1 36.1 63.95 36 63.85 36 64.25 35.9 64.8 35.75 66.25 35.8 68.3 35.95 66.95 35.45 66 35.25 66.4 35.05 66.9 34.8 65.95 34.85 65.3 35 64.75 34.8 64.6 34.75 64.8 34.45 65.05 34.2 68.75 34.9 69.65 34.95 66.9 33.65 66.05 33.4 64.55 32.95 63.5 33.25 63.9 32.9 64.25 32.65 66.7 33.1 71.15 33.55 67.3 31.75 65.25 32 65.3 31.9 65.5 31.85 66.95 31.95 71.75 32.7 68.4 30.95 66.65 30.9 66.95 30.6 67.35 30.4 67.25 30.5 67.25 30.6 69 30.95 72.6 30.4 71.1 29.75 69.75 29.75 69.7 29.7 69.65 29.7 70.65 29.6 71.95 29.05 73 28.7 75 27.95 72.25 27.8 70.6 28.4 71.4 27.65 72.5 26.5 69.5 27.55 68.65 29.65 67.55 29.95 66.55 30.55 67.05 29.7 67.65 28.5 68.45 26.75 68.85 25.85 65.6 28.7 66 30.8 65.55 31.05 65.1 31.35 66.3 29.35 66.95 25.85 66.5 26.6 65.25 28.65 64.4 30.35 64.65 31.65 64 31.9 63.4 32.25 63.9 31.5 64.25 30.05 64.85 27.4 65.25 26.6 64.05 27.8 63.25 29.65 62.55 31.5 62.7 32.75 62.15 33.25 61.5 33.85 62.8 30.3 62.9 27.2 62.55 28.3 61.35 30.9 60.55 33 60.85 34.35 60.65 34.45 60.55 34.6 60.6 34.4 60.6 34.25 60.2 34.65 59.9 35.2 59.85 35.25 59.7 35.4 60.3 33.05 60.7 28.3 59.5 31.2 59.25 32.1 58.85 33.7 59.05 34.95 58.75 35.65 58.15 37
L 58.1 37
Q 58.5037109375 35.589453125 58.65 33.25 58.85 30.2 59.1 29 58.1 30.9 57.65 33.1 57.4 34.6 57.5 35.9 57.15 36.8 57 37.4 57.05 36.4 57 35.15 56.65 32.35 56.6 30.95 55.8 34.85 56.1 37.4 55.95 37.7 55.85 38.05 55.85 37.6 55.8 37.3 55.5 34.15 55.45 33.8 54.9 35.45 54.9 37.25 54.95 37.8 55 38.3 54.75 40.2 54.95 41.6 54.85 41.65 54.8 41.75 54.75 41.35 54.65 41 54.65 40.7 54.65 40.55 54.8 39.3 54.85 38.55 54.6 38.95 54.45 39.3 54.371484375 39.182421875 54.35 39.1 54.3427734375 39.2361328125 54.3 39.45 54.15 38.75 54 38.25
L 54.05 38.15
Q 54.35 37.55 54.6 36.95 54.2 37.3 53.9 37.6 53.9 37.5 53.9 37.45 54.45 36.45 54.7 36 54.2 36.35 53.75 36.8 53.8 36.7 53.7 36.55 54.45 35.7 55.15 34.55 54.75 34.8 54.35 35.1 54.5 34.75 54.7 34.35 54.05 34.85 53.6 35.4 53.55 35.2 53.6 35.05 54.7 34.25 55.55 32.55 55 33.1 54.55 33.35 55 32.6 55.45 31.75 53.75 33.2 52.85 34.45 52.9 34.2 52.95 34.05
L 53.05 34.05
Q 53.05 33.95 53.05 33.9 53.1 33.7 53.1 33.65 53.2 33.35 53.4 33.25
L 53.4 33.15
Q 53.75 32.85 53.95 32.4 54.1 32.2 54.25 32.05 55.25 31.45 56.65 29.4 55.75 29.95 55.2 30.4 55.75 29.6 55.95 29.15 54.9 29.95 54.1 30.8 54 30.75 54.05 30.65 54.75 29.6 55.2 29 54.65 29.3 54.1 29.8 54.05 29.7 54.05 29.65 55.15 28.6 56.1 26.65 54.55 27.8 53.8 28.5 53.05 29.2 52.6 29.9 52.75 29.05 52.85 28.45 52.85 28.3 52.9 28.2 55.45 27.8 57.5 23.9 55.85 25.1 54.9 25.9 53.55 26.95 53.05 27.85 53.25 26.95 53.55 26.1 53.75 25.4 54.05 24.8 54.05 24.85 54.15 24.85 54.3 24.45 54.4 24.1 54.5 23.85 54.65 23.55 54.65 23.6 54.7 23.7 54.95 23.35 55.15 22.8 55.2 22.75 55.25 22.8 55.15 22.9 55.1 23.15 56.9 22.45 59.4 19.1 57.65 20.05 56.6 20.95 57.2 19.85 57.7 18.3 56 20 55.5 21.2 55.45 21 55.5 20.75 55.45 18.6 55.4 17.55 54.8 18.85 54.55 20.7 54.4625 21.1375 54.5 21.45
M 51.25 30.1
Q 51.45 30.5 51.8 30.75 51.75 31.1 51.65 31.5 51.6005859375 31.698046875 51.6 31.85 51.5984375 31.7484375 51.5 31.65 51.4 30.9 51.25 30.1
M 53.55 30.3
L 53.55 30.2
Q 53.55 30.1 53.65 30.1 53.553125 30.196875 53.55 30.3
M 53.35 30.35
L 53.35 30.4
Q 53.05 30.6 52.8 30.8 52.6 31.05 52.4 31.3 52.45 31.2 52.35 31.1 52.4 30.95 52.4 30.85 52.85 30.65 53.35 30.35
M 50.75 33.5
Q 51 33.7 51.3 33.85
L 51.3 33.9
Q 51.25 34.15 51.3 34.5 51 34.05 50.75 33.5
M 52.25 32.95
L 52.35 33.05
Q 52.25 33.05 52.2 33.15 52.1 33.1 52.15 33
L 52.25 32.95
M 52.45 34.85
Q 52.35 34.95 52.35 35.05 52.3 35.15 52.3 35.2 52.15 34.95 52.1 34.75 52.1 34.65 52.2 34.65 52.3 34.7 52.45 34.85
M 51.8 35.95
Q 51.75 35.8 51.65 35.65 51.7 35.45 51.7 35.4 51.75 35.6 51.9 35.7 51.85 35.8 51.8 35.95
M 50.75 35.85
Q 50.8 36.5 51.1 37.05 51.05 37.15 51.05 37.3 50.5 36.3 49.8 35.25 50.25 35.6 50.75 35.85
M 51.7 36.8
Q 51.8 36.95 51.85 37.05 51.8 37.3 51.75 37.55 51.7 37.3 51.6 37 51.65 36.9 51.7 36.8
M 52.25 36.9
Q 52.3 36.6 52.35 36.3 52.8 35.9 53.4 35.25 53.4 35.15 53.45 35.15 53.45 35.3 53.5 35.55 52.7 36.2 52.3 36.8 52.3 36.9 52.25 36.9
M 59.2 35.85
Q 59.1 35.9 59 36.05 59.05 35.7 59.1 35.35 59.15 35.6 59.2 35.85
M 58.9 37.05
Q 58.95 36.95 59.2 36.85 59.05 37.1 59.1 37.4 58.85 37.35 58.7 37.5 58.75 37.25 58.75 37.2 58.8 37.1 58.9 37.05
M 60 36.65
Q 60.15 36.7 60.35 36.7 60.25 37.15 60.4 37.4 60.05 37.35 59.85 37.4 59.8984375 37.2544921875 59.9 37.2 59.896875 37.25 59.8 37.25 59.95 37 60 36.65
M 60.55 35.85
Q 60.4 35.85 60.25 35.95 60.45 35.6 60.75 35.4 60.6 35.6 60.55 35.85
M 43.5 31.9
Q 43.4 31.65 43.3 31.5 43.35 31.3 43.55 31.2 43.45 31.5 43.5 31.9
M 44.1 32.65
Q 44.1 32.9 44.15 33.4 44.05 33.1 43.95 32.9 43.95 32.75 44.1 32.65
M 42.75 35.4
L 42.7 35.35
Q 43.1 35.4 43.45 35.55 43.55 35.75 43.75 35.95 43.2 35.7 42.75 35.4
M 44.45 35.95
Q 44.05 35.75 43.8 35.6 44.05 35.65 44.3 35.65 44.4 35.7 44.45 35.95
M 43.05 37.05
Q 43 36.7 42.95 36.4 43.4 36.75 43.75 37 44.1 37.3 44.5 37.55 43.85 37.3 43.25 37.15
L 43.05 37.05
M 46.55 31.35
Q 47.1 32.85 47.5 33.8 47.3 34.15 47.05 34.45 46.6 35.2 46.2 36.25 46.1 36.65 46.1 37 46.05 36.9 45.95 36.85 46 36.65 46 36.5 46.6 34.85 46.3 32.65 46.35 31.85 46.55 31.35
M 47.65 34.1
Q 47.65 34.3 47.75 34.4 47.75 34.5 47.85 34.5 47.65 35 47.45 35.4
L 47.4 35.4
Q 47.45 34.65 47.65 34.1
M 47.9 36.95
Q 47.9 36.85 47.95 36.75 48.15 37.05 48.35 37.35 48.2 37.55 48.15 37.9 48 37.8 47.85 37.7 47.85 37.25 47.9 36.95
M 49.35 37.1
Q 49.3 36.85 49.35 36.6 49.75 37 50.2 37.35 50.55 38 50.95 38.55 50.95 38.65 51 39 50.8 38.8 50.7 38.6
L 49.45 36.75
Q 49.45 37.15 49.5 37.4 49.4 37.2 49.35 37.1
M 48.8 36.75
Q 48.45 36.3 48.1 35.9 48.05 35.45 48.15 35.05 48.6 35.85 49.15 36.35 49 36.5 48.95 36.75
L 48.9 36.75
Q 48.9484375 36.653125 48.95 36.55 48.9453125 36.653125 48.8 36.75
M 50.1 39.2
Q 50.2 39.25 50.4 39.3 50.55 39.8 50.9 40.15 50.9 40.25 50.9 40.4 50.55 39.9 50.1 39.25 50.05 39.2 50.1 39.2
M 48.45 38.1
Q 48.5 37.85 48.55 37.65
L 48.65 37.75
Q 48.5 37.9 48.45 38.1
M 47.8 38.25
Q 47.9 38.35 48 38.45 47.85 38.7 47.75 39.05 47.7 39.9 47.85 40.55 47.7 40.3 47.65 40.25 47.65 39.55 47.8 38.25
M 46 39.3
Q 46.2 39.35 46.4 39.4 46.45 39.45 46.65 39.6 46.6 39.7 46.6 39.75 46.25 39.65 46.05 39.5 46 39.35 45.9 39.35
L 45.9 39.3 46 39.3
M 47.75 41.65
Q 47.80625 41.7 47.9 41.7
L 47.95 41.8
Q 47.808984375 41.7060546875 47.75 41.65
M 47.4 40.95
Q 47.3 40.85 47.05 40.7 47.2 40.75 47.3 40.7 47.35 40.75 47.4 40.95
M 47.25 42.3
Q 47.65 42.55 48 42.6 47.95 42.7 48.05 42.8 47.6 42.75 47.25 42.65 47.25 42.45 47.25 42.3
M 50.3 41.4
Q 50.2 41.15 50.15 41 50.25 41 50.4 41 50.3 41.15 50.3 41.4
M 48.45 41.55
L 48.35 41.45 48.35 41.35
Q 48.3529296875 41.448046875 48.45 41.55
M 50.5 42.45
Q 50.5 41.6 50.6 41.05
L 50.65 41.05
Q 50.75 41.1 50.9 41.15 50.9 41.6 50.95 42 50.75 42.35 50.7 42.7 50.6 42.55 50.5 42.45
M 43.2 37.8
Q 44.1 38.45 44.15 38.45 44.5 38.6 44.7 38.85 45.05 38.95 45.35 39.1
L 45.35 39.2
Q 44.35 38.75 43.3 38.35 43.25 38.1 43.2 37.8
M 44.25 39.15
Q 43.8 38.95 43.4 38.9 43.35 38.65 43.25 38.45 43.7 38.8 44.25 39.15
M 43.6 39.9
L 43.55 39.8
Q 43.6361328125 39.8861328125 43.65 40 43.651171875 39.9384765625 43.6 39.9
M 40.55 39.7
Q 40.8 39.8 41.05 39.95 41.25 41.05 41.5 42.1
L 41.4 42.1
Q 41.3 41.75 41.25 41.4 41.05 41.15 41 40.8 41 40.75 40.55 39.7
M 41.15 39.95
Q 41.3 40.05 41.55 40.15 41.55 40.55 41.65 41 41.4 40.45 41.15 39.95
M 41.5 43.2
Q 41.5 43 41.5 42.75
L 41.5 42.65 41.55 42.65
Q 41.55 42.75 41.65 42.85 41.75 43.1 41.8 43.45 41.75 43.45 41.65 43.45 41.55 43.25 41.5 43.2
M 44.95 40.4
Q 45.015625 40.503125 45.25 40.55
L 45.25 40.65
Q 45.0154296875 40.5091796875 44.95 40.4
M 43.6 45.15
L 43.5 45.05
Q 43.5 44.9515625 43.5 44.9 43.5013671875 44.9529296875 43.6 45.15
M 43.2 45.45
L 43.25 45.55
Q 43.1982421875 45.4529296875 43.1 45.45
L 43.2 45.45
M 42.6 44.3
Q 42.65 44.2 42.65 44.05 42.75 44.3 42.85 44.45 42.65 44.35 42.6 44.3
M 42.1 44.55
Q 42.15 44.6 42.35 44.8 41.75 44.55 40.9 44.45 40.55 44.45 40.3 44.55 40.2 44.45 40.15 44.35 41.4 44.45 42.1 44.55
M 42.35 47.65
L 42.35 47.6
Q 42.95 47.6 43.75 47.75 43.85 47.85 43.95 48 43.6 48 43.25 48.1 42.85 48 42.4 47.9 42.35 47.75 42.35 47.65
M 42.35 47.15
Q 42.5 47.25 42.75 47.35 42.5 47.35 42.35 47.4 42.35 47.25 42.35 47.15
M 41.4 47.75
Q 41.15 47.35 40.7 47.1 40.65 46.9 40.65 46.8 40.65 46.75 40.7 46.8 41.25 47.35 41.65 47.75 41.5 47.75 41.4 47.75
M 41.15 48.35
Q 41 48.25 40.8 48.25 40.45 48.25 40.2 48.25 40.15 48.1 40.15 48 40.45 48 40.9 48.1 41 48.2 41.15 48.35
M 41 49.35
Q 41.05 49.3 41.25 49.2 41.55 49.3 42 49.45
L 41.8 49.55
Q 41.4 49.45 41 49.35
M 42.15 48.25
Q 42.25 48.35 42.35 48.5 42.15 48.45 42 48.45 42 48.35 42.1 48.25
L 42.15 48.25
M 42.65 48.5
Q 42.6 48.45 42.6 48.35 42.95 48.35 43.25 48.45 42.95 48.45 42.65 48.5
M 44.35 49.35
Q 43.95 49.1 43.5 49 44.05 49.1 44.7 49.3 44.55 49.3 44.35 49.35
M 44.7 48
Q 44.6599609375 48 44.6 48
L 44.6 47.9
Q 44.6546875 47.967578125 44.7 48
M 49.5 43.5
L 49.6 43.5 49.65 43.65 49.65 43.7
Q 49.55 43.55 49.5 43.5
M 50.4 44.4
L 50.5 44.45 50.55 44.5
Q 50.45 44.5 50.35 44.5 50.4 44.45 50.4 44.4
M 50.5 44.35
Q 50.45 44.3 50.4 44.3 50.5 43.9 50.5 43.3
L 50.6 43.35
Q 50.5 43.85 50.5 44.35
M 49.05 43.65
Q 49.15 43.7 49.25 43.65 49.45 43.95 49.75 44.25 49.4 44.2 49.15 44.15 49 43.85 49.05 43.65
M 50.55 44.9
L 50.6 44.95 50.55 44.95 50.55 44.9
M 47.9 43.8
Q 47.85 43.8 47.75 43.8 47.9 43.7 47.95 43.7
L 47.9 43.8
M 47.85 44.65
L 47.6 44.6
Q 47.55 44.45 47.55 44.4 47.75 44.5 47.85 44.65
M 47.7 44.95
Q 47.8 45 47.9 45.05 47.85 45.25 47.8 45.4 47.7375 45.175 47.7 44.95
M 47.05 47.8
Q 47.040625 47.75 47 47.75
L 47 47.65
Q 47.0416015625 47.7330078125 47.05 47.8
M 46.4 48
L 46.4 48.25
Q 46.3 48.2 46.3 48.1 46.3 48 46.4 48
M 46.75 48.45
Q 46.75 48.35 46.8 48.2 47 48.25 47.15 48.35 47.05 48.45 47.15 48.5 46.9 48.45 46.75 48.45
M 46.3 48.35
L 46.25 48.35 46.15 48.25
Q 46.25 48.25 46.3 48.35
M 45.7 48.1
L 45.7 48.05 45.8 48
Q 45.8 48.1 45.8 48.2
L 45.7 48.1
M 59.7 38.4
Q 59.85 38.35 60.05 38.45 59.8 38.45 59.55 38.55 59.6 38.4 59.7 38.4
M 58.5 38.2
Q 58.7 38.2 58.85 38.25 58.65 38.45 58.4 38.7 58.35 38.7 58.3 38.8 58.4 38.45 58.5 38.2
M 58.75 40.05
L 58.75 40 58.85 40 58.85 40.05 58.75 40.05
M 57.9 37.35
Q 57.7 37.5 57.55 37.75 57.55 37.25 57.6 36.7 57.7 37 57.9 37.35
M 56.5 38.95
Q 56.45625 39.053125 56.55 39.1 56.453125 39.1 56.45 39.2 56.4509765625 39.05703125 56.5 38.95
M 57.35 38.95
Q 57.35 38.85 57.4 38.75 57.6 38.45 57.85 38.2 57.8 38.45 57.8 38.8 57.55 38.8 57.35 38.95
M 57.45 39.8
Q 57.25 39.9 57.15 40.15 57.15 40 57.2 39.75 57.3 39.75 57.45 39.8
M 56.65 41.3
Q 56.75 41.25 56.85 41.1
L 56.95 41.1
Q 56.85 41.15 56.8 41.25 56.75 41.35 56.65 41.3
M 59.05 42.7
Q 59.15 42.7 59.25 42.7 59.2 42.8 59.25 42.95 59.2 42.95 59.05 43.1 58.55 43.8 58.4 44.4 58.2 44.45 58 44.55 58.5 43.8 59.05 42.7
M 59.25 42.2
Q 59.2 42.4 59.25 42.65 59.15 42.65 59.05 42.65 59.1 42.4 59.25 42.2
M 51.55 40
Q 51.45 39.8 51.35 39.7 51.35 39.25 51.4 38.95 51.5 38.95 51.65 39.05 51.6 39.3 51.55 39.65 51.5 39.85 51.55 40
M 52.15 39.05
Q 52.15 38.85 52.15 38.8 52.25 38.55 52.45 38.45 52.2 38.75 52.15 39.05
M 52.45 41.05
Q 52.4 40.55 52.35 40.25 52.5 40.05 52.55 40.05 52.55 40.45 52.6 40.85
L 52.45 41.05
M 52.6 41.75
L 52.7 41.7
Q 52.7 41.75 52.65 41.9 52.6 41.85 52.6 41.75
M 51.5 40.85
Q 51.5 41 51.5 41.25 51.35 41.1 51.3 41
L 51.3 40.95
Q 51.4 40.85 51.5 40.85
M 51.3 41.45
Q 51.4 41.45 51.45 41.55 51.35 41.75 51.3 42.05 51.25 41.75 51.3 41.45
M 55.5 40.5
L 55.55 40.6
Q 55.5015625 40.6 55.5 40.65
L 55.5 40.5
M 54.2 44
Q 54.15 43.75 54.3 43.5 54.25 43.7 54.2 43.85 54.2 43.95 54.2 44
M 53.8 46.35
Q 53.75 46.35 53.65 46.4 53.6919921875 46.1900390625 53.7 45.95 53.739453125 46.1380859375 53.8 46.35
M 54.95 45.7
Q 54.8 45.8 54.7 45.8 54.8 45.6 54.9 45.35 54.9 45.5 54.95 45.7
M 51.95 43.35
Q 51.85 43.5 51.8 43.65 51.7525390625 43.03359375 51.75 42.45 51.7625 42.928125 51.95 43.35
M 52.85 46.95
L 52.85 47.05
Q 52.8 46.85 52.9 46.8 52.9 46.85 52.85 46.95
M 52.9 48.1
Q 52.8890625 48.06640625 52.85 48 53.073828125 47.9841796875 53.2 47.9 53.3 48.15 53.45 48.45 53.194140625 48.23671875 52.9 48.1
M 53 47.5
Q 52.85625 47.6150390625 52.75 47.75 52.7193359375 47.6923828125 52.65 47.6 52.8525390625 47.518359375 53.05 47.4
L 53 47.5
M 54.15 47.2
Q 54.35 47.1 54.6 47.05 54.75 47.3 54.95 47.6 54.5 47.3 54.15 47.2
M 54.05 47.3
Q 54.1 47.45 54.25 47.65 54 47.55 53.75 47.5 53.9 47.3 54.05 47.3
M 60.2 44.8
Q 60.4 44.6 60.55 44.4
L 60.65 44.35
Q 60.6 44.65 60.6 44.95 60.55 44.95 60.45 44.9 60.3 44.85 60.2 44.8
M 59.5 44.1
Q 59.5 44.05 59.5 43.95
L 59.6 44.1 59.5 44.1
M 59.65 44.7
L 59.65 44.75
Q 59.5 44.85 59.45 45.1 59.15 45.15 58.8 45.1 58.85 45 59.1 44.75 59.3 44.7 59.65 44.7
M 59.9 44.05
Q 59.75 44 59.65 44.1 60.05 43.25 60.65 41.85 60.75 41.35 61 41.15 60.85 41.2 60.75 41.25 60.8 41.1 60.9 40.95 61.3 40.95 61.7 40.9 61.3 40.8 60.95 40.6 61.25 40.55 61.5 40.6 61.25 40.5 61.1 40.5 61.15 40.35 61.15 40.2 61.7494140625 40.2 62.5 40.2 62.45 40.2015625 62.45 40.3 62.1 40.7 61.85 41.2 60.6 42.2 59.9 44.05
M 58.3 45.25
L 58.25 45.35
Q 58 45.2 57.8 45.15 58 45.1 58.3 45.05 58.25 45.15 58.3 45.25
M 59.65 45.4
Q 59.95 45.7 60.1 46.1 60.65 47.1 61.7 48.25 61.8 48.45 61.95 48.55
L 61.9 48.65 61.85 48.65 61.9 48.55
Q 61.5 48.15 61.2 47.8 60.05 46.25 58.85 45.6 59.25 45.5 59.65 45.4
M 57.1 44.3
Q 57.05 44.55 57.05 44.8 56.95 44.9 56.85 44.95 56.9 44.6 57.1 44.3
M 55.75 45.4
Q 55.75 45.3 55.8 45.3
L 55.8 45.4 55.75 45.4
M 57.7 45.25
Q 57.7 45.3 57.75 45.4 57.6 45.35 57.4 45.45 57.4 45.35 57.55 45.25 57.65 45.2 57.7 45.25
M 57.15 45.4
L 57.25 45.45
Q 56.85 45.6 56.45 45.6 56.85 45.5 57.15 45.4
M 57.5 46.35
Q 57.2 46.1 57 46 57.15 45.9 57.3 45.9 57.35 46.15 57.5 46.35
M 57.5 45.8
Q 57.7 45.8 57.95 45.8 58.3 46.35 58.8 47.05 57.95 46.15 57.5 45.8
M 57.75 48.85
Q 56.9 47.8 56.2 47.2 55.7 46.9 55.3 46.7 55.7 46.45 56.15 46.35 56.3 46.6 56.5 46.9 56.95 47.9 57.85 48.9
L 57.75 48.85
M 58.15 49.3
L 58.2 49.2
Q 58.3 49.2 58.35 49.35
L 58.25 49.4 58.15 49.3
M 60 49.35
Q 59.8984375 49.3015625 59.85 49.35 59.80078125 49.2515625 59.75 49.15 59.80234375 49.25 60 49.35
M 60.4 49.1
Q 60.2564453125 48.9083984375 60.1 48.75 60.2125 48.859375 60.4 49
L 60.4 49.1
M 68.55 29.75
Q 68.75 29.7 68.9 29.7 68.99375 29.746875 69.1 29.75 68.6443359375 29.7521484375 68.25 29.9 68.35 29.85 68.55 29.75
M 62.95 35.55
L 63.05 35.55
Q 62.95 35.65 62.9 35.8
L 62.85 35.75
Q 62.9041015625 35.6419921875 62.95 35.55
M 62.2 35.5
Q 62.3 35.45 62.35 35.55
L 62.3 35.7
Q 62.25 35.7 62.05 35.65 62.05 35.6 62.2 35.5
M 63 34.55
Q 62.75 34.55 62.5 34.6 62.7 34.05 62.85 33.8 63.25 33.85 63.7 33.95 63.2 34.25 63 34.55
M 62 34.65
Q 61.75 34.65 61.65 34.7 62.02890625 34.4158203125 62.4 34.05 62.139453125 34.324609375 62 34.65
M 61.4 35.35
Q 61.5 35.3 61.55 35.4 61.45 35.55 61.4 35.75
L 61.3 35.7
Q 61.35 35.45 61.4 35.35
M 61.55 37.05
Q 61.55 36.9 61.8 36.85 61.85 36.85 61.95 36.85 61.8 36.95 61.8 37 61.65 36.95 61.55 37.05
M 61.2 36.85
L 61.25 36.9
Q 60.9 37.15 60.6 37.35 60.7 37.1 60.85 36.75 61 36.8 61.2 36.85
M 64 34.65
Q 63.85 34.65 63.75 34.6 63.95 34.25 64.2 34.05 64.55 34.1 64.85 34.15 64.4 34.35 64 34.65
M 69.4 41.45
Q 68.8 42.2 69.05 43.25 68.2 43.2 67.35 43.2 68.25 42.8 69.4 41.45
M 63.85 38.65
Q 63.65 38.5 63.4 38.4
L 64.05 38.5
Q 64 38.5 63.85 38.65
M 63.1 39.45
Q 62.95 39.65 62.9 39.8 62.25 39.4 61.65 39.2
L 63.1 39.45
M 62.75 39.85
Q 62.65 40 62.55 40.2 61.9 39.85 61.3 39.75 62.15 39.75 62.75 39.85
M 63.25 39.35
Q 62.2 38.85 61.7 38.7 62.6 38.7 63.7 38.8 63.45 39 63.25 39.35
M 65.55 44.85
Q 65.7 44.75 65.75 44.7 65.85 44.75 65.95 45 65.8 44.95 65.7 45 65.65 44.95 65.55 44.85
M 65.2 44.25
Q 65.15 44.403125 65.15 44.6 65.1 44.5 65 44.45 65.14765625 44.40078125 65.2 44.25
M 64.55 43.7
L 64.65 43.75
Q 64.5 43.9 64.45 44.1
L 64.35 44.1
Q 64.4 43.9 64.55 43.7
M 65.8 43.7
L 65.7 43.65
Q 65.7990234375 43.65 65.95 43.65 65.896875 43.6515625 65.8 43.7
M 63.65 45.1
Q 63.8 45.5 64.05 45.8 63.45 45.25 63.05 45.15 63.35 45.05 63.65 45.1
M 62.65 44.8
L 62.5 44.75
Q 62.9 44.5 63.2 44.25 63.2 44.3 63.25 44.5 63.35 44.6 63.4 44.85 63 44.75 62.65 44.8
M 62.5 44
Q 62.4 44.35 62.25 44.65 61.9 44.4 61.6 44.25
L 61.6 44.2
Q 62.1 44.1 62.5 44
M 61.5 44.85
Q 61.25 44.8 61.05 44.85 61.2 44.75 61.4 44.45 61.35 44.65 61.5 44.85
M 61.1 45.25
Q 61.2 45.55 61.5 46 61.05 45.55 60.75 45.25 60.9 45.2 61.1 45.25
M 61.25 45.15
Q 61.4 45.2 61.65 45.15 61.65 45.4 61.8 45.65 61.5 45.35 61.25 45.15
M 62 48.75
L 62 48.65
Q 62.35 48.9 62.6 49.2 62.35 49.25 62.25 49.35 62.1 49.1 62.05 48.95
L 62.1 48.95
Q 62.1 48.85 62 48.75
M 64.25 49.25
Q 64 49.3 63.95 49.4 63.8 49.15 63.75 49 63.9 49.1 64.25 49.25
M 65.35 48.85
Q 65.55 48.9 65.75 49.1 65.95 49.15 66.2 49.3 65.65 49.7 64.8 50.25
L 64.7 50.2
Q 65.2 49.65 65.75 49.1 65.25 49.25 64.85 49.45 65 49.2 65.15 49.1 65.3 49 65.4 48.95 65.35 48.9 65.2 49 65.25 48.9 65.35 48.85
M 65.1 48.7
Q 64.8 48.95 64.55 49.15
L 64.5 49.15
Q 63.7 48.25 63.05 47.6 63.9 48.25 65.1 48.7
M 69.4 43.5
Q 69.55 44 69.8 44.55 69.05 43.75 68.2 43.5 68.8 43.45 69.4 43.5
M 68.05 44.1
Q 68.05 44.3 68.25 44.6 68.2 44.6 68.1 44.6 67.75 44.55 67.4 44.6 67.7 44.4 68.05 44.1
M 67.7 43.5
Q 67.75 43.65 67.85 43.8 66.95 43.9 66.4 44.25
L 66.3 44.15
Q 66.6 43.85 66.9 43.55 67.3 43.45 67.7 43.5
M 66.05 45.05
Q 65.9484375 45.053125 65.9 45.15 65.9 45.053125 65.8 45 65.9015625 45.05 65.95 45.05
L 66.05 45.05
M 66.5 49.15
Q 66.55 49 66.6 48.8 66.5 48.9 66.4 49.05 66.1 48.65 65.9 48.35 66 48.45 66.1 48.45 65.3 47.2 64.7 46.5 65.25 47 66.2 47.35 66.85 47.8 68.05 48.65 68.8 49.3 70.05 50.05 68.75 50.35 67.45 50.9 67.67421875 50.6634765625 67.9 50.4 67.4 50.55 67.05 50.7 67.45 50.1 67.95 49.4 65.1 51.3 64.1 52.7 63.75 52.6 63.5 52.55 63.7 52.35 64 52.25 65.25 51.5 67 49.75 66.5 49.85 66.05 50.05 66.15 49.7 66.45 49.4 66.6 49.4 66.75 49.55 66.6 49.35 66.5 49.15
M 71.15 43.55
Q 71.2 44 71.5 44.4 70.6 43.7 69.8 43.5 70.4 43.5 71.15 43.55
M 71.85 42.55
Q 71.6 42.95 71.7 43.4 71.25 43.4 70.8 43.35 71.4 43.05 71.85 42.55
M 38.2 38.8
L 38.25 38.85
Q 38.45 39.35 38.6 39.95 38.45 39.7 38.25 39.55 38.2 39.2 38.2 38.8
M 39.8 39.45
L 39.9 39.65
Q 39.95 40.3 40.05 41 39.9 40.55 39.6 40.15 39.45 39.7 39.2 39.2 39.45 39.3 39.8 39.45
M 35.55 39.55
Q 35.75 39.7 36 39.9 35.55 39.7 35.3 39.65 35.4 39.55 35.55 39.55
M 36.5 42.95
Q 36.15 43.1 35.8 43.25 34.95 42.65 33.55 41.85 34.1 41.75 34.9 41.85 37 42.5 38.7 42.25 38.85 42.25 39.05 42.25 39.1 42.35 39.2 42.4 38.85 42.35 38.45 42.4 37.35 42.6 36.5 42.95
M 38.45 40.65
Q 38.25 40.55 38.2 40.45 38.25 40.2 38.25 39.95 38.35 40.2 38.45 40.65
M 34.3 38.7
Q 34.45 38.8 34.65 38.95 34.3 38.85 33.95 38.85 34.1 38.7 34.3 38.7
M 32 47.5
Q 32.1 47.5 32.25 47.5 32.35 47.6 32.45 47.6 32.15 47.75 31.9 47.9 31.65 48.1 31.4 48.35
L 31.35 48.35
Q 31.75 47.9 32 47.5
M 32.75 46.9
Q 32.35 46.9 32 46.9 31.85 46.55 31.5 46.25 32.25 46.55 32.95 46.8 32.9984375 46.896875 33.1 46.9 32.9458984375 46.9 32.75 46.9
M 31.15 48.5
L 31.25 48.5
Q 31.146875 48.503125 31.05 48.6 31.05 48.5 31.15 48.5
M 34.2 47.65
Q 34.3 47.65 34.3 47.75 34.2 47.75 34.2 47.85
L 34.1 47.75 34.2 47.65
M 35.2 47
L 35.15 47
Q 35.05 46.65 34.9 46.4 35.4 46.75 35.8 47.1 35.45 47 35.2 47
M 39.55 44.3
Q 39.6 44.45 39.7 44.6 39.35 44.6 39.1 44.7 38.85 44.45 38.6 44.2 38.7 44.2 38.8 44.2 39.1 44.2 39.55 44.3
M 38.2 45.55
Q 38.45 45.55 38.7 45.65 38.8 45.7 38.95 45.9 38.7 45.8 38.35 45.65
L 39.95 47.25
Q 40.15 47.4 40.3 47.6 39.95 47.5 39.8 47.5 39.35 47 38.8 46.55 38.5 46.05 38.2 45.55
M 38.45 45.2
Q 38.2 45.2 38 45.3 37.6 44.7 36.9 44.1 37.35 44.1 37.75 44.2 38.1 44.6 38.45 45.05 38.353125 45.146875 38.25 45.15 38.353125 45.15 38.45 45.15
L 38.45 45.2
M 39.45 45.05
L 39.35 44.95
Q 39.5400390625 44.95 39.75 44.95 39.590625 44.95625 39.45 45.05
M 36.4 43.7
Q 36.4 43.6 36.3 43.6 36.25 43.5 36.05 43.45 36.6 43.35 37.4 43.45
L 37.4 43.5
Q 36.9 43.6 36.4 43.7
M 37.15 47.85
Q 37 47.85 36.85 47.9 36.75 47.75 36.6 47.65 36.65 47.65 36.85 47.65 37 47.75 37.15 47.85
M 36.4 49.45
Q 36.15 49.35 36 49.35 36.05 49.3 36.15 49.3 36.85 48.85 37.4 48.45 37.7 48.45 38 48.45 37.95 48.5 37.85 48.5 37.25 48.75 36.4 49.45
M 36.15 48.2
Q 36.05 48.2 35.9 48.25 35.8 48.1 35.75 48 35.8 47.9 35.9 47.9 36.05 48 36.3 48.2 36.25 48.2 36.15 48.2
M 38.6 47.35
Q 38.45 47.35 38.35 47.35 37.85 47 37.25 46.8 37.1 46.3 36.75 45.8 37.7 46.65 38.6 47.35
M 38 47.9
Q 38.1 47.85 38.2 47.85 38.45 48 38.7 48.1 38.45 48.1 38.2 48.1 38.1 48 38 47.9
M 39.45 48.95
Q 39.6 48.75 39.9 48.7 39.95 48.7 40.15 48.75 39.8 48.75 39.45 48.95
M 36.75 53.7
Q 37.35 53.75 37.85 53.85 37.6 53.95 37.4 54.1 37.1 53.85 36.75 53.7
M 35.9 54.95
Q 35.75 55.05 35.65 55.1 35.45 55.05 35.2 54.95 35.55 54.95 35.9 54.95
M 36.9 55.05
Q 37 54.95 37.1 54.95 37.15 54.95 37.4 54.95 37.25 55.05 37.25 55.3 36.9 55.2 36.65 55.3 36.75 55.1 36.9 55.05
M 39.9 53.85
Q 40.15 53.85 40.3 53.85 40.05 53.95 39.9 54.1 39.9 53.95 39.9 53.85
M 39.45 53
Q 39.35 53.003125 39.35 53.1 39.3015625 53.003125 39.2 53 39.3025390625 53 39.45 53
M 38.85 53.85
Q 38.95 53.85 39.05 53.85 38.85 54 38.8 54.25 38.5 54.2 38.25 54.2 38.5 54 38.85 53.85
M 38.1 54.85
Q 38.345703125 54.80078125 38.7 54.8 38.6 54.803125 38.6 54.85 38.35 55.05 38.1 55.2 38.1 55.05 38.1 54.85
M 39.8 55.45
L 39.9 55.45 39.9 55.55 39.8 55.55 39.8 55.45
M 34.8 57.15
Q 34.9 57.15 35.15 57.15
L 35.15 57.25
Q 34.95 57.25 34.8 57.3 34.7 57.25 34.8 57.15
M 35.4 56.45
Q 35.15 56.45 34.95 56.55 35.2 56.3 35.55 56.15 35.45 56.3 35.4 56.45
M 32.95 58.35
Q 33.25 58.25 33.8 58.15 33.7 58.35 33.7 58.6 33.35 58.75 32.95 59.2 32.95 58.75 32.95 58.35
M 33.95 57.65
Q 33.6 57.75 33.25 58 33.7 57.65 34.1 57.3 34.05 57.4 33.95 57.65
M 34.8 58
Q 34.9 57.9 34.95 57.9 34.95 58.1 34.95 58.15
L 34.8 58.15
Q 34.7 58.1 34.8 58
M 34.95 58.7
Q 34.9015625 58.7015625 34.95 58.75 34.8 58.75 34.7 58.85
L 34.7 58.75
Q 34.7990234375 58.7005859375 34.95 58.7
M 33.6 59.35
Q 33.6 59.45 33.6 59.6 33.25 59.95 32.95 60.35 32.95 60.05 32.95 59.7 33.2 59.5 33.6 59.35
M 40.2 58.5
Q 40.3 58.1 40.4 57.75 40.55 57.65 40.7 57.65 40.65 57.75 40.55 57.85 40.8 57.65 41.3 57.6 42.75 57.25 43.7 57.05 43.6 57.15 43.6 57.3 41.65 57.65 40.45 58.7 39.95 58.85 39.45 59.1 39.371875 59.1 39.35 59.15 39.45234375 58.38671875 39.55 57.85 39.7 57.85 39.9 57.85 39.9 58 39.95 58.25 39.95 58 40.05 57.75 40.15 58.1 40.2 58.5
M 38.1 56.05
Q 38.1 55.95 38.25 55.95 38.1 56.15 38.1 56.4 38 56.2 38.1 56.05
M 36.9 55.95
Q 36.9 56.0484375 36.85 56.05 36.9029296875 56.05 37.1 56.05 37 56.2 37 56.55 36.75 56.4 36.3 56.4 36.3 56.2 36.3 56.05 36.65 56.05 36.9 55.95
M 36.15 58
Q 36.15 57.9 36.15 57.85 36.25 57.65 36.4 57.6 36.3 57.75 36.3 57.9 36.25 57.9 36.15 58
M 36.3 57.3
L 36.25 57.25
Q 36.25 57.05 36.25 56.9 36.6 56.8 36.85 56.75 36.6 57 36.3 57.3
M 37.4 60.35
L 37.4 59.7
Q 37.5 59.95 37.6 60.2 37.4015625 60.29921875 37.4 60.35
M 39.3 59.2
Q 39.1 59.25 38.95 59.35 38.95 58.75 39.1 57.9 39.1 58.5 39.3 59.2
M 38.85 59.45
Q 38.7 59.5 38.5 59.6
L 38.5 58.15
Q 38.6 58.75 38.85 59.45
M 38.35 60.7
Q 39.0291015625 60.47578125 39.9 60.2 40.2 60.1 40.55 60.05 40.4 60.2 40.3 60.45 40.9 59.95 42.5 59.35 42.65 59.25 42.75 59.25 42.65 59.5 42.6 59.8 42.5 59.95 42.5 60.1 42.4 60.1 42.35 60.2 40.1 60.575 38.35 61.35 38.3921875 60.9921875 38.35 60.7
M 38.35 59.7
Q 38 59.85 37.75 60.05 37.85 59 38 58.1 38.1 58.6 38.35 59.7
M 27.9 63.15
Q 28.040625 62.9796875 28.2 62.9 27.95 63.25 27.85 63.75 27.85 63.6375 27.85 63.5 27.8541015625 63.341796875 27.95 63.15
L 27.9 63.15
M 38.5 62.75
Q 38.0955078125 63.002734375 37.75 63.25 37.9134765625 63.002734375 38.05 62.7 38.4224609375 62.6240234375 38.85 62.55 38.7 62.65 38.5 62.75
M 73.8 56.45
Q 74.05 56.65 74.35 56.9
L 74.35 57
Q 73.95 56.6 73.55 56.3 73.6 56.3 73.85 56.35
L 73.8 56.45
M 68.8 51.3
Q 69.7 50.8 70.55 50.4 70.65 50.45 70.75 50.55 68 51.65 67.15 53.1 66.95 53.1 66.85 53.3 66.4 53.2 66.1 53.15 66.2 52.9 66.45 52.85 66.85 52.65 67.45 52.35 68.6 51.75 68.8 51.3
M 65.9 53.2
Q 66 53.25 66.1 53.25 66.05 53.6 66.5 54.1 66.45 54.2 66.4 54.4 66 53.7 65.7 53.4 65.75 53.25 65.9 53.2
M 66.8 53.45
Q 66.65 53.35 66.6 53.35 66.65 53.25 66.85 53.4
L 66.9 53.4 66.8 53.45
M 68.25 54.9
L 68.15 54.9
Q 67.8544921875 54.4568359375 67.65 54.25 67.8578125 54.4515625 68.35 54.55 68.25 54.75 68.25 54.9
M 68.5 53.9
Q 68.6 53.9 68.75 53.9 68.75 53.95 68.65 54.1 68.6 53.95 68.5 53.9
M 64.5 50.5
Q 64.3 50.65 64 50.85 63.7 51.05 63.5 51.25
L 63.5 51.15
Q 63.55 51.05 63.65 51.1 63.95 50.75 64.35 50.35 64.45 50.35 64.5 50.5
M 63.15 49.65
Q 62.9 49.8 62.7 49.9 62.65 49.8 62.55 49.8 62.65 49.55 62.85 49.45 63.05 49.6 63.15 49.65
M 63.25 50.15
Q 63.15 50.25 63.05 50.4
L 62.95 50.4
Q 63.05 50.2 63.25 50.15
M 62.45 50.7
L 62.55 50.85
Q 61.75 51.45 61.3 52 61.15 51.95 61 51.95 61.2 51.7 61.35 51.55 61.45 51.55 61.55 51.6
L 61.5 51.5
Q 61.95 51.05 62.45 50.7
M 60.8 52.35
L 60.8 52.45
Q 60.6 52.4 60.45 52.35
L 60.35 52.25
Q 60.55 52.3 60.8 52.35
M 62.6 52.05
Q 62.45 52.1 62.35 52.25
L 62.3 52.25
Q 62.35 52.1 62.6 52.05
M 62.45 53.05
L 62.4 53.05
Q 62.55 52.85 62.85 52.85 62.9 53.05 62.95 53.2 62.65 53.15 62.45 53.05
M 61.6 52.7
Q 61.5 52.65 61.4 52.65
L 61.55 52.6 61.6 52.7
M 61.25 54.85
Q 61.05 54.55 61 54.2 60.85 53.95 60.7 53.5 60.6 53.4 60.6 53.35 60.75 53.35 61 53.45 61 54.15 61.25 54.85
M 61.15 55.2
Q 61.1880859375 55.2787109375 61.35 55.4 61.6 55.8 61.95 56.3 61.992578125 56.3849609375 62 56.4 61.74375 56.351171875 61.5 56.4 61.258984375 55.725390625 61.15 55.2
M 62.1 54.1
Q 62.4 54.45 62.75 54.75 62.9 55.8 63.5 56.85 63.65 57.25 63.8 57.6 63.75 57.6 63.7 57.55
L 62.95 56.4
Q 62.85 56 62.75 55.85 62.8 55.85 62.85 55.95 62.45 54.85 62.1 54.1
M 65.2 54
Q 65.15 53.85 65.1 53.8
L 65.15 53.7
Q 65.35 53.9 65.45 54.1 65.3 54 65.2 54
M 64.75 53.05
L 64.85 53.1
Q 64.75 53.2 64.7 53.35 64.6 53.25 64.55 53.25 64.65 53.15 64.75 53.05
M 64.3 53.7
Q 64.1 53.6 63.95 53.6 64.05 53.5 64.1 53.5 64.2 53.5 64.3 53.7
M 63.3 52.9
Q 63.55 52.85 63.85 53 63.65 53.05 63.65 53.25 63.4 53 63.3 52.9
M 64.6 54.6
Q 64.55 54.65 64.65 54.9 64.45 54.6 64.35 54.55 64.4 54.55 64.6 54.6
M 65.2 55.05
Q 65.4 55.25 65.7 55.45 65.75 55.75 65.8 56 65.55 55.45 65.2 55.05
M 60.85 56.75
L 60.95 56.8
Q 60.65 56.75 60.2 56.85
L 60.25 56.75
Q 60.5 56.7 60.85 56.75
M 61.65 56.9
Q 61.6 56.65 61.6 56.6 61.8 56.55 62.15 56.5 62.5 57.05 63 57.65 62.4 57.6 61.85 57.7 61.8 57.5 61.75 57.3 62.2 57.25 62.25 57.05 62.3 56.9 61.65 56.9
M 61.35 57.4
Q 61.55 57.55 61.6 57.65 61.3 57.7 61.05 57.7 60.6 57.6 60.25 57.55 60.95 57.45 61.35 57.4
M 62.35 62.25
L 62.3 62.3
Q 62.3 62.23984375 62.25 62.2
L 62.35 62.25
M 61.05 63
L 61.05 63 61.05 62.9
Q 61.0515625 62.9541015625 61.05 63
M 63.85 65.35
L 63.85 65.3 63.85 65.35 63.85 65.35
M 58.65 49.9
Q 58.8 49.9 58.85 49.8 58.95 49.9 59.1 50 58.9 50.05 58.9 50.2 58.75 50.05 58.65 49.9
M 60.1 52.15
L 60.1 52.2
Q 60.0287109375 52.1287109375 59.95 52.1 60.0111328125 52.1203125 60.1 52.15
M 59.65 51.35
L 59.6 51.25
Q 59.696875 51.2015625 59.8 51.1 59.6984375 51.2046875 59.65 51.35
M 60.7 51.8
Q 60.55 51.75 60.45 51.75 60.7 51.65 60.9 51.4 60.75 51.65 60.7 51.8
M 58.3 51
L 58.3 51.1
Q 58.1 50.95 58.05 50.95 57.9 50.85 57.8 50.65 58.1 50.8 58.3 51
M 56.35 51.95
Q 56.15 51.95 56.1 51.9
L 56.15 51.85 56.3 51.9 56.35 51.95
M 57.4 52
L 57.5 52
Q 57.5 52.09765625 57.45 52.15 57.49765625 52.09765625 57.4 52
M 57 52.1
Q 57 51.95 57 51.85
L 57.05 51.85
Q 57.15 52.05 57.2 52.25 57.25 52.4 57.3 52.5
L 57.2 52.5
Q 57.1 52.3 57 52.1
M 57.55 53.9
Q 57.6 53.8 57.6 53.7 57.7 53.8 57.65 53.9
L 57.55 53.9
M 57.35 52.75
L 57.5 52.8 57.5 52.9
Q 57.4 52.9 57.35 52.85
L 57.35 52.75
M 55.9 55.6
L 55.8 55.45
Q 56.3509765625 55.3873046875 57.05 55.3
L 57.15 55.3
Q 56.6 55.4 56.2 55.65 56.065234375 55.6162109375 55.9 55.6
M 57.95 54.5
L 57.7 54.5 57.7 54.35
Q 57.75 54.25 57.85 54.25 57.85 54.35 57.95 54.5
M 59.15 54
L 59.3 53.9 59.2 53.9 59.15 53.85
Q 59.2 53.75 59.4 53.75 59.5 53.9 59.7 54.1 59.7 54.2 59.7 54.3 59.45 54.25 59.3 54.25 59.25 54.1 59.15 54
M 59.2 53.6
Q 59.1 53.45 59 53.45 59 53.3 58.9 53.15 59.05 53.3 59.2 53.6
M 60.05 55.15
Q 59.8 55.1 59.55 55.05 59.45 54.8 59.5 54.65 59.6 54.6 59.75 54.6 59.9 54.85 60.05 55.15
M 60.05 55.3
L 60.05 55.35
Q 59.9 55.3 59.65 55.25 59.8 55.25 60.05 55.3
M 55.3 50
Q 55.15 50 55.05 49.95 54.95 49.85 54.9 49.8 55.1 49.85 55.3 50
M 54.5 51
Q 54.95 51.25 55.55 51.5 55.5 51.55 55.5 51.65 54.83203125 51.3578125 54.55 51.2 54.4509765625 51.07265625 54.35 50.95 54.41875 50.9796875 54.5 51
M 52.05 55.1
Q 52.05 55.183203125 52.05 55.3
L 52 55.2 52 55.1
Q 52.0248046875 55.117578125 52.05 55.1
M 55.55 55.4
L 55.65 55.5
Q 55.681640625 55.4947265625 55.7 55.5 55.7 55.6404296875 55.7 55.8 55.35 56.15 55.2 56.65
L 55.2 56.55
Q 55.403515625 55.910546875 55.55 55.4
M 54.25 57.05
L 54.25 57.15 54.2 57.25
Q 54.1 57.15 54 57.15 54 57.05 54.1 57
L 54.25 57.05
M 53.5 56.8
Q 53.6 56.8 53.7 56.8
L 53.7 56.9
Q 53.6 56.9 53.5 56.8
M 53.4 58.4
L 53.4 58.5 53.5 58.4
Q 53.6 58.5 53.75 58.6 53.7 58.75 53.7 59 53.6 58.95 53.5 58.95 53.35 58.7 53.25 58.6 53.25 58.4 53.35 58.35
L 53.4 58.4
M 52.65 56.4
L 52.75 56.4
Q 52.75 56.45 52.75 56.55
L 52.65 56.55 52.65 56.4
M 51.9 56.4
L 51.9 56.3
Q 51.9984375 56.3984375 52.05 56.4 51.9984375 56.4 51.9 56.4
M 52.4 56.3
Q 52.3 56.2 52.15 56.15 52 56.05 51.8 55.95
L 51.8 55.9
Q 51.9 55.9 52.05 55.95 52.25 56.05 52.4 56.2
L 52.4 56.3
M 50.8 57
L 50.7 57
Q 50.55 56.75 50.45 56.45 50.65 56.55 50.7 56.75 50.7 56.8 50.8 57
M 50.7 58.35
L 50.8 58.4
Q 50.6546875 58.4 50.55 58.5 50.6515625 58.3984375 50.7 58.35
M 53 58.15
Q 53 58.25 53.1 58.35 52.85 58.15 52.75 58 52.85 58.1 53 58.15
M 52.6 59.7
Q 52.65 59.7 52.75 59.8 53.15 60.05 53.4 60.2 53.7 60.35 53.95 60.55 53.35 60.2 52.65 60.1 52.6 59.85 52.6 59.7
M 51.55 59.25
L 51.65 59.35
Q 51.65 59.5 51.65 59.7
L 51.55 59.7
Q 51.55 59.45 51.55 59.25
M 51.5 59
Q 51.51875 58.96875 51.5 58.95 51.5 58.8 51.5 58.7 51.503515625 58.8427734375 51.5 59
M 51.05 59.25
Q 51.05 59.35 51.05 59.5 50.9 59.5 50.65 59.6 50.9 59.45 51.05 59.25
M 50.65 60.2
L 50.7 60.3
Q 50.7 60.2 50.7 60.1 50.9 59.95 51.15 59.8 51.15 59.95 51.15 60.1 50.55 60.45 49.8 61.15
L 49.7 61.05
Q 50.1 60.6 50.65 60.2
M 51.2 61.2
Q 51.05 61.3 50.95 61.4 51.05 61.2 51.2 61.15
L 51.2 61.2
M 51.8 60.35
Q 51.8 60.45 51.8 60.55
L 51.75 60.45 51.8 60.35
M 52 61.4
L 52 61.45
Q 52.05 61.7 52.05 62 51.9 61.9 51.75 61.8 51.8 61.55 52 61.4
M 54.45 58.95
Q 54.45 59.2 54.45 59.45 54.2 59.25 54 59.1 54 58.95 54.1 58.85 54.25 58.85 54.45 58.95
M 54.7 59.5
L 54.6 59.5
Q 54.6 59.25 54.7 59.1 54.7 59.35 54.7 59.5
M 55.55 60.3
Q 55.2 59.95 54.95 59.8 54.95 59.5 55.1 59.35 55.35 59.45 55.65 59.6 55.55 59.95 55.55 60.3
M 55.45 61.8
Q 55.55 61.45 55.65 61.3 55.7 61.3 55.9 61.4 55.8 62 55.95 62 56.15 62 56.3 61.55 56.45 61.65 56.65 61.7 56.45 62.25 56.4 62.8 55.9 62.25 55.45 61.8
M 55.35 61.7
Q 55.3484375 61.646875 55.3 61.55 54.85 61.15 54.45 60.8 54.35 60.6 54.25 60.55 54.8 60.8 55.45 61.15 55.3505859375 61.3986328125 55.35 61.7
M 59.95 56.3
Q 59.85 56 59.8 55.7 60 55.6 60.3 55.65 60.4 55.9 60.7 56.35 60.35 56.25 59.95 56.3
M 58.65 55.85
Q 58.75 56.1 58.95 56.25 58.45 56.1 58 56 58.3 55.9 58.65 55.85
M 59.35 56.25
Q 59.35 56.1 59.35 55.9 59.4 56.1 59.55 56.3 59.45 56.25 59.35 56.25
M 59.2 56.85
Q 59.24375 56.85 59.3 56.85 59.18046875 56.85390625 58.95 56.9 59.1 56.8 59.2 56.85
M 57.7 57.05
Q 57.414453125 57.0552734375 57.15 57.05
L 57.1 57.05
Q 57.4091796875 57.05 57.7 57.05
M 56.85 56.9
L 56.9 56.95
Q 56.83203125 57.271484375 56.75 57.6 56.82734375 57.239453125 56.85 56.9
M 56.45 56.55
Q 56.45 56.4888671875 56.45 56.4
L 56.5 56.5
Q 56.475390625 56.5181640625 56.45 56.55
M 56.8 56.55
Q 56.760546875 56.5697265625 56.7 56.6
L 56.65 56.5
Q 56.7287109375 56.526171875 56.8 56.55
M 55.7 57.65
Q 55.7 58.1 55.8 58.6 55.65 58.4 55.45 58.25 55.55 57.9 55.7 57.65
M 57.85 57.95
Q 57.6958984375 58.23515625 57.55 58.6 57.55 58.1798828125 57.55 57.8
L 57.65 57.9
Q 58.05 57.9 58.6 58 58.318359375 58.040234375 58 58.15
L 57.85 57.95
M 56.3 59.1
Q 56.3 58.996875 56.3 58.95 56.3 58.85 56.4 58.7 56.3041015625 58.9400390625 56.3 59.1
M 55.7 59
Q 55.7 59.1 55.7 59.2 55.55 59 55.35 58.95 55.55 58.95 55.7 59
M 56.05 59.95
L 56.15 59.95
Q 55.95 60.35 55.95 60.7
L 55.9 60.6
Q 55.95 60.2 56.05 59.95
M 56.8 60.95
Q 56.75 61.2 56.65 61.45 56.55 61.4 56.45 61.2 56.55 60.8 56.8 60.1 56.8 60.45 56.8 60.95
M 48.15 51.15
Q 48.35 50.95 48.5 50.8 48.6 50.8 48.75 50.8 48.5 50.95 48.25 51.15
L 48.15 51.15
M 48.1 51.9
Q 48.1 52.15 48.15 52.4 48 52.25 47.85 52.15 47.9 52 48.1 51.9
M 48.6 51.4
Q 48.7 51.25 48.85 51.05 48.95 51.4 49.1 51.8 48.85 51.55 48.6 51.4
M 47.05 51.55
Q 47 51.65 47 51.75 46.6625 51.5572265625 46.3 51.55 46.4125 51.55 46.5 51.55 46.8 51.55 47.05 51.55
M 47.85 50.9
L 47.75 50.9
Q 47.65 50.9 47.6 50.9 47.65 50.8 47.85 50.9
M 48 53.1
Q 47.75 52.85 47.5 52.65 47.6 52.4 47.75 52.25 47.75 52.6 48 53.1
M 45.65 53.45
L 45.65 53.5 45.55 53.5
Q 45.55 53.45 45.65 53.45
M 46.15 52.75
Q 45.95 52.65 45.8 52.65 46.05 52.6 46.3 52.5 46.25 52.6 46.15 52.75
M 46.3 55.35
Q 46.15 55.2 45.9 55.1 45.95 54.95 46.05 54.85 46.15 55.05 46.3 55.35
M 47.05 53.25
Q 47.15 53.7 47.4 54.2 47.85 55.05 48.7 56.05
L 48.7 56.15
Q 47.9 55.1 47.05 54.45 46.8 54.2 46.55 54 46.75 53.6 47.05 53.25
M 50.3 53.6
Q 50.3 53.7 50.3 53.85 50.2197265625 53.64921875 50.15 53.45 50.188671875 53.5166015625 50.3 53.6
M 44.1 51.65
Q 44.35 51.55 44.6 51.65 44.55 51.65 44.45 51.65 44.275 51.65 44.1 51.65
M 42.85 49.8
Q 42.65 49.8 42.6 49.8
L 42.65 49.7
Q 42.75 49.7 42.85 49.8
M 41.05 52.35
Q 41 52.3515625 41 52.4
L 40.9 52.35 41.05 52.35
M 41.25 53.75
Q 41.4 53.7 41.5 53.6 41.5 53.7 41.4 53.75 41.3 53.75 41.25 53.85
L 41.25 53.75
M 44.85 54.6
Q 44.6 54.55 44.35 54.55 44.7 54.45 45.05 54.45 44.95 54.55 44.85 54.6
M 45.45 54.95
L 45.4 54.85
Q 45.55 54.55 45.8 54.2 45.65 54.55 45.45 54.95
M 45.2 55.2
Q 45.3 55.1 45.4 55.1 45.3 55.3 45.3 55.45 45.2 55.35 45.15 55.35 45.15 55.3 45.2 55.2
M 44.45 56.65
Q 44.7 56.45 44.85 56.4 44.8 56.75 44.7 57.05 44.45 57.05 44.35 57.15
L 44.3 57.15
Q 44.35 56.8 44.45 56.65
M 45.05 55.95
Q 44.95 55.9 44.85 55.9 44.95 55.65 45.05 55.45 45.05 55.65 45.15 55.9
L 45.05 55.95
M 43.6 56.9
Q 43.7 56.9 43.75 56.9
L 43.7 57 43.6 56.9
M 43.75 58.1
L 43.85 58
Q 44.05 57.9 44.3 57.75 44.3 57.85 44.35 58 44.35 58.1 44.35 58.15 44.05 58.1 43.75 58.1
M 45.55 57.9
Q 45.2 57.6 44.95 57.3 45.15 56.9 45.3 56.55 45.7 57.85 47.05 59.25 47.35 59.6 47.65 60.05
L 47.75 60.05 47.75 60.1 47.65 60.1
Q 47.6 59.95 47.4 59.8 46.5 58.6 45.55 57.9
M 44.55 58.7
Q 44.55 58.5 44.6 58.35 44.85 58.7 45.2 59.2 44.85 58.85 44.55 58.7
M 42.35 56.4
Q 42.1 56.3 41.9 56.3 42.1 56.2 42.35 56.2 42.35 56.3 42.35 56.4
M 42.4 56.4
Q 42.4 56.3 42.4 56.2 43.6 55.9 44.45 55.55 44.3 55.7 44.2 55.9 43.6 55.95 42.85 56.3 42.65 56.4 42.6 56.45 42.5 56.4 42.4 56.4
M 42.85 61.7
L 42.85 61.8
Q 42.6 61.8 42.4 61.9
L 42.4 61.8
Q 42.6 61.7 42.85 61.7
M 44.35 59.2
Q 44.45 59 44.45 58.85 44.6 59.1 44.8 59.45 44.6 59.25 44.35 59.2
M 43.85 59.95
L 43.85 60.1
Q 43.75 60.45 43.75 60.9 43.5 60.8 43.45 60.7 43.25 60.6 43.2 60.55 43.5 60.3 43.85 59.95
M 44.1 59
Q 43.95 58.85 43.75 58.85 44.05 58.7 44.2 58.6 44.1 58.75 44.1 59
M 43.1 59.85
Q 43.25 59.45 43.45 59
L 43.5 59
Q 43.6 59.35 43.75 59.7 43.45 59.8 43.1 59.85
M 43.95 61.2
Q 43.95 60.9 44.1 60.55 44.16953125 61.07109375 44.55 61.7 44.28046875 61.4080078125 43.95 61.2
M 49 56.55
L 49.1 56.55 49.2 56.65 49.1 56.75
Q 49 56.65 49 56.55
M 48.85 58.25
Q 48.75 58.25 48.75 58.35 48.70078125 58.153125 48.6 58.1 48.70234375 58.1515625 48.85 58.25
M 48.45 58.7
L 48.35 58.7
Q 48.244921875 58.516015625 48.1 58.35 48.2798828125 58.5298828125 48.45 58.7
M 49.6 57.6
Q 49.55 57.4 49.45 57.3 49.55 57.25 49.6 57.15 49.7 57.25 49.85 57.4 49.7 57.4 49.6 57.6
M 46.75 56.75
Q 46.15 56.15 45.65 55.7 45.7 55.45 45.8 55.3 46.05 55.8 46.75 56.75
M 47.85 60.2
Q 47.9 60.3 48 60.35
L 48 60.3
Q 48.15 60.35 48.35 60.6 48.25 60.7 48.15 60.9 47.9 60.55 47.75 60.2
L 47.85 60.2
M 48.85 61.15
Q 48.7 61.3 48.5 61.55 48.45 61.4 48.35 61.2 48.5 61.05 48.75 60.95 48.75 61.05 48.85 61.15
M 49.3 61.55
Q 49.1 61.65 49 61.7 49.1 61.55 49.3 61.45
L 49.3 61.55
M 49.1 63
Q 49 62.9 49 62.8 49.45 62.5 49.85 62.25 49.85 62.15 49.95 62.15
L 50.05 62.15
Q 49.8 62.3 49.55 62.55 49.3 62.8 49.1 63
M 48.75 63.1
L 48.85 63.25
Q 48.1 64 47.6 64.45 47.5 64.2 47.5 64 47.35 63.75 47.35 63.5 47.4 63.4 47.5 63.4 47.4 63.5 47.4 63.6 47.5 63.5 47.6 63.35 47.75 63.25 48 63.15 47.75 63.5 47.5 64 48.15 63.5 48.75 63.1
M 47.9 62.5
Q 47.85 62.15 47.75 62 47.9 62.05 48.1 62.25 48 62.3 47.9 62.5
M 47.75 62.8
Q 47.5 63 47.25 63.25 47 62 46.55 61.05 47.05 61.8 47.75 62.75
L 47.75 62.8
M 46.8 64.2
Q 46.8 64.1 46.75 64 47 64.25 47.35 64.6 47.15 64.7 47.05 64.75 47.25 64.75 47.4 64.7 47.6 64.85 47.75 65.05 47.65 64.85 47.65 64.7 48 64.5 48.35 64.45 48.1 64.85 47.9 65.3 49.95 63.95 50.9 62.8 51.05 62.55 51.3 62.4 51.3 62.65 51.3 63 49.8 63.75 47.4 66.15 48.15 65.8 48.85 65.55 48.6 65.85 48.35 66.3 48.7310546875 66.06171875 49.15 65.8 49.07890625 65.87109375 49 65.95 48.15 67.15 47.65 68.35 47.15 67.05 46.65 66.15 46.05 64.85 45.65 64.1 45.48359375 63.1248046875 45.1 62.4 45.6880859375 63.1326171875 46.8 64.2
M 49.1 67.4
Q 49.6 67.3 50.4 66.2 50.8 65.7 51.05 65.35 51.15 65.1 51.4 65.05 51.4 65.35 51.4 65.8 51.2 65.85 51.15 66.05 49.6 66.7 48 69.15 47.9 69 47.9 68.9 48.45 68.15 49.1 67.4
M 43.45 63.4
Q 43.25 63.25 43.2 63.15 43.25 63.1 43.35 63 43.45 63.1 43.5 63.15 43.45 63.25 43.45 63.4
M 43.1 62.4
Q 43.1 62.5 43.2 62.55 43.00625 62.5015625 42.85 62.55 43.003125 62.496875 43.1 62.4
M 43.5 63.4
Q 43.5 63.3515625 43.5 63.25 43.503125 63.3515625 43.6 63.4 43.5033203125 63.4 43.5 63.5
L 43.5 63.4
M 42.15 63
Q 42.1015625 63.096875 42.1 63.15 42.1005859375 62.9990234375 42.15 62.9
L 42.15 63
M 41.8 64.1
Q 42.15 63.85 42.5 63.65
L 42.6 63.75
Q 42.15 64.2 41.9 65.05 41.75 64.95 41.65 64.85 41.65 64.45 41.8 64.1
M 42.6 65.6
Q 42.35 65.35 42.15 65.3 42.5 65.05 42.75 64.75 42.65 65.1 42.6 65.45 42.6 65.55 42.6 65.6
M 41.55 65.35
Q 41.65 66.2 42.25 67.15 41.8 66.8 41.3 66.55 41.4 65.95 41.55 65.35
M 41.35 64.5
Q 41.241796875 65.277734375 41.15 66.15 40.2 65.7 39.3 66.15 40.8626953125 65.319921875 41.35 64.5
M 41.8 68.75
Q 41.5 68.4 41.05 68.25 41.15 67.55 41.25 66.95 41.3 67.75 41.8 68.75
M 40.9 67.9
Q 40.9 68.35 40.8 68.75 40.4 68.6 39.95 68.75 40.55 68.4 40.9 67.9
M 56.2 63.5
Q 56.2 63.6 56.2 63.65 55.9 63.4 55.55 63.15 54.6 62.4 53.6 62.05 53.35 61.65 53.1 61.3 53.75 61.8 54.8 62.4 54.7 62.3 54.7 62.25 54.85 62.4 55.2 62.55
L 56.2 63.5
M 52.3 63.35
Q 52.15 63.25 52.15 63.15 52.15 63.1 52.25 63 52.25 63.15 52.3 63.35
M 51.65 62.8
Q 51.55 62.5 51.65 62.25 51.8 62.4 52 62.65 51.8 62.65 51.65 62.8
M 51.55 63.85
L 51.55 63.75
Q 51.65 63.65 51.8 63.6 51.8 63.65 51.9 63.75 51.75 63.75 51.55 63.85
M 51.5 64.85
Q 51.55 64.75 51.75 64.7 52 65.05 52.6 65.6 52.4 65.6 52.3 65.6 51.9 65.1 51.5 65.05 51.5 64.95 51.5 64.85
M 53.1 63.85
Q 53.1 63.65 53.1 63.6 53.15 63.75 53.4 63.95 53.15 63.85 53.1 63.85
M 52.25 64.2
Q 52.3 64.25 52.4 64.35 52.4 64.45 52.5 64.6 52.3 64.45 52.15 64.25
L 52.25 64.2
M 52.6 65.95
Q 52.603125 66.0591796875 52.65 66.2 52.6 66.15 52.6 66.05
L 52.6 65.95
M 51.5 65.8
Q 51.4 65.6 51.5 65.55 51.5 65.6 51.55 65.8
L 51.5 65.85 51.5 65.8
M 51.65 67.8
Q 51.65 67.65 51.75 67.55 51.75 67.65 51.9 67.75 51.75 67.8 51.65 67.8
M 52.4 67.55
Q 52.4 67.0578125 52.25 66.8 52.40546875 67.05546875 52.75 67.4
L 52.75 67.5
Q 52.6 67.5 52.4 67.55
M 54.25 65.3
Q 54 65.2 53.75 65.1 53.609375 64.771875 53.4 64.5 53.767578125 64.9623046875 54.25 65.3
M 53.15 73.3
Q 53.15 73.05 53.15 73 53.35 73.4 53.7 73.9
L 53.6 73.85
Q 53.4 73.5 53.25 73.25
L 53.15 73.3 Z"/>
</g>
</defs>

<g transform="matrix( 1, 0, 0, 1, 0,0) ">
<use xlink:href="#Layer1_0_FILL"/>
</g>
</svg>
