
<svg xmlns="http://www.w3.org/2000/svg" version="1.1" xmlns:xlink="http://www.w3.org/1999/xlink" preserveAspectRatio="none" x="0px" y="0px" width="100px" height="100px" viewBox="0 0 100 100">
<defs>
<g id="Layer1_0_FILL">
<path fill="#000000" stroke="none" d="
M 54.05 28.4
Q 53.35 28.05 52 29.8
L 51.1 31.5
Q 51.1 31.6 50.85 31.6 50.55 31.5 50.55 31.05
L 50.55 30.35
Q 50.3 29.9 49.85 30.35 49.6 30.45 49.6 31.35 48.85 31.15 48.5 33.55
L 48.15 32.95
Q 48.15 32.85 47.9 33.05 48.15 34.3 47.6 35.45
L 47.35 34.45 47.1 34.2 46.9 34.3 46.9 36.7
Q 46.35 35.9 45.65 35.9
L 45.55 36.05 45.55 36.35
Q 45.5474609375 36.251953125 44.95 36.7 44.95 36.95 45.4 37.3 45.75 37.6 45.2 37.85
L 45.1 37.95 45.2 38.2
Q 44.921875 38.2 44.7 38.2 44.8 37.9123046875 44.8 37.6 44.85 37.4 44.65 37.3 44.8 37.2 44.65 36.7
L 44.65 36.65
Q 44.4 36.2 44.2 36.7 44.1 37.05 44 37.2 44 37.25 43.7 37.25 43.35 37.2 43.2 37.1
L 43.35 36.85
Q 43.45 36.85 43.3 36.7
L 43.1 36.7 43.1 36.45 43 36.35 42.8 36.35 42.75 36 42.7 35.95 42.4 36 42.4 35.6 42.35 35.45 42.2 35.55
Q 42.35 35.1 42.05 35.05
L 41.6 34.9
Q 41.35 34.85 41.15 34.9
L 41.1 35.05 41.45 35.55
Q 41.3 35.65 41.25 35.45
L 41.25 35.4 41.15 35.35 41.1 35.2 41.05 35.2 40.7 34.8
Q 40.6 34.5 40.5 34.45 40.3 34.3 40.2 34.25
L 40.15 34.1 40.05 34.05
Q 40 34.05 39.8 33.6
L 39.75 33.55 39.65 33.55 39.2 32.8
Q 39.1 32.75 39.05 32.8 38.65 32.95 38.65 33.2 38.65 33.35 39.05 33.55
L 39 33.7
Q 38.85 33.8 39 33.8
L 39.2 33.95 39.2 34.15 39.25 34.3 39.3 34.35
Q 39.1 34.6 38.85 34.1
L 38.7 34.05 38.45 34.1
Q 38.3 34.05 38.3 33.7
L 38.2 33.6 37.8 33.55
Q 37.75 33.5 37.9 33.15
L 37.9 33.05 37.45 32.6 37 32.6
Q 36.85 32.5 36.85 32.25 36.85 32.05 36.7 32.2 36.35 32.3 36.35 32.6 36.35 32.8 36.7 32.95
L 36.5 33.2 36.5 33.35 36.8 33.6 36.9 33.8 37.05 33.9 37.25 34.1
Q 37.45 34.3 37.4 34.45
L 37.45 34.5
Q 37.8 34.7 37.8 34.85
L 37.7 35.1
Q 37.6 35.2 37.55 35.1 37.25 35 37.15 35
L 36.65 35
Q 36.45 35 36.6 35.1
L 36.7 35.45
Q 36.8 35.55 37.05 35.65
L 37.15 36 37 36.35 37.05 36.65 36.9 36.75
Q 36.45 36.3 35.75 36.65 35.5 36.75 35.55 36.95 35.7 37.25 36.3 37.4
L 36.35 37.4
Q 36.6 37.1 37 37.2 37.25 37.2 37.7 37.25
L 37.6 37.65 37.7 37.8
Q 37.75 37.85 37.95 38
L 38.1 38.3 38.15 38.35
Q 38.55 38.35 38.55 38.5 38.65 38.7 38.5 38.8
L 37.75 38.75 37.45 38.9 37.2 38.9
Q 37.05 38.75 37.05 38.95 37.0921875 39.10859375 37.15 39.2 37.1126953125 39.334375 37.1 39.5
L 37.25 39.9
Q 36.6 39.9 36.6 40.35 36.35 41.25 37.65 41.4 37.25 41.8 37.5 42 37.7 42.45 38.1 42.4 37.6 42.95 37.65 43.1 38.05 43.65 38.45 43.5 38.2 44.1 38.55 44.2 38.9 44.5 39.85 44.55 39.4 45 37.85 44.55 37.1044921875 44.37109375 36.6 44.6
L 36.6 44.6
Q 36.35 44.1 35.65 44.35 35.75 43.7 35.25 43.45 35 43.25 34.35 43.5 33.85 43.4 33.3 42.7 32.65 41.85 32.6 41.35
L 32.25 41.3
Q 31.55 41.85 31.8 42.4
L 32.7 43.55
Q 32.25 44.35 33.5 44.3
L 33.6 44.25 34.2 44.65
Q 33.65 45.1 33.7 45.35 33.65 45.85 34.45 45.95 34.35 46.6 34.15 46.45
L 33.55 46.05
Q 32.8 45.45 32.5 45.4
L 32.3 44.8
Q 32.05 44.45 31.7 44.75
L 31.4 43.95 31.15 44
Q 30.7 44.35 30.55 44.2
L 30.2 43.7
Q 30.3 43.4 30 43.6
L 29.65 44.1
Q 29.1 43.85 28.85 44.15 28.75 44.2 29.1 44.65 28.75 44.95 28.95 45.25 28.95 45.65 29.7 45.5
L 29.85 46.4 30.05 46.5 30.85 46.25
Q 31.25 46.8 31.8 46.75 31.7 47.3 31.8 47.35 32 47.65 32.65 47.7
L 32.85 48.4
Q 32.8 48.75 33.1 48.5
L 33.55 48.2 33.7 48.6 34 48.55 34.4 48.4 34.3 48.75 34.35 49 34.7 49.15 34.25 49.1
Q 34.05 49.05 34.05 49.2
L 33.9 49.6
Q 33.2 49.3 33.05 49.1 32.8 49 32.9 49.2
L 32.75 49.75 32.15 49.95
Q 32.05 49.85 32.1 50
L 32.35 51.15
Q 32.5 51.35 33.05 51.25 33.5 51.35 33.7 51.05 33.9 50.75 35.05 50.55
L 34.9 51.15 35.05 51.3 35.45 51.3 35.6 51.6
Q 35.6 51.708984375 35.65 51.8 35.352734375 52.029296875 35.75 52.25 36.1 52.35 36.25 52.5 36.3 52.5 36.25 52.75 36.15 53.1 36.05 53.25
L 35.8 53.05 35.65 53.1 35.65 53.3 35.4 53.3 35.3 53.35 35.25 53.55 34.95 53.6 34.85 53.7 34.95 53.95 34.5 53.9 34.35 53.95 34.4 54.1
Q 34 53.9 33.95 54.2
L 33.75 54.65
Q 33.65 54.8 33.7 55.1
L 33.85 55.15 34.35 54.85
Q 34.45 55 34.25 55.05
L 34.15 55.05 34.1 55.1 33.95 55.15 33.95 55.2 33.5 55.5
Q 33.25 55.55 33.15 55.7 33 55.85 32.9 55.95
L 32.75 56 32.7 56.05
Q 32.7 56.15 32.3 56.3
L 32.2 56.35 32.2 56.45 31.9 56.5 31.4 56.8
Q 31.3 56.85 31.4 56.95 31.45 57.4 31.75 57.4 31.85 57.45 32.15 57.05
L 32.25 57.1
Q 32.4 57.25 32.4 57.1
L 32.55 56.95 32.75 56.95 32.95 56.9 33 56.85
Q 33.15 57.05 32.65 57.3
L 32.55 57.45 32.6 57.7
Q 32.55 57.85 32.2 57.8
L 32.15 57.85 32.05 58.25
Q 31.95 58.35 31.6 58.15
L 31.55 58.15 31 58.5 30.95 59
Q 30.9 59.1 30.65 59.05 30.45 59.05 30.55 59.2 30.65 59.6 30.9 59.6 31.15 59.6 31.3 59.3
L 31.55 59.5 31.65 59.55 32.2 59.15 32.25 59.05 32.5 58.85
Q 32.75 58.65 32.85 58.8
L 32.95 58.7
Q 33.2 58.35 33.3 58.35
L 33.55 58.55
Q 33.6 58.6 33.55 58.7 33.4 58.95 33.35 59.1
L 33.3 59.6
Q 33.3 59.8 33.45 59.65
L 33.85 59.55
Q 33.9 59.5 34.05 59.2
L 34.4 59.2 34.7 59.35 35 59.3 35.15 59.45
Q 34.6 59.9 34.9 60.6 35 60.9 35.2 60.85 35.5 60.75 35.7 60.1
L 35.7 60.05
Q 35.4 59.85 35.55 59.45 35.6 59.15 35.65 58.75
L 36.05 58.85 36.2 58.8
Q 36.3 58.75 36.45 58.6
L 36.75 58.45 36.8 58.4
Q 36.85 57.95 37 57.95 37.2 57.95 37.35 58.1
L 37.2 58.85 37.3 59.1 37.3 59.4
Q 37.1 59.5 37.3 59.5 38.1 59.4 37.8 58.75
L 38.05 58.65
Q 38.623046875 59.4810546875 40.85 58.9
L 40.65 59.3 39.95 59.45 39.9 59.6
Q 39.4 60.8 39.55 60.95 39.7 61.25 40.8 60.45 41.05 61.05 41.5 61.15 42.1 61.15 42.25 60.25
L 42.5 59.65
Q 43.1 59.9 43.05 60.05
L 42.65 60.4 42.55 60.75
Q 42.15 61.6 42.25 61.85 41.85 62.25 41.65 62.8
L 41.55 64.05 41.65 64.3
Q 42.8 64.4 42.6 63.25 43 63.1 43.15 62.6
L 43.15 62.2
Q 43.1 62.1 43.4 61.95
L 43.85 61.45 43.85 61.55 44.15 61.4
Q 44.35 61.6 44.8 61.4
L 45.15 60.8 45.2 60.9 45.4 60.9 45.2 62.1 45.2 62.1
Q 45.1513671875 62.166796875 45.1 62.2 44.95 62.45 45.15 62.4 45.1775390625 62.4275390625 45.2 62.45 45.2578125 63.3154296875 45.3 63.4 45.328515625 63.428515625 45.35 63.45
L 45.2 63.65
Q 44.75 63.85 44.85 64.2 45.05 64.6 45.6 64.4 45.95 64.35 46.2 63.8
L 47.05 63.05 47.45 62.9 47.4 63.4
Q 47.7 63.55 47.55 63.8 47.45 63.85 47.3 64.15 47.3 64.45 47.55 64.8 47.5 64.95 47.2 65.3 46.95 65.6 47.3 65.9
L 46.75 66.1
Q 46.65 66.15 46.9 66.8 46.95 66.9 46.6 67.25 46.1 67.6 46.35 67.85 45.5 68.55 45.75 68.85 45.95 69.1 46.3 68.95
L 46.8 68.4
Q 47.25 68.25 47.3 67.85 48 67.05 48.15 66.55
L 48.25 66.15
Q 48.25 65.85 48.65 65.7
L 48.75 65.45
Q 48.8640625 65.366015625 48.95 65.2
L 49 65.25 49.1 65.45 48.95 65.55
Q 48.8 66.3 48.75 66.55
L 48.7 66.65 48.75 66.75 48.7 67.2 48.25 67.7 48.5 68
Q 48.75 68.15 48.7 68.3
L 48.55 68.45 48.45 68.5 48.4 69.65
Q 48.4 69.75 48.1 69.85 47.9 70.2 48.35 70.35 48.15 70.85 48.25 71.05 48.45 71.3 48.8 70.9
L 49.05 70.6
Q 49.05 70.35 49.5 69.65 49.9 69.15 50 68.45
L 50.05 67.9 50.25 67.55 50.45 67.95
Q 51.1 68.15 50.95 66.75
L 51.15 66.1
Q 50.85 65.35 50.9 64.9
L 51 64.75
Q 50.55 64.6 50.9 64.25
L 50.95 64.1 50.85 63.75 51.05 64.05
Q 51.3 64.3 51.3 64.65
L 51.45 64.7
Q 51.9 64.95 52.2 64.95 52.3 65 52.55 64.65
L 52.65 64.95 52.9 65
Q 53.05 64.8 53.05 64.05
L 53 63.95
Q 52.45 63.85 52.45 63.2 51.75 63 52.1 62.65
L 51.95 62.5
Q 52.0224609375 62.5111328125 52.05 62.45
L 52.15 62.5
Q 52.9 62.8 53.25 62.75 53.4 63.2 53.7 63.25 54 63.35 54.25 63.1
L 54.15 62.9 54.2 62.4 53.95 61.5
Q 53.85 61.2 53.35 61.4 53 61.45 52.8 61.05
L 52.5 61
Q 52.5453125 60.7484375 52.55 60.45 52.6109375 60.44921875 52.65 60.45
L 52.95 60.85
Q 53 60.95 53.2 60.65 53.164453125 60.543359375 53.1 60.4 53.263671875 60.4236328125 53.4 60.4
L 53.9 60.1
Q 53.95 59.95 53.55 59.75
L 53.45 59.5 53.3 59.45
Q 53.133984375 59.4611328125 53 59.45 53.00078125 59.1716796875 53.05 58.85 53.1912109375 58.8640625 53.4 58.75
L 53.6 59.25 53.75 59.4
Q 53.69375 59.6251953125 53.9 59.9
L 54.05 59.85
Q 54.4 59.55 54.8 59.85 54.55 60.2 54.5 60.65 54.35 60.85 54.55 61 54.45 61.05 54.45 61.6
L 54.45 61.65
Q 54.7 62.1 54.95 61.65 55.05 61.3 55.25 61.2 55.25 61.15 55.5 61.15 55.85 61.25 55.95 61.4
L 55.8 61.6
Q 55.75 61.6 55.8 61.8
L 56 61.8 55.95 62.05 56.05 62.15 56.25 62.2 56.25 62.5 56.35 62.6 56.6 62.55 56.55 62.95 56.6 63.1 56.75 63.1
Q 56.55 63.45 56.8 63.55
L 57.25 63.8
Q 57.45 63.85 57.65 63.85
L 57.75 63.7 57.5 63.2
Q 57.65 63.05 57.7 63.3
L 57.65 63.4 57.7 63.45 57.8 63.6 57.85 63.6 58.15 64.05
Q 58.15 64.3 58.3 64.45 58.45 64.55 58.5 64.7
L 58.6 64.8 58.65 64.9
Q 58.7 64.9 58.85 65.35
L 58.9 65.4 58.95 65.4 59.05 65.7 59.35 66.2
Q 59.4 66.3 59.45 66.25 59.9 66.15 59.95 65.9 60 65.75 59.55 65.5
L 59.7 65.35
Q 59.8 65.25 59.7 65.25
L 59.5 65.05 59.55 64.85 59.45 64.7 59.45 64.65
Q 59.65 64.5 59.85 64.95
L 60 65.1 60.3 65.05
Q 60.4 65.15 60.35 65.45
L 60.4 65.55 60.8 65.65
Q 60.85 65.8 60.65 66.05
L 60.65 66.15 61 66.65 61.45 66.75
Q 61.6 66.85 61.55 67.1 61.55 67.3 61.7 67.2 62.05 67.15 62.05 66.85 62.1 66.65 61.8 66.45
L 62.05 66.2 62.1 66.05 61.8 65.75 61.7 65.55 61.6 65.45 61.45 65.2
Q 61.25 64.95 61.35 64.9
L 61.3 64.75
Q 61 64.5 61 64.35
L 61.2 64.15
Q 61.25 64.1 61.3 64.15 61.55 64.35 61.65 64.35
L 62.15 64.45
Q 62.35 64.45 62.25 64.3
L 62.2 63.95
Q 62.1 63.85 61.85 63.7
L 61.8 63.3 62 63.05 62 62.75 62.1 62.6
Q 62.55 63.15 63.25 62.9 63.55 62.8 63.55 62.6 63.45 62.3 62.85 62.1
L 62.75 62.1
Q 62.5 62.35 62.15 62.2 61.9 62.15 61.5 62.05
L 61.6 61.65 61.55 61.5
Q 61.5 61.45 61.3 61.25
L 61.15 60.85
Q 60.75 60.8 60.75 60.7 60.75 60.45 60.85 60.35
L 61.6 60.55 61.8 60.45
Q 62.2076171875 61.3138671875 62.65 61.45
L 62.85 61.25 62.85 60.8
Q 63.55 60.4 63.5 60.3 63.5 60.15 62.8 59.45 62.6 59.3 62.55 58.75 62.5 58.15 62.85 58.4 63.55 59 63.6 59.85 63.65 60.05 63.95 59.95
L 64.4 59.6
Q 64.5 60 64.7 60.9 65.05 61.7 65.6 61.65 66 61.6 66 61.05
L 65.9 60.65
Q 66.45 60.6 66.4 60.1 66.55 59.2 65.25 59.25 65.6 58.8 65.35 58.55 65.1 58.15 64.7 58.25 65.1 57.65 65.05 57.55 64.6 57.05 64.2 57.25 64.4 56.6 64.05 56.5 63.7 56.25 62.7 56.3 63.1 55.85 64.65 56.1 65.95 56.25 66.4 55.2 66.6 54.55 65.8 54.1 65 53.85 64.55 54.65 64.2 54.2 63.8 54.4 63.75 53.75 63.35 53.55 63.25 53.4 63.2 53.6
L 62.7 54.35
Q 62.25 53.8 62.05 53.85 62.75 53.15 62.25 52.85 62.1 52.55 61.45 52.75
L 61.2 52.65
Q 60.8 52.55 61.2 52.3
L 61.75 52.1
Q 63 51.9 62.4 51 62.0482421875 50.5033203125 61.65 50.45 62.16953125 49.8017578125 61 49.1
L 59.85 48.6
Q 59.3 48.15 59.75 47.75 60.4 48.5 60.7 48.45
L 61.25 48.45 62.75 50.15
Q 63.1 50.6 63.55 50.6 64 50.7 64.05 50.35 64.15 50 63.85 49.65 63.3 48.75 62.5 48.3 62.9 48.05 62.65 47.75 62.7 47.35 62.05 47.5 61.75 47.1 60.8 46.95 60.6056640625 46.912890625 60.4 46.85
L 60.45 46.85
Q 60.55 46.5 60.7 46.6
L 61 46.9
Q 61.35 47.15 61.7 46.9
L 61.7 46.75
Q 61.4 46.35 61.7 45.95 62.05 46.25 62.55 46.35 62.75 46.5 62.8 46.3 62.95 46.45 63.4 46.45
L 63.5 46.45
Q 64 46.25 63.55 45.95 63.25 45.8 63.1 45.65 63.05 45.6 63.15 45.35 63.25 45.05 63.35 44.95
L 63.6 45.1
Q 63.6 45.2 63.7 45.1
L 63.75 44.9 64.05 44.95 64.1 44.9 64.15 44.7 64.55 44.65 64.6 44.65 64.6 44.35 65 44.45 65.1 44.4 65.1 44.3
Q 65.45 44.45 65.6 44.25
L 65.85 43.8
Q 65.9 43.6 65.9 43.4
L 65.8 43.3 65.25 43.55
Q 65.15 43.35 65.35 43.35
L 65.45 43.35 65.5 43.3 65.7 43.25 65.7 43.2 66.15 42.95
Q 66.45 42.95 66.5 42.8 66.7 42.65 66.75 42.6
L 66.95 42.55 67 42.5
Q 67 42.45 67.45 42.35
L 67.6 42.2 68.45 41.9
Q 68.5 41.8 68.45 41.75 68.4 41.35 68.1 41.25 68 41.25 67.7 41.6
L 67.6 41.5
Q 67.45 41.35 67.45 41.5
L 67.3 41.65 67.1 41.6 66.95 41.65 66.85 41.65
Q 66.7 41.45 67.2 41.3
L 67.3 41.15 67.3 40.9
Q 67.4 40.75 67.75 40.8
L 67.8 40.8 68 40.4
Q 68.05 40.35 68.35 40.55
L 68.4 40.55 69 40.25 69.1 39.8
Q 69.2 39.65 69.45 39.75 69.65 39.75 69.55 39.65 69.5 39.25 69.25 39.2 69.05 39.15 68.8 39.5
L 68.55 39.2 68.45 39.2 68.1 39.4 67.85 39.5 67.8 39.6 67.55 39.75
Q 67.3 39.9 67.15 39.8
L 67.1 39.85
Q 66.85 40.15 66.7 40.1
L 66.45 39.9
Q 66.45 39.85 66.5 39.8 66.7 39.55 66.75 39.45
L 66.85 38.95
Q 66.9 38.75 66.7 38.85
L 66.3 38.95
Q 66.25 39 66.05 39.2
L 65.75 39.2 65.4 39 65.15 39 65 38.85
Q 65.6 38.45 65.4 37.75 65.35 37.4 65.1 37.45 64.85 37.5 64.55 38.15
L 64.55 38.2
Q 64.75 38.45 64.6 38.85 64.55 39.1 64.4 39.45
L 64 39.3 63.85 39.35
Q 63.75 39.45 63.6 39.6
L 63.25 39.65 63.2 39.75
Q 63.1 40.15 62.95 40.1 62.75 40.1 62.7 39.95
L 62.9 39.25 62.8 38.9 62.85 38.65
Q 63.05 38.55 62.85 38.5 62.05 38.55 62.25 39.2
L 62 39.3 61.95 39.45 61.95 39.7
Q 62 39.8 61.7 39.9
L 61.65 40 61.65 40.1 61.4 40.3
Q 61.25 40.25 61.4 40.45 61.4 40.65 61.3 40.8 61.1 40.95 60.9 40.8 61 40.8 60.95 40.75
L 60.85 40.75 60.75 40.65 60.7 40.65 60.8 40.15
Q 60.9 39.75 60.45 39.65 60.15 39.6 60.05 40 60 40.35 60.35 40.55 60.25 40.75 60.1 41.15 59.95 41.5 59.65 41.5
L 59.65 41.6
Q 59.4904296875 41.68984375 59.3 41.85
L 59.25 41.8 59.2 41.85
Q 59.11484375 41.9208984375 59 42
L 58.2 42.3 57.8 42.3
Q 57.869140625 42.126953125 57.9 41.95
L 57.95 41.85
Q 57.918359375 41.810546875 57.9 41.75 57.8572265625 41.700390625 57.85 41.6 57.8423828125 41.5076171875 57.95 41.4 58.05 41.4 58.3 41.15 58.4 40.9 58.3 40.45 58.4 40.35 58.85 40.15 59.2 40 59 39.55
L 59.55 39.55
Q 59.65 39.55 59.65 38.9 59.65 38.75 60.1 38.55 60.7 38.4 60.55 38.1 61.6 37.75 61.5 37.4 61.35 37.05 61 37.05
L 60.7 37.3 60.35 37.4
Q 59.9 37.4 59.65 37.75 58.75 38.2 58.4 38.65
L 58.2 39
Q 58.05 39.2 57.6 39.2
L 57.25 39.65 57.15 39.55 57.15 39.35 57.25 39.2
Q 57.75 38.65 57.85 38.4
L 57.95 38.3 57.95 38.2 58.2 37.85 58.75 37.5 58.65 37.15
Q 58.4 36.95 58.5 36.85
L 58.75 36.7 58.85 36.7 59.3 35.7
Q 59.3 35.6 59.65 35.6 60 35.35 59.65 35 60 34.65 60 34.45 59.9 34.1 59.45 34.35
L 59.1 34.55
Q 59 34.8 58.3 35.25 57.75 35.6 57.4 36.15
L 57.15 36.7 56.8 36.95 56.8 36.5
Q 56.25 36.05 55.9 37.4
L 55.45 37.95
Q 55.45 38.75 55.25 39.1
L 55.1 39.2
Q 55.45 39.55 55 39.8
L 54.9 39.9 54.9 40.25 54.75 39.9
Q 54.65 39.55 54.75 39.2
L 54.65 39.1
Q 54.6244140625 39.0744140625 54.6 39.05 54.4 38.5 54.05 38.6
L 54 38.6
Q 53.903125 38.6052734375 53.65 38.75
L 53.65 38.4 53.4 38.3
Q 53.2 38.4 52.95 39.1
L 52.95 39.15
Q 52.876953125 39.15 52.8 39.15
L 52.7 39.4
Q 52.8 39.85 52.45 39.95
L 52.35 39.65 52.3 39.6 52.7 39 52.8 38.75 54.6 36.6 54.6 36.5
Q 54.3 36.15 53.7 36.15 52.9 36.35 52.6 36.25 53.25 35.8 53.85 34.45 54.3 33.4 56.1 32.5 56.35 32.3 56.1 32.3 55.85 32.05 54.6 32.5
L 53.25 33.05 53.35 32.6
Q 53.35 32.15 53.15 32.4 52.6 33.05 52.1 33.3 52 33.4 51.65 33.55 51.35 33.55 51.45 33.3 51.45 33.05 51.8 32.4
L 52.8 30.8
Q 53.5 29.2 54.15 28.65
L 54.05 28.4
M 46.25 46.2
Q 46.35546875 46.2 46.4 46.2 46.362890625 46.287109375 46.3 46.35
L 46.25 46.4 46.15 46.35
Q 46.0693359375 46.2423828125 46.1 46.05 46.128125 46.0953125 46.15 46.15
L 46.25 46.2
M 58.9 49.35
Q 59.0623046875 49.356640625 59.3 49.35 59.118359375 49.4431640625 58.95 49.55
L 58.9 49.35
M 60.2 46.8
L 60.25 46.8 60.2 46.8 60.2 46.8
M 38.3 39.6
L 38.45 39.6
Q 38.5 39.5 38.7 39.8
L 38.75 39.85 38.9 39.8 39.1 40
Q 39.1 40.1 39.25 40 39.45 39.9 39.6 40 39.7900390625 40.0951171875 39.75 40.3 39.7263671875 40.2736328125 39.65 40.35
L 39.65 40.35
Q 39.475390625 40.5009765625 39.5 40.6
L 39.1 40.6
Q 38.7318359375 40.6 38.7 41
L 38.55 41.1
Q 38.5 40.7 38.35 39.8 38.328125 39.70703125 38.3 39.6
M 39.35 41.25
Q 39.511328125 41.186328125 39.6 40.95 39.65859375 40.9646484375 39.7 40.95 39.890625 41.1720703125 40.15 41.45 40.3 41.65 40.3 42.15 40.25 42.8 39.9 42.5 39.407421875 41.9251953125 39.35 41.25
M 36.45 51.8
L 36.4 51.75
Q 36.458984375 51.695703125 36.5 51.6
L 36.55 51.65
Q 36.4779296875 51.68828125 36.45 51.8
M 37.6 51.95
Q 37.28203125 51.791015625 36.9 51.7 37.1888671875 51.3328125 37.55 51.25 37.83046875 51.62734375 37.6 51.95
M 40.1 55.8
Q 40.05 55.7 40.15 55.7
L 40.5 55.85 40.6 55.8
Q 40.68828125 55.694140625 40.75 55.55 41.0529296875 55.8658203125 41.65 55.7 41.75625 55.6734375 41.85 55.65 41.8791015625 55.8291015625 42 55.95
L 42.15 55.9
Q 42.31484375 55.669140625 42.35 55.3 42.5650390625 55.09765625 42.65 54.8
L 42.8 54.85
Q 42.83359375 54.7828125 42.85 54.7 42.919921875 54.83671875 43.05 54.75 43.080859375 54.7146484375 43.1 54.65 43.12890625 54.7076171875 43.15 54.75
L 42.8 56.1
Q 42.55 56.45 41.9 56.6
L 40.75 57.05 40.65 57.2
Q 40.544921875 57.7251953125 39.85 57.9 39.884765625 57.8365234375 39.9 57.7 39.95 57.4 39.55 57.2 39.65 57 39.75 56.65 39.85 56.3 40.1 56.15
L 40.15 56 40.1 55.8
M 38.6 57.1
Q 38.75 56.95 38.95 57 38.85 57 38.95 57.1
L 39.05 57.1 39.15 57.15 39.2 57.2 39.15 57.65
Q 39.1208984375 57.9119140625 39.25 58.05 39.215625 58.0451171875 39.15 58.05 38.65 58 38.4 58.35
L 38.2 58.4 38.1 58.5 38.1 58.25
Q 38 58.15 38.3 58
L 38.4 57.9 38.35 57.8 38.55 57.55
Q 38.65 57.6 38.6 57.45 38.5 57.25 38.6 57.1
M 61.3 50.35
Q 61.2044921875 50.513671875 61.15 50.6 60.8966796875 50.7970703125 60.6 51.25
L 60.25 50.8 60 50.85
Q 59.55 52.25 58.35 51.65
L 59 51.45
Q 59.1 51.15 59.7 50.65 59.956640625 50.4095703125 60.1 50.2
L 60.2 50.25
Q 60.85 50.1 61.3 50.35
M 61.45 59.5
Q 61.47421875 59.576953125 61.5 59.65 61.5408203125 59.7744140625 61.55 59.9
L 61.55 59.9 61.5 59.65 61.35 59.6 61.05 59.65
Q 60.9984375 59.65 60.9 59.55 61.1974609375 59.5841796875 61.45 59.5
M 54.1 58.9
L 54 59 53.95 58.65
Q 54.1779296875 58.7439453125 54.1 58.9 Z"/>
</g>
</defs>

<g transform="matrix( 1, 0, 0, 1, 0,0) ">
<use xlink:href="#Layer1_0_FILL"/>
</g>
</svg>
