
<svg xmlns="http://www.w3.org/2000/svg" version="1.1" xmlns:xlink="http://www.w3.org/1999/xlink" preserveAspectRatio="none" x="0px" y="0px" width="100px" height="100px" viewBox="0 0 100 100">
<defs>
<g id="Layer1_0_FILL">
<path fill="#000000" stroke="none" d="
M 50.9 29.3
Q 50.65 31.3 50.9 31.8 50 31.8 48.85 32.5 48.55 32.75 47.95 33.15 48.05 31.85 47.55 29.9 47.55 29.55 47.05 27.35 46.7 27.45 45.9 29 45.4 30.05 45.15 30.7 44.85 30.45 44.75 30.3 44.35 29.65 44.2 29.8
L 43.75 30.65
Q 42.7 32.7 42.6 32.95
L 40.9 30.55
Q 40.75 30.15 40.5 30.65 40.05 31.3 40.15 31.35 40.05 31.8 39 33 38.25 34 38.1 34.75 36.8 32.95 33.85 32.25 32.25 31.8 31.7 31.6 31.1 31.35 31.55 32.7 31.55 35.4 31.8 36.95 31.7 37.2 31.6 37.35 31.3 36.6 30.3 35.7 28.4 34.15 28.1 33.4 27.9 32.7 27.35 34.55
L 26.95 36.4
Q 26.6 37.75 27.45 40.15 26.75 39.65 25.8 39.5 25.6 39.5 24.15 39.25 23.1 39.15 22.4 38.75 21.85 38 21.7 38 20.95 37.95 22 40.8 22.35 41.8 24.45 43.1 23.15 43.2 22.15 44.5 20.55 46.5 20.35 46.7 19.95 46.95 21.2 47.05 21.75 46.95 22.6 46.95 23.65 46.9 24.65 46.55 24.7 46.7 24.8 46.8 24.25 48.3 24.4 50.15 24.45 51.75 24.7 51.9 24.8 52.05 25.45 51.4 25.85 51.05 26.2 50.65 25.85 51.4 26.1 52.2 26.1 52.45 26.6 53.95
L 26.7 54.3
Q 24.4 54.45 24.4 54.5 25.35 55.35 25.55 55.6 26.2 56.75 26.75 57.15 25.55 57.3 24.3 58.7 22.5 60.35 22.5 60.45 24.9 60.95 25.05 61 26.6 61.4 27.85 61 26.6 62.65 27.45 64.3 28.1 65.2 28.15 65.7
L 28.25 66.5
Q 28.65 66.9 29.75 64.95 30.7 63.05 30.7 62.3 31.05 62.5 32.05 62.75 32.2 63.95 32.2 64.6 31.85 66 32.1 66.1 32.35 66.35 34 65.1 35.65 63.95 35.8 63.4 36.15 63.95 36.45 64.4 36.55 64.45 36.55 64.55 36.6 64.8 36.8 64.55
L 36.85 64.6
Q 35.95 65.2 35.55 66.25 35.3 67.5 35.05 68.15 34.75 68.9 34.65 69.05 34.5 69.3 35.3 69.4 36.85 69.3 38.1 68.9 38.1 69.55 38.7 71.75 38.85 72.2 39 72.65 39.35 73.35 39.35 72.9 39.6 72.35 40.8 71.6 42.1 70.7 42.45 70.3 45.1 74.55 45.55 74.55 45.8 74.55 47.2 72.5 48.1 71.6 48.45 70.55 48.6 70.7 50 71.1 50.4 71.1 50.85 71.7 51.15 72 51.3 72 51.75 72.2 51.9 70.05 51.9 68.15 51.65 67.65 51.75 67.6 52 67.6
L 52.05 67.65
Q 53.45 69.4 53.7 69.65 53.95 70.3 54.1 70.1
L 54.7 69.4
Q 54.85 69.05 55 68.9 55 69.05 55.1 69.2 55.25 69.55 55.9 71.6 56.25 71.6 56.9 69.95 57 69.45 57.05 69.15
L 57.55 69.7
Q 57.7 70.35 58.05 69.9 58.4 69.15 58.4 69.05 58.55 68.75 59.7 67.6 60.5 66.65 60.7 65.95 61.85 68 64.7 68.9 66.25 69.4 66.75 69.8 67.35 70.1 67.1 68.55 67.35 65.85 67.4 64.45 67.35 64.2 67.35 63.95 67.75 64.7 68.65 65.75 70.35 67.5 70.45 68.3 70.6 69.15 71.35 67.35
L 72.1 65.6
Q 72.4 64.2 71.85 61.75 72.6 62.25 73.4 62.55 73.55 62.55 75.2 63 76.2 63.15 76.75 63.55 77.2 64.4 77.5 64.45 78.15 64.6 77.45 61.6 77.2 60.7 75.2 59.2 76.55 59.1 77.7 57.95 79.4 56.15 79.65 56 80.15 55.75 79 55.6 78.35 55.6 77.5 55.45 76.55 55.45 75.45 55.65 75.3 55.45 75.2 55.45 75.95 53.85 76.05 52.15 76.05 50.5 75.95 50.35 75.85 50.25 75.15 50.75 74.7 51.05 74.3 51.4 74.7 50.75 74.55 49.85 74.65 49.7 74.25 48.05
L 74.25 47.7
Q 76.45 47.95 76.55 47.65 75.6 46.8 75.55 46.65 74.9 45.4 74.45 44.85 75.6 44.9 77 43.6
L 79 42.05
Q 76.85 41.4 76.55 41.2 75.15 40.55 73.8 40.9 75.15 39.35 74.65 37.75 74.05 36.8 74 36.2
L 74.05 35.4
Q 73.75 35 72.35 36.85 71.1 38.6 70.95 39.25 70.85 39.1 69.8 38.85 69.7 37.55 69.9 36.8 70.3 35.55 70.1 35.45 69.8 35.15 68.05 36.3 66.45 37.2 66 37.7 65.85 37.1 65.45 36.7 65.45 36.6 65.5 36.55 65.5 36.3 65.3 36.55 65.2 36.45 65.1 36.45 66.25 35.95 66.75 34.9 67 33.65 67.4 32.95 67.75 32.25 67.9 32.2 68 31.85 67.25 31.8 65.5 31.7 64.4 32.1 64.45 31.3 64.15 29.05 64.05 28.6 63.95 28.15 63.8 27.35 63.55 27.85 63.3 28.4 62 29 60.5 29.75 60.2 30.2 58.15 25.55 57.55 25.55 57.3 25.55 55.65 27.45 54.7 28.35 54.45 29.25 54.1 29 52.7 28.5 52.45 28.35 52.15 27.9 51.75 27.5 51.65 27.45 51.3 27.35 50.9 29.3 Z"/>
</g>
</defs>

<g transform="matrix( 1, 0, 0, 1, 0,0) ">
<use xlink:href="#Layer1_0_FILL"/>
</g>
</svg>
