
<svg xmlns="http://www.w3.org/2000/svg" version="1.1" xmlns:xlink="http://www.w3.org/1999/xlink" preserveAspectRatio="none" x="0px" y="0px" width="100px" height="100px" viewBox="0 0 100 100">
<defs>
<g id="Layer1_0_FILL">
<path fill="#000000" stroke="none" d="
M 65.3 21.3
Q 65.05 21.3 65.15 21.6 65.3 21.8 65.2 21.85
L 65.05 21.95
Q 64.75 21.95 64.6 22.3 64.15 21.8 63.8 22.3
L 63.75 22.25 63 21.8
Q 62.85 21.6 62.55 21.6
L 62.15 21.8
Q 62.3 21.05 61.9 21 61.65 21 61.65 21.15 61.75 21.35 61.75 21.45
L 61.6 21.65
Q 61.5 21.6 61.45 21.65 61.3 21.8 61.2 21.8
L 59.5 21.15
Q 59.45 20.75 59.3 20.75 59 20.75 58.85 20.85
L 58.45 20.6
Q 58.55 20.25 58.3 19.95 57.6 19 56.85 19.3
L 56.75 19.15 56.75 19.05
Q 56.6 18.7 56.55 18.7 56.4 18.55 56.4 18.9
L 56.2 18.75
Q 56.1 18.6 55.95 18.6 55.75 18.55 55.75 18.4 55.6 18 55.2 18.1 55.15 18 55.3 17.8 55.35 17.6 55.2 17.5 55.05 17.35 54.9 17.8
L 54.4 17.8
Q 54.4 17.75 54.45 17.5 54.55 17.35 54.4 17.3 54.25 17.15 54.1 17.15 54.05 17.15 53.95 17.35
L 53.2 17.3
Q 53.05 17.2 53 17.15 52.85 17.05 52.7 17.15 52.5 16.9 52.2 17.05 52.05 17.15 51.75 17.5 51.45 17.45 51.45 17.9 51.05 18.1 50.9 17.8 50.85 17.6 50.75 17.45 50.65 17.35 50.5 17.2
L 50.5 17.5
Q 50.5 17.75 50.55 17.8
L 50.7 18.1
Q 50.55 18.3 50.2 18.3 50.1 18.1 49.95 18.1 49.8 18.25 49.75 18.3
L 49.5 18.3
Q 49.5 17.9 49.45 17.8 49.35 17.8 49.3 18.1 49.2 18.3 49.05 18.3 48.9 18.15 48.65 18.25 48.35 18.4 48.2 18.3 47.5 17.75 47 18.15 46.65 18.3 47 18.7 47.05 18.9 47.3 19 47.35 19 47.6 19
L 47.6 19.05
Q 47.5 19.5 47.75 19.65 47.8 20 48.1 19.95
L 48.1 20.6 48.2 20.85 47.95 21.3
Q 47.8 21.5 47.6 21.3 47.65 20.85 47.35 20.45
L 47.2 20.15
Q 47.2 20 47.3 19.85 47.3 19.75 47.2 19.65 47 19.5 46.95 19.8
L 46.8 20.3
Q 46.65 20.55 46.35 20.25 46.05 20 45.8 20.15 45.65 20.25 45.6 20.3 45.45 20.4 45.5 20.6 45.5 20.7 45.45 20.85 45.35 20.9 45.35 21
L 45.35 21.2
Q 45.2 21.15 45.15 21.15 45 21.15 45 21.2 44.95 21.45 45.05 21.5 45.3 21.6 45.3 21.75 45.2 21.8 45.3 21.95 45.35 22.1 45.2 22.15 45.15 22.15 45.05 22.1 44.95 22.1 44.85 22 44.4 21.5 44.25 22.25
L 43.6 22.7
Q 43.5 22.6 43.45 22.55 43.3 22.45 43.2 22.6 42.95 22.4 42.7 22.85
L 42.5 23
Q 42.4 22.85 42.1 22.45 41.95 22.3 41.65 22.85
L 41.15 23
Q 40.8 23 40.65 22.75 40.55 22.4 40.5 22.4 40.5 22.3 40.4 22 40.35 21.8 40.2 21.85 39.95 22.1 40.2 22.6
L 40.25 23 40.25 23.05 39.95 23.5
Q 39.6 23.65 39.25 23.3
L 39.1 23.15
Q 39.15 22.45 38.95 22.45 38.55 22.55 38.4 22.55
L 38.35 22.45
Q 38.25 22.45 38.2 22.55 38.1 22.6 38.1 22.75 38.1 22.9 38.2 22.9 38.25 23 38.35 23 38.4 23 38.4 23.05 38.35 23.3 38.35 23.5 38.25 23.7 38.2 23.85 37.95 23.5 37.9 23.5 37.75 23.35 37.65 23.5 37.5 23.7 37.25 23.85 36.95 24 36.8 24.15 36.65 24.25 36.65 24.3 36.65 24.55 36.65 24.6
L 35.9 24.85
Q 35.55 25 35.55 25.35 35.4 25.3 35.15 25.35
L 34.85 25.5 34.65 25.5
Q 34.55 25 34.2 25.2 34.05 25.3 34.05 25.45 34.2 25.55 34.2 25.7
L 34.1 26
Q 34.05 26.1 34.05 26.25 34.1 26.4 34.1 26.45
L 34.1 26.85
Q 33.95 27.05 34.05 27.2 34.05 27.3 34.25 27.4 34.55 27.65 34.8 27
L 35 26.7
Q 35.25 26.75 35.3 26.45 35.4 26.1 35.45 26 35.45 26.4 35.75 26.3 35.95 26.1 36.05 26.25
L 36.25 26.7
Q 36.35 27.05 36.1 27.35
L 36.05 27.35
Q 35.95 27.35 35.8 27.65
L 35.65 27.7
Q 35.4 27.95 35.25 28 34.85 28.25 34.65 28.15 34.65 28.25 34.85 28.45 35 28.6 34.95 28.85 34.85 29 34.65 29.05 34.4 29.05 34.35 29.2 33.55 29.5 33.25 29.85
L 32.95 29.5 32.8 29.05
Q 32.85 28.45 32.7 28.3 32.7 28.25 32.7 28 32.7 27.85 32.55 27.85
L 32.5 27.65 32.5 27.55 32.65 27.35
Q 32.7 27.3 32.95 27.2 33.15 27.05 33.25 26.85 33.3 26.55 33.1 26.4 33 26.4 33 26.45 32.95 26.6 32.95 26.7 32.85 26.85 32.8 26.9 32.7 27 32.55 27.05
L 32.2 27.15
Q 32.1 27.05 31.9 27 31.9 26.9 31.75 26.7 31.7 26.55 31.6 26.4 31.6 26 31.4 26.3 31.3 26.3 31.25 26.4 31.1 26.55 31 26.55 30.85 26.6 30.8 26.85 30.8 27.15 30.8 27.3 30.35 27.4 30.1 27.65 29.95 27.85 30.1 28.3
L 30.1 28.6
Q 30.1 29.05 29.9 29.05 29.55 28.7 29.45 29.2
L 29.3 29.05
Q 29.25 28.6 29 28.6 28.95 28.6 28.8 28.75 28.7 28.85 28.65 28.85
L 28.4 28.85
Q 28.2 28.85 28.1 29 28 28.9 27.9 28.9 27.75 28.85 27.7 29.05
L 27.15 29.25
Q 27.15 28.9 26.95 29.05 26.8 29.05 26.8 29.2 26.8 29.4 26.8 29.5 26.7 29.65 26.65 29.65 26.5 29.4 26.35 29.55 26.2 29.7 26.05 29.8 26 29.8 25.85 29.95 25.75 30.1 25.6 30 25.6 29.8 25.4 29.85 25.15 29.7 25.1 29.7 24.95 29.55 24.8 29.8
L 24.5 30 24.4 30
Q 24.35 30 24.3 30.15 24.3 30.3 24.5 30.4
L 24.8 30.45 24.95 30.7
Q 24.95 30.85 25 30.9 24.95 31 24.65 31.15 24.35 31.25 24.35 31.5 24.15 31.7 24 31.5 23.9 31.35 23.85 31.35 23.7 31.35 23.6 31.35
L 23.4 31.55
Q 23.3 31.35 23.15 31.35 23 31.35 22.95 31.25 22.8 31.4 23 31.7 23.15 31.95 22.95 32 22.65 32.1 22.5 32.55 22.45 32.75 22.65 32.85 22.85 33 22.85 33.05 23 33.4 23.3 33.4 23.45 33.5 23.85 33.4 23.85 33.55 24 33.7 24.2 33.85 24.55 33.85 24.7 33.85 25.15 33.85 25.4 34.45 25.7 34.4
L 25.85 34.7
Q 25.55 34.75 25.6 35.05 25.7 35.2 25.75 35.2 25.85 35.2 26 35.2
L 26.05 35.2
Q 26.15 35.1 26.2 34.85 26.25 34.55 26.4 34.45 26.55 34.55 26.7 34.3 26.95 34.1 27 34.15 27.1 34.15 27.15 34.45 27.15 34.75 27.4 34.7 27.55 34.75 27.6 35.05 27.55 35.25 27.6 35.35 27.85 35.4 27.9 35.5 28 35.65 28 35.85 27.85 36 27.9 36.1 27.9 36.15 28.05 36.3
L 27.9 36.75 28 37.05 28 37.35 28.05 37.4 28 37.5 28 37.35
Q 27.75 37.8 27.6 37.85
L 27.4 37.7
Q 27.3 37.35 26.95 37.4
L 26.8 37.2
Q 26.65 37.1 26.5 36.75
L 26.4 36.55
Q 26.25 36.4 26 36.45 25.9 36.55 25.85 36.55 25.75 36.55 25.75 36.75
L 25.55 36.8 25.55 36.9 25.25 37.2 24.95 37.05
Q 24.7 36.95 24.55 37.2 24.15 37.05 24.05 37.55
L 23.85 37.35
Q 23.85 37.1 23.75 37.05 23.7 36.95 23.45 36.9 23.15 36.8 23 36.9 22.95 37.1 23.1 37.55 23 37.55 23 37.85 22.95 38 22.7 38 22.5 38.1 22.5 38.4
L 22.3 38.4 22.15 38.1
Q 22.05 37.95 21.85 38.15 21.85 38.3 21.7 38.25 21.55 38.25 21.45 38.1 21.3 37.8 21 37.8 20.7 37.8 20.55 37.95 20.45 38.1 20.55 38.3
L 20.85 38.6 20.85 38.9
Q 20.65 38.9 20.65 39.25 20.55 39.35 20.45 39.35 20.3 39.35 20.2 39.35 19.9 39.2 19.85 39.7
L 19.45 39.7
Q 18.95 39.95 18.85 40.15 18.8 40.4 19 41.1 18.95 41.2 19 41.2
L 18.95 41.55 18.5 41.5 18.35 41.5
Q 18.2 41.5 18.35 41.7 18.35 41.95 18.15 42.15 17.85 42.4 17.9 42.75 17.7 42.75 17.7 43.05
L 17.55 43.1 17.45 43.25
Q 17.3 43.1 17.25 43.05 17.1 42.95 17 43.2
L 16.95 43.2
Q 16.85 43.55 16.65 43.95 16.2 44.45 16.2 44.5 15.9 44.65 15.9 44.95 16.05 45.4 16.05 45.55
L 15.9 45.95 15.85 45.95 15.75 46.35
Q 15.6 46.35 15.7 46.6
L 15.7 46.9
Q 15.1 47.1 14.75 46.5 14.65 46.35 14.5 46.45 14.35 46.65 14.5 46.75 14.6 46.95 14.75 47.5 14.95 48 15.1 48.15
L 15 48.35 14.9 49.25 14.75 49.25
Q 14.6 49.5 14.6 49.85 14.45 49.85 14.45 50 14.35 50.6 14.35 50.9 14.45 51.4 14.8 51.65 14.9 51.85 14.9 51.9 14.8 53.05 15.45 52.9 15.3 53.35 15.25 53.4 15.1 53.7 14.9 53.65
L 14.65 53.55 14.6 53.35
Q 14.5 53.2 14.45 53.4 14.3 53.65 14.35 53.75 14.45 54.05 14.6 54.15 14.6 54.65 15.1 54.75 15 55.2 15.25 55.65 15.3 55.9 15.55 56.45 15.55 57.4 16.15 57.35
L 16.35 57.35 16.35 58
Q 16.3 58.3 16.45 58.35 16.5 58.45 16.75 58.5 16.8 58.65 16.8 58.75 16.85 58.95 16.95 58.95 17.25 59.1 17.4 59.6 17.6 60.3 17.7 60.45 17.55 60.5 17.55 60.75
L 17.55 61.1 17.25 61.3
Q 17.1 61.45 17.25 61.75
L 17.25 62
Q 17.1 62.05 17 62.05 16.95 62.2 17.1 62.35 17.15 62.5 17.3 62.35
L 17.55 62.15
Q 18 62.3 18.15 62.6 18.15 62.65 18.2 62.65 18.3 62.75 18.3 63.2 18.3 63.55 18.35 63.7 18.45 63.75 18.35 63.85 17.85 64.3 18.45 64.6
L 19.1 64.8
Q 19.15 65.05 19.3 65.05 19.55 65.05 19.6 65.05 19.7 65.45 20.05 65.3
L 20.45 65.3
Q 20.5 65.4 20.65 65.45
L 20.85 65.55
Q 21.85 65.6 22.2 66.6 22.2 66.75 22.3 66.8
L 22.5 66.8
Q 22.8 66.9 22.7 67.15 22.45 67.45 22.65 67.9 22.7 67.85 22.8 67.7 22.8 67.55 22.8 67.3
L 23 67.3
Q 23.25 67.6 23.3 67.6 23.4 67.6 23.45 67.4 23.6 67.4 23.85 67.1 24 66.8 24.15 66.8
L 24.2 66.9
Q 24.2 67.15 24.2 67.3 24.2 67.6 24.35 67.75 24.55 67.75 24.65 67.85 25.25 68.2 26.2 67.85 26.2 68.2 26.4 68.2 26.7 68.15 26.8 68.2 26.85 68.45 27.25 68.5 27.3 68.75 27.55 68.85 27.1 69.45 27.7 69.7 27.75 69.75 28.35 70.2 28.35 70.35 28.55 70.35
L 28.95 70.75
Q 29.15 70.85 29.25 71.15 29.3 71.3 29.55 71.4 29.85 71.9 30.4 72.3 30.7 72.5 30.7 72.05 30.7 71.1 31.4 71.45
L 31.95 71.85 32.1 72.15
Q 32.05 72.2 31.9 72.2 31.75 72.2 31.7 72.35 31.75 72.5 31.9 72.5 31.95 72.45 32.1 72.35 32.35 72.8 32.35 72.95 32.55 73.1 32.85 72.8 32.95 72.65 33.1 72.7
L 33.3 72.85
Q 33.55 73 33.6 73.1 33.75 73.15 33.9 73.15
L 33.8 73.75
Q 33.8 74.15 34.1 74.05 34.2 74.2 34.4 74.2 34.65 74.3 34.7 74.35
L 34.7 74.7
Q 34.5 74.7 34.4 74.95 34.35 75.25 34.25 75.45 34.85 75.45 34.85 74.7
L 35.1 74.65
Q 35.3 75 35.45 75 35.65 75 35.8 74.55 35.9 74.2 36.2 73.75 36.55 73.3 36.65 73
L 36.8 73
Q 36.85 72.7 37 72.85 37.15 72.65 37.5 72.65 37.65 72.7 37.95 72.95 38.2 73 38.35 73
L 38.4 73
Q 38.55 73 38.85 72.8 39 72.7 39.25 72.5
L 39.1 72.35
Q 39.4 71.3 39.9 71.4 40.1 71.4 40.2 71.1
L 40.1 70.95 40.25 70.95
Q 40.55 71.15 40.85 71.25 41 71.6 41.35 71.6 41.8 71.6 41.95 71.75 42.1 72.05 42.35 72.05 42.5 72.05 42.8 72 42.95 72.15 43.1 72.65 43.2 73 43.35 73.15
L 43.45 73.25
Q 43.5 73.4 43.6 73.55 43.65 73.85 43.8 73.7 44.1 73.7 44.2 73.9 44.35 73.9 44.4 74 44.55 74 44.8 74.05 45 74.05 45.15 73.9 45.35 73.9 45.5 73.6 45.5 73.45 45.6 73.1 45.8 72.7 46.1 72.8 46.25 72.8 46.55 73 46.7 72.8 46.95 72.95 47.2 73.1 47.3 73.1 47.35 73.15 47.5 73.7 47.65 74.2 47.95 74.2 48.2 74.2 48.25 74.45 48.5 74.85 48.65 74.95
L 48.7 74.35 48.8 74.35
Q 49.3 74.2 49.65 74.35 50.55 74 51.05 74.85 51.15 75.1 50.9 75.4 50.75 75.7 50.75 75.9
L 50.85 75.9
Q 50.55 76.4 50.4 76.5
L 50.2 76.85 49.65 76.85
Q 49.65 76.5 49.3 76.55 49 76.55 49 76.65 48.9 76.65 49 76.95 49.05 77 49.2 77.1 49.35 77.1 49.35 77.15 49.6 77.7 49.35 78.05
L 49.65 78.55
Q 49.6 79 49.8 79.1 49.95 79.15 50.25 79.25
L 50.55 79.25
Q 50.65 79.6 50.75 79.55 51 79.4 50.9 78.95 51.15 78.85 51.2 78.7
L 51.8 78.05
Q 51.95 78.2 52.05 77.9 52.1 77.6 52.25 77.6
L 52.55 77.25
Q 52.75 77 52.7 76.7 53 76.95 53.05 76.95 53.15 76.85 53.3 76.4
L 53.3 76.2
Q 53.65 76.5 53.8 76.2
L 54.05 76.4
Q 54.2 76.65 54.45 76.55 54.85 76.5 54.9 76.55 55.05 77.3 55.5 77
L 55.6 77.25
Q 55.65 77.25 55.9 77.45 56.1 77.6 56.25 77.4 56.7 77.3 56.85 77.6 56.9 77.7 57 78 57.05 78.25 57.2 78.35
L 57.35 78.85 57.5 78.85
Q 57.5 78.7 57.75 78.65 57.9 78.55 57.9 78.35 57.95 78.25 58.2 78.15 58.3 78 58.25 77.75
L 58.4 77.75
Q 58.45 77.9 58.4 78.15 58.3 78.4 58.4 78.55 58.45 78.65 59 79.15 59.3 79.6 59.6 79.75 59.65 79.6 59.65 79.45
L 59.95 79.55
Q 60.05 79.55 60.15 79.55 60.3 79.6 60.4 79.7 60.15 79.75 60.15 79.9
L 60.05 79.9
Q 60.05 80.25 60.25 80.4
L 60.6 80.95 60.85 81.1 61 81.1
Q 61.05 81.15 61.05 81.1 61.2 80.95 61.45 81 61.75 81.1 61.8 80.95
L 62.15 80.95 62.15 80.55
Q 62.4 80.7 62.4 80.55 62.4 80.5 62.4 80.2
L 62.55 80.2
Q 62.85 80.5 63.3 80.35 63.65 80.15 63.95 79.6 64.15 79.55 64.15 79.25 64.1 79.15 64 79.15 63.9 79.15 63.9 79.1 64 79.15 64.1 79.15
L 64.15 79.1
Q 64.3 79.1 64.45 79.1
L 64.85 79.1 65.15 78.55 65.5 78.55
Q 65.5 78.25 65.5 78.05 65.85 78.2 65.95 77.9 66 77.7 65.85 77.45 65.8 77.4 65.65 77.25
L 65.6 77
Q 65.75 76.8 65.8 76.3 65.95 75.7 66.1 75.55 66.1 76.15 66.3 76.15 66.45 76.15 66.75 75.9 67.05 76 67.15 76.2 67.2 76.35 67.35 76.4 67.5 76.4 67.6 76.5 67.7 76.65 67.7 76.5
L 67.7 76.2 67.85 76.2
Q 68 76.4 68.3 76.3 68.45 76.4 68.7 76.4 68.75 76.35 69.05 76.35
L 69.15 76.2
Q 69.15 76.15 69.15 76.05 69.2 75.9 69.35 75.7 69.5 75.4 69.7 75.4
L 69.5 75
Q 69.5 74.95 69.65 74.8 69.7 74.65 69.8 74.55
L 69.65 74.55
Q 69.5 74.55 69.5 74.45 69.45 74.3 69.2 74.2 69.05 74.05 69 73.9
L 69.05 73.7
Q 69.3 73.75 69.7 73.45
L 69.85 73.4
Q 70 73.25 70.45 72.95
L 70.45 73
Q 70.55 73 70.6 72.95 70.75 72.85 70.85 73 70.75 73.45 71.05 73.45 71.3 73.75 71.35 73.7 71.5 73.4 71.3 73.15 71.2 72.95 71.05 72.85 71 72.7 70.7 72.7
L 70.7 72.35
Q 70.75 72.35 70.85 72.2 70.85 72.15 70.85 72.05
L 70.7 71.85
Q 70.75 71.75 70.85 71.75 70.9 71.7 71.05 71.7
L 71.3 71.7 71.45 71.15
Q 71.55 71.15 71.55 71.1 71.65 71 71.5 70.85 71.55 70.6 71.45 70.5 71.2 70.45 71.2 70.35
L 71.3 70.2
Q 71.85 70.35 71.65 69.55 71.95 69.4 72 69.15
L 71.95 69 72 68.85
Q 72.4 69.25 72.7 69.15
L 72.7 68.85
Q 72.75 68.8 72.9 68.65 73 68.45 73.05 68.35
L 73.35 68.35
Q 73.5 68.5 73.65 68.45 73.8 68.3 73.85 68.35 73.95 68.35 74 68.65 74 68.95 74.25 68.95 74.25 68.85 74.15 68.5 74.1 68.3 74.25 68.15
L 74.6 68.45
Q 74.7 68.5 74.75 68.45
L 74.85 68.35
Q 75.2 68.35 75.35 68.2
L 75.4 68.2
Q 75.55 68.3 75.95 68.6 76.25 68.8 76.55 68.5
L 76.6 68.5 76.6 68.6
Q 76.75 68.85 76.9 68.75
L 77.05 68.5
Q 77.1 68.45 77.05 68.3 76.9 68.15 77 68.05 77.2 67.9 77.55 67.9 77.8 67.9 78.15 68 78.45 67.9 78.45 67.85 78.3 67.25 78.6 67.1 79.05 66.95 79.05 66.9 78.95 66.75 78.75 66.65 78.55 66.6 78.45 66.45
L 78.6 66.2
Q 78.7 66.05 78.9 66.05 79.05 66 79.1 65.85
L 79.25 65.75
Q 79.35 65.7 79.65 65.7 79.85 65.7 79.8 65.25 79.8 65.05 79.65 64.9 79.55 64.8 79.35 64.75 79.2 64.5 79.2 64.3 79.2 64 79.4 63.85 79.5 63.85 79.95 63.6
L 78.95 62.6
Q 78.9 62.5 78.9 62.3 78.85 62.15 78.7 62.15
L 78.4 62.05 77.95 62.2
Q 77.8 62.05 77.8 62.3 77.7 62.6 77.65 62.5 77.65 62.35 77.55 62.45 77.55 62.2 77.35 62 77.05 61.7 77.05 61.45 76.85 61.9 76.6 61.85 76.45 61.6 76.25 61.6
L 75.95 61.1 75.95 61.05
Q 75.8 61.05 75.65 60.9 75.55 60.8 75.4 60.65
L 75.4 60.6
Q 75.55 60.35 75.55 60 75.55 59.75 75.4 59.75 75.2 59.7 75.15 59.6 74.9 59.35 74.7 59.4 74.55 59.45 74.15 59.6 74.1 59.45 73.95 59.4 73.7 59.35 73.35 59.45 73.2 59.55 72.85 59.6 72.45 59.2 72.15 59.4
L 72 59.1 71.95 59.2 71.95 59.1 72 59.1
Q 72.25 58.95 72.15 58.75 72.1 58.6 71.95 58.65 71.85 58.65 71.7 58.65
L 71.65 58.75
Q 71.55 58.9 71.55 59.2 71.55 59.45 71.45 59.55 71.35 59.55 71.2 59.85 71.05 60.15 70.9 60.05 70.85 60.05 70.75 59.85 70.6 59.55 70.45 59.75 70.3 59.7 70.15 59.45 70.25 59.2 70.1 59.1 69.95 59.2 69.85 59.1 69.7 59.05 69.7 58.8 69.8 58.6 69.7 58.5
L 69.5 58.45 69.65 57.9 69.5 57.6 69.45 57.35 69.35 57.35
Q 69.35 57.25 69.45 57.2
L 69.45 57.35
Q 69.5 56.8 69.65 56.75
L 69.95 56.8
Q 70.1 57.1 70.45 56.9
L 70.6 57.1
Q 70.75 57.1 71 57.4
L 71.05 57.55
Q 71.2 57.7 71.5 57.5 71.65 57.4 71.65 57.35 71.7 57.35 71.7 57.1
L 71.85 56.95 71.85 56.9 72.1 56.5 72.45 56.5
Q 72.7 56.5 72.75 56.2 73.2 56.3 73.2 55.7
L 73.35 55.85
Q 73.4 56.05 73.55 56.15 73.65 56.15 73.85 56.15 74.15 56.05 74.3 55.9 74.4 55.75 74.1 55.35 74.15 55.25 74.1 55.05 74.15 54.9 74.4 54.75 74.6 54.65 74.55 54.35
L 74.7 54.2
Q 74.75 54.3 74.9 54.5 75.05 54.65 75.2 54.3 75.2 54.2 75.35 54.2 75.5 54.15 75.55 54.3 75.8 54.45 76.1 54.35 76.4 54.3 76.45 54.05 76.6 53.9 76.4 53.75
L 76.1 53.55 76 53.35
Q 76.25 53.2 76.15 52.8 76.25 52.65 76.4 52.6 76.55 52.6 76.6 52.6 76.9 52.6 76.9 52.05
L 77.2 51.9
Q 77.65 51.55 77.7 51.35 77.7 51.1 77.4 50.45 77.4 50.35 77.4 50.3
L 77.35 50 77.8 49.85
Q 77.95 49.85 78 49.8 78.1 49.8 77.85 49.65 77.85 49.4 78.1 49.05 78.3 48.75 78.15 48.45 78.4 48.35 78.4 48.1
L 78.55 47.8
Q 78.7 47.85 78.75 47.85 78.9 47.95 78.95 47.65 78.95 47.35 79.2 46.8 79.5 46.15 79.5 46.1 79.8 45.85 79.7 45.55 79.5 45.2 79.4 45.05
L 79.5 44.65 79.65 44.6 79.55 44.15
Q 79.7 44.1 79.65 43.95
L 79.55 43.55
Q 80.1 43.2 80.55 43.65 80.7 43.7 80.75 43.65 80.9 43.4 80.75 43.35 80.6 43.2 80.3 42.65 80.1 42.25 79.85 42.15
L 79.95 41.95 79.95 41.05 80 40.95
Q 80.15 40.75 80.1 40.4 80.25 40.3 80.25 40.15 80.15 39.55 80.1 39.25 79.95 38.8 79.55 38.75 79.4 38.6 79.4 38.45 79.25 37.4 78.7 37.8 78.75 37.35 78.75 37.2 78.9 36.9 79.1 36.8
L 79.25 36.8
Q 79.4 36.95 79.4 37.05 79.55 37.1 79.55 36.9 79.65 36.7 79.55 36.45 79.5 36.25 79.25 36.25 79.2 35.7 78.75 35.8 78.7 35.35 78.4 34.95 78.3 34.75 77.95 34.3 77.8 33.4 77.2 33.7
L 77 33.8 76.85 33.2
Q 76.9 32.85 76.75 32.85 76.6 32.75 76.4 32.85 76.3 32.6 76.3 32.55 76.15 32.45 76.1 32.45 75.8 32.4 75.55 31.95 75.25 31.4 75.15 31.25 75.25 31.15 75.2 31 75.15 30.6 75.15 30.55
L 75.4 30.25
Q 75.5 30.1 75.35 29.8
L 75.35 29.65
Q 75.4 29.5 75.5 29.4 75.5 29.25 75.35 29.2 75.25 29.15 75.2 29.25 75.15 29.25 75.05 29.5
L 75 29.55
Q 74.55 29.65 74.3 29.35 74.15 29.2 74.1 28.9
L 74.1 28.85
Q 74.15 28.85 74.25 28.7
L 74.4 28.7 74.4 28.3
Q 74.7 27.95 74.55 27.8 74.45 27.7 74.15 27.65 74.1 27.55 73.95 27.35 73.85 27.3 73.95 27.2 74.25 26.75 74 26.7
L 73.65 26.45
Q 73.65 26.3 73.4 26.3
L 73.3 26
Q 73.2 25.8 73.15 25.7 73.15 25.8 72.9 25.95 72.75 26.1 72.85 26.3
L 72.85 26.85
Q 72.75 27 72.6 27.05 72.45 27 72.3 27
L 72.3 26.7
Q 72.3 26.45 72.15 26.15 72 25.85 72 25.7
L 71.85 25.3
Q 71.85 25.2 72 25.05 72.15 24.9 72.1 24.7 72 24.55 71.95 24 71.85 23.65 71.7 23.5 71.55 23.35 71.35 23.3
L 71.35 23.15
Q 71.3 23 71.15 23
L 70.85 23 70.55 22.7 70.45 22.7
Q 70.4 22.75 70.15 22.75 70 22.7 69.95 22.85
L 69.8 22.75 69.8 22.85 69.45 22.85
Q 69.3 22.75 69.3 22.6
L 69.2 22.3
Q 69 22.3 68.9 22.4
L 68.75 22.4 68.85 22.25
Q 68.9 22.15 69.05 22 69.15 21.85 69.2 21.75
L 68.9 21.6
Q 68.85 21.5 68.55 21.6
L 68.55 21.5
Q 68.1 21.45 67.95 21.3 67.85 20.9 67.6 20.9
L 67.85 21.65 67.85 21.8
Q 67.85 22.1 67.8 22.45 67.65 22.9 67.6 23.15
L 67.05 23.15 66.9 22.85
Q 66.85 22.7 66.7 22.75 66.7 22.45 66.45 22.45 66.3 22.55 66.15 22.55
L 65.6 22.1
Q 65.6 21.65 65.6 21.6 65.5 21.3 65.3 21.3
M 49.5 19.8
Q 49.5 19.85 49.45 19.85
L 49.35 19.85 49.35 19.8
Q 49.45 19.8 49.5 19.8
M 49.8 19.95
Q 49.95 20 50.1 20.1
L 49.95 20.85 49.65 20.85 49.75 20.6
Q 49.8 20.6 49.8 20.55 50.05 20.25 49.8 19.95
M 50.4 22
L 50.35 22.1 50.35 21.95 50.4 22
M 71.3 48.65
L 71.3 48.75 71.2 48.75 71.3 48.65
M 24.7 45.05
L 24.65 45.1 24.65 45.05 24.7 45.05
M 37 57.4
Q 36.95 57.4 36.95 57.35
L 37 57.25
Q 37 57.35 37 57.4
M 21.15 57.75
Q 20.95 58.05 21 58.15 20.7 58.6 20.8 58.8 20.85 59.05 21.25 59.2 21.25 59.25 21.15 59.25 21.1 59.35 21.1 59.4 20.95 59.35 20.8 59.25
L 20.7 59.2
Q 20.7 59.05 20.65 58.9 20.65 58.65 20.45 58.65 20.45 58.75 20.2 58.75
L 20.3 58.65
Q 20.45 58.6 20.45 58.45 20.45 58.2 20.3 58.05
L 20.3 57.85
Q 20.5 57.6 20.7 57.6 20.95 57.6 21 57.5 21.3 57.6 21.15 57.75
M 64.15 69.7
Q 64.1 69.75 64.1 69.7 64.15 69.7 64.1 69.45
L 64.1 69.4 64.15 69.4 64.25 69.55
Q 64.25 69.6 64.15 69.7
M 60.85 73.9
L 60.85 73.85 60.9 73.85 60.85 73.9
M 76.75 67.9
Q 76.85 67.9 76.85 68
L 76.75 68 76.75 67.9
M 64.55 77.25
L 64.6 77.25
Q 64.6 77.3 64.7 77.4 64.55 77.45 64.4 77.75 64.4 77.45 64.55 77.25
M 64.55 75.15
L 64.6 75.15 64.55 75.25 64.55 75.15 Z"/>
</g>
</defs>

<g transform="matrix( 1, 0, 0, 1, 0,0) ">
<use xlink:href="#Layer1_0_FILL"/>
</g>
</svg>
