
<svg xmlns="http://www.w3.org/2000/svg" version="1.1" xmlns:xlink="http://www.w3.org/1999/xlink" preserveAspectRatio="none" x="0px" y="0px" width="100px" height="100px" viewBox="0 0 100 100">
<defs>
<g id="Layer1_0_FILL">
<path fill="#000000" stroke="none" d="
M 81 43.35
Q 81.75 42.25 81.75 41.4 81.75 40.7 81.2 40.1 80.7 39.5 80.05 39.3 79.1 38.85 77.3 38.85 78.95 36.8 79.45 34.4 79.8 33.1 79.35 32.4 78.6 31.15 75.9 31.8 76.35 30.35 76.35 29.7 76.25 28.4 75.35 27.95 74.7 27.7 73.7 27.95 70.8 28.5 67.9 31 67.5 31.3 67.05 31.8 67.5 30.35 67.35 29.15 67.15 27.6 65.9 27 65.05 26.55 63.5 26.85 61.7 27.2 60 28.15 60.25 27.75 60.3 26.25 60.5 23.9 59.95 22.35 59.5 20.85 58.8 20.15 58.35 19.75 57.7 19.55 57.05 19.45 56.5 19.8 56 20.1 55.65 21 55.25 21.9 52.85 26.75 52.25 25.95 51.6 25.2 50.55 24.05 49.65 23.75 49 23.55 48.35 23.75 47.7 23.9 47.4 24.45 47.2 24.95 47.25 26 47.25 26.25 47.25 26.55 46.2 25.3 44.95 24 41.45 20.35 38.1 22.1 37.6 22.35 37.45 22.85 37.25 23.35 37.4 24.35 37.75 25.8 38.2 27.25 36.3 25.35 34.15 24.5 33.2 24.15 32.55 24.3 31.55 24.6 32 26.4 32.35 28.2 34.8 31.85 28.8 26.9 27.85 28.05 27.35 28.6 27.35 30 27.55 32.4 28.85 34.7
L 28.8 34.7
Q 27 34.4 26.05 34.65 25.3 34.8 24.75 35.35 24.1 35.85 24 36.5 23.8 37.4 24.4 38.55 24.5 38.8 24.65 39.05 23 39 21.55 39.35 20.6 39.55 20.15 40.1 19.5 40.85 20 42.05 20.2 42.7 21.2 43.75 18.55 44.3 18.3 45.75 18.3 46.55 19.1 47.65 20.7 49.65 22.9 50.75 22.15 51.15 21.65 51.45 21 51.85 20.6 52.25 20.05 52.85 19.85 53.55 19.7 54.3 19.95 54.95 20.25 55.7 21.4 56.4 22.75 57.15 24.4 57.55 26.65 58.1 29.5 58.1 29.85 58.1 30.25 58.1 28.55 59.8 27.25 61.7 26.4 63 26.3 63.95 26.35 64.65 26.65 65.25 27 65.85 27.65 65.9 28.15 66.05 29.15 65.75 30.95 65.1 32.75 64.05 32.15 66.1 32.15 67.05 32.15 67.8 32.45 68.45 32.5 68.5 32.55 68.6 32.95 69.3 33.65 69.65 35 70.2 36.55 69.15 37.05 68.95 37.8 68.25 38.65 67.5 39 67.3 39.05 69.3 39.85 71.1 40.35 72.5 41.25 73 42.45 73.7 43.9 73 44.15 72.9 44.5 72.7 45.15 76.5 47 78.85 47.85 79.95 48.55 80.1 49.25 80.3 50 80.05 50.6 79.7 51.1 79.15 51.75 78.5 52.4 76.6 53.8 78.85 55.95 80.05 57.05 80.7 57.9 80.5 59.2873046875 80.153125 59.55 77.45 60.6 78.25 61.35 78.4 62.6 78.7 63.35 78 63.7 77.55 63.85 76.5 64.2 73.5 62.65 70.05 62.4 69.55 62.05 68.9
L 62.15 68.9
Q 63.5 69.95 64.6 70.05 66.2 70.3 67.05 69.35 67.75 68.6 67.95 67.05 68.15 65.1 67.65 63.1 69.55 64 70.5 64.3 72.3 64.85 73.4 63.95 74.6 62.95 74.15 61.05 73.9 60.05 72.7 58.3 74.65 58.75 76.7 58.9 77.6 59.05 78.2 58.7 78.7 58.45 78.95 57.75 79.1 57.1 78.85 56.5 78.65 55.6 77.4 54.5 76.15 53.5 74.8 52.7 72.3 51.15 69.05 50.15 71.75 49.5 74.35 48.25 78.95 46.25 81 43.35 Z"/>
</g>
</defs>

<g transform="matrix( 1, 0, 0, 1, 0,0) ">
<use xlink:href="#Layer1_0_FILL"/>
</g>
</svg>
