
<svg xmlns="http://www.w3.org/2000/svg" version="1.1" xmlns:xlink="http://www.w3.org/1999/xlink" preserveAspectRatio="none" x="0px" y="0px" width="100px" height="100px" viewBox="0 0 100 100">
<defs>
<g id="Layer1_0_FILL">
<path fill="#000000" stroke="none" d="
M 50.25 38.45
Q 50 38.9 49.85 39.35 49.95 39.5 49.85 39.7 49.65 39.65 49.55 39.55 49.25 39.5 48.85 39.5 48.15 39.55 47.6 40.3 47.2 40.85 47.25 41.6 47.15 41.55 47.15 41.5 46.65 41 46.05 40.75 45.8 40.7 45.5 40.6 45.1 40.6 44.8 40.7 44.5 40.8 44.4 41.1 44.3 41.3 44.35 41.55 44.35 41.85 44.6 42.35 44.7 42.5 44.85 42.8 44.55 42.8 44.35 42.95 44 43.05 43.75 43.3 43.35 43.65 43.25 44 43.2 44.15 43.25 44.4 43.2 44.35 43.15 44.35
L 42.4 44.35
Q 42.35 44.3 42.35 44.35 42 44.4 41.85 44.6 41.7 44.8 41.65 45.15 41.65 45.4 41.8 45.75 42.05 46.2 42.45 46.5 42.6 46.7 42.85 46.8 42.6 46.95 42.35 47.1 42.15 47.3 42.05 47.45 42 47.15 41.9 47.05 41.7 46.4 41.4 46.1 40.95 45.65 40.45 45.75 40.15 45.85 39.95 46.1 39.65 46.5 39.65 47.05 39.6 47.5 39.8 47.95 39.8 48.0783203125 39.85 48.15 38.691015625 46.8443359375 37.9 46.35 37.55 46.15 37.25 46.15 36.75 46.05 36.4 46.5 36 46.95 36 47.45 36.05 48.35 37 49.3 36.45 49.1 35.85 49.15 35.25 49.25 34.8 49.6 34.4 49.95 34.45 50.35 34.5 50.65 34.75 50.9 35.4 51.5 36.35 51.65 35.5 51.8 34.95 52.35 34.6 52.55 34.5 52.95 34.35 53.3 34.6 53.6 34.75 53.75 35.05 53.85 35.85 54.05 36.95 53.9 37.15 53.85 37.75 53.7 37.3 53.85 36.9 54.05 35.45 54.85 35.1 56.2 34.95 56.85 35.35 57.15 35.55 57.3 35.9 57.2 36.8 57.2 37.75 56.75 37.75 58.15 38.1 58.95 38.35 59.45 38.8 59.75 39.25 60.15 39.75 60.1 40.2 60.1 40.55 59.85 40.6 59.9 40.65 60.05 40.75 60.5 41.2 60.8 41.7 61.15 42.2 60.95 42.5 60.8 42.65 60.4 42.8 60.15 42.9 59.7 43 59.05 43.1 58.6 43.25 58.7 43.45 58.85 44.15 59.2 45.45 59.45 45.65 59.4 45.75 59.45 45.3 59.7 44.5 60.25 43.65 60.75 43.1 60.85 43.65 61.6 45.35 61.55 46.25 61.65 47.2 61.1 48.15 60.7 48.75 60.05 48.9 60.4 49 60.7
L 49.05 60.8
Q 49.2 60.05 49.05 59.8 49.45 59.65 49.75 59 50 58.7 50.15 58.35 50.2 58.3 50.25 58.35 50.25 58.45 50.35 58.55 50.4 59.5 50.95 60.25 51.25 60.6 51.6 60.65 51.8 60.65 51.95 60.7 51.75 61.55 51.55 62.45 51.5 62.65 51.45 62.85 51.9 61.9 52.55 60.55 52.8 60.6 52.95 60.65 55.05 61.2 55.1 61.05 55.5 61.1 56.2 60.95 57.1 60.6 57.6 60.55 58.7 60.3 59.7 60.85 59.75 60.4 59.1 60.05 58.2 59.75 57.1 59.8 56.65 59.8 56.25 59.95 56.75 59.7 57.4 59.4 58.35 59.2 58.55 59.15 59.3 58.9 59.8 58.6 59.85 58.5 59.95 58.45 60.15 58.55 60.2 58.55 60.75 58.7 61.2 58.8 61.25 59.15 61.4 59.5 61.75 60.05 62.2 60 62.55 60 62.85 59.75 63.2 59.5 63.35 59 63.4 58.85 63.5 58.6 63.5 58.45 63.55 58.35 63.55 58.25 63.55 58.1 64.35 59.45 64.85 60.05 65.15 60.35 65.4 60.55 65.85 60.7 66.35 60.3 66.85 60.05 67 59.5 67.1 58.65 66.5 57.5 67 57.75 67.55 57.95 68.15 57.95 68.7 57.75 69.15 57.5 69.2 57.15 69.25 56.9 69.05 56.5 68.6 55.75 67.75 55.4 68.55 55.45 69.2 55.1 69.6 54.95 69.85 54.65 70.05 54.3 69.9 53.95 69.85 53.8 69.5 53.6 68.85 53.15 67.7 53.05 67.55 53.1 66.9 53 67.35 53.05 67.85 52.9 69.4 52.5 70.1 51.35 70.45 50.75 70.15 50.35 69.95 50.2 69.6 50.15 68.65 49.9 67.7 50.1 68.05 48.75 68 47.95 67.85 47.35 67.55 46.9 67.15 46.45 66.6 46.35 66.2 46.2 65.75 46.4 65.75 46.35 65.7 46.2 65.75 45.7 65.45 45.3 64.95 44.85 64.5 44.9 64.15 44.95 63.95 45.25 63.7 45.55 63.4 45.95 63.25 46.2 63.2 46.5 63.15 46.4 63.1 46.4 62.95 46.1 62.65 45.95 62.4 45.85 62.15 45.75 61.55 45.55 60.8 45.7
L 60.8 45.65
Q 60.65 45.5 60.5 45.4 60.75 45.05 60.85 44.7 60.9 44.3 60.8 44.05 60.7 43.65 60.4 43.4 60.05 43.1 59.7 42.9 58.85 42.55 58 42.95 57.6 43.2 57 43.65 57.8 42.7 58 42.05 58.5 41.1 58.35 40.25
L 58.3 40.15
Q 58.2 39.85 58.05 39.6 57.8 39.35 57.55 39.35 57.35 39.25 57.1 39.4 56.7 39.6 56.45 39.9 56.2 40.2 55.85 40.65 55.7 40.25 55.4 39.85 55.15 39.6 54.8 39.4 54.4 39.15 54 39.2 53.75 39.25 53.45 39.35 52.7 39.7 52.45 40.75 52.403125 40.796875 52.4 40.9 52.39921875 40.4931640625 52.35 40.05
L 52.3 39.6
Q 52.1 38.75 51.75 38.3 51.55 38.05 51.35 38 51.05 37.85 50.75 38 50.5 38.2 50.25 38.45
M 56.05 58.55
Q 56.1 58.6 55.75 58.75
L 55.75 58.8 55.65 58.55
Q 55.7 58.5 55.75 58.55 55.95 58.45 56 58.4 56.2 58.45 56.25 58.5
L 56.05 58.55
M 46.6 57.85
L 46.55 57.8
Q 46.6 57.7 46.7 57.7 46.8 57.75 46.85 57.8
L 46.75 57.9 46.6 57.85
M 46.35 57.65
L 46.3 57.7 46.15 57.55
Q 46.15 57.5 46.35 57.55 46.4 57.55 46.5 57.6 46.5 57.7 46.5 57.8
L 46.35 57.65 Z"/>
</g>
</defs>

<g transform="matrix( 1, 0, 0, 1, 0,0) ">
<use xlink:href="#Layer1_0_FILL"/>
</g>
</svg>
