
<svg xmlns="http://www.w3.org/2000/svg" version="1.1" xmlns:xlink="http://www.w3.org/1999/xlink" preserveAspectRatio="none" x="0px" y="0px" width="100px" height="100px" viewBox="0 0 100 100">
<defs>
<g id="Layer1_0_FILL">
<path fill="#0A0000" stroke="none" d="
M 81.8 52.75
L 81.65 52.35 71.7 46.25 74.25 44
Q 74.65 43.1 75.8 42 76.15 41.65 76.35 41.55 79 38.4 79.25 34.45
L 77.35 33.9 76.75 34.3
Q 73.8 33.65 70.6 34.95
L 68.05 35.65 64.05 38.4 65.05 31.55
Q 64.9 31.35 65 30.4 65.2 29.2 65.25 28.35 65.55 24.1 63.35 20.85
L 61.5 21.55 56.65 26.55 56.05 26.9 55.1 28.6 54.3 30.75 54.6 31.8 53.5 31.9
Q 53.55 31.75 53.45 31.6 53.35 31.4 53.2 31.25
L 52.7 31.35 52.05 32.65
Q 49.5 28.35 45.6 24.75
L 45.1 24.55 43.1 22.95 42.9 22.6 42.15 22.25
Q 41.55 21.35 40.5 20.65 38 18.9 35.3 18.15 33.8 18.65 34.95 21.8
L 34.8 23.1 35.1 23.6 34.95 24.3 35.25 24.7
Q 35.2 25 35.15 25.3 35.1 25.85 35.2 26.35 35.65 29.15 36.75 31.55
L 36.55 32.1 37.4 33.15 37.3 33.5 37.75 34.8 36.75 34.7 35.65 34.2 35.05 34.25 33.85 33.8
Q 32.2 33.7 30.6 33.4
L 27.55 33.45
Q 27.45 33.45 27.35 33.45 27.3 33.35 27.2 33.3
L 26.35 33.5 19 33.8 18.45 34.35 19.5 35.85
Q 19.7 36 19.95 36.15
L 20.3 37.5 21 38.6 21.55 38.85 21.85 39.45 22.35 39.6
Q 23.2 41.7 25.05 42.65 26.9 43.5 27 43.85
L 24.35 44.2 21.8 45.7 21.15 45.8 16.5 48.7 16.3 49.2 19.65 49.55
Q 20.55 49.9 20.25 50.65
L 18.1 51.25
Q 18 51.7 18.5 51.8 23.9 53.05 29.45 53.85
L 29.8 54.1 32.25 54.25 32 54.9 31.2 55.35 30.65 56 29.9 56.25 29.1 57.6 27.85 58.55 26.1 61.45 25.35 61.75 24.85 62.35 24.2 64.45 23.75 64.95 23.5 65.45 23.55 65.85 21.8 70.05 22.45 71.2
Q 24.35 72.05 26.4 71.05 30.85 68.8 35.2 66.35
L 35.65 66.35 38.95 64.3 38.85 66.1 38.55 66.5 38.55 70.5 38.25 71 38.45 71.4 38.45 72.9 37.8 76.45 37.85 78.05 38.3 79
Q 38.1 80.45 39.55 80.75
L 40.25 80.5 40.9 78.85 41.45 78.95 43.65 77.35 44 76.6
Q 44.1 76.6 44.2 76.65 44.3 76.6 44.45 76.5
L 49.6 70.1 50.05 70.5 50.1 70.95 52.55 74.2 52.5 74.65 52.95 74.95 53.9 76.2 53.9 76.25
Q 54.85 79.3 57.4 81.15
L 58.25 82 59.45 81.8 59.85 81.15 59.45 79.4 59.9 79.2 60.85 74.7 61.1 74.2 61.05 73.7 61.15 73.35 60.9 67.45 61.05 66.45 61.85 67.1 62.3 67.15 64.9 68.95
Q 66.6 71 68.95 71.75
L 72.65 74.65
Q 73.7 74.75 74.75 74.4
L 75.3 73.45 75 71.9 75.15 71.4 74.85 71 74.95 70.6
Q 73.9 66.3 72.15 62.5 71.15 60.4 70.1 58.8 69.4 57.75 69.65 57.3
L 72.35 57.15
Q 73.2 57.3 73.9 57.25 75.95 57.7 77.55 56.9
L 82.2 57 83.75 55.5 83.65 54.45 82.45 53.35 82.3 52.9 81.8 52.75
M 55.65 30.35
L 55.55 30.1 55.75 30.1 55.65 30.35
M 25.6 38.35
L 25.6 38.45
Q 24.95 38.1 25.6 38.35
M 54.35 73.05
L 54.35 73.1 54.3 73.1
Q 54.3 73.05 54.35 73.05 Z"/>
</g>
</defs>

<g transform="matrix( 1, 0, 0, 1, 0,0) ">
<use xlink:href="#Layer1_0_FILL"/>
</g>
</svg>
