
<svg xmlns="http://www.w3.org/2000/svg" version="1.1" xmlns:xlink="http://www.w3.org/1999/xlink" preserveAspectRatio="none" x="0px" y="0px" width="100px" height="100px" viewBox="0 0 100 100">
<defs>
<g id="Layer1_0_FILL">
<path fill="#000000" stroke="none" d="
M 43.3 31.25
Q 42.4 28.15 41.35 25.9 40.5 24.15 40.4 24.25 40.35 24.35 42.9 32.25 45.5 42.6 45.5 54.15 45.5 59.05 45.25 65.35 45.2173828125 65.9205078125 45.15 67.25 44.45859375 63.3296875 43.95 61.75 43.0490234375 61.546484375 41.65 62.25 41.6318359375 54.6119140625 41.3 47.7 40.6466796875 54.6783203125 39.9 63.4 39.6490234375 63.60078125 39.4 63.8
L 38.55 64.55
Q 38.6857421875 59.8498046875 39.15 55.3 39.65 51.4 39.6 51.4 37.65 57.1 36.85 64.5 36.519140625 67.8443359375 36.3 73.45 36.176953125 71.11875 36.05 69.85
L 34.95 56.7
Q 39.1845703125 44.0654296875 42.6 35.1 38.4177734375 42.3990234375 34.45 51.05 33.38046875 38.36640625 33 34.8 32.6 40.85 31.65 57.05 31.6265625 57.392578125 31.6 57.7 28.2310546875 65.982421875 24.3 77.15
L 28.15 77.15 30.6 69.75
Q 30.26640625 73.146484375 29.95 74.75 29.7 75.95 30.65 76 31.7 76 31.75 77.05
L 36.2 76.5
Q 36.1685546875 77.1537109375 36.15 77.8
L 38.5 77.05 38.55 65.3
Q 38.5541015625 65.0892578125 38.55 64.85
L 39.65 64.05
Q 39.755078125 63.9763671875 39.85 63.9 39.345703125 69.671484375 38.8 76.2
L 41.5 75.15
Q 41.67109375 68.7572265625 41.65 62.8 42.7328125 62.301953125 42.85 62.8 43.1 63.75 42.85 69.4 42.65 74.65 42.45 76.1
L 44.7 75.9
Q 44.70859375 76.3513671875 45 76.4 45.3 76.4 45.35 75.95 45.3517578125 75.9150390625 45.35 75.85
L 45.4 75.85 45.2 77.7 48.45 77.25
Q 48.4587890625 77.715625 48.45 78.15
L 50.15 78.35
Q 50.19375 77.165625 50.2 76
L 50.25 75.5 51.75 75.25
Q 52.15 73.6 52.4 71.85 52.7703125 69.4962890625 53.05 67.25 52.9248046875 72.130078125 52.95 75.25
L 56.05 75.1
Q 56.45 69.15 56.35 66.25 56.35 62.6267578125 56.35 60.3 56.6525390625 63.8841796875 57.3 68.2
L 58.3 75.3 58.9 75.5
Q 58.75546875 76.6181640625 58.6 77.75
L 59.9 77.75 60.1 75.9 61.6 76.4
Q 61.144921875 73.009375 60.8 70.4
L 61 68.5
Q 61.198828125 70.2845703125 61.35 72.15 61.55 73.7 61.7 76.9
L 66.3 75.9 66.25 75.15 67.3 75
Q 67.3046875 73.86953125 67.3 72.8
L 69.6 72.7
Q 69.3220703125 75.745703125 69.2 77.65
L 72 77.6
Q 72.05 72.45 72.15 67.25 72.45 56.8 72.85 56.45 73.15 56.25 74.2 57.4 75.35 58.7 75.8 58.6 75.1 58.05 73.4 55.8 72.35 54.35 71.9 54.85 71.3916015625 55.4046875 70.5 63.7 70.455859375 61.753125 70.8 56 71.1 50.9 70.9 48.1 70.65 43.95 70.25 41.25 69.8 37.8 68.85 34.35 69.65 42.6 68.45 54.2 67.644140625 62.143359375 67.3 67.1 67.3318359375 60.9431640625 67.3 57.2 67.25 46.9 66.85 39.5 66.05 48 65.65 57.45 65.4927734375 61.22421875 65.3 67.3 64.358203125 61.652734375 62.6 55.7 64.651953125 39.1326171875 66.5 21.8 64.536328125 35.10859375 61.95 53.55 60.4771484375 48.8990234375 58.7 44.75 58.89609375 42.3798828125 59.3 40.15 58.537109375 41.5232421875 57.95 43.05 57.1552734375 41.3001953125 56.3 39.65 56.25 39.7 57.35 44.05 57.4021484375 44.2765625 57.45 44.5 56.380078125 47.9892578125 56.15 52.2 56.125390625 51.82578125 56.1 51.45 55.5 42.65 53.9 36.45 53.967578125 40.9783203125 53.75 48.25 53.4302734375 44.0705078125 52.65 40.4
L 52.6 44.8
Q 52.4 50.35 51.7 56.05 51.68359375 56.1833984375 51.65 56.3 52.14296875 41.8419921875 50.6 29.9
L 50.7 35.15
Q 50.6490234375 38.7388671875 50.35 42.65 49.917578125 32.0541015625 48.6 23.6 48.15 33.6 48.35 50.9 48.400390625 54.9068359375 48.4 58.4 48.1080078125 60.257421875 47.7 62.45 46.54140625 68.447265625 45.95 72.25 45.792578125 71.20390625 45.65 70.25 45.7927734375 67.3583984375 45.9 65.4 46.15 58.95 46.15 54.15 46.1 40.9 43.3 31.25
M 58.55 49.9
Q 59.1111328125 52.74921875 59.55 55.65 60.0880859375 59.365625 60.55 63.6 60.37265625 64.830859375 60.2 66.05 60.149609375 65.6626953125 60.1 65.3 59.15 58.65 58.8 54.25 58.613671875 52.028125 58.55 49.9 Z"/>
</g>
</defs>

<g transform="matrix( 1, 0, 0, 1, 0,0) ">
<use xlink:href="#Layer1_0_FILL"/>
</g>
</svg>
