
<svg xmlns="http://www.w3.org/2000/svg" version="1.1" xmlns:xlink="http://www.w3.org/1999/xlink" preserveAspectRatio="none" x="0px" y="0px" width="100px" height="100px" viewBox="0 0 100 100">
<defs>
<g id="Layer1_0_FILL">
<path fill="#000000" stroke="none" d="
M 84.85 48.95
Q 83.75 47.8 82.95 49.25 82.9 49.4 82.85 49.5 82.75 49.45 82.7 49.45 82.5 49.4 82.35 49.45 82.8 48.3 82.6 47.9 82.15 48.1 82.2 48.05
L 80.45 49.55
Q 80.75 48.65 81.55 47.45 82.55 45.9 82.8 45.35 83.3 44.35 81.8 44.7 80 45.05 80.8 45.3 80.65 45.5 80.4 45.35 82.25 42.5 80.65 42.75 79.8 42.85 78.9 43.55 78.4 44 78 43.8 77.55 43.5 77.05 43.3 78.1 42.05 77.3 41.85
L 77.15 41.8 76.55 42
Q 76.5 42 76.45 42.05 76.5 41.9 76.5 41.85 76.75 40.95 76.2 40.9 76.3 40.2 75.85 40.05 75.65 39.95 75.1 40.35 74.6 40.65 74.6 40.8 74.3 40.35 73.65 39.5 73.3 39.05 72.9 38.6 72.95 38.5 73.05 38.45 74.5 37.95 74.8 37.2 75.15 36.25 73 36.35 74.5 35.75 73.85 34.65 73.15 33.6 71.95 34.2 72.3 32.35 71.75 32.2 71.2 32.1 70.75 33.85 70.3 32.75 69.75 33.05 69.25 33.4 69.45 34.55 68.9 34.1 69 33.95 69.4 33.4 69.45 33.1 69.55 32.65 69.35 32.45 69.15 32.35 68.8 32.45
L 69.05 32.35
Q 68.75 32.45 68.2 32.4 67.6 32.35 67.35 32.4 68.75 31.55 68.05 30.8 67.7 30.45 67.3 30.4
L 67.3 30.35
Q 67.2 29.65 66.75 29.55 66.7 29.55 66.65 29.55 66.75 29.3 66.85 29.05 67 28.55 66.5 28.3 66.45 28.3 66.4 28.25 66.25 28.2 66.1 28.2 65.95 28.15 65.8 28.15 66.05 27.6 65.8 27.25 65.55 26.85 65.15 26.8 65.4 25.35 64.8 25.15 64.25 25 63.65 26.15 62.6 23.85 61.95 24.4 61.4 24.8 62 25.8 62.35 26.3 62.95 27.1 62.3 26.55 61.6 26.75 60.8 27 61.6 28 60.95 27.8 60.2 28.15 60.3 27.45 59.95 27.15 60.1 27.05 60.15 26.6 60.2 26 59.75 26 59.3 26.1 59.4 26.7 59.45 26.85 59.5 27 59.2 26.95 58.75 26.85 60.1 25.1 59.5 25 59.3 24.95 57.5 25.35 57.8 24.45 56.9 24.4 56.2 24.5 56 24.5 56.95 22.7 56.1 23.05 56.2 22.55 56.25 22.45 56.4 21.75 55.7 22 55.2 22.15 54.85 22.45 55 21.1 53.8 21.05 52.5 21.2 52.35 21.1
L 52.5 21.3
Q 51.9 20.7 51.05 21.15 50.15 21.7 51.2 21.9 51.3 23.15 50.5 22.5 50.1 22.4 49.85 22.75 49.55 23.15 49.75 23.7 49.95 24.3 50.6 24.75 50.7 24.8 51.75 25.3 51.55 25.4 51.4 25.6 50.9 25.55 50.25 25.8 50.05 25.85 49.95 25.95 49.8 25.7 49.5 25.45 48.9 25 48.05 24.6 48.9 22.6 47.25 23.65 46.3 24.2 45.75 24.55 45.6 24.4 45.25 24.45 45.4 24.2 45.45 23.9 45.45 23.85 45.5 23.85 45.75 23.7 46.05 23.25 46.8 22.05 46.1 21.6 45.7 21.35 45.2 22.15 44.75 22.75 44.85 23.15 44.65 23.25 44.4 23.25 44.3 23 44 23 43.95 23 43.9 23 44 22 43 22 41.8 22.25 41.75 22.15 42.65 21.7 43.25 20.8 43.75 20 42.95 19.95 43.4 19.15 42.9 19.05 42.75 19 42.6 19.05 42.6 18.9 42.55 18.85 42.3 18.45 41.8 19.05 41.5 19.35 41.45 20.05 41.35 21 41.25 21.2 40.05 19.55 39.7 21.05 39.65 21.35 39.65 21.6 39.5 21.55 39.3 21.45 38.75 21.35 38.8 22 38.8 22.8 39.55 22.75 39.85 22.75 40 22.7 40.25 23 40.8 23.25 40.25 23.9 39.45 23.15 38.45 22.25 37.95 22.25 36.8 22.25 37.3 23.25 37.65 23.9 38.4 24.6 37.85 24.95 37.7 25.35 37.1 23.95 35.3 25.6 34.75 26.1 34.75 26.55 34.2 26.4 33.5 26.8
L 33.1 27.1 32.9 27.55
Q 32.7 28.2 33.2 28.65 33.7 29.1 34.4 28.75 33.75 29.4 34.25 29.95 34.95 30.65 34.95 30.75 33.65 30.35 33 30.25 32.4 30.2 31.9 30.35 31.4 30.4 31 30.7 30.35 31.25 31.9 31.55 31.95 31.55 32 31.55 32.2 31.55 32.4 31.6 32.45 31.8 32.7 32.15 32.25 32.25 31.9 32.35 31.2 32.4 30.85 32.25 31.35 31.9 30.95 31.85 30.65 31.85 30.65 32.15 30.55 32.05 30.5 31.95 29.45 29.3 29.1 31.1 28.9 33.6 28.7 33.6 29 32.35 28.4 31.05
L 28.45 31.1 28.3 30.85
Q 27.95 30.2 27.85 31.6 27.8 32.35 27.7 33.55 26.9 31.85 26.45 31.35 25.75 30.5 25.5 31.25 25.3 32.05 25.7 32.95 24.85 31.95 23.8 32.5 22.75 33 23.95 34.15 23.65 34.2 23.4 34.25 23.15 34.25 22.8 34.25 22 34.35 22.45 35.2 22.55 35.55 22.8 35.95 22.4 36.05 21.95 36.2 21.7 36.35 21.55 36.45 21.15 36.45 20.75 36.6 19.5 37 21.05 38.1 20.45 38.95 20.05 39.25 20.1 39.1 20.15 39 21.1 38.1 20.05 37.8 19.35 37.6 18.4 38.3
L 18.35 38.3
Q 17.6 38.45 17.6 38.8 17.6 38.9 17.65 38.95 17.5 39.2 17.55 39.5 17.55 39.6 17.6 39.8 17.7 40.1 17.95 40.2 17.4 40.65 17.45 41.15 17.5 41.45 17.8 41.65 18.2 41.9 18.25 42.05 18.5 42.6 19.4 41.9 19.9 41.5 20.55 40.8 20.25 41.85 21 41.9 21.4 42 22.25 41.8 23.3 41.65 22.8 42.7 22.65 42.75 22.4 42.95 22.35 42.9 22.35 42.85 22.15 41.75 21.8 42.75 21.65 43.15 21.7 43.55 21.65 43.55 21.6 43.6 21.7 43.3 21 42.75 20 42 19.75 42.35 18.75 44.05 20.5 44 21.25 44 21.5 43.8 21.3 44.1 21.2 44.6 21.05 44.55 20.95 44.45 20.7 44.4 20.45 44.4 19.45 43.85 18.8 44.15 17.35 44.75 18.45 45.7 18.85 46 19.5 46.45
L 19.45 46.45
Q 19.3 46.55 18.45 46.55 18.4 46.55 18.3 46.6 18 46.55 17.7 46.6 15.75 46.75 16.3 48.15 16.45 48.55 17 48.85 16.6 48.95 16.3 49.2 15.6 48.35 14.45 49.4 13.2 50.45 13.9 51 14.25 51.3 15.35 50.95 15.3 51.2 15.35 51.4 15.15 51.75 15 52 15.5 52 14.85 52.6
L 14.65 52.7 14.5 52.95 14.7 54.4
Q 15.3 54.55 15.65 54.4 15.35 54.9 15.5 55.25 15.6 55.65 16.1 55.55 14.7 55.95 15.1 56.55 15.3 56.85 15.7 56.95 15.75 57 15.85 57.15 15.8 57.2 15.7 57.25 14.25 57.75 13.95 58.55 13.6 59.45 15.75 59.4 14.25 60 14.9 61.1 15.15 61.45 15.5 61.65 15.95 61.8 16.55 61.65 16.65 61.6 16.8 61.5 16.8 61.6 16.8 61.65 16.45 63.4 17 63.5 17.55 63.65 18 61.9 18.45 62.95 19 62.65 19.4 62.35 19.35 61.65 19.35 61.4 19.3 61.15 19.65 61.45 19.75 61.65 19.8 61.7 19.75 61.75 19.35 62.3 19.3 62.6 19.2 63.1 19.4 63.25 19.6 63.4 19.95 63.25
L 19.7 63.4
Q 20 63.25 20.55 63.35 21.15 63.4 21.4 63.35 20 64.2 20.7 64.9 21.05 65.3 21.45 65.35
L 21.45 65.4
Q 21.55 66.05 22 66.2 22.05 66.2 22.1 66.2 22 66.45 21.9 66.65 21.75 67.15 22.25 67.4 22.3 67.4 22.35 67.45 22.5 67.5 22.65 67.5 22.8 67.6 22.95 67.6 22.7 68.15 22.95 68.5 23.2 68.85 23.6 68.9 23.35 70.35 23.95 70.55 24.5 70.75 25.1 69.6 26.15 71.9 26.8 71.35 27.35 70.9 26.75 69.95 26.4 69.4 25.8 68.6 26.45 69.15 27.15 69 27.95 68.75 27.15 67.7 27.8 67.95 28.55 67.6 28.45 68.25 28.8 68.55 28.65 68.7 28.6 69.1 28.55 69.7 29 69.7 29.45 69.65 29.35 69.05 29.3 68.85 29.25 68.75 29.55 68.8 30 68.85 28.65 70.6 29.25 70.75 29.45 70.8 31.25 70.35 30.95 71.3 31.85 71.35
L 31.9 71.35
Q 32.55 71.2 32.75 71.2 31.8 73.05 32.65 72.7 32.55 73.15 32.5 73.3 32.35 73.95 33.05 73.7 33.55 73.6 33.9 73.3 33.75 74.6 34.95 74.7 36.25 74.5 36.4 74.6
L 36.25 74.45
Q 36.8634765625 75.0419921875 37.7 74.55 38.6 74 37.55 73.85 37.45 72.55 38.25 73.25 38.65 73.35 38.9 73 39.2 72.55 39 72 38.8 71.4 38.15 71 38.05 70.9 37 70.45 37.2 70.3 37.35 70.15 37.85 70.2 38.5 69.95 38.7 69.9 38.8 69.75 38.95 70 39.25 70.25 39.85 70.75 40.7 71.1 39.85 73.1 41.5 72.05 42.45 71.55 43 71.15 43.15 71.35 43.5 71.3 43.35 71.55 43.3 71.85 43.3 71.9 43.25 71.9 43 72 42.7 72.5 41.95 73.65 42.65 74.15 43.05 74.4 43.55 73.6 44 73 43.9 72.55 44.1 72.5 44.35 72.5 44.45 72.75 44.75 72.75 44.8 72.75 44.85 72.75 44.75 73.7 45.75 73.7 46.95 73.45 47 73.6 46.1 74 45.5 74.95 45 75.7 45.8 75.75 45.35 76.55 45.85 76.7 46 76.75 46.15 76.7 46.15 76.8 46.2 76.85 46.45 77.3 46.95 76.7 47.25 76.4 47.3 75.65 47.4 74.75 47.5 74.5 48.7 76.2 49.05 74.7 49.1 74.4 49.1 74.15 49.25 74.2 49.45 74.25 50 74.4 49.95 73.7 49.95 73.4 49.85 73.25 49.9 73.15 49.95 73.1 50.5 73.45 50.8 73.45
L 50.85 73.45
Q 50.1 74.2 49.75 74.85 49.25 75.85 50.4 75.85 50.9 75.85 51.9 74.95 52.7 74.2 53.25 74.85 52.7 75.1 52.45 75.4 52.3 75.35 52 75.35 51.25 75.3 51.25 76.1 51.2 76.75 51.75 76.6 51.95 76.55 52.1 76.5 52.1 76.75 52.15 77.05 52.5 78.55 53.7 76.85 53.8 77.1 53.9 78 53.95 78.75 54.25 79.05 54.75 79.65 55 79.25 55.05 79.15 55.05 79.05 55.2 79.1 55.35 79.05 55.85 78.95 55.4 78.15 56.2 78.1 55.7 77.3 55.1 76.4 54.2 75.95 54.25 75.85 55.45 76.1 56.45 76.1 56.35 75.1 56.4 75.1 56.45 75.1 56.75 75.1 56.85 74.85 57.1 74.85 57.3 74.95 57.2 75.35 57.65 75.95 58.15 76.75 58.55 76.5 59.25 76 58.5 74.85 58.2 74.4 57.95 74.25 57.9 74.25 57.9 74.2 57.85 73.9 57.7 73.65 58.05 73.7 58.2 73.55 58.75 73.9 59.7 74.45 61.35 75.45 60.5 73.45 61.35 73.1 61.95 72.6 62.25 72.4 62.4 72.15 62.5 72.25 62.7 72.3 63.35 72.55 63.85 72.5 64 72.7 64.2 72.8 63.15 73.3 63.05 73.35 62.4 73.75 62.2 74.4 62 74.95 62.3 75.35 62.55 75.7 62.95 75.6 63.75 74.95 63.65 76.2 62.6 76.4 63.5 76.95 64.35 77.4 64.95 76.8
L 64.8 77
Q 64.95 76.85 66.25 77.05 67.45 77 67.3 75.65 67.65 75.95 68.15 76.1 68.85 76.3 68.7 75.65 68.65 75.55 68.55 75.05 69.4 75.4 68.45 73.6 68.65 73.6 69.3 73.7
L 69.35 73.7
Q 70.25 73.65 69.95 72.75 71.75 73.15 71.95 73.1 72.55 73 71.2 71.2 71.65 71.15 71.95 71.1 71.9 71.2 71.85 71.4 71.75 72 72.2 72.05 72.65 72.05 72.6 71.45 72.55 71.05 72.4 70.9 72.75 70.6 72.65 69.95 73.4 70.3 74.05 70.05 73.25 71.1 74.05 71.35 74.75 71.55 75.4 71 74.8 71.75 74.45 72.3 73.85 73.3 74.4 73.7 75.05 74.25 76.1 71.95 76.7 73.1 77.25 72.9 77.85 72.75 77.6 71.3 78 71.2 78.25 70.85 78.5 70.5 78.25 69.95 78.4 69.95 78.55 69.9 78.7 69.9 78.85 69.85 78.9 69.75 78.95 69.75 79.45 69.5 79.3 69.05 79.2 68.8 79.1 68.55 79.15 68.55 79.2 68.55 79.65 68.45 79.75 67.75
L 79.75 67.7
Q 80.15 67.65 80.5 67.3 81.2 66.55 79.8 65.7 80.05 65.75 80.95 65.3 81.8 64.75 81.6 63.25 81.4 61.8 80.2 62.8 78.95 63.7 78.95 64.3 78.9 64.85 79.5 65.5 78.55 64.9 78.1 65.95 77.65 66.9 78.65 67.45 78.75 67.5 78.85 67.5 78.75 67.7 78.75 67.95 78.75 68.15 78.75 68.25 78.6 68.15 78.4 68 78.35 67.95 78.25 67.9 78.15 67.75 78 67.65 77.65 67.35 77.35 67.4
L 77.3 67.4
Q 76.8 67.1 76.45 67.4 76.3 67.3 76.1 67.15 76.05 66.85 75.7 66.5 77.3 66.05 77.35 65.05 77.4 64 75.65 64.55 74 65.2 73.75 65.4 73.6 65.5 73.45 65.95 73.4 66 73.4 66.05 73.3 66 73.15 65.95 72.9 65.2 71.9 64.8 70.6 64.2 70.15 64.95 69.65 65.8 70.95 66.5 71.4 66.75 71.75 66.85 71.85 67.1 72 67.35 71.9 67.2 71.7 67.1 71.15 66.75 70.35 66.5 69.45 66.2 69.3 66.5 69.2 66.55 69.3 66.8 69.35 67 69.55 67.3 70.05 68.05 70.7 68.15
L 70.7 68.2
Q 70.15 68.9 70.7 69 70.65 69 70.6 69 70.25 69 70 68.55 69.65 68.05 69.3 68 68.8 67.9 68 68.15 67 68.45 67.55 69.1 67.15 68.85 67.25 67.95 67.35 67.3 66.55 67.15 66.05 67.1 65.65 67.1 65 67 65.1 66.85 64.9 67.1 64.95 66.6 65.45 66.9 65.35 66.05 65.85 66.2 66.65 66.2 68.05 66.2 67.65 65.35 67.55 65.05 67.25 64.85 67.55 64.9 67.95 64.85 67.95 65.6 68.4 65.5 68.95 65.4 69.1 64.85
L 69.1 64.8
Q 69.2 64.8 69.3 64.8 70.3 64.55 69.95 64 70.4 63.75 70.85 63.35 72.2 62.05 69.8 61.75 70.1 61.65 70.85 61.35 71.5 61.05 71.75 60.55 71.8 61.2 73.05 62 74.1 62.65 74.75 62.8 75.6 62.9 75.25 61.95 74.7 60.75 74.6 60.35 74.55 60 75.2 60.1 75.5 60.1 75.8 60.25 76.5 60.05 76.95 60.25 77.25 60.4 78.15 60.9 79.05 61.35 80.2 60.5 81.35 59.65 79.8 59.15 80.7 58.95 80.9 58.85 81.55 58.55 81.5 57.75 82.05 58.2 83.25 58.25 84.65 58.35 84.3 57.4 84.1 56.6 83.15 56 82.05 55.45 81.65 55.2 81.95 55.1 85.05 53.65 87.6 52.15 87.05 51.1 87 51 87 50.95
L 86.8 50.75
Q 84 51.2 83.45 51.45 83.55 51.2 84.5 50.3 85.3 49.45 84.85 48.95
M 82.7 52.45
Q 82.85 53.4 82 52.9
L 82.7 52.45
M 57.55 29.55
Q 57.8 29.1 58.15 29.1 58.2 29.1 58.25 29.1 57.7 29.15 58.25 29.9
L 58.25 29.95
Q 57.6 30 57.1 30.8 56.25 32.15 57.9 31.6 58.7 31.35 59.25 31 59.45 30.85 59.55 30.75 59.4 31 59.3 31.25 58.95 31.35 58.5 31.6 57.2 32.25 57.7 33.1 58.15 33.9 59.45 33.3 60.45 32.85 60.7 32.15 60.85 32.1 60.95 32.05 60.95 32.1 61 32.15 61.15 32.55 61.3 32.7 61.55 32.85 63.2 33.55 64.95 34.1 64.9 33.05 64.85 32.05 63.25 31.6 63.6 31.25 63.65 30.95 63.85 30.8 64 30.7 64.35 31 64.85 30.7
L 64.9 30.7
Q 65.2 30.75 65.55 30.45 65.7 30.35 65.8 30.2 65.9 30.15 65.95 30.1 66.15 29.95 66.3 29.85 66.3 29.95 66.3 30.15 66.3 30.4 66.4 30.55 66.3 30.55 66.2 30.65 65.2 31.2 65.65 32.15 66.1 33.2 67.05 32.55 66.45 33.25 66.9 33.8 67.6 34.45 67.6 34.55 66.35 34.2 65.65 34.1 64.5 33.9 63.7 34.5 63.05 35.05 64.7 35.35 65.55 35.5 66.7 35.65 65.55 36.05 64.8 36.15 64 36.25 63.6 36.1 64.1 35.75 63.7 35.75 63.35 35.75 63.35 35.95 63.25 35.9 63.2 35.8 62.15 33.1 61.8 34.95 61.62421875 37.1478515625 61.45 37.4 61.641796875 36.128515625 61.25 35.1
L 61.05 34.7
Q 60.7 34.05 60.6 35.4 60.55 36.2 60.45 37.45 59.7 35.75 59.25 35.2 58.55 34.35 58.3 35.1 58.1 35.8 58.45 36.75 57.65 35.8 56.65 36.35 55.6 36.8 56.75 37.95 54.95 38.4 55.9 39.35 55.95 39.45 56.05 39.5 56.4 39.8 57.15 40.2 57.2 40.3 57.3 40.3 57 40.4 56.7 40.5 56.55 40.6 56.45 40.65 56.1 40.6 55.75 40.65 54.8 39.95 53.6 40.4 52.35 40.8 53.9 41.9 53.8 42.1 53.7 42.2 53.35 42.35 53 42.65 53.15 41.55 51.25 42.1 50.5 42.35 50.5 42.7 50.5 43.15 51.8 43.35 50.25 44.15 50.35 44.95 50.4 45.15 50.55 45.3 50.5 45.35 50.45 45.45 49.45 47.25 48.95 47.25 49.3 46.85 49.75 45.8 50.3 44.55 50.1 44.1
L 49.7 44.2 48.35 45.35
Q 48.25 45.3 48.15 45.25 48.45 44.55 49.05 43.6 50.05 42.05 50.3 41.55 50.8 40.5 49.3 40.9 49.2 40.9 49.15 40.95 49.35 40.7 49.45 40.45 49.7 40.5 50.55 40.9 51.2 41.25 51.6 41.15 52.2 41 51.8 40.2 51.55 39.75 51.3 39.5 51.2 39.35 51.05 39.3 51.35 39.2 52.35 39.5 53 39.65 53.4 39.5 53.5 39.45 53.6 39.3 54.05 38.75 53.7 38.2 53.75 38.15 53.8 38.15 54.3 37.95 54.6 37 54.9 35.95 54.15 36.25 53.65 36.5 53.3 37.5 53.25 37.6 53.25 37.75 52.9 37.5 52.55 37.3 53.15 37.2 53.6 36.7 54.2 36.1 53.75 35.4 54.3 35.95 55.55 35.5 56.55 35.05 57.25 34.4 58.15 33.55 56.65 33.3
L 56.65 33.25
Q 56.5 32.7 55.95 32.55 55.5 32.5 55.5 33.25 55.1 33.2 54.8 33.25 55.1 33.05 55.2 32.75 55.6 31.9 54.2 31.9 53.4 31.9 52.9 32.05 53 31.2 52.5 31.5 52.45 31 52.65 31.25 52.55 31.1 53.2 31 53.6 31 54.1 30.95 54.9 30.8 54.8 30.15 54.7 29.25 55.1 29 54.55 29.65 55.55 29.95 56.35 30.2 56.85 30.1 57.2 30 57.55 29.55
M 52.95 35.05
Q 52.55 35.1 52.25 35.25 52.85 34.25 53.35 34.55
L 53.65 35.3
Q 53.5 35.2 53.3 35.2 53.2 35.05 52.95 35.05
M 45.95 30.15
Q 46.25 30.15 46.75 30.4 46 31 46.5 31.7 47 32.35 47.7 32.15 48.5 31.95 50.45 32.75 50 33.05 49.7 33.5 49.1 33 48.8 32.8 48.5 32.55 48 32.8 47.9 32.75 47.75 32.7 47.1 32.5 47.2 33.3 47.3 33.85 47.6 34.2 47.45 34.15 47.35 34.15 46.65 33.85 45.7 33.7 44.1 33.55 44.95 34.75 45.15 35 45.35 35.3
L 45.3 35.3
Q 44.6 35.6 45.05 36.4 44.6 36.35 44.25 36.45 43.6 36.65 43.85 37.2 43.7 37.35 43.6 37.65 43.45 38.05 43.55 38.3 43.1 38.45 43 38.5 43.35 37.8 43.55 37.3 43.85 36.45 43.3 36.2 43.1 36.15 42.55 36.5 42 36.8 42 37 41.85 36.7 41.3 35.95 41.8 35.9 42.45 35.6 43.5 35.1 43 34.75
L 42.75 34.55
Q 43.4 35 41.85 33.85 41.9 33.8 42 33.7
L 43.65 34.05
Q 45.55 34.1 44.55 32.5 46.4 32.05 44.6 31.3 42.352734375 30.410546875 42.15 30.25 42.52109375 30.4 43.2 30.4 43.9 30.4 44.25 30.45 44.5 30.5 45.35 31.05 46.1 31.35 45.95 30.15
M 49.25 30.1
Q 49.05 30.1 48.8 29.9 49.25 30.35 48.5 29.8 48.8 29.65 49.9 29 49.85 29.25 50 29.5 49.65 29.85 49.5 30 49.35 30 49.25 30.1
M 42.2 26.95
Q 42.35 26.95 42.65 26.7 42.75 26.95 42.55 27.25
L 42.15 27.1 42.05 26.95
Q 42.1 26.95 42.2 26.95
M 48.95 38.9
Q 49 38.9 48.8 39.1 48.7 39 48.6 39 48.8 38.95 48.95 38.9
M 50.2 48.6
Q 50.35 49.55 49.5 49.1
L 50.2 48.6
M 56.1 43
Q 56.1556640625 42.9986328125 56.35 42.95
L 56.3 43
Q 56.2015625 43 56.1 43
M 53.4 44.65
Q 53.1 45.7 53.85 45.75 54.25 45.8 55.1 45.6 56.15 45.5 55.65 46.55 55.55 46.7 55.5 46.9 54.7 46.35 54.5 46.65 54.4 46.75 54.35 46.9 51.5 47.3 51 47.6
L 52 46.45
Q 52.55 45.9 52.55 45.5 52.95 45.15 53.4 44.65
M 54.85 48.6
Q 54.6 48.45 54.4 48.4 54.5 48.3 54.55 48.25 54.7 48.3 54.95 48.3 54.85 48.45 54.85 48.6
M 57.05 46.9
Q 57.4 46.85 57.75 46.55 58.35 46.9 59.6 46.35 59.35 46.95 59.55 47.4 59.8 47.8 60.25 47.5 60.05 48.05 60.1 48.6 60.1 48.75 60.15 48.9 60.05 48.85 59.95 48.85 60 48.6 59.85 48.3 59.4 47.4 58.05 48 57.9 48.05 57.8 48.15 57.85 47.85 57.9 47.7 58.15 46.6 57.15 47.25 57.1 47.2 57.1 47.15 57.05 46.95 57.05 46.9
M 56.5 47.05
Q 56.35 47.45 56.4 47.85
L 56.35 47.9
Q 56.35 47.85 56.35 47.8 56.35 47.3 56.3 46.7 56.45 46.75 56.6 46.85 56.55 46.95 56.5 47.05
M 60.7 49.1
Q 60.65 49.15 60.6 49.25 60.55078125 49.1515625 60.5 49.15 60.60078125 49.149609375 60.7 49.1
M 61.25 47
L 60.95 46.85
Q 61.35 46.4 61.55 46.65 61.9 47.15 62.2 47.2 62.45 47.25 63.5 47.15 64.45 47.15 64.55 47.45 63.2 47.6 62.75 47.8 62.55 47.85 62.4 47.9 61.95 48 61.5 48.25 61.2 48.4 61.15 48.65 61.1 48.65 61.05 48.7 61.6 47.45 61.25 47
M 68.9 45.6
Q 69 45.55 69.6 46 69.95 46.3 70.55 46.1 70.85 46.05 71.5 45.85 71.8 45.85 72.15 46.15 72.25 46.35 72.35 46.55 71.85 46.4 71.25 46.35 71 46.3 70.85 46.35 70.15 46.35 69.85 46.65 69.5 46.4 69.2 46.3 68.35 45.9 68 46.65 67.6 47.4 68.45 48.1
L 69.5 49 69.45 49.1
Q 69.15 48.95 68.55 48.6 67.9 48.25 67.3 48.4 66.6 48.6 66.8 49.15 67.85 51.25 66.95 50.3
L 66.8 50.15
Q 66 49.8 65.5 50.05 65.1 50.15 64.65 50.7 64.1 51.3 64.35 51.8 64.65 52.4 66 51.95 67.3 51.5 67.2 50.75 67.45 51.25 68.15 51.45 68.8 51.7 69 52.1 68.35 51.95 67.35 52.4 66.5 52.8 66.1 53.3 65.75 53.2 65.35 53.2 64.45 53.15 64.15 53.8 64.05 54.05 63.95 54.55 63.85 54.5 63.7 54.35 63.1 53.95 63.25 54 63.7 52.95 62.9 52.8 62.4 52.65 61.6 52.9
L 62.85 52.4
Q 64.1 51.95 64.2 51.6 64.6 50.55 63.35 50.35 62.5 50.25 61.8 50.55
L 61.8 50.45
Q 62.75 49.3 63.25 49.25 63.4 49.25 63.5 49.5 63.6 49.75 63.9 49.55 64.5 49.2 65.2 48.05 65.75 48.3 66.45 47.7 66.75 47.45 67.2 46.85 67.55 46.35 67.95 46.1 68.55 45.8 68.9 45.6
M 75.6 42.35
L 75.65 42.3 75.65 42.35 75.6 42.35
M 36.3 28.55
L 36.25 28.55
Q 35.95 28.65 35.55 28.5 34.95 28.45 34.7 28.5 35.55 28 35.6 27.55 36 27.8 36.65 27.95 36.75 28.55 37.65 28.4 37.15 28.65 36.85 28.8 36.8 28.45 36.3 28.55
M 33.5 31.7
Q 33.75 31.8 34 31.8 33.85 31.85 33.7 31.9 33.6 31.8 33.5 31.7
M 28.85 42.85
Q 29.15 43.25 29.5 43.3 29.75 43.35 30.75 43.25 31.7 43.25 31.8 43.55 30.2 43.85 29.95 44 28.95 44.3 28.25 44.9 28.4 44.6 28.55 44.05 28.65 43.35 28.5 43.2
L 28.2 43
Q 28.65 42.5 28.85 42.85
M 23.5 42.9
Q 24.25 43.25 25 42.65 25.45 43 26.85 42.5 26.6 43.05 26.8 43.5 26.9 43.75 27.05 43.8 26.95 43.85 26.8 43.9 26.75 44 26.7 44.05 26.15 43.8 25.3 44.15 25.05 44.3 24.85 44.45 24.6 44.4 24.35 44.45 23.9 44.55 23.55 44.65 23.6 44 23.5 42.9
M 26.95 45.35
Q 27.3 45.5 27.65 45.3 27.75 45.3 27.95 45.25 27.55 45.75 26.75 45.9 26.45 45.75 26.1 45.8 26.3 45.7 26.5 45.6 26.8 45.5 26.95 45.35
M 28.9 49.1
L 30.1 48.6
Q 31.4 48.1 31.5 47.8 31.9 46.7 30.65 46.55 29.6 46.4 29 46.7 30.05 45.45 30.5 45.45 30.7 45.45 30.8 45.7 30.9 45.85 31.2 45.7 31.45 45.5 31.9 45 32.15 44.65 32.5 44.2 33 44.45 33.8 43.85 34 43.75 34.3 43.35 34.45 43.45 34.85 43.35
L 34.9 43.35
Q 34.7 43.55 34.7 43.75 34.7 43.8 34.7 43.85 34.6 43.9 34.5 44 33.65 44.85 33.5 45.25 33.3 45.9 33.7 46.2 33.15 46.05 32.8 46.15 32.35 46.4 31.95 46.85
L 31.9 46.9
Q 31.4 47.5 31.65 48 31.75 48.15 31.9 48.3 32.3 48.45 33.25 48.1 33.75 47.9 34.1 47.75 33.95 48 33.85 48.3 33.65 48.85 33.8 49.1 33.45 49.4 33.2 49.7 32.3 50.85 34 50.75 34.15 50.75 34.35 50.75 34.1 51.15 34 51.5 33.7 51.15 33.4 51.1 32.55 50.9 31.9 50.95 31.7 50.95 31.5 51 31.6 50.9 30.95 50.45 31.15 50.4 31.55 50.4 31.8 50.4 31.9 50.3 32.1 50.1 32.05 49.8 32.05 49.6 31.9 49.45 31.6 49.1 30.65 48.9 30.35 48.9 30.1 48.95 29.65 48.85 28.9 49.1
M 34.4 46.4
Q 34.5 46.4 34.6 46.4 34.85 47.15 34.25 46.45
L 34.2 46.4
Q 34.25 46.4 34.35 46.4
L 34.4 46.4
M 34.55 46.95
Q 34.6 47 34.6 47.05
L 34.55 47.15
Q 34.55 47 34.55 46.95
M 31.35 56.05
Q 31.7 55.85 31.9 55.85 32.15 55.85 32.1 56.25
L 31.55 56.25 31.35 56.05
M 31.5 61.35
Q 31.35 61.5 31.25 61.65 30.9 62.2 31.9 62.45 32 62.45 32.1 62.45
L 32.1 62.5
Q 32.25 63.05 32.8 63.15 33.25 63.2 33.25 62.5 33.65 62.55 33.95 62.5 33.65 62.65 33.55 62.95 33.15 63.8 34.55 63.8 35.35 63.8 35.85 63.7 35.75 64.55 36.25 64.25 36.3 64.75 36.1 64.5 36.2 64.6 35.55 64.75 35.15 64.75 34.65 64.8 33.85 64.9 33.95 65.6 34.05 66.5 33.65 66.75 34.2 66.05 33.2 65.75 32.4 65.5 31.9 65.65 31.55 65.7 31.2 66.2 30.95 66.6 30.6 66.6 30.55 66.6 30.5 66.6 31.05 66.55 30.5 65.8
L 30.5 65.75
Q 31.15 65.7 31.65 64.9 31.85 64.6 31.9 64.45 32 64.2 31.9 64.1 31.75 63.8 30.85 64.1 30.05 64.35 29.5 64.75 29.3 64.85 29.2 64.95 29.35 64.75 29.45 64.5 29.8 64.35 30.25 64.1 31.55 63.45 31.05 62.6 30.6 61.8 29.3 62.45 28.3 62.85 28.05 63.6 27.9 63.65 27.8 63.7 27.8 63.65 27.75 63.6 27.6 63.15 27.45 63.05 27.2 62.85 25.55 62.2 23.8 61.65 23.85 62.65 23.9 63.7 25.5 64.1 25.15 64.5 25.1 64.8 24.9 64.9 24.75 65.05 24.4 64.75 23.9 65.05
L 23.85 65.05
Q 23.55 64.95 23.2 65.3 23.05 65.4 22.95 65.5 22.85 65.6 22.8 65.65 22.6 65.75 22.45 65.9 22.45 65.75 22.45 65.6 22.45 65.35 22.35 65.15 22.45 65.15 22.55 65.1 23.55 64.55 23.1 63.6 22.65 62.55 21.7 63.15 22.3 62.5 21.85 61.95 21.65 61.75 21.55 61.65 21.15 61.2 21.15 61.15 22.4 61.5 23.1 61.65 23.65 61.7 24.1 61.65 24.6 61.5 25.05 61.2 25.7 60.65 24.05 60.35 23.2 60.25 22.05 60.05 23.2 59.7 23.95 59.55 24.75 59.45 25.15 59.65 24.65 60 25.05 60 25.35 60 25.4 59.8 25.45 59.8 25.5 59.9 25.55 59.9 25.55 59.95 26.6 62.6 26.95 60.8 27.05 59.75 27.1 59.2 27.15 59.15 27.25 59.1 27.25 59.9 27.5 60.6
L 27.7 61.05
Q 28.05 61.7 28.15 60.3 28.15 60.1 28.2 59.95 28.4 60.25 28.85 59.9 28.95 59.8 29 59.75 29.3 60.3 29.5 60.55 30.2 61.4 30.45 60.6 30.65 59.95 30.3 58.95 30.95 59.75 31.75 59.55 31.8 59.7 31.9 59.75 32.1 59.8 32.5 59.75 33.45 59.55 34.1 59.25 33.55 59.7 33.25 60.05 33.1 60.2 33.05 60.3 32.4 60.6 31.9 61.05 31.7 61.15 31.5 61.35
M 35.4 61.15
L 35.1 60.4
Q 35.25 60.55 35.45 60.55 35.55 60.65 35.8 60.65 36.2 60.6 36.5 60.5 35.9 61.45 35.4 61.15
M 21.4 52.45
Q 20.95 53.15 20.65 52.85
L 21.35 52.1
Q 21.95 51.75 21.4 52.45
M 29.45 56.25
L 29.65 56.1
Q 29.65 56.2 29.65 56.25
L 29.45 56.25
M 27.9 55.8
Q 27.7 56 27.15 55.85 27.65 55.25 28.15 55 28.05 55.65 27.9 55.8
M 39.05 62.25
Q 39.65 62.75 39.95 62.9 40.25 63.15 40.75 62.9 40.85 62.95 41 63.05 41.65 63.2 41.55 62.45 41.45 61.95 41.25 61.65 41.2 61.6 41.15 61.5 41.3 61.6 41.4 61.6 41.45 61.65 41.55 61.65 42.2 61.9 43.05 62 44.1 62.1 44.1 61.65 44.1 61.4 43.8 60.95
L 43.75 60.9
Q 43.95625 61.096875 44.35 60.9 45.25 60.6 45.2 59.35 45.3 59.45 45.45 59.5 45.6 59.55 46 59.4 46.3 59.55 46.35 59.55 46.95 59.8 47.1 59.25 47.25 59.5 47.45 59.75 46.95 59.8 46.3 60.1 45.25 60.6 45.75 60.95
L 46 61.15
Q 45.4 60.8 46.6 61.65 46.7 61.75 46.9 61.9 46.85 61.95 46.75 62
L 45.1 61.7
Q 43.2 61.65 44.2 63.2 42.35 63.7 44.15 64.45 46.55 65.4 46.6 65.45 46.25 65.35 45.55 65.35 44.85 65.35 44.5 65.3 44.25 65.2 43.4 64.65 42.65 64.35 42.8 65.6 42.5 65.6 42 65.35 42.75 64.75 42.25 64 41.75 63.4 41.05 63.6 40.25 63.75 38.3 62.95 38.75 62.65 39.05 62.25
M 38.75 66.25
Q 39.1 65.9 39.25 65.7 39.4 65.7 39.5 65.65 39.7 65.65 39.95 65.8 39.5 65.4 40.25 65.95 39.95 66.05 38.85 66.75 38.9 66.5 38.75 66.25
M 19.5 50.55
L 19.6 50.45
Q 19.5 50.95 19.3 50.9 19.4 50.75 19.4 50.6
L 19.5 50.55
M 18.75 55.4
Q 18.25 55.4 17.8 55.15 17.8 55.2 17.75 55.15 18.25 54.05 18.75 55.4
M 71.5 53.15
Q 71.5 53.2 71.45 53.25 71 53.5 70.55 54 70.35 53.75 70.3 53.65
L 70.25 53.65
Q 70.35 53.7 69.95 53.65 69.4 53.55 69.25 53.7 69.75 53.25 69.5 52.45 69.75 52.45 70.45 52.85 71.2 53.15 71.5 53.15
M 66.3 54.7
Q 66.5 54.7 66.65 54.6
L 66.7 54.6
Q 68.2 54.5 68.85 54.05 68.25 54.8 68.05 55.65 67.4 56.25 67.05 55.75 66.55 54.95 66.1 54.9 65.9 54.9 65.7 54.9 65.6 54.85 65.55 54.8 65.7 54.7 66.3 54.7
M 61.55 63.75
Q 61.65 63.7 61.8 63.65 62.1 64.1 62.3 64.35 62.6 64.75 62.8 64.8 62.7 65.2 62.9 65.35 60.95 66.15 60.15 65.95 59.45 65.75 58.95 66.35 58.45 67.1 59.2 67.7 58.7 67.95 58.4 67.95 58.55 66.75 57.8 67.05 56.95 67.6 56.7 67.65 56.4 67.7 55.9 67.7 55.85 67.35 55.55 67.1 55.05 66.6 54.35 67 55 66.3 54.5 65.75 53.8 65.1 53.8 64.95 55.1 65.4 55.75 65.45 56.95 65.65 57.75 65.05 58.4 64.5 56.75 64.2 56.55 64.2 56.35 64.1 56.3 63.95 56.05 63.6 57.35 63.25 57.9 63.45 57.4 63.8 57.8 63.9 58.1 63.9 58.1 63.6 58.2 63.7 58.25 63.75 59.3 66.45 59.65 64.6 59.75 63.65 59.8 63.05
L 59.95 62.95
Q 59.95 63.8 60.35 64.65
L 60.3 64.6 60.45 64.85
Q 60.8 65.5 60.9 64.1 60.9 64 60.95 63.8 61.1 64.05 61.55 63.75
M 61.7 68
Q 61.8 68.05 61.95 68.05 62.1 68.25 62.45 68.6 62.3 68.85 62.35 69.1 61.25 68.45 60.95 68.3 61.7 67.75 61.25 68.2 61.5 68 61.7 68
M 51 52.3
Q 51 52.35 51.05 52.45
L 51.05 52.55
Q 50.8 52.3 50.45 52.05 50.7 52.15 51 52.3
M 51.4 50.35
Q 51.9 50.1 52.6 49.8 52.75 49.75 52.85 49.7 52.9 49.75 53 49.8 52.45 50.25 52.3 50.3 52.15 50.35 51.4 50.35
M 54.25 55.95
Q 54.2 56.1 54.2 56.25
L 53.95 56.25 54.2 55.95 54.25 55.95
M 49.6 51.6
Q 49.4 51.5 49.15 51.4 49.2 51.3 49.4 51.25 49.4 51.45 49.6 51.6
M 43.55 60.4
Q 43.55 60.6 43.65 60.8 43.5 60.6 43.4 60.4
L 43.45 60.4
Q 43.5 60.4 43.55 60.4
M 46.1 69.05
Q 46 68.8 46.2 68.5
L 46.5 68.6
Q 46.45 68.7 46.5 68.8 46.35 68.85 46.1 69.05
M 54.75 63.95
Q 54.9 63.9 55.05 63.8 55.15 63.95 55.25 64 55 63.95 54.75 63.95
M 55.1 71.4
Q 54.8 71.15 54.65 71.15 54.55 71.15 54.5 71.15
L 54.6 71 55 70.85
Q 55.2 71.15 55.1 71.4 Z"/>
</g>
</defs>

<g transform="matrix( 1, 0, 0, 1, 0,0) ">
<use xlink:href="#Layer1_0_FILL"/>
</g>
</svg>
