
<svg xmlns="http://www.w3.org/2000/svg" version="1.1" xmlns:xlink="http://www.w3.org/1999/xlink" preserveAspectRatio="none" x="0px" y="0px" width="100px" height="100px" viewBox="0 0 100 100">
<defs>
<g id="Layer1_0_FILL">
<path fill="#000000" stroke="none" d="
M 43.55 23.95
Q 42.85 23.4 42.45 23.1 41.15 22.15 39.8 23.2 38.75 24 38.5 26.5 38.45 27.05 38.6 27.65 38.3 28.65 37.25 28.6 35.8 28.45 35.45 28.65 35.35 28.7 34.8 29.55 34.3 30.25 34.1 30.05 34.05 30 33.4 28.8 32.95 27.95 32.35 27.9 30.85 27.7 29.8 28.65 28.55 29.7 29.2 31.2 29.45 31.95 29.85 32.5 30 32.75 30.5 33.45 30.8 34 30.1 33.95 28.95 33.8 28.25 34.75 27.85 35.4 28.45 36.6 28.7 37 29.25 37.3 29.45 37.45 29.6 37.55 29.75 37.65 29.75 38 29.75 39.15 28.4 39.3 27.85 39.35 27.45 39.8 27.1 40.2 27.05 40.75 26.95 41.15 27.2 41.9 27.45 42.5 27.1 42.95 26.6 43.3 26.35 43.55 25.55 44.4 26.05 45.7 26.3 46.2 26.9 46.7 28.75 47.9 27.45 48.05 26.6 48.05 26.25 48.1 25.6 48.3 25.35 48.9 25.2 49.45 25.45 50
L 26.05 50.85
Q 24.75 51.5 24.45 52.35 24.15 53.3 24.65 55.15 25 56.4 26.35 56.8 26.65 56.9 27.4 56.8 27.75 56.65 27.6 56.9 27.2 57.35 27.15 57.4 26.6 58.25 27.45 59.05 28.55 59.85 30.25 59.05 31.85 58.35 32.1 58.15
L 32.7 59.5
Q 32.9 59.85 32.6 60.05 32.15 60.25 31.95 60.35 31.65 60.6 31.35 61.45 31 62.9 31.7 63.65 31.95 63.85 32.95 64.05 33.6 64.2 33.75 65 33.8 65.65 33.5 67.2 33.4 68.6 34.25 69.25 35.35 70.05 36.6 69.7 36.85 69.65 37.5 69.25 38.45 68.5 38.6 68.45 39.25 68.2 39.4 69.25 39.55 69.6 39.85 69.6 40.6 69.6 42 69.5 42.1 69.5 42.55 69.15 42.7 69.1 42.8 69.7 43.1 70.7 43.3 71.1 43.65 71.65 44.35 71.8 45 72 45.9 71.8 45.7 71.95 45.55 72.05 45.45 72.55 45.75 72.7
L 46.7 73.3
Q 47 73.6 46.95 74.7 46.95 75.4 48 75.45 49.2 75.4 49.7 75.45 50.25 75.6 51.05 76.4 51.45 76.85 51.55 77.1 51.6 77.3 52 77.35 52.35 77.3 52.55 77.3 53.75 77.3 53.9 76.8
L 54.15 76.25
Q 54.5 75.75 55.25 75.7 55.7 75.75 55.8 76.45 56.85 76.5 57.4 76.45 58.3 76.3 58.55 75.75 58.65 74.95 58.95 74.95 59.85 74.65 60.3 75.15 60.65 75.1 61.15 75.2 62 75.6 62.75 75.1 63.6 74.55 63.3 73.65 62.9 72.45 63.05 72 63.7 71.15 62.5 70.45 62.75 70.3 63.2 70.4 63.95 70.5 64.2 70.5 64.8 70.5 65.2 70.35 65.8 70.05 65.9 69.5 65.95 69.1 65.6 68.7 65.1 68.25 65.05 68 64.9 67.95 64.9 67.7 64.9 67.65 64.9 67.55 65.05 67.25 65.2 66.95 65.8 66.1 66.1 66.05
L 66 66.05
Q 66.1 65.95 66.15 65.95 67.85 66.15 68.8 65.85 69.3 65.7 69.85 65.05 70.3 64.3 70.6 64 71 63.5 70.7 63.05
L 70.9 62.95
Q 70.75 61.95 69.65 61.6 66.85 60.9 67.8 60.1
L 68.85 59.55
Q 69.55 59.2 69.4 57.9 69.35 56.05 70.45 57.15
L 71.3 58.2
Q 72.25 58.9 73.35 58.25 74.9 57.2 74.4 53.95
L 74.1 52.85
Q 73.95 52.25 74.2 51.75 74.75 51.2 75.15 50.8 76.05 49.75 75.25 48.4 74.65 47.55 72.85 47.1 72.9 47 73.05 46.85 73.55 46.4 73.85 46.25 74.05 46.15 74.05 45.7 73.95 45.25 73.95 45.1 73.8 43.8 73.3 43.65
L 72.55 43.4
Q 72.05 43.1 71.9 42.3 71.9 41.8 72.7 41.55 72.55 40.45 72.45 39.9 72.25 38.85 71.65 38.7 71.1 38.7 70.9 38.55 70.75 38.5 70.7 38.45 70.65 38.35 70.65 38.3 70.3 37.4 70.75 36.85 70.6 36.4 70.75 35.85 71 34.9 70.4 34.05 69.7 33.2 68.75 33.7 67.45 34.3 67 34.05 65.95 33.55 65.35 34.9 65.15 34.6 65.2 34.1 65.3 33.3 65.3 33.05 65.2 32.4 64.9 31.9 64.5 31.35 63.95 31.3 63.5 31.2 63.05 31.65 62.65 32.2 62.4 32.4 62.35 32.5 62.1 32.5 62 32.5 61.9 32.5 61.6 32.45 61.15 32.2 60.25 31.8 60.05 31.4
L 60.05 31.45
Q 60 31.4 60 31.35 60 29.45 59.6 28.45 59.35 27.9 58.65 27.4 57.75 26.95 57.4 26.75 56.8 26.3 56.3 26.6
L 56.15 26.4
Q 55.2 26.75 54.8 27.95 54.4 31.15 53.4 30.1
L 52.7 29
Q 52.25 28.35 50.8 28.65 48.8 28.9 49.9 27.55
L 50.95 26.5
Q 51.6 25.35 50.8 24.25 49.45 22.65 45.95 23.5
L 44.75 24
Q 44.1 24.25 43.55 23.95 Z"/>
</g>
</defs>

<g transform="matrix( 1, 0, 0, 1, 0,0) ">
<use xlink:href="#Layer1_0_FILL"/>
</g>
</svg>
