
<svg xmlns="http://www.w3.org/2000/svg" version="1.1" xmlns:xlink="http://www.w3.org/1999/xlink" preserveAspectRatio="none" x="0px" y="0px" width="100px" height="100px" viewBox="0 0 100 100">
<defs>
<g id="Layer2_0_FILL">
<path fill="#363636" stroke="none" d="
M 60.85 54.6
L 60.85 54.55
Q 61 54.2 61 54 60.85 54 60.65 54
L 60.6 54
Q 60.3 54 59.65 54.05
L 59.6 54.05 59 54.1 58.5 54.35
Q 58.1 54.6 57.6 54.45
L 57.55 54.4
Q 57.45 54.35 57.35 54.35 57.25 54.3 57.2 54.25 56.65 53.8 56.15 54.3 56.15 54.35 56.1 54.35 55.95 54.45 55.85 54.6 55.8 54.7 55.7 54.75 55.55 54.8 55.45 54.8 54.35 54.8 53.35 54.6 52.75 54.65 51.75 54.85
L 51.7 54.85 48.2 55.05
Q 48.15 55.05 48.1 55.05 47.35 54.95 46.65 54.95 46.55 54.95 46.5 54.95 45.25 54.45 44.05 54.4 43.95 54.4 43.9 54.4
L 42.9 54.05
Q 42.75 54 42.45 54.05 42.05 54.15 41.75 54.1
L 41.7 54.1 40.85 53.75 40.5 53.8 40.6 53.8
Q 40.3 53.9 40.3 54.35 40.3 54.9 40.7 55.15 40.75 55.15 40.75 55.2
L 42 55.75
Q 42.05 55.7 42.25 55.65
L 42.85 55.5
Q 43 55.45 43.15 55.5 43.3 55.5 43.7 55.5 43.9 55.5 44 55.5
L 44.05 55.5 56.35 56.95 57.4 56.8
Q 57.55 56.75 57.75 56.85 57.85 56.9 57.95 56.95
L 58 57 58.75 56.6
Q 58.85 56.5 59 56.5
L 59.05 56.5 59.3 56.35
Q 59.35 56.3 59.45 56.3 59.85 56.1 60.3 55.6 60.65 55.15 60.85 54.6
M 39.6 58.8
Q 39.35 58.95 39.3 59 38.8 59.3 38.85 60.05 38.85 60.2 38.9 60.25 38.95 60.25 38.95 60.3 39 60.3 39.2 60.3
L 40 60.45
Q 40.05 60.45 40.15 60.5 40.45 60.6 40.65 60.7
L 41.1 60.7
Q 41.55 60.65 41.85 60.75
L 42.9 60.95
Q 43.2 61 43.35 61.15
L 44 61.2
Q 44.1 61.2 44.15 61.25
L 52.55 60.65
Q 52.65 60.65 53.55 60.95 53.65 60.95 53.75 61.05
L 53.8 61.1
Q 53.85 61.05 53.9 61.05 55.1 60.9 56.3 60.8 56.4 60.8 56.55 60.85
L 57.55 61.2
Q 57.6 61.15 57.7 61.15
L 58.5 60.95
Q 58.6 60.9 58.75 60.9
L 59.25 61
Q 59.5 61 60.25 61.05 60.45 61 60.65 60.8 60.75 60.6 60.75 60.35 60.75 60.2 60.65 60.05 60.5 59.9 59.95 59.45
L 60 59.45
Q 59.45 59 58.95 58.75
L 59 58.75 58.45 58.5 58.25 58.45 58.4 58.5
Q 58.2 58.5 57.9 58.65 57.75 58.7 57.65 58.7
L 57.45 58.8
Q 57.4 58.8 57.4 58.85 57 58.95 56.4 59 55.75 59.05 55.3 58.8
L 52.6 58.8
Q 52.15 58.85 50.7 59.25
L 50.65 59.25 46.7 60.15
Q 46.6 60.35 46.4 60.45 46.25 60.5 46.1 60.5 45.45 60.45 44.9 60.1 44.55 60.1 44.2 60.25 44.15 60.25 44.05 60.25
L 43.95 60.25
Q 43.85 60.25 43.75 60.2
L 41.6 59.3
Q 41.3 59.2 41.1 59.2 41.05 59.2 41 59.2
L 39.9 58.9 39.85 58.9
Q 39.7 58.85 39.6 58.8
M 50.4 38.85
L 50.35 38.85
Q 49.75 38.8 49.45 38.75
L 47.05 39.05
Q 46.9 39.05 46.75 39 46.05 38.6 45.25 39.2 44.5 39.75 43.75 39.1
L 43.7 39.05
Q 43.6 39.05 43.55 39.05
L 43.5 39 43.5 39.05 43 39.55
Q 42.85 39.65 42.65 39.65
L 42.5 39.7 42.75 39.65 42.4 39.85
Q 42.25 39.9 41.55 40.4 41 40.8 41 41.3 41 41.75 41.5 41.95 41.6 42 41.65 42.05 41.8 42.1 42.15 42.1
L 42.2 42.1
Q 42.3 42.05 42.4 42.05
L 42.45 42.1
Q 42.5 42.05 42.55 42.05 42.65 41.95 43 41.7 43 41.65 43.1 41.6 43.65 41.3 43.9 41.5 44.05 41.55 44.3 41.65
L 44.3 41.7
Q 44.6 41.85 44.95 41.5
L 45 41.5
Q 45.8 40.8 46.7 40.85
L 46.75 40.85
Q 47.4 40.75 48.1 40.75
L 53.35 40.05
Q 53.4 40.05 53.5 40.05
L 58.1 40.95
Q 58.2 40.95 58.65 40.9 59.1 40.8 59.4 40.85
L 59.45 40.9 60.05 41.1 60.1 41.1
Q 60.3 41.2 60.4 41.2
L 60.8 41.2
Q 61.15 41.05 61.15 40.65 61.15 40.05 60.65 39.85
L 60.6 39.85
Q 60.5 39.8 60.35 39.75 60.25 39.75 60.2 39.7
L 59.3 39.25
Q 59.1 39.3 58.85 39.35 58.35 39.55 57.95 39.5
L 55.75 39.4
Q 55.7 39.4 55.7 39.45 55.6 39.55 55.45 39.65 55.25 39.7 55.1 39.65 54.2 39.35 53.35 39.05 52.65 39.05 52.3 38.95 51.05 38.85 50.4 38.85 Z"/>

<path fill="#1C1C1C" stroke="none" d="
M 42.5 49.15
L 42.25 49.3 41.45 49.6 41.35 49.7
Q 40.75 50.2 40.75 50.75 40.75 51.15 41.15 51.3
L 42.15 51.6 42.7 51.3
Q 42.8 51.2 42.95 51.2
L 48.25 51
Q 48.35 51 48.45 50.95
L 48.5 50.95
Q 49.3 50.65 49.65 50.7
L 49.65 50.65
Q 49.95 50.7 50.6 50.9
L 52.5 51.1
Q 53.15 51 53.5 51.05
L 58.45 52.15
Q 58.6 52.15 58.75 52.15
L 59.25 52
Q 59.3 51.95 59.4 51.95 59.45 51.95 59.7 51.9
L 59.65 51.9
Q 60.1 51.75 60.1 51.25 60.1 50.75 59.7 50.55
L 53.4 50.2 53.35 50.2
Q 53.05 50.15 52.55 50.15
L 52 50.15
Q 51.9 50.15 51.85 50.15 51.7 50.05 51.4 50
L 51.35 50
Q 50.75 49.8 50.5 49.75
L 50.4 49.75 49.45 49.35
Q 49.2 49.3 48.8 49.45 48.7 49.45 48.55 49.45
L 48.15 49.4
Q 46.45 49.6 44.7 48.85 44.35 48.75 44 48.7 43.55 48.7 43.35 48.65
L 43.3 48.65
Q 43.25 48.65 43.25 48.6
L 43.2 48.65
Q 43.1 48.75 42.9 48.75 42.95 48.8 42.65 49.05 42.6 49.1 42.5 49.15
M 43.8 45.25
Q 43.65 45.15 43.15 45
L 42.4 44.7
Q 42.25 44.6 42.15 44.5
L 42.1 44.45
Q 41.95 44.4 41.8 44.4
L 39.15 44.35
Q 38.95 44.35 38.9 44.3 38.85 44.4 38.85 44.65 38.85 44.95 39 45.25
L 39 45.2
Q 39.15 45.5 39.35 45.7
L 41.1 46
Q 41.45 45.85 41.7 45.8
L 41.7 45.85
Q 42.15 45.7 42.65 45.9
L 49.7 46.75
Q 50.55 46.6 50.9 46.65
L 51.95 46.9
Q 52.3 46.95 52.45 47.05 52.5 47.05 52.55 47.1
L 53.45 47.6 57.3 47.55
Q 57.65 47.3 57.75 47.25 57.8 47.2 57.85 47.2
L 58.2 47.05
Q 58.3 46.95 58.45 46.95
L 58.8 47
Q 58.95 47 59.05 47.1 59.2 47.15 59.25 47.2 59.3 47.15 59.4 47.15 59.45 47.05 59.85 46.7
L 60.35 46.15
Q 60.75 45.7 61 45.1
L 61 45.15
Q 61.1 44.75 61.15 44.5
L 60.75 44.5 59.7 44.95
Q 59.6 44.95 59.5 44.95 59.3 45 58.65 44.65 58.55 44.6 58.5 44.55
L 58.45 44.5
Q 58.4 44.55 58.3 44.6 58.25 44.65 58.15 44.7 58.05 44.7 57.85 44.95 57.7 45 57.6 45.05
L 53.5 45.7
Q 53.45 45.7 53.4 45.7
L 53.35 45.7
Q 53.25 45.7 53.15 45.65
L 51.95 45.2 51.85 45.2
Q 51.75 45.2 51.7 45.2 51.45 45.1 50.85 45.1 50.75 45.1 50.7 45.1
L 50.65 45.05 49.95 45.3
Q 49.5 45.45 49.15 45.35
L 44.05 45.3
Q 43.9 45.3 43.8 45.25 Z"/>
</g>
</defs>

<g transform="matrix( 1, 0, 0, 1, 0,0) ">
<use xlink:href="#Layer2_0_FILL"/>
</g>
</svg>
