
<svg xmlns="http://www.w3.org/2000/svg" version="1.1" xmlns:xlink="http://www.w3.org/1999/xlink" preserveAspectRatio="none" x="0px" y="0px" width="100px" height="100px" viewBox="0 0 100 100">
<defs>
<g id="Layer2_0_FILL">
<path fill="#1C1C1C" stroke="none" d="
M 53.9 58.7
Q 53.55 58.65 53 58.85 52.4 59.1 52.1 59.05 51.8 59 51.2 58.7 51.1 58.65 51 58.6 50.7 58.35 50.3 58.35
L 50.25 58.35
Q 50.15 58.35 50 58.35 49.95 58.35 49.95 58.4 49.6 58.35 49.3 58.4 48.85 58.4 48.55 58.4 47.35 58.45 46.75 58.45 46.5 58.5 45.85 58.25 45.3 58 44.95 58.05 44.65 58.1 44 58.4 43.3 58.75 43 58.8 42.45 58.85 42.15 58.9 41.65 59.05 41.35 59.75 41.3 59.8 41.3 60.05 41.3 60.3 41.35 60.25 41.6 59.8 42.05 59.95 41.5 60.7 41.2 60.7 41.15 60.85 41.2 60.85 41.55 61.1 42.15 60.5 42.35 60.35 42.55 60.2 42.7 60.3 42.95 60.45 43.3 60.5 43.8 60.25 43.85 60.2 43.9 60.2 44 60.25 44.1 60.3 44.75 60.65 45.1 60.7 46.25 61.3 46.85 61.2
L 48.6 60.75
Q 49.6 60.4 50.15 60.3 50.75 60.4 51.7 60.75
L 53.45 61.2
Q 54.05 61.3 55.2 60.7 55.55 60.65 56.2 60.3 56.85 60 57.15 59.9 57.45 59.85 58.15 60.5 58.8 61.1 59.15 60.85 59.2 60.85 59.1 60.7 58.8 60.7 58.25 59.9 57.7 59.15 57.4 59.1 57.05 59 56.55 59.1 55.9 59.15 55.7 59.15 54.5 58.8 53.9 58.7
M 39.9 53.7
Q 39.85 53.75 39.85 53.85 39.85 53.95 39.9 53.95 40.15 53.95 40.7 54.25 40.85 54.35 41 54.4
L 41 54.5 41.25 54.5
Q 41.4 54.5 41.5 54.5
L 43.15 54.4
Q 43.3 54.35 43.4 54.35
L 44.25 54.3
Q 44.75 54.3 45.85 54 46.1 54 46.55 53.8 46.8 53.85 47.2 53.95 47.75 54.1 48 54.1 48.3 54.1 48.8 54.25 49.4 54.45 49.65 54.45 49.8 54.45 50.15 54.3 50.5 54.45 50.7 54.45 50.95 54.45 51.5 54.25 52.05 54.1 52.35 54.1 52.55 54.1 53.15 53.95 53.65 53.8 53.95 53.8 54.5 53.8 55.6 54.15 56.1 54.2 57.2 54.4
L 58.8 54.5
Q 59.1 54.55 59.65 54.25 60.15 53.95 60.45 53.95 60.5 53.95 60.5 53.85 60.5 53.75 60.45 53.7 60.2 53.65 59.6 53.75 59.1 53.8 58.8 53.7 57.7 53.65 57.15 53.5
L 55.55 53.1
Q 55.3 53.05 54.75 52.75 54.2 52.4 53.95 52.35 52.85 52 52.3 52 52 51.95 51.5 52.05 50.95 52.15 50.7 52.15 50.5 52.1 50.15 52.2 49.85 52.1 49.65 52.15 49.4 52.15 48.85 52.05 48.3 51.95 48 52 47.45 52 46.4 52.35 46.1 52.4 45.6 52.75 45.05 53.05 44.75 53.1
L 43.15 53.5
Q 42.8 53.5 42.65 53.55 41.55 53.6 41 53.7 40.95 53.7 40.95 53.8 40.85 53.75 40.7 53.75 40.15 53.65 39.9 53.7
M 43.35 46.2
Q 43.95 46.1 44.25 46.15
L 46.85 46.85
Q 46.6 47 46.4 47.05 46.1 47.15 45.5 46.9 44.85 46.65 44.6 46.65 44.3 46.7 43.7 47 43.05 47.4 42.8 47.45 42.55 47.5 42.05 47.45 41.6 47.45 41.3 47.8 41.25 47.85 41.25 48.2 41.25 48.5 41.3 48.4 41.7 48 42.25 47.9 42.9 47.85 43.25 47.75 44.75 47.4 45.2 47.45 45.85 47.6 46.15 47.65 46.65 47.75 47.05 47.7
L 48.85 47.45
Q 49.1 47.35 49.3 47.25 49.8 47.05 50.15 46.95 50.5 47.05 51 46.9 51.25 46.9 51.55 47 52.15 47.15 52.45 47.1
L 56.05 46.15
Q 56.4 46.1 56.95 46.2 57.6 46.3 57.9 46.3 58.15 46.3 58.8 46.05 59.4 45.85 59.7 45.9 59.75 45.9 59.75 45.75 59.75 45.55 59.7 45.55 59 45.45 57.65 45.1
L 55.6 45.2
Q 55.25 45.25 54.65 45.5 54 45.8 53.75 45.8 53.4 45.85 52.8 45.6 52.2 45.35 51.9 45.35 51.6 45.4 50.95 45.7 50.45 45.95 50.15 46 49.85 45.95 49.35 45.7 48.75 45.4 48.45 45.35 48.15 45.35 47.55 45.6 46.9 45.85 46.6 45.8 46.3 45.8 45.7 45.5 45.05 45.25 44.75 45.2
L 42.7 45.1
Q 41.3 45.45 40.6 45.55
L 40.6 45.9
Q 40.95 45.85 41.5 46.05 42.15 46.3 42.45 46.3 42.7 46.3 43.35 46.2
M 47.5 39.9
Q 46.8 39.9 46.55 39.85 45.25 39.4 44.65 39.35 44.25 39.3 43.6 39.45 42.9 39.65 42.6 39.65 41.95 39.8 41.65 39.8 41.05 39.85 40.65 39.45 40.6 39.4 40.6 39.9 40.55 40.4 40.6 40.45 40.9 40.9 41.4 40.65 42.05 40.25 42.15 40.25 42.75 40.25 43.95 40.45
L 45.85 40.65
Q 46.2 40.75 46.8 41.2 47.25 41.6 47.55 41.75 47.35 41.85 47.15 41.95 46.55 42.25 46.2 42.3 45.95 42.35 45.25 42.6 44.65 42.8 44.3 42.85 44 42.9 43.35 42.6 42.7 42.35 42.35 42.35
L 40.45 42.5 40.45 42.95
Q 40.7 43 41.2 42.7 41.65 42.45 41.9 42.5 42.15 42.55 42.65 42.8 43.15 43.1 43.35 43.15 43.6 43.2 44.1 43.5 44.55 43.85 44.8 43.85 45.15 43.9 46.75 43.75 47.1 43.7 47.7 43.2 48.4 42.65 48.7 42.55 49 42.5 49.3 42.5 49.8 42.45 50.15 42.35 50.5 42.45 51 42.5 51.25 42.1 51.6 42.05 52.25 42.05 52.55 41.9 52.8 41.8 53.5 41.2 54.1 40.75 54.5 40.65
L 56.4 40.45
Q 57.6 40.25 58.2 40.25 58.3 40.25 58.95 40.65 59.4 40.9 59.7 40.45 59.75 40.4 59.75 39.9 59.75 39.4 59.65 39.45 59.25 39.85 58.7 39.8 58.35 39.8 57.7 39.65 57.45 39.65 56.7 39.45 56.05 39.3 55.7 39.35 55.05 39.4 53.8 39.85 53.5 39.9 52.85 39.9 52.25 39.85 51.9 39.95 51.3 40.15 50.15 40.8 49.05 40.15 48.45 39.95 48.1 39.85 47.5 39.9 Z"/>
</g>
</defs>

<g transform="matrix( 1, 0, 0, 1, 0,0) ">
<use xlink:href="#Layer2_0_FILL"/>
</g>
</svg>
