
<svg xmlns="http://www.w3.org/2000/svg" version="1.1" xmlns:xlink="http://www.w3.org/1999/xlink" preserveAspectRatio="none" x="0px" y="0px" width="100px" height="100px" viewBox="0 0 100 100">
<defs>
<g id="Layer2_0_FILL">
<path fill="#000000" stroke="none" d="
M 50.05 50.6
Q 50.2 50.45 50.3 50.4 50.2 48.8 49.45 49.35 48.95 49.65 48.95 50 48.85 50.15 49.1 50.4 49.45 51.05 50.05 50.6
M 63.55 50.15
Q 63.6 50.35 63.85 50.5 64.35 50.85 64.45 49.8 64.35 49.75 64.3 49.65 63.85 49.35 63.6 49.8 63.5 49.75 63.45 49.65 63 49.35 62.75 49.8 62.7 49.85 62.7 49.9 62.65 50 62.7 50.05 62.7 50.3 63 50.5 63.4 50.8 63.55 50.15
M 35.65 50.4
Q 35.9 50.85 36.3 50.55 36.4 50.45 36.45 50.4 36.4 49.35 35.9 49.7 35.55 49.9 35.55 50.15 35.5 50.25 35.65 50.4
M 42 49.3
Q 41.85 49.25 41.65 49.4 41.45 49.45 41.4 49.6 41.15 49.35 40.9 49.7 40.8 49.75 40.75 49.85 40.75 49.8 40.7 49.7 40.45 49.25 39.95 49.55 39.8 49.65 39.8 49.7 39.5 49.25 39 49.6 39 49.65 38.95 49.65 38.95 49.6 38.9 49.6 38.8 49.2 38.55 49.25 38.35 49.25 38.2 49.4 38.05 49.5 37.95 49.6 37.75 49.35 37.6 49.4 37.35 49.4 37.2 49.65 36.9 50.1 37.2 50.5 37.35 50.7 37.75 50.5 37.95 50.4 38.05 50.25 38.25 50.6 38.7 50.35
L 38.8 50.3 38.85 50.35
Q 39.1 50.8 39.6 50.5 39.75 50.4 39.8 50.3 40.2 50.8 40.6 50.5
L 40.6 50.55
Q 40.7 50.85 40.95 50.85 41.05 50.85 41.25 50.75 41.45 50.6 41.6 50.45 41.85 50.6 42.2 50.45 42.35 50.3 42.5 50.2 42.5 50.3 42.6 50.5 42.9 50.95 43.45 50.65
L 43.5 50.65
Q 43.8 50.9 44.2 50.65 44.4 50.5 44.45 50.35 44.45 50.4 44.45 50.45 44.6 50.95 45.2 50.6 45.35 50.5 45.45 50.4 45.85 50.9 46.4 50.6 46.5 50.5 46.6 50.45 46.9 50.75 47.45 50.45 47.55 50.4 47.6 50.4 48.05 50.85 48.55 50.55 49.05 50.15 48.75 49.65 48.4 49.1 47.8 49.45 47.65 49.5 47.7 49.55 47.45 49.25 47.15 49.25 46.95 49.25 46.7 49.45 46.65 49.5 46.6 49.6 46.25 49.2 45.7 49.45 45.6 49.5 45.55 49.6 45.4 49.25 45.15 49.3 44.95 49.3 44.8 49.5 44.5 49.75 44.45 50.05 44.4 49.9 44.35 49.85 44 49.35 43.55 49.65 43.25 49.4 42.8 49.7 42.6 49.8 42.55 49.95 42.55 49.75 42.45 49.6 42.3 49.25 42 49.3
M 61.3 49.4
Q 61.1 49.25 60.95 49.25 60.7 49.2 60.55 49.6
L 60.55 49.65
Q 60.5 49.65 60.45 49.6 60 49.25 59.65 49.7 59.65 49.65 59.5 49.55 59.05 49.25 58.75 49.7 58.7 49.8 58.7 49.85 58.65 49.75 58.6 49.7 58.3 49.35 58.1 49.6 58 49.45 57.85 49.4 57.65 49.25 57.45 49.3 57.2 49.25 57 49.6 56.95 49.75 56.95 49.95 56.85 49.8 56.7 49.7 56.25 49.4 55.95 49.65 55.45 49.35 55.1 49.85 55.1 49.9 55.05 50.05 54.95 49.75 54.65 49.5 54.5 49.3 54.35 49.3 54.1 49.25 53.9 49.6 53.9 49.5 53.75 49.45 53.2 49.2 52.9 49.6 52.85 49.5 52.75 49.45 52.5 49.25 52.3 49.25 52 49.25 51.75 49.55 51.8 49.5 51.7 49.45 51.05 49.1 50.75 49.65 50.4 50.15 50.95 50.55 51.4 50.85 51.85 50.4 51.95 50.4 52 50.45 52.55 50.75 52.9 50.45 52.95 50.5 53.1 50.6 53.65 50.9 54 50.4 54.15 50.5 54.25 50.6 54.85 50.95 55.05 50.45 55.05 50.4 55.05 50.35 55.1 50.5 55.3 50.65 55.65 50.9 56 50.65
L 56.05 50.65
Q 56.55 50.95 56.85 50.5 57 50.3 57 50.2 57.1 50.3 57.25 50.45 57.65 50.6 57.9 50.45 58 50.6 58.2 50.75 58.4 50.85 58.55 50.85 58.8 50.85 58.9 50.55
L 58.9 50.5
Q 59.3 50.8 59.65 50.3 59.75 50.4 59.85 50.5 60.35 50.8 60.6 50.35
L 60.65 50.3
Q 60.7 50.3 60.8 50.35 61.25 50.6 61.45 50.25 61.5 50.4 61.75 50.5 62.1 50.7 62.25 50.5 62.55 50.1 62.25 49.65 62.1 49.4 61.9 49.4 61.75 49.35 61.5 49.6 61.45 49.5 61.3 49.4 Z"/>
</g>
</defs>

<g transform="matrix( 1, 0, 0, 1, 0,0) ">
<use xlink:href="#Layer2_0_FILL"/>
</g>
</svg>
