
<svg xmlns="http://www.w3.org/2000/svg" version="1.1" xmlns:xlink="http://www.w3.org/1999/xlink" preserveAspectRatio="none" x="0px" y="0px" width="100px" height="100px" viewBox="0 0 100 100">
<defs>
<g id="Layer2_0_FILL">
<path fill="#1C1C1C" stroke="none" d="
M 60.4 45.85
Q 60.3 45.85 60.2 45.9 60.3 45.95 60.4 46 60.45 46 60.45 45.95 60.45 45.85 60.4 45.85
M 42.95 47.55
Q 42.45 47.6 42.1 47.9 42 47.95 42 48.35 42 48.5 42.05 49.15 42.25 49.2 42.8 49.2 43.25 49.2 43.5 49.3 43.75 49.35 44.25 49.3 44.75 49.25 45 49.35 45.5 49.5 46.5 50 47 50.1 47.95 50.5 48.25 50.55 48.7 50.4 49.25 50.3 49.45 50.3 49.65 50.3 50.2 50.5 50.7 50.7 50.95 50.7 51.1 50.7 51.35 50.7 51.1 50.85 50.8 51.1 50.25 51.45 49.95 51.55 49.1 51.7 48.3 51.7 47.2 51.95 46.65 51.95 45.55 51.6 45 51.65 43.65 51.75 43.35 51.85 43.3 51.85 41.7 52.3
L 40.9 52.6
Q 40.55 52.7 40.3 52.7 40.5 52.9 40.9 53.2 41.4 53.6 41.7 53.65 42 53.65 42.55 53.35 43.1 53 43.35 53.05 43.9 53.05 45 53.55 45.3 53.65 45.75 53.85
L 45.7 53.85 44.4 54.15
Q 44.1 54.25 43.75 54.65 43.35 55.1 43.1 55.3 43 55.4 43 55.95 43 56.5 43.1 56.4 43.45 56.2 44.5 55.95 44.75 55.9 45.15 56.1 45.65 56.4 45.85 56.4 46.05 56.45 46.5 56.15 47 55.9 47.2 55.95 47.45 56.05 47.9 56.35 48.35 56.7 48.55 56.75 48.8 56.85 49.25 56.85 49.7 56.9 49.9 56.95 50.15 57 50.6 57.4 51.05 57.75 51.25 57.8 51.5 57.85 51.9 57.65 52.35 57.45 52.55 57.45 52.8 57.5 53.25 57.8 53.65 58.1 53.9 58.1 54.1 58.1 54.55 58 54.95 57.85 55.2 57.95 55.45 58 55.85 58.4 56.25 58.85 56.45 58.9 56.55 58.95 56.6 58.95 56.2 59.25 55.95 59.25 55.7 59.3 55.2 59.15 54.7 59.05 54.5 59.05 54.2 59 53.75 58.8 53.15 58.55 52.95 58.5
L 51.45 58.2
Q 50.45 57.65 49.95 57.55 49.65 57.5 49.2 57.6 48.65 57.7 48.4 57.7 47.4 57.45 46.9 57.5 46.6 57.55 46.1 57.8 45.5 58.1 45.3 58.15 44.75 58.4 44.5 58.45 44.05 58.55 43.75 58.2 43.7 58.15 43.7 58.65 43.65 59.15 43.7 59.25 43.95 59.65 44.35 59.3 44.85 58.75 44.95 58.75
L 46.35 58.7
Q 46.85 58.75 47.9 58.65 48.15 58.65 48.65 59.05 49.25 59.5 49.4 59.6 49.65 59.7 50.2 59.6 50.7 59.55 50.95 59.6 51.45 59.75 52.5 59.65 52.7 59.7 53.25 60.15 53.75 60.55 54.05 60.55 54.15 60.55 54.3 60.55 54.2 60.6 54.15 60.65 53.65 61.2 53.4 61.2
L 48.75 62.4
Q 48.5 62.5 47.95 62.3 47.45 62.1 47.2 62.15 46.95 62.2 46.4 62.7 45.9 63.15 45.65 63.2 45.4 63.25 44.9 63.1 44.4 62.9 44.2 62.9 43.9 62.95 43.45 63.25 42.95 63.65 42.75 63.7 42.5 63.8 42 63.9 41.6 64 41.3 64.35 41.1 64.6 41.15 65.15 41.15 65.7 41.35 65.65
L 43 65.2
Q 43.3 65.15 43.85 65.3 44.4 65.5 44.65 65.4 45.75 65.2 46.3 65.05 46.6 64.95 47.15 64.6 47.7 64.2 47.95 64.1 48.2 64.05 48.8 64.05 49.3 64.1 49.6 64
L 51.25 63.55
Q 51.55 63.45 52.1 62.85 52.65 62.25 52.9 62.15 53.2 62.1 53.75 62.3 54.3 62.45 54.6 62.4 54.85 62.4 55.4 62.2 55.95 62 56.25 61.95 57.35 61.75 57.9 61.75 58.2 61.75 58.75 62 59.3 62.3 59.55 62.35 59.65 62.35 59.65 61.6 59.65 60.9 59.55 60.8 58.55 60.4 58 60.3 57.5 60.2 56.5 60.1
L 55.95 60.15
Q 56.05 60.05 56.15 59.9 56.55 59.5 56.7 59.4 56.95 59.35 57.3 59 57.6 58.75 57.8 58.65 57.9 58.65 58.35 58.8 58.65 58.9 58.85 58.8 58.95 58.8 59.05 58.8
L 59.05 58.55
Q 59.1 58.2 59.1 57.4 59.1 56.25 58.95 56.3 58.65 56.45 58.25 56.35 57.8 56.25 57.6 56.2 57.4 56.2 56.95 56.45 56.5 56.75 56.3 56.65 56.05 56.6 55.6 56.05 55.2 55.5 54.95 55.4 54.75 55.35 54.3 55.6 53.85 55.85 53.6 55.8 53.35 55.75 52.9 55.45 52.45 55.15 52.25 55.1 51.35 55.15 50.9 55
L 49.6 54.75
Q 49.4 54.7 48.95 54.35 48.5 54 48.3 53.95 48.55 53.95 49.1 54.35 49.65 54.7 49.95 54.65 50.5 54.55 51.6 54.1 51.9 54 52.45 53.45 53 52.9 53.25 52.8 53.55 52.65 54.1 52.8 54.65 52.9 54.95 52.8
L 56.6 52.1
Q 56.9 52.05 57.45 51.6 58 51.2 58.3 51.15 58.55 51.1 59.15 50.75 59.7 50.5 60 50.45 60.2 50.4 60.2 49.55 60.2 48.7 60 48.6 59.65 48.45 59.2 48.45
L 59 48.45
Q 58.65 48.25 58.4 48.3
L 56.9 48.45
Q 55.95 48.6 55.4 48.65 54.45 49 53.95 49.05 53.7 49.05 53.2 48.9 52.7 48.7 52.45 48.75 52.2 48.75 51.7 48.55 51.2 48.35 50.95 48.35 50.7 48.35 50.2 48.7 49.7 49.05 49.45 49.05 48.45 49.3 48 49.3 47.75 49.3 47.25 49.05 46.75 48.8 46.5 48.8 46.55 48.75 46.65 48.65 47.25 48.15 47.55 48.05 47.85 47.95 48.4 48 49 48.1 49.25 48.05 49.85 47.95 51 47.95 51.3 47.9 51.9 47.7 52.45 47.45 52.75 47.45 53.35 47.45 54.5 47.5 55.75 47.4 56.25 46.75 56.4 46.55 56.4 45.6 56.4 44.6 56.2 44.55
L 55.3 44.1
Q 54.75 43.85 54.4 43.95 54.1 44 53.45 44.5 52.85 44.95 52.55 45
L 50.8 45.3
Q 50.5 45.35 49.9 45.15 49.35 45 49 45.15 48.75 45.25 48.2 45.7 47.6 46.15 47.3 46.25 46.15 46.6 45.6 46.85 45.05 47.15 43.85 47.45 43.25 47.5 42.95 47.55
M 50.6 39.25
Q 50.3 39.35 49.75 39.75 49.25 40.2 48.95 40.25 48.7 40.35 48.15 40.2 47.6 40.1 47.35 40.15 46.8 40.35 45.7 40.85 45.4 40.95 44.9 41 44.35 41 44.1 41.1 43.85 41.2 43.3 42.05 42.8 42.9 42.55 42.95 42.5 42.95 42.5 43.1 42.6 43.15 42.75 43.15 42.6 43.2 42.5 43.3 42.45 43.4 42.45 43.7 42.45 44 42.5 43.95 42.85 43.6 43.4 43.55 44 43.55 44.3 43.45 45.6 43.25 46.1 43.4 46.7 43.6 46.95 43.7 47.45 43.85 47.8 43.8
L 49.45 43.7
Q 50.55 43.3 51.1 43.3 51.35 43.3 51.9 43.5 52.5 43.75 52.75 43.7 53.85 43.45 54.45 43.35
L 56.1 43.15
Q 56.4 43.1 56.95 43.3 57.55 43.5 57.8 43.5 58.9 43.15 59.45 43.25 59.5 43.25 59.45 42.95 58.8 42.75 57.55 42.25 56.9 42.15 55.65 42.15 55.35 42.15 54.8 42.35 54.25 42.6 53.95 42.55 53.65 42.55 53.1 42.25 52.55 41.95 52.25 41.9 51.95 41.9 51.4 42.15 50.85 42.4 50.55 42.4 50.3 42.4 49.7 42.2 49.25 42.1 49 42.05
L 49.35 41.9
Q 50.4 41.3 50.95 41.15 52.05 40.75 52.6 40.65 53.65 40.7 54.2 40.55 55.3 40 55.85 40 56.9 40.4 57.4 40.25 57.9 39.85 58.1 39.65 58.55 39.35 58.85 39.8 58.9 39.9 58.9 39.3 58.55 38.65 58.1 38.6 57.85 38.55 57.35 38.6 57.05 38.6 56.4 38.35 55.85 38.15 55.5 38.15 55.2 38.15 54.7 38.45 54.1 38.8 53.9 38.85 53.65 38.9 53.05 38.95 52.55 38.95 52.25 39.05 52.05 39.1 51.4 39.15 50.9 39.15 50.6 39.25
M 46.1 42.35
Q 47.2 42.8 47.7 42.6
L 48.3 42.35
Q 48.2 42.45 48.05 42.55 47.5 43.05 47.2 43.1 46.9 43.15 46.35 42.85 45.8 42.5 45.55 42.5 45.25 42.5 44.7 42.8 44.15 43.1 43.9 43.1 43.65 43.15 43.2 43.05 43 43.05 42.9 43.1 43.1 42.95 43.4 42.6 44.05 41.9 44.3 41.9 44.65 41.9 45.2 42.1 45.8 42.35 46.1 42.35
M 51.95 37.1
Q 52.2 37.05 52.75 36.8 53.3 36.5 53.55 36.45
L 55.2 36.25
Q 55.5 36.25 56.05 36.5 56.6 36.8 56.85 36.75 57.1 36.75 57.65 36.6 58.2 36.45 58.5 36.5 58.8 36.5 59.3 36.65 59.95 36.85 60.15 36.9 60.2 36.95 60.2 36.55 60.2 36.2 60.15 36.15 59.85 36 59.35 35.95 58.75 35.9 58.55 35.85 58.25 35.8 57.7 35.35 57.2 34.9 56.9 34.85 56.4 34.8 55.3 34.95 55.05 34.95 54.5 35.25 53.95 35.6 53.7 35.6 53.15 35.6 52.05 35.35 51.5 35.4 50.45 35.1 50.2 35.1 49.65 35.3 49.1 35.5 48.8 35.5 48.25 35.5 47.15 35.2 46.9 35.2 46.35 35.6 45.8 35.95 45.5 35.95 45.2 35.95 44.4 35.7 43.7 35.5 43.3 35.6 42.6 35.8 41.15 36.55 40.85 36.65 40.85 37.25 40.8 37.85 41.1 38.05 42.45 38.95 43.2 38.6 43.35 38.5 44.3 38 45.05 37.6 45.5 37.55 46.55 37.8 47.1 37.8 48.65 37.65 48.7 37.65 49.75 37.35 50.3 37.3
L 51.95 37.1 Z"/>
</g>
</defs>

<g transform="matrix( 1, 0, 0, 1, 0,0) ">
<use xlink:href="#Layer2_0_FILL"/>
</g>
</svg>
