
<svg xmlns="http://www.w3.org/2000/svg" version="1.1" xmlns:xlink="http://www.w3.org/1999/xlink" preserveAspectRatio="none" x="0px" y="0px" width="100px" height="100px" viewBox="0 0 100 100">
<defs>
<g id="Layer2_0_FILL">
<path fill="#000000" stroke="none" d="
M 44.1 53.7
Q 43.8 53.05 43.5 53.35 43.05 53.6 43.35 54.15 43.35 54.55 43.7 54.6
L 43.9 54.6
Q 44.4 54.25 44.1 53.7
M 41.6 53.2
Q 41.4 53.1 41.45 53.3 41.4 53.2 41.35 53.15 41.1 52.75 40.8 53 40.35 53.1 40.65 53.55 40.85 53.9 41.25 53.8 41.25 53.6 41.4 53.6 41.45 53.6 41.5 53.85 41.65 54.1 41.8 54.3 41.85 54.3 42.05 54.15 42.3 53.8 42.15 53.4 41.9 52.9 41.6 53.2
M 42.6 53.3
Q 42.2 53.6 42.35 53.95 42.35 54.25 42.9 54.15 43.3 53.8 43.1 53.4 42.75 52.95 42.6 53.3
M 42 51.8
Q 41.65 51.95 41.85 52.45 41.95 52.65 42.25 52.7 42.2 52.6 42.5 52.65 42.85 52.5 42.6 52.05 42.2 51.5 42 51.8
M 41.6 51.9
Q 41.25 51.5 41.1 51.75 40.75 52 40.8 52.25 40.9 52.5 41.4 52.4 41.8 52.15 41.6 51.9
M 44.05 51.7
Q 43.807421875 51.8212890625 43.8 51.85 43.536328125 51.609765625 43.2 51.85 42.65 52.15 43.05 52.4 43.3 52.7 43.7 52.6 43.75 52.5 43.95 52.45 44.2 52.85 44.6 52.6 44.95 52.35 44.7 51.9 44.45 51.55 44.35 51.65 44.2 51.55 44.05 51.7
M 45.65 52.75
Q 46.1 52.45 45.95 52.05 45.75 51.75 45.55 51.75 45.4 51.75 45.25 51.9 44.95 52.1 45 52.25 44.9 52.35 45 52.55 45.05 52.9 45.65 52.75
M 48.05 51.9
Q 47.85 51.9 47.65 52 46.95 52.3 47.4 52.75 47.75 53.1 48.3 52.95 48.75 52.65 48.55 52.2 48.3 51.9 48.05 51.9
M 46.55 51.8
Q 46.35 51.75 46.3 51.9 45.9 52.2 46.1 52.7 46.2 53.1 46.9 53.05 47.4 52.75 47.05 52.2 46.8 51.75 46.55 51.8
M 51 52.85
Q 51.35 52.2 50.85 52 50.7 51.8 50.5 51.9 50.2 51.8 50.05 52.2
L 50.05 52.3
Q 49.9 52.15 49.95 52.15 49.6 51.7 49.45 51.8 49.2 51.7 49.1 51.9 48.5 52.2 48.9 52.75 49.25 53.3 49.75 53 49.8 52.8 50 52.75 50.1 52.75 50 52.85
L 50.2 53.05
Q 50.6 53.35 51 52.85
M 52.55 53.6
Q 52.25 53.55 52.1 53.6 51.7 53.5 51.5 53.85 51.45 53.95 51.4 54.15
L 51.35 54.1
Q 50.7 53.8 50.25 54.15 50.1515625 54.2484375 50.2 54.3
L 50.05 54.15 50.05 54.05
Q 49.75 54.05 49.8 54.15 49.65 54.2 49.7 54.1 49.2 53.7 48.65 54 48.50234375 53.95078125 48.55 54.1 48.4984375 53.9484375 48.4 53.85 48.15 53.4 47.85 53.5 47.65 53.35 47.45 53.6 47.2 53.65 47.15 53.7 46.8 53.4 46.45 53.75 46.3 53.7 46.3 53.8 46.15 53.75 46.2 53.55 45.95 53.25 45.85 53.25 45.7 53.2 45.55 53.3 45.35 53.45 45.35 53.55 45.05 53.15 44.7 53.45 44.15 53.65 44.55 54.15 44.8 54.7 45.2 54.45 45.35 54.35 45.45 54.2 45.7 54.75 46.1 54.45 46.1 54.5 46.1 54.55 46.1 54.8 46.45 54.9 46.6 54.8 46.9 54.85 47.05 54.65 47.35 54.6 47.55 54.7 48.15 54.65 48.1 54.55 48.2 54.6
L 48.35 54.8
Q 48.45 55.1 48.9 55.2 49 55.2 49.45 55 49.65 54.85 49.85 54.7 49.85 54.75 49.85 54.85
L 50.05 55 50.1 55
Q 50.05 54.8 50.15 54.8 50.15 55 50.5 55.15 50.85 55.25 51 55.3 51.3 55.25 51.6 55 51.6 54.8 51.75 54.65 51.8 54.6 51.85 54.7 52.35 54.9 52.65 54.7 52.75 54.9 53 54.95 53.35 55 53.5 55.05 53.7 54.9 53.9 54.7 53.9 54.65 53.9 54.6 54.2 55 54.5 54.35 54.55 54.45 54.75 54.65 55.1 54.85 55.4 54.35 55.75 53.8 55.25 53.6 54.85 53.3 54.65 53.65 54.55 53.55 54.45 53.4 54.2 53.35 54.1 53.3 53.85 53.3 53.75 53.7 53.65 53.85 53.7 53.9 53.55 53.8 53.55 53.85 53.1 53.4 52.8 53.85 52.7 53.65 52.55 53.6
M 52.3 52.1
Q 52 51.9 51.9 51.95 51.6 51.95 51.45 52.25 51.1 52.75 51.7 53 52.05 53.25 52.55 52.8 52.85 52.3 52.3 52.1
M 53.1 50.5
Q 52.7 50 52.45 50.5 52.2 50.25 52.15 50.2 51.8 50.05 51.65 50.1 51.2 49.95 51.15 50.5 50.9 50.55 51 50.75
L 50.9 50.75
Q 50.25 50.3 50 50.75 49.95 50.7 50.05 50.65 49.55 50.2 49.05 50.6 48.9 50.55 48.9 50.7 48.8 50.55 48.85 50.4 48.55 49.9 48.25 50 48 49.95 47.75 50.1 47.65 50.1 47.55 50.4 47.1 49.85 46.85 50.45 46.3 50.8 46.5 51.35 46.5 51.45 46.9 51.6 46.9 51.45 47.25 51.5 47.5 51.35 47.75 51.25 47.95 51.4 48.55 51.25
L 48.65 51.25
Q 48.60078125 51.2513671875 48.7 51.4 49 51.6 49.25 51.65 49.45 51.6 49.8 51.55
L 50 51.55 50.05 51.6
Q 50.25 51.7 50.6 51.75 50.8 51.7 51.15 51.5 51.15 51.35 51.3 51.3 51.3 51.25 51.45 51.35 51.85 51.4 52.25 51.35 52.35 51.45 52.65 51.55 52.85 51.6 53.05 51.6 53.35 51.6 53.4 51.35 53.65 50.95 53.1 50.5
M 54.4 51.85
Q 54.05 51.85 54.05 52.15 53.7 52.55 54.3 52.8 54.85 52.95 55 52.7 55 52.5 55 52.35 54.85 52.1 54.7 52 54.55 51.75 54.4 51.85
M 53.7 51.95
Q 53.45 51.85 53.35 51.9 52.95 51.85 52.9 52.3 52.5 52.85 53.05 53.05 53.55 53.3 53.85 52.75 54 52.2 53.7 51.95
M 57.1 54.35
Q 57.4 54.5 57.65 54.15 57.65 53.7 57.4 53.45 57.05 53.1 56.9 53.6 56.7 54.05 57.1 54.35
M 57.9 54.4
Q 57.95 54.45 58.15 54.5 58.3 54.4 58.45 54.1 58.5 53.9 58.55 53.75 58.65 53.8 58.75 53.95 59.05 54.15 59.3 53.8 59.55 53.4 59.15 53.15 58.7 52.95 58.6 53.35 58.5 53.35 58.55 53.5 58.5 53.4 58.35 53.3 58 53.05 57.8 53.6 57.65 54 57.9 54.4
M 56.45 53.5
Q 56.15 53.1 55.85 53.85 55.45 54.35 56 54.75 56.05 54.75 56.25 54.75 56.45 54.8 56.65 54.35 56.75 53.75 56.45 53.5
M 58.15 52.55
Q 58.2 52.1 58 51.9 57.65 51.55 57.3 52.15 57 52.65 57.45 52.8 57.6 52.75 57.75 52.8 57.95 52.75 58.15 52.55
M 56.15 52
Q 56.05 51.85 55.95 51.8 55.65 51.65 55.55 51.7 55.4 51.65 55.25 51.95 54.95 52.45 55.4 52.75 55.7 52.9 56 52.5 56.05 52.7 56.25 52.7 56.6 52.8 56.9 52.55 57.15 52.2 56.75 51.9 56.25 51.7 56.15 52
M 60.05 51.9
Q 60 51.85 59.85 51.85 59.3 51.6 59.3 52 58.95 52.3 59.4 52.6 59.4 52.55 59.6 52.65 59.8 52.5 59.95 52.4 59.999609375 52.251171875 60.05 52.2 60.00234375 52.250390625 60.25 52.3 60.6 52.45 60.75 52.2 61.1 51.8 60.65 51.7 60.1 51.45 60.1 51.85
L 60.05 51.9
M 59.1 52.45
Q 59.2 52.2 58.9 51.9 58.55 51.55 58.35 52 58.15 52.35 58.55 52.5 58.95 52.65 59.1 52.45
M 63.8 52.9
Q 63.7 52.75 63.55 52.8 63.5 52.75 63.4 53 63.2 53.25 63.55 53.5 63.85 53.55 63.95 53.35 63.9 53.05 63.8 52.9
M 61.05 53.65
Q 61.1 53.3 60.9 53.05 60.8 53.05 60.7 53 60.55 52.95 60.4 53.25
L 60.4 53.35
Q 60.3 53.2 60.35 53.2 60.1 52.75 59.8 53 59.45 53.1 59.7 53.7 59.8 54.05 60.05 54.05
L 60.2 53.85
Q 60.2984375 53.6037109375 60.4 53.5 60.3046875 53.60234375 60.6 53.75 60.95 53.95 61.05 53.65
M 63.2 53
Q 63 52.65 62.75 52.75 62.5 52.9 62.6 53.15 62.35 53.05 62.45 53.05 62.25 52.75 62.05 53 61.8 53.1 61.9 53.2
L 61.85 53.2
Q 61.55 52.8 61.4 53.1 61 53.25 61.35 53.7 61.35 54 61.5 53.95 61.65 53.9 61.75 53.85 61.85 53.65 61.9 53.6 62.05 53.85 62.4 53.6 62.5986328125 53.3517578125 62.6 53.3
L 62.6 53.4
Q 62.75 53.6 62.9 53.65 63 53.7 63.1 53.6 63.25 53.2 63.2 53
M 61.65 51.7
Q 61.6 51.55 61.5 51.65 61.25 51.55 61.15 51.9 60.75 52.25 61.3 52.45 61.6 52.45 61.85 52.2 61.7 52.1 61.9 52.1 61.9 52 62.1 52.2 62.3 52.25 62.5 52.15 62.65 51.9 62.4 51.7 62.2 51.65 62.15 51.6 61.95 51.6 61.9 51.8 61.8 51.85 61.8 51.9 61.7 51.75 61.65 51.7
M 65.25 51.6
Q 65.15 51.5 65.05 51.55 64.95 51.55 64.8 51.7 64.65 51.95 65.05 52.05 65.35 52.2 65.45 51.95 65.45 51.8 65.25 51.6
M 64.35 51.6
Q 64.25 51.5 64.15 51.75 64.1 51.8 64.1 51.9 64 51.7 63.9 51.65 63.45 51.55 63.4 51.75 63.35 51.6 63.25 51.55 63.15 51.45 63.05 51.5 62.75 51.45 62.85 51.7 62.6 51.9 62.9 52.15 63.05 52.35 63.35 52
L 63.4 52
Q 63.2 52.1 63.55 52.2 63.65 52.15 63.9 52.1 64 51.9 64.05 51.95 64.05 52.2 64.25 52.2 64.55 52.2 64.65 52.05 64.65 51.75 64.6 51.6 64.5 51.55 64.35 51.6
M 64.3 50.25
Q 64.05 50.2 63.95 50.45 63.75 50.35 63.7 50.25 63.55 50.05 63.4 50.15 63.1 50.15 63 50.5 62.95 50.5 62.9 50.45 62.4 50.15 62.15 50.5 62.1 50.5 61.9 50.45 61.6 50.15 61.25 50.5 61.153125 50.5 61.2 50.65 61.1484375 50.5015625 61.1 50.55 60.8 50.25 60.65 50.5 60.55 50.3 60.4 50.3 60.15 50.2 60.05 50.2 59.65 50.2 59.6 50.5 59.45 50.6 59.5 50.7 59.45 50.65 59.25 50.55 58.85 50.2 58.6 50.5 58 50.3 57.8 50.75 57.75 50.75 57.7 50.85 57.55 50.55 57.4 50.45 57.15 50.2 57.1 50.2 56.7 50.15 56.7 50.5 56.6 50.4 56.45 50.4 55.9 50.15 55.7 50.5 55.65 50.4 55.6 50.4 55.3 50.2 55.15 50.2 54.8 50.1 54.6 50.5
L 54.55 50.4
Q 53.9 49.95 53.65 50.55 53.35 51 53.8 51.35 54.15 51.6 54.65 51.25
L 54.85 51.25
Q 55.3 51.5 55.7 51.25 55.7 51.3 55.9 51.35 56.3 51.6 56.7 51.15 56.75 51.25 57 51.35 57.4 51.45 57.75 51.2 57.8 51.3 57.95 51.35 58.3 51.4 58.6 51.35
L 58.65 51.35
Q 59.25 51.4 59.45 51.1 59.55 51.05 59.6 50.95 59.65 51.05 59.85 51.1 60.15 51.1 60.4 51.1 60.6 51.2 60.8 51.3 60.85 51.35 61.05 51.35 61.4 51.35 61.35 51.1
L 61.35 51.05
Q 61.75 51.3 62.15 51 62.15 51.05 62.3 51.05 62.8 51.25 63.05 50.95
L 63.1 50.95
Q 63.15 50.95 63.2 50.95 63.55 51.1 63.85 50.9 63.9 50.9 64.1 51.05 64.55 51.2 64.6 51.05 64.75 50.75 64.65 50.45 64.4 50.25 64.3 50.25
M 66.25 53.25
Q 66.1 53.1 66.15 53.1 65.85 52.6 65.55 52.75 65.4 52.75 65.45 52.85 65.35 52.85 65.45 53 65.35 52.9 65.25 52.8 65.15 52.75 65.05 52.75 64.85 52.75 64.8 52.95 64.75 52.8 64.65 52.8 64.6 52.7 64.55 52.75 64.25 52.75 64.3 52.9 64.15 53.3 64.35 53.45 64.6 53.65 64.8 53.35
L 64.95 53.4
Q 65.15 53.55 65.35 53.3 65.4 53.05 65.45 53.1
L 65.45 53.05
Q 65.4509765625 53.1013671875 65.6 53.3 65.85 53.85 66.25 53.25
M 66.55 52
Q 66.65 51.9 66.75 51.85 66.65 51.65 66.55 51.6 66.35 51.55 66.35 51.6 66.1 51.5 66.05 51.7 66.05 51.6 66 51.6 65.9 51.5 65.75 51.55 65.7 51.45 65.6 51.65 65.45 51.95 65.7 52.1 65.8 52.2 66.05 51.95 66.05 52 66.2 52.05 66.4 52.15 66.55 52
M 66.25 50.75
Q 66.2 50.65 65.9 50.5 65.35 50.2 65.35 50.95 65.45 51 65.5 51.05 65.9 51.25 66.1 50.95 66.3 50.85 66.25 50.75
M 35.1 51.55
Q 35 51.35 34.9 51.45 34.8 51.35 34.7 51.5 34.35 51.6 34.55 51.8 34.65 51.9 34.9 51.9 35.2 51.75 35.1 51.55
M 33.65 51.45
Q 33.45 51.4 33.45 51.5 33.3 51.6 33.35 51.7
L 33.3 51.85
Q 33.5 51.95 33.7 51.9 33.7 51.85 33.9 51.8 34 52 34.25 51.9 34.5 51.7 34.35 51.55 34.25 51.35 34.15 51.4 34.05 51.35 33.95 51.45 33.85 51.5 33.9 51.55 33.7 51.4 33.65 51.45
M 34.45 50.95
Q 34.45 50.9 34.6 50.85 34.45 50.15 34.05 50.4 33.65 50.55 33.65 50.7 33.65 50.75 33.8 50.85 33.85 51.05 34.45 50.95
M 39.6 53.15
Q 39.5 53 39.55 53 39.4 52.75 39.25 52.75 39.1 52.75 39.1 52.9 38.8 53 38.9 53.35 38.95 53.7 39.35 53.55 39.5 53.3 39.6 53.25 39.6 53.45 39.8 53.6 39.8 53.7 39.95 53.8 40 53.7 40.25 53.45 40.45 52.9 40.2 52.8 39.75 52.55 39.65 53 39.55 53.05 39.6 53.15
M 35.55 53.2
Q 35.7 52.95 35.65 52.7 35.45 52.35 35.4 52.45 35.25 52.45 35.25 52.5 35.2 52.5 35.15 52.65 35.05 52.45 34.95 52.5 34.75 52.45 34.75 52.5 34.55 52.55 34.6 52.65
L 34.55 52.6
Q 34.5 52.45 34.45 52.45 34.05 52.4 33.8 52.8 33.75 52.8 33.7 52.95 34.05 53.5 34.4 53 34.4 52.8 34.55 52.75
L 34.55 52.8
Q 34.5 52.8 34.65 53 34.75 53.15 35 53.1 35.1 53 35.2 53 35.3 53.3 35.55 53.2
M 36.15 52.65
Q 35.9 52.75 36.05 53.05 36.05 53.35 36.4 53.2 36.7 53 36.6 52.75 36.5 52.45 36.4 52.55 36.2 52.5 36.15 52.65
M 37.5 52.75
Q 37.3546875 52.75 37.4 52.9 37.3470703125 52.7439453125 37.25 52.55 36.85 52.45 36.8 52.7 36.55 53 36.85 53.3 36.95 53.4 37.05 53.35 37.1 53.4 37.3 53.1 37.35 53.05 37.4 53 37.4 53.15 37.6 53.3 37.848046875 53.59765625 38.05 53.3 37.95390625 53.4515625 38.2 53.55 38.3 53.6 38.4 53.7 38.45 53.65 38.65 53.45 38.8 53.05 38.55 52.8 38.35 52.45 38.15 52.95
L 38.1 52.95 37.95 52.75
Q 37.55 52.5 37.5 52.75
M 37.75 51.5
Q 37.7 51.55 37.6 51.55 37.3 51.75 37.35 51.95 37.5 52.2 37.8 52.05 38.15 51.9 38.05 51.65 37.9 51.5 37.75 51.5
M 36.55 51.6
Q 36.35 51.35 36.1 51.5 35.9 51.55 35.9 51.7 35.8 51.65 35.85 51.6 35.7 51.35 35.55 51.45 35.45 51.35 35.35 51.45 35.1 51.6 35.25 51.9 35.4 52.05 35.75 52 35.85 51.95 35.95 51.75
L 35.95 51.9
Q 36.1 52.1 36.45 51.95 36.45 51.9 36.6 51.85
L 36.65 51.85
Q 36.85 52 37.05 51.95 37.3 51.75 37.15 51.55 36.95 51.35 36.9 51.35 36.8 51.25 36.65 51.45 36.6 51.45 36.55 51.6
M 39.9 52
Q 39.95 52.15 40 52.2 40.1 52.45 40.35 52.45 40.45 52.5 40.55 52.45 40.75 52.2 40.7 51.9 40.5 51.5 40.05 51.7 39.90234375 51.7 39.9 51.9 39.8984375 51.796875 39.85 51.7 39.6 51.4 39.3 51.6 38.85 51.75 39.15 52.05 39.35 52.25 39.75 52.15 39.75 52.1 39.9 52
M 38.7 52.25
Q 38.95 52.1 38.8 51.75 38.65 51.45 38.45 51.5 38.2 51.45 38.3 51.6 37.95 51.8 38.15 52 38.25 52.3 38.7 52.25
M 40.4 50.65
Q 40.3001953125 50.4498046875 40.35 50.4 40.2 50.1 39.85 50.15 39.6 50 39.55 50.2 39.25 50.2 39.3 50.4 39 50.2 38.85 50.45 38.75 50.45 38.65 50.55
L 38.7 50.45
Q 38.35 49.95 37.95 50.3 37.75 50.4 37.8 50.45 37.35 50.05 37.05 50.35 37 50.3 36.95 50.45
L 36.95 50.35
Q 36.75 49.95 36.55 50.05 36.35 49.95 36.3 50.2 36 50.25 36.05 50.35 35.8 50.1 35.7 50.2 35.4 50.15 35.3 50.4 35 50.65 35.3 50.9 35.45 51.15 35.8 50.9 36.05 50.75 36.1 50.8 36.25 50.95 36.75 50.85 36.8 50.75 36.85 50.8
L 36.9 50.85
Q 37.05 51.15 37.55 50.95 37.7 51 37.8 50.85 38.05 51.2 38.5 51
L 38.55 51.05
Q 38.45 51.15 38.9 51.25 38.85 51.15 39.15 51.2 39.25 51.1 39.5 51 39.6 51.05 40.05 51.05 40.25 50.95 40.4 50.8 40.35 50.95 40.45 51.05 40.65 51.4 41.25 51.2 41.6 51.35 41.95 51.2 42.1 51.1 42.25 51 42.25 51.05 42.25 51.1 42.4 51.35 42.95 51.25 43 51.1 43.2 51.1 43.55 51.45 44.05 51.3 44.1 51.15 44.3 51.15 44.5 51.35 45.1 51.2 45.1 51.1 45.25 51.15 45.6 51.5 46.15 51.3 46.5 51 46.25 50.5 45.9 49.85 45.35 50.3 45.3 50.35 45.3 50.4 45 50 44.8 50.1 44.5 50.05 44.35 50.3 44.25 50.3 44.3 50.45 43.95 49.95 43.4 50.3 43.35 50.3 43.3 50.45 43.1 50.05 42.85 50.15 42.75 50.15 42.6 50.3 42.30234375 50.548046875 42.2 50.75 42.24765625 50.65 42.1 50.65 41.9 50.2 41.3 50.5 41.1 50.15 40.65 50.45 40.3525390625 50.54921875 40.4 50.65
M 39.1 48.65
Q 38.8 48.85 38.9 49.25 38.95 49.5 39.35 49.25 39.5 49.05 39.6 48.95 39.6 49.1 39.8 49.3 39.8 49.45 39.95 49.4 40 49.4 40.25 49.1 40.45 48.5 40.2 48.45 39.75 48.3 39.65 48.7 39.55 48.7 39.6 48.85 39.5 48.8 39.55 48.7 39.4 48.4 39.25 48.55 39.1 48.5 39.1 48.65
M 38.8 47.7
Q 38.65 47.4 38.5 47.45 38.3 47.4 38.3 47.6 37.95 47.75 38.15 48.05 38.25 48.25 38.7 48.2 39.05 48.05 38.8 47.7
M 36.85 49.35
Q 36.95 49.5 37.05 49.45 37.1 49.45 37.3 49.1 37.35 49.1 37.4 49 37.4 49.1 37.6 49.3 37.85 49.55 38.05 49.3 38 49.35 38.2 49.4 38.3 49.5 38.4 49.55 38.45 49.5 38.65 49.3 38.8 48.85 38.55 48.75 38.35 48.45 38.15 48.8
L 38.1 48.8
Q 37.95 48.75 37.95 48.65 37.55 48.5 37.5 48.8 37.4 48.8 37.4 48.85 37.35 48.7 37.25 48.6 36.85 48.5 36.8 48.8 36.55 49.1 36.85 49.35
M 36.4 49.3
Q 36.7 49.1 36.6 48.8 36.5 48.55 36.4 48.65 36.2 48.65 36.15 48.8 35.9 49 36.05 49.2 36.05 49.5 36.4 49.3
M 37.8 47.5
Q 37.7 47.5 37.55 47.65 37.3 47.85 37.4 48.05 37.45 48.25 37.85 48.1 38.15 47.9 38 47.7 37.9 47.5 37.8 47.5
M 35.35 47.7
Q 35.15 47.85 35.3 48.15 35.35 48.3 35.75 48.25 35.9 48.2 35.95 48.1
L 36 48.15
Q 36.05 48.3 36.45 48.15 36.6 48.1 36.55 48
L 36.6 48
Q 36.85 48.25 37.05 48.1 37.2 47.9 37.1 47.7 36.9 47.4 36.85 47.5 36.7 47.45 36.7 47.6 36.6 47.7 36.5 47.75 36.4 47.5 36.05 47.75 35.854296875 47.7990234375 35.85 47.95
L 35.85 47.85
Q 35.7 47.6 35.55 47.7 35.45 47.65 35.35 47.7
M 33.8 49.1
Q 33.75 49.1 33.7 49.2 34.05 49.75 34.4 49.3 34.4 49.1 34.55 49.05
L 34.55 49.1 34.65 49.3
Q 34.75 49.5 35 49.35 35.1 49.3 35.2 49.2
L 35.2 49.25
Q 35.3 49.6 35.55 49.35 35.7 49.1 35.65 48.85 35.45 48.6 35.4 48.65 35.25 48.6 35.25 48.7 35.2 48.8 35.15 48.85 35.05 48.6 34.95 48.7 34.75 48.7 34.75 48.8 34.5517578125 48.89921875 34.6 48.95 34.5001953125 48.85 34.55 48.85 34.5 48.75 34.45 48.75 34.05 48.65 33.8 49.1
M 33.65 47.75
Q 33.45 47.7 33.4 47.8 33.35 48 33.3 48.05 33.35 48.15 33.35 48.2 33.45 48.3 33.75 48.25 33.75 48.2 33.85 48.2 34.05 48.45 34.25 48.25 34.5 48.15 34.35 47.9 34.25 47.7 34.15 47.7 34.05 47.7 33.95 47.75 33.8 47.75 33.85 47.9 33.75 47.7 33.65 47.75
M 35.05 47.8
Q 35 47.6 34.9 47.7 34.8 47.75 34.65 47.8 34.4 47.95 34.5 48.15 34.65 48.25 34.95 48.2 35.2 48 35.05 47.8
M 34.4 47.15
Q 34.5 47.05 34.6 47.1 34.4 46.35 34 46.6 33.55 46.7 33.65 46.9 33.55 47 33.8 47.1 33.9 47.3 34.4 47.15
M 64.3 48.9
Q 64.15 49.2 64.35 49.45 64.6 49.65 64.8 49.35
L 64.95 49.4
Q 65.15 49.55 65.35 49.35 65.4 49.15 65.45 49.15
L 65.45 49.1
Q 65.4509765625 49.1513671875 65.6 49.35 65.85 49.85 66.25 49.3 66.1 49.15 66.15 49.15 65.85 48.75 65.55 48.8 65.4 48.8 65.45 48.95 65.35 48.9 65.45 49.05 65.35 48.95 65.25 48.85 65.15 48.8 65.05 48.8 64.85 48.8 64.8 48.95 64.75 48.8 64.65 48.8 64.6 48.75 64.55 48.8 64.25 48.7 64.3 48.9
M 63.8 48.8
Q 63.7 48.7 63.55 48.75 63.5 48.65 63.4 48.85 63.2 49.15 63.55 49.4 63.85 49.45 63.95 49.3 63.9 49.1 63.8 48.8
M 65.4 47.15
Q 65.35 47.2 65.5 47.25 65.95 47.4 66.15 47.15 66.35 47.1 66.15 47 66.25 46.85 65.9 46.7 65.45 46.45 65.4 47.15
M 65.25 47.9
L 65.05 47.75
Q 64.95 47.7 64.8 47.9 64.65 48.15 65.05 48.25 65.35 48.4 65.45 48.25 65.35 48.05 65.25 47.9
M 65.75 47.8
Q 65.6 47.7 65.6 47.95 65.45 48.15 65.7 48.3 65.8 48.45 66.05 48.25 66 48.15 66.1 48.2 66.15 48.25 66.2 48.25 66.4 48.45 66.6 48.25 66.6 48.1 66.75 48.15 66.65 47.95 66.55 47.9 66.35 47.8 66.3 47.85 66.00234375 47.75078125 66.1 47.95 66.0484375 47.85 65.95 47.85 65.95 47.75 65.75 47.8
M 61.9 48.95
L 61.85 48.95
Q 61.55 48.5 61.4 48.8 61 48.9 61.35 49.35 61.35 49.55 61.5 49.65 61.65 49.6 61.75 49.5 61.85 49.5 61.9 49.35 62.05 49.55 62.4 49.35 62.596875 49.2515625 62.6 49.1
L 62.6 49.25
Q 62.75 49.45 62.9 49.45 63 49.55 63.1 49.45 63.25 49.1 63.2 48.85 63 48.5 62.75 48.65 62.5 48.8 62.6 49 62.35 48.9 62.45 48.8 62.25 48.6 62.05 48.75 61.8 48.85 61.9 48.95
M 63.25 47.65
Q 63.15 47.55 63.05 47.6 62.85 47.5 62.8 47.75 62.65 47.95 62.9 48.15 63.1 48.3 63.3 48.1
L 63.35 48.1
Q 63.35 48.2 63.55 48.25 63.65 48.3 63.95 48.2 63.9 48.15 64.05 48.1 64.05 48.25 64.25 48.35 64.55 48.5 64.65 48.2 64.7 47.95 64.5 47.8 64.55 47.7 64.4 47.75 64.1 47.7 64.15 47.95 64.1 47.95 64.05 47.95 64 47.9 63.85 47.85 63.5 47.6 63.35 47.85 63.3 47.7 63.25 47.65
M 62.35 47.7
Q 62.25 47.6 62.15 47.6 62 47.5 61.85 47.75 61.85 47.8 61.8 47.85 61.65 47.7 61.65 47.65 61.6 47.5 61.5 47.55 61.25 47.4 61.15 47.75 60.85 48 61.3 48.25 61.6 48.4 61.85 48.15 61.8 48 61.9 48 61.9 48.1 62.1 48.15 62.25 48.3 62.55 48.15 62.45 47.85 62.35 47.7
M 60.35 48.75
Q 60.1 48.35 59.8 48.5 59.45 48.65 59.7 49.15 59.8 49.5 60.05 49.5 60.05 49.45 60.2 49.4 60.3 49.15 60.4 49.05 60.3 49.2 60.6 49.35 60.95 49.5 61.05 49.3 61.1 48.85 60.9 48.75 60.8 48.6 60.7 48.6 60.55 48.6 60.4 48.8
L 60.4 48.95
Q 60.3 48.8 60.35 48.75
M 58.6 48.65
Q 58.55 48.7 58.55 48.8 58.5 48.7 58.35 48.65 58 48.3 57.8 48.8 57.65 49.1 57.9 49.6 57.95 49.65 58.15 49.75 58.3 49.6 58.45 49.35 58.5 49.15 58.55 49.1 58.65 49.2 58.75 49.3 59.05 49.6 59.3 49.2 59.55 48.8 59.15 48.55 58.7 48.35 58.6 48.65
M 58.85 47.45
Q 58.6 47.1 58.35 47.5 58.15 47.7 58.55 48.05 58.95 48.2 59.1 47.95 59.2 47.8 58.85 47.45
M 60.65 47.5
Q 60.2 47.2 60.1 47.6 60 47.6 60.05 47.7 59.95 47.65 59.8 47.55 59.35 47.25 59.3 47.65 58.95 47.85 59.4 48.2
L 59.6 48.3
Q 59.8 48.15 59.95 48.1 60 47.95 60.05 47.9
L 60.25 48.05
Q 60.55 48.15 60.8 48 61.05 47.75 60.65 47.5
M 57.65 49.35
Q 57.65 48.9 57.4 48.6 57.05 48.25 56.9 48.7 56.7 49 57.1 49.4 57.4 49.65 57.65 49.35
M 56.65 49.35
Q 56.75 48.8 56.45 48.5 56.15 48.2 55.85 48.8 55.45 49.3 56 49.7 56.05 49.65 56.25 49.75 56.45 49.75 56.65 49.35
M 57.95 47.35
Q 57.65 47 57.3 47.5 57 47.95 57.45 48.2 57.6 48.15 57.7 48.25 57.95 48.25 58.15 48 58.15 47.6 57.95 47.35
M 55.2 47.1
Q 55 47.45 55.4 47.8 55.7 48.1 56 47.7 56.05 47.8 56.25 47.9 56.6 48.15 56.9 47.85 57.1 47.45 56.7 47.2 56.4 46.85 56.1 47.2 56.05 47.05 55.95 47 55.65 46.85 55.55 46.85 55.3 46.8 55.2 47.1
M 52.9 47.15
Q 52.5 47.6 53.05 47.95 53.55 48.1 53.85 47.7 53.9 47.55 53.9 47.45 53.95 47.65 54.3 47.8 54.85 48 55 47.7 55 47.55 54.95 47.4 54.75 47.2 54.7 47.05 54.55 46.8 54.35 46.85 54.2 46.8 54 47.1 53.9 47.15 53.9 47.25 53.85 47.05 53.7 46.85 53.4 46.75 53.3 46.75 53.1 46.6 52.9 47.15
M 52.3 46.85
Q 52.1 46.65 51.9 46.75 51.6 46.8 51.45 47 51 47.45 51.7 47.75 52.05 47.95 52.55 47.65 52.85 47.15 52.3 46.85
M 53.65 45.4
Q 53.35 45.8 53.8 46.2 54.25 46.45 54.7 46.15 54.75 46.1 54.8 46.2 55.25 46.45 55.65 46.3 55.85 46.25 55.85 46.4 56.3 46.65 56.75 46.35 56.85 46.35 56.95 46.55 57.55 46.7 57.7 46.5
L 57.75 46.45
Q 57.7 46.6 58 46.65 58.25 46.85 58.65 46.75
L 58.7 46.75
Q 59.2 47 59.45 46.7 59.6 46.6 59.55 46.55 59.7 46.55 59.8 46.8 60.3 46.85 60.4 46.85 60.5 46.85 60.8 47.05 60.95 47.1 61.1 47.1 61.35 47.1 61.35 46.95
L 61.35 46.9
Q 61.65 47.15 62.15 46.9 62.25 46.95 62.3 47 62.7 47.25 63.05 46.95
L 63.1 46.95
Q 63.15 46.95 63.2 46.95 63.45 47.15 63.85 47 63.9 47 64.1 47.1 64.4 47.35 64.65 47.15 64.75 46.9 64.65 46.65 64.45 46.45 64.25 46.4 64 46.3 63.9 46.55 63.8 46.4 63.65 46.35 63.5 46.15 63.35 46.25 63.15 46.1 62.95 46.5
L 63 46.55
Q 62.85 46.5 62.85 46.45 62.4 46.1 62.15 46.45
L 62 46.3
Q 61.45 46 61.3 46.3 61.15 46.4 61.2 46.5 61.1 46.35 61.15 46.35 60.8 46 60.6 46.2 60.6 46 60.35 46 60.2 45.85 60.05 45.85 59.65 45.7 59.6 46.1 59.4 46.15 59.55 46.35 59.35 46.15 59.3 46.1 58.85 45.7 58.6 46 58.1 45.7 57.8 46.05 57.75 46 57.7 46.2 57.55 45.95 57.4 45.7 57.15 45.55 57.1 45.4 56.7 45.35 56.65 45.7 56.65 45.55 56.45 45.5 55.95 45.2 55.65 45.6 55.65 45.4 55.6 45.4 55.35 45.25 55.1 45.15 54.8 45.05 54.65 45.4 54.6 45.4 54.55 45.25 53.8 44.85 53.65 45.4
M 49.95 46.85
Q 49.6 46.5 49.45 46.55 49.25 46.55 49.05 46.65 48.5 46.9 48.9 47.5 49.25 48.05 49.75 47.7 49.8 47.5 50.05 47.45 50.05 47.5 50.05 47.55 49.95 47.7 50.2 47.8 50.6 48.2 51 47.55 51.35 47 50.9 46.75 50.6 46.55 50.45 46.6 50.15 46.55 50 46.9 50.05 46.95 50.05 47 49.8 46.85 49.95 46.85
M 46.9 47.9
Q 47.4 47.6 47.05 47.1 46.7 46.6 46.55 46.65 46.35 46.65 46.3 46.85 45.85 47.2 46.15 47.6 46.15 48.1 46.9 47.9
M 48 46.65
Q 47.65 46.65 47.65 46.8 47.05 47.1 47.45 47.6 47.7 47.85 48.3 47.7 48.7 47.4 48.5 46.9 48.35 46.7 48 46.65
M 48.55 45.85
L 48.65 45.85
Q 48.7 45.95 48.7 46 49 46.3 49.3 46.25 49.5 46.25 49.85 46.15 49.85 46.05 50.05 46.15
L 50.05 46.25 50.1 46.25
Q 50.25 46.3 50.6 46.35 50.9 46.3 51.2 46.1 51.2 46 51.35 45.9 51.4 45.85 51.4 46 51.9 46.1 52.2 46 52.25 46.15 52.65 46.25 52.9 46.4 53.1 46.35 53.35 46.35 53.4 46.15 53.6 45.7 53.15 45.25 52.7 44.7 52.45 45.15 52.2 44.85 52.1 44.85 51.9 44.65 51.7 44.75 51.15 44.6 51.15 45.1 50.95 45.25 50.95 45.4
L 50.9 45.35
Q 50.35 44.9 50 45.35
L 50.05 45.25
Q 49.55 44.85 49.05 45.25
L 48.95 45.25
Q 48.9 45.15 48.8 45 48.55 44.5 48.25 44.65 47.95 44.7 47.8 44.75 47.55 44.85 47.5 45.05 47.1 44.55 46.85 45.15 46.35 45.65 46.45 46.1 46.6 46.25 46.9 46.3 47 46.25 47.3 46.2 47.55 46.05 47.75 45.9 47.85 46.15 48.55 45.85
M 45.35 48.45
Q 45.05 48 44.7 48.4 44.15 48.7 44.55 49.15 44.8 49.6 45.2 49.35 45.35 49.2 45.45 49.1 45.7 49.5 46.1 49.25 46.1 49.3 46.1 49.35 46.1 49.5 46.5 49.65 46.6 49.5 46.9 49.5 47.05 49.3 47.35 49.2 47.55 49.35 48.15 49.2 48.1 49.1 48.2 49.15 48.2 49.2 48.35 49.35 48.55 49.65 48.9 49.7 49 49.7 49.45 49.55 49.65 49.35 49.85 49.25
L 49.85 49.35 50.05 49.5 50.05 49.55
Q 50.0515625 49.5 50.1 49.5 50.05 49.35 50.15 49.35 50.15 49.5 50.5 49.65 50.85 49.8 51 49.8 51.3 49.8 51.6 49.45 51.6 49.3 51.75 49.25 51.8 49.2 51.85 49.3 52.35 49.45 52.65 49.3 52.75 49.35 53.05 49.6 53.3 49.6 53.5 49.7 53.8 49.6 53.9 49.4
L 53.9 49.35
Q 54.2 49.65 54.5 49.1 54.55 49.3 54.75 49.4 55.1 49.65 55.4 49.25 55.75 48.7 55.25 48.45 54.85 48.15 54.65 48.5 54.55 48.35 54.45 48.25 54.2 48.1 54.1 48.1 53.85 48.1 53.75 48.4 53.65 48.5 53.7 48.65
L 53.55 48.5
Q 53.1 48.1 52.8 48.5 52.7 48.3 52.55 48.25 52.25 48.15 52.1 48.2 51.7 48.15 51.5 48.45 51.45 48.55 51.4 48.7
L 51.35 48.65
Q 50.7 48.25 50.25 48.75
L 50.2 48.8 50.05 48.7 50.05 48.6
Q 49.75 48.6 49.8 48.75 49.65 48.8 49.7 48.65 49.2 48.25 48.65 48.55 48.55 48.5 48.55 48.6 48.5 48.5 48.4 48.35 48.15 48 47.85 48.15 47.65 48 47.45 48.25 47.2 48.25 47.15 48.4 46.8 48.1 46.45 48.5 46.3 48.45 46.3 48.55 46.15 48.4 46.2 48.35 45.9 47.95 45.8 48.05 45.6 48.05 45.55 48.2 45.35 48.3 45.35 48.45
M 44.1 48.7
Q 43.8 48.1 43.5 48.5 43.05 48.75 43.35 49.3 43.35 49.65 43.7 49.65 43.75 49.6 43.95 49.65 44.35 49.25 44.1 48.7
M 44.6 47.7
Q 44.85 47.4 44.7 47.05 44.45 46.75 44.35 46.8 44.2 46.8 44 46.9 43.85 46.95 43.85 47.1 43.35 46.85 43.2 47.15 42.65 47.45 43.05 47.75 43.3 48.05 43.7 47.85 43.9 47.75 43.9 47.65 44.25 48 44.6 47.7
M 45.55 46.75
Q 45.3 46.7 45.25 46.95 44.85 47.1 45 47.3 44.9 47.55 45 47.65 45.05 47.95 45.65 47.7 46.1 47.45 45.9 47 45.65 46.7 45.55 46.75
M 40.55 48.15
Q 40.65 47.85 40.7 47.55 40.5 47.15 40.05 47.45 39.8517578125 47.54921875 39.9 47.6 39.849609375 47.549609375 39.8 47.5 39.55 47.15 39.3 47.45 38.85 47.65 39.15 47.95 39.35 48.1 39.75 47.95 39.75 47.9 39.9 47.85 39.85 47.85 40 47.95 40.1 48.2 40.35 48.2 40.45 48.25 40.55 48.15
M 42.35 49.25
Q 42.35 49.5 42.9 49.35 43.3 48.9 43.1 48.55 42.75 48.25 42.6 48.5 42.2 48.8 42.35 49.25
M 40.8 48.5
Q 40.35 48.75 40.65 49.1 40.85 49.4 41.25 49.2 41.25 49.05 41.4 49 41.45 49.1 41.5 49.25 41.6 49.55 41.85 49.65 41.85 49.6 42.05 49.5 42.3 49.1 42.15 48.75 41.9 48.25 41.6 48.55 41.35625 48.598828125 41.45 48.8 41.39765625 48.6953125 41.35 48.6 41.1 48.25 40.8 48.5
M 41.05 47.4
Q 40.65 47.7 40.85 47.95 40.85 48.15 41.4 48 41.8 47.7 41.55 47.4 41.4 47 41.05 47.4
M 42.65 47.45
Q 42.25 46.85 42 47.3 41.65 47.55 41.85 47.95 41.95 48.25 42.25 48.15 42.2 48.05 42.5 48.1 42.9 47.8 42.65 47.45
M 43.4 45.4
Q 43.25 45.4 43.3 45.6 43 45.2 42.85 45.35 42.7 45.3 42.55 45.6 42.3 45.95 42.25 46.05
L 42.1 45.95
Q 41.85 45.6 41.35 45.9 41 45.55 40.6 46 40.5 46.05 40.4 46.25 40.3 46.1 40.35 46 40.1 45.65 39.85 45.75 39.6 45.7 39.55 45.9 39.25 45.85 39.3 46.1 38.95 45.85 38.8 46.25 38.7515625 46.25 38.65 46.35 38.746875 46.25 38.65 46.25 38.4 45.8 37.95 46.2 37.75 46.25 37.75 46.35 37.4 46 37.05 46.35 36.95 46.3 37 46.4
L 36.95 46.35
Q 36.7 46 36.6 46.1 36.45 46 36.3 46.25 36 46.3 36 46.4 35.8 46.2 35.7 46.25 35.35 46.3 35.35 46.55 35.05 46.75 35.35 47.1 35.5 47.25 35.85 47.05
L 36.05 46.9
Q 36.3 47 36.75 46.85
L 36.9 46.85
Q 37.15 47.15 37.6 46.9 37.7 46.85 37.75 46.8 38.130078125 47.08515625 38.5 46.85 38.614453125 47.09765625 38.9 47.05 38.95 47 39.2 46.95 39.35 46.85 39.5 46.7 39.7 46.75 40.05 46.6 40.05 46.55 40.35 46.5
L 40.5 46.65
Q 40.7 46.9 41.25 46.65 41.7 46.8 41.95 46.55 42.2 46.45 42.25 46.3
L 42.25 46.4
Q 42.25 46.7 43 46.5 43.1 46.3 43.2 46.25 43.45 46.65 44.1 46.3 44.2 46.25 44.3 46.15 44.6 46.4 45.1 46.1 45.1 46 45.25 46.05 45.6 46.35 46.1 46.1 46.5 45.7 46.3 45.3 45.85 44.65 45.35 45.15
L 45.3 45.2
Q 45 44.9 44.85 45.05 44.5 45.1 44.35 45.3 44.15625 45.3 44.3 45.4 43.8453125 45.103125 43.4 45.4 Z"/>
</g>
</defs>

<g transform="matrix( 1, 0, 0, 1, 0,0) ">
<use xlink:href="#Layer2_0_FILL"/>
</g>
</svg>
