
<svg xmlns="http://www.w3.org/2000/svg" version="1.1" xmlns:xlink="http://www.w3.org/1999/xlink" preserveAspectRatio="none" x="0px" y="0px" width="100px" height="100px" viewBox="0 0 100 100">
<defs>
<g id="Layer2_0_FILL">
<path fill="#1C1C1C" stroke="none" d="
M 51.55 54.5
Q 52 54.85 52.4 54.45 53 54.75 53.5 55.25 53.75 55.5 54.05 55.2
L 54.1 53.35
Q 53.95 53.15 53.8 52.95 53.05 52.75 52.2 52.65 52.05 52.6 51.9 52.4 51.1 51.25 50.35 51.05 50.15 51 50.05 51.1 49.95 51 49.75 51.05 48.95 51.25 48.2 52.4 48.05 52.6 47.9 52.65 47.05 52.75 46.25 52.95 46.15 53.15 46 53.35
L 45.95 54.2 46.05 55.2
Q 46.3 55.5 46.6 55.25 47.1 54.75 47.65 54.45 48.1 54.85 48.55 54.5 49.15 53.95 49.85 54.3 49.95 54.2 50.05 54.15 50.15 54.2 50.25 54.3 50.95 53.95 51.55 54.5
M 65.8 57.4
Q 65.6 57.75 65.5 58.4 65.45 58.85 65.45 59.35
L 65.7 60.25 68.75 60 68.85 59.05 68.75 57.95
Q 68.3 57.45 67.9 57.9 67.75 58.05 67.65 58.2 66.8 58 66.05 57.25 65.95 57.05 65.8 57.4
M 68.3 52.8
Q 68.1 52.65 67.8 52.9 67.05 53 66.4 53.1 66.2 52.95 66.05 52.75 64.95 53.2 63.85 53.5 63.55 53.25 63.3 53.05 62.6 53 61.95 53.3 61.65 53.35 61.4 53.4 60.9 53.3 60.35 53.2 60.15 53.05 59.95 53.05 57.8 53 55.7 53.05 55.1 53 54.8 54.3
L 55 54.95
Q 55.2 55.15 55.45 55.35 55.8 55.7 56.15 56 56.6 56.15 57.1 56.15 57.7 56.2 58.3 56.1 59.05 55.8 59.75 55.7 59.95 55.7 60.25 55.9 60.8 55.7 61.45 55.75 61.55 55.65 61.6 55.5 62.15 54.7 62.75 55 63.45 54.95 64.2 55.2 65 55.1 65.8 54.7 66.15 55.05 66.55 55.35 67.05 55.15 67.65 54.95 68.1 55.15 68.55 55.05 68.85 54.95 69.1 54.35
L 69.1 53.9
Q 69.05 53.55 68.95 53.45 68.65 52.9 68.3 52.8
M 35.15 59.05
L 35.3 59.75
Q 35.5 59.9 35.7 60.05 36.55 60.05 37.35 60.15 37.5 60.2 37.7 60.2 37.95 60.05 38.15 59.85 38.75 59.8 39.4 59.7 39.65 60 39.9 60.3 40.1 60.1 40.3 59.9 40.4 59.85 40.45 59.8 40.95 60.1 41.45 60.4 43.05 60.5 44.65 60.9 45.8 60.95 46.9 61.55 47.6 61.9 48.3 61.4 48.45 61.55 48.65 61.7 48.95 61.75 49.2 61.65 49.65 61.25 50.05 61.15 50.45 61.25 50.9 61.65 51.15 61.75 51.45 61.7 51.65 61.55 51.8 61.4 52.45 61.9 53.15 61.55 54.3 60.95 55.45 60.9 57.05 60.5 58.6 60.4 59.15 60.1 59.65 59.8 59.7 59.85 59.8 59.9 60 60.1 60.2 60.3 60.45 60 60.7 59.7 61.3 59.8 61.95 59.85 62.15 60.05 62.35 60.2 62.6 60.2 62.75 60.15 63.55 60.05 64.35 60.05 64.6 59.9 64.8 59.75
L 64.95 59.05
Q 64.5 57.4 63.7 57.7 63.15 57.5 62.5 58 61.65 57.55 60.85 57.9 60.55 58.05 60.25 58.55 59.55 57.75 58.85 58.2 58.5 58.35 58.2 58.55 57.85 58.65 57.55 58.45 56.5 57.9 55.45 58.3 55.1 58.35 54.8 58.2 54 57.9 53.2 58.5 53 58.5 52.75 58.55 52.4 58.7 52.05 58.3 51.7 58 51.35 58.4 51.1 58.7 50.75 58.5 50.4 58.3 50.05 58.5 49.65 58.3 49.3 58.5 48.95 58.7 48.7 58.4 48.35 58 48 58.3 47.65 58.7 47.3 58.55 47.1 58.5 46.9 58.5 46.1 57.9 45.25 58.2 44.95 58.35 44.65 58.3 43.55 57.9 42.5 58.45 42.2 58.65 41.85 58.55 41.55 58.35 41.25 58.2 40.5 57.75 39.85 58.55 39.55 58.05 39.25 57.9 38.4 57.55 37.6 58 36.95 57.5 36.35 57.7 35.6 57.4 35.15 59.05
M 34.3 57.4
Q 34.15 57.05 34 57.25 33.25 58 32.45 58.2 32.3 58.05 32.2 57.9 31.8 57.45 31.35 57.95
L 31.25 59.05 31.3 60 34.35 60.25 34.65 59.35
Q 34.65 58.85 34.6 58.4 34.5 57.75 34.3 57.4
M 36.8 53.05
Q 36.55 53.25 36.25 53.5 35.15 53.2 34.05 52.75 33.9 52.95 33.65 53.1 33 53 32.25 52.9 32 52.65 31.8 52.8 31.45 52.9 31.15 53.45 31.05 53.55 30.95 53.9
L 31 54.35
Q 31.25 54.95 31.55 55.05 32 55.15 32.45 54.95 33 55.15 33.55 55.35 33.95 55.05 34.3 54.7 35.1 55.1 35.9 55.2 36.65 54.95 37.35 55 37.95 54.7 38.45 55.5 38.55 55.65 38.65 55.75 39.3 55.7 39.85 55.9 40.1 55.7 40.35 55.7 41.05 55.8 41.8 56.1 42.4 56.2 43 56.15 43.5 56.15 43.95 56 44.3 55.7 44.65 55.35 44.85 55.15 45.1 54.95
L 45.25 54.3
Q 44.95 53 44.4 53.05 42.3 53 40.1 53.05 39.95 53.05 39.75 53.2 39.2 53.3 38.7 53.4 38.4 53.35 38.15 53.3 37.5 53 36.8 53.05
M 35.15 48.95
Q 35.3 49.05 35.4 49.15 36.55 49.15 37.55 49 38.15 49.4 38.65 48.75
L 38.75 48
Q 38.7 47.05 38.35 46.75 37.95 46.55 37.5 46.85 37.35 47 37.15 47.15 36.55 47.2 35.95 47.25 35.55 46.95 35.15 46.95 34.85 46.65 34.45 46.6 33.5 46.3 32.5 45.45 32.2 45.35 31.95 45.6
L 31.9 46.5
Q 32.15 48.5 32.85 49 34.05 49.55 35.15 48.95
M 61.75 46.75
Q 61.4 47.05 61.35 48
L 61.45 48.75
Q 61.95 49.4 62.55 49 63.55 49.15 64.65 49.15 64.8 49.05 64.95 48.95 66.05 49.55 67.25 49 67.95 48.5 68.2 46.5
L 68.1 45.6
Q 67.9 45.35 67.6 45.45 66.6 46.3 65.65 46.6 65.25 46.65 64.95 46.95 64.55 46.95 64.15 47.25 63.55 47.2 62.95 47.15 62.7 47 62.6 46.85 62.15 46.55 61.75 46.75
M 58.65 41.5
Q 58.75 42.05 59 42.25 59.85 42.3 60.7 42.5 61.05 42.65 61.35 42.3 61.6 42 61.8 42 62.1 42.25 62.4 42.15 63.65 41.75 64.9 42.05 65.1 41.9 65.35 41.8 65.7 41.65 66.05 42.15 66.3 42.35 66.5 42.3 66.65 42.2 66.75 42.1 67.4 42.95 68.1 42.55 68.4 42.45 68.6 42.75 68.95 42.75 69.25 42.65
L 69.4 42.4 69.45 41.7
Q 69.45 40.95 69.25 40.75 68.95 40.5 68.65 40.3 68.1 39.85 67.5 40.35 67.35 40.4 67.15 40.3 66.7 39.9 66.25 40.3 66.05 40.45 65.85 40.3 65.7 40.15 65.45 40 63.85 39.85 62.25 39.45 61.95 39.25 61.65 39.1 61.45 39.3 61.25 38.95 60.55 39.05 59.85 39.25 59 39.5 58.65 41.5
M 45.2 46.1
Q 44.8 45.9 44.45 46.1 43.7 46.55 43 46.1 41.7 46.15 40.45 46.6 40.15 46.4 39.95 46.4 39.75 46.7 39.65 47 39.4 47.65 39.45 48.65 39.7 48.75 39.9 49.05 40.15 49.55 40.45 49.8 41.1 49.6 41.75 49.5 41.85 49.45 42 49.4 42.75 48.95 43.4 48.9 43.95 49.05 44.5 48.6 44.8 48.35 45.1 48.65 45.9 48.25 46.75 48.2 47.05 47.9 47.4 47.7 47.65 47.65 48 47.95 48.3 47.8 48.65 47.7 48.95 48.15 49.25 47.8 49.55 47.5 49.9 47.45
L 50 47.45
Q 50.15 47.45 50.3 47.5 50.6 47.5 50.85 47.8 51.1 48.15 51.4 47.7 51.75 47.8 52.05 47.95 52.4 47.65 52.7 47.7 53.05 47.9 53.35 48.2 54.15 48.25 55 48.65 55.3 48.35 55.6 48.6 56.15 49.05 56.7 48.9 57.35 48.95 58.1 49.4 58.2 49.45 58.35 49.5 58.95 49.6 59.6 49.8 59.9 49.55 60.2 49.05 60.4 48.75 60.6 48.65 60.7 47.65 60.45 47 60.3 46.7 60.15 46.4 59.9 46.4 59.65 46.6 58.4 46.15 57.1 46.1 56.4 46.55 55.65 46.1 55.3 45.9 54.85 46.1 54.45 46.3 54.1 46.2 53.75 46.35 53.4 46.35 53 46.05 52.65 45.9 52.25 46.1 51.9 46.1 51.85 46.05 51.8 46.05 51.75 45.75 51.7 45.65 51.5 45.5 51.35 45.5 50.95 45.4 50.35 45.1 50.2 45.15 50.05 45.2 49.9 45.15 49.75 45.1 49.15 45.4 48.75 45.5 48.6 45.5 48.4 45.65 48.3 45.75 48.3 46.05 48.25 46.05 48.2 46.1 47.85 46.1 47.45 45.9 47.1 46.05 46.7 46.35 46.3 46.35 46 46.2 45.6 46.3 45.2 46.1
M 41.1 42.25
Q 41.35 42.05 41.45 41.5 41.1 39.5 40.25 39.25 39.5 39.05 38.8 38.95 38.65 39.3 38.4 39.1 38.15 39.25 37.85 39.45 36.25 39.85 34.65 40 34.4 40.15 34.25 40.3 34 40.45 33.85 40.3 33.35 39.9 32.95 40.3 32.75 40.4 32.6 40.35 32 39.85 31.45 40.3 31.15 40.5 30.85 40.75 30.6 40.95 30.6 41.7
L 30.7 42.4 30.85 42.65
Q 31.15 42.75 31.5 42.75 31.7 42.45 32 42.55 32.65 42.95 33.3 42.1 33.45 42.2 33.6 42.3 33.8 42.35 34 42.15 34.35 41.65 34.75 41.8 35 41.9 35.2 42.05 36.4 41.75 37.7 42.15 38 42.25 38.3 42 38.45 42 38.75 42.3 39.05 42.65 39.4 42.5 40.25 42.3 41.1 42.25
M 49.35 42
Q 49.7 41.85 50.05 41.7 50.35 41.85 50.7 42 51.45 41.75 52.2 41.4 52.6 41.1 53 41.05 53.75 41.25 54.45 40.6 55.1 40.05 55.85 41.05 56.1 41.4 56.35 41.55 56.85 41.75 57.35 41.15 57.5 40.85 57.7 40.15 57.8 39.8 57.85 39.4 57.8 38.9 57.6 38.85 57.1 38.75 56.65 39.1 56.5 39.25 56.4 39.35 55.8 39.35 55.2 38.65 54.1 39.1 53 38.6 52.45 38.3 51.85 38.4 51.05 38.85 50.25 38.8 50.15 38.8 50.05 38.85 49.95 38.8 49.85 38.8 49 38.85 48.25 38.4 47.6 38.3 47.1 38.6 46 39.1 44.85 38.65 44.25 39.35 43.7 39.35 43.55 39.25 43.45 39.1 43 38.75 42.5 38.85 42.3 38.9 42.25 39.4 42.3 39.8 42.4 40.15 42.55 40.85 42.75 41.15 43.2 41.75 43.75 41.55 44 41.4 44.2 41.05 44.95 40.05 45.65 40.6 46.35 41.25 47.1 41.05 47.5 41.1 47.9 41.4 48.65 41.75 49.35 42 Z"/>
</g>
</defs>

<g transform="matrix( 1, 0, 0, 1, 0,0) ">
<use xlink:href="#Layer2_0_FILL"/>
</g>
</svg>
