
<svg xmlns="http://www.w3.org/2000/svg" version="1.1" xmlns:xlink="http://www.w3.org/1999/xlink" preserveAspectRatio="none" x="0px" y="0px" width="100px" height="100px" viewBox="0 0 100 100">
<defs>
<g id="Layer2_0_FILL">
<path fill="#363435" stroke="none" d="
M 48.9 49.05
Q 48.35 48.9 48 48.9 47.8 48.9 47.55 49.15 47.15 49.35 47.1 49.25 46.05 49.1 44.95 49.65 44.8005859375 49.65 44.4 49.65 44.4578125 49.6515625 44.7 49.7 44.55 49.7 44.4 49.7
L 44.4 49.8
Q 44.45 49.8 44.5 49.8 44.54921875 49.84921875 44.6 49.9 44.5515625 49.84921875 44.65 49.8 44.79921875 49.8 45.1 49.8 45.00078125 49.80234375 45.05 49.95 44.4 50.1 44.75 50.2 44.95 50.15 44.9 50.4 45 50.3 45.1 50.4 45.35 50.25 45.8 50.25 46.1 50.25 46.35 50.35 46.55 50.4 47.3 50.55 47.95 50.65 48.15 50.6 48.2 50.55 48.4 50.55 48.45 50.55 48.65 50.6
L 49.15 51
Q 49.3 51.4 49.6 51.35 49.6 51.2 49.75 51.3 49.85 51.05 50.35 50.95 50.8 50.65 51.05 50.65 51.3 50.55 51.9 50.5 52.35 50.3 52.8 50.55 52.95 50.5 53.3 50.85 53.65 51 54 50.8 54.2 50.7 54 50.55 53.75 50.45 54.05 50.5
L 54.4 50.3
Q 54.45 50.2 54.7 50.4 54.8 50.35 55.1 50.4 55.2 50.4 54.9 50.55 55 50.65 55.25 50.85 55.3 50.85 55.35 50.8 55.25 50.6 55.3 50.55 55.3 50.4 55.3 50.35 55.4 50.25 56.45 50.1 56.4 50 56.35 49.95 56.25 49.9 56.3 49.8
L 56.45 49.8
Q 56.45 49.65 56.45 49.5 55.9 49.25 55.5 49.1 54.85 48.9 54.55 49.05 53.95 49.05 52.9 48.85 51.8 48.5 51.3 49.2 51.3 49.15 51.2 49.1 50.95 48.85 50.5 48.7 50.15 48.55 49.75 48.8
L 49.7 48.8
Q 49.1 48.95 48.9 49.05 Z"/>
</g>
</defs>

<g transform="matrix( 1, 0, 0, 1, 0,0) ">
<use xlink:href="#Layer2_0_FILL"/>
</g>
</svg>
