
<svg xmlns="http://www.w3.org/2000/svg" version="1.1" xmlns:xlink="http://www.w3.org/1999/xlink" preserveAspectRatio="none" x="0px" y="0px" width="100px" height="100px" viewBox="0 0 100 100">
<defs>
<g id="Layer2_0_FILL">
<path fill="#363435" stroke="none" d="
M 47.6 49.45
L 47.55 49.45 47.5 49.5
Q 47.55 49.55 47.7 49.55 47.75 49.55 47.9 49.55 47.8 49.6 47.75 49.6
L 47.7 49.6 47.5 49.55 47.45 49.5
Q 47.4 49.5 47.3 49.5
L 47.1 49.55 47.25 49.6 47.15 49.6 47.1 49.55
Q 46.65 49.5 46.45 49.5 46.25 49.45 46.05 49.85 45.85 50.2 46.05 50.25 46.25 50.35 46.55 50.5 46.8 50.65 47.4 50.55 47.6 50.55 48.05 50.5 48.25 50.5 48.35 50.4 48.45 50.45 48.6 50.45 48.75 50.45 48.95 50.55 49.05 50.55 49.3 50.65 49.35 50.6 50.3 50.4 50.7 50.3 50.85 50.2
L 50.9 50.2
Q 51.25 50.25 51.05 50.4 51 50.4 51.1 50.5 51.15 50.55 51.3 50.65
L 51.5 50.6
Q 52.25 50.55 52.55 50.55 53.05 50.5 53.35 50.35
L 52.5 50.3
Q 52.6 50.25 52.7 50.25 52.775 50.2125 52.85 50.2
L 52.8 50.15 53 50.15 52.85 50.2 52.9 50.2
Q 53.15 50.2 53.3 50.25 53.75 50.05 53.65 50.3 53.95 50.2 54.25 50 54.5 49.75 54.9 49.7
L 54.75 49.6 54.4 49.5 54.3 49.55 54.2 49.5
Q 53.7 49.4 53.1 49.55 52.95 49.5 52.9 49.5 52.8 49.5 52.5 49.55
L 52.7 49.65 52.75 49.65
Q 52.4 49.75 52.15 49.7 52.1 49.7 52.05 49.7
L 51.95 49.65
Q 51.45 49.55 51.3 49.55 50.95 49.55 50.45 49.7 50.2 49.75 50.1 49.8
L 50.05 49.8
Q 49.9 49.8 49.75 49.85 49.4 49.85 48.9 49.7
L 48.9 49.6
Q 48.95 49.5 48.9 49.5 48.65 49.5 47.6 49.45
M 52.9 50.05
L 52.6 50.1 52.35 50.1 52.5 50.05 52.9 50.05
M 51.45 49.85
L 51.5 49.85 51.6 49.9 51.4 49.9 51.35 49.85 51.45 49.85
M 51.3 49.65
L 51.45 49.7 51 49.8 50.9 49.75 51.3 49.65
M 51.5 50.05
Q 51.5 50.0984375 51.55 50.1 51.44921875 50.1 51.4 50.1
L 51.5 50.05
M 51.2 49.9
L 51.15 49.9 51.3 49.85
Q 51.27578125 49.9 51.2 49.9
M 49.7 50.35
Q 49.6 50.4 49.55 50.4
L 48.9 50.25 48.95 50.2 49.7 50.35
M 48.75 49.75
L 48.75 49.8 48.7 49.8 48.7 49.75 48.75 49.75
M 48.55 49.8
L 48.35 49.95 48.3 49.85 48.45 49.75 48.55 49.8 Z"/>
</g>
</defs>

<g transform="matrix( 1, 0, 0, 1, 0,0) ">
<use xlink:href="#Layer2_0_FILL"/>
</g>
</svg>
