
<svg xmlns="http://www.w3.org/2000/svg" version="1.1" xmlns:xlink="http://www.w3.org/1999/xlink" preserveAspectRatio="none" x="0px" y="0px" width="100px" height="100px" viewBox="0 0 100 100">
<defs>
<g id="Layer2_0_FILL">
<path fill="#1C1C1C" stroke="none" d="
M 42.8 48.55
Q 42.05 48.55 41.9 48.55 41.85 48.5 41.4 48.6 40.95 48.7 40.9 48.6 40.25 48.65 40 48.65 39.5 48.6 38.95 48.9 38.65 49.05 38.35 49.6
L 38.4 49.65
Q 38.25 49.65 38.25 49.8 38.15 50.15 38.25 50.05 38.35 50.05 38.65 50.2 38.7 50.15 38.9 50.3 39 50.35 39.25 50.55 39.4 50.55 39.7 50.7 39.7 50.6 39.9 50.85 39.85 50.75 40.35 51.05 40.65 50.95 40.75 51.25 40.9 51.2 41.2 51.55 41.45 51.6 41.65 51.8 41.8 51.75 42.1 52.1 42.25 52.2 42.55 52.45 43.15 52.5 43.5 52.7 43.6 52.65 44.05 52.75 44.35 52.75 44.6 52.75 44.6 52.6 45.6 53 45.85 53.15 46.65 53.1 46.75 53.1 47.2 53.45 47.45 53.65 47.7 54 47.8 53.95 48.25 53.85 48.55 53.75 48.8 53.8 49.15 53.8 49.5 53.8 49.7 54.05 49.9 54.1 50.4 54.1 50.9 54.3 50.9 54.2 51.05 54.25 51.25 54.1 52.05 54.1 52.1 54.05 52.5 53.8 52.65 53.8 52.95 53.75 53.1 53.65 53.45 53.9 53.75 53.85 54 53.95 54.05 53.7 54.25 53.65 54.4 53.5 54.75 53.3 54.8 53.05 55 53.15 55.55 53 55.9 53.05 56.85 52.65 56.95 52.8 57 52.8 57.45 52.75 57.7 52.75 57.95 52.75 58.2 52.6 58.85 52.45 59.05 52.3 59.25 52.1 59.4 51.85 59.7 51.8 59.7 51.6 60.05 51.55 60.3 51.3 60.5 51.25 60.6 50.95 60.9 51.05 61.15 50.85 61.35 50.85 61.35 50.7 61.5 50.7 61.65 50.55 61.95 50.6 62 50.45 62.25 50.3
L 62.3 50.3
Q 62.3 50.2 62.5 50.25 62.7 50.1 62.9 50.1 62.9 50.05 62.85 49.95
L 62.7 49.8 62.7 49.75
Q 62.35 49.25 62.15 49.1 61.65 48.8 61.15 48.85 60.95 48.75 60.3 48.8 60.1 48.9 59.85 48.75 59.55 48.75 59.4 48.75 59.1 48.75 58.55 48.75 58.35 48.65 58.1 48.9 57.8 48.95 57.65 49 57.5 48.9 57.5 48.95 57.35 48.7 57.2 48.8 56.75 48.6 56.65 48.6 55.9 48.45 55.55 48.65 55.15 48.6 55.1 48.75 55.05 48.75 55 48.7 54.65 48.65 54.1 48.55 53.7 48.45 53.25 48.55 52.95 48.5 52.8 48.65 52.7 48.6 52.6 48.7 52.35 48.55 52.3 48.6 51.6 48.6 51.3 48.6 51.1 48.55 50.85 48.65 50.55 48.55 50.45 48.6 50.1 48.6 49.55 48.6 49.35 48.55 49.1 48.65 49 48.55 48.85 48.6 48.45 48.55 48.4 48.5 47.65 48.3 47.45 48.45 46.95 48.45 46.8 48.6 46.65 48.45 46.5 48.45 46.1 48.25 45.45 48.4 45.1 48.4 44.9 48.55 44.75 48.6 44.6 48.8 43.85 48.75 43.65 48.85 43.55 48.8 43.25 48.75 42.85 48.55 42.8 48.55
M 55.9 51.05
Q 56.15 51.3 56.35 51.3 56.45 51.25 56.55 51.2 56.2 51.45 56.2 51.5 55.85 51.6 55.25 51.65 55.1 51.6 54.75 51.75 54.6 51.7 54.6 51.8
L 54.55 51.85
Q 54.3 51.9 54 51.75 53.65 51.6 53.5 51.65 53.25 51.7 53 51.95 52.95 51.85 52.9 51.95 52.65 51.9 52.35 52 52.1 51.95 51.85 51.85 51.6 51.65 51.5 51.85 50.85 51.85 50.35 51.85 50.05 51.65 49.9 51.85 49.55 52 49.4 51.95 49.15 51.9 49.05 52 49 51.9 48.95 51.95 48.5 51.7 48.45 51.65 48.3 51.55 47.95 51.8 47.6 51.85 47.45 51.85 47.1 51.7 46.75 51.7 46.35 51.55 46.3 51.6
L 46.15 51.65
Q 45.85 51.5 45.55 51.5 45.35 51.55 45.1 51.35
L 45.1 51.3
Q 45.2 51.3 45.65 51.1 46 50.75 46.15 50.8 46.3 50.8 46.65 50.95 47 51.15 47.1 51.1 47.3 51.05 47.65 50.95 47.95 50.75 48.2 50.75 48.25 50.65 48.65 50.9 48.95 50.9 49.2 50.9 49.4 50.75 49.8 50.75 50.3 50.75 50.6 50.9 50.65 50.9 50.9 50.9 51 50.9 51.25 50.9 51.5 50.75 51.95 50.8 52.25 50.85 52.5 50.9 52.65 50.9 53 50.9 53.35 50.65 53.5 50.75 53.55 50.75 54 50.9 54.2 51.1 54.4 51.1 54.55 51.05 54.9 50.95 55.15 50.85 55.35 50.75 55.45 50.8 55.9 51.05
M 45 51.3
Q 44.9 51.25 44.95 51.2
L 45 51.25 45 51.3 Z"/>
</g>
</defs>

<g transform="matrix( 1, 0, 0, 1, 0,0) ">
<use xlink:href="#Layer2_0_FILL"/>
</g>
</svg>
