
<svg xmlns="http://www.w3.org/2000/svg" version="1.1" xmlns:xlink="http://www.w3.org/1999/xlink" preserveAspectRatio="none" x="0px" y="0px" width="100px" height="100px" viewBox="0 0 100 100">
<defs>
<g id="Layer2_0_FILL">
<path fill="#1C1C1C" stroke="none" d="
M 45.4 49.45
Q 45.15 49.45 45.05 49.45 45 49.5 44.75 49.5 44.55 49.5 44.4 49.5 44.3 49.6 44 49.7 43.75 49.9 43.65 49.95 43.6 50 43.4 50.1
L 43.4 50.45
Q 43.55 50.35 43.65 50.35 44.1 50.4 44.35 50.45 44.4 50.45 44.4 50.5
L 44.45 50.5
Q 44.65 50.55 45.05 50.55
L 45.1 50.55
Q 45.15 50.6 45.35 50.65 45.55 50.75 45.7 50.75 45.8 50.75 46.05 50.75 46.15 50.75 46.25 50.75 46.35 50.75 46.45 50.75 46.85 50.75 47.6 50.75 47.8 50.75 48.15 50.85 48.45 50.95 48.65 50.95 48.9 51 49.5 50.85 49.85 50.75 50.05 50.75 50.25 50.75 50.65 50.65 51.1 50.55 51.25 50.55 51.45 50.55 51.85 50.65 52.2 50.75 52.35 50.7
L 53.55 50.65
Q 53.8 50.65 54.25 50.45 54.7 50.3 54.9 50.25 55.05 50.25 55.15 50.3 55.3 50.3 55.4 50.35 55.45 50.35 55.5 50.3
L 56 50.15
Q 56.25 50.15 56.45 50.15
L 56.65 50.05 56.65 49.8
Q 56.3 49.7 55.95 49.7 55.9 49.65 55.8 49.65 55.7 49.6 55.65 49.6 55.35 49.5 55.2 49.5 55.05 49.45 54.9 49.45 54.55 49.4 54.35 49.4 54.1 49.4 53.7 49.4 53.2 49.45 53 49.4 52.2 49.3 51.8 49.2 51 49.1 50.6 49.05 50.35 49.05 49.95 49.05 49.45 49.1 49.25 49.1 48.3 49.05 47.75 49.1 47.55 49.1 47 49.25 46.75 49.3 46.55 49.35 46.35 49.4 46.15 49.4
L 46.15 49.45
Q 45.9 49.5 45.8 49.5 45.7 49.5 45.45 49.45
L 45.4 49.45 Z"/>
</g>
</defs>

<g transform="matrix( 1, 0, 0, 1, 0,0) ">
<use xlink:href="#Layer2_0_FILL"/>
</g>
</svg>
