
<svg xmlns="http://www.w3.org/2000/svg" version="1.1" xmlns:xlink="http://www.w3.org/1999/xlink" preserveAspectRatio="none" x="0px" y="0px" width="100px" height="100px" viewBox="0 0 100 100">
<defs>
<g id="Layer2_0_FILL">
<path fill="#1C1C1C" stroke="none" d="
M 44.15 49.85
Q 44.55 50.05 45 50.1 45.85 50.25 46.7 50.25 45.0919921875 49.7626953125 44.15 49.85
M 56 50.1
Q 56.45 50.05 56.85 49.85 55.907421875 49.762890625 54.3 50.25 55.15 50.25 56 50.1
M 58.25 52.45
Q 58.4 52.15 58.5 51.9 58.45 51.9 58.4 51.9 57.85 51.85 57.35 51.8 58.45 51.45 59.4 50.95 59.1 50.95 58.8 50.95
L 58.7 50.95
Q 58.15 50.95 57.6 50.95 55.45 51.2 53.25 51.3 51.85 51.2 50.5 51.2 49.15 51.2 47.75 51.3 45.55 51.2 43.4 50.95 42.85 50.95 42.3 50.95
L 42.2 50.95
Q 41.9 50.95 41.6 50.95 42.55 51.45 43.65 51.8 43.15 51.85 42.6 51.9 42.55 51.9 42.5 51.9 42.6 52.15 42.75 52.45 43.15 52.4 43.55 52.4 44.05 52.5 44.55 52.55 45 52.55 45.5 52.5
L 45.55 52.5
Q 45.6 52.45 45.65 52.45 46.2 52.35 46.65 52.25 47.45 52.15 48.25 52.1 48.6 52.05 48.95 52.05 49.75 52.2 50.5 52.3 51.25 52.2 52.05 52.05 52.4 52.05 52.75 52.1 53.55 52.15 54.35 52.25 54.8 52.35 55.35 52.45 55.4 52.45 55.45 52.5
L 55.5 52.5
Q 56 52.55 56.45 52.55 56.95 52.5 57.45 52.4 57.85 52.4 58.25 52.45
M 52.1 44.75
L 52.1 44.8
Q 53.7 44.7 55.35 44.65 55.6 44.65 55.8 44.7 55.3 44.45 54.75 44.3 53.75 44.45 52.75 44.6 52.35 44.6 52.1 44.75
M 50.35 48.2
Q 50.45 48.2 50.5 48.25 50.55 48.2 50.65 48.2 50.8 48.2 50.95 48.1 50.75 48.1 50.5 48.1 50.25 48.1 50.05 48.1 50.2 48.2 50.35 48.2
M 48.9 44.75
Q 48.65 44.6 48.25 44.6 47.25 44.45 46.25 44.3 45.7 44.45 45.2 44.7 45.4 44.65 45.65 44.65 47.3 44.7 48.9 44.8
L 48.9 44.75
M 42.05 46.5
Q 42.05 46.6 42.05 46.7 42.05 46.75 42.15 46.8 46.1 46.65 50.1 47.2 48.7 47.15 47.35 47.05 46.2 47 45.1 47.1
L 45.05 47.1
Q 43.65 47.1 42.25 47.3 42.2 47.3 42.15 47.3 42.25 47.55 42.4 47.85 42.75 47.75 43.15 47.8 43.65 47.9 44.15 47.9 44.55 47.9 45.05 47.9
L 45.1 47.9
Q 45.1 47.8 45.2 47.85 45.65 47.7 46.1 47.65 46.9 47.45 47.65 47.45 48 47.35 48.35 47.35 49.4 47.6 50.5 47.65 51.6 47.6 52.65 47.35 53 47.35 53.35 47.45 54.1 47.45 54.9 47.65 55.35 47.7 55.8 47.85 55.9 47.8 55.9 47.9
L 55.95 47.9
Q 56.45 47.9 56.85 47.9 57.35 47.9 57.85 47.8 58.25 47.75 58.6 47.85 58.75 47.55 58.85 47.3 58.8 47.3 58.75 47.3 57.35 47.1 55.95 47.1
L 55.9 47.1
Q 54.8 47 53.65 47.05 52.3 47.15 50.9 47.2 54.9 46.65 58.85 46.8 58.95 46.75 58.95 46.7 58.95 46.6 58.95 46.5 58.5 46.4 57.95 46.45 57.1 46.45 56.15 46.65 55.1 46.6 53.95 46.55 52.2 46.5 50.5 46.95 48.8 46.5 47.05 46.55 45.9 46.6 44.85 46.65 43.9 46.45 43.05 46.45 42.5 46.4 42.05 46.5 Z"/>
</g>
</defs>

<g transform="matrix( 1, 0, 0, 1, 0,0) ">
<use xlink:href="#Layer2_0_FILL"/>
</g>
</svg>
