
<svg xmlns="http://www.w3.org/2000/svg" version="1.1" xmlns:xlink="http://www.w3.org/1999/xlink" preserveAspectRatio="none" x="0px" y="0px" width="100px" height="100px" viewBox="0 0 100 100">
<defs>
<g id="Layer2_0_FILL">
<path fill="#1C1C1C" stroke="none" d="
M 41.5 49
Q 41.15 49.1 41.15 49.15 41.1 49.15 41 49.15 40.6 49.25 40.35 49.35
L 40.15 49.4
Q 40.15 49.45 40.15 49.65 40.15 49.7 40.15 49.95 40.15 50.05 40.15 50.3 40.05 50.45 40.15 50.55 40.05 50.85 40.35 51.1 40.15 51.05 40.15 51.35 40 51.75 40.4 52.1 41.3 52.2 41.8 52.5 42.4 52.65 43 52.8 43.65 53.1 44.1 53.2 44.5 53.1 45.05 53.15 45.55 53.15 45.85 53.15 46.1 53.1 46.35 53.05 46.45 52.85 46.5 53 46.7 52.95 46.85 52.85 47.4 52.85 47.95 53 48.05 53 48.35 53 48.6 52.75 48.8 52.9 48.85 52.8 49.1 52.9 49.15 52.85 49.35 53 49.5 52.9 49.85 53.15 50.05 53.25 50.25 53.35 51.2 53.55 52.15 53.7 52.3 53.7 53.2 53.85 53.45 53.8 54.25 53.7 54.75 53.55 55.4 53.55 55.6 53.35 56.55 52.95
L 57.75 52.55
Q 58.2 52.3 59.05 52.2 59.3 51.9 59.35 51.55 59.25 51.2 59.15 51.2 59.05 51 59.3 50.55 59.2 50.45 59.3 50.35 55.1 50.25 50.85 50.15 50.65 50.1 50.4 50.2 50.05 50.2 49.65 50.55 49.55 50.55 49.45 50.55 49.35 50.55 49.25 50.55 49 50.55 48.9 50.55
L 48.55 50.55
Q 47.95 50.25 47.75 50.15 47.6 50.1 47.45 50.05 47.2 50 47.1 49.95 47.05 49.75 47.2 49.75 47.3 49.7 47.55 49.8 47.85 49.7 47.95 49.75 48 49.7 48.4 49.85 48.6 49.75 48.8 49.85 49.1 49.7 49.55 49.75 49.7 49.6 50 49.65 50.25 49.45 50.45 49.45 50.5 49.3 50.75 49.35 55.6 49.45 60.65 49.7 60.5 49.3 60.5 49.25 60.5 49.1 60.65 49.15
L 60.65 49
Q 60.5 48.75 60.3 48.7 60.1 48.55 59.7 48.6 59.55 48.45 59.55 48.5 59.4 48.45 59.25 48.4 58.75 48.1 58.65 48 58.25 47.9 58 47.8 57.35 47.6 57.3 47.55 57.35 47.45 56.15 47.15 56 46.9 55.6 47 55.25 46.65 55.05 46.65 54.7 46.6 53.95 46.35 53.7 46.2 53.4 46.2 53.15 46.15 52.9 46.1 52.5 45.95 51.9 46.35 51.65 46.4 50.95 46.45 50.75 46.35 50.55 46.65 50.15 46.55 50.1 46.8 49.9 46.75 49.65 46.9 49.35 46.85 49.2 46.95 49 46.75 48.8 46.95 48.65 46.85 48.45 46.9 48 46.8 47.95 46.9 47.5 47.1 47.25 47.1 46.95 47 46.8 47.1 46.7 47.1 46.6 47.1 46.4 47 46.35 47.1
L 46.35 47.2
Q 46.1 47.15 46 47.25 45.5 47.3 45.2 47.5 45.05 47.3 44.7 47.65 44.3 47.75 44.25 47.8 43.15 48.1 43.2 48.15 43.05 48.3 42.7 48.4 42.2 48.65 42.05 48.65 41.9 48.75 41.5 49 Z"/>
</g>
</defs>

<g transform="matrix( 1, 0, 0, 1, 0,0) ">
<use xlink:href="#Layer2_0_FILL"/>
</g>
</svg>
