
<svg xmlns="http://www.w3.org/2000/svg" version="1.1" xmlns:xlink="http://www.w3.org/1999/xlink" preserveAspectRatio="none" x="0px" y="0px" width="100px" height="100px" viewBox="0 0 100 100">
<defs>
<g id="Layer2_0_FILL">
<path fill="#1C1C1C" stroke="none" d="
M 37.15 59.8
Q 37 59.9 37 60.45 37 61 37.25 60.9 37.55 60.8 39.7 60.55 40.1 60.5 40.85 60.8 41.7 61.05 42.05 61.1 42.4 61.15 43.3 60.95 44.05 60.75 44.5 60.8 44.85 60.85 45.65 61.25 46.45 61.6 46.85 61.7 47.65 61.9 49.25 61.95 49.6 62.05 50.45 62.5 51.25 62.9 51.7 62.95 51.75 62.95 51.85 63 52.2 62.95 52.85 62.85 53.65 62.65 54 62.7 54.15 62.75 54.2 62.8 54.55 62.85 55.2 63.1 55.95 63.45 56.35 63.5 56.7 63.5 57.5 63.4 58.3 63.3 58.75 63.45 59.1 63.5 59.8 63.95 60.55 64.4 60.9 64.5 61.3 64.6 62.05 64.5 62.85 64.25 63.1 64.3 63.35 64.3 64.25 64.55 64.65 64.6 64.9 64.65 65.15 64.6 65.35 64.55 65.65 64.35 65.65 63.2 65.65 62 65.35 62.1 64.85 62.2 64.15 62.1
L 63 61.95
Q 62.6 61.9 61.75 62.1 60.95 62.3 60.6 62.2 60.15 62.15 59.45 61.6 58.65 60.95 58.25 60.9 57.85 60.85 57.1 61.05 56.2 61.25 55.85 61.15 55.45 61.1 54.65 60.8 54.4 60.7 54.2 60.6 53.7 60.4 53.4 60.35 53.15 60.35 52.85 60.35 52.25 60.3 51.85 60.3 51.4 60.25 51.05 60.15 49.55 59.95 48.75 59.8 48.4 59.7 47.6 59.3 46.8 58.95 46.45 58.9 46.1 58.85 45.3 58.5 44.5 58.2 44.15 58.2 44 58.15 43.9 58.2 43.5 58.15 43 58.35 42.15 58.55 41.85 58.55 41.1 58.6 40.7 58.65 40.2 58.8 39.85 58.9 39.75 58.9 39.6 58.9 39.4 58.9 39.2 58.95 38.6 59.1 37.15 59.8
M 40.05 53.3
Q 39.85 53.3 39.6 53.4 39.25 53.5 38.7 53.8 37.75 54.25 37.3 54.3 37 54.35 36.1 54.25 35.35 54.15 34.85 54.35 34.3 54.6 33.7 54.95 33.15 55.25 32.5 55.65 32.2 55.9 32.15 57.1 32.15 58.35 32.4 58.65 32.85 59.05 33.55 58.6 33.65 58.55 33.7 58.5 34.35 58 34.65 57.75 36.15 56.8 37.25 56.6 37.65 56.5 38.55 56.65 38.9 56.75 39.2 56.8 39.4 56.8 39.6 56.8 39.75 56.8 39.85 56.8 40.2 56.75 40.7 56.6 40.9 56.55 41.2 56.45 41.9 56.2 42.35 56.1 42.4 56.05 42.5 56.05 43.2 55.95 43.7 55.85 44.3 55.75 44.7 55.7 45 55.6 45.2 55.55 45.65 55.45 46.5 55 47.45 54.55 47.9 54.4 48.1 54.35 48.3 54.3 48.45 54.35 48.65 54.4 49.1 54.55 50.05 55 50.9 55.45 51.35 55.55 51.55 55.6 51.85 55.7 52.25 55.75 52.85 55.85 53.35 55.95 54.05 56.05 54.15 56.05 54.2 56.1 54.65 56.2 55.35 56.45 56.2 56.75 56.7 56.8 56.8 56.8 56.95 56.8 57.3 56.8 58 56.65 58.8 56.5 59.3 56.6 60.4 56.8 61.9 57.75 62.25 58 63 58.6 63.7 59.05 64.15 58.65 64.4 58.35 64.4 57.1 64.35 55.9 64.05 55.65 62.7 54.8 61.7 54.35 61.2 54.15 60.45 54.25 59.5 54.35 59.25 54.3 58.8 54.25 57.85 53.8 57.3 53.5 56.95 53.4 56.7 53.3 56.5 53.3 56.05 53.25 55.2 53.3 54.65 53.35 54.2 53.35 54 53.35 53.85 53.3 53.65 53.3 53.35 53.2 53.35 53.15 53.25 53.1 53 52.95 52.5 52.9 52.1 52.75 51.85 52.65 51.4 52.55 51.2 52.5 50.7 52.4 49.9 52.45 48.9 52.5 48.55 52.5 48.45 52.5 48.3 52.5 48.15 52.5 48 52.5 47.65 52.5 46.65 52.45 45.85 52.4 45.35 52.5 45.15 52.55 44.7 52.65 44.45 52.75 44.05 52.85 43.7 52.9 43.55 53 43.35 53.05 43.15 53.2 42.9 53.25 42.7 53.3 42.55 53.35 42.35 53.35 41.9 53.35 41.35 53.3 40.45 53.25 40.05 53.3
M 43.9 48.2
Q 42.55 48.2 40.85 48.45 39.55 48.7 37.75 49.4 37.6 49.45 37.6 49.85 37.6 50.25 37.75 50.2 38.75 50.05 40.85 49.95 42.35 49.9 43.9 49.95 44.95 50 47 50.2 48 50.35 50.1 50.4 50.55 50.45 51.7 50.4 52.6 50.35 53.2 50.45 54.2 50.65 56.3 51.1 56.45 51.15 56.6 51.15 57.1 51.3 57.8 51.5 58.5 51.7 59.4 51.95 59.5 52 59.65 52 60.1 52 60.9 51.9 61.9 51.75 62.4 51.8 62.7 51.8 62.7 51.25 62.7 50.7 62.45 50.5 61.85 50 60.95 49.9 60.15 49.9 59.65 49.85
L 59.5 49.85
Q 59 49.85 58 49.6 57.95 49.55 57.8 49.55 57 49.35 56.6 49.35 54.4 49.45 53.4 49.25 52.85 49.15 51.85 48.6 50.75 48.1 50.25 48 49.7 47.9 48.65 48.2 47.6 48.45 47.1 48.4 45 48.2 43.9 48.2
M 50.4 42.65
Q 49.55 42.95 49.1 43 47.4 43.5 46.5 43.5 46.1 43.55 45.2 43.2 44.35 42.85 43.9 42.85 43.5 42.9 42.75 43.2 42 42.85 41.6 42.75 39.95 42.4 38.95 42.05 38.6 41.95 37.9 42.05 37.75 42.05 37.65 42.05 37.3 42.1 37 42.15 36.3 42.3 35.5 42.7 35.1 42.95 35.1 44.15 35 45.4 35.45 45.7 35.95 46.1 36.9 45.65 36.95 45.6 37 45.55
L 37.4 45.55
Q 37.6 45.4 37.9 45.5 38.3 45.6 39.05 45.65 40.2 45.75 40.6 45.85 41.1 45.95 43.8 46.1 44.35 46.15 45.45 46.2 46.35 46.25 47 46.1 47.15 46.05 48.3 45.95 49.55 45.8 49.95 45.55 50.4 45.25 51.55 44.95 52.55 44.6 54.35 44.9 55.8 44.9 57 45.1 57.6 45.15 58.6 45.6 59.75 46.1 60.15 46.2
L 62.7 46.95
Q 63.4 47 64.25 47 64.65 47 64.7 45.95 64.7 45.85 64.7 45.65 64.7 44.9 64.35 44.45 64.05 44.25 63.75 44 63.35 43.95 62.9 43.9 62.85 43.95 62.7 43.9
L 62.7 43.95
Q 62.4 43.9 62.25 43.85 62.1 43.8 61.95 43.8 61.6 43.6 60.95 43.2 60.8 43.15 60.7 43.1 60.05 42.65 59.65 42.55 57.3 42.05 57 42 56.5 41.95 55.65 42.25 54.7 42.65 54.35 42.65 53.9 42.65 53.05 42.45 52.2 42.25 51.7 42.35 51.25 42.4 50.4 42.65
M 47.65 40.35
Q 47.75 39.35 47.45 39.15 46.6 38.5 44.8 38.4 43 38.5 42.05 38.45 41.7 38.45 40.75 38.2 39.9 38 39.4 38 38.3 38 37.75 37.9 37.15 37.75 36.95 37.8
L 36.9 37.8 36.6 37.7
Q 36 37.95 35.45 38.25 35.1 38.5 35.1 39.5 35 40.5 35.3 40.75 35.8 41.1 36.15 41 36.5 40.9 36.75 41.05 36.95 41.2 37.3 41 37.6 40.75 37.65 40.75 38.7 40.6 39.05 40.65 39.95 40.7 41.75 40.9 42.25 40.95 43.15 41.4 44.15 41.9 44.55 42 45.5 42.15 47.4 41.35 47.65 41.3 47.65 40.35
M 54.15 36.8
Q 52.85 37 52.35 37 52.05 37 50.45 37.15 49.4 37.3 48.65 37.1 48.45 37 48.45 37.5 48.45 38 48.6 38.05 49.3 38.3 50.3 38.35
L 52.05 38.5
Q 54.4 38.8 55.5 39.05 56 39.15 57.2 39.35 58.3 39.5 58.9 39.65 59.4 39.75 60.6 40.25 60.7 40.25 60.7 40.3 61.45 40.55 61.95 40.7 62.85 40.85 63.35 41 63.85 41.15 64 39.95 64.15 38.75 63.75 38.4 63.35 37.95 62.55 37.9 62.35 37.85 61.95 37.9 61.6 37.9 61.05 37.9 60.8 37.9 60.7 37.95 59.8 38 59.4 37.9 58.75 37.8 57.65 37.3 56.45 36.8 55.95 36.7 55.3 36.6 54.15 36.8 Z"/>
</g>
</defs>

<g transform="matrix( 1, 0, 0, 1, 0,0) ">
<use xlink:href="#Layer2_0_FILL"/>
</g>
</svg>
