
<svg xmlns="http://www.w3.org/2000/svg" version="1.1" xmlns:xlink="http://www.w3.org/1999/xlink" preserveAspectRatio="none" x="0px" y="0px" width="100px" height="100px" viewBox="0 0 100 100">
<defs>
<g id="Layer2_0_FILL">
<path fill="#1C1C1C" stroke="none" d="
M 42.45 49.35
Q 42.6 49.35 42.75 49.4 42.65 49.45 42.9 49.5
L 42.95 49.5 42.8 49.55
Q 43.2 49.6 43.6 49.8 43.64375 49.8 43.65 49.8 43.55 49.804296875 43.55 49.9 43.45 49.9 43.15 50.15 42.85 50.25 42.75 50.25 42.65 50.25 42.55 50.25 42.35 50.25 42.3 50.25 42.05 50.25 41.8 50.25 41.4 50.15 41.35 50.25 41.45 50.15 41.75 50.35 41.85 50.35 41.95 50.45 42.1 50.55 42.2 50.6 42.3 50.65 42.75 50.65 43 50.65 43.4 50.6 43.5 50.65 43.6 50.65 43.75 50.75 43.85 50.65 44.2 50.7 44.35 50.75 44.75 50.75 44.9 50.85 44.95 50.8 45 50.95 45.2 50.9 45.55 51 45.85 51 46.15 51.05 46.2 51.05 46.4 51.05 47.1 51.15 47.4 51.2 47.5 51.2 47.95 51.15 48.05 51.1 48.3 51.05 48.4 51.3 48.65 51.35 48.75 51.25 49.2 51.25 49.4 51.2 49.55 51.2
L 49.7 51.2
Q 49.85 51.2 50.2 51.35 50.4 51.4 50.6 51.5 51.1 51.55 51.55 51.6 51.8 51.6 52.65 51.45 52.8 51.35 53.35 51.55 53.5 51.4 53.65 51.6 53.8 51.65 53.9 51.65 54.25 51.4 54.6 51.2 54.5 51.2 54.95 50.85 55 50.85 55.05 50.8 55.2 50.7 55.35 50.75 55.5 50.65 55.65 50.7 56.05 50.8 56.45 50.85 56.75 50.8 56.85 50.8 56.9 50.75 57.15 50.8
L 57.15 50.7
Q 57.2 50.7 57.4 50.7 57.2 50.6 57.15 50.6 57.05 50.45 56.95 50.45 57 50.4 57.05 50.35 56.7 50.4 56.3 50.1 56.25 50.05 56.2 50.1 56.1 50 56.35 50 56.45 49.9 56.75 49.75 56.85 49.65 57.1 49.65 57.1 49.6 57.3 49.7 57.45 49.7 57.6 49.7 57.85 49.7 58.1 49.7 57.9 49.6 57.85 49.65 57.75 49.55 57.65 49.6 57.3 49.55 57.1 49.55 56.7 49.5 56.5 49.55 56.3 49.45 56.25 49.5 55.9 49.4 55.95 49.45 55.6 49.35 55.45 49.4 55.15 49.3 55 49.3 54.95 49.25 54.85 49.2 54.6 49.15 54.35 49.15 53.95 49.05 53.75 49 53.6 49 53.45 49 52.7 48.75 52.5 48.8 52.25 48.65 51.95 48.8 51.7 48.75 51.6 48.8 51.35 48.55 51.25 48.6 51.05 48.45 50.65 48.6 50.5 48.6 50.35 48.65 50.25 48.65 50.15 48.65 50.1 48.6 49.65 48.55 49.45 48.45 49.25 48.45 48.7 48.3 48.3 48.35 47.8 48.3 47.25 48.55 46.9 48.5 46.5 48.45 46.45 48.45 46.2 48.45 46 48.45 46 48.4 45.65 48.6 45.25 48.8 45.1 48.85 44.95 49.1
L 44.8 49.15
Q 44.5 49.15 44.55 49.2 44.3 49.2 44.2 49.2 43.8 49.2 43.4 49.15 43.1 49.15 42.95 49.2 42.85 49.3 42.7 49.2 42.6 49.25 42.7 49.3 42.5 49.25 42.45 49.35 Z"/>
</g>
</defs>

<g transform="matrix( 1, 0, 0, 1, 0,0) ">
<use xlink:href="#Layer2_0_FILL"/>
</g>
</svg>
