
<svg xmlns="http://www.w3.org/2000/svg" version="1.1" xmlns:xlink="http://www.w3.org/1999/xlink" preserveAspectRatio="none" x="0px" y="0px" width="100px" height="100px" viewBox="0 0 100 100">
<defs>
<g id="Layer2_0_FILL">
<path fill="#363435" stroke="none" d="
M 44.75 50.25
Q 45 50.4 45.4 50.7 45.55 50.5 45.85 50.3 45.55 49.75 45.25 49.35 44.9 49.7 44.75 50.25
M 47.25 51.4
Q 47.2 51.4 47.35 51.55 46.95 51.75 46.7 51.9 47.2 51.8 47.45 51.7 47.4 51.7 47.75 51.25 47.55 51.15 47.5 51.2 47.1 51.2 47.25 51.4
M 51.25 51.85
Q 51.45 51.65 51.6 51.6 51.55 51.5 51.5 51.55 51.45 51.5 51.4 51.6 50.4 51.45 49.6 51.45 49.15 51.6 48.9 51.55 49.5 51.7 50.1 51.85 50.15 51.85 50.35 51.85 50.15 51.95 50.1 52.2 50.25 52.55 50.75 52.1 50.8 51.6 51.25 51.85
M 58.25 51.35
Q 58.25 50.9 58.25 50 58.05 49.95 58.05 49.9 57.9 49.6 57.75 49.45 57.65 49.5 57.5 49.95 57.55 50.15 57.75 50.55 57.75 50.65 57.5 50.5 57.45 50.2 57.35 50.65 57.2 50.6 56.85 50.7 56.45 50.45 56.4 50.35
L 56.4 50.25 56.65 50.25
Q 56.5 50 56.55 49.95 56.45 50 56.35 50.05 56.3 50.1 56.2 50.3 56.1 50.45 56.35 50.6 56.5 50.75 56.65 51.05 56.55 51 56.45 51.1 55.55 50.8 54.45 51.05 53 51.4 52.55 51.35 52.4 51.45 52.2 51.5 52.3 51.55 52.4 51.55 52.95 51.65 53.45 51.75 53.6 51.85 53.7 51.9 53.65 52.05 53.4 52.15 53.25 52.15 53.05 51.95 53.25 52.6 53.45 53.25 53.55 53.25 53.85 53.2 54.3 53.05 54.75 52.7 55.3 52.5 55.45 52.3 55.6 51.95 55.5 51.55 55.45 51.5 55.6 51.45 55.677734375 51.372265625 55.75 51.35 55.727734375 51.39453125 55.7 51.45 55.85 51.5 55.8 51.7 56 51.6 56.2 51.45 56.1 51.3 56.35 51.35 56.35 51.4 56.5 51.6 56.45 51.7 56.55 51.75 56.2 51.85 56.2 51.95 56.2 52 56.35 52.2 56.75 52.15 57.35 52.05 57.2 51.75 57.25 51.6 57.2 51.55 57.3 51.3 57.35 51.3 57.35 51.25
L 57.45 51.35
Q 57.25 51.85 58.25 51.35
M 57.75 49.3
Q 57.6587890625 49.3 57.6 49.3 57.5 49.35 57.75 49.4 57.778515625 49.371484375 57.8 49.35 57.75 49.3296875 57.75 49.3
M 53.7 49.3
Q 53.45 49.1 53.2 48.85 52.8 48.95 52.4 49.05 52.85 49.65 53.5 49.6 53.6 49.35 53.7 49.3
M 54.8 47.65
Q 54.7 47.65 54.6 47.85 54.7 47.85 54.8 48 55.15 48.25 55.3 48.45 55.35 48.5 55.2 48.55 55.1 48.3 54.95 48.45 54.7 48.25 54.65 48.2 54.65 48 54.2 47.95
L 54 48
Q 54.25 48.4 54.85 48.6 55.55 48.75 55.8 48.9 55.95 48.85 56.1 48.8 56.2 48.85 56.3 48.85 56.2 49.05 56.45 49.05 56.8 49.05 56.95 49.2
L 57.25 49.5
Q 57.45 49.4 57.25 49.3
L 57.2 49.25
Q 57.25 49.25 57.3 49.25
L 57.35 49.25
Q 57.276171875 49.226171875 57.25 49.2 57.35 49.1 57.45 49.15 57.5 49.1 57.75 49.25 57.8 49.3 58 49.35 58.1 49.4 58.2 49.25 58.1 49.15 57.95 49.2 57.75 49.2 57.75 49.15 57.55 48.9 56.95 48.8 56.25 48.75 56.1 48.7 55.75 48.45 55.55 48.4 55.1 48.15 55.05 47.85 54.85 47.45 54.8 47.65
M 52.8 48.1
Q 52.85 48.3 53.1 48.5 53.1 48.6 53.45 48.65 54.45 48.65 54.85 49.6 55 49.95 55.35 49.65 55.65 49.2 55.95 49.7 55.9 49.45 56.2 49.4 56.2 49.2525390625 56.15 49.3
L 56.2 49.25
Q 56.3 49.35 56.4 49.45 56.3 49.5 56.35 49.55
L 56.45 49.6
Q 56.55 49.6 56.65 49.6 56.75 49.1 56.65 49.15 56.1 49.05 55.7 48.95 54.7 48.7 53.7 48.4 53.15 48.25 52.8 48.1
M 51.7 49
Q 51.4 49.3 51.7 49.35 51.95 49.4 51.95 49.6 52.35 51.1 52.55 51.15 52.75 51.25 52.95 51.1 53 50.8 53.25 50.65 52.85 50.6 52.65 50.5 52.5 50.45 52.5 50.4 52.6 50.25 52.65 50.25 52.8 50.15 52.95 50.05 52.75 49.85 52.55 49.8 51.9 49.95 52.2 49.1 51.95 48.95 51.7 49
M 51.75 48.35
Q 51.55 48.35 51.55 48.5 51.4 48.7 51.45 48.85 51.65 48.6 52 48.55 52.25 48.3 52.65 48.8 52.65 48.5 52.65 48.35 52.65 48.25 52.2 48.1 52.1 48.35 51.75 48.35
M 45.3 48.1
Q 45.25 48.3 45.4 48.3 45.7 48.3 45.75 48.3 46 48.2 46.25 48.1 46.25 47.95 46.4 48
L 46.5 48.05
Q 46.35 48.1 46.4 48.3 46.35 48.25 46.25 48.35 46.2 48.3 46.15 48.45 46.25 48.4 46.75 48.35 47.3 48.3 47.25 48.25 47.45 48.15 47.45 48.05
L 47.6 48.1
Q 47.6 48.19609375 47.9 48.1 47.9037109375 48.1322265625 48.1 48.25
L 47.95 48.3 47.7 48.35
Q 47.65 48.35 47.75 48.55 47.85 48.55 47.95 48.5 48.1921875 48.5484375 48.4 48.4 48.1984375 48.5546875 48.15 48.7 47.9 48.85 47.85 49.2 48.05 49.1 48.4 49.4 48.95 49.3 49.65 49.35 49.8 49.35 49.95 49.35 50.1 49.15 50.25 48.95 49.9 48.9 49.55 49 49.25 48.9 49.1 48.95 49.15 48.8 49.2 48.8 50.15 48.15 50.9 48.25 50.95 48.2 51.6 48.15 51.25 48 50.9 48.05 51.05 47.95 51.2 48 51.5 47.9 51.55 47.95 51.8 47.85 52 47.7 50.85 47.6 49.85 47.85 49.45 47.85 49.05 47.85 48.9 47.7 48.95 47.7 48.95 47.4 49.15 47.5 50.8 47.4 52.45 47.7 52.65 47.7 53.05 47.7 52.9 47.45 52.9 47.2 52.5 47.55 52.5 47.25 52.25 46.75 52.15 46.85 52.05 46.95 51.95 47 51.9 47.15 51.85 47.5
L 51.05 47.05
Q 50.75 46.25 50.4 46.65 49.95 46.95 49.85 46.8 48.6 48.1 47.35 47.6 47.1 47.65 46.25 47.85 45.55 48 45.2 47.9 45.15 48 45.1 48.1 45.2 48.2 45.3 48.1
M 48.75 50.5
Q 48.65 50.4 48.75 50.3 48.7 50.15 48.8 50.15 48.85 50.1 49.05 50.2 48.7 49.65 48.55 49.65 48.25 49.6 47.35 49.95 46.5 50.1 46.05 49.8 46.35 50.9 45.65 51 45.55 51 45.65 51.15 45.85 51.25 45.8 51.3 46.75 51.2 47.65 51.05 47.9 51 48.7 51.35 49.05 51.4 49.8 51.2 49.75 51.15 49.7 51.05 49.5 50.7 49.3 50.55 48.95 50.15 48.75 50.5
M 45.2 48.9
Q 45 48.85 44.95 49
L 45.15 49.2
Q 45.35 49.05 45.75 49.3 45.8 49.35 46.05 49.8 46 49.2 46.1 49.2 45.65 48.85 45.2 48.9
M 42.95 49.2
Q 42.853515625 49.2193359375 42.75 49.25 42.870703125 49.24453125 43 49.3 43.2 49.2 43.35 49.1 43.5 49.1 43.6 48.9 43.6 48.7 44 48.7 44.1 48.6 44 48.5 43.8 48.4 43.4 48.65 42.85 48.9 42.7 48.95
L 42.7 49
Q 43.5 48.8 43.05 49 42.5 49.1 42.7 49.15 42.8447265625 49.15 42.95 49.15 42.95 49.1666015625 42.95 49.2 Z"/>
</g>
</defs>

<g transform="matrix( 1, 0, 0, 1, 0,0) ">
<use xlink:href="#Layer2_0_FILL"/>
</g>
</svg>
