
<svg xmlns="http://www.w3.org/2000/svg" version="1.1" xmlns:xlink="http://www.w3.org/1999/xlink" preserveAspectRatio="none" x="0px" y="0px" width="100px" height="100px" viewBox="0 0 100 100">
<defs>
<g id="Layer1_0_FILL">
<path fill="#000000" stroke="none" d="
M 57.75 54.95
L 57.7 54.95 57.7 55 57.75 54.95
M 53.05 35.5
Q 53 35.5 52.95 35.5
L 52.7 35.55 52.7 35.5 52.6 35.5
Q 52.5 35.5 52.4 35.5 52.25 35.65 52.15 35.6
L 52.1 35.6 52.15 35.55
Q 52.05 35.5 51.95 35.55
L 51.95 35.5
Q 51.75 35.5 51.7 35.5 51.6 35.45 51.5 35.5
L 51.45 35.45
Q 51.45 35.5 51.4 35.5 51.4 35.45 51.35 35.45 51.1 35.5 50.95 35.45 50.85 35.45 50.8 35.5
L 50.75 35.45
Q 50.7 35.4 50.65 35.45
L 50.4 35.45
Q 50.3 35.4 50.25 35.45 50.3 35.45 50.25 35.5
L 49.95 35.45 49.9 35.45
Q 49.85 35.4 49.75 35.4
L 49.75 35.45
Q 49.7 35.4 49.55 35.45 49.6 35.5 49.55 35.5
L 49.5 35.5 49.5 35.45 49.4 35.45
Q 49.25 35.45 49.2 35.45
L 49.05 35.45
Q 49.0984375 35.4484375 49.05 35.4 48.95 35.5 48.85 35.45 48.6025390625 35.45 48.45 35.45 48.4984375 35.4515625 48.45 35.5 48.2 35.4 48.15 35.5
L 47.8 35.5
Q 47.75 35.55 47.7 35.55 47.7 35.5 47.65 35.5
L 47.6 35.5 47.6 35.55
Q 47.45 35.55 47.45 35.5
L 47.05 35.55 47.1 35.5
Q 46.9 35.55 46.75 35.5
L 46.7 35.55
Q 46.7 35.5 46.65 35.5
L 46.45 35.5 46.45 35.55 46.3 35.55
Q 46.35 35.5484375 46.35 35.5
L 46.15 35.5 46.15 35.55 45.95 35.6 45.75 35.6
Q 45.6 35.65 45.5 35.65
L 45.35 35.65 45.35 35.7
Q 45.25 35.8 45.2 36.05
L 45.15 36.05
Q 45.15 36.35 45.2 36.4 45.15 36.45 45.15 36.6 45.2 36.65 45.15 36.85 45.2 37 45.15 37 45.15 37.35 45.2 37.5
L 45.15 37.45
Q 45.2 37.55 45.2 37.6
L 45.2 37.95
Q 45.25 37.95 45.2 38.15 45.2 38.2 45.3 38.4 45.3 38.45 45.25 38.45
L 45.2 38.4
Q 45.25 38.5 45.2 38.6 45.2 38.7 45.2 38.85 45.2 38.95 45.15 39.05
L 45.15 39.2
Q 45.1 39.3 45.1 39.6 45.15 39.65 45.15 39.75
L 45.15 39.8
Q 45.15 39.9 45.1 39.8 45.05 39.85 45.1 40
L 45.15 40 45.15 40.05 45.1 40.05 45.1 40.15 45.15 40.15
Q 45.1 40.25 45.1 40.3
L 45.15 40.3 45.1 40.6
Q 45.15 40.6 45.15 40.65
L 45.1 40.65
Q 45.15 40.75 45.1 40.8 45.15 40.9 45.15 41
L 45.15 41.1 45.1 41.05 45.15 41.15
Q 45.15 41.35 45.1 41.35
L 45.15 41.5 45.15 41.55
Q 45.2 41.6 45.1 41.7 45.1 41.85 45.1 42.1 45.1 42.15 45.15 42.1 45.15 42.15 45.15 42.3 45.15 42.4 45.2 42.45
L 45.15 42.55 45.15 42.75
Q 45.15 42.8 45.2 42.9
L 45.2 43
Q 45.2 43.05 45.15 43.15
L 45.25 43.5 45.2 43.45
Q 45.15 43.55 45.2 43.8
L 45.2 44.4
Q 45.2 44.45 45.25 44.4
L 45.25 44.6 45.3 44.55 45.25 44.8
Q 45.3 44.95 45.35 45.05
L 45.35 45.25 45.4 45.25
Q 45.5 45.3 45.75 45.35
L 45.7 45.4
Q 46.05 45.4 46.1 45.35 46.1 45.4 46.25 45.4 46.3 45.35 46.4 45.4 46.45 45.4 46.5 45.4 46.7 45.35 46.7 45.4 47.05 45.4 47.2 45.35
L 47.15 45.4
Q 47.25 45.4 47.3 45.35
L 47.65 45.35
Q 47.75 45.4 47.85 45.35
L 47.95 45.3
Q 48.05 45.25 48.1 45.25 48.05 45.3 48.15 45.3
L 48.1 45.35
Q 48.2 45.3 48.3 45.35 48.4 45.35 48.55 45.35 48.65 45.35 48.7 45.4
L 48.75 45.4
Q 48.8 45.4 48.85 45.4
L 48.9 45.4
Q 49 45.45 49.25 45.45
L 49.4 45.4 49.45 45.4 49.5 45.4
Q 49.55 45.4 49.5 45.45
L 49.45 45.4 49.45 45.45
Q 49.55 45.5 49.7 45.45
L 49.65 45.4 49.75 45.4 49.75 45.45 49.85 45.45 49.85 45.4
Q 49.95 45.45 50 45.45
L 49.95 45.4 50 45.4 50.3 45.45
Q 50.25 45.4 50.35 45.4
L 50.35 45.45
Q 50.45 45.4 50.5 45.45 50.6 45.4 50.65 45.4
L 50.75 45.4 50.75 45.45 50.8 45.4
Q 51 45.4 51 45.45
L 51.15 45.4
Q 51.15 45.45 51.2 45.45 51.3 45.35 51.35 45.45 51.5 45.45 51.75 45.45 51.8 45.45 51.8 45.4 52.05 45.45 52.1 45.35
L 52.2 45.4 52.45 45.4
Q 52.5 45.4 52.55 45.35
L 52.6 45.35 52.6 45.4 52.65 45.35
Q 52.7 45.35 52.8 45.4
L 53.2 45.3 53.15 45.35
Q 53.2 45.4 53.3 45.35 53.45 45.35 53.5 45.35
L 53.55 45.35
Q 53.55 45.4 53.6 45.35
L 54.1 45.35
Q 54.15 45.35 54.1 45.3
L 54.3 45.3 54.25 45.25 54.5 45.3
Q 54.6 45.25 54.7 45.25
L 54.8 45.25 54.8 45.3
Q 54.7 45.4 54.65 45.65
L 54.6 45.65
Q 54.6 45.95 54.65 46 54.6 46.05 54.6 46.2 54.65 46.25 54.6 46.45 54.65 46.6 54.6 46.6 54.6 46.95 54.65 47.1
L 54.6 47.05
Q 54.65 47.15 54.65 47.2
L 54.65 47.55
Q 54.7 47.55 54.65 47.75 54.65 47.8 54.75 48 54.75 48.05 54.7 48.05
L 54.65 48
Q 54.7 48.1 54.65 48.2 54.65 48.3 54.65 48.45 54.65 48.55 54.6 48.65
L 54.6 48.8
Q 54.55 48.9 54.55 49.2 54.6 49.25 54.6 49.35
L 54.6 49.4
Q 54.6 49.5 54.55 49.4 54.5 49.45 54.55 49.6
L 54.6 49.6 54.6 49.65 54.55 49.65 54.55 49.75 54.6 49.75
Q 54.55 49.85 54.55 49.9
L 54.6 49.9 54.55 50.2
Q 54.6 50.2 54.6 50.25
L 54.55 50.25
Q 54.6 50.35 54.55 50.4 54.6 50.5 54.6 50.6
L 54.6 50.7 54.55 50.65 54.6 50.75
Q 54.6 50.95 54.55 50.95
L 54.6 51.1 54.6 51.15
Q 54.65 51.2 54.55 51.3 54.55 51.45 54.55 51.7 54.55 51.75 54.6 51.7 54.6 51.75 54.6 51.9 54.6 52 54.65 52.05
L 54.6 52.15 54.6 52.35
Q 54.6 52.4 54.65 52.5
L 54.65 52.6
Q 54.65 52.65 54.6 52.75
L 54.7 53.1 54.65 53.05
Q 54.6 53.15 54.65 53.4
L 54.65 54
Q 54.65 54.05 54.7 54
L 54.7 54.2 54.75 54.15 54.7 54.4
Q 54.75 54.55 54.8 54.65
L 54.8 54.75
Q 54.7 54.7 54.5 54.65 54.2 54.65 54.15 54.65 54.05 54.65 54 54.65 53.95 54.65 53.85 54.65 53.75 54.65 53.7 54.65
L 53.75 54.6
Q 53.55 54.65 53.55 54.6 53.2 54.6 53.05 54.65 53 54.65 52.95 54.65
L 52.7 54.7 52.7 54.65 52.6 54.65
Q 52.5 54.65 52.4 54.65 52.25 54.8 52.15 54.75
L 52.1 54.75 52.15 54.7
Q 52.05 54.65 51.95 54.7
L 51.95 54.65
Q 51.75 54.65 51.7 54.65 51.6 54.6 51.5 54.65
L 51.45 54.6
Q 51.45 54.65 51.4 54.65 51.4 54.6 51.35 54.6 51.1 54.65 50.95 54.6 50.85 54.6 50.8 54.65
L 50.75 54.6
Q 50.7 54.55 50.65 54.6
L 50.4 54.6
Q 50.3 54.55 50.25 54.6 50.3 54.6 50.25 54.65
L 49.95 54.6 49.9 54.6
Q 49.85 54.55 49.75 54.55
L 49.75 54.6
Q 49.7 54.55 49.55 54.6 49.6 54.65 49.55 54.65
L 49.5 54.65 49.5 54.6 49.4 54.6
Q 49.25 54.6 49.2 54.6
L 49.05 54.6
Q 49.0984375 54.5984375 49.05 54.55 48.95 54.65 48.85 54.6 48.6025390625 54.6 48.45 54.6 48.4984375 54.6015625 48.45 54.65 48.2 54.55 48.15 54.65
L 47.8 54.65
Q 47.75 54.7 47.7 54.7 47.7 54.65 47.65 54.65
L 47.6 54.65 47.6 54.7
Q 47.45 54.7 47.45 54.65
L 47.05 54.7 47.1 54.65
Q 46.9 54.7 46.75 54.65
L 46.7 54.7
Q 46.7 54.65 46.65 54.65
L 46.45 54.65 46.45 54.7 46.3 54.7
Q 46.35 54.6984375 46.35 54.65
L 46.15 54.65 46.15 54.7 45.95 54.75 45.75 54.75
Q 45.6 54.8 45.5 54.8
L 45.35 54.8 45.35 54.75
Q 45.4 54.65 45.45 54.4
L 45.5 54.45
Q 45.5 54.1 45.45 54.05 45.45 53.95 45.5 53.9 45.5 53.7 45.5 53.65 45.45 53.5 45.5 53.5 45.5 53.1 45.45 53
L 45.5 53
Q 45.5 52.95 45.45 52.85
L 45.45 52.55
Q 45.5 52.45 45.45 52.35 45.35 52.15 45.35 52.05 45.4 52.1 45.4 52.05
L 45.45 52.05
Q 45.45 51.95 45.45 51.9
L 45.45 51.85
Q 45.5 51.7 45.45 51.6 45.5 51.55 45.5 51.45
L 45.5 51.4
Q 45.45 51.35 45.5 51.3
L 45.5 51.25
Q 45.5 51.05 45.55 50.9
L 45.5 50.75 45.5 50.7 45.5 50.65
Q 45.5 50.6 45.55 50.65
L 45.5 50.7 45.55 50.7
Q 45.6 50.6 45.55 50.45
L 45.5 50.5 45.5 50.4 45.55 50.4 45.55 50.3 45.5 50.3
Q 45.55 50.2 45.55 50.15 45.5 50.25 45.5 50.15
L 45.55 49.85
Q 45.5 49.9 45.5 49.8
L 45.55 49.8
Q 45.6 49.8 45.55 49.7
L 45.55 49.65
Q 45.55 49.6 45.5 49.5
L 45.5 49.4 45.55 49.4 45.5 49.35
Q 45.5 49.15 45.55 49.15
L 45.5 49
Q 45.55 49 45.55 48.95 45.45 48.85 45.55 48.8 45.5 48.55 45.55 48.4 45.55 48.35 45.5 48.35 45.55 48.1 45.45 48.05
L 45.5 47.95 45.5 47.7
Q 45.45 47.65 45.45 47.6
L 45.45 47.55 45.5 47.55 45.45 47.5
Q 45.45 47.45 45.5 47.35
L 45.4 46.95 45.45 47
Q 45.45 46.8 45.45 46.65
L 45.45 46.6
Q 45.5 46.6 45.45 46.55
L 45.45 46.1 45.4 46.05 45.4 45.9 45.35 45.9 45.4 45.65
Q 45.35 45.6 45.35 45.5
L 45.35 45.25 45.3 45.25
Q 45.2 45.2 44.9 45.1 44.6 45.1 44.55 45.1 44.45 45.1 44.4 45.1 44.35 45.1 44.25 45.1 44.15 45.1 44.1 45.1
L 44.15 45.05
Q 43.95 45.1 43.95 45.05 43.6 45.05 43.45 45.1 43.4 45.1 43.35 45.1
L 43.1 45.15 43.1 45.1 43 45.1
Q 42.9 45.1 42.8 45.1 42.65 45.25 42.55 45.2
L 42.5 45.2 42.55 45.15
Q 42.45 45.1 42.35 45.15
L 42.35 45.1
Q 42.15 45.1 42.1 45.1 42 45.05 41.9 45.1
L 41.85 45.05
Q 41.85 45.1 41.8 45.1 41.8 45.05 41.75 45.05 41.5 45.1 41.35 45.05 41.25 45.05 41.2 45.1
L 41.15 45.05
Q 41.1 45 41.05 45.05
L 40.8 45.05
Q 40.7 45 40.65 45.05 40.7 45.05 40.65 45.1
L 40.35 45.05 40.3 45.05
Q 40.25 45 40.15 45
L 40.15 45.05
Q 40.1 45 39.95 45.05 40 45.1 39.95 45.1
L 39.9 45.1 39.9 45.05 39.8 45.05
Q 39.65 45.05 39.6 45.05
L 39.45 45.05
Q 39.4984375 45.0484375 39.45 45 39.35 45.1 39.25 45.05 39.0025390625 45.05 38.85 45.05 38.8984375 45.0515625 38.85 45.1 38.6 45 38.55 45.1
L 38.2 45.1
Q 38.15 45.15 38.1 45.15 38.1 45.1 38.05 45.1
L 38 45.1 38 45.15
Q 37.85 45.15 37.85 45.1
L 37.45 45.15 37.5 45.1
Q 37.3 45.15 37.15 45.1
L 37.1 45.15
Q 37.1 45.1 37.05 45.1
L 36.85 45.1 36.85 45.15 36.7 45.15
Q 36.75 45.1484375 36.75 45.1
L 36.55 45.1 36.55 45.15 36.35 45.2 36.15 45.2
Q 36 45.25 35.9 45.25
L 35.75 45.25 35.75 45.3
Q 35.65 45.4 35.6 45.65
L 35.55 45.65
Q 35.55 45.95 35.6 46 35.55 46.05 35.55 46.2 35.6 46.25 35.55 46.45 35.6 46.6 35.55 46.6 35.55 46.95 35.6 47.1
L 35.55 47.05
Q 35.6 47.15 35.6 47.2
L 35.6 47.55
Q 35.65 47.55 35.6 47.75 35.6 47.8 35.7 48 35.7 48.05 35.65 48.05
L 35.6 48
Q 35.65 48.1 35.6 48.2 35.6 48.3 35.6 48.45 35.6 48.55 35.55 48.65
L 35.55 48.8
Q 35.5 48.9 35.5 49.2 35.55 49.25 35.55 49.35
L 35.55 49.4
Q 35.55 49.5 35.5 49.4 35.45 49.45 35.5 49.6
L 35.55 49.6 35.55 49.65 35.5 49.65 35.5 49.75 35.55 49.75
Q 35.5 49.85 35.5 49.9
L 35.55 49.9 35.5 50.2
Q 35.55 50.2 35.55 50.25
L 35.5 50.25
Q 35.55 50.35 35.5 50.4 35.55 50.5 35.55 50.6
L 35.55 50.7 35.5 50.65 35.55 50.75
Q 35.55 50.95 35.5 50.95
L 35.55 51.1 35.55 51.15
Q 35.6 51.2 35.5 51.3 35.5 51.45 35.5 51.7 35.5 51.75 35.55 51.7 35.55 51.75 35.55 51.9 35.55 52 35.6 52.05
L 35.55 52.15 35.55 52.35
Q 35.55 52.4 35.6 52.5
L 35.6 52.6
Q 35.6 52.65 35.55 52.75
L 35.65 53.1 35.6 53.05
Q 35.55 53.15 35.6 53.4
L 35.6 54
Q 35.6 54.05 35.65 54
L 35.65 54.2 35.7 54.15 35.65 54.4
Q 35.7 54.55 35.75 54.65
L 35.75 54.85 35.8 54.85
Q 35.9 54.9 36.15 54.95
L 36.1 55
Q 36.45 55 36.5 54.95 36.5 55 36.65 55 36.7 54.95 36.8 55 36.85 55 36.9 55 37.1 54.95 37.1 55 37.45 55 37.6 54.95
L 37.55 55
Q 37.65 55 37.7 54.95
L 38.05 54.95
Q 38.15 55 38.25 54.95
L 38.35 54.9
Q 38.45 54.85 38.5 54.85 38.45 54.9 38.55 54.9
L 38.5 54.95
Q 38.6 54.9 38.7 54.95 38.8 54.95 38.95 54.95 39.05 54.95 39.1 55
L 39.15 55
Q 39.2 55 39.25 55
L 39.3 55
Q 39.4 55.05 39.65 55.05
L 39.8 55 39.85 55 39.9 55
Q 39.95 55 39.9 55.05
L 39.85 55 39.85 55.05
Q 39.95 55.1 40.1 55.05
L 40.05 55 40.15 55 40.15 55.05 40.25 55.05 40.25 55
Q 40.35 55.05 40.4 55.05
L 40.35 55 40.4 55 40.7 55.05
Q 40.65 55 40.75 55
L 40.75 55.05
Q 40.85 55 40.9 55.05 41 55 41.05 55
L 41.15 55 41.15 55.05 41.2 55
Q 41.4 55 41.4 55.05
L 41.55 55
Q 41.55 55.05 41.6 55.05 41.7 54.95 41.75 55.05 41.9 55.05 42.15 55.05 42.2 55.05 42.2 55 42.45 55.05 42.5 54.95
L 42.6 55 42.85 55
Q 42.9 55 42.95 54.95
L 43 54.95 43 55 43.05 54.95
Q 43.1 54.95 43.2 55
L 43.6 54.9 43.55 54.95
Q 43.6 55 43.7 54.95 43.85 54.95 43.9 54.95
L 43.95 54.95
Q 43.95 55 44 54.95
L 44.5 54.95
Q 44.55 54.95 44.5 54.9
L 44.7 54.9 44.65 54.85 44.9 54.9
Q 45 54.85 45.1 54.85
L 45.35 54.85
Q 45.25 54.95 45.2 55.2
L 45.15 55.2
Q 45.15 55.5 45.2 55.55 45.15 55.6 45.15 55.75 45.2 55.8 45.15 56 45.2 56.15 45.15 56.15 45.15 56.5 45.2 56.65
L 45.15 56.6
Q 45.2 56.7 45.2 56.75
L 45.2 57.1
Q 45.25 57.1 45.2 57.3 45.2 57.35 45.3 57.55 45.3 57.6 45.25 57.6
L 45.2 57.55
Q 45.25 57.65 45.2 57.75 45.2 57.85 45.2 58 45.2 58.1 45.15 58.2
L 45.15 58.35
Q 45.1 58.45 45.1 58.75 45.15 58.8 45.15 58.9
L 45.15 58.95
Q 45.15 59.05 45.1 58.95 45.05 59 45.1 59.15
L 45.15 59.15 45.15 59.2 45.1 59.2 45.1 59.3 45.15 59.3
Q 45.1 59.4 45.1 59.45
L 45.15 59.45 45.1 59.75
Q 45.15 59.75 45.15 59.8
L 45.1 59.8
Q 45.15 59.9 45.1 59.95 45.15 60.05 45.15 60.15
L 45.15 60.25 45.1 60.2 45.15 60.3
Q 45.15 60.5 45.1 60.5
L 45.15 60.65 45.15 60.7
Q 45.2 60.75 45.1 60.85 45.1 61 45.1 61.25 45.1 61.3 45.15 61.25 45.15 61.3 45.15 61.45 45.15 61.55 45.2 61.6
L 45.15 61.7 45.15 61.9
Q 45.15 61.95 45.2 62.05
L 45.2 62.15
Q 45.2 62.2 45.15 62.3
L 45.25 62.65 45.2 62.6
Q 45.15 62.7 45.2 62.95
L 45.2 63.55
Q 45.2 63.6 45.25 63.55
L 45.25 63.75 45.3 63.7 45.25 63.95
Q 45.3 64.1 45.35 64.2
L 45.35 64.4 45.4 64.4
Q 45.5 64.45 45.75 64.5
L 45.7 64.55
Q 46.05 64.55 46.1 64.5 46.1 64.55 46.25 64.55 46.3 64.5 46.4 64.55 46.45 64.55 46.5 64.55 46.7 64.5 46.7 64.55 47.05 64.55 47.2 64.5
L 47.15 64.55
Q 47.25 64.55 47.3 64.5
L 47.65 64.5
Q 47.75 64.55 47.85 64.5
L 47.95 64.45
Q 48.05 64.4 48.1 64.4 48.05 64.45 48.15 64.45
L 48.1 64.5
Q 48.2 64.45 48.3 64.5 48.4 64.5 48.55 64.5 48.65 64.5 48.7 64.55
L 48.75 64.55
Q 48.8 64.55 48.85 64.55
L 48.9 64.55
Q 49 64.6 49.25 64.6
L 49.4 64.55 49.45 64.55 49.5 64.55
Q 49.55 64.55 49.5 64.6
L 49.45 64.55 49.45 64.6
Q 49.55 64.65 49.7 64.6
L 49.65 64.55 49.75 64.55 49.75 64.6 49.85 64.6 49.85 64.55
Q 49.95 64.6 50 64.6
L 49.95 64.55 50 64.55 50.3 64.6
Q 50.25 64.55 50.35 64.55
L 50.35 64.6
Q 50.45 64.55 50.5 64.6 50.6 64.55 50.65 64.55
L 50.75 64.55 50.75 64.6 50.8 64.55
Q 51 64.55 51 64.6
L 51.15 64.55
Q 51.15 64.6 51.2 64.6 51.3 64.5 51.35 64.6 51.5 64.6 51.75 64.6 51.8 64.6 51.8 64.55 52.05 64.6 52.1 64.5
L 52.2 64.55 52.45 64.55
Q 52.5 64.55 52.55 64.5
L 52.6 64.5 52.6 64.55 52.65 64.5
Q 52.7 64.5 52.8 64.55
L 53.2 64.45 53.15 64.5
Q 53.2 64.55 53.3 64.5 53.45 64.5 53.5 64.5
L 53.55 64.5
Q 53.55 64.55 53.6 64.5
L 54.1 64.5
Q 54.15 64.5 54.1 64.45
L 54.3 64.45 54.25 64.4 54.5 64.45
Q 54.6 64.4 54.7 64.4
L 54.95 64.4 54.95 64.3
Q 55 64.2 55.05 63.95
L 55.1 64
Q 55.1 63.65 55.05 63.6 55.05 63.5 55.1 63.45 55.1 63.25 55.1 63.2 55.05 63.05 55.1 63.05 55.1 62.65 55.05 62.55
L 55.1 62.55
Q 55.1 62.5 55.05 62.4
L 55.05 62.1
Q 55.1 62 55.05 61.9 54.95 61.7 54.95 61.6 55 61.65 55 61.6
L 55.05 61.6
Q 55.05 61.5 55.05 61.45
L 55.05 61.4
Q 55.1 61.25 55.05 61.15 55.1 61.1 55.1 61
L 55.1 60.95
Q 55.05 60.9 55.1 60.85
L 55.1 60.8
Q 55.1 60.6 55.15 60.45
L 55.1 60.3 55.1 60.25 55.1 60.2
Q 55.1 60.15 55.15 60.2
L 55.1 60.25 55.15 60.25
Q 55.2 60.15 55.15 60
L 55.1 60.05 55.1 59.95 55.15 59.95 55.15 59.85 55.1 59.85
Q 55.15 59.75 55.15 59.7 55.1 59.8 55.1 59.7
L 55.15 59.4
Q 55.1 59.45 55.1 59.35
L 55.15 59.35
Q 55.2 59.35 55.15 59.25
L 55.15 59.2
Q 55.15 59.15 55.1 59.05
L 55.1 58.95 55.15 58.95 55.1 58.9
Q 55.1 58.7 55.15 58.7
L 55.1 58.55
Q 55.15 58.55 55.15 58.5 55.05 58.4 55.15 58.35 55.1 58.1 55.15 57.95 55.15 57.9 55.1 57.9 55.15 57.65 55.05 57.6
L 55.1 57.5 55.1 57.25
Q 55.05 57.2 55.05 57.15
L 55.05 57.1 55.1 57.1 55.05 57.05
Q 55.05 57 55.1 56.9
L 55 56.5 55.05 56.55
Q 55.05 56.35 55.05 56.2
L 55.05 56.15
Q 55.1 56.15 55.05 56.1
L 55.05 55.65 55 55.6 55 55.45 54.95 55.45 55 55.2
Q 54.95 55.15 54.95 55.05
L 54.95 54.9
Q 55.05 54.9 55.2 54.95
L 55.15 55
Q 55.2 55 55.25 55 55.35 55 55.4 55
L 55.55 55
Q 55.6 55 55.65 55
L 55.75 55
Q 55.85 54.95 55.85 55 55.9 55 55.95 55 56 55 56.05 55 56.1 55 56.15 55 56.25 55 56.3 55
L 56.35 55
Q 56.55 55 56.65 54.95
L 56.6 55
Q 56.7 55 56.75 54.95
L 56.8 54.95
Q 56.9 55 57 54.95
L 57.1 54.95
Q 57.2 55 57.3 54.95
L 57.4 54.9
Q 57.5 54.85 57.55 54.85 57.5 54.9 57.6 54.9
L 57.55 54.95
Q 57.65 54.9 57.75 54.95 57.8 54.95 57.85 54.95 57.9 54.95 57.95 54.95
L 58 54.95
Q 58.1 54.95 58.15 55
L 58.35 55
Q 58.4 55 58.45 55.05 58.5 55.05 58.6 55.05
L 58.85 55.05 58.85 55 58.9 55 58.95 55
Q 59 55 58.95 55.05
L 58.9 55 58.9 55.05
Q 58.95 55.1 59.1 55.1 59.15 55.1 59.25 55.05
L 59.3 55.05 59.3 55 59.35 55.05 59.45 55.05 59.4 55 59.5 55 59.7 55.05 59.75 55.05 59.75 55 59.8 55 59.8 55.05 59.85 55.05
Q 59.85 55 59.9 55.05
L 60 55.05
Q 60 55 60.05 55
L 60.2 55 60.2 55.05 60.25 55 60.3 55
Q 60.35 55 60.4 55 60.45 55 60.45 55.05
L 60.65 55.05 60.7 55
Q 60.7 55.05 60.75 55.05
L 60.9 55.05
Q 60.95 55.05 61.05 55.05 61.15 55.05 61.2 55.05 61.25 55.05 61.25 55 61.4 55.05 61.5 55 61.55 55 61.55 54.95
L 61.65 55 62 55 62 54.95 62.05 54.95 62.05 55 62.1 54.95 62.15 54.95
Q 62.2 54.95 62.25 55
L 62.45 55 62.45 54.95 62.65 54.9 62.6 54.95
Q 62.65 55 62.7 55
L 62.75 54.95 62.85 54.95
Q 62.95 54.95 63 54.95 63 55 63.05 54.95
L 63.55 54.95
Q 63.6 54.95 63.55 54.9
L 63.75 54.9 63.7 54.85 63.75 54.85 63.95 54.9 64.15 54.9 64.15 54.85 64.4 54.85 64.4 54.75
Q 64.45 54.65 64.5 54.4
L 64.55 54.45
Q 64.55 54.1 64.5 54.05 64.5 53.95 64.55 53.9 64.55 53.7 64.55 53.65 64.5 53.5 64.55 53.5 64.55 53.1 64.5 53
L 64.55 53
Q 64.55 52.95 64.5 52.85
L 64.5 52.55
Q 64.55 52.45 64.5 52.35 64.4 52.15 64.4 52.05 64.45 52.1 64.45 52.05
L 64.5 52.05
Q 64.5 51.95 64.5 51.9
L 64.5 51.85
Q 64.55 51.7 64.5 51.6 64.55 51.55 64.55 51.45
L 64.55 51.4
Q 64.5 51.35 64.55 51.3
L 64.55 51.25
Q 64.55 51.05 64.6 50.9
L 64.55 50.75 64.55 50.7 64.55 50.65
Q 64.55 50.6 64.6 50.65
L 64.55 50.7 64.6 50.7
Q 64.65 50.6 64.6 50.45
L 64.55 50.5 64.55 50.4 64.6 50.4 64.6 50.3 64.55 50.3
Q 64.6 50.2 64.6 50.15 64.55 50.25 64.55 50.15
L 64.6 49.85
Q 64.55 49.9 64.55 49.8
L 64.6 49.8
Q 64.65 49.8 64.6 49.7
L 64.6 49.65
Q 64.6 49.6 64.55 49.5
L 64.55 49.4 64.6 49.4 64.55 49.35
Q 64.55 49.15 64.6 49.15
L 64.55 49
Q 64.6 49 64.6 48.95 64.5 48.85 64.6 48.8 64.55 48.55 64.6 48.4 64.6 48.35 64.55 48.35 64.6 48.1 64.5 48.05
L 64.55 47.95 64.55 47.7
Q 64.5 47.65 64.5 47.6
L 64.5 47.55 64.55 47.55 64.5 47.5
Q 64.5 47.45 64.55 47.35
L 64.45 46.95 64.5 47
Q 64.5 46.8 64.5 46.65
L 64.5 46.6
Q 64.55 46.6 64.5 46.55
L 64.5 46.1 64.45 46.05 64.45 45.9 64.4 45.9 64.45 45.65
Q 64.4 45.6 64.4 45.5
L 64.4 45.25 64.35 45.25
Q 64.25 45.2 63.95 45.1 63.75 45.1 63.65 45.1
L 63.45 45.1
Q 63.4 45.1 63.3 45.1 63.2 45.1 63.15 45.1
L 63.2 45.05 63.05 45.1
Q 63.05 45.0515625 63.1 45.05 63.0484375 45.05 63 45.05 62.95 45.05 62.9 45.05 62.8 45.05 62.75 45.1
L 62.7 45.05
Q 62.6 45.05 62.5 45.1 62.45 45.1 62.4 45.1
L 62.2 45.15 62.25 45.1 61.95 45.1
Q 61.9 45.1 61.85 45.1 61.7 45.25 61.6 45.2
L 61.55 45.2 61.6 45.15 61.55 45.15
Q 61.45 45.1 61.4 45.15
L 61.4 45.1
Q 61.2 45.1 61.15 45.1 61.1 45.05 61.05 45.1
L 61 45.05 61 45.1 60.95 45.1
Q 60.95 45.05 60.9 45.05
L 60.85 45.05 60.9 45.1 60.85 45.1
Q 60.85 45.05 60.8 45.05 60.7 45.05 60.7 45.1
L 60.55 45.1
Q 60.5 45.05 60.45 45.05
L 60.4 45.05
Q 60.35 45.05 60.3 45.1
L 60.25 45.1 60.2 45.05
Q 60.15 45 60.1 45.05
L 59.95 45.05
Q 59.85 45 59.85 45.05 59.75 45 59.7 45.05 59.75 45.05 59.7 45.1
L 59.45 45.05
Q 59.4 45 59.3 45
L 59.3 45.05
Q 59.25 45 59.2 45
L 59.2 45.05
Q 59.1 45 59.05 45.05
L 59 45.05
Q 59.05 45.1 59 45.1
L 58.95 45.1 58.95 45.05 58.85 45.05
Q 58.8 45.05 58.75 45.05
L 58.6 45.05
Q 58.6484375 45.0484375 58.6 45
L 58.55 45.05 58.5 45.05
Q 58.548828125 45.048828125 58.5 45
L 58.45 45.05 58.35 45.1 58.3 45.05 58.15 45.05
Q 58.1 45.1 58.05 45.1 58.05 45.0515625 58.1 45.05 58.0484375 45.05 58 45.05 57.95 45.05 57.9 45.05
L 57.95 45.1
Q 57.85 45.05 57.8 45.05 57.7 45.05 57.65 45.1
L 57.25 45.1
Q 57.2 45.15 57.15 45.15 57.15 45.1 57.1 45.1
L 57.05 45.1 57.05 45.15 57 45.1 56.95 45.1 56.95 45.15 56.9 45.1 56.75 45.1 56.6 45.15 56.5 45.15 56.55 45.1 56.4 45.15
Q 56.35 45.1 56.3 45.1
L 56.2 45.1
Q 56.2 45.15 56.15 45.15 56.15 45.1 56.1 45.1
L 55.9 45.1 55.9 45.15 55.85 45.15
Q 55.8986328125 45.148828125 55.9 45.1
L 55.6 45.1 55.6 45.15 55.4 45.2 55.2 45.2
Q 55.05 45.25 54.95 45.25
L 54.95 45.15
Q 55 45.05 55.05 44.8
L 55.1 44.85
Q 55.1 44.5 55.05 44.45 55.05 44.35 55.1 44.3 55.1 44.1 55.1 44.05 55.05 43.9 55.1 43.9 55.1 43.5 55.05 43.4
L 55.1 43.4
Q 55.1 43.35 55.05 43.25
L 55.05 42.95
Q 55.1 42.85 55.05 42.75 54.95 42.55 54.95 42.45 55 42.5 55 42.45
L 55.05 42.45
Q 55.05 42.35 55.05 42.3
L 55.05 42.25
Q 55.1 42.1 55.05 42 55.1 41.95 55.1 41.85
L 55.1 41.8
Q 55.05 41.75 55.1 41.7
L 55.1 41.65
Q 55.1 41.45 55.15 41.3
L 55.1 41.15 55.1 41.1 55.1 41.05
Q 55.1 41 55.15 41.05
L 55.1 41.1 55.15 41.1
Q 55.2 41 55.15 40.85
L 55.1 40.9 55.1 40.8 55.15 40.8 55.15 40.7 55.1 40.7
Q 55.15 40.6 55.15 40.55 55.1 40.65 55.1 40.55
L 55.15 40.25
Q 55.1 40.3 55.1 40.2
L 55.15 40.2
Q 55.2 40.2 55.15 40.1
L 55.15 40.05
Q 55.15 40 55.1 39.9
L 55.1 39.8 55.15 39.8 55.1 39.75
Q 55.1 39.55 55.15 39.55
L 55.1 39.4
Q 55.15 39.4 55.15 39.35 55.05 39.25 55.15 39.2 55.1 38.95 55.15 38.8 55.15 38.75 55.1 38.75 55.15 38.5 55.05 38.45
L 55.1 38.35 55.1 38.1
Q 55.05 38.05 55.05 38
L 55.05 37.95 55.1 37.95 55.05 37.9
Q 55.05 37.85 55.1 37.75
L 55 37.35 55.05 37.4
Q 55.05 37.2 55.05 37.05
L 55.05 37
Q 55.1 37 55.05 36.95
L 55.05 36.5 55 36.45 55 36.3 54.95 36.3 55 36.05
Q 54.95 36 54.95 35.9
L 54.95 35.65 54.9 35.65
Q 54.8 35.6 54.5 35.5 54.2 35.5 54.15 35.5 54.05 35.5 54 35.5 53.95 35.5 53.85 35.5 53.75 35.5 53.7 35.5
L 53.75 35.45
Q 53.55 35.5 53.55 35.45 53.2 35.45 53.05 35.5
M 59.2 55
L 59.2 55.05 59.15 55.05 59.1 55 59.2 55 Z"/>
</g>
</defs>

<g transform="matrix( 1, 0, 0, 1, 0,0) ">
<use xlink:href="#Layer1_0_FILL"/>
</g>
</svg>
