
<svg xmlns="http://www.w3.org/2000/svg" version="1.1" xmlns:xlink="http://www.w3.org/1999/xlink" preserveAspectRatio="none" x="0px" y="0px" width="100px" height="100px" viewBox="0 0 100 100">
<defs>
<g id="Layer1_0_FILL">
<path fill="#000000" stroke="none" d="
M 57.35 62
Q 58.633984375 62.2212890625 59.8 62.6
L 64.95 62 57.35 62
M 43 68.05
Q 42.9 68.05 42.85 68.05 42.8 68.05 42.7 68.05
L 42.6 68.05 42.5 68.05
Q 42.15 68.05 41.9 68.15 41.7 68.25 41.7 68.35 41.7 68.45 41.9 68.55 42.15 68.65 42.5 68.6 42.575 68.625 42.65 68.65 42.75 68.65 42.85 68.65 42.9 68.65 43 68.7
L 48 68.95
Q 48.35 68.95 48.65 68.95 49.45 68.85 50.25 68.85 50.45 68.85 50.65 68.85 51.55 68.8 52.45 68.85 52.65 68.95 52.85 68.75 53 68.6 53.2 68.6 54.15 68.45 55.15 68.65 55.55 68.75 55.9 68.75 56.25 68.7 56.55 68.65 56.6 68.65 56.65 68.65 56.7326171875 68.65 56.8 68.65
L 57.85 68.25 56.8 68.05 56.65 68.05
Q 56.6 68.05 56.55 68.05 56.25 68 55.9 68 55.65 67.9 55.35 67.85 54.35 67.6 53.45 67.85 52.05 68.2 50.65 68.25 50.45 68.25 50.25 68.25 49 68.25 47.85 68.25 47.55 68.25 47.25 68.25
L 47.2 68.25
Q 46.35 68.2 45.35 68.05 44.65 67.95 43.95 67.95
L 43 68.05
M 43.45 68.25
L 43.95 68.2
Q 44.1 68.15 44.25 68.15 45.05 68.15 45.8 68.35 46.55 68.55 47.2 68.75
L 47.3 68.75
Q 47.4 68.8 47.5 68.85
L 43.45 68.25
M 46 64.95
L 45.8 64.95
Q 43.3 64.75 40.85 64.75
L 37.8 64.85 42.95 65.85
Q 43.24375 65.85 43.55 65.85 44.9 65.85 46.35 66
L 46.4 66
Q 46.55 66 46.7 66.05
L 46.65 66.05
Q 46.5 66.05 46.4 66.05
L 46.35 66.05
Q 44.95 65.9 43.55 65.9 43.24375 65.85625 42.95 65.85
L 39.85 66.5 40.55 66.45 40.65 66.45
Q 40.75 66.45 40.85 66.45 40.9 66.45 41 66.45
L 42.5 66.75
Q 43.75 66.55 45.3 66.85 46.05 66.95 46.7 67 47.4 67.05 48.1 67 48.65 66.85 49.3 66.85 49.85 66.75 50.5 66.8 50.7 66.8 50.9 66.85 51.3 66.85 51.75 66.95 52.45 67.05 53.15 67.15 53.35 67.15 53.55 67 53.8 66.8 54 66.7 54.2 66.5 54.4 66.35 54.6 66.2 54.65 66.3 54.9 66.65 55.35 66.75 55.8 66.75 56.35 66.75 57 66.65 57.6 66.55
L 57.65 66.55
Q 58.1 66.45 58.5 66.45 58.55 66.45 58.6 66.45 58.65 66.45 58.7 66.45
L 58.95 66.45 58.85 66.5 59.5 66.5 56.7 65.9
Q 56.107421875 65.89609375 55.6 65.85 55.5 65.8 55.45 65.6 55.5 65.75 55.65 65.75 56.2 65.75 56.9 65.7 57.394140625 65.6619140625 57.9 65.65
L 61.75 64.85 59.5 64.75
Q 59.327734375 64.7837890625 59.15 64.8 58.95 64.85 58.7 64.95 57.3 65.2 56.15 65.2 55.9 65.2 55.8 65.05 55.7 64.85 55.6 64.65 55.55 64.4 55.4 64.3 55.3 64.1 55 64.15 54.4 64.3 53.9 65.05 53.45 65.75 53.35 66.05 53.15 66.5 52.95 66.5 52.75 66.5 52.5 66.3 52.2 66.1 51.95 65.9 51.7 65.6 51.55 65.6 51.25 65.55 51 65.55 48.55 65.1 46 64.95
M 47.05 66.05
Q 47.25 66 47.45 65.95 47.65 65.85 47.95 65.95 48.75 66.05 49.5 65.9 50.25 65.75 51 65.9 51.1 65.9 51.25 65.95 51.55 66 51.75 66.2 52 66.35 52.2 66.55 51.6 66.35 50.95 66.25 50.25 66 49.5 66 48.3 66.05 47.05 66.05
M 54.75 64.75
L 54.8 64.75
Q 55 64.85 55.2 65.1 55.3 65.3 55.4 65.55 55.25 65.3 55.1 65.1 54.9 64.85 54.75 64.75
M 53.15 66.75
Q 52.95 66.8 52.65 66.75 52.9 66.75 53.15 66.6 53.3 66.45 53.45 66.25 53.65 66 53.85 65.7 54 65.35 54.3 65.05 54.4 64.8 54.6 64.8 54.4 64.85 54.3 65.15 54.1 65.45 53.95 65.9 53.75 66.2 53.55 66.45 53.35 66.65 53.15 66.75
M 53.95 66.4
Q 54.1 66.2 54.25 66.05 54.1 66.35 53.95 66.45
L 53.7 66.65
Q 53.8 66.55 53.95 66.4
M 38.05 63.15
L 38.15 63.1 38 63.1 38.05 63.15
M 38 63.75
Q 38.05 63.75 38.1 63.75 38.25 63.75 38.35 63.75 38.45 63.75 38.55 63.75
L 40.25 63.85
Q 41.1 63.85 42 63.85 42.9 63.65 44 63.75 44.75 63.75 45.6 63.8
L 45.65 63.8
Q 45.8 63.8 46 63.8 46.8 63.85 47.7 63.85 48.6 63.9 49.45 63.7
L 50.4 63.7
Q 50.7 63.75 51 63.7 51.15 63.7 51.25 63.7 51.55 63.6 51.8 63.7 52.25 63.75 52.5 64.1 52.7 64.45 52.65 65.2 53.2 64.4 54.05 63.75 55 63.15 55.7 63.3 57.4 63.4 59 63.6
L 63.4 63.3
Q 63.0376953125 63.2552734375 62.7 63.2 60.791796875 63 60.6 63 60.1 62.95 59.5 62.95 57.8 62.85 56.05 62.85 55.6 62.7 55.1 62.9 55.15 62.85 55.25 62.8 56.35 62.05 57.25 62
L 34.5 62 39.5 62.7
Q 39.8810546875 62.69921875 40.3 62.8 40.562890625 62.854296875 40.85 62.95 41.7 63.2 42.2 63 42.7 62.8 43.2 62.55 44 62.55 44.85 62.8 45.1 62.85 45.25 62.85 45.75 63 46.3 63.15 47.05 63.2 47.9 63.15 48.8 63 49.6 62.95 50.5 62.85 51.35 62.85 52.6 62.9 53.55 63.3 54 63.35 54.7 63.1 54.6 63.15 54.5 63.2 53.7 63.75 53.05 64.1 53.1 63.35 52.7 63.2 52.25 63 51.75 63.05 51.55 63.05 51.3 63.15 51.1 63.15 50.9 63.2 50.5 63.35 50.25 63.15
L 49.9 63.15
Q 49.8 63.25 49.6 63.3 48.25 63 46.95 63.3 46.3 63.4 45.45 63.3
L 45.4 63.3
Q 44.75 63.2 44.05 62.95 43.25 62.65 42.9 63 42.5 63.35 42 63.35 40.9 63.35 39.75 63.2
L 36.4 63.75 37.55 63.75 38 63.75
M 39.3 51.15
L 30.6 51.45 39.3 51.7
Q 40.2 51.85 41.15 51.8 42.1 51.75 43.05 51.75
L 43.65 51.75
Q 43.7 51.75 43.75 51.75 45 51.85 46.25 51.7 47.6 51.6 49 51.75
L 49.55 51.75
Q 49.65 51.75 49.75 51.75 49.85 51.75 50 51.7
L 50.55 51.7
Q 51.45 51.6 52.35 51.6 55.85 51.45 59.3 51.55 60.7048828125 51.59375 62.1 51.6
L 69.35 51.45 62.1 51
Q 60.775 51.022265625 59.45 51.05 57 51.05 54.5 51.1 53.45 51.1 52.35 51.1 51.45 51.1 50.6 51 50.5 51 50.4 51 50.25 51 50.2 51.05 49.9 51.05 49.65 51.1 49.35 51.15 49.15 51.15
L 48.7 51.15
Q 47.95 51.15 47.05 51.2 46.2 51.2 45.4 51.35
L 44.3 51.35
Q 44.05 51.3 43.8 51.3
L 43.8 51.25
Q 42.8 51.1 41.9 51.25 40.6 51.4 39.3 51.15
M 37.7 60.05
Q 37.55 60.05 37.5 60.05
L 35.5 59.65 32.55 60.05 35.7 60.05 37.3 60.45
Q 37.696484375 60.512109375 38.15 60.55 38.75 60.55 40 60.65
L 40.95 60.65
Q 42 60.65 43.05 60.65 43.6 60.65 44.15 60.65
L 44.2 60.65
Q 44.5 60.6 44.85 60.55
L 46.85 60.55
Q 49.1 60.45 51.3 60.55 51.7 60.55 52.05 60.55 55.9 60.65 59.7 60.2 59.85 60.2 60 60.2 60.15 60.2 60.3 60.3 60.5 60.3 60.7 60.25 60.85 60.2 61.05 60.2
L 66.25 60 60.55 59.7
Q 60.4 59.7 60.25 59.65 60.1 59.65 59.95 59.65 58 59.65 56.05 59.8 54.15 60 52.2 60 51.75 60 51.3 60 50.35 59.95 49.45 60.1 48.2 60.3 46.85 60.15
L 44.15 60.15
Q 43.55 60.2 42.9 60.05 42.15 59.9 41.4 60.05 41.3 60.05 41.2 60.05 41.05 60.05 40.95 60.15
L 40.45 60.15
Q 40.35 60.15 40.3 60.15 40.15 60.15 40 60.2 38.8 60.15 37.7 60.05
M 34.85 56.15
L 32 56.45 37.3 56.75
Q 37.6267578125 56.75 38 56.75 40 56.8 41.95 56.7 42.15 56.7 42.25 56.7 42.35 56.7 42.5 56.75
L 45.75 56.75
Q 46.35 56.75 46.8 56.75 47.35 56.75 47.85 56.7
L 48.3 56.7
Q 49.95 56.45 51.55 56.7 51.8 56.75 52.05 56.8 54.1 56.9 56.3 56.65 56.6 56.5 56.95 56.7 57.35 56.9 57.75 56.95 58.75 56.95 59.7 56.65 60.65 56.4 61.6 56.45
L 67.9 56.45 62.1 55.8
Q 62.025 55.8 61.95 55.8 61.65 55.8 61.45 55.8
L 61.05 55.8
Q 59.7 56.2 58.45 56.1 57.2 56 55.85 56 55.35 56 54.8 56.1 54.25 56.25 53.7 56.1 52.85 56.05 52.05 56.05 51.65 56 51.25 56 50.25 56.05 49.3 56.05
L 48.85 56.05
Q 48.15 56.1 47.4 56.25 46.65 56.4 45.9 56.25 45.8 56.25 45.6 56.2 45.5 56.1 45.35 56.1
L 43.15 56.1
Q 40.9 56.05 38.6 56.2 37.95 56.240625 37.3 56.25
L 34.85 56.15
M 33.7 58
L 31.6 58.3 36.8 58.85 37.3 58.75
Q 38.4111328125 58.7298828125 39.6 58.95 39.75 58.95 39.85 58.95 39.95 58.95 40.1 58.9 40.85 58.9 41.55 58.85 42.3 58.8 43.05 58.9
L 46.75 58.9
Q 47.25 58.95 47.7 58.95 48.2 58.95 48.65 58.95
L 49.2 58.95
Q 49.25 58.9 49.3 58.9 49.65 58.9 50.05 58.9 50.35 58.85 50.7 58.85 51.05 58.75 51.4 58.75 51.85 58.7 52.2 58.7 53.15 58.65 54 58.6 55.7 58.6 57.35 58.65 58.95 58.65 60.65 58.55 60.85 58.55 61 58.55 61.15 58.55 61.35 58.6 61.55 58.65 61.7 58.65 61.9 58.65 62.1 58.65
L 67.15 58.1 61.25 58
Q 61.1 58 60.95 58 60.75 57.95 60.55 57.95
L 56.45 58.1
Q 53.9 58.2 51.4 58.2 51.1 58.2 50.85 58.2 48.9 58.2 46.9 58.1
L 46.5 58.1
Q 46.25 58.2 46.05 58.2 45.85 58.2 45.65 58.2 45.5 58.1 45.4 58.1 45.3 58.1 45.15 58.1
L 42.7 58.1
Q 42.25 58 41.8 58.05 41.35 58.1 40.95 58.1 40.8 58.1 40.75 58.15 40.55 58.2 40.45 58.2 39.05 57.95 37.6 57.95 37.45 57.95 37.3 57.95
L 33.7 58
M 38.1 54.5
Q 38.2 54.5 38.35 54.5 38.45 54.55 38.65 54.55
L 39.1 54.55
Q 41.55 54.4 43.95 54.45 44 54.45 44.05 54.45 44.75 54.4 45.45 54.45 48.25 54.55 51.05 54.25 51.75 54.15 52.55 54.15 53.95 54.15 55.3 54.3 57.85 54.55 60.5 54.55 61.15 54.55 61.85 54.4 61.975 54.3732421875 62.1 54.35
L 69.45 54 62.1 53.65
Q 60.9064453125 53.7486328125 59.7 54 58.7 54.1 57.8 54 56.9 53.9 56 53.8 55.05 53.65 54.1 53.55 53.35 53.45 52.55 53.6 52.4 53.6 52.3 53.65 49.65 54.3 47.05 54.1 45.55 53.95 44.05 53.9 44 53.9 43.95 53.9 42.7 53.85 41.5 53.85
L 40.95 53.85
Q 40.85 53.85 40.75 53.9 39.571484375 53.8345703125 37.3 53.75
L 30.9 54 34.35 54.25 34.85 54.5 37.3 54.55
Q 37.694140625 54.5279296875 38.1 54.5
M 37.35 53.05
Q 37.5 53.1 37.6 53.1 37.75 53.1 37.9 53.1
L 38.95 53.1
Q 39.5 53.1 40.1 53.05 40.7 53.05 41.35 53.05
L 41.95 53.05
Q 43 53.2 44.05 53.25
L 44.1 53.25
Q 44.6 53.25 45.1 53.25 46.6 53.2 48.05 53.1 49.55 52.95 51 52.85 51.65 52.8 52.2 52.8 53.5 52.75 54.75 52.8 55.7 52.8 56.6 53.05 57.5 53.35 58.3 53.2 60.24375 52.8189453125 62.1 52.85
L 69.35 52.7 62.1 51.85
Q 61.82578125 51.85 61.55 51.85 60.8 52.15 59.9 52 57.1 51.9 54.5 51.9 53.4 51.9 52.2 51.95 51.2 52 50.25 52.1 50.15 52.1 50 52.1 49.9 52.15 49.75 52.15
L 49.3 52.15
Q 47.7 52 46.3 52.25 45.2 52.5 44.1 52.35
L 44.1 52.3
Q 43.75 52.2 43.35 52.1
L 42.1 52.1
Q 41.5 52.1 40.9 52.1 40.35 52.15 39.75 52.1
L 33.6 52.1 30.75 52.75 37.3 53.05 37.35 53.05
M 43.85 46.6
Q 43.45 46.55 43.1 46.55 41.7 46.55 40.55 46.3 39.8 46.2 39 46.65 38.15 47.075 37.3 47.15
L 33.4 46.5 30.5 47 37.3 47.5
Q 38.025 47.55 38.75 47.55 39.85 47.55 41 47.45 42.35 47.25 43.7 47.4 44.4 47.45 45 47.6 45.3 47.6 45.55 47.6 45.85 47.6 46.1 47.6 46.65 47.6 47.15 47.35
L 48.05 47.35
Q 49.95 47.2 51.9 47.25 54.2 47.2 56.5 47.3 59.2876953125 47.2646484375 62.1 47.3
L 68.95 47 62.1 46.65
Q 60.2806640625 46.706640625 58.4 46.55 57.3 46.35 56.2 46.5 55.15 46.65 54.1 46.75 52.95 46.75 51.9 46.7 51.7 46.65 51.65 46.65 50.75 46.55 49.95 46.45 48.85 46.4 47.7 46.45 46.5 46.55 45.35 46.55 44.55 46.6 43.85 46.6
M 40.9 49.25
Q 41.75 49.4 42.6 49.25 43.35 49.1 44.05 49.15
L 47.15 49.15
Q 48.65 49.05 50.1 49.25 51.15 49.4 52.2 49.4 52.75 49.4 53.25 49.4 55.5 49.4 57.65 49.55 57.978125 49.596875 58.2 49.6 55.2833984375 49.64921875 52.2 49.5 51.8 49.45 51.35 49.4 51.2 49.45 51.05 49.45 50.95 49.45 50.85 49.45 50.35 49.55 49.9 49.55 49.45 49.55 48.95 49.55 48.85 49.45 48.6 49.45 48.1 49.45 47.6 49.5 47.15 49.55 46.65 49.55
L 46.3 49.55
Q 46.25 49.55 46.05 49.55 46 49.55 45.85 49.6
L 45.35 49.6
Q 45.15 49.6 45.05 49.6 44.95 49.6 44.8 49.55 44.45 49.5 44.1 49.5 43.55 49.45 43 49.55 42.75 49.6 42.45 49.6 42.2 49.65 41.95 49.65 39.75 49.6 37.6 49.55 37.4494140625 49.55 37.3 49.55
L 30.95 50 31 50.1 38.2 50.1
Q 39 49.95 39.9 50.2 40.8 50.4 41.6 50.25
L 42.1 50.25
Q 42.85 50.15 43.65 50.1 43.8 50.05 44.05 50.1
L 44.1 50.1
Q 44.5 50.05 44.85 50.2
L 47.8 50.1
Q 47.95 50.1 48.05 50.1 48.2 50.1 48.3 49.95
L 48.8 49.95
Q 49.2 50.15 49.65 50.15 50.1 50.15 50.5 50.1 50.55 49.95 50.75 49.95 50.85 49.95 50.95 49.95 51.6 50.05 52.2 50.15 55.7 50.35 59.15 50.15 60.6318359375 50.0720703125 62.1 50.05
L 69.35 49.6 62.1 49.1 61.85 49.1
Q 57.5 48.7 53.1 48.75 52.7 48.75 52.2 48.8 49.65 48.85 47.15 48.8
L 44.85 48.8
Q 44.45 48.8 44.1 48.8 43.5 48.75 42.75 48.75 41.55 48.75 40.35 48.6
L 39.3 48.6
Q 37.9 48.75 37.6 48.7 37.4705078125 48.6814453125 37.3 48.7
L 30.85 49.4 37.6 49.25
Q 38.45 49.2 39.3 49.15
L 39.85 49.15
Q 40.2 49.15 40.35 49.25
L 40.9 49.25
M 43.75 46
Q 43.55 46 43.4 46 42.85 46.05 42.4 46 41.9 45.95 41.5 45.7 41.2 45.35 41.1 44.7 40.55 45.35 39.8 45.9 39.1 46.4 38.25 46.3 37.7716796875 46.26328125 37.3 46.2
L 30.65 46.15 37.95 46.6
Q 38.05 46.6 38.15 46.6 38.85 46.7 39.55 46.3 40.25 45.9 40.9 45.65 41.05 46.2 41.45 46.35 41.9 46.45 42.5 46.45 43.1 46.4 43.7 46.3
L 43.85 46.3
Q 44.2 46.2 44.5 46.35
L 45.3 46.35
Q 47.15 46.45 49 46.3 50.45 46.15 51.9 46.4 52.45 46.45 53.05 46.55 54.1 46.7 55.05 46.45 56.05 46.2 57 46.2 59.503515625 46.2962890625 62.1 46.35
L 68.8 46.15 62.1 45.8
Q 59.8951171875 45.765234375 57.65 45.9 54.7 46.1 51.85 46 51.25 45.95 50.65 45.9 48.1 45.6 45.6 45.95
L 44.3 45.95
Q 44.05 45.9 43.75 46
M 48.45 42.75
Q 47.3 42.8 46.15 42.95 45.1 43.1 44.05 42.95
L 44 42.95 39.75 42.55
Q 39.4 42.5 39.15 42.7 38.95 42.85 38.75 43.1 38.5 43.35 38.35 43.5
L 38.15 43.65
Q 37.7474609375 43.3482421875 37.3 43.15
L 31.1 43.7 36.55 44.3 31.95 44.35 30.95 44.6 37.3 44.85
Q 37.5390625 44.9833984375 37.75 45.3 38.1 45.85 38.75 45.75 39.3 45.65 39.55 45 39.8 44.3 39.9 43.95 40 43.4 40.35 43.4 40.6 43.4 41 43.6 41.4 43.8 41.8 44.15 42.2 44.4 42.45 44.45 43.1 44.5 43.85 44.6 47.85 45 51.85 45 52.15 45 52.5 45 57.2310546875 44.9169921875 62.1 44.9
L 67.5 44.9 68.5 44.65 66.25 44.35 68.1 43.35 66.35 43.1 61.05 42.95
Q 57.45 43.25 53.85 42.95 52.8 42.85 51.8 42.8 50.05 42.6 48.45 42.75
M 43.9 43.9
Q 43.95 43.9 44 43.9 44.75 43.9 45.55 43.95 47.55 43.95 49.6 43.95 49.25 44 48.95 44.05 48.65 44 48.35 44 46.85 43.95 45.6 44.1 44.8 44.2 44 44.15 43.4 44.05 42.75 44 42.35 43.9 42.05 43.75 41.7 43.5 41.35 43.35 42.55 43.7 43.9 43.9
M 54.15 44.05
Q 56.3 44.05 58.5 44.1 60.245703125 44.1 62.1 44.15
L 64.9 44.25 62.1 44.2
Q 60.26796875 44.15 58.5 44.15 56.35 44.1 54.15 44.05
M 39.65 43.7
Q 39.5 43.95 39.45 44.35 39.3 44.65 39.15 45 39 45.35 38.75 45.3 38.5 45.25 38.25 45.1 38 44.9 37.8 44.75 37.5 44.5 37.4 44.4 37.6 44.5 37.85 44.75 38.15 44.9 38.45 45.1 38.65 45.2 38.8 45.2 39.05 45.2 39.1 44.9 39.2 44.4 39.25 44.05 39.35 43.7 39.5 43.45 39.65 43.2 39.9 43.1 40.15 42.95 40.6 43.1 40.2 43 40 43.2 39.8 43.4 39.65 43.7
M 38.8 43.9
Q 38.75 43.45 38.9 43.4 39.15 43.15 39.25 43.1 38.95 43.45 38.8 43.9
M 50.55 41.8
Q 49.9 41.75 49.3 41.75 48.3 41.75 47.35 41.8
L 31.4 42.25 37.3 42.45
Q 38.2 42.5833984375 38.3 43.05 38.25 43.1 38.25 43.25 38.45 42.95 38.8 42.65 39.1 42.4 39.45 42.45 41.75 42.4 44 42.4
L 44.05 42.4
Q 44.65 42.35 45.2 42.35 47.65 42.3 50.3 42.45 51 42.5 51.8 42.55 53.4 42.55 55.05 42.55 57.75 42.5 60.65 42.6 60.8 42.5 61.05 42.55 61.2 42.55 61.45 42.55
L 68.05 42.25 62.1 41.95
Q 61.3189453125 41.95 60.55 41.95 57.85 41.95 55.2 41.85 53.5 41.8 51.75 41.8 51.15 41.8 50.55 41.8
M 48.65 39.45
L 48.25 39.45
Q 46.65 39.5 45 39.55 44.95 39.55 44.9 39.55 44 39.55 43 39.55 40.45 39.55 37.85 39.8 37.7 39.8 37.5 39.7 37.401953125 39.7 37.3 39.7
L 33.8 40.05 37.3 40.4
Q 37.4228515625 40.4576171875 37.55 40.5 37.7 40.5 37.85 40.5 38.5 40.5 39.05 40.45 40.6 40.35 42.2 40.15 43.55 39.95 44.9 39.9 44.95 39.9 45 39.9 45.05 39.85 45.2 39.85 46.5 39.75 47.75 39.9
L 48.25 39.9
Q 48.55 39.9 48.9 39.9 49.25 39.9 49.55 40.05
L 49.95 40.05
Q 50.85 40.05 51.75 40.05 54.35 40.05 56.9 40.1 59.5 40.1482421875 62.1 40.25
L 63.9 40.35 66.1 40.05 62.1 39.65
Q 61.6337890625 39.591015625 61.1 39.55 60.15 39.4 59.2 39.35 58.2 39.25 57.2 39.45 55.8 39.75 54.6 39.4 53.3 39.15 52 39.25 51.9 39.35 51.75 39.4
L 51.7 39.4
Q 51.6 39.4 51.5 39.4 50.8 39.45 50.05 39.45 49.35 39.45 48.65 39.45
M 50.2 37.75
Q 50.15 37.7 50.05 37.8 49.55 37.7 49.1 37.75 48.65 37.8 48.25 37.8
L 47.85 37.8
Q 46.2 37.85 44.55 37.9
L 44.5 37.9
Q 43.3 37.9 42.1 37.9 39.9 37.9 37.6 38 37.45 38 37.3 38
L 33.7 38.3 37.3 38.6
Q 37.469140625 38.5 37.6 38.5 38.55 38.45 39.55 38.45 41.4 38.4 43.35 38.35
L 43.95 38.35
Q 44.2 38.3 44.5 38.3
L 44.55 38.3
Q 45.15 38.2 45.75 38.25 46.6 38.25 47.55 38.4
L 48 38.4
Q 48.75 38.4 49.45 38.35 50.15 38.25 50.85 38.35
L 51.35 38.35
Q 52.75 38.35 54.1 38.55 55.4 38.75 56.8 38.4 57.65 38.2 58.5 38.3 59.35 38.4 60.2 38.5 60.8 38.55 61.4 38.65 61.6 38.65 61.8 38.65 61.9466796875 38.668359375 62.1 38.65
L 65.1 38.35 62.1 38.2
Q 61.741796875 38.25 61.4 38.25 60.75 38.2 60.05 38.05 58.5 37.7 56.8 37.9 56.2 37.9 55.65 38.1 55.15 38.35 54.55 38.2 53.95 38.05 53.25 37.95 52.65 37.9 52.05 37.8
L 50.45 37.8
Q 50.3 37.8 50.2 37.75
M 55.4 35.8
Q 53.15 36 50.95 36.15 49.8 36.2 48.65 36.2 46.85 36.2 45 36.05 44.15 35.95 43.2 35.85 42.55 35.85 41.95 36 41.35 36.1 40.75 36 40.25 36 39.7 36 39.1 36 38.85 36 38.6 36 38.5 36 38.4 35.95 38.35 36 37.85 36 37.3 36.05
L 35.2 36.55 37.3 37
Q 37.85 37 38.35 37
L 38.4 37
Q 38.45 37 38.5 37 38.6 37 38.75 37 39.4 36.95 40.05 36.9 41.55 36.9 43.05 37.25
L 43.8 37.25 43.9 37.2
Q 44 37.15 44.1 37.15 44.55 37.1 45 37.05 48 36.65 50.95 36.75 55.55 36.9 60.2 37 60.7 37 61.3 37 61.35 37 61.45 37
L 62.1 37 63.5 36.55 63.1 36.1 61.55 36.05
Q 61.5 36.05 61.45 36.05 61.4 36.05 61.3 36.05 60.7 36 60.2 36 59.8 35.95 59.45 35.95 58 35.85 56.4 35.8
L 55.4 35.8
M 50.95 36.35
Q 51.25 36.35 51.6 36.35 51.25 36.4 50.95 36.45 50.75 36.45 50.65 36.45 50.2 36.45 49.9 36.45 50.2 36.35 50.65 36.35 50.75 36.35 50.95 36.35
M 50.8 33
Q 50.85 32.95 50.95 32.95 53 33.25 55.05 33.3 56.075 33.3427734375 57.1 33.3
L 59.95 32.9 57.1 32.65
Q 55.98125 32.7 54.9 32.7 52.75 32.65 50.6 32.35
L 50.55 32.35
Q 50.5 32.35 50.4 32.35 50.35 32.4 50.35 32.45 50.25 32.65 50 32.7
L 49.9 32.75
Q 49.85 32.75 49.8 32.75
L 49.5 32.75
Q 48.25 32.7 47.05 32.5 46.6 32.45 46.25 32.4
L 46.2 32.4
Q 45.25 32.45 44.35 32.7 43.651953125 32.9205078125 42.9 32.95
L 39 32.95 42.9 33.3
Q 43.025 33.3232421875 43.15 33.35
L 43.8 33.35
Q 45.05 33.05 46.2 33.05 46.3 33.1 46.4 33.1 47.45 33.15 48.6 33.25 47.45 33.25 46.35 33.3 46.3 33.3 46.25 33.3
L 46.2 33.3
Q 44.95 33.35 43.7 33.55
L 43.4 33.55
Q 43.25 33.55 43.2 33.55 43.1 33.55 43.05 33.4 42.974609375 33.39453125 42.9 33.4
L 39.05 34.15 42.9 34.5
Q 42.95 34.5318359375 43 34.55 43.1 34.6 43.15 34.6 43.2 34.6 43.25 34.6
L 44.05 34.6
Q 44.65 34.4 45.2 34.3 45.7 34.2 46.2 34.3 46.25 34.35 46.35 34.35 46.4 34.35 46.45 34.35 46.55 34.4 46.6 34.4 46.9 34.4 47.15 34.45 47.4 34.55 47.7 34.55
L 47.95 34.55
Q 48.2 34.35 48.55 34.55
L 48.75 34.55
Q 48.85 34.55 48.9 34.45 48.95 34.4 49.05 34.4 49.2 34.35 49.25 34.55 49.35 34.7 49.5 34.85 49.75 34.85 49.95 34.7 50.2 34.55 50.4 34.4 50.55 34.4 50.6 34.35 51.8 34.7 52.9 34.7 54 34.7 55.2 34.35 55.4 34.3 55.7 34.45 55.95 34.6 56.2 34.65 56.63671875 34.65 57.1 34.6
L 59.95 33.7 57.1 33.4
Q 56.025 33.4140625 54.95 33.5 52.85 33.55 50.8 33
M 45.05 33.75
Q 45.25 33.75 45.55 33.8 45.3 33.8 45.1 33.8 44.55 33.9 43.95 34.05 44.5 33.8 45.05 33.75
M 42.95 34.15
Q 42.9296875 34.1095703125 42.9 34.05
L 42.85 34.05 42.9 34.05
Q 42.95078125 34.05 43 34.05 43.1 34.05 43.2 34.15
L 42.95 34.15
M 50.05 33.35
Q 49.9 33.4 49.8 33.4 49.6 33.4 49.35 33.35
L 49.95 33.35
Q 50 33.35 50.05 33.35
M 47.65 33.95
Q 47.35 33.95 47 33.9 47.35 33.9 47.65 33.9 48 33.9 48.3 33.95 48 33.95 47.65 33.95
M 55.3 32.2
Q 55.4 32.2 55.5 32.2 55.7 32.2 55.9 32.25
L 57.1 31.9
Q 56.7 31.4 56.05 31.75 55.95 31.7 55.9 31.75 55.7 31.75 55.5 31.75 55.4 31.75 55.3 31.75 54.85 31.75 54.45 31.65 54.2 31.55 53.95 31.7 53.65 31.9 53.4 31.9 53 31.8 52.75 31.45 52.5 31.05 52.2 31.05 51.65 30.95 51.15 31.35 50.7 31.65 50.25 31.65 50.2 31.6 50.15 31.6
L 49.95 31.6
Q 49.85 31.6 49.8 31.65 49.65 31.65 49.6 31.65
L 49.2 31.65
Q 48.4 31.55 47.65 31.6 47.3 31.6 47 31.65 46.5 31.65 45.95 31.6
L 45.8 31.6
Q 45.65 31.6 45.5 31.6 45.35 31.6 45.15 31.65
L 43.2 31.75
Q 43.032421875 31.75 42.9 31.75
L 42.85 31.75
Q 42.75 31.75 42.7 31.65 42.1 31.3 41.7 31.9
L 42.9 32.2
Q 43.032421875 32.2 43.2 32.2 43.3 32.2 43.4 32.2
L 43.45 32.2
Q 43.55 32.2 43.6 32.2 44 32.25 44.45 32.2
L 45.5 32.2
Q 46.25 32.45 47 32.45 47.2 32.4 47.35 32.35 48.2 32.2 49 32.25 49.05 32.25 49.1 32.25 49.15 32.2 49.2 32.2
L 49.35 32.2
Q 49.55 32.15 49.65 32.1 49.8 32.05 49.95 32.05 50.05 31.95 50.1 31.95
L 50.2 31.95
Q 50.2 31.9 50.25 31.9 51.1 31.55 51.9 31.7 52.75 31.9 53.7 32.05 53.9 32.15 54.1 32.05 54.25 31.95 54.45 32.05 54.85 32.15 55.3 32.2 Z"/>
</g>
</defs>

<g transform="matrix( 1, 0, 0, 1, 0,0) ">
<use xlink:href="#Layer1_0_FILL"/>
</g>
</svg>
