
<svg xmlns="http://www.w3.org/2000/svg" version="1.1" xmlns:xlink="http://www.w3.org/1999/xlink" preserveAspectRatio="none" x="0px" y="0px" width="100px" height="100px" viewBox="0 0 100 100">
<defs>
<g id="Layer1_0_FILL">
<path fill="#000000" stroke="none" d="
M 50.5 66.5
Q 50.35 66.9 50 67.7
L 50.35 67.5 50.3 67.65
Q 50.6 67.35 52.1 66.45
L 52.3 66.2
Q 53.15 65.55 53.5 65.2
L 53.5 65 53.6 64.85 53.7 64.65 53.65 64.6 53.85 64.4 54.4 64 54.45 64 54.55 63.9 54.75 63.9 56.85 64.3 57.15 64.4 57.25 64.4 57.25 64.45 57.7 64.5 58.5 64.75 59.5 65.2
Q 59.65 65.3 59.7 65.35
L 59.65 65.25 58.9 64.75 56.05 63.4 55.1 63.15 54.35 63.15 53.9 63.3 53.2 63.65 50.75 66
Q 50.55 66.15 50.5 66.5
M 64.95 60.3
L 65.15 60.15
Q 65.25 60.1 65.5 60.05
L 66.45 60 66.05 59.8 66.25 59.8
Q 65.9 59.7 65.45 59.65
L 64.65 59.65 64.3 59.8 64.2 59.8 64.15 59.85 64.05 59.85 63.6 60.15 63.4 60.45 63.4 60.95 63.45 60.95 63.5 61 63.85 61.95 63.85 62 63.9 62 64.1 62.35 64.35 62.6
Q 64.45 62.75 64.6 62.95 64.55 62.8 64.6 62.85
L 64.75 63.35 64.75 63.7
Q 64.65 64.1 64.3 64.5
L 63.85 64.95 63.85 65 63.8 65 63.2 65.55 62.8 65.75 62.3 65.75 62.05 65.65 61.3 65.25 60.85 64.9
Q 60.8 64.8 60.7 64.7
L 60.75 64.8 61.1 65.2 61.1 65.25 61.35 65.5 61.8 65.85 62.3 66.1 62.5 66.15 62.7 66.15 63.1 66.1 63.25 66.1 64.25 65.65 64.85 65.25 65 65.1
Q 65.15 65 65.4 64.75 65.55 64.55 65.85 64
L 65.85 63.9 65.9 63.65 65.9 63.4 65.95 63.35 65.9 63.15
Q 65.85 62.6 65.7 62.35
L 65.6 62 65.4 61.6 65.4 61.55 65.3 61.45 64.9 60.75 64.85 60.75 64.85 60.6 64.9 60.55 64.9 60.35 64.95 60.35 64.95 60.3
M 25.75 59.9
L 25.75 59.9
Q 25.751171875 59.88359375 25.75 59.85
L 25.75 59.9
M 26.6 59.3
L 26.75 59.3 26.55 59.2
Q 26.55 59.3 26.5 59.2 26.5 59.15 26.65 59.15
L 26.1 58.85
Q 26.05 58.9 25.85 58.85 25.35 58.75 25.35 58.8
L 25.5 58.9 26.05 59.15 26.15 59.15 26.6 59.3
M 38.15 58.1
L 38.1 58.05 37.65 57.35
Q 37.2 56.8 36.7 56.5
L 36.4 56.5 36 56.55 35.8 56.6 35.65 56.7 35.7 56.85 35.65 56.9 35.8 57.05 35.9 57.2 36 57.65
Q 36.1 57.7 36.15 57.65 36.25 57.8 36.45 58.15 36.55 58.15 36.8 58.1
L 36.9 58.15
Q 37.1 58.25 37.3 58.65
L 37.4 58.75 37.45 58.75 37.45 58.8 37.5 58.8 37.95 59 38.65 59.4
Q 38.7 59.4 38.75 59.5
L 38.3 58.5 38.2 58.2 38.15 58.15 38.15 58.1
M 25.85 60.05
L 25.9 60.15 26.05 60.25 25.85 60.05
M 32.45 53.7
L 32.5 53.6 32.6 53.5 32.75 53.1 32.9 52.9 32.45 53.2 32.45 53.15 32.5 53.05 31.5 54.1 31.1 54.65 31 55 30.95 55 30.95 55.35 31 55.6 31.1 55.8 31.35 56.9 31.65 57.55 31.95 57.9
Q 32.05 58.05 32.15 58.15
L 32.25 58.35 32.25 58.55 32.3 58.6 32.3 58.85 32.25 59.1 32.25 59.3 32 59.8
Q 31.85 60.05 31.55 60.3
L 31.35 60.4 31.3 60.45 31.3 60.5 31.1 60.55 31 60.65 30.7 60.8 29.65 61.1 29.25 61.15 29.2 61.15 29.1 61.2 28.55 61.2 28.35 61.15 28.25 61.15 27.4 60.95 26.05 60.25 26.95 60.9
Q 27.05 61 27.55 61.25
L 28.25 61.45
Q 28.45 61.55 28.6 61.55
L 28.85 61.55 28.95 61.6 29.9 61.6
Q 30.65 61.55 31.35 61.3 31.8 61.2 32 61
L 32.2 60.95 32.35 60.8 32.55 60.65
Q 33.05 60.25 33.25 59.7
L 33.45 59.1 33.45 58.95 33.5 58.9 33.45 58.15 32.95 56.65 32.9 56.55 32.4 55.2 32.4 55.15 32.35 55.1 32.35 54.9 32.3 54.8 32.3 54.75 32.25 54.65 32.25 54.55
Q 32.25 54.2 32.45 53.7
M 35.1 50.95
L 34.9 51 34.9 50.95
Q 34.85 50.95 34.1 51.05
L 34.1 51.15 33.85 51.2
Q 33.7 51.25 33.65 51.3 33.6 51.4 33.7 51.5 33.8 51.65 33.3 51.85 33.25 51.9 33.15 52.3
L 33.1 52.75
Q 33.1 52.8 32.9 52.95
L 33.75 52.45
Q 34.9 52.05 35.3 51.65 35.25 51.5 35.25 51.45
L 35.1 50.95
M 39.6 49.7
L 39.55 50.25 39.6 50.35 39.55 50.45 40.15 53.1
Q 40.3 53.5 40.6 54.4
L 41.4 56.1
Q 41.75 56.9 42.05 57.8 42.3 58.9 42.35 59.45
L 42.35 59.65 42.4 59.75 42.3 60.45 42.25 60.5 42.25 60.7 42.15 60.8 42.1 61
Q 42 61.2 41.75 61.6
L 41.55 61.8 41.55 61.85 41.25 62 41.25 62.05 41.1 62.1
Q 40.35 62.6 39.25 62.75
L 34.3 62.75 34.25 62.8
Q 33.85 62.8 33.4 62.95 33.05 63.1 32.8 63.35 32.6 63.5 32.45 63.85
L 32.35 64.4 32.6 64.95 33.6 65.8 35.55 66.65 36 66.7 36.1 66.7 36.2 66.75 37.05 66.55 37.6 66.3 36.5 66.55 36.15 66.6 35.8 66.6 35.75 66.55
Q 35 66.35 34.35 65.95
L 33.3 65.15
Q 33.05 64.9 33 64.65
L 32.9 64.55 32.9 64.45 32.95 64.4 32.95 64.2
Q 33 64 33.15 63.85 33.2 63.75 33.45 63.6 33.7 63.4 34.45 63.3
L 34.4 63.35 38.4 63.55
Q 39.55 63.55 40.55 63.3 41.55 63.05 42.05 62.65 42.3 62.5 42.55 62.3
L 42.9 61.9
Q 43.05 61.7 43.35 61.2
L 43.35 61.15 43.4 61.1 43.5 60.7 43.5 60.55 43.6 60.45 43.55 60.55 43.65 60.45 43.75 60 43.75 59.8
Q 43.95 59.35 43.9 58.85
L 43.9 58.75 43.35 57
Q 43.05 56.25 42.5 55.35
L 42.15 54.55 40.9 52.5
Q 40.5 51.9 40.3 51.4 40 50.8 39.85 50.15
L 39.85 50.4 39.8 50.5 39.65 50.05 39.7 49.9 39.6 49.7
M 67.3 47.5
Q 67.3 47.55 67.35 47.6 67.05 48.15 67.05 48.2
L 67.15 48.35
Q 67.2986328125 48.44921875 67.25 48.5 67.3 48.451171875 67.3 48.6 67.3 48.85 67.05 49.25 67.05 49.35 67.15 50.05
L 67.35 50.8 67.35 50.85 68.45 48.75
Q 68.75 48.1 68.8 47.55 68.7 47.4 68.65 47.3
L 68.2 46.7 68 46.85 68 46.75
Q 67.9 46.95 67.3 47.5
M 70.25 44.05
L 70.25 44.75 70.1 44.5
Q 70.3 45.2 70.35 46.5
L 70.35 48.35 70.4 48.4 70.4 48.7 70.5 49 70.3 53 70.25 53.05 70.25 53.15
Q 70.3 53.05 70.3 53.2
L 70.15 53.55 70.15 53.6 70.1 53.65 70.05 53.85 69.95 54 69.85 54.3 68.5 56.25 68.45 56.3 68.4 56.4 68 56.95
Q 67.8 57.15 67.3 57.85
L 66.95 58.65 66.9 58.7 66.9 58.85 66.85 58.95 66.85 59.15 66.9 59.25 67 59.55
Q 67.15 59.8 67.45 60.05
L 67.75 60.25 67.8 60.3 67.85 60.3 67.85 60.35 67.95 60.35 68 60.4 68.35 60.55 68.7 60.65
Q 68.9 60.7 69.45 60.8
L 69.95 60.8 70.05 60.75 70.2 60.75 70.9 60.65 71.95 60.3 72.15 60.2 72.6 59.9
Q 73.2 59.5 73.5 59.15 73.9 58.7 74.05 58.3 73.85 58.65 73.6 58.95 73.35 59.25 72.85 59.6
L 72.45 59.85 71.7 60.2 70.9 60.4
Q 70.3 60.45 69.75 60.45 69.45 60.45 69.2 60.35
L 68.45 60.1 67.95 59.65 67.75 59.35 67.75 59.05 67.8 58.95 67.8 58.9 67.85 58.8 67.9 58.75 68.1 58.4 69.4 56.75 69.45 56.7 69.45 56.65 69.55 56.55 70.2 55.7
Q 70.9 54.7 71.1 54.3
L 71.35 53.8 71.35 53.75 71.4 53.7 71.45 53.5 71.6 53.1 71.65 52.75
Q 71.85 52.25 71.9 51.15 72 50.1 71.95 49.6
L 71.8 47.95
Q 71.45 47.15 71.35 46.85 70.75 45.25 70.25 44.05
M 66.95 43.05
L 66.2 42.5
Q 66.15 42.4 66 42.4
L 65.05 42.25 64.95 42.2 64.65 42.2 64.75 42.35 64.65 42.35 64.75 42.45 65 42.65 65.2 43.2 65.35 43.25 65.5 43.55
Q 65.7 43.85 65.75 43.9 65.9 43.95 66.25 44
L 66.4 44.1 66.4 44.15 66.6 44.35 66.8 44.65 66.85 44.8 66.95 45 67.9 45.85 68.2 46.25 68.2 45.95
Q 68.2 45.7 68 45.15
L 67.8 44.4 67.55 43.9 67.45 43.75 67.45 43.7 67.4 43.7 67.4 43.65 67.3 43.55 66.95 43.05
M 65.75 32.75
L 65.7 32.75 65.45 32.9
Q 65.25 33.05 65.1 33.25
L 64.9 33.7 64.9 33.85 64.85 33.9 64.9 33.95 64.9 34 64.95 34.05 64.95 34.1 65 34.1 65 34.15 67.75 36.65 68.2 37.15 68.65 37.9 68.7 38.2 68.7 38.35 68.75 38.4 68.75 38.5 68.8 38.5 68.8 38.55 68.95 38.8 68.95 38.85 69.05 38.85
Q 69 38.95 68.95 39.05
L 68.55 39.5 68.3 39.7 68.75 39.6 68.7 39.65 68.65 39.75 69.3 39.4
Q 69.65 39.25 69.85 39.05
L 69.9 38.95 69.95 38.9 70.05 38.55 70.05 38.5 70.1 38.5 70.1 38.35 70.15 38.3 70.15 38.1
Q 70.25 37.9 70.05 37.8 69.95 37.3 69.85 37.05 69.7 36.65 69.35 36.35
L 69.15 36.2 68.9 36.1 68.5 35.85 68.6 35.95 66.3 34.15 65.8 33.9 65.7 33.8 65.7 33.7
Q 65.65 33.6 65.7 33.5
L 65.7 33.35 65.9 33 65.95 33 66.85 32.55 67.45 32.35
Q 67.5 32.35 67.55 32.3
L 65.95 32.65 65.9 32.7 65.75 32.75
M 42.85 35.8
Q 42.9 36.3 42.85 36.8
L 42.55 37.7 41.9 38.7 41.8 38.75 41.8 38.8 41.75 38.9 41.6 39 41.35 39.25 40.95 39.85
Q 40.6 40.25 39.7 41
L 38.8 41.9 38.85 38.75
Q 38.8 37.75 38.8 37.35
L 38.8 33.65 38.55 34.5 38.55 34.15 37.35 39.1 37.3 40.7 37.25 40.95 37.25 41.1 37.2 41.2 37.2 41.65 37.15 41.8 37.2 43.15 37.3 43.65 37 43.9
Q 36.3603515625 44.4595703125 35.4 45.15 35.108984375 44.2314453125 34.95 43
L 35 39.4 35.1 39.1 35.2 37.4 35.15 37.1 35.15 36.95 35.1 36.85 34.9 37.4 34.85 37.2 34.65 38.1 34.3 38.8 34.25 38.85 34.25 38.9 34.2 38.9
Q 33.7 39.85 33.45 40.5
L 33.4 41 33.45 41.15 33.4 41.3 33.4 41.65 33.35 41.8 33.3 42.5
Q 33.3 43.25 33.5 43.9
L 34 45 34.05 45.15
Q 34 44.9 34.05 45
L 34.35 45.85
Q 33.9388671875 46.137890625 33.45 46.45
L 31.4 47.95
Q 30.65 48.6 29.8 49.55 29.35 50.1 29.15 50.5
L 29 50.95 29 51.3 29.25 51.85 29.65 52.25
Q 30.2 52.6 30.75 52.8 30.9 52.85625 31.05 52.9
L 30.25 52.5 30.1 52.45
Q 29.7 52.15 29.45 51.8 29.35 51.45 29.35 51.4
L 29.35 51.05
Q 29.4 50.8 29.75 50.3
L 31.2 48.95 34.65 46.6 35.45 48.6
Q 35.8 49.45 37.45 51.85
L 39.55 54.85
Q 39.7 55 40.05 55.65
L 40.2 55.9 35.8 46.5 35.8 46.4 35.7 46.25 35.6 45.95 37.55 44.65 38.05 45.85
Q 37.9 45.4 38 45.6
L 38.85 47.8 39.9 49.35 39.95 49.45 39.95 49.5 40 49.5 40 49.55 41.05 50.7
Q 41.95 51.65 43.6 52.7 44.4 53.25 46.35 54.3
L 46.4 54.35 46 54.9
Q 45.45 55.5 45.2 56.05
L 44.85 56.75 44.8 57 44.75 57.05 44.75 57.95 44.8 58.1 44.8 58.25 45 58.9
Q 45.15 59.55 45.6 60.2
L 45.9 60.65 46.6 61.45 46.8 61.55 46.85 61.65 46.9 61.7 47.2 61.9 47.3 62.05 48.3 62.6
Q 48.2697265625 62.708203125 48.25 62.8
L 48.2 64.1 48.35 62.85
Q 48.386328125 62.7638671875 48.4 62.65 48.829296875 62.8541015625 49.15 62.9 49.65 63.05 50.05 63.05
L 50.3 63.1 50.4 63.1 50.45 63.05 50.85 63.05 50.95 63 51.35 62.9 52.55 62.25 53.55 61.5 53.75 61.25 53.55 61.45 52.75 62 51.55 62.6 50.9 62.8 50.75 62.8 50.75 62.85 50.25 62.85
Q 49.6 62.8 48.9 62.5 48.74921875 62.424609375 48.6 62.35 48.9521484375 61.7556640625 49.45 61.4
L 49.55 61.35 49.65 61.25 50.25 60.95 51.15 60.8
Q 51.7 60.8 51.95 60.85
L 52.35 60.85 52.55 60.9 52.75 60.9
Q 53 60.95 53.55 60.95
L 53.95 61 54.4 61 54.45 60.95 54.55 60.9 54.6 60.85
Q 54.85 60.6 54.75 60.35
L 54.65 60.15 54.5 60.05 54.45 60.05 54.4 60 54.3 59.8 54.2 59.25 53.9 55.35 54 55.15 54 55.1 54.05 55.05 54.25 54.55 54.65 54.1
Q 55 53.7 55.65 53.2
L 56.35 52.5 58.65 50.8 57.95 51 58.05 50.95 58.2 50.8 56.3 51.55
Q 55.45 51.85 54.6 52.3
L 53.25 53.55
Q 52.8 54.1 52.6 54.6
L 52.65 54.5 52.45 55.05 52.45 55.35 52.4 55.45 52.45 55.5 52.45 55.8
Q 52.54609375 56.328125 52.75 57.15 51.396484375 56.5232421875 50.15 55.9 48.7892578125 55.2078125 47.6 54.5 47.7935546875 54.3056640625 48 54.05
L 51.75 50.2 52.35 51.3
Q 52.4 51.5 52.5 51.75 52.2294921875 50.8705078125 51.95 50
L 53 48.95 53.05 48.95 53.05 48.9 53.1 48.85 54.25 47.5
Q 54.65 47.05 54.95 46.2
L 55.35 45.4 55.35 45.25 56.5 42.7
Q 56.35 42.75 56.15 43.05
L 55.8 43.45 55.95 43.1 54.8 44.9 54.65 45.1 54.65 45.15 54.6 45.15 54.6 45.2 54.4 45.45
Q 53.8 46.2 52.65 47.4
L 51.9 48.3 51.8 48.4 51.75 48.4 51.55 48.55
Q 51.448828125 48.2412109375 51.35 47.9
L 49.7 40.45 49.7 40.3 49.65 40.05 49.65 39.25
Q 49.55 38.7 49.55 38.5 49.5 38.15 49.6 36.4
L 49.3 36.85 49.3 36.65 48.4 38.75 48.2 39.4
Q 48.15 39.5 48.2 39.65
L 48.25 41.6 48.45 42.15
Q 48.45 42.2 48.65 42.7 48.85 42.85 48.95 43.2 48.9 42.85 49.1 43.5 49.4 44.5 49.8 46 50 46.8 50.95 48.75
L 51.1 49 50.5 49.55
Q 50.1712890625 49.8400390625 49.85 50.15
L 49.85 49.9 49.8 49.8 49.8 49.75 49.7 49.55 49.6 49.25 49.45 49.1 49.3 48.85 49.15 48.75
Q 48.95 48.5 48.3 47.85
L 46.45 46.3 45.75 45.45 45.5 45.05 45.45 44.95 45.45 44.85 45.35 44.65 45.35 43.5 45.3 43.35 45.3 43.3 45.25 43.3 46 41.15 45.6 41.55 45.65 41.35
Q 45.3 41.95 44.65 42.55
L 44.3 42.95 44.2 43 44.1 43.1 44.1 43.15 43.95 43.5 43.85 43.85
Q 43.8 44 43.9 44.3
L 43.85 44.45 43.85 44.75 43.9 44.9 43.9 45 44.05 45.45
Q 44.3 46.05 44.75 46.5
L 45.9 47.25 45.8 47.15 46.25 47.45 47.75 48.65 48.35 49.3
Q 48.7 49.7 48.75 49.85
L 48.85 49.95 48.85 50.05 48.9 50.05 48.9 51 48.85 51.1 48.85 51.15
Q 48.4181640625 51.72578125 47.7 52.7
L 47.5 52.8 47.1 52.8
Q 46.65 52.85 46.15 52.8 45.9 52.75 45.65 52.7 46.15 52.85 46.85 52.95
L 47.55 52.95 46.7 53.95
Q 45.965625 53.5158203125 45.3 53.05
L 43.4 51.55 43.15 51.4 40.95 49.1 40.4 48.35
Q 39.9 47.35 39.6 46.55 39.0962890625 45.155078125 38.9 43.65
L 39.1 43.45
Q 39.9 42.75 40.4 42.2
L 42.65 39.8 42.75 39.6 42.85 39.5 42.95 39.3 43 39.25 43.05 39.15 43.05 39.1 43.1 39.1 43.3 38.25
Q 43.5 37.5 43.4 36.65
L 43.15 35.75 43.05 35.5 43 35.45 42.9 35.25 42.95 35.8 42.9 35.95 42.9 35.8 42.85 35.8
M 52.35 57
L 52.75 57.2
Q 52.7919921875 57.22109375 52.8 57.25
L 52.8 57.05
Q 52.82578125 57.07578125 52.85 57.2 52.87578125 57.35859375 52.9 57.6
L 53.3 59.95
Q 53.15 59.95 52.95 59.95
L 52.3 59.95 52.2 60 51.95 60
Q 50.75 60.1 50 60.5
L 49.8 60.6 49.75 60.65 49.55 60.75 48.85 61.5
Q 48.5880859375 61.84921875 48.4 62.2 48.1142578125 62.0349609375 47.85 61.8
L 47.75 61.7 47.6 61.6 47.5 61.45 47.3 61.25 47.3 61.2 47.25 61.2 47.2 61.15 47 60.9
Q 46.35 60.05 46.15 59.15 45.9 58.4 45.9 57.3
L 45.9 57.05 45.95 56.9 46.15 56.5 46.7 55.7
Q 46.8666015625 55.466796875 47.4 54.8
L 49.35 55.75
Q 50.7 56.4 52.35 57
M 47.8 52.65
L 47.75 52.7 47.75 52.7 47.8 52.65
M 55.3 37
L 55.25 36.8
Q 55.25 36.4 55.35 36
L 55.35 36.05 55.85 34.75 55.35 35.4 55.4 35.1 54.9 35.9
Q 54.65 36.3 54.5 36.7
L 54.4 37.35 54.4 37.75 54.35 37.95 54.35 38.35 54.45 39.15 54.65 39.7 54.8 39.85 55.35 41.1 55.5 41.3 55.55 41.35 56.05 42.1
Q 56.4 42.5 56.7 42.8 56.9 43 57.4 43.4 57.75 43.7 57.95 43.95
L 57.9 43.85 58.1 44 58.15 44.1 59.4 45.65
Q 60.15 46.75 60.5 47.7
L 62 51.6 62 51.85 62.05 51.95 62.05 52.05 62.25 53.25 62.25 53.3 61.55 51.8 61.15 51.15
Q 60.65 50.6 60.4 50.35
L 58.9 48.35 58.75 48.1 58.75 48.25 58.8 48.4 58.8 48.7 58.65 48.45 60 51.9 60.05 51.95 60.05 52 60.15 52.1 60.3 52.35
Q 60.5 52.65 60.55 52.95
L 61.15 54.8 61.45 55.4 61.55 55.7 61.6 56 61.6 55.85 61.65 56 61.65 56.2 61.7 56.25 61.65 57.6
Q 61.55 58.85 61.45 59.45
L 61.05 62
Q 60.9 62.4 60.65 62.7 60.45 62.9 60.35 62.9
L 60.15 63 59.95 63
Q 59.7 62.95 59.5 62.8
L 59 62.55 58.25 61.9
Q 57.75 61.4 57.65 61.2
L 57.4 60.85 57.45 61 57.85 61.7 58.8 62.65
Q 58.9 62.75 59.15 62.9 59.5 63.15 59.6 63.15
L 59.65 63.2 59.8 63.25 59.85 63.3 60.25 63.3 60.65 63.25 60.9 63.1
Q 61.15 63 61.3 62.75 61.55 62.55 61.8 62.05
L 62.1 61.35 62.6 59.3
Q 62.8 58.1 62.9 56.65
L 62.9 55.45 62.85 55.25
Q 62.801953125 54.6263671875 62.5 53.9
L 62.6 53.3 62.45 50.65 62.4 50.4
Q 62.15 48.85 61.45 47.2
L 61.1 46.45 59.45 43.9 59.25 43.75 59.25 43.65 59.15 43.55 56.9 40.8 56.8 40.75 56.7 40.55 56.65 40.5 56.45 40.1
Q 56.05 39.5 55.8 38.6
L 55.7 38.35 55.55 38.1 55.3 37.15 55.3 37
M 51.1 35.1
Q 50.95 35 50.95 34.95
L 50.7 34.7 50.5 34.6 50.35 34.65 50.3 34.6 50.3 34.65 49.7 34.8
Q 49.6 34.8 49.7 34.85
L 49.4 35
Q 49.6 35.15 49.6 35.2 49.7 35.3 49.4 35.5 49.35 35.5 49.5 35.85
L 49.75 36.25 49.7 36.3
Q 49.8484375 36.1224609375 50.15 35.95 50.95 35.5 51.1 35.1
M 55.4 32.55
L 55.2 32.7
Q 55.6 32.5 56.15 32.4
L 56.55 32.4 56.7 32.45 56.95 32.45 57 32.5 57.4 32.6 57.75 32.75 58.15 33 58.15 33.05 58.2 33.05 58.2 33.1 58.35 33.2 58.35 33.25 58.55 33.4
Q 58.75 33.7 58.75 34.2
L 58.7 34.4 58.7 34.5 58.65 34.5 58.65 34.55 58.45 34.95 58.35 35.45 57.65 36.6
Q 57.4 36.9 57.3 37.15 57.05 37.5 56.95 37.85
L 56.95 38.15 56.9 38.2 56.9 38.55 56.95 38.55 56.95 38.75
Q 57 39.15 57.2 39.5 57.4 39.8 57.85 40.15
L 58.25 40.45 58.45 40.55 58.65 40.7 59.5 41.05 60 41.15 60.1 41.2 60.3 41.2 60.55 41.25 61.15 41.25 61.25 41.2 61.3 41.2 63.15 40.4
Q 63.45 40.25 64 40
L 61.25 41 61.1 41
Q 60.7 41 60.4 40.85 59.95 40.8 59.7 40.6
L 59.6 40.55 59.5 40.55 59.35 40.45 59.25 40.35 58.95 40.15 58.6 39.85 58.3 39.4
Q 58.05 39 58.05 38.5
L 58.05 38.15 58.1 38.05
Q 58.1 37.9 58.25 37.6
L 58.9 36.65 59 36.6 59 36.55 60.15 35 60.2 34.9 60.2 34.85 60.25 34.75 60.25 34.7 60.3 34.65 60.3 34.05 60.15 33.4
Q 59.95 33.05 59.7 32.75
L 59.5 32.55 59.4 32.5 59.25 32.4 59.2 32.35 59 32.25
Q 58.7 32.05 58.3 32 57.85 31.95 57.65 31.9
L 56.65 31.9 56.55 31.95 56.45 31.95 55.85 32.05 55.2 32.4 54.85 32.65 54.75 32.75 55.4 32.55 Z"/>
</g>
</defs>

<g transform="matrix( 1, 0, 0, 1, 0,0) ">
<use xlink:href="#Layer1_0_FILL"/>
</g>
</svg>
