
<svg xmlns="http://www.w3.org/2000/svg" version="1.1" xmlns:xlink="http://www.w3.org/1999/xlink" preserveAspectRatio="none" x="0px" y="0px" width="100px" height="100px" viewBox="0 0 100 100">
<defs>
<g id="Layer1_0_FILL">
<path fill="#000000" stroke="none" d="
M 60.7 35.6
Q 60.15 34.75 59.45 34.05
L 59.45 33.95
Q 58.75 33.5 57.85 33.2 55.75 32.85 53.75 32.8 52.1 32.5 50.35 32.5 50.15 32.5 49.9 32.5 48 33.05 46.25 33.2
L 44.75 34
Q 44.15 34.35 43.5 34.7 42.95 35 42.45 35.25 42.35 35.25 42.3 35.3
L 42.25 35.3
Q 42.1 35.2 42.05 35.1
L 42 35.1 42 35.05
Q 42.05 34.95 42 34.85 42 34.8 42 34.75 41.95 34.7 41.95 34.65 41.9 34.5 41.8 34.4 41.75 34.35 41.7 34.4
L 41.75 34.45 41.75 34.9
Q 41.7 34.8 41.7 34.7 41.65 34.65 41.6 34.65 41.55 34.6 41.5 34.6
L 41.45 34.6
Q 41.35 34.5 41.3 34.4 41.25 34.4 41.2 34.4
L 41.2 34.35
Q 41.15 34.35 41.15 34.4 41.1 34.4 41.1 34.45 41.05 34.45 41 34.45 41.05 34.55 41.05 34.7
L 41.05 34.75
Q 41 34.6 40.95 34.55
L 40.95 34.6 40.9 34.6 40.9 34.65
Q 40.8 34.6 40.75 34.6 40.7 34.6 40.7 34.65 40.7 34.7 40.7 34.75 40.5 34.75 40.3 34.8 40.2 34.9 40.15 35 40.05 35.05 40 35.15 40 35.2 39.95 35.3 39.95 35.35 39.9 35.4
L 39.9 35.45
Q 39.8 35.45 39.75 35.45 39.7 35.5 39.7 35.6 39.7 35.75 39.75 35.95 39.75 36 39.7 36.05 39.6 36 39.6 35.95
L 39.55 35.95
Q 39.5 35.85 39.45 35.8 39.35 35.9 39.3 36 39.25 36 39.25 36.05 39.25 36.1 39.3 36.2 39.35 36.35 39.3 36.5 39.3 36.45 39.15 36.4
L 39.2 36.45
Q 39.2 36.5 39.2 36.6
L 39.2 36.65
Q 39.1 36.65 39.1 36.7 39.1 36.75 39.15 36.9
L 39.1 36.9
Q 39.1 36.95 39.1 37 39 37 38.9 37 38.85 37.05 38.85 37.1 38.8 37.1 38.8 37.15 38.75 37.2 38.8 37.25 38.65 37.3 38.5 37.4 38.5 37.45 38.45 37.45 38.45 37.5 38.4 37.5
L 38.35 37.5 38.4 37.55 38.3 37.5 38.35 37.55
Q 38.25 37.65 38.15 37.75 38.05 37.9 37.95 38 37.2 38.35 36.5 38.7 36.45 38.65 36.4 38.7 35.9 39 35.4 39.3 34.65 39.85 33.9 40.45 33.85 40.5 33.85 40.55 33.8 40.55 33.8 40.6 33.5 40.9 33.4 41.65 33.3 42.2 32.95 42.7 32.85 42.85 32.8 43.15
L 32.75 43.2
Q 32.85 41.9 33.3 40.7 33.35 40.6 33.4 40.5 33.45 40.4 33.55 40.3 33.9 39.9 34.25 39.5
L 33.5 40.05 34.3 38.95 33.25 39.7 33.9 38.5
Q 32.95 39.35 32.6 40.55 32.25 41.65 32 42.8 31.65 44.55 31.3 46.3 31.2 46.7 31.1 47.1
L 31.5 42.65 31.15 43.6 31.3 42.8 31.25 42.85
Q 31.15 42.75 31.15 42.65
L 31.15 42.6
Q 31.15 42.45 31.15 42.35
L 30.7 44.45
Q 31.15 45.1 30.85 46.15
L 30.85 48.45 30.6 47.3
Q 30.65 50.25 30.55 52.9 30.65 53.7 30.8 54.5 31.15 56.3 32.15 57.75 32.35 58.1 32.6 58.4 32.7 58.55 32.8 58.75 32.85 58.85 32.9 59 33.1 59.3 33.3 59.65
L 32.65 58.95
Q 33.9 60.75 35.65 62.15
L 35.7 62.25
Q 35.9 62.35 36.1 62.55 36.1 62.6 36.2 62.6 36.25 62.7 36.4 62.75 37.85 63.6 39.35 64.4 39.85 65.25 40.55 65.95
L 40.55 66.05
Q 41.25 66.5 42.15 66.8 44.25 67.15 46.25 67.2 47.9 67.5 49.65 67.5 49.85 67.5 50.1 67.5 52 66.95 53.75 66.8
L 55.25 66
Q 55.85 65.65 56.5 65.3 57 65.05 57.55 64.75 57.6 64.75 57.75 64.7 57.9 64.8 57.95 64.9
L 58 64.9 58 64.95
Q 57.95 65.05 58 65.15 58 65.2 58 65.25 58.05 65.3 58.05 65.35 58.1 65.5 58.2 65.6 58.25 65.65 58.3 65.6
L 58.25 65.55 58.25 65.1
Q 58.3 65.2 58.3 65.3 58.35 65.35 58.4 65.35 58.45 65.4 58.5 65.4
L 58.55 65.4
Q 58.65 65.5 58.7 65.6 58.75 65.6 58.8 65.6
L 58.8 65.65
Q 58.85 65.65 58.85 65.6 58.9 65.6 58.9 65.55 58.95 65.55 59 65.55 58.95 65.45 58.95 65.3
L 58.95 65.25
Q 59 65.4 59.05 65.45
L 59.05 65.4 59.1 65.4 59.1 65.35
Q 59.2 65.4 59.25 65.4 59.3 65.4 59.3 65.35 59.3 65.3 59.3 65.25 59.5 65.25 59.7 65.2 59.8 65.1 59.85 65 59.95 64.95 60 64.85 60 64.8 60.05 64.7 60.05 64.65 60.1 64.6
L 60.1 64.55
Q 60.2 64.55 60.25 64.55 60.3 64.5 60.3 64.4 60.3 64.25 60.25 64.05 60.25 64 60.3 63.95 60.4 64 60.4 64.05
L 60.45 64.05
Q 60.5 64.15 60.55 64.2 60.65 64.1 60.7 64 60.75 64 60.75 63.95 60.75 63.9 60.7 63.8 60.65 63.65 60.7 63.5 60.7 63.55 60.85 63.6
L 60.8 63.55
Q 60.8 63.5 60.8 63.4
L 60.8 63.35
Q 60.9 63.35 60.9 63.3 60.9 63.25 60.85 63.1
L 60.9 63.1
Q 60.9 63.05 60.9 63 61 63 61.1 63 61.15 62.95 61.15 62.9 61.2 62.9 61.2 62.85 61.25 62.8 61.25 62.75 61.35 62.7 61.5 62.6 61.55 62.6 61.55 62.55 61.6 62.55 61.6 62.5
L 61.7 62.5 61.65 62.45
Q 61.75 62.35 61.85 62.25 61.95 62.15 62.1 62 62.8 61.65 63.5 61.3 63.55 61.35 63.6 61.3 64.1 61 64.6 60.7 65.35 60.15 66.1 59.55 66.15 59.5 66.15 59.45 66.2 59.45 66.2 59.4 66.5 59.1 66.6 58.35 66.7 57.8 67.05 57.3 67.15 57.15 67.2 56.9 67.2 56.85 67.25 56.85 67.15 58.1 66.7 59.3 66.65 59.4 66.6 59.5 66.55 59.6 66.45 59.7 66.1 60.1 65.75 60.5
L 66.5 59.95 65.7 61.05 66.75 60.3 66.1 61.5
Q 67.05 60.65 67.4 59.45 67.75 58.35 68 57.2 68.35 55.45 68.7 53.7 68.8 53.3 68.9 52.9
L 68.5 57.35 68.85 56.4 68.7 57.2 68.75 57.15
Q 68.85 57.25 68.85 57.35
L 68.85 57.4
Q 68.85 57.55 68.85 57.65
L 69.3 55.55
Q 68.85 54.9 69.15 53.85
L 69.15 51.55 69.4 52.7
Q 69.35 49.75 69.45 47.1 69.35 46.3 69.2 45.5 68.85 43.7 67.85 42.25 67.65 41.9 67.4 41.6 67.3 41.45 67.2 41.25 67.15 41.15 67.1 41 66.9 40.7 66.7 40.35
L 67.35 41.05
Q 66.1 39.25 64.35 37.85
L 64.3 37.75
Q 64.1 37.65 63.9 37.45 63.9 37.4 63.8 37.4 63.75 37.3 63.6 37.25 62.15 36.4 60.7 35.6
M 52.85 36.8
Q 53.45 36.8 54.1 36.85 56.65 38.2 58.7 40.55 59 40.85 59.25 41.25 59.4 41.45 59.6 41.7 59.55 41.65 59.5 41.6 59.25 41.3 58.95 41.05
L 59.25 41.25
Q 58.55 40.5 57.7 39.9 57.35 39.6 57 39.4 56.9 39.3 56.8 39.25 56 38.65 55.15 38.2 55 38.1 54.85 38 53.85 37.4 52.85 36.8
M 52.65 35.1
Q 52.2 34.9 51.75 34.7 51.3 34.55 50.9 34.45 50.75 34.4 50.6 34.4 51.25 34.15 51.9 33.95
L 51.95 33.95
Q 52.9 33.95 53.8 34.15 54.35 34.35 54.85 34.5 55.45 34.5 56.25 34.7 56.4 34.75 56.55 34.75 58.3 35.4 59.8 36.25 59.8 36.3 59.85 36.35 58.9 35.9 57.85 35.65 57.15 35.35 56.45 35.2 55.85 35.05 55.25 34.9 55.45 35 55.6 35.1 58.1 35.75 60.45 37.2 60.95 38.1 61.45 39.15 61.6 39.45 61.8 39.75 61.85 39.8 61.85 39.85 56.45 34.75 57.1 35.95
L 56.7 35.75
Q 54.65 35.15 52.65 35.1
M 47.6 35.95
Q 47.8 36 48.05 36.05 46.75 36.5 45.45 36.95 43.05 37.9 40.95 39.65 40.7 39.9 40.4 40.1 39.55 40.8 38.95 41.25 38.2 41.8 37.45 42.4
L 37.75 41.95
Q 37.55 42.2 37.25 42.5 37 42.75 36.75 43.05 37.35 41.35 38.75 40.1 39.35 39.6 39.85 39.05 43.2 35.9 47.6 35.95
M 50.15 36.85
Q 50.2 36.8 50.25 36.8 50.4 36.9 50.6 37 50.7 37.1 50.9 37.15 51.85 37.7 52.8 38.4 51.4 38.15 49.9 37.95 48.75 37.8 47.75 38.1 46.55 38.35 45.4 38.6 47.7 37.5 50.15 36.85
M 48.3 43.25
Q 48.8 42.95 49.3 42.65 49.45 42.6 49.6 42.5 49.8 42.6 50.05 42.8 49.5 43.15 49 43.55 48.65 43.35 48.3 43.25
M 47.5 41.8
Q 47.35 41.9 47.15 42 46.15 42.8 45.15 43.65 44.35 43.9 43.55 44.2 42.95 44.4 42.5 44.9 41.6 46 41.4 47.3 41.3 47.45 41.25 47.6 41.25 47.05 41.35 46.5 41.55 45.5 41.7 44 41.7 43.85 41.75 43.75 42 43.15 42.55 43 43.1 42.75 43.65 42.5 44 42.35 44.4 42.25 44.45 42.2 44.55 42.15
L 43.25 42.35
Q 43.3 42.3 43.4 42.25 43.7 42.15 43.95 42.1 45.8 41.5 47.5 41.8
M 47.5 39.5
Q 47.6 39.45 47.75 39.4 49.55 39 51.05 39.8 51.3 39.95 51.6 40.1 50 40.45 48.5 41.2 46.8 40.9 45.05 41.15 46.25 40.3 47.5 39.5
M 41.55 41.65
Q 41.05 41.95 40.55 42.3 41.1 41.7 41.9 41.2 42.6 40.8 43.45 40.45 42.5 41.05 41.55 41.65
M 42.65 48.15
Q 42.75 47.9 42.9 47.7 43.85 49.55 45.15 50.75 45.1 51.35 45.1 51.95 44.7 51.9 44.25 51.8 43.8 51.65 43.45 51.3 43.25 51.15 43.15 50.95 42.55 49.6 42.65 48.15
M 44.5 47.4
Q 44.45 47.3 44.45 47.25 44.65 46.95 45.15 46.3 45.5 45.75 46 45.3 46.45 44.95 47.15 45.05 46.75 45.4 46.35 45.8 46.3 45.85 46.25 45.95 46.1 46.05 46.05 46.25 46.05 46.3 46.05 46.35 45.6 46.5 45.35 46.75 44.9 47.3 44.85 47.9 44.65 47.65 44.5 47.4
M 48.15 46.35
Q 48.2 46.25 48.3 46.25 48.45 46.55 48.7 46.95 48.65 47 48.65 47.05 48.45 46.75 48.3 46.5 48.25 46.4 48.15 46.35
M 50.35 44.45
Q 50.4 44.35 50.45 44.3 50.75 44.05 51.05 43.85 51.3 44.15 51.55 44.45 51.75 44.65 51.9 44.9 51.45 45.05 50.95 45.3 50.9 45.35 50.8 45.35 50.75 45.35 50.7 45.4 50.45 45 50.2 44.6 50.25 44.5 50.35 44.45
M 49.4 45.25
Q 49.65 45.5 49.85 45.9 49.65 46.05 49.5 46.2 49.3 45.85 49.1 45.5 49.25 45.4 49.4 45.25
M 46.35 49.35
Q 46.45 49.35 46.65 49.3
L 47.15 48.75
Q 47.2 47.85 46.8 47.9 46.95 47.65 47.1 47.45 48.05 48.45 47.45 50 46.9 50.15 46.45 49.9 46.35 49.85 46.3 49.8 46.3 49.55 46.35 49.35
M 49.9 47.1
Q 50.05 46.95 50.2 46.85 50.4 47.45 50.6 48.05 50.45 48.15 50.35 48.25 50.15 47.65 49.9 47.1
M 48.5 47.2
Q 48.45 47.25 48.4 47.3 48.35 47.4 48.3 47.5 48.25 47.45 48.25 47.4 48.05 46.95 47.75 46.7 47.9 46.55 48.05 46.4 48.35 46.7 48.5 47.2
M 49.1 48.2
Q 49.15 48.15 49.15 48.1 49.35 48.75 49.55 49.55 49.55 49.6 49.55 49.65 49.65 50.1 49.45 50.55 49.35 50.75 49.2 50.95
L 49.2 51
Q 49.1 50.7 49.1 50.4 49.15 50.25 49.2 50.1 49.4 49.6 49.3 49.05 49.25 48.6 49.1 48.2
M 59.8 39.9
Q 59.6 39.65 59.45 39.45 59 38.9 58.5 38.45 59.95 39.55 61.3 40.85
L 61.4 40.95
Q 60.6 40.45 59.8 39.9
M 58.45 42.7
Q 58.5 42.8 58.55 42.9 59.15 43.7 59.65 44.6 58.45 43.25 56.8 42.6 56.1 41.7 55.3 41.05 55.85 40.9 56.35 41.05 57.4 41.85 58.45 42.7
M 53.8 39.65
Q 53.95 39.7 53.75 39.8 53.55 39.65 53.4 39.6 53.6 39.6 53.8 39.65
M 51.05 42.2
Q 50.85 42.05 50.7 42 51.95 41.5 53.25 41.25 53.5 41.45 53.75 41.7 53.65 41.65 53.6 41.65 52.25 41.55 51.05 42.2
M 55 43.35
Q 55.3 43.45 55.65 43.55 55.75 43.65 55.9 43.8 55.95 43.85 56 43.95 55.25 43.75 54.3 44.05
L 54.85 44.1
Q 54.15 44.2 53.4 44.4 52.95 43.75 52.45 43.25 53.65 42.95 55 43.35
M 54.1 45.45
Q 54.8 45.25 55.45 45.1 55.8 45.2 56.1 45.35 56.55 45.6 56.85 45.95 57.35 46.55 57.7 47.25 57.85 47.95 57.9 48.75 57.7 48.35 57.45 48 56.75 46.9 55.6 46.7 55.15 46.7 54.7 46.75 54.65 46.7 54.65 46.65 54.4 46 54.1 45.45
M 51.3 43.75
Q 51.45 43.9 51.6 44.05 51.4 43.9 51.2 43.8 51.25 43.75 51.3 43.75
M 51.2 46.35
Q 51.25 46.3 51.3 46.3 51.95 46.1 52.55 45.85 52.85 46.4 53.15 47.05 52.4 47.2 51.7 47.5 51.5 46.9 51.2 46.35
M 51.95 48.55
Q 51.9 48.4 51.9 48.3 52.05 48.25 52.25 48.25 52.85 48.1 53.5 48.05 53.5 48.2 53.55 48.35 53.45 48.3 53.4 48.3 52.55 48.2 51.95 48.55
M 52.25 48.9
Q 52.15 49 52.05 49.05 52 48.9 52 48.75 52.3 48.55 52.75 48.5 53.2 48.5 53.6 48.6 53.65 48.8 53.65 49 53.5 48.9 53.3 48.8 53.25 48.8 53.2 48.75 52.65 48.65 52.25 48.9
M 50.8 49.05
L 50.85 49.05
Q 50.9 49.3 50.95 49.6 50.85 49.75 50.8 49.9 50.6 50.4 50.7 50.95 50.75 51.4 50.9 51.85
L 50.9 51.9
Q 50.65 51.25 50.45 50.45
L 50.45 50.4
Q 50.55 49.95 50.55 49.5 50.65 49.25 50.8 49.05
M 54.9 49.3
Q 54.9 48.7 54.9 48.1 55.3 48.1 55.75 48.2 56.2 48.35 56.55 48.7 56.75 48.85 56.85 49.05 57.45 50.4 57.35 51.85 57.25 52.1 57.1 52.3 56.1947265625 50.5373046875 55 49.4 55.3962890625 49.7859375 55.7 50.35
L 54.85 49.6
Q 54.85 49.45 54.9 49.3
M 60.1 47.1
Q 60.4 47.95 60.65 48.75 60.7 51.65 60.6 54.55 60.2 55.15 59.7 55.6 59.65 55.65 59.6 55.7 59.75 54.75 59.8 53.8
L 59.8 53.75
Q 60.4 51.35 59.75 49 59.45 48 59 47.1 58.7 45.75 58.05 44.55 58.9 45.25 59.5 46 59.9 46.5 60.1 47.1
M 63.25 39.8
Q 62.9 39.2 62.55 38.6 63.7 39.35 64.8 40.2 65 40.3 65.15 40.5 66.5 42.3 67.2 44.65 67.75 46.55 68 48.45 68.1771484375 49.779296875 68.25 51.05 68.25 50.9716796875 68.25 50.9 68.25 50.8 68.2 50.7 68 49.45 67.7 48.15 67.6 47.75 67.4 47.45 67.35 46.95 67.15 46.5 66.85 45.75 66.45 45 65.5 43.45 64.6 41.9 64.55 42 64.5 42.1 64.5 42.05 64.45 41.95 63.9 40.8 63.25 39.8
M 64.25 48.2
Q 64.15 47.95 64.05 47.7
L 65.1 49.55
Q 65.1 49.5 65.05 49.4
L 65.05 49.35
Q 65.1 49.35 65.15 49.4
L 65.95 50.85
Q 66 50.85 66 50.8 64.9 47.75 62.85 45.2 62.55 44.6 62.3 44.05
L 62.3 44.1
Q 61.45 42.3 60.25 40.55 60.9 41.05 61.5 41.55 63.55 43.25 64.7 45.35 66.2 48.2 66.75 51.3 66.55 53.5 66.15 55.7 66.1 55.85 66 56 65.95 56.1 65.95 56.15 65.8 53.05 64.7 50.2 64.65 50.05 64.65 49.9 64.55 49 64.25 48.2
M 62.2 49.2
L 62.2 47.95
Q 62.9 49.5 63.5 51.15 63.6 51.45 63.7 51.8 63.65 51.85 63.65 51.95 63.6 52.2 63.6 52.45 63.4 51.75 63.05 51.05 62.65 50.1 62.2 49.2
M 37.3 38.75
Q 36.35 39.75 35.45 40.8 35.05 41.3 34.55 41.75 34.55 41.55 34.6 41.4 34.65 41.35 34.65 41.3 34.7 41.2 34.75 41.15 34.95 40.85 35.2 40.6 36.2 39.65 37.3 38.75
M 36.75 41.75
Q 37.55 40.45 38.55 39.6 37.05 41 36.45 43.05 36.35 43.3 36.3 43.6 36.1 43.9 35.9 44.25 36.05 42.95 36.75 41.75
M 34 41.25
Q 34.05 41.1 34.1 41
L 35 40.3
Q 34.2 40.95 34.1 42.15 33.8 42.4 33.5 42.6
L 33.55 42.55 33.95 42.05
Q 33.8 42.15 33.65 42.3 33.8 41.75 34 41.25
M 34.5 43.3
Q 34.7 43.05 35 42.9 35.2 42.75 35.35 42.65 35.15 43.2 35 43.7 34.7 44.75 34.75 45.8 34.75 46 34.85 46.4 34.9 46.7 34.95 46.95 34.75 46.1 34.6 45.2 34.45 44.25 34.5 43.3
M 34 44
Q 34.05 43.9 34.1 43.85 34.2 46.95 35.3 49.8 35.35 49.95 35.35 50.1 35.45 51 35.75 51.8
L 35.75 51.8 35.85 52.05
Q 35.9 52.15 35.95 52.3
L 34.9 50.45
Q 34.9 50.5 34.95 50.6
L 34.95 50.65
Q 34.9 50.65 34.85 50.6
L 34.05 49.15
Q 34 49.15 34 49.2 35.1 52.25 37.15 54.85 37.45 55.4 37.7 55.95
L 37.7 55.9
Q 38.55 57.7 39.75 59.45 39.1 58.95 38.5 58.45 36.45 56.75 35.3 54.65 33.8 51.8 33.3 48.7 33.45 46.5 33.85 44.3 33.9 44.15 34 44
M 31.7 48.7
Q 31.719140625 48.7884765625 31.75 48.85 31.75 49 31.75 49.1 31.75 49.2 31.8 49.25 32 50.5 32.3 51.85 32.4 52.25 32.6 52.55 32.65 53.05 32.85 53.5 33.15 54.25 33.55 55 34.5 56.55 35.4 58.1 35.45 58 35.5 57.9 35.5 57.95 35.55 58.05 36.1 59.2 36.75 60.2 37.1 60.8 37.5 61.45 36.3 60.65 35.2 59.8 35 59.7 34.85 59.5 33.5 57.7 32.8 55.35 32.25 53.45 32 51.55 31.807421875 50.105859375 31.7 48.7
M 39.4 45.45
Q 39.8 44.85 40.3 44.4 40.35 44.35 40.4 44.35 40.25 45.25 40.2 46.2
L 40.2 46.25
Q 39.6 48.65 40.25 51 40.55 52 41 52.95 41.3 54.25 41.95 55.45 41.1 54.75 40.5 54 40.1 53.5 39.9 52.9 39.6 52.05 39.35 51.3 39.3 48.35 39.4 45.45
M 36.8 48.15
Q 36.6 47.7 36.5 47.25 36.7 46.1 37.15 45.15 37.5 44.45 38 43.85 37.75 44.4 37.7 45 37.45 46.75 37.8 48.45
L 37.8 50.6
Q 37.3 49.4 36.8 48.15
M 36.45 47.55
Q 36.6 48.25 36.95 48.95 37.35 49.85 37.8 50.8
L 37.85 52.1
Q 37.05 50.5 36.5 48.85 36.4 48.55 36.3 48.25 36.35 48.15 36.35 48.05 36.4 47.8 36.45 47.55
M 38.7 59.15
L 38.6 59.05
Q 39.4 59.55 40.25 60.15 40.4 60.35 40.55 60.55 41 61.1 41.5 61.6 40 60.45 38.7 59.15
M 38.55 60.85
Q 38.4 60.55 38.2 60.25 43.546875 65.244140625 42.9 64.05
L 43.3 64.25
Q 45.35 64.85 47.4 64.95 47.8 65.1 48.25 65.3 48.7 65.45 49.1 65.55 49.25 65.6 49.4 65.6 48.75 65.85 48.1 66.05
L 48.05 66.05
Q 47.1 66.05 46.2 65.85 45.65 65.65 45.15 65.5 44.55 65.5 43.75 65.3 43.6 65.25 43.45 65.25 41.7 64.6 40.25 63.75 40.2 63.7 40.15 63.65 41.1 64.1 42.15 64.35 42.85 64.65 43.55 64.8 44.15 64.95 44.75 65.1 44.55 65 44.4 64.9 41.85 64.25 39.6 62.8 39.05 61.9 38.55 60.85
M 68.25 52.15
Q 68.2763671875 51.965234375 68.3 51.8
L 68.25 53.15
Q 68.25 52.9 68.25 52.7 68.25 52.4 68.25 52.15
M 65.25 54.2
Q 65.25 54 65.15 53.6 65.1 53.3 65.05 52.95
L 65.05 52.9
Q 65.25 53.85 65.4 54.8 65.55 55.75 65.55 56.75 65.3 56.95 65 57.1 64.8 57.25 64.65 57.4 64.85 56.8 65 56.3 65.3 55.25 65.25 54.2
M 62.3 55
Q 62.55 53.25 62.25 51.6
L 62.2 49.45
Q 62.7 50.65 63.2 51.85 63.4 52.3 63.55 52.8 63.3 53.9 62.85 54.85 62.5 55.55 62.05 56.2 62.25 55.6 62.3 55
M 63.7 56.4
Q 63.9 56.1 64.1 55.8 63.95 57.05 63.25 58.25 62.45 59.55 61.45 60.4 62.95 59 63.55 56.95 63.65 56.7 63.7 56.4
M 65.5 58.3
Q 65.45 58.45 65.4 58.6 65.35 58.65 65.35 58.7 65.3 58.8 65.25 58.85 65.05 59.15 64.8 59.4 63.8 60.35 62.75 61.3 63.65 60.25 64.55 59.2 64.95 58.7 65.5 58.3
M 61.05 58.75
Q 61.8 58.2 62.55 57.6
L 62.25 58.05
Q 62.4310546875 57.8189453125 62.75 57.5 63 57.25 63.25 57 62.65 58.65 61.25 59.9 60.65 60.4 60.15 60.95 56.8 64.1 52.4 64.05 52.2 64 52 64 53.25 63.5 54.55 63.05 56.95 62.1 59.05 60.35 59.3 60.1 59.6 59.9 60.45 59.2 61.05 58.75
M 66.5 57.45
L 66.05 57.95
Q 66.2 57.85 66.4 57.75 66.2 58.25 66 58.75 65.95 58.9 65.9 59
L 65.1 59.6
Q 65.8 58.95 65.95 57.9 66.2 57.6 66.5 57.4
L 66.5 57.45
M 57.5 55.1
Q 58.4 54 58.65 52.7 58.7 52.55 58.8 52.45 58.75 52.95 58.65 53.5 58.45 54.5 58.3 56 58.3 56.15 58.25 56.25 58 56.85 57.45 57 56.9 57.25 56.35 57.5 56 57.65 55.6 57.75 55.55 57.8 55.45 57.85
L 56.8 57.65
Q 56.7 57.7 56.6 57.8 56.3 57.85 56.05 57.9 54.2 58.5 52.5 58.2 52.65 58.1 52.85 58 53.85 57.2 54.9 56.35 55.7 56.1 56.45 55.8 57.05 55.6 57.5 55.1
M 53.55 50.1
Q 53.65 50.15 53.7 50.25 53.7 50.45 53.7 50.65 53.55 50.65 53.35 50.7
L 52.85 51.25
Q 52.8 52.15 53.2 52.15 53.05 52.35 52.9 52.55 51.95 51.55 52.55 50 53.1 49.85 53.55 50.1
M 52.25 53.35
Q 52.1 53.45 51.95 53.6 51.65 53.3 51.5 52.85 51.55 52.75 51.6 52.7 51.65 52.6 51.75 52.55
L 51.75 52.6
Q 51.95 53.05 52.25 53.35
M 51.7 53.5
Q 51.75 53.6 51.85 53.7 51.8 53.75 51.75 53.8 51.55 53.45 51.35 53.05 51.35 53 51.4 53 51.55 53.25 51.7 53.5
M 53.65 54.2
Q 53.85 54 53.95 53.75 53.95 53.7 54 53.65 54.4 53.5 54.65 53.25 55.1 52.7 55.15 52.1 55.35 52.35 55.5 52.6 55.55 52.7 55.55 52.75 55.35 53.05 54.85 53.7 54.5 54.25 54 54.7 53.55 55.05 52.85 55 53.25 54.6 53.65 54.2
M 52.5 60.5
Q 52.4 60.55 52.3 60.65 50.45 61 48.95 60.2 48.7 60.05 48.4 59.9 50 59.55 51.5 58.8 53.25 59.1 55 58.9 53.75 59.7 52.5 60.5
M 51 56.5
Q 51.35 56.65 51.75 56.8 51.2 57.05 50.7 57.35 50.55 57.4 50.45 57.5 50.2 57.4 49.95 57.25 50.5 56.85 51 56.5
M 58.45 58.35
Q 58.95 58.05 59.45 57.75 58.9 58.3 58.1 58.8 57.4 59.2 56.6 59.55 57.5 58.95 58.45 58.35
M 49.45 51.95
Q 49.55 51.85 49.65 51.75 49.85 52.35 50.1 52.95 49.95 53.05 49.8 53.15 49.6 52.55 49.45 51.95
M 46.7 51.2
Q 46.75 51.2 46.8 51.25 47.35 51.35 47.75 51.1 47.85 51 48 51 48 51.1 48.05 51.3 47.7 51.45 47.25 51.5 46.8 51.5 46.4 51.4 46.35 51.2 46.35 51.05 46.5 51.1 46.7 51.2
M 46.55 52
Q 46.5 51.8 46.45 51.65 46.5 51.7 46.6 51.7 47.45 51.8 48.05 51.5 48.05 51.6 48.1 51.7 47.95 51.75 47.75 51.75 47.15 51.9 46.55 52
M 47.45 54.15
Q 47.15 53.6 46.9 53 47.6 52.8 48.35 52.55 48.5 53.1 48.8 53.7 48.75 53.7 48.7 53.7 48.05 53.9 47.45 54.15
M 50.15 54.1
Q 50.35 53.95 50.55 53.85 50.7 54.15 50.9 54.5 50.75 54.6 50.6 54.75 50.35 54.45 50.15 54.1
M 48.45 55.55
Q 48.25 55.35 48.1 55.15 48.55 54.95 49.05 54.7 49.1 54.65 49.2 54.65 49.25 54.65 49.3 54.6 49.55 55 49.85 55.4 49.75 55.5 49.65 55.55 49.6 55.65 49.55 55.7 49.25 55.95 48.95 56.15 48.7 55.85 48.45 55.55
M 44.3 49.65
L 45.15 50.4
Q 45.15 50.55 45.15 50.7 44.65 50.3 44.3 49.65
M 42.1 51.25
Q 42.3 51.65 42.55 52 43.25 53.1 44.4 53.3 44.85 53.3 45.3 53.25 45.35 53.3 45.35 53.35 45.6 54 45.9 54.6 45.2 54.75 44.55 54.9 44.2 54.8 43.9 54.65 43.45 54.4 43.15 54.05 42.65 53.45 42.35 52.75 42.15 52.05 42.1 51.25
M 45 56.65
Q 44.7 56.55 44.4 56.5 44.25 56.35 44.1 56.2 44.05 56.15 44 56.1 44.75 56.25 45.7 55.95
L 45.15 55.9
Q 45.85 55.85 46.6 55.65 47 56.25 47.55 56.75 46.3 57.05 45 56.65
M 41.55 57.3
Q 41.5 57.2 41.45 57.1 40.85 56.3 40.4 55.45 41.55 56.75 43.25 57.4 43.9 58.3 44.7 59 44.15 59.1 43.65 59 42.6 58.15 41.55 57.3
M 40.85 58.9
Q 41.25 59.25 41.65 59.55 40.8974609375 58.9384765625 40.25 58.15 40.3888671875 58.2888671875 40.5 58.4 41 59 41.8 59.6 41.9 59.65 42.1 59.9 42.6 60.5 43.4 60.8 43.65 60.95 43.9 61.1 44.55 61.55 45.15 62 46.15 62.65 47.2 63.25 46.6 63.25 46.05 63.25 42.85 61.7 40.85 58.9
M 48.4 55.95
Q 48.6 56.1 48.8 56.25 48.75 56.25 48.75 56.3 48.55 56.1 48.4 55.95
M 49 57.85
Q 49.15 57.95 49.3 58.05 48.05 58.5 46.75 58.75 46.5 58.55 46.25 58.35 46.35 58.35 46.4 58.35 47.75 58.45 49 57.85
M 46.2 60.35
Q 46.05 60.3 46.3 60.25 46.4 60.35 46.55 60.45 46.35 60.4 46.2 60.35
M 50.5 63.05
Q 50.15 63.2 49.8 63.25 49.6 63.1 49.4 63 49.3 62.9 49.1 62.85 48.15 62.3 47.2 61.65 48.6 61.85 50.1 62.05 51.25 62.2 52.3 61.9 53.4 61.65 54.55 61.45 52.55 62.35 50.5 63.05 Z"/>
</g>
</defs>

<g transform="matrix( 1, 0, 0, 1, 0,0) ">
<use xlink:href="#Layer1_0_FILL"/>
</g>
</svg>
