
<svg xmlns="http://www.w3.org/2000/svg" version="1.1" xmlns:xlink="http://www.w3.org/1999/xlink" preserveAspectRatio="none" x="0px" y="0px" width="100px" height="100px" viewBox="0 0 100 100">
<defs>
<g id="Layer1_0_FILL">
<path fill="#000000" stroke="none" d="
M 60.6 72.4
L 60.7 72.35
Q 60.6333984375 72.3814453125 60.75 72.25
L 60.65 72.25 60.55 72.35 60.55 72.4 60.5 72.4 59.9 72.8 60.05 72.75 59.85 72.9 59.8 72.95 59.7 73 59.75 73 59.85 72.95 60.55 72.45 60.6 72.45 60.6 72.4
M 60.6 72.25
L 60.65 72.25 60.7 72.2 60.6 72.25
M 60.7 72.1
L 60.65 72.1 60.75 72.1 60.7 72.1
M 57.45 74.1
L 57.5 74.1 57.6 74.05 57.45 74.1
M 55.6 50.2
L 55.6 50.2 55.65 50.2 55.6 50.2
M 60.25 51.7
L 60.25 51.5 59.95 51.55 59.95 51.55 60.15 51.65 60.15 51.6 60.25 51.7
M 60.8 72.1
L 60.85 72.05 60.8 72.05 60.75 72.1 60.8 72.1
M 61.25 71.55
L 61.1 71.8 61.65 71.1 61.25 71.55
M 61.8 71.15
L 61.9 71.05 61.95 70.95 61.8 71.15
M 64.15 64.65
L 64.15 64.8 64.25 64.6 64.15 64.65
M 64.3 64.1
L 64.25 64 64.25 63.9
Q 64.203125 64.040625 64.2 64.15
L 64.2 64.45 64.25 64.55 64.25 64.6 64.25 64.7 64.3 64.65 64.3 64.1
M 62.45 57.35
L 62.45 57.5 62.45 57.4 62.45 57.35
M 39.6 73.2
L 39.25 72.9 39.15 72.85 39.6 73.2
M 39.2 72.85
Q 39.1765625 72.83828125 39.15 72.8
L 39.25 72.9 39.2 72.85
M 37.3 71.55
L 37.3 71.55 37.55 71.55 37.3 71.55
M 37.55 71.55
L 37.6 71.55 37.55 71.5 37.55 71.55
M 35.75 64.3
Q 35.75 64.5232421875 35.8 64.65
L 35.75 64.15 35.75 64.3
M 59.1 46.8
L 59.1 46.8 59.1 46.95
Q 59.1 47.05 59.05 47
L 59 47.2 59.05 47.1
Q 59.077734375 47.127734375 59.05 47.2
L 59.1 47.1 59.1 47.15 59.15 46.95
Q 59.1166015625 46.907421875 59.1 46.8
M 58.1 48.6
L 58.05 48.65 58 48.75 58.1 48.6
M 59.25 46.2
Q 59.24375 46.05625 59.2 46.1
L 59.2 46.45 59.15 46.6 59.15 46.7 59.2 46.65 59.25 46.65 59.25 46.75 59.35 46.5 59.35 46.4 59.3 46.45 59.3 46.4 59.25 46.4 59.3 46.2 59.25 46.2
M 52.9 49.2
L 53 49.25 52.9 49.15 52.9 49.2
M 52.8 49.15
L 52.75 49.15 52.9 49.3 52.95 49.25 52.8 49.15
M 51.2 44.95
L 51.1 45.05 51.1 45.15 51.4 44.85 51.2 44.95
M 53.4 42.85
L 53.4 42.85 53.5 42.8 53.4 42.85
M 51.85 44.2
L 51.85 44.25 52 44 51.85 44.2
M 52.65 42.3
L 52.65 42.2 52.65 42.25 52.65 42.3
M 52.65 42.3
L 52.65 42.35 52.6 42.6 52.55 42.6 52.35 43.4 52.35 43.35 52.25 43.55 52.3 43.35 52.2 43.65 52.2 43.55 52.05 44 52.1 43.95 51.95 44.15 51.95 44.1 51.9 44.25 51.9 44.3
Q 51.85 44.35 51.85 44.25
L 51.7 44.4 51.8 44.35
Q 51.85 44.35 51.6 44.6 51.65 44.6 51.65 44.65
L 51.6 44.7 51.65 44.7 52.05 44.15 52.1 44.05 52.15 44 52.15 44.05 52.45 43.4
Q 52.7 42.9 52.75 42.35
L 52.75 42.15 52.7 42.25 52.65 42.3
M 52.55 42.35
L 52.55 42 52.5 42.15 52.5 42 52.45 42.15 52.5 42.25 52.5 42.4
Q 52.5478515625 42.256640625 52.55 42.35
M 51 38.55
L 51.05 38.55 50.85 38.5 51.05 38.6 51 38.55
M 51.05 38.5
L 51.1 38.55 51.3 38.6 51.15 38.5 51.05 38.5
M 53.3 37.4
L 53.35 37.45 53.35 37.4 53.3 37.35 53.3 37.4
M 53.4 37.4
L 53.4 37.3
Q 53.3 37.2 53.3 37.25
L 53.35 37.3 53.35 37.35 53.4 37.4
M 58.7 47.7
L 58.65 47.7
Q 58.6626953125 47.724609375 58.65 47.75
L 58.7 47.7
M 58.7 43.9
L 58.75 43.9 58.75 43.95 58.9 44.15
Q 58.95 44.15 58.85 43.95
L 58.7 43.8
Q 58.7 43.85 58.65 43.85
L 58.7 43.9
M 53.5 42.9
L 53.5 42.9 53.55 42.9
Q 53.75 42.7 53.55 42.8
L 53.55 42.85 53.3 43 53.25 43.05 53.25 43.1 53.3 43.05 53.45 42.95 53.4 43 53.5 42.95 53.5 42.9
M 56.5 42.5
L 56.4 42.4 56.55 42.45 56.45 42.35 56.5 42.35 56.45 42.35 56.4 42.3 56.4 42.3 56.3 42.25 56.2 42.25 56.15 42.2 56 42.2 55.95 42.2 55.9 42.25 55.85 42.2 55.9 42.25 55.85 42.3 55.85 42.3 55.8 42.3
Q 55.8 42.35 55.7 42.3
L 55.05 42.3 54.8 42.35 54.9 42.3 55.4 42.2 55.45 42.2
Q 55.25 42.15 55 42.2
L 54.9 42.2 54.85 42.25
Q 54.95 42.25 54.85 42.3
L 54.7 42.3 54.65 42.35 54.7 42.35 54.5 42.4 54.55 42.35 54.65 42.3 54.45 42.35
Q 54.5 42.3 54.4 42.3
L 54.2 42.4 54.25 42.35 54 42.45 53.75 42.6 53.9 42.55 53.85 42.6 53.8 42.75 53.65 42.8 53.65 42.85 53.55 42.95 53.35 43.1 53.3 43.1 53.3 43.15 53.15 43.25 53.25 43.1 53.2 43.1 53.2 43.05 52.75 43.5 52.75 43.55 52.6 43.65 52.35 43.9 52.4 43.9 52.3 44 52.2 44.3 52.25 44.1 52.25 44.05 52.15 44.2 52.1 44.25 52.1 44.2 52 44.35 52 44.4 51.95 44.45 51.95 44.5 51.9 44.65 51.85 45.05 51.8 45.2
Q 51.8 45.1 51.75 45.1
L 51.75 45.4
Q 51.7 45.45 51.7 45.35
L 51.65 45.7 51.65 45.8 51.6 45.95 51.55 46 51.55 46.25 51.6 46.2 51.6 46.1 51.65 46.25 51.65 46.15 51.7 46.1 51.7 45.95 51.75 45.8 51.75 45.75 51.7 45.85 51.7 45.5 51.75 45.45 51.75 45.5
Q 51.75 45.6 51.8 45.45
L 51.85 45.6 51.8 45.9 51.8 45.85 51.75 46 51.75 46.15
Q 51.75 46.35 51.8 46.2
L 51.8 46.45
Q 51.8 46.6 51.7 46.4
L 51.7 46.55 51.7 46.7 51.75 46.75 51.75 46.95 51.95 47.35 52 47.4 52 47.55
Q 51.95 47.6 51.95 47.45
L 51.9 47.55 51.85 47.4 51.9 47.45 51.75 47.2 51.75 47.35 51.8 47.4 51.85 47.6 51.9 47.65 51.9 47.85 52.05 48.25
Q 52.0849609375 48.25 52.05 48.15
L 52.1 48.25 52.1 48.2 52.15 48.3 52.1 48.15 52.2 48.35 52.25 48.35 52.35 48.45 52.45 48.6 52.4 48.55 52.55 48.85
Q 52.6 48.8 52.75 49 52.7978515625 49.065234375 52.7 49
L 52.8 49.1
Q 52.7546875 49.05 52.8 49.05 52.9 49.05 52.85 49
L 52.7 48.9 52.95 49.05 53 49.15 53.1 49.25 53.35 49.45
Q 53.4 49.5 53.45 49.5
L 53.65 49.65 53.55 49.55 53.8 49.65
Q 53.75 49.65 53.75 49.7
L 53.8 49.75 54.1 49.9 54.4 49.95 54.7 50.05 54.65 50.05
Q 55.05 50.15 55.15 50.1
L 55.35 50.1
Q 55.35 50.1494140625 55.05 50.15 55.146875 50.1515625 55.05 50.2
L 55.15 50.2 55.4 50.15 55.45 50.15 55.6 50.1 55.75 50.1
Q 55.9 50.1 56.2 49.95 56.25 49.9 56.1 49.95
L 56.35 49.85 56.25 49.9
Q 56.2978515625 49.9478515625 56.4 49.85
L 56.3 49.95 56.7 49.8 56.75 49.8 56.85 49.75 57.2 49.45 57.35 49.35 57.4 49.35 57.8 48.95 57.85 48.95 57.95 48.8 57.95 48.75 58 48.6 58.05 48.55 58 48.55 58.05 48.5 58.1 48.3 58.1 48.35 58.15 48.35 58.15 48.4 58.4 48 58.65 47.7 58.65 47.7
Q 58.733203125 47.5794921875 58.75 47.45
L 58.8 47.45 58.85 47.3 58.8 47.4
Q 58.85 47.2482421875 58.85 47.15
L 58.9 47.1 58.85 47.3 58.9 47.15
Q 58.926171875 47.0716796875 58.95 47 59.0587890625 46.6564453125 59.1 46.45
L 59.1 45.75
Q 59.05703125 45.362890625 59 45.1
L 59.1 45.6 59.15 45.65 59.2 45.65 59.2 45.7 59.25 45.45
Q 59.3 45.5 59.3 45.45
L 59.2 45.25 59.25 45.25 59.2 45.2
Q 59.2 44.95 59.25 45.1
L 59.25 44.95 59.2 44.95 59.2 44.7 59.15 44.5 59.05 44.4 58.95 44.25 58.7 44 58.7 43.95 58.65 43.95 58.6 43.9 58.65 43.9 58.55 43.85 58.45 43.75
Q 58.5 43.75 58.65 43.9 58.65 43.853125 58.4 43.65 58.5064453125 43.7435546875 58.55 43.7
L 58.45 43.6 58.7 43.8 58.45 43.55 58.5 43.55
Q 58.4484375 43.5484375 58.4 43.5 58.25 43.3 58.15 43.2
L 57.85 42.95 57.8 42.9 57.75 42.9 57.55 42.75 57.55 42.7 57.3 42.65 57.4 42.75 57.1 42.6 57.15 42.65 57.05 42.65 56.85 42.55 56.8 42.55 56.5 42.5
M 56.35 42.4
L 56.35 42.4 56.4 42.4 56.35 42.4
M 55.85 42.4
L 55.9 42.35 55.95 42.35 55.95 42.4 55.85 42.4
M 56.2 42.25
L 56.15 42.3 56.05 42.25 56.05 42.25 56 42.25 56.2 42.25
M 56.25 42.35
L 56.2 42.3 56.25 42.3 56.25 42.35
M 56.1 42.5
L 56.15 42.5 56.2 42.55 56.2 42.6 56.15 42.6 56.1 42.65 56.05 42.6 56 42.6 56.05 42.55 56 42.55
Q 55.9052734375 42.597265625 55.75 42.6
L 55.6 42.6
Q 55.6 42.558984375 55.6 42.55
L 55.2 42.6 55.35 42.6
Q 55.0529296875 42.62421875 54.75 42.7 54.4 42.75 54.05 43
L 53.9 43.05 53.75 43.2 53.55 43.3 53.55 43.3 53.5 43.35 53.1 43.6 53.2 43.5 53.4 43.25 53.45 43.25 53.65 43.05 53.65 43.1 53.8 42.95 53.8 42.9 53.95 42.9 54.3 42.7 54.6 42.6 54.7 42.55 54.7 42.6 54.8 42.65 54.7 42.65 54.6 42.7 54.75 42.7 54.85 42.65 54.85 42.6 55.1 42.5 55.3 42.5 55.4 42.45 55.45 42.5 56.05 42.5 56.05 42.55 56.05 42.55 56.1 42.55 56.1 42.5
M 57.45 43
L 57.4 43 57.6 43.1 57.65 43.15 57.75 43.2 57.7 43.2 57.9 43.4 57.85 43.4 57.65 43.2
Q 57.36328125 43.040625 57.15 42.95 57.0724609375 42.886328125 57 42.85
L 56.9 42.8 57.15 42.85 57.45 43
M 54 42.65
L 54.05 42.65 53.95 42.75 53.85 42.75 53.95 42.6
Q 54.0671875 42.54140625 54.1 42.5
L 54 42.65
M 52.15 44.35
L 52.1 44.4 52.1 44.35 52.15 44.3 52.15 44.35
M 52.05 44.3
L 52.05 44.4 52.05 44.35 52.05 44.3
M 52.65 44.25
Q 52.5890625 44.342578125 52.5 44.45
L 52.5 44.45
Q 52.25 44.45 52.65 44.25
M 52.35 47.7
Q 52.3775390625 47.7642578125 52.4 47.8
L 52.35 47.75 52.4 47.9 52.3 47.7 52.25 47.45 52.3 47.6 52.2 47.25
Q 52.2892578125 47.5177734375 52.35 47.7
M 54 42.9
L 53.95 42.9 53.9 42.95 54 42.9
M 56.1 42.6
L 56.05 42.55 56.05 42.6 56.1 42.6
M 46.7 46.05
L 46.8 46.1 47 46.1 46.85 46.05 46.7 46.05
M 46.25 45.85
L 45.8 45.6 46 45.8 46.1 45.8 46.25 45.85
M 50.05 45.8
L 50.3 45.65 50.1 45.75 50.05 45.8
M 49.6 46.1
L 49.6 46.05 49.6 46.05 49.55 46.1 49.6 46.1
M 49.55 45.9
L 49.5 45.95 49.55 45.95
Q 49.6 45.9 49.55 45.9
M 49.2 49.8
L 49.15 49.75 49.05 49.7 49.2 49.8
M 49.7 50.3
L 49.5 50.05 49.2 49.8 49.7 50.3
M 49.5 50.05
L 49.65 50.2 49.85 50.5 49.8 50.45 50 50.85 50 50.8 50.05 50.85 49.85 50.45 50.05 50.8 50.15 50.9
Q 50.15 50.85 50.1 50.75
L 49.9 50.45
Q 49.7 50.05 49.55 49.95 49.45 49.8 49.15 49.6
L 49.2 49.6 49 49.5 48.95 49.5 48.95 49.55 49.1 49.7 49.1 49.65 49.15 49.65 49.1 49.6
Q 49.5 49.85 49.65 50.15
L 49.1 49.65 49.5 50.05
M 52.85 51.1
L 52.6 51.2 52.95 51.1 52.85 51.1
M 51.15 51.7
L 51 51.8 51.1 51.75 51.15 51.7
M 37.65 71.55
L 37.6 71.55 37.65 71.6 37.65 71.55
M 37.65 71.5
L 37.65 71.5 37.65 71.5 37.65 71.5
M 37.65 71.5
L 37.6 71.5 37.6 71.55 37.65 71.55 37.65 71.5
M 35.95 62.9
L 35.9 62.9 35.9 62.9 36.05 62.25 35.95 62.65
Q 35.9 62.85 35.9 62.65
L 35.85 62.9 35.85 63 35.95 62.9
M 38.8 56.7
L 39 56.45 38.95 56.4 38.8 56.7
M 48.15 49.3
L 48.1 49.25 48.4 49.4 47.55 48.95 48.15 49.3
M 46.3 48.25
L 46.2 48.25 46.6 48.35 46.3 48.25
M 40.7 49.4
L 40.75 49.35 40.5 49.5 39.8 50.2 39.7 50.4
Q 39.4708984375 50.6484375 39.2 51.1
L 39.15 51.1 39.1 51.15 38.95 51.65 38.85 51.85 38.75 52.2 38.85 51.9
Q 38.8056640625 52.121875 38.75 52.4
L 38.75 52.45 38.7 52.85 38.7 52.95 38.75 52.9 38.7 53 38.65 53.05 38.65 53.5 38.7 53.45 38.65 53.6 38.6 53.65 38.6 53.7 38.7 54.3 38.65 54.3 38.7 54.55 38.7 54.6 38.8 55.25 38.75 55.2 38.9 55.9 38.85 55.8 38.9 56.05 38.9 56.1 38.85 55.95 38.85 56 38.7 55.35 38.55 55.05 38.65 55.5
Q 38.7 55.65 38.8 56
L 38.85 56.1 38.85 56.2 38.9 56.25 38.9 56.3 38.95 56.4 39 56.4 39 56.45 39.05 56.4 39.05 56.4 39 56.35 39.05 56.35 39.05 56.4 39.05 56.4 39.05 56.45 39.1 56.5 39.1 56.65 39.05 56.5 39 56.45 39 56.45 38.95 56.55 38.7 56.85 38.75 56.85 38.45 57.25 38.5 57.25 38.45 57.35 38.4 57.4 38.4 57.45 38.3 57.55 38.15 57.75
Q 38.2 57.75 37.95 58.1
L 37.8 58.25 37.7 58.4 37.6 58.45 37.75 58.2
Q 37.5931640625 58.4091796875 37.5 58.5 37.465625 58.6259765625 37.45 58.65
L 37.3 59 37.2 59.15 37.05 59.5 36.95 59.65 36.95 59.7 36.9 59.75 36.8 60.05 36.65 60.35 36.4 60.95 36.45 61
Q 36.45 61.05 36.4 61.2
L 36.35 61.3 36.35 61.25 36.25 61.55 36.25 61.6 35.95 62.9 35.95 62.95 35.9 63 35.9 63 35.85 63.1 35.75 63.25 35.25 63.85 35.75 63.85 35.75 63.8 35.85 63.8 35.85 63.85 35.75 63.85 35.75 63.9 35.8 63.9 35.8 64 35.8 63.9 35.85 63.9 35.85 64.15 35.9 64.25 35.9 64.35 35.95 64.7 36 64.85 35.95 64.9 35.95 64.9 35.95 65 35.9 64.85 35.85 64.6 35.85 64.9 35.8 64.9 35.8 65 35.8 64.95 35.75 65.05 35.75 65.15 35.85 65.45 35.9 66.95 35.85 66.9 35.85 66.7 35.8 66.5 35.85 66.4 35.8 65.9
Q 35.75 65.8 35.75 65.9
L 35.75 66.4 35.8 66.75 35.8 66.95 35.9 67.65 35.95 67.7 36 68 35.9 67.7 36.15 68.75 36.15 68.7 36.45 69.5
Q 36.7 69.9 36.65 69.75 36.8775390625 70.1400390625 37 70.35
L 36.95 70.3 37.2 70.85 37.2 70.8 37.25 71.05 37.3 71.1 37.3 71.15 37.45 71.35 37.5 71.45 37.6 71.45 37.65 71.5 37.7 71.5 37.65 71.5 37.7 71.55 37.65 71.55 37.65 71.55 37.7 71.6 37.65 71.6 37.75 71.7 37.75 71.65 38 71.8 38.05 71.85 38.1 71.85
Q 38.15 71.8845703125 38.15 71.85
L 38.55 72.25 38.15 71.95 38.4 72.2 38.55 72.3 38.65 72.4 38.65 72.45 38.7 72.45 39.1 72.8 39.1 72.75 39.8 73.25 39.85 73.3 40.25 73.5 40.2 73.5 40.4 73.6
Q 40.5 73.75 40.35 73.7
L 40.15 73.6 40.2 73.6 39.4 73.15 39.65 73.35 39.75 73.4 39.75 73.5 40.15 73.7 40.1 73.7 40.4 73.9
Q 40.3 73.8 40.7 74
L 41.5 74.35 41.65 74.35 41.8 74.4 41.85 74.45 42.05 74.45 42.25 74.5 42.35 74.55 42.3 74.55 42.7 74.7 42.75 74.75 43.2 74.85 43.4 74.85
Q 43.6080078125 74.8916015625 43.3 74.9
L 43.55 74.9 43.6 74.95 43.8 74.95
Q 44.4 74.95 44.6 74.9
L 45.4 74.9 45.6 74.95 45.8 74.95 46.2 74.9 46.05 74.95 46.3 74.9 46.7 74.9 46.45 74.85 47.35 74.85
Q 47.85 74.8 47.2 74.8
L 46.15 74.85 46.3 74.8 44.75 74.85 45.3 74.85 43.8 74.9
Q 43.95 74.85 43.8 74.85
L 43.7 74.85 43.65 74.8 43.7 74.8 43.8 74.8 44.15 74.75 45.8 74.75 46.25 74.7 46.3 74.7
Q 47 74.7 46.45 74.65
L 47.35 74.65
Q 47.9556640625 74.6931640625 47.35 74.7
L 48.05 74.7 48 74.75 47.75 74.75 48.4 74.8 48.5 74.75 51.4 74.6
Q 51.55 74.65 51.9 74.65 51.7677734375 74.694140625 51.55 74.7 51.6146484375 74.7 51.7 74.7
L 51.15 74.75 51.45 74.75 50.95 74.8
Q 50.8392578125 74.8369140625 50.75 74.85
L 51.15 74.8 51.85 74.8 52.05 74.75
Q 53.5 74.85 54.25 74.8
L 52.2 74.75
Q 54.15 74.75 54.55 74.65
L 53.75 74.65 53.55 74.7 52.65 74.7 53.75 74.65 55 74.6
Q 55.15 74.6 56.05 74.45
L 56.15 74.45 56.65 74.3 58.7 73.45 59.05 73.25 59.1 73.25
Q 59.2 73.15 59.2 73.2
L 59.55 72.9 60.45 72.3 60.45 72.25 60.7 72 60.6 72 60.75 71.95 60.7 72 60.75 72 60.95 71.8 60.9 71.9 61 71.75 61.05 71.75 61.55 71.1 61.2 71.45 61.8 70.75
Q 61.45 71.25 62 70.65
L 62.25 70.35 62.8 69.4
Q 63.1 68.8 63.2 68.4
L 63.25 68.35 63.25 68.3 63.35 68.15 63.65 67.3 63.9 66.15 63.95 65.6 63.95 65.5 64 65.35 64 65.25 63.95 65.05
Q 63.991015625 65.05 64 64.75
L 64 64.7 64.05 64.55 64.05 64.65 64.1 64.55 64.1 64.2 64.05 64.1 64.05 63.7
Q 64.1 63.95 64.1 63.8
L 64.05 63.6 64.05 63.25
Q 64.05 62.75 63.9 62.2
L 63.8 61.7 63.75 61.55 63.7 61.5 63.75 61.75 63.7 61.55 63.4 60.65 63.55 61
Q 63.55 60.8669921875 63.4 60.55
L 62.85 59.4
Q 62.65 58.95 62.4 58.7
L 62.35 58.65 62.15 58.5 62.15 58.45 62.2 58.4 62.2 58.3 62.25 58.45 62.3 58.5 62.35 58.55 62.4 58.45
Q 62.36015625 58.405859375 62.3 58.35 62.2673828125 58.3115234375 62.2 58.25
L 62.25 58.05 62.25 57.75 62.3 57.45 62.3 57.3 62.35 57.25 62.3 55.5 62.35 55.6
Q 62.2 54.9 62.1 54.65
L 62.1 54.7 62 54.2 61.95 54.1 61.7 53.4 61.5 53 61.2 52.65 61.35 52.85 61.4 52.95 61.35 52.9 61.45 53.05 61.4 53 61.25 52.8 60.85 52.4 60.6 52.2 60.65 52.2 60.4 51.95 60.4 52 60.35 52 60.2 51.95 60.25 51.95 60.1 51.85 60.1 51.9 60.05 51.85 60.05 51.8 60.1 51.85 60.1 51.7 60.05 51.7 60.05 51.75 60 51.75 59.95 51.75 60 51.8 59.9 51.8 59.7 51.65 59.95 51.75 58.75 51.1 58.6 51
Q 58 50.75 57.3 50.6
L 57.25 50.55 56.6 50.55
Q 56.3 50.45 55.95 50.55
L 55.9 50.55 55.6 50.6 54.9 50.8 54.85 50.8 54.85 50.85 54.8 50.9 54.6 50.95 54.1 50.95 54 51 53.9 51 52.95 51.2 52.4 51.45 52.55 51.4 51.9 51.75 52 51.65 51.8 51.8 51.8 51.75 52 51.65 52.1 51.5 52.6 51.2 52.2 51.35
Q 51.45 51.8 51.1 52.05
L 50.6 52.5 50.55 52.3 50.7 52.25 51 51.95 51 51.9 51.05 51.8 52.05 51.2 51.6 51.45 52.1 51.15 52.05 51.15 51.1 51.75 50.95 51.85 50.9 51.85
Q 50.6978515625 52.0724609375 50.55 52.25
L 50.5 52.05 50.5 51.9 50.45 51.85 50.45 51.75 50.35 51.5 50.35 51.6 50.4 51.7 50.4 51.8 50.35 51.75 50.3 51.55 50.05 50.9 50 50.85 49.9 50.75 49.9 50.8 50.05 51.05 49.9 50.85 50.15 51.3 50.3 51.75 50.3 51.85 50.35 51.9 50.4 52.35 50.4 52.4
Q 50.381640625 52.444921875 50.35 52.45 50.2896484375 52.1916015625 50.2 51.9 50 51.25 49.65 50.6 49.45 50.15 49 49.85
L 48.85 49.7 48.7 49.65 48.55 49.55 48.5 49.55 48.45 49.5 47.25 48.85
Q 46.7 48.6 46.15 48.5 45.823828125 48.4533203125 45.15 48.45 45.1009765625 48.45 45.05 48.45
L 44.45 48.55 45 48.4 45.35 48.4 45.15 48.45
Q 45.6 48.4 45.95 48.45
L 46.4 48.5 46.8 48.6
Q 46.7 48.6 46.8 48.65
L 47.55 48.95 48.25 49.3 48.3 49.3 48.5 49.35 47.7 48.9
Q 47.55 48.8 47.7 48.85
L 47.8 48.85 47.4 48.65 47.3 48.65 46.95 48.5 46.25 48.3 46.2 48.25 46.15 48.25 46.15 48.2 45.05 48.15 45.4 48.2 45 48.2 44.3 48.4 44.25 48.35 44.25 48.4 44.2 48.4 44.1 48.45 43.85 48.5 44.1 48.4 44.05 48.4 43.65 48.45 43.85 48.4 43.35 48.45 43.2 48.45 43.15 48.5 43.15 48.55 43.35 48.5 43.3 48.5 43.2 48.55 43.15 48.55 43.1 48.55 43.15 48.55 42.55 48.75 42.45 48.8 42.45 48.8 42.3 48.85 42.45 48.8 42.4 48.85 42.2 48.9 42.15 48.9 42.1 48.85 42.05 48.8 42 48.65 41.85 48.75 41.9 48.7 41.75 48.75 41.7 48.75 41.15 49.05 40.7 49.4
M 44.15 48.45
L 44.2 48.45 44.2 48.5 43.95 48.5 44.15 48.45
M 44.35 48.45
L 44.3 48.45 44.35 48.45 44.25 48.45 44.3 48.45 44.25 48.4 44.35 48.45
M 38.9 56.2
L 38.9 56.15 38.95 56.2 38.9 56.2
M 39.1 56.45
L 39.15 56.35 39.15 56.5 39.1 56.45
M 38.65 57.55
L 38.65 57.6 38.55 57.7 38.2 58.2 38.2 58.25 38.05 58.4
Q 37.973046875 58.515234375 37.9 58.6 37.876953125 58.66484375 37.85 58.7 37.9 58.6 37.95 58.45
L 37.2 60.05 37.4 59.7 37.3 59.9
Q 36.8 60.9 36.7 61.4
L 36.65 61.55 36.65 61.35 36.9 60.4 36.9 60.45 37.3 59.6 37.25 59.75 37.45 59.25
Q 37.5 59.25 37.55 59.15
L 37.55 59.1 38 58.35 38.15 58.2 38.1 58.2 38.45 57.65 38.5 57.65 38.6 57.55 38.55 57.55 38.55 57.45 38.6 57.45 38.6 57.5 38.65 57.55
M 36.55 61.65
L 36.55 61.7 36.35 62.5 36.55 61.9 36.55 61.85 36.6 61.7 36.55 61.9 36.3 63 36.3 63.15 36.25 63.2 36.2 63.3 36.2 63.4 36.2 63.45 36.15 63.5 36.15 63.55 36.15 63.8 36.15 63.9 36.15 64.1 36.2 64.5 36.2 64.85 36.25 65 36.25 65.05 36.2 65.15 36.2 65.5 36.15 65.75
Q 36.15 66.2828125 36.2 66.6 36.1943359375 66.6609375 36.2 66.7
L 36.2 66.9 36.3 67.55 36.3 67.65
Q 36.341015625 67.83828125 36.35 68
L 36.45 68.35
Q 36.5294921875 68.6052734375 36.6 68.85 36.6708984375 69.112890625 36.75 69.35
L 36.85 69.7 36.55 69.05 36.55 69 36.05 66.9 36 66.05 36.05 66.55
Q 36.05 66.5 36.05 66.35
L 36 66 36 65.7 36.05 65.45 36.05 65.4
Q 36.0533203125 65.3 36.1 65.3
L 36.1 65.1 36.15 65 36.1 63.9 36.15 63.9 36.05 63.8 36.15 63.8 36.1 63.75 36.1 63.55 35.9 63.55 36.1 63.35 36.1 63.4 36.15 63.15 36.15 63.1 36.2 63.05 36.2 62.95 36.35 62.4
Q 36.25 62.55 36.4 62.05
L 36.55 61.65
M 37.4 71.1
L 37.35 71.05 37.25 70.8 37.4 71 37.4 71.1
M 37.8 71.5
L 37.8 71.5 37.8 71.55 37.8 71.55 37.8 71.5
M 37.7 71.55
L 37.7 71.55 37.8 71.55 37.7 71.55
M 38.2 71.65
L 38.1 71.6 38.1 71.55
Q 38.15 71.55 38.15 71.6
L 38.25 71.65 38.8 72.2 38.65 72.1 38.2 71.65
M 40 73.1
Q 40.0853515625 73.184765625 40.15 73.25
L 40.05 73.2 39.9 73.05
Q 39.9650390625 73.1029296875 40 73.1
M 39.3 72.65
L 39.05 72.4
Q 39.3060546875 72.6462890625 39.6 72.85
L 39.3 72.65
M 61.95 58.6
L 62 58.65 62.05 58.7
Q 62.001171875 58.669921875 61.95 58.6
M 62.6 59.4
L 62.6 59.45
Q 62.5015625 59.2591796875 62.35 59.05 62.4638671875 59.16171875 62.6 59.4
M 51.3 52.35
L 51.3 52.35
Q 51.255859375 52.3990234375 51.2 52.45
L 51.3 52.35
M 50.55 52.5
L 50.55 52.55 50.5 52.6 50.35 52.7
Q 50.36171875 52.6154296875 50.35 52.5
L 50.4 52.4 50.5 52.6 50.5 52.55 50.55 52.5
M 40.8 49.7
L 40.8 49.75 40.75 49.7 40.8 49.7 40.8 49.7
M 44.35 74.5
Q 44.7125 74.5208984375 45.5 74.55
L 43.7 74.55 43.65 74.5 43.35 74.5 43.35 74.45 43.75 74.45 43.8 74.5 44.35 74.5
M 43.5 74.8
L 43.55 74.8 43.7 74.9 43.6 74.9 43.55 74.8 43.5 74.8 43.5 74.8
M 36.1 63.5
L 36.1 63.55 36.15 63.55 36.1 63.5
M 36.15 63.2
L 36.2 63.3 36.2 63.25 36.15 63.2 36.15 63.2
M 43.95 43.35
L 44 43.35
Q 43.9544921875 43.2587890625 43.9 43.2
L 43.95 43.35
M 44.9 44.5
L 44.9 44.55 45 44.55 44.9 44.5
M 44.9 44.65
L 44.85 44.65 44.95 44.75 44.9 44.75 44.95 44.75 45 44.75 45 44.7
Q 44.9990234375 44.742578125 44.9 44.65
M 44.4 44.2
L 44.45 44.2 44.4 44.05 44.15 43.8 44.15 43.85 44.2 43.95 44.15 43.95 44.35 44.2 44.4 44.25 44.4 44.2
M 44.55 44.5
L 44.55 44.5 44.5 44.3 44.55 44.5
M 44.7 44.4
L 44.65 44.3 44.6 44.4 44.55 44.3 44.55 44.35 44.6 44.45 44.55 44.5 44.55 44.65 44.55 44.8 44.8 44.8 44.75 44.75 44.85 44.8 44.8 44.8 44.8 44.8 44.85 44.8 44.85 44.85 44.95 44.85 44.9 44.8 44.95 44.8 44.95 44.85 45.15 45 44.95 44.8 44.9 44.8 44.85 44.75 44.85 44.75 44.8 44.7 44.85 44.7 44.75 44.6 44.8 44.6 44.7 44.45 44.7 44.4
M 43.9 41.05
L 43.85 41.05 43.85 41.1 43.85 41.15 43.9 41.15 43.95 41 43.9 41.05
M 43.7 42.3
L 43.7 42.4 43.75 42.5 43.75 42.4 43.8 42.4 43.75 42.3 43.7 42.3
M 43.65 41.6
L 43.65 41.75 43.7 41.9 43.7 42.1 43.7 42.2 43.7 42.25 43.75 42.3 43.8 42.15 43.75 42 43.75 41.65 43.8 41.55 43.8 41.45 43.75 41.55 43.75 41.4 43.7 41.55 43.7 41.5 43.65 41.6
M 44.2 40.85
L 44.2 40.65 44.15 40.8 44.1 40.8 44.05 41.1 44.05 41.15 44.1 41.15 44.1 41.1 44.15 41.05 44.15 41.1 44.2 40.85
M 46.4 38.1
L 46.4 38 46.35 38 46.4 38.1
M 46.5 38.25
L 46.5 38.2 46.45 38.15 46.5 38.25
M 46.55 38.25
L 46.5 38.25 46.5 38.25 46.6 38.4 46.55 38.25
M 47.9 38
L 47.9 38 48 38 47.9 38
M 50.15 38.2
Q 49.7 38.05 49.35 38 49.05 37.95 48.55 37.95
L 48.4 37.95 47.95 38.1 47.9 38.05 47.9 38 47.85 38.05 47.85 38.1 47.9 38.1 48.1 38.15
Q 48.053515625 38.15 48 38.15
L 47.9 38.1 47.9 38.15
Q 47.2068359375 38.15 46.6 38.4 46.5748046875 38.4080078125 46.55 38.4
L 46.5 38.35 46.45 38.3 46.45 38.25 46.4 38.15 46.45 38.15 46.5 38.15
Q 46.55 38.1 46.5 38.1 46.6 38.05 46.5 38.05
L 46.4 38.1 46.4 38.1 46.35 38.1 46.3 38 46.35 38 46.35 37.95 46.3 37.95 46.25 37.95 46.1 38.05 46.1 38.1 46.05 38.15 46.05 38.1 45.85 38.2
Q 45.9 38.25 45.75 38.35
L 45.7 38.4 45.85 38.3 45.9 38.25 45.95 38.25 46.05 38.2 46.1 38.15 46.1 38.15 46.1 38.2 46.05 38.25 46.05 38.2 46 38.25 45.95 38.25 45.95 38.3 45.9 38.3 45.8 38.4
Q 45.75 38.45 45.75 38.5
L 45.55 38.7 45.55 38.65 45.4 38.8 45.45 38.85 45 39.35
Q 44.7 39.7 44.5 40 44.3 40.45 44.2 40.85
L 44.15 41.15 44.15 41.2 44.1 41.25 44.1 41.6 44.05 41.7
Q 44.05 42 44.1 42.15
L 44.1 42.35 44.15 42.6
Q 44.25 43.15 44.4 43.4
L 44.45 43.6 44.75 44.05 44.85 44.25 44.9 44.3 44.9 44.35 45 44.45 45 44.5 45.05 44.5 45.35 44.8
Q 45.4125 44.8625 45.45 44.9
L 45.45 44.95 45.6 45.05 45.55 45.05 45.65 45.05
Q 45.7619140625 45.1443359375 45.85 45.2
L 45.9 45.2
Q 45.979296875 45.2646484375 46.05 45.3 46.4 45.55 46.85 45.7
L 47 45.7 47.05 45.7 47.05 45.7 47 45.7 46.9 45.75
Q 46.95 45.8 47 45.75
L 47.2 45.85 47.55 45.9
Q 47.3521484375 45.8380859375 47.25 45.8
L 47.6 45.85 48.55 45.85
Q 49 45.85 49.45 45.7 49.9 45.5 50.25 45.3
L 50.85 44.9 51.15 44.6 51.6 44.05
Q 51.95 43.55 52.05 43.25 52.25 42.85 52.35 42.3
L 52.35 42 52.4 41.95 52.4 41.4
Q 52.4 40.9 52.25 40.4 52.1 39.95 51.85 39.5 51.7 39.15 51.4 38.95
L 51.25 38.85 51.2 38.8 51.05 38.7 51 38.7 50.15 38.2
M 46.2 33.8
L 46.25 33.85 46.25 33.8 46.2 33.75 46.2 33.8
M 46.3 33.8
L 46.3 33.7
Q 46.2 33.6 46.2 33.65
L 46.25 33.7 46.25 33.75 46.3 33.8
M 58.45 38.25
L 58.5 38.25 58.55 38.2 58.45 38.25
M 59.3 36.55
L 59.35 36.5 59.35 36.85
Q 59.301171875 36.85 59.3 36.9
L 59.3 36.85 59.25 37 59.25 37.1 59.2 37.1 59.1 37.3 59.15 37.25 59.15 37.35 59.1 37.35 59.1 37.5 59.05 37.55 58.95 37.75 59 37.6 58.9 37.75 58.9 37.7 58.8 37.95 58.75 37.95 58.75 38.05 58.65 38.15 58.65 38.2
Q 58.615625 38.2 58.65 38.1 58.66875 38.0625 58.7 38
L 58.55 38.2 58.55 38.2 58.6 38.2 58.55 38.3 58.5 38.45 58.6 38.35 58.55 38.35 58.65 38.25
Q 58.6875 38.2125 58.75 38.15
L 58.95 37.95 59.1 37.7 59.1 37.65 59.25 37.3 59.25 37.4
Q 59.45 36.9 59.45 36.6
L 59.45 36.45
Q 59.448828125 36.5 59.4 36.5
L 59.4 36.4 59.45 36.35 59.3 36.5 59.3 36.55 59.3 36.55
M 59.4 36.35
L 59.45 36.35 59.4 36.3 59.4 36.35
M 53.15 35.7
L 53.15 35.8 53.2 35.7 53.25 35.5 53.2 35.45 53.15 35.7
M 53.1 36.15
Q 53.15 36.1279296875 53.15 36.05
L 53.1 36.05
Q 53.128125 36.1146484375 53.1 36.15
M 51.45 34.6
L 51.35 34.65 51.4 34.65 51.45 34.6
M 51.35 34.7
L 51.35 34.65 51.3 34.75 51.35 34.7
M 52.25 33.05
L 52.25 33.25
Q 52.201171875 33.25 52.2 33.3
L 52.2 33.25 52.15 33.4 52.15 33.5 52.1 33.5 52 33.7 52.05 33.65 52.05 33.75 52 33.75 52 33.9 51.95 33.95 51.85 34.15 51.9 34 51.8 34.15 51.8 34.1 51.7 34.35 51.65 34.35 51.65 34.45 51.55 34.55 51.55 34.6
Q 51.515625 34.6 51.55 34.5 51.56875 34.4625 51.6 34.4
L 51.45 34.6 51.45 34.6 51.5 34.6 51.45 34.7 51.4 34.85 51.5 34.75 51.45 34.75 51.55 34.65
Q 51.5875 34.6125 51.65 34.55
L 51.85 34.35 52 34.1 52 34.05 52.15 33.7 52.15 33.8
Q 52.35 33.3 52.35 33
L 52.35 32.75 52.25 33 52.25 33.05
M 52.2 32.9
L 52.2 32.95 52.2 32.95 52.25 32.9 52.25 32.8 52.2 32.9
M 52.3 32.75
L 52.25 32.8 52.35 32.75 52.3 32.75
M 53.75 37.95
L 53.7 37.9 53.7 37.85 53.7 37.9 53.65 37.85 53.7 37.95 53.75 37.95
M 53.75 37.95
L 53.75 38 53.8 38.05 53.8 38.1 53.8 38.15 53.85 38.15 53.85 38.1 53.9 38.1 53.85 38.1 53.8 38 53.75 37.95 53.75 37.95
M 53.65 38
L 53.7 37.95 53.6 37.85 53.65 37.95 53.65 37.95 53.65 38
M 53.7 37.95
L 53.7 38 53.7 38.05 53.65 38 53.6 37.9 53.6 37.85 53.5 38.15 53.65 38.2 53.65 38.1 53.7 38.1 53.7 38.1 53.7 38.1 53.8 38.1 53.75 38 53.7 37.95
M 53.6 37.7
L 53.6 37.65 53.55 37.65 53.6 37.7
M 57.95 38.7
L 57.95 38.75 57.85 38.8 57.8 38.85 57.6 38.9
Q 57.6 38.946875 57.65 38.9 57.55 38.9984375 57.5 39
L 57.6 39 57.35 39.1 57.45 39.1 57.2 39.2 56.95 39.25 57.15 39.25 57.3 39.2
Q 57.3328125 39.178125 57.35 39.15
L 57.4 39.15
Q 57.5125 39.1 57.65 39.1
L 57.6 39.05 57.75 38.95
Q 57.9 38.9 57.8 39
L 57.9 38.95 57.9 38.9
Q 58.05 38.85 58.15 38.65
L 58.1 38.7 57.95 38.7 57.95 38.7
M 54.3 33.95
L 54.2 33.95 54 34.15 53.9 34.35 53.95 34.3 53.95 34.35 53.85 34.45
Q 54.05 34.35 53.75 34.65
L 53.7 34.65 53.6 34.85 53.6 34.9 53.55 35 53.5 34.95 53.45 35.1 53.4 35.15
Q 53.4 34.95 53.45 34.95
L 53.45 35 53.5 34.85 53.55 34.8 53.5 34.7 53.45 34.75 53.45 34.8 53.3 35.15 53.4 34.95 53.35 35.1 53.35 35.15
Q 53.3033203125 35.336328125 53.3 35.2
L 53.3 35.35 53.35 35.2 53.4 35.2 53.35 35.35 53.35 35.4 53.3 35.45 53.3 35.55 53.25 35.7 53.25 35.85 53.2 36.25
Q 53.2 36.4 53.15 36.35
L 53.15 36.7 53.2 36.7 53.2 36.8 53.15 36.75 53.15 36.85
Q 53.2 36.85 53.15 36.9 53.2 36.9 53.15 36.95
L 53.15 36.95 53.15 37 53.2 37.1 53.4 37.2 53.45 37.35 53.5 37.4 53.5 37.45 53.6 37.65 53.65 37.7 53.65 37.8 53.7 37.85 53.75 37.9 53.75 37.85 53.8 37.95 53.8 37.9 53.8 37.95 53.8 37.95 53.8 38 53.85 38.05 53.9 38.1 54 38.1 53.95 38.05 53.9 38 53.95 38 53.95 38 54.05 38.05 54.05 38.1 54 38.1 54.05 38.15 53.9 38.1 53.9 38.15 53.85 38.15 53.95 38.15 53.95 38.2 53.9 38.2 53.85 38.15 53.8 38.15 53.8 38.15 53.7 38.1 53.7 38.1 53.75 38.2 53.75 38.2 53.75 38.2 53.75 38.2 53.8 38.2 53.75 38.2 53.75 38.25 53.75 38.3 53.7 38.3 53.7 38.25 53.75 38.25 53.75 38.2 53.7 38.2 53.65 38.2 53.7 38.45 54.05 38.45 54.05 38.4 54.15 38.45 54.2 38.5 54.3 38.55 54.1 38.5
Q 54.05 38.45 54.05 38.5
L 54.35 38.7 54.45 38.8 54.5 38.8 54.55 38.85 54.65 38.85 54.95 39.05
Q 54.85 39 54.85 39.05
L 55.1 39.1 55 39.15 55.2 39.2 55.3 39.2 55.35 39.2 55.4 39.3 55.45 39.3 55.65 39.35 55.85 39.35 55.8 39.3 55.7 39.3 55.85 39.25 55.75 39.25 55.7 39.2 55.45 39.2 55.35 39.15 55.4 39.2 55.35 39.2 55.15 39.15 55.2 39.1 55.1 39.05 55.3 39.05 55.45 39.1 55.5 39.1 55.6 39.15 55.75 39.15
Q 55.9 39.15 55.8 39.1
L 55.95 39.1 56 39.15 55.9 39.2 56.05 39.2
Q 55.95 39.25 56.15 39.25
L 56.15 39.2 56.4 39.25 56.5 39.2 56.65 39.15 56.75 39.1
Q 56.7984375 39.1484375 56.85 39.15
L 56.8 39.15
Q 56.75 39.2 56.85 39.2
L 56.7 39.25 56.8 39.25 56.6 39.3 56.7 39.3 56.9 39.25 56.9 39.25 56.95 39.25 57.1 39.2 57.15 39.15 57.05 39.15 57.15 39.1 57.25 39 57.3 39 57.45 38.9
Q 57.5 38.9 57.45 38.95
L 57.75 38.75 57.8 38.75 57.85 38.65
Q 57.9 38.7 57.95 38.65
L 58.1 38.5 58.15 38.45 58.2 38.5 58.25 38.4 58.35 38.3 58.4 38.3 58.4 38.25 58.4 38.2 58.45 38.2 58.5 38.1 58.65 38 58.55 38.05 58.65 37.9
Q 58.7 37.95 58.7 37.9
L 58.75 37.9 58.75 37.85 58.9 37.65 59 37.2 59 37.25 59.15 36.8 59.15 36.75 59.2 36.65 59.15 36.9
Q 59.1984375 36.8515625 59.2 36.9
L 59.2 36.8 59.25 36.55 59.25 36.45 59.2 36.5 59.3 36.35 59.25 36.45 59.35 36.4 59.35 36.25 59.3 36
Q 59.3 36.15 59.25 36.1
L 59.25 35.9
Q 59.2515625 35.95 59.3 35.95
L 59.3 35.8 59.35 35.9 59.3 35.65 59.3 35.45 59.2 35.3 59.15 35.25 59.15 35.2 59.1 35.15 58.9 34.55 58.9 34.5 58.75 34.35 58.8 34.45 58.65 34.3 58.6 34.3 58.55 34.25 58.45 34.2 58.4 34.1 58.5 34.15 58.45 34.15
Q 58.6 34.25 58.6 34.2
L 58.45 34.1 58.4 34.05 58.35 34.05 58.25 34 58.15 34 57.9 33.85 57.9 33.8 57.95 33.8 57.65 33.65 57.6 33.65 57.5 33.6 57.45 33.55
Q 57.45 33.65 57.25 33.6
L 57.05 33.5 56.9 33.5
Q 56.9341796875 33.5158203125 56.9 33.55
L 56.75 33.55 56.75 33.5 56.4 33.55 56.35 33.55 56.15 33.65 56.3 33.6 56.25 33.65 56.35 33.6 56.3 33.65 56.35 33.65 56.3 33.65 56.1 33.75
Q 55.683203125 33.75 55.3 33.85
L 55.3 33.8 55.3 33.75 55.25 33.7 55.25 33.65 55.25 33.6 55.25 33.55 55.2 33.5 55.2 33.6 55.15 33.6 55.1 33.65 55 33.65 55.15 33.55 55.2 33.5 55.25 33.5 55.2 33.45 55.05 33.5 54.9 33.55 54.8 33.55
Q 54.85 33.6 54.8 33.6
L 54.6 33.7 54.45 33.75 54.3 33.95
M 54.9 33.6
L 55 33.55 54.9 33.65 54.85 33.65 54.9 33.6
M 54.45 34.2
L 54.45 34.2 54.4 34.2 54.4 34.15 54.45 34.2
M 53.55 35.4
L 53.55 35.45 53.6 35.3 53.7 35.1 53.7 35.2
Q 53.68671875 35.2646484375 53.65 35.3
L 53.6 35.4 53.6 35.55 53.55 35.7 53.55 35.65 53.5 35.75 53.5 35.8 53.55 35.95 53.55 36.15
Q 53.55 36.233984375 53.55 36.3
L 53.5 36.25 53.45 36.05 53.45 35.9 53.4 35.8 53.45 35.8 53.45 35.75 53.55 35.4
M 53.4 36.4
Q 53.45 36.35 53.45 36.4
L 53.5 36.3 53.5 36.45 53.55 36.35
Q 53.55 36.4087890625 53.55 36.45
L 53.55 36.75
Q 53.5833984375 36.866796875 53.6 36.95
L 53.6 36.95 53.7 37.2
Q 53.7265625 37.2529296875 53.75 37.3
L 53.9 37.6
Q 53.9 37.6794921875 53.9 37.75
L 53.9 37.85 53.85 37.8 53.85 37.75 53.8 37.7 53.85 37.7 53.7 37.45 53.65 37.4 53.6 37.3 53.6 37.25 53.55 37.2 53.55 37.2 53.55 37.15 53.55 37.1 53.45 36.75 53.45 36.45 53.4 36.4
M 57.1 38.8
Q 57.1251953125 38.7916015625 57.15 38.75
L 57.15 38.8 57.05 38.8 57.1 38.8
M 54.2 38.05
Q 54.2 38.0033203125 54.25 38.05
L 54.35 38.15 54.35 38.2 54.25 38.15 54.3 38.15 54.2 38.05
M 53.85 38.2
L 53.9 38.25 53.95 38.2 54.05 38.25 54.05 38.3 53.95 38.25 53.9 38.25 53.85 38.25 53.8 38.2 53.85 38.2
M 54 38.15
L 54.05 38.15 54 38.15 54 38.15
M 46.6 34.5
L 46.6 34.5 46.65 34.6 46.65 34.6 46.65 34.6 46.65 34.6 46.6 34.5
M 46.55 34.4
L 46.55 34.35 46.55 34.5 46.6 34.5 46.6 34.5 46.6 34.5 46.6 34.5 46.7 34.55 46.7 34.5 46.65 34.4 46.6 34.35 46.55 34.3 46.5 34.25 46.55 34.35 46.55 34.35 46.55 34.4 46.6 34.45 46.6 34.35 46.6 34.4 46.6 34.45 46.55 34.4 46.55 34.4
M 46.85 34.5
L 46.85 34.45 46.8 34.45 46.8 34.45 46.85 34.5
M 51.05 35.05
L 50.95 35.1 50.85 35.1 50.85 35.1 50.85 35.15 50.75 35.2 50.7 35.25 50.5 35.3
Q 50.5 35.346875 50.55 35.3 50.45 35.3984375 50.4 35.4
L 50.5 35.4 50.25 35.5 50.35 35.5 50.1 35.6 49.85 35.65 50.05 35.65 50.2 35.6
Q 50.2314453125 35.57890625 50.25 35.55
L 50.3 35.55
Q 50.4126953125 35.5 50.55 35.5
L 50.5 35.45 50.65 35.35
Q 50.8 35.3 50.7 35.4
L 50.8 35.35 50.8 35.3
Q 50.95 35.25 51.05 35.05
M 51.25 30.45
L 51.15 30.4 51.05 30.4 50.8 30.25 50.8 30.2 50.85 30.2 50.55 30.05 50.5 30.05 50.4 30 50.35 29.95
Q 50.35 30.05 50.15 30
L 49.95 29.9 49.8 29.9
Q 49.8341796875 29.9158203125 49.8 29.95
L 49.65 29.95 49.65 29.9 49.3 29.95 49.25 29.95 49.05 30.05 49.2 30 49.15 30.05 49.25 30 49.2 30.05 49.25 30.05 49.2 30.05 49 30.15
Q 48.583203125 30.15 48.2 30.25
L 48.2 30.2 48.2 30.15 48.15 30.1 48.15 30.05 48.15 30 48.15 29.95 48.1 29.9 48.1 29.95 48.05 29.95 48.1 29.9 48 29.9 47.95 29.9 47.95 29.95 47.9 29.95 47.95 29.9 47.8 29.95 47.7 29.95
Q 47.75 30 47.7 30
L 47.5 30.1 47.35 30.15 47.2 30.35 47.1 30.35 46.9 30.55 46.8 30.75 46.85 30.7 46.85 30.75 46.75 30.85
Q 46.95 30.75 46.65 31.05
L 46.6 31.05 46.5 31.25 46.5 31.3 46.45 31.4 46.4 31.35 46.35 31.5 46.3 31.55
Q 46.3 31.35 46.35 31.35
L 46.35 31.4 46.4 31.25 46.45 31.2 46.4 31.1 46.35 31.15 46.35 31.2 46.2 31.55 46.3 31.35 46.25 31.5 46.25 31.55
Q 46.2033203125 31.736328125 46.2 31.6
L 46.2 31.75 46.25 31.6 46.3 31.6 46.25 31.75 46.25 31.8 46.2 31.85 46.2 31.95
Q 46.2 32 46.15 32.1
L 46.15 32.25 46.1 32.65
Q 46.1 32.8 46.05 32.75
L 46.05 33.25
Q 46.1 33.25 46.05 33.3 46.1 33.3 46.05 33.35
L 46.05 33.35 46.05 33.4 46.1 33.5 46.3 33.6 46.35 33.75 46.4 33.8 46.4 33.85 46.5 34.05 46.45 34.05
Q 46.45 34.087109375 46.45 34.2
L 46.55 34.25 46.55 34.3 46.6 34.25 46.6 34.35 46.6 34.35 46.65 34.4 46.65 34.35 46.6 34.3 46.65 34.3 46.65 34.25 46.7 34.3 46.7 34.35 46.7 34.35 46.75 34.35 46.75 34.35 46.75 34.4 46.8 34.4 46.85 34.45 46.85 34.4 46.85 34.4 46.95 34.45 46.95 34.5 46.9 34.5 46.95 34.55 46.8 34.5 46.75 34.35 46.75 34.4 46.7 34.35 46.7 34.4 46.65 34.35 46.7 34.45 46.7 34.5 46.75 34.5 46.75 34.55 46.75 34.5 46.8 34.5 46.75 34.5 46.75 34.45 46.8 34.5 46.8 34.55 46.75 34.55 46.75 34.55 46.7 34.5 46.7 34.55 46.75 34.6 46.8 34.65 46.85 34.65 46.85 34.7 46.8 34.65 46.75 34.65 46.7 34.6 46.75 34.6 46.65 34.6 46.7 34.6 46.65 34.6 46.65 34.65 46.65 34.7 46.6 34.7 46.6 34.65 46.65 34.65 46.65 34.6 46.6 34.6 46.55 34.6 46.6 34.85 46.95 34.85 46.95 34.8 47.05 34.85 47.1 34.9 47.2 34.95 47 34.9
Q 46.95 34.85 46.95 34.9
L 47.1 35.05
Q 47.3 35.25 47.4 35.25
L 47.55 35.25 47.85 35.45
Q 47.75 35.4 47.75 35.45
L 48 35.5 47.9 35.55 48.1 35.6 48.2 35.6 48.25 35.6 48.3 35.7 48.35 35.7 48.55 35.75 48.75 35.75 48.7 35.7 48.6 35.7 48.75 35.65 48.65 35.65 48.6 35.6 48.35 35.6 48.25 35.55 48.3 35.6 48.25 35.6 48.05 35.55 48.1 35.5 48 35.45 48.2 35.45 48.35 35.5 48.4 35.5 48.5 35.55 48.65 35.55
Q 48.8 35.55 48.7 35.5
L 48.85 35.5 48.9 35.55 48.8 35.6 48.95 35.6
Q 48.85 35.65 49.05 35.65
L 49.05 35.6 49.3 35.65 49.4 35.6 49.55 35.55 49.65 35.5
Q 49.6984375 35.5484375 49.75 35.55
L 49.7 35.55
Q 49.65 35.6 49.75 35.6
L 49.6 35.65 49.7 35.65 49.5 35.7 49.6 35.7 49.8 35.65 49.8 35.65 49.85 35.65 50 35.6 50.05 35.55 49.95 35.55 50.05 35.5 50.15 35.4 50.2 35.4 50.35 35.3
Q 50.4 35.3 50.35 35.35
L 50.65 35.15 50.7 35.15 50.75 35.05
Q 50.8 35.1 50.85 35.05
L 51 34.9 51.05 34.85 51.1 34.9 51.15 34.8 51.25 34.7 51.3 34.7 51.3 34.65 51.3 34.6 51.35 34.6 51.4 34.5 51.55 34.4 51.45 34.45 51.55 34.3
Q 51.6 34.35 51.6 34.3
L 51.65 34.3 51.65 34.25 51.8 34.05 51.9 33.6 51.9 33.65 52.05 33.2 52.05 33.15 52.1 33.05 52.05 33.3
Q 52.0984375 33.2515625 52.1 33.3
L 52.1 33.2 52.15 32.95 52.15 32.85 52.25 32.8 52.25 32.65 52.2 32.4
Q 52.2 32.55 52.15 32.5
L 52.15 32.3
Q 52.1515625 32.35 52.2 32.35
L 52.2 32.2 52.25 32.3 52.2 32.05 52.2 31.85 52.1 31.7 52.05 31.65 52.05 31.6 52 31.55 51.8 30.95 51.8 30.9 51.65 30.75 51.7 30.85 51.55 30.7 51.5 30.7 51.45 30.65 51.35 30.6 51.35 30.55
Q 51.5 30.65 51.5 30.6
L 51.35 30.5 51.3 30.45 51.25 30.45
M 47.3 30.65
L 47.25 30.65 47.25 30.65 47.25 30.6 47.3 30.6 47.35 30.6 47.3 30.65
M 47.35 30.6
L 47.35 30.55 47.4 30.55 47.55 30.45 47.5 30.5 47.45 30.6 47.35 30.6 47.35 30.6
M 46.6 31.5
L 46.6 31.6 46.5 31.8 46.5 31.95 46.45 32.1 46.45 32.05 46.4 32.15 46.4 32.2 46.45 32.35 46.45 32.55
Q 46.45 32.633984375 46.45 32.7
L 46.4 32.65 46.35 32.45 46.35 32.3 46.3 32.2 46.35 32.2 46.35 32.15 46.45 31.8 46.45 31.85 46.5 31.7 46.6 31.5
M 46.35 32.85
L 46.3 32.8
Q 46.35 32.75 46.35 32.8
L 46.4 32.7 46.4 32.85 46.45 32.75
Q 46.45 32.8087890625 46.45 32.85
L 46.45 33.15
Q 46.4611328125 33.1888671875 46.45 33.2
L 46.45 33.25
Q 46.5041015625 33.319921875 46.5 33.35
L 46.5 33.35 46.6 33.55 46.6 33.6
Q 46.628515625 33.6572265625 46.65 33.7
L 46.8 34
Q 46.8 34.0794921875 46.8 34.15
L 46.8 34.25 46.75 34.2 46.75 34.15 46.7 34.1 46.75 34.1 46.6 33.85 46.55 33.8 46.5 33.7 46.5 33.65 46.45 33.55 46.45 33.5 46.35 33.15 46.35 32.85
M 46.2 33.3
Q 46.25 33.35 46.25 33.4 46.2 33.5 46.15 33.35
L 46.1 33.2 46.2 33.35 46.2 33.3
M 46.9 34.55
L 46.9 34.55 46.95 34.55 46.9 34.55 46.9 34.6 46.9 34.6 46.9 34.55
M 47.15 34.45
L 47.25 34.55 47.25 34.6 47.15 34.55 47.2 34.55 47.1 34.45
Q 47.1 34.4033203125 47.15 34.45
M 46.7 34.3
L 46.7 34.25 46.7 34.3 46.7 34.3
M 54.6 26.05
L 54.6 26.1 54.65 26.1 54.6 26.05
M 57.7 29.95
Q 57.730859375 29.919140625 57.75 29.9
L 57.6 29.95 57.7 29.95
M 58.15 25.5
L 58.15 25.5 58.2 25.55 58.25 25.55 58.15 25.5
M 57.7 25.4
L 57.75 25.4 58.05 25.55
Q 58.128515625 25.55 58.15 25.5
L 58.15 25.5 58.05 25.5 58.1 25.45 58 25.45 58 25.5 57.9 25.35 57.8 25.3 57.75 25.25 57.7 25.3 57.55 25.3 57.7 25.35 57.7 25.4
M 59.2 27.2
L 59.2 27.3 59.25 27.35 59.25 27.2 59.2 27.2
M 58.15 25.6
L 58.2 25.6 58.15 25.55 58.15 25.6
M 58.3 25.7
L 58.4 25.7 58.15 25.6 58.15 25.65 58.2 25.65 58.3 25.7
M 54.55 26.5
L 54.55 26.55
Q 54.6 26.5 54.55 26.45
L 54.55 26.5
M 54.05 27.4
L 54.05 27.45 54.05 27.5 54.05 27.4
M 54.1 27.4
L 54.1 27.4 54.1 27.4 54.1 27.45 54.1 27.4
M 55.1 25.95
L 55.1 25.95 55.15 25.9 55.1 25.95
M 55.15 25.85
L 55.25 25.75 55.15 25.9 55.15 25.85
M 57.35 29.85
L 57.4 29.85 57.4 29.85 57.35 29.85
M 58.35 25.9
L 58.35 25.85 58.4 25.9 58.4 25.85 58.3 25.75 58.25 25.75 58.3 25.8 58.15 25.75 58.1 25.75 58.15 25.7 58.1 25.7
Q 58.051171875 25.698828125 58.1 25.65
L 57.85 25.55 57.85 25.6 57.7 25.55 57.75 25.55 57.65 25.45 57.4 25.35 56.6 25.35 56.55 25.3 56.25 25.35 56.1 25.3 56.1 25.3 55.95 25.25 56 25.3 56 25.35 56.05 25.4 56 25.4 56.1 25.5 55.9 25.55 55.9 25.5 55.8 25.55 55.55 25.65 55.5 25.65 55.5 25.65 55.45 25.65 55.25 25.75 55.4 25.75 55.4 25.8 55.15 25.85 55.15 25.95 55.2 25.95
Q 55.172265625 25.977734375 55.15 26
L 55.05 26.05 54.8 26.3
Q 54.65 26.5 54.55 26.65 54.45 26.85 54.4 27.1
L 54.4 26.95 54.45 26.7 54.55 26.5 54.5 26.45 54.55 26.4
Q 54.6 26.370703125 54.6 26.3
L 54.4 26.5 54.35 26.45 54.3 26.5 54.3 26.7 54.2 26.75 54.15 26.85 54.1 26.95 54.05 27 54.05 27.05 54.1 27 54.15 27.05 54.15 27.15 54.1 27.2 54.1 27.25 53.95 27.4 53.95 27.55 54 27.8 54 27.5 54.05 27.4 54.05 27.35 54.05 27.3 54.1 27.35 54.1 27.35 54.1 27.4 54.15 27.4 54.15 27.45 54.1 27.55 54.1 27.45 54.05 27.55 54.05 27.65 54.15 27.8 54.1 27.85 54.1 27.8 54.05 27.75 54 27.8 54 28.15 54.15 28.5 54.1 28.55 54.25 28.7 54.25 28.6 54.35 28.75 54.45 28.85 54.5 28.85 54.5 29 54.5 29.05 54.55 29.2 54.5 29.2 54.45 29.15 54.4 29.05 54.4 29.15 54.4 29.45 54.7 29.4 54.75 29.4 54.85 29.5
Q 54.95 29.6 54.8 29.6
L 55.1 29.8 55.15 29.8 55.15 29.8
Q 55.3 29.85 55.2 29.9
L 55.4 29.9 55.3 29.85 55.35 29.85
Q 55.5 29.9 55.4 29.9
L 55.6 29.95 55.5 29.95 55.65 30 55.7 30 55.8 30.05 55.95 30.05 55.85 30 55.95 30 56 30.05 55.95 30.05 56 30.1 56.1 30 56.15 30.05 56.4 30.05 56.25 30.1 56.15 30.1
Q 56.05 30 56.05 30.15
L 56.1 30.1 56.15 30.15 56.3 30.15 56.3 30.2 56.4 30.2 56.55 30.15 56.6 30.15 56.7 30.05 56.8 30 56.85 29.95
Q 56.95 30.05 57.15 29.95 57.198828125 29.948828125 57.15 29.9
L 57.25 29.9 57.2 29.95 57.35 29.85 57.35 29.85
Q 57.5 29.75 57.55 29.7
L 57.6 29.8 57.5 29.95 57.75 29.85 57.8 29.85
Q 57.848828125 29.801171875 57.8 29.8
L 57.85 29.8 58.05 29.7 58 29.75 58.15 29.65 58.2 29.65 58.35 29.55 58.35 29.45 58.25 29.6 58.1 29.6 58.15 29.55 58.25 29.4 58.25 29.3 58.3 29.3 58.4 29.2 58.4 29.15 58.5 29.05
Q 58.5 29.1 58.55 29.15
L 58.6 29.05 58.65 29 58.65 29.05 58.6 29.05 58.65 29.1 58.7 29 58.75 28.95 58.75 28.9 58.85 28.75 58.8 28.55 58.9 28.45 58.95 28.4 58.95 28.5 58.9 28.55 58.9 28.6 58.95 28.6 58.95 28.55 59 28.45 58.95 28.6
Q 58.9 28.7 58.95 28.75
L 59 28.65
Q 58.984765625 28.616796875 58.95 28.65
L 59 28.6 59.05 28.5 59.05 28.4
Q 59.1751953125 28.2748046875 59.2 28.15
L 59.15 28.1 59.2 28.05 59.15 28.1 59.15 27.75 59.1 27.8 59.15 27.55 59.1 27.4 59.1 27.45 59.05 27.35 59.05 27.2 59 27.15
Q 59.05 27.1 59 26.95
L 59 26.75 58.95 26.75
Q 58.9 26.75 58.9 26.6
L 58.9 26.55 58.7 26.25 58.7 26.2 58.35 25.9
M 58.3 25.85
L 58.25 25.85 58.15 25.8 58.25 25.8 58.3 25.85
M 57.4 25.6
L 57.4 25.6 57.35 25.6 57.4 25.6
M 56.4 25.5
L 56.45 25.5 56.4 25.5 56.4 25.5
M 56.5 25.65
Q 56.4625 25.65 56.4 25.65
L 56.45 25.6 56.5 25.65
M 58.05 29.2
L 58.2 29.15 58.1 29.25 58.1 29.2 58.05 29.3 58.05 29.35 58 29.35 57.9 29.45 57.9 29.35 58 29.3 58.05 29.2
M 56.65 29.8
Q 56.720703125 29.820703125 56.75 29.85
L 56.65 29.85 56.25 29.9 56.25 29.85 56.1 29.85 56 29.8
Q 56 29.85 55.95 29.8
L 55.9 29.8 55.6 29.7 55.55 29.7
Q 55.45 29.6 55.55 29.6 55.600390625 29.627734375 55.65 29.65 55.7251953125 29.68125 55.8 29.7
L 55.95 29.75 56.05 29.75 56.25 29.8 56.65 29.8
M 54.65 29.3
L 54.65 29.3 54.65 29.3 54.75 29.35 54.75 29.35 54.65 29.3
M 54.65 29.3
L 54.7 29.3 54.8 29.35 54.65 29.3
M 55 29.25
Q 55.025390625 29.269140625 55.05 29.25 55.0875 29.307421875 55.1 29.3
L 55.1 29.35 55.2 29.4
Q 55.3154296875 29.4578125 55.4 29.5 55.459765625 29.544921875 55.5 29.55
L 55.5 29.6 55.35 29.55 55.25 29.5 55.15 29.5
Q 55.2 29.45 55.15 29.45 55 29.35 54.95 29.3
L 54.9 29.25 54.95 29.25 54.8 29.05 54.85 29.05 54.9 29.15 54.9 29.15 55 29.25
M 58.55 25.85
L 58.55 25.9 58.75 26.05 58.8 26.15 58.85 26.2 58.95 26.4 58.85 26.35 58.9 26.4 59.05 26.6 59.1 26.7 59.05 26.65 59.05 26.75 59.1 26.95 59.1 26.85
Q 59.15 26.85 59.15 27.05 59.2 27.05 59.2 27.1
L 59.25 27.1 59.25 26.9
Q 59.2 26.95 59.2 26.75
L 59.15 26.7 59.15 26.6 59.1 26.55 59.15 26.55
Q 59.1 26.45 59.05 26.5
L 59 26.3 59 26.25 58.95 26.15 58.9 26.1 58.9 26.05 58.5 25.65 58.35 25.55 58.3 25.55 58.4 25.6 58.45 25.65 58.3 25.6 58.45 25.7 58.45 25.75
Q 58.55 25.8091796875 58.55 25.85 Z"/>
</g>
</defs>

<g transform="matrix( 1, 0, 0, 1, 0,0) ">
<use xlink:href="#Layer1_0_FILL"/>
</g>
</svg>
