
<svg xmlns="http://www.w3.org/2000/svg" version="1.1" xmlns:xlink="http://www.w3.org/1999/xlink" preserveAspectRatio="none" x="0px" y="0px" width="100px" height="100px" viewBox="0 0 100 100">
<defs>
<g id="Layer1_0_FILL">
<path fill="#000000" stroke="none" d="
M 47.85 56.3
L 47.7 56.45 47.85 56.5
Q 47.9 56.4 47.85 56.3
M 47.95 56
Q 47.85 56 47.85 55.9
L 47.6 56.1 47.85 56.3 48.15 56 47.95 56
M 42.7 61.15
L 42.5 61.3 42.6 61.3 42.7 61.15
M 40.55 57.5
Q 40.9 57.4 41.05 57.4
L 40.95 57.1
Q 40.9 57.3 40.55 57.35 40.2 57.4 40.15 57.65 40.3 57.55 40.55 57.5
M 40.6 54.05
Q 40.65 54 40.6 53.95 40.5 54 40.45 54.05 40.5 54.05 40.6 54.05
M 42.15 53.8
Q 42.05 53.7 41.85 53.75 41.65 53.8 41.6 53.6 41.666796875 53.399609375 41.75 53.3 41.5775390625 53.399609375 41.45 53.4 41.5 53.40078125 41.5 53.45 41.55 53.6 41.35 53.6 41.15 53.65 41.15 53.75
L 41.3 53.7
Q 41.4 53.8 41.2 53.9 41.1 53.95 40.95 53.9 40.85 53.9 40.85 53.75
L 40.75 53.9 40.7 53.8
Q 40.7484375 53.903125 40.65 54.1 40.55 54.3 40.7 54.4 40.75 54.4 40.95 54.45 41.1 54.45 41.2 54.4 41.1 54.15 41.35 54.05 41.7 53.9 41.75 53.8 42.05 53.9 42.15 53.8
M 56.3 59.6
Q 56.3 59.8 56.2 59.9
L 56.45 59.8
Q 56.35 59.7 56.4 59.6 56.45 59.5 56.4 59.4 56.3 59.45 56.3 59.6
M 56.9 59
L 56.6 59.1
Q 56.85 59.15 56.85 59.5 56.9 59.85 57.15 59.9 56.95 59.6 56.9 59
M 58.5 56
Q 58.5767578125 56.0767578125 58.5 56.1 58.6435546875 56.037109375 58.6 55.95 58.45 55.95 58.5 56
M 54.55 59.45
Q 54.5 59.4 54.45 59.45 54.5 59.55 54.55 59.6
L 54.55 59.45
M 54.35 57.7
Q 54.35 57.75 54.3 57.8 54.45 57.7 54.55 57.85 54.55 57.6 54.45 57.45 54.35 57.4 54.35 57.7
M 56.95 52.4
L 56.95 52.5
Q 56.95 52.75 56.75 52.75 56.8 52.85 56.95 52.95 57.1 53.1 57 53.25 56.751953125 53.25 56.7 53.2 56.8001953125 53.3009765625 56.85 53.55 56.95 53.75 57.05 53.85 57.05 53.55 57 53.4 57 53.15 57.2 53.15
L 57.1 53.6
Q 57.25 53.6 57.2 53.35 57.3 53.3 57.4 53.35 57.6 53.45 57.5 53.55
L 57.35 53.55
Q 57.3 53.55 57.3 53.7
L 57.5 54.4
Q 57.5 54.3 57.6 54.2 57.6 54.25 57.6 54.4 57.6 54.55 57.7 54.55
L 57.75 54.2
Q 57.85 54.4 58.05 54.55 58.1 54.6 58.2 54.9
L 58.25 54.85
Q 58.5 55.25 58.5 55.45
L 58.7 55.25
Q 58.6 55.5 58.7 55.5 58.9 55.5 58.95 55.6 59.05 55.75 59.05 55.65 59.15 55.65 59.2 55.5 59.35 55.55 59.35 55.9 59.25 56.2 59.45 56.25 59.55 56.1 59.8 56 59.6 56 59.6 55.8 59.65 55.7 59.8 55.8 59.9 55.85 59.9 55.7
L 60.3 55.85 58.45 53.95 58.5 53.9 58.4 53.9 57.95 53.45
Q 58.05 53.35 57.85 53.1 57.85 53.25 57.8 53.3
L 57.75 53.25 57.7 53.1
Q 57.7 53.05 57.4 52.85 57.2 52.7 57.45 52.55 57.1 52.5 57.05 52.35
L 56.95 52.4
M 56.5 52.1
Q 56.5 52.2 56.4 52.2
L 56.6 52.45 56.75 52.2 56.5 51.95 56.5 52.1
M 56.95 52.2
Q 56.9 52.15 56.75 52.2
L 56.95 52.4 56.95 52.2
M 64 65.35
Q 63.95 65.25 63.95 65.2 63.9 65.25 63.8 65.25 63.75 65.25 63.7 65.2 63.65 65.2 63.6 65.15 63.7 65.3 63.55 65.55 63.4 65.75 63.6 65.85 63.6 65.8 63.65 65.75 63.8947265625 65.8478515625 63.9 66
L 63.9 65.9 64.15 66.25
Q 64.25 66.1 64.1 66 63.95 65.9 64.05 65.75
L 64.25 65.9 64.1 65.5
Q 64.1 65.65 63.95 65.65 63.9 65.7 63.9 65.55 64 65.4 64 65.35
M 63.25 64.65
Q 63.25 64.55 63.2 64.45 63.2 64.4 63.1 64.25 62.95 64.3 63.05 64.45 63.1 64.6 63.05 64.7
L 62.95 64.6
Q 62.8 64.55 62.8 64.85
L 63.05 65 62.95 65.35
Q 62.55 65.3 62.55 65.5 62.6 65.5 62.75 65.65 62.95 65.8 63.15 65.7
L 63.2 65.2
Q 63.35 65.3 63.35 65.35
L 63.6 65.1
Q 63.6125 65.0125 63.65 64.9 63.5 64.9 63.25 64.65
M 62.5 64.45
L 62.05 64.25
Q 62.2 64.35 62.2 64.45 62.35 64.55 62.5 64.55
L 62.4 64.8
Q 62.15 64.7 61.95 64.3 61.85 64.8 62.2 65.35 62.3 65.4 62.3 65.3 62.35 65.2 62.45 65.2 62.2 65.05 62.4 64.9
L 62.5 65.1
Q 62.6 64.9 62.7 64.9
L 62.55 64.75
Q 62.45 64.6 62.6 64.55 62.75 64.7 62.75 64.5 62.75 64.4 62.7 64.25
L 62.6 64.2
Q 62.75 64.5 62.5 64.45
M 62.85 63.6
Q 62.7 63.6 62.75 63.7 62.846875 63.796875 62.8 63.9 62.85 63.796875 62.85 63.7
L 62.85 63.6
M 63.35 60.1
L 63.4 59.95
Q 63.5 59.95 63.5 60.2
L 63.65 60 63.4 59.7 63.35 60.1
M 62.95 59.7
Q 62.95 59.8 63.05 59.9 63.1 60 63.2 59.9 63.25 59.8 63.15 59.8 63.05 59.9 63.05 59.75 63.15 59.75 63.25 59.6 63.35 59.5 63.3 59.35
L 62.95 59.7
M 36.85 64.7
Q 36.95390625 64.6 37.2 64.6 37.05 64.45 36.9 64.65 36.875390625 64.674609375 36.85 64.7
M 37.15 64.85
Q 37 64.9 36.85 64.7 36.706640625 64.8697265625 36.75 65 36.85 64.95 37.15 65 37.4 65 37.5 64.85 37.3 64.75 37.15 64.85
M 40.2 56.65
L 40.3 56.95
Q 40.35 56.85 40.45 56.9 40.55 56.95 40.65 56.85 40.65 56.8 40.45 56.8 40.253125 56.8 40.2 56.65
M 37.05 40.2
Q 36.95 40.05 36.85 40.15 36.8 40.3 36.9 40.25 37 40.2 37.05 40.3 36.9 40.3 36.8 40.45 36.7 40.55 36.75 40.7
L 37.1 40.35
Q 37.1 40.3 37.05 40.2
M 36.65 40.1
Q 36.55 40.1 36.55 39.9
L 36.4 40.05 36.65 40.35 36.75 39.95 36.65 40.1
M 37.3 36.35
Q 37.20234375 36.25234375 37.25 36.2 37.2 36.25234375 37.2 36.35 37.2 36.4 37.2 36.5 37.35 36.45 37.3 36.35
M 36.5 34.55
Q 36.65 34.35 36.5 34.2 36.5 34.25 36.4 34.3 36.2 34.2 36.2 34.05
L 36.15 34.15 35.9 33.8
Q 35.8 33.95 35.95 34.05 36.1 34.15 36 34.3
L 35.85 34.15 35.95 34.55
Q 35.95 34.4 36.1 34.4 36.2 34.35 36.2 34.55 36.05 34.65 36.05 34.7 36.1 34.8 36.1 34.9 36.15 34.8 36.25 34.8 36.3 34.8 36.35 34.9 36.4 34.9 36.45 34.9 36.35 34.75 36.5 34.55
M 37.3 34.4
Q 37.15 34.25 36.95 34.35
L 36.85 34.9
Q 36.75 34.75 36.75 34.7
L 36.5 35 36.45 34.9
Q 36.4984375 35.003125 36.4 35.2 36.55 35.2 36.85 35.4 36.8 35.55 36.85 35.65
L 36.95 35.85
Q 37.1 35.75 37.05 35.6 36.95 35.45 37.05 35.35
L 37.1 35.45
Q 37.25 35.5 37.25 35.2
L 37 35.05 37.1 34.7
Q 37.5 34.75 37.5 34.55 37.45 34.55 37.3 34.4
M 37.85 34.7
Q 37.75 34.65 37.75 34.75 37.7 34.9 37.6 34.9 37.85 35 37.65 35.15
L 37.55 34.95
Q 37.5 35.15 37.4 35.15 37.4 35.2 37.5 35.3 37.6 35.45 37.5 35.55 37.3 35.35 37.3 35.55 37.3 35.65 37.35 35.85
L 37.45 35.85
Q 37.3 35.55 37.6 35.6
L 38 35.85
Q 37.85 35.7 37.85 35.65 37.7 35.5 37.55 35.5
L 37.7 35.3
Q 37.9 35.35 38.1 35.75 38.25 35.25 37.85 34.7
M 62.95 35.1
Q 62.7 35.05 62.6 35.2 62.75 35.3 62.95 35.2 63.05 35.15 63.2 35.35 63.3435546875 35.18046875 63.3 35.05 63.25 35.1 62.95 35.1
M 63.2 35.35
Q 63.09609375 35.45 62.85 35.45 63 35.6 63.15 35.4 63.174609375 35.375390625 63.2 35.35
M 59.45 46
Q 59.4 46.05 59.45 46.1 59.55 46.05 59.6 46 59.55 46 59.45 46
M 59.8 43.15
Q 59.7 43.2 59.6 43.15 59.5 43.15 59.4 43.2 59.45 43.25 59.6 43.25 59.8 43.25 59.9 43.4
L 59.8 43.15
M 59 42.7
L 59.1 42.95
Q 59.15 42.75 59.5 42.7 59.85 42.7 59.9 42.4 59.75 42.5 59.5 42.6 59.15 42.65 59 42.7
M 57.45 38.75
L 57.4 38.9 57.6 38.8 57.45 38.75
M 43.45 47.6
L 43.3 47.85 43.6 48.15 43.6 47.95
Q 43.6 47.85 43.7 47.85
L 43.45 47.6
M 43.3 47.85
L 43.15 47.7 43.1 47.85
Q 43.15 47.9 43.3 47.85
M 41.1 44.45
Q 41 44.35 41 44.4 40.9 44.45 40.85 44.55 40.7 44.5 40.75 44.15 40.8 43.85 40.6 43.8 40.5 43.95 40.3 44.05 40.45 44.05 40.45 44.25 40.4 44.35 40.3 44.25 40.2 44.2 40.15 44.35
L 39.75 44.25 41.6 46.1 41.55 46.2 41.65 46.2 42.1 46.6
Q 42 46.7 42.2 46.95 42.2 46.85 42.25 46.75
L 42.3 46.85 42.4 46.95
Q 42.4 47 42.65 47.2 42.85 47.4 42.6 47.5 42.95 47.55 43.05 47.7
L 43.15 47.65 43.15 47.6
Q 43.15 47.3 43.35 47.3 43.25 47.2 43.1 47.1 42.95 46.95 43.05 46.85
L 43.35 46.85
Q 43.25 46.75 43.2 46.5 43.15 46.3 43 46.2 43.05 46.5 43.05 46.65 43.05 46.95 42.85 46.9
L 42.95 46.5
Q 42.8 46.5 42.85 46.7 42.75 46.75 42.65 46.7 42.5 46.6 42.55 46.5
L 42.7 46.5
Q 42.75 46.5 42.75 46.35
L 42.6 45.65
Q 42.6 45.75 42.5 45.85 42.45 45.85 42.45 45.65 42.45 45.55 42.35 45.5
L 42.3 45.85
Q 42.2 45.65 42.05 45.55 41.95 45.45 41.85 45.2 41.55 44.8 41.55 44.65
L 41.4 44.8
Q 41.5 44.55 41.35 44.55 41.2 44.55 41.1 44.45
M 41.55 44.05
Q 41.5 44 41.55 43.9 41.4 44 41.5 44.1 41.6 44.1 41.55 44.05
M 43.45 40.95
Q 43.25 40.9 43.2 40.55 43.15 40.2 42.9 40.15 43.1 40.45 43.15 41.05
L 43.45 40.95
M 43.7 40.65
Q 43.75 40.65 43.75 40.45 43.75 40.253125 43.9 40.2
L 43.6 40.3
Q 43.7 40.35 43.65 40.45 43.6 40.55 43.7 40.65
M 45.5 40.45
L 45.55 40.6
Q 45.55 40.65 45.65 40.6 45.55 40.5 45.5 40.45
M 45.75 42.4
Q 45.75 42.3 45.75 42.25 45.65 42.35 45.55 42.2 45.5 42.5 45.6 42.6 45.7 42.7 45.75 42.4
M 40.9 57.7
Q 40.9 57.55 40.85 57.5 40.75 57.5 40.8 57.6 40.85 57.65 40.9 57.7
M 42.95 53.8
L 42.6 54
Q 42.7 54.05 43.05 53.8 43 53.8 42.95 53.8
M 52 56.15
L 52.1 56.3
Q 52.2 56.1 51.85 56
L 51.95 56.2 52 56.15
M 62.05 58.7
L 62.2 58.55 62.1 58.5 62.05 58.7
M 62.2 58.55
L 62.4 58.7 62.6 58.5
Q 62.5 58.35 62.2 58.55
M 62.1 58.5
L 62.1 58.35 61.95 58.4 62.1 58.5
M 37.95 41.55
L 37.95 41.7 38.1 41.65 37.95 41.55
M 37.85 41.5
L 37.7 41.4 37.45 41.55
Q 37.6 41.7 37.85 41.5
M 37.85 41.5
L 37.95 41.55 38.05 41.4 37.85 41.5
M 57.7 46.25
Q 57.7486328125 46.25 57.75 46.25 57.6970703125 46.1146484375 57.85 46 57.75 46.05 57.45 46.1 57.4 46.2 57.7 46.25
M 58.25 46.3
L 58.3 46.3
Q 58.05 46.2 57.95 46.25 58.05 46.35 58.25 46.3
M 52.2 43.6
Q 52.15 43.65 52.2 43.8
L 52.4 43.6 52.2 43.6
M 51.95 44.05
L 52.1 44.05
Q 52.2 44.05 52.2 44.15
L 52.45 43.95 52.2 43.8 51.95 44.05
M 59.25 42.5
Q 59.25 42.4 59.15 42.4 59.15 42.5 59.2 42.6 59.3 42.55 59.25 42.5
M 48.25 44.05
L 48.15 43.85 48.05 43.9 47.95 43.75
Q 47.85 43.95 48.25 44.05
M 59.45 37.05
Q 59.25 37.15 59.2 37.1 59.2 37.15 59.7 37.2 59.85 37.25 59.9 37.35 59.75 37.3 59.8 37.4 59.85 37.5 59.75 37.5 59.75 37.4 59.6 37.3 59.5 37.2 59.35 37.25
L 59.7 37.6
Q 59.55 37.75 59.35 37.6 59.15 37.5 59.05 37.5 59.05 37.6 58.95 37.6 58.8 37.6 58.75 37.6 58.8 37.4 58.9 37.4 58.85 37.35 58.75 37.5 58.65 37.6 58.55 37.6 58.7 37.65 58.65 37.75 58.55 37.85 58.6 37.85 58.6 37.95 58.6 38
L 58.5 37.95
Q 58.4 38 58.45 38.15 58.3 38.25 57.95 38.15 58.05 38.4 57.85 38.45 57.65 38.55 57.6 38.7
L 57.75 38.55
Q 57.85 38.55 57.85 38.6
L 56.4 39.85
Q 56.4 40 56.5 40.15 56.55 40.25 56.4 40.4 56.35 40.35 56.25 40.1
L 56 40.3 56.1 40.35 55.85 40.45
Q 55.9 40.6 56.2 40.5 56.3 40.45 56.35 40.5 56.1 40.65 55.95 40.65 56.4 40.9 56.45 41
L 56.65 41
Q 56.8 41 56.85 40.9 56.85 40.65 56.65 40.65 56.85 40.5 56.95 40.65 56.95 40.85 57 40.9 56.85 41 56.75 41.1 56.65 41.15 56.5 41.15 56.05 41.25 55.95 41.3
L 56 41.3 55.75 41.4
Q 55.8 41.3 55.75 41.2 55.85 41.2 55.9 41.2 56.2 41.3 56.25 41.1 56.1 40.85 56 40.75 56 40.95 55.8 40.95 55.7 40.9 55.8 40.75 55.85 40.65 55.7 40.65
L 55.85 40.25 53.95 42.1 53.9 42.05 53.9 42.15 53.45 42.6
Q 53.4 42.5 53.25 42.6 53.1515625 42.6984375 53.1 42.7 53.2501953125 42.7001953125 53.3 42.75
L 53.25 42.75 53.1 42.85
Q 53.05 42.85 52.85 43.15 52.7 43.35 52.55 43.1 52.55 43.15 52.5 43.35 52.45 43.45 52.35 43.5
L 52.4 43.6 52.5 43.6
Q 52.7 43.6 52.75 43.7 52.55 43.85 52.55 44 52.7 44.05 52.75 44.15 52.6 44.15 52.5 44.3
L 52.55 44.1
Q 52.4 44.05 52.2 44.35 52.1 44.4 52.1 44.45 52.3 44.45 52.2 44.55 52.1 44.7 52.1 44.8 52.05 44.8 52 44.65 52 44.6 51.85 44.65 52 44.45 52.1 44.25 51.95 44.45 51.55 44.4 51.2 44.3 51.1 44.55 51.2 44.45 51.25 44.65 51.3 44.7 51.3 44.9
L 50.95 45.05 50.8 44.8
Q 50.65 44.8 50.65 45.15 50.7 45.4 50.45 45.4 50.3 45.3 50.55 45.2 50.25 45.25 50.25 45.6 50.25 45.65 50.25 45.7 50.2 45.65 50.15 45.55 49.8 45.25 49.7 45.1
L 49.35 45.1 49.25 45.05 49.25 45.1 49.2 45.1 48.9 44.75
Q 48.8 44.65 48.75 44.6 48.9 44.55 49.05 44.65 48.809765625 44.409765625 48.65 44.2 48.6931640625 44.2705078125 48.65 44.4
L 48.6 44.35
Q 48.55 44.25 48.4 44.25
L 48.4 44.2
Q 48.3 44.2 48.25 44.05
L 48.05 44.15
Q 48.15 44.15 48.2 44.2 48.15 44.2 48.15 44.25 48.2 44.35 48.15 44.35
L 48.1 44.3
Q 48.05 44.35 47.95 44.45
L 47.95 44.4
Q 47.8 44.2 47.95 44
L 47.7 44.05 47.85 43.15
Q 47.95 42.95 47.6 42.75 47.3 42.6 47.3 42.45 47.25 42.6 47.15 42.6 47 42.6 46.95 42.5 46.95 42.4 47.1 42.4 46.8 42.35 46.6 42.2 46.4 41.95 46.5 41.7
L 46.35 42.05
Q 46.3251953125 42.0001953125 46.3 41.9 46.3 41.955859375 46.3 42 46.15 41.9 45.85 41.75 45.85 41.65 46 41.6 46.163671875 41.6818359375 46.25 41.8 46.219921875 41.7498046875 46.2 41.7 46.150390625 41.551171875 46.15 41.45 46.14921875 41.5 46.1 41.5 46 41.5 45.95 41.35 45.9 41.15 45.85 41.15
L 45.85 41.3
Q 45.8 41.4 45.7 41.2 45.65 41.1 45.65 40.95 45.7 40.85 45.85 40.85
L 45.65 40.75 45.75 40.7
Q 45.646875 40.7484375 45.45 40.65 45.25 40.55 45.2 40.7 45.2 40.75 45.1 40.95 45.1 41.1 45.2 41.2 45.4 41.1 45.55 41.35 45.65 41.55 45.75 41.7 45.7 41.65 45.65 41.65 45.3 41.5 45.25 41.3 45.1 41.7 44.8 41.75 44.9 41.8 45.2 42.15 45.25 42.15 45.25 41.95 45.25 41.7 45.1 41.65 45.35 41.5 45.35 41.75 45.45 42.05 45.65 41.85 45.7 41.9 45.75 41.95 45.75 42.05 45.75 42.15 45.8 42.1 45.85 42.05 45.85 42.1 45.85 42.2
L 45.8 42.25 45.85 42.25
Q 45.8 42.4 45.9 42.5
L 45.75 42.75 45.9 42.9
Q 45.75 42.95 45.55 42.7 45.35 42.4 45.25 42.35 45.35 42.2 45.25 42.15
L 45.1 42.35
Q 45.05 42.25 45 42.15
L 45.05 42.15
Q 45 41.95 44.9 42.05 44.8015625 42.05 44.8 42.1
L 44.65 42.15 44.55 42.05
Q 44.5 41.95 44.6 41.9
L 44.25 41.85 44.45 41.65
Q 44.2 41.65 44.2 41.5
L 44.25 41.4
Q 44.25 41.45 44.3 41.45 44.65 41.7 44.65 41.75 44.65 41.65 44.7 41.5 44.7 41.4 44.75 41.2
L 44.85 41.1 44.85 40.9
Q 44.75 40.9 44.75 41 44.75 41.1 44.7 41.1 44.6 41.1 44.65 40.9 44.65 40.75 44.7 40.7 44.9 40.8 44.9 40.7 44.9 40.55 45 40.55 45.15 40.4 45 40.25 44.9 40.1 44.8 40.15 44.5 40.35 44.35 40.5 44.35 40.45 44.25 40.45 44.1 40.4 44.05 40.35 44.1 40.45 43.9 40.75 43.7 40.9 44 41.05 44.05 41 43.95 41 44 40.95 44.05 41 44.15 41.05 44.15 41.3 44.15 41.35 44.15 41.4 44.1 41.5 44.05 41.55 44 41.6 43.9 41.55 44 41.5 44 41.35 43.95 41.15 43.8 41.1
L 43.55 41.4 43.3 41.2 43.35 41.25
Q 43.2 41.3 43.1 41.15 43 40.95 42.85 40.9
L 42.7 40.6
Q 42.6009765625 40.3525390625 42.85 40.35 42.6984375 40.34765625 42.6 40.2 42.6 39.95 42.55 39.85
L 42.8 39.95
Q 42.75 39.55 42.85 39.25
L 42.65 39.45
Q 42.3 39.15 42.15 39 41.9 38.7 41.95 38.5 41.85 38.4 41.55 38.4 41.3 38.4 41.2 38.15 41.5 38 41.25 37.85 41.25 38.25 41.05 38.05 41.1 37.85 40.85 37.75 40.6 37.6 40.6 37.4 40.45 37.35 40.35 37.3 40.2 37.25 40.15 37.4 40.55 37.7 40.5 37.85 40.7 37.9 40.65 37.7 40.85 37.8 40.85 37.9 40.9 38.05 41 38.1 40.95 38.15 40.85 38.15 40.75 38.15 40.75 38.05 40.65 38.15 40.75 38.4 40.85 38.6 40.6 38.65 40.5 38.55 40.55 38.2 40.55 37.95 40.3 37.95 40.3 38.05 40.35 38.15 40.45 38.3 40.35 38.5
L 40.15 38.4 40.2 38.15 40.15 38.2
Q 39.85 38.15 39.9 37.85 40 37.45 39.95 37.35 40.1 37.35 40.25 37.15 40.35 36.95 40.45 36.95 40.25 36.6 40 36.85 40.05 37.15 39.9 37.25 39.8 37.4 39.85 37.6 39.8 37.6 39.65 37.8 39.55 37.95 39.4 37.85 39.4 37.7 39.5 37.65 39.6 37.6 39.55 37.5
L 39.45 37.5
Q 39.45 37.4 39.35 37.4 39.3 37.35 39.3 37.2
L 39.25 37.3
Q 39.15 37.3 39.15 37.15 39.15 37.05 39 37.05 39.15 36.95 39.15 36.85
L 39.1 36.65
Q 39.15 36.65 39.45 36.65 39.65 36.65 39.8 36.75 39.6 37.05 39.65 37.15
L 39.5 36.95 39.55 37.15 39.7 37.2
Q 39.65 37.05 39.75 36.95 39.9 36.75 39.9 36.7 39.75 36.65 39.7 36.55 39.7 36.5 39.65 36.45 39.5 36.6 38.7 36.35
L 38.8 36.45
Q 38.8 36.7 38.5 36.55
L 38.5 36.45
Q 38.45 36.45 38.4 36.45 38.35 36.35 38.4 36.2 38.4 36 38.35 35.9 38.25 36.3 38.1 36.25 37.95 36.3 37.8 36.3 37.6 36.35 37.55 36.15 37.6 36.1 37.5 35.95
L 37.5 36 37.25 36
Q 37.2 36.1 37.4 36.2 37.55 36.25 37.5 36.4
L 37.35 36.55
Q 37.5 36.75 37.45 36.95 37.45 36.85 37.4 36.65 37.35 36.65 37.35 36.75 37.4 36.75 37.35 36.8 37.3 36.75 37.25 36.75
L 37.2 36.65
Q 37.1 36.55 37.05 36.5
L 37.1 36.5 37 36.35
Q 37.0375 36.425 37 36.5 36.8 36.2 36.65 35.9 36.3 35.2 36 34.95 36.1 35.05 36.1 35.25 36.05 35.35 35.95 35.45
L 35.8 35.3
Q 35.85 35.15 35.7 34.85 35.55 34.85 35.55 34.95 35.3 34.9 35.25 34.45 35.15 33.95 34.9 33.8
L 35 34.7 34.75 34.7 34.75 35.1
Q 34.65 35.1 34.65 34.9 34.6 34.8 34.55 34.85 34.55 35 34.5 35.05 34.35234375 35.00078125 34.35 34.9 34.351171875 35.1521484375 34.55 35.5 34.8 35.9 34.9 36.1 35 36.15 35 35.9 35.25 36 35.3 36.2 35.3 36.3 35.2 36.3 35.2 36.25 35.1 36.2 35 36.3 35.1 36.4 35.15 36.35 35.35 36.5 35.65 36.7 35.8 36.65 35.9 36.75 35.85 36.85
L 35.85 36.9
Q 35.85 36.95 35.75 37 35.703125 37 35.7 37.05 35.7044921875 36.9470703125 35.85 36.85 35.65 36.7 35.55 36.75 35.6 36.85 35.55 37.15 35.55 37.4 35.7 37.5 35.75 37.4 35.75 37.25
L 36.05 37.2
Q 36.1 37.5 36.2 37.7 36.15 37.7 36.1 37.65 36.05 37.6 36.1 37.5
L 36 37.5
Q 35.9 37.7 36.05 37.95 36.1970703125 38.244140625 36.2 38.4 36.2015625 38.3 36.25 38.3 36.55 38.35 36.65 38.65 36.55 38.65 36.5 38.5 36.5 38.55 36.55 38.8 36.45 38.8 36.4 38.85 36.35 38.9 36.3 38.85 36.35 39 36.55 39.1 36.65 39.05 36.7 38.9 36.7 38.95 36.9 38.95 37.05 38.95 37.05 39.05 36.8603515625 39.0025390625 36.85 39.45 36.75 39.75 36.95 39.65
L 36.95 39.5
Q 36.9 39.45 37 39.35
L 37.1 39.55 37.15 39.45 37.35 39.7
Q 37.3 39.85 37.1 40.3 37.2 40.25 37.3 40.45
L 37.3 40.4
Q 37.4 40.45 37.55 40.6 37.6056640625 40.711328125 37.6 40.75
L 37.7 40.35
Q 37.8 40 38.1 40.35 38.25 40.5 38.1 40.7 37.95 40.95 37.95 41
L 38 41
Q 38.15 41.05 38.05 41.3 37.9275390625 41.2693359375 37.85 41.2 37.9048828125 41.2548828125 37.95 41.3 38 41.35 38.05 41.4 38.0869140625 41.4369140625 38.05 41.45 38.1595703125 41.3595703125 38.25 41.45 38.35 41.5 38.35 41.45 38.75 41.55 38.7 42.05 38.55 41.95 38.4 41.8 38.4 41.95 38.2 42.05 38.05 42.05 38.1 42.2
L 39.05 43.3 39.05 43.35 39.35 43.65
Q 39.5 43.7 39.65 43.6 39.75 43.5 39.9 43.65 39.85 43.7 39.65 43.8
L 39.8 44.05 39.85 44 39.95 44.2
Q 40.1 44.15 40 43.85 39.95 43.65 40.2 43.7 40.1 43.35 39.8 43.05 39.65 42.85 39.25 42.5
L 39.25 42.55
Q 39.2 42.6 39.1 42.65 39.35 42.75 39.35 42.95 39.3 43.15 39.35 43.25 39.2 43.3 39 43.05 38.75 42.85 38.8 42.6
L 39 42.7 39.05 42.4
Q 39 42.35 38.9 42.45 39 42.3 38.8 42.15 38.8 42.1 38.75 42.1 38.9 42.05 38.95 42.2 39.05 42.4 39.15 42.45
L 39.05 42.3
Q 39.05 42.15 39.2 42.2 39.35 42.3 39.3 42.15 39.3 42.2 39.2 42.15 39.05 42 39.25 41.85
L 39.4 41.9
Q 39.35 42 39.7 42.2 40.05 42.35 40.05 42.6
L 40.1 42.2
Q 40.1 42.25 40.2 42.45 40.2 42.6 40.35 42.5 40.15 42.35 40.3 42.3 40.4 42.4 40.55 42.6 40.5 42.6 40.45 42.65 40.4 42.75 40.35 42.65 40.35 43.15 40.75 43.4
L 40.8 43.45
Q 41.15 43.95 41.1 44.1 41.3 43.85 41.4 43.7 41.45 43.75 41.5 43.8 41.75 44.05 41.55 44.3 41.7 44.3 41.65 44.05 41.65 43.95 41.75 43.9 41.75 44.05 41.75 44.1
L 41.8 44.05 41.85 44.3
Q 41.75 44.25 41.65 44.35 41.55 44.5 41.75 44.55
L 41.75 44.5
Q 41.95 44.5 42.15 44.95
L 42.1 45.2
Q 42.2 45.25 42.4 45.15 42.5 45.1 42.75 44.95
L 42.75 45
Q 42.75 45.2 42.75 45.25 42.8 45.5 42.95 45.7 42.95 45.75 42.95 45.8
L 43.3 45.85
Q 43.35 45.85 43.4 45.9
L 43.45 45.85 43.45 45.9 43.4 45.9
Q 43.35 45.95 43.4 46 43.35 46.1 43.3 46.3 43.2 46.6 43.6 46.65
L 43.6 46.45
Q 43.65 46.5 44.05 47.1 44.15 47.25 44.25 47.4 44.15 47.4 44.1 47.55 44.1 47.7 43.9 47.6 43.7 47.45 43.75 47.2 43.8 47 43.7 46.9 43.5 47.3 43.8 47.55
L 43.6 47.5
Q 43.6 47.7 44 47.95 43.95 47.75 44.05 47.85 44.25 47.95 44.35 47.95 44.3 48.05 44.15 48.05 44.1 48.05 44.15 48.25 44 48.05 43.75 47.95 44 48.1 43.9 48.5 43.8 48.9 44.05 49 44 48.85 44.15 48.8 44.35 48.8 44.4 48.8
L 44.55 49.1 44.3 49.25
Q 44.35 49.4 44.65 49.35 44.9 49.35 44.9 49.6 44.85 49.7 44.75 49.6
L 44.7 49.55
Q 44.8 49.8 45.1 49.8 45.35 49.75 45.45 49.8
L 45.4 49.9
Q 45.1 50.25 45.05 50.3 45.05 50.35 45.15 50.35 44.65 50.9 44.35 50.95 44.25 51 44.25 51.15 44.2 51.3 44.3 51.3
L 44.15 51.4
Q 44.2 51.45 44.25 51.4
L 44.35 51.4
Q 44.35 51.45 44.3 51.45 44.4 51.55 44.5 51.6 44.35 51.75 44.25 51.9
L 43.15 51.7
Q 42.95 51.65 42.75 51.95 42.601171875 52.2970703125 42.45 52.25 42.6 52.301171875 42.6 52.45 42.6 52.6 42.5 52.65 42.4 52.6 42.4 52.5 42.35 52.75 42.2 52.95 41.95 53.2 41.7 53.1
L 42.05 53.25
Q 41.9568359375 53.2849609375 41.85 53.3 41.99296875 53.3017578125 42.15 53.4 41.95 53.5 42.2 53.7 42.4 53.9 42.2 54.05 42.3 54 42.6 54 42.7 53.9 42.4 53.8 42.15 53.8 42.4 53.6
L 42.75 53.85 42.85 53.75 42.95 53.8
Q 43 53.75 43.2 53.65
L 43.2 53.7
Q 43.2 53.8 43.25 53.85 43.05 54.05 42.95 54.15 42.75 54.35 42.6 54.4
L 42.6 54.3
Q 42.55 54.4 42.5 54.4
L 42.5 54.35
Q 42.5 54.25 42.6 54.25
L 42.7 54.25 42.4 54.15 42.4 54.2 42.15 54.15
Q 42.1 54.2 42.15 54.3 42.2 54.35 42.25 54.4
L 42.3 54.45
Q 42.3 54.5 42.2 54.55
L 42 54.25
Q 41.9 54.35 41.65 54.9 41.4 54.8 41.2 54.8
L 41.1 54.7
Q 40.95 54.7 40.9 54.7 40.9 54.8 41 54.8 41.1 54.8 41.1 54.85 41.1 55 40.9 54.95 40.75 54.95 40.7 54.85 40.8 54.7 40.7 54.7 40.55 54.7 40.55 54.55 40.4 54.45 40.25 54.55 40.1 54.7 40.15 54.8 40.4 55.1 40.55 55.25 40.75 55.45 40.95 55.5 41.2 55.55 41.4 55.35 41.7 55.45 41.75 55.75 41.8 55.65 42.15 55.35 42.15 55.3 41.95 55.3 41.7 55.3 41.65 55.45 41.5 55.2 41.75 55.2 42.05 55.1 41.85 54.9 41.95 54.7 42.2 54.7 42.15 54.75 42.05 54.8 42.3 55 42.5 54.7 42.6 54.6 42.65 54.55 42.75 54.65 42.85 54.6 42.95 54.8 42.7 55 42.4 55.2 42.35 55.3
L 42.5 55.3
Q 42.4 55.45 42.15 55.55
L 42.15 55.5
Q 41.95 55.55 42.05 55.65 42.15 55.85 42.15 55.9 42 56.1 41.9 55.95
L 41.85 56.3 41.65 56.1
Q 41.65 56.15 41.6 56.3 41.55 56.35 41.5 56.35
L 41.3 56.2 41.5 55.85
Q 41.4 55.9 41.3 55.85 41.20625 55.85 41.15 55.85 41.3 55.8533203125 41.3 56 41.2 56.15 41.25 56.2
L 41.05 56.2 41.1 56.25
Q 41.1 56.35 41 56.35 40.9015625 56.35 40.9 56.4 40.9 56.199609375 40.9 56.1 40.94375 56.0125 41.05 56 40.8697265625 56.0130859375 40.55 56.15 40.45 56.2 40.45 56.3 40.4 56.4 40.35 56.5 40.45 56.5 40.7 56.65 40.9 56.85 41.05 56.55 41 56.5 41 56.6 40.85 56.4 41.4 56.4 41.45 56.45 41.55 56.5 41.6 56.55 41.55 56.65 41.5 56.55 41.3 56.55 41.15 56.6 41.1 56.75
L 41.4 57 41.2 57.25 41.25 57.2
Q 41.3 57.35 41.1 57.45 40.95 57.55 40.9 57.7
L 40.55 57.85
Q 40.351953125 57.9490234375 40.35 57.7 40.34765625 57.8515625 40.2 57.95 40.1 57.95 39.85 58
L 39.95 57.75
Q 39.55 57.75 39.25 57.7
L 39.45 57.9
Q 39.3 58.05 39 58.4 38.7 58.65 38.5 58.6 38.4 58.7 38.4 59 38.4 59.25 38.15 59.35
L 38.05 59.25
Q 37.95 59.15 37.85 59.3 37.85 59.35 38.05 59.35 38.15 59.35 38.05 59.5 37.85 59.45 37.7 59.7 37.6 59.95 37.4 59.95 37.4 60.05 37.3 60.2 37.25 60.35 37.4 60.4 37.7 60 37.85 60.05 37.85 60 37.85 59.9 37.8 59.85 37.7 59.9 37.8 59.7 37.9 59.7 38.05 59.65 38.1 59.55 38.15 59.6 38.15 59.7 38.15 59.8 38.05 59.8 38.15 59.9 38.4 59.8 38.6 59.7 38.65 59.95 38.55 60.05 38.2 60 37.95 60 37.95 60.25 38.05 60.25 38.15 60.2 38.3 60.1 38.5 60.2
L 38.4 60.4 38.15 60.35 38.2 60.4
Q 38.2 60.45 38.15 60.55 38.05 60.65 37.85 60.65 37.45 60.55 37.35 60.6 37.35 60.45 37.15 60.3 36.95 60.2 36.95 60.1 36.6 60.3 36.85 60.55 37.15 60.5 37.2 60.65 37.4 60.75 37.6 60.7 37.6 60.75 37.8 60.9 37.9 61 37.85 61.1 37.8 61.1 37.7 61.15 37.65 61.1 37.65 61.05 37.6 60.95 37.5 61
L 37.5 61.1
Q 37.4 61.1 37.4 61.2 37.35 61.25 37.2 61.25
L 37.3 61.3
Q 37.3 61.4 37.15 61.4 37 61.4 37.05 61.55 36.95 61.4 36.85 61.4
L 36.65 61.45
Q 36.55 61 36.75 60.75 37.05 60.95 37.15 60.9
L 36.95 61.05 37.15 61 37.2 60.85
Q 36.95 60.9 36.7 60.65 36.65 60.8 36.55 60.85 36.5 60.85 36.45 60.9 36.6 61.05 36.35 61.85
L 36.45 61.75
Q 36.6 61.75 36.55 61.9 36.55 61.95 36.55 62.05
L 36.4 62.1
Q 36.45 62.1 36.45 62.15 36.35 62.2 36.2 62.15 36 62.1 35.9 62.2 35.95 62.2 36.1 62.3 36.3 62.4 36.25 62.45 36.3 62.6 36.3 62.7 36.1 62.85 35.9 62.95 35.75 63.05 35.6 63.1 35.6 63.05 35.6 62.95
L 35.85 62.55
Q 35.75 62.65 35.6 62.75 35.5 62.85 35.5 63
L 35.3 62.85
Q 35.35 62.65 35.75 62.45 35.2 62.3 34.7 62.7 34.65 62.8 34.75 62.85 34.9 62.85 34.9 62.95 35 62.75 35.15 62.9
L 34.95 63
Q 34.95 63.05 35.05 63.1 35.15 63.1 35.15 63.15 35.2 63.15 35.3 63.05 35.4 62.95 35.55 63.05 35.45 63.15 35.45 63.2 35.35 63.25 35.25 63.35
L 35.2 63.3 35.2 63.35
Q 35.076171875 63.4326171875 35 63.5 35.0453125 63.5 35.1 63.5
L 35.05 63.55 35 63.55 34.7 63.45
Q 34.7 63.25 34.7 63.2 34.6 63.15 34.55 63.05 34.55 63.1 34.4 63.3 34.25 63.4 34.35 63.6
L 34.9 63.7
Q 34.75 63.8 34.7 63.8
L 34.95 64.05 34.9 64.1
Q 34.75 64.2 34.55 64.05 34.35 63.9 34.15 64.1 34.25 64.05 34.3 64.15 34.15 64.35 34.05 64.35
L 34.15 64.4 34.1 64.45 33.8 64.65
Q 33.9 64.7 34 64.65
L 34.25 64.6 34.15 64.7 34.55 64.6 34.7 64.6 34.7 64.8 35.1 64.8
Q 35.1 64.95 34.9 64.95 34.8 65 34.85 65.05 35 65 35.05 65.1 35 65.2 34.9 65.2 34.8 65.2 34.75 65.2 35.1 65.25 35.5 65 35.75 64.9 36.1 64.65 36.15 64.6 35.9 64.6 36 64.55 36 64.45 36.1 64.3 36.2 64.25 36.3 64.3 36.3 64.35 36.2 64.45 36.2 64.5 36.3 64.6 36.4 64.5 36.35 64.45 36.5 64.15 36.7 63.95 36.65 63.8 36.85 63.6 37 63.85 37.15 64 37.25 63.8
L 37.2 63.5
Q 37.8 63.4 38.1 63.05 38.05 63.05 37.95 62.85 38 62.75 38.25 62.6 38.35 62.6 38.35 62.5
L 38.8 62.45 38.85 62.5
Q 38.85 62.6 38.95 62.4
L 39.45 62.3 39.45 62.5
Q 39.4 62.5 39.25 62.6 39.1 62.6 39.05 62.5 39.05 62.6 38.9 62.7 38.8 62.8 38.75 62.85 38.8 62.7 38.6 62.7
L 38.4 62.7
Q 38.4 62.75 38.35 62.85 38.25 62.95 38.35 63
L 38.35 62.95
Q 38.4 62.85 38.45 62.9 38.6 62.9 38.5 63.05 38.5 63.2484375 38.6 63.25 38.4978515625 63.2517578125 38.2 63.5 37.95 63.65 37.75 63.7
L 37.8 63.55
Q 37.760546875 63.6296875 37.6 63.75 37.5 63.9 37.55 63.95
L 37.85 63.7
Q 37.95 63.8 37.8 63.9 37.7 64 37.7 64.05
L 37.15 64.05 37.3 63.9
Q 37.1 63.9 36.85 64.45 37 64.55 37.15 64.35 37.25 64.15 37.4 64.1 37.5 64.05 37.55 64.25 37.6 64.35 37.7 64.35 37.7 64.4 37.65 64.45 37.6 64.5 37.5 64.45
L 37.5 64.55
Q 37.7 64.6 37.95 64.5 38.244140625 64.3529296875 38.4 64.35 38.3 64.3484375 38.3 64.3 38.35 64 38.65 63.9 38.65 63.95 38.5 64.05 38.55 64.05 38.8 64 38.8 64.1 38.8 64.15 38.9 64.2 38.85 64.25 39 64.2 39.1 64 38.95 63.95 38.9 63.85 38.95 63.85 38.95 63.7 38.95 63.5 39.05 63.5 39.0025390625 63.6896484375 39.45 63.7 39.75 63.85 39.65 63.6
L 39.5 63.6
Q 39.45 63.65 39.35 63.55
L 39.55 63.45 39.45 63.4 39.7 63.2
Q 39.85 63.25 40.3 63.45 40.25 63.35 40.45 63.25
L 40.4 63.25
Q 40.45 63.15 40.6 63 40.711328125 62.9443359375 40.75 62.9
L 40.35 62.85
Q 40.2 62.8 40.2 62.7
L 40.25 62.7
Q 40.2 62.55 40.3 62.55 40.3 62.7 40.45 62.75 40.55 62.85 40.7 62.8
L 40.35 62.5 40.35 62.45
Q 40.5 62.3 40.7 62.45 40.9 62.6 41 62.6
L 41 62.55
Q 41 62.5 41.1 62.5
L 41.3 62.5
Q 41.2693359375 62.6224609375 41.2 62.65 41.2548828125 62.6451171875 41.3 62.6 41.4 62.5 41.5 62.5 41.35 62.4 41.4 62.3 41.5 62.2 41.45 62.2 41.5 62.1 41.5 62.05
L 41.55 62.1
Q 41.65 62.05 41.6 61.95 41.75 61.85 42.1 61.9 42.05 61.65 42.2 61.6 42.4 61.5 42.45 61.4
L 42.3 61.5
Q 42.2 61.5 42.2 61.45
L 43.3 60.55 43.4 60.5 43.35 60.5 43.65 60.2
Q 43.7 60.1 43.6 59.9 43.5 59.8 43.65 59.65 43.7 59.7 43.8 59.95
L 44.05 59.75 44 59.7 44.2 59.6
Q 44.15 59.45 43.9 59.55 43.8 59.6 43.75 59.55 44 59.4 44.1 59.45 43.7 59.15 43.6 59.05
L 43.4 59.05
Q 43.25 59.05 43.25 59.15 43.25 59.45 43.4 59.45 43.2 59.55 43.15 59.4 43.1 59.25 43.05 59.15 43.2 59.05 43.35 58.95 43.4 58.9 43.6 58.9 44 58.8 44.1 58.8
L 44.05 58.75 44.3 58.7
Q 44.25 58.8 44.3 58.85 44.25 58.85 44.15 58.85 43.9 58.8 43.8 58.95 43.95 59.25 44.05 59.3 44.05 59.1 44.25 59.1 44.35 59.15 44.25 59.3 44.2 59.4 44.35 59.45
L 44.25 59.8 46.1 57.95 46.2 58 46.2 57.9 46.6 57.5
Q 46.65 57.55 46.8 57.5
L 46.95 57.4
Q 46.85 57.4 46.75 57.3
L 46.85 57.3 46.95 57.2
Q 47 57.2 47.2 56.95 47.4 56.75 47.5 56.95
L 47.6 56.75
Q 47.6 56.6 47.7 56.55
L 47.65 56.45 47.6 56.45
Q 47.4 56.45 47.35 56.4 47.5 56.2 47.5 56.1 47.4 56 47.35 55.9 47.4412109375 55.9 47.5 55.75 47.441015625 55.85 47.3 55.85 47.25 55.7 47.3 55.55 47.3 55.3 47.3 55.15 47.5 55.1 47.6 55 47.5 55 47.55 54.9 47.55 54.8 47.5 54.7 47.55 54.7 47.6 54.7 47.6 54.8 47.8 55 47.95 55.1 47.7 55.15 47.78125 55.190625 47.9 55.2 47.75 55.35 47.7 55.35 47.7 55.3 47.65 55.3
L 47.7 55.2 47.55 55.2 47.35 55.25
Q 47.4 55.45 47.55 55.45 47.7 55.45 47.6 55.7 47.580078125 55.7296875 47.55 55.75
L 47.5 55.95
Q 47.65 56 47.85 55.75
L 47.9 55.75
Q 47.95 55.65 47.95 55.6 47.75 55.65 47.85 55.5 47.95 55.35 47.95 55.25 48.05 55.25 48.05 55.4 48.05 55.45 48.25 55.45 48.05 55.6 47.95 55.85 48.1 55.6 48.5 55.65 48.9 55.75 49 55.55 48.85 55.6 48.8 55.45 48.8 55.35 48.8 55.2
L 49.1 55 49.25 55.25
Q 49.4 55.25 49.4 54.9 49.35 54.65 49.6 54.65 49.75 54.75 49.55 54.9 49.8 54.8 49.8 54.45
L 49.8 54.35
Q 49.85 54.45 49.9 54.5 50.25 54.8 50.35 54.95
L 50.75 55 50.85 55 50.85 54.95 51.2 55.3
Q 51.4 55.55 51.45 55.75 51.5 55.8 51.65 55.85 51.75 55.85 51.85 56
L 52 55.9
Q 51.95 55.9 51.9 55.9 51.95 55.85 51.9 55.8 51.85 55.75 51.9 55.7
L 51.95 55.75
Q 52.05 55.7 52.1 55.65 52.25 55.85 52.1 56.05
L 52.35 56 52.2 56.9
Q 52.1 57.1 52.45 57.3 52.75 57.5 52.75 57.6 52.8 57.5 52.95 57.45 53.05 57.45 53.15 57.6 53.1 57.65 52.95 57.65 53.25 57.7 53.45 57.85 53.67890625 58.07890625 53.6 58.3
L 53.7 58.05
Q 53.75 58.15 53.85 58.35 53.9 58.5 53.9 58.6
L 53.95 58.55
Q 54.05 58.55 54.1 58.7 54.15 58.9 54.25 58.9
L 54.2 58.8
Q 54.25 58.7 54.35 58.9 54.45 58.95 54.4 59.1 54.35 59.25 54.25 59.2
L 54.4 59.3 54.3 59.35
Q 54.403125 59.3015625 54.6 59.4 54.8 59.5 54.9 59.35
L 54.95 59.1
Q 54.95 58.95 54.9 58.85 54.65 58.95 54.55 58.7 54.4712890625 58.503515625 54.4 58.4 54.75 58.6 54.8 58.75 54.95 58.35 55.25 58.3 55.15 58.25 54.85 57.9 54.8 57.95 54.8 58.15 54.8 58.35 54.95 58.4 54.7 58.6 54.7 58.3 54.6 58.05 54.45 58.2
L 54.35 58.15
Q 54.35 58 54.3 57.95 54.253125 57.95 54.25 58.05 54.25 57.9439453125 54.25 57.85
L 54.25 57.8
Q 54.25 57.65 54.15 57.6
L 54.35 57.3 54.15 57.2
Q 54.35 57.1 54.5 57.35 54.7 57.65 54.8 57.7
L 54.8 57.6 54.85 57.6
Q 54.85 57.65 54.8 57.7 54.7 57.85 54.8 57.9
L 55 57.75
Q 55 57.8 55.05 57.9
L 55 57.9
Q 55.05 58.1 55.2 58.05
L 55.3 57.95
Q 55.4 57.95 55.45 57.95
L 55.5 58.05
Q 55.55 58.1 55.45 58.15
L 55.85 58.2 55.65 58.4
Q 55.85 58.4 55.85 58.6
L 55.8 58.65
Q 55.8 58.6 55.75 58.6 55.45 58.35 55.4 58.3 55.4 58.4 55.35 58.55 55.35 58.7 55.3 58.9
L 55.2 58.95 55.2 59.15
Q 55.3 59.15 55.3 59.05 55.3 58.95 55.35 58.95 55.45 58.95 55.45 59.15 55.45 59.3 55.35 59.35 55.2 59.25 55.2 59.35 55.2 59.55 55.05 59.55 54.9 59.65 55.05 59.8 55.2 60 55.25 59.9 55.55 59.7 55.7 59.55 55.75 59.6 55.8 59.6 55.95 59.65 56 59.7 55.95 59.6 56.2 59.35 56.35 59.15 56.1 59 56 59.05 56.1 59.05 56.05 59.1 56 59.05 56 58.9 55.9 58.8 55.9 58.7 55.9 58.65 55.95 58.55 56 58.5 56.05 58.45 56.2 58.5 56.1 58.55 56.1 58.7 56.1 58.9 56.3 58.95
L 56.5 58.7 56.75 58.85 56.75 58.8
Q 56.85 58.8 56.95 58.9 57.05 59.1 57.2 59.15
L 57.4 59.45
Q 57.4990234375 59.697265625 57.2 59.7 57.40078125 59.703125 57.45 59.9 57.45 60.1 57.5 60.2
L 57.25 60.1
Q 57.3 60.5 57.2 60.8
L 57.4 60.6
Q 57.75 60.9 57.9 61.05 58.15 61.35 58.15 61.55 58.2 61.65 58.5 61.65 58.75 61.65 58.85 61.9 58.55 62.05 58.8 62.2 58.8 61.85 59 62.05 58.95 62.2 59.2 62.3 59.45 62.5 59.45 62.65 59.6 62.7 59.7 62.75 59.85 62.8 59.9 62.7 59.5 62.4 59.55 62.2 59.35 62.15 59.4 62.35 59.2 62.3 59.2 62.15 59.15 62.05 59.05 61.95 59.1 61.9 59.2 61.95 59.35 61.95 59.35 62 59.4 61.95 59.3 61.65 59.2 61.45 59.45 61.4 59.55 61.5 59.55 61.85 59.55 62.1 59.75 62.1 59.75 62.05 59.7 61.9 59.6 61.75 59.7 61.55
L 59.9 61.65 59.9 61.85
Q 60.2 61.95 60.15 62.2 60.1 62.6 60.1 62.7 59.95 62.7 59.8 62.9 59.7 63.1 59.6 63.1 59.8 63.45 60.1 63.2 60 62.95 60.15 62.8 60.25 62.7 60.2 62.45 60.25 62.45 60.4 62.25 60.55 62.1 60.65 62.2 60.65 62.4 60.55 62.4 60.45 62.45 60.55 62.6
L 60.65 62.55
Q 60.6 62.65 60.7 62.7 60.75 62.7 60.75 62.85
L 60.8 62.75
Q 60.9 62.75 60.9 62.9 60.9 63.05 61.05 63.05 60.9 63.1 60.9 63.25
L 60.95 63.4
Q 60.9 63.4 60.65 63.4 60.4 63.4 60.25 63.3 60.45 63 60.45 62.9
L 60.55 63.1 60.55 62.9 60.35 62.85
Q 60.4 63 60.3 63.15 60.2 63.3 60.2 63.35 60.3 63.4 60.35 63.5 60.35 63.6 60.45 63.6 60.55 63.45 61.4 63.7
L 61.3 63.6
Q 61.25 63.35 61.55 63.5
L 61.55 63.6
Q 61.6 63.6 61.65 63.6 61.7 63.7 61.65 63.9 61.65 64.05 61.7 64.15 61.85 63.8 61.95 63.8 62.1 63.75 62.25 63.75 62.45 63.7 62.5 63.9 62.5 63.95 62.55 64.1
L 62.55 64.05 62.8 64.05
Q 62.85 63.95 62.7 63.9 62.5 63.8 62.55 63.7
L 62.7 63.5
Q 62.55 63.35 62.6 63.1 62.6 63.2 62.7 63.4
L 62.7 63.35
Q 62.7 63.3 62.7 63.25 62.75 63.3 62.85 63.35
L 62.85 63.4 62.9 63.4
Q 62.95 63.5 63.05 63.6
L 62.95 63.55 63.05 63.7
Q 63.05 63.65 63.1 63.6 63.25 63.8 63.4 64.15 63.8 64.9 64.05 65.1 63.95 65 63.95 64.8 64 64.7 64.1 64.6
L 64.25 64.75
Q 64.25 64.9 64.35 65.2 64.55 65.2 64.5 65.1 64.75 65.2 64.8 65.65 64.9 66.1 65.15 66.25
L 65.1 65.35 65.3 65.35 65.3 65
Q 65.45 65 65.45 65.15 65.45 65.25 65.55 65.2 65.5 65.1 65.55 65 65.6953125 65.0484375 65.7 65.2 65.696875 64.8947265625 65.5 64.55 65.25 64.15 65.15 63.95 65.1 63.9 65.1 64.15 64.8 64.05 64.75 63.9 64.8 63.75 64.85 63.8 64.9 63.8 65 63.9 65.1 63.8 65 63.65 64.9 63.7 64.7 63.55 64.45 63.35 64.25 63.4 64.15 63.3 64.2 63.2 64.4 63.35 64.55 63.3 64.45 63.25 64.5 62.95 64.5 62.7 64.35 62.6 64.3 62.7 64.3 62.8
L 64 62.85
Q 63.95 62.6 63.85 62.4 63.9 62.35 63.95 62.4 64 62.5 63.95 62.55
L 64.05 62.55
Q 64.15 62.4 64 62.1 63.85234375 61.85390625 63.85 61.65 63.8484375 61.75 63.8 61.75 63.5 61.7 63.4 61.4 63.5 61.4 63.55 61.55 63.6 61.5 63.5 61.25 63.6 61.3 63.65 61.2 63.7 61.2 63.75 61.2 63.7 61.05 63.5 60.95 63.4 61 63.35 61.2 63.35 61.1 63.15 61.1 63.05 61.1 63 61 63.2 61.1 63.2 60.55
L 63.25 60.6
Q 63.35 60.3 63.1 60.45
L 63.15 60.55
Q 63.15 60.65 63.05 60.7
L 62.95 60.5 62.95 60.65 62.7 60.35
Q 62.75 60.2 62.95 59.8 62.85 59.8 62.75 59.6
L 62.75 59.65
Q 62.65 59.6 62.5 59.45 62.4490234375 59.3482421875 62.45 59.25 62.4087890625 59.4064453125 62.35 59.7 62.25 60.1 61.95 59.7 61.85 59.55 61.95 59.35 62.1 59.1 62.1 59.05
L 62.05 59.05
Q 61.95 59 62 58.75 62.1224609375 58.7806640625 62.15 58.8 62.1451171875 58.7951171875 62.1 58.75
L 62.05 58.7
Q 61.983984375 58.633984375 61.95 58.6 61.934765625 58.684765625 61.85 58.6 61.7 58.55 61.7 58.6 61.3 58.5 61.4 58.05 61.5 58.15 61.65 58.25 61.65 58.1 61.85 58.05 62.05 58 61.95 57.85
L 60.7 56.4
Q 60.55 56.4 60.45 56.5 60.3 56.55 60.15 56.4 60.2 56.35 60.45 56.25
L 60.25 56 60.2 56.1 60.1 55.85
Q 59.95 55.9 60.05 56.2 60.1 56.4 59.85 56.35 60 56.7 60.25 57.05 60.45 57.2 60.8 57.6 60.8 57.55 60.85 57.5
L 60.95 57.4
Q 60.75 57.3 60.75 57.1 60.75 56.9 60.7 56.8 60.85 56.75 61.1 57 61.3 57.2 61.3 57.45
L 61.1 57.4 61 57.7
Q 61.0984375 57.7 61.2 57.6 61.0521484375 57.7521484375 61.25 57.95 61.3 57.95 61.3 58 61.2 58 61.1 57.85 61.0546875 57.759375 61 57.7 60.9546875 57.62734375 60.9 57.6
L 61 57.75
Q 61 57.9 60.85 57.85 60.7515625 57.7515625 60.75 57.95 60.753125 57.853125 60.85 57.95 61 58.05 60.85 58.2
L 60.65 58.2 60.65 58.15
Q 60.7 58.05 60.35 57.85 60.0048828125 57.7021484375 60 57.5
L 60 57.85
Q 59.95 57.8 59.9 57.6 59.85 57.5 59.7 57.6 59.9 57.7 59.8 57.75
L 59.75 57.75
Q 59.65 57.65 59.55 57.5
L 59.6 57.4
Q 59.65 57.3 59.7 57.4 59.7 56.9 59.35 56.7 59.3 56.65 59.25 56.6 58.9 56.1 58.95 55.95 58.8 56.2 58.7 56.35
L 58.6 56.3
Q 58.5375 56.225 58.5 56.15 58.3875 55.9375 58.5 55.75 58.35 55.75 58.4 56 58.4 56.1 58.35 56.15 58.35 56 58.3 55.95
L 58.25 56 58.2 55.75
Q 58.35 55.85 58.4 55.7 58.5 55.55 58.35 55.55 58.15 55.55 57.9 55.1
L 57.95 54.9
Q 57.85 54.8 57.65 54.9 57.55 55 57.3 55.1 57.3 54.9 57.3 54.8 57.25 54.55 57.1 54.4 57.1 54.35 57.1 54.25
L 56.75 54.2
Q 56.7 54.2 56.65 54.2
L 56.6 54.2 56.6 54.15 56.65 54.2
Q 56.7 54.1 56.65 54.05 56.7 53.95 56.75 53.8 56.85 53.45 56.5 53.4
L 56.45 53.6
Q 56.4 53.6 56 52.95 55.9 52.8 55.85 52.7 55.9 52.65 55.95 52.5 55.95 52.4 56.2 52.5 56.35 52.6 56.3 52.85 56.3 53.05 56.4 53.15 56.55 52.75 56.25 52.5
L 56.45 52.55
Q 56.5 52.4 56.1 52.1 56.1 52.3 56 52.2 55.85 52.1 55.75 52.1 55.75 52.05 55.9 52 55.95 52 55.9 51.85 56.1 52 56.3 52.1 56.1 51.95 56.2 51.55 56.25 51.2 56 51.1 56.1 51.2 55.9 51.25 55.75 51.3 55.65 51.3
L 55.5 50.95 55.75 50.8
Q 55.75 50.65 55.4 50.7 55.15 50.7 55.15 50.45 55.2 50.35 55.3 50.45
L 55.35 50.5
Q 55.25 50.25 54.95 50.25 54.7 50.3 54.6 50.25
L 54.65 50.2
Q 55 49.8 55 49.75 55 49.7 54.9 49.7 55.45 49.15 55.75 49.1 55.8 49.05 55.85 48.9 55.85 48.75 55.75 48.75
L 55.9 48.7
Q 55.85 48.6 55.8 48.65 55.75 48.7 55.7 48.65
L 55.75 48.6
Q 55.65 48.5 55.6 48.45 55.75 48.35 55.85 48.2
L 56.9 48.35
Q 57.1 48.4 57.3 48.1 57.498828125 47.7521484375 57.6 47.8 57.4998046875 47.74921875 57.45 47.6 57.45 47.5 57.6 47.4 57.65 47.45 57.65 47.6 57.7 47.3 57.85 47.1 58.07890625 46.87109375 58.3 46.9
L 58.05 46.85
Q 58.4 46.65 58.6 46.65
L 58.55 46.6
Q 58.5 46.5 58.7 46.45 58.9 46.4 58.9 46.3
L 58.8 46.35
Q 58.65 46.3 58.9 46.2 58.95 46.1 59.1 46.15 59.25 46.2 59.2 46.3
L 59.3 46.15 59.35 46.25
Q 59.3015625 46.146875 59.4 45.95 59.5 45.75 59.35 45.65
L 59.1 45.65
Q 58.95 45.6 58.85 45.65 58.95 45.9 58.7 46 58.35 46.2 58.3 46.3 58.40859375 46.334375 58.45 46.5 58.3 46.9 57.9 46.65 58.1 46.55 57.85 46.35
L 57.8 46.3
Q 57.8154296875 46.3845703125 57.7 46.5
L 57.3 46.2 57.2 46.3
Q 57.1 46.3 57.1 46.25
L 57.45 46.1
Q 57.35 46 57 46.25 57.05 46.25 57.1 46.3 57.05 46.3 56.85 46.4 56.85 46.25 56.8 46.2 57 46 57.1 45.9 57.3 45.7 57.5 45.65
L 57.45 45.75
Q 57.503125 45.6515625 57.6 45.7
L 57.6 45.75
Q 57.55 45.85 57.5 45.85 57.4 45.8 57.35 45.85
L 57.7 45.9 57.7 45.85 57.9 45.9
Q 57.95 45.85 57.9 45.75
L 57.75 45.6
Q 57.75 45.55 57.85 45.55
L 58.05 45.8
Q 58.15 45.7 58.4 45.2 58.65 45.25 58.9 45.25
L 58.95 45.35
Q 59.1 45.35 59.15 45.35 59.15 45.25 59.05 45.25 58.95 45.25 58.95 45.2 58.95 45.1 59.15 45.1 59.3 45.1 59.35 45.2 59.25 45.35 59.35 45.35 59.55 45.35 59.55 45.5 59.65 45.65 59.8 45.5 60 45.35 59.9 45.25 59.65 45 59.55 44.8 59.3 44.6 59.1 44.55 58.9 44.55 58.7 44.75 58.35 44.6 58.3 44.3 58.25 44.45 57.9 44.7 57.95 44.75 58.15 44.75 58.35 44.75 58.4 44.65 58.6 44.85 58.3 44.9 58.05 44.95 58.2 45.15 58.1 45.35 57.85 45.35 57.95 45.3 58 45.25 57.75 45.05 57.55 45.35 57.5 45.45 57.45 45.5 57.3 45.4 57.2 45.45 57.1 45.25 57.35 45.1 57.7 44.85 57.7 44.75
L 57.6 44.75
Q 57.65 44.6 57.9 44.55 58.1 44.55 58.05 44.4 57.95 44.2 57.95 44.15 58.05 43.95 58.15 44.1
L 58.2 43.75 58.4 43.95
Q 58.4 43.9 58.45 43.8 58.5 43.7 58.6 43.7
L 58.75 43.9 58.55 44.2
Q 58.65 44.15 58.75 44.2 58.85 44.25 58.9 44.2 58.75 44.2 58.8 44.05 58.9 43.9 58.8 43.85
L 59 43.85 58.95 43.8
Q 58.95 43.7 59.05 43.7 59.1484375 43.7 59.15 43.65 59.15 43.850390625 59.15 43.95 59.10625 44.0375 58.95 44.05 59.1802734375 44.0369140625 59.5 43.9 59.6 43.9 59.6 43.8 59.65 43.7 59.7 43.55 59.6 43.6 59.35 43.4 59.15 43.25 59 43.5 59.05 43.55 59.05 43.45 59.2 43.7 58.65 43.7 58.6 43.6 58.5 43.6 58.45 43.5 58.5 43.4 58.55 43.5 58.75 43.5 58.9 43.45 58.95 43.3
L 58.7 43.05 58.85 42.8 58.8 42.85
Q 58.8 42.7 58.95 42.6 59.1 42.5 59.15 42.4
L 59.5 42.2
Q 59.698046875 42.1009765625 59.7 42.35 59.703125 42.19921875 59.9 42.15 60 42.1 60.2 42.05
L 60.1 42.3
Q 60.5 42.3 60.8 42.35
L 60.6 42.15
Q 60.75 42 61.05 41.65 61.35 41.4 61.55 41.45 61.65 41.4 61.65 41.05 61.65 40.85 61.9 40.75 61.95 40.75 62.05 40.85 62.1 40.9 62.2 40.75
L 62.05 40.75
Q 61.9 40.7 62.05 40.55 62.2 40.6 62.35 40.35 62.5 40.1 62.65 40.1 62.7 40 62.75 39.85 62.8 39.7 62.7 39.65 62.4 40.1 62.2 40 62.2 40.05 62.2 40.15 62.25 40.2 62.35 40.2 62.3 40.35 62.15 40.35 62.05 40.4 61.95 40.55 61.9 40.45 61.95 40.35 61.95 40.25 62 40.25 61.95 40.2 61.65 40.3 61.45 40.35 61.4 40.1 61.5 40 61.85 40.05 62.1 40.05 62.1 39.8 62.05 39.8 61.9 39.9 61.75 39.95 61.55 39.9
L 61.65 39.7 61.65 39.65 61.95 39.7 61.85 39.65
Q 61.85 39.6 61.9 39.55
L 61.95 39.55 61.95 39.5
Q 62.05 39.4 62.2 39.45 62.6 39.5 62.7 39.45 62.7 39.65 62.9 39.75 63.1 39.9 63.1 40 63.45 39.75 63.2 39.5 62.95 39.55 62.85 39.45 62.7 39.3 62.45 39.35
L 62.25 39.15
Q 62.15 39.05 62.2 39 62.25 38.95 62.35 38.95 62.4 38.95 62.4 39 62.45 39.1 62.6 39.05
L 62.55 38.95
Q 62.65 38.95 62.7 38.9 62.7 38.804296875 62.8 38.8
L 62.75 38.8
Q 62.75 38.65 62.9 38.65 63.05 38.65 63.05 38.5 63.1 38.65 63.25 38.65
L 63.4 38.6
Q 63.5 39.05 63.3 39.3 63 39.1 62.9 39.15
L 63.1 39 62.9 39.05 62.85 39.25
Q 63.1 39.15 63.35 39.4 63.4 39.25 63.5 39.25 63.6 39.2 63.6 39.15 63.45 39 63.7 38.2
L 63.6 38.3
Q 63.45 38.35 63.5 38.15 63.5 38.1 63.5 38
L 63.65 37.95
Q 63.6 37.95 63.6 37.9 63.7 37.85 63.9 37.9 64.05 37.95 64.15 37.85 64.1 37.85 63.95 37.75 63.8 37.7 63.8 37.6 63.8 37.45 63.8 37.35 63.95 37.2 64.15 37.15 64.3 37.05 64.45 36.95 64.45 37.05 64.45 37.1
L 64.25 37.5
Q 64.3046875 37.396875 64.45 37.3 64.55 37.2 64.55 37.05
L 64.8 37.2
Q 64.7 37.4 64.3 37.6 64.85 37.75 65.35 37.35 65.4 37.25 65.3 37.2 65.2 37.2 65.2 37.15 65.05 37.3 64.9 37.15
L 65.1 37.05 65 36.95
Q 64.9 36.95 64.9 36.9
L 64.75 37.05
Q 64.65 37.1 64.55 37 64.6 36.95 64.6 36.9 64.7 36.8 64.8 36.75
L 64.85 36.75 64.9 36.7
Q 65 36.6 65.1 36.55 65.05 36.55 65 36.55
L 65 36.5 65.1 36.55 65.35 36.6 65.35 36.85
Q 65.45 36.9 65.5 37.05 65.5 36.95 65.65 36.75 65.8 36.65 65.7 36.45
L 65.2 36.4
Q 65.3 36.25 65.35 36.25
L 65.2 36.1
Q 65.2 36.05 65.15 36.05
L 65.1 36
Q 65.15 36 65.2 35.95 65.3 35.85 65.55 36 65.75 36.15 65.9 35.95 65.8 36 65.75 35.9 65.9 35.7 66 35.7
L 65.9 35.65 66 35.65
Q 66.2 35.55 66.25 35.4
L 65.8 35.45 65.9 35.35 65.55 35.45 65.35 35.45 65.35 35.25 65 35.25
Q 65 35.1 65.15 35.1 65.25 35.1 65.2 35 65.1 35.05 65 35 65.05 34.9 65.15 34.9 65.25 34.9 65.3 34.85 65 34.8 64.55 35.05 64.35 35.2 63.95 35.4 63.9 35.45 64.15 35.45 64.05 35.5 64.05 35.65 63.95 35.75 63.9 35.8 63.75 35.75 63.8 35.7 63.85 35.65 63.9 35.55 63.8 35.45 63.65 35.55 63.7 35.65 63.55 35.9 63.35 36.1 63.4 36.3 63.2 36.45 63.05 36.2 62.95 36.05 62.8 36.25
L 62.85 36.55
Q 62.25 36.65 61.95 37 62 37.05 62.1 37.2 62.05 37.3 61.8 37.45 61.75 37.5 61.7 37.55
L 61.3 37.6 61.2 37.55
Q 61.2 37.5 61.1 37.65
L 60.6 37.75 60.65 37.55
Q 60.65 37.6 60.85 37.5 60.95 37.45 61 37.55 61 37.45 61.2 37.35 61.29921875 37.25078125 61.3 37.2 61.300390625 37.35 61.45 37.35
L 61.65 37.35
Q 61.65 37.3 61.75 37.2 61.8 37.15 61.7 37.05
L 61.7 37.1
Q 61.65 37.2 61.6 37.15 61.45 37.15 61.55 37 61.55 36.8015625 61.45 36.85 61.5521484375 36.7982421875 61.85 36.55 62.1 36.4 62.3 36.35
L 62.25 36.5
Q 62.3 36.5 62.45 36.3 62.55 36.2 62.5 36.1
L 62.2 36.35
Q 62.1 36.25 62.25 36.15 62.4 36.05 62.35 36
L 62.9 36 62.75 36.15
Q 62.95 36.15 63.25 35.6 63.05 35.55 62.95 35.7 62.8 35.9 62.7 35.95 62.55 36 62.5 35.85 62.45 35.7 62.4 35.75 62.35 35.65 62.4 35.65 62.5 35.55 62.55 35.6
L 62.55 35.5
Q 62.4 35.45 62.1 35.55 61.8578125 35.74375 61.65 35.75
L 61.75 35.75
Q 61.75 36.05 61.4 36.15 61.4 36.1 61.55 36 61.5 36 61.25 36.05 61.3 35.95 61.25 35.9
L 61.2 35.85
Q 61.05 35.85 60.95 36.05 61.1 36.1 61.2 36.2 61.1 36.2 61.1 36.4 61.1 36.55 61 36.55 61.1 36.4 60.55 36.4
L 60.6 36.35
Q 60.3 36.2 60.45 36.5
L 60.55 36.45
Q 60.65 36.4 60.7 36.5
L 60.5 36.6 60.65 36.65 60.35 36.85
Q 60.2 36.8 59.8 36.6 59.8 36.7 59.6 36.8
L 59.65 36.8
Q 59.6 36.95 59.45 37.05
M 46.25 42.05
Q 46.2 42.103125 46.2 42.15
L 46.15 42.15 46.25 42.05
M 46 42.55
L 46.05 42.6
Q 46.2 42.7 46.3 42.75 46.5 42.9 46.6 42.85 46.65 42.9 46.65 42.95 46.65 43.15 46.65 43.45 46.6 43.3 46.6 43.25
L 46.55 43.25 46.4 43.05
Q 46.4 43.2 46.35 43.25
L 46.3 42.85
Q 46.3 42.95 46.2 42.9
L 46 42.8 46 42.85
Q 45.9 42.65 46 42.5
L 46 42.55
M 41.3 40.8
L 41.4 40.9
Q 41.35 40.95 41.3 41 41.3 40.95 41.3 40.85
L 41.3 40.8
M 40.75 40.3
Q 40.9 40.3 40.9 40.45 40.9 40.5 40.9 40.55 40.95 40.6 41.05 40.8 41.1 40.85 41.1 40.9
L 41 41.15
Q 40.8 41.1 40.95 40.9 41.05 40.85 40.85 40.85 40.75 40.75 40.9 40.45
L 40.7 40.45 40.75 40.3
M 44.25 43.2
L 44.25 43.25
Q 44.1509765625 43.309375 44.05 43.35 44.138671875 43.311328125 44.25 43.2
M 45.25 42.4
L 45.25 42.5 45.2 42.5
Q 45.2 42.4 45.25 42.4
M 45.45 44.75
Q 45.45 44.7 45.35 44.65 45.35 44.6 45.3 44.55
L 45.3 44.6
Q 45 44.55 45 44.3 45 44.25 45.05 44.2
L 45.05 44.15
Q 45 44.15 45.05 44.1 45.1 44.05 45.15 44.1 45.15 44.35 45.1 44.35 45.1 44.45 45.65 44.7 45.95 44.9 46.1 45.2 46.15 45.1 46.25 45.15
L 46.3 45.15
Q 46.3 45.35 46.3 45.4 46.25 45.25 46.1 45.2 46 45.15 45.9 45.1 45.65 45.05 45.75 44.85 45.3 45.2 45.2 45.05 45.35 45 45.35 44.9 45.35 44.8 45.45 44.75
M 43.9 43.4
Q 43.9546875 43.3953125 44 43.35
L 44.05 43.35
Q 43.95703125 43.396484375 43.9 43.4
M 44.45 47.2
L 44.4 47.2 44.25 47 44.2 46.95 44.25 46.95
Q 44.35 47.05 44.45 47.05 44.45 47.15 44.45 47.2
M 44.35 47.5
Q 44.4 47.5 44.45 47.5
L 44.5 47.5
Q 44.54921875 47.54921875 44.55 47.6 44.551171875 47.5 44.7 47.5 44.85 47.55 44.95 47.5 45.1 47.5 45.15 47.7
L 45.1 47.7
Q 44.8 47.8 44.8 47.9 44.85 47.85 45 47.8 45.1 47.75 45.2 47.8 45.2 47.85 45.2 47.95 45.2 48.2 45.35 48.3 45.35 48.6 45.55 48.75
L 45.7 48.6 45.4 48.4 45.45 48.35
Q 45.6 48.25 45.65 48.25 45.65 48.35 45.85 48.5
L 45.85 48.6 45.75 48.6
Q 45.75 48.75 45.8 48.9 45.8 49.15 45.85 49.35 45.6 49.5 45.5 49.1
L 45.6 48.9
Q 45.45 49 45.4 48.85 45.35 48.7 45.3 48.7 45.25 48.9 45.4 49.25 45.55 49.55 45.65 49.65 45.55 49.7 45.5 49.75 45.15 49.8 44.75 49.3
L 45 49.35 44.85 49.2 45.15 49.15
Q 45 49.05 44.8 48.8 44.9 48.9 45 48.85 45.2 48.8 45.1 48.75 44.9 48.75 44.9 48.6
L 44.9 48.4
Q 45.05 48.55 45.1 48.4 44.9 48.35 44.7 48.25 44.55 48.15 44.35 48.15 44.5 48.05 44.35 47.9 44.2 47.75 44.25 47.65
L 44.4 47.7 44.35 47.5
M 48.15 44.75
Q 48.15 44.6984375 48.15 44.65 48.1 44.55 48.05 44.55 48.05 44.45 48.15 44.45 48.25 44.5 48.15 44.65
L 48.2 44.7
Q 48.1515625 44.7 48.15 44.75
M 48.9 45.5
Q 48.85 45.5 48.8 45.5 48.65 45.55 48.6 45.35 48.7 45.35 48.75 45.3
L 48.85 45.35
Q 48.9 45.45 48.9 45.5
M 49 45.45
L 49 45.35 49.05 45.35
Q 49.05 45.45 49.15 45.5 49.15 45.548828125 49.1 45.55
L 49.15 45.55
Q 49.25 45.6 49.35 45.65
L 49.35 45.55
Q 49.3515625 45.6044921875 49.4 45.75 49.25 45.5 49.15 45.9 49.25 45.75 49.4 45.8
L 49.4 45.85
Q 49.45 46.05 49.6 46.1 49.65 46.2 49.75 46 49.8 46.25 49.9 46.2
L 49.8 46.3
Q 49.8 46.25 49.7 46.25 49.65 46.25 49.45 46.25 49.45 46.3 49.55 46.35 49.65 46.35 49.7 46.3 49.65 46.4 49.7 46.5
L 49.65 46.6
Q 49.6 46.6 49.55 46.55 49.55 46.6 49.65 46.65
L 49.55 46.75 49.45 46.65 49.3 46.65
Q 49.398828125 46.6525390625 49.35 46.75
L 49.05 46.55
Q 49.1 46.6 49.05 46.85
L 48.8 46.75
Q 49.05 46.55 49 46.5 48.810546875 46.3580078125 48.6 46.3 48.36328125 46.247265625 48.1 46.3
L 48.1 46.25
Q 48.25 46.2 48.25 45.95 48.25 45.6 48.25 45.55 48.15 45.65 48.05 45.55 47.9 45.45 47.85 45.45 47.9 45.35 48 45.25 47.75 45.1 47.6 44.95
L 47.65 44.5
Q 47.7 44.7 47.75 44.8
L 47.75 44.65
Q 48.1 44.95 48.05 45.25 48.25 45.05 48.55 45 48.55 45.2 48.5 45.3 48.45 45.35 48.35 45.6
L 48.45 46.05 48.55 45.85
Q 48.6 45.85 48.6 45.9 48.5 46.1 48.6 46.3 48.6 46.2 48.8 46.1 48.85 46.15 48.9 46.1 49.1 46.05 49.25 46.1
L 49.15 45.9 49.15 45.85
Q 49.05 45.65 48.95 45.6 49.15 45.6 49 45.45
M 48.6 44.95
Q 48.65 44.95 48.65 44.9 48.7 44.8 48.8 44.85
L 48.7 45
Q 48.65 45 48.6 44.95
M 48.85 45.65
Q 48.8015625 45.65 48.8 45.7 48.8 45.6484375 48.8 45.6
L 48.85 45.65
M 50.6 45.95
L 50.6 46
Q 50.55 46 50.55 46.05 50.45 45.9 50.35 45.8 50.45 45.5 50.75 45.25
L 50.75 45.45 50.85 45.35 50.9 45.65
Q 51 45.55 51.1 45.45 51.15 45.55 51.3 45.55
L 51.3 45.5
Q 51.35 45.5 51.4 45.45 51.5 45.45 51.6 45.4
L 51.65 45.35
Q 51.5 45.55 51.65 45.55 51.7 45.45 51.75 45.35 51.75 45.25 51.8 45.2 51.85 45.1 51.9 45
L 51.95 44.95
Q 51.8 45.2 52 45.35 52.15 45.45 51.95 45.65 51.85 45.65 51.75 45.7 51.8 45.75 51.85 45.75 51.8 45.8 51.75 45.85
L 51.6 45.8
Q 51.65 45.9 51.7 45.95
L 51.85 46.1
Q 51.75 46.15 51.55 46.3
L 51.5 46.3
Q 51.2 46.3 51 46.3 51.1 46.2 51.15 46.1 51.2 46.05 51.2 46 51.2 45.95 51.25 45.9 51.4 45.85 51.4 45.8
L 51.35 45.8
Q 51.39765625 45.7046875 51.5 45.65 51.39296875 45.70234375 51.25 45.75 51 45.8 50.85 45.65
L 51 45.85
Q 50.9 45.85 50.85 45.9 50.75 45.9 50.65 46 50.65 45.95 50.6 45.95
M 50.15 45.95
Q 50.1 45.85 50.2 45.85 50.2 45.95 50.25 46.1
L 50.25 46.2
Q 50.2 46.15 50.1 46.1
L 50.1 46.05
Q 50.2 46.1 50.15 45.95
M 50.1 46.2
Q 50.15 46.2 50.2 46.2 50.15 46.3 50.1 46.35 50.1 46.3 50.1 46.2
M 46.35 45.1
Q 46.5 45.1 46.45 45.25 46.65 45.4 46.75 45.75 46.65 45.7 46.4 45.7 46.25 45.65 46.2 45.4
L 46.35 45.55 46.35 45.1
M 47.3 46.3
L 47.3 46.4 47.4 46.6
Q 47.35 46.65 47.3 46.7
L 47.25 46.65 47.25 46.7 47.1 46.6 47.05 46.55 47 46.55
Q 47 46.5 47 46.3 47.05 46.4 47.15 46.45
L 47.3 46.3
M 47.7 47.7
Q 47.75 47.8 47.75 47.95
L 47.5 47.75 47.7 47.7
M 47.65 47.7
Q 47.65 47.65 47.75 47.6
L 47.75 47.55
Q 47.85 47.5 47.9 47.45
L 48.05 47.7 48.05 47.85
Q 48.05 47.9 48.05 47.95
L 48 47.9
Q 47.8 47.65 47.65 47.7
M 46.35 49.3
Q 46.35 49.25 46.4 49.25 46.5 49.45 46.55 49.55 46.45078125 49.55 46.35 49.55 46.40078125 49.5484375 46.45 49.45
L 46.4 49.5
Q 46.2 49.35 46.35 49.3
M 50.2 46.65
L 50.2 46.7
Q 50.1515625 46.6515625 50.1 46.65 50.1515625 46.65 50.2 46.65
M 49.75 46.65
Q 49.8 46.65 49.9 46.65 49.95 46.65 50 46.65 49.9 46.75 49.85 46.85
L 49.8 46.85
Q 49.7 46.8 49.65 46.75 49.7 46.75 49.75 46.65
M 49.3 47.1
L 49.25 47.05 49.3 47.05 49.3 47.1
M 58.85 39.35
Q 58.75 39.3 58.8 39.2 59.1 39.15 59.4 39.4 59.35 39.45 59.3 39.5 59.3 39.55 59.25 39.55
L 59.15 39.55
Q 58.95 39.5 58.9 39.55
L 59.25 39.6
Q 59.15 39.7 59.15 39.8 58.8 39.85 58.6 39.9
L 58.55 39.85
Q 58.5 39.75 58.6 39.65 58.8 39.75 58.8 39.55 58.8 39.4 58.95 39.45 58.95 39.4 58.85 39.35
M 58.2 38.75
L 58.2 38.9
Q 58.05 38.85 58.05 38.7 58.1 38.6 58.2 38.75
M 57.95 39.3
Q 58.05 39.15 58.15 39
L 58.15 39.05 58.25 39.05 58.2 39.45 58.15 39.35
Q 58 39.55 57.7 39.8 57.35 40.1 57.25 40.25 57.2 40.2 57.1 40.2 57.4 39.9 57.6 39.75 57.5 39.8 57.4 39.6 57.3 39.8 57.1 39.8 56.9 39.8 56.8 39.85 56.75 39.7 57 39.45 57.2 39.25 57.45 39.25
L 57.4 39.45 57.7 39.55
Q 57.7 39.5 57.6 39.35 57.75 39.5 57.95 39.3
M 57.6 40.85
Q 57.7 40.65 57.75 40.75 57.75 40.8 57.75 40.85
L 57.75 40.9 57.8 40.85
Q 57.85 40.9 57.9 40.9 57.7 41.1 57.55 41.15 57.55 41.1 57.55 41
L 57.5 41 57.4 40.95
Q 57.3 40.9 57.4 40.85 57.2 40.85 57.1 40.9 57.1 40.8 57.15 40.75 57.2 40.75 57.55 40.75
L 57.6 40.85
M 55.55 41.4
L 55.5 41.35 55.55 41.3 55.55 41.4
M 53.35 43.15
Q 53.3984375 43.1015625 53.4 43.05
L 53.4 43.1 53.55 43.15
Q 53.4 43.25 53.35 43.3 53.35 43.25 53.35 43.15
M 55.45 43.25
Q 55.35 43.2 55.35 43.15 55.4 43.05 55.45 42.95
L 55.4 42.9
Q 55.5 42.7 55.8 42.9 55.65 43.05 55.45 43.25
M 54.85 42.3
Q 55 42.2 55.1 42.2
L 55.1 42.25
Q 55.0021484375 42.396875 54.7 42.4 54.80625 42.396875 54.9 42.35
L 54.85 42.3
M 54.3 44
Q 54.35 44.05 54.4 44.05
L 54.35 44.1
Q 54.25 44.15 54.15 44.1 54.15 44 54.3 44
M 53.4 43.8
Q 53.5 43.75 53.6 43.9 53.6 44 53.45 44.1 53.3 44.2 53.5 44.3
L 53.6 44.1
Q 53.7 44.2 53.8 44.2 53.85 44.2 53.9 44.2 53.85 44.25 53.8 44.25 53.65 44.15 53.6 44.2 53.7 44.3 53.55 44.45 53.4 44.6 53.4 44.65
L 53.25 44.65
Q 53.30078125 44.6484375 53.35 44.55 53.35 44.4515625 53.45 44.4 53.3484375 44.4484375 53.25 44.35 53.15 44.25 53.1 44.25 53.15 44.2 53.15 44.15
L 53.25 44.05
Q 53.15 44.05 53.05 44.1 52.85 44.15 52.85 43.9
L 53.05 43.75
Q 53.15 43.65 53.25 43.7 53.25 43.7984375 53.2 43.85 53.301953125 43.749609375 53.55 43.7 53.65 43.65 53.7 43.6 53.8 43.7 53.7 43.8 53.6 43.75 53.5 43.75 53.4 43.7 53.35 43.8 53.35 43.9 53.4 43.8
M 53.15 43.4
L 53.15 43.35 53.25 43.35
Q 53.1984375 43.3515625 53.15 43.4
M 51.9 44.8
L 51.95 44.85 51.9 44.85 51.9 44.8
M 52.4 44.75
L 52.4 44.8 52.35 44.9 52.5 44.9 52.55 44.85 52.7 44.8
Q 52.7 44.65 52.5 44.6 52.4 44.6 52.5 44.35 52.6 44.25 52.75 44.25 52.8 44.35 52.75 44.55 52.75 44.75 52.75 44.95 52.55 44.95 52.5 45.05 52.55 45.05 52.5 45.2 52.5 45.25 52.55 45.35 52.5 45.35 52.45 45.35 52.45 45.25 52.25 45.1 52.1 45 52.35 44.9 52.25 44.9 52.15 44.9
L 52.15 44.85
Q 52.3 44.7 52.4 44.75
M 52.5 49.15
L 52.5 49.25
Q 52.4966796875 49.15 52.45 49.15
L 52.45 49.1
Q 52.6 49.15 52.75 49 52.75 48.95 52.8 48.9
L 52.85 48.9
Q 53 48.95 52.95 48.8 53 48.8 53.05 48.8 53.15 48.9 53.15 49 53.1 49.1 52.95 49.15
L 53.25 49.1 53.15 49.05 53.5 48.6
Q 53.45 48.6 53.2 48.55 53.25 48.5 53.3 48.3 53.5 48.55 53.6 48.5
L 53.6 48.45
Q 53.65 48.5 53.65 48.6
L 53.95 48.35
Q 53.95 48.4 54 48.4 54.1 48.4 54.25 48.35 54.35 48.25 54.45 48.3
L 54.45 48.45
Q 54.6 48.45 54.55 48.35 54.5 48.15 54.7 48.15 54.7 48.25 54.75 48.2 54.8 48.1 54.9 48.15 54.9 48.2 54.75 48.4 54.65 48.55 54.85 48.7 54.95 48.7 55 48.35 55.1 48.05 55.3 48.1
L 55.55 48.15
Q 55.45 48.15 55.45 48.2 55.5 48.25 55.5 48.4 55.35 48.35 55.25 48.45 55.3 48.6 55.4 48.55
L 55.45 48.55
Q 55.475 48.525 55.5 48.5 55.55 48.5 55.65 48.6 55.55 48.7 55.45 48.6 55.35 48.7 55.45 48.8 55.4 48.8 55.35 48.9 55.35 48.850390625 55.25 48.75 55.2984375 48.8015625 55.2 48.9 55.2 49 55.3 48.9 55.25 49 55.15 48.95 55 49.05 55.15 49.15 55.25 49.2 55.2 49.25
L 54.95 49.15 55 48.7
Q 54.9 48.75 54.7 48.7 54.5919921875 48.7 54.55 48.65 54.584375 48.78125 54.5 48.95 54.4 49.15 54.4 49.25 54.35 49.15 54.35 49 54.3 49.15 54.25 49.2 54.05 48.95 53.8 49.05 53.9 49.1 54 49.35 54 49.4 54 49.45 53.95 49.45 53.9 49.45
L 53.9 49.3
Q 53.896875 49.396875 53.85 49.35 53.8 49.35 53.8 49.45
L 53.75 49.45 53.65 49 53.55 49.2 53.5 49.4
Q 53.45 49.45 53.4 49.5 53.45 49.5 53.5 49.55
L 53.45 49.7
Q 53.4 49.55 53.25 49.55 53.05 49.55 52.95 49.5
L 53.05 49.3
Q 52.75 49.05 52.65 49.3 52.6 49.25 52.55 49.25
L 52.5 49.15
M 55.05 47.5
L 55.1 47.55
Q 54.95 47.6 54.85 47.55 55 47.75 55.1 48.05 54.8865234375 48.0439453125 54.45 47.85
L 54.25 47.9 53.8 47.8
Q 53.8 47.7 53.8 47.6 53.9 47.7 54.15 47.7 54.45 47.7 54.55 47.75 54.35 47.6 54.6 47.35 54.7 47.4 54.8 47.5 55.1 47.1 55.55 46.65 56.1 46.9 56.45 47.15 56.25 47.15 56.1 47.15
L 56.05 47.15
Q 56 47.05 55.9 47.05 55.75 46.95 55.65 47.05
L 55.7 47.15
Q 55.25 47.15 55.05 47.2 54.95 47.4 55.05 47.5
M 54.05 48.05
L 54.05 48 54.15 48.05 54.05 48.05
M 53.75 48.2
L 53.75 48.15 53.85 48.2
Q 53.8 48.2 53.75 48.2
M 55.7 46.15
Q 55.75 46.2 56 46.15 56.2 46.1 56.1 46.35 56.25 46.35 56.4 46.3 56.4 46.35 56.4 46.4
L 56.15 46.5
Q 56.05 46.5 56 46.55 55.9 46.5 55.85 46.45 55.65 46.25 55.7 46.15
M 57.25 45.45
Q 57.35 45.5 57.4 45.55 57.3 45.65 57.15 45.7
L 57.25 45.45
M 57.05 45.85
L 57 45.9
Q 56.85 45.9 56.8 45.85
L 57.05 45.85
M 57.3 46.8
Q 57.1 47.05 57.2 47.15 57.05 47.15 56.85 47.15 57.1 46.95 57.15 46.65
L 57.1 46.65
Q 57.1 46.5 57.3 46.45 57.45 46.45 57.55 46.5 57.5 46.55 57.3 46.8
M 56.45 46.95
Q 56.4 46.95 56.45 46.75
L 56.45 46.65
Q 56.55 46.75 56.7 46.7 56.95 46.75 56.8 46.95 56.75 47.15 56.45 46.95
M 38.05 39.35
Q 38.05 39.25 38 39.25 37.95 39.2 38 39.15 38.05 39.15 38.1 39.25
L 38.05 39.35
M 37.15 38.4
L 37.2 38.4 37.25 38.5
Q 37.2 38.45 37.15 38.4
M 37.8 38.75
Q 37.85 38.8 37.85 38.9 37.75078125 38.751171875 37.7 38.75
L 37.8 38.75
M 62.05 60.85
Q 62.1 60.85 62.1 60.9 62.05 60.9 61.95 60.85
L 62.05 60.75
Q 62.05 60.8 62.05 60.85
M 62.3 61.35
Q 62.2 61.25 62.2 61.2
L 62.2 61.15
Q 62.29921875 61.298828125 62.35 61.3 62.3 61.300390625 62.3 61.35
M 62.9 61.65
L 62.85 61.65 62.85 61.55
Q 62.8515625 61.6015625 62.9 61.65
M 55.75 52.15
Q 55.85 52.3 55.8 52.4
L 55.65 52.35 55.75 52.6
Q 55.65 52.55 55.6 52.55
L 55.6 52.6
Q 55.55 52.5 55.5 52.5 55.5 52.55 55.35 52.55 55.2 52.5 55.1 52.6 55 52.55 54.95 52.4 54.95 52.35 55 52.35 55.25 52.25 55.25 52.15 55.2 52.2 55.1 52.25 55 52.3 54.9 52.3 54.9 52.2 54.9 52.1 54.85 51.85 54.75 51.75 54.7 51.5 54.55 51.3
L 54.35 51.5 54.65 51.65 54.45 51.85
Q 54.4 51.75 54.25 51.55
L 54.25 51.45 54.3 51.5
Q 54.35 51.3 54.25 51.2 54.25 50.9 54.25 50.75 54.45 50.55 54.55 50.95
L 54.45 51.15
Q 54.6 51.05 54.65 51.2 54.7 51.4 54.75 51.4 54.8 51.15 54.65 50.85 54.5 50.55 54.45 50.4 54.5 50.35 54.55 50.3 54.9 50.25 55.3 50.75
L 55.1 50.75 55.2 50.85 54.9 50.9
Q 55.09140625 50.995703125 55.2 51.2 55.1826171875 51.155859375 55.05 51.2 54.9 51.3 55 51.3 55.2 51.3 55.15 51.45 55.15 51.5890625 55.15 51.6 55 51.5099609375 55 51.65 55.15 51.7 55.35 51.8 55.55 51.9 55.75 51.9 55.55 52.05 55.75 52.15
M 55.9 53.15
L 55.85 53.1
Q 55.7 53 55.65 53.05 55.65 52.95 55.65 52.85
L 55.85 53.05
Q 55.85 53.096875 55.9 53.15
M 55.95 53.4
L 55.9 53.4 55.9 53.3
Q 55.95 53.35 55.95 53.4
M 54.45 49.8
L 54.5 49.8
Q 54.45 49.9 54.25 49.9
L 54.2 49.9
Q 54.45 49.7 54.75 49.45 54.8 49.45 54.9 49.55 54.55 49.55 54.45 49.8
M 54 49.65
L 54 49.7 53.95 49.65 54 49.65
M 53.9 49.65
Q 53.9 49.7 53.9 49.85 53.8 49.9 53.7 50 53.75 50 53.8 50
L 53.7 50.15 53.65 50.25 53.4 50.1 53.45 49.8 53.5 49.75 53.5 49.8
Q 53.4 50.15 53.7 50.15 53.7 50.1 53.7 50 53.7 49.85 53.7 49.8 53.8 49.7 53.8 49.65
L 53.9 49.65
M 53.6 50.65
Q 53.552734375 50.552734375 53.5 50.5 53.6 50.55 53.7 50.5 53.65 50.55 53.6 50.65
L 53.7 50.55
Q 53.9 50.7 53.7 50.75 53.7 50.8 53.7 50.85 53.652734375 50.731640625 53.6 50.65
M 53.4 50.45
L 53.4 50.65
Q 53.396875 50.55 53.35 50.55
L 53.35 50.45 53.4 50.45
M 53.45 50.3
Q 53.4015625 50.3 53.4 50.35
L 53.4 50.25 53.45 50.3
M 52.4 52.35
Q 52.3 52.25 52.3 52.1
L 52.6 52.3 52.4 52.35
M 52.35 52.5
L 52.3 52.45 52.3 52.5
Q 52.2 52.55 52.15 52.6
L 52.05 52.4 52 52.2
Q 52.0484375 52.1515625 52.05 52.1
L 52.05 52.15
Q 52.249609375 52.399609375 52.45 52.4 52.399609375 52.40078125 52.35 52.5
M 52.85 53.4
L 52.95 53.45 53 53.5 53.05 53.5
Q 53.05 53.6 53.05 53.8 53 53.65 52.95 53.6
L 52.75 53.75 52.75 53.7 52.65 53.45
Q 52.7 53.4 52.8 53.4
L 52.85 53.4
M 50.75 53.05
Q 50.75 53 50.75 52.95 50.8 53 50.8 53.05
L 50.75 53.05
M 50.7 53.35
L 50.7 53.3 51 53.5
Q 50.95 53.45 51 53.2
L 51.3 53.3
Q 51 53.5 51.1 53.6 51.29375 53.7453125 51.5 53.8 51.71796875 53.8515625 51.95 53.8 51.85 53.9 51.85 54.1 51.85 54.45 51.85 54.55 51.9 54.45 52.05 54.5 52.15 54.6 52.2 54.6 52.15 54.7 52.05 54.8 52.3 54.95 52.5 55.15
L 52.4 55.6
Q 52.4 55.35 52.3 55.25
L 52.3 55.45
Q 51.95 55.1 52 54.8 51.85 55 51.5 55.1 51.5 54.85 51.55 54.75 51.6 54.7 51.75 54.45
L 51.6 54 51.5 54.2 51.5 54.15
Q 51.55 54 51.5 53.8 51.45 53.9 51.3 53.95 51.2 53.9 51.15 54 50.95 54 50.8 53.95 50.85 54 50.9 54.15
L 50.9 54.2
Q 50.99921875 54.448046875 51.1 54.45 50.9005859375 54.4505859375 51.05 54.6
L 51.1 54.7
Q 51.05 54.7 51 54.75 51 54.6 50.9 54.55 50.85 54.45 50.75 54.45
L 50.75 54.5
Q 50.7 54.45 50.65 54.35 50.8 54.55 50.9 54.15 50.8 54.3 50.65 54.3
L 50.65 54.25
Q 50.65 54 50.45 54 50.4 53.9 50.3 54.05 50.25078125 53.8041015625 50.2 53.9
L 50.25 53.8 50.35 53.8
Q 50.45 53.8 50.6 53.8 50.65 53.75 50.55 53.7 50.45 53.7 50.35 53.75 50.4 53.7 50.35 53.6
L 50.45 53.45 50.55 53.35
Q 50.5984375 53.3984375 50.65 53.4
L 50.75 53.4
Q 50.6533203125 53.3966796875 50.7 53.35
M 51.45 54.7
Q 51.35 54.7 51.35 54.8
L 51.2 54.7
Q 51.2 54.6 51.2 54.55
L 51.25 54.55
Q 51.4 54.5 51.45 54.7
M 51.3 54.4
L 51.3 54.45 51.2 54.45
Q 51.2515625 54.4484375 51.3 54.4
M 51.4 55.1
L 51.4 55.15
Q 51.35 55.25 51.3 55.2
L 51.4 55.1
M 51.95 55.45
Q 51.95 55.5 52.05 55.55 52 55.6 51.95 55.65 51.85 55.55 51.95 55.45
M 51.95 55.4
L 51.9 55.4
Q 51.9 55.3515625 51.9 55.3 51.9015625 55.3515625 51.95 55.4
M 53.8 54.65
Q 53.8 54.8 53.95 54.9 53.9 54.95 53.8 54.9 53.75 54.7 53.8 54.65
M 53.6 54.8
Q 53.4 54.65 53.35 54.35 53.4 54.35 53.65 54.35 53.8 54.4 53.85 54.65
L 53.7 54.55 53.7 55
Q 53.6 55 53.6 54.8
M 54.15 54.95
Q 54.4 55 54.3 55.2 54.75 54.85 54.9 55 54.7 55.05 54.7 55.15 54.7 55.25 54.6 55.3 54.6 55.35 54.7 55.45
L 54.75 55.5 54.75 55.45
Q 55.05 55.5 55.05 55.75 55.05 55.8 55.05 55.85
L 55 55.85 55.05 55.9
Q 55 55.9 55 55.95 54.95 56 54.9 55.95 54.9 55.7 55 55.7 54.95 55.65 54.45 55.35 54.1 55.15 54 54.9 54.05 54.9 54.15 54.95
M 53.45 57.2
Q 53.4 57.15 53.4 57.1 53.4 56.95 53.4 56.65 53.45 56.75 53.45 56.85
L 53.5 56.8 53.65 57.05
Q 53.65 56.85 53.7 56.8
L 53.8 57.2
Q 53.8 57.1 53.9 57.15
L 54.05 57.25 54.1 57.25
Q 54.15 57.4 54.05 57.55
L 54.05 57.5
Q 54.1 57.4 54.05 57.35
L 54.05 57.3
Q 54.0484375 57.3544921875 54 57.5 53.85 57.4 53.75 57.3 53.55 57.15 53.45 57.2
M 53.9 57.9
Q 53.9 57.95 53.95 57.95
L 53.8 58.05
Q 53.85 57.95 53.9 57.9
M 54.05 58.45
Q 53.75 58.35 53.8 58.1 53.9 58.15 54.25 58.35 54.25 58.4 54.05 58.45
M 58.4 56.65
Q 58.4 56.55 58.4 56.5
L 58.4 56.45
Q 58.5 56.55 58.4 56.65
M 55.9 56.75
Q 55.8935546875 56.791796875 55.85 56.85
L 55.85 56.8
Q 55.8916015625 56.775 55.9 56.75
M 59.05 58.9
Q 59.25 58.95 59.1 59.15 59 59.25 59.25 59.2 59.35 59.3 59.15 59.6
L 59.35 59.6 59.3 59.75
Q 59.15 59.8 59.15 59.6
L 59.15 59.55
Q 59.1 59.45 59 59.25 58.95 59.2 58.95 59.15
L 59.05 58.9
M 58.7 59.15
Q 58.7 59.1 58.75 59.05 58.8 59.1 58.8 59.2 58.8 59.25 58.85 59.35
L 58.7 59.15
M 47.35 50.7
L 47.4 50.65 47.4 50.7 47.35 50.7
M 47.15 50.55
L 47 50.75
Q 47.3 51 47.4 50.8 47.45 50.8 47.5 50.8
L 47.6 50.9 47.6 50.85
Q 47.6015625 50.9015625 47.65 50.95
L 47.6 50.95
Q 47.45 50.9 47.3 51.1
L 47.25 51.15 47.2 51.15
Q 47.05 51.1 47.1 51.3
L 47.05 51.3
Q 46.9 51.2 46.95 51.05 46.95 50.95 47.1 50.9
L 46.8 50.95 46.9 51 46.55 51.5
Q 46.6 51.45 46.85 51.5 46.85 51.55 46.75 51.75 46.55 51.5 46.5 51.55 46.45 51.6 46.45 51.65 46.4 51.55 46.4 51.45
L 46.15 51.75
Q 46.15 51.7 46.1 51.65 45.95 51.65 45.85 51.7 45.7 51.8 45.6 51.75
L 45.65 51.6
Q 45.45 51.6 45.5 51.75 45.55 51.9 45.35 51.95 45.35 51.8 45.3 51.85 45.25 51.95 45.15 51.95 45.15 51.85 45.3 51.65 45.4 51.5 45.2 51.4 45.1 51.4 45.05 51.75 45 52.05 44.75 51.95
L 44.8 52 44.55 51.95
Q 44.6 51.95 44.65 51.85 44.55 51.8 44.6 51.65 44.7 51.75 44.8 51.6 44.75 51.45 44.65 51.5
L 44.6 51.55
Q 44.5 51.55 44.45 51.45 44.5 51.35 44.65 51.5 44.7 51.4 44.6 51.25 44.6458984375 51.25 44.7 51.2 44.727734375 51.2275390625 44.8 51.3 44.7513671875 51.2486328125 44.85 51.15 44.85 51.1 44.75 51.2 44.8 51.1 44.9 51.1 45.05 51 44.9 50.9 44.8 50.85 44.85 50.8
L 45.1 50.95 45.1 51.35
Q 45.2 51.3 45.35 51.35 45.49765625 51.39921875 45.55 51.5 45.45078125 51.2984375 45.55 51.1 45.65 50.9 45.65 50.85 45.746875 50.8984375 45.75 51.05 45.7515625 50.8984375 45.8 50.85 46 51.1 46.3 51 46.15 50.95 46.1 50.7
L 46.1 50.65
Q 46.1 50.6 46.15 50.65
L 46.15 50.75
Q 46.1533203125 50.6533203125 46.2 50.7 46.3 50.7 46.3 50.65
L 46.4 51.05 46.5 50.85 46.55 50.7
Q 46.6 50.65 46.65 50.55 46.6 50.55 46.55 50.55
L 46.6 50.4
Q 46.65 50.5 46.8 50.55 47 50.55 47.15 50.55
M 46.65 49.8
L 46.6 49.75
Q 46.65 49.75 46.7 49.7
L 46.65 49.8
M 46.75 49.55
L 46.75 49.6 46.65 49.6 46.65 49.45
Q 46.6515625 49.50078125 46.75 49.55
M 46.2 50.2
Q 46.3 50.1 46.4 50.1 46.4 50.2 46.35 50.25 46.3 50.35 46.25 50.45 46.2 50.45 46.15 50.45 46.2 50.35 46.2 50.2
M 46.4 49.9
Q 46.4 50 46.4 50.05 46.33984375 50.05 46.3 50.05
L 46.4 49.9 46.45 49.85 46.65 50 46.65 50.25
Q 46.6 50.25 46.6 50.3
L 46.55 50.25
Q 46.65 49.9 46.4 49.9
M 45.85 50.15
L 45.9 50.15
Q 45.6 50.35 45.3 50.65 45.25 50.65 45.2 50.55 45.5 50.55 45.65 50.25
L 45.55 50.25
Q 45.6 50.2 45.85 50.15
M 45.85 50.35
L 45.9 50.35 45.85 50.4 45.85 50.35
M 45.6 52.2
L 45.8 52.2 46.3 52.25
Q 46.25 52.35 46.3 52.45
L 46.25 52.45
Q 46.2 52.35 45.9 52.35 45.60234375 52.35 45.55 52.3 45.69921875 52.45078125 45.45 52.7 45.35 52.65 45.25 52.55 45 52.95 44.55 53.4 44 53.15 43.65 52.95 43.8 52.95 44 52.95
L 44.05 52.95
Q 44.05 53 44.15 53.05 44.3 53.1 44.45 53.05
L 44.4 52.95
Q 44.8 52.95 45 52.85 45.1 52.7 45 52.55
L 45 52.5
Q 45.1 52.5 45.2 52.5 45.05 52.3 45 52.05
L 45 52
Q 45.15 52 45.6 52.2
M 46.25 52.1
Q 46.2 51.95 46.3 51.95 46.3 52.05 46.3 52.1
L 46.25 52.1
M 46.8 55.45
Q 46.75 55.45 46.75 55.5 46.70078125 55.64765625 46.6 55.65 46.7509765625 55.6509765625 46.85 55.75 46.9 55.8 47 55.85 46.95 55.85 46.9 55.9
L 46.95 55.9 46.8 56
Q 46.9 56 47 55.95 47.2 55.9 47.2 56.15
L 47 56.3
Q 46.9 56.4 46.85 56.4 46.85 56.25 46.85 56.2 46.8078125 56.2421875 46.75 56.25 46.6958984375 56.2041015625 46.65 56.25 46.55 56.3 46.5 56.15 46.45 56.1 46.6 55.95 46.75 55.85 46.55 55.75
L 46.45 55.95
Q 46.35 55.85 46.25 55.85
L 46.2 55.85
Q 46.2 55.8 46.3 55.85 46.4 55.9 46.45 55.85 46.4 55.75 46.5 55.65 46.65 55.45 46.65 55.4
L 46.8 55.45
M 50.25 53.25
Q 50.35 53.25 50.4 53.3 50.35 53.35 50.35 53.4 50.25 53.4 50.2 53.4
L 50.1 53.4
Q 50.15 53.35 50.2 53.25
L 50.25 53.25
M 49.95 53.95
L 49.95 54
Q 49.9 54 49.9 54.1 49.95 54.2 49.85 54.2 49.9 54.1 49.8 54 49.8 53.95 49.8 53.9 49.9 53.9 49.95 53.95
M 49.95 53.85
L 49.9 53.85
Q 49.9 53.75 50 53.7 50 53.8 49.95 53.85
M 49.45 54.1
L 49.55 54
Q 49.65 54.15 49.7 54.25 49.65 54.55 49.3 54.8
L 49.35 54.6 49.2 54.7 49.15 54.45
Q 49.05 54.55 49 54.6 48.9 54.55 48.8 54.55
L 48.75 54.5 48.75 54.55
Q 48.7 54.55 48.65 54.6 48.55 54.6 48.45 54.7
L 48.4 54.7
Q 48.55 54.55 48.4 54.5 48.35 54.6 48.35 54.7 48.3 54.8 48.25 54.85 48.2 55 48.2 55.1 48.15 55.1 48.1 55.1 48.25 54.85 48.05 54.7 47.9 54.6 48.1 54.4 48.2 54.45 48.35 54.35 48.25 54.35 48.25 54.3 48.25 54.25 48.3 54.25
L 48.45 54.25
Q 48.4 54.15 48.35 54.1 48.25 54 48.25 53.95 48.35 53.9 48.5 53.75
L 48.6 53.75
Q 48.9 53.8 49.05 53.8 49 53.9 48.9 54
L 48.9 54.05
Q 48.85 54.1 48.8 54.2
L 48.7 54.25 48.75 54.3
Q 48.65 54.35 48.5 54.45 48.7 54.35 48.8 54.35 49.044140625 54.25234375 49.25 54.4
L 49.05 54.25
Q 49.15 54.2 49.25 54.15 49.35 54.15 49.45 54.1
M 42.75 53.25
Q 42.95 53.05 42.85 52.95 43 52.9 43.25 52.9 42.95 53.15 42.9 53.4
L 42.95 53.4
Q 42.95 53.55 42.75 53.6 42.6 53.6 42.5 53.6 42.6 53.5 42.75 53.25
M 42.7 54.55
Q 42.75 54.4 42.9 54.35
L 42.8 54.6 42.7 54.55
M 43.35 53.35
Q 43.1 53.35 43.25 53.15 43.35 52.95 43.6 53.1 43.65 53.15 43.6 53.3 43.6 53.35 43.65 53.35
L 43.6 53.4
Q 43.5 53.35 43.35 53.4
L 43.35 53.35
M 44.05 53.5
Q 44.15 53.55 44.2 53.6 44.45 53.8 44.35 53.9
L 44.05 53.9
Q 43.9 54 43.95 53.7 43.8 53.7 43.7 53.75
L 43.65 53.7
Q 43.7 53.65 43.9 53.6 44 53.6 44.05 53.5
M 43.1 54.15
Q 43.2 54.15 43.25 54.2
L 43.05 54.25
Q 43.05 54.15 43.1 54.15
M 45.1 54.25
L 45.05 54.3
Q 45.05 54.2 45.1 54.15
L 45.1 54.25
M 44.7 56.9
Q 44.65 57 44.6 57.1
L 44.65 57.15
Q 44.55 57.4 44.3 57.2 44.45 57.05 44.65 56.85 44.7 56.85 44.7 56.9
M 45 57.9
Q 44.95 57.85 44.95 57.8 45.1 57.7 45.35 57.65 45.25 57.7 45.2 57.7
L 45.2 57.75
Q 45.1 57.85 45 57.9
M 42.55 58.95
Q 42.5 58.9515625 42.5 59.05
L 42.6 59.05 42.65 59.1
Q 42.75 59.15 42.65 59.25 42.85 59.25 42.95 59.2 42.95 59.25 42.9 59.35 42.85 59.3 42.55 59.35 42.5 59.3 42.5 59.25 42.35 59.45 42.3 59.3
L 42.3 59.2
Q 42.2 59.15 42.15 59.15 42.3986328125 58.9509765625 42.55 58.95
M 42.95 59.9
Q 42.711328125 60.186328125 42.5 60.3 42.566796875 60.28359375 42.65 60.45 42.75 60.25 42.95 60.25 43.15 60.25 43.25 60.2 43.3 60.35 43.05 60.6 42.85 60.85 42.6 60.8
L 42.7 60.6 42.4 60.55 42.5 60.7
Q 42.3 60.55 42.15 60.75 42 60.9 41.9 61.05
L 41.9 61 41.8 61 41.85 60.6 41.95 60.7
Q 42.05 60.5 42.35 60.25 42.7 59.95 42.8 59.8 42.85 59.9 42.95 59.9
M 40.9 60.25
Q 41.25 60.2 41.5 60.2 41.55 60.3 41.5 60.4 41.3 60.3 41.3 60.5 41.3 60.65 41.1 60.6 41.1 60.65 41.2 60.75 41.3 60.75 41.25 60.85 40.95 60.9 40.65 60.65 40.7 60.65 40.75 60.55
L 40.8 60.55
Q 40.85 60.55 40.9 60.55 41.1 60.55 41.15 60.5
L 40.85 60.45
Q 40.9 60.35 40.9 60.25
M 42.05 61.4
Q 41.95 61.45 41.85 61.3
L 41.9 61.2
Q 42 61.2 42.05 61.35
L 42.05 61.4
M 46.9 56.75
L 46.85 56.75
Q 46.85 56.7 46.9 56.65 46.9 56.7 46.9 56.75
M 46.55 56.3
Q 46.609375 56.3296875 46.65 56.3 46.5951171875 56.3619140625 46.5 56.4 46.4 56.4 46.35 56.5 46.3 56.4 46.4 56.3 46.5 56.3 46.55 56.3
M 45.75 55.95
Q 45.85 55.9 45.9 55.95 45.9 56.1 45.75 56.05 45.7 56 45.65 56 45.7 55.95 45.75 55.95
M 46.65 57
L 46.65 56.95 46.5 56.95 46.5 56.9
Q 46.65 56.85 46.75 56.75 46.75 56.85 46.7 56.95 46.651171875 56.95 46.65 57
M 53.6 54.75
Q 53.6892578125 54.5447265625 53.6 54.5 53.55 54.5 53.6 54.6 53.6373046875 54.6744140625 53.6 54.75
M 46.4 45.35
Q 46.4201171875 45.5099609375 46.5 45.55
L 46.5 45.45
Q 46.44609375 45.39609375 46.4 45.35
M 46 42.75
Q 46.0015625 42.6970703125 46.05 42.6 45.95 42.65 46 42.7
L 46 42.75 Z"/>
</g>
</defs>

<g transform="matrix( 1, 0, 0, 1, 0,0) ">
<use xlink:href="#Layer1_0_FILL"/>
</g>
</svg>
