
<svg xmlns="http://www.w3.org/2000/svg" version="1.1" xmlns:xlink="http://www.w3.org/1999/xlink" preserveAspectRatio="none" x="0px" y="0px" width="100px" height="100px" viewBox="0 0 100 100">
<defs>
<g id="Layer1_0_FILL">
<path fill="#000000" stroke="none" d="
M 48.65 49.45
Q 48.4419921875 49.4919921875 48.3 49.35 48.1 49.35 47.6 49.45
L 46.95 49.75
Q 46.7 49.65 46.6 49.8 46.45 50 46.3 50.05 45.65 50.2 45.5 50 45.65 50 45.85 49.85 46.05 49.7 46.25 49.7 46.15 49.65 46.45 49.55 46.7 49.45 46.5 49.4 46.2 49.55 45.4 49.6 44.65 49.6 44.35 49.8 44.35 49.55 43.9 49.55
L 43.25 49.7 43.25 49.6
Q 42.9 49.55 42.45 49.7 41.45 49.8 41.15 49.7 40.45 49.45 39.7 50.25 39.95 50.3 40.7 50.2
L 41.15 50.2
Q 41.4 50.2 41.55 50.4 41.3 50.35 41.05 50.45
L 40.7 50.7 40.85 50.8 40.7 50.9
Q 40.75 50.95 40.7 51.05 40.6 51.2 40.6 51.25
L 41.2 51.2
Q 41 51.15 41.05 51 41.15 50.9 41.15 50.8
L 41.45 50.8 41.35 50.75
Q 41.3 50.7 41.45 50.65
L 41.85 50.65 41.6 50.95
Q 41.8 50.75 42.1 50.95 42.4 51.05 42.6 50.95
L 42.7 51.2 43.05 51.15 43 51.25 43.45 51.25
Q 43.6 51.2 43.7 51 44.05 50.9 44.1 50.95
L 43.9 51.15 44.1 51.2
Q 44.05 51.15 44.15 51.1 44.3 51.05 44.3 51 44.65 51.05 44.85 51.15 44.95 51.1 45.25 51.1 45.45 51.1 45.45 51 45.95 51.1 46.9 51.1
L 47.1 50.95
Q 47.24296875 50.99765625 47.75 51
L 47.7 51.1
Q 47.6134765625 51.1 47.9 51.4
L 47.6 51.45 46.4 51.45 45.75 51.55
Q 45.6 51.5 45.6 51.65 45.6 51.75 45.65 51.85
L 44.95 52.15
Q 42.2607421875 54.726171875 44.95 57.9
L 45.65 58.55 45.85 58.65 46 58.75 46.35 59.05 46.55 59.05
Q 46.51640625 58.736328125 46.55 58.4 46.5 57.75 46.85 57.2 47.15 56.6 47.5 56.3
L 48.8 55 49.3 54.25
Q 49.35 54.25 49.3 53.95
L 49.05 53.55 48.85 52.9 48.85 52.6 48.75 52.15 48.9 52.2 48.75 52.05
Q 48.9 52.1 48.85 51.95 48.8 51.85 48.85 51.85
L 48.65 51.65 48.8 51.75
Q 48.6791015625 51.427734375 48.85 51.5 48.85390625 51.40390625 48.9 51.45 49 51.45 49.05 51.45
L 48.95 51.4
Q 48.85 51.25 49.05 51.35 49.1 51.4 48.95 50.95 48.88984375 50.859765625 48.85 50.75
L 49 50.8
Q 49.0166015625 50.8666015625 49.05 50.95 49.1 51.1 49.25 51.2 49.15 51 49.25 51 49.35 50.85 49.35 50.75 49.55 51 49.6 50.75
L 49.65 50.8
Q 49.75 50.85 49.7 50.75 49.7484375 50.77421875 49.8 50.8 50.5 50.95 50.75 50.4 50.8 50.4 51.6 50.55
L 51.45 50.65 51.6 50.75 52.4 50.75
Q 52.8 50.85 52.95 50.65
L 53.2 50.3 53.75 50.65 53.75 50.55
Q 53.7908203125 50.5091796875 53.85 50.45
L 53.85 50.5 53.9 50.45
Q 54 50.4 54.1 50.4
L 54.8 50.55 54.75 50.35
Q 54.9 50.45 55.1 50.45
L 55.5 50.35
Q 55.6 50.4 55.95 50.55 56.3 50.7 56.5 50.6
L 56.9 50.7 57.25 50.6
Q 57.8 50.5 57.9 50.5 58.05 50.6 58.3 50.6 58.5 50.6 58.5 50.75
L 58.45 50.75 58.55 51.05 58.6 50.85 59.05 51.05 59.2 51.25 59.65 50.9
Q 59.55 50.95 59.3 50.85
L 59.3 50.9 58.8 50.75 58.95 50.7
Q 58.85 50.65 58.9 50.6 58.9 50.55 59 50.55 59.35 50.7 59.5 50.5 59.7 50.6 59.65 50.65 59.7 50.65 60.05 50.75 60.25 50.8 60.25 50.7
L 60.3 50.7
Q 60.25 50.25 59.85 49.45
L 59.4 49.6 59.1 49.45 58.9 49.4 58.45 49.45
Q 57.95 49.65 57.45 49.5 57.15 49.4 56.55 49.4
L 55.65 49.2
Q 55.55 49.4 55.35 49.4 55.2208984375 49.44296875 54.95 49.35
L 54.9 49.2 54.95 49.25 54.85 49.1
Q 54.9 49.1 54.9 49 54.85 48.95 54.95 48.95 55.0669921875 48.9109375 54.8 48.7 54.893359375 48.616015625 55 48.55 55.0478515625 48.5259765625 55.1 48.5
L 55.15 48.45 55.35 48.4 56.4 48
Q 59.019921875 44.969140625 56.4 42.3
L 56 41.95 55.9 41.9 55.75 41.75 55.5 41.7 55.15 41.4 54.5 41.1 54.3 40.95 54.15 40.9 54.1 40.9
Q 54.1673828125 41.0802734375 54.2 41.25 54.229296875 41.4044921875 54.25 41.55
L 54.25 42.5 54.05 43.1 53.9 43.35 53.8 43.65 53.7 43.75 53.45 44.15 53.45 44.3 53.1 44.8
Q 52.6 45.65 52.45 46.6 52.4 46.6 52.6 46.85
L 52.95 47.1 53.75 48.3 53.75 48.35
Q 53.65 48.35 53.6 48.35
L 53.7 48.4
Q 53.85 48.55 53.6 48.45 53.55 48.45 53.8 48.85 53.95 49 54 49.1 54 49.25 53.85 49.2 53.85 49.1 53.7 48.9 53.65 48.75 53.45 48.7 53.6 48.85 53.5 48.9 53.45 49.05 53.5 49.15 53.25 48.95 53.25 49.2
L 53.2 49.15
Q 53.1 49.15 53.15 49.25 53.1060546875 49.3818359375 52.95 49.3
L 53 49.3
Q 52.75 49.1 52.6 49.1
L 52.4 49.35
Q 52.15 49.2 51.8 49.25 51.4 49.35 51.2 49.3 51.35 49.4 51.25 49.45 51.05 49.5 51.1 49.6 50.7 49.45 50.8 49.35 50.6 49.35 50.2 49.45 49.9 49.55 49.75 49.3
L 49.6 49.4
Q 49.488671875 49.47421875 49.35 49.45
L 49.3 49.35 49.2 49.4
Q 49.0373046875 49.345703125 48.9 49.3
L 48.9 49.45
Q 48.8294921875 49.467578125 48.75 49.45
L 48.75 49.45 48.65 49.45
M 52.85 49.5
L 52.85 49.5 52.85 49.45 52.85 49.5
M 47.8 51
L 48 50.95
Q 48.0529296875 50.9970703125 48.1 51.05
L 47.9 51.1 47.85 51 47.8 51 Z"/>
</g>
</defs>

<g transform="matrix( 1, 0, 0, 1, 0,0) ">
<use xlink:href="#Layer1_0_FILL"/>
</g>
</svg>
