
<svg xmlns="http://www.w3.org/2000/svg" version="1.1" xmlns:xlink="http://www.w3.org/1999/xlink" preserveAspectRatio="none" x="0px" y="0px" width="100px" height="100px" viewBox="0 0 100 100">
<defs>
<g id="Layer1_0_FILL">
<path fill="#000000" stroke="none" d="
M 57.05 65.65
L 57.05 65.5 56.85 65.8 57.05 65.65
M 57.05 65.5
L 57.3 65.2
Q 57.15 65.2 57.15 65.25
L 57.05 65.5
M 57.8 64.85
L 57.65 64.85 57.3 65.2
Q 57.5 65.2 57.8 64.85
M 59.3 62.7
Q 59.45 62.4 59.4 62.3 59.35 62.2 59.2 62.4 59.35 62.15 59.4 62.15 59.5 62.15 59.5 61.95 59.4 61.85 59.05 62.5
L 59.3 62.7
M 49.95 66.85
Q 50.45 66.95 50.5 67.1 50.55 67.2 50.85 67.3
L 51.8 67.6 51.7 67.6 55.1 68.6 56.5 66.65
Q 56.65 66.4 56.45 66.55 56.25 66.6 56.3 66.4 56.05 66.8 55.5 67.55
L 54.95 68.25 54.05 67.95
Q 53.6515625 67.850390625 53.6 67.9 53.649609375 67.8498046875 53.55 67.8
L 53.1 67.8 53.45 67.95
Q 53.15 67.95 52.4 67.75 51.65 67.5 51.5 67.35 51.75 67.45 52.15 67.45 52.35 67.5 52.95 67.7 52.9 67.65 52.9 67.6
L 52.95 67.6
Q 50.7 66.8 49.4 66.55 49.9 66.8 49.45 66.65 48.85 66.55 48.95 66.7
L 49.55 66.85 49.5 66.85 50.15 67
Q 49.9 66.85 49.95 66.85
M 60.2 61.25
L 60.1 61.15
Q 60 61.5 59.85 61.6
L 59.85 61.5 59.65 62.05 60.2 61.25
M 37.7 63.15
Q 37.7 63.2 37.9 63.3
L 38.2 63.25 37.7 63.15
M 37.05 62.8
Q 37.25 62.9 36.75 62.85
L 37.7 63.15
Q 37.75 63.05 37.75 63
L 37.05 62.8
M 40.5 63.75
Q 40.7 63.75 40.55 63.7
L 40.3 63.7
Q 40.3546875 63.7015625 40.5 63.75
M 38.25 63.3
Q 38.25 63.35 38.3 63.35 38.7 63.5 39.25 63.8 39.1 63.6 39.7 63.8 40.4 64.05 40.5 64.05
L 41.1 64.2
Q 41.1 64.25 40.8 64.25 41.6 64.45 41.55 64.4
L 43 64.85 43.1 64.9 49.2 66.9 48.4 66.5
Q 48.65 66.55 48.35 66.4 47.95 66.25 48.1 66.25 48.4 66.25 48.8 66.45 48.8 66.4 48.75 66.3 48.65 66.25 48.7 66.2 48.3 66 47.85 66 47.35 65.95 47 65.85 47.1 65.8 47.1 65.75 47.1 65.7 46.8 65.6 46.5 65.55 46.25 65.4 46.15 65.25 45.8 65.3
L 45.85 65.2
Q 45.6 65.2 44.4 64.85
L 44.45 64.85
Q 43.8 64.7 43.5 64.6 43.05 64.45 42.5 64.3
L 43.1 64.35
Q 42.9 64.25 42.7 64.25 42.4 64.2 42.3 64.2 42.3 64.15 42.35 64.1 42.4 64.1 42.45 64.1
L 41 63.85 40.85 63.85 41.1 64
Q 41 64.05 40.65 63.85 40.3 63.8 40.3 63.7
L 39.95 63.7
Q 39.55 63.5 40.05 63.5 40.35 63.55 40.9 63.65 40.55 63.5 40.1 63.45 39.6052734375 63.3509765625 39.3 63.2 39.409375 63.2578125 39.7 63.5 39.7 63.55 39.3 63.45 38.75 63.25 38.5 63.2
L 38.65 63.3
Q 38.6 63.3 38.35 63.3
L 38.25 63.3
M 38.7 62.95
Q 38.4 62.85 38.05 62.85 37.8 62.8 37.55 62.75 38.25 63 38.7 62.95
M 33.1 49.1
Q 33.1 49.25 33.15 49.4 33.15 49.45 33.2 49.5 33.15 49.25 33.1 49.1
M 36.2 37.1
Q 36.35 36.95 36.45 36.9 35.75 37.1 35.05 37.35 35.75 37.2 35.75 37.3 36 37.2 36.2 37.1
M 65.9 47.65
Q 65.95 47.75 65.85 47.7 66.1 47.95 66.15 48.05 66.2 48.1 66.35 48.05 66.5 48.25 66.55 48.4 66.65 48.55 66.45 48.35
L 67.05 49.05 66.75 48.6
Q 66.8 48.65 67.1 49 67.3 49.3 67.45 49.35
L 66.85 48.6 66.95 48.6
Q 66.8 48.5 66.45 47.95 66.55 47.95 66.6 48 66.25 47.55 66.1 47.55 65.9701171875 47.55 65.8 47.4 65.85 47.5 65.9 47.65
M 62.85 44
Q 62.7484375 43.864453125 62.65 43.7 62.6783203125 43.784765625 62.7 43.85
L 62.55 43.85
Q 62.85 44.1 62.85 44
M 63.05 44.3
L 63.25 44.6
Q 63.3 44.6 63.4 44.65
L 63.05 44.3
M 64.3 45.45
Q 64.1 45.2 64.1 45.3 64.65 45.95 64.75 46 65.15 46.6 65.3 46.95 65.4 47.05 65.6 47.15
L 65.5 47.05 65.7 46.95
Q 65.55 46.85 65.4 46.6
L 66.05 47.1
Q 66 46.9 65.75 46.45 65.4 46 65.35 45.9 65.4 46.05 65.3 46 65.25 46 65.45 46.35
L 65.05 46.15 64.7 45.6 64.5 45.45
Q 64.4 45.3 64.45 45.55 64.6 45.65 64.65 45.75 64.55 45.75 64.3 45.45
M 64.3 44.85
L 64.1 44.75
Q 64 44.45 63.75 44.2 63.6453125 44.077734375 63.55 43.95
L 63.95 44.6
Q 64.1 44.9 64 44.9
L 64.15 45.05
Q 64.4 45.25 64.1 44.8 64.2 44.7 64.7 45.45 64.65 45.35 64.75 45.4 64.8 45.45 64.8 45.4 64.55 45.15 64.5 45 64.45078125 44.7537109375 64.85 45.25
L 64.95 45.3
Q 65.1 45.45 64.95 45.25 64 44 63.35 43.55 64.1 44.45 64.3 44.85
M 63.7 44.55
L 63.8 44.7 63.95 44.85
Q 63.8767578125 44.7708984375 63.7 44.55
M 58.9 36.9
Q 58.628125 36.4923828125 58.4 36.3 58.530859375 36.530859375 58.7 36.7 58.85 36.85 59.05 37.25
L 58.95 37.15
Q 59 37.3 58.95 37.3 59.2 37.45 59.8 38.4 59.9 38.45 59.75 38.15 59.5 37.7 59.45 37.65 59.25 37.45 58.9 36.9
M 50.7 33.15
Q 50.95 33.1 51.6 32.75 52.1 32.5 52.55 32.35 52 32.45 51.4 32.75 50.8 33.1 50.35 33.1
L 50.7 33.15
M 51.05 32.6
L 50.85 32.5
Q 50.9 32.55 50.6 32.75 50.35 32.9 50.4 32.95 50.65 32.85 50.75 32.75 50.85 32.65 51.05 32.6
M 32.85 54.6
L 32.85 54.45
Q 32.9 54.55 33 54.8 33.1 54.95 33.2 55.4 33.25 55 33.1 54.45
L 33.1 54.25 32.9 53.55 32.75 53.4 32.9 54.2
Q 32.85 54.15 32.85 54.3 32.85 54.4 32.8 54.35 32.8 54.8 32.85 54.6
M 32.95 39.2
L 33.1 38.4 32.8 38.55 32.95 39.2
M 34.95 38.1
Q 35.05 37.9 35.05 37.85 35.1 37.8 35.45 37.55 35.2375 37.64375 34.9 37.7 34.15 37.8 34.05 37.85
L 34.05 37.95
Q 34.15 38 34.6 37.85 35 37.75 35.1 37.75 35 37.8 34.7 37.85 34.65 37.9 34.8 37.9 34.5 38.1 34.35 38.1 34.2 38.1 34.1 38.1
L 33.45 38.2 34 37.8 33.2 37.85 33.1 38.4 33.35 38.2 33.3 39 33 39.3
Q 33.1 39.35 33.1 39.3
L 33.25 39.1 33.25 39.3
Q 33.2 39.4 33.25 39.65
L 33.3 39.3
Q 33.35 39.5 33.35 39.85 33.4 40.2 33.45 40.3 33.5 40.3 33.5 40.05 33.45 39.5 33.5 39.3
L 33.6 39.55 33.5 38.75 34.95 38.1
M 33.2 40.35
Q 33.1 40.35 33.15 40.7 33.2 40.45 33.3 40.5 33.25 40.35 33.2 40.35
M 36.95 37
Q 37.2 36.8 37.5 36.8
L 37.45 36.7
Q 37.55 36.7 38 36.55 38.1875 36.475 38.3 36.4
L 37.95 36.55 37.9 36.45
Q 37.6 36.65 37.4 36.7 37.1 36.8 36.9 36.85 36.65 37.05 36.5 37.15 36.2 37.3 35.7 37.4 35.6125 37.4875 35.45 37.55 35.9 37.6 36 37.75 36.25 37.5 37.35 37.15
L 37.05 37.3
Q 37.4 37.2 38 36.85 37.95 36.9 38.05 36.9 38.4 36.8 38.55 36.65 38.65 36.5 38.45 36.5
L 38.35 36.6 38 36.6
Q 37.95 36.75 37.35 36.95 36.65 37.2 36.5 37.3 36.75 37.1 36.95 37
M 42.75 35.15
Q 42.85 35.1 43 35.1 43.05 35 43.25 35 43.45 34.95 43.4 35.05 43.3 35.1 43.25 35.2 43.3 35.15 43.35 35.1 43.5 35.1 43.45 35 44 34.95 44.3 34.7 44.7 34.45 45.25 34.3 45.3 34.45 45.8 34.2 46.3 33.95 46.5 34.05 46.15 34.1 45.8 34.3 45.5 34.5 45.55 34.5 46.2 34.25 46.85 34.1 46.45 34.1 46.75 33.75 46.4 33.95 45.45 34.15 44.2 34.45 43.9 34.55
L 44.05 34.7
Q 43.65 34.85 43.7 34.8 43.75 34.6 43.45 34.7
L 43.2 34.9 43.15 34.9 42.75 35.15
M 51.2 33.05
L 51.4 33.05
Q 51.5 32.95 51.45 32.9 51.4 32.9 51.2 33.05
M 55.45 32.05
L 54.95 31.4 54.1 31.7 54.05 31.7
Q 54.1 31.65 54.05 31.6 53.95 31.6 53.95 31.55 53.65 31.75 53 32.15
L 53.6 32.05
Q 53.2 32.25 52.95 32.35 52.65 32.45 52.35 32.5 52.75 32.5 52.25 32.75 51.55 33 51.4 33.05 51.15 33.1 50.7 33.25 50.3 33.4 50.2 33.4
L 49.55 33.55 49.55 33.35
Q 49.25 33.4 48.9 33.6 48.6 33.75 48.75 33.75
L 48.45 33.8
Q 48.5 33.75 48.45 33.7 49.25 33.2 49.45 33.3 50 33.1 50 33 50 32.8 50.2 32.75 49.6 32.8 49.25 33
L 48.45 33.4
Q 48.5658203125 33.3447265625 48.7 33.3 48.9 33.25 49.25 33.2 48.9 33.45 48.65 33.45
L 48.7 33.4 48.4 33.55
Q 48.35 33.5 47.95 33.6 47.65 33.7 47.9 33.5 47.7 33.6 47.65 33.7 47.6 33.75 47.4 33.85
L 48.2 33.6 48.25 33.75
Q 48.1 33.85 47.9 33.85 47.65 33.95 47.55 33.95
L 47.6 34.1 47 34.15
Q 47.05 34.2 46.5 34.4 46.45 34.45 46.25 34.35 46.15 34.3 45.8 34.45
L 45.85 34.45
Q 45.45 34.7 44.95 34.8
L 45.15 34.7
Q 44.9 34.75 44.1 35.1 43.4 35.3 43.2 35.25
L 43.25 35.2
Q 43.1 35.2 42.7 35.35 42.45 35.45 42.7 35.25
L 41.85 35.7
Q 41.85 35.65 42.1 35.5
L 41.45 35.7 41.5 35.7
Q 40.35 36.15 40 36.4 40.5 36.25 40.15 36.45
L 39.75 36.7
Q 39.45 36.8 39.45 36.6 39.4 36.45 39.85 36.2 40 36.25 40.3 36.15
L 40.75 35.85
Q 40.55 35.9 40.3 36.05 40.0578125 36.1306640625 39.95 36.15
L 39.75 36.15
Q 39.4 36.2 39.4 36.15 39.55 35.95 40 35.85 40.4 35.75 40.35 35.85
L 40.3 35.9
Q 40.4 35.95 40.85 35.8 41.45 35.5 41.55 35.5 41.65 35.5 41.45 35.6 41.6 35.55 42.1 35.4 42.45 35.2 42.45 35.1
L 41.7 35.45
Q 41.6 35.45 41.7 35.4 41.75 35.3 41.65 35.35 41.4 35.45 41 35.55
L 41 35.5
Q 40.55 35.55 39.1 36.1 39.05 36.4 38.65 36.9
L 36 37.75
Q 36 37.8 36 37.85 35.65 37.95 35.45 38 35.2 38.1 35.2 38 35.1 38.1 34.65 38.35 34.3 38.55 34.35 38.6
L 34.3 38.65 33.8 38.85 33.8 39.3
Q 33.6 40 33.55 41.15
L 33.55 41.2
Q 33.55 41.35 33.75 41.3
L 33.65 41.9
Q 33.55 41.55 33.55 41.35
L 33.5 42.85 33.45 42.7 33.55 43.3
Q 33.45 42.4 33.65 42.6 33.7 42.9 33.7 43.45 33.7 43.9 33.75 44.2 33.7 44.2 33.55 44.25 33.45 44.3 33.4 44.2
L 33.4 44.1
Q 33.2 43.75 33.15 43.15 33.05 44.35 33.1 45.1 33 45.15 32.95 44.65
L 32.9 44.35 32.95 43.35
Q 32.95 43.12890625 32.95 42.85 32.95 42.45 32.85 42.15 32.9 41.95 32.95 42.2
L 32.95 42.35
Q 32.95 42.7 33.25 43.05 33.3 42.65 33.2 42.45 33.05 42.2 33 41.9
L 33.15 41.45 33.1 41.35
Q 33.05 41.55 33 41.55 33.1 41.05 33.1 40.75 33 41.05 32.95 41 33 40.85 33.05 40.3 33.1 39.9 33.2 39.7 33.1 39.85 32.95 39.3
L 32.95 39.2 32.8 40.05
Q 32.8 40.5 32.8 41.55 32.8 42.4 32.85 43.1
L 32.75 43
Q 32.65 44.1 32.85 44.75 33.1 45.55 33.1 46.25 33 46.3 33 46.6 33 46.95 32.95 46.95 32.95 46.4 32.85 46.65 32.85 46.85 32.95 47.1 32.95 47.3494140625 32.95 47.7 32.9484375 47.65078125 32.85 47.7 32.8 47.75 32.75 47.45 32.65 48.5 32.9 49 32.95 49.65 32.85 49.8 32.7 50 32.8 50.6
L 32.7 50.35 32.7 51.15 32.85 50.9 32.95 51.8
Q 32.95 52.1 33 51.9
L 33.1 51.65 32.95 51.45
Q 32.95 51.3 32.95 50.9 32.95 50.55 32.95 50.5 33 51.1 33.15 51.2
L 33.1 50.65 33.2 50.45
Q 33.2 49.95 33.2 49.6 33.15 49.65 33.15 49.7 33.00234375 49.503125 32.95 48.1 33 48.1 33.1 48.2 33.15 48.25 33.15 47.8 33.3 48.05 33.5 48.5 33.55 49.35 33.5 49.65
L 33.45 49.65
Q 33.45 49.8 33.5 50.3 33.5 50.65 33.45 50.7 33.5 50.8 33.5 51.1 33.55 51.25 33.6 50.9
L 33.65 51.8
Q 33.6 51.75 33.4 52 33.30625 52.140625 33.25 51.7
L 33.3 52.25
Q 33.15 51.9 33.1 52.85
L 33.2 53
Q 33.05 53.9 33.1 54.25
L 33.5 55.6 33.55 55.95
Q 33.5 56 33.5 56.4 33.45 56.65 33.4 56.5 33.3 56.6 33.35 56.1 33.25 55.95 33.15 56.3 33.15 55.85 33.15 55.75
L 33.1 56.05
Q 33.1 55.7 32.95 55.25 32.9326171875 55.094140625 32.9 55 32.9212890625 55.0650390625 32.9 55.15 32.85 55.3 32.8 55.55 32.7 54.8 32.65 55.25 32.7 55.35 32.8 55.75 32.85 56 32.9 55.65 32.95 56.45 32.95 56.5 32.9 56.3 32.85 56.3 32.75 56.35 32.7 56.3 32.8 56.65 32.95 56.7 32.95 56.7353515625 32.9 56.85 32.9369140625 56.8390625 32.95 56.8 33 57.1 33.05 58.15 33.1 59 33.25 59.25 33.25 59.2 33.2 58.85 33.15 58.55 33.25 58.45
L 33.15 58.2
Q 33 57.4 33.2 57.3 33.25 57.75 33.3 58.1 33.35 58.25 33.45 58.55
L 33.5 58.75
Q 33.5 58.95 33.55 59.5 33.5 59.75 33.4 59.55 33.35 59.9 33.4 60.25
L 33.5 61.15 33.3 61.1 33.15 60.25
Q 33.1 60.15 33.1 60.05 33.05 59.8 33.1 59.6 33.15 59.35 33.05 59.5 32.95625 59.59375 32.95 59.8
L 32.95 58.8 32.9 59.2 32.9 58.8 32.8 59.15
Q 32.76640625 57.972265625 32.85 57.3 32.805859375 57.521484375 32.75 57.8 32.6912109375 58.123046875 32.65 58.45
L 32.7 58.45
Q 32.85 58.8 32.7 59.25 32.65 59.7 32.65 60
L 32.8 59.8 32.95 61.6 34.4 62
Q 34.4 62.05 34.65 62.2 34.9 62.35 34.6 62.25 35.05 62.5 35.6 62.5 36.1 62.5 36.65 62.65
L 35.7 62.3
Q 36 62.35 36 62.3 35.9 62.2 35.9 62.15 36 62.25 36.5 62.45 36.75 62.55 36.4 62.5 37.4 62.85 37.7 62.85
L 37.45 62.75
Q 37.35 62.7 37.2 62.65 36.75 62.45 36.95 62.45 37.15 62.45 36.9 62.25
L 36.2 62.15 36.5 62.3
Q 36.45 62.35 36 62.15 35.55 62.05 35.55 62.15 35.2 61.95 34.85 61.85 34.514453125 61.7158203125 34.3 61.6
L 34.1 61.55 33.4 61.5 33.35 61.25 34.25 61.55
Q 34.1625 61.5375 34.1 61.5
L 33.6 61.2 34.15 61.35
Q 34.4 61.45 34.95 61.5 35.4 61.55 35.75 61.75 35.75 61.8 36.05 61.9 36.321875 62.08125 36.2 62.05 36.5140625 62.151953125 36.85 62.2 37.05 62.2 37.35 62.25 37.4 62.3 37.7 62.45 38.0390625 62.546875 37.9 62.55
L 38.4 62.55
Q 38.5 62.6 39 62.8 39.4 62.9 39.4 63 39.55 63 39.7 63 39.75 62.95 40.05 63.1
L 39.95 63.1
Q 40.45 63.35 40.95 63.35
L 40.45 63.2
Q 40.5 63.15 40.8 63.2 41.1 63.25 41.45 63.45 41.1 63.35 41.4 63.5 41.7 63.7 41.55 63.7 42.15 63.9 42.85 64 43.25 64.1 44.1 64.2 44.25 64.2 45.65 64.65 46.6 64.95 47.1 65.05
L 47 65 47.5 65.05
Q 47.55 65.15 47.6 65.2 47.6 65.25 47.85 65.3 47.75 65.4 47.35 65.25 46.85 65.1 46.65 65.05 47.05 65.25 46.6 65.2 46.865625 65.249609375 47.4 65.45 48.35 65.75 48.65 65.8 48.9400390625 65.8966796875 48.8 65.9
L 48.85 65.9
Q 49.15 66 49.15 66.1 50.25 66.55 51.1 66.6 50.75 66.55 50.9 66.5 51 66.45 50.65 66.35 51 66.35 51.8 66.6 51.6 66.55 51.8 66.7 51.9 66.85 51.4 66.65 51.45 66.75 51.7 66.8 52.087109375 66.896875 52.25 66.9 51.91875 66.9 51.7 66.9 52.123828125 66.9111328125 52.85 67.25 53.65 67.6 53.8 67.6 54.05 67.6 54.2 67.6
L 54.95 67.7 55.75 66.05
Q 55.95 65.8 56.3 65.35 56.8 64.7 56.9 64.55
L 56.9 64.7
Q 57.4 63.9 57.7 63.5
L 57.9 63.5 58.8 62.15
Q 58.45 62.55 58.55 62.3 58.25 62.75 58.35 62.7 58.2 62.9 57.95 63
L 58.5 62.1 58.6 62 58.55 61.85
Q 58.8 61.55 58.8 61.65 59.15 60.9 59.55 60.4 59.35 60.85 59.15 61.2
L 59.6 60.65
Q 59.55 60.75 59.1 61.45 58.8 61.95 58.95 61.9 60.05 60.15 60.3 59.55 60.45 59.45 60.7 59 61.05 58.5 61.2 58.35 61.4 58.1 61.4 58.25
L 61.35 58.4
Q 61.95 57.6 62.65 56.3
L 63 56.1
Q 63.35 55.6 63.15 55.6 63.05 55.65 63.4 55.05 63.55 55 64 54.4 64.4 53.9 64.45 53.9 64.7 53.6 64.65 53.55 64.45 53.75 64.4 53.85 64.25 54 64.3 53.8 64.5 53.45 64.9 53.05
L 64.85 53.2
Q 65.1 52.85 65.8 51.85 66.25 51.15 66.45 50.7 66.35 50.9 66.15 51.05 66.25 50.85 66.25 50.75 66.2 50.75 66.1 51 65.95 51.3 65.8 51.4
L 66.05 50.9 66.8 49.8 60.85 41.55
Q 60.9974609375 41.72109375 61.15 41.95 61.5 42.45 61.7 42.6
L 61.65 42.6 61.7 42.65
Q 61.85 42.9 62.25 43.25 62.5 43.4 62.85 43.85
L 63 43.8
Q 63.1 43.9 63.35 44.25 63.5 44.55 63.65 44.6
L 63.45 44.25 63.55 44.3
Q 63.3 44 63.25 44 62.85 43.55 62.75 43.05 62.7 42.9 62.8 42.95 63 43 63 42.95 62.8 42.8 62.65 42.65 62.45 42.5 62.3 42.35
L 62.25 42.2 62.1 42.05
Q 62 41.9 61.9 41.75 61.75 41.5 62 41.65
L 62.2 41.9
Q 61.3 40.35 61.4 40.3 61.2 40.15 60.9 39.6 60.85 39.55 60.7 39.55 60.6 39.55 60.35 39.3
L 60.6 39.75 60.8 39.9 60.5 39.5
Q 60.65 39.65 60.7 39.65 60.75 39.7 60.85 39.7 61.35 40.35 61.55 40.95 61.35 40.75 61.25 40.65 61.1 40.55 61.1 40.65 61.05 40.45 60.85 40.3 60.65 40.15 60.55 39.9 60.45 39.8 60.35 39.65 60.3 39.5 60.15 39.4 60.25 39.4 60.15 39.35
L 60 39.2
Q 60 39.3 59.7 39.05 59.55 38.8 59.65 38.75
L 59.7 38.65
Q 60.05 39 60.15 38.95 60.25 38.9 60.6 39.3 60.7466796875 39.1533203125 60.15 38.4 60.2134765625 38.5 60.05 38.5 59.95 38.5 60.05 38.8 59.85 38.55 59.35 38.2 59.05 38 58.8 37.5
L 58.5 37.25 58.25 36.8
Q 58.4 36.85 58.65 37.15 58.9 37.45 59 37.5 58.85 37.15 58.5 36.85 58.05 36.45 57.9 36.2 57.75 35.9 58.05 36.25 58.5 36.75 58.55 36.7 58.45 36.65 58.35 36.45 58.312890625 36.2640625 58.3 36.2 58.1548828125 35.9025390625 58.25 35.95 58.33125 35.990625 58.35 36.05 58.24375 35.8 58.15 35.8 58.05 35.8 58 35.8 57.65 35.4 57.5 35 57.3 34.5 57.15 34.3 56.75 34 55.45 32.05
M 53.25 33
L 53.25 33.05 54.55 32.6 54.7 32.8 54.45 32.65 54.35 32.75 54.55 32.75
Q 54.6 32.9 55.15 33.55
L 55.2 33.55 55.25 33.6
Q 55.45 33.75 55.6 34.05
L 55.5 34.05
Q 55.5 34.15 56.05 34.95
L 55.95 34.85 54.5 32.8 52.05 33.6
Q 52.65 33.35 53.25 33
M 41.45 37.05
Q 41.35 37.05 41.4 37 40.65 37.15 40.5 37.25 40.8 37.2 40.7 37.3
L 40.15 37.5 40.15 37.45
Q 40.15 37.4 40.05 37.45
L 39.4 37.65 40 37.5 39.95 37.55 35.95 38.85
Q 35.35 38.9 35 38.8
L 35.7 38.5 35.7 38.65
Q 36.3 38.5 37.2 38.1 38.05 37.65 38.65 37.5 38.603125 37.546875 38.55 37.6 38.608984375 37.5439453125 38.75 37.45 39 37.3 39.4 37.25 38.95 37.4 39.2 37.35 39.55 37.25 39.25 37.45 39.9 37.15 40.9 36.85 42.2 36.5 42.4 36.45 42.25 36.45 42.45 36.35
L 42.7 36.2
Q 42.85 36.15 42.8 36.2 42.8 36.25 42.7 36.3 43.25 36.2 43.15 36.4
L 42.4 36.7
Q 42.55 36.65 42.8 36.65
L 41.45 37.05
M 45.2 35.45
L 45.15 35.55 45.6 35.3
Q 45.65 35.35 45.7 35.35 45.8 35.35 45.8 35.4 46.05 35.45 46.6 35.15 47.3 34.8 47.65 34.8
L 47.55 34.85
Q 47.8 34.75 48.45 34.5 48.8 34.45 49.55 34.25
L 49.55 34.3
Q 49.05 34.5 49.2 34.55
L 48.35 34.8
Q 48.3 34.8 48.2 34.8 48.1 34.85 47.8 35
L 46.45 35.45
Q 46.5 35.4 46.65 35.3
L 44.95 35.9 44.95 35.95 43.4 36.45
Q 43.45 36.4 43.45 36.3
L 44.4 35.75 44.35 35.75 45.2 35.45
M 60.65 41.35
L 60.5 41.2 60.7 41.35 60.65 41.35
M 34.35 40.9
Q 34.5 40.85 34.55 40.95
L 34.55 41.9
Q 34.5 41.95 34.45 42.2
L 34.35 40.9
M 34.5 42.7
Q 34.5 42.45 34.55 42.15
L 34.55 43
Q 34.5 42.95 34.5 42.7
M 34.2 47
Q 34.25 47 34.4 47.7 34.5 47.95 34.55 48.1
L 34.55 48.5 34.5 48.5
Q 34.4 48.65 34.15 49.95
L 34.25 47.55 34.15 47.65
Q 34.1 47.2 34.2 47
M 33.3 52.5
L 33.25 52.4 33.3 52.3 33.3 52.5
M 34.5 57.1
Q 34.5453125 56.9640625 34.55 56.75
L 34.55 58.5
Q 34.45 58.2 34.45 57.6
L 34.4 58.45 34.35 58.25 34.45 56.4
Q 34.5 56.75 34.5 57.1
M 52.65 66.25
Q 52.7 66.25 52.8 66.25
L 53.2 66.35 53.15 66.35
Q 53.1 66.45 52.65 66.25
M 36.85 38.5
Q 36.9 38.5 37.4 38.35 37.35 38.35 37.1 38.4 36.95 38.4 36.85 38.5 Z"/>
</g>
</defs>

<g transform="matrix( 1, 0, 0, 1, 0,0) ">
<use xlink:href="#Layer1_0_FILL"/>
</g>
</svg>
