
<svg xmlns="http://www.w3.org/2000/svg" version="1.1" xmlns:xlink="http://www.w3.org/1999/xlink" preserveAspectRatio="none" x="0px" y="0px" width="100px" height="100px" viewBox="0 0 100 100">
<defs>
<g id="Layer1_0_FILL">
<path fill="#000000" stroke="none" d="
M 55 47.7
Q 54.1 46.35 52.55 44.7 50.95 43 50.65 43 50.35 42.95 49.7 42.9 49.248046875 42.8677734375 49.1 43.05
L 49.1 43.05
Q 45.9 46.35 45 47.7 44.55 48.4 43.2 49.7 41.85 50.95 41.35 51.65 41.3 51.7 40.7 52.25 40.25 52.6 40.35 52.95
L 40.7 52.6
Q 40.6 52.9 40.25 53.2 39.8 53.55 39.7 53.75 39.9 53.95 39.85 54.15
L 40.7 53.3 40.9 53.55
Q 40.75 53.85 40.05 54.35
L 40.35 54.65
Q 40.4 54.7 40.4 54.8
L 40.65 54.45 40.95 54.75
Q 41.05 54.85 40.8 55.05 41.05 55.45 41.15 55.4
L 41.5 55.05
Q 41.25 55.45 41.25 55.85 41.25 56.25 41.4 56.4 41.45 56.3 41.55 56.35 41.65 56.35 41.7 56.3 41.5 57.45 42.05 57.05 44.8 54.55 48.35 50.8 49.213671875 49.85 49.95 49 50.76640625 49.8521484375 51.65 50.8 55.2 54.55 57.95 57.05 58.5 57.45 58.3 56.3 58.35 56.35 58.45 56.35 58.55 56.3 58.6 56.4 58.75 56.25 58.75 55.85 58.75 55.45 58.5 55.05
L 58.85 55.4
Q 58.95 55.45 59.2 55.05 58.95 54.85 59.05 54.75
L 59.35 54.45 59.6 54.8
Q 59.6 54.7 59.65 54.65
L 59.95 54.35
Q 59.25 53.85 59.1 53.55
L 59.3 53.3 60.15 54.15
Q 60.1 53.95 60.3 53.75 60.2 53.55 59.75 53.2 59.4 52.9 59.3 52.6
L 59.65 52.95
Q 59.75 52.6 59.3 52.25 58.7 51.7 58.65 51.65 58.15 50.95 56.8 49.7 55.45 48.4 55 47.7 Z"/>
</g>
</defs>

<g transform="matrix( 1, 0, 0, 1, 0,0) ">
<use xlink:href="#Layer1_0_FILL"/>
</g>
</svg>
