
<svg xmlns="http://www.w3.org/2000/svg" version="1.1" xmlns:xlink="http://www.w3.org/1999/xlink" preserveAspectRatio="none" x="0px" y="0px" width="100px" height="100px" viewBox="0 0 100 100">
<defs>
<g id="Layer1_0_FILL">
<path fill="#000000" stroke="none" d="
M 71.1 53.8
L 71.1 53.6 71.05 53.65 70.95 53.3 70.95 53.75
Q 70.95 53.8 71.1 53.8
M 70.95 53
L 70.95 53 70.95 53 70.95 53
M 71.15 51.55
L 71.1 51.6 71.2 52.35 71.1 52.65 71.1 52.45 71.05 52.65 71.1 52.7
Q 71.1 52.95 71.05 52.75
L 71.05 52.9
Q 71.0986328125 52.9244140625 71.1 52.85 71.15 52.913671875 71.15 52.95 71.18203125 52.9287109375 71.2 52.9 71.249609375 52.840234375 71.2 52.75
L 71.2 52.7 71.25 52.8 71.25 52.4 71.3 52.3
Q 71.4 52 71.35 51.85
L 71.2 51.35 71.2 51.4
Q 71.15 51.45 71.1 51.35
L 71.15 51.55
M 34.5 58.1
L 34.55 58.1 34.55 58.05 34.4 58.05 34.3 58.1 34.45 58.1 34.45 58.15 34.5 58.1
M 34.65 58.3
L 34.75 58.1 34.75 58 34.7 58.05 34.7 58 34.5 58.2 34.4 58.2 34.45 58.15 34.35 58.15 34.4 58.25 34.4 58.3 34.65 58.3
M 70.2 44
L 70.2 44 70.3 44.15
Q 70.3 44.05 70.4 44.15
L 70.35 44.05
Q 70.2916015625 44.0365234375 70.2 44
M 68.25 41.8
L 68.1 41.85 68.1 41.9 68.1 41.9 68.2 41.9 68.4 41.9
Q 68.3353515625 41.8580078125 68.25 41.8
M 56.4 40.85
L 56.4 40.8
Q 56.6314453125 40.79375 56.5 40.75 56.39921875 40.699609375 56.3 40.65 56.2478515625 40.6548828125 56.2 40.65
L 55.45 40.5 55.5 40.5 55.35 40.45 54.65 40.3 53.85 40.35
Q 53.9 40.4 53.8 40.4
L 54.1 40.45 54.2 40.5
Q 54.610546875 40.5912109375 55.3 40.6
L 55.45 40.6 56 40.7 55.65 40.7 56 40.8 56.05 40.7
Q 56.55 40.8 56.15 40.8
L 56.4 40.85
M 57.45 41
L 57.4 41 57.1 41.05 57.9 41.15
Q 57.95 41.15 57.95 41.05
L 57.6 40.95
Q 57.75 41.05 57.7 41.05
L 57.45 41
M 50.2 40.45
L 50.35 40.45
Q 50.25 40.446875 50.25 40.4
L 50.2 40.45
M 35.2 58.1
L 35.15 58.1 35.15 58.2 35.2 58.15 35.2 58.1
M 33.9 57.95
L 33.9 57.9 33.85 57.95 33.9 57.95
M 71.15 49.3
L 71.15 49.4 71.2 49.3 71.15 49.3
M 71.1 49
Q 71.1275390625 49.065234375 71.1 49.1
L 71.15 49.2 71.1 49
M 70.9 46.9
L 70.9 46.9 70.85 46.85 70.9 46.9
M 70.95 47.05
L 70.9 46.9 70.9 47.05 70.95 47.05
M 44.5 40.85
L 44.55 40.85 44.9 40.8 44.85 40.8 44.5 40.85
M 47.75 40.65
Q 47.709765625 40.65 47.65 40.65 47.5337890625 40.65 47.45 40.65
L 46.95 40.7 46.95 40.65
Q 46.9478515625 40.7177734375 46.75 40.75
L 47.4 40.7 46.9 40.8 46.8 40.8 46.65 40.9 46.6 40.85
Q 46.3 40.95 46.05 40.95 46.3 40.9 46.45 40.85 46.75 40.8 46.6 40.75
L 46.5 40.8 46.35 40.8
Q 46.3990234375 40.7509765625 45.95 40.75 46.1 40.746875 46.1 40.7 45.898828125 40.7337890625 45.7 40.8 45.95 40.75 45.9 40.85
L 45.75 40.85 45.6 40.9
Q 45.576171875 40.876171875 45.45 40.85 45.3115234375 40.826171875 45.05 40.8
L 44.9 40.8
Q 44.9578125 40.8400390625 44.85 40.85
L 44.95 40.85 44.8 40.95 44.7 40.95
Q 44.797265625 40.9013671875 44.45 40.9 44.596875 40.896875 44.55 40.85
L 44.4 40.9 44.3 40.95 44.2 40.9 44.4 40.85 43.95 40.9 44.05 40.85
Q 43.8 40.85 43.7 40.95 43.6 41.05 43.5 41.05 43.6 41 43.25 41
L 42.65 41.15 42.45 41.1 42.35 41.15 41.9 41.2
Q 41.7 41.25 41.85 41.25
L 41.1 41.4 41.25 41.35 41.3 41.25
Q 41.1 41.35 40.4 41.5
L 39.4 41.6 39.45 41.65 39.15 41.65 39.25 41.6 39.2 41.6
Q 39.4 41.5 39.15 41.55
L 39.3 41.5
Q 38.95 41.6 38.85 41.55
L 38.3 41.7
Q 38.4 41.65 38.2 41.65
L 37.9 41.7 38.05 41.7 37.85 41.75
Q 37.65 41.85 37.6 41.85 37.2 41.9 37.4 41.85
L 37.6 41.75 37.15 41.85 37.2 41.8 36.95 41.85 36.8 41.95 36.55 42 36.4 42
Q 36.33671875 42.01328125 36.3 42.05
L 36 42.1
Q 36.1 42.05 36 42.05
L 35.75 42.1 35.9 42.1 35.7 42.15 35.85 42.15 35.55 42.2 35.45 42.15 34.95 42.2 35.1 42.2
Q 35.19375 42.246875 35.05 42.25
L 35.25 42.25
Q 35.25 42.295703125 35.5 42.3
L 35.5 42.3 36.25 42.15
Q 36.45 42.15 36.3 42.2
L 36.4 42.2
Q 36.65 42.15 36.5 42.15
L 36.75 42.1 36.75 42.15 36.15 42.3
Q 35.9068359375 42.3056640625 35.75 42.35
L 35.65 42.35 35.65 42.35 35.55 42.4 32.8 42.2 32.8 42.15 32.05 42.1 32 42.1 32 42.05 31.9 42.15 31.15 42.6 30.5 42.75 30.35 43.15 30.35 43.1 30.1 43.8 30.1 43.65
Q 30.05 43.8 30.05 43.65
L 30.15 43.15 30.25 43.05
Q 30.3236328125 42.884375 30.35 42.75
L 30.35 42.75
Q 30.273046875 42.976953125 30.1 43.15 29.936328125 43.3318359375 29.75 43.4 29.524609375 43.9689453125 29.4 44.8
L 29.35 44.85 29.35 44.95 29.15 46.45
Q 29.25 46.55 29.15 47.15 29.05 47.75 29.1 47.95 29.1 48.6 29.2 48.2 29.15 48.6 29.1 48.8
L 29 48.7 28.95 49.05 29 49.25
Q 28.85 49.6 28.9 50.25 28.9 50.4 28.95 50.35
L 28.9 50.6 28.85 50.7 28.85 50.75
Q 28.95 51.45 28.95 51.5
L 29 51.65
Q 29.1 51.85 29.1 52.25
L 29.15 52.25 29.2 52.75
Q 29.2 52.95 29.45 53.95 29.4662109375 54.06328125 29.5 54.15
L 29.55 54.55
Q 29.5138671875 54.6220703125 29.45 54.45 29.5677734375 54.8693359375 29.65 55.65
L 29.9 56.1
Q 29.85 56.1 30.25 56.95
L 30.25 57 30.3 57.15
Q 30.51015625 57.31015625 30.7 57.5 31.05 57.65 31.7 57.9 31.767578125 57.9404296875 31.85 58 32.1318359375 57.9837890625 32.5 57.9
L 32.85 57.9 32.8 58
Q 32.85 58 32.9 57.95
L 32.95 57.95 33.2 57.9 33.2 57.9 33.25 57.9 33.35 57.95 33.45 57.9 33.5 57.95
Q 33.5 57.9 33.65 57.9
L 33.75 57.95 33.75 57.9 33.75 57.85 33.8 57.85 33.8 57.9 33.8 57.85 33.85 57.85 33.85 57.9 33.9 57.9 33.9 57.85 33.95 57.85 34 57.9 34 57.95 34.05 57.9 34.15 57.9
Q 34.2 57.95 34.25 57.95
L 34.3 57.9 34.35 57.95 34.45 57.95 34.5 57.9 34.55 57.9 34.55 57.85 34.6 57.95 34.65 57.9 34.65 57.9 34.75 57.95 34.85 57.85 34.85 57.9 34.9 57.9 34.9 57.85 35.05 57.85 34.95 57.9 35.1 57.9 35.05 58.1 35.1 58.1 35.2 58 35.2 58.1 35.25 58.05 35.35 58.1 35.5 58.1 35.55 58.15 35.55 58.1 35.75 58.1 35.8 58 35.85 58.05 35.85 58 35.9 58.1 35.95 58.05 35.9 58 35.95 58
Q 35.962109375 58.02734375 35.95 58.05
L 36 58.05
Q 36.023828125 58.0869140625 36.05 58.1
L 36.2 58.1
Q 36.25 58.15 36.25 58.05
L 36.3 58.1 36.4 58 36.45 58.1 36.5 58.1
Q 36.55 58.1 36.5 58.05
L 36.55 58 36.55 58.05 36.6 58 36.6 58.1
Q 36.75 58.1 36.75 58
L 36.9 58 36.9 58.05 36.95 58.05 36.9 58.1 36.95 58.15 37.05 58.1 37.05 58.15 37.1 58.1 37.15 58
Q 37.25 58 37.15 58.1
L 37.25 58.1 37.25 58 37.3 58 37.3 58.05 37.35 58.05
Q 37.398828125 58.001171875 37.35 58
L 37.4 58
Q 37.45 57.95 37.5 58
L 37.55 57.95 37.55 57.9
Q 37.503125 57.9 37.55 57.85
L 37.5 57.9 37.45 57.9 37.5 57.85 37.45 57.85 37.35 57.9 37.35 57.85 37.3 57.9 37.2 57.9 37.25 57.85 37.3 57.85 37.3 57.75 37.35 57.75 37.35 57.8 37.35 57.75 38 57.75
Q 37.9640625 57.7787109375 37.9 57.8 38.35 57.85 39.3 57.8 40.1 57.75 40.5 57.85
L 39.25 57.95 39.55 58 39.3 58.05
Q 39.45 58.05 39.15 58.15
L 40 58.1
Q 39.7 58.1 39.75 58.05 39.9 58.05 39.95 58
L 40.3 58
Q 40.04375 57.99375 40.35 57.95
L 40.9 57.95 40.55 58.05
Q 41.1 57.95 42 58.05
L 42.15 58.1 42.65 58.1 42.6 58.15 43.15 58.15 43.55 58.05 44.15 58 43.85 58.1 44.1 58.1
Q 44.35 58.05 44.4 58.05 44.9 58 45.2 58.05 45.55 58 46.05 58
L 46.9 58 48 58.25 48.25 58.25 50.15 58.65 50.55 58.7
Q 51.1 58.85 52.05 59 52.95 59.25 53.4 59.15
L 54.55 59.4 54.3 59.4 54.55 59.5
Q 55.5 59.7 55.65 59.7
L 55.9 59.8 56.05 59.8
Q 56.6 59.65 56.8 59.45
L 57.6 59.35
Q 57.7 59.3 59.1 59
L 59 58.95
Q 59.4 58.95 60.05 58.7 60.25 58.65 61.4 58.45 62.131640625 58.3638671875 63.05 58
L 63.55 57.85
Q 63.610546875 57.8634765625 63.65 57.85
L 63.85 57.85 64.15 57.8 64.15 57.8 64.3 57.9 64.3 57.8 64.9 57.7 64.95 57.7 65.2 57.75 65.6 57.65 66.55 57.7
Q 67.20625 57.4712890625 67.85 57.6 68.55 57.85 68.7 57.8
L 69.15 57.65 69.55 57.15
Q 69.7568359375 56.8544921875 69.95 56.65 69.9693359375 56.6275390625 70 56.6
L 70.05 56.3 70.1 56.25
Q 70.1259765625 56.2740234375 70.2 56.2
L 70.45 55.5
Q 70.5 55.55 70.55 55.25
L 70.5 55.1 70.5 54.85 70.5 54.65 70.55 54.7 70.55 54.6
Q 70.5984375 54.6484375 70.6 54.7
L 70.6 54.15
Q 70.603125 54.246875 70.65 54.2
L 70.65 54 70.7 53.7 70.7 53.65
Q 70.7 53.6 70.8 53.3
L 70.8 53.35 70.85 53 70.8 53.05 70.8 53.2
Q 70.7966796875 53.05 70.75 53.05
L 70.85 52.95 70.9 52.5 70.9 52.2
Q 70.95 52.1 70.9 52.1 70.9 52.0408203125 70.85 52
L 70.85 51.95
Q 70.9072265625 51.95 70.95 51.95 70.991796875 51.782421875 71 51.65 70.95 51.55 71.05 51.35
L 71.05 51.1 71.1 50.95 71.05 50.9 71.1 50.8 71.05 50.75 71.05 50.7 71 50.65 71 50.55
Q 71.0564453125 50.52578125 71.1 50.7
L 71.05 50 71.25 50.1 71.2 50.05 71.2 49.95 71.15 49.8
Q 71.05 49.75 71.05 49.55
L 71.15 49.65 71.15 49.55 71.2 49.4 71.15 49.4 71.15 49.5
Q 71.1 49.55 71.1 49.4 71.1265625 49.2400390625 71.1 49.1
L 71.1 49 71.1 49 71.15 49 71.15 48.85 71.1 48.9 71.05 48.45 71.05 48.5 71.05 48.35
Q 71.1 48.4 71.1 48.3
L 71 48.1 71 48 70.95 47.6 71 47.7 70.9 47.4 70.95 47.4 70.85 47.2 70.8 47.15 70.85 47.1 70.8 47.05
Q 70.85 47.1 70.85 46.85
L 70.85 46.85 70.8 46.7
Q 70.85 46.85 70.75 46.8
L 70.75 46.75 70.7 46.65
Q 70.7244140625 46.637890625 70.75 46.6
L 70.75 46.55
Q 70.8173828125 46.495703125 70.85 46.3
L 70.75 45.7 70.75 45.75
Q 70.7486328125 45.696484375 70.65 45.45 70.7 45.55 70.7 45.3
L 70.6 44.95 70.6 44.75 70.55 44.7 70.5 44.45
Q 70.45 44.35 70.45 44.45
L 70.4 44.35 70.15 43.95
Q 69.925 43.8251953125 69.7 43.55 69.4 42.95 69.2 42.65 68.8955078125 42.2439453125 68.5 41.95
L 68.15 42.05 68.1 42.05 66.15 42.2 66.4 42.15 66.25 42.15 66.75 42
Q 66.15 42.15 65.8 42.15 65.8474609375 42.1025390625 65.75 42.1
L 65.45 42.15 65.3 42.2
Q 65.3 42.1349609375 65.4 42.1
L 63.8 42.25 63.6 42.3 63.05 42.3 62.35 42.4 62.25 42.35 62.1 42.3 60.85 42.05
Q 61 42.05 60.4 41.9
L 60.15 41.9 60.3 41.95 59.95 41.9 59.8 41.85
Q 59.7 41.9 59.65 41.85
L 59.6 41.85 59.5 41.85
Q 59.44375 41.8310546875 59.35 41.8
L 59.5 41.8 59.3 41.75 59.5 41.75 59.35 41.7 58.95 41.65 58.85 41.6 58.6 41.6
Q 58.75 41.6 58.65 41.55
L 57.8 41.4 57.65 41.35
Q 57.6 41.35 57.15 41.2
L 56.95 41.15 56.65 41.15 56.45 41.05 55.7 40.9
Q 55.35 40.9 55.2 40.85
L 55.2 40.8 55 40.8
Q 55.1 40.85 55 40.85
L 54.8 40.75 54.2 40.6
Q 54.05390625 40.5845703125 53.8 40.5
L 53.95 40.5 53.65 40.45 53.4 40.45 53.15 40.5 52.75 40.5
Q 52.75 40.592578125 52.45 40.6
L 52.6 40.6 52 40.65 52.2 40.6 52.35 40.6
Q 52.7 40.55 52.6 40.5
L 51.45 40.55 51.7 40.25
Q 51.6560546875 40.2939453125 51.55 40.4
L 51.35 40.4 51.1 40.45 51.15 40.45
Q 51 40.55 50.7 40.55 50.7 40.5 50.85 40.5
L 50.65 40.45
Q 50.59375 40.45 50.55 40.45 50.5 40.5 50.45 40.5
L 50.4 40.5
Q 50.1408203125 40.4712890625 49.9 40.45
L 50.05 40.45 48.8 40.55
Q 49.2 40.5 49 40.5
L 48.55 40.55
Q 48.65 40.5 48.5 40.5
L 48.2 40.6 47.75 40.65 47.75 40.65
M 47.5 40.85
Q 47.572265625 40.872265625 47.6 40.9 47.6935546875 40.9466796875 47.35 40.9 47.438671875 40.877734375 47.5 40.85
M 40.85 41.55
L 41.05 41.55 40.3 41.7 40.35 41.65 40.1 41.65 40.6 41.6 40.35 41.6 40.7 41.5 41 41.45 40.85 41.55
M 41.9 47.65
L 41.9 47.65
Q 41.9490234375 47.6859375 41.95 47.7
L 41.9 47.65
M 41.35 47.1
L 41.35 47.15 41.4 47.2 41.5 47.4
Q 41.5 47.446875 41.45 47.4
L 41.6 47.55
Q 41.6890625 47.6833984375 41.6 47.65
L 41.7 47.9 41.75 48 41.9 48.05
Q 41.9986328125 48.1486328125 42 48.1
L 42 48.2 41.8 48.05
Q 41.75 48.1 41.85 48.25 41.95 48.25 41.9 48.15
L 42.05 48.25 42.05 48.3 42.2 48.45 42.25 48.55 42.1 48.4 42.1 48.45 42.05 48.45
Q 42.1166015625 48.5166015625 42.15 48.65
L 42.15 48.7 42.2 48.75
Q 42.3 48.85 42.3 49
L 42.35 49.2 42.4 49.25 42.4 49.3 42.45 49.45 42.4 49.45 42.5 49.65 42.5 49.55 42.6 49.75
Q 42.65 49.9 42.7 49.95
L 42.7 50.25 42.65 50.25
Q 42.65 50.35 42.75 50.4
L 42.75 50.45 42.7 50.45 42.7 50.6 42.75 50.6 42.75 51 42.7 50.75
Q 42.7 50.85 42.6 50.75
L 42.6 51.25 42.65 51.25
Q 42.7 51.4 42.6 51.35
L 42.65 51.4 42.7 51.5 42.75 51.65 42.7 51.6 42.7 51.7 42.75 52
Q 42.75 52.05 42.8 52.05 42.7 52.15 42.7 52
L 42.65 52.05 42.6 51.95
Q 42.65 51.95 42.65 51.9
L 42.65 51.75 42.6 51.8 42.55 52.1 42.7 52.25 42.7 52.5 42.6 52.7 42.65 52.75 42.6 52.85 42.6 53.05 42.45 53.3
Q 42.4033203125 53.35 42.45 53.35
L 42.4 53.45 42.4 53.35 42.25 53.65 42.35 53.55 42.25 53.8 42.15 53.75 42.2 53.55
Q 42.2013671875 53.497265625 42.25 53.4
L 42.3 53.3 42.25 53.3 42.3 53.25
Q 42.3990234375 53.1015625 42.45 53.05 42.409375 53.0890625 42.4 53
L 42.4 52.95 42.3 53.05 42.1 53.5 42.05 53.55 42 53.7 42 53.75 41.9 53.95 41.95 53.9 41.9 54 41.9 53.95 41.9 53.9 41.85 53.95 41.9 53.85 41.85 53.9 41.95 53.7 42 53.55 42 53.35 41.95 53.35 41.95 53.4 41.9 53.2
Q 41.9 53.15 41.9 53.1
L 41.9 52.8 41.85 52.65 41.9 52.7 41.9 52.5 41.85 52.6
Q 41.8 52.5 41.85 52.4 41.9 52.55 41.9 52.4
L 41.8 51.9 41.8 51.4
Q 41.85 51.55 41.9 51.45 41.85 51.15 41.8 51 41.85 51.05 41.85 51
L 41.8 50.95 41.85 50.9 41.8 50.65 41.75 50.55
Q 41.8 50.7 41.7 50.65
L 41.7 50.45
Q 41.7015625 50.5 41.75 50.5
L 41.7 50.35 41.75 50.45 41.7 50 41.55 49.7 41.55 49.55 41.5 49.4 41.55 49.4 41.5 49.15 41.5 49.1 41.45 48.85 41.4 48.9 41.45 48.95 41.45 49.05 41.35 48.85 41.35 48.75 41.25 48.55 41.25 48.5 41.3 48.55 41.4 48.8 41.35 48.55 41.2 48.3
Q 41.15 48.15 41.15 48.05
L 41.15 48 41 47.6 41.05 47.55 41 47.5
Q 40.9892578125 47.557421875 40.95 47.4
L 40.85 46.9 40.9 46.95
Q 40.8603515625 46.81796875 40.8 46.7 40.813671875 46.651953125 40.8 46.6 40.768359375 46.5447265625 40.75 46.5
L 40.7 46.45 40.65 46.45
Q 40.6673828125 46.3814453125 40.65 46.3 41.33984375 46.8173828125 41.85 47.5
L 41.55 47.2 41.5 47.2 41.45 47.25 41.35 47.1
M 40.65 46.45
L 40.7 46.55 40.7 46.55
Q 40.6826171875 46.5078125 40.65 46.45
M 42.6 48.9
L 42.65 48.95
Q 42.703515625 49.1140625 42.75 49.3 42.8072265625 49.5287109375 42.85 49.75 42.868359375 49.824609375 42.85 49.9 42.8361328125 49.772265625 42.75 49.6
L 42.7 49.4
Q 42.75 49.35 42.65 49.2
L 42.6 49.1 42.65 49.1 42.6 48.9
M 48.15 48.5
L 48.15 48.55 48.1 48.45 48.35 48.65 48.4 48.75
Q 48.4267578125 48.790234375 48.45 48.8 48.5134765625 48.8865234375 48.55 48.85
L 48.6 48.95 48.7 49.1 48.75 49.15 48.75 49.05 48.85 49.25 48.8 49.2
Q 49.0001953125 49.4669921875 49.1 49.6
L 49.15 49.6 49.15 49.5
Q 49.226953125 49.665234375 49.3 49.8 49.6 50.35 49.75 51 49.904296875 51.401171875 49.95 51.8
L 49.9 51.6
Q 49.887109375 51.437109375 49.8 51.35
L 49.85 51.35 49.7 51.05 49.75 51.2 49.65 51.05 49.6 51 49.6 51.05
Q 49.65 51.15 49.6 51.2
L 49.55 51.25 49.65 51.35 49.65 51.5
Q 49.645703125 51.75 49.6 51.75
L 49.65 51.9 49.65 51.65 49.7 51.75 49.75 51.9 49.75 52 49.8 52.1
Q 49.8 52.2 49.75 52.15
L 49.65 52
Q 49.6 52 49.6 52.15 49.7 52.2 49.7 52.1
L 49.75 52.25 49.8 52.35 49.8 52.45 49.75 52.45 49.75 52.4
Q 49.7 52.5 49.75 52.55
L 49.75 52.7
Q 49.7 52.85 49.7 52.55
L 49.65 52.65 49.65 52.7
Q 49.648828125 52.65 49.6 52.65 49.6 52.8 49.65 52.75
L 49.55 53.05
Q 49.6 53.2 49.5 53.55
L 49.45 53.55 49.45 53.75 49.5 53.65 49.45 53.9 49.45 54.1 49.3 54.4 49.25 54.35
Q 49.2 54.45 49.2 54.5
L 49.15 54.55 49.05 54.7 49.1 54.7 49.05 54.75 49 54.75
Q 48.9 54.85 48.9 54.7
L 48.75 54.8 48.75 54.9 48.8 54.9 48.75 54.95 48.75 54.95 48.65 55.1 48.55 55.15 48.55 55.25
Q 48.4 55.4 48.45 55.3
L 48.4 55.3 48.4 55.25 48.6 54.85 48.65 54.65 48.7 54.65 48.7 54.65 48.75 54.6 48.8 54.6 48.95 54.25 48.95 53.9
Q 48.95 53.85 49 53.8
L 49 53.9 49.05 53.85 49.05 54.15 49.1 54.05 49.1 53.85 49.15 53.9 49.15 53.8 49.25 53.45 49.25 53.45 49.15 53.75 49.15 53.5 49.1 53.65 49.1 53.2 49.15 53.2
Q 49.1 52.9 49.15 52.75 49.2 52.75 49.2 52.65
L 49.2 52.5 49.2 51.95 49.15 51.85 49.15 51.75
Q 49.1 51.75 49.1 51.55 49.15 51.7 49.15 51.5
L 48.95 51.05 48.8 50.45 48.8 50.5 48.75 50.4 48.75 50.3 48.85 50.55
Q 48.9 50.65 48.9 50.55
L 48.75 50.15 48.75 50.1
Q 48.65 50 48.75 50
L 48.65 49.75
Q 48.6650390625 49.8 48.6 49.8
L 48.55 49.55 48.6 49.65
Q 48.55 49.5453125 48.55 49.45
L 48.65 49.55 48.5 49.15 48.4 49 48.25 48.85 48.15 48.5
M 52.4 40.55
L 52.15 40.6 51.6 40.6
Q 51.9 40.55 52.4 40.55
M 53.3 46
L 53.35 46.05
Q 53.35 46.1001953125 53.35 46.15
L 53.3 46.1 53.3 46
M 52 43.9
L 52.05 43.9 52.1 43.95 52.05 44
Q 52.0322265625 43.9583984375 52 43.9
M 52 43.75
Q 52.0380859375 43.76171875 52.05 43.75
L 52.1 43.85 52 43.9
Q 52.0111328125 43.8275390625 52 43.75
M 52.5 44.05
Q 52.4673828125 44.00859375 52.45 43.95 52.5265625 44.030859375 52.6 44.1
L 52.65 44.2 52.55 44.1
Q 52.5220703125 44.0720703125 52.5 44.05
M 52.4 44.4
L 52.45 44.45 52.4 44.4 52.4 44.4
M 52.5 44.1
L 52.5 44.1
Q 52.4697265625 44.0939453125 52.45 44.05
L 52.5 44.1
M 52.45 44.85
L 52.4 44.85 52.45 44.8 52.35 44.7 52.35 44.55 52.35 44.6
Q 52.35 44.5375 52.35 44.5
L 52.35 44.45 52.4 44.5 52.35 44.55 52.4 44.55 52.45 44.6 52.4 44.65 52.45 44.75 52.5 44.8 52.5 44.75 52.5 44.7
Q 52.541015625 44.691015625 52.5 44.65
L 52.55 44.65 52.55 44.65
Q 52.584375 44.615625 52.6 44.65
L 52.6 44.6 52.55 44.5 52.55 44.45 52.55 44.45 52.5 44.45 52.5 44.45 52.55 44.4 52.45 44.3 52.55 44.35 52.55 44.25 52.55 44.5 52.6 44.5 52.65 44.6 52.65 44.65 52.75 44.75 52.75 44.8 52.8 44.8 52.8 44.9 52.85 44.95 52.85 44.9 52.9 45 52.9 44.95 52.95 45.05 52.9 45.05
Q 52.92734375 45.12734375 53.05 45.25
L 53.15 45.5 53.15 45.6 53.1 45.5
Q 53.05 45.4 53 45.45 53.1 45.5 53.1 45.65 53.1 45.6966796875 53.05 45.65
L 53.1 45.7 53.05 45.7 53.1 45.9 53.1 46 53.05 46.15 53.15 46.3 53.1 46.45 53.05 46.45 53.05 46.55 53 46.55 52.95 46.7 53 46.7 53.05 46.75 53 46.75 53 46.8 52.95 46.85 52.95 46.8 52.9 46.95 52.65 47.2 52.6 47.2
Q 52.65 47.25 52.6 47.35 52.4513671875 47.44921875 52.45 47.4
L 52.45 47.45 52.5 47.45 52.4 47.5 52.4 47.45 52.2 47.7 52.25 47.65 52.25 47.7 52.3 47.7 52.3 47.7
Q 52.245703125 47.7658203125 52.2 47.8 52.2 47.85 51.9 47.95
L 51.85 47.95 51.85 47.85 51.9 47.85 52 47.75 51.95 47.7 52 47.6 52 47.45 52.05 47.45 52.1 47.6 52.2 47.5 52.15 47.45 52.1 47.5 52.15 47.45 52.15 47.4 52.2 47.35 52.2 47.25 52.3 47.15 52.3 47.1 52.35 47.1 52.3 47.05 52.35 46.9 52.4 46.8 52.45 46.8 52.4 46.65 52.35 46.7 52.4 46.6
Q 52.39765625 46.49765625 52.35 46.45
L 52.4 46.35 52.45 46.3 52.5 46.3
Q 52.45 46.4 52.55 46.4
L 52.6 46.3 52.6 46.05 52.55 46.15 52.5 46.15 52.55 46.1 52.5 46.1 52.55 46 52.5 46
Q 52.55 45.95 52.5 45.95 52.55 45.9 52.55 45.85
L 52.55 45.8
Q 52.5912109375 45.7587890625 52.6 45.65 52.6 45.746875 52.65 45.8
L 52.65 45.85 52.7 45.7 52.65 45.7
Q 52.7 45.698828125 52.7 45.65
L 52.65 45.6
Q 52.65 45.65 52.6 45.6
L 52.6 45.55 52.55 45.45 52.6 45.5 52.6 45.4 52.55 45.25 52.5 45.2 52.6 45.25 52.6 45.2 52.65 45.25 52.65 45.35 52.7 45.35 52.65 45.15 52.5 45.1 52.45 44.9 52.45 44.9 52.5 44.95 52.5 44.9 52.45 44.85
M 52.2 44.8
Q 52.2185546875 44.7814453125 52.25 44.75
L 52.25 44.9 52.35 45.1 52.3 45.05
Q 52.3 45.146875 52.35 45.2
L 52.3 45.15
Q 52.4 45.3 52.35 45.5 52.3484375 45.55 52.3 45.55
L 52.3 45.5
Q 52.2650390625 45.1779296875 52.2 44.95 52.2 44.87890625 52.2 44.8
M 52.3 46
Q 52.3 45.946875 52.3 45.9 52.3 45.7431640625 52.3 45.6
L 52.35 45.7 52.35 45.75 52.4 45.85 52.35 45.85
Q 52.3 45.9 52.35 45.9
L 52.35 46.05 52.3 46
M 52.15 46.5
Q 52.190234375 46.5607421875 52.2 46.6
L 52.1 46.8 52.1 46.85 52.05 46.85
Q 52.1376953125 46.6763671875 52.15 46.5
M 51.6 47.95
L 51.6 47.9 51.65 47.95 51.7 47.95 51.75 47.95
Q 51.72109375 47.97890625 51.65 47.95 51.6419921875 47.97109375 51.6 47.95
M 56.95 46.35
Q 56.95 46.3375 56.95 46.3
L 57 46.35 57 46.3 56.95 46.25
Q 56.95 46.20625 56.95 46.15
L 57 46.3 57.05 46.3 57.15 46.4 57.2 46.5 57.4 46.7
Q 57.45 46.8 57.4 46.8
L 57.5 46.9
Q 57.6 47.05 57.6 47
L 57.6 47.05 57.6 47.05 57.65 47.1 57.7 47.2 57.8 47.35 57.9 47.5 57.85 47.4 57.95 47.5 57.95 47.65 58.2 48 58.4 48.45 58.45 48.5 58.45 48.6 58.35 48.4 58.35 48.45
Q 58.412890625 48.527734375 58.45 48.75
L 58.45 48.85 58.55 49.2 58.55 49.1 58.6 49.2 58.6 49.3
Q 58.55 49.4 58.55 49.25 58.50234375 49.29765625 58.6 49.4
L 58.5 49.3 58.55 49.5 58.55 49.7 58.6 49.85 58.65 49.85 58.65 49.9 58.7 50 58.65 50.3 58.65 50.55 58.6 50.55 58.6 50.85 58.65 50.8 58.65 50.75 58.7 50.65 58.7 50.85
Q 58.7 50.95 58.65 50.9
L 58.7 51.2 58.65 51 58.6 50.9 58.6 51.5 58.55 51.65
Q 58.5 51.7 58.5 51.65
L 58.45 52.05 58.4 52.1 58.4 52.15 58.35 52.15
Q 58.35 52.25 58.4 52.2 58.45 52.2 58.4 52.3
L 58.35 52.45 58.3 52.55 58.3 52.65 58.35 52.6 58.25 52.75 58.25 52.7 58.15 53 58.1 53.25 58.15 53.15 58.15 53.2 58.2 53.05 58.2 53.2
Q 58.1544921875 53.2978515625 58.1 53.4
L 57.65 53.85 57.65 53.8 57.55 53.7 57.6 53.7 57.6 53.65 57.75 53.65 57.75 53.6 57.7 53.65 57.7 53.5 57.75 53.4 57.75 53.15
Q 57.8 53.15 57.8 53.1
L 57.85 53.15 57.9 53
Q 57.9359375 52.91015625 57.95 52.85 57.98203125 52.73203125 57.95 52.7 58 52.7 58 52.65
L 58 52.4 58.05 52.25 58.05 52.1 58.1 51.75 58.15 51.75 58.1 51.55 58.05 51.65 58.05 51.4
Q 58.05 51.25 58 51.2
L 58 51.05 58.05 50.95 58.05 50.85 58.1 50.85 58.1 50.9 58.2 51 58.2 50.85 58.15 50.65 58.15 50.6 58.1 50.6 58.1 50.5 58.05 50.5 58.1 50.4 58.1 49.55 58.05 49.4 58.1 49.4 58.05 49.3 58 49.05
Q 57.95 49.2 57.9 49 57.9 48.95 57.95 48.95 58 48.95 58.05 49
L 58.05 48.95 58.1 49.05 58.1 49.3 58.1 49.35 58.15 49.35 58.15 49.25 58.1 48.9 57.95 48.8 57.95 48.75 57.85 48.25 57.85 48.25 57.85 48.25
Q 57.9 48.271875 57.9 48.15
L 57.8 48.05 57.7 47.9 57.7 47.7 57.65 47.65 57.65 47.6
Q 57.648828125 47.551171875 57.6 47.6
L 57.55 47.5 57.65 47.55 57.6 47.45 57.7 47.55 57.7 47.6 57.75 47.65 57.75 47.7 57.8 47.75 57.8 47.8 57.8 47.85 57.85 48.05 57.9 48.1 57.9 48 57.9 48.05
Q 57.9515625 48.0912109375 57.95 48.15 58.0048828125 48.203515625 58 48.25 58.1798828125 48.5642578125 58.25 48.95
L 58.25 48.8
Q 58.298828125 48.848828125 58.3 48.8
L 58.3 48.85 58.35 48.8
Q 58.25 48.7 58.25 48.55
L 58.25 48.5
Q 58.3 48.4 58.2 48.35
L 58.25 48.35 58.15 48.25 58.1 48.1 57.95 47.85 58.05 47.9 57.95 47.8 58 47.8 57.8 47.6 57.8 47.55 57.75 47.6 57.7 47.45
Q 57.7263671875 47.46328125 57.75 47.45
L 57.65 47.35
Q 57.6375 47.3748046875 57.55 47.2
L 57.5 47.2 57.5 47.25 57.5 47.25 57.45 47.2 57.45 47.15 57.4 47.1 57.45 47.1 57.45 47.05 57.5 47.1 57.5 47.05 57.45 47
Q 57.5 47 57.5 46.9
L 57.4 46.85
Q 57.35 46.75 57.3 46.75
L 57.15 46.55
Q 57.09765625 46.5396484375 57.05 46.45
L 57.05 46.5 56.95 46.4 56.95 46.35
M 57.1 45.95
L 57.05 45.95 56.95 45.8
Q 57.0255859375 45.876171875 57.1 45.95
M 57.6 48.1
L 57.65 48.2
Q 57.65 48.4 57.8 48.75
L 57.75 48.65 57.8 48.8 57.8 48.9 57.75 48.9
Q 57.85 49.1265625 57.85 49.45
L 57.85 49.5 57.8 49.6
Q 57.7697265625 49.428125 57.75 49.25
L 57.75 49.1 57.7 49.1
Q 57.712890625 48.9919921875 57.7 48.85 57.640234375 48.49140625 57.55 48.15 57.57421875 48.12578125 57.6 48.1
M 58.8 49.4
L 58.8 49.4
Q 58.8228515625 49.5216796875 58.8 49.6
L 58.8 49.55
Q 58.75 49.55 58.8 49.4
M 68.25 42.05
L 68.2 42.05 68.3 42.05 68.25 42.05
M 64.1 47.1
L 64.1 47.1 64.15 47.05
Q 64.1892578125 47.110546875 64.2 47.15
L 64.25 47.15 64.2 47.15 64.3 47.4 64.1 47.1
M 64.45 47.9
Q 64.469140625 47.919140625 64.5 47.95
L 64.5 48
Q 64.5 48.1 64.6 48.15
L 64.8 48.3 64.85 48.35 64.85 48.45 64.8 48.4 64.75 48.45 64.7 48.35
Q 64.6 48.259375 64.6 48.3
L 64.65 48.4 64.75 48.5
Q 64.7638671875 48.5416015625 64.75 48.6
L 64.9 48.75 64.85 48.6 65.1 48.85 65.1 48.95 65.2 49.15 65.3 49.3 65.3 49.4 65.4 49.6
Q 65.44921875 49.7474609375 65.4 49.7
L 65.45 49.75
Q 65.55 49.95 65.5 49.95
L 65.55 50.05 65.6 50.2 65.6 50.15 65.65 50.3
Q 65.65 50.4 65.6 50.35
L 65.75 50.75 65.8 51.05 65.8 51.3 65.75 51.25 65.75 51.65 65.7 51.7
Q 65.6 51.95 65.7 52.1
L 65.75 52 65.75 52.2
Q 65.684765625 52.265234375 65.65 52.2 65.6712890625 52.257421875 65.65 52.3
L 65.65 52.15 65.6 52.4 65.6 52.55 65.55 52.6 65.6 52.6 65.6 52.9 65.45 53.2 65.45 53.15 65.35 53.4 65.3 53.4 65.2 53.65 65.25 53.65 65.25 53.55 65.35 53.5 65.25 53.7 65.2 53.75
Q 65.2 53.9 65.1 54
L 65.15 53.85 65.1 53.95 65.15 53.75 65 54.15 64.9 54.25 64.85 54.35 64.8 54.4 64.75 54.4 64.5 54.7 64.5 54.75 64.45 54.75
Q 64.35 54.85 64.4 54.85 64.45 54.85 64.35 54.95
L 64.2 55 64.1 55.05 64.05 55.1 64.15 55.1 64 55.15 63.9 55.15 63.9 55.2 63.85 55.2 63.85 55.25 63.65 55.35 63.7 55.35 63.7 55.35 63.7 55.4 63.75 55.4 63.65 55.45 63.6 55.45
Q 63.5 55.5 63.45 55.5
L 63.65 55.25
Q 63.75 55.25 63.8 54.9
L 64.05 54.45
Q 64.0591796875 54.3947265625 64.05 54.35
L 64.1 54.4 64.1 54.35 64.05 54.3
Q 64.1083984375 54.160546875 64.15 54
L 64.1 54.2
Q 64.187890625 54.3060546875 64.1 54.35
L 64.15 54.35 64.15 54.45 64.25 54.25 64.3 54.3 64.3 54.05 64.35 54 64.35 54.05 64.4 54 64.4 53.95 64.45 53.95 64.45 53.85
Q 64.55 53.6939453125 64.55 53.6
L 64.55 53.55 64.5 53.65 64.5 53.35 64.55 53.35 64.6 53.5
Q 64.6404296875 53.5404296875 64.65 53.45
L 64.65 53.4 64.6 53.4 64.6 53.3
Q 64.7486328125 53.0521484375 64.65 53.05
L 64.7 53.05 64.75 52.8 64.8 52.8 64.75 52.7 64.8 52.35 64.8 51.85 64.85 51.8 64.75 51.6 64.75 51.45
Q 64.6939453125 51.3439453125 64.65 51.3
L 64.7 51.05 64.7 50.95 64.75 50.95 64.75 50.7
Q 64.8 50.7 64.8 50.65
L 64.75 50.5 64.75 50.55 64.7 50.55 64.7 50.15 64.75 50.4
Q 64.75 50.3 64.85 50.4
L 64.8 49.85 64.8 49.75 64.75 49.7 64.7 49.6 64.65 49.45 64.65 49.35 64.6 49.1 64.55 49.1
Q 64.528125 49.15625 64.45 49 64.45 48.85 64.6 49
L 64.6 48.95 64.65 49.05 64.7 49.1 64.7 49.05 64.65 48.9 64.45 48.8 64.4 48.3 64.45 48.55 64.45 48.5 64.5 48.7
Q 64.5 48.8 64.55 48.75
L 64.55 48.7 64.45 48.4 64.55 48.6 64.6 48.75 64.6 48.65 64.55 48.5 64.5 48.3 64.5 48.25 64.5 48.25 64.45 48.1 64.55 48.2 64.5 48.2 64.55 48.25
Q 64.646875 48.25 64.7 48.3
L 64.6 48.2 64.6 48.15 64.45 48.1 64.45 48 64.4 47.9
Q 64.401171875 47.8662109375 64.45 47.9
M 64.3 47.85
L 64.25 47.8 64.25 47.8 64.15 47.65 64.25 47.75 64.25 47.8 64.3 47.8 64.3 47.85
M 64.4 47.85
L 64.35 47.85 64.3 47.75 64.4 47.85
M 64.1 48.2
Q 64.12734375 48.1453125 64.15 48.1
L 64.2 48.25 64.15 48.25
Q 64.2 48.45 64.3 48.8
L 64.25 48.7
Q 64.3 48.85 64.35 48.95 64.35 49.05 64.3 48.9
L 64.4 49.5 64.45 49.55 64.4 49.65 64.35 49.5
Q 64.328515625 49.34921875 64.3 49.2 64.16796875 48.7162109375 64.1 48.2
M 70.2 44.45
L 70.15 44.3 70.15 44.25 70.2 44.35
Q 70.2408203125 44.431640625 70.2 44.45
L 70.3 44.65 70.3 44.7 70.2 44.45
M 70.45 45.45
L 70.45 45.4 70.4 45.05 70.4 44.95
Q 70.4 44.9 70.45 44.95
L 70.5 45.1 70.5 45.3
Q 70.65 45.55 70.55 45.7
L 70.6 45.8 70.6 45.95 70.7 46.05 70.7 46.15
Q 70.75 46.2 70.7 46
L 70.75 45.95 70.75 46
Q 70.8 46 70.8 46.2 70.7537109375 46.292578125 70.75 46.1
L 70.75 46.25 70.7 46.2 70.7 46.35
Q 70.7 46.45 70.65 46.5
L 70.65 46.25 70.55 46.1 70.55 46.15 70.45 45.45
M 70.7 45.85
L 70.7 45.95 70.7 45.9 70.7 45.85
M 30 44.05
L 30 44.05 29.7 45 29.8 44.5
Q 29.89453125 44.075 30 44.05
M 39.35 41.7
Q 39.45 41.7 39.5 41.75
L 39.4 41.8 39.65 41.75 39.7 41.75 40.3 41.7 39.55 41.8 39.45 41.85 38.75 41.95 38.8 41.9 38.95 41.85 38.85 41.85 38.9 41.8
Q 38.9748046875 41.8166015625 39.05 41.75
L 39.1 41.75
Q 39.22890625 41.7806640625 39.35 41.7
M 36.95 43.95
Q 36.9755859375 44.007421875 37 44.05
L 37 44.15 36.95 44.1 36.95 44 36.95 43.95
M 36.95 44.45
L 37 44.4 36.95 44.5 37.1 44.65 37.05 44.75 37 44.75 37 44.75 37.05 44.85 37.15 45.05 37.35 45.2 37.4 45.25
Q 37.45 45.4 37.4 45.35
L 37.35 45.3 37.3 45.35 37.25 45.25 37.1 45.15 37.15 45.25 37.1 45.25
Q 37.2 45.4 37.2 45.3
L 37.25 45.4 37.2 45.4 37.3 45.45 37.35 45.7 37.4 45.7 37.45 45.8 37.5 45.95
Q 37.5 45.85 37.55 45.9
L 37.55 46.2 37.65 46.4 37.65 46.45 37.7 46.45 37.7 46.55 37.75 46.65 37.75 46.9 37.8 46.9 37.8 47.05 37.85 47.2
Q 37.85 47.3 37.8 47.25
L 37.95 47.95 37.95 48.2 38 48.25 37.95 48.35 37.9 48.2
Q 37.9291015625 48.2970703125 37.9 48.5 37.8517578125 48.5966796875 37.85 48.5
L 37.85 48.6
Q 37.8 48.75 37.85 48.9
L 37.9 48.85 37.9 48.9 37.85 49.05 37.85 49 37.8 49.1 37.8 49 37.7 49.35 37.7 49.7 37.55 50 37.55 49.95 37.45 50.2 37.45 50.25 37.4 50.25 37.35 50.5 37.25 50.75 37.2 50.95 37 51.15 36.95 51.15 36.95 51.2 36.9 51.2 36.9 51.3 36.8 51.5 36.7 51.6 36.7 51.55
Q 36.65 51.65 36.65 51.7
L 36.6 51.75 36.55 51.75 36.55 51.8 36.5 51.85 36.45 51.9 36.45 51.95 36.5 51.9 36.4 52.05 36.4 52 36.3 52.05 36.25 52.1 36.25 52.05
Q 36.3 51.95 36.35 51.9 36.35 51.8 36.35 51.7 36.35 51.55 36.35 51.45 36.35 51.4 36.4 51.35 36.4 51.25 36.4 51.2 36.4458984375 50.925 36.45 50.65
L 36.5 50.8 36.55 50.85 36.55 50.9 36.6 50.7 36.65 50.7 36.65 50.5 36.75 50.35 36.8 50.3 36.85 50.2 36.85 50.15 36.9 50.05 36.85 49.95 36.8 50.05 36.8 49.95
Q 36.75 49.95 36.75 49.85
L 36.8 49.8 36.9 50
Q 36.9498046875 50 36.95 49.8 36.9484375 49.85 36.85 49.85 36.75 49.7 36.8 49.5
L 36.8 49.35 36.8 49.4
Q 36.8 49.325 36.8 49.25 36.85 49.4 36.9 49.4
L 36.9 49.65 36.95 49.3 36.95 48.4 37 48.4 36.9 48.2 36.9 48.05
Q 36.85 48.1 36.85 48.05
L 36.85 47.55 36.9 47.55 36.9 47.35
Q 36.928125 47.378125 36.95 47.4
L 36.95 47.35
Q 36.9857421875 47.35 37 47.3
L 37 47.25 36.95 47.15 36.95 47.3 36.9 47.3 36.9 47 36.95 46.85 36.95 46.8 37 46.95
Q 36.9533203125 46.7984375 37.05 46.75
L 37.05 46.4 37 46.3 37 46.4 36.95 46.4 36.95 46.35
Q 36.95703125 46.2140625 37 46.3
L 36.95 46.1 37 46.15 36.95 46.05 36.95 45.85 36.9 45.8
Q 36.9 45.95 36.85 45.7 36.85 45.65 36.95 45.75 37 45.8 37 45.7
L 37.05 45.8 37.05 45.65 36.9 45.5 36.85 45 36.9 45.3 36.9 45.25 36.95 45.4
Q 36.95 45.55 37 45.5
L 37 45.35 37.05 45.3 37.05 45.2 36.95 45 36.95 44.85 36.9 44.8 36.9 44.75 36.9 44.75 36.85 44.65 36.85 44.6 36.8 44.55 36.8 44.6 36.75 44.5 36.75 44.55 36.7 44.45
Q 36.75 44.4 36.65 44.35
L 36.6 44.3
Q 36.6 44.2498046875 36.6 44.2
L 36.85 44.45 36.85 44.5 36.85 44.5 36.8 44.5 36.85 44.55 36.9 44.7 36.9 44.65 36.95 44.5 36.95 44.45
M 36.55 44.15
L 36.55 44.2 36.5 44.15 36.55 44.15
M 36.65 45.9
Q 36.65 45.4439453125 36.6 44.95
L 36.6 44.9
Q 36.6208984375 44.858203125 36.65 44.8
L 36.7 44.95 36.65 44.95 36.75 45.5 36.7 45.4
Q 36.7 45.5 36.75 45.6 36.75 45.75 36.7 45.6
L 36.7 46.2 36.75 46.25 36.65 46.3
Q 36.6595703125 46.093359375 36.65 45.9
M 37.6 45.2
L 37.65 45.25
Q 37.7439453125 45.41484375 37.8 45.55 37.7654296875 45.530859375 37.7 45.4
L 37.75 45.55 37.6 45.2
M 37.55 45.65
L 37.6 45.75 37.55 45.7 37.55 45.65
M 37.45 45.65
L 37.45 45.65 37.5 45.65 37.45 45.65
M 36.75 46.55
L 36.75 46.8 36.7 46.8 36.65 46.85
Q 36.679296875 46.6322265625 36.65 46.4
L 36.75 46.55
M 36.7 47.5
L 36.65 47.45
Q 36.674609375 47.218359375 36.65 46.95 36.68359375 47.0509765625 36.7 47.15
L 36.7 47.5
M 36.65 48.2
Q 36.65 48.125 36.65 48.05
L 36.65 48 36.7 48.2 36.65 48.2 36.7 48.4 36.65 48.4
Q 36.65 48.3 36.65 48.2
M 38 49.2
L 38 49.25
Q 38.007421875 49.319140625 38 49.4 37.9541015625 49.549609375 37.9 49.7
L 37.95 49.5 38 49.4 37.95 49.35 38 49.2
M 36.8 50.15
L 36.8 50.1 36.85 50.05 36.8 50.15
M 36.2 52.25
L 36.15 52.25 36.2 52.2 36.2 52.25 36.3 52.2 36.3 52.2 36.3 52.25
Q 36.2375 52.25 36.2 52.25
M 40.3 53.2
L 40.15 53.35 40.15 53.3
Q 40.2 53.25 40.3 53.2
M 36.1 58
L 36.15 58 36.1 58.05 36.05 58.05 36.1 58
M 36.7 57.95
L 36.65 57.95 36.65 57.9 36.7 57.95
M 35.5 57.85
L 35.6 57.85 35.65 57.9 35.7 57.8 35.75 57.8 35.75 57.85 35.8 57.85 35.75 57.95 35.7 57.9 35.65 57.95 35.55 57.9 35.55 57.95 35.5 57.95 35.5 57.85 35.45 57.9 35.45 57.85 35.5 57.85
M 71.05 50.45
Q 71.034375 50.439453125 71 50.4
L 71 50.1 71.05 50.45
M 65.85 52.5
Q 65.8 52.5 65.85 52.35
L 65.9 52.45 65.9 52.35 65.9 52.35
Q 65.91015625 52.394140625 65.9 52.45 65.8744140625 52.54453125 65.85 52.65
L 65.85 52.5
M 65.75 49.8
L 65.75 49.85 65.75 49.8 65.75 49.8
M 64.35 49.7
L 64.4 49.7 64.5 49.9 64.45 49.9 64.5 50.05 64.5 50.15
Q 64.45 50.25 64.5 50.55
L 64.5 50.9
Q 64.477734375 50.605859375 64.45 50.3 64.4228515625 50.010546875 64.35 49.7
M 64.5 51.6
Q 64.5 51.5353515625 64.5 51.45 64.520703125 51.5619140625 64.55 51.65
L 64.5 51.6 64.55 51.85 64.5 51.85
Q 64.5 51.7267578125 64.5 51.6
M 65.3 53.9
L 65.3 53.9
Q 65.2923828125 53.9810546875 65.25 54 65.2791015625 53.9732421875 65.3 53.9
M 63.85 55.35
L 63.85 55.35 63.85 55.35 63.85 55.35
M 57.85 49.9
Q 57.8267578125 49.783203125 57.8 49.65
L 57.9 49.8 57.9 50 57.95 50.1 57.9 50.1 57.9 50.45 57.85 50.8
Q 57.85 50.6669921875 57.85 50.55 57.85 50.3978515625 57.85 50.25 57.85 50.071875 57.85 49.9
M 57.85 51.5
L 57.8 51.75 57.8 52 57.75 52
Q 57.7794921875 51.8724609375 57.8 51.75 57.824609375 51.5400390625 57.8 51.35
L 57.85 51.5
M 57.6 52.05
L 57.65 52.15 57.55 52.05 57.6 52.05
M 57.3 54.25
Q 57.327734375 54.19453125 57.35 54.15
L 57.35 54.2 57.45 54.05 57.4 54.15 57.4 54.15
Q 57.3365234375 54.25 57.3 54.25
M 49.75 52.45
L 49.8 52.5 49.8 52.6 49.75 52.45
M 49.2 54.85
L 49.25 54.8 49.25 54.85 49.3 54.7 49.4 54.5 49.45 54.5
Q 49.4 54.6 49.45 54.6
L 49.4 54.65 49.3 54.75 49.3 54.75 49.3 54.9
Q 49.269140625 54.944140625 49.2 54.95 49.205859375 55.0185546875 49.15 55.05
L 49.15 55.05 49.15 55 48.95 55.3 49 55.25
Q 48.7345703125 55.5763671875 48.4 55.85 48.26875 56.003125 48.15 56.1
L 48.1 56.05 48.15 56 48.2 55.9 48.2 55.85 48.2 55.85 48.25 55.8 48.3 55.75 48.55 55.6 48.55 55.5 48.6 55.55 48.7 55.5 48.55 55.65 48.7 55.55 48.75 55.5 48.8 55.3 48.9 55.2 48.95 55.1 49 55.1
Q 49.1 55.1 49.2 54.85
M 48.15 55.55
L 48.2 55.55 48.15 55.6 48.1 55.7
Q 48.2 55.65 48.1 55.8 47.9 56 48.05 55.7
L 48.1 55.6 48.15 55.55
M 43.05 50.75
L 43.05 50.85 43 50.8 43.05 51.15 43.05 51.15
Q 43.0947265625 51.6943359375 43 52.2 42.994140625 52.4021484375 42.95 52.6
L 42.85 52.9 42.75 53 42.75 52.85 42.8 52.85 42.85 52.4
Q 42.9 52.35 42.85 52.3
L 42.85 52.35
Q 42.8041015625 52.2875 42.85 52.15 42.85 52.35 42.9 52.2
L 42.95 51.6 42.95 51.55 43.05 51.5 43.05 51.45 42.95 51.25 42.95 50.65 42.9 50.5 42.9 50.3 43 50.4 43 50.55
Q 43 50.75 43.05 50.75
M 41.5 54.35
L 41.5 54.4 41.5 54.35 41.5 54.35 41.55 54.35
Q 41.55 54.26875 41.65 54.15
L 41.6 54.25 41.6 54.25 41.6 54.2 41.7 54.15 41.7 54.2 41.65 54.3 41.6 54.25 41.6 54.3 41.55 54.4 41.5 54.35
M 41.6 54.5
L 41.65 54.5 41.6 54.5 41.6 54.5
M 48.1 56.1
L 48.1 56.1
Q 47.968359375 56.2263671875 47.85 56.25
L 48.05 56.15 48.1 56.1
M 48.45 57.85
Q 48.26171875 57.826953125 48.1 57.8 47.75 57.8 47.2 57.7
L 47 57.65 46.2 57.65
Q 46.612109375 57.6375 47.05 57.55
L 48.45 57.85
M 47.6 56.35
L 47.6 56.35 47.6 56.3
Q 47.7140625 56.2580078125 47.75 56.15
L 47.8 56.1 47.9 56.05 47.9 56.1 47.95 56.1 47.95 56.15 47.9 56.2 47.9 56.1 47.75 56.25 47.8 56.25 47.8 56.3
Q 47.7275390625 56.358984375 47.65 56.4
L 47.6 56.35
M 47.45 56.25
L 47.45 56.35 47.4 56.3
Q 47.4326171875 56.2849609375 47.45 56.25
M 47.65 56.35
L 47.6 56.35 47.65 56.35
Q 47.7388671875 56.3419921875 47.8 56.25
L 47.65 56.35
M 36.95 47.4
L 36.95 47.4 36.95 47.5 36.95 47.4
M 37.05 44.75
L 37.05 44.65 37 44.65 37 44.7 37.05 44.75
M 36.8 44.55
L 36.85 44.6 36.8 44.5 36.8 44.55
M 36.55 51.45
L 36.5 51.45 36.6 51.6 36.6 51.45 36.55 51.45
M 36.5 51.2
L 36.5 51.4
Q 36.5224609375 51.44453125 36.55 51.45
L 36.55 51.3 36.6 51.25
Q 36.551171875 51.25 36.55 51.2
L 36.55 51.25 36.5 51.2
M 37.6 46.55
L 37.6 46.5 37.55 46.4 37.6 46.55
M 37.75 48.65
Q 37.7072265625 48.778515625 37.7 48.65
L 37.65 48.65 37.65 48.8 37.7 48.75 37.65 48.9 37.65 48.85 37.6 49 37.6 49.05 37.45 49.6
Q 37.45 49.7 37.55 49.65 37.65 49.35 37.6 49.35
L 37.65 49.3 37.6 49.25
Q 37.6490234375 49.001171875 37.65 48.95
L 37.65 49.25 37.75 48.85 37.75 48.65
M 37.55 46.7
L 37.5 46.7 37.55 46.85 37.55 46.9 37.6 46.95 37.6 47.2
Q 37.6091796875 47.3 37.65 47.3
L 37.65 47.55
Q 37.7 48.05 37.65 48.65
L 37.7 48.45
Q 37.7 48.55 37.75 48.4
L 37.75 48.55 37.8 48.5 37.75 48.2
Q 37.8 48.25 37.8 48.2 37.85 48.1 37.8 48
L 37.8 47.75 37.75 47.45 37.8 47.5 37.75 47.4 37.8 47.4 37.7 47.15 37.7 47.2 37.65 47.05 37.7 47.1 37.65 47
Q 37.7046875 47.1046875 37.75 47.15
L 37.7 47 37.7 46.9 37.65 46.9 37.6 46.75 37.55 46.7
M 37.05 45.85
Q 37.0400390625 45.930078125 37 45.85
L 37 46.1
Q 37.05 46.15 37.05 46.1
L 37.05 45.85
M 36.95 44.7
L 36.95 44.8 36.95 44.75 37 44.8 36.95 44.7
M 65.3 49.85
L 65.25 49.85 65.3 50.05
Q 65.35 49.95 65.4 50.25
L 65.4 50.3 65.45 50.4 65.5 50.65 65.45 50.7 65.5 50.7 65.5 51.75 65.55 51.6
Q 65.5978515625 51.6955078125 65.6 51.55
L 65.6 51.65 65.65 51.65 65.6 51.35 65.65 51.35
Q 65.7 51.2 65.65 51.1
L 65.65 51 65.6 50.85 65.55 50.55 65.6 50.65 65.55 50.5 65.6 50.55 65.5 50.25
Q 65.5 50.3 65.45 50.3
L 65.45 50.15 65.4 50.1
Q 65.45 50.05 65.45 50.1
L 65.55 50.25 65.45 49.95 65.4 50.05 65.4 50 65.35 49.85
Q 65.35 49.9 65.3 49.85
M 65.3 49.7
L 65.35 49.75 65.45 49.85 65.3 49.7
M 58.1 49.35
L 58.1 49.35 58.15 49.5 58.1 49.35
M 57.15 46.55
L 57.2 46.55 57.15 46.5 57.15 46.55
M 57.8 53.3
L 57.8 53.3 57.8 53.35 57.85 53.45 57.85 53.35 57.8 53.3
M 58.3 49.1
L 58.35 49.05 58.35 49.4 58.4 49.55 58.4 50
Q 58.45 50.1 58.5 50
L 58.5 49.8 58.4 49.5 58.4 49.35 58.45 49.45 58.45 49.55 58.5 49.55 58.35 48.95
Q 58.35 49.15 58.3 48.9
L 58.3 49.1
M 58.05 48.65
L 58.05 48.55 58 48.55
Q 58.0357421875 48.5931640625 58.05 48.65
L 58.05 48.65
M 52.55 44.85
L 52.55 44.8 52.55 44.85 52.5 44.85 52.6 44.95 52.6 45 52.75 45.15 52.8 45.25 52.9 45.75 52.9 45.65 52.95 45.65 52.95 45.7 53 45.7 52.95 45.55
Q 52.9966796875 45.55 52.95 45.5
L 53 45.55 52.95 45.45 53 45.45 52.9 45.3 52.95 45.3 52.85 45.2 52.9 45.2 52.85 45.15 52.9 45.15 52.8 45.05 52.75 45.1 52.75 45 52.7 45
Q 52.7 44.946484375 52.75 44.95
L 52.65 44.9 52.6 44.9 52.55 44.85
M 52.95 46.25
L 52.95 46.1 52.9 46 52.9 46.25
Q 52.9 46.3 52.95 46.25
M 48.55 55.2
L 48.55 55.15 48.6 55.1 48.55 55.2
M 48.8 54.65
L 48.8 54.6 48.75 54.65
Q 48.75 54.7 48.8 54.65
M 49.7 52
L 49.7 51.95 49.65 51.9 49.7 52
M 49.25 52.5
Q 49.25 52.45 49.2 52.5
L 49.25 52.65 49.25 52.55
Q 49.2697265625 52.5697265625 49.25 52.6
L 49.3 52.55 49.3 52.5 49.25 52.5
M 49 54.6
L 49 54.7 49.1 54.55 49 54.6
M 49.3 52.7
L 49.3 52.75 49.2 53.1 49.2 53.2 49.25 53.2 49.2 53.4 49.25 53.3 49.25 53.4 49.3 53.3 49.35 53.15 49.3 53.2 49.3 53
Q 49.35 53 49.4 52.95
L 49.35 52.75 49.35 52.5 49.3 52.7
M 49.3 50.55
Q 49.35 50.6 49.35 50.45
L 49.25 50.35
Q 49.2 50.4 49.3 50.55
M 48.75 49.4
L 48.75 49.45 48.8 49.45 48.75 49.4
M 42.55 52.85
L 42.5 52.75 42.5 52.8 42.45 52.85 42.45 52.9 42.4 53
Q 42.45 53.05 42.5 52.85
L 42.5 52.9 42.45 53.05 42.5 53 42.55 53.05 42.55 52.85
M 42.65 51.75
L 42.65 51.65
Q 42.6490234375 51.69765625 42.6 51.65 42.6484375 51.7 42.65 51.75
M 41.2 48
L 41.15 48 41.2 48.05 41.2 48
M 41.95 52.8
L 41.95 52.75
Q 41.953125 52.7150390625 41.95 52.55
L 41.95 52.8
M 42.65 50.5
L 42.65 50.55 42.7 50.65 42.65 50.5
M 42 52.6
L 42 52.6 42 52.55 42 52.6
M 41.95 50.95
L 41.9 50.95 42 51.3
Q 41.9662109375 51.3 41.95 51.3 41.9970703125 51.5029296875 41.95 51.55
L 41.95 51.8 42 52.15 41.95 52.05 41.95 52.2 42 52.45
Q 42.0365234375 52.559765625 42 52.6
L 42.05 52.65
Q 42.0267578125 52.71953125 42 52.75
L 42.05 52.95 42.1 53 42.1 51.75 42 50.85 42 51
Q 42 51.1 41.95 51.05
L 41.95 50.95
M 40.85 41.55
L 40.75 41.5 40.7 41.55 40.85 41.55 Z"/>
</g>
</defs>

<g transform="matrix( 1, 0, 0, 1, 0,0) ">
<use xlink:href="#Layer1_0_FILL"/>
</g>
</svg>
