
<svg xmlns="http://www.w3.org/2000/svg" version="1.1" xmlns:xlink="http://www.w3.org/1999/xlink" preserveAspectRatio="none" x="0px" y="0px" width="100px" height="100px" viewBox="0 0 100 100">
<defs>
<g id="Layer1_0_FILL">
<path fill="#000000" stroke="none" d="
M 54.8 62.45
L 54.8 62.4 53.75 62.25 54.8 62.45
M 42.2 59.8
L 42.35 59.8 42.2 59.85 42.35 59.85 43 59.7 42.7 59.75 43.15 59.6 42.2 59.8
M 40.3 60.15
L 40.2 60.15 40.2 60.25 40.3 60.15
M 40.3 60.1
L 40.3 60.15 40.3 60.15 40.3 60.1
M 45.95 38.6
L 46 38.55 45.95 38.55 45.95 38.55 45.95 38.6
M 46.05 38.5
L 46 38.55 46 38.55 46.05 38.5
M 53.25 62.15
L 53.2 62.1 52.85 62 52.8 62 53.05 62.1 53.25 62.15
M 45.75 62.4
L 45.7 62.4 45.35 62.45 45.75 62.4
M 45 57.15
L 45 57.2 45 57.25 44.95 57.25 45 57.3 45.05 57.2 45 57.15
M 54.05 58.95
L 54.15 58.95 54 58.9 53.8 58.8 53.8 58.85 54.05 58.95
M 57.6 53.95
Q 57.5 54.1447265625 57.5 54
L 57.4 54.15 57.5 53.85
Q 57.15 54.65 57.25 54.55
L 57.25 54.6 57.2 54.65 57.25 54.65 57.6 53.95
M 57.95 53.05
L 57.95 53 57.6 53.75 57.95 53.05
M 36.65 60.6
L 36.55 60.7 36.4 60.8 36.3 60.95 36.3 61 36.25 61.1 36.2 61.15 36.2 61.3 36.15 61.35 36.2 61.85 36.2 62.15 36.5 62.2 36.6 62.25 36.75 62.3 36.8 62.3 37.6 62.5 37.65 62.55 37.75 62.55 37.7 62.5 38.9 62.65 38.95 62.7 39.05 62.7 39.05 62.6 39.25 62.7 42.4 62.7
Q 42.775 62.6625 42.35 62.65
L 42.75 62.65 42.55 62.6
Q 41.65 62.65 40.85 62.65 41.07265625 62.60546875 40.7 62.6 40.05 62.55 39.55 62.6
L 39.2 62.6 39.1 62.55 38.95 62.55 38 62.45 37.75 62.4 37.65 62.4 36.3 62.05 36.3 61.85 36.25 61.7 36.25 61.6 36.3 61.7 36.3 61.3 36.35 61.2 36.35 61.1 36.45 61.05 36.45 61 36.6 60.85 36.9 60.65 37.5 60.6 37.35 60.6 38 60.4 38.1 60.35 38.6 60.25 38.6 60.25 38.8 60.25 38.95 60.25 39.1 60.2
Q 39.3 60.2 39.3 60.25
L 39.05 60.25 38.55 60.3 38.15 60.4 39.05 60.3
Q 39.20859375 60.2603515625 39.65 60.25
L 39.4 60.25
Q 39.4 60.2 39.7 60.2
L 40.2 60.15 40.25 60.1 39.75 60.1
Q 39.9 60.15 39.3 60.15
L 38.4 60.2 37.95 60.3 37.8 60.35 37.7 60.35 37.4 60.45 37.5 60.45 37.3 60.5 37.4 60.45 37.4 60.45 36.95 60.5 36.65 60.6
M 53.65 38.3
L 53.65 38.35 53.8 38.35 53.8 38.4 53.9 38.4 53.85 38.3 53.65 38.3
M 56.4 40.75
L 56.35 40.75 56.35 40.8 56.55 41.15 56.4 40.75
M 46.35 38.35
L 46.4 38.35 46.25 38.35 46.2 38.4 46.35 38.35
M 50.1 37.45
L 50 37.45 49.55 37.4 49.45 37.4 49.35 37.45 49.35 37.4 48.4 37.6
Q 48.24453125 37.63515625 48.05 37.7
L 47.65 37.85
Q 47.6 37.85 47.4 37.95
L 47.45 37.95 47.25 38 47.45 37.9 47.4 37.9 47.45 37.85 47 38
Q 46.8 38.2 46.55 38.25
L 46.45 38.35 46.45 38.35 46.35 38.35 46.3 38.4 46.2 38.4 46.15 38.4 46.15 38.45 46.15 38.5 46.1 38.55 46.1 38.55 46.15 38.5 46.1 38.6 46.1 38.6 46.1 38.55 46.05 38.6 46.05 38.5 46 38.6 46.05 38.6 45.95 38.65 46 38.6 45.9 38.7 45.85 38.7 45.8 38.75 45.7 38.75 45.25 39.2 45.2 39.2 44.25 40.2
Q 44.33984375 40.1904296875 44.2 40.4
L 43.85 40.75 43.8 40.75 43.8 40.8
Q 43.75 41 43.65 41
L 43.55 41.25 43.7 40.75 43.25 41.6 43.25 41.65 43.05 42.3 43.15 42 42.9 42.95 43.2 42.05 43.15 42.25 43.35 41.7
Q 43.3 41.9 43.3 41.95
L 43.3 42.05 42.65 43.75
Q 42.6 44 42.65 43.95
L 42.45 44.4 42.45 44.55 42.3 44.9 42.25 44.95 42.2 45.25
Q 42.25 44.9908203125 42.25 45.2
L 41.95 46.8
Q 41.85 46.95 41.85 46.75
L 41.9 46.7 42 45.7 41.7 47.35 41.65 47.35
Q 41.6880859375 47.2978515625 41.7 47.25
L 41.7 46.9 41.65 47.35 41.55 47.35 41.55 47.75 41.6 47.85 41.55 48.15 41.5 49.3 41.45 49.4
Q 41.5 49.15 41.45 49.1
L 41.45 49.3 41.4 49.45 41.4 49.7 41.45 49.9 41.45 49.8 41.5 50.3
Q 41.45 50.1 41.45 50.05
L 41.5 51.3 41.55 51.4 41.55 51.2 41.5 50.65 41.55 50.55 41.55 50.4 41.7 51.1 41.7 51.4 42 52.3 41.95 52.3 42.15 52.95 42.2 53 42.3 53.3
Q 42.65 54 42.45 53.5
L 42.8 54.3
Q 42.75 54.25 42.85 54.5
L 42.65 54.15 42.85 54.55 42.85 54.65 42.95 54.7 43.05 54.75 43.05 54.75 43.1 54.8 43.1 54.85 43.15 54.9 43.15 54.95 43.1 54.85 43.05 54.75 43 54.75 43.35 55.3 43.45 55.35 43.75 55.85 44.2 56.4 44.25 56.45 44.15 56.45 43.95 56.45 44.1 56.6 43.95 56.6 44.95 57.35 44.85 57.25
Q 44.9138671875 57.3 44.95 57.3
L 44.1 56.65 44.4 56.65 44.6 56.85 44.65 56.85 45 57.15 45.05 57.15 45.05 57.2 45.2 57.3 45.25 57.3 45.25 57.35 45.5 57.5
Q 46.1 58 45.9 57.9
L 45.55 57.65 45.7 57.8 45 57.3 44.95 57.3 44.95 57.3 45.05 57.4 44.95 57.35 45.25 57.55 45.25 57.55 45.85 58
Q 45.7 57.95 45.6 57.9
L 45.95 58.1 46.25 58.4 46.3 58.35 46.35 58.4 46.3 58.4 46.3 58.45 46 58.65 46.15 58.55 46.2 58.5 46.3 58.4 46.25 58.45 46.1 58.55 45.3 58.85 45.5 58.85 45.1 59 45 59.05 44.35 59.25 44.3 59.25 43.45 59.45
Q 43.0806640625 59.5978515625 42.65 59.7
L 44.6 59.3 43.55 59.65 43.05 59.7 42.25 59.9 41.9 59.95 41.85 59.95 41.5 60.05 41.45 60.1 41.3 60.1 41 60.25 40.35 60.25 40.3 60.3 40.4 60.3 40.25 60.4 40.3 60.35 40.3 60.3 39.05 60.35 37.75 60.6 37.95 60.5 37.5 60.6 37.35 60.65 37.5 60.65 37 60.7 36.9 60.7 36.75 60.8 36.65 60.85 36.45 61.05 36.45 61.1 36.4 61.2 36.35 61.4 36.4 61.8 36.4 61.95 36.55 62 37.5 62.2 37.65 62.25 37.75 62.25 38.95 62.4 39 62.4 39.15 62.45 40.55 62.45 41.05 62.4
Q 41.35 62.4 41.5 62.45 40.75 62.45 40.3 62.5 40.4025390625 62.5 40.45 62.5 41.0484375 62.4662109375 42.4 62.5 42.5234375 62.5 42.6 62.5
L 42.95 62.55 45 62.5
Q 45.2041015625 62.4591796875 44.75 62.45
L 45.2 62.45 45.7 62.35
Q 45.5 62.4 45.7 62.4
L 46.9 62.15 47.9 61.8 48.65 61.4 49.4 60.8 49.75 60.45 50 60.3 50.25 60.45 50.4 60.6 50.5 60.75 50.75 61 51.05 61.2 51.8 61.6 51.9 61.7 52.4 61.85 52.6 61.95 52.8 62 52.3 61.8 53.5 62.15 53.55 62.15
Q 53.85 62.2 53.9 62.2
L 54.8 62.35 55.35 62.35 54.85 62.4 55.2 62.4 54.85 62.45 58.05 62.4
Q 58.35 62.4 58.2 62.45
L 61.05 62.4
Q 62.05 62.25 61.95 62.2
L 62.3 62.2 63.4 61.9 63.5 61.9 63.5 61.8
Q 63.45 61.85 63.5 61.7
L 63.45 61.35 63.35 61.1 63.15 60.95 63.1 60.9 63.05 60.9 63 60.85 62.9 60.85 62.8 60.8 62.3 60.8 60.35 60.6 60.25 60.6 61.1 60.7 60.35 60.65 60.5 60.65
Q 60.19609375 60.646484375 59.85 60.6 59.75 60.6 59.65 60.6
L 59.55 60.55 59.2 60.55
Q 59.1 60.55 58.95 60.5 58.8 60.45 58.65 60.4 58.55 60.4 58.45 60.35 58.25 60.3 58.1 60.25 54.4 59.65 53.15 58.6
L 52.9 58.6 52.9 58.55 53.05 58.5 53.2 58.35 53.2 58.35 53.25 58.4 53.2 58.4 53.2 58.45 53.25 58.5 53.25 58.45 53.3 58.45 53.35 58.4 53.95 58.85 53.8 58.8 54.15 58.95 54.6 59.15
Q 54.7 59.15 54.65 59.1 55 59.2 54.6 59.05 53.987890625 58.8146484375 53.35 58.4
L 53.95 57.95
Q 54.1 57.85 54 57.95 53.95 58 53.9 58.05 54.1 57.9 54.6 57.4
L 54.65 57.35
Q 54.65 57.396875 54.6 57.45
L 54.85 57.2
Q 55.5 56.65 55.15 57
L 55.4 56.8 55.95 56.15 56.1 56 56.05 56 56.05 55.95 56.1 55.9 56.05 55.9 57 54.7 56.95 54.7 57 54.65 57.05 54.65 57.1 54.55 57.15 54.55 57.15 54.5 57.25 54.15
Q 57.55 53.6 57.5 53.85
L 58.25 51.55 58 52.55 58.35 51.4 58.3 51.7
Q 58.2015625 52.02734375 58.1 52.4
L 57.95 52.95 57.95 53 58 52.95
Q 58.0673828125 52.6470703125 58.25 52.05 58.335546875 51.7595703125 58.45 51.4
L 58.45 51.35 58.5 51.3 58.55 49.85 58.6 49.65 58.6 49.45 58.55 49.3 58.55 48.9 58.45 47.85 58.45 47.65 58.1 46
Q 58.15 46.15 58.15 45.95
L 57.9 45.1 57.9 45 57.85 44.95 57.85 45.05 57.8 45 57.8 44.9 57.75 44.8 57.7 44.6 57.7 44.55 57.65 44.5 57.65 44.6 57.6 44.45 57.65 44.5 57.65 44.4 57.6 44.2
Q 57.71015625 44.6796875 57.2 43.15
L 56.8 42 56.85 42.05 56.75 41.7 56.7 41.7 56.7 41.65 56.55 41.35 56.65 41.4 56.5 41.15 56.6 41.3 56.35 40.8 56.3 40.75 56.25 40.75 56.1 40.6
Q 55.95 40.4 55.9 40.35
L 56.3 40.7 55.95 40.35
Q 55.95 40.3 55.7 40
L 55.25 39.6 55.85 40.2 55.8 40.25 55.3 39.7 55.3 39.75 54.9 39.25 54.85 39.25 54.85 39.2 54.45 38.9 54.35 38.8 54.75 39.1
Q 54.55 38.9 54.85 39.05
L 54.4 38.7 54.4 38.75 54.35 38.75 54.35 38.7 54.15 38.6 54.05 38.5 53.95 38.45 54.05 38.6 53.95 38.5 53.9 38.5 53.85 38.5 53.95 38.55 54 38.6 53.9 38.5 53.85 38.5 53.8 38.4 53.7 38.4 53.65 38.35 53.55 38.3 53.65 38.3 53.45 38.2 52.7 37.9 52.75 37.9 52.15 37.65 52.25 37.7 51.85 37.6 51.9 37.6 51.6 37.5 51.4 37.5
Q 51.55 37.55 51.25 37.55
L 50.65 37.4 50.55 37.4 50.1 37.45
M 50.35 37.6
Q 50.5 37.6 50.5 37.65
L 50.6 37.65
Q 51 37.75 50.8 37.75
L 50.6 37.7 50.55 37.7 50.05 37.75 50.55 37.75
Q 50.325 37.755078125 50.1 37.8 49.8 37.75 49.55 37.75
L 48.65 37.95
Q 48.2 38 47.6 38.3
L 47.1 38.45 47.25 38.4 46.7 38.6 46.6 38.7 46.5 38.7 46.45 38.8 46.35 38.8 46.3 38.9 46.1 39 46.05 39 45.95 39.05 45.45 39.45 44.8 40.15
Q 44.115234375 40.8232421875 44 40.9
L 43.65 41.5 43.95 40.9 43.95 40.85 44.05 40.8 45.35 39.35 45.85 38.95 45.85 38.9 45.95 38.85 46 38.85 46 38.9 46.05 38.9 46.2 38.8 46.2 38.7 46.25 38.65 46.3 38.65 46.35 38.6 46.4 38.55 46.55 38.55 46.6 38.5 46.6 38.45 46.65 38.45 47.15 38.3
Q 47.37734375 38.224609375 47.55 38.2 48.15 37.85 48.6 37.85
L 49.5 37.65 49.55 37.65 50.05 37.7
Q 50.15 37.65 50.35 37.6
M 48.25 40.1
L 48.5 40 48.65 39.9
Q 48.35 40.05 48.45 39.95
L 48.85 39.8 48.8 39.85 49.65 39.4 49.7 39.4 49.7 39.35 49.85 39.25 49.8 39.25 49.85 39.2
Q 50.1 39.15 50.4 39.2 50.45 39.2 50.5 39.25
L 52 40
Q 52.15 40.05 52.3 40.2 52.35 40.25 52.4 40.3
L 52.45 40.35
Q 52.55 40.4 52.6 40.55 52.65 40.6 52.7 40.65 52.9 40.7 53.15 40.85 53.25 40.9 53.4 41
L 53.5 41.15
Q 53.55 41.2 53.65 41.25 53.676171875 41.2734375 53.7 41.3 54.116015625 41.6947265625 54.4 42.35
L 54.1 41.85 54.15 41.9 53.7 41.3 53.6 41.25 53.45 41.15 53.35 41 53.4 41.1 53.35 41.05 53.1 40.9 53.05 40.9 52.85 40.8 52.65 40.75 52.8 40.8 52.75 40.8 52.9 40.85 53.25 41.05 53.25 41.2 53.3 41.25 53.3 41.3 53.4 41.35 53.55 41.4 53.55 41.4 53.65 41.5 53.7 41.65 53.6 41.55 53.85 41.95
Q 54 42.2 53.95 42.2
L 54 42.35 54.1 42.55 54.2 42.65 54.15 42.5 54.15 42.5 54.15 42.5 54.2 42.6 54.2 42.55 54.25 42.6 54.3 42.7 54.3 42.75 54.4 42.95 54.45 43 54.45 43.05 54.35 43.05 54.4 43.1 54.4 43.3 54.45 43.7 54.4 43.7 54.4 43.65
Q 54.35 43.95 54.45 44.45 54.4 44.7 54.35 44.05
L 54.35 43.1 54.3 43.2 54.35 45.8 54.3 45.8 54.3 46.05 54.35 46.15 54.5 46.7 54.5 46.75 54.7 47.15 54.7 47.05 54.75 47.1 54.75 47.2 54.85 47.4 54.9 47.4 54.95 47.55 55.05 47.65 55.05 47.7 55.1 47.75 55.15 47.85 55.15 48.05 55.2 48.1 55.25 48.45 55.25 48.4 55.3 48.7 55.25 48.7 55.25 48.8 55.2 48.75 55.2 48.85 55.25 48.9 55.3 48.9 55.3 49 55.35 49.05 55.35 49.15 55.3 49.2 55.3 49.05 55.25 49 55.25 49.35 55.3 49.45 55.3 49.35 55.35 49.45 55.35 49.55 55.4 49.55 55.4 49.6 55.35 49.6 55.35 49.85
Q 55.35 50 55.35 50.05
L 55.3 50.4 55.3 50.5
Q 55.25625 50.54375 55.25 50.15 55.2443359375 50.6 55.2 50.6
L 55.2 50.75 55.1 51.4 55.1 51.55 55 51.75 54.95 52.2 54.95 52.05 54.8 52.7 54.8 52.65 54.75 52.7 54.85 52.25 54.85 52.35 54.95 51.85 54.85 52.2
Q 54.85 52.3 54.8 52.2
L 54.7 52.7 54.65 52.75 54.6 52.9 54.45 53.2 54.4 53.55 54 54.2 54 54.15 54.05 54.05 53.95 54.15 53.95 54.15 53.9 54.15 53.85 54.25 53.85 54.4 53.75 54.55 53.7 54.6 53.65 54.6 53.6 54.75 53.55 54.8 53.55 54.85 53.4 55.2
Q 53.35 55.25 53.4 55.25
L 53.35 55.3
Q 52.95 55.75 52.8 55.9
L 52.75 55.95 52.6 56.15 52.7 55.95 52.55 56.15 52.5 56.15 52.5 56.2 52.4 56.3 52.4 56.25 52.1 56.55 52.35 56.35 51.85 56.85 51.75 56.75 51.8 56.75 52.1 56.4 51.4 56.95 51.2 57.15 51.1 57.2 51.05 57.25 51 57.25 50.9 57.3 50.8 57.35
Q 51.0142578125 57.2142578125 50.8 57.3
L 50.45 57.55
Q 50.320703125 57.5931640625 50.45 57.45
L 50.3 57.6 50.25 57.6 50.35 57.6 50.2 57.7 50.35 57.65 50.25 57.75 50.4 57.7 50.3 57.8 50.05 57.85 49.9 57.85 49.8 57.8 49.75 57.75 49.65 57.75 49.55 57.65
Q 49.25 57.5 49.45 57.65
L 49.2 57.5 49.25 57.5 49.2 57.45 49.2 57.45 49.05 57.4 49 57.3 49.05 57.3 49.1 57.3 49.05 57.3 49 57.2 48.85 57.05 48.75 57.05 47.85 56.35 47.75 56.3 47.7 56.25 47.65 56.25 47.55 56.15 47.7 56.15 47.65 56.1 47.85 56.2 48.2 56.45 48 56.25 48.1 56.3
Q 48.05 56.25 47.95 56.2
L 47.85 56.15 47.8 56.1 47.75 56.1 47.7 56.05 47.65 56.05 47.65 56 47.7 56 47.65 55.95 47.6 55.95 47.15 55.35 47 55.2 47.55 55.9 46.8 55.1 46.85 55.2 47.4 55.8 46.9 55.35 46.8 55.2 46.7 55.1
Q 46.65 55.05 46.7 55.05
L 46 54.05 46 53.95 45.95 53.9
Q 45.858203125 53.708203125 45.7 53.55 45.7 53.5 45.6 53.3
L 45.45 53.1 45.4 53 45.3 52.85 45.3 52.65 45.2 52.45 45.25 52.45 45.15 52 45.15 52.25 45.05 51.8
Q 45.15 52.1 45.1 51.7
L 44.85 50.8 44.8 50.75 44.8 50.7 44.75 50.65 44.7 50.7 44.75 50.6 44.7 50.45 44.7 49.9 44.65 49.5 44.65 49.4 44.7 49.3 44.7 49.4 44.75 49.35 44.75 49.25 44.8 49.05 44.8 48.95 44.85 48.9 44.85 48.8 44.9 48.5 44.9 48.45 44.9 48.4 44.95 48.25 45 48.15 45 48 45.05 47.95 45.1 47.45
Q 45.0900390625 47.6703125 45.05 47.55
L 45.15 47.05
Q 45.15 47.15 45.2 47.05
L 45.25 46.85 45.25 47.15
Q 45.5 46.2 45.5 46.1
L 45.6 45.35 45.65 43.8 45.7 43.75 45.7 43.1 45.65 43.15 45.65 43.05 45.7 42.95 45.7 42.9 45.8 42.7 45.8 42.55 45.75 42.55 45.7 42.5 45.75 42.5 45.75 42.55 45.75 42.5 45.75 42.5 45.8 42.45 45.9 42.3 45.85 42.45 45.9 42.45 45.9 42.5 46.15 41.85 46.3 41.6 46.55 41.35 46.6 41.35 46.6 41.3 46.65 41.3 46.65 41.35 46.8 41.2 46.8 41.15 46.8 41.05 47.05 40.95 47.1 40.95 47.4 40.75 47.45 40.75 47.55 40.6 47.55 40.65 47.6 40.65 47.6 40.7 47.65 40.65 47.75 40.6 47.75 40.45 47.7 40.45 47.7 40.4 47.8 40.4 47.8 40.35 47.85 40.25 47.9 40.25 48 40.15 48.25 40.1
M 46.2 38.6
L 46.35 38.5 46.4 38.5 46.2 38.65 46.2 38.6
M 42.6 44.85
L 42.7 44.5 42.7 44.7 42.6 44.85
M 41.95 48.25
L 41.95 48.05 42 47.9 41.95 48.25
M 53.4 38.45
Q 53.4 38.5 53.45 38.5
L 53.5 38.5 53.5 38.55 53.55 38.65 53.45 38.55 52.6 38.25 52.55 38.25 52.55 38.25
Q 51.9791015625 37.9978515625 51.5 37.95
L 50.65 37.75 50.95 37.8
Q 51.1 37.85 51.05 37.8
L 51.5 37.9
Q 51.85 37.9 52.1 38
L 52.95 38.3 52.85 38.3 53.4 38.45
M 53.55 38.35
L 53.65 38.4 53.6 38.4 53.55 38.35
M 53.8 38.45
L 53.85 38.5 53.75 38.45 53.8 38.45
M 54.6 46.15
L 54.55 46 54.55 45.85 54.6 45.85 54.65 45.7
Q 54.6986328125 45.6513671875 54.7 45.55
L 54.7 45.65
Q 54.6931640625 45.7921875 54.65 45.9 54.609765625 46.0205078125 54.85 46.7
L 54.9 46.85
Q 54.969921875 46.975 55 47.05 55.1203125 47.37109375 55.2 47.5
L 54.95 47.1 54.75 46.55 54.75 46.55
Q 54.7482421875 46.446484375 54.6 46.15
M 55.5 48.8
L 55.55 48.95 55.55 48.9
Q 55.596875 48.984375 55.6 49.05
L 55.6 49.25
Q 55.646875 49.3908203125 55.65 49.5
L 55.6 49.35 55.6 49.8
Q 55.6 49.9603515625 55.6 50
L 55.6 50.2
Q 55.6091796875 50.262890625 55.6 50.3
L 55.6 50.15 55.55 50.5 55.55 51 55.6 50.85 55.15 52.8
Q 55.0576171875 53.07734375 54.35 54.2
L 54.25 54.2 54.3 54.3
Q 54.2890625 54.32734375 54.25 54.35
L 54.25 54.35 54.25 54.35 54.2 54.35 54.2 54.3 54.1 54.4 54.1 54.35 54.15 54.35 54.25 54.15 54.25 54.1 54.25 54.1 54.4 53.85
Q 54.4595703125 53.637890625 54.65 53.4 54.45 53.8 54.65 53.55
L 54.85 53.1 54.95 52.95 55.05 52.75 55.2 52.1
Q 55.15 52.2 55.2 51.95 55.3 51.75 55.35 51.8
L 55.35 51.65 55.4 51.2 55.5 50.8 55.5 50.65 55.45 50.6
Q 55.5 50.6 55.5 50.55 55.5 50 55.55 49.65
L 55.55 49.5 55.5 49.25 55.5 48.8
M 57.5 44.7
L 57.45 44.65 57.45 44.6 57.5 44.65 57.6 45.05 57.9 46.25 57.85 46.1 58.2 47.7 58.2 47.75 58.15 47.75
Q 58 46.9 57.6 45.05
L 57.5 44.7
M 57.45 44.45
L 57.45 44.5 57.2 43.8 57.45 44.45
M 58.2 48.2
L 58.2 48.25 58.15 47.9 58.15 47.85 58.2 48.2
M 58.4 51.3
L 58.45 51.25 58.45 51.3 58.4 51.4 58.35 51.45 58.4 51.35 58.4 51.3
M 58.4 51.3
L 58.35 51.3 58.4 51.25 58.4 51.3
M 54.8 52.85
L 54.75 52.95
Q 54.75 53.05 54.7 53.15 54.5 53.35 54.65 53
L 54.75 52.85 54.7 52.95
Q 54.7537109375 52.85 54.8 52.85
M 54.3 54.4
Q 54.2484375 54.464453125 54.2 54.5
L 54.15 54.45 54.25 54.45 54.25 54.4 54.3 54.4
M 54.15 54.45
L 54.15 54.5 54.15 54.55 54.15 54.55 54.1 54.5 54.15 54.45
M 54.1 54.45
L 54.05 54.45 54.1 54.4 54.1 54.4 54.1 54.45
M 53.9 54.75
L 54 54.75 54 54.75 53.95 54.8 53.85 54.8 53.9 54.75
M 53.75 54.65
L 53.75 54.55 53.8 54.6 53.75 54.65
M 53.25 58.3
L 53.25 58.3 53.4 58.2 53.25 58.3 53.95 57.75 53.35 58.3 53.35 58.35 53.3 58.35 53.25 58.3
M 52.8 56.3
Q 52.7732421875 56.323828125 52.75 56.35 52.723046875 56.376953125 52.7 56.4
L 52.7 56.35 52.8 56.25 52.8 56.3
M 51.45 57.45
L 51.4 57.5 51.4 57.5 51.45 57.45 51.5 57.4
Q 51.59140625 57.30859375 51.65 57.25
L 51.45 57.45
M 46.8 55.6
L 46.85 55.65 47.4 56.3 47.2 56.1 47.35 56.3
Q 47.2005859375 56.1283203125 47.05 55.95 46.97109375 55.8556640625 46.9 55.75
L 47.05 55.9 46.8 55.6
M 45.3 57.05
L 45.3 57.05 45.25 57.05 45.3 57.05
M 45.2 59.05
L 45.25 59.05 46.15 58.65 46.35 58.5 46.4 58.5 46.45 58.55 46.4 58.6 46.3 58.65 46 58.85 45.7 58.95 45.75 58.9 45.2 59.05
M 50.35 57.65
L 50.4 57.65 50.4 57.65 50.35 57.65
M 46.65 58.15
L 46.55 58.2 46.6 58.15 45.95 57.6 46.65 58.15 46.65 58.15
M 46.8 58.25
L 46.7 58.25 46.75 58.2 46.8 58.25
M 46.7 58.7
L 46.75 58.7
Q 46.7103515625 58.7537109375 46.65 58.75
L 46.7 58.7
M 47.1 58.5
L 47.1 58.55 47.15 58.55 47.15 58.5 47.2 58.55 47.25 58.55 47.25 58.6 47.2 58.55 47.15 58.55 47.15 58.55 47.1 58.6 47.1 58.6 47.1 58.55 47.1 58.55 47.05 58.55 47.05 58.45 47.1 58.5 47.1 58.5
M 55.25 52.2
L 55.35 51.9 55.35 51.8 55.25 52.2
M 47.7 56.05
L 47.75 56 47.7 56 47.7 56.05
M 49.8 57.75
L 49.75 57.7 49.65 57.7 49.8 57.75
M 49.35 57.35
L 49.3 57.35 49.7 57.6 49.5 57.5 49.45 57.5 49.6 57.6 49.7 57.65 49.75 57.7 49.85 57.7 49.95 57.75 50 57.75 50.05 57.7 49.95 57.7 49.9 57.6 49.8 57.55 49.75 57.55 49.35 57.35
M 49.65 57.55
L 49.7 57.55 49.85 57.65 49.65 57.55
M 49.1 57.3
L 49.2 57.45 49.45 57.5 49.4 57.45 49.1 57.3
M 53.1 40.85
L 53.1 40.9 53.35 41 53.15 40.9 53.2 40.9 53.1 40.85
M 44.75 49.45
L 44.75 49.35 44.7 49.45 44.75 49.45
M 45.8 42.7
L 45.75 42.85 45.85 42.7 45.85 42.65 45.8 42.7
M 45.8 42.9
L 45.8 42.85 45.75 42.85 45.75 42.85 45.75 42.95 45.8 42.9
M 49.15 57.25
L 49.25 57.35 49.25 57.3 49.15 57.25
M 45.35 52.65
L 45.45 52.75 45.45 52.7 45.4 52.65 45.35 52.5 45.35 52.65
M 46.95 55.15
L 46.9 55.1 47 55.25 46.95 55.15
M 46 53.85
L 46.05 53.95 46.05 53.9 46 53.85
M 51.5 56.85
L 51.8 56.55 51.6 56.7
Q 51.68125 56.659375 51.5 56.85
M 52.3 56.2
L 52.3 56.15 52.15 56.4 52.35 56.2 52.3 56.2
M 53.3 55.15
L 53.45 54.95 53.5 54.8 53.3 55.05
Q 53.2 55.25 53.2 55.15
L 53.2 55.1 52.95 55.35 52.6 55.8 52.4 55.95 52.4 56 51.8 56.55 52 56.4 51.9 56.5 52.3 56.15 52.35 56.1 52.3 56.2 53.3 55.15
M 52.15 40.35
L 52.1 40.35 52.25 40.5 52.15 40.35
M 52.35 40.5
L 52.35 40.55 52.4 40.55 52.35 40.5
M 52.6 40.85
L 52.55 40.85 52.5 40.8 52.45 40.65 52.4 40.6 52.35 40.6 52.35 40.55 52.3 40.55 52.25 40.6 52.3 40.6 52.35 40.7 52.35 40.75 52.45 40.85 52.55 40.9 52.6 40.9 52.9 40.95 52.85 40.95 52.6 40.85
M 51.9 40.2
L 51.85 40.2 51.9 40.25 51.9 40.2
M 44.9 49.45
L 44.9 49.45 44.9 49.5 44.9 49.45
M 45.5 46.45
Q 45.45 46.55 45.45 46.45
L 45.1 47.95 45.1 48.2
Q 45.1 48.3 45.15 48.25
L 45.15 48.1
Q 45.198828125 48.098828125 45.15 48.05
L 45.2 48 45.25 47.75 45.15 47.85 45.35 47.45 45.5 46.75
Q 45.4400390625 46.9197265625 45.35 47.1
L 45.5 46.45
M 46.05 42.5
L 45.9 42.5 46 42.55 46 42.8 46.05 42.7 46.05 42.55 46.1 42.5 46.05 42.45 46.05 42.5
M 46.2 38.8
L 46.2 38.8 46.25 38.8 46.2 38.8 Z"/>
</g>
</defs>

<g transform="matrix( 1, 0, 0, 1, 0,0) ">
<use xlink:href="#Layer1_0_FILL"/>
</g>
</svg>
