
<svg xmlns="http://www.w3.org/2000/svg" version="1.1" xmlns:xlink="http://www.w3.org/1999/xlink" preserveAspectRatio="none" x="0px" y="0px" width="100px" height="100px" viewBox="0 0 100 100">
<defs>
<g id="Layer1_0_FILL">
<path fill="#000000" stroke="none" d="
M 48.2 57.65
Q 48.05 57.5 48.15 57.5 48.15 57.45 48.05 57.5 47.95 57.5 47.9 57.55
L 47.95 57.45
Q 47.85 57.55 47.8 57.45 47.75 57.3 47.8 57.25
L 47.35 57.75
Q 47.45 57.8 47.55 57.65 47.592578125 57.5650390625 47.65 57.55 47.6 57.565625 47.6 57.65
L 48.2 57.65
M 42 57.1
Q 41.95 57.1 41.9 57 41.9 57.05 41.75 57.15
L 42 57.1
M 44.45 58.4
Q 44.6 58.401171875 44.6 58.55 44.55 58.8 44.8 58.75 44.7 59.05 44.35 58.9 44.3 58.8 44.35 58.75 44.3 58.75 43.95 58.8 43.75 58.85 43.7 58.7 43.65 58.7 43.4 58.95 43.35 59.05 43.55 59.1 43.69765625 59.14921875 43.7 59.25
L 43.7 59.15 43.85 59.2
Q 43.75 59.15 43.8 59.05 43.85 59 43.95 59
L 44.1 59 44.05 59.05
Q 44.05 59.1 44.2 59.05 44.3 59 44.35 59.05
L 44.35 59.15
Q 44.4 59.05 44.55 59 44.7 58.9 44.8 58.9
L 44.65 59.1
Q 44.9 58.8 45.4 59.05
L 45.35 59
Q 45.5 58.95 45.55 59 45.599609375 59.09921875 45.55 59.2 45.601953125 59.100390625 45.85 59.15 46.15 59.25 46.3 59.15
L 47.15 58.05 47.05 58.1
Q 47 57.95 47 57.9 46.9 58 46.8 58 46.85 57.9 46.85 57.8 46.85 57.65 46.7 57.65 46.45 57.75 46.05 58.1 45.6 58.55 45.4 58.65 45.4 58.55 45.2 58.55 44.9 58.5 44.85 58.5 44.95 58.3 45.2 58.25
L 44.85 58.25 44.8 58.55
Q 44.55 58.55 44.65 58.4 44.8 58.25 44.7 58.25 44.5517578125 58.3982421875 44.45 58.4
M 45.15 57.75
Q 44.95 57.75 44.95 57.9 44.85 57.95 44.75 57.8 44.65 58 44.3 57.9 43.95 57.85 43.95 58.05 44.15 58.05 44.3 58
L 44.3 58.3
Q 44.35 58.3 44.35 58.15 44.3978515625 58.054296875 44.5 58.05
L 44.45 58.05
Q 44.55 58 45.15 58 45.15 58.05 45.2 58.1 45.3 58.15 45.25 58.25 45.55 58.2 45.6 58.05 45.7 58.1 45.9 58.05
L 45.95 57.9
Q 45.95 57.8 45.8 57.85
L 45.85 57.8
Q 45.75 57.75 45.65 57.8 45.5 57.9 45.45 57.9 45.4 57.85 45.5 57.8
L 45.55 57.75 45.15 57.75
M 43.65 58.15
Q 43.6236328125 58.1890625 43.35 58.15 43.05 58.15 42.95 58.25 42.85 58.35 42.85 59 43.2 59.15 43.2 58.95 43.15 58.9 43.25 58.8 43.3 58.75 43.15 58.7 43.1 58.65 43.2 58.55 43.3 58.5 43.4 58.5 43.4 58.55 43.35 58.6 43.3 58.65 43.35 58.7 43.45 58.55 43.45 58.5 43.587890625 58.2701171875 43.65 58.15
M 59.4 58.25
L 59.35 58.25
Q 59.25 58.25 59.3 58.3 59.4 58.3 59.4 58.25
M 51.6 58.4
L 51.45 58.55
Q 51.55 58.55 51.65 58.35
L 51.4 58.35
Q 51.45 58.5 51.6 58.4
M 55.15 58.25
Q 55.35 58.3 55.35 58.5 55.4 58.45 55.3 58.25 55.25 58.15 55.35 58.05 55.2 58 55.25 58.1 55.25 58.25 55.15 58.25
M 54.3 58.25
Q 54.1 58.35 54.15 58.45 54.35 58.5 54.45 58.35
L 54.4 58.3 54.6 58.15
Q 54.55 58.15 54.3 58.25
M 61.75 57.3
Q 61.8 57.3 61.9 57.25 61.75 57.25 61.7 57.15
L 61.75 57.3
M 47.9 41.2
L 47.7 41.25 47.5 41.25 47.45 41
Q 47.4 41.2 47 41.2
L 46.9 41.2 46.85 41.25 46.75 41.25
Q 46.65 41.3 46.7 41.4
L 46.4 41.4 46.2 41.5 46.05 41.5
Q 45.65 41.65 45.65 41.4
L 45.3 41.5 43.8 42.3 43.05 42.6
Q 42.9 42.55 42.5 42.6
L 41.75 42.95 40.5 43.85 40.45 43.85 40.45 43.95 39.3 45.05 39.25 45.15 38.85 45.6 38.85 45.65 38.8 45.65 38.8 45.7 38 46.75 37.6 46.95 37.15 47.4 36.85 48 36.75 48.1 36.75 48.2 36.1 49.35 36 49.45 35.95 49.55 36 49.85
Q 35.85 50 35.6 50.3
L 35.1 51.6
Q 34.95 52.05 34.75 52.3
L 34.75 52.7
Q 34.85 52.65 35 52.65
L 34.85 52.9 34.8 53.15
Q 34.65 53.4 34.55 53.4
L 34.55 53.3
Q 34.45 53.25 34.4 53.7
L 34.4 53.9 34.35 54.1
Q 34.3 54.35 34.25 54.4
L 34.55 54.3 34.45 54.55 34.4 54.75 34.4 54.8 34.45 55.25 34.45 55.45
Q 34.5 55.8 34.5 56.05 34.3 56.15 34.15 56.25 34.2 56.25 34.3 56.2 34.35 56.15 34.4 56.2
L 34.35 56.3
Q 34.35 56.35 34.4 56.3
L 34.45 56.3 34.45 56.4 34.35 56.45 34.5 56.65 34.1 56.9 34.1 57.05
Q 34.25 57 34.5 56.85 34.75 56.65 34.95 56.8 34.9 56.8 34.95 56.9 35.2 56.8 35.25 56.7
L 35.45 56.75
Q 35.45 56.9921875 35.25 57 35.5140625 56.99765625 36.1 56.9 36.6 56.7 36.95 56.8 37 56.85 36.95 56.9
L 37.15 56.75
Q 37.15 56.8 37.1 56.85 37.25 56.8 37.45 56.9 37.65 56.95 37.75 56.9 37.8 57 37.65 57 37.8 57.05 38.05 56.95 38.3 56.8 38.45 56.8 38.35 56.95 38.6 57.05 38.9 56.9 39.9 56.8 39.85 57 40.1 57 40.35 57 40.35 57.15 40.5986328125 57.15 40.6 57 40.5984375 57.0484375 40.5 56.95 40.45 56.95 40.45 56.9 40.8 56.9 40.85 56.7
L 41 56.9
Q 41 56.65 41.15 56.65 41.25 56.8 41.25 56.65 41.25 56.5 41.4 56.6
L 41.25 56.9 41.45 56.8
Q 41.5 56.95 41.25 57.15
L 41.45 57.25
Q 41.85 56.8 42.2 56.85
L 42.1 56.95
Q 42.1 57.05 42.1 57.1 42.2 57.1 42.35 57 42.5 56.9 42.6 56.95
L 42.55 57.05
Q 42.85 56.9 43 57.1
L 43 57.15 43.15 57.05
Q 43.35 56.9 43.45 57.05
L 43.7 57.3 43.65 57.35
Q 43.8 57.55 44.3 57.45 44.2 57.4 44.2 57.35 44.15 57.25 44.1 57.15 44.05 57.4 43.85 57.3 43.85 57.25 44 57.15 44.15 57.05 44.2 56.95 44.35 56.95 44.35 57.35 44.65 57.3 45.15 57.4 45.3 57.2 45.35 57.15 45.45 56.95 45.65 57.15
L 45.65 57.2
Q 45.651171875 57.15 45.7 57.15 45.8 57.15 45.85 57.15 45.8 57.05 45.85 56.95 45.9 56.9 45.85 56.85 46.05 56.8 46.05 57.25 46.1 57.1 46.3 57.2 46.54609375 57.2984375 46.65 57.25
L 46.45 57.35
Q 46.35 57.4 46.45 57.5
L 46.8 57.2 46.6 57.2
Q 46.8 57.05 46.9 57.15 46.95 57.2 47.1 57.3 47.1 57.3984375 47.05 57.4 47.15078125 57.39921875 47.25 57.3
L 47.3 57.3
Q 47.6 57.15 47.7 57.05
L 47.8 57.05 47.9 57.1 47.9 57.15 47.95 57.1 48.05 57.15 48.15 57.1 48.15 57.05
Q 48.15 56.7 48.5 56.8
L 48.2 56.7 48.3 56.65 48.9 56.75
Q 48.75 56.85 48.65 56.8 48.75 56.9 49.05 56.9 49.25 56.85 49.3 56.95 49.1 57.1 48.9 57.15 48.55 57.15 48.45 57.15 48.4 57.05 48.55 57 48.7 56.95 48.7 56.9
L 48.55 56.9 48.35 56.95
Q 48.2 57.05 48.25 57.2 48.95 57.35 49.4 57.35
L 49.05 58.65 48.9 58.7
Q 48.9 58.55 48.85 58.55 48.75 58.5 48.6 58.6 48.5 58.65 48.45 58.7 48.2 58.55 48.05 58.75 48 58.65 48.15 58.6 48.3 58.6 48.2 58.5 48.3 58.55 48.45 58.5 48.55 58.45 48.7 58.4 48.55 58.35 48.45 58.25 48.35 58.05 48.4 58 48.2 58.05 48.2 58.3 48.2 58.55 48.05 58.55
L 47.8 58.5 47.7 58.75
Q 47.65 58.75 47.65 58.65 47.7 58.55 47.55 58.55 47.5 58.7 47.3 58.65 47.3 58.55 47.2 58.55 47.2 58.65 47.1 58.65 47.1 58.5 47.2 58.5 47.3 58.5 47.25 58.4 47.1 58.35 47.05 58.5 47.05 58.55 47.05 58.7
L 47.1 58.7
Q 47.1 58.75 47.05 58.75 47 58.75 47 58.8 47.049609375 58.8 47.1 58.75 47.05078125 58.80078125 47.15 58.9 47.25 58.95 47.3 58.95 47.5 58.8 48.15 58.85
L 48.05 58.9
Q 48.2 58.9 48.5 58.95 48.75 59 48.95 58.95
L 49.05 58.75
Q 49.25 58.75 49.25 58.5 49.25 58.25 49.3 58.2
L 49.4 58.15
Q 49.45 58.1 49.5 58.15
L 49.45 58.25
Q 49.6 58.25 49.6 58.15 49.65 58.05 49.7 58.05
L 49.75 58
Q 49.65 58 49.7 57.95 49.8 57.95 49.9 57.8 49.95 57.65 50.15 57.75 50.15 57.8 50.15 57.9 50.15 58 50 58
L 50.2 58.15 49.9 58.2
Q 49.75 58.4 49.7 58.65
L 49.8 58.55
Q 49.8 58.45 49.9 58.5 49.999609375 58.5 49.9 58.6 49.95078125 58.55078125 50.05 58.65 50.15 58.75 50.25 58.6 50.2 58.4 50.15 58.25 50.2 58.25 50.3 58.3 50.4 58.4 50.4 58.55
L 50.45 58.35
Q 50.45 58.4 50.55 58.45
L 50.6 58.35
Q 50.45 58.15 50.3 58.25 50.3 58.2 50.3 58.05 50.3 57.95 50.4 57.9 50.45 57.9 50.45 58
L 50.4 58.05
Q 50.7 58 50.9 58.15 51.1 58.3 51.25 58.25 51.15 58.3 50.75 58.3 50.8794921875 58.47265625 51.05 58.35 50.98515625 58.4234375 51.1 58.5
L 51.15 58.4
Q 51.3 58.4 51.35 58.5 51.35 58.4 51.25 58.35 51.55 58.15 52.05 58.25 52.05 58.3 51.85 58.4 51.7 58.45 51.8 58.55
L 52 58.4
Q 52.15 58.3 52.25 58.4 52.2 58.45 52.25 58.5 52.3 58.55 52.3 58.6
L 52.65 58.3
Q 52.7984375 58.3494140625 52.95 58.35 52.9 58.3484375 52.9 58.3 53 58.2 53.2 58.25 53.4 58.35 53.5 58.3
L 53.4 58.4
Q 53.6 58.45 53.9 58.3
L 53.85 58.4
Q 53.9142578125 58.2953125 54.05 58.25 54.15 58.2 54.3 58.15 54.05 58.2 53.85 58.1 53.65 58.05 53.45 58.1 53.75 57.85 53.9 57.65 54 57.7 54 57.75 54.05 57.65 54.2 57.45
L 54.25 57.55
Q 54.4 57.6 54.55 57.4 54.65 57.25 54.8 57.25 54.85 57.4 54.7 57.5 54.5 57.6 54.4 57.65 54.45 57.75 54.3 57.8 54.15 57.9 54.25 58
L 54.3 57.9
Q 54.4 57.9 54.35 58 54.45 58 54.5 57.9 54.75 57.9 54.7 58.05 54.65 58.25 54.9 58.25 54.8 58.3 54.75 58.3 54.7 58.4 54.75 58.45
L 54.5 58.4 54.5 58.55
Q 54.85 58.55 55.15 58.1 55 58.2 55 58.05 55 57.9 54.95 57.85 55 57.8 55.05 57.85 55.1 57.85 55.15 57.8
L 55.25 57.75
Q 55.3 57.9 55.55 58.1 55.8 58.3 55.75 58.5 55.85 58.55 56.2 58.5 56.7 58.4 56.85 58.4
L 56.75 58.5
Q 56.95 58.7 57.1 58.5 57.2 58.25 57.25 58.2 57.25 58.25 57.35 58.3 57.5 58.4 57.55 58.4 57.65 58.35 57.85 58.2 58 58.05 58.15 58.1 58.15 58.2 58.2 58.35 58.25 58.5 58.35 58.5
L 58.45 58.4
Q 58.5 58.4 58.75 58.35 58.9 58.3 58.95 58.4
L 58.9 58.4
Q 59.05 58.45 59.1 58.35 59.1 58.25 59 58.25
L 59.15 58.15
Q 59.2 58.15 59.5 57.95 59.75 57.8 59.95 57.8 59.9 57.75 59.85 57.7
L 60 57.55 60.1 57.65 60.15 57.5
Q 59.85 57.3 59.8 57.2 60.25 57.25 60.9 56.75
L 60.85 56.8 61.35 56.8 61.25 56.85
Q 61.3 56.9 61.4 56.9
L 61.6 56.85
Q 61.7 56.7 61.8 56.8
L 61.75 56.9
Q 61.8 56.95 62.15 56.95
L 61.9 57.2
Q 61.9806640625 57.1806640625 62.05 57.25
L 61.75 57.55
Q 61.8 57.6 61.9 57.5 62 57.35 62.1 57.4 62.1 57.65 61.9 57.8 61.8 57.8 61.8 57.75 61.85 57.65 61.8 57.6 61.75 57.75 61.65 57.65 61.6 57.55 61.5 57.65 61.4 57.7 61.35 57.65
L 61.35 57.5
Q 61.4 57.5 61.4 57.4 61.35 57.3 61.45 57.25 61.35 57.2 61.35 57.3 61.25 57.4 61.2 57.4
L 61.15 57.15
Q 60.8 56.95 60.6 57.15 60.65 57.2 60.6 57.25 60.5 57.3 60.5 57.4 60.55 57.25 60.65 57.3 60.75 57.3 60.75 57.4
L 60.25 57.45 60.5 57.55
Q 60.4 57.65 60.1 57.85 60 57.8 59.95 57.8 59.9 57.85 60 58 60.1 58.1 59.9 58.15 60 58.05 59.85 57.9 59.75 57.9 59.65 58 59.6 58.05 59.55 58.05 59.6 58.25 59.5 58.5 59.6 58.4 60 58.3 60.4 58.3 60.4 58.05 60.5 58.05 60.9 58.05 61.25 58 61.45 58.05
L 61.4 58 61.7 58.15 61.6 58.2 61.8 58.35
Q 61.8 58.5 61.65 58.5 61.6 58.5 61.6 58.45 61.5 58.5 61.6 58.55 61.7 58.55 61.65 58.65
L 61.5 58.65
Q 61.6 58.7 61.75 58.65 61.9 58.6 62 58.75 62.25 58.4 62.5 58.55 62.5 58.6 62.6 58.6 62.7 58.65 62.65 58.75 62.7 58.7 62.8 58.7 62.95 58.75 62.95 58.65 62.85 58.75 62.75 58.65 62.85 58.6 62.95 58.5
L 62.95 58.55
Q 63 58.55 63.05 58.3 63.1 58.15 63.25 58.15 63.6 58.15 63.45 58.4
L 63.25 58.65
Q 63.3 58.6 63.45 58.55 63.6 58.55 63.7 58.6
L 63.65 58.65
Q 63.8 58.55 63.85 58.65
L 64 58.25 64.3 58.2 64.25 58.3 64.45 58.25
Q 64.45 58.3 64.4 58.3 64.35 58.35 64.25 58.4 64.35 58.5 64.45 58.35
L 64.4 58.35
Q 64.75 58.1 64.55 58.05 64.65 58 64.7 58.05 64.8 58.15 64.85 58.15 64.85 58.25 64.8 58.3 65 58.4 65.1 58.3 65.05 58.3 65.05 58.25 65.05 58.2 64.95 58.15 65.15 58.1 65.15 58.05 65.1 58.1 65 58.05 65.25 58 65.45 58.05
L 65.4 58.15
Q 65.5 58.05 65.7 58 65.95 57.9 66 57.8
L 65.95 57.8
Q 65.85 57.9 65.75 57.8 65.85 57.75 65.8 57.65
L 65.7 57.65 65.7 57.55 65.6 57.65 65.5 57.65
Q 65.35 57.65 65.35 57.55
L 65.65 57.5
Q 65.434765625 57.5 65.3 57.45
L 65.4 57.5
Q 64.8541015625 57.59921875 64.65 57.7 64.74765625 57.6484375 64.6 57.55 64.5 57.5 64.55 57.45 64.6 57.4 64.65 57.45
L 64.7 57.5
Q 64.7 57.4 64.6 57.4 64.500390625 57.4 64.5 57.3 64.498828125 57.35078125 64.35 57.45 64.3 57.5 64.35 57.55
L 64.2 57.55
Q 64.1 57.65 64 57.55 64.05 57.75 63.8 57.75
L 63.7 57.65 64 57.45
Q 64.15 57.55 64.15 57.45
L 64.15 57.4 64.75 57 64.7 57.05
Q 64.789453125 56.9599609375 64.95 57 65.15 57 65.25 56.95
L 65.25 57
Q 65.35 57 65.5 56.9 65.6 56.8 65.7 56.85
L 65.7 56.8
Q 65.55 56.85 65.5 56.8 65.55 56.7 65.7 56.65
L 65.7 55.45 65.75 55.45 65.75 54.8 65.65 55 65.5 54.55
Q 65.45 54.35 65.6 54.2
L 65.4 52.75
Q 65.35 51.55 65.35 51.45
L 65.05 51.4 65.05 51
Q 65.05 50.75 64.85 50.8
L 64.55 50.4 64.35 50.05
Q 64.25 49.8 64.2 49.65
L 64.2 49.6 64.1 49.3 64 49.3
Q 63.9 49.35 63.75 48.95
L 63.7 48.8 63.55 48.8
Q 63.25 48.7 63.2 48.55
L 63.3 48.05 63.1 47.7 62.85 47.45 62.5 47.2 62.1 46.75
Q 61.95 46.45 62 46.2 62.0490234375 45.905859375 62.35 46
L 62.2 45.95 62.1 45.95 61.95 45.9 61.6 45.7
Q 61.65 45.6 61.85 45.6
L 61.75 45.4 61.75 45.35 61.7 45.35 61.7 45.3 61.65 45.3 61.6 45.25
Q 61.4 45.25 61.25 45.15 60.65 45.45 60.55 45.4
L 60.6 45.55 60.1 45.25 59.85 45.05 59.6 44.75 59.7 44.7 59.3 44.45 59.35 44.3 58.15 43.65 58.1 43.55 58 43.5 58 43.4 57.5 43 56.8 42.7 56.65 42.65 56.3 42.6 56.15 42.55 56.05 42.5 55.65 42.4 55.8 42.25
Q 55.65 42.15 55.55 42.25
L 55.5 42.3 55.3 42.3 55.25 42.25 55.3 42.05
Q 55 42.15 54.9 42
L 54.8 41.8
Q 54.75 41.65 54.65 41.65
L 54.7 41.8 54.7 41.95 54.65 41.9 54.6 41.9 54.25 41.75
Q 54 41.65 54 41.45 54 41.35 54.15 41.2
L 53.75 41.35 53.75 41.1
Q 53.55 41.2 53.4 41.1
L 53.25 41.05
Q 53.15 41 53 41.05 53 40.95 53 40.9 53.05 40.85 52.95 40.85
L 52.15 41.1 52.6 41 52.5 41.35 52.3 41.4 51.95 41.4 51.65 41.3 51.5 41.3 51.75 41.25 51.55 41.25 51.2 41.15
Q 51 41.05 50.85 41 51.15 41.2 50.85 41.25
L 50.8 41.25 50.75 41.15
Q 50.7 41.1 50.65 41.05 50.65 41.25 50.4 41.35
L 50 41.35 49.9 41.3 49.9 41.2
Q 49.75 41.35 49.65 41.25
L 49.7 41 49.4 41.25 49.25 41.25 49.1 41.3
Q 48.95 41.3 48.95 41.2
L 49.05 41.15 47.9 41.2
M 55.4 57.15
Q 54.85 57.15 54.65 56.55
L 54.9 56.45 54.9 56.65
Q 55.05 56.65 55.4 56.5 55.45 56.45 55.5 56.45
L 56.15 56.45
Q 56.15 56.5 56.05 56.55 56.3 56.45 56.65 56.55 57.1 56.65 57.15 56.65 57.15 56.55 57.2 56.5
L 57.25 56.45 57.35 56.45 57.35 56.5
Q 57.35 56.55 57.3 56.55 57.5 56.65 57.4 56.9
L 57.15 56.9
Q 57.25 56.95 57.35 57.05
L 57.5 57.05 57.5 56.9 57.85 56.55 58.15 56.55 58.1 56.6 58.3 56.45
Q 58.3 56.65 58.35 56.65 58.4 56.8 58.6 56.7 58.9 56.65 59 56.7 59.0958984375 56.669140625 59.25 56.7 59.35 56.75 59.6 56.8
L 59.6 56.85
Q 59.35 56.95 59.5 57.05 59.5 57.1 59.35 57.15 59.1 57.15 59.05 57.05 59.25 57.05 59.15 56.95 59.1 56.95 58.85 57.05 58.7 57.1 58.75 57.25 58.6 57.25 58.6 57.2 58.6 57.15 58.5 57.1 58.5 57.05 58.6 56.9
L 58 57
Q 58 57.05 58.15 57.15 58.3 57.25 58.15 57.4 58.15 57.5 58.1 57.55 58.05 57.65 57.9 57.65
L 58 57.55 57.75 57.5
Q 57.75 57.4 57.85 57.4
L 57.85 57.35
Q 57.7892578125 57.3892578125 57.75 57.35
L 57.75 57.3 57.55 57.3
Q 57.5 57.4 57.6 57.4 57.75 57.4 57.75 57.45
L 57.6 57.55
Q 57 57.65 56.9 57.4 56.75 57.3 56.75 57.4 56.75 57.5 56.75 57.6 56.65 57.65 56.55 57.65 56.45 57.55 56.4 57.6 56.4 57.75 56.3 57.9
L 56.1 57.85
Q 56.05 58 56.2 58 56.35 57.95 56.35 58 56.4 58.15 56.3 58.15 56.25 58.15 56.3 58.2 56.4 58.15 56.5 58.05 56.6 58 56.6 58.15 56.5 58.1 56.45 58.2 56.4 58.3 56.3 58.3
L 56.3 58.25
Q 56.2984375 58.3 56.2 58.3 56 58.35 56 58.4 55.85 58.25 56 58.2
L 56.1 58.05 55.9 58.15
Q 55.9 58.05 55.95 58 55.95 57.9 56 57.8 55.85 57.75 55.75 57.8 55.8 57.7 55.7 57.6 55.55 57.55 55.55 57.5 55.7 57.4 55.95 57.7 55.95 57.65 56.05 57.65 56.15 57.7 56.2 57.75
L 56.3 57.5
Q 56.2 57.55 56.15 57.55 56.05 57.55 56.05 57.4
L 55.9 57.5
Q 56.05 57.25 56.25 57.1 56.05 56.95 55.8 57.15 55.5 57.25 55.4 57.15
M 53.75 56.75
L 53.7 56.75 53.9 56.7
Q 53.9982421875 57.0439453125 53.9 56.95
L 54 57.05 53.8 57.1
Q 53.85 57.2 53.95 57.15 54 57.15 54.1 57.15 54.15 57.2 54 57.25 53.8 57.4 53.75 57.5 53.65 57.6 53.5 57.4 53.5 57.55 53.3 57.55 53.05 57.6 53.05 57.65 52.9 57.65 52.8 57.5 52.7 57.35 52.55 57.4
L 52.65 57.55
Q 52.3 57.6 52.05 57.55 52.05 57.45 52.15 57.5
L 52.25 57.5 52.15 57.3 52.25 57.25
Q 52.298828125 57.25 52.3 57.3
L 52.3 57.25
Q 52.3 57.15 52.25 57.2
L 52.35 57.05 52.3 57.05 52.45 57
Q 52.5 57.05 52.65 57.2 52.7 57.1 52.65 57.05 52.8 56.95 53 56.95 53.35 57.1 53.2 57.3 53.4 57.3 53.5 57.15 53.4 57.25 53.4 57.05 53.35 56.9 53.25 57.05 53.2 56.9 53.3 56.9 53.45 56.9 53.55 57 53.55 57.05 53.55 57.15 53.65 57.15 53.65 57 53.6 56.9 53.5 56.9
L 53.75 56.75
M 52.1 57.05
Q 52.05 57.25 51.95 57.2
L 51.95 57.1 52.1 57.05
M 51.8 56.55
L 51.8 56.45 51.95 56.45 51.4 57.15
Q 51.1 57.2 50.95 57.1
L 51 57.05
Q 51.5 57.1 51.45 56.9 51.4 56.8 51.05 56.45
L 51.4 56.45 51.8 56.55
M 50.65 57.05
Q 50.75 57.05 50.75 57.15 50.7 57.3 50.45 57.5 50.4 57.55 50.3 57.55 50.2 57.5 50.2 57.4 50.3 57.45 50.4 57.3 50.45 57.15 50.55 57.3 50.6 57.15 50.45 57.15
L 50.5 57.05 50.65 57.05
M 49.5 57.05
L 49.45 56.9 49.55 56.9 49.5 57.05
M 49.2 56.85
L 49.15 56.8 49.2 56.8 49.2 56.85
M 52.5 57.25
Q 52.65 57.35 52.8 57.3 52.65 57.25 52.65 57.2
L 52.5 57.25
M 53.55 57.25
Q 53.65 57.3 53.75 57.25 53.7 57.2 53.65 57.2 53.55 57.2 53.55 57.25
M 56.3 56.9
L 56.25 57.1 56.3 57.05
Q 56.45 57.05 56.45 57.15 56.45 57.3 56.65 57.25
L 56.6 57.3
Q 56.653515625 57.25 56.9 57.25 57 57.2 57.05 57.1 57 57.1 56.9 57.05 56.75 56.95 56.8 56.9 56.55 56.8 56.5 56.85 56.65 56.9 56.4 57.05
L 56.4 56.95
Q 56.4 56.9 56.35 56.9
L 56.3 56.9
M 57.2 57.2
L 57.25 57.2 57.35 57.15 57.35 57.05 57.3 57.15
Q 57.15 57.05 57.2 57.2 Z"/>
</g>
</defs>

<g transform="matrix( 1, 0, 0, 1, 0,0) ">
<use xlink:href="#Layer1_0_FILL"/>
</g>
</svg>
