
<svg xmlns="http://www.w3.org/2000/svg" version="1.1" xmlns:xlink="http://www.w3.org/1999/xlink" preserveAspectRatio="none" x="0px" y="0px" width="100px" height="100px" viewBox="0 0 100 100">
<defs>
<g id="Layer1_0_FILL">
<path fill="#000000" stroke="none" d="
M 48.25 45.15
L 48.2 45.15
Q 48 45.55 48 45.7 47.95 45.95 48.15 46.2 47.95 46.2 47.95 46.4 47.95 46.6 47.9 46.65
L 47.85 46.6
Q 48 46.8 47.8 47.05
L 47.65 47.25
Q 47.6 47.35 47.7 47.45
L 47.55 47.35
Q 47.65 47.8 47.35 47.75
L 47.2 48.5 47.2 48.85
Q 47.25 49.1 47.3 49.15
L 47.25 49.15
Q 47.4 49.3 47.35 49.4 47.25 49.45 47.3 49.55
L 47.25 49.55
Q 47.35 49.7 47.25 49.95 47.15 50.2 47.15 50.25
L 47 50.2 46.9 50.55 47 50.45
Q 47.15 50.5 47.15 50.55 47.1 50.6 47 50.65 46.7 50.75 46.8 50.95 46.75 51 46.85 51.15
L 47.05 51.45
Q 47.3 51.85 47.15 51.95 47.125 51.925 47.1 51.9 46.9 51.8 46.95 51.9 46.85 51.8 46.65 51.75 46.7 51.8 46.5 51.9 46.35 51.95 46.35 52.15
L 46.2 52.05
Q 46.25 52.2 46.2 52.3
L 45.85 52.5
Q 45.8 52.6 45.9 52.7 45.85 52.85 45.6 52.8 45.4 52.75 45.45 53
L 45.15 52.95
Q 45.1 52.95 45.25 53.1 45.3 53.2 45.2 53.2 45.15 53.15 45.05 53.15 45 53.2 44.9 53.1 44.8 53.1 44.7 53.25
L 44.65 53.45
Q 44.6 53.65 44.55 53.7
L 44.4 53.75 44.2 53.75
Q 44.3 53.9 44.25 54.05 44.2 54.15 44.25 54.3 44.2 54.25 44.05 54.3
L 43.95 54.3 43.9 54.15
Q 43.9 54.05 43.95 54.1
L 43.85 53.95
Q 43.6 53.9 43.6 54.1 43.55 54.4 43.5 54.45
L 43.6 54.45
Q 43.65 54.45 43.65 54.5
L 43.5 54.6 43.45 54.45 43.15 54.55 43.3 54.7
Q 43.1 54.6 43.05 54.6 42.9 54.55 42.9 54.75 42.9 54.8 43.05 54.9 43.1 54.95 43.05 55
L 42.25 55
Q 42.35 55.15 42.25 55.3
L 42.2 55.1
Q 42.1 55.3 42 55.05 41.95 54.95 41.9 54.95
L 41.85 54.95 41.8 55 41.85 55.3
Q 41.8 55.4 41.75 55.4
L 41.7 55.35 41.6 55.3
Q 41.55 55.35 41.5 55.5 41.55 55.45 41.6 55.7 41.6 55.9 41.5 55.85
L 41.5 55.7 41.4 55.8
Q 41.4 55.7 41.35 55.65 41.346875 55.55 41.25 55.55
L 41.3 55.35 41.15 55.7
Q 41.05 55.65 40.9 55.7 40.7 55.75 40.65 55.55
L 40.5 55.55
Q 40.35 55.55 40.3 55.75 40.3 55.7 40.25 55.55 40.18125 55.4470703125 40.15 55.4 40.1283203125 55.5072265625 40 55.55
L 39.95 55.6 39.9 55.6
Q 39.8 55.6 39.75 55.5
L 39.8 55.5 39.65 55.45 39.55 55.45 39.3 55.55 39.05 55.6 38.9 55.6 38.8 55.5
Q 38.8 55.65 38.75 55.7 38.65 55.75 38.65 55.9
L 38.55 55.95 38.4 55.9 38.2 55.8
Q 38.0109375 55.6865234375 37.85 55.95
L 37.6 55.9 37.55 55.8 37.25 55.8 36.95 55.75
Q 36.911328125 55.75 36.8 55.85
L 36.7 55.85 36.25 56.75 36.1 57.95 36.8 58.85 36.9 58.8 36.9 58.8 36.95 58.95
Q 37.2 58.8 37.3 58.95
L 37.3 59
Q 37.4 58.9 37.5 58.95
L 37.7 58.9 37.7 58.95 37.85 58.95 37.85 59.05
Q 38 58.95 38.25 58.95
L 38.45 58.95 38.65 59 38.65 58.8 38.95 58.9 39.5 58.8
Q 39.65 58.8 39.8 58.9
L 39.8 58.95 40 58.8 40.2 58.75 40.6 58.8
Q 40.9 58.9 40.95 58.85 41.15 58.85 41.35 58.6 41.35 58.65 41.35 58.7
L 41.45 58.8
Q 41.7 58.65 41.8 58.55 42 58.45 41.9 58.15 42.05 58.1 42.1 58.2 42.1390625 58.2 42.15 58.3 42.1478515625 58.1259765625 42.4 58
L 42.35 58.1 42.8 57.9 42.6 57.6
Q 42.75 57.6 42.8 57.75 42.9 57.9 43 57.8
L 42.9 57.55
Q 43.05 57.5 43.4 57.65 43.85 57.85 44 57.9
L 44.25 57.75 44.5 57.65 45.1 57.15 45.8 56.4 45.9 56.35 46.05 56.15 46.8 55.4 47.2 55.15 47.4 55.25
Q 47.55 55.3 47.55 55.25
L 47.5 55.05
Q 47.4 54.75 47.55 54.8
L 47.5 54.6
Q 47.65 54.6 47.7 54.65 47.75 54.6 47.7 54.4
L 48 54.4
Q 48.05 54.35 48.2 54.05
L 48.35 53.7 48.5 53.15 48.6 53
Q 48.8 52.9 48.85 52.8
L 49.15 52.35 49.3 51.85
Q 49.4 51.65 49.45 51.15
L 49.45 50.35 49.55 49.85 50 49.2
Q 50 49.25 50 49.3
L 50.55 48.95 50.4 49.25
Q 50.35 49.5 50.45 49.45
L 50.3 49.6
Q 50.15 49.85 50.3 49.9 50.45 49.9 50.45 49.95
L 50.3 50.15 50.25 50 50.2 50.2 50.05 50.45 50.1 50.4 50.1 50.45
Q 50.3 50.4 50.35 50.6
L 50.45 50.8
Q 50.5 50.9 50.45 51.15
L 50.7 51.15 50.65 51.35 50.45 51.4 50.1 50.65 50 50.7 50.25 51.05
Q 50.1515625 51.29609375 49.95 51.3
L 50.15 51.3 50.25 51.6 50.35 51.8 50.4 52.35 50.45 52.25 50.6 52.35
Q 50.6 52.45 50.5 52.5
L 50.6 52.7 50.6 52.8 50.65 52.85 50.65 53
Q 50.65 53.15 50.6 53.45
L 50.8 53.4
Q 50.8 53.45 50.75 53.55 50.7 53.65 50.85 53.6
L 51.05 53.65
Q 51.05 53.7 51.1 53.75 51.2 53.85 51.15 53.9 51.15 54.05 51.25 54 51.3 53.95 51.35 54.1 51.3 54.15 51.45 54.1 51.65 54.1 51.65 54.15
L 51.45 54.4
Q 51.45 54.6 51.6 54.6
L 51.75 54.65 51.8 54.75 51.9 54.8
Q 51.9 55.2 51.55 55.3
L 51.75 55.25 51.9 55.3
Q 51.85 55.35 51.7 55.4 51.7 55.5 51.8 55.5 51.9 55.45 51.95 55.5 52.4 55.25 52.45 55.25
L 52.45 55.2
Q 52.75 55.25 52.75 55.45
L 52.7 55.55 52.85 55.65 52.75 55.7 52.95 55.85 52.95 55.8 53.05 55.9
Q 53.15 56 53.15 56.05
L 53.1 56.1 53.2 56.3 53.3 56.4 53.4 56.4 53.85 56.65 53.75 56.7
Q 53.75 56.8 53.8 56.7 53.9 56.6 53.95 56.7
L 53.85 56.85 53.95 56.8 54 56.9
Q 54 56.95 53.95 57.1
L 54.05 56.9 54.2 57.05
Q 54.25 57.15 54.15 57.25 54.1 57.35 54 57.45
L 54.2 57.35 54.1 57.55
Q 54.25 57.45 54.25 57.55 54.3 57.6 54.35 57.6 54.35 57.7 54.3 57.75
L 54.7 57.65 54.45 57.7 54.65 57.45
Q 54.8 57.35 54.85 57.45 54.9 57.55 54.95 57.55
L 54.85 57.6
Q 55 57.6 55 57.7
L 55.1 57.85
Q 55.1 57.7 55.15 57.7 55.2 57.7 55.15 57.85 55.25 57.75 55.35 57.7 55.45 57.7 55.5 57.75
L 55.45 57.85
Q 55.55 57.75 55.6 57.85
L 55.45 58.05 55.65 57.9
Q 55.65 57.95 55.75 57.95 55.8 57.95 55.75 58
L 55.7 58.05 56.05 58.25 56.2 58.3 56.1 58.5
Q 56.15234375 58.40078125 56.3 58.45 56.4 58.55 56.45 58.4 56.5 58.5 56.65 58.5 56.8 58.55 56.7 58.75
L 56.9 58.75
Q 57.0236328125 58.85 57.15 58.85 57.2 58.9 57.5 58.8
L 57.6 58.8 57.9 58.75 58.1 58.8 58.3 58.95 58.3 58.9
Q 58.45 58.8 58.6 58.8
L 59.15 58.9 59.45 58.8 59.45 59 59.65 58.95 59.9 58.95
Q 59.9646484375 59.046875 60.05 59.1
L 60.05 58.95
Q 60.1658203125 58.9939453125 60.25 59.05
L 60.25 58.95 60.4 58.95 60.4 58.9 60.6 58.95
Q 60.7 58.9 60.8 59
L 60.8 58.95
Q 60.9 58.8 61.15 58.95
L 61.15 58.85 61.2 58.85 61.45 58.8
Q 61.6 58.75 61.65 58.75
L 61.7 58.75 61.8 58.8 62.5 57.9 62.35 56.7 61.9 55.8 61.25 55.85
Q 61.191015625 55.75 61.15 55.75
L 60.85 55.8 60.55 55.8 60.45 56
Q 60.4 56.15 60.3 56.15 60.198046875 55.8103515625 60.05 55.75
L 60.05 55.7 59.65 55.7 59.4 55.65 59.3 55.65
Q 59.3 55.5951171875 59.3 55.5
L 59.2 55.6 59.05 55.6 58.8 55.55 58.55 55.45 58.45 55.45 58.4 55.4
Q 58.35 55.35 58.15 55.25 58 55.1 57.95 55.05 57.75 55.2 57.4 55.1
L 57.15 55.05 56.95 54.9 56.9 54.9 56.85 54.85 56.8 54.85 56.8 54.8
Q 56.75 54.85 56.65 54.8
L 56.55 54.7 56.3 54.4 54.85 53.2 54.45 52.8 54.45 52.75 54.35 52.65 54.25 52.45
Q 53.9 51.95 53.8 51.5
L 53.8 51.25 53.7 50.95 53.6 50.85 53.15 50 53.15 49.85 53.1 49.75 53.1 49.7 53.05 49.4
Q 53.2 49.25 52.9 48.5
L 52.5 47.6 52.3 47.85 52.2 47.65 52.1 47.1
Q 52.05 46.7 51.9 46.45
L 51.95 46.45
Q 51.8484375 46.44765625 51.75 46.3
L 51.75 46.05 51.8 45.8 52 45.5 52 45.4 51.85 45.55
Q 51.65 45.45 51.6 45.35 51.6 45.3 51.75 45.25
L 51.65 45 51.8 44.85
Q 51.65 44.8 51.55 44.8 51.4 44.75 51.5 44.6 51.35 44.7 51.3 44.6 51.25 44.55 51.2 44.55
L 51.35 44.5
Q 51.2 44.1 51.05 44.05
L 50.8 44.35
Q 50.7 44.5 50.6 44.6 50.4 44.2 50 44.2 49.6 44.25 49.3 44.45
L 48.25 45.15 Z"/>
</g>
</defs>

<g transform="matrix( 1, 0, 0, 1, 0,0) ">
<use xlink:href="#Layer1_0_FILL"/>
</g>
</svg>
