
<svg xmlns="http://www.w3.org/2000/svg" version="1.1" xmlns:xlink="http://www.w3.org/1999/xlink" preserveAspectRatio="none" x="0px" y="0px" width="100px" height="100px" viewBox="0 0 100 100">
<defs>
<g id="Layer1_0_FILL">
<path fill="#000000" stroke="none" d="
M 31.9 40.85
Q 32.05 40.8 31.9 40.75
L 31.55 40.65 31.6 40.95 31.9 40.85
M 54.75 45.6
Q 54.85 45.5 54.85 45.3
L 54.5 45.85 54.75 45.6
M 57.9 41.35
L 57.7 41 57.55 41.35
Q 57.4 41.3 57.3 41.35
L 57.2 41.7
Q 56.75 42.05 56.4 43
L 56.65 42.85 52.95 49.2
Q 52.9 49.3 52.8 49.4 52 50.8 50.7 53 50.7 53.2 50.65 53.25
L 50.6 53.3
Q 50.5 53.4 50.35 53.55
L 50 54.2
Q 49.95 54.35 50.05 54.3
L 50.05 54.35 49.85 54.5 50 54.2 50 54.15 49.3 55.25 49.2 55.5
Q 48.9 56.1 48.7 56.2
L 48.6 56.4 48.6 56.45 47.7 57.8
Q 47.5 57.8 47.35 57.8
L 47.5 58.1 46.7 59.4 47.4 59.45
Q 47.8 59.45 48.25 59.45
L 48.4 59.7 48.55 59.5
Q 50.65 59.55 53.75 59.6 58.4 59.65 60.25 59.7 64.4 59.85 67.4 60.1 67.65 60.1 68.15 60.15
L 69.95 60.25 69.1 58.55
Q 68.95 58.25 66.05 53.05 64.25 49.75 63.3 47.3 62.85 46.25 61.7 44.25 61.05 43.15 59.95 41.35 58.95 40.25 58.35 40.65 57.9 40.95 57.9 41.35
M 56.65 42.75
Q 56.740234375 42.640234375 56.7 42.6
L 56.65 42.6
Q 56.8654296875 42.4275390625 57.05 42.15
L 56.65 42.75
M 46.8 59.35
L 47.05 58.95
Q 47.2 58.7 47.55 58.45 47.45 58.7 47.2 59
L 47.1 59.15 47.7 59.3
Q 47.5 59.4 47.35 59.4
L 46.8 59.35
M 50.1 40.15
L 49.55 40.4
Q 48.85 40.25 47.75 40.4 46.6 40.55 45.9 40.45 46.45 40.6 46.05 40.65 45.5 40.75 45.55 40.85 45.45 40.8 44.95 40.7 44.6 40.65 44.75 40.6 44.3 40.6 42.95 40.7 42 40.85 41.6 40.6
L 41.15 40.75
Q 40.65 40.85 40.05 40.75 39.4 40.65 39 40.65
L 38.9 40.8
Q 38.55 40.85 38 40.85 37.45 40.8 37.1 40.7 36.35 40.65 35.1 40.85 34.4 40.95 33.9 41 33.65 40.6 33.4 40.15
L 32.9 41.05 32.35 41.05
Q 32.25 40.95 32.1 40.9
L 32.05 41.05 31.9 41.05 32 41.15 31.9 41.3
Q 31.95 41.25 32.05 41.25
L 32.4 41.9
Q 32.25 41.85 31.75 41.1
L 31.6 41 31.7 41.3
Q 31.95 41.65 32.3 42.1
L 31.9 42.8 32.75 42.8
Q 33.1 43.4 33.55 44.15 34.45 45.7 35.05 46.45
L 35.3 46.9
Q 35.05 47.15 36.8 49.75
L 36.7 49.85
Q 37.2 50.9 37.95 51.9 39.45 54.35 39.8 55.35 40.2 56.45 41.15 57.6 41.65 58.3 42.15 58.75
L 42.35 59.1 42.4 59 42.45 59.05
Q 42.4 58.996875 42.4 58.95
L 43.8 56.6
Q 43.8 56.5 43.85 56.5
L 44.5 55.35 44.45 55.55
Q 44.65 55.3 44.65 55.45 44.65 55.5 44.6 55.75 44.2 56.25 44.15 56.55 44.05 57 43.95 57.25 43.9 57.35 43.7 57.55 43.6 57.65 43.6 57.55 43.6 57.6 43.05 58.5 42.65 59.15 42.8 59.25
L 42.7 59.3
Q 43.35 59.4 44.65 58.75 44.9 58.05 45.1 57.35 45.9 56.4 46.45 54.85 47.1 53.1 47.7 52.2 47.85 52 49.05 49.7 49.8 48.35 50.5 47.35 50.3 46.85 51.4 45.15 52.7 43.2 52.85 42.5 53.15 41.8 53.15 41.45 53.1 41.15 52.75 41.55
L 53.25 40.8 52.75 40.75
Q 52.45 40.7 51.95 40.6 51.6 40.5 51 40.6
L 51.4 40.3
Q 51 40.2 50.8 40.15 50.45 40.1 50.1 40.15
M 46 52.85
Q 45.8763671875 52.9943359375 45.75 53.2
L 46.4 52.05
Q 46.2 52.55 46 52.85
M 45.45 53.7
Q 45.436328125 53.8154296875 45.4 53.9 45.25 54.25 45.1 54.35
L 45.45 53.7 Z"/>
</g>
</defs>

<g transform="matrix( 1, 0, 0, 1, 0,0) ">
<use xlink:href="#Layer1_0_FILL"/>
</g>
</svg>
