
<svg xmlns="http://www.w3.org/2000/svg" version="1.1" xmlns:xlink="http://www.w3.org/1999/xlink" preserveAspectRatio="none" x="0px" y="0px" width="100px" height="100px" viewBox="0 0 100 100">
<defs>
<g id="Layer1_0_FILL">
<path fill="#000000" stroke="none" d="
M 42.55 36.9
L 42.6 35.9 42.35 38.2
Q 42.4 38.45 42.25 38.9
L 42.4 37.45 42.3 37.8 42.35 37.55
Q 42.3 37.7 42.3 37.4
L 42.2 38.1 42.25 38.3 42.1 38.7 42.2 38.6 42.25 38.7 42.15 39.4 42.1 39.05
Q 42.1 39.3 41.95 39.85
L 41.85 40.2 41.85 40.65 41.7 40.85 41.6 41.3
Q 40.878515625 41.3142578125 40.7 41.35 40.75 41.2 40.1 41.1
L 39.15 41.1 39.1 41 38.05 40.85 37.85 38.55
Q 37.85 37.85 37.7 37.25
L 37.55 36.35 37.65 37.8
Q 37.75 38.75 37.65 39.1 37.65 38.9 37.55 37.8
L 37.5 38.1 37.5 37.85
Q 37.45 38 37.4 37.7
L 37.35 38.55 37.4 38.35 37.5 38.55 37.45 39
Q 37.5 38.85 37.5 38.8
L 37.55 38.95 37.5 39.55 37.4 39.2
Q 37.45 39.45 37.35 39.95
L 37.3 40.3 37.3 40.7 37.25 40.75 33.8 40.3 34.55 40.45
Q 34.95 40.6 35.3 40.6 36.15 40.8 36.55 41 36.5 41 35.25 40.75
L 35.5 40.85 35.25 40.8
Q 35.4 40.9 35.15 40.85
L 36 41.15
Q 35.6 41 35.75 41
L 36 41 36.3 41.1 36.25 41.05
Q 36.2 41 36.35 41.05 36.5 41.1 36.95 41.2
L 36.6 41.2 37.1 41.35 37.05 41.95
Q 37.05 42.25 37.2 42.4
L 37.2 43 37.05 42.7 37.05 43
Q 37.1 43.2 37.15 43.25 37.1 43.6 37 44.1 37.05 44.25 37 44.7 37 45 37.1 45
L 37.05 45.3 35.95 45.35
Q 35.35 45.35 34.5 45.5
L 33.85 45.6 33.4 45.75 33.9 45.65 36.2 45.45 36.55 45.5 35.05 45.6 35.35 45.6 35.1 45.65
Q 35.25 45.65 34.95 45.75
L 35.9 45.75
Q 35.5 45.7 35.6 45.65
L 35.9 45.6 36.35 45.6
Q 36 45.55 36.35 45.55
L 36.95 45.55 36.6 45.65
Q 36.7669921875 45.65 37 45.65
L 36.95 47.2 37.1 47.5 37 48.05 37.05 48.25 37.05 48.5 37.15 49.5 37.1 49.45 37.25 49.9
Q 37.2080078125 50.151953125 37.25 50.55 37.116796875 50.5904296875 36.95 50.65
L 34.95 51
Q 34.15 51.1 33.6 51.3
L 32.7 51.55 34.9 51.15 35.6 51.15 34.2 51.4 34.5 51.4 34.25 51.45
Q 34.4 51.45 34.1 51.55
L 35.05 51.5
Q 34.75 51.5 34.75 51.45
L 35 51.35 35.35 51.35
Q 35.071875 51.34375 35.4 51.25
L 36 51.2 35.7 51.35
Q 36.05 51.25 36.45 51.35
L 36.85 51.35 37.25 51.3 37.3 51.35
Q 37.3228515625 51.458203125 37.3 51.55 37.2 52.45 37.7 52.95 37.85 53.2 37.75 53.6
L 37.65 54.2 37.55 53.95 37.45 54.25
Q 37.5 54.75 37.5 55.4 37.4734375 55.6919921875 37.5 55.9
L 32.1 56.2 33 56.2
Q 33.6 56.2 33.85 56.15
L 34.65 56.15 35.4 56.25
Q 34.5 56.3 33.8 56.3
L 34.15 56.35 33.85 56.35
Q 34 56.4 33.7 56.45
L 34.7 56.55
Q 34.15 56.45 34.45 56.45
L 34.7 56.4 35.2 56.45
Q 35 56.4 34.95 56.4
L 35.1 56.35 35.85 56.4 35.45 56.5
Q 35.8 56.45 36.3 56.55
L 36.75 56.65 37.2 56.65 37.45 56.8 37.9 56.85 37.7 57.4 37.8 57.4
Q 37.95 57.7 37.95 57.95 37.95 58.15 37.9 59
L 38.05 58.95
Q 37.9 59.2 38 59.45 38.1 59.75 38.05 60.05
L 38 60.1 34.55 59.65 37.4 60.35 36.95 60.25 36 60.15 36.3 60.25 36.05 60.2
Q 36.2 60.25 35.9 60.25
L 36.8 60.5 36.55 60.4 36.75 60.4 37.25 60.5
Q 37.1 60.45 37.05 60.45 37 60.4 37.2 60.4
L 37.85 60.55 37.45 60.6 37.85 60.65 37.95 60.7
Q 37.85 61.2 38 61.55 37.85 62.1 38.05 62.65
L 38.1 63.2 34.5 62.5 37.15 63.3 35.9 63.05
Q 35.95 63.1 35.85 63.1
L 35.75 63.1 36.45 63.4
Q 36.3 63.3 36.35 63.3 36.35 63.25 36.55 63.3
L 37 63.4
Q 36.9330078125 63.3330078125 36.9 63.3
L 37.55 63.5 37.2 63.5 38.1 63.8 38.05 64.6 38.05 64.5 37.9 64.7 38 64.7 37.95 65.65 38.05 66.3 38.05 65 38.1 65.25
Q 38.1 65.1 38.15 65.15 38.15 65.2 38.15 65.3
L 38.15 66.1
Q 38.1 66.2 38.1 66.3
L 38.05 67.3 38.3 66.55 38.55 65.1 38.6 64.45
Q 38.6 64.15703125 38.6 63.9
L 38.65 63.9 38.75 64.1 39.25 64.2 39.2 64.2 40.15 64.4 40.25 64.35
Q 40.85 64.45 40.9 64.45
L 40.55 64.5 40.8 64.6
Q 40.7 64.55 40.9 64.55 41.1 64.6 41.15 64.55 41.6 64.65 42 64.8 42.7142578125 65.01015625 42.85 64.95
L 42.85 65.1
Q 42.85 65.35 42.8 65.45
L 42.8 65.35 42.75 65.55 42.8 65.6 42.6 67.25 42.75 66.05
Q 42.815625 65.965625 42.85 66 42.8 66.1 42.8 66.15
L 42.7 67
Q 42.7 67.15 42.65 67.25
L 42.55 68.25 42.55 68.3 43.15 65.55 43.2 65.45 43.15 65.35 43.2 65.35 43.2 64.95 45.15 65.3 45.45 65.2 47.6 65.35 47.5 65.4 48 65.35 48 66.1
Q 48 66.4 47.9 66.45
L 47.9 66.35 47.8 66.5 47.85 66.55 47.8 67.05 47.7 67.5 47.75 68.2 47.9 66.85 47.9 67.1
Q 47.95 66.85 47.95 67.15
L 47.85 68
Q 47.85 68.1 47.8 68.2
L 47.6 69.15 47.6 69.2 47.7 68.95 47.95 68.5 48 68.3 48.05 68.2 48.05 68.1 48.35 67 48.5 65.35
Q 48.6859375 65.38046875 48.9 65.4 49.4 65.35 49.75 65.5 50.15 65.55 50.75 65.5
L 51.4 65.25 52.65 65.45 52.35 65.5 52.6 65.55
Q 52.9228515625 65.55 53.25 65.55
L 53.25 65.85
Q 53.25 66.15 53.2 66.15
L 53.2 66.1 53.05 66.25 53.15 66.3
Q 53.1 66.55 53.05 67.2
L 53.1 67.9 53.2 66.6 53.2 66.85
Q 53.25 66.55 53.25 66.85
L 53.25 67.7 53.15 67.9 53.05 68.85 53.05 68.9 53.4 68 53.4 67.9 53.45 67.8 53.75 66.05 53.75 65.55
Q 53.836328125 65.55 53.9 65.55 54.5 65.6 54.8 65.45 54.95 65.4 55.2 65.2
L 56.05 65.45 56.1 65.4 56.45 65.25 56.6 65.25 56.6 65.3 56.65 65.25 57.8 65.25 57.8 65.1
Q 58.05 65.25 58.35 65.15
L 59 65.05 59.5 65.05 59.65 65.55 59.75 66.15 59.75 66.5 59.7 66.4 59.6 66.6 59.7 66.6 59.85 67.55 60.05 68.2 59.8 66.9 59.9 67.15
Q 59.85 66.95 59.9 67 59.95 67.1 59.95 67.15 60 67.75 60.1 68
L 60.1 68.2 60.25 69.15 60.25 69.2 60.35 68.45 60.25 66.2 60.1 65.55 60.05 65.1
Q 60.4263671875 65.15 60.6 65.15 61.15 65.2 61.8 65.1 62.55 65 62.9 65.05 63.2 65.1 63.5 65
L 63.8 65.05
Q 63.8244140625 65.141796875 63.95 65.1
L 63.95 65.1
Q 64.0146484375 65.3513671875 64.1 65.65 64.3 66.35 64.3 66.7 64.25 67 64.35 67.35
L 64.3 67.65 64.3 67.55 64.2 67.75 64.25 67.8 64.3 68.3 64.25 68.75
Q 64.3921875 69.129296875 64.4 69.4
L 64.4 68.95
Q 64.25 68.45 64.35 68.1
L 64.4 68.35
Q 64.4 68.15 64.45 68.25 64.45 68.3 64.45 68.4
L 64.5 69.25
Q 64.5 69.35 64.5 69.45
L 64.5 70.45 64.7 69.7 64.85 68.15 64.75 65.05 64.95 65.05 65.7 64.9 65.15 65 64.75 65 64.75 64.9 65.5 64.85
Q 65.6 64.85 65.75 64.85
L 66.7 64.8 64.75 64.7 64.75 63.05
Q 64.5 62.85 64.5 61.8
L 64.55 60.95 64.5 60.55 64.45 60.4 64.4 60.3 64.4 60.25 64.35 60.25
Q 64.3068359375 59.9041015625 64.2 59.75
L 65.05 59.7 65.75 59.55 65.2 59.6
Q 64.6 59.7 64.4 59.65
L 64.65 59.6 64.5 59.6
Q 64.55 59.55 64.65 59.55 65.25 59.55 65.5 59.5 65.6 59.5 65.75 59.5
L 66.3 59.5 66.65 59.45 66.7 59.45 66 59.3 65.25 59.25
Q 64.95 59.2 64.4 59.2
L 64 59.2
Q 64.0435546875 58.98046875 63.95 58.7
L 64.2 58.9
Q 64.35 58.4 64.25 58.2
L 64 57.95
Q 64.1 57.5 63.95 57 63.75 56.5 63.8 56.05 63.75 56.35 63.65 56.15 63.55 55.9 63.45 55.9 63.5 55.85 63.55 55.6 63.6 55.4 63.65 55.5 63.65 55.4048828125 63.6 55.25
L 64.95 55.1 65.35 55.15 65.25 55.15 65.45 55.25 65.45 55.2 66.55 55.2 67.35 55.05 66.1 55.1 65.95 55.05 66.15 55
Q 66.4 55 67.1 54.95 67.2 55 67.35 55
L 68.45 55 67.6 54.8
Q 67.3 54.75 66.75 54.75
L 65.15 54.6 64.35 54.65
Q 63.764453125 54.65 63.45 54.6 63.4576171875 54.5765625 63.45 54.55 63.3 54.1 63.45 53.85
L 63.35 53.6
Q 63.25 53.4 63.25 53.05 63.3 52.7 63.3 52.5
L 63.15 52.45
Q 62.9 51.95 63.1 51.55 63.1 51.07421875 62.65 49.85
L 63.25 49.85 63.95 49.7 62.6 49.8 62.6 49.75 62.8 49.75 62.7 49.75
Q 62.75 49.7 62.85 49.7 63.45 49.7 63.7 49.65 63.8 49.65 63.95 49.65
L 64.8 49.65
Q 64.634375 49.64375 64.15 49.45
L 62.5 49.35
Q 62.53046875 49.0369140625 62.4 48.95 62.15 48.75 62.1 48.5
L 62 47.8
Q 61.9 47.35 62 47.2 62.05 47.5 62.2 47.75 62.4 48.05 62.4 48.35 62.45 48.25 62.6 48.65 62.7 49 62.75 48.75 62.55 48.25 62.35 47.05 62.2 46.05 61.9 45.4 62.144140625 45.4 61.95 44.7 62.33046875 44.691015625 63 44.55 63.7 44.45 64.15 44.45 64.2 44.45 64.8 44.4
L 65.15 44.45 65.1 44.45 65.25 44.55 65.25 44.5 65.8 44.55
Q 65.95 44.5 66.3 44.55
L 67.05 44.45 66.45 44.45 66.45 44.5 65.65 44.5 65.9 44.45 65.8 44.4 65.95 44.4
Q 66.55 44.45 66.85 44.4
L 68.05 44.5 65.8 44.1 61.85 44.15 61.7 43.7 61.75 43.7 61.7 43.15 61.2 41.4 61.6 41.4 61.95 41.45 61.85 41.45 62 41.6 62 41.5 62.95 41.55 63.6 41.45 62.35 41.45 62.55 41.4 62.5 41.4
Q 62.5 41.35 62.6 41.35 62.95 41.4 63.05 41.35
L 63.45 41.35
Q 63.5 41.4 63.65 41.4
L 64.2 41.45 64.5 41.55 64.6 41.55 64.35 41.45 63.9 41.2 62.4 40.95 61.75 40.95
Q 61.3658203125 40.95 61.05 40.95
L 60.5 38.6 60.35 38.25 60.7 39.75
Q 60.909765625 40.4634765625 60.9 40.9
L 60.85 40.9 60.6 39.75 60.6 40.05 60.55 39.8
Q 60.55 39.9 60.5 39.8
L 60.45 39.7 60.5 40.6 60.55 40.35 60.65 40.55 60.7 40.9
Q 60.423828125 40.920703125 60.3 40.9
L 57.55 40.8
Q 57.45 40.95 57.1 40.95 56.9 41 56.4 40.9 55.8119140625 40.8509765625 55.45 40.85
L 54.75 37.45 55.1 39.65 55.05 40.3
Q 55.05 39.9 54.85 38.95
L 54.85 39.25 54.8 39
Q 54.8 39.15 54.7 38.85
L 54.75 39.8
Q 54.75 39.5 54.8 39.5
L 54.9 40.2
Q 54.9 39.8 54.95 40.15
L 55 40.75 54.85 40.4 54.85 40.95
Q 54.5466796875 41.0033203125 54.4 41.15 54.25 41.3 54.55 41.35 54.2 41.35 53.95 41.25 53.75 41.15 53.45 41.2
L 53.65 40.95
Q 53.2 40.8 53.05 40.85
L 52.75 41.05
Q 52.4 40.9 51.85 41 51.25 41.15 50.95 41.05 51.2 41.15 51.05 41.2 50.8654296875 41.273828125 50.8 41.3
L 50.1 38.75 49.7 37.9 50.35 40 50.4 40.6
Q 50.3 40.05 50 39.35
L 50.05 39.65 50 39.4
Q 49.95 39.5 49.95 39.4
L 49.85 39.25 50 40.15 50 39.9 50.1 40.05 50.2 40.5 50.2 40.35 50.25 40.45 50.35 41.05 50.2 40.75 50.25 41.15
Q 50.022265625 41.1697265625 49.5 41.25 49.05 41.3 48.85 41.15
L 48.6 41.25
Q 48.5 41.3 47.55 41.15
L 47.5 41.25
Q 47.2474609375 41.3447265625 46.95 41.3
L 46.8 39.55
Q 46.8 38.85 46.65 38.25
L 46.5 37.3 46.6 38.8
Q 46.7 39.75 46.6 40.15 46.6 39.9 46.5 38.8
L 46.45 39.1 46.45 38.85
Q 46.4 39 46.35 38.7
L 46.3 39.6 46.35 39.35 46.45 39.55 46.4 40 46.45 39.85 46.5 39.95 46.5 40.6 46.35 40.25 46.35 41 46.3 41.2
Q 45.7419921875 41.264453125 44.6 41.55 44.25 41.45 44.1 41.6 43.9 41.8 43.65 41.8
L 42.95 41.8 42.4 41.7
Q 42.65 41.7 42.95 41.55 43.25 41.45 43.55 41.45
L 43.9 41.35
Q 43.95 41.35 44.1 41.3 44.15 41.25 43.95 41.2
L 42.3 41.3
Q 42.35 40.7458984375 42.35 40.35
L 42.5 38.25
Q 42.55 37.9 42.55 36.9
M 46.05 42.7
L 46.05 43.1
Q 46.05 43.4 46.2 43.55
L 46.2 44.15 46.05 43.85 46.05 44.15
Q 46.1 44.4 46.15 44.45 46.1 45.1 46.05 45.3 46.05 45.3904296875 46.05 45.85 45.65 45.95 45.45 45.95 45 45.95 44.85 46
L 44.7 46.1 44.35 46.15 44 46.1 43.6 46.15
Q 43.2 46.15 43 46.05
L 43.6 45.95
Q 43.9 45.85 44.3 45.95 44.25 45.9 44.65 45.8 45.1 45.8 44.85 45.7 44.1 45.85 42.95 45.75 42.45546875 45.719921875 42.1 45.7 42.0814453125 45.369921875 42.1 45 42.1 43.8 42.1 43.35 42.25 43.4 42.2 42.65
L 42.2 42.55
Q 42.32109375 42.5578125 42.35 42.5
L 44.55 42.8 44.85 42.65 45.4 42.75 46.05 42.7
M 47.3 42.6
Q 47.55 42.65 48.05 42.55 48.5 42.5 48.9 42.6
L 49.45 42.65 49.85 42.55
Q 50.140625 42.4046875 50.3 42.2
L 50.35 42.25 50.25 42.45 50.3 42.95 50.25 42.9 50.25 43.5
Q 50.35 43.8 50.5 43.9 50.5 44.15 50.55 44.5
L 50.4 44.25 50.4 44.5 50.55 44.8 50.55 45.3
Q 50.408984375 45.308984375 50.35 45.25
L 50.05 45.4
Q 49.75 45.45 49.45 45.45 49.05 45.45 48.9 45.45
L 48.8 45.55
Q 48.25 45.7 47.8 45.55
L 47.25 45.65 47.1 44.45
Q 47.45 44.5 47.05 42.8
L 47.1 42.75
Q 47.1 42.708203125 47.1 42.65
L 47.3 42.6
M 41.4 43.1
Q 41.403125 43.009375 41.45 43.15 41.4 43.4 41.45 43.4
L 41.25 44.95
Q 41.2 45.3 41.25 45.3
L 41.2 45.7 41.15 45.7
Q 41.25 45.55 40.55 45.45
L 39.45 45.4 39.45 45.3
Q 38.8271484375 45.2583984375 38.3 45.25 38.3 45.1001953125 38.3 44.9 38.2 43.75 38.05 43.3 38.2984375 43.349609375 38.1 41.7
L 38.2 41.85 38.7 41.95 38.65 42 39.25 42.15
Q 39.5 42.2 39.7 42.05
L 40.3 42.15 40 42.25 40.3 42.35
Q 40.2 42.3 40.35 42.3 40.55 42.25 40.6 42.25
L 41.45 42.5
Q 41.487890625 42.5 41.55 42.5
L 41.45 43.1 41.4 42.85 41.4 43.1
M 40.55 46.4
Q 40.8 46.4 40.9 46.4 41.0041015625 46.4 41.15 46.4
L 41.05 47.7 41.2 48
Q 41.1 48.55 41.2 49.05 41.2 49.3677734375 41.25 49.95 40.4279296875 50.077734375 39.85 50.3 39.9 50.1 39.2 50.2
L 38.65 50.3
Q 38.690234375 50.2322265625 38.7 50.15
L 38.6 50.1
Q 38.4 49.6 38.65 49.2 38.65 49 38.2 47.2 38.25 46.85 38.15 46.7 37.95 46.45 37.9 46.25 37.863671875 46.0076171875 37.85 45.8
L 38.15 45.85 38.2 45.9
Q 38.219921875 46.00078125 38.2 46.1 38.25 46 38.35 46.45 38.45 46.8 38.5 46.55 38.4236328125 46.3017578125 38.35 46
L 38.9 46.05 38.8 46.05 39.45 46.2
Q 39.8 46.25 40 46.15
L 40.35 46.2 40.45 46.25 40.5 46.25 40.6 46.3 40.45 46.3 40.4 46.25 40.4 46.3 40.3 46.3 40.45 46.4 40.45 46.35 40.55 46.4
M 41.8 45.7
Q 41.7666015625 45.3251953125 41.85 45.2 41.85 45.4275390625 41.9 45.7 41.8529296875 45.6966796875 41.8 45.7
M 42.2 46.7
Q 42.7142578125 46.7576171875 42.75 46.65
L 45.2 46.85 45.6 46.8 46.05 46.8 46.05 48.5 46.2 48.8 46.15 48.95 46.15 49.4
Q 46.09765625 49.4203125 46.05 49.4
L 45 49.55 44.7 49.65 44.45 49.7 43.9 49.9
Q 43.5 49.85 43.4 50 43.2 50.2 42.95 50.25 42.5654296875 50.326953125 42.3 50.35
L 42.25 50.1
Q 42.5 49.9 42.85 49.95 42.75 49.9 43.1 49.8 43.5 49.65 43.2 49.6 43.0259765625 49.66953125 42.25 49.8
L 42.3 49.55
Q 42.3 49.1 42.2 48.5 42 47.75 41.95 47.45 42 47.3 41.95 46.95 41.8216796875 46.8216796875 41.8 46.6 41.966796875 46.6521484375 42.1 46.65 42.1513671875 47.04140625 42.2 46.75
L 42.2 46.7
M 50.25 46.4
Q 50.3912109375 46.4 50.55 46.35 50.587890625 46.5 50.65 46.5
L 50.6 48.65 50.75 48.95
Q 50.741015625 49.068359375 50.7 49.15 50.6623046875 49.165625 50.6 49.15 50.709375 49.19375 50.7 49.2
L 50.7 49.25 50.65 49.3
Q 50.4 49.35 50.4 49.45
L 50.2 49.35 50.1 49.35
Q 49.85 49.25 50 49.25 49.75 49.2 49.1 49.35 48.55 49.4 48.35 49.25
L 48.1 49.35
Q 47.9697265625 49.4150390625 47.55 49.35
L 47.3 48.45
Q 47.35 48.1 47.2 47.95 47 47.75 46.95 47.5 46.88984375 47.0990234375 46.85 46.8
L 47.1 46.75 47.15 46.8
Q 47.3 47.1 47.3 47.4 47.35 47.3 47.45 47.7 47.5 48.1 47.6 47.8 47.4576171875 47.4439453125 47.35 46.7
L 47.55 46.7 47.75 46.7 47.9 46.65 47.8 46.7 48.4 46.55
Q 48.7 46.6 49.25 46.45 49.8 46.35 50.25 46.4
M 57.4 41.7
L 58.05 41.75
Q 58.55 41.85 58.9 41.7 59.15 41.75 60 41.6 60.3580078125 41.492578125 60.7 41.45
L 60.75 42.4 60.85 42.8 60.7 43 60.75 43.55 60.7 43.5 60.75 44.1 60.35 44.1
Q 60.25 44.25 59.8 44.3
L 59 44.4
Q 57.75 44.35 57.3 44.5 56.85 44.55 56.7 44.65 56.5 44.8 56.8 44.85 56.4 44.9 56.15 44.85 56.0994140625 44.824609375 56.05 44.8 55.99375 44.6875 55.95 44.6 56.2 44.6 55.8 42.95
L 55.85 42.9 55.65 41.9
Q 55.91328125 41.9 56.35 41.9
L 56.3 41.75
Q 56.55 41.85 56.8 41.8
L 57.4 41.7
M 51.35 42.35
L 51.6 42.5 52.8 42.4
Q 53.3 42.45 53.55 42.25
L 53.95 41.9 54.8 42.15 54.8 42.1
Q 54.839453125 42.068359375 54.85 42.05
L 54.8 42.2 54.85 42.7 54.75 42.65 54.8 43.3
Q 54.85 43.7 55 43.75 55 44 55.05 44.4
L 54.9 44.1 54.9 44.4
Q 55 44.6 55.05 44.65
L 55.05 44.65 54.85 44.8
Q 54.45 44.75 53.8 44.85 53.2 45 52.75 45.05 53.05 45.05 52.85 45.15 52.5 45.2 52.5 45.25 52.4 45.2 52.05 45.2 51.9326171875 45.170703125 51.6 45.2
L 51.45 44.7
Q 51.7 44.7 51.5 44.05
L 51.4 43.5 51.25 43.1 51.3 43.05 51.05 42.15 51.6 42.25 51.35 42.35
M 55.05 45.75
Q 55.05 45.9443359375 55.05 46.2 55.1 46.5 55.2 46.5
L 55.35 48.75 55.45 49 54.75 49.1
Q 54.4 49.15 54.25 49.3 54.1 49.45 54.4 49.5 54.05 49.5 53.75 49.4 53.55 49.3 53.25 49.35
L 53.45 49.15
Q 52.85 49 52.8 49
L 52.45 49.2
Q 52.2736328125 49.1119140625 52 49.1 51.93828125 48.87265625 51.85 48.6 51.9 48.25 51.75 48.1 51.55 47.95 51.5 47.7 51.35 46.7 51.45 46.45 51.5 46.65 51.7 47 51.85 47.25 51.85 47.55
L 52 47.85
Q 52.1 48.25 52.15 47.95
L 52 47.55 51.75 46.05
Q 51.84296875 45.99765625 51.9 45.95
L 53.3 45.9 53 46 53.35 46.05 54.55 45.85 54.55 45.9 54.65 45.85 54.7 45.8
Q 54.88359375 45.8 55.05 45.75
M 58.8 45
Q 59.1 45.1 59.35 44.95
L 60.85 44.85 60.9 44.9 61 44.85
Q 61.0318359375 45.104296875 61 45.2
L 60.85 44.9 60.85 45.2 61 45.5 61 46 60.95 46.35
Q 61.05 46.55 61.05 46.95 61.05 47.3 61.15 47.3
L 61.25 49.25 57.55 49.05
Q 57.43984375 49.2703125 56.85 49.2 56.7349609375 48.9373046875 56.6 48.6 56.6 48.2 56.45 48.1 56.2 47.95 56.15 47.7 55.9 46.65 56 46.4 56.05 46.65 56.25 46.95 56.45 47.2 56.45 47.5 56.5 47.4 56.65 47.85 56.75 48.2 56.8 47.9 56.5 47.2 56.35 46.2 56.26875 45.7126953125 56.2 45.35
L 57 45.4
Q 57.35 45.2 57.6 45.2 57.8 45.2 58.8 45.1
L 58.8 45
M 60.8 41.45
L 60.85 41.55 60.8 41.45 60.8 41.45
M 37.8 45.3
Q 37.8416015625 45.0974609375 37.9 45 37.9 45.1419921875 37.95 45.3
L 37.8 45.3
M 38.7 52.1
Q 38.6 51.65 38.75 51.45
L 38.7 51.4
Q 38.8998046875 51.3501953125 39 51.25
L 39.1 51.2 39.65 51.2 39.35 51.35 39.65 51.35
Q 39.85 51.25 39.9 51.2
L 40.45 51.2 40.75 51.3
Q 40.95 51.25 41.4 51.25
L 41.45 51.25 41.45 51.3
Q 41.55 51.65 41.5 52.25
L 41.5 52.75 41.6 53.1
Q 41.75 53.4 41.9 53.55 42 53.8 42 54.2
L 42 54.85 41.85 54.6 41.85 54.9
Q 41.8884765625 55.2837890625 41.95 55.8
L 40.25 55.95
Q 40.371875 55.7470703125 39.05 55.85 39.1 55.736328125 39.1 55.65
L 38.85 55.4
Q 39 55 38.9 54.5 38.8 53.9 38.85 53.55 38.75 53.8 38.7 53.65 38.65 53.4 38.55 53.4 38.65 53.3 38.75 53 38.8 52.75 38.7 52.1
M 39.9 57
Q 40.15 56.95 40.2 56.9 40.9 56.95 41.2 57.05 41.4 57 41.9 57.05 42.1544921875 57.05 42.25 56.95
L 42.45 57.2 42.4 58.05 42.5 58.3 42.55 58.3 42.6 58.6 42.65 59.65 42.75 59.55
Q 42.7 59.8 42.75 60.1 42.80390625 60.2615234375 42.8 60.4 42.1525390625 60.4294921875 41.8 60.5 41.8 60.3 41.15 60.3
L 40.15 60.3 40.1 60.25
Q 39.6783203125 60.203125 38.95 60.25 38.8 60.2 38.8 59.8
L 39 58.25
Q 39.05 57.95 38.95 57.6 38.9 57.2 38.75 57.05 38.65 56.9 38.55 57.2 38.55 57.0576171875 38.55 56.95
L 38.7 56.95
Q 39 56.95 39.15 56.8
L 39.9 56.85 39.55 56.95 39.9 57
M 38.9 60.9
L 39 60.95 39.15 61.15 39.75 61.2 39.65 61.25 40 61.3 40.15 61.35 40.3 61.35
Q 40.5 61.4 40.75 61.25
L 41.4 61.35 41.05 61.4 41.35 61.5
Q 41.6 61.45 41.65 61.4 42.25 61.5 42.55 61.65 42.6892578125 61.6732421875 42.8 61.7
L 42.8 61.85 42.85 62.25
Q 42.85 62.7 42.9 63.4
L 42.95 63.9 42.95 63.9
Q 41.81796875 63.8541015625 41.45 63.9 41.55 63.8 40.9 63.65
L 39.85 63.6 39.85 63.55 38.65 63.3
Q 38.675390625 63.1474609375 38.7 63
L 38.9 60.9
M 61.2 49.8
L 61.35 49.8 61.4 49.85 61.4 50.45 61.45 50.7 61.45 50.9 61.7 52 61.6 51.9 61.8 52.4
Q 61.8 52.7 61.9 53.2 62.05 53.65 62 54.1
L 62.05 54.55 60.2 54.55
Q 60.1 54.7 59.65 54.75 59.15 54.75 58.8 54.7 58.35 54.6654296875 58 54.65
L 58 54.65
Q 58 54.4 58.05 54.5 58.05 54.3 57.8 53.65 57.65 53.15 57.8 52.9
L 57.65 52.7
Q 57.55 52.5 57.55 51.6
L 57.4 51.55
Q 57.15 51.05 57.3 50.65 57.3 50.4970703125 57.1 49.95
L 57.35 49.95 58.55 50.1 58.95 50
Q 59.45 50.05 60.1 49.95
L 61.2 49.8
M 62.45 55.35
L 62.6 55.55
Q 62.7 55.75 62.7 56.2
L 62.65 56.85 62.55 56.6 62.45 56.9
Q 62.65 57.95 62.7 58.15 62.7 58.7 62.95 58.95
L 63.25 59.25 62.85 59.25 62.65 59.3 59.4 59.3
Q 59.3541015625 59.391796875 59.2 59.45 59.16875 59.2359375 59.1 59.15 59 58.75 58.85 58.65 58.7 58.5 58.65 58.8 58.6 58.5 58.65 58.2 58.7 58 58.6 57.7
L 58.85 57.85 58.85 57.15 58.6 56.9
Q 58.65 56.45 58.45 56 58.39140625 55.85390625 58.35 55.7 58.530859375 55.7109375 58.75 55.7
L 58.7 55.55
Q 58.95 55.65 59.3 55.55
L 60 55.45 60.8 55.5
Q 61.5 55.5 61.75 55.4 62.0005859375 55.43125 62.45 55.35
M 63.2 59.7
L 63.15 60.2 63.2 60.2 63.3 60.35 63.35 60.35 63.35 60.4 63.4 60.5 63.45 60.75 63.5 61.85 63.65 61.75
Q 63.6 62 63.7 62.3
L 63.85 62.9 63.8 63.65
Q 63.8 64.15 63.95 64.5 63.9416015625 64.5751953125 63.95 64.65
L 60.85 64.5
Q 60.3701171875 64.5 60 64.45
L 59.75 61.85
Q 59.55 61.8 59.45 61.45
L 59.4 60.7
Q 59.38125 60.456640625 59.35 60.25
L 59.95 60.25
Q 60.45 60.35 60.8 60.15 61.3 60.15 61.95 59.95 62.65 59.75 63.05 59.75
L 63.2 59.7
M 63.95 59.75
L 63.95 59.75
Q 63.95625 59.8125 63.95 59.85 63.94375 59.805859375 63.95 59.75
M 63.95 59.65
L 64 59.7 63.95 59.7 63.95 59.65
M 56.05 51.55
Q 56.05 51.85 56.2 52.35 56.4 52.85 56.35 53.25
L 56.4 53.8 56.6 54.2
Q 56.75 54.5 57 54.65 57.0400390625 54.703515625 57.05 54.75 57.0330078125 54.7869140625 57 54.8 56.6 54.85 56.45 55 56.3 55.15 56.6 55.2 56.25 55.25 55.9 55.1 55.7 55 55.35 55.1
L 55.55 54.9
Q 54.85 54.75 54.8 54.75
L 54.5 55
Q 54.05 54.9 53.45 55 53.1677734375 55.0498046875 52.95 55.05 52.944921875 55.03515625 52.95 55 52.9419921875 55.04765625 52.9 55.05 52.8841796875 55.2681640625 52.8 55.1 52.7 54.85 52.65 54.85
L 52.7 54.55
Q 52.75 54.35 52.8 54.45 52.8 54.2 52.6 53.55 52.5 53.1 52.65 52.9
L 52.5 52.65
Q 52.4 52.45 52.45 52.15
L 52.5 51.6 52.4 51.55
Q 52.2 51.05 52.35 50.65 52.355859375 50.6095703125 52.35 50.55 52.4255859375 50.55 52.5 50.55 53.05 50.6 53.35 50.4 53.5 50.3 53.75 50.1
L 54.65 50.35 54.65 50.25
Q 54.85 50.1 55.15 50.1
L 55.65 50.1 55.9 51.15 55.8 51.1 56.05 51.55
M 51.05 51.45
Q 51 51.75 51.15 52.25 51.25 52.7 51.2 53.1 51.15 53.6 51.35 54 51.5 54.3 51.75 54.5 51.85 54.75 51.85 55.15 51.85 55.227734375 51.85 55.3 51.564453125 55.2677734375 51.7 55.2 51.45 55.2 50.65 55.35 50.1 55.45 49.85 55.25
L 49.6 55.4
Q 49.35 55.5 48.95 55.45 48.45 55.35 48.35 55.35
L 48.3 55.45
Q 48.2546875 55.4650390625 48.2 55.45 48.1705078125 55.1681640625 48.2 55.05 48.1 55.35 48.05 55.15 47.95 54.85 47.9 54.9
L 48.05 54.45
Q 48.05 54.2 47.95 53.55 47.85 53.1 48 52.85
L 47.85 52.6
Q 47.8 52.45 47.9 51.5
L 47.75 51.5
Q 47.6291015625 50.976171875 47.7 50.65 48.09609375 50.6115234375 48.45 50.7 48.95 50.75 49.45 50.65 49.7 50.55 49.95 50.25
L 50.1 50.25 50.15 50.2 50.2 50.2 50.8 50.3
Q 50.9 50.9291015625 50.9 51.05
L 50.85 51 51.05 51.45
M 54.6 56.35
Q 55.25 56.4 55.5 56.15
L 55.9 55.8 56.9 56 56.9 55.95
Q 56.960546875 55.9197265625 57 55.9
L 57 56
Q 57.2 56.9 57.3 57.2 57.35 57.8 57.6 58 57.7 58.1 58 58.3
L 57.9 59.25 57.95 59.2
Q 58.0994140625 59.3494140625 58.15 59.5
L 57.15 59.45 56.65 59.6
Q 56.25 59.65 56.1 59.8 55.95 59.95 56.25 60 55.9 60.05 55.65 59.9 55.4 59.8 55.1 59.85
L 55.3 59.65
Q 54.8 59.5 54.65 59.55
L 54.4 59.75
Q 54.1134765625 59.6783203125 53.75 59.7
L 53.7 59.3 53.55 59 53.45 58.7 53.45 58.65 53.4 58.6 53.4 58.55 53.3 58.5
Q 53.2 58.3 53.1 58.65 53.05 58.3 53.15 58.05 53.25 57.85 53.15 57.55
L 53.35 57.75
Q 53.5 57.2 53.45 57.05
L 53.2 56.8
Q 53.217578125 56.6419921875 53.2 56.5
L 53.25 56.5
Q 53.8 56.4 54.6 56.35
M 52.1 57.8
Q 52.2 57.9 52.5 58.1
L 52.35 59 52.4 59
Q 52.55 59.15 52.65 59.5
L 52.65 59.8
Q 52.5396484375 59.81484375 52.45 59.8 52.75 59.9 52.55 59.95 52.35 60.05 52.35 60.15 51.75 60 51.9 59.95
L 51.4 59.95 50.95 60.05
Q 50.55 60.2 50.25 60
L 50 60.1
Q 49.85 60.2 48.95 60.05
L 48.9 60.2
Q 48.812109375 60.23203125 48.7 60.25 48.7599609375 59.4298828125 48.6 59.15 48.55 58.75 48.4 58.65 48.25 58.5 48.15 58.75 48.15 58.4 48.25 58.15 48.35 57.95 48.25 57.65
L 48.45 57.85
Q 48.6 57.3 48.55 57.15
L 48.35 56.9
Q 48.3638671875 56.858203125 48.35 56.8 48.658203125 56.812109375 49 56.75 49.55 56.65 50 56.75
L 50.65 56.75 51.05 56.65
Q 51.45 56.5 51.7 56.25 51.787109375 56.6099609375 51.85 57.05 51.85 57.6 52.1 57.8
M 51.8 61.1
L 51.85 61 51.9 60.95
Q 52.2 60.9 52.5 60.95
L 52.85 60.95
Q 52.8751953125 61.2505859375 53 61.6
L 52.95 62.25
Q 52.95 62.85 53.05 63.1 53 63.35 53.15 64.25 53.1908203125 64.3724609375 53.2 64.5 52.6412109375 64.5474609375 52.3 64.45 52.5 64.55 52.3 64.55 52.05 64.6 52.05 64.65 51.5 64.55 51.65 64.5 51.4 64.45 50.7 64.55 50.2 64.5 50.05 64.35
L 49.8 64.4
Q 49.5 64.45 48.7 64.3
L 48.6 64.35 48.85 61.9
Q 48.7642578125 61.85703125 48.65 61.55
L 48.7 61.55
Q 49.05 61.6 49.55 61.5 50 61.35 50.4 61.45 50.7 61.55 50.95 61.45
L 51.35 61.35 51.65 61.2 51.8 61.1
M 53.95 61.7
Q 53.8 61.65 53.7 61.25
L 53.7 61.15
Q 54.05234375 61.1283203125 54.45 61.1 55 61.15 55.25 60.95 55.45 60.65 55.65 60.55
L 56.55 60.8 56.55 60.75
Q 56.9 60.55 57.05 60.55
L 58.2 60.5 58.1 60.35
Q 58.2125 60.394921875 58.3 60.4 58.3630859375 60.578515625 58.4 60.8
L 58.55 60.75
Q 58.5 60.95 58.6 61.25
L 58.8 61.85 58.85 62.55
Q 58.85 63.05 59.05 63.4 59.05 63.7439453125 59.3 64.45 59.1337890625 64.55 58.85 64.55
L 56.95 64.45 56.9 64.45 56.85 64.4 56.5 64.55
Q 56.05 64.5 55.95 64.65 55.8 64.7 56 64.8 55.6 64.8 55.4 64.7 55.2 64.65 54.9 64.7
L 55.2 64.5
Q 54.65 64.4 54.5 64.4
L 54.15 64.55
Q 53.9861328125 64.4953125 53.8 64.45
L 53.95 61.7
M 57.15 55.85
L 57.15 55.9 57.1 55.85 57.15 55.85
M 46.45 51.35
Q 46.4 51.65 46.5 52.15 46.6 52.6 46.5 53
L 46.55 53.55 46.65 53.95
Q 46.8 54.25 47.05 54.45
L 47.1 55.1 47.05 55.45
Q 46.9974609375 55.483203125 46.9 55.5 46.27890625 55.5779296875 44.85 55.85 44.45 55.8 44.3 55.95 44.05 56.15 43.75 56.2 43.36640625 56.2333984375 43.05 56.25 43.1 56.00859375 43.1 55.95
L 43.05 55.9
Q 43.3583984375 55.8083984375 43.65 55.85 43.55 55.8 44 55.7 44.45 55.65 44.1 55.55 43.7244140625 55.6525390625 42.95 55.7 42.996484375 55.3384765625 42.85 54.85 42.75 54.15 42.75 53.9 42.7 54.2 42.7 54 42.600390625 53.7509765625 42.55 53.8 42.6 53.748828125 42.6 53.45 42.6 53.25 42.65 53.35 42.7 53.1 42.5 52.45 42.4 52 42.55 51.8
L 42.4 51.55
Q 42.3646484375 51.3375 42.35 51.15
L 43.95 51.15 44.3 51 44.6 51 44.75 51.05 44.85 51.05 45.1 51 45.3 51 46.25 50.85 46.3 50.85 46.3 50.9 46.25 50.85 46.45 51.35
M 44.85 57.1
L 45.2 57 46.1 57.05 46.95 56.95
Q 46.99296875 57.007421875 47 57.05 46.95 57.6 47.2 57.8 47.55 58.15 47.55 58.2
L 47.35 59.1 47.45 59.05
Q 47.65 59.35 47.65 59.6 47.65 59.7361328125 47.65 60.2 47.378125 60.2224609375 46.9 60.35
L 46.1 60.55 46 60.6 45.8 60.6
Q 45.45 60.55 45.3 60.7 45.15 60.9 44.85 60.9
L 44.15 60.85
Q 43.85 60.9 43.55 60.8 43.8 60.8 44.15 60.65 44.45 60.55 44.75 60.55
L 45.1 60.45
Q 45.45 60.35 45.2 60.3 44.85 60.4 43.45 60.4 43.4123046875 60.4 43.35 60.4 43.3212890625 60.0818359375 43.35 59.45
L 43.3 58.2 43.25 58.05 43.3 58 43.25 57.9
Q 43.15 57.55 43.05 57.45 43 57.35 42.95 57.65 42.8537109375 57.2650390625 42.95 57 43.2146484375 57.0517578125 43.6 57.1
L 44.85 57.1
M 43.4 61.65
L 43.45 61.6 45.8 61.9 45.95 61.8 46.1 61.8 46.15 61.75 47.25 61.8
Q 47.676171875 61.7248046875 47.95 61.65
L 47.95 61.75 47.9 62.45
Q 47.8 62.95 47.95 63.3
L 47.9 63.9 47.95 64.35
Q 47.8203125 64.31875 47.7 64.25 47.65 64.2 45.45 64.35 45.15 64.25 44.95 64.35 44.6 64.5 44.45 64.45
L 43.7 64.4
Q 43.416796875 64.3595703125 43.25 64.25 43.5013671875 64.292578125 43.8 64.25 44.1 64.1 44.4 64.2 44.3 64.15 44.75 64.15 45 64.1 45 64.15 45.05 64.1 44.9 64 44.662109375 64.04765625 43.3 63.95
L 43.4 61.65 Z"/>
</g>
</defs>

<g transform="matrix( 1, 0, 0, 1, 0,0) ">
<use xlink:href="#Layer1_0_FILL"/>
</g>
</svg>
