
<svg xmlns="http://www.w3.org/2000/svg" version="1.1" xmlns:xlink="http://www.w3.org/1999/xlink" preserveAspectRatio="none" x="0px" y="0px" width="100px" height="100px" viewBox="0 0 100 100">
<defs>
<g id="Layer1_0_MEMBER_0_FILL">
<path fill="#000000" stroke="none" d="
M 67.8 23.9
Q 66.75 22.85 64.75 23.65 64.45 23.75 63.9 23.5 63.35 23.2 63.05 22.9 62.25 21.85 61.6 21.5 60.75 20.95 59.65 21.1 57.85 21.4 56.9 19.6 55.8 17.75 54.4 17.45 53.55 17.3 52.25 18.2 50.95 19.15 50.1 18.9 49.25 18.5 48.05 16.6 46.9 14.8 45.35 14.35 44.65 14.15 43.1 15.3 41.6 16.4 40.55 15.95 39.9 15.7 38.8 14.55 37.9 13.65 37 13.7 36 15 35.5 15.6 34.65 16.75 33.9 17.35 28.6 21.75 27.25 30.45 26.65 34.4 26.4 40 26.3 43.2 26.1 49.6 26 51.9 28.45 52.55 29.1 52.75 30.75 53.5
L 30.75 57.4
Q 30.55 61.3 33.2 65.75 34.4 67.8 36.85 71.9 38.85 75.5 39.85 78.4 40.25 79.6 41.2 81.15 41.7 82.05 42.8 83.8 43.75 85.4 45.4 85.9 46.25 86.2 47.35 85.45 48.6 84.5 49.3 84.5 51.65 86.7 55.45 86.3 57.55 86.1 61.45 85.6 63.2 84.8 66.75 81.75 69.7 79.25 72.05 78.8 73.75 78.55 73.85 76.15 73.85 73.2 73.5 71.4 72.35 65.45 72.1 57.75 71.95 54.1 72 44.05 72.05 40.05 71.1 35.2 70.55 32.2 69.05 26.55 68.55 24.65 67.8 23.9 Z"/>
</g>
</defs>

<g transform="matrix( 1, 0, 0, 1.1114959716796875, 0,-5.6) ">
<use xlink:href="#Layer1_0_MEMBER_0_FILL"/>
</g>
</svg>
