
<svg xmlns="http://www.w3.org/2000/svg" version="1.1" xmlns:xlink="http://www.w3.org/1999/xlink" preserveAspectRatio="none" x="0px" y="0px" width="100px" height="100px" viewBox="0 0 100 100">
<defs>
<g id="Layer1_0_MEMBER_0_FILL">
<path fill="#000000" stroke="none" d="
M 43.65 23.15
Q 43.55 23.3 42.5 23.85
L 38.25 21.9
Q 35.95 23.95 33.65 27.25 32.35 29.1 29.9 32.85 29.6 33.2 29.5 34 28.6 38.95 28.4 40.7 28 44.5 28.5 47.5 29.4 53.25 29.15 57.95 29.05 59.85 29.85 63.1 30.75 66.6 30.75 68.25 30.85 72.95 33.1 76.9
L 36.1 75.45
Q 38.25 76.2 39.35 78.2 41.6 82.55 46.45 83.45 47.1 83.6 48.35 84.3 49.55 84.8 50.7 84.25
L 52.25 81.1
Q 54.4 81.5 55.45 81.25 57.1 80.9 57.9 79.05 58.1 78.55 58.65 78.1 59.25 77.7 59.75 77.6 60.95 77.45 62 76.55 63.15 75.45 63.7 74.9 64.25 74.35 67.4 71.6 67.65 70.95 68.05 69.25 68.45 67.75 68.8 66.9 72.4 58.6 71.55 52.05 71.15 49 70.8 44.4 70.2 36.8 70.2 36.7 70 35.05 69.5 33.05 68.95 31 68.2 30 67.2 28.55 65.4 28.15 63.95 27.9 63.5 26.7 63.1 25.4 61.7 24.7 60.05 24 59.3 23.55
L 56.65 17.3
Q 55.75 15.25 53.75 15.5
L 51.45 17.05
Q 50.1 17.95 49.1 18.35 45.6 19.8 43.65 23.15 Z"/>
</g>
</defs>

<g transform="matrix( 1, 0, 0, 1.1685791015625, 0,-8.4) ">
<use xlink:href="#Layer1_0_MEMBER_0_FILL"/>
</g>
</svg>
