
<svg xmlns="http://www.w3.org/2000/svg" version="1.1" xmlns:xlink="http://www.w3.org/1999/xlink" preserveAspectRatio="none" x="0px" y="0px" width="100px" height="100px" viewBox="0 0 100 100">
<defs>
<g id="Layer1_0_MEMBER_0_FILL">
<path fill="#000000" stroke="none" d="
M 84 26.15
Q 84.3 21.45 83.35 19.1 82.25 16.35 78.7 14.3 76.45 13.05 75.1 12.75 73.1 12.3 71.35 13.3 69.55 14.25 67.4 14.5 62.2 13.7 58.3 14.85 55 14.8 53.4 14.95 50.7 15.25 48.55 16.2 46.75 17.05 45.35 16.4 42.55 15.1 38.3 14.9 33.55 14.9 31.2 14.7 30.35 13.1 28.65 12.35 26.6 11.8 25.55 11.45 23 10.65 20.9 11.8 18.85 13 17.55 15.9 15.7 20.25 15.75 24.7 15.8 30.45 15.7 41.85 15.4 42.4 14.6 43.45 13.95 44.45 13.95 45.1 13.6 61.45 13.85 73.1 13.9 74.4 14.55 76.2 14.95 77.2 15.85 79.2 16.95 81.9 19.35 82 22.2 82.1 36.8 82.35 40.65 82.4 42.2 82.6 45.2 82.95 47.55 84.1 51.25 86 57.25 84.6 57.85 84.5 58.6 83.75 59.45 82.8 59.85 82.4
L 64.25 82.3 65.1 81 64.25 79.7
Q 65.35 81.1 66.4 79.65 66.95 79.1 67.25 78.8 67.75 78.25 67.9 77.8 69.4 73.35 69.55 72.95 70.6 70.25 71.85 68.45 72.35 67.7 72.65 66.15 72.95 64.4 73.15 63.55
L 73.15 63.5
Q 73.4 63.2 74 62.6 74.5 62.05 74.6 61.55 75.2 59.45 77.5 50.05 77.75 49.75 78.35 49.1 78.85 48.5 78.95 48.05 80.8 38.2 83.3 30.1 83.95 27.8 84 26.15
M 64.2 79.65
L 63.8 79.4 64.5 78.85 64.2 79.65 Z"/>
</g>
</defs>

<g transform="matrix( 1, 0, 0, 1.11065673828125, 0,-5.35) ">
<use xlink:href="#Layer1_0_MEMBER_0_FILL"/>
</g>
</svg>
