
<svg xmlns="http://www.w3.org/2000/svg" version="1.1" xmlns:xlink="http://www.w3.org/1999/xlink" preserveAspectRatio="none" x="0px" y="0px" width="100px" height="100px" viewBox="0 0 100 100">
<defs>
<g id="Layer1_0_MEMBER_0_FILL">
<path fill="#000000" stroke="none" d="
M 69.55 20.2
Q 68.85 17.95 67.7 17.75 66.65 17.45 66.05 16.3 65.05 14.45 64.95 14.35 64.9 14.2 63.85 13.95 63.25 14.1 62.3 15.55 61.4 16.85 60.1 16.95 58.5 16.35 55.7 13.9 52.65 11.2 50.8 10.3 50.6 10.35 49.1 11.2 47.9 11.9 46.8 11.7 44.1 9.4 40.3 9.75 38.3 9.9 33.2 11.55 31.3 13.4 29.9 16.3 29.45 17.3 27.8 21.55 24.7208984375 29.5365234375 24.2 37.05 23.9623046875 41.248828125 24.5 45.3 26.55 60.7 30.2 74.35 31.95 80.9 34.1 84.3 35.95 87.2 37.6 88.4 39.85 90.1 42.7 89.55 43.4 89.4 43.9 89.6 47.05 90.9 50.6 90.15 52.95 89.65 56.9 87.8 59.8 86.5 60.95 86.35 63.85 86.1 64.95 82.65 65.35 81.1 65.6 80.35 66.05 79 66.75 78.35 68.75 76.4 69.8 73.3 70.5 71.35 71.05 67.45 72.35 59.45 73 55.5 74.1 48.4 74.75 43.5 75.296484375 39.2373046875 75.55 37.05 75.77734375 35.235546875 75.8 34.85 76.05 29.9 74.35 26.15 71.8 24.8 71.2 24.05 70.6 23.25 69.55 20.2 Z"/>
</g>
</defs>

<g transform="matrix( 1, 0, 0, 1, 0,0) ">
<use xlink:href="#Layer1_0_MEMBER_0_FILL"/>
</g>
</svg>
