
<svg xmlns="http://www.w3.org/2000/svg" version="1.1" xmlns:xlink="http://www.w3.org/1999/xlink" preserveAspectRatio="none" x="0px" y="0px" width="100px" height="100px" viewBox="0 0 100 100">
<defs>
<g id="Layer1_0_MEMBER_0_FILL">
<path fill="#000000" stroke="none" d="
M 68.9 18
Q 67.1 16 64.2 15.9 62.75 15.85 51 15.85
L 48.85 15.85
Q 45.8 15.85 45.2 16 43.25 16.45 42.2 18.45 33.45 18.7 32.35 18.8 30.05 18.95 28.5 20.95 26.95 23 26.9 25.95 26.7 43.4 27 54.15 27.05 55.65 27.75 57.95 28.15 59.2 29 61.7 29 65.7 31.15 67.15 31.15 67.2 31.3 71.15 31.4 73.55 31.6 75.15 31.9 77.5 33.6 79 35.25 80.5 37.25 80.2 41.35 79.55 44.75 80.15 48.95 80.85 56.8 80.25 57.75 80.2 58.8 79.45 59.85 78.75 60.5 77.8 69.2 65.7 70.6 48.7 71.1 43.4 71 36 70.8 27.45 70.7 23.2 70.65 19.95 68.9 18 Z"/>
</g>
</defs>

<g transform="matrix( 1, 0, 0, 1.2720184326171875, 0,-13.1) ">
<use xlink:href="#Layer1_0_MEMBER_0_FILL"/>
</g>
</svg>
