
<svg xmlns="http://www.w3.org/2000/svg" version="1.1" xmlns:xlink="http://www.w3.org/1999/xlink" preserveAspectRatio="none" x="0px" y="0px" width="100px" height="100px" viewBox="0 0 100 100">
<defs>
<g id="Layer1_0_MEMBER_0_FILL">
<path fill="#000000" stroke="none" d="
M 86.25 32.9
Q 86.15 30.5 86.2 26.2 86.25 21.5 86.2 19.45 86.15 13.25 84.8 11.4 83.55 9.65 78.25 7.95 72.5 6.1 67.65 8.05 58.3 11.8 46.1 11.05 42.8 10.85 39.5 11.05 37.3 11.25 36.75 11.3 35.25 11.55 34.15 12.1 31.65 13.35 28.25 13.6 24.25 13.65 22.25 13.7 20.2 13.75 19.15 13.8 17.25 13.85 16 14.1 12.65 14.8 11.7 19 11 22.3 13.4 24.6
L 13.5 40.4
Q 13.5 44.05 15.6 46.15 15.6 56.35 15.85 59.25 16.55 66.55 19.25 71.75 19.75 72.75 19.95 74.85 20.15 77.4 20.35 78.15 20.55 78.85 21.15 79.75 21.55 80.25 22.25 81.25 23.4 86.2 25.15 87.95 26.9 89.65 30.45 89.25 33.6 88.95 34.7 88.3 36.8 87.15 39.5 86.85 41 86.65 44.4 86.65
L 50.95 86.6
Q 54.45 86.7 56.3 86.4 59.2 85.95 61.35 84.3 63.7 82.5 66.8 81.75 69.15 81.2 72.7 81.1 76 81.05 77.3 79.55 78.5 78.1 79.6 73.15
L 82.35 53.45
Q 82.55 52.45 83.2 51 85.15 47.1 85.85 42.25 86.4 38.3 86.25 32.9
M 24.75 16.5
L 24.65 16.85 24.45 16.45 24.75 16.5 Z"/>
</g>
</defs>

<g transform="matrix( 1, 0, 0, 1, 0,0) ">
<use xlink:href="#Layer1_0_MEMBER_0_FILL"/>
</g>
</svg>
