
<svg xmlns="http://www.w3.org/2000/svg" version="1.1" xmlns:xlink="http://www.w3.org/1999/xlink" preserveAspectRatio="none" x="0px" y="0px" width="100px" height="100px" viewBox="0 0 100 100">
<defs>
<g id="Layer1_0_MEMBER_0_FILL">
<path fill="#000000" stroke="none" d="
M 69.75 9.2
Q 66.7 8.15 63.85 8.7 62.05 9 61.15 9.15 59.55 9.45 58.5 9.8 57.9 10 57.1 10.75 56.3 11.65 55.85 12
L 49.45 12.15
Q 41.8 12.2 40.3 12.1 35.15 11.75 31.3 9.85 30.5 9.5 29.25 9.5 27.75 9.65 27 9.65 25.65 9.7 24.5 10.9 23.35 12.1 23.25 13.65 22.65 21.1 22.45 22.8 21.95 28 21.2 31.95 19.15 42.5 22.9 49.95 22.8 52.4 22.75 57.35 22.65 61.8 22.1 64.6 21.3 68.6 22.1 72.65 22.7 75.6 24.5 79.8 25.55 82.3 27.4 83.65 29.3 85.1 31.7 85.05 32.6 84.95 34.4 84.9 35.95 84.75 36.95 84.3 40.65 82.7 44.15 84.3 45.15 84.75 46.7 84.9 47.6 84.95 49.4 85.05 52.05 87.2 55.8 87.7 57.2 87.85 62.6 87.8 70.3 82.8 71.45 70.55 72.05 64.25 72.35 62.05 73 57.3 74.05 53.7 75.75 47.9 75.75 40.65 75.9 29.8 77.3 19.5 77.6 17.3 76.85 15.5 76.3 14.05 74.9 12.55 72.85 10.25 69.75 9.2 Z"/>
</g>
</defs>

<g transform="matrix( 1, 0, 0, 1.0378265380859375, 0,-1.8) ">
<use xlink:href="#Layer1_0_MEMBER_0_FILL"/>
</g>
</svg>
