
<svg xmlns="http://www.w3.org/2000/svg" version="1.1" xmlns:xlink="http://www.w3.org/1999/xlink" preserveAspectRatio="none" x="0px" y="0px" width="100px" height="100px" viewBox="0 0 100 100">
<defs>
<g id="Layer1_0_MEMBER_0_FILL">
<path fill="#000000" stroke="none" d="
M 65.6 23
Q 64.1 19.15 64 18.85 63.95 18.65 63.6 18.4
L 63 18
Q 62.35 17.85 61.15 18.55 60 19.2 59.25 18.9 58.15 18.65 57.2 17.6 56.2 16.35 55.6 15.8 54.45 14.65 54.05 14.35 53.05 13.65 52.15 13.7 51 13.8 48.8 13.05 46.6 12.25 45.25 12.4 44.2 13.2 42.45 15.1 40.6 17.1 39.6 17.95 35 21.7 33.9 25.5 32.15 31.55 31.65 34.5 30.7 39.55 31.2 43.75 31.55 47.05 31.5 48.85 31.45 51.7 30.6 53.9 29.8 55.9 31 57.9 32.25 59.9 32.8 62.7 33.1 64.1 33.4 67.75 33.6 69.9 34.5 73.85 34.9 75.6 36.7 76.55
L 39.95 76.2 41.35 78.5
Q 42.5 79.65 44 79.5 45.7 79.35 46.25 79.65 46.75 81.1 47.45 84.3 48.35 86.9 50.65 87.7 51.95 87.5 52.85 86.15 53.85 84.65 54.45 84.45 59.7 82.6 59.3 76.35 59.2 75 60.3 74.8 60.9 74.95 62.75 76.95 64.25 78.55 66.4 78.2 67 77.25 67.3 76.8 67.85 75.95 67.95 75.3 69.3 68.15 69.35 67.9 69.95 63.65 69.3 60.35 68.8 57.7 68.7 52.15
L 68.85 37
Q 68.9 33.9 68.75 32.95 68.45 30.7 67 29.25 66.3 28.6 66.4 27.35 66.6 25.5 65.6 23 Z"/>
</g>
</defs>

<g transform="matrix( 1, 0, 0, 1.0723724365234375, 0,-3.6) ">
<use xlink:href="#Layer1_0_MEMBER_0_FILL"/>
</g>
</svg>
