
<svg xmlns="http://www.w3.org/2000/svg" version="1.1" xmlns:xlink="http://www.w3.org/1999/xlink" preserveAspectRatio="none" x="0px" y="0px" width="100px" height="100px" viewBox="0 0 100 100">
<defs>
<g id="Layer1_0_MEMBER_0_FILL">
<path fill="#000000" stroke="none" d="
M 62.9 31.05
Q 61.65 29.45 58.2 27.15 55.05 25.05 54 23.2 53.8 22.8 52.95 22.6 52.15 22.4 51.5 22.5 49.1 22.85 46.35 24.95 42.4 27.95 41.8 28.3 41.45 28.45 41.2 29.5 41 30.85 39.6 33.25 36.15 38.8 36.55 46.4 36.9 54.05 37.4 59.4 37.7 63.25 38.25 65.55 39.05 68.9 40.55 71.25 44.3 77.3 49.7 77.5 55.3 77.7 57.9 76.5 58.95 75.4 59.5 73.7 59.95 71.9 60.3 71.05 61 68.3 61.8 67.25 63.55 65 63.45 60.8
L 62.9 31.05 Z"/>
</g>
</defs>

<g transform="matrix( 1, 0, 0, 1.46551513671875, 0,-23.25) ">
<use xlink:href="#Layer1_0_MEMBER_0_FILL"/>
</g>
</svg>
