
<svg xmlns="http://www.w3.org/2000/svg" version="1.1" xmlns:xlink="http://www.w3.org/1999/xlink" preserveAspectRatio="none" x="0px" y="0px" width="100px" height="100px" viewBox="0 0 100 100">
<defs>
<g id="Layer1_0_MEMBER_0_FILL">
<path fill="#000000" stroke="none" d="
M 85.55 24.9
Q 84.9 22.25 83.05 18.4 82.15 16.6 80.2 15.4 78.9 14.6 76.55 13.85 75.35 13.45 73.9 14.25 72.25 15.3 71.4 15.65
L 58.2 15.65
Q 56.45 13.25 54.55 13.2 52.2 13.15 40.45 13
L 31.3 12.95
Q 26.1 12.55 22.35 10.6 21.95 10.4 21.3 10.4 20.55 10.4 20.2 10.35 17.1 10 15.65 11.6 14.2 13.25 14.1 17.15 14.05 18.7 14.05 26.45 11.95 28.6 11.95 32.35
L 11.8 64.45
Q 11.8 70.5 15.05 78.45 15.35 79.1 16.2 79.65 17.05 80.1 17.8 80.2 19.2 80.3 22.1 79.6 22.8 79.5 24.25 79.05 25.5 78.7 26.3 78.9 27.5 79.2 38.1 81.35 45.25 82.75 49.7 84.75 54.3 86.75 60.5 85.7 64.2 85.05 66.25 84.2 69.4 82.9 71.4 80.5 73.05 79.25 73.45 76.9 73.55 76.3 73.7 72.45 75.35 70.9 76.35 68.4 77.1 66.6 77.8 63.5 78.35 60.95 80.3 50.85 80.65 50.3 81.4 49.25 82.05 48.35 82.1 47.65 82.45 44.35 83.6 39.85 85 34.75 85.6 32.2 86.45 28.7 85.55 24.9 Z"/>
</g>
</defs>

<g transform="matrix( 1, 0, 0, 1.0864715576171875, 0,-4.15) ">
<use xlink:href="#Layer1_0_MEMBER_0_FILL"/>
</g>
</svg>
