
<svg xmlns="http://www.w3.org/2000/svg" version="1.1" xmlns:xlink="http://www.w3.org/1999/xlink" preserveAspectRatio="none" x="0px" y="0px" width="100px" height="100px" viewBox="0 0 100 100">
<defs>
<g id="Layer1_0_MEMBER_0_FILL">
<path fill="#000000" stroke="none" d="
M 62.75 22.45
Q 63.6 19.7 61.85 17.5 58.45 16.35 56.7 16.6
L 53.85 17.05
Q 52.2 17.15 51.05 16.3 50.5 17.2 48.65 17.4 46.75 17.6 46.05 18.55 44.95 22.85 43.05 24.95 41.9 26.3 41.05 28.4 40.65 29.4 39.75 32.2 39.3 33.5 37.95 38.1 36.85 41.75 36 43.95 34.15 49 33.5 55.05 33.05 59.75 33.2 66.45 33.45 73.95 38.55 79.15 41.45 82.1 44.6 83.15 48.05 84.25 52.1 83.25 53.5 78.6 57.95 73.3 59.75 71.05 60.65 69.95
L 60.6 69.9
Q 62.266015625 66.7724609375 63.15 65.25 64.7 62.5 66.45 60.9 65.15 59.45 65.45 57.85
L 66.75 52.45 66.75 50.85
Q 66.35 49.9 64.9 48.55 63.55 47.35 63.3 46.4 62.6 41 62.35 38.35 61.85 31.55 61.8 30.4 61.75 25.9 62.75 22.45
M 60.6 68.95
Q 60.6453125 69.2673828125 60.55 69.9 59.941015625 69.6349609375 59.8 69.4
L 59.95 68.45
Q 60.55 68.8 60.6 68.95 Z"/>
</g>
</defs>

<g transform="matrix( 1, 0, 0, 1.1971893310546875, 0,-9.85) ">
<use xlink:href="#Layer1_0_MEMBER_0_FILL"/>
</g>
</svg>
