
<svg xmlns="http://www.w3.org/2000/svg" version="1.1" xmlns:xlink="http://www.w3.org/1999/xlink" preserveAspectRatio="none" x="0px" y="0px" width="100px" height="100px" viewBox="0 0 100 100">
<defs>
<g id="Layer1_0_MEMBER_0_FILL">
<path fill="#000000" stroke="none" d="
M 86.1 20.05
Q 84.5 15.85 81.9 14.1 79.3 12.55 78.05 11.65 70.55 6.25 63.45 9.75 61.75 10.65 59.2 10.85 56.3 10.9 54.85 11
L 41.95 10.95
Q 34.5 10.9 33.9 10.85 29.35 10.5 26 8.85 24.85 8.25 22.85 8.25 20.65 8.35 19.55 8.25 16.55 8 14.9 9.25 12.95 10.7 12.45 14.3 12.3 15.3 11.55 18.2 10.85 20.6 10.9 22.05 11.1 27.8 10.6 39.35 10.5 49.65 12.4 56.55 12.85 58.1 12.9 60.45 12.95 61.8 12.9 64.5 13 68.95 13 77.9 13.1 81.95 14.4 83.65 15.65 85.25 19.55 86.55 22.1 86.9 28.2 86.1 33.7 85.35 36.85 86.2 37.35 86.35 37.9 86 40.25 84.3 43.1 84.55 44.9 84.75 48.35 86.1 49.55 86.6 51.55 86.6 52.65 86.65 54.85 86.65 60.4 89.65 65.95 86.65 69.2 86.55 70.35 83.95 77.55 74.8 79.9 63.4 80.3 61.4 81.25 58.35 82.5 54.25 82.75 53.35 83.9 48.95 84.2 47.05 84.7 43.45 83.95 40.4 83.75 39.45 84.05 37.9 84.5 36.1 84.7 35.25 86.05 29.55 86.7 27.65 87.4 25.75 87.15 23.75 86.95 22.2 86.1 20.05
M 50.8 37.35
L 50.6 37.7
Q 50.35 37.55 50.2 37.15
L 50.8 37.35 Z"/>
</g>
</defs>

<g transform="matrix( 1, 0, 0, 1.029388427734375, 0,-1.4) ">
<use xlink:href="#Layer1_0_MEMBER_0_FILL"/>
</g>
</svg>
