
<svg xmlns="http://www.w3.org/2000/svg" version="1.1" xmlns:xlink="http://www.w3.org/1999/xlink" preserveAspectRatio="none" x="0px" y="0px" width="100px" height="100px" viewBox="0 0 100 100">
<defs>
<g id="Layer1_0_MEMBER_0_FILL">
<path fill="#000000" stroke="none" d="
M 77.85 22.55
Q 77.8 21.25 77.3 20 75.4 15.2 70.15 12.2 66.2 10 62.8 11.4 56.2 14.2 52.35 14.6 50.65 14.8 48.1 14.15 45.25 13.3 43.85 13
L 42.75 13
Q 42 12.9 40.55 12.9 38.8 10.5 36.85 10.45 28.7 10.35 27.05 10.4 23.95 10.55 21.8 13.45 19.6 16.4 19.85 20.25 20.25 26.35 19.95 29.45 19.75 31.55 20.1 34.65 20.3 36.45 20.75 39.95
L 20.75 61.6
Q 20.75 70.6 20.8 72.4 20.95 77.7 24.65 83.3 25.85 85.15 27.4 85.4 33.45 86.25 36.7 86 41.75 85.6 45.65 82.85 51.6 78.65 58.35 81.9 60.3 82.85 62.65 83 65.35 83.2 66.45 80.9 67.05 79.75 69.2 75.1 73.6 68.8 73.5 60.45 73.35 50.95 76.3 42.25 77.7 38 77.95 32.5 78.05 29.85 77.85 22.55 Z"/>
</g>
</defs>

<g transform="matrix( 1, 0, 0, 1.087890625, 0,-4.2) ">
<use xlink:href="#Layer1_0_MEMBER_0_FILL"/>
</g>
</svg>
