
<svg xmlns="http://www.w3.org/2000/svg" version="1.1" xmlns:xlink="http://www.w3.org/1999/xlink" preserveAspectRatio="none" x="0px" y="0px" width="100px" height="100px" viewBox="0 0 100 100">
<defs>
<g id="Layer1_0_MEMBER_0_FILL">
<path fill="#000000" stroke="none" d="
M 42.35 20.65
Q 41.95 20.4 41.1 20.3 39.4 20 39.05 19.95 37.5 23 33.65 23.75 31.25 24.15 30.6 25.6 29.8 27.35 27.9 30.7 26.45 33.7 26.65 36.35 27.1 41.9 27.85 46.1 29.8 55.95 30.4 58.45 31.95 65.45 33.75 70.65 34.9 73.9 36.35 75.85 38.2 78.3 41.05 79.7 42 79.65 44.15 79.6 46.1 79.55 47.4 79.1 48.75 78.65 50.75 79.35 53.05 80.2 54.05 80.1
L 56.05 77.6 58.15 77.9
Q 60.05 77.05 60.9 74.85 61.6 72.35 62.15 71.35
L 64.7 71.2
Q 65.1 69.7 65.3 69 65.7 67.8 66.65 67.35 71.15 65.3 71.55 60.85 71.6 60.4 72.4 59.25 73.5 57.85 73.3 55.15 72.6 46.15 72.5 41.6 72.5 37.5 69.75 35.05 68.25 33.7 67.45 33 66.1 31.8 65.05 31.1 63.8 30.2 63.25 29.9 62.15 29.35 61.15 29.6 59.55 30.05 58.15 29.2 57.4 28.8 55.9 27.3 55.5 26.9 54.75 25.8 54.1 24.85 53.6 24.45 52 23.1 50.3 23.1 47.3 23.1 46.1 22.7 45.1 22.4 42.35 20.65 Z"/>
</g>
</defs>

<g transform="matrix( 1, 0, 0, 1.34246826171875, 0,-17.15) ">
<use xlink:href="#Layer1_0_MEMBER_0_FILL"/>
</g>
</svg>
